<?xml version="1.0" encoding="UTF-8" standalone="no"?><svg xmlns="http://www.w3.org/2000/svg" xmlns:xlink="http://www.w3.org/1999/xlink" contentStyleType="text/css" height="331px" preserveAspectRatio="none" style="width:801px;height:331px;background:#FFFFFF;" version="1.1" viewBox="0 0 801 331" width="801px" zoomAndPan="magnify"><defs/><g><text fill="#000000" font-family="sans-serif" font-size="12" lengthAdjust="spacing" textLength="39" x="8" y="18.8281">Détails</text><line style="stroke:#000000;stroke-width:1.0;" x1="6" x2="6" y1="6" y2="22.3441"/><line style="stroke:#000000;stroke-width:1.0;" x1="6" x2="50" y1="6" y2="6"/><line style="stroke:#000000;stroke-width:1.0;" x1="50" x2="50" y1="6" y2="22.3441"/><line style="stroke:#000000;stroke-width:1.0;" x1="50" x2="60" y1="22.3441" y2="22.3441"/><text fill="#000000" font-family="sans-serif" font-size="12" font-weight="bold" lengthAdjust="spacing" textLength="48" x="65" y="18.8281">Capture</text><line style="stroke:#000000;stroke-width:1.0;" x1="60" x2="60" y1="6" y2="22.3441"/><line style="stroke:#000000;stroke-width:1.0;" x1="60" x2="116" y1="6" y2="6"/><line style="stroke:#000000;stroke-width:1.0;" x1="116" x2="116" y1="6" y2="22.3441"/><line style="stroke:#000000;stroke-width:1.0;" x1="116" x2="126" y1="22.3441" y2="22.3441"/><text fill="#000000" font-family="sans-serif" font-size="12" font-weight="bold" lengthAdjust="spacing" textLength="43" x="11" y="55.5163">Bâbord</text><line style="stroke:#000000;stroke-width:1.0;" x1="6" x2="6" y1="42.6882" y2="59.0323"/><line style="stroke:#000000;stroke-width:1.0;" x1="6" x2="57" y1="42.6882" y2="42.6882"/><line style="stroke:#000000;stroke-width:1.0;" x1="57" x2="57" y1="42.6882" y2="59.0323"/><line style="stroke:#000000;stroke-width:1.0;" x1="57" x2="67" y1="59.0323" y2="59.0323"/><text fill="#000000" font-family="sans-serif" font-size="12" lengthAdjust="spacing" textLength="41" x="69" y="55.5163">Tribord</text><line style="stroke:#000000;stroke-width:1.0;" x1="67" x2="67" y1="42.6882" y2="59.0323"/><line style="stroke:#000000;stroke-width:1.0;" x1="67" x2="113" y1="42.6882" y2="42.6882"/><line style="stroke:#000000;stroke-width:1.0;" x1="113" x2="113" y1="42.6882" y2="59.0323"/><line style="stroke:#000000;stroke-width:1.0;" x1="113" x2="123" y1="59.0323" y2="59.0323"/><text fill="#000000" font-family="sans-serif" font-size="12" lengthAdjust="spacing" textLength="80" x="7" y="93.2045">Engin bâbord :</text><rect fill="#EEEEEE" height="19.3441" style="stroke:#000000;stroke-width:1.0;" width="175" x="144" y="81.3765"/><text fill="#000000" font-family="sans-serif" font-size="12" lengthAdjust="spacing" textLength="89" x="146" y="96.2045">Chalut standard</text><line style="stroke:#000000;stroke-width:1.0;" x1="308" x2="308" y1="81.3765" y2="100.7206"/><polygon fill="#000000" points="311,87.3765,317,87.3765,314,95.7206" style="stroke:#000000;stroke-width:1.0;"/><text fill="#000000" font-family="sans-serif" font-size="12" lengthAdjust="spacing" textLength="134" x="7" y="117.5487">Poids total capture (kg) :</text><text fill="#000000" font-family="sans-serif" font-size="12" lengthAdjust="spacing" textLength="3" x="146" y="117.5487"> </text><line style="stroke:#000000;stroke-width:1.0;" x1="144" x2="203" y1="121.0647" y2="121.0647"/><line style="stroke:#000000;stroke-width:1.0;" x1="144" x2="144" y1="118.0647" y2="120.0647"/><line style="stroke:#000000;stroke-width:1.0;" x1="203" x2="203" y1="118.0647" y2="120.0647"/><text fill="#000000" font-family="sans-serif" font-size="12" lengthAdjust="spacing" textLength="117" x="7" y="137.8928">Poids total rejet (kg) :</text><text fill="#000000" font-family="sans-serif" font-size="12" lengthAdjust="spacing" textLength="3" x="146" y="137.8928"> </text><line style="stroke:#000000;stroke-width:1.0;" x1="144" x2="203" y1="141.4088" y2="141.4088"/><line style="stroke:#000000;stroke-width:1.0;" x1="144" x2="144" y1="138.4088" y2="140.4088"/><line style="stroke:#000000;stroke-width:1.0;" x1="203" x2="203" y1="138.4088" y2="140.4088"/><text fill="#000000" font-family="sans-serif" font-size="12" lengthAdjust="spacing" textLength="80" x="8" y="159.2369">Partie retenue</text><line style="stroke:#000000;stroke-width:1.0;" x1="6" x2="6" y1="146.4088" y2="162.7529"/><line style="stroke:#000000;stroke-width:1.0;" x1="6" x2="91" y1="146.4088" y2="146.4088"/><line style="stroke:#000000;stroke-width:1.0;" x1="91" x2="91" y1="146.4088" y2="162.7529"/><line style="stroke:#000000;stroke-width:1.0;" x1="91" x2="101" y1="162.7529" y2="162.7529"/><text fill="#000000" font-family="sans-serif" font-size="12" font-weight="bold" lengthAdjust="spacing" textLength="81" x="106" y="159.2369">Partie rejetée</text><line style="stroke:#000000;stroke-width:1.0;" x1="101" x2="101" y1="146.4088" y2="162.7529"/><line style="stroke:#000000;stroke-width:1.0;" x1="101" x2="190" y1="146.4088" y2="146.4088"/><line style="stroke:#000000;stroke-width:1.0;" x1="190" x2="190" y1="146.4088" y2="162.7529"/><line style="stroke:#000000;stroke-width:1.0;" x1="190" x2="200" y1="162.7529" y2="162.7529"/><rect fill="#EEEEEE" height="12" rx="5" ry="5" style="stroke:#000000;stroke-width:2.5;" width="36" x="9.5" y="168.2529"/><path d="M26.5,170.2529 L26.5,173.2529 L23.5,173.2529 L23.5,175.2529 L26.5,175.2529 L26.5,178.2529 L28.5,178.2529 L28.5,175.2529 L31.5,175.2529 L31.5,173.2529 L28.5,173.2529 L28.5,170.2529 L26.5,170.2529 " fill="#000000" style="stroke:;stroke-width:0.0;stroke-dasharray:;"/><text fill="#000000" font-family="sans-serif" font-size="12" lengthAdjust="spacing" textLength="8" x="7" y="197.581">#</text><text fill="#000000" font-family="sans-serif" font-size="12" font-weight="bold" lengthAdjust="spacing" textLength="121" x="50" y="197.581">Espèce commerciale</text><text fill="#000000" font-family="sans-serif" font-size="12" font-weight="bold" lengthAdjust="spacing" textLength="58" x="276" y="197.581">Catégorie</text><text fill="#000000" font-family="sans-serif" font-size="12" font-weight="bold" lengthAdjust="spacing" textLength="64" x="358" y="197.581">Poids total</text><text fill="#000000" font-family="sans-serif" font-size="12" font-weight="bold" lengthAdjust="spacing" textLength="76" x="424" y="197.581">Taux échant.</text><text fill="#000000" font-family="sans-serif" font-size="12" font-weight="bold" lengthAdjust="spacing" textLength="107" x="502" y="197.581">Taux sous-échant.</text><text fill="#000000" font-family="sans-serif" font-size="12" font-weight="bold" lengthAdjust="spacing" textLength="80" x="611" y="197.581">Poids échant.</text><text fill="#000000" font-family="sans-serif" font-size="12" font-weight="bold" lengthAdjust="spacing" textLength="99" x="693" y="197.581">Nb indiv échant.</text><text fill="#000000" font-family="sans-serif" font-size="12" lengthAdjust="spacing" textLength="7" x="7" y="215.9251">4</text><rect fill="#EEEEEE" height="19.3441" style="stroke:#000000;stroke-width:1.0;" width="223" x="50" y="203.097"/><text fill="#000000" font-family="sans-serif" font-size="12" lengthAdjust="spacing" textLength="85" x="52" y="217.9251">MNZ- Baudroie</text><line style="stroke:#000000;stroke-width:1.0;" x1="262" x2="262" y1="203.097" y2="222.4411"/><polygon fill="#000000" points="265,209.097,271,209.097,268,217.4411" style="stroke:#000000;stroke-width:1.0;"/><rect fill="#EEEEEE" height="19.3441" style="stroke:#000000;stroke-width:1.0;" width="79" x="276" y="203.097"/><text fill="#000000" font-family="sans-serif" font-size="12" lengthAdjust="spacing" textLength="14" x="278" y="217.9251">10</text><line style="stroke:#000000;stroke-width:1.0;" x1="344" x2="344" y1="203.097" y2="222.4411"/><polygon fill="#000000" points="347,209.097,353,209.097,350,217.4411" style="stroke:#000000;stroke-width:1.0;"/><text fill="#000000" font-family="sans-serif" font-size="12" lengthAdjust="spacing" textLength="14" x="358" y="215.9251">25</text><text fill="#000000" font-family="sans-serif" font-size="12" lengthAdjust="spacing" textLength="7" x="611" y="215.9251">5</text><text fill="#000000" font-family="sans-serif" font-size="12" lengthAdjust="spacing" textLength="7" x="693" y="215.9251">2</text><text fill="#000000" font-family="sans-serif" font-size="12" lengthAdjust="spacing" textLength="7" x="7" y="238.2692">3</text><rect fill="#EEEEEE" height="19.3441" style="stroke:#000000;stroke-width:1.0;" width="223" x="50" y="225.4411"/><text fill="#000000" font-family="sans-serif" font-size="12" lengthAdjust="spacing" textLength="85" x="52" y="240.2692">MNZ- Baudroie</text><line style="stroke:#000000;stroke-width:1.0;" x1="262" x2="262" y1="225.4411" y2="244.7853"/><polygon fill="#000000" points="265,231.4411,271,231.4411,268,239.7853" style="stroke:#000000;stroke-width:1.0;"/><rect fill="#EEEEEE" height="19.3441" style="stroke:#000000;stroke-width:1.0;" width="79" x="276" y="225.4411"/><text fill="#000000" font-family="sans-serif" font-size="12" lengthAdjust="spacing" textLength="14" x="278" y="240.2692">30</text><line style="stroke:#000000;stroke-width:1.0;" x1="344" x2="344" y1="225.4411" y2="244.7853"/><polygon fill="#000000" points="347,231.4411,353,231.4411,350,239.7853" style="stroke:#000000;stroke-width:1.0;"/><text fill="#000000" font-family="sans-serif" font-size="12" lengthAdjust="spacing" textLength="14" x="358" y="238.2692">25</text><text fill="#000000" font-family="sans-serif" font-size="12" lengthAdjust="spacing" textLength="7" x="611" y="238.2692">5</text><text fill="#000000" font-family="sans-serif" font-size="12" lengthAdjust="spacing" textLength="7" x="693" y="238.2692">2</text><text fill="#000000" font-family="sans-serif" font-size="12" lengthAdjust="spacing" textLength="7" x="7" y="260.6133">2</text><rect fill="#EEEEEE" height="19.3441" style="stroke:#000000;stroke-width:1.0;" width="223" x="50" y="247.7853"/><text fill="#000000" font-family="sans-serif" font-size="12" lengthAdjust="spacing" textLength="160" x="52" y="262.6133">NEP - Langoustine commune</text><line style="stroke:#000000;stroke-width:1.0;" x1="262" x2="262" y1="247.7853" y2="267.1294"/><polygon fill="#000000" points="265,253.7853,271,253.7853,268,262.1294" style="stroke:#000000;stroke-width:1.0;"/><rect fill="#EEEEEE" height="19.3441" style="stroke:#000000;stroke-width:1.0;" width="79" x="276" y="247.7853"/><text fill="#000000" font-family="sans-serif" font-size="12" lengthAdjust="spacing" textLength="32" x="278" y="262.6133">Petite</text><line style="stroke:#000000;stroke-width:1.0;" x1="344" x2="344" y1="247.7853" y2="267.1294"/><polygon fill="#000000" points="347,253.7853,353,253.7853,350,262.1294" style="stroke:#000000;stroke-width:1.0;"/><text fill="#000000" font-family="sans-serif" font-size="12" lengthAdjust="spacing" textLength="14" x="358" y="260.6133">25</text><text fill="#000000" font-family="sans-serif" font-size="12" lengthAdjust="spacing" textLength="18" x="424" y="260.6133">1/5</text><text fill="#000000" font-family="sans-serif" font-size="12" lengthAdjust="spacing" textLength="18" x="502" y="260.6133">1/5</text><text fill="#000000" font-family="sans-serif" font-size="12" font-style="italic" lengthAdjust="spacing" textLength="7" x="611" y="260.6133">5</text><text fill="#000000" font-family="sans-serif" font-size="12" lengthAdjust="spacing" textLength="7" x="693" y="260.6133">2</text><text fill="#000000" font-family="sans-serif" font-size="12" lengthAdjust="spacing" textLength="7" x="7" y="282.9575">1</text><rect fill="#EEEEEE" height="19.3441" style="stroke:#000000;stroke-width:1.0;" width="223" x="50" y="270.1294"/><text fill="#000000" font-family="sans-serif" font-size="12" lengthAdjust="spacing" textLength="57" x="52" y="284.9575">SOX - Sole</text><line style="stroke:#000000;stroke-width:1.0;" x1="262" x2="262" y1="270.1294" y2="289.4735"/><polygon fill="#000000" points="265,276.1294,271,276.1294,268,284.4735" style="stroke:#000000;stroke-width:1.0;"/><text fill="#000000" font-family="sans-serif" font-size="12" lengthAdjust="spacing" textLength="14" x="358" y="282.9575">25</text><text fill="#000000" font-family="sans-serif" font-size="12" lengthAdjust="spacing" textLength="18" x="424" y="282.9575">1/1</text><text fill="#000000" font-family="sans-serif" font-size="12" lengthAdjust="spacing" textLength="18" x="502" y="282.9575">1/1</text><text fill="#000000" font-family="sans-serif" font-size="12" lengthAdjust="spacing" textLength="14" x="611" y="282.9575">25</text><text fill="#000000" font-family="sans-serif" font-size="12" lengthAdjust="spacing" textLength="7" x="693" y="282.9575">2</text><line style="stroke:#000000;stroke-width:1.0;" x1="6" x2="49" y1="164.7529" y2="164.7529"/><line style="stroke:#000000;stroke-width:1.0;" x1="49" x2="275" y1="164.7529" y2="164.7529"/><line style="stroke:#000000;stroke-width:1.0;" x1="275" x2="357" y1="164.7529" y2="164.7529"/><line style="stroke:#000000;stroke-width:1.0;" x1="357" x2="423" y1="164.7529" y2="164.7529"/><line style="stroke:#000000;stroke-width:1.0;" x1="423" x2="501" y1="164.7529" y2="164.7529"/><line style="stroke:#000000;stroke-width:1.0;" x1="501" x2="610" y1="164.7529" y2="164.7529"/><line style="stroke:#000000;stroke-width:1.0;" x1="610" x2="692" y1="164.7529" y2="164.7529"/><line style="stroke:#000000;stroke-width:1.0;" x1="692" x2="793" y1="164.7529" y2="164.7529"/><line style="stroke:#000000;stroke-width:1.0;" x1="6" x2="49" y1="224.4411" y2="224.4411"/><line style="stroke:#000000;stroke-width:1.0;" x1="49" x2="275" y1="224.4411" y2="224.4411"/><line style="stroke:#000000;stroke-width:1.0;" x1="275" x2="357" y1="224.4411" y2="224.4411"/><line style="stroke:#000000;stroke-width:1.0;" x1="357" x2="423" y1="224.4411" y2="224.4411"/><line style="stroke:#000000;stroke-width:1.0;" x1="423" x2="501" y1="224.4411" y2="224.4411"/><line style="stroke:#000000;stroke-width:1.0;" x1="501" x2="610" y1="224.4411" y2="224.4411"/><line style="stroke:#000000;stroke-width:1.0;" x1="610" x2="692" y1="224.4411" y2="224.4411"/><line style="stroke:#000000;stroke-width:1.0;" x1="692" x2="793" y1="224.4411" y2="224.4411"/><line style="stroke:#000000;stroke-width:1.0;" x1="6" x2="49" y1="291.4735" y2="291.4735"/><line style="stroke:#000000;stroke-width:1.0;" x1="49" x2="275" y1="291.4735" y2="291.4735"/><line style="stroke:#000000;stroke-width:1.0;" x1="275" x2="357" y1="291.4735" y2="291.4735"/><line style="stroke:#000000;stroke-width:1.0;" x1="357" x2="423" y1="291.4735" y2="291.4735"/><line style="stroke:#000000;stroke-width:1.0;" x1="423" x2="501" y1="291.4735" y2="291.4735"/><line style="stroke:#000000;stroke-width:1.0;" x1="501" x2="610" y1="291.4735" y2="291.4735"/><line style="stroke:#000000;stroke-width:1.0;" x1="610" x2="692" y1="291.4735" y2="291.4735"/><line style="stroke:#000000;stroke-width:1.0;" x1="692" x2="793" y1="291.4735" y2="291.4735"/><line style="stroke:#000000;stroke-width:1.0;" x1="6" x2="49" y1="183.7529" y2="183.7529"/><line style="stroke:#000000;stroke-width:1.0;" x1="49" x2="275" y1="183.7529" y2="183.7529"/><line style="stroke:#000000;stroke-width:1.0;" x1="275" x2="357" y1="183.7529" y2="183.7529"/><line style="stroke:#000000;stroke-width:1.0;" x1="357" x2="423" y1="183.7529" y2="183.7529"/><line style="stroke:#000000;stroke-width:1.0;" x1="423" x2="501" y1="183.7529" y2="183.7529"/><line style="stroke:#000000;stroke-width:1.0;" x1="501" x2="610" y1="183.7529" y2="183.7529"/><line style="stroke:#000000;stroke-width:1.0;" x1="610" x2="692" y1="183.7529" y2="183.7529"/><line style="stroke:#000000;stroke-width:1.0;" x1="692" x2="793" y1="183.7529" y2="183.7529"/><line style="stroke:#000000;stroke-width:1.0;" x1="6" x2="49" y1="246.7853" y2="246.7853"/><line style="stroke:#000000;stroke-width:1.0;" x1="49" x2="275" y1="246.7853" y2="246.7853"/><line style="stroke:#000000;stroke-width:1.0;" x1="275" x2="357" y1="246.7853" y2="246.7853"/><line style="stroke:#000000;stroke-width:1.0;" x1="357" x2="423" y1="246.7853" y2="246.7853"/><line style="stroke:#000000;stroke-width:1.0;" x1="423" x2="501" y1="246.7853" y2="246.7853"/><line style="stroke:#000000;stroke-width:1.0;" x1="501" x2="610" y1="246.7853" y2="246.7853"/><line style="stroke:#000000;stroke-width:1.0;" x1="610" x2="692" y1="246.7853" y2="246.7853"/><line style="stroke:#000000;stroke-width:1.0;" x1="692" x2="793" y1="246.7853" y2="246.7853"/><line style="stroke:#000000;stroke-width:1.0;" x1="6" x2="49" y1="202.097" y2="202.097"/><line style="stroke:#000000;stroke-width:1.0;" x1="49" x2="275" y1="202.097" y2="202.097"/><line style="stroke:#000000;stroke-width:1.0;" x1="275" x2="357" y1="202.097" y2="202.097"/><line style="stroke:#000000;stroke-width:1.0;" x1="357" x2="423" y1="202.097" y2="202.097"/><line style="stroke:#000000;stroke-width:1.0;" x1="423" x2="501" y1="202.097" y2="202.097"/><line style="stroke:#000000;stroke-width:1.0;" x1="501" x2="610" y1="202.097" y2="202.097"/><line style="stroke:#000000;stroke-width:1.0;" x1="610" x2="692" y1="202.097" y2="202.097"/><line style="stroke:#000000;stroke-width:1.0;" x1="692" x2="793" y1="202.097" y2="202.097"/><line style="stroke:#000000;stroke-width:1.0;" x1="6" x2="49" y1="269.1294" y2="269.1294"/><line style="stroke:#000000;stroke-width:1.0;" x1="49" x2="275" y1="269.1294" y2="269.1294"/><line style="stroke:#000000;stroke-width:1.0;" x1="275" x2="357" y1="269.1294" y2="269.1294"/><line style="stroke:#000000;stroke-width:1.0;" x1="357" x2="423" y1="269.1294" y2="269.1294"/><line style="stroke:#000000;stroke-width:1.0;" x1="423" x2="501" y1="269.1294" y2="269.1294"/><line style="stroke:#000000;stroke-width:1.0;" x1="501" x2="610" y1="269.1294" y2="269.1294"/><line style="stroke:#000000;stroke-width:1.0;" x1="610" x2="692" y1="269.1294" y2="269.1294"/><line style="stroke:#000000;stroke-width:1.0;" x1="692" x2="793" y1="269.1294" y2="269.1294"/><line style="stroke:#000000;stroke-width:1.0;" x1="6" x2="6" y1="164.7529" y2="183.7529"/><line style="stroke:#000000;stroke-width:1.0;" x1="49" x2="49" y1="164.7529" y2="183.7529"/><line style="stroke:#000000;stroke-width:1.0;" x1="275" x2="275" y1="164.7529" y2="183.7529"/><line style="stroke:#000000;stroke-width:1.0;" x1="357" x2="357" y1="164.7529" y2="183.7529"/><line style="stroke:#000000;stroke-width:1.0;" x1="423" x2="423" y1="164.7529" y2="183.7529"/><line style="stroke:#000000;stroke-width:1.0;" x1="501" x2="501" y1="164.7529" y2="183.7529"/><line style="stroke:#000000;stroke-width:1.0;" x1="610" x2="610" y1="164.7529" y2="183.7529"/><line style="stroke:#000000;stroke-width:1.0;" x1="692" x2="692" y1="164.7529" y2="183.7529"/><line style="stroke:#000000;stroke-width:1.0;" x1="793" x2="793" y1="164.7529" y2="183.7529"/><line style="stroke:#000000;stroke-width:1.0;" x1="6" x2="6" y1="224.4411" y2="246.7853"/><line style="stroke:#000000;stroke-width:1.0;" x1="49" x2="49" y1="224.4411" y2="246.7853"/><line style="stroke:#000000;stroke-width:1.0;" x1="275" x2="275" y1="224.4411" y2="246.7853"/><line style="stroke:#000000;stroke-width:1.0;" x1="357" x2="357" y1="224.4411" y2="246.7853"/><line style="stroke:#000000;stroke-width:1.0;" x1="423" x2="423" y1="224.4411" y2="246.7853"/><line style="stroke:#000000;stroke-width:1.0;" x1="501" x2="501" y1="224.4411" y2="246.7853"/><line style="stroke:#000000;stroke-width:1.0;" x1="610" x2="610" y1="224.4411" y2="246.7853"/><line style="stroke:#000000;stroke-width:1.0;" x1="692" x2="692" y1="224.4411" y2="246.7853"/><line style="stroke:#000000;stroke-width:1.0;" x1="793" x2="793" y1="224.4411" y2="246.7853"/><line style="stroke:#000000;stroke-width:1.0;" x1="6" x2="6" y1="183.7529" y2="202.097"/><line style="stroke:#000000;stroke-width:1.0;" x1="49" x2="49" y1="183.7529" y2="202.097"/><line style="stroke:#000000;stroke-width:1.0;" x1="275" x2="275" y1="183.7529" y2="202.097"/><line style="stroke:#000000;stroke-width:1.0;" x1="357" x2="357" y1="183.7529" y2="202.097"/><line style="stroke:#000000;stroke-width:1.0;" x1="423" x2="423" y1="183.7529" y2="202.097"/><line style="stroke:#000000;stroke-width:1.0;" x1="501" x2="501" y1="183.7529" y2="202.097"/><line style="stroke:#000000;stroke-width:1.0;" x1="610" x2="610" y1="183.7529" y2="202.097"/><line style="stroke:#000000;stroke-width:1.0;" x1="692" x2="692" y1="183.7529" y2="202.097"/><line style="stroke:#000000;stroke-width:1.0;" x1="793" x2="793" y1="183.7529" y2="202.097"/><line style="stroke:#000000;stroke-width:1.0;" x1="6" x2="6" y1="246.7853" y2="269.1294"/><line style="stroke:#000000;stroke-width:1.0;" x1="49" x2="49" y1="246.7853" y2="269.1294"/><line style="stroke:#000000;stroke-width:1.0;" x1="275" x2="275" y1="246.7853" y2="269.1294"/><line style="stroke:#000000;stroke-width:1.0;" x1="357" x2="357" y1="246.7853" y2="269.1294"/><line style="stroke:#000000;stroke-width:1.0;" x1="423" x2="423" y1="246.7853" y2="269.1294"/><line style="stroke:#000000;stroke-width:1.0;" x1="501" x2="501" y1="246.7853" y2="269.1294"/><line style="stroke:#000000;stroke-width:1.0;" x1="610" x2="610" y1="246.7853" y2="269.1294"/><line style="stroke:#000000;stroke-width:1.0;" x1="692" x2="692" y1="246.7853" y2="269.1294"/><line style="stroke:#000000;stroke-width:1.0;" x1="793" x2="793" y1="246.7853" y2="269.1294"/><line style="stroke:#000000;stroke-width:1.0;" x1="6" x2="6" y1="202.097" y2="224.4411"/><line style="stroke:#000000;stroke-width:1.0;" x1="49" x2="49" y1="202.097" y2="224.4411"/><line style="stroke:#000000;stroke-width:1.0;" x1="275" x2="275" y1="202.097" y2="224.4411"/><line style="stroke:#000000;stroke-width:1.0;" x1="357" x2="357" y1="202.097" y2="224.4411"/><line style="stroke:#000000;stroke-width:1.0;" x1="423" x2="423" y1="202.097" y2="224.4411"/><line style="stroke:#000000;stroke-width:1.0;" x1="501" x2="501" y1="202.097" y2="224.4411"/><line style="stroke:#000000;stroke-width:1.0;" x1="610" x2="610" y1="202.097" y2="224.4411"/><line style="stroke:#000000;stroke-width:1.0;" x1="692" x2="692" y1="202.097" y2="224.4411"/><line style="stroke:#000000;stroke-width:1.0;" x1="793" x2="793" y1="202.097" y2="224.4411"/><line style="stroke:#000000;stroke-width:1.0;" x1="6" x2="6" y1="269.1294" y2="291.4735"/><line style="stroke:#000000;stroke-width:1.0;" x1="49" x2="49" y1="269.1294" y2="291.4735"/><line style="stroke:#000000;stroke-width:1.0;" x1="275" x2="275" y1="269.1294" y2="291.4735"/><line style="stroke:#000000;stroke-width:1.0;" x1="357" x2="357" y1="269.1294" y2="291.4735"/><line style="stroke:#000000;stroke-width:1.0;" x1="423" x2="423" y1="269.1294" y2="291.4735"/><line style="stroke:#000000;stroke-width:1.0;" x1="501" x2="501" y1="269.1294" y2="291.4735"/><line style="stroke:#000000;stroke-width:1.0;" x1="610" x2="610" y1="269.1294" y2="291.4735"/><line style="stroke:#000000;stroke-width:1.0;" x1="692" x2="692" y1="269.1294" y2="291.4735"/><line style="stroke:#000000;stroke-width:1.0;" x1="793" x2="793" y1="269.1294" y2="291.4735"/><line style="stroke:#AAAAAA;stroke-width:1.0;" x1="6" x2="794" y1="296.9735" y2="296.9735"/><rect fill="#EEEEEE" height="20.3441" rx="5" ry="5" style="stroke:#000000;stroke-width:2.5;" width="60" x="9.5" y="304.9735"/><text fill="#000000" font-family="sans-serif" font-size="12" lengthAdjust="spacing" textLength="44" x="17.5" y="319.8016">Annuler</text><rect fill="#EEEEEE" height="20.3441" rx="5" ry="5" style="stroke:#000000;stroke-width:2.5;" width="92" x="76.5" y="304.9735"/><text fill="#000000" font-family="sans-serif" font-size="12" lengthAdjust="spacing" textLength="72" x="86.5" y="319.8016">Sauvegarder</text></g></svg>