<?xml version="1.0" encoding="UTF-8" standalone="no"?><!--
  - #%L
  - SUMARiS
  - %%
  - Copyright (C) 2019 SUMARiS Consortium
  - %%
  - This program is free software: you can redistribute it and/or modify
  - it under the terms of the GNU General Public License as
  - published by the Free Software Foundation, either version 3 of the
  - License, or (at your option) any later version.
  -
  - This program is distributed in the hope that it will be useful,
  - but WITHOUT ANY WARRANTY; without even the implied warranty of
  - MERCHANTABILITY or FITNESS FOR A PARTICULAR PURPOSE.  See the
  - GNU General Public License for more details.
  -
  - You should have received a copy of the GNU General Public
  - License along with this program.  If not, see
  - <http://www.gnu.org/licenses/gpl-3.0.html>.
  - #L%
  -->

<svg xmlns="http://www.w3.org/2000/svg" xmlns:xlink="http://www.w3.org/1999/xlink" contentStyleType="text/css" height="266px" preserveAspectRatio="none" style="width:778px;height:266px;background:#FFFFFF;" version="1.1" viewBox="0 0 778 266" width="778px" zoomAndPan="magnify"><defs/><g><text fill="#000000" font-family="sans-serif" font-size="12" lengthAdjust="spacing" textLength="43" x="8" y="17.1387">Détails</text><line style="stroke:#000000;stroke-width:1.0;" x1="6" x2="6" y1="6" y2="19.9688"/><line style="stroke:#000000;stroke-width:1.0;" x1="6" x2="54" y1="6" y2="6"/><line style="stroke:#000000;stroke-width:1.0;" x1="54" x2="54" y1="6" y2="19.9688"/><line style="stroke:#000000;stroke-width:1.0;" x1="54" x2="64" y1="19.9688" y2="19.9688"/><text fill="#000000" font-family="sans-serif" font-size="12" font-weight="bold" lengthAdjust="spacing" textLength="112" x="70" y="17.1387">Capture Bâbord</text><line style="stroke:#000000;stroke-width:1.0;" x1="64" x2="64" y1="6" y2="19.9688"/><line style="stroke:#000000;stroke-width:1.0;" x1="64" x2="185" y1="6" y2="6"/><line style="stroke:#000000;stroke-width:1.0;" x1="185" x2="185" y1="6" y2="19.9688"/><line style="stroke:#000000;stroke-width:1.0;" x1="185" x2="195" y1="19.9688" y2="19.9688"/><text fill="#000000" font-family="sans-serif" font-size="12" font-weight="bold" lengthAdjust="spacing" textLength="112" x="201" y="17.1387">Capture Tribord</text><line style="stroke:#000000;stroke-width:1.0;" x1="195" x2="195" y1="6" y2="19.9688"/><line style="stroke:#000000;stroke-width:1.0;" x1="195" x2="316" y1="6" y2="6"/><line style="stroke:#000000;stroke-width:1.0;" x1="316" x2="316" y1="6" y2="19.9688"/><line style="stroke:#000000;stroke-width:1.0;" x1="316" x2="326" y1="19.9688" y2="19.9688"/><text fill="#000000" font-family="sans-serif" font-size="12" lengthAdjust="spacing" textLength="92" x="7" y="50.0762">Engin bâbord :</text><rect fill="#EEEEEE" height="16.9688" style="stroke:#000000;stroke-width:1.0;" width="175" x="167" y="39.9375"/><text fill="#000000" font-family="sans-serif" font-size="12" lengthAdjust="spacing" textLength="101" x="169" y="53.0762">Chalut standard</text><line style="stroke:#000000;stroke-width:1.0;" x1="331" x2="331" y1="39.9375" y2="56.9063"/><polygon fill="#000000" points="334,45.9375,340,45.9375,337,51.9063" style="stroke:#000000;stroke-width:1.0;"/><text fill="#000000" font-family="sans-serif" font-size="12" lengthAdjust="spacing" textLength="157" x="7" y="72.0449">Poids total capture (kg) :</text><text fill="#000000" font-family="sans-serif" font-size="12" lengthAdjust="spacing" textLength="4" x="169" y="72.0449"> </text><line style="stroke:#000000;stroke-width:1.0;" x1="167" x2="226" y1="74.875" y2="74.875"/><line style="stroke:#000000;stroke-width:1.0;" x1="167" x2="167" y1="71.875" y2="73.875"/><line style="stroke:#000000;stroke-width:1.0;" x1="226" x2="226" y1="71.875" y2="73.875"/><text fill="#000000" font-family="sans-serif" font-size="12" lengthAdjust="spacing" textLength="137" x="7" y="90.0137">Poids total rejet (kg) :</text><text fill="#000000" font-family="sans-serif" font-size="12" lengthAdjust="spacing" textLength="4" x="169" y="90.0137"> </text><line style="stroke:#000000;stroke-width:1.0;" x1="167" x2="226" y1="92.8438" y2="92.8438"/><line style="stroke:#000000;stroke-width:1.0;" x1="167" x2="167" y1="89.8438" y2="91.8438"/><line style="stroke:#000000;stroke-width:1.0;" x1="226" x2="226" y1="89.8438" y2="91.8438"/><text fill="#000000" font-family="sans-serif" font-size="12" font-weight="bold" lengthAdjust="spacing" textLength="104" x="12" y="108.9824">Partie retenue</text><line style="stroke:#000000;stroke-width:1.0;" x1="6" x2="6" y1="97.8438" y2="111.8125"/><line style="stroke:#000000;stroke-width:1.0;" x1="6" x2="119" y1="97.8438" y2="97.8438"/><line style="stroke:#000000;stroke-width:1.0;" x1="119" x2="119" y1="97.8438" y2="111.8125"/><line style="stroke:#000000;stroke-width:1.0;" x1="119" x2="129" y1="111.8125" y2="111.8125"/><text fill="#000000" font-family="sans-serif" font-size="12" lengthAdjust="spacing" textLength="86" x="131" y="108.9824">Partie rejetée</text><line style="stroke:#000000;stroke-width:1.0;" x1="129" x2="129" y1="97.8438" y2="111.8125"/><line style="stroke:#000000;stroke-width:1.0;" x1="129" x2="220" y1="97.8438" y2="97.8438"/><line style="stroke:#000000;stroke-width:1.0;" x1="220" x2="220" y1="97.8438" y2="111.8125"/><line style="stroke:#000000;stroke-width:1.0;" x1="220" x2="230" y1="111.8125" y2="111.8125"/><rect fill="#EEEEEE" height="12" rx="5" ry="5" style="stroke:#000000;stroke-width:2.5;" width="36" x="9.5" y="117.3125"/><path d="M26.5,119.3125 L26.5,122.3125 L23.5,122.3125 L23.5,124.3125 L26.5,124.3125 L26.5,127.3125 L28.5,127.3125 L28.5,124.3125 L31.5,124.3125 L31.5,122.3125 L28.5,122.3125 L28.5,119.3125 L26.5,119.3125 " fill="#000000" style="stroke:;stroke-width:0.0;stroke-dasharray:;"/><text fill="#000000" font-family="sans-serif" font-size="12" lengthAdjust="spacing" textLength="10" x="7" y="144.9512">#</text><text fill="#000000" font-family="sans-serif" font-size="12" font-weight="bold" lengthAdjust="spacing" textLength="142" x="50" y="144.9512">Espèce commerciale</text><text fill="#000000" font-family="sans-serif" font-size="12" font-weight="bold" lengthAdjust="spacing" textLength="70" x="276" y="144.9512">Catégorie</text><text fill="#000000" font-family="sans-serif" font-size="12" font-weight="bold" lengthAdjust="spacing" textLength="108" x="358" y="144.9512">Poids total (kg)</text><text fill="#000000" font-family="sans-serif" font-size="12" font-weight="bold" lengthAdjust="spacing" textLength="86" x="468" y="144.9512">Taux échant</text><text fill="#000000" font-family="sans-serif" font-size="12" font-weight="bold" lengthAdjust="spacing" textLength="97" x="556" y="144.9512">Poids échant.</text><text fill="#000000" font-family="sans-serif" font-size="12" font-weight="bold" lengthAdjust="spacing" textLength="114" x="655" y="144.9512">Nb indiv échant.</text><text fill="#000000" font-family="sans-serif" font-size="12" lengthAdjust="spacing" textLength="8" x="7" y="160.9199">4</text><rect fill="#EEEEEE" height="16.9688" style="stroke:#000000;stroke-width:1.0;" width="223" x="50" y="149.7813"/><text fill="#000000" font-family="sans-serif" font-size="12" lengthAdjust="spacing" textLength="92" x="52" y="162.9199">MNZ- Baudroie</text><line style="stroke:#000000;stroke-width:1.0;" x1="262" x2="262" y1="149.7813" y2="166.75"/><polygon fill="#000000" points="265,155.7813,271,155.7813,268,161.75" style="stroke:#000000;stroke-width:1.0;"/><rect fill="#EEEEEE" height="16.9688" style="stroke:#000000;stroke-width:1.0;" width="79" x="276" y="149.7813"/><text fill="#000000" font-family="sans-serif" font-size="12" lengthAdjust="spacing" textLength="16" x="278" y="162.9199">10</text><line style="stroke:#000000;stroke-width:1.0;" x1="344" x2="344" y1="149.7813" y2="166.75"/><polygon fill="#000000" points="347,155.7813,353,155.7813,350,161.75" style="stroke:#000000;stroke-width:1.0;"/><text fill="#000000" font-family="sans-serif" font-size="12" lengthAdjust="spacing" textLength="16" x="358" y="160.9199">50</text><text fill="#000000" font-family="sans-serif" font-size="12" lengthAdjust="spacing" textLength="16" x="556" y="160.9199">10</text><text fill="#000000" font-family="sans-serif" font-size="12" lengthAdjust="spacing" textLength="8" x="655" y="160.9199">4</text><text fill="#000000" font-family="sans-serif" font-size="12" lengthAdjust="spacing" textLength="8" x="7" y="180.8887">3</text><rect fill="#EEEEEE" height="16.9688" style="stroke:#000000;stroke-width:1.0;" width="223" x="50" y="169.75"/><text fill="#000000" font-family="sans-serif" font-size="12" lengthAdjust="spacing" textLength="92" x="52" y="182.8887">MNZ- Baudroie</text><line style="stroke:#000000;stroke-width:1.0;" x1="262" x2="262" y1="169.75" y2="186.7188"/><polygon fill="#000000" points="265,175.75,271,175.75,268,181.7188" style="stroke:#000000;stroke-width:1.0;"/><rect fill="#EEEEEE" height="16.9688" style="stroke:#000000;stroke-width:1.0;" width="79" x="276" y="169.75"/><text fill="#000000" font-family="sans-serif" font-size="12" lengthAdjust="spacing" textLength="16" x="278" y="182.8887">30</text><line style="stroke:#000000;stroke-width:1.0;" x1="344" x2="344" y1="169.75" y2="186.7188"/><polygon fill="#000000" points="347,175.75,353,175.75,350,181.7188" style="stroke:#000000;stroke-width:1.0;"/><text fill="#000000" font-family="sans-serif" font-size="12" lengthAdjust="spacing" textLength="16" x="358" y="180.8887">50</text><text fill="#000000" font-family="sans-serif" font-size="12" lengthAdjust="spacing" textLength="16" x="556" y="180.8887">10</text><text fill="#000000" font-family="sans-serif" font-size="12" lengthAdjust="spacing" textLength="8" x="655" y="180.8887">4</text><text fill="#000000" font-family="sans-serif" font-size="12" lengthAdjust="spacing" textLength="8" x="7" y="200.8574">2</text><rect fill="#EEEEEE" height="16.9688" style="stroke:#000000;stroke-width:1.0;" width="223" x="50" y="189.7188"/><text fill="#000000" font-family="sans-serif" font-size="12" lengthAdjust="spacing" textLength="179" x="52" y="202.8574">NEP - Langoustine commune</text><line style="stroke:#000000;stroke-width:1.0;" x1="262" x2="262" y1="189.7188" y2="206.6875"/><polygon fill="#000000" points="265,195.7188,271,195.7188,268,201.6875" style="stroke:#000000;stroke-width:1.0;"/><rect fill="#EEEEEE" height="16.9688" style="stroke:#000000;stroke-width:1.0;" width="79" x="276" y="189.7188"/><text fill="#000000" font-family="sans-serif" font-size="12" lengthAdjust="spacing" textLength="37" x="278" y="202.8574">Petite</text><line style="stroke:#000000;stroke-width:1.0;" x1="344" x2="344" y1="189.7188" y2="206.6875"/><polygon fill="#000000" points="347,195.7188,353,195.7188,350,201.6875" style="stroke:#000000;stroke-width:1.0;"/><text fill="#000000" font-family="sans-serif" font-size="12" lengthAdjust="spacing" textLength="16" x="358" y="200.8574">30</text><text fill="#000000" font-family="sans-serif" font-size="12" lengthAdjust="spacing" textLength="20" x="468" y="200.8574">1/3</text><text fill="#000000" font-family="sans-serif" font-size="12" font-style="italic" lengthAdjust="spacing" textLength="16" x="556" y="200.8574">10</text><text fill="#000000" font-family="sans-serif" font-size="12" lengthAdjust="spacing" textLength="8" x="655" y="200.8574">4</text><text fill="#000000" font-family="sans-serif" font-size="12" lengthAdjust="spacing" textLength="8" x="7" y="220.8262">1</text><rect fill="#EEEEEE" height="16.9688" style="stroke:#000000;stroke-width:1.0;" width="223" x="50" y="209.6875"/><text fill="#000000" font-family="sans-serif" font-size="12" lengthAdjust="spacing" textLength="63" x="52" y="222.8262">SOX - Sole</text><line style="stroke:#000000;stroke-width:1.0;" x1="262" x2="262" y1="209.6875" y2="226.6563"/><polygon fill="#000000" points="265,215.6875,271,215.6875,268,221.6563" style="stroke:#000000;stroke-width:1.0;"/><text fill="#000000" font-family="sans-serif" font-size="12" lengthAdjust="spacing" textLength="16" x="358" y="220.8262">50</text><text fill="#000000" font-family="sans-serif" font-size="12" lengthAdjust="spacing" textLength="16" x="556" y="220.8262">10</text><text fill="#000000" font-family="sans-serif" font-size="12" lengthAdjust="spacing" textLength="8" x="655" y="220.8262">4</text><line style="stroke:#000000;stroke-width:1.0;" x1="6" x2="49" y1="113.8125" y2="113.8125"/><line style="stroke:#000000;stroke-width:1.0;" x1="49" x2="275" y1="113.8125" y2="113.8125"/><line style="stroke:#000000;stroke-width:1.0;" x1="275" x2="357" y1="113.8125" y2="113.8125"/><line style="stroke:#000000;stroke-width:1.0;" x1="357" x2="467" y1="113.8125" y2="113.8125"/><line style="stroke:#000000;stroke-width:1.0;" x1="467" x2="555" y1="113.8125" y2="113.8125"/><line style="stroke:#000000;stroke-width:1.0;" x1="555" x2="654" y1="113.8125" y2="113.8125"/><line style="stroke:#000000;stroke-width:1.0;" x1="654" x2="770" y1="113.8125" y2="113.8125"/><line style="stroke:#000000;stroke-width:1.0;" x1="6" x2="49" y1="168.75" y2="168.75"/><line style="stroke:#000000;stroke-width:1.0;" x1="49" x2="275" y1="168.75" y2="168.75"/><line style="stroke:#000000;stroke-width:1.0;" x1="275" x2="357" y1="168.75" y2="168.75"/><line style="stroke:#000000;stroke-width:1.0;" x1="357" x2="467" y1="168.75" y2="168.75"/><line style="stroke:#000000;stroke-width:1.0;" x1="467" x2="555" y1="168.75" y2="168.75"/><line style="stroke:#000000;stroke-width:1.0;" x1="555" x2="654" y1="168.75" y2="168.75"/><line style="stroke:#000000;stroke-width:1.0;" x1="654" x2="770" y1="168.75" y2="168.75"/><line style="stroke:#000000;stroke-width:1.0;" x1="6" x2="49" y1="228.6563" y2="228.6563"/><line style="stroke:#000000;stroke-width:1.0;" x1="49" x2="275" y1="228.6563" y2="228.6563"/><line style="stroke:#000000;stroke-width:1.0;" x1="275" x2="357" y1="228.6563" y2="228.6563"/><line style="stroke:#000000;stroke-width:1.0;" x1="357" x2="467" y1="228.6563" y2="228.6563"/><line style="stroke:#000000;stroke-width:1.0;" x1="467" x2="555" y1="228.6563" y2="228.6563"/><line style="stroke:#000000;stroke-width:1.0;" x1="555" x2="654" y1="228.6563" y2="228.6563"/><line style="stroke:#000000;stroke-width:1.0;" x1="654" x2="770" y1="228.6563" y2="228.6563"/><line style="stroke:#000000;stroke-width:1.0;" x1="6" x2="49" y1="132.8125" y2="132.8125"/><line style="stroke:#000000;stroke-width:1.0;" x1="49" x2="275" y1="132.8125" y2="132.8125"/><line style="stroke:#000000;stroke-width:1.0;" x1="275" x2="357" y1="132.8125" y2="132.8125"/><line style="stroke:#000000;stroke-width:1.0;" x1="357" x2="467" y1="132.8125" y2="132.8125"/><line style="stroke:#000000;stroke-width:1.0;" x1="467" x2="555" y1="132.8125" y2="132.8125"/><line style="stroke:#000000;stroke-width:1.0;" x1="555" x2="654" y1="132.8125" y2="132.8125"/><line style="stroke:#000000;stroke-width:1.0;" x1="654" x2="770" y1="132.8125" y2="132.8125"/><line style="stroke:#000000;stroke-width:1.0;" x1="6" x2="49" y1="188.7188" y2="188.7188"/><line style="stroke:#000000;stroke-width:1.0;" x1="49" x2="275" y1="188.7188" y2="188.7188"/><line style="stroke:#000000;stroke-width:1.0;" x1="275" x2="357" y1="188.7188" y2="188.7188"/><line style="stroke:#000000;stroke-width:1.0;" x1="357" x2="467" y1="188.7188" y2="188.7188"/><line style="stroke:#000000;stroke-width:1.0;" x1="467" x2="555" y1="188.7188" y2="188.7188"/><line style="stroke:#000000;stroke-width:1.0;" x1="555" x2="654" y1="188.7188" y2="188.7188"/><line style="stroke:#000000;stroke-width:1.0;" x1="654" x2="770" y1="188.7188" y2="188.7188"/><line style="stroke:#000000;stroke-width:1.0;" x1="6" x2="49" y1="148.7813" y2="148.7813"/><line style="stroke:#000000;stroke-width:1.0;" x1="49" x2="275" y1="148.7813" y2="148.7813"/><line style="stroke:#000000;stroke-width:1.0;" x1="275" x2="357" y1="148.7813" y2="148.7813"/><line style="stroke:#000000;stroke-width:1.0;" x1="357" x2="467" y1="148.7813" y2="148.7813"/><line style="stroke:#000000;stroke-width:1.0;" x1="467" x2="555" y1="148.7813" y2="148.7813"/><line style="stroke:#000000;stroke-width:1.0;" x1="555" x2="654" y1="148.7813" y2="148.7813"/><line style="stroke:#000000;stroke-width:1.0;" x1="654" x2="770" y1="148.7813" y2="148.7813"/><line style="stroke:#000000;stroke-width:1.0;" x1="6" x2="49" y1="208.6875" y2="208.6875"/><line style="stroke:#000000;stroke-width:1.0;" x1="49" x2="275" y1="208.6875" y2="208.6875"/><line style="stroke:#000000;stroke-width:1.0;" x1="275" x2="357" y1="208.6875" y2="208.6875"/><line style="stroke:#000000;stroke-width:1.0;" x1="357" x2="467" y1="208.6875" y2="208.6875"/><line style="stroke:#000000;stroke-width:1.0;" x1="467" x2="555" y1="208.6875" y2="208.6875"/><line style="stroke:#000000;stroke-width:1.0;" x1="555" x2="654" y1="208.6875" y2="208.6875"/><line style="stroke:#000000;stroke-width:1.0;" x1="654" x2="770" y1="208.6875" y2="208.6875"/><line style="stroke:#000000;stroke-width:1.0;" x1="6" x2="6" y1="113.8125" y2="132.8125"/><line style="stroke:#000000;stroke-width:1.0;" x1="467" x2="467" y1="188.7188" y2="208.6875"/><line style="stroke:#000000;stroke-width:1.0;" x1="49" x2="49" y1="113.8125" y2="132.8125"/><line style="stroke:#000000;stroke-width:1.0;" x1="555" x2="555" y1="188.7188" y2="208.6875"/><line style="stroke:#000000;stroke-width:1.0;" x1="275" x2="275" y1="113.8125" y2="132.8125"/><line style="stroke:#000000;stroke-width:1.0;" x1="654" x2="654" y1="188.7188" y2="208.6875"/><line style="stroke:#000000;stroke-width:1.0;" x1="770" x2="770" y1="188.7188" y2="208.6875"/><line style="stroke:#000000;stroke-width:1.0;" x1="357" x2="357" y1="113.8125" y2="132.8125"/><line style="stroke:#000000;stroke-width:1.0;" x1="467" x2="467" y1="113.8125" y2="132.8125"/><line style="stroke:#000000;stroke-width:1.0;" x1="555" x2="555" y1="113.8125" y2="132.8125"/><line style="stroke:#000000;stroke-width:1.0;" x1="654" x2="654" y1="113.8125" y2="132.8125"/><line style="stroke:#000000;stroke-width:1.0;" x1="770" x2="770" y1="113.8125" y2="132.8125"/><line style="stroke:#000000;stroke-width:1.0;" x1="6" x2="6" y1="168.75" y2="188.7188"/><line style="stroke:#000000;stroke-width:1.0;" x1="49" x2="49" y1="168.75" y2="188.7188"/><line style="stroke:#000000;stroke-width:1.0;" x1="275" x2="275" y1="168.75" y2="188.7188"/><line style="stroke:#000000;stroke-width:1.0;" x1="357" x2="357" y1="168.75" y2="188.7188"/><line style="stroke:#000000;stroke-width:1.0;" x1="467" x2="467" y1="168.75" y2="188.7188"/><line style="stroke:#000000;stroke-width:1.0;" x1="555" x2="555" y1="168.75" y2="188.7188"/><line style="stroke:#000000;stroke-width:1.0;" x1="654" x2="654" y1="168.75" y2="188.7188"/><line style="stroke:#000000;stroke-width:1.0;" x1="770" x2="770" y1="168.75" y2="188.7188"/><line style="stroke:#000000;stroke-width:1.0;" x1="6" x2="6" y1="148.7813" y2="168.75"/><line style="stroke:#000000;stroke-width:1.0;" x1="49" x2="49" y1="148.7813" y2="168.75"/><line style="stroke:#000000;stroke-width:1.0;" x1="275" x2="275" y1="148.7813" y2="168.75"/><line style="stroke:#000000;stroke-width:1.0;" x1="357" x2="357" y1="148.7813" y2="168.75"/><line style="stroke:#000000;stroke-width:1.0;" x1="467" x2="467" y1="148.7813" y2="168.75"/><line style="stroke:#000000;stroke-width:1.0;" x1="555" x2="555" y1="148.7813" y2="168.75"/><line style="stroke:#000000;stroke-width:1.0;" x1="654" x2="654" y1="148.7813" y2="168.75"/><line style="stroke:#000000;stroke-width:1.0;" x1="770" x2="770" y1="148.7813" y2="168.75"/><line style="stroke:#000000;stroke-width:1.0;" x1="6" x2="6" y1="208.6875" y2="228.6563"/><line style="stroke:#000000;stroke-width:1.0;" x1="49" x2="49" y1="208.6875" y2="228.6563"/><line style="stroke:#000000;stroke-width:1.0;" x1="275" x2="275" y1="208.6875" y2="228.6563"/><line style="stroke:#000000;stroke-width:1.0;" x1="357" x2="357" y1="208.6875" y2="228.6563"/><line style="stroke:#000000;stroke-width:1.0;" x1="6" x2="6" y1="132.8125" y2="148.7813"/><line style="stroke:#000000;stroke-width:1.0;" x1="467" x2="467" y1="208.6875" y2="228.6563"/><line style="stroke:#000000;stroke-width:1.0;" x1="49" x2="49" y1="132.8125" y2="148.7813"/><line style="stroke:#000000;stroke-width:1.0;" x1="555" x2="555" y1="208.6875" y2="228.6563"/><line style="stroke:#000000;stroke-width:1.0;" x1="275" x2="275" y1="132.8125" y2="148.7813"/><line style="stroke:#000000;stroke-width:1.0;" x1="654" x2="654" y1="208.6875" y2="228.6563"/><line style="stroke:#000000;stroke-width:1.0;" x1="770" x2="770" y1="208.6875" y2="228.6563"/><line style="stroke:#000000;stroke-width:1.0;" x1="357" x2="357" y1="132.8125" y2="148.7813"/><line style="stroke:#000000;stroke-width:1.0;" x1="467" x2="467" y1="132.8125" y2="148.7813"/><line style="stroke:#000000;stroke-width:1.0;" x1="555" x2="555" y1="132.8125" y2="148.7813"/><line style="stroke:#000000;stroke-width:1.0;" x1="654" x2="654" y1="132.8125" y2="148.7813"/><line style="stroke:#000000;stroke-width:1.0;" x1="770" x2="770" y1="132.8125" y2="148.7813"/><line style="stroke:#000000;stroke-width:1.0;" x1="6" x2="6" y1="188.7188" y2="208.6875"/><line style="stroke:#000000;stroke-width:1.0;" x1="49" x2="49" y1="188.7188" y2="208.6875"/><line style="stroke:#000000;stroke-width:1.0;" x1="275" x2="275" y1="188.7188" y2="208.6875"/><line style="stroke:#000000;stroke-width:1.0;" x1="357" x2="357" y1="188.7188" y2="208.6875"/><line style="stroke:#AAAAAA;stroke-width:1.0;" x1="6" x2="771" y1="234.1563" y2="234.1563"/><rect fill="#EEEEEE" height="17.9688" rx="5" ry="5" style="stroke:#000000;stroke-width:2.5;" width="60" x="9.5" y="242.1563"/><text fill="#000000" font-family="sans-serif" font-size="12" lengthAdjust="spacing" textLength="48" x="15.5" y="255.2949">Annuler</text><rect fill="#EEEEEE" height="17.9688" rx="5" ry="5" style="stroke:#000000;stroke-width:2.5;" width="92" x="76.5" y="242.1563"/><text fill="#000000" font-family="sans-serif" font-size="12" lengthAdjust="spacing" textLength="80" x="82.5" y="255.2949">Sauvegarder</text></g></svg>