<?xml version="1.0" encoding="us-ascii" standalone="no"?><svg xmlns="http://www.w3.org/2000/svg" xmlns:xlink="http://www.w3.org/1999/xlink" contentStyleType="text/css" height="313px" preserveAspectRatio="none" style="width:779px;height:313px;background:#FFFFFF;" version="1.1" viewBox="0 0 779 313" width="779px" zoomAndPan="magnify"><defs/><g><text fill="#000000" font-family="sans-serif" font-size="12" lengthAdjust="spacing" textLength="39" x="8" y="18.457">D&#233;tails</text><line style="stroke:#000000;stroke-width:1.0;" x1="6" x2="6" y1="6" y2="21.0938"/><line style="stroke:#000000;stroke-width:1.0;" x1="6" x2="50" y1="6" y2="6"/><line style="stroke:#000000;stroke-width:1.0;" x1="50" x2="50" y1="6" y2="21.0938"/><line style="stroke:#000000;stroke-width:1.0;" x1="50" x2="60" y1="21.0938" y2="21.0938"/><text fill="#000000" font-family="sans-serif" font-size="12" font-weight="bold" lengthAdjust="spacing" textLength="45" x="65" y="18.457">Capture</text><line style="stroke:#000000;stroke-width:1.0;" x1="60" x2="60" y1="6" y2="21.0938"/><line style="stroke:#000000;stroke-width:1.0;" x1="60" x2="113" y1="6" y2="6"/><line style="stroke:#000000;stroke-width:1.0;" x1="113" x2="113" y1="6" y2="21.0938"/><line style="stroke:#000000;stroke-width:1.0;" x1="113" x2="123" y1="21.0938" y2="21.0938"/><text fill="#000000" font-family="sans-serif" font-size="12" font-weight="bold" lengthAdjust="spacing" textLength="41" x="11" y="52.6445">B&#226;bord</text><line style="stroke:#000000;stroke-width:1.0;" x1="6" x2="6" y1="40.1875" y2="55.2813"/><line style="stroke:#000000;stroke-width:1.0;" x1="6" x2="55" y1="40.1875" y2="40.1875"/><line style="stroke:#000000;stroke-width:1.0;" x1="55" x2="55" y1="40.1875" y2="55.2813"/><line style="stroke:#000000;stroke-width:1.0;" x1="55" x2="65" y1="55.2813" y2="55.2813"/><text fill="#000000" font-family="sans-serif" font-size="12" lengthAdjust="spacing" textLength="39" x="67" y="52.6445">Tribord</text><line style="stroke:#000000;stroke-width:1.0;" x1="65" x2="65" y1="40.1875" y2="55.2813"/><line style="stroke:#000000;stroke-width:1.0;" x1="65" x2="109" y1="40.1875" y2="40.1875"/><line style="stroke:#000000;stroke-width:1.0;" x1="109" x2="109" y1="40.1875" y2="55.2813"/><line style="stroke:#000000;stroke-width:1.0;" x1="109" x2="119" y1="55.2813" y2="55.2813"/><text fill="#000000" font-family="sans-serif" font-size="12" lengthAdjust="spacing" textLength="80" x="7" y="87.832">Engin b&#226;bord :</text><rect fill="#EEEEEE" height="18.0938" style="stroke:#000000;stroke-width:1.0;" width="175" x="142" y="76.375"/><text fill="#000000" font-family="sans-serif" font-size="12" lengthAdjust="spacing" textLength="88" x="144" y="90.832">Chalut standard</text><line style="stroke:#000000;stroke-width:1.0;" x1="306" x2="306" y1="76.375" y2="94.4688"/><polygon fill="#000000" points="309,82.375,315,82.375,312,89.4688" style="stroke:#000000;stroke-width:1.0;"/><text fill="#000000" font-family="sans-serif" font-size="12" lengthAdjust="spacing" textLength="132" x="7" y="110.9258">Poids total capture (kg) :</text><text fill="#000000" font-family="sans-serif" font-size="12" lengthAdjust="spacing" textLength="3" x="144" y="110.9258">&#160;</text><line style="stroke:#000000;stroke-width:1.0;" x1="142" x2="201" y1="113.5625" y2="113.5625"/><line style="stroke:#000000;stroke-width:1.0;" x1="142" x2="142" y1="110.5625" y2="112.5625"/><line style="stroke:#000000;stroke-width:1.0;" x1="201" x2="201" y1="110.5625" y2="112.5625"/><text fill="#000000" font-family="sans-serif" font-size="12" lengthAdjust="spacing" textLength="115" x="7" y="130.0195">Poids total rejet (kg) :</text><text fill="#000000" font-family="sans-serif" font-size="12" lengthAdjust="spacing" textLength="3" x="144" y="130.0195">&#160;</text><line style="stroke:#000000;stroke-width:1.0;" x1="142" x2="201" y1="132.6563" y2="132.6563"/><line style="stroke:#000000;stroke-width:1.0;" x1="142" x2="142" y1="129.6563" y2="131.6563"/><line style="stroke:#000000;stroke-width:1.0;" x1="201" x2="201" y1="129.6563" y2="131.6563"/><text fill="#000000" font-family="sans-serif" font-size="12" lengthAdjust="spacing" textLength="77" x="8" y="150.1133">Partie retenue</text><line style="stroke:#000000;stroke-width:1.0;" x1="6" x2="6" y1="137.6563" y2="152.75"/><line style="stroke:#000000;stroke-width:1.0;" x1="6" x2="88" y1="137.6563" y2="137.6563"/><line style="stroke:#000000;stroke-width:1.0;" x1="88" x2="88" y1="137.6563" y2="152.75"/><line style="stroke:#000000;stroke-width:1.0;" x1="88" x2="98" y1="152.75" y2="152.75"/><text fill="#000000" font-family="sans-serif" font-size="12" font-weight="bold" lengthAdjust="spacing" textLength="77" x="103" y="150.1133">Partie rejet&#233;e</text><line style="stroke:#000000;stroke-width:1.0;" x1="98" x2="98" y1="137.6563" y2="152.75"/><line style="stroke:#000000;stroke-width:1.0;" x1="98" x2="183" y1="137.6563" y2="137.6563"/><line style="stroke:#000000;stroke-width:1.0;" x1="183" x2="183" y1="137.6563" y2="152.75"/><line style="stroke:#000000;stroke-width:1.0;" x1="183" x2="193" y1="152.75" y2="152.75"/><rect fill="#EEEEEE" height="12" rx="5" ry="5" style="stroke:#000000;stroke-width:2.5;" width="36" x="9.5" y="158.25"/><path d="M26.5,160.25 L26.5,163.25 L23.5,163.25 L23.5,165.25 L26.5,165.25 L26.5,168.25 L28.5,168.25 L28.5,165.25 L31.5,165.25 L31.5,163.25 L28.5,163.25 L28.5,160.25 L26.5,160.25 " fill="#000000" style="stroke:;stroke-width:0.0;stroke-dasharray:;"/><text fill="#000000" font-family="sans-serif" font-size="12" lengthAdjust="spacing" textLength="7" x="7" y="187.207">#</text><text fill="#000000" font-family="sans-serif" font-size="12" font-weight="bold" lengthAdjust="spacing" textLength="120" x="50" y="187.207">Esp&#232;ce commerciale</text><text fill="#000000" font-family="sans-serif" font-size="12" font-weight="bold" lengthAdjust="spacing" textLength="55" x="276" y="187.207">Cat&#233;gorie</text><text fill="#000000" font-family="sans-serif" font-size="12" font-weight="bold" lengthAdjust="spacing" textLength="60" x="358" y="187.207">Poids total</text><text fill="#000000" font-family="sans-serif" font-size="12" font-weight="bold" lengthAdjust="spacing" textLength="73" x="420" y="187.207">Taux &#233;chant.</text><text fill="#000000" font-family="sans-serif" font-size="12" font-weight="bold" lengthAdjust="spacing" textLength="105" x="495" y="187.207">Taux sous-&#233;chant.</text><text fill="#000000" font-family="sans-serif" font-size="12" font-weight="bold" lengthAdjust="spacing" textLength="77" x="602" y="187.207">Poids &#233;chant.</text><text fill="#000000" font-family="sans-serif" font-size="12" font-weight="bold" lengthAdjust="spacing" textLength="89" x="681" y="187.207">Nb indiv &#233;chant.</text><text fill="#000000" font-family="sans-serif" font-size="12" lengthAdjust="spacing" textLength="7" x="7" y="204.3008">4</text><rect fill="#EEEEEE" height="18.0938" style="stroke:#000000;stroke-width:1.0;" width="223" x="50" y="191.8438"/><text fill="#000000" font-family="sans-serif" font-size="12" lengthAdjust="spacing" textLength="82" x="52" y="206.3008">MNZ- Baudroie</text><line style="stroke:#000000;stroke-width:1.0;" x1="262" x2="262" y1="191.8438" y2="209.9375"/><polygon fill="#000000" points="265,197.8438,271,197.8438,268,204.9375" style="stroke:#000000;stroke-width:1.0;"/><rect fill="#EEEEEE" height="18.0938" style="stroke:#000000;stroke-width:1.0;" width="79" x="276" y="191.8438"/><text fill="#000000" font-family="sans-serif" font-size="12" lengthAdjust="spacing" textLength="14" x="278" y="206.3008">10</text><line style="stroke:#000000;stroke-width:1.0;" x1="344" x2="344" y1="191.8438" y2="209.9375"/><polygon fill="#000000" points="347,197.8438,353,197.8438,350,204.9375" style="stroke:#000000;stroke-width:1.0;"/><text fill="#000000" font-family="sans-serif" font-size="12" lengthAdjust="spacing" textLength="14" x="358" y="204.3008">25</text><text fill="#000000" font-family="sans-serif" font-size="12" lengthAdjust="spacing" textLength="7" x="602" y="204.3008">5</text><text fill="#000000" font-family="sans-serif" font-size="12" lengthAdjust="spacing" textLength="7" x="681" y="204.3008">2</text><text fill="#000000" font-family="sans-serif" font-size="12" lengthAdjust="spacing" textLength="7" x="7" y="225.3945">3</text><rect fill="#EEEEEE" height="18.0938" style="stroke:#000000;stroke-width:1.0;" width="223" x="50" y="212.9375"/><text fill="#000000" font-family="sans-serif" font-size="12" lengthAdjust="spacing" textLength="82" x="52" y="227.3945">MNZ- Baudroie</text><line style="stroke:#000000;stroke-width:1.0;" x1="262" x2="262" y1="212.9375" y2="231.0313"/><polygon fill="#000000" points="265,218.9375,271,218.9375,268,226.0313" style="stroke:#000000;stroke-width:1.0;"/><rect fill="#EEEEEE" height="18.0938" style="stroke:#000000;stroke-width:1.0;" width="79" x="276" y="212.9375"/><text fill="#000000" font-family="sans-serif" font-size="12" lengthAdjust="spacing" textLength="14" x="278" y="227.3945">30</text><line style="stroke:#000000;stroke-width:1.0;" x1="344" x2="344" y1="212.9375" y2="231.0313"/><polygon fill="#000000" points="347,218.9375,353,218.9375,350,226.0313" style="stroke:#000000;stroke-width:1.0;"/><text fill="#000000" font-family="sans-serif" font-size="12" lengthAdjust="spacing" textLength="14" x="358" y="225.3945">25</text><text fill="#000000" font-family="sans-serif" font-size="12" lengthAdjust="spacing" textLength="7" x="602" y="225.3945">5</text><text fill="#000000" font-family="sans-serif" font-size="12" lengthAdjust="spacing" textLength="7" x="681" y="225.3945">2</text><text fill="#000000" font-family="sans-serif" font-size="12" lengthAdjust="spacing" textLength="7" x="7" y="246.4883">2</text><rect fill="#EEEEEE" height="18.0938" style="stroke:#000000;stroke-width:1.0;" width="223" x="50" y="234.0313"/><text fill="#000000" font-family="sans-serif" font-size="12" lengthAdjust="spacing" textLength="163" x="52" y="248.4883">NEP - Langoustine commune</text><line style="stroke:#000000;stroke-width:1.0;" x1="262" x2="262" y1="234.0313" y2="252.125"/><polygon fill="#000000" points="265,240.0313,271,240.0313,268,247.125" style="stroke:#000000;stroke-width:1.0;"/><rect fill="#EEEEEE" height="18.0938" style="stroke:#000000;stroke-width:1.0;" width="79" x="276" y="234.0313"/><text fill="#000000" font-family="sans-serif" font-size="12" lengthAdjust="spacing" textLength="31" x="278" y="248.4883">Petite</text><line style="stroke:#000000;stroke-width:1.0;" x1="344" x2="344" y1="234.0313" y2="252.125"/><polygon fill="#000000" points="347,240.0313,353,240.0313,350,247.125" style="stroke:#000000;stroke-width:1.0;"/><text fill="#000000" font-family="sans-serif" font-size="12" lengthAdjust="spacing" textLength="14" x="358" y="246.4883">25</text><text fill="#000000" font-family="sans-serif" font-size="12" lengthAdjust="spacing" textLength="17" x="420" y="246.4883">1/5</text><text fill="#000000" font-family="sans-serif" font-size="12" lengthAdjust="spacing" textLength="17" x="495" y="246.4883">1/5</text><text fill="#000000" font-family="sans-serif" font-size="12" font-style="italic" lengthAdjust="spacing" textLength="7" x="602" y="246.4883">5</text><text fill="#000000" font-family="sans-serif" font-size="12" lengthAdjust="spacing" textLength="7" x="681" y="246.4883">2</text><text fill="#000000" font-family="sans-serif" font-size="12" lengthAdjust="spacing" textLength="7" x="7" y="267.582">1</text><rect fill="#EEEEEE" height="18.0938" style="stroke:#000000;stroke-width:1.0;" width="223" x="50" y="255.125"/><text fill="#000000" font-family="sans-serif" font-size="12" lengthAdjust="spacing" textLength="59" x="52" y="269.582">SOX - Sole</text><line style="stroke:#000000;stroke-width:1.0;" x1="262" x2="262" y1="255.125" y2="273.2188"/><polygon fill="#000000" points="265,261.125,271,261.125,268,268.2188" style="stroke:#000000;stroke-width:1.0;"/><text fill="#000000" font-family="sans-serif" font-size="12" lengthAdjust="spacing" textLength="14" x="358" y="267.582">25</text><text fill="#000000" font-family="sans-serif" font-size="12" lengthAdjust="spacing" textLength="17" x="420" y="267.582">1/1</text><text fill="#000000" font-family="sans-serif" font-size="12" lengthAdjust="spacing" textLength="17" x="495" y="267.582">1/1</text><text fill="#000000" font-family="sans-serif" font-size="12" lengthAdjust="spacing" textLength="14" x="602" y="267.582">25</text><text fill="#000000" font-family="sans-serif" font-size="12" lengthAdjust="spacing" textLength="7" x="681" y="267.582">2</text><line style="stroke:#000000;stroke-width:1.0;" x1="6" x2="49" y1="154.75" y2="154.75"/><line style="stroke:#000000;stroke-width:1.0;" x1="49" x2="275" y1="154.75" y2="154.75"/><line style="stroke:#000000;stroke-width:1.0;" x1="275" x2="357" y1="154.75" y2="154.75"/><line style="stroke:#000000;stroke-width:1.0;" x1="357" x2="419" y1="154.75" y2="154.75"/><line style="stroke:#000000;stroke-width:1.0;" x1="419" x2="494" y1="154.75" y2="154.75"/><line style="stroke:#000000;stroke-width:1.0;" x1="494" x2="601" y1="154.75" y2="154.75"/><line style="stroke:#000000;stroke-width:1.0;" x1="601" x2="680" y1="154.75" y2="154.75"/><line style="stroke:#000000;stroke-width:1.0;" x1="680" x2="771" y1="154.75" y2="154.75"/><line style="stroke:#000000;stroke-width:1.0;" x1="6" x2="49" y1="211.9375" y2="211.9375"/><line style="stroke:#000000;stroke-width:1.0;" x1="49" x2="275" y1="211.9375" y2="211.9375"/><line style="stroke:#000000;stroke-width:1.0;" x1="275" x2="357" y1="211.9375" y2="211.9375"/><line style="stroke:#000000;stroke-width:1.0;" x1="357" x2="419" y1="211.9375" y2="211.9375"/><line style="stroke:#000000;stroke-width:1.0;" x1="419" x2="494" y1="211.9375" y2="211.9375"/><line style="stroke:#000000;stroke-width:1.0;" x1="494" x2="601" y1="211.9375" y2="211.9375"/><line style="stroke:#000000;stroke-width:1.0;" x1="601" x2="680" y1="211.9375" y2="211.9375"/><line style="stroke:#000000;stroke-width:1.0;" x1="680" x2="771" y1="211.9375" y2="211.9375"/><line style="stroke:#000000;stroke-width:1.0;" x1="6" x2="49" y1="275.2188" y2="275.2188"/><line style="stroke:#000000;stroke-width:1.0;" x1="49" x2="275" y1="275.2188" y2="275.2188"/><line style="stroke:#000000;stroke-width:1.0;" x1="275" x2="357" y1="275.2188" y2="275.2188"/><line style="stroke:#000000;stroke-width:1.0;" x1="357" x2="419" y1="275.2188" y2="275.2188"/><line style="stroke:#000000;stroke-width:1.0;" x1="419" x2="494" y1="275.2188" y2="275.2188"/><line style="stroke:#000000;stroke-width:1.0;" x1="494" x2="601" y1="275.2188" y2="275.2188"/><line style="stroke:#000000;stroke-width:1.0;" x1="601" x2="680" y1="275.2188" y2="275.2188"/><line style="stroke:#000000;stroke-width:1.0;" x1="680" x2="771" y1="275.2188" y2="275.2188"/><line style="stroke:#000000;stroke-width:1.0;" x1="6" x2="49" y1="173.75" y2="173.75"/><line style="stroke:#000000;stroke-width:1.0;" x1="49" x2="275" y1="173.75" y2="173.75"/><line style="stroke:#000000;stroke-width:1.0;" x1="275" x2="357" y1="173.75" y2="173.75"/><line style="stroke:#000000;stroke-width:1.0;" x1="357" x2="419" y1="173.75" y2="173.75"/><line style="stroke:#000000;stroke-width:1.0;" x1="419" x2="494" y1="173.75" y2="173.75"/><line style="stroke:#000000;stroke-width:1.0;" x1="494" x2="601" y1="173.75" y2="173.75"/><line style="stroke:#000000;stroke-width:1.0;" x1="601" x2="680" y1="173.75" y2="173.75"/><line style="stroke:#000000;stroke-width:1.0;" x1="680" x2="771" y1="173.75" y2="173.75"/><line style="stroke:#000000;stroke-width:1.0;" x1="6" x2="49" y1="233.0313" y2="233.0313"/><line style="stroke:#000000;stroke-width:1.0;" x1="49" x2="275" y1="233.0313" y2="233.0313"/><line style="stroke:#000000;stroke-width:1.0;" x1="275" x2="357" y1="233.0313" y2="233.0313"/><line style="stroke:#000000;stroke-width:1.0;" x1="357" x2="419" y1="233.0313" y2="233.0313"/><line style="stroke:#000000;stroke-width:1.0;" x1="419" x2="494" y1="233.0313" y2="233.0313"/><line style="stroke:#000000;stroke-width:1.0;" x1="494" x2="601" y1="233.0313" y2="233.0313"/><line style="stroke:#000000;stroke-width:1.0;" x1="601" x2="680" y1="233.0313" y2="233.0313"/><line style="stroke:#000000;stroke-width:1.0;" x1="680" x2="771" y1="233.0313" y2="233.0313"/><line style="stroke:#000000;stroke-width:1.0;" x1="6" x2="49" y1="190.8438" y2="190.8438"/><line style="stroke:#000000;stroke-width:1.0;" x1="49" x2="275" y1="190.8438" y2="190.8438"/><line style="stroke:#000000;stroke-width:1.0;" x1="275" x2="357" y1="190.8438" y2="190.8438"/><line style="stroke:#000000;stroke-width:1.0;" x1="357" x2="419" y1="190.8438" y2="190.8438"/><line style="stroke:#000000;stroke-width:1.0;" x1="419" x2="494" y1="190.8438" y2="190.8438"/><line style="stroke:#000000;stroke-width:1.0;" x1="494" x2="601" y1="190.8438" y2="190.8438"/><line style="stroke:#000000;stroke-width:1.0;" x1="601" x2="680" y1="190.8438" y2="190.8438"/><line style="stroke:#000000;stroke-width:1.0;" x1="680" x2="771" y1="190.8438" y2="190.8438"/><line style="stroke:#000000;stroke-width:1.0;" x1="6" x2="49" y1="254.125" y2="254.125"/><line style="stroke:#000000;stroke-width:1.0;" x1="49" x2="275" y1="254.125" y2="254.125"/><line style="stroke:#000000;stroke-width:1.0;" x1="275" x2="357" y1="254.125" y2="254.125"/><line style="stroke:#000000;stroke-width:1.0;" x1="357" x2="419" y1="254.125" y2="254.125"/><line style="stroke:#000000;stroke-width:1.0;" x1="419" x2="494" y1="254.125" y2="254.125"/><line style="stroke:#000000;stroke-width:1.0;" x1="494" x2="601" y1="254.125" y2="254.125"/><line style="stroke:#000000;stroke-width:1.0;" x1="601" x2="680" y1="254.125" y2="254.125"/><line style="stroke:#000000;stroke-width:1.0;" x1="680" x2="771" y1="254.125" y2="254.125"/><line style="stroke:#000000;stroke-width:1.0;" x1="6" x2="6" y1="154.75" y2="173.75"/><line style="stroke:#000000;stroke-width:1.0;" x1="49" x2="49" y1="154.75" y2="173.75"/><line style="stroke:#000000;stroke-width:1.0;" x1="275" x2="275" y1="154.75" y2="173.75"/><line style="stroke:#000000;stroke-width:1.0;" x1="357" x2="357" y1="154.75" y2="173.75"/><line style="stroke:#000000;stroke-width:1.0;" x1="419" x2="419" y1="154.75" y2="173.75"/><line style="stroke:#000000;stroke-width:1.0;" x1="494" x2="494" y1="154.75" y2="173.75"/><line style="stroke:#000000;stroke-width:1.0;" x1="601" x2="601" y1="154.75" y2="173.75"/><line style="stroke:#000000;stroke-width:1.0;" x1="680" x2="680" y1="154.75" y2="173.75"/><line style="stroke:#000000;stroke-width:1.0;" x1="771" x2="771" y1="154.75" y2="173.75"/><line style="stroke:#000000;stroke-width:1.0;" x1="6" x2="6" y1="211.9375" y2="233.0313"/><line style="stroke:#000000;stroke-width:1.0;" x1="49" x2="49" y1="211.9375" y2="233.0313"/><line style="stroke:#000000;stroke-width:1.0;" x1="275" x2="275" y1="211.9375" y2="233.0313"/><line style="stroke:#000000;stroke-width:1.0;" x1="357" x2="357" y1="211.9375" y2="233.0313"/><line style="stroke:#000000;stroke-width:1.0;" x1="419" x2="419" y1="211.9375" y2="233.0313"/><line style="stroke:#000000;stroke-width:1.0;" x1="494" x2="494" y1="211.9375" y2="233.0313"/><line style="stroke:#000000;stroke-width:1.0;" x1="601" x2="601" y1="211.9375" y2="233.0313"/><line style="stroke:#000000;stroke-width:1.0;" x1="680" x2="680" y1="211.9375" y2="233.0313"/><line style="stroke:#000000;stroke-width:1.0;" x1="771" x2="771" y1="211.9375" y2="233.0313"/><line style="stroke:#000000;stroke-width:1.0;" x1="6" x2="6" y1="173.75" y2="190.8438"/><line style="stroke:#000000;stroke-width:1.0;" x1="49" x2="49" y1="173.75" y2="190.8438"/><line style="stroke:#000000;stroke-width:1.0;" x1="275" x2="275" y1="173.75" y2="190.8438"/><line style="stroke:#000000;stroke-width:1.0;" x1="357" x2="357" y1="173.75" y2="190.8438"/><line style="stroke:#000000;stroke-width:1.0;" x1="419" x2="419" y1="173.75" y2="190.8438"/><line style="stroke:#000000;stroke-width:1.0;" x1="494" x2="494" y1="173.75" y2="190.8438"/><line style="stroke:#000000;stroke-width:1.0;" x1="601" x2="601" y1="173.75" y2="190.8438"/><line style="stroke:#000000;stroke-width:1.0;" x1="680" x2="680" y1="173.75" y2="190.8438"/><line style="stroke:#000000;stroke-width:1.0;" x1="771" x2="771" y1="173.75" y2="190.8438"/><line style="stroke:#000000;stroke-width:1.0;" x1="6" x2="6" y1="233.0313" y2="254.125"/><line style="stroke:#000000;stroke-width:1.0;" x1="49" x2="49" y1="233.0313" y2="254.125"/><line style="stroke:#000000;stroke-width:1.0;" x1="275" x2="275" y1="233.0313" y2="254.125"/><line style="stroke:#000000;stroke-width:1.0;" x1="357" x2="357" y1="233.0313" y2="254.125"/><line style="stroke:#000000;stroke-width:1.0;" x1="419" x2="419" y1="233.0313" y2="254.125"/><line style="stroke:#000000;stroke-width:1.0;" x1="494" x2="494" y1="233.0313" y2="254.125"/><line style="stroke:#000000;stroke-width:1.0;" x1="601" x2="601" y1="233.0313" y2="254.125"/><line style="stroke:#000000;stroke-width:1.0;" x1="680" x2="680" y1="233.0313" y2="254.125"/><line style="stroke:#000000;stroke-width:1.0;" x1="771" x2="771" y1="233.0313" y2="254.125"/><line style="stroke:#000000;stroke-width:1.0;" x1="6" x2="6" y1="190.8438" y2="211.9375"/><line style="stroke:#000000;stroke-width:1.0;" x1="49" x2="49" y1="190.8438" y2="211.9375"/><line style="stroke:#000000;stroke-width:1.0;" x1="275" x2="275" y1="190.8438" y2="211.9375"/><line style="stroke:#000000;stroke-width:1.0;" x1="357" x2="357" y1="190.8438" y2="211.9375"/><line style="stroke:#000000;stroke-width:1.0;" x1="419" x2="419" y1="190.8438" y2="211.9375"/><line style="stroke:#000000;stroke-width:1.0;" x1="494" x2="494" y1="190.8438" y2="211.9375"/><line style="stroke:#000000;stroke-width:1.0;" x1="601" x2="601" y1="190.8438" y2="211.9375"/><line style="stroke:#000000;stroke-width:1.0;" x1="680" x2="680" y1="190.8438" y2="211.9375"/><line style="stroke:#000000;stroke-width:1.0;" x1="771" x2="771" y1="190.8438" y2="211.9375"/><line style="stroke:#000000;stroke-width:1.0;" x1="6" x2="6" y1="254.125" y2="275.2188"/><line style="stroke:#000000;stroke-width:1.0;" x1="49" x2="49" y1="254.125" y2="275.2188"/><line style="stroke:#000000;stroke-width:1.0;" x1="275" x2="275" y1="254.125" y2="275.2188"/><line style="stroke:#000000;stroke-width:1.0;" x1="357" x2="357" y1="254.125" y2="275.2188"/><line style="stroke:#000000;stroke-width:1.0;" x1="419" x2="419" y1="254.125" y2="275.2188"/><line style="stroke:#000000;stroke-width:1.0;" x1="494" x2="494" y1="254.125" y2="275.2188"/><line style="stroke:#000000;stroke-width:1.0;" x1="601" x2="601" y1="254.125" y2="275.2188"/><line style="stroke:#000000;stroke-width:1.0;" x1="680" x2="680" y1="254.125" y2="275.2188"/><line style="stroke:#000000;stroke-width:1.0;" x1="771" x2="771" y1="254.125" y2="275.2188"/><line style="stroke:#AAAAAA;stroke-width:1.0;" x1="6" x2="772" y1="280.7188" y2="280.7188"/><rect fill="#EEEEEE" height="19.0938" rx="5" ry="5" style="stroke:#000000;stroke-width:2.5;" width="60" x="9.5" y="288.7188"/><text fill="#000000" font-family="sans-serif" font-size="12" lengthAdjust="spacing" textLength="42" x="18.5" y="303.1758">Annuler</text><rect fill="#EEEEEE" height="19.0938" rx="5" ry="5" style="stroke:#000000;stroke-width:2.5;" width="92" x="76.5" y="288.7188"/><text fill="#000000" font-family="sans-serif" font-size="12" lengthAdjust="spacing" textLength="70" x="87.5" y="303.1758">Sauvegarder</text></g></svg>