<?xml version="1.0" encoding="UTF-8" standalone="no"?><svg xmlns="http://www.w3.org/2000/svg" xmlns:xlink="http://www.w3.org/1999/xlink" contentStyleType="text/css" height="527px" preserveAspectRatio="none" style="width:1000px;height:527px;background:#FFFFFF;" version="1.1" viewBox="0 0 1000 527" width="1000px" zoomAndPan="magnify"><defs/><g><text fill="#000000" font-family="sans-serif" font-size="12" font-weight="bold" lengthAdjust="spacing" textLength="92" x="6" y="18.8281">Lots par espèce</text><line style="stroke:#AAAAAA;stroke-width:1.0;stroke-dasharray:1.0,2.0;" x1="6" x2="993" y1="27.8441" y2="27.8441"/><text fill="#000000" font-family="sans-serif" font-size="12" lengthAdjust="spacing" textLength="37" x="7" y="46.1722">Engin :</text><rect fill="#EEEEEE" height="20.3441" rx="5" ry="5" style="stroke:#000000;stroke-width:2.5;" width="188" x="145.5" y="35.8441"/><text fill="#000000" font-family="sans-serif" font-size="12" font-weight="bold" lengthAdjust="spacing" textLength="125" x="177" y="50.6722">Engin sélectif #1 (10)</text><rect fill="#EEEEEE" height="20.3441" rx="5" ry="5" style="stroke:#000000;stroke-width:2.5;" width="140" x="340.5" y="35.8441"/><text fill="#000000" font-family="sans-serif" font-size="12" lengthAdjust="spacing" textLength="102" x="359.5" y="50.6722">Engin standard #2</text><text fill="#000000" font-family="sans-serif" font-size="12" lengthAdjust="spacing" textLength="84" x="7" y="73.5163">Position engin :</text><rect fill="#EEEEEE" height="20.3441" rx="5" ry="5" style="stroke:#000000;stroke-width:2.5;" width="52" x="146.5" y="64.1882"/><text fill="#000000" font-family="sans-serif" font-size="12" font-weight="bold" lengthAdjust="spacing" textLength="43" x="151" y="79.0163">Bâbord</text><rect fill="#EEEEEE" height="20.3441" rx="5" ry="5" style="stroke:#000000;stroke-width:2.5;" width="60" x="205.5" y="64.1882"/><text fill="#000000" font-family="sans-serif" font-size="12" lengthAdjust="spacing" textLength="41" x="215" y="79.0163">Tribord</text><text fill="#000000" font-family="sans-serif" font-size="12" lengthAdjust="spacing" textLength="134" x="7" y="102.8604">Poids total capture (kg) :</text><text fill="#000000" font-family="sans-serif" font-size="12" lengthAdjust="spacing" textLength="3" x="146" y="102.8604"> </text><line style="stroke:#000000;stroke-width:1.0;" x1="144" x2="203" y1="106.3765" y2="106.3765"/><line style="stroke:#000000;stroke-width:1.0;" x1="144" x2="144" y1="103.3765" y2="105.3765"/><line style="stroke:#000000;stroke-width:1.0;" x1="203" x2="203" y1="103.3765" y2="105.3765"/><text fill="#000000" font-family="sans-serif" font-size="12" lengthAdjust="spacing" textLength="117" x="7" y="123.2045">Poids total rejet (kg) :</text><text fill="#000000" font-family="sans-serif" font-size="12" lengthAdjust="spacing" textLength="3" x="146" y="123.2045"> </text><line style="stroke:#000000;stroke-width:1.0;" x1="144" x2="203" y1="126.7206" y2="126.7206"/><line style="stroke:#000000;stroke-width:1.0;" x1="144" x2="144" y1="123.7206" y2="125.7206"/><line style="stroke:#000000;stroke-width:1.0;" x1="203" x2="203" y1="123.7206" y2="125.7206"/><rect fill="#EEEEEE" height="12" rx="5" ry="5" style="stroke:#000000;stroke-width:2.5;" width="36" x="9.5" y="135.2206"/><path d="M26.5,137.2206 L26.5,140.2206 L23.5,140.2206 L23.5,142.2206 L26.5,142.2206 L26.5,145.2206 L28.5,145.2206 L28.5,142.2206 L31.5,142.2206 L31.5,140.2206 L28.5,140.2206 L28.5,137.2206 L26.5,137.2206 " fill="#000000" style="stroke:;stroke-width:0.0;stroke-dasharray:;"/><text fill="#000000" font-family="sans-serif" font-size="12" font-weight="bold" lengthAdjust="spacing" textLength="86" x="276" y="145.5487">Partie retenue</text><text fill="#000000" font-family="sans-serif" font-size="12" font-weight="bold" lengthAdjust="spacing" textLength="81" x="639" y="145.5487">Partie rejetée</text><text fill="#000000" font-family="sans-serif" font-size="12" lengthAdjust="spacing" textLength="8" x="7" y="164.5487">#</text><text fill="#000000" font-family="sans-serif" font-size="12" font-weight="bold" lengthAdjust="spacing" textLength="121" x="50" y="164.5487">Espèce commerciale</text><text fill="#000000" font-family="sans-serif" font-size="12" font-weight="bold" lengthAdjust="spacing" textLength="90" x="276" y="164.5487">Poids total (kg)</text><text fill="#000000" font-family="sans-serif" font-size="12" font-weight="bold" lengthAdjust="spacing" textLength="86" x="368" y="164.5487">Nb indiv. total</text><text fill="#000000" font-family="sans-serif" font-size="12" font-weight="bold" lengthAdjust="spacing" textLength="80" x="456" y="164.5487">Poids échant.</text><text fill="#000000" font-family="sans-serif" font-size="12" font-weight="bold" lengthAdjust="spacing" textLength="99" x="538" y="164.5487">Nb indiv échant.</text><text fill="#000000" font-family="sans-serif" font-size="12" font-weight="bold" lengthAdjust="spacing" textLength="64" x="639" y="164.5487">Poids total</text><text fill="#000000" font-family="sans-serif" font-size="12" font-weight="bold" lengthAdjust="spacing" textLength="86" x="722" y="164.5487">Nb indiv. total</text><text fill="#000000" font-family="sans-serif" font-size="12" font-weight="bold" lengthAdjust="spacing" textLength="80" x="810" y="164.5487">Poids échant.</text><text fill="#000000" font-family="sans-serif" font-size="12" font-weight="bold" lengthAdjust="spacing" textLength="99" x="892" y="164.5487">Nb indiv échant.</text><text fill="#000000" font-family="sans-serif" font-size="12" lengthAdjust="spacing" textLength="7" x="7" y="182.8928">3</text><rect fill="#EEEEEE" height="19.3441" style="stroke:#000000;stroke-width:1.0;" width="223" x="50" y="170.0647"/><text fill="#000000" font-family="sans-serif" font-size="12" lengthAdjust="spacing" textLength="85" x="52" y="184.8928">MNZ- Baudroie</text><line style="stroke:#000000;stroke-width:1.0;" x1="262" x2="262" y1="170.0647" y2="189.4088"/><polygon fill="#000000" points="265,176.0647,271,176.0647,268,184.4088" style="stroke:#000000;stroke-width:1.0;"/><text fill="#000000" font-family="sans-serif" font-size="12" lengthAdjust="spacing" textLength="14" x="276" y="182.8928">50</text><text fill="#000000" font-family="sans-serif" font-size="12" lengthAdjust="spacing" textLength="14" x="456" y="182.8928">10</text><text fill="#000000" font-family="sans-serif" font-size="12" lengthAdjust="spacing" textLength="7" x="538" y="182.8928">4</text><text fill="#000000" font-family="sans-serif" font-size="12" lengthAdjust="spacing" textLength="14" x="639" y="182.8928">25</text><text fill="#000000" font-family="sans-serif" font-size="12" lengthAdjust="spacing" textLength="7" x="810" y="182.8928">5</text><text fill="#000000" font-family="sans-serif" font-size="12" lengthAdjust="spacing" textLength="13" x="892" y="182.8928">2 .</text><text fill="#000000" font-family="sans-serif" font-size="12" lengthAdjust="spacing" textLength="7" x="7" y="205.2369">2</text><rect fill="#EEEEEE" height="19.3441" style="stroke:#000000;stroke-width:1.0;" width="223" x="50" y="192.4088"/><text fill="#000000" font-family="sans-serif" font-size="12" lengthAdjust="spacing" textLength="85" x="52" y="207.2369">MNZ- Baudroie</text><line style="stroke:#000000;stroke-width:1.0;" x1="262" x2="262" y1="192.4088" y2="211.7529"/><polygon fill="#000000" points="265,198.4088,271,198.4088,268,206.7529" style="stroke:#000000;stroke-width:1.0;"/><text fill="#000000" font-family="sans-serif" font-size="12" lengthAdjust="spacing" textLength="14" x="276" y="205.2369">50</text><text fill="#000000" font-family="sans-serif" font-size="12" lengthAdjust="spacing" textLength="14" x="456" y="205.2369">10</text><text fill="#000000" font-family="sans-serif" font-size="12" lengthAdjust="spacing" textLength="7" x="538" y="205.2369">4</text><text fill="#000000" font-family="sans-serif" font-size="12" lengthAdjust="spacing" textLength="14" x="639" y="205.2369">25</text><text fill="#000000" font-family="sans-serif" font-size="12" lengthAdjust="spacing" textLength="7" x="810" y="205.2369">5</text><text fill="#000000" font-family="sans-serif" font-size="12" lengthAdjust="spacing" textLength="13" x="892" y="205.2369">2 .</text><text fill="#000000" font-family="sans-serif" font-size="12" lengthAdjust="spacing" textLength="7" x="7" y="227.581">1</text><rect fill="#EEEEEE" height="19.3441" style="stroke:#000000;stroke-width:1.0;" width="223" x="50" y="214.7529"/><text fill="#000000" font-family="sans-serif" font-size="12" lengthAdjust="spacing" textLength="160" x="52" y="229.581">NEP - Langoustine commune</text><line style="stroke:#000000;stroke-width:1.0;" x1="262" x2="262" y1="214.7529" y2="234.097"/><polygon fill="#000000" points="265,220.7529,271,220.7529,268,229.097" style="stroke:#000000;stroke-width:1.0;"/><text fill="#000000" font-family="sans-serif" font-size="12" lengthAdjust="spacing" textLength="14" x="276" y="227.581">50</text><text fill="#000000" font-family="sans-serif" font-size="12" lengthAdjust="spacing" textLength="14" x="456" y="227.581">10</text><text fill="#000000" font-family="sans-serif" font-size="12" lengthAdjust="spacing" textLength="7" x="538" y="227.581">4</text><text fill="#000000" font-family="sans-serif" font-size="12" lengthAdjust="spacing" textLength="14" x="639" y="227.581">25</text><text fill="#000000" font-family="sans-serif" font-size="12" lengthAdjust="spacing" textLength="7" x="810" y="227.581">5</text><text fill="#000000" font-family="sans-serif" font-size="12" lengthAdjust="spacing" textLength="13" x="892" y="227.581">2 .</text><line style="stroke:#000000;stroke-width:1.0;" x1="6" x2="49" y1="131.7206" y2="131.7206"/><line style="stroke:#000000;stroke-width:1.0;" x1="49" x2="275" y1="131.7206" y2="131.7206"/><line style="stroke:#000000;stroke-width:1.0;" x1="275" x2="367" y1="131.7206" y2="131.7206"/><line style="stroke:#000000;stroke-width:1.0;" x1="367" x2="455" y1="131.7206" y2="131.7206"/><line style="stroke:#000000;stroke-width:1.0;" x1="455" x2="537" y1="131.7206" y2="131.7206"/><line style="stroke:#000000;stroke-width:1.0;" x1="537" x2="638" y1="131.7206" y2="131.7206"/><line style="stroke:#000000;stroke-width:1.0;" x1="638" x2="721" y1="131.7206" y2="131.7206"/><line style="stroke:#000000;stroke-width:1.0;" x1="721" x2="809" y1="131.7206" y2="131.7206"/><line style="stroke:#000000;stroke-width:1.0;" x1="809" x2="891" y1="131.7206" y2="131.7206"/><line style="stroke:#000000;stroke-width:1.0;" x1="891" x2="992" y1="131.7206" y2="131.7206"/><line style="stroke:#000000;stroke-width:1.0;" x1="6" x2="49" y1="191.4088" y2="191.4088"/><line style="stroke:#000000;stroke-width:1.0;" x1="49" x2="275" y1="191.4088" y2="191.4088"/><line style="stroke:#000000;stroke-width:1.0;" x1="275" x2="367" y1="191.4088" y2="191.4088"/><line style="stroke:#000000;stroke-width:1.0;" x1="367" x2="455" y1="191.4088" y2="191.4088"/><line style="stroke:#000000;stroke-width:1.0;" x1="455" x2="537" y1="191.4088" y2="191.4088"/><line style="stroke:#000000;stroke-width:1.0;" x1="537" x2="638" y1="191.4088" y2="191.4088"/><line style="stroke:#000000;stroke-width:1.0;" x1="638" x2="721" y1="191.4088" y2="191.4088"/><line style="stroke:#000000;stroke-width:1.0;" x1="721" x2="809" y1="191.4088" y2="191.4088"/><line style="stroke:#000000;stroke-width:1.0;" x1="809" x2="891" y1="191.4088" y2="191.4088"/><line style="stroke:#000000;stroke-width:1.0;" x1="891" x2="992" y1="191.4088" y2="191.4088"/><line style="stroke:#000000;stroke-width:1.0;" x1="6" x2="49" y1="150.7206" y2="150.7206"/><line style="stroke:#000000;stroke-width:1.0;" x1="49" x2="275" y1="150.7206" y2="150.7206"/><line style="stroke:#000000;stroke-width:1.0;" x1="275" x2="367" y1="150.7206" y2="150.7206"/><line style="stroke:#000000;stroke-width:1.0;" x1="367" x2="455" y1="150.7206" y2="150.7206"/><line style="stroke:#000000;stroke-width:1.0;" x1="455" x2="537" y1="150.7206" y2="150.7206"/><line style="stroke:#000000;stroke-width:1.0;" x1="537" x2="638" y1="150.7206" y2="150.7206"/><line style="stroke:#000000;stroke-width:1.0;" x1="638" x2="721" y1="150.7206" y2="150.7206"/><line style="stroke:#000000;stroke-width:1.0;" x1="721" x2="809" y1="150.7206" y2="150.7206"/><line style="stroke:#000000;stroke-width:1.0;" x1="809" x2="891" y1="150.7206" y2="150.7206"/><line style="stroke:#000000;stroke-width:1.0;" x1="891" x2="992" y1="150.7206" y2="150.7206"/><line style="stroke:#000000;stroke-width:1.0;" x1="6" x2="49" y1="213.7529" y2="213.7529"/><line style="stroke:#000000;stroke-width:1.0;" x1="49" x2="275" y1="213.7529" y2="213.7529"/><line style="stroke:#000000;stroke-width:1.0;" x1="275" x2="367" y1="213.7529" y2="213.7529"/><line style="stroke:#000000;stroke-width:1.0;" x1="367" x2="455" y1="213.7529" y2="213.7529"/><line style="stroke:#000000;stroke-width:1.0;" x1="455" x2="537" y1="213.7529" y2="213.7529"/><line style="stroke:#000000;stroke-width:1.0;" x1="537" x2="638" y1="213.7529" y2="213.7529"/><line style="stroke:#000000;stroke-width:1.0;" x1="638" x2="721" y1="213.7529" y2="213.7529"/><line style="stroke:#000000;stroke-width:1.0;" x1="721" x2="809" y1="213.7529" y2="213.7529"/><line style="stroke:#000000;stroke-width:1.0;" x1="809" x2="891" y1="213.7529" y2="213.7529"/><line style="stroke:#000000;stroke-width:1.0;" x1="891" x2="992" y1="213.7529" y2="213.7529"/><line style="stroke:#000000;stroke-width:1.0;" x1="6" x2="49" y1="169.0647" y2="169.0647"/><line style="stroke:#000000;stroke-width:1.0;" x1="49" x2="275" y1="169.0647" y2="169.0647"/><line style="stroke:#000000;stroke-width:1.0;" x1="275" x2="367" y1="169.0647" y2="169.0647"/><line style="stroke:#000000;stroke-width:1.0;" x1="367" x2="455" y1="169.0647" y2="169.0647"/><line style="stroke:#000000;stroke-width:1.0;" x1="455" x2="537" y1="169.0647" y2="169.0647"/><line style="stroke:#000000;stroke-width:1.0;" x1="537" x2="638" y1="169.0647" y2="169.0647"/><line style="stroke:#000000;stroke-width:1.0;" x1="638" x2="721" y1="169.0647" y2="169.0647"/><line style="stroke:#000000;stroke-width:1.0;" x1="721" x2="809" y1="169.0647" y2="169.0647"/><line style="stroke:#000000;stroke-width:1.0;" x1="809" x2="891" y1="169.0647" y2="169.0647"/><line style="stroke:#000000;stroke-width:1.0;" x1="891" x2="992" y1="169.0647" y2="169.0647"/><line style="stroke:#000000;stroke-width:1.0;" x1="6" x2="49" y1="236.097" y2="236.097"/><line style="stroke:#000000;stroke-width:1.0;" x1="49" x2="275" y1="236.097" y2="236.097"/><line style="stroke:#000000;stroke-width:1.0;" x1="275" x2="367" y1="236.097" y2="236.097"/><line style="stroke:#000000;stroke-width:1.0;" x1="367" x2="455" y1="236.097" y2="236.097"/><line style="stroke:#000000;stroke-width:1.0;" x1="455" x2="537" y1="236.097" y2="236.097"/><line style="stroke:#000000;stroke-width:1.0;" x1="537" x2="638" y1="236.097" y2="236.097"/><line style="stroke:#000000;stroke-width:1.0;" x1="638" x2="721" y1="236.097" y2="236.097"/><line style="stroke:#000000;stroke-width:1.0;" x1="721" x2="809" y1="236.097" y2="236.097"/><line style="stroke:#000000;stroke-width:1.0;" x1="809" x2="891" y1="236.097" y2="236.097"/><line style="stroke:#000000;stroke-width:1.0;" x1="891" x2="992" y1="236.097" y2="236.097"/><line style="stroke:#000000;stroke-width:1.0;" x1="6" x2="6" y1="131.7206" y2="150.7206"/><line style="stroke:#000000;stroke-width:1.0;" x1="49" x2="49" y1="131.7206" y2="150.7206"/><line style="stroke:#000000;stroke-width:1.0;" x1="275" x2="275" y1="131.7206" y2="150.7206"/><line style="stroke:#000000;stroke-width:1.0;" x1="367" x2="367" y1="131.7206" y2="150.7206"/><line style="stroke:#000000;stroke-width:1.0;" x1="455" x2="455" y1="131.7206" y2="150.7206"/><line style="stroke:#000000;stroke-width:1.0;" x1="537" x2="537" y1="131.7206" y2="150.7206"/><line style="stroke:#000000;stroke-width:1.0;" x1="638" x2="638" y1="131.7206" y2="150.7206"/><line style="stroke:#000000;stroke-width:1.0;" x1="721" x2="721" y1="131.7206" y2="150.7206"/><line style="stroke:#000000;stroke-width:1.0;" x1="809" x2="809" y1="131.7206" y2="150.7206"/><line style="stroke:#000000;stroke-width:1.0;" x1="891" x2="891" y1="131.7206" y2="150.7206"/><line style="stroke:#000000;stroke-width:1.0;" x1="992" x2="992" y1="131.7206" y2="150.7206"/><line style="stroke:#000000;stroke-width:1.0;" x1="6" x2="6" y1="191.4088" y2="213.7529"/><line style="stroke:#000000;stroke-width:1.0;" x1="49" x2="49" y1="191.4088" y2="213.7529"/><line style="stroke:#000000;stroke-width:1.0;" x1="275" x2="275" y1="191.4088" y2="213.7529"/><line style="stroke:#000000;stroke-width:1.0;" x1="367" x2="367" y1="191.4088" y2="213.7529"/><line style="stroke:#000000;stroke-width:1.0;" x1="455" x2="455" y1="191.4088" y2="213.7529"/><line style="stroke:#000000;stroke-width:1.0;" x1="537" x2="537" y1="191.4088" y2="213.7529"/><line style="stroke:#000000;stroke-width:1.0;" x1="638" x2="638" y1="191.4088" y2="213.7529"/><line style="stroke:#000000;stroke-width:1.0;" x1="721" x2="721" y1="191.4088" y2="213.7529"/><line style="stroke:#000000;stroke-width:1.0;" x1="809" x2="809" y1="191.4088" y2="213.7529"/><line style="stroke:#000000;stroke-width:1.0;" x1="891" x2="891" y1="191.4088" y2="213.7529"/><line style="stroke:#000000;stroke-width:1.0;" x1="992" x2="992" y1="191.4088" y2="213.7529"/><line style="stroke:#000000;stroke-width:1.0;" x1="6" x2="6" y1="150.7206" y2="169.0647"/><line style="stroke:#000000;stroke-width:1.0;" x1="49" x2="49" y1="150.7206" y2="169.0647"/><line style="stroke:#000000;stroke-width:1.0;" x1="275" x2="275" y1="150.7206" y2="169.0647"/><line style="stroke:#000000;stroke-width:1.0;" x1="367" x2="367" y1="150.7206" y2="169.0647"/><line style="stroke:#000000;stroke-width:1.0;" x1="455" x2="455" y1="150.7206" y2="169.0647"/><line style="stroke:#000000;stroke-width:1.0;" x1="537" x2="537" y1="150.7206" y2="169.0647"/><line style="stroke:#000000;stroke-width:1.0;" x1="638" x2="638" y1="150.7206" y2="169.0647"/><line style="stroke:#000000;stroke-width:1.0;" x1="721" x2="721" y1="150.7206" y2="169.0647"/><line style="stroke:#000000;stroke-width:1.0;" x1="809" x2="809" y1="150.7206" y2="169.0647"/><line style="stroke:#000000;stroke-width:1.0;" x1="891" x2="891" y1="150.7206" y2="169.0647"/><line style="stroke:#000000;stroke-width:1.0;" x1="992" x2="992" y1="150.7206" y2="169.0647"/><line style="stroke:#000000;stroke-width:1.0;" x1="6" x2="6" y1="213.7529" y2="236.097"/><line style="stroke:#000000;stroke-width:1.0;" x1="49" x2="49" y1="213.7529" y2="236.097"/><line style="stroke:#000000;stroke-width:1.0;" x1="275" x2="275" y1="213.7529" y2="236.097"/><line style="stroke:#000000;stroke-width:1.0;" x1="367" x2="367" y1="213.7529" y2="236.097"/><line style="stroke:#000000;stroke-width:1.0;" x1="455" x2="455" y1="213.7529" y2="236.097"/><line style="stroke:#000000;stroke-width:1.0;" x1="537" x2="537" y1="213.7529" y2="236.097"/><line style="stroke:#000000;stroke-width:1.0;" x1="638" x2="638" y1="213.7529" y2="236.097"/><line style="stroke:#000000;stroke-width:1.0;" x1="721" x2="721" y1="213.7529" y2="236.097"/><line style="stroke:#000000;stroke-width:1.0;" x1="809" x2="809" y1="213.7529" y2="236.097"/><line style="stroke:#000000;stroke-width:1.0;" x1="891" x2="891" y1="213.7529" y2="236.097"/><line style="stroke:#000000;stroke-width:1.0;" x1="992" x2="992" y1="213.7529" y2="236.097"/><line style="stroke:#000000;stroke-width:1.0;" x1="6" x2="6" y1="169.0647" y2="191.4088"/><line style="stroke:#000000;stroke-width:1.0;" x1="49" x2="49" y1="169.0647" y2="191.4088"/><line style="stroke:#000000;stroke-width:1.0;" x1="275" x2="275" y1="169.0647" y2="191.4088"/><line style="stroke:#000000;stroke-width:1.0;" x1="367" x2="367" y1="169.0647" y2="191.4088"/><line style="stroke:#000000;stroke-width:1.0;" x1="455" x2="455" y1="169.0647" y2="191.4088"/><line style="stroke:#000000;stroke-width:1.0;" x1="537" x2="537" y1="169.0647" y2="191.4088"/><line style="stroke:#000000;stroke-width:1.0;" x1="638" x2="638" y1="169.0647" y2="191.4088"/><line style="stroke:#000000;stroke-width:1.0;" x1="721" x2="721" y1="169.0647" y2="191.4088"/><line style="stroke:#000000;stroke-width:1.0;" x1="809" x2="809" y1="169.0647" y2="191.4088"/><line style="stroke:#000000;stroke-width:1.0;" x1="891" x2="891" y1="169.0647" y2="191.4088"/><line style="stroke:#000000;stroke-width:1.0;" x1="992" x2="992" y1="169.0647" y2="191.4088"/><line style="stroke:#AAAAAA;stroke-width:1.0;stroke-dasharray:1.0,2.0;" x1="6" x2="993" y1="241.597" y2="241.597"/><rect fill="#EEEEEE" height="20.3441" rx="5" ry="5" style="stroke:#000000;stroke-width:2.5;" width="164" x="9.5" y="249.597"/><path d="M43,256.9411 L43,259.9411 L40,259.9411 L40,261.9411 L43,261.9411 L43,264.9411 L45,264.9411 L45,261.9411 L48,261.9411 L48,259.9411 L45,259.9411 L45,256.9411 L43,256.9411 " fill="#000000" style="stroke:;stroke-width:0.0;stroke-dasharray:;"/><text fill="#000000" font-family="sans-serif" font-size="12" lengthAdjust="spacing" textLength="92" x="52" y="264.4251">Ajouter un engin</text><line style="stroke:#AAAAAA;stroke-width:1.0;stroke-dasharray:1.0,2.0;" x1="6" x2="993" y1="278.9411" y2="278.9411"/><text fill="#000000" font-family="sans-serif" font-size="12" lengthAdjust="spacing" textLength="37" x="7" y="297.2692">Engin :</text><rect fill="#EEEEEE" height="20.3441" rx="5" ry="5" style="stroke:#000000;stroke-width:2.5;" width="188" x="145.5" y="286.9411"/><text fill="#000000" font-family="sans-serif" font-size="12" lengthAdjust="spacing" textLength="117" x="181" y="301.7692">Engin sélectif #1 (10)</text><rect fill="#EEEEEE" height="20.3441" rx="5" ry="5" style="stroke:#000000;stroke-width:2.5;" width="140" x="340.5" y="286.9411"/><text fill="#000000" font-family="sans-serif" font-size="12" font-weight="bold" lengthAdjust="spacing" textLength="110" x="355.5" y="301.7692">Engin standard #2</text><text fill="#000000" font-family="sans-serif" font-size="12" lengthAdjust="spacing" textLength="84" x="7" y="324.6133">Position engin :</text><rect fill="#EEEEEE" height="20.3441" rx="5" ry="5" style="stroke:#000000;stroke-width:2.5;" width="52" x="146.5" y="315.2853"/><text fill="#000000" font-family="sans-serif" font-size="12" lengthAdjust="spacing" textLength="41" x="152" y="330.1133">Bâbord</text><rect fill="#EEEEEE" height="20.3441" rx="5" ry="5" style="stroke:#000000;stroke-width:2.5;" width="60" x="205.5" y="315.2853"/><text fill="#000000" font-family="sans-serif" font-size="12" font-weight="bold" lengthAdjust="spacing" textLength="44" x="213.5" y="330.1133">Tribord</text><text fill="#000000" font-family="sans-serif" font-size="12" lengthAdjust="spacing" textLength="134" x="7" y="353.9575">Poids total capture (kg) :</text><text fill="#000000" font-family="sans-serif" font-size="12" lengthAdjust="spacing" textLength="3" x="146" y="353.9575"> </text><line style="stroke:#000000;stroke-width:1.0;" x1="144" x2="203" y1="357.4735" y2="357.4735"/><line style="stroke:#000000;stroke-width:1.0;" x1="144" x2="144" y1="354.4735" y2="356.4735"/><line style="stroke:#000000;stroke-width:1.0;" x1="203" x2="203" y1="354.4735" y2="356.4735"/><text fill="#000000" font-family="sans-serif" font-size="12" lengthAdjust="spacing" textLength="117" x="7" y="374.3016">Poids total rejet (kg) :</text><text fill="#000000" font-family="sans-serif" font-size="12" lengthAdjust="spacing" textLength="3" x="146" y="374.3016"> </text><line style="stroke:#000000;stroke-width:1.0;" x1="144" x2="203" y1="377.8176" y2="377.8176"/><line style="stroke:#000000;stroke-width:1.0;" x1="144" x2="144" y1="374.8176" y2="376.8176"/><line style="stroke:#000000;stroke-width:1.0;" x1="203" x2="203" y1="374.8176" y2="376.8176"/><rect fill="#EEEEEE" height="12" rx="5" ry="5" style="stroke:#000000;stroke-width:2.5;" width="36" x="9.5" y="386.3176"/><path d="M26.5,388.3176 L26.5,391.3176 L23.5,391.3176 L23.5,393.3176 L26.5,393.3176 L26.5,396.3176 L28.5,396.3176 L28.5,393.3176 L31.5,393.3176 L31.5,391.3176 L28.5,391.3176 L28.5,388.3176 L26.5,388.3176 " fill="#000000" style="stroke:;stroke-width:0.0;stroke-dasharray:;"/><text fill="#000000" font-family="sans-serif" font-size="12" font-weight="bold" lengthAdjust="spacing" textLength="86" x="276" y="396.6457">Partie retenue</text><text fill="#000000" font-family="sans-serif" font-size="12" font-weight="bold" lengthAdjust="spacing" textLength="81" x="639" y="396.6457">Partie rejetée</text><text fill="#000000" font-family="sans-serif" font-size="12" lengthAdjust="spacing" textLength="8" x="7" y="415.6457">#</text><text fill="#000000" font-family="sans-serif" font-size="12" font-weight="bold" lengthAdjust="spacing" textLength="121" x="50" y="415.6457">Espèce commerciale</text><text fill="#000000" font-family="sans-serif" font-size="12" font-weight="bold" lengthAdjust="spacing" textLength="90" x="276" y="415.6457">Poids total (kg)</text><text fill="#000000" font-family="sans-serif" font-size="12" font-weight="bold" lengthAdjust="spacing" textLength="86" x="368" y="415.6457">Nb indiv. total</text><text fill="#000000" font-family="sans-serif" font-size="12" font-weight="bold" lengthAdjust="spacing" textLength="80" x="456" y="415.6457">Poids échant.</text><text fill="#000000" font-family="sans-serif" font-size="12" font-weight="bold" lengthAdjust="spacing" textLength="99" x="538" y="415.6457">Nb indiv échant.</text><text fill="#000000" font-family="sans-serif" font-size="12" font-weight="bold" lengthAdjust="spacing" textLength="64" x="639" y="415.6457">Poids total</text><text fill="#000000" font-family="sans-serif" font-size="12" font-weight="bold" lengthAdjust="spacing" textLength="86" x="722" y="415.6457">Nb indiv. total</text><text fill="#000000" font-family="sans-serif" font-size="12" font-weight="bold" lengthAdjust="spacing" textLength="80" x="810" y="415.6457">Poids échant.</text><text fill="#000000" font-family="sans-serif" font-size="12" font-weight="bold" lengthAdjust="spacing" textLength="99" x="892" y="415.6457">Nb indiv échant.</text><text fill="#000000" font-family="sans-serif" font-size="12" lengthAdjust="spacing" textLength="7" x="7" y="433.9898">3</text><rect fill="#EEEEEE" height="19.3441" style="stroke:#000000;stroke-width:1.0;" width="223" x="50" y="421.1617"/><text fill="#000000" font-family="sans-serif" font-size="12" lengthAdjust="spacing" textLength="85" x="52" y="435.9898">MNZ- Baudroie</text><line style="stroke:#000000;stroke-width:1.0;" x1="262" x2="262" y1="421.1617" y2="440.5058"/><polygon fill="#000000" points="265,427.1617,271,427.1617,268,435.5058" style="stroke:#000000;stroke-width:1.0;"/><text fill="#000000" font-family="sans-serif" font-size="12" lengthAdjust="spacing" textLength="14" x="276" y="433.9898">50</text><text fill="#000000" font-family="sans-serif" font-size="12" lengthAdjust="spacing" textLength="14" x="456" y="433.9898">10</text><text fill="#000000" font-family="sans-serif" font-size="12" lengthAdjust="spacing" textLength="7" x="538" y="433.9898">4</text><text fill="#000000" font-family="sans-serif" font-size="12" lengthAdjust="spacing" textLength="14" x="639" y="433.9898">25</text><text fill="#000000" font-family="sans-serif" font-size="12" lengthAdjust="spacing" textLength="7" x="810" y="433.9898">5</text><text fill="#000000" font-family="sans-serif" font-size="12" lengthAdjust="spacing" textLength="13" x="892" y="433.9898">2 .</text><text fill="#000000" font-family="sans-serif" font-size="12" lengthAdjust="spacing" textLength="7" x="7" y="456.3339">2</text><rect fill="#EEEEEE" height="19.3441" style="stroke:#000000;stroke-width:1.0;" width="223" x="50" y="443.5058"/><text fill="#000000" font-family="sans-serif" font-size="12" lengthAdjust="spacing" textLength="85" x="52" y="458.3339">MNZ- Baudroie</text><line style="stroke:#000000;stroke-width:1.0;" x1="262" x2="262" y1="443.5058" y2="462.8499"/><polygon fill="#000000" points="265,449.5058,271,449.5058,268,457.8499" style="stroke:#000000;stroke-width:1.0;"/><text fill="#000000" font-family="sans-serif" font-size="12" lengthAdjust="spacing" textLength="14" x="276" y="456.3339">50</text><text fill="#000000" font-family="sans-serif" font-size="12" lengthAdjust="spacing" textLength="14" x="456" y="456.3339">10</text><text fill="#000000" font-family="sans-serif" font-size="12" lengthAdjust="spacing" textLength="7" x="538" y="456.3339">4</text><text fill="#000000" font-family="sans-serif" font-size="12" lengthAdjust="spacing" textLength="14" x="639" y="456.3339">25</text><text fill="#000000" font-family="sans-serif" font-size="12" lengthAdjust="spacing" textLength="7" x="810" y="456.3339">5</text><text fill="#000000" font-family="sans-serif" font-size="12" lengthAdjust="spacing" textLength="13" x="892" y="456.3339">2 .</text><text fill="#000000" font-family="sans-serif" font-size="12" lengthAdjust="spacing" textLength="7" x="7" y="478.678">1</text><rect fill="#EEEEEE" height="19.3441" style="stroke:#000000;stroke-width:1.0;" width="223" x="50" y="465.8499"/><text fill="#000000" font-family="sans-serif" font-size="12" lengthAdjust="spacing" textLength="160" x="52" y="480.678">NEP - Langoustine commune</text><line style="stroke:#000000;stroke-width:1.0;" x1="262" x2="262" y1="465.8499" y2="485.1941"/><polygon fill="#000000" points="265,471.8499,271,471.8499,268,480.1941" style="stroke:#000000;stroke-width:1.0;"/><text fill="#000000" font-family="sans-serif" font-size="12" lengthAdjust="spacing" textLength="14" x="276" y="478.678">50</text><text fill="#000000" font-family="sans-serif" font-size="12" lengthAdjust="spacing" textLength="14" x="456" y="478.678">10</text><text fill="#000000" font-family="sans-serif" font-size="12" lengthAdjust="spacing" textLength="7" x="538" y="478.678">4</text><text fill="#000000" font-family="sans-serif" font-size="12" lengthAdjust="spacing" textLength="14" x="639" y="478.678">25</text><text fill="#000000" font-family="sans-serif" font-size="12" lengthAdjust="spacing" textLength="7" x="810" y="478.678">5</text><text fill="#000000" font-family="sans-serif" font-size="12" lengthAdjust="spacing" textLength="13" x="892" y="478.678">2 .</text><line style="stroke:#000000;stroke-width:1.0;" x1="6" x2="49" y1="382.8176" y2="382.8176"/><line style="stroke:#000000;stroke-width:1.0;" x1="49" x2="275" y1="382.8176" y2="382.8176"/><line style="stroke:#000000;stroke-width:1.0;" x1="275" x2="367" y1="382.8176" y2="382.8176"/><line style="stroke:#000000;stroke-width:1.0;" x1="367" x2="455" y1="382.8176" y2="382.8176"/><line style="stroke:#000000;stroke-width:1.0;" x1="455" x2="537" y1="382.8176" y2="382.8176"/><line style="stroke:#000000;stroke-width:1.0;" x1="537" x2="638" y1="382.8176" y2="382.8176"/><line style="stroke:#000000;stroke-width:1.0;" x1="638" x2="721" y1="382.8176" y2="382.8176"/><line style="stroke:#000000;stroke-width:1.0;" x1="721" x2="809" y1="382.8176" y2="382.8176"/><line style="stroke:#000000;stroke-width:1.0;" x1="809" x2="891" y1="382.8176" y2="382.8176"/><line style="stroke:#000000;stroke-width:1.0;" x1="891" x2="992" y1="382.8176" y2="382.8176"/><line style="stroke:#000000;stroke-width:1.0;" x1="6" x2="49" y1="442.5058" y2="442.5058"/><line style="stroke:#000000;stroke-width:1.0;" x1="49" x2="275" y1="442.5058" y2="442.5058"/><line style="stroke:#000000;stroke-width:1.0;" x1="275" x2="367" y1="442.5058" y2="442.5058"/><line style="stroke:#000000;stroke-width:1.0;" x1="367" x2="455" y1="442.5058" y2="442.5058"/><line style="stroke:#000000;stroke-width:1.0;" x1="455" x2="537" y1="442.5058" y2="442.5058"/><line style="stroke:#000000;stroke-width:1.0;" x1="537" x2="638" y1="442.5058" y2="442.5058"/><line style="stroke:#000000;stroke-width:1.0;" x1="638" x2="721" y1="442.5058" y2="442.5058"/><line style="stroke:#000000;stroke-width:1.0;" x1="721" x2="809" y1="442.5058" y2="442.5058"/><line style="stroke:#000000;stroke-width:1.0;" x1="809" x2="891" y1="442.5058" y2="442.5058"/><line style="stroke:#000000;stroke-width:1.0;" x1="891" x2="992" y1="442.5058" y2="442.5058"/><line style="stroke:#000000;stroke-width:1.0;" x1="6" x2="49" y1="401.8176" y2="401.8176"/><line style="stroke:#000000;stroke-width:1.0;" x1="49" x2="275" y1="401.8176" y2="401.8176"/><line style="stroke:#000000;stroke-width:1.0;" x1="275" x2="367" y1="401.8176" y2="401.8176"/><line style="stroke:#000000;stroke-width:1.0;" x1="367" x2="455" y1="401.8176" y2="401.8176"/><line style="stroke:#000000;stroke-width:1.0;" x1="455" x2="537" y1="401.8176" y2="401.8176"/><line style="stroke:#000000;stroke-width:1.0;" x1="537" x2="638" y1="401.8176" y2="401.8176"/><line style="stroke:#000000;stroke-width:1.0;" x1="638" x2="721" y1="401.8176" y2="401.8176"/><line style="stroke:#000000;stroke-width:1.0;" x1="721" x2="809" y1="401.8176" y2="401.8176"/><line style="stroke:#000000;stroke-width:1.0;" x1="809" x2="891" y1="401.8176" y2="401.8176"/><line style="stroke:#000000;stroke-width:1.0;" x1="891" x2="992" y1="401.8176" y2="401.8176"/><line style="stroke:#000000;stroke-width:1.0;" x1="6" x2="49" y1="464.8499" y2="464.8499"/><line style="stroke:#000000;stroke-width:1.0;" x1="49" x2="275" y1="464.8499" y2="464.8499"/><line style="stroke:#000000;stroke-width:1.0;" x1="275" x2="367" y1="464.8499" y2="464.8499"/><line style="stroke:#000000;stroke-width:1.0;" x1="367" x2="455" y1="464.8499" y2="464.8499"/><line style="stroke:#000000;stroke-width:1.0;" x1="455" x2="537" y1="464.8499" y2="464.8499"/><line style="stroke:#000000;stroke-width:1.0;" x1="537" x2="638" y1="464.8499" y2="464.8499"/><line style="stroke:#000000;stroke-width:1.0;" x1="638" x2="721" y1="464.8499" y2="464.8499"/><line style="stroke:#000000;stroke-width:1.0;" x1="721" x2="809" y1="464.8499" y2="464.8499"/><line style="stroke:#000000;stroke-width:1.0;" x1="809" x2="891" y1="464.8499" y2="464.8499"/><line style="stroke:#000000;stroke-width:1.0;" x1="891" x2="992" y1="464.8499" y2="464.8499"/><line style="stroke:#000000;stroke-width:1.0;" x1="6" x2="49" y1="420.1617" y2="420.1617"/><line style="stroke:#000000;stroke-width:1.0;" x1="49" x2="275" y1="420.1617" y2="420.1617"/><line style="stroke:#000000;stroke-width:1.0;" x1="275" x2="367" y1="420.1617" y2="420.1617"/><line style="stroke:#000000;stroke-width:1.0;" x1="367" x2="455" y1="420.1617" y2="420.1617"/><line style="stroke:#000000;stroke-width:1.0;" x1="455" x2="537" y1="420.1617" y2="420.1617"/><line style="stroke:#000000;stroke-width:1.0;" x1="537" x2="638" y1="420.1617" y2="420.1617"/><line style="stroke:#000000;stroke-width:1.0;" x1="638" x2="721" y1="420.1617" y2="420.1617"/><line style="stroke:#000000;stroke-width:1.0;" x1="721" x2="809" y1="420.1617" y2="420.1617"/><line style="stroke:#000000;stroke-width:1.0;" x1="809" x2="891" y1="420.1617" y2="420.1617"/><line style="stroke:#000000;stroke-width:1.0;" x1="891" x2="992" y1="420.1617" y2="420.1617"/><line style="stroke:#000000;stroke-width:1.0;" x1="6" x2="49" y1="487.1941" y2="487.1941"/><line style="stroke:#000000;stroke-width:1.0;" x1="49" x2="275" y1="487.1941" y2="487.1941"/><line style="stroke:#000000;stroke-width:1.0;" x1="275" x2="367" y1="487.1941" y2="487.1941"/><line style="stroke:#000000;stroke-width:1.0;" x1="367" x2="455" y1="487.1941" y2="487.1941"/><line style="stroke:#000000;stroke-width:1.0;" x1="455" x2="537" y1="487.1941" y2="487.1941"/><line style="stroke:#000000;stroke-width:1.0;" x1="537" x2="638" y1="487.1941" y2="487.1941"/><line style="stroke:#000000;stroke-width:1.0;" x1="638" x2="721" y1="487.1941" y2="487.1941"/><line style="stroke:#000000;stroke-width:1.0;" x1="721" x2="809" y1="487.1941" y2="487.1941"/><line style="stroke:#000000;stroke-width:1.0;" x1="809" x2="891" y1="487.1941" y2="487.1941"/><line style="stroke:#000000;stroke-width:1.0;" x1="891" x2="992" y1="487.1941" y2="487.1941"/><line style="stroke:#000000;stroke-width:1.0;" x1="6" x2="6" y1="382.8176" y2="401.8176"/><line style="stroke:#000000;stroke-width:1.0;" x1="49" x2="49" y1="382.8176" y2="401.8176"/><line style="stroke:#000000;stroke-width:1.0;" x1="275" x2="275" y1="382.8176" y2="401.8176"/><line style="stroke:#000000;stroke-width:1.0;" x1="367" x2="367" y1="382.8176" y2="401.8176"/><line style="stroke:#000000;stroke-width:1.0;" x1="455" x2="455" y1="382.8176" y2="401.8176"/><line style="stroke:#000000;stroke-width:1.0;" x1="537" x2="537" y1="382.8176" y2="401.8176"/><line style="stroke:#000000;stroke-width:1.0;" x1="638" x2="638" y1="382.8176" y2="401.8176"/><line style="stroke:#000000;stroke-width:1.0;" x1="721" x2="721" y1="382.8176" y2="401.8176"/><line style="stroke:#000000;stroke-width:1.0;" x1="809" x2="809" y1="382.8176" y2="401.8176"/><line style="stroke:#000000;stroke-width:1.0;" x1="891" x2="891" y1="382.8176" y2="401.8176"/><line style="stroke:#000000;stroke-width:1.0;" x1="992" x2="992" y1="382.8176" y2="401.8176"/><line style="stroke:#000000;stroke-width:1.0;" x1="6" x2="6" y1="442.5058" y2="464.8499"/><line style="stroke:#000000;stroke-width:1.0;" x1="49" x2="49" y1="442.5058" y2="464.8499"/><line style="stroke:#000000;stroke-width:1.0;" x1="275" x2="275" y1="442.5058" y2="464.8499"/><line style="stroke:#000000;stroke-width:1.0;" x1="367" x2="367" y1="442.5058" y2="464.8499"/><line style="stroke:#000000;stroke-width:1.0;" x1="455" x2="455" y1="442.5058" y2="464.8499"/><line style="stroke:#000000;stroke-width:1.0;" x1="537" x2="537" y1="442.5058" y2="464.8499"/><line style="stroke:#000000;stroke-width:1.0;" x1="638" x2="638" y1="442.5058" y2="464.8499"/><line style="stroke:#000000;stroke-width:1.0;" x1="721" x2="721" y1="442.5058" y2="464.8499"/><line style="stroke:#000000;stroke-width:1.0;" x1="809" x2="809" y1="442.5058" y2="464.8499"/><line style="stroke:#000000;stroke-width:1.0;" x1="891" x2="891" y1="442.5058" y2="464.8499"/><line style="stroke:#000000;stroke-width:1.0;" x1="992" x2="992" y1="442.5058" y2="464.8499"/><line style="stroke:#000000;stroke-width:1.0;" x1="6" x2="6" y1="401.8176" y2="420.1617"/><line style="stroke:#000000;stroke-width:1.0;" x1="49" x2="49" y1="401.8176" y2="420.1617"/><line style="stroke:#000000;stroke-width:1.0;" x1="275" x2="275" y1="401.8176" y2="420.1617"/><line style="stroke:#000000;stroke-width:1.0;" x1="367" x2="367" y1="401.8176" y2="420.1617"/><line style="stroke:#000000;stroke-width:1.0;" x1="455" x2="455" y1="401.8176" y2="420.1617"/><line style="stroke:#000000;stroke-width:1.0;" x1="537" x2="537" y1="401.8176" y2="420.1617"/><line style="stroke:#000000;stroke-width:1.0;" x1="638" x2="638" y1="401.8176" y2="420.1617"/><line style="stroke:#000000;stroke-width:1.0;" x1="721" x2="721" y1="401.8176" y2="420.1617"/><line style="stroke:#000000;stroke-width:1.0;" x1="809" x2="809" y1="401.8176" y2="420.1617"/><line style="stroke:#000000;stroke-width:1.0;" x1="891" x2="891" y1="401.8176" y2="420.1617"/><line style="stroke:#000000;stroke-width:1.0;" x1="992" x2="992" y1="401.8176" y2="420.1617"/><line style="stroke:#000000;stroke-width:1.0;" x1="6" x2="6" y1="464.8499" y2="487.1941"/><line style="stroke:#000000;stroke-width:1.0;" x1="49" x2="49" y1="464.8499" y2="487.1941"/><line style="stroke:#000000;stroke-width:1.0;" x1="275" x2="275" y1="464.8499" y2="487.1941"/><line style="stroke:#000000;stroke-width:1.0;" x1="367" x2="367" y1="464.8499" y2="487.1941"/><line style="stroke:#000000;stroke-width:1.0;" x1="455" x2="455" y1="464.8499" y2="487.1941"/><line style="stroke:#000000;stroke-width:1.0;" x1="537" x2="537" y1="464.8499" y2="487.1941"/><line style="stroke:#000000;stroke-width:1.0;" x1="638" x2="638" y1="464.8499" y2="487.1941"/><line style="stroke:#000000;stroke-width:1.0;" x1="721" x2="721" y1="464.8499" y2="487.1941"/><line style="stroke:#000000;stroke-width:1.0;" x1="809" x2="809" y1="464.8499" y2="487.1941"/><line style="stroke:#000000;stroke-width:1.0;" x1="891" x2="891" y1="464.8499" y2="487.1941"/><line style="stroke:#000000;stroke-width:1.0;" x1="992" x2="992" y1="464.8499" y2="487.1941"/><line style="stroke:#000000;stroke-width:1.0;" x1="6" x2="6" y1="420.1617" y2="442.5058"/><line style="stroke:#000000;stroke-width:1.0;" x1="49" x2="49" y1="420.1617" y2="442.5058"/><line style="stroke:#000000;stroke-width:1.0;" x1="275" x2="275" y1="420.1617" y2="442.5058"/><line style="stroke:#000000;stroke-width:1.0;" x1="367" x2="367" y1="420.1617" y2="442.5058"/><line style="stroke:#000000;stroke-width:1.0;" x1="455" x2="455" y1="420.1617" y2="442.5058"/><line style="stroke:#000000;stroke-width:1.0;" x1="537" x2="537" y1="420.1617" y2="442.5058"/><line style="stroke:#000000;stroke-width:1.0;" x1="638" x2="638" y1="420.1617" y2="442.5058"/><line style="stroke:#000000;stroke-width:1.0;" x1="721" x2="721" y1="420.1617" y2="442.5058"/><line style="stroke:#000000;stroke-width:1.0;" x1="809" x2="809" y1="420.1617" y2="442.5058"/><line style="stroke:#000000;stroke-width:1.0;" x1="891" x2="891" y1="420.1617" y2="442.5058"/><line style="stroke:#000000;stroke-width:1.0;" x1="992" x2="992" y1="420.1617" y2="442.5058"/><line style="stroke:#AAAAAA;stroke-width:1.0;stroke-dasharray:1.0,2.0;" x1="6" x2="993" y1="492.6941" y2="492.6941"/><rect fill="#EEEEEE" height="20.3441" rx="5" ry="5" style="stroke:#000000;stroke-width:2.5;" width="60" x="9.5" y="500.6941"/><text fill="#000000" font-family="sans-serif" font-size="12" lengthAdjust="spacing" textLength="44" x="17.5" y="515.5221">Annuler</text><rect fill="#EEEEEE" height="20.3441" rx="5" ry="5" style="stroke:#000000;stroke-width:2.5;" width="92" x="76.5" y="500.6941"/><text fill="#000000" font-family="sans-serif" font-size="12" lengthAdjust="spacing" textLength="72" x="86.5" y="515.5221">Sauvegarder</text></g></svg>