<?xml version="1.0" encoding="us-ascii" standalone="no"?><svg xmlns="http://www.w3.org/2000/svg" xmlns:xlink="http://www.w3.org/1999/xlink" contentStyleType="text/css" height="503px" preserveAspectRatio="none" style="width:943px;height:503px;background:#FFFFFF;" version="1.1" viewBox="0 0 943 503" width="943px" zoomAndPan="magnify"><defs/><g><text fill="#000000" font-family="sans-serif" font-size="12" font-weight="bold" lengthAdjust="spacing" textLength="92" x="6" y="18.457">Lots par esp&#232;ce</text><line style="stroke:#AAAAAA;stroke-width:1.0;stroke-dasharray:1.0,2.0;" x1="6" x2="936" y1="26.5938" y2="26.5938"/><text fill="#000000" font-family="sans-serif" font-size="12" lengthAdjust="spacing" textLength="38" x="7" y="44.5508">Engin :</text><rect fill="#EEEEEE" height="19.0938" rx="5" ry="5" style="stroke:#000000;stroke-width:2.5;" width="188" x="143.5" y="34.5938"/><text fill="#000000" font-family="sans-serif" font-size="12" font-weight="bold" lengthAdjust="spacing" textLength="118" x="178.5" y="49.0508">Engin s&#233;lectif #1 (10)</text><rect fill="#EEEEEE" height="19.0938" rx="5" ry="5" style="stroke:#000000;stroke-width:2.5;" width="140" x="338.5" y="34.5938"/><text fill="#000000" font-family="sans-serif" font-size="12" lengthAdjust="spacing" textLength="101" x="358" y="49.0508">Engin standard #2</text><text fill="#000000" font-family="sans-serif" font-size="12" lengthAdjust="spacing" textLength="85" x="7" y="70.6445">Position engin :</text><rect fill="#EEEEEE" height="19.0938" rx="5" ry="5" style="stroke:#000000;stroke-width:2.5;" width="52" x="144.5" y="61.6875"/><text fill="#000000" font-family="sans-serif" font-size="12" font-weight="bold" lengthAdjust="spacing" textLength="41" x="150" y="76.1445">B&#226;bord</text><rect fill="#EEEEEE" height="19.0938" rx="5" ry="5" style="stroke:#000000;stroke-width:2.5;" width="60" x="203.5" y="61.6875"/><text fill="#000000" font-family="sans-serif" font-size="12" lengthAdjust="spacing" textLength="39" x="214" y="76.1445">Tribord</text><text fill="#000000" font-family="sans-serif" font-size="12" lengthAdjust="spacing" textLength="132" x="7" y="98.7383">Poids total capture (kg) :</text><text fill="#000000" font-family="sans-serif" font-size="12" lengthAdjust="spacing" textLength="3" x="144" y="98.7383">&#160;</text><line style="stroke:#000000;stroke-width:1.0;" x1="142" x2="201" y1="101.375" y2="101.375"/><line style="stroke:#000000;stroke-width:1.0;" x1="142" x2="142" y1="98.375" y2="100.375"/><line style="stroke:#000000;stroke-width:1.0;" x1="201" x2="201" y1="98.375" y2="100.375"/><text fill="#000000" font-family="sans-serif" font-size="12" lengthAdjust="spacing" textLength="115" x="7" y="117.832">Poids total rejet (kg) :</text><text fill="#000000" font-family="sans-serif" font-size="12" lengthAdjust="spacing" textLength="3" x="144" y="117.832">&#160;</text><line style="stroke:#000000;stroke-width:1.0;" x1="142" x2="201" y1="120.4688" y2="120.4688"/><line style="stroke:#000000;stroke-width:1.0;" x1="142" x2="142" y1="117.4688" y2="119.4688"/><line style="stroke:#000000;stroke-width:1.0;" x1="201" x2="201" y1="117.4688" y2="119.4688"/><rect fill="#EEEEEE" height="12" rx="5" ry="5" style="stroke:#000000;stroke-width:2.5;" width="36" x="9.5" y="128.9688"/><path d="M26.5,130.9688 L26.5,133.9688 L23.5,133.9688 L23.5,135.9688 L26.5,135.9688 L26.5,138.9688 L28.5,138.9688 L28.5,135.9688 L31.5,135.9688 L31.5,133.9688 L28.5,133.9688 L28.5,130.9688 L26.5,130.9688 " fill="#000000" style="stroke:;stroke-width:0.0;stroke-dasharray:;"/><text fill="#000000" font-family="sans-serif" font-size="12" font-weight="bold" lengthAdjust="spacing" textLength="81" x="276" y="138.9258">Partie retenue</text><text fill="#000000" font-family="sans-serif" font-size="12" font-weight="bold" lengthAdjust="spacing" textLength="77" x="610" y="138.9258">Partie rejet&#233;e</text><text fill="#000000" font-family="sans-serif" font-size="12" lengthAdjust="spacing" textLength="7" x="7" y="157.9258">#</text><text fill="#000000" font-family="sans-serif" font-size="12" font-weight="bold" lengthAdjust="spacing" textLength="120" x="50" y="157.9258">Esp&#232;ce commerciale</text><text fill="#000000" font-family="sans-serif" font-size="12" font-weight="bold" lengthAdjust="spacing" textLength="85" x="276" y="157.9258">Poids total (kg)</text><text fill="#000000" font-family="sans-serif" font-size="12" font-weight="bold" lengthAdjust="spacing" textLength="75" x="363" y="157.9258">Nb indiv. total</text><text fill="#000000" font-family="sans-serif" font-size="12" font-weight="bold" lengthAdjust="spacing" textLength="77" x="440" y="157.9258">Poids &#233;chant.</text><text fill="#000000" font-family="sans-serif" font-size="12" font-weight="bold" lengthAdjust="spacing" textLength="89" x="519" y="157.9258">Nb indiv &#233;chant.</text><text fill="#000000" font-family="sans-serif" font-size="12" font-weight="bold" lengthAdjust="spacing" textLength="60" x="610" y="157.9258">Poids total</text><text fill="#000000" font-family="sans-serif" font-size="12" font-weight="bold" lengthAdjust="spacing" textLength="75" x="689" y="157.9258">Nb indiv. total</text><text fill="#000000" font-family="sans-serif" font-size="12" font-weight="bold" lengthAdjust="spacing" textLength="77" x="766" y="157.9258">Poids &#233;chant.</text><text fill="#000000" font-family="sans-serif" font-size="12" font-weight="bold" lengthAdjust="spacing" textLength="89" x="845" y="157.9258">Nb indiv &#233;chant.</text><text fill="#000000" font-family="sans-serif" font-size="12" lengthAdjust="spacing" textLength="7" x="7" y="175.0195">3</text><rect fill="#EEEEEE" height="18.0938" style="stroke:#000000;stroke-width:1.0;" width="223" x="50" y="162.5625"/><text fill="#000000" font-family="sans-serif" font-size="12" lengthAdjust="spacing" textLength="82" x="52" y="177.0195">MNZ- Baudroie</text><line style="stroke:#000000;stroke-width:1.0;" x1="262" x2="262" y1="162.5625" y2="180.6563"/><polygon fill="#000000" points="265,168.5625,271,168.5625,268,175.6563" style="stroke:#000000;stroke-width:1.0;"/><text fill="#000000" font-family="sans-serif" font-size="12" lengthAdjust="spacing" textLength="14" x="276" y="175.0195">50</text><text fill="#000000" font-family="sans-serif" font-size="12" lengthAdjust="spacing" textLength="14" x="440" y="175.0195">10</text><text fill="#000000" font-family="sans-serif" font-size="12" lengthAdjust="spacing" textLength="7" x="519" y="175.0195">4</text><text fill="#000000" font-family="sans-serif" font-size="12" lengthAdjust="spacing" textLength="14" x="610" y="175.0195">25</text><text fill="#000000" font-family="sans-serif" font-size="12" lengthAdjust="spacing" textLength="7" x="766" y="175.0195">5</text><text fill="#000000" font-family="sans-serif" font-size="12" lengthAdjust="spacing" textLength="13" x="845" y="175.0195">2 .</text><text fill="#000000" font-family="sans-serif" font-size="12" lengthAdjust="spacing" textLength="7" x="7" y="196.1133">2</text><rect fill="#EEEEEE" height="18.0938" style="stroke:#000000;stroke-width:1.0;" width="223" x="50" y="183.6563"/><text fill="#000000" font-family="sans-serif" font-size="12" lengthAdjust="spacing" textLength="82" x="52" y="198.1133">MNZ- Baudroie</text><line style="stroke:#000000;stroke-width:1.0;" x1="262" x2="262" y1="183.6563" y2="201.75"/><polygon fill="#000000" points="265,189.6563,271,189.6563,268,196.75" style="stroke:#000000;stroke-width:1.0;"/><text fill="#000000" font-family="sans-serif" font-size="12" lengthAdjust="spacing" textLength="14" x="276" y="196.1133">50</text><text fill="#000000" font-family="sans-serif" font-size="12" lengthAdjust="spacing" textLength="14" x="440" y="196.1133">10</text><text fill="#000000" font-family="sans-serif" font-size="12" lengthAdjust="spacing" textLength="7" x="519" y="196.1133">4</text><text fill="#000000" font-family="sans-serif" font-size="12" lengthAdjust="spacing" textLength="14" x="610" y="196.1133">25</text><text fill="#000000" font-family="sans-serif" font-size="12" lengthAdjust="spacing" textLength="7" x="766" y="196.1133">5</text><text fill="#000000" font-family="sans-serif" font-size="12" lengthAdjust="spacing" textLength="13" x="845" y="196.1133">2 .</text><text fill="#000000" font-family="sans-serif" font-size="12" lengthAdjust="spacing" textLength="7" x="7" y="217.207">1</text><rect fill="#EEEEEE" height="18.0938" style="stroke:#000000;stroke-width:1.0;" width="223" x="50" y="204.75"/><text fill="#000000" font-family="sans-serif" font-size="12" lengthAdjust="spacing" textLength="163" x="52" y="219.207">NEP - Langoustine commune</text><line style="stroke:#000000;stroke-width:1.0;" x1="262" x2="262" y1="204.75" y2="222.8438"/><polygon fill="#000000" points="265,210.75,271,210.75,268,217.8438" style="stroke:#000000;stroke-width:1.0;"/><text fill="#000000" font-family="sans-serif" font-size="12" lengthAdjust="spacing" textLength="14" x="276" y="217.207">50</text><text fill="#000000" font-family="sans-serif" font-size="12" lengthAdjust="spacing" textLength="14" x="440" y="217.207">10</text><text fill="#000000" font-family="sans-serif" font-size="12" lengthAdjust="spacing" textLength="7" x="519" y="217.207">4</text><text fill="#000000" font-family="sans-serif" font-size="12" lengthAdjust="spacing" textLength="14" x="610" y="217.207">25</text><text fill="#000000" font-family="sans-serif" font-size="12" lengthAdjust="spacing" textLength="7" x="766" y="217.207">5</text><text fill="#000000" font-family="sans-serif" font-size="12" lengthAdjust="spacing" textLength="13" x="845" y="217.207">2 .</text><line style="stroke:#000000;stroke-width:1.0;" x1="6" x2="49" y1="125.4688" y2="125.4688"/><line style="stroke:#000000;stroke-width:1.0;" x1="49" x2="275" y1="125.4688" y2="125.4688"/><line style="stroke:#000000;stroke-width:1.0;" x1="275" x2="362" y1="125.4688" y2="125.4688"/><line style="stroke:#000000;stroke-width:1.0;" x1="362" x2="439" y1="125.4688" y2="125.4688"/><line style="stroke:#000000;stroke-width:1.0;" x1="439" x2="518" y1="125.4688" y2="125.4688"/><line style="stroke:#000000;stroke-width:1.0;" x1="518" x2="609" y1="125.4688" y2="125.4688"/><line style="stroke:#000000;stroke-width:1.0;" x1="609" x2="688" y1="125.4688" y2="125.4688"/><line style="stroke:#000000;stroke-width:1.0;" x1="688" x2="765" y1="125.4688" y2="125.4688"/><line style="stroke:#000000;stroke-width:1.0;" x1="765" x2="844" y1="125.4688" y2="125.4688"/><line style="stroke:#000000;stroke-width:1.0;" x1="844" x2="935" y1="125.4688" y2="125.4688"/><line style="stroke:#000000;stroke-width:1.0;" x1="6" x2="49" y1="182.6563" y2="182.6563"/><line style="stroke:#000000;stroke-width:1.0;" x1="49" x2="275" y1="182.6563" y2="182.6563"/><line style="stroke:#000000;stroke-width:1.0;" x1="275" x2="362" y1="182.6563" y2="182.6563"/><line style="stroke:#000000;stroke-width:1.0;" x1="362" x2="439" y1="182.6563" y2="182.6563"/><line style="stroke:#000000;stroke-width:1.0;" x1="439" x2="518" y1="182.6563" y2="182.6563"/><line style="stroke:#000000;stroke-width:1.0;" x1="518" x2="609" y1="182.6563" y2="182.6563"/><line style="stroke:#000000;stroke-width:1.0;" x1="609" x2="688" y1="182.6563" y2="182.6563"/><line style="stroke:#000000;stroke-width:1.0;" x1="688" x2="765" y1="182.6563" y2="182.6563"/><line style="stroke:#000000;stroke-width:1.0;" x1="765" x2="844" y1="182.6563" y2="182.6563"/><line style="stroke:#000000;stroke-width:1.0;" x1="844" x2="935" y1="182.6563" y2="182.6563"/><line style="stroke:#000000;stroke-width:1.0;" x1="6" x2="49" y1="144.4688" y2="144.4688"/><line style="stroke:#000000;stroke-width:1.0;" x1="49" x2="275" y1="144.4688" y2="144.4688"/><line style="stroke:#000000;stroke-width:1.0;" x1="275" x2="362" y1="144.4688" y2="144.4688"/><line style="stroke:#000000;stroke-width:1.0;" x1="362" x2="439" y1="144.4688" y2="144.4688"/><line style="stroke:#000000;stroke-width:1.0;" x1="439" x2="518" y1="144.4688" y2="144.4688"/><line style="stroke:#000000;stroke-width:1.0;" x1="518" x2="609" y1="144.4688" y2="144.4688"/><line style="stroke:#000000;stroke-width:1.0;" x1="609" x2="688" y1="144.4688" y2="144.4688"/><line style="stroke:#000000;stroke-width:1.0;" x1="688" x2="765" y1="144.4688" y2="144.4688"/><line style="stroke:#000000;stroke-width:1.0;" x1="765" x2="844" y1="144.4688" y2="144.4688"/><line style="stroke:#000000;stroke-width:1.0;" x1="844" x2="935" y1="144.4688" y2="144.4688"/><line style="stroke:#000000;stroke-width:1.0;" x1="6" x2="49" y1="203.75" y2="203.75"/><line style="stroke:#000000;stroke-width:1.0;" x1="49" x2="275" y1="203.75" y2="203.75"/><line style="stroke:#000000;stroke-width:1.0;" x1="275" x2="362" y1="203.75" y2="203.75"/><line style="stroke:#000000;stroke-width:1.0;" x1="362" x2="439" y1="203.75" y2="203.75"/><line style="stroke:#000000;stroke-width:1.0;" x1="439" x2="518" y1="203.75" y2="203.75"/><line style="stroke:#000000;stroke-width:1.0;" x1="518" x2="609" y1="203.75" y2="203.75"/><line style="stroke:#000000;stroke-width:1.0;" x1="609" x2="688" y1="203.75" y2="203.75"/><line style="stroke:#000000;stroke-width:1.0;" x1="688" x2="765" y1="203.75" y2="203.75"/><line style="stroke:#000000;stroke-width:1.0;" x1="765" x2="844" y1="203.75" y2="203.75"/><line style="stroke:#000000;stroke-width:1.0;" x1="844" x2="935" y1="203.75" y2="203.75"/><line style="stroke:#000000;stroke-width:1.0;" x1="6" x2="49" y1="161.5625" y2="161.5625"/><line style="stroke:#000000;stroke-width:1.0;" x1="49" x2="275" y1="161.5625" y2="161.5625"/><line style="stroke:#000000;stroke-width:1.0;" x1="275" x2="362" y1="161.5625" y2="161.5625"/><line style="stroke:#000000;stroke-width:1.0;" x1="362" x2="439" y1="161.5625" y2="161.5625"/><line style="stroke:#000000;stroke-width:1.0;" x1="439" x2="518" y1="161.5625" y2="161.5625"/><line style="stroke:#000000;stroke-width:1.0;" x1="518" x2="609" y1="161.5625" y2="161.5625"/><line style="stroke:#000000;stroke-width:1.0;" x1="609" x2="688" y1="161.5625" y2="161.5625"/><line style="stroke:#000000;stroke-width:1.0;" x1="688" x2="765" y1="161.5625" y2="161.5625"/><line style="stroke:#000000;stroke-width:1.0;" x1="765" x2="844" y1="161.5625" y2="161.5625"/><line style="stroke:#000000;stroke-width:1.0;" x1="844" x2="935" y1="161.5625" y2="161.5625"/><line style="stroke:#000000;stroke-width:1.0;" x1="6" x2="49" y1="224.8438" y2="224.8438"/><line style="stroke:#000000;stroke-width:1.0;" x1="49" x2="275" y1="224.8438" y2="224.8438"/><line style="stroke:#000000;stroke-width:1.0;" x1="275" x2="362" y1="224.8438" y2="224.8438"/><line style="stroke:#000000;stroke-width:1.0;" x1="362" x2="439" y1="224.8438" y2="224.8438"/><line style="stroke:#000000;stroke-width:1.0;" x1="439" x2="518" y1="224.8438" y2="224.8438"/><line style="stroke:#000000;stroke-width:1.0;" x1="518" x2="609" y1="224.8438" y2="224.8438"/><line style="stroke:#000000;stroke-width:1.0;" x1="609" x2="688" y1="224.8438" y2="224.8438"/><line style="stroke:#000000;stroke-width:1.0;" x1="688" x2="765" y1="224.8438" y2="224.8438"/><line style="stroke:#000000;stroke-width:1.0;" x1="765" x2="844" y1="224.8438" y2="224.8438"/><line style="stroke:#000000;stroke-width:1.0;" x1="844" x2="935" y1="224.8438" y2="224.8438"/><line style="stroke:#000000;stroke-width:1.0;" x1="6" x2="6" y1="125.4688" y2="144.4688"/><line style="stroke:#000000;stroke-width:1.0;" x1="49" x2="49" y1="125.4688" y2="144.4688"/><line style="stroke:#000000;stroke-width:1.0;" x1="275" x2="275" y1="125.4688" y2="144.4688"/><line style="stroke:#000000;stroke-width:1.0;" x1="362" x2="362" y1="125.4688" y2="144.4688"/><line style="stroke:#000000;stroke-width:1.0;" x1="439" x2="439" y1="125.4688" y2="144.4688"/><line style="stroke:#000000;stroke-width:1.0;" x1="518" x2="518" y1="125.4688" y2="144.4688"/><line style="stroke:#000000;stroke-width:1.0;" x1="609" x2="609" y1="125.4688" y2="144.4688"/><line style="stroke:#000000;stroke-width:1.0;" x1="688" x2="688" y1="125.4688" y2="144.4688"/><line style="stroke:#000000;stroke-width:1.0;" x1="765" x2="765" y1="125.4688" y2="144.4688"/><line style="stroke:#000000;stroke-width:1.0;" x1="844" x2="844" y1="125.4688" y2="144.4688"/><line style="stroke:#000000;stroke-width:1.0;" x1="935" x2="935" y1="125.4688" y2="144.4688"/><line style="stroke:#000000;stroke-width:1.0;" x1="6" x2="6" y1="182.6563" y2="203.75"/><line style="stroke:#000000;stroke-width:1.0;" x1="49" x2="49" y1="182.6563" y2="203.75"/><line style="stroke:#000000;stroke-width:1.0;" x1="275" x2="275" y1="182.6563" y2="203.75"/><line style="stroke:#000000;stroke-width:1.0;" x1="362" x2="362" y1="182.6563" y2="203.75"/><line style="stroke:#000000;stroke-width:1.0;" x1="439" x2="439" y1="182.6563" y2="203.75"/><line style="stroke:#000000;stroke-width:1.0;" x1="518" x2="518" y1="182.6563" y2="203.75"/><line style="stroke:#000000;stroke-width:1.0;" x1="609" x2="609" y1="182.6563" y2="203.75"/><line style="stroke:#000000;stroke-width:1.0;" x1="688" x2="688" y1="182.6563" y2="203.75"/><line style="stroke:#000000;stroke-width:1.0;" x1="765" x2="765" y1="182.6563" y2="203.75"/><line style="stroke:#000000;stroke-width:1.0;" x1="844" x2="844" y1="182.6563" y2="203.75"/><line style="stroke:#000000;stroke-width:1.0;" x1="935" x2="935" y1="182.6563" y2="203.75"/><line style="stroke:#000000;stroke-width:1.0;" x1="6" x2="6" y1="144.4688" y2="161.5625"/><line style="stroke:#000000;stroke-width:1.0;" x1="49" x2="49" y1="144.4688" y2="161.5625"/><line style="stroke:#000000;stroke-width:1.0;" x1="275" x2="275" y1="144.4688" y2="161.5625"/><line style="stroke:#000000;stroke-width:1.0;" x1="362" x2="362" y1="144.4688" y2="161.5625"/><line style="stroke:#000000;stroke-width:1.0;" x1="439" x2="439" y1="144.4688" y2="161.5625"/><line style="stroke:#000000;stroke-width:1.0;" x1="518" x2="518" y1="144.4688" y2="161.5625"/><line style="stroke:#000000;stroke-width:1.0;" x1="609" x2="609" y1="144.4688" y2="161.5625"/><line style="stroke:#000000;stroke-width:1.0;" x1="688" x2="688" y1="144.4688" y2="161.5625"/><line style="stroke:#000000;stroke-width:1.0;" x1="765" x2="765" y1="144.4688" y2="161.5625"/><line style="stroke:#000000;stroke-width:1.0;" x1="844" x2="844" y1="144.4688" y2="161.5625"/><line style="stroke:#000000;stroke-width:1.0;" x1="935" x2="935" y1="144.4688" y2="161.5625"/><line style="stroke:#000000;stroke-width:1.0;" x1="6" x2="6" y1="203.75" y2="224.8438"/><line style="stroke:#000000;stroke-width:1.0;" x1="49" x2="49" y1="203.75" y2="224.8438"/><line style="stroke:#000000;stroke-width:1.0;" x1="275" x2="275" y1="203.75" y2="224.8438"/><line style="stroke:#000000;stroke-width:1.0;" x1="362" x2="362" y1="203.75" y2="224.8438"/><line style="stroke:#000000;stroke-width:1.0;" x1="439" x2="439" y1="203.75" y2="224.8438"/><line style="stroke:#000000;stroke-width:1.0;" x1="518" x2="518" y1="203.75" y2="224.8438"/><line style="stroke:#000000;stroke-width:1.0;" x1="609" x2="609" y1="203.75" y2="224.8438"/><line style="stroke:#000000;stroke-width:1.0;" x1="688" x2="688" y1="203.75" y2="224.8438"/><line style="stroke:#000000;stroke-width:1.0;" x1="765" x2="765" y1="203.75" y2="224.8438"/><line style="stroke:#000000;stroke-width:1.0;" x1="844" x2="844" y1="203.75" y2="224.8438"/><line style="stroke:#000000;stroke-width:1.0;" x1="935" x2="935" y1="203.75" y2="224.8438"/><line style="stroke:#000000;stroke-width:1.0;" x1="6" x2="6" y1="161.5625" y2="182.6563"/><line style="stroke:#000000;stroke-width:1.0;" x1="49" x2="49" y1="161.5625" y2="182.6563"/><line style="stroke:#000000;stroke-width:1.0;" x1="275" x2="275" y1="161.5625" y2="182.6563"/><line style="stroke:#000000;stroke-width:1.0;" x1="362" x2="362" y1="161.5625" y2="182.6563"/><line style="stroke:#000000;stroke-width:1.0;" x1="439" x2="439" y1="161.5625" y2="182.6563"/><line style="stroke:#000000;stroke-width:1.0;" x1="518" x2="518" y1="161.5625" y2="182.6563"/><line style="stroke:#000000;stroke-width:1.0;" x1="609" x2="609" y1="161.5625" y2="182.6563"/><line style="stroke:#000000;stroke-width:1.0;" x1="688" x2="688" y1="161.5625" y2="182.6563"/><line style="stroke:#000000;stroke-width:1.0;" x1="765" x2="765" y1="161.5625" y2="182.6563"/><line style="stroke:#000000;stroke-width:1.0;" x1="844" x2="844" y1="161.5625" y2="182.6563"/><line style="stroke:#000000;stroke-width:1.0;" x1="935" x2="935" y1="161.5625" y2="182.6563"/><line style="stroke:#AAAAAA;stroke-width:1.0;stroke-dasharray:1.0,2.0;" x1="6" x2="936" y1="230.3438" y2="230.3438"/><rect fill="#EEEEEE" height="19.0938" rx="5" ry="5" style="stroke:#000000;stroke-width:2.5;" width="164" x="9.5" y="238.3438"/><path d="M44.5,244.4375 L44.5,247.4375 L41.5,247.4375 L41.5,249.4375 L44.5,249.4375 L44.5,252.4375 L46.5,252.4375 L46.5,249.4375 L49.5,249.4375 L49.5,247.4375 L46.5,247.4375 L46.5,244.4375 L44.5,244.4375 " fill="#000000" style="stroke:;stroke-width:0.0;stroke-dasharray:;"/><text fill="#000000" font-family="sans-serif" font-size="12" lengthAdjust="spacing" textLength="89" x="53.5" y="252.8008">Ajouter un engin</text><line style="stroke:#AAAAAA;stroke-width:1.0;stroke-dasharray:1.0,2.0;" x1="6" x2="936" y1="266.4375" y2="266.4375"/><text fill="#000000" font-family="sans-serif" font-size="12" lengthAdjust="spacing" textLength="38" x="7" y="284.3945">Engin :</text><rect fill="#EEEEEE" height="19.0938" rx="5" ry="5" style="stroke:#000000;stroke-width:2.5;" width="188" x="143.5" y="274.4375"/><text fill="#000000" font-family="sans-serif" font-size="12" lengthAdjust="spacing" textLength="116" x="179.5" y="288.8945">Engin s&#233;lectif #1 (10)</text><rect fill="#EEEEEE" height="19.0938" rx="5" ry="5" style="stroke:#000000;stroke-width:2.5;" width="140" x="338.5" y="274.4375"/><text fill="#000000" font-family="sans-serif" font-size="12" font-weight="bold" lengthAdjust="spacing" textLength="102" x="357.5" y="288.8945">Engin standard #2</text><text fill="#000000" font-family="sans-serif" font-size="12" lengthAdjust="spacing" textLength="85" x="7" y="310.4883">Position engin :</text><rect fill="#EEEEEE" height="19.0938" rx="5" ry="5" style="stroke:#000000;stroke-width:2.5;" width="52" x="144.5" y="301.5313"/><text fill="#000000" font-family="sans-serif" font-size="12" lengthAdjust="spacing" textLength="40" x="150.5" y="315.9883">B&#226;bord</text><rect fill="#EEEEEE" height="19.0938" rx="5" ry="5" style="stroke:#000000;stroke-width:2.5;" width="60" x="203.5" y="301.5313"/><text fill="#000000" font-family="sans-serif" font-size="12" font-weight="bold" lengthAdjust="spacing" textLength="41" x="213" y="315.9883">Tribord</text><text fill="#000000" font-family="sans-serif" font-size="12" lengthAdjust="spacing" textLength="132" x="7" y="338.582">Poids total capture (kg) :</text><text fill="#000000" font-family="sans-serif" font-size="12" lengthAdjust="spacing" textLength="3" x="144" y="338.582">&#160;</text><line style="stroke:#000000;stroke-width:1.0;" x1="142" x2="201" y1="341.2188" y2="341.2188"/><line style="stroke:#000000;stroke-width:1.0;" x1="142" x2="142" y1="338.2188" y2="340.2188"/><line style="stroke:#000000;stroke-width:1.0;" x1="201" x2="201" y1="338.2188" y2="340.2188"/><text fill="#000000" font-family="sans-serif" font-size="12" lengthAdjust="spacing" textLength="115" x="7" y="357.6758">Poids total rejet (kg) :</text><text fill="#000000" font-family="sans-serif" font-size="12" lengthAdjust="spacing" textLength="3" x="144" y="357.6758">&#160;</text><line style="stroke:#000000;stroke-width:1.0;" x1="142" x2="201" y1="360.3125" y2="360.3125"/><line style="stroke:#000000;stroke-width:1.0;" x1="142" x2="142" y1="357.3125" y2="359.3125"/><line style="stroke:#000000;stroke-width:1.0;" x1="201" x2="201" y1="357.3125" y2="359.3125"/><rect fill="#EEEEEE" height="12" rx="5" ry="5" style="stroke:#000000;stroke-width:2.5;" width="36" x="9.5" y="368.8125"/><path d="M26.5,370.8125 L26.5,373.8125 L23.5,373.8125 L23.5,375.8125 L26.5,375.8125 L26.5,378.8125 L28.5,378.8125 L28.5,375.8125 L31.5,375.8125 L31.5,373.8125 L28.5,373.8125 L28.5,370.8125 L26.5,370.8125 " fill="#000000" style="stroke:;stroke-width:0.0;stroke-dasharray:;"/><text fill="#000000" font-family="sans-serif" font-size="12" font-weight="bold" lengthAdjust="spacing" textLength="81" x="276" y="378.7695">Partie retenue</text><text fill="#000000" font-family="sans-serif" font-size="12" font-weight="bold" lengthAdjust="spacing" textLength="77" x="610" y="378.7695">Partie rejet&#233;e</text><text fill="#000000" font-family="sans-serif" font-size="12" lengthAdjust="spacing" textLength="7" x="7" y="397.7695">#</text><text fill="#000000" font-family="sans-serif" font-size="12" font-weight="bold" lengthAdjust="spacing" textLength="120" x="50" y="397.7695">Esp&#232;ce commerciale</text><text fill="#000000" font-family="sans-serif" font-size="12" font-weight="bold" lengthAdjust="spacing" textLength="85" x="276" y="397.7695">Poids total (kg)</text><text fill="#000000" font-family="sans-serif" font-size="12" font-weight="bold" lengthAdjust="spacing" textLength="75" x="363" y="397.7695">Nb indiv. total</text><text fill="#000000" font-family="sans-serif" font-size="12" font-weight="bold" lengthAdjust="spacing" textLength="77" x="440" y="397.7695">Poids &#233;chant.</text><text fill="#000000" font-family="sans-serif" font-size="12" font-weight="bold" lengthAdjust="spacing" textLength="89" x="519" y="397.7695">Nb indiv &#233;chant.</text><text fill="#000000" font-family="sans-serif" font-size="12" font-weight="bold" lengthAdjust="spacing" textLength="60" x="610" y="397.7695">Poids total</text><text fill="#000000" font-family="sans-serif" font-size="12" font-weight="bold" lengthAdjust="spacing" textLength="75" x="689" y="397.7695">Nb indiv. total</text><text fill="#000000" font-family="sans-serif" font-size="12" font-weight="bold" lengthAdjust="spacing" textLength="77" x="766" y="397.7695">Poids &#233;chant.</text><text fill="#000000" font-family="sans-serif" font-size="12" font-weight="bold" lengthAdjust="spacing" textLength="89" x="845" y="397.7695">Nb indiv &#233;chant.</text><text fill="#000000" font-family="sans-serif" font-size="12" lengthAdjust="spacing" textLength="7" x="7" y="414.8633">3</text><rect fill="#EEEEEE" height="18.0938" style="stroke:#000000;stroke-width:1.0;" width="223" x="50" y="402.4063"/><text fill="#000000" font-family="sans-serif" font-size="12" lengthAdjust="spacing" textLength="82" x="52" y="416.8633">MNZ- Baudroie</text><line style="stroke:#000000;stroke-width:1.0;" x1="262" x2="262" y1="402.4063" y2="420.5"/><polygon fill="#000000" points="265,408.4063,271,408.4063,268,415.5" style="stroke:#000000;stroke-width:1.0;"/><text fill="#000000" font-family="sans-serif" font-size="12" lengthAdjust="spacing" textLength="14" x="276" y="414.8633">50</text><text fill="#000000" font-family="sans-serif" font-size="12" lengthAdjust="spacing" textLength="14" x="440" y="414.8633">10</text><text fill="#000000" font-family="sans-serif" font-size="12" lengthAdjust="spacing" textLength="7" x="519" y="414.8633">4</text><text fill="#000000" font-family="sans-serif" font-size="12" lengthAdjust="spacing" textLength="14" x="610" y="414.8633">25</text><text fill="#000000" font-family="sans-serif" font-size="12" lengthAdjust="spacing" textLength="7" x="766" y="414.8633">5</text><text fill="#000000" font-family="sans-serif" font-size="12" lengthAdjust="spacing" textLength="13" x="845" y="414.8633">2 .</text><text fill="#000000" font-family="sans-serif" font-size="12" lengthAdjust="spacing" textLength="7" x="7" y="435.957">2</text><rect fill="#EEEEEE" height="18.0938" style="stroke:#000000;stroke-width:1.0;" width="223" x="50" y="423.5"/><text fill="#000000" font-family="sans-serif" font-size="12" lengthAdjust="spacing" textLength="82" x="52" y="437.957">MNZ- Baudroie</text><line style="stroke:#000000;stroke-width:1.0;" x1="262" x2="262" y1="423.5" y2="441.5938"/><polygon fill="#000000" points="265,429.5,271,429.5,268,436.5938" style="stroke:#000000;stroke-width:1.0;"/><text fill="#000000" font-family="sans-serif" font-size="12" lengthAdjust="spacing" textLength="14" x="276" y="435.957">50</text><text fill="#000000" font-family="sans-serif" font-size="12" lengthAdjust="spacing" textLength="14" x="440" y="435.957">10</text><text fill="#000000" font-family="sans-serif" font-size="12" lengthAdjust="spacing" textLength="7" x="519" y="435.957">4</text><text fill="#000000" font-family="sans-serif" font-size="12" lengthAdjust="spacing" textLength="14" x="610" y="435.957">25</text><text fill="#000000" font-family="sans-serif" font-size="12" lengthAdjust="spacing" textLength="7" x="766" y="435.957">5</text><text fill="#000000" font-family="sans-serif" font-size="12" lengthAdjust="spacing" textLength="13" x="845" y="435.957">2 .</text><text fill="#000000" font-family="sans-serif" font-size="12" lengthAdjust="spacing" textLength="7" x="7" y="457.0508">1</text><rect fill="#EEEEEE" height="18.0938" style="stroke:#000000;stroke-width:1.0;" width="223" x="50" y="444.5938"/><text fill="#000000" font-family="sans-serif" font-size="12" lengthAdjust="spacing" textLength="163" x="52" y="459.0508">NEP - Langoustine commune</text><line style="stroke:#000000;stroke-width:1.0;" x1="262" x2="262" y1="444.5938" y2="462.6875"/><polygon fill="#000000" points="265,450.5938,271,450.5938,268,457.6875" style="stroke:#000000;stroke-width:1.0;"/><text fill="#000000" font-family="sans-serif" font-size="12" lengthAdjust="spacing" textLength="14" x="276" y="457.0508">50</text><text fill="#000000" font-family="sans-serif" font-size="12" lengthAdjust="spacing" textLength="14" x="440" y="457.0508">10</text><text fill="#000000" font-family="sans-serif" font-size="12" lengthAdjust="spacing" textLength="7" x="519" y="457.0508">4</text><text fill="#000000" font-family="sans-serif" font-size="12" lengthAdjust="spacing" textLength="14" x="610" y="457.0508">25</text><text fill="#000000" font-family="sans-serif" font-size="12" lengthAdjust="spacing" textLength="7" x="766" y="457.0508">5</text><text fill="#000000" font-family="sans-serif" font-size="12" lengthAdjust="spacing" textLength="13" x="845" y="457.0508">2 .</text><line style="stroke:#000000;stroke-width:1.0;" x1="6" x2="49" y1="365.3125" y2="365.3125"/><line style="stroke:#000000;stroke-width:1.0;" x1="49" x2="275" y1="365.3125" y2="365.3125"/><line style="stroke:#000000;stroke-width:1.0;" x1="275" x2="362" y1="365.3125" y2="365.3125"/><line style="stroke:#000000;stroke-width:1.0;" x1="362" x2="439" y1="365.3125" y2="365.3125"/><line style="stroke:#000000;stroke-width:1.0;" x1="439" x2="518" y1="365.3125" y2="365.3125"/><line style="stroke:#000000;stroke-width:1.0;" x1="518" x2="609" y1="365.3125" y2="365.3125"/><line style="stroke:#000000;stroke-width:1.0;" x1="609" x2="688" y1="365.3125" y2="365.3125"/><line style="stroke:#000000;stroke-width:1.0;" x1="688" x2="765" y1="365.3125" y2="365.3125"/><line style="stroke:#000000;stroke-width:1.0;" x1="765" x2="844" y1="365.3125" y2="365.3125"/><line style="stroke:#000000;stroke-width:1.0;" x1="844" x2="935" y1="365.3125" y2="365.3125"/><line style="stroke:#000000;stroke-width:1.0;" x1="6" x2="49" y1="422.5" y2="422.5"/><line style="stroke:#000000;stroke-width:1.0;" x1="49" x2="275" y1="422.5" y2="422.5"/><line style="stroke:#000000;stroke-width:1.0;" x1="275" x2="362" y1="422.5" y2="422.5"/><line style="stroke:#000000;stroke-width:1.0;" x1="362" x2="439" y1="422.5" y2="422.5"/><line style="stroke:#000000;stroke-width:1.0;" x1="439" x2="518" y1="422.5" y2="422.5"/><line style="stroke:#000000;stroke-width:1.0;" x1="518" x2="609" y1="422.5" y2="422.5"/><line style="stroke:#000000;stroke-width:1.0;" x1="609" x2="688" y1="422.5" y2="422.5"/><line style="stroke:#000000;stroke-width:1.0;" x1="688" x2="765" y1="422.5" y2="422.5"/><line style="stroke:#000000;stroke-width:1.0;" x1="765" x2="844" y1="422.5" y2="422.5"/><line style="stroke:#000000;stroke-width:1.0;" x1="844" x2="935" y1="422.5" y2="422.5"/><line style="stroke:#000000;stroke-width:1.0;" x1="6" x2="49" y1="384.3125" y2="384.3125"/><line style="stroke:#000000;stroke-width:1.0;" x1="49" x2="275" y1="384.3125" y2="384.3125"/><line style="stroke:#000000;stroke-width:1.0;" x1="275" x2="362" y1="384.3125" y2="384.3125"/><line style="stroke:#000000;stroke-width:1.0;" x1="362" x2="439" y1="384.3125" y2="384.3125"/><line style="stroke:#000000;stroke-width:1.0;" x1="439" x2="518" y1="384.3125" y2="384.3125"/><line style="stroke:#000000;stroke-width:1.0;" x1="518" x2="609" y1="384.3125" y2="384.3125"/><line style="stroke:#000000;stroke-width:1.0;" x1="609" x2="688" y1="384.3125" y2="384.3125"/><line style="stroke:#000000;stroke-width:1.0;" x1="688" x2="765" y1="384.3125" y2="384.3125"/><line style="stroke:#000000;stroke-width:1.0;" x1="765" x2="844" y1="384.3125" y2="384.3125"/><line style="stroke:#000000;stroke-width:1.0;" x1="844" x2="935" y1="384.3125" y2="384.3125"/><line style="stroke:#000000;stroke-width:1.0;" x1="6" x2="49" y1="443.5938" y2="443.5938"/><line style="stroke:#000000;stroke-width:1.0;" x1="49" x2="275" y1="443.5938" y2="443.5938"/><line style="stroke:#000000;stroke-width:1.0;" x1="275" x2="362" y1="443.5938" y2="443.5938"/><line style="stroke:#000000;stroke-width:1.0;" x1="362" x2="439" y1="443.5938" y2="443.5938"/><line style="stroke:#000000;stroke-width:1.0;" x1="439" x2="518" y1="443.5938" y2="443.5938"/><line style="stroke:#000000;stroke-width:1.0;" x1="518" x2="609" y1="443.5938" y2="443.5938"/><line style="stroke:#000000;stroke-width:1.0;" x1="609" x2="688" y1="443.5938" y2="443.5938"/><line style="stroke:#000000;stroke-width:1.0;" x1="688" x2="765" y1="443.5938" y2="443.5938"/><line style="stroke:#000000;stroke-width:1.0;" x1="765" x2="844" y1="443.5938" y2="443.5938"/><line style="stroke:#000000;stroke-width:1.0;" x1="844" x2="935" y1="443.5938" y2="443.5938"/><line style="stroke:#000000;stroke-width:1.0;" x1="6" x2="49" y1="401.4063" y2="401.4063"/><line style="stroke:#000000;stroke-width:1.0;" x1="49" x2="275" y1="401.4063" y2="401.4063"/><line style="stroke:#000000;stroke-width:1.0;" x1="275" x2="362" y1="401.4063" y2="401.4063"/><line style="stroke:#000000;stroke-width:1.0;" x1="362" x2="439" y1="401.4063" y2="401.4063"/><line style="stroke:#000000;stroke-width:1.0;" x1="439" x2="518" y1="401.4063" y2="401.4063"/><line style="stroke:#000000;stroke-width:1.0;" x1="518" x2="609" y1="401.4063" y2="401.4063"/><line style="stroke:#000000;stroke-width:1.0;" x1="609" x2="688" y1="401.4063" y2="401.4063"/><line style="stroke:#000000;stroke-width:1.0;" x1="688" x2="765" y1="401.4063" y2="401.4063"/><line style="stroke:#000000;stroke-width:1.0;" x1="765" x2="844" y1="401.4063" y2="401.4063"/><line style="stroke:#000000;stroke-width:1.0;" x1="844" x2="935" y1="401.4063" y2="401.4063"/><line style="stroke:#000000;stroke-width:1.0;" x1="6" x2="49" y1="464.6875" y2="464.6875"/><line style="stroke:#000000;stroke-width:1.0;" x1="49" x2="275" y1="464.6875" y2="464.6875"/><line style="stroke:#000000;stroke-width:1.0;" x1="275" x2="362" y1="464.6875" y2="464.6875"/><line style="stroke:#000000;stroke-width:1.0;" x1="362" x2="439" y1="464.6875" y2="464.6875"/><line style="stroke:#000000;stroke-width:1.0;" x1="439" x2="518" y1="464.6875" y2="464.6875"/><line style="stroke:#000000;stroke-width:1.0;" x1="518" x2="609" y1="464.6875" y2="464.6875"/><line style="stroke:#000000;stroke-width:1.0;" x1="609" x2="688" y1="464.6875" y2="464.6875"/><line style="stroke:#000000;stroke-width:1.0;" x1="688" x2="765" y1="464.6875" y2="464.6875"/><line style="stroke:#000000;stroke-width:1.0;" x1="765" x2="844" y1="464.6875" y2="464.6875"/><line style="stroke:#000000;stroke-width:1.0;" x1="844" x2="935" y1="464.6875" y2="464.6875"/><line style="stroke:#000000;stroke-width:1.0;" x1="6" x2="6" y1="365.3125" y2="384.3125"/><line style="stroke:#000000;stroke-width:1.0;" x1="49" x2="49" y1="365.3125" y2="384.3125"/><line style="stroke:#000000;stroke-width:1.0;" x1="275" x2="275" y1="365.3125" y2="384.3125"/><line style="stroke:#000000;stroke-width:1.0;" x1="362" x2="362" y1="365.3125" y2="384.3125"/><line style="stroke:#000000;stroke-width:1.0;" x1="439" x2="439" y1="365.3125" y2="384.3125"/><line style="stroke:#000000;stroke-width:1.0;" x1="518" x2="518" y1="365.3125" y2="384.3125"/><line style="stroke:#000000;stroke-width:1.0;" x1="609" x2="609" y1="365.3125" y2="384.3125"/><line style="stroke:#000000;stroke-width:1.0;" x1="688" x2="688" y1="365.3125" y2="384.3125"/><line style="stroke:#000000;stroke-width:1.0;" x1="765" x2="765" y1="365.3125" y2="384.3125"/><line style="stroke:#000000;stroke-width:1.0;" x1="844" x2="844" y1="365.3125" y2="384.3125"/><line style="stroke:#000000;stroke-width:1.0;" x1="935" x2="935" y1="365.3125" y2="384.3125"/><line style="stroke:#000000;stroke-width:1.0;" x1="6" x2="6" y1="422.5" y2="443.5938"/><line style="stroke:#000000;stroke-width:1.0;" x1="49" x2="49" y1="422.5" y2="443.5938"/><line style="stroke:#000000;stroke-width:1.0;" x1="275" x2="275" y1="422.5" y2="443.5938"/><line style="stroke:#000000;stroke-width:1.0;" x1="362" x2="362" y1="422.5" y2="443.5938"/><line style="stroke:#000000;stroke-width:1.0;" x1="439" x2="439" y1="422.5" y2="443.5938"/><line style="stroke:#000000;stroke-width:1.0;" x1="518" x2="518" y1="422.5" y2="443.5938"/><line style="stroke:#000000;stroke-width:1.0;" x1="609" x2="609" y1="422.5" y2="443.5938"/><line style="stroke:#000000;stroke-width:1.0;" x1="688" x2="688" y1="422.5" y2="443.5938"/><line style="stroke:#000000;stroke-width:1.0;" x1="765" x2="765" y1="422.5" y2="443.5938"/><line style="stroke:#000000;stroke-width:1.0;" x1="844" x2="844" y1="422.5" y2="443.5938"/><line style="stroke:#000000;stroke-width:1.0;" x1="935" x2="935" y1="422.5" y2="443.5938"/><line style="stroke:#000000;stroke-width:1.0;" x1="6" x2="6" y1="384.3125" y2="401.4063"/><line style="stroke:#000000;stroke-width:1.0;" x1="49" x2="49" y1="384.3125" y2="401.4063"/><line style="stroke:#000000;stroke-width:1.0;" x1="275" x2="275" y1="384.3125" y2="401.4063"/><line style="stroke:#000000;stroke-width:1.0;" x1="362" x2="362" y1="384.3125" y2="401.4063"/><line style="stroke:#000000;stroke-width:1.0;" x1="439" x2="439" y1="384.3125" y2="401.4063"/><line style="stroke:#000000;stroke-width:1.0;" x1="518" x2="518" y1="384.3125" y2="401.4063"/><line style="stroke:#000000;stroke-width:1.0;" x1="609" x2="609" y1="384.3125" y2="401.4063"/><line style="stroke:#000000;stroke-width:1.0;" x1="688" x2="688" y1="384.3125" y2="401.4063"/><line style="stroke:#000000;stroke-width:1.0;" x1="765" x2="765" y1="384.3125" y2="401.4063"/><line style="stroke:#000000;stroke-width:1.0;" x1="844" x2="844" y1="384.3125" y2="401.4063"/><line style="stroke:#000000;stroke-width:1.0;" x1="935" x2="935" y1="384.3125" y2="401.4063"/><line style="stroke:#000000;stroke-width:1.0;" x1="6" x2="6" y1="443.5938" y2="464.6875"/><line style="stroke:#000000;stroke-width:1.0;" x1="49" x2="49" y1="443.5938" y2="464.6875"/><line style="stroke:#000000;stroke-width:1.0;" x1="275" x2="275" y1="443.5938" y2="464.6875"/><line style="stroke:#000000;stroke-width:1.0;" x1="362" x2="362" y1="443.5938" y2="464.6875"/><line style="stroke:#000000;stroke-width:1.0;" x1="439" x2="439" y1="443.5938" y2="464.6875"/><line style="stroke:#000000;stroke-width:1.0;" x1="518" x2="518" y1="443.5938" y2="464.6875"/><line style="stroke:#000000;stroke-width:1.0;" x1="609" x2="609" y1="443.5938" y2="464.6875"/><line style="stroke:#000000;stroke-width:1.0;" x1="688" x2="688" y1="443.5938" y2="464.6875"/><line style="stroke:#000000;stroke-width:1.0;" x1="765" x2="765" y1="443.5938" y2="464.6875"/><line style="stroke:#000000;stroke-width:1.0;" x1="844" x2="844" y1="443.5938" y2="464.6875"/><line style="stroke:#000000;stroke-width:1.0;" x1="935" x2="935" y1="443.5938" y2="464.6875"/><line style="stroke:#000000;stroke-width:1.0;" x1="6" x2="6" y1="401.4063" y2="422.5"/><line style="stroke:#000000;stroke-width:1.0;" x1="49" x2="49" y1="401.4063" y2="422.5"/><line style="stroke:#000000;stroke-width:1.0;" x1="275" x2="275" y1="401.4063" y2="422.5"/><line style="stroke:#000000;stroke-width:1.0;" x1="362" x2="362" y1="401.4063" y2="422.5"/><line style="stroke:#000000;stroke-width:1.0;" x1="439" x2="439" y1="401.4063" y2="422.5"/><line style="stroke:#000000;stroke-width:1.0;" x1="518" x2="518" y1="401.4063" y2="422.5"/><line style="stroke:#000000;stroke-width:1.0;" x1="609" x2="609" y1="401.4063" y2="422.5"/><line style="stroke:#000000;stroke-width:1.0;" x1="688" x2="688" y1="401.4063" y2="422.5"/><line style="stroke:#000000;stroke-width:1.0;" x1="765" x2="765" y1="401.4063" y2="422.5"/><line style="stroke:#000000;stroke-width:1.0;" x1="844" x2="844" y1="401.4063" y2="422.5"/><line style="stroke:#000000;stroke-width:1.0;" x1="935" x2="935" y1="401.4063" y2="422.5"/><line style="stroke:#AAAAAA;stroke-width:1.0;stroke-dasharray:1.0,2.0;" x1="6" x2="936" y1="470.1875" y2="470.1875"/><rect fill="#EEEEEE" height="19.0938" rx="5" ry="5" style="stroke:#000000;stroke-width:2.5;" width="60" x="9.5" y="478.1875"/><text fill="#000000" font-family="sans-serif" font-size="12" lengthAdjust="spacing" textLength="42" x="18.5" y="492.6445">Annuler</text><rect fill="#EEEEEE" height="19.0938" rx="5" ry="5" style="stroke:#000000;stroke-width:2.5;" width="92" x="76.5" y="478.1875"/><text fill="#000000" font-family="sans-serif" font-size="12" lengthAdjust="spacing" textLength="70" x="87.5" y="492.6445">Sauvegarder</text></g></svg>