<?xml version="1.0" encoding="UTF-8" standalone="no"?><svg xmlns="http://www.w3.org/2000/svg" xmlns:xlink="http://www.w3.org/1999/xlink" contentStyleType="text/css" height="294px" preserveAspectRatio="none" style="width:715px;height:294px;background:#FFFFFF;" version="1.1" viewBox="0 0 715 294" width="715px" zoomAndPan="magnify"><defs/><g><text fill="#000000" font-family="sans-serif" font-size="12" lengthAdjust="spacing" textLength="39" x="8" y="18.8281">Détails</text><line style="stroke:#000000;stroke-width:1.0;" x1="6" x2="6" y1="6" y2="22.3441"/><line style="stroke:#000000;stroke-width:1.0;" x1="6" x2="50" y1="6" y2="6"/><line style="stroke:#000000;stroke-width:1.0;" x1="50" x2="50" y1="6" y2="22.3441"/><line style="stroke:#000000;stroke-width:1.0;" x1="50" x2="60" y1="22.3441" y2="22.3441"/><text fill="#000000" font-family="sans-serif" font-size="12" font-weight="bold" lengthAdjust="spacing" textLength="94" x="65" y="18.8281">Capture Bâbord</text><line style="stroke:#000000;stroke-width:1.0;" x1="60" x2="60" y1="6" y2="22.3441"/><line style="stroke:#000000;stroke-width:1.0;" x1="60" x2="162" y1="6" y2="6"/><line style="stroke:#000000;stroke-width:1.0;" x1="162" x2="162" y1="6" y2="22.3441"/><line style="stroke:#000000;stroke-width:1.0;" x1="162" x2="172" y1="22.3441" y2="22.3441"/><text fill="#000000" font-family="sans-serif" font-size="12" font-weight="bold" lengthAdjust="spacing" textLength="95" x="177" y="18.8281">Capture Tribord</text><line style="stroke:#000000;stroke-width:1.0;" x1="172" x2="172" y1="6" y2="22.3441"/><line style="stroke:#000000;stroke-width:1.0;" x1="172" x2="275" y1="6" y2="6"/><line style="stroke:#000000;stroke-width:1.0;" x1="275" x2="275" y1="6" y2="22.3441"/><line style="stroke:#000000;stroke-width:1.0;" x1="275" x2="285" y1="22.3441" y2="22.3441"/><text fill="#000000" font-family="sans-serif" font-size="12" lengthAdjust="spacing" textLength="80" x="7" y="56.5163">Engin bâbord :</text><rect fill="#EEEEEE" height="19.3441" style="stroke:#000000;stroke-width:1.0;" width="175" x="144" y="44.6882"/><text fill="#000000" font-family="sans-serif" font-size="12" lengthAdjust="spacing" textLength="89" x="146" y="59.5163">Chalut standard</text><line style="stroke:#000000;stroke-width:1.0;" x1="308" x2="308" y1="44.6882" y2="64.0323"/><polygon fill="#000000" points="311,50.6882,317,50.6882,314,59.0323" style="stroke:#000000;stroke-width:1.0;"/><text fill="#000000" font-family="sans-serif" font-size="12" lengthAdjust="spacing" textLength="134" x="7" y="80.8604">Poids total capture (kg) :</text><text fill="#000000" font-family="sans-serif" font-size="12" lengthAdjust="spacing" textLength="3" x="146" y="80.8604"> </text><line style="stroke:#000000;stroke-width:1.0;" x1="144" x2="203" y1="84.3765" y2="84.3765"/><line style="stroke:#000000;stroke-width:1.0;" x1="144" x2="144" y1="81.3765" y2="83.3765"/><line style="stroke:#000000;stroke-width:1.0;" x1="203" x2="203" y1="81.3765" y2="83.3765"/><text fill="#000000" font-family="sans-serif" font-size="12" lengthAdjust="spacing" textLength="117" x="7" y="101.2045">Poids total rejet (kg) :</text><text fill="#000000" font-family="sans-serif" font-size="12" lengthAdjust="spacing" textLength="3" x="146" y="101.2045"> </text><line style="stroke:#000000;stroke-width:1.0;" x1="144" x2="203" y1="104.7206" y2="104.7206"/><line style="stroke:#000000;stroke-width:1.0;" x1="144" x2="144" y1="101.7206" y2="103.7206"/><line style="stroke:#000000;stroke-width:1.0;" x1="203" x2="203" y1="101.7206" y2="103.7206"/><text fill="#000000" font-family="sans-serif" font-size="12" font-weight="bold" lengthAdjust="spacing" textLength="86" x="11" y="122.5487">Partie retenue</text><line style="stroke:#000000;stroke-width:1.0;" x1="6" x2="6" y1="109.7206" y2="126.0647"/><line style="stroke:#000000;stroke-width:1.0;" x1="6" x2="100" y1="109.7206" y2="109.7206"/><line style="stroke:#000000;stroke-width:1.0;" x1="100" x2="100" y1="109.7206" y2="126.0647"/><line style="stroke:#000000;stroke-width:1.0;" x1="100" x2="110" y1="126.0647" y2="126.0647"/><text fill="#000000" font-family="sans-serif" font-size="12" lengthAdjust="spacing" textLength="76" x="112" y="122.5487">Partie rejetée</text><line style="stroke:#000000;stroke-width:1.0;" x1="110" x2="110" y1="109.7206" y2="126.0647"/><line style="stroke:#000000;stroke-width:1.0;" x1="110" x2="191" y1="109.7206" y2="109.7206"/><line style="stroke:#000000;stroke-width:1.0;" x1="191" x2="191" y1="109.7206" y2="126.0647"/><line style="stroke:#000000;stroke-width:1.0;" x1="191" x2="201" y1="126.0647" y2="126.0647"/><rect fill="#EEEEEE" height="12" rx="5" ry="5" style="stroke:#000000;stroke-width:2.5;" width="36" x="9.5" y="131.5647"/><path d="M26.5,133.5647 L26.5,136.5647 L23.5,136.5647 L23.5,138.5647 L26.5,138.5647 L26.5,141.5647 L28.5,141.5647 L28.5,138.5647 L31.5,138.5647 L31.5,136.5647 L28.5,136.5647 L28.5,133.5647 L26.5,133.5647 " fill="#000000" style="stroke:;stroke-width:0.0;stroke-dasharray:;"/><text fill="#000000" font-family="sans-serif" font-size="12" lengthAdjust="spacing" textLength="8" x="7" y="160.8928">#</text><text fill="#000000" font-family="sans-serif" font-size="12" font-weight="bold" lengthAdjust="spacing" textLength="121" x="50" y="160.8928">Espèce commerciale</text><text fill="#000000" font-family="sans-serif" font-size="12" font-weight="bold" lengthAdjust="spacing" textLength="58" x="276" y="160.8928">Catégorie</text><text fill="#000000" font-family="sans-serif" font-size="12" font-weight="bold" lengthAdjust="spacing" textLength="90" x="358" y="160.8928">Poids total (kg)</text><text fill="#000000" font-family="sans-serif" font-size="12" font-weight="bold" lengthAdjust="spacing" textLength="73" x="450" y="160.8928">Taux échant</text><text fill="#000000" font-family="sans-serif" font-size="12" font-weight="bold" lengthAdjust="spacing" textLength="80" x="525" y="160.8928">Poids échant.</text><text fill="#000000" font-family="sans-serif" font-size="12" font-weight="bold" lengthAdjust="spacing" textLength="99" x="607" y="160.8928">Nb indiv échant.</text><text fill="#000000" font-family="sans-serif" font-size="12" lengthAdjust="spacing" textLength="7" x="7" y="179.2369">4</text><rect fill="#EEEEEE" height="19.3441" style="stroke:#000000;stroke-width:1.0;" width="223" x="50" y="166.4088"/><text fill="#000000" font-family="sans-serif" font-size="12" lengthAdjust="spacing" textLength="85" x="52" y="181.2369">MNZ- Baudroie</text><line style="stroke:#000000;stroke-width:1.0;" x1="262" x2="262" y1="166.4088" y2="185.7529"/><polygon fill="#000000" points="265,172.4088,271,172.4088,268,180.7529" style="stroke:#000000;stroke-width:1.0;"/><rect fill="#EEEEEE" height="19.3441" style="stroke:#000000;stroke-width:1.0;" width="79" x="276" y="166.4088"/><text fill="#000000" font-family="sans-serif" font-size="12" lengthAdjust="spacing" textLength="14" x="278" y="181.2369">10</text><line style="stroke:#000000;stroke-width:1.0;" x1="344" x2="344" y1="166.4088" y2="185.7529"/><polygon fill="#000000" points="347,172.4088,353,172.4088,350,180.7529" style="stroke:#000000;stroke-width:1.0;"/><text fill="#000000" font-family="sans-serif" font-size="12" lengthAdjust="spacing" textLength="14" x="358" y="179.2369">50</text><text fill="#000000" font-family="sans-serif" font-size="12" lengthAdjust="spacing" textLength="14" x="525" y="179.2369">10</text><text fill="#000000" font-family="sans-serif" font-size="12" lengthAdjust="spacing" textLength="7" x="607" y="179.2369">4</text><text fill="#000000" font-family="sans-serif" font-size="12" lengthAdjust="spacing" textLength="7" x="7" y="201.581">3</text><rect fill="#EEEEEE" height="19.3441" style="stroke:#000000;stroke-width:1.0;" width="223" x="50" y="188.7529"/><text fill="#000000" font-family="sans-serif" font-size="12" lengthAdjust="spacing" textLength="85" x="52" y="203.581">MNZ- Baudroie</text><line style="stroke:#000000;stroke-width:1.0;" x1="262" x2="262" y1="188.7529" y2="208.097"/><polygon fill="#000000" points="265,194.7529,271,194.7529,268,203.097" style="stroke:#000000;stroke-width:1.0;"/><rect fill="#EEEEEE" height="19.3441" style="stroke:#000000;stroke-width:1.0;" width="79" x="276" y="188.7529"/><text fill="#000000" font-family="sans-serif" font-size="12" lengthAdjust="spacing" textLength="14" x="278" y="203.581">30</text><line style="stroke:#000000;stroke-width:1.0;" x1="344" x2="344" y1="188.7529" y2="208.097"/><polygon fill="#000000" points="347,194.7529,353,194.7529,350,203.097" style="stroke:#000000;stroke-width:1.0;"/><text fill="#000000" font-family="sans-serif" font-size="12" lengthAdjust="spacing" textLength="14" x="358" y="201.581">50</text><text fill="#000000" font-family="sans-serif" font-size="12" lengthAdjust="spacing" textLength="14" x="525" y="201.581">10</text><text fill="#000000" font-family="sans-serif" font-size="12" lengthAdjust="spacing" textLength="7" x="607" y="201.581">4</text><text fill="#000000" font-family="sans-serif" font-size="12" lengthAdjust="spacing" textLength="7" x="7" y="223.9251">2</text><rect fill="#EEEEEE" height="19.3441" style="stroke:#000000;stroke-width:1.0;" width="223" x="50" y="211.097"/><text fill="#000000" font-family="sans-serif" font-size="12" lengthAdjust="spacing" textLength="160" x="52" y="225.9251">NEP - Langoustine commune</text><line style="stroke:#000000;stroke-width:1.0;" x1="262" x2="262" y1="211.097" y2="230.4411"/><polygon fill="#000000" points="265,217.097,271,217.097,268,225.4411" style="stroke:#000000;stroke-width:1.0;"/><rect fill="#EEEEEE" height="19.3441" style="stroke:#000000;stroke-width:1.0;" width="79" x="276" y="211.097"/><text fill="#000000" font-family="sans-serif" font-size="12" lengthAdjust="spacing" textLength="32" x="278" y="225.9251">Petite</text><line style="stroke:#000000;stroke-width:1.0;" x1="344" x2="344" y1="211.097" y2="230.4411"/><polygon fill="#000000" points="347,217.097,353,217.097,350,225.4411" style="stroke:#000000;stroke-width:1.0;"/><text fill="#000000" font-family="sans-serif" font-size="12" lengthAdjust="spacing" textLength="14" x="358" y="223.9251">30</text><text fill="#000000" font-family="sans-serif" font-size="12" lengthAdjust="spacing" textLength="18" x="450" y="223.9251">1/3</text><text fill="#000000" font-family="sans-serif" font-size="12" font-style="italic" lengthAdjust="spacing" textLength="14" x="525" y="223.9251">10</text><text fill="#000000" font-family="sans-serif" font-size="12" lengthAdjust="spacing" textLength="7" x="607" y="223.9251">4</text><text fill="#000000" font-family="sans-serif" font-size="12" lengthAdjust="spacing" textLength="7" x="7" y="246.2692">1</text><rect fill="#EEEEEE" height="19.3441" style="stroke:#000000;stroke-width:1.0;" width="223" x="50" y="233.4411"/><text fill="#000000" font-family="sans-serif" font-size="12" lengthAdjust="spacing" textLength="57" x="52" y="248.2692">SOX - Sole</text><line style="stroke:#000000;stroke-width:1.0;" x1="262" x2="262" y1="233.4411" y2="252.7853"/><polygon fill="#000000" points="265,239.4411,271,239.4411,268,247.7853" style="stroke:#000000;stroke-width:1.0;"/><text fill="#000000" font-family="sans-serif" font-size="12" lengthAdjust="spacing" textLength="14" x="358" y="246.2692">50</text><text fill="#000000" font-family="sans-serif" font-size="12" lengthAdjust="spacing" textLength="14" x="525" y="246.2692">10</text><text fill="#000000" font-family="sans-serif" font-size="12" lengthAdjust="spacing" textLength="7" x="607" y="246.2692">4</text><line style="stroke:#000000;stroke-width:1.0;" x1="6" x2="49" y1="128.0647" y2="128.0647"/><line style="stroke:#000000;stroke-width:1.0;" x1="49" x2="275" y1="128.0647" y2="128.0647"/><line style="stroke:#000000;stroke-width:1.0;" x1="275" x2="357" y1="128.0647" y2="128.0647"/><line style="stroke:#000000;stroke-width:1.0;" x1="357" x2="449" y1="128.0647" y2="128.0647"/><line style="stroke:#000000;stroke-width:1.0;" x1="449" x2="524" y1="128.0647" y2="128.0647"/><line style="stroke:#000000;stroke-width:1.0;" x1="524" x2="606" y1="128.0647" y2="128.0647"/><line style="stroke:#000000;stroke-width:1.0;" x1="606" x2="707" y1="128.0647" y2="128.0647"/><line style="stroke:#000000;stroke-width:1.0;" x1="6" x2="49" y1="187.7529" y2="187.7529"/><line style="stroke:#000000;stroke-width:1.0;" x1="49" x2="275" y1="187.7529" y2="187.7529"/><line style="stroke:#000000;stroke-width:1.0;" x1="275" x2="357" y1="187.7529" y2="187.7529"/><line style="stroke:#000000;stroke-width:1.0;" x1="357" x2="449" y1="187.7529" y2="187.7529"/><line style="stroke:#000000;stroke-width:1.0;" x1="449" x2="524" y1="187.7529" y2="187.7529"/><line style="stroke:#000000;stroke-width:1.0;" x1="524" x2="606" y1="187.7529" y2="187.7529"/><line style="stroke:#000000;stroke-width:1.0;" x1="606" x2="707" y1="187.7529" y2="187.7529"/><line style="stroke:#000000;stroke-width:1.0;" x1="6" x2="49" y1="254.7853" y2="254.7853"/><line style="stroke:#000000;stroke-width:1.0;" x1="49" x2="275" y1="254.7853" y2="254.7853"/><line style="stroke:#000000;stroke-width:1.0;" x1="275" x2="357" y1="254.7853" y2="254.7853"/><line style="stroke:#000000;stroke-width:1.0;" x1="357" x2="449" y1="254.7853" y2="254.7853"/><line style="stroke:#000000;stroke-width:1.0;" x1="449" x2="524" y1="254.7853" y2="254.7853"/><line style="stroke:#000000;stroke-width:1.0;" x1="524" x2="606" y1="254.7853" y2="254.7853"/><line style="stroke:#000000;stroke-width:1.0;" x1="606" x2="707" y1="254.7853" y2="254.7853"/><line style="stroke:#000000;stroke-width:1.0;" x1="6" x2="49" y1="147.0647" y2="147.0647"/><line style="stroke:#000000;stroke-width:1.0;" x1="49" x2="275" y1="147.0647" y2="147.0647"/><line style="stroke:#000000;stroke-width:1.0;" x1="275" x2="357" y1="147.0647" y2="147.0647"/><line style="stroke:#000000;stroke-width:1.0;" x1="357" x2="449" y1="147.0647" y2="147.0647"/><line style="stroke:#000000;stroke-width:1.0;" x1="449" x2="524" y1="147.0647" y2="147.0647"/><line style="stroke:#000000;stroke-width:1.0;" x1="524" x2="606" y1="147.0647" y2="147.0647"/><line style="stroke:#000000;stroke-width:1.0;" x1="606" x2="707" y1="147.0647" y2="147.0647"/><line style="stroke:#000000;stroke-width:1.0;" x1="6" x2="49" y1="210.097" y2="210.097"/><line style="stroke:#000000;stroke-width:1.0;" x1="49" x2="275" y1="210.097" y2="210.097"/><line style="stroke:#000000;stroke-width:1.0;" x1="275" x2="357" y1="210.097" y2="210.097"/><line style="stroke:#000000;stroke-width:1.0;" x1="357" x2="449" y1="210.097" y2="210.097"/><line style="stroke:#000000;stroke-width:1.0;" x1="449" x2="524" y1="210.097" y2="210.097"/><line style="stroke:#000000;stroke-width:1.0;" x1="524" x2="606" y1="210.097" y2="210.097"/><line style="stroke:#000000;stroke-width:1.0;" x1="606" x2="707" y1="210.097" y2="210.097"/><line style="stroke:#000000;stroke-width:1.0;" x1="6" x2="49" y1="165.4088" y2="165.4088"/><line style="stroke:#000000;stroke-width:1.0;" x1="49" x2="275" y1="165.4088" y2="165.4088"/><line style="stroke:#000000;stroke-width:1.0;" x1="275" x2="357" y1="165.4088" y2="165.4088"/><line style="stroke:#000000;stroke-width:1.0;" x1="357" x2="449" y1="165.4088" y2="165.4088"/><line style="stroke:#000000;stroke-width:1.0;" x1="449" x2="524" y1="165.4088" y2="165.4088"/><line style="stroke:#000000;stroke-width:1.0;" x1="524" x2="606" y1="165.4088" y2="165.4088"/><line style="stroke:#000000;stroke-width:1.0;" x1="606" x2="707" y1="165.4088" y2="165.4088"/><line style="stroke:#000000;stroke-width:1.0;" x1="6" x2="49" y1="232.4411" y2="232.4411"/><line style="stroke:#000000;stroke-width:1.0;" x1="49" x2="275" y1="232.4411" y2="232.4411"/><line style="stroke:#000000;stroke-width:1.0;" x1="275" x2="357" y1="232.4411" y2="232.4411"/><line style="stroke:#000000;stroke-width:1.0;" x1="357" x2="449" y1="232.4411" y2="232.4411"/><line style="stroke:#000000;stroke-width:1.0;" x1="449" x2="524" y1="232.4411" y2="232.4411"/><line style="stroke:#000000;stroke-width:1.0;" x1="524" x2="606" y1="232.4411" y2="232.4411"/><line style="stroke:#000000;stroke-width:1.0;" x1="606" x2="707" y1="232.4411" y2="232.4411"/><line style="stroke:#000000;stroke-width:1.0;" x1="6" x2="6" y1="128.0647" y2="147.0647"/><line style="stroke:#000000;stroke-width:1.0;" x1="449" x2="449" y1="210.097" y2="232.4411"/><line style="stroke:#000000;stroke-width:1.0;" x1="49" x2="49" y1="128.0647" y2="147.0647"/><line style="stroke:#000000;stroke-width:1.0;" x1="524" x2="524" y1="210.097" y2="232.4411"/><line style="stroke:#000000;stroke-width:1.0;" x1="275" x2="275" y1="128.0647" y2="147.0647"/><line style="stroke:#000000;stroke-width:1.0;" x1="606" x2="606" y1="210.097" y2="232.4411"/><line style="stroke:#000000;stroke-width:1.0;" x1="707" x2="707" y1="210.097" y2="232.4411"/><line style="stroke:#000000;stroke-width:1.0;" x1="357" x2="357" y1="128.0647" y2="147.0647"/><line style="stroke:#000000;stroke-width:1.0;" x1="449" x2="449" y1="128.0647" y2="147.0647"/><line style="stroke:#000000;stroke-width:1.0;" x1="524" x2="524" y1="128.0647" y2="147.0647"/><line style="stroke:#000000;stroke-width:1.0;" x1="606" x2="606" y1="128.0647" y2="147.0647"/><line style="stroke:#000000;stroke-width:1.0;" x1="707" x2="707" y1="128.0647" y2="147.0647"/><line style="stroke:#000000;stroke-width:1.0;" x1="6" x2="6" y1="187.7529" y2="210.097"/><line style="stroke:#000000;stroke-width:1.0;" x1="49" x2="49" y1="187.7529" y2="210.097"/><line style="stroke:#000000;stroke-width:1.0;" x1="275" x2="275" y1="187.7529" y2="210.097"/><line style="stroke:#000000;stroke-width:1.0;" x1="357" x2="357" y1="187.7529" y2="210.097"/><line style="stroke:#000000;stroke-width:1.0;" x1="449" x2="449" y1="187.7529" y2="210.097"/><line style="stroke:#000000;stroke-width:1.0;" x1="524" x2="524" y1="187.7529" y2="210.097"/><line style="stroke:#000000;stroke-width:1.0;" x1="606" x2="606" y1="187.7529" y2="210.097"/><line style="stroke:#000000;stroke-width:1.0;" x1="707" x2="707" y1="187.7529" y2="210.097"/><line style="stroke:#000000;stroke-width:1.0;" x1="6" x2="6" y1="165.4088" y2="187.7529"/><line style="stroke:#000000;stroke-width:1.0;" x1="49" x2="49" y1="165.4088" y2="187.7529"/><line style="stroke:#000000;stroke-width:1.0;" x1="275" x2="275" y1="165.4088" y2="187.7529"/><line style="stroke:#000000;stroke-width:1.0;" x1="357" x2="357" y1="165.4088" y2="187.7529"/><line style="stroke:#000000;stroke-width:1.0;" x1="449" x2="449" y1="165.4088" y2="187.7529"/><line style="stroke:#000000;stroke-width:1.0;" x1="524" x2="524" y1="165.4088" y2="187.7529"/><line style="stroke:#000000;stroke-width:1.0;" x1="606" x2="606" y1="165.4088" y2="187.7529"/><line style="stroke:#000000;stroke-width:1.0;" x1="707" x2="707" y1="165.4088" y2="187.7529"/><line style="stroke:#000000;stroke-width:1.0;" x1="6" x2="6" y1="232.4411" y2="254.7853"/><line style="stroke:#000000;stroke-width:1.0;" x1="49" x2="49" y1="232.4411" y2="254.7853"/><line style="stroke:#000000;stroke-width:1.0;" x1="275" x2="275" y1="232.4411" y2="254.7853"/><line style="stroke:#000000;stroke-width:1.0;" x1="357" x2="357" y1="232.4411" y2="254.7853"/><line style="stroke:#000000;stroke-width:1.0;" x1="6" x2="6" y1="147.0647" y2="165.4088"/><line style="stroke:#000000;stroke-width:1.0;" x1="449" x2="449" y1="232.4411" y2="254.7853"/><line style="stroke:#000000;stroke-width:1.0;" x1="49" x2="49" y1="147.0647" y2="165.4088"/><line style="stroke:#000000;stroke-width:1.0;" x1="524" x2="524" y1="232.4411" y2="254.7853"/><line style="stroke:#000000;stroke-width:1.0;" x1="275" x2="275" y1="147.0647" y2="165.4088"/><line style="stroke:#000000;stroke-width:1.0;" x1="606" x2="606" y1="232.4411" y2="254.7853"/><line style="stroke:#000000;stroke-width:1.0;" x1="707" x2="707" y1="232.4411" y2="254.7853"/><line style="stroke:#000000;stroke-width:1.0;" x1="357" x2="357" y1="147.0647" y2="165.4088"/><line style="stroke:#000000;stroke-width:1.0;" x1="449" x2="449" y1="147.0647" y2="165.4088"/><line style="stroke:#000000;stroke-width:1.0;" x1="524" x2="524" y1="147.0647" y2="165.4088"/><line style="stroke:#000000;stroke-width:1.0;" x1="606" x2="606" y1="147.0647" y2="165.4088"/><line style="stroke:#000000;stroke-width:1.0;" x1="707" x2="707" y1="147.0647" y2="165.4088"/><line style="stroke:#000000;stroke-width:1.0;" x1="6" x2="6" y1="210.097" y2="232.4411"/><line style="stroke:#000000;stroke-width:1.0;" x1="49" x2="49" y1="210.097" y2="232.4411"/><line style="stroke:#000000;stroke-width:1.0;" x1="275" x2="275" y1="210.097" y2="232.4411"/><line style="stroke:#000000;stroke-width:1.0;" x1="357" x2="357" y1="210.097" y2="232.4411"/><line style="stroke:#AAAAAA;stroke-width:1.0;" x1="6" x2="708" y1="260.2853" y2="260.2853"/><rect fill="#EEEEEE" height="20.3441" rx="5" ry="5" style="stroke:#000000;stroke-width:2.5;" width="60" x="9.5" y="268.2853"/><text fill="#000000" font-family="sans-serif" font-size="12" lengthAdjust="spacing" textLength="44" x="17.5" y="283.1133">Annuler</text><rect fill="#EEEEEE" height="20.3441" rx="5" ry="5" style="stroke:#000000;stroke-width:2.5;" width="92" x="76.5" y="268.2853"/><text fill="#000000" font-family="sans-serif" font-size="12" lengthAdjust="spacing" textLength="72" x="86.5" y="283.1133">Sauvegarder</text></g></svg>