<?xml version="1.0" encoding="us-ascii" standalone="no"?><svg xmlns="http://www.w3.org/2000/svg" xmlns:xlink="http://www.w3.org/1999/xlink" contentStyleType="text/css" height="176px" preserveAspectRatio="none" style="width:568px;height:176px;background:#FFFFFF;" version="1.1" viewBox="0 0 568 176" width="568px" zoomAndPan="magnify"><defs/><g><rect fill="#EEEEEE" height="17.9688" rx="5" ry="5" style="stroke:#000000;stroke-width:2.5;" width="108" x="9.5" y="9.5"/><text fill="#000000" font-family="sans-serif" font-size="12" lengthAdjust="spacing" textLength="84" x="21.5" y="22.6387">Rechercher...</text><line style="stroke:#AAAAAA;stroke-width:1.0;stroke-dasharray:1.0,2.0;" x1="6" x2="561" y1="36.4688" y2="36.4688"/><text fill="#000000" font-family="sans-serif" font-size="12" font-weight="bold" lengthAdjust="spacing" textLength="50" x="13" y="53.1074">D&#233;tails</text><line style="stroke:#000000;stroke-width:1.0;" x1="7" x2="7" y1="41.9688" y2="55.9375"/><line style="stroke:#000000;stroke-width:1.0;" x1="7" x2="66" y1="41.9688" y2="41.9688"/><line style="stroke:#000000;stroke-width:1.0;" x1="66" x2="66" y1="41.9688" y2="55.9375"/><line style="stroke:#000000;stroke-width:1.0;" x1="66" x2="76" y1="55.9375" y2="55.9375"/><text fill="#000000" font-family="sans-serif" font-size="12" lengthAdjust="spacing" textLength="77" x="78" y="53.1074">Sous-engins</text><line style="stroke:#000000;stroke-width:1.0;" x1="76" x2="76" y1="41.9688" y2="55.9375"/><line style="stroke:#000000;stroke-width:1.0;" x1="76" x2="158" y1="41.9688" y2="41.9688"/><line style="stroke:#000000;stroke-width:1.0;" x1="158" x2="158" y1="41.9688" y2="55.9375"/><line style="stroke:#000000;stroke-width:1.0;" x1="158" x2="168" y1="55.9375" y2="55.9375"/><text fill="#000000" font-family="sans-serif" font-size="12" lengthAdjust="spacing" textLength="43" x="7" y="71.0762">Engin :</text><rect fill="#EEEEEE" height="16.9688" style="stroke:#000000;stroke-width:1.0;" width="287" x="57" y="60.9375"/><text fill="#000000" font-family="sans-serif" font-size="12" lengthAdjust="spacing" textLength="216" x="59" y="74.0762">OTT - Chaluts jumeaux &#224; panneaux</text><line style="stroke:#000000;stroke-width:1.0;" x1="333" x2="333" y1="60.9375" y2="77.9063"/><polygon fill="#000000" points="336,66.9375,342,66.9375,339,72.9063" style="stroke:#000000;stroke-width:1.0;"/><text fill="#000000" font-family="sans-serif" font-size="12" lengthAdjust="spacing" textLength="47" x="7" y="93.0449">Libell&#233; :</text><text fill="#000000" font-family="sans-serif" font-size="12" lengthAdjust="spacing" textLength="4" x="60" y="94.0449">&#160;</text><line style="stroke:#000000;stroke-width:1.0;" x1="58" x2="245" y1="96.875" y2="96.875"/><line style="stroke:#000000;stroke-width:1.0;" x1="58" x2="58" y1="93.875" y2="95.875"/><line style="stroke:#000000;stroke-width:1.0;" x1="245" x2="245" y1="93.875" y2="95.875"/><text fill="#000000" font-family="sans-serif" font-size="12" font-weight="bold" lengthAdjust="spacing" textLength="103" x="7" y="115.0137">Commentaire :</text><text fill="#000000" font-family="sans-serif" font-size="12" lengthAdjust="spacing" textLength="4" x="11" y="131.9824">&#160;</text><line style="stroke:#000000;stroke-width:1.0;" x1="9" x2="556" y1="134.8125" y2="134.8125"/><line style="stroke:#000000;stroke-width:1.0;" x1="9" x2="9" y1="131.8125" y2="133.8125"/><line style="stroke:#000000;stroke-width:1.0;" x1="556" x2="556" y1="131.8125" y2="133.8125"/><line style="stroke:#AAAAAA;stroke-width:1.0;" x1="6" x2="561" y1="144.3125" y2="144.3125"/><rect fill="#EEEEEE" height="17.9688" rx="5" ry="5" style="stroke:#000000;stroke-width:2.5;" width="60" x="9.5" y="152.3125"/><text fill="#000000" font-family="sans-serif" font-size="12" lengthAdjust="spacing" textLength="48" x="15.5" y="165.4512">Annuler</text><rect fill="#EEEEEE" height="17.9688" rx="5" ry="5" style="stroke:#000000;stroke-width:2.5;" width="60" x="76.5" y="152.3125"/><text fill="#000000" font-family="sans-serif" font-size="12" lengthAdjust="spacing" textLength="43" x="85" y="165.4512">Valider</text></g></svg>