<?xml version="1.0" encoding="UTF-8" standalone="no"?><!--
  - #%L
  - SUMARiS
  - %%
  - Copyright (C) 2019 SUMARiS Consortium
  - %%
  - This program is free software: you can redistribute it and/or modify
  - it under the terms of the GNU General Public License as
  - published by the Free Software Foundation, either version 3 of the
  - License, or (at your option) any later version.
  -
  - This program is distributed in the hope that it will be useful,
  - but WITHOUT ANY WARRANTY; without even the implied warranty of
  - MERCHANTABILITY or FITNESS FOR A PARTICULAR PURPOSE.  See the
  - GNU General Public License for more details.
  -
  - You should have received a copy of the GNU General Public
  - License along with this program.  If not, see
  - <http://www.gnu.org/licenses/gpl-3.0.html>.
  - #L%
  -->

<svg xmlns="http://www.w3.org/2000/svg" xmlns:xlink="http://www.w3.org/1999/xlink" contentStyleType="text/css" height="179px" preserveAspectRatio="none" style="width:361px;height:179px;background:#FFFFFF;" version="1.1" viewBox="0 0 361 179" width="361px" zoomAndPan="magnify"><defs/><g><rect fill="#EEEEEE" height="17.9688" rx="5" ry="5" style="stroke:#000000;stroke-width:2.5;" width="108" x="9.5" y="9.5"/><text fill="#000000" font-family="sans-serif" font-size="12" lengthAdjust="spacing" textLength="84" x="21.5" y="22.6387">Rechercher...</text><line style="stroke:#AAAAAA;stroke-width:1.0;stroke-dasharray:1.0,2.0;" x1="6" x2="354" y1="36.4688" y2="36.4688"/><text fill="#000000" font-family="sans-serif" font-size="12" lengthAdjust="spacing" textLength="43" x="9" y="53.1074">Détails</text><line style="stroke:#000000;stroke-width:1.0;" x1="7" x2="7" y1="41.9688" y2="55.9375"/><line style="stroke:#000000;stroke-width:1.0;" x1="7" x2="55" y1="41.9688" y2="41.9688"/><line style="stroke:#000000;stroke-width:1.0;" x1="55" x2="55" y1="41.9688" y2="55.9375"/><line style="stroke:#000000;stroke-width:1.0;" x1="55" x2="65" y1="55.9375" y2="55.9375"/><text fill="#000000" font-family="sans-serif" font-size="12" font-weight="bold" lengthAdjust="spacing" textLength="88" x="71" y="53.1074">Sous-engins</text><line style="stroke:#000000;stroke-width:1.0;" x1="65" x2="65" y1="41.9688" y2="55.9375"/><line style="stroke:#000000;stroke-width:1.0;" x1="65" x2="162" y1="41.9688" y2="41.9688"/><line style="stroke:#000000;stroke-width:1.0;" x1="162" x2="162" y1="41.9688" y2="55.9375"/><line style="stroke:#000000;stroke-width:1.0;" x1="162" x2="172" y1="55.9375" y2="55.9375"/><rect fill="#EEEEEE" height="12" rx="5" ry="5" style="stroke:#000000;stroke-width:2.5;" width="36" x="9.5" y="62.4375"/><path d="M26.5,64.4375 L26.5,67.4375 L23.5,67.4375 L23.5,69.4375 L26.5,69.4375 L26.5,72.4375 L28.5,72.4375 L28.5,69.4375 L31.5,69.4375 L31.5,67.4375 L28.5,67.4375 L28.5,64.4375 L26.5,64.4375 " fill="#000000" style="stroke:;stroke-width:0.0;stroke-dasharray:;"/><text fill="#000000" font-family="sans-serif" font-size="12" lengthAdjust="spacing" textLength="10" x="7" y="90.0762">#</text><text fill="#000000" font-family="sans-serif" font-size="12" font-weight="bold" lengthAdjust="spacing" textLength="91" x="50" y="90.0762">Libellé engin</text><text fill="#000000" font-family="sans-serif" font-size="12" font-weight="bold" lengthAdjust="spacing" textLength="60" x="292" y="90.0762">Maillage</text><text fill="#000000" font-family="sans-serif" font-size="12" lengthAdjust="spacing" textLength="8" x="7" y="106.0449">1</text><text fill="#000000" font-family="sans-serif" font-size="12" lengthAdjust="spacing" textLength="101" x="50" y="106.0449">Chalut standard</text><text fill="#000000" font-family="sans-serif" font-size="12" lengthAdjust="spacing" textLength="8" x="7" y="122.0137">2</text><text fill="#000000" font-family="sans-serif" font-size="12" lengthAdjust="spacing" textLength="240" x="50" y="122.0137">Chalut sélectif panneaux maille carrée</text><text fill="#000000" font-family="sans-serif" font-size="12" lengthAdjust="spacing" textLength="8" x="7" y="137.9824">3</text><text fill="#000000" font-family="sans-serif" font-size="12" lengthAdjust="spacing" textLength="116" x="50" y="137.9824">Chalut sélectif T90</text><line style="stroke:#000000;stroke-width:1.0;" x1="6" x2="49" y1="58.9375" y2="58.9375"/><line style="stroke:#000000;stroke-width:1.0;" x1="291" x2="353" y1="93.9063" y2="93.9063"/><line style="stroke:#000000;stroke-width:1.0;" x1="49" x2="291" y1="58.9375" y2="58.9375"/><line style="stroke:#000000;stroke-width:1.0;" x1="291" x2="353" y1="58.9375" y2="58.9375"/><line style="stroke:#000000;stroke-width:1.0;" x1="6" x2="49" y1="141.8125" y2="141.8125"/><line style="stroke:#000000;stroke-width:1.0;" x1="49" x2="291" y1="141.8125" y2="141.8125"/><line style="stroke:#000000;stroke-width:1.0;" x1="291" x2="353" y1="141.8125" y2="141.8125"/><line style="stroke:#000000;stroke-width:1.0;" x1="6" x2="49" y1="109.875" y2="109.875"/><line style="stroke:#000000;stroke-width:1.0;" x1="49" x2="291" y1="109.875" y2="109.875"/><line style="stroke:#000000;stroke-width:1.0;" x1="6" x2="49" y1="77.9375" y2="77.9375"/><line style="stroke:#000000;stroke-width:1.0;" x1="291" x2="353" y1="109.875" y2="109.875"/><line style="stroke:#000000;stroke-width:1.0;" x1="49" x2="291" y1="77.9375" y2="77.9375"/><line style="stroke:#000000;stroke-width:1.0;" x1="291" x2="353" y1="77.9375" y2="77.9375"/><line style="stroke:#000000;stroke-width:1.0;" x1="6" x2="49" y1="125.8438" y2="125.8438"/><line style="stroke:#000000;stroke-width:1.0;" x1="49" x2="291" y1="125.8438" y2="125.8438"/><line style="stroke:#000000;stroke-width:1.0;" x1="6" x2="49" y1="93.9063" y2="93.9063"/><line style="stroke:#000000;stroke-width:1.0;" x1="291" x2="353" y1="125.8438" y2="125.8438"/><line style="stroke:#000000;stroke-width:1.0;" x1="49" x2="291" y1="93.9063" y2="93.9063"/><line style="stroke:#000000;stroke-width:1.0;" x1="6" x2="6" y1="58.9375" y2="77.9375"/><line style="stroke:#000000;stroke-width:1.0;" x1="291" x2="291" y1="93.9063" y2="109.875"/><line style="stroke:#000000;stroke-width:1.0;" x1="353" x2="353" y1="93.9063" y2="109.875"/><line style="stroke:#000000;stroke-width:1.0;" x1="49" x2="49" y1="58.9375" y2="77.9375"/><line style="stroke:#000000;stroke-width:1.0;" x1="291" x2="291" y1="58.9375" y2="77.9375"/><line style="stroke:#000000;stroke-width:1.0;" x1="353" x2="353" y1="58.9375" y2="77.9375"/><line style="stroke:#000000;stroke-width:1.0;" x1="6" x2="6" y1="109.875" y2="125.8438"/><line style="stroke:#000000;stroke-width:1.0;" x1="49" x2="49" y1="109.875" y2="125.8438"/><line style="stroke:#000000;stroke-width:1.0;" x1="6" x2="6" y1="77.9375" y2="93.9063"/><line style="stroke:#000000;stroke-width:1.0;" x1="291" x2="291" y1="109.875" y2="125.8438"/><line style="stroke:#000000;stroke-width:1.0;" x1="353" x2="353" y1="109.875" y2="125.8438"/><line style="stroke:#000000;stroke-width:1.0;" x1="49" x2="49" y1="77.9375" y2="93.9063"/><line style="stroke:#000000;stroke-width:1.0;" x1="291" x2="291" y1="77.9375" y2="93.9063"/><line style="stroke:#000000;stroke-width:1.0;" x1="353" x2="353" y1="77.9375" y2="93.9063"/><line style="stroke:#000000;stroke-width:1.0;" x1="6" x2="6" y1="125.8438" y2="141.8125"/><line style="stroke:#000000;stroke-width:1.0;" x1="49" x2="49" y1="125.8438" y2="141.8125"/><line style="stroke:#000000;stroke-width:1.0;" x1="6" x2="6" y1="93.9063" y2="109.875"/><line style="stroke:#000000;stroke-width:1.0;" x1="291" x2="291" y1="125.8438" y2="141.8125"/><line style="stroke:#000000;stroke-width:1.0;" x1="353" x2="353" y1="125.8438" y2="141.8125"/><line style="stroke:#000000;stroke-width:1.0;" x1="49" x2="49" y1="93.9063" y2="109.875"/><line style="stroke:#AAAAAA;stroke-width:1.0;" x1="6" x2="354" y1="147.3125" y2="147.3125"/><rect fill="#EEEEEE" height="17.9688" rx="5" ry="5" style="stroke:#000000;stroke-width:2.5;" width="60" x="9.5" y="155.3125"/><text fill="#000000" font-family="sans-serif" font-size="12" lengthAdjust="spacing" textLength="48" x="15.5" y="168.4512">Annuler</text><rect fill="#EEEEEE" height="17.9688" rx="5" ry="5" style="stroke:#000000;stroke-width:2.5;" width="60" x="76.5" y="155.3125"/><text fill="#000000" font-family="sans-serif" font-size="12" lengthAdjust="spacing" textLength="43" x="85" y="168.4512">Valider</text></g></svg>