<?xml version="1.0" encoding="UTF-8" standalone="no"?><svg xmlns="http://www.w3.org/2000/svg" xmlns:xlink="http://www.w3.org/1999/xlink" contentStyleType="text/css" height="192px" preserveAspectRatio="none" style="width:568px;height:192px;background:#FFFFFF;" version="1.1" viewBox="0 0 568 192" width="568px" zoomAndPan="magnify"><defs/><g><rect fill="#EEEEEE" height="20.3441" rx="5" ry="5" style="stroke:#000000;stroke-width:2.5;" width="108" x="9.5" y="9.5"/><text fill="#000000" font-family="sans-serif" font-size="12" lengthAdjust="spacing" textLength="73" x="27" y="24.3281">Rechercher...</text><line style="stroke:#AAAAAA;stroke-width:1.0;stroke-dasharray:1.0,2.0;" x1="6" x2="561" y1="38.8441" y2="38.8441"/><text fill="#000000" font-family="sans-serif" font-size="12" font-weight="bold" lengthAdjust="spacing" textLength="42" x="12" y="57.1722">Détails</text><line style="stroke:#000000;stroke-width:1.0;" x1="7" x2="7" y1="44.3441" y2="60.6882"/><line style="stroke:#000000;stroke-width:1.0;" x1="7" x2="57" y1="44.3441" y2="44.3441"/><line style="stroke:#000000;stroke-width:1.0;" x1="57" x2="57" y1="44.3441" y2="60.6882"/><line style="stroke:#000000;stroke-width:1.0;" x1="57" x2="67" y1="60.6882" y2="60.6882"/><text fill="#000000" font-family="sans-serif" font-size="12" lengthAdjust="spacing" textLength="68" x="69" y="57.1722">Sous-engins</text><line style="stroke:#000000;stroke-width:1.0;" x1="67" x2="67" y1="44.3441" y2="60.6882"/><line style="stroke:#000000;stroke-width:1.0;" x1="67" x2="140" y1="44.3441" y2="44.3441"/><line style="stroke:#000000;stroke-width:1.0;" x1="140" x2="140" y1="44.3441" y2="60.6882"/><line style="stroke:#000000;stroke-width:1.0;" x1="140" x2="150" y1="60.6882" y2="60.6882"/><text fill="#000000" font-family="sans-serif" font-size="12" lengthAdjust="spacing" textLength="37" x="7" y="77.5163">Engin :</text><rect fill="#EEEEEE" height="19.3441" style="stroke:#000000;stroke-width:1.0;" width="287" x="52" y="65.6882"/><text fill="#000000" font-family="sans-serif" font-size="12" lengthAdjust="spacing" textLength="194" x="54" y="80.5163">OTT - Chaluts jumeaux à panneaux</text><line style="stroke:#000000;stroke-width:1.0;" x1="328" x2="328" y1="65.6882" y2="85.0323"/><polygon fill="#000000" points="331,71.6882,337,71.6882,334,80.0323" style="stroke:#000000;stroke-width:1.0;"/><text fill="#000000" font-family="sans-serif" font-size="12" lengthAdjust="spacing" textLength="42" x="7" y="101.8604">Libellé :</text><text fill="#000000" font-family="sans-serif" font-size="12" lengthAdjust="spacing" textLength="3" x="55" y="102.8604"> </text><line style="stroke:#000000;stroke-width:1.0;" x1="53" x2="240" y1="106.3765" y2="106.3765"/><line style="stroke:#000000;stroke-width:1.0;" x1="53" x2="53" y1="103.3765" y2="105.3765"/><line style="stroke:#000000;stroke-width:1.0;" x1="240" x2="240" y1="103.3765" y2="105.3765"/><text fill="#000000" font-family="sans-serif" font-size="12" font-weight="bold" lengthAdjust="spacing" textLength="88" x="7" y="126.2045">Commentaire :</text><text fill="#000000" font-family="sans-serif" font-size="12" lengthAdjust="spacing" textLength="3" x="11" y="145.5487"> </text><line style="stroke:#000000;stroke-width:1.0;" x1="9" x2="556" y1="149.0647" y2="149.0647"/><line style="stroke:#000000;stroke-width:1.0;" x1="9" x2="9" y1="146.0647" y2="148.0647"/><line style="stroke:#000000;stroke-width:1.0;" x1="556" x2="556" y1="146.0647" y2="148.0647"/><line style="stroke:#AAAAAA;stroke-width:1.0;" x1="6" x2="561" y1="158.5647" y2="158.5647"/><rect fill="#EEEEEE" height="20.3441" rx="5" ry="5" style="stroke:#000000;stroke-width:2.5;" width="60" x="9.5" y="166.5647"/><text fill="#000000" font-family="sans-serif" font-size="12" lengthAdjust="spacing" textLength="44" x="17.5" y="181.3928">Annuler</text><rect fill="#EEEEEE" height="20.3441" rx="5" ry="5" style="stroke:#000000;stroke-width:2.5;" width="60" x="76.5" y="166.5647"/><text fill="#000000" font-family="sans-serif" font-size="12" lengthAdjust="spacing" textLength="39" x="87" y="181.3928">Valider</text></g></svg>