<?xml version="1.0" encoding="UTF-8" standalone="no"?><svg xmlns="http://www.w3.org/2000/svg" xmlns:xlink="http://www.w3.org/1999/xlink" contentStyleType="text/css" height="191px" preserveAspectRatio="none" style="width:606px;height:191px;background:#FFFFFF;" version="1.1" viewBox="0 0 606 191" width="606px" zoomAndPan="magnify"><defs/><g><rect fill="#EEEEEE" height="12" rx="5" ry="5" style="stroke:#000000;stroke-width:2.5;" width="36" x="9.5" y="9.5"/><path d="M26.5,11.5 L23.5,14.03 L26.5,16.5 L26.5,14.5 L31.5,14.5 L31.5,13.5 L26.5,13.5 L26.5,11.5 " fill="#000000" style="stroke:;stroke-width:0.0;stroke-dasharray:;"/><text fill="#000000" font-family="sans-serif" font-size="12" font-weight="bold" lengthAdjust="spacing" textLength="352" x="50" y="19.8281">Partie retenue - Lot MNZ - Baudroie - Mesures individuelles</text><rect fill="#EEEEEE" height="12" rx="5" ry="5" style="stroke:#000000;stroke-width:2.5;" width="20" x="406.5" y="9.5"/><path d="M418.91,11.5 L418.22,12.22 L415.44,15 L414.63,14.22 L413.91,13.5 L412.5,14.91 L413.22,15.63 L414.72,17.13 L415.41,17.85 L416.13,17.13 L419.63,13.63 L420.35,12.91 L418.91,11.5 " fill="#000000" style="stroke:;stroke-width:0.0;stroke-dasharray:;"/><line style="stroke:#AAAAAA;stroke-width:1.0;" x1="6" x2="599" y1="30.5" y2="30.5"/><text fill="#000000" font-family="sans-serif" font-size="12" lengthAdjust="spacing" textLength="8" x="8" y="49.8281">#</text><text fill="#000000" font-family="sans-serif" font-size="12" font-weight="bold" lengthAdjust="spacing" textLength="121" x="18" y="49.8281">Espèce commerciale</text><text fill="#000000" font-family="sans-serif" font-size="12" font-weight="bold" lengthAdjust="spacing" textLength="125" x="141" y="49.8281">Longueur totale (cm)</text><text fill="#0000FF" font-family="sans-serif" font-size="12" lengthAdjust="spacing" textLength="7" x="8" y="68.1722">7</text><text fill="#0000FF" font-family="sans-serif" font-size="12" lengthAdjust="spacing" textLength="85" x="21" y="68.1722">MNZ- Baudroie</text><text fill="#0000FF" font-family="sans-serif" font-size="12" lengthAdjust="spacing" textLength="14" x="141" y="68.1722">46</text><text fill="#000000" font-family="sans-serif" font-size="12" lengthAdjust="spacing" textLength="7" x="8" y="86.5163">6</text><text fill="#000000" font-family="sans-serif" font-size="12" lengthAdjust="spacing" textLength="85" x="18" y="86.5163">MNZ- Baudroie</text><text fill="#000000" font-family="sans-serif" font-size="12" lengthAdjust="spacing" textLength="14" x="141" y="86.5163">41</text><text fill="#000000" font-family="sans-serif" font-size="12" lengthAdjust="spacing" textLength="7" x="8" y="104.8604">5</text><text fill="#000000" font-family="sans-serif" font-size="12" lengthAdjust="spacing" textLength="85" x="18" y="104.8604">MNZ- Baudroie</text><text fill="#000000" font-family="sans-serif" font-size="12" lengthAdjust="spacing" textLength="14" x="141" y="104.8604">20</text><text fill="#000000" font-family="sans-serif" font-size="12" lengthAdjust="spacing" textLength="7" x="8" y="123.2045">4</text><text fill="#000000" font-family="sans-serif" font-size="12" lengthAdjust="spacing" textLength="85" x="18" y="123.2045">MNZ- Baudroie</text><text fill="#000000" font-family="sans-serif" font-size="12" lengthAdjust="spacing" textLength="14" x="141" y="123.2045">20</text><text fill="#000000" font-family="sans-serif" font-size="12" lengthAdjust="spacing" textLength="7" x="8" y="141.5487">3</text><text fill="#000000" font-family="sans-serif" font-size="12" lengthAdjust="spacing" textLength="85" x="18" y="141.5487">MNZ- Baudroie</text><text fill="#000000" font-family="sans-serif" font-size="12" lengthAdjust="spacing" textLength="14" x="141" y="141.5487">15</text><text fill="#000000" font-family="sans-serif" font-size="12" lengthAdjust="spacing" textLength="7" x="8" y="159.8928">2</text><text fill="#000000" font-family="sans-serif" font-size="12" lengthAdjust="spacing" textLength="85" x="18" y="159.8928">MNZ- Baudroie</text><text fill="#000000" font-family="sans-serif" font-size="12" lengthAdjust="spacing" textLength="14" x="141" y="159.8928">11</text><text fill="#000000" font-family="sans-serif" font-size="12" lengthAdjust="spacing" textLength="7" x="8" y="178.2369">1</text><text fill="#000000" font-family="sans-serif" font-size="12" lengthAdjust="spacing" textLength="85" x="18" y="178.2369">MNZ- Baudroie</text><text fill="#000000" font-family="sans-serif" font-size="12" lengthAdjust="spacing" textLength="14" x="141" y="178.2369">10</text><line style="stroke:#000000;stroke-width:1.0;" x1="7" x2="17" y1="36" y2="36"/><line style="stroke:#000000;stroke-width:1.0;" x1="17" x2="140" y1="36" y2="36"/><line style="stroke:#000000;stroke-width:1.0;" x1="140" x2="267" y1="36" y2="36"/><line style="stroke:#000000;stroke-width:1.0;" x1="7" x2="17" y1="164.4088" y2="164.4088"/><line style="stroke:#000000;stroke-width:1.0;" x1="17" x2="140" y1="164.4088" y2="164.4088"/><line style="stroke:#000000;stroke-width:1.0;" x1="140" x2="267" y1="164.4088" y2="164.4088"/><line style="stroke:#000000;stroke-width:1.0;" x1="7" x2="17" y1="91.0323" y2="91.0323"/><line style="stroke:#000000;stroke-width:1.0;" x1="17" x2="140" y1="91.0323" y2="91.0323"/><line style="stroke:#000000;stroke-width:1.0;" x1="140" x2="267" y1="91.0323" y2="91.0323"/><line style="stroke:#000000;stroke-width:1.0;" x1="7" x2="17" y1="146.0647" y2="146.0647"/><line style="stroke:#000000;stroke-width:1.0;" x1="17" x2="140" y1="146.0647" y2="146.0647"/><line style="stroke:#000000;stroke-width:1.0;" x1="140" x2="267" y1="146.0647" y2="146.0647"/><line style="stroke:#000000;stroke-width:1.0;" x1="7" x2="17" y1="72.6882" y2="72.6882"/><line style="stroke:#000000;stroke-width:1.0;" x1="17" x2="140" y1="72.6882" y2="72.6882"/><line style="stroke:#000000;stroke-width:1.0;" x1="140" x2="267" y1="72.6882" y2="72.6882"/><line style="stroke:#000000;stroke-width:1.0;" x1="7" x2="17" y1="127.7206" y2="127.7206"/><line style="stroke:#000000;stroke-width:1.0;" x1="17" x2="140" y1="127.7206" y2="127.7206"/><line style="stroke:#000000;stroke-width:1.0;" x1="140" x2="267" y1="127.7206" y2="127.7206"/><line style="stroke:#000000;stroke-width:1.0;" x1="7" x2="17" y1="54.3441" y2="54.3441"/><line style="stroke:#000000;stroke-width:1.0;" x1="17" x2="140" y1="54.3441" y2="54.3441"/><line style="stroke:#000000;stroke-width:1.0;" x1="140" x2="267" y1="54.3441" y2="54.3441"/><line style="stroke:#000000;stroke-width:1.0;" x1="7" x2="17" y1="182.7529" y2="182.7529"/><line style="stroke:#000000;stroke-width:1.0;" x1="17" x2="140" y1="182.7529" y2="182.7529"/><line style="stroke:#000000;stroke-width:1.0;" x1="140" x2="267" y1="182.7529" y2="182.7529"/><line style="stroke:#000000;stroke-width:1.0;" x1="7" x2="17" y1="109.3765" y2="109.3765"/><line style="stroke:#000000;stroke-width:1.0;" x1="17" x2="140" y1="109.3765" y2="109.3765"/><line style="stroke:#000000;stroke-width:1.0;" x1="140" x2="267" y1="109.3765" y2="109.3765"/><line style="stroke:#000000;stroke-width:1.0;" x1="7" x2="7" y1="36" y2="54.3441"/><line style="stroke:#000000;stroke-width:1.0;" x1="17" x2="17" y1="36" y2="54.3441"/><line style="stroke:#000000;stroke-width:1.0;" x1="140" x2="140" y1="36" y2="54.3441"/><line style="stroke:#000000;stroke-width:1.0;" x1="267" x2="267" y1="36" y2="54.3441"/><line style="stroke:#000000;stroke-width:1.0;" x1="7" x2="7" y1="164.4088" y2="182.7529"/><line style="stroke:#000000;stroke-width:1.0;" x1="17" x2="17" y1="164.4088" y2="182.7529"/><line style="stroke:#000000;stroke-width:1.0;" x1="140" x2="140" y1="164.4088" y2="182.7529"/><line style="stroke:#000000;stroke-width:1.0;" x1="267" x2="267" y1="164.4088" y2="182.7529"/><line style="stroke:#000000;stroke-width:1.0;" x1="7" x2="7" y1="91.0323" y2="109.3765"/><line style="stroke:#000000;stroke-width:1.0;" x1="17" x2="17" y1="91.0323" y2="109.3765"/><line style="stroke:#000000;stroke-width:1.0;" x1="140" x2="140" y1="91.0323" y2="109.3765"/><line style="stroke:#000000;stroke-width:1.0;" x1="267" x2="267" y1="91.0323" y2="109.3765"/><line style="stroke:#000000;stroke-width:1.0;" x1="7" x2="7" y1="146.0647" y2="164.4088"/><line style="stroke:#000000;stroke-width:1.0;" x1="17" x2="17" y1="146.0647" y2="164.4088"/><line style="stroke:#000000;stroke-width:1.0;" x1="140" x2="140" y1="146.0647" y2="164.4088"/><line style="stroke:#000000;stroke-width:1.0;" x1="267" x2="267" y1="146.0647" y2="164.4088"/><line style="stroke:#000000;stroke-width:1.0;" x1="7" x2="7" y1="72.6882" y2="91.0323"/><line style="stroke:#000000;stroke-width:1.0;" x1="17" x2="17" y1="72.6882" y2="91.0323"/><line style="stroke:#000000;stroke-width:1.0;" x1="140" x2="140" y1="72.6882" y2="91.0323"/><line style="stroke:#000000;stroke-width:1.0;" x1="267" x2="267" y1="72.6882" y2="91.0323"/><line style="stroke:#000000;stroke-width:1.0;" x1="7" x2="7" y1="127.7206" y2="146.0647"/><line style="stroke:#000000;stroke-width:1.0;" x1="17" x2="17" y1="127.7206" y2="146.0647"/><line style="stroke:#000000;stroke-width:1.0;" x1="140" x2="140" y1="127.7206" y2="146.0647"/><line style="stroke:#000000;stroke-width:1.0;" x1="267" x2="267" y1="127.7206" y2="146.0647"/><line style="stroke:#000000;stroke-width:1.0;" x1="7" x2="7" y1="54.3441" y2="72.6882"/><line style="stroke:#000000;stroke-width:1.0;" x1="17" x2="17" y1="54.3441" y2="72.6882"/><line style="stroke:#000000;stroke-width:1.0;" x1="140" x2="140" y1="54.3441" y2="72.6882"/><line style="stroke:#000000;stroke-width:1.0;" x1="267" x2="267" y1="54.3441" y2="72.6882"/><line style="stroke:#000000;stroke-width:1.0;" x1="7" x2="7" y1="109.3765" y2="127.7206"/><line style="stroke:#000000;stroke-width:1.0;" x1="17" x2="17" y1="109.3765" y2="127.7206"/><line style="stroke:#000000;stroke-width:1.0;" x1="140" x2="140" y1="109.3765" y2="127.7206"/><line style="stroke:#000000;stroke-width:1.0;" x1="267" x2="267" y1="109.3765" y2="127.7206"/><text fill="#000000" font-family="sans-serif" font-size="12" lengthAdjust="spacing" textLength="116" x="271" y="50.8281">Longueur totale (cm)</text><text fill="#000000" font-family="sans-serif" font-size="12" lengthAdjust="spacing" textLength="3" x="392" y="50.8281"> </text><line style="stroke:#000000;stroke-width:1.0;" x1="390" x2="593" y1="54.3441" y2="54.3441"/><line style="stroke:#000000;stroke-width:1.0;" x1="390" x2="390" y1="51.3441" y2="53.3441"/><line style="stroke:#000000;stroke-width:1.0;" x1="593" x2="593" y1="51.3441" y2="53.3441"/><line style="stroke:#AAAAAA;stroke-width:1.0;" x1="270" x2="597" y1="62.8441" y2="62.8441"/><rect fill="#EEEEEE" height="20.3441" rx="5" ry="5" style="stroke:#000000;stroke-width:2.5;" width="60" x="273.5" y="70.8441"/><text fill="#0000FF" font-family="sans-serif" font-size="12" lengthAdjust="spacing" textLength="41" x="283" y="85.6722">Ajouter</text><rect fill="#EEEEEE" height="20.3441" rx="5" ry="5" style="stroke:#000000;stroke-width:2.5;" width="156" x="273.5" y="100.1882"/><text fill="#0000FF" font-family="sans-serif" font-size="12" lengthAdjust="spacing" textLength="117" x="293" y="115.0163">Terminer et nouveau</text><rect fill="#EEEEEE" height="20.3441" rx="5" ry="5" style="stroke:#000000;stroke-width:2.5;" width="68" x="436.5" y="100.1882"/><text fill="#0000FF" font-family="sans-serif" font-size="12" lengthAdjust="spacing" textLength="52" x="444.5" y="115.0163">Terminer</text><line style="stroke:#000000;stroke-width:1.0;" x1="5" x2="599" y1="5" y2="5"/><line style="stroke:#000000;stroke-width:1.0;" x1="5" x2="599" y1="184.7529" y2="184.7529"/><line style="stroke:#000000;stroke-width:1.0;" x1="5" x2="5" y1="5" y2="26"/><line style="stroke:#000000;stroke-width:1.0;" x1="599" x2="599" y1="26" y2="34"/><line style="stroke:#000000;stroke-width:1.0;" x1="599" x2="599" y1="5" y2="26"/><line style="stroke:#000000;stroke-width:1.0;" x1="5" x2="5" y1="34" y2="184.7529"/><line style="stroke:#000000;stroke-width:1.0;" x1="5" x2="5" y1="26" y2="34"/><line style="stroke:#000000;stroke-width:1.0;" x1="599" x2="599" y1="34" y2="184.7529"/></g></svg>