<?xml version="1.0" encoding="UTF-8" standalone="no"?><svg xmlns="http://www.w3.org/2000/svg" xmlns:xlink="http://www.w3.org/1999/xlink" contentStyleType="text/css" height="172px" preserveAspectRatio="none" style="width:668px;height:172px;background:#FFFFFF;" version="1.1" viewBox="0 0 668 172" width="668px" zoomAndPan="magnify"><defs/><g><rect fill="#EEEEEE" height="12" rx="5" ry="5" style="stroke:#000000;stroke-width:2.5;" width="36" x="9.5" y="9.5"/><path d="M26.5,11.5 L23.5,14.03 L26.5,16.5 L26.5,14.5 L31.5,14.5 L31.5,13.5 L26.5,13.5 L26.5,11.5 " fill="#000000" style="stroke:;stroke-width:0.0;stroke-dasharray:;"/><text fill="#000000" font-family="sans-serif" font-size="12" font-weight="bold" lengthAdjust="spacing" textLength="420" x="50" y="18.1387">Partie retenue - Lot MNZ - Baudroie - Mesures individuelles</text><rect fill="#EEEEEE" height="12" rx="5" ry="5" style="stroke:#000000;stroke-width:2.5;" width="20" x="474.5" y="9.5"/><path d="M486.91,11.5 L486.22,12.22 L483.44,15 L482.63,14.22 L481.91,13.5 L480.5,14.91 L481.22,15.63 L482.72,17.13 L483.41,17.85 L484.13,17.13 L487.63,13.63 L488.35,12.91 L486.91,11.5 " fill="#000000" style="stroke:;stroke-width:0.0;stroke-dasharray:;"/><line style="stroke:#AAAAAA;stroke-width:1.0;" x1="6" x2="661" y1="30.5" y2="30.5"/><text fill="#000000" font-family="sans-serif" font-size="12" lengthAdjust="spacing" textLength="10" x="8" y="48.1387">#</text><text fill="#000000" font-family="sans-serif" font-size="12" font-weight="bold" lengthAdjust="spacing" textLength="142" x="20" y="48.1387">Espèce commerciale</text><text fill="#000000" font-family="sans-serif" font-size="12" font-weight="bold" lengthAdjust="spacing" textLength="148" x="164" y="48.1387">Longueur totale (cm)</text><text fill="#0000FF" font-family="sans-serif" font-size="12" lengthAdjust="spacing" textLength="8" x="8" y="64.1074">7</text><text fill="#0000FF" font-family="sans-serif" font-size="12" lengthAdjust="spacing" textLength="92" x="24" y="64.1074">MNZ- Baudroie</text><text fill="#0000FF" font-family="sans-serif" font-size="12" lengthAdjust="spacing" textLength="16" x="164" y="64.1074">46</text><text fill="#000000" font-family="sans-serif" font-size="12" lengthAdjust="spacing" textLength="8" x="8" y="80.0762">6</text><text fill="#000000" font-family="sans-serif" font-size="12" lengthAdjust="spacing" textLength="92" x="20" y="80.0762">MNZ- Baudroie</text><text fill="#000000" font-family="sans-serif" font-size="12" lengthAdjust="spacing" textLength="16" x="164" y="80.0762">41</text><text fill="#000000" font-family="sans-serif" font-size="12" lengthAdjust="spacing" textLength="8" x="8" y="96.0449">5</text><text fill="#000000" font-family="sans-serif" font-size="12" lengthAdjust="spacing" textLength="92" x="20" y="96.0449">MNZ- Baudroie</text><text fill="#000000" font-family="sans-serif" font-size="12" lengthAdjust="spacing" textLength="16" x="164" y="96.0449">20</text><text fill="#000000" font-family="sans-serif" font-size="12" lengthAdjust="spacing" textLength="8" x="8" y="112.0137">4</text><text fill="#000000" font-family="sans-serif" font-size="12" lengthAdjust="spacing" textLength="92" x="20" y="112.0137">MNZ- Baudroie</text><text fill="#000000" font-family="sans-serif" font-size="12" lengthAdjust="spacing" textLength="16" x="164" y="112.0137">20</text><text fill="#000000" font-family="sans-serif" font-size="12" lengthAdjust="spacing" textLength="8" x="8" y="127.9824">3</text><text fill="#000000" font-family="sans-serif" font-size="12" lengthAdjust="spacing" textLength="92" x="20" y="127.9824">MNZ- Baudroie</text><text fill="#000000" font-family="sans-serif" font-size="12" lengthAdjust="spacing" textLength="16" x="164" y="127.9824">15</text><text fill="#000000" font-family="sans-serif" font-size="12" lengthAdjust="spacing" textLength="8" x="8" y="143.9512">2</text><text fill="#000000" font-family="sans-serif" font-size="12" lengthAdjust="spacing" textLength="92" x="20" y="143.9512">MNZ- Baudroie</text><text fill="#000000" font-family="sans-serif" font-size="12" lengthAdjust="spacing" textLength="16" x="164" y="143.9512">11</text><text fill="#000000" font-family="sans-serif" font-size="12" lengthAdjust="spacing" textLength="8" x="8" y="159.9199">1</text><text fill="#000000" font-family="sans-serif" font-size="12" lengthAdjust="spacing" textLength="92" x="20" y="159.9199">MNZ- Baudroie</text><text fill="#000000" font-family="sans-serif" font-size="12" lengthAdjust="spacing" textLength="16" x="164" y="159.9199">10</text><line style="stroke:#000000;stroke-width:1.0;" x1="7" x2="19" y1="36" y2="36"/><line style="stroke:#000000;stroke-width:1.0;" x1="19" x2="163" y1="36" y2="36"/><line style="stroke:#000000;stroke-width:1.0;" x1="163" x2="313" y1="36" y2="36"/><line style="stroke:#000000;stroke-width:1.0;" x1="7" x2="19" y1="147.7813" y2="147.7813"/><line style="stroke:#000000;stroke-width:1.0;" x1="19" x2="163" y1="147.7813" y2="147.7813"/><line style="stroke:#000000;stroke-width:1.0;" x1="163" x2="313" y1="147.7813" y2="147.7813"/><line style="stroke:#000000;stroke-width:1.0;" x1="7" x2="19" y1="83.9063" y2="83.9063"/><line style="stroke:#000000;stroke-width:1.0;" x1="19" x2="163" y1="83.9063" y2="83.9063"/><line style="stroke:#000000;stroke-width:1.0;" x1="163" x2="313" y1="83.9063" y2="83.9063"/><line style="stroke:#000000;stroke-width:1.0;" x1="7" x2="19" y1="131.8125" y2="131.8125"/><line style="stroke:#000000;stroke-width:1.0;" x1="19" x2="163" y1="131.8125" y2="131.8125"/><line style="stroke:#000000;stroke-width:1.0;" x1="163" x2="313" y1="131.8125" y2="131.8125"/><line style="stroke:#000000;stroke-width:1.0;" x1="7" x2="19" y1="67.9375" y2="67.9375"/><line style="stroke:#000000;stroke-width:1.0;" x1="19" x2="163" y1="67.9375" y2="67.9375"/><line style="stroke:#000000;stroke-width:1.0;" x1="163" x2="313" y1="67.9375" y2="67.9375"/><line style="stroke:#000000;stroke-width:1.0;" x1="7" x2="19" y1="115.8438" y2="115.8438"/><line style="stroke:#000000;stroke-width:1.0;" x1="19" x2="163" y1="115.8438" y2="115.8438"/><line style="stroke:#000000;stroke-width:1.0;" x1="163" x2="313" y1="115.8438" y2="115.8438"/><line style="stroke:#000000;stroke-width:1.0;" x1="7" x2="19" y1="51.9688" y2="51.9688"/><line style="stroke:#000000;stroke-width:1.0;" x1="19" x2="163" y1="51.9688" y2="51.9688"/><line style="stroke:#000000;stroke-width:1.0;" x1="163" x2="313" y1="51.9688" y2="51.9688"/><line style="stroke:#000000;stroke-width:1.0;" x1="7" x2="19" y1="163.75" y2="163.75"/><line style="stroke:#000000;stroke-width:1.0;" x1="19" x2="163" y1="163.75" y2="163.75"/><line style="stroke:#000000;stroke-width:1.0;" x1="163" x2="313" y1="163.75" y2="163.75"/><line style="stroke:#000000;stroke-width:1.0;" x1="7" x2="19" y1="99.875" y2="99.875"/><line style="stroke:#000000;stroke-width:1.0;" x1="19" x2="163" y1="99.875" y2="99.875"/><line style="stroke:#000000;stroke-width:1.0;" x1="163" x2="313" y1="99.875" y2="99.875"/><line style="stroke:#000000;stroke-width:1.0;" x1="7" x2="7" y1="36" y2="51.9688"/><line style="stroke:#000000;stroke-width:1.0;" x1="19" x2="19" y1="36" y2="51.9688"/><line style="stroke:#000000;stroke-width:1.0;" x1="163" x2="163" y1="36" y2="51.9688"/><line style="stroke:#000000;stroke-width:1.0;" x1="313" x2="313" y1="36" y2="51.9688"/><line style="stroke:#000000;stroke-width:1.0;" x1="7" x2="7" y1="147.7813" y2="163.75"/><line style="stroke:#000000;stroke-width:1.0;" x1="19" x2="19" y1="147.7813" y2="163.75"/><line style="stroke:#000000;stroke-width:1.0;" x1="163" x2="163" y1="147.7813" y2="163.75"/><line style="stroke:#000000;stroke-width:1.0;" x1="313" x2="313" y1="147.7813" y2="163.75"/><line style="stroke:#000000;stroke-width:1.0;" x1="7" x2="7" y1="83.9063" y2="99.875"/><line style="stroke:#000000;stroke-width:1.0;" x1="19" x2="19" y1="83.9063" y2="99.875"/><line style="stroke:#000000;stroke-width:1.0;" x1="163" x2="163" y1="83.9063" y2="99.875"/><line style="stroke:#000000;stroke-width:1.0;" x1="313" x2="313" y1="83.9063" y2="99.875"/><line style="stroke:#000000;stroke-width:1.0;" x1="7" x2="7" y1="131.8125" y2="147.7813"/><line style="stroke:#000000;stroke-width:1.0;" x1="19" x2="19" y1="131.8125" y2="147.7813"/><line style="stroke:#000000;stroke-width:1.0;" x1="163" x2="163" y1="131.8125" y2="147.7813"/><line style="stroke:#000000;stroke-width:1.0;" x1="313" x2="313" y1="131.8125" y2="147.7813"/><line style="stroke:#000000;stroke-width:1.0;" x1="7" x2="7" y1="67.9375" y2="83.9063"/><line style="stroke:#000000;stroke-width:1.0;" x1="19" x2="19" y1="67.9375" y2="83.9063"/><line style="stroke:#000000;stroke-width:1.0;" x1="163" x2="163" y1="67.9375" y2="83.9063"/><line style="stroke:#000000;stroke-width:1.0;" x1="313" x2="313" y1="67.9375" y2="83.9063"/><line style="stroke:#000000;stroke-width:1.0;" x1="7" x2="7" y1="115.8438" y2="131.8125"/><line style="stroke:#000000;stroke-width:1.0;" x1="19" x2="19" y1="115.8438" y2="131.8125"/><line style="stroke:#000000;stroke-width:1.0;" x1="163" x2="163" y1="115.8438" y2="131.8125"/><line style="stroke:#000000;stroke-width:1.0;" x1="313" x2="313" y1="115.8438" y2="131.8125"/><line style="stroke:#000000;stroke-width:1.0;" x1="7" x2="7" y1="51.9688" y2="67.9375"/><line style="stroke:#000000;stroke-width:1.0;" x1="19" x2="19" y1="51.9688" y2="67.9375"/><line style="stroke:#000000;stroke-width:1.0;" x1="163" x2="163" y1="51.9688" y2="67.9375"/><line style="stroke:#000000;stroke-width:1.0;" x1="313" x2="313" y1="51.9688" y2="67.9375"/><line style="stroke:#000000;stroke-width:1.0;" x1="7" x2="7" y1="99.875" y2="115.8438"/><line style="stroke:#000000;stroke-width:1.0;" x1="19" x2="19" y1="99.875" y2="115.8438"/><line style="stroke:#000000;stroke-width:1.0;" x1="163" x2="163" y1="99.875" y2="115.8438"/><line style="stroke:#000000;stroke-width:1.0;" x1="313" x2="313" y1="99.875" y2="115.8438"/><text fill="#000000" font-family="sans-serif" font-size="12" lengthAdjust="spacing" textLength="132" x="317" y="49.1387">Longueur totale (cm)</text><text fill="#000000" font-family="sans-serif" font-size="12" lengthAdjust="spacing" textLength="4" x="454" y="49.1387"> </text><line style="stroke:#000000;stroke-width:1.0;" x1="452" x2="655" y1="51.9688" y2="51.9688"/><line style="stroke:#000000;stroke-width:1.0;" x1="452" x2="452" y1="48.9688" y2="50.9688"/><line style="stroke:#000000;stroke-width:1.0;" x1="655" x2="655" y1="48.9688" y2="50.9688"/><line style="stroke:#AAAAAA;stroke-width:1.0;" x1="316" x2="659" y1="60.4688" y2="60.4688"/><rect fill="#EEEEEE" height="17.9688" rx="5" ry="5" style="stroke:#000000;stroke-width:2.5;" width="60" x="319.5" y="68.4688"/><text fill="#0000FF" font-family="sans-serif" font-size="12" lengthAdjust="spacing" textLength="45" x="327" y="81.6074">Ajouter</text><rect fill="#EEEEEE" height="17.9688" rx="5" ry="5" style="stroke:#000000;stroke-width:2.5;" width="156" x="319.5" y="95.4375"/><text fill="#0000FF" font-family="sans-serif" font-size="12" lengthAdjust="spacing" textLength="130" x="332.5" y="108.5762">Terminer et nouveau</text><rect fill="#EEEEEE" height="17.9688" rx="5" ry="5" style="stroke:#000000;stroke-width:2.5;" width="68" x="482.5" y="95.4375"/><text fill="#0000FF" font-family="sans-serif" font-size="12" lengthAdjust="spacing" textLength="55" x="489" y="108.5762">Terminer</text><line style="stroke:#000000;stroke-width:1.0;" x1="5" x2="661" y1="5" y2="5"/><line style="stroke:#000000;stroke-width:1.0;" x1="5" x2="661" y1="165.75" y2="165.75"/><line style="stroke:#000000;stroke-width:1.0;" x1="5" x2="5" y1="5" y2="26"/><line style="stroke:#000000;stroke-width:1.0;" x1="661" x2="661" y1="26" y2="34"/><line style="stroke:#000000;stroke-width:1.0;" x1="661" x2="661" y1="5" y2="26"/><line style="stroke:#000000;stroke-width:1.0;" x1="5" x2="5" y1="34" y2="165.75"/><line style="stroke:#000000;stroke-width:1.0;" x1="5" x2="5" y1="26" y2="34"/><line style="stroke:#000000;stroke-width:1.0;" x1="661" x2="661" y1="34" y2="165.75"/></g></svg>