<?xml version="1.0" encoding="us-ascii" standalone="no"?><svg xmlns="http://www.w3.org/2000/svg" xmlns:xlink="http://www.w3.org/1999/xlink" contentStyleType="text/css" height="509px" preserveAspectRatio="none" style="width:806px;height:509px;background:#FFFFFF;" version="1.1" viewBox="0 0 806 509" width="806px" zoomAndPan="magnify"><defs/><g><!--class DenormalizedSamplingStrata--><g id="elem_DenormalizedSamplingStrata"><rect codeLine="3" fill="#F1F1F1" height="402.8906" id="DenormalizedSamplingStrata" rx="2.5" ry="2.5" style="stroke:#181818;stroke-width:0.5;" width="302" x="260.5" y="100"/><ellipse cx="316.25" cy="121.3516" fill="#ADD1B2" rx="11" ry="11" style="stroke:#181818;stroke-width:1.0;"/><path d="M319.0156,117.2266 Q319.1719,117.0078 319.3594,116.8984 Q319.5469,116.7891 319.7656,116.7891 Q320.1406,116.7891 320.375,117.0469 Q320.6094,117.3047 320.6094,117.9141 L320.6094,119.3672 Q320.6094,119.9766 320.375,120.2422 Q320.1406,120.5078 319.7656,120.5078 Q319.4219,120.5078 319.2188,120.3047 Q319.0156,120.1172 318.9063,119.6016 Q318.8594,119.2422 318.6719,119.0547 Q318.3438,118.6797 317.7344,118.4609 Q317.125,118.2422 316.5,118.2422 Q315.7344,118.2422 315.1016,118.5703 Q314.4688,118.8984 313.9766,119.6484 Q313.4844,120.3984 313.4844,121.4297 L313.4844,122.5234 Q313.4844,123.7578 314.375,124.5781 Q315.2656,125.3984 316.8594,125.3984 Q317.7969,125.3984 318.4531,125.1484 Q318.8438,124.9922 319.2656,124.5547 Q319.5313,124.2891 319.6797,124.2109 Q319.8281,124.1328 320.0313,124.1328 Q320.3594,124.1328 320.6172,124.3906 Q320.875,124.6484 320.875,124.9922 Q320.875,125.3359 320.5313,125.7422 Q320.0313,126.3203 319.2344,126.6484 Q318.1563,127.1016 316.8594,127.1016 Q315.3438,127.1016 314.1406,126.4766 Q313.1563,125.9766 312.4688,124.9063 Q311.7813,123.8359 311.7813,122.5547 L311.7813,121.3984 Q311.7813,120.0703 312.3984,118.9219 Q313.0156,117.7734 314.1094,117.1563 Q315.2031,116.5391 316.4375,116.5391 Q317.1719,116.5391 317.8203,116.7031 Q318.4688,116.8672 319.0156,117.2266 Z " fill="#000000"/><text fill="#000000" font-family="sans-serif" font-size="12" font-style="italic" lengthAdjust="spacing" textLength="44" x="405.75" y="117.457">&#171;Entity&#187;</text><text fill="#000000" font-family="sans-serif" font-size="14" lengthAdjust="spacing" textLength="182" x="336.75" y="134.627">DenormalizedSamplingStrata</text><line style="stroke:#181818;stroke-width:0.5;" x1="261.5" x2="561.5" y1="142.7031" y2="142.7031"/><ellipse cx="271.5" cy="157.0078" fill="none" rx="3" ry="3" style="stroke:#038048;stroke-width:1.0;"/><text fill="#000000" font-family="sans-serif" font-size="14" lengthAdjust="spacing" textLength="63" x="280.5" y="161.2363">id: Integer</text><ellipse cx="271.5" cy="174.6172" fill="none" rx="3" ry="3" style="stroke:#038048;stroke-width:1.0;"/><text fill="#000000" font-family="sans-serif" font-size="14" lengthAdjust="spacing" textLength="75" x="280.5" y="178.8457">label: String</text><ellipse cx="271.5" cy="192.2266" fill="none" rx="3" ry="3" style="stroke:#038048;stroke-width:1.0;"/><text fill="#000000" font-family="sans-serif" font-size="14" lengthAdjust="spacing" textLength="116" x="280.5" y="196.4551">name: String [0..1]</text><ellipse cx="271.5" cy="209.8359" fill="none" rx="3" ry="3" style="stroke:#038048;stroke-width:1.0;"/><text fill="#000000" font-family="sans-serif" font-size="14" lengthAdjust="spacing" textLength="132" x="280.5" y="214.0645">startDate: Date [0..1]</text><ellipse cx="271.5" cy="227.4453" fill="none" rx="3" ry="3" style="stroke:#038048;stroke-width:1.0;"/><text fill="#000000" font-family="sans-serif" font-size="14" lengthAdjust="spacing" textLength="128" x="280.5" y="231.6738">endDate: Date [0..1]</text><ellipse cx="271.5" cy="245.0547" fill="none" rx="3" ry="3" style="stroke:#038048;stroke-width:1.0;"/><text fill="#000000" font-family="sans-serif" font-size="14" lengthAdjust="spacing" textLength="150" x="280.5" y="249.2832">description: String [0..1]</text><ellipse cx="271.5" cy="262.6641" fill="none" rx="3" ry="3" style="stroke:#038048;stroke-width:1.0;"/><text fill="#000000" font-family="sans-serif" font-size="14" lengthAdjust="spacing" textLength="145" x="280.5" y="266.8926">comments: String [0..1]</text><ellipse cx="271.5" cy="280.2734" fill="none" rx="3" ry="3" style="stroke:#038048;stroke-width:1.0;"/><text fill="#000000" font-family="sans-serif" font-size="14" lengthAdjust="spacing" textLength="276" x="280.5" y="284.502">observationLocationComments: String [0..1]</text><ellipse cx="271.5" cy="297.8828" fill="none" rx="3" ry="3" style="stroke:#038048;stroke-width:1.0;"/><text fill="#000000" font-family="sans-serif" font-size="14" lengthAdjust="spacing" textLength="190" x="280.5" y="302.1113">samplingStrategy: String [0..1]</text><ellipse cx="271.5" cy="315.4922" fill="none" rx="3" ry="3" style="stroke:#038048;stroke-width:1.0;"/><text fill="#000000" font-family="sans-serif" font-size="14" lengthAdjust="spacing" textLength="191" x="280.5" y="319.7207">taxonGroupName: String [0..1]</text><ellipse cx="271.5" cy="333.1016" fill="none" rx="3" ry="3" style="stroke:#038048;stroke-width:1.0;"/><text fill="#000000" font-family="sans-serif" font-size="14" lengthAdjust="spacing" textLength="223" x="280.5" y="337.3301">samplingSchemeLabel: String [0..1]</text><ellipse cx="271.5" cy="350.7109" fill="none" rx="3" ry="3" style="stroke:#038048;stroke-width:1.0;"/><text fill="#000000" font-family="sans-serif" font-size="14" lengthAdjust="spacing" textLength="224" x="280.5" y="354.9395">samplingSchemeName: String [0..1]</text><ellipse cx="271.5" cy="368.3203" fill="none" rx="3" ry="3" style="stroke:#038048;stroke-width:1.0;"/><text fill="#000000" font-family="sans-serif" font-size="14" lengthAdjust="spacing" textLength="259" x="280.5" y="372.5488">samplingSchemeDescription: String [0..1]</text><ellipse cx="271.5" cy="385.9297" fill="none" rx="3" ry="3" style="stroke:#038048;stroke-width:1.0;"/><text fill="#000000" font-family="sans-serif" font-size="14" lengthAdjust="spacing" textLength="186" x="280.5" y="390.1582">gearMeshRange: String [0..1]</text><ellipse cx="271.5" cy="403.5391" fill="none" rx="3" ry="3" style="stroke:#038048;stroke-width:1.0;"/><text fill="#000000" font-family="sans-serif" font-size="14" lengthAdjust="spacing" textLength="207" x="280.5" y="407.7676">vesselLengthRange: String [0..1]</text><ellipse cx="271.5" cy="421.1484" fill="none" rx="3" ry="3" style="stroke:#038048;stroke-width:1.0;"/><text fill="#000000" font-family="sans-serif" font-size="14" lengthAdjust="spacing" textLength="120" x="280.5" y="425.377">metier: String [0..1]</text><ellipse cx="271.5" cy="438.7578" fill="none" rx="3" ry="3" style="stroke:#038048;stroke-width:1.0;"/><text fill="#000000" font-family="sans-serif" font-size="14" lengthAdjust="spacing" textLength="146" x="280.5" y="442.9863">areaName: String [0..1]</text><ellipse cx="271.5" cy="456.3672" fill="none" rx="3" ry="3" style="stroke:#038048;stroke-width:1.0;"/><text fill="#000000" font-family="sans-serif" font-size="14" lengthAdjust="spacing" textLength="206" x="280.5" y="460.5957">subAreaLocationIds: String [0..1]</text><ellipse cx="271.5" cy="473.9766" fill="none" rx="3" ry="3" style="stroke:#038048;stroke-width:1.0;"/><text fill="#000000" font-family="sans-serif" font-size="14" lengthAdjust="spacing" textLength="119" x="280.5" y="478.2051">creationDate: Date</text><ellipse cx="271.5" cy="491.5859" fill="none" rx="3" ry="3" style="stroke:#038048;stroke-width:1.0;"/><text fill="#000000" font-family="sans-serif" font-size="14" lengthAdjust="spacing" textLength="112" x="280.5" y="495.8145">updateDate: Date</text></g><!--class Program--><g id="elem_Program"><rect fill="#F1F1F1" height="32" id="Program" rx="2.5" ry="2.5" style="stroke:#181818;stroke-width:0.5;" width="86" x="425.5" y="7"/><ellipse cx="440.5" cy="23" fill="#ADD1B2" rx="11" ry="11" style="stroke:#181818;stroke-width:1.0;"/><path d="M443.2656,18.875 Q443.4219,18.6563 443.6094,18.5469 Q443.7969,18.4375 444.0156,18.4375 Q444.3906,18.4375 444.625,18.6953 Q444.8594,18.9531 444.8594,19.5625 L444.8594,21.0156 Q444.8594,21.625 444.625,21.8906 Q444.3906,22.1563 444.0156,22.1563 Q443.6719,22.1563 443.4688,21.9531 Q443.2656,21.7656 443.1563,21.25 Q443.1094,20.8906 442.9219,20.7031 Q442.5938,20.3281 441.9844,20.1094 Q441.375,19.8906 440.75,19.8906 Q439.9844,19.8906 439.3516,20.2188 Q438.7188,20.5469 438.2266,21.2969 Q437.7344,22.0469 437.7344,23.0781 L437.7344,24.1719 Q437.7344,25.4063 438.625,26.2266 Q439.5156,27.0469 441.1094,27.0469 Q442.0469,27.0469 442.7031,26.7969 Q443.0938,26.6406 443.5156,26.2031 Q443.7813,25.9375 443.9297,25.8594 Q444.0781,25.7813 444.2813,25.7813 Q444.6094,25.7813 444.8672,26.0391 Q445.125,26.2969 445.125,26.6406 Q445.125,26.9844 444.7813,27.3906 Q444.2813,27.9688 443.4844,28.2969 Q442.4063,28.75 441.1094,28.75 Q439.5938,28.75 438.3906,28.125 Q437.4063,27.625 436.7188,26.5547 Q436.0313,25.4844 436.0313,24.2031 L436.0313,23.0469 Q436.0313,21.7188 436.6484,20.5703 Q437.2656,19.4219 438.3594,18.8047 Q439.4531,18.1875 440.6875,18.1875 Q441.4219,18.1875 442.0703,18.3516 Q442.7188,18.5156 443.2656,18.875 Z " fill="#000000"/><text fill="#000000" font-family="sans-serif" font-size="14" lengthAdjust="spacing" textLength="54" x="454.5" y="28.7285">Program</text></g><!--class Status--><g id="elem_Status"><rect fill="#F1F1F1" height="32" id="Status" rx="2.5" ry="2.5" style="stroke:#181818;stroke-width:0.5;" width="72" x="318.5" y="7"/><ellipse cx="333.5" cy="23" fill="#ADD1B2" rx="11" ry="11" style="stroke:#181818;stroke-width:1.0;"/><path d="M336.2656,18.875 Q336.4219,18.6563 336.6094,18.5469 Q336.7969,18.4375 337.0156,18.4375 Q337.3906,18.4375 337.625,18.6953 Q337.8594,18.9531 337.8594,19.5625 L337.8594,21.0156 Q337.8594,21.625 337.625,21.8906 Q337.3906,22.1563 337.0156,22.1563 Q336.6719,22.1563 336.4688,21.9531 Q336.2656,21.7656 336.1563,21.25 Q336.1094,20.8906 335.9219,20.7031 Q335.5938,20.3281 334.9844,20.1094 Q334.375,19.8906 333.75,19.8906 Q332.9844,19.8906 332.3516,20.2188 Q331.7188,20.5469 331.2266,21.2969 Q330.7344,22.0469 330.7344,23.0781 L330.7344,24.1719 Q330.7344,25.4063 331.625,26.2266 Q332.5156,27.0469 334.1094,27.0469 Q335.0469,27.0469 335.7031,26.7969 Q336.0938,26.6406 336.5156,26.2031 Q336.7813,25.9375 336.9297,25.8594 Q337.0781,25.7813 337.2813,25.7813 Q337.6094,25.7813 337.8672,26.0391 Q338.125,26.2969 338.125,26.6406 Q338.125,26.9844 337.7813,27.3906 Q337.2813,27.9688 336.4844,28.2969 Q335.4063,28.75 334.1094,28.75 Q332.5938,28.75 331.3906,28.125 Q330.4063,27.625 329.7188,26.5547 Q329.0313,25.4844 329.0313,24.2031 L329.0313,23.0469 Q329.0313,21.7188 329.6484,20.5703 Q330.2656,19.4219 331.3594,18.8047 Q332.4531,18.1875 333.6875,18.1875 Q334.4219,18.1875 335.0703,18.3516 Q335.7188,18.5156 336.2656,18.875 Z " fill="#000000"/><text fill="#000000" font-family="sans-serif" font-size="14" lengthAdjust="spacing" textLength="40" x="347.5" y="28.7285">Status</text></g><!--class Department--><g id="elem_Department"><rect fill="#F1F1F1" height="32" id="Department" rx="2.5" ry="2.5" style="stroke:#181818;stroke-width:0.5;" width="106" x="119.5" y="285.5"/><ellipse cx="134.5" cy="301.5" fill="#ADD1B2" rx="11" ry="11" style="stroke:#181818;stroke-width:1.0;"/><path d="M137.2656,297.375 Q137.4219,297.1563 137.6094,297.0469 Q137.7969,296.9375 138.0156,296.9375 Q138.3906,296.9375 138.625,297.1953 Q138.8594,297.4531 138.8594,298.0625 L138.8594,299.5156 Q138.8594,300.125 138.625,300.3906 Q138.3906,300.6563 138.0156,300.6563 Q137.6719,300.6563 137.4688,300.4531 Q137.2656,300.2656 137.1563,299.75 Q137.1094,299.3906 136.9219,299.2031 Q136.5938,298.8281 135.9844,298.6094 Q135.375,298.3906 134.75,298.3906 Q133.9844,298.3906 133.3516,298.7188 Q132.7188,299.0469 132.2266,299.7969 Q131.7344,300.5469 131.7344,301.5781 L131.7344,302.6719 Q131.7344,303.9063 132.625,304.7266 Q133.5156,305.5469 135.1094,305.5469 Q136.0469,305.5469 136.7031,305.2969 Q137.0938,305.1406 137.5156,304.7031 Q137.7813,304.4375 137.9297,304.3594 Q138.0781,304.2813 138.2813,304.2813 Q138.6094,304.2813 138.8672,304.5391 Q139.125,304.7969 139.125,305.1406 Q139.125,305.4844 138.7813,305.8906 Q138.2813,306.4688 137.4844,306.7969 Q136.4063,307.25 135.1094,307.25 Q133.5938,307.25 132.3906,306.625 Q131.4063,306.125 130.7188,305.0547 Q130.0313,303.9844 130.0313,302.7031 L130.0313,301.5469 Q130.0313,300.2188 130.6484,299.0703 Q131.2656,297.9219 132.3594,297.3047 Q133.4531,296.6875 134.6875,296.6875 Q135.4219,296.6875 136.0703,296.8516 Q136.7188,297.0156 137.2656,297.375 Z " fill="#000000"/><text fill="#000000" font-family="sans-serif" font-size="14" lengthAdjust="spacing" textLength="74" x="148.5" y="307.2285">Department</text></g><!--class Person--><g id="elem_Person"><rect fill="#F1F1F1" height="32" id="Person" rx="2.5" ry="2.5" style="stroke:#181818;stroke-width:0.5;" width="77" x="7" y="285.5"/><ellipse cx="22" cy="301.5" fill="#ADD1B2" rx="11" ry="11" style="stroke:#181818;stroke-width:1.0;"/><path d="M24.7656,297.375 Q24.9219,297.1563 25.1094,297.0469 Q25.2969,296.9375 25.5156,296.9375 Q25.8906,296.9375 26.125,297.1953 Q26.3594,297.4531 26.3594,298.0625 L26.3594,299.5156 Q26.3594,300.125 26.125,300.3906 Q25.8906,300.6563 25.5156,300.6563 Q25.1719,300.6563 24.9688,300.4531 Q24.7656,300.2656 24.6563,299.75 Q24.6094,299.3906 24.4219,299.2031 Q24.0938,298.8281 23.4844,298.6094 Q22.875,298.3906 22.25,298.3906 Q21.4844,298.3906 20.8516,298.7188 Q20.2188,299.0469 19.7266,299.7969 Q19.2344,300.5469 19.2344,301.5781 L19.2344,302.6719 Q19.2344,303.9063 20.125,304.7266 Q21.0156,305.5469 22.6094,305.5469 Q23.5469,305.5469 24.2031,305.2969 Q24.5938,305.1406 25.0156,304.7031 Q25.2813,304.4375 25.4297,304.3594 Q25.5781,304.2813 25.7813,304.2813 Q26.1094,304.2813 26.3672,304.5391 Q26.625,304.7969 26.625,305.1406 Q26.625,305.4844 26.2813,305.8906 Q25.7813,306.4688 24.9844,306.7969 Q23.9063,307.25 22.6094,307.25 Q21.0938,307.25 19.8906,306.625 Q18.9063,306.125 18.2188,305.0547 Q17.5313,303.9844 17.5313,302.7031 L17.5313,301.5469 Q17.5313,300.2188 18.1484,299.0703 Q18.7656,297.9219 19.8594,297.3047 Q20.9531,296.6875 22.1875,296.6875 Q22.9219,296.6875 23.5703,296.8516 Q24.2188,297.0156 24.7656,297.375 Z " fill="#000000"/><text fill="#000000" font-family="sans-serif" font-size="14" lengthAdjust="spacing" textLength="45" x="36" y="307.2285">Person</text></g><!--class Location--><g id="elem_Location"><rect fill="#F1F1F1" height="32" id="Location" rx="2.5" ry="2.5" style="stroke:#181818;stroke-width:0.5;" width="86" x="713.5" y="285.5"/><ellipse cx="728.5" cy="301.5" fill="#ADD1B2" rx="11" ry="11" style="stroke:#181818;stroke-width:1.0;"/><path d="M731.2656,297.375 Q731.4219,297.1563 731.6094,297.0469 Q731.7969,296.9375 732.0156,296.9375 Q732.3906,296.9375 732.625,297.1953 Q732.8594,297.4531 732.8594,298.0625 L732.8594,299.5156 Q732.8594,300.125 732.625,300.3906 Q732.3906,300.6563 732.0156,300.6563 Q731.6719,300.6563 731.4688,300.4531 Q731.2656,300.2656 731.1563,299.75 Q731.1094,299.3906 730.9219,299.2031 Q730.5938,298.8281 729.9844,298.6094 Q729.375,298.3906 728.75,298.3906 Q727.9844,298.3906 727.3516,298.7188 Q726.7188,299.0469 726.2266,299.7969 Q725.7344,300.5469 725.7344,301.5781 L725.7344,302.6719 Q725.7344,303.9063 726.625,304.7266 Q727.5156,305.5469 729.1094,305.5469 Q730.0469,305.5469 730.7031,305.2969 Q731.0938,305.1406 731.5156,304.7031 Q731.7813,304.4375 731.9297,304.3594 Q732.0781,304.2813 732.2813,304.2813 Q732.6094,304.2813 732.8672,304.5391 Q733.125,304.7969 733.125,305.1406 Q733.125,305.4844 732.7813,305.8906 Q732.2813,306.4688 731.4844,306.7969 Q730.4063,307.25 729.1094,307.25 Q727.5938,307.25 726.3906,306.625 Q725.4063,306.125 724.7188,305.0547 Q724.0313,303.9844 724.0313,302.7031 L724.0313,301.5469 Q724.0313,300.2188 724.6484,299.0703 Q725.2656,297.9219 726.3594,297.3047 Q727.4531,296.6875 728.6875,296.6875 Q729.4219,296.6875 730.0703,296.8516 Q730.7188,297.0156 731.2656,297.375 Z " fill="#000000"/><text fill="#000000" font-family="sans-serif" font-size="14" lengthAdjust="spacing" textLength="54" x="742.5" y="307.2285">Location</text></g><!--reverse link Program to DenormalizedSamplingStrata--><g id="link_Program_DenormalizedSamplingStrata"><path codeLine="26" d="M464.1394,45.1366 C461.3294,58.7766 458.07,74.59 452.88,99.79 " fill="none" id="Program-backto-DenormalizedSamplingStrata" style="stroke:#181818;stroke-width:1.0;"/><polygon fill="#181818" points="465.35,39.26,459.6163,47.2678,464.3411,44.1572,467.4518,48.882,465.35,39.26" style="stroke:#181818;stroke-width:1.0;"/><text fill="#000000" font-family="sans-serif" font-size="13" lengthAdjust="spacing" textLength="7" x="456.2303" y="60.544">1</text><text fill="#000000" font-family="sans-serif" font-size="13" lengthAdjust="spacing" textLength="5" x="449.3988" y="89.1023">*</text></g><!--reverse link Status to DenormalizedSamplingStrata--><g id="link_Status_DenormalizedSamplingStrata"><path codeLine="27" d="M358.8606,45.1366 C361.6706,58.7766 364.93,74.59 370.12,99.79 " fill="none" id="Status-backto-DenormalizedSamplingStrata" style="stroke:#181818;stroke-width:1.0;"/><polygon fill="#181818" points="357.65,39.26,355.5482,48.882,358.6589,44.1572,363.3837,47.2678,357.65,39.26" style="stroke:#181818;stroke-width:1.0;"/><text fill="#000000" font-family="sans-serif" font-size="13" lengthAdjust="spacing" textLength="7" x="350.5384" y="60.544">1</text><text fill="#000000" font-family="sans-serif" font-size="13" lengthAdjust="spacing" textLength="5" x="363.4059" y="89.1023">*</text></g><!--reverse link Department to DenormalizedSamplingStrata--><g id="link_Department_DenormalizedSamplingStrata"><path codeLine="29" d="M231.71,301.5 C243.21,301.5 248.7,301.5 260.19,301.5 " fill="none" id="Department-backto-DenormalizedSamplingStrata" style="stroke:#181818;stroke-width:1.0;"/><polygon fill="#181818" points="225.71,301.5,234.71,305.5,230.71,301.5,234.71,297.5,225.71,301.5" style="stroke:#181818;stroke-width:1.0;"/><text fill="#000000" font-family="sans-serif" font-size="13" lengthAdjust="spacing" textLength="22" x="233.5356" y="298.0415">0..1</text><text fill="#000000" font-family="sans-serif" font-size="13" lengthAdjust="spacing" textLength="5" x="247.7398" y="298.6188">*</text></g><!--reverse link Person to DenormalizedSamplingStrata--><g id="link_Person_DenormalizedSamplingStrata"><path codeLine="30" d="M43.9872,279.3982 C41.6372,234.3882 42.59,113.75 119,69.5 C159.77,45.89 182.51,49.14 225,69.5 C241.78,77.54 257.52,87.91 272.2,99.79 " fill="none" id="Person-backto-DenormalizedSamplingStrata" style="stroke:#181818;stroke-width:1.0;"/><polygon fill="#181818" points="44.3,285.39,47.8253,276.1937,44.0393,280.3968,39.8362,276.6108,44.3,285.39" style="stroke:#181818;stroke-width:1.0;"/><text fill="#000000" font-family="sans-serif" font-size="13" lengthAdjust="spacing" textLength="22" x="18.1063" y="274.6577">0..1</text><text fill="#000000" font-family="sans-serif" font-size="13" lengthAdjust="spacing" textLength="5" x="261.6609" y="89.1023">*</text></g><!--link DenormalizedSamplingStrata to Location--><g id="link_DenormalizedSamplingStrata_Location"><path codeLine="32" d="M574.57,301.5 C629.47,301.5 669.31,301.5 707.38,301.5 " fill="none" id="DenormalizedSamplingStrata-Location" style="stroke:#181818;stroke-width:1.0;"/><polygon fill="#181818" points="562.57,301.5,568.57,305.5,574.57,301.5,568.57,297.5,562.57,301.5" style="stroke:#181818;stroke-width:1.0;"/><polygon fill="#181818" points="713.38,301.5,704.38,297.5,708.38,301.5,704.38,305.5,713.38,301.5" style="stroke:#181818;stroke-width:1.0;"/><text fill="#000000" font-family="sans-serif" font-size="13" lengthAdjust="spacing" textLength="114" x="581" y="294.9951">observationLocation</text><text fill="#000000" font-family="sans-serif" font-size="13" lengthAdjust="spacing" textLength="5" x="570.4885" y="298.5945">*</text><text fill="#000000" font-family="sans-serif" font-size="13" lengthAdjust="spacing" textLength="22" x="683.4311" y="316.1959">0..1</text></g></g></svg>