<?xml version="1.0" encoding="us-ascii" standalone="no"?><svg xmlns="http://www.w3.org/2000/svg" xmlns:xlink="http://www.w3.org/1999/xlink" contentStyleType="text/css" height="541px" preserveAspectRatio="none" style="width:845px;height:541px;background:#FFFFFF;" version="1.1" viewBox="0 0 845 541" width="845px" zoomAndPan="magnify"><defs/><g><!--class DenormalizedSamplingStrata--><g id="elem_DenormalizedSamplingStrata"><rect codeLine="3" fill="#F1F1F1" height="434.7704" id="DenormalizedSamplingStrata" rx="2.5" ry="2.5" style="stroke:#181818;stroke-width:0.5;" width="320" x="269" y="100"/><ellipse cx="325.75" cy="122.706" fill="#ADD1B2" rx="11" ry="11" style="stroke:#181818;stroke-width:1.0;"/><path d="M325.2188,129.6279 Q323.4688,129.6279 322.3281,128.8935 Q321.2031,128.1435 320.6406,126.7998 Q320.0938,125.4404 320.0938,123.6435 Q320.0938,121.6123 320.75,120.1591 Q321.4063,118.706 322.6875,117.9248 Q323.9688,117.1435 325.8438,117.1435 Q326.7344,117.1435 327.4063,117.331 Q328.0781,117.5029 328.7656,117.8466 L327.9531,119.8623 Q327.3281,119.5498 326.7813,119.4248 Q326.25,119.2998 325.7656,119.2998 Q324.5938,119.2998 323.8906,119.831 Q323.1875,120.3623 322.8906,121.3154 Q322.5938,122.2685 322.5938,123.5341 Q322.5938,125.5498 323.3125,126.5185 Q324.0313,127.4716 325.625,127.4716 Q326.2188,127.4716 326.8438,127.3154 Q327.4688,127.1591 328.2969,126.7841 L328.2969,129.0029 Q327.5625,129.3154 326.7656,129.4716 Q325.9844,129.6279 325.2188,129.6279 Z " fill="#000000"/><text fill="#000000" font-family="sans-serif" font-size="12" font-style="italic" lengthAdjust="spacing" textLength="42" x="424.25" y="117.8281">&#171;Entity&#187;</text><text fill="#000000" font-family="sans-serif" font-size="14" lengthAdjust="spacing" textLength="198" x="346.25" y="136.31">DenormalizedSamplingStrata</text><line style="stroke:#181818;stroke-width:0.5;" x1="270" x2="588" y1="145.412" y2="145.412"/><ellipse cx="280" cy="160.446" fill="none" rx="3" ry="3" style="stroke:#038048;stroke-width:1.0;"/><text fill="#000000" font-family="sans-serif" font-size="14" lengthAdjust="spacing" textLength="71" x="289" y="164.378">id: Integer</text><ellipse cx="280" cy="179.5139" fill="none" rx="3" ry="3" style="stroke:#038048;stroke-width:1.0;"/><text fill="#000000" font-family="sans-serif" font-size="14" lengthAdjust="spacing" textLength="82" x="289" y="183.4459">label: String</text><ellipse cx="280" cy="198.5818" fill="none" rx="3" ry="3" style="stroke:#038048;stroke-width:1.0;"/><text fill="#000000" font-family="sans-serif" font-size="14" lengthAdjust="spacing" textLength="125" x="289" y="202.5138">name: String [0..1]</text><ellipse cx="280" cy="217.6497" fill="none" rx="3" ry="3" style="stroke:#038048;stroke-width:1.0;"/><text fill="#000000" font-family="sans-serif" font-size="14" lengthAdjust="spacing" textLength="139" x="289" y="221.5817">startDate: Date [0..1]</text><ellipse cx="280" cy="236.7177" fill="none" rx="3" ry="3" style="stroke:#038048;stroke-width:1.0;"/><text fill="#000000" font-family="sans-serif" font-size="14" lengthAdjust="spacing" textLength="134" x="289" y="240.6496">endDate: Date [0..1]</text><ellipse cx="280" cy="255.7856" fill="none" rx="3" ry="3" style="stroke:#038048;stroke-width:1.0;"/><text fill="#000000" font-family="sans-serif" font-size="14" lengthAdjust="spacing" textLength="163" x="289" y="259.7176">description: String [0..1]</text><ellipse cx="280" cy="274.8535" fill="none" rx="3" ry="3" style="stroke:#038048;stroke-width:1.0;"/><text fill="#000000" font-family="sans-serif" font-size="14" lengthAdjust="spacing" textLength="157" x="289" y="278.7855">comments: String [0..1]</text><ellipse cx="280" cy="293.9214" fill="none" rx="3" ry="3" style="stroke:#038048;stroke-width:1.0;"/><text fill="#000000" font-family="sans-serif" font-size="14" lengthAdjust="spacing" textLength="294" x="289" y="297.8534">observationLocationComments: String [0..1]</text><ellipse cx="280" cy="312.9893" fill="none" rx="3" ry="3" style="stroke:#038048;stroke-width:1.0;"/><text fill="#000000" font-family="sans-serif" font-size="14" lengthAdjust="spacing" textLength="206" x="289" y="316.9213">samplingStrategy: String [0..1]</text><ellipse cx="280" cy="332.0572" fill="none" rx="3" ry="3" style="stroke:#038048;stroke-width:1.0;"/><text fill="#000000" font-family="sans-serif" font-size="14" lengthAdjust="spacing" textLength="206" x="289" y="335.9892">taxonGroupName: String [0..1]</text><ellipse cx="280" cy="351.1252" fill="none" rx="3" ry="3" style="stroke:#038048;stroke-width:1.0;"/><text fill="#000000" font-family="sans-serif" font-size="14" lengthAdjust="spacing" textLength="239" x="289" y="355.0571">samplingSchemeLabel: String [0..1]</text><ellipse cx="280" cy="370.1931" fill="none" rx="3" ry="3" style="stroke:#038048;stroke-width:1.0;"/><text fill="#000000" font-family="sans-serif" font-size="14" lengthAdjust="spacing" textLength="243" x="289" y="374.1251">samplingSchemeName: String [0..1]</text><ellipse cx="280" cy="389.261" fill="none" rx="3" ry="3" style="stroke:#038048;stroke-width:1.0;"/><text fill="#000000" font-family="sans-serif" font-size="14" lengthAdjust="spacing" textLength="280" x="289" y="393.193">samplingSchemeDescription: String [0..1]</text><ellipse cx="280" cy="408.3289" fill="none" rx="3" ry="3" style="stroke:#038048;stroke-width:1.0;"/><text fill="#000000" font-family="sans-serif" font-size="14" lengthAdjust="spacing" textLength="198" x="289" y="412.2609">gearMeshRange: String [0..1]</text><ellipse cx="280" cy="427.3968" fill="none" rx="3" ry="3" style="stroke:#038048;stroke-width:1.0;"/><text fill="#000000" font-family="sans-serif" font-size="14" lengthAdjust="spacing" textLength="218" x="289" y="431.3288">vesselLengthRange: String [0..1]</text><ellipse cx="280" cy="446.4647" fill="none" rx="3" ry="3" style="stroke:#038048;stroke-width:1.0;"/><text fill="#000000" font-family="sans-serif" font-size="14" lengthAdjust="spacing" textLength="131" x="289" y="450.3967">metier: String [0..1]</text><ellipse cx="280" cy="465.5327" fill="none" rx="3" ry="3" style="stroke:#038048;stroke-width:1.0;"/><text fill="#000000" font-family="sans-serif" font-size="14" lengthAdjust="spacing" textLength="157" x="289" y="469.4646">areaName: String [0..1]</text><ellipse cx="280" cy="484.6006" fill="none" rx="3" ry="3" style="stroke:#038048;stroke-width:1.0;"/><text fill="#000000" font-family="sans-serif" font-size="14" lengthAdjust="spacing" textLength="220" x="289" y="488.5326">subAreaLocationIds: String [0..1]</text><ellipse cx="280" cy="503.6685" fill="none" rx="3" ry="3" style="stroke:#038048;stroke-width:1.0;"/><text fill="#000000" font-family="sans-serif" font-size="14" lengthAdjust="spacing" textLength="125" x="289" y="507.6005">creationDate: Date</text><ellipse cx="280" cy="522.7364" fill="none" rx="3" ry="3" style="stroke:#038048;stroke-width:1.0;"/><text fill="#000000" font-family="sans-serif" font-size="14" lengthAdjust="spacing" textLength="118" x="289" y="526.6684">updateDate: Date</text></g><!--class Program--><g id="elem_Program"><rect fill="#F1F1F1" height="32" id="Program" rx="2.5" ry="2.5" style="stroke:#181818;stroke-width:0.5;" width="90" x="443" y="7"/><ellipse cx="458" cy="23" fill="#ADD1B2" rx="11" ry="11" style="stroke:#181818;stroke-width:1.0;"/><path d="M457.4688,29.9219 Q455.7188,29.9219 454.5781,29.1875 Q453.4531,28.4375 452.8906,27.0938 Q452.3438,25.7344 452.3438,23.9375 Q452.3438,21.9063 453,20.4531 Q453.6563,19 454.9375,18.2188 Q456.2188,17.4375 458.0938,17.4375 Q458.9844,17.4375 459.6563,17.625 Q460.3281,17.7969 461.0156,18.1406 L460.2031,20.1563 Q459.5781,19.8438 459.0313,19.7188 Q458.5,19.5938 458.0156,19.5938 Q456.8438,19.5938 456.1406,20.125 Q455.4375,20.6563 455.1406,21.6094 Q454.8438,22.5625 454.8438,23.8281 Q454.8438,25.8438 455.5625,26.8125 Q456.2813,27.7656 457.875,27.7656 Q458.4688,27.7656 459.0938,27.6094 Q459.7188,27.4531 460.5469,27.0781 L460.5469,29.2969 Q459.8125,29.6094 459.0156,29.7656 Q458.2344,29.9219 457.4688,29.9219 Z " fill="#000000"/><text fill="#000000" font-family="sans-serif" font-size="14" lengthAdjust="spacing" textLength="58" x="472" y="28.432">Program</text></g><!--class Status--><g id="elem_Status"><rect fill="#F1F1F1" height="32" id="Status" rx="2.5" ry="2.5" style="stroke:#181818;stroke-width:0.5;" width="74" x="334" y="7"/><ellipse cx="349" cy="23" fill="#ADD1B2" rx="11" ry="11" style="stroke:#181818;stroke-width:1.0;"/><path d="M348.4688,29.9219 Q346.7188,29.9219 345.5781,29.1875 Q344.4531,28.4375 343.8906,27.0938 Q343.3438,25.7344 343.3438,23.9375 Q343.3438,21.9063 344,20.4531 Q344.6563,19 345.9375,18.2188 Q347.2188,17.4375 349.0938,17.4375 Q349.9844,17.4375 350.6563,17.625 Q351.3281,17.7969 352.0156,18.1406 L351.2031,20.1563 Q350.5781,19.8438 350.0313,19.7188 Q349.5,19.5938 349.0156,19.5938 Q347.8438,19.5938 347.1406,20.125 Q346.4375,20.6563 346.1406,21.6094 Q345.8438,22.5625 345.8438,23.8281 Q345.8438,25.8438 346.5625,26.8125 Q347.2813,27.7656 348.875,27.7656 Q349.4688,27.7656 350.0938,27.6094 Q350.7188,27.4531 351.5469,27.0781 L351.5469,29.2969 Q350.8125,29.6094 350.0156,29.7656 Q349.2344,29.9219 348.4688,29.9219 Z " fill="#000000"/><text fill="#000000" font-family="sans-serif" font-size="14" lengthAdjust="spacing" textLength="42" x="363" y="28.432">Status</text></g><!--class Department--><g id="elem_Department"><rect fill="#F1F1F1" height="32" id="Department" rx="2.5" ry="2.5" style="stroke:#181818;stroke-width:0.5;" width="113" x="120.5" y="301.5"/><ellipse cx="135.5" cy="317.5" fill="#ADD1B2" rx="11" ry="11" style="stroke:#181818;stroke-width:1.0;"/><path d="M134.9688,324.4219 Q133.2188,324.4219 132.0781,323.6875 Q130.9531,322.9375 130.3906,321.5938 Q129.8438,320.2344 129.8438,318.4375 Q129.8438,316.4063 130.5,314.9531 Q131.1563,313.5 132.4375,312.7188 Q133.7188,311.9375 135.5938,311.9375 Q136.4844,311.9375 137.1563,312.125 Q137.8281,312.2969 138.5156,312.6406 L137.7031,314.6563 Q137.0781,314.3438 136.5313,314.2188 Q136,314.0938 135.5156,314.0938 Q134.3438,314.0938 133.6406,314.625 Q132.9375,315.1563 132.6406,316.1094 Q132.3438,317.0625 132.3438,318.3281 Q132.3438,320.3438 133.0625,321.3125 Q133.7813,322.2656 135.375,322.2656 Q135.9688,322.2656 136.5938,322.1094 Q137.2188,321.9531 138.0469,321.5781 L138.0469,323.7969 Q137.3125,324.1094 136.5156,324.2656 Q135.7344,324.4219 134.9688,324.4219 Z " fill="#000000"/><text fill="#000000" font-family="sans-serif" font-size="14" lengthAdjust="spacing" textLength="81" x="149.5" y="322.932">Department</text></g><!--class Person--><g id="elem_Person"><rect fill="#F1F1F1" height="32" id="Person" rx="2.5" ry="2.5" style="stroke:#181818;stroke-width:0.5;" width="78" x="7" y="301.5"/><ellipse cx="22" cy="317.5" fill="#ADD1B2" rx="11" ry="11" style="stroke:#181818;stroke-width:1.0;"/><path d="M21.4688,324.4219 Q19.7188,324.4219 18.5781,323.6875 Q17.4531,322.9375 16.8906,321.5938 Q16.3438,320.2344 16.3438,318.4375 Q16.3438,316.4063 17,314.9531 Q17.6563,313.5 18.9375,312.7188 Q20.2188,311.9375 22.0938,311.9375 Q22.9844,311.9375 23.6563,312.125 Q24.3281,312.2969 25.0156,312.6406 L24.2031,314.6563 Q23.5781,314.3438 23.0313,314.2188 Q22.5,314.0938 22.0156,314.0938 Q20.8438,314.0938 20.1406,314.625 Q19.4375,315.1563 19.1406,316.1094 Q18.8438,317.0625 18.8438,318.3281 Q18.8438,320.3438 19.5625,321.3125 Q20.2813,322.2656 21.875,322.2656 Q22.4688,322.2656 23.0938,322.1094 Q23.7188,321.9531 24.5469,321.5781 L24.5469,323.7969 Q23.8125,324.1094 23.0156,324.2656 Q22.2344,324.4219 21.4688,324.4219 Z " fill="#000000"/><text fill="#000000" font-family="sans-serif" font-size="14" lengthAdjust="spacing" textLength="46" x="36" y="322.932">Person</text></g><!--class Location--><g id="elem_Location"><rect fill="#F1F1F1" height="32" id="Location" rx="2.5" ry="2.5" style="stroke:#181818;stroke-width:0.5;" width="88" x="750" y="301.5"/><ellipse cx="765" cy="317.5" fill="#ADD1B2" rx="11" ry="11" style="stroke:#181818;stroke-width:1.0;"/><path d="M764.4688,324.4219 Q762.7188,324.4219 761.5781,323.6875 Q760.4531,322.9375 759.8906,321.5938 Q759.3438,320.2344 759.3438,318.4375 Q759.3438,316.4063 760,314.9531 Q760.6563,313.5 761.9375,312.7188 Q763.2188,311.9375 765.0938,311.9375 Q765.9844,311.9375 766.6563,312.125 Q767.3281,312.2969 768.0156,312.6406 L767.2031,314.6563 Q766.5781,314.3438 766.0313,314.2188 Q765.5,314.0938 765.0156,314.0938 Q763.8438,314.0938 763.1406,314.625 Q762.4375,315.1563 762.1406,316.1094 Q761.8438,317.0625 761.8438,318.3281 Q761.8438,320.3438 762.5625,321.3125 Q763.2813,322.2656 764.875,322.2656 Q765.4688,322.2656 766.0938,322.1094 Q766.7188,321.9531 767.5469,321.5781 L767.5469,323.7969 Q766.8125,324.1094 766.0156,324.2656 Q765.2344,324.4219 764.4688,324.4219 Z " fill="#000000"/><text fill="#000000" font-family="sans-serif" font-size="14" lengthAdjust="spacing" textLength="56" x="779" y="322.932">Location</text></g><!--reverse link Program to DenormalizedSamplingStrata--><g id="link_Program_DenormalizedSamplingStrata"><path codeLine="26" d="M483.7233,45.1915 C480.9833,58.7715 477.82,74.45 472.73,99.69 " fill="none" id="Program-backto-DenormalizedSamplingStrata" style="stroke:#181818;stroke-width:1.0;"/><polygon fill="#181818" points="484.91,39.31,479.209,47.3411,483.9211,44.2112,487.0509,48.9233,484.91,39.31" style="stroke:#181818;stroke-width:1.0;"/><text fill="#000000" font-family="sans-serif" font-size="13" lengthAdjust="spacing" textLength="7" x="475.8918" y="60.9132">1</text><text fill="#000000" font-family="sans-serif" font-size="13" lengthAdjust="spacing" textLength="7" x="467.1758" y="88.4708">*</text></g><!--reverse link Status to DenormalizedSamplingStrata--><g id="link_Status_DenormalizedSamplingStrata"><path codeLine="27" d="M375.2059,45.1956 C377.8959,58.7756 381,74.45 386.01,99.69 " fill="none" id="Status-backto-DenormalizedSamplingStrata" style="stroke:#181818;stroke-width:1.0;"/><polygon fill="#181818" points="374.04,39.31,371.865,48.9157,375.0115,44.2147,379.7126,47.3612,374.04,39.31" style="stroke:#181818;stroke-width:1.0;"/><text fill="#000000" font-family="sans-serif" font-size="13" lengthAdjust="spacing" textLength="7" x="366.8991" y="60.9132">1</text><text fill="#000000" font-family="sans-serif" font-size="13" lengthAdjust="spacing" textLength="7" x="377.3393" y="88.4708">*</text></g><!--reverse link Department to DenormalizedSamplingStrata--><g id="link_Department_DenormalizedSamplingStrata"><path codeLine="29" d="M239.6,317.5 C251.31,317.5 257.01,317.5 268.71,317.5 " fill="none" id="Department-backto-DenormalizedSamplingStrata" style="stroke:#181818;stroke-width:1.0;"/><polygon fill="#181818" points="233.6,317.5,242.6,321.5,238.6,317.5,242.6,313.5,233.6,317.5" style="stroke:#181818;stroke-width:1.0;"/><text fill="#000000" font-family="sans-serif" font-size="13" lengthAdjust="spacing" textLength="20" x="241.3006" y="313.455">0..1</text><text fill="#000000" font-family="sans-serif" font-size="13" lengthAdjust="spacing" textLength="7" x="253.7764" y="314.008">*</text></g><!--reverse link Person to DenormalizedSamplingStrata--><g id="link_Person_DenormalizedSamplingStrata"><path codeLine="30" d="M44.0242,295.2958 C40.5842,248.0558 38.61,116.93 120.5,69.5 C163.96,44.33 188.31,47.58 233.5,69.5 C250.27,77.64 266.04,87.98 280.77,99.81 " fill="none" id="Person-backto-DenormalizedSamplingStrata" style="stroke:#181818;stroke-width:1.0;"/><polygon fill="#181818" points="44.46,301.28,47.7958,292.0133,44.0969,296.2932,39.8169,292.5943,44.46,301.28" style="stroke:#181818;stroke-width:1.0;"/><text fill="#000000" font-family="sans-serif" font-size="13" lengthAdjust="spacing" textLength="20" x="20.4931" y="289.8009">0..1</text><text fill="#000000" font-family="sans-serif" font-size="13" lengthAdjust="spacing" textLength="7" x="267.843" y="87.8897">*</text></g><!--link DenormalizedSamplingStrata to Location--><g id="link_DenormalizedSamplingStrata_Location"><path codeLine="32" d="M601.09,317.5 C659.71,317.5 703.45,317.5 743.65,317.5 " fill="none" id="DenormalizedSamplingStrata-Location" style="stroke:#181818;stroke-width:1.0;"/><polygon fill="#181818" points="589.09,317.5,595.09,321.5,601.09,317.5,595.09,313.5,589.09,317.5" style="stroke:#181818;stroke-width:1.0;"/><polygon fill="#181818" points="749.65,317.5,740.65,313.5,744.65,317.5,740.65,321.5,749.65,317.5" style="stroke:#181818;stroke-width:1.0;"/><text fill="#000000" font-family="sans-serif" font-size="13" lengthAdjust="spacing" textLength="124" x="607.5" y="310.397">observationLocation</text><text fill="#000000" font-family="sans-serif" font-size="13" lengthAdjust="spacing" textLength="7" x="597.0139" y="314.008">*</text><text fill="#000000" font-family="sans-serif" font-size="13" lengthAdjust="spacing" textLength="20" x="722.007" y="332.642">0..1</text></g></g></svg>