<?xml version="1.0" encoding="UTF-8" standalone="no"?><svg xmlns="http://www.w3.org/2000/svg" xmlns:xlink="http://www.w3.org/1999/xlink" contentStyleType="text/css" height="287px" preserveAspectRatio="none" style="width:515px;height:287px;background:#FFFFFF;" version="1.1" viewBox="0 0 515 287" width="515px" zoomAndPan="magnify"><defs/><g><text fill="#000000" font-family="sans-serif" font-size="12" font-weight="bold" lengthAdjust="spacing" textLength="139" x="6" y="18.8281">Saisie des mensuration</text><rect fill="#EEEEEE" height="20.3441" rx="5" ry="5" style="stroke:#000000;stroke-width:2.5;" width="52" x="452.5" y="8.5"/><text fill="#000000" font-family="sans-serif" font-size="12" lengthAdjust="spacing" textLength="41" x="458" y="23.3281">Fermer</text><line style="stroke:#AAAAAA;stroke-width:1.0;stroke-dasharray:1.0,2.0;" x1="6" x2="449" y1="36.8441" y2="36.8441"/><text fill="#000000" font-family="sans-serif" font-size="12" lengthAdjust="spacing" textLength="104" x="27" y="55.1722">Saisie mode rafale</text><ellipse cx="14" cy="50.5162" fill="none" rx="5" ry="5" style="stroke:#000000;stroke-width:1.5;"/><ellipse cx="14" cy="50.5162" fill="#000000" rx="2" ry="2" style="stroke:#000000;stroke-width:1.5;"/><text fill="#000000" font-family="sans-serif" font-size="12" lengthAdjust="spacing" textLength="119" x="7" y="93.8604">Espèce commerciale:</text><rect fill="#EEEEEE" height="19.3441" style="stroke:#000000;stroke-width:1.0;" width="143" x="130" y="82.0323"/><text fill="#000000" font-family="sans-serif" font-size="12" lengthAdjust="spacing" textLength="88" x="132" y="96.8604">MNZ - Baudroie</text><line style="stroke:#000000;stroke-width:1.0;" x1="262" x2="262" y1="82.0323" y2="101.3765"/><polygon fill="#000000" points="265,88.0323,271,88.0323,268,96.3765" style="stroke:#000000;stroke-width:1.0;"/><text fill="#000000" font-family="sans-serif" font-size="12" lengthAdjust="spacing" textLength="97" x="296" y="94.8604">Valeur par défaut</text><rect fill="none" height="10" style="stroke:#000000;stroke-width:1.5;" width="10" x="278" y="85.2044"/><polygon fill="#000000" points="279,88.0323,282,91.0323,289,82.0323,282,89.0323" style="stroke:#000000;stroke-width:1.5;"/><text fill="#000000" font-family="sans-serif" font-size="12" lengthAdjust="spacing" textLength="120" x="7" y="118.2045">Débarquement/Rejet:</text><rect fill="#EEEEEE" height="20.3441" rx="5" ry="5" style="stroke:#000000;stroke-width:2.5;" width="60" x="132.5" y="108.8765"/><text fill="#000000" font-family="sans-serif" font-size="12" lengthAdjust="spacing" textLength="44" x="140.5" y="123.7045">Landing</text><rect fill="#EEEEEE" height="20.3441" rx="5" ry="5" style="stroke:#000000;stroke-width:2.5;" width="60" x="199.5" y="108.8765"/><text fill="#000000" font-family="sans-serif" font-size="12" font-weight="bold" lengthAdjust="spacing" textLength="45" x="207" y="123.7045">Discard</text><text fill="#000000" font-family="sans-serif" font-size="12" lengthAdjust="spacing" textLength="109" x="284" y="119.2045">Conserver la valeur</text><rect fill="none" height="10" style="stroke:#000000;stroke-width:1.5;" width="10" x="266" y="109.5485"/><polygon fill="#000000" points="267,112.3765,270,115.3765,277,106.3765,270,113.3765" style="stroke:#000000;stroke-width:1.5;"/><text fill="#000000" font-family="sans-serif" font-size="12" lengthAdjust="spacing" textLength="61" x="7" y="147.5487">Taille (cm):</text><text fill="#000000" font-family="sans-serif" font-size="12" lengthAdjust="spacing" textLength="24" x="133" y="148.5487">10.5</text><line style="stroke:#000000;stroke-width:1.0;" x1="131" x2="262" y1="152.0647" y2="152.0647"/><line style="stroke:#000000;stroke-width:1.0;" x1="131" x2="131" y1="149.0647" y2="151.0647"/><line style="stroke:#000000;stroke-width:1.0;" x1="262" x2="262" y1="149.0647" y2="151.0647"/><rect fill="#EEEEEE" height="20.3441" rx="5" ry="5" style="stroke:#000000;stroke-width:2.5;" width="148" x="132.5" y="160.5647"/><text fill="#000000" font-family="sans-serif" font-size="12" lengthAdjust="spacing" textLength="95" x="159" y="175.3928">Valider (= Entrer)</text><rect fill="#EEEEEE" height="20.3441" rx="5" ry="5" style="stroke:#000000;stroke-width:2.5;" width="156" x="287.5" y="160.5647"/><text fill="#000000" font-family="sans-serif" font-size="12" lengthAdjust="spacing" textLength="108" x="311.5" y="175.3928">Annuler la dernière</text><text fill="#000000" font-family="sans-serif" font-size="12" lengthAdjust="spacing" textLength="8" x="7" y="219.581">#</text><text fill="#000000" font-family="sans-serif" font-size="12" font-weight="bold" lengthAdjust="spacing" textLength="121" x="17" y="219.581">Espèce commerciale</text><text fill="#000000" font-family="sans-serif" font-size="12" font-weight="bold" lengthAdjust="spacing" textLength="62" x="179" y="219.581">Taille (cm)</text><text fill="#000000" font-family="sans-serif" font-size="12" lengthAdjust="spacing" textLength="7" x="7" y="237.9251">3</text><text fill="#000000" font-family="sans-serif" font-size="12" lengthAdjust="spacing" textLength="85" x="17" y="237.9251">MNZ- Baudroie</text><text fill="#000000" font-family="sans-serif" font-size="12" lengthAdjust="spacing" textLength="31" x="179" y="237.9251">15.00</text><path d="M247,225.097 C246.45,225.097 246,225.547 246,226.097 L245,226.097 C244.45,226.097 244,226.547 244,227.097 L251,227.097 C251,226.547 250.55,226.097 250,226.097 L249,226.097 C249,225.547 248.55,225.097 248,225.097 L247,225.097 M245,228.097 L245,232.907 C245,233.017 245.08,233.097 245.19,233.097 L249.82,233.097 C249.93,233.097 250.01,233.017 250.01,232.907 L250.01,228.097 L249.01,228.097 L249.01,231.597 C249.01,231.877 248.79,232.097 248.51,232.097 C248.23,232.097 248.01,231.877 248.01,231.597 L248.01,228.097 L247.01,228.097 L247.01,231.597 C247.01,231.877 246.79,232.097 246.51,232.097 C246.23,232.097 246.01,231.877 246.01,231.597 L246.01,228.097 L245.01,228.097 " fill="#000000" style="stroke:;stroke-width:0.0;stroke-dasharray:;"/><text fill="#000000" font-family="sans-serif" font-size="12" lengthAdjust="spacing" textLength="7" x="7" y="256.2692">2</text><text fill="#000000" font-family="sans-serif" font-size="12" lengthAdjust="spacing" textLength="85" x="17" y="256.2692">MNZ- Baudroie</text><text fill="#000000" font-family="sans-serif" font-size="12" lengthAdjust="spacing" textLength="31" x="179" y="256.2692">15.00</text><path d="M247,243.4411 C246.45,243.4411 246,243.8911 246,244.4411 L245,244.4411 C244.45,244.4411 244,244.8911 244,245.4411 L251,245.4411 C251,244.8911 250.55,244.4411 250,244.4411 L249,244.4411 C249,243.8911 248.55,243.4411 248,243.4411 L247,243.4411 M245,246.4411 L245,251.2511 C245,251.3611 245.08,251.4411 245.19,251.4411 L249.82,251.4411 C249.93,251.4411 250.01,251.3611 250.01,251.2511 L250.01,246.4411 L249.01,246.4411 L249.01,249.9411 C249.01,250.2211 248.79,250.4411 248.51,250.4411 C248.23,250.4411 248.01,250.2211 248.01,249.9411 L248.01,246.4411 L247.01,246.4411 L247.01,249.9411 C247.01,250.2211 246.79,250.4411 246.51,250.4411 C246.23,250.4411 246.01,250.2211 246.01,249.9411 L246.01,246.4411 L245.01,246.4411 " fill="#000000" style="stroke:;stroke-width:0.0;stroke-dasharray:;"/><text fill="#000000" font-family="sans-serif" font-size="12" lengthAdjust="spacing" textLength="7" x="7" y="274.6133">1</text><text fill="#000000" font-family="sans-serif" font-size="12" lengthAdjust="spacing" textLength="160" x="17" y="274.6133">NEP - Langoustine commune</text><text fill="#000000" font-family="sans-serif" font-size="12" lengthAdjust="spacing" textLength="31" x="179" y="274.6133">77.50</text><path d="M247,261.7853 C246.45,261.7853 246,262.2353 246,262.7853 L245,262.7853 C244.45,262.7853 244,263.2353 244,263.7853 L251,263.7853 C251,263.2353 250.55,262.7853 250,262.7853 L249,262.7853 C249,262.2353 248.55,261.7853 248,261.7853 L247,261.7853 M245,264.7853 L245,269.5953 C245,269.7053 245.08,269.7853 245.19,269.7853 L249.82,269.7853 C249.93,269.7853 250.01,269.7053 250.01,269.5953 L250.01,264.7853 L249.01,264.7853 L249.01,268.2853 C249.01,268.5653 248.79,268.7853 248.51,268.7853 C248.23,268.7853 248.01,268.5653 248.01,268.2853 L248.01,264.7853 L247.01,264.7853 L247.01,268.2853 C247.01,268.5653 246.79,268.7853 246.51,268.7853 C246.23,268.7853 246.01,268.5653 246.01,268.2853 L246.01,264.7853 L245.01,264.7853 " fill="#000000" style="stroke:;stroke-width:0.0;stroke-dasharray:;"/><line style="stroke:#000000;stroke-width:1.0;" x1="6" x2="16" y1="205.7529" y2="205.7529"/><line style="stroke:#000000;stroke-width:1.0;" x1="178" x2="242" y1="242.4411" y2="242.4411"/><line style="stroke:#000000;stroke-width:1.0;" x1="16" x2="178" y1="205.7529" y2="205.7529"/><line style="stroke:#000000;stroke-width:1.0;" x1="242" x2="254" y1="242.4411" y2="242.4411"/><line style="stroke:#000000;stroke-width:1.0;" x1="178" x2="242" y1="205.7529" y2="205.7529"/><line style="stroke:#000000;stroke-width:1.0;" x1="242" x2="254" y1="205.7529" y2="205.7529"/><line style="stroke:#000000;stroke-width:1.0;" x1="6" x2="16" y1="260.7853" y2="260.7853"/><line style="stroke:#000000;stroke-width:1.0;" x1="16" x2="178" y1="260.7853" y2="260.7853"/><line style="stroke:#000000;stroke-width:1.0;" x1="6" x2="16" y1="224.097" y2="224.097"/><line style="stroke:#000000;stroke-width:1.0;" x1="178" x2="242" y1="260.7853" y2="260.7853"/><line style="stroke:#000000;stroke-width:1.0;" x1="16" x2="178" y1="224.097" y2="224.097"/><line style="stroke:#000000;stroke-width:1.0;" x1="242" x2="254" y1="260.7853" y2="260.7853"/><line style="stroke:#000000;stroke-width:1.0;" x1="178" x2="242" y1="224.097" y2="224.097"/><line style="stroke:#000000;stroke-width:1.0;" x1="242" x2="254" y1="224.097" y2="224.097"/><line style="stroke:#000000;stroke-width:1.0;" x1="6" x2="16" y1="279.1294" y2="279.1294"/><line style="stroke:#000000;stroke-width:1.0;" x1="16" x2="178" y1="279.1294" y2="279.1294"/><line style="stroke:#000000;stroke-width:1.0;" x1="178" x2="242" y1="279.1294" y2="279.1294"/><line style="stroke:#000000;stroke-width:1.0;" x1="6" x2="16" y1="242.4411" y2="242.4411"/><line style="stroke:#000000;stroke-width:1.0;" x1="242" x2="254" y1="279.1294" y2="279.1294"/><line style="stroke:#000000;stroke-width:1.0;" x1="16" x2="178" y1="242.4411" y2="242.4411"/><line style="stroke:#000000;stroke-width:1.0;" x1="6" x2="6" y1="205.7529" y2="224.097"/><line style="stroke:#000000;stroke-width:1.0;" x1="178" x2="178" y1="242.4411" y2="260.7853"/><line style="stroke:#000000;stroke-width:1.0;" x1="16" x2="16" y1="205.7529" y2="224.097"/><line style="stroke:#000000;stroke-width:1.0;" x1="242" x2="242" y1="242.4411" y2="260.7853"/><line style="stroke:#000000;stroke-width:1.0;" x1="254" x2="254" y1="242.4411" y2="260.7853"/><line style="stroke:#000000;stroke-width:1.0;" x1="178" x2="178" y1="205.7529" y2="224.097"/><line style="stroke:#000000;stroke-width:1.0;" x1="242" x2="242" y1="205.7529" y2="224.097"/><line style="stroke:#000000;stroke-width:1.0;" x1="254" x2="254" y1="205.7529" y2="224.097"/><line style="stroke:#000000;stroke-width:1.0;" x1="6" x2="6" y1="260.7853" y2="279.1294"/><line style="stroke:#000000;stroke-width:1.0;" x1="16" x2="16" y1="260.7853" y2="279.1294"/><line style="stroke:#000000;stroke-width:1.0;" x1="6" x2="6" y1="224.097" y2="242.4411"/><line style="stroke:#000000;stroke-width:1.0;" x1="178" x2="178" y1="260.7853" y2="279.1294"/><line style="stroke:#000000;stroke-width:1.0;" x1="16" x2="16" y1="224.097" y2="242.4411"/><line style="stroke:#000000;stroke-width:1.0;" x1="242" x2="242" y1="260.7853" y2="279.1294"/><line style="stroke:#000000;stroke-width:1.0;" x1="254" x2="254" y1="260.7853" y2="279.1294"/><line style="stroke:#000000;stroke-width:1.0;" x1="178" x2="178" y1="224.097" y2="242.4411"/><line style="stroke:#000000;stroke-width:1.0;" x1="242" x2="242" y1="224.097" y2="242.4411"/><line style="stroke:#000000;stroke-width:1.0;" x1="254" x2="254" y1="224.097" y2="242.4411"/><line style="stroke:#000000;stroke-width:1.0;" x1="6" x2="6" y1="242.4411" y2="260.7853"/><line style="stroke:#000000;stroke-width:1.0;" x1="16" x2="16" y1="242.4411" y2="260.7853"/><line style="stroke:#000000;stroke-width:1.0;" x1="5" x2="449" y1="5" y2="5"/><line style="stroke:#000000;stroke-width:1.0;" x1="449" x2="508" y1="5" y2="5"/><line style="stroke:#000000;stroke-width:1.0;" x1="5" x2="449" y1="280.1294" y2="280.1294"/><line style="stroke:#000000;stroke-width:1.0;" x1="449" x2="508" y1="280.1294" y2="280.1294"/><line style="stroke:#000000;stroke-width:1.0;" x1="5" x2="5" y1="5" y2="32.3441"/><line style="stroke:#000000;stroke-width:1.0;" x1="508" x2="508" y1="40.3441" y2="60.6882"/><line style="stroke:#000000;stroke-width:1.0;" x1="508" x2="508" y1="32.3441" y2="40.3441"/><line style="stroke:#000000;stroke-width:1.0;" x1="508" x2="508" y1="5" y2="32.3441"/><line style="stroke:#000000;stroke-width:1.0;" x1="5" x2="5" y1="204.7529" y2="280.1294"/><line style="stroke:#000000;stroke-width:1.0;" x1="5" x2="5" y1="60.6882" y2="204.7529"/><line style="stroke:#000000;stroke-width:1.0;" x1="5" x2="5" y1="40.3441" y2="60.6882"/><line style="stroke:#000000;stroke-width:1.0;" x1="508" x2="508" y1="204.7529" y2="280.1294"/><line style="stroke:#000000;stroke-width:1.0;" x1="5" x2="5" y1="32.3441" y2="40.3441"/><line style="stroke:#000000;stroke-width:1.0;" x1="508" x2="508" y1="60.6882" y2="204.7529"/></g></svg>