<?xml version="1.0" encoding="UTF-8" standalone="no"?><svg xmlns="http://www.w3.org/2000/svg" xmlns:xlink="http://www.w3.org/1999/xlink" contentScriptType="application/ecmascript" contentStyleType="text/css" height="346px" preserveAspectRatio="none" style="width:607px;height:346px;" version="1.1" viewBox="0 0 607 346" width="607px" zoomAndPan="magnify"><defs/><g><text fill="#000000" font-family="sans-serif" font-size="12" font-weight="bold" lengthAdjust="spacingAndGlyphs" textLength="167" x="6" y="17.1387">Saisie des mensuration</text><rect fill="#EEEEEE" height="17.9688" rx="5" ry="5" style="stroke: #000000; stroke-width: 2.5;" width="52" x="544.5" y="8.5"/><text fill="#000000" font-family="sans-serif" font-size="12" lengthAdjust="spacingAndGlyphs" textLength="44" x="548.5" y="21.6387">Fermer</text><line style="stroke: #AAAAAA; stroke-width: 1.0; stroke-dasharray: 1.0,2.0;" x1="6" x2="541" y1="34.4688" y2="34.4688"/><text fill="#000000" font-family="sans-serif" font-size="12" lengthAdjust="spacingAndGlyphs" textLength="113" x="27" y="51.1074">Saisie par individu</text><ellipse cx="14" cy="46.9531" fill="none" rx="5" ry="5" style="stroke: #000000; stroke-width: 1.5;"/><ellipse cx="14" cy="46.9531" fill="#000000" rx="2" ry="2" style="stroke: #000000; stroke-width: 1.5;"/><text fill="#000000" font-family="sans-serif" font-size="12" lengthAdjust="spacingAndGlyphs" textLength="171" x="162" y="51.1074">Saisie du nombre d'individu</text><ellipse cx="149" cy="46.9531" fill="none" rx="5" ry="5" style="stroke: #000000; stroke-width: 1.5;"/><text fill="#000000" font-family="sans-serif" font-size="12" lengthAdjust="spacingAndGlyphs" textLength="133" x="7" y="85.0449">Espèce commerciale:</text><rect fill="#EEEEEE" height="16.9688" style="stroke: #000000; stroke-width: 1.0;" width="143" x="144" y="74.9063"/><text fill="#000000" font-family="sans-serif" font-size="12" lengthAdjust="spacingAndGlyphs" textLength="96" x="146" y="88.0449">MNZ - Baudroie</text><line style="stroke: #000000; stroke-width: 1.0;" x1="276" x2="276" y1="74.9063" y2="91.875"/><polygon fill="#000000" points="279,80.9063,285,80.9063,282,86.875" style="stroke: #000000; stroke-width: 1.0;"/><text fill="#000000" font-family="sans-serif" font-size="12" lengthAdjust="spacingAndGlyphs" textLength="110" x="310" y="86.0449">Valeur par défaut</text><rect fill="none" height="10" style="stroke: #000000; stroke-width: 1.5;" width="10" x="292" y="76.8906"/><polygon fill="#000000" points="293,80.9063,296,83.9063,303,74.9063,296,81.9063" style="stroke: #000000; stroke-width: 1.5;"/><text fill="#000000" font-family="sans-serif" font-size="12" font-style="italic" lengthAdjust="spacingAndGlyphs" textLength="124" x="7" y="107.0137">Espèce scientifique:</text><rect fill="#EEEEEE" height="16.9688" style="stroke: #000000; stroke-width: 1.0;" width="143" x="144" y="96.875"/><text fill="#000000" font-family="sans-serif" font-size="12" lengthAdjust="spacingAndGlyphs" textLength="114" x="146" y="110.0137">Lohius budegassa</text><line style="stroke: #000000; stroke-width: 1.0;" x1="276" x2="276" y1="96.875" y2="113.8438"/><polygon fill="#000000" points="279,102.875,285,102.875,282,108.8438" style="stroke: #000000; stroke-width: 1.0;"/><text fill="#000000" font-family="sans-serif" font-size="12" lengthAdjust="spacingAndGlyphs" textLength="120" x="310" y="108.0137">Conserver la valeur</text><rect fill="none" height="10" style="stroke: #000000; stroke-width: 1.5;" width="10" x="292" y="98.8594"/><polygon fill="#000000" points="293,102.875,296,105.875,303,96.875,296,103.875" style="stroke: #000000; stroke-width: 1.5;"/><text fill="#000000" font-family="sans-serif" font-size="12" lengthAdjust="spacingAndGlyphs" textLength="134" x="7" y="128.9824">Débarquement/Rejet:</text><rect fill="#EEEEEE" height="16.9688" style="stroke: #000000; stroke-width: 1.0;" width="143" x="144" y="118.8438"/><text fill="#000000" font-family="sans-serif" font-size="12" lengthAdjust="spacingAndGlyphs" textLength="84" x="146" y="131.9824">LAN - Landing</text><line style="stroke: #000000; stroke-width: 1.0;" x1="276" x2="276" y1="118.8438" y2="135.8125"/><polygon fill="#000000" points="279,124.8438,285,124.8438,282,130.8125" style="stroke: #000000; stroke-width: 1.0;"/><text fill="#000000" font-family="sans-serif" font-size="12" lengthAdjust="spacingAndGlyphs" textLength="120" x="310" y="129.9824">Conserver la valeur</text><rect fill="none" height="10" style="stroke: #000000; stroke-width: 1.5;" width="10" x="292" y="120.8281"/><polygon fill="#000000" points="293,124.8438,296,127.8438,303,118.8438,296,125.8438" style="stroke: #000000; stroke-width: 1.5;"/><text fill="#000000" font-family="sans-serif" font-size="12" lengthAdjust="spacingAndGlyphs" textLength="134" x="7" y="150.9512">Débarquement/Rejet:</text><rect fill="#EEEEEE" height="17.9688" rx="5" ry="5" style="stroke: #000000; stroke-width: 2.5;" width="108" x="146.5" y="143.3125"/><text fill="#000000" font-family="sans-serif" font-size="12" lengthAdjust="spacingAndGlyphs" textLength="84" x="158.5" y="156.4512">LAN - Landing</text><rect fill="#EEEEEE" height="17.9688" rx="5" ry="5" style="stroke: #000000; stroke-width: 2.5;" width="132" x="261.5" y="143.3125"/><text fill="#000000" font-family="sans-serif" font-size="12" font-weight="bold" lengthAdjust="spacingAndGlyphs" textLength="89" x="283" y="156.4512">DIS - Discard</text><text fill="#000000" font-family="sans-serif" font-size="12" lengthAdjust="spacingAndGlyphs" textLength="120" x="418" y="151.9512">Conserver la valeur</text><rect fill="none" height="10" style="stroke: #000000; stroke-width: 1.5;" width="10" x="400" y="142.7969"/><polygon fill="#000000" points="401,146.8125,404,149.8125,411,140.8125,404,147.8125" style="stroke: #000000; stroke-width: 1.5;"/><text fill="#000000" font-family="sans-serif" font-size="12" lengthAdjust="spacingAndGlyphs" textLength="26" x="7" y="177.9199">Sex:</text><rect fill="#EEEEEE" height="16.9688" style="stroke: #000000; stroke-width: 1.0;" width="143" x="144" y="167.7813"/><text fill="#000000" font-family="sans-serif" font-size="12" lengthAdjust="spacingAndGlyphs" textLength="67" x="146" y="180.9199">F - Femelle</text><line style="stroke: #000000; stroke-width: 1.0;" x1="276" x2="276" y1="167.7813" y2="184.75"/><polygon fill="#000000" points="279,173.7813,285,173.7813,282,179.75" style="stroke: #000000; stroke-width: 1.0;"/><text fill="#000000" font-family="sans-serif" font-size="12" lengthAdjust="spacingAndGlyphs" textLength="120" x="310" y="178.9199">Conserver la valeur</text><rect fill="none" height="10" style="stroke: #000000; stroke-width: 1.5;" width="10" x="292" y="169.7656"/><polygon fill="#000000" points="293,173.7813,296,176.7813,303,167.7813,296,174.7813" style="stroke: #000000; stroke-width: 1.5;"/><text fill="#000000" font-family="sans-serif" font-size="12" lengthAdjust="spacingAndGlyphs" textLength="56" x="7" y="199.8887">Maturité:</text><rect fill="#EEEEEE" height="16.9688" style="stroke: #000000; stroke-width: 1.0;" width="143" x="144" y="189.75"/><text fill="#000000" font-family="sans-serif" font-size="12" lengthAdjust="spacingAndGlyphs" textLength="66" x="146" y="202.8887">M - Mature</text><line style="stroke: #000000; stroke-width: 1.0;" x1="276" x2="276" y1="189.75" y2="206.7188"/><polygon fill="#000000" points="279,195.75,285,195.75,282,201.7188" style="stroke: #000000; stroke-width: 1.0;"/><text fill="#000000" font-family="sans-serif" font-size="12" lengthAdjust="spacingAndGlyphs" textLength="120" x="310" y="200.8887">Conserver la valeur</text><rect fill="none" height="10" style="stroke: #000000; stroke-width: 1.5;" width="10" x="292" y="191.7344"/><polygon fill="#000000" points="293,195.75,296,198.75,303,189.75,296,196.75" style="stroke: #000000; stroke-width: 1.5;"/><text fill="#000000" font-family="sans-serif" font-size="12" lengthAdjust="spacingAndGlyphs" textLength="68" x="7" y="221.8574">Taille (cm):</text><text fill="#000000" font-family="sans-serif" font-size="12" lengthAdjust="spacingAndGlyphs" textLength="28" x="147" y="222.8574">10.5</text><line style="stroke: #000000; stroke-width: 1.0;" x1="145" x2="276" y1="225.6875" y2="225.6875"/><line style="stroke: #000000; stroke-width: 1.0;" x1="145" x2="145" y1="222.6875" y2="224.6875"/><line style="stroke: #000000; stroke-width: 1.0;" x1="276" x2="276" y1="222.6875" y2="224.6875"/><rect fill="#EEEEEE" height="17.9688" rx="5" ry="5" style="stroke: #000000; stroke-width: 2.5;" width="148" x="146.5" y="234.1875"/><text fill="#000000" font-family="sans-serif" font-size="12" lengthAdjust="spacingAndGlyphs" textLength="110" x="165.5" y="247.3262">Valider (= Entrer)</text><rect fill="#EEEEEE" height="17.9688" rx="5" ry="5" style="stroke: #000000; stroke-width: 2.5;" width="156" x="301.5" y="234.1875"/><text fill="#000000" font-family="sans-serif" font-size="12" lengthAdjust="spacingAndGlyphs" textLength="120" x="319.5" y="247.3262">Annuler la dernière</text><text fill="#000000" font-family="sans-serif" font-size="12" lengthAdjust="spacingAndGlyphs" textLength="10" x="7" y="286.7637">#</text><text fill="#000000" font-family="sans-serif" font-size="12" font-weight="bold" lengthAdjust="spacingAndGlyphs" textLength="142" x="19" y="286.7637">Espèce commerciale</text><text fill="#000000" font-family="sans-serif" font-size="12" font-weight="bold" lengthAdjust="spacingAndGlyphs" textLength="25" x="200" y="286.7637">Sex</text><text fill="#000000" font-family="sans-serif" font-size="12" font-weight="bold" lengthAdjust="spacingAndGlyphs" textLength="61" x="270" y="286.7637">Maturité</text><text fill="#000000" font-family="sans-serif" font-size="12" font-weight="bold" lengthAdjust="spacingAndGlyphs" textLength="71" x="344" y="286.7637">Taille (cm)</text><text fill="#000000" font-family="sans-serif" font-size="12" lengthAdjust="spacingAndGlyphs" textLength="8" x="7" y="302.7324">3</text><text fill="#000000" font-family="sans-serif" font-size="12" lengthAdjust="spacingAndGlyphs" textLength="92" x="19" y="302.7324">MNZ- Baudroie</text><text fill="#000000" font-family="sans-serif" font-size="12" lengthAdjust="spacingAndGlyphs" textLength="68" x="200" y="302.7324">F - Femel...</text><text fill="#000000" font-family="sans-serif" font-size="12" lengthAdjust="spacingAndGlyphs" textLength="62" x="270" y="302.7324">M- Mature</text><text fill="#000000" font-family="sans-serif" font-size="12" lengthAdjust="spacingAndGlyphs" textLength="36" x="344" y="302.7324">15.00</text><path d="M421,291.5938 C420.45,291.5938 420,292.0438 420,292.5938 L419,292.5938 C418.45,292.5938 418,293.0438 418,293.5938 L425,293.5938 C425,293.0438 424.55,292.5938 424,292.5938 L423,292.5938 C423,292.0438 422.55,291.5938 422,291.5938 L421,291.5938 M419,294.5938 L419,299.4068 C419,299.5168 419.077,299.5948 419.188,299.5948 L423.813,299.5948 C423.923,299.5948 424.001,299.5178 424.001,299.4068 L424.001,294.5938 L423.001,294.5938 L423.001,298.0938 C423.001,298.3738 422.781,298.5938 422.501,298.5938 C422.221,298.5938 422.001,298.3738 422.001,298.0938 L422.001,294.5938 L421.001,294.5938 L421.001,298.0938 C421.001,298.3738 420.781,298.5938 420.501,298.5938 C420.221,298.5938 420.001,298.3738 420.001,298.0938 L420.001,294.5938 L419.001,294.5938 " fill="#000000" style="stroke: ; stroke-width: 0.0; stroke-dasharray: ;"/><text fill="#000000" font-family="sans-serif" font-size="12" lengthAdjust="spacingAndGlyphs" textLength="8" x="7" y="318.7012">2</text><text fill="#000000" font-family="sans-serif" font-size="12" lengthAdjust="spacingAndGlyphs" textLength="92" x="19" y="318.7012">MNZ- Baudroie</text><text fill="#000000" font-family="sans-serif" font-size="12" lengthAdjust="spacingAndGlyphs" textLength="68" x="200" y="318.7012">F - Femel...</text><text fill="#000000" font-family="sans-serif" font-size="12" lengthAdjust="spacingAndGlyphs" textLength="62" x="270" y="318.7012">M- Mature</text><text fill="#000000" font-family="sans-serif" font-size="12" lengthAdjust="spacingAndGlyphs" textLength="36" x="344" y="318.7012">15.00</text><path d="M421,307.5625 C420.45,307.5625 420,308.0125 420,308.5625 L419,308.5625 C418.45,308.5625 418,309.0125 418,309.5625 L425,309.5625 C425,309.0125 424.55,308.5625 424,308.5625 L423,308.5625 C423,308.0125 422.55,307.5625 422,307.5625 L421,307.5625 M419,310.5625 L419,315.3755 C419,315.4855 419.077,315.5635 419.188,315.5635 L423.813,315.5635 C423.923,315.5635 424.001,315.4865 424.001,315.3755 L424.001,310.5625 L423.001,310.5625 L423.001,314.0625 C423.001,314.3425 422.781,314.5625 422.501,314.5625 C422.221,314.5625 422.001,314.3425 422.001,314.0625 L422.001,310.5625 L421.001,310.5625 L421.001,314.0625 C421.001,314.3425 420.781,314.5625 420.501,314.5625 C420.221,314.5625 420.001,314.3425 420.001,314.0625 L420.001,310.5625 L419.001,310.5625 " fill="#000000" style="stroke: ; stroke-width: 0.0; stroke-dasharray: ;"/><text fill="#000000" font-family="sans-serif" font-size="12" lengthAdjust="spacingAndGlyphs" textLength="8" x="7" y="334.6699">1</text><text fill="#000000" font-family="sans-serif" font-size="12" lengthAdjust="spacingAndGlyphs" textLength="179" x="19" y="334.6699">NEP - Langoustine commune</text><text fill="#000000" font-family="sans-serif" font-size="12" lengthAdjust="spacingAndGlyphs" textLength="68" x="200" y="334.6699">F - Femel...</text><text fill="#000000" font-family="sans-serif" font-size="12" lengthAdjust="spacingAndGlyphs" textLength="72" x="270" y="334.6699">I - Indéter...</text><text fill="#000000" font-family="sans-serif" font-size="12" lengthAdjust="spacingAndGlyphs" textLength="36" x="344" y="334.6699">77.50</text><path d="M421,323.5313 C420.45,323.5313 420,323.9813 420,324.5313 L419,324.5313 C418.45,324.5313 418,324.9813 418,325.5313 L425,325.5313 C425,324.9813 424.55,324.5313 424,324.5313 L423,324.5313 C423,323.9813 422.55,323.5313 422,323.5313 L421,323.5313 M419,326.5313 L419,331.3443 C419,331.4543 419.077,331.5323 419.188,331.5323 L423.813,331.5323 C423.923,331.5323 424.001,331.4553 424.001,331.3443 L424.001,326.5313 L423.001,326.5313 L423.001,330.0313 C423.001,330.3113 422.781,330.5313 422.501,330.5313 C422.221,330.5313 422.001,330.3113 422.001,330.0313 L422.001,326.5313 L421.001,326.5313 L421.001,330.0313 C421.001,330.3113 420.781,330.5313 420.501,330.5313 C420.221,330.5313 420.001,330.3113 420.001,330.0313 L420.001,326.5313 L419.001,326.5313 " fill="#000000" style="stroke: ; stroke-width: 0.0; stroke-dasharray: ;"/><line style="stroke: #000000; stroke-width: 1.0;" x1="6" x2="18" y1="274.625" y2="274.625"/><line style="stroke: #000000; stroke-width: 1.0;" x1="343" x2="416" y1="338.5" y2="338.5"/><line style="stroke: #000000; stroke-width: 1.0;" x1="18" x2="199" y1="274.625" y2="274.625"/><line style="stroke: #000000; stroke-width: 1.0;" x1="416" x2="428" y1="338.5" y2="338.5"/><line style="stroke: #000000; stroke-width: 1.0;" x1="199" x2="269" y1="274.625" y2="274.625"/><line style="stroke: #000000; stroke-width: 1.0;" x1="269" x2="343" y1="274.625" y2="274.625"/><line style="stroke: #000000; stroke-width: 1.0;" x1="343" x2="416" y1="274.625" y2="274.625"/><line style="stroke: #000000; stroke-width: 1.0;" x1="416" x2="428" y1="274.625" y2="274.625"/><line style="stroke: #000000; stroke-width: 1.0;" x1="6" x2="18" y1="322.5313" y2="322.5313"/><line style="stroke: #000000; stroke-width: 1.0;" x1="18" x2="199" y1="322.5313" y2="322.5313"/><line style="stroke: #000000; stroke-width: 1.0;" x1="199" x2="269" y1="322.5313" y2="322.5313"/><line style="stroke: #000000; stroke-width: 1.0;" x1="269" x2="343" y1="322.5313" y2="322.5313"/><line style="stroke: #000000; stroke-width: 1.0;" x1="343" x2="416" y1="322.5313" y2="322.5313"/><line style="stroke: #000000; stroke-width: 1.0;" x1="416" x2="428" y1="322.5313" y2="322.5313"/><line style="stroke: #000000; stroke-width: 1.0;" x1="6" x2="18" y1="306.5625" y2="306.5625"/><line style="stroke: #000000; stroke-width: 1.0;" x1="18" x2="199" y1="306.5625" y2="306.5625"/><line style="stroke: #000000; stroke-width: 1.0;" x1="199" x2="269" y1="306.5625" y2="306.5625"/><line style="stroke: #000000; stroke-width: 1.0;" x1="269" x2="343" y1="306.5625" y2="306.5625"/><line style="stroke: #000000; stroke-width: 1.0;" x1="343" x2="416" y1="306.5625" y2="306.5625"/><line style="stroke: #000000; stroke-width: 1.0;" x1="416" x2="428" y1="306.5625" y2="306.5625"/><line style="stroke: #000000; stroke-width: 1.0;" x1="6" x2="18" y1="290.5938" y2="290.5938"/><line style="stroke: #000000; stroke-width: 1.0;" x1="18" x2="199" y1="290.5938" y2="290.5938"/><line style="stroke: #000000; stroke-width: 1.0;" x1="199" x2="269" y1="290.5938" y2="290.5938"/><line style="stroke: #000000; stroke-width: 1.0;" x1="269" x2="343" y1="290.5938" y2="290.5938"/><line style="stroke: #000000; stroke-width: 1.0;" x1="343" x2="416" y1="290.5938" y2="290.5938"/><line style="stroke: #000000; stroke-width: 1.0;" x1="416" x2="428" y1="290.5938" y2="290.5938"/><line style="stroke: #000000; stroke-width: 1.0;" x1="6" x2="18" y1="338.5" y2="338.5"/><line style="stroke: #000000; stroke-width: 1.0;" x1="18" x2="199" y1="338.5" y2="338.5"/><line style="stroke: #000000; stroke-width: 1.0;" x1="199" x2="269" y1="338.5" y2="338.5"/><line style="stroke: #000000; stroke-width: 1.0;" x1="269" x2="343" y1="338.5" y2="338.5"/><line style="stroke: #000000; stroke-width: 1.0;" x1="6" x2="6" y1="274.625" y2="290.5938"/><line style="stroke: #000000; stroke-width: 1.0;" x1="18" x2="18" y1="274.625" y2="290.5938"/><line style="stroke: #000000; stroke-width: 1.0;" x1="199" x2="199" y1="274.625" y2="290.5938"/><line style="stroke: #000000; stroke-width: 1.0;" x1="269" x2="269" y1="274.625" y2="290.5938"/><line style="stroke: #000000; stroke-width: 1.0;" x1="343" x2="343" y1="274.625" y2="290.5938"/><line style="stroke: #000000; stroke-width: 1.0;" x1="416" x2="416" y1="274.625" y2="290.5938"/><line style="stroke: #000000; stroke-width: 1.0;" x1="428" x2="428" y1="274.625" y2="290.5938"/><line style="stroke: #000000; stroke-width: 1.0;" x1="6" x2="6" y1="322.5313" y2="338.5"/><line style="stroke: #000000; stroke-width: 1.0;" x1="18" x2="18" y1="322.5313" y2="338.5"/><line style="stroke: #000000; stroke-width: 1.0;" x1="199" x2="199" y1="322.5313" y2="338.5"/><line style="stroke: #000000; stroke-width: 1.0;" x1="269" x2="269" y1="322.5313" y2="338.5"/><line style="stroke: #000000; stroke-width: 1.0;" x1="343" x2="343" y1="322.5313" y2="338.5"/><line style="stroke: #000000; stroke-width: 1.0;" x1="416" x2="416" y1="322.5313" y2="338.5"/><line style="stroke: #000000; stroke-width: 1.0;" x1="428" x2="428" y1="322.5313" y2="338.5"/><line style="stroke: #000000; stroke-width: 1.0;" x1="6" x2="6" y1="306.5625" y2="322.5313"/><line style="stroke: #000000; stroke-width: 1.0;" x1="18" x2="18" y1="306.5625" y2="322.5313"/><line style="stroke: #000000; stroke-width: 1.0;" x1="199" x2="199" y1="306.5625" y2="322.5313"/><line style="stroke: #000000; stroke-width: 1.0;" x1="269" x2="269" y1="306.5625" y2="322.5313"/><line style="stroke: #000000; stroke-width: 1.0;" x1="343" x2="343" y1="306.5625" y2="322.5313"/><line style="stroke: #000000; stroke-width: 1.0;" x1="416" x2="416" y1="306.5625" y2="322.5313"/><line style="stroke: #000000; stroke-width: 1.0;" x1="428" x2="428" y1="306.5625" y2="322.5313"/><line style="stroke: #000000; stroke-width: 1.0;" x1="6" x2="6" y1="290.5938" y2="306.5625"/><line style="stroke: #000000; stroke-width: 1.0;" x1="18" x2="18" y1="290.5938" y2="306.5625"/><line style="stroke: #000000; stroke-width: 1.0;" x1="199" x2="199" y1="290.5938" y2="306.5625"/><line style="stroke: #000000; stroke-width: 1.0;" x1="269" x2="269" y1="290.5938" y2="306.5625"/><line style="stroke: #000000; stroke-width: 1.0;" x1="343" x2="343" y1="290.5938" y2="306.5625"/><line style="stroke: #000000; stroke-width: 1.0;" x1="416" x2="416" y1="290.5938" y2="306.5625"/><line style="stroke: #000000; stroke-width: 1.0;" x1="428" x2="428" y1="290.5938" y2="306.5625"/><line style="stroke: #000000; stroke-width: 1.0;" x1="5" x2="541" y1="5" y2="5"/><line style="stroke: #000000; stroke-width: 1.0;" x1="541" x2="600" y1="5" y2="5"/><line style="stroke: #000000; stroke-width: 1.0;" x1="5" x2="541" y1="339.5" y2="339.5"/><line style="stroke: #000000; stroke-width: 1.0;" x1="541" x2="600" y1="339.5" y2="339.5"/><line style="stroke: #000000; stroke-width: 1.0;" x1="5" x2="5" y1="5" y2="29.9688"/><line style="stroke: #000000; stroke-width: 1.0;" x1="600" x2="600" y1="37.9688" y2="55.9375"/><line style="stroke: #000000; stroke-width: 1.0;" x1="600" x2="600" y1="29.9688" y2="37.9688"/><line style="stroke: #000000; stroke-width: 1.0;" x1="600" x2="600" y1="5" y2="29.9688"/><line style="stroke: #000000; stroke-width: 1.0;" x1="5" x2="5" y1="273.625" y2="339.5"/><line style="stroke: #000000; stroke-width: 1.0;" x1="5" x2="5" y1="55.9375" y2="273.625"/><line style="stroke: #000000; stroke-width: 1.0;" x1="5" x2="5" y1="37.9688" y2="55.9375"/><line style="stroke: #000000; stroke-width: 1.0;" x1="600" x2="600" y1="273.625" y2="339.5"/><line style="stroke: #000000; stroke-width: 1.0;" x1="5" x2="5" y1="29.9688" y2="37.9688"/><line style="stroke: #000000; stroke-width: 1.0;" x1="600" x2="600" y1="55.9375" y2="273.625"/></g></svg>