<?xml version="1.0" encoding="UTF-8" standalone="no"?><svg xmlns="http://www.w3.org/2000/svg" xmlns:xlink="http://www.w3.org/1999/xlink" contentScriptType="application/ecmascript" contentStyleType="text/css" height="303px" preserveAspectRatio="none" style="width:579px;height:303px;" version="1.1" viewBox="0 0 579 303" width="579px" zoomAndPan="magnify"><defs/><g><text fill="#000000" font-family="sans-serif" font-size="12" font-weight="bold" lengthAdjust="spacingAndGlyphs" textLength="167" x="6" y="17.1387">Saisie des mensuration</text><rect fill="#EEEEEE" height="17.9688" rx="5" ry="5" style="stroke: #000000; stroke-width: 2.5;" width="52" x="516.5" y="8.5"/><text fill="#000000" font-family="sans-serif" font-size="12" lengthAdjust="spacingAndGlyphs" textLength="44" x="520.5" y="21.6387">Fermer</text><line style="stroke: #AAAAAA; stroke-width: 1.0; stroke-dasharray: 1.0,2.0;" x1="6" x2="513" y1="34.4688" y2="34.4688"/><text fill="#000000" font-family="sans-serif" font-size="12" lengthAdjust="spacingAndGlyphs" textLength="113" x="27" y="51.1074">Saisie par individu</text><ellipse cx="14" cy="46.9531" fill="none" rx="5" ry="5" style="stroke: #000000; stroke-width: 1.5;"/><text fill="#000000" font-family="sans-serif" font-size="12" lengthAdjust="spacingAndGlyphs" textLength="171" x="162" y="51.1074">Saisie du nombre d'individu</text><ellipse cx="149" cy="46.9531" fill="none" rx="5" ry="5" style="stroke: #000000; stroke-width: 1.5;"/><ellipse cx="149" cy="46.9531" fill="#000000" rx="2" ry="2" style="stroke: #000000; stroke-width: 1.5;"/><text fill="#000000" font-family="sans-serif" font-size="12" lengthAdjust="spacingAndGlyphs" textLength="133" x="7" y="85.0449">Espèce commerciale:</text><rect fill="#EEEEEE" height="16.9688" style="stroke: #000000; stroke-width: 1.0;" width="143" x="144" y="74.9063"/><text fill="#000000" font-family="sans-serif" font-size="12" lengthAdjust="spacingAndGlyphs" textLength="96" x="146" y="88.0449">MNZ - Baudroie</text><line style="stroke: #000000; stroke-width: 1.0;" x1="276" x2="276" y1="74.9063" y2="91.875"/><polygon fill="#000000" points="279,80.9063,285,80.9063,282,86.875" style="stroke: #000000; stroke-width: 1.0;"/><text fill="#000000" font-family="sans-serif" font-size="12" lengthAdjust="spacingAndGlyphs" textLength="110" x="310" y="86.0449">Valeur par défaut</text><rect fill="none" height="10" style="stroke: #000000; stroke-width: 1.5;" width="10" x="292" y="76.8906"/><polygon fill="#000000" points="293,80.9063,296,83.9063,303,74.9063,296,81.9063" style="stroke: #000000; stroke-width: 1.5;"/><text fill="#000000" font-family="sans-serif" font-size="12" font-style="italic" lengthAdjust="spacingAndGlyphs" textLength="124" x="7" y="107.0137">Espèce scientifique:</text><rect fill="#EEEEEE" height="16.9688" style="stroke: #000000; stroke-width: 1.0;" width="143" x="144" y="96.875"/><text fill="#000000" font-family="sans-serif" font-size="12" lengthAdjust="spacingAndGlyphs" textLength="114" x="146" y="110.0137">Lohius budegassa</text><line style="stroke: #000000; stroke-width: 1.0;" x1="276" x2="276" y1="96.875" y2="113.8438"/><polygon fill="#000000" points="279,102.875,285,102.875,282,108.8438" style="stroke: #000000; stroke-width: 1.0;"/><text fill="#000000" font-family="sans-serif" font-size="12" lengthAdjust="spacingAndGlyphs" textLength="120" x="310" y="108.0137">Conserver la valeur</text><rect fill="none" height="10" style="stroke: #000000; stroke-width: 1.5;" width="10" x="292" y="98.8594"/><polygon fill="#000000" points="293,102.875,296,105.875,303,96.875,296,103.875" style="stroke: #000000; stroke-width: 1.5;"/><text fill="#000000" font-family="sans-serif" font-size="12" lengthAdjust="spacingAndGlyphs" textLength="134" x="7" y="128.9824">Débarquement/Rejet:</text><rect fill="#EEEEEE" height="16.9688" style="stroke: #000000; stroke-width: 1.0;" width="143" x="144" y="118.8438"/><text fill="#000000" font-family="sans-serif" font-size="12" lengthAdjust="spacingAndGlyphs" textLength="84" x="146" y="131.9824">LAN - Landing</text><line style="stroke: #000000; stroke-width: 1.0;" x1="276" x2="276" y1="118.8438" y2="135.8125"/><polygon fill="#000000" points="279,124.8438,285,124.8438,282,130.8125" style="stroke: #000000; stroke-width: 1.0;"/><text fill="#000000" font-family="sans-serif" font-size="12" lengthAdjust="spacingAndGlyphs" textLength="120" x="310" y="129.9824">Conserver la valeur</text><rect fill="none" height="10" style="stroke: #000000; stroke-width: 1.5;" width="10" x="292" y="120.8281"/><polygon fill="#000000" points="293,124.8438,296,127.8438,303,118.8438,296,125.8438" style="stroke: #000000; stroke-width: 1.5;"/><text fill="#000000" font-family="sans-serif" font-size="12" lengthAdjust="spacingAndGlyphs" textLength="26" x="7" y="150.9512">Sex:</text><rect fill="#EEEEEE" height="16.9688" style="stroke: #000000; stroke-width: 1.0;" width="143" x="144" y="140.8125"/><text fill="#000000" font-family="sans-serif" font-size="12" lengthAdjust="spacingAndGlyphs" textLength="67" x="146" y="153.9512">F - Femelle</text><line style="stroke: #000000; stroke-width: 1.0;" x1="276" x2="276" y1="140.8125" y2="157.7813"/><polygon fill="#000000" points="279,146.8125,285,146.8125,282,152.7813" style="stroke: #000000; stroke-width: 1.0;"/><text fill="#000000" font-family="sans-serif" font-size="12" lengthAdjust="spacingAndGlyphs" textLength="120" x="310" y="151.9512">Conserver la valeur</text><rect fill="none" height="10" style="stroke: #000000; stroke-width: 1.5;" width="10" x="292" y="142.7969"/><polygon fill="#000000" points="293,146.8125,296,149.8125,303,140.8125,296,147.8125" style="stroke: #000000; stroke-width: 1.5;"/><text fill="#000000" font-family="sans-serif" font-size="12" lengthAdjust="spacingAndGlyphs" textLength="56" x="7" y="172.9199">Maturité:</text><rect fill="#EEEEEE" height="16.9688" style="stroke: #000000; stroke-width: 1.0;" width="143" x="144" y="162.7813"/><text fill="#000000" font-family="sans-serif" font-size="12" lengthAdjust="spacingAndGlyphs" textLength="66" x="146" y="175.9199">M - Mature</text><line style="stroke: #000000; stroke-width: 1.0;" x1="276" x2="276" y1="162.7813" y2="179.75"/><polygon fill="#000000" points="279,168.7813,285,168.7813,282,174.75" style="stroke: #000000; stroke-width: 1.0;"/><text fill="#000000" font-family="sans-serif" font-size="12" lengthAdjust="spacingAndGlyphs" textLength="120" x="310" y="173.9199">Conserver la valeur</text><rect fill="none" height="10" style="stroke: #000000; stroke-width: 1.5;" width="10" x="292" y="164.7656"/><polygon fill="#000000" points="293,168.7813,296,171.7813,303,162.7813,296,169.7813" style="stroke: #000000; stroke-width: 1.5;"/><text fill="#000000" font-family="sans-serif" font-size="12" lengthAdjust="spacingAndGlyphs" textLength="68" x="7" y="194.8887">Taille (cm):</text><text fill="#000000" font-family="sans-serif" font-size="12" lengthAdjust="spacingAndGlyphs" textLength="28" x="147" y="195.8887">10.5</text><line style="stroke: #000000; stroke-width: 1.0;" x1="145" x2="276" y1="198.7188" y2="198.7188"/><line style="stroke: #000000; stroke-width: 1.0;" x1="145" x2="145" y1="195.7188" y2="197.7188"/><line style="stroke: #000000; stroke-width: 1.0;" x1="276" x2="276" y1="195.7188" y2="197.7188"/><text fill="#000000" font-family="sans-serif" font-size="12" lengthAdjust="spacingAndGlyphs" textLength="64" x="280" y="195.8887">Nb d'indiv:</text><text fill="#000000" font-family="sans-serif" font-size="12" lengthAdjust="spacingAndGlyphs" textLength="8" x="349" y="195.8887">1</text><line style="stroke: #000000; stroke-width: 1.0;" x1="347" x2="366" y1="198.7188" y2="198.7188"/><line style="stroke: #000000; stroke-width: 1.0;" x1="347" x2="347" y1="195.7188" y2="197.7188"/><line style="stroke: #000000; stroke-width: 1.0;" x1="366" x2="366" y1="195.7188" y2="197.7188"/><text fill="#000000" font-family="sans-serif" font-size="12" lengthAdjust="spacingAndGlyphs" textLength="140" x="370" y="195.8887">[x] Conserver la valeur</text><rect fill="#EEEEEE" height="17.9688" rx="5" ry="5" style="stroke: #000000; stroke-width: 2.5;" width="148" x="146.5" y="207.2188"/><text fill="#000000" font-family="sans-serif" font-size="12" lengthAdjust="spacingAndGlyphs" textLength="110" x="165.5" y="220.3574">Valider (= Entrer)</text><rect fill="#EEEEEE" height="17.9688" rx="5" ry="5" style="stroke: #000000; stroke-width: 2.5;" width="156" x="301.5" y="207.2188"/><text fill="#000000" font-family="sans-serif" font-size="12" lengthAdjust="spacingAndGlyphs" textLength="120" x="319.5" y="220.3574">Annuler la dernière</text><text fill="#000000" font-family="sans-serif" font-size="12" lengthAdjust="spacingAndGlyphs" textLength="10" x="7" y="259.7949">#</text><text fill="#000000" font-family="sans-serif" font-size="12" font-weight="bold" lengthAdjust="spacingAndGlyphs" textLength="142" x="19" y="259.7949">Espèce commerciale</text><text fill="#000000" font-family="sans-serif" font-size="12" font-weight="bold" lengthAdjust="spacingAndGlyphs" textLength="71" x="200" y="259.7949">Taille (cm)</text><text fill="#000000" font-family="sans-serif" font-size="12" font-weight="bold" lengthAdjust="spacingAndGlyphs" textLength="25" x="273" y="259.7949">Sex</text><text fill="#000000" font-family="sans-serif" font-size="12" font-weight="bold" lengthAdjust="spacingAndGlyphs" textLength="61" x="343" y="259.7949">Maturité</text><text fill="#000000" font-family="sans-serif" font-size="12" font-weight="bold" lengthAdjust="spacingAndGlyphs" textLength="57" x="417" y="259.7949">Nb INdiv</text><text fill="#000000" font-family="sans-serif" font-size="12" lengthAdjust="spacingAndGlyphs" textLength="8" x="7" y="275.7637">1</text><text fill="#000000" font-family="sans-serif" font-size="12" lengthAdjust="spacingAndGlyphs" textLength="179" x="19" y="275.7637">NEP - Langoustine commune</text><text fill="#000000" font-family="sans-serif" font-size="12" lengthAdjust="spacingAndGlyphs" textLength="36" x="200" y="275.7637">77.50</text><text fill="#000000" font-family="sans-serif" font-size="12" lengthAdjust="spacingAndGlyphs" textLength="68" x="273" y="275.7637">F - Femel...</text><text fill="#000000" font-family="sans-serif" font-size="12" lengthAdjust="spacingAndGlyphs" textLength="72" x="343" y="275.7637">I - Indéter...</text><text fill="#000000" font-family="sans-serif" font-size="12" lengthAdjust="spacingAndGlyphs" textLength="8" x="417" y="275.7637">1</text><path d="M480,264.625 C479.45,264.625 479,265.075 479,265.625 L478,265.625 C477.45,265.625 477,266.075 477,266.625 L484,266.625 C484,266.075 483.55,265.625 483,265.625 L482,265.625 C482,265.075 481.55,264.625 481,264.625 L480,264.625 M478,267.625 L478,272.438 C478,272.548 478.077,272.626 478.188,272.626 L482.813,272.626 C482.923,272.626 483.001,272.549 483.001,272.438 L483.001,267.625 L482.001,267.625 L482.001,271.125 C482.001,271.405 481.781,271.625 481.501,271.625 C481.221,271.625 481.001,271.405 481.001,271.125 L481.001,267.625 L480.001,267.625 L480.001,271.125 C480.001,271.405 479.781,271.625 479.501,271.625 C479.221,271.625 479.001,271.405 479.001,271.125 L479.001,267.625 L478.001,267.625 " fill="#000000" style="stroke: ; stroke-width: 0.0; stroke-dasharray: ;"/><text fill="#000000" font-family="sans-serif" font-size="12" lengthAdjust="spacingAndGlyphs" textLength="8" x="7" y="291.7324">2</text><text fill="#000000" font-family="sans-serif" font-size="12" lengthAdjust="spacingAndGlyphs" textLength="92" x="19" y="291.7324">MNZ- Baudroie</text><text fill="#000000" font-family="sans-serif" font-size="12" lengthAdjust="spacingAndGlyphs" textLength="36" x="200" y="291.7324">15.00</text><text fill="#000000" font-family="sans-serif" font-size="12" lengthAdjust="spacingAndGlyphs" textLength="68" x="273" y="291.7324">F - Femel...</text><text fill="#000000" font-family="sans-serif" font-size="12" lengthAdjust="spacingAndGlyphs" textLength="62" x="343" y="291.7324">M- Mature</text><text fill="#000000" font-family="sans-serif" font-size="12" lengthAdjust="spacingAndGlyphs" textLength="8" x="417" y="291.7324">2</text><path d="M480,280.5938 C479.45,280.5938 479,281.0438 479,281.5938 L478,281.5938 C477.45,281.5938 477,282.0438 477,282.5938 L484,282.5938 C484,282.0438 483.55,281.5938 483,281.5938 L482,281.5938 C482,281.0438 481.55,280.5938 481,280.5938 L480,280.5938 M478,283.5938 L478,288.4068 C478,288.5168 478.077,288.5948 478.188,288.5948 L482.813,288.5948 C482.923,288.5948 483.001,288.5178 483.001,288.4068 L483.001,283.5938 L482.001,283.5938 L482.001,287.0938 C482.001,287.3738 481.781,287.5938 481.501,287.5938 C481.221,287.5938 481.001,287.3738 481.001,287.0938 L481.001,283.5938 L480.001,283.5938 L480.001,287.0938 C480.001,287.3738 479.781,287.5938 479.501,287.5938 C479.221,287.5938 479.001,287.3738 479.001,287.0938 L479.001,283.5938 L478.001,283.5938 " fill="#000000" style="stroke: ; stroke-width: 0.0; stroke-dasharray: ;"/><line style="stroke: #000000; stroke-width: 1.0;" x1="6" x2="18" y1="247.6563" y2="247.6563"/><line style="stroke: #000000; stroke-width: 1.0;" x1="18" x2="199" y1="247.6563" y2="247.6563"/><line style="stroke: #000000; stroke-width: 1.0;" x1="199" x2="272" y1="247.6563" y2="247.6563"/><line style="stroke: #000000; stroke-width: 1.0;" x1="272" x2="342" y1="247.6563" y2="247.6563"/><line style="stroke: #000000; stroke-width: 1.0;" x1="342" x2="416" y1="247.6563" y2="247.6563"/><line style="stroke: #000000; stroke-width: 1.0;" x1="416" x2="475" y1="247.6563" y2="247.6563"/><line style="stroke: #000000; stroke-width: 1.0;" x1="475" x2="487" y1="247.6563" y2="247.6563"/><line style="stroke: #000000; stroke-width: 1.0;" x1="6" x2="18" y1="295.5625" y2="295.5625"/><line style="stroke: #000000; stroke-width: 1.0;" x1="18" x2="199" y1="295.5625" y2="295.5625"/><line style="stroke: #000000; stroke-width: 1.0;" x1="199" x2="272" y1="295.5625" y2="295.5625"/><line style="stroke: #000000; stroke-width: 1.0;" x1="272" x2="342" y1="295.5625" y2="295.5625"/><line style="stroke: #000000; stroke-width: 1.0;" x1="342" x2="416" y1="295.5625" y2="295.5625"/><line style="stroke: #000000; stroke-width: 1.0;" x1="416" x2="475" y1="295.5625" y2="295.5625"/><line style="stroke: #000000; stroke-width: 1.0;" x1="475" x2="487" y1="295.5625" y2="295.5625"/><line style="stroke: #000000; stroke-width: 1.0;" x1="6" x2="18" y1="279.5938" y2="279.5938"/><line style="stroke: #000000; stroke-width: 1.0;" x1="18" x2="199" y1="279.5938" y2="279.5938"/><line style="stroke: #000000; stroke-width: 1.0;" x1="199" x2="272" y1="279.5938" y2="279.5938"/><line style="stroke: #000000; stroke-width: 1.0;" x1="272" x2="342" y1="279.5938" y2="279.5938"/><line style="stroke: #000000; stroke-width: 1.0;" x1="342" x2="416" y1="279.5938" y2="279.5938"/><line style="stroke: #000000; stroke-width: 1.0;" x1="416" x2="475" y1="279.5938" y2="279.5938"/><line style="stroke: #000000; stroke-width: 1.0;" x1="475" x2="487" y1="279.5938" y2="279.5938"/><line style="stroke: #000000; stroke-width: 1.0;" x1="6" x2="18" y1="263.625" y2="263.625"/><line style="stroke: #000000; stroke-width: 1.0;" x1="18" x2="199" y1="263.625" y2="263.625"/><line style="stroke: #000000; stroke-width: 1.0;" x1="199" x2="272" y1="263.625" y2="263.625"/><line style="stroke: #000000; stroke-width: 1.0;" x1="272" x2="342" y1="263.625" y2="263.625"/><line style="stroke: #000000; stroke-width: 1.0;" x1="342" x2="416" y1="263.625" y2="263.625"/><line style="stroke: #000000; stroke-width: 1.0;" x1="416" x2="475" y1="263.625" y2="263.625"/><line style="stroke: #000000; stroke-width: 1.0;" x1="475" x2="487" y1="263.625" y2="263.625"/><line style="stroke: #000000; stroke-width: 1.0;" x1="6" x2="6" y1="247.6563" y2="263.625"/><line style="stroke: #000000; stroke-width: 1.0;" x1="199" x2="199" y1="279.5938" y2="295.5625"/><line style="stroke: #000000; stroke-width: 1.0;" x1="18" x2="18" y1="247.6563" y2="263.625"/><line style="stroke: #000000; stroke-width: 1.0;" x1="272" x2="272" y1="279.5938" y2="295.5625"/><line style="stroke: #000000; stroke-width: 1.0;" x1="199" x2="199" y1="247.6563" y2="263.625"/><line style="stroke: #000000; stroke-width: 1.0;" x1="342" x2="342" y1="279.5938" y2="295.5625"/><line style="stroke: #000000; stroke-width: 1.0;" x1="272" x2="272" y1="247.6563" y2="263.625"/><line style="stroke: #000000; stroke-width: 1.0;" x1="416" x2="416" y1="279.5938" y2="295.5625"/><line style="stroke: #000000; stroke-width: 1.0;" x1="342" x2="342" y1="247.6563" y2="263.625"/><line style="stroke: #000000; stroke-width: 1.0;" x1="475" x2="475" y1="279.5938" y2="295.5625"/><line style="stroke: #000000; stroke-width: 1.0;" x1="487" x2="487" y1="279.5938" y2="295.5625"/><line style="stroke: #000000; stroke-width: 1.0;" x1="416" x2="416" y1="247.6563" y2="263.625"/><line style="stroke: #000000; stroke-width: 1.0;" x1="475" x2="475" y1="247.6563" y2="263.625"/><line style="stroke: #000000; stroke-width: 1.0;" x1="487" x2="487" y1="247.6563" y2="263.625"/><line style="stroke: #000000; stroke-width: 1.0;" x1="6" x2="6" y1="263.625" y2="279.5938"/><line style="stroke: #000000; stroke-width: 1.0;" x1="18" x2="18" y1="263.625" y2="279.5938"/><line style="stroke: #000000; stroke-width: 1.0;" x1="199" x2="199" y1="263.625" y2="279.5938"/><line style="stroke: #000000; stroke-width: 1.0;" x1="272" x2="272" y1="263.625" y2="279.5938"/><line style="stroke: #000000; stroke-width: 1.0;" x1="342" x2="342" y1="263.625" y2="279.5938"/><line style="stroke: #000000; stroke-width: 1.0;" x1="416" x2="416" y1="263.625" y2="279.5938"/><line style="stroke: #000000; stroke-width: 1.0;" x1="475" x2="475" y1="263.625" y2="279.5938"/><line style="stroke: #000000; stroke-width: 1.0;" x1="487" x2="487" y1="263.625" y2="279.5938"/><line style="stroke: #000000; stroke-width: 1.0;" x1="6" x2="6" y1="279.5938" y2="295.5625"/><line style="stroke: #000000; stroke-width: 1.0;" x1="18" x2="18" y1="279.5938" y2="295.5625"/><line style="stroke: #000000; stroke-width: 1.0;" x1="5" x2="513" y1="5" y2="5"/><line style="stroke: #000000; stroke-width: 1.0;" x1="513" x2="572" y1="5" y2="5"/><line style="stroke: #000000; stroke-width: 1.0;" x1="5" x2="513" y1="296.5625" y2="296.5625"/><line style="stroke: #000000; stroke-width: 1.0;" x1="513" x2="572" y1="296.5625" y2="296.5625"/><line style="stroke: #000000; stroke-width: 1.0;" x1="5" x2="5" y1="5" y2="29.9688"/><line style="stroke: #000000; stroke-width: 1.0;" x1="572" x2="572" y1="37.9688" y2="55.9375"/><line style="stroke: #000000; stroke-width: 1.0;" x1="572" x2="572" y1="29.9688" y2="37.9688"/><line style="stroke: #000000; stroke-width: 1.0;" x1="572" x2="572" y1="5" y2="29.9688"/><line style="stroke: #000000; stroke-width: 1.0;" x1="5" x2="5" y1="246.6563" y2="296.5625"/><line style="stroke: #000000; stroke-width: 1.0;" x1="5" x2="5" y1="55.9375" y2="246.6563"/><line style="stroke: #000000; stroke-width: 1.0;" x1="5" x2="5" y1="37.9688" y2="55.9375"/><line style="stroke: #000000; stroke-width: 1.0;" x1="572" x2="572" y1="246.6563" y2="296.5625"/><line style="stroke: #000000; stroke-width: 1.0;" x1="5" x2="5" y1="29.9688" y2="37.9688"/><line style="stroke: #000000; stroke-width: 1.0;" x1="572" x2="572" y1="55.9375" y2="246.6563"/></g></svg>