<?xml version="1.0" encoding="UTF-8" standalone="no"?><svg xmlns="http://www.w3.org/2000/svg" xmlns:xlink="http://www.w3.org/1999/xlink" contentScriptType="application/ecmascript" contentStyleType="text/css" height="258px" preserveAspectRatio="none" style="width:529px;height:258px;" version="1.1" viewBox="0 0 529 258" width="529px" zoomAndPan="magnify"><defs/><g><text fill="#000000" font-family="sans-serif" font-size="12" font-weight="bold" lengthAdjust="spacingAndGlyphs" textLength="167" x="6" y="17.1387">Saisie des mensuration</text><rect fill="#EEEEEE" height="17.9688" rx="5" ry="5" style="stroke: #000000; stroke-width: 2.5;" width="52" x="466.5" y="8.5"/><text fill="#000000" font-family="sans-serif" font-size="12" lengthAdjust="spacingAndGlyphs" textLength="44" x="470.5" y="21.6387">Fermer</text><line style="stroke: #AAAAAA; stroke-width: 1.0; stroke-dasharray: 1.0,2.0;" x1="6" x2="463" y1="34.4688" y2="34.4688"/><text fill="#000000" font-family="sans-serif" font-size="12" lengthAdjust="spacingAndGlyphs" textLength="116" x="27" y="51.1074">Saisie mode rafale</text><ellipse cx="14" cy="46.9531" fill="none" rx="5" ry="5" style="stroke: #000000; stroke-width: 1.5;"/><ellipse cx="14" cy="46.9531" fill="#000000" rx="2" ry="2" style="stroke: #000000; stroke-width: 1.5;"/><text fill="#000000" font-family="sans-serif" font-size="12" lengthAdjust="spacingAndGlyphs" textLength="133" x="7" y="85.0449">Espèce commerciale:</text><rect fill="#EEEEEE" height="16.9688" style="stroke: #000000; stroke-width: 1.0;" width="143" x="144" y="74.9063"/><text fill="#000000" font-family="sans-serif" font-size="12" lengthAdjust="spacingAndGlyphs" textLength="96" x="146" y="88.0449">MNZ - Baudroie</text><line style="stroke: #000000; stroke-width: 1.0;" x1="276" x2="276" y1="74.9063" y2="91.875"/><polygon fill="#000000" points="279,80.9063,285,80.9063,282,86.875" style="stroke: #000000; stroke-width: 1.0;"/><text fill="#000000" font-family="sans-serif" font-size="12" lengthAdjust="spacingAndGlyphs" textLength="110" x="310" y="86.0449">Valeur par défaut</text><rect fill="none" height="10" style="stroke: #000000; stroke-width: 1.5;" width="10" x="292" y="76.8906"/><polygon fill="#000000" points="293,80.9063,296,83.9063,303,74.9063,296,81.9063" style="stroke: #000000; stroke-width: 1.5;"/><text fill="#000000" font-family="sans-serif" font-size="12" lengthAdjust="spacingAndGlyphs" textLength="134" x="7" y="107.0137">Débarquement/Rejet:</text><rect fill="#EEEEEE" height="17.9688" rx="5" ry="5" style="stroke: #000000; stroke-width: 2.5;" width="60" x="146.5" y="99.375"/><text fill="#000000" font-family="sans-serif" font-size="12" lengthAdjust="spacingAndGlyphs" textLength="49" x="152" y="112.5137">Landing</text><rect fill="#EEEEEE" height="17.9688" rx="5" ry="5" style="stroke: #000000; stroke-width: 2.5;" width="84" x="213.5" y="99.375"/><text fill="#000000" font-family="sans-serif" font-size="12" font-weight="bold" lengthAdjust="spacingAndGlyphs" textLength="53" x="229" y="112.5137">Discard</text><text fill="#000000" font-family="sans-serif" font-size="12" lengthAdjust="spacingAndGlyphs" textLength="120" x="322" y="108.0137">Conserver la valeur</text><rect fill="none" height="10" style="stroke: #000000; stroke-width: 1.5;" width="10" x="304" y="98.8594"/><polygon fill="#000000" points="305,102.875,308,105.875,315,96.875,308,103.875" style="stroke: #000000; stroke-width: 1.5;"/><text fill="#000000" font-family="sans-serif" font-size="12" lengthAdjust="spacingAndGlyphs" textLength="68" x="7" y="133.9824">Taille (cm):</text><text fill="#000000" font-family="sans-serif" font-size="12" lengthAdjust="spacingAndGlyphs" textLength="28" x="147" y="134.9824">10.5</text><line style="stroke: #000000; stroke-width: 1.0;" x1="145" x2="276" y1="137.8125" y2="137.8125"/><line style="stroke: #000000; stroke-width: 1.0;" x1="145" x2="145" y1="134.8125" y2="136.8125"/><line style="stroke: #000000; stroke-width: 1.0;" x1="276" x2="276" y1="134.8125" y2="136.8125"/><rect fill="#EEEEEE" height="17.9688" rx="5" ry="5" style="stroke: #000000; stroke-width: 2.5;" width="148" x="146.5" y="146.3125"/><text fill="#000000" font-family="sans-serif" font-size="12" lengthAdjust="spacingAndGlyphs" textLength="110" x="165.5" y="159.4512">Valider (= Entrer)</text><rect fill="#EEEEEE" height="17.9688" rx="5" ry="5" style="stroke: #000000; stroke-width: 2.5;" width="156" x="301.5" y="146.3125"/><text fill="#000000" font-family="sans-serif" font-size="12" lengthAdjust="spacingAndGlyphs" textLength="120" x="319.5" y="159.4512">Annuler la dernière</text><text fill="#000000" font-family="sans-serif" font-size="12" lengthAdjust="spacingAndGlyphs" textLength="10" x="7" y="198.8887">#</text><text fill="#000000" font-family="sans-serif" font-size="12" font-weight="bold" lengthAdjust="spacingAndGlyphs" textLength="142" x="19" y="198.8887">Espèce commerciale</text><text fill="#000000" font-family="sans-serif" font-size="12" font-weight="bold" lengthAdjust="spacingAndGlyphs" textLength="71" x="200" y="198.8887">Taille (cm)</text><text fill="#000000" font-family="sans-serif" font-size="12" lengthAdjust="spacingAndGlyphs" textLength="8" x="7" y="214.8574">3</text><text fill="#000000" font-family="sans-serif" font-size="12" lengthAdjust="spacingAndGlyphs" textLength="92" x="19" y="214.8574">MNZ- Baudroie</text><text fill="#000000" font-family="sans-serif" font-size="12" lengthAdjust="spacingAndGlyphs" textLength="36" x="200" y="214.8574">15.00</text><path d="M277,203.7188 C276.45,203.7188 276,204.1688 276,204.7188 L275,204.7188 C274.45,204.7188 274,205.1688 274,205.7188 L281,205.7188 C281,205.1688 280.55,204.7188 280,204.7188 L279,204.7188 C279,204.1688 278.55,203.7188 278,203.7188 L277,203.7188 M275,206.7188 L275,211.5318 C275,211.6418 275.077,211.7198 275.188,211.7198 L279.813,211.7198 C279.923,211.7198 280.001,211.6428 280.001,211.5318 L280.001,206.7188 L279.001,206.7188 L279.001,210.2188 C279.001,210.4988 278.781,210.7188 278.501,210.7188 C278.221,210.7188 278.001,210.4988 278.001,210.2188 L278.001,206.7188 L277.001,206.7188 L277.001,210.2188 C277.001,210.4988 276.781,210.7188 276.501,210.7188 C276.221,210.7188 276.001,210.4988 276.001,210.2188 L276.001,206.7188 L275.001,206.7188 " fill="#000000" style="stroke: ; stroke-width: 0.0; stroke-dasharray: ;"/><text fill="#000000" font-family="sans-serif" font-size="12" lengthAdjust="spacingAndGlyphs" textLength="8" x="7" y="230.8262">2</text><text fill="#000000" font-family="sans-serif" font-size="12" lengthAdjust="spacingAndGlyphs" textLength="92" x="19" y="230.8262">MNZ- Baudroie</text><text fill="#000000" font-family="sans-serif" font-size="12" lengthAdjust="spacingAndGlyphs" textLength="36" x="200" y="230.8262">15.00</text><path d="M277,219.6875 C276.45,219.6875 276,220.1375 276,220.6875 L275,220.6875 C274.45,220.6875 274,221.1375 274,221.6875 L281,221.6875 C281,221.1375 280.55,220.6875 280,220.6875 L279,220.6875 C279,220.1375 278.55,219.6875 278,219.6875 L277,219.6875 M275,222.6875 L275,227.5005 C275,227.6105 275.077,227.6885 275.188,227.6885 L279.813,227.6885 C279.923,227.6885 280.001,227.6115 280.001,227.5005 L280.001,222.6875 L279.001,222.6875 L279.001,226.1875 C279.001,226.4675 278.781,226.6875 278.501,226.6875 C278.221,226.6875 278.001,226.4675 278.001,226.1875 L278.001,222.6875 L277.001,222.6875 L277.001,226.1875 C277.001,226.4675 276.781,226.6875 276.501,226.6875 C276.221,226.6875 276.001,226.4675 276.001,226.1875 L276.001,222.6875 L275.001,222.6875 " fill="#000000" style="stroke: ; stroke-width: 0.0; stroke-dasharray: ;"/><text fill="#000000" font-family="sans-serif" font-size="12" lengthAdjust="spacingAndGlyphs" textLength="8" x="7" y="246.7949">1</text><text fill="#000000" font-family="sans-serif" font-size="12" lengthAdjust="spacingAndGlyphs" textLength="179" x="19" y="246.7949">NEP - Langoustine commune</text><text fill="#000000" font-family="sans-serif" font-size="12" lengthAdjust="spacingAndGlyphs" textLength="36" x="200" y="246.7949">77.50</text><path d="M277,235.6563 C276.45,235.6563 276,236.1063 276,236.6563 L275,236.6563 C274.45,236.6563 274,237.1063 274,237.6563 L281,237.6563 C281,237.1063 280.55,236.6563 280,236.6563 L279,236.6563 C279,236.1063 278.55,235.6563 278,235.6563 L277,235.6563 M275,238.6563 L275,243.4693 C275,243.5793 275.077,243.6573 275.188,243.6573 L279.813,243.6573 C279.923,243.6573 280.001,243.5803 280.001,243.4693 L280.001,238.6563 L279.001,238.6563 L279.001,242.1563 C279.001,242.4363 278.781,242.6563 278.501,242.6563 C278.221,242.6563 278.001,242.4363 278.001,242.1563 L278.001,238.6563 L277.001,238.6563 L277.001,242.1563 C277.001,242.4363 276.781,242.6563 276.501,242.6563 C276.221,242.6563 276.001,242.4363 276.001,242.1563 L276.001,238.6563 L275.001,238.6563 " fill="#000000" style="stroke: ; stroke-width: 0.0; stroke-dasharray: ;"/><line style="stroke: #000000; stroke-width: 1.0;" x1="6" x2="18" y1="186.75" y2="186.75"/><line style="stroke: #000000; stroke-width: 1.0;" x1="199" x2="272" y1="218.6875" y2="218.6875"/><line style="stroke: #000000; stroke-width: 1.0;" x1="18" x2="199" y1="186.75" y2="186.75"/><line style="stroke: #000000; stroke-width: 1.0;" x1="272" x2="284" y1="218.6875" y2="218.6875"/><line style="stroke: #000000; stroke-width: 1.0;" x1="199" x2="272" y1="186.75" y2="186.75"/><line style="stroke: #000000; stroke-width: 1.0;" x1="272" x2="284" y1="186.75" y2="186.75"/><line style="stroke: #000000; stroke-width: 1.0;" x1="6" x2="18" y1="234.6563" y2="234.6563"/><line style="stroke: #000000; stroke-width: 1.0;" x1="18" x2="199" y1="234.6563" y2="234.6563"/><line style="stroke: #000000; stroke-width: 1.0;" x1="6" x2="18" y1="202.7188" y2="202.7188"/><line style="stroke: #000000; stroke-width: 1.0;" x1="199" x2="272" y1="234.6563" y2="234.6563"/><line style="stroke: #000000; stroke-width: 1.0;" x1="18" x2="199" y1="202.7188" y2="202.7188"/><line style="stroke: #000000; stroke-width: 1.0;" x1="272" x2="284" y1="234.6563" y2="234.6563"/><line style="stroke: #000000; stroke-width: 1.0;" x1="199" x2="272" y1="202.7188" y2="202.7188"/><line style="stroke: #000000; stroke-width: 1.0;" x1="272" x2="284" y1="202.7188" y2="202.7188"/><line style="stroke: #000000; stroke-width: 1.0;" x1="6" x2="18" y1="250.625" y2="250.625"/><line style="stroke: #000000; stroke-width: 1.0;" x1="18" x2="199" y1="250.625" y2="250.625"/><line style="stroke: #000000; stroke-width: 1.0;" x1="199" x2="272" y1="250.625" y2="250.625"/><line style="stroke: #000000; stroke-width: 1.0;" x1="6" x2="18" y1="218.6875" y2="218.6875"/><line style="stroke: #000000; stroke-width: 1.0;" x1="272" x2="284" y1="250.625" y2="250.625"/><line style="stroke: #000000; stroke-width: 1.0;" x1="18" x2="199" y1="218.6875" y2="218.6875"/><line style="stroke: #000000; stroke-width: 1.0;" x1="6" x2="6" y1="186.75" y2="202.7188"/><line style="stroke: #000000; stroke-width: 1.0;" x1="199" x2="199" y1="218.6875" y2="234.6563"/><line style="stroke: #000000; stroke-width: 1.0;" x1="18" x2="18" y1="186.75" y2="202.7188"/><line style="stroke: #000000; stroke-width: 1.0;" x1="272" x2="272" y1="218.6875" y2="234.6563"/><line style="stroke: #000000; stroke-width: 1.0;" x1="284" x2="284" y1="218.6875" y2="234.6563"/><line style="stroke: #000000; stroke-width: 1.0;" x1="199" x2="199" y1="186.75" y2="202.7188"/><line style="stroke: #000000; stroke-width: 1.0;" x1="272" x2="272" y1="186.75" y2="202.7188"/><line style="stroke: #000000; stroke-width: 1.0;" x1="284" x2="284" y1="186.75" y2="202.7188"/><line style="stroke: #000000; stroke-width: 1.0;" x1="6" x2="6" y1="234.6563" y2="250.625"/><line style="stroke: #000000; stroke-width: 1.0;" x1="18" x2="18" y1="234.6563" y2="250.625"/><line style="stroke: #000000; stroke-width: 1.0;" x1="6" x2="6" y1="202.7188" y2="218.6875"/><line style="stroke: #000000; stroke-width: 1.0;" x1="199" x2="199" y1="234.6563" y2="250.625"/><line style="stroke: #000000; stroke-width: 1.0;" x1="18" x2="18" y1="202.7188" y2="218.6875"/><line style="stroke: #000000; stroke-width: 1.0;" x1="272" x2="272" y1="234.6563" y2="250.625"/><line style="stroke: #000000; stroke-width: 1.0;" x1="284" x2="284" y1="234.6563" y2="250.625"/><line style="stroke: #000000; stroke-width: 1.0;" x1="199" x2="199" y1="202.7188" y2="218.6875"/><line style="stroke: #000000; stroke-width: 1.0;" x1="272" x2="272" y1="202.7188" y2="218.6875"/><line style="stroke: #000000; stroke-width: 1.0;" x1="284" x2="284" y1="202.7188" y2="218.6875"/><line style="stroke: #000000; stroke-width: 1.0;" x1="6" x2="6" y1="218.6875" y2="234.6563"/><line style="stroke: #000000; stroke-width: 1.0;" x1="18" x2="18" y1="218.6875" y2="234.6563"/><line style="stroke: #000000; stroke-width: 1.0;" x1="5" x2="463" y1="5" y2="5"/><line style="stroke: #000000; stroke-width: 1.0;" x1="463" x2="522" y1="5" y2="5"/><line style="stroke: #000000; stroke-width: 1.0;" x1="5" x2="463" y1="251.625" y2="251.625"/><line style="stroke: #000000; stroke-width: 1.0;" x1="463" x2="522" y1="251.625" y2="251.625"/><line style="stroke: #000000; stroke-width: 1.0;" x1="5" x2="5" y1="5" y2="29.9688"/><line style="stroke: #000000; stroke-width: 1.0;" x1="522" x2="522" y1="37.9688" y2="55.9375"/><line style="stroke: #000000; stroke-width: 1.0;" x1="522" x2="522" y1="29.9688" y2="37.9688"/><line style="stroke: #000000; stroke-width: 1.0;" x1="522" x2="522" y1="5" y2="29.9688"/><line style="stroke: #000000; stroke-width: 1.0;" x1="5" x2="5" y1="185.75" y2="251.625"/><line style="stroke: #000000; stroke-width: 1.0;" x1="5" x2="5" y1="55.9375" y2="185.75"/><line style="stroke: #000000; stroke-width: 1.0;" x1="5" x2="5" y1="37.9688" y2="55.9375"/><line style="stroke: #000000; stroke-width: 1.0;" x1="522" x2="522" y1="185.75" y2="251.625"/><line style="stroke: #000000; stroke-width: 1.0;" x1="5" x2="5" y1="29.9688" y2="37.9688"/><line style="stroke: #000000; stroke-width: 1.0;" x1="522" x2="522" y1="55.9375" y2="185.75"/></g></svg>