<?xml version="1.0" encoding="us-ascii" standalone="no"?><svg xmlns="http://www.w3.org/2000/svg" xmlns:xlink="http://www.w3.org/1999/xlink" contentStyleType="text/css" height="1633px" preserveAspectRatio="none" style="width:2420px;height:1633px;background:#FFFFFF;" version="1.1" viewBox="0 0 2420 1633" width="2420px" zoomAndPan="magnify"><defs/><g><rect fill="#FFA500" height="94.4844" rx="12.5" ry="12.5" style="stroke:#181818;stroke-width:1.5;" width="205" x="697" y="739.835"/><text fill="#000000" font-family="sans-serif" font-size="14" lengthAdjust="spacing" textLength="115" x="707" y="764.9424">Gestion des droits</text><text fill="#000000" font-family="sans-serif" font-size="14" lengthAdjust="spacing" textLength="116" x="711" y="783.5635">utilisateurs Allegro</text><text fill="#000000" font-family="sans-serif" font-size="14" lengthAdjust="spacing" textLength="177" x="711" y="802.1846">F_FILL_PERSON_SESSION</text><text fill="#000000" font-family="sans-serif" font-size="14" lengthAdjust="spacing" textLength="89" x="711" y="820.8057">(p_person_fk)</text><rect fill="#ADD8E6" height="57.2422" rx="12.5" ry="12.5" style="stroke:#181818;stroke-width:1.5;" width="165" x="952" y="40"/><text fill="#000000" font-family="sans-serif" font-size="14" lengthAdjust="spacing" textLength="76" x="962" y="65.1074">1 - Fonction</text><text fill="#000000" font-family="sans-serif" font-size="14" lengthAdjust="spacing" textLength="141" x="966" y="83.7285">P_FILL_SUPERVISOR</text><rect fill="#D3D3D3" height="38.6211" rx="12.5" ry="12.5" style="stroke:#181818;stroke-width:1.5;" width="243" x="1167" y="20"/><text fill="#000000" font-family="sans-serif" font-size="14" lengthAdjust="spacing" textLength="223" x="1177" y="45.1074">Suppression des anciens privil&#232;ges</text><rect fill="none" height="18.6211" style="stroke:#FFFFFF;stroke-width:1.5;" width="136" x="1460" y="30"/><text fill="#000000" font-family="sans-serif" font-size="14" lengthAdjust="spacing" textLength="136" x="1460" y="45.1074">PROGRAM2PERSON</text><path d="M1410,39.3105 L1420,39.3105 C1435,39.3105 1435,39.3105 1450,39.3105 L1460,39.3105 " fill="none" style="stroke:#181818;stroke-width:1.0;"/><path d="M1117,68.6211 L1127,68.6211 C1142,68.6211 1142,39.3105 1157,39.3105 L1167,39.3105 " fill="none" style="stroke:#181818;stroke-width:1.0;"/><rect fill="#D3D3D3" height="38.6211" rx="12.5" ry="12.5" style="stroke:#181818;stroke-width:1.5;" width="181" x="1167" y="78.6211"/><text fill="#000000" font-family="sans-serif" font-size="14" lengthAdjust="spacing" textLength="161" x="1177" y="103.7285">Ajout nouveaux privil&#232;ges</text><rect fill="none" height="18.6211" style="stroke:#FFFFFF;stroke-width:1.5;" width="136" x="1398" y="88.6211"/><text fill="#000000" font-family="sans-serif" font-size="14" lengthAdjust="spacing" textLength="136" x="1398" y="103.7285">PROGRAM2PERSON</text><path d="M1348,97.9316 L1358,97.9316 C1373,97.9316 1373,97.9316 1388,97.9316 L1398,97.9316 " fill="none" style="stroke:#181818;stroke-width:1.0;"/><path d="M1117,68.6211 L1127,68.6211 C1142,68.6211 1142,97.9316 1157,97.9316 L1167,97.9316 " fill="none" style="stroke:#181818;stroke-width:1.0;"/><path d="M902,787.0771 L912,787.0771 C927,787.0771 927,68.6211 942,68.6211 L952,68.6211 " fill="none" style="stroke:#181818;stroke-width:1.0;"/><rect fill="#ADD8E6" height="57.2422" rx="12.5" ry="12.5" style="stroke:#181818;stroke-width:1.5;" width="183" x="952" y="157.2422"/><text fill="#000000" font-family="sans-serif" font-size="14" lengthAdjust="spacing" textLength="157" x="962" y="182.3496">2 - Gestion de person_fk</text><text fill="#000000" font-family="sans-serif" font-size="14" lengthAdjust="spacing" textLength="159" x="966" y="200.9707">dans PERSON_SESSION</text><rect fill="#D3D3D3" height="38.6211" rx="12.5" ry="12.5" style="stroke:#181818;stroke-width:1.5;" width="57" x="1185" y="137.2422"/><text fill="#000000" font-family="sans-serif" font-size="14" lengthAdjust="spacing" textLength="37" x="1195" y="162.3496">Existe</text><rect fill="none" height="18.6211" style="stroke:#FFFFFF;stroke-width:1.5;" width="169" x="1292" y="147.2422"/><text fill="#000000" font-family="sans-serif" font-size="14" lengthAdjust="spacing" textLength="169" x="1292" y="162.3496">R&#233;cup&#233;ration SESSION_ID</text><path d="M1242,156.5527 L1252,156.5527 C1267,156.5527 1267,156.5527 1282,156.5527 L1292,156.5527 " fill="none" style="stroke:#181818;stroke-width:1.0;"/><path d="M1135,185.8633 L1145,185.8633 C1160,185.8633 1160,156.5527 1175,156.5527 L1185,156.5527 " fill="none" style="stroke:#181818;stroke-width:1.0;"/><rect fill="#D3D3D3" height="38.6211" rx="12.5" ry="12.5" style="stroke:#181818;stroke-width:1.5;" width="95" x="1185" y="195.8633"/><text fill="#000000" font-family="sans-serif" font-size="14" lengthAdjust="spacing" textLength="75" x="1195" y="220.9707">N'existe pas</text><rect fill="#D3D3D3" height="38.6211" rx="12.5" ry="12.5" style="stroke:#181818;stroke-width:1.5;" width="74" x="1330" y="195.8633"/><text fill="#000000" font-family="sans-serif" font-size="14" lengthAdjust="spacing" textLength="54" x="1340" y="220.9707">insertion</text><rect fill="none" height="18.6211" style="stroke:#FFFFFF;stroke-width:1.5;" width="212" x="1454" y="205.8633"/><text fill="#000000" font-family="sans-serif" font-size="14" lengthAdjust="spacing" textLength="212" x="1454" y="220.9707">r&#233;cup&#233;ration SESSION_ID nextval</text><path d="M1404,215.1738 L1414,215.1738 C1429,215.1738 1429,215.1738 1444,215.1738 L1454,215.1738 " fill="none" style="stroke:#181818;stroke-width:1.0;"/><path d="M1280,215.1738 L1290,215.1738 C1305,215.1738 1305,215.1738 1320,215.1738 L1330,215.1738 " fill="none" style="stroke:#181818;stroke-width:1.0;"/><path d="M1135,185.8633 L1145,185.8633 C1160,185.8633 1160,215.1738 1175,215.1738 L1185,215.1738 " fill="none" style="stroke:#181818;stroke-width:1.0;"/><path d="M902,787.0771 L912,787.0771 C927,787.0771 927,185.8633 942,185.8633 L952,185.8633 " fill="none" style="stroke:#181818;stroke-width:1.0;"/><rect fill="#ADD8E6" height="57.2422" rx="12.5" ry="12.5" style="stroke:#181818;stroke-width:1.5;" width="221" x="952" y="742.248"/><text fill="#000000" font-family="sans-serif" font-size="14" lengthAdjust="spacing" textLength="197" x="962" y="767.3555">3 - R&#233;cup&#233;ration des privil&#232;ges</text><text fill="#000000" font-family="sans-serif" font-size="14" lengthAdjust="spacing" textLength="96" x="966" y="785.9766">pour person_fk</text><rect fill="#D3D3D3" height="75.8633" rx="12.5" ry="12.5" style="stroke:#181818;stroke-width:1.5;" width="195" x="1223" y="361.0371"/><text fill="#000000" font-family="sans-serif" font-size="14" lengthAdjust="spacing" textLength="171" x="1233" y="386.1445">Privil&#232;ges des programmes</text><text fill="#000000" font-family="sans-serif" font-size="14" lengthAdjust="spacing" textLength="161" x="1237" y="404.7656">/ navires / lieux / donn&#233;es</text><text fill="#000000" font-family="sans-serif" font-size="14" lengthAdjust="spacing" textLength="162" x="1237" y="423.3867">(moins les navires exclus)</text><rect fill="#D3D3D3" height="38.6211" rx="12.5" ry="12.5" style="stroke:#181818;stroke-width:1.5;" width="160" x="1468" y="379.6582"/><text fill="#000000" font-family="sans-serif" font-size="14" lengthAdjust="spacing" textLength="140" x="1478" y="404.7656">privileges_by_location</text><rect fill="#D3D3D3" height="57.2422" rx="12.5" ry="12.5" style="stroke:#181818;stroke-width:1.5;" width="190" x="1678" y="273.7949"/><text fill="#000000" font-family="sans-serif" font-size="14" lengthAdjust="spacing" textLength="166" x="1688" y="298.9023">person_program_privilege</text><text fill="#000000" font-family="sans-serif" font-size="14" lengthAdjust="spacing" textLength="84" x="1692" y="317.5234">&lt;location_fk&gt;</text><rect fill="none" height="18.6211" style="stroke:#FFFFFF;stroke-width:1.5;" width="105" x="1918" y="254.4844"/><text fill="#000000" font-family="sans-serif" font-size="14" lengthAdjust="spacing" textLength="105" x="1918" y="269.5918">program2person</text><path d="M1868,302.416 L1878,302.416 C1893,302.416 1893,263.7949 1908,263.7949 L1918,263.7949 " fill="none" style="stroke:#181818;stroke-width:1.0;"/><rect fill="#D3D3D3" height="57.2422" rx="12.5" ry="12.5" style="stroke:#181818;stroke-width:1.5;" width="149" x="1918" y="293.1055"/><text fill="#000000" font-family="sans-serif" font-size="14" lengthAdjust="spacing" textLength="106" x="1928" y="318.2129">type de donn&#233;es</text><text fill="#000000" font-family="sans-serif" font-size="14" lengthAdjust="spacing" textLength="125" x="1932" y="336.834">sur les programmes</text><rect fill="none" height="18.6211" style="stroke:#FFFFFF;stroke-width:1.5;" width="53" x="2117" y="293.1055"/><text fill="#000000" font-family="sans-serif" font-size="14" lengthAdjust="spacing" textLength="53" x="2117" y="308.2129">program</text><path d="M2067,321.7266 L2077,321.7266 C2092,321.7266 2092,302.416 2107,302.416 L2117,302.416 " fill="none" style="stroke:#181818;stroke-width:1.0;"/><rect fill="none" height="18.6211" style="stroke:#FFFFFF;stroke-width:1.5;" width="152" x="2117" y="331.7266"/><text fill="#000000" font-family="sans-serif" font-size="14" lengthAdjust="spacing" textLength="152" x="2117" y="346.834">strategy, pmfm_strategy</text><path d="M2067,321.7266 L2077,321.7266 C2092,321.7266 2092,341.0371 2107,341.0371 L2117,341.0371 " fill="none" style="stroke:#181818;stroke-width:1.0;"/><path d="M1868,302.416 L1878,302.416 C1893,302.416 1893,321.7266 1908,321.7266 L1918,321.7266 " fill="none" style="stroke:#181818;stroke-width:1.0;"/><path d="M1628,398.9688 L1638,398.9688 C1653,398.9688 1653,302.416 1668,302.416 L1678,302.416 " fill="none" style="stroke:#181818;stroke-width:1.0;"/><rect fill="#D3D3D3" height="57.2422" rx="12.5" ry="12.5" style="stroke:#181818;stroke-width:1.5;" width="193" x="1678" y="389.6582"/><text fill="#000000" font-family="sans-serif" font-size="14" lengthAdjust="spacing" textLength="169" x="1688" y="414.7656">vessel_by_parent_location</text><text fill="#000000" font-family="sans-serif" font-size="14" lengthAdjust="spacing" textLength="133" x="1692" y="433.3867">&lt;parent_location_fk&gt;</text><rect fill="none" height="18.6211" style="stroke:#FFFFFF;stroke-width:1.5;" width="40" x="1921" y="370.3477"/><text fill="#000000" font-family="sans-serif" font-size="14" lengthAdjust="spacing" textLength="40" x="1921" y="385.4551">vessel</text><path d="M1871,418.2793 L1881,418.2793 C1896,418.2793 1896,379.6582 1911,379.6582 L1921,379.6582 " fill="none" style="stroke:#181818;stroke-width:1.0;"/><rect fill="none" height="18.6211" style="stroke:#FFFFFF;stroke-width:1.5;" width="167" x="1921" y="408.9688"/><text fill="#000000" font-family="sans-serif" font-size="14" lengthAdjust="spacing" textLength="167" x="1921" y="424.0762">vessel_registration_period</text><path d="M1871,418.2793 L1881,418.2793 C1896,418.2793 1896,418.2793 1911,418.2793 L1921,418.2793 " fill="none" style="stroke:#181818;stroke-width:1.0;"/><rect fill="none" height="18.6211" style="stroke:#FFFFFF;stroke-width:1.5;" width="116" x="1921" y="447.5898"/><text fill="#000000" font-family="sans-serif" font-size="14" lengthAdjust="spacing" textLength="116" x="1921" y="462.6973">location_hierarchy</text><path d="M1871,418.2793 L1881,418.2793 C1896,418.2793 1896,456.9004 1911,456.9004 L1921,456.9004 " fill="none" style="stroke:#181818;stroke-width:1.0;"/><path d="M1628,398.9688 L1638,398.9688 C1653,398.9688 1653,418.2793 1668,418.2793 L1678,418.2793 " fill="none" style="stroke:#181818;stroke-width:1.0;"/><rect fill="#D3D3D3" height="57.2422" rx="12.5" ry="12.5" style="stroke:#181818;stroke-width:1.5;" width="194" x="1678" y="486.2109"/><text fill="#000000" font-family="sans-serif" font-size="14" lengthAdjust="spacing" textLength="120" x="1688" y="511.3184">condition vessel_fk</text><text fill="#000000" font-family="sans-serif" font-size="14" lengthAdjust="spacing" textLength="170" x="1692" y="529.9395">not in excluded_exceptions</text><rect fill="none" height="18.6211" style="stroke:#FFFFFF;stroke-width:1.5;" width="173" x="1922" y="505.5215"/><text fill="#000000" font-family="sans-serif" font-size="14" lengthAdjust="spacing" textLength="173" x="1922" y="520.6289">program2person_exception</text><path d="M1872,514.832 L1882,514.832 C1897,514.832 1897,514.832 1912,514.832 L1922,514.832 " fill="none" style="stroke:#181818;stroke-width:1.0;"/><path d="M1628,398.9688 L1638,398.9688 C1653,398.9688 1653,514.832 1668,514.832 L1678,514.832 " fill="none" style="stroke:#181818;stroke-width:1.0;"/><path d="M1418,398.9688 L1428,398.9688 C1443,398.9688 1443,398.9688 1458,398.9688 L1468,398.9688 " fill="none" style="stroke:#181818;stroke-width:1.0;"/><path d="M1173,770.8691 L1183,770.8691 C1198,770.8691 1198,398.9688 1213,398.9688 L1223,398.9688 " fill="none" style="stroke:#181818;stroke-width:1.0;"/><rect fill="#D3D3D3" height="75.8633" rx="12.5" ry="12.5" style="stroke:#181818;stroke-width:1.5;" width="283" x="1223" y="631.3848"/><text fill="#000000" font-family="sans-serif" font-size="14" lengthAdjust="spacing" textLength="252" x="1233" y="656.4922">Privil&#232;ges par services des programmes</text><text fill="#000000" font-family="sans-serif" font-size="14" lengthAdjust="spacing" textLength="161" x="1237" y="675.1133">/ navires / lieux / donn&#233;es</text><text fill="#000000" font-family="sans-serif" font-size="14" lengthAdjust="spacing" textLength="259" x="1237" y="693.7344">(pas d'inclusion ou d'exclusion de navire)</text><rect fill="#D3D3D3" height="38.6211" rx="12.5" ry="12.5" style="stroke:#181818;stroke-width:1.5;" width="183" x="1556" y="650.0059"/><text fill="#000000" font-family="sans-serif" font-size="14" lengthAdjust="spacing" textLength="163" x="1566" y="675.1133">privileges_by_department</text><rect fill="#D3D3D3" height="57.2422" rx="12.5" ry="12.5" style="stroke:#181818;stroke-width:1.5;" width="218" x="1789" y="582.7637"/><text fill="#000000" font-family="sans-serif" font-size="14" lengthAdjust="spacing" textLength="194" x="1799" y="607.8711">department_program_privilege</text><text fill="#000000" font-family="sans-serif" font-size="14" lengthAdjust="spacing" textLength="84" x="1803" y="626.4922">&lt;location_fk&gt;</text><rect fill="none" height="18.6211" style="stroke:#FFFFFF;stroke-width:1.5;" width="141" x="2057" y="563.4531"/><text fill="#000000" font-family="sans-serif" font-size="14" lengthAdjust="spacing" textLength="141" x="2057" y="578.5605">program2departement</text><path d="M2007,611.3848 L2017,611.3848 C2032,611.3848 2032,572.7637 2047,572.7637 L2057,572.7637 " fill="none" style="stroke:#181818;stroke-width:1.0;"/><rect fill="#D3D3D3" height="57.2422" rx="12.5" ry="12.5" style="stroke:#181818;stroke-width:1.5;" width="149" x="2057" y="602.0742"/><text fill="#000000" font-family="sans-serif" font-size="14" lengthAdjust="spacing" textLength="106" x="2067" y="627.1816">type de donn&#233;es</text><text fill="#000000" font-family="sans-serif" font-size="14" lengthAdjust="spacing" textLength="125" x="2071" y="645.8027">sur les programmes</text><rect fill="none" height="18.6211" style="stroke:#FFFFFF;stroke-width:1.5;" width="53" x="2256" y="602.0742"/><text fill="#000000" font-family="sans-serif" font-size="14" lengthAdjust="spacing" textLength="53" x="2256" y="617.1816">program</text><path d="M2206,630.6953 L2216,630.6953 C2231,630.6953 2231,611.3848 2246,611.3848 L2256,611.3848 " fill="none" style="stroke:#181818;stroke-width:1.0;"/><rect fill="none" height="18.6211" style="stroke:#FFFFFF;stroke-width:1.5;" width="152" x="2256" y="640.6953"/><text fill="#000000" font-family="sans-serif" font-size="14" lengthAdjust="spacing" textLength="152" x="2256" y="655.8027">strategy, pmfm_strategy</text><path d="M2206,630.6953 L2216,630.6953 C2231,630.6953 2231,650.0059 2246,650.0059 L2256,650.0059 " fill="none" style="stroke:#181818;stroke-width:1.0;"/><path d="M2007,611.3848 L2017,611.3848 C2032,611.3848 2032,630.6953 2047,630.6953 L2057,630.6953 " fill="none" style="stroke:#181818;stroke-width:1.0;"/><path d="M1739,669.3164 L1749,669.3164 C1764,669.3164 1764,611.3848 1779,611.3848 L1789,611.3848 " fill="none" style="stroke:#181818;stroke-width:1.0;"/><rect fill="#D3D3D3" height="57.2422" rx="12.5" ry="12.5" style="stroke:#181818;stroke-width:1.5;" width="193" x="1789" y="698.627"/><text fill="#000000" font-family="sans-serif" font-size="14" lengthAdjust="spacing" textLength="169" x="1799" y="723.7344">vessel_by_parent_location</text><text fill="#000000" font-family="sans-serif" font-size="14" lengthAdjust="spacing" textLength="133" x="1803" y="742.3555">&lt;parent_location_fk&gt;</text><rect fill="none" height="18.6211" style="stroke:#FFFFFF;stroke-width:1.5;" width="40" x="2032" y="679.3164"/><text fill="#000000" font-family="sans-serif" font-size="14" lengthAdjust="spacing" textLength="40" x="2032" y="694.4238">vessel</text><path d="M1982,727.248 L1992,727.248 C2007,727.248 2007,688.627 2022,688.627 L2032,688.627 " fill="none" style="stroke:#181818;stroke-width:1.0;"/><rect fill="none" height="18.6211" style="stroke:#FFFFFF;stroke-width:1.5;" width="167" x="2032" y="717.9375"/><text fill="#000000" font-family="sans-serif" font-size="14" lengthAdjust="spacing" textLength="167" x="2032" y="733.0449">vessel_registration_period</text><path d="M1982,727.248 L1992,727.248 C2007,727.248 2007,727.248 2022,727.248 L2032,727.248 " fill="none" style="stroke:#181818;stroke-width:1.0;"/><rect fill="none" height="18.6211" style="stroke:#FFFFFF;stroke-width:1.5;" width="116" x="2032" y="756.5586"/><text fill="#000000" font-family="sans-serif" font-size="14" lengthAdjust="spacing" textLength="116" x="2032" y="771.666">location_hierarchy</text><path d="M1982,727.248 L1992,727.248 C2007,727.248 2007,765.8691 2022,765.8691 L2032,765.8691 " fill="none" style="stroke:#181818;stroke-width:1.0;"/><path d="M1739,669.3164 L1749,669.3164 C1764,669.3164 1764,727.248 1779,727.248 L1789,727.248 " fill="none" style="stroke:#181818;stroke-width:1.0;"/><path d="M1506,669.3164 L1516,669.3164 C1531,669.3164 1531,669.3164 1546,669.3164 L1556,669.3164 " fill="none" style="stroke:#181818;stroke-width:1.0;"/><path d="M1173,770.8691 L1183,770.8691 C1198,770.8691 1198,669.3164 1213,669.3164 L1223,669.3164 " fill="none" style="stroke:#181818;stroke-width:1.0;"/><rect fill="#D3D3D3" height="75.8633" rx="12.5" ry="12.5" style="stroke:#181818;stroke-width:1.5;" width="195" x="1223" y="848.8008"/><text fill="#000000" font-family="sans-serif" font-size="14" lengthAdjust="spacing" textLength="171" x="1233" y="873.9082">Privil&#232;ges des programmes</text><text fill="#000000" font-family="sans-serif" font-size="14" lengthAdjust="spacing" textLength="121" x="1237" y="892.5293">/ navires / donn&#233;es</text><text fill="#000000" font-family="sans-serif" font-size="14" lengthAdjust="spacing" textLength="152" x="1237" y="911.1504">(avec les navires inclus)</text><rect fill="#D3D3D3" height="38.6211" rx="12.5" ry="12.5" style="stroke:#181818;stroke-width:1.5;" width="197" x="1468" y="867.4219"/><text fill="#000000" font-family="sans-serif" font-size="14" lengthAdjust="spacing" textLength="177" x="1478" y="892.5293">privilege_by_inc_exceptions</text><rect fill="#D3D3D3" height="57.2422" rx="12.5" ry="12.5" style="stroke:#181818;stroke-width:1.5;" width="190" x="1715" y="814.4902"/><text fill="#000000" font-family="sans-serif" font-size="14" lengthAdjust="spacing" textLength="166" x="1725" y="839.5977">person_program_privilege</text><text fill="#000000" font-family="sans-serif" font-size="14" lengthAdjust="spacing" textLength="148" x="1729" y="858.2188">&lt;reference_person_fk&gt;</text><rect fill="none" height="18.6211" style="stroke:#FFFFFF;stroke-width:1.5;" width="105" x="1955" y="795.1797"/><text fill="#000000" font-family="sans-serif" font-size="14" lengthAdjust="spacing" textLength="105" x="1955" y="810.2871">program2person</text><path d="M1905,843.1113 L1915,843.1113 C1930,843.1113 1930,804.4902 1945,804.4902 L1955,804.4902 " fill="none" style="stroke:#181818;stroke-width:1.0;"/><rect fill="#D3D3D3" height="57.2422" rx="12.5" ry="12.5" style="stroke:#181818;stroke-width:1.5;" width="149" x="1955" y="833.8008"/><text fill="#000000" font-family="sans-serif" font-size="14" lengthAdjust="spacing" textLength="106" x="1965" y="858.9082">type de donn&#233;es</text><text fill="#000000" font-family="sans-serif" font-size="14" lengthAdjust="spacing" textLength="125" x="1969" y="877.5293">sur les programmes</text><rect fill="none" height="18.6211" style="stroke:#FFFFFF;stroke-width:1.5;" width="53" x="2154" y="833.8008"/><text fill="#000000" font-family="sans-serif" font-size="14" lengthAdjust="spacing" textLength="53" x="2154" y="848.9082">program</text><path d="M2104,862.4219 L2114,862.4219 C2129,862.4219 2129,843.1113 2144,843.1113 L2154,843.1113 " fill="none" style="stroke:#181818;stroke-width:1.0;"/><rect fill="none" height="18.6211" style="stroke:#FFFFFF;stroke-width:1.5;" width="152" x="2154" y="872.4219"/><text fill="#000000" font-family="sans-serif" font-size="14" lengthAdjust="spacing" textLength="152" x="2154" y="887.5293">strategy, pmfm_strategy</text><path d="M2104,862.4219 L2114,862.4219 C2129,862.4219 2129,881.7324 2144,881.7324 L2154,881.7324 " fill="none" style="stroke:#181818;stroke-width:1.0;"/><path d="M1905,843.1113 L1915,843.1113 C1930,843.1113 1930,862.4219 1945,862.4219 L1955,862.4219 " fill="none" style="stroke:#181818;stroke-width:1.0;"/><path d="M1665,886.7324 L1675,886.7324 C1690,886.7324 1690,843.1113 1705,843.1113 L1715,843.1113 " fill="none" style="stroke:#181818;stroke-width:1.0;"/><rect fill="#D3D3D3" height="38.6211" rx="12.5" ry="12.5" style="stroke:#181818;stroke-width:1.5;" width="148" x="1715" y="901.043"/><text fill="#000000" font-family="sans-serif" font-size="14" lengthAdjust="spacing" textLength="128" x="1725" y="926.1504">included_exceptions</text><rect fill="none" height="18.6211" style="stroke:#FFFFFF;stroke-width:1.5;" width="173" x="1913" y="911.043"/><text fill="#000000" font-family="sans-serif" font-size="14" lengthAdjust="spacing" textLength="173" x="1913" y="926.1504">program2person_exception</text><path d="M1863,920.3535 L1873,920.3535 C1888,920.3535 1888,920.3535 1903,920.3535 L1913,920.3535 " fill="none" style="stroke:#181818;stroke-width:1.0;"/><path d="M1665,886.7324 L1675,886.7324 C1690,886.7324 1690,920.3535 1705,920.3535 L1715,920.3535 " fill="none" style="stroke:#181818;stroke-width:1.0;"/><rect fill="none" height="18.6211" style="stroke:#FFFFFF;stroke-width:1.5;" width="167" x="1715" y="959.6641"/><text fill="#000000" font-family="sans-serif" font-size="14" lengthAdjust="spacing" textLength="167" x="1715" y="974.7715">vessel_registration_period</text><path d="M1665,886.7324 L1675,886.7324 C1690,886.7324 1690,968.9746 1705,968.9746 L1715,968.9746 " fill="none" style="stroke:#181818;stroke-width:1.0;"/><path d="M1418,886.7324 L1428,886.7324 C1443,886.7324 1443,886.7324 1458,886.7324 L1468,886.7324 " fill="none" style="stroke:#181818;stroke-width:1.0;"/><path d="M1173,770.8691 L1183,770.8691 C1198,770.8691 1198,886.7324 1213,886.7324 L1223,886.7324 " fill="none" style="stroke:#181818;stroke-width:1.0;"/><rect fill="#D3D3D3" height="75.8633" rx="12.5" ry="12.5" style="stroke:#181818;stroke-width:1.5;" width="267" x="1223" y="1104.8379"/><text fill="#000000" font-family="sans-serif" font-size="14" lengthAdjust="spacing" textLength="171" x="1233" y="1129.9453">Privil&#232;ges des programmes</text><text fill="#000000" font-family="sans-serif" font-size="14" lengthAdjust="spacing" textLength="181" x="1237" y="1148.5664">/ navires / donn&#233;es sans lieu</text><text fill="#000000" font-family="sans-serif" font-size="14" lengthAdjust="spacing" textLength="243" x="1237" y="1167.1875">(n'y inclusion et ni exclusion de navire)</text><rect fill="#D3D3D3" height="38.6211" rx="12.5" ry="12.5" style="stroke:#181818;stroke-width:1.5;" width="154" x="1540" y="1123.459"/><text fill="#000000" font-family="sans-serif" font-size="14" lengthAdjust="spacing" textLength="134" x="1550" y="1148.5664">privilege_no_location</text><rect fill="#D3D3D3" height="57.2422" rx="12.5" ry="12.5" style="stroke:#181818;stroke-width:1.5;" width="190" x="1744" y="1017.5957"/><text fill="#000000" font-family="sans-serif" font-size="14" lengthAdjust="spacing" textLength="166" x="1754" y="1042.7031">person_program_privilege</text><text fill="#000000" font-family="sans-serif" font-size="14" lengthAdjust="spacing" textLength="148" x="1758" y="1061.3242">&lt;reference_person_fk&gt;</text><rect fill="none" height="18.6211" style="stroke:#FFFFFF;stroke-width:1.5;" width="105" x="1984" y="998.2852"/><text fill="#000000" font-family="sans-serif" font-size="14" lengthAdjust="spacing" textLength="105" x="1984" y="1013.3926">program2person</text><path d="M1934,1046.2168 L1944,1046.2168 C1959,1046.2168 1959,1007.5957 1974,1007.5957 L1984,1007.5957 " fill="none" style="stroke:#181818;stroke-width:1.0;"/><rect fill="#D3D3D3" height="57.2422" rx="12.5" ry="12.5" style="stroke:#181818;stroke-width:1.5;" width="153" x="1984" y="1036.9063"/><text fill="#000000" font-family="sans-serif" font-size="14" lengthAdjust="spacing" textLength="129" x="1994" y="1062.0137">types de donnes sur</text><text fill="#000000" font-family="sans-serif" font-size="14" lengthAdjust="spacing" textLength="101" x="1998" y="1080.6348">les programmes</text><rect fill="none" height="18.6211" style="stroke:#FFFFFF;stroke-width:1.5;" width="53" x="2187" y="1036.9063"/><text fill="#000000" font-family="sans-serif" font-size="14" lengthAdjust="spacing" textLength="53" x="2187" y="1052.0137">program</text><path d="M2137,1065.5273 L2147,1065.5273 C2162,1065.5273 2162,1046.2168 2177,1046.2168 L2187,1046.2168 " fill="none" style="stroke:#181818;stroke-width:1.0;"/><rect fill="none" height="18.6211" style="stroke:#FFFFFF;stroke-width:1.5;" width="152" x="2187" y="1075.5273"/><text fill="#000000" font-family="sans-serif" font-size="14" lengthAdjust="spacing" textLength="152" x="2187" y="1090.6348">strategy, pmfm_strategy</text><path d="M2137,1065.5273 L2147,1065.5273 C2162,1065.5273 2162,1084.8379 2177,1084.8379 L2187,1084.8379 " fill="none" style="stroke:#181818;stroke-width:1.0;"/><path d="M1934,1046.2168 L1944,1046.2168 C1959,1046.2168 1959,1065.5273 1974,1065.5273 L1984,1065.5273 " fill="none" style="stroke:#181818;stroke-width:1.0;"/><path d="M1694,1142.7695 L1704,1142.7695 C1719,1142.7695 1719,1046.2168 1734,1046.2168 L1744,1046.2168 " fill="none" style="stroke:#181818;stroke-width:1.0;"/><rect fill="#D3D3D3" height="57.2422" rx="12.5" ry="12.5" style="stroke:#181818;stroke-width:1.5;" width="199" x="1744" y="1114.1484"/><text fill="#000000" font-family="sans-serif" font-size="14" lengthAdjust="spacing" textLength="175" x="1754" y="1139.2559">count inclusion is NULL or 0</text><text fill="#000000" font-family="sans-serif" font-size="14" lengthAdjust="spacing" textLength="140" x="1758" y="1157.877">&lt;program2person_fk&gt;</text><rect fill="none" height="18.6211" style="stroke:#FFFFFF;stroke-width:1.5;" width="173" x="1993" y="1133.459"/><text fill="#000000" font-family="sans-serif" font-size="14" lengthAdjust="spacing" textLength="173" x="1993" y="1148.5664">program2person_exception</text><path d="M1943,1142.7695 L1953,1142.7695 C1968,1142.7695 1968,1142.7695 1983,1142.7695 L1993,1142.7695 " fill="none" style="stroke:#181818;stroke-width:1.0;"/><path d="M1694,1142.7695 L1704,1142.7695 C1719,1142.7695 1719,1142.7695 1734,1142.7695 L1744,1142.7695 " fill="none" style="stroke:#181818;stroke-width:1.0;"/><rect fill="#D3D3D3" height="57.2422" rx="12.5" ry="12.5" style="stroke:#181818;stroke-width:1.5;" width="194" x="1744" y="1191.3906"/><text fill="#000000" font-family="sans-serif" font-size="14" lengthAdjust="spacing" textLength="120" x="1754" y="1216.498">condition vessel_fk</text><text fill="#000000" font-family="sans-serif" font-size="14" lengthAdjust="spacing" textLength="170" x="1758" y="1235.1191">not in excluded_exceptions</text><rect fill="none" height="18.6211" style="stroke:#FFFFFF;stroke-width:1.5;" width="173" x="1988" y="1210.7012"/><text fill="#000000" font-family="sans-serif" font-size="14" lengthAdjust="spacing" textLength="173" x="1988" y="1225.8086">program2person_exception</text><path d="M1938,1220.0117 L1948,1220.0117 C1963,1220.0117 1963,1220.0117 1978,1220.0117 L1988,1220.0117 " fill="none" style="stroke:#181818;stroke-width:1.0;"/><path d="M1694,1142.7695 L1704,1142.7695 C1719,1142.7695 1719,1220.0117 1734,1220.0117 L1744,1220.0117 " fill="none" style="stroke:#181818;stroke-width:1.0;"/><rect fill="none" height="18.6211" style="stroke:#FFFFFF;stroke-width:1.5;" width="214" x="1744" y="1268.6328"/><text fill="#000000" font-family="sans-serif" font-size="14" lengthAdjust="spacing" textLength="214" x="1744" y="1283.7402">condition vessel.program_fk = SIH</text><path d="M1694,1142.7695 L1704,1142.7695 C1719,1142.7695 1719,1277.9434 1734,1277.9434 L1744,1277.9434 " fill="none" style="stroke:#181818;stroke-width:1.0;"/><path d="M1490,1142.7695 L1500,1142.7695 C1515,1142.7695 1515,1142.7695 1530,1142.7695 L1540,1142.7695 " fill="none" style="stroke:#181818;stroke-width:1.0;"/><path d="M1173,770.8691 L1183,770.8691 C1198,770.8691 1198,1142.7695 1213,1142.7695 L1223,1142.7695 " fill="none" style="stroke:#181818;stroke-width:1.0;"/><path d="M902,787.0771 L912,787.0771 C927,787.0771 927,770.8691 942,770.8691 L952,770.8691 " fill="none" style="stroke:#181818;stroke-width:1.0;"/><rect fill="#ADD8E6" height="113.1055" rx="12.5" ry="12.5" style="stroke:#181818;stroke-width:1.5;" width="209" x="952" y="1287.9434"/><text fill="#000000" font-family="sans-serif" font-size="14" lengthAdjust="spacing" textLength="62" x="962" y="1313.0508">4 - UNION</text><text fill="#000000" font-family="sans-serif" font-size="14" lengthAdjust="spacing" textLength="149" x="966" y="1331.6719">(privileges_by_location,</text><text fill="#000000" font-family="sans-serif" font-size="14" lengthAdjust="spacing" textLength="181" x="966" y="1350.293">privilege_by_inc_exceptions,</text><text fill="#000000" font-family="sans-serif" font-size="14" lengthAdjust="spacing" textLength="138" x="966" y="1368.9141">privilege_no_location,</text><text fill="#000000" font-family="sans-serif" font-size="14" lengthAdjust="spacing" textLength="168" x="966" y="1387.5352">privileges_by_department)</text><rect fill="none" height="74.4844" style="stroke:#FFFFFF;stroke-width:1.5;" width="180" x="1211" y="1307.2539"/><text fill="#000000" font-family="sans-serif" font-size="14" lengthAdjust="spacing" textLength="176" x="1211" y="1322.3613">R&#233;cup&#233;ration des privil&#232;ges</text><text fill="#000000" font-family="sans-serif" font-size="14" lengthAdjust="spacing" textLength="72" x="1215" y="1340.9824">sur Navire /</text><text fill="#000000" font-family="sans-serif" font-size="14" lengthAdjust="spacing" textLength="81" x="1215" y="1359.6035">Programme /</text><text fill="#000000" font-family="sans-serif" font-size="14" lengthAdjust="spacing" textLength="118" x="1215" y="1378.2246">Types de donn&#233;es</text><path d="M1161,1344.4961 L1171,1344.4961 C1186,1344.4961 1186,1344.4961 1201,1344.4961 L1211,1344.4961 " fill="none" style="stroke:#181818;stroke-width:1.0;"/><path d="M902,787.0771 L912,787.0771 C927,787.0771 927,1344.4961 942,1344.4961 L952,1344.4961 " fill="none" style="stroke:#181818;stroke-width:1.0;"/><rect fill="#ADD8E6" height="57.2422" rx="12.5" ry="12.5" style="stroke:#181818;stroke-width:1.5;" width="183" x="952" y="1458.9805"/><text fill="#000000" font-family="sans-serif" font-size="14" lengthAdjust="spacing" textLength="159" x="962" y="1484.0879">5 - Pour chaque privil&#232;ge</text><text fill="#000000" font-family="sans-serif" font-size="14" lengthAdjust="spacing" textLength="57" x="966" y="1502.709">r&#233;cup&#233;r&#233;</text><rect fill="none" height="37.2422" style="stroke:#FFFFFF;stroke-width:1.5;" width="320" x="1185" y="1421.0488"/><text fill="#000000" font-family="sans-serif" font-size="14" lengthAdjust="spacing" textLength="126" x="1185" y="1436.1563">Ecriture du privil&#232;ge</text><text fill="#000000" font-family="sans-serif" font-size="14" lengthAdjust="spacing" textLength="316" x="1189" y="1454.7773">dans la table TEMP_PERSON_SESSION_VESSEL</text><path d="M1135,1487.6016 L1145,1487.6016 C1160,1487.6016 1160,1439.6699 1175,1439.6699 L1185,1439.6699 " fill="none" style="stroke:#181818;stroke-width:1.0;"/><rect fill="#D3D3D3" height="57.2422" rx="12.5" ry="12.5" style="stroke:#181818;stroke-width:1.5;" width="209" x="1185" y="1487.6016"/><text fill="#000000" font-family="sans-serif" font-size="14" lengthAdjust="spacing" textLength="69" x="1195" y="1512.709">Mise &#224; jour</text><text fill="#000000" font-family="sans-serif" font-size="14" lengthAdjust="spacing" textLength="185" x="1199" y="1531.3301">PERSON_SESSION_VESSEL</text><rect fill="none" height="37.2422" style="stroke:#FFFFFF;stroke-width:1.5;" width="206" x="1444" y="1478.291"/><text fill="#000000" font-family="sans-serif" font-size="14" lengthAdjust="spacing" textLength="202" x="1444" y="1493.3984">UPDATE : Mise &#224; jour des droits</text><text fill="#000000" font-family="sans-serif" font-size="14" lengthAdjust="spacing" textLength="117" x="1448" y="1512.0195">s'ils sont diff&#233;rents</text><path d="M1394,1516.2227 L1404,1516.2227 C1419,1516.2227 1419,1496.9121 1434,1496.9121 L1444,1496.9121 " fill="none" style="stroke:#181818;stroke-width:1.0;"/><rect fill="none" height="18.6211" style="stroke:#FFFFFF;stroke-width:1.5;" width="246" x="1444" y="1535.5332"/><text fill="#000000" font-family="sans-serif" font-size="14" lengthAdjust="spacing" textLength="246" x="1444" y="1550.6406">INSERT : Insertion des nouveaux droits</text><path d="M1394,1516.2227 L1404,1516.2227 C1419,1516.2227 1419,1544.8438 1434,1544.8438 L1444,1544.8438 " fill="none" style="stroke:#181818;stroke-width:1.0;"/><path d="M1135,1487.6016 L1145,1487.6016 C1160,1487.6016 1160,1516.2227 1175,1516.2227 L1185,1516.2227 " fill="none" style="stroke:#181818;stroke-width:1.0;"/><path d="M902,787.0771 L912,787.0771 C927,787.0771 927,1487.6016 942,1487.6016 L952,1487.6016 " fill="none" style="stroke:#181818;stroke-width:1.0;"/><rect fill="#ADD8E6" height="57.2422" rx="12.5" ry="12.5" style="stroke:#181818;stroke-width:1.5;" width="204" x="443" y="719.835"/><text fill="#000000" font-family="sans-serif" font-size="14" lengthAdjust="spacing" textLength="180" x="453" y="744.9424">6 - Suppression des anciens</text><text fill="#000000" font-family="sans-serif" font-size="14" lengthAdjust="spacing" textLength="60" x="457" y="763.5635">privil&#232;ges</text><rect fill="none" height="55.8633" style="stroke:#FFFFFF;stroke-width:1.5;" width="291" x="102" y="681.9033"/><text fill="#000000" font-family="sans-serif" font-size="14" lengthAdjust="spacing" textLength="270" x="102" y="697.0107">Privil&#232;ges de PERSON_SESSION_VESSEL</text><text fill="#000000" font-family="sans-serif" font-size="14" lengthAdjust="spacing" textLength="283" x="106" y="715.6318">qui ne sont pas dans les nouveaux privil&#232;ges</text><text fill="#000000" font-family="sans-serif" font-size="14" lengthAdjust="spacing" textLength="241" x="106" y="734.2529">(TEMP_PERSON_SESSION_VESSEL)</text><path d="M443,748.4561 L433,748.4561 C418,748.4561 418,709.835 403,709.835 L393,709.835 " fill="none" style="stroke:#181818;stroke-width:1.0;"/><rect fill="#D3D3D3" height="57.2422" rx="12.5" ry="12.5" style="stroke:#181818;stroke-width:1.5;" width="167" x="226" y="757.7666"/><text fill="#000000" font-family="sans-serif" font-size="14" lengthAdjust="spacing" textLength="143" x="236" y="782.874">Historisation des droits</text><text fill="#000000" font-family="sans-serif" font-size="14" lengthAdjust="spacing" textLength="65" x="240" y="801.4951">supprim&#233;s</text><rect fill="none" height="37.2422" style="stroke:#FFFFFF;stroke-width:1.5;" width="166" x="10" y="767.7666"/><text fill="#000000" font-family="sans-serif" font-size="14" lengthAdjust="spacing" textLength="89" x="10" y="782.874">Insertion dans</text><text fill="#000000" font-family="sans-serif" font-size="14" lengthAdjust="spacing" textLength="162" x="14" y="801.4951">DELETE_ITEM_HISTORY</text><path d="M226,786.3877 L216,786.3877 C201,786.3877 201,786.3877 186,786.3877 L176,786.3877 " fill="none" style="stroke:#181818;stroke-width:1.0;"/><path d="M443,748.4561 L433,748.4561 C418,748.4561 418,786.3877 403,786.3877 L393,786.3877 " fill="none" style="stroke:#181818;stroke-width:1.0;"/><path d="M697,787.0771 L687,787.0771 C672,787.0771 672,748.4561 657,748.4561 L647,748.4561 " fill="none" style="stroke:#181818;stroke-width:1.0;"/><rect fill="#ADD8E6" height="57.2422" rx="12.5" ry="12.5" style="stroke:#181818;stroke-width:1.5;" width="265" x="382" y="835.0088"/><text fill="#000000" font-family="sans-serif" font-size="14" lengthAdjust="spacing" textLength="241" x="392" y="860.1162">7 - Mise &#224; jour de la dur&#233;e d'ex&#233;cution</text><text fill="#000000" font-family="sans-serif" font-size="14" lengthAdjust="spacing" textLength="104" x="396" y="878.7373">de la mise &#224; jour</text><rect fill="none" height="18.6211" style="stroke:#FFFFFF;stroke-width:1.5;" width="177" x="155" y="854.3193"/><text fill="#000000" font-family="sans-serif" font-size="14" lengthAdjust="spacing" textLength="177" x="155" y="869.4268">person_session.fill_duration</text><path d="M382,863.6299 L372,863.6299 C357,863.6299 357,863.6299 342,863.6299 L332,863.6299 " fill="none" style="stroke:#181818;stroke-width:1.0;"/><path d="M697,787.0771 L687,787.0771 C672,787.0771 672,863.6299 657,863.6299 L647,863.6299 " fill="none" style="stroke:#181818;stroke-width:1.0;"/><rect fill="#DDDDDD" height="32.6211" id="_legend" rx="7.5" ry="7.5" style="stroke:#000000;stroke-width:1.0;" width="262" x="22" y="1576.1543"/><rect fill="#FFA500" height="18.6211" style="stroke:none;stroke-width:1.0;" width="56" x="27" y="1583.1543"/><text fill="#000000" font-family="sans-serif" font-size="14" lengthAdjust="spacing" textLength="48" x="31" y="1598.2617">Objectif</text><rect fill="#ADD8E6" height="18.6211" style="stroke:none;stroke-width:1.0;" width="49" x="83" y="1583.1543"/><text fill="#000000" font-family="sans-serif" font-size="14" lengthAdjust="spacing" textLength="41" x="87" y="1598.2617">Acteur</text><rect fill="#D3D3D3" height="18.6211" style="stroke:none;stroke-width:1.0;" width="100" x="132" y="1583.1543"/><text fill="#000000" font-family="sans-serif" font-size="14" lengthAdjust="spacing" textLength="92" x="136" y="1598.2617">Levier d'action</text><rect fill="#FFFFFF" height="18.6211" style="stroke:none;stroke-width:1.0;" width="47" x="232" y="1583.1543"/><text fill="#000000" font-family="sans-serif" font-size="14" lengthAdjust="spacing" textLength="39" x="236" y="1598.2617">Action</text><line style="stroke:#000000;stroke-width:1.0;" x1="27" x2="279" y1="1583.1543" y2="1583.1543"/><line style="stroke:#000000;stroke-width:1.0;" x1="27" x2="279" y1="1601.7754" y2="1601.7754"/><line style="stroke:#000000;stroke-width:1.0;" x1="27" x2="27" y1="1583.1543" y2="1601.7754"/><line style="stroke:#000000;stroke-width:1.0;" x1="83" x2="83" y1="1583.1543" y2="1601.7754"/><line style="stroke:#000000;stroke-width:1.0;" x1="132" x2="132" y1="1583.1543" y2="1601.7754"/><line style="stroke:#000000;stroke-width:1.0;" x1="232" x2="232" y1="1583.1543" y2="1601.7754"/><line style="stroke:#000000;stroke-width:1.0;" x1="279" x2="279" y1="1583.1543" y2="1601.7754"/><!--SRC=[xLZTRjis5BxNKnoW5ucBDecTjWECB6YQE8axnpPi9yM00G8Z7Tji9L8b9I_6idVPvV8SVh4Taf8jExRNjFi1XkKYYSZp-_7ZqJbwgrEcqfYBC6Q9TwJJQOJ7df0XmYyUc9ztBFWqKZ8JuQcCf88M7utJ2yMctgzUFSGa7UyUL3O9TnGJ8rn8LYjRpRwBCYCS8Hks5o6qk40dzFEOfsZNUavJ2LHmO5UwB0ov6ELFg-Q55CRoqNwUuPYJUOoJT0ennhUejFSSBb2dN0e8KKEe94yr_2GWItd4DKinKnfEeWZ9hba_zy-RhPRVRVJwdRRVR_JxpKxRREmcVa86fV27doesckTGXPTmBaLWxPDCrodthqdzfjdlz1mgLhQV9Ob2hOjGc0Wu2Ws9uXCUpNuVePvBEurkhtFHExcgkLXAfau-oYobvBC9ikpkQHQUGus2Nc02ywHC0Y6ZY9PpB_bjt76TdzHYiJTx2B9azg2OjPXh-Sspac9x1wqg96mrH2uqAgEvjExsr2RJ8F0kdR38orCwf9HMuZ0Gbu0noIKoKujqI-5rIt9EJuuKYsEdjW-2JJWT7VqNSIJ0zo6KGimUtFvkB2a9YEYf4CIx8CfqPILL5mwI5_zswaSoO1lopcFCm_3dUiRRKQ57AHm_qYqSMSMQixD1A9qcQCw_d8ecWA8b0DOgBtdP8g5JEWmSJLz04WzZltXSa_64BWP61fQ4AHJf71sRyihQbioTdQsRli8Hjw4OKmGHb-46XRd3CKV5L31U5teWHSXjgBbzTvE4J8dRZWaXXZxzGxMInFGN7Tf2VWDF2HEWcpFXmTUHbcuYX3jS6AAQu6L6ZuwtUM5m1hQJcEg_UT7GwQn1Ph7vxLHsjd2jf__v_EryVaeHNE8Hcs2mLFiSfJRInc128jlkmvyKG8L39Fm2NBoF_pk5qABtrzIB9n7bgyvVcsx1L1VB1B4pXKKzGMfGE3obeFX2VlLByU_WX2v8OJ8bFf2VVuKI0VMxQGbPhg5ztMe1zRy7hfmiC-5BKzzAcN_ihRRPvLvnrEJwU-WtBxsYtNj5xTvrUzwNhsshNjYERtFLMTalSMzvP-KrL_4sThvhEav3cxPbFLqRCnyKt76FWpBBp8qg4dnD2NPDjngCsUSCIsQDshmjdZsKc_D0yJGZJs6s8c-R-eX1ocuZX47ZghiotlWtzBVHAXcxuXfXzXjyb8xus-MTpdNtx6JGWFgoylBKfNTuHBT94g53FXnI3eJfwaZGRFSRlG4PQXQpWRKodtUSkPmD4GvJq3JtvT2z8UWsZLhpSrsUbLPht_fiZVRdZDFeuUAt3HGh6lyrivWbvsQqoqowfBeibHb77m-gsYJ3uzd38vWMw32Nt5cZrHWq_2OvzI-R_K6dzsEEodU4oign64Q46N48RUDdE5KqA6upBibxZ-gmTlZk3NaK-MJ7bMtFN1aHsbFnxe-UkIy5nz2v_OWq9G_X7ewUpJyA7CD9O0PmkCyNpGU8OsZXXFeJYegvmTheV33V2AoyNV78YNFbUM_fT_6fm-j6JAJNLosg8SgUVtMlTb0xtAjMTpzW27rCe7e8jODwxKtzy11E6_q1686AjtlHRT79PYeWGCnxajzQG2hUUpPXqACYp6EiGoT1yVxiXs816eBkjnIsCtr_SxKGUFFgvJkUaaj5iS3DbNU6GvP5AMa4qdpKgCDfKgszhdaj0YbZ8p8-LDwfAVTgMeVptXy0]--></g></svg>