<?xml version="1.0" encoding="us-ascii" standalone="no"?><svg xmlns="http://www.w3.org/2000/svg" xmlns:xlink="http://www.w3.org/1999/xlink" contentStyleType="text/css" height="189px" preserveAspectRatio="none" style="width:278px;height:189px;background:#FFFFFF;" version="1.1" viewBox="0 0 278 189" width="278px" zoomAndPan="magnify"><defs/><g><text fill="#000000" font-family="sans-serif" font-size="12" lengthAdjust="spacing" textLength="112" x="7" y="19.457">Lot MNZ - Baudroie -</text><text fill="#000000" font-family="sans-serif" font-size="12" font-weight="bold" lengthAdjust="spacing" textLength="123" x="122" y="19.457">Mesures individuelles</text><line style="stroke:#AAAAAA;stroke-width:1.0;stroke-dasharray:1.0,2.0;" x1="6" x2="271" y1="28.5938" y2="28.5938"/><text fill="#000000" font-family="sans-serif" font-size="12" font-weight="bold" lengthAdjust="spacing" textLength="78" x="44" y="65.6445">Mensurations</text><ellipse cx="31" cy="60.7344" fill="none" rx="5" ry="5" style="stroke:#000000;stroke-width:1.5;"/><text fill="#000000" font-family="sans-serif" font-size="12" font-weight="bold" lengthAdjust="spacing" textLength="88" x="144" y="65.6445">D&#233;nombrement</text><ellipse cx="131" cy="60.7344" fill="none" rx="5" ry="5" style="stroke:#000000;stroke-width:1.5;"/><ellipse cx="131" cy="60.7344" fill="#000000" rx="2" ry="2" style="stroke:#000000;stroke-width:1.5;"/><line style="stroke:#AAAAAA;stroke-width:1.0;" x1="18" x2="259" y1="74.7813" y2="74.7813"/><text fill="#000000" font-family="sans-serif" font-size="12" lengthAdjust="spacing" textLength="114" x="24" y="92.7383">Nombre d'individus *</text><text fill="#000000" font-family="sans-serif" font-size="12" lengthAdjust="spacing" textLength="7" x="27" y="111.832">4</text><line style="stroke:#000000;stroke-width:1.0;" x1="25" x2="76" y1="114.4688" y2="114.4688"/><line style="stroke:#000000;stroke-width:1.0;" x1="25" x2="25" y1="111.4688" y2="113.4688"/><line style="stroke:#000000;stroke-width:1.0;" x1="76" x2="76" y1="111.4688" y2="113.4688"/><line style="stroke:#000000;stroke-width:1.0;" x1="17" x2="259" y1="51.1875" y2="51.1875"/><line style="stroke:#000000;stroke-width:1.0;" x1="17" x2="259" y1="135.5625" y2="135.5625"/><line style="stroke:#000000;stroke-width:1.0;" x1="17" x2="17" y1="51.1875" y2="70.2813"/><line style="stroke:#000000;stroke-width:1.0;" x1="259" x2="259" y1="70.2813" y2="78.2813"/><line style="stroke:#000000;stroke-width:1.0;" x1="259" x2="259" y1="51.1875" y2="70.2813"/><line style="stroke:#000000;stroke-width:1.0;" x1="17" x2="17" y1="118.4688" y2="135.5625"/><line style="stroke:#000000;stroke-width:1.0;" x1="17" x2="17" y1="97.375" y2="118.4688"/><line style="stroke:#000000;stroke-width:1.0;" x1="259" x2="259" y1="118.4688" y2="135.5625"/><line style="stroke:#000000;stroke-width:1.0;" x1="17" x2="17" y1="78.2813" y2="97.375"/><line style="stroke:#000000;stroke-width:1.0;" x1="259" x2="259" y1="97.375" y2="118.4688"/><line style="stroke:#000000;stroke-width:1.0;" x1="17" x2="17" y1="70.2813" y2="78.2813"/><line style="stroke:#000000;stroke-width:1.0;" x1="259" x2="259" y1="78.2813" y2="97.375"/><rect fill="#EEEEEE" height="19.0938" rx="5" ry="5" style="stroke:#000000;stroke-width:2.5;" width="60" x="49.5" y="159.1563"/><text fill="#000000" font-family="sans-serif" font-size="12" lengthAdjust="spacing" textLength="42" x="58.5" y="173.6133">Annuler</text><rect fill="#EEEEEE" height="19.0938" rx="5" ry="5" style="stroke:#000000;stroke-width:2.5;" width="76" x="116.5" y="159.1563"/><text fill="#000000" font-family="sans-serif" font-size="12" lengthAdjust="spacing" textLength="52" x="128.5" y="173.6133">Appliquer</text><line style="stroke:#000000;stroke-width:1.0;" x1="5" x2="271" y1="5" y2="5"/><line style="stroke:#000000;stroke-width:1.0;" x1="5" x2="271" y1="182.75" y2="182.75"/><line style="stroke:#000000;stroke-width:1.0;" x1="5" x2="5" y1="5" y2="24.0938"/><line style="stroke:#000000;stroke-width:1.0;" x1="271" x2="271" y1="24.0938" y2="32.0938"/><line style="stroke:#000000;stroke-width:1.0;" x1="271" x2="271" y1="5" y2="24.0938"/><line style="stroke:#000000;stroke-width:1.0;" x1="5" x2="5" y1="154.6563" y2="182.75"/><line style="stroke:#000000;stroke-width:1.0;" x1="5" x2="5" y1="137.5625" y2="154.6563"/><line style="stroke:#000000;stroke-width:1.0;" x1="271" x2="271" y1="154.6563" y2="182.75"/><line style="stroke:#000000;stroke-width:1.0;" x1="5" x2="5" y1="49.1875" y2="137.5625"/><line style="stroke:#000000;stroke-width:1.0;" x1="271" x2="271" y1="137.5625" y2="154.6563"/><line style="stroke:#000000;stroke-width:1.0;" x1="5" x2="5" y1="32.0938" y2="49.1875"/><line style="stroke:#000000;stroke-width:1.0;" x1="271" x2="271" y1="49.1875" y2="137.5625"/><line style="stroke:#000000;stroke-width:1.0;" x1="5" x2="5" y1="24.0938" y2="32.0938"/><line style="stroke:#000000;stroke-width:1.0;" x1="271" x2="271" y1="32.0938" y2="49.1875"/></g></svg>