<svg xmlns="http://www.w3.org/2000/svg" xmlns:xlink="http://www.w3.org/1999/xlink" contentStyleType="text/css" height="233px" preserveAspectRatio="none" style="width:512px;height:233px;background:#FFFFFF;" version="1.1" viewBox="0 0 512 233" width="512px" zoomAndPan="magnify"><defs/><g><text fill="#FFFFFF" font-family="sans-serif" font-size="12" lengthAdjust="spacing" textLength="14.0156" x="7" y="19.9492">++</text><text fill="#FFFFFF" font-family="sans-serif" font-size="12" lengthAdjust="spacing" textLength="14.0156" x="490.0156" y="19.9492">++</text><text fill="#FFFFFF" font-family="sans-serif" font-size="12" lengthAdjust="spacing" textLength="56.0625" x="53.0469" y="37.9102">++++++++</text><text fill="#000000" font-family="sans-serif" font-size="16" font-weight="bold" lengthAdjust="spacing" textLength="283.625" x="111.1094" y="42.2266">Bienvenue sur le site web SUMARiS !</text><text fill="#FFFFFF" font-family="sans-serif" font-size="12" lengthAdjust="spacing" textLength="56.0625" x="396.7344" y="37.9102">++++++++</text><text fill="#000000" font-family="sans-serif" font-size="12" lengthAdjust="spacing" textLength="462.3164" x="23.0156" y="61.1914">Base de donn&#233;es partag&#233;e pour des programmes de collecte de donn&#233;es halieutiques.</text><text fill="#FFFFFF" font-family="sans-serif" font-size="12" lengthAdjust="spacing" textLength="28.0313" x="23.0156" y="97.1133">++++</text><text fill="#000000" font-family="sans-serif" font-size="12" lengthAdjust="spacing" textLength="398.1387" x="53.0469" y="97.1133">Vous n'avez actuellement aucun droit d'acc&#232;s &#224; un programme de collecte.</text><text fill="#FFFFFF" font-family="sans-serif" font-size="12" lengthAdjust="spacing" textLength="28.0313" x="454.7969" y="97.1133">++++</text><rect fill="#EEEEEE" height="19.9609" rx="5" ry="5" style="stroke:#000000;stroke-width:2.5;" width="460" x="25.5156" y="122.5859"/><path d="M87.9193,127.7135 L87.9193,128.8802 L92.5859,128.8802 L92.5859,134.7135 L87.9193,134.7135 L87.9193,135.8802 L93.7526,135.8802 L93.7526,127.7135 L87.9193,127.7135 M89.0859,130.0469 L89.0859,131.2135 L84.4193,131.2135 L84.4193,132.3802 L89.0859,132.3802 L89.0859,133.5469 L91.4193,131.7969 L89.0859,130.0469 " fill="#000000" style="stroke:;stroke-width:0.0;stroke-dasharray:;"/><text fill="#000000" font-family="sans-serif" font-size="12" font-weight="bold" lengthAdjust="spacing" textLength="329.5254" x="98.0866" y="137.5352">DEMANDER L'ACC&#200;S &#192; UN PROGRAMME DE COLLECTE</text><rect fill="#EEEEEE" height="19.9609" rx="5" ry="5" style="stroke:#000000;stroke-width:2.5;" width="460" x="25.5156" y="149.5469"/><path d="M212.5166,154.6745 C211.2333,154.6745 210.1833,155.9811 210.1833,157.5911 C210.1833,159.2011 211.2333,160.5078 212.5166,160.5078 C213.7999,160.5078 214.8499,159.2011 214.8499,157.5911 C214.8499,155.9811 213.7999,154.6745 212.5166,154.6745 M210.0783,160.5078 C208.8416,160.5661 207.8499,161.5811 207.8499,162.8411 L207.8499,164.0078 L217.1833,164.0078 L217.1833,162.8411 C217.1833,161.5811 216.2033,160.5661 214.9549,160.5078 C214.3249,161.2195 213.4616,161.6745 212.5166,161.6745 C211.5716,161.6745 210.7083,161.2195 210.0783,160.5078 " fill="#000000" style="stroke:;stroke-width:0.0;stroke-dasharray:;"/><text fill="#000000" font-family="sans-serif" font-size="12" font-weight="bold" lengthAdjust="spacing" textLength="82.6641" x="221.5173" y="164.4961">MON COMPTE</text><text fill="#FFFFFF" font-family="sans-serif" font-size="12" lengthAdjust="spacing" textLength="56.0625" x="111.1094" y="186.957">++++++++</text><text fill="#000000" font-family="sans-serif" font-size="12" lengthAdjust="spacing" textLength="85.0137" x="169.1719" y="186.957">Vous n'&#234;tes pas</text><text fill="#000000" font-family="sans-serif" font-size="12" font-weight="bold" lengthAdjust="spacing" textLength="58.002" x="257.5195" y="186.957">John DOE</text><text fill="#000000" font-family="sans-serif" font-size="12" lengthAdjust="spacing" textLength="6.6738" x="318.8555" y="186.957">?</text><text fill="#FFFFFF" font-family="sans-serif" font-size="12" lengthAdjust="spacing" textLength="63.0703" x="329.9355" y="186.957">+++++++++</text><text fill="#FFFFFF" font-family="sans-serif" font-size="12" lengthAdjust="spacing" textLength="14.0156" x="169.1719" y="204.918">++</text><text fill="#000000" font-family="sans-serif" font-size="12" lengthAdjust="spacing" text-decoration="underline" textLength="126.7324" x="185.1875" y="204.918">D&#233;connecter ce compte</text><text fill="#FFFFFF" font-family="sans-serif" font-size="12" lengthAdjust="spacing" textLength="14.0156" x="313.9199" y="204.918">++</text><line style="stroke:#000000;stroke-width:1.0;" x1="6" x2="22.0156" y1="6" y2="6"/><line style="stroke:#000000;stroke-width:1.0;" x1="22.0156" x2="52.0469" y1="6" y2="6"/><line style="stroke:#000000;stroke-width:1.0;" x1="52.0469" x2="110.1094" y1="6" y2="6"/><line style="stroke:#000000;stroke-width:1.0;" x1="110.1094" x2="168.1719" y1="6" y2="6"/><line style="stroke:#000000;stroke-width:1.0;" x1="168.1719" x2="184.1875" y1="6" y2="6"/><line style="stroke:#000000;stroke-width:1.0;" x1="6" x2="22.0156" y1="226.8906" y2="226.8906"/><line style="stroke:#000000;stroke-width:1.0;" x1="184.1875" x2="312.9199" y1="6" y2="6"/><line style="stroke:#000000;stroke-width:1.0;" x1="22.0156" x2="52.0469" y1="226.8906" y2="226.8906"/><line style="stroke:#000000;stroke-width:1.0;" x1="312.9199" x2="328.9355" y1="6" y2="6"/><line style="stroke:#000000;stroke-width:1.0;" x1="52.0469" x2="110.1094" y1="226.8906" y2="226.8906"/><line style="stroke:#000000;stroke-width:1.0;" x1="328.9355" x2="395.7344" y1="6" y2="6"/><line style="stroke:#000000;stroke-width:1.0;" x1="110.1094" x2="168.1719" y1="226.8906" y2="226.8906"/><line style="stroke:#000000;stroke-width:1.0;" x1="395.7344" x2="453.7969" y1="6" y2="6"/><line style="stroke:#000000;stroke-width:1.0;" x1="168.1719" x2="184.1875" y1="226.8906" y2="226.8906"/><line style="stroke:#000000;stroke-width:1.0;" x1="453.7969" x2="489.0156" y1="6" y2="6"/><line style="stroke:#000000;stroke-width:1.0;" x1="184.1875" x2="312.9199" y1="226.8906" y2="226.8906"/><line style="stroke:#000000;stroke-width:1.0;" x1="489.0156" x2="505.0313" y1="6" y2="6"/><line style="stroke:#000000;stroke-width:1.0;" x1="312.9199" x2="328.9355" y1="226.8906" y2="226.8906"/><line style="stroke:#000000;stroke-width:1.0;" x1="328.9355" x2="395.7344" y1="226.8906" y2="226.8906"/><line style="stroke:#000000;stroke-width:1.0;" x1="395.7344" x2="453.7969" y1="226.8906" y2="226.8906"/><line style="stroke:#000000;stroke-width:1.0;" x1="453.7969" x2="489.0156" y1="226.8906" y2="226.8906"/><line style="stroke:#000000;stroke-width:1.0;" x1="489.0156" x2="505.0313" y1="226.8906" y2="226.8906"/><line style="stroke:#000000;stroke-width:1.0;" x1="6" x2="6" y1="6" y2="23.9609"/><line style="stroke:#000000;stroke-width:1.0;" x1="505.0313" x2="505.0313" y1="208.9297" y2="226.8906"/><line style="stroke:#000000;stroke-width:1.0;" x1="505.0313" x2="505.0313" y1="173.0078" y2="190.9688"/><line style="stroke:#000000;stroke-width:1.0;" x1="505.0313" x2="505.0313" y1="119.0859" y2="146.0469"/><line style="stroke:#000000;stroke-width:1.0;" x1="505.0313" x2="505.0313" y1="83.1641" y2="101.125"/><line style="stroke:#000000;stroke-width:1.0;" x1="6" x2="6" y1="190.9688" y2="208.9297"/><line style="stroke:#000000;stroke-width:1.0;" x1="505.0313" x2="505.0313" y1="47.2422" y2="65.2031"/><line style="stroke:#000000;stroke-width:1.0;" x1="6" x2="6" y1="146.0469" y2="173.0078"/><line style="stroke:#000000;stroke-width:1.0;" x1="505.0313" x2="505.0313" y1="6" y2="23.9609"/><line style="stroke:#000000;stroke-width:1.0;" x1="6" x2="6" y1="101.125" y2="119.0859"/><line style="stroke:#000000;stroke-width:1.0;" x1="6" x2="6" y1="65.2031" y2="83.1641"/><line style="stroke:#000000;stroke-width:1.0;" x1="6" x2="6" y1="23.9609" y2="47.2422"/><line style="stroke:#000000;stroke-width:1.0;" x1="505.0313" x2="505.0313" y1="190.9688" y2="208.9297"/><line style="stroke:#000000;stroke-width:1.0;" x1="505.0313" x2="505.0313" y1="146.0469" y2="173.0078"/><line style="stroke:#000000;stroke-width:1.0;" x1="505.0313" x2="505.0313" y1="101.125" y2="119.0859"/><line style="stroke:#000000;stroke-width:1.0;" x1="6" x2="6" y1="208.9297" y2="226.8906"/><line style="stroke:#000000;stroke-width:1.0;" x1="505.0313" x2="505.0313" y1="65.2031" y2="83.1641"/><line style="stroke:#000000;stroke-width:1.0;" x1="6" x2="6" y1="173.0078" y2="190.9688"/><line style="stroke:#000000;stroke-width:1.0;" x1="505.0313" x2="505.0313" y1="23.9609" y2="47.2422"/><line style="stroke:#000000;stroke-width:1.0;" x1="6" x2="6" y1="119.0859" y2="146.0469"/><line style="stroke:#000000;stroke-width:1.0;" x1="6" x2="6" y1="83.1641" y2="101.125"/><line style="stroke:#000000;stroke-width:1.0;" x1="6" x2="6" y1="47.2422" y2="65.2031"/><!--SRC=[fLJRRjf047ttLqnVIb842IaAaONSWErKfHYGkRnKULZinLd9xBfxeMekKX_x6Nri-Xl-iOvf6We9eKr7NkrgTYvdF6VsL6aYjIAfjguiGBagBxT2cf58XRHdIt7APRY6wb-iJRVxUDiCVabneTWbjMl7JdFgj1db2yeD1MKafBWnJU4JdS9m7BH2DeGNwF5gOsqDlSozXgHD58KOFy5vVaiLPFWZI897o0IcZ0kL58aaypaUqH9ZfpJIwruN96NKQFRHK5Lz1D7cgZxu7JlNciV32b4v4KO1Bv45lGGIQKCHw9no3SH4XaCi1TCGbqWKvTyLvDy0bVUr_LdQKnKyclb_o_c0hRvhUzrflaI4md1TIKN2kDCyA6uSyFoWrVFy4BgbbklcNuUGVu5n3mPX_stO2W8VBS3jTxk-E_9X9UV_t8yDE1cLIgnm1FqUfWa6QqbsolcpMR6LpNVzpd_e9MyL8EoEkE3WzVtcmTI1Dpjdehor9KyXA5J6yVBR2FbV44P2LB1ddk5ONEzyCPv9bXlhnZgbF5u-KzOW9LoFWouii3jCSAXLZmwFwjN6tf1e6D8C3XjGUstNJknQ0rn_E8BYVj_Q2zwDGE5i8-IOAItP50TNy7shGnO4GYGUcrCR-Xdb7U_zRmNuVC6auCL0MPr9i38uhbVQh4Wf4GfC0ikZCs9IZHwHY1bFR1YFpYedLfVmn904Oy-avHOCbvzjE0j_0W00]--></g></svg>