<?xml version="1.0" encoding="us-ascii" standalone="no"?><svg xmlns="http://www.w3.org/2000/svg" xmlns:xlink="http://www.w3.org/1999/xlink" contentStyleType="text/css" height="375px" preserveAspectRatio="none" style="width:710px;height:375px;background:#FFFFFF;" version="1.1" viewBox="0 0 710 375" width="710px" zoomAndPan="magnify"><defs/><g><text fill="#000000" font-family="sans-serif" font-size="12" lengthAdjust="spacing" textLength="112" x="7" y="19.9492">Lot MNZ - Baudroie -</text><text fill="#000000" font-family="sans-serif" font-size="12" font-weight="bold" lengthAdjust="spacing" textLength="123" x="122" y="19.9492">Mesures individuelles</text><line style="stroke:#AAAAAA;stroke-width:1.0;" x1="6" x2="703" y1="29.4609" y2="29.4609"/><text fill="#000000" font-family="sans-serif" font-size="12" lengthAdjust="spacing" textLength="7" x="8" y="48.9102">#</text><text fill="#000000" font-family="sans-serif" font-size="12" font-weight="bold" lengthAdjust="spacing" textLength="111" x="17" y="48.9102">Esp&#232;ce scientifique</text><text fill="#000000" font-family="sans-serif" font-size="12" font-weight="bold" lengthAdjust="spacing" textLength="118" x="165" y="48.9102">Longueur totale (cm)</text><text fill="#000000" font-family="sans-serif" font-size="12" font-weight="bold" lengthAdjust="spacing" textLength="127" x="285" y="48.9102">Poids calcul&#233; RTP (kg)</text><text fill="#000000" font-family="sans-serif" font-size="12" font-weight="bold" lengthAdjust="spacing" textLength="29" x="414" y="48.9102">Sexe</text><text fill="#000000" font-family="sans-serif" font-size="12" lengthAdjust="spacing" textLength="7" x="8" y="66.8711">7</text><text fill="#000000" font-family="sans-serif" font-size="12" lengthAdjust="spacing" textLength="145" x="17" y="66.8711">ANK - Lophius budegassa</text><text fill="#000000" font-family="sans-serif" font-size="12" lengthAdjust="spacing" textLength="14" x="165" y="66.8711">46</text><text fill="#0000FF" font-family="sans-serif" font-size="12" lengthAdjust="spacing" textLength="38" x="285" y="66.8711">1.0173</text><text fill="#000000" font-family="sans-serif" font-size="12" lengthAdjust="spacing" textLength="26" x="414" y="66.8711">Male</text><text fill="#000000" font-family="sans-serif" font-size="12" lengthAdjust="spacing" textLength="7" x="8" y="84.832">6</text><text fill="#000000" font-family="sans-serif" font-size="12" lengthAdjust="spacing" textLength="145" x="17" y="84.832">ANK - Lophius budegassa</text><text fill="#000000" font-family="sans-serif" font-size="12" lengthAdjust="spacing" textLength="14" x="165" y="84.832">41</text><text fill="#0000FF" font-family="sans-serif" font-size="12" lengthAdjust="spacing" textLength="31" x="285" y="84.832">0.965</text><text fill="#000000" font-family="sans-serif" font-size="12" lengthAdjust="spacing" textLength="26" x="414" y="84.832">Male</text><text fill="#000000" font-family="sans-serif" font-size="12" lengthAdjust="spacing" textLength="7" x="8" y="102.793">5</text><text fill="#000000" font-family="sans-serif" font-size="12" lengthAdjust="spacing" textLength="146" x="17" y="102.793">MON - Lophius piscatorius</text><text fill="#000000" font-family="sans-serif" font-size="12" lengthAdjust="spacing" textLength="14" x="165" y="102.793">20</text><text fill="#0000FF" font-family="sans-serif" font-size="12" lengthAdjust="spacing" textLength="38" x="285" y="102.793">0.5874</text><text fill="#000000" font-family="sans-serif" font-size="12" lengthAdjust="spacing" textLength="26" x="414" y="102.793">Male</text><text fill="#000000" font-family="sans-serif" font-size="12" lengthAdjust="spacing" textLength="7" x="8" y="120.7539">4</text><text fill="#000000" font-family="sans-serif" font-size="12" lengthAdjust="spacing" textLength="145" x="17" y="120.7539">ANK - Lophius budegassa</text><text fill="#000000" font-family="sans-serif" font-size="12" lengthAdjust="spacing" textLength="14" x="165" y="120.7539">20</text><text fill="#0000FF" font-family="sans-serif" font-size="12" lengthAdjust="spacing" textLength="24" x="285" y="120.7539">0.55</text><text fill="#000000" font-family="sans-serif" font-size="12" lengthAdjust="spacing" textLength="45" x="414" y="120.7539">Femelle</text><text fill="#000000" font-family="sans-serif" font-size="12" lengthAdjust="spacing" textLength="7" x="8" y="138.7148">3</text><text fill="#000000" font-family="sans-serif" font-size="12" lengthAdjust="spacing" textLength="146" x="17" y="138.7148">MON - Lophius piscatorius</text><text fill="#000000" font-family="sans-serif" font-size="12" lengthAdjust="spacing" textLength="14" x="165" y="138.7148">15</text><text fill="#0000FF" font-family="sans-serif" font-size="12" lengthAdjust="spacing" textLength="38" x="285" y="138.7148">0.4789</text><text fill="#000000" font-family="sans-serif" font-size="12" lengthAdjust="spacing" textLength="44" x="414" y="138.7148">Inconnu</text><text fill="#000000" font-family="sans-serif" font-size="12" lengthAdjust="spacing" textLength="7" x="8" y="156.6758">2</text><text fill="#000000" font-family="sans-serif" font-size="12" lengthAdjust="spacing" textLength="146" x="17" y="156.6758">MON - Lophius piscatorius</text><text fill="#000000" font-family="sans-serif" font-size="12" lengthAdjust="spacing" textLength="14" x="165" y="156.6758">11</text><text fill="#0000FF" font-family="sans-serif" font-size="12" lengthAdjust="spacing" textLength="38" x="285" y="156.6758">0.3578</text><text fill="#000000" font-family="sans-serif" font-size="12" lengthAdjust="spacing" textLength="44" x="414" y="156.6758">Inconnu</text><text fill="#000000" font-family="sans-serif" font-size="12" lengthAdjust="spacing" textLength="7" x="8" y="174.6367">1</text><text fill="#000000" font-family="sans-serif" font-size="12" lengthAdjust="spacing" textLength="145" x="17" y="174.6367">ANK - Lophius budegassa</text><text fill="#000000" font-family="sans-serif" font-size="12" lengthAdjust="spacing" textLength="14" x="165" y="174.6367">10</text><text fill="#0000FF" font-family="sans-serif" font-size="12" lengthAdjust="spacing" textLength="31" x="285" y="174.6367">0.254</text><text fill="#000000" font-family="sans-serif" font-size="12" lengthAdjust="spacing" textLength="44" x="414" y="174.6367">Inconnu</text><line style="stroke:#000000;stroke-width:1.0;" x1="7" x2="16" y1="34.9609" y2="34.9609"/><line style="stroke:#000000;stroke-width:1.0;" x1="413" x2="460" y1="106.8047" y2="106.8047"/><line style="stroke:#000000;stroke-width:1.0;" x1="16" x2="164" y1="34.9609" y2="34.9609"/><line style="stroke:#000000;stroke-width:1.0;" x1="164" x2="284" y1="34.9609" y2="34.9609"/><line style="stroke:#000000;stroke-width:1.0;" x1="284" x2="413" y1="34.9609" y2="34.9609"/><line style="stroke:#000000;stroke-width:1.0;" x1="413" x2="460" y1="34.9609" y2="34.9609"/><line style="stroke:#000000;stroke-width:1.0;" x1="7" x2="16" y1="160.6875" y2="160.6875"/><line style="stroke:#000000;stroke-width:1.0;" x1="16" x2="164" y1="160.6875" y2="160.6875"/><line style="stroke:#000000;stroke-width:1.0;" x1="164" x2="284" y1="160.6875" y2="160.6875"/><line style="stroke:#000000;stroke-width:1.0;" x1="284" x2="413" y1="160.6875" y2="160.6875"/><line style="stroke:#000000;stroke-width:1.0;" x1="7" x2="16" y1="88.8438" y2="88.8438"/><line style="stroke:#000000;stroke-width:1.0;" x1="413" x2="460" y1="160.6875" y2="160.6875"/><line style="stroke:#000000;stroke-width:1.0;" x1="16" x2="164" y1="88.8438" y2="88.8438"/><line style="stroke:#000000;stroke-width:1.0;" x1="164" x2="284" y1="88.8438" y2="88.8438"/><line style="stroke:#000000;stroke-width:1.0;" x1="284" x2="413" y1="88.8438" y2="88.8438"/><line style="stroke:#000000;stroke-width:1.0;" x1="413" x2="460" y1="88.8438" y2="88.8438"/><line style="stroke:#000000;stroke-width:1.0;" x1="7" x2="16" y1="142.7266" y2="142.7266"/><line style="stroke:#000000;stroke-width:1.0;" x1="16" x2="164" y1="142.7266" y2="142.7266"/><line style="stroke:#000000;stroke-width:1.0;" x1="164" x2="284" y1="142.7266" y2="142.7266"/><line style="stroke:#000000;stroke-width:1.0;" x1="284" x2="413" y1="142.7266" y2="142.7266"/><line style="stroke:#000000;stroke-width:1.0;" x1="7" x2="16" y1="70.8828" y2="70.8828"/><line style="stroke:#000000;stroke-width:1.0;" x1="413" x2="460" y1="142.7266" y2="142.7266"/><line style="stroke:#000000;stroke-width:1.0;" x1="16" x2="164" y1="70.8828" y2="70.8828"/><line style="stroke:#000000;stroke-width:1.0;" x1="164" x2="284" y1="70.8828" y2="70.8828"/><line style="stroke:#000000;stroke-width:1.0;" x1="284" x2="413" y1="70.8828" y2="70.8828"/><line style="stroke:#000000;stroke-width:1.0;" x1="413" x2="460" y1="70.8828" y2="70.8828"/><line style="stroke:#000000;stroke-width:1.0;" x1="7" x2="16" y1="124.7656" y2="124.7656"/><line style="stroke:#000000;stroke-width:1.0;" x1="16" x2="164" y1="124.7656" y2="124.7656"/><line style="stroke:#000000;stroke-width:1.0;" x1="164" x2="284" y1="124.7656" y2="124.7656"/><line style="stroke:#000000;stroke-width:1.0;" x1="284" x2="413" y1="124.7656" y2="124.7656"/><line style="stroke:#000000;stroke-width:1.0;" x1="7" x2="16" y1="52.9219" y2="52.9219"/><line style="stroke:#000000;stroke-width:1.0;" x1="413" x2="460" y1="124.7656" y2="124.7656"/><line style="stroke:#000000;stroke-width:1.0;" x1="16" x2="164" y1="52.9219" y2="52.9219"/><line style="stroke:#000000;stroke-width:1.0;" x1="164" x2="284" y1="52.9219" y2="52.9219"/><line style="stroke:#000000;stroke-width:1.0;" x1="284" x2="413" y1="52.9219" y2="52.9219"/><line style="stroke:#000000;stroke-width:1.0;" x1="413" x2="460" y1="52.9219" y2="52.9219"/><line style="stroke:#000000;stroke-width:1.0;" x1="7" x2="16" y1="178.6484" y2="178.6484"/><line style="stroke:#000000;stroke-width:1.0;" x1="16" x2="164" y1="178.6484" y2="178.6484"/><line style="stroke:#000000;stroke-width:1.0;" x1="164" x2="284" y1="178.6484" y2="178.6484"/><line style="stroke:#000000;stroke-width:1.0;" x1="284" x2="413" y1="178.6484" y2="178.6484"/><line style="stroke:#000000;stroke-width:1.0;" x1="413" x2="460" y1="178.6484" y2="178.6484"/><line style="stroke:#000000;stroke-width:1.0;" x1="7" x2="16" y1="106.8047" y2="106.8047"/><line style="stroke:#000000;stroke-width:1.0;" x1="16" x2="164" y1="106.8047" y2="106.8047"/><line style="stroke:#000000;stroke-width:1.0;" x1="164" x2="284" y1="106.8047" y2="106.8047"/><line style="stroke:#000000;stroke-width:1.0;" x1="284" x2="413" y1="106.8047" y2="106.8047"/><line style="stroke:#000000;stroke-width:1.0;" x1="7" x2="7" y1="34.9609" y2="52.9219"/><line style="stroke:#000000;stroke-width:1.0;" x1="413" x2="413" y1="106.8047" y2="124.7656"/><line style="stroke:#000000;stroke-width:1.0;" x1="460" x2="460" y1="106.8047" y2="124.7656"/><line style="stroke:#000000;stroke-width:1.0;" x1="16" x2="16" y1="34.9609" y2="52.9219"/><line style="stroke:#000000;stroke-width:1.0;" x1="164" x2="164" y1="34.9609" y2="52.9219"/><line style="stroke:#000000;stroke-width:1.0;" x1="284" x2="284" y1="34.9609" y2="52.9219"/><line style="stroke:#000000;stroke-width:1.0;" x1="413" x2="413" y1="34.9609" y2="52.9219"/><line style="stroke:#000000;stroke-width:1.0;" x1="460" x2="460" y1="34.9609" y2="52.9219"/><line style="stroke:#000000;stroke-width:1.0;" x1="7" x2="7" y1="160.6875" y2="178.6484"/><line style="stroke:#000000;stroke-width:1.0;" x1="16" x2="16" y1="160.6875" y2="178.6484"/><line style="stroke:#000000;stroke-width:1.0;" x1="164" x2="164" y1="160.6875" y2="178.6484"/><line style="stroke:#000000;stroke-width:1.0;" x1="284" x2="284" y1="160.6875" y2="178.6484"/><line style="stroke:#000000;stroke-width:1.0;" x1="7" x2="7" y1="88.8438" y2="106.8047"/><line style="stroke:#000000;stroke-width:1.0;" x1="413" x2="413" y1="160.6875" y2="178.6484"/><line style="stroke:#000000;stroke-width:1.0;" x1="460" x2="460" y1="160.6875" y2="178.6484"/><line style="stroke:#000000;stroke-width:1.0;" x1="16" x2="16" y1="88.8438" y2="106.8047"/><line style="stroke:#000000;stroke-width:1.0;" x1="164" x2="164" y1="88.8438" y2="106.8047"/><line style="stroke:#000000;stroke-width:1.0;" x1="284" x2="284" y1="88.8438" y2="106.8047"/><line style="stroke:#000000;stroke-width:1.0;" x1="413" x2="413" y1="88.8438" y2="106.8047"/><line style="stroke:#000000;stroke-width:1.0;" x1="460" x2="460" y1="88.8438" y2="106.8047"/><line style="stroke:#000000;stroke-width:1.0;" x1="7" x2="7" y1="142.7266" y2="160.6875"/><line style="stroke:#000000;stroke-width:1.0;" x1="16" x2="16" y1="142.7266" y2="160.6875"/><line style="stroke:#000000;stroke-width:1.0;" x1="164" x2="164" y1="142.7266" y2="160.6875"/><line style="stroke:#000000;stroke-width:1.0;" x1="284" x2="284" y1="142.7266" y2="160.6875"/><line style="stroke:#000000;stroke-width:1.0;" x1="7" x2="7" y1="70.8828" y2="88.8438"/><line style="stroke:#000000;stroke-width:1.0;" x1="413" x2="413" y1="142.7266" y2="160.6875"/><line style="stroke:#000000;stroke-width:1.0;" x1="460" x2="460" y1="142.7266" y2="160.6875"/><line style="stroke:#000000;stroke-width:1.0;" x1="16" x2="16" y1="70.8828" y2="88.8438"/><line style="stroke:#000000;stroke-width:1.0;" x1="164" x2="164" y1="70.8828" y2="88.8438"/><line style="stroke:#000000;stroke-width:1.0;" x1="284" x2="284" y1="70.8828" y2="88.8438"/><line style="stroke:#000000;stroke-width:1.0;" x1="413" x2="413" y1="70.8828" y2="88.8438"/><line style="stroke:#000000;stroke-width:1.0;" x1="460" x2="460" y1="70.8828" y2="88.8438"/><line style="stroke:#000000;stroke-width:1.0;" x1="7" x2="7" y1="124.7656" y2="142.7266"/><line style="stroke:#000000;stroke-width:1.0;" x1="16" x2="16" y1="124.7656" y2="142.7266"/><line style="stroke:#000000;stroke-width:1.0;" x1="164" x2="164" y1="124.7656" y2="142.7266"/><line style="stroke:#000000;stroke-width:1.0;" x1="284" x2="284" y1="124.7656" y2="142.7266"/><line style="stroke:#000000;stroke-width:1.0;" x1="7" x2="7" y1="52.9219" y2="70.8828"/><line style="stroke:#000000;stroke-width:1.0;" x1="413" x2="413" y1="124.7656" y2="142.7266"/><line style="stroke:#000000;stroke-width:1.0;" x1="460" x2="460" y1="124.7656" y2="142.7266"/><line style="stroke:#000000;stroke-width:1.0;" x1="16" x2="16" y1="52.9219" y2="70.8828"/><line style="stroke:#000000;stroke-width:1.0;" x1="164" x2="164" y1="52.9219" y2="70.8828"/><line style="stroke:#000000;stroke-width:1.0;" x1="284" x2="284" y1="52.9219" y2="70.8828"/><line style="stroke:#000000;stroke-width:1.0;" x1="413" x2="413" y1="52.9219" y2="70.8828"/><line style="stroke:#000000;stroke-width:1.0;" x1="460" x2="460" y1="52.9219" y2="70.8828"/><line style="stroke:#000000;stroke-width:1.0;" x1="7" x2="7" y1="106.8047" y2="124.7656"/><line style="stroke:#000000;stroke-width:1.0;" x1="16" x2="16" y1="106.8047" y2="124.7656"/><line style="stroke:#000000;stroke-width:1.0;" x1="164" x2="164" y1="106.8047" y2="124.7656"/><line style="stroke:#000000;stroke-width:1.0;" x1="284" x2="284" y1="106.8047" y2="124.7656"/><text fill="#000000" font-family="sans-serif" font-size="12" font-weight="bold" lengthAdjust="spacing" textLength="118" x="470" y="50.9102">Ajouter une mesure :</text><line style="stroke:#AAAAAA;stroke-width:1.0;" x1="464" x2="700" y1="60.4219" y2="60.4219"/><text fill="#000000" font-family="sans-serif" font-size="12" lengthAdjust="spacing" textLength="116" x="470" y="78.8711">Esp&#232;ce scientifique *</text><rect fill="#EEEEEE" height="18.9609" style="stroke:#000000;stroke-width:1.0;" width="167" x="470" y="85.8828"/><text fill="#000000" font-family="sans-serif" font-size="12" lengthAdjust="spacing" textLength="109" x="472" y="100.832">Lophius piscatorius</text><line style="stroke:#000000;stroke-width:1.0;" x1="626" x2="626" y1="85.8828" y2="104.8438"/><polygon fill="#000000" points="629,91.8828,635,91.8828,632,99.8438" style="stroke:#000000;stroke-width:1.0;"/><text fill="#000000" font-family="sans-serif" font-size="12" lengthAdjust="spacing" textLength="28" x="665" y="98.832">Figer</text><rect fill="none" height="10" style="stroke:#000000;stroke-width:1.5;" width="10" x="647" y="88.8633"/><text fill="#000000" font-family="sans-serif" font-size="12" lengthAdjust="spacing" textLength="27" x="470" y="140.7539">Sexe</text><rect fill="#EEEEEE" height="18.9609" style="stroke:#000000;stroke-width:1.0;" width="71" x="470" y="147.7656"/><text fill="#000000" font-family="sans-serif" font-size="12" lengthAdjust="spacing" textLength="45" x="472" y="162.7148">Femelle</text><line style="stroke:#000000;stroke-width:1.0;" x1="530" x2="530" y1="147.7656" y2="166.7266"/><polygon fill="#000000" points="533,153.7656,539,153.7656,536,161.7266" style="stroke:#000000;stroke-width:1.0;"/><text fill="#000000" font-family="sans-serif" font-size="12" lengthAdjust="spacing" textLength="122" x="470" y="202.6367">Longueur totale (cm) *</text><text fill="#000000" font-family="sans-serif" font-size="12" lengthAdjust="spacing" textLength="14" x="473" y="222.5977">12</text><line style="stroke:#000000;stroke-width:1.0;" x1="471" x2="530" y1="225.6094" y2="225.6094"/><line style="stroke:#000000;stroke-width:1.0;" x1="471" x2="471" y1="222.6094" y2="224.6094"/><line style="stroke:#000000;stroke-width:1.0;" x1="530" x2="530" y1="222.6094" y2="224.6094"/><text fill="#000000" font-family="sans-serif" font-size="12" font-style="italic" lengthAdjust="spacing" textLength="125" x="470" y="262.5195">Poids calcul&#233; RTP (kg)</text><text fill="#0000FF" font-family="sans-serif" font-size="12" lengthAdjust="spacing" textLength="45" x="473" y="282.4805">0.01335</text><line style="stroke:#000000;stroke-width:1.0;" x1="471" x2="538" y1="285.4922" y2="285.4922"/><line style="stroke:#000000;stroke-width:1.0;" x1="471" x2="471" y1="282.4922" y2="284.4922"/><line style="stroke:#000000;stroke-width:1.0;" x1="538" x2="538" y1="282.4922" y2="284.4922"/><rect fill="#EEEEEE" height="19.9609" rx="5" ry="5" style="stroke:#000000;stroke-width:2.5;" width="228" x="467.5" y="311.9531"/><text fill="#000000" font-family="sans-serif" font-size="12" lengthAdjust="spacing" textLength="38" x="562.5" y="326.9023">Ajouter</text><line style="stroke:#000000;stroke-width:1.0;" x1="463" x2="700" y1="35.9609" y2="35.9609"/><line style="stroke:#000000;stroke-width:1.0;" x1="463" x2="700" y1="336.4141" y2="336.4141"/><line style="stroke:#000000;stroke-width:1.0;" x1="463" x2="463" y1="35.9609" y2="55.9219"/><line style="stroke:#000000;stroke-width:1.0;" x1="700" x2="700" y1="35.9609" y2="55.9219"/><line style="stroke:#000000;stroke-width:1.0;" x1="463" x2="463" y1="247.5703" y2="267.5313"/><line style="stroke:#000000;stroke-width:1.0;" x1="700" x2="700" y1="247.5703" y2="267.5313"/><line style="stroke:#000000;stroke-width:1.0;" x1="463" x2="463" y1="169.7266" y2="187.6875"/><line style="stroke:#000000;stroke-width:1.0;" x1="700" x2="700" y1="169.7266" y2="187.6875"/><line style="stroke:#000000;stroke-width:1.0;" x1="463" x2="463" y1="83.8828" y2="107.8438"/><line style="stroke:#000000;stroke-width:1.0;" x1="700" x2="700" y1="83.8828" y2="107.8438"/><line style="stroke:#000000;stroke-width:1.0;" x1="463" x2="463" y1="307.4531" y2="336.4141"/><line style="stroke:#000000;stroke-width:1.0;" x1="700" x2="700" y1="307.4531" y2="336.4141"/><line style="stroke:#000000;stroke-width:1.0;" x1="463" x2="463" y1="229.6094" y2="247.5703"/><line style="stroke:#000000;stroke-width:1.0;" x1="700" x2="700" y1="229.6094" y2="247.5703"/><line style="stroke:#000000;stroke-width:1.0;" x1="463" x2="463" y1="145.7656" y2="169.7266"/><line style="stroke:#000000;stroke-width:1.0;" x1="700" x2="700" y1="145.7656" y2="169.7266"/><line style="stroke:#000000;stroke-width:1.0;" x1="463" x2="463" y1="63.9219" y2="83.8828"/><line style="stroke:#000000;stroke-width:1.0;" x1="700" x2="700" y1="63.9219" y2="83.8828"/><line style="stroke:#000000;stroke-width:1.0;" x1="463" x2="463" y1="289.4922" y2="307.4531"/><line style="stroke:#000000;stroke-width:1.0;" x1="700" x2="700" y1="289.4922" y2="307.4531"/><line style="stroke:#000000;stroke-width:1.0;" x1="463" x2="463" y1="207.6484" y2="229.6094"/><line style="stroke:#000000;stroke-width:1.0;" x1="700" x2="700" y1="207.6484" y2="229.6094"/><line style="stroke:#000000;stroke-width:1.0;" x1="463" x2="463" y1="125.8047" y2="145.7656"/><line style="stroke:#000000;stroke-width:1.0;" x1="700" x2="700" y1="125.8047" y2="145.7656"/><line style="stroke:#000000;stroke-width:1.0;" x1="463" x2="463" y1="55.9219" y2="63.9219"/><line style="stroke:#000000;stroke-width:1.0;" x1="700" x2="700" y1="55.9219" y2="63.9219"/><line style="stroke:#000000;stroke-width:1.0;" x1="463" x2="463" y1="267.5313" y2="289.4922"/><line style="stroke:#000000;stroke-width:1.0;" x1="700" x2="700" y1="267.5313" y2="289.4922"/><line style="stroke:#000000;stroke-width:1.0;" x1="463" x2="463" y1="187.6875" y2="207.6484"/><line style="stroke:#000000;stroke-width:1.0;" x1="700" x2="700" y1="187.6875" y2="207.6484"/><line style="stroke:#000000;stroke-width:1.0;" x1="463" x2="463" y1="107.8438" y2="125.8047"/><line style="stroke:#000000;stroke-width:1.0;" x1="700" x2="700" y1="107.8438" y2="125.8047"/><rect fill="#EEEEEE" height="19.9609" rx="5" ry="5" style="stroke:#000000;stroke-width:2.5;" width="60" x="9.5" y="343.9141"/><text fill="#000000" font-family="sans-serif" font-size="12" lengthAdjust="spacing" textLength="42" x="18.5" y="358.8633">Annuler</text><rect fill="#EEEEEE" height="19.9609" rx="5" ry="5" style="stroke:#000000;stroke-width:2.5;" width="76" x="76.5" y="343.9141"/><text fill="#000000" font-family="sans-serif" font-size="12" lengthAdjust="spacing" textLength="52" x="88.5" y="358.8633">Appliquer</text><line style="stroke:#000000;stroke-width:1.0;" x1="5" x2="703" y1="5" y2="5"/><line style="stroke:#000000;stroke-width:1.0;" x1="5" x2="703" y1="368.375" y2="368.375"/><line style="stroke:#000000;stroke-width:1.0;" x1="5" x2="5" y1="5" y2="24.9609"/><line style="stroke:#000000;stroke-width:1.0;" x1="703" x2="703" y1="24.9609" y2="32.9609"/><line style="stroke:#000000;stroke-width:1.0;" x1="703" x2="703" y1="5" y2="24.9609"/><line style="stroke:#000000;stroke-width:1.0;" x1="5" x2="5" y1="339.4141" y2="368.375"/><line style="stroke:#000000;stroke-width:1.0;" x1="5" x2="5" y1="32.9609" y2="339.4141"/><line style="stroke:#000000;stroke-width:1.0;" x1="703" x2="703" y1="339.4141" y2="368.375"/><line style="stroke:#000000;stroke-width:1.0;" x1="5" x2="5" y1="24.9609" y2="32.9609"/><line style="stroke:#000000;stroke-width:1.0;" x1="703" x2="703" y1="32.9609" y2="339.4141"/><!--SRC=[XPHjRzem4CTVpv_YrBwXdK0a8K2ZgYfzr5hIegxhYrMjP1ANUGjsvWUq2VW-s-Ve5ziPqXK8BP6mpxwxdo- -VpZKXYgZQMO8Z3yIW35qfO7uwYjKuOZQL4dEqDpl7yHCMyKqS97o4Kyjop9SJGacLQjk79CFussStRCD4vTpglFdFma3dN0c37_YFosRUxfI32op2emqD6DGIOOxSqzFybH3GhF4Piz_uUQs1vKVWyBvcVrYnH4jtEbSNM9nNPb_urP3twPiGBMcw9r0e-bI4fb95VKpomwyMjrh1RWPuu45fBa9ugr0whMzPWZBaD0jhwyM83dN2JLIENi2Vhq42TkjnZAaiQ6ITP1mvZbZGzUBWXDiACOBIvn6gxs7cvz48eMm1SVVn2dVJ12ssYMEj-6zlF9x-M43LZXJc92PCIwmCx4M9iRMyEVqqVakhM4Ah60md0aM8fZvf__ZKQshgMjrkhkQ-1BzkEP67c4UZSCzFC0P7s0Lhwcr4iGf-Sq3YfOYz3t4sczeTrv66Rhbck63cz-3xlCtly0tgjrQxbxT2u8GJrafO_6aUrZt5BrxM4WghFaq7yVt7HH5vkBmgZjvdhbcgGVddP939jBPlndfPLIOBt4NHanfBWLuDR_k1pKlgCIuEc69ax2t5_drA6p1yUajEFyEgPptkg2bLQY7b6kZUDyQ1EoG2pgYS6DH84CMmNNEnCN9vSi6d8eHLr8CKK3auYv-3MWsgaVSOCCLbW9tCJbXJzHc1ZCIcN8nYE0uz_pG9rsA3QK3X3yfSYmHh7v7S7Rp3m00]--></g></svg>