<?xml version="1.0" encoding="us-ascii" standalone="no"?><svg xmlns="http://www.w3.org/2000/svg" xmlns:xlink="http://www.w3.org/1999/xlink" contentStyleType="text/css" height="385px" preserveAspectRatio="none" style="width:865px;height:385px;background:#FFFFFF;" version="1.1" viewBox="0 0 865 385" width="865px" zoomAndPan="magnify"><defs/><g><text fill="#000000" font-family="sans-serif" font-size="12" lengthAdjust="spacing" textLength="112" x="7" y="19.9492">Lot MNZ - Baudroie -</text><text fill="#000000" font-family="sans-serif" font-size="12" font-weight="bold" lengthAdjust="spacing" textLength="141" x="122" y="19.9492">Mesures individuelles (7)</text><text fill="#000000" font-family="sans-serif" font-size="12" font-weight="bold" lengthAdjust="spacing" textLength="9" x="838" y="19.9492">...</text><line style="stroke:#AAAAAA;stroke-width:1.0;stroke-dasharray:1.0,2.0;" x1="6" x2="858" y1="29.4609" y2="29.4609"/><path d="M10,38.9219 C9.45,38.9219 9,39.3719 9,39.9219 L8,39.9219 C7.45,39.9219 7,40.3719 7,40.9219 L14,40.9219 C14,40.3719 13.55,39.9219 13,39.9219 L12,39.9219 C12,39.3719 11.55,38.9219 11,38.9219 L10,38.9219 M8,41.9219 L8,46.7319 C8,46.8419 8.08,46.9219 8.19,46.9219 L12.82,46.9219 C12.93,46.9219 13.01,46.8419 13.01,46.7319 L13.01,41.9219 L12.01,41.9219 L12.01,45.4219 C12.01,45.7019 11.79,45.9219 11.51,45.9219 C11.23,45.9219 11.01,45.7019 11.01,45.4219 L11.01,41.9219 L10.01,41.9219 L10.01,45.4219 C10.01,45.7019 9.79,45.9219 9.51,45.9219 C9.23,45.9219 9.01,45.7019 9.01,45.4219 L9.01,41.9219 L8.01,41.9219 " fill="#000000" style="stroke:;stroke-width:0.0;stroke-dasharray:;"/><text fill="#000000" font-family="sans-serif" font-size="12" lengthAdjust="spacing" textLength="3" x="16" y="46.9102">&#160;</text><path d="M20.75,38.9219 C20.34,38.9219 20,39.2619 20,39.6719 L20,45.1719 C20,45.5819 20.34,45.9219 20.75,45.9219 L27.25,45.9219 C27.66,45.9219 28,45.5819 28,45.1719 L28,39.6719 C28,39.2619 27.66,38.9219 27.25,38.9219 L20.75,38.9219 M21,39.9219 L22,39.9219 L22,40.9219 L21,40.9219 L21,39.9219 M23,39.9219 L27,39.9219 L27,40.9219 L23,40.9219 L23,39.9219 M21,41.9219 L22,41.9219 L22,42.9219 L21,42.9219 L21,41.9219 M23,41.9219 L27,41.9219 L27,42.9219 L23,42.9219 L23,41.9219 M21,43.9219 L22,43.9219 L22,44.9219 L21,44.9219 L21,43.9219 M23,43.9219 L27,43.9219 L27,44.9219 L23,44.9219 L23,43.9219 " fill="#808080" style="stroke:;stroke-width:0.0;stroke-dasharray:;"/><text fill="#000000" font-family="sans-serif" font-size="12" lengthAdjust="spacing" textLength="3" x="29" y="46.9102">&#160;</text><path d="M33.34,38.9219 A0.5,0.5 0 0 0 33,39.4219 L33,46.4219 A0.5,0.5 0 0 0 33.5,46.9219 L40.5,46.9219 A0.5,0.5 0 0 0 41,46.4219 L41,39.4219 A0.5,0.5 0 0 0 40.5,38.9219 L33.5,38.9219 A0.5,0.5 0 0 0 33.41,38.9219 A0.5,0.5 0 0 0 33.35,38.9219 M34.5,39.9219 C34.78,39.9219 35,40.1419 35,40.4219 C35,40.7019 34.78,40.9219 34.5,40.9219 C34.22,40.9219 34,40.7019 34,40.4219 C34,40.1419 34.22,39.9219 34.5,39.9219 M36.5,39.9219 L39.5,39.9219 C39.78,39.9219 40,40.1419 40,40.4219 C40,40.7019 39.78,40.9219 39.5,40.9219 L36.5,40.9219 C36.22,40.9219 36,40.7019 36,40.4219 C36,40.1419 36.22,39.9219 36.5,39.9219 M34,41.9219 L40,41.9219 L40,45.9219 L34,45.9219 L34,41.9219 " fill="#000000" style="stroke:;stroke-width:0.0;stroke-dasharray:;"/><text fill="#000000" font-family="sans-serif" font-size="12" lengthAdjust="spacing" textLength="3" x="28" y="66.8711">.</text><rect fill="none" height="10" style="stroke:#000000;stroke-width:1.5;" width="10" x="10" y="56.9023"/><text fill="#000000" font-family="sans-serif" font-size="12" lengthAdjust="spacing" textLength="10" x="33" y="66.8711">.#</text><text fill="#000000" font-family="sans-serif" font-size="12" font-weight="bold" lengthAdjust="spacing" textLength="111" x="45" y="66.8711">Esp&#232;ce scientifique</text><text fill="#000000" font-family="sans-serif" font-size="12" font-weight="bold" lengthAdjust="spacing" textLength="29" x="193" y="66.8711">Sexe</text><text fill="#000000" font-family="sans-serif" font-size="12" font-weight="bold" lengthAdjust="spacing" textLength="118" x="261" y="66.8711">Longueur totale (cm)</text><text fill="#000000" font-family="sans-serif" font-size="12" font-weight="bold" lengthAdjust="spacing" textLength="101" x="381" y="66.8711">Nombre d'individu</text><text fill="#000000" font-family="sans-serif" font-size="12" font-weight="bold" lengthAdjust="spacing" textLength="127" x="484" y="66.8711">Poids calcul&#233; RTP (kg)</text><text fill="#000000" font-family="sans-serif" font-size="12" lengthAdjust="spacing" textLength="3" x="28" y="84.832">.</text><rect fill="none" height="10" style="stroke:#000000;stroke-width:1.5;" width="10" x="10" y="74.8633"/><text fill="#000000" font-family="sans-serif" font-size="12" lengthAdjust="spacing" textLength="7" x="33" y="84.832">7</text><text fill="#000000" font-family="sans-serif" font-size="12" lengthAdjust="spacing" textLength="145" x="45" y="84.832">ANK - Lophius budegassa</text><text fill="#000000" font-family="sans-serif" font-size="12" lengthAdjust="spacing" textLength="26" x="193" y="84.832">Male</text><text fill="#000000" font-family="sans-serif" font-size="12" lengthAdjust="spacing" textLength="14" x="261" y="84.832">46</text><text fill="#000000" font-family="sans-serif" font-size="12" lengthAdjust="spacing" textLength="7" x="381" y="84.832">1</text><text fill="#0000FF" font-family="sans-serif" font-size="12" lengthAdjust="spacing" textLength="38" x="484" y="84.832">1.0173</text><text fill="#000000" font-family="sans-serif" font-size="12" lengthAdjust="spacing" textLength="3" x="28" y="102.793">.</text><rect fill="none" height="10" style="stroke:#000000;stroke-width:1.5;" width="10" x="10" y="92.8242"/><text fill="#000000" font-family="sans-serif" font-size="12" lengthAdjust="spacing" textLength="7" x="33" y="102.793">6</text><text fill="#000000" font-family="sans-serif" font-size="12" lengthAdjust="spacing" textLength="145" x="45" y="102.793">ANK - Lophius budegassa</text><text fill="#000000" font-family="sans-serif" font-size="12" lengthAdjust="spacing" textLength="26" x="193" y="102.793">Male</text><text fill="#000000" font-family="sans-serif" font-size="12" lengthAdjust="spacing" textLength="14" x="261" y="102.793">41</text><text fill="#000000" font-family="sans-serif" font-size="12" lengthAdjust="spacing" textLength="7" x="381" y="102.793">2</text><text fill="#0000FF" font-family="sans-serif" font-size="12" lengthAdjust="spacing" textLength="31" x="484" y="102.793">0.965</text><text fill="#000000" font-family="sans-serif" font-size="12" lengthAdjust="spacing" textLength="3" x="28" y="120.7539">.</text><rect fill="none" height="10" style="stroke:#000000;stroke-width:1.5;" width="10" x="10" y="110.7852"/><polygon fill="#000000" points="11,113.8047,14,116.8047,21,107.8047,14,114.8047" style="stroke:#000000;stroke-width:1.5;"/><text fill="#000000" font-family="sans-serif" font-size="12" lengthAdjust="spacing" textLength="7" x="33" y="120.7539">5</text><text fill="#000000" font-family="sans-serif" font-size="12" lengthAdjust="spacing" textLength="146" x="45" y="120.7539">MON - Lophius piscatorius</text><text fill="#000000" font-family="sans-serif" font-size="12" lengthAdjust="spacing" textLength="26" x="193" y="120.7539">Male</text><text fill="#000000" font-family="sans-serif" font-size="12" lengthAdjust="spacing" textLength="14" x="261" y="120.7539">20</text><text fill="#000000" font-family="sans-serif" font-size="12" lengthAdjust="spacing" textLength="7" x="381" y="120.7539">1</text><text fill="#0000FF" font-family="sans-serif" font-size="12" lengthAdjust="spacing" textLength="38" x="484" y="120.7539">0.5874</text><text fill="#000000" font-family="sans-serif" font-size="12" lengthAdjust="spacing" textLength="3" x="28" y="138.7148">.</text><rect fill="none" height="10" style="stroke:#000000;stroke-width:1.5;" width="10" x="10" y="128.7461"/><text fill="#000000" font-family="sans-serif" font-size="12" lengthAdjust="spacing" textLength="7" x="33" y="138.7148">4</text><text fill="#000000" font-family="sans-serif" font-size="12" lengthAdjust="spacing" textLength="145" x="45" y="138.7148">ANK - Lophius budegassa</text><text fill="#000000" font-family="sans-serif" font-size="12" lengthAdjust="spacing" textLength="45" x="193" y="138.7148">Femelle</text><text fill="#000000" font-family="sans-serif" font-size="12" lengthAdjust="spacing" textLength="14" x="261" y="138.7148">20</text><text fill="#000000" font-family="sans-serif" font-size="12" lengthAdjust="spacing" textLength="7" x="381" y="138.7148">1</text><text fill="#0000FF" font-family="sans-serif" font-size="12" lengthAdjust="spacing" textLength="24" x="484" y="138.7148">0.55</text><text fill="#000000" font-family="sans-serif" font-size="12" lengthAdjust="spacing" textLength="3" x="28" y="156.6758">.</text><rect fill="none" height="10" style="stroke:#000000;stroke-width:1.5;" width="10" x="10" y="146.707"/><text fill="#000000" font-family="sans-serif" font-size="12" lengthAdjust="spacing" textLength="7" x="33" y="156.6758">3</text><text fill="#000000" font-family="sans-serif" font-size="12" lengthAdjust="spacing" textLength="146" x="45" y="156.6758">MON - Lophius piscatorius</text><text fill="#000000" font-family="sans-serif" font-size="12" lengthAdjust="spacing" textLength="66" x="193" y="156.6758">Indetermine</text><text fill="#000000" font-family="sans-serif" font-size="12" lengthAdjust="spacing" textLength="14" x="261" y="156.6758">15</text><text fill="#000000" font-family="sans-serif" font-size="12" lengthAdjust="spacing" textLength="7" x="381" y="156.6758">1</text><text fill="#0000FF" font-family="sans-serif" font-size="12" lengthAdjust="spacing" textLength="38" x="484" y="156.6758">0.4789</text><text fill="#000000" font-family="sans-serif" font-size="12" lengthAdjust="spacing" textLength="3" x="28" y="174.6367">.</text><rect fill="none" height="10" style="stroke:#000000;stroke-width:1.5;" width="10" x="10" y="164.668"/><text fill="#000000" font-family="sans-serif" font-size="12" lengthAdjust="spacing" textLength="7" x="33" y="174.6367">2</text><text fill="#000000" font-family="sans-serif" font-size="12" lengthAdjust="spacing" textLength="146" x="45" y="174.6367">MON - Lophius piscatorius</text><text fill="#000000" font-family="sans-serif" font-size="12" lengthAdjust="spacing" textLength="66" x="193" y="174.6367">Indetermine</text><text fill="#000000" font-family="sans-serif" font-size="12" lengthAdjust="spacing" textLength="14" x="261" y="174.6367">11</text><text fill="#000000" font-family="sans-serif" font-size="12" lengthAdjust="spacing" textLength="7" x="381" y="174.6367">1</text><text fill="#0000FF" font-family="sans-serif" font-size="12" lengthAdjust="spacing" textLength="38" x="484" y="174.6367">0.3578</text><text fill="#000000" font-family="sans-serif" font-size="12" lengthAdjust="spacing" textLength="3" x="28" y="192.5977">.</text><rect fill="none" height="10" style="stroke:#000000;stroke-width:1.5;" width="10" x="10" y="182.6289"/><text fill="#000000" font-family="sans-serif" font-size="12" lengthAdjust="spacing" textLength="7" x="33" y="192.5977">1</text><text fill="#000000" font-family="sans-serif" font-size="12" lengthAdjust="spacing" textLength="145" x="45" y="192.5977">ANK - Lophius budegassa</text><text fill="#000000" font-family="sans-serif" font-size="12" lengthAdjust="spacing" textLength="66" x="193" y="192.5977">Indetermine</text><text fill="#000000" font-family="sans-serif" font-size="12" lengthAdjust="spacing" textLength="14" x="261" y="192.5977">10</text><text fill="#000000" font-family="sans-serif" font-size="12" lengthAdjust="spacing" textLength="7" x="381" y="192.5977">3</text><text fill="#0000FF" font-family="sans-serif" font-size="12" lengthAdjust="spacing" textLength="31" x="484" y="192.5977">0.254</text><line style="stroke:#000000;stroke-width:1.0;" x1="7" x2="32" y1="52.9219" y2="52.9219"/><line style="stroke:#000000;stroke-width:1.0;" x1="32" x2="44" y1="52.9219" y2="52.9219"/><line style="stroke:#000000;stroke-width:1.0;" x1="44" x2="192" y1="52.9219" y2="52.9219"/><line style="stroke:#000000;stroke-width:1.0;" x1="192" x2="260" y1="52.9219" y2="52.9219"/><line style="stroke:#000000;stroke-width:1.0;" x1="260" x2="380" y1="52.9219" y2="52.9219"/><line style="stroke:#000000;stroke-width:1.0;" x1="380" x2="483" y1="52.9219" y2="52.9219"/><line style="stroke:#000000;stroke-width:1.0;" x1="483" x2="612" y1="52.9219" y2="52.9219"/><line style="stroke:#000000;stroke-width:1.0;" x1="7" x2="32" y1="106.8047" y2="106.8047"/><line style="stroke:#000000;stroke-width:1.0;" x1="32" x2="44" y1="106.8047" y2="106.8047"/><line style="stroke:#000000;stroke-width:1.0;" x1="44" x2="192" y1="106.8047" y2="106.8047"/><line style="stroke:#000000;stroke-width:1.0;" x1="192" x2="260" y1="106.8047" y2="106.8047"/><line style="stroke:#000000;stroke-width:1.0;" x1="260" x2="380" y1="106.8047" y2="106.8047"/><line style="stroke:#000000;stroke-width:1.0;" x1="380" x2="483" y1="106.8047" y2="106.8047"/><line style="stroke:#000000;stroke-width:1.0;" x1="483" x2="612" y1="106.8047" y2="106.8047"/><line style="stroke:#000000;stroke-width:1.0;" x1="7" x2="32" y1="160.6875" y2="160.6875"/><line style="stroke:#000000;stroke-width:1.0;" x1="32" x2="44" y1="160.6875" y2="160.6875"/><line style="stroke:#000000;stroke-width:1.0;" x1="44" x2="192" y1="160.6875" y2="160.6875"/><line style="stroke:#000000;stroke-width:1.0;" x1="192" x2="260" y1="160.6875" y2="160.6875"/><line style="stroke:#000000;stroke-width:1.0;" x1="260" x2="380" y1="160.6875" y2="160.6875"/><line style="stroke:#000000;stroke-width:1.0;" x1="380" x2="483" y1="160.6875" y2="160.6875"/><line style="stroke:#000000;stroke-width:1.0;" x1="483" x2="612" y1="160.6875" y2="160.6875"/><line style="stroke:#000000;stroke-width:1.0;" x1="7" x2="32" y1="70.8828" y2="70.8828"/><line style="stroke:#000000;stroke-width:1.0;" x1="32" x2="44" y1="70.8828" y2="70.8828"/><line style="stroke:#000000;stroke-width:1.0;" x1="44" x2="192" y1="70.8828" y2="70.8828"/><line style="stroke:#000000;stroke-width:1.0;" x1="192" x2="260" y1="70.8828" y2="70.8828"/><line style="stroke:#000000;stroke-width:1.0;" x1="260" x2="380" y1="70.8828" y2="70.8828"/><line style="stroke:#000000;stroke-width:1.0;" x1="380" x2="483" y1="70.8828" y2="70.8828"/><line style="stroke:#000000;stroke-width:1.0;" x1="483" x2="612" y1="70.8828" y2="70.8828"/><line style="stroke:#000000;stroke-width:1.0;" x1="7" x2="32" y1="124.7656" y2="124.7656"/><line style="stroke:#000000;stroke-width:1.0;" x1="32" x2="44" y1="124.7656" y2="124.7656"/><line style="stroke:#000000;stroke-width:1.0;" x1="44" x2="192" y1="124.7656" y2="124.7656"/><line style="stroke:#000000;stroke-width:1.0;" x1="192" x2="260" y1="124.7656" y2="124.7656"/><line style="stroke:#000000;stroke-width:1.0;" x1="260" x2="380" y1="124.7656" y2="124.7656"/><line style="stroke:#000000;stroke-width:1.0;" x1="380" x2="483" y1="124.7656" y2="124.7656"/><line style="stroke:#000000;stroke-width:1.0;" x1="483" x2="612" y1="124.7656" y2="124.7656"/><line style="stroke:#000000;stroke-width:1.0;" x1="7" x2="32" y1="178.6484" y2="178.6484"/><line style="stroke:#000000;stroke-width:1.0;" x1="32" x2="44" y1="178.6484" y2="178.6484"/><line style="stroke:#000000;stroke-width:1.0;" x1="44" x2="192" y1="178.6484" y2="178.6484"/><line style="stroke:#000000;stroke-width:1.0;" x1="192" x2="260" y1="178.6484" y2="178.6484"/><line style="stroke:#000000;stroke-width:1.0;" x1="260" x2="380" y1="178.6484" y2="178.6484"/><line style="stroke:#000000;stroke-width:1.0;" x1="380" x2="483" y1="178.6484" y2="178.6484"/><line style="stroke:#000000;stroke-width:1.0;" x1="483" x2="612" y1="178.6484" y2="178.6484"/><line style="stroke:#000000;stroke-width:1.0;" x1="7" x2="32" y1="88.8438" y2="88.8438"/><line style="stroke:#000000;stroke-width:1.0;" x1="32" x2="44" y1="88.8438" y2="88.8438"/><line style="stroke:#000000;stroke-width:1.0;" x1="44" x2="192" y1="88.8438" y2="88.8438"/><line style="stroke:#000000;stroke-width:1.0;" x1="192" x2="260" y1="88.8438" y2="88.8438"/><line style="stroke:#000000;stroke-width:1.0;" x1="260" x2="380" y1="88.8438" y2="88.8438"/><line style="stroke:#000000;stroke-width:1.0;" x1="380" x2="483" y1="88.8438" y2="88.8438"/><line style="stroke:#000000;stroke-width:1.0;" x1="483" x2="612" y1="88.8438" y2="88.8438"/><line style="stroke:#000000;stroke-width:1.0;" x1="7" x2="32" y1="142.7266" y2="142.7266"/><line style="stroke:#000000;stroke-width:1.0;" x1="32" x2="44" y1="142.7266" y2="142.7266"/><line style="stroke:#000000;stroke-width:1.0;" x1="44" x2="192" y1="142.7266" y2="142.7266"/><line style="stroke:#000000;stroke-width:1.0;" x1="192" x2="260" y1="142.7266" y2="142.7266"/><line style="stroke:#000000;stroke-width:1.0;" x1="260" x2="380" y1="142.7266" y2="142.7266"/><line style="stroke:#000000;stroke-width:1.0;" x1="380" x2="483" y1="142.7266" y2="142.7266"/><line style="stroke:#000000;stroke-width:1.0;" x1="483" x2="612" y1="142.7266" y2="142.7266"/><line style="stroke:#000000;stroke-width:1.0;" x1="7" x2="32" y1="196.6094" y2="196.6094"/><line style="stroke:#000000;stroke-width:1.0;" x1="32" x2="44" y1="196.6094" y2="196.6094"/><line style="stroke:#000000;stroke-width:1.0;" x1="44" x2="192" y1="196.6094" y2="196.6094"/><line style="stroke:#000000;stroke-width:1.0;" x1="192" x2="260" y1="196.6094" y2="196.6094"/><line style="stroke:#000000;stroke-width:1.0;" x1="260" x2="380" y1="196.6094" y2="196.6094"/><line style="stroke:#000000;stroke-width:1.0;" x1="380" x2="483" y1="196.6094" y2="196.6094"/><line style="stroke:#000000;stroke-width:1.0;" x1="483" x2="612" y1="196.6094" y2="196.6094"/><line style="stroke:#000000;stroke-width:1.0;" x1="7" x2="7" y1="52.9219" y2="70.8828"/><line style="stroke:#000000;stroke-width:1.0;" x1="32" x2="32" y1="52.9219" y2="70.8828"/><line style="stroke:#000000;stroke-width:1.0;" x1="44" x2="44" y1="52.9219" y2="70.8828"/><line style="stroke:#000000;stroke-width:1.0;" x1="192" x2="192" y1="52.9219" y2="70.8828"/><line style="stroke:#000000;stroke-width:1.0;" x1="260" x2="260" y1="52.9219" y2="70.8828"/><line style="stroke:#000000;stroke-width:1.0;" x1="380" x2="380" y1="52.9219" y2="70.8828"/><line style="stroke:#000000;stroke-width:1.0;" x1="483" x2="483" y1="52.9219" y2="70.8828"/><line style="stroke:#000000;stroke-width:1.0;" x1="612" x2="612" y1="52.9219" y2="70.8828"/><line style="stroke:#000000;stroke-width:1.0;" x1="7" x2="7" y1="106.8047" y2="124.7656"/><line style="stroke:#000000;stroke-width:1.0;" x1="32" x2="32" y1="106.8047" y2="124.7656"/><line style="stroke:#000000;stroke-width:1.0;" x1="44" x2="44" y1="106.8047" y2="124.7656"/><line style="stroke:#000000;stroke-width:1.0;" x1="192" x2="192" y1="106.8047" y2="124.7656"/><line style="stroke:#000000;stroke-width:1.0;" x1="260" x2="260" y1="106.8047" y2="124.7656"/><line style="stroke:#000000;stroke-width:1.0;" x1="380" x2="380" y1="106.8047" y2="124.7656"/><line style="stroke:#000000;stroke-width:1.0;" x1="483" x2="483" y1="106.8047" y2="124.7656"/><line style="stroke:#000000;stroke-width:1.0;" x1="612" x2="612" y1="106.8047" y2="124.7656"/><line style="stroke:#000000;stroke-width:1.0;" x1="7" x2="7" y1="160.6875" y2="178.6484"/><line style="stroke:#000000;stroke-width:1.0;" x1="32" x2="32" y1="160.6875" y2="178.6484"/><line style="stroke:#000000;stroke-width:1.0;" x1="44" x2="44" y1="160.6875" y2="178.6484"/><line style="stroke:#000000;stroke-width:1.0;" x1="192" x2="192" y1="160.6875" y2="178.6484"/><line style="stroke:#000000;stroke-width:1.0;" x1="260" x2="260" y1="160.6875" y2="178.6484"/><line style="stroke:#000000;stroke-width:1.0;" x1="380" x2="380" y1="160.6875" y2="178.6484"/><line style="stroke:#000000;stroke-width:1.0;" x1="483" x2="483" y1="160.6875" y2="178.6484"/><line style="stroke:#000000;stroke-width:1.0;" x1="612" x2="612" y1="160.6875" y2="178.6484"/><line style="stroke:#000000;stroke-width:1.0;" x1="7" x2="7" y1="70.8828" y2="88.8438"/><line style="stroke:#000000;stroke-width:1.0;" x1="32" x2="32" y1="70.8828" y2="88.8438"/><line style="stroke:#000000;stroke-width:1.0;" x1="44" x2="44" y1="70.8828" y2="88.8438"/><line style="stroke:#000000;stroke-width:1.0;" x1="192" x2="192" y1="70.8828" y2="88.8438"/><line style="stroke:#000000;stroke-width:1.0;" x1="260" x2="260" y1="70.8828" y2="88.8438"/><line style="stroke:#000000;stroke-width:1.0;" x1="380" x2="380" y1="70.8828" y2="88.8438"/><line style="stroke:#000000;stroke-width:1.0;" x1="483" x2="483" y1="70.8828" y2="88.8438"/><line style="stroke:#000000;stroke-width:1.0;" x1="612" x2="612" y1="70.8828" y2="88.8438"/><line style="stroke:#000000;stroke-width:1.0;" x1="7" x2="7" y1="124.7656" y2="142.7266"/><line style="stroke:#000000;stroke-width:1.0;" x1="32" x2="32" y1="124.7656" y2="142.7266"/><line style="stroke:#000000;stroke-width:1.0;" x1="44" x2="44" y1="124.7656" y2="142.7266"/><line style="stroke:#000000;stroke-width:1.0;" x1="192" x2="192" y1="124.7656" y2="142.7266"/><line style="stroke:#000000;stroke-width:1.0;" x1="260" x2="260" y1="124.7656" y2="142.7266"/><line style="stroke:#000000;stroke-width:1.0;" x1="380" x2="380" y1="124.7656" y2="142.7266"/><line style="stroke:#000000;stroke-width:1.0;" x1="483" x2="483" y1="124.7656" y2="142.7266"/><line style="stroke:#000000;stroke-width:1.0;" x1="612" x2="612" y1="124.7656" y2="142.7266"/><line style="stroke:#000000;stroke-width:1.0;" x1="7" x2="7" y1="178.6484" y2="196.6094"/><line style="stroke:#000000;stroke-width:1.0;" x1="32" x2="32" y1="178.6484" y2="196.6094"/><line style="stroke:#000000;stroke-width:1.0;" x1="44" x2="44" y1="178.6484" y2="196.6094"/><line style="stroke:#000000;stroke-width:1.0;" x1="192" x2="192" y1="178.6484" y2="196.6094"/><line style="stroke:#000000;stroke-width:1.0;" x1="260" x2="260" y1="178.6484" y2="196.6094"/><line style="stroke:#000000;stroke-width:1.0;" x1="380" x2="380" y1="178.6484" y2="196.6094"/><line style="stroke:#000000;stroke-width:1.0;" x1="483" x2="483" y1="178.6484" y2="196.6094"/><line style="stroke:#000000;stroke-width:1.0;" x1="612" x2="612" y1="178.6484" y2="196.6094"/><line style="stroke:#000000;stroke-width:1.0;" x1="7" x2="7" y1="88.8438" y2="106.8047"/><line style="stroke:#000000;stroke-width:1.0;" x1="32" x2="32" y1="88.8438" y2="106.8047"/><line style="stroke:#000000;stroke-width:1.0;" x1="44" x2="44" y1="88.8438" y2="106.8047"/><line style="stroke:#000000;stroke-width:1.0;" x1="192" x2="192" y1="88.8438" y2="106.8047"/><line style="stroke:#000000;stroke-width:1.0;" x1="260" x2="260" y1="88.8438" y2="106.8047"/><line style="stroke:#000000;stroke-width:1.0;" x1="380" x2="380" y1="88.8438" y2="106.8047"/><line style="stroke:#000000;stroke-width:1.0;" x1="483" x2="483" y1="88.8438" y2="106.8047"/><line style="stroke:#000000;stroke-width:1.0;" x1="612" x2="612" y1="88.8438" y2="106.8047"/><line style="stroke:#000000;stroke-width:1.0;" x1="7" x2="7" y1="142.7266" y2="160.6875"/><line style="stroke:#000000;stroke-width:1.0;" x1="32" x2="32" y1="142.7266" y2="160.6875"/><line style="stroke:#000000;stroke-width:1.0;" x1="44" x2="44" y1="142.7266" y2="160.6875"/><line style="stroke:#000000;stroke-width:1.0;" x1="192" x2="192" y1="142.7266" y2="160.6875"/><line style="stroke:#000000;stroke-width:1.0;" x1="260" x2="260" y1="142.7266" y2="160.6875"/><line style="stroke:#000000;stroke-width:1.0;" x1="380" x2="380" y1="142.7266" y2="160.6875"/><line style="stroke:#000000;stroke-width:1.0;" x1="483" x2="483" y1="142.7266" y2="160.6875"/><line style="stroke:#000000;stroke-width:1.0;" x1="612" x2="612" y1="142.7266" y2="160.6875"/><text fill="#000000" font-family="sans-serif" font-size="12" font-weight="bold" lengthAdjust="spacing" textLength="78" x="622" y="68.8711">Mensurations</text><line style="stroke:#AAAAAA;stroke-width:1.0;" x1="616" x2="855" y1="78.3828" y2="78.3828"/><text fill="#000000" font-family="sans-serif" font-size="12" lengthAdjust="spacing" textLength="116" x="622" y="96.832">Esp&#232;ce scientifique *</text><rect fill="#EEEEEE" height="18.9609" style="stroke:#000000;stroke-width:1.0;" width="167" x="622" y="103.8438"/><text fill="#000000" font-family="sans-serif" font-size="12" lengthAdjust="spacing" textLength="109" x="624" y="118.793">Lophius piscatorius</text><line style="stroke:#000000;stroke-width:1.0;" x1="778" x2="778" y1="103.8438" y2="122.8047"/><polygon fill="#000000" points="781,109.8438,787,109.8438,784,117.8047" style="stroke:#000000;stroke-width:1.0;"/><text fill="#000000" font-family="sans-serif" font-size="12" lengthAdjust="spacing" textLength="28" x="817" y="116.793">Figer</text><rect fill="none" height="10" style="stroke:#000000;stroke-width:1.5;" width="10" x="799" y="106.8242"/><text fill="#000000" font-family="sans-serif" font-size="12" lengthAdjust="spacing" textLength="27" x="622" y="140.7539">Sexe</text><rect fill="#EEEEEE" height="18.9609" style="stroke:#000000;stroke-width:1.0;" width="71" x="622" y="147.7656"/><text fill="#000000" font-family="sans-serif" font-size="12" lengthAdjust="spacing" textLength="45" x="624" y="162.7148">Femelle</text><line style="stroke:#000000;stroke-width:1.0;" x1="682" x2="682" y1="147.7656" y2="166.7266"/><polygon fill="#000000" points="685,153.7656,691,153.7656,688,161.7266" style="stroke:#000000;stroke-width:1.0;"/><rect fill="#EEEEEE" height="18.9609" style="stroke:#000000;stroke-width:1.0;" width="175" x="622" y="171.7266"/><text fill="#000000" font-family="sans-serif" font-size="12" lengthAdjust="spacing" textLength="114" x="624" y="186.6758">Longueur totale (cm)</text><line style="stroke:#000000;stroke-width:1.0;" x1="786" x2="786" y1="171.7266" y2="190.6875"/><polygon fill="#000000" points="789,177.7266,795,177.7266,792,185.6875" style="stroke:#000000;stroke-width:1.0;"/><text fill="#000000" font-family="sans-serif" font-size="12" lengthAdjust="spacing" textLength="28" x="825" y="184.6758">Figer</text><rect fill="none" height="10" style="stroke:#000000;stroke-width:1.5;" width="10" x="807" y="174.707"/><text fill="#000000" font-family="sans-serif" font-size="12" lengthAdjust="spacing" textLength="14" x="625" y="208.6367">12</text><line style="stroke:#000000;stroke-width:1.0;" x1="623" x2="682" y1="211.6484" y2="211.6484"/><line style="stroke:#000000;stroke-width:1.0;" x1="623" x2="623" y1="208.6484" y2="210.6484"/><line style="stroke:#000000;stroke-width:1.0;" x1="682" x2="682" y1="208.6484" y2="210.6484"/><text fill="#000000" font-family="sans-serif" font-size="12" lengthAdjust="spacing" textLength="107" x="622" y="230.5977">Nombre d'individu *</text><text fill="#000000" font-family="sans-serif" font-size="12" lengthAdjust="spacing" textLength="7" x="625" y="250.5586">1</text><line style="stroke:#000000;stroke-width:1.0;" x1="623" x2="674" y1="253.5703" y2="253.5703"/><line style="stroke:#000000;stroke-width:1.0;" x1="623" x2="623" y1="250.5703" y2="252.5703"/><line style="stroke:#000000;stroke-width:1.0;" x1="674" x2="674" y1="250.5703" y2="252.5703"/><text fill="#000000" font-family="sans-serif" font-size="12" font-style="italic" lengthAdjust="spacing" textLength="125" x="622" y="272.5195">Poids calcul&#233; RTP (kg)</text><text fill="#0000FF" font-family="sans-serif" font-size="12" lengthAdjust="spacing" textLength="45" x="625" y="292.4805">0.01335</text><line style="stroke:#000000;stroke-width:1.0;" x1="623" x2="690" y1="295.4922" y2="295.4922"/><line style="stroke:#000000;stroke-width:1.0;" x1="623" x2="623" y1="292.4922" y2="294.4922"/><line style="stroke:#000000;stroke-width:1.0;" x1="690" x2="690" y1="292.4922" y2="294.4922"/><rect fill="#EEEEEE" height="19.9609" rx="5" ry="5" style="stroke:#000000;stroke-width:2.5;" width="228" x="619.5" y="321.9531"/><text fill="#000000" font-family="sans-serif" font-size="12" lengthAdjust="spacing" textLength="38" x="714.5" y="336.9023">Ajouter</text><line style="stroke:#000000;stroke-width:1.0;" x1="615" x2="855" y1="53.9219" y2="53.9219"/><line style="stroke:#000000;stroke-width:1.0;" x1="615" x2="855" y1="346.4141" y2="346.4141"/><line style="stroke:#000000;stroke-width:1.0;" x1="615" x2="615" y1="53.9219" y2="73.8828"/><line style="stroke:#000000;stroke-width:1.0;" x1="855" x2="855" y1="53.9219" y2="73.8828"/><line style="stroke:#000000;stroke-width:1.0;" x1="615" x2="615" y1="277.5313" y2="299.4922"/><line style="stroke:#000000;stroke-width:1.0;" x1="855" x2="855" y1="277.5313" y2="299.4922"/><line style="stroke:#000000;stroke-width:1.0;" x1="615" x2="615" y1="193.6875" y2="215.6484"/><line style="stroke:#000000;stroke-width:1.0;" x1="855" x2="855" y1="193.6875" y2="215.6484"/><line style="stroke:#000000;stroke-width:1.0;" x1="615" x2="615" y1="101.8438" y2="125.8047"/><line style="stroke:#000000;stroke-width:1.0;" x1="855" x2="855" y1="101.8438" y2="125.8047"/><line style="stroke:#000000;stroke-width:1.0;" x1="615" x2="615" y1="257.5703" y2="277.5313"/><line style="stroke:#000000;stroke-width:1.0;" x1="855" x2="855" y1="257.5703" y2="277.5313"/><line style="stroke:#000000;stroke-width:1.0;" x1="615" x2="615" y1="169.7266" y2="193.6875"/><line style="stroke:#000000;stroke-width:1.0;" x1="855" x2="855" y1="169.7266" y2="193.6875"/><line style="stroke:#000000;stroke-width:1.0;" x1="615" x2="615" y1="81.8828" y2="101.8438"/><line style="stroke:#000000;stroke-width:1.0;" x1="855" x2="855" y1="81.8828" y2="101.8438"/><line style="stroke:#000000;stroke-width:1.0;" x1="615" x2="615" y1="317.4531" y2="346.4141"/><line style="stroke:#000000;stroke-width:1.0;" x1="855" x2="855" y1="317.4531" y2="346.4141"/><line style="stroke:#000000;stroke-width:1.0;" x1="615" x2="615" y1="235.6094" y2="257.5703"/><line style="stroke:#000000;stroke-width:1.0;" x1="855" x2="855" y1="235.6094" y2="257.5703"/><line style="stroke:#000000;stroke-width:1.0;" x1="615" x2="615" y1="145.7656" y2="169.7266"/><line style="stroke:#000000;stroke-width:1.0;" x1="855" x2="855" y1="145.7656" y2="169.7266"/><line style="stroke:#000000;stroke-width:1.0;" x1="615" x2="615" y1="73.8828" y2="81.8828"/><line style="stroke:#000000;stroke-width:1.0;" x1="855" x2="855" y1="73.8828" y2="81.8828"/><line style="stroke:#000000;stroke-width:1.0;" x1="615" x2="615" y1="299.4922" y2="317.4531"/><line style="stroke:#000000;stroke-width:1.0;" x1="855" x2="855" y1="299.4922" y2="317.4531"/><line style="stroke:#000000;stroke-width:1.0;" x1="615" x2="615" y1="215.6484" y2="235.6094"/><line style="stroke:#000000;stroke-width:1.0;" x1="855" x2="855" y1="215.6484" y2="235.6094"/><line style="stroke:#000000;stroke-width:1.0;" x1="615" x2="615" y1="125.8047" y2="145.7656"/><line style="stroke:#000000;stroke-width:1.0;" x1="855" x2="855" y1="125.8047" y2="145.7656"/><rect fill="#EEEEEE" height="19.9609" rx="5" ry="5" style="stroke:#000000;stroke-width:2.5;" width="60" x="9.5" y="353.9141"/><text fill="#000000" font-family="sans-serif" font-size="12" lengthAdjust="spacing" textLength="42" x="18.5" y="368.8633">Annuler</text><rect fill="#EEEEEE" height="19.9609" rx="5" ry="5" style="stroke:#000000;stroke-width:2.5;" width="76" x="76.5" y="353.9141"/><text fill="#000000" font-family="sans-serif" font-size="12" lengthAdjust="spacing" textLength="52" x="88.5" y="368.8633">Appliquer</text><line style="stroke:#000000;stroke-width:1.0;" x1="5" x2="858" y1="5" y2="5"/><line style="stroke:#000000;stroke-width:1.0;" x1="5" x2="858" y1="378.375" y2="378.375"/><line style="stroke:#000000;stroke-width:1.0;" x1="5" x2="5" y1="5" y2="24.9609"/><line style="stroke:#000000;stroke-width:1.0;" x1="858" x2="858" y1="24.9609" y2="32.9609"/><line style="stroke:#000000;stroke-width:1.0;" x1="858" x2="858" y1="5" y2="24.9609"/><line style="stroke:#000000;stroke-width:1.0;" x1="5" x2="5" y1="349.4141" y2="378.375"/><line style="stroke:#000000;stroke-width:1.0;" x1="5" x2="5" y1="50.9219" y2="349.4141"/><line style="stroke:#000000;stroke-width:1.0;" x1="858" x2="858" y1="349.4141" y2="378.375"/><line style="stroke:#000000;stroke-width:1.0;" x1="5" x2="5" y1="32.9609" y2="50.9219"/><line style="stroke:#000000;stroke-width:1.0;" x1="858" x2="858" y1="50.9219" y2="349.4141"/><line style="stroke:#000000;stroke-width:1.0;" x1="5" x2="5" y1="24.9609" y2="32.9609"/><line style="stroke:#000000;stroke-width:1.0;" x1="858" x2="858" y1="32.9609" y2="50.9219"/><!--SRC=[xPNzRjem4C3_NfxYr4eTT28Z2O4M8LJwDQq5YjgkcuP0CebBlOKuinss2dYVxJdwOZiJQ3C8woRjpqM9SyHtlxDz7nn8HOII9506J5uP01DeSWMjzaSem269VS4PHR4sgBUeZ0MLm4AVZPaVqo30NxbA7gPW9i__-z_UUEfWckOCusAQEDHsb23ohWurZmTSL8U2tjThEp8IbFZoZb9LhxsUJw7Apa3mhvAAkg73QhoOREDRNzsUYT7Qnf0X_qH63zyz2j9ZD5Jibds9QJ9pHRyjf2OFXp6D1IYkI40XvutooKoRZmQ2WlzocHJ9vmvdlWIF15uSFFo0o-iEv3uFysd_5THijCynjPeykcEnX47iqo6Hag3A55hQqHHAPHmiJKrsF0XYMhVCebLnqhJo7z8qoSPpJS6AvdxPNR8-Q9Yh3IxQALZ4f4SK5rf-XDd5ZAKLJNUlKaelhVJCqaxfI5VIRu1k6kSyixYteKyL5ICMQgJbPY9BbRtzDDJ-EwYL2NNSobuQQZspyHMethop1hNTv31dC3NcmcJXOjwi5kAY0ILDAiGkHHJZeOIdnfHwPezsXS8Q8hCQTc75SAdTppYjFYJQE7IX1wTiI0MQhjdEgsiJTv4JoCgmx6ULOp_BwQhb5igM3VgTmLslvTq4kW4qvymLicWrjgaBRDhrrg-HBrgEuwABbIMOARikP5sDJpp6lEgbZ1PIyah6IRSHXd6WzV3G6b4Kw5YBdfwT6GSqzET_YaOd8A5wrsh2c0g9MGMMQHTjnxIit7lgOnWZi1mitQfThZeE79rSNODMo1kvDvqcI1uBp2UVIINO8DPvcJVEo9Z0POm9Dg9Lk8XeU7Pyllm09-6O2HwEC06DivlMaqAvL3Xa2bqAN0lSj8nZUalYGA65ntqM3gjm55csQnjDWXb2XWY_5SOHHx2uhyBfvKy0]--></g></svg>