<?xml version="1.0" encoding="us-ascii" standalone="no"?><svg xmlns="http://www.w3.org/2000/svg" xmlns:xlink="http://www.w3.org/1999/xlink" contentStyleType="text/css" height="388px" preserveAspectRatio="none" style="width:759px;height:388px;background:#FFFFFF;" version="1.1" viewBox="0 0 759 388" width="759px" zoomAndPan="magnify"><defs/><g><text fill="#000000" font-family="sans-serif" font-size="12" lengthAdjust="spacing" textLength="112" x="7" y="19.457">Lot MNZ - Baudroie -</text><text fill="#000000" font-family="sans-serif" font-size="12" font-weight="bold" lengthAdjust="spacing" textLength="141" x="122" y="19.457">Mesures individuelles (7)</text><text fill="#000000" font-family="sans-serif" font-size="12" font-weight="bold" lengthAdjust="spacing" textLength="9" x="733" y="19.457">...</text><line style="stroke:#AAAAAA;stroke-width:1.0;stroke-dasharray:1.0,2.0;" x1="6" x2="752" y1="28.5938" y2="28.5938"/><path d="M10,33.0938 C9.45,33.0938 9,33.5438 9,34.0938 L8,34.0938 C7.45,34.0938 7,34.5438 7,35.0938 L14,35.0938 C14,34.5438 13.55,34.0938 13,34.0938 L12,34.0938 C12,33.5438 11.55,33.0938 11,33.0938 L10,33.0938 M8,36.0938 L8,40.9038 C8,41.0138 8.08,41.0938 8.19,41.0938 L12.82,41.0938 C12.93,41.0938 13.01,41.0138 13.01,40.9038 L13.01,36.0938 L12.01,36.0938 L12.01,39.5938 C12.01,39.8738 11.79,40.0938 11.51,40.0938 C11.23,40.0938 11.01,39.8738 11.01,39.5938 L11.01,36.0938 L10.01,36.0938 L10.01,39.5938 C10.01,39.8738 9.79,40.0938 9.51,40.0938 C9.23,40.0938 9.01,39.8738 9.01,39.5938 L9.01,36.0938 L8.01,36.0938 " fill="#000000" style="stroke:;stroke-width:0.0;stroke-dasharray:;"/><text fill="#000000" font-family="sans-serif" font-size="12" lengthAdjust="spacing" textLength="3" x="28" y="74.6445">.</text><rect fill="none" height="10" style="stroke:#000000;stroke-width:1.5;" width="10" x="10" y="64.7344"/><text fill="#000000" font-family="sans-serif" font-size="12" lengthAdjust="spacing" textLength="10" x="33" y="74.6445">.#</text><text fill="#000000" font-family="sans-serif" font-size="12" font-weight="bold" lengthAdjust="spacing" textLength="111" x="45" y="74.6445">Esp&#232;ce scientifique</text><text fill="#000000" font-family="sans-serif" font-size="12" font-weight="bold" lengthAdjust="spacing" textLength="29" x="193" y="74.6445">Sexe</text><text fill="#000000" font-family="sans-serif" font-size="12" font-weight="bold" lengthAdjust="spacing" textLength="118" x="261" y="74.6445">Longueur totale (cm)</text><text fill="#000000" font-family="sans-serif" font-size="12" font-weight="bold" lengthAdjust="spacing" textLength="127" x="381" y="74.6445">Poids calcul&#233; RTP (kg)</text><text fill="#000000" font-family="sans-serif" font-size="12" lengthAdjust="spacing" textLength="3" x="28" y="91.7383">.</text><rect fill="none" height="10" style="stroke:#000000;stroke-width:1.5;" width="10" x="10" y="81.8281"/><text fill="#000000" font-family="sans-serif" font-size="12" lengthAdjust="spacing" textLength="7" x="33" y="91.7383">7</text><text fill="#000000" font-family="sans-serif" font-size="12" lengthAdjust="spacing" textLength="145" x="45" y="91.7383">ANK - Lophius budegassa</text><text fill="#000000" font-family="sans-serif" font-size="12" lengthAdjust="spacing" textLength="26" x="193" y="91.7383">Male</text><text fill="#000000" font-family="sans-serif" font-size="12" lengthAdjust="spacing" textLength="14" x="261" y="91.7383">46</text><text fill="#0000FF" font-family="sans-serif" font-size="12" lengthAdjust="spacing" textLength="38" x="381" y="91.7383">1.0173</text><text fill="#000000" font-family="sans-serif" font-size="12" lengthAdjust="spacing" textLength="3" x="28" y="108.832">.</text><rect fill="none" height="10" style="stroke:#000000;stroke-width:1.5;" width="10" x="10" y="98.9219"/><text fill="#000000" font-family="sans-serif" font-size="12" lengthAdjust="spacing" textLength="7" x="33" y="108.832">6</text><text fill="#000000" font-family="sans-serif" font-size="12" lengthAdjust="spacing" textLength="145" x="45" y="108.832">ANK - Lophius budegassa</text><text fill="#000000" font-family="sans-serif" font-size="12" lengthAdjust="spacing" textLength="26" x="193" y="108.832">Male</text><text fill="#000000" font-family="sans-serif" font-size="12" lengthAdjust="spacing" textLength="14" x="261" y="108.832">41</text><text fill="#0000FF" font-family="sans-serif" font-size="12" lengthAdjust="spacing" textLength="31" x="381" y="108.832">0.965</text><text fill="#000000" font-family="sans-serif" font-size="12" lengthAdjust="spacing" textLength="3" x="28" y="125.9258">.</text><rect fill="none" height="10" style="stroke:#000000;stroke-width:1.5;" width="10" x="10" y="116.0156"/><polygon fill="#000000" points="11,119.4688,14,122.4688,21,113.4688,14,120.4688" style="stroke:#000000;stroke-width:1.5;"/><text fill="#000000" font-family="sans-serif" font-size="12" lengthAdjust="spacing" textLength="7" x="33" y="125.9258">5</text><text fill="#000000" font-family="sans-serif" font-size="12" lengthAdjust="spacing" textLength="146" x="45" y="125.9258">MON - Lophius piscatorius</text><text fill="#000000" font-family="sans-serif" font-size="12" lengthAdjust="spacing" textLength="26" x="193" y="125.9258">Male</text><text fill="#000000" font-family="sans-serif" font-size="12" lengthAdjust="spacing" textLength="14" x="261" y="125.9258">20</text><text fill="#0000FF" font-family="sans-serif" font-size="12" lengthAdjust="spacing" textLength="38" x="381" y="125.9258">0.5874</text><text fill="#000000" font-family="sans-serif" font-size="12" lengthAdjust="spacing" textLength="3" x="28" y="143.0195">.</text><rect fill="none" height="10" style="stroke:#000000;stroke-width:1.5;" width="10" x="10" y="133.1094"/><text fill="#000000" font-family="sans-serif" font-size="12" lengthAdjust="spacing" textLength="7" x="33" y="143.0195">4</text><text fill="#000000" font-family="sans-serif" font-size="12" lengthAdjust="spacing" textLength="145" x="45" y="143.0195">ANK - Lophius budegassa</text><text fill="#000000" font-family="sans-serif" font-size="12" lengthAdjust="spacing" textLength="45" x="193" y="143.0195">Femelle</text><text fill="#000000" font-family="sans-serif" font-size="12" lengthAdjust="spacing" textLength="14" x="261" y="143.0195">20</text><text fill="#0000FF" font-family="sans-serif" font-size="12" lengthAdjust="spacing" textLength="24" x="381" y="143.0195">0.55</text><text fill="#000000" font-family="sans-serif" font-size="12" lengthAdjust="spacing" textLength="3" x="28" y="160.1133">.</text><rect fill="none" height="10" style="stroke:#000000;stroke-width:1.5;" width="10" x="10" y="150.2031"/><text fill="#000000" font-family="sans-serif" font-size="12" lengthAdjust="spacing" textLength="7" x="33" y="160.1133">3</text><text fill="#000000" font-family="sans-serif" font-size="12" lengthAdjust="spacing" textLength="146" x="45" y="160.1133">MON - Lophius piscatorius</text><text fill="#000000" font-family="sans-serif" font-size="12" lengthAdjust="spacing" textLength="66" x="193" y="160.1133">Indetermine</text><text fill="#000000" font-family="sans-serif" font-size="12" lengthAdjust="spacing" textLength="14" x="261" y="160.1133">15</text><text fill="#0000FF" font-family="sans-serif" font-size="12" lengthAdjust="spacing" textLength="38" x="381" y="160.1133">0.4789</text><text fill="#000000" font-family="sans-serif" font-size="12" lengthAdjust="spacing" textLength="3" x="28" y="177.207">.</text><rect fill="none" height="10" style="stroke:#000000;stroke-width:1.5;" width="10" x="10" y="167.2969"/><text fill="#000000" font-family="sans-serif" font-size="12" lengthAdjust="spacing" textLength="7" x="33" y="177.207">2</text><text fill="#000000" font-family="sans-serif" font-size="12" lengthAdjust="spacing" textLength="146" x="45" y="177.207">MON - Lophius piscatorius</text><text fill="#000000" font-family="sans-serif" font-size="12" lengthAdjust="spacing" textLength="66" x="193" y="177.207">Indetermine</text><text fill="#000000" font-family="sans-serif" font-size="12" lengthAdjust="spacing" textLength="14" x="261" y="177.207">11</text><text fill="#0000FF" font-family="sans-serif" font-size="12" lengthAdjust="spacing" textLength="38" x="381" y="177.207">0.3578</text><text fill="#000000" font-family="sans-serif" font-size="12" lengthAdjust="spacing" textLength="3" x="28" y="194.3008">.</text><rect fill="none" height="10" style="stroke:#000000;stroke-width:1.5;" width="10" x="10" y="184.3906"/><text fill="#000000" font-family="sans-serif" font-size="12" lengthAdjust="spacing" textLength="7" x="33" y="194.3008">1</text><text fill="#000000" font-family="sans-serif" font-size="12" lengthAdjust="spacing" textLength="145" x="45" y="194.3008">ANK - Lophius budegassa</text><text fill="#000000" font-family="sans-serif" font-size="12" lengthAdjust="spacing" textLength="66" x="193" y="194.3008">Indetermine</text><text fill="#000000" font-family="sans-serif" font-size="12" lengthAdjust="spacing" textLength="14" x="261" y="194.3008">10</text><text fill="#0000FF" font-family="sans-serif" font-size="12" lengthAdjust="spacing" textLength="31" x="381" y="194.3008">0.254</text><line style="stroke:#000000;stroke-width:1.0;" x1="7" x2="32" y1="61.1875" y2="61.1875"/><line style="stroke:#000000;stroke-width:1.0;" x1="32" x2="44" y1="61.1875" y2="61.1875"/><line style="stroke:#000000;stroke-width:1.0;" x1="44" x2="192" y1="61.1875" y2="61.1875"/><line style="stroke:#000000;stroke-width:1.0;" x1="192" x2="260" y1="61.1875" y2="61.1875"/><line style="stroke:#000000;stroke-width:1.0;" x1="260" x2="380" y1="61.1875" y2="61.1875"/><line style="stroke:#000000;stroke-width:1.0;" x1="380" x2="509" y1="61.1875" y2="61.1875"/><line style="stroke:#000000;stroke-width:1.0;" x1="7" x2="32" y1="112.4688" y2="112.4688"/><line style="stroke:#000000;stroke-width:1.0;" x1="32" x2="44" y1="112.4688" y2="112.4688"/><line style="stroke:#000000;stroke-width:1.0;" x1="44" x2="192" y1="112.4688" y2="112.4688"/><line style="stroke:#000000;stroke-width:1.0;" x1="192" x2="260" y1="112.4688" y2="112.4688"/><line style="stroke:#000000;stroke-width:1.0;" x1="260" x2="380" y1="112.4688" y2="112.4688"/><line style="stroke:#000000;stroke-width:1.0;" x1="380" x2="509" y1="112.4688" y2="112.4688"/><line style="stroke:#000000;stroke-width:1.0;" x1="7" x2="32" y1="163.75" y2="163.75"/><line style="stroke:#000000;stroke-width:1.0;" x1="32" x2="44" y1="163.75" y2="163.75"/><line style="stroke:#000000;stroke-width:1.0;" x1="44" x2="192" y1="163.75" y2="163.75"/><line style="stroke:#000000;stroke-width:1.0;" x1="192" x2="260" y1="163.75" y2="163.75"/><line style="stroke:#000000;stroke-width:1.0;" x1="260" x2="380" y1="163.75" y2="163.75"/><line style="stroke:#000000;stroke-width:1.0;" x1="380" x2="509" y1="163.75" y2="163.75"/><line style="stroke:#000000;stroke-width:1.0;" x1="7" x2="32" y1="78.2813" y2="78.2813"/><line style="stroke:#000000;stroke-width:1.0;" x1="32" x2="44" y1="78.2813" y2="78.2813"/><line style="stroke:#000000;stroke-width:1.0;" x1="44" x2="192" y1="78.2813" y2="78.2813"/><line style="stroke:#000000;stroke-width:1.0;" x1="192" x2="260" y1="78.2813" y2="78.2813"/><line style="stroke:#000000;stroke-width:1.0;" x1="260" x2="380" y1="78.2813" y2="78.2813"/><line style="stroke:#000000;stroke-width:1.0;" x1="380" x2="509" y1="78.2813" y2="78.2813"/><line style="stroke:#000000;stroke-width:1.0;" x1="7" x2="32" y1="129.5625" y2="129.5625"/><line style="stroke:#000000;stroke-width:1.0;" x1="32" x2="44" y1="129.5625" y2="129.5625"/><line style="stroke:#000000;stroke-width:1.0;" x1="44" x2="192" y1="129.5625" y2="129.5625"/><line style="stroke:#000000;stroke-width:1.0;" x1="192" x2="260" y1="129.5625" y2="129.5625"/><line style="stroke:#000000;stroke-width:1.0;" x1="260" x2="380" y1="129.5625" y2="129.5625"/><line style="stroke:#000000;stroke-width:1.0;" x1="380" x2="509" y1="129.5625" y2="129.5625"/><line style="stroke:#000000;stroke-width:1.0;" x1="7" x2="32" y1="180.8438" y2="180.8438"/><line style="stroke:#000000;stroke-width:1.0;" x1="32" x2="44" y1="180.8438" y2="180.8438"/><line style="stroke:#000000;stroke-width:1.0;" x1="44" x2="192" y1="180.8438" y2="180.8438"/><line style="stroke:#000000;stroke-width:1.0;" x1="192" x2="260" y1="180.8438" y2="180.8438"/><line style="stroke:#000000;stroke-width:1.0;" x1="260" x2="380" y1="180.8438" y2="180.8438"/><line style="stroke:#000000;stroke-width:1.0;" x1="380" x2="509" y1="180.8438" y2="180.8438"/><line style="stroke:#000000;stroke-width:1.0;" x1="7" x2="32" y1="95.375" y2="95.375"/><line style="stroke:#000000;stroke-width:1.0;" x1="32" x2="44" y1="95.375" y2="95.375"/><line style="stroke:#000000;stroke-width:1.0;" x1="44" x2="192" y1="95.375" y2="95.375"/><line style="stroke:#000000;stroke-width:1.0;" x1="192" x2="260" y1="95.375" y2="95.375"/><line style="stroke:#000000;stroke-width:1.0;" x1="260" x2="380" y1="95.375" y2="95.375"/><line style="stroke:#000000;stroke-width:1.0;" x1="380" x2="509" y1="95.375" y2="95.375"/><line style="stroke:#000000;stroke-width:1.0;" x1="7" x2="32" y1="146.6563" y2="146.6563"/><line style="stroke:#000000;stroke-width:1.0;" x1="32" x2="44" y1="146.6563" y2="146.6563"/><line style="stroke:#000000;stroke-width:1.0;" x1="44" x2="192" y1="146.6563" y2="146.6563"/><line style="stroke:#000000;stroke-width:1.0;" x1="192" x2="260" y1="146.6563" y2="146.6563"/><line style="stroke:#000000;stroke-width:1.0;" x1="260" x2="380" y1="146.6563" y2="146.6563"/><line style="stroke:#000000;stroke-width:1.0;" x1="380" x2="509" y1="146.6563" y2="146.6563"/><line style="stroke:#000000;stroke-width:1.0;" x1="7" x2="32" y1="197.9375" y2="197.9375"/><line style="stroke:#000000;stroke-width:1.0;" x1="32" x2="44" y1="197.9375" y2="197.9375"/><line style="stroke:#000000;stroke-width:1.0;" x1="44" x2="192" y1="197.9375" y2="197.9375"/><line style="stroke:#000000;stroke-width:1.0;" x1="192" x2="260" y1="197.9375" y2="197.9375"/><line style="stroke:#000000;stroke-width:1.0;" x1="260" x2="380" y1="197.9375" y2="197.9375"/><line style="stroke:#000000;stroke-width:1.0;" x1="380" x2="509" y1="197.9375" y2="197.9375"/><line style="stroke:#000000;stroke-width:1.0;" x1="7" x2="7" y1="61.1875" y2="78.2813"/><line style="stroke:#000000;stroke-width:1.0;" x1="32" x2="32" y1="61.1875" y2="78.2813"/><line style="stroke:#000000;stroke-width:1.0;" x1="44" x2="44" y1="61.1875" y2="78.2813"/><line style="stroke:#000000;stroke-width:1.0;" x1="192" x2="192" y1="61.1875" y2="78.2813"/><line style="stroke:#000000;stroke-width:1.0;" x1="260" x2="260" y1="61.1875" y2="78.2813"/><line style="stroke:#000000;stroke-width:1.0;" x1="380" x2="380" y1="61.1875" y2="78.2813"/><line style="stroke:#000000;stroke-width:1.0;" x1="509" x2="509" y1="61.1875" y2="78.2813"/><line style="stroke:#000000;stroke-width:1.0;" x1="7" x2="7" y1="112.4688" y2="129.5625"/><line style="stroke:#000000;stroke-width:1.0;" x1="32" x2="32" y1="112.4688" y2="129.5625"/><line style="stroke:#000000;stroke-width:1.0;" x1="44" x2="44" y1="112.4688" y2="129.5625"/><line style="stroke:#000000;stroke-width:1.0;" x1="192" x2="192" y1="112.4688" y2="129.5625"/><line style="stroke:#000000;stroke-width:1.0;" x1="260" x2="260" y1="112.4688" y2="129.5625"/><line style="stroke:#000000;stroke-width:1.0;" x1="380" x2="380" y1="112.4688" y2="129.5625"/><line style="stroke:#000000;stroke-width:1.0;" x1="509" x2="509" y1="112.4688" y2="129.5625"/><line style="stroke:#000000;stroke-width:1.0;" x1="7" x2="7" y1="163.75" y2="180.8438"/><line style="stroke:#000000;stroke-width:1.0;" x1="32" x2="32" y1="163.75" y2="180.8438"/><line style="stroke:#000000;stroke-width:1.0;" x1="44" x2="44" y1="163.75" y2="180.8438"/><line style="stroke:#000000;stroke-width:1.0;" x1="192" x2="192" y1="163.75" y2="180.8438"/><line style="stroke:#000000;stroke-width:1.0;" x1="260" x2="260" y1="163.75" y2="180.8438"/><line style="stroke:#000000;stroke-width:1.0;" x1="380" x2="380" y1="163.75" y2="180.8438"/><line style="stroke:#000000;stroke-width:1.0;" x1="509" x2="509" y1="163.75" y2="180.8438"/><line style="stroke:#000000;stroke-width:1.0;" x1="7" x2="7" y1="78.2813" y2="95.375"/><line style="stroke:#000000;stroke-width:1.0;" x1="32" x2="32" y1="78.2813" y2="95.375"/><line style="stroke:#000000;stroke-width:1.0;" x1="44" x2="44" y1="78.2813" y2="95.375"/><line style="stroke:#000000;stroke-width:1.0;" x1="192" x2="192" y1="78.2813" y2="95.375"/><line style="stroke:#000000;stroke-width:1.0;" x1="260" x2="260" y1="78.2813" y2="95.375"/><line style="stroke:#000000;stroke-width:1.0;" x1="380" x2="380" y1="78.2813" y2="95.375"/><line style="stroke:#000000;stroke-width:1.0;" x1="509" x2="509" y1="78.2813" y2="95.375"/><line style="stroke:#000000;stroke-width:1.0;" x1="7" x2="7" y1="129.5625" y2="146.6563"/><line style="stroke:#000000;stroke-width:1.0;" x1="32" x2="32" y1="129.5625" y2="146.6563"/><line style="stroke:#000000;stroke-width:1.0;" x1="44" x2="44" y1="129.5625" y2="146.6563"/><line style="stroke:#000000;stroke-width:1.0;" x1="192" x2="192" y1="129.5625" y2="146.6563"/><line style="stroke:#000000;stroke-width:1.0;" x1="260" x2="260" y1="129.5625" y2="146.6563"/><line style="stroke:#000000;stroke-width:1.0;" x1="380" x2="380" y1="129.5625" y2="146.6563"/><line style="stroke:#000000;stroke-width:1.0;" x1="509" x2="509" y1="129.5625" y2="146.6563"/><line style="stroke:#000000;stroke-width:1.0;" x1="7" x2="7" y1="180.8438" y2="197.9375"/><line style="stroke:#000000;stroke-width:1.0;" x1="32" x2="32" y1="180.8438" y2="197.9375"/><line style="stroke:#000000;stroke-width:1.0;" x1="44" x2="44" y1="180.8438" y2="197.9375"/><line style="stroke:#000000;stroke-width:1.0;" x1="192" x2="192" y1="180.8438" y2="197.9375"/><line style="stroke:#000000;stroke-width:1.0;" x1="260" x2="260" y1="180.8438" y2="197.9375"/><line style="stroke:#000000;stroke-width:1.0;" x1="380" x2="380" y1="180.8438" y2="197.9375"/><line style="stroke:#000000;stroke-width:1.0;" x1="509" x2="509" y1="180.8438" y2="197.9375"/><line style="stroke:#000000;stroke-width:1.0;" x1="7" x2="7" y1="95.375" y2="112.4688"/><line style="stroke:#000000;stroke-width:1.0;" x1="32" x2="32" y1="95.375" y2="112.4688"/><line style="stroke:#000000;stroke-width:1.0;" x1="44" x2="44" y1="95.375" y2="112.4688"/><line style="stroke:#000000;stroke-width:1.0;" x1="192" x2="192" y1="95.375" y2="112.4688"/><line style="stroke:#000000;stroke-width:1.0;" x1="260" x2="260" y1="95.375" y2="112.4688"/><line style="stroke:#000000;stroke-width:1.0;" x1="380" x2="380" y1="95.375" y2="112.4688"/><line style="stroke:#000000;stroke-width:1.0;" x1="509" x2="509" y1="95.375" y2="112.4688"/><line style="stroke:#000000;stroke-width:1.0;" x1="7" x2="7" y1="146.6563" y2="163.75"/><line style="stroke:#000000;stroke-width:1.0;" x1="32" x2="32" y1="146.6563" y2="163.75"/><line style="stroke:#000000;stroke-width:1.0;" x1="44" x2="44" y1="146.6563" y2="163.75"/><line style="stroke:#000000;stroke-width:1.0;" x1="192" x2="192" y1="146.6563" y2="163.75"/><line style="stroke:#000000;stroke-width:1.0;" x1="260" x2="260" y1="146.6563" y2="163.75"/><line style="stroke:#000000;stroke-width:1.0;" x1="380" x2="380" y1="146.6563" y2="163.75"/><line style="stroke:#000000;stroke-width:1.0;" x1="509" x2="509" y1="146.6563" y2="163.75"/><text fill="#000000" font-family="sans-serif" font-size="12" font-weight="bold" lengthAdjust="spacing" textLength="78" x="539" y="76.6445">Mensurations</text><ellipse cx="526" cy="71.7344" fill="none" rx="5" ry="5" style="stroke:#000000;stroke-width:1.5;"/><ellipse cx="526" cy="71.7344" fill="#000000" rx="2" ry="2" style="stroke:#000000;stroke-width:1.5;"/><text fill="#000000" font-family="sans-serif" font-size="12" font-weight="bold" lengthAdjust="spacing" textLength="88" x="639" y="76.6445">D&#233;nombrement</text><ellipse cx="626" cy="71.7344" fill="none" rx="5" ry="5" style="stroke:#000000;stroke-width:1.5;"/><line style="stroke:#AAAAAA;stroke-width:1.0;" x1="513" x2="749" y1="85.7813" y2="85.7813"/><text fill="#000000" font-family="sans-serif" font-size="12" lengthAdjust="spacing" textLength="116" x="519" y="103.7383">Esp&#232;ce scientifique *</text><rect fill="#EEEEEE" height="18.0938" style="stroke:#000000;stroke-width:1.0;" width="167" x="519" y="110.375"/><text fill="#000000" font-family="sans-serif" font-size="12" lengthAdjust="spacing" textLength="109" x="521" y="124.832">Lophius piscatorius</text><line style="stroke:#000000;stroke-width:1.0;" x1="675" x2="675" y1="110.375" y2="128.4688"/><polygon fill="#000000" points="678,116.375,684,116.375,681,123.4688" style="stroke:#000000;stroke-width:1.0;"/><text fill="#000000" font-family="sans-serif" font-size="12" lengthAdjust="spacing" textLength="28" x="714" y="122.832">Figer</text><rect fill="none" height="10" style="stroke:#000000;stroke-width:1.5;" width="10" x="696" y="112.9219"/><text fill="#000000" font-family="sans-serif" font-size="12" lengthAdjust="spacing" textLength="27" x="519" y="163.0195">Sexe</text><rect fill="#EEEEEE" height="18.0938" style="stroke:#000000;stroke-width:1.0;" width="71" x="519" y="169.6563"/><text fill="#000000" font-family="sans-serif" font-size="12" lengthAdjust="spacing" textLength="45" x="521" y="184.1133">Femelle</text><line style="stroke:#000000;stroke-width:1.0;" x1="579" x2="579" y1="169.6563" y2="187.75"/><polygon fill="#000000" points="582,175.6563,588,175.6563,585,182.75" style="stroke:#000000;stroke-width:1.0;"/><text fill="#000000" font-family="sans-serif" font-size="12" lengthAdjust="spacing" textLength="122" x="519" y="222.3008">Longueur totale (cm) *</text><text fill="#000000" font-family="sans-serif" font-size="12" lengthAdjust="spacing" textLength="14" x="522" y="241.3945">12</text><line style="stroke:#000000;stroke-width:1.0;" x1="520" x2="579" y1="244.0313" y2="244.0313"/><line style="stroke:#000000;stroke-width:1.0;" x1="520" x2="520" y1="241.0313" y2="243.0313"/><line style="stroke:#000000;stroke-width:1.0;" x1="579" x2="579" y1="241.0313" y2="243.0313"/><text fill="#000000" font-family="sans-serif" font-size="12" font-style="italic" lengthAdjust="spacing" textLength="125" x="519" y="279.582">Poids calcul&#233; RTP (kg)</text><text fill="#0000FF" font-family="sans-serif" font-size="12" lengthAdjust="spacing" textLength="45" x="522" y="298.6758">0.01335</text><line style="stroke:#000000;stroke-width:1.0;" x1="520" x2="587" y1="301.3125" y2="301.3125"/><line style="stroke:#000000;stroke-width:1.0;" x1="520" x2="520" y1="298.3125" y2="300.3125"/><line style="stroke:#000000;stroke-width:1.0;" x1="587" x2="587" y1="298.3125" y2="300.3125"/><rect fill="#EEEEEE" height="19.0938" rx="5" ry="5" style="stroke:#000000;stroke-width:2.5;" width="228" x="516.5" y="326.9063"/><text fill="#000000" font-family="sans-serif" font-size="12" lengthAdjust="spacing" textLength="38" x="611.5" y="341.3633">Ajouter</text><line style="stroke:#000000;stroke-width:1.0;" x1="512" x2="749" y1="62.1875" y2="62.1875"/><line style="stroke:#000000;stroke-width:1.0;" x1="512" x2="749" y1="350.5" y2="350.5"/><line style="stroke:#000000;stroke-width:1.0;" x1="512" x2="512" y1="62.1875" y2="81.2813"/><line style="stroke:#000000;stroke-width:1.0;" x1="749" x2="749" y1="62.1875" y2="81.2813"/><line style="stroke:#000000;stroke-width:1.0;" x1="512" x2="512" y1="265.125" y2="284.2188"/><line style="stroke:#000000;stroke-width:1.0;" x1="749" x2="749" y1="265.125" y2="284.2188"/><line style="stroke:#000000;stroke-width:1.0;" x1="512" x2="512" y1="190.75" y2="207.8438"/><line style="stroke:#000000;stroke-width:1.0;" x1="749" x2="749" y1="190.75" y2="207.8438"/><line style="stroke:#000000;stroke-width:1.0;" x1="512" x2="512" y1="108.375" y2="131.4688"/><line style="stroke:#000000;stroke-width:1.0;" x1="749" x2="749" y1="108.375" y2="131.4688"/><line style="stroke:#000000;stroke-width:1.0;" x1="512" x2="512" y1="322.4063" y2="350.5"/><line style="stroke:#000000;stroke-width:1.0;" x1="749" x2="749" y1="322.4063" y2="350.5"/><line style="stroke:#000000;stroke-width:1.0;" x1="512" x2="512" y1="248.0313" y2="265.125"/><line style="stroke:#000000;stroke-width:1.0;" x1="749" x2="749" y1="248.0313" y2="265.125"/><line style="stroke:#000000;stroke-width:1.0;" x1="512" x2="512" y1="167.6563" y2="190.75"/><line style="stroke:#000000;stroke-width:1.0;" x1="749" x2="749" y1="167.6563" y2="190.75"/><line style="stroke:#000000;stroke-width:1.0;" x1="512" x2="512" y1="89.2813" y2="108.375"/><line style="stroke:#000000;stroke-width:1.0;" x1="749" x2="749" y1="89.2813" y2="108.375"/><line style="stroke:#000000;stroke-width:1.0;" x1="512" x2="512" y1="305.3125" y2="322.4063"/><line style="stroke:#000000;stroke-width:1.0;" x1="749" x2="749" y1="305.3125" y2="322.4063"/><line style="stroke:#000000;stroke-width:1.0;" x1="512" x2="512" y1="226.9375" y2="248.0313"/><line style="stroke:#000000;stroke-width:1.0;" x1="749" x2="749" y1="226.9375" y2="248.0313"/><line style="stroke:#000000;stroke-width:1.0;" x1="512" x2="512" y1="148.5625" y2="167.6563"/><line style="stroke:#000000;stroke-width:1.0;" x1="749" x2="749" y1="148.5625" y2="167.6563"/><line style="stroke:#000000;stroke-width:1.0;" x1="512" x2="512" y1="81.2813" y2="89.2813"/><line style="stroke:#000000;stroke-width:1.0;" x1="749" x2="749" y1="81.2813" y2="89.2813"/><line style="stroke:#000000;stroke-width:1.0;" x1="512" x2="512" y1="284.2188" y2="305.3125"/><line style="stroke:#000000;stroke-width:1.0;" x1="749" x2="749" y1="284.2188" y2="305.3125"/><line style="stroke:#000000;stroke-width:1.0;" x1="512" x2="512" y1="207.8438" y2="226.9375"/><line style="stroke:#000000;stroke-width:1.0;" x1="749" x2="749" y1="207.8438" y2="226.9375"/><line style="stroke:#000000;stroke-width:1.0;" x1="512" x2="512" y1="131.4688" y2="148.5625"/><line style="stroke:#000000;stroke-width:1.0;" x1="749" x2="749" y1="131.4688" y2="148.5625"/><rect fill="#EEEEEE" height="19.0938" rx="5" ry="5" style="stroke:#000000;stroke-width:2.5;" width="60" x="9.5" y="358"/><text fill="#000000" font-family="sans-serif" font-size="12" lengthAdjust="spacing" textLength="42" x="18.5" y="372.457">Annuler</text><rect fill="#EEEEEE" height="19.0938" rx="5" ry="5" style="stroke:#000000;stroke-width:2.5;" width="76" x="76.5" y="358"/><text fill="#000000" font-family="sans-serif" font-size="12" lengthAdjust="spacing" textLength="52" x="88.5" y="372.457">Appliquer</text><line style="stroke:#000000;stroke-width:1.0;" x1="5" x2="752" y1="5" y2="5"/><line style="stroke:#000000;stroke-width:1.0;" x1="5" x2="752" y1="381.5938" y2="381.5938"/><line style="stroke:#000000;stroke-width:1.0;" x1="5" x2="5" y1="5" y2="24.0938"/><line style="stroke:#000000;stroke-width:1.0;" x1="752" x2="752" y1="24.0938" y2="32.0938"/><line style="stroke:#000000;stroke-width:1.0;" x1="752" x2="752" y1="5" y2="24.0938"/><line style="stroke:#000000;stroke-width:1.0;" x1="5" x2="5" y1="353.5" y2="381.5938"/><line style="stroke:#000000;stroke-width:1.0;" x1="5" x2="5" y1="59.1875" y2="353.5"/><line style="stroke:#000000;stroke-width:1.0;" x1="752" x2="752" y1="353.5" y2="381.5938"/><line style="stroke:#000000;stroke-width:1.0;" x1="5" x2="5" y1="42.0938" y2="59.1875"/><line style="stroke:#000000;stroke-width:1.0;" x1="752" x2="752" y1="59.1875" y2="353.5"/><line style="stroke:#000000;stroke-width:1.0;" x1="5" x2="5" y1="32.0938" y2="42.0938"/><line style="stroke:#000000;stroke-width:1.0;" x1="752" x2="752" y1="42.0938" y2="59.1875"/><line style="stroke:#000000;stroke-width:1.0;" x1="5" x2="5" y1="24.0938" y2="32.0938"/><line style="stroke:#000000;stroke-width:1.0;" x1="752" x2="752" y1="32.0938" y2="42.0938"/></g></svg>