<?xml version="1.0" encoding="us-ascii" standalone="no"?><svg xmlns="http://www.w3.org/2000/svg" xmlns:xlink="http://www.w3.org/1999/xlink" contentStyleType="text/css" height="390px" preserveAspectRatio="none" style="width:862px;height:390px;background:#FFFFFF;" version="1.1" viewBox="0 0 862 390" width="862px" zoomAndPan="magnify"><defs/><g><text fill="#000000" font-family="sans-serif" font-size="12" lengthAdjust="spacing" textLength="112" x="7" y="19.457">Lot MNZ - Baudroie -</text><text fill="#000000" font-family="sans-serif" font-size="12" font-weight="bold" lengthAdjust="spacing" textLength="141" x="122" y="19.457">Mesures individuelles (7)</text><text fill="#000000" font-family="sans-serif" font-size="12" font-weight="bold" lengthAdjust="spacing" textLength="9" x="838" y="19.457">...</text><line style="stroke:#AAAAAA;stroke-width:1.0;stroke-dasharray:1.0,2.0;" x1="6" x2="855" y1="28.5938" y2="28.5938"/><text fill="#000000" font-family="sans-serif" font-size="12" lengthAdjust="spacing" textLength="128" x="7" y="46.5508">Crit&#232;re de classement :</text><rect fill="#EEEEEE" height="18.0938" style="stroke:#000000;stroke-width:1.0;" width="175" x="137" y="34.0938"/><text fill="#000000" font-family="sans-serif" font-size="12" lengthAdjust="spacing" textLength="114" x="139" y="48.5508">Longueur totale (cm)</text><line style="stroke:#000000;stroke-width:1.0;" x1="301" x2="301" y1="34.0938" y2="52.1875"/><polygon fill="#000000" points="304,40.0938,310,40.0938,307,47.1875" style="stroke:#000000;stroke-width:1.0;"/><path d="M10,60.2813 C9.45,60.2813 9,60.7313 9,61.2813 L8,61.2813 C7.45,61.2813 7,61.7313 7,62.2813 L14,62.2813 C14,61.7313 13.55,61.2813 13,61.2813 L12,61.2813 C12,60.7313 11.55,60.2813 11,60.2813 L10,60.2813 M8,63.2813 L8,68.0913 C8,68.2013 8.08,68.2813 8.19,68.2813 L12.82,68.2813 C12.93,68.2813 13.01,68.2013 13.01,68.0913 L13.01,63.2813 L12.01,63.2813 L12.01,66.7813 C12.01,67.0613 11.79,67.2813 11.51,67.2813 C11.23,67.2813 11.01,67.0613 11.01,66.7813 L11.01,63.2813 L10.01,63.2813 L10.01,66.7813 C10.01,67.0613 9.79,67.2813 9.51,67.2813 C9.23,67.2813 9.01,67.0613 9.01,66.7813 L9.01,63.2813 L8.01,63.2813 " fill="#000000" style="stroke:;stroke-width:0.0;stroke-dasharray:;"/><text fill="#000000" font-family="sans-serif" font-size="12" lengthAdjust="spacing" textLength="3" x="16" y="68.6445">&#160;</text><path d="M20.75,60.2813 C20.34,60.2813 20,60.6213 20,61.0313 L20,66.5313 C20,66.9413 20.34,67.2813 20.75,67.2813 L27.25,67.2813 C27.66,67.2813 28,66.9413 28,66.5313 L28,61.0313 C28,60.6213 27.66,60.2813 27.25,60.2813 L20.75,60.2813 M21,61.2813 L22,61.2813 L22,62.2813 L21,62.2813 L21,61.2813 M23,61.2813 L27,61.2813 L27,62.2813 L23,62.2813 L23,61.2813 M21,63.2813 L22,63.2813 L22,64.2813 L21,64.2813 L21,63.2813 M23,63.2813 L27,63.2813 L27,64.2813 L23,64.2813 L23,63.2813 M21,65.2813 L22,65.2813 L22,66.2813 L21,66.2813 L21,65.2813 M23,65.2813 L27,65.2813 L27,66.2813 L23,66.2813 L23,65.2813 " fill="#808080" style="stroke:;stroke-width:0.0;stroke-dasharray:;"/><text fill="#000000" font-family="sans-serif" font-size="12" lengthAdjust="spacing" textLength="3" x="29" y="68.6445">&#160;</text><path d="M33.34,60.2813 A0.5,0.5 0 0 0 33,60.7813 L33,67.7813 A0.5,0.5 0 0 0 33.5,68.2813 L40.5,68.2813 A0.5,0.5 0 0 0 41,67.7813 L41,60.7813 A0.5,0.5 0 0 0 40.5,60.2813 L33.5,60.2813 A0.5,0.5 0 0 0 33.41,60.2813 A0.5,0.5 0 0 0 33.35,60.2813 M34.5,61.2813 C34.78,61.2813 35,61.5013 35,61.7813 C35,62.0613 34.78,62.2813 34.5,62.2813 C34.22,62.2813 34,62.0613 34,61.7813 C34,61.5013 34.22,61.2813 34.5,61.2813 M36.5,61.2813 L39.5,61.2813 C39.78,61.2813 40,61.5013 40,61.7813 C40,62.0613 39.78,62.2813 39.5,62.2813 L36.5,62.2813 C36.22,62.2813 36,62.0613 36,61.7813 C36,61.5013 36.22,61.2813 36.5,61.2813 M34,63.2813 L40,63.2813 L40,67.2813 L34,67.2813 L34,63.2813 " fill="#000000" style="stroke:;stroke-width:0.0;stroke-dasharray:;"/><text fill="#000000" font-family="sans-serif" font-size="12" lengthAdjust="spacing" textLength="3" x="28" y="87.7383">.</text><rect fill="none" height="10" style="stroke:#000000;stroke-width:1.5;" width="10" x="10" y="77.8281"/><text fill="#000000" font-family="sans-serif" font-size="12" lengthAdjust="spacing" textLength="10" x="33" y="87.7383">.#</text><text fill="#000000" font-family="sans-serif" font-size="12" font-weight="bold" lengthAdjust="spacing" textLength="111" x="45" y="87.7383">Esp&#232;ce scientifique</text><text fill="#000000" font-family="sans-serif" font-size="12" font-weight="bold" lengthAdjust="spacing" textLength="29" x="193" y="87.7383">Sexe</text><text fill="#000000" font-family="sans-serif" font-size="12" font-weight="bold" lengthAdjust="spacing" textLength="118" x="261" y="87.7383">Longueur totale (cm)</text><text fill="#000000" font-family="sans-serif" font-size="12" font-weight="bold" lengthAdjust="spacing" textLength="101" x="381" y="87.7383">Nombre d'individu</text><text fill="#000000" font-family="sans-serif" font-size="12" font-weight="bold" lengthAdjust="spacing" textLength="127" x="484" y="87.7383">Poids calcul&#233; RTP (kg)</text><text fill="#000000" font-family="sans-serif" font-size="12" lengthAdjust="spacing" textLength="3" x="28" y="104.832">.</text><rect fill="none" height="10" style="stroke:#000000;stroke-width:1.5;" width="10" x="10" y="94.9219"/><text fill="#000000" font-family="sans-serif" font-size="12" lengthAdjust="spacing" textLength="7" x="33" y="104.832">7</text><text fill="#000000" font-family="sans-serif" font-size="12" lengthAdjust="spacing" textLength="145" x="45" y="104.832">ANK - Lophius budegassa</text><text fill="#000000" font-family="sans-serif" font-size="12" lengthAdjust="spacing" textLength="26" x="193" y="104.832">Male</text><text fill="#000000" font-family="sans-serif" font-size="12" lengthAdjust="spacing" textLength="14" x="261" y="104.832">46</text><text fill="#000000" font-family="sans-serif" font-size="12" lengthAdjust="spacing" textLength="7" x="381" y="104.832">1</text><text fill="#0000FF" font-family="sans-serif" font-size="12" lengthAdjust="spacing" textLength="38" x="484" y="104.832">1.0173</text><text fill="#000000" font-family="sans-serif" font-size="12" lengthAdjust="spacing" textLength="3" x="28" y="121.9258">.</text><rect fill="none" height="10" style="stroke:#000000;stroke-width:1.5;" width="10" x="10" y="112.0156"/><text fill="#000000" font-family="sans-serif" font-size="12" lengthAdjust="spacing" textLength="7" x="33" y="121.9258">6</text><text fill="#000000" font-family="sans-serif" font-size="12" lengthAdjust="spacing" textLength="145" x="45" y="121.9258">ANK - Lophius budegassa</text><text fill="#000000" font-family="sans-serif" font-size="12" lengthAdjust="spacing" textLength="26" x="193" y="121.9258">Male</text><text fill="#000000" font-family="sans-serif" font-size="12" lengthAdjust="spacing" textLength="14" x="261" y="121.9258">41</text><text fill="#000000" font-family="sans-serif" font-size="12" lengthAdjust="spacing" textLength="7" x="381" y="121.9258">2</text><text fill="#0000FF" font-family="sans-serif" font-size="12" lengthAdjust="spacing" textLength="31" x="484" y="121.9258">0.965</text><text fill="#000000" font-family="sans-serif" font-size="12" lengthAdjust="spacing" textLength="3" x="28" y="139.0195">.</text><rect fill="none" height="10" style="stroke:#000000;stroke-width:1.5;" width="10" x="10" y="129.1094"/><polygon fill="#000000" points="11,132.5625,14,135.5625,21,126.5625,14,133.5625" style="stroke:#000000;stroke-width:1.5;"/><text fill="#000000" font-family="sans-serif" font-size="12" lengthAdjust="spacing" textLength="7" x="33" y="139.0195">5</text><text fill="#000000" font-family="sans-serif" font-size="12" lengthAdjust="spacing" textLength="146" x="45" y="139.0195">MON - Lophius piscatorius</text><text fill="#000000" font-family="sans-serif" font-size="12" lengthAdjust="spacing" textLength="26" x="193" y="139.0195">Male</text><text fill="#000000" font-family="sans-serif" font-size="12" lengthAdjust="spacing" textLength="14" x="261" y="139.0195">20</text><text fill="#000000" font-family="sans-serif" font-size="12" lengthAdjust="spacing" textLength="7" x="381" y="139.0195">1</text><text fill="#0000FF" font-family="sans-serif" font-size="12" lengthAdjust="spacing" textLength="38" x="484" y="139.0195">0.5874</text><text fill="#000000" font-family="sans-serif" font-size="12" lengthAdjust="spacing" textLength="3" x="28" y="156.1133">.</text><rect fill="none" height="10" style="stroke:#000000;stroke-width:1.5;" width="10" x="10" y="146.2031"/><text fill="#000000" font-family="sans-serif" font-size="12" lengthAdjust="spacing" textLength="7" x="33" y="156.1133">4</text><text fill="#000000" font-family="sans-serif" font-size="12" lengthAdjust="spacing" textLength="145" x="45" y="156.1133">ANK - Lophius budegassa</text><text fill="#000000" font-family="sans-serif" font-size="12" lengthAdjust="spacing" textLength="45" x="193" y="156.1133">Femelle</text><text fill="#000000" font-family="sans-serif" font-size="12" lengthAdjust="spacing" textLength="14" x="261" y="156.1133">20</text><text fill="#000000" font-family="sans-serif" font-size="12" lengthAdjust="spacing" textLength="7" x="381" y="156.1133">1</text><text fill="#0000FF" font-family="sans-serif" font-size="12" lengthAdjust="spacing" textLength="24" x="484" y="156.1133">0.55</text><text fill="#000000" font-family="sans-serif" font-size="12" lengthAdjust="spacing" textLength="3" x="28" y="173.207">.</text><rect fill="none" height="10" style="stroke:#000000;stroke-width:1.5;" width="10" x="10" y="163.2969"/><text fill="#000000" font-family="sans-serif" font-size="12" lengthAdjust="spacing" textLength="7" x="33" y="173.207">3</text><text fill="#000000" font-family="sans-serif" font-size="12" lengthAdjust="spacing" textLength="146" x="45" y="173.207">MON - Lophius piscatorius</text><text fill="#000000" font-family="sans-serif" font-size="12" lengthAdjust="spacing" textLength="66" x="193" y="173.207">Indetermine</text><text fill="#000000" font-family="sans-serif" font-size="12" lengthAdjust="spacing" textLength="14" x="261" y="173.207">15</text><text fill="#000000" font-family="sans-serif" font-size="12" lengthAdjust="spacing" textLength="7" x="381" y="173.207">1</text><text fill="#0000FF" font-family="sans-serif" font-size="12" lengthAdjust="spacing" textLength="38" x="484" y="173.207">0.4789</text><text fill="#000000" font-family="sans-serif" font-size="12" lengthAdjust="spacing" textLength="3" x="28" y="190.3008">.</text><rect fill="none" height="10" style="stroke:#000000;stroke-width:1.5;" width="10" x="10" y="180.3906"/><text fill="#000000" font-family="sans-serif" font-size="12" lengthAdjust="spacing" textLength="7" x="33" y="190.3008">2</text><text fill="#000000" font-family="sans-serif" font-size="12" lengthAdjust="spacing" textLength="146" x="45" y="190.3008">MON - Lophius piscatorius</text><text fill="#000000" font-family="sans-serif" font-size="12" lengthAdjust="spacing" textLength="66" x="193" y="190.3008">Indetermine</text><text fill="#000000" font-family="sans-serif" font-size="12" lengthAdjust="spacing" textLength="14" x="261" y="190.3008">11</text><text fill="#000000" font-family="sans-serif" font-size="12" lengthAdjust="spacing" textLength="7" x="381" y="190.3008">1</text><text fill="#0000FF" font-family="sans-serif" font-size="12" lengthAdjust="spacing" textLength="38" x="484" y="190.3008">0.3578</text><text fill="#000000" font-family="sans-serif" font-size="12" lengthAdjust="spacing" textLength="3" x="28" y="207.3945">.</text><rect fill="none" height="10" style="stroke:#000000;stroke-width:1.5;" width="10" x="10" y="197.4844"/><text fill="#000000" font-family="sans-serif" font-size="12" lengthAdjust="spacing" textLength="7" x="33" y="207.3945">1</text><text fill="#000000" font-family="sans-serif" font-size="12" lengthAdjust="spacing" textLength="145" x="45" y="207.3945">ANK - Lophius budegassa</text><text fill="#000000" font-family="sans-serif" font-size="12" lengthAdjust="spacing" textLength="66" x="193" y="207.3945">Indetermine</text><text fill="#000000" font-family="sans-serif" font-size="12" lengthAdjust="spacing" textLength="14" x="261" y="207.3945">10</text><text fill="#000000" font-family="sans-serif" font-size="12" lengthAdjust="spacing" textLength="7" x="381" y="207.3945">3</text><text fill="#0000FF" font-family="sans-serif" font-size="12" lengthAdjust="spacing" textLength="31" x="484" y="207.3945">0.254</text><line style="stroke:#000000;stroke-width:1.0;" x1="7" x2="32" y1="74.2813" y2="74.2813"/><line style="stroke:#000000;stroke-width:1.0;" x1="32" x2="44" y1="74.2813" y2="74.2813"/><line style="stroke:#000000;stroke-width:1.0;" x1="44" x2="192" y1="74.2813" y2="74.2813"/><line style="stroke:#000000;stroke-width:1.0;" x1="192" x2="260" y1="74.2813" y2="74.2813"/><line style="stroke:#000000;stroke-width:1.0;" x1="260" x2="380" y1="74.2813" y2="74.2813"/><line style="stroke:#000000;stroke-width:1.0;" x1="380" x2="483" y1="74.2813" y2="74.2813"/><line style="stroke:#000000;stroke-width:1.0;" x1="483" x2="612" y1="74.2813" y2="74.2813"/><line style="stroke:#000000;stroke-width:1.0;" x1="7" x2="32" y1="125.5625" y2="125.5625"/><line style="stroke:#000000;stroke-width:1.0;" x1="32" x2="44" y1="125.5625" y2="125.5625"/><line style="stroke:#000000;stroke-width:1.0;" x1="44" x2="192" y1="125.5625" y2="125.5625"/><line style="stroke:#000000;stroke-width:1.0;" x1="192" x2="260" y1="125.5625" y2="125.5625"/><line style="stroke:#000000;stroke-width:1.0;" x1="260" x2="380" y1="125.5625" y2="125.5625"/><line style="stroke:#000000;stroke-width:1.0;" x1="380" x2="483" y1="125.5625" y2="125.5625"/><line style="stroke:#000000;stroke-width:1.0;" x1="483" x2="612" y1="125.5625" y2="125.5625"/><line style="stroke:#000000;stroke-width:1.0;" x1="7" x2="32" y1="176.8438" y2="176.8438"/><line style="stroke:#000000;stroke-width:1.0;" x1="32" x2="44" y1="176.8438" y2="176.8438"/><line style="stroke:#000000;stroke-width:1.0;" x1="44" x2="192" y1="176.8438" y2="176.8438"/><line style="stroke:#000000;stroke-width:1.0;" x1="192" x2="260" y1="176.8438" y2="176.8438"/><line style="stroke:#000000;stroke-width:1.0;" x1="260" x2="380" y1="176.8438" y2="176.8438"/><line style="stroke:#000000;stroke-width:1.0;" x1="380" x2="483" y1="176.8438" y2="176.8438"/><line style="stroke:#000000;stroke-width:1.0;" x1="483" x2="612" y1="176.8438" y2="176.8438"/><line style="stroke:#000000;stroke-width:1.0;" x1="7" x2="32" y1="91.375" y2="91.375"/><line style="stroke:#000000;stroke-width:1.0;" x1="32" x2="44" y1="91.375" y2="91.375"/><line style="stroke:#000000;stroke-width:1.0;" x1="44" x2="192" y1="91.375" y2="91.375"/><line style="stroke:#000000;stroke-width:1.0;" x1="192" x2="260" y1="91.375" y2="91.375"/><line style="stroke:#000000;stroke-width:1.0;" x1="260" x2="380" y1="91.375" y2="91.375"/><line style="stroke:#000000;stroke-width:1.0;" x1="380" x2="483" y1="91.375" y2="91.375"/><line style="stroke:#000000;stroke-width:1.0;" x1="483" x2="612" y1="91.375" y2="91.375"/><line style="stroke:#000000;stroke-width:1.0;" x1="7" x2="32" y1="142.6563" y2="142.6563"/><line style="stroke:#000000;stroke-width:1.0;" x1="32" x2="44" y1="142.6563" y2="142.6563"/><line style="stroke:#000000;stroke-width:1.0;" x1="44" x2="192" y1="142.6563" y2="142.6563"/><line style="stroke:#000000;stroke-width:1.0;" x1="192" x2="260" y1="142.6563" y2="142.6563"/><line style="stroke:#000000;stroke-width:1.0;" x1="260" x2="380" y1="142.6563" y2="142.6563"/><line style="stroke:#000000;stroke-width:1.0;" x1="380" x2="483" y1="142.6563" y2="142.6563"/><line style="stroke:#000000;stroke-width:1.0;" x1="483" x2="612" y1="142.6563" y2="142.6563"/><line style="stroke:#000000;stroke-width:1.0;" x1="7" x2="32" y1="193.9375" y2="193.9375"/><line style="stroke:#000000;stroke-width:1.0;" x1="32" x2="44" y1="193.9375" y2="193.9375"/><line style="stroke:#000000;stroke-width:1.0;" x1="44" x2="192" y1="193.9375" y2="193.9375"/><line style="stroke:#000000;stroke-width:1.0;" x1="192" x2="260" y1="193.9375" y2="193.9375"/><line style="stroke:#000000;stroke-width:1.0;" x1="260" x2="380" y1="193.9375" y2="193.9375"/><line style="stroke:#000000;stroke-width:1.0;" x1="380" x2="483" y1="193.9375" y2="193.9375"/><line style="stroke:#000000;stroke-width:1.0;" x1="483" x2="612" y1="193.9375" y2="193.9375"/><line style="stroke:#000000;stroke-width:1.0;" x1="7" x2="32" y1="108.4688" y2="108.4688"/><line style="stroke:#000000;stroke-width:1.0;" x1="32" x2="44" y1="108.4688" y2="108.4688"/><line style="stroke:#000000;stroke-width:1.0;" x1="44" x2="192" y1="108.4688" y2="108.4688"/><line style="stroke:#000000;stroke-width:1.0;" x1="192" x2="260" y1="108.4688" y2="108.4688"/><line style="stroke:#000000;stroke-width:1.0;" x1="260" x2="380" y1="108.4688" y2="108.4688"/><line style="stroke:#000000;stroke-width:1.0;" x1="380" x2="483" y1="108.4688" y2="108.4688"/><line style="stroke:#000000;stroke-width:1.0;" x1="483" x2="612" y1="108.4688" y2="108.4688"/><line style="stroke:#000000;stroke-width:1.0;" x1="7" x2="32" y1="159.75" y2="159.75"/><line style="stroke:#000000;stroke-width:1.0;" x1="32" x2="44" y1="159.75" y2="159.75"/><line style="stroke:#000000;stroke-width:1.0;" x1="44" x2="192" y1="159.75" y2="159.75"/><line style="stroke:#000000;stroke-width:1.0;" x1="192" x2="260" y1="159.75" y2="159.75"/><line style="stroke:#000000;stroke-width:1.0;" x1="260" x2="380" y1="159.75" y2="159.75"/><line style="stroke:#000000;stroke-width:1.0;" x1="380" x2="483" y1="159.75" y2="159.75"/><line style="stroke:#000000;stroke-width:1.0;" x1="483" x2="612" y1="159.75" y2="159.75"/><line style="stroke:#000000;stroke-width:1.0;" x1="7" x2="32" y1="211.0313" y2="211.0313"/><line style="stroke:#000000;stroke-width:1.0;" x1="32" x2="44" y1="211.0313" y2="211.0313"/><line style="stroke:#000000;stroke-width:1.0;" x1="44" x2="192" y1="211.0313" y2="211.0313"/><line style="stroke:#000000;stroke-width:1.0;" x1="192" x2="260" y1="211.0313" y2="211.0313"/><line style="stroke:#000000;stroke-width:1.0;" x1="260" x2="380" y1="211.0313" y2="211.0313"/><line style="stroke:#000000;stroke-width:1.0;" x1="380" x2="483" y1="211.0313" y2="211.0313"/><line style="stroke:#000000;stroke-width:1.0;" x1="483" x2="612" y1="211.0313" y2="211.0313"/><line style="stroke:#000000;stroke-width:1.0;" x1="7" x2="7" y1="74.2813" y2="91.375"/><line style="stroke:#000000;stroke-width:1.0;" x1="32" x2="32" y1="74.2813" y2="91.375"/><line style="stroke:#000000;stroke-width:1.0;" x1="44" x2="44" y1="74.2813" y2="91.375"/><line style="stroke:#000000;stroke-width:1.0;" x1="192" x2="192" y1="74.2813" y2="91.375"/><line style="stroke:#000000;stroke-width:1.0;" x1="260" x2="260" y1="74.2813" y2="91.375"/><line style="stroke:#000000;stroke-width:1.0;" x1="380" x2="380" y1="74.2813" y2="91.375"/><line style="stroke:#000000;stroke-width:1.0;" x1="483" x2="483" y1="74.2813" y2="91.375"/><line style="stroke:#000000;stroke-width:1.0;" x1="612" x2="612" y1="74.2813" y2="91.375"/><line style="stroke:#000000;stroke-width:1.0;" x1="7" x2="7" y1="125.5625" y2="142.6563"/><line style="stroke:#000000;stroke-width:1.0;" x1="32" x2="32" y1="125.5625" y2="142.6563"/><line style="stroke:#000000;stroke-width:1.0;" x1="44" x2="44" y1="125.5625" y2="142.6563"/><line style="stroke:#000000;stroke-width:1.0;" x1="192" x2="192" y1="125.5625" y2="142.6563"/><line style="stroke:#000000;stroke-width:1.0;" x1="260" x2="260" y1="125.5625" y2="142.6563"/><line style="stroke:#000000;stroke-width:1.0;" x1="380" x2="380" y1="125.5625" y2="142.6563"/><line style="stroke:#000000;stroke-width:1.0;" x1="483" x2="483" y1="125.5625" y2="142.6563"/><line style="stroke:#000000;stroke-width:1.0;" x1="612" x2="612" y1="125.5625" y2="142.6563"/><line style="stroke:#000000;stroke-width:1.0;" x1="7" x2="7" y1="176.8438" y2="193.9375"/><line style="stroke:#000000;stroke-width:1.0;" x1="32" x2="32" y1="176.8438" y2="193.9375"/><line style="stroke:#000000;stroke-width:1.0;" x1="44" x2="44" y1="176.8438" y2="193.9375"/><line style="stroke:#000000;stroke-width:1.0;" x1="192" x2="192" y1="176.8438" y2="193.9375"/><line style="stroke:#000000;stroke-width:1.0;" x1="260" x2="260" y1="176.8438" y2="193.9375"/><line style="stroke:#000000;stroke-width:1.0;" x1="380" x2="380" y1="176.8438" y2="193.9375"/><line style="stroke:#000000;stroke-width:1.0;" x1="483" x2="483" y1="176.8438" y2="193.9375"/><line style="stroke:#000000;stroke-width:1.0;" x1="612" x2="612" y1="176.8438" y2="193.9375"/><line style="stroke:#000000;stroke-width:1.0;" x1="7" x2="7" y1="91.375" y2="108.4688"/><line style="stroke:#000000;stroke-width:1.0;" x1="32" x2="32" y1="91.375" y2="108.4688"/><line style="stroke:#000000;stroke-width:1.0;" x1="44" x2="44" y1="91.375" y2="108.4688"/><line style="stroke:#000000;stroke-width:1.0;" x1="192" x2="192" y1="91.375" y2="108.4688"/><line style="stroke:#000000;stroke-width:1.0;" x1="260" x2="260" y1="91.375" y2="108.4688"/><line style="stroke:#000000;stroke-width:1.0;" x1="380" x2="380" y1="91.375" y2="108.4688"/><line style="stroke:#000000;stroke-width:1.0;" x1="483" x2="483" y1="91.375" y2="108.4688"/><line style="stroke:#000000;stroke-width:1.0;" x1="612" x2="612" y1="91.375" y2="108.4688"/><line style="stroke:#000000;stroke-width:1.0;" x1="7" x2="7" y1="142.6563" y2="159.75"/><line style="stroke:#000000;stroke-width:1.0;" x1="32" x2="32" y1="142.6563" y2="159.75"/><line style="stroke:#000000;stroke-width:1.0;" x1="44" x2="44" y1="142.6563" y2="159.75"/><line style="stroke:#000000;stroke-width:1.0;" x1="192" x2="192" y1="142.6563" y2="159.75"/><line style="stroke:#000000;stroke-width:1.0;" x1="260" x2="260" y1="142.6563" y2="159.75"/><line style="stroke:#000000;stroke-width:1.0;" x1="380" x2="380" y1="142.6563" y2="159.75"/><line style="stroke:#000000;stroke-width:1.0;" x1="483" x2="483" y1="142.6563" y2="159.75"/><line style="stroke:#000000;stroke-width:1.0;" x1="612" x2="612" y1="142.6563" y2="159.75"/><line style="stroke:#000000;stroke-width:1.0;" x1="7" x2="7" y1="193.9375" y2="211.0313"/><line style="stroke:#000000;stroke-width:1.0;" x1="32" x2="32" y1="193.9375" y2="211.0313"/><line style="stroke:#000000;stroke-width:1.0;" x1="44" x2="44" y1="193.9375" y2="211.0313"/><line style="stroke:#000000;stroke-width:1.0;" x1="192" x2="192" y1="193.9375" y2="211.0313"/><line style="stroke:#000000;stroke-width:1.0;" x1="260" x2="260" y1="193.9375" y2="211.0313"/><line style="stroke:#000000;stroke-width:1.0;" x1="380" x2="380" y1="193.9375" y2="211.0313"/><line style="stroke:#000000;stroke-width:1.0;" x1="483" x2="483" y1="193.9375" y2="211.0313"/><line style="stroke:#000000;stroke-width:1.0;" x1="612" x2="612" y1="193.9375" y2="211.0313"/><line style="stroke:#000000;stroke-width:1.0;" x1="7" x2="7" y1="108.4688" y2="125.5625"/><line style="stroke:#000000;stroke-width:1.0;" x1="32" x2="32" y1="108.4688" y2="125.5625"/><line style="stroke:#000000;stroke-width:1.0;" x1="44" x2="44" y1="108.4688" y2="125.5625"/><line style="stroke:#000000;stroke-width:1.0;" x1="192" x2="192" y1="108.4688" y2="125.5625"/><line style="stroke:#000000;stroke-width:1.0;" x1="260" x2="260" y1="108.4688" y2="125.5625"/><line style="stroke:#000000;stroke-width:1.0;" x1="380" x2="380" y1="108.4688" y2="125.5625"/><line style="stroke:#000000;stroke-width:1.0;" x1="483" x2="483" y1="108.4688" y2="125.5625"/><line style="stroke:#000000;stroke-width:1.0;" x1="612" x2="612" y1="108.4688" y2="125.5625"/><line style="stroke:#000000;stroke-width:1.0;" x1="7" x2="7" y1="159.75" y2="176.8438"/><line style="stroke:#000000;stroke-width:1.0;" x1="32" x2="32" y1="159.75" y2="176.8438"/><line style="stroke:#000000;stroke-width:1.0;" x1="44" x2="44" y1="159.75" y2="176.8438"/><line style="stroke:#000000;stroke-width:1.0;" x1="192" x2="192" y1="159.75" y2="176.8438"/><line style="stroke:#000000;stroke-width:1.0;" x1="260" x2="260" y1="159.75" y2="176.8438"/><line style="stroke:#000000;stroke-width:1.0;" x1="380" x2="380" y1="159.75" y2="176.8438"/><line style="stroke:#000000;stroke-width:1.0;" x1="483" x2="483" y1="159.75" y2="176.8438"/><line style="stroke:#000000;stroke-width:1.0;" x1="612" x2="612" y1="159.75" y2="176.8438"/><text fill="#000000" font-family="sans-serif" font-size="12" font-weight="bold" lengthAdjust="spacing" textLength="78" x="622" y="89.7383">Mensurations</text><line style="stroke:#AAAAAA;stroke-width:1.0;" x1="616" x2="852" y1="98.875" y2="98.875"/><text fill="#000000" font-family="sans-serif" font-size="12" lengthAdjust="spacing" textLength="116" x="622" y="116.832">Esp&#232;ce scientifique *</text><rect fill="#EEEEEE" height="18.0938" style="stroke:#000000;stroke-width:1.0;" width="167" x="622" y="123.4688"/><text fill="#000000" font-family="sans-serif" font-size="12" lengthAdjust="spacing" textLength="109" x="624" y="137.9258">Lophius piscatorius</text><line style="stroke:#000000;stroke-width:1.0;" x1="778" x2="778" y1="123.4688" y2="141.5625"/><polygon fill="#000000" points="781,129.4688,787,129.4688,784,136.5625" style="stroke:#000000;stroke-width:1.0;"/><text fill="#000000" font-family="sans-serif" font-size="12" lengthAdjust="spacing" textLength="28" x="817" y="135.9258">Figer</text><rect fill="none" height="10" style="stroke:#000000;stroke-width:1.5;" width="10" x="799" y="126.0156"/><text fill="#000000" font-family="sans-serif" font-size="12" lengthAdjust="spacing" textLength="27" x="622" y="159.0195">Sexe</text><rect fill="#EEEEEE" height="18.0938" style="stroke:#000000;stroke-width:1.0;" width="71" x="622" y="165.6563"/><text fill="#000000" font-family="sans-serif" font-size="12" lengthAdjust="spacing" textLength="45" x="624" y="180.1133">Femelle</text><line style="stroke:#000000;stroke-width:1.0;" x1="682" x2="682" y1="165.6563" y2="183.75"/><polygon fill="#000000" points="685,171.6563,691,171.6563,688,178.75" style="stroke:#000000;stroke-width:1.0;"/><text fill="#000000" font-family="sans-serif" font-size="12" lengthAdjust="spacing" textLength="114" x="622" y="201.207">Longueur totale (cm)</text><text fill="#000000" font-family="sans-serif" font-size="12" lengthAdjust="spacing" textLength="14" x="625" y="220.3008">12</text><line style="stroke:#000000;stroke-width:1.0;" x1="623" x2="682" y1="222.9375" y2="222.9375"/><line style="stroke:#000000;stroke-width:1.0;" x1="623" x2="623" y1="219.9375" y2="221.9375"/><line style="stroke:#000000;stroke-width:1.0;" x1="682" x2="682" y1="219.9375" y2="221.9375"/><text fill="#000000" font-family="sans-serif" font-size="12" lengthAdjust="spacing" textLength="107" x="622" y="241.3945">Nombre d'individu *</text><text fill="#000000" font-family="sans-serif" font-size="12" lengthAdjust="spacing" textLength="7" x="625" y="260.4883">1</text><line style="stroke:#000000;stroke-width:1.0;" x1="623" x2="674" y1="263.125" y2="263.125"/><line style="stroke:#000000;stroke-width:1.0;" x1="623" x2="623" y1="260.125" y2="262.125"/><line style="stroke:#000000;stroke-width:1.0;" x1="674" x2="674" y1="260.125" y2="262.125"/><text fill="#000000" font-family="sans-serif" font-size="12" font-style="italic" lengthAdjust="spacing" textLength="125" x="622" y="281.582">Poids calcul&#233; RTP (kg)</text><text fill="#0000FF" font-family="sans-serif" font-size="12" lengthAdjust="spacing" textLength="45" x="625" y="300.6758">0.01335</text><line style="stroke:#000000;stroke-width:1.0;" x1="623" x2="690" y1="303.3125" y2="303.3125"/><line style="stroke:#000000;stroke-width:1.0;" x1="623" x2="623" y1="300.3125" y2="302.3125"/><line style="stroke:#000000;stroke-width:1.0;" x1="690" x2="690" y1="300.3125" y2="302.3125"/><rect fill="#EEEEEE" height="19.0938" rx="5" ry="5" style="stroke:#000000;stroke-width:2.5;" width="228" x="619.5" y="328.9063"/><text fill="#000000" font-family="sans-serif" font-size="12" lengthAdjust="spacing" textLength="38" x="714.5" y="343.3633">Ajouter</text><line style="stroke:#000000;stroke-width:1.0;" x1="615" x2="852" y1="75.2813" y2="75.2813"/><line style="stroke:#000000;stroke-width:1.0;" x1="615" x2="852" y1="352.5" y2="352.5"/><line style="stroke:#000000;stroke-width:1.0;" x1="615" x2="615" y1="75.2813" y2="94.375"/><line style="stroke:#000000;stroke-width:1.0;" x1="852" x2="852" y1="75.2813" y2="94.375"/><line style="stroke:#000000;stroke-width:1.0;" x1="615" x2="615" y1="286.2188" y2="307.3125"/><line style="stroke:#000000;stroke-width:1.0;" x1="852" x2="852" y1="286.2188" y2="307.3125"/><line style="stroke:#000000;stroke-width:1.0;" x1="615" x2="615" y1="205.8438" y2="226.9375"/><line style="stroke:#000000;stroke-width:1.0;" x1="852" x2="852" y1="205.8438" y2="226.9375"/><line style="stroke:#000000;stroke-width:1.0;" x1="615" x2="615" y1="121.4688" y2="144.5625"/><line style="stroke:#000000;stroke-width:1.0;" x1="852" x2="852" y1="121.4688" y2="144.5625"/><line style="stroke:#000000;stroke-width:1.0;" x1="615" x2="615" y1="267.125" y2="286.2188"/><line style="stroke:#000000;stroke-width:1.0;" x1="852" x2="852" y1="267.125" y2="286.2188"/><line style="stroke:#000000;stroke-width:1.0;" x1="615" x2="615" y1="186.75" y2="205.8438"/><line style="stroke:#000000;stroke-width:1.0;" x1="852" x2="852" y1="186.75" y2="205.8438"/><line style="stroke:#000000;stroke-width:1.0;" x1="615" x2="615" y1="102.375" y2="121.4688"/><line style="stroke:#000000;stroke-width:1.0;" x1="852" x2="852" y1="102.375" y2="121.4688"/><line style="stroke:#000000;stroke-width:1.0;" x1="615" x2="615" y1="324.4063" y2="352.5"/><line style="stroke:#000000;stroke-width:1.0;" x1="852" x2="852" y1="324.4063" y2="352.5"/><line style="stroke:#000000;stroke-width:1.0;" x1="615" x2="615" y1="246.0313" y2="267.125"/><line style="stroke:#000000;stroke-width:1.0;" x1="852" x2="852" y1="246.0313" y2="267.125"/><line style="stroke:#000000;stroke-width:1.0;" x1="615" x2="615" y1="163.6563" y2="186.75"/><line style="stroke:#000000;stroke-width:1.0;" x1="852" x2="852" y1="163.6563" y2="186.75"/><line style="stroke:#000000;stroke-width:1.0;" x1="615" x2="615" y1="94.375" y2="102.375"/><line style="stroke:#000000;stroke-width:1.0;" x1="852" x2="852" y1="94.375" y2="102.375"/><line style="stroke:#000000;stroke-width:1.0;" x1="615" x2="615" y1="307.3125" y2="324.4063"/><line style="stroke:#000000;stroke-width:1.0;" x1="852" x2="852" y1="307.3125" y2="324.4063"/><line style="stroke:#000000;stroke-width:1.0;" x1="615" x2="615" y1="226.9375" y2="246.0313"/><line style="stroke:#000000;stroke-width:1.0;" x1="852" x2="852" y1="226.9375" y2="246.0313"/><line style="stroke:#000000;stroke-width:1.0;" x1="615" x2="615" y1="144.5625" y2="163.6563"/><line style="stroke:#000000;stroke-width:1.0;" x1="852" x2="852" y1="144.5625" y2="163.6563"/><rect fill="#EEEEEE" height="19.0938" rx="5" ry="5" style="stroke:#000000;stroke-width:2.5;" width="60" x="9.5" y="360"/><text fill="#000000" font-family="sans-serif" font-size="12" lengthAdjust="spacing" textLength="42" x="18.5" y="374.457">Annuler</text><rect fill="#EEEEEE" height="19.0938" rx="5" ry="5" style="stroke:#000000;stroke-width:2.5;" width="76" x="76.5" y="360"/><text fill="#000000" font-family="sans-serif" font-size="12" lengthAdjust="spacing" textLength="52" x="88.5" y="374.457">Appliquer</text><line style="stroke:#000000;stroke-width:1.0;" x1="5" x2="855" y1="5" y2="5"/><line style="stroke:#000000;stroke-width:1.0;" x1="5" x2="855" y1="383.5938" y2="383.5938"/><line style="stroke:#000000;stroke-width:1.0;" x1="5" x2="5" y1="5" y2="24.0938"/><line style="stroke:#000000;stroke-width:1.0;" x1="855" x2="855" y1="24.0938" y2="32.0938"/><line style="stroke:#000000;stroke-width:1.0;" x1="855" x2="855" y1="5" y2="24.0938"/><line style="stroke:#000000;stroke-width:1.0;" x1="5" x2="5" y1="355.5" y2="383.5938"/><line style="stroke:#000000;stroke-width:1.0;" x1="5" x2="5" y1="72.2813" y2="355.5"/><line style="stroke:#000000;stroke-width:1.0;" x1="855" x2="855" y1="355.5" y2="383.5938"/><line style="stroke:#000000;stroke-width:1.0;" x1="5" x2="5" y1="55.1875" y2="72.2813"/><line style="stroke:#000000;stroke-width:1.0;" x1="855" x2="855" y1="72.2813" y2="355.5"/><line style="stroke:#000000;stroke-width:1.0;" x1="5" x2="5" y1="32.0938" y2="55.1875"/><line style="stroke:#000000;stroke-width:1.0;" x1="855" x2="855" y1="55.1875" y2="72.2813"/><line style="stroke:#000000;stroke-width:1.0;" x1="5" x2="5" y1="24.0938" y2="32.0938"/><line style="stroke:#000000;stroke-width:1.0;" x1="855" x2="855" y1="32.0938" y2="55.1875"/></g></svg>