<?xml version="1.0" encoding="us-ascii" standalone="no"?><svg xmlns="http://www.w3.org/2000/svg" xmlns:xlink="http://www.w3.org/1999/xlink" contentStyleType="text/css" height="286px" preserveAspectRatio="none" style="width:969px;height:286px;background:#FFFFFF;" version="1.1" viewBox="0 0 969 286" width="969px" zoomAndPan="magnify"><defs><filter height="1" id="bjasyqe9vkyr20" width="1" x="0" y="0"><feFlood flood-color="#0000FF" result="flood"/><feComposite in="SourceGraphic" in2="flood" operator="over"/></filter><filter height="1" id="bjasyqe9vkyr21" width="1" x="0" y="0"><feFlood flood-color="#D3D3D3" result="flood"/><feComposite in="SourceGraphic" in2="flood" operator="over"/></filter></defs><g><text fill="#000000" font-family="sans-serif" font-size="12" lengthAdjust="spacing" textLength="358" x="7" y="19.9492">Lot MNZ - Baudroie - Cat.1 - Cat. UE0 - Etat : Frais - Pr&#233;s. : Vivant -</text><text fill="#000000" font-family="sans-serif" font-size="12" font-weight="bold" lengthAdjust="spacing" textLength="78" x="368" y="19.9492">Mensurations</text><text fill="#000000" font-family="sans-serif" font-size="12" font-weight="bold" lengthAdjust="spacing" textLength="9" x="806" y="19.9492">...</text><line style="stroke:#AAAAAA;stroke-width:1.0;stroke-dasharray:1.0,2.0;" x1="6" x2="962" y1="29.4609" y2="29.4609"/><path d="M10,38.9219 C9.45,38.9219 9,39.3719 9,39.9219 L8,39.9219 C7.45,39.9219 7,40.3719 7,40.9219 L14,40.9219 C14,40.3719 13.55,39.9219 13,39.9219 L12,39.9219 C12,39.3719 11.55,38.9219 11,38.9219 L10,38.9219 M8,41.9219 L8,46.7319 C8,46.8419 8.08,46.9219 8.19,46.9219 L12.82,46.9219 C12.93,46.9219 13.01,46.8419 13.01,46.7319 L13.01,41.9219 L12.01,41.9219 L12.01,45.4219 C12.01,45.7019 11.79,45.9219 11.51,45.9219 C11.23,45.9219 11.01,45.7019 11.01,45.4219 L11.01,41.9219 L10.01,41.9219 L10.01,45.4219 C10.01,45.7019 9.79,45.9219 9.51,45.9219 C9.23,45.9219 9.01,45.7019 9.01,45.4219 L9.01,41.9219 L8.01,41.9219 " fill="#808080" style="stroke:;stroke-width:0.0;stroke-dasharray:;"/><text fill="#808080" font-family="sans-serif" font-size="12" lengthAdjust="spacing" textLength="3" x="16" y="46.9102">&#160;</text><path d="M23,38.9219 L23,41.9219 L20,41.9219 L20,43.9219 L23,43.9219 L23,46.9219 L25,46.9219 L25,43.9219 L28,43.9219 L28,41.9219 L25,41.9219 L25,38.9219 L23,38.9219 " fill="#808080" style="stroke:;stroke-width:0.0;stroke-dasharray:;"/><text fill="#000000" font-family="sans-serif" font-size="12" font-weight="bold" lengthAdjust="spacing" textLength="111" x="9" y="65.8711">Lophius budegassa</text><text fill="#FFFFFF" filter="url(#bjasyqe9vkyr20)" font-family="sans-serif" font-size="9" font-weight="bold" lengthAdjust="spacing" textLength="16" x="123" y="66.624">(24)</text><line style="stroke:#000000;stroke-width:1.0;" x1="7" x2="7" y1="52.9219" y2="68.8828"/><line style="stroke:#000000;stroke-width:1.0;" x1="7" x2="142" y1="52.9219" y2="52.9219"/><line style="stroke:#000000;stroke-width:1.0;" x1="142" x2="142" y1="52.9219" y2="68.8828"/><line style="stroke:#000000;stroke-width:1.0;" x1="142" x2="152" y1="68.8828" y2="68.8828"/><text fill="#000000" font-family="sans-serif" font-size="12" lengthAdjust="spacing" textLength="109" x="154" y="65.8711">Lophius piscatorius</text><text fill="#FFFFFF" filter="url(#bjasyqe9vkyr20)" font-family="sans-serif" font-size="9" lengthAdjust="spacing" textLength="16" x="266" y="66.624">(11)</text><line style="stroke:#000000;stroke-width:1.0;" x1="152" x2="152" y1="52.9219" y2="68.8828"/><line style="stroke:#000000;stroke-width:1.0;" x1="152" x2="285" y1="52.9219" y2="52.9219"/><line style="stroke:#000000;stroke-width:1.0;" x1="285" x2="285" y1="52.9219" y2="68.8828"/><line style="stroke:#000000;stroke-width:1.0;" x1="285" x2="295" y1="68.8828" y2="68.8828"/><text fill="#000000" font-family="sans-serif" font-size="12" lengthAdjust="spacing" textLength="3" x="28" y="84.832">.</text><rect fill="none" height="10" style="stroke:#000000;stroke-width:1.5;" width="10" x="10" y="74.8633"/><text fill="#000000" font-family="sans-serif" font-size="12" lengthAdjust="spacing" textLength="10" x="33" y="84.832">.#</text><text fill="#000000" font-family="sans-serif" font-size="12" font-weight="bold" lengthAdjust="spacing" textLength="89" x="45" y="84.832">Longueur totale</text><text fill="#000000" font-family="sans-serif" font-size="9" font-weight="bold" lengthAdjust="spacing" textLength="19" x="137" y="85.585">(cm)</text><text fill="#000000" font-family="sans-serif" font-size="12" font-weight="bold" lengthAdjust="spacing" textLength="27" x="158" y="84.832">Male</text><text fill="#000000" font-family="sans-serif" font-size="9" font-weight="bold" lengthAdjust="spacing" textLength="48" x="188" y="85.585">(Nb. Indiv)</text><text fill="#000000" font-family="sans-serif" font-size="12" font-weight="bold" lengthAdjust="spacing" textLength="44" x="238" y="84.832">Femelle</text><text fill="#000000" font-family="sans-serif" font-size="9" font-weight="bold" lengthAdjust="spacing" textLength="48" x="285" y="85.585">(Nb. Indiv)</text><text fill="#000000" font-family="sans-serif" font-size="12" font-weight="bold" lengthAdjust="spacing" textLength="68" x="338" y="84.832">Indetermine</text><text fill="#000000" font-family="sans-serif" font-size="9" font-weight="bold" lengthAdjust="spacing" textLength="48" x="409" y="85.585">(Nb. Indiv)</text><text fill="#000000" font-family="sans-serif" font-size="12" lengthAdjust="spacing" textLength="3" x="28" y="102.793">.</text><rect fill="none" height="10" style="stroke:#000000;stroke-width:1.5;" width="10" x="10" y="92.8242"/><text fill="#000000" font-family="sans-serif" font-size="12" lengthAdjust="spacing" textLength="7" x="33" y="102.793">1</text><text fill="#000000" font-family="sans-serif" font-size="12" lengthAdjust="spacing" textLength="14" x="45" y="102.793">11</text><text fill="#000000" font-family="sans-serif" font-size="12" lengthAdjust="spacing" textLength="7" x="158" y="102.793">1</text><text fill="#000000" font-family="sans-serif" font-size="12" lengthAdjust="spacing" textLength="7" x="238" y="102.793">2</text><text fill="#000000" font-family="sans-serif" font-size="12" lengthAdjust="spacing" textLength="3" x="28" y="120.7539">.</text><rect fill="none" height="10" style="stroke:#000000;stroke-width:1.5;" width="10" x="10" y="110.7852"/><text fill="#000000" font-family="sans-serif" font-size="12" lengthAdjust="spacing" textLength="7" x="33" y="120.7539">2</text><text fill="#000000" font-family="sans-serif" font-size="12" lengthAdjust="spacing" textLength="14" x="45" y="120.7539">12</text><text fill="#000000" font-family="sans-serif" font-size="12" lengthAdjust="spacing" textLength="7" x="158" y="120.7539">1</text><text fill="#000000" font-family="sans-serif" font-size="12" lengthAdjust="spacing" textLength="7" x="238" y="120.7539">2</text><text fill="#000000" font-family="sans-serif" font-size="12" lengthAdjust="spacing" textLength="7" x="335" y="120.7539">2</text><text fill="#000000" font-family="sans-serif" font-size="12" lengthAdjust="spacing" textLength="3" x="28" y="138.7148">.</text><rect fill="none" height="10" style="stroke:#000000;stroke-width:1.5;" width="10" x="10" y="128.7461"/><polygon fill="#000000" points="11,131.7656,14,134.7656,21,125.7656,14,132.7656" style="stroke:#000000;stroke-width:1.5;"/><text fill="#000000" font-family="sans-serif" font-size="12" lengthAdjust="spacing" textLength="7" x="33" y="138.7148">3</text><text fill="#000000" font-family="sans-serif" font-size="12" lengthAdjust="spacing" textLength="14" x="45" y="138.7148">13</text><text fill="#000000" font-family="sans-serif" font-size="12" lengthAdjust="spacing" textLength="7" x="158" y="138.7148">1</text><text fill="#000000" font-family="sans-serif" font-size="12" lengthAdjust="spacing" textLength="7" x="238" y="138.7148">1</text><text fill="#000000" font-family="sans-serif" font-size="12" lengthAdjust="spacing" textLength="3" x="28" y="156.6758">.</text><rect fill="none" height="10" style="stroke:#000000;stroke-width:1.5;" width="10" x="10" y="146.707"/><text fill="#000000" font-family="sans-serif" font-size="12" lengthAdjust="spacing" textLength="7" x="33" y="156.6758">4</text><text fill="#000000" font-family="sans-serif" font-size="12" lengthAdjust="spacing" textLength="14" x="45" y="156.6758">14</text><text fill="#000000" font-family="sans-serif" font-size="12" lengthAdjust="spacing" textLength="7" x="158" y="156.6758">1</text><text fill="#000000" font-family="sans-serif" font-size="12" lengthAdjust="spacing" textLength="7" x="238" y="156.6758">1</text><text fill="#000000" font-family="sans-serif" font-size="12" lengthAdjust="spacing" textLength="7" x="335" y="156.6758">2</text><text fill="#000000" font-family="sans-serif" font-size="12" lengthAdjust="spacing" textLength="3" x="28" y="174.6367">.</text><rect fill="none" height="10" style="stroke:#000000;stroke-width:1.5;" width="10" x="10" y="164.668"/><text fill="#000000" font-family="sans-serif" font-size="12" lengthAdjust="spacing" textLength="7" x="33" y="174.6367">5</text><text fill="#000000" font-family="sans-serif" font-size="12" lengthAdjust="spacing" textLength="14" x="45" y="174.6367">15</text><text fill="#000000" font-family="sans-serif" font-size="12" lengthAdjust="spacing" textLength="7" x="158" y="174.6367">1</text><text fill="#000000" font-family="sans-serif" font-size="12" lengthAdjust="spacing" textLength="7" x="238" y="174.6367">2</text><text fill="#000000" font-family="sans-serif" font-size="12" lengthAdjust="spacing" textLength="3" x="28" y="192.5977">.</text><rect fill="none" height="10" style="stroke:#000000;stroke-width:1.5;" width="10" x="10" y="182.6289"/><text fill="#000000" font-family="sans-serif" font-size="12" lengthAdjust="spacing" textLength="7" x="33" y="192.5977">6</text><text fill="#000000" font-family="sans-serif" font-size="12" lengthAdjust="spacing" textLength="14" x="45" y="192.5977">16</text><text fill="#000000" font-family="sans-serif" font-size="12" lengthAdjust="spacing" textLength="7" x="158" y="192.5977">1</text><text fill="#000000" font-family="sans-serif" font-size="12" lengthAdjust="spacing" textLength="7" x="238" y="192.5977">1</text><text fill="#000000" font-family="sans-serif" font-size="12" lengthAdjust="spacing" textLength="7" x="335" y="192.5977">3</text><text fill="#000000" font-family="sans-serif" font-size="12" lengthAdjust="spacing" textLength="3" x="28" y="210.5586">.</text><rect fill="none" height="10" style="stroke:#000000;stroke-width:1.5;" width="10" x="10" y="200.5898"/><text fill="#000000" font-family="sans-serif" font-size="12" lengthAdjust="spacing" textLength="7" x="33" y="210.5586">7</text><text fill="#000000" font-family="sans-serif" font-size="12" lengthAdjust="spacing" textLength="14" x="45" y="210.5586">17</text><text fill="#000000" font-family="sans-serif" font-size="12" lengthAdjust="spacing" textLength="7" x="158" y="210.5586">1</text><text fill="#000000" font-family="sans-serif" font-size="12" lengthAdjust="spacing" textLength="7" x="238" y="210.5586">1</text><text fill="#000000" font-family="sans-serif" font-size="12" font-weight="bold" lengthAdjust="spacing" textLength="7" x="158" y="228.5195">7</text><text fill="#000000" font-family="sans-serif" font-size="12" font-weight="bold" lengthAdjust="spacing" textLength="14" x="238" y="228.5195">10</text><text fill="#000000" font-family="sans-serif" font-size="12" font-weight="bold" lengthAdjust="spacing" textLength="7" x="335" y="228.5195">7</text><line style="stroke:#000000;stroke-width:1.0;" x1="7" x2="32" y1="70.8828" y2="70.8828"/><line style="stroke:#000000;stroke-width:1.0;" x1="32" x2="44" y1="70.8828" y2="70.8828"/><line style="stroke:#000000;stroke-width:1.0;" x1="44" x2="157" y1="70.8828" y2="70.8828"/><line style="stroke:#000000;stroke-width:1.0;" x1="157" x2="237" y1="70.8828" y2="70.8828"/><line style="stroke:#000000;stroke-width:1.0;" x1="237" x2="334" y1="70.8828" y2="70.8828"/><line style="stroke:#000000;stroke-width:1.0;" x1="334" x2="458" y1="70.8828" y2="70.8828"/><line style="stroke:#000000;stroke-width:1.0;" x1="458" x2="463" y1="70.8828" y2="70.8828"/><line style="stroke:#000000;stroke-width:1.0;" x1="7" x2="32" y1="124.7656" y2="124.7656"/><line style="stroke:#000000;stroke-width:1.0;" x1="32" x2="44" y1="124.7656" y2="124.7656"/><line style="stroke:#000000;stroke-width:1.0;" x1="44" x2="157" y1="124.7656" y2="124.7656"/><line style="stroke:#000000;stroke-width:1.0;" x1="157" x2="237" y1="124.7656" y2="124.7656"/><line style="stroke:#000000;stroke-width:1.0;" x1="237" x2="334" y1="124.7656" y2="124.7656"/><line style="stroke:#000000;stroke-width:1.0;" x1="334" x2="458" y1="124.7656" y2="124.7656"/><line style="stroke:#000000;stroke-width:1.0;" x1="458" x2="463" y1="124.7656" y2="124.7656"/><line style="stroke:#000000;stroke-width:1.0;" x1="7" x2="32" y1="178.6484" y2="178.6484"/><line style="stroke:#000000;stroke-width:1.0;" x1="32" x2="44" y1="178.6484" y2="178.6484"/><line style="stroke:#000000;stroke-width:1.0;" x1="44" x2="157" y1="178.6484" y2="178.6484"/><line style="stroke:#000000;stroke-width:1.0;" x1="157" x2="237" y1="178.6484" y2="178.6484"/><line style="stroke:#000000;stroke-width:1.0;" x1="237" x2="334" y1="178.6484" y2="178.6484"/><line style="stroke:#000000;stroke-width:1.0;" x1="334" x2="458" y1="178.6484" y2="178.6484"/><line style="stroke:#000000;stroke-width:1.0;" x1="458" x2="463" y1="178.6484" y2="178.6484"/><line style="stroke:#000000;stroke-width:1.0;" x1="7" x2="32" y1="232.5313" y2="232.5313"/><line style="stroke:#000000;stroke-width:1.0;" x1="32" x2="44" y1="232.5313" y2="232.5313"/><line style="stroke:#000000;stroke-width:1.0;" x1="44" x2="157" y1="232.5313" y2="232.5313"/><line style="stroke:#000000;stroke-width:1.0;" x1="157" x2="237" y1="232.5313" y2="232.5313"/><line style="stroke:#000000;stroke-width:1.0;" x1="237" x2="334" y1="232.5313" y2="232.5313"/><line style="stroke:#000000;stroke-width:1.0;" x1="334" x2="458" y1="232.5313" y2="232.5313"/><line style="stroke:#000000;stroke-width:1.0;" x1="458" x2="463" y1="232.5313" y2="232.5313"/><line style="stroke:#000000;stroke-width:1.0;" x1="7" x2="32" y1="88.8438" y2="88.8438"/><line style="stroke:#000000;stroke-width:1.0;" x1="32" x2="44" y1="88.8438" y2="88.8438"/><line style="stroke:#000000;stroke-width:1.0;" x1="44" x2="157" y1="88.8438" y2="88.8438"/><line style="stroke:#000000;stroke-width:1.0;" x1="157" x2="237" y1="88.8438" y2="88.8438"/><line style="stroke:#000000;stroke-width:1.0;" x1="237" x2="334" y1="88.8438" y2="88.8438"/><line style="stroke:#000000;stroke-width:1.0;" x1="334" x2="458" y1="88.8438" y2="88.8438"/><line style="stroke:#000000;stroke-width:1.0;" x1="7" x2="32" y1="142.7266" y2="142.7266"/><line style="stroke:#000000;stroke-width:1.0;" x1="32" x2="44" y1="142.7266" y2="142.7266"/><line style="stroke:#000000;stroke-width:1.0;" x1="44" x2="157" y1="142.7266" y2="142.7266"/><line style="stroke:#000000;stroke-width:1.0;" x1="157" x2="237" y1="142.7266" y2="142.7266"/><line style="stroke:#000000;stroke-width:1.0;" x1="237" x2="334" y1="142.7266" y2="142.7266"/><line style="stroke:#000000;stroke-width:1.0;" x1="334" x2="458" y1="142.7266" y2="142.7266"/><line style="stroke:#000000;stroke-width:1.0;" x1="458" x2="463" y1="142.7266" y2="142.7266"/><line style="stroke:#000000;stroke-width:1.0;" x1="7" x2="32" y1="196.6094" y2="196.6094"/><line style="stroke:#000000;stroke-width:1.0;" x1="32" x2="44" y1="196.6094" y2="196.6094"/><line style="stroke:#000000;stroke-width:1.0;" x1="44" x2="157" y1="196.6094" y2="196.6094"/><line style="stroke:#000000;stroke-width:1.0;" x1="157" x2="237" y1="196.6094" y2="196.6094"/><line style="stroke:#000000;stroke-width:1.0;" x1="237" x2="334" y1="196.6094" y2="196.6094"/><line style="stroke:#000000;stroke-width:1.0;" x1="334" x2="458" y1="196.6094" y2="196.6094"/><line style="stroke:#000000;stroke-width:1.0;" x1="458" x2="463" y1="196.6094" y2="196.6094"/><line style="stroke:#000000;stroke-width:1.0;" x1="7" x2="32" y1="106.8047" y2="106.8047"/><line style="stroke:#000000;stroke-width:1.0;" x1="32" x2="44" y1="106.8047" y2="106.8047"/><line style="stroke:#000000;stroke-width:1.0;" x1="44" x2="157" y1="106.8047" y2="106.8047"/><line style="stroke:#000000;stroke-width:1.0;" x1="157" x2="237" y1="106.8047" y2="106.8047"/><line style="stroke:#000000;stroke-width:1.0;" x1="237" x2="334" y1="106.8047" y2="106.8047"/><line style="stroke:#000000;stroke-width:1.0;" x1="334" x2="458" y1="106.8047" y2="106.8047"/><line style="stroke:#000000;stroke-width:1.0;" x1="458" x2="463" y1="106.8047" y2="106.8047"/><line style="stroke:#000000;stroke-width:1.0;" x1="7" x2="32" y1="160.6875" y2="160.6875"/><line style="stroke:#000000;stroke-width:1.0;" x1="32" x2="44" y1="160.6875" y2="160.6875"/><line style="stroke:#000000;stroke-width:1.0;" x1="44" x2="157" y1="160.6875" y2="160.6875"/><line style="stroke:#000000;stroke-width:1.0;" x1="157" x2="237" y1="160.6875" y2="160.6875"/><line style="stroke:#000000;stroke-width:1.0;" x1="237" x2="334" y1="160.6875" y2="160.6875"/><line style="stroke:#000000;stroke-width:1.0;" x1="334" x2="458" y1="160.6875" y2="160.6875"/><line style="stroke:#000000;stroke-width:1.0;" x1="458" x2="463" y1="160.6875" y2="160.6875"/><line style="stroke:#000000;stroke-width:1.0;" x1="7" x2="32" y1="214.5703" y2="214.5703"/><line style="stroke:#000000;stroke-width:1.0;" x1="32" x2="44" y1="214.5703" y2="214.5703"/><line style="stroke:#000000;stroke-width:1.0;" x1="44" x2="157" y1="214.5703" y2="214.5703"/><line style="stroke:#000000;stroke-width:1.0;" x1="157" x2="237" y1="214.5703" y2="214.5703"/><line style="stroke:#000000;stroke-width:1.0;" x1="237" x2="334" y1="214.5703" y2="214.5703"/><line style="stroke:#000000;stroke-width:1.0;" x1="334" x2="458" y1="214.5703" y2="214.5703"/><line style="stroke:#000000;stroke-width:1.0;" x1="458" x2="463" y1="214.5703" y2="214.5703"/><line style="stroke:#000000;stroke-width:1.0;" x1="7" x2="7" y1="70.8828" y2="88.8438"/><line style="stroke:#000000;stroke-width:1.0;" x1="32" x2="32" y1="70.8828" y2="88.8438"/><line style="stroke:#000000;stroke-width:1.0;" x1="44" x2="44" y1="70.8828" y2="88.8438"/><line style="stroke:#000000;stroke-width:1.0;" x1="157" x2="157" y1="70.8828" y2="88.8438"/><line style="stroke:#000000;stroke-width:1.0;" x1="237" x2="237" y1="70.8828" y2="88.8438"/><line style="stroke:#000000;stroke-width:1.0;" x1="334" x2="334" y1="70.8828" y2="88.8438"/><line style="stroke:#000000;stroke-width:1.0;" x1="458" x2="458" y1="70.8828" y2="88.8438"/><line style="stroke:#000000;stroke-width:1.0;" x1="463" x2="463" y1="70.8828" y2="88.8438"/><line style="stroke:#000000;stroke-width:1.0;" x1="7" x2="7" y1="124.7656" y2="142.7266"/><line style="stroke:#000000;stroke-width:1.0;" x1="32" x2="32" y1="124.7656" y2="142.7266"/><line style="stroke:#000000;stroke-width:1.0;" x1="44" x2="44" y1="124.7656" y2="142.7266"/><line style="stroke:#000000;stroke-width:1.0;" x1="157" x2="157" y1="124.7656" y2="142.7266"/><line style="stroke:#000000;stroke-width:1.0;" x1="237" x2="237" y1="124.7656" y2="142.7266"/><line style="stroke:#000000;stroke-width:1.0;" x1="334" x2="334" y1="124.7656" y2="142.7266"/><line style="stroke:#000000;stroke-width:1.0;" x1="458" x2="458" y1="124.7656" y2="142.7266"/><line style="stroke:#000000;stroke-width:1.0;" x1="463" x2="463" y1="124.7656" y2="142.7266"/><line style="stroke:#000000;stroke-width:1.0;" x1="7" x2="7" y1="178.6484" y2="196.6094"/><line style="stroke:#000000;stroke-width:1.0;" x1="32" x2="32" y1="178.6484" y2="196.6094"/><line style="stroke:#000000;stroke-width:1.0;" x1="44" x2="44" y1="178.6484" y2="196.6094"/><line style="stroke:#000000;stroke-width:1.0;" x1="157" x2="157" y1="178.6484" y2="196.6094"/><line style="stroke:#000000;stroke-width:1.0;" x1="237" x2="237" y1="178.6484" y2="196.6094"/><line style="stroke:#000000;stroke-width:1.0;" x1="334" x2="334" y1="178.6484" y2="196.6094"/><line style="stroke:#000000;stroke-width:1.0;" x1="458" x2="458" y1="178.6484" y2="196.6094"/><line style="stroke:#000000;stroke-width:1.0;" x1="463" x2="463" y1="178.6484" y2="196.6094"/><line style="stroke:#000000;stroke-width:1.0;" x1="7" x2="7" y1="88.8438" y2="106.8047"/><line style="stroke:#000000;stroke-width:1.0;" x1="32" x2="32" y1="88.8438" y2="106.8047"/><line style="stroke:#000000;stroke-width:1.0;" x1="44" x2="44" y1="88.8438" y2="106.8047"/><line style="stroke:#000000;stroke-width:1.0;" x1="157" x2="157" y1="88.8438" y2="106.8047"/><line style="stroke:#000000;stroke-width:1.0;" x1="237" x2="237" y1="88.8438" y2="106.8047"/><line style="stroke:#000000;stroke-width:1.0;" x1="334" x2="334" y1="88.8438" y2="106.8047"/><line style="stroke:#000000;stroke-width:1.0;" x1="458" x2="458" y1="88.8438" y2="106.8047"/><line style="stroke:#000000;stroke-width:1.0;" x1="463" x2="463" y1="88.8438" y2="106.8047"/><line style="stroke:#000000;stroke-width:1.0;" x1="7" x2="7" y1="142.7266" y2="160.6875"/><line style="stroke:#000000;stroke-width:1.0;" x1="32" x2="32" y1="142.7266" y2="160.6875"/><line style="stroke:#000000;stroke-width:1.0;" x1="44" x2="44" y1="142.7266" y2="160.6875"/><line style="stroke:#000000;stroke-width:1.0;" x1="157" x2="157" y1="142.7266" y2="160.6875"/><line style="stroke:#000000;stroke-width:1.0;" x1="237" x2="237" y1="142.7266" y2="160.6875"/><line style="stroke:#000000;stroke-width:1.0;" x1="334" x2="334" y1="142.7266" y2="160.6875"/><line style="stroke:#000000;stroke-width:1.0;" x1="458" x2="458" y1="142.7266" y2="160.6875"/><line style="stroke:#000000;stroke-width:1.0;" x1="463" x2="463" y1="142.7266" y2="160.6875"/><line style="stroke:#000000;stroke-width:1.0;" x1="7" x2="7" y1="196.6094" y2="214.5703"/><line style="stroke:#000000;stroke-width:1.0;" x1="32" x2="32" y1="196.6094" y2="214.5703"/><line style="stroke:#000000;stroke-width:1.0;" x1="44" x2="44" y1="196.6094" y2="214.5703"/><line style="stroke:#000000;stroke-width:1.0;" x1="157" x2="157" y1="196.6094" y2="214.5703"/><line style="stroke:#000000;stroke-width:1.0;" x1="237" x2="237" y1="196.6094" y2="214.5703"/><line style="stroke:#000000;stroke-width:1.0;" x1="334" x2="334" y1="196.6094" y2="214.5703"/><line style="stroke:#000000;stroke-width:1.0;" x1="458" x2="458" y1="196.6094" y2="214.5703"/><line style="stroke:#000000;stroke-width:1.0;" x1="463" x2="463" y1="196.6094" y2="214.5703"/><line style="stroke:#000000;stroke-width:1.0;" x1="7" x2="7" y1="106.8047" y2="124.7656"/><line style="stroke:#000000;stroke-width:1.0;" x1="32" x2="32" y1="106.8047" y2="124.7656"/><line style="stroke:#000000;stroke-width:1.0;" x1="44" x2="44" y1="106.8047" y2="124.7656"/><line style="stroke:#000000;stroke-width:1.0;" x1="157" x2="157" y1="106.8047" y2="124.7656"/><line style="stroke:#000000;stroke-width:1.0;" x1="237" x2="237" y1="106.8047" y2="124.7656"/><line style="stroke:#000000;stroke-width:1.0;" x1="334" x2="334" y1="106.8047" y2="124.7656"/><line style="stroke:#000000;stroke-width:1.0;" x1="458" x2="458" y1="106.8047" y2="124.7656"/><line style="stroke:#000000;stroke-width:1.0;" x1="463" x2="463" y1="106.8047" y2="124.7656"/><line style="stroke:#000000;stroke-width:1.0;" x1="7" x2="7" y1="160.6875" y2="178.6484"/><line style="stroke:#000000;stroke-width:1.0;" x1="32" x2="32" y1="160.6875" y2="178.6484"/><line style="stroke:#000000;stroke-width:1.0;" x1="44" x2="44" y1="160.6875" y2="178.6484"/><line style="stroke:#000000;stroke-width:1.0;" x1="157" x2="157" y1="160.6875" y2="178.6484"/><line style="stroke:#000000;stroke-width:1.0;" x1="237" x2="237" y1="160.6875" y2="178.6484"/><line style="stroke:#000000;stroke-width:1.0;" x1="334" x2="334" y1="160.6875" y2="178.6484"/><line style="stroke:#000000;stroke-width:1.0;" x1="458" x2="458" y1="160.6875" y2="178.6484"/><line style="stroke:#000000;stroke-width:1.0;" x1="463" x2="463" y1="160.6875" y2="178.6484"/><line style="stroke:#000000;stroke-width:1.0;" x1="7" x2="7" y1="214.5703" y2="232.5313"/><line style="stroke:#000000;stroke-width:1.0;" x1="32" x2="32" y1="214.5703" y2="232.5313"/><line style="stroke:#000000;stroke-width:1.0;" x1="44" x2="44" y1="214.5703" y2="232.5313"/><line style="stroke:#000000;stroke-width:1.0;" x1="157" x2="157" y1="214.5703" y2="232.5313"/><line style="stroke:#000000;stroke-width:1.0;" x1="237" x2="237" y1="214.5703" y2="232.5313"/><line style="stroke:#000000;stroke-width:1.0;" x1="334" x2="334" y1="214.5703" y2="232.5313"/><line style="stroke:#000000;stroke-width:1.0;" x1="458" x2="458" y1="214.5703" y2="232.5313"/><line style="stroke:#000000;stroke-width:1.0;" x1="463" x2="463" y1="214.5703" y2="232.5313"/><text fill="#000000" font-family="sans-serif" font-size="12" lengthAdjust="spacing" textLength="64" x="487" y="85.832">Mode rafale</text><ellipse cx="474" cy="80.8633" fill="none" rx="5" ry="5" style="stroke:#000000;stroke-width:1.5;"/><text fill="#000000" font-family="sans-serif" font-size="12" font-weight="bold" lengthAdjust="spacing" textLength="99" x="583" y="85.832">Intervalle de taille</text><ellipse cx="570" cy="80.8633" fill="none" rx="5" ry="5" style="stroke:#000000;stroke-width:1.5;"/><ellipse cx="570" cy="80.8633" fill="#000000" rx="2" ry="2" style="stroke:#000000;stroke-width:1.5;"/><line style="stroke:#AAAAAA;stroke-width:1.0;" x1="466" x2="960" y1="95.3438" y2="95.3438"/><text fill="#000000" font-family="sans-serif" font-size="12" lengthAdjust="spacing" textLength="119" x="467" y="113.793">Esp&#232;ce scientifique* :</text><rect fill="#EEEEEE" height="18.9609" style="stroke:#000000;stroke-width:1.0;" width="167" x="628" y="101.8438"/><text fill="#000000" font-family="sans-serif" font-size="12" lengthAdjust="spacing" textLength="109" x="630" y="116.793">Lophius piscatorius</text><line style="stroke:#000000;stroke-width:1.0;" x1="784" x2="784" y1="101.8438" y2="120.8047"/><polygon fill="#000000" points="787,107.8438,793,107.8438,790,115.8047" style="stroke:#000000;stroke-width:1.0;"/><text fill="#0000FF" font-family="sans-serif" font-size="12" font-weight="bold" lengthAdjust="spacing" textLength="7" x="798" y="114.793">Y</text><text fill="#000000" font-family="sans-serif" font-size="12" lengthAdjust="spacing" textLength="128" x="467" y="137.7539">Crit&#232;re de num&#233;rique* :</text><rect fill="#EEEEEE" height="18.9609" style="stroke:#000000;stroke-width:1.0;" width="175" x="628" y="125.8047"/><text fill="#000000" font-family="sans-serif" font-size="12" lengthAdjust="spacing" textLength="111" x="630" y="140.7539">Longueur totale (LT)</text><line style="stroke:#000000;stroke-width:1.0;" x1="792" x2="792" y1="125.8047" y2="144.7656"/><polygon fill="#000000" points="795,131.8047,801,131.8047,798,139.7656" style="stroke:#000000;stroke-width:1.0;"/><text fill="#000000" font-family="sans-serif" font-size="12" lengthAdjust="spacing" textLength="115" x="467" y="161.7148">M&#233;thode de collecte :</text><text fill="#000000" filter="url(#bjasyqe9vkyr21)" font-family="sans-serif" font-size="12" lengthAdjust="spacing" textLength="204" x="627" y="161.7148">Mesure au 1/2 cm par un observateur</text><text fill="#000000" font-family="sans-serif" font-size="12" lengthAdjust="spacing" textLength="56" x="467" y="179.6758">Minimum*</text><text fill="#000000" font-family="sans-serif" font-size="10" lengthAdjust="spacing" textLength="27" x="526" y="180.1777">(cm) :</text><text fill="#000000" font-family="sans-serif" font-size="12" lengthAdjust="spacing" textLength="14" x="630" y="179.6758">11</text><line style="stroke:#000000;stroke-width:1.0;" x1="628" x2="647" y1="182.6875" y2="182.6875"/><line style="stroke:#000000;stroke-width:1.0;" x1="628" x2="628" y1="179.6875" y2="181.6875"/><line style="stroke:#000000;stroke-width:1.0;" x1="647" x2="647" y1="179.6875" y2="181.6875"/><text fill="#000000" font-family="sans-serif" font-size="12" lengthAdjust="spacing" textLength="58" x="467" y="199.6367">Maximum*</text><text fill="#000000" font-family="sans-serif" font-size="10" lengthAdjust="spacing" textLength="24" x="528" y="200.1387">(cm):</text><text fill="#000000" font-family="sans-serif" font-size="12" lengthAdjust="spacing" textLength="14" x="630" y="199.6367">17</text><line style="stroke:#000000;stroke-width:1.0;" x1="628" x2="647" y1="202.6484" y2="202.6484"/><line style="stroke:#000000;stroke-width:1.0;" x1="628" x2="628" y1="199.6484" y2="201.6484"/><line style="stroke:#000000;stroke-width:1.0;" x1="647" x2="647" y1="199.6484" y2="201.6484"/><text fill="#000000" font-family="sans-serif" font-size="12" lengthAdjust="spacing" textLength="128" x="467" y="219.5977">Pr&#233;cision de la mesure</text><text fill="#000000" font-family="sans-serif" font-size="10" lengthAdjust="spacing" textLength="27" x="598" y="220.0996">(cm) :</text><text fill="#000000" filter="url(#bjasyqe9vkyr21)" font-family="sans-serif" font-size="12" lengthAdjust="spacing" textLength="17" x="627" y="219.5977">0.5</text><text fill="#000000" font-family="sans-serif" font-size="12" lengthAdjust="spacing" textLength="102" x="467" y="237.5586">Crit&#232;re secondaire</text><text fill="#000000" font-family="sans-serif" font-size="10" lengthAdjust="spacing" textLength="51" x="572" y="238.0605">(qualitatif):</text><rect fill="#EEEEEE" height="18.9609" style="stroke:#000000;stroke-width:1.0;" width="223" x="628" y="225.6094"/><text fill="#000000" font-family="sans-serif" font-size="12" lengthAdjust="spacing" textLength="146" x="630" y="240.5586">Female, Male, Indetermine</text><line style="stroke:#000000;stroke-width:1.0;" x1="840" x2="840" y1="225.6094" y2="244.5703"/><polygon fill="#000000" points="843,231.6094,849,231.6094,846,239.5703" style="stroke:#000000;stroke-width:1.0;"/><text fill="#000000" font-family="sans-serif" font-size="10" lengthAdjust="spacing" textLength="83" x="874" y="236.4004">Tout s&#233;lectionner</text><rect fill="none" height="10" style="stroke:#000000;stroke-width:1.5;" width="10" x="856" y="227.2598"/><polygon fill="#000000" points="857,231.6094,860,234.6094,867,225.6094,860,232.6094" style="stroke:#000000;stroke-width:1.5;"/><rect fill="#EEEEEE" height="19.9609" rx="5" ry="5" style="stroke:#000000;stroke-width:2.5;" width="100" x="470.5" y="252.0703"/><text fill="#000000" font-family="sans-serif" font-size="12" lengthAdjust="spacing" textLength="52" x="494.5" y="267.0195">Appliquer</text><line style="stroke:#000000;stroke-width:1.0;" x1="465" x2="960" y1="70.8828" y2="70.8828"/><line style="stroke:#000000;stroke-width:1.0;" x1="465" x2="960" y1="277.5313" y2="277.5313"/><line style="stroke:#000000;stroke-width:1.0;" x1="465" x2="465" y1="70.8828" y2="90.8438"/><line style="stroke:#000000;stroke-width:1.0;" x1="960" x2="960" y1="90.8438" y2="98.8438"/><line style="stroke:#000000;stroke-width:1.0;" x1="960" x2="960" y1="70.8828" y2="90.8438"/><line style="stroke:#000000;stroke-width:1.0;" x1="465" x2="465" y1="98.8438" y2="277.5313"/><line style="stroke:#000000;stroke-width:1.0;" x1="465" x2="465" y1="90.8438" y2="98.8438"/><line style="stroke:#000000;stroke-width:1.0;" x1="960" x2="960" y1="98.8438" y2="277.5313"/><line style="stroke:#000000;stroke-width:1.0;" x1="5" x2="962" y1="5" y2="5"/><line style="stroke:#000000;stroke-width:1.0;" x1="5" x2="962" y1="279.5313" y2="279.5313"/><line style="stroke:#000000;stroke-width:1.0;" x1="5" x2="5" y1="5" y2="24.9609"/><line style="stroke:#000000;stroke-width:1.0;" x1="962" x2="962" y1="24.9609" y2="32.9609"/><line style="stroke:#000000;stroke-width:1.0;" x1="962" x2="962" y1="5" y2="24.9609"/><line style="stroke:#000000;stroke-width:1.0;" x1="5" x2="5" y1="50.9219" y2="279.5313"/><line style="stroke:#000000;stroke-width:1.0;" x1="5" x2="5" y1="32.9609" y2="50.9219"/><line style="stroke:#000000;stroke-width:1.0;" x1="962" x2="962" y1="50.9219" y2="279.5313"/><line style="stroke:#000000;stroke-width:1.0;" x1="5" x2="5" y1="24.9609" y2="32.9609"/><line style="stroke:#000000;stroke-width:1.0;" x1="962" x2="962" y1="32.9609" y2="50.9219"/><!--SRC=[tLNhRjCm5FvDdk9ear03BDJfBY8g5L0AOZGmRMCC49FSn6qj4ZluKYvTtuSzHr-CuoGhxKeH_AMANTldE_Tpx4VQK6KqpOm7qxiUm1Jwqa3ywZtim1DgKoKvmsMNce3K__2cryHbpr034JnJb6lS7gdvbGxmu8nFg31uqXvqOYQqLTHmAJHSGb2D_-npZa8G13CCNn3Wr4va9bKqKknRfttRAAh7dHk7HMPrntFnTkE-4z6NnPXR3GERiX7Lca9xA36G9T_3BsDk66Z-dJryq6aFQF8f6cIMTHhXheycN3CNN2VKIENMVyLEY0ypxzPq6-rmlmyV0ypHTkLLNugHPLQ1aOPch9POIsaakL_1udNQgq40BqJA9pvKc6SiPzcVO5KOSSCCKpaNcw7BbXBa8mIS4hSCSK2m370d95m1h8BE7QhboArha1jhWdOTOHUMCKxG2cRF4VPMhRa1sNUq_HKnhPkO0qSuW4tcBFe8wk8xgFv8yzUsmixWqglxsdNs9JJyMAOC51swb2sBWiQvZxml14P_Gbsc46SeTwjLXHl6FtwpqgQT7MzQUzNJnVn7WZMQS2OC7_BFbjt1wwIqSWeNlwdm2-TlrLPbCQFzxsPUBQ-hk9d_KAKVmkRpAxKkSRMw6_rJ_m8M0kBvbHcxQE67IZAMO0VLt5K7PNmqDbL3BxNQ84DQLROan1iGBq06r0Av7qAIGq4LM05oe5sW3UfVAEI2vpQ_irpuf5drMLIgXIr2jXPm-dKJF4Bi5ZbOGDtTd72Djx1p9gEGLrPjKEGq_Rs7pM1lBUQQ9LAabA_h-6nfnl7bu4Eq4fE0zmB6_Xx4vRpS_Ywxs9sh_AVIucP-vRA1xWYc5lcQmWUS7nT5vXAjFbQPhCcpUYvF7Z6Hba-UTvJXK_KcxiE4gJ8y90YROIiWfF6MfN322dSjXCqet8zQBUZsJax10NolyVoe3rfQXIMRScqK7rXdaUyTqWc5OuirdBC8NXTC73vzUNq0FJ7XIeeSQzmxF8j_0VPtTvvmWoeLsW9diVUK3QdD378aCkLY546t8E5UwFKfrYqTeV2XyheI1Qjl-0uV_mG0]--></g></svg>