<?xml version="1.0" encoding="UTF-8" standalone="no"?><svg xmlns="http://www.w3.org/2000/svg" xmlns:xlink="http://www.w3.org/1999/xlink" contentStyleType="text/css" height="304px" preserveAspectRatio="none" style="width:253px;height:304px;background:#FFFFFF;" version="1.1" viewBox="0 0 253 304" width="253px" zoomAndPan="magnify"><defs><filter height="1" id="bvllt1kjppta40" width="1" x="0" y="0"><feFlood flood-color="#DDDDDD" result="flood"/><feComposite in="SourceGraphic" in2="flood" operator="over"/></filter></defs><g><text fill="#808080" font-family="sans-serif" font-size="20" font-weight="bold" lengthAdjust="spacing" textLength="83" x="8" y="29.38">OBSMER</text><text fill="#000000" font-family="sans-serif" font-size="12" lengthAdjust="spacing" textLength="70" x="8" y="50.0681">Observateur</text><line style="stroke:#AAAAAA;stroke-width:1.0;" x1="8" x2="210" y1="95.7723" y2="95.7723"/><text fill="#000000" font-family="sans-serif" font-size="12" lengthAdjust="spacing" textLength="40" x="8" y="113.1004">Accueil</text><text fill="#808080" font-family="sans-serif" font-size="10" lengthAdjust="spacing" textLength="92" x="8" y="147.6505">saisie des données</text><line style="stroke:#AAAAAA;stroke-width:1.0;" x1="8" x2="210" y1="156.0805" y2="156.0805"/><text fill="#000000" filter="url(#bvllt1kjppta40)" font-family="sans-serif" font-size="12" lengthAdjust="spacing" textLength="43" x="18" y="173.4086">Marées</text><text fill="#000000" font-family="sans-serif" font-size="12" lengthAdjust="spacing" textLength="37" x="28" y="189.7527">Engins</text><text fill="#000000" font-family="sans-serif" font-size="12" lengthAdjust="spacing" textLength="62" x="28" y="206.0969">Opérations</text><text fill="#000000" font-family="sans-serif" font-size="12" lengthAdjust="spacing" textLength="34" x="38" y="222.441">OP #2</text><text fill="#000000" font-family="sans-serif" font-size="12" lengthAdjust="spacing" textLength="3" x="185" y="222.441">.</text><path d="M200,214.957 C198.9,214.957 198,215.857 198,216.957 C198,218.057 198.9,218.957 200,218.957 C201.1,218.957 202,218.057 202,216.957 C202,215.857 201.1,214.957 200,214.957 M199,219.767 L199,222.957 L200,221.957 L201,222.957 L201,219.767 C200.69,219.877 200.35,219.957 200,219.957 C199.65,219.957 199.31,219.877 199,219.767 " fill="#000000" style="stroke:;stroke-width:0.0;stroke-dasharray:;"/><text fill="#000000" font-family="sans-serif" font-size="12" lengthAdjust="spacing" textLength="51" x="48" y="238.7851">Captures</text><text fill="#000000" font-family="sans-serif" font-size="12" lengthAdjust="spacing" textLength="127" x="48" y="255.1292">Captures accidentelles</text><rect fill="none" height="2" style="stroke:#888888;stroke-width:1.0;" width="2" x="11" y="167.7526"/><line style="stroke:#888888;stroke-width:1.0;" x1="12" x2="12" y1="170.7526" y2="185.0967"/><line style="stroke:#888888;stroke-width:1.0;" x1="12" x2="20" y1="185.0967" y2="185.0967"/><rect fill="none" height="2" style="stroke:#888888;stroke-width:1.0;" width="2" x="21" y="200.4408"/><line style="stroke:#888888;stroke-width:1.0;" x1="12" x2="12" y1="170.7526" y2="201.4408"/><line style="stroke:#888888;stroke-width:1.0;" x1="12" x2="20" y1="201.4408" y2="201.4408"/><rect fill="none" height="2" style="stroke:#888888;stroke-width:1.0;" width="2" x="31" y="216.7849"/><line style="stroke:#888888;stroke-width:1.0;" x1="22" x2="22" y1="203.4408" y2="217.7849"/><line style="stroke:#888888;stroke-width:1.0;" x1="22" x2="30" y1="217.7849" y2="217.7849"/><line style="stroke:#888888;stroke-width:1.0;" x1="32" x2="32" y1="219.7849" y2="234.129"/><line style="stroke:#888888;stroke-width:1.0;" x1="32" x2="40" y1="234.129" y2="234.129"/><line style="stroke:#888888;stroke-width:1.0;" x1="32" x2="32" y1="219.7849" y2="250.4732"/><line style="stroke:#888888;stroke-width:1.0;" x1="32" x2="40" y1="250.4732" y2="250.4732"/><text fill="#000000" font-family="sans-serif" font-size="12" lengthAdjust="spacing" textLength="39" x="8" y="273.4733">Sorties</text><line style="stroke:#000000;stroke-width:1.0;" x1="6" x2="246" y1="6" y2="6"/><line style="stroke:#000000;stroke-width:1.0;" x1="6" x2="246" y1="297.3334" y2="297.3334"/><line style="stroke:#000000;stroke-width:1.0;" x1="6" x2="6" y1="6" y2="297.3334"/><line style="stroke:#000000;stroke-width:1.0;" x1="246" x2="246" y1="6" y2="297.3334"/></g></svg>