<?xml version="1.0" encoding="us-ascii" standalone="no"?><svg xmlns="http://www.w3.org/2000/svg" xmlns:xlink="http://www.w3.org/1999/xlink" contentStyleType="text/css" height="323px" preserveAspectRatio="none" style="width:415px;height:323px;background:#FFFFFF;" version="1.1" viewBox="0 0 415 323" width="415px" zoomAndPan="magnify"><defs><filter height="1" id="bjhuhbyklizbh0" width="1" x="0" y="0"><feFlood flood-color="#FF0000" result="flood"/><feComposite in="SourceGraphic" in2="flood" operator="over"/></filter><filter height="1" id="bjhuhbyklizbh1" width="1" x="0" y="0"><feFlood flood-color="#D3D3D3" result="flood"/><feComposite in="SourceGraphic" in2="flood" operator="over"/></filter></defs><g><text fill="#000000" font-family="sans-serif" font-size="12" font-weight="bold" lengthAdjust="spacing" textLength="86" x="6" y="18.9492">MNZ - Baudroie</text><text fill="#FFFFFF" filter="url(#bjhuhbyklizbh0)" font-family="sans-serif" font-size="12" font-style="italic" lengthAdjust="spacing" textLength="184" x="6" y="36.9102">Des mensurations ont &#233;t&#233; saisies.</text><text fill="#FFFFFF" filter="url(#bjhuhbyklizbh0)" font-family="sans-serif" font-size="12" font-style="italic" lengthAdjust="spacing" textLength="206" x="6" y="54.8711">Saisir un d&#233;nombrement les effacera.</text><path d="M10,64.8438 C9.45,64.8438 9,65.2938 9,65.8438 L8,65.8438 C7.45,65.8438 7,66.2938 7,66.8438 L14,66.8438 C14,66.2938 13.55,65.8438 13,65.8438 L12,65.8438 C12,65.2938 11.55,64.8438 11,64.8438 L10,64.8438 M8,67.8438 L8,72.6538 C8,72.7638 8.08,72.8438 8.19,72.8438 L12.82,72.8438 C12.93,72.8438 13.01,72.7638 13.01,72.6538 L13.01,67.8438 L12.01,67.8438 L12.01,71.3438 C12.01,71.6238 11.79,71.8438 11.51,71.8438 C11.23,71.8438 11.01,71.6238 11.01,71.3438 L11.01,67.8438 L10.01,67.8438 L10.01,71.3438 C10.01,71.6238 9.79,71.8438 9.51,71.8438 C9.23,71.8438 9.01,71.6238 9.01,71.3438 L9.01,67.8438 L8.01,67.8438 " fill="#000000" style="stroke:;stroke-width:0.0;stroke-dasharray:;"/><text fill="#000000" font-family="sans-serif" font-size="12" lengthAdjust="spacing" textLength="3" x="16" y="72.832">&#160;</text><path d="M20.75,64.8438 C20.34,64.8438 20,65.1838 20,65.5938 L20,71.0938 C20,71.5038 20.34,71.8438 20.75,71.8438 L27.25,71.8438 C27.66,71.8438 28,71.5038 28,71.0938 L28,65.5938 C28,65.1838 27.66,64.8438 27.25,64.8438 L20.75,64.8438 M21,65.8438 L22,65.8438 L22,66.8438 L21,66.8438 L21,65.8438 M23,65.8438 L27,65.8438 L27,66.8438 L23,66.8438 L23,65.8438 M21,67.8438 L22,67.8438 L22,68.8438 L21,68.8438 L21,67.8438 M23,67.8438 L27,67.8438 L27,68.8438 L23,68.8438 L23,67.8438 M21,69.8438 L22,69.8438 L22,70.8438 L21,70.8438 L21,69.8438 M23,69.8438 L27,69.8438 L27,70.8438 L23,70.8438 L23,69.8438 " fill="#808080" style="stroke:;stroke-width:0.0;stroke-dasharray:;"/><text fill="#000000" font-family="sans-serif" font-size="12" lengthAdjust="spacing" textLength="3" x="29" y="72.832">&#160;</text><path d="M33.34,64.8438 A0.5,0.5 0 0 0 33,65.3438 L33,72.3438 A0.5,0.5 0 0 0 33.5,72.8438 L40.5,72.8438 A0.5,0.5 0 0 0 41,72.3438 L41,65.3438 A0.5,0.5 0 0 0 40.5,64.8438 L33.5,64.8438 A0.5,0.5 0 0 0 33.41,64.8438 A0.5,0.5 0 0 0 33.35,64.8438 M34.5,65.8438 C34.78,65.8438 35,66.0638 35,66.3438 C35,66.6238 34.78,66.8438 34.5,66.8438 C34.22,66.8438 34,66.6238 34,66.3438 C34,66.0638 34.22,65.8438 34.5,65.8438 M36.5,65.8438 L39.5,65.8438 C39.78,65.8438 40,66.0638 40,66.3438 C40,66.6238 39.78,66.8438 39.5,66.8438 L36.5,66.8438 C36.22,66.8438 36,66.6238 36,66.3438 C36,66.0638 36.22,65.8438 36.5,65.8438 M34,67.8438 L40,67.8438 L40,71.8438 L34,71.8438 L34,67.8438 " fill="#000000" style="stroke:;stroke-width:0.0;stroke-dasharray:;"/><text fill="#000000" font-family="sans-serif" font-size="12" font-weight="bold" lengthAdjust="spacing" textLength="268" x="13" y="92.793">S&#233;lection du crit&#232;re de classement num&#233;rique :</text><line style="stroke:#AAAAAA;stroke-width:1.0;" x1="7" x2="408" y1="102.3047" y2="102.3047"/><text fill="#000000" font-family="sans-serif" font-size="12" lengthAdjust="spacing" textLength="114" x="8" y="120.7539">Esp&#232;ce scientifique :</text><rect fill="#EEEEEE" height="18.9609" style="stroke:#000000;stroke-width:1.0;" width="167" x="145" y="108.8047"/><text fill="#000000" font-family="sans-serif" font-size="12" lengthAdjust="spacing" textLength="109" x="147" y="123.7539">Lophius piscatorius</text><line style="stroke:#000000;stroke-width:1.0;" x1="301" x2="301" y1="108.8047" y2="127.7656"/><polygon fill="#000000" points="304,114.8047,310,114.8047,307,122.7656" style="stroke:#000000;stroke-width:1.0;"/><text fill="#000000" font-family="sans-serif" font-size="12" lengthAdjust="spacing" textLength="128" x="8" y="144.7148">Crit&#232;re de classement :</text><rect fill="#EEEEEE" height="18.9609" style="stroke:#000000;stroke-width:1.0;" width="175" x="145" y="132.7656"/><text fill="#000000" font-family="sans-serif" font-size="12" lengthAdjust="spacing" textLength="111" x="147" y="147.7148">Longueur totale (LT)</text><line style="stroke:#000000;stroke-width:1.0;" x1="309" x2="309" y1="132.7656" y2="151.7266"/><polygon fill="#000000" points="312,138.7656,318,138.7656,315,146.7266" style="stroke:#000000;stroke-width:1.0;"/><text fill="#000000" font-family="sans-serif" font-size="12" lengthAdjust="spacing" textLength="53" x="8" y="168.6758">M&#233;thode :</text><text fill="#000000" filter="url(#bjhuhbyklizbh1)" font-family="sans-serif" font-size="12" lengthAdjust="spacing" textLength="204" x="144" y="168.6758">Mesure au 1/2 cm par un observateur</text><text fill="#000000" font-family="sans-serif" font-size="12" lengthAdjust="spacing" textLength="35" x="8" y="186.6367">Unit&#233; :</text><rect fill="#EEEEEE" height="18.9609" style="stroke:#000000;stroke-width:1.0;" width="47" x="145" y="174.6875"/><text fill="#000000" font-family="sans-serif" font-size="12" lengthAdjust="spacing" textLength="17" x="147" y="189.6367">cm</text><line style="stroke:#000000;stroke-width:1.0;" x1="181" x2="181" y1="174.6875" y2="193.6484"/><polygon fill="#000000" points="184,180.6875,190,180.6875,187,188.6484" style="stroke:#000000;stroke-width:1.0;"/><text fill="#000000" font-family="sans-serif" font-size="12" lengthAdjust="spacing" textLength="57" x="8" y="210.5977">Minimum :</text><text fill="#000000" font-family="sans-serif" font-size="12" lengthAdjust="spacing" textLength="14" x="147" y="210.5977">17</text><line style="stroke:#000000;stroke-width:1.0;" x1="145" x2="164" y1="213.6094" y2="213.6094"/><line style="stroke:#000000;stroke-width:1.0;" x1="145" x2="145" y1="210.6094" y2="212.6094"/><line style="stroke:#000000;stroke-width:1.0;" x1="164" x2="164" y1="210.6094" y2="212.6094"/><text fill="#000000" font-family="sans-serif" font-size="12" lengthAdjust="spacing" textLength="59" x="8" y="230.5586">Maximum :</text><text fill="#000000" font-family="sans-serif" font-size="12" lengthAdjust="spacing" textLength="14" x="147" y="230.5586">21</text><line style="stroke:#000000;stroke-width:1.0;" x1="145" x2="164" y1="233.5703" y2="233.5703"/><line style="stroke:#000000;stroke-width:1.0;" x1="145" x2="145" y1="230.5703" y2="232.5703"/><line style="stroke:#000000;stroke-width:1.0;" x1="164" x2="164" y1="230.5703" y2="232.5703"/><text fill="#000000" font-family="sans-serif" font-size="12" lengthAdjust="spacing" textLength="134" x="8" y="250.5195">Pr&#233;cision de la mesure :</text><text fill="#000000" filter="url(#bjhuhbyklizbh1)" font-family="sans-serif" font-size="12" lengthAdjust="spacing" textLength="17" x="144" y="250.5195">0.5</text><text fill="#000000" font-family="sans-serif" font-size="12" lengthAdjust="spacing" textLength="120" x="8" y="268.4805">Instrument d'analyse :</text><rect fill="#EEEEEE" height="18.9609" style="stroke:#000000;stroke-width:1.0;" width="23" x="145" y="256.5313"/><text fill="#000000" font-family="sans-serif" font-size="12" lengthAdjust="spacing" textLength="3" x="147" y="271.4805">&#160;</text><line style="stroke:#000000;stroke-width:1.0;" x1="157" x2="157" y1="256.5313" y2="275.4922"/><polygon fill="#000000" points="160,262.5313,166,262.5313,163,270.4922" style="stroke:#000000;stroke-width:1.0;"/><line style="stroke:#AAAAAA;stroke-width:1.0;" x1="7" x2="408" y1="283.9922" y2="283.9922"/><rect fill="#EEEEEE" height="19.9609" rx="5" ry="5" style="stroke:#000000;stroke-width:2.5;" width="60" x="10.5" y="291.9922"/><text fill="#000000" font-family="sans-serif" font-size="12" lengthAdjust="spacing" textLength="38" x="21.5" y="306.9414">Valider</text><rect fill="#EEEEEE" height="19.9609" rx="5" ry="5" style="stroke:#000000;stroke-width:2.5;" width="60" x="77.5" y="291.9922"/><text fill="#000000" font-family="sans-serif" font-size="12" lengthAdjust="spacing" textLength="42" x="86.5" y="306.9414">Annuler</text><line style="stroke:#000000;stroke-width:1.0;" x1="6" x2="408" y1="77.8438" y2="77.8438"/><line style="stroke:#000000;stroke-width:1.0;" x1="6" x2="408" y1="316.4531" y2="316.4531"/><line style="stroke:#000000;stroke-width:1.0;" x1="6" x2="6" y1="77.8438" y2="97.8047"/><line style="stroke:#000000;stroke-width:1.0;" x1="408" x2="408" y1="97.8047" y2="105.8047"/><line style="stroke:#000000;stroke-width:1.0;" x1="408" x2="408" y1="77.8438" y2="97.8047"/><line style="stroke:#000000;stroke-width:1.0;" x1="6" x2="6" y1="287.4922" y2="316.4531"/><line style="stroke:#000000;stroke-width:1.0;" x1="6" x2="6" y1="279.4922" y2="287.4922"/><line style="stroke:#000000;stroke-width:1.0;" x1="408" x2="408" y1="287.4922" y2="316.4531"/><line style="stroke:#000000;stroke-width:1.0;" x1="6" x2="6" y1="105.8047" y2="279.4922"/><line style="stroke:#000000;stroke-width:1.0;" x1="408" x2="408" y1="279.4922" y2="287.4922"/><line style="stroke:#000000;stroke-width:1.0;" x1="6" x2="6" y1="97.8047" y2="105.8047"/><line style="stroke:#000000;stroke-width:1.0;" x1="408" x2="408" y1="105.8047" y2="279.4922"/><!--SRC=[bLFRJjj047ttLunuI25L0dOAbQnWKG95fKcB252fg4WRUvAikjvrzn9AG_w7V8T_hBEEG_DGgSMoLwkTCsVEx1mV6SkqDKpOO1u0FStcuDDNQC4nSvbM79lDwhXQkYEMVeyrPabthAI5L0cb3- -dt6BIvSa96iXH6gUPvKeQy9XoQSib6CODHzF-7vgXnsfm4h9oALK-qaYi5WJHutZCKjIi9cfOpSmqWMv54KyqFYJTXYaqiinC4MtItQr216cCjBetg9E0SkUlAu8vF4ARFfAK3CkbmDGBXyn1ghajdpH2Xf0APinAWtHvkTJyXqE8eKx-n_V2Tr49QxNgSG2Scg9yIX5Coaa17w-B-_9pkEkhOigTWOARb5cbQNz797Lox-zjRARBYKEdmIhB1C9s_sfd8tz0uvkgxBdWQdI2JwPsTTaR0nm9Ye7Xl_0mZ981aWyGc8DmDu8qXu9LCrKZci6CMQgvBd8jkVT8N5NmeZnyKmINF7Vv6h0Lljrw3h6VTUWHjgBm-Vn2bykKREI7YI0O-RAIKxVnWZxssljhqW_IMEsg2ynUCSd4W_6CNd2jTb4ZQNmhUztUCC4prD-ewEqxAPtm-nMCraLmX3Ah_hxWGZ1fhmTzcA6kX8VjQ2_gjCDm-mjcCCG2mWv4Ut5q47Swq3iTNe47x0JRPnTzCCffSad6IICVEU_ZdU2SpHXSEh9DZZ5yBb2UdtnS7y2fd76jf6yeEByP_04Sl6aTSqibDMc1cq5mWcFcXAMCL6LSJcBe5M6q7mLzHlPX4o8Vww2dY5W_nF3-yZS0]--></g></svg>