<?xml version="1.0" encoding="UTF-8" standalone="no"?><svg xmlns="http://www.w3.org/2000/svg" xmlns:xlink="http://www.w3.org/1999/xlink" contentScriptType="application/ecmascript" contentStyleType="text/css" height="403px" preserveAspectRatio="none" style="width:1482px;height:403px;" version="1.1" viewBox="0 0 1482 403" width="1482px" zoomAndPan="magnify"><defs/><g><text fill="#000000" font-family="sans-serif" font-size="12" font-weight="bold" lengthAdjust="spacingAndGlyphs" textLength="445" x="6" y="17.1387">Weekly report of activity 02/02/2019 00:00 - LS-AF - Anse Forban</text><line style="stroke: #AAAAAA; stroke-width: 1.0; stroke-dasharray: 1.0,2.0;" x1="6" x2="1403" y1="25.4688" y2="25.4688"/><text fill="#000000" font-family="sans-serif" font-size="12" lengthAdjust="spacingAndGlyphs" textLength="131" x="8" y="41.1074">Information générale</text><line style="stroke: #000000; stroke-width: 1.0;" x1="6" x2="6" y1="29.9688" y2="43.9375"/><line style="stroke: #000000; stroke-width: 1.0;" x1="6" x2="142" y1="29.9688" y2="29.9688"/><line style="stroke: #000000; stroke-width: 1.0;" x1="142" x2="142" y1="29.9688" y2="43.9375"/><line style="stroke: #000000; stroke-width: 1.0;" x1="142" x2="152" y1="43.9375" y2="43.9375"/><text fill="#000000" font-family="sans-serif" font-size="12" lengthAdjust="spacingAndGlyphs" textLength="132" x="154" y="41.1074">Situation des navires</text><line style="stroke: #000000; stroke-width: 1.0;" x1="152" x2="152" y1="29.9688" y2="43.9375"/><line style="stroke: #000000; stroke-width: 1.0;" x1="152" x2="289" y1="29.9688" y2="29.9688"/><line style="stroke: #000000; stroke-width: 1.0;" x1="289" x2="289" y1="29.9688" y2="43.9375"/><line style="stroke: #000000; stroke-width: 1.0;" x1="289" x2="299" y1="43.9375" y2="43.9375"/><text fill="#000000" font-family="sans-serif" font-size="12" font-weight="bold" lengthAdjust="spacingAndGlyphs" textLength="146" x="301" y="41.1074">Activités des navires</text><line style="stroke: #000000; stroke-width: 1.0;" x1="299" x2="299" y1="29.9688" y2="43.9375"/><line style="stroke: #000000; stroke-width: 1.0;" x1="299" x2="450" y1="29.9688" y2="29.9688"/><line style="stroke: #000000; stroke-width: 1.0;" x1="450" x2="450" y1="29.9688" y2="43.9375"/><line style="stroke: #000000; stroke-width: 1.0;" x1="450" x2="460" y1="43.9375" y2="43.9375"/><path d="M1411,45.9375 L1411,47.9375 L1418,47.9375 L1418,45.9375 L1411,45.9375 M1411,48.9375 L1411,53.8435 C1411,53.9035 1411.034,53.9375 1411.094,53.9375 L1417.907,53.9375 C1417.967,53.9375 1418.001,53.9035 1418.001,53.8435 L1418.001,48.9375 L1411.001,48.9375 M1412.001,49.9375 L1413.001,49.9375 L1413.001,50.9375 L1412.001,50.9375 L1412.001,49.9375 M1414.001,49.9375 L1415.001,49.9375 L1415.001,50.9375 L1414.001,50.9375 L1414.001,49.9375 M1416.001,49.9375 L1417.001,49.9375 L1417.001,50.9375 L1416.001,50.9375 L1416.001,49.9375 M1412.001,51.9375 L1413.001,51.9375 L1413.001,52.9375 L1412.001,52.9375 L1412.001,51.9375 M1414.001,51.9375 L1415.001,51.9375 L1415.001,52.9375 L1414.001,52.9375 L1414.001,51.9375 " fill="#000000" style="stroke: ; stroke-width: 0.0; stroke-dasharray: ;"/><rect fill="#EEEEEE" height="17.9688" rx="5" ry="5" style="stroke: #000000; stroke-width: 2.5;" width="52" x="1424.5" y="48.4375"/><text fill="#000000" font-family="sans-serif" font-size="12" lengthAdjust="spacingAndGlyphs" textLength="44" x="1428.5" y="61.5762">Fermer</text><text fill="#000000" font-family="sans-serif" font-size="16" font-weight="bold" lengthAdjust="spacingAndGlyphs" textLength="68" x="7" y="86.7578">Navire :</text><rect fill="#EEEEEE" height="21.625" style="stroke: #000000; stroke-width: 1.0;" width="263" x="78" y="72.9063"/><text fill="#000000" font-family="sans-serif" font-size="16" lengthAdjust="spacingAndGlyphs" textLength="106" x="80" y="89.7578">SZ190 - Ziblo</text><line style="stroke: #000000; stroke-width: 1.0;" x1="330" x2="330" y1="72.9063" y2="94.5313"/><polygon fill="#000000" points="333,78.9063,339,78.9063,336,89.5313" style="stroke: #000000; stroke-width: 1.0;"/><text fill="#000000" font-family="sans-serif" font-size="12" font-weight="bold" lengthAdjust="spacingAndGlyphs" textLength="128" x="8" y="128.6387">Liste des métiers:</text><text fill="#000000" font-family="sans-serif" font-size="12" lengthAdjust="spacingAndGlyphs" textLength="49" x="9" y="145.6074">Metier*:</text><rect fill="#EEEEEE" height="16.9688" style="stroke: #000000; stroke-width: 1.0;" width="255" x="61" y="135.4688"/><text fill="#000000" font-family="sans-serif" font-size="12" lengthAdjust="spacingAndGlyphs" textLength="180" x="63" y="148.6074">FIXABSX - Active trap for Vyey</text><line style="stroke: #000000; stroke-width: 1.0;" x1="305" x2="305" y1="135.4688" y2="152.4375"/><polygon fill="#000000" points="308,141.4688,314,141.4688,311,147.4375" style="stroke: #000000; stroke-width: 1.0;"/><text fill="#000000" font-family="sans-serif" font-size="12" lengthAdjust="spacingAndGlyphs" textLength="110" x="339" y="146.6074">Valeur par défaut</text><rect fill="none" height="10" style="stroke: #000000; stroke-width: 1.5;" width="10" x="321" y="137.4531"/><rect fill="#EEEEEE" height="12" rx="5" ry="5" style="stroke: #000000; stroke-width: 2.5;" width="20" x="454.5" y="136.9688"/><path d="M461.906,138.9688 L460.5,140.3748 L461.188,141.0938 L462.969,142.8748 L461.188,144.6558 L460.5,145.3748 L461.906,146.7808 L462.625,146.0928 L464.406,144.3118 L466.187,146.0928 L466.906,146.7808 L468.312,145.3748 L467.624,144.6558 L465.843,142.8748 L467.624,141.0938 L468.312,140.3748 L466.906,138.9688 L466.187,139.6568 L464.406,141.4378 L462.625,139.6568 L461.906,138.9688 " fill="#000000" style="stroke: ; stroke-width: 0.0; stroke-dasharray: ;"/><text fill="#000000" font-family="sans-serif" font-size="12" lengthAdjust="spacingAndGlyphs" textLength="49" x="9" y="169.5762">Metier*:</text><rect fill="#EEEEEE" height="16.9688" style="stroke: #000000; stroke-width: 1.0;" width="255" x="61" y="159.4375"/><text fill="#000000" font-family="sans-serif" font-size="12" lengthAdjust="spacingAndGlyphs" textLength="115" x="63" y="172.5762">METIER2 - Metier 2</text><line style="stroke: #000000; stroke-width: 1.0;" x1="305" x2="305" y1="159.4375" y2="176.4063"/><polygon fill="#000000" points="308,165.4375,314,165.4375,311,171.4063" style="stroke: #000000; stroke-width: 1.0;"/><text fill="#000000" font-family="sans-serif" font-size="12" lengthAdjust="spacingAndGlyphs" textLength="110" x="339" y="170.5762">Valeur par défaut</text><rect fill="none" height="10" style="stroke: #000000; stroke-width: 1.5;" width="10" x="321" y="161.4219"/><rect fill="#EEEEEE" height="12" rx="5" ry="5" style="stroke: #000000; stroke-width: 2.5;" width="20" x="454.5" y="160.9375"/><path d="M463.5,162.9375 L463.5,165.9375 L460.5,165.9375 L460.5,167.9375 L463.5,167.9375 L463.5,170.9375 L465.5,170.9375 L465.5,167.9375 L468.5,167.9375 L468.5,165.9375 L465.5,165.9375 L465.5,162.9375 L463.5,162.9375 " fill="#000000" style="stroke: ; stroke-width: 0.0; stroke-dasharray: ;"/><rect fill="#EEEEEE" height="12" rx="5" ry="5" style="stroke: #000000; stroke-width: 2.5;" width="20" x="481.5" y="160.9375"/><path d="M488.906,162.9375 L487.5,164.3435 L488.188,165.0625 L489.969,166.8435 L488.188,168.6245 L487.5,169.3435 L488.906,170.7495 L489.625,170.0615 L491.406,168.2805 L493.187,170.0615 L493.906,170.7495 L495.312,169.3435 L494.624,168.6245 L492.843,166.8435 L494.624,165.0625 L495.312,164.3435 L493.906,162.9375 L493.187,163.6255 L491.406,165.4065 L489.625,163.6255 L488.906,162.9375 " fill="#000000" style="stroke: ; stroke-width: 0.0; stroke-dasharray: ;"/><text fill="#000000" font-family="sans-serif" font-size="12" lengthAdjust="spacingAndGlyphs" textLength="49" x="9" y="209.5137">Metier*:</text><rect fill="#EEEEEE" height="16.9688" style="stroke: #000000; stroke-width: 1.0;" width="255" x="61" y="199.375"/><text fill="#000000" font-family="sans-serif" font-size="12" lengthAdjust="spacingAndGlyphs" textLength="180" x="63" y="212.5137">FIXABSX - Active trap for Vyey</text><line style="stroke: #000000; stroke-width: 1.0;" x1="305" x2="305" y1="199.375" y2="216.3438"/><polygon fill="#000000" points="308,205.375,314,205.375,311,211.3438" style="stroke: #000000; stroke-width: 1.0;"/><text fill="#000000" font-family="sans-serif" font-size="12" lengthAdjust="spacingAndGlyphs" textLength="110" x="339" y="210.5137">Valeur par défaut</text><rect fill="none" height="10" style="stroke: #000000; stroke-width: 1.5;" width="10" x="321" y="201.3594"/><rect fill="#EEEEEE" height="12" rx="5" ry="5" style="stroke: #000000; stroke-width: 2.5;" width="20" x="454.5" y="200.875"/><path d="M463.5,202.875 L463.5,205.875 L460.5,205.875 L460.5,207.875 L463.5,207.875 L463.5,210.875 L465.5,210.875 L465.5,207.875 L468.5,207.875 L468.5,205.875 L465.5,205.875 L465.5,202.875 L463.5,202.875 " fill="#000000" style="stroke: ; stroke-width: 0.0; stroke-dasharray: ;"/><rect fill="#EEEEEE" height="12" rx="5" ry="5" style="stroke: #000000; stroke-width: 2.5;" width="20" x="481.5" y="200.875"/><path d="M488.906,202.875 L487.5,204.281 L488.188,205 L489.969,206.781 L488.188,208.562 L487.5,209.281 L488.906,210.687 L489.625,209.999 L491.406,208.218 L493.187,209.999 L493.906,210.687 L495.312,209.281 L494.624,208.562 L492.843,206.781 L494.624,205 L495.312,204.281 L493.906,202.875 L493.187,203.563 L491.406,205.344 L489.625,203.563 L488.906,202.875 " fill="#000000" style="stroke: ; stroke-width: 0.0; stroke-dasharray: ;"/><rect fill="#EEEEEE" height="17.9688" rx="5" ry="5" style="stroke: #000000; stroke-width: 2.5;" width="132" x="511.5" y="104.0313"/><text fill="#000000" font-family="sans-serif" font-size="12" lengthAdjust="spacingAndGlyphs" textLength="57" x="538.5" y="117.1699">Lundi 02-</text><text fill="#000000" font-family="sans-serif" font-size="12" font-style="italic" lengthAdjust="spacingAndGlyphs" textLength="17" x="599.5" y="117.1699">NA</text><rect fill="#EEEEEE" height="17.9688" rx="5" ry="5" style="stroke: #000000; stroke-width: 2.5;" width="132" x="650.5" y="104.0313"/><text fill="#000000" font-family="sans-serif" font-size="12" lengthAdjust="spacingAndGlyphs" textLength="54" x="689.5" y="117.1699">Mardi 03</text><rect fill="#EEEEEE" height="17.9688" rx="5" ry="5" style="stroke: #000000; stroke-width: 2.5;" width="148" x="789.5" y="104.0313"/><text fill="#000000" font-family="sans-serif" font-size="12" lengthAdjust="spacingAndGlyphs" textLength="78" x="814.5" y="117.1699">Mercredi 04-</text><text fill="#000000" font-family="sans-serif" font-size="12" font-style="italic" lengthAdjust="spacingAndGlyphs" textLength="16" x="896.5" y="117.1699">LD</text><rect fill="#EEEEEE" height="17.9688" rx="5" ry="5" style="stroke: #000000; stroke-width: 2.5;" width="156" x="944.5" y="104.0313"/><text fill="#000000" font-family="sans-serif" font-size="12" font-weight="bold" lengthAdjust="spacingAndGlyphs" textLength="60" x="981" y="117.1699">Jeudi 05-</text><text fill="#000000" font-family="sans-serif" font-size="12" font-style="italic" font-weight="bold" lengthAdjust="spacingAndGlyphs" textLength="19" x="1045" y="117.1699">NA</text><rect fill="#EEEEEE" height="17.9688" rx="5" ry="5" style="stroke: #000000; stroke-width: 2.5;" width="100" x="1107.5" y="104.0313"/><text fill="#000000" font-family="sans-serif" font-size="12" lengthAdjust="spacingAndGlyphs" textLength="76" x="1119.5" y="117.1699">Vendredi 06</text><rect fill="#EEEEEE" height="17.9688" rx="5" ry="5" style="stroke: #000000; stroke-width: 2.5;" width="84" x="1214.5" y="104.0313"/><text fill="#000000" font-family="sans-serif" font-size="12" lengthAdjust="spacingAndGlyphs" textLength="66" x="1223.5" y="117.1699">Samedi 07</text><rect fill="#EEEEEE" height="17.9688" rx="5" ry="5" style="stroke: #000000; stroke-width: 2.5;" width="92" x="1305.5" y="104.0313"/><text fill="#000000" font-family="sans-serif" font-size="12" lengthAdjust="spacingAndGlyphs" textLength="82" x="1310.5" y="117.1699">Dimanche 08</text><rect fill="#EEEEEE" height="17.9688" rx="5" ry="5" style="stroke: #000000; stroke-width: 2.5;" width="12" x="512.5" y="130"/><text fill="#000000" font-family="sans-serif" font-size="12" lengthAdjust="spacingAndGlyphs" textLength="7" x="515" y="143.1387">X</text><rect fill="#EEEEEE" height="12" rx="5" ry="5" style="stroke: #000000; stroke-width: 2.5;" width="20" x="531.5" y="130"/><path d="M541.531,133 C539.001,133 537.5,136 537.5,136 C537.5,136 539.001,139 541.531,139 C544.001,139 545.5,136 545.5,136 C545.5,136 544.001,133 541.531,133 M541.5,134 C542.6,134 543.5,134.9 543.5,136 C543.5,137.1 542.6,138 541.5,138 C540.4,138 539.5,137.1 539.5,136 C539.5,134.9 540.4,134 541.5,134 M541.5,135 C540.95,135 540.5,135.45 540.5,136 C540.5,136.55 540.95,137 541.5,137 C542.05,137 542.5,136.55 542.5,136 C542.5,135.9 542.468,135.809 542.437,135.719 C542.357,135.879 542.2,136 541.999,136 C541.719,136 541.499,135.78 541.499,135.5 C541.499,135.3 541.62,135.143 541.78,135.062 C541.69,135.032 541.599,134.999 541.499,134.999 " fill="#000000" style="stroke: ; stroke-width: 0.0; stroke-dasharray: ;"/><rect fill="#EEEEEE" height="17.9688" rx="5" ry="5" style="stroke: #000000; stroke-width: 2.5;" width="12" x="651.5" y="130"/><text fill="#000000" font-family="sans-serif" font-size="12" lengthAdjust="spacingAndGlyphs" textLength="0" x="659.5" y="143.1387"/><path d="M673.031,128.5 C670.501,128.5 669,131.5 669,131.5 C669,131.5 670.501,134.5 673.031,134.5 C675.501,134.5 677,131.5 677,131.5 C677,131.5 675.501,128.5 673.031,128.5 M673,129.5 C674.1,129.5 675,130.4 675,131.5 C675,132.6 674.1,133.5 673,133.5 C671.9,133.5 671,132.6 671,131.5 C671,130.4 671.9,129.5 673,129.5 M673,130.5 C672.45,130.5 672,130.95 672,131.5 C672,132.05 672.45,132.5 673,132.5 C673.55,132.5 674,132.05 674,131.5 C674,131.4 673.968,131.309 673.937,131.219 C673.857,131.379 673.7,131.5 673.499,131.5 C673.219,131.5 672.999,131.28 672.999,131 C672.999,130.8 673.12,130.643 673.28,130.562 C673.19,130.532 673.099,130.499 672.999,130.499 " fill="#000000" style="stroke: ; stroke-width: 0.0; stroke-dasharray: ;"/><rect fill="#EEEEEE" height="17.9688" rx="5" ry="5" style="stroke: #000000; stroke-width: 2.5;" width="12" x="790.5" y="130"/><text fill="#000000" font-family="sans-serif" font-size="12" lengthAdjust="spacingAndGlyphs" textLength="0" x="798.5" y="143.1387"/><path d="M812.031,128.5 C809.501,128.5 808,131.5 808,131.5 C808,131.5 809.501,134.5 812.031,134.5 C814.501,134.5 816,131.5 816,131.5 C816,131.5 814.501,128.5 812.031,128.5 M812,129.5 C813.1,129.5 814,130.4 814,131.5 C814,132.6 813.1,133.5 812,133.5 C810.9,133.5 810,132.6 810,131.5 C810,130.4 810.9,129.5 812,129.5 M812,130.5 C811.45,130.5 811,130.95 811,131.5 C811,132.05 811.45,132.5 812,132.5 C812.55,132.5 813,132.05 813,131.5 C813,131.4 812.968,131.309 812.937,131.219 C812.857,131.379 812.7,131.5 812.499,131.5 C812.219,131.5 811.999,131.28 811.999,131 C811.999,130.8 812.12,130.643 812.28,130.562 C812.19,130.532 812.099,130.499 811.999,130.499 " fill="#000000" style="stroke: ; stroke-width: 0.0; stroke-dasharray: ;"/><rect fill="#EEEEEE" height="17.9688" rx="5" ry="5" style="stroke: #000000; stroke-width: 2.5;" width="12" x="945.5" y="130"/><text fill="#000000" font-family="sans-serif" font-size="12" lengthAdjust="spacingAndGlyphs" textLength="7" x="948" y="143.1387">X</text><path d="M967.031,128.5 C964.501,128.5 963,131.5 963,131.5 C963,131.5 964.501,134.5 967.031,134.5 C969.501,134.5 971,131.5 971,131.5 C971,131.5 969.501,128.5 967.031,128.5 M967,129.5 C968.1,129.5 969,130.4 969,131.5 C969,132.6 968.1,133.5 967,133.5 C965.9,133.5 965,132.6 965,131.5 C965,130.4 965.9,129.5 967,129.5 M967,130.5 C966.45,130.5 966,130.95 966,131.5 C966,132.05 966.45,132.5 967,132.5 C967.55,132.5 968,132.05 968,131.5 C968,131.4 967.968,131.309 967.937,131.219 C967.857,131.379 967.7,131.5 967.499,131.5 C967.219,131.5 966.999,131.28 966.999,131 C966.999,130.8 967.12,130.643 967.28,130.562 C967.19,130.532 967.099,130.499 966.999,130.499 " fill="#000000" style="stroke: ; stroke-width: 0.0; stroke-dasharray: ;"/><rect fill="#EEEEEE" height="17.9688" rx="5" ry="5" style="stroke: #000000; stroke-width: 2.5;" width="12" x="1108.5" y="130"/><text fill="#000000" font-family="sans-serif" font-size="12" lengthAdjust="spacingAndGlyphs" textLength="0" x="1116.5" y="143.1387"/><path d="M1130.031,128.5 C1127.501,128.5 1126,131.5 1126,131.5 C1126,131.5 1127.501,134.5 1130.031,134.5 C1132.501,134.5 1134,131.5 1134,131.5 C1134,131.5 1132.501,128.5 1130.031,128.5 M1130,129.5 C1131.1,129.5 1132,130.4 1132,131.5 C1132,132.6 1131.1,133.5 1130,133.5 C1128.9,133.5 1128,132.6 1128,131.5 C1128,130.4 1128.9,129.5 1130,129.5 M1130,130.5 C1129.45,130.5 1129,130.95 1129,131.5 C1129,132.05 1129.45,132.5 1130,132.5 C1130.55,132.5 1131,132.05 1131,131.5 C1131,131.4 1130.968,131.309 1130.937,131.219 C1130.857,131.379 1130.7,131.5 1130.499,131.5 C1130.219,131.5 1129.999,131.28 1129.999,131 C1129.999,130.8 1130.12,130.643 1130.28,130.562 C1130.19,130.532 1130.099,130.499 1129.999,130.499 " fill="#000000" style="stroke: ; stroke-width: 0.0; stroke-dasharray: ;"/><rect fill="#EEEEEE" height="17.9688" rx="5" ry="5" style="stroke: #000000; stroke-width: 2.5;" width="12" x="1215.5" y="130"/><text fill="#000000" font-family="sans-serif" font-size="12" lengthAdjust="spacingAndGlyphs" textLength="0" x="1223.5" y="143.1387"/><path d="M1237.031,128.5 C1234.501,128.5 1233,131.5 1233,131.5 C1233,131.5 1234.501,134.5 1237.031,134.5 C1239.501,134.5 1241,131.5 1241,131.5 C1241,131.5 1239.501,128.5 1237.031,128.5 M1237,129.5 C1238.1,129.5 1239,130.4 1239,131.5 C1239,132.6 1238.1,133.5 1237,133.5 C1235.9,133.5 1235,132.6 1235,131.5 C1235,130.4 1235.9,129.5 1237,129.5 M1237,130.5 C1236.45,130.5 1236,130.95 1236,131.5 C1236,132.05 1236.45,132.5 1237,132.5 C1237.55,132.5 1238,132.05 1238,131.5 C1238,131.4 1237.968,131.309 1237.937,131.219 C1237.857,131.379 1237.7,131.5 1237.499,131.5 C1237.219,131.5 1236.999,131.28 1236.999,131 C1236.999,130.8 1237.12,130.643 1237.28,130.562 C1237.19,130.532 1237.099,130.499 1236.999,130.499 " fill="#000000" style="stroke: ; stroke-width: 0.0; stroke-dasharray: ;"/><rect fill="#EEEEEE" height="17.9688" rx="5" ry="5" style="stroke: #000000; stroke-width: 2.5;" width="12" x="1306.5" y="130"/><text fill="#000000" font-family="sans-serif" font-size="12" lengthAdjust="spacingAndGlyphs" textLength="0" x="1314.5" y="143.1387"/><path d="M1328.031,128.5 C1325.501,128.5 1324,131.5 1324,131.5 C1324,131.5 1325.501,134.5 1328.031,134.5 C1330.501,134.5 1332,131.5 1332,131.5 C1332,131.5 1330.501,128.5 1328.031,128.5 M1328,129.5 C1329.1,129.5 1330,130.4 1330,131.5 C1330,132.6 1329.1,133.5 1328,133.5 C1326.9,133.5 1326,132.6 1326,131.5 C1326,130.4 1326.9,129.5 1328,129.5 M1328,130.5 C1327.45,130.5 1327,130.95 1327,131.5 C1327,132.05 1327.45,132.5 1328,132.5 C1328.55,132.5 1329,132.05 1329,131.5 C1329,131.4 1328.968,131.309 1328.937,131.219 C1328.857,131.379 1328.7,131.5 1328.499,131.5 C1328.219,131.5 1327.999,131.28 1327.999,131 C1327.999,130.8 1328.12,130.643 1328.28,130.562 C1328.19,130.532 1328.099,130.499 1327.999,130.499 " fill="#000000" style="stroke: ; stroke-width: 0.0; stroke-dasharray: ;"/><rect fill="#EEEEEE" height="17.9688" rx="5" ry="5" style="stroke: #000000; stroke-width: 2.5;" width="12" x="512.5" y="156.9688"/><text fill="#000000" font-family="sans-serif" font-size="12" lengthAdjust="spacingAndGlyphs" textLength="0" x="520.5" y="170.1074"/><path d="M534.031,155.4688 C531.501,155.4688 530,158.4688 530,158.4688 C530,158.4688 531.501,161.4688 534.031,161.4688 C536.501,161.4688 538,158.4688 538,158.4688 C538,158.4688 536.501,155.4688 534.031,155.4688 M534,156.4688 C535.1,156.4688 536,157.3688 536,158.4688 C536,159.5688 535.1,160.4688 534,160.4688 C532.9,160.4688 532,159.5688 532,158.4688 C532,157.3688 532.9,156.4688 534,156.4688 M534,157.4688 C533.45,157.4688 533,157.9188 533,158.4688 C533,159.0188 533.45,159.4688 534,159.4688 C534.55,159.4688 535,159.0188 535,158.4688 C535,158.3688 534.968,158.2778 534.937,158.1878 C534.857,158.3478 534.7,158.4688 534.499,158.4688 C534.219,158.4688 533.999,158.2488 533.999,157.9688 C533.999,157.7688 534.12,157.6118 534.28,157.5308 C534.19,157.5008 534.099,157.4678 533.999,157.4678 " fill="#000000" style="stroke: ; stroke-width: 0.0; stroke-dasharray: ;"/><rect fill="#EEEEEE" height="17.9688" rx="5" ry="5" style="stroke: #000000; stroke-width: 2.5;" width="12" x="651.5" y="156.9688"/><text fill="#000000" font-family="sans-serif" font-size="12" lengthAdjust="spacingAndGlyphs" textLength="0" x="659.5" y="170.1074"/><rect fill="#EEEEEE" height="12" rx="5" ry="5" style="stroke: #000000; stroke-width: 2.5;" width="20" x="670.5" y="156.9688"/><path d="M680.531,159.9688 C678.001,159.9688 676.5,162.9688 676.5,162.9688 C676.5,162.9688 678.001,165.9688 680.531,165.9688 C683.001,165.9688 684.5,162.9688 684.5,162.9688 C684.5,162.9688 683.001,159.9688 680.531,159.9688 M680.5,160.9688 C681.6,160.9688 682.5,161.8688 682.5,162.9688 C682.5,164.0688 681.6,164.9688 680.5,164.9688 C679.4,164.9688 678.5,164.0688 678.5,162.9688 C678.5,161.8688 679.4,160.9688 680.5,160.9688 M680.5,161.9688 C679.95,161.9688 679.5,162.4188 679.5,162.9688 C679.5,163.5188 679.95,163.9688 680.5,163.9688 C681.05,163.9688 681.5,163.5188 681.5,162.9688 C681.5,162.8688 681.468,162.7778 681.437,162.6878 C681.357,162.8478 681.2,162.9688 680.999,162.9688 C680.719,162.9688 680.499,162.7488 680.499,162.4688 C680.499,162.2688 680.62,162.1118 680.78,162.0308 C680.69,162.0008 680.599,161.9678 680.499,161.9678 " fill="#000000" style="stroke: ; stroke-width: 0.0; stroke-dasharray: ;"/><rect fill="#EEEEEE" height="17.9688" rx="5" ry="5" style="stroke: #000000; stroke-width: 2.5;" width="12" x="790.5" y="156.9688"/><text fill="#000000" font-family="sans-serif" font-size="12" lengthAdjust="spacingAndGlyphs" textLength="7" x="793" y="170.1074">X</text><rect fill="#EEEEEE" height="12" rx="5" ry="5" style="stroke: #000000; stroke-width: 2.5;" width="20" x="809.5" y="156.9688"/><path d="M819.531,159.9688 C817.001,159.9688 815.5,162.9688 815.5,162.9688 C815.5,162.9688 817.001,165.9688 819.531,165.9688 C822.001,165.9688 823.5,162.9688 823.5,162.9688 C823.5,162.9688 822.001,159.9688 819.531,159.9688 M819.5,160.9688 C820.6,160.9688 821.5,161.8688 821.5,162.9688 C821.5,164.0688 820.6,164.9688 819.5,164.9688 C818.4,164.9688 817.5,164.0688 817.5,162.9688 C817.5,161.8688 818.4,160.9688 819.5,160.9688 M819.5,161.9688 C818.95,161.9688 818.5,162.4188 818.5,162.9688 C818.5,163.5188 818.95,163.9688 819.5,163.9688 C820.05,163.9688 820.5,163.5188 820.5,162.9688 C820.5,162.8688 820.468,162.7778 820.437,162.6878 C820.357,162.8478 820.2,162.9688 819.999,162.9688 C819.719,162.9688 819.499,162.7488 819.499,162.4688 C819.499,162.2688 819.62,162.1118 819.78,162.0308 C819.69,162.0008 819.599,161.9678 819.499,161.9678 " fill="#000000" style="stroke: ; stroke-width: 0.0; stroke-dasharray: ;"/><rect fill="#EEEEEE" height="17.9688" rx="5" ry="5" style="stroke: #000000; stroke-width: 2.5;" width="12" x="945.5" y="156.9688"/><text fill="#000000" font-family="sans-serif" font-size="12" lengthAdjust="spacingAndGlyphs" textLength="7" x="948" y="170.1074">X</text><rect fill="#EEEEEE" height="12" rx="5" ry="5" style="stroke: #000000; stroke-width: 2.5;" width="20" x="964.5" y="156.9688"/><path d="M974.531,159.9688 C972.001,159.9688 970.5,162.9688 970.5,162.9688 C970.5,162.9688 972.001,165.9688 974.531,165.9688 C977.001,165.9688 978.5,162.9688 978.5,162.9688 C978.5,162.9688 977.001,159.9688 974.531,159.9688 M974.5,160.9688 C975.6,160.9688 976.5,161.8688 976.5,162.9688 C976.5,164.0688 975.6,164.9688 974.5,164.9688 C973.4,164.9688 972.5,164.0688 972.5,162.9688 C972.5,161.8688 973.4,160.9688 974.5,160.9688 M974.5,161.9688 C973.95,161.9688 973.5,162.4188 973.5,162.9688 C973.5,163.5188 973.95,163.9688 974.5,163.9688 C975.05,163.9688 975.5,163.5188 975.5,162.9688 C975.5,162.8688 975.468,162.7778 975.437,162.6878 C975.357,162.8478 975.2,162.9688 974.999,162.9688 C974.719,162.9688 974.499,162.7488 974.499,162.4688 C974.499,162.2688 974.62,162.1118 974.78,162.0308 C974.69,162.0008 974.599,161.9678 974.499,161.9678 " fill="#000000" style="stroke: ; stroke-width: 0.0; stroke-dasharray: ;"/><rect fill="#EEEEEE" height="17.9688" rx="5" ry="5" style="stroke: #000000; stroke-width: 2.5;" width="12" x="1108.5" y="156.9688"/><text fill="#000000" font-family="sans-serif" font-size="12" lengthAdjust="spacingAndGlyphs" textLength="0" x="1116.5" y="170.1074"/><path d="M1130.031,155.4688 C1127.501,155.4688 1126,158.4688 1126,158.4688 C1126,158.4688 1127.501,161.4688 1130.031,161.4688 C1132.501,161.4688 1134,158.4688 1134,158.4688 C1134,158.4688 1132.501,155.4688 1130.031,155.4688 M1130,156.4688 C1131.1,156.4688 1132,157.3688 1132,158.4688 C1132,159.5688 1131.1,160.4688 1130,160.4688 C1128.9,160.4688 1128,159.5688 1128,158.4688 C1128,157.3688 1128.9,156.4688 1130,156.4688 M1130,157.4688 C1129.45,157.4688 1129,157.9188 1129,158.4688 C1129,159.0188 1129.45,159.4688 1130,159.4688 C1130.55,159.4688 1131,159.0188 1131,158.4688 C1131,158.3688 1130.968,158.2778 1130.937,158.1878 C1130.857,158.3478 1130.7,158.4688 1130.499,158.4688 C1130.219,158.4688 1129.999,158.2488 1129.999,157.9688 C1129.999,157.7688 1130.12,157.6118 1130.28,157.5308 C1130.19,157.5008 1130.099,157.4678 1129.999,157.4678 " fill="#000000" style="stroke: ; stroke-width: 0.0; stroke-dasharray: ;"/><rect fill="#EEEEEE" height="17.9688" rx="5" ry="5" style="stroke: #000000; stroke-width: 2.5;" width="12" x="1215.5" y="156.9688"/><text fill="#000000" font-family="sans-serif" font-size="12" lengthAdjust="spacingAndGlyphs" textLength="0" x="1223.5" y="170.1074"/><path d="M1237.031,155.4688 C1234.501,155.4688 1233,158.4688 1233,158.4688 C1233,158.4688 1234.501,161.4688 1237.031,161.4688 C1239.501,161.4688 1241,158.4688 1241,158.4688 C1241,158.4688 1239.501,155.4688 1237.031,155.4688 M1237,156.4688 C1238.1,156.4688 1239,157.3688 1239,158.4688 C1239,159.5688 1238.1,160.4688 1237,160.4688 C1235.9,160.4688 1235,159.5688 1235,158.4688 C1235,157.3688 1235.9,156.4688 1237,156.4688 M1237,157.4688 C1236.45,157.4688 1236,157.9188 1236,158.4688 C1236,159.0188 1236.45,159.4688 1237,159.4688 C1237.55,159.4688 1238,159.0188 1238,158.4688 C1238,158.3688 1237.968,158.2778 1237.937,158.1878 C1237.857,158.3478 1237.7,158.4688 1237.499,158.4688 C1237.219,158.4688 1236.999,158.2488 1236.999,157.9688 C1236.999,157.7688 1237.12,157.6118 1237.28,157.5308 C1237.19,157.5008 1237.099,157.4678 1236.999,157.4678 " fill="#000000" style="stroke: ; stroke-width: 0.0; stroke-dasharray: ;"/><rect fill="#EEEEEE" height="17.9688" rx="5" ry="5" style="stroke: #000000; stroke-width: 2.5;" width="12" x="1306.5" y="156.9688"/><text fill="#000000" font-family="sans-serif" font-size="12" lengthAdjust="spacingAndGlyphs" textLength="0" x="1314.5" y="170.1074"/><path d="M1328.031,155.4688 C1325.501,155.4688 1324,158.4688 1324,158.4688 C1324,158.4688 1325.501,161.4688 1328.031,161.4688 C1330.501,161.4688 1332,158.4688 1332,158.4688 C1332,158.4688 1330.501,155.4688 1328.031,155.4688 M1328,156.4688 C1329.1,156.4688 1330,157.3688 1330,158.4688 C1330,159.5688 1329.1,160.4688 1328,160.4688 C1326.9,160.4688 1326,159.5688 1326,158.4688 C1326,157.3688 1326.9,156.4688 1328,156.4688 M1328,157.4688 C1327.45,157.4688 1327,157.9188 1327,158.4688 C1327,159.0188 1327.45,159.4688 1328,159.4688 C1328.55,159.4688 1329,159.0188 1329,158.4688 C1329,158.3688 1328.968,158.2778 1328.937,158.1878 C1328.857,158.3478 1328.7,158.4688 1328.499,158.4688 C1328.219,158.4688 1327.999,158.2488 1327.999,157.9688 C1327.999,157.7688 1328.12,157.6118 1328.28,157.5308 C1328.19,157.5008 1328.099,157.4678 1327.999,157.4678 " fill="#000000" style="stroke: ; stroke-width: 0.0; stroke-dasharray: ;"/><rect fill="#EEEEEE" height="17.9688" rx="5" ry="5" style="stroke: #000000; stroke-width: 2.5;" width="132" x="511.5" y="182.9375"/><text fill="#000000" font-family="sans-serif" font-size="12" lengthAdjust="spacingAndGlyphs" textLength="57" x="539" y="196.0762">Lundi 02-</text><text fill="#000000" font-family="sans-serif" font-size="12" font-style="italic" lengthAdjust="spacingAndGlyphs" textLength="16" x="600" y="196.0762">DP</text><rect fill="#EEEEEE" height="17.9688" rx="5" ry="5" style="stroke: #000000; stroke-width: 2.5;" width="132" x="650.5" y="182.9375"/><text fill="#000000" font-family="sans-serif" font-size="12" lengthAdjust="spacingAndGlyphs" textLength="54" x="689.5" y="196.0762">Mardi 03</text><rect fill="#EEEEEE" height="17.9688" rx="5" ry="5" style="stroke: #000000; stroke-width: 2.5;" width="148" x="789.5" y="182.9375"/><text fill="#000000" font-family="sans-serif" font-size="12" lengthAdjust="spacingAndGlyphs" textLength="78" x="816" y="196.0762">Mercredi 04-</text><text fill="#000000" font-family="sans-serif" font-size="12" font-style="italic" lengthAdjust="spacingAndGlyphs" textLength="13" x="898" y="196.0762">IN</text><rect fill="#EEEEEE" height="17.9688" rx="5" ry="5" style="stroke: #000000; stroke-width: 2.5;" width="156" x="944.5" y="182.9375"/><text fill="#000000" font-family="sans-serif" font-size="12" font-weight="bold" lengthAdjust="spacingAndGlyphs" textLength="60" x="983.5" y="196.0762">Jeudi 05-</text><text fill="#000000" font-family="sans-serif" font-size="12" font-style="italic" font-weight="bold" lengthAdjust="spacingAndGlyphs" textLength="14" x="1047.5" y="196.0762">IN</text><rect fill="#EEEEEE" height="17.9688" rx="5" ry="5" style="stroke: #000000; stroke-width: 2.5;" width="100" x="1107.5" y="182.9375"/><text fill="#000000" font-family="sans-serif" font-size="12" lengthAdjust="spacingAndGlyphs" textLength="76" x="1119.5" y="196.0762">Vendredi 06</text><rect fill="#EEEEEE" height="17.9688" rx="5" ry="5" style="stroke: #000000; stroke-width: 2.5;" width="84" x="1214.5" y="182.9375"/><text fill="#000000" font-family="sans-serif" font-size="12" lengthAdjust="spacingAndGlyphs" textLength="66" x="1223.5" y="196.0762">Samedi 07</text><rect fill="#EEEEEE" height="17.9688" rx="5" ry="5" style="stroke: #000000; stroke-width: 2.5;" width="92" x="1305.5" y="182.9375"/><text fill="#000000" font-family="sans-serif" font-size="12" lengthAdjust="spacingAndGlyphs" textLength="82" x="1310.5" y="196.0762">Dimanche 08</text><rect fill="#EEEEEE" height="17.9688" rx="5" ry="5" style="stroke: #000000; stroke-width: 2.5;" width="12" x="512.5" y="208.9063"/><text fill="#000000" font-family="sans-serif" font-size="12" lengthAdjust="spacingAndGlyphs" textLength="7" x="515" y="222.0449">X</text><path d="M534.031,207.4063 C531.501,207.4063 530,210.4063 530,210.4063 C530,210.4063 531.501,213.4063 534.031,213.4063 C536.501,213.4063 538,210.4063 538,210.4063 C538,210.4063 536.501,207.4063 534.031,207.4063 M534,208.4063 C535.1,208.4063 536,209.3063 536,210.4063 C536,211.5063 535.1,212.4063 534,212.4063 C532.9,212.4063 532,211.5063 532,210.4063 C532,209.3063 532.9,208.4063 534,208.4063 M534,209.4063 C533.45,209.4063 533,209.8563 533,210.4063 C533,210.9563 533.45,211.4063 534,211.4063 C534.55,211.4063 535,210.9563 535,210.4063 C535,210.3063 534.968,210.2153 534.937,210.1253 C534.857,210.2853 534.7,210.4063 534.499,210.4063 C534.219,210.4063 533.999,210.1863 533.999,209.9063 C533.999,209.7063 534.12,209.5493 534.28,209.4683 C534.19,209.4383 534.099,209.4053 533.999,209.4053 " fill="#000000" style="stroke: ; stroke-width: 0.0; stroke-dasharray: ;"/><rect fill="#EEEEEE" height="17.9688" rx="5" ry="5" style="stroke: #000000; stroke-width: 2.5;" width="12" x="651.5" y="208.9063"/><text fill="#000000" font-family="sans-serif" font-size="12" lengthAdjust="spacingAndGlyphs" textLength="7" x="654" y="222.0449">X</text><path d="M673.031,207.4063 C670.501,207.4063 669,210.4063 669,210.4063 C669,210.4063 670.501,213.4063 673.031,213.4063 C675.501,213.4063 677,210.4063 677,210.4063 C677,210.4063 675.501,207.4063 673.031,207.4063 M673,208.4063 C674.1,208.4063 675,209.3063 675,210.4063 C675,211.5063 674.1,212.4063 673,212.4063 C671.9,212.4063 671,211.5063 671,210.4063 C671,209.3063 671.9,208.4063 673,208.4063 M673,209.4063 C672.45,209.4063 672,209.8563 672,210.4063 C672,210.9563 672.45,211.4063 673,211.4063 C673.55,211.4063 674,210.9563 674,210.4063 C674,210.3063 673.968,210.2153 673.937,210.1253 C673.857,210.2853 673.7,210.4063 673.499,210.4063 C673.219,210.4063 672.999,210.1863 672.999,209.9063 C672.999,209.7063 673.12,209.5493 673.28,209.4683 C673.19,209.4383 673.099,209.4053 672.999,209.4053 " fill="#000000" style="stroke: ; stroke-width: 0.0; stroke-dasharray: ;"/><rect fill="#EEEEEE" height="17.9688" rx="5" ry="5" style="stroke: #000000; stroke-width: 2.5;" width="12" x="790.5" y="208.9063"/><text fill="#000000" font-family="sans-serif" font-size="12" lengthAdjust="spacingAndGlyphs" textLength="7" x="793" y="222.0449">X</text><rect fill="#EEEEEE" height="12" rx="5" ry="5" style="stroke: #000000; stroke-width: 2.5;" width="20" x="809.5" y="208.9063"/><path d="M819.531,211.9063 C817.001,211.9063 815.5,214.9063 815.5,214.9063 C815.5,214.9063 817.001,217.9063 819.531,217.9063 C822.001,217.9063 823.5,214.9063 823.5,214.9063 C823.5,214.9063 822.001,211.9063 819.531,211.9063 M819.5,212.9063 C820.6,212.9063 821.5,213.8063 821.5,214.9063 C821.5,216.0063 820.6,216.9063 819.5,216.9063 C818.4,216.9063 817.5,216.0063 817.5,214.9063 C817.5,213.8063 818.4,212.9063 819.5,212.9063 M819.5,213.9063 C818.95,213.9063 818.5,214.3563 818.5,214.9063 C818.5,215.4563 818.95,215.9063 819.5,215.9063 C820.05,215.9063 820.5,215.4563 820.5,214.9063 C820.5,214.8063 820.468,214.7153 820.437,214.6253 C820.357,214.7853 820.2,214.9063 819.999,214.9063 C819.719,214.9063 819.499,214.6863 819.499,214.4063 C819.499,214.2063 819.62,214.0493 819.78,213.9683 C819.69,213.9383 819.599,213.9053 819.499,213.9053 " fill="#000000" style="stroke: ; stroke-width: 0.0; stroke-dasharray: ;"/><rect fill="#EEEEEE" height="17.9688" rx="5" ry="5" style="stroke: #000000; stroke-width: 2.5;" width="12" x="945.5" y="208.9063"/><text fill="#000000" font-family="sans-serif" font-size="12" lengthAdjust="spacingAndGlyphs" textLength="7" x="948" y="222.0449">X</text><rect fill="#EEEEEE" height="12" rx="5" ry="5" style="stroke: #000000; stroke-width: 2.5;" width="20" x="964.5" y="208.9063"/><path d="M974.531,211.9063 C972.001,211.9063 970.5,214.9063 970.5,214.9063 C970.5,214.9063 972.001,217.9063 974.531,217.9063 C977.001,217.9063 978.5,214.9063 978.5,214.9063 C978.5,214.9063 977.001,211.9063 974.531,211.9063 M974.5,212.9063 C975.6,212.9063 976.5,213.8063 976.5,214.9063 C976.5,216.0063 975.6,216.9063 974.5,216.9063 C973.4,216.9063 972.5,216.0063 972.5,214.9063 C972.5,213.8063 973.4,212.9063 974.5,212.9063 M974.5,213.9063 C973.95,213.9063 973.5,214.3563 973.5,214.9063 C973.5,215.4563 973.95,215.9063 974.5,215.9063 C975.05,215.9063 975.5,215.4563 975.5,214.9063 C975.5,214.8063 975.468,214.7153 975.437,214.6253 C975.357,214.7853 975.2,214.9063 974.999,214.9063 C974.719,214.9063 974.499,214.6863 974.499,214.4063 C974.499,214.2063 974.62,214.0493 974.78,213.9683 C974.69,213.9383 974.599,213.9053 974.499,213.9053 " fill="#000000" style="stroke: ; stroke-width: 0.0; stroke-dasharray: ;"/><rect fill="#EEEEEE" height="17.9688" rx="5" ry="5" style="stroke: #000000; stroke-width: 2.5;" width="12" x="1108.5" y="208.9063"/><text fill="#000000" font-family="sans-serif" font-size="12" lengthAdjust="spacingAndGlyphs" textLength="0" x="1116.5" y="222.0449"/><path d="M1130.031,207.4063 C1127.501,207.4063 1126,210.4063 1126,210.4063 C1126,210.4063 1127.501,213.4063 1130.031,213.4063 C1132.501,213.4063 1134,210.4063 1134,210.4063 C1134,210.4063 1132.501,207.4063 1130.031,207.4063 M1130,208.4063 C1131.1,208.4063 1132,209.3063 1132,210.4063 C1132,211.5063 1131.1,212.4063 1130,212.4063 C1128.9,212.4063 1128,211.5063 1128,210.4063 C1128,209.3063 1128.9,208.4063 1130,208.4063 M1130,209.4063 C1129.45,209.4063 1129,209.8563 1129,210.4063 C1129,210.9563 1129.45,211.4063 1130,211.4063 C1130.55,211.4063 1131,210.9563 1131,210.4063 C1131,210.3063 1130.968,210.2153 1130.937,210.1253 C1130.857,210.2853 1130.7,210.4063 1130.499,210.4063 C1130.219,210.4063 1129.999,210.1863 1129.999,209.9063 C1129.999,209.7063 1130.12,209.5493 1130.28,209.4683 C1130.19,209.4383 1130.099,209.4053 1129.999,209.4053 " fill="#000000" style="stroke: ; stroke-width: 0.0; stroke-dasharray: ;"/><rect fill="#EEEEEE" height="17.9688" rx="5" ry="5" style="stroke: #000000; stroke-width: 2.5;" width="12" x="1215.5" y="208.9063"/><text fill="#000000" font-family="sans-serif" font-size="12" lengthAdjust="spacingAndGlyphs" textLength="0" x="1223.5" y="222.0449"/><path d="M1237.031,207.4063 C1234.501,207.4063 1233,210.4063 1233,210.4063 C1233,210.4063 1234.501,213.4063 1237.031,213.4063 C1239.501,213.4063 1241,210.4063 1241,210.4063 C1241,210.4063 1239.501,207.4063 1237.031,207.4063 M1237,208.4063 C1238.1,208.4063 1239,209.3063 1239,210.4063 C1239,211.5063 1238.1,212.4063 1237,212.4063 C1235.9,212.4063 1235,211.5063 1235,210.4063 C1235,209.3063 1235.9,208.4063 1237,208.4063 M1237,209.4063 C1236.45,209.4063 1236,209.8563 1236,210.4063 C1236,210.9563 1236.45,211.4063 1237,211.4063 C1237.55,211.4063 1238,210.9563 1238,210.4063 C1238,210.3063 1237.968,210.2153 1237.937,210.1253 C1237.857,210.2853 1237.7,210.4063 1237.499,210.4063 C1237.219,210.4063 1236.999,210.1863 1236.999,209.9063 C1236.999,209.7063 1237.12,209.5493 1237.28,209.4683 C1237.19,209.4383 1237.099,209.4053 1236.999,209.4053 " fill="#000000" style="stroke: ; stroke-width: 0.0; stroke-dasharray: ;"/><rect fill="#EEEEEE" height="17.9688" rx="5" ry="5" style="stroke: #000000; stroke-width: 2.5;" width="12" x="1306.5" y="208.9063"/><text fill="#000000" font-family="sans-serif" font-size="12" lengthAdjust="spacingAndGlyphs" textLength="0" x="1314.5" y="222.0449"/><path d="M1328.031,207.4063 C1325.501,207.4063 1324,210.4063 1324,210.4063 C1324,210.4063 1325.501,213.4063 1328.031,213.4063 C1330.501,213.4063 1332,210.4063 1332,210.4063 C1332,210.4063 1330.501,207.4063 1328.031,207.4063 M1328,208.4063 C1329.1,208.4063 1330,209.3063 1330,210.4063 C1330,211.5063 1329.1,212.4063 1328,212.4063 C1326.9,212.4063 1326,211.5063 1326,210.4063 C1326,209.3063 1326.9,208.4063 1328,208.4063 M1328,209.4063 C1327.45,209.4063 1327,209.8563 1327,210.4063 C1327,210.9563 1327.45,211.4063 1328,211.4063 C1328.55,211.4063 1329,210.9563 1329,210.4063 C1329,210.3063 1328.968,210.2153 1328.937,210.1253 C1328.857,210.2853 1328.7,210.4063 1328.499,210.4063 C1328.219,210.4063 1327.999,210.1863 1327.999,209.9063 C1327.999,209.7063 1328.12,209.5493 1328.28,209.4683 C1328.19,209.4383 1328.099,209.4053 1327.999,209.4053 " fill="#000000" style="stroke: ; stroke-width: 0.0; stroke-dasharray: ;"/><line style="stroke: #000000; stroke-width: 1.0;" x1="6" x2="507" y1="99.5313" y2="99.5313"/><line style="stroke: #000000; stroke-width: 1.0;" x1="507" x2="1402" y1="232.375" y2="232.375"/><line style="stroke: #000000; stroke-width: 1.0;" x1="507" x2="1402" y1="99.5313" y2="99.5313"/><line style="stroke: #000000; stroke-width: 1.0;" x1="6" x2="507" y1="232.375" y2="232.375"/><line style="stroke: #000000; stroke-width: 1.0;" x1="6" x2="6" y1="99.5313" y2="232.375"/><line style="stroke: #000000; stroke-width: 1.0;" x1="1402" x2="1402" y1="99.5313" y2="232.375"/><text fill="#000000" font-family="sans-serif" font-size="16" font-weight="bold" lengthAdjust="spacingAndGlyphs" textLength="68" x="7" y="266.1953">Navire :</text><rect fill="#EEEEEE" height="21.625" style="stroke: #000000; stroke-width: 1.0;" width="255" x="78" y="252.3438"/><text fill="#000000" font-family="sans-serif" font-size="16" lengthAdjust="spacingAndGlyphs" textLength="64" x="80" y="269.1953">Navire 2</text><line style="stroke: #000000; stroke-width: 1.0;" x1="322" x2="322" y1="252.3438" y2="273.9688"/><polygon fill="#000000" points="325,258.3438,331,258.3438,328,268.9688" style="stroke: #000000; stroke-width: 1.0;"/><text fill="#000000" font-family="sans-serif" font-size="12" font-weight="bold" lengthAdjust="spacingAndGlyphs" textLength="128" x="8" y="308.0762">Liste des métiers:</text><text fill="#000000" font-family="sans-serif" font-size="12" lengthAdjust="spacingAndGlyphs" textLength="49" x="9" y="325.0449">Metier*:</text><rect fill="#EEEEEE" height="16.9688" style="stroke: #000000; stroke-width: 1.0;" width="255" x="61" y="314.9063"/><text fill="#000000" font-family="sans-serif" font-size="12" lengthAdjust="spacingAndGlyphs" textLength="115" x="63" y="328.0449">METIER1 - Metier 1</text><line style="stroke: #000000; stroke-width: 1.0;" x1="305" x2="305" y1="314.9063" y2="331.875"/><polygon fill="#000000" points="308,320.9063,314,320.9063,311,326.875" style="stroke: #000000; stroke-width: 1.0;"/><text fill="#000000" font-family="sans-serif" font-size="12" lengthAdjust="spacingAndGlyphs" textLength="110" x="339" y="326.0449">Valeur par défaut</text><rect fill="none" height="10" style="stroke: #000000; stroke-width: 1.5;" width="10" x="321" y="316.8906"/><rect fill="#EEEEEE" height="12" rx="5" ry="5" style="stroke: #000000; stroke-width: 2.5;" width="20" x="454.5" y="316.4063"/><path d="M463.5,318.4063 L463.5,321.4063 L460.5,321.4063 L460.5,323.4063 L463.5,323.4063 L463.5,326.4063 L465.5,326.4063 L465.5,323.4063 L468.5,323.4063 L468.5,321.4063 L465.5,321.4063 L465.5,318.4063 L463.5,318.4063 " fill="#000000" style="stroke: ; stroke-width: 0.0; stroke-dasharray: ;"/><rect fill="#EEEEEE" height="12" rx="5" ry="5" style="stroke: #000000; stroke-width: 2.5;" width="20" x="481.5" y="316.4063"/><path d="M488.906,318.4063 L487.5,319.8123 L488.188,320.5313 L489.969,322.3123 L488.188,324.0933 L487.5,324.8123 L488.906,326.2183 L489.625,325.5303 L491.406,323.7493 L493.187,325.5303 L493.906,326.2183 L495.312,324.8123 L494.624,324.0933 L492.843,322.3123 L494.624,320.5313 L495.312,319.8123 L493.906,318.4063 L493.187,319.0943 L491.406,320.8753 L489.625,319.0943 L488.906,318.4063 " fill="#000000" style="stroke: ; stroke-width: 0.0; stroke-dasharray: ;"/><rect fill="#EEEEEE" height="17.9688" rx="5" ry="5" style="stroke: #000000; stroke-width: 2.5;" width="132" x="511.5" y="283.4688"/><text fill="#000000" font-family="sans-serif" font-size="12" lengthAdjust="spacingAndGlyphs" textLength="57" x="538.5" y="296.6074">Lundi 02-</text><text fill="#000000" font-family="sans-serif" font-size="12" font-style="italic" lengthAdjust="spacingAndGlyphs" textLength="17" x="599.5" y="296.6074">NA</text><rect fill="#EEEEEE" height="17.9688" rx="5" ry="5" style="stroke: #000000; stroke-width: 2.5;" width="132" x="650.5" y="283.4688"/><text fill="#000000" font-family="sans-serif" font-size="12" lengthAdjust="spacingAndGlyphs" textLength="54" x="689.5" y="296.6074">Mardi 03</text><rect fill="#EEEEEE" height="17.9688" rx="5" ry="5" style="stroke: #000000; stroke-width: 2.5;" width="148" x="789.5" y="283.4688"/><text fill="#000000" font-family="sans-serif" font-size="12" lengthAdjust="spacingAndGlyphs" textLength="78" x="814.5" y="296.6074">Mercredi 04-</text><text fill="#000000" font-family="sans-serif" font-size="12" font-style="italic" lengthAdjust="spacingAndGlyphs" textLength="16" x="896.5" y="296.6074">LD</text><rect fill="#EEEEEE" height="17.9688" rx="5" ry="5" style="stroke: #000000; stroke-width: 2.5;" width="156" x="944.5" y="283.4688"/><text fill="#000000" font-family="sans-serif" font-size="12" font-weight="bold" lengthAdjust="spacingAndGlyphs" textLength="60" x="981" y="296.6074">Jeudi 05-</text><text fill="#000000" font-family="sans-serif" font-size="12" font-style="italic" font-weight="bold" lengthAdjust="spacingAndGlyphs" textLength="19" x="1045" y="296.6074">NA</text><rect fill="#EEEEEE" height="17.9688" rx="5" ry="5" style="stroke: #000000; stroke-width: 2.5;" width="100" x="1107.5" y="283.4688"/><text fill="#000000" font-family="sans-serif" font-size="12" lengthAdjust="spacingAndGlyphs" textLength="76" x="1119.5" y="296.6074">Vendredi 06</text><rect fill="#EEEEEE" height="17.9688" rx="5" ry="5" style="stroke: #000000; stroke-width: 2.5;" width="84" x="1214.5" y="283.4688"/><text fill="#000000" font-family="sans-serif" font-size="12" lengthAdjust="spacingAndGlyphs" textLength="66" x="1223.5" y="296.6074">Samedi 07</text><rect fill="#EEEEEE" height="17.9688" rx="5" ry="5" style="stroke: #000000; stroke-width: 2.5;" width="92" x="1305.5" y="283.4688"/><text fill="#000000" font-family="sans-serif" font-size="12" lengthAdjust="spacingAndGlyphs" textLength="82" x="1310.5" y="296.6074">Dimanche 08</text><rect fill="#EEEEEE" height="17.9688" rx="5" ry="5" style="stroke: #000000; stroke-width: 2.5;" width="12" x="512.5" y="309.4375"/><text fill="#000000" font-family="sans-serif" font-size="12" lengthAdjust="spacingAndGlyphs" textLength="0" x="520.5" y="322.5762"/><rect fill="#EEEEEE" height="12" rx="5" ry="5" style="stroke: #000000; stroke-width: 2.5;" width="20" x="531.5" y="309.4375"/><path d="M541.531,312.4375 C539.001,312.4375 537.5,315.4375 537.5,315.4375 C537.5,315.4375 539.001,318.4375 541.531,318.4375 C544.001,318.4375 545.5,315.4375 545.5,315.4375 C545.5,315.4375 544.001,312.4375 541.531,312.4375 M541.5,313.4375 C542.6,313.4375 543.5,314.3375 543.5,315.4375 C543.5,316.5375 542.6,317.4375 541.5,317.4375 C540.4,317.4375 539.5,316.5375 539.5,315.4375 C539.5,314.3375 540.4,313.4375 541.5,313.4375 M541.5,314.4375 C540.95,314.4375 540.5,314.8875 540.5,315.4375 C540.5,315.9875 540.95,316.4375 541.5,316.4375 C542.05,316.4375 542.5,315.9875 542.5,315.4375 C542.5,315.3375 542.468,315.2465 542.437,315.1565 C542.357,315.3165 542.2,315.4375 541.999,315.4375 C541.719,315.4375 541.499,315.2175 541.499,314.9375 C541.499,314.7375 541.62,314.5805 541.78,314.4995 C541.69,314.4695 541.599,314.4365 541.499,314.4365 " fill="#000000" style="stroke: ; stroke-width: 0.0; stroke-dasharray: ;"/><rect fill="#EEEEEE" height="17.9688" rx="5" ry="5" style="stroke: #000000; stroke-width: 2.5;" width="12" x="651.5" y="309.4375"/><text fill="#000000" font-family="sans-serif" font-size="12" lengthAdjust="spacingAndGlyphs" textLength="0" x="659.5" y="322.5762"/><path d="M673.031,307.9375 C670.501,307.9375 669,310.9375 669,310.9375 C669,310.9375 670.501,313.9375 673.031,313.9375 C675.501,313.9375 677,310.9375 677,310.9375 C677,310.9375 675.501,307.9375 673.031,307.9375 M673,308.9375 C674.1,308.9375 675,309.8375 675,310.9375 C675,312.0375 674.1,312.9375 673,312.9375 C671.9,312.9375 671,312.0375 671,310.9375 C671,309.8375 671.9,308.9375 673,308.9375 M673,309.9375 C672.45,309.9375 672,310.3875 672,310.9375 C672,311.4875 672.45,311.9375 673,311.9375 C673.55,311.9375 674,311.4875 674,310.9375 C674,310.8375 673.968,310.7465 673.937,310.6565 C673.857,310.8165 673.7,310.9375 673.499,310.9375 C673.219,310.9375 672.999,310.7175 672.999,310.4375 C672.999,310.2375 673.12,310.0805 673.28,309.9995 C673.19,309.9695 673.099,309.9365 672.999,309.9365 " fill="#000000" style="stroke: ; stroke-width: 0.0; stroke-dasharray: ;"/><rect fill="#EEEEEE" height="17.9688" rx="5" ry="5" style="stroke: #000000; stroke-width: 2.5;" width="12" x="790.5" y="309.4375"/><text fill="#000000" font-family="sans-serif" font-size="12" lengthAdjust="spacingAndGlyphs" textLength="7" x="793" y="322.5762">X</text><rect fill="#EEEEEE" height="12" rx="5" ry="5" style="stroke: #000000; stroke-width: 2.5;" width="20" x="809.5" y="309.4375"/><path d="M819.531,312.4375 C817.001,312.4375 815.5,315.4375 815.5,315.4375 C815.5,315.4375 817.001,318.4375 819.531,318.4375 C822.001,318.4375 823.5,315.4375 823.5,315.4375 C823.5,315.4375 822.001,312.4375 819.531,312.4375 M819.5,313.4375 C820.6,313.4375 821.5,314.3375 821.5,315.4375 C821.5,316.5375 820.6,317.4375 819.5,317.4375 C818.4,317.4375 817.5,316.5375 817.5,315.4375 C817.5,314.3375 818.4,313.4375 819.5,313.4375 M819.5,314.4375 C818.95,314.4375 818.5,314.8875 818.5,315.4375 C818.5,315.9875 818.95,316.4375 819.5,316.4375 C820.05,316.4375 820.5,315.9875 820.5,315.4375 C820.5,315.3375 820.468,315.2465 820.437,315.1565 C820.357,315.3165 820.2,315.4375 819.999,315.4375 C819.719,315.4375 819.499,315.2175 819.499,314.9375 C819.499,314.7375 819.62,314.5805 819.78,314.4995 C819.69,314.4695 819.599,314.4365 819.499,314.4365 " fill="#000000" style="stroke: ; stroke-width: 0.0; stroke-dasharray: ;"/><rect fill="#EEEEEE" height="17.9688" rx="5" ry="5" style="stroke: #000000; stroke-width: 2.5;" width="12" x="945.5" y="309.4375"/><text fill="#000000" font-family="sans-serif" font-size="12" lengthAdjust="spacingAndGlyphs" textLength="7" x="948" y="322.5762">X</text><path d="M967.031,307.9375 C964.501,307.9375 963,310.9375 963,310.9375 C963,310.9375 964.501,313.9375 967.031,313.9375 C969.501,313.9375 971,310.9375 971,310.9375 C971,310.9375 969.501,307.9375 967.031,307.9375 M967,308.9375 C968.1,308.9375 969,309.8375 969,310.9375 C969,312.0375 968.1,312.9375 967,312.9375 C965.9,312.9375 965,312.0375 965,310.9375 C965,309.8375 965.9,308.9375 967,308.9375 M967,309.9375 C966.45,309.9375 966,310.3875 966,310.9375 C966,311.4875 966.45,311.9375 967,311.9375 C967.55,311.9375 968,311.4875 968,310.9375 C968,310.8375 967.968,310.7465 967.937,310.6565 C967.857,310.8165 967.7,310.9375 967.499,310.9375 C967.219,310.9375 966.999,310.7175 966.999,310.4375 C966.999,310.2375 967.12,310.0805 967.28,309.9995 C967.19,309.9695 967.099,309.9365 966.999,309.9365 " fill="#000000" style="stroke: ; stroke-width: 0.0; stroke-dasharray: ;"/><rect fill="#EEEEEE" height="17.9688" rx="5" ry="5" style="stroke: #000000; stroke-width: 2.5;" width="12" x="1108.5" y="309.4375"/><text fill="#000000" font-family="sans-serif" font-size="12" lengthAdjust="spacingAndGlyphs" textLength="0" x="1116.5" y="322.5762"/><path d="M1130.031,307.9375 C1127.501,307.9375 1126,310.9375 1126,310.9375 C1126,310.9375 1127.501,313.9375 1130.031,313.9375 C1132.501,313.9375 1134,310.9375 1134,310.9375 C1134,310.9375 1132.501,307.9375 1130.031,307.9375 M1130,308.9375 C1131.1,308.9375 1132,309.8375 1132,310.9375 C1132,312.0375 1131.1,312.9375 1130,312.9375 C1128.9,312.9375 1128,312.0375 1128,310.9375 C1128,309.8375 1128.9,308.9375 1130,308.9375 M1130,309.9375 C1129.45,309.9375 1129,310.3875 1129,310.9375 C1129,311.4875 1129.45,311.9375 1130,311.9375 C1130.55,311.9375 1131,311.4875 1131,310.9375 C1131,310.8375 1130.968,310.7465 1130.937,310.6565 C1130.857,310.8165 1130.7,310.9375 1130.499,310.9375 C1130.219,310.9375 1129.999,310.7175 1129.999,310.4375 C1129.999,310.2375 1130.12,310.0805 1130.28,309.9995 C1130.19,309.9695 1130.099,309.9365 1129.999,309.9365 " fill="#000000" style="stroke: ; stroke-width: 0.0; stroke-dasharray: ;"/><rect fill="#EEEEEE" height="17.9688" rx="5" ry="5" style="stroke: #000000; stroke-width: 2.5;" width="12" x="1215.5" y="309.4375"/><text fill="#000000" font-family="sans-serif" font-size="12" lengthAdjust="spacingAndGlyphs" textLength="0" x="1223.5" y="322.5762"/><path d="M1237.031,307.9375 C1234.501,307.9375 1233,310.9375 1233,310.9375 C1233,310.9375 1234.501,313.9375 1237.031,313.9375 C1239.501,313.9375 1241,310.9375 1241,310.9375 C1241,310.9375 1239.501,307.9375 1237.031,307.9375 M1237,308.9375 C1238.1,308.9375 1239,309.8375 1239,310.9375 C1239,312.0375 1238.1,312.9375 1237,312.9375 C1235.9,312.9375 1235,312.0375 1235,310.9375 C1235,309.8375 1235.9,308.9375 1237,308.9375 M1237,309.9375 C1236.45,309.9375 1236,310.3875 1236,310.9375 C1236,311.4875 1236.45,311.9375 1237,311.9375 C1237.55,311.9375 1238,311.4875 1238,310.9375 C1238,310.8375 1237.968,310.7465 1237.937,310.6565 C1237.857,310.8165 1237.7,310.9375 1237.499,310.9375 C1237.219,310.9375 1236.999,310.7175 1236.999,310.4375 C1236.999,310.2375 1237.12,310.0805 1237.28,309.9995 C1237.19,309.9695 1237.099,309.9365 1236.999,309.9365 " fill="#000000" style="stroke: ; stroke-width: 0.0; stroke-dasharray: ;"/><rect fill="#EEEEEE" height="17.9688" rx="5" ry="5" style="stroke: #000000; stroke-width: 2.5;" width="12" x="1306.5" y="309.4375"/><text fill="#000000" font-family="sans-serif" font-size="12" lengthAdjust="spacingAndGlyphs" textLength="0" x="1314.5" y="322.5762"/><path d="M1328.031,307.9375 C1325.501,307.9375 1324,310.9375 1324,310.9375 C1324,310.9375 1325.501,313.9375 1328.031,313.9375 C1330.501,313.9375 1332,310.9375 1332,310.9375 C1332,310.9375 1330.501,307.9375 1328.031,307.9375 M1328,308.9375 C1329.1,308.9375 1330,309.8375 1330,310.9375 C1330,312.0375 1329.1,312.9375 1328,312.9375 C1326.9,312.9375 1326,312.0375 1326,310.9375 C1326,309.8375 1326.9,308.9375 1328,308.9375 M1328,309.9375 C1327.45,309.9375 1327,310.3875 1327,310.9375 C1327,311.4875 1327.45,311.9375 1328,311.9375 C1328.55,311.9375 1329,311.4875 1329,310.9375 C1329,310.8375 1328.968,310.7465 1328.937,310.6565 C1328.857,310.8165 1328.7,310.9375 1328.499,310.9375 C1328.219,310.9375 1327.999,310.7175 1327.999,310.4375 C1327.999,310.2375 1328.12,310.0805 1328.28,309.9995 C1328.19,309.9695 1328.099,309.9365 1327.999,309.9365 " fill="#000000" style="stroke: ; stroke-width: 0.0; stroke-dasharray: ;"/><line style="stroke: #000000; stroke-width: 1.0;" x1="6" x2="507" y1="278.9688" y2="278.9688"/><line style="stroke: #000000; stroke-width: 1.0;" x1="507" x2="1402" y1="336.875" y2="336.875"/><line style="stroke: #000000; stroke-width: 1.0;" x1="507" x2="1402" y1="278.9688" y2="278.9688"/><line style="stroke: #000000; stroke-width: 1.0;" x1="6" x2="507" y1="336.875" y2="336.875"/><line style="stroke: #000000; stroke-width: 1.0;" x1="6" x2="6" y1="278.9688" y2="336.875"/><line style="stroke: #000000; stroke-width: 1.0;" x1="1402" x2="1402" y1="278.9688" y2="336.875"/><rect fill="#EEEEEE" height="17.9688" rx="5" ry="5" style="stroke: #000000; stroke-width: 2.5;" width="140" x="16.5" y="343.375"/><text fill="#000000" font-family="sans-serif" font-size="12" lengthAdjust="spacingAndGlyphs" textLength="107" x="33" y="356.5137">Ajouter un navire</text><rect fill="#EEEEEE" height="17.9688" rx="5" ry="5" style="stroke: #000000; stroke-width: 2.5;" width="148" x="163.5" y="343.375"/><text fill="#000000" font-family="sans-serif" font-size="12" lengthAdjust="spacingAndGlyphs" textLength="112" x="181.5" y="356.5137">Annuler le dernier</text><line style="stroke: #AAAAAA; stroke-width: 1.0; stroke-dasharray: 1.0,2.0;" x1="6" x2="1403" y1="371.3438" y2="371.3438"/><rect fill="#EEEEEE" height="17.9688" rx="5" ry="5" style="stroke: #000000; stroke-width: 2.5;" width="92" x="9.5" y="379.3438"/><text fill="#000000" font-family="sans-serif" font-size="12" lengthAdjust="spacingAndGlyphs" textLength="80" x="15.5" y="392.4824">Sauvegarder</text></g></svg>