<?xml version="1.0" encoding="UTF-8" standalone="no"?><svg xmlns="http://www.w3.org/2000/svg" xmlns:xlink="http://www.w3.org/1999/xlink" contentStyleType="text/css" height="641px" preserveAspectRatio="none" style="width:727px;height:641px;background:#FFFFFF;" version="1.1" viewBox="0 0 727 641" width="727px" zoomAndPan="magnify"><defs/><g><text fill="#000000" font-family="sans-serif" font-size="12" font-weight="bold" lengthAdjust="spacing" textLength="377" x="6" y="18.8281">Weekly report of activity 02/02/2019 00:00 - LS-AF - Anse Forban</text><line style="stroke:#AAAAAA;stroke-width:1.0;stroke-dasharray:1.0,2.0;" x1="6" x2="654" y1="27.8441" y2="27.8441"/><text fill="#000000" font-family="sans-serif" font-size="12" lengthAdjust="spacing" textLength="119" x="8" y="45.1722">Information générale</text><line style="stroke:#000000;stroke-width:1.0;" x1="6" x2="6" y1="32.3441" y2="48.6882"/><line style="stroke:#000000;stroke-width:1.0;" x1="6" x2="130" y1="32.3441" y2="32.3441"/><line style="stroke:#000000;stroke-width:1.0;" x1="130" x2="130" y1="32.3441" y2="48.6882"/><line style="stroke:#000000;stroke-width:1.0;" x1="130" x2="140" y1="48.6882" y2="48.6882"/><text fill="#000000" font-family="sans-serif" font-size="12" lengthAdjust="spacing" textLength="116" x="142" y="45.1722">Situation des navires</text><line style="stroke:#000000;stroke-width:1.0;" x1="140" x2="140" y1="32.3441" y2="48.6882"/><line style="stroke:#000000;stroke-width:1.0;" x1="140" x2="261" y1="32.3441" y2="32.3441"/><line style="stroke:#000000;stroke-width:1.0;" x1="261" x2="261" y1="32.3441" y2="48.6882"/><line style="stroke:#000000;stroke-width:1.0;" x1="261" x2="271" y1="48.6882" y2="48.6882"/><text fill="#000000" font-family="sans-serif" font-size="12" font-weight="bold" lengthAdjust="spacing" textLength="123" x="273" y="45.1722">Activités des navires</text><line style="stroke:#000000;stroke-width:1.0;" x1="271" x2="271" y1="32.3441" y2="48.6882"/><line style="stroke:#000000;stroke-width:1.0;" x1="271" x2="399" y1="32.3441" y2="32.3441"/><line style="stroke:#000000;stroke-width:1.0;" x1="399" x2="399" y1="32.3441" y2="48.6882"/><line style="stroke:#000000;stroke-width:1.0;" x1="399" x2="409" y1="48.6882" y2="48.6882"/><path d="M656,50.6882 L656,52.6882 L663,52.6882 L663,50.6882 L656,50.6882 M656,53.6882 L656,58.5982 C656,58.6482 656.04,58.6882 656.09,58.6882 L662.9,58.6882 C662.95,58.6882 662.99,58.6482 662.99,58.5982 L662.99,53.6882 L655.99,53.6882 M657,54.6882 L658,54.6882 L658,55.6882 L657,55.6882 L657,54.6882 M659,54.6882 L660,54.6882 L660,55.6882 L659,55.6882 L659,54.6882 M661,54.6882 L662,54.6882 L662,55.6882 L661,55.6882 L661,54.6882 M657,56.6882 L658,56.6882 L658,57.6882 L657,57.6882 L657,56.6882 M659,56.6882 L660,56.6882 L660,57.6882 L659,57.6882 L659,56.6882 " fill="#000000" style="stroke:;stroke-width:0.0;stroke-dasharray:;"/><rect fill="#EEEEEE" height="20.3441" rx="5" ry="5" style="stroke:#000000;stroke-width:2.5;" width="52" x="669.5" y="53.1882"/><text fill="#000000" font-family="sans-serif" font-size="12" lengthAdjust="spacing" textLength="41" x="675" y="68.0163">Fermer</text><text fill="#000000" font-family="sans-serif" font-size="16" font-weight="bold" lengthAdjust="spacing" textLength="62" x="8" y="97.1364">Navire :</text><rect fill="#EEEEEE" height="24.792" style="stroke:#000000;stroke-width:1.0;" width="295" x="73" y="81.0323"/><text fill="#000000" font-family="sans-serif" font-size="16" lengthAdjust="spacing" textLength="95" x="75" y="100.1364">SZ190 - Ziblo</text><line style="stroke:#000000;stroke-width:1.0;" x1="357" x2="357" y1="81.0323" y2="105.8244"/><polygon fill="#000000" points="360,87.0323,366,87.0323,363,100.8244" style="stroke:#000000;stroke-width:1.0;"/><rect fill="#EEEEEE" height="20.3441" rx="5" ry="5" style="stroke:#000000;stroke-width:2.5;" width="92" x="10.5" y="114.3244"/><text fill="#000000" font-family="sans-serif" font-size="12" lengthAdjust="spacing" textLength="37" x="29" y="129.1525">Lundi -</text><text fill="#000000" font-family="sans-serif" font-size="12" font-style="italic" lengthAdjust="spacing" textLength="15" x="69" y="129.1525">NA</text><rect fill="#EEEEEE" height="20.3441" rx="5" ry="5" style="stroke:#000000;stroke-width:2.5;" width="84" x="109.5" y="114.3244"/><text fill="#000000" font-family="sans-serif" font-size="12" lengthAdjust="spacing" textLength="40" x="124" y="129.1525">Mardi -</text><text fill="#000000" font-family="sans-serif" font-size="12" font-style="italic" lengthAdjust="spacing" textLength="12" x="167" y="129.1525">IN</text><rect fill="#EEEEEE" height="20.3441" rx="5" ry="5" style="stroke:#000000;stroke-width:2.5;" width="108" x="200.5" y="114.3244"/><text fill="#000000" font-family="sans-serif" font-size="12" lengthAdjust="spacing" textLength="58" x="217" y="129.1525">Mercredi -</text><text fill="#000000" font-family="sans-serif" font-size="12" font-style="italic" lengthAdjust="spacing" textLength="14" x="278" y="129.1525">LD</text><rect fill="#EEEEEE" height="20.3441" rx="5" ry="5" style="stroke:#000000;stroke-width:2.5;" width="92" x="315.5" y="114.3244"/><text fill="#000000" font-family="sans-serif" font-size="12" font-weight="bold" lengthAdjust="spacing" textLength="38" x="333.5" y="129.1525">Jeudi -</text><text fill="#000000" font-family="sans-serif" font-size="12" font-style="italic" font-weight="bold" lengthAdjust="spacing" textLength="15" x="374.5" y="129.1525">NS</text><rect fill="#EEEEEE" height="20.3441" rx="5" ry="5" style="stroke:#000000;stroke-width:2.5;" width="84" x="414.5" y="114.3244"/><text fill="#000000" font-family="sans-serif" font-size="12" lengthAdjust="spacing" textLength="50" x="431.5" y="129.1525">Vendredi</text><rect fill="#EEEEEE" height="20.3441" rx="5" ry="5" style="stroke:#000000;stroke-width:2.5;" width="68" x="505.5" y="114.3244"/><text fill="#000000" font-family="sans-serif" font-size="12" lengthAdjust="spacing" textLength="42" x="518.5" y="129.1525">Samedi</text><rect fill="#EEEEEE" height="20.3441" rx="5" ry="5" style="stroke:#000000;stroke-width:2.5;" width="68" x="580.5" y="114.3244"/><text fill="#000000" font-family="sans-serif" font-size="12" lengthAdjust="spacing" textLength="57" x="586" y="129.1525">Dimanche</text><text fill="#000000" font-family="sans-serif" font-size="12" lengthAdjust="spacing" textLength="64" x="378" y="153.9966">Fishing Trip</text><text fill="#000000" font-family="sans-serif" font-size="12" lengthAdjust="spacing" textLength="47" x="9" y="173.3407">Metier*:</text><rect fill="#EEEEEE" height="19.3441" style="stroke:#000000;stroke-width:1.0;" width="255" x="59" y="161.5126"/><text fill="#000000" font-family="sans-serif" font-size="12" lengthAdjust="spacing" textLength="165" x="61" y="176.3407">FIXABSX - Active trap for Vyey</text><line style="stroke:#000000;stroke-width:1.0;" x1="303" x2="303" y1="161.5126" y2="180.8567"/><polygon fill="#000000" points="306,167.5126,312,167.5126,309,175.8567" style="stroke:#000000;stroke-width:1.0;"/><rect fill="#EEEEEE" height="12" rx="5" ry="5" style="stroke:#000000;stroke-width:2.5;" width="20" x="320.5" y="163.0126"/><path d="M327.91,165.0126 L326.5,166.4226 L327.22,167.1426 L329,168.9526 L327.22,170.7326 L326.5,171.4226 L327.91,172.8626 L328.63,172.1426 L330.44,170.3326 L332.22,172.1426 L332.91,172.8626 L334.35,171.4226 L333.63,170.7326 L331.82,168.9526 L333.63,167.1426 L334.35,166.4226 L332.91,165.0126 L332.22,165.7326 L330.44,167.5126 L328.63,165.7326 L327.91,165.0126 " fill="#000000" style="stroke:;stroke-width:0.0;stroke-dasharray:;"/><rect fill="#EEEEEE" height="12" rx="5" ry="5" style="stroke:#000000;stroke-width:2.5;" width="20" x="380.5" y="162.0126"/><path d="M390.53,164.0126 C388,164.0126 386.5,167.0126 386.5,167.0126 C386.5,167.0126 388,170.0126 390.53,170.0126 C393,170.0126 394.5,167.0126 394.5,167.0126 C394.5,167.0126 393,164.0126 390.53,164.0126 M390.5,165.0126 C391.61,165.0126 392.5,165.9126 392.5,167.0126 C392.5,168.1226 391.61,169.0126 390.5,169.0126 C389.4,169.0126 388.5,168.1226 388.5,167.0126 C388.5,165.9126 389.4,165.0126 390.5,165.0126 M390.5,166.0126 C389.95,166.0126 389.5,166.4626 389.5,167.0126 C389.5,167.5626 389.95,168.0126 390.5,168.0126 C391.05,168.0126 391.5,167.5626 391.5,167.0126 C391.5,166.9126 391.46,166.8226 391.44,166.7326 C391.36,166.8926 391.2,167.0126 391,167.0126 C390.72,167.0126 390.5,166.7926 390.5,166.5126 C390.5,166.3126 390.62,166.1526 390.78,166.0726 C390.69,166.0426 390.6,166.0126 390.5,166.0126 " fill="#000000" style="stroke:;stroke-width:0.0;stroke-dasharray:;"/><text fill="#000000" font-family="sans-serif" font-size="12" lengthAdjust="spacing" textLength="47" x="9" y="199.6848">Metier*:</text><rect fill="#EEEEEE" height="19.3441" style="stroke:#000000;stroke-width:1.0;" width="255" x="59" y="187.8567"/><text fill="#000000" font-family="sans-serif" font-size="12" lengthAdjust="spacing" textLength="107" x="61" y="202.6848">METIER2 - Metier 2</text><line style="stroke:#000000;stroke-width:1.0;" x1="303" x2="303" y1="187.8567" y2="207.2008"/><polygon fill="#000000" points="306,193.8567,312,193.8567,309,202.2008" style="stroke:#000000;stroke-width:1.0;"/><rect fill="#EEEEEE" height="12" rx="5" ry="5" style="stroke:#000000;stroke-width:2.5;" width="20" x="320.5" y="189.3567"/><path d="M329.5,191.3567 L329.5,194.3567 L326.5,194.3567 L326.5,196.3567 L329.5,196.3567 L329.5,199.3567 L331.5,199.3567 L331.5,196.3567 L334.5,196.3567 L334.5,194.3567 L331.5,194.3567 L331.5,191.3567 L329.5,191.3567 " fill="#000000" style="stroke:;stroke-width:0.0;stroke-dasharray:;"/><rect fill="#EEEEEE" height="12" rx="5" ry="5" style="stroke:#000000;stroke-width:2.5;" width="20" x="347.5" y="189.3567"/><path d="M354.91,191.3567 L353.5,192.7667 L354.22,193.4867 L356,195.2967 L354.22,197.0767 L353.5,197.7667 L354.91,199.2067 L355.63,198.4867 L357.44,196.6767 L359.22,198.4867 L359.91,199.2067 L361.35,197.7667 L360.63,197.0767 L358.82,195.2967 L360.63,193.4867 L361.35,192.7667 L359.91,191.3567 L359.22,192.0767 L357.44,193.8567 L355.63,192.0767 L354.91,191.3567 " fill="#000000" style="stroke:;stroke-width:0.0;stroke-dasharray:;"/><path d="M383.03,185.8567 C380.5,185.8567 379,188.8567 379,188.8567 C379,188.8567 380.5,191.8567 383.03,191.8567 C385.5,191.8567 387,188.8567 387,188.8567 C387,188.8567 385.5,185.8567 383.03,185.8567 M383,186.8567 C384.11,186.8567 385,187.7567 385,188.8567 C385,189.9667 384.11,190.8567 383,190.8567 C381.9,190.8567 381,189.9667 381,188.8567 C381,187.7567 381.9,186.8567 383,186.8567 M383,187.8567 C382.45,187.8567 382,188.3067 382,188.8567 C382,189.4067 382.45,189.8567 383,189.8567 C383.55,189.8567 384,189.4067 384,188.8567 C384,188.7567 383.96,188.6667 383.94,188.5767 C383.86,188.7367 383.7,188.8567 383.5,188.8567 C383.22,188.8567 383,188.6367 383,188.3567 C383,188.1567 383.12,187.9967 383.28,187.9167 C383.19,187.8867 383.1,187.8567 383,187.8567 " fill="#000000" style="stroke:;stroke-width:0.0;stroke-dasharray:;"/><rect fill="#EEEEEE" height="20.3441" rx="5" ry="5" style="stroke:#000000;stroke-width:2.5;" width="140" x="17.5" y="235.045"/><text fill="#000000" font-family="sans-serif" font-size="12" lengthAdjust="spacing" textLength="96" x="39.5" y="249.873">Ajouter un navire</text><rect fill="#EEEEEE" height="20.3441" rx="5" ry="5" style="stroke:#000000;stroke-width:2.5;" width="140" x="164.5" y="235.045"/><text fill="#000000" font-family="sans-serif" font-size="12" lengthAdjust="spacing" textLength="95" x="187" y="249.873">Annuler le navire</text><line style="stroke:#000000;stroke-width:1.0;" x1="7" x2="372" y1="140.1685" y2="140.1685"/><line style="stroke:#000000;stroke-width:1.0;" x1="372" x2="377" y1="140.1685" y2="140.1685"/><line style="stroke:#000000;stroke-width:1.0;" x1="377" x2="443" y1="140.1685" y2="140.1685"/><line style="stroke:#000000;stroke-width:1.0;" x1="7" x2="372" y1="260.8891" y2="260.8891"/><line style="stroke:#000000;stroke-width:1.0;" x1="372" x2="377" y1="260.8891" y2="260.8891"/><line style="stroke:#000000;stroke-width:1.0;" x1="377" x2="443" y1="260.8891" y2="260.8891"/><line style="stroke:#000000;stroke-width:1.0;" x1="7" x2="7" y1="140.1685" y2="158.5126"/><line style="stroke:#000000;stroke-width:1.0;" x1="443" x2="443" y1="211.2008" y2="229.545"/><line style="stroke:#000000;stroke-width:1.0;" x1="443" x2="443" y1="184.8567" y2="211.2008"/><line style="stroke:#000000;stroke-width:1.0;" x1="443" x2="443" y1="158.5126" y2="184.8567"/><line style="stroke:#000000;stroke-width:1.0;" x1="443" x2="443" y1="140.1685" y2="158.5126"/><line style="stroke:#000000;stroke-width:1.0;" x1="7" x2="7" y1="229.545" y2="260.8891"/><line style="stroke:#000000;stroke-width:1.0;" x1="7" x2="7" y1="211.2008" y2="229.545"/><line style="stroke:#000000;stroke-width:1.0;" x1="7" x2="7" y1="184.8567" y2="211.2008"/><line style="stroke:#000000;stroke-width:1.0;" x1="7" x2="7" y1="158.5126" y2="184.8567"/><line style="stroke:#000000;stroke-width:1.0;" x1="443" x2="443" y1="229.545" y2="260.8891"/><line style="stroke:#000000;stroke-width:1.0;" x1="6" x2="653" y1="78.0323" y2="78.0323"/><line style="stroke:#000000;stroke-width:1.0;" x1="6" x2="653" y1="261.8891" y2="261.8891"/><line style="stroke:#000000;stroke-width:1.0;" x1="6" x2="6" y1="78.0323" y2="109.8244"/><line style="stroke:#000000;stroke-width:1.0;" x1="653" x2="653" y1="109.8244" y2="139.1685"/><line style="stroke:#000000;stroke-width:1.0;" x1="653" x2="653" y1="78.0323" y2="109.8244"/><line style="stroke:#000000;stroke-width:1.0;" x1="6" x2="6" y1="139.1685" y2="261.8891"/><line style="stroke:#000000;stroke-width:1.0;" x1="6" x2="6" y1="109.8244" y2="139.1685"/><line style="stroke:#000000;stroke-width:1.0;" x1="653" x2="653" y1="139.1685" y2="261.8891"/><text fill="#000000" font-family="sans-serif" font-size="12" lengthAdjust="spacing" textLength="47" x="9" y="298.0613">Metier*:</text><rect fill="#EEEEEE" height="19.3441" style="stroke:#000000;stroke-width:1.0;" width="255" x="59" y="286.2332"/><text fill="#000000" font-family="sans-serif" font-size="12" lengthAdjust="spacing" textLength="165" x="61" y="301.0613">FIXABSX - Active trap for Vyey</text><line style="stroke:#000000;stroke-width:1.0;" x1="303" x2="303" y1="286.2332" y2="305.5773"/><polygon fill="#000000" points="306,292.2332,312,292.2332,309,300.5773" style="stroke:#000000;stroke-width:1.0;"/><text fill="#000000" font-family="sans-serif" font-size="12" lengthAdjust="spacing" textLength="97" x="337" y="299.0613">Valeur par défaut</text><rect fill="none" height="10" style="stroke:#000000;stroke-width:1.5;" width="10" x="319" y="289.4052"/><rect fill="#EEEEEE" height="12" rx="5" ry="5" style="stroke:#000000;stroke-width:2.5;" width="20" x="439.5" y="287.7332"/><path d="M448.5,289.7332 L448.5,292.7332 L445.5,292.7332 L445.5,294.7332 L448.5,294.7332 L448.5,297.7332 L450.5,297.7332 L450.5,294.7332 L453.5,294.7332 L453.5,292.7332 L450.5,292.7332 L450.5,289.7332 L448.5,289.7332 " fill="#000000" style="stroke:;stroke-width:0.0;stroke-dasharray:;"/><rect fill="#EEEEEE" height="12" rx="5" ry="5" style="stroke:#000000;stroke-width:2.5;" width="20" x="466.5" y="287.7332"/><path d="M473.91,289.7332 L472.5,291.1432 L473.22,291.8632 L475,293.6732 L473.22,295.4532 L472.5,296.1432 L473.91,297.5832 L474.63,296.8632 L476.44,295.0532 L478.22,296.8632 L478.91,297.5832 L480.35,296.1432 L479.63,295.4532 L477.82,293.6732 L479.63,291.8632 L480.35,291.1432 L478.91,289.7332 L478.22,290.4532 L476.44,292.2332 L474.63,290.4532 L473.91,289.7332 " fill="#000000" style="stroke:;stroke-width:0.0;stroke-dasharray:;"/><text fill="#000000" font-family="sans-serif" font-size="12" lengthAdjust="spacing" textLength="47" x="9" y="324.4054">Metier*:</text><rect fill="#EEEEEE" height="19.3441" style="stroke:#000000;stroke-width:1.0;" width="255" x="59" y="312.5773"/><text fill="#000000" font-family="sans-serif" font-size="12" lengthAdjust="spacing" textLength="107" x="61" y="327.4054">METIER2 - Metier 2</text><line style="stroke:#000000;stroke-width:1.0;" x1="303" x2="303" y1="312.5773" y2="331.9214"/><polygon fill="#000000" points="306,318.5773,312,318.5773,309,326.9214" style="stroke:#000000;stroke-width:1.0;"/><text fill="#000000" font-family="sans-serif" font-size="12" lengthAdjust="spacing" textLength="97" x="337" y="325.4054">Valeur par défaut</text><rect fill="none" height="10" style="stroke:#000000;stroke-width:1.5;" width="10" x="319" y="315.7494"/><rect fill="#EEEEEE" height="12" rx="5" ry="5" style="stroke:#000000;stroke-width:2.5;" width="20" x="439.5" y="314.0773"/><path d="M448.5,316.0773 L448.5,319.0773 L445.5,319.0773 L445.5,321.0773 L448.5,321.0773 L448.5,324.0773 L450.5,324.0773 L450.5,321.0773 L453.5,321.0773 L453.5,319.0773 L450.5,319.0773 L450.5,316.0773 L448.5,316.0773 " fill="#000000" style="stroke:;stroke-width:0.0;stroke-dasharray:;"/><rect fill="#EEEEEE" height="12" rx="5" ry="5" style="stroke:#000000;stroke-width:2.5;" width="20" x="466.5" y="314.0773"/><path d="M473.91,316.0773 L472.5,317.4873 L473.22,318.2073 L475,320.0173 L473.22,321.7973 L472.5,322.4873 L473.91,323.9273 L474.63,323.2073 L476.44,321.3973 L478.22,323.2073 L478.91,323.9273 L480.35,322.4873 L479.63,321.7973 L477.82,320.0173 L479.63,318.2073 L480.35,317.4873 L478.91,316.0773 L478.22,316.7973 L476.44,318.5773 L474.63,316.7973 L473.91,316.0773 " fill="#000000" style="stroke:;stroke-width:0.0;stroke-dasharray:;"/><line style="stroke:#000000;stroke-width:1.0;" x1="7" x2="491" y1="283.2332" y2="283.2332"/><line style="stroke:#000000;stroke-width:1.0;" x1="7" x2="491" y1="354.2655" y2="354.2655"/><line style="stroke:#000000;stroke-width:1.0;" x1="7" x2="7" y1="283.2332" y2="309.5773"/><line style="stroke:#000000;stroke-width:1.0;" x1="491" x2="491" y1="309.5773" y2="335.9214"/><line style="stroke:#000000;stroke-width:1.0;" x1="491" x2="491" y1="283.2332" y2="309.5773"/><line style="stroke:#000000;stroke-width:1.0;" x1="7" x2="7" y1="335.9214" y2="354.2655"/><line style="stroke:#000000;stroke-width:1.0;" x1="7" x2="7" y1="309.5773" y2="335.9214"/><line style="stroke:#000000;stroke-width:1.0;" x1="491" x2="491" y1="335.9214" y2="354.2655"/><rect fill="#EEEEEE" height="20.3441" rx="5" ry="5" style="stroke:#000000;stroke-width:2.5;" width="140" x="16.5" y="360.7655"/><text fill="#000000" font-family="sans-serif" font-size="12" lengthAdjust="spacing" textLength="96" x="38.5" y="375.5936">Ajouter un navire</text><rect fill="#EEEEEE" height="20.3441" rx="5" ry="5" style="stroke:#000000;stroke-width:2.5;" width="140" x="163.5" y="360.7655"/><text fill="#000000" font-family="sans-serif" font-size="12" lengthAdjust="spacing" textLength="95" x="186" y="375.5936">Annuler le navire</text><line style="stroke:#000000;stroke-width:1.0;" x1="6" x2="492" y1="263.8891" y2="263.8891"/><line style="stroke:#000000;stroke-width:1.0;" x1="6" x2="492" y1="386.6096" y2="386.6096"/><line style="stroke:#000000;stroke-width:1.0;" x1="6" x2="6" y1="263.8891" y2="282.2332"/><line style="stroke:#000000;stroke-width:1.0;" x1="492" x2="492" y1="282.2332" y2="355.2655"/><line style="stroke:#000000;stroke-width:1.0;" x1="492" x2="492" y1="263.8891" y2="282.2332"/><line style="stroke:#000000;stroke-width:1.0;" x1="6" x2="6" y1="355.2655" y2="386.6096"/><line style="stroke:#000000;stroke-width:1.0;" x1="6" x2="6" y1="282.2332" y2="355.2655"/><line style="stroke:#000000;stroke-width:1.0;" x1="492" x2="492" y1="355.2655" y2="386.6096"/><text fill="#000000" font-family="sans-serif" font-size="16" font-weight="bold" lengthAdjust="spacing" textLength="62" x="7" y="443.4019">Navire :</text><rect fill="#EEEEEE" height="24.792" style="stroke:#000000;stroke-width:1.0;" width="295" x="72" y="427.2979"/><text fill="#000000" font-family="sans-serif" font-size="16" lengthAdjust="spacing" textLength="62" x="74" y="446.4019">Navire 2</text><line style="stroke:#000000;stroke-width:1.0;" x1="356" x2="356" y1="427.2979" y2="452.0899"/><polygon fill="#000000" points="359,433.2979,365,433.2979,362,447.0899" style="stroke:#000000;stroke-width:1.0;"/><text fill="#000000" font-family="sans-serif" font-size="12" lengthAdjust="spacing" textLength="47" x="9" y="491.2621">Metier*:</text><rect fill="#EEEEEE" height="19.3441" style="stroke:#000000;stroke-width:1.0;" width="159" x="59" y="479.434"/><text fill="#000000" font-family="sans-serif" font-size="12" lengthAdjust="spacing" textLength="107" x="61" y="494.2621">METIER1 - Metier 1</text><line style="stroke:#000000;stroke-width:1.0;" x1="207" x2="207" y1="479.434" y2="498.7781"/><polygon fill="#000000" points="210,485.434,216,485.434,213,493.7781" style="stroke:#000000;stroke-width:1.0;"/><text fill="#000000" font-family="sans-serif" font-size="12" lengthAdjust="spacing" textLength="97" x="241" y="492.2621">Valeur par défaut</text><rect fill="none" height="10" style="stroke:#000000;stroke-width:1.5;" width="10" x="223" y="482.6061"/><rect fill="#EEEEEE" height="12" rx="5" ry="5" style="stroke:#000000;stroke-width:2.5;" width="20" x="343.5" y="480.934"/><path d="M352.5,482.934 L352.5,485.934 L349.5,485.934 L349.5,487.934 L352.5,487.934 L352.5,490.934 L354.5,490.934 L354.5,487.934 L357.5,487.934 L357.5,485.934 L354.5,485.934 L354.5,482.934 L352.5,482.934 " fill="#000000" style="stroke:;stroke-width:0.0;stroke-dasharray:;"/><rect fill="#EEEEEE" height="12" rx="5" ry="5" style="stroke:#000000;stroke-width:2.5;" width="20" x="370.5" y="480.934"/><path d="M377.91,482.934 L376.5,484.344 L377.22,485.064 L379,486.874 L377.22,488.654 L376.5,489.344 L377.91,490.784 L378.63,490.064 L380.44,488.254 L382.22,490.064 L382.91,490.784 L384.35,489.344 L383.63,488.654 L381.82,486.874 L383.63,485.064 L384.35,484.344 L382.91,482.934 L382.22,483.654 L380.44,485.434 L378.63,483.654 L377.91,482.934 " fill="#000000" style="stroke:;stroke-width:0.0;stroke-dasharray:;"/><rect fill="#EEEEEE" height="20.3441" rx="5" ry="5" style="stroke:#000000;stroke-width:2.5;" width="84" x="11.5" y="507.2781"/><text fill="#000000" font-family="sans-serif" font-size="12" lengthAdjust="spacing" textLength="30" x="38.5" y="522.1062">Lundi</text><rect fill="#EEEEEE" height="20.3441" rx="5" ry="5" style="stroke:#000000;stroke-width:2.5;" width="76" x="102.5" y="507.2781"/><text fill="#000000" font-family="sans-serif" font-size="12" lengthAdjust="spacing" textLength="33" x="124" y="522.1062">Mardi</text><rect fill="#EEEEEE" height="20.3441" rx="5" ry="5" style="stroke:#000000;stroke-width:2.5;" width="76" x="185.5" y="507.2781"/><text fill="#000000" font-family="sans-serif" font-size="12" lengthAdjust="spacing" textLength="51" x="198" y="522.1062">Mercredi</text><rect fill="#EEEEEE" height="20.3441" rx="5" ry="5" style="stroke:#000000;stroke-width:2.5;" width="76" x="268.5" y="507.2781"/><text fill="#000000" font-family="sans-serif" font-size="12" lengthAdjust="spacing" textLength="27" x="293" y="522.1062">Jeudi</text><rect fill="#EEEEEE" height="20.3441" rx="5" ry="5" style="stroke:#000000;stroke-width:2.5;" width="76" x="351.5" y="507.2781"/><text fill="#000000" font-family="sans-serif" font-size="12" lengthAdjust="spacing" textLength="50" x="364.5" y="522.1062">Vendredi</text><rect fill="#EEEEEE" height="20.3441" rx="5" ry="5" style="stroke:#000000;stroke-width:2.5;" width="68" x="434.5" y="507.2781"/><text fill="#000000" font-family="sans-serif" font-size="12" lengthAdjust="spacing" textLength="42" x="447.5" y="522.1062">Samedi</text><rect fill="#EEEEEE" height="20.3441" rx="5" ry="5" style="stroke:#000000;stroke-width:2.5;" width="68" x="509.5" y="507.2781"/><text fill="#000000" font-family="sans-serif" font-size="12" lengthAdjust="spacing" textLength="57" x="515" y="522.1062">Dimanche</text><rect fill="#EEEEEE" height="12" rx="5" ry="5" style="stroke:#000000;stroke-width:2.5;" width="20" x="11.5" y="534.6223"/><path d="M21.53,536.6223 C19,536.6223 17.5,539.6223 17.5,539.6223 C17.5,539.6223 19,542.6223 21.53,542.6223 C24,542.6223 25.5,539.6223 25.5,539.6223 C25.5,539.6223 24,536.6223 21.53,536.6223 M21.5,537.6223 C22.61,537.6223 23.5,538.5223 23.5,539.6223 C23.5,540.7323 22.61,541.6223 21.5,541.6223 C20.4,541.6223 19.5,540.7323 19.5,539.6223 C19.5,538.5223 20.4,537.6223 21.5,537.6223 M21.5,538.6223 C20.95,538.6223 20.5,539.0723 20.5,539.6223 C20.5,540.1723 20.95,540.6223 21.5,540.6223 C22.05,540.6223 22.5,540.1723 22.5,539.6223 C22.5,539.5223 22.46,539.4323 22.44,539.3423 C22.36,539.5023 22.2,539.6223 22,539.6223 C21.72,539.6223 21.5,539.4023 21.5,539.1223 C21.5,538.9223 21.62,538.7623 21.78,538.6823 C21.69,538.6523 21.6,538.6223 21.5,538.6223 " fill="#000000" style="stroke:;stroke-width:0.0;stroke-dasharray:;"/><path d="M105.03,532.1223 C102.5,532.1223 101,535.1223 101,535.1223 C101,535.1223 102.5,538.1223 105.03,538.1223 C107.5,538.1223 109,535.1223 109,535.1223 C109,535.1223 107.5,532.1223 105.03,532.1223 M105,533.1223 C106.11,533.1223 107,534.0223 107,535.1223 C107,536.2323 106.11,537.1223 105,537.1223 C103.9,537.1223 103,536.2323 103,535.1223 C103,534.0223 103.9,533.1223 105,533.1223 M105,534.1223 C104.45,534.1223 104,534.5723 104,535.1223 C104,535.6723 104.45,536.1223 105,536.1223 C105.55,536.1223 106,535.6723 106,535.1223 C106,535.0223 105.96,534.9323 105.94,534.8423 C105.86,535.0023 105.7,535.1223 105.5,535.1223 C105.22,535.1223 105,534.9023 105,534.6223 C105,534.4223 105.12,534.2623 105.28,534.1823 C105.19,534.1523 105.1,534.1223 105,534.1223 " fill="#000000" style="stroke:;stroke-width:0.0;stroke-dasharray:;"/><rect fill="#EEEEEE" height="12" rx="5" ry="5" style="stroke:#000000;stroke-width:2.5;" width="20" x="185.5" y="534.6223"/><path d="M195.53,536.6223 C193,536.6223 191.5,539.6223 191.5,539.6223 C191.5,539.6223 193,542.6223 195.53,542.6223 C198,542.6223 199.5,539.6223 199.5,539.6223 C199.5,539.6223 198,536.6223 195.53,536.6223 M195.5,537.6223 C196.61,537.6223 197.5,538.5223 197.5,539.6223 C197.5,540.7323 196.61,541.6223 195.5,541.6223 C194.4,541.6223 193.5,540.7323 193.5,539.6223 C193.5,538.5223 194.4,537.6223 195.5,537.6223 M195.5,538.6223 C194.95,538.6223 194.5,539.0723 194.5,539.6223 C194.5,540.1723 194.95,540.6223 195.5,540.6223 C196.05,540.6223 196.5,540.1723 196.5,539.6223 C196.5,539.5223 196.46,539.4323 196.44,539.3423 C196.36,539.5023 196.2,539.6223 196,539.6223 C195.72,539.6223 195.5,539.4023 195.5,539.1223 C195.5,538.9223 195.62,538.7623 195.78,538.6823 C195.69,538.6523 195.6,538.6223 195.5,538.6223 " fill="#000000" style="stroke:;stroke-width:0.0;stroke-dasharray:;"/><path d="M271.03,532.1223 C268.5,532.1223 267,535.1223 267,535.1223 C267,535.1223 268.5,538.1223 271.03,538.1223 C273.5,538.1223 275,535.1223 275,535.1223 C275,535.1223 273.5,532.1223 271.03,532.1223 M271,533.1223 C272.11,533.1223 273,534.0223 273,535.1223 C273,536.2323 272.11,537.1223 271,537.1223 C269.9,537.1223 269,536.2323 269,535.1223 C269,534.0223 269.9,533.1223 271,533.1223 M271,534.1223 C270.45,534.1223 270,534.5723 270,535.1223 C270,535.6723 270.45,536.1223 271,536.1223 C271.55,536.1223 272,535.6723 272,535.1223 C272,535.0223 271.96,534.9323 271.94,534.8423 C271.86,535.0023 271.7,535.1223 271.5,535.1223 C271.22,535.1223 271,534.9023 271,534.6223 C271,534.4223 271.12,534.2623 271.28,534.1823 C271.19,534.1523 271.1,534.1223 271,534.1223 " fill="#000000" style="stroke:;stroke-width:0.0;stroke-dasharray:;"/><rect fill="#EEEEEE" height="12" rx="5" ry="5" style="stroke:#000000;stroke-width:2.5;" width="20" x="351.5" y="534.6223"/><path d="M361.53,536.6223 C359,536.6223 357.5,539.6223 357.5,539.6223 C357.5,539.6223 359,542.6223 361.53,542.6223 C364,542.6223 365.5,539.6223 365.5,539.6223 C365.5,539.6223 364,536.6223 361.53,536.6223 M361.5,537.6223 C362.61,537.6223 363.5,538.5223 363.5,539.6223 C363.5,540.7323 362.61,541.6223 361.5,541.6223 C360.4,541.6223 359.5,540.7323 359.5,539.6223 C359.5,538.5223 360.4,537.6223 361.5,537.6223 M361.5,538.6223 C360.95,538.6223 360.5,539.0723 360.5,539.6223 C360.5,540.1723 360.95,540.6223 361.5,540.6223 C362.05,540.6223 362.5,540.1723 362.5,539.6223 C362.5,539.5223 362.46,539.4323 362.44,539.3423 C362.36,539.5023 362.2,539.6223 362,539.6223 C361.72,539.6223 361.5,539.4023 361.5,539.1223 C361.5,538.9223 361.62,538.7623 361.78,538.6823 C361.69,538.6523 361.6,538.6223 361.5,538.6223 " fill="#000000" style="stroke:;stroke-width:0.0;stroke-dasharray:;"/><path d="M437.03,532.1223 C434.5,532.1223 433,535.1223 433,535.1223 C433,535.1223 434.5,538.1223 437.03,538.1223 C439.5,538.1223 441,535.1223 441,535.1223 C441,535.1223 439.5,532.1223 437.03,532.1223 M437,533.1223 C438.11,533.1223 439,534.0223 439,535.1223 C439,536.2323 438.11,537.1223 437,537.1223 C435.9,537.1223 435,536.2323 435,535.1223 C435,534.0223 435.9,533.1223 437,533.1223 M437,534.1223 C436.45,534.1223 436,534.5723 436,535.1223 C436,535.6723 436.45,536.1223 437,536.1223 C437.55,536.1223 438,535.6723 438,535.1223 C438,535.0223 437.96,534.9323 437.94,534.8423 C437.86,535.0023 437.7,535.1223 437.5,535.1223 C437.22,535.1223 437,534.9023 437,534.6223 C437,534.4223 437.12,534.2623 437.28,534.1823 C437.19,534.1523 437.1,534.1223 437,534.1223 " fill="#000000" style="stroke:;stroke-width:0.0;stroke-dasharray:;"/><path d="M512.03,532.1223 C509.5,532.1223 508,535.1223 508,535.1223 C508,535.1223 509.5,538.1223 512.03,538.1223 C514.5,538.1223 516,535.1223 516,535.1223 C516,535.1223 514.5,532.1223 512.03,532.1223 M512,533.1223 C513.11,533.1223 514,534.0223 514,535.1223 C514,536.2323 513.11,537.1223 512,537.1223 C510.9,537.1223 510,536.2323 510,535.1223 C510,534.0223 510.9,533.1223 512,533.1223 M512,534.1223 C511.45,534.1223 511,534.5723 511,535.1223 C511,535.6723 511.45,536.1223 512,536.1223 C512.55,536.1223 513,535.6723 513,535.1223 C513,535.0223 512.96,534.9323 512.94,534.8423 C512.86,535.0023 512.7,535.1223 512.5,535.1223 C512.22,535.1223 512,534.9023 512,534.6223 C512,534.4223 512.12,534.2623 512.28,534.1823 C512.19,534.1523 512.1,534.1223 512,534.1223 " fill="#000000" style="stroke:;stroke-width:0.0;stroke-dasharray:;"/><line style="stroke:#000000;stroke-width:1.0;" x1="7" x2="582" y1="476.434" y2="476.434"/><line style="stroke:#000000;stroke-width:1.0;" x1="7" x2="582" y1="569.4664" y2="569.4664"/><line style="stroke:#000000;stroke-width:1.0;" x1="7" x2="7" y1="476.434" y2="502.7781"/><line style="stroke:#000000;stroke-width:1.0;" x1="582" x2="582" y1="502.7781" y2="551.1223"/><line style="stroke:#000000;stroke-width:1.0;" x1="582" x2="582" y1="476.434" y2="502.7781"/><line style="stroke:#000000;stroke-width:1.0;" x1="7" x2="7" y1="551.1223" y2="569.4664"/><line style="stroke:#000000;stroke-width:1.0;" x1="7" x2="7" y1="502.7781" y2="551.1223"/><line style="stroke:#000000;stroke-width:1.0;" x1="582" x2="582" y1="551.1223" y2="569.4664"/><rect fill="#EEEEEE" height="20.3441" rx="5" ry="5" style="stroke:#000000;stroke-width:2.5;" width="140" x="16.5" y="575.9664"/><text fill="#000000" font-family="sans-serif" font-size="12" lengthAdjust="spacing" textLength="96" x="38.5" y="590.7945">Ajouter un navire</text><rect fill="#EEEEEE" height="20.3441" rx="5" ry="5" style="stroke:#000000;stroke-width:2.5;" width="140" x="163.5" y="575.9664"/><text fill="#000000" font-family="sans-serif" font-size="12" lengthAdjust="spacing" textLength="95" x="186" y="590.7945">Annuler le navire</text><line style="stroke:#000000;stroke-width:1.0;" x1="6" x2="583" y1="475.434" y2="475.434"/><line style="stroke:#000000;stroke-width:1.0;" x1="6" x2="583" y1="601.8105" y2="601.8105"/><line style="stroke:#000000;stroke-width:1.0;" x1="6" x2="6" y1="475.434" y2="570.4664"/><line style="stroke:#000000;stroke-width:1.0;" x1="583" x2="583" y1="570.4664" y2="601.8105"/><line style="stroke:#000000;stroke-width:1.0;" x1="583" x2="583" y1="475.434" y2="570.4664"/><line style="stroke:#000000;stroke-width:1.0;" x1="6" x2="6" y1="570.4664" y2="601.8105"/><line style="stroke:#AAAAAA;stroke-width:1.0;stroke-dasharray:1.0,2.0;" x1="6" x2="654" y1="607.3105" y2="607.3105"/><rect fill="#EEEEEE" height="20.3441" rx="5" ry="5" style="stroke:#000000;stroke-width:2.5;" width="92" x="9.5" y="615.3105"/><text fill="#000000" font-family="sans-serif" font-size="12" lengthAdjust="spacing" textLength="72" x="19.5" y="630.1386">Sauvegarder</text></g></svg>