<?xml version="1.0" encoding="us-ascii" standalone="no"?><svg xmlns="http://www.w3.org/2000/svg" xmlns:xlink="http://www.w3.org/1999/xlink" contentStyleType="text/css" height="610px" preserveAspectRatio="none" style="width:727px;height:610px;background:#FFFFFF;" version="1.1" viewBox="0 0 727 610" width="727px" zoomAndPan="magnify"><defs/><g><text fill="#000000" font-family="sans-serif" font-size="12" font-weight="bold" lengthAdjust="spacing" textLength="360" x="6" y="18.457">Weekly report of activity 02/02/2019 00:00 - LS-AF - Anse Forban</text><line style="stroke:#AAAAAA;stroke-width:1.0;stroke-dasharray:1.0,2.0;" x1="6" x2="654" y1="26.5938" y2="26.5938"/><text fill="#000000" font-family="sans-serif" font-size="12" lengthAdjust="spacing" textLength="114" x="8" y="43.5508">Information g&#233;n&#233;rale</text><line style="stroke:#000000;stroke-width:1.0;" x1="6" x2="6" y1="31.0938" y2="46.1875"/><line style="stroke:#000000;stroke-width:1.0;" x1="6" x2="125" y1="31.0938" y2="31.0938"/><line style="stroke:#000000;stroke-width:1.0;" x1="125" x2="125" y1="31.0938" y2="46.1875"/><line style="stroke:#000000;stroke-width:1.0;" x1="125" x2="135" y1="46.1875" y2="46.1875"/><text fill="#000000" font-family="sans-serif" font-size="12" lengthAdjust="spacing" textLength="115" x="137" y="43.5508">Situation des navires</text><line style="stroke:#000000;stroke-width:1.0;" x1="135" x2="135" y1="31.0938" y2="46.1875"/><line style="stroke:#000000;stroke-width:1.0;" x1="135" x2="255" y1="31.0938" y2="31.0938"/><line style="stroke:#000000;stroke-width:1.0;" x1="255" x2="255" y1="31.0938" y2="46.1875"/><line style="stroke:#000000;stroke-width:1.0;" x1="255" x2="265" y1="46.1875" y2="46.1875"/><text fill="#000000" font-family="sans-serif" font-size="12" font-weight="bold" lengthAdjust="spacing" textLength="118" x="267" y="43.5508">Activit&#233;s des navires</text><line style="stroke:#000000;stroke-width:1.0;" x1="265" x2="265" y1="31.0938" y2="46.1875"/><line style="stroke:#000000;stroke-width:1.0;" x1="265" x2="388" y1="31.0938" y2="31.0938"/><line style="stroke:#000000;stroke-width:1.0;" x1="388" x2="388" y1="31.0938" y2="46.1875"/><line style="stroke:#000000;stroke-width:1.0;" x1="388" x2="398" y1="46.1875" y2="46.1875"/><path d="M656,48.1875 L656,50.1875 L663,50.1875 L663,48.1875 L656,48.1875 M656,51.1875 L656,56.0975 C656,56.1475 656.04,56.1875 656.09,56.1875 L662.9,56.1875 C662.95,56.1875 662.99,56.1475 662.99,56.0975 L662.99,51.1875 L655.99,51.1875 M657,52.1875 L658,52.1875 L658,53.1875 L657,53.1875 L657,52.1875 M659,52.1875 L660,52.1875 L660,53.1875 L659,53.1875 L659,52.1875 M661,52.1875 L662,52.1875 L662,53.1875 L661,53.1875 L661,52.1875 M657,54.1875 L658,54.1875 L658,55.1875 L657,55.1875 L657,54.1875 M659,54.1875 L660,54.1875 L660,55.1875 L659,55.1875 L659,54.1875 " fill="#000000" style="stroke:;stroke-width:0.0;stroke-dasharray:;"/><rect fill="#EEEEEE" height="19.0938" rx="5" ry="5" style="stroke:#000000;stroke-width:2.5;" width="52" x="669.5" y="50.6875"/><text fill="#000000" font-family="sans-serif" font-size="12" lengthAdjust="spacing" textLength="40" x="675.5" y="65.1445">Fermer</text><text fill="#000000" font-family="sans-serif" font-size="16" font-weight="bold" lengthAdjust="spacing" textLength="59" x="8" y="92.8906">Navire :</text><rect fill="#EEEEEE" height="23.125" style="stroke:#000000;stroke-width:1.0;" width="295" x="70" y="77.2813"/><text fill="#000000" font-family="sans-serif" font-size="16" lengthAdjust="spacing" textLength="94" x="72" y="95.8906">SZ190 - Ziblo</text><line style="stroke:#000000;stroke-width:1.0;" x1="354" x2="354" y1="77.2813" y2="100.4063"/><polygon fill="#000000" points="357,83.2813,363,83.2813,360,95.4063" style="stroke:#000000;stroke-width:1.0;"/><rect fill="#EEEEEE" height="19.0938" rx="5" ry="5" style="stroke:#000000;stroke-width:2.5;" width="92" x="10.5" y="108.9063"/><text fill="#000000" font-family="sans-serif" font-size="12" lengthAdjust="spacing" textLength="38" x="27.5" y="123.3633">Lundi -</text><text fill="#000000" font-family="sans-serif" font-size="12" font-style="italic" lengthAdjust="spacing" textLength="17" x="68.5" y="123.3633">NA</text><rect fill="#EEEEEE" height="19.0938" rx="5" ry="5" style="stroke:#000000;stroke-width:2.5;" width="84" x="109.5" y="108.9063"/><text fill="#000000" font-family="sans-serif" font-size="12" lengthAdjust="spacing" textLength="37" x="125" y="123.3633">Mardi -</text><text fill="#000000" font-family="sans-serif" font-size="12" font-style="italic" lengthAdjust="spacing" textLength="13" x="165" y="123.3633">IN</text><rect fill="#EEEEEE" height="19.0938" rx="5" ry="5" style="stroke:#000000;stroke-width:2.5;" width="108" x="200.5" y="108.9063"/><text fill="#000000" font-family="sans-serif" font-size="12" lengthAdjust="spacing" textLength="54" x="218" y="123.3633">Mercredi -</text><text fill="#000000" font-family="sans-serif" font-size="12" font-style="italic" lengthAdjust="spacing" textLength="16" x="275" y="123.3633">LD</text><rect fill="#EEEEEE" height="19.0938" rx="5" ry="5" style="stroke:#000000;stroke-width:2.5;" width="92" x="315.5" y="108.9063"/><text fill="#000000" font-family="sans-serif" font-size="12" font-weight="bold" lengthAdjust="spacing" textLength="38" x="332.5" y="123.3633">Jeudi -</text><text fill="#000000" font-family="sans-serif" font-size="12" font-style="italic" font-weight="bold" lengthAdjust="spacing" textLength="17" x="373.5" y="123.3633">NS</text><rect fill="#EEEEEE" height="19.0938" rx="5" ry="5" style="stroke:#000000;stroke-width:2.5;" width="84" x="414.5" y="108.9063"/><text fill="#000000" font-family="sans-serif" font-size="12" lengthAdjust="spacing" textLength="49" x="432" y="123.3633">Vendredi</text><rect fill="#EEEEEE" height="19.0938" rx="5" ry="5" style="stroke:#000000;stroke-width:2.5;" width="68" x="505.5" y="108.9063"/><text fill="#000000" font-family="sans-serif" font-size="12" lengthAdjust="spacing" textLength="43" x="518" y="123.3633">Samedi</text><rect fill="#EEEEEE" height="19.0938" rx="5" ry="5" style="stroke:#000000;stroke-width:2.5;" width="68" x="580.5" y="108.9063"/><text fill="#000000" font-family="sans-serif" font-size="12" lengthAdjust="spacing" textLength="57" x="586" y="123.3633">Dimanche</text><text fill="#000000" font-family="sans-serif" font-size="12" lengthAdjust="spacing" textLength="65" x="372" y="146.957">Fishing Trip</text><text fill="#000000" font-family="sans-serif" font-size="12" lengthAdjust="spacing" textLength="41" x="9" y="165.0508">Metier*:</text><rect fill="#EEEEEE" height="18.0938" style="stroke:#000000;stroke-width:1.0;" width="255" x="53" y="153.5938"/><text fill="#000000" font-family="sans-serif" font-size="12" lengthAdjust="spacing" textLength="156" x="55" y="168.0508">FIXABSX - Active trap for Vyey</text><line style="stroke:#000000;stroke-width:1.0;" x1="297" x2="297" y1="153.5938" y2="171.6875"/><polygon fill="#000000" points="300,159.5938,306,159.5938,303,166.6875" style="stroke:#000000;stroke-width:1.0;"/><rect fill="#EEEEEE" height="12" rx="5" ry="5" style="stroke:#000000;stroke-width:2.5;" width="20" x="314.5" y="155.0938"/><path d="M321.91,157.0938 L320.5,158.5038 L321.22,159.2238 L323,161.0338 L321.22,162.8138 L320.5,163.5038 L321.91,164.9438 L322.63,164.2238 L324.44,162.4138 L326.22,164.2238 L326.91,164.9438 L328.35,163.5038 L327.63,162.8138 L325.82,161.0338 L327.63,159.2238 L328.35,158.5038 L326.91,157.0938 L326.22,157.8138 L324.44,159.5938 L322.63,157.8138 L321.91,157.0938 " fill="#000000" style="stroke:;stroke-width:0.0;stroke-dasharray:;"/><rect fill="#EEEEEE" height="12" rx="5" ry="5" style="stroke:#000000;stroke-width:2.5;" width="20" x="374.5" y="154.0938"/><path d="M384.53,156.0938 C382,156.0938 380.5,159.0938 380.5,159.0938 C380.5,159.0938 382,162.0938 384.53,162.0938 C387,162.0938 388.5,159.0938 388.5,159.0938 C388.5,159.0938 387,156.0938 384.53,156.0938 M384.5,157.0938 C385.61,157.0938 386.5,157.9938 386.5,159.0938 C386.5,160.2038 385.61,161.0938 384.5,161.0938 C383.4,161.0938 382.5,160.2038 382.5,159.0938 C382.5,157.9938 383.4,157.0938 384.5,157.0938 M384.5,158.0938 C383.95,158.0938 383.5,158.5438 383.5,159.0938 C383.5,159.6438 383.95,160.0938 384.5,160.0938 C385.05,160.0938 385.5,159.6438 385.5,159.0938 C385.5,158.9938 385.46,158.9038 385.44,158.8138 C385.36,158.9738 385.2,159.0938 385,159.0938 C384.72,159.0938 384.5,158.8738 384.5,158.5938 C384.5,158.3938 384.62,158.2338 384.78,158.1538 C384.69,158.1238 384.6,158.0938 384.5,158.0938 " fill="#000000" style="stroke:;stroke-width:0.0;stroke-dasharray:;"/><text fill="#000000" font-family="sans-serif" font-size="12" lengthAdjust="spacing" textLength="41" x="9" y="190.1445">Metier*:</text><rect fill="#EEEEEE" height="18.0938" style="stroke:#000000;stroke-width:1.0;" width="255" x="53" y="178.6875"/><text fill="#000000" font-family="sans-serif" font-size="12" lengthAdjust="spacing" textLength="104" x="55" y="193.1445">METIER2 - Metier 2</text><line style="stroke:#000000;stroke-width:1.0;" x1="297" x2="297" y1="178.6875" y2="196.7813"/><polygon fill="#000000" points="300,184.6875,306,184.6875,303,191.7813" style="stroke:#000000;stroke-width:1.0;"/><rect fill="#EEEEEE" height="12" rx="5" ry="5" style="stroke:#000000;stroke-width:2.5;" width="20" x="314.5" y="180.1875"/><path d="M323.5,182.1875 L323.5,185.1875 L320.5,185.1875 L320.5,187.1875 L323.5,187.1875 L323.5,190.1875 L325.5,190.1875 L325.5,187.1875 L328.5,187.1875 L328.5,185.1875 L325.5,185.1875 L325.5,182.1875 L323.5,182.1875 " fill="#000000" style="stroke:;stroke-width:0.0;stroke-dasharray:;"/><rect fill="#EEEEEE" height="12" rx="5" ry="5" style="stroke:#000000;stroke-width:2.5;" width="20" x="341.5" y="180.1875"/><path d="M348.91,182.1875 L347.5,183.5975 L348.22,184.3175 L350,186.1275 L348.22,187.9075 L347.5,188.5975 L348.91,190.0375 L349.63,189.3175 L351.44,187.5075 L353.22,189.3175 L353.91,190.0375 L355.35,188.5975 L354.63,187.9075 L352.82,186.1275 L354.63,184.3175 L355.35,183.5975 L353.91,182.1875 L353.22,182.9075 L351.44,184.6875 L349.63,182.9075 L348.91,182.1875 " fill="#000000" style="stroke:;stroke-width:0.0;stroke-dasharray:;"/><path d="M377.03,176.6875 C374.5,176.6875 373,179.6875 373,179.6875 C373,179.6875 374.5,182.6875 377.03,182.6875 C379.5,182.6875 381,179.6875 381,179.6875 C381,179.6875 379.5,176.6875 377.03,176.6875 M377,177.6875 C378.11,177.6875 379,178.5875 379,179.6875 C379,180.7975 378.11,181.6875 377,181.6875 C375.9,181.6875 375,180.7975 375,179.6875 C375,178.5875 375.9,177.6875 377,177.6875 M377,178.6875 C376.45,178.6875 376,179.1375 376,179.6875 C376,180.2375 376.45,180.6875 377,180.6875 C377.55,180.6875 378,180.2375 378,179.6875 C378,179.5875 377.96,179.4975 377.94,179.4075 C377.86,179.5675 377.7,179.6875 377.5,179.6875 C377.22,179.6875 377,179.4675 377,179.1875 C377,178.9875 377.12,178.8275 377.28,178.7475 C377.19,178.7175 377.1,178.6875 377,178.6875 " fill="#000000" style="stroke:;stroke-width:0.0;stroke-dasharray:;"/><rect fill="#EEEEEE" height="19.0938" rx="5" ry="5" style="stroke:#000000;stroke-width:2.5;" width="140" x="17.5" y="223.375"/><text fill="#000000" font-family="sans-serif" font-size="12" lengthAdjust="spacing" textLength="91" x="42" y="237.832">Ajouter un navire</text><rect fill="#EEEEEE" height="19.0938" rx="5" ry="5" style="stroke:#000000;stroke-width:2.5;" width="140" x="164.5" y="223.375"/><text fill="#000000" font-family="sans-serif" font-size="12" lengthAdjust="spacing" textLength="91" x="189" y="237.832">Annuler le navire</text><line style="stroke:#000000;stroke-width:1.0;" x1="7" x2="366" y1="133.5" y2="133.5"/><line style="stroke:#000000;stroke-width:1.0;" x1="366" x2="371" y1="133.5" y2="133.5"/><line style="stroke:#000000;stroke-width:1.0;" x1="371" x2="438" y1="133.5" y2="133.5"/><line style="stroke:#000000;stroke-width:1.0;" x1="7" x2="366" y1="247.9688" y2="247.9688"/><line style="stroke:#000000;stroke-width:1.0;" x1="366" x2="371" y1="247.9688" y2="247.9688"/><line style="stroke:#000000;stroke-width:1.0;" x1="371" x2="438" y1="247.9688" y2="247.9688"/><line style="stroke:#000000;stroke-width:1.0;" x1="7" x2="7" y1="133.5" y2="150.5938"/><line style="stroke:#000000;stroke-width:1.0;" x1="438" x2="438" y1="200.7813" y2="217.875"/><line style="stroke:#000000;stroke-width:1.0;" x1="438" x2="438" y1="175.6875" y2="200.7813"/><line style="stroke:#000000;stroke-width:1.0;" x1="438" x2="438" y1="150.5938" y2="175.6875"/><line style="stroke:#000000;stroke-width:1.0;" x1="438" x2="438" y1="133.5" y2="150.5938"/><line style="stroke:#000000;stroke-width:1.0;" x1="7" x2="7" y1="217.875" y2="247.9688"/><line style="stroke:#000000;stroke-width:1.0;" x1="7" x2="7" y1="200.7813" y2="217.875"/><line style="stroke:#000000;stroke-width:1.0;" x1="7" x2="7" y1="175.6875" y2="200.7813"/><line style="stroke:#000000;stroke-width:1.0;" x1="7" x2="7" y1="150.5938" y2="175.6875"/><line style="stroke:#000000;stroke-width:1.0;" x1="438" x2="438" y1="217.875" y2="247.9688"/><line style="stroke:#000000;stroke-width:1.0;" x1="6" x2="653" y1="74.2813" y2="74.2813"/><line style="stroke:#000000;stroke-width:1.0;" x1="6" x2="653" y1="248.9688" y2="248.9688"/><line style="stroke:#000000;stroke-width:1.0;" x1="6" x2="6" y1="74.2813" y2="104.4063"/><line style="stroke:#000000;stroke-width:1.0;" x1="653" x2="653" y1="104.4063" y2="132.5"/><line style="stroke:#000000;stroke-width:1.0;" x1="653" x2="653" y1="74.2813" y2="104.4063"/><line style="stroke:#000000;stroke-width:1.0;" x1="6" x2="6" y1="132.5" y2="248.9688"/><line style="stroke:#000000;stroke-width:1.0;" x1="6" x2="6" y1="104.4063" y2="132.5"/><line style="stroke:#000000;stroke-width:1.0;" x1="653" x2="653" y1="132.5" y2="248.9688"/><text fill="#000000" font-family="sans-serif" font-size="12" lengthAdjust="spacing" textLength="41" x="9" y="283.5195">Metier*:</text><rect fill="#EEEEEE" height="18.0938" style="stroke:#000000;stroke-width:1.0;" width="255" x="53" y="272.0625"/><text fill="#000000" font-family="sans-serif" font-size="12" lengthAdjust="spacing" textLength="156" x="55" y="286.5195">FIXABSX - Active trap for Vyey</text><line style="stroke:#000000;stroke-width:1.0;" x1="297" x2="297" y1="272.0625" y2="290.1563"/><polygon fill="#000000" points="300,278.0625,306,278.0625,303,285.1563" style="stroke:#000000;stroke-width:1.0;"/><text fill="#000000" font-family="sans-serif" font-size="12" lengthAdjust="spacing" textLength="93" x="331" y="284.5195">Valeur par d&#233;faut</text><rect fill="none" height="10" style="stroke:#000000;stroke-width:1.5;" width="10" x="313" y="274.6094"/><rect fill="#EEEEEE" height="12" rx="5" ry="5" style="stroke:#000000;stroke-width:2.5;" width="20" x="429.5" y="273.5625"/><path d="M438.5,275.5625 L438.5,278.5625 L435.5,278.5625 L435.5,280.5625 L438.5,280.5625 L438.5,283.5625 L440.5,283.5625 L440.5,280.5625 L443.5,280.5625 L443.5,278.5625 L440.5,278.5625 L440.5,275.5625 L438.5,275.5625 " fill="#000000" style="stroke:;stroke-width:0.0;stroke-dasharray:;"/><rect fill="#EEEEEE" height="12" rx="5" ry="5" style="stroke:#000000;stroke-width:2.5;" width="20" x="456.5" y="273.5625"/><path d="M463.91,275.5625 L462.5,276.9725 L463.22,277.6925 L465,279.5025 L463.22,281.2825 L462.5,281.9725 L463.91,283.4125 L464.63,282.6925 L466.44,280.8825 L468.22,282.6925 L468.91,283.4125 L470.35,281.9725 L469.63,281.2825 L467.82,279.5025 L469.63,277.6925 L470.35,276.9725 L468.91,275.5625 L468.22,276.2825 L466.44,278.0625 L464.63,276.2825 L463.91,275.5625 " fill="#000000" style="stroke:;stroke-width:0.0;stroke-dasharray:;"/><text fill="#000000" font-family="sans-serif" font-size="12" lengthAdjust="spacing" textLength="41" x="9" y="308.6133">Metier*:</text><rect fill="#EEEEEE" height="18.0938" style="stroke:#000000;stroke-width:1.0;" width="255" x="53" y="297.1563"/><text fill="#000000" font-family="sans-serif" font-size="12" lengthAdjust="spacing" textLength="104" x="55" y="311.6133">METIER2 - Metier 2</text><line style="stroke:#000000;stroke-width:1.0;" x1="297" x2="297" y1="297.1563" y2="315.25"/><polygon fill="#000000" points="300,303.1563,306,303.1563,303,310.25" style="stroke:#000000;stroke-width:1.0;"/><text fill="#000000" font-family="sans-serif" font-size="12" lengthAdjust="spacing" textLength="93" x="331" y="309.6133">Valeur par d&#233;faut</text><rect fill="none" height="10" style="stroke:#000000;stroke-width:1.5;" width="10" x="313" y="299.7031"/><rect fill="#EEEEEE" height="12" rx="5" ry="5" style="stroke:#000000;stroke-width:2.5;" width="20" x="429.5" y="298.6563"/><path d="M438.5,300.6563 L438.5,303.6563 L435.5,303.6563 L435.5,305.6563 L438.5,305.6563 L438.5,308.6563 L440.5,308.6563 L440.5,305.6563 L443.5,305.6563 L443.5,303.6563 L440.5,303.6563 L440.5,300.6563 L438.5,300.6563 " fill="#000000" style="stroke:;stroke-width:0.0;stroke-dasharray:;"/><rect fill="#EEEEEE" height="12" rx="5" ry="5" style="stroke:#000000;stroke-width:2.5;" width="20" x="456.5" y="298.6563"/><path d="M463.91,300.6563 L462.5,302.0663 L463.22,302.7863 L465,304.5963 L463.22,306.3763 L462.5,307.0663 L463.91,308.5063 L464.63,307.7863 L466.44,305.9763 L468.22,307.7863 L468.91,308.5063 L470.35,307.0663 L469.63,306.3763 L467.82,304.5963 L469.63,302.7863 L470.35,302.0663 L468.91,300.6563 L468.22,301.3763 L466.44,303.1563 L464.63,301.3763 L463.91,300.6563 " fill="#000000" style="stroke:;stroke-width:0.0;stroke-dasharray:;"/><line style="stroke:#000000;stroke-width:1.0;" x1="7" x2="481" y1="269.0625" y2="269.0625"/><line style="stroke:#000000;stroke-width:1.0;" x1="7" x2="481" y1="336.3438" y2="336.3438"/><line style="stroke:#000000;stroke-width:1.0;" x1="7" x2="7" y1="269.0625" y2="294.1563"/><line style="stroke:#000000;stroke-width:1.0;" x1="481" x2="481" y1="294.1563" y2="319.25"/><line style="stroke:#000000;stroke-width:1.0;" x1="481" x2="481" y1="269.0625" y2="294.1563"/><line style="stroke:#000000;stroke-width:1.0;" x1="7" x2="7" y1="319.25" y2="336.3438"/><line style="stroke:#000000;stroke-width:1.0;" x1="7" x2="7" y1="294.1563" y2="319.25"/><line style="stroke:#000000;stroke-width:1.0;" x1="481" x2="481" y1="319.25" y2="336.3438"/><rect fill="#EEEEEE" height="19.0938" rx="5" ry="5" style="stroke:#000000;stroke-width:2.5;" width="140" x="16.5" y="342.8438"/><text fill="#000000" font-family="sans-serif" font-size="12" lengthAdjust="spacing" textLength="91" x="41" y="357.3008">Ajouter un navire</text><rect fill="#EEEEEE" height="19.0938" rx="5" ry="5" style="stroke:#000000;stroke-width:2.5;" width="140" x="163.5" y="342.8438"/><text fill="#000000" font-family="sans-serif" font-size="12" lengthAdjust="spacing" textLength="91" x="188" y="357.3008">Annuler le navire</text><line style="stroke:#000000;stroke-width:1.0;" x1="6" x2="482" y1="250.9688" y2="250.9688"/><line style="stroke:#000000;stroke-width:1.0;" x1="6" x2="482" y1="367.4375" y2="367.4375"/><line style="stroke:#000000;stroke-width:1.0;" x1="6" x2="6" y1="250.9688" y2="268.0625"/><line style="stroke:#000000;stroke-width:1.0;" x1="482" x2="482" y1="268.0625" y2="337.3438"/><line style="stroke:#000000;stroke-width:1.0;" x1="482" x2="482" y1="250.9688" y2="268.0625"/><line style="stroke:#000000;stroke-width:1.0;" x1="6" x2="6" y1="337.3438" y2="367.4375"/><line style="stroke:#000000;stroke-width:1.0;" x1="6" x2="6" y1="268.0625" y2="337.3438"/><line style="stroke:#000000;stroke-width:1.0;" x1="482" x2="482" y1="337.3438" y2="367.4375"/><text fill="#000000" font-family="sans-serif" font-size="16" font-weight="bold" lengthAdjust="spacing" textLength="59" x="7" y="421.2344">Navire :</text><rect fill="#EEEEEE" height="23.125" style="stroke:#000000;stroke-width:1.0;" width="295" x="69" y="405.625"/><text fill="#000000" font-family="sans-serif" font-size="16" lengthAdjust="spacing" textLength="58" x="71" y="424.2344">Navire 2</text><line style="stroke:#000000;stroke-width:1.0;" x1="353" x2="353" y1="405.625" y2="428.75"/><polygon fill="#000000" points="356,411.625,362,411.625,359,423.75" style="stroke:#000000;stroke-width:1.0;"/><text fill="#000000" font-family="sans-serif" font-size="12" lengthAdjust="spacing" textLength="41" x="9" y="466.3008">Metier*:</text><rect fill="#EEEEEE" height="18.0938" style="stroke:#000000;stroke-width:1.0;" width="159" x="53" y="454.8438"/><text fill="#000000" font-family="sans-serif" font-size="12" lengthAdjust="spacing" textLength="104" x="55" y="469.3008">METIER1 - Metier 1</text><line style="stroke:#000000;stroke-width:1.0;" x1="201" x2="201" y1="454.8438" y2="472.9375"/><polygon fill="#000000" points="204,460.8438,210,460.8438,207,467.9375" style="stroke:#000000;stroke-width:1.0;"/><text fill="#000000" font-family="sans-serif" font-size="12" lengthAdjust="spacing" textLength="93" x="235" y="467.3008">Valeur par d&#233;faut</text><rect fill="none" height="10" style="stroke:#000000;stroke-width:1.5;" width="10" x="217" y="457.3906"/><rect fill="#EEEEEE" height="12" rx="5" ry="5" style="stroke:#000000;stroke-width:2.5;" width="20" x="333.5" y="456.3438"/><path d="M342.5,458.3438 L342.5,461.3438 L339.5,461.3438 L339.5,463.3438 L342.5,463.3438 L342.5,466.3438 L344.5,466.3438 L344.5,463.3438 L347.5,463.3438 L347.5,461.3438 L344.5,461.3438 L344.5,458.3438 L342.5,458.3438 " fill="#000000" style="stroke:;stroke-width:0.0;stroke-dasharray:;"/><rect fill="#EEEEEE" height="12" rx="5" ry="5" style="stroke:#000000;stroke-width:2.5;" width="20" x="360.5" y="456.3438"/><path d="M367.91,458.3438 L366.5,459.7538 L367.22,460.4738 L369,462.2838 L367.22,464.0638 L366.5,464.7538 L367.91,466.1938 L368.63,465.4738 L370.44,463.6638 L372.22,465.4738 L372.91,466.1938 L374.35,464.7538 L373.63,464.0638 L371.82,462.2838 L373.63,460.4738 L374.35,459.7538 L372.91,458.3438 L372.22,459.0638 L370.44,460.8438 L368.63,459.0638 L367.91,458.3438 " fill="#000000" style="stroke:;stroke-width:0.0;stroke-dasharray:;"/><rect fill="#EEEEEE" height="19.0938" rx="5" ry="5" style="stroke:#000000;stroke-width:2.5;" width="84" x="11.5" y="481.4375"/><text fill="#000000" font-family="sans-serif" font-size="12" lengthAdjust="spacing" textLength="31" x="38" y="495.8945">Lundi</text><rect fill="#EEEEEE" height="19.0938" rx="5" ry="5" style="stroke:#000000;stroke-width:2.5;" width="76" x="102.5" y="481.4375"/><text fill="#000000" font-family="sans-serif" font-size="12" lengthAdjust="spacing" textLength="30" x="125.5" y="495.8945">Mardi</text><rect fill="#EEEEEE" height="19.0938" rx="5" ry="5" style="stroke:#000000;stroke-width:2.5;" width="76" x="185.5" y="481.4375"/><text fill="#000000" font-family="sans-serif" font-size="12" lengthAdjust="spacing" textLength="47" x="200" y="495.8945">Mercredi</text><rect fill="#EEEEEE" height="19.0938" rx="5" ry="5" style="stroke:#000000;stroke-width:2.5;" width="76" x="268.5" y="481.4375"/><text fill="#000000" font-family="sans-serif" font-size="12" lengthAdjust="spacing" textLength="30" x="291.5" y="495.8945">Jeudi</text><rect fill="#EEEEEE" height="19.0938" rx="5" ry="5" style="stroke:#000000;stroke-width:2.5;" width="76" x="351.5" y="481.4375"/><text fill="#000000" font-family="sans-serif" font-size="12" lengthAdjust="spacing" textLength="49" x="365" y="495.8945">Vendredi</text><rect fill="#EEEEEE" height="19.0938" rx="5" ry="5" style="stroke:#000000;stroke-width:2.5;" width="68" x="434.5" y="481.4375"/><text fill="#000000" font-family="sans-serif" font-size="12" lengthAdjust="spacing" textLength="43" x="447" y="495.8945">Samedi</text><rect fill="#EEEEEE" height="19.0938" rx="5" ry="5" style="stroke:#000000;stroke-width:2.5;" width="68" x="509.5" y="481.4375"/><text fill="#000000" font-family="sans-serif" font-size="12" lengthAdjust="spacing" textLength="57" x="515" y="495.8945">Dimanche</text><rect fill="#EEEEEE" height="12" rx="5" ry="5" style="stroke:#000000;stroke-width:2.5;" width="20" x="11.5" y="507.5313"/><path d="M21.53,509.5313 C19,509.5313 17.5,512.5313 17.5,512.5313 C17.5,512.5313 19,515.5313 21.53,515.5313 C24,515.5313 25.5,512.5313 25.5,512.5313 C25.5,512.5313 24,509.5313 21.53,509.5313 M21.5,510.5313 C22.61,510.5313 23.5,511.4313 23.5,512.5313 C23.5,513.6413 22.61,514.5313 21.5,514.5313 C20.4,514.5313 19.5,513.6413 19.5,512.5313 C19.5,511.4313 20.4,510.5313 21.5,510.5313 M21.5,511.5313 C20.95,511.5313 20.5,511.9813 20.5,512.5313 C20.5,513.0813 20.95,513.5313 21.5,513.5313 C22.05,513.5313 22.5,513.0813 22.5,512.5313 C22.5,512.4313 22.46,512.3413 22.44,512.2513 C22.36,512.4113 22.2,512.5313 22,512.5313 C21.72,512.5313 21.5,512.3113 21.5,512.0313 C21.5,511.8313 21.62,511.6713 21.78,511.5913 C21.69,511.5613 21.6,511.5313 21.5,511.5313 " fill="#000000" style="stroke:;stroke-width:0.0;stroke-dasharray:;"/><path d="M105.03,505.0313 C102.5,505.0313 101,508.0313 101,508.0313 C101,508.0313 102.5,511.0313 105.03,511.0313 C107.5,511.0313 109,508.0313 109,508.0313 C109,508.0313 107.5,505.0313 105.03,505.0313 M105,506.0313 C106.11,506.0313 107,506.9313 107,508.0313 C107,509.1413 106.11,510.0313 105,510.0313 C103.9,510.0313 103,509.1413 103,508.0313 C103,506.9313 103.9,506.0313 105,506.0313 M105,507.0313 C104.45,507.0313 104,507.4813 104,508.0313 C104,508.5813 104.45,509.0313 105,509.0313 C105.55,509.0313 106,508.5813 106,508.0313 C106,507.9313 105.96,507.8413 105.94,507.7513 C105.86,507.9113 105.7,508.0313 105.5,508.0313 C105.22,508.0313 105,507.8113 105,507.5313 C105,507.3313 105.12,507.1713 105.28,507.0913 C105.19,507.0613 105.1,507.0313 105,507.0313 " fill="#000000" style="stroke:;stroke-width:0.0;stroke-dasharray:;"/><rect fill="#EEEEEE" height="12" rx="5" ry="5" style="stroke:#000000;stroke-width:2.5;" width="20" x="185.5" y="507.5313"/><path d="M195.53,509.5313 C193,509.5313 191.5,512.5313 191.5,512.5313 C191.5,512.5313 193,515.5313 195.53,515.5313 C198,515.5313 199.5,512.5313 199.5,512.5313 C199.5,512.5313 198,509.5313 195.53,509.5313 M195.5,510.5313 C196.61,510.5313 197.5,511.4313 197.5,512.5313 C197.5,513.6413 196.61,514.5313 195.5,514.5313 C194.4,514.5313 193.5,513.6413 193.5,512.5313 C193.5,511.4313 194.4,510.5313 195.5,510.5313 M195.5,511.5313 C194.95,511.5313 194.5,511.9813 194.5,512.5313 C194.5,513.0813 194.95,513.5313 195.5,513.5313 C196.05,513.5313 196.5,513.0813 196.5,512.5313 C196.5,512.4313 196.46,512.3413 196.44,512.2513 C196.36,512.4113 196.2,512.5313 196,512.5313 C195.72,512.5313 195.5,512.3113 195.5,512.0313 C195.5,511.8313 195.62,511.6713 195.78,511.5913 C195.69,511.5613 195.6,511.5313 195.5,511.5313 " fill="#000000" style="stroke:;stroke-width:0.0;stroke-dasharray:;"/><path d="M271.03,505.0313 C268.5,505.0313 267,508.0313 267,508.0313 C267,508.0313 268.5,511.0313 271.03,511.0313 C273.5,511.0313 275,508.0313 275,508.0313 C275,508.0313 273.5,505.0313 271.03,505.0313 M271,506.0313 C272.11,506.0313 273,506.9313 273,508.0313 C273,509.1413 272.11,510.0313 271,510.0313 C269.9,510.0313 269,509.1413 269,508.0313 C269,506.9313 269.9,506.0313 271,506.0313 M271,507.0313 C270.45,507.0313 270,507.4813 270,508.0313 C270,508.5813 270.45,509.0313 271,509.0313 C271.55,509.0313 272,508.5813 272,508.0313 C272,507.9313 271.96,507.8413 271.94,507.7513 C271.86,507.9113 271.7,508.0313 271.5,508.0313 C271.22,508.0313 271,507.8113 271,507.5313 C271,507.3313 271.12,507.1713 271.28,507.0913 C271.19,507.0613 271.1,507.0313 271,507.0313 " fill="#000000" style="stroke:;stroke-width:0.0;stroke-dasharray:;"/><rect fill="#EEEEEE" height="12" rx="5" ry="5" style="stroke:#000000;stroke-width:2.5;" width="20" x="351.5" y="507.5313"/><path d="M361.53,509.5313 C359,509.5313 357.5,512.5313 357.5,512.5313 C357.5,512.5313 359,515.5313 361.53,515.5313 C364,515.5313 365.5,512.5313 365.5,512.5313 C365.5,512.5313 364,509.5313 361.53,509.5313 M361.5,510.5313 C362.61,510.5313 363.5,511.4313 363.5,512.5313 C363.5,513.6413 362.61,514.5313 361.5,514.5313 C360.4,514.5313 359.5,513.6413 359.5,512.5313 C359.5,511.4313 360.4,510.5313 361.5,510.5313 M361.5,511.5313 C360.95,511.5313 360.5,511.9813 360.5,512.5313 C360.5,513.0813 360.95,513.5313 361.5,513.5313 C362.05,513.5313 362.5,513.0813 362.5,512.5313 C362.5,512.4313 362.46,512.3413 362.44,512.2513 C362.36,512.4113 362.2,512.5313 362,512.5313 C361.72,512.5313 361.5,512.3113 361.5,512.0313 C361.5,511.8313 361.62,511.6713 361.78,511.5913 C361.69,511.5613 361.6,511.5313 361.5,511.5313 " fill="#000000" style="stroke:;stroke-width:0.0;stroke-dasharray:;"/><path d="M437.03,505.0313 C434.5,505.0313 433,508.0313 433,508.0313 C433,508.0313 434.5,511.0313 437.03,511.0313 C439.5,511.0313 441,508.0313 441,508.0313 C441,508.0313 439.5,505.0313 437.03,505.0313 M437,506.0313 C438.11,506.0313 439,506.9313 439,508.0313 C439,509.1413 438.11,510.0313 437,510.0313 C435.9,510.0313 435,509.1413 435,508.0313 C435,506.9313 435.9,506.0313 437,506.0313 M437,507.0313 C436.45,507.0313 436,507.4813 436,508.0313 C436,508.5813 436.45,509.0313 437,509.0313 C437.55,509.0313 438,508.5813 438,508.0313 C438,507.9313 437.96,507.8413 437.94,507.7513 C437.86,507.9113 437.7,508.0313 437.5,508.0313 C437.22,508.0313 437,507.8113 437,507.5313 C437,507.3313 437.12,507.1713 437.28,507.0913 C437.19,507.0613 437.1,507.0313 437,507.0313 " fill="#000000" style="stroke:;stroke-width:0.0;stroke-dasharray:;"/><path d="M512.03,505.0313 C509.5,505.0313 508,508.0313 508,508.0313 C508,508.0313 509.5,511.0313 512.03,511.0313 C514.5,511.0313 516,508.0313 516,508.0313 C516,508.0313 514.5,505.0313 512.03,505.0313 M512,506.0313 C513.11,506.0313 514,506.9313 514,508.0313 C514,509.1413 513.11,510.0313 512,510.0313 C510.9,510.0313 510,509.1413 510,508.0313 C510,506.9313 510.9,506.0313 512,506.0313 M512,507.0313 C511.45,507.0313 511,507.4813 511,508.0313 C511,508.5813 511.45,509.0313 512,509.0313 C512.55,509.0313 513,508.5813 513,508.0313 C513,507.9313 512.96,507.8413 512.94,507.7513 C512.86,507.9113 512.7,508.0313 512.5,508.0313 C512.22,508.0313 512,507.8113 512,507.5313 C512,507.3313 512.12,507.1713 512.28,507.0913 C512.19,507.0613 512.1,507.0313 512,507.0313 " fill="#000000" style="stroke:;stroke-width:0.0;stroke-dasharray:;"/><line style="stroke:#000000;stroke-width:1.0;" x1="7" x2="582" y1="451.8438" y2="451.8438"/><line style="stroke:#000000;stroke-width:1.0;" x1="7" x2="582" y1="541.125" y2="541.125"/><line style="stroke:#000000;stroke-width:1.0;" x1="7" x2="7" y1="451.8438" y2="476.9375"/><line style="stroke:#000000;stroke-width:1.0;" x1="582" x2="582" y1="476.9375" y2="524.0313"/><line style="stroke:#000000;stroke-width:1.0;" x1="582" x2="582" y1="451.8438" y2="476.9375"/><line style="stroke:#000000;stroke-width:1.0;" x1="7" x2="7" y1="524.0313" y2="541.125"/><line style="stroke:#000000;stroke-width:1.0;" x1="7" x2="7" y1="476.9375" y2="524.0313"/><line style="stroke:#000000;stroke-width:1.0;" x1="582" x2="582" y1="524.0313" y2="541.125"/><rect fill="#EEEEEE" height="19.0938" rx="5" ry="5" style="stroke:#000000;stroke-width:2.5;" width="140" x="16.5" y="547.625"/><text fill="#000000" font-family="sans-serif" font-size="12" lengthAdjust="spacing" textLength="91" x="41" y="562.082">Ajouter un navire</text><rect fill="#EEEEEE" height="19.0938" rx="5" ry="5" style="stroke:#000000;stroke-width:2.5;" width="140" x="163.5" y="547.625"/><text fill="#000000" font-family="sans-serif" font-size="12" lengthAdjust="spacing" textLength="91" x="188" y="562.082">Annuler le navire</text><line style="stroke:#000000;stroke-width:1.0;" x1="6" x2="583" y1="450.8438" y2="450.8438"/><line style="stroke:#000000;stroke-width:1.0;" x1="6" x2="583" y1="572.2188" y2="572.2188"/><line style="stroke:#000000;stroke-width:1.0;" x1="6" x2="6" y1="450.8438" y2="542.125"/><line style="stroke:#000000;stroke-width:1.0;" x1="583" x2="583" y1="542.125" y2="572.2188"/><line style="stroke:#000000;stroke-width:1.0;" x1="583" x2="583" y1="450.8438" y2="542.125"/><line style="stroke:#000000;stroke-width:1.0;" x1="6" x2="6" y1="542.125" y2="572.2188"/><line style="stroke:#AAAAAA;stroke-width:1.0;stroke-dasharray:1.0,2.0;" x1="6" x2="654" y1="577.7188" y2="577.7188"/><rect fill="#EEEEEE" height="19.0938" rx="5" ry="5" style="stroke:#000000;stroke-width:2.5;" width="92" x="9.5" y="585.7188"/><text fill="#000000" font-family="sans-serif" font-size="12" lengthAdjust="spacing" textLength="70" x="20.5" y="600.1758">Sauvegarder</text></g></svg>