<?xml version="1.0" encoding="UTF-8" standalone="no"?><svg xmlns="http://www.w3.org/2000/svg" xmlns:xlink="http://www.w3.org/1999/xlink" contentScriptType="application/ecmascript" contentStyleType="text/css" height="372px" preserveAspectRatio="none" style="width:946px;height:372px;" version="1.1" viewBox="0 0 946 372" width="946px" zoomAndPan="magnify"><defs/><g><text fill="#000000" font-family="sans-serif" font-size="12" font-weight="bold" lengthAdjust="spacingAndGlyphs" textLength="360" x="6" y="18.457">Weekly report of activity 02/02/2019 00:00 - LS-AF - Anse Forban</text><line style="stroke: #AAAAAA; stroke-width: 1.0; stroke-dasharray: 1.0,2.0;" x1="6" x2="939" y1="26.5938" y2="26.5938"/><text fill="#000000" font-family="sans-serif" font-size="12" lengthAdjust="spacingAndGlyphs" textLength="114" x="8" y="43.5508">Information générale</text><line style="stroke: #000000; stroke-width: 1.0;" x1="6" x2="6" y1="31.0938" y2="46.1875"/><line style="stroke: #000000; stroke-width: 1.0;" x1="6" x2="125" y1="31.0938" y2="31.0938"/><line style="stroke: #000000; stroke-width: 1.0;" x1="125" x2="125" y1="31.0938" y2="46.1875"/><line style="stroke: #000000; stroke-width: 1.0;" x1="125" x2="135" y1="46.1875" y2="46.1875"/><text fill="#000000" font-family="sans-serif" font-size="12" font-weight="bold" lengthAdjust="spacingAndGlyphs" textLength="119" x="137" y="43.5508">Situation des navires</text><line style="stroke: #000000; stroke-width: 1.0;" x1="135" x2="135" y1="31.0938" y2="46.1875"/><line style="stroke: #000000; stroke-width: 1.0;" x1="135" x2="259" y1="31.0938" y2="31.0938"/><line style="stroke: #000000; stroke-width: 1.0;" x1="259" x2="259" y1="31.0938" y2="46.1875"/><line style="stroke: #000000; stroke-width: 1.0;" x1="259" x2="269" y1="46.1875" y2="46.1875"/><text fill="#000000" font-family="sans-serif" font-size="12" lengthAdjust="spacingAndGlyphs" textLength="111" x="271" y="43.5508">Activités des navires</text><line style="stroke: #000000; stroke-width: 1.0;" x1="269" x2="269" y1="31.0938" y2="46.1875"/><line style="stroke: #000000; stroke-width: 1.0;" x1="269" x2="385" y1="31.0938" y2="31.0938"/><line style="stroke: #000000; stroke-width: 1.0;" x1="385" x2="385" y1="31.0938" y2="46.1875"/><line style="stroke: #000000; stroke-width: 1.0;" x1="385" x2="395" y1="46.1875" y2="46.1875"/><rect fill="#EEEEEE" height="19.0938" rx="5" ry="5" style="stroke: #000000; stroke-width: 2.5;" width="52" x="852.5" y="68.7813"/><text fill="#000000" font-family="sans-serif" font-size="12" lengthAdjust="spacingAndGlyphs" textLength="40" x="858.5" y="83.2383">Fermer</text><text fill="#000000" font-family="sans-serif" font-size="12" font-weight="bold" lengthAdjust="spacingAndGlyphs" textLength="76" x="9" y="106.832">Liste navires:</text><rect fill="#EEEEEE" height="18.0938" style="stroke: #000000; stroke-width: 1.0;" width="191" x="11" y="130.5625"/><text fill="#000000" font-family="sans-serif" font-size="12" lengthAdjust="spacingAndGlyphs" textLength="73" x="13" y="145.0195">SZ190 - Ziblo</text><line style="stroke: #000000; stroke-width: 1.0;" x1="191" x2="191" y1="130.5625" y2="148.6563"/><polygon fill="#000000" points="194,136.5625,200,136.5625,197,143.6563" style="stroke: #000000; stroke-width: 1.0;"/><rect fill="#EEEEEE" height="12" rx="5" ry="5" style="stroke: #000000; stroke-width: 2.5;" width="20" x="207.5" y="133.0625"/><path d="M214.906,135.0625 L213.5,136.4685 L214.188,137.1875 L215.969,138.9685 L214.188,140.7495 L213.5,141.4685 L214.906,142.8745 L215.625,142.1865 L217.406,140.4055 L219.187,142.1865 L219.906,142.8745 L221.312,141.4685 L220.624,140.7495 L218.843,138.9685 L220.624,137.1875 L221.312,136.4685 L219.906,135.0625 L219.187,135.7505 L217.406,137.5315 L215.625,135.7505 L214.906,135.0625 " fill="#000000" style="stroke: ; stroke-width: 0.0; stroke-dasharray: ;"/><rect fill="#EEEEEE" height="18.0938" style="stroke: #000000; stroke-width: 1.0;" width="191" x="11" y="206.9375"/><text fill="#000000" font-family="sans-serif" font-size="12" lengthAdjust="spacingAndGlyphs" textLength="48" x="13" y="221.3945">Vessel 2</text><line style="stroke: #000000; stroke-width: 1.0;" x1="191" x2="191" y1="206.9375" y2="225.0313"/><polygon fill="#000000" points="194,212.9375,200,212.9375,197,220.0313" style="stroke: #000000; stroke-width: 1.0;"/><rect fill="#EEEEEE" height="12" rx="5" ry="5" style="stroke: #000000; stroke-width: 2.5;" width="20" x="207.5" y="209.4375"/><path d="M214.906,211.4375 L213.5,212.8435 L214.188,213.5625 L215.969,215.3435 L214.188,217.1245 L213.5,217.8435 L214.906,219.2495 L215.625,218.5615 L217.406,216.7805 L219.187,218.5615 L219.906,219.2495 L221.312,217.8435 L220.624,217.1245 L218.843,215.3435 L220.624,213.5625 L221.312,212.8435 L219.906,211.4375 L219.187,212.1255 L217.406,213.9065 L215.625,212.1255 L214.906,211.4375 " fill="#000000" style="stroke: ; stroke-width: 0.0; stroke-dasharray: ;"/><rect fill="#EEEEEE" height="18.0938" style="stroke: #000000; stroke-width: 1.0;" width="191" x="11" y="249.125"/><text fill="#000000" font-family="sans-serif" font-size="12" lengthAdjust="spacingAndGlyphs" textLength="48" x="13" y="263.582">Vessel 3</text><line style="stroke: #000000; stroke-width: 1.0;" x1="191" x2="191" y1="249.125" y2="267.2188"/><polygon fill="#000000" points="194,255.125,200,255.125,197,262.2188" style="stroke: #000000; stroke-width: 1.0;"/><rect fill="#EEEEEE" height="12" rx="5" ry="5" style="stroke: #000000; stroke-width: 2.5;" width="20" x="207.5" y="251.625"/><path d="M214.906,253.625 L213.5,255.031 L214.188,255.75 L215.969,257.531 L214.188,259.312 L213.5,260.031 L214.906,261.437 L215.625,260.749 L217.406,258.968 L219.187,260.749 L219.906,261.437 L221.312,260.031 L220.624,259.312 L218.843,257.531 L220.624,255.75 L221.312,255.031 L219.906,253.625 L219.187,254.313 L217.406,256.094 L215.625,254.313 L214.906,253.625 " fill="#000000" style="stroke: ; stroke-width: 0.0; stroke-dasharray: ;"/><rect fill="#EEEEEE" height="18.0938" style="stroke: #000000; stroke-width: 1.0;" width="191" x="11" y="291.3125"/><text fill="#000000" font-family="sans-serif" font-size="12" lengthAdjust="spacingAndGlyphs" textLength="48" x="13" y="305.7695">Vessel 4</text><line style="stroke: #000000; stroke-width: 1.0;" x1="191" x2="191" y1="291.3125" y2="309.4063"/><polygon fill="#000000" points="194,297.3125,200,297.3125,197,304.4063" style="stroke: #000000; stroke-width: 1.0;"/><rect fill="#EEEEEE" height="12" rx="5" ry="5" style="stroke: #000000; stroke-width: 2.5;" width="20" x="207.5" y="293.8125"/><path d="M216.5,295.8125 L216.5,298.8125 L213.5,298.8125 L213.5,300.8125 L216.5,300.8125 L216.5,303.8125 L218.5,303.8125 L218.5,300.8125 L221.5,300.8125 L221.5,298.8125 L218.5,298.8125 L218.5,295.8125 L216.5,295.8125 " fill="#000000" style="stroke: ; stroke-width: 0.0; stroke-dasharray: ;"/><rect fill="#EEEEEE" height="12" rx="5" ry="5" style="stroke: #000000; stroke-width: 2.5;" width="20" x="234.5" y="293.8125"/><path d="M241.906,295.8125 L240.5,297.2185 L241.188,297.9375 L242.969,299.7185 L241.188,301.4995 L240.5,302.2185 L241.906,303.6245 L242.625,302.9365 L244.406,301.1555 L246.187,302.9365 L246.906,303.6245 L248.312,302.2185 L247.624,301.4995 L245.843,299.7185 L247.624,297.9375 L248.312,297.2185 L246.906,295.8125 L246.187,296.5005 L244.406,298.2815 L242.625,296.5005 L241.906,295.8125 " fill="#000000" style="stroke: ; stroke-width: 0.0; stroke-dasharray: ;"/><line style="stroke: #000000; stroke-width: 1.0;" x1="8" x2="260" y1="93.375" y2="93.375"/><line style="stroke: #000000; stroke-width: 1.0;" x1="8" x2="260" y1="330.5" y2="330.5"/><line style="stroke: #000000; stroke-width: 1.0;" x1="8" x2="8" y1="93.375" y2="110.4688"/><line style="stroke: #000000; stroke-width: 1.0;" x1="260" x2="260" y1="93.375" y2="110.4688"/><line style="stroke: #000000; stroke-width: 1.0;" x1="8" x2="8" y1="313.4063" y2="330.5"/><line style="stroke: #000000; stroke-width: 1.0;" x1="260" x2="260" y1="313.4063" y2="330.5"/><line style="stroke: #000000; stroke-width: 1.0;" x1="8" x2="8" y1="271.2188" y2="288.3125"/><line style="stroke: #000000; stroke-width: 1.0;" x1="260" x2="260" y1="271.2188" y2="288.3125"/><line style="stroke: #000000; stroke-width: 1.0;" x1="8" x2="8" y1="229.0313" y2="246.125"/><line style="stroke: #000000; stroke-width: 1.0;" x1="260" x2="260" y1="229.0313" y2="246.125"/><line style="stroke: #000000; stroke-width: 1.0;" x1="8" x2="8" y1="186.8438" y2="203.9375"/><line style="stroke: #000000; stroke-width: 1.0;" x1="260" x2="260" y1="186.8438" y2="203.9375"/><line style="stroke: #000000; stroke-width: 1.0;" x1="8" x2="8" y1="152.6563" y2="169.75"/><line style="stroke: #000000; stroke-width: 1.0;" x1="260" x2="260" y1="152.6563" y2="169.75"/><line style="stroke: #000000; stroke-width: 1.0;" x1="8" x2="8" y1="110.4688" y2="127.5625"/><line style="stroke: #000000; stroke-width: 1.0;" x1="260" x2="260" y1="110.4688" y2="127.5625"/><line style="stroke: #000000; stroke-width: 1.0;" x1="8" x2="8" y1="288.3125" y2="313.4063"/><line style="stroke: #000000; stroke-width: 1.0;" x1="260" x2="260" y1="288.3125" y2="313.4063"/><line style="stroke: #000000; stroke-width: 1.0;" x1="8" x2="8" y1="246.125" y2="271.2188"/><line style="stroke: #000000; stroke-width: 1.0;" x1="260" x2="260" y1="246.125" y2="271.2188"/><line style="stroke: #000000; stroke-width: 1.0;" x1="8" x2="8" y1="203.9375" y2="229.0313"/><line style="stroke: #000000; stroke-width: 1.0;" x1="260" x2="260" y1="203.9375" y2="229.0313"/><line style="stroke: #000000; stroke-width: 1.0;" x1="8" x2="8" y1="169.75" y2="186.8438"/><line style="stroke: #000000; stroke-width: 1.0;" x1="260" x2="260" y1="169.75" y2="186.8438"/><line style="stroke: #000000; stroke-width: 1.0;" x1="8" x2="8" y1="127.5625" y2="152.6563"/><line style="stroke: #000000; stroke-width: 1.0;" x1="260" x2="260" y1="127.5625" y2="152.6563"/><path d="M270,92.375 L266,96.375 L270,100.375 L270,92.375 " fill="#000000" style="stroke: ; stroke-width: 0.0; stroke-dasharray: ;"/><rect fill="#EEEEEE" height="19.0938" rx="5" ry="5" style="stroke: #000000; stroke-width: 2.5;" width="564" x="279.5" y="96.875"/><text fill="#000000" font-family="sans-serif" font-size="12" font-weight="bold" lengthAdjust="spacingAndGlyphs" textLength="121" x="501" y="111.332">JEUDI - 2 février 2019</text><rect fill="#EEEEEE" height="19.0938" rx="5" ry="5" style="stroke: #000000; stroke-width: 2.5;" width="44" x="280.5" y="125.9688"/><text fill="#000000" font-family="sans-serif" font-size="12" lengthAdjust="spacingAndGlyphs" textLength="17" x="294" y="140.4258">DP</text><rect fill="#EEEEEE" height="19.0938" rx="5" ry="5" style="stroke: #000000; stroke-width: 2.5;" width="44" x="331.5" y="125.9688"/><text fill="#000000" font-family="sans-serif" font-size="12" lengthAdjust="spacingAndGlyphs" textLength="12" x="347.5" y="140.4258">IN</text><rect fill="#EEEEEE" height="19.0938" rx="5" ry="5" style="stroke: #000000; stroke-width: 2.5;" width="44" x="382.5" y="125.9688"/><text fill="#000000" font-family="sans-serif" font-size="12" lengthAdjust="spacingAndGlyphs" textLength="16" x="396.5" y="140.4258">LD</text><rect fill="#EEEEEE" height="19.0938" rx="5" ry="5" style="stroke: #000000; stroke-width: 2.5;" width="44" x="433.5" y="125.9688"/><text fill="#000000" font-family="sans-serif" font-size="12" lengthAdjust="spacingAndGlyphs" textLength="16" x="447.5" y="140.4258">DL</text><rect fill="#EEEEEE" height="19.0938" rx="5" ry="5" style="stroke: #000000; stroke-width: 2.5;" width="44" x="484.5" y="125.9688"/><text fill="#000000" font-family="sans-serif" font-size="12" font-weight="bold" lengthAdjust="spacingAndGlyphs" textLength="16" x="498.5" y="140.4258">NA</text><rect fill="#EEEEEE" height="19.0938" rx="5" ry="5" style="stroke: #000000; stroke-width: 2.5;" width="44" x="535.5" y="125.9688"/><text fill="#000000" font-family="sans-serif" font-size="12" lengthAdjust="spacingAndGlyphs" textLength="25" x="545" y="140.4258">OUT</text><rect fill="#EEEEEE" height="19.0938" rx="5" ry="5" style="stroke: #000000; stroke-width: 2.5;" width="44" x="586.5" y="125.9688"/><text fill="#000000" font-family="sans-serif" font-size="12" lengthAdjust="spacingAndGlyphs" textLength="17" x="600" y="140.4258">BR</text><rect fill="#EEEEEE" height="19.0938" rx="5" ry="5" style="stroke: #000000; stroke-width: 2.5;" width="44" x="637.5" y="125.9688"/><text fill="#000000" font-family="sans-serif" font-size="12" lengthAdjust="spacingAndGlyphs" textLength="17" x="651" y="140.4258">NS</text><rect fill="#EEEEEE" height="19.0938" rx="5" ry="5" style="stroke: #000000; stroke-width: 2.5;" width="44" x="688.5" y="125.9688"/><text fill="#000000" font-family="sans-serif" font-size="12" lengthAdjust="spacingAndGlyphs" textLength="15" x="703" y="140.4258">LS</text><rect fill="#EEEEEE" height="19.0938" rx="5" ry="5" style="stroke: #000000; stroke-width: 2.5;" width="44" x="739.5" y="125.9688"/><text fill="#000000" font-family="sans-serif" font-size="12" lengthAdjust="spacingAndGlyphs" textLength="18" x="752.5" y="140.4258">UR</text><rect fill="#EEEEEE" height="12" rx="5" ry="5" style="stroke: #000000; stroke-width: 2.5;" width="20" x="791.5" y="124.9688"/><path d="M798.906,126.9688 L797.5,128.3748 L798.188,129.0938 L799.969,130.8748 L798.188,132.6558 L797.5,133.3748 L798.906,134.7808 L799.625,134.0928 L801.406,132.3118 L803.187,134.0928 L803.906,134.7808 L805.312,133.3748 L804.624,132.6558 L802.843,130.8748 L804.624,129.0938 L805.312,128.3748 L803.906,126.9688 L803.187,127.6568 L801.406,129.4378 L799.625,127.6568 L798.906,126.9688 " fill="#000000" style="stroke: ; stroke-width: 0.0; stroke-dasharray: ;"/><rect fill="#EEEEEE" height="19.0938" rx="5" ry="5" style="stroke: #000000; stroke-width: 2.5;" width="44" x="280.5" y="156.0625"/><text fill="#000000" font-family="sans-serif" font-size="12" lengthAdjust="spacingAndGlyphs" textLength="17" x="294" y="170.5195">DP</text><rect fill="#EEEEEE" height="19.0938" rx="5" ry="5" style="stroke: #000000; stroke-width: 2.5;" width="44" x="331.5" y="156.0625"/><text fill="#000000" font-family="sans-serif" font-size="12" font-weight="bold" lengthAdjust="spacingAndGlyphs" textLength="11" x="348" y="170.5195">IN</text><rect fill="#EEEEEE" height="19.0938" rx="5" ry="5" style="stroke: #000000; stroke-width: 2.5;" width="44" x="382.5" y="156.0625"/><text fill="#000000" font-family="sans-serif" font-size="12" lengthAdjust="spacingAndGlyphs" textLength="16" x="396.5" y="170.5195">LD</text><rect fill="#EEEEEE" height="19.0938" rx="5" ry="5" style="stroke: #000000; stroke-width: 2.5;" width="44" x="433.5" y="156.0625"/><text fill="#000000" font-family="sans-serif" font-size="12" lengthAdjust="spacingAndGlyphs" textLength="16" x="447.5" y="170.5195">DL</text><rect fill="#EEEEEE" height="19.0938" rx="5" ry="5" style="stroke: #000000; stroke-width: 2.5;" width="44" x="484.5" y="156.0625"/><text fill="#000000" font-family="sans-serif" font-size="12" lengthAdjust="spacingAndGlyphs" textLength="16" x="498.5" y="170.5195">NA</text><rect fill="#EEEEEE" height="19.0938" rx="5" ry="5" style="stroke: #000000; stroke-width: 2.5;" width="44" x="535.5" y="156.0625"/><text fill="#000000" font-family="sans-serif" font-size="12" lengthAdjust="spacingAndGlyphs" textLength="25" x="545" y="170.5195">OUT</text><rect fill="#EEEEEE" height="19.0938" rx="5" ry="5" style="stroke: #000000; stroke-width: 2.5;" width="44" x="586.5" y="156.0625"/><text fill="#000000" font-family="sans-serif" font-size="12" lengthAdjust="spacingAndGlyphs" textLength="17" x="600" y="170.5195">BR</text><rect fill="#EEEEEE" height="19.0938" rx="5" ry="5" style="stroke: #000000; stroke-width: 2.5;" width="44" x="637.5" y="156.0625"/><text fill="#000000" font-family="sans-serif" font-size="12" lengthAdjust="spacingAndGlyphs" textLength="17" x="651" y="170.5195">NS</text><rect fill="#EEEEEE" height="19.0938" rx="5" ry="5" style="stroke: #000000; stroke-width: 2.5;" width="44" x="688.5" y="156.0625"/><text fill="#000000" font-family="sans-serif" font-size="12" lengthAdjust="spacingAndGlyphs" textLength="15" x="703" y="170.5195">LS</text><rect fill="#EEEEEE" height="19.0938" rx="5" ry="5" style="stroke: #000000; stroke-width: 2.5;" width="44" x="739.5" y="156.0625"/><text fill="#000000" font-family="sans-serif" font-size="12" lengthAdjust="spacingAndGlyphs" textLength="18" x="752.5" y="170.5195">UR</text><rect fill="#EEEEEE" height="12" rx="5" ry="5" style="stroke: #000000; stroke-width: 2.5;" width="20" x="791.5" y="155.0625"/><path d="M800.5,157.0625 L800.5,160.0625 L797.5,160.0625 L797.5,162.0625 L800.5,162.0625 L800.5,165.0625 L802.5,165.0625 L802.5,162.0625 L805.5,162.0625 L805.5,160.0625 L802.5,160.0625 L802.5,157.0625 L800.5,157.0625 " fill="#000000" style="stroke: ; stroke-width: 0.0; stroke-dasharray: ;"/><rect fill="#EEEEEE" height="12" rx="5" ry="5" style="stroke: #000000; stroke-width: 2.5;" width="20" x="818.5" y="155.0625"/><path d="M825.906,157.0625 L824.5,158.4685 L825.188,159.1875 L826.969,160.9685 L825.188,162.7495 L824.5,163.4685 L825.906,164.8745 L826.625,164.1865 L828.406,162.4055 L830.187,164.1865 L830.906,164.8745 L832.312,163.4685 L831.624,162.7495 L829.843,160.9685 L831.624,159.1875 L832.312,158.4685 L830.906,157.0625 L830.187,157.7505 L828.406,159.5315 L826.625,157.7505 L825.906,157.0625 " fill="#000000" style="stroke: ; stroke-width: 0.0; stroke-dasharray: ;"/><rect fill="#EEEEEE" height="19.0938" rx="5" ry="5" style="stroke: #000000; stroke-width: 2.5;" width="44" x="280.5" y="203.25"/><text fill="#000000" font-family="sans-serif" font-size="12" font-weight="bold" lengthAdjust="spacingAndGlyphs" textLength="16" x="294.5" y="217.707">DP</text><rect fill="#EEEEEE" height="19.0938" rx="5" ry="5" style="stroke: #000000; stroke-width: 2.5;" width="44" x="331.5" y="203.25"/><text fill="#000000" font-family="sans-serif" font-size="12" lengthAdjust="spacingAndGlyphs" textLength="12" x="347.5" y="217.707">IN</text><rect fill="#EEEEEE" height="19.0938" rx="5" ry="5" style="stroke: #000000; stroke-width: 2.5;" width="44" x="382.5" y="203.25"/><text fill="#000000" font-family="sans-serif" font-size="12" lengthAdjust="spacingAndGlyphs" textLength="16" x="396.5" y="217.707">LD</text><rect fill="#EEEEEE" height="19.0938" rx="5" ry="5" style="stroke: #000000; stroke-width: 2.5;" width="44" x="433.5" y="203.25"/><text fill="#000000" font-family="sans-serif" font-size="12" lengthAdjust="spacingAndGlyphs" textLength="16" x="447.5" y="217.707">DL</text><rect fill="#EEEEEE" height="19.0938" rx="5" ry="5" style="stroke: #000000; stroke-width: 2.5;" width="44" x="484.5" y="203.25"/><text fill="#000000" font-family="sans-serif" font-size="12" lengthAdjust="spacingAndGlyphs" textLength="16" x="498.5" y="217.707">NA</text><rect fill="#EEEEEE" height="19.0938" rx="5" ry="5" style="stroke: #000000; stroke-width: 2.5;" width="44" x="535.5" y="203.25"/><text fill="#000000" font-family="sans-serif" font-size="12" lengthAdjust="spacingAndGlyphs" textLength="25" x="545" y="217.707">OUT</text><rect fill="#EEEEEE" height="19.0938" rx="5" ry="5" style="stroke: #000000; stroke-width: 2.5;" width="44" x="586.5" y="203.25"/><text fill="#000000" font-family="sans-serif" font-size="12" lengthAdjust="spacingAndGlyphs" textLength="17" x="600" y="217.707">BR</text><rect fill="#EEEEEE" height="19.0938" rx="5" ry="5" style="stroke: #000000; stroke-width: 2.5;" width="44" x="637.5" y="203.25"/><text fill="#000000" font-family="sans-serif" font-size="12" lengthAdjust="spacingAndGlyphs" textLength="17" x="651" y="217.707">NS</text><rect fill="#EEEEEE" height="19.0938" rx="5" ry="5" style="stroke: #000000; stroke-width: 2.5;" width="44" x="688.5" y="203.25"/><text fill="#000000" font-family="sans-serif" font-size="12" lengthAdjust="spacingAndGlyphs" textLength="15" x="703" y="217.707">LS</text><rect fill="#EEEEEE" height="19.0938" rx="5" ry="5" style="stroke: #000000; stroke-width: 2.5;" width="44" x="739.5" y="203.25"/><text fill="#000000" font-family="sans-serif" font-size="12" lengthAdjust="spacingAndGlyphs" textLength="18" x="752.5" y="217.707">UR</text><rect fill="#EEEEEE" height="12" rx="5" ry="5" style="stroke: #000000; stroke-width: 2.5;" width="20" x="791.5" y="202.25"/><path d="M800.5,204.25 L800.5,207.25 L797.5,207.25 L797.5,209.25 L800.5,209.25 L800.5,212.25 L802.5,212.25 L802.5,209.25 L805.5,209.25 L805.5,207.25 L802.5,207.25 L802.5,204.25 L800.5,204.25 " fill="#000000" style="stroke: ; stroke-width: 0.0; stroke-dasharray: ;"/><rect fill="#EEEEEE" height="19.0938" rx="5" ry="5" style="stroke: #000000; stroke-width: 2.5;" width="44" x="280.5" y="250.4375"/><text fill="#000000" font-family="sans-serif" font-size="12" lengthAdjust="spacingAndGlyphs" textLength="17" x="294" y="264.8945">DP</text><rect fill="#EEEEEE" height="19.0938" rx="5" ry="5" style="stroke: #000000; stroke-width: 2.5;" width="44" x="331.5" y="250.4375"/><text fill="#000000" font-family="sans-serif" font-size="12" font-weight="bold" lengthAdjust="spacingAndGlyphs" textLength="11" x="348" y="264.8945">IN</text><rect fill="#EEEEEE" height="19.0938" rx="5" ry="5" style="stroke: #000000; stroke-width: 2.5;" width="44" x="382.5" y="250.4375"/><text fill="#000000" font-family="sans-serif" font-size="12" lengthAdjust="spacingAndGlyphs" textLength="16" x="396.5" y="264.8945">LD</text><rect fill="#EEEEEE" height="19.0938" rx="5" ry="5" style="stroke: #000000; stroke-width: 2.5;" width="44" x="433.5" y="250.4375"/><text fill="#000000" font-family="sans-serif" font-size="12" lengthAdjust="spacingAndGlyphs" textLength="16" x="447.5" y="264.8945">DL</text><rect fill="#EEEEEE" height="19.0938" rx="5" ry="5" style="stroke: #000000; stroke-width: 2.5;" width="44" x="484.5" y="250.4375"/><text fill="#000000" font-family="sans-serif" font-size="12" lengthAdjust="spacingAndGlyphs" textLength="16" x="498.5" y="264.8945">NA</text><rect fill="#EEEEEE" height="19.0938" rx="5" ry="5" style="stroke: #000000; stroke-width: 2.5;" width="44" x="535.5" y="250.4375"/><text fill="#000000" font-family="sans-serif" font-size="12" lengthAdjust="spacingAndGlyphs" textLength="25" x="545" y="264.8945">OUT</text><rect fill="#EEEEEE" height="19.0938" rx="5" ry="5" style="stroke: #000000; stroke-width: 2.5;" width="44" x="586.5" y="250.4375"/><text fill="#000000" font-family="sans-serif" font-size="12" lengthAdjust="spacingAndGlyphs" textLength="17" x="600" y="264.8945">BR</text><rect fill="#EEEEEE" height="19.0938" rx="5" ry="5" style="stroke: #000000; stroke-width: 2.5;" width="44" x="637.5" y="250.4375"/><text fill="#000000" font-family="sans-serif" font-size="12" lengthAdjust="spacingAndGlyphs" textLength="17" x="651" y="264.8945">NS</text><rect fill="#EEEEEE" height="19.0938" rx="5" ry="5" style="stroke: #000000; stroke-width: 2.5;" width="44" x="688.5" y="250.4375"/><text fill="#000000" font-family="sans-serif" font-size="12" lengthAdjust="spacingAndGlyphs" textLength="15" x="703" y="264.8945">LS</text><rect fill="#EEEEEE" height="19.0938" rx="5" ry="5" style="stroke: #000000; stroke-width: 2.5;" width="44" x="739.5" y="250.4375"/><text fill="#000000" font-family="sans-serif" font-size="12" lengthAdjust="spacingAndGlyphs" textLength="18" x="752.5" y="264.8945">UR</text><rect fill="#EEEEEE" height="12" rx="5" ry="5" style="stroke: #000000; stroke-width: 2.5;" width="20" x="791.5" y="249.4375"/><path d="M800.5,251.4375 L800.5,254.4375 L797.5,254.4375 L797.5,256.4375 L800.5,256.4375 L800.5,259.4375 L802.5,259.4375 L802.5,256.4375 L805.5,256.4375 L805.5,254.4375 L802.5,254.4375 L802.5,251.4375 L800.5,251.4375 " fill="#000000" style="stroke: ; stroke-width: 0.0; stroke-dasharray: ;"/><rect fill="#EEEEEE" height="19.0938" rx="5" ry="5" style="stroke: #000000; stroke-width: 2.5;" width="44" x="280.5" y="297.625"/><text fill="#000000" font-family="sans-serif" font-size="12" lengthAdjust="spacingAndGlyphs" textLength="17" x="294" y="312.082">DP</text><rect fill="#EEEEEE" height="19.0938" rx="5" ry="5" style="stroke: #000000; stroke-width: 2.5;" width="44" x="331.5" y="297.625"/><text fill="#000000" font-family="sans-serif" font-size="12" lengthAdjust="spacingAndGlyphs" textLength="12" x="347.5" y="312.082">IN</text><rect fill="#EEEEEE" height="19.0938" rx="5" ry="5" style="stroke: #000000; stroke-width: 2.5;" width="44" x="382.5" y="297.625"/><text fill="#000000" font-family="sans-serif" font-size="12" lengthAdjust="spacingAndGlyphs" textLength="16" x="396.5" y="312.082">LD</text><rect fill="#EEEEEE" height="19.0938" rx="5" ry="5" style="stroke: #000000; stroke-width: 2.5;" width="44" x="433.5" y="297.625"/><text fill="#000000" font-family="sans-serif" font-size="12" lengthAdjust="spacingAndGlyphs" textLength="16" x="447.5" y="312.082">DL</text><rect fill="#EEEEEE" height="19.0938" rx="5" ry="5" style="stroke: #000000; stroke-width: 2.5;" width="44" x="484.5" y="297.625"/><text fill="#000000" font-family="sans-serif" font-size="12" font-weight="bold" lengthAdjust="spacingAndGlyphs" textLength="16" x="498.5" y="312.082">NA</text><rect fill="#EEEEEE" height="19.0938" rx="5" ry="5" style="stroke: #000000; stroke-width: 2.5;" width="44" x="535.5" y="297.625"/><text fill="#000000" font-family="sans-serif" font-size="12" lengthAdjust="spacingAndGlyphs" textLength="25" x="545" y="312.082">OUT</text><rect fill="#EEEEEE" height="19.0938" rx="5" ry="5" style="stroke: #000000; stroke-width: 2.5;" width="44" x="586.5" y="297.625"/><text fill="#000000" font-family="sans-serif" font-size="12" lengthAdjust="spacingAndGlyphs" textLength="17" x="600" y="312.082">BR</text><rect fill="#EEEEEE" height="19.0938" rx="5" ry="5" style="stroke: #000000; stroke-width: 2.5;" width="44" x="637.5" y="297.625"/><text fill="#000000" font-family="sans-serif" font-size="12" lengthAdjust="spacingAndGlyphs" textLength="17" x="651" y="312.082">NS</text><rect fill="#EEEEEE" height="19.0938" rx="5" ry="5" style="stroke: #000000; stroke-width: 2.5;" width="44" x="688.5" y="297.625"/><text fill="#000000" font-family="sans-serif" font-size="12" lengthAdjust="spacingAndGlyphs" textLength="15" x="703" y="312.082">LS</text><rect fill="#EEEEEE" height="19.0938" rx="5" ry="5" style="stroke: #000000; stroke-width: 2.5;" width="44" x="739.5" y="297.625"/><text fill="#000000" font-family="sans-serif" font-size="12" lengthAdjust="spacingAndGlyphs" textLength="18" x="752.5" y="312.082">UR</text><rect fill="#EEEEEE" height="12" rx="5" ry="5" style="stroke: #000000; stroke-width: 2.5;" width="20" x="791.5" y="296.625"/><path d="M800.5,298.625 L800.5,301.625 L797.5,301.625 L797.5,303.625 L800.5,303.625 L800.5,306.625 L802.5,306.625 L802.5,303.625 L805.5,303.625 L805.5,301.625 L802.5,301.625 L802.5,298.625 L800.5,298.625 " fill="#000000" style="stroke: ; stroke-width: 0.0; stroke-dasharray: ;"/><path d="M853,92.375 L853,100.375 L857,96.375 L853,92.375 " fill="#000000" style="stroke: ; stroke-width: 0.0; stroke-dasharray: ;"/><line style="stroke: #000000; stroke-width: 1.0;" x1="6" x2="262" y1="65.2813" y2="65.2813"/><line style="stroke: #000000; stroke-width: 1.0;" x1="274" x2="849" y1="332.5" y2="332.5"/><line style="stroke: #000000; stroke-width: 1.0;" x1="262" x2="274" y1="65.2813" y2="65.2813"/><line style="stroke: #000000; stroke-width: 1.0;" x1="849" x2="908" y1="332.5" y2="332.5"/><line style="stroke: #000000; stroke-width: 1.0;" x1="274" x2="849" y1="65.2813" y2="65.2813"/><line style="stroke: #000000; stroke-width: 1.0;" x1="849" x2="908" y1="65.2813" y2="65.2813"/><line style="stroke: #000000; stroke-width: 1.0;" x1="6" x2="262" y1="332.5" y2="332.5"/><line style="stroke: #000000; stroke-width: 1.0;" x1="262" x2="274" y1="332.5" y2="332.5"/><line style="stroke: #000000; stroke-width: 1.0;" x1="6" x2="6" y1="65.2813" y2="91.375"/><line style="stroke: #000000; stroke-width: 1.0;" x1="908" x2="908" y1="91.375" y2="332.5"/><line style="stroke: #000000; stroke-width: 1.0;" x1="908" x2="908" y1="65.2813" y2="91.375"/><line style="stroke: #000000; stroke-width: 1.0;" x1="6" x2="6" y1="91.375" y2="332.5"/><rect fill="none" height="267.2188" style="stroke: #000000; stroke-width: 1.0;" width="15" x="912" y="65.2813"/><line style="stroke: #000000; stroke-width: 1.0;" x1="912" x2="927" y1="77.2813" y2="77.2813"/><line style="stroke: #000000; stroke-width: 1.0;" x1="912" x2="927" y1="320.5" y2="320.5"/><path d="M919,69.2813 L922,74.2813 L916,74.2813 L919,69.2813 " fill="#000000" style="stroke: #000000; stroke-width: 1.0;"/><path d="M919,329.5 L922,324.5 L916,324.5 L919,329.5 " fill="#000000" style="stroke: #000000; stroke-width: 1.0;"/><line style="stroke: #AAAAAA; stroke-width: 1.0; stroke-dasharray: 1.0,2.0;" x1="6" x2="939" y1="338" y2="338"/><rect fill="#EEEEEE" height="19.0938" rx="5" ry="5" style="stroke: #000000; stroke-width: 2.5;" width="92" x="10.5" y="347"/><text fill="#000000" font-family="sans-serif" font-size="12" lengthAdjust="spacingAndGlyphs" textLength="70" x="21.5" y="361.457">Sauvegarder</text><rect fill="#EEEEEE" height="19.0938" rx="5" ry="5" style="stroke: #000000; stroke-width: 2.5;" width="156" x="109.5" y="347"/><text fill="#000000" font-family="sans-serif" font-size="12" lengthAdjust="spacingAndGlyphs" textLength="96" x="139.5" y="361.457">Saisir une activité</text><rect fill="none" height="267.2188" style="stroke: #000000; stroke-width: 1.0;" width="15" x="912" y="65.2813"/><line style="stroke: #000000; stroke-width: 1.0;" x1="912" x2="927" y1="77.2813" y2="77.2813"/><line style="stroke: #000000; stroke-width: 1.0;" x1="912" x2="927" y1="320.5" y2="320.5"/><path d="M919,69.2813 L922,74.2813 L916,74.2813 L919,69.2813 " fill="#000000" style="stroke: #000000; stroke-width: 1.0;"/><path d="M919,329.5 L922,324.5 L916,324.5 L919,329.5 " fill="#000000" style="stroke: #000000; stroke-width: 1.0;"/></g></svg>