<?xml version="1.0" encoding="us-ascii" standalone="no"?><svg xmlns="http://www.w3.org/2000/svg" xmlns:xlink="http://www.w3.org/1999/xlink" contentStyleType="text/css" height="372px" preserveAspectRatio="none" style="width:922px;height:372px;background:#FFFFFF;" version="1.1" viewBox="0 0 922 372" width="922px" zoomAndPan="magnify"><defs/><g><text fill="#000000" font-family="sans-serif" font-size="12" font-weight="bold" lengthAdjust="spacing" textLength="360" x="6" y="18.457">Weekly report of activity 02/02/2019 00:00 - LS-AF - Anse Forban</text><line style="stroke:#AAAAAA;stroke-width:1.0;stroke-dasharray:1.0,2.0;" x1="6" x2="915" y1="26.5938" y2="26.5938"/><text fill="#000000" font-family="sans-serif" font-size="12" lengthAdjust="spacing" textLength="114" x="8" y="43.5508">Information g&#233;n&#233;rale</text><line style="stroke:#000000;stroke-width:1.0;" x1="6" x2="6" y1="31.0938" y2="46.1875"/><line style="stroke:#000000;stroke-width:1.0;" x1="6" x2="125" y1="31.0938" y2="31.0938"/><line style="stroke:#000000;stroke-width:1.0;" x1="125" x2="125" y1="31.0938" y2="46.1875"/><line style="stroke:#000000;stroke-width:1.0;" x1="125" x2="135" y1="46.1875" y2="46.1875"/><text fill="#000000" font-family="sans-serif" font-size="12" font-weight="bold" lengthAdjust="spacing" textLength="119" x="137" y="43.5508">Situation des navires</text><line style="stroke:#000000;stroke-width:1.0;" x1="135" x2="135" y1="31.0938" y2="46.1875"/><line style="stroke:#000000;stroke-width:1.0;" x1="135" x2="259" y1="31.0938" y2="31.0938"/><line style="stroke:#000000;stroke-width:1.0;" x1="259" x2="259" y1="31.0938" y2="46.1875"/><line style="stroke:#000000;stroke-width:1.0;" x1="259" x2="269" y1="46.1875" y2="46.1875"/><text fill="#000000" font-family="sans-serif" font-size="12" lengthAdjust="spacing" textLength="111" x="271" y="43.5508">Activit&#233;s des navires</text><line style="stroke:#000000;stroke-width:1.0;" x1="269" x2="269" y1="31.0938" y2="46.1875"/><line style="stroke:#000000;stroke-width:1.0;" x1="269" x2="385" y1="31.0938" y2="31.0938"/><line style="stroke:#000000;stroke-width:1.0;" x1="385" x2="385" y1="31.0938" y2="46.1875"/><line style="stroke:#000000;stroke-width:1.0;" x1="385" x2="395" y1="46.1875" y2="46.1875"/><rect fill="#EEEEEE" height="19.0938" rx="5" ry="5" style="stroke:#000000;stroke-width:2.5;" width="52" x="828.5" y="68.7813"/><text fill="#000000" font-family="sans-serif" font-size="12" lengthAdjust="spacing" textLength="40" x="834.5" y="83.2383">Fermer</text><text fill="#000000" font-family="sans-serif" font-size="12" font-weight="bold" lengthAdjust="spacing" textLength="76" x="9" y="106.832">Liste navires:</text><rect fill="#EEEEEE" height="18.0938" style="stroke:#000000;stroke-width:1.0;" width="191" x="11" y="130.5625"/><text fill="#000000" font-family="sans-serif" font-size="12" lengthAdjust="spacing" textLength="73" x="13" y="145.0195">SZ190 - Ziblo</text><line style="stroke:#000000;stroke-width:1.0;" x1="191" x2="191" y1="130.5625" y2="148.6563"/><polygon fill="#000000" points="194,136.5625,200,136.5625,197,143.6563" style="stroke:#000000;stroke-width:1.0;"/><rect fill="#EEEEEE" height="12" rx="5" ry="5" style="stroke:#000000;stroke-width:2.5;" width="20" x="207.5" y="133.0625"/><path d="M214.91,135.0625 L213.5,136.4725 L214.22,137.1925 L216,139.0025 L214.22,140.7825 L213.5,141.4725 L214.91,142.9125 L215.63,142.1925 L217.44,140.3825 L219.22,142.1925 L219.91,142.9125 L221.35,141.4725 L220.63,140.7825 L218.82,139.0025 L220.63,137.1925 L221.35,136.4725 L219.91,135.0625 L219.22,135.7825 L217.44,137.5625 L215.63,135.7825 L214.91,135.0625 " fill="#000000" style="stroke:;stroke-width:0.0;stroke-dasharray:;"/><rect fill="#EEEEEE" height="18.0938" style="stroke:#000000;stroke-width:1.0;" width="191" x="11" y="206.9375"/><text fill="#000000" font-family="sans-serif" font-size="12" lengthAdjust="spacing" textLength="48" x="13" y="221.3945">Vessel 2</text><line style="stroke:#000000;stroke-width:1.0;" x1="191" x2="191" y1="206.9375" y2="225.0313"/><polygon fill="#000000" points="194,212.9375,200,212.9375,197,220.0313" style="stroke:#000000;stroke-width:1.0;"/><rect fill="#EEEEEE" height="12" rx="5" ry="5" style="stroke:#000000;stroke-width:2.5;" width="20" x="207.5" y="209.4375"/><path d="M214.91,211.4375 L213.5,212.8475 L214.22,213.5675 L216,215.3775 L214.22,217.1575 L213.5,217.8475 L214.91,219.2875 L215.63,218.5675 L217.44,216.7575 L219.22,218.5675 L219.91,219.2875 L221.35,217.8475 L220.63,217.1575 L218.82,215.3775 L220.63,213.5675 L221.35,212.8475 L219.91,211.4375 L219.22,212.1575 L217.44,213.9375 L215.63,212.1575 L214.91,211.4375 " fill="#000000" style="stroke:;stroke-width:0.0;stroke-dasharray:;"/><rect fill="#EEEEEE" height="18.0938" style="stroke:#000000;stroke-width:1.0;" width="191" x="11" y="249.125"/><text fill="#000000" font-family="sans-serif" font-size="12" lengthAdjust="spacing" textLength="48" x="13" y="263.582">Vessel 3</text><line style="stroke:#000000;stroke-width:1.0;" x1="191" x2="191" y1="249.125" y2="267.2188"/><polygon fill="#000000" points="194,255.125,200,255.125,197,262.2188" style="stroke:#000000;stroke-width:1.0;"/><rect fill="#EEEEEE" height="12" rx="5" ry="5" style="stroke:#000000;stroke-width:2.5;" width="20" x="207.5" y="251.625"/><path d="M214.91,253.625 L213.5,255.035 L214.22,255.755 L216,257.565 L214.22,259.345 L213.5,260.035 L214.91,261.475 L215.63,260.755 L217.44,258.945 L219.22,260.755 L219.91,261.475 L221.35,260.035 L220.63,259.345 L218.82,257.565 L220.63,255.755 L221.35,255.035 L219.91,253.625 L219.22,254.345 L217.44,256.125 L215.63,254.345 L214.91,253.625 " fill="#000000" style="stroke:;stroke-width:0.0;stroke-dasharray:;"/><rect fill="#EEEEEE" height="18.0938" style="stroke:#000000;stroke-width:1.0;" width="191" x="11" y="291.3125"/><text fill="#000000" font-family="sans-serif" font-size="12" lengthAdjust="spacing" textLength="48" x="13" y="305.7695">Vessel 4</text><line style="stroke:#000000;stroke-width:1.0;" x1="191" x2="191" y1="291.3125" y2="309.4063"/><polygon fill="#000000" points="194,297.3125,200,297.3125,197,304.4063" style="stroke:#000000;stroke-width:1.0;"/><rect fill="#EEEEEE" height="12" rx="5" ry="5" style="stroke:#000000;stroke-width:2.5;" width="20" x="207.5" y="293.8125"/><path d="M216.5,295.8125 L216.5,298.8125 L213.5,298.8125 L213.5,300.8125 L216.5,300.8125 L216.5,303.8125 L218.5,303.8125 L218.5,300.8125 L221.5,300.8125 L221.5,298.8125 L218.5,298.8125 L218.5,295.8125 L216.5,295.8125 " fill="#000000" style="stroke:;stroke-width:0.0;stroke-dasharray:;"/><rect fill="#EEEEEE" height="12" rx="5" ry="5" style="stroke:#000000;stroke-width:2.5;" width="20" x="234.5" y="293.8125"/><path d="M241.91,295.8125 L240.5,297.2225 L241.22,297.9425 L243,299.7525 L241.22,301.5325 L240.5,302.2225 L241.91,303.6625 L242.63,302.9425 L244.44,301.1325 L246.22,302.9425 L246.91,303.6625 L248.35,302.2225 L247.63,301.5325 L245.82,299.7525 L247.63,297.9425 L248.35,297.2225 L246.91,295.8125 L246.22,296.5325 L244.44,298.3125 L242.63,296.5325 L241.91,295.8125 " fill="#000000" style="stroke:;stroke-width:0.0;stroke-dasharray:;"/><line style="stroke:#000000;stroke-width:1.0;" x1="8" x2="260" y1="93.375" y2="93.375"/><line style="stroke:#000000;stroke-width:1.0;" x1="8" x2="260" y1="330.5" y2="330.5"/><line style="stroke:#000000;stroke-width:1.0;" x1="8" x2="8" y1="93.375" y2="110.4688"/><line style="stroke:#000000;stroke-width:1.0;" x1="260" x2="260" y1="93.375" y2="110.4688"/><line style="stroke:#000000;stroke-width:1.0;" x1="8" x2="8" y1="313.4063" y2="330.5"/><line style="stroke:#000000;stroke-width:1.0;" x1="260" x2="260" y1="313.4063" y2="330.5"/><line style="stroke:#000000;stroke-width:1.0;" x1="8" x2="8" y1="271.2188" y2="288.3125"/><line style="stroke:#000000;stroke-width:1.0;" x1="260" x2="260" y1="271.2188" y2="288.3125"/><line style="stroke:#000000;stroke-width:1.0;" x1="8" x2="8" y1="229.0313" y2="246.125"/><line style="stroke:#000000;stroke-width:1.0;" x1="260" x2="260" y1="229.0313" y2="246.125"/><line style="stroke:#000000;stroke-width:1.0;" x1="8" x2="8" y1="186.8438" y2="203.9375"/><line style="stroke:#000000;stroke-width:1.0;" x1="260" x2="260" y1="186.8438" y2="203.9375"/><line style="stroke:#000000;stroke-width:1.0;" x1="8" x2="8" y1="152.6563" y2="169.75"/><line style="stroke:#000000;stroke-width:1.0;" x1="260" x2="260" y1="152.6563" y2="169.75"/><line style="stroke:#000000;stroke-width:1.0;" x1="8" x2="8" y1="110.4688" y2="127.5625"/><line style="stroke:#000000;stroke-width:1.0;" x1="260" x2="260" y1="110.4688" y2="127.5625"/><line style="stroke:#000000;stroke-width:1.0;" x1="8" x2="8" y1="288.3125" y2="313.4063"/><line style="stroke:#000000;stroke-width:1.0;" x1="260" x2="260" y1="288.3125" y2="313.4063"/><line style="stroke:#000000;stroke-width:1.0;" x1="8" x2="8" y1="246.125" y2="271.2188"/><line style="stroke:#000000;stroke-width:1.0;" x1="260" x2="260" y1="246.125" y2="271.2188"/><line style="stroke:#000000;stroke-width:1.0;" x1="8" x2="8" y1="203.9375" y2="229.0313"/><line style="stroke:#000000;stroke-width:1.0;" x1="260" x2="260" y1="203.9375" y2="229.0313"/><line style="stroke:#000000;stroke-width:1.0;" x1="8" x2="8" y1="169.75" y2="186.8438"/><line style="stroke:#000000;stroke-width:1.0;" x1="260" x2="260" y1="169.75" y2="186.8438"/><line style="stroke:#000000;stroke-width:1.0;" x1="8" x2="8" y1="127.5625" y2="152.6563"/><line style="stroke:#000000;stroke-width:1.0;" x1="260" x2="260" y1="127.5625" y2="152.6563"/><path d="M268,92.375 L264,96.375 L268,100.375 L268,92.375 " fill="#000000" style="stroke:;stroke-width:0.0;stroke-dasharray:;"/><rect fill="#EEEEEE" height="19.0938" rx="5" ry="5" style="stroke:#000000;stroke-width:2.5;" width="540" x="279.5" y="96.875"/><text fill="#000000" font-family="sans-serif" font-size="12" font-weight="bold" lengthAdjust="spacing" textLength="121" x="489" y="111.332">JEUDI - 2 f&#233;vrier 2019</text><rect fill="#EEEEEE" height="19.0938" rx="5" ry="5" style="stroke:#000000;stroke-width:2.5;" width="44" x="280.5" y="125.9688"/><text fill="#000000" font-family="sans-serif" font-size="12" lengthAdjust="spacing" textLength="17" x="294" y="140.4258">DP</text><rect fill="#EEEEEE" height="19.0938" rx="5" ry="5" style="stroke:#000000;stroke-width:2.5;" width="44" x="331.5" y="125.9688"/><text fill="#000000" font-family="sans-serif" font-size="12" lengthAdjust="spacing" textLength="12" x="347.5" y="140.4258">IN</text><rect fill="#EEEEEE" height="19.0938" rx="5" ry="5" style="stroke:#000000;stroke-width:2.5;" width="44" x="382.5" y="125.9688"/><text fill="#000000" font-family="sans-serif" font-size="12" lengthAdjust="spacing" textLength="16" x="396.5" y="140.4258">LD</text><rect fill="#EEEEEE" height="19.0938" rx="5" ry="5" style="stroke:#000000;stroke-width:2.5;" width="44" x="433.5" y="125.9688"/><text fill="#000000" font-family="sans-serif" font-size="12" lengthAdjust="spacing" textLength="16" x="447.5" y="140.4258">DL</text><rect fill="#EEEEEE" height="19.0938" rx="5" ry="5" style="stroke:#000000;stroke-width:2.5;" width="20" x="484.5" y="125.9688"/><text fill="#000000" font-family="sans-serif" font-size="12" font-weight="bold" lengthAdjust="spacing" textLength="16" x="486.5" y="140.4258">NA</text><rect fill="#EEEEEE" height="19.0938" rx="5" ry="5" style="stroke:#000000;stroke-width:2.5;" width="44" x="511.5" y="125.9688"/><text fill="#000000" font-family="sans-serif" font-size="12" lengthAdjust="spacing" textLength="25" x="521" y="140.4258">OUT</text><rect fill="#EEEEEE" height="19.0938" rx="5" ry="5" style="stroke:#000000;stroke-width:2.5;" width="44" x="562.5" y="125.9688"/><text fill="#000000" font-family="sans-serif" font-size="12" lengthAdjust="spacing" textLength="17" x="576" y="140.4258">BR</text><rect fill="#EEEEEE" height="19.0938" rx="5" ry="5" style="stroke:#000000;stroke-width:2.5;" width="44" x="613.5" y="125.9688"/><text fill="#000000" font-family="sans-serif" font-size="12" lengthAdjust="spacing" textLength="17" x="627" y="140.4258">NS</text><rect fill="#EEEEEE" height="19.0938" rx="5" ry="5" style="stroke:#000000;stroke-width:2.5;" width="44" x="664.5" y="125.9688"/><text fill="#000000" font-family="sans-serif" font-size="12" lengthAdjust="spacing" textLength="15" x="679" y="140.4258">LS</text><rect fill="#EEEEEE" height="19.0938" rx="5" ry="5" style="stroke:#000000;stroke-width:2.5;" width="44" x="715.5" y="125.9688"/><text fill="#000000" font-family="sans-serif" font-size="12" lengthAdjust="spacing" textLength="18" x="728.5" y="140.4258">UR</text><rect fill="#EEEEEE" height="12" rx="5" ry="5" style="stroke:#000000;stroke-width:2.5;" width="20" x="767.5" y="124.9688"/><path d="M774.91,126.9688 L773.5,128.3788 L774.22,129.0988 L776,130.9088 L774.22,132.6888 L773.5,133.3788 L774.91,134.8188 L775.63,134.0988 L777.44,132.2888 L779.22,134.0988 L779.91,134.8188 L781.35,133.3788 L780.63,132.6888 L778.82,130.9088 L780.63,129.0988 L781.35,128.3788 L779.91,126.9688 L779.22,127.6888 L777.44,129.4688 L775.63,127.6888 L774.91,126.9688 " fill="#000000" style="stroke:;stroke-width:0.0;stroke-dasharray:;"/><rect fill="#EEEEEE" height="19.0938" rx="5" ry="5" style="stroke:#000000;stroke-width:2.5;" width="44" x="280.5" y="156.0625"/><text fill="#000000" font-family="sans-serif" font-size="12" lengthAdjust="spacing" textLength="17" x="294" y="170.5195">DP</text><rect fill="#EEEEEE" height="19.0938" rx="5" ry="5" style="stroke:#000000;stroke-width:2.5;" width="20" x="331.5" y="156.0625"/><text fill="#000000" font-family="sans-serif" font-size="12" font-weight="bold" lengthAdjust="spacing" textLength="11" x="336" y="170.5195">IN</text><rect fill="#EEEEEE" height="19.0938" rx="5" ry="5" style="stroke:#000000;stroke-width:2.5;" width="44" x="358.5" y="156.0625"/><text fill="#000000" font-family="sans-serif" font-size="12" lengthAdjust="spacing" textLength="16" x="372.5" y="170.5195">LD</text><rect fill="#EEEEEE" height="19.0938" rx="5" ry="5" style="stroke:#000000;stroke-width:2.5;" width="44" x="409.5" y="156.0625"/><text fill="#000000" font-family="sans-serif" font-size="12" lengthAdjust="spacing" textLength="16" x="423.5" y="170.5195">DL</text><rect fill="#EEEEEE" height="19.0938" rx="5" ry="5" style="stroke:#000000;stroke-width:2.5;" width="44" x="460.5" y="156.0625"/><text fill="#000000" font-family="sans-serif" font-size="12" lengthAdjust="spacing" textLength="16" x="474.5" y="170.5195">NA</text><rect fill="#EEEEEE" height="19.0938" rx="5" ry="5" style="stroke:#000000;stroke-width:2.5;" width="44" x="511.5" y="156.0625"/><text fill="#000000" font-family="sans-serif" font-size="12" lengthAdjust="spacing" textLength="25" x="521" y="170.5195">OUT</text><rect fill="#EEEEEE" height="19.0938" rx="5" ry="5" style="stroke:#000000;stroke-width:2.5;" width="44" x="562.5" y="156.0625"/><text fill="#000000" font-family="sans-serif" font-size="12" lengthAdjust="spacing" textLength="17" x="576" y="170.5195">BR</text><rect fill="#EEEEEE" height="19.0938" rx="5" ry="5" style="stroke:#000000;stroke-width:2.5;" width="44" x="613.5" y="156.0625"/><text fill="#000000" font-family="sans-serif" font-size="12" lengthAdjust="spacing" textLength="17" x="627" y="170.5195">NS</text><rect fill="#EEEEEE" height="19.0938" rx="5" ry="5" style="stroke:#000000;stroke-width:2.5;" width="44" x="664.5" y="156.0625"/><text fill="#000000" font-family="sans-serif" font-size="12" lengthAdjust="spacing" textLength="15" x="679" y="170.5195">LS</text><rect fill="#EEEEEE" height="19.0938" rx="5" ry="5" style="stroke:#000000;stroke-width:2.5;" width="44" x="715.5" y="156.0625"/><text fill="#000000" font-family="sans-serif" font-size="12" lengthAdjust="spacing" textLength="18" x="728.5" y="170.5195">UR</text><rect fill="#EEEEEE" height="12" rx="5" ry="5" style="stroke:#000000;stroke-width:2.5;" width="20" x="767.5" y="155.0625"/><path d="M776.5,157.0625 L776.5,160.0625 L773.5,160.0625 L773.5,162.0625 L776.5,162.0625 L776.5,165.0625 L778.5,165.0625 L778.5,162.0625 L781.5,162.0625 L781.5,160.0625 L778.5,160.0625 L778.5,157.0625 L776.5,157.0625 " fill="#000000" style="stroke:;stroke-width:0.0;stroke-dasharray:;"/><rect fill="#EEEEEE" height="12" rx="5" ry="5" style="stroke:#000000;stroke-width:2.5;" width="20" x="794.5" y="155.0625"/><path d="M801.91,157.0625 L800.5,158.4725 L801.22,159.1925 L803,161.0025 L801.22,162.7825 L800.5,163.4725 L801.91,164.9125 L802.63,164.1925 L804.44,162.3825 L806.22,164.1925 L806.91,164.9125 L808.35,163.4725 L807.63,162.7825 L805.82,161.0025 L807.63,159.1925 L808.35,158.4725 L806.91,157.0625 L806.22,157.7825 L804.44,159.5625 L802.63,157.7825 L801.91,157.0625 " fill="#000000" style="stroke:;stroke-width:0.0;stroke-dasharray:;"/><rect fill="#EEEEEE" height="19.0938" rx="5" ry="5" style="stroke:#000000;stroke-width:2.5;" width="20" x="280.5" y="203.25"/><text fill="#000000" font-family="sans-serif" font-size="12" font-weight="bold" lengthAdjust="spacing" textLength="16" x="282.5" y="217.707">DP</text><rect fill="#EEEEEE" height="19.0938" rx="5" ry="5" style="stroke:#000000;stroke-width:2.5;" width="44" x="307.5" y="203.25"/><text fill="#000000" font-family="sans-serif" font-size="12" lengthAdjust="spacing" textLength="12" x="323.5" y="217.707">IN</text><rect fill="#EEEEEE" height="19.0938" rx="5" ry="5" style="stroke:#000000;stroke-width:2.5;" width="44" x="358.5" y="203.25"/><text fill="#000000" font-family="sans-serif" font-size="12" lengthAdjust="spacing" textLength="16" x="372.5" y="217.707">LD</text><rect fill="#EEEEEE" height="19.0938" rx="5" ry="5" style="stroke:#000000;stroke-width:2.5;" width="44" x="409.5" y="203.25"/><text fill="#000000" font-family="sans-serif" font-size="12" lengthAdjust="spacing" textLength="16" x="423.5" y="217.707">DL</text><rect fill="#EEEEEE" height="19.0938" rx="5" ry="5" style="stroke:#000000;stroke-width:2.5;" width="44" x="460.5" y="203.25"/><text fill="#000000" font-family="sans-serif" font-size="12" lengthAdjust="spacing" textLength="16" x="474.5" y="217.707">NA</text><rect fill="#EEEEEE" height="19.0938" rx="5" ry="5" style="stroke:#000000;stroke-width:2.5;" width="44" x="511.5" y="203.25"/><text fill="#000000" font-family="sans-serif" font-size="12" lengthAdjust="spacing" textLength="25" x="521" y="217.707">OUT</text><rect fill="#EEEEEE" height="19.0938" rx="5" ry="5" style="stroke:#000000;stroke-width:2.5;" width="44" x="562.5" y="203.25"/><text fill="#000000" font-family="sans-serif" font-size="12" lengthAdjust="spacing" textLength="17" x="576" y="217.707">BR</text><rect fill="#EEEEEE" height="19.0938" rx="5" ry="5" style="stroke:#000000;stroke-width:2.5;" width="44" x="613.5" y="203.25"/><text fill="#000000" font-family="sans-serif" font-size="12" lengthAdjust="spacing" textLength="17" x="627" y="217.707">NS</text><rect fill="#EEEEEE" height="19.0938" rx="5" ry="5" style="stroke:#000000;stroke-width:2.5;" width="44" x="664.5" y="203.25"/><text fill="#000000" font-family="sans-serif" font-size="12" lengthAdjust="spacing" textLength="15" x="679" y="217.707">LS</text><rect fill="#EEEEEE" height="19.0938" rx="5" ry="5" style="stroke:#000000;stroke-width:2.5;" width="44" x="715.5" y="203.25"/><text fill="#000000" font-family="sans-serif" font-size="12" lengthAdjust="spacing" textLength="18" x="728.5" y="217.707">UR</text><rect fill="#EEEEEE" height="12" rx="5" ry="5" style="stroke:#000000;stroke-width:2.5;" width="20" x="767.5" y="202.25"/><path d="M776.5,204.25 L776.5,207.25 L773.5,207.25 L773.5,209.25 L776.5,209.25 L776.5,212.25 L778.5,212.25 L778.5,209.25 L781.5,209.25 L781.5,207.25 L778.5,207.25 L778.5,204.25 L776.5,204.25 " fill="#000000" style="stroke:;stroke-width:0.0;stroke-dasharray:;"/><rect fill="#EEEEEE" height="19.0938" rx="5" ry="5" style="stroke:#000000;stroke-width:2.5;" width="44" x="280.5" y="250.4375"/><text fill="#000000" font-family="sans-serif" font-size="12" lengthAdjust="spacing" textLength="17" x="294" y="264.8945">DP</text><rect fill="#EEEEEE" height="19.0938" rx="5" ry="5" style="stroke:#000000;stroke-width:2.5;" width="20" x="331.5" y="250.4375"/><text fill="#000000" font-family="sans-serif" font-size="12" font-weight="bold" lengthAdjust="spacing" textLength="11" x="336" y="264.8945">IN</text><rect fill="#EEEEEE" height="19.0938" rx="5" ry="5" style="stroke:#000000;stroke-width:2.5;" width="44" x="358.5" y="250.4375"/><text fill="#000000" font-family="sans-serif" font-size="12" lengthAdjust="spacing" textLength="16" x="372.5" y="264.8945">LD</text><rect fill="#EEEEEE" height="19.0938" rx="5" ry="5" style="stroke:#000000;stroke-width:2.5;" width="44" x="409.5" y="250.4375"/><text fill="#000000" font-family="sans-serif" font-size="12" lengthAdjust="spacing" textLength="16" x="423.5" y="264.8945">DL</text><rect fill="#EEEEEE" height="19.0938" rx="5" ry="5" style="stroke:#000000;stroke-width:2.5;" width="44" x="460.5" y="250.4375"/><text fill="#000000" font-family="sans-serif" font-size="12" lengthAdjust="spacing" textLength="16" x="474.5" y="264.8945">NA</text><rect fill="#EEEEEE" height="19.0938" rx="5" ry="5" style="stroke:#000000;stroke-width:2.5;" width="44" x="511.5" y="250.4375"/><text fill="#000000" font-family="sans-serif" font-size="12" lengthAdjust="spacing" textLength="25" x="521" y="264.8945">OUT</text><rect fill="#EEEEEE" height="19.0938" rx="5" ry="5" style="stroke:#000000;stroke-width:2.5;" width="44" x="562.5" y="250.4375"/><text fill="#000000" font-family="sans-serif" font-size="12" lengthAdjust="spacing" textLength="17" x="576" y="264.8945">BR</text><rect fill="#EEEEEE" height="19.0938" rx="5" ry="5" style="stroke:#000000;stroke-width:2.5;" width="44" x="613.5" y="250.4375"/><text fill="#000000" font-family="sans-serif" font-size="12" lengthAdjust="spacing" textLength="17" x="627" y="264.8945">NS</text><rect fill="#EEEEEE" height="19.0938" rx="5" ry="5" style="stroke:#000000;stroke-width:2.5;" width="44" x="664.5" y="250.4375"/><text fill="#000000" font-family="sans-serif" font-size="12" lengthAdjust="spacing" textLength="15" x="679" y="264.8945">LS</text><rect fill="#EEEEEE" height="19.0938" rx="5" ry="5" style="stroke:#000000;stroke-width:2.5;" width="44" x="715.5" y="250.4375"/><text fill="#000000" font-family="sans-serif" font-size="12" lengthAdjust="spacing" textLength="18" x="728.5" y="264.8945">UR</text><rect fill="#EEEEEE" height="12" rx="5" ry="5" style="stroke:#000000;stroke-width:2.5;" width="20" x="767.5" y="249.4375"/><path d="M776.5,251.4375 L776.5,254.4375 L773.5,254.4375 L773.5,256.4375 L776.5,256.4375 L776.5,259.4375 L778.5,259.4375 L778.5,256.4375 L781.5,256.4375 L781.5,254.4375 L778.5,254.4375 L778.5,251.4375 L776.5,251.4375 " fill="#000000" style="stroke:;stroke-width:0.0;stroke-dasharray:;"/><rect fill="#EEEEEE" height="19.0938" rx="5" ry="5" style="stroke:#000000;stroke-width:2.5;" width="44" x="280.5" y="297.625"/><text fill="#000000" font-family="sans-serif" font-size="12" lengthAdjust="spacing" textLength="17" x="294" y="312.082">DP</text><rect fill="#EEEEEE" height="19.0938" rx="5" ry="5" style="stroke:#000000;stroke-width:2.5;" width="44" x="331.5" y="297.625"/><text fill="#000000" font-family="sans-serif" font-size="12" lengthAdjust="spacing" textLength="12" x="347.5" y="312.082">IN</text><rect fill="#EEEEEE" height="19.0938" rx="5" ry="5" style="stroke:#000000;stroke-width:2.5;" width="44" x="382.5" y="297.625"/><text fill="#000000" font-family="sans-serif" font-size="12" lengthAdjust="spacing" textLength="16" x="396.5" y="312.082">LD</text><rect fill="#EEEEEE" height="19.0938" rx="5" ry="5" style="stroke:#000000;stroke-width:2.5;" width="44" x="433.5" y="297.625"/><text fill="#000000" font-family="sans-serif" font-size="12" lengthAdjust="spacing" textLength="16" x="447.5" y="312.082">DL</text><rect fill="#EEEEEE" height="19.0938" rx="5" ry="5" style="stroke:#000000;stroke-width:2.5;" width="20" x="484.5" y="297.625"/><text fill="#000000" font-family="sans-serif" font-size="12" font-weight="bold" lengthAdjust="spacing" textLength="16" x="486.5" y="312.082">NA</text><rect fill="#EEEEEE" height="19.0938" rx="5" ry="5" style="stroke:#000000;stroke-width:2.5;" width="44" x="511.5" y="297.625"/><text fill="#000000" font-family="sans-serif" font-size="12" lengthAdjust="spacing" textLength="25" x="521" y="312.082">OUT</text><rect fill="#EEEEEE" height="19.0938" rx="5" ry="5" style="stroke:#000000;stroke-width:2.5;" width="44" x="562.5" y="297.625"/><text fill="#000000" font-family="sans-serif" font-size="12" lengthAdjust="spacing" textLength="17" x="576" y="312.082">BR</text><rect fill="#EEEEEE" height="19.0938" rx="5" ry="5" style="stroke:#000000;stroke-width:2.5;" width="44" x="613.5" y="297.625"/><text fill="#000000" font-family="sans-serif" font-size="12" lengthAdjust="spacing" textLength="17" x="627" y="312.082">NS</text><rect fill="#EEEEEE" height="19.0938" rx="5" ry="5" style="stroke:#000000;stroke-width:2.5;" width="44" x="664.5" y="297.625"/><text fill="#000000" font-family="sans-serif" font-size="12" lengthAdjust="spacing" textLength="15" x="679" y="312.082">LS</text><rect fill="#EEEEEE" height="19.0938" rx="5" ry="5" style="stroke:#000000;stroke-width:2.5;" width="44" x="715.5" y="297.625"/><text fill="#000000" font-family="sans-serif" font-size="12" lengthAdjust="spacing" textLength="18" x="728.5" y="312.082">UR</text><rect fill="#EEEEEE" height="12" rx="5" ry="5" style="stroke:#000000;stroke-width:2.5;" width="20" x="767.5" y="296.625"/><path d="M776.5,298.625 L776.5,301.625 L773.5,301.625 L773.5,303.625 L776.5,303.625 L776.5,306.625 L778.5,306.625 L778.5,303.625 L781.5,303.625 L781.5,301.625 L778.5,301.625 L778.5,298.625 L776.5,298.625 " fill="#000000" style="stroke:;stroke-width:0.0;stroke-dasharray:;"/><path d="M827,92.375 L827,100.375 L831,96.375 L827,92.375 " fill="#000000" style="stroke:;stroke-width:0.0;stroke-dasharray:;"/><line style="stroke:#000000;stroke-width:1.0;" x1="6" x2="262" y1="65.2813" y2="65.2813"/><line style="stroke:#000000;stroke-width:1.0;" x1="274" x2="825" y1="332.5" y2="332.5"/><line style="stroke:#000000;stroke-width:1.0;" x1="262" x2="274" y1="65.2813" y2="65.2813"/><line style="stroke:#000000;stroke-width:1.0;" x1="825" x2="884" y1="332.5" y2="332.5"/><line style="stroke:#000000;stroke-width:1.0;" x1="274" x2="825" y1="65.2813" y2="65.2813"/><line style="stroke:#000000;stroke-width:1.0;" x1="825" x2="884" y1="65.2813" y2="65.2813"/><line style="stroke:#000000;stroke-width:1.0;" x1="6" x2="262" y1="332.5" y2="332.5"/><line style="stroke:#000000;stroke-width:1.0;" x1="262" x2="274" y1="332.5" y2="332.5"/><line style="stroke:#000000;stroke-width:1.0;" x1="6" x2="6" y1="65.2813" y2="91.375"/><line style="stroke:#000000;stroke-width:1.0;" x1="884" x2="884" y1="91.375" y2="332.5"/><line style="stroke:#000000;stroke-width:1.0;" x1="884" x2="884" y1="65.2813" y2="91.375"/><line style="stroke:#000000;stroke-width:1.0;" x1="6" x2="6" y1="91.375" y2="332.5"/><rect fill="none" height="267.2188" style="stroke:#000000;stroke-width:1.0;" width="15" x="888" y="65.2813"/><line style="stroke:#000000;stroke-width:1.0;" x1="888" x2="903" y1="77.2813" y2="77.2813"/><line style="stroke:#000000;stroke-width:1.0;" x1="888" x2="903" y1="320.5" y2="320.5"/><path d="M895,69.2813 L898,74.2813 L892,74.2813 L895,69.2813 " fill="#000000" style="stroke:#000000;stroke-width:1.0;"/><path d="M895,329.5 L898,324.5 L892,324.5 L895,329.5 " fill="#000000" style="stroke:#000000;stroke-width:1.0;"/><line style="stroke:#AAAAAA;stroke-width:1.0;stroke-dasharray:1.0,2.0;" x1="6" x2="915" y1="338" y2="338"/><rect fill="#EEEEEE" height="19.0938" rx="5" ry="5" style="stroke:#000000;stroke-width:2.5;" width="92" x="10.5" y="347"/><text fill="#000000" font-family="sans-serif" font-size="12" lengthAdjust="spacing" textLength="70" x="21.5" y="361.457">Sauvegarder</text><rect fill="#EEEEEE" height="19.0938" rx="5" ry="5" style="stroke:#000000;stroke-width:2.5;" width="156" x="109.5" y="347"/><text fill="#000000" font-family="sans-serif" font-size="12" lengthAdjust="spacing" textLength="96" x="139.5" y="361.457">Saisir une activit&#233;</text><rect fill="none" height="267.2188" style="stroke:#000000;stroke-width:1.0;" width="15" x="888" y="65.2813"/><line style="stroke:#000000;stroke-width:1.0;" x1="888" x2="903" y1="77.2813" y2="77.2813"/><line style="stroke:#000000;stroke-width:1.0;" x1="888" x2="903" y1="320.5" y2="320.5"/><path d="M895,69.2813 L898,74.2813 L892,74.2813 L895,69.2813 " fill="#000000" style="stroke:#000000;stroke-width:1.0;"/><path d="M895,329.5 L898,324.5 L892,324.5 L895,329.5 " fill="#000000" style="stroke:#000000;stroke-width:1.0;"/></g></svg>