<?xml version="1.0" encoding="UTF-8" standalone="no"?><svg xmlns="http://www.w3.org/2000/svg" xmlns:xlink="http://www.w3.org/1999/xlink" contentScriptType="application/ecmascript" contentStyleType="text/css" height="352px" preserveAspectRatio="none" style="width:946px;height:352px;" version="1.1" viewBox="0 0 946 352" width="946px" zoomAndPan="magnify"><defs/><g><text fill="#000000" font-family="sans-serif" font-size="12" font-weight="bold" lengthAdjust="spacingAndGlyphs" textLength="445" x="6" y="17.1387">Weekly report of activity 02/02/2019 00:00 - LS-AF - Anse Forban</text><line style="stroke: #AAAAAA; stroke-width: 1.0; stroke-dasharray: 1.0,2.0;" x1="6" x2="939" y1="25.4688" y2="25.4688"/><text fill="#000000" font-family="sans-serif" font-size="12" lengthAdjust="spacingAndGlyphs" textLength="131" x="8" y="41.1074">Information générale</text><line style="stroke: #000000; stroke-width: 1.0;" x1="6" x2="6" y1="29.9688" y2="43.9375"/><line style="stroke: #000000; stroke-width: 1.0;" x1="6" x2="142" y1="29.9688" y2="29.9688"/><line style="stroke: #000000; stroke-width: 1.0;" x1="142" x2="142" y1="29.9688" y2="43.9375"/><line style="stroke: #000000; stroke-width: 1.0;" x1="142" x2="152" y1="43.9375" y2="43.9375"/><text fill="#000000" font-family="sans-serif" font-size="12" font-weight="bold" lengthAdjust="spacingAndGlyphs" textLength="151" x="154" y="41.1074">Situation des navires</text><line style="stroke: #000000; stroke-width: 1.0;" x1="152" x2="152" y1="29.9688" y2="43.9375"/><line style="stroke: #000000; stroke-width: 1.0;" x1="152" x2="308" y1="29.9688" y2="29.9688"/><line style="stroke: #000000; stroke-width: 1.0;" x1="308" x2="308" y1="29.9688" y2="43.9375"/><line style="stroke: #000000; stroke-width: 1.0;" x1="308" x2="318" y1="43.9375" y2="43.9375"/><text fill="#000000" font-family="sans-serif" font-size="12" lengthAdjust="spacingAndGlyphs" textLength="128" x="320" y="41.1074">Activités des navires</text><line style="stroke: #000000; stroke-width: 1.0;" x1="318" x2="318" y1="29.9688" y2="43.9375"/><line style="stroke: #000000; stroke-width: 1.0;" x1="318" x2="451" y1="29.9688" y2="29.9688"/><line style="stroke: #000000; stroke-width: 1.0;" x1="451" x2="451" y1="29.9688" y2="43.9375"/><line style="stroke: #000000; stroke-width: 1.0;" x1="451" x2="461" y1="43.9375" y2="43.9375"/><rect fill="#EEEEEE" height="17.9688" rx="5" ry="5" style="stroke: #000000; stroke-width: 2.5;" width="52" x="852.5" y="65.4063"/><text fill="#000000" font-family="sans-serif" font-size="12" lengthAdjust="spacingAndGlyphs" textLength="44" x="856.5" y="78.5449">Fermer</text><text fill="#000000" font-family="sans-serif" font-size="12" font-weight="bold" lengthAdjust="spacingAndGlyphs" textLength="96" x="9" y="101.0137">Liste navires:</text><rect fill="#EEEEEE" height="16.9688" style="stroke: #000000; stroke-width: 1.0;" width="191" x="11" y="123.8125"/><text fill="#000000" font-family="sans-serif" font-size="12" lengthAdjust="spacingAndGlyphs" textLength="84" x="13" y="136.9512">SZ190 - Ziblo</text><line style="stroke: #000000; stroke-width: 1.0;" x1="191" x2="191" y1="123.8125" y2="140.7813"/><polygon fill="#000000" points="194,129.8125,200,129.8125,197,135.7813" style="stroke: #000000; stroke-width: 1.0;"/><rect fill="#EEEEEE" height="12" rx="5" ry="5" style="stroke: #000000; stroke-width: 2.5;" width="20" x="207.5" y="126.3125"/><path d="M214.906,128.3125 L213.5,129.7185 L214.188,130.4375 L215.969,132.2185 L214.188,133.9995 L213.5,134.7185 L214.906,136.1245 L215.625,135.4365 L217.406,133.6555 L219.187,135.4365 L219.906,136.1245 L221.312,134.7185 L220.624,133.9995 L218.843,132.2185 L220.624,130.4375 L221.312,129.7185 L219.906,128.3125 L219.187,129.0005 L217.406,130.7815 L215.625,129.0005 L214.906,128.3125 " fill="#000000" style="stroke: ; stroke-width: 0.0; stroke-dasharray: ;"/><rect fill="#EEEEEE" height="16.9688" style="stroke: #000000; stroke-width: 1.0;" width="191" x="11" y="195.6875"/><text fill="#000000" font-family="sans-serif" font-size="12" lengthAdjust="spacingAndGlyphs" textLength="53" x="13" y="208.8262">Vessel 2</text><line style="stroke: #000000; stroke-width: 1.0;" x1="191" x2="191" y1="195.6875" y2="212.6563"/><polygon fill="#000000" points="194,201.6875,200,201.6875,197,207.6563" style="stroke: #000000; stroke-width: 1.0;"/><rect fill="#EEEEEE" height="12" rx="5" ry="5" style="stroke: #000000; stroke-width: 2.5;" width="20" x="207.5" y="198.1875"/><path d="M214.906,200.1875 L213.5,201.5935 L214.188,202.3125 L215.969,204.0935 L214.188,205.8745 L213.5,206.5935 L214.906,207.9995 L215.625,207.3115 L217.406,205.5305 L219.187,207.3115 L219.906,207.9995 L221.312,206.5935 L220.624,205.8745 L218.843,204.0935 L220.624,202.3125 L221.312,201.5935 L219.906,200.1875 L219.187,200.8755 L217.406,202.6565 L215.625,200.8755 L214.906,200.1875 " fill="#000000" style="stroke: ; stroke-width: 0.0; stroke-dasharray: ;"/><rect fill="#EEEEEE" height="16.9688" style="stroke: #000000; stroke-width: 1.0;" width="191" x="11" y="235.625"/><text fill="#000000" font-family="sans-serif" font-size="12" lengthAdjust="spacingAndGlyphs" textLength="53" x="13" y="248.7637">Vessel 3</text><line style="stroke: #000000; stroke-width: 1.0;" x1="191" x2="191" y1="235.625" y2="252.5938"/><polygon fill="#000000" points="194,241.625,200,241.625,197,247.5938" style="stroke: #000000; stroke-width: 1.0;"/><rect fill="#EEEEEE" height="12" rx="5" ry="5" style="stroke: #000000; stroke-width: 2.5;" width="20" x="207.5" y="238.125"/><path d="M214.906,240.125 L213.5,241.531 L214.188,242.25 L215.969,244.031 L214.188,245.812 L213.5,246.531 L214.906,247.937 L215.625,247.249 L217.406,245.468 L219.187,247.249 L219.906,247.937 L221.312,246.531 L220.624,245.812 L218.843,244.031 L220.624,242.25 L221.312,241.531 L219.906,240.125 L219.187,240.813 L217.406,242.594 L215.625,240.813 L214.906,240.125 " fill="#000000" style="stroke: ; stroke-width: 0.0; stroke-dasharray: ;"/><rect fill="#EEEEEE" height="16.9688" style="stroke: #000000; stroke-width: 1.0;" width="191" x="11" y="275.5625"/><text fill="#000000" font-family="sans-serif" font-size="12" lengthAdjust="spacingAndGlyphs" textLength="53" x="13" y="288.7012">Vessel 4</text><line style="stroke: #000000; stroke-width: 1.0;" x1="191" x2="191" y1="275.5625" y2="292.5313"/><polygon fill="#000000" points="194,281.5625,200,281.5625,197,287.5313" style="stroke: #000000; stroke-width: 1.0;"/><rect fill="#EEEEEE" height="12" rx="5" ry="5" style="stroke: #000000; stroke-width: 2.5;" width="20" x="207.5" y="278.0625"/><path d="M216.5,280.0625 L216.5,283.0625 L213.5,283.0625 L213.5,285.0625 L216.5,285.0625 L216.5,288.0625 L218.5,288.0625 L218.5,285.0625 L221.5,285.0625 L221.5,283.0625 L218.5,283.0625 L218.5,280.0625 L216.5,280.0625 " fill="#000000" style="stroke: ; stroke-width: 0.0; stroke-dasharray: ;"/><rect fill="#EEEEEE" height="12" rx="5" ry="5" style="stroke: #000000; stroke-width: 2.5;" width="20" x="234.5" y="278.0625"/><path d="M241.906,280.0625 L240.5,281.4685 L241.188,282.1875 L242.969,283.9685 L241.188,285.7495 L240.5,286.4685 L241.906,287.8745 L242.625,287.1865 L244.406,285.4055 L246.187,287.1865 L246.906,287.8745 L248.312,286.4685 L247.624,285.7495 L245.843,283.9685 L247.624,282.1875 L248.312,281.4685 L246.906,280.0625 L246.187,280.7505 L244.406,282.5315 L242.625,280.7505 L241.906,280.0625 " fill="#000000" style="stroke: ; stroke-width: 0.0; stroke-dasharray: ;"/><line style="stroke: #000000; stroke-width: 1.0;" x1="8" x2="260" y1="88.875" y2="88.875"/><line style="stroke: #000000; stroke-width: 1.0;" x1="8" x2="260" y1="312.5" y2="312.5"/><line style="stroke: #000000; stroke-width: 1.0;" x1="8" x2="8" y1="88.875" y2="104.8438"/><line style="stroke: #000000; stroke-width: 1.0;" x1="260" x2="260" y1="88.875" y2="104.8438"/><line style="stroke: #000000; stroke-width: 1.0;" x1="8" x2="8" y1="296.5313" y2="312.5"/><line style="stroke: #000000; stroke-width: 1.0;" x1="260" x2="260" y1="296.5313" y2="312.5"/><line style="stroke: #000000; stroke-width: 1.0;" x1="8" x2="8" y1="256.5938" y2="272.5625"/><line style="stroke: #000000; stroke-width: 1.0;" x1="260" x2="260" y1="256.5938" y2="272.5625"/><line style="stroke: #000000; stroke-width: 1.0;" x1="8" x2="8" y1="216.6563" y2="232.625"/><line style="stroke: #000000; stroke-width: 1.0;" x1="260" x2="260" y1="216.6563" y2="232.625"/><line style="stroke: #000000; stroke-width: 1.0;" x1="8" x2="8" y1="176.7188" y2="192.6875"/><line style="stroke: #000000; stroke-width: 1.0;" x1="260" x2="260" y1="176.7188" y2="192.6875"/><line style="stroke: #000000; stroke-width: 1.0;" x1="8" x2="8" y1="144.7813" y2="160.75"/><line style="stroke: #000000; stroke-width: 1.0;" x1="260" x2="260" y1="144.7813" y2="160.75"/><line style="stroke: #000000; stroke-width: 1.0;" x1="8" x2="8" y1="104.8438" y2="120.8125"/><line style="stroke: #000000; stroke-width: 1.0;" x1="260" x2="260" y1="104.8438" y2="120.8125"/><line style="stroke: #000000; stroke-width: 1.0;" x1="8" x2="8" y1="272.5625" y2="296.5313"/><line style="stroke: #000000; stroke-width: 1.0;" x1="260" x2="260" y1="272.5625" y2="296.5313"/><line style="stroke: #000000; stroke-width: 1.0;" x1="8" x2="8" y1="232.625" y2="256.5938"/><line style="stroke: #000000; stroke-width: 1.0;" x1="260" x2="260" y1="232.625" y2="256.5938"/><line style="stroke: #000000; stroke-width: 1.0;" x1="8" x2="8" y1="192.6875" y2="216.6563"/><line style="stroke: #000000; stroke-width: 1.0;" x1="260" x2="260" y1="192.6875" y2="216.6563"/><line style="stroke: #000000; stroke-width: 1.0;" x1="8" x2="8" y1="160.75" y2="176.7188"/><line style="stroke: #000000; stroke-width: 1.0;" x1="260" x2="260" y1="160.75" y2="176.7188"/><line style="stroke: #000000; stroke-width: 1.0;" x1="8" x2="8" y1="120.8125" y2="144.7813"/><line style="stroke: #000000; stroke-width: 1.0;" x1="260" x2="260" y1="120.8125" y2="144.7813"/><path d="M270,87.875 L266,91.875 L270,95.875 L270,87.875 " fill="#000000" style="stroke: ; stroke-width: 0.0; stroke-dasharray: ;"/><rect fill="#EEEEEE" height="17.9688" rx="5" ry="5" style="stroke: #000000; stroke-width: 2.5;" width="564" x="279.5" y="92.375"/><text fill="#000000" font-family="sans-serif" font-size="12" font-weight="bold" lengthAdjust="spacingAndGlyphs" textLength="143" x="490" y="105.5137">JEUDI - 2 février 2019</text><rect fill="#EEEEEE" height="17.9688" rx="5" ry="5" style="stroke: #000000; stroke-width: 2.5;" width="44" x="280.5" y="120.3438"/><text fill="#000000" font-family="sans-serif" font-size="12" lengthAdjust="spacingAndGlyphs" textLength="17" x="294" y="133.4824">DP</text><rect fill="#EEEEEE" height="17.9688" rx="5" ry="5" style="stroke: #000000; stroke-width: 2.5;" width="44" x="331.5" y="120.3438"/><text fill="#000000" font-family="sans-serif" font-size="12" lengthAdjust="spacingAndGlyphs" textLength="12" x="347.5" y="133.4824">IN</text><rect fill="#EEEEEE" height="17.9688" rx="5" ry="5" style="stroke: #000000; stroke-width: 2.5;" width="44" x="382.5" y="120.3438"/><text fill="#000000" font-family="sans-serif" font-size="12" lengthAdjust="spacingAndGlyphs" textLength="15" x="397" y="133.4824">LD</text><rect fill="#EEEEEE" height="17.9688" rx="5" ry="5" style="stroke: #000000; stroke-width: 2.5;" width="44" x="433.5" y="120.3438"/><text fill="#000000" font-family="sans-serif" font-size="12" lengthAdjust="spacingAndGlyphs" textLength="15" x="448" y="133.4824">DL</text><rect fill="#EEEEEE" height="17.9688" rx="5" ry="5" style="stroke: #000000; stroke-width: 2.5;" width="44" x="484.5" y="120.3438"/><text fill="#000000" font-family="sans-serif" font-size="12" font-weight="bold" lengthAdjust="spacingAndGlyphs" textLength="19" x="497" y="133.4824">NA</text><rect fill="#EEEEEE" height="17.9688" rx="5" ry="5" style="stroke: #000000; stroke-width: 2.5;" width="44" x="535.5" y="120.3438"/><text fill="#000000" font-family="sans-serif" font-size="12" lengthAdjust="spacingAndGlyphs" textLength="25" x="545" y="133.4824">OUT</text><rect fill="#EEEEEE" height="17.9688" rx="5" ry="5" style="stroke: #000000; stroke-width: 2.5;" width="44" x="586.5" y="120.3438"/><text fill="#000000" font-family="sans-serif" font-size="12" lengthAdjust="spacingAndGlyphs" textLength="16" x="600.5" y="133.4824">BR</text><rect fill="#EEEEEE" height="17.9688" rx="5" ry="5" style="stroke: #000000; stroke-width: 2.5;" width="44" x="637.5" y="120.3438"/><text fill="#000000" font-family="sans-serif" font-size="12" lengthAdjust="spacingAndGlyphs" textLength="17" x="651" y="133.4824">NS</text><rect fill="#EEEEEE" height="17.9688" rx="5" ry="5" style="stroke: #000000; stroke-width: 2.5;" width="44" x="688.5" y="120.3438"/><text fill="#000000" font-family="sans-serif" font-size="12" lengthAdjust="spacingAndGlyphs" textLength="14" x="703.5" y="133.4824">LS</text><rect fill="#EEEEEE" height="17.9688" rx="5" ry="5" style="stroke: #000000; stroke-width: 2.5;" width="44" x="739.5" y="120.3438"/><text fill="#000000" font-family="sans-serif" font-size="12" lengthAdjust="spacingAndGlyphs" textLength="17" x="753" y="133.4824">UR</text><rect fill="#EEEEEE" height="12" rx="5" ry="5" style="stroke: #000000; stroke-width: 2.5;" width="20" x="791.5" y="119.3438"/><path d="M798.906,121.3438 L797.5,122.7498 L798.188,123.4688 L799.969,125.2498 L798.188,127.0308 L797.5,127.7498 L798.906,129.1558 L799.625,128.4678 L801.406,126.6868 L803.187,128.4678 L803.906,129.1558 L805.312,127.7498 L804.624,127.0308 L802.843,125.2498 L804.624,123.4688 L805.312,122.7498 L803.906,121.3438 L803.187,122.0318 L801.406,123.8128 L799.625,122.0318 L798.906,121.3438 " fill="#000000" style="stroke: ; stroke-width: 0.0; stroke-dasharray: ;"/><rect fill="#EEEEEE" height="17.9688" rx="5" ry="5" style="stroke: #000000; stroke-width: 2.5;" width="44" x="280.5" y="149.3125"/><text fill="#000000" font-family="sans-serif" font-size="12" lengthAdjust="spacingAndGlyphs" textLength="17" x="294" y="162.4512">DP</text><rect fill="#EEEEEE" height="17.9688" rx="5" ry="5" style="stroke: #000000; stroke-width: 2.5;" width="44" x="331.5" y="149.3125"/><text fill="#000000" font-family="sans-serif" font-size="12" font-weight="bold" lengthAdjust="spacingAndGlyphs" textLength="14" x="346.5" y="162.4512">IN</text><rect fill="#EEEEEE" height="17.9688" rx="5" ry="5" style="stroke: #000000; stroke-width: 2.5;" width="44" x="382.5" y="149.3125"/><text fill="#000000" font-family="sans-serif" font-size="12" lengthAdjust="spacingAndGlyphs" textLength="15" x="397" y="162.4512">LD</text><rect fill="#EEEEEE" height="17.9688" rx="5" ry="5" style="stroke: #000000; stroke-width: 2.5;" width="44" x="433.5" y="149.3125"/><text fill="#000000" font-family="sans-serif" font-size="12" lengthAdjust="spacingAndGlyphs" textLength="15" x="448" y="162.4512">DL</text><rect fill="#EEEEEE" height="17.9688" rx="5" ry="5" style="stroke: #000000; stroke-width: 2.5;" width="44" x="484.5" y="149.3125"/><text fill="#000000" font-family="sans-serif" font-size="12" lengthAdjust="spacingAndGlyphs" textLength="17" x="498" y="162.4512">NA</text><rect fill="#EEEEEE" height="17.9688" rx="5" ry="5" style="stroke: #000000; stroke-width: 2.5;" width="44" x="535.5" y="149.3125"/><text fill="#000000" font-family="sans-serif" font-size="12" lengthAdjust="spacingAndGlyphs" textLength="25" x="545" y="162.4512">OUT</text><rect fill="#EEEEEE" height="17.9688" rx="5" ry="5" style="stroke: #000000; stroke-width: 2.5;" width="44" x="586.5" y="149.3125"/><text fill="#000000" font-family="sans-serif" font-size="12" lengthAdjust="spacingAndGlyphs" textLength="16" x="600.5" y="162.4512">BR</text><rect fill="#EEEEEE" height="17.9688" rx="5" ry="5" style="stroke: #000000; stroke-width: 2.5;" width="44" x="637.5" y="149.3125"/><text fill="#000000" font-family="sans-serif" font-size="12" lengthAdjust="spacingAndGlyphs" textLength="17" x="651" y="162.4512">NS</text><rect fill="#EEEEEE" height="17.9688" rx="5" ry="5" style="stroke: #000000; stroke-width: 2.5;" width="44" x="688.5" y="149.3125"/><text fill="#000000" font-family="sans-serif" font-size="12" lengthAdjust="spacingAndGlyphs" textLength="14" x="703.5" y="162.4512">LS</text><rect fill="#EEEEEE" height="17.9688" rx="5" ry="5" style="stroke: #000000; stroke-width: 2.5;" width="44" x="739.5" y="149.3125"/><text fill="#000000" font-family="sans-serif" font-size="12" lengthAdjust="spacingAndGlyphs" textLength="17" x="753" y="162.4512">UR</text><rect fill="#EEEEEE" height="12" rx="5" ry="5" style="stroke: #000000; stroke-width: 2.5;" width="20" x="791.5" y="148.3125"/><path d="M800.5,150.3125 L800.5,153.3125 L797.5,153.3125 L797.5,155.3125 L800.5,155.3125 L800.5,158.3125 L802.5,158.3125 L802.5,155.3125 L805.5,155.3125 L805.5,153.3125 L802.5,153.3125 L802.5,150.3125 L800.5,150.3125 " fill="#000000" style="stroke: ; stroke-width: 0.0; stroke-dasharray: ;"/><rect fill="#EEEEEE" height="12" rx="5" ry="5" style="stroke: #000000; stroke-width: 2.5;" width="20" x="818.5" y="148.3125"/><path d="M825.906,150.3125 L824.5,151.7185 L825.188,152.4375 L826.969,154.2185 L825.188,155.9995 L824.5,156.7185 L825.906,158.1245 L826.625,157.4365 L828.406,155.6555 L830.187,157.4365 L830.906,158.1245 L832.312,156.7185 L831.624,155.9995 L829.843,154.2185 L831.624,152.4375 L832.312,151.7185 L830.906,150.3125 L830.187,151.0005 L828.406,152.7815 L826.625,151.0005 L825.906,150.3125 " fill="#000000" style="stroke: ; stroke-width: 0.0; stroke-dasharray: ;"/><rect fill="#EEEEEE" height="17.9688" rx="5" ry="5" style="stroke: #000000; stroke-width: 2.5;" width="44" x="280.5" y="194.25"/><text fill="#000000" font-family="sans-serif" font-size="12" font-weight="bold" lengthAdjust="spacingAndGlyphs" textLength="19" x="293" y="207.3887">DP</text><rect fill="#EEEEEE" height="17.9688" rx="5" ry="5" style="stroke: #000000; stroke-width: 2.5;" width="44" x="331.5" y="194.25"/><text fill="#000000" font-family="sans-serif" font-size="12" lengthAdjust="spacingAndGlyphs" textLength="12" x="347.5" y="207.3887">IN</text><rect fill="#EEEEEE" height="17.9688" rx="5" ry="5" style="stroke: #000000; stroke-width: 2.5;" width="44" x="382.5" y="194.25"/><text fill="#000000" font-family="sans-serif" font-size="12" lengthAdjust="spacingAndGlyphs" textLength="15" x="397" y="207.3887">LD</text><rect fill="#EEEEEE" height="17.9688" rx="5" ry="5" style="stroke: #000000; stroke-width: 2.5;" width="44" x="433.5" y="194.25"/><text fill="#000000" font-family="sans-serif" font-size="12" lengthAdjust="spacingAndGlyphs" textLength="15" x="448" y="207.3887">DL</text><rect fill="#EEEEEE" height="17.9688" rx="5" ry="5" style="stroke: #000000; stroke-width: 2.5;" width="44" x="484.5" y="194.25"/><text fill="#000000" font-family="sans-serif" font-size="12" lengthAdjust="spacingAndGlyphs" textLength="17" x="498" y="207.3887">NA</text><rect fill="#EEEEEE" height="17.9688" rx="5" ry="5" style="stroke: #000000; stroke-width: 2.5;" width="44" x="535.5" y="194.25"/><text fill="#000000" font-family="sans-serif" font-size="12" lengthAdjust="spacingAndGlyphs" textLength="25" x="545" y="207.3887">OUT</text><rect fill="#EEEEEE" height="17.9688" rx="5" ry="5" style="stroke: #000000; stroke-width: 2.5;" width="44" x="586.5" y="194.25"/><text fill="#000000" font-family="sans-serif" font-size="12" lengthAdjust="spacingAndGlyphs" textLength="16" x="600.5" y="207.3887">BR</text><rect fill="#EEEEEE" height="17.9688" rx="5" ry="5" style="stroke: #000000; stroke-width: 2.5;" width="44" x="637.5" y="194.25"/><text fill="#000000" font-family="sans-serif" font-size="12" lengthAdjust="spacingAndGlyphs" textLength="17" x="651" y="207.3887">NS</text><rect fill="#EEEEEE" height="17.9688" rx="5" ry="5" style="stroke: #000000; stroke-width: 2.5;" width="44" x="688.5" y="194.25"/><text fill="#000000" font-family="sans-serif" font-size="12" lengthAdjust="spacingAndGlyphs" textLength="14" x="703.5" y="207.3887">LS</text><rect fill="#EEEEEE" height="17.9688" rx="5" ry="5" style="stroke: #000000; stroke-width: 2.5;" width="44" x="739.5" y="194.25"/><text fill="#000000" font-family="sans-serif" font-size="12" lengthAdjust="spacingAndGlyphs" textLength="17" x="753" y="207.3887">UR</text><rect fill="#EEEEEE" height="12" rx="5" ry="5" style="stroke: #000000; stroke-width: 2.5;" width="20" x="791.5" y="193.25"/><path d="M800.5,195.25 L800.5,198.25 L797.5,198.25 L797.5,200.25 L800.5,200.25 L800.5,203.25 L802.5,203.25 L802.5,200.25 L805.5,200.25 L805.5,198.25 L802.5,198.25 L802.5,195.25 L800.5,195.25 " fill="#000000" style="stroke: ; stroke-width: 0.0; stroke-dasharray: ;"/><rect fill="#EEEEEE" height="17.9688" rx="5" ry="5" style="stroke: #000000; stroke-width: 2.5;" width="44" x="280.5" y="239.1875"/><text fill="#000000" font-family="sans-serif" font-size="12" lengthAdjust="spacingAndGlyphs" textLength="17" x="294" y="252.3262">DP</text><rect fill="#EEEEEE" height="17.9688" rx="5" ry="5" style="stroke: #000000; stroke-width: 2.5;" width="44" x="331.5" y="239.1875"/><text fill="#000000" font-family="sans-serif" font-size="12" font-weight="bold" lengthAdjust="spacingAndGlyphs" textLength="14" x="346.5" y="252.3262">IN</text><rect fill="#EEEEEE" height="17.9688" rx="5" ry="5" style="stroke: #000000; stroke-width: 2.5;" width="44" x="382.5" y="239.1875"/><text fill="#000000" font-family="sans-serif" font-size="12" lengthAdjust="spacingAndGlyphs" textLength="15" x="397" y="252.3262">LD</text><rect fill="#EEEEEE" height="17.9688" rx="5" ry="5" style="stroke: #000000; stroke-width: 2.5;" width="44" x="433.5" y="239.1875"/><text fill="#000000" font-family="sans-serif" font-size="12" lengthAdjust="spacingAndGlyphs" textLength="15" x="448" y="252.3262">DL</text><rect fill="#EEEEEE" height="17.9688" rx="5" ry="5" style="stroke: #000000; stroke-width: 2.5;" width="44" x="484.5" y="239.1875"/><text fill="#000000" font-family="sans-serif" font-size="12" lengthAdjust="spacingAndGlyphs" textLength="17" x="498" y="252.3262">NA</text><rect fill="#EEEEEE" height="17.9688" rx="5" ry="5" style="stroke: #000000; stroke-width: 2.5;" width="44" x="535.5" y="239.1875"/><text fill="#000000" font-family="sans-serif" font-size="12" lengthAdjust="spacingAndGlyphs" textLength="25" x="545" y="252.3262">OUT</text><rect fill="#EEEEEE" height="17.9688" rx="5" ry="5" style="stroke: #000000; stroke-width: 2.5;" width="44" x="586.5" y="239.1875"/><text fill="#000000" font-family="sans-serif" font-size="12" lengthAdjust="spacingAndGlyphs" textLength="16" x="600.5" y="252.3262">BR</text><rect fill="#EEEEEE" height="17.9688" rx="5" ry="5" style="stroke: #000000; stroke-width: 2.5;" width="44" x="637.5" y="239.1875"/><text fill="#000000" font-family="sans-serif" font-size="12" lengthAdjust="spacingAndGlyphs" textLength="17" x="651" y="252.3262">NS</text><rect fill="#EEEEEE" height="17.9688" rx="5" ry="5" style="stroke: #000000; stroke-width: 2.5;" width="44" x="688.5" y="239.1875"/><text fill="#000000" font-family="sans-serif" font-size="12" lengthAdjust="spacingAndGlyphs" textLength="14" x="703.5" y="252.3262">LS</text><rect fill="#EEEEEE" height="17.9688" rx="5" ry="5" style="stroke: #000000; stroke-width: 2.5;" width="44" x="739.5" y="239.1875"/><text fill="#000000" font-family="sans-serif" font-size="12" lengthAdjust="spacingAndGlyphs" textLength="17" x="753" y="252.3262">UR</text><rect fill="#EEEEEE" height="12" rx="5" ry="5" style="stroke: #000000; stroke-width: 2.5;" width="20" x="791.5" y="238.1875"/><path d="M800.5,240.1875 L800.5,243.1875 L797.5,243.1875 L797.5,245.1875 L800.5,245.1875 L800.5,248.1875 L802.5,248.1875 L802.5,245.1875 L805.5,245.1875 L805.5,243.1875 L802.5,243.1875 L802.5,240.1875 L800.5,240.1875 " fill="#000000" style="stroke: ; stroke-width: 0.0; stroke-dasharray: ;"/><rect fill="#EEEEEE" height="17.9688" rx="5" ry="5" style="stroke: #000000; stroke-width: 2.5;" width="44" x="280.5" y="284.125"/><text fill="#000000" font-family="sans-serif" font-size="12" lengthAdjust="spacingAndGlyphs" textLength="17" x="294" y="297.2637">DP</text><rect fill="#EEEEEE" height="17.9688" rx="5" ry="5" style="stroke: #000000; stroke-width: 2.5;" width="44" x="331.5" y="284.125"/><text fill="#000000" font-family="sans-serif" font-size="12" lengthAdjust="spacingAndGlyphs" textLength="12" x="347.5" y="297.2637">IN</text><rect fill="#EEEEEE" height="17.9688" rx="5" ry="5" style="stroke: #000000; stroke-width: 2.5;" width="44" x="382.5" y="284.125"/><text fill="#000000" font-family="sans-serif" font-size="12" lengthAdjust="spacingAndGlyphs" textLength="15" x="397" y="297.2637">LD</text><rect fill="#EEEEEE" height="17.9688" rx="5" ry="5" style="stroke: #000000; stroke-width: 2.5;" width="44" x="433.5" y="284.125"/><text fill="#000000" font-family="sans-serif" font-size="12" lengthAdjust="spacingAndGlyphs" textLength="15" x="448" y="297.2637">DL</text><rect fill="#EEEEEE" height="17.9688" rx="5" ry="5" style="stroke: #000000; stroke-width: 2.5;" width="44" x="484.5" y="284.125"/><text fill="#000000" font-family="sans-serif" font-size="12" font-weight="bold" lengthAdjust="spacingAndGlyphs" textLength="19" x="497" y="297.2637">NA</text><rect fill="#EEEEEE" height="17.9688" rx="5" ry="5" style="stroke: #000000; stroke-width: 2.5;" width="44" x="535.5" y="284.125"/><text fill="#000000" font-family="sans-serif" font-size="12" lengthAdjust="spacingAndGlyphs" textLength="25" x="545" y="297.2637">OUT</text><rect fill="#EEEEEE" height="17.9688" rx="5" ry="5" style="stroke: #000000; stroke-width: 2.5;" width="44" x="586.5" y="284.125"/><text fill="#000000" font-family="sans-serif" font-size="12" lengthAdjust="spacingAndGlyphs" textLength="16" x="600.5" y="297.2637">BR</text><rect fill="#EEEEEE" height="17.9688" rx="5" ry="5" style="stroke: #000000; stroke-width: 2.5;" width="44" x="637.5" y="284.125"/><text fill="#000000" font-family="sans-serif" font-size="12" lengthAdjust="spacingAndGlyphs" textLength="17" x="651" y="297.2637">NS</text><rect fill="#EEEEEE" height="17.9688" rx="5" ry="5" style="stroke: #000000; stroke-width: 2.5;" width="44" x="688.5" y="284.125"/><text fill="#000000" font-family="sans-serif" font-size="12" lengthAdjust="spacingAndGlyphs" textLength="14" x="703.5" y="297.2637">LS</text><rect fill="#EEEEEE" height="17.9688" rx="5" ry="5" style="stroke: #000000; stroke-width: 2.5;" width="44" x="739.5" y="284.125"/><text fill="#000000" font-family="sans-serif" font-size="12" lengthAdjust="spacingAndGlyphs" textLength="17" x="753" y="297.2637">UR</text><rect fill="#EEEEEE" height="12" rx="5" ry="5" style="stroke: #000000; stroke-width: 2.5;" width="20" x="791.5" y="283.125"/><path d="M800.5,285.125 L800.5,288.125 L797.5,288.125 L797.5,290.125 L800.5,290.125 L800.5,293.125 L802.5,293.125 L802.5,290.125 L805.5,290.125 L805.5,288.125 L802.5,288.125 L802.5,285.125 L800.5,285.125 " fill="#000000" style="stroke: ; stroke-width: 0.0; stroke-dasharray: ;"/><path d="M853,87.875 L853,95.875 L857,91.875 L853,87.875 " fill="#000000" style="stroke: ; stroke-width: 0.0; stroke-dasharray: ;"/><line style="stroke: #000000; stroke-width: 1.0;" x1="6" x2="262" y1="61.9063" y2="61.9063"/><line style="stroke: #000000; stroke-width: 1.0;" x1="274" x2="849" y1="314.5" y2="314.5"/><line style="stroke: #000000; stroke-width: 1.0;" x1="262" x2="274" y1="61.9063" y2="61.9063"/><line style="stroke: #000000; stroke-width: 1.0;" x1="849" x2="908" y1="314.5" y2="314.5"/><line style="stroke: #000000; stroke-width: 1.0;" x1="274" x2="849" y1="61.9063" y2="61.9063"/><line style="stroke: #000000; stroke-width: 1.0;" x1="849" x2="908" y1="61.9063" y2="61.9063"/><line style="stroke: #000000; stroke-width: 1.0;" x1="6" x2="262" y1="314.5" y2="314.5"/><line style="stroke: #000000; stroke-width: 1.0;" x1="262" x2="274" y1="314.5" y2="314.5"/><line style="stroke: #000000; stroke-width: 1.0;" x1="6" x2="6" y1="61.9063" y2="86.875"/><line style="stroke: #000000; stroke-width: 1.0;" x1="908" x2="908" y1="86.875" y2="314.5"/><line style="stroke: #000000; stroke-width: 1.0;" x1="908" x2="908" y1="61.9063" y2="86.875"/><line style="stroke: #000000; stroke-width: 1.0;" x1="6" x2="6" y1="86.875" y2="314.5"/><rect fill="none" height="252.5938" style="stroke: #000000; stroke-width: 1.0;" width="15" x="912" y="61.9063"/><line style="stroke: #000000; stroke-width: 1.0;" x1="912" x2="927" y1="73.9063" y2="73.9063"/><line style="stroke: #000000; stroke-width: 1.0;" x1="912" x2="927" y1="302.5" y2="302.5"/><path d="M919,65.9063 L922,70.9063 L916,70.9063 L919,65.9063 " fill="#000000" style="stroke: #000000; stroke-width: 1.0;"/><path d="M919,311.5 L922,306.5 L916,306.5 L919,311.5 " fill="#000000" style="stroke: #000000; stroke-width: 1.0;"/><line style="stroke: #AAAAAA; stroke-width: 1.0; stroke-dasharray: 1.0,2.0;" x1="6" x2="939" y1="320" y2="320"/><rect fill="#EEEEEE" height="17.9688" rx="5" ry="5" style="stroke: #000000; stroke-width: 2.5;" width="92" x="10.5" y="329"/><text fill="#000000" font-family="sans-serif" font-size="12" lengthAdjust="spacingAndGlyphs" textLength="80" x="16.5" y="342.1387">Sauvegarder</text><rect fill="#EEEEEE" height="17.9688" rx="5" ry="5" style="stroke: #000000; stroke-width: 2.5;" width="156" x="109.5" y="329"/><text fill="#000000" font-family="sans-serif" font-size="12" lengthAdjust="spacingAndGlyphs" textLength="111" x="132" y="342.1387">Saisir une activité</text><rect fill="none" height="252.5938" style="stroke: #000000; stroke-width: 1.0;" width="15" x="912" y="61.9063"/><line style="stroke: #000000; stroke-width: 1.0;" x1="912" x2="927" y1="73.9063" y2="73.9063"/><line style="stroke: #000000; stroke-width: 1.0;" x1="912" x2="927" y1="302.5" y2="302.5"/><path d="M919,65.9063 L922,70.9063 L916,70.9063 L919,65.9063 " fill="#000000" style="stroke: #000000; stroke-width: 1.0;"/><path d="M919,311.5 L922,306.5 L916,306.5 L919,311.5 " fill="#000000" style="stroke: #000000; stroke-width: 1.0;"/></g></svg>