<?xml version="1.0" encoding="UTF-8" standalone="no"?><svg xmlns="http://www.w3.org/2000/svg" xmlns:xlink="http://www.w3.org/1999/xlink" contentStyleType="text/css" height="138px" preserveAspectRatio="none" style="width:408px;height:138px;background:#FFFFFF;" version="1.1" viewBox="0 0 408 138" width="408px" zoomAndPan="magnify"><defs/><g><text fill="#000000" font-family="sans-serif" font-size="12" lengthAdjust="spacing" textLength="39" x="8" y="18.8281">Détails</text><line style="stroke:#000000;stroke-width:1.0;" x1="6" x2="6" y1="6" y2="22.3441"/><line style="stroke:#000000;stroke-width:1.0;" x1="6" x2="50" y1="6" y2="6"/><line style="stroke:#000000;stroke-width:1.0;" x1="50" x2="50" y1="6" y2="22.3441"/><line style="stroke:#000000;stroke-width:1.0;" x1="50" x2="60" y1="22.3441" y2="22.3441"/><text fill="#000000" font-family="sans-serif" font-size="12" font-weight="bold" lengthAdjust="spacing" textLength="104" x="65" y="18.8281">Échantillonnages</text><line style="stroke:#000000;stroke-width:1.0;" x1="60" x2="60" y1="6" y2="22.3441"/><line style="stroke:#000000;stroke-width:1.0;" x1="60" x2="172" y1="6" y2="6"/><line style="stroke:#000000;stroke-width:1.0;" x1="172" x2="172" y1="6" y2="22.3441"/><line style="stroke:#000000;stroke-width:1.0;" x1="172" x2="182" y1="22.3441" y2="22.3441"/><rect fill="#EEEEEE" height="12" rx="5" ry="5" style="stroke:#000000;stroke-width:2.5;" width="36" x="9.5" y="27.8441"/><path d="M26.5,29.8441 L26.5,32.8441 L23.5,32.8441 L23.5,34.8441 L26.5,34.8441 L26.5,37.8441 L28.5,37.8441 L28.5,34.8441 L31.5,34.8441 L31.5,32.8441 L28.5,32.8441 L28.5,29.8441 L26.5,29.8441 " fill="#000000" style="stroke:;stroke-width:0.0;stroke-dasharray:;"/><text fill="#000000" font-family="sans-serif" font-size="12" lengthAdjust="spacing" textLength="8" x="7" y="57.1722">#</text><text fill="#000000" font-family="sans-serif" font-size="12" font-weight="bold" lengthAdjust="spacing" textLength="40" x="106" y="57.1722">Navire</text><text fill="#000000" font-family="sans-serif" font-size="12" font-weight="bold" lengthAdjust="spacing" textLength="41" x="204" y="57.1722">Espèce</text><text fill="#000000" font-family="sans-serif" font-size="12" font-weight="bold" lengthAdjust="spacing" textLength="43" x="306" y="57.1722">PSFM 2</text><text fill="#000000" font-family="sans-serif" font-size="12" font-weight="bold" lengthAdjust="spacing" textLength="97" x="7" y="75.5163">POL - Pollachius</text><text fill="#000000" font-family="sans-serif" font-size="12" lengthAdjust="spacing" textLength="7" x="7" y="93.8604">1</text><text fill="#000000" font-family="sans-serif" font-size="12" lengthAdjust="spacing" textLength="96" x="106" y="93.8604">851751- Navire 1</text><text fill="#000000" font-family="sans-serif" font-size="12" lengthAdjust="spacing" textLength="97" x="204" y="93.8604">POL - Pollachius...</text><text fill="#000000" font-family="sans-serif" font-size="12" lengthAdjust="spacing" textLength="96" x="303" y="93.8604">Caractéristique 2</text><line style="stroke:#000000;stroke-width:1.0;" x1="6" x2="105" y1="24.3441" y2="24.3441"/><line style="stroke:#000000;stroke-width:1.0;" x1="203" x2="302" y1="61.6882" y2="61.6882"/><line style="stroke:#000000;stroke-width:1.0;" x1="105" x2="203" y1="24.3441" y2="24.3441"/><line style="stroke:#000000;stroke-width:1.0;" x1="302" x2="400" y1="61.6882" y2="61.6882"/><line style="stroke:#000000;stroke-width:1.0;" x1="203" x2="302" y1="24.3441" y2="24.3441"/><line style="stroke:#000000;stroke-width:1.0;" x1="302" x2="400" y1="24.3441" y2="24.3441"/><line style="stroke:#000000;stroke-width:1.0;" x1="6" x2="105" y1="80.0323" y2="80.0323"/><line style="stroke:#000000;stroke-width:1.0;" x1="105" x2="203" y1="80.0323" y2="80.0323"/><line style="stroke:#000000;stroke-width:1.0;" x1="6" x2="105" y1="43.3441" y2="43.3441"/><line style="stroke:#000000;stroke-width:1.0;" x1="203" x2="302" y1="80.0323" y2="80.0323"/><line style="stroke:#000000;stroke-width:1.0;" x1="105" x2="203" y1="43.3441" y2="43.3441"/><line style="stroke:#000000;stroke-width:1.0;" x1="302" x2="400" y1="80.0323" y2="80.0323"/><line style="stroke:#000000;stroke-width:1.0;" x1="203" x2="302" y1="43.3441" y2="43.3441"/><line style="stroke:#000000;stroke-width:1.0;" x1="302" x2="400" y1="43.3441" y2="43.3441"/><line style="stroke:#000000;stroke-width:1.0;" x1="6" x2="105" y1="98.3765" y2="98.3765"/><line style="stroke:#000000;stroke-width:1.0;" x1="105" x2="203" y1="98.3765" y2="98.3765"/><line style="stroke:#000000;stroke-width:1.0;" x1="203" x2="302" y1="98.3765" y2="98.3765"/><line style="stroke:#000000;stroke-width:1.0;" x1="6" x2="105" y1="61.6882" y2="61.6882"/><line style="stroke:#000000;stroke-width:1.0;" x1="302" x2="400" y1="98.3765" y2="98.3765"/><line style="stroke:#000000;stroke-width:1.0;" x1="105" x2="203" y1="61.6882" y2="61.6882"/><line style="stroke:#000000;stroke-width:1.0;" x1="6" x2="6" y1="24.3441" y2="43.3441"/><line style="stroke:#000000;stroke-width:1.0;" x1="105" x2="105" y1="24.3441" y2="43.3441"/><line style="stroke:#000000;stroke-width:1.0;" x1="400" x2="400" y1="61.6882" y2="80.0323"/><line style="stroke:#000000;stroke-width:1.0;" x1="203" x2="203" y1="24.3441" y2="43.3441"/><line style="stroke:#000000;stroke-width:1.0;" x1="302" x2="302" y1="24.3441" y2="43.3441"/><line style="stroke:#000000;stroke-width:1.0;" x1="400" x2="400" y1="24.3441" y2="43.3441"/><line style="stroke:#000000;stroke-width:1.0;" x1="6" x2="6" y1="80.0323" y2="98.3765"/><line style="stroke:#000000;stroke-width:1.0;" x1="105" x2="105" y1="80.0323" y2="98.3765"/><line style="stroke:#000000;stroke-width:1.0;" x1="6" x2="6" y1="43.3441" y2="61.6882"/><line style="stroke:#000000;stroke-width:1.0;" x1="203" x2="203" y1="80.0323" y2="98.3765"/><line style="stroke:#000000;stroke-width:1.0;" x1="105" x2="105" y1="43.3441" y2="61.6882"/><line style="stroke:#000000;stroke-width:1.0;" x1="302" x2="302" y1="80.0323" y2="98.3765"/><line style="stroke:#000000;stroke-width:1.0;" x1="400" x2="400" y1="80.0323" y2="98.3765"/><line style="stroke:#000000;stroke-width:1.0;" x1="203" x2="203" y1="43.3441" y2="61.6882"/><line style="stroke:#000000;stroke-width:1.0;" x1="302" x2="302" y1="43.3441" y2="61.6882"/><line style="stroke:#000000;stroke-width:1.0;" x1="400" x2="400" y1="43.3441" y2="61.6882"/><line style="stroke:#000000;stroke-width:1.0;" x1="6" x2="6" y1="61.6882" y2="80.0323"/><line style="stroke:#000000;stroke-width:1.0;" x1="105" x2="105" y1="61.6882" y2="80.0323"/><line style="stroke:#AAAAAA;stroke-width:1.0;" x1="6" x2="401" y1="103.8765" y2="103.8765"/><rect fill="#EEEEEE" height="20.3441" rx="5" ry="5" style="stroke:#000000;stroke-width:2.5;" width="52" x="9.5" y="111.8765"/><text fill="#000000" font-family="sans-serif" font-size="12" lengthAdjust="spacing" textLength="41" x="15" y="126.7045">Fermer</text><rect fill="#EEEEEE" height="20.3441" rx="5" ry="5" style="stroke:#000000;stroke-width:2.5;" width="92" x="68.5" y="111.8765"/><text fill="#000000" font-family="sans-serif" font-size="12" lengthAdjust="spacing" textLength="72" x="78.5" y="126.7045">Sauvegarder</text></g></svg>