<?xml version="1.0" encoding="us-ascii" standalone="no"?><svg xmlns="http://www.w3.org/2000/svg" xmlns:xlink="http://www.w3.org/1999/xlink" contentStyleType="text/css" height="233px" preserveAspectRatio="none" style="width:672px;height:233px;background:#FFFFFF;" version="1.1" viewBox="0 0 672 233" width="672px" zoomAndPan="magnify"><defs/><g><text fill="#000000" font-family="sans-serif" font-size="12" font-weight="bold" lengthAdjust="spacing" textLength="140" x="6" y="18.457">Douarnenez - 08/02/2022</text><line style="stroke:#AAAAAA;stroke-width:1.0;" x1="6" x2="657" y1="26.5938" y2="26.5938"/><text fill="#000000" font-family="sans-serif" font-size="12" lengthAdjust="spacing" textLength="39" x="8" y="43.5508">D&#233;tails</text><line style="stroke:#000000;stroke-width:1.0;" x1="6" x2="6" y1="31.0938" y2="46.1875"/><line style="stroke:#000000;stroke-width:1.0;" x1="6" x2="50" y1="31.0938" y2="31.0938"/><line style="stroke:#000000;stroke-width:1.0;" x1="50" x2="50" y1="31.0938" y2="46.1875"/><line style="stroke:#000000;stroke-width:1.0;" x1="50" x2="60" y1="46.1875" y2="46.1875"/><text fill="#000000" font-family="sans-serif" font-size="12" font-weight="bold" lengthAdjust="spacing" textLength="97" x="65" y="43.5508">&#201;chantillonnages</text><line style="stroke:#000000;stroke-width:1.0;" x1="60" x2="60" y1="31.0938" y2="46.1875"/><line style="stroke:#000000;stroke-width:1.0;" x1="60" x2="165" y1="31.0938" y2="31.0938"/><line style="stroke:#000000;stroke-width:1.0;" x1="165" x2="165" y1="31.0938" y2="46.1875"/><line style="stroke:#000000;stroke-width:1.0;" x1="165" x2="175" y1="46.1875" y2="46.1875"/><line style="stroke:#AAAAAA;stroke-width:1.0;stroke-dasharray:1.0,2.0;" x1="6" x2="657" y1="51.6875" y2="51.6875"/><path d="M11,61.2813 L11,64.2813 L8,64.2813 L8,66.2813 L11,66.2813 L11,69.2813 L13,69.2813 L13,66.2813 L16,66.2813 L16,64.2813 L13,64.2813 L13,61.2813 L11,61.2813 " fill="#000000" style="stroke:;stroke-width:0.0;stroke-dasharray:;"/><text fill="#000000" font-family="sans-serif" font-size="12" lengthAdjust="spacing" textLength="3" x="17" y="69.6445">&#160;</text><text fill="#000000" font-family="sans-serif" font-size="12" font-weight="bold" lengthAdjust="spacing" textLength="8" x="20" y="69.6445">((</text><path d="M32,61.2813 L32,64.2813 L29,64.2813 L29,66.2813 L32,66.2813 L32,69.2813 L34,69.2813 L34,66.2813 L37,66.2813 L37,64.2813 L34,64.2813 L34,61.2813 L32,61.2813 " fill="#000000" style="stroke:;stroke-width:0.0;stroke-dasharray:;"/><text fill="#000000" font-family="sans-serif" font-size="12" font-weight="bold" lengthAdjust="spacing" textLength="4" x="38" y="69.6445">)</text><path d="M50,61.2813 C47.8,61.2813 46,63.0813 46,65.2813 C46,67.4813 47.8,69.2813 50,69.2813 C51.1,69.2813 52.12,68.8513 52.84,68.1213 L52.12,67.4013 C51.58,67.9413 50.83,68.2813 49.99,68.2813 C48.33,68.2813 46.99,66.9413 46.99,65.2813 C46.99,63.6213 48.33,62.2813 49.99,62.2813 C50.82,62.2813 51.54,62.6413 52.08,63.1913 L50.99,64.2813 L53.99,64.2813 L53.99,61.2813 L52.8,62.4713 C52.08,61.7513 51.09,61.2813 49.99,61.2813 " fill="#000000" style="stroke:;stroke-width:0.0;stroke-dasharray:;"/><text fill="#000000" font-family="sans-serif" font-size="12" font-weight="bold" lengthAdjust="spacing" textLength="3" x="55" y="69.6445">&#160;</text><path d="M62,61.2813 C61.45,61.2813 61,61.7313 61,62.2813 L60,62.2813 C59.45,62.2813 59,62.7313 59,63.2813 L66,63.2813 C66,62.7313 65.55,62.2813 65,62.2813 L64,62.2813 C64,61.7313 63.55,61.2813 63,61.2813 L62,61.2813 M60,64.2813 L60,69.0913 C60,69.2013 60.08,69.2813 60.19,69.2813 L64.82,69.2813 C64.93,69.2813 65.01,69.2013 65.01,69.0913 L65.01,64.2813 L64.01,64.2813 L64.01,67.7813 C64.01,68.0613 63.79,68.2813 63.51,68.2813 C63.23,68.2813 63.01,68.0613 63.01,67.7813 L63.01,64.2813 L62.01,64.2813 L62.01,67.7813 C62.01,68.0613 61.79,68.2813 61.51,68.2813 C61.23,68.2813 61.01,68.0613 61.01,67.7813 L61.01,64.2813 L60.01,64.2813 " fill="#000000" style="stroke:;stroke-width:0.0;stroke-dasharray:;"/><text fill="#000000" font-family="sans-serif" font-size="12" font-weight="bold" lengthAdjust="spacing" textLength="7" x="658" y="68.6445">Y</text><path d="M10.97,76.2813 L8,79.2813 L10,79.2813 L10,84.2813 L12,84.2813 L12,79.2813 L14,79.2813 L10.97,76.2813 " fill="#000000" style="stroke:;stroke-width:0.0;stroke-dasharray:;"/><text fill="#000000" font-family="sans-serif" font-size="12" font-weight="bold" lengthAdjust="spacing" textLength="22" x="36" y="88.7383">Etat</text><text fill="#000000" font-family="sans-serif" font-size="12" font-weight="bold" lengthAdjust="spacing" textLength="120" x="60" y="88.7383">Esp&#232;ce commerciale</text><text fill="#000000" font-family="sans-serif" font-size="12" font-weight="bold" lengthAdjust="spacing" textLength="111" x="199" y="88.7383">Esp&#232;ce scientifique</text><text fill="#000000" font-family="sans-serif" font-size="12" font-weight="bold" lengthAdjust="spacing" textLength="58" x="389" y="88.7383">Observ&#233; ?</text><text fill="#000000" font-family="sans-serif" font-size="12" font-weight="bold" lengthAdjust="spacing" textLength="36" x="449" y="88.7383">Navire</text><text fill="#000000" font-family="sans-serif" font-size="12" font-weight="bold" lengthAdjust="spacing" textLength="83" x="548" y="88.7383">Zone de p&#234;che</text><text fill="#000000" font-family="sans-serif" font-size="12" font-weight="bold" lengthAdjust="spacing" textLength="9" x="639" y="88.7383">...</text><text fill="#000000" font-family="sans-serif" font-size="12" lengthAdjust="spacing" textLength="7" x="27" y="105.832">1</text><rect fill="none" height="10" style="stroke:#000000;stroke-width:1.5;" width="10" x="9" y="95.9219"/><polygon fill="#000000" points="10,99.375,13,102.375,20,93.375,13,100.375" style="stroke:#000000;stroke-width:1.5;"/><path d="M43,93.375 L42,94.375 L44,96.375 L45,95.375 L43,93.375 M41,95.375 L37,99.375 L37,101.375 L39,101.375 L43,97.375 L41,95.375 " fill="#000000" style="stroke:;stroke-width:0.0;stroke-dasharray:;"/><text fill="#000000" font-family="sans-serif" font-size="12" lengthAdjust="spacing" textLength="127" x="60" y="105.832">BET - Thunnus obesus</text><text fill="#000000" font-family="sans-serif" font-size="12" lengthAdjust="spacing" textLength="153" x="199" y="105.832">BET - Thon ob&#232;se(=Patudo)</text><text fill="#000000" font-family="sans-serif" font-size="12" lengthAdjust="spacing" textLength="3" x="409" y="105.832">.</text><rect fill="none" height="10" style="stroke:#000000;stroke-width:1.5;" width="10" x="391" y="95.9219"/><polygon fill="#000000" points="392,99.375,395,102.375,402,93.375,395,100.375" style="stroke:#000000;stroke-width:1.5;"/><text fill="#000000" font-family="sans-serif" font-size="12" lengthAdjust="spacing" textLength="97" x="449" y="105.832">123456 - Navire 1</text><text fill="#000000" font-family="sans-serif" font-size="12" lengthAdjust="spacing" textLength="38" x="548" y="105.832">Zone 1</text><path d="M646,93.375 L646,96.375 L651,101.375 L654,98.375 L649,93.375 L646,93.375 M648,94.375 C648.55,94.375 649,94.825 649,95.375 C649,95.925 648.55,96.375 648,96.375 C647.45,96.375 647,95.925 647,95.375 C647,94.825 647.45,94.375 648,94.375 " fill="#000000" style="stroke:;stroke-width:0.0;stroke-dasharray:;"/><text fill="#000000" font-family="sans-serif" font-size="12" lengthAdjust="spacing" textLength="7" x="27" y="122.9258">2</text><rect fill="none" height="10" style="stroke:#000000;stroke-width:1.5;" width="10" x="9" y="113.0156"/><path d="M43,110.4688 L42,111.4688 L44,113.4688 L45,112.4688 L43,110.4688 M41,112.4688 L37,116.4688 L37,118.4688 L39,118.4688 L43,114.4688 L41,112.4688 " fill="#000000" style="stroke:;stroke-width:0.0;stroke-dasharray:;"/><text fill="#000000" font-family="sans-serif" font-size="12" lengthAdjust="spacing" textLength="127" x="60" y="122.9258">BFT - Thunnus thynnus</text><text fill="#000000" font-family="sans-serif" font-size="12" lengthAdjust="spacing" textLength="174" x="199" y="122.9258">BFT - Thon rouge de l'Atlantique</text><text fill="#000000" font-family="sans-serif" font-size="12" lengthAdjust="spacing" textLength="3" x="409" y="122.9258">.</text><rect fill="none" height="10" style="stroke:#000000;stroke-width:1.5;" width="10" x="391" y="113.0156"/><polygon fill="#000000" points="392,116.4688,395,119.4688,402,110.4688,395,117.4688" style="stroke:#000000;stroke-width:1.5;"/><text fill="#000000" font-family="sans-serif" font-size="12" lengthAdjust="spacing" textLength="97" x="449" y="122.9258">123456 - Navire 1</text><text fill="#000000" font-family="sans-serif" font-size="12" lengthAdjust="spacing" textLength="38" x="548" y="122.9258">Zone 2</text><path d="M634.09,110.4688 C634.03,110.4688 634,110.5088 634,110.5588 L634,116.3688 C634,116.4188 634.04,116.4588 634.09,116.4588 L640,116.4588 L642,118.4588 L642,110.5488 C642,110.4888 641.96,110.4588 641.91,110.4588 L634.1,110.4588 " fill="#000000" style="stroke:;stroke-width:0.0;stroke-dasharray:;"/><path d="M646,110.4688 L646,113.4688 L651,118.4688 L654,115.4688 L649,110.4688 L646,110.4688 M648,111.4688 C648.55,111.4688 649,111.9188 649,112.4688 C649,113.0188 648.55,113.4688 648,113.4688 C647.45,113.4688 647,113.0188 647,112.4688 C647,111.9188 647.45,111.4688 648,111.4688 " fill="#000000" style="stroke:;stroke-width:0.0;stroke-dasharray:;"/><text fill="#000000" font-family="sans-serif" font-size="12" lengthAdjust="spacing" textLength="7" x="27" y="140.0195">3</text><rect fill="none" height="10" style="stroke:#000000;stroke-width:1.5;" width="10" x="9" y="130.1094"/><polygon fill="#000000" points="10,133.5625,13,136.5625,20,127.5625,13,134.5625" style="stroke:#000000;stroke-width:1.5;"/><path d="M43,127.5625 L42,128.5625 L44,130.5625 L45,129.5625 L43,127.5625 M41,129.5625 L37,133.5625 L37,135.5625 L39,135.5625 L43,131.5625 L41,129.5625 " fill="#000000" style="stroke:;stroke-width:0.0;stroke-dasharray:;"/><text fill="#000000" font-family="sans-serif" font-size="12" lengthAdjust="spacing" textLength="100" x="60" y="140.0195">BIL - Istiophoridae</text><text fill="#000000" font-family="sans-serif" font-size="12" lengthAdjust="spacing" textLength="188" x="199" y="140.0195">BIL - Makaires,marlins,voiliers nca</text><text fill="#000000" font-family="sans-serif" font-size="12" lengthAdjust="spacing" textLength="3" x="409" y="140.0195">.</text><rect fill="none" height="10" style="stroke:#000000;stroke-width:1.5;" width="10" x="391" y="130.1094"/><path d="M646,127.5625 L646,130.5625 L651,135.5625 L654,132.5625 L649,127.5625 L646,127.5625 M648,128.5625 C648.55,128.5625 649,129.0125 649,129.5625 C649,130.1125 648.55,130.5625 648,130.5625 C647.45,130.5625 647,130.1125 647,129.5625 C647,129.0125 647.45,128.5625 648,128.5625 " fill="#000000" style="stroke:;stroke-width:0.0;stroke-dasharray:;"/><text fill="#000000" font-family="sans-serif" font-size="12" lengthAdjust="spacing" textLength="7" x="27" y="157.1133">4</text><rect fill="none" height="10" style="stroke:#000000;stroke-width:1.5;" width="10" x="9" y="147.2031"/><polygon fill="#000000" points="10,150.6563,13,153.6563,20,144.6563,13,151.6563" style="stroke:#000000;stroke-width:1.5;"/><path d="M43,144.6563 L42,145.6563 L44,147.6563 L45,146.6563 L43,144.6563 M41,146.6563 L37,150.6563 L37,152.6563 L39,152.6563 L43,148.6563 L41,146.6563 " fill="#000000" style="stroke:;stroke-width:0.0;stroke-dasharray:;"/><text fill="#000000" font-family="sans-serif" font-size="12" lengthAdjust="spacing" textLength="137" x="60" y="157.1133">BLF - Thunnus atlanticus</text><text fill="#000000" font-family="sans-serif" font-size="12" lengthAdjust="spacing" textLength="167" x="199" y="157.1133">BLF - Thon &#224; nageoires noires</text><text fill="#000000" font-family="sans-serif" font-size="12" lengthAdjust="spacing" textLength="3" x="409" y="157.1133">.</text><rect fill="none" height="10" style="stroke:#000000;stroke-width:1.5;" width="10" x="391" y="147.2031"/><polygon fill="#000000" points="392,150.6563,395,153.6563,402,144.6563,395,151.6563" style="stroke:#000000;stroke-width:1.5;"/><text fill="#000000" font-family="sans-serif" font-size="12" lengthAdjust="spacing" textLength="97" x="449" y="157.1133">456789 - Navire 2</text><text fill="#000000" font-family="sans-serif" font-size="12" lengthAdjust="spacing" textLength="38" x="548" y="157.1133">Zone 1</text><path d="M634.09,144.6563 C634.03,144.6563 634,144.6963 634,144.7463 L634,150.5563 C634,150.6063 634.04,150.6463 634.09,150.6463 L640,150.6463 L642,152.6463 L642,144.7363 C642,144.6763 641.96,144.6463 641.91,144.6463 L634.1,144.6463 " fill="#000000" style="stroke:;stroke-width:0.0;stroke-dasharray:;"/><path d="M646,144.6563 L646,147.6563 L651,152.6563 L654,149.6563 L649,144.6563 L646,144.6563 M648,145.6563 C648.55,145.6563 649,146.1063 649,146.6563 C649,147.2063 648.55,147.6563 648,147.6563 C647.45,147.6563 647,147.2063 647,146.6563 C647,146.1063 647.45,145.6563 648,145.6563 " fill="#000000" style="stroke:;stroke-width:0.0;stroke-dasharray:;"/><text fill="#000000" font-family="sans-serif" font-size="12" lengthAdjust="spacing" textLength="7" x="27" y="174.207">5</text><rect fill="none" height="10" style="stroke:#000000;stroke-width:1.5;" width="10" x="9" y="164.2969"/><path d="M43,161.75 L42,162.75 L44,164.75 L45,163.75 L43,161.75 M41,163.75 L37,167.75 L37,169.75 L39,169.75 L43,165.75 L41,163.75 " fill="#000000" style="stroke:;stroke-width:0.0;stroke-dasharray:;"/><text fill="#000000" font-family="sans-serif" font-size="12" lengthAdjust="spacing" textLength="98" x="60" y="174.207">BLT - Auxis rochei</text><text fill="#000000" font-family="sans-serif" font-size="12" lengthAdjust="spacing" textLength="74" x="199" y="174.207">BLT - Bonitou</text><text fill="#000000" font-family="sans-serif" font-size="12" lengthAdjust="spacing" textLength="3" x="409" y="174.207">.</text><rect fill="none" height="10" style="stroke:#000000;stroke-width:1.5;" width="10" x="391" y="164.2969"/><text fill="#000000" font-family="sans-serif" font-size="12" lengthAdjust="spacing" textLength="7" x="27" y="191.3008">6</text><rect fill="none" height="10" style="stroke:#000000;stroke-width:1.5;" width="10" x="9" y="181.3906"/><path d="M43,178.8438 L42,179.8438 L44,181.8438 L45,180.8438 L43,178.8438 M41,180.8438 L37,184.8438 L37,186.8438 L39,186.8438 L43,182.8438 L41,180.8438 " fill="#000000" style="stroke:;stroke-width:0.0;stroke-dasharray:;"/><line style="stroke:#AAAAAA;stroke-width:1.0;stroke-dasharray:1.0,2.0;" x1="60" x2="198" y1="186.8906" y2="186.8906"/><text fill="#000000" font-family="sans-serif" font-size="12" lengthAdjust="spacing" textLength="3" x="409" y="191.3008">.</text><rect fill="none" height="10" style="stroke:#000000;stroke-width:1.5;" width="10" x="391" y="181.3906"/><line style="stroke:#000000;stroke-width:1.0;" x1="6" x2="35" y1="75.2813" y2="75.2813"/><line style="stroke:#000000;stroke-width:1.0;" x1="35" x2="59" y1="75.2813" y2="75.2813"/><line style="stroke:#000000;stroke-width:1.0;" x1="59" x2="198" y1="75.2813" y2="75.2813"/><line style="stroke:#000000;stroke-width:1.0;" x1="198" x2="388" y1="75.2813" y2="75.2813"/><line style="stroke:#000000;stroke-width:1.0;" x1="388" x2="448" y1="75.2813" y2="75.2813"/><line style="stroke:#000000;stroke-width:1.0;" x1="448" x2="547" y1="75.2813" y2="75.2813"/><line style="stroke:#000000;stroke-width:1.0;" x1="547" x2="632" y1="75.2813" y2="75.2813"/><line style="stroke:#000000;stroke-width:1.0;" x1="632" x2="644" y1="75.2813" y2="75.2813"/><line style="stroke:#000000;stroke-width:1.0;" x1="644" x2="656" y1="75.2813" y2="75.2813"/><line style="stroke:#000000;stroke-width:1.0;" x1="6" x2="35" y1="126.5625" y2="126.5625"/><line style="stroke:#000000;stroke-width:1.0;" x1="35" x2="59" y1="126.5625" y2="126.5625"/><line style="stroke:#000000;stroke-width:1.0;" x1="59" x2="198" y1="126.5625" y2="126.5625"/><line style="stroke:#000000;stroke-width:1.0;" x1="198" x2="388" y1="126.5625" y2="126.5625"/><line style="stroke:#000000;stroke-width:1.0;" x1="388" x2="448" y1="126.5625" y2="126.5625"/><line style="stroke:#000000;stroke-width:1.0;" x1="448" x2="547" y1="126.5625" y2="126.5625"/><line style="stroke:#000000;stroke-width:1.0;" x1="547" x2="632" y1="126.5625" y2="126.5625"/><line style="stroke:#000000;stroke-width:1.0;" x1="632" x2="644" y1="126.5625" y2="126.5625"/><line style="stroke:#000000;stroke-width:1.0;" x1="644" x2="656" y1="126.5625" y2="126.5625"/><line style="stroke:#000000;stroke-width:1.0;" x1="6" x2="35" y1="177.8438" y2="177.8438"/><line style="stroke:#000000;stroke-width:1.0;" x1="35" x2="59" y1="177.8438" y2="177.8438"/><line style="stroke:#000000;stroke-width:1.0;" x1="59" x2="198" y1="177.8438" y2="177.8438"/><line style="stroke:#000000;stroke-width:1.0;" x1="198" x2="388" y1="177.8438" y2="177.8438"/><line style="stroke:#000000;stroke-width:1.0;" x1="388" x2="448" y1="177.8438" y2="177.8438"/><line style="stroke:#000000;stroke-width:1.0;" x1="448" x2="547" y1="177.8438" y2="177.8438"/><line style="stroke:#000000;stroke-width:1.0;" x1="547" x2="632" y1="177.8438" y2="177.8438"/><line style="stroke:#000000;stroke-width:1.0;" x1="632" x2="644" y1="177.8438" y2="177.8438"/><line style="stroke:#000000;stroke-width:1.0;" x1="644" x2="656" y1="177.8438" y2="177.8438"/><line style="stroke:#000000;stroke-width:1.0;" x1="6" x2="35" y1="92.375" y2="92.375"/><line style="stroke:#000000;stroke-width:1.0;" x1="35" x2="59" y1="92.375" y2="92.375"/><line style="stroke:#000000;stroke-width:1.0;" x1="59" x2="198" y1="92.375" y2="92.375"/><line style="stroke:#000000;stroke-width:1.0;" x1="198" x2="388" y1="92.375" y2="92.375"/><line style="stroke:#000000;stroke-width:1.0;" x1="388" x2="448" y1="92.375" y2="92.375"/><line style="stroke:#000000;stroke-width:1.0;" x1="448" x2="547" y1="92.375" y2="92.375"/><line style="stroke:#000000;stroke-width:1.0;" x1="547" x2="632" y1="92.375" y2="92.375"/><line style="stroke:#000000;stroke-width:1.0;" x1="632" x2="644" y1="92.375" y2="92.375"/><line style="stroke:#000000;stroke-width:1.0;" x1="644" x2="656" y1="92.375" y2="92.375"/><line style="stroke:#000000;stroke-width:1.0;" x1="6" x2="35" y1="143.6563" y2="143.6563"/><line style="stroke:#000000;stroke-width:1.0;" x1="35" x2="59" y1="143.6563" y2="143.6563"/><line style="stroke:#000000;stroke-width:1.0;" x1="59" x2="198" y1="143.6563" y2="143.6563"/><line style="stroke:#000000;stroke-width:1.0;" x1="198" x2="388" y1="143.6563" y2="143.6563"/><line style="stroke:#000000;stroke-width:1.0;" x1="388" x2="448" y1="143.6563" y2="143.6563"/><line style="stroke:#000000;stroke-width:1.0;" x1="448" x2="547" y1="143.6563" y2="143.6563"/><line style="stroke:#000000;stroke-width:1.0;" x1="547" x2="632" y1="143.6563" y2="143.6563"/><line style="stroke:#000000;stroke-width:1.0;" x1="632" x2="644" y1="143.6563" y2="143.6563"/><line style="stroke:#000000;stroke-width:1.0;" x1="644" x2="656" y1="143.6563" y2="143.6563"/><line style="stroke:#000000;stroke-width:1.0;" x1="6" x2="35" y1="194.9375" y2="194.9375"/><line style="stroke:#000000;stroke-width:1.0;" x1="35" x2="59" y1="194.9375" y2="194.9375"/><line style="stroke:#000000;stroke-width:1.0;" x1="59" x2="198" y1="194.9375" y2="194.9375"/><line style="stroke:#000000;stroke-width:1.0;" x1="198" x2="388" y1="194.9375" y2="194.9375"/><line style="stroke:#000000;stroke-width:1.0;" x1="388" x2="448" y1="194.9375" y2="194.9375"/><line style="stroke:#000000;stroke-width:1.0;" x1="448" x2="547" y1="194.9375" y2="194.9375"/><line style="stroke:#000000;stroke-width:1.0;" x1="547" x2="632" y1="194.9375" y2="194.9375"/><line style="stroke:#000000;stroke-width:1.0;" x1="632" x2="644" y1="194.9375" y2="194.9375"/><line style="stroke:#000000;stroke-width:1.0;" x1="644" x2="656" y1="194.9375" y2="194.9375"/><line style="stroke:#000000;stroke-width:1.0;" x1="6" x2="35" y1="109.4688" y2="109.4688"/><line style="stroke:#000000;stroke-width:1.0;" x1="35" x2="59" y1="109.4688" y2="109.4688"/><line style="stroke:#000000;stroke-width:1.0;" x1="59" x2="198" y1="109.4688" y2="109.4688"/><line style="stroke:#000000;stroke-width:1.0;" x1="198" x2="388" y1="109.4688" y2="109.4688"/><line style="stroke:#000000;stroke-width:1.0;" x1="388" x2="448" y1="109.4688" y2="109.4688"/><line style="stroke:#000000;stroke-width:1.0;" x1="448" x2="547" y1="109.4688" y2="109.4688"/><line style="stroke:#000000;stroke-width:1.0;" x1="547" x2="632" y1="109.4688" y2="109.4688"/><line style="stroke:#000000;stroke-width:1.0;" x1="632" x2="644" y1="109.4688" y2="109.4688"/><line style="stroke:#000000;stroke-width:1.0;" x1="644" x2="656" y1="109.4688" y2="109.4688"/><line style="stroke:#000000;stroke-width:1.0;" x1="6" x2="35" y1="160.75" y2="160.75"/><line style="stroke:#000000;stroke-width:1.0;" x1="35" x2="59" y1="160.75" y2="160.75"/><line style="stroke:#000000;stroke-width:1.0;" x1="59" x2="198" y1="160.75" y2="160.75"/><line style="stroke:#000000;stroke-width:1.0;" x1="198" x2="388" y1="160.75" y2="160.75"/><line style="stroke:#000000;stroke-width:1.0;" x1="388" x2="448" y1="160.75" y2="160.75"/><line style="stroke:#000000;stroke-width:1.0;" x1="448" x2="547" y1="160.75" y2="160.75"/><line style="stroke:#000000;stroke-width:1.0;" x1="547" x2="632" y1="160.75" y2="160.75"/><line style="stroke:#000000;stroke-width:1.0;" x1="632" x2="644" y1="160.75" y2="160.75"/><line style="stroke:#000000;stroke-width:1.0;" x1="644" x2="656" y1="160.75" y2="160.75"/><line style="stroke:#000000;stroke-width:1.0;" x1="6" x2="6" y1="75.2813" y2="92.375"/><line style="stroke:#000000;stroke-width:1.0;" x1="35" x2="35" y1="75.2813" y2="92.375"/><line style="stroke:#000000;stroke-width:1.0;" x1="59" x2="59" y1="75.2813" y2="92.375"/><line style="stroke:#000000;stroke-width:1.0;" x1="198" x2="198" y1="75.2813" y2="92.375"/><line style="stroke:#000000;stroke-width:1.0;" x1="388" x2="388" y1="75.2813" y2="92.375"/><line style="stroke:#000000;stroke-width:1.0;" x1="448" x2="448" y1="75.2813" y2="92.375"/><line style="stroke:#000000;stroke-width:1.0;" x1="547" x2="547" y1="75.2813" y2="92.375"/><line style="stroke:#000000;stroke-width:1.0;" x1="632" x2="632" y1="75.2813" y2="92.375"/><line style="stroke:#000000;stroke-width:1.0;" x1="656" x2="656" y1="75.2813" y2="92.375"/><line style="stroke:#000000;stroke-width:1.0;" x1="6" x2="6" y1="126.5625" y2="143.6563"/><line style="stroke:#000000;stroke-width:1.0;" x1="35" x2="35" y1="126.5625" y2="143.6563"/><line style="stroke:#000000;stroke-width:1.0;" x1="59" x2="59" y1="126.5625" y2="143.6563"/><line style="stroke:#000000;stroke-width:1.0;" x1="198" x2="198" y1="126.5625" y2="143.6563"/><line style="stroke:#000000;stroke-width:1.0;" x1="388" x2="388" y1="126.5625" y2="143.6563"/><line style="stroke:#000000;stroke-width:1.0;" x1="448" x2="448" y1="126.5625" y2="143.6563"/><line style="stroke:#000000;stroke-width:1.0;" x1="547" x2="547" y1="126.5625" y2="143.6563"/><line style="stroke:#000000;stroke-width:1.0;" x1="632" x2="632" y1="126.5625" y2="143.6563"/><line style="stroke:#000000;stroke-width:1.0;" x1="644" x2="644" y1="126.5625" y2="143.6563"/><line style="stroke:#000000;stroke-width:1.0;" x1="656" x2="656" y1="126.5625" y2="143.6563"/><line style="stroke:#000000;stroke-width:1.0;" x1="6" x2="6" y1="177.8438" y2="194.9375"/><line style="stroke:#000000;stroke-width:1.0;" x1="35" x2="35" y1="177.8438" y2="194.9375"/><line style="stroke:#000000;stroke-width:1.0;" x1="59" x2="59" y1="177.8438" y2="194.9375"/><line style="stroke:#000000;stroke-width:1.0;" x1="198" x2="198" y1="177.8438" y2="194.9375"/><line style="stroke:#000000;stroke-width:1.0;" x1="388" x2="388" y1="177.8438" y2="194.9375"/><line style="stroke:#000000;stroke-width:1.0;" x1="448" x2="448" y1="177.8438" y2="194.9375"/><line style="stroke:#000000;stroke-width:1.0;" x1="547" x2="547" y1="177.8438" y2="194.9375"/><line style="stroke:#000000;stroke-width:1.0;" x1="632" x2="632" y1="177.8438" y2="194.9375"/><line style="stroke:#000000;stroke-width:1.0;" x1="644" x2="644" y1="177.8438" y2="194.9375"/><line style="stroke:#000000;stroke-width:1.0;" x1="656" x2="656" y1="177.8438" y2="194.9375"/><line style="stroke:#000000;stroke-width:1.0;" x1="6" x2="6" y1="92.375" y2="109.4688"/><line style="stroke:#000000;stroke-width:1.0;" x1="35" x2="35" y1="92.375" y2="109.4688"/><line style="stroke:#000000;stroke-width:1.0;" x1="59" x2="59" y1="92.375" y2="109.4688"/><line style="stroke:#000000;stroke-width:1.0;" x1="198" x2="198" y1="92.375" y2="109.4688"/><line style="stroke:#000000;stroke-width:1.0;" x1="388" x2="388" y1="92.375" y2="109.4688"/><line style="stroke:#000000;stroke-width:1.0;" x1="448" x2="448" y1="92.375" y2="109.4688"/><line style="stroke:#000000;stroke-width:1.0;" x1="547" x2="547" y1="92.375" y2="109.4688"/><line style="stroke:#000000;stroke-width:1.0;" x1="632" x2="632" y1="92.375" y2="109.4688"/><line style="stroke:#000000;stroke-width:1.0;" x1="644" x2="644" y1="92.375" y2="109.4688"/><line style="stroke:#000000;stroke-width:1.0;" x1="656" x2="656" y1="92.375" y2="109.4688"/><line style="stroke:#000000;stroke-width:1.0;" x1="6" x2="6" y1="143.6563" y2="160.75"/><line style="stroke:#000000;stroke-width:1.0;" x1="35" x2="35" y1="143.6563" y2="160.75"/><line style="stroke:#000000;stroke-width:1.0;" x1="59" x2="59" y1="143.6563" y2="160.75"/><line style="stroke:#000000;stroke-width:1.0;" x1="198" x2="198" y1="143.6563" y2="160.75"/><line style="stroke:#000000;stroke-width:1.0;" x1="388" x2="388" y1="143.6563" y2="160.75"/><line style="stroke:#000000;stroke-width:1.0;" x1="448" x2="448" y1="143.6563" y2="160.75"/><line style="stroke:#000000;stroke-width:1.0;" x1="547" x2="547" y1="143.6563" y2="160.75"/><line style="stroke:#000000;stroke-width:1.0;" x1="632" x2="632" y1="143.6563" y2="160.75"/><line style="stroke:#000000;stroke-width:1.0;" x1="644" x2="644" y1="143.6563" y2="160.75"/><line style="stroke:#000000;stroke-width:1.0;" x1="656" x2="656" y1="143.6563" y2="160.75"/><line style="stroke:#000000;stroke-width:1.0;" x1="6" x2="6" y1="109.4688" y2="126.5625"/><line style="stroke:#000000;stroke-width:1.0;" x1="35" x2="35" y1="109.4688" y2="126.5625"/><line style="stroke:#000000;stroke-width:1.0;" x1="59" x2="59" y1="109.4688" y2="126.5625"/><line style="stroke:#000000;stroke-width:1.0;" x1="198" x2="198" y1="109.4688" y2="126.5625"/><line style="stroke:#000000;stroke-width:1.0;" x1="388" x2="388" y1="109.4688" y2="126.5625"/><line style="stroke:#000000;stroke-width:1.0;" x1="448" x2="448" y1="109.4688" y2="126.5625"/><line style="stroke:#000000;stroke-width:1.0;" x1="547" x2="547" y1="109.4688" y2="126.5625"/><line style="stroke:#000000;stroke-width:1.0;" x1="632" x2="632" y1="109.4688" y2="126.5625"/><line style="stroke:#000000;stroke-width:1.0;" x1="644" x2="644" y1="109.4688" y2="126.5625"/><line style="stroke:#000000;stroke-width:1.0;" x1="656" x2="656" y1="109.4688" y2="126.5625"/><line style="stroke:#000000;stroke-width:1.0;" x1="6" x2="6" y1="160.75" y2="177.8438"/><line style="stroke:#000000;stroke-width:1.0;" x1="35" x2="35" y1="160.75" y2="177.8438"/><line style="stroke:#000000;stroke-width:1.0;" x1="59" x2="59" y1="160.75" y2="177.8438"/><line style="stroke:#000000;stroke-width:1.0;" x1="198" x2="198" y1="160.75" y2="177.8438"/><line style="stroke:#000000;stroke-width:1.0;" x1="388" x2="388" y1="160.75" y2="177.8438"/><line style="stroke:#000000;stroke-width:1.0;" x1="448" x2="448" y1="160.75" y2="177.8438"/><line style="stroke:#000000;stroke-width:1.0;" x1="547" x2="547" y1="160.75" y2="177.8438"/><line style="stroke:#000000;stroke-width:1.0;" x1="632" x2="632" y1="160.75" y2="177.8438"/><line style="stroke:#000000;stroke-width:1.0;" x1="644" x2="644" y1="160.75" y2="177.8438"/><line style="stroke:#000000;stroke-width:1.0;" x1="656" x2="656" y1="160.75" y2="177.8438"/><line style="stroke:#AAAAAA;stroke-width:1.0;" x1="6" x2="657" y1="200.4375" y2="200.4375"/><rect fill="#EEEEEE" height="19.0938" rx="5" ry="5" style="stroke:#000000;stroke-width:2.5;" width="52" x="9.5" y="208.4375"/><text fill="#000000" font-family="sans-serif" font-size="12" lengthAdjust="spacing" textLength="40" x="15.5" y="222.8945">Fermer</text><rect fill="#EEEEEE" height="19.0938" rx="5" ry="5" style="stroke:#000000;stroke-width:2.5;" width="92" x="68.5" y="208.4375"/><text fill="#000000" font-family="sans-serif" font-size="12" lengthAdjust="spacing" textLength="70" x="79.5" y="222.8945">Sauvegarder</text></g></svg>