<?xml version="1.0" encoding="us-ascii" standalone="no"?><svg xmlns="http://www.w3.org/2000/svg" xmlns:xlink="http://www.w3.org/1999/xlink" contentStyleType="text/css" height="296px" preserveAspectRatio="none" style="width:738px;height:296px;background:#FFFFFF;" version="1.1" viewBox="0 0 738 296" width="738px" zoomAndPan="magnify"><defs/><g><text fill="#000000" font-family="sans-serif" font-size="12" font-weight="bold" lengthAdjust="spacing" textLength="82" x="6" y="18.9492">Nouvelle vente</text><line style="stroke:#AAAAAA;stroke-width:1.0;" x1="6" x2="731" y1="27.4609" y2="27.4609"/><text fill="#000000" font-family="sans-serif" font-size="12" lengthAdjust="spacing" textLength="39" x="8" y="44.9102">D&#233;tails</text><line style="stroke:#000000;stroke-width:1.0;" x1="6" x2="6" y1="31.9609" y2="47.9219"/><line style="stroke:#000000;stroke-width:1.0;" x1="6" x2="50" y1="31.9609" y2="31.9609"/><line style="stroke:#000000;stroke-width:1.0;" x1="50" x2="50" y1="31.9609" y2="47.9219"/><line style="stroke:#000000;stroke-width:1.0;" x1="50" x2="60" y1="47.9219" y2="47.9219"/><text fill="#000000" font-family="sans-serif" font-size="12" font-weight="bold" lengthAdjust="spacing" textLength="97" x="65" y="44.9102">&#201;chantillonnages</text><line style="stroke:#000000;stroke-width:1.0;" x1="60" x2="60" y1="31.9609" y2="47.9219"/><line style="stroke:#000000;stroke-width:1.0;" x1="60" x2="165" y1="31.9609" y2="31.9609"/><line style="stroke:#000000;stroke-width:1.0;" x1="165" x2="165" y1="31.9609" y2="47.9219"/><line style="stroke:#000000;stroke-width:1.0;" x1="165" x2="175" y1="47.9219" y2="47.9219"/><line style="stroke:#AAAAAA;stroke-width:1.0;stroke-dasharray:1.0,2.0;" x1="6" x2="731" y1="53.4219" y2="53.4219"/><path d="M10,57.9219 L10,60.9219 L7,60.9219 L7,62.9219 L10,62.9219 L10,65.9219 L12,65.9219 L12,62.9219 L15,62.9219 L15,60.9219 L12,60.9219 L12,57.9219 L10,57.9219 " fill="#000000" style="stroke:;stroke-width:0.0;stroke-dasharray:;"/><text fill="#000000" font-family="sans-serif" font-size="12" lengthAdjust="spacing" textLength="7" x="7" y="99.832">#</text><text fill="#000000" font-family="sans-serif" font-size="12" lengthAdjust="spacing" textLength="39" x="32" y="99.832">Priorit&#233;</text><text fill="#000000" font-family="sans-serif" font-size="12" font-weight="bold" lengthAdjust="spacing" textLength="120" x="73" y="99.832">Esp&#232;ce commerciale</text><text fill="#000000" font-family="sans-serif" font-size="12" font-weight="bold" lengthAdjust="spacing" textLength="111" x="205" y="99.832">Esp&#232;ce scientifique</text><text fill="#000000" font-family="sans-serif" font-size="12" lengthAdjust="spacing" textLength="35" x="360" y="99.832">Navire</text><text fill="#000000" font-family="sans-serif" font-size="12" lengthAdjust="spacing" textLength="148" x="459" y="99.832">Raison de non observation</text><text fill="#000000" font-family="sans-serif" font-size="12" lengthAdjust="spacing" textLength="76" x="653" y="99.832">Commentaire</text><text fill="#000000" font-family="sans-serif" font-size="12" lengthAdjust="spacing" textLength="3" x="27" y="117.793">.</text><rect fill="none" height="10" style="stroke:#000000;stroke-width:1.5;" width="10" x="9" y="107.8242"/><polygon fill="#000000" points="10,110.8438,13,113.8438,20,104.8438,13,111.8438" style="stroke:#000000;stroke-width:1.5;"/><text fill="#000000" font-family="sans-serif" font-size="12" lengthAdjust="spacing" textLength="7" x="32" y="117.793">1</text><text fill="#000000" font-family="sans-serif" font-size="12" lengthAdjust="spacing" textLength="92" x="73" y="117.793">POL - Lieu jaune</text><text fill="#000000" font-family="sans-serif" font-size="12" lengthAdjust="spacing" textLength="152" x="205" y="117.793">POL - Pollachius pollachius</text><text fill="#000000" font-family="sans-serif" font-size="12" lengthAdjust="spacing" textLength="94" x="360" y="117.793">851751- Navire 1</text><text fill="#000000" font-family="sans-serif" font-size="12" lengthAdjust="spacing" textLength="3" x="27" y="135.7539">.</text><rect fill="none" height="10" style="stroke:#000000;stroke-width:1.5;" width="10" x="9" y="125.7852"/><polygon fill="#000000" points="10,128.8047,13,131.8047,20,122.8047,13,129.8047" style="stroke:#000000;stroke-width:1.5;"/><text fill="#000000" font-family="sans-serif" font-size="12" lengthAdjust="spacing" textLength="7" x="32" y="135.7539">2</text><text fill="#000000" font-family="sans-serif" font-size="12" lengthAdjust="spacing" textLength="85" x="73" y="135.7539">MNZ - Baudroie</text><text fill="#000000" font-family="sans-serif" font-size="12" lengthAdjust="spacing" textLength="97" x="360" y="135.7539">851751 - Navire 1</text><text fill="#000000" font-family="sans-serif" font-size="12" lengthAdjust="spacing" textLength="3" x="27" y="153.7148">.</text><rect fill="none" height="10" style="stroke:#000000;stroke-width:1.5;" width="10" x="9" y="143.7461"/><text fill="#000000" font-family="sans-serif" font-size="12" lengthAdjust="spacing" textLength="7" x="32" y="153.7148">3</text><text fill="#000000" font-family="sans-serif" font-size="12" lengthAdjust="spacing" textLength="130" x="73" y="153.7148">PIL - Sardine commune</text><text fill="#000000" font-family="sans-serif" font-size="12" lengthAdjust="spacing" textLength="132" x="205" y="153.7148">PIL - Sardina pilchardus</text><rect fill="#EEEEEE" height="18.9609" style="stroke:#000000;stroke-width:1.0;" width="191" x="459" y="140.7656"/><text fill="#000000" font-family="sans-serif" font-size="12" lengthAdjust="spacing" textLength="90" x="461" y="155.7148">Esp&#232;ce absente</text><line style="stroke:#000000;stroke-width:1.0;" x1="639" x2="639" y1="140.7656" y2="159.7266"/><polygon fill="#000000" points="642,146.7656,648,146.7656,645,154.7266" style="stroke:#000000;stroke-width:1.0;"/><text fill="#000000" font-family="sans-serif" font-size="12" lengthAdjust="spacing" textLength="3" x="27" y="175.6758">.</text><rect fill="none" height="10" style="stroke:#000000;stroke-width:1.5;" width="10" x="9" y="165.707"/><polygon fill="#000000" points="10,168.7266,13,171.7266,20,162.7266,13,169.7266" style="stroke:#000000;stroke-width:1.5;"/><text fill="#000000" font-family="sans-serif" font-size="12" lengthAdjust="spacing" textLength="7" x="32" y="175.6758">4</text><text fill="#000000" font-family="sans-serif" font-size="12" lengthAdjust="spacing" textLength="104" x="73" y="175.6758">NEP - Langoustine</text><text fill="#000000" font-family="sans-serif" font-size="12" lengthAdjust="spacing" textLength="153" x="205" y="175.6758">NEP - Nephrops norvegicus</text><text fill="#000000" font-family="sans-serif" font-size="12" lengthAdjust="spacing" textLength="97" x="360" y="175.6758">741541 - Navire 2</text><text fill="#000000" font-family="sans-serif" font-size="12" lengthAdjust="spacing" textLength="3" x="27" y="193.6367">.</text><rect fill="none" height="10" style="stroke:#000000;stroke-width:1.5;" width="10" x="9" y="183.668"/><text fill="#000000" font-family="sans-serif" font-size="12" lengthAdjust="spacing" textLength="7" x="32" y="193.6367">5</text><line style="stroke:#AAAAAA;stroke-width:1.0;stroke-dasharray:1.0,2.0;" x1="73" x2="204" y1="189.168" y2="189.168"/><line style="stroke:#000000;stroke-width:1.0;" x1="6" x2="31" y1="85.8828" y2="85.8828"/><line style="stroke:#000000;stroke-width:1.0;" x1="359" x2="458" y1="161.7266" y2="161.7266"/><line style="stroke:#000000;stroke-width:1.0;" x1="31" x2="72" y1="85.8828" y2="85.8828"/><line style="stroke:#000000;stroke-width:1.0;" x1="458" x2="652" y1="161.7266" y2="161.7266"/><line style="stroke:#000000;stroke-width:1.0;" x1="72" x2="204" y1="85.8828" y2="85.8828"/><line style="stroke:#000000;stroke-width:1.0;" x1="652" x2="730" y1="161.7266" y2="161.7266"/><line style="stroke:#000000;stroke-width:1.0;" x1="204" x2="359" y1="85.8828" y2="85.8828"/><line style="stroke:#000000;stroke-width:1.0;" x1="359" x2="458" y1="85.8828" y2="85.8828"/><line style="stroke:#000000;stroke-width:1.0;" x1="458" x2="652" y1="85.8828" y2="85.8828"/><line style="stroke:#000000;stroke-width:1.0;" x1="652" x2="730" y1="85.8828" y2="85.8828"/><line style="stroke:#000000;stroke-width:1.0;" x1="6" x2="31" y1="139.7656" y2="139.7656"/><line style="stroke:#000000;stroke-width:1.0;" x1="31" x2="72" y1="139.7656" y2="139.7656"/><line style="stroke:#000000;stroke-width:1.0;" x1="72" x2="204" y1="139.7656" y2="139.7656"/><line style="stroke:#000000;stroke-width:1.0;" x1="204" x2="359" y1="139.7656" y2="139.7656"/><line style="stroke:#000000;stroke-width:1.0;" x1="359" x2="458" y1="139.7656" y2="139.7656"/><line style="stroke:#000000;stroke-width:1.0;" x1="458" x2="652" y1="139.7656" y2="139.7656"/><line style="stroke:#000000;stroke-width:1.0;" x1="652" x2="730" y1="139.7656" y2="139.7656"/><line style="stroke:#000000;stroke-width:1.0;" x1="6" x2="31" y1="197.6484" y2="197.6484"/><line style="stroke:#000000;stroke-width:1.0;" x1="31" x2="72" y1="197.6484" y2="197.6484"/><line style="stroke:#000000;stroke-width:1.0;" x1="72" x2="204" y1="197.6484" y2="197.6484"/><line style="stroke:#000000;stroke-width:1.0;" x1="204" x2="359" y1="197.6484" y2="197.6484"/><line style="stroke:#000000;stroke-width:1.0;" x1="359" x2="458" y1="197.6484" y2="197.6484"/><line style="stroke:#000000;stroke-width:1.0;" x1="6" x2="31" y1="121.8047" y2="121.8047"/><line style="stroke:#000000;stroke-width:1.0;" x1="458" x2="652" y1="197.6484" y2="197.6484"/><line style="stroke:#000000;stroke-width:1.0;" x1="31" x2="72" y1="121.8047" y2="121.8047"/><line style="stroke:#000000;stroke-width:1.0;" x1="652" x2="730" y1="197.6484" y2="197.6484"/><line style="stroke:#000000;stroke-width:1.0;" x1="72" x2="204" y1="121.8047" y2="121.8047"/><line style="stroke:#000000;stroke-width:1.0;" x1="204" x2="359" y1="121.8047" y2="121.8047"/><line style="stroke:#000000;stroke-width:1.0;" x1="359" x2="458" y1="121.8047" y2="121.8047"/><line style="stroke:#000000;stroke-width:1.0;" x1="458" x2="652" y1="121.8047" y2="121.8047"/><line style="stroke:#000000;stroke-width:1.0;" x1="6" x2="31" y1="179.6875" y2="179.6875"/><line style="stroke:#000000;stroke-width:1.0;" x1="31" x2="72" y1="179.6875" y2="179.6875"/><line style="stroke:#000000;stroke-width:1.0;" x1="72" x2="204" y1="179.6875" y2="179.6875"/><line style="stroke:#000000;stroke-width:1.0;" x1="204" x2="359" y1="179.6875" y2="179.6875"/><line style="stroke:#000000;stroke-width:1.0;" x1="6" x2="31" y1="103.8438" y2="103.8438"/><line style="stroke:#000000;stroke-width:1.0;" x1="359" x2="458" y1="179.6875" y2="179.6875"/><line style="stroke:#000000;stroke-width:1.0;" x1="31" x2="72" y1="103.8438" y2="103.8438"/><line style="stroke:#000000;stroke-width:1.0;" x1="458" x2="652" y1="179.6875" y2="179.6875"/><line style="stroke:#000000;stroke-width:1.0;" x1="72" x2="204" y1="103.8438" y2="103.8438"/><line style="stroke:#000000;stroke-width:1.0;" x1="652" x2="730" y1="179.6875" y2="179.6875"/><line style="stroke:#000000;stroke-width:1.0;" x1="204" x2="359" y1="103.8438" y2="103.8438"/><line style="stroke:#000000;stroke-width:1.0;" x1="359" x2="458" y1="103.8438" y2="103.8438"/><line style="stroke:#000000;stroke-width:1.0;" x1="458" x2="652" y1="103.8438" y2="103.8438"/><line style="stroke:#000000;stroke-width:1.0;" x1="652" x2="730" y1="103.8438" y2="103.8438"/><line style="stroke:#000000;stroke-width:1.0;" x1="6" x2="31" y1="161.7266" y2="161.7266"/><line style="stroke:#000000;stroke-width:1.0;" x1="31" x2="72" y1="161.7266" y2="161.7266"/><line style="stroke:#000000;stroke-width:1.0;" x1="72" x2="204" y1="161.7266" y2="161.7266"/><line style="stroke:#000000;stroke-width:1.0;" x1="204" x2="359" y1="161.7266" y2="161.7266"/><line style="stroke:#000000;stroke-width:1.0;" x1="6" x2="6" y1="85.8828" y2="103.8438"/><line style="stroke:#000000;stroke-width:1.0;" x1="359" x2="359" y1="161.7266" y2="179.6875"/><line style="stroke:#000000;stroke-width:1.0;" x1="31" x2="31" y1="85.8828" y2="103.8438"/><line style="stroke:#000000;stroke-width:1.0;" x1="458" x2="458" y1="161.7266" y2="179.6875"/><line style="stroke:#000000;stroke-width:1.0;" x1="72" x2="72" y1="85.8828" y2="103.8438"/><line style="stroke:#000000;stroke-width:1.0;" x1="652" x2="652" y1="161.7266" y2="179.6875"/><line style="stroke:#000000;stroke-width:1.0;" x1="730" x2="730" y1="161.7266" y2="179.6875"/><line style="stroke:#000000;stroke-width:1.0;" x1="204" x2="204" y1="85.8828" y2="103.8438"/><line style="stroke:#000000;stroke-width:1.0;" x1="359" x2="359" y1="85.8828" y2="103.8438"/><line style="stroke:#000000;stroke-width:1.0;" x1="458" x2="458" y1="85.8828" y2="103.8438"/><line style="stroke:#000000;stroke-width:1.0;" x1="652" x2="652" y1="85.8828" y2="103.8438"/><line style="stroke:#000000;stroke-width:1.0;" x1="730" x2="730" y1="85.8828" y2="103.8438"/><line style="stroke:#000000;stroke-width:1.0;" x1="6" x2="6" y1="139.7656" y2="161.7266"/><line style="stroke:#000000;stroke-width:1.0;" x1="31" x2="31" y1="139.7656" y2="161.7266"/><line style="stroke:#000000;stroke-width:1.0;" x1="72" x2="72" y1="139.7656" y2="161.7266"/><line style="stroke:#000000;stroke-width:1.0;" x1="204" x2="204" y1="139.7656" y2="161.7266"/><line style="stroke:#000000;stroke-width:1.0;" x1="359" x2="359" y1="139.7656" y2="161.7266"/><line style="stroke:#000000;stroke-width:1.0;" x1="458" x2="458" y1="139.7656" y2="161.7266"/><line style="stroke:#000000;stroke-width:1.0;" x1="652" x2="652" y1="139.7656" y2="161.7266"/><line style="stroke:#000000;stroke-width:1.0;" x1="730" x2="730" y1="139.7656" y2="161.7266"/><line style="stroke:#000000;stroke-width:1.0;" x1="6" x2="6" y1="121.8047" y2="139.7656"/><line style="stroke:#000000;stroke-width:1.0;" x1="31" x2="31" y1="121.8047" y2="139.7656"/><line style="stroke:#000000;stroke-width:1.0;" x1="72" x2="72" y1="121.8047" y2="139.7656"/><line style="stroke:#000000;stroke-width:1.0;" x1="204" x2="204" y1="121.8047" y2="139.7656"/><line style="stroke:#000000;stroke-width:1.0;" x1="359" x2="359" y1="121.8047" y2="139.7656"/><line style="stroke:#000000;stroke-width:1.0;" x1="458" x2="458" y1="121.8047" y2="139.7656"/><line style="stroke:#000000;stroke-width:1.0;" x1="652" x2="652" y1="121.8047" y2="139.7656"/><line style="stroke:#000000;stroke-width:1.0;" x1="730" x2="730" y1="121.8047" y2="139.7656"/><line style="stroke:#000000;stroke-width:1.0;" x1="6" x2="6" y1="179.6875" y2="197.6484"/><line style="stroke:#000000;stroke-width:1.0;" x1="31" x2="31" y1="179.6875" y2="197.6484"/><line style="stroke:#000000;stroke-width:1.0;" x1="72" x2="72" y1="179.6875" y2="197.6484"/><line style="stroke:#000000;stroke-width:1.0;" x1="204" x2="204" y1="179.6875" y2="197.6484"/><line style="stroke:#000000;stroke-width:1.0;" x1="6" x2="6" y1="103.8438" y2="121.8047"/><line style="stroke:#000000;stroke-width:1.0;" x1="359" x2="359" y1="179.6875" y2="197.6484"/><line style="stroke:#000000;stroke-width:1.0;" x1="31" x2="31" y1="103.8438" y2="121.8047"/><line style="stroke:#000000;stroke-width:1.0;" x1="458" x2="458" y1="179.6875" y2="197.6484"/><line style="stroke:#000000;stroke-width:1.0;" x1="72" x2="72" y1="103.8438" y2="121.8047"/><line style="stroke:#000000;stroke-width:1.0;" x1="652" x2="652" y1="179.6875" y2="197.6484"/><line style="stroke:#000000;stroke-width:1.0;" x1="730" x2="730" y1="179.6875" y2="197.6484"/><line style="stroke:#000000;stroke-width:1.0;" x1="204" x2="204" y1="103.8438" y2="121.8047"/><line style="stroke:#000000;stroke-width:1.0;" x1="359" x2="359" y1="103.8438" y2="121.8047"/><line style="stroke:#000000;stroke-width:1.0;" x1="458" x2="458" y1="103.8438" y2="121.8047"/><line style="stroke:#000000;stroke-width:1.0;" x1="652" x2="652" y1="103.8438" y2="121.8047"/><line style="stroke:#000000;stroke-width:1.0;" x1="730" x2="730" y1="103.8438" y2="121.8047"/><line style="stroke:#000000;stroke-width:1.0;" x1="6" x2="6" y1="161.7266" y2="179.6875"/><line style="stroke:#000000;stroke-width:1.0;" x1="31" x2="31" y1="161.7266" y2="179.6875"/><line style="stroke:#000000;stroke-width:1.0;" x1="72" x2="72" y1="161.7266" y2="179.6875"/><line style="stroke:#000000;stroke-width:1.0;" x1="204" x2="204" y1="161.7266" y2="179.6875"/><text fill="#000000" font-family="sans-serif" font-size="12" lengthAdjust="spacing" textLength="331" x="7" y="213.5977">15 esp&#232;ces minimales observ&#233;es (justifiez si non observ&#233;e)</text><text fill="#000000" font-family="sans-serif" font-size="12" lengthAdjust="spacing" textLength="102" x="7" y="233.5586">(max: 30 esp&#232;ces)</text><text fill="#000000" font-family="sans-serif" font-size="12" lengthAdjust="spacing" textLength="326" x="7" y="253.5195">ATTENTION: une m&#234;me esp&#232;ce peut-&#234;tre tir&#233; plusieurs fois</text><line style="stroke:#AAAAAA;stroke-width:1.0;" x1="6" x2="731" y1="263.0313" y2="263.0313"/><rect fill="#EEEEEE" height="19.9609" rx="5" ry="5" style="stroke:#000000;stroke-width:2.5;" width="52" x="9.5" y="271.0313"/><text fill="#000000" font-family="sans-serif" font-size="12" lengthAdjust="spacing" textLength="40" x="15.5" y="285.9805">Fermer</text><rect fill="#EEEEEE" height="19.9609" rx="5" ry="5" style="stroke:#000000;stroke-width:2.5;" width="92" x="68.5" y="271.0313"/><text fill="#000000" font-family="sans-serif" font-size="12" lengthAdjust="spacing" textLength="70" x="79.5" y="285.9805">Sauvegarder</text><!--SRC=[RLDjJjj04FtTFSL8I5Nu4JTsuj9Q5Q8aeO8c8I8fgef0MfnD66Jlcls8sYOSe3SfNCCNwwoJG8gmP7jtFjw-cNrpO2pNrl3CiWK3-7IzFr1kBh9Cm5n8AyXMhzDdyGwWKpvOZfc1fO-3yazwmwN5B5DIyfamS4-1GU1XtXQPC_j-ozuiTXWj_BD3cKEDIgCj7rOeNLEKVrC1gSfpeLFaTF1_3fCYyS0ftZa1syyI1doEseUVSJHAmaI0f9-wDaBFkKLQBw7jWINnrcBDukBx9GJa2JsRqnxKeOV2mIrtKZoPXYhBU7g3pa3nl5p2XpZSYyFwvcoF4Rp0ZUZj3tuGo25t4wtGemPFkV1wCgoIcvx1iMSmudg2SjMPDRCjEuS2C-g_dbIqVEeLR7h6gGDqT-j6NRt2iUNRrntwshcSAMSiLaUiR0DHt6XL66gddeiPfdI6R_XUAunRMmL4wvDV5X5xMn1il5L45N9VVHSGnY1MN0taA36dQpVhYoiVQ5cxzPIcA7w3mQrR9USkeQnXQZd_cK2pyGIsvViy7dS7u-FJGGA-Utdvc8jD71J2sNhvQAa6YvgqwELA8j06fWfNGYRPUwn5XNTn93Jfyv9AkHXn6f0PTPxspDTqpmw4d5Gpn8OPZSItVe-cHnklm3286b4p29krFkqw8eKmXF1Z4ZMIU0_QtJ5u_owhVHdsm2YdYTu4ZTLuxRo4Tza9dtCuSpG4kKZWj13ofFDrOu2kfAjGqckSdPptdmFUj-g7Q654NHCQplki8wRSPPOoKaKAcYNGBi8eZfYNWAC1Jc2gMLiHiFwLmD7PFm00]--></g></svg>