<?xml version="1.0" encoding="us-ascii" standalone="no"?><svg xmlns="http://www.w3.org/2000/svg" xmlns:xlink="http://www.w3.org/1999/xlink" contentStyleType="text/css" height="271px" preserveAspectRatio="none" style="width:813px;height:271px;background:#FFFFFF;" version="1.1" viewBox="0 0 813 271" width="813px" zoomAndPan="magnify"><defs/><g><text fill="#000000" font-family="sans-serif" font-size="12" font-weight="bold" lengthAdjust="spacing" textLength="140" x="6" y="18.457">Douarnenez - 08/02/2022</text><line style="stroke:#AAAAAA;stroke-width:1.0;" x1="6" x2="806" y1="26.5938" y2="26.5938"/><text fill="#000000" font-family="sans-serif" font-size="12" lengthAdjust="spacing" textLength="39" x="8" y="43.5508">D&#233;tails</text><line style="stroke:#000000;stroke-width:1.0;" x1="6" x2="6" y1="31.0938" y2="46.1875"/><line style="stroke:#000000;stroke-width:1.0;" x1="6" x2="50" y1="31.0938" y2="31.0938"/><line style="stroke:#000000;stroke-width:1.0;" x1="50" x2="50" y1="31.0938" y2="46.1875"/><line style="stroke:#000000;stroke-width:1.0;" x1="50" x2="60" y1="46.1875" y2="46.1875"/><text fill="#000000" font-family="sans-serif" font-size="12" font-weight="bold" lengthAdjust="spacing" textLength="97" x="65" y="43.5508">&#201;chantillonnages</text><line style="stroke:#000000;stroke-width:1.0;" x1="60" x2="60" y1="31.0938" y2="46.1875"/><line style="stroke:#000000;stroke-width:1.0;" x1="60" x2="165" y1="31.0938" y2="31.0938"/><line style="stroke:#000000;stroke-width:1.0;" x1="165" x2="165" y1="31.0938" y2="46.1875"/><line style="stroke:#000000;stroke-width:1.0;" x1="165" x2="175" y1="46.1875" y2="46.1875"/><line style="stroke:#AAAAAA;stroke-width:1.0;stroke-dasharray:1.0,2.0;" x1="6" x2="806" y1="51.6875" y2="51.6875"/><text fill="#000000" font-family="sans-serif" font-size="12" lengthAdjust="spacing" textLength="81" x="7" y="69.6445">Type de vente :</text><rect fill="#EEEEEE" height="18.0938" style="stroke:#000000;stroke-width:1.0;" width="199" x="95" y="57.1875"/><text fill="#000000" font-family="sans-serif" font-size="12" lengthAdjust="spacing" textLength="134" x="97" y="71.6445">Ench&#232;res - HAM / Cri&#233;es</text><line style="stroke:#000000;stroke-width:1.0;" x1="283" x2="283" y1="57.1875" y2="75.2813"/><polygon fill="#000000" points="286,63.1875,292,63.1875,289,70.2813" style="stroke:#000000;stroke-width:1.0;"/><rect fill="#EEEEEE" height="19.0938" rx="5" ry="5" style="stroke:#000000;stroke-width:2.5;" width="76" x="304.5" y="59.6875"/><text fill="#000000" font-family="sans-serif" font-size="12" lengthAdjust="spacing" textLength="52" x="316.5" y="74.1445">Appliquer</text><text fill="#000000" font-family="sans-serif" font-size="12" font-weight="bold" lengthAdjust="spacing" textLength="120" x="7" y="114.832">Esp&#232;ce commerciale</text><text fill="#000000" font-family="sans-serif" font-size="12" font-weight="bold" lengthAdjust="spacing" textLength="111" x="146" y="114.832">Esp&#232;ce scientifique</text><text fill="#000000" font-family="sans-serif" font-size="12" font-weight="bold" lengthAdjust="spacing" textLength="58" x="336" y="114.832">Observ&#233; ?</text><text fill="#000000" font-family="sans-serif" font-size="12" font-weight="bold" lengthAdjust="spacing" textLength="36" x="396" y="114.832">Navire</text><text fill="#000000" font-family="sans-serif" font-size="12" font-weight="bold" lengthAdjust="spacing" textLength="83" x="495" y="114.832">Zone de p&#234;che</text><text fill="#000000" font-family="sans-serif" font-size="12" font-weight="bold" lengthAdjust="spacing" textLength="78" x="580" y="114.832">Type de vente</text><text fill="#000000" font-family="sans-serif" font-size="12" lengthAdjust="spacing" textLength="127" x="7" y="131.9258">BET - Thunnus obesus</text><text fill="#000000" font-family="sans-serif" font-size="12" lengthAdjust="spacing" textLength="153" x="146" y="131.9258">BET - Thon ob&#232;se(=Patudo)</text><text fill="#000000" font-family="sans-serif" font-size="12" lengthAdjust="spacing" textLength="3" x="356" y="131.9258">.</text><rect fill="none" height="10" style="stroke:#000000;stroke-width:1.5;" width="10" x="338" y="122.0156"/><polygon fill="#000000" points="339,125.4688,342,128.4688,349,119.4688,342,126.4688" style="stroke:#000000;stroke-width:1.5;"/><text fill="#000000" font-family="sans-serif" font-size="12" lengthAdjust="spacing" textLength="97" x="396" y="131.9258">123456 - Navire 1</text><text fill="#000000" font-family="sans-serif" font-size="12" lengthAdjust="spacing" textLength="38" x="495" y="131.9258">Zone 1</text><rect fill="#EEEEEE" height="18.0938" style="stroke:#000000;stroke-width:1.0;" width="199" x="580" y="119.4688"/><text fill="#000000" font-family="sans-serif" font-size="12" lengthAdjust="spacing" textLength="134" x="582" y="133.9258">Ench&#232;res - HAM / Cri&#233;es</text><line style="stroke:#000000;stroke-width:1.0;" x1="768" x2="768" y1="119.4688" y2="137.5625"/><polygon fill="#000000" points="771,125.4688,777,125.4688,774,132.5625" style="stroke:#000000;stroke-width:1.0;"/><path d="M795,119.4688 L795,122.4688 L800,127.4688 L803,124.4688 L798,119.4688 L795,119.4688 M797,120.4688 C797.55,120.4688 798,120.9188 798,121.4688 C798,122.0188 797.55,122.4688 797,122.4688 C796.45,122.4688 796,122.0188 796,121.4688 C796,120.9188 796.45,120.4688 797,120.4688 " fill="#000000" style="stroke:;stroke-width:0.0;stroke-dasharray:;"/><text fill="#000000" font-family="sans-serif" font-size="12" lengthAdjust="spacing" textLength="127" x="7" y="153.0195">BFT - Thunnus thynnus</text><text fill="#000000" font-family="sans-serif" font-size="12" lengthAdjust="spacing" textLength="174" x="146" y="153.0195">BFT - Thon rouge de l'Atlantique</text><text fill="#000000" font-family="sans-serif" font-size="12" lengthAdjust="spacing" textLength="3" x="356" y="153.0195">.</text><rect fill="none" height="10" style="stroke:#000000;stroke-width:1.5;" width="10" x="338" y="143.1094"/><polygon fill="#000000" points="339,146.5625,342,149.5625,349,140.5625,342,147.5625" style="stroke:#000000;stroke-width:1.5;"/><text fill="#000000" font-family="sans-serif" font-size="12" lengthAdjust="spacing" textLength="97" x="396" y="153.0195">123456 - Navire 1</text><text fill="#000000" font-family="sans-serif" font-size="12" lengthAdjust="spacing" textLength="38" x="495" y="153.0195">Zone 2</text><rect fill="#EEEEEE" height="18.0938" style="stroke:#000000;stroke-width:1.0;" width="199" x="580" y="140.5625"/><text fill="#000000" font-family="sans-serif" font-size="12" lengthAdjust="spacing" textLength="134" x="582" y="155.0195">Ench&#232;res - HAM / Cri&#233;es</text><line style="stroke:#000000;stroke-width:1.0;" x1="768" x2="768" y1="140.5625" y2="158.6563"/><polygon fill="#000000" points="771,146.5625,777,146.5625,774,153.6563" style="stroke:#000000;stroke-width:1.0;"/><path d="M783.09,140.5625 C783.03,140.5625 783,140.6025 783,140.6525 L783,146.4625 C783,146.5125 783.04,146.5525 783.09,146.5525 L789,146.5525 L791,148.5525 L791,140.6425 C791,140.5825 790.96,140.5525 790.91,140.5525 L783.1,140.5525 " fill="#000000" style="stroke:;stroke-width:0.0;stroke-dasharray:;"/><path d="M795,140.5625 L795,143.5625 L800,148.5625 L803,145.5625 L798,140.5625 L795,140.5625 M797,141.5625 C797.55,141.5625 798,142.0125 798,142.5625 C798,143.1125 797.55,143.5625 797,143.5625 C796.45,143.5625 796,143.1125 796,142.5625 C796,142.0125 796.45,141.5625 797,141.5625 " fill="#000000" style="stroke:;stroke-width:0.0;stroke-dasharray:;"/><text fill="#000000" font-family="sans-serif" font-size="12" lengthAdjust="spacing" textLength="100" x="7" y="174.1133">BIL - Istiophoridae</text><text fill="#000000" font-family="sans-serif" font-size="12" lengthAdjust="spacing" textLength="188" x="146" y="174.1133">BIL - Makaires,marlins,voiliers nca</text><text fill="#000000" font-family="sans-serif" font-size="12" lengthAdjust="spacing" textLength="3" x="356" y="174.1133">.</text><rect fill="none" height="10" style="stroke:#000000;stroke-width:1.5;" width="10" x="338" y="164.2031"/><path d="M795,161.6563 L795,164.6563 L800,169.6563 L803,166.6563 L798,161.6563 L795,161.6563 M797,162.6563 C797.55,162.6563 798,163.1063 798,163.6563 C798,164.2063 797.55,164.6563 797,164.6563 C796.45,164.6563 796,164.2063 796,163.6563 C796,163.1063 796.45,162.6563 797,162.6563 " fill="#000000" style="stroke:;stroke-width:0.0;stroke-dasharray:;"/><text fill="#000000" font-family="sans-serif" font-size="12" lengthAdjust="spacing" textLength="137" x="7" y="191.207">BLF - Thunnus atlanticus</text><text fill="#000000" font-family="sans-serif" font-size="12" lengthAdjust="spacing" textLength="167" x="146" y="191.207">BLF - Thon &#224; nageoires noires</text><text fill="#000000" font-family="sans-serif" font-size="12" lengthAdjust="spacing" textLength="3" x="356" y="191.207">.</text><rect fill="none" height="10" style="stroke:#000000;stroke-width:1.5;" width="10" x="338" y="181.2969"/><polygon fill="#000000" points="339,184.75,342,187.75,349,178.75,342,185.75" style="stroke:#000000;stroke-width:1.5;"/><text fill="#000000" font-family="sans-serif" font-size="12" lengthAdjust="spacing" textLength="97" x="396" y="191.207">456789 - Navire 2</text><text fill="#000000" font-family="sans-serif" font-size="12" lengthAdjust="spacing" textLength="38" x="495" y="191.207">Zone 1</text><rect fill="#EEEEEE" height="18.0938" style="stroke:#000000;stroke-width:1.0;" width="199" x="580" y="178.75"/><text fill="#000000" font-family="sans-serif" font-size="12" lengthAdjust="spacing" textLength="134" x="582" y="193.207">Ench&#232;res - HAM / Cri&#233;es</text><line style="stroke:#000000;stroke-width:1.0;" x1="768" x2="768" y1="178.75" y2="196.8438"/><polygon fill="#000000" points="771,184.75,777,184.75,774,191.8438" style="stroke:#000000;stroke-width:1.0;"/><path d="M783.09,178.75 C783.03,178.75 783,178.79 783,178.84 L783,184.65 C783,184.7 783.04,184.74 783.09,184.74 L789,184.74 L791,186.74 L791,178.83 C791,178.77 790.96,178.74 790.91,178.74 L783.1,178.74 " fill="#000000" style="stroke:;stroke-width:0.0;stroke-dasharray:;"/><path d="M795,178.75 L795,181.75 L800,186.75 L803,183.75 L798,178.75 L795,178.75 M797,179.75 C797.55,179.75 798,180.2 798,180.75 C798,181.3 797.55,181.75 797,181.75 C796.45,181.75 796,181.3 796,180.75 C796,180.2 796.45,179.75 797,179.75 " fill="#000000" style="stroke:;stroke-width:0.0;stroke-dasharray:;"/><text fill="#000000" font-family="sans-serif" font-size="12" lengthAdjust="spacing" textLength="98" x="7" y="212.3008">BLT - Auxis rochei</text><text fill="#000000" font-family="sans-serif" font-size="12" lengthAdjust="spacing" textLength="74" x="146" y="212.3008">BLT - Bonitou</text><text fill="#000000" font-family="sans-serif" font-size="12" lengthAdjust="spacing" textLength="3" x="356" y="212.3008">.</text><rect fill="none" height="10" style="stroke:#000000;stroke-width:1.5;" width="10" x="338" y="202.3906"/><line style="stroke:#AAAAAA;stroke-width:1.0;stroke-dasharray:1.0,2.0;" x1="7" x2="145" y1="224.9844" y2="224.9844"/><text fill="#000000" font-family="sans-serif" font-size="12" lengthAdjust="spacing" textLength="3" x="356" y="229.3945">.</text><rect fill="none" height="10" style="stroke:#000000;stroke-width:1.5;" width="10" x="338" y="219.4844"/><line style="stroke:#000000;stroke-width:1.0;" x1="6" x2="145" y1="101.375" y2="101.375"/><line style="stroke:#000000;stroke-width:1.0;" x1="145" x2="335" y1="101.375" y2="101.375"/><line style="stroke:#000000;stroke-width:1.0;" x1="335" x2="395" y1="101.375" y2="101.375"/><line style="stroke:#000000;stroke-width:1.0;" x1="395" x2="494" y1="101.375" y2="101.375"/><line style="stroke:#000000;stroke-width:1.0;" x1="494" x2="579" y1="101.375" y2="101.375"/><line style="stroke:#000000;stroke-width:1.0;" x1="579" x2="781" y1="101.375" y2="101.375"/><line style="stroke:#000000;stroke-width:1.0;" x1="781" x2="793" y1="101.375" y2="101.375"/><line style="stroke:#000000;stroke-width:1.0;" x1="793" x2="805" y1="101.375" y2="101.375"/><line style="stroke:#000000;stroke-width:1.0;" x1="6" x2="145" y1="160.6563" y2="160.6563"/><line style="stroke:#000000;stroke-width:1.0;" x1="145" x2="335" y1="160.6563" y2="160.6563"/><line style="stroke:#000000;stroke-width:1.0;" x1="335" x2="395" y1="160.6563" y2="160.6563"/><line style="stroke:#000000;stroke-width:1.0;" x1="395" x2="494" y1="160.6563" y2="160.6563"/><line style="stroke:#000000;stroke-width:1.0;" x1="494" x2="579" y1="160.6563" y2="160.6563"/><line style="stroke:#000000;stroke-width:1.0;" x1="579" x2="781" y1="160.6563" y2="160.6563"/><line style="stroke:#000000;stroke-width:1.0;" x1="781" x2="793" y1="160.6563" y2="160.6563"/><line style="stroke:#000000;stroke-width:1.0;" x1="793" x2="805" y1="160.6563" y2="160.6563"/><line style="stroke:#000000;stroke-width:1.0;" x1="6" x2="145" y1="215.9375" y2="215.9375"/><line style="stroke:#000000;stroke-width:1.0;" x1="145" x2="335" y1="215.9375" y2="215.9375"/><line style="stroke:#000000;stroke-width:1.0;" x1="335" x2="395" y1="215.9375" y2="215.9375"/><line style="stroke:#000000;stroke-width:1.0;" x1="395" x2="494" y1="215.9375" y2="215.9375"/><line style="stroke:#000000;stroke-width:1.0;" x1="494" x2="579" y1="215.9375" y2="215.9375"/><line style="stroke:#000000;stroke-width:1.0;" x1="579" x2="781" y1="215.9375" y2="215.9375"/><line style="stroke:#000000;stroke-width:1.0;" x1="781" x2="793" y1="215.9375" y2="215.9375"/><line style="stroke:#000000;stroke-width:1.0;" x1="793" x2="805" y1="215.9375" y2="215.9375"/><line style="stroke:#000000;stroke-width:1.0;" x1="6" x2="145" y1="118.4688" y2="118.4688"/><line style="stroke:#000000;stroke-width:1.0;" x1="145" x2="335" y1="118.4688" y2="118.4688"/><line style="stroke:#000000;stroke-width:1.0;" x1="335" x2="395" y1="118.4688" y2="118.4688"/><line style="stroke:#000000;stroke-width:1.0;" x1="395" x2="494" y1="118.4688" y2="118.4688"/><line style="stroke:#000000;stroke-width:1.0;" x1="494" x2="579" y1="118.4688" y2="118.4688"/><line style="stroke:#000000;stroke-width:1.0;" x1="579" x2="781" y1="118.4688" y2="118.4688"/><line style="stroke:#000000;stroke-width:1.0;" x1="781" x2="793" y1="118.4688" y2="118.4688"/><line style="stroke:#000000;stroke-width:1.0;" x1="793" x2="805" y1="118.4688" y2="118.4688"/><line style="stroke:#000000;stroke-width:1.0;" x1="6" x2="145" y1="177.75" y2="177.75"/><line style="stroke:#000000;stroke-width:1.0;" x1="145" x2="335" y1="177.75" y2="177.75"/><line style="stroke:#000000;stroke-width:1.0;" x1="335" x2="395" y1="177.75" y2="177.75"/><line style="stroke:#000000;stroke-width:1.0;" x1="395" x2="494" y1="177.75" y2="177.75"/><line style="stroke:#000000;stroke-width:1.0;" x1="494" x2="579" y1="177.75" y2="177.75"/><line style="stroke:#000000;stroke-width:1.0;" x1="579" x2="781" y1="177.75" y2="177.75"/><line style="stroke:#000000;stroke-width:1.0;" x1="781" x2="793" y1="177.75" y2="177.75"/><line style="stroke:#000000;stroke-width:1.0;" x1="793" x2="805" y1="177.75" y2="177.75"/><line style="stroke:#000000;stroke-width:1.0;" x1="6" x2="145" y1="233.0313" y2="233.0313"/><line style="stroke:#000000;stroke-width:1.0;" x1="145" x2="335" y1="233.0313" y2="233.0313"/><line style="stroke:#000000;stroke-width:1.0;" x1="335" x2="395" y1="233.0313" y2="233.0313"/><line style="stroke:#000000;stroke-width:1.0;" x1="395" x2="494" y1="233.0313" y2="233.0313"/><line style="stroke:#000000;stroke-width:1.0;" x1="494" x2="579" y1="233.0313" y2="233.0313"/><line style="stroke:#000000;stroke-width:1.0;" x1="579" x2="781" y1="233.0313" y2="233.0313"/><line style="stroke:#000000;stroke-width:1.0;" x1="781" x2="793" y1="233.0313" y2="233.0313"/><line style="stroke:#000000;stroke-width:1.0;" x1="793" x2="805" y1="233.0313" y2="233.0313"/><line style="stroke:#000000;stroke-width:1.0;" x1="6" x2="145" y1="139.5625" y2="139.5625"/><line style="stroke:#000000;stroke-width:1.0;" x1="145" x2="335" y1="139.5625" y2="139.5625"/><line style="stroke:#000000;stroke-width:1.0;" x1="335" x2="395" y1="139.5625" y2="139.5625"/><line style="stroke:#000000;stroke-width:1.0;" x1="395" x2="494" y1="139.5625" y2="139.5625"/><line style="stroke:#000000;stroke-width:1.0;" x1="494" x2="579" y1="139.5625" y2="139.5625"/><line style="stroke:#000000;stroke-width:1.0;" x1="579" x2="781" y1="139.5625" y2="139.5625"/><line style="stroke:#000000;stroke-width:1.0;" x1="781" x2="793" y1="139.5625" y2="139.5625"/><line style="stroke:#000000;stroke-width:1.0;" x1="793" x2="805" y1="139.5625" y2="139.5625"/><line style="stroke:#000000;stroke-width:1.0;" x1="6" x2="145" y1="198.8438" y2="198.8438"/><line style="stroke:#000000;stroke-width:1.0;" x1="145" x2="335" y1="198.8438" y2="198.8438"/><line style="stroke:#000000;stroke-width:1.0;" x1="335" x2="395" y1="198.8438" y2="198.8438"/><line style="stroke:#000000;stroke-width:1.0;" x1="395" x2="494" y1="198.8438" y2="198.8438"/><line style="stroke:#000000;stroke-width:1.0;" x1="494" x2="579" y1="198.8438" y2="198.8438"/><line style="stroke:#000000;stroke-width:1.0;" x1="579" x2="781" y1="198.8438" y2="198.8438"/><line style="stroke:#000000;stroke-width:1.0;" x1="781" x2="793" y1="198.8438" y2="198.8438"/><line style="stroke:#000000;stroke-width:1.0;" x1="793" x2="805" y1="198.8438" y2="198.8438"/><line style="stroke:#000000;stroke-width:1.0;" x1="6" x2="6" y1="101.375" y2="118.4688"/><line style="stroke:#000000;stroke-width:1.0;" x1="145" x2="145" y1="101.375" y2="118.4688"/><line style="stroke:#000000;stroke-width:1.0;" x1="335" x2="335" y1="101.375" y2="118.4688"/><line style="stroke:#000000;stroke-width:1.0;" x1="395" x2="395" y1="101.375" y2="118.4688"/><line style="stroke:#000000;stroke-width:1.0;" x1="494" x2="494" y1="101.375" y2="118.4688"/><line style="stroke:#000000;stroke-width:1.0;" x1="579" x2="579" y1="101.375" y2="118.4688"/><line style="stroke:#000000;stroke-width:1.0;" x1="781" x2="781" y1="101.375" y2="118.4688"/><line style="stroke:#000000;stroke-width:1.0;" x1="793" x2="793" y1="101.375" y2="118.4688"/><line style="stroke:#000000;stroke-width:1.0;" x1="805" x2="805" y1="101.375" y2="118.4688"/><line style="stroke:#000000;stroke-width:1.0;" x1="6" x2="6" y1="160.6563" y2="177.75"/><line style="stroke:#000000;stroke-width:1.0;" x1="145" x2="145" y1="160.6563" y2="177.75"/><line style="stroke:#000000;stroke-width:1.0;" x1="335" x2="335" y1="160.6563" y2="177.75"/><line style="stroke:#000000;stroke-width:1.0;" x1="395" x2="395" y1="160.6563" y2="177.75"/><line style="stroke:#000000;stroke-width:1.0;" x1="494" x2="494" y1="160.6563" y2="177.75"/><line style="stroke:#000000;stroke-width:1.0;" x1="579" x2="579" y1="160.6563" y2="177.75"/><line style="stroke:#000000;stroke-width:1.0;" x1="781" x2="781" y1="160.6563" y2="177.75"/><line style="stroke:#000000;stroke-width:1.0;" x1="793" x2="793" y1="160.6563" y2="177.75"/><line style="stroke:#000000;stroke-width:1.0;" x1="805" x2="805" y1="160.6563" y2="177.75"/><line style="stroke:#000000;stroke-width:1.0;" x1="6" x2="6" y1="215.9375" y2="233.0313"/><line style="stroke:#000000;stroke-width:1.0;" x1="145" x2="145" y1="215.9375" y2="233.0313"/><line style="stroke:#000000;stroke-width:1.0;" x1="335" x2="335" y1="215.9375" y2="233.0313"/><line style="stroke:#000000;stroke-width:1.0;" x1="395" x2="395" y1="215.9375" y2="233.0313"/><line style="stroke:#000000;stroke-width:1.0;" x1="494" x2="494" y1="215.9375" y2="233.0313"/><line style="stroke:#000000;stroke-width:1.0;" x1="579" x2="579" y1="215.9375" y2="233.0313"/><line style="stroke:#000000;stroke-width:1.0;" x1="781" x2="781" y1="215.9375" y2="233.0313"/><line style="stroke:#000000;stroke-width:1.0;" x1="793" x2="793" y1="215.9375" y2="233.0313"/><line style="stroke:#000000;stroke-width:1.0;" x1="805" x2="805" y1="215.9375" y2="233.0313"/><line style="stroke:#000000;stroke-width:1.0;" x1="6" x2="6" y1="118.4688" y2="139.5625"/><line style="stroke:#000000;stroke-width:1.0;" x1="145" x2="145" y1="118.4688" y2="139.5625"/><line style="stroke:#000000;stroke-width:1.0;" x1="335" x2="335" y1="118.4688" y2="139.5625"/><line style="stroke:#000000;stroke-width:1.0;" x1="395" x2="395" y1="118.4688" y2="139.5625"/><line style="stroke:#000000;stroke-width:1.0;" x1="494" x2="494" y1="118.4688" y2="139.5625"/><line style="stroke:#000000;stroke-width:1.0;" x1="579" x2="579" y1="118.4688" y2="139.5625"/><line style="stroke:#000000;stroke-width:1.0;" x1="781" x2="781" y1="118.4688" y2="139.5625"/><line style="stroke:#000000;stroke-width:1.0;" x1="793" x2="793" y1="118.4688" y2="139.5625"/><line style="stroke:#000000;stroke-width:1.0;" x1="805" x2="805" y1="118.4688" y2="139.5625"/><line style="stroke:#000000;stroke-width:1.0;" x1="6" x2="6" y1="177.75" y2="198.8438"/><line style="stroke:#000000;stroke-width:1.0;" x1="145" x2="145" y1="177.75" y2="198.8438"/><line style="stroke:#000000;stroke-width:1.0;" x1="335" x2="335" y1="177.75" y2="198.8438"/><line style="stroke:#000000;stroke-width:1.0;" x1="395" x2="395" y1="177.75" y2="198.8438"/><line style="stroke:#000000;stroke-width:1.0;" x1="494" x2="494" y1="177.75" y2="198.8438"/><line style="stroke:#000000;stroke-width:1.0;" x1="579" x2="579" y1="177.75" y2="198.8438"/><line style="stroke:#000000;stroke-width:1.0;" x1="781" x2="781" y1="177.75" y2="198.8438"/><line style="stroke:#000000;stroke-width:1.0;" x1="793" x2="793" y1="177.75" y2="198.8438"/><line style="stroke:#000000;stroke-width:1.0;" x1="805" x2="805" y1="177.75" y2="198.8438"/><line style="stroke:#000000;stroke-width:1.0;" x1="6" x2="6" y1="139.5625" y2="160.6563"/><line style="stroke:#000000;stroke-width:1.0;" x1="145" x2="145" y1="139.5625" y2="160.6563"/><line style="stroke:#000000;stroke-width:1.0;" x1="335" x2="335" y1="139.5625" y2="160.6563"/><line style="stroke:#000000;stroke-width:1.0;" x1="395" x2="395" y1="139.5625" y2="160.6563"/><line style="stroke:#000000;stroke-width:1.0;" x1="494" x2="494" y1="139.5625" y2="160.6563"/><line style="stroke:#000000;stroke-width:1.0;" x1="579" x2="579" y1="139.5625" y2="160.6563"/><line style="stroke:#000000;stroke-width:1.0;" x1="781" x2="781" y1="139.5625" y2="160.6563"/><line style="stroke:#000000;stroke-width:1.0;" x1="793" x2="793" y1="139.5625" y2="160.6563"/><line style="stroke:#000000;stroke-width:1.0;" x1="805" x2="805" y1="139.5625" y2="160.6563"/><line style="stroke:#000000;stroke-width:1.0;" x1="6" x2="6" y1="198.8438" y2="215.9375"/><line style="stroke:#000000;stroke-width:1.0;" x1="145" x2="145" y1="198.8438" y2="215.9375"/><line style="stroke:#000000;stroke-width:1.0;" x1="335" x2="335" y1="198.8438" y2="215.9375"/><line style="stroke:#000000;stroke-width:1.0;" x1="395" x2="395" y1="198.8438" y2="215.9375"/><line style="stroke:#000000;stroke-width:1.0;" x1="494" x2="494" y1="198.8438" y2="215.9375"/><line style="stroke:#000000;stroke-width:1.0;" x1="579" x2="579" y1="198.8438" y2="215.9375"/><line style="stroke:#000000;stroke-width:1.0;" x1="781" x2="781" y1="198.8438" y2="215.9375"/><line style="stroke:#000000;stroke-width:1.0;" x1="793" x2="793" y1="198.8438" y2="215.9375"/><line style="stroke:#000000;stroke-width:1.0;" x1="805" x2="805" y1="198.8438" y2="215.9375"/><line style="stroke:#AAAAAA;stroke-width:1.0;" x1="6" x2="806" y1="238.5313" y2="238.5313"/><rect fill="#EEEEEE" height="19.0938" rx="5" ry="5" style="stroke:#000000;stroke-width:2.5;" width="52" x="9.5" y="246.5313"/><text fill="#000000" font-family="sans-serif" font-size="12" lengthAdjust="spacing" textLength="40" x="15.5" y="260.9883">Fermer</text><rect fill="#EEEEEE" height="19.0938" rx="5" ry="5" style="stroke:#000000;stroke-width:2.5;" width="92" x="68.5" y="246.5313"/><text fill="#000000" font-family="sans-serif" font-size="12" lengthAdjust="spacing" textLength="70" x="79.5" y="260.9883">Sauvegarder</text></g></svg>