<?xml version="1.0" encoding="us-ascii" standalone="no"?><svg xmlns="http://www.w3.org/2000/svg" xmlns:xlink="http://www.w3.org/1999/xlink" contentStyleType="text/css" height="197px" preserveAspectRatio="none" style="width:1077px;height:197px;background:#FFFFFF;" version="1.1" viewBox="0 0 1077 197" width="1077px" zoomAndPan="magnify"><defs/><g><text fill="#000000" font-family="sans-serif" font-size="12" font-weight="bold" lengthAdjust="spacing" textLength="140" x="6" y="18.9492">Douarnenez - 08/02/2022</text><line style="stroke:#AAAAAA;stroke-width:1.0;" x1="6" x2="1070" y1="27.4609" y2="27.4609"/><text fill="#000000" font-family="sans-serif" font-size="12" lengthAdjust="spacing" textLength="39" x="8" y="44.9102">D&#233;tails</text><line style="stroke:#000000;stroke-width:1.0;" x1="6" x2="6" y1="31.9609" y2="47.9219"/><line style="stroke:#000000;stroke-width:1.0;" x1="6" x2="50" y1="31.9609" y2="31.9609"/><line style="stroke:#000000;stroke-width:1.0;" x1="50" x2="50" y1="31.9609" y2="47.9219"/><line style="stroke:#000000;stroke-width:1.0;" x1="50" x2="60" y1="47.9219" y2="47.9219"/><text fill="#000000" font-family="sans-serif" font-size="12" lengthAdjust="spacing" textLength="96" x="62" y="44.9102">&#201;chantillonnages</text><line style="stroke:#000000;stroke-width:1.0;" x1="60" x2="60" y1="31.9609" y2="47.9219"/><line style="stroke:#000000;stroke-width:1.0;" x1="60" x2="161" y1="31.9609" y2="31.9609"/><line style="stroke:#000000;stroke-width:1.0;" x1="161" x2="161" y1="31.9609" y2="47.9219"/><line style="stroke:#000000;stroke-width:1.0;" x1="161" x2="171" y1="47.9219" y2="47.9219"/><text fill="#000000" font-family="sans-serif" font-size="12" font-weight="bold" lengthAdjust="spacing" textLength="145" x="173" y="44.9102">&lt;Autres esp&#232;ces&gt; (PETS)</text><line style="stroke:#000000;stroke-width:1.0;" x1="171" x2="171" y1="31.9609" y2="47.9219"/><line style="stroke:#000000;stroke-width:1.0;" x1="171" x2="321" y1="31.9609" y2="31.9609"/><line style="stroke:#000000;stroke-width:1.0;" x1="321" x2="321" y1="31.9609" y2="47.9219"/><line style="stroke:#000000;stroke-width:1.0;" x1="321" x2="331" y1="47.9219" y2="47.9219"/><line style="stroke:#AAAAAA;stroke-width:1.0;stroke-dasharray:1.0,2.0;" x1="6" x2="1070" y1="53.4219" y2="53.4219"/><path d="M11,63.8828 L11,66.8828 L8,66.8828 L8,68.8828 L11,68.8828 L11,71.8828 L13,71.8828 L13,68.8828 L16,68.8828 L16,66.8828 L13,66.8828 L13,63.8828 L11,63.8828 " fill="#000000" style="stroke:;stroke-width:0.0;stroke-dasharray:;"/><text fill="#000000" font-family="sans-serif" font-size="12" lengthAdjust="spacing" textLength="3" x="17" y="71.8711">&#160;</text><path d="M24,63.8828 C23.45,63.8828 23,64.3328 23,64.8828 L22,64.8828 C21.45,64.8828 21,65.3328 21,65.8828 L28,65.8828 C28,65.3328 27.55,64.8828 27,64.8828 L26,64.8828 C26,64.3328 25.55,63.8828 25,63.8828 L24,63.8828 M22,66.8828 L22,71.6928 C22,71.8028 22.08,71.8828 22.19,71.8828 L26.82,71.8828 C26.93,71.8828 27.01,71.8028 27.01,71.6928 L27.01,66.8828 L26.01,66.8828 L26.01,70.3828 C26.01,70.6628 25.79,70.8828 25.51,70.8828 C25.23,70.8828 25.01,70.6628 25.01,70.3828 L25.01,66.8828 L24.01,66.8828 L24.01,70.3828 C24.01,70.6628 23.79,70.8828 23.51,70.8828 C23.23,70.8828 23.01,70.6628 23.01,70.3828 L23.01,66.8828 L22.01,66.8828 " fill="#000000" style="stroke:;stroke-width:0.0;stroke-dasharray:;"/><text fill="#000000" font-family="sans-serif" font-size="12" lengthAdjust="spacing" textLength="3" x="27" y="91.832">.</text><rect fill="none" height="10" style="stroke:#000000;stroke-width:1.5;" width="10" x="9" y="81.8633"/><text fill="#000000" font-family="sans-serif" font-size="12" font-weight="bold" lengthAdjust="spacing" textLength="120" x="32" y="91.832">Esp&#232;ce commerciale</text><text fill="#000000" font-family="sans-serif" font-size="12" font-weight="bold" lengthAdjust="spacing" textLength="111" x="178" y="91.832">Esp&#232;ce scientifique</text><text fill="#000000" font-family="sans-serif" font-size="12" font-weight="bold" lengthAdjust="spacing" textLength="36" x="388" y="91.832">Navire</text><text fill="#000000" font-family="sans-serif" font-size="12" font-weight="bold" lengthAdjust="spacing" textLength="83" x="542" y="91.832">Zone de p&#234;che</text><text fill="#000000" font-family="sans-serif" font-size="12" font-weight="bold" lengthAdjust="spacing" textLength="78" x="856" y="91.832">Type de vente</text><text fill="#000000" font-family="sans-serif" font-size="12" lengthAdjust="spacing" textLength="3" x="27" y="109.793">.</text><rect fill="none" height="10" style="stroke:#000000;stroke-width:1.5;" width="10" x="9" y="99.8242"/><polygon fill="#000000" points="10,102.8438,13,105.8438,20,96.8438,13,103.8438" style="stroke:#000000;stroke-width:1.5;"/><rect fill="#EEEEEE" height="18.9609" style="stroke:#000000;stroke-width:1.0;" width="143" x="32" y="96.8438"/><text fill="#000000" font-family="sans-serif" font-size="12" lengthAdjust="spacing" textLength="93" x="34" y="111.793">GAG - Requin-h&#226;</text><line style="stroke:#000000;stroke-width:1.0;" x1="164" x2="164" y1="96.8438" y2="115.8047"/><polygon fill="#000000" points="167,102.8438,173,102.8438,170,110.8047" style="stroke:#000000;stroke-width:1.0;"/><rect fill="#EEEEEE" height="18.9609" style="stroke:#000000;stroke-width:1.0;" width="207" x="178" y="96.8438"/><text fill="#000000" font-family="sans-serif" font-size="12" lengthAdjust="spacing" textLength="144" x="180" y="111.793">GAG - Galeorhinus galeus</text><line style="stroke:#000000;stroke-width:1.0;" x1="374" x2="374" y1="96.8438" y2="115.8047"/><polygon fill="#000000" points="377,102.8438,383,102.8438,380,110.8047" style="stroke:#000000;stroke-width:1.0;"/><rect fill="#EEEEEE" height="18.9609" style="stroke:#000000;stroke-width:1.0;" width="151" x="388" y="96.8438"/><text fill="#000000" font-family="sans-serif" font-size="12" lengthAdjust="spacing" textLength="97" x="390" y="111.793">851751 - Navire 1</text><line style="stroke:#000000;stroke-width:1.0;" x1="528" x2="528" y1="96.8438" y2="115.8047"/><polygon fill="#000000" points="531,102.8438,537,102.8438,534,110.8047" style="stroke:#000000;stroke-width:1.0;"/><rect fill="#EEEEEE" height="18.9609" style="stroke:#000000;stroke-width:1.0;" width="311" x="542" y="96.8438"/><text fill="#000000" font-family="sans-serif" font-size="12" lengthAdjust="spacing" textLength="201" x="544" y="111.793">008B00 - CIEM VIIIb (Sud Gascogne)</text><line style="stroke:#000000;stroke-width:1.0;" x1="842" x2="842" y1="96.8438" y2="115.8047"/><polygon fill="#000000" points="845,102.8438,851,102.8438,848,110.8047" style="stroke:#000000;stroke-width:1.0;"/><rect fill="#EEEEEE" height="18.9609" style="stroke:#000000;stroke-width:1.0;" width="199" x="856" y="96.8438"/><text fill="#000000" font-family="sans-serif" font-size="12" lengthAdjust="spacing" textLength="134" x="858" y="111.793">Ench&#232;res - HAM / Cri&#233;es</text><line style="stroke:#000000;stroke-width:1.0;" x1="1044" x2="1044" y1="96.8438" y2="115.8047"/><polygon fill="#000000" points="1047,102.8438,1053,102.8438,1050,110.8047" style="stroke:#000000;stroke-width:1.0;"/><text fill="#000000" font-family="sans-serif" font-size="12" lengthAdjust="spacing" textLength="3" x="27" y="131.7539">.</text><rect fill="none" height="10" style="stroke:#000000;stroke-width:1.5;" width="10" x="9" y="121.7852"/><rect fill="#EEEEEE" height="18.9609" style="stroke:#000000;stroke-width:1.0;" width="143" x="32" y="118.8047"/><text fill="#000000" font-family="sans-serif" font-size="12" lengthAdjust="spacing" textLength="98" x="34" y="133.7539">BSH - Peau bleue</text><line style="stroke:#000000;stroke-width:1.0;" x1="164" x2="164" y1="118.8047" y2="137.7656"/><polygon fill="#000000" points="167,124.8047,173,124.8047,170,132.7656" style="stroke:#000000;stroke-width:1.0;"/><rect fill="#EEEEEE" height="18.9609" style="stroke:#000000;stroke-width:1.0;" width="151" x="388" y="118.8047"/><text fill="#000000" font-family="sans-serif" font-size="12" lengthAdjust="spacing" textLength="97" x="390" y="133.7539">851751 - Navire 1</text><line style="stroke:#000000;stroke-width:1.0;" x1="528" x2="528" y1="118.8047" y2="137.7656"/><polygon fill="#000000" points="531,124.8047,537,124.8047,534,132.7656" style="stroke:#000000;stroke-width:1.0;"/><rect fill="#EEEEEE" height="18.9609" style="stroke:#000000;stroke-width:1.0;" width="311" x="542" y="118.8047"/><text fill="#000000" font-family="sans-serif" font-size="12" lengthAdjust="spacing" textLength="201" x="544" y="133.7539">008B00 - CIEM VIIIb (Sud Gascogne)</text><line style="stroke:#000000;stroke-width:1.0;" x1="842" x2="842" y1="118.8047" y2="137.7656"/><polygon fill="#000000" points="845,124.8047,851,124.8047,848,132.7656" style="stroke:#000000;stroke-width:1.0;"/><rect fill="#EEEEEE" height="18.9609" style="stroke:#000000;stroke-width:1.0;" width="199" x="856" y="118.8047"/><text fill="#000000" font-family="sans-serif" font-size="12" lengthAdjust="spacing" textLength="134" x="858" y="133.7539">Ench&#232;res - HAM / Cri&#233;es</text><line style="stroke:#000000;stroke-width:1.0;" x1="1044" x2="1044" y1="118.8047" y2="137.7656"/><polygon fill="#000000" points="1047,124.8047,1053,124.8047,1050,132.7656" style="stroke:#000000;stroke-width:1.0;"/><path d="M1059.09,118.8047 C1059.03,118.8047 1059,118.8447 1059,118.8947 L1059,124.7047 C1059,124.7547 1059.04,124.7947 1059.09,124.7947 L1065,124.7947 L1067,126.7947 L1067,118.8847 C1067,118.8247 1066.96,118.7947 1066.91,118.7947 L1059.1,118.7947 " fill="#000000" style="stroke:;stroke-width:0.0;stroke-dasharray:;"/><line style="stroke:#000000;stroke-width:1.0;" x1="6" x2="31" y1="77.8828" y2="77.8828"/><line style="stroke:#000000;stroke-width:1.0;" x1="31" x2="177" y1="77.8828" y2="77.8828"/><line style="stroke:#000000;stroke-width:1.0;" x1="177" x2="387" y1="77.8828" y2="77.8828"/><line style="stroke:#000000;stroke-width:1.0;" x1="387" x2="541" y1="77.8828" y2="77.8828"/><line style="stroke:#000000;stroke-width:1.0;" x1="541" x2="855" y1="77.8828" y2="77.8828"/><line style="stroke:#000000;stroke-width:1.0;" x1="855" x2="1057" y1="77.8828" y2="77.8828"/><line style="stroke:#000000;stroke-width:1.0;" x1="1057" x2="1069" y1="77.8828" y2="77.8828"/><line style="stroke:#000000;stroke-width:1.0;" x1="6" x2="31" y1="139.7656" y2="139.7656"/><line style="stroke:#000000;stroke-width:1.0;" x1="31" x2="177" y1="139.7656" y2="139.7656"/><line style="stroke:#000000;stroke-width:1.0;" x1="177" x2="387" y1="139.7656" y2="139.7656"/><line style="stroke:#000000;stroke-width:1.0;" x1="387" x2="541" y1="139.7656" y2="139.7656"/><line style="stroke:#000000;stroke-width:1.0;" x1="541" x2="855" y1="139.7656" y2="139.7656"/><line style="stroke:#000000;stroke-width:1.0;" x1="855" x2="1057" y1="139.7656" y2="139.7656"/><line style="stroke:#000000;stroke-width:1.0;" x1="1057" x2="1069" y1="139.7656" y2="139.7656"/><line style="stroke:#000000;stroke-width:1.0;" x1="6" x2="31" y1="117.8047" y2="117.8047"/><line style="stroke:#000000;stroke-width:1.0;" x1="31" x2="177" y1="117.8047" y2="117.8047"/><line style="stroke:#000000;stroke-width:1.0;" x1="177" x2="387" y1="117.8047" y2="117.8047"/><line style="stroke:#000000;stroke-width:1.0;" x1="387" x2="541" y1="117.8047" y2="117.8047"/><line style="stroke:#000000;stroke-width:1.0;" x1="541" x2="855" y1="117.8047" y2="117.8047"/><line style="stroke:#000000;stroke-width:1.0;" x1="855" x2="1057" y1="117.8047" y2="117.8047"/><line style="stroke:#000000;stroke-width:1.0;" x1="1057" x2="1069" y1="117.8047" y2="117.8047"/><line style="stroke:#000000;stroke-width:1.0;" x1="6" x2="31" y1="95.8438" y2="95.8438"/><line style="stroke:#000000;stroke-width:1.0;" x1="31" x2="177" y1="95.8438" y2="95.8438"/><line style="stroke:#000000;stroke-width:1.0;" x1="177" x2="387" y1="95.8438" y2="95.8438"/><line style="stroke:#000000;stroke-width:1.0;" x1="387" x2="541" y1="95.8438" y2="95.8438"/><line style="stroke:#000000;stroke-width:1.0;" x1="541" x2="855" y1="95.8438" y2="95.8438"/><line style="stroke:#000000;stroke-width:1.0;" x1="855" x2="1057" y1="95.8438" y2="95.8438"/><line style="stroke:#000000;stroke-width:1.0;" x1="1057" x2="1069" y1="95.8438" y2="95.8438"/><line style="stroke:#000000;stroke-width:1.0;" x1="6" x2="6" y1="77.8828" y2="95.8438"/><line style="stroke:#000000;stroke-width:1.0;" x1="177" x2="177" y1="117.8047" y2="139.7656"/><line style="stroke:#000000;stroke-width:1.0;" x1="31" x2="31" y1="77.8828" y2="95.8438"/><line style="stroke:#000000;stroke-width:1.0;" x1="387" x2="387" y1="117.8047" y2="139.7656"/><line style="stroke:#000000;stroke-width:1.0;" x1="177" x2="177" y1="77.8828" y2="95.8438"/><line style="stroke:#000000;stroke-width:1.0;" x1="541" x2="541" y1="117.8047" y2="139.7656"/><line style="stroke:#000000;stroke-width:1.0;" x1="387" x2="387" y1="77.8828" y2="95.8438"/><line style="stroke:#000000;stroke-width:1.0;" x1="855" x2="855" y1="117.8047" y2="139.7656"/><line style="stroke:#000000;stroke-width:1.0;" x1="541" x2="541" y1="77.8828" y2="95.8438"/><line style="stroke:#000000;stroke-width:1.0;" x1="1057" x2="1057" y1="117.8047" y2="139.7656"/><line style="stroke:#000000;stroke-width:1.0;" x1="1069" x2="1069" y1="117.8047" y2="139.7656"/><line style="stroke:#000000;stroke-width:1.0;" x1="855" x2="855" y1="77.8828" y2="95.8438"/><line style="stroke:#000000;stroke-width:1.0;" x1="1057" x2="1057" y1="77.8828" y2="95.8438"/><line style="stroke:#000000;stroke-width:1.0;" x1="1069" x2="1069" y1="77.8828" y2="95.8438"/><line style="stroke:#000000;stroke-width:1.0;" x1="6" x2="6" y1="95.8438" y2="117.8047"/><line style="stroke:#000000;stroke-width:1.0;" x1="31" x2="31" y1="95.8438" y2="117.8047"/><line style="stroke:#000000;stroke-width:1.0;" x1="177" x2="177" y1="95.8438" y2="117.8047"/><line style="stroke:#000000;stroke-width:1.0;" x1="387" x2="387" y1="95.8438" y2="117.8047"/><line style="stroke:#000000;stroke-width:1.0;" x1="541" x2="541" y1="95.8438" y2="117.8047"/><line style="stroke:#000000;stroke-width:1.0;" x1="855" x2="855" y1="95.8438" y2="117.8047"/><line style="stroke:#000000;stroke-width:1.0;" x1="1057" x2="1057" y1="95.8438" y2="117.8047"/><line style="stroke:#000000;stroke-width:1.0;" x1="1069" x2="1069" y1="95.8438" y2="117.8047"/><line style="stroke:#000000;stroke-width:1.0;" x1="6" x2="6" y1="117.8047" y2="139.7656"/><line style="stroke:#000000;stroke-width:1.0;" x1="31" x2="31" y1="117.8047" y2="139.7656"/><line style="stroke:#AAAAAA;stroke-width:1.0;" x1="6" x2="1070" y1="163.2266" y2="163.2266"/><rect fill="#EEEEEE" height="19.9609" rx="5" ry="5" style="stroke:#000000;stroke-width:2.5;" width="52" x="9.5" y="171.2266"/><text fill="#000000" font-family="sans-serif" font-size="12" lengthAdjust="spacing" textLength="40" x="15.5" y="186.1758">Fermer</text><rect fill="#EEEEEE" height="19.9609" rx="5" ry="5" style="stroke:#000000;stroke-width:2.5;" width="92" x="68.5" y="171.2266"/><text fill="#000000" font-family="sans-serif" font-size="12" lengthAdjust="spacing" textLength="70" x="79.5" y="186.1758">Sauvegarder</text><!--SRC=[jL9jRjf04FtTFSL8bH3yiB6Tqb0BeV0L0e4M0KLL4P4MCy1ApXfslKWfvG2zHdyblOOlrl6I2FK0zO-LvxsPDxCxxqQdNAMQnoaxCe3QijvE35SI9Vu01xngsGlAWHS4H3eE7SSoG3jxIRc8DVo4x5UqvJ8LSPn8oJUOOoHIQvXKKO1wbpr7gEjG77McazA955mtbu5QOHSR8cg5L76zhSE9iNV7zup8_9ilNAlKEIj0b3m-eee4Zn7-8NGaa0POYxr1E5EV-K6erxJlYKHO8UooFz4MBJHzsbdeG7LvbllMyjl2fV2Xs-ZIrSUuDq8ws-mtF5pGBlLFr5P8es53_qPRibhnhoi-yQ-jVOjwNhNfUOIsUfqXp7gztXAA4xCY5Hqb6uabwcepEpBQPi_vYpbmrnX26LfAP2zerTtBa-IvpSaTPOsG6rZI06XJ_liGjOBTW4mTlIU3ODqETRAdUpP7lhgZ1UQtg6XR2wgRJxWvu8Qh5SKihpYn6vGhQpasYiayNuS3seNI8f7WksIsAzU_AWufQcC4lW_-fp3mmierj3fJoFaIAtP70z29KUI0bT2f4akJaa29zVc1mzYG9HunX2yxbFts_Hi07KbFayZy8gm_6ruIFdvmcYA52IeQ1MP3riOrDt5A5L6o4d8JGcld1vM03RZS6B9w26l5MWa9gwSGRiT_0G00]--></g></svg>