<?xml version="1.0" encoding="UTF-8" standalone="no"?><svg xmlns="http://www.w3.org/2000/svg" xmlns:xlink="http://www.w3.org/1999/xlink" contentStyleType="text/css" height="280px" preserveAspectRatio="none" style="width:623px;height:280px;background:#FFFFFF;" version="1.1" viewBox="0 0 623 280" width="623px" zoomAndPan="magnify"><defs/><g><text fill="#000000" font-family="sans-serif" font-size="12" lengthAdjust="spacing" textLength="39" x="8" y="18.8281">Détails</text><line style="stroke:#000000;stroke-width:1.0;" x1="6" x2="6" y1="6" y2="22.3441"/><line style="stroke:#000000;stroke-width:1.0;" x1="6" x2="50" y1="6" y2="6"/><line style="stroke:#000000;stroke-width:1.0;" x1="50" x2="50" y1="6" y2="22.3441"/><line style="stroke:#000000;stroke-width:1.0;" x1="50" x2="60" y1="22.3441" y2="22.3441"/><text fill="#000000" font-family="sans-serif" font-size="12" font-weight="bold" lengthAdjust="spacing" textLength="104" x="65" y="18.8281">Échantillonnages</text><line style="stroke:#000000;stroke-width:1.0;" x1="60" x2="60" y1="6" y2="22.3441"/><line style="stroke:#000000;stroke-width:1.0;" x1="60" x2="172" y1="6" y2="6"/><line style="stroke:#000000;stroke-width:1.0;" x1="172" x2="172" y1="6" y2="22.3441"/><line style="stroke:#000000;stroke-width:1.0;" x1="172" x2="182" y1="22.3441" y2="22.3441"/><rect fill="#EEEEEE" height="12" rx="5" ry="5" style="stroke:#000000;stroke-width:2.5;" width="36" x="9.5" y="27.8441"/><path d="M26.5,29.8441 L26.5,32.8441 L23.5,32.8441 L23.5,34.8441 L26.5,34.8441 L26.5,37.8441 L28.5,37.8441 L28.5,34.8441 L31.5,34.8441 L31.5,32.8441 L28.5,32.8441 L28.5,29.8441 L26.5,29.8441 " fill="#000000" style="stroke:;stroke-width:0.0;stroke-dasharray:;"/><text fill="#000000" font-family="sans-serif" font-size="12" lengthAdjust="spacing" textLength="8" x="7" y="57.1722">#</text><text fill="#000000" font-family="sans-serif" font-size="12" lengthAdjust="spacing" textLength="41" x="50" y="57.1722">Priorité</text><text fill="#000000" font-family="sans-serif" font-size="12" font-weight="bold" lengthAdjust="spacing" textLength="41" x="93" y="57.1722">Espèce</text><text fill="#000000" font-family="sans-serif" font-size="12" lengthAdjust="spacing" textLength="37" x="242" y="57.1722">Navire</text><text fill="#000000" font-family="sans-serif" font-size="12" lengthAdjust="spacing" textLength="147" x="343" y="57.1722">Raison de non observation</text><text fill="#000000" font-family="sans-serif" font-size="12" lengthAdjust="spacing" textLength="77" x="537" y="57.1722">Commentaire</text><text fill="#000000" font-family="sans-serif" font-size="12" lengthAdjust="spacing" textLength="3" x="27" y="75.5163">.</text><rect fill="none" height="10" style="stroke:#000000;stroke-width:1.5;" width="10" x="9" y="65.8603"/><polygon fill="#000000" points="10,68.6882,13,71.6882,20,62.6882,13,69.6882" style="stroke:#000000;stroke-width:1.5;"/><text fill="#000000" font-family="sans-serif" font-size="12" lengthAdjust="spacing" textLength="7" x="50" y="75.5163">1</text><text fill="#000000" font-family="sans-serif" font-size="12" lengthAdjust="spacing" textLength="88" x="93" y="75.5163">POL - Pollachius</text><text fill="#000000" font-family="sans-serif" font-size="12" lengthAdjust="spacing" textLength="96" x="242" y="75.5163">851751- Navire 1</text><text fill="#000000" font-family="sans-serif" font-size="12" lengthAdjust="spacing" textLength="3" x="27" y="93.8604">.</text><rect fill="none" height="10" style="stroke:#000000;stroke-width:1.5;" width="10" x="9" y="84.2044"/><text fill="#000000" font-family="sans-serif" font-size="12" lengthAdjust="spacing" textLength="7" x="50" y="93.8604">2</text><text fill="#000000" font-family="sans-serif" font-size="12" lengthAdjust="spacing" textLength="147" x="93" y="93.8604">MON - Lophius piscarorius</text><rect fill="#EEEEEE" height="19.3441" style="stroke:#000000;stroke-width:1.0;" width="191" x="343" y="81.0323"/><text fill="#000000" font-family="sans-serif" font-size="12" lengthAdjust="spacing" textLength="88" x="345" y="95.8604">Espèce absente</text><line style="stroke:#000000;stroke-width:1.0;" x1="523" x2="523" y1="81.0323" y2="100.3765"/><polygon fill="#000000" points="526,87.0323,532,87.0323,529,95.3765" style="stroke:#000000;stroke-width:1.0;"/><text fill="#000000" font-family="sans-serif" font-size="12" lengthAdjust="spacing" textLength="3" x="27" y="116.2045">.</text><rect fill="none" height="10" style="stroke:#000000;stroke-width:1.5;" width="10" x="9" y="106.5485"/><polygon fill="#000000" points="10,109.3765,13,112.3765,20,103.3765,13,110.3765" style="stroke:#000000;stroke-width:1.5;"/><text fill="#000000" font-family="sans-serif" font-size="12" lengthAdjust="spacing" textLength="7" x="50" y="116.2045">3</text><text fill="#000000" font-family="sans-serif" font-size="12" lengthAdjust="spacing" textLength="141" x="93" y="116.2045">ANE - Lophius budegassa</text><text fill="#000000" font-family="sans-serif" font-size="12" lengthAdjust="spacing" textLength="99" x="242" y="116.2045">851751 - Navire 1</text><text fill="#000000" font-family="sans-serif" font-size="12" lengthAdjust="spacing" textLength="3" x="27" y="134.5487">.</text><rect fill="none" height="10" style="stroke:#000000;stroke-width:1.5;" width="10" x="9" y="124.8926"/><text fill="#000000" font-family="sans-serif" font-size="12" lengthAdjust="spacing" textLength="7" x="50" y="134.5487">4</text><text fill="#000000" font-family="sans-serif" font-size="12" lengthAdjust="spacing" textLength="36" x="93" y="134.5487">PIL - ...</text><rect fill="#EEEEEE" height="19.3441" style="stroke:#000000;stroke-width:1.0;" width="191" x="343" y="121.7206"/><text fill="#000000" font-family="sans-serif" font-size="12" lengthAdjust="spacing" textLength="88" x="345" y="136.5487">Espèce absente</text><line style="stroke:#000000;stroke-width:1.0;" x1="523" x2="523" y1="121.7206" y2="141.0647"/><polygon fill="#000000" points="526,127.7206,532,127.7206,529,136.0647" style="stroke:#000000;stroke-width:1.0;"/><text fill="#000000" font-family="sans-serif" font-size="12" lengthAdjust="spacing" textLength="3" x="27" y="156.8928">.</text><rect fill="none" height="10" style="stroke:#000000;stroke-width:1.5;" width="10" x="9" y="147.2367"/><polygon fill="#000000" points="10,150.0647,13,153.0647,20,144.0647,13,151.0647" style="stroke:#000000;stroke-width:1.5;"/><text fill="#000000" font-family="sans-serif" font-size="12" lengthAdjust="spacing" textLength="7" x="50" y="156.8928">5</text><text fill="#000000" font-family="sans-serif" font-size="12" lengthAdjust="spacing" textLength="141" x="93" y="156.8928">ANE - Lophius budegassa</text><text fill="#000000" font-family="sans-serif" font-size="12" lengthAdjust="spacing" textLength="99" x="242" y="156.8928">741541 - Navire 2</text><text fill="#000000" font-family="sans-serif" font-size="12" lengthAdjust="spacing" textLength="3" x="27" y="175.2369">.</text><rect fill="none" height="10" style="stroke:#000000;stroke-width:1.5;" width="10" x="9" y="165.5809"/><text fill="#000000" font-family="sans-serif" font-size="12" lengthAdjust="spacing" textLength="7" x="50" y="175.2369">6</text><line style="stroke:#AAAAAA;stroke-width:1.0;stroke-dasharray:1.0,2.0;" x1="93" x2="241" y1="171.0809" y2="171.0809"/><line style="stroke:#000000;stroke-width:1.0;" x1="6" x2="49" y1="24.3441" y2="24.3441"/><line style="stroke:#000000;stroke-width:1.0;" x1="49" x2="92" y1="24.3441" y2="24.3441"/><line style="stroke:#000000;stroke-width:1.0;" x1="92" x2="241" y1="24.3441" y2="24.3441"/><line style="stroke:#000000;stroke-width:1.0;" x1="241" x2="342" y1="24.3441" y2="24.3441"/><line style="stroke:#000000;stroke-width:1.0;" x1="342" x2="536" y1="24.3441" y2="24.3441"/><line style="stroke:#000000;stroke-width:1.0;" x1="536" x2="615" y1="24.3441" y2="24.3441"/><line style="stroke:#000000;stroke-width:1.0;" x1="6" x2="49" y1="80.0323" y2="80.0323"/><line style="stroke:#000000;stroke-width:1.0;" x1="49" x2="92" y1="80.0323" y2="80.0323"/><line style="stroke:#000000;stroke-width:1.0;" x1="92" x2="241" y1="80.0323" y2="80.0323"/><line style="stroke:#000000;stroke-width:1.0;" x1="241" x2="342" y1="80.0323" y2="80.0323"/><line style="stroke:#000000;stroke-width:1.0;" x1="342" x2="536" y1="80.0323" y2="80.0323"/><line style="stroke:#000000;stroke-width:1.0;" x1="536" x2="615" y1="80.0323" y2="80.0323"/><line style="stroke:#000000;stroke-width:1.0;" x1="6" x2="49" y1="143.0647" y2="143.0647"/><line style="stroke:#000000;stroke-width:1.0;" x1="49" x2="92" y1="143.0647" y2="143.0647"/><line style="stroke:#000000;stroke-width:1.0;" x1="92" x2="241" y1="143.0647" y2="143.0647"/><line style="stroke:#000000;stroke-width:1.0;" x1="241" x2="342" y1="143.0647" y2="143.0647"/><line style="stroke:#000000;stroke-width:1.0;" x1="342" x2="536" y1="143.0647" y2="143.0647"/><line style="stroke:#000000;stroke-width:1.0;" x1="536" x2="615" y1="143.0647" y2="143.0647"/><line style="stroke:#000000;stroke-width:1.0;" x1="6" x2="49" y1="43.3441" y2="43.3441"/><line style="stroke:#000000;stroke-width:1.0;" x1="49" x2="92" y1="43.3441" y2="43.3441"/><line style="stroke:#000000;stroke-width:1.0;" x1="92" x2="241" y1="43.3441" y2="43.3441"/><line style="stroke:#000000;stroke-width:1.0;" x1="241" x2="342" y1="43.3441" y2="43.3441"/><line style="stroke:#000000;stroke-width:1.0;" x1="342" x2="536" y1="43.3441" y2="43.3441"/><line style="stroke:#000000;stroke-width:1.0;" x1="536" x2="615" y1="43.3441" y2="43.3441"/><line style="stroke:#000000;stroke-width:1.0;" x1="6" x2="49" y1="102.3765" y2="102.3765"/><line style="stroke:#000000;stroke-width:1.0;" x1="49" x2="92" y1="102.3765" y2="102.3765"/><line style="stroke:#000000;stroke-width:1.0;" x1="92" x2="241" y1="102.3765" y2="102.3765"/><line style="stroke:#000000;stroke-width:1.0;" x1="241" x2="342" y1="102.3765" y2="102.3765"/><line style="stroke:#000000;stroke-width:1.0;" x1="342" x2="536" y1="102.3765" y2="102.3765"/><line style="stroke:#000000;stroke-width:1.0;" x1="536" x2="615" y1="102.3765" y2="102.3765"/><line style="stroke:#000000;stroke-width:1.0;" x1="6" x2="49" y1="161.4088" y2="161.4088"/><line style="stroke:#000000;stroke-width:1.0;" x1="49" x2="92" y1="161.4088" y2="161.4088"/><line style="stroke:#000000;stroke-width:1.0;" x1="92" x2="241" y1="161.4088" y2="161.4088"/><line style="stroke:#000000;stroke-width:1.0;" x1="241" x2="342" y1="161.4088" y2="161.4088"/><line style="stroke:#000000;stroke-width:1.0;" x1="342" x2="536" y1="161.4088" y2="161.4088"/><line style="stroke:#000000;stroke-width:1.0;" x1="536" x2="615" y1="161.4088" y2="161.4088"/><line style="stroke:#000000;stroke-width:1.0;" x1="6" x2="49" y1="61.6882" y2="61.6882"/><line style="stroke:#000000;stroke-width:1.0;" x1="49" x2="92" y1="61.6882" y2="61.6882"/><line style="stroke:#000000;stroke-width:1.0;" x1="92" x2="241" y1="61.6882" y2="61.6882"/><line style="stroke:#000000;stroke-width:1.0;" x1="241" x2="342" y1="61.6882" y2="61.6882"/><line style="stroke:#000000;stroke-width:1.0;" x1="342" x2="536" y1="61.6882" y2="61.6882"/><line style="stroke:#000000;stroke-width:1.0;" x1="536" x2="615" y1="61.6882" y2="61.6882"/><line style="stroke:#000000;stroke-width:1.0;" x1="6" x2="49" y1="120.7206" y2="120.7206"/><line style="stroke:#000000;stroke-width:1.0;" x1="49" x2="92" y1="120.7206" y2="120.7206"/><line style="stroke:#000000;stroke-width:1.0;" x1="92" x2="241" y1="120.7206" y2="120.7206"/><line style="stroke:#000000;stroke-width:1.0;" x1="241" x2="342" y1="120.7206" y2="120.7206"/><line style="stroke:#000000;stroke-width:1.0;" x1="342" x2="536" y1="120.7206" y2="120.7206"/><line style="stroke:#000000;stroke-width:1.0;" x1="536" x2="615" y1="120.7206" y2="120.7206"/><line style="stroke:#000000;stroke-width:1.0;" x1="6" x2="49" y1="179.7529" y2="179.7529"/><line style="stroke:#000000;stroke-width:1.0;" x1="49" x2="92" y1="179.7529" y2="179.7529"/><line style="stroke:#000000;stroke-width:1.0;" x1="92" x2="241" y1="179.7529" y2="179.7529"/><line style="stroke:#000000;stroke-width:1.0;" x1="241" x2="342" y1="179.7529" y2="179.7529"/><line style="stroke:#000000;stroke-width:1.0;" x1="342" x2="536" y1="179.7529" y2="179.7529"/><line style="stroke:#000000;stroke-width:1.0;" x1="536" x2="615" y1="179.7529" y2="179.7529"/><line style="stroke:#000000;stroke-width:1.0;" x1="6" x2="6" y1="24.3441" y2="43.3441"/><line style="stroke:#000000;stroke-width:1.0;" x1="49" x2="49" y1="24.3441" y2="43.3441"/><line style="stroke:#000000;stroke-width:1.0;" x1="615" x2="615" y1="24.3441" y2="43.3441"/><line style="stroke:#000000;stroke-width:1.0;" x1="6" x2="6" y1="80.0323" y2="102.3765"/><line style="stroke:#000000;stroke-width:1.0;" x1="49" x2="49" y1="80.0323" y2="102.3765"/><line style="stroke:#000000;stroke-width:1.0;" x1="92" x2="92" y1="80.0323" y2="102.3765"/><line style="stroke:#000000;stroke-width:1.0;" x1="241" x2="241" y1="80.0323" y2="102.3765"/><line style="stroke:#000000;stroke-width:1.0;" x1="342" x2="342" y1="80.0323" y2="102.3765"/><line style="stroke:#000000;stroke-width:1.0;" x1="536" x2="536" y1="80.0323" y2="102.3765"/><line style="stroke:#000000;stroke-width:1.0;" x1="615" x2="615" y1="80.0323" y2="102.3765"/><line style="stroke:#000000;stroke-width:1.0;" x1="6" x2="6" y1="143.0647" y2="161.4088"/><line style="stroke:#000000;stroke-width:1.0;" x1="49" x2="49" y1="143.0647" y2="161.4088"/><line style="stroke:#000000;stroke-width:1.0;" x1="92" x2="92" y1="143.0647" y2="161.4088"/><line style="stroke:#000000;stroke-width:1.0;" x1="241" x2="241" y1="143.0647" y2="161.4088"/><line style="stroke:#000000;stroke-width:1.0;" x1="342" x2="342" y1="143.0647" y2="161.4088"/><line style="stroke:#000000;stroke-width:1.0;" x1="536" x2="536" y1="143.0647" y2="161.4088"/><line style="stroke:#000000;stroke-width:1.0;" x1="615" x2="615" y1="143.0647" y2="161.4088"/><line style="stroke:#000000;stroke-width:1.0;" x1="6" x2="6" y1="43.3441" y2="61.6882"/><line style="stroke:#000000;stroke-width:1.0;" x1="49" x2="49" y1="43.3441" y2="61.6882"/><line style="stroke:#000000;stroke-width:1.0;" x1="92" x2="92" y1="43.3441" y2="61.6882"/><line style="stroke:#000000;stroke-width:1.0;" x1="241" x2="241" y1="43.3441" y2="61.6882"/><line style="stroke:#000000;stroke-width:1.0;" x1="342" x2="342" y1="43.3441" y2="61.6882"/><line style="stroke:#000000;stroke-width:1.0;" x1="536" x2="536" y1="43.3441" y2="61.6882"/><line style="stroke:#000000;stroke-width:1.0;" x1="615" x2="615" y1="43.3441" y2="61.6882"/><line style="stroke:#000000;stroke-width:1.0;" x1="6" x2="6" y1="102.3765" y2="120.7206"/><line style="stroke:#000000;stroke-width:1.0;" x1="49" x2="49" y1="102.3765" y2="120.7206"/><line style="stroke:#000000;stroke-width:1.0;" x1="92" x2="92" y1="102.3765" y2="120.7206"/><line style="stroke:#000000;stroke-width:1.0;" x1="241" x2="241" y1="102.3765" y2="120.7206"/><line style="stroke:#000000;stroke-width:1.0;" x1="342" x2="342" y1="102.3765" y2="120.7206"/><line style="stroke:#000000;stroke-width:1.0;" x1="536" x2="536" y1="102.3765" y2="120.7206"/><line style="stroke:#000000;stroke-width:1.0;" x1="615" x2="615" y1="102.3765" y2="120.7206"/><line style="stroke:#000000;stroke-width:1.0;" x1="6" x2="6" y1="161.4088" y2="179.7529"/><line style="stroke:#000000;stroke-width:1.0;" x1="49" x2="49" y1="161.4088" y2="179.7529"/><line style="stroke:#000000;stroke-width:1.0;" x1="92" x2="92" y1="161.4088" y2="179.7529"/><line style="stroke:#000000;stroke-width:1.0;" x1="241" x2="241" y1="161.4088" y2="179.7529"/><line style="stroke:#000000;stroke-width:1.0;" x1="342" x2="342" y1="161.4088" y2="179.7529"/><line style="stroke:#000000;stroke-width:1.0;" x1="536" x2="536" y1="161.4088" y2="179.7529"/><line style="stroke:#000000;stroke-width:1.0;" x1="615" x2="615" y1="161.4088" y2="179.7529"/><line style="stroke:#000000;stroke-width:1.0;" x1="6" x2="6" y1="61.6882" y2="80.0323"/><line style="stroke:#000000;stroke-width:1.0;" x1="49" x2="49" y1="61.6882" y2="80.0323"/><line style="stroke:#000000;stroke-width:1.0;" x1="92" x2="92" y1="61.6882" y2="80.0323"/><line style="stroke:#000000;stroke-width:1.0;" x1="241" x2="241" y1="61.6882" y2="80.0323"/><line style="stroke:#000000;stroke-width:1.0;" x1="342" x2="342" y1="61.6882" y2="80.0323"/><line style="stroke:#000000;stroke-width:1.0;" x1="536" x2="536" y1="61.6882" y2="80.0323"/><line style="stroke:#000000;stroke-width:1.0;" x1="615" x2="615" y1="61.6882" y2="80.0323"/><line style="stroke:#000000;stroke-width:1.0;" x1="6" x2="6" y1="120.7206" y2="143.0647"/><line style="stroke:#000000;stroke-width:1.0;" x1="49" x2="49" y1="120.7206" y2="143.0647"/><line style="stroke:#000000;stroke-width:1.0;" x1="92" x2="92" y1="120.7206" y2="143.0647"/><line style="stroke:#000000;stroke-width:1.0;" x1="241" x2="241" y1="120.7206" y2="143.0647"/><line style="stroke:#000000;stroke-width:1.0;" x1="342" x2="342" y1="120.7206" y2="143.0647"/><line style="stroke:#000000;stroke-width:1.0;" x1="536" x2="536" y1="120.7206" y2="143.0647"/><line style="stroke:#000000;stroke-width:1.0;" x1="615" x2="615" y1="120.7206" y2="143.0647"/><text fill="#000000" font-family="sans-serif" font-size="12" lengthAdjust="spacing" textLength="330" x="7" y="195.581">15 espèces minimales observées (justifiez si non observée)</text><text fill="#000000" font-family="sans-serif" font-size="12" lengthAdjust="spacing" textLength="101" x="7" y="215.9251">(max: 30 espèces)</text><text fill="#000000" font-family="sans-serif" font-size="12" lengthAdjust="spacing" textLength="330" x="7" y="236.2692">ATTENTION: une même espèce peut-être tiré plusieurs fois</text><line style="stroke:#AAAAAA;stroke-width:1.0;" x1="6" x2="616" y1="246.2853" y2="246.2853"/><rect fill="#EEEEEE" height="20.3441" rx="5" ry="5" style="stroke:#000000;stroke-width:2.5;" width="52" x="9.5" y="254.2853"/><text fill="#000000" font-family="sans-serif" font-size="12" lengthAdjust="spacing" textLength="41" x="15" y="269.1133">Fermer</text><rect fill="#EEEEEE" height="20.3441" rx="5" ry="5" style="stroke:#000000;stroke-width:2.5;" width="92" x="68.5" y="254.2853"/><text fill="#000000" font-family="sans-serif" font-size="12" lengthAdjust="spacing" textLength="72" x="78.5" y="269.1133">Sauvegarder</text></g></svg>