<?xml version="1.0" encoding="us-ascii" standalone="no"?><svg xmlns="http://www.w3.org/2000/svg" xmlns:xlink="http://www.w3.org/1999/xlink" contentStyleType="text/css" height="241px" preserveAspectRatio="none" style="width:747px;height:241px;background:#FFFFFF;" version="1.1" viewBox="0 0 747 241" width="747px" zoomAndPan="magnify"><defs/><g><text fill="#000000" font-family="sans-serif" font-size="12" font-weight="bold" lengthAdjust="spacing" textLength="140" x="6" y="18.9492">Douarnenez - 08/02/2022</text><line style="stroke:#AAAAAA;stroke-width:1.0;" x1="6" x2="740" y1="27.4609" y2="27.4609"/><text fill="#000000" font-family="sans-serif" font-size="12" lengthAdjust="spacing" textLength="39" x="8" y="44.9102">D&#233;tails</text><line style="stroke:#000000;stroke-width:1.0;" x1="6" x2="6" y1="31.9609" y2="47.9219"/><line style="stroke:#000000;stroke-width:1.0;" x1="6" x2="50" y1="31.9609" y2="31.9609"/><line style="stroke:#000000;stroke-width:1.0;" x1="50" x2="50" y1="31.9609" y2="47.9219"/><line style="stroke:#000000;stroke-width:1.0;" x1="50" x2="60" y1="47.9219" y2="47.9219"/><text fill="#000000" font-family="sans-serif" font-size="12" font-weight="bold" lengthAdjust="spacing" textLength="97" x="65" y="44.9102">&#201;chantillonnages</text><line style="stroke:#000000;stroke-width:1.0;" x1="60" x2="60" y1="31.9609" y2="47.9219"/><line style="stroke:#000000;stroke-width:1.0;" x1="60" x2="165" y1="31.9609" y2="31.9609"/><line style="stroke:#000000;stroke-width:1.0;" x1="165" x2="165" y1="31.9609" y2="47.9219"/><line style="stroke:#000000;stroke-width:1.0;" x1="165" x2="175" y1="47.9219" y2="47.9219"/><text fill="#000000" font-family="sans-serif" font-size="12" lengthAdjust="spacing" textLength="142" x="177" y="44.9102">&lt;Autres esp&#232;ces&gt; (PETS)</text><line style="stroke:#000000;stroke-width:1.0;" x1="175" x2="175" y1="31.9609" y2="47.9219"/><line style="stroke:#000000;stroke-width:1.0;" x1="175" x2="322" y1="31.9609" y2="31.9609"/><line style="stroke:#000000;stroke-width:1.0;" x1="322" x2="322" y1="31.9609" y2="47.9219"/><line style="stroke:#000000;stroke-width:1.0;" x1="322" x2="332" y1="47.9219" y2="47.9219"/><line style="stroke:#AAAAAA;stroke-width:1.0;stroke-dasharray:1.0,2.0;" x1="6" x2="740" y1="53.4219" y2="53.4219"/><text fill="#000000" font-family="sans-serif" font-size="12" font-weight="bold" lengthAdjust="spacing" textLength="120" x="7" y="89.832">Esp&#232;ce commerciale</text><text fill="#000000" font-family="sans-serif" font-size="12" font-weight="bold" lengthAdjust="spacing" textLength="111" x="146" y="89.832">Esp&#232;ce scientifique</text><text fill="#000000" font-family="sans-serif" font-size="12" font-weight="bold" lengthAdjust="spacing" textLength="58" x="336" y="89.832">Observ&#233; ?</text><text fill="#000000" font-family="sans-serif" font-size="12" font-weight="bold" lengthAdjust="spacing" textLength="36" x="396" y="89.832">Navire</text><text fill="#000000" font-family="sans-serif" font-size="12" font-weight="bold" lengthAdjust="spacing" textLength="83" x="495" y="89.832">Zone de p&#234;che</text><text fill="#000000" font-family="sans-serif" font-size="12" font-weight="bold" lengthAdjust="spacing" textLength="78" x="580" y="89.832">Type de vente</text><text fill="#000000" font-family="sans-serif" font-size="12" lengthAdjust="spacing" textLength="127" x="7" y="107.793">BET - Thunnus obesus</text><text fill="#000000" font-family="sans-serif" font-size="12" lengthAdjust="spacing" textLength="153" x="146" y="107.793">BET - Thon ob&#232;se(=Patudo)</text><text fill="#000000" font-family="sans-serif" font-size="12" lengthAdjust="spacing" textLength="3" x="356" y="107.793">.</text><rect fill="none" height="10" style="stroke:#000000;stroke-width:1.5;" width="10" x="338" y="97.8242"/><polygon fill="#000000" points="339,100.8438,342,103.8438,349,94.8438,342,101.8438" style="stroke:#000000;stroke-width:1.5;"/><text fill="#000000" font-family="sans-serif" font-size="12" lengthAdjust="spacing" textLength="97" x="396" y="107.793">123456 - Navire 1</text><text fill="#000000" font-family="sans-serif" font-size="12" lengthAdjust="spacing" textLength="38" x="495" y="107.793">Zone 1</text><text fill="#000000" font-family="sans-serif" font-size="12" lengthAdjust="spacing" textLength="134" x="580" y="107.793">Ench&#232;res - HAM / Cri&#233;es</text><path d="M729,94.8438 L729,97.8438 L734,102.8438 L737,99.8438 L732,94.8438 L729,94.8438 M731,95.8438 C731.55,95.8438 732,96.2938 732,96.8438 C732,97.3938 731.55,97.8438 731,97.8438 C730.45,97.8438 730,97.3938 730,96.8438 C730,96.2938 730.45,95.8438 731,95.8438 " fill="#000000" style="stroke:;stroke-width:0.0;stroke-dasharray:;"/><text fill="#000000" font-family="sans-serif" font-size="12" lengthAdjust="spacing" textLength="127" x="7" y="125.7539">BFT - Thunnus thynnus</text><text fill="#000000" font-family="sans-serif" font-size="12" lengthAdjust="spacing" textLength="174" x="146" y="125.7539">BFT - Thon rouge de l'Atlantique</text><text fill="#000000" font-family="sans-serif" font-size="12" lengthAdjust="spacing" textLength="3" x="356" y="125.7539">.</text><rect fill="none" height="10" style="stroke:#000000;stroke-width:1.5;" width="10" x="338" y="115.7852"/><polygon fill="#000000" points="339,118.8047,342,121.8047,349,112.8047,342,119.8047" style="stroke:#000000;stroke-width:1.5;"/><text fill="#000000" font-family="sans-serif" font-size="12" lengthAdjust="spacing" textLength="97" x="396" y="125.7539">123456 - Navire 1</text><text fill="#000000" font-family="sans-serif" font-size="12" lengthAdjust="spacing" textLength="38" x="495" y="125.7539">Zone 2</text><text fill="#000000" font-family="sans-serif" font-size="12" lengthAdjust="spacing" textLength="134" x="580" y="125.7539">Ench&#232;res - HAM / Cri&#233;es</text><path d="M717.09,112.8047 C717.03,112.8047 717,112.8447 717,112.8947 L717,118.7047 C717,118.7547 717.04,118.7947 717.09,118.7947 L723,118.7947 L725,120.7947 L725,112.8847 C725,112.8247 724.96,112.7947 724.91,112.7947 L717.1,112.7947 " fill="#000000" style="stroke:;stroke-width:0.0;stroke-dasharray:;"/><path d="M729,112.8047 L729,115.8047 L734,120.8047 L737,117.8047 L732,112.8047 L729,112.8047 M731,113.8047 C731.55,113.8047 732,114.2547 732,114.8047 C732,115.3547 731.55,115.8047 731,115.8047 C730.45,115.8047 730,115.3547 730,114.8047 C730,114.2547 730.45,113.8047 731,113.8047 " fill="#000000" style="stroke:;stroke-width:0.0;stroke-dasharray:;"/><text fill="#000000" font-family="sans-serif" font-size="12" lengthAdjust="spacing" textLength="100" x="7" y="143.7148">BIL - Istiophoridae</text><text fill="#000000" font-family="sans-serif" font-size="12" lengthAdjust="spacing" textLength="188" x="146" y="143.7148">BIL - Makaires,marlins,voiliers nca</text><text fill="#000000" font-family="sans-serif" font-size="12" lengthAdjust="spacing" textLength="3" x="356" y="143.7148">.</text><rect fill="none" height="10" style="stroke:#000000;stroke-width:1.5;" width="10" x="338" y="133.7461"/><path d="M729,130.7656 L729,133.7656 L734,138.7656 L737,135.7656 L732,130.7656 L729,130.7656 M731,131.7656 C731.55,131.7656 732,132.2156 732,132.7656 C732,133.3156 731.55,133.7656 731,133.7656 C730.45,133.7656 730,133.3156 730,132.7656 C730,132.2156 730.45,131.7656 731,131.7656 " fill="#000000" style="stroke:;stroke-width:0.0;stroke-dasharray:;"/><text fill="#000000" font-family="sans-serif" font-size="12" lengthAdjust="spacing" textLength="137" x="7" y="161.6758">BLF - Thunnus atlanticus</text><text fill="#000000" font-family="sans-serif" font-size="12" lengthAdjust="spacing" textLength="167" x="146" y="161.6758">BLF - Thon &#224; nageoires noires</text><text fill="#000000" font-family="sans-serif" font-size="12" lengthAdjust="spacing" textLength="3" x="356" y="161.6758">.</text><rect fill="none" height="10" style="stroke:#000000;stroke-width:1.5;" width="10" x="338" y="151.707"/><polygon fill="#000000" points="339,154.7266,342,157.7266,349,148.7266,342,155.7266" style="stroke:#000000;stroke-width:1.5;"/><text fill="#000000" font-family="sans-serif" font-size="12" lengthAdjust="spacing" textLength="97" x="396" y="161.6758">456789 - Navire 2</text><text fill="#000000" font-family="sans-serif" font-size="12" lengthAdjust="spacing" textLength="38" x="495" y="161.6758">Zone 1</text><text fill="#000000" font-family="sans-serif" font-size="12" lengthAdjust="spacing" textLength="134" x="580" y="161.6758">Ench&#232;res - HAM / Cri&#233;es</text><path d="M717.09,148.7266 C717.03,148.7266 717,148.7666 717,148.8166 L717,154.6266 C717,154.6766 717.04,154.7166 717.09,154.7166 L723,154.7166 L725,156.7166 L725,148.8066 C725,148.7466 724.96,148.7166 724.91,148.7166 L717.1,148.7166 " fill="#000000" style="stroke:;stroke-width:0.0;stroke-dasharray:;"/><path d="M729,148.7266 L729,151.7266 L734,156.7266 L737,153.7266 L732,148.7266 L729,148.7266 M731,149.7266 C731.55,149.7266 732,150.1766 732,150.7266 C732,151.2766 731.55,151.7266 731,151.7266 C730.45,151.7266 730,151.2766 730,150.7266 C730,150.1766 730.45,149.7266 731,149.7266 " fill="#000000" style="stroke:;stroke-width:0.0;stroke-dasharray:;"/><text fill="#000000" font-family="sans-serif" font-size="12" lengthAdjust="spacing" textLength="98" x="7" y="179.6367">BLT - Auxis rochei</text><text fill="#000000" font-family="sans-serif" font-size="12" lengthAdjust="spacing" textLength="74" x="146" y="179.6367">BLT - Bonitou</text><text fill="#000000" font-family="sans-serif" font-size="12" lengthAdjust="spacing" textLength="3" x="356" y="179.6367">.</text><rect fill="none" height="10" style="stroke:#000000;stroke-width:1.5;" width="10" x="338" y="169.668"/><line style="stroke:#AAAAAA;stroke-width:1.0;stroke-dasharray:1.0,2.0;" x1="7" x2="145" y1="193.1289" y2="193.1289"/><text fill="#000000" font-family="sans-serif" font-size="12" lengthAdjust="spacing" textLength="3" x="356" y="197.5977">.</text><rect fill="none" height="10" style="stroke:#000000;stroke-width:1.5;" width="10" x="338" y="187.6289"/><line style="stroke:#000000;stroke-width:1.0;" x1="6" x2="145" y1="75.8828" y2="75.8828"/><line style="stroke:#000000;stroke-width:1.0;" x1="145" x2="335" y1="75.8828" y2="75.8828"/><line style="stroke:#000000;stroke-width:1.0;" x1="335" x2="395" y1="75.8828" y2="75.8828"/><line style="stroke:#000000;stroke-width:1.0;" x1="395" x2="494" y1="75.8828" y2="75.8828"/><line style="stroke:#000000;stroke-width:1.0;" x1="494" x2="579" y1="75.8828" y2="75.8828"/><line style="stroke:#000000;stroke-width:1.0;" x1="579" x2="715" y1="75.8828" y2="75.8828"/><line style="stroke:#000000;stroke-width:1.0;" x1="715" x2="727" y1="75.8828" y2="75.8828"/><line style="stroke:#000000;stroke-width:1.0;" x1="727" x2="739" y1="75.8828" y2="75.8828"/><line style="stroke:#000000;stroke-width:1.0;" x1="6" x2="145" y1="129.7656" y2="129.7656"/><line style="stroke:#000000;stroke-width:1.0;" x1="145" x2="335" y1="129.7656" y2="129.7656"/><line style="stroke:#000000;stroke-width:1.0;" x1="335" x2="395" y1="129.7656" y2="129.7656"/><line style="stroke:#000000;stroke-width:1.0;" x1="395" x2="494" y1="129.7656" y2="129.7656"/><line style="stroke:#000000;stroke-width:1.0;" x1="494" x2="579" y1="129.7656" y2="129.7656"/><line style="stroke:#000000;stroke-width:1.0;" x1="579" x2="715" y1="129.7656" y2="129.7656"/><line style="stroke:#000000;stroke-width:1.0;" x1="715" x2="727" y1="129.7656" y2="129.7656"/><line style="stroke:#000000;stroke-width:1.0;" x1="727" x2="739" y1="129.7656" y2="129.7656"/><line style="stroke:#000000;stroke-width:1.0;" x1="6" x2="145" y1="183.6484" y2="183.6484"/><line style="stroke:#000000;stroke-width:1.0;" x1="145" x2="335" y1="183.6484" y2="183.6484"/><line style="stroke:#000000;stroke-width:1.0;" x1="335" x2="395" y1="183.6484" y2="183.6484"/><line style="stroke:#000000;stroke-width:1.0;" x1="395" x2="494" y1="183.6484" y2="183.6484"/><line style="stroke:#000000;stroke-width:1.0;" x1="494" x2="579" y1="183.6484" y2="183.6484"/><line style="stroke:#000000;stroke-width:1.0;" x1="579" x2="715" y1="183.6484" y2="183.6484"/><line style="stroke:#000000;stroke-width:1.0;" x1="715" x2="727" y1="183.6484" y2="183.6484"/><line style="stroke:#000000;stroke-width:1.0;" x1="727" x2="739" y1="183.6484" y2="183.6484"/><line style="stroke:#000000;stroke-width:1.0;" x1="6" x2="145" y1="93.8438" y2="93.8438"/><line style="stroke:#000000;stroke-width:1.0;" x1="145" x2="335" y1="93.8438" y2="93.8438"/><line style="stroke:#000000;stroke-width:1.0;" x1="335" x2="395" y1="93.8438" y2="93.8438"/><line style="stroke:#000000;stroke-width:1.0;" x1="395" x2="494" y1="93.8438" y2="93.8438"/><line style="stroke:#000000;stroke-width:1.0;" x1="494" x2="579" y1="93.8438" y2="93.8438"/><line style="stroke:#000000;stroke-width:1.0;" x1="579" x2="715" y1="93.8438" y2="93.8438"/><line style="stroke:#000000;stroke-width:1.0;" x1="715" x2="727" y1="93.8438" y2="93.8438"/><line style="stroke:#000000;stroke-width:1.0;" x1="727" x2="739" y1="93.8438" y2="93.8438"/><line style="stroke:#000000;stroke-width:1.0;" x1="6" x2="145" y1="147.7266" y2="147.7266"/><line style="stroke:#000000;stroke-width:1.0;" x1="145" x2="335" y1="147.7266" y2="147.7266"/><line style="stroke:#000000;stroke-width:1.0;" x1="335" x2="395" y1="147.7266" y2="147.7266"/><line style="stroke:#000000;stroke-width:1.0;" x1="395" x2="494" y1="147.7266" y2="147.7266"/><line style="stroke:#000000;stroke-width:1.0;" x1="494" x2="579" y1="147.7266" y2="147.7266"/><line style="stroke:#000000;stroke-width:1.0;" x1="579" x2="715" y1="147.7266" y2="147.7266"/><line style="stroke:#000000;stroke-width:1.0;" x1="715" x2="727" y1="147.7266" y2="147.7266"/><line style="stroke:#000000;stroke-width:1.0;" x1="727" x2="739" y1="147.7266" y2="147.7266"/><line style="stroke:#000000;stroke-width:1.0;" x1="6" x2="145" y1="201.6094" y2="201.6094"/><line style="stroke:#000000;stroke-width:1.0;" x1="145" x2="335" y1="201.6094" y2="201.6094"/><line style="stroke:#000000;stroke-width:1.0;" x1="335" x2="395" y1="201.6094" y2="201.6094"/><line style="stroke:#000000;stroke-width:1.0;" x1="395" x2="494" y1="201.6094" y2="201.6094"/><line style="stroke:#000000;stroke-width:1.0;" x1="494" x2="579" y1="201.6094" y2="201.6094"/><line style="stroke:#000000;stroke-width:1.0;" x1="579" x2="715" y1="201.6094" y2="201.6094"/><line style="stroke:#000000;stroke-width:1.0;" x1="715" x2="727" y1="201.6094" y2="201.6094"/><line style="stroke:#000000;stroke-width:1.0;" x1="727" x2="739" y1="201.6094" y2="201.6094"/><line style="stroke:#000000;stroke-width:1.0;" x1="6" x2="145" y1="111.8047" y2="111.8047"/><line style="stroke:#000000;stroke-width:1.0;" x1="145" x2="335" y1="111.8047" y2="111.8047"/><line style="stroke:#000000;stroke-width:1.0;" x1="335" x2="395" y1="111.8047" y2="111.8047"/><line style="stroke:#000000;stroke-width:1.0;" x1="395" x2="494" y1="111.8047" y2="111.8047"/><line style="stroke:#000000;stroke-width:1.0;" x1="494" x2="579" y1="111.8047" y2="111.8047"/><line style="stroke:#000000;stroke-width:1.0;" x1="579" x2="715" y1="111.8047" y2="111.8047"/><line style="stroke:#000000;stroke-width:1.0;" x1="715" x2="727" y1="111.8047" y2="111.8047"/><line style="stroke:#000000;stroke-width:1.0;" x1="727" x2="739" y1="111.8047" y2="111.8047"/><line style="stroke:#000000;stroke-width:1.0;" x1="6" x2="145" y1="165.6875" y2="165.6875"/><line style="stroke:#000000;stroke-width:1.0;" x1="145" x2="335" y1="165.6875" y2="165.6875"/><line style="stroke:#000000;stroke-width:1.0;" x1="335" x2="395" y1="165.6875" y2="165.6875"/><line style="stroke:#000000;stroke-width:1.0;" x1="395" x2="494" y1="165.6875" y2="165.6875"/><line style="stroke:#000000;stroke-width:1.0;" x1="494" x2="579" y1="165.6875" y2="165.6875"/><line style="stroke:#000000;stroke-width:1.0;" x1="579" x2="715" y1="165.6875" y2="165.6875"/><line style="stroke:#000000;stroke-width:1.0;" x1="715" x2="727" y1="165.6875" y2="165.6875"/><line style="stroke:#000000;stroke-width:1.0;" x1="727" x2="739" y1="165.6875" y2="165.6875"/><line style="stroke:#000000;stroke-width:1.0;" x1="6" x2="6" y1="75.8828" y2="93.8438"/><line style="stroke:#000000;stroke-width:1.0;" x1="145" x2="145" y1="75.8828" y2="93.8438"/><line style="stroke:#000000;stroke-width:1.0;" x1="335" x2="335" y1="75.8828" y2="93.8438"/><line style="stroke:#000000;stroke-width:1.0;" x1="395" x2="395" y1="75.8828" y2="93.8438"/><line style="stroke:#000000;stroke-width:1.0;" x1="494" x2="494" y1="75.8828" y2="93.8438"/><line style="stroke:#000000;stroke-width:1.0;" x1="579" x2="579" y1="75.8828" y2="93.8438"/><line style="stroke:#000000;stroke-width:1.0;" x1="715" x2="715" y1="75.8828" y2="93.8438"/><line style="stroke:#000000;stroke-width:1.0;" x1="727" x2="727" y1="75.8828" y2="93.8438"/><line style="stroke:#000000;stroke-width:1.0;" x1="739" x2="739" y1="75.8828" y2="93.8438"/><line style="stroke:#000000;stroke-width:1.0;" x1="6" x2="6" y1="129.7656" y2="147.7266"/><line style="stroke:#000000;stroke-width:1.0;" x1="145" x2="145" y1="129.7656" y2="147.7266"/><line style="stroke:#000000;stroke-width:1.0;" x1="335" x2="335" y1="129.7656" y2="147.7266"/><line style="stroke:#000000;stroke-width:1.0;" x1="395" x2="395" y1="129.7656" y2="147.7266"/><line style="stroke:#000000;stroke-width:1.0;" x1="494" x2="494" y1="129.7656" y2="147.7266"/><line style="stroke:#000000;stroke-width:1.0;" x1="579" x2="579" y1="129.7656" y2="147.7266"/><line style="stroke:#000000;stroke-width:1.0;" x1="715" x2="715" y1="129.7656" y2="147.7266"/><line style="stroke:#000000;stroke-width:1.0;" x1="727" x2="727" y1="129.7656" y2="147.7266"/><line style="stroke:#000000;stroke-width:1.0;" x1="739" x2="739" y1="129.7656" y2="147.7266"/><line style="stroke:#000000;stroke-width:1.0;" x1="6" x2="6" y1="183.6484" y2="201.6094"/><line style="stroke:#000000;stroke-width:1.0;" x1="145" x2="145" y1="183.6484" y2="201.6094"/><line style="stroke:#000000;stroke-width:1.0;" x1="335" x2="335" y1="183.6484" y2="201.6094"/><line style="stroke:#000000;stroke-width:1.0;" x1="395" x2="395" y1="183.6484" y2="201.6094"/><line style="stroke:#000000;stroke-width:1.0;" x1="494" x2="494" y1="183.6484" y2="201.6094"/><line style="stroke:#000000;stroke-width:1.0;" x1="579" x2="579" y1="183.6484" y2="201.6094"/><line style="stroke:#000000;stroke-width:1.0;" x1="715" x2="715" y1="183.6484" y2="201.6094"/><line style="stroke:#000000;stroke-width:1.0;" x1="727" x2="727" y1="183.6484" y2="201.6094"/><line style="stroke:#000000;stroke-width:1.0;" x1="739" x2="739" y1="183.6484" y2="201.6094"/><line style="stroke:#000000;stroke-width:1.0;" x1="6" x2="6" y1="93.8438" y2="111.8047"/><line style="stroke:#000000;stroke-width:1.0;" x1="145" x2="145" y1="93.8438" y2="111.8047"/><line style="stroke:#000000;stroke-width:1.0;" x1="335" x2="335" y1="93.8438" y2="111.8047"/><line style="stroke:#000000;stroke-width:1.0;" x1="395" x2="395" y1="93.8438" y2="111.8047"/><line style="stroke:#000000;stroke-width:1.0;" x1="494" x2="494" y1="93.8438" y2="111.8047"/><line style="stroke:#000000;stroke-width:1.0;" x1="579" x2="579" y1="93.8438" y2="111.8047"/><line style="stroke:#000000;stroke-width:1.0;" x1="715" x2="715" y1="93.8438" y2="111.8047"/><line style="stroke:#000000;stroke-width:1.0;" x1="727" x2="727" y1="93.8438" y2="111.8047"/><line style="stroke:#000000;stroke-width:1.0;" x1="739" x2="739" y1="93.8438" y2="111.8047"/><line style="stroke:#000000;stroke-width:1.0;" x1="6" x2="6" y1="147.7266" y2="165.6875"/><line style="stroke:#000000;stroke-width:1.0;" x1="145" x2="145" y1="147.7266" y2="165.6875"/><line style="stroke:#000000;stroke-width:1.0;" x1="335" x2="335" y1="147.7266" y2="165.6875"/><line style="stroke:#000000;stroke-width:1.0;" x1="395" x2="395" y1="147.7266" y2="165.6875"/><line style="stroke:#000000;stroke-width:1.0;" x1="494" x2="494" y1="147.7266" y2="165.6875"/><line style="stroke:#000000;stroke-width:1.0;" x1="579" x2="579" y1="147.7266" y2="165.6875"/><line style="stroke:#000000;stroke-width:1.0;" x1="715" x2="715" y1="147.7266" y2="165.6875"/><line style="stroke:#000000;stroke-width:1.0;" x1="727" x2="727" y1="147.7266" y2="165.6875"/><line style="stroke:#000000;stroke-width:1.0;" x1="739" x2="739" y1="147.7266" y2="165.6875"/><line style="stroke:#000000;stroke-width:1.0;" x1="6" x2="6" y1="111.8047" y2="129.7656"/><line style="stroke:#000000;stroke-width:1.0;" x1="145" x2="145" y1="111.8047" y2="129.7656"/><line style="stroke:#000000;stroke-width:1.0;" x1="335" x2="335" y1="111.8047" y2="129.7656"/><line style="stroke:#000000;stroke-width:1.0;" x1="395" x2="395" y1="111.8047" y2="129.7656"/><line style="stroke:#000000;stroke-width:1.0;" x1="494" x2="494" y1="111.8047" y2="129.7656"/><line style="stroke:#000000;stroke-width:1.0;" x1="579" x2="579" y1="111.8047" y2="129.7656"/><line style="stroke:#000000;stroke-width:1.0;" x1="715" x2="715" y1="111.8047" y2="129.7656"/><line style="stroke:#000000;stroke-width:1.0;" x1="727" x2="727" y1="111.8047" y2="129.7656"/><line style="stroke:#000000;stroke-width:1.0;" x1="739" x2="739" y1="111.8047" y2="129.7656"/><line style="stroke:#000000;stroke-width:1.0;" x1="6" x2="6" y1="165.6875" y2="183.6484"/><line style="stroke:#000000;stroke-width:1.0;" x1="145" x2="145" y1="165.6875" y2="183.6484"/><line style="stroke:#000000;stroke-width:1.0;" x1="335" x2="335" y1="165.6875" y2="183.6484"/><line style="stroke:#000000;stroke-width:1.0;" x1="395" x2="395" y1="165.6875" y2="183.6484"/><line style="stroke:#000000;stroke-width:1.0;" x1="494" x2="494" y1="165.6875" y2="183.6484"/><line style="stroke:#000000;stroke-width:1.0;" x1="579" x2="579" y1="165.6875" y2="183.6484"/><line style="stroke:#000000;stroke-width:1.0;" x1="715" x2="715" y1="165.6875" y2="183.6484"/><line style="stroke:#000000;stroke-width:1.0;" x1="727" x2="727" y1="165.6875" y2="183.6484"/><line style="stroke:#000000;stroke-width:1.0;" x1="739" x2="739" y1="165.6875" y2="183.6484"/><line style="stroke:#AAAAAA;stroke-width:1.0;" x1="6" x2="740" y1="207.1094" y2="207.1094"/><rect fill="#EEEEEE" height="19.9609" rx="5" ry="5" style="stroke:#000000;stroke-width:2.5;" width="52" x="9.5" y="215.1094"/><text fill="#000000" font-family="sans-serif" font-size="12" lengthAdjust="spacing" textLength="40" x="15.5" y="230.0586">Fermer</text><rect fill="#EEEEEE" height="19.9609" rx="5" ry="5" style="stroke:#000000;stroke-width:2.5;" width="92" x="68.5" y="215.1094"/><text fill="#000000" font-family="sans-serif" font-size="12" lengthAdjust="spacing" textLength="70" x="79.5" y="230.0586">Sauvegarder</text><!--SRC=[ZLFhJXf15FxTUOgJDB6GoC8kNecb8fTM2vKeDKsDFuRT4IPTPd0kf1PzWBv5VsfVOr-iPsO1ZMsZc-pkp7VktpbdNnkgZAQf8NC2i3UijwIbIZ31Va09AZlbIbIEAb64mb89F_CoG2kxDvId6cwS0MG_up4LXgUf58AEcCSRrYWyCJtDxcAcwr3ejmUdnLjq4GJkGrxDNnCyk0Uzj7D5YELambJCQSfozqk1ZZd389VyoZB8HST3pTGikuTt-VqJdN6rCFig1OE4mJJx7O-PXmRNKm_Dq8_J2joxo00EsWEiTp2sGbWDSiYqTNKiOIaGo-uqAxpjKsCJMKJX-PSBvoECgXkRMwYsY1yYviExGrl4u-pEKL623uqUbA6fU7RlINB6Usk6ZkghB3gFip3ZQ_-_MU6OXf9svCj8tpHCwdXtXDp0izb4psIpj-Qv5wQaht04MFtlx0wxQ7Ue3PVJiLGyeIvmZlReDuhXzFg4gfGBlJwJFELCQH0nTLo1p-xf-oH0j_EeV9gN5-SCB4J8GFOBt9X95mv4_bir0slVtjbzA3zwQJDUK7xNDQ5XltEDNS2fuZul1nv8mOsqUPtmhq9NWnO4I-Z_gbxtDbyvTvbxuBp35Ex6XJCzfNR6HbGbU2TEzvRiCv7uHIPznzldNXSdNMcEZ8K1hd0r2Ak57jvQB8OmX72t5bLgczlGn1btyY8flEztGKkhSDyIhetYGulD5aLoH6SKJYosOy9gS3nbugZrSGaWhyYr58uzSdJMUr3OsYWTS0EdkAPCmLcFjDWbjQbndP095wCQDATXj1cHBXKZYrsjmQKYJOcErNKDEYT_0000]--></g></svg>