<?xml version="1.0" encoding="us-ascii" standalone="no"?><svg xmlns="http://www.w3.org/2000/svg" xmlns:xlink="http://www.w3.org/1999/xlink" contentStyleType="text/css" height="304px" preserveAspectRatio="none" style="width:1036px;height:304px;background:#FFFFFF;" version="1.1" viewBox="0 0 1036 304" width="1036px" zoomAndPan="magnify"><defs/><g><text fill="#000000" font-family="sans-serif" font-size="12" font-weight="bold" lengthAdjust="spacing" textLength="140" x="6" y="18.9492">Douarnenez - 08/02/2022</text><line style="stroke:#AAAAAA;stroke-width:1.0;" x1="6" x2="1029" y1="27.4609" y2="27.4609"/><text fill="#000000" font-family="sans-serif" font-size="12" lengthAdjust="spacing" textLength="39" x="8" y="44.9102">D&#233;tails</text><line style="stroke:#000000;stroke-width:1.0;" x1="6" x2="6" y1="31.9609" y2="47.9219"/><line style="stroke:#000000;stroke-width:1.0;" x1="6" x2="50" y1="31.9609" y2="31.9609"/><line style="stroke:#000000;stroke-width:1.0;" x1="50" x2="50" y1="31.9609" y2="47.9219"/><line style="stroke:#000000;stroke-width:1.0;" x1="50" x2="60" y1="47.9219" y2="47.9219"/><text fill="#000000" font-family="sans-serif" font-size="12" font-weight="bold" lengthAdjust="spacing" textLength="97" x="65" y="44.9102">&#201;chantillonnages</text><line style="stroke:#000000;stroke-width:1.0;" x1="60" x2="60" y1="31.9609" y2="47.9219"/><line style="stroke:#000000;stroke-width:1.0;" x1="60" x2="165" y1="31.9609" y2="31.9609"/><line style="stroke:#000000;stroke-width:1.0;" x1="165" x2="165" y1="31.9609" y2="47.9219"/><line style="stroke:#000000;stroke-width:1.0;" x1="165" x2="175" y1="47.9219" y2="47.9219"/><text fill="#000000" font-family="sans-serif" font-size="12" lengthAdjust="spacing" textLength="142" x="177" y="44.9102">&lt;Autres esp&#232;ces&gt; (PETS)</text><line style="stroke:#000000;stroke-width:1.0;" x1="175" x2="175" y1="31.9609" y2="47.9219"/><line style="stroke:#000000;stroke-width:1.0;" x1="175" x2="322" y1="31.9609" y2="31.9609"/><line style="stroke:#000000;stroke-width:1.0;" x1="322" x2="322" y1="31.9609" y2="47.9219"/><line style="stroke:#000000;stroke-width:1.0;" x1="322" x2="332" y1="47.9219" y2="47.9219"/><line style="stroke:#AAAAAA;stroke-width:1.0;stroke-dasharray:1.0,2.0;" x1="6" x2="1029" y1="53.4219" y2="53.4219"/><text fill="#000000" font-family="sans-serif" font-size="12" font-weight="bold" lengthAdjust="spacing" textLength="42" x="7" y="89.832">Priorit&#233;</text><text fill="#000000" font-family="sans-serif" font-size="12" font-weight="bold" lengthAdjust="spacing" textLength="120" x="51" y="89.832">Esp&#232;ce commerciale</text><text fill="#000000" font-family="sans-serif" font-size="12" font-weight="bold" lengthAdjust="spacing" textLength="111" x="183" y="89.832">Esp&#232;ce scientifique</text><text fill="#000000" font-family="sans-serif" font-size="12" font-weight="bold" lengthAdjust="spacing" textLength="58" x="338" y="89.832">Observ&#233; ?</text><text fill="#000000" font-family="sans-serif" font-size="12" font-weight="bold" lengthAdjust="spacing" textLength="150" x="398" y="89.832">Raison de non observation</text><text fill="#000000" font-family="sans-serif" font-size="12" font-weight="bold" lengthAdjust="spacing" textLength="36" x="552" y="89.832">Navire</text><text fill="#000000" font-family="sans-serif" font-size="12" font-weight="bold" lengthAdjust="spacing" textLength="83" x="651" y="89.832">Zone de p&#234;che</text><text fill="#000000" font-family="sans-serif" font-size="12" font-weight="bold" lengthAdjust="spacing" textLength="78" x="869" y="89.832">Type de vente</text><text fill="#000000" font-family="sans-serif" font-size="12" lengthAdjust="spacing" textLength="7" x="7" y="107.793">1</text><text fill="#000000" font-family="sans-serif" font-size="12" lengthAdjust="spacing" textLength="92" x="51" y="107.793">POL - Lieu jaune</text><text fill="#000000" font-family="sans-serif" font-size="12" lengthAdjust="spacing" textLength="152" x="183" y="107.793">POL - Pollachius pollachius</text><text fill="#000000" font-family="sans-serif" font-size="12" lengthAdjust="spacing" textLength="3" x="358" y="107.793">.</text><rect fill="none" height="10" style="stroke:#000000;stroke-width:1.5;" width="10" x="340" y="97.8242"/><polygon fill="#000000" points="341,100.8438,344,103.8438,351,94.8438,344,101.8438" style="stroke:#000000;stroke-width:1.5;"/><text fill="#000000" font-family="sans-serif" font-size="12" lengthAdjust="spacing" textLength="97" x="552" y="107.793">851751 - Navire 1</text><text fill="#000000" font-family="sans-serif" font-size="12" lengthAdjust="spacing" textLength="201" x="651" y="107.793">008B00 - CIEM VIIIb (Sud Gascogne)</text><text fill="#000000" font-family="sans-serif" font-size="12" lengthAdjust="spacing" textLength="134" x="869" y="107.793">Ench&#232;res - HAM / Cri&#233;es</text><path d="M1018,94.8438 L1018,102.8438 L1025,102.8438 L1025,98.8438 L1021,98.8438 L1021,94.8438 L1018,94.8438 M1022,94.8438 L1022,97.8438 L1025,97.8438 L1022,94.8438 M1019,96.8438 L1020,96.8438 L1020,97.8438 L1019,97.8438 L1019,96.8438 M1019,98.8438 L1020,98.8438 L1020,99.8438 L1019,99.8438 L1019,98.8438 M1019,100.8438 L1023,100.8438 L1023,101.8438 L1019,101.8438 L1019,100.8438 " fill="#000000" style="stroke:;stroke-width:0.0;stroke-dasharray:;"/><text fill="#000000" font-family="sans-serif" font-size="12" lengthAdjust="spacing" textLength="7" x="7" y="125.7539">2</text><text fill="#000000" font-family="sans-serif" font-size="12" lengthAdjust="spacing" textLength="85" x="51" y="125.7539">MNZ - Baudroie</text><text fill="#000000" font-family="sans-serif" font-size="12" lengthAdjust="spacing" textLength="3" x="358" y="125.7539">.</text><rect fill="none" height="10" style="stroke:#000000;stroke-width:1.5;" width="10" x="340" y="115.7852"/><polygon fill="#000000" points="341,118.8047,344,121.8047,351,112.8047,344,119.8047" style="stroke:#000000;stroke-width:1.5;"/><text fill="#000000" font-family="sans-serif" font-size="12" lengthAdjust="spacing" textLength="97" x="552" y="125.7539">851751 - Navire 1</text><text fill="#000000" font-family="sans-serif" font-size="12" lengthAdjust="spacing" textLength="201" x="651" y="125.7539">008B00 - CIEM VIIIb (Sud Gascogne)</text><text fill="#000000" font-family="sans-serif" font-size="12" lengthAdjust="spacing" textLength="134" x="869" y="125.7539">Ench&#232;res - HAM / Cri&#233;es</text><path d="M1006.09,112.8047 C1006.03,112.8047 1006,112.8447 1006,112.8947 L1006,118.7047 C1006,118.7547 1006.04,118.7947 1006.09,118.7947 L1012,118.7947 L1014,120.7947 L1014,112.8847 C1014,112.8247 1013.96,112.7947 1013.91,112.7947 L1006.1,112.7947 " fill="#000000" style="stroke:;stroke-width:0.0;stroke-dasharray:;"/><path d="M1018,112.8047 L1018,120.8047 L1025,120.8047 L1025,116.8047 L1021,116.8047 L1021,112.8047 L1018,112.8047 M1022,112.8047 L1022,115.8047 L1025,115.8047 L1022,112.8047 M1019,114.8047 L1020,114.8047 L1020,115.8047 L1019,115.8047 L1019,114.8047 M1019,116.8047 L1020,116.8047 L1020,117.8047 L1019,117.8047 L1019,116.8047 M1019,118.8047 L1023,118.8047 L1023,119.8047 L1019,119.8047 L1019,118.8047 " fill="#000000" style="stroke:;stroke-width:0.0;stroke-dasharray:;"/><text fill="#000000" font-family="sans-serif" font-size="12" lengthAdjust="spacing" textLength="7" x="7" y="143.7148">3</text><text fill="#000000" font-family="sans-serif" font-size="12" lengthAdjust="spacing" textLength="130" x="51" y="143.7148">PIL - Sardine commune</text><text fill="#000000" font-family="sans-serif" font-size="12" lengthAdjust="spacing" textLength="132" x="183" y="143.7148">PIL - Sardina pilchardus</text><text fill="#000000" font-family="sans-serif" font-size="12" lengthAdjust="spacing" textLength="3" x="358" y="143.7148">.</text><rect fill="none" height="10" style="stroke:#000000;stroke-width:1.5;" width="10" x="340" y="133.7461"/><rect fill="#EEEEEE" height="18.9609" style="stroke:#000000;stroke-width:1.0;" width="151" x="398" y="130.7656"/><text fill="#000000" font-family="sans-serif" font-size="12" lengthAdjust="spacing" textLength="90" x="400" y="145.7148">Esp&#232;ce absente</text><line style="stroke:#000000;stroke-width:1.0;" x1="538" x2="538" y1="130.7656" y2="149.7266"/><polygon fill="#000000" points="541,136.7656,547,136.7656,544,144.7266" style="stroke:#000000;stroke-width:1.0;"/><path d="M1018,130.7656 L1018,138.7656 L1025,138.7656 L1025,134.7656 L1021,134.7656 L1021,130.7656 L1018,130.7656 M1022,130.7656 L1022,133.7656 L1025,133.7656 L1022,130.7656 M1019,132.7656 L1020,132.7656 L1020,133.7656 L1019,133.7656 L1019,132.7656 M1019,134.7656 L1020,134.7656 L1020,135.7656 L1019,135.7656 L1019,134.7656 M1019,136.7656 L1023,136.7656 L1023,137.7656 L1019,137.7656 L1019,136.7656 " fill="#000000" style="stroke:;stroke-width:0.0;stroke-dasharray:;"/><text fill="#000000" font-family="sans-serif" font-size="12" lengthAdjust="spacing" textLength="7" x="7" y="165.6758">4</text><text fill="#000000" font-family="sans-serif" font-size="12" lengthAdjust="spacing" textLength="104" x="51" y="165.6758">NEP - Langoustine</text><text fill="#000000" font-family="sans-serif" font-size="12" lengthAdjust="spacing" textLength="153" x="183" y="165.6758">NEP - Nephrops norvegicus</text><text fill="#000000" font-family="sans-serif" font-size="12" lengthAdjust="spacing" textLength="3" x="358" y="165.6758">.</text><rect fill="none" height="10" style="stroke:#000000;stroke-width:1.5;" width="10" x="340" y="155.707"/><polygon fill="#000000" points="341,158.7266,344,161.7266,351,152.7266,344,159.7266" style="stroke:#000000;stroke-width:1.5;"/><text fill="#000000" font-family="sans-serif" font-size="12" lengthAdjust="spacing" textLength="97" x="552" y="165.6758">741541 - Navire 2</text><text fill="#000000" font-family="sans-serif" font-size="12" lengthAdjust="spacing" textLength="216" x="651" y="165.6758">008B00 - CIEM VIIId (Centre Gascogne)</text><text fill="#000000" font-family="sans-serif" font-size="12" lengthAdjust="spacing" textLength="134" x="869" y="165.6758">Ench&#232;res - HAM / Cri&#233;es</text><path d="M1006.09,152.7266 C1006.03,152.7266 1006,152.7666 1006,152.8166 L1006,158.6266 C1006,158.6766 1006.04,158.7166 1006.09,158.7166 L1012,158.7166 L1014,160.7166 L1014,152.8066 C1014,152.7466 1013.96,152.7166 1013.91,152.7166 L1006.1,152.7166 " fill="#000000" style="stroke:;stroke-width:0.0;stroke-dasharray:;"/><path d="M1018,152.7266 L1018,160.7266 L1025,160.7266 L1025,156.7266 L1021,156.7266 L1021,152.7266 L1018,152.7266 M1022,152.7266 L1022,155.7266 L1025,155.7266 L1022,152.7266 M1019,154.7266 L1020,154.7266 L1020,155.7266 L1019,155.7266 L1019,154.7266 M1019,156.7266 L1020,156.7266 L1020,157.7266 L1019,157.7266 L1019,156.7266 M1019,158.7266 L1023,158.7266 L1023,159.7266 L1019,159.7266 L1019,158.7266 " fill="#000000" style="stroke:;stroke-width:0.0;stroke-dasharray:;"/><text fill="#000000" font-family="sans-serif" font-size="12" lengthAdjust="spacing" textLength="7" x="7" y="183.6367">5</text><text fill="#000000" font-family="sans-serif" font-size="12" lengthAdjust="spacing" textLength="92" x="51" y="183.6367">POL - Lieu jaune</text><text fill="#000000" font-family="sans-serif" font-size="12" lengthAdjust="spacing" textLength="152" x="183" y="183.6367">POL - Pollachius pollachius</text><text fill="#000000" font-family="sans-serif" font-size="12" lengthAdjust="spacing" textLength="3" x="358" y="183.6367">.</text><rect fill="none" height="10" style="stroke:#000000;stroke-width:1.5;" width="10" x="340" y="173.668"/><polygon fill="#000000" points="341,176.6875,344,179.6875,351,170.6875,344,177.6875" style="stroke:#000000;stroke-width:1.5;"/><text fill="#000000" font-family="sans-serif" font-size="12" lengthAdjust="spacing" textLength="97" x="552" y="183.6367">741541 - Navire 2</text><text fill="#000000" font-family="sans-serif" font-size="12" lengthAdjust="spacing" textLength="216" x="651" y="183.6367">008B00 - CIEM VIIId (Centre Gascogne)</text><text fill="#000000" font-family="sans-serif" font-size="12" lengthAdjust="spacing" textLength="134" x="869" y="183.6367">Ench&#232;res - HAM / Cri&#233;es</text><path d="M1018,170.6875 L1018,178.6875 L1025,178.6875 L1025,174.6875 L1021,174.6875 L1021,170.6875 L1018,170.6875 M1022,170.6875 L1022,173.6875 L1025,173.6875 L1022,170.6875 M1019,172.6875 L1020,172.6875 L1020,173.6875 L1019,173.6875 L1019,172.6875 M1019,174.6875 L1020,174.6875 L1020,175.6875 L1019,175.6875 L1019,174.6875 M1019,176.6875 L1023,176.6875 L1023,177.6875 L1019,177.6875 L1019,176.6875 " fill="#000000" style="stroke:;stroke-width:0.0;stroke-dasharray:;"/><text fill="#000000" font-family="sans-serif" font-size="12" lengthAdjust="spacing" textLength="7" x="7" y="201.5977">6</text><line style="stroke:#AAAAAA;stroke-width:1.0;stroke-dasharray:1.0,2.0;" x1="51" x2="182" y1="197.1289" y2="197.1289"/><text fill="#000000" font-family="sans-serif" font-size="12" lengthAdjust="spacing" textLength="3" x="358" y="201.5977">.</text><rect fill="none" height="10" style="stroke:#000000;stroke-width:1.5;" width="10" x="340" y="191.6289"/><line style="stroke:#000000;stroke-width:1.0;" x1="6" x2="50" y1="75.8828" y2="75.8828"/><line style="stroke:#000000;stroke-width:1.0;" x1="50" x2="182" y1="75.8828" y2="75.8828"/><line style="stroke:#000000;stroke-width:1.0;" x1="182" x2="337" y1="75.8828" y2="75.8828"/><line style="stroke:#000000;stroke-width:1.0;" x1="337" x2="397" y1="75.8828" y2="75.8828"/><line style="stroke:#000000;stroke-width:1.0;" x1="397" x2="551" y1="75.8828" y2="75.8828"/><line style="stroke:#000000;stroke-width:1.0;" x1="551" x2="650" y1="75.8828" y2="75.8828"/><line style="stroke:#000000;stroke-width:1.0;" x1="650" x2="868" y1="75.8828" y2="75.8828"/><line style="stroke:#000000;stroke-width:1.0;" x1="868" x2="1004" y1="75.8828" y2="75.8828"/><line style="stroke:#000000;stroke-width:1.0;" x1="1004" x2="1016" y1="75.8828" y2="75.8828"/><line style="stroke:#000000;stroke-width:1.0;" x1="1016" x2="1028" y1="75.8828" y2="75.8828"/><line style="stroke:#000000;stroke-width:1.0;" x1="6" x2="50" y1="129.7656" y2="129.7656"/><line style="stroke:#000000;stroke-width:1.0;" x1="50" x2="182" y1="129.7656" y2="129.7656"/><line style="stroke:#000000;stroke-width:1.0;" x1="182" x2="337" y1="129.7656" y2="129.7656"/><line style="stroke:#000000;stroke-width:1.0;" x1="337" x2="397" y1="129.7656" y2="129.7656"/><line style="stroke:#000000;stroke-width:1.0;" x1="397" x2="551" y1="129.7656" y2="129.7656"/><line style="stroke:#000000;stroke-width:1.0;" x1="551" x2="650" y1="129.7656" y2="129.7656"/><line style="stroke:#000000;stroke-width:1.0;" x1="650" x2="868" y1="129.7656" y2="129.7656"/><line style="stroke:#000000;stroke-width:1.0;" x1="868" x2="1004" y1="129.7656" y2="129.7656"/><line style="stroke:#000000;stroke-width:1.0;" x1="1004" x2="1016" y1="129.7656" y2="129.7656"/><line style="stroke:#000000;stroke-width:1.0;" x1="1016" x2="1028" y1="129.7656" y2="129.7656"/><line style="stroke:#000000;stroke-width:1.0;" x1="6" x2="50" y1="187.6484" y2="187.6484"/><line style="stroke:#000000;stroke-width:1.0;" x1="50" x2="182" y1="187.6484" y2="187.6484"/><line style="stroke:#000000;stroke-width:1.0;" x1="182" x2="337" y1="187.6484" y2="187.6484"/><line style="stroke:#000000;stroke-width:1.0;" x1="337" x2="397" y1="187.6484" y2="187.6484"/><line style="stroke:#000000;stroke-width:1.0;" x1="397" x2="551" y1="187.6484" y2="187.6484"/><line style="stroke:#000000;stroke-width:1.0;" x1="551" x2="650" y1="187.6484" y2="187.6484"/><line style="stroke:#000000;stroke-width:1.0;" x1="650" x2="868" y1="187.6484" y2="187.6484"/><line style="stroke:#000000;stroke-width:1.0;" x1="868" x2="1004" y1="187.6484" y2="187.6484"/><line style="stroke:#000000;stroke-width:1.0;" x1="1004" x2="1016" y1="187.6484" y2="187.6484"/><line style="stroke:#000000;stroke-width:1.0;" x1="1016" x2="1028" y1="187.6484" y2="187.6484"/><line style="stroke:#000000;stroke-width:1.0;" x1="6" x2="50" y1="93.8438" y2="93.8438"/><line style="stroke:#000000;stroke-width:1.0;" x1="50" x2="182" y1="93.8438" y2="93.8438"/><line style="stroke:#000000;stroke-width:1.0;" x1="182" x2="337" y1="93.8438" y2="93.8438"/><line style="stroke:#000000;stroke-width:1.0;" x1="337" x2="397" y1="93.8438" y2="93.8438"/><line style="stroke:#000000;stroke-width:1.0;" x1="397" x2="551" y1="93.8438" y2="93.8438"/><line style="stroke:#000000;stroke-width:1.0;" x1="551" x2="650" y1="93.8438" y2="93.8438"/><line style="stroke:#000000;stroke-width:1.0;" x1="650" x2="868" y1="93.8438" y2="93.8438"/><line style="stroke:#000000;stroke-width:1.0;" x1="868" x2="1004" y1="93.8438" y2="93.8438"/><line style="stroke:#000000;stroke-width:1.0;" x1="1004" x2="1016" y1="93.8438" y2="93.8438"/><line style="stroke:#000000;stroke-width:1.0;" x1="1016" x2="1028" y1="93.8438" y2="93.8438"/><line style="stroke:#000000;stroke-width:1.0;" x1="6" x2="50" y1="151.7266" y2="151.7266"/><line style="stroke:#000000;stroke-width:1.0;" x1="50" x2="182" y1="151.7266" y2="151.7266"/><line style="stroke:#000000;stroke-width:1.0;" x1="182" x2="337" y1="151.7266" y2="151.7266"/><line style="stroke:#000000;stroke-width:1.0;" x1="337" x2="397" y1="151.7266" y2="151.7266"/><line style="stroke:#000000;stroke-width:1.0;" x1="397" x2="551" y1="151.7266" y2="151.7266"/><line style="stroke:#000000;stroke-width:1.0;" x1="551" x2="650" y1="151.7266" y2="151.7266"/><line style="stroke:#000000;stroke-width:1.0;" x1="650" x2="868" y1="151.7266" y2="151.7266"/><line style="stroke:#000000;stroke-width:1.0;" x1="868" x2="1004" y1="151.7266" y2="151.7266"/><line style="stroke:#000000;stroke-width:1.0;" x1="1004" x2="1016" y1="151.7266" y2="151.7266"/><line style="stroke:#000000;stroke-width:1.0;" x1="1016" x2="1028" y1="151.7266" y2="151.7266"/><line style="stroke:#000000;stroke-width:1.0;" x1="6" x2="50" y1="205.6094" y2="205.6094"/><line style="stroke:#000000;stroke-width:1.0;" x1="50" x2="182" y1="205.6094" y2="205.6094"/><line style="stroke:#000000;stroke-width:1.0;" x1="182" x2="337" y1="205.6094" y2="205.6094"/><line style="stroke:#000000;stroke-width:1.0;" x1="337" x2="397" y1="205.6094" y2="205.6094"/><line style="stroke:#000000;stroke-width:1.0;" x1="397" x2="551" y1="205.6094" y2="205.6094"/><line style="stroke:#000000;stroke-width:1.0;" x1="551" x2="650" y1="205.6094" y2="205.6094"/><line style="stroke:#000000;stroke-width:1.0;" x1="650" x2="868" y1="205.6094" y2="205.6094"/><line style="stroke:#000000;stroke-width:1.0;" x1="868" x2="1004" y1="205.6094" y2="205.6094"/><line style="stroke:#000000;stroke-width:1.0;" x1="1004" x2="1016" y1="205.6094" y2="205.6094"/><line style="stroke:#000000;stroke-width:1.0;" x1="1016" x2="1028" y1="205.6094" y2="205.6094"/><line style="stroke:#000000;stroke-width:1.0;" x1="6" x2="50" y1="111.8047" y2="111.8047"/><line style="stroke:#000000;stroke-width:1.0;" x1="50" x2="182" y1="111.8047" y2="111.8047"/><line style="stroke:#000000;stroke-width:1.0;" x1="182" x2="337" y1="111.8047" y2="111.8047"/><line style="stroke:#000000;stroke-width:1.0;" x1="337" x2="397" y1="111.8047" y2="111.8047"/><line style="stroke:#000000;stroke-width:1.0;" x1="397" x2="551" y1="111.8047" y2="111.8047"/><line style="stroke:#000000;stroke-width:1.0;" x1="551" x2="650" y1="111.8047" y2="111.8047"/><line style="stroke:#000000;stroke-width:1.0;" x1="650" x2="868" y1="111.8047" y2="111.8047"/><line style="stroke:#000000;stroke-width:1.0;" x1="868" x2="1004" y1="111.8047" y2="111.8047"/><line style="stroke:#000000;stroke-width:1.0;" x1="1004" x2="1016" y1="111.8047" y2="111.8047"/><line style="stroke:#000000;stroke-width:1.0;" x1="1016" x2="1028" y1="111.8047" y2="111.8047"/><line style="stroke:#000000;stroke-width:1.0;" x1="6" x2="50" y1="169.6875" y2="169.6875"/><line style="stroke:#000000;stroke-width:1.0;" x1="50" x2="182" y1="169.6875" y2="169.6875"/><line style="stroke:#000000;stroke-width:1.0;" x1="182" x2="337" y1="169.6875" y2="169.6875"/><line style="stroke:#000000;stroke-width:1.0;" x1="337" x2="397" y1="169.6875" y2="169.6875"/><line style="stroke:#000000;stroke-width:1.0;" x1="397" x2="551" y1="169.6875" y2="169.6875"/><line style="stroke:#000000;stroke-width:1.0;" x1="551" x2="650" y1="169.6875" y2="169.6875"/><line style="stroke:#000000;stroke-width:1.0;" x1="650" x2="868" y1="169.6875" y2="169.6875"/><line style="stroke:#000000;stroke-width:1.0;" x1="868" x2="1004" y1="169.6875" y2="169.6875"/><line style="stroke:#000000;stroke-width:1.0;" x1="1004" x2="1016" y1="169.6875" y2="169.6875"/><line style="stroke:#000000;stroke-width:1.0;" x1="1016" x2="1028" y1="169.6875" y2="169.6875"/><line style="stroke:#000000;stroke-width:1.0;" x1="6" x2="6" y1="75.8828" y2="93.8438"/><line style="stroke:#000000;stroke-width:1.0;" x1="50" x2="50" y1="75.8828" y2="93.8438"/><line style="stroke:#000000;stroke-width:1.0;" x1="182" x2="182" y1="75.8828" y2="93.8438"/><line style="stroke:#000000;stroke-width:1.0;" x1="337" x2="337" y1="75.8828" y2="93.8438"/><line style="stroke:#000000;stroke-width:1.0;" x1="397" x2="397" y1="75.8828" y2="93.8438"/><line style="stroke:#000000;stroke-width:1.0;" x1="551" x2="551" y1="75.8828" y2="93.8438"/><line style="stroke:#000000;stroke-width:1.0;" x1="650" x2="650" y1="75.8828" y2="93.8438"/><line style="stroke:#000000;stroke-width:1.0;" x1="868" x2="868" y1="75.8828" y2="93.8438"/><line style="stroke:#000000;stroke-width:1.0;" x1="1004" x2="1004" y1="75.8828" y2="93.8438"/><line style="stroke:#000000;stroke-width:1.0;" x1="1016" x2="1016" y1="75.8828" y2="93.8438"/><line style="stroke:#000000;stroke-width:1.0;" x1="1028" x2="1028" y1="75.8828" y2="93.8438"/><line style="stroke:#000000;stroke-width:1.0;" x1="6" x2="6" y1="129.7656" y2="151.7266"/><line style="stroke:#000000;stroke-width:1.0;" x1="50" x2="50" y1="129.7656" y2="151.7266"/><line style="stroke:#000000;stroke-width:1.0;" x1="182" x2="182" y1="129.7656" y2="151.7266"/><line style="stroke:#000000;stroke-width:1.0;" x1="337" x2="337" y1="129.7656" y2="151.7266"/><line style="stroke:#000000;stroke-width:1.0;" x1="397" x2="397" y1="129.7656" y2="151.7266"/><line style="stroke:#000000;stroke-width:1.0;" x1="551" x2="551" y1="129.7656" y2="151.7266"/><line style="stroke:#000000;stroke-width:1.0;" x1="650" x2="650" y1="129.7656" y2="151.7266"/><line style="stroke:#000000;stroke-width:1.0;" x1="868" x2="868" y1="129.7656" y2="151.7266"/><line style="stroke:#000000;stroke-width:1.0;" x1="1004" x2="1004" y1="129.7656" y2="151.7266"/><line style="stroke:#000000;stroke-width:1.0;" x1="1016" x2="1016" y1="129.7656" y2="151.7266"/><line style="stroke:#000000;stroke-width:1.0;" x1="1028" x2="1028" y1="129.7656" y2="151.7266"/><line style="stroke:#000000;stroke-width:1.0;" x1="6" x2="6" y1="187.6484" y2="205.6094"/><line style="stroke:#000000;stroke-width:1.0;" x1="50" x2="50" y1="187.6484" y2="205.6094"/><line style="stroke:#000000;stroke-width:1.0;" x1="182" x2="182" y1="187.6484" y2="205.6094"/><line style="stroke:#000000;stroke-width:1.0;" x1="337" x2="337" y1="187.6484" y2="205.6094"/><line style="stroke:#000000;stroke-width:1.0;" x1="397" x2="397" y1="187.6484" y2="205.6094"/><line style="stroke:#000000;stroke-width:1.0;" x1="551" x2="551" y1="187.6484" y2="205.6094"/><line style="stroke:#000000;stroke-width:1.0;" x1="650" x2="650" y1="187.6484" y2="205.6094"/><line style="stroke:#000000;stroke-width:1.0;" x1="868" x2="868" y1="187.6484" y2="205.6094"/><line style="stroke:#000000;stroke-width:1.0;" x1="1028" x2="1028" y1="187.6484" y2="205.6094"/><line style="stroke:#000000;stroke-width:1.0;" x1="6" x2="6" y1="93.8438" y2="111.8047"/><line style="stroke:#000000;stroke-width:1.0;" x1="50" x2="50" y1="93.8438" y2="111.8047"/><line style="stroke:#000000;stroke-width:1.0;" x1="182" x2="182" y1="93.8438" y2="111.8047"/><line style="stroke:#000000;stroke-width:1.0;" x1="337" x2="337" y1="93.8438" y2="111.8047"/><line style="stroke:#000000;stroke-width:1.0;" x1="397" x2="397" y1="93.8438" y2="111.8047"/><line style="stroke:#000000;stroke-width:1.0;" x1="551" x2="551" y1="93.8438" y2="111.8047"/><line style="stroke:#000000;stroke-width:1.0;" x1="650" x2="650" y1="93.8438" y2="111.8047"/><line style="stroke:#000000;stroke-width:1.0;" x1="868" x2="868" y1="93.8438" y2="111.8047"/><line style="stroke:#000000;stroke-width:1.0;" x1="1004" x2="1004" y1="93.8438" y2="111.8047"/><line style="stroke:#000000;stroke-width:1.0;" x1="1016" x2="1016" y1="93.8438" y2="111.8047"/><line style="stroke:#000000;stroke-width:1.0;" x1="1028" x2="1028" y1="93.8438" y2="111.8047"/><line style="stroke:#000000;stroke-width:1.0;" x1="6" x2="6" y1="151.7266" y2="169.6875"/><line style="stroke:#000000;stroke-width:1.0;" x1="50" x2="50" y1="151.7266" y2="169.6875"/><line style="stroke:#000000;stroke-width:1.0;" x1="182" x2="182" y1="151.7266" y2="169.6875"/><line style="stroke:#000000;stroke-width:1.0;" x1="337" x2="337" y1="151.7266" y2="169.6875"/><line style="stroke:#000000;stroke-width:1.0;" x1="397" x2="397" y1="151.7266" y2="169.6875"/><line style="stroke:#000000;stroke-width:1.0;" x1="551" x2="551" y1="151.7266" y2="169.6875"/><line style="stroke:#000000;stroke-width:1.0;" x1="650" x2="650" y1="151.7266" y2="169.6875"/><line style="stroke:#000000;stroke-width:1.0;" x1="868" x2="868" y1="151.7266" y2="169.6875"/><line style="stroke:#000000;stroke-width:1.0;" x1="1004" x2="1004" y1="151.7266" y2="169.6875"/><line style="stroke:#000000;stroke-width:1.0;" x1="1016" x2="1016" y1="151.7266" y2="169.6875"/><line style="stroke:#000000;stroke-width:1.0;" x1="1028" x2="1028" y1="151.7266" y2="169.6875"/><line style="stroke:#000000;stroke-width:1.0;" x1="6" x2="6" y1="111.8047" y2="129.7656"/><line style="stroke:#000000;stroke-width:1.0;" x1="50" x2="50" y1="111.8047" y2="129.7656"/><line style="stroke:#000000;stroke-width:1.0;" x1="182" x2="182" y1="111.8047" y2="129.7656"/><line style="stroke:#000000;stroke-width:1.0;" x1="337" x2="337" y1="111.8047" y2="129.7656"/><line style="stroke:#000000;stroke-width:1.0;" x1="397" x2="397" y1="111.8047" y2="129.7656"/><line style="stroke:#000000;stroke-width:1.0;" x1="551" x2="551" y1="111.8047" y2="129.7656"/><line style="stroke:#000000;stroke-width:1.0;" x1="650" x2="650" y1="111.8047" y2="129.7656"/><line style="stroke:#000000;stroke-width:1.0;" x1="868" x2="868" y1="111.8047" y2="129.7656"/><line style="stroke:#000000;stroke-width:1.0;" x1="1004" x2="1004" y1="111.8047" y2="129.7656"/><line style="stroke:#000000;stroke-width:1.0;" x1="1016" x2="1016" y1="111.8047" y2="129.7656"/><line style="stroke:#000000;stroke-width:1.0;" x1="1028" x2="1028" y1="111.8047" y2="129.7656"/><line style="stroke:#000000;stroke-width:1.0;" x1="6" x2="6" y1="169.6875" y2="187.6484"/><line style="stroke:#000000;stroke-width:1.0;" x1="50" x2="50" y1="169.6875" y2="187.6484"/><line style="stroke:#000000;stroke-width:1.0;" x1="182" x2="182" y1="169.6875" y2="187.6484"/><line style="stroke:#000000;stroke-width:1.0;" x1="337" x2="337" y1="169.6875" y2="187.6484"/><line style="stroke:#000000;stroke-width:1.0;" x1="397" x2="397" y1="169.6875" y2="187.6484"/><line style="stroke:#000000;stroke-width:1.0;" x1="551" x2="551" y1="169.6875" y2="187.6484"/><line style="stroke:#000000;stroke-width:1.0;" x1="650" x2="650" y1="169.6875" y2="187.6484"/><line style="stroke:#000000;stroke-width:1.0;" x1="868" x2="868" y1="169.6875" y2="187.6484"/><line style="stroke:#000000;stroke-width:1.0;" x1="1004" x2="1004" y1="169.6875" y2="187.6484"/><line style="stroke:#000000;stroke-width:1.0;" x1="1016" x2="1016" y1="169.6875" y2="187.6484"/><line style="stroke:#000000;stroke-width:1.0;" x1="1028" x2="1028" y1="169.6875" y2="187.6484"/><text fill="#000000" font-family="sans-serif" font-size="12" lengthAdjust="spacing" textLength="331" x="7" y="221.5586">15 esp&#232;ces minimales observ&#233;es (justifiez si non observ&#233;e)</text><text fill="#000000" font-family="sans-serif" font-size="12" lengthAdjust="spacing" textLength="102" x="7" y="241.5195">(max: 30 esp&#232;ces)</text><text fill="#000000" font-family="sans-serif" font-size="12" lengthAdjust="spacing" textLength="333" x="7" y="261.4805">ATTENTION: une m&#234;me esp&#232;ce peut-&#234;tre tir&#233;e plusieurs fois</text><line style="stroke:#AAAAAA;stroke-width:1.0;" x1="6" x2="1029" y1="270.9922" y2="270.9922"/><rect fill="#EEEEEE" height="19.9609" rx="5" ry="5" style="stroke:#000000;stroke-width:2.5;" width="52" x="9.5" y="278.9922"/><text fill="#000000" font-family="sans-serif" font-size="12" lengthAdjust="spacing" textLength="40" x="15.5" y="293.9414">Fermer</text><rect fill="#EEEEEE" height="19.9609" rx="5" ry="5" style="stroke:#000000;stroke-width:2.5;" width="92" x="68.5" y="278.9922"/><text fill="#000000" font-family="sans-serif" font-size="12" lengthAdjust="spacing" textLength="70" x="79.5" y="293.9414">Sauvegarder</text><!--SRC=[jLJ_Jjim4FvxUOgJ9g7sZxP9sWABK0Uq1ShwIxH34uX9RkAsHeaTxBWQApp0tWHuZRpOpaaBPM9_RLIAQz_Ptvs_xtpxAY4oKIHChAK5i3Tfj8GcabDEVq89xDsAxLPSstNHMIhXiAm0jDB7XB1GmPqv0EalVqvumi9GS4vcDBCVw4JYZAeuVV2fQa1Xs1wFYlS8KIwRmVgm_6ZXnFmGPIYPa2n97tFGTduEV155LFgCXFIrG_cCOimfkz4KSjTWegXS8CBdV7r6c18S0WeS_qJc9Gd3UURkamMJAzGBmQdP6ATF_fncfl5jd9aM6CRiAfjlbIyuk1WEkiXGbr4DrqHp-cmQYZ0a_fnf1V7Bz0uklrsLLq2xTMUdxk3ULH86pxPt3sqRRSrEkmVddKvd0eMH3k2OA5_CE2tYfZRtv-c3ORO49mSzg41JilGnuzm0xsq5mjSHvjnOv-gYkTU_m0E7H0TIiFLjtZsXlQrCFfwKr0qM5MsydM3LCDSnp8s831ZFLLynkc4d4BCGIqq6EPsGPVyTrYL1K66Z5PhMUcryRmIkeRdV7XeL2Py9hHAM1SrjVHhFfOWLLezSq1dp_nHnf-RKQnkSkMzo5a2XYK7H_vzfg_zZ3RvN-dyXUzkuoklWADvhXV9MS9-DIt3gpvq38iPPXEzVhPvm5gPmRTIQCknIYcsyRtGM4MK5KuZ83m-gzZFOXkzWF6xtnvr1tmD3N9G-HNIz3sAgarBwPAwTC8cW48TQ8SrImLGmbIMA_T20BJF0ooCgiLDTcRkDYCQ2mJh5jMKkTM_jKnvaNTOQXjWhl_Qws5YaCit8AMD_hPQTQg67gnRrmN70-UIvjbVVWMPx3CPVj0h7moueeINc5p2LI3RHffiLhLEo872ciHr6r8D1JFbfwylQW5gXl88RCQpJyzxBXkrQwP0bC4BQg8JpdjMYKwB3nAWhyBtDF6Z6ZbjtBVCyD7Ps3wRIQWe4bhSU79tz1W00]--></g></svg>