<?xml version="1.0" encoding="us-ascii" standalone="no"?><svg xmlns="http://www.w3.org/2000/svg" xmlns:xlink="http://www.w3.org/1999/xlink" contentStyleType="text/css" height="273px" preserveAspectRatio="none" style="width:874px;height:273px;background:#FFFFFF;" version="1.1" viewBox="0 0 874 273" width="874px" zoomAndPan="magnify"><defs/><g><text fill="#000000" font-family="sans-serif" font-size="12" font-weight="bold" lengthAdjust="spacing" textLength="140" x="6" y="18.457">Douarnenez - 08/02/2022</text><line style="stroke:#AAAAAA;stroke-width:1.0;" x1="6" x2="859" y1="26.5938" y2="26.5938"/><text fill="#000000" font-family="sans-serif" font-size="12" lengthAdjust="spacing" textLength="39" x="8" y="43.5508">D&#233;tails</text><line style="stroke:#000000;stroke-width:1.0;" x1="6" x2="6" y1="31.0938" y2="46.1875"/><line style="stroke:#000000;stroke-width:1.0;" x1="6" x2="50" y1="31.0938" y2="31.0938"/><line style="stroke:#000000;stroke-width:1.0;" x1="50" x2="50" y1="31.0938" y2="46.1875"/><line style="stroke:#000000;stroke-width:1.0;" x1="50" x2="60" y1="46.1875" y2="46.1875"/><text fill="#000000" font-family="sans-serif" font-size="12" font-weight="bold" lengthAdjust="spacing" textLength="97" x="65" y="43.5508">&#201;chantillonnages</text><line style="stroke:#000000;stroke-width:1.0;" x1="60" x2="60" y1="31.0938" y2="46.1875"/><line style="stroke:#000000;stroke-width:1.0;" x1="60" x2="165" y1="31.0938" y2="31.0938"/><line style="stroke:#000000;stroke-width:1.0;" x1="165" x2="165" y1="31.0938" y2="46.1875"/><line style="stroke:#000000;stroke-width:1.0;" x1="165" x2="175" y1="46.1875" y2="46.1875"/><line style="stroke:#AAAAAA;stroke-width:1.0;stroke-dasharray:1.0,2.0;" x1="6" x2="859" y1="51.6875" y2="51.6875"/><text fill="#000000" font-family="sans-serif" font-size="12" lengthAdjust="spacing" textLength="81" x="7" y="69.6445">Type de vente :</text><rect fill="#EEEEEE" height="18.0938" style="stroke:#000000;stroke-width:1.0;" width="199" x="95" y="57.1875"/><text fill="#000000" font-family="sans-serif" font-size="12" lengthAdjust="spacing" textLength="134" x="97" y="71.6445">Ench&#232;res - HAM / Cri&#233;es</text><line style="stroke:#000000;stroke-width:1.0;" x1="283" x2="283" y1="57.1875" y2="75.2813"/><polygon fill="#000000" points="286,63.1875,292,63.1875,289,70.2813" style="stroke:#000000;stroke-width:1.0;"/><rect fill="#EEEEEE" height="19.0938" rx="5" ry="5" style="stroke:#000000;stroke-width:2.5;" width="76" x="304.5" y="59.6875"/><text fill="#000000" font-family="sans-serif" font-size="12" lengthAdjust="spacing" textLength="52" x="316.5" y="74.1445">Appliquer</text><path d="M11,89.375 L11,92.375 L8,92.375 L8,94.375 L11,94.375 L11,97.375 L13,97.375 L13,94.375 L16,94.375 L16,92.375 L13,92.375 L13,89.375 L11,89.375 " fill="#000000" style="stroke:;stroke-width:0.0;stroke-dasharray:;"/><text fill="#000000" font-family="sans-serif" font-size="12" lengthAdjust="spacing" textLength="3" x="17" y="97.7383">&#160;</text><text fill="#000000" font-family="sans-serif" font-size="12" font-weight="bold" lengthAdjust="spacing" textLength="4" x="20" y="97.7383">(</text><path d="M28,89.375 L28,92.375 L25,92.375 L25,94.375 L28,94.375 L28,97.375 L30,97.375 L30,94.375 L33,94.375 L33,92.375 L30,92.375 L30,89.375 L28,89.375 " fill="#000000" style="stroke:;stroke-width:0.0;stroke-dasharray:;"/><text fill="#000000" font-family="sans-serif" font-size="12" font-weight="bold" lengthAdjust="spacing" textLength="4" x="34" y="97.7383">)</text><path d="M45,89.375 C44.45,89.375 44,89.825 44,90.375 L43,90.375 C42.45,90.375 42,90.825 42,91.375 L49,91.375 C49,90.825 48.55,90.375 48,90.375 L47,90.375 C47,89.825 46.55,89.375 46,89.375 L45,89.375 M43,92.375 L43,97.185 C43,97.295 43.08,97.375 43.19,97.375 L47.82,97.375 C47.93,97.375 48.01,97.295 48.01,97.185 L48.01,92.375 L47.01,92.375 L47.01,95.875 C47.01,96.155 46.79,96.375 46.51,96.375 C46.23,96.375 46.01,96.155 46.01,95.875 L46.01,92.375 L45.01,92.375 L45.01,95.875 C45.01,96.155 44.79,96.375 44.51,96.375 C44.23,96.375 44.01,96.155 44.01,95.875 L44.01,92.375 L43.01,92.375 " fill="#000000" style="stroke:;stroke-width:0.0;stroke-dasharray:;"/><text fill="#000000" font-family="sans-serif" font-size="12" font-weight="bold" lengthAdjust="spacing" textLength="7" x="860" y="96.7383">Y</text><path d="M10.97,104.375 L8,107.375 L10,107.375 L10,112.375 L12,112.375 L12,107.375 L14,107.375 L10.97,104.375 " fill="#000000" style="stroke:;stroke-width:0.0;stroke-dasharray:;"/><text fill="#000000" font-family="sans-serif" font-size="12" font-weight="bold" lengthAdjust="spacing" textLength="22" x="36" y="116.832">Etat</text><text fill="#000000" font-family="sans-serif" font-size="12" font-weight="bold" lengthAdjust="spacing" textLength="120" x="60" y="116.832">Esp&#232;ce commerciale</text><text fill="#000000" font-family="sans-serif" font-size="12" font-weight="bold" lengthAdjust="spacing" textLength="111" x="199" y="116.832">Esp&#232;ce scientifique</text><text fill="#000000" font-family="sans-serif" font-size="12" font-weight="bold" lengthAdjust="spacing" textLength="58" x="389" y="116.832">Observ&#233; ?</text><text fill="#000000" font-family="sans-serif" font-size="12" font-weight="bold" lengthAdjust="spacing" textLength="36" x="449" y="116.832">Navire</text><text fill="#000000" font-family="sans-serif" font-size="12" font-weight="bold" lengthAdjust="spacing" textLength="83" x="548" y="116.832">Zone de p&#234;che</text><text fill="#000000" font-family="sans-serif" font-size="12" font-weight="bold" lengthAdjust="spacing" textLength="78" x="633" y="116.832">Type de vente</text><text fill="#000000" font-family="sans-serif" font-size="12" font-weight="bold" lengthAdjust="spacing" textLength="9" x="841" y="116.832">...</text><text fill="#000000" font-family="sans-serif" font-size="12" lengthAdjust="spacing" textLength="7" x="27" y="133.9258">1</text><rect fill="none" height="10" style="stroke:#000000;stroke-width:1.5;" width="10" x="9" y="124.0156"/><polygon fill="#000000" points="10,127.4688,13,130.4688,20,121.4688,13,128.4688" style="stroke:#000000;stroke-width:1.5;"/><path d="M43,121.4688 L42,122.4688 L44,124.4688 L45,123.4688 L43,121.4688 M41,123.4688 L37,127.4688 L37,129.4688 L39,129.4688 L43,125.4688 L41,123.4688 " fill="#000000" style="stroke:;stroke-width:0.0;stroke-dasharray:;"/><text fill="#000000" font-family="sans-serif" font-size="12" lengthAdjust="spacing" textLength="127" x="60" y="133.9258">BET - Thunnus obesus</text><text fill="#000000" font-family="sans-serif" font-size="12" lengthAdjust="spacing" textLength="153" x="199" y="133.9258">BET - Thon ob&#232;se(=Patudo)</text><text fill="#000000" font-family="sans-serif" font-size="12" lengthAdjust="spacing" textLength="3" x="409" y="133.9258">.</text><rect fill="none" height="10" style="stroke:#000000;stroke-width:1.5;" width="10" x="391" y="124.0156"/><polygon fill="#000000" points="392,127.4688,395,130.4688,402,121.4688,395,128.4688" style="stroke:#000000;stroke-width:1.5;"/><text fill="#000000" font-family="sans-serif" font-size="12" lengthAdjust="spacing" textLength="97" x="449" y="133.9258">123456 - Navire 1</text><text fill="#000000" font-family="sans-serif" font-size="12" lengthAdjust="spacing" textLength="38" x="548" y="133.9258">Zone 1</text><rect fill="#EEEEEE" height="18.0938" style="stroke:#000000;stroke-width:1.0;" width="199" x="633" y="121.4688"/><text fill="#000000" font-family="sans-serif" font-size="12" lengthAdjust="spacing" textLength="134" x="635" y="135.9258">Ench&#232;res - HAM / Cri&#233;es</text><line style="stroke:#000000;stroke-width:1.0;" x1="821" x2="821" y1="121.4688" y2="139.5625"/><polygon fill="#000000" points="824,127.4688,830,127.4688,827,134.5625" style="stroke:#000000;stroke-width:1.0;"/><path d="M848,121.4688 L848,124.4688 L853,129.4688 L856,126.4688 L851,121.4688 L848,121.4688 M850,122.4688 C850.55,122.4688 851,122.9188 851,123.4688 C851,124.0188 850.55,124.4688 850,124.4688 C849.45,124.4688 849,124.0188 849,123.4688 C849,122.9188 849.45,122.4688 850,122.4688 " fill="#000000" style="stroke:;stroke-width:0.0;stroke-dasharray:;"/><text fill="#000000" font-family="sans-serif" font-size="12" lengthAdjust="spacing" textLength="7" x="27" y="155.0195">2</text><rect fill="none" height="10" style="stroke:#000000;stroke-width:1.5;" width="10" x="9" y="145.1094"/><path d="M43,142.5625 L42,143.5625 L44,145.5625 L45,144.5625 L43,142.5625 M41,144.5625 L37,148.5625 L37,150.5625 L39,150.5625 L43,146.5625 L41,144.5625 " fill="#000000" style="stroke:;stroke-width:0.0;stroke-dasharray:;"/><text fill="#000000" font-family="sans-serif" font-size="12" lengthAdjust="spacing" textLength="127" x="60" y="155.0195">BFT - Thunnus thynnus</text><text fill="#000000" font-family="sans-serif" font-size="12" lengthAdjust="spacing" textLength="174" x="199" y="155.0195">BFT - Thon rouge de l'Atlantique</text><text fill="#000000" font-family="sans-serif" font-size="12" lengthAdjust="spacing" textLength="3" x="409" y="155.0195">.</text><rect fill="none" height="10" style="stroke:#000000;stroke-width:1.5;" width="10" x="391" y="145.1094"/><polygon fill="#000000" points="392,148.5625,395,151.5625,402,142.5625,395,149.5625" style="stroke:#000000;stroke-width:1.5;"/><text fill="#000000" font-family="sans-serif" font-size="12" lengthAdjust="spacing" textLength="97" x="449" y="155.0195">123456 - Navire 1</text><text fill="#000000" font-family="sans-serif" font-size="12" lengthAdjust="spacing" textLength="38" x="548" y="155.0195">Zone 2</text><rect fill="#EEEEEE" height="18.0938" style="stroke:#000000;stroke-width:1.0;" width="199" x="633" y="142.5625"/><text fill="#000000" font-family="sans-serif" font-size="12" lengthAdjust="spacing" textLength="134" x="635" y="157.0195">Ench&#232;res - HAM / Cri&#233;es</text><line style="stroke:#000000;stroke-width:1.0;" x1="821" x2="821" y1="142.5625" y2="160.6563"/><polygon fill="#000000" points="824,148.5625,830,148.5625,827,155.6563" style="stroke:#000000;stroke-width:1.0;"/><path d="M836.09,142.5625 C836.03,142.5625 836,142.6025 836,142.6525 L836,148.4625 C836,148.5125 836.04,148.5525 836.09,148.5525 L842,148.5525 L844,150.5525 L844,142.6425 C844,142.5825 843.96,142.5525 843.91,142.5525 L836.1,142.5525 " fill="#000000" style="stroke:;stroke-width:0.0;stroke-dasharray:;"/><path d="M848,142.5625 L848,145.5625 L853,150.5625 L856,147.5625 L851,142.5625 L848,142.5625 M850,143.5625 C850.55,143.5625 851,144.0125 851,144.5625 C851,145.1125 850.55,145.5625 850,145.5625 C849.45,145.5625 849,145.1125 849,144.5625 C849,144.0125 849.45,143.5625 850,143.5625 " fill="#000000" style="stroke:;stroke-width:0.0;stroke-dasharray:;"/><text fill="#000000" font-family="sans-serif" font-size="12" lengthAdjust="spacing" textLength="7" x="27" y="176.1133">3</text><rect fill="none" height="10" style="stroke:#000000;stroke-width:1.5;" width="10" x="9" y="166.2031"/><polygon fill="#000000" points="10,169.6563,13,172.6563,20,163.6563,13,170.6563" style="stroke:#000000;stroke-width:1.5;"/><path d="M43,163.6563 L42,164.6563 L44,166.6563 L45,165.6563 L43,163.6563 M41,165.6563 L37,169.6563 L37,171.6563 L39,171.6563 L43,167.6563 L41,165.6563 " fill="#000000" style="stroke:;stroke-width:0.0;stroke-dasharray:;"/><text fill="#000000" font-family="sans-serif" font-size="12" lengthAdjust="spacing" textLength="100" x="60" y="176.1133">BIL - Istiophoridae</text><text fill="#000000" font-family="sans-serif" font-size="12" lengthAdjust="spacing" textLength="188" x="199" y="176.1133">BIL - Makaires,marlins,voiliers nca</text><text fill="#000000" font-family="sans-serif" font-size="12" lengthAdjust="spacing" textLength="3" x="409" y="176.1133">.</text><rect fill="none" height="10" style="stroke:#000000;stroke-width:1.5;" width="10" x="391" y="166.2031"/><path d="M848,163.6563 L848,166.6563 L853,171.6563 L856,168.6563 L851,163.6563 L848,163.6563 M850,164.6563 C850.55,164.6563 851,165.1063 851,165.6563 C851,166.2063 850.55,166.6563 850,166.6563 C849.45,166.6563 849,166.2063 849,165.6563 C849,165.1063 849.45,164.6563 850,164.6563 " fill="#000000" style="stroke:;stroke-width:0.0;stroke-dasharray:;"/><text fill="#000000" font-family="sans-serif" font-size="12" lengthAdjust="spacing" textLength="7" x="27" y="193.207">4</text><rect fill="none" height="10" style="stroke:#000000;stroke-width:1.5;" width="10" x="9" y="183.2969"/><polygon fill="#000000" points="10,186.75,13,189.75,20,180.75,13,187.75" style="stroke:#000000;stroke-width:1.5;"/><path d="M43,180.75 L42,181.75 L44,183.75 L45,182.75 L43,180.75 M41,182.75 L37,186.75 L37,188.75 L39,188.75 L43,184.75 L41,182.75 " fill="#000000" style="stroke:;stroke-width:0.0;stroke-dasharray:;"/><text fill="#000000" font-family="sans-serif" font-size="12" lengthAdjust="spacing" textLength="137" x="60" y="193.207">BLF - Thunnus atlanticus</text><text fill="#000000" font-family="sans-serif" font-size="12" lengthAdjust="spacing" textLength="167" x="199" y="193.207">BLF - Thon &#224; nageoires noires</text><text fill="#000000" font-family="sans-serif" font-size="12" lengthAdjust="spacing" textLength="3" x="409" y="193.207">.</text><rect fill="none" height="10" style="stroke:#000000;stroke-width:1.5;" width="10" x="391" y="183.2969"/><polygon fill="#000000" points="392,186.75,395,189.75,402,180.75,395,187.75" style="stroke:#000000;stroke-width:1.5;"/><text fill="#000000" font-family="sans-serif" font-size="12" lengthAdjust="spacing" textLength="97" x="449" y="193.207">456789 - Navire 2</text><text fill="#000000" font-family="sans-serif" font-size="12" lengthAdjust="spacing" textLength="38" x="548" y="193.207">Zone 1</text><rect fill="#EEEEEE" height="18.0938" style="stroke:#000000;stroke-width:1.0;" width="199" x="633" y="180.75"/><text fill="#000000" font-family="sans-serif" font-size="12" lengthAdjust="spacing" textLength="134" x="635" y="195.207">Ench&#232;res - HAM / Cri&#233;es</text><line style="stroke:#000000;stroke-width:1.0;" x1="821" x2="821" y1="180.75" y2="198.8438"/><polygon fill="#000000" points="824,186.75,830,186.75,827,193.8438" style="stroke:#000000;stroke-width:1.0;"/><path d="M836.09,180.75 C836.03,180.75 836,180.79 836,180.84 L836,186.65 C836,186.7 836.04,186.74 836.09,186.74 L842,186.74 L844,188.74 L844,180.83 C844,180.77 843.96,180.74 843.91,180.74 L836.1,180.74 " fill="#000000" style="stroke:;stroke-width:0.0;stroke-dasharray:;"/><path d="M848,180.75 L848,183.75 L853,188.75 L856,185.75 L851,180.75 L848,180.75 M850,181.75 C850.55,181.75 851,182.2 851,182.75 C851,183.3 850.55,183.75 850,183.75 C849.45,183.75 849,183.3 849,182.75 C849,182.2 849.45,181.75 850,181.75 " fill="#000000" style="stroke:;stroke-width:0.0;stroke-dasharray:;"/><text fill="#000000" font-family="sans-serif" font-size="12" lengthAdjust="spacing" textLength="7" x="27" y="214.3008">5</text><rect fill="none" height="10" style="stroke:#000000;stroke-width:1.5;" width="10" x="9" y="204.3906"/><path d="M43,201.8438 L42,202.8438 L44,204.8438 L45,203.8438 L43,201.8438 M41,203.8438 L37,207.8438 L37,209.8438 L39,209.8438 L43,205.8438 L41,203.8438 " fill="#000000" style="stroke:;stroke-width:0.0;stroke-dasharray:;"/><text fill="#000000" font-family="sans-serif" font-size="12" lengthAdjust="spacing" textLength="98" x="60" y="214.3008">BLT - Auxis rochei</text><text fill="#000000" font-family="sans-serif" font-size="12" lengthAdjust="spacing" textLength="74" x="199" y="214.3008">BLT - Bonitou</text><text fill="#000000" font-family="sans-serif" font-size="12" lengthAdjust="spacing" textLength="3" x="409" y="214.3008">.</text><rect fill="none" height="10" style="stroke:#000000;stroke-width:1.5;" width="10" x="391" y="204.3906"/><text fill="#000000" font-family="sans-serif" font-size="12" lengthAdjust="spacing" textLength="7" x="27" y="231.3945">6</text><rect fill="none" height="10" style="stroke:#000000;stroke-width:1.5;" width="10" x="9" y="221.4844"/><path d="M43,218.9375 L42,219.9375 L44,221.9375 L45,220.9375 L43,218.9375 M41,220.9375 L37,224.9375 L37,226.9375 L39,226.9375 L43,222.9375 L41,220.9375 " fill="#000000" style="stroke:;stroke-width:0.0;stroke-dasharray:;"/><line style="stroke:#AAAAAA;stroke-width:1.0;stroke-dasharray:1.0,2.0;" x1="60" x2="198" y1="226.9844" y2="226.9844"/><text fill="#000000" font-family="sans-serif" font-size="12" lengthAdjust="spacing" textLength="3" x="409" y="231.3945">.</text><rect fill="none" height="10" style="stroke:#000000;stroke-width:1.5;" width="10" x="391" y="221.4844"/><line style="stroke:#000000;stroke-width:1.0;" x1="6" x2="35" y1="103.375" y2="103.375"/><line style="stroke:#000000;stroke-width:1.0;" x1="35" x2="59" y1="103.375" y2="103.375"/><line style="stroke:#000000;stroke-width:1.0;" x1="59" x2="198" y1="103.375" y2="103.375"/><line style="stroke:#000000;stroke-width:1.0;" x1="198" x2="388" y1="103.375" y2="103.375"/><line style="stroke:#000000;stroke-width:1.0;" x1="388" x2="448" y1="103.375" y2="103.375"/><line style="stroke:#000000;stroke-width:1.0;" x1="448" x2="547" y1="103.375" y2="103.375"/><line style="stroke:#000000;stroke-width:1.0;" x1="547" x2="632" y1="103.375" y2="103.375"/><line style="stroke:#000000;stroke-width:1.0;" x1="632" x2="834" y1="103.375" y2="103.375"/><line style="stroke:#000000;stroke-width:1.0;" x1="834" x2="846" y1="103.375" y2="103.375"/><line style="stroke:#000000;stroke-width:1.0;" x1="846" x2="858" y1="103.375" y2="103.375"/><line style="stroke:#000000;stroke-width:1.0;" x1="6" x2="35" y1="162.6563" y2="162.6563"/><line style="stroke:#000000;stroke-width:1.0;" x1="35" x2="59" y1="162.6563" y2="162.6563"/><line style="stroke:#000000;stroke-width:1.0;" x1="59" x2="198" y1="162.6563" y2="162.6563"/><line style="stroke:#000000;stroke-width:1.0;" x1="198" x2="388" y1="162.6563" y2="162.6563"/><line style="stroke:#000000;stroke-width:1.0;" x1="388" x2="448" y1="162.6563" y2="162.6563"/><line style="stroke:#000000;stroke-width:1.0;" x1="448" x2="547" y1="162.6563" y2="162.6563"/><line style="stroke:#000000;stroke-width:1.0;" x1="547" x2="632" y1="162.6563" y2="162.6563"/><line style="stroke:#000000;stroke-width:1.0;" x1="632" x2="834" y1="162.6563" y2="162.6563"/><line style="stroke:#000000;stroke-width:1.0;" x1="834" x2="846" y1="162.6563" y2="162.6563"/><line style="stroke:#000000;stroke-width:1.0;" x1="846" x2="858" y1="162.6563" y2="162.6563"/><line style="stroke:#000000;stroke-width:1.0;" x1="6" x2="35" y1="217.9375" y2="217.9375"/><line style="stroke:#000000;stroke-width:1.0;" x1="35" x2="59" y1="217.9375" y2="217.9375"/><line style="stroke:#000000;stroke-width:1.0;" x1="59" x2="198" y1="217.9375" y2="217.9375"/><line style="stroke:#000000;stroke-width:1.0;" x1="198" x2="388" y1="217.9375" y2="217.9375"/><line style="stroke:#000000;stroke-width:1.0;" x1="388" x2="448" y1="217.9375" y2="217.9375"/><line style="stroke:#000000;stroke-width:1.0;" x1="448" x2="547" y1="217.9375" y2="217.9375"/><line style="stroke:#000000;stroke-width:1.0;" x1="547" x2="632" y1="217.9375" y2="217.9375"/><line style="stroke:#000000;stroke-width:1.0;" x1="632" x2="834" y1="217.9375" y2="217.9375"/><line style="stroke:#000000;stroke-width:1.0;" x1="834" x2="846" y1="217.9375" y2="217.9375"/><line style="stroke:#000000;stroke-width:1.0;" x1="846" x2="858" y1="217.9375" y2="217.9375"/><line style="stroke:#000000;stroke-width:1.0;" x1="6" x2="35" y1="120.4688" y2="120.4688"/><line style="stroke:#000000;stroke-width:1.0;" x1="35" x2="59" y1="120.4688" y2="120.4688"/><line style="stroke:#000000;stroke-width:1.0;" x1="59" x2="198" y1="120.4688" y2="120.4688"/><line style="stroke:#000000;stroke-width:1.0;" x1="198" x2="388" y1="120.4688" y2="120.4688"/><line style="stroke:#000000;stroke-width:1.0;" x1="388" x2="448" y1="120.4688" y2="120.4688"/><line style="stroke:#000000;stroke-width:1.0;" x1="448" x2="547" y1="120.4688" y2="120.4688"/><line style="stroke:#000000;stroke-width:1.0;" x1="547" x2="632" y1="120.4688" y2="120.4688"/><line style="stroke:#000000;stroke-width:1.0;" x1="632" x2="834" y1="120.4688" y2="120.4688"/><line style="stroke:#000000;stroke-width:1.0;" x1="834" x2="846" y1="120.4688" y2="120.4688"/><line style="stroke:#000000;stroke-width:1.0;" x1="846" x2="858" y1="120.4688" y2="120.4688"/><line style="stroke:#000000;stroke-width:1.0;" x1="6" x2="35" y1="179.75" y2="179.75"/><line style="stroke:#000000;stroke-width:1.0;" x1="35" x2="59" y1="179.75" y2="179.75"/><line style="stroke:#000000;stroke-width:1.0;" x1="59" x2="198" y1="179.75" y2="179.75"/><line style="stroke:#000000;stroke-width:1.0;" x1="198" x2="388" y1="179.75" y2="179.75"/><line style="stroke:#000000;stroke-width:1.0;" x1="388" x2="448" y1="179.75" y2="179.75"/><line style="stroke:#000000;stroke-width:1.0;" x1="448" x2="547" y1="179.75" y2="179.75"/><line style="stroke:#000000;stroke-width:1.0;" x1="547" x2="632" y1="179.75" y2="179.75"/><line style="stroke:#000000;stroke-width:1.0;" x1="632" x2="834" y1="179.75" y2="179.75"/><line style="stroke:#000000;stroke-width:1.0;" x1="834" x2="846" y1="179.75" y2="179.75"/><line style="stroke:#000000;stroke-width:1.0;" x1="846" x2="858" y1="179.75" y2="179.75"/><line style="stroke:#000000;stroke-width:1.0;" x1="6" x2="35" y1="235.0313" y2="235.0313"/><line style="stroke:#000000;stroke-width:1.0;" x1="35" x2="59" y1="235.0313" y2="235.0313"/><line style="stroke:#000000;stroke-width:1.0;" x1="59" x2="198" y1="235.0313" y2="235.0313"/><line style="stroke:#000000;stroke-width:1.0;" x1="198" x2="388" y1="235.0313" y2="235.0313"/><line style="stroke:#000000;stroke-width:1.0;" x1="388" x2="448" y1="235.0313" y2="235.0313"/><line style="stroke:#000000;stroke-width:1.0;" x1="448" x2="547" y1="235.0313" y2="235.0313"/><line style="stroke:#000000;stroke-width:1.0;" x1="547" x2="632" y1="235.0313" y2="235.0313"/><line style="stroke:#000000;stroke-width:1.0;" x1="632" x2="834" y1="235.0313" y2="235.0313"/><line style="stroke:#000000;stroke-width:1.0;" x1="834" x2="846" y1="235.0313" y2="235.0313"/><line style="stroke:#000000;stroke-width:1.0;" x1="846" x2="858" y1="235.0313" y2="235.0313"/><line style="stroke:#000000;stroke-width:1.0;" x1="6" x2="35" y1="141.5625" y2="141.5625"/><line style="stroke:#000000;stroke-width:1.0;" x1="35" x2="59" y1="141.5625" y2="141.5625"/><line style="stroke:#000000;stroke-width:1.0;" x1="59" x2="198" y1="141.5625" y2="141.5625"/><line style="stroke:#000000;stroke-width:1.0;" x1="198" x2="388" y1="141.5625" y2="141.5625"/><line style="stroke:#000000;stroke-width:1.0;" x1="388" x2="448" y1="141.5625" y2="141.5625"/><line style="stroke:#000000;stroke-width:1.0;" x1="448" x2="547" y1="141.5625" y2="141.5625"/><line style="stroke:#000000;stroke-width:1.0;" x1="547" x2="632" y1="141.5625" y2="141.5625"/><line style="stroke:#000000;stroke-width:1.0;" x1="632" x2="834" y1="141.5625" y2="141.5625"/><line style="stroke:#000000;stroke-width:1.0;" x1="834" x2="846" y1="141.5625" y2="141.5625"/><line style="stroke:#000000;stroke-width:1.0;" x1="846" x2="858" y1="141.5625" y2="141.5625"/><line style="stroke:#000000;stroke-width:1.0;" x1="6" x2="35" y1="200.8438" y2="200.8438"/><line style="stroke:#000000;stroke-width:1.0;" x1="35" x2="59" y1="200.8438" y2="200.8438"/><line style="stroke:#000000;stroke-width:1.0;" x1="59" x2="198" y1="200.8438" y2="200.8438"/><line style="stroke:#000000;stroke-width:1.0;" x1="198" x2="388" y1="200.8438" y2="200.8438"/><line style="stroke:#000000;stroke-width:1.0;" x1="388" x2="448" y1="200.8438" y2="200.8438"/><line style="stroke:#000000;stroke-width:1.0;" x1="448" x2="547" y1="200.8438" y2="200.8438"/><line style="stroke:#000000;stroke-width:1.0;" x1="547" x2="632" y1="200.8438" y2="200.8438"/><line style="stroke:#000000;stroke-width:1.0;" x1="632" x2="834" y1="200.8438" y2="200.8438"/><line style="stroke:#000000;stroke-width:1.0;" x1="834" x2="846" y1="200.8438" y2="200.8438"/><line style="stroke:#000000;stroke-width:1.0;" x1="846" x2="858" y1="200.8438" y2="200.8438"/><line style="stroke:#000000;stroke-width:1.0;" x1="6" x2="6" y1="103.375" y2="120.4688"/><line style="stroke:#000000;stroke-width:1.0;" x1="35" x2="35" y1="103.375" y2="120.4688"/><line style="stroke:#000000;stroke-width:1.0;" x1="59" x2="59" y1="103.375" y2="120.4688"/><line style="stroke:#000000;stroke-width:1.0;" x1="198" x2="198" y1="103.375" y2="120.4688"/><line style="stroke:#000000;stroke-width:1.0;" x1="388" x2="388" y1="103.375" y2="120.4688"/><line style="stroke:#000000;stroke-width:1.0;" x1="448" x2="448" y1="103.375" y2="120.4688"/><line style="stroke:#000000;stroke-width:1.0;" x1="547" x2="547" y1="103.375" y2="120.4688"/><line style="stroke:#000000;stroke-width:1.0;" x1="632" x2="632" y1="103.375" y2="120.4688"/><line style="stroke:#000000;stroke-width:1.0;" x1="834" x2="834" y1="103.375" y2="120.4688"/><line style="stroke:#000000;stroke-width:1.0;" x1="858" x2="858" y1="103.375" y2="120.4688"/><line style="stroke:#000000;stroke-width:1.0;" x1="6" x2="6" y1="162.6563" y2="179.75"/><line style="stroke:#000000;stroke-width:1.0;" x1="35" x2="35" y1="162.6563" y2="179.75"/><line style="stroke:#000000;stroke-width:1.0;" x1="59" x2="59" y1="162.6563" y2="179.75"/><line style="stroke:#000000;stroke-width:1.0;" x1="198" x2="198" y1="162.6563" y2="179.75"/><line style="stroke:#000000;stroke-width:1.0;" x1="388" x2="388" y1="162.6563" y2="179.75"/><line style="stroke:#000000;stroke-width:1.0;" x1="448" x2="448" y1="162.6563" y2="179.75"/><line style="stroke:#000000;stroke-width:1.0;" x1="547" x2="547" y1="162.6563" y2="179.75"/><line style="stroke:#000000;stroke-width:1.0;" x1="632" x2="632" y1="162.6563" y2="179.75"/><line style="stroke:#000000;stroke-width:1.0;" x1="834" x2="834" y1="162.6563" y2="179.75"/><line style="stroke:#000000;stroke-width:1.0;" x1="846" x2="846" y1="162.6563" y2="179.75"/><line style="stroke:#000000;stroke-width:1.0;" x1="858" x2="858" y1="162.6563" y2="179.75"/><line style="stroke:#000000;stroke-width:1.0;" x1="6" x2="6" y1="217.9375" y2="235.0313"/><line style="stroke:#000000;stroke-width:1.0;" x1="35" x2="35" y1="217.9375" y2="235.0313"/><line style="stroke:#000000;stroke-width:1.0;" x1="59" x2="59" y1="217.9375" y2="235.0313"/><line style="stroke:#000000;stroke-width:1.0;" x1="198" x2="198" y1="217.9375" y2="235.0313"/><line style="stroke:#000000;stroke-width:1.0;" x1="388" x2="388" y1="217.9375" y2="235.0313"/><line style="stroke:#000000;stroke-width:1.0;" x1="448" x2="448" y1="217.9375" y2="235.0313"/><line style="stroke:#000000;stroke-width:1.0;" x1="547" x2="547" y1="217.9375" y2="235.0313"/><line style="stroke:#000000;stroke-width:1.0;" x1="632" x2="632" y1="217.9375" y2="235.0313"/><line style="stroke:#000000;stroke-width:1.0;" x1="834" x2="834" y1="217.9375" y2="235.0313"/><line style="stroke:#000000;stroke-width:1.0;" x1="846" x2="846" y1="217.9375" y2="235.0313"/><line style="stroke:#000000;stroke-width:1.0;" x1="858" x2="858" y1="217.9375" y2="235.0313"/><line style="stroke:#000000;stroke-width:1.0;" x1="6" x2="6" y1="120.4688" y2="141.5625"/><line style="stroke:#000000;stroke-width:1.0;" x1="35" x2="35" y1="120.4688" y2="141.5625"/><line style="stroke:#000000;stroke-width:1.0;" x1="59" x2="59" y1="120.4688" y2="141.5625"/><line style="stroke:#000000;stroke-width:1.0;" x1="198" x2="198" y1="120.4688" y2="141.5625"/><line style="stroke:#000000;stroke-width:1.0;" x1="388" x2="388" y1="120.4688" y2="141.5625"/><line style="stroke:#000000;stroke-width:1.0;" x1="448" x2="448" y1="120.4688" y2="141.5625"/><line style="stroke:#000000;stroke-width:1.0;" x1="547" x2="547" y1="120.4688" y2="141.5625"/><line style="stroke:#000000;stroke-width:1.0;" x1="632" x2="632" y1="120.4688" y2="141.5625"/><line style="stroke:#000000;stroke-width:1.0;" x1="834" x2="834" y1="120.4688" y2="141.5625"/><line style="stroke:#000000;stroke-width:1.0;" x1="846" x2="846" y1="120.4688" y2="141.5625"/><line style="stroke:#000000;stroke-width:1.0;" x1="858" x2="858" y1="120.4688" y2="141.5625"/><line style="stroke:#000000;stroke-width:1.0;" x1="6" x2="6" y1="179.75" y2="200.8438"/><line style="stroke:#000000;stroke-width:1.0;" x1="35" x2="35" y1="179.75" y2="200.8438"/><line style="stroke:#000000;stroke-width:1.0;" x1="59" x2="59" y1="179.75" y2="200.8438"/><line style="stroke:#000000;stroke-width:1.0;" x1="198" x2="198" y1="179.75" y2="200.8438"/><line style="stroke:#000000;stroke-width:1.0;" x1="388" x2="388" y1="179.75" y2="200.8438"/><line style="stroke:#000000;stroke-width:1.0;" x1="448" x2="448" y1="179.75" y2="200.8438"/><line style="stroke:#000000;stroke-width:1.0;" x1="547" x2="547" y1="179.75" y2="200.8438"/><line style="stroke:#000000;stroke-width:1.0;" x1="632" x2="632" y1="179.75" y2="200.8438"/><line style="stroke:#000000;stroke-width:1.0;" x1="834" x2="834" y1="179.75" y2="200.8438"/><line style="stroke:#000000;stroke-width:1.0;" x1="846" x2="846" y1="179.75" y2="200.8438"/><line style="stroke:#000000;stroke-width:1.0;" x1="858" x2="858" y1="179.75" y2="200.8438"/><line style="stroke:#000000;stroke-width:1.0;" x1="6" x2="6" y1="141.5625" y2="162.6563"/><line style="stroke:#000000;stroke-width:1.0;" x1="35" x2="35" y1="141.5625" y2="162.6563"/><line style="stroke:#000000;stroke-width:1.0;" x1="59" x2="59" y1="141.5625" y2="162.6563"/><line style="stroke:#000000;stroke-width:1.0;" x1="198" x2="198" y1="141.5625" y2="162.6563"/><line style="stroke:#000000;stroke-width:1.0;" x1="388" x2="388" y1="141.5625" y2="162.6563"/><line style="stroke:#000000;stroke-width:1.0;" x1="448" x2="448" y1="141.5625" y2="162.6563"/><line style="stroke:#000000;stroke-width:1.0;" x1="547" x2="547" y1="141.5625" y2="162.6563"/><line style="stroke:#000000;stroke-width:1.0;" x1="632" x2="632" y1="141.5625" y2="162.6563"/><line style="stroke:#000000;stroke-width:1.0;" x1="834" x2="834" y1="141.5625" y2="162.6563"/><line style="stroke:#000000;stroke-width:1.0;" x1="846" x2="846" y1="141.5625" y2="162.6563"/><line style="stroke:#000000;stroke-width:1.0;" x1="858" x2="858" y1="141.5625" y2="162.6563"/><line style="stroke:#000000;stroke-width:1.0;" x1="6" x2="6" y1="200.8438" y2="217.9375"/><line style="stroke:#000000;stroke-width:1.0;" x1="35" x2="35" y1="200.8438" y2="217.9375"/><line style="stroke:#000000;stroke-width:1.0;" x1="59" x2="59" y1="200.8438" y2="217.9375"/><line style="stroke:#000000;stroke-width:1.0;" x1="198" x2="198" y1="200.8438" y2="217.9375"/><line style="stroke:#000000;stroke-width:1.0;" x1="388" x2="388" y1="200.8438" y2="217.9375"/><line style="stroke:#000000;stroke-width:1.0;" x1="448" x2="448" y1="200.8438" y2="217.9375"/><line style="stroke:#000000;stroke-width:1.0;" x1="547" x2="547" y1="200.8438" y2="217.9375"/><line style="stroke:#000000;stroke-width:1.0;" x1="632" x2="632" y1="200.8438" y2="217.9375"/><line style="stroke:#000000;stroke-width:1.0;" x1="834" x2="834" y1="200.8438" y2="217.9375"/><line style="stroke:#000000;stroke-width:1.0;" x1="846" x2="846" y1="200.8438" y2="217.9375"/><line style="stroke:#000000;stroke-width:1.0;" x1="858" x2="858" y1="200.8438" y2="217.9375"/><line style="stroke:#AAAAAA;stroke-width:1.0;" x1="6" x2="859" y1="240.5313" y2="240.5313"/><rect fill="#EEEEEE" height="19.0938" rx="5" ry="5" style="stroke:#000000;stroke-width:2.5;" width="52" x="9.5" y="248.5313"/><text fill="#000000" font-family="sans-serif" font-size="12" lengthAdjust="spacing" textLength="40" x="15.5" y="262.9883">Fermer</text><rect fill="#EEEEEE" height="19.0938" rx="5" ry="5" style="stroke:#000000;stroke-width:2.5;" width="92" x="68.5" y="248.5313"/><text fill="#000000" font-family="sans-serif" font-size="12" lengthAdjust="spacing" textLength="70" x="79.5" y="262.9883">Sauvegarder</text></g></svg>