<?xml version="1.0" encoding="us-ascii" standalone="no"?><svg xmlns="http://www.w3.org/2000/svg" xmlns:xlink="http://www.w3.org/1999/xlink" contentStyleType="text/css" height="551px" preserveAspectRatio="none" style="width:781px;height:551px;background:#FFFFFF;" version="1.1" viewBox="0 0 781 551" width="781px" zoomAndPan="magnify"><defs/><g><text fill="#000000" font-family="sans-serif" font-size="12" font-weight="bold" lengthAdjust="spacing" textLength="84" x="6" y="18.457">Nouvelle sortie</text><line style="stroke:#AAAAAA;stroke-width:1.0;" x1="6" x2="774" y1="26.5938" y2="26.5938"/><text fill="#000000" font-family="sans-serif" font-size="12" font-weight="bold" lengthAdjust="spacing" textLength="39" x="8" y="43.5508">D&#233;tails</text><line style="stroke:#000000;stroke-width:1.0;" x1="6" x2="6" y1="31.0938" y2="46.1875"/><line style="stroke:#000000;stroke-width:1.0;" x1="6" x2="50" y1="31.0938" y2="31.0938"/><line style="stroke:#000000;stroke-width:1.0;" x1="50" x2="50" y1="31.0938" y2="46.1875"/><line style="stroke:#000000;stroke-width:1.0;" x1="50" x2="60" y1="46.1875" y2="46.1875"/><text fill="#000000" font-family="sans-serif" font-size="12" lengthAdjust="spacing" textLength="96" x="62" y="43.5508">Echantillonnages</text><line style="stroke:#000000;stroke-width:1.0;" x1="60" x2="60" y1="31.0938" y2="46.1875"/><line style="stroke:#000000;stroke-width:1.0;" x1="60" x2="161" y1="31.0938" y2="31.0938"/><line style="stroke:#000000;stroke-width:1.0;" x1="161" x2="161" y1="31.0938" y2="46.1875"/><line style="stroke:#000000;stroke-width:1.0;" x1="161" x2="171" y1="46.1875" y2="46.1875"/><line style="stroke:#AAAAAA;stroke-width:1.0;stroke-dasharray:1.0,2.0;" x1="6" x2="774" y1="51.6875" y2="51.6875"/><text fill="#000000" font-family="sans-serif" font-size="12" lengthAdjust="spacing" textLength="139" x="7" y="86.7383">Programme de collecte* :</text><rect fill="#EEEEEE" height="18.0938" style="stroke:#000000;stroke-width:1.0;" width="239" x="149" y="75.2813"/><text fill="#000000" font-family="sans-serif" font-size="12" lengthAdjust="spacing" textLength="88" x="151" y="89.7383">SIH-OBSVENTE</text><line style="stroke:#000000;stroke-width:1.0;" x1="377" x2="377" y1="75.2813" y2="93.375"/><polygon fill="#000000" points="380,81.2813,386,81.2813,383,88.375" style="stroke:#000000;stroke-width:1.0;"/><text fill="#000000" font-family="sans-serif" font-size="12" lengthAdjust="spacing" textLength="207" x="551" y="102.832">ObsVentes d&#233;marrage au 01/01/2024</text><path d="M766.03,94.4688 C763.5,94.4688 762,97.4688 762,97.4688 C762,97.4688 763.5,100.4688 766.03,100.4688 C768.5,100.4688 770,97.4688 770,97.4688 C770,97.4688 768.5,94.4688 766.03,94.4688 M766,95.4688 C767.11,95.4688 768,96.3688 768,97.4688 C768,98.5788 767.11,99.4688 766,99.4688 C764.9,99.4688 764,98.5788 764,97.4688 C764,96.3688 764.9,95.4688 766,95.4688 M766,96.4688 C765.45,96.4688 765,96.9188 765,97.4688 C765,98.0188 765.45,98.4688 766,98.4688 C766.55,98.4688 767,98.0188 767,97.4688 C767,97.3688 766.96,97.2788 766.94,97.1888 C766.86,97.3488 766.7,97.4688 766.5,97.4688 C766.22,97.4688 766,97.2488 766,96.9688 C766,96.7688 766.12,96.6088 766.28,96.5288 C766.19,96.4988 766.1,96.4688 766,96.4688 " fill="#000000" style="stroke:;stroke-width:0.0;stroke-dasharray:;"/><line style="stroke:#000000;stroke-width:1.0;" x1="550" x2="772" y1="81.8281" y2="81.8281"/><line style="stroke:#000000;stroke-width:1.0;" x1="550" x2="772" y1="106.4688" y2="106.4688"/><line style="stroke:#000000;stroke-width:1.0;" x1="550" x2="550" y1="81.8281" y2="106.4688"/><line style="stroke:#000000;stroke-width:1.0;" x1="772" x2="772" y1="81.8281" y2="106.4688"/><rect fill="#FFFFFF" height="15.0938" style="stroke:#FFFFFF;stroke-width:1.0;" width="49" x="556" y="74.2813"/><text fill="#000000" font-family="sans-serif" font-size="12" lengthAdjust="spacing" textLength="49" x="556" y="86.7383">Strat&#233;gie</text><text fill="#000000" font-family="sans-serif" font-size="12" lengthAdjust="spacing" textLength="136" x="7" y="136.0195">Plan d'&#233;chantillonnage* :</text><rect fill="#EEEEEE" height="18.0938" style="stroke:#000000;stroke-width:1.0;" width="239" x="149" y="124.5625"/><text fill="#000000" font-family="sans-serif" font-size="12" lengthAdjust="spacing" textLength="186" x="151" y="139.0195">2021_V0010 - DPMA_20_23_Lot2</text><line style="stroke:#000000;stroke-width:1.0;" x1="377" x2="377" y1="124.5625" y2="142.6563"/><polygon fill="#000000" points="380,130.5625,386,130.5625,383,137.6563" style="stroke:#000000;stroke-width:1.0;"/><text fill="#000000" font-family="sans-serif" font-size="12" lengthAdjust="spacing" textLength="51" x="7" y="176.207">Origine* :</text><rect fill="#EEEEEE" height="18.0938" style="stroke:#000000;stroke-width:1.0;" width="239" x="149" y="164.75"/><text fill="#000000" font-family="sans-serif" font-size="12" lengthAdjust="spacing" textLength="88" x="151" y="179.207">SIH-OBSVENTE</text><line style="stroke:#000000;stroke-width:1.0;" x1="377" x2="377" y1="164.75" y2="182.8438"/><polygon fill="#000000" points="380,170.75,386,170.75,383,177.8438" style="stroke:#000000;stroke-width:1.0;"/><text fill="#000000" font-family="sans-serif" font-size="12" lengthAdjust="spacing" textLength="38" x="7" y="216.3945">Lieu * :</text><rect fill="#EEEEEE" height="18.0938" style="stroke:#000000;stroke-width:1.0;" width="239" x="149" y="204.9375"/><text fill="#000000" font-family="sans-serif" font-size="12" lengthAdjust="spacing" textLength="100" x="151" y="219.3945">XDZ - Douarnenez</text><line style="stroke:#000000;stroke-width:1.0;" x1="377" x2="377" y1="204.9375" y2="223.0313"/><polygon fill="#000000" points="380,210.9375,386,210.9375,383,218.0313" style="stroke:#000000;stroke-width:1.0;"/><text fill="#000000" font-family="sans-serif" font-size="12" lengthAdjust="spacing" textLength="64" x="7" y="256.582">D&#233;but/Fin* :</text><rect fill="#EEEEEE" height="18.0938" style="stroke:#000000;stroke-width:1.0;" width="95" x="149" y="245.125"/><text fill="#000000" font-family="sans-serif" font-size="12" lengthAdjust="spacing" textLength="62" x="151" y="259.582">jj/mm/aaaa</text><line style="stroke:#000000;stroke-width:1.0;" x1="233" x2="233" y1="245.125" y2="263.2188"/><polygon fill="#000000" points="236,251.125,242,251.125,239,258.2188" style="stroke:#000000;stroke-width:1.0;"/><rect fill="#EEEEEE" height="18.0938" style="stroke:#000000;stroke-width:1.0;" width="55" x="247" y="245.125"/><text fill="#000000" font-family="sans-serif" font-size="12" lengthAdjust="spacing" textLength="39" x="249" y="259.582">hh:mm</text><line style="stroke:#000000;stroke-width:1.0;" x1="291" x2="291" y1="245.125" y2="263.2188"/><polygon fill="#000000" points="294,251.125,300,251.125,297,258.2188" style="stroke:#000000;stroke-width:1.0;"/><rect fill="#EEEEEE" height="18.0938" style="stroke:#000000;stroke-width:1.0;" width="95" x="393" y="245.125"/><text fill="#000000" font-family="sans-serif" font-size="12" lengthAdjust="spacing" textLength="62" x="395" y="259.582">jj/mm/aaaa</text><line style="stroke:#000000;stroke-width:1.0;" x1="477" x2="477" y1="245.125" y2="263.2188"/><polygon fill="#000000" points="480,251.125,486,251.125,483,258.2188" style="stroke:#000000;stroke-width:1.0;"/><rect fill="#EEEEEE" height="18.0938" style="stroke:#000000;stroke-width:1.0;" width="55" x="491" y="245.125"/><text fill="#000000" font-family="sans-serif" font-size="12" lengthAdjust="spacing" textLength="39" x="493" y="259.582">hh:mm</text><line style="stroke:#000000;stroke-width:1.0;" x1="535" x2="535" y1="245.125" y2="263.2188"/><polygon fill="#000000" points="538,251.125,544,251.125,541,258.2188" style="stroke:#000000;stroke-width:1.0;"/><text fill="#0000FF" font-family="sans-serif" font-size="12" font-style="italic" lengthAdjust="spacing" textLength="95" x="550" y="256.582">dur&#233;e de la sortie</text><text fill="#000000" font-family="sans-serif" font-size="12" lengthAdjust="spacing" textLength="85" x="7" y="296.7695">Observateurs* :</text><rect fill="#EEEEEE" height="18.0938" style="stroke:#000000;stroke-width:1.0;" width="239" x="148" y="284.3125"/><text fill="#000000" font-family="sans-serif" font-size="12" lengthAdjust="spacing" textLength="84" x="150" y="298.7695">Observateur #1</text><line style="stroke:#000000;stroke-width:1.0;" x1="376" x2="376" y1="284.3125" y2="302.4063"/><polygon fill="#000000" points="379,290.3125,385,290.3125,382,297.4063" style="stroke:#000000;stroke-width:1.0;"/><rect fill="#EEEEEE" height="12" rx="5" ry="5" style="stroke:#000000;stroke-width:2.5;" width="20" x="395.5" y="287.8125"/><path d="M404.5,289.8125 L404.5,292.8125 L401.5,292.8125 L401.5,294.8125 L404.5,294.8125 L404.5,297.8125 L406.5,297.8125 L406.5,294.8125 L409.5,294.8125 L409.5,292.8125 L406.5,292.8125 L406.5,289.8125 L404.5,289.8125 " fill="#000000" style="stroke:;stroke-width:0.0;stroke-dasharray:;"/><rect fill="#EEEEEE" height="12" rx="5" ry="5" style="stroke:#000000;stroke-width:2.5;" width="20" x="422.5" y="287.8125"/><path d="M429.91,289.8125 L428.5,291.2225 L429.22,291.9425 L431,293.7525 L429.22,295.5325 L428.5,296.2225 L429.91,297.6625 L430.63,296.9425 L432.44,295.1325 L434.22,296.9425 L434.91,297.6625 L436.35,296.2225 L435.63,295.5325 L433.82,293.7525 L435.63,291.9425 L436.35,291.2225 L434.91,289.8125 L434.22,290.5325 L432.44,292.3125 L430.63,290.5325 L429.91,289.8125 " fill="#000000" style="stroke:;stroke-width:0.0;stroke-dasharray:;"/><text fill="#000000" font-family="sans-serif" font-size="12" font-weight="bold" lengthAdjust="spacing" textLength="101" x="6" y="335.957">Caract&#233;ristiques :</text><text fill="#000000" font-family="sans-serif" font-size="12" lengthAdjust="spacing" textLength="205" x="12" y="354.0508">Disponibilit&#233; de la fiche de pr&#233;-vente :</text><rect fill="#EEEEEE" height="18.0938" style="stroke:#000000;stroke-width:1.0;" width="39" x="219" y="341.5938"/><text fill="#000000" font-family="sans-serif" font-size="12" lengthAdjust="spacing" textLength="19" x="221" y="356.0508">Oui</text><line style="stroke:#000000;stroke-width:1.0;" x1="247" x2="247" y1="341.5938" y2="359.6875"/><polygon fill="#000000" points="250,347.5938,256,347.5938,253,354.6875" style="stroke:#000000;stroke-width:1.0;"/><text fill="#000000" font-family="sans-serif" font-size="12" lengthAdjust="spacing" textLength="155" x="12" y="375.1445">Strat&#233;gie d'&#233;chantillonnage :</text><rect fill="#EEEEEE" height="18.0938" style="stroke:#000000;stroke-width:1.0;" width="503" x="219" y="362.6875"/><text fill="#000000" font-family="sans-serif" font-size="12" lengthAdjust="spacing" textLength="359" x="221" y="377.1445">Simultan&#233; : Toutes esp&#232;ces commerciales - Simultan&#233; - Complet</text><line style="stroke:#000000;stroke-width:1.0;" x1="711" x2="711" y1="362.6875" y2="380.7813"/><polygon fill="#000000" points="714,368.6875,720,368.6875,717,375.7813" style="stroke:#000000;stroke-width:1.0;"/><text fill="#000000" font-family="sans-serif" font-size="12" lengthAdjust="spacing" textLength="52" x="12" y="396.2383">PETS ?* :</text><rect fill="#EEEEEE" height="18.0938" style="stroke:#000000;stroke-width:1.0;" width="39" x="219" y="383.7813"/><text fill="#000000" font-family="sans-serif" font-size="12" lengthAdjust="spacing" textLength="19" x="221" y="398.2383">Oui</text><line style="stroke:#000000;stroke-width:1.0;" x1="247" x2="247" y1="383.7813" y2="401.875"/><polygon fill="#000000" points="250,389.7813,256,389.7813,253,396.875" style="stroke:#000000;stroke-width:1.0;"/><text fill="#000000" font-family="sans-serif" font-size="12" lengthAdjust="spacing" textLength="133" x="12" y="417.332">Validation observateur* :</text><rect fill="#EEEEEE" height="18.0938" style="stroke:#000000;stroke-width:1.0;" width="159" x="219" y="404.875"/><text fill="#000000" font-family="sans-serif" font-size="12" lengthAdjust="spacing" textLength="112" x="221" y="419.332">Donn&#233;es contr&#244;l&#233;es</text><line style="stroke:#000000;stroke-width:1.0;" x1="367" x2="367" y1="404.875" y2="422.9688"/><polygon fill="#000000" points="370,410.875,376,410.875,373,417.9688" style="stroke:#000000;stroke-width:1.0;"/><text fill="#000000" font-family="sans-serif" font-size="12" lengthAdjust="spacing" textLength="108" x="12" y="438.4258">Validation soci&#233;t&#233;* :</text><rect fill="#EEEEEE" height="18.0938" style="stroke:#000000;stroke-width:1.0;" width="159" x="219" y="425.9688"/><text fill="#000000" font-family="sans-serif" font-size="12" lengthAdjust="spacing" textLength="93" x="221" y="440.4258">Donn&#233;es valides</text><line style="stroke:#000000;stroke-width:1.0;" x1="367" x2="367" y1="425.9688" y2="444.0625"/><polygon fill="#000000" points="370,431.9688,376,431.9688,373,439.0625" style="stroke:#000000;stroke-width:1.0;"/><text fill="#000000" font-family="sans-serif" font-size="12" font-weight="bold" lengthAdjust="spacing" textLength="90" x="7" y="478.6133">Commentaires :</text><text fill="#000000" font-family="sans-serif" font-size="12" lengthAdjust="spacing" textLength="3" x="11" y="513.8008">&#160;</text><line style="stroke:#000000;stroke-width:1.0;" x1="9" x2="732" y1="516.4375" y2="516.4375"/><line style="stroke:#000000;stroke-width:1.0;" x1="9" x2="9" y1="513.4375" y2="515.4375"/><line style="stroke:#000000;stroke-width:1.0;" x1="732" x2="732" y1="513.4375" y2="515.4375"/><line style="stroke:#000000;stroke-width:1.0;" x1="7" x2="735" y1="483.25" y2="483.25"/><line style="stroke:#000000;stroke-width:1.0;" x1="7" x2="735" y1="519.4375" y2="519.4375"/><line style="stroke:#000000;stroke-width:1.0;" x1="7" x2="7" y1="483.25" y2="500.3438"/><line style="stroke:#000000;stroke-width:1.0;" x1="735" x2="735" y1="500.3438" y2="519.4375"/><line style="stroke:#000000;stroke-width:1.0;" x1="735" x2="735" y1="483.25" y2="500.3438"/><line style="stroke:#000000;stroke-width:1.0;" x1="7" x2="7" y1="500.3438" y2="519.4375"/><rect fill="#EEEEEE" height="19.0938" rx="5" ry="5" style="stroke:#000000;stroke-width:2.5;" width="52" x="9.5" y="525.9375"/><text fill="#000000" font-family="sans-serif" font-size="12" lengthAdjust="spacing" textLength="40" x="15.5" y="540.3945">Fermer</text><rect fill="#EEEEEE" height="19.0938" rx="5" ry="5" style="stroke:#000000;stroke-width:2.5;" width="92" x="68.5" y="525.9375"/><text fill="#000000" font-family="sans-serif" font-size="12" lengthAdjust="spacing" textLength="70" x="79.5" y="540.3945">Sauvegarder</text></g></svg>