<?xml version="1.0" encoding="us-ascii" standalone="no"?><svg xmlns="http://www.w3.org/2000/svg" xmlns:xlink="http://www.w3.org/1999/xlink" contentStyleType="text/css" height="447px" preserveAspectRatio="none" style="width:452px;height:447px;background:#FFFFFF;" version="1.1" viewBox="0 0 452 447" width="452px" zoomAndPan="magnify"><defs><filter height="1" id="b554w9llatuz30" width="1" x="0" y="0"><feFlood flood-color="#DDDDDD" result="flood"/><feComposite in="SourceGraphic" in2="flood" operator="over"/></filter></defs><g><text fill="#808080" font-family="sans-serif" font-size="20" font-weight="bold" lengthAdjust="spacing" textLength="104" x="8" y="29.582">ObsVentes</text><text fill="#000000" font-family="sans-serif" font-size="12" lengthAdjust="spacing" textLength="67" x="8" y="49.5508">Observateur</text><line style="stroke:#AAAAAA;stroke-width:1.0;" x1="8" x2="113" y1="93.9844" y2="93.9844"/><text fill="#000000" font-family="sans-serif" font-size="12" lengthAdjust="spacing" textLength="39" x="8" y="111.4336">Accueil</text><text fill="#808080" font-family="sans-serif" font-size="10" lengthAdjust="spacing" textLength="87" x="8" y="145.1973">Saisie de donn&#233;es</text><line style="stroke:#AAAAAA;stroke-width:1.0;" x1="8" x2="113" y1="153.207" y2="153.207"/><text fill="#000000" filter="url(#b554w9llatuz30)" font-family="sans-serif" font-size="12" lengthAdjust="spacing" textLength="39" x="8" y="170.6563">Sorties</text><text fill="#808080" font-family="sans-serif" font-size="10" lengthAdjust="spacing" textLength="56" x="8" y="348.1074">R&#233;f&#233;rentiels</text><line style="stroke:#AAAAAA;stroke-width:1.0;" x1="8" x2="113" y1="356.1172" y2="356.1172"/><line style="stroke:#AAAAAA;stroke-width:1.0;" x1="8" x2="113" y1="382.0781" y2="382.0781"/><text fill="#000000" font-family="sans-serif" font-size="12" lengthAdjust="spacing" textLength="86" x="8" y="399.5273">Se d&#233;connecter</text><line style="stroke:#AAAAAA;stroke-width:1.0;" x1="8" x2="113" y1="408.0391" y2="408.0391"/><text fill="#808080" font-family="sans-serif" font-size="10" lengthAdjust="spacing" textLength="80" x="8" y="425.3301">V XXX - &#224; propos</text><line style="stroke:#000000;stroke-width:1.0;" x1="6" x2="149" y1="6" y2="6"/><line style="stroke:#000000;stroke-width:1.0;" x1="6" x2="149" y1="429.8398" y2="429.8398"/><line style="stroke:#000000;stroke-width:1.0;" x1="6" x2="6" y1="6" y2="412.5391"/><line style="stroke:#000000;stroke-width:1.0;" x1="149" x2="149" y1="412.5391" y2="429.8398"/><line style="stroke:#000000;stroke-width:1.0;" x1="149" x2="149" y1="6" y2="412.5391"/><line style="stroke:#000000;stroke-width:1.0;" x1="6" x2="6" y1="412.5391" y2="429.8398"/><text fill="#000000" font-family="sans-serif" font-size="12" font-weight="bold" lengthAdjust="spacing" textLength="41" x="158" y="20.9492">Sorties</text><rect fill="#EEEEEE" height="19.9609" rx="5" ry="5" style="stroke:#000000;stroke-width:2.5;" width="12" x="428.5" y="10.5"/><text fill="#000000" font-family="sans-serif" font-size="12" font-weight="bold" lengthAdjust="spacing" textLength="7" x="431" y="25.4492">+</text><line style="stroke:#AAAAAA;stroke-width:1.0;" x1="157" x2="445" y1="39.4609" y2="39.4609"/><text fill="#000000" font-family="sans-serif" font-size="12" font-weight="bold" lengthAdjust="spacing" textLength="102" x="258" y="237.5195">Fen&#234;tre principale</text><line style="stroke:#000000;stroke-width:1.0;" x1="156" x2="445" y1="6" y2="6"/><line style="stroke:#000000;stroke-width:1.0;" x1="156" x2="445" y1="440.1016" y2="440.1016"/><line style="stroke:#000000;stroke-width:1.0;" x1="156" x2="156" y1="6" y2="34.9609"/><line style="stroke:#000000;stroke-width:1.0;" x1="445" x2="445" y1="6" y2="34.9609"/><line style="stroke:#000000;stroke-width:1.0;" x1="156" x2="156" y1="278.4531" y2="296.4141"/><line style="stroke:#000000;stroke-width:1.0;" x1="445" x2="445" y1="278.4531" y2="296.4141"/><line style="stroke:#000000;stroke-width:1.0;" x1="156" x2="156" y1="204.6094" y2="222.5703"/><line style="stroke:#000000;stroke-width:1.0;" x1="445" x2="445" y1="204.6094" y2="222.5703"/><line style="stroke:#000000;stroke-width:1.0;" x1="156" x2="156" y1="132.7656" y2="150.7266"/><line style="stroke:#000000;stroke-width:1.0;" x1="445" x2="445" y1="132.7656" y2="150.7266"/><line style="stroke:#000000;stroke-width:1.0;" x1="156" x2="156" y1="404.1797" y2="422.1406"/><line style="stroke:#000000;stroke-width:1.0;" x1="445" x2="445" y1="404.1797" y2="422.1406"/><line style="stroke:#000000;stroke-width:1.0;" x1="156" x2="156" y1="60.9219" y2="78.8828"/><line style="stroke:#000000;stroke-width:1.0;" x1="445" x2="445" y1="60.9219" y2="78.8828"/><line style="stroke:#000000;stroke-width:1.0;" x1="156" x2="156" y1="332.3359" y2="350.2969"/><line style="stroke:#000000;stroke-width:1.0;" x1="445" x2="445" y1="332.3359" y2="350.2969"/><line style="stroke:#000000;stroke-width:1.0;" x1="156" x2="156" y1="260.4922" y2="278.4531"/><line style="stroke:#000000;stroke-width:1.0;" x1="445" x2="445" y1="260.4922" y2="278.4531"/><line style="stroke:#000000;stroke-width:1.0;" x1="156" x2="156" y1="186.6484" y2="204.6094"/><line style="stroke:#000000;stroke-width:1.0;" x1="445" x2="445" y1="186.6484" y2="204.6094"/><line style="stroke:#000000;stroke-width:1.0;" x1="156" x2="156" y1="114.8047" y2="132.7656"/><line style="stroke:#000000;stroke-width:1.0;" x1="445" x2="445" y1="114.8047" y2="132.7656"/><line style="stroke:#000000;stroke-width:1.0;" x1="156" x2="156" y1="386.2188" y2="404.1797"/><line style="stroke:#000000;stroke-width:1.0;" x1="445" x2="445" y1="386.2188" y2="404.1797"/><line style="stroke:#000000;stroke-width:1.0;" x1="156" x2="156" y1="42.9609" y2="60.9219"/><line style="stroke:#000000;stroke-width:1.0;" x1="445" x2="445" y1="42.9609" y2="60.9219"/><line style="stroke:#000000;stroke-width:1.0;" x1="156" x2="156" y1="314.375" y2="332.3359"/><line style="stroke:#000000;stroke-width:1.0;" x1="445" x2="445" y1="314.375" y2="332.3359"/><line style="stroke:#000000;stroke-width:1.0;" x1="156" x2="156" y1="242.5313" y2="260.4922"/><line style="stroke:#000000;stroke-width:1.0;" x1="445" x2="445" y1="242.5313" y2="260.4922"/><line style="stroke:#000000;stroke-width:1.0;" x1="156" x2="156" y1="168.6875" y2="186.6484"/><line style="stroke:#000000;stroke-width:1.0;" x1="445" x2="445" y1="168.6875" y2="186.6484"/><line style="stroke:#000000;stroke-width:1.0;" x1="156" x2="156" y1="96.8438" y2="114.8047"/><line style="stroke:#000000;stroke-width:1.0;" x1="445" x2="445" y1="96.8438" y2="114.8047"/><line style="stroke:#000000;stroke-width:1.0;" x1="156" x2="156" y1="368.2578" y2="386.2188"/><line style="stroke:#000000;stroke-width:1.0;" x1="445" x2="445" y1="368.2578" y2="386.2188"/><line style="stroke:#000000;stroke-width:1.0;" x1="156" x2="156" y1="34.9609" y2="42.9609"/><line style="stroke:#000000;stroke-width:1.0;" x1="445" x2="445" y1="34.9609" y2="42.9609"/><line style="stroke:#000000;stroke-width:1.0;" x1="156" x2="156" y1="296.4141" y2="314.375"/><line style="stroke:#000000;stroke-width:1.0;" x1="445" x2="445" y1="296.4141" y2="314.375"/><line style="stroke:#000000;stroke-width:1.0;" x1="156" x2="156" y1="222.5703" y2="242.5313"/><line style="stroke:#000000;stroke-width:1.0;" x1="445" x2="445" y1="222.5703" y2="242.5313"/><line style="stroke:#000000;stroke-width:1.0;" x1="156" x2="156" y1="150.7266" y2="168.6875"/><line style="stroke:#000000;stroke-width:1.0;" x1="445" x2="445" y1="150.7266" y2="168.6875"/><line style="stroke:#000000;stroke-width:1.0;" x1="156" x2="156" y1="422.1406" y2="440.1016"/><line style="stroke:#000000;stroke-width:1.0;" x1="445" x2="445" y1="422.1406" y2="440.1016"/><line style="stroke:#000000;stroke-width:1.0;" x1="156" x2="156" y1="78.8828" y2="96.8438"/><line style="stroke:#000000;stroke-width:1.0;" x1="445" x2="445" y1="78.8828" y2="96.8438"/><line style="stroke:#000000;stroke-width:1.0;" x1="156" x2="156" y1="350.2969" y2="368.2578"/><line style="stroke:#000000;stroke-width:1.0;" x1="445" x2="445" y1="350.2969" y2="368.2578"/><!--SRC=[jLDVQzim47_NfpZOIqk9YTrrPIODtU9sa2Mq95i8Z3ueoYM8kP8voO4kwtVfQ_Or_CLsJfnva0IsbXhT-Nmw_VoxFxfqNf9tClLYAG2M9woWjDPFQz9kpQpne6ngwM9E-01E_y2BgDc-cRWH6e-k3Fm9mI7POd4yqa9wp6dh2dQCHcDhVL0gHvrMu3k1-sc5pVPGQgSHfhoiCSKAtIvsQoBLz_XDaYJjeIMlwvXzl_fFuz-f3ehLh5WH5r5ZkeTcZLNxXfnNiLAS6YgFj4jx4_ee_kxZGGOZ68_7q83Y2JAocNMRionLzpRp0Cjo4gfILJkrUgQynlh6D4_krXdyALhm0hryVde7fIpbDPhYboVagckZT2PJh4W7BzBhLzKxyIWkqKpNLrlSfjBuh_qUB92SjWR286f6fq5uUjJdhmGLX264x-Ee6P-TG-Vg2vJxn-BeqsqFdCr9yU1fvqbFSiy0nw8h5n86EG_lFSPmaw7f9f-t3hWo2qtMtFDmY-weNmUyUzlug3tFCJ4L6FL5WZEPfvvFA3lLPXv39mkZiqZqf9ddSixWCn8Toy3q4CFru3S0]--></g></svg>