<?xml version="1.0" encoding="us-ascii" standalone="no"?><svg xmlns="http://www.w3.org/2000/svg" xmlns:xlink="http://www.w3.org/1999/xlink" contentStyleType="text/css" height="93px" preserveAspectRatio="none" style="width:720px;height:93px;background:#FFFFFF;" version="1.1" viewBox="0 0 720 93" width="720px" zoomAndPan="magnify"><defs/><g><text fill="#000000" font-family="sans-serif" font-size="12" font-weight="bold" lengthAdjust="spacing" textLength="41" x="7" y="19.457">Sorties</text><path d="M655,12.0938 L655,15.0938 L652,15.0938 L652,17.0938 L655,17.0938 L655,20.0938 L657,20.0938 L657,17.0938 L660,17.0938 L660,15.0938 L657,15.0938 L657,12.0938 L655,12.0938 " fill="#000000" style="stroke:;stroke-width:0.0;stroke-dasharray:;"/><text fill="#000000" font-family="sans-serif" font-size="12" lengthAdjust="spacing" textLength="3" x="661" y="20.457">&#160;</text><path d="M668,12.0938 C667.45,12.0938 667,12.5438 667,13.0938 L666,13.0938 C665.45,13.0938 665,13.5438 665,14.0938 L672,14.0938 C672,13.5438 671.55,13.0938 671,13.0938 L670,13.0938 C670,12.5438 669.55,12.0938 669,12.0938 L668,12.0938 M666,15.0938 L666,19.9038 C666,20.0138 666.08,20.0938 666.19,20.0938 L670.82,20.0938 C670.93,20.0938 671.01,20.0138 671.01,19.9038 L671.01,15.0938 L670.01,15.0938 L670.01,18.5938 C670.01,18.8738 669.79,19.0938 669.51,19.0938 C669.23,19.0938 669.01,18.8738 669.01,18.5938 L669.01,15.0938 L668.01,15.0938 L668.01,18.5938 C668.01,18.8738 667.79,19.0938 667.51,19.0938 C667.23,19.0938 667.01,18.8738 667.01,18.5938 L667.01,15.0938 L666.01,15.0938 " fill="#000000" style="stroke:;stroke-width:0.0;stroke-dasharray:;"/><text fill="#000000" font-family="sans-serif" font-size="12" lengthAdjust="spacing" textLength="3" x="674" y="20.457">&#160;</text><text fill="#000000" font-family="sans-serif" font-size="12" font-weight="bold" lengthAdjust="spacing" textLength="7" x="677" y="20.457">Y</text><line style="stroke:#AAAAAA;stroke-width:1.0;" x1="6" x2="713" y1="30.5938" y2="30.5938"/><text fill="#000000" font-family="sans-serif" font-size="12" lengthAdjust="spacing" textLength="3" x="27" y="48.5508">.</text><rect fill="none" height="10" style="stroke:#000000;stroke-width:1.5;" width="10" x="9" y="38.6406"/><text fill="#000000" font-family="sans-serif" font-size="12" font-weight="bold" lengthAdjust="spacing" textLength="22" x="32" y="48.5508">Etat</text><text fill="#000000" font-family="sans-serif" font-size="12" font-weight="bold" lengthAdjust="spacing" textLength="68" x="56" y="48.5508">Programme</text><text fill="#000000" font-family="sans-serif" font-size="12" font-weight="bold" lengthAdjust="spacing" textLength="41" x="146" y="48.5508">Origine</text><text fill="#000000" font-family="sans-serif" font-size="12" font-weight="bold" lengthAdjust="spacing" textLength="90" x="236" y="48.5508">Lieu de la sortie</text><text fill="#000000" font-family="sans-serif" font-size="12" font-weight="bold" lengthAdjust="spacing" textLength="97" x="338" y="48.5508">Date/heure d&#233;but</text><text fill="#000000" font-family="sans-serif" font-size="12" font-weight="bold" lengthAdjust="spacing" textLength="79" x="437" y="48.5508">Date/heure fin</text><text fill="#000000" font-family="sans-serif" font-size="12" font-weight="bold" lengthAdjust="spacing" textLength="86" x="535" y="48.5508">Observateur(s)</text><text fill="#000000" font-family="sans-serif" font-size="12" font-weight="bold" lengthAdjust="spacing" textLength="76" x="623" y="48.5508">Saisisseur(s)</text><text fill="#000000" font-family="sans-serif" font-size="12" lengthAdjust="spacing" textLength="3" x="27" y="65.6445">.</text><rect fill="none" height="10" style="stroke:#000000;stroke-width:1.5;" width="10" x="9" y="55.7344"/><polygon fill="#000000" points="10,59.1875,13,62.1875,20,53.1875,13,60.1875" style="stroke:#000000;stroke-width:1.5;"/><text fill="#000000" font-family="sans-serif" font-size="12" font-weight="bold" lengthAdjust="spacing" textLength="6" x="32" y="65.6445">&#160;&#160;</text><path d="M45,57.2813 L44,58.2813 L46,60.2813 L47,59.2813 L45,57.2813 M43,59.2813 L39,63.2813 L39,65.2813 L41,65.2813 L45,61.2813 L43,59.2813 " fill="#000000" style="stroke:;stroke-width:0.0;stroke-dasharray:;"/><text fill="#000000" font-family="sans-serif" font-size="12" lengthAdjust="spacing" textLength="88" x="56" y="65.6445">SIH-OBSVENTE</text><text fill="#000000" font-family="sans-serif" font-size="12" lengthAdjust="spacing" textLength="88" x="146" y="65.6445">SIH-OBSVENTE</text><text fill="#000000" font-family="sans-serif" font-size="12" lengthAdjust="spacing" textLength="100" x="236" y="65.6445">XDZ - Douarnenez</text><text fill="#000000" font-family="sans-serif" font-size="12" lengthAdjust="spacing" textLength="96" x="338" y="65.6445">25/11/2023 13:00</text><text fill="#000000" font-family="sans-serif" font-size="12" lengthAdjust="spacing" textLength="96" x="437" y="65.6445">25/11/2023 17:00</text><text fill="#000000" font-family="sans-serif" font-size="12" lengthAdjust="spacing" textLength="28" x="535" y="65.6445">obs1</text><text fill="#000000" font-family="sans-serif" font-size="12" lengthAdjust="spacing" textLength="28" x="623" y="65.6445">obs1</text><text fill="#000000" font-family="sans-serif" font-size="12" lengthAdjust="spacing" textLength="3" x="27" y="82.7383">.</text><rect fill="none" height="10" style="stroke:#000000;stroke-width:1.5;" width="10" x="9" y="72.8281"/><text fill="#000000" font-family="sans-serif" font-size="12" font-weight="bold" lengthAdjust="spacing" textLength="6" x="32" y="82.7383">&#160;&#160;</text><path d="M45,74.375 L44,75.375 L46,77.375 L47,76.375 L45,74.375 M43,76.375 L39,80.375 L39,82.375 L41,82.375 L45,78.375 L43,76.375 " fill="#000000" style="stroke:;stroke-width:0.0;stroke-dasharray:;"/><text fill="#000000" font-family="sans-serif" font-size="12" lengthAdjust="spacing" textLength="88" x="56" y="82.7383">SIH-OBSVENTE</text><text fill="#000000" font-family="sans-serif" font-size="12" lengthAdjust="spacing" textLength="74" x="146" y="82.7383">SIH-OBSDEB</text><text fill="#000000" font-family="sans-serif" font-size="12" lengthAdjust="spacing" textLength="100" x="236" y="82.7383">XDZ - Douarnenez</text><text fill="#000000" font-family="sans-serif" font-size="12" lengthAdjust="spacing" textLength="96" x="338" y="82.7383">26/11/2023 11:00</text><text fill="#000000" font-family="sans-serif" font-size="12" lengthAdjust="spacing" textLength="96" x="437" y="82.7383">26/11/2023 15:00</text><text fill="#000000" font-family="sans-serif" font-size="12" lengthAdjust="spacing" textLength="62" x="535" y="82.7383">obs1, obs2</text><text fill="#000000" font-family="sans-serif" font-size="12" lengthAdjust="spacing" textLength="28" x="623" y="82.7383">obs1</text><path d="M702.09,70.2813 C702.03,70.2813 702,70.3213 702,70.3713 L702,76.1813 C702,76.2313 702.04,76.2713 702.09,76.2713 L708,76.2713 L710,78.2713 L710,70.3613 C710,70.3013 709.96,70.2713 709.91,70.2713 L702.1,70.2713 " fill="#000000" style="stroke:;stroke-width:0.0;stroke-dasharray:;"/><line style="stroke:#000000;stroke-width:1.0;" x1="6" x2="31" y1="35.0938" y2="35.0938"/><line style="stroke:#000000;stroke-width:1.0;" x1="31" x2="55" y1="35.0938" y2="35.0938"/><line style="stroke:#000000;stroke-width:1.0;" x1="55" x2="145" y1="35.0938" y2="35.0938"/><line style="stroke:#000000;stroke-width:1.0;" x1="145" x2="235" y1="35.0938" y2="35.0938"/><line style="stroke:#000000;stroke-width:1.0;" x1="235" x2="337" y1="35.0938" y2="35.0938"/><line style="stroke:#000000;stroke-width:1.0;" x1="337" x2="436" y1="35.0938" y2="35.0938"/><line style="stroke:#000000;stroke-width:1.0;" x1="436" x2="534" y1="35.0938" y2="35.0938"/><line style="stroke:#000000;stroke-width:1.0;" x1="534" x2="622" y1="35.0938" y2="35.0938"/><line style="stroke:#000000;stroke-width:1.0;" x1="622" x2="700" y1="35.0938" y2="35.0938"/><line style="stroke:#000000;stroke-width:1.0;" x1="700" x2="712" y1="35.0938" y2="35.0938"/><line style="stroke:#000000;stroke-width:1.0;" x1="6" x2="31" y1="86.375" y2="86.375"/><line style="stroke:#000000;stroke-width:1.0;" x1="31" x2="55" y1="86.375" y2="86.375"/><line style="stroke:#000000;stroke-width:1.0;" x1="55" x2="145" y1="86.375" y2="86.375"/><line style="stroke:#000000;stroke-width:1.0;" x1="145" x2="235" y1="86.375" y2="86.375"/><line style="stroke:#000000;stroke-width:1.0;" x1="235" x2="337" y1="86.375" y2="86.375"/><line style="stroke:#000000;stroke-width:1.0;" x1="337" x2="436" y1="86.375" y2="86.375"/><line style="stroke:#000000;stroke-width:1.0;" x1="436" x2="534" y1="86.375" y2="86.375"/><line style="stroke:#000000;stroke-width:1.0;" x1="534" x2="622" y1="86.375" y2="86.375"/><line style="stroke:#000000;stroke-width:1.0;" x1="622" x2="700" y1="86.375" y2="86.375"/><line style="stroke:#000000;stroke-width:1.0;" x1="700" x2="712" y1="86.375" y2="86.375"/><line style="stroke:#000000;stroke-width:1.0;" x1="6" x2="31" y1="69.2813" y2="69.2813"/><line style="stroke:#000000;stroke-width:1.0;" x1="31" x2="55" y1="69.2813" y2="69.2813"/><line style="stroke:#000000;stroke-width:1.0;" x1="55" x2="145" y1="69.2813" y2="69.2813"/><line style="stroke:#000000;stroke-width:1.0;" x1="145" x2="235" y1="69.2813" y2="69.2813"/><line style="stroke:#000000;stroke-width:1.0;" x1="235" x2="337" y1="69.2813" y2="69.2813"/><line style="stroke:#000000;stroke-width:1.0;" x1="337" x2="436" y1="69.2813" y2="69.2813"/><line style="stroke:#000000;stroke-width:1.0;" x1="436" x2="534" y1="69.2813" y2="69.2813"/><line style="stroke:#000000;stroke-width:1.0;" x1="534" x2="622" y1="69.2813" y2="69.2813"/><line style="stroke:#000000;stroke-width:1.0;" x1="622" x2="700" y1="69.2813" y2="69.2813"/><line style="stroke:#000000;stroke-width:1.0;" x1="700" x2="712" y1="69.2813" y2="69.2813"/><line style="stroke:#000000;stroke-width:1.0;" x1="6" x2="31" y1="52.1875" y2="52.1875"/><line style="stroke:#000000;stroke-width:1.0;" x1="31" x2="55" y1="52.1875" y2="52.1875"/><line style="stroke:#000000;stroke-width:1.0;" x1="55" x2="145" y1="52.1875" y2="52.1875"/><line style="stroke:#000000;stroke-width:1.0;" x1="145" x2="235" y1="52.1875" y2="52.1875"/><line style="stroke:#000000;stroke-width:1.0;" x1="235" x2="337" y1="52.1875" y2="52.1875"/><line style="stroke:#000000;stroke-width:1.0;" x1="337" x2="436" y1="52.1875" y2="52.1875"/><line style="stroke:#000000;stroke-width:1.0;" x1="436" x2="534" y1="52.1875" y2="52.1875"/><line style="stroke:#000000;stroke-width:1.0;" x1="534" x2="622" y1="52.1875" y2="52.1875"/><line style="stroke:#000000;stroke-width:1.0;" x1="622" x2="700" y1="52.1875" y2="52.1875"/><line style="stroke:#000000;stroke-width:1.0;" x1="700" x2="712" y1="52.1875" y2="52.1875"/><line style="stroke:#000000;stroke-width:1.0;" x1="6" x2="6" y1="35.0938" y2="52.1875"/><line style="stroke:#000000;stroke-width:1.0;" x1="31" x2="31" y1="35.0938" y2="52.1875"/><line style="stroke:#000000;stroke-width:1.0;" x1="55" x2="55" y1="35.0938" y2="52.1875"/><line style="stroke:#000000;stroke-width:1.0;" x1="145" x2="145" y1="35.0938" y2="52.1875"/><line style="stroke:#000000;stroke-width:1.0;" x1="235" x2="235" y1="35.0938" y2="52.1875"/><line style="stroke:#000000;stroke-width:1.0;" x1="337" x2="337" y1="35.0938" y2="52.1875"/><line style="stroke:#000000;stroke-width:1.0;" x1="436" x2="436" y1="35.0938" y2="52.1875"/><line style="stroke:#000000;stroke-width:1.0;" x1="534" x2="534" y1="35.0938" y2="52.1875"/><line style="stroke:#000000;stroke-width:1.0;" x1="622" x2="622" y1="35.0938" y2="52.1875"/><line style="stroke:#000000;stroke-width:1.0;" x1="700" x2="700" y1="35.0938" y2="52.1875"/><line style="stroke:#000000;stroke-width:1.0;" x1="712" x2="712" y1="35.0938" y2="52.1875"/><line style="stroke:#000000;stroke-width:1.0;" x1="6" x2="6" y1="69.2813" y2="86.375"/><line style="stroke:#000000;stroke-width:1.0;" x1="31" x2="31" y1="69.2813" y2="86.375"/><line style="stroke:#000000;stroke-width:1.0;" x1="55" x2="55" y1="69.2813" y2="86.375"/><line style="stroke:#000000;stroke-width:1.0;" x1="145" x2="145" y1="69.2813" y2="86.375"/><line style="stroke:#000000;stroke-width:1.0;" x1="235" x2="235" y1="69.2813" y2="86.375"/><line style="stroke:#000000;stroke-width:1.0;" x1="337" x2="337" y1="69.2813" y2="86.375"/><line style="stroke:#000000;stroke-width:1.0;" x1="436" x2="436" y1="69.2813" y2="86.375"/><line style="stroke:#000000;stroke-width:1.0;" x1="534" x2="534" y1="69.2813" y2="86.375"/><line style="stroke:#000000;stroke-width:1.0;" x1="622" x2="622" y1="69.2813" y2="86.375"/><line style="stroke:#000000;stroke-width:1.0;" x1="700" x2="700" y1="69.2813" y2="86.375"/><line style="stroke:#000000;stroke-width:1.0;" x1="712" x2="712" y1="69.2813" y2="86.375"/><line style="stroke:#000000;stroke-width:1.0;" x1="6" x2="6" y1="52.1875" y2="69.2813"/><line style="stroke:#000000;stroke-width:1.0;" x1="31" x2="31" y1="52.1875" y2="69.2813"/><line style="stroke:#000000;stroke-width:1.0;" x1="55" x2="55" y1="52.1875" y2="69.2813"/><line style="stroke:#000000;stroke-width:1.0;" x1="145" x2="145" y1="52.1875" y2="69.2813"/><line style="stroke:#000000;stroke-width:1.0;" x1="235" x2="235" y1="52.1875" y2="69.2813"/><line style="stroke:#000000;stroke-width:1.0;" x1="337" x2="337" y1="52.1875" y2="69.2813"/><line style="stroke:#000000;stroke-width:1.0;" x1="436" x2="436" y1="52.1875" y2="69.2813"/><line style="stroke:#000000;stroke-width:1.0;" x1="534" x2="534" y1="52.1875" y2="69.2813"/><line style="stroke:#000000;stroke-width:1.0;" x1="622" x2="622" y1="52.1875" y2="69.2813"/><line style="stroke:#000000;stroke-width:1.0;" x1="700" x2="700" y1="52.1875" y2="69.2813"/><line style="stroke:#000000;stroke-width:1.0;" x1="712" x2="712" y1="52.1875" y2="69.2813"/></g></svg>