<?xml version="1.0" encoding="us-ascii" standalone="no"?><svg xmlns="http://www.w3.org/2000/svg" xmlns:xlink="http://www.w3.org/1999/xlink" contentStyleType="text/css" height="96px" preserveAspectRatio="none" style="width:720px;height:96px;background:#FFFFFF;" version="1.1" viewBox="0 0 720 96" width="720px" zoomAndPan="magnify"><defs/><g><text fill="#000000" font-family="sans-serif" font-size="12" font-weight="bold" lengthAdjust="spacing" textLength="41" x="7" y="19.9492">Sorties</text><path d="M655,12.9609 L655,15.9609 L652,15.9609 L652,17.9609 L655,17.9609 L655,20.9609 L657,20.9609 L657,17.9609 L660,17.9609 L660,15.9609 L657,15.9609 L657,12.9609 L655,12.9609 " fill="#000000" style="stroke:;stroke-width:0.0;stroke-dasharray:;"/><text fill="#000000" font-family="sans-serif" font-size="12" lengthAdjust="spacing" textLength="3" x="661" y="20.9492">&#160;</text><path d="M668,12.9609 C667.45,12.9609 667,13.4109 667,13.9609 L666,13.9609 C665.45,13.9609 665,14.4109 665,14.9609 L672,14.9609 C672,14.4109 671.55,13.9609 671,13.9609 L670,13.9609 C670,13.4109 669.55,12.9609 669,12.9609 L668,12.9609 M666,15.9609 L666,20.7709 C666,20.8809 666.08,20.9609 666.19,20.9609 L670.82,20.9609 C670.93,20.9609 671.01,20.8809 671.01,20.7709 L671.01,15.9609 L670.01,15.9609 L670.01,19.4609 C670.01,19.7409 669.79,19.9609 669.51,19.9609 C669.23,19.9609 669.01,19.7409 669.01,19.4609 L669.01,15.9609 L668.01,15.9609 L668.01,19.4609 C668.01,19.7409 667.79,19.9609 667.51,19.9609 C667.23,19.9609 667.01,19.7409 667.01,19.4609 L667.01,15.9609 L666.01,15.9609 " fill="#000000" style="stroke:;stroke-width:0.0;stroke-dasharray:;"/><text fill="#000000" font-family="sans-serif" font-size="12" lengthAdjust="spacing" textLength="3" x="674" y="20.9492">&#160;</text><text fill="#000000" font-family="sans-serif" font-size="12" font-weight="bold" lengthAdjust="spacing" textLength="7" x="677" y="20.9492">Y</text><line style="stroke:#AAAAAA;stroke-width:1.0;" x1="6" x2="713" y1="31.4609" y2="31.4609"/><text fill="#000000" font-family="sans-serif" font-size="12" lengthAdjust="spacing" textLength="3" x="27" y="49.9102">.</text><rect fill="none" height="10" style="stroke:#000000;stroke-width:1.5;" width="10" x="9" y="39.9414"/><text fill="#000000" font-family="sans-serif" font-size="12" font-weight="bold" lengthAdjust="spacing" textLength="22" x="32" y="49.9102">Etat</text><text fill="#000000" font-family="sans-serif" font-size="12" font-weight="bold" lengthAdjust="spacing" textLength="68" x="56" y="49.9102">Programme</text><text fill="#000000" font-family="sans-serif" font-size="12" font-weight="bold" lengthAdjust="spacing" textLength="41" x="146" y="49.9102">Origine</text><text fill="#000000" font-family="sans-serif" font-size="12" font-weight="bold" lengthAdjust="spacing" textLength="90" x="236" y="49.9102">Lieu de la sortie</text><text fill="#000000" font-family="sans-serif" font-size="12" font-weight="bold" lengthAdjust="spacing" textLength="97" x="338" y="49.9102">Date/heure d&#233;but</text><text fill="#000000" font-family="sans-serif" font-size="12" font-weight="bold" lengthAdjust="spacing" textLength="79" x="437" y="49.9102">Date/heure fin</text><text fill="#000000" font-family="sans-serif" font-size="12" font-weight="bold" lengthAdjust="spacing" textLength="86" x="535" y="49.9102">Observateur(s)</text><text fill="#000000" font-family="sans-serif" font-size="12" font-weight="bold" lengthAdjust="spacing" textLength="76" x="623" y="49.9102">Saisisseur(s)</text><text fill="#000000" font-family="sans-serif" font-size="12" lengthAdjust="spacing" textLength="3" x="27" y="67.8711">.</text><rect fill="none" height="10" style="stroke:#000000;stroke-width:1.5;" width="10" x="9" y="57.9023"/><polygon fill="#000000" points="10,60.9219,13,63.9219,20,54.9219,13,61.9219" style="stroke:#000000;stroke-width:1.5;"/><text fill="#000000" font-family="sans-serif" font-size="12" font-weight="bold" lengthAdjust="spacing" textLength="6" x="32" y="67.8711">&#160;&#160;</text><path d="M45,59.8828 L44,60.8828 L46,62.8828 L47,61.8828 L45,59.8828 M43,61.8828 L39,65.8828 L39,67.8828 L41,67.8828 L45,63.8828 L43,61.8828 " fill="#000000" style="stroke:;stroke-width:0.0;stroke-dasharray:;"/><text fill="#000000" font-family="sans-serif" font-size="12" lengthAdjust="spacing" textLength="88" x="56" y="67.8711">SIH-OBSVENTE</text><text fill="#000000" font-family="sans-serif" font-size="12" lengthAdjust="spacing" textLength="88" x="146" y="67.8711">SIH-OBSVENTE</text><text fill="#000000" font-family="sans-serif" font-size="12" lengthAdjust="spacing" textLength="100" x="236" y="67.8711">XDZ - Douarnenez</text><text fill="#000000" font-family="sans-serif" font-size="12" lengthAdjust="spacing" textLength="96" x="338" y="67.8711">25/11/2023 13:00</text><text fill="#000000" font-family="sans-serif" font-size="12" lengthAdjust="spacing" textLength="96" x="437" y="67.8711">25/11/2023 17:00</text><text fill="#000000" font-family="sans-serif" font-size="12" lengthAdjust="spacing" textLength="28" x="535" y="67.8711">obs1</text><text fill="#000000" font-family="sans-serif" font-size="12" lengthAdjust="spacing" textLength="28" x="623" y="67.8711">obs1</text><text fill="#000000" font-family="sans-serif" font-size="12" lengthAdjust="spacing" textLength="3" x="27" y="85.832">.</text><rect fill="none" height="10" style="stroke:#000000;stroke-width:1.5;" width="10" x="9" y="75.8633"/><text fill="#000000" font-family="sans-serif" font-size="12" font-weight="bold" lengthAdjust="spacing" textLength="6" x="32" y="85.832">&#160;&#160;</text><path d="M45,77.8438 L44,78.8438 L46,80.8438 L47,79.8438 L45,77.8438 M43,79.8438 L39,83.8438 L39,85.8438 L41,85.8438 L45,81.8438 L43,79.8438 " fill="#000000" style="stroke:;stroke-width:0.0;stroke-dasharray:;"/><text fill="#000000" font-family="sans-serif" font-size="12" lengthAdjust="spacing" textLength="88" x="56" y="85.832">SIH-OBSVENTE</text><text fill="#000000" font-family="sans-serif" font-size="12" lengthAdjust="spacing" textLength="74" x="146" y="85.832">SIH-OBSDEB</text><text fill="#000000" font-family="sans-serif" font-size="12" lengthAdjust="spacing" textLength="100" x="236" y="85.832">XDZ - Douarnenez</text><text fill="#000000" font-family="sans-serif" font-size="12" lengthAdjust="spacing" textLength="96" x="338" y="85.832">26/11/2023 11:00</text><text fill="#000000" font-family="sans-serif" font-size="12" lengthAdjust="spacing" textLength="96" x="437" y="85.832">26/11/2023 15:00</text><text fill="#000000" font-family="sans-serif" font-size="12" lengthAdjust="spacing" textLength="62" x="535" y="85.832">obs1, obs2</text><text fill="#000000" font-family="sans-serif" font-size="12" lengthAdjust="spacing" textLength="28" x="623" y="85.832">obs1</text><path d="M702.09,72.8828 C702.03,72.8828 702,72.9228 702,72.9728 L702,78.7828 C702,78.8328 702.04,78.8728 702.09,78.8728 L708,78.8728 L710,80.8728 L710,72.9628 C710,72.9028 709.96,72.8728 709.91,72.8728 L702.1,72.8728 " fill="#000000" style="stroke:;stroke-width:0.0;stroke-dasharray:;"/><line style="stroke:#000000;stroke-width:1.0;" x1="6" x2="31" y1="35.9609" y2="35.9609"/><line style="stroke:#000000;stroke-width:1.0;" x1="31" x2="55" y1="35.9609" y2="35.9609"/><line style="stroke:#000000;stroke-width:1.0;" x1="55" x2="145" y1="35.9609" y2="35.9609"/><line style="stroke:#000000;stroke-width:1.0;" x1="145" x2="235" y1="35.9609" y2="35.9609"/><line style="stroke:#000000;stroke-width:1.0;" x1="235" x2="337" y1="35.9609" y2="35.9609"/><line style="stroke:#000000;stroke-width:1.0;" x1="337" x2="436" y1="35.9609" y2="35.9609"/><line style="stroke:#000000;stroke-width:1.0;" x1="436" x2="534" y1="35.9609" y2="35.9609"/><line style="stroke:#000000;stroke-width:1.0;" x1="534" x2="622" y1="35.9609" y2="35.9609"/><line style="stroke:#000000;stroke-width:1.0;" x1="622" x2="700" y1="35.9609" y2="35.9609"/><line style="stroke:#000000;stroke-width:1.0;" x1="700" x2="712" y1="35.9609" y2="35.9609"/><line style="stroke:#000000;stroke-width:1.0;" x1="6" x2="31" y1="89.8438" y2="89.8438"/><line style="stroke:#000000;stroke-width:1.0;" x1="31" x2="55" y1="89.8438" y2="89.8438"/><line style="stroke:#000000;stroke-width:1.0;" x1="55" x2="145" y1="89.8438" y2="89.8438"/><line style="stroke:#000000;stroke-width:1.0;" x1="145" x2="235" y1="89.8438" y2="89.8438"/><line style="stroke:#000000;stroke-width:1.0;" x1="235" x2="337" y1="89.8438" y2="89.8438"/><line style="stroke:#000000;stroke-width:1.0;" x1="337" x2="436" y1="89.8438" y2="89.8438"/><line style="stroke:#000000;stroke-width:1.0;" x1="436" x2="534" y1="89.8438" y2="89.8438"/><line style="stroke:#000000;stroke-width:1.0;" x1="534" x2="622" y1="89.8438" y2="89.8438"/><line style="stroke:#000000;stroke-width:1.0;" x1="622" x2="700" y1="89.8438" y2="89.8438"/><line style="stroke:#000000;stroke-width:1.0;" x1="700" x2="712" y1="89.8438" y2="89.8438"/><line style="stroke:#000000;stroke-width:1.0;" x1="6" x2="31" y1="71.8828" y2="71.8828"/><line style="stroke:#000000;stroke-width:1.0;" x1="31" x2="55" y1="71.8828" y2="71.8828"/><line style="stroke:#000000;stroke-width:1.0;" x1="55" x2="145" y1="71.8828" y2="71.8828"/><line style="stroke:#000000;stroke-width:1.0;" x1="145" x2="235" y1="71.8828" y2="71.8828"/><line style="stroke:#000000;stroke-width:1.0;" x1="235" x2="337" y1="71.8828" y2="71.8828"/><line style="stroke:#000000;stroke-width:1.0;" x1="337" x2="436" y1="71.8828" y2="71.8828"/><line style="stroke:#000000;stroke-width:1.0;" x1="436" x2="534" y1="71.8828" y2="71.8828"/><line style="stroke:#000000;stroke-width:1.0;" x1="534" x2="622" y1="71.8828" y2="71.8828"/><line style="stroke:#000000;stroke-width:1.0;" x1="622" x2="700" y1="71.8828" y2="71.8828"/><line style="stroke:#000000;stroke-width:1.0;" x1="700" x2="712" y1="71.8828" y2="71.8828"/><line style="stroke:#000000;stroke-width:1.0;" x1="6" x2="31" y1="53.9219" y2="53.9219"/><line style="stroke:#000000;stroke-width:1.0;" x1="31" x2="55" y1="53.9219" y2="53.9219"/><line style="stroke:#000000;stroke-width:1.0;" x1="55" x2="145" y1="53.9219" y2="53.9219"/><line style="stroke:#000000;stroke-width:1.0;" x1="145" x2="235" y1="53.9219" y2="53.9219"/><line style="stroke:#000000;stroke-width:1.0;" x1="235" x2="337" y1="53.9219" y2="53.9219"/><line style="stroke:#000000;stroke-width:1.0;" x1="337" x2="436" y1="53.9219" y2="53.9219"/><line style="stroke:#000000;stroke-width:1.0;" x1="436" x2="534" y1="53.9219" y2="53.9219"/><line style="stroke:#000000;stroke-width:1.0;" x1="534" x2="622" y1="53.9219" y2="53.9219"/><line style="stroke:#000000;stroke-width:1.0;" x1="622" x2="700" y1="53.9219" y2="53.9219"/><line style="stroke:#000000;stroke-width:1.0;" x1="700" x2="712" y1="53.9219" y2="53.9219"/><line style="stroke:#000000;stroke-width:1.0;" x1="6" x2="6" y1="35.9609" y2="53.9219"/><line style="stroke:#000000;stroke-width:1.0;" x1="31" x2="31" y1="35.9609" y2="53.9219"/><line style="stroke:#000000;stroke-width:1.0;" x1="55" x2="55" y1="35.9609" y2="53.9219"/><line style="stroke:#000000;stroke-width:1.0;" x1="145" x2="145" y1="35.9609" y2="53.9219"/><line style="stroke:#000000;stroke-width:1.0;" x1="235" x2="235" y1="35.9609" y2="53.9219"/><line style="stroke:#000000;stroke-width:1.0;" x1="337" x2="337" y1="35.9609" y2="53.9219"/><line style="stroke:#000000;stroke-width:1.0;" x1="436" x2="436" y1="35.9609" y2="53.9219"/><line style="stroke:#000000;stroke-width:1.0;" x1="534" x2="534" y1="35.9609" y2="53.9219"/><line style="stroke:#000000;stroke-width:1.0;" x1="622" x2="622" y1="35.9609" y2="53.9219"/><line style="stroke:#000000;stroke-width:1.0;" x1="700" x2="700" y1="35.9609" y2="53.9219"/><line style="stroke:#000000;stroke-width:1.0;" x1="712" x2="712" y1="35.9609" y2="53.9219"/><line style="stroke:#000000;stroke-width:1.0;" x1="6" x2="6" y1="71.8828" y2="89.8438"/><line style="stroke:#000000;stroke-width:1.0;" x1="31" x2="31" y1="71.8828" y2="89.8438"/><line style="stroke:#000000;stroke-width:1.0;" x1="55" x2="55" y1="71.8828" y2="89.8438"/><line style="stroke:#000000;stroke-width:1.0;" x1="145" x2="145" y1="71.8828" y2="89.8438"/><line style="stroke:#000000;stroke-width:1.0;" x1="235" x2="235" y1="71.8828" y2="89.8438"/><line style="stroke:#000000;stroke-width:1.0;" x1="337" x2="337" y1="71.8828" y2="89.8438"/><line style="stroke:#000000;stroke-width:1.0;" x1="436" x2="436" y1="71.8828" y2="89.8438"/><line style="stroke:#000000;stroke-width:1.0;" x1="534" x2="534" y1="71.8828" y2="89.8438"/><line style="stroke:#000000;stroke-width:1.0;" x1="622" x2="622" y1="71.8828" y2="89.8438"/><line style="stroke:#000000;stroke-width:1.0;" x1="700" x2="700" y1="71.8828" y2="89.8438"/><line style="stroke:#000000;stroke-width:1.0;" x1="712" x2="712" y1="71.8828" y2="89.8438"/><line style="stroke:#000000;stroke-width:1.0;" x1="6" x2="6" y1="53.9219" y2="71.8828"/><line style="stroke:#000000;stroke-width:1.0;" x1="31" x2="31" y1="53.9219" y2="71.8828"/><line style="stroke:#000000;stroke-width:1.0;" x1="55" x2="55" y1="53.9219" y2="71.8828"/><line style="stroke:#000000;stroke-width:1.0;" x1="145" x2="145" y1="53.9219" y2="71.8828"/><line style="stroke:#000000;stroke-width:1.0;" x1="235" x2="235" y1="53.9219" y2="71.8828"/><line style="stroke:#000000;stroke-width:1.0;" x1="337" x2="337" y1="53.9219" y2="71.8828"/><line style="stroke:#000000;stroke-width:1.0;" x1="436" x2="436" y1="53.9219" y2="71.8828"/><line style="stroke:#000000;stroke-width:1.0;" x1="534" x2="534" y1="53.9219" y2="71.8828"/><line style="stroke:#000000;stroke-width:1.0;" x1="622" x2="622" y1="53.9219" y2="71.8828"/><line style="stroke:#000000;stroke-width:1.0;" x1="700" x2="700" y1="53.9219" y2="71.8828"/><line style="stroke:#000000;stroke-width:1.0;" x1="712" x2="712" y1="53.9219" y2="71.8828"/><!--SRC=[xLFTRjem6BsUd-AJ9bKWBK12OL9KHHKa-s5GKDEoRjCk3Fb8BGMR-GUfeppGdcCljYya7LMhIRlPtI8dje-TSyxd8vyRoxKrlB1inm1sSBQ8KgMjG0FtqAhU_-qVjyF1dsmAPoBghURcDYgJ-0Hxs5CidiSOUx5xIKDwli3NCXXQJootrMYcLQxvUetLTAf5BcGz6Gjqa24K7CmXsWgEkSNsBJgDaFtyiN3s6RmIigPR6DHRMd2wOPeLbd9XX36_eLPjxkR179GbeLoA8Y8WVV_EcmxIUN9nbJoVtiIVmODOEQubIlnEKD1h-tuxw0HTyBjXf_C4Ubr1Qc7ykdjwE7-Z7oU3FwZtZr9-hVu8wXtLNvNVu6Zbx6IfA0TfFVED234w-DepjcVdABF3LMEpWajxFHd35hKHIeBVAebRlj_uY1cakA6Y8UY4GJ_iTc6Of5TGRcYonjlPc69qUacn2MEreEI8eSb6VClXqaahrXZ2b4eVnHyU04ZaLcWbIsDiD9ySD_HFlO6m9Ad92ymdBCOLTuMbFvOg4p8FORZnWrx0nbpcZkT4lj9ig8XOtuNmvl8N]--></g></svg>