<?xml version="1.0" encoding="us-ascii" standalone="no"?><svg xmlns="http://www.w3.org/2000/svg" xmlns:xlink="http://www.w3.org/1999/xlink" contentStyleType="text/css" height="521px" preserveAspectRatio="none" style="width:781px;height:521px;background:#FFFFFF;" version="1.1" viewBox="0 0 781 521" width="781px" zoomAndPan="magnify"><defs/><g><text fill="#000000" font-family="sans-serif" font-size="12" font-weight="bold" lengthAdjust="spacing" textLength="84" x="6" y="18.457">Nouvelle sortie</text><line style="stroke:#AAAAAA;stroke-width:1.0;" x1="6" x2="774" y1="26.5938" y2="26.5938"/><text fill="#000000" font-family="sans-serif" font-size="12" font-weight="bold" lengthAdjust="spacing" textLength="39" x="8" y="43.5508">D&#233;tails</text><line style="stroke:#000000;stroke-width:1.0;" x1="6" x2="6" y1="31.0938" y2="46.1875"/><line style="stroke:#000000;stroke-width:1.0;" x1="6" x2="50" y1="31.0938" y2="31.0938"/><line style="stroke:#000000;stroke-width:1.0;" x1="50" x2="50" y1="31.0938" y2="46.1875"/><line style="stroke:#000000;stroke-width:1.0;" x1="50" x2="60" y1="46.1875" y2="46.1875"/><text fill="#000000" font-family="sans-serif" font-size="12" lengthAdjust="spacing" textLength="96" x="62" y="43.5508">Echantillonnages</text><line style="stroke:#000000;stroke-width:1.0;" x1="60" x2="60" y1="31.0938" y2="46.1875"/><line style="stroke:#000000;stroke-width:1.0;" x1="60" x2="161" y1="31.0938" y2="31.0938"/><line style="stroke:#000000;stroke-width:1.0;" x1="161" x2="161" y1="31.0938" y2="46.1875"/><line style="stroke:#000000;stroke-width:1.0;" x1="161" x2="171" y1="46.1875" y2="46.1875"/><line style="stroke:#AAAAAA;stroke-width:1.0;stroke-dasharray:1.0,2.0;" x1="6" x2="774" y1="51.6875" y2="51.6875"/><text fill="#000000" font-family="sans-serif" font-size="12" lengthAdjust="spacing" textLength="139" x="7" y="86.7383">Programme de collecte* :</text><rect fill="#EEEEEE" height="18.0938" style="stroke:#000000;stroke-width:1.0;" width="239" x="149" y="75.2813"/><text fill="#000000" font-family="sans-serif" font-size="12" lengthAdjust="spacing" textLength="88" x="151" y="89.7383">SIH-OBSVENTE</text><line style="stroke:#000000;stroke-width:1.0;" x1="377" x2="377" y1="75.2813" y2="93.375"/><polygon fill="#000000" points="380,81.2813,386,81.2813,383,88.375" style="stroke:#000000;stroke-width:1.0;"/><text fill="#000000" font-family="sans-serif" font-size="12" lengthAdjust="spacing" textLength="207" x="551" y="102.832">ObsVentes d&#233;marrage au 01/01/2024</text><path d="M766.03,94.4688 C763.5,94.4688 762,97.4688 762,97.4688 C762,97.4688 763.5,100.4688 766.03,100.4688 C768.5,100.4688 770,97.4688 770,97.4688 C770,97.4688 768.5,94.4688 766.03,94.4688 M766,95.4688 C767.11,95.4688 768,96.3688 768,97.4688 C768,98.5788 767.11,99.4688 766,99.4688 C764.9,99.4688 764,98.5788 764,97.4688 C764,96.3688 764.9,95.4688 766,95.4688 M766,96.4688 C765.45,96.4688 765,96.9188 765,97.4688 C765,98.0188 765.45,98.4688 766,98.4688 C766.55,98.4688 767,98.0188 767,97.4688 C767,97.3688 766.96,97.2788 766.94,97.1888 C766.86,97.3488 766.7,97.4688 766.5,97.4688 C766.22,97.4688 766,97.2488 766,96.9688 C766,96.7688 766.12,96.6088 766.28,96.5288 C766.19,96.4988 766.1,96.4688 766,96.4688 " fill="#000000" style="stroke:;stroke-width:0.0;stroke-dasharray:;"/><text fill="#808080" font-family="sans-serif" font-size="12" lengthAdjust="spacing" textLength="60" x="551" y="119.9258">Saisisseur</text><text fill="#000000" font-family="sans-serif" font-size="12" lengthAdjust="spacing" textLength="30" x="551" y="137.0195">Obs1</text><line style="stroke:#000000;stroke-width:1.0;" x1="550" x2="772" y1="81.8281" y2="81.8281"/><line style="stroke:#000000;stroke-width:1.0;" x1="550" x2="772" y1="140.6563" y2="140.6563"/><line style="stroke:#000000;stroke-width:1.0;" x1="550" x2="550" y1="81.8281" y2="106.4688"/><line style="stroke:#000000;stroke-width:1.0;" x1="772" x2="772" y1="106.4688" y2="123.5625"/><line style="stroke:#000000;stroke-width:1.0;" x1="772" x2="772" y1="81.8281" y2="106.4688"/><line style="stroke:#000000;stroke-width:1.0;" x1="550" x2="550" y1="123.5625" y2="140.6563"/><line style="stroke:#000000;stroke-width:1.0;" x1="550" x2="550" y1="106.4688" y2="123.5625"/><line style="stroke:#000000;stroke-width:1.0;" x1="772" x2="772" y1="123.5625" y2="140.6563"/><rect fill="#FFFFFF" height="15.0938" style="stroke:#FFFFFF;stroke-width:1.0;" width="49" x="556" y="74.2813"/><text fill="#808080" font-family="sans-serif" font-size="12" lengthAdjust="spacing" textLength="49" x="556" y="86.7383">Strat&#233;gie</text><text fill="#000000" font-family="sans-serif" font-size="12" lengthAdjust="spacing" textLength="136" x="7" y="170.207">Plan d'&#233;chantillonnage* :</text><rect fill="#EEEEEE" height="18.0938" style="stroke:#000000;stroke-width:1.0;" width="239" x="149" y="158.75"/><text fill="#000000" font-family="sans-serif" font-size="12" lengthAdjust="spacing" textLength="186" x="151" y="173.207">2021_V0010 - DPMA_20_23_Lot2</text><line style="stroke:#000000;stroke-width:1.0;" x1="377" x2="377" y1="158.75" y2="176.8438"/><polygon fill="#000000" points="380,164.75,386,164.75,383,171.8438" style="stroke:#000000;stroke-width:1.0;"/><text fill="#000000" font-family="sans-serif" font-size="12" lengthAdjust="spacing" textLength="51" x="7" y="210.3945">Origine* :</text><rect fill="#EEEEEE" height="18.0938" style="stroke:#000000;stroke-width:1.0;" width="239" x="149" y="198.9375"/><text fill="#000000" font-family="sans-serif" font-size="12" lengthAdjust="spacing" textLength="88" x="151" y="213.3945">SIH-OBSVENTE</text><line style="stroke:#000000;stroke-width:1.0;" x1="377" x2="377" y1="198.9375" y2="217.0313"/><polygon fill="#000000" points="380,204.9375,386,204.9375,383,212.0313" style="stroke:#000000;stroke-width:1.0;"/><text fill="#000000" font-family="sans-serif" font-size="12" lengthAdjust="spacing" textLength="38" x="7" y="250.582">Lieu * :</text><rect fill="#EEEEEE" height="18.0938" style="stroke:#000000;stroke-width:1.0;" width="239" x="149" y="239.125"/><text fill="#000000" font-family="sans-serif" font-size="12" lengthAdjust="spacing" textLength="100" x="151" y="253.582">XDZ - Douarnenez</text><line style="stroke:#000000;stroke-width:1.0;" x1="377" x2="377" y1="239.125" y2="257.2188"/><polygon fill="#000000" points="380,245.125,386,245.125,383,252.2188" style="stroke:#000000;stroke-width:1.0;"/><text fill="#000000" font-family="sans-serif" font-size="12" lengthAdjust="spacing" textLength="64" x="7" y="290.7695">D&#233;but/Fin* :</text><rect fill="#EEEEEE" height="18.0938" style="stroke:#000000;stroke-width:1.0;" width="95" x="149" y="279.3125"/><text fill="#000000" font-family="sans-serif" font-size="12" lengthAdjust="spacing" textLength="62" x="151" y="293.7695">jj/mm/aaaa</text><line style="stroke:#000000;stroke-width:1.0;" x1="233" x2="233" y1="279.3125" y2="297.4063"/><polygon fill="#000000" points="236,285.3125,242,285.3125,239,292.4063" style="stroke:#000000;stroke-width:1.0;"/><rect fill="#EEEEEE" height="18.0938" style="stroke:#000000;stroke-width:1.0;" width="55" x="247" y="279.3125"/><text fill="#000000" font-family="sans-serif" font-size="12" lengthAdjust="spacing" textLength="39" x="249" y="293.7695">hh:mm</text><line style="stroke:#000000;stroke-width:1.0;" x1="291" x2="291" y1="279.3125" y2="297.4063"/><polygon fill="#000000" points="294,285.3125,300,285.3125,297,292.4063" style="stroke:#000000;stroke-width:1.0;"/><rect fill="#EEEEEE" height="18.0938" style="stroke:#000000;stroke-width:1.0;" width="95" x="393" y="279.3125"/><text fill="#000000" font-family="sans-serif" font-size="12" lengthAdjust="spacing" textLength="62" x="395" y="293.7695">jj/mm/aaaa</text><line style="stroke:#000000;stroke-width:1.0;" x1="477" x2="477" y1="279.3125" y2="297.4063"/><polygon fill="#000000" points="480,285.3125,486,285.3125,483,292.4063" style="stroke:#000000;stroke-width:1.0;"/><rect fill="#EEEEEE" height="18.0938" style="stroke:#000000;stroke-width:1.0;" width="55" x="491" y="279.3125"/><text fill="#000000" font-family="sans-serif" font-size="12" lengthAdjust="spacing" textLength="39" x="493" y="293.7695">hh:mm</text><line style="stroke:#000000;stroke-width:1.0;" x1="535" x2="535" y1="279.3125" y2="297.4063"/><polygon fill="#000000" points="538,285.3125,544,285.3125,541,292.4063" style="stroke:#000000;stroke-width:1.0;"/><text fill="#0000FF" font-family="sans-serif" font-size="12" font-style="italic" lengthAdjust="spacing" textLength="95" x="550" y="290.7695">dur&#233;e de la sortie</text><text fill="#000000" font-family="sans-serif" font-size="12" lengthAdjust="spacing" textLength="93" x="7" y="330.957">Observateur(s)* :</text><rect fill="#EEEEEE" height="18.0938" style="stroke:#000000;stroke-width:1.0;" width="239" x="148" y="318.5"/><text fill="#000000" font-family="sans-serif" font-size="12" lengthAdjust="spacing" textLength="84" x="150" y="332.957">Observateur #1</text><line style="stroke:#000000;stroke-width:1.0;" x1="376" x2="376" y1="318.5" y2="336.5938"/><polygon fill="#000000" points="379,324.5,385,324.5,382,331.5938" style="stroke:#000000;stroke-width:1.0;"/><rect fill="#EEEEEE" height="12" rx="5" ry="5" style="stroke:#000000;stroke-width:2.5;" width="20" x="395.5" y="322"/><path d="M404.5,324 L404.5,327 L401.5,327 L401.5,329 L404.5,329 L404.5,332 L406.5,332 L406.5,329 L409.5,329 L409.5,327 L406.5,327 L406.5,324 L404.5,324 " fill="#000000" style="stroke:;stroke-width:0.0;stroke-dasharray:;"/><rect fill="#EEEEEE" height="12" rx="5" ry="5" style="stroke:#000000;stroke-width:2.5;" width="20" x="422.5" y="322"/><path d="M429.91,324 L428.5,325.41 L429.22,326.13 L431,327.94 L429.22,329.72 L428.5,330.41 L429.91,331.85 L430.63,331.13 L432.44,329.32 L434.22,331.13 L434.91,331.85 L436.35,330.41 L435.63,329.72 L433.82,327.94 L435.63,326.13 L436.35,325.41 L434.91,324 L434.22,324.72 L432.44,326.5 L430.63,324.72 L429.91,324 " fill="#000000" style="stroke:;stroke-width:0.0;stroke-dasharray:;"/><text fill="#000000" font-family="sans-serif" font-size="12" font-weight="bold" lengthAdjust="spacing" textLength="101" x="6" y="370.1445">Caract&#233;ristiques :</text><text fill="#000000" font-family="sans-serif" font-size="12" lengthAdjust="spacing" textLength="205" x="12" y="388.2383">Disponibilit&#233; de la fiche de pr&#233;-vente :</text><rect fill="#EEEEEE" height="18.0938" style="stroke:#000000;stroke-width:1.0;" width="39" x="219" y="375.7813"/><text fill="#000000" font-family="sans-serif" font-size="12" lengthAdjust="spacing" textLength="19" x="221" y="390.2383">Oui</text><line style="stroke:#000000;stroke-width:1.0;" x1="247" x2="247" y1="375.7813" y2="393.875"/><polygon fill="#000000" points="250,381.7813,256,381.7813,253,388.875" style="stroke:#000000;stroke-width:1.0;"/><text fill="#000000" font-family="sans-serif" font-size="12" lengthAdjust="spacing" textLength="52" x="12" y="409.332">PETS ?* :</text><rect fill="#EEEEEE" height="18.0938" style="stroke:#000000;stroke-width:1.0;" width="39" x="219" y="396.875"/><text fill="#000000" font-family="sans-serif" font-size="12" lengthAdjust="spacing" textLength="19" x="221" y="411.332">Oui</text><line style="stroke:#000000;stroke-width:1.0;" x1="247" x2="247" y1="396.875" y2="414.9688"/><polygon fill="#000000" points="250,402.875,256,402.875,253,409.9688" style="stroke:#000000;stroke-width:1.0;"/><text fill="#000000" font-family="sans-serif" font-size="12" font-weight="bold" lengthAdjust="spacing" textLength="90" x="7" y="449.5195">Commentaires :</text><text fill="#000000" font-family="sans-serif" font-size="12" lengthAdjust="spacing" textLength="3" x="11" y="484.707">&#160;</text><line style="stroke:#000000;stroke-width:1.0;" x1="9" x2="732" y1="487.3438" y2="487.3438"/><line style="stroke:#000000;stroke-width:1.0;" x1="9" x2="9" y1="484.3438" y2="486.3438"/><line style="stroke:#000000;stroke-width:1.0;" x1="732" x2="732" y1="484.3438" y2="486.3438"/><line style="stroke:#000000;stroke-width:1.0;" x1="7" x2="735" y1="454.1563" y2="454.1563"/><line style="stroke:#000000;stroke-width:1.0;" x1="7" x2="735" y1="490.3438" y2="490.3438"/><line style="stroke:#000000;stroke-width:1.0;" x1="7" x2="7" y1="454.1563" y2="471.25"/><line style="stroke:#000000;stroke-width:1.0;" x1="735" x2="735" y1="471.25" y2="490.3438"/><line style="stroke:#000000;stroke-width:1.0;" x1="735" x2="735" y1="454.1563" y2="471.25"/><line style="stroke:#000000;stroke-width:1.0;" x1="7" x2="7" y1="471.25" y2="490.3438"/><rect fill="#EEEEEE" height="19.0938" rx="5" ry="5" style="stroke:#000000;stroke-width:2.5;" width="52" x="9.5" y="496.8438"/><text fill="#000000" font-family="sans-serif" font-size="12" lengthAdjust="spacing" textLength="40" x="15.5" y="511.3008">Fermer</text><rect fill="#EEEEEE" height="19.0938" rx="5" ry="5" style="stroke:#000000;stroke-width:2.5;" width="92" x="68.5" y="496.8438"/><text fill="#000000" font-family="sans-serif" font-size="12" lengthAdjust="spacing" textLength="70" x="79.5" y="511.3008">Sauvegarder</text></g></svg>