<?xml version="1.0" encoding="us-ascii" standalone="no"?><svg xmlns="http://www.w3.org/2000/svg" xmlns:xlink="http://www.w3.org/1999/xlink" contentStyleType="text/css" height="255px" preserveAspectRatio="none" style="width:599px;height:255px;background:#FFFFFF;" version="1.1" viewBox="0 0 599 255" width="599px" zoomAndPan="magnify"><defs/><g><text fill="#000000" font-family="sans-serif" font-size="12" font-weight="bold" lengthAdjust="spacing" textLength="41" x="7" y="19.9492">Sorties</text><path d="M572,11.9609 C569.8,11.9609 568,13.7609 568,15.9609 C568,18.1609 569.8,19.9609 572,19.9609 C573.1,19.9609 574.12,19.5309 574.84,18.8009 L574.12,18.0809 C573.58,18.6209 572.83,18.9609 571.99,18.9609 C570.33,18.9609 568.99,17.6209 568.99,15.9609 C568.99,14.3009 570.33,12.9609 571.99,12.9609 C572.82,12.9609 573.54,13.3209 574.08,13.8709 L572.99,14.9609 L575.99,14.9609 L575.99,11.9609 L574.8,13.1509 C574.08,12.4309 573.09,11.9609 571.99,11.9609 " fill="#000000" style="stroke:;stroke-width:0.0;stroke-dasharray:;"/><line style="stroke:#AAAAAA;stroke-width:1.0;" x1="6" x2="587" y1="29.4609" y2="29.4609"/><text fill="#000000" font-family="sans-serif" font-size="12" lengthAdjust="spacing" textLength="134" x="7" y="47.9102">Programme de collecte :</text><rect fill="#EEEEEE" height="18.9609" style="stroke:#000000;stroke-width:1.0;" width="159" x="148" y="34.9609"/><text fill="#000000" font-family="sans-serif" font-size="12" lengthAdjust="spacing" textLength="88" x="150" y="49.9102">SIH-OBSVENTE</text><line style="stroke:#000000;stroke-width:1.0;" x1="296" x2="296" y1="34.9609" y2="53.9219"/><polygon fill="#000000" points="299,40.9609,305,40.9609,302,48.9219" style="stroke:#000000;stroke-width:1.0;"/><text fill="#000000" font-family="sans-serif" font-size="12" lengthAdjust="spacing" textLength="30" x="320" y="47.9102">Lieu :</text><rect fill="#EEEEEE" height="18.9609" style="stroke:#000000;stroke-width:1.0;" width="159" x="425" y="34.9609"/><text fill="#000000" font-family="sans-serif" font-size="12" lengthAdjust="spacing" textLength="100" x="427" y="49.9102">XDZ - Douarnenez</text><line style="stroke:#000000;stroke-width:1.0;" x1="573" x2="573" y1="34.9609" y2="53.9219"/><polygon fill="#000000" points="576,40.9609,582,40.9609,579,48.9219" style="stroke:#000000;stroke-width:1.0;"/><text fill="#000000" font-family="sans-serif" font-size="12" lengthAdjust="spacing" textLength="114" x="7" y="87.832">D&#233;but de la p&#233;riode :</text><rect fill="#EEEEEE" height="18.9609" style="stroke:#000000;stroke-width:1.0;" width="159" x="148" y="74.8828"/><text fill="#000000" font-family="sans-serif" font-size="12" lengthAdjust="spacing" textLength="62" x="150" y="89.832">01/01/2023</text><line style="stroke:#000000;stroke-width:1.0;" x1="296" x2="296" y1="74.8828" y2="93.8438"/><polygon fill="#000000" points="299,80.8828,305,80.8828,302,88.8438" style="stroke:#000000;stroke-width:1.0;"/><text fill="#000000" font-family="sans-serif" font-size="12" lengthAdjust="spacing" textLength="98" x="320" y="87.832">Fin de la p&#233;riode :</text><rect fill="#EEEEEE" height="18.9609" style="stroke:#000000;stroke-width:1.0;" width="159" x="425" y="74.8828"/><text fill="#000000" font-family="sans-serif" font-size="12" lengthAdjust="spacing" textLength="62" x="427" y="89.832">31/12/2023</text><line style="stroke:#000000;stroke-width:1.0;" x1="573" x2="573" y1="74.8828" y2="93.8438"/><polygon fill="#000000" points="576,80.8828,582,80.8828,579,88.8438" style="stroke:#000000;stroke-width:1.0;"/><text fill="#000000" font-family="sans-serif" font-size="12" lengthAdjust="spacing" textLength="130" x="7" y="127.7539">Organisme saisisseur :</text><rect fill="#EEEEEE" height="18.9609" style="stroke:#000000;stroke-width:1.0;" width="159" x="148" y="114.8047"/><text fill="#000000" font-family="sans-serif" font-size="12" lengthAdjust="spacing" textLength="39" x="150" y="129.7539">Ifremer</text><line style="stroke:#000000;stroke-width:1.0;" x1="296" x2="296" y1="114.8047" y2="133.7656"/><polygon fill="#000000" points="299,120.8047,305,120.8047,302,128.7656" style="stroke:#000000;stroke-width:1.0;"/><text fill="#000000" font-family="sans-serif" font-size="12" lengthAdjust="spacing" textLength="66" x="320" y="127.7539">Saisisseur :</text><rect fill="#EEEEEE" height="18.9609" style="stroke:#000000;stroke-width:1.0;" width="159" x="425" y="114.8047"/><text fill="#000000" font-family="sans-serif" font-size="12" lengthAdjust="spacing" textLength="98" x="427" y="129.7539">Nicolas DUPOND</text><line style="stroke:#000000;stroke-width:1.0;" x1="573" x2="573" y1="114.8047" y2="133.7656"/><polygon fill="#000000" points="576,120.8047,582,120.8047,579,128.7656" style="stroke:#000000;stroke-width:1.0;"/><text fill="#000000" font-family="sans-serif" font-size="12" lengthAdjust="spacing" textLength="80" x="7" y="167.6758">Observateurs :</text><rect fill="#EEEEEE" height="18.9609" style="stroke:#000000;stroke-width:1.0;" width="159" x="148" y="154.7266"/><text fill="#000000" font-family="sans-serif" font-size="12" lengthAdjust="spacing" textLength="98" x="150" y="169.6758">Nicolas DUPOND</text><line style="stroke:#000000;stroke-width:1.0;" x1="296" x2="296" y1="154.7266" y2="173.6875"/><polygon fill="#000000" points="299,160.7266,305,160.7266,302,168.6875" style="stroke:#000000;stroke-width:1.0;"/><text fill="#000000" font-family="sans-serif" font-size="12" lengthAdjust="spacing" textLength="46" x="320" y="167.6758">Origine :</text><rect fill="#EEEEEE" height="18.9609" style="stroke:#000000;stroke-width:1.0;" width="159" x="425" y="154.7266"/><text fill="#000000" font-family="sans-serif" font-size="12" lengthAdjust="spacing" textLength="88" x="427" y="169.6758">SIH-OBSVENTE</text><line style="stroke:#000000;stroke-width:1.0;" x1="573" x2="573" y1="154.7266" y2="173.6875"/><polygon fill="#000000" points="576,160.7266,582,160.7266,579,168.6875" style="stroke:#000000;stroke-width:1.0;"/><text fill="#000000" font-family="sans-serif" font-size="12" lengthAdjust="spacing" textLength="27" x="7" y="207.5977">Etat :</text><rect fill="#EEEEEE" height="18.9609" style="stroke:#000000;stroke-width:1.0;" width="159" x="148" y="194.6484"/><text fill="#000000" font-family="sans-serif" font-size="12" lengthAdjust="spacing" textLength="103" x="150" y="209.5977">En cours de saisie</text><line style="stroke:#000000;stroke-width:1.0;" x1="296" x2="296" y1="194.6484" y2="213.6094"/><polygon fill="#000000" points="299,200.6484,305,200.6484,302,208.6094" style="stroke:#000000;stroke-width:1.0;"/><line style="stroke:#AAAAAA;stroke-width:1.0;" x1="6" x2="587" y1="221.1094" y2="221.1094"/><text fill="#000000" font-family="sans-serif" font-size="12" lengthAdjust="spacing" textLength="58" x="7" y="239.5586">2 r&#233;sultats</text><rect fill="#EEEEEE" height="12" rx="5" ry="5" style="stroke:#000000;stroke-width:2.5;" width="20" x="71.5" y="229.1094"/><path d="M77.5,231.1094 L81.5,235.1094 L85.5,231.1094 L77.5,231.1094 " fill="#000000" style="stroke:;stroke-width:0.0;stroke-dasharray:;"/><rect fill="#EEEEEE" height="19.9609" rx="5" ry="5" style="stroke:#000000;stroke-width:2.5;" width="52" x="98.5" y="229.1094"/><text fill="#000000" font-family="sans-serif" font-size="12" lengthAdjust="spacing" textLength="40" x="104.5" y="244.0586">Fermer</text><rect fill="#EEEEEE" height="19.9609" rx="5" ry="5" style="stroke:#000000;stroke-width:2.5;" width="76" x="157.5" y="229.1094"/><text fill="#000000" font-family="sans-serif" font-size="12" lengthAdjust="spacing" textLength="52" x="169.5" y="244.0586">Appliquer</text><!--SRC=[rLFHRjem57ttLzodgdq89M7Tj0YXhYHifK1GQT6qQaWckKIM4Zkp7QIDvOFu3dviDwpGJAKVC2kMR5-VUtpkFRasbcjhU6RPXZ60JNVPcobj1HhudqRtJ6EcUDAhI0GuJgs5rB13VAfLgdcU8oG8iSeoZ2s23x-XHNC1izilJdGpcuUJXt0FM3o7wZaIM3RkVWs-WGE1AhcMAF4NB8uqhUCgs6sNfQtPCWx5Rgk5IXg4RVUIFg_jTGw09k50o3UH7VVIzVv5dg2FTCgbCAJNS664CLXgoW574RShZJdgbmhM_CS7p4w39e9Anmq4ZzDe4hn5lJIerzmIs3IgzXhR98oqI8N49jkhbfna2ostJLGegRqrS_8i7V-YgjeHv0ioXGTwjpLbHaWo-QPwwfx5NADrbifQbVU-Kvwd0MegptxvgIWoyQEaNLMnYbsZJFO_39jcNDh7yGZMg8rG4jnMtPUMspaVqox065mNt8- -r_QlFa0_V80wVi7EFqz7OEYPCVbH6Ai5UOKINB0XNtEuBwKLEVeG5IY7mTtX04Av5bh97ALbm_duvSBxTywDi32ZmbDFvsCMu8gJGaB4AX4ozQ5VkDwLnqPSfYLFAVbAixwYnFgd3uFxFm00]--></g></svg>