<?xml version="1.0" encoding="us-ascii" standalone="no"?><svg xmlns="http://www.w3.org/2000/svg" xmlns:xlink="http://www.w3.org/1999/xlink" contentStyleType="text/css" height="92px" preserveAspectRatio="none" style="width:527px;height:92px;background:#FFFFFF;" version="1.1" viewBox="0 0 527 92" width="527px" zoomAndPan="magnify"><defs/><g><text fill="#000000" font-family="sans-serif" font-size="12" font-weight="bold" lengthAdjust="spacing" textLength="41" x="6" y="18.9492">Sorties</text><path d="M513,10.9609 L513,13.9609 L510,13.9609 L510,15.9609 L513,15.9609 L513,18.9609 L515,18.9609 L515,15.9609 L518,15.9609 L518,13.9609 L515,13.9609 L515,10.9609 L513,10.9609 " fill="#000000" style="stroke:;stroke-width:0.0;stroke-dasharray:;"/><line style="stroke:#AAAAAA;stroke-width:1.0;" x1="6" x2="520" y1="27.4609" y2="27.4609"/><text fill="#000000" font-family="sans-serif" font-size="12" lengthAdjust="spacing" textLength="3" x="27" y="45.9102">.</text><rect fill="none" height="10" style="stroke:#000000;stroke-width:1.5;" width="10" x="9" y="35.9414"/><text fill="#000000" font-family="sans-serif" font-size="12" font-weight="bold" lengthAdjust="spacing" textLength="22" x="32" y="45.9102">Etat</text><text fill="#000000" font-family="sans-serif" font-size="12" font-weight="bold" lengthAdjust="spacing" textLength="68" x="56" y="45.9102">Programme</text><text fill="#000000" font-family="sans-serif" font-size="12" font-weight="bold" lengthAdjust="spacing" textLength="90" x="146" y="45.9102">Lieu de la sortie</text><text fill="#000000" font-family="sans-serif" font-size="12" font-weight="bold" lengthAdjust="spacing" textLength="62" x="266" y="45.9102">Date/heure</text><text fill="#000000" font-family="sans-serif" font-size="12" font-weight="bold" lengthAdjust="spacing" textLength="78" x="364" y="45.9102">Observateurs</text><text fill="#000000" font-family="sans-serif" font-size="12" font-weight="bold" lengthAdjust="spacing" textLength="61" x="444" y="45.9102">Saisisseur</text><text fill="#000000" font-family="sans-serif" font-size="12" lengthAdjust="spacing" textLength="3" x="27" y="63.8711">.</text><rect fill="none" height="10" style="stroke:#000000;stroke-width:1.5;" width="10" x="9" y="53.9023"/><text fill="#000000" font-family="sans-serif" font-size="12" font-weight="bold" lengthAdjust="spacing" textLength="6" x="32" y="63.8711">&#160;&#160;</text><path d="M45,55.8828 L44,56.8828 L46,58.8828 L47,57.8828 L45,55.8828 M43,57.8828 L39,61.8828 L39,63.8828 L41,63.8828 L45,59.8828 L43,57.8828 " fill="#000000" style="stroke:;stroke-width:0.0;stroke-dasharray:;"/><text fill="#000000" font-family="sans-serif" font-size="12" lengthAdjust="spacing" textLength="88" x="56" y="63.8711">SIH-OBSVENTE</text><text fill="#000000" font-family="sans-serif" font-size="12" lengthAdjust="spacing" textLength="118" x="146" y="63.8711">FRDRZ - Douarnenez</text><text fill="#000000" font-family="sans-serif" font-size="12" lengthAdjust="spacing" textLength="96" x="266" y="63.8711">25/11/2023 17:00</text><text fill="#000000" font-family="sans-serif" font-size="12" lengthAdjust="spacing" textLength="28" x="364" y="63.8711">obs1</text><text fill="#000000" font-family="sans-serif" font-size="12" lengthAdjust="spacing" textLength="28" x="444" y="63.8711">obs1</text><text fill="#000000" font-family="sans-serif" font-size="12" lengthAdjust="spacing" textLength="3" x="27" y="81.832">.</text><rect fill="none" height="10" style="stroke:#000000;stroke-width:1.5;" width="10" x="9" y="71.8633"/><text fill="#000000" font-family="sans-serif" font-size="12" font-weight="bold" lengthAdjust="spacing" textLength="6" x="32" y="81.832">&#160;&#160;</text><path d="M45,73.8438 L44,74.8438 L46,76.8438 L47,75.8438 L45,73.8438 M43,75.8438 L39,79.8438 L39,81.8438 L41,81.8438 L45,77.8438 L43,75.8438 " fill="#000000" style="stroke:;stroke-width:0.0;stroke-dasharray:;"/><text fill="#000000" font-family="sans-serif" font-size="12" lengthAdjust="spacing" textLength="88" x="56" y="81.832">SIH-OBSVENTE</text><text fill="#000000" font-family="sans-serif" font-size="12" lengthAdjust="spacing" textLength="118" x="146" y="81.832">FRDRZ - Douarnenez</text><text fill="#000000" font-family="sans-serif" font-size="12" lengthAdjust="spacing" textLength="96" x="266" y="81.832">26/11/2023 17:00</text><text fill="#000000" font-family="sans-serif" font-size="12" lengthAdjust="spacing" textLength="62" x="364" y="81.832">obs1, obs2</text><text fill="#000000" font-family="sans-serif" font-size="12" lengthAdjust="spacing" textLength="28" x="444" y="81.832">obs1</text><path d="M508.09,68.8828 C508.03,68.8828 508,68.9228 508,68.9728 L508,74.7828 C508,74.8328 508.04,74.8728 508.09,74.8728 L514,74.8728 L516,76.8728 L516,68.9628 C516,68.9028 515.96,68.8728 515.91,68.8728 L508.1,68.8728 " fill="#000000" style="stroke:;stroke-width:0.0;stroke-dasharray:;"/><line style="stroke:#000000;stroke-width:1.0;" x1="6" x2="31" y1="31.9609" y2="31.9609"/><line style="stroke:#000000;stroke-width:1.0;" x1="31" x2="55" y1="31.9609" y2="31.9609"/><line style="stroke:#000000;stroke-width:1.0;" x1="55" x2="145" y1="31.9609" y2="31.9609"/><line style="stroke:#000000;stroke-width:1.0;" x1="145" x2="265" y1="31.9609" y2="31.9609"/><line style="stroke:#000000;stroke-width:1.0;" x1="265" x2="363" y1="31.9609" y2="31.9609"/><line style="stroke:#000000;stroke-width:1.0;" x1="363" x2="443" y1="31.9609" y2="31.9609"/><line style="stroke:#000000;stroke-width:1.0;" x1="443" x2="506" y1="31.9609" y2="31.9609"/><line style="stroke:#000000;stroke-width:1.0;" x1="506" x2="518" y1="31.9609" y2="31.9609"/><line style="stroke:#000000;stroke-width:1.0;" x1="6" x2="31" y1="85.8438" y2="85.8438"/><line style="stroke:#000000;stroke-width:1.0;" x1="31" x2="55" y1="85.8438" y2="85.8438"/><line style="stroke:#000000;stroke-width:1.0;" x1="55" x2="145" y1="85.8438" y2="85.8438"/><line style="stroke:#000000;stroke-width:1.0;" x1="145" x2="265" y1="85.8438" y2="85.8438"/><line style="stroke:#000000;stroke-width:1.0;" x1="265" x2="363" y1="85.8438" y2="85.8438"/><line style="stroke:#000000;stroke-width:1.0;" x1="363" x2="443" y1="85.8438" y2="85.8438"/><line style="stroke:#000000;stroke-width:1.0;" x1="443" x2="506" y1="85.8438" y2="85.8438"/><line style="stroke:#000000;stroke-width:1.0;" x1="506" x2="518" y1="85.8438" y2="85.8438"/><line style="stroke:#000000;stroke-width:1.0;" x1="6" x2="31" y1="67.8828" y2="67.8828"/><line style="stroke:#000000;stroke-width:1.0;" x1="31" x2="55" y1="67.8828" y2="67.8828"/><line style="stroke:#000000;stroke-width:1.0;" x1="55" x2="145" y1="67.8828" y2="67.8828"/><line style="stroke:#000000;stroke-width:1.0;" x1="145" x2="265" y1="67.8828" y2="67.8828"/><line style="stroke:#000000;stroke-width:1.0;" x1="265" x2="363" y1="67.8828" y2="67.8828"/><line style="stroke:#000000;stroke-width:1.0;" x1="363" x2="443" y1="67.8828" y2="67.8828"/><line style="stroke:#000000;stroke-width:1.0;" x1="443" x2="506" y1="67.8828" y2="67.8828"/><line style="stroke:#000000;stroke-width:1.0;" x1="506" x2="518" y1="67.8828" y2="67.8828"/><line style="stroke:#000000;stroke-width:1.0;" x1="6" x2="31" y1="49.9219" y2="49.9219"/><line style="stroke:#000000;stroke-width:1.0;" x1="31" x2="55" y1="49.9219" y2="49.9219"/><line style="stroke:#000000;stroke-width:1.0;" x1="55" x2="145" y1="49.9219" y2="49.9219"/><line style="stroke:#000000;stroke-width:1.0;" x1="145" x2="265" y1="49.9219" y2="49.9219"/><line style="stroke:#000000;stroke-width:1.0;" x1="265" x2="363" y1="49.9219" y2="49.9219"/><line style="stroke:#000000;stroke-width:1.0;" x1="363" x2="443" y1="49.9219" y2="49.9219"/><line style="stroke:#000000;stroke-width:1.0;" x1="443" x2="506" y1="49.9219" y2="49.9219"/><line style="stroke:#000000;stroke-width:1.0;" x1="506" x2="518" y1="49.9219" y2="49.9219"/><line style="stroke:#000000;stroke-width:1.0;" x1="6" x2="6" y1="31.9609" y2="49.9219"/><line style="stroke:#000000;stroke-width:1.0;" x1="31" x2="31" y1="31.9609" y2="49.9219"/><line style="stroke:#000000;stroke-width:1.0;" x1="55" x2="55" y1="31.9609" y2="49.9219"/><line style="stroke:#000000;stroke-width:1.0;" x1="145" x2="145" y1="31.9609" y2="49.9219"/><line style="stroke:#000000;stroke-width:1.0;" x1="265" x2="265" y1="31.9609" y2="49.9219"/><line style="stroke:#000000;stroke-width:1.0;" x1="363" x2="363" y1="31.9609" y2="49.9219"/><line style="stroke:#000000;stroke-width:1.0;" x1="443" x2="443" y1="31.9609" y2="49.9219"/><line style="stroke:#000000;stroke-width:1.0;" x1="506" x2="506" y1="31.9609" y2="49.9219"/><line style="stroke:#000000;stroke-width:1.0;" x1="518" x2="518" y1="31.9609" y2="49.9219"/><line style="stroke:#000000;stroke-width:1.0;" x1="6" x2="6" y1="67.8828" y2="85.8438"/><line style="stroke:#000000;stroke-width:1.0;" x1="31" x2="31" y1="67.8828" y2="85.8438"/><line style="stroke:#000000;stroke-width:1.0;" x1="55" x2="55" y1="67.8828" y2="85.8438"/><line style="stroke:#000000;stroke-width:1.0;" x1="145" x2="145" y1="67.8828" y2="85.8438"/><line style="stroke:#000000;stroke-width:1.0;" x1="265" x2="265" y1="67.8828" y2="85.8438"/><line style="stroke:#000000;stroke-width:1.0;" x1="363" x2="363" y1="67.8828" y2="85.8438"/><line style="stroke:#000000;stroke-width:1.0;" x1="443" x2="443" y1="67.8828" y2="85.8438"/><line style="stroke:#000000;stroke-width:1.0;" x1="506" x2="506" y1="67.8828" y2="85.8438"/><line style="stroke:#000000;stroke-width:1.0;" x1="518" x2="518" y1="67.8828" y2="85.8438"/><line style="stroke:#000000;stroke-width:1.0;" x1="6" x2="6" y1="49.9219" y2="67.8828"/><line style="stroke:#000000;stroke-width:1.0;" x1="31" x2="31" y1="49.9219" y2="67.8828"/><line style="stroke:#000000;stroke-width:1.0;" x1="55" x2="55" y1="49.9219" y2="67.8828"/><line style="stroke:#000000;stroke-width:1.0;" x1="145" x2="145" y1="49.9219" y2="67.8828"/><line style="stroke:#000000;stroke-width:1.0;" x1="265" x2="265" y1="49.9219" y2="67.8828"/><line style="stroke:#000000;stroke-width:1.0;" x1="363" x2="363" y1="49.9219" y2="67.8828"/><line style="stroke:#000000;stroke-width:1.0;" x1="443" x2="443" y1="49.9219" y2="67.8828"/><line style="stroke:#000000;stroke-width:1.0;" x1="506" x2="506" y1="49.9219" y2="67.8828"/><line style="stroke:#000000;stroke-width:1.0;" x1="518" x2="518" y1="49.9219" y2="67.8828"/><!--SRC=[pP9TJy8m58QlxQyuYGd1n06T8d4XXCZc1u8Gfbnel2ZZY4r6Y_qWKVI_UpOm9iPBB-n5r_TP-vwFjckTCCwAtB4D0sZFEgasJgA5VplQbLNkROUo3GAsjzbdhCGFy5Y3zwA2n0ctNOsDNXYnNE9M3YHwc2Fa0cnPvHR7mc7z6RtPwT7CebaJzCPkIIgabTOI85tx6QzC2LKcymw1zEeo69sbq-JcDY5vFeadzn10hBqm2XM-4GoRTSxhOICy0jwA6Wr2UcRvxlC7_YU_-XyMS_WTh5t9D3L7kS2-q6dib94_6FjWNLJpybMmSIwKkniEO8t6Igs0rmhZ6Z-g3ad5c07dm4-Zi14rMz1BRg7uVy2g5-C1zTcR364khJDovXqP7B2-M0kOUENa4YCOKMtz-FeBGABMqcXLvCNwq-7tXfFZu4mwIEboqC1qo69y4ZvtT2BJSwaM4VHMF6o6R23Kmei5cJyPrjDaR5uZQjKd]--></g></svg>