<?xml version="1.0" encoding="us-ascii" standalone="no"?><svg xmlns="http://www.w3.org/2000/svg" xmlns:xlink="http://www.w3.org/1999/xlink" contentStyleType="text/css" height="612px" preserveAspectRatio="none" style="width:781px;height:612px;background:#FFFFFF;" version="1.1" viewBox="0 0 781 612" width="781px" zoomAndPan="magnify"><defs/><g><text fill="#000000" font-family="sans-serif" font-size="12" font-weight="bold" lengthAdjust="spacing" textLength="84" x="6" y="18.457">Nouvelle sortie</text><line style="stroke:#AAAAAA;stroke-width:1.0;" x1="6" x2="774" y1="26.5938" y2="26.5938"/><text fill="#000000" font-family="sans-serif" font-size="12" font-weight="bold" lengthAdjust="spacing" textLength="39" x="8" y="43.5508">D&#233;tails</text><line style="stroke:#000000;stroke-width:1.0;" x1="6" x2="6" y1="31.0938" y2="46.1875"/><line style="stroke:#000000;stroke-width:1.0;" x1="6" x2="50" y1="31.0938" y2="31.0938"/><line style="stroke:#000000;stroke-width:1.0;" x1="50" x2="50" y1="31.0938" y2="46.1875"/><line style="stroke:#000000;stroke-width:1.0;" x1="50" x2="60" y1="46.1875" y2="46.1875"/><text fill="#000000" font-family="sans-serif" font-size="12" lengthAdjust="spacing" textLength="96" x="62" y="43.5508">Echantillonnages</text><line style="stroke:#000000;stroke-width:1.0;" x1="60" x2="60" y1="31.0938" y2="46.1875"/><line style="stroke:#000000;stroke-width:1.0;" x1="60" x2="161" y1="31.0938" y2="31.0938"/><line style="stroke:#000000;stroke-width:1.0;" x1="161" x2="161" y1="31.0938" y2="46.1875"/><line style="stroke:#000000;stroke-width:1.0;" x1="161" x2="171" y1="46.1875" y2="46.1875"/><text fill="#000000" font-family="sans-serif" font-size="12" lengthAdjust="spacing" textLength="142" x="173" y="43.5508">&lt;Autres esp&#232;ces&gt; (PETS)</text><line style="stroke:#000000;stroke-width:1.0;" x1="171" x2="171" y1="31.0938" y2="46.1875"/><line style="stroke:#000000;stroke-width:1.0;" x1="171" x2="318" y1="31.0938" y2="31.0938"/><line style="stroke:#000000;stroke-width:1.0;" x1="318" x2="318" y1="31.0938" y2="46.1875"/><line style="stroke:#000000;stroke-width:1.0;" x1="318" x2="328" y1="46.1875" y2="46.1875"/><line style="stroke:#AAAAAA;stroke-width:1.0;stroke-dasharray:1.0,2.0;" x1="6" x2="774" y1="51.6875" y2="51.6875"/><text fill="#000000" font-family="sans-serif" font-size="12" lengthAdjust="spacing" textLength="139" x="7" y="86.7383">Programme de collecte* :</text><rect fill="#EEEEEE" height="18.0938" style="stroke:#000000;stroke-width:1.0;" width="239" x="149" y="75.2813"/><text fill="#000000" font-family="sans-serif" font-size="12" lengthAdjust="spacing" textLength="88" x="151" y="89.7383">SIH-OBSVENTE</text><line style="stroke:#000000;stroke-width:1.0;" x1="377" x2="377" y1="75.2813" y2="93.375"/><polygon fill="#000000" points="380,81.2813,386,81.2813,383,88.375" style="stroke:#000000;stroke-width:1.0;"/><text fill="#000000" font-family="sans-serif" font-size="12" lengthAdjust="spacing" textLength="207" x="551" y="102.832">ObsVentes d&#233;marrage au 01/01/2024</text><path d="M766.03,94.4688 C763.5,94.4688 762,97.4688 762,97.4688 C762,97.4688 763.5,100.4688 766.03,100.4688 C768.5,100.4688 770,97.4688 770,97.4688 C770,97.4688 768.5,94.4688 766.03,94.4688 M766,95.4688 C767.11,95.4688 768,96.3688 768,97.4688 C768,98.5788 767.11,99.4688 766,99.4688 C764.9,99.4688 764,98.5788 764,97.4688 C764,96.3688 764.9,95.4688 766,95.4688 M766,96.4688 C765.45,96.4688 765,96.9188 765,97.4688 C765,98.0188 765.45,98.4688 766,98.4688 C766.55,98.4688 767,98.0188 767,97.4688 C767,97.3688 766.96,97.2788 766.94,97.1888 C766.86,97.3488 766.7,97.4688 766.5,97.4688 C766.22,97.4688 766,97.2488 766,96.9688 C766,96.7688 766.12,96.6088 766.28,96.5288 C766.19,96.4988 766.1,96.4688 766,96.4688 " fill="#000000" style="stroke:;stroke-width:0.0;stroke-dasharray:;"/><line style="stroke:#000000;stroke-width:1.0;" x1="550" x2="772" y1="81.8281" y2="81.8281"/><line style="stroke:#000000;stroke-width:1.0;" x1="550" x2="772" y1="106.4688" y2="106.4688"/><line style="stroke:#000000;stroke-width:1.0;" x1="550" x2="550" y1="81.8281" y2="106.4688"/><line style="stroke:#000000;stroke-width:1.0;" x1="772" x2="772" y1="81.8281" y2="106.4688"/><rect fill="#FFFFFF" height="15.0938" style="stroke:#FFFFFF;stroke-width:1.0;" width="49" x="556" y="74.2813"/><text fill="#000000" font-family="sans-serif" font-size="12" lengthAdjust="spacing" textLength="49" x="556" y="86.7383">Strat&#233;gie</text><text fill="#000000" font-family="sans-serif" font-size="12" lengthAdjust="spacing" textLength="136" x="7" y="136.0195">Plan d'&#233;chantillonnage* :</text><rect fill="#EEEEEE" height="18.0938" style="stroke:#000000;stroke-width:1.0;" width="239" x="149" y="124.5625"/><text fill="#000000" font-family="sans-serif" font-size="12" lengthAdjust="spacing" textLength="186" x="151" y="139.0195">2021_V0010 - DPMA_20_23_Lot2</text><line style="stroke:#000000;stroke-width:1.0;" x1="377" x2="377" y1="124.5625" y2="142.6563"/><polygon fill="#000000" points="380,130.5625,386,130.5625,383,137.6563" style="stroke:#000000;stroke-width:1.0;"/><text fill="#000000" font-family="sans-serif" font-size="12" lengthAdjust="spacing" textLength="51" x="7" y="176.207">Origine* :</text><rect fill="#EEEEEE" height="18.0938" style="stroke:#000000;stroke-width:1.0;" width="239" x="149" y="164.75"/><text fill="#000000" font-family="sans-serif" font-size="12" lengthAdjust="spacing" textLength="88" x="151" y="179.207">SIH-OBSVENTE</text><line style="stroke:#000000;stroke-width:1.0;" x1="377" x2="377" y1="164.75" y2="182.8438"/><polygon fill="#000000" points="380,170.75,386,170.75,383,177.8438" style="stroke:#000000;stroke-width:1.0;"/><text fill="#000000" font-family="sans-serif" font-size="12" lengthAdjust="spacing" textLength="38" x="7" y="216.3945">Lieu * :</text><rect fill="#EEEEEE" height="18.0938" style="stroke:#000000;stroke-width:1.0;" width="239" x="149" y="204.9375"/><text fill="#000000" font-family="sans-serif" font-size="12" lengthAdjust="spacing" textLength="100" x="151" y="219.3945">XDZ - Douarnenez</text><line style="stroke:#000000;stroke-width:1.0;" x1="377" x2="377" y1="204.9375" y2="223.0313"/><polygon fill="#000000" points="380,210.9375,386,210.9375,383,218.0313" style="stroke:#000000;stroke-width:1.0;"/><text fill="#000000" font-family="sans-serif" font-size="12" lengthAdjust="spacing" textLength="64" x="7" y="256.582">D&#233;but/Fin* :</text><rect fill="#EEEEEE" height="18.0938" style="stroke:#000000;stroke-width:1.0;" width="95" x="149" y="245.125"/><text fill="#000000" font-family="sans-serif" font-size="12" lengthAdjust="spacing" textLength="62" x="151" y="259.582">jj/mm/aaaa</text><line style="stroke:#000000;stroke-width:1.0;" x1="233" x2="233" y1="245.125" y2="263.2188"/><polygon fill="#000000" points="236,251.125,242,251.125,239,258.2188" style="stroke:#000000;stroke-width:1.0;"/><rect fill="#EEEEEE" height="18.0938" style="stroke:#000000;stroke-width:1.0;" width="55" x="247" y="245.125"/><text fill="#000000" font-family="sans-serif" font-size="12" lengthAdjust="spacing" textLength="39" x="249" y="259.582">hh:mm</text><line style="stroke:#000000;stroke-width:1.0;" x1="291" x2="291" y1="245.125" y2="263.2188"/><polygon fill="#000000" points="294,251.125,300,251.125,297,258.2188" style="stroke:#000000;stroke-width:1.0;"/><rect fill="#EEEEEE" height="18.0938" style="stroke:#000000;stroke-width:1.0;" width="95" x="393" y="245.125"/><text fill="#000000" font-family="sans-serif" font-size="12" lengthAdjust="spacing" textLength="62" x="395" y="259.582">jj/mm/aaaa</text><line style="stroke:#000000;stroke-width:1.0;" x1="477" x2="477" y1="245.125" y2="263.2188"/><polygon fill="#000000" points="480,251.125,486,251.125,483,258.2188" style="stroke:#000000;stroke-width:1.0;"/><rect fill="#EEEEEE" height="18.0938" style="stroke:#000000;stroke-width:1.0;" width="55" x="491" y="245.125"/><text fill="#000000" font-family="sans-serif" font-size="12" lengthAdjust="spacing" textLength="39" x="493" y="259.582">hh:mm</text><line style="stroke:#000000;stroke-width:1.0;" x1="535" x2="535" y1="245.125" y2="263.2188"/><polygon fill="#000000" points="538,251.125,544,251.125,541,258.2188" style="stroke:#000000;stroke-width:1.0;"/><text fill="#0000FF" font-family="sans-serif" font-size="12" font-style="italic" lengthAdjust="spacing" textLength="95" x="550" y="256.582">dur&#233;e de la sortie</text><text fill="#000000" font-family="sans-serif" font-size="12" lengthAdjust="spacing" textLength="81" x="7" y="296.7695">Date de vente :</text><rect fill="#EEEEEE" height="18.0938" style="stroke:#000000;stroke-width:1.0;" width="95" x="149" y="285.3125"/><text fill="#000000" font-family="sans-serif" font-size="12" lengthAdjust="spacing" textLength="62" x="151" y="299.7695">jj/mm/aaaa</text><line style="stroke:#000000;stroke-width:1.0;" x1="233" x2="233" y1="285.3125" y2="303.4063"/><polygon fill="#000000" points="236,291.3125,242,291.3125,239,298.4063" style="stroke:#000000;stroke-width:1.0;"/><rect fill="#EEEEEE" height="18.0938" style="stroke:#000000;stroke-width:1.0;" width="55" x="247" y="285.3125"/><text fill="#000000" font-family="sans-serif" font-size="12" lengthAdjust="spacing" textLength="39" x="249" y="299.7695">hh:mm</text><line style="stroke:#000000;stroke-width:1.0;" x1="291" x2="291" y1="285.3125" y2="303.4063"/><polygon fill="#000000" points="294,291.3125,300,291.3125,297,298.4063" style="stroke:#000000;stroke-width:1.0;"/><rect fill="#EEEEEE" height="18.0938" style="stroke:#000000;stroke-width:1.0;" width="95" x="393" y="285.3125"/><text fill="#000000" font-family="sans-serif" font-size="12" lengthAdjust="spacing" textLength="62" x="395" y="299.7695">jj/mm/aaaa</text><line style="stroke:#000000;stroke-width:1.0;" x1="477" x2="477" y1="285.3125" y2="303.4063"/><polygon fill="#000000" points="480,291.3125,486,291.3125,483,298.4063" style="stroke:#000000;stroke-width:1.0;"/><rect fill="#EEEEEE" height="18.0938" style="stroke:#000000;stroke-width:1.0;" width="55" x="491" y="285.3125"/><text fill="#000000" font-family="sans-serif" font-size="12" lengthAdjust="spacing" textLength="39" x="493" y="299.7695">hh:mm</text><line style="stroke:#000000;stroke-width:1.0;" x1="535" x2="535" y1="285.3125" y2="303.4063"/><polygon fill="#000000" points="538,291.3125,544,291.3125,541,298.4063" style="stroke:#000000;stroke-width:1.0;"/><text fill="#000000" font-family="sans-serif" font-size="12" lengthAdjust="spacing" textLength="85" x="7" y="336.957">Observateurs* :</text><rect fill="#EEEEEE" height="18.0938" style="stroke:#000000;stroke-width:1.0;" width="239" x="148" y="324.5"/><text fill="#000000" font-family="sans-serif" font-size="12" lengthAdjust="spacing" textLength="84" x="150" y="338.957">Observateur #1</text><line style="stroke:#000000;stroke-width:1.0;" x1="376" x2="376" y1="324.5" y2="342.5938"/><polygon fill="#000000" points="379,330.5,385,330.5,382,337.5938" style="stroke:#000000;stroke-width:1.0;"/><rect fill="#EEEEEE" height="12" rx="5" ry="5" style="stroke:#000000;stroke-width:2.5;" width="20" x="395.5" y="328"/><path d="M404.5,330 L404.5,333 L401.5,333 L401.5,335 L404.5,335 L404.5,338 L406.5,338 L406.5,335 L409.5,335 L409.5,333 L406.5,333 L406.5,330 L404.5,330 " fill="#000000" style="stroke:;stroke-width:0.0;stroke-dasharray:;"/><rect fill="#EEEEEE" height="12" rx="5" ry="5" style="stroke:#000000;stroke-width:2.5;" width="20" x="422.5" y="328"/><path d="M429.91,330 L428.5,331.41 L429.22,332.13 L431,333.94 L429.22,335.72 L428.5,336.41 L429.91,337.85 L430.63,337.13 L432.44,335.32 L434.22,337.13 L434.91,337.85 L436.35,336.41 L435.63,335.72 L433.82,333.94 L435.63,332.13 L436.35,331.41 L434.91,330 L434.22,330.72 L432.44,332.5 L430.63,330.72 L429.91,330 " fill="#000000" style="stroke:;stroke-width:0.0;stroke-dasharray:;"/><text fill="#000000" font-family="sans-serif" font-size="12" font-weight="bold" lengthAdjust="spacing" textLength="101" x="6" y="376.1445">Caract&#233;ristiques :</text><text fill="#000000" font-family="sans-serif" font-size="12" lengthAdjust="spacing" textLength="205" x="12" y="394.2383">Disponibilit&#233; de la fiche de pr&#233;-vente :</text><rect fill="#EEEEEE" height="18.0938" style="stroke:#000000;stroke-width:1.0;" width="39" x="219" y="381.7813"/><text fill="#000000" font-family="sans-serif" font-size="12" lengthAdjust="spacing" textLength="19" x="221" y="396.2383">Oui</text><line style="stroke:#000000;stroke-width:1.0;" x1="247" x2="247" y1="381.7813" y2="399.875"/><polygon fill="#000000" points="250,387.7813,256,387.7813,253,394.875" style="stroke:#000000;stroke-width:1.0;"/><text fill="#000000" font-family="sans-serif" font-size="12" lengthAdjust="spacing" textLength="155" x="12" y="415.332">Strat&#233;gie d'&#233;chantillonnage :</text><rect fill="#EEEEEE" height="18.0938" style="stroke:#000000;stroke-width:1.0;" width="503" x="219" y="402.875"/><text fill="#000000" font-family="sans-serif" font-size="12" lengthAdjust="spacing" textLength="359" x="221" y="417.332">Simultan&#233; : Toutes esp&#232;ces commerciales - Simultan&#233; - Complet</text><line style="stroke:#000000;stroke-width:1.0;" x1="711" x2="711" y1="402.875" y2="420.9688"/><polygon fill="#000000" points="714,408.875,720,408.875,717,415.9688" style="stroke:#000000;stroke-width:1.0;"/><text fill="#000000" font-family="sans-serif" font-size="12" lengthAdjust="spacing" textLength="52" x="12" y="436.4258">PETS ?* :</text><rect fill="#EEEEEE" height="18.0938" style="stroke:#000000;stroke-width:1.0;" width="39" x="219" y="423.9688"/><text fill="#000000" font-family="sans-serif" font-size="12" lengthAdjust="spacing" textLength="19" x="221" y="438.4258">Oui</text><line style="stroke:#000000;stroke-width:1.0;" x1="247" x2="247" y1="423.9688" y2="442.0625"/><polygon fill="#000000" points="250,429.9688,256,429.9688,253,437.0625" style="stroke:#000000;stroke-width:1.0;"/><text fill="#000000" font-family="sans-serif" font-size="12" lengthAdjust="spacing" textLength="86" x="12" y="457.5195">Type de vente* :</text><rect fill="#EEEEEE" height="18.0938" style="stroke:#000000;stroke-width:1.0;" width="239" x="219" y="445.0625"/><text fill="#000000" font-family="sans-serif" font-size="12" lengthAdjust="spacing" textLength="134" x="221" y="459.5195">Ench&#232;res - HAM / Cri&#233;es</text><line style="stroke:#000000;stroke-width:1.0;" x1="447" x2="447" y1="445.0625" y2="463.1563"/><polygon fill="#000000" points="450,451.0625,456,451.0625,453,458.1563" style="stroke:#000000;stroke-width:1.0;"/><text fill="#000000" font-family="sans-serif" font-size="12" lengthAdjust="spacing" textLength="133" x="12" y="478.6133">Validation observateur* :</text><rect fill="#EEEEEE" height="18.0938" style="stroke:#000000;stroke-width:1.0;" width="159" x="219" y="466.1563"/><text fill="#000000" font-family="sans-serif" font-size="12" lengthAdjust="spacing" textLength="112" x="221" y="480.6133">Donn&#233;es contr&#244;l&#233;es</text><line style="stroke:#000000;stroke-width:1.0;" x1="367" x2="367" y1="466.1563" y2="484.25"/><polygon fill="#000000" points="370,472.1563,376,472.1563,373,479.25" style="stroke:#000000;stroke-width:1.0;"/><text fill="#000000" font-family="sans-serif" font-size="12" lengthAdjust="spacing" textLength="108" x="12" y="499.707">Validation soci&#233;t&#233;* :</text><rect fill="#EEEEEE" height="18.0938" style="stroke:#000000;stroke-width:1.0;" width="159" x="219" y="487.25"/><text fill="#000000" font-family="sans-serif" font-size="12" lengthAdjust="spacing" textLength="93" x="221" y="501.707">Donn&#233;es valides</text><line style="stroke:#000000;stroke-width:1.0;" x1="367" x2="367" y1="487.25" y2="505.3438"/><polygon fill="#000000" points="370,493.25,376,493.25,373,500.3438" style="stroke:#000000;stroke-width:1.0;"/><text fill="#000000" font-family="sans-serif" font-size="12" font-weight="bold" lengthAdjust="spacing" textLength="90" x="7" y="539.8945">Commentaires :</text><text fill="#000000" font-family="sans-serif" font-size="12" lengthAdjust="spacing" textLength="3" x="11" y="575.082">&#160;</text><line style="stroke:#000000;stroke-width:1.0;" x1="9" x2="732" y1="577.7188" y2="577.7188"/><line style="stroke:#000000;stroke-width:1.0;" x1="9" x2="9" y1="574.7188" y2="576.7188"/><line style="stroke:#000000;stroke-width:1.0;" x1="732" x2="732" y1="574.7188" y2="576.7188"/><line style="stroke:#000000;stroke-width:1.0;" x1="7" x2="735" y1="544.5313" y2="544.5313"/><line style="stroke:#000000;stroke-width:1.0;" x1="7" x2="735" y1="580.7188" y2="580.7188"/><line style="stroke:#000000;stroke-width:1.0;" x1="7" x2="7" y1="544.5313" y2="561.625"/><line style="stroke:#000000;stroke-width:1.0;" x1="735" x2="735" y1="561.625" y2="580.7188"/><line style="stroke:#000000;stroke-width:1.0;" x1="735" x2="735" y1="544.5313" y2="561.625"/><line style="stroke:#000000;stroke-width:1.0;" x1="7" x2="7" y1="561.625" y2="580.7188"/><rect fill="#EEEEEE" height="19.0938" rx="5" ry="5" style="stroke:#000000;stroke-width:2.5;" width="52" x="9.5" y="587.2188"/><text fill="#000000" font-family="sans-serif" font-size="12" lengthAdjust="spacing" textLength="40" x="15.5" y="601.6758">Fermer</text><rect fill="#EEEEEE" height="19.0938" rx="5" ry="5" style="stroke:#000000;stroke-width:2.5;" width="92" x="68.5" y="587.2188"/><text fill="#000000" font-family="sans-serif" font-size="12" lengthAdjust="spacing" textLength="70" x="79.5" y="601.6758">Sauvegarder</text></g></svg>