<?xml version="1.0" encoding="us-ascii" standalone="no"?><svg xmlns="http://www.w3.org/2000/svg" xmlns:xlink="http://www.w3.org/1999/xlink" contentStyleType="text/css" height="245px" preserveAspectRatio="none" style="width:599px;height:245px;background:#FFFFFF;" version="1.1" viewBox="0 0 599 245" width="599px" zoomAndPan="magnify"><defs/><g><text fill="#000000" font-family="sans-serif" font-size="12" font-weight="bold" lengthAdjust="spacing" textLength="41" x="7" y="19.457">Sorties</text><path d="M581,11.0938 C578.8,11.0938 577,12.8938 577,15.0938 C577,17.2938 578.8,19.0938 581,19.0938 C582.1,19.0938 583.12,18.6638 583.84,17.9338 L583.12,17.2138 C582.58,17.7538 581.83,18.0938 580.99,18.0938 C579.33,18.0938 577.99,16.7538 577.99,15.0938 C577.99,13.4338 579.33,12.0938 580.99,12.0938 C581.82,12.0938 582.54,12.4538 583.08,13.0038 L581.99,14.0938 L584.99,14.0938 L584.99,11.0938 L583.8,12.2838 C583.08,11.5638 582.09,11.0938 580.99,11.0938 " fill="#000000" style="stroke:;stroke-width:0.0;stroke-dasharray:;"/><line style="stroke:#AAAAAA;stroke-width:1.0;" x1="6" x2="588" y1="28.5938" y2="28.5938"/><text fill="#000000" font-family="sans-serif" font-size="12" lengthAdjust="spacing" textLength="134" x="7" y="46.5508">Programme de collecte :</text><rect fill="#EEEEEE" height="18.0938" style="stroke:#000000;stroke-width:1.0;" width="159" x="148" y="34.0938"/><text fill="#000000" font-family="sans-serif" font-size="12" lengthAdjust="spacing" textLength="88" x="150" y="48.5508">SIH-OBSVENTE</text><line style="stroke:#000000;stroke-width:1.0;" x1="296" x2="296" y1="34.0938" y2="52.1875"/><polygon fill="#000000" points="299,40.0938,305,40.0938,302,47.1875" style="stroke:#000000;stroke-width:1.0;"/><text fill="#000000" font-family="sans-serif" font-size="12" lengthAdjust="spacing" textLength="46" x="320" y="46.5508">Origine :</text><rect fill="#EEEEEE" height="18.0938" style="stroke:#000000;stroke-width:1.0;" width="159" x="425" y="34.0938"/><text fill="#000000" font-family="sans-serif" font-size="12" lengthAdjust="spacing" textLength="88" x="427" y="48.5508">SIH-OBSVENTE</text><line style="stroke:#000000;stroke-width:1.0;" x1="573" x2="573" y1="34.0938" y2="52.1875"/><polygon fill="#000000" points="576,40.0938,582,40.0938,579,47.1875" style="stroke:#000000;stroke-width:1.0;"/><text fill="#000000" font-family="sans-serif" font-size="12" lengthAdjust="spacing" textLength="27" x="7" y="84.7383">Etat :</text><rect fill="#EEEEEE" height="18.0938" style="stroke:#000000;stroke-width:1.0;" width="159" x="148" y="72.2813"/><text fill="#000000" font-family="sans-serif" font-size="12" lengthAdjust="spacing" textLength="103" x="150" y="86.7383">En cours de saisie</text><line style="stroke:#000000;stroke-width:1.0;" x1="296" x2="296" y1="72.2813" y2="90.375"/><polygon fill="#000000" points="299,78.2813,305,78.2813,302,85.375" style="stroke:#000000;stroke-width:1.0;"/><text fill="#000000" font-family="sans-serif" font-size="12" lengthAdjust="spacing" textLength="30" x="320" y="84.7383">Lieu :</text><rect fill="#EEEEEE" height="18.0938" style="stroke:#000000;stroke-width:1.0;" width="159" x="425" y="72.2813"/><text fill="#000000" font-family="sans-serif" font-size="12" lengthAdjust="spacing" textLength="100" x="427" y="86.7383">XDZ - Douarnenez</text><line style="stroke:#000000;stroke-width:1.0;" x1="573" x2="573" y1="72.2813" y2="90.375"/><polygon fill="#000000" points="576,78.2813,582,78.2813,579,85.375" style="stroke:#000000;stroke-width:1.0;"/><text fill="#000000" font-family="sans-serif" font-size="12" lengthAdjust="spacing" textLength="114" x="7" y="122.9258">D&#233;but de la p&#233;riode :</text><rect fill="#EEEEEE" height="18.0938" style="stroke:#000000;stroke-width:1.0;" width="159" x="148" y="110.4688"/><text fill="#000000" font-family="sans-serif" font-size="12" lengthAdjust="spacing" textLength="62" x="150" y="124.9258">01/01/2023</text><line style="stroke:#000000;stroke-width:1.0;" x1="296" x2="296" y1="110.4688" y2="128.5625"/><polygon fill="#000000" points="299,116.4688,305,116.4688,302,123.5625" style="stroke:#000000;stroke-width:1.0;"/><text fill="#000000" font-family="sans-serif" font-size="12" lengthAdjust="spacing" textLength="98" x="320" y="122.9258">Fin de la p&#233;riode :</text><rect fill="#EEEEEE" height="18.0938" style="stroke:#000000;stroke-width:1.0;" width="159" x="425" y="110.4688"/><text fill="#000000" font-family="sans-serif" font-size="12" lengthAdjust="spacing" textLength="62" x="427" y="124.9258">31/12/2023</text><line style="stroke:#000000;stroke-width:1.0;" x1="573" x2="573" y1="110.4688" y2="128.5625"/><polygon fill="#000000" points="576,116.4688,582,116.4688,579,123.5625" style="stroke:#000000;stroke-width:1.0;"/><text fill="#000000" font-family="sans-serif" font-size="12" lengthAdjust="spacing" textLength="130" x="7" y="161.1133">Organisme saisisseur :</text><rect fill="#EEEEEE" height="18.0938" style="stroke:#000000;stroke-width:1.0;" width="159" x="148" y="148.6563"/><text fill="#000000" font-family="sans-serif" font-size="12" lengthAdjust="spacing" textLength="39" x="150" y="163.1133">Ifremer</text><line style="stroke:#000000;stroke-width:1.0;" x1="296" x2="296" y1="148.6563" y2="166.75"/><polygon fill="#000000" points="299,154.6563,305,154.6563,302,161.75" style="stroke:#000000;stroke-width:1.0;"/><text fill="#000000" font-family="sans-serif" font-size="12" lengthAdjust="spacing" textLength="66" x="320" y="161.1133">Saisisseur :</text><rect fill="#EEEEEE" height="18.0938" style="stroke:#000000;stroke-width:1.0;" width="159" x="425" y="148.6563"/><text fill="#000000" font-family="sans-serif" font-size="12" lengthAdjust="spacing" textLength="98" x="427" y="163.1133">Nicolas DUPOND</text><line style="stroke:#000000;stroke-width:1.0;" x1="573" x2="573" y1="148.6563" y2="166.75"/><polygon fill="#000000" points="576,154.6563,582,154.6563,579,161.75" style="stroke:#000000;stroke-width:1.0;"/><text fill="#000000" font-family="sans-serif" font-size="12" lengthAdjust="spacing" textLength="80" x="7" y="199.3008">Observateurs :</text><rect fill="#EEEEEE" height="18.0938" style="stroke:#000000;stroke-width:1.0;" width="159" x="148" y="186.8438"/><text fill="#000000" font-family="sans-serif" font-size="12" lengthAdjust="spacing" textLength="98" x="150" y="201.3008">Nicolas DUPOND</text><line style="stroke:#000000;stroke-width:1.0;" x1="296" x2="296" y1="186.8438" y2="204.9375"/><polygon fill="#000000" points="299,192.8438,305,192.8438,302,199.9375" style="stroke:#000000;stroke-width:1.0;"/><line style="stroke:#AAAAAA;stroke-width:1.0;" x1="6" x2="588" y1="212.4375" y2="212.4375"/><text fill="#000000" font-family="sans-serif" font-size="12" lengthAdjust="spacing" textLength="58" x="7" y="230.3945">2 r&#233;sultats</text><rect fill="#EEEEEE" height="12" rx="5" ry="5" style="stroke:#000000;stroke-width:2.5;" width="20" x="71.5" y="220.4375"/><path d="M77.5,222.4375 L81.5,226.4375 L85.5,222.4375 L77.5,222.4375 " fill="#000000" style="stroke:;stroke-width:0.0;stroke-dasharray:;"/><rect fill="#EEEEEE" height="19.0938" rx="5" ry="5" style="stroke:#000000;stroke-width:2.5;" width="52" x="98.5" y="220.4375"/><text fill="#000000" font-family="sans-serif" font-size="12" lengthAdjust="spacing" textLength="40" x="104.5" y="234.8945">Fermer</text><rect fill="#EEEEEE" height="19.0938" rx="5" ry="5" style="stroke:#000000;stroke-width:2.5;" width="76" x="157.5" y="220.4375"/><text fill="#000000" font-family="sans-serif" font-size="12" lengthAdjust="spacing" textLength="52" x="169.5" y="234.8945">Appliquer</text></g></svg>