<?xml version="1.0" encoding="us-ascii" standalone="no"?><svg xmlns="http://www.w3.org/2000/svg" xmlns:xlink="http://www.w3.org/1999/xlink" contentStyleType="text/css" height="110px" preserveAspectRatio="none" style="width:527px;height:110px;background:#FFFFFF;" version="1.1" viewBox="0 0 527 110" width="527px" zoomAndPan="magnify"><defs/><g><text fill="#000000" font-family="sans-serif" font-size="12" font-weight="bold" lengthAdjust="spacing" textLength="41" x="6" y="18.9492">Sorties</text><path d="M513,10.9609 L513,13.9609 L510,13.9609 L510,15.9609 L513,15.9609 L513,18.9609 L515,18.9609 L515,15.9609 L518,15.9609 L518,13.9609 L515,13.9609 L515,10.9609 L513,10.9609 " fill="#000000" style="stroke:;stroke-width:0.0;stroke-dasharray:;"/><line style="stroke:#AAAAAA;stroke-width:1.0;" x1="6" x2="520" y1="27.4609" y2="27.4609"/><text fill="#000000" font-family="sans-serif" font-size="12" lengthAdjust="spacing" textLength="3" x="27" y="63.8711">.</text><rect fill="none" height="10" style="stroke:#000000;stroke-width:1.5;" width="10" x="9" y="53.9023"/><text fill="#000000" font-family="sans-serif" font-size="12" font-weight="bold" lengthAdjust="spacing" textLength="22" x="32" y="63.8711">Etat</text><text fill="#000000" font-family="sans-serif" font-size="12" font-weight="bold" lengthAdjust="spacing" textLength="68" x="56" y="63.8711">Programme</text><text fill="#000000" font-family="sans-serif" font-size="12" font-weight="bold" lengthAdjust="spacing" textLength="90" x="146" y="63.8711">Lieu de la sortie</text><text fill="#000000" font-family="sans-serif" font-size="12" font-weight="bold" lengthAdjust="spacing" textLength="62" x="248" y="63.8711">Date/heure</text><text fill="#000000" font-family="sans-serif" font-size="12" font-weight="bold" lengthAdjust="spacing" textLength="78" x="346" y="63.8711">Observateurs</text><text fill="#000000" font-family="sans-serif" font-size="12" font-weight="bold" lengthAdjust="spacing" textLength="61" x="426" y="63.8711">Saisisseur</text><text fill="#000000" font-family="sans-serif" font-size="12" lengthAdjust="spacing" textLength="3" x="27" y="81.832">.</text><rect fill="none" height="10" style="stroke:#000000;stroke-width:1.5;" width="10" x="9" y="71.8633"/><text fill="#000000" font-family="sans-serif" font-size="12" font-weight="bold" lengthAdjust="spacing" textLength="6" x="32" y="81.832">&#160;&#160;</text><path d="M45,73.8438 L44,74.8438 L46,76.8438 L47,75.8438 L45,73.8438 M43,75.8438 L39,79.8438 L39,81.8438 L41,81.8438 L45,77.8438 L43,75.8438 " fill="#000000" style="stroke:;stroke-width:0.0;stroke-dasharray:;"/><text fill="#000000" font-family="sans-serif" font-size="12" lengthAdjust="spacing" textLength="88" x="56" y="81.832">SIH-OBSVENTE</text><text fill="#000000" font-family="sans-serif" font-size="12" lengthAdjust="spacing" textLength="100" x="146" y="81.832">XDZ - Douarnenez</text><text fill="#000000" font-family="sans-serif" font-size="12" lengthAdjust="spacing" textLength="96" x="248" y="81.832">25/11/2023 17:00</text><text fill="#000000" font-family="sans-serif" font-size="12" lengthAdjust="spacing" textLength="28" x="346" y="81.832">obs1</text><text fill="#000000" font-family="sans-serif" font-size="12" lengthAdjust="spacing" textLength="28" x="426" y="81.832">obs1</text><text fill="#000000" font-family="sans-serif" font-size="12" lengthAdjust="spacing" textLength="3" x="27" y="99.793">.</text><rect fill="none" height="10" style="stroke:#000000;stroke-width:1.5;" width="10" x="9" y="89.8242"/><text fill="#000000" font-family="sans-serif" font-size="12" font-weight="bold" lengthAdjust="spacing" textLength="6" x="32" y="99.793">&#160;&#160;</text><path d="M45,91.8047 L44,92.8047 L46,94.8047 L47,93.8047 L45,91.8047 M43,93.8047 L39,97.8047 L39,99.8047 L41,99.8047 L45,95.8047 L43,93.8047 " fill="#000000" style="stroke:;stroke-width:0.0;stroke-dasharray:;"/><text fill="#000000" font-family="sans-serif" font-size="12" lengthAdjust="spacing" textLength="88" x="56" y="99.793">SIH-OBSVENTE</text><text fill="#000000" font-family="sans-serif" font-size="12" lengthAdjust="spacing" textLength="100" x="146" y="99.793">XDZ - Douarnenez</text><text fill="#000000" font-family="sans-serif" font-size="12" lengthAdjust="spacing" textLength="96" x="248" y="99.793">26/11/2023 17:00</text><text fill="#000000" font-family="sans-serif" font-size="12" lengthAdjust="spacing" textLength="62" x="346" y="99.793">obs1, obs2</text><text fill="#000000" font-family="sans-serif" font-size="12" lengthAdjust="spacing" textLength="28" x="426" y="99.793">obs1</text><path d="M490.09,86.8438 C490.03,86.8438 490,86.8838 490,86.9338 L490,92.7438 C490,92.7938 490.04,92.8338 490.09,92.8338 L496,92.8338 L498,94.8338 L498,86.9238 C498,86.8638 497.96,86.8338 497.91,86.8338 L490.1,86.8338 " fill="#000000" style="stroke:;stroke-width:0.0;stroke-dasharray:;"/><line style="stroke:#000000;stroke-width:1.0;" x1="6" x2="31" y1="49.9219" y2="49.9219"/><line style="stroke:#000000;stroke-width:1.0;" x1="31" x2="55" y1="49.9219" y2="49.9219"/><line style="stroke:#000000;stroke-width:1.0;" x1="55" x2="145" y1="49.9219" y2="49.9219"/><line style="stroke:#000000;stroke-width:1.0;" x1="145" x2="247" y1="49.9219" y2="49.9219"/><line style="stroke:#000000;stroke-width:1.0;" x1="247" x2="345" y1="49.9219" y2="49.9219"/><line style="stroke:#000000;stroke-width:1.0;" x1="345" x2="425" y1="49.9219" y2="49.9219"/><line style="stroke:#000000;stroke-width:1.0;" x1="425" x2="488" y1="49.9219" y2="49.9219"/><line style="stroke:#000000;stroke-width:1.0;" x1="488" x2="500" y1="49.9219" y2="49.9219"/><line style="stroke:#000000;stroke-width:1.0;" x1="6" x2="31" y1="103.8047" y2="103.8047"/><line style="stroke:#000000;stroke-width:1.0;" x1="31" x2="55" y1="103.8047" y2="103.8047"/><line style="stroke:#000000;stroke-width:1.0;" x1="55" x2="145" y1="103.8047" y2="103.8047"/><line style="stroke:#000000;stroke-width:1.0;" x1="145" x2="247" y1="103.8047" y2="103.8047"/><line style="stroke:#000000;stroke-width:1.0;" x1="247" x2="345" y1="103.8047" y2="103.8047"/><line style="stroke:#000000;stroke-width:1.0;" x1="345" x2="425" y1="103.8047" y2="103.8047"/><line style="stroke:#000000;stroke-width:1.0;" x1="425" x2="488" y1="103.8047" y2="103.8047"/><line style="stroke:#000000;stroke-width:1.0;" x1="488" x2="500" y1="103.8047" y2="103.8047"/><line style="stroke:#000000;stroke-width:1.0;" x1="6" x2="31" y1="85.8438" y2="85.8438"/><line style="stroke:#000000;stroke-width:1.0;" x1="31" x2="55" y1="85.8438" y2="85.8438"/><line style="stroke:#000000;stroke-width:1.0;" x1="55" x2="145" y1="85.8438" y2="85.8438"/><line style="stroke:#000000;stroke-width:1.0;" x1="145" x2="247" y1="85.8438" y2="85.8438"/><line style="stroke:#000000;stroke-width:1.0;" x1="247" x2="345" y1="85.8438" y2="85.8438"/><line style="stroke:#000000;stroke-width:1.0;" x1="345" x2="425" y1="85.8438" y2="85.8438"/><line style="stroke:#000000;stroke-width:1.0;" x1="425" x2="488" y1="85.8438" y2="85.8438"/><line style="stroke:#000000;stroke-width:1.0;" x1="488" x2="500" y1="85.8438" y2="85.8438"/><line style="stroke:#000000;stroke-width:1.0;" x1="6" x2="31" y1="67.8828" y2="67.8828"/><line style="stroke:#000000;stroke-width:1.0;" x1="31" x2="55" y1="67.8828" y2="67.8828"/><line style="stroke:#000000;stroke-width:1.0;" x1="55" x2="145" y1="67.8828" y2="67.8828"/><line style="stroke:#000000;stroke-width:1.0;" x1="145" x2="247" y1="67.8828" y2="67.8828"/><line style="stroke:#000000;stroke-width:1.0;" x1="247" x2="345" y1="67.8828" y2="67.8828"/><line style="stroke:#000000;stroke-width:1.0;" x1="345" x2="425" y1="67.8828" y2="67.8828"/><line style="stroke:#000000;stroke-width:1.0;" x1="425" x2="488" y1="67.8828" y2="67.8828"/><line style="stroke:#000000;stroke-width:1.0;" x1="488" x2="500" y1="67.8828" y2="67.8828"/><line style="stroke:#000000;stroke-width:1.0;" x1="6" x2="6" y1="49.9219" y2="67.8828"/><line style="stroke:#000000;stroke-width:1.0;" x1="31" x2="31" y1="49.9219" y2="67.8828"/><line style="stroke:#000000;stroke-width:1.0;" x1="55" x2="55" y1="49.9219" y2="67.8828"/><line style="stroke:#000000;stroke-width:1.0;" x1="145" x2="145" y1="49.9219" y2="67.8828"/><line style="stroke:#000000;stroke-width:1.0;" x1="247" x2="247" y1="49.9219" y2="67.8828"/><line style="stroke:#000000;stroke-width:1.0;" x1="345" x2="345" y1="49.9219" y2="67.8828"/><line style="stroke:#000000;stroke-width:1.0;" x1="425" x2="425" y1="49.9219" y2="67.8828"/><line style="stroke:#000000;stroke-width:1.0;" x1="488" x2="488" y1="49.9219" y2="67.8828"/><line style="stroke:#000000;stroke-width:1.0;" x1="500" x2="500" y1="49.9219" y2="67.8828"/><line style="stroke:#000000;stroke-width:1.0;" x1="6" x2="6" y1="85.8438" y2="103.8047"/><line style="stroke:#000000;stroke-width:1.0;" x1="31" x2="31" y1="85.8438" y2="103.8047"/><line style="stroke:#000000;stroke-width:1.0;" x1="55" x2="55" y1="85.8438" y2="103.8047"/><line style="stroke:#000000;stroke-width:1.0;" x1="145" x2="145" y1="85.8438" y2="103.8047"/><line style="stroke:#000000;stroke-width:1.0;" x1="247" x2="247" y1="85.8438" y2="103.8047"/><line style="stroke:#000000;stroke-width:1.0;" x1="345" x2="345" y1="85.8438" y2="103.8047"/><line style="stroke:#000000;stroke-width:1.0;" x1="425" x2="425" y1="85.8438" y2="103.8047"/><line style="stroke:#000000;stroke-width:1.0;" x1="488" x2="488" y1="85.8438" y2="103.8047"/><line style="stroke:#000000;stroke-width:1.0;" x1="500" x2="500" y1="85.8438" y2="103.8047"/><line style="stroke:#000000;stroke-width:1.0;" x1="6" x2="6" y1="67.8828" y2="85.8438"/><line style="stroke:#000000;stroke-width:1.0;" x1="31" x2="31" y1="67.8828" y2="85.8438"/><line style="stroke:#000000;stroke-width:1.0;" x1="55" x2="55" y1="67.8828" y2="85.8438"/><line style="stroke:#000000;stroke-width:1.0;" x1="145" x2="145" y1="67.8828" y2="85.8438"/><line style="stroke:#000000;stroke-width:1.0;" x1="247" x2="247" y1="67.8828" y2="85.8438"/><line style="stroke:#000000;stroke-width:1.0;" x1="345" x2="345" y1="67.8828" y2="85.8438"/><line style="stroke:#000000;stroke-width:1.0;" x1="425" x2="425" y1="67.8828" y2="85.8438"/><line style="stroke:#000000;stroke-width:1.0;" x1="488" x2="488" y1="67.8828" y2="85.8438"/><line style="stroke:#000000;stroke-width:1.0;" x1="500" x2="500" y1="67.8828" y2="85.8438"/><!--SRC=[pLBRIWCn47qsNp4W50Ltswosub9AiRjUQckBgqKK7zBjM0FRH7CfQEs_ExjL1F7D5_CmoJcJEND9kjO9uwme75inWFQqasdZ95hujwjTUowyxL2rGK0cP5khRSOgrpqyXF1UTf4wuJQdiT5p8nOBtC21H0ypX4A0hJhTq8bmM7z2RpxnQ6hHB8dqncwOJ4WhhIM2SFWpNrKMgbmM7IAoyxDWT9nDqilhbE1jSWS19DeBer3X6r5HiyvvFMf4-y0FuqQ3A3sr_7FxithhL_MzqaRVgTgrNDDWb0li2qLZfygxPcpDkgXcrQzWuq8eTpCSm1ADbLe13qlXaE_l30abc0Fdm8_Yg14t3w6NNaFftsKxf-C1pTYR764chJDowXq9xBA-M0guyih91SOmeixwoSKN0QbQIgDLMHVhJuRV5re7mR5qaD73e879a2NuA7pXA2BNCwdcCVIUUTICs42ekHTp4dyqhAT9sBp6S7Br0G00]--></g></svg>