<?xml version="1.0" encoding="us-ascii" standalone="no"?><svg xmlns="http://www.w3.org/2000/svg" xmlns:xlink="http://www.w3.org/1999/xlink" contentStyleType="text/css" height="486px" preserveAspectRatio="none" style="width:790px;height:486px;background:#FFFFFF;" version="1.1" viewBox="0 0 790 486" width="790px" zoomAndPan="magnify"><defs/><g><text fill="#000000" font-family="sans-serif" font-size="12" font-weight="bold" lengthAdjust="spacing" textLength="84" x="6" y="18.9492">Nouvelle sortie</text><line style="stroke:#AAAAAA;stroke-width:1.0;" x1="6" x2="783" y1="27.4609" y2="27.4609"/><text fill="#000000" font-family="sans-serif" font-size="12" font-weight="bold" lengthAdjust="spacing" textLength="39" x="8" y="44.9102">D&#233;tails</text><line style="stroke:#000000;stroke-width:1.0;" x1="6" x2="6" y1="31.9609" y2="47.9219"/><line style="stroke:#000000;stroke-width:1.0;" x1="6" x2="50" y1="31.9609" y2="31.9609"/><line style="stroke:#000000;stroke-width:1.0;" x1="50" x2="50" y1="31.9609" y2="47.9219"/><line style="stroke:#000000;stroke-width:1.0;" x1="50" x2="60" y1="47.9219" y2="47.9219"/><text fill="#000000" font-family="sans-serif" font-size="12" lengthAdjust="spacing" textLength="96" x="62" y="44.9102">Echantillonnages</text><line style="stroke:#000000;stroke-width:1.0;" x1="60" x2="60" y1="31.9609" y2="47.9219"/><line style="stroke:#000000;stroke-width:1.0;" x1="60" x2="161" y1="31.9609" y2="31.9609"/><line style="stroke:#000000;stroke-width:1.0;" x1="161" x2="161" y1="31.9609" y2="47.9219"/><line style="stroke:#000000;stroke-width:1.0;" x1="161" x2="171" y1="47.9219" y2="47.9219"/><line style="stroke:#AAAAAA;stroke-width:1.0;stroke-dasharray:1.0,2.0;" x1="6" x2="783" y1="53.4219" y2="53.4219"/><text fill="#000000" font-family="sans-serif" font-size="12" lengthAdjust="spacing" textLength="139" x="7" y="89.832">Programme de collecte* :</text><rect fill="#EEEEEE" height="18.9609" style="stroke:#000000;stroke-width:1.0;" width="239" x="149" y="77.8828"/><text fill="#000000" font-family="sans-serif" font-size="12" lengthAdjust="spacing" textLength="88" x="151" y="92.832">SIH-OBSVENTE</text><line style="stroke:#000000;stroke-width:1.0;" x1="377" x2="377" y1="77.8828" y2="96.8438"/><polygon fill="#000000" points="380,83.8828,386,83.8828,383,91.8438" style="stroke:#000000;stroke-width:1.0;"/><text fill="#000000" font-family="sans-serif" font-size="12" lengthAdjust="spacing" textLength="200" x="567" y="106.793">ObsVente d&#233;marrage au 01/01/2024</text><path d="M775.03,98.8047 C772.5,98.8047 771,101.8047 771,101.8047 C771,101.8047 772.5,104.8047 775.03,104.8047 C777.5,104.8047 779,101.8047 779,101.8047 C779,101.8047 777.5,98.8047 775.03,98.8047 M775,99.8047 C776.11,99.8047 777,100.7047 777,101.8047 C777,102.9147 776.11,103.8047 775,103.8047 C773.9,103.8047 773,102.9147 773,101.8047 C773,100.7047 773.9,99.8047 775,99.8047 M775,100.8047 C774.45,100.8047 774,101.2547 774,101.8047 C774,102.3547 774.45,102.8047 775,102.8047 C775.55,102.8047 776,102.3547 776,101.8047 C776,101.7047 775.96,101.6147 775.94,101.5247 C775.86,101.6847 775.7,101.8047 775.5,101.8047 C775.22,101.8047 775,101.5847 775,101.3047 C775,101.1047 775.12,100.9447 775.28,100.8647 C775.19,100.8347 775.1,100.8047 775,100.8047 " fill="#000000" style="stroke:;stroke-width:0.0;stroke-dasharray:;"/><line style="stroke:#000000;stroke-width:1.0;" x1="566" x2="781" y1="84.8633" y2="84.8633"/><line style="stroke:#000000;stroke-width:1.0;" x1="566" x2="781" y1="110.8047" y2="110.8047"/><line style="stroke:#000000;stroke-width:1.0;" x1="566" x2="566" y1="84.8633" y2="110.8047"/><line style="stroke:#000000;stroke-width:1.0;" x1="781" x2="781" y1="84.8633" y2="110.8047"/><rect fill="#FFFFFF" height="15.9609" style="stroke:#FFFFFF;stroke-width:1.0;" width="49" x="572" y="76.8828"/><text fill="#000000" font-family="sans-serif" font-size="12" lengthAdjust="spacing" textLength="49" x="572" y="89.832">Strat&#233;gie</text><text fill="#000000" font-family="sans-serif" font-size="12" lengthAdjust="spacing" textLength="112" x="7" y="141.7148">R&#233;f&#233;rence au plan* :</text><rect fill="#EEEEEE" height="18.9609" style="stroke:#000000;stroke-width:1.0;" width="239" x="148" y="128.7656"/><text fill="#000000" font-family="sans-serif" font-size="12" lengthAdjust="spacing" textLength="186" x="150" y="143.7148">2021_V0010 - DPMA_20_23_Lot2</text><line style="stroke:#000000;stroke-width:1.0;" x1="376" x2="376" y1="128.7656" y2="147.7266"/><polygon fill="#000000" points="379,134.7656,385,134.7656,382,142.7266" style="stroke:#000000;stroke-width:1.0;"/><text fill="#000000" font-family="sans-serif" font-size="12" lengthAdjust="spacing" textLength="85" x="7" y="181.6367">Observateurs* :</text><rect fill="#EEEEEE" height="18.9609" style="stroke:#000000;stroke-width:1.0;" width="239" x="148" y="168.6875"/><text fill="#000000" font-family="sans-serif" font-size="12" lengthAdjust="spacing" textLength="84" x="150" y="183.6367">Observateur #1</text><line style="stroke:#000000;stroke-width:1.0;" x1="376" x2="376" y1="168.6875" y2="187.6484"/><polygon fill="#000000" points="379,174.6875,385,174.6875,382,182.6484" style="stroke:#000000;stroke-width:1.0;"/><rect fill="#EEEEEE" height="12" rx="5" ry="5" style="stroke:#000000;stroke-width:2.5;" width="20" x="395.5" y="172.1875"/><path d="M404.5,174.1875 L404.5,177.1875 L401.5,177.1875 L401.5,179.1875 L404.5,179.1875 L404.5,182.1875 L406.5,182.1875 L406.5,179.1875 L409.5,179.1875 L409.5,177.1875 L406.5,177.1875 L406.5,174.1875 L404.5,174.1875 " fill="#000000" style="stroke:;stroke-width:0.0;stroke-dasharray:;"/><rect fill="#EEEEEE" height="12" rx="5" ry="5" style="stroke:#000000;stroke-width:2.5;" width="20" x="422.5" y="172.1875"/><path d="M429.91,174.1875 L428.5,175.5975 L429.22,176.3175 L431,178.1275 L429.22,179.9075 L428.5,180.5975 L429.91,182.0375 L430.63,181.3175 L432.44,179.5075 L434.22,181.3175 L434.91,182.0375 L436.35,180.5975 L435.63,179.9075 L433.82,178.1275 L435.63,176.3175 L436.35,175.5975 L434.91,174.1875 L434.22,174.9075 L432.44,176.6875 L430.63,174.9075 L429.91,174.1875 " fill="#000000" style="stroke:;stroke-width:0.0;stroke-dasharray:;"/><text fill="#000000" font-family="sans-serif" font-size="12" lengthAdjust="spacing" textLength="70" x="7" y="221.5586">Lieu / Date* :</text><rect fill="#EEEEEE" height="18.9609" style="stroke:#000000;stroke-width:1.0;" width="239" x="149" y="209.6094"/><text fill="#000000" font-family="sans-serif" font-size="12" lengthAdjust="spacing" textLength="100" x="151" y="224.5586">XDZ - Douarnenez</text><line style="stroke:#000000;stroke-width:1.0;" x1="377" x2="377" y1="209.6094" y2="228.5703"/><polygon fill="#000000" points="380,215.6094,386,215.6094,383,223.5703" style="stroke:#000000;stroke-width:1.0;"/><rect fill="#EEEEEE" height="18.9609" style="stroke:#000000;stroke-width:1.0;" width="103" x="393" y="209.6094"/><text fill="#000000" font-family="sans-serif" font-size="12" lengthAdjust="spacing" textLength="62" x="395" y="224.5586">jj/mm/aaaa</text><line style="stroke:#000000;stroke-width:1.0;" x1="485" x2="485" y1="209.6094" y2="228.5703"/><polygon fill="#000000" points="488,215.6094,494,215.6094,491,223.5703" style="stroke:#000000;stroke-width:1.0;"/><rect fill="#EEEEEE" height="18.9609" style="stroke:#000000;stroke-width:1.0;" width="63" x="499" y="209.6094"/><text fill="#000000" font-family="sans-serif" font-size="12" lengthAdjust="spacing" textLength="39" x="501" y="224.5586">hh:mm</text><line style="stroke:#000000;stroke-width:1.0;" x1="551" x2="551" y1="209.6094" y2="228.5703"/><polygon fill="#000000" points="554,215.6094,560,215.6094,557,223.5703" style="stroke:#000000;stroke-width:1.0;"/><text fill="#000000" font-family="sans-serif" font-size="12" font-weight="bold" lengthAdjust="spacing" textLength="101" x="6" y="264.4805">Caract&#233;ristiques :</text><text fill="#000000" font-family="sans-serif" font-size="12" lengthAdjust="spacing" textLength="217" x="12" y="283.4414">Temps disponible &#224; l'&#233;chantillonnage* :</text><text fill="#000000" font-family="sans-serif" font-size="12" lengthAdjust="spacing" textLength="17" x="234" y="283.4414">4.0</text><line style="stroke:#000000;stroke-width:1.0;" x1="232" x2="259" y1="286.4531" y2="286.4531"/><line style="stroke:#000000;stroke-width:1.0;" x1="232" x2="232" y1="283.4531" y2="285.4531"/><line style="stroke:#000000;stroke-width:1.0;" x1="259" x2="259" y1="283.4531" y2="285.4531"/><text fill="#000000" font-family="sans-serif" font-size="12" lengthAdjust="spacing" textLength="160" x="12" y="303.4023">Strat&#233;gie d'&#233;chantillonnage* :</text><rect fill="#EEEEEE" height="18.9609" style="stroke:#000000;stroke-width:1.0;" width="503" x="231" y="290.4531"/><text fill="#000000" font-family="sans-serif" font-size="12" lengthAdjust="spacing" textLength="359" x="233" y="305.4023">Simultan&#233; : Toutes esp&#232;ces commerciales - Simultan&#233; - Complet</text><line style="stroke:#000000;stroke-width:1.0;" x1="723" x2="723" y1="290.4531" y2="309.4141"/><polygon fill="#000000" points="726,296.4531,732,296.4531,729,304.4141" style="stroke:#000000;stroke-width:1.0;"/><text fill="#000000" font-family="sans-serif" font-size="12" lengthAdjust="spacing" textLength="86" x="12" y="325.3633">Type de vente* :</text><rect fill="#EEEEEE" height="18.9609" style="stroke:#000000;stroke-width:1.0;" width="239" x="231" y="312.4141"/><text fill="#000000" font-family="sans-serif" font-size="12" lengthAdjust="spacing" textLength="134" x="233" y="327.3633">Ench&#232;res - HAM / Cri&#233;es</text><line style="stroke:#000000;stroke-width:1.0;" x1="459" x2="459" y1="312.4141" y2="331.375"/><polygon fill="#000000" points="462,318.4141,468,318.4141,465,326.375" style="stroke:#000000;stroke-width:1.0;"/><text fill="#000000" font-family="sans-serif" font-size="12" lengthAdjust="spacing" textLength="133" x="12" y="347.3242">Validation observateur* :</text><rect fill="#EEEEEE" height="18.9609" style="stroke:#000000;stroke-width:1.0;" width="159" x="231" y="334.375"/><text fill="#000000" font-family="sans-serif" font-size="12" lengthAdjust="spacing" textLength="112" x="233" y="349.3242">Donn&#233;es contr&#244;l&#233;es</text><line style="stroke:#000000;stroke-width:1.0;" x1="379" x2="379" y1="334.375" y2="353.3359"/><polygon fill="#000000" points="382,340.375,388,340.375,385,348.3359" style="stroke:#000000;stroke-width:1.0;"/><text fill="#000000" font-family="sans-serif" font-size="12" lengthAdjust="spacing" textLength="108" x="12" y="369.2852">Validation soci&#233;t&#233;* :</text><rect fill="#EEEEEE" height="18.9609" style="stroke:#000000;stroke-width:1.0;" width="159" x="231" y="356.3359"/><text fill="#000000" font-family="sans-serif" font-size="12" lengthAdjust="spacing" textLength="93" x="233" y="371.2852">Donn&#233;es valides</text><line style="stroke:#000000;stroke-width:1.0;" x1="379" x2="379" y1="356.3359" y2="375.2969"/><polygon fill="#000000" points="382,362.3359,388,362.3359,385,370.2969" style="stroke:#000000;stroke-width:1.0;"/><text fill="#000000" font-family="sans-serif" font-size="12" font-weight="bold" lengthAdjust="spacing" textLength="90" x="7" y="411.207">Commentaires :</text><text fill="#000000" font-family="sans-serif" font-size="12" lengthAdjust="spacing" textLength="3" x="11" y="448.1289">&#160;</text><line style="stroke:#000000;stroke-width:1.0;" x1="9" x2="732" y1="451.1406" y2="451.1406"/><line style="stroke:#000000;stroke-width:1.0;" x1="9" x2="9" y1="448.1406" y2="450.1406"/><line style="stroke:#000000;stroke-width:1.0;" x1="732" x2="732" y1="448.1406" y2="450.1406"/><line style="stroke:#000000;stroke-width:1.0;" x1="7" x2="735" y1="416.2188" y2="416.2188"/><line style="stroke:#000000;stroke-width:1.0;" x1="7" x2="735" y1="454.1406" y2="454.1406"/><line style="stroke:#000000;stroke-width:1.0;" x1="7" x2="7" y1="416.2188" y2="434.1797"/><line style="stroke:#000000;stroke-width:1.0;" x1="735" x2="735" y1="434.1797" y2="454.1406"/><line style="stroke:#000000;stroke-width:1.0;" x1="735" x2="735" y1="416.2188" y2="434.1797"/><line style="stroke:#000000;stroke-width:1.0;" x1="7" x2="7" y1="434.1797" y2="454.1406"/><rect fill="#EEEEEE" height="19.9609" rx="5" ry="5" style="stroke:#000000;stroke-width:2.5;" width="52" x="9.5" y="460.6406"/><text fill="#000000" font-family="sans-serif" font-size="12" lengthAdjust="spacing" textLength="40" x="15.5" y="475.5898">Fermer</text><rect fill="#EEEEEE" height="19.9609" rx="5" ry="5" style="stroke:#000000;stroke-width:2.5;" width="92" x="68.5" y="460.6406"/><text fill="#000000" font-family="sans-serif" font-size="12" lengthAdjust="spacing" textLength="70" x="79.5" y="475.5898">Sauvegarder</text><!--SRC=[jLHHRzem47xthpWngMix0KbeDosgghQ4hkkWHOMXQTE2J731LM9dZeFM0VzbZytx_a7-sCvPA9HjZpr5bi- -Ev-_xtDE4asLJcYeoPm078sEhsGwOs78895ASuQBrIeEyxhPzF9CKnuci81MCAL2yp2KGj09Is29KRMQ6KmumS5OLyc9eb74OCmWa5Wuq6mVNBEtW3dulVSNrUkptg1rrM_1blcmnA1z4-XNUbfHdMSJpYe4djMkHyc02Oqjvrb4bSBh0Kt1ikluEPPp04Sxx9uTuvNBJcxox3RF51D14Hc7L9WxBi37S7iui2pRWYfutSxfqB66JcFObjhno-mQUJoNgHdLB5L92T7AiDBcDhomju0oM7uvsed3D3d-YXxEl-DakNL4cxCKwk3HHnB-iF39-spwaobLWWdsusyMC0ZkxkfHLATelid3bUdKZIB_oJ45AAYL9bKqGC8KJpJ_bg92N58eemp50dqMnGcCUH9BmKUekVmdX2_pxAcqiD45L0vgLcKZTQq66Fyhmo3Mur4QQYho3Fs-J3Nsm98uVmXm4aWKfGeu3T6fmaPi5PeoYaEc_SrMx-D2mZCZZB9-ImJJ_44L-HUd7SIrgNYUeL_0jf4ze24VKysb0BbciIpZOTD5LY25Llclq3Z_oKvaW2VWnRTpPoQcE7api-HZ3RlXnLnSu3DMAqhGvgyU9G9GURwdLLAuNEa4HNlE519HQBP7yTypeMfi_2LPaXCcniNFYNJnIUcFdJOIe1A3X5t3fzMesOtT3deU2y2smNxhEfPx-0QQhJwO_Jso-wxRHjXIXKyJbQOL7wK6oZroIMSKRbBKJSHSk8wPkFG-h1QW9MPSIM6W8fU3pZhWzK7rZ6le8OjCmQ13F7PBKJkO4SWn5nCNch7j73gaJSKaHJcwSAj8Ks9XTU_2-Srl]--></g></svg>