<?xml version="1.0" encoding="us-ascii" standalone="no"?><svg xmlns="http://www.w3.org/2000/svg" xmlns:xlink="http://www.w3.org/1999/xlink" contentStyleType="text/css" height="606px" preserveAspectRatio="none" style="width:882px;height:606px;background:#FFFFFF;" version="1.1" viewBox="0 0 882 606" width="882px" zoomAndPan="magnify"><defs/><g><text fill="#000000" font-family="sans-serif" font-size="12" font-weight="bold" lengthAdjust="spacing" textLength="140" x="6" y="18.9492">Douarnenez - 25/11/2024</text><line style="stroke:#AAAAAA;stroke-width:1.0;" x1="6" x2="875" y1="27.4609" y2="27.4609"/><text fill="#000000" font-family="sans-serif" font-size="12" font-weight="bold" lengthAdjust="spacing" textLength="39" x="8" y="44.9102">D&#233;tails</text><line style="stroke:#000000;stroke-width:1.0;" x1="6" x2="6" y1="31.9609" y2="47.9219"/><line style="stroke:#000000;stroke-width:1.0;" x1="6" x2="50" y1="31.9609" y2="31.9609"/><line style="stroke:#000000;stroke-width:1.0;" x1="50" x2="50" y1="31.9609" y2="47.9219"/><line style="stroke:#000000;stroke-width:1.0;" x1="50" x2="60" y1="47.9219" y2="47.9219"/><text fill="#000000" font-family="sans-serif" font-size="12" lengthAdjust="spacing" textLength="96" x="62" y="44.9102">Echantillonnages</text><line style="stroke:#000000;stroke-width:1.0;" x1="60" x2="60" y1="31.9609" y2="47.9219"/><line style="stroke:#000000;stroke-width:1.0;" x1="60" x2="161" y1="31.9609" y2="31.9609"/><line style="stroke:#000000;stroke-width:1.0;" x1="161" x2="161" y1="31.9609" y2="47.9219"/><line style="stroke:#000000;stroke-width:1.0;" x1="161" x2="171" y1="47.9219" y2="47.9219"/><text fill="#000000" font-family="sans-serif" font-size="12" lengthAdjust="spacing" textLength="142" x="173" y="44.9102">&lt;Autres esp&#232;ces&gt; (PETS)</text><line style="stroke:#000000;stroke-width:1.0;" x1="171" x2="171" y1="31.9609" y2="47.9219"/><line style="stroke:#000000;stroke-width:1.0;" x1="171" x2="318" y1="31.9609" y2="31.9609"/><line style="stroke:#000000;stroke-width:1.0;" x1="318" x2="318" y1="31.9609" y2="47.9219"/><line style="stroke:#000000;stroke-width:1.0;" x1="318" x2="328" y1="47.9219" y2="47.9219"/><line style="stroke:#AAAAAA;stroke-width:1.0;stroke-dasharray:1.0,2.0;" x1="6" x2="875" y1="53.4219" y2="53.4219"/><text fill="#000000" font-family="sans-serif" font-size="12" lengthAdjust="spacing" textLength="139" x="8" y="90.832">Programme de collecte* :</text><rect fill="#EEEEEE" height="18.9609" style="stroke:#000000;stroke-width:1.0;" width="239" x="150" y="78.8828"/><text fill="#000000" font-family="sans-serif" font-size="12" lengthAdjust="spacing" textLength="88" x="152" y="93.832">SIH-OBSVENTE</text><line style="stroke:#000000;stroke-width:1.0;" x1="378" x2="378" y1="78.8828" y2="97.8438"/><polygon fill="#000000" points="381,84.8828,387,84.8828,384,92.8438" style="stroke:#000000;stroke-width:1.0;"/><text fill="#000000" font-family="sans-serif" font-size="12" lengthAdjust="spacing" textLength="136" x="8" y="150.7148">Plan d'&#233;chantillonnage* :</text><rect fill="#EEEEEE" height="18.9609" style="stroke:#000000;stroke-width:1.0;" width="239" x="150" y="138.7656"/><text fill="#000000" font-family="sans-serif" font-size="12" lengthAdjust="spacing" textLength="186" x="152" y="153.7148">2021_V0010 - DPMA_20_23_Lot2</text><line style="stroke:#000000;stroke-width:1.0;" x1="378" x2="378" y1="138.7656" y2="157.7266"/><polygon fill="#000000" points="381,144.7656,387,144.7656,384,152.7266" style="stroke:#000000;stroke-width:1.0;"/><text fill="#000000" font-family="sans-serif" font-size="12" lengthAdjust="spacing" textLength="51" x="8" y="192.6367">Origine* :</text><rect fill="#EEEEEE" height="18.9609" style="stroke:#000000;stroke-width:1.0;" width="239" x="150" y="180.6875"/><text fill="#000000" font-family="sans-serif" font-size="12" lengthAdjust="spacing" textLength="88" x="152" y="195.6367">SIH-OBSVENTE</text><line style="stroke:#000000;stroke-width:1.0;" x1="378" x2="378" y1="180.6875" y2="199.6484"/><polygon fill="#000000" points="381,186.6875,387,186.6875,384,194.6484" style="stroke:#000000;stroke-width:1.0;"/><text fill="#000000" font-family="sans-serif" font-size="12" lengthAdjust="spacing" textLength="38" x="8" y="234.5586">Lieu * :</text><rect fill="#EEEEEE" height="18.9609" style="stroke:#000000;stroke-width:1.0;" width="239" x="150" y="222.6094"/><text fill="#000000" font-family="sans-serif" font-size="12" lengthAdjust="spacing" textLength="100" x="152" y="237.5586">XDZ - Douarnenez</text><line style="stroke:#000000;stroke-width:1.0;" x1="378" x2="378" y1="222.6094" y2="241.5703"/><polygon fill="#000000" points="381,228.6094,387,228.6094,384,236.5703" style="stroke:#000000;stroke-width:1.0;"/><text fill="#000000" font-family="sans-serif" font-size="12" lengthAdjust="spacing" textLength="64" x="8" y="276.4805">D&#233;but/Fin* :</text><rect fill="#EEEEEE" height="18.9609" style="stroke:#000000;stroke-width:1.0;" width="95" x="150" y="264.5313"/><text fill="#000000" font-family="sans-serif" font-size="12" lengthAdjust="spacing" textLength="62" x="152" y="279.4805">jj/mm/aaaa</text><line style="stroke:#000000;stroke-width:1.0;" x1="234" x2="234" y1="264.5313" y2="283.4922"/><polygon fill="#000000" points="237,270.5313,243,270.5313,240,278.4922" style="stroke:#000000;stroke-width:1.0;"/><rect fill="#EEEEEE" height="18.9609" style="stroke:#000000;stroke-width:1.0;" width="55" x="248" y="264.5313"/><text fill="#000000" font-family="sans-serif" font-size="12" lengthAdjust="spacing" textLength="39" x="250" y="279.4805">hh:mm</text><line style="stroke:#000000;stroke-width:1.0;" x1="292" x2="292" y1="264.5313" y2="283.4922"/><polygon fill="#000000" points="295,270.5313,301,270.5313,298,278.4922" style="stroke:#000000;stroke-width:1.0;"/><rect fill="#EEEEEE" height="18.9609" style="stroke:#000000;stroke-width:1.0;" width="95" x="394" y="264.5313"/><text fill="#000000" font-family="sans-serif" font-size="12" lengthAdjust="spacing" textLength="62" x="396" y="279.4805">jj/mm/aaaa</text><line style="stroke:#000000;stroke-width:1.0;" x1="478" x2="478" y1="264.5313" y2="283.4922"/><polygon fill="#000000" points="481,270.5313,487,270.5313,484,278.4922" style="stroke:#000000;stroke-width:1.0;"/><rect fill="#EEEEEE" height="18.9609" style="stroke:#000000;stroke-width:1.0;" width="55" x="492" y="264.5313"/><text fill="#000000" font-family="sans-serif" font-size="12" lengthAdjust="spacing" textLength="39" x="494" y="279.4805">hh:mm</text><line style="stroke:#000000;stroke-width:1.0;" x1="536" x2="536" y1="264.5313" y2="283.4922"/><polygon fill="#000000" points="539,270.5313,545,270.5313,542,278.4922" style="stroke:#000000;stroke-width:1.0;"/><text fill="#0000FF" font-family="sans-serif" font-size="12" font-style="italic" lengthAdjust="spacing" textLength="95" x="551" y="276.4805">dur&#233;e de la sortie</text><text fill="#000000" font-family="sans-serif" font-size="12" lengthAdjust="spacing" textLength="85" x="8" y="318.4023">Observateurs* :</text><rect fill="#EEEEEE" height="18.9609" style="stroke:#000000;stroke-width:1.0;" width="239" x="149" y="305.4531"/><text fill="#000000" font-family="sans-serif" font-size="12" lengthAdjust="spacing" textLength="84" x="151" y="320.4023">Observateur #1</text><line style="stroke:#000000;stroke-width:1.0;" x1="377" x2="377" y1="305.4531" y2="324.4141"/><polygon fill="#000000" points="380,311.4531,386,311.4531,383,319.4141" style="stroke:#000000;stroke-width:1.0;"/><rect fill="#EEEEEE" height="12" rx="5" ry="5" style="stroke:#000000;stroke-width:2.5;" width="20" x="396.5" y="308.9531"/><path d="M405.5,310.9531 L405.5,313.9531 L402.5,313.9531 L402.5,315.9531 L405.5,315.9531 L405.5,318.9531 L407.5,318.9531 L407.5,315.9531 L410.5,315.9531 L410.5,313.9531 L407.5,313.9531 L407.5,310.9531 L405.5,310.9531 " fill="#000000" style="stroke:;stroke-width:0.0;stroke-dasharray:;"/><rect fill="#EEEEEE" height="12" rx="5" ry="5" style="stroke:#000000;stroke-width:2.5;" width="20" x="423.5" y="308.9531"/><path d="M430.91,310.9531 L429.5,312.3631 L430.22,313.0831 L432,314.8931 L430.22,316.6731 L429.5,317.3631 L430.91,318.8031 L431.63,318.0831 L433.44,316.2731 L435.22,318.0831 L435.91,318.8031 L437.35,317.3631 L436.63,316.6731 L434.82,314.8931 L436.63,313.0831 L437.35,312.3631 L435.91,310.9531 L435.22,311.6731 L433.44,313.4531 L431.63,311.6731 L430.91,310.9531 " fill="#000000" style="stroke:;stroke-width:0.0;stroke-dasharray:;"/><text fill="#000000" font-family="sans-serif" font-size="12" lengthAdjust="spacing" textLength="207" x="651" y="107.793">ObsVentes d&#233;marrage au 01/01/2024</text><path d="M866.03,99.8047 C863.5,99.8047 862,102.8047 862,102.8047 C862,102.8047 863.5,105.8047 866.03,105.8047 C868.5,105.8047 870,102.8047 870,102.8047 C870,102.8047 868.5,99.8047 866.03,99.8047 M866,100.8047 C867.11,100.8047 868,101.7047 868,102.8047 C868,103.9147 867.11,104.8047 866,104.8047 C864.9,104.8047 864,103.9147 864,102.8047 C864,101.7047 864.9,100.8047 866,100.8047 M866,101.8047 C865.45,101.8047 865,102.2547 865,102.8047 C865,103.3547 865.45,103.8047 866,103.8047 C866.55,103.8047 867,103.3547 867,102.8047 C867,102.7047 866.96,102.6147 866.94,102.5247 C866.86,102.6847 866.7,102.8047 866.5,102.8047 C866.22,102.8047 866,102.5847 866,102.3047 C866,102.1047 866.12,101.9447 866.28,101.8647 C866.19,101.8347 866.1,101.8047 866,101.8047 " fill="#000000" style="stroke:;stroke-width:0.0;stroke-dasharray:;"/><line style="stroke:#000000;stroke-width:1.0;" x1="650" x2="872" y1="85.8633" y2="85.8633"/><line style="stroke:#000000;stroke-width:1.0;" x1="650" x2="872" y1="111.8047" y2="111.8047"/><line style="stroke:#000000;stroke-width:1.0;" x1="650" x2="650" y1="85.8633" y2="111.8047"/><line style="stroke:#000000;stroke-width:1.0;" x1="872" x2="872" y1="85.8633" y2="111.8047"/><rect fill="#FFFFFF" height="15.9609" style="stroke:#FFFFFF;stroke-width:1.0;" width="49" x="656" y="77.8828"/><text fill="#000000" font-family="sans-serif" font-size="12" lengthAdjust="spacing" textLength="49" x="656" y="90.832">Strat&#233;gie</text><text fill="#808080" font-family="sans-serif" font-size="10" lengthAdjust="spacing" textLength="46" x="652" y="142.5566">Saisisseur</text><text fill="#000000" font-family="sans-serif" font-size="12" lengthAdjust="spacing" textLength="30" x="652" y="160.0156">Obs1</text><text fill="#808080" font-family="sans-serif" font-size="10" lengthAdjust="spacing" textLength="48" x="652" y="175.8184">Groupe EI</text><line style="stroke:#AAAAAA;stroke-width:1.0;" x1="652" x2="821.6667" y1="183.8281" y2="183.8281"/><path d="M653,192.4622 L653,194.1289 L658.8333,194.1289 L658.8333,192.4622 L653,192.4622 M653,194.9622 L653,199.0539 C653,199.0956 653.0333,199.1289 653.075,199.1289 L658.75,199.1289 C658.7917,199.1289 658.825,199.0956 658.825,199.0539 L658.825,194.9622 L652.9917,194.9622 M653.8333,195.7956 L654.6667,195.7956 L654.6667,196.6289 L653.8333,196.6289 L653.8333,195.7956 M655.5,195.7956 L656.3333,195.7956 L656.3333,196.6289 L655.5,196.6289 L655.5,195.7956 M657.1667,195.7956 L658,195.7956 L658,196.6289 L657.1667,196.6289 L657.1667,195.7956 M653.8333,197.4622 L654.6667,197.4622 L654.6667,198.2956 L653.8333,198.2956 L653.8333,197.4622 M655.5,197.4622 L656.3333,197.4622 L656.3333,198.2956 L655.5,198.2956 L655.5,197.4622 " fill="#808080" style="stroke:;stroke-width:0.0;stroke-dasharray:;"/><text fill="#808080" font-family="sans-serif" font-size="10" lengthAdjust="spacing" textLength="136" x="660.6667" y="199.1191">Cr&#233;&#233; le 20/03/2023 17:08:31</text><path d="M656.3333,207.763 C654.5,207.763 653,209.263 653,211.0964 C653,212.9297 654.5,214.4297 656.3333,214.4297 C658.1667,214.4297 659.6667,212.9297 659.6667,211.0964 C659.6667,209.263 658.1667,207.763 656.3333,207.763 M656.3333,208.5964 C657.7167,208.5964 658.8333,209.713 658.8333,211.0964 C658.8333,212.4797 657.7167,213.5964 656.3333,213.5964 C654.95,213.5964 653.8333,212.4797 653.8333,211.0964 C653.8333,209.713 654.95,208.5964 656.3333,208.5964 M655.9167,209.4297 L655.9167,211.2797 L656.05,211.388 L656.4667,211.8047 L656.75,212.1214 L657.35,211.5214 L657.0333,211.238 L656.75,210.9547 L656.75,209.4464 L655.9167,209.4464 " fill="#808080" style="stroke:;stroke-width:0.0;stroke-dasharray:;"/><text fill="#808080" font-family="sans-serif" font-size="10" lengthAdjust="spacing" textLength="160" x="660.6667" y="214.4199">Mis &#224; jour le 20/03/2023 17:08:31</text><text fill="#808080" font-family="sans-serif" font-size="10" lengthAdjust="spacing" textLength="56" x="652" y="247.6816">Mode saisie</text><text fill="#808080" font-family="sans-serif" font-size="10" font-weight="bold" lengthAdjust="spacing" textLength="34" x="711" y="247.6816">bureau</text><rect fill="#EEEEEE" height="19.9609" rx="5" ry="5" style="stroke:#000000;stroke-width:2.5;" width="156" x="654.5" y="272.6523"/><text fill="#000000" font-family="sans-serif" font-size="12" lengthAdjust="spacing" textLength="100" x="682.5" y="287.6016">Terminer la saisie</text><line style="stroke:#000000;stroke-width:1.0;" x1="650" x2="822.6667" y1="129.7656" y2="129.7656"/><line style="stroke:#000000;stroke-width:1.0;" x1="650" x2="822.6667" y1="297.1133" y2="297.1133"/><line style="stroke:#000000;stroke-width:1.0;" x1="650" x2="650" y1="129.7656" y2="297.1133"/><line style="stroke:#000000;stroke-width:1.0;" x1="822.6667" x2="822.6667" y1="129.7656" y2="297.1133"/><text fill="#000000" font-family="sans-serif" font-size="12" font-weight="bold" lengthAdjust="spacing" textLength="101" x="6" y="360.3242">Caract&#233;ristiques :</text><text fill="#000000" font-family="sans-serif" font-size="12" lengthAdjust="spacing" textLength="205" x="12" y="379.2852">Disponibilit&#233; de la fiche de pr&#233;-vente :</text><rect fill="#EEEEEE" height="18.9609" style="stroke:#000000;stroke-width:1.0;" width="39" x="219" y="366.3359"/><text fill="#000000" font-family="sans-serif" font-size="12" lengthAdjust="spacing" textLength="19" x="221" y="381.2852">Oui</text><line style="stroke:#000000;stroke-width:1.0;" x1="247" x2="247" y1="366.3359" y2="385.2969"/><polygon fill="#000000" points="250,372.3359,256,372.3359,253,380.2969" style="stroke:#000000;stroke-width:1.0;"/><text fill="#000000" font-family="sans-serif" font-size="12" lengthAdjust="spacing" textLength="155" x="12" y="401.2461">Strat&#233;gie d'&#233;chantillonnage :</text><rect fill="#EEEEEE" height="18.9609" style="stroke:#000000;stroke-width:1.0;" width="503" x="219" y="388.2969"/><text fill="#000000" font-family="sans-serif" font-size="12" lengthAdjust="spacing" textLength="359" x="221" y="403.2461">Simultan&#233; : Toutes esp&#232;ces commerciales - Simultan&#233; - Complet</text><line style="stroke:#000000;stroke-width:1.0;" x1="711" x2="711" y1="388.2969" y2="407.2578"/><polygon fill="#000000" points="714,394.2969,720,394.2969,717,402.2578" style="stroke:#000000;stroke-width:1.0;"/><text fill="#000000" font-family="sans-serif" font-size="12" lengthAdjust="spacing" textLength="52" x="12" y="423.207">PETS ?* :</text><rect fill="#EEEEEE" height="18.9609" style="stroke:#000000;stroke-width:1.0;" width="39" x="219" y="410.2578"/><text fill="#000000" font-family="sans-serif" font-size="12" lengthAdjust="spacing" textLength="19" x="221" y="425.207">Oui</text><line style="stroke:#000000;stroke-width:1.0;" x1="247" x2="247" y1="410.2578" y2="429.2188"/><polygon fill="#000000" points="250,416.2578,256,416.2578,253,424.2188" style="stroke:#000000;stroke-width:1.0;"/><text fill="#000000" font-family="sans-serif" font-size="12" lengthAdjust="spacing" textLength="86" x="12" y="445.168">Type de vente* :</text><rect fill="#EEEEEE" height="18.9609" style="stroke:#000000;stroke-width:1.0;" width="239" x="219" y="432.2188"/><text fill="#000000" font-family="sans-serif" font-size="12" lengthAdjust="spacing" textLength="134" x="221" y="447.168">Ench&#232;res - HAM / Cri&#233;es</text><line style="stroke:#000000;stroke-width:1.0;" x1="447" x2="447" y1="432.2188" y2="451.1797"/><polygon fill="#000000" points="450,438.2188,456,438.2188,453,446.1797" style="stroke:#000000;stroke-width:1.0;"/><text fill="#000000" font-family="sans-serif" font-size="12" lengthAdjust="spacing" textLength="133" x="12" y="467.1289">Validation observateur* :</text><rect fill="#EEEEEE" height="18.9609" style="stroke:#000000;stroke-width:1.0;" width="159" x="219" y="454.1797"/><text fill="#000000" font-family="sans-serif" font-size="12" lengthAdjust="spacing" textLength="112" x="221" y="469.1289">Donn&#233;es contr&#244;l&#233;es</text><line style="stroke:#000000;stroke-width:1.0;" x1="367" x2="367" y1="454.1797" y2="473.1406"/><polygon fill="#000000" points="370,460.1797,376,460.1797,373,468.1406" style="stroke:#000000;stroke-width:1.0;"/><text fill="#000000" font-family="sans-serif" font-size="12" lengthAdjust="spacing" textLength="108" x="12" y="489.0898">Validation soci&#233;t&#233;* :</text><rect fill="#EEEEEE" height="18.9609" style="stroke:#000000;stroke-width:1.0;" width="159" x="219" y="476.1406"/><text fill="#000000" font-family="sans-serif" font-size="12" lengthAdjust="spacing" textLength="93" x="221" y="491.0898">Donn&#233;es valides</text><line style="stroke:#000000;stroke-width:1.0;" x1="367" x2="367" y1="476.1406" y2="495.1016"/><polygon fill="#000000" points="370,482.1406,376,482.1406,373,490.1016" style="stroke:#000000;stroke-width:1.0;"/><text fill="#000000" font-family="sans-serif" font-size="12" font-weight="bold" lengthAdjust="spacing" textLength="90" x="7" y="531.0117">Commentaires :</text><text fill="#000000" font-family="sans-serif" font-size="12" lengthAdjust="spacing" textLength="3" x="11" y="567.9336">&#160;</text><line style="stroke:#000000;stroke-width:1.0;" x1="9" x2="732" y1="570.9453" y2="570.9453"/><line style="stroke:#000000;stroke-width:1.0;" x1="9" x2="9" y1="567.9453" y2="569.9453"/><line style="stroke:#000000;stroke-width:1.0;" x1="732" x2="732" y1="567.9453" y2="569.9453"/><line style="stroke:#000000;stroke-width:1.0;" x1="7" x2="735" y1="536.0234" y2="536.0234"/><line style="stroke:#000000;stroke-width:1.0;" x1="7" x2="735" y1="573.9453" y2="573.9453"/><line style="stroke:#000000;stroke-width:1.0;" x1="7" x2="7" y1="536.0234" y2="553.9844"/><line style="stroke:#000000;stroke-width:1.0;" x1="735" x2="735" y1="553.9844" y2="573.9453"/><line style="stroke:#000000;stroke-width:1.0;" x1="735" x2="735" y1="536.0234" y2="553.9844"/><line style="stroke:#000000;stroke-width:1.0;" x1="7" x2="7" y1="553.9844" y2="573.9453"/><rect fill="#EEEEEE" height="19.9609" rx="5" ry="5" style="stroke:#000000;stroke-width:2.5;" width="52" x="9.5" y="580.4453"/><text fill="#000000" font-family="sans-serif" font-size="12" lengthAdjust="spacing" textLength="40" x="15.5" y="595.3945">Fermer</text><rect fill="#EEEEEE" height="19.9609" rx="5" ry="5" style="stroke:#000000;stroke-width:2.5;" width="92" x="68.5" y="580.4453"/><text fill="#000000" font-family="sans-serif" font-size="12" lengthAdjust="spacing" textLength="70" x="79.5" y="595.3945">Sauvegarder</text><!--SRC=[jLLjRzis4FwkNt78W2nfOUl5pRe9hjRKTjfczcBKdZ4ig0DQPcnc5AdnnLZg-B_iO_rz_q1_R4VPGLHXxJ8C8s1P9EzvUBnxxlHI6wAC9jnuQm-WFKkwqX8bgA0Ve07HYH-6VXH4pt2pqS37sY-DYgqXZ6kuWrww9C8mpgKGP47TKllK6eLlLEV5nvJg18w6lV7eU8FuPjCz7D7-vyPGoOKYMKPXJY6LdDFKq2SGkxqxMCDqzFPDu-BLQDBxSTo3sfZ2Pa_JhFqFEH4m_xhOVkfYbHYl5bvDWY0CyBRTuU3qAWgkejPLNvfeMkUzK6p1n7zmhC-eXJryX_-v-uix-27cNyHZs6VM-6TCV49oS-DdcKzmJDqAJ9VBECiG_kNDDalQ66ofuXctD9bRLMpB3702MYh3QFt-CqtLYXXgbRvtO3_kqDlADdmLraBX7Bri7-RSwkGzpl3zTtoft703TvvJn7fwC3AAc6AxOFJ0SxGJAWpgQLviCw8KfX28XI3qWvqseNr8Rsc2NEkdNYq9QsXVIs6WlEYBXQAteDa7-Y8CaX5XcccDxjP1U6HON_iipMibRKwXzxQEAElbSHpjmvHmAkP49HtCGh45JY4A_A3bBjY2y7aSV1ktmdz3o6NwQp9W6ee_u4PYJXv7sNpq6GE9Mj4kYDJrX9bLbDX_fBk4CLKPbf4gTLR2tzUDC9MRpSRRTQGEKIH5EIYc3VlDeX1Yhz8ycgYcBjEv56p6E4F3lOQlMReizPnZI1ihfo68KQWNbaqhs0Un_KslG9KZOiGoomqHI1t3M5fJQMuO6MnSAcMOG8srNB5jG4TcEQUcUfphXF3zanrnpPNnRLuwNFgwD-c9T5byL2NtczC1-D1H30jLxmghWfuGpkR4C2b0FfJYdgQBzobHAMPJ5NzoD_aCMiiKJy2OrB4hPrEUN4Mw56yg6N4fSp4H-8bGPRPsbVYq8eO3-D_6WNSleRrNS7c6YgEgR3iZObTqGTJSpJVUndk9PLT-_pptkJ0_3VeOVgLT7CAcgvHcs3eQuAnBKmX32B-Beo0-UGwTtXZS_h5tz7hOnw1PbMBsKAIAOPT6WcFldAm8lBCeg8p6S95JSTxzuNu1UcB5b1GkKjxvPF1WyCspnYjcO8Gvn3AP3BmklIQeAaIaSix48ePE7aOdaTSdOc5Hfp5SAwyZaLZTnd3sxYy0]--></g></svg>