<?xml version="1.0" encoding="us-ascii" standalone="no"?><svg xmlns="http://www.w3.org/2000/svg" xmlns:xlink="http://www.w3.org/1999/xlink" contentStyleType="text/css" height="115px" preserveAspectRatio="none" style="width:863px;height:115px;background:#FFFFFF;" version="1.1" viewBox="0 0 863 115" width="863px" zoomAndPan="magnify"><defs/><g><text fill="#000000" font-family="sans-serif" font-size="12" font-weight="bold" lengthAdjust="spacing" textLength="52" x="239" y="19.457">Strat&#233;gie</text><text fill="#000000" font-family="sans-serif" font-size="12" font-weight="bold" lengthAdjust="spacing" textLength="34" x="519" y="19.457">Sortie</text><text fill="#000000" font-family="sans-serif" font-size="12" font-weight="bold" lengthAdjust="spacing" textLength="60" x="174" y="36.5508">Connexion</text><text fill="#000000" font-family="sans-serif" font-size="12" font-weight="bold" lengthAdjust="spacing" textLength="71" x="239" y="36.5508">Consultation</text><text fill="#000000" font-family="sans-serif" font-size="12" font-weight="bold" lengthAdjust="spacing" textLength="48" x="315" y="36.5508">Cr&#233;ation</text><text fill="#000000" font-family="sans-serif" font-size="12" font-weight="bold" lengthAdjust="spacing" textLength="69" x="368" y="36.5508">Modification</text><text fill="#000000" font-family="sans-serif" font-size="12" font-weight="bold" lengthAdjust="spacing" textLength="72" x="442" y="36.5508">Suppression</text><text fill="#000000" font-family="sans-serif" font-size="12" font-weight="bold" lengthAdjust="spacing" textLength="71" x="519" y="36.5508">Consultation</text><text fill="#000000" font-family="sans-serif" font-size="12" font-weight="bold" lengthAdjust="spacing" textLength="48" x="595" y="36.5508">Cr&#233;ation</text><text fill="#000000" font-family="sans-serif" font-size="12" font-weight="bold" lengthAdjust="spacing" textLength="69" x="648" y="36.5508">Modification</text><text fill="#000000" font-family="sans-serif" font-size="12" font-weight="bold" lengthAdjust="spacing" textLength="72" x="722" y="36.5508">Suppression</text><text fill="#000000" font-family="sans-serif" font-size="12" font-weight="bold" lengthAdjust="spacing" textLength="56" x="799" y="36.5508">Validation</text><text fill="#000000" font-family="sans-serif" font-size="12" lengthAdjust="spacing" textLength="162" x="7" y="53.6445">Administrateur de r&#233;f&#233;rentiels</text><text fill="#000000" font-family="sans-serif" font-size="12" lengthAdjust="spacing" textLength="19" x="171" y="53.6445">Oui</text><text fill="#000000" font-family="sans-serif" font-size="12" lengthAdjust="spacing" textLength="19" x="236" y="53.6445">Oui</text><text fill="#000000" font-family="sans-serif" font-size="12" lengthAdjust="spacing" textLength="19" x="312" y="53.6445">Oui</text><text fill="#000000" font-family="sans-serif" font-size="12" lengthAdjust="spacing" textLength="19" x="365" y="53.6445">Oui</text><text fill="#000000" font-family="sans-serif" font-size="12" lengthAdjust="spacing" textLength="19" x="439" y="53.6445">Oui</text><text fill="#000000" font-family="sans-serif" font-size="12" lengthAdjust="spacing" textLength="19" x="516" y="53.6445">Oui</text><text fill="#000000" font-family="sans-serif" font-size="12" lengthAdjust="spacing" textLength="19" x="592" y="53.6445">Oui</text><text fill="#000000" font-family="sans-serif" font-size="12" lengthAdjust="spacing" textLength="34" x="645" y="53.6445">Oui(2)</text><text fill="#000000" font-family="sans-serif" font-size="12" lengthAdjust="spacing" textLength="34" x="719" y="53.6445">Oui(2)</text><text fill="#000000" font-family="sans-serif" font-size="12" lengthAdjust="spacing" textLength="23" x="796" y="53.6445">Non</text><text fill="#000000" font-family="sans-serif" font-size="12" lengthAdjust="spacing" textLength="160" x="7" y="70.7383">Responsable de programme</text><text fill="#000000" font-family="sans-serif" font-size="12" lengthAdjust="spacing" textLength="19" x="171" y="70.7383">Oui</text><text fill="#000000" font-family="sans-serif" font-size="12" lengthAdjust="spacing" textLength="19" x="236" y="70.7383">Oui</text><text fill="#000000" font-family="sans-serif" font-size="12" lengthAdjust="spacing" textLength="19" x="312" y="70.7383">Oui</text><text fill="#000000" font-family="sans-serif" font-size="12" lengthAdjust="spacing" textLength="19" x="365" y="70.7383">Oui</text><text fill="#000000" font-family="sans-serif" font-size="12" lengthAdjust="spacing" textLength="19" x="439" y="70.7383">Oui</text><text fill="#000000" font-family="sans-serif" font-size="12" lengthAdjust="spacing" textLength="19" x="516" y="70.7383">Oui</text><text fill="#000000" font-family="sans-serif" font-size="12" lengthAdjust="spacing" textLength="19" x="592" y="70.7383">Oui</text><text fill="#000000" font-family="sans-serif" font-size="12" lengthAdjust="spacing" textLength="34" x="645" y="70.7383">Oui(2)</text><text fill="#000000" font-family="sans-serif" font-size="12" lengthAdjust="spacing" textLength="34" x="719" y="70.7383">Oui(2)</text><text fill="#000000" font-family="sans-serif" font-size="12" lengthAdjust="spacing" textLength="19" x="796" y="70.7383">Oui</text><text fill="#000000" font-family="sans-serif" font-size="12" lengthAdjust="spacing" textLength="72" x="7" y="87.832">Coordinateur</text><text fill="#000000" font-family="sans-serif" font-size="12" lengthAdjust="spacing" textLength="19" x="171" y="87.832">Oui</text><text fill="#000000" font-family="sans-serif" font-size="12" lengthAdjust="spacing" textLength="23" x="236" y="87.832">Non</text><text fill="#000000" font-family="sans-serif" font-size="12" lengthAdjust="spacing" textLength="23" x="312" y="87.832">Non</text><text fill="#000000" font-family="sans-serif" font-size="12" lengthAdjust="spacing" textLength="23" x="365" y="87.832">Non</text><text fill="#000000" font-family="sans-serif" font-size="12" lengthAdjust="spacing" textLength="23" x="439" y="87.832">Non</text><text fill="#000000" font-family="sans-serif" font-size="12" lengthAdjust="spacing" textLength="34" x="516" y="87.832">Oui(1)</text><text fill="#000000" font-family="sans-serif" font-size="12" lengthAdjust="spacing" textLength="19" x="592" y="87.832">Oui</text><text fill="#000000" font-family="sans-serif" font-size="12" lengthAdjust="spacing" textLength="49" x="645" y="87.832">Oui(1)(2)</text><text fill="#000000" font-family="sans-serif" font-size="12" lengthAdjust="spacing" textLength="49" x="719" y="87.832">Oui(1)(2)</text><text fill="#000000" font-family="sans-serif" font-size="12" lengthAdjust="spacing" textLength="19" x="796" y="87.832">Oui</text><text fill="#000000" font-family="sans-serif" font-size="12" lengthAdjust="spacing" textLength="67" x="7" y="104.9258">Observateur</text><text fill="#000000" font-family="sans-serif" font-size="12" lengthAdjust="spacing" textLength="19" x="171" y="104.9258">Oui</text><text fill="#000000" font-family="sans-serif" font-size="12" lengthAdjust="spacing" textLength="23" x="236" y="104.9258">Non</text><text fill="#000000" font-family="sans-serif" font-size="12" lengthAdjust="spacing" textLength="23" x="312" y="104.9258">Non</text><text fill="#000000" font-family="sans-serif" font-size="12" lengthAdjust="spacing" textLength="23" x="365" y="104.9258">Non</text><text fill="#000000" font-family="sans-serif" font-size="12" lengthAdjust="spacing" textLength="23" x="439" y="104.9258">Non</text><text fill="#000000" font-family="sans-serif" font-size="12" lengthAdjust="spacing" textLength="34" x="516" y="104.9258">Oui(1)</text><text fill="#000000" font-family="sans-serif" font-size="12" lengthAdjust="spacing" textLength="19" x="592" y="104.9258">Oui</text><text fill="#000000" font-family="sans-serif" font-size="12" lengthAdjust="spacing" textLength="49" x="645" y="104.9258">Oui(1)(2)</text><text fill="#000000" font-family="sans-serif" font-size="12" lengthAdjust="spacing" textLength="49" x="719" y="104.9258">Oui(1)(2)</text><text fill="#000000" font-family="sans-serif" font-size="12" lengthAdjust="spacing" textLength="23" x="796" y="104.9258">Non</text><line style="stroke:#000000;stroke-width:1.0;" x1="6" x2="170" y1="6" y2="6"/><line style="stroke:#000000;stroke-width:1.0;" x1="170" x2="235" y1="6" y2="6"/><line style="stroke:#000000;stroke-width:1.0;" x1="235" x2="311" y1="6" y2="6"/><line style="stroke:#000000;stroke-width:1.0;" x1="311" x2="364" y1="6" y2="6"/><line style="stroke:#000000;stroke-width:1.0;" x1="364" x2="438" y1="6" y2="6"/><line style="stroke:#000000;stroke-width:1.0;" x1="438" x2="515" y1="6" y2="6"/><line style="stroke:#000000;stroke-width:1.0;" x1="515" x2="591" y1="6" y2="6"/><line style="stroke:#000000;stroke-width:1.0;" x1="591" x2="644" y1="6" y2="6"/><line style="stroke:#000000;stroke-width:1.0;" x1="644" x2="718" y1="6" y2="6"/><line style="stroke:#000000;stroke-width:1.0;" x1="718" x2="795" y1="6" y2="6"/><line style="stroke:#000000;stroke-width:1.0;" x1="795" x2="856" y1="6" y2="6"/><line style="stroke:#000000;stroke-width:1.0;" x1="6" x2="170" y1="57.2813" y2="57.2813"/><line style="stroke:#000000;stroke-width:1.0;" x1="170" x2="235" y1="57.2813" y2="57.2813"/><line style="stroke:#000000;stroke-width:1.0;" x1="235" x2="311" y1="57.2813" y2="57.2813"/><line style="stroke:#000000;stroke-width:1.0;" x1="311" x2="364" y1="57.2813" y2="57.2813"/><line style="stroke:#000000;stroke-width:1.0;" x1="364" x2="438" y1="57.2813" y2="57.2813"/><line style="stroke:#000000;stroke-width:1.0;" x1="438" x2="515" y1="57.2813" y2="57.2813"/><line style="stroke:#000000;stroke-width:1.0;" x1="515" x2="591" y1="57.2813" y2="57.2813"/><line style="stroke:#000000;stroke-width:1.0;" x1="591" x2="644" y1="57.2813" y2="57.2813"/><line style="stroke:#000000;stroke-width:1.0;" x1="644" x2="718" y1="57.2813" y2="57.2813"/><line style="stroke:#000000;stroke-width:1.0;" x1="718" x2="795" y1="57.2813" y2="57.2813"/><line style="stroke:#000000;stroke-width:1.0;" x1="795" x2="856" y1="57.2813" y2="57.2813"/><line style="stroke:#000000;stroke-width:1.0;" x1="6" x2="170" y1="108.5625" y2="108.5625"/><line style="stroke:#000000;stroke-width:1.0;" x1="170" x2="235" y1="108.5625" y2="108.5625"/><line style="stroke:#000000;stroke-width:1.0;" x1="235" x2="311" y1="108.5625" y2="108.5625"/><line style="stroke:#000000;stroke-width:1.0;" x1="311" x2="364" y1="108.5625" y2="108.5625"/><line style="stroke:#000000;stroke-width:1.0;" x1="364" x2="438" y1="108.5625" y2="108.5625"/><line style="stroke:#000000;stroke-width:1.0;" x1="438" x2="515" y1="108.5625" y2="108.5625"/><line style="stroke:#000000;stroke-width:1.0;" x1="515" x2="591" y1="108.5625" y2="108.5625"/><line style="stroke:#000000;stroke-width:1.0;" x1="591" x2="644" y1="108.5625" y2="108.5625"/><line style="stroke:#000000;stroke-width:1.0;" x1="644" x2="718" y1="108.5625" y2="108.5625"/><line style="stroke:#000000;stroke-width:1.0;" x1="718" x2="795" y1="108.5625" y2="108.5625"/><line style="stroke:#000000;stroke-width:1.0;" x1="795" x2="856" y1="108.5625" y2="108.5625"/><line style="stroke:#000000;stroke-width:1.0;" x1="6" x2="170" y1="23.0938" y2="23.0938"/><line style="stroke:#000000;stroke-width:1.0;" x1="170" x2="235" y1="23.0938" y2="23.0938"/><line style="stroke:#000000;stroke-width:1.0;" x1="235" x2="311" y1="23.0938" y2="23.0938"/><line style="stroke:#000000;stroke-width:1.0;" x1="311" x2="364" y1="23.0938" y2="23.0938"/><line style="stroke:#000000;stroke-width:1.0;" x1="364" x2="438" y1="23.0938" y2="23.0938"/><line style="stroke:#000000;stroke-width:1.0;" x1="438" x2="515" y1="23.0938" y2="23.0938"/><line style="stroke:#000000;stroke-width:1.0;" x1="515" x2="591" y1="23.0938" y2="23.0938"/><line style="stroke:#000000;stroke-width:1.0;" x1="591" x2="644" y1="23.0938" y2="23.0938"/><line style="stroke:#000000;stroke-width:1.0;" x1="644" x2="718" y1="23.0938" y2="23.0938"/><line style="stroke:#000000;stroke-width:1.0;" x1="718" x2="795" y1="23.0938" y2="23.0938"/><line style="stroke:#000000;stroke-width:1.0;" x1="795" x2="856" y1="23.0938" y2="23.0938"/><line style="stroke:#000000;stroke-width:1.0;" x1="6" x2="170" y1="74.375" y2="74.375"/><line style="stroke:#000000;stroke-width:1.0;" x1="170" x2="235" y1="74.375" y2="74.375"/><line style="stroke:#000000;stroke-width:1.0;" x1="235" x2="311" y1="74.375" y2="74.375"/><line style="stroke:#000000;stroke-width:1.0;" x1="311" x2="364" y1="74.375" y2="74.375"/><line style="stroke:#000000;stroke-width:1.0;" x1="364" x2="438" y1="74.375" y2="74.375"/><line style="stroke:#000000;stroke-width:1.0;" x1="438" x2="515" y1="74.375" y2="74.375"/><line style="stroke:#000000;stroke-width:1.0;" x1="515" x2="591" y1="74.375" y2="74.375"/><line style="stroke:#000000;stroke-width:1.0;" x1="591" x2="644" y1="74.375" y2="74.375"/><line style="stroke:#000000;stroke-width:1.0;" x1="644" x2="718" y1="74.375" y2="74.375"/><line style="stroke:#000000;stroke-width:1.0;" x1="718" x2="795" y1="74.375" y2="74.375"/><line style="stroke:#000000;stroke-width:1.0;" x1="795" x2="856" y1="74.375" y2="74.375"/><line style="stroke:#000000;stroke-width:1.0;" x1="6" x2="170" y1="40.1875" y2="40.1875"/><line style="stroke:#000000;stroke-width:1.0;" x1="170" x2="235" y1="40.1875" y2="40.1875"/><line style="stroke:#000000;stroke-width:1.0;" x1="235" x2="311" y1="40.1875" y2="40.1875"/><line style="stroke:#000000;stroke-width:1.0;" x1="311" x2="364" y1="40.1875" y2="40.1875"/><line style="stroke:#000000;stroke-width:1.0;" x1="364" x2="438" y1="40.1875" y2="40.1875"/><line style="stroke:#000000;stroke-width:1.0;" x1="438" x2="515" y1="40.1875" y2="40.1875"/><line style="stroke:#000000;stroke-width:1.0;" x1="515" x2="591" y1="40.1875" y2="40.1875"/><line style="stroke:#000000;stroke-width:1.0;" x1="591" x2="644" y1="40.1875" y2="40.1875"/><line style="stroke:#000000;stroke-width:1.0;" x1="644" x2="718" y1="40.1875" y2="40.1875"/><line style="stroke:#000000;stroke-width:1.0;" x1="718" x2="795" y1="40.1875" y2="40.1875"/><line style="stroke:#000000;stroke-width:1.0;" x1="795" x2="856" y1="40.1875" y2="40.1875"/><line style="stroke:#000000;stroke-width:1.0;" x1="6" x2="170" y1="91.4688" y2="91.4688"/><line style="stroke:#000000;stroke-width:1.0;" x1="170" x2="235" y1="91.4688" y2="91.4688"/><line style="stroke:#000000;stroke-width:1.0;" x1="235" x2="311" y1="91.4688" y2="91.4688"/><line style="stroke:#000000;stroke-width:1.0;" x1="311" x2="364" y1="91.4688" y2="91.4688"/><line style="stroke:#000000;stroke-width:1.0;" x1="364" x2="438" y1="91.4688" y2="91.4688"/><line style="stroke:#000000;stroke-width:1.0;" x1="438" x2="515" y1="91.4688" y2="91.4688"/><line style="stroke:#000000;stroke-width:1.0;" x1="515" x2="591" y1="91.4688" y2="91.4688"/><line style="stroke:#000000;stroke-width:1.0;" x1="591" x2="644" y1="91.4688" y2="91.4688"/><line style="stroke:#000000;stroke-width:1.0;" x1="644" x2="718" y1="91.4688" y2="91.4688"/><line style="stroke:#000000;stroke-width:1.0;" x1="718" x2="795" y1="91.4688" y2="91.4688"/><line style="stroke:#000000;stroke-width:1.0;" x1="795" x2="856" y1="91.4688" y2="91.4688"/><line style="stroke:#000000;stroke-width:1.0;" x1="6" x2="6" y1="6" y2="23.0938"/><line style="stroke:#000000;stroke-width:1.0;" x1="170" x2="170" y1="6" y2="23.0938"/><line style="stroke:#000000;stroke-width:1.0;" x1="235" x2="235" y1="6" y2="23.0938"/><line style="stroke:#000000;stroke-width:1.0;" x1="515" x2="515" y1="6" y2="23.0938"/><line style="stroke:#000000;stroke-width:1.0;" x1="856" x2="856" y1="6" y2="23.0938"/><line style="stroke:#000000;stroke-width:1.0;" x1="6" x2="6" y1="57.2813" y2="74.375"/><line style="stroke:#000000;stroke-width:1.0;" x1="170" x2="170" y1="57.2813" y2="74.375"/><line style="stroke:#000000;stroke-width:1.0;" x1="235" x2="235" y1="57.2813" y2="74.375"/><line style="stroke:#000000;stroke-width:1.0;" x1="311" x2="311" y1="57.2813" y2="74.375"/><line style="stroke:#000000;stroke-width:1.0;" x1="364" x2="364" y1="57.2813" y2="74.375"/><line style="stroke:#000000;stroke-width:1.0;" x1="438" x2="438" y1="57.2813" y2="74.375"/><line style="stroke:#000000;stroke-width:1.0;" x1="515" x2="515" y1="57.2813" y2="74.375"/><line style="stroke:#000000;stroke-width:1.0;" x1="591" x2="591" y1="57.2813" y2="74.375"/><line style="stroke:#000000;stroke-width:1.0;" x1="644" x2="644" y1="57.2813" y2="74.375"/><line style="stroke:#000000;stroke-width:1.0;" x1="718" x2="718" y1="57.2813" y2="74.375"/><line style="stroke:#000000;stroke-width:1.0;" x1="795" x2="795" y1="57.2813" y2="74.375"/><line style="stroke:#000000;stroke-width:1.0;" x1="856" x2="856" y1="57.2813" y2="74.375"/><line style="stroke:#000000;stroke-width:1.0;" x1="6" x2="6" y1="23.0938" y2="40.1875"/><line style="stroke:#000000;stroke-width:1.0;" x1="170" x2="170" y1="23.0938" y2="40.1875"/><line style="stroke:#000000;stroke-width:1.0;" x1="235" x2="235" y1="23.0938" y2="40.1875"/><line style="stroke:#000000;stroke-width:1.0;" x1="311" x2="311" y1="23.0938" y2="40.1875"/><line style="stroke:#000000;stroke-width:1.0;" x1="364" x2="364" y1="23.0938" y2="40.1875"/><line style="stroke:#000000;stroke-width:1.0;" x1="438" x2="438" y1="23.0938" y2="40.1875"/><line style="stroke:#000000;stroke-width:1.0;" x1="515" x2="515" y1="23.0938" y2="40.1875"/><line style="stroke:#000000;stroke-width:1.0;" x1="591" x2="591" y1="23.0938" y2="40.1875"/><line style="stroke:#000000;stroke-width:1.0;" x1="644" x2="644" y1="23.0938" y2="40.1875"/><line style="stroke:#000000;stroke-width:1.0;" x1="718" x2="718" y1="23.0938" y2="40.1875"/><line style="stroke:#000000;stroke-width:1.0;" x1="795" x2="795" y1="23.0938" y2="40.1875"/><line style="stroke:#000000;stroke-width:1.0;" x1="856" x2="856" y1="23.0938" y2="40.1875"/><line style="stroke:#000000;stroke-width:1.0;" x1="6" x2="6" y1="74.375" y2="91.4688"/><line style="stroke:#000000;stroke-width:1.0;" x1="170" x2="170" y1="74.375" y2="91.4688"/><line style="stroke:#000000;stroke-width:1.0;" x1="235" x2="235" y1="74.375" y2="91.4688"/><line style="stroke:#000000;stroke-width:1.0;" x1="311" x2="311" y1="74.375" y2="91.4688"/><line style="stroke:#000000;stroke-width:1.0;" x1="364" x2="364" y1="74.375" y2="91.4688"/><line style="stroke:#000000;stroke-width:1.0;" x1="438" x2="438" y1="74.375" y2="91.4688"/><line style="stroke:#000000;stroke-width:1.0;" x1="515" x2="515" y1="74.375" y2="91.4688"/><line style="stroke:#000000;stroke-width:1.0;" x1="591" x2="591" y1="74.375" y2="91.4688"/><line style="stroke:#000000;stroke-width:1.0;" x1="644" x2="644" y1="74.375" y2="91.4688"/><line style="stroke:#000000;stroke-width:1.0;" x1="718" x2="718" y1="74.375" y2="91.4688"/><line style="stroke:#000000;stroke-width:1.0;" x1="795" x2="795" y1="74.375" y2="91.4688"/><line style="stroke:#000000;stroke-width:1.0;" x1="856" x2="856" y1="74.375" y2="91.4688"/><line style="stroke:#000000;stroke-width:1.0;" x1="6" x2="6" y1="40.1875" y2="57.2813"/><line style="stroke:#000000;stroke-width:1.0;" x1="170" x2="170" y1="40.1875" y2="57.2813"/><line style="stroke:#000000;stroke-width:1.0;" x1="235" x2="235" y1="40.1875" y2="57.2813"/><line style="stroke:#000000;stroke-width:1.0;" x1="311" x2="311" y1="40.1875" y2="57.2813"/><line style="stroke:#000000;stroke-width:1.0;" x1="364" x2="364" y1="40.1875" y2="57.2813"/><line style="stroke:#000000;stroke-width:1.0;" x1="438" x2="438" y1="40.1875" y2="57.2813"/><line style="stroke:#000000;stroke-width:1.0;" x1="515" x2="515" y1="40.1875" y2="57.2813"/><line style="stroke:#000000;stroke-width:1.0;" x1="591" x2="591" y1="40.1875" y2="57.2813"/><line style="stroke:#000000;stroke-width:1.0;" x1="644" x2="644" y1="40.1875" y2="57.2813"/><line style="stroke:#000000;stroke-width:1.0;" x1="718" x2="718" y1="40.1875" y2="57.2813"/><line style="stroke:#000000;stroke-width:1.0;" x1="795" x2="795" y1="40.1875" y2="57.2813"/><line style="stroke:#000000;stroke-width:1.0;" x1="856" x2="856" y1="40.1875" y2="57.2813"/><line style="stroke:#000000;stroke-width:1.0;" x1="6" x2="6" y1="91.4688" y2="108.5625"/><line style="stroke:#000000;stroke-width:1.0;" x1="170" x2="170" y1="91.4688" y2="108.5625"/><line style="stroke:#000000;stroke-width:1.0;" x1="235" x2="235" y1="91.4688" y2="108.5625"/><line style="stroke:#000000;stroke-width:1.0;" x1="311" x2="311" y1="91.4688" y2="108.5625"/><line style="stroke:#000000;stroke-width:1.0;" x1="364" x2="364" y1="91.4688" y2="108.5625"/><line style="stroke:#000000;stroke-width:1.0;" x1="438" x2="438" y1="91.4688" y2="108.5625"/><line style="stroke:#000000;stroke-width:1.0;" x1="515" x2="515" y1="91.4688" y2="108.5625"/><line style="stroke:#000000;stroke-width:1.0;" x1="591" x2="591" y1="91.4688" y2="108.5625"/><line style="stroke:#000000;stroke-width:1.0;" x1="644" x2="644" y1="91.4688" y2="108.5625"/><line style="stroke:#000000;stroke-width:1.0;" x1="718" x2="718" y1="91.4688" y2="108.5625"/><line style="stroke:#000000;stroke-width:1.0;" x1="795" x2="795" y1="91.4688" y2="108.5625"/><line style="stroke:#000000;stroke-width:1.0;" x1="856" x2="856" y1="91.4688" y2="108.5625"/></g></svg>