<?xml version="1.0" encoding="UTF-8" standalone="no"?><svg xmlns="http://www.w3.org/2000/svg" xmlns:xlink="http://www.w3.org/1999/xlink" contentStyleType="text/css" height="259px" preserveAspectRatio="none" style="width:609px;height:259px;background:#FFFFFF;" version="1.1" viewBox="0 0 609 259" width="609px" zoomAndPan="magnify"><defs/><g><text fill="#000000" font-family="sans-serif" font-size="12" font-weight="bold" lengthAdjust="spacing" textLength="41" x="7" y="19.8281">Sorties</text><path d="M587,12.3441 C584.8,12.3441 583,14.1441 583,16.3441 C583,18.5441 584.8,20.3441 587,20.3441 C588.1,20.3441 589.12,19.9141 589.84,19.1841 L589.12,18.4641 C588.58,19.0041 587.83,19.3441 586.99,19.3441 C585.33,19.3441 583.99,18.0041 583.99,16.3441 C583.99,14.6841 585.33,13.3441 586.99,13.3441 C587.82,13.3441 588.54,13.7041 589.08,14.2541 L587.99,15.3441 L590.99,15.3441 L590.99,12.3441 L589.8,13.5341 C589.08,12.8141 588.09,12.3441 586.99,12.3441 " fill="#000000" style="stroke:;stroke-width:0.0;stroke-dasharray:;"/><line style="stroke:#AAAAAA;stroke-width:1.0;" x1="6" x2="597" y1="29.8441" y2="29.8441"/><text fill="#000000" font-family="sans-serif" font-size="12" lengthAdjust="spacing" textLength="136" x="7" y="48.1722">Programme de collecte :</text><rect fill="#EEEEEE" height="19.3441" style="stroke:#000000;stroke-width:1.0;" width="119" x="150" y="35.3441"/><text fill="#000000" font-family="sans-serif" font-size="12" lengthAdjust="spacing" textLength="79" x="152" y="50.1722">SIH-ACTIFLOT</text><line style="stroke:#000000;stroke-width:1.0;" x1="258" x2="258" y1="35.3441" y2="54.6882"/><polygon fill="#000000" points="261,41.3441,267,41.3441,264,49.6882" style="stroke:#000000;stroke-width:1.0;"/><text fill="#000000" font-family="sans-serif" font-size="12" lengthAdjust="spacing" textLength="28" x="330" y="48.1722">Etat :</text><rect fill="#EEEEEE" height="19.3441" style="stroke:#000000;stroke-width:1.0;" width="159" x="435" y="35.3441"/><text fill="#000000" font-family="sans-serif" font-size="12" lengthAdjust="spacing" textLength="100" x="437" y="50.1722">En cours de saisie</text><line style="stroke:#000000;stroke-width:1.0;" x1="583" x2="583" y1="35.3441" y2="54.6882"/><polygon fill="#000000" points="586,41.3441,592,41.3441,589,49.6882" style="stroke:#000000;stroke-width:1.0;"/><text fill="#000000" font-family="sans-serif" font-size="12" lengthAdjust="spacing" textLength="29" x="7" y="88.8604">Lieu :</text><rect fill="#EEEEEE" height="19.3441" style="stroke:#000000;stroke-width:1.0;" width="167" x="150" y="76.0323"/><text fill="#000000" font-family="sans-serif" font-size="12" lengthAdjust="spacing" textLength="115" x="152" y="90.8604">FRDRZ - Douarnenez</text><line style="stroke:#000000;stroke-width:1.0;" x1="306" x2="306" y1="76.0323" y2="95.3765"/><polygon fill="#000000" points="309,82.0323,315,82.0323,312,90.3765" style="stroke:#000000;stroke-width:1.0;"/><text fill="#000000" font-family="sans-serif" font-size="12" lengthAdjust="spacing" textLength="116" x="7" y="129.5487">Début de la période :</text><rect fill="#EEEEEE" height="19.3441" style="stroke:#000000;stroke-width:1.0;" width="95" x="150" y="116.7206"/><text fill="#000000" font-family="sans-serif" font-size="12" lengthAdjust="spacing" textLength="64" x="152" y="131.5487">01/01/2023</text><line style="stroke:#000000;stroke-width:1.0;" x1="234" x2="234" y1="116.7206" y2="136.0647"/><polygon fill="#000000" points="237,122.7206,243,122.7206,240,131.0647" style="stroke:#000000;stroke-width:1.0;"/><text fill="#000000" font-family="sans-serif" font-size="12" lengthAdjust="spacing" textLength="98" x="330" y="129.5487">Fin de la période :</text><rect fill="#EEEEEE" height="19.3441" style="stroke:#000000;stroke-width:1.0;" width="95" x="435" y="116.7206"/><text fill="#000000" font-family="sans-serif" font-size="12" lengthAdjust="spacing" textLength="64" x="437" y="131.5487">31/12/2023</text><line style="stroke:#000000;stroke-width:1.0;" x1="519" x2="519" y1="116.7206" y2="136.0647"/><polygon fill="#000000" points="522,122.7206,528,122.7206,525,131.0647" style="stroke:#000000;stroke-width:1.0;"/><text fill="#000000" font-family="sans-serif" font-size="12" lengthAdjust="spacing" textLength="127" x="7" y="170.2369">Organisme saisisseur :</text><rect fill="#EEEEEE" height="19.3441" style="stroke:#000000;stroke-width:1.0;" width="79" x="150" y="157.4088"/><text fill="#000000" font-family="sans-serif" font-size="12" lengthAdjust="spacing" textLength="43" x="152" y="172.2369">Ifremer</text><line style="stroke:#000000;stroke-width:1.0;" x1="218" x2="218" y1="157.4088" y2="176.7529"/><polygon fill="#000000" points="221,163.4088,227,163.4088,224,171.7529" style="stroke:#000000;stroke-width:1.0;"/><text fill="#000000" font-family="sans-serif" font-size="12" lengthAdjust="spacing" textLength="63" x="330" y="170.2369">Saisisseur :</text><rect fill="#EEEEEE" height="19.3441" style="stroke:#000000;stroke-width:1.0;" width="135" x="435" y="157.4088"/><text fill="#000000" font-family="sans-serif" font-size="12" lengthAdjust="spacing" textLength="96" x="437" y="172.2369">Nicolas DUPOND</text><line style="stroke:#000000;stroke-width:1.0;" x1="559" x2="559" y1="157.4088" y2="176.7529"/><polygon fill="#000000" points="562,163.4088,568,163.4088,565,171.7529" style="stroke:#000000;stroke-width:1.0;"/><text fill="#000000" font-family="sans-serif" font-size="12" lengthAdjust="spacing" textLength="82" x="7" y="210.9251">Observateurs :</text><rect fill="#EEEEEE" height="19.3441" style="stroke:#000000;stroke-width:1.0;" width="167" x="150" y="198.097"/><text fill="#000000" font-family="sans-serif" font-size="12" lengthAdjust="spacing" textLength="96" x="152" y="212.9251">Nicolas DUPOND</text><line style="stroke:#000000;stroke-width:1.0;" x1="306" x2="306" y1="198.097" y2="217.4411"/><polygon fill="#000000" points="309,204.097,315,204.097,312,212.4411" style="stroke:#000000;stroke-width:1.0;"/><line style="stroke:#AAAAAA;stroke-width:1.0;" x1="6" x2="597" y1="224.9411" y2="224.9411"/><text fill="#000000" font-family="sans-serif" font-size="12" lengthAdjust="spacing" textLength="59" x="7" y="243.2692">2 résultats</text><rect fill="#EEEEEE" height="12" rx="5" ry="5" style="stroke:#000000;stroke-width:2.5;" width="20" x="72.5" y="232.9411"/><path d="M78.5,234.9411 L82.5,238.9411 L86.5,234.9411 L78.5,234.9411 " fill="#000000" style="stroke:;stroke-width:0.0;stroke-dasharray:;"/><rect fill="#EEEEEE" height="20.3441" rx="5" ry="5" style="stroke:#000000;stroke-width:2.5;" width="52" x="99.5" y="232.9411"/><text fill="#000000" font-family="sans-serif" font-size="12" lengthAdjust="spacing" textLength="41" x="105" y="247.7692">Fermer</text><rect fill="#EEEEEE" height="20.3441" rx="5" ry="5" style="stroke:#000000;stroke-width:2.5;" width="76" x="158.5" y="232.9411"/><text fill="#000000" font-family="sans-serif" font-size="12" lengthAdjust="spacing" textLength="54" x="169.5" y="247.7692">Appliquer</text></g></svg>