<?xml version="1.0" encoding="us-ascii" standalone="no"?><svg xmlns="http://www.w3.org/2000/svg" xmlns:xlink="http://www.w3.org/1999/xlink" contentStyleType="text/css" height="92px" preserveAspectRatio="none" style="width:437px;height:92px;background:#FFFFFF;" version="1.1" viewBox="0 0 437 92" width="437px" zoomAndPan="magnify"><defs/><g><text fill="#000000" font-family="sans-serif" font-size="12" font-weight="bold" lengthAdjust="spacing" textLength="41" x="6" y="18.9492">Sorties</text><path d="M423,10.9609 L423,13.9609 L420,13.9609 L420,15.9609 L423,15.9609 L423,18.9609 L425,18.9609 L425,15.9609 L428,15.9609 L428,13.9609 L425,13.9609 L425,10.9609 L423,10.9609 " fill="#000000" style="stroke:;stroke-width:0.0;stroke-dasharray:;"/><line style="stroke:#AAAAAA;stroke-width:1.0;" x1="6" x2="430" y1="27.4609" y2="27.4609"/><text fill="#000000" font-family="sans-serif" font-size="12" lengthAdjust="spacing" textLength="3" x="27" y="45.9102">.</text><rect fill="none" height="10" style="stroke:#000000;stroke-width:1.5;" width="10" x="9" y="35.9414"/><text fill="#000000" font-family="sans-serif" font-size="12" font-weight="bold" lengthAdjust="spacing" textLength="22" x="32" y="45.9102">Etat</text><text fill="#000000" font-family="sans-serif" font-size="12" font-weight="bold" lengthAdjust="spacing" textLength="24" x="56" y="45.9102">Lieu</text><text fill="#000000" font-family="sans-serif" font-size="12" font-weight="bold" lengthAdjust="spacing" textLength="26" x="176" y="45.9102">Date</text><text fill="#000000" font-family="sans-serif" font-size="12" font-weight="bold" lengthAdjust="spacing" textLength="78" x="274" y="45.9102">Observateurs</text><text fill="#000000" font-family="sans-serif" font-size="12" font-weight="bold" lengthAdjust="spacing" textLength="61" x="354" y="45.9102">Saisisseur</text><text fill="#000000" font-family="sans-serif" font-size="12" lengthAdjust="spacing" textLength="3" x="27" y="63.8711">.</text><rect fill="none" height="10" style="stroke:#000000;stroke-width:1.5;" width="10" x="9" y="53.9023"/><text fill="#000000" font-family="sans-serif" font-size="12" font-weight="bold" lengthAdjust="spacing" textLength="6" x="32" y="63.8711">&#160;&#160;</text><path d="M45,55.8828 L44,56.8828 L46,58.8828 L47,57.8828 L45,55.8828 M43,57.8828 L39,61.8828 L39,63.8828 L41,63.8828 L45,59.8828 L43,57.8828 " fill="#000000" style="stroke:;stroke-width:0.0;stroke-dasharray:;"/><text fill="#000000" font-family="sans-serif" font-size="12" lengthAdjust="spacing" textLength="118" x="56" y="63.8711">FRDRZ - Douarnenez</text><text fill="#000000" font-family="sans-serif" font-size="12" lengthAdjust="spacing" textLength="96" x="176" y="63.8711">25/11/2023 17:00</text><text fill="#000000" font-family="sans-serif" font-size="12" lengthAdjust="spacing" textLength="20" x="274" y="63.8711">toto</text><text fill="#000000" font-family="sans-serif" font-size="12" lengthAdjust="spacing" textLength="20" x="354" y="63.8711">toto</text><text fill="#000000" font-family="sans-serif" font-size="12" lengthAdjust="spacing" textLength="3" x="27" y="81.832">.</text><rect fill="none" height="10" style="stroke:#000000;stroke-width:1.5;" width="10" x="9" y="71.8633"/><text fill="#000000" font-family="sans-serif" font-size="12" font-weight="bold" lengthAdjust="spacing" textLength="6" x="32" y="81.832">&#160;&#160;</text><path d="M45,73.8438 L44,74.8438 L46,76.8438 L47,75.8438 L45,73.8438 M43,75.8438 L39,79.8438 L39,81.8438 L41,81.8438 L45,77.8438 L43,75.8438 " fill="#000000" style="stroke:;stroke-width:0.0;stroke-dasharray:;"/><text fill="#000000" font-family="sans-serif" font-size="12" lengthAdjust="spacing" textLength="118" x="56" y="81.832">FRDRZ - Douarnenez</text><text fill="#000000" font-family="sans-serif" font-size="12" lengthAdjust="spacing" textLength="96" x="176" y="81.832">26/11/2023 17:00</text><text fill="#000000" font-family="sans-serif" font-size="12" lengthAdjust="spacing" textLength="20" x="274" y="81.832">toto</text><text fill="#000000" font-family="sans-serif" font-size="12" lengthAdjust="spacing" textLength="20" x="354" y="81.832">toto</text><path d="M418.09,68.8828 C418.03,68.8828 418,68.9228 418,68.9728 L418,74.7828 C418,74.8328 418.04,74.8728 418.09,74.8728 L424,74.8728 L426,76.8728 L426,68.9628 C426,68.9028 425.96,68.8728 425.91,68.8728 L418.1,68.8728 " fill="#000000" style="stroke:;stroke-width:0.0;stroke-dasharray:;"/><line style="stroke:#000000;stroke-width:1.0;" x1="6" x2="31" y1="31.9609" y2="31.9609"/><line style="stroke:#000000;stroke-width:1.0;" x1="31" x2="55" y1="31.9609" y2="31.9609"/><line style="stroke:#000000;stroke-width:1.0;" x1="55" x2="175" y1="31.9609" y2="31.9609"/><line style="stroke:#000000;stroke-width:1.0;" x1="175" x2="273" y1="31.9609" y2="31.9609"/><line style="stroke:#000000;stroke-width:1.0;" x1="273" x2="353" y1="31.9609" y2="31.9609"/><line style="stroke:#000000;stroke-width:1.0;" x1="353" x2="416" y1="31.9609" y2="31.9609"/><line style="stroke:#000000;stroke-width:1.0;" x1="416" x2="428" y1="31.9609" y2="31.9609"/><line style="stroke:#000000;stroke-width:1.0;" x1="6" x2="31" y1="85.8438" y2="85.8438"/><line style="stroke:#000000;stroke-width:1.0;" x1="31" x2="55" y1="85.8438" y2="85.8438"/><line style="stroke:#000000;stroke-width:1.0;" x1="55" x2="175" y1="85.8438" y2="85.8438"/><line style="stroke:#000000;stroke-width:1.0;" x1="175" x2="273" y1="85.8438" y2="85.8438"/><line style="stroke:#000000;stroke-width:1.0;" x1="273" x2="353" y1="85.8438" y2="85.8438"/><line style="stroke:#000000;stroke-width:1.0;" x1="353" x2="416" y1="85.8438" y2="85.8438"/><line style="stroke:#000000;stroke-width:1.0;" x1="416" x2="428" y1="85.8438" y2="85.8438"/><line style="stroke:#000000;stroke-width:1.0;" x1="6" x2="31" y1="67.8828" y2="67.8828"/><line style="stroke:#000000;stroke-width:1.0;" x1="31" x2="55" y1="67.8828" y2="67.8828"/><line style="stroke:#000000;stroke-width:1.0;" x1="55" x2="175" y1="67.8828" y2="67.8828"/><line style="stroke:#000000;stroke-width:1.0;" x1="175" x2="273" y1="67.8828" y2="67.8828"/><line style="stroke:#000000;stroke-width:1.0;" x1="273" x2="353" y1="67.8828" y2="67.8828"/><line style="stroke:#000000;stroke-width:1.0;" x1="353" x2="416" y1="67.8828" y2="67.8828"/><line style="stroke:#000000;stroke-width:1.0;" x1="416" x2="428" y1="67.8828" y2="67.8828"/><line style="stroke:#000000;stroke-width:1.0;" x1="6" x2="31" y1="49.9219" y2="49.9219"/><line style="stroke:#000000;stroke-width:1.0;" x1="31" x2="55" y1="49.9219" y2="49.9219"/><line style="stroke:#000000;stroke-width:1.0;" x1="55" x2="175" y1="49.9219" y2="49.9219"/><line style="stroke:#000000;stroke-width:1.0;" x1="175" x2="273" y1="49.9219" y2="49.9219"/><line style="stroke:#000000;stroke-width:1.0;" x1="273" x2="353" y1="49.9219" y2="49.9219"/><line style="stroke:#000000;stroke-width:1.0;" x1="353" x2="416" y1="49.9219" y2="49.9219"/><line style="stroke:#000000;stroke-width:1.0;" x1="416" x2="428" y1="49.9219" y2="49.9219"/><line style="stroke:#000000;stroke-width:1.0;" x1="6" x2="6" y1="31.9609" y2="49.9219"/><line style="stroke:#000000;stroke-width:1.0;" x1="55" x2="55" y1="67.8828" y2="85.8438"/><line style="stroke:#000000;stroke-width:1.0;" x1="31" x2="31" y1="31.9609" y2="49.9219"/><line style="stroke:#000000;stroke-width:1.0;" x1="175" x2="175" y1="67.8828" y2="85.8438"/><line style="stroke:#000000;stroke-width:1.0;" x1="55" x2="55" y1="31.9609" y2="49.9219"/><line style="stroke:#000000;stroke-width:1.0;" x1="273" x2="273" y1="67.8828" y2="85.8438"/><line style="stroke:#000000;stroke-width:1.0;" x1="175" x2="175" y1="31.9609" y2="49.9219"/><line style="stroke:#000000;stroke-width:1.0;" x1="353" x2="353" y1="67.8828" y2="85.8438"/><line style="stroke:#000000;stroke-width:1.0;" x1="273" x2="273" y1="31.9609" y2="49.9219"/><line style="stroke:#000000;stroke-width:1.0;" x1="416" x2="416" y1="67.8828" y2="85.8438"/><line style="stroke:#000000;stroke-width:1.0;" x1="428" x2="428" y1="67.8828" y2="85.8438"/><line style="stroke:#000000;stroke-width:1.0;" x1="353" x2="353" y1="31.9609" y2="49.9219"/><line style="stroke:#000000;stroke-width:1.0;" x1="416" x2="416" y1="31.9609" y2="49.9219"/><line style="stroke:#000000;stroke-width:1.0;" x1="428" x2="428" y1="31.9609" y2="49.9219"/><line style="stroke:#000000;stroke-width:1.0;" x1="6" x2="6" y1="49.9219" y2="67.8828"/><line style="stroke:#000000;stroke-width:1.0;" x1="31" x2="31" y1="49.9219" y2="67.8828"/><line style="stroke:#000000;stroke-width:1.0;" x1="55" x2="55" y1="49.9219" y2="67.8828"/><line style="stroke:#000000;stroke-width:1.0;" x1="175" x2="175" y1="49.9219" y2="67.8828"/><line style="stroke:#000000;stroke-width:1.0;" x1="273" x2="273" y1="49.9219" y2="67.8828"/><line style="stroke:#000000;stroke-width:1.0;" x1="353" x2="353" y1="49.9219" y2="67.8828"/><line style="stroke:#000000;stroke-width:1.0;" x1="416" x2="416" y1="49.9219" y2="67.8828"/><line style="stroke:#000000;stroke-width:1.0;" x1="428" x2="428" y1="49.9219" y2="67.8828"/><line style="stroke:#000000;stroke-width:1.0;" x1="6" x2="6" y1="67.8828" y2="85.8438"/><line style="stroke:#000000;stroke-width:1.0;" x1="31" x2="31" y1="67.8828" y2="85.8438"/><!--SRC=[nP5DJy9048RFxg-On8J0eQLR16936Y954sm30UMWyR2KWMnITd4_I1JvxsvRFnBZoOjxsNdVtNbcTdQe3LD6iyAG8m4OhEA5L8QZXdzSWyQ-i3fs_NWUEJkU4rBPZ_3amrlPuzWmKqSfHrj72JDOHzELHdLmqYfTEml6DTVQ6KxxFsbLGHGvBs9dNC-J-GDua4ZBb421hyuCksrAss4GTe3seo1mbf56Vcn_0VP-1NvX1urSxdOeZAUVNHh6LOqJ8ISoHB6kFepC2YRCVPR20PNcKW3rIw9FEytCgGHpe1JePHG6KRSFe_4TbESjqhoPfQ2bLJd2cckZ-CeQ1sYH2Jimc5jX-0uZcBfNJ9BRJmF6ui2L56LVPBBClY_qBhmhRc3XveuAbXb9SCDiOLn6BjTSR2COxMdO3KdAnDQohODl51b91rOlaPlHEm00]--></g></svg>