<?xml version="1.0" encoding="us-ascii" standalone="no"?><svg xmlns="http://www.w3.org/2000/svg" xmlns:xlink="http://www.w3.org/1999/xlink" contentStyleType="text/css" height="203px" preserveAspectRatio="none" style="width:430px;height:203px;background:#FFFFFF;" version="1.1" viewBox="0 0 430 203" width="430px" zoomAndPan="magnify"><defs/><g><text fill="#000000" font-family="sans-serif" font-size="12" font-weight="bold" lengthAdjust="spacing" textLength="129" x="13" y="20.457">S&#233;lection des esp&#232;ces</text><line style="stroke:#AAAAAA;stroke-width:1.0;" x1="7" x2="423" y1="29.5938" y2="29.5938"/><path d="M14,38.1875 C11.8,38.1875 10,39.9875 10,42.1875 C10,44.3875 11.8,46.1875 14,46.1875 C16.2,46.1875 18,44.3875 18,42.1875 C18,39.9875 16.2,38.1875 14,38.1875 M14,39.1875 C15.66,39.1875 17,40.5275 17,42.1875 C17,43.8475 15.66,45.1875 14,45.1875 C12.34,45.1875 11,43.8475 11,42.1875 C11,40.5275 12.34,39.1875 14,39.1875 M13.5,40.1875 L13.5,42.4075 L13.66,42.5375 L14.16,43.0375 L14.5,43.4175 L15.22,42.6975 L14.84,42.3575 L14.5,42.0175 L14.5,40.2075 L13.5,40.2075 " fill="#000000" style="stroke:;stroke-width:0.0;stroke-dasharray:;"/><text fill="#000000" font-family="sans-serif" font-size="12" lengthAdjust="spacing" textLength="3" x="19" y="46.5508">&#160;</text><text fill="#000000" font-family="sans-serif" font-size="12" font-weight="bold" lengthAdjust="spacing" textLength="58" x="22" y="46.5508">Historique</text><line style="stroke:#000000;stroke-width:1.0;" x1="7" x2="7" y1="34.0938" y2="49.1875"/><line style="stroke:#000000;stroke-width:1.0;" x1="7" x2="83" y1="34.0938" y2="34.0938"/><line style="stroke:#000000;stroke-width:1.0;" x1="83" x2="83" y1="34.0938" y2="49.1875"/><line style="stroke:#000000;stroke-width:1.0;" x1="83" x2="93" y1="49.1875" y2="49.1875"/><path d="M99.5,38.1875 C97.57,38.1875 96,39.7575 96,41.6875 C96,43.6175 97.57,45.1875 99.5,45.1875 C100.09,45.1875 100.67,45.0475 101.16,44.7775 A1,1 0 0 0 101.29,44.9075 L102.29,45.9075 A1.02,1.02 0 1 0 103.73,44.4675 L102.73,43.4675 A1,1 0 0 0 102.57,43.3375 C102.84,42.8475 103.01,42.2775 103.01,41.6775 C103.01,39.7475 101.44,38.1775 99.51,38.1775 M99.5,39.1875 C100.89,39.1875 102,40.2975 102,41.6875 C102,42.3475 101.76,42.9575 101.34,43.4075 C101.33,43.4175 101.32,43.4275 101.31,43.4375 A1,1 0 0 0 101.18,43.5675 C100.74,43.9675 100.14,44.1975 99.49,44.1975 C98.1,44.1975 96.99,43.0875 96.99,41.6975 C96.99,40.3075 98.1,39.1975 99.49,39.1975 " fill="#000000" style="stroke:;stroke-width:0.0;stroke-dasharray:;"/><text fill="#000000" font-family="sans-serif" font-size="12" lengthAdjust="spacing" textLength="104" x="105" y="46.5508">Recherche esp&#232;ce</text><line style="stroke:#000000;stroke-width:1.0;" x1="93" x2="93" y1="34.0938" y2="49.1875"/><line style="stroke:#000000;stroke-width:1.0;" x1="93" x2="212" y1="34.0938" y2="34.0938"/><line style="stroke:#000000;stroke-width:1.0;" x1="212" x2="212" y1="34.0938" y2="49.1875"/><line style="stroke:#000000;stroke-width:1.0;" x1="212" x2="222" y1="49.1875" y2="49.1875"/><line style="stroke:#AAAAAA;stroke-width:1.0;" x1="7" x2="423" y1="54.6875" y2="54.6875"/><text fill="#000000" font-family="sans-serif" font-size="12" lengthAdjust="spacing" textLength="7" x="8" y="72.6445">#</text><text fill="#000000" font-family="sans-serif" font-size="12" font-weight="bold" lengthAdjust="spacing" textLength="22" x="33" y="72.6445">Etat</text><path d="M60.97,64.2813 L58,67.2813 L60,67.2813 L60,72.2813 L62,72.2813 L62,67.2813 L64,67.2813 L60.97,64.2813 " fill="#000000" style="stroke:;stroke-width:0.0;stroke-dasharray:;"/><text fill="#000000" font-family="sans-serif" font-size="12" lengthAdjust="spacing" textLength="3" x="67" y="72.6445">&#160;</text><text fill="#000000" font-family="sans-serif" font-size="12" font-weight="bold" lengthAdjust="spacing" textLength="127" x="70" y="72.6445">Esp&#232;ces commerciale</text><text fill="#000000" font-family="sans-serif" font-size="12" font-weight="bold" lengthAdjust="spacing" textLength="62" x="199" y="72.6445">Date/heure</text><text fill="#000000" font-family="sans-serif" font-size="12" font-weight="bold" lengthAdjust="spacing" textLength="61" x="360" y="72.6445">Saisisseur</text><text fill="#000000" font-family="sans-serif" font-size="12" lengthAdjust="spacing" textLength="3" x="28" y="89.7383">.</text><rect fill="none" height="10" style="stroke:#000000;stroke-width:1.5;" width="10" x="10" y="79.8281"/><path d="M40.41,77.2813 L39.72,78.0013 L36.94,80.7813 L36.13,80.0013 L35.41,79.2813 L34,80.6913 L34.72,81.4113 L36.22,82.9113 L36.91,83.6313 L37.63,82.9113 L41.13,79.4113 L41.85,78.6913 L40.41,77.2813 " fill="#000000" style="stroke:;stroke-width:0.0;stroke-dasharray:;"/><text fill="#000000" font-family="sans-serif" font-size="12" lengthAdjust="spacing" textLength="92" x="57" y="89.7383">POL - Lieu jaune</text><text fill="#000000" font-family="sans-serif" font-size="12" lengthAdjust="spacing" textLength="96" x="199" y="89.7383">15/05/2024 13:30</text><text fill="#808080" font-family="sans-serif" font-size="10" font-style="italic" lengthAdjust="spacing" textLength="57" x="298" y="90.1777">il y a 6 jours</text><text fill="#000000" font-family="sans-serif" font-size="12" lengthAdjust="spacing" textLength="30" x="357" y="89.7383">Obs1</text><text fill="#000000" font-family="sans-serif" font-size="12" lengthAdjust="spacing" textLength="3" x="28" y="106.832">.</text><rect fill="none" height="10" style="stroke:#000000;stroke-width:1.5;" width="10" x="10" y="96.9219"/><path d="M40.41,94.375 L39.72,95.095 L36.94,97.875 L36.13,97.095 L35.41,96.375 L34,97.785 L34.72,98.505 L36.22,100.005 L36.91,100.725 L37.63,100.005 L41.13,96.505 L41.85,95.785 L40.41,94.375 " fill="#000000" style="stroke:;stroke-width:0.0;stroke-dasharray:;"/><text fill="#000000" font-family="sans-serif" font-size="12" lengthAdjust="spacing" textLength="85" x="57" y="106.832">MNZ - Baudroie</text><text fill="#000000" font-family="sans-serif" font-size="12" lengthAdjust="spacing" textLength="96" x="199" y="106.832">15/05/2024 13:30</text><text fill="#808080" font-family="sans-serif" font-size="10" font-style="italic" lengthAdjust="spacing" textLength="57" x="298" y="107.2715">il y a 6 jours</text><text fill="#000000" font-family="sans-serif" font-size="12" lengthAdjust="spacing" textLength="30" x="357" y="106.832">Obs1</text><text fill="#000000" font-family="sans-serif" font-size="12" lengthAdjust="spacing" textLength="3" x="28" y="123.9258">.</text><rect fill="none" height="10" style="stroke:#000000;stroke-width:1.5;" width="10" x="10" y="114.0156"/><path d="M40.41,111.4688 L39.72,112.1888 L36.94,114.9688 L36.13,114.1888 L35.41,113.4688 L34,114.8788 L34.72,115.5988 L36.22,117.0988 L36.91,117.8188 L37.63,117.0988 L41.13,113.5988 L41.85,112.8788 L40.41,111.4688 " fill="#000000" style="stroke:;stroke-width:0.0;stroke-dasharray:;"/><text fill="#000000" font-family="sans-serif" font-size="12" lengthAdjust="spacing" textLength="128" x="57" y="123.9258">PIL - Sardive commune</text><text fill="#000000" font-family="sans-serif" font-size="12" lengthAdjust="spacing" textLength="96" x="199" y="123.9258">14/05/2024 16:00</text><text fill="#808080" font-family="sans-serif" font-size="10" font-style="italic" lengthAdjust="spacing" textLength="57" x="298" y="124.3652">il y a 7 jours</text><text fill="#000000" font-family="sans-serif" font-size="12" lengthAdjust="spacing" textLength="30" x="357" y="123.9258">Obs1</text><line style="stroke:#000000;stroke-width:1.0;" x1="7" x2="32" y1="59.1875" y2="59.1875"/><line style="stroke:#000000;stroke-width:1.0;" x1="356" x2="422" y1="127.5625" y2="127.5625"/><line style="stroke:#000000;stroke-width:1.0;" x1="32" x2="56" y1="59.1875" y2="59.1875"/><line style="stroke:#000000;stroke-width:1.0;" x1="56" x2="198" y1="59.1875" y2="59.1875"/><line style="stroke:#000000;stroke-width:1.0;" x1="198" x2="356" y1="59.1875" y2="59.1875"/><line style="stroke:#000000;stroke-width:1.0;" x1="356" x2="422" y1="59.1875" y2="59.1875"/><line style="stroke:#000000;stroke-width:1.0;" x1="7" x2="32" y1="110.4688" y2="110.4688"/><line style="stroke:#000000;stroke-width:1.0;" x1="32" x2="56" y1="110.4688" y2="110.4688"/><line style="stroke:#000000;stroke-width:1.0;" x1="56" x2="198" y1="110.4688" y2="110.4688"/><line style="stroke:#000000;stroke-width:1.0;" x1="198" x2="356" y1="110.4688" y2="110.4688"/><line style="stroke:#000000;stroke-width:1.0;" x1="356" x2="422" y1="110.4688" y2="110.4688"/><line style="stroke:#000000;stroke-width:1.0;" x1="7" x2="32" y1="93.375" y2="93.375"/><line style="stroke:#000000;stroke-width:1.0;" x1="32" x2="56" y1="93.375" y2="93.375"/><line style="stroke:#000000;stroke-width:1.0;" x1="56" x2="198" y1="93.375" y2="93.375"/><line style="stroke:#000000;stroke-width:1.0;" x1="198" x2="356" y1="93.375" y2="93.375"/><line style="stroke:#000000;stroke-width:1.0;" x1="356" x2="422" y1="93.375" y2="93.375"/><line style="stroke:#000000;stroke-width:1.0;" x1="7" x2="32" y1="76.2813" y2="76.2813"/><line style="stroke:#000000;stroke-width:1.0;" x1="32" x2="56" y1="76.2813" y2="76.2813"/><line style="stroke:#000000;stroke-width:1.0;" x1="56" x2="198" y1="76.2813" y2="76.2813"/><line style="stroke:#000000;stroke-width:1.0;" x1="198" x2="356" y1="76.2813" y2="76.2813"/><line style="stroke:#000000;stroke-width:1.0;" x1="356" x2="422" y1="76.2813" y2="76.2813"/><line style="stroke:#000000;stroke-width:1.0;" x1="7" x2="32" y1="127.5625" y2="127.5625"/><line style="stroke:#000000;stroke-width:1.0;" x1="32" x2="56" y1="127.5625" y2="127.5625"/><line style="stroke:#000000;stroke-width:1.0;" x1="56" x2="198" y1="127.5625" y2="127.5625"/><line style="stroke:#000000;stroke-width:1.0;" x1="198" x2="356" y1="127.5625" y2="127.5625"/><line style="stroke:#000000;stroke-width:1.0;" x1="7" x2="7" y1="59.1875" y2="76.2813"/><line style="stroke:#000000;stroke-width:1.0;" x1="56" x2="56" y1="93.375" y2="110.4688"/><line style="stroke:#000000;stroke-width:1.0;" x1="32" x2="32" y1="59.1875" y2="76.2813"/><line style="stroke:#000000;stroke-width:1.0;" x1="198" x2="198" y1="93.375" y2="110.4688"/><line style="stroke:#000000;stroke-width:1.0;" x1="56" x2="56" y1="59.1875" y2="76.2813"/><line style="stroke:#000000;stroke-width:1.0;" x1="356" x2="356" y1="93.375" y2="110.4688"/><line style="stroke:#000000;stroke-width:1.0;" x1="422" x2="422" y1="93.375" y2="110.4688"/><line style="stroke:#000000;stroke-width:1.0;" x1="198" x2="198" y1="59.1875" y2="76.2813"/><line style="stroke:#000000;stroke-width:1.0;" x1="356" x2="356" y1="59.1875" y2="76.2813"/><line style="stroke:#000000;stroke-width:1.0;" x1="422" x2="422" y1="59.1875" y2="76.2813"/><line style="stroke:#000000;stroke-width:1.0;" x1="7" x2="7" y1="110.4688" y2="127.5625"/><line style="stroke:#000000;stroke-width:1.0;" x1="32" x2="32" y1="110.4688" y2="127.5625"/><line style="stroke:#000000;stroke-width:1.0;" x1="7" x2="7" y1="76.2813" y2="93.375"/><line style="stroke:#000000;stroke-width:1.0;" x1="56" x2="56" y1="110.4688" y2="127.5625"/><line style="stroke:#000000;stroke-width:1.0;" x1="32" x2="32" y1="76.2813" y2="93.375"/><line style="stroke:#000000;stroke-width:1.0;" x1="198" x2="198" y1="110.4688" y2="127.5625"/><line style="stroke:#000000;stroke-width:1.0;" x1="56" x2="56" y1="76.2813" y2="93.375"/><line style="stroke:#000000;stroke-width:1.0;" x1="356" x2="356" y1="110.4688" y2="127.5625"/><line style="stroke:#000000;stroke-width:1.0;" x1="422" x2="422" y1="110.4688" y2="127.5625"/><line style="stroke:#000000;stroke-width:1.0;" x1="198" x2="198" y1="76.2813" y2="93.375"/><line style="stroke:#000000;stroke-width:1.0;" x1="356" x2="356" y1="76.2813" y2="93.375"/><line style="stroke:#000000;stroke-width:1.0;" x1="422" x2="422" y1="76.2813" y2="93.375"/><line style="stroke:#000000;stroke-width:1.0;" x1="7" x2="7" y1="93.375" y2="110.4688"/><line style="stroke:#000000;stroke-width:1.0;" x1="32" x2="32" y1="93.375" y2="110.4688"/><text fill="#808080" font-family="sans-serif" font-size="12" lengthAdjust="spacing" textLength="99" x="9" y="161.1133">Nombre de lignes</text><text fill="#000000" font-family="sans-serif" font-size="12" lengthAdjust="spacing" textLength="14" x="113" y="161.1133">20</text><line style="stroke:#000000;stroke-width:1.0;" x1="111" x2="146" y1="163.75" y2="163.75"/><line style="stroke:#000000;stroke-width:1.0;" x1="111" x2="111" y1="160.75" y2="162.75"/><line style="stroke:#000000;stroke-width:1.0;" x1="146" x2="146" y1="160.75" y2="162.75"/><text fill="#808080" font-family="sans-serif" font-size="12" lengthAdjust="spacing" textLength="69" x="170" y="161.1133">1 - 20 sur 87</text><path d="M266,152.75 L262,156.75 L266,160.75 L266,152.75 " fill="#000000" style="stroke:;stroke-width:0.0;stroke-dasharray:;"/><text fill="#000000" font-family="sans-serif" font-size="12" lengthAdjust="spacing" textLength="3" x="271" y="161.1133">&#160;</text><path d="M279,152.75 L275,156.75 L279,160.75 L280.5,159.25 L278,156.75 L280.5,154.25 L279,152.75 " fill="#000000" style="stroke:;stroke-width:0.0;stroke-dasharray:;"/><text fill="#000000" font-family="sans-serif" font-size="12" lengthAdjust="spacing" textLength="3" x="284" y="161.1133">&#160;</text><path d="M289.5,152.75 L288,154.25 L290.5,156.75 L288,159.25 L289.5,160.75 L293.5,156.75 L289.5,152.75 " fill="#000000" style="stroke:;stroke-width:0.0;stroke-dasharray:;"/><text fill="#000000" font-family="sans-serif" font-size="12" lengthAdjust="spacing" textLength="3" x="297" y="161.1133">&#160;</text><path d="M301,152.75 L301,160.75 L305,156.75 L301,152.75 " fill="#000000" style="stroke:;stroke-width:0.0;stroke-dasharray:;"/><rect fill="#EEEEEE" height="19.0938" rx="5" ry="5" style="stroke:#000000;stroke-width:2.5;" width="60" x="10.5" y="173.25"/><text fill="#000000" font-family="sans-serif" font-size="12" lengthAdjust="spacing" textLength="42" x="19.5" y="187.707">Annuler</text><line style="stroke:#000000;stroke-width:1.0;" x1="6" x2="423" y1="6" y2="6"/><line style="stroke:#000000;stroke-width:1.0;" x1="6" x2="423" y1="196.8438" y2="196.8438"/><line style="stroke:#000000;stroke-width:1.0;" x1="6" x2="6" y1="6" y2="25.0938"/><line style="stroke:#000000;stroke-width:1.0;" x1="423" x2="423" y1="6" y2="25.0938"/><line style="stroke:#000000;stroke-width:1.0;" x1="6" x2="6" y1="168.75" y2="196.8438"/><line style="stroke:#000000;stroke-width:1.0;" x1="423" x2="423" y1="168.75" y2="196.8438"/><line style="stroke:#000000;stroke-width:1.0;" x1="6" x2="6" y1="128.5625" y2="145.6563"/><line style="stroke:#000000;stroke-width:1.0;" x1="423" x2="423" y1="128.5625" y2="145.6563"/><line style="stroke:#000000;stroke-width:1.0;" x1="6" x2="6" y1="50.1875" y2="58.1875"/><line style="stroke:#000000;stroke-width:1.0;" x1="423" x2="423" y1="50.1875" y2="58.1875"/><line style="stroke:#000000;stroke-width:1.0;" x1="6" x2="6" y1="25.0938" y2="33.0938"/><line style="stroke:#000000;stroke-width:1.0;" x1="423" x2="423" y1="25.0938" y2="33.0938"/><line style="stroke:#000000;stroke-width:1.0;" x1="6" x2="6" y1="145.6563" y2="168.75"/><line style="stroke:#000000;stroke-width:1.0;" x1="423" x2="423" y1="145.6563" y2="168.75"/><line style="stroke:#000000;stroke-width:1.0;" x1="6" x2="6" y1="58.1875" y2="128.5625"/><line style="stroke:#000000;stroke-width:1.0;" x1="423" x2="423" y1="58.1875" y2="128.5625"/><line style="stroke:#000000;stroke-width:1.0;" x1="6" x2="6" y1="33.0938" y2="50.1875"/><line style="stroke:#000000;stroke-width:1.0;" x1="423" x2="423" y1="33.0938" y2="50.1875"/></g></svg>