<?xml version="1.0" encoding="us-ascii" standalone="no"?><svg xmlns="http://www.w3.org/2000/svg" xmlns:xlink="http://www.w3.org/1999/xlink" contentStyleType="text/css" height="434px" preserveAspectRatio="none" style="width:581px;height:434px;background:#FFFFFF;" version="1.1" viewBox="0 0 581 434" width="581px" zoomAndPan="magnify"><defs/><g><text fill="#000000" font-family="sans-serif" font-size="12" lengthAdjust="spacing" textLength="187" x="7" y="19.9492">Sortie : Douarnenez - 08/02/2022 -</text><text fill="#000000" font-family="sans-serif" font-size="12" font-weight="bold" lengthAdjust="spacing" textLength="254" x="197" y="19.9492">MAC - Maquereau commun - 123456 Navire 1</text><rect fill="#DDDDDD" height="16.9609" style="stroke:#000000;stroke-width:1.0;" width="20" x="458" y="7"/><rect fill="#BBBBBB" height="15.9609" style="stroke:#000000;stroke-width:1.0;" width="9" x="458" y="7"/><text fill="#000000" font-family="sans-serif" font-size="12" lengthAdjust="spacing" textLength="9" x="458" y="19.9492">...</text><line style="stroke:#AAAAAA;stroke-width:1.0;" x1="6" x2="567" y1="29.4609" y2="29.4609"/><path d="M12,38.9219 C11.45,38.9219 11,39.3719 11,39.9219 C11,40.4719 11.45,40.9219 12,40.9219 C12.55,40.9219 13,40.4719 13,39.9219 C13,39.3719 12.55,38.9219 12,38.9219 M10.5,41.4219 C9.67,41.4219 9,42.0919 9,42.9219 L10,42.9219 C10,42.6419 10.22,42.4219 10.5,42.4219 C10.78,42.4219 11,42.6419 11,42.9219 C11,43.2019 10,44.5619 10,45.4219 C10,46.2819 10.67,46.9219 11.5,46.9219 C12.33,46.9219 13,46.2519 13,45.4219 L12,45.4219 C12,45.7019 11.78,45.9219 11.5,45.9219 C11.22,45.9219 11,45.7019 11,45.4219 C11,45.0619 12,43.5819 12,42.9219 C12,42.1119 11.33,41.4219 10.5,41.4219 " fill="#000000" style="stroke:;stroke-width:0.0;stroke-dasharray:;"/><text fill="#000000" font-family="sans-serif" font-size="12" font-weight="bold" lengthAdjust="spacing" textLength="39" x="18" y="46.9102">D&#233;tails</text><line style="stroke:#000000;stroke-width:1.0;" x1="6" x2="6" y1="33.9609" y2="49.9219"/><line style="stroke:#000000;stroke-width:1.0;" x1="6" x2="60" y1="33.9609" y2="33.9609"/><line style="stroke:#000000;stroke-width:1.0;" x1="60" x2="60" y1="33.9609" y2="49.9219"/><line style="stroke:#000000;stroke-width:1.0;" x1="60" x2="70" y1="49.9219" y2="49.9219"/><path d="M73,38.9219 L73,39.9219 L81,39.9219 L81,38.9219 L73,38.9219 M73,40.9219 L73,46.8319 C73,46.8819 73.04,46.9219 73.09,46.9219 L80.9,46.9219 C80.95,46.9219 80.99,46.8819 80.99,46.8319 L80.99,40.9219 L78.02,40.9219 L78.02,41.9519 L75.99,41.9519 L75.99,40.9219 L72.99,40.9219 " fill="#000000" style="stroke:;stroke-width:0.0;stroke-dasharray:;"/><text fill="#000000" font-family="sans-serif" font-size="12" lengthAdjust="spacing" textLength="24" x="82" y="46.9102">Lots</text><text fill="#0000FF" font-family="sans-serif" font-size="8" font-weight="bold" lengthAdjust="spacing" textLength="10" x="109" y="47.9141">(2)</text><line style="stroke:#000000;stroke-width:1.0;" x1="70" x2="70" y1="33.9609" y2="49.9219"/><line style="stroke:#000000;stroke-width:1.0;" x1="70" x2="122" y1="33.9609" y2="33.9609"/><line style="stroke:#000000;stroke-width:1.0;" x1="122" x2="122" y1="33.9609" y2="49.9219"/><line style="stroke:#000000;stroke-width:1.0;" x1="122" x2="132" y1="49.9219" y2="49.9219"/><line style="stroke:#AAAAAA;stroke-width:1.0;stroke-dasharray:1.0,2.0;" x1="6" x2="567" y1="55.4219" y2="55.4219"/><text fill="#000000" font-family="sans-serif" font-size="12" lengthAdjust="spacing" textLength="46" x="7" y="73.8711">Navire* :</text><rect fill="#EEEEEE" height="18.9609" style="stroke:#000000;stroke-width:1.0;" width="295" x="109" y="61.9219"/><text fill="#000000" font-family="sans-serif" font-size="12" lengthAdjust="spacing" textLength="97" x="111" y="76.8711">123456 - Navire 1</text><line style="stroke:#000000;stroke-width:1.0;" x1="393" x2="393" y1="61.9219" y2="80.8828"/><polygon fill="#000000" points="396,67.9219,402,67.9219,399,75.8828" style="stroke:#000000;stroke-width:1.0;"/><text fill="#000000" font-family="sans-serif" font-size="12" lengthAdjust="spacing" textLength="86" x="7" y="115.793">Type de vente* :</text><rect fill="#EEEEEE" height="18.9609" style="stroke:#000000;stroke-width:1.0;" width="295" x="109" y="103.8438"/><text fill="#000000" font-family="sans-serif" font-size="12" lengthAdjust="spacing" textLength="134" x="111" y="118.793">Ench&#232;res - HAM / Cri&#233;es</text><line style="stroke:#000000;stroke-width:1.0;" x1="393" x2="393" y1="103.8438" y2="122.8047"/><polygon fill="#000000" points="396,109.8438,402,109.8438,399,117.8047" style="stroke:#000000;stroke-width:1.0;"/><text fill="#000000" font-family="sans-serif" font-size="12" lengthAdjust="spacing" textLength="97" x="7" y="157.7148">Lieu de la vente* :</text><rect fill="#EEEEEE" height="18.9609" style="stroke:#000000;stroke-width:1.0;" width="175" x="109" y="145.7656"/><text fill="#000000" font-family="sans-serif" font-size="12" lengthAdjust="spacing" textLength="118" x="111" y="160.7148">FRDRZ - Douarnenez</text><line style="stroke:#000000;stroke-width:1.0;" x1="273" x2="273" y1="145.7656" y2="164.7266"/><polygon fill="#000000" points="276,151.7656,282,151.7656,279,159.7266" style="stroke:#000000;stroke-width:1.0;"/><text fill="#000000" font-family="sans-serif" font-size="12" lengthAdjust="spacing" textLength="99" x="7" y="199.6367">Date de la vente* :</text><rect fill="#EEEEEE" height="18.9609" style="stroke:#000000;stroke-width:1.0;" width="103" x="109" y="187.6875"/><text fill="#000000" font-family="sans-serif" font-size="12" lengthAdjust="spacing" textLength="62" x="111" y="202.6367">jj/mm/aaaa</text><line style="stroke:#000000;stroke-width:1.0;" x1="201" x2="201" y1="187.6875" y2="206.6484"/><polygon fill="#000000" points="204,193.6875,210,193.6875,207,201.6484" style="stroke:#000000;stroke-width:1.0;"/><rect fill="#EEEEEE" height="18.9609" style="stroke:#000000;stroke-width:1.0;" width="63" x="215" y="187.6875"/><text fill="#000000" font-family="sans-serif" font-size="12" lengthAdjust="spacing" textLength="39" x="217" y="202.6367">hh:mm</text><line style="stroke:#000000;stroke-width:1.0;" x1="267" x2="267" y1="187.6875" y2="206.6484"/><polygon fill="#000000" points="270,193.6875,276,193.6875,273,201.6484" style="stroke:#000000;stroke-width:1.0;"/><text fill="#808080" font-family="sans-serif" font-size="10" font-style="italic" lengthAdjust="spacing" textLength="79" x="108" y="239.4004">M&#233;tier principale</text><text fill="#000000" font-family="sans-serif" font-size="12" lengthAdjust="spacing" textLength="46" x="7" y="259.5195">M&#233;tiers :</text><rect fill="#EEEEEE" height="18.9609" style="stroke:#000000;stroke-width:1.0;" width="279" x="109" y="247.5703"/><text fill="#000000" font-family="sans-serif" font-size="12" lengthAdjust="spacing" textLength="183" x="111" y="262.5195">OTBBSE - Chaluts de fond &#224; bars</text><line style="stroke:#000000;stroke-width:1.0;" x1="377" x2="377" y1="247.5703" y2="266.5313"/><polygon fill="#000000" points="380,253.5703,386,253.5703,383,261.5313" style="stroke:#000000;stroke-width:1.0;"/><path d="M410.41,246.5703 L409,247.9803 L409.72,248.7003 L411.5,250.5103 L409.72,252.2903 L409,252.9803 L410.41,254.4203 L411.13,253.7003 L412.94,251.8903 L414.72,253.7003 L415.41,254.4203 L416.85,252.9803 L416.13,252.2903 L414.32,250.5103 L416.13,248.7003 L416.85,247.9803 L415.41,246.5703 L414.72,247.2903 L412.94,249.0703 L411.13,247.2903 L410.41,246.5703 " fill="#000000" style="stroke:;stroke-width:0.0;stroke-dasharray:;"/><text fill="#808080" font-family="sans-serif" font-size="10" font-style="italic" lengthAdjust="spacing" textLength="99" x="108" y="281.3223">M&#233;tier secondaire #1</text><rect fill="#EEEEEE" height="18.9609" style="stroke:#000000;stroke-width:1.0;" width="287" x="109" y="289.4922"/><text fill="#000000" font-family="sans-serif" font-size="12" lengthAdjust="spacing" textLength="197" x="111" y="304.4414">OTBCOD - Chaluts de fond &#224; morue</text><line style="stroke:#000000;stroke-width:1.0;" x1="385" x2="385" y1="289.4922" y2="308.4531"/><polygon fill="#000000" points="388,295.4922,394,295.4922,391,303.4531" style="stroke:#000000;stroke-width:1.0;"/><path d="M412,293.4531 L412,296.4531 L409,296.4531 L409,298.4531 L412,298.4531 L412,301.4531 L414,301.4531 L414,298.4531 L417,298.4531 L417,296.4531 L414,296.4531 L414,293.4531 L412,293.4531 " fill="#000000" style="stroke:;stroke-width:0.0;stroke-dasharray:;"/><text fill="#000000" font-family="sans-serif" font-size="12" lengthAdjust="spacing" textLength="3" x="418" y="301.4414">&#160;</text><path d="M423.41,293.4531 L422,294.8631 L422.72,295.5831 L424.5,297.3931 L422.72,299.1731 L422,299.8631 L423.41,301.3031 L424.13,300.5831 L425.94,298.7731 L427.72,300.5831 L428.41,301.3031 L429.85,299.8631 L429.13,299.1731 L427.32,297.3931 L429.13,295.5831 L429.85,294.8631 L428.41,293.4531 L427.72,294.1731 L425.94,295.9531 L424.13,294.1731 L423.41,293.4531 " fill="#000000" style="stroke:;stroke-width:0.0;stroke-dasharray:;"/><text fill="#808080" font-family="sans-serif" font-size="10" font-style="italic" lengthAdjust="spacing" textLength="86" x="108" y="323.2441">Zone de p&#234;che #1</text><text fill="#000000" font-family="sans-serif" font-size="12" lengthAdjust="spacing" textLength="95" x="7" y="343.3633">Zones de p&#234;che :</text><rect fill="#EEEEEE" height="18.9609" style="stroke:#000000;stroke-width:1.0;" width="295" x="108" y="330.4141"/><text fill="#000000" font-family="sans-serif" font-size="12" lengthAdjust="spacing" textLength="201" x="110" y="345.3633">008B00 - CIEM VIIIb (Sud Gascogne)</text><line style="stroke:#000000;stroke-width:1.0;" x1="392" x2="392" y1="330.4141" y2="349.375"/><polygon fill="#000000" points="395,336.4141,401,336.4141,398,344.375" style="stroke:#000000;stroke-width:1.0;"/><path d="M412,335.375 L412,338.375 L409,338.375 L409,340.375 L412,340.375 L412,343.375 L414,343.375 L414,340.375 L417,340.375 L417,338.375 L414,338.375 L414,335.375 L412,335.375 " fill="#000000" style="stroke:;stroke-width:0.0;stroke-dasharray:;"/><text fill="#000000" font-family="sans-serif" font-size="12" lengthAdjust="spacing" textLength="3" x="418" y="343.3633">&#160;</text><path d="M423.41,335.375 L422,336.785 L422.72,337.505 L424.5,339.315 L422.72,341.095 L422,341.785 L423.41,343.225 L424.13,342.505 L425.94,340.695 L427.72,342.505 L428.41,343.225 L429.85,341.785 L429.13,341.095 L427.32,339.315 L429.13,337.505 L429.85,336.785 L428.41,335.375 L427.72,336.095 L425.94,337.875 L424.13,336.095 L423.41,335.375 " fill="#000000" style="stroke:;stroke-width:0.0;stroke-dasharray:;"/><text fill="#000000" font-family="sans-serif" font-size="12" lengthAdjust="spacing" textLength="83" x="6" y="384.2852">Commentaires</text><text fill="#000000" font-family="sans-serif" font-size="12" lengthAdjust="spacing" textLength="3" x="10" y="421.207">&#160;</text><line style="stroke:#000000;stroke-width:1.0;" x1="8" x2="563" y1="424.2188" y2="424.2188"/><line style="stroke:#000000;stroke-width:1.0;" x1="8" x2="8" y1="421.2188" y2="423.2188"/><line style="stroke:#000000;stroke-width:1.0;" x1="563" x2="563" y1="421.2188" y2="423.2188"/><line style="stroke:#000000;stroke-width:1.0;" x1="6" x2="566" y1="389.2969" y2="389.2969"/><line style="stroke:#000000;stroke-width:1.0;" x1="6" x2="566" y1="427.2188" y2="427.2188"/><line style="stroke:#000000;stroke-width:1.0;" x1="6" x2="6" y1="389.2969" y2="407.2578"/><line style="stroke:#000000;stroke-width:1.0;" x1="566" x2="566" y1="407.2578" y2="427.2188"/><line style="stroke:#000000;stroke-width:1.0;" x1="566" x2="566" y1="389.2969" y2="407.2578"/><line style="stroke:#000000;stroke-width:1.0;" x1="6" x2="6" y1="407.2578" y2="427.2188"/><rect fill="#DDDDDD" height="31.9219" style="stroke:#000000;stroke-width:1.0;" width="116" x="458" y="22.9609"/><path d="M465.41,27.9219 L464.72,28.6419 L461.94,31.4219 L461.13,30.6419 L460.41,29.9219 L459,31.3319 L459.72,32.0519 L461.22,33.5519 L461.91,34.2719 L462.63,33.5519 L466.13,30.0519 L466.85,29.3319 L465.41,27.9219 " fill="#000000" style="stroke:;stroke-width:0.0;stroke-dasharray:;"/><text fill="#000000" font-family="sans-serif" font-size="12" lengthAdjust="spacing" textLength="102" x="471" y="35.9102">Remplissage auto</text><text fill="#000000" font-family="sans-serif" font-size="12" lengthAdjust="spacing" textLength="116" x="458" y="51.8711">de la date de la vente</text><!--SRC=[pLJjJjim5FsVfxXY4cgPcYOf81IL29fshAmPg6LCuaSbDtLRiyJE_860mhlivzXhzCLsanO8C4sRnAHPIkJOphd7zvnxzvGcKYkIQ6jk0SnX8AHc57ne2qCafvnUGmsSdRhZrJt7y_2ZEGgY_H0d4VbggAJ4G2pIr71SSht6vjOsV2GNJ59m0Mx0nWUHDy2sRGpnwWDXCK9pFPxH-4i0VPfc2LEAJ2aGemNkZIaa1CP4qzNqWdASt_uBDl_9oEzMgrcvf7N85MkkCpuHGNjnfmbBL96naRWCUa8hQ4u4roXY8kJkA34K5Bkckpi1_bVngWLOeTtSMgLigUy6sWHoYUSmN0bVAqd_V0mVCdxlWvEhh92aqAECrk7nRF5TKeM0x_SZg4CesU8Elt-BrsFKb2LUGjxalXx2ktwxVuPu9ME_H6W_CyaJXFFpUfhM2OvXiJQ4sSnFqvSeXI5BEPrAUhNCgUi4JHP4g0AZ4ZB9UCmoaj1cdGNtTbpjAWnT90EEJbgjGGUfXpEI6DGB2IBw61RVO4Jm83B8-JJNBmFhBoae6YCIoILxuvPOs8-nmwFshsEdGg9N7e9dYL71aiIVSJWJl4XsjlY1nViqVhwdIfj-MVaR3EeuEot7oObrEn6SThlT4LG6PWm7HCLYocbrM9Zy9IihBmzyXTYqKEFyxYetzriezwUrLwd3jMMmMskFyd7HPgtZX73zAUgXmQHYWeDhOsDjsAvR-Kp7CA0Pk0tm7D_RzXiD23k34yWFLAtAmN4Fb30onhGnfIKR6Oq8LUkGN13e6wvPIdquoYW_R7-uNu0Env8KFB-iTNWQFHxOtgorcCQG4hd0QMIrwOIOHECViHWpFlKXp5nloxDwX4yDjbGV9j8A1GBBAnzBwYS0]--></g></svg>