<?xml version="1.0" encoding="us-ascii" standalone="no"?><svg xmlns="http://www.w3.org/2000/svg" xmlns:xlink="http://www.w3.org/1999/xlink" contentStyleType="text/css" height="288px" preserveAspectRatio="none" style="width:582px;height:288px;background:#FFFFFF;" version="1.1" viewBox="0 0 582 288" width="582px" zoomAndPan="magnify"><defs/><g><text fill="#000000" font-family="sans-serif" font-size="12" lengthAdjust="spacing" textLength="146" x="6" y="18.9492">Douarnenez - 08/02/2022 -</text><text fill="#000000" font-family="sans-serif" font-size="12" font-weight="bold" lengthAdjust="spacing" textLength="254" x="155" y="18.9492">MAC - Maquereau commun - 123456 Navire 1</text><line style="stroke:#AAAAAA;stroke-width:1.0;" x1="6" x2="571" y1="27.4609" y2="27.4609"/><text fill="#000000" font-family="sans-serif" font-size="12" font-weight="bold" lengthAdjust="spacing" textLength="39" x="8" y="44.9102">D&#233;tails</text><line style="stroke:#000000;stroke-width:1.0;" x1="6" x2="6" y1="31.9609" y2="47.9219"/><line style="stroke:#000000;stroke-width:1.0;" x1="6" x2="50" y1="31.9609" y2="31.9609"/><line style="stroke:#000000;stroke-width:1.0;" x1="50" x2="50" y1="31.9609" y2="47.9219"/><line style="stroke:#000000;stroke-width:1.0;" x1="50" x2="60" y1="47.9219" y2="47.9219"/><text fill="#000000" font-family="sans-serif" font-size="12" lengthAdjust="spacing" textLength="24" x="62" y="44.9102">Lots</text><line style="stroke:#000000;stroke-width:1.0;" x1="60" x2="60" y1="31.9609" y2="47.9219"/><line style="stroke:#000000;stroke-width:1.0;" x1="60" x2="89" y1="31.9609" y2="31.9609"/><line style="stroke:#000000;stroke-width:1.0;" x1="89" x2="89" y1="31.9609" y2="47.9219"/><line style="stroke:#000000;stroke-width:1.0;" x1="89" x2="99" y1="47.9219" y2="47.9219"/><line style="stroke:#AAAAAA;stroke-width:1.0;stroke-dasharray:1.0,2.0;" x1="6" x2="571" y1="53.4219" y2="53.4219"/><text fill="#000000" font-family="sans-serif" font-size="12" lengthAdjust="spacing" textLength="46" x="7" y="71.8711">Navire* :</text><rect fill="#EEEEEE" height="18.9609" style="stroke:#000000;stroke-width:1.0;" width="295" x="98" y="59.9219"/><text fill="#000000" font-family="sans-serif" font-size="12" lengthAdjust="spacing" textLength="97" x="100" y="74.8711">123456 - Navire 1</text><line style="stroke:#000000;stroke-width:1.0;" x1="382" x2="382" y1="59.9219" y2="78.8828"/><polygon fill="#000000" points="385,65.9219,391,65.9219,388,73.8828" style="stroke:#000000;stroke-width:1.0;"/><text fill="#000000" font-family="sans-serif" font-size="12" lengthAdjust="spacing" textLength="86" x="7" y="113.793">Type de vente* :</text><rect fill="#EEEEEE" height="18.9609" style="stroke:#000000;stroke-width:1.0;" width="295" x="98" y="101.8438"/><text fill="#000000" font-family="sans-serif" font-size="12" lengthAdjust="spacing" textLength="134" x="100" y="116.793">Ench&#232;res - HAM / Cri&#233;es</text><line style="stroke:#000000;stroke-width:1.0;" x1="382" x2="382" y1="101.8438" y2="120.8047"/><polygon fill="#000000" points="385,107.8438,391,107.8438,388,115.8047" style="stroke:#000000;stroke-width:1.0;"/><text fill="#000000" font-family="sans-serif" font-size="12" lengthAdjust="spacing" textLength="84" x="7" y="155.7148">Lieu de vente* :</text><rect fill="#EEEEEE" height="18.9609" style="stroke:#000000;stroke-width:1.0;" width="295" x="98" y="143.7656"/><text fill="#000000" font-family="sans-serif" font-size="12" lengthAdjust="spacing" textLength="100" x="100" y="158.7148">XDZ - Douarnenez</text><line style="stroke:#000000;stroke-width:1.0;" x1="382" x2="382" y1="143.7656" y2="162.7266"/><polygon fill="#000000" points="385,149.7656,391,149.7656,388,157.7266" style="stroke:#000000;stroke-width:1.0;"/><rect fill="#EEEEEE" height="18.9609" style="stroke:#000000;stroke-width:1.0;" width="103" x="398" y="143.7656"/><text fill="#000000" font-family="sans-serif" font-size="12" lengthAdjust="spacing" textLength="62" x="400" y="158.7148">jj/mm/aaaa</text><line style="stroke:#000000;stroke-width:1.0;" x1="490" x2="490" y1="143.7656" y2="162.7266"/><polygon fill="#000000" points="493,149.7656,499,149.7656,496,157.7266" style="stroke:#000000;stroke-width:1.0;"/><rect fill="#EEEEEE" height="18.9609" style="stroke:#000000;stroke-width:1.0;" width="63" x="504" y="143.7656"/><text fill="#000000" font-family="sans-serif" font-size="12" lengthAdjust="spacing" textLength="39" x="506" y="158.7148">hh:mm</text><line style="stroke:#000000;stroke-width:1.0;" x1="556" x2="556" y1="143.7656" y2="162.7266"/><polygon fill="#000000" points="559,149.7656,565,149.7656,562,157.7266" style="stroke:#000000;stroke-width:1.0;"/><text fill="#000000" font-family="sans-serif" font-size="12" lengthAdjust="spacing" textLength="88" x="7" y="197.6367">Zone de p&#234;che :</text><rect fill="#EEEEEE" height="18.9609" style="stroke:#000000;stroke-width:1.0;" width="295" x="97" y="184.6875"/><text fill="#000000" font-family="sans-serif" font-size="12" lengthAdjust="spacing" textLength="201" x="99" y="199.6367">008B00 - CIEM VIIIb (Sud Gascogne)</text><line style="stroke:#000000;stroke-width:1.0;" x1="381" x2="381" y1="184.6875" y2="203.6484"/><polygon fill="#000000" points="384,190.6875,390,190.6875,387,198.6484" style="stroke:#000000;stroke-width:1.0;"/><text fill="#000000" font-family="sans-serif" font-size="12" lengthAdjust="spacing" textLength="83" x="6" y="238.5586">Commentaires</text><text fill="#000000" font-family="sans-serif" font-size="12" lengthAdjust="spacing" textLength="3" x="10" y="275.4805">&#160;</text><line style="stroke:#000000;stroke-width:1.0;" x1="8" x2="563" y1="278.4922" y2="278.4922"/><line style="stroke:#000000;stroke-width:1.0;" x1="8" x2="8" y1="275.4922" y2="277.4922"/><line style="stroke:#000000;stroke-width:1.0;" x1="563" x2="563" y1="275.4922" y2="277.4922"/><line style="stroke:#000000;stroke-width:1.0;" x1="6" x2="566" y1="243.5703" y2="243.5703"/><line style="stroke:#000000;stroke-width:1.0;" x1="6" x2="566" y1="281.4922" y2="281.4922"/><line style="stroke:#000000;stroke-width:1.0;" x1="6" x2="6" y1="243.5703" y2="261.5313"/><line style="stroke:#000000;stroke-width:1.0;" x1="566" x2="566" y1="261.5313" y2="281.4922"/><line style="stroke:#000000;stroke-width:1.0;" x1="566" x2="566" y1="243.5703" y2="261.5313"/><line style="stroke:#000000;stroke-width:1.0;" x1="6" x2="6" y1="261.5313" y2="281.4922"/><!--SRC=[hPBDJjj04CVl-nGZJWcLFqE0MXK2x1GIx1O1ZIeEaJREaYoATyD-H88axmEyHbwiiyIbj5GzzNzOUsPsVZCUpw4sL1bDfuOi240cBLM22VO07eJxGHW7SHZ7Q7mQ7XH7ARuKzCuonQY5KbQL5UYAujPEUnU-q3bN32BaU1uUYm1SMhP-CfHFDImXbqQlCEBxBapmSDhaRKFYZ2KiO503lLSalDC0LdMwNp-lxcSCHWpcJ9ZVQ1rHJjQFYca4dXuL442g-Fe9xN_oSixidxmDy7jsZQWti_fhUvkxS7iRL5L0KGENZfx99Acgz_MkfNZfVxP-BYUihbThYMbXk7ySXbWuxNOAw7UxtI4qBkq8JgWkvLYmvk0DSUMcc-8Vmkufpb2xYNzuBUQq1Vz3MvjYAtB8nEXbaSZvb0hphSXnT4fpAI3oSOjQVjHg56Xbh8GeWkXZ4eT9Um_IpXMuU9CqJivpqDAg4YV1jL5yQ0q2cgH7vnGkh32yOWbydJ7Hoyv-Eg0ZS4saSDzAUltYruNT7U-O6xXa2bk1Va4oTaFjr616AKTSZ1D8Pr7SZabEnTZICS9l54abWjLz0fylVW00]--></g></svg>