<?xml version="1.0" encoding="us-ascii" standalone="no"?><svg xmlns="http://www.w3.org/2000/svg" xmlns:xlink="http://www.w3.org/1999/xlink" contentStyleType="text/css" height="136px" preserveAspectRatio="none" style="width:519px;height:136px;background:#FFFFFF;" version="1.1" viewBox="0 0 519 136" width="519px" zoomAndPan="magnify"><defs/><g><text fill="#000000" font-family="sans-serif" font-size="12" font-weight="bold" lengthAdjust="spacing" textLength="104" x="6" y="18.9492">Erquy - 02/08/2022</text><line style="stroke:#AAAAAA;stroke-width:1.0;" x1="6" x2="512" y1="27.4609" y2="27.4609"/><text fill="#000000" font-family="sans-serif" font-size="12" lengthAdjust="spacing" textLength="39" x="8" y="44.9102">D&#233;tails</text><line style="stroke:#000000;stroke-width:1.0;" x1="6" x2="6" y1="31.9609" y2="47.9219"/><line style="stroke:#000000;stroke-width:1.0;" x1="6" x2="50" y1="31.9609" y2="31.9609"/><line style="stroke:#000000;stroke-width:1.0;" x1="50" x2="50" y1="31.9609" y2="47.9219"/><line style="stroke:#000000;stroke-width:1.0;" x1="50" x2="60" y1="47.9219" y2="47.9219"/><text fill="#000000" font-family="sans-serif" font-size="12" font-weight="bold" lengthAdjust="spacing" textLength="40" x="62" y="44.9102">Ventes</text><line style="stroke:#000000;stroke-width:1.0;" x1="60" x2="60" y1="31.9609" y2="47.9219"/><line style="stroke:#000000;stroke-width:1.0;" x1="60" x2="105" y1="31.9609" y2="31.9609"/><line style="stroke:#000000;stroke-width:1.0;" x1="105" x2="105" y1="31.9609" y2="47.9219"/><line style="stroke:#000000;stroke-width:1.0;" x1="105" x2="115" y1="47.9219" y2="47.9219"/><line style="stroke:#AAAAAA;stroke-width:1.0;stroke-dasharray:1.0,2.0;" x1="6" x2="512" y1="53.4219" y2="53.4219"/><path d="M10,62.8828 L10,65.8828 L7,65.8828 L7,67.8828 L10,67.8828 L10,70.8828 L12,70.8828 L12,67.8828 L15,67.8828 L15,65.8828 L12,65.8828 L12,62.8828 L10,62.8828 " fill="#000000" style="stroke:;stroke-width:0.0;stroke-dasharray:;"/><text fill="#000000" font-family="sans-serif" font-size="12" lengthAdjust="spacing" textLength="3" x="16" y="70.8711">&#160;</text><path d="M24,62.8828 C21.8,62.8828 20,64.6828 20,66.8828 C20,69.0828 21.8,70.8828 24,70.8828 C25.1,70.8828 26.12,70.4528 26.84,69.7228 L26.12,69.0028 C25.58,69.5428 24.83,69.8828 23.99,69.8828 C22.33,69.8828 20.99,68.5428 20.99,66.8828 C20.99,65.2228 22.33,63.8828 23.99,63.8828 C24.82,63.8828 25.54,64.2428 26.08,64.7928 L24.99,65.8828 L27.99,65.8828 L27.99,62.8828 L26.8,64.0728 C26.08,63.3528 25.09,62.8828 23.99,62.8828 " fill="#000000" style="stroke:;stroke-width:0.0;stroke-dasharray:;"/><text fill="#000000" font-family="sans-serif" font-size="12" lengthAdjust="spacing" textLength="3" x="27" y="89.832">.</text><rect fill="none" height="10" style="stroke:#000000;stroke-width:1.5;" width="10" x="9" y="79.8633"/><text fill="#000000" font-family="sans-serif" font-size="12" font-weight="bold" lengthAdjust="spacing" textLength="22" x="32" y="89.832">Etat</text><text fill="#000000" font-family="sans-serif" font-size="12" font-weight="bold" lengthAdjust="spacing" textLength="88" x="56" y="89.832">Lieu de la vente</text><text fill="#000000" font-family="sans-serif" font-size="12" font-weight="bold" lengthAdjust="spacing" textLength="62" x="146" y="89.832">Date/heure</text><text fill="#000000" font-family="sans-serif" font-size="12" font-weight="bold" lengthAdjust="spacing" textLength="61" x="244" y="89.832">Saisisseur</text><text fill="#000000" font-family="sans-serif" font-size="12" font-weight="bold" lengthAdjust="spacing" textLength="103" x="312" y="89.832">R&#233;f&#233;rence au plan</text><text fill="#000000" font-family="sans-serif" font-size="12" lengthAdjust="spacing" textLength="3" x="27" y="107.793">.</text><rect fill="none" height="10" style="stroke:#000000;stroke-width:1.5;" width="10" x="9" y="97.8242"/><text fill="#000000" font-family="sans-serif" font-size="12" font-weight="bold" lengthAdjust="spacing" textLength="6" x="32" y="107.793">&#160;&#160;</text><path d="M45,99.8047 L44,100.8047 L46,102.8047 L47,101.8047 L45,99.8047 M43,101.8047 L39,105.8047 L39,107.8047 L41,107.8047 L45,103.8047 L43,101.8047 " fill="#000000" style="stroke:;stroke-width:0.0;stroke-dasharray:;"/><text fill="#000000" font-family="sans-serif" font-size="12" lengthAdjust="spacing" textLength="65" x="56" y="107.793">ESB - Erquy</text><text fill="#000000" font-family="sans-serif" font-size="12" lengthAdjust="spacing" textLength="96" x="146" y="107.793">02/08/2022 05:00</text><text fill="#000000" font-family="sans-serif" font-size="12" lengthAdjust="spacing" textLength="66" x="244" y="107.793">saisisseur1</text><text fill="#000000" font-family="sans-serif" font-size="12" lengthAdjust="spacing" textLength="186" x="312" y="107.793">2021_V0010 - DPMA_20_23_Lot2</text><text fill="#000000" font-family="sans-serif" font-size="12" lengthAdjust="spacing" textLength="3" x="27" y="125.7539">.</text><rect fill="none" height="10" style="stroke:#000000;stroke-width:1.5;" width="10" x="9" y="115.7852"/><text fill="#000000" font-family="sans-serif" font-size="12" font-weight="bold" lengthAdjust="spacing" textLength="6" x="32" y="125.7539">&#160;&#160;</text><path d="M45,117.7656 L44,118.7656 L46,120.7656 L47,119.7656 L45,117.7656 M43,119.7656 L39,123.7656 L39,125.7656 L41,125.7656 L45,121.7656 L43,119.7656 " fill="#000000" style="stroke:;stroke-width:0.0;stroke-dasharray:;"/><text fill="#000000" font-family="sans-serif" font-size="12" lengthAdjust="spacing" textLength="65" x="56" y="125.7539">ESB - Erquy</text><text fill="#000000" font-family="sans-serif" font-size="12" lengthAdjust="spacing" textLength="96" x="146" y="125.7539">02/08/2022 05:00</text><text fill="#000000" font-family="sans-serif" font-size="12" lengthAdjust="spacing" textLength="66" x="244" y="125.7539">saisisseur1</text><text fill="#000000" font-family="sans-serif" font-size="12" lengthAdjust="spacing" textLength="186" x="312" y="125.7539">2021_V0011 - DPMA_20_23_Lot1</text><path d="M501.09,112.8047 C501.03,112.8047 501,112.8447 501,112.8947 L501,118.7047 C501,118.7547 501.04,118.7947 501.09,118.7947 L507,118.7947 L509,120.7947 L509,112.8847 C509,112.8247 508.96,112.7947 508.91,112.7947 L501.1,112.7947 " fill="#000000" style="stroke:;stroke-width:0.0;stroke-dasharray:;"/><line style="stroke:#000000;stroke-width:1.0;" x1="6" x2="31" y1="75.8828" y2="75.8828"/><line style="stroke:#000000;stroke-width:1.0;" x1="31" x2="55" y1="75.8828" y2="75.8828"/><line style="stroke:#000000;stroke-width:1.0;" x1="55" x2="145" y1="75.8828" y2="75.8828"/><line style="stroke:#000000;stroke-width:1.0;" x1="145" x2="243" y1="75.8828" y2="75.8828"/><line style="stroke:#000000;stroke-width:1.0;" x1="243" x2="311" y1="75.8828" y2="75.8828"/><line style="stroke:#000000;stroke-width:1.0;" x1="311" x2="499" y1="75.8828" y2="75.8828"/><line style="stroke:#000000;stroke-width:1.0;" x1="499" x2="511" y1="75.8828" y2="75.8828"/><line style="stroke:#000000;stroke-width:1.0;" x1="6" x2="31" y1="129.7656" y2="129.7656"/><line style="stroke:#000000;stroke-width:1.0;" x1="31" x2="55" y1="129.7656" y2="129.7656"/><line style="stroke:#000000;stroke-width:1.0;" x1="55" x2="145" y1="129.7656" y2="129.7656"/><line style="stroke:#000000;stroke-width:1.0;" x1="145" x2="243" y1="129.7656" y2="129.7656"/><line style="stroke:#000000;stroke-width:1.0;" x1="243" x2="311" y1="129.7656" y2="129.7656"/><line style="stroke:#000000;stroke-width:1.0;" x1="311" x2="499" y1="129.7656" y2="129.7656"/><line style="stroke:#000000;stroke-width:1.0;" x1="499" x2="511" y1="129.7656" y2="129.7656"/><line style="stroke:#000000;stroke-width:1.0;" x1="6" x2="31" y1="111.8047" y2="111.8047"/><line style="stroke:#000000;stroke-width:1.0;" x1="31" x2="55" y1="111.8047" y2="111.8047"/><line style="stroke:#000000;stroke-width:1.0;" x1="55" x2="145" y1="111.8047" y2="111.8047"/><line style="stroke:#000000;stroke-width:1.0;" x1="145" x2="243" y1="111.8047" y2="111.8047"/><line style="stroke:#000000;stroke-width:1.0;" x1="243" x2="311" y1="111.8047" y2="111.8047"/><line style="stroke:#000000;stroke-width:1.0;" x1="311" x2="499" y1="111.8047" y2="111.8047"/><line style="stroke:#000000;stroke-width:1.0;" x1="499" x2="511" y1="111.8047" y2="111.8047"/><line style="stroke:#000000;stroke-width:1.0;" x1="6" x2="31" y1="93.8438" y2="93.8438"/><line style="stroke:#000000;stroke-width:1.0;" x1="31" x2="55" y1="93.8438" y2="93.8438"/><line style="stroke:#000000;stroke-width:1.0;" x1="55" x2="145" y1="93.8438" y2="93.8438"/><line style="stroke:#000000;stroke-width:1.0;" x1="145" x2="243" y1="93.8438" y2="93.8438"/><line style="stroke:#000000;stroke-width:1.0;" x1="243" x2="311" y1="93.8438" y2="93.8438"/><line style="stroke:#000000;stroke-width:1.0;" x1="311" x2="499" y1="93.8438" y2="93.8438"/><line style="stroke:#000000;stroke-width:1.0;" x1="499" x2="511" y1="93.8438" y2="93.8438"/><line style="stroke:#000000;stroke-width:1.0;" x1="6" x2="6" y1="75.8828" y2="93.8438"/><line style="stroke:#000000;stroke-width:1.0;" x1="55" x2="55" y1="111.8047" y2="129.7656"/><line style="stroke:#000000;stroke-width:1.0;" x1="31" x2="31" y1="75.8828" y2="93.8438"/><line style="stroke:#000000;stroke-width:1.0;" x1="145" x2="145" y1="111.8047" y2="129.7656"/><line style="stroke:#000000;stroke-width:1.0;" x1="55" x2="55" y1="75.8828" y2="93.8438"/><line style="stroke:#000000;stroke-width:1.0;" x1="243" x2="243" y1="111.8047" y2="129.7656"/><line style="stroke:#000000;stroke-width:1.0;" x1="145" x2="145" y1="75.8828" y2="93.8438"/><line style="stroke:#000000;stroke-width:1.0;" x1="311" x2="311" y1="111.8047" y2="129.7656"/><line style="stroke:#000000;stroke-width:1.0;" x1="243" x2="243" y1="75.8828" y2="93.8438"/><line style="stroke:#000000;stroke-width:1.0;" x1="499" x2="499" y1="111.8047" y2="129.7656"/><line style="stroke:#000000;stroke-width:1.0;" x1="511" x2="511" y1="111.8047" y2="129.7656"/><line style="stroke:#000000;stroke-width:1.0;" x1="311" x2="311" y1="75.8828" y2="93.8438"/><line style="stroke:#000000;stroke-width:1.0;" x1="499" x2="499" y1="75.8828" y2="93.8438"/><line style="stroke:#000000;stroke-width:1.0;" x1="511" x2="511" y1="75.8828" y2="93.8438"/><line style="stroke:#000000;stroke-width:1.0;" x1="6" x2="6" y1="93.8438" y2="111.8047"/><line style="stroke:#000000;stroke-width:1.0;" x1="31" x2="31" y1="93.8438" y2="111.8047"/><line style="stroke:#000000;stroke-width:1.0;" x1="55" x2="55" y1="93.8438" y2="111.8047"/><line style="stroke:#000000;stroke-width:1.0;" x1="145" x2="145" y1="93.8438" y2="111.8047"/><line style="stroke:#000000;stroke-width:1.0;" x1="243" x2="243" y1="93.8438" y2="111.8047"/><line style="stroke:#000000;stroke-width:1.0;" x1="311" x2="311" y1="93.8438" y2="111.8047"/><line style="stroke:#000000;stroke-width:1.0;" x1="499" x2="499" y1="93.8438" y2="111.8047"/><line style="stroke:#000000;stroke-width:1.0;" x1="511" x2="511" y1="93.8438" y2="111.8047"/><line style="stroke:#000000;stroke-width:1.0;" x1="6" x2="6" y1="111.8047" y2="129.7656"/><line style="stroke:#000000;stroke-width:1.0;" x1="31" x2="31" y1="111.8047" y2="129.7656"/><!--SRC=[jL7RJi9047rsls8I4wCFBTj5l3IaKMarmJOIK5wC8GjTS9EonRsG6EI3-0v-p2dr5dss3zkTSsREcPczC9PhQtXXoOe0jCTHeb_SAtX0MOEUDHXb377FmsFLW7YxiLmM1jwgrA5GLXXO8-VxLVN1ed0cmhyMHSdpY92zrJv11hz7UFBhiiHoMzzIAHpa0WeEoqghHcDkHUDPEFqH3xWqqXW4whY_tKot6otKH01ti2YuGiB_RRFh1vDa4I6G3Avmg7gujn_30Ms5b29albm2Z90AHaDA0ufLSI-x734wOirHMbhsFqR17wEARXzColaST-EP5yUrY7RcQqBMv4AeVFTmf8SRi0zPYalKHfOA0XzbctxGFCmmYiK4K3uu3naDMwVGIUuhs-OHERpffM1Aft6JkJHMox6pA714kdp9eU-KbNCHmXsErurlFm58r5BgKbLzaUum-quuEVQkf8M1qDWA33CIYobtXSMAIPbBDGkXimXOYv6KgvdZCnIVQj8fKLY_Xd3TVmS0]--></g></svg>