<?xml version="1.0" encoding="us-ascii" standalone="no"?><svg xmlns="http://www.w3.org/2000/svg" xmlns:xlink="http://www.w3.org/1999/xlink" contentStyleType="text/css" height="565px" preserveAspectRatio="none" style="width:782px;height:565px;background:#FFFFFF;" version="1.1" viewBox="0 0 782 565" width="782px" zoomAndPan="magnify"><defs/><g><text fill="#000000" font-family="sans-serif" font-size="12" font-weight="bold" lengthAdjust="spacing" textLength="82" x="6" y="18.9492">Nouvelle vente</text><line style="stroke:#AAAAAA;stroke-width:1.0;" x1="6" x2="775" y1="27.4609" y2="27.4609"/><text fill="#000000" font-family="sans-serif" font-size="12" font-weight="bold" lengthAdjust="spacing" textLength="39" x="8" y="44.9102">D&#233;tails</text><line style="stroke:#000000;stroke-width:1.0;" x1="6" x2="6" y1="31.9609" y2="47.9219"/><line style="stroke:#000000;stroke-width:1.0;" x1="6" x2="50" y1="31.9609" y2="31.9609"/><line style="stroke:#000000;stroke-width:1.0;" x1="50" x2="50" y1="31.9609" y2="47.9219"/><line style="stroke:#000000;stroke-width:1.0;" x1="50" x2="60" y1="47.9219" y2="47.9219"/><text fill="#000000" font-family="sans-serif" font-size="12" lengthAdjust="spacing" textLength="96" x="62" y="44.9102">Echantillonnages</text><line style="stroke:#000000;stroke-width:1.0;" x1="60" x2="60" y1="31.9609" y2="47.9219"/><line style="stroke:#000000;stroke-width:1.0;" x1="60" x2="161" y1="31.9609" y2="31.9609"/><line style="stroke:#000000;stroke-width:1.0;" x1="161" x2="161" y1="31.9609" y2="47.9219"/><line style="stroke:#000000;stroke-width:1.0;" x1="161" x2="171" y1="47.9219" y2="47.9219"/><line style="stroke:#AAAAAA;stroke-width:1.0;stroke-dasharray:1.0,2.0;" x1="6" x2="775" y1="53.4219" y2="53.4219"/><text fill="#000000" font-family="sans-serif" font-size="12" lengthAdjust="spacing" textLength="139" x="7" y="89.832">Programme de collecte* :</text><rect fill="#EEEEEE" height="18.9609" style="stroke:#000000;stroke-width:1.0;" width="375" x="179" y="77.8828"/><text fill="#000000" font-family="sans-serif" font-size="12" lengthAdjust="spacing" textLength="88" x="181" y="92.832">SIH-OBSVENTE</text><line style="stroke:#000000;stroke-width:1.0;" x1="543" x2="543" y1="77.8828" y2="96.8438"/><polygon fill="#000000" points="546,83.8828,552,83.8828,549,91.8438" style="stroke:#000000;stroke-width:1.0;"/><text fill="#000000" font-family="sans-serif" font-size="12" lengthAdjust="spacing" textLength="200" x="559" y="106.793">ObsVente d&#233;marrage au 01/01/2024</text><path d="M767.03,98.8047 C764.5,98.8047 763,101.8047 763,101.8047 C763,101.8047 764.5,104.8047 767.03,104.8047 C769.5,104.8047 771,101.8047 771,101.8047 C771,101.8047 769.5,98.8047 767.03,98.8047 M767,99.8047 C768.11,99.8047 769,100.7047 769,101.8047 C769,102.9147 768.11,103.8047 767,103.8047 C765.9,103.8047 765,102.9147 765,101.8047 C765,100.7047 765.9,99.8047 767,99.8047 M767,100.8047 C766.45,100.8047 766,101.2547 766,101.8047 C766,102.3547 766.45,102.8047 767,102.8047 C767.55,102.8047 768,102.3547 768,101.8047 C768,101.7047 767.96,101.6147 767.94,101.5247 C767.86,101.6847 767.7,101.8047 767.5,101.8047 C767.22,101.8047 767,101.5847 767,101.3047 C767,101.1047 767.12,100.9447 767.28,100.8647 C767.19,100.8347 767.1,100.8047 767,100.8047 " fill="#000000" style="stroke:;stroke-width:0.0;stroke-dasharray:;"/><line style="stroke:#000000;stroke-width:1.0;" x1="558" x2="773" y1="84.8633" y2="84.8633"/><line style="stroke:#000000;stroke-width:1.0;" x1="558" x2="773" y1="110.8047" y2="110.8047"/><line style="stroke:#000000;stroke-width:1.0;" x1="558" x2="558" y1="84.8633" y2="110.8047"/><line style="stroke:#000000;stroke-width:1.0;" x1="773" x2="773" y1="84.8633" y2="110.8047"/><rect fill="#FFFFFF" height="15.9609" style="stroke:#FFFFFF;stroke-width:1.0;" width="49" x="564" y="76.8828"/><text fill="#000000" font-family="sans-serif" font-size="12" lengthAdjust="spacing" textLength="49" x="564" y="89.832">Strat&#233;gie</text><text fill="#000000" font-family="sans-serif" font-size="12" lengthAdjust="spacing" textLength="68" x="7" y="141.7148">R&#233;f&#233;rence* :</text><rect fill="#EEEEEE" height="18.9609" style="stroke:#000000;stroke-width:1.0;" width="239" x="178" y="128.7656"/><text fill="#000000" font-family="sans-serif" font-size="12" lengthAdjust="spacing" textLength="186" x="180" y="143.7148">2021_V0010 - DPMA_20_23_Lot2</text><line style="stroke:#000000;stroke-width:1.0;" x1="406" x2="406" y1="128.7656" y2="147.7266"/><polygon fill="#000000" points="409,134.7656,415,134.7656,412,142.7266" style="stroke:#000000;stroke-width:1.0;"/><text fill="#000000" font-family="sans-serif" font-size="12" lengthAdjust="spacing" textLength="147" x="559" y="158.6758">Nicolas DUPOND - Ifremer</text><line style="stroke:#000000;stroke-width:1.0;" x1="558" x2="707" y1="136.7461" y2="136.7461"/><line style="stroke:#000000;stroke-width:1.0;" x1="558" x2="707" y1="162.6875" y2="162.6875"/><line style="stroke:#000000;stroke-width:1.0;" x1="558" x2="558" y1="136.7461" y2="162.6875"/><line style="stroke:#000000;stroke-width:1.0;" x1="707" x2="707" y1="136.7461" y2="162.6875"/><rect fill="#FFFFFF" height="15.9609" style="stroke:#FFFFFF;stroke-width:1.0;" width="60" x="564" y="128.7656"/><text fill="#000000" font-family="sans-serif" font-size="12" lengthAdjust="spacing" textLength="60" x="564" y="141.7148">Saisisseur</text><text fill="#000000" font-family="sans-serif" font-size="12" lengthAdjust="spacing" textLength="169" x="7" y="193.5977">Programme de rattachement* :</text><rect fill="#EEEEEE" height="18.9609" style="stroke:#000000;stroke-width:1.0;" width="135" x="178" y="180.6484"/><text fill="#000000" font-family="sans-serif" font-size="12" lengthAdjust="spacing" textLength="106" x="180" y="195.5977">DPMA_20_23_Lot2</text><line style="stroke:#000000;stroke-width:1.0;" x1="302" x2="302" y1="180.6484" y2="199.6094"/><polygon fill="#000000" points="305,186.6484,311,186.6484,308,194.6094" style="stroke:#000000;stroke-width:1.0;"/><path d="M559,185.6094 L559,187.6094 L566,187.6094 L566,185.6094 L559,185.6094 M559,188.6094 L559,193.5194 C559,193.5694 559.04,193.6094 559.09,193.6094 L565.9,193.6094 C565.95,193.6094 565.99,193.5694 565.99,193.5194 L565.99,188.6094 L558.99,188.6094 M560,189.6094 L561,189.6094 L561,190.6094 L560,190.6094 L560,189.6094 M562,189.6094 L563,189.6094 L563,190.6094 L562,190.6094 L562,189.6094 M564,189.6094 L565,189.6094 L565,190.6094 L564,190.6094 L564,189.6094 M560,191.6094 L561,191.6094 L561,192.6094 L560,192.6094 L560,191.6094 M562,191.6094 L563,191.6094 L563,192.6094 L562,192.6094 L562,191.6094 " fill="#000000" style="stroke:;stroke-width:0.0;stroke-dasharray:;"/><text fill="#000000" font-family="sans-serif" font-size="12" lengthAdjust="spacing" textLength="105" x="571" y="193.5977">Cr&#233;&#233; le 10/11/2023</text><text fill="#000000" font-family="sans-serif" font-size="12" lengthAdjust="spacing" textLength="85" x="7" y="233.5195">Observateurs* :</text><rect fill="#EEEEEE" height="18.9609" style="stroke:#000000;stroke-width:1.0;" width="199" x="178" y="220.5703"/><text fill="#000000" font-family="sans-serif" font-size="12" lengthAdjust="spacing" textLength="84" x="180" y="235.5195">Observateur #1</text><line style="stroke:#000000;stroke-width:1.0;" x1="366" x2="366" y1="220.5703" y2="239.5313"/><polygon fill="#000000" points="369,226.5703,375,226.5703,372,234.5313" style="stroke:#000000;stroke-width:1.0;"/><rect fill="#EEEEEE" height="12" rx="5" ry="5" style="stroke:#000000;stroke-width:2.5;" width="20" x="385.5" y="224.0703"/><path d="M394.5,226.0703 L394.5,229.0703 L391.5,229.0703 L391.5,231.0703 L394.5,231.0703 L394.5,234.0703 L396.5,234.0703 L396.5,231.0703 L399.5,231.0703 L399.5,229.0703 L396.5,229.0703 L396.5,226.0703 L394.5,226.0703 " fill="#000000" style="stroke:;stroke-width:0.0;stroke-dasharray:;"/><rect fill="#EEEEEE" height="12" rx="5" ry="5" style="stroke:#000000;stroke-width:2.5;" width="20" x="412.5" y="224.0703"/><path d="M419.91,226.0703 L418.5,227.4803 L419.22,228.2003 L421,230.0103 L419.22,231.7903 L418.5,232.4803 L419.91,233.9203 L420.63,233.2003 L422.44,231.3903 L424.22,233.2003 L424.91,233.9203 L426.35,232.4803 L425.63,231.7903 L423.82,230.0103 L425.63,228.2003 L426.35,227.4803 L424.91,226.0703 L424.22,226.7903 L422.44,228.5703 L420.63,226.7903 L419.91,226.0703 " fill="#000000" style="stroke:;stroke-width:0.0;stroke-dasharray:;"/><path d="M559,225.5313 L559,227.5313 L566,227.5313 L566,225.5313 L559,225.5313 M559,228.5313 L559,233.4413 C559,233.4913 559.04,233.5313 559.09,233.5313 L565.9,233.5313 C565.95,233.5313 565.99,233.4913 565.99,233.4413 L565.99,228.5313 L558.99,228.5313 M560,229.5313 L561,229.5313 L561,230.5313 L560,230.5313 L560,229.5313 M562,229.5313 L563,229.5313 L563,230.5313 L562,230.5313 L562,229.5313 M564,229.5313 L565,229.5313 L565,230.5313 L564,230.5313 L564,229.5313 M560,231.5313 L561,231.5313 L561,232.5313 L560,232.5313 L560,231.5313 M562,231.5313 L563,231.5313 L563,232.5313 L562,232.5313 L562,231.5313 " fill="#000000" style="stroke:;stroke-width:0.0;stroke-dasharray:;"/><text fill="#000000" font-family="sans-serif" font-size="12" lengthAdjust="spacing" textLength="131" x="571" y="233.5195">Mis &#224; jour le 10/11/2023</text><text fill="#000000" font-family="sans-serif" font-size="12" lengthAdjust="spacing" textLength="70" x="7" y="273.4414">Lieu / Date* :</text><rect fill="#EEEEEE" height="18.9609" style="stroke:#000000;stroke-width:1.0;" width="199" x="179" y="261.4922"/><text fill="#000000" font-family="sans-serif" font-size="12" lengthAdjust="spacing" textLength="102" x="181" y="276.4414">DRZ - Douarnenez</text><line style="stroke:#000000;stroke-width:1.0;" x1="367" x2="367" y1="261.4922" y2="280.4531"/><polygon fill="#000000" points="370,267.4922,376,267.4922,373,275.4531" style="stroke:#000000;stroke-width:1.0;"/><rect fill="#EEEEEE" height="18.9609" style="stroke:#000000;stroke-width:1.0;" width="103" x="383" y="261.4922"/><text fill="#000000" font-family="sans-serif" font-size="12" lengthAdjust="spacing" textLength="62" x="385" y="276.4414">jj/mm/aaaa</text><line style="stroke:#000000;stroke-width:1.0;" x1="475" x2="475" y1="261.4922" y2="280.4531"/><polygon fill="#000000" points="478,267.4922,484,267.4922,481,275.4531" style="stroke:#000000;stroke-width:1.0;"/><rect fill="#EEEEEE" height="18.9609" style="stroke:#000000;stroke-width:1.0;" width="63" x="489" y="261.4922"/><text fill="#000000" font-family="sans-serif" font-size="12" lengthAdjust="spacing" textLength="39" x="491" y="276.4414">hh:mm</text><line style="stroke:#000000;stroke-width:1.0;" x1="541" x2="541" y1="261.4922" y2="280.4531"/><polygon fill="#000000" points="544,267.4922,550,267.4922,547,275.4531" style="stroke:#000000;stroke-width:1.0;"/><rect fill="#EEEEEE" height="19.9609" rx="5" ry="5" style="stroke:#000000;stroke-width:2.5;" width="148" x="560.5" y="262.9922"/><text fill="#000000" font-family="sans-serif" font-size="12" lengthAdjust="spacing" textLength="100" x="584.5" y="277.9414">Terminer la saisie</text><text fill="#000000" font-family="sans-serif" font-size="12" lengthAdjust="spacing" textLength="86" x="7" y="300.4023">Type de vente* :</text><rect fill="#EEEEEE" height="18.9609" style="stroke:#000000;stroke-width:1.0;" width="199" x="179" y="288.4531"/><text fill="#000000" font-family="sans-serif" font-size="12" lengthAdjust="spacing" textLength="134" x="181" y="303.4023">Ench&#232;res - HAM / Cri&#233;es</text><line style="stroke:#000000;stroke-width:1.0;" x1="367" x2="367" y1="288.4531" y2="307.4141"/><polygon fill="#000000" points="370,294.4531,376,294.4531,373,302.4141" style="stroke:#000000;stroke-width:1.0;"/><text fill="#000000" font-family="sans-serif" font-size="12" font-weight="bold" lengthAdjust="spacing" textLength="101" x="6" y="343.3242">Caract&#233;ristiques :</text><text fill="#000000" font-family="sans-serif" font-size="12" lengthAdjust="spacing" textLength="217" x="12" y="362.2852">Temps disponible &#224; l'&#233;chantillonnage* :</text><text fill="#000000" font-family="sans-serif" font-size="12" lengthAdjust="spacing" textLength="17" x="234" y="362.2852">4.0</text><line style="stroke:#000000;stroke-width:1.0;" x1="232" x2="259" y1="365.2969" y2="365.2969"/><line style="stroke:#000000;stroke-width:1.0;" x1="232" x2="232" y1="362.2969" y2="364.2969"/><line style="stroke:#000000;stroke-width:1.0;" x1="259" x2="259" y1="362.2969" y2="364.2969"/><text fill="#000000" font-family="sans-serif" font-size="12" lengthAdjust="spacing" textLength="169" x="12" y="382.2461">Programme de rattachement* :</text><rect fill="#EEEEEE" height="18.9609" style="stroke:#000000;stroke-width:1.0;" width="135" x="231" y="369.2969"/><text fill="#000000" font-family="sans-serif" font-size="12" lengthAdjust="spacing" textLength="106" x="233" y="384.2461">DPMA_20_23_Lot2</text><line style="stroke:#000000;stroke-width:1.0;" x1="355" x2="355" y1="369.2969" y2="388.2578"/><polygon fill="#000000" points="358,375.2969,364,375.2969,361,383.2578" style="stroke:#000000;stroke-width:1.0;"/><text fill="#000000" font-family="sans-serif" font-size="12" lengthAdjust="spacing" textLength="160" x="12" y="404.207">Strat&#233;gie d'&#233;chantillonnage* :</text><rect fill="#EEEEEE" height="18.9609" style="stroke:#000000;stroke-width:1.0;" width="503" x="231" y="391.2578"/><text fill="#000000" font-family="sans-serif" font-size="12" lengthAdjust="spacing" textLength="359" x="233" y="406.207">Simultan&#233; : Toutes esp&#232;ces commerciales - Simultan&#233; - Complet</text><line style="stroke:#000000;stroke-width:1.0;" x1="723" x2="723" y1="391.2578" y2="410.2188"/><polygon fill="#000000" points="726,397.2578,732,397.2578,729,405.2188" style="stroke:#000000;stroke-width:1.0;"/><text fill="#000000" font-family="sans-serif" font-size="12" lengthAdjust="spacing" textLength="133" x="12" y="426.168">Validation observateur* :</text><rect fill="#EEEEEE" height="18.9609" style="stroke:#000000;stroke-width:1.0;" width="159" x="231" y="413.2188"/><text fill="#000000" font-family="sans-serif" font-size="12" lengthAdjust="spacing" textLength="112" x="233" y="428.168">Donn&#233;es contr&#244;l&#233;es</text><line style="stroke:#000000;stroke-width:1.0;" x1="379" x2="379" y1="413.2188" y2="432.1797"/><polygon fill="#000000" points="382,419.2188,388,419.2188,385,427.1797" style="stroke:#000000;stroke-width:1.0;"/><text fill="#000000" font-family="sans-serif" font-size="12" lengthAdjust="spacing" textLength="108" x="12" y="448.1289">Validation soci&#233;t&#233;* :</text><rect fill="#EEEEEE" height="18.9609" style="stroke:#000000;stroke-width:1.0;" width="135" x="231" y="435.1797"/><text fill="#000000" font-family="sans-serif" font-size="12" lengthAdjust="spacing" textLength="93" x="233" y="450.1289">Donn&#233;es valides</text><line style="stroke:#000000;stroke-width:1.0;" x1="355" x2="355" y1="435.1797" y2="454.1406"/><polygon fill="#000000" points="358,441.1797,364,441.1797,361,449.1406" style="stroke:#000000;stroke-width:1.0;"/><text fill="#000000" font-family="sans-serif" font-size="12" font-weight="bold" lengthAdjust="spacing" textLength="90" x="7" y="490.0508">Commentaires :</text><text fill="#000000" font-family="sans-serif" font-size="12" lengthAdjust="spacing" textLength="3" x="11" y="526.9727">&#160;</text><line style="stroke:#000000;stroke-width:1.0;" x1="9" x2="516" y1="529.9844" y2="529.9844"/><line style="stroke:#000000;stroke-width:1.0;" x1="9" x2="9" y1="526.9844" y2="528.9844"/><line style="stroke:#000000;stroke-width:1.0;" x1="516" x2="516" y1="526.9844" y2="528.9844"/><line style="stroke:#000000;stroke-width:1.0;" x1="7" x2="519" y1="495.0625" y2="495.0625"/><line style="stroke:#000000;stroke-width:1.0;" x1="7" x2="519" y1="532.9844" y2="532.9844"/><line style="stroke:#000000;stroke-width:1.0;" x1="7" x2="7" y1="495.0625" y2="513.0234"/><line style="stroke:#000000;stroke-width:1.0;" x1="519" x2="519" y1="513.0234" y2="532.9844"/><line style="stroke:#000000;stroke-width:1.0;" x1="519" x2="519" y1="495.0625" y2="513.0234"/><line style="stroke:#000000;stroke-width:1.0;" x1="7" x2="7" y1="513.0234" y2="532.9844"/><rect fill="#EEEEEE" height="19.9609" rx="5" ry="5" style="stroke:#000000;stroke-width:2.5;" width="52" x="9.5" y="539.4844"/><text fill="#000000" font-family="sans-serif" font-size="12" lengthAdjust="spacing" textLength="40" x="15.5" y="554.4336">Fermer</text><rect fill="#EEEEEE" height="19.9609" rx="5" ry="5" style="stroke:#000000;stroke-width:2.5;" width="92" x="68.5" y="539.4844"/><text fill="#000000" font-family="sans-serif" font-size="12" lengthAdjust="spacing" textLength="70" x="79.5" y="554.4336">Sauvegarder</text><!--SRC=[jLJDJjj04BxxAKQfH84gYMsWLQq80N4eq8H49EHGHD36tYIBx5rtTnsLGjwbHtpl6_Z5Ecj24X2b1zILPUtFpCxCztspUqeJgHM9j7Lh0TI6kwSYdT8eeZ2bN5FSAvVnTrirPtwUQS8Y1NVG22Q4QnP5WdCofWfcQ5Mfc9ynj_1dHaUAiIHnJ26a40YyDz1q4pnpTWUtCEWU7vNR1zr-uxJNW7-D0SpGQzDu3afTBOdEip6Z9Gl-wsWFLT-00M6UnKHAh1T82hPJnS-rtMsehT4RkeiOp3CvoxDHdadAWwBOEnYWcNFLjst7XZBudTR-bMjVkLjNJQ7TmKfHX2cc54tbMuewPGWrKU2VTzgdFWOy7aaQKmdB39yGWq1g4apGXEjvldz9iROMa8ZoaCXTgCiyopD0gJXsrIcGs9hVNh4Mo54v9HhhKNFM7mV6M3s6TywIPQECYzfQ4gLgzn9NEF-1azcp15fCGVuBhWMwlvP5az4Kgk2JXVGUjEUVVJDaY9H8JZdz-KHbU0xNrzKuhX8S0-E2EvE95ySF1XSzAcF64TM8W3AyqSjvmDvDKk1QjD13oEB21Wyc-Rt4RYd3qNuBSwfBbcTK3MOhAHSSORVLYIG1AbmofTdt5Bqyg-YjkIdUsQDneY1aAX6S3H43X2DwdsTFcnCpk8FITiKkhRY-AW1uIG8hpilUW_2bSCQzo-8qqeIZH3peYLHZ0LGb-Ns0aq1WP1amvDA0iM9RXhg8auZgrNXz4h6GQ2OuYALc7gMAOGs8U2dNClyT5OY-xAr4W81ZwizzfyRcgTk2YpdYXXAJDiStK3woWUFsmq9f0AKtlZLpYcQBs71nY3gZikY3Bi77UKnaQDOpQsRjOIiKhxVLYP23yrOJHIULATMfc5QeE5lhBLpvD0370UUpvzhUpYUeDtfWpZUizI-T9kAIoe0Q9Md9Xgd1QiCw8LC2PobI6rCFsWdb9_xNnmrey2cJWXiyh9D-QsdmSRjym3HqaIPiZdxBykc88Bte4OYGyR47zSHnTrohIVWuHSLuC99MNU35yiQ3mxC_]--></g></svg>