<?xml version="1.0" encoding="UTF-8" standalone="no"?><svg xmlns="http://www.w3.org/2000/svg" xmlns:xlink="http://www.w3.org/1999/xlink" contentScriptType="application/ecmascript" contentStyleType="text/css" height="108px" preserveAspectRatio="none" style="width:235px;height:108px;" version="1.1" viewBox="0 0 235 108" width="235px" zoomAndPan="magnify"><defs><filter height="300%" id="f9bptdqzt1gpj" width="300%" x="-1" y="-1"><feGaussianBlur result="blurOut" stdDeviation="2.0"/><feColorMatrix in="blurOut" result="blurOut2" type="matrix" values="0 0 0 0 0 0 0 0 0 0 0 0 0 0 0 0 0 0 .4 0"/><feOffset dx="4.0" dy="4.0" in="blurOut2" result="blurOut3"/><feBlend in="SourceGraphic" in2="blurOut3" mode="normal"/></filter></defs><g><!--class Status--><rect fill="#FEFECE" filter="url(#f9bptdqzt1gpj)" height="89.5078" id="Status" style="stroke: #A80036; stroke-width: 1.5;" width="83" x="6" y="8"/><ellipse cx="28.2" cy="24" fill="#ADD1B2" rx="11" ry="11" style="stroke: #A80036; stroke-width: 1.0;"/><path d="M30.9656,19.875 Q31.1219,19.6563 31.3094,19.5469 Q31.4969,19.4375 31.7156,19.4375 Q32.0906,19.4375 32.325,19.6953 Q32.5594,19.9531 32.5594,20.5625 L32.5594,22.0156 Q32.5594,22.625 32.325,22.8906 Q32.0906,23.1563 31.7156,23.1563 Q31.3719,23.1563 31.1688,22.9531 Q30.9656,22.7656 30.8563,22.25 Q30.8094,21.8906 30.6219,21.7031 Q30.2938,21.3281 29.6844,21.1094 Q29.075,20.8906 28.45,20.8906 Q27.6844,20.8906 27.0516,21.2188 Q26.4188,21.5469 25.9266,22.2969 Q25.4344,23.0469 25.4344,24.0781 L25.4344,25.1719 Q25.4344,26.4063 26.325,27.2266 Q27.2156,28.0469 28.8094,28.0469 Q29.7469,28.0469 30.4031,27.7969 Q30.7938,27.6406 31.2156,27.2031 Q31.4813,26.9375 31.6297,26.8594 Q31.7781,26.7813 31.9813,26.7813 Q32.3094,26.7813 32.5672,27.0391 Q32.825,27.2969 32.825,27.6406 Q32.825,27.9844 32.4813,28.3906 Q31.9813,28.9688 31.1844,29.2969 Q30.1063,29.75 28.8094,29.75 Q27.2938,29.75 26.0906,29.125 Q25.1063,28.625 24.4188,27.5547 Q23.7313,26.4844 23.7313,25.2031 L23.7313,24.0469 Q23.7313,22.7188 24.3484,21.5703 Q24.9656,20.4219 26.0594,19.8047 Q27.1531,19.1875 28.3875,19.1875 Q29.1219,19.1875 29.7703,19.3516 Q30.4188,19.5156 30.9656,19.875 Z "/><text fill="#000000" font-family="sans-serif" font-size="12" lengthAdjust="spacingAndGlyphs" textLength="35" x="43.8" y="28.9102">Status</text><line style="stroke: #A80036; stroke-width: 1.5;" x1="7" x2="88" y1="40" y2="40"/><ellipse cx="17" cy="52.418" fill="none" rx="3" ry="3" style="stroke: #038048; stroke-width: 1.0;"/><text fill="#000000" font-family="sans-serif" font-size="11" lengthAdjust="spacingAndGlyphs" textLength="22" x="26" y="55.4189">int id</text><ellipse cx="17" cy="66.2539" fill="none" rx="3" ry="3" style="stroke: #038048; stroke-width: 1.0;"/><text fill="#000000" font-family="sans-serif" font-size="11" lengthAdjust="spacingAndGlyphs" textLength="53" x="26" y="69.2549">String label</text><ellipse cx="17" cy="80.0898" fill="none" rx="3" ry="3" style="stroke: #038048; stroke-width: 1.0;"/><text fill="#000000" font-family="sans-serif" font-size="11" lengthAdjust="spacingAndGlyphs" textLength="57" x="26" y="83.0908">String name</text><line style="stroke: #A80036; stroke-width: 1.5;" x1="7" x2="88" y1="89.5078" y2="89.5078"/><!--class StatusEnum--><rect fill="#FEFECE" filter="url(#f9bptdqzt1gpj)" height="89.5078" id="StatusEnum" style="stroke: #A80036; stroke-width: 1.5;" width="100" x="124.5" y="8"/><ellipse cx="139.5" cy="24" fill="#EB937F" rx="11" ry="11" style="stroke: #A80036; stroke-width: 1.0;"/><path d="M138.3594,24.7969 L138.3594,27.2969 L142.6875,27.2969 L142.6875,26.375 Q142.6875,25.7656 142.9297,25.5 Q143.1719,25.2344 143.5469,25.2344 Q143.9219,25.2344 144.1563,25.5 Q144.3906,25.7656 144.3906,26.375 L144.3906,29 L136.3906,29 Q135.7656,29 135.5078,28.7656 Q135.25,28.5313 135.25,28.1406 Q135.25,27.7656 135.5156,27.5313 Q135.7813,27.2969 136.3906,27.2969 L136.6563,27.2969 L136.6563,20.6406 L136.3906,20.6406 Q135.7656,20.6406 135.5078,20.4063 Q135.25,20.1719 135.25,19.7813 Q135.25,19.4063 135.5078,19.1719 Q135.7656,18.9375 136.3906,18.9375 L144.0156,18.9375 L144.0156,21.5313 Q144.0156,22.1406 143.7891,22.3984 Q143.5625,22.6563 143.1719,22.6563 Q142.7969,22.6563 142.5625,22.3984 Q142.3281,22.1406 142.3281,21.5313 L142.3281,20.6406 L138.3594,20.6406 L138.3594,23.0938 L139.8438,23.0938 Q139.8438,22.4375 139.9688,22.25 Q140.2344,21.8438 140.7031,21.8438 Q141.0781,21.8438 141.3125,22.1016 Q141.5469,22.3594 141.5469,22.9688 L141.5469,24.9375 Q141.5469,25.4844 141.4219,25.6719 Q141.1563,26.0625 140.7031,26.0625 Q140.2344,26.0625 139.9688,25.6563 Q139.8438,25.4688 139.8438,24.7969 L138.3594,24.7969 Z "/><text fill="#000000" font-family="sans-serif" font-size="12" lengthAdjust="spacingAndGlyphs" textLength="68" x="153.5" y="28.9102">StatusEnum</text><line style="stroke: #A80036; stroke-width: 1.5;" x1="125.5" x2="223.5" y1="40" y2="40"/><text fill="#000000" font-family="sans-serif" font-size="11" lengthAdjust="spacingAndGlyphs" textLength="55" x="130.5" y="55.4189">DISABLE: 0</text><text fill="#000000" font-family="sans-serif" font-size="11" lengthAdjust="spacingAndGlyphs" textLength="52" x="130.5" y="69.2549">ENABLE: 1</text><text fill="#000000" font-family="sans-serif" font-size="11" lengthAdjust="spacingAndGlyphs" textLength="76" x="130.5" y="83.0908">TEMPORARY: 2</text><line style="stroke: #A80036; stroke-width: 1.5;" x1="125.5" x2="223.5" y1="89.5078" y2="89.5078"/><!--
@startuml

class Status {
    +int id
    +String label
    +String name
}

enum StatusEnum {
    DISABLE: 0
    ENABLE: 1
    TEMPORARY: 2
}
@enduml

PlantUML version 1.2019.06(Fri May 24 19:10:25 CEST 2019)
(GPL source distribution)
Java Runtime: Java(TM) SE Runtime Environment
JVM: Java HotSpot(TM) 64-Bit Server VM
Java Version: 1.8.0_221-b11
Operating System: Windows 10
OS Version: 10.0
Default Encoding: Cp1252
Language: fr
Country: FR
--></g></svg>