<?xml version="1.0" encoding="UTF-8" standalone="no"?><svg xmlns="http://www.w3.org/2000/svg" xmlns:xlink="http://www.w3.org/1999/xlink" contentScriptType="application/ecmascript" contentStyleType="text/css" height="314px" preserveAspectRatio="none" style="width:363px;height:314px;" version="1.1" viewBox="0 0 363 314" width="363px" zoomAndPan="magnify"><defs><filter height="300%" id="ftry905g2uu1n" width="300%" x="-1" y="-1"><feGaussianBlur result="blurOut" stdDeviation="2.0"/><feColorMatrix in="blurOut" result="blurOut2" type="matrix" values="0 0 0 0 0 0 0 0 0 0 0 0 0 0 0 0 0 0 .4 0"/><feOffset dx="4.0" dy="4.0" in="blurOut2" result="blurOut3"/><feBlend in="SourceGraphic" in2="blurOut3" mode="normal"/></filter></defs><g><!--class ReferentialItem--><rect fill="#FEFECE" filter="url(#ftry905g2uu1n)" height="131.0156" id="ReferentialItem" style="stroke: #A80036; stroke-width: 1.5;" width="140" x="6" y="8"/><ellipse cx="31.35" cy="24" fill="#B4A7E5" rx="11" ry="11" style="stroke: #A80036; stroke-width: 1.0;"/><path d="M32.3031,20.6406 L32.3031,27.2969 L34.0219,27.2969 Q34.6313,27.2969 34.8969,27.5313 Q35.1625,27.7656 35.1625,28.1563 Q35.1625,28.5313 34.8969,28.7656 Q34.6313,29 34.0219,29 L28.8813,29 Q28.2719,29 28.0063,28.7656 Q27.7406,28.5313 27.7406,28.1406 Q27.7406,27.7656 28.0063,27.5313 Q28.2719,27.2969 28.8813,27.2969 L30.6,27.2969 L30.6,20.6406 L28.8813,20.6406 Q28.2719,20.6406 28.0063,20.4063 Q27.7406,20.1719 27.7406,19.7813 Q27.7406,19.4063 28.0063,19.1719 Q28.2719,18.9375 28.8813,18.9375 L34.0219,18.9375 Q34.6313,18.9375 34.8969,19.1719 Q35.1625,19.4063 35.1625,19.7813 Q35.1625,20.1719 34.8969,20.4063 Q34.6313,20.6406 34.0219,20.6406 L32.3031,20.6406 Z "/><text fill="#000000" font-family="sans-serif" font-size="12" font-style="italic" lengthAdjust="spacingAndGlyphs" textLength="85" x="47.65" y="28.9102">ReferentialItem</text><line style="stroke: #A80036; stroke-width: 1.5;" x1="7" x2="145" y1="40" y2="40"/><ellipse cx="17" cy="52.418" fill="none" rx="3" ry="3" style="stroke: #038048; stroke-width: 1.0;"/><text fill="#000000" font-family="sans-serif" font-size="11" lengthAdjust="spacingAndGlyphs" textLength="25" x="26" y="55.4189">id: Int</text><ellipse cx="17" cy="66.2539" fill="none" rx="3" ry="3" style="stroke: #038048; stroke-width: 1.0;"/><text fill="#000000" font-family="sans-serif" font-size="11" lengthAdjust="spacingAndGlyphs" textLength="56" x="26" y="69.2549">label: String</text><ellipse cx="17" cy="80.0898" fill="none" rx="3" ry="3" style="stroke: #038048; stroke-width: 1.0;"/><text fill="#000000" font-family="sans-serif" font-size="11" lengthAdjust="spacingAndGlyphs" textLength="60" x="26" y="83.0908">name: String</text><ellipse cx="17" cy="93.9258" fill="none" rx="3" ry="3" style="stroke: #038048; stroke-width: 1.0;"/><text fill="#000000" font-family="sans-serif" font-size="11" lengthAdjust="spacingAndGlyphs" textLength="114" x="26" y="96.9268">description: String [0..1]</text><ellipse cx="17" cy="107.7617" fill="none" rx="3" ry="3" style="stroke: #038048; stroke-width: 1.0;"/><text fill="#000000" font-family="sans-serif" font-size="11" lengthAdjust="spacingAndGlyphs" textLength="104" x="26" y="110.7627">comment: String [0..1]</text><ellipse cx="17" cy="121.5977" fill="none" rx="3" ry="3" style="stroke: #038048; stroke-width: 1.0;"/><text fill="#000000" font-family="sans-serif" font-size="11" lengthAdjust="spacingAndGlyphs" textLength="112" x="26" y="124.5986">updateDate: Timestamp</text><line style="stroke: #A80036; stroke-width: 1.5;" x1="7" x2="145" y1="131.0156" y2="131.0156"/><!--class ReferentialLevel--><rect fill="#FEFECE" filter="url(#ftry905g2uu1n)" height="48" id="ReferentialLevel" style="stroke: #A80036; stroke-width: 1.5;" width="122" x="227" y="49.5"/><ellipse cx="242" cy="65.5" fill="#B4A7E5" rx="11" ry="11" style="stroke: #A80036; stroke-width: 1.0;"/><path d="M242.9531,62.1406 L242.9531,68.7969 L244.6719,68.7969 Q245.2813,68.7969 245.5469,69.0313 Q245.8125,69.2656 245.8125,69.6563 Q245.8125,70.0313 245.5469,70.2656 Q245.2813,70.5 244.6719,70.5 L239.5313,70.5 Q238.9219,70.5 238.6563,70.2656 Q238.3906,70.0313 238.3906,69.6406 Q238.3906,69.2656 238.6563,69.0313 Q238.9219,68.7969 239.5313,68.7969 L241.25,68.7969 L241.25,62.1406 L239.5313,62.1406 Q238.9219,62.1406 238.6563,61.9063 Q238.3906,61.6719 238.3906,61.2813 Q238.3906,60.9063 238.6563,60.6719 Q238.9219,60.4375 239.5313,60.4375 L244.6719,60.4375 Q245.2813,60.4375 245.5469,60.6719 Q245.8125,60.9063 245.8125,61.2813 Q245.8125,61.6719 245.5469,61.9063 Q245.2813,62.1406 244.6719,62.1406 L242.9531,62.1406 Z "/><text fill="#000000" font-family="sans-serif" font-size="12" font-style="italic" lengthAdjust="spacingAndGlyphs" textLength="90" x="256" y="70.4102">ReferentialLevel</text><line style="stroke: #A80036; stroke-width: 1.5;" x1="228" x2="348" y1="81.5" y2="81.5"/><line style="stroke: #A80036; stroke-width: 1.5;" x1="228" x2="348" y1="89.5" y2="89.5"/><!--class Status--><rect fill="#FEFECE" filter="url(#ftry905g2uu1n)" height="89.5078" id="Status" style="stroke: #A80036; stroke-width: 1.5;" width="86" x="33" y="206.5"/><ellipse cx="56.55" cy="222.5" fill="#ADD1B2" rx="11" ry="11" style="stroke: #A80036; stroke-width: 1.0;"/><path d="M59.3156,218.375 Q59.4719,218.1563 59.6594,218.0469 Q59.8469,217.9375 60.0656,217.9375 Q60.4406,217.9375 60.675,218.1953 Q60.9094,218.4531 60.9094,219.0625 L60.9094,220.5156 Q60.9094,221.125 60.675,221.3906 Q60.4406,221.6563 60.0656,221.6563 Q59.7219,221.6563 59.5188,221.4531 Q59.3156,221.2656 59.2063,220.75 Q59.1594,220.3906 58.9719,220.2031 Q58.6438,219.8281 58.0344,219.6094 Q57.425,219.3906 56.8,219.3906 Q56.0344,219.3906 55.4016,219.7188 Q54.7688,220.0469 54.2766,220.7969 Q53.7844,221.5469 53.7844,222.5781 L53.7844,223.6719 Q53.7844,224.9063 54.675,225.7266 Q55.5656,226.5469 57.1594,226.5469 Q58.0969,226.5469 58.7531,226.2969 Q59.1438,226.1406 59.5656,225.7031 Q59.8313,225.4375 59.9797,225.3594 Q60.1281,225.2813 60.3313,225.2813 Q60.6594,225.2813 60.9172,225.5391 Q61.175,225.7969 61.175,226.1406 Q61.175,226.4844 60.8313,226.8906 Q60.3313,227.4688 59.5344,227.7969 Q58.4563,228.25 57.1594,228.25 Q55.6438,228.25 54.4406,227.625 Q53.4563,227.125 52.7688,226.0547 Q52.0813,224.9844 52.0813,223.7031 L52.0813,222.5469 Q52.0813,221.2188 52.6984,220.0703 Q53.3156,218.9219 54.4094,218.3047 Q55.5031,217.6875 56.7375,217.6875 Q57.4719,217.6875 58.1203,217.8516 Q58.7688,218.0156 59.3156,218.375 Z "/><text fill="#000000" font-family="sans-serif" font-size="12" lengthAdjust="spacingAndGlyphs" textLength="35" x="72.45" y="227.4102">Status</text><line style="stroke: #A80036; stroke-width: 1.5;" x1="34" x2="118" y1="238.5" y2="238.5"/><ellipse cx="44" cy="250.918" fill="none" rx="3" ry="3" style="stroke: #038048; stroke-width: 1.0;"/><text fill="#000000" font-family="sans-serif" font-size="11" lengthAdjust="spacingAndGlyphs" textLength="25" x="53" y="253.9189">id: int</text><ellipse cx="44" cy="264.7539" fill="none" rx="3" ry="3" style="stroke: #038048; stroke-width: 1.0;"/><text fill="#000000" font-family="sans-serif" font-size="11" lengthAdjust="spacingAndGlyphs" textLength="56" x="53" y="267.7549">label: String</text><ellipse cx="44" cy="278.5898" fill="none" rx="3" ry="3" style="stroke: #038048; stroke-width: 1.0;"/><text fill="#000000" font-family="sans-serif" font-size="11" lengthAdjust="spacingAndGlyphs" textLength="60" x="53" y="281.5908">name: String</text><line style="stroke: #A80036; stroke-width: 1.5;" x1="34" x2="118" y1="288.0078" y2="288.0078"/><!--class StatusEnum--><rect fill="#FEFECE" filter="url(#ftry905g2uu1n)" height="103.3438" id="StatusEnum" style="stroke: #A80036; stroke-width: 1.5;" width="102" x="250" y="200"/><ellipse cx="265.9" cy="216" fill="#EB937F" rx="11" ry="11" style="stroke: #A80036; stroke-width: 1.0;"/><path d="M264.7594,216.7969 L264.7594,219.2969 L269.0875,219.2969 L269.0875,218.375 Q269.0875,217.7656 269.3297,217.5 Q269.5719,217.2344 269.9469,217.2344 Q270.3219,217.2344 270.5563,217.5 Q270.7906,217.7656 270.7906,218.375 L270.7906,221 L262.7906,221 Q262.1656,221 261.9078,220.7656 Q261.65,220.5313 261.65,220.1406 Q261.65,219.7656 261.9156,219.5313 Q262.1813,219.2969 262.7906,219.2969 L263.0563,219.2969 L263.0563,212.6406 L262.7906,212.6406 Q262.1656,212.6406 261.9078,212.4063 Q261.65,212.1719 261.65,211.7813 Q261.65,211.4063 261.9078,211.1719 Q262.1656,210.9375 262.7906,210.9375 L270.4156,210.9375 L270.4156,213.5313 Q270.4156,214.1406 270.1891,214.3984 Q269.9625,214.6563 269.5719,214.6563 Q269.1969,214.6563 268.9625,214.3984 Q268.7281,214.1406 268.7281,213.5313 L268.7281,212.6406 L264.7594,212.6406 L264.7594,215.0938 L266.2438,215.0938 Q266.2438,214.4375 266.3688,214.25 Q266.6344,213.8438 267.1031,213.8438 Q267.4781,213.8438 267.7125,214.1016 Q267.9469,214.3594 267.9469,214.9688 L267.9469,216.9375 Q267.9469,217.4844 267.8219,217.6719 Q267.5563,218.0625 267.1031,218.0625 Q266.6344,218.0625 266.3688,217.6563 Q266.2438,217.4688 266.2438,216.7969 L264.7594,216.7969 Z "/><text fill="#000000" font-family="sans-serif" font-size="12" lengthAdjust="spacingAndGlyphs" textLength="68" x="280.1" y="220.9102">StatusEnum</text><line style="stroke: #A80036; stroke-width: 1.5;" x1="251" x2="351" y1="232" y2="232"/><ellipse cx="261" cy="244.418" fill="none" rx="3" ry="3" style="stroke: #038048; stroke-width: 1.0;"/><text fill="#000000" font-family="sans-serif" font-size="11" lengthAdjust="spacingAndGlyphs" textLength="55" x="270" y="247.4189">DISABLE: 0</text><ellipse cx="261" cy="258.2539" fill="none" rx="3" ry="3" style="stroke: #038048; stroke-width: 1.0;"/><text fill="#000000" font-family="sans-serif" font-size="11" lengthAdjust="spacingAndGlyphs" textLength="52" x="270" y="261.2549">ENABLE: 1</text><ellipse cx="261" cy="272.0898" fill="none" rx="3" ry="3" style="stroke: #038048; stroke-width: 1.0;"/><text fill="#000000" font-family="sans-serif" font-size="11" lengthAdjust="spacingAndGlyphs" textLength="76" x="270" y="275.0908">TEMPORARY: 2</text><ellipse cx="261" cy="285.9258" fill="none" rx="3" ry="3" style="stroke: #038048; stroke-width: 1.0;"/><text fill="#000000" font-family="sans-serif" font-size="11" lengthAdjust="spacingAndGlyphs" textLength="56" x="270" y="288.9268">DELETED: 3</text><line style="stroke: #A80036; stroke-width: 1.5;" x1="251" x2="351" y1="295.3438" y2="295.3438"/><!--link ReferentialItem to Status--><path d="M76,139.037 C76,159.482 76,181.751 76,200.972 " fill="none" id="ReferentialItem-Status" style="stroke: #A80036; stroke-width: 1.0;"/><polygon fill="#A80036" points="76,206.3078,80,197.3078,76,201.3078,72,197.3078,76,206.3078" style="stroke: #A80036; stroke-width: 1.0;"/><text fill="#000000" font-family="sans-serif" font-size="13" lengthAdjust="spacingAndGlyphs" textLength="20" x="54.9063" y="160.5936">0..*</text><text fill="#000000" font-family="sans-serif" font-size="13" lengthAdjust="spacingAndGlyphs" textLength="7" x="68.4641" y="195.7227">1</text><!--link ReferentialItem to ReferentialLevel--><path d="M146.004,73.5 C170.438,73.5 197.767,73.5 221.875,73.5 " fill="none" id="ReferentialItem-ReferentialLevel" style="stroke: #A80036; stroke-width: 1.0;"/><polygon fill="#A80036" points="226.969,73.5,217.969,69.5,221.969,73.5,217.969,77.5,226.969,73.5" style="stroke: #A80036; stroke-width: 1.0;"/><text fill="#000000" font-family="sans-serif" font-size="13" lengthAdjust="spacingAndGlyphs" textLength="0" x="208.5" y="66.9951"/><text fill="#000000" font-family="sans-serif" font-size="13" lengthAdjust="spacingAndGlyphs" textLength="20" x="153.8794" y="87.7992">0..*</text><text fill="#000000" font-family="sans-serif" font-size="13" lengthAdjust="spacingAndGlyphs" textLength="22" x="197.0906" y="87.8893">0..1</text><!--link Status to StatusEnum--><path d="M124.462,251.5 C161.399,251.5 212.145,251.5 249.753,251.5 " fill="none" id="Status-StatusEnum" style="stroke: #A80036; stroke-width: 1.0; stroke-dasharray: 7.0,7.0;"/><polygon fill="#A80036" points="119.116,251.5,128.116,255.5,124.116,251.5,128.116,247.5,119.116,251.5" style="stroke: #A80036; stroke-width: 1.0;"/><text fill="#000000" font-family="sans-serif" font-size="13" lengthAdjust="spacingAndGlyphs" textLength="94" x="137.5" y="244.9951">is an identifier of</text><!--
@startuml

interface ReferentialItem {
    +id: Int
    +label: String
    +name: String
    +description: String [0..1]
    +comment: String [0..1]
    +updateDate: Timestamp
}

interface ReferentialLevel {
}

class Status {
    +id: int
    +label: String
    +name: String
}

enum StatusEnum {
   +DISABLE: 0
   +ENABLE: 1
   +TEMPORARY: 2
   +DELETED: 3
}

ReferentialItem "0..*" - -> "1" Status
ReferentialItem "0..*" -right-> "0..1" ReferentialLevel: "           "

Status <.left. StatusEnum: "is an identifier of"


@enduml

PlantUML version 1.2019.06(Fri May 24 19:10:25 CEST 2019)
(GPL source distribution)
Java Runtime: Java(TM) SE Runtime Environment
JVM: Java HotSpot(TM) Client VM
Java Version: 1.8.0_211-b12
Operating System: Windows 10
OS Version: 10.0
Default Encoding: Cp1252
Language: fr
Country: FR
--></g></svg>