<?xml version="1.0" encoding="UTF-8" standalone="no"?><svg xmlns="http://www.w3.org/2000/svg" xmlns:xlink="http://www.w3.org/1999/xlink" contentStyleType="text/css" height="318px" preserveAspectRatio="none" style="width:665px;height:318px;background:#FFFFFF;" version="1.1" viewBox="0 0 665 318" width="665px" zoomAndPan="magnify"><defs/><g><!--MD5=[0893684415111cf89975a9f5abae587e]
class ReferentialItem--><g id="elem_ReferentialItem"><rect codeLine="3" fill="#F1F1F1" height="137.7813" id="ReferentialItem" rx="2.5" ry="2.5" style="stroke:#181818;stroke-width:0.5;" width="194" x="241" y="7"/><ellipse cx="281.65" cy="23" fill="#B4A7E5" rx="11" ry="11" style="stroke:#181818;stroke-width:1.0;"/><path d="M277.5719,18.7656 L277.5719,16.6094 L284.9625,16.6094 L284.9625,18.7656 L282.4938,18.7656 L282.4938,26.8438 L284.9625,26.8438 L284.9625,29 L277.5719,29 L277.5719,26.8438 L280.0406,26.8438 L280.0406,18.7656 L277.5719,18.7656 Z " fill="#000000"/><text fill="#000000" font-family="sans-serif" font-size="14" font-style="italic" lengthAdjust="spacing" textLength="105" x="301.35" y="27.8467">ReferentialItem</text><line style="stroke:#181818;stroke-width:0.5;" x1="242" x2="434" y1="39" y2="39"/><ellipse cx="252" cy="52.6484" fill="none" rx="3" ry="3" style="stroke:#038048;stroke-width:1.0;"/><text fill="#000000" font-family="sans-serif" font-size="14" lengthAdjust="spacing" textLength="38" x="261" y="55.9951">id: Int</text><ellipse cx="252" cy="68.9453" fill="none" rx="3" ry="3" style="stroke:#038048;stroke-width:1.0;"/><text fill="#000000" font-family="sans-serif" font-size="14" lengthAdjust="spacing" textLength="81" x="261" y="72.292">label: String</text><ellipse cx="252" cy="85.2422" fill="none" rx="3" ry="3" style="stroke:#038048;stroke-width:1.0;"/><text fill="#000000" font-family="sans-serif" font-size="14" lengthAdjust="spacing" textLength="88" x="261" y="88.5889">name: String</text><ellipse cx="252" cy="101.5391" fill="none" rx="3" ry="3" style="stroke:#038048;stroke-width:1.0;"/><text fill="#000000" font-family="sans-serif" font-size="14" lengthAdjust="spacing" textLength="166" x="261" y="104.8857">description: String [0..1]</text><ellipse cx="252" cy="117.8359" fill="none" rx="3" ry="3" style="stroke:#038048;stroke-width:1.0;"/><text fill="#000000" font-family="sans-serif" font-size="14" lengthAdjust="spacing" textLength="155" x="261" y="121.1826">comment: String [0..1]</text><ellipse cx="252" cy="134.1328" fill="none" rx="3" ry="3" style="stroke:#038048;stroke-width:1.0;"/><text fill="#000000" font-family="sans-serif" font-size="14" lengthAdjust="spacing" textLength="168" x="261" y="137.4795">updateDate: Timestamp</text></g><!--MD5=[ccb9cb58891477d7bd4cb29cc197324a]
class ReferentialLevel--><g id="elem_ReferentialLevel"><rect codeLine="12" fill="#F1F1F1" height="32" id="ReferentialLevel" rx="2.5" ry="2.5" style="stroke:#181818;stroke-width:0.5;" width="143" x="515.5" y="60"/><ellipse cx="530.5" cy="76" fill="#B4A7E5" rx="11" ry="11" style="stroke:#181818;stroke-width:1.0;"/><path d="M526.4219,71.7656 L526.4219,69.6094 L533.8125,69.6094 L533.8125,71.7656 L531.3438,71.7656 L531.3438,79.8438 L533.8125,79.8438 L533.8125,82 L526.4219,82 L526.4219,79.8438 L528.8906,79.8438 L528.8906,71.7656 L526.4219,71.7656 Z " fill="#000000"/><text fill="#000000" font-family="sans-serif" font-size="14" font-style="italic" lengthAdjust="spacing" textLength="111" x="544.5" y="80.8467">ReferentialLevel</text></g><!--MD5=[e3d83ec5fd90ea9f3f2bfe265cb53458]
class Status--><g id="elem_Status"><rect codeLine="15" fill="#F1F1F1" height="88.8906" id="Status" rx="2.5" ry="2.5" style="stroke:#181818;stroke-width:0.5;" width="114" x="281" y="214"/><ellipse cx="313.1" cy="230" fill="#ADD1B2" rx="11" ry="11" style="stroke:#181818;stroke-width:1.0;"/><path d="M316.0688,235.6406 Q315.4906,235.9375 314.85,236.0781 Q314.2094,236.2344 313.5063,236.2344 Q311.0063,236.2344 309.6781,234.5938 Q308.3656,232.9375 308.3656,229.8125 Q308.3656,226.6875 309.6781,225.0313 Q311.0063,223.375 313.5063,223.375 Q314.2094,223.375 314.85,223.5313 Q315.5063,223.6875 316.0688,223.9844 L316.0688,226.7031 Q315.4438,226.125 314.85,225.8594 Q314.2563,225.5781 313.6313,225.5781 Q312.2875,225.5781 311.6,226.6563 Q310.9125,227.7188 310.9125,229.8125 Q310.9125,231.9063 311.6,232.9844 Q312.2875,234.0469 313.6313,234.0469 Q314.2563,234.0469 314.85,233.7813 Q315.4438,233.5 316.0688,232.9219 L316.0688,235.6406 Z " fill="#000000"/><text fill="#000000" font-family="sans-serif" font-size="14" lengthAdjust="spacing" textLength="44" x="330.9" y="234.8467">Status</text><line style="stroke:#181818;stroke-width:0.5;" x1="282" x2="394" y1="246" y2="246"/><ellipse cx="292" cy="259.6484" fill="none" rx="3" ry="3" style="stroke:#038048;stroke-width:1.0;"/><text fill="#000000" font-family="sans-serif" font-size="14" lengthAdjust="spacing" textLength="38" x="301" y="262.9951">id: int</text><ellipse cx="292" cy="275.9453" fill="none" rx="3" ry="3" style="stroke:#038048;stroke-width:1.0;"/><text fill="#000000" font-family="sans-serif" font-size="14" lengthAdjust="spacing" textLength="81" x="301" y="279.292">label: String</text><ellipse cx="292" cy="292.2422" fill="none" rx="3" ry="3" style="stroke:#038048;stroke-width:1.0;"/><text fill="#000000" font-family="sans-serif" font-size="14" lengthAdjust="spacing" textLength="88" x="301" y="295.5889">name: String</text></g><!--MD5=[79987c2ca11a8cc74db521dda9378541]
class StatusEnum--><g id="elem_StatusEnum"><rect codeLine="21" fill="#F1F1F1" height="105.1875" id="StatusEnum" rx="2.5" ry="2.5" style="stroke:#181818;stroke-width:0.5;" width="132" x="7" y="206"/><ellipse cx="29.2" cy="222" fill="#EB937F" rx="11" ry="11" style="stroke:#181818;stroke-width:1.0;"/><path d="M33.3094,228 L25.5906,228 L25.5906,215.6094 L33.3094,215.6094 L33.3094,217.7656 L28.0438,217.7656 L28.0438,220.4375 L32.8094,220.4375 L32.8094,222.5938 L28.0438,222.5938 L28.0438,225.8438 L33.3094,225.8438 L33.3094,228 Z " fill="#000000"/><text fill="#000000" font-family="sans-serif" font-size="14" lengthAdjust="spacing" textLength="84" x="44.8" y="226.8467">StatusEnum</text><line style="stroke:#181818;stroke-width:0.5;" x1="8" x2="138" y1="238" y2="238"/><ellipse cx="18" cy="251.6484" fill="none" rx="3" ry="3" style="stroke:#038048;stroke-width:1.0;"/><text fill="#000000" font-family="sans-serif" font-size="14" lengthAdjust="spacing" textLength="76" x="27" y="254.9951">DISABLE: 0</text><ellipse cx="18" cy="267.9453" fill="none" rx="3" ry="3" style="stroke:#038048;stroke-width:1.0;"/><text fill="#000000" font-family="sans-serif" font-size="14" lengthAdjust="spacing" textLength="72" x="27" y="271.292">ENABLE: 1</text><ellipse cx="18" cy="284.2422" fill="none" rx="3" ry="3" style="stroke:#038048;stroke-width:1.0;"/><text fill="#000000" font-family="sans-serif" font-size="14" lengthAdjust="spacing" textLength="106" x="27" y="287.5889">TEMPORARY: 2</text><ellipse cx="18" cy="300.5391" fill="none" rx="3" ry="3" style="stroke:#038048;stroke-width:1.0;"/><text fill="#000000" font-family="sans-serif" font-size="14" lengthAdjust="spacing" textLength="83" x="27" y="303.8857">DELETED: 3</text></g><!--MD5=[52c2237435e54e5b69b8ba53b283003b]
link ReferentialItem to Status--><g id="link_ReferentialItem_Status"><path codeLine="28" d="M338,145.24 C338,166.23 338,188.91 338,208.35 " fill="none" id="ReferentialItem-to-Status" style="stroke:#181818;stroke-width:1.0;"/><polygon fill="#181818" points="338,213.74,342,204.74,338,208.74,334,204.74,338,213.74" style="stroke:#181818;stroke-width:1.0;"/><text fill="#000000" font-family="sans-serif" font-size="13" lengthAdjust="spacing" textLength="23" x="313.868" y="164.8783">0..*</text><text fill="#000000" font-family="sans-serif" font-size="13" lengthAdjust="spacing" textLength="8" x="329.3875" y="202.8231">1</text></g><!--MD5=[ea2dbef82be4b29d8bc328a6b8129172]
link ReferentialItem to ReferentialLevel--><g id="link_ReferentialItem_ReferentialLevel"><path codeLine="29" d="M435.34,76 C460.17,76 486.52,76 510.16,76 " fill="none" id="ReferentialItem-to-ReferentialLevel" style="stroke:#181818;stroke-width:1.0;"/><polygon fill="#181818" points="515.17,76,506.17,72,510.17,76,506.17,80,515.17,76" style="stroke:#181818;stroke-width:1.0;"/><text fill="#000000" font-family="sans-serif" font-size="13" lengthAdjust="spacing" textLength="44" x="453.25" y="69.0669">           </text><text fill="#000000" font-family="sans-serif" font-size="13" lengthAdjust="spacing" textLength="23" x="442.9928" y="88.6066">0..*</text><text fill="#000000" font-family="sans-serif" font-size="13" lengthAdjust="spacing" textLength="24" x="483.4419" y="88.7644">0..1</text></g><!--MD5=[8eab08dfa14432ba23b5c3a55b829322]
link StatusEnum to Status--><g id="link_StatusEnum_Status"><path codeLine="31" d="M139.19,258.5 C180.94,258.5 234.53,258.5 275.55,258.5 " fill="none" id="StatusEnum-to-Status" style="stroke:#181818;stroke-width:1.0;stroke-dasharray:7.0,7.0;"/><polygon fill="#181818" points="280.74,258.5,271.74,254.5,275.74,258.5,271.74,262.5,280.74,258.5" style="stroke:#181818;stroke-width:1.0;"/><text fill="#000000" font-family="sans-serif" font-size="13" lengthAdjust="spacing" textLength="105" x="157.5" y="251.5669">is an identifier of</text></g></g></svg>