<?xml version="1.0" encoding="UTF-8" standalone="no"?><svg xmlns="http://www.w3.org/2000/svg" xmlns:xlink="http://www.w3.org/1999/xlink" contentScriptType="application/ecmascript" contentStyleType="text/css" height="218px" preserveAspectRatio="none" style="width:431px;height:218px;" version="1.1" viewBox="0 0 431 218" width="431px" zoomAndPan="magnify"><defs><filter height="300%" id="f19sbecpr6he7j" width="300%" x="-1" y="-1"><feGaussianBlur result="blurOut" stdDeviation="2.0"/><feColorMatrix in="blurOut" result="blurOut2" type="matrix" values="0 0 0 0 0 0 0 0 0 0 0 0 0 0 0 0 0 0 .4 0"/><feOffset dx="4.0" dy="4.0" in="blurOut2" result="blurOut3"/><feBlend in="SourceGraphic" in2="blurOut3" mode="normal"/></filter></defs><g><!--class Location--><rect fill="#FEFECE" filter="url(#f19sbecpr6he7j)" height="89.5078" id="Location" style="stroke: #A80036; stroke-width: 1.5;" width="79" x="6" y="8"/><ellipse cx="21" cy="24" fill="#ADD1B2" rx="11" ry="11" style="stroke: #A80036; stroke-width: 1.0;"/><path d="M23.7656,19.875 Q23.9219,19.6563 24.1094,19.5469 Q24.2969,19.4375 24.5156,19.4375 Q24.8906,19.4375 25.125,19.6953 Q25.3594,19.9531 25.3594,20.5625 L25.3594,22.0156 Q25.3594,22.625 25.125,22.8906 Q24.8906,23.1563 24.5156,23.1563 Q24.1719,23.1563 23.9688,22.9531 Q23.7656,22.7656 23.6563,22.25 Q23.6094,21.8906 23.4219,21.7031 Q23.0938,21.3281 22.4844,21.1094 Q21.875,20.8906 21.25,20.8906 Q20.4844,20.8906 19.8516,21.2188 Q19.2188,21.5469 18.7266,22.2969 Q18.2344,23.0469 18.2344,24.0781 L18.2344,25.1719 Q18.2344,26.4063 19.125,27.2266 Q20.0156,28.0469 21.6094,28.0469 Q22.5469,28.0469 23.2031,27.7969 Q23.5938,27.6406 24.0156,27.2031 Q24.2813,26.9375 24.4297,26.8594 Q24.5781,26.7813 24.7813,26.7813 Q25.1094,26.7813 25.3672,27.0391 Q25.625,27.2969 25.625,27.6406 Q25.625,27.9844 25.2813,28.3906 Q24.7813,28.9688 23.9844,29.2969 Q22.9063,29.75 21.6094,29.75 Q20.0938,29.75 18.8906,29.125 Q17.9063,28.625 17.2188,27.5547 Q16.5313,26.4844 16.5313,25.2031 L16.5313,24.0469 Q16.5313,22.7188 17.1484,21.5703 Q17.7656,20.4219 18.8594,19.8047 Q19.9531,19.1875 21.1875,19.1875 Q21.9219,19.1875 22.5703,19.3516 Q23.2188,19.5156 23.7656,19.875 Z "/><text fill="#000000" font-family="sans-serif" font-size="12" lengthAdjust="spacingAndGlyphs" textLength="47" x="35" y="28.9102">Location</text><line style="stroke: #A80036; stroke-width: 1.5;" x1="7" x2="84" y1="40" y2="40"/><ellipse cx="17" cy="52.418" fill="none" rx="3" ry="3" style="stroke: #038048; stroke-width: 1.0;"/><text fill="#000000" font-family="sans-serif" font-size="11" lengthAdjust="spacingAndGlyphs" textLength="25" x="26" y="55.4189">id: int</text><ellipse cx="17" cy="66.2539" fill="none" rx="3" ry="3" style="stroke: #038048; stroke-width: 1.0;"/><text fill="#000000" font-family="sans-serif" font-size="11" lengthAdjust="spacingAndGlyphs" textLength="22" x="26" y="69.2549">label</text><ellipse cx="17" cy="80.0898" fill="none" rx="3" ry="3" style="stroke: #038048; stroke-width: 1.0;"/><text fill="#000000" font-family="sans-serif" font-size="11" lengthAdjust="spacingAndGlyphs" textLength="26" x="26" y="83.0908">name</text><line style="stroke: #A80036; stroke-width: 1.5;" x1="7" x2="84" y1="89.5078" y2="89.5078"/><!--class LocationLevel--><rect fill="#FEFECE" filter="url(#f19sbecpr6he7j)" height="89.5078" id="LocationLevel" style="stroke: #A80036; stroke-width: 1.5;" width="108" x="145.5" y="8"/><ellipse cx="160.5" cy="24" fill="#ADD1B2" rx="11" ry="11" style="stroke: #A80036; stroke-width: 1.0;"/><path d="M163.2656,19.875 Q163.4219,19.6563 163.6094,19.5469 Q163.7969,19.4375 164.0156,19.4375 Q164.3906,19.4375 164.625,19.6953 Q164.8594,19.9531 164.8594,20.5625 L164.8594,22.0156 Q164.8594,22.625 164.625,22.8906 Q164.3906,23.1563 164.0156,23.1563 Q163.6719,23.1563 163.4688,22.9531 Q163.2656,22.7656 163.1563,22.25 Q163.1094,21.8906 162.9219,21.7031 Q162.5938,21.3281 161.9844,21.1094 Q161.375,20.8906 160.75,20.8906 Q159.9844,20.8906 159.3516,21.2188 Q158.7188,21.5469 158.2266,22.2969 Q157.7344,23.0469 157.7344,24.0781 L157.7344,25.1719 Q157.7344,26.4063 158.625,27.2266 Q159.5156,28.0469 161.1094,28.0469 Q162.0469,28.0469 162.7031,27.7969 Q163.0938,27.6406 163.5156,27.2031 Q163.7813,26.9375 163.9297,26.8594 Q164.0781,26.7813 164.2813,26.7813 Q164.6094,26.7813 164.8672,27.0391 Q165.125,27.2969 165.125,27.6406 Q165.125,27.9844 164.7813,28.3906 Q164.2813,28.9688 163.4844,29.2969 Q162.4063,29.75 161.1094,29.75 Q159.5938,29.75 158.3906,29.125 Q157.4063,28.625 156.7188,27.5547 Q156.0313,26.4844 156.0313,25.2031 L156.0313,24.0469 Q156.0313,22.7188 156.6484,21.5703 Q157.2656,20.4219 158.3594,19.8047 Q159.4531,19.1875 160.6875,19.1875 Q161.4219,19.1875 162.0703,19.3516 Q162.7188,19.5156 163.2656,19.875 Z "/><text fill="#000000" font-family="sans-serif" font-size="12" lengthAdjust="spacingAndGlyphs" textLength="76" x="174.5" y="28.9102">LocationLevel</text><line style="stroke: #A80036; stroke-width: 1.5;" x1="146.5" x2="252.5" y1="40" y2="40"/><ellipse cx="156.5" cy="52.418" fill="none" rx="3" ry="3" style="stroke: #038048; stroke-width: 1.0;"/><text fill="#000000" font-family="sans-serif" font-size="11" lengthAdjust="spacingAndGlyphs" textLength="25" x="165.5" y="55.4189">id: int</text><ellipse cx="156.5" cy="66.2539" fill="none" rx="3" ry="3" style="stroke: #038048; stroke-width: 1.0;"/><text fill="#000000" font-family="sans-serif" font-size="11" lengthAdjust="spacingAndGlyphs" textLength="22" x="165.5" y="69.2549">label</text><ellipse cx="156.5" cy="80.0898" fill="none" rx="3" ry="3" style="stroke: #038048; stroke-width: 1.0;"/><text fill="#000000" font-family="sans-serif" font-size="11" lengthAdjust="spacingAndGlyphs" textLength="26" x="165.5" y="83.0908">name</text><line style="stroke: #A80036; stroke-width: 1.5;" x1="146.5" x2="252.5" y1="89.5078" y2="89.5078"/><!--class Status--><rect fill="#FEFECE" filter="url(#f19sbecpr6he7j)" height="48" id="Status" style="stroke: #A80036; stroke-width: 1.5;" width="67" x="12" y="159"/><ellipse cx="27" cy="175" fill="#ADD1B2" rx="11" ry="11" style="stroke: #A80036; stroke-width: 1.0;"/><path d="M29.7656,170.875 Q29.9219,170.6563 30.1094,170.5469 Q30.2969,170.4375 30.5156,170.4375 Q30.8906,170.4375 31.125,170.6953 Q31.3594,170.9531 31.3594,171.5625 L31.3594,173.0156 Q31.3594,173.625 31.125,173.8906 Q30.8906,174.1563 30.5156,174.1563 Q30.1719,174.1563 29.9688,173.9531 Q29.7656,173.7656 29.6563,173.25 Q29.6094,172.8906 29.4219,172.7031 Q29.0938,172.3281 28.4844,172.1094 Q27.875,171.8906 27.25,171.8906 Q26.4844,171.8906 25.8516,172.2188 Q25.2188,172.5469 24.7266,173.2969 Q24.2344,174.0469 24.2344,175.0781 L24.2344,176.1719 Q24.2344,177.4063 25.125,178.2266 Q26.0156,179.0469 27.6094,179.0469 Q28.5469,179.0469 29.2031,178.7969 Q29.5938,178.6406 30.0156,178.2031 Q30.2813,177.9375 30.4297,177.8594 Q30.5781,177.7813 30.7813,177.7813 Q31.1094,177.7813 31.3672,178.0391 Q31.625,178.2969 31.625,178.6406 Q31.625,178.9844 31.2813,179.3906 Q30.7813,179.9688 29.9844,180.2969 Q28.9063,180.75 27.6094,180.75 Q26.0938,180.75 24.8906,180.125 Q23.9063,179.625 23.2188,178.5547 Q22.5313,177.4844 22.5313,176.2031 L22.5313,175.0469 Q22.5313,173.7188 23.1484,172.5703 Q23.7656,171.4219 24.8594,170.8047 Q25.9531,170.1875 27.1875,170.1875 Q27.9219,170.1875 28.5703,170.3516 Q29.2188,170.5156 29.7656,170.875 Z "/><text fill="#000000" font-family="sans-serif" font-size="12" lengthAdjust="spacingAndGlyphs" textLength="35" x="41" y="179.9102">Status</text><line style="stroke: #A80036; stroke-width: 1.5;" x1="13" x2="78" y1="191" y2="191"/><line style="stroke: #A80036; stroke-width: 1.5;" x1="13" x2="78" y1="199" y2="199"/><!--class LocationLevelIds  --><rect fill="#FEFECE" filter="url(#f19sbecpr6he7j)" height="89.5078" id="LocationLevelIds  " style="stroke: #A80036; stroke-width: 1.5;" width="131" x="289" y="8"/><ellipse cx="304" cy="24" fill="#EB937F" rx="11" ry="11" style="stroke: #A80036; stroke-width: 1.0;"/><path d="M302.8594,24.7969 L302.8594,27.2969 L307.1875,27.2969 L307.1875,26.375 Q307.1875,25.7656 307.4297,25.5 Q307.6719,25.2344 308.0469,25.2344 Q308.4219,25.2344 308.6563,25.5 Q308.8906,25.7656 308.8906,26.375 L308.8906,29 L300.8906,29 Q300.2656,29 300.0078,28.7656 Q299.75,28.5313 299.75,28.1406 Q299.75,27.7656 300.0156,27.5313 Q300.2813,27.2969 300.8906,27.2969 L301.1563,27.2969 L301.1563,20.6406 L300.8906,20.6406 Q300.2656,20.6406 300.0078,20.4063 Q299.75,20.1719 299.75,19.7813 Q299.75,19.4063 300.0078,19.1719 Q300.2656,18.9375 300.8906,18.9375 L308.5156,18.9375 L308.5156,21.5313 Q308.5156,22.1406 308.2891,22.3984 Q308.0625,22.6563 307.6719,22.6563 Q307.2969,22.6563 307.0625,22.3984 Q306.8281,22.1406 306.8281,21.5313 L306.8281,20.6406 L302.8594,20.6406 L302.8594,23.0938 L304.3438,23.0938 Q304.3438,22.4375 304.4688,22.25 Q304.7344,21.8438 305.2031,21.8438 Q305.5781,21.8438 305.8125,22.1016 Q306.0469,22.3594 306.0469,22.9688 L306.0469,24.9375 Q306.0469,25.4844 305.9219,25.6719 Q305.6563,26.0625 305.2031,26.0625 Q304.7344,26.0625 304.4688,25.6563 Q304.3438,25.4688 304.3438,24.7969 L302.8594,24.7969 Z "/><text fill="#000000" font-family="sans-serif" font-size="12" lengthAdjust="spacingAndGlyphs" textLength="93" x="318" y="28.9102">LocationLevelIds</text><line style="stroke: #A80036; stroke-width: 1.5;" x1="290" x2="419" y1="40" y2="40"/><text fill="#000000" font-family="sans-serif" font-size="11" lengthAdjust="spacingAndGlyphs" textLength="62" x="295" y="55.4189">COUNTRY: 1</text><text fill="#000000" font-family="sans-serif" font-size="11" lengthAdjust="spacingAndGlyphs" textLength="63" x="295" y="69.2549">HARBOUR: 6</text><text fill="#000000" font-family="sans-serif" font-size="11" lengthAdjust="spacingAndGlyphs" textLength="57" x="295" y="83.0908">AUCTION: 7</text><line style="stroke: #A80036; stroke-width: 1.5;" x1="290" x2="419" y1="89.5078" y2="89.5078"/><!--link Location to LocationLevel--><path d="M85.1588,53 C101.9397,53 121.843,53 140.302,53 " fill="none" id="Location-LocationLevel" style="stroke: #A80036; stroke-width: 1.0;"/><polygon fill="#A80036" points="145.466,53,136.466,49,140.466,53,136.466,57,145.466,53" style="stroke: #A80036; stroke-width: 1.0;"/><text fill="#000000" font-family="sans-serif" font-size="13" lengthAdjust="spacingAndGlyphs" textLength="0" x="127.25" y="46.4951"/><text fill="#000000" font-family="sans-serif" font-size="13" lengthAdjust="spacingAndGlyphs" textLength="20" x="93.0732" y="67.8374">0..*</text><text fill="#000000" font-family="sans-serif" font-size="13" lengthAdjust="spacingAndGlyphs" textLength="7" x="130.3753" y="49.4294">1</text><!--link Location to Status--><path d="M45.5,98.05 C45.5,116.3723 45.5,137.118 45.5,153.4022 " fill="none" id="Location-Status" style="stroke: #A80036; stroke-width: 1.0;"/><polygon fill="#A80036" points="45.5,158.7436,49.5,149.7436,45.5,153.7436,41.5,149.7436,45.5,158.7436" style="stroke: #A80036; stroke-width: 1.0;"/><text fill="#000000" font-family="sans-serif" font-size="13" lengthAdjust="spacingAndGlyphs" textLength="20" x="24.0938" y="119.0646">0..*</text><text fill="#000000" font-family="sans-serif" font-size="13" lengthAdjust="spacingAndGlyphs" textLength="7" x="37.6031" y="148.0181">1</text><!--
@startuml

class Location {
    +id: int
    +label
    +name
}

class LocationLevel
{
    +id: int
    +label
    +name
}

Location "0..*" -right-> "1" LocationLevel: "      "
Location "0..*" - -> "1" Status

enum "LocationLevelIds  " {
    COUNTRY: 1
    HARBOUR: 6
    AUCTION: 7
}
@enduml

PlantUML version 1.2019.06(Fri May 24 19:10:25 CEST 2019)
(GPL source distribution)
Java Runtime: Java(TM) SE Runtime Environment
JVM: Java HotSpot(TM) Client VM
Java Version: 1.8.0_211-b12
Operating System: Windows 10
OS Version: 10.0
Default Encoding: Cp1252
Language: fr
Country: FR
--></g></svg>