<?xml version="1.0" encoding="UTF-8" standalone="no"?><svg xmlns="http://www.w3.org/2000/svg" xmlns:xlink="http://www.w3.org/1999/xlink" contentScriptType="application/ecmascript" contentStyleType="text/css" height="108px" preserveAspectRatio="none" style="width:231px;height:108px;" version="1.1" viewBox="0 0 231 108" width="231px" zoomAndPan="magnify"><defs><filter height="300%" id="fal2gz9tyt95o" width="300%" x="-1" y="-1"><feGaussianBlur result="blurOut" stdDeviation="2.0"/><feColorMatrix in="blurOut" result="blurOut2" type="matrix" values="0 0 0 0 0 0 0 0 0 0 0 0 0 0 0 0 0 0 .4 0"/><feOffset dx="4.0" dy="4.0" in="blurOut2" result="blurOut3"/><feBlend in="SourceGraphic" in2="blurOut3" mode="normal"/></filter></defs><g><!--class Location--><rect fill="#FEFECE" filter="url(#fal2gz9tyt95o)" height="89.5078" id="Location" style="stroke: #A80036; stroke-width: 1.5;" width="83" x="6" y="8"/><ellipse cx="22.8" cy="24" fill="#ADD1B2" rx="11" ry="11" style="stroke: #A80036; stroke-width: 1.0;"/><path d="M24.8,20.5 Q25.0031,20 25.2375,19.75 Q25.4719,19.5 25.7375,19.5 Q26.2063,19.5 26.5031,19.7813 Q26.8,20.0625 26.8,20.7188 L26.8,22.2813 Q26.8,22.9375 26.5188,23.2188 Q26.2375,23.5 25.8,23.5 Q25.4094,23.5 25.1594,23.3281 Q24.9094,23.1563 24.8,22.7031 Q24.7531,22.3906 24.5813,22.2188 Q24.2688,21.8906 23.7063,21.6953 Q23.1438,21.5 22.5813,21.5 Q21.8781,21.5 21.2922,21.7813 Q20.7063,22.0625 20.2531,22.6875 Q19.8,23.3125 19.8,24.1719 L19.8,25.0938 Q19.8,26.125 20.6438,26.8125 Q21.4875,27.5 22.9875,27.5 Q23.8781,27.5 24.5031,27.2969 Q24.8625,27.1875 25.2688,26.8281 Q25.5344,26.625 25.675,26.5625 Q25.8156,26.5 25.9875,26.5 Q26.3156,26.5 26.5578,26.7578 Q26.8,27.0156 26.8,27.375 Q26.8,27.7188 26.4563,28.125 Q25.9563,28.7188 25.1594,29.0469 Q24.1125,29.5 22.8313,29.5 Q21.3313,29.5 20.1281,28.9063 Q19.1594,28.4375 18.4797,27.4219 Q17.8,26.4063 17.8,25.2031 L17.8,24.1094 Q17.8,22.8594 18.4016,21.7656 Q19.0031,20.6719 20.0578,20.0859 Q21.1125,19.5 22.3,19.5 Q23.0188,19.5 23.6438,19.75 Q24.2688,20 24.8,20.5 Z "/><text fill="#000000" font-family="sans-serif" font-size="12" lengthAdjust="spacingAndGlyphs" textLength="47" x="37.2" y="28.9102">Location</text><line style="stroke: #A80036; stroke-width: 1.5;" x1="7" x2="88" y1="40" y2="40"/><ellipse cx="17" cy="52.418" fill="none" rx="3" ry="3" style="stroke: #038048; stroke-width: 1.0;"/><text fill="#000000" font-family="sans-serif" font-size="11" lengthAdjust="spacingAndGlyphs" textLength="22" x="26" y="55.4189">int id</text><ellipse cx="17" cy="66.2539" fill="none" rx="3" ry="3" style="stroke: #038048; stroke-width: 1.0;"/><text fill="#000000" font-family="sans-serif" font-size="11" lengthAdjust="spacingAndGlyphs" textLength="53" x="26" y="69.2549">String label</text><ellipse cx="17" cy="80.0898" fill="none" rx="3" ry="3" style="stroke: #038048; stroke-width: 1.0;"/><text fill="#000000" font-family="sans-serif" font-size="11" lengthAdjust="spacingAndGlyphs" textLength="57" x="26" y="83.0908">String name</text><line style="stroke: #A80036; stroke-width: 1.5;" x1="7" x2="88" y1="89.5078" y2="89.5078"/><!--class LocationIds--><rect fill="#FEFECE" filter="url(#fal2gz9tyt95o)" height="61.8359" id="LocationIds" style="stroke: #A80036; stroke-width: 1.5;" width="96" x="124.5" y="22"/><ellipse cx="139.5" cy="38" fill="#EB937F" rx="11" ry="11" style="stroke: #A80036; stroke-width: 1.0;"/><path d="M138,39 L138,41 L142,41 L142,40 L142,39.5156 L142.625,39 L143,39 L143.375,39 L144,39.5156 L144,40 L144,43 L136,43 L135.5156,43 L135,42.375 L135,42 L135,41.625 L135.5156,41 L136,41 L136,41 L136,35 L136,35 L135.5156,35 L135,34.375 L135,34 L135,33.625 L135.5156,33 L136,33 L144,33 L144,36 L144,36.4844 L143.375,37 L143,37 L142.625,37 L142,36.4844 L142,36 L142,35 L138,35 L138,37 L139,37 L139,36.5156 L139,36.5156 L139.625,36 L140,36 L140.375,36 L141,36.5156 L141,37 L141,39 L141,39.4844 L140.375,40 L140.375,40 L140,40 L139.625,40 L139,39.4844 L139,39.4844 L139,39 L138,39 Z "/><text fill="#000000" font-family="sans-serif" font-size="12" lengthAdjust="spacingAndGlyphs" textLength="64" x="153.5" y="42.9102">LocationIds</text><line style="stroke: #A80036; stroke-width: 1.5;" x1="125.5" x2="219.5" y1="54" y2="54"/><text fill="#000000" font-family="sans-serif" font-size="11" lengthAdjust="spacingAndGlyphs" textLength="63" x="130.5" y="69.4189">HARBOUR: 6</text><line style="stroke: #A80036; stroke-width: 1.5;" x1="125.5" x2="219.5" y1="75.8359" y2="75.8359"/><!--
@startuml

class Location {
    +int id
    +String label
    +String name
}

enum LocationIds{
    HARBOUR: 6
}
@enduml

PlantUML version 1.2019.06(Fri May 24 19:10:25 CEST 2019)
(GPL source distribution)
Java Runtime: OpenJDK Runtime Environment
JVM: OpenJDK 64-Bit Server VM
Java Version: 1.8.0_212-release-1586-b4
Operating System: Windows 10
OS Version: 10.0
Default Encoding: Cp1252
Language: fr
Country: FR
--></g></svg>