<?xml version="1.0" encoding="us-ascii" standalone="no"?><svg xmlns="http://www.w3.org/2000/svg" xmlns:xlink="http://www.w3.org/1999/xlink" contentStyleType="text/css" height="702px" preserveAspectRatio="none" style="width:1001px;height:702px;background:#FFFFFF;" version="1.1" viewBox="0 0 1001 702" width="1001px" zoomAndPan="magnify"><defs/><g><!--cluster referential--><g id="cluster_referential"><path d="M86,420 L159,420 A3.75,3.75 0 0 1 161.5,422.5 L168.5,445.0679 L702,445.0679 A2.5,2.5 0 0 1 704.5,447.5679 L704.5,692.5 A2.5,2.5 0 0 1 702,695 L86,695 A2.5,2.5 0 0 1 83.5,692.5 L83.5,422.5 A2.5,2.5 0 0 1 86,420 " fill="#DDDDDD" style="stroke:#000000;stroke-width:1.5;"/><line style="stroke:#000000;stroke-width:1.5;" x1="83.5" x2="168.5" y1="445.0679" y2="445.0679"/><text fill="#000000" font-family="sans-serif" font-size="14" font-weight="bold" lengthAdjust="spacing" textLength="72" x="87.5" y="436.9659">referential</text></g><!--cluster location--><g id="cluster_location"><path d="M110,466 L167,466 A3.75,3.75 0 0 1 169.5,468.5 L176.5,491.0679 L593,491.0679 A2.5,2.5 0 0 1 595.5,493.5679 L595.5,549.5 A2.5,2.5 0 0 1 593,552 L110,552 A2.5,2.5 0 0 1 107.5,549.5 L107.5,468.5 A2.5,2.5 0 0 1 110,466 " fill="none" style="stroke:#000000;stroke-width:1.5;"/><line style="stroke:#000000;stroke-width:1.5;" x1="107.5" x2="176.5" y1="491.0679" y2="491.0679"/><text fill="#000000" font-family="sans-serif" font-size="14" font-weight="bold" lengthAdjust="spacing" textLength="56" x="111.5" y="482.9659">location</text></g><!--cluster spatial--><g id="cluster_spatial"><path d="M306,585 L353,585 A3.75,3.75 0 0 1 355.5,587.5 L362.5,610.0679 L507,610.0679 A2.5,2.5 0 0 1 509.5,612.5679 L509.5,668.5 A2.5,2.5 0 0 1 507,671 L306,671 A2.5,2.5 0 0 1 303.5,668.5 L303.5,587.5 A2.5,2.5 0 0 1 306,585 " fill="none" style="stroke:#000000;stroke-width:1.5;"/><line style="stroke:#000000;stroke-width:1.5;" x1="303.5" x2="362.5" y1="610.0679" y2="610.0679"/><text fill="#000000" font-family="sans-serif" font-size="14" font-weight="bold" lengthAdjust="spacing" textLength="46" x="307.5" y="601.9659">spatial</text></g><!--class Status--><g id="elem_Status"><rect codeLine="25" fill="#F1F1F1" height="32" id="Status" rx="2.5" ry="2.5" style="stroke:#181818;stroke-width:0.5;" width="74" x="614.5" y="504"/><ellipse cx="629.5" cy="520" fill="#ADD1B2" rx="11" ry="11" style="stroke:#181818;stroke-width:1.0;"/><path d="M628.9688,526.9219 Q627.2188,526.9219 626.0781,526.1875 Q624.9531,525.4375 624.3906,524.0938 Q623.8438,522.7344 623.8438,520.9375 Q623.8438,518.9063 624.5,517.4531 Q625.1563,516 626.4375,515.2188 Q627.7188,514.4375 629.5938,514.4375 Q630.4844,514.4375 631.1563,514.625 Q631.8281,514.7969 632.5156,515.1406 L631.7031,517.1563 Q631.0781,516.8438 630.5313,516.7188 Q630,516.5938 629.5156,516.5938 Q628.3438,516.5938 627.6406,517.125 Q626.9375,517.6563 626.6406,518.6094 Q626.3438,519.5625 626.3438,520.8281 Q626.3438,522.8438 627.0625,523.8125 Q627.7813,524.7656 629.375,524.7656 Q629.9688,524.7656 630.5938,524.6094 Q631.2188,524.4531 632.0469,524.0781 L632.0469,526.2969 Q631.3125,526.6094 630.5156,526.7656 Q629.7344,526.9219 628.9688,526.9219 Z " fill="#000000"/><text fill="#000000" font-family="sans-serif" font-size="14" lengthAdjust="spacing" textLength="42" x="643.5" y="525.432">Status</text></g><g id="elem_GMN26"><path d="M112,616.5 L112,661.912 A0,0 0 0 0 112,661.912 L285,661.912 A0,0 0 0 0 285,661.912 L285,626.5 L275,616.5 L204.91,616.5 L209.8,536.3 L196.91,616.5 L112,616.5 A0,0 0 0 0 112,616.5 " fill="#FEFFDD" style="stroke:#181818;stroke-width:0.5;"/><path d="M275,616.5 L275,626.5 L285,626.5 L275,616.5 " fill="#FEFFDD" style="stroke:#181818;stroke-width:0.5;"/><text fill="#000000" font-family="sans-serif" font-size="13" lengthAdjust="spacing" textLength="126" x="118" y="635.397">Permet de distinguer</text><text fill="#000000" font-family="sans-serif" font-size="13" lengthAdjust="spacing" textLength="152" x="118" y="653.103">lieux terrestres et en mer.</text></g><!--class LocationClassification--><g id="elem_LocationClassification"><rect codeLine="28" fill="#F1F1F1" height="32" id="LocationClassification" rx="2.5" ry="2.5" style="stroke:#181818;stroke-width:0.5;" width="177" x="123" y="504"/><ellipse cx="138" cy="520" fill="#ADD1B2" rx="11" ry="11" style="stroke:#181818;stroke-width:1.0;"/><path d="M137.4688,526.9219 Q135.7188,526.9219 134.5781,526.1875 Q133.4531,525.4375 132.8906,524.0938 Q132.3438,522.7344 132.3438,520.9375 Q132.3438,518.9063 133,517.4531 Q133.6563,516 134.9375,515.2188 Q136.2188,514.4375 138.0938,514.4375 Q138.9844,514.4375 139.6563,514.625 Q140.3281,514.7969 141.0156,515.1406 L140.2031,517.1563 Q139.5781,516.8438 139.0313,516.7188 Q138.5,516.5938 138.0156,516.5938 Q136.8438,516.5938 136.1406,517.125 Q135.4375,517.6563 135.1406,518.6094 Q134.8438,519.5625 134.8438,520.8281 Q134.8438,522.8438 135.5625,523.8125 Q136.2813,524.7656 137.875,524.7656 Q138.4688,524.7656 139.0938,524.6094 Q139.7188,524.4531 140.5469,524.0781 L140.5469,526.2969 Q139.8125,526.6094 139.0156,526.7656 Q138.2344,526.9219 137.4688,526.9219 Z " fill="#000000"/><text fill="#000000" font-family="sans-serif" font-size="14" lengthAdjust="spacing" textLength="145" x="152" y="525.432">LocationClassification</text></g><!--class LocationLevel--><g id="elem_LocationLevel"><rect codeLine="29" fill="#F1F1F1" height="32" id="LocationLevel" rx="2.5" ry="2.5" style="stroke:#181818;stroke-width:0.5;" width="122" x="457.5" y="504"/><ellipse cx="472.5" cy="520" fill="#ADD1B2" rx="11" ry="11" style="stroke:#181818;stroke-width:1.0;"/><path d="M471.9688,526.9219 Q470.2188,526.9219 469.0781,526.1875 Q467.9531,525.4375 467.3906,524.0938 Q466.8438,522.7344 466.8438,520.9375 Q466.8438,518.9063 467.5,517.4531 Q468.1563,516 469.4375,515.2188 Q470.7188,514.4375 472.5938,514.4375 Q473.4844,514.4375 474.1563,514.625 Q474.8281,514.7969 475.5156,515.1406 L474.7031,517.1563 Q474.0781,516.8438 473.5313,516.7188 Q473,516.5938 472.5156,516.5938 Q471.3438,516.5938 470.6406,517.125 Q469.9375,517.6563 469.6406,518.6094 Q469.3438,519.5625 469.3438,520.8281 Q469.3438,522.8438 470.0625,523.8125 Q470.7813,524.7656 472.375,524.7656 Q472.9688,524.7656 473.5938,524.6094 Q474.2188,524.4531 475.0469,524.0781 L475.0469,526.2969 Q474.3125,526.6094 473.5156,526.7656 Q472.7344,526.9219 471.9688,526.9219 Z " fill="#000000"/><text fill="#000000" font-family="sans-serif" font-size="14" lengthAdjust="spacing" textLength="90" x="486.5" y="525.432">LocationLevel</text></g><!--class Location--><g id="elem_Location"><rect codeLine="30" fill="#F1F1F1" height="32" id="Location" rx="2.5" ry="2.5" style="stroke:#181818;stroke-width:0.5;" width="88" x="334.5" y="504"/><ellipse cx="349.5" cy="520" fill="#ADD1B2" rx="11" ry="11" style="stroke:#181818;stroke-width:1.0;"/><path d="M348.9688,526.9219 Q347.2188,526.9219 346.0781,526.1875 Q344.9531,525.4375 344.3906,524.0938 Q343.8438,522.7344 343.8438,520.9375 Q343.8438,518.9063 344.5,517.4531 Q345.1563,516 346.4375,515.2188 Q347.7188,514.4375 349.5938,514.4375 Q350.4844,514.4375 351.1563,514.625 Q351.8281,514.7969 352.5156,515.1406 L351.7031,517.1563 Q351.0781,516.8438 350.5313,516.7188 Q350,516.5938 349.5156,516.5938 Q348.3438,516.5938 347.6406,517.125 Q346.9375,517.6563 346.6406,518.6094 Q346.3438,519.5625 346.3438,520.8281 Q346.3438,522.8438 347.0625,523.8125 Q347.7813,524.7656 349.375,524.7656 Q349.9688,524.7656 350.5938,524.6094 Q351.2188,524.4531 352.0469,524.0781 L352.0469,526.2969 Q351.3125,526.6094 350.5156,526.7656 Q349.7344,526.9219 348.9688,526.9219 Z " fill="#000000"/><text fill="#000000" font-family="sans-serif" font-size="14" lengthAdjust="spacing" textLength="56" x="363.5" y="525.432">Location</text></g><!--class SpatialItem2Location--><g id="elem_SpatialItem2Location"><rect codeLine="40" fill="#F1F1F1" height="32" id="SpatialItem2Location" rx="2.5" ry="2.5" style="stroke:#181818;stroke-width:0.5;" width="173" x="320" y="623"/><ellipse cx="335" cy="639" fill="#ADD1B2" rx="11" ry="11" style="stroke:#181818;stroke-width:1.0;"/><path d="M334.4688,645.9219 Q332.7188,645.9219 331.5781,645.1875 Q330.4531,644.4375 329.8906,643.0938 Q329.3438,641.7344 329.3438,639.9375 Q329.3438,637.9063 330,636.4531 Q330.6563,635 331.9375,634.2188 Q333.2188,633.4375 335.0938,633.4375 Q335.9844,633.4375 336.6563,633.625 Q337.3281,633.7969 338.0156,634.1406 L337.2031,636.1563 Q336.5781,635.8438 336.0313,635.7188 Q335.5,635.5938 335.0156,635.5938 Q333.8438,635.5938 333.1406,636.125 Q332.4375,636.6563 332.1406,637.6094 Q331.8438,638.5625 331.8438,639.8281 Q331.8438,641.8438 332.5625,642.8125 Q333.2813,643.7656 334.875,643.7656 Q335.4688,643.7656 336.0938,643.6094 Q336.7188,643.4531 337.5469,643.0781 L337.5469,645.2969 Q336.8125,645.6094 336.0156,645.7656 Q335.2344,645.9219 334.4688,645.9219 Z " fill="#000000"/><text fill="#000000" font-family="sans-serif" font-size="14" lengthAdjust="spacing" textLength="141" x="349" y="644.432">SpatialItem2Location</text></g><!--class Localization--><g id="elem_Localization"><rect codeLine="3" fill="#F1F1F1" height="154.4075" id="Localization" rx="2.5" ry="2.5" style="stroke:#181818;stroke-width:0.5;" width="189" x="424" y="95"/><ellipse cx="474.75" cy="111" fill="#ADD1B2" rx="11" ry="11" style="stroke:#181818;stroke-width:1.0;"/><path d="M474.2188,117.9219 Q472.4688,117.9219 471.3281,117.1875 Q470.2031,116.4375 469.6406,115.0938 Q469.0938,113.7344 469.0938,111.9375 Q469.0938,109.9063 469.75,108.4531 Q470.4063,107 471.6875,106.2188 Q472.9688,105.4375 474.8438,105.4375 Q475.7344,105.4375 476.4063,105.625 Q477.0781,105.7969 477.7656,106.1406 L476.9531,108.1563 Q476.3281,107.8438 475.7813,107.7188 Q475.25,107.5938 474.7656,107.5938 Q473.5938,107.5938 472.8906,108.125 Q472.1875,108.6563 471.8906,109.6094 Q471.5938,110.5625 471.5938,111.8281 Q471.5938,113.8438 472.3125,114.8125 Q473.0313,115.7656 474.625,115.7656 Q475.2188,115.7656 475.8438,115.6094 Q476.4688,115.4531 477.2969,115.0781 L477.2969,117.2969 Q476.5625,117.6094 475.7656,117.7656 Q474.9844,117.9219 474.2188,117.9219 Z " fill="#000000"/><text fill="#000000" font-family="sans-serif" font-size="14" lengthAdjust="spacing" textLength="79" x="495.25" y="116.432">Localization</text><line style="stroke:#181818;stroke-width:0.5;" x1="425" x2="612" y1="127" y2="127"/><ellipse cx="435" cy="142.034" fill="none" rx="3" ry="3" style="stroke:#038048;stroke-width:1.0;"/><text fill="#000000" font-family="sans-serif" font-size="14" lengthAdjust="spacing" textLength="74" x="444" y="145.9659">id : integer</text><ellipse cx="435" cy="161.1019" fill="none" rx="3" ry="3" style="stroke:#038048;stroke-width:1.0;"/><text fill="#000000" font-family="sans-serif" font-size="14" lengthAdjust="spacing" textLength="85" x="444" y="165.0339">label : string</text><ellipse cx="435" cy="180.1698" fill="none" rx="3" ry="3" style="stroke:#038048;stroke-width:1.0;"/><text fill="#000000" font-family="sans-serif" font-size="14" lengthAdjust="spacing" textLength="90" x="444" y="184.1018">name : string</text><ellipse cx="435" cy="199.2377" fill="none" rx="3" ry="3" style="stroke:#038048;stroke-width:1.0;"/><text fill="#000000" font-family="sans-serif" font-size="14" lengthAdjust="spacing" textLength="162" x="444" y="203.1697">description: string [0..1]</text><ellipse cx="435" cy="218.3056" fill="none" rx="3" ry="3" style="stroke:#038048;stroke-width:1.0;"/><text fill="#000000" font-family="sans-serif" font-size="14" lengthAdjust="spacing" textLength="129" x="444" y="222.2376">creationDate : Date</text><ellipse cx="435" cy="237.3735" fill="none" rx="3" ry="3" style="stroke:#038048;stroke-width:1.0;"/><text fill="#000000" font-family="sans-serif" font-size="14" lengthAdjust="spacing" textLength="163" x="444" y="241.3055">updateDate : timestamp</text></g><g id="elem_GMN3"><path d="M462,6 L462,33.706 A0,0 0 0 0 462,33.706 L514.5,33.706 L518.5,94.86 L522.5,33.706 L575,33.706 A0,0 0 0 0 575,33.706 L575,16 L565,6 L462,6 A0,0 0 0 0 462,6 " fill="#FEFFDD" style="stroke:#181818;stroke-width:0.5;"/><path d="M565,6 L565,16 L575,16 L565,6 " fill="#FEFFDD" style="stroke:#181818;stroke-width:0.5;"/><text fill="#000000" font-family="sans-serif" font-size="13" lengthAdjust="spacing" textLength="92" x="468" y="24.897">TODO: &#224; valider</text></g><g id="elem_GMN6"><path d="M648,158 L648,168 L613.16,172 L648,176 L648,185.706 A0,0 0 0 0 648,185.706 L929,185.706 A0,0 0 0 0 929,185.706 L929,168 L919,158 L648,158 A0,0 0 0 0 648,158 " fill="#FEFFDD" style="stroke:#181818;stroke-width:0.5;"/><path d="M919,158 L919,168 L929,168 L919,158 " fill="#FEFFDD" style="stroke:#181818;stroke-width:0.5;"/><text fill="#000000" font-family="sans-serif" font-size="13" lengthAdjust="spacing" textLength="260" x="654" y="176.897">Exemple: Guyane, La R&#233;union, Mayotte, etc.</text></g><!--class Localization2Location--><g id="elem_Localization2Location"><rect codeLine="15" fill="#F1F1F1" height="32" id="Localization2Location" rx="2.5" ry="2.5" style="stroke:#181818;stroke-width:0.5;" width="175" x="204" y="334.5"/><ellipse cx="219" cy="350.5" fill="#ADD1B2" rx="11" ry="11" style="stroke:#181818;stroke-width:1.0;"/><path d="M218.4688,357.4219 Q216.7188,357.4219 215.5781,356.6875 Q214.4531,355.9375 213.8906,354.5938 Q213.3438,353.2344 213.3438,351.4375 Q213.3438,349.4063 214,347.9531 Q214.6563,346.5 215.9375,345.7188 Q217.2188,344.9375 219.0938,344.9375 Q219.9844,344.9375 220.6563,345.125 Q221.3281,345.2969 222.0156,345.6406 L221.2031,347.6563 Q220.5781,347.3438 220.0313,347.2188 Q219.5,347.0938 219.0156,347.0938 Q217.8438,347.0938 217.1406,347.625 Q216.4375,348.1563 216.1406,349.1094 Q215.8438,350.0625 215.8438,351.3281 Q215.8438,353.3438 216.5625,354.3125 Q217.2813,355.2656 218.875,355.2656 Q219.4688,355.2656 220.0938,355.1094 Q220.7188,354.9531 221.5469,354.5781 L221.5469,356.7969 Q220.8125,357.1094 220.0156,357.2656 Q219.2344,357.4219 218.4688,357.4219 Z " fill="#000000"/><text fill="#000000" font-family="sans-serif" font-size="14" lengthAdjust="spacing" textLength="143" x="233" y="355.932">Localization2Location</text></g><g id="elem_GMN10"><path d="M6,328 L6,373.412 A0,0 0 0 0 6,373.412 L169,373.412 A0,0 0 0 0 169,373.412 L169,354.5 L203.58,350.5 L169,346.5 L169,338 L159,328 L6,328 A0,0 0 0 0 6,328 " fill="#FEFFDD" style="stroke:#181818;stroke-width:0.5;"/><path d="M159,328 L159,338 L169,338 L159,328 " fill="#FEFFDD" style="stroke:#181818;stroke-width:0.5;"/><text fill="#000000" font-family="sans-serif" font-size="13" lengthAdjust="spacing" textLength="142" x="12" y="346.897">Tous les lieux de la zone</text><text fill="#000000" font-family="sans-serif" font-size="13" lengthAdjust="spacing" textLength="120" x="12" y="364.603">(terrestre et en mer)</text></g><!--class Localization2LocationLevel--><g id="elem_Localization2LocationLevel"><rect codeLine="19" fill="#F1F1F1" height="32" id="Localization2LocationLevel" rx="2.5" ry="2.5" style="stroke:#181818;stroke-width:0.5;" width="209" x="414" y="334.5"/><ellipse cx="429" cy="350.5" fill="#ADD1B2" rx="11" ry="11" style="stroke:#181818;stroke-width:1.0;"/><path d="M428.4688,357.4219 Q426.7188,357.4219 425.5781,356.6875 Q424.4531,355.9375 423.8906,354.5938 Q423.3438,353.2344 423.3438,351.4375 Q423.3438,349.4063 424,347.9531 Q424.6563,346.5 425.9375,345.7188 Q427.2188,344.9375 429.0938,344.9375 Q429.9844,344.9375 430.6563,345.125 Q431.3281,345.2969 432.0156,345.6406 L431.2031,347.6563 Q430.5781,347.3438 430.0313,347.2188 Q429.5,347.0938 429.0156,347.0938 Q427.8438,347.0938 427.1406,347.625 Q426.4375,348.1563 426.1406,349.1094 Q425.8438,350.0625 425.8438,351.3281 Q425.8438,353.3438 426.5625,354.3125 Q427.2813,355.2656 428.875,355.2656 Q429.4688,355.2656 430.0938,355.1094 Q430.7188,354.9531 431.5469,354.5781 L431.5469,356.7969 Q430.8125,357.1094 430.0156,357.2656 Q429.2344,357.4219 428.4688,357.4219 Z " fill="#000000"/><text fill="#000000" font-family="sans-serif" font-size="14" lengthAdjust="spacing" textLength="177" x="443" y="355.932">Localization2LocationLevel</text></g><g id="elem_GMN14"><path d="M658,336.5 L658,346.5 L623.03,350.5 L658,354.5 L658,364.206 A0,0 0 0 0 658,364.206 L905,364.206 A0,0 0 0 0 905,364.206 L905,346.5 L895,336.5 L658,336.5 A0,0 0 0 0 658,336.5 " fill="#FEFFDD" style="stroke:#181818;stroke-width:0.5;"/><path d="M895,336.5 L895,346.5 L905,346.5 L895,336.5 " fill="#FEFFDD" style="stroke:#181818;stroke-width:0.5;"/><text fill="#000000" font-family="sans-serif" font-size="13" lengthAdjust="spacing" textLength="226" x="664" y="355.397">Niveau de lieux par d&#233;faut sur la zone.</text></g><!--reverse link LocationClassification to Location--><g id="link_LocationClassification_Location"><path codeLine="32" d="M306.22,520 C317.63,520 323.05,520 334.47,520 " fill="none" id="LocationClassification-backto-Location" style="stroke:#181818;stroke-width:1.0;"/><polygon fill="#181818" points="300.22,520,309.22,524,305.22,520,309.22,516,300.22,520" style="stroke:#181818;stroke-width:1.0;"/><text fill="#000000" font-family="sans-serif" font-size="13" lengthAdjust="spacing" textLength="7" x="307.857" y="516.2223">1</text><text fill="#000000" font-family="sans-serif" font-size="13" lengthAdjust="spacing" textLength="7" x="319.5978" y="515.5477">*</text></g><!--link Location to LocationLevel--><g id="link_Location_LocationLevel"><path codeLine="33" d="M422.52,520 C434.15,520 439.77,520 451.39,520 " fill="none" id="Location-to-LocationLevel" style="stroke:#181818;stroke-width:1.0;"/><polygon fill="#181818" points="457.39,520,448.39,516,452.39,520,448.39,524,457.39,520" style="stroke:#181818;stroke-width:1.0;"/><text fill="#000000" font-family="sans-serif" font-size="13" lengthAdjust="spacing" textLength="7" x="430.3905" y="515.5477">*</text><text fill="#000000" font-family="sans-serif" font-size="13" lengthAdjust="spacing" textLength="7" x="442.5157" y="515.9041">1</text></g><!--link Localization to Status--><g id="link_Localization_Status"><path codeLine="46" d="M613.18,240.29 C618.94,243.42 624.73,246.35 630.5,249 C752.69,305.07 840.79,221.24 922.5,328 C994.04,421.47 784.1653,486.0127 694.4953,508.7927 " fill="none" id="Localization-to-Status" style="stroke:#181818;stroke-width:1.0;"/><polygon fill="#181818" points="688.68,510.27,698.3878,511.9309,693.5261,509.0389,696.418,504.1772,688.68,510.27" style="stroke:#181818;stroke-width:1.0;"/><text fill="#000000" font-family="sans-serif" font-size="13" lengthAdjust="spacing" textLength="7" x="621.0037" y="241.9634">*</text><text fill="#000000" font-family="sans-serif" font-size="13" lengthAdjust="spacing" textLength="7" x="696.4346" y="503.7592">1</text></g><!--reverse link Localization to Localization2LocationLevel--><g id="link_Localization_Localization2LocationLevel"><path codeLine="47" d="M518.5,261.13 C518.5,293.04 518.5,315.1 518.5,334.21 " fill="none" id="Localization-backto-Localization2LocationLevel" style="stroke:#181818;stroke-width:1.0;"/><polygon fill="#181818" points="518.5,249.13,514.5,255.13,518.5,261.13,522.5,255.13,518.5,249.13" style="stroke:#181818;stroke-width:1.0;"/><text fill="#000000" font-family="sans-serif" font-size="13" lengthAdjust="spacing" textLength="85" x="519.5" y="293.897">locationLevels</text><text fill="#000000" font-family="sans-serif" font-size="13" lengthAdjust="spacing" textLength="7" x="511.1664" y="271.2028">1</text><text fill="#000000" font-family="sans-serif" font-size="13" lengthAdjust="spacing" textLength="20" x="495.0625" y="322.7068">0..*</text></g><!--reverse link Localization to Localization2Location--><g id="link_Localization_Localization2Location"><path codeLine="48" d="M414.4062,253.9353 C372.3062,286.6653 336.13,314.8 310.95,334.38 " fill="none" id="Localization-backto-Localization2Location" style="stroke:#181818;stroke-width:1.0;"/><polygon fill="#181818" points="423.88,246.57,416.688,247.0947,414.4062,253.9353,421.5982,253.4106,423.88,246.57" style="stroke:#181818;stroke-width:1.0;"/><text fill="#000000" font-family="sans-serif" font-size="13" lengthAdjust="spacing" textLength="54" x="378.5" y="293.897">locations</text><text fill="#000000" font-family="sans-serif" font-size="13" lengthAdjust="spacing" textLength="7" x="409.0611" y="248.7439">1</text><text fill="#000000" font-family="sans-serif" font-size="13" lengthAdjust="spacing" textLength="20" x="294.3166" y="322.6319">0..*</text></g><!--link Localization2LocationLevel to LocationLevel--><g id="link_Localization2LocationLevel_LocationLevel"><path codeLine="49" d="M518.5,366.66 C518.5,398.55 518.5,466.24 518.5,498 " fill="none" id="Localization2LocationLevel-to-LocationLevel" style="stroke:#181818;stroke-width:1.0;"/><polygon fill="#181818" points="518.5,504,522.5,495,518.5,499,514.5,495,518.5,504" style="stroke:#181818;stroke-width:1.0;"/><text fill="#000000" font-family="sans-serif" font-size="13" lengthAdjust="spacing" textLength="20" x="495.3125" y="388.5299">0..*</text><text fill="#000000" font-family="sans-serif" font-size="13" lengthAdjust="spacing" textLength="7" x="510.2531" y="492.2946">1</text></g><!--link Localization2Location to Location--><g id="link_Localization2Location_Location"><path codeLine="50" d="M299.37,366.66 C315.94,398.55 351.4439,466.9157 367.9439,498.6757 " fill="none" id="Localization2Location-to-Location" style="stroke:#181818;stroke-width:1.0;"/><polygon fill="#181818" points="370.71,504,370.1104,494.1694,368.4049,499.563,363.0113,497.8576,370.71,504" style="stroke:#181818;stroke-width:1.0;"/><text fill="#000000" font-family="sans-serif" font-size="13" lengthAdjust="spacing" textLength="20" x="278.6911" y="388.5299">0..*</text><text fill="#000000" font-family="sans-serif" font-size="13" lengthAdjust="spacing" textLength="7" x="359.6879" y="492.2946">1</text></g><!--reverse link Location to SpatialItem2Location--><g id="link_Location_SpatialItem2Location"><path codeLine="52" d="M383.5576,542.135 C388.9276,564.555 397.47,600.28 402.84,622.7 " fill="none" id="Location-backto-SpatialItem2Location" style="stroke:#181818;stroke-width:1.0;"/><polygon fill="#181818" points="382.16,536.3,380.3664,545.9842,383.3246,541.1625,388.1463,544.1207,382.16,536.3" style="stroke:#181818;stroke-width:1.0;"/><text fill="#000000" font-family="sans-serif" font-size="13" lengthAdjust="spacing" textLength="7" x="375.209" y="557.9001">1</text><text fill="#000000" font-family="sans-serif" font-size="13" lengthAdjust="spacing" textLength="7" x="393.3787" y="611.1934">*</text></g><!--SRC=[dLFDRjGm4BxdAKRBfPHcHVSOeLvOX92s555kb8CtcMmj73konwjkqRuBrpx7lXXZnzbjqY0a8aMnl_d_liczh12mQMa73JPhj2xB04ebd8ELAOMIZuAaqV2BOO0t82ieG6h23Te4AR56nQWZA_KcWLeqECOgTAMLRSZNM-3xs_dyyaToA2t6Qaj18JXyaiMt5LyIJh91Hw9fsRWF_Mh3E9aMJ3tike1lDykR0Ww_OSje5NkEtbPkxcdiNy271oP3OG4V_Kvel82LWA-79w_PUW7NOcU864KgvzD4BS8b78vzAQo9-p3UyP5VYVw1gM3QuD5elDDdXDRoG9QL843DIjZN_yY-mYsgR31C0P_b5eMFkMEHLbYe3a-ry0JEsxvYxBmLvK-nuL2iqQ8cAHIyMiQ7jOwiT-LlIP1t7T87gTH5sehddGRuVRZ9MYOYfbow_gSiMKAday7iSWRlyZXm3hFpsIbk61OB9E-WmCWvUk-xJwHmpSAQfb-8buKB-8AsONsOtKewujtrQEzqn_HHGNUIS3xapBKYaZoaxBP3Fn4sYy4a-swtGux1HeSfylmgJfQa6NkmvJpdUVdFIYDFhqznr35U_olHASSuV35IealIjpxUWyd8lmK5KgQ8wyZnxGltVVO7]--></g></svg>