<?xml version="1.0" encoding="UTF-8" standalone="no"?><svg xmlns="http://www.w3.org/2000/svg" xmlns:xlink="http://www.w3.org/1999/xlink" contentStyleType="text/css" height="464px" preserveAspectRatio="none" style="width:606px;height:464px;background:#FFFFFF;" version="1.1" viewBox="0 0 606 464" width="606px" zoomAndPan="magnify"><defs/><g><!--MD5=[11fe6be91ad07e7920240f142ef66897]
class Pmfm--><g id="elem_Pmfm"><rect codeLine="3" fill="#F1F1F1" height="154.4075" id="Pmfm" rx="2.5" ry="2.5" style="stroke:#181818;stroke-width:0.5;" width="309" x="126.39" y="303"/><ellipse cx="257.14" cy="319" fill="#ADD1B2" rx="11" ry="11" style="stroke:#181818;stroke-width:1.0;"/><path d="M256.6088,325.9219 Q254.8588,325.9219 253.7181,325.1875 Q252.5931,324.4375 252.0306,323.0938 Q251.4838,321.7344 251.4838,319.9375 Q251.4838,317.9063 252.14,316.4531 Q252.7963,315 254.0775,314.2188 Q255.3588,313.4375 257.2338,313.4375 Q258.1244,313.4375 258.7963,313.625 Q259.4681,313.7969 260.1556,314.1406 L259.3431,316.1563 Q258.7181,315.8438 258.1713,315.7188 Q257.64,315.5938 257.1556,315.5938 Q255.9838,315.5938 255.2806,316.125 Q254.5775,316.6563 254.2806,317.6094 Q253.9838,318.5625 253.9838,319.8281 Q253.9838,321.8438 254.7025,322.8125 Q255.4213,323.7656 257.015,323.7656 Q257.6088,323.7656 258.2338,323.6094 Q258.8588,323.4531 259.6869,323.0781 L259.6869,325.2969 Q258.9525,325.6094 258.1556,325.7656 Q257.3744,325.9219 256.6088,325.9219 Z " fill="#000000"/><text fill="#000000" font-family="sans-serif" font-size="14" lengthAdjust="spacing" textLength="39" x="277.64" y="324.432">Pmfm</text><line style="stroke:#181818;stroke-width:0.5;" x1="127.39" x2="434.39" y1="335" y2="335"/><ellipse cx="137.39" cy="350.034" fill="none" rx="3" ry="3" style="stroke:#038048;stroke-width:1.0;"/><text fill="#000000" font-family="sans-serif" font-size="14" lengthAdjust="spacing" textLength="81" x="146.39" y="353.9659">label: string</text><ellipse cx="137.39" cy="369.1019" fill="none" rx="3" ry="3" style="stroke:#038048;stroke-width:1.0;"/><text fill="#000000" font-family="sans-serif" font-size="14" lengthAdjust="spacing" textLength="160" x="146.39" y="373.0339">minValue [0..1] : double</text><ellipse cx="137.39" cy="388.1698" fill="none" rx="3" ry="3" style="stroke:#038048;stroke-width:1.0;"/><text fill="#000000" font-family="sans-serif" font-size="14" lengthAdjust="spacing" textLength="162" x="146.39" y="392.1018">maxValue [0..1] : double</text><ellipse cx="137.39" cy="407.2377" fill="none" rx="3" ry="3" style="stroke:#038048;stroke-width:1.0;"/><text fill="#000000" font-family="sans-serif" font-size="14" lengthAdjust="spacing" textLength="182" x="146.39" y="411.1697">defaultValue [0..1] : double</text><ellipse cx="137.39" cy="426.3056" fill="none" rx="3" ry="3" style="stroke:#038048;stroke-width:1.0;"/><text fill="#000000" font-family="sans-serif" font-size="14" lengthAdjust="spacing" textLength="283" x="146.39" y="430.2376">maximumNumberDecimals [0..1] : integer</text><ellipse cx="137.39" cy="445.3735" fill="none" rx="3" ry="3" style="stroke:#038048;stroke-width:1.0;"/><text fill="#000000" font-family="sans-serif" font-size="14" lengthAdjust="spacing" textLength="243" x="146.39" y="449.3055">signifFiguresNumber [0..1] : integer</text></g><!--MD5=[1f6362a5c8f21d8d6a0fce68f3a92a4e]
class Parameter--><g id="elem_Parameter"><rect codeLine="12" fill="#F1F1F1" height="78.1358" id="Parameter" rx="2.5" ry="2.5" style="stroke:#181818;stroke-width:0.5;" width="102" x="24.89" y="7"/><ellipse cx="39.89" cy="23" fill="#ADD1B2" rx="11" ry="11" style="stroke:#181818;stroke-width:1.0;"/><path d="M39.3588,29.9219 Q37.6088,29.9219 36.4681,29.1875 Q35.3431,28.4375 34.7806,27.0938 Q34.2338,25.7344 34.2338,23.9375 Q34.2338,21.9063 34.89,20.4531 Q35.5463,19 36.8275,18.2188 Q38.1088,17.4375 39.9838,17.4375 Q40.8744,17.4375 41.5463,17.625 Q42.2181,17.7969 42.9056,18.1406 L42.0931,20.1563 Q41.4681,19.8438 40.9213,19.7188 Q40.39,19.5938 39.9056,19.5938 Q38.7338,19.5938 38.0306,20.125 Q37.3275,20.6563 37.0306,21.6094 Q36.7338,22.5625 36.7338,23.8281 Q36.7338,25.8438 37.4525,26.8125 Q38.1713,27.7656 39.765,27.7656 Q40.3588,27.7656 40.9838,27.6094 Q41.6088,27.4531 42.4369,27.0781 L42.4369,29.2969 Q41.7025,29.6094 40.9056,29.7656 Q40.1244,29.9219 39.3588,29.9219 Z " fill="#000000"/><text fill="#000000" font-family="sans-serif" font-size="14" lengthAdjust="spacing" textLength="70" x="53.89" y="28.432">Parameter</text><line style="stroke:#181818;stroke-width:0.5;" x1="25.89" x2="125.89" y1="39" y2="39"/><ellipse cx="35.89" cy="54.034" fill="none" rx="3" ry="3" style="stroke:#038048;stroke-width:1.0;"/><text fill="#000000" font-family="sans-serif" font-size="14" lengthAdjust="spacing" textLength="33" x="44.89" y="57.9659">label</text><ellipse cx="35.89" cy="73.1019" fill="none" rx="3" ry="3" style="stroke:#038048;stroke-width:1.0;"/><text fill="#000000" font-family="sans-serif" font-size="14" lengthAdjust="spacing" textLength="38" x="44.89" y="77.0339">name</text></g><!--MD5=[92583aa6c990f1d34fb170703b5949d9]
class QualitativeValue--><g id="elem_QualitativeValue"><rect codeLine="17" fill="#F1F1F1" height="78.1358" id="QualitativeValue" rx="2.5" ry="2.5" style="stroke:#181818;stroke-width:0.5;" width="142" x="51.89" y="164"/><ellipse cx="66.89" cy="180" fill="#ADD1B2" rx="11" ry="11" style="stroke:#181818;stroke-width:1.0;"/><path d="M66.3588,186.9219 Q64.6088,186.9219 63.4681,186.1875 Q62.3431,185.4375 61.7806,184.0938 Q61.2338,182.7344 61.2338,180.9375 Q61.2338,178.9063 61.89,177.4531 Q62.5463,176 63.8275,175.2188 Q65.1088,174.4375 66.9838,174.4375 Q67.8744,174.4375 68.5463,174.625 Q69.2181,174.7969 69.9056,175.1406 L69.0931,177.1563 Q68.4681,176.8438 67.9213,176.7188 Q67.39,176.5938 66.9056,176.5938 Q65.7338,176.5938 65.0306,177.125 Q64.3275,177.6563 64.0306,178.6094 Q63.7338,179.5625 63.7338,180.8281 Q63.7338,182.8438 64.4525,183.8125 Q65.1713,184.7656 66.765,184.7656 Q67.3588,184.7656 67.9838,184.6094 Q68.6088,184.4531 69.4369,184.0781 L69.4369,186.2969 Q68.7025,186.6094 67.9056,186.7656 Q67.1244,186.9219 66.3588,186.9219 Z " fill="#000000"/><text fill="#000000" font-family="sans-serif" font-size="14" lengthAdjust="spacing" textLength="110" x="80.89" y="185.432">QualitativeValue</text><line style="stroke:#181818;stroke-width:0.5;" x1="52.89" x2="192.89" y1="196" y2="196"/><ellipse cx="62.89" cy="211.034" fill="none" rx="3" ry="3" style="stroke:#038048;stroke-width:1.0;"/><text fill="#000000" font-family="sans-serif" font-size="14" lengthAdjust="spacing" textLength="33" x="71.89" y="214.9659">label</text><ellipse cx="62.89" cy="230.1019" fill="none" rx="3" ry="3" style="stroke:#038048;stroke-width:1.0;"/><text fill="#000000" font-family="sans-serif" font-size="14" lengthAdjust="spacing" textLength="38" x="71.89" y="234.0339">name</text></g><!--MD5=[56f3777c4a342cd8020ffcf5f59f8034]
class Matrix--><g id="elem_Matrix"><rect fill="#F1F1F1" height="32" id="Matrix" rx="2.5" ry="2.5" style="stroke:#181818;stroke-width:0.5;" width="75" x="224.39" y="30"/><ellipse cx="239.39" cy="46" fill="#ADD1B2" rx="11" ry="11" style="stroke:#181818;stroke-width:1.0;"/><path d="M238.8588,52.9219 Q237.1088,52.9219 235.9681,52.1875 Q234.8431,51.4375 234.2806,50.0938 Q233.7338,48.7344 233.7338,46.9375 Q233.7338,44.9063 234.39,43.4531 Q235.0463,42 236.3275,41.2188 Q237.6088,40.4375 239.4838,40.4375 Q240.3744,40.4375 241.0463,40.625 Q241.7181,40.7969 242.4056,41.1406 L241.5931,43.1563 Q240.9681,42.8438 240.4213,42.7188 Q239.89,42.5938 239.4056,42.5938 Q238.2338,42.5938 237.5306,43.125 Q236.8275,43.6563 236.5306,44.6094 Q236.2338,45.5625 236.2338,46.8281 Q236.2338,48.8438 236.9525,49.8125 Q237.6713,50.7656 239.265,50.7656 Q239.8588,50.7656 240.4838,50.6094 Q241.1088,50.4531 241.9369,50.0781 L241.9369,52.2969 Q241.2025,52.6094 240.4056,52.7656 Q239.6244,52.9219 238.8588,52.9219 Z " fill="#000000"/><text fill="#000000" font-family="sans-serif" font-size="14" lengthAdjust="spacing" textLength="43" x="253.39" y="51.432">Matrix</text></g><!--MD5=[5e4f67693ee6129fc190f628923c6eb9]
class Fraction--><g id="elem_Fraction"><rect fill="#F1F1F1" height="32" id="Fraction" rx="2.5" ry="2.5" style="stroke:#181818;stroke-width:0.5;" width="86" x="299.89" y="187"/><ellipse cx="314.89" cy="203" fill="#ADD1B2" rx="11" ry="11" style="stroke:#181818;stroke-width:1.0;"/><path d="M314.3588,209.9219 Q312.6088,209.9219 311.4681,209.1875 Q310.3431,208.4375 309.7806,207.0938 Q309.2338,205.7344 309.2338,203.9375 Q309.2338,201.9063 309.89,200.4531 Q310.5463,199 311.8275,198.2188 Q313.1088,197.4375 314.9838,197.4375 Q315.8744,197.4375 316.5463,197.625 Q317.2181,197.7969 317.9056,198.1406 L317.0931,200.1563 Q316.4681,199.8438 315.9213,199.7188 Q315.39,199.5938 314.9056,199.5938 Q313.7338,199.5938 313.0306,200.125 Q312.3275,200.6563 312.0306,201.6094 Q311.7338,202.5625 311.7338,203.8281 Q311.7338,205.8438 312.4525,206.8125 Q313.1713,207.7656 314.765,207.7656 Q315.3588,207.7656 315.9838,207.6094 Q316.6088,207.4531 317.4369,207.0781 L317.4369,209.2969 Q316.7025,209.6094 315.9056,209.7656 Q315.1244,209.9219 314.3588,209.9219 Z " fill="#000000"/><text fill="#000000" font-family="sans-serif" font-size="14" lengthAdjust="spacing" textLength="54" x="328.89" y="208.432">Fraction</text></g><!--MD5=[ed17eb27918d6d975aac91b8ab0bf633]
class Method--><g id="elem_Method"><rect fill="#F1F1F1" height="32" id="Method" rx="2.5" ry="2.5" style="stroke:#181818;stroke-width:0.5;" width="84" x="420.89" y="187"/><ellipse cx="435.89" cy="203" fill="#ADD1B2" rx="11" ry="11" style="stroke:#181818;stroke-width:1.0;"/><path d="M435.3588,209.9219 Q433.6088,209.9219 432.4681,209.1875 Q431.3431,208.4375 430.7806,207.0938 Q430.2338,205.7344 430.2338,203.9375 Q430.2338,201.9063 430.89,200.4531 Q431.5463,199 432.8275,198.2188 Q434.1088,197.4375 435.9838,197.4375 Q436.8744,197.4375 437.5463,197.625 Q438.2181,197.7969 438.9056,198.1406 L438.0931,200.1563 Q437.4681,199.8438 436.9213,199.7188 Q436.39,199.5938 435.9056,199.5938 Q434.7338,199.5938 434.0306,200.125 Q433.3275,200.6563 433.0306,201.6094 Q432.7338,202.5625 432.7338,203.8281 Q432.7338,205.8438 433.4525,206.8125 Q434.1713,207.7656 435.765,207.7656 Q436.3588,207.7656 436.9838,207.6094 Q437.6088,207.4531 438.4369,207.0781 L438.4369,209.2969 Q437.7025,209.6094 436.9056,209.7656 Q436.1244,209.9219 435.3588,209.9219 Z " fill="#000000"/><text fill="#000000" font-family="sans-serif" font-size="14" lengthAdjust="spacing" textLength="52" x="449.89" y="208.432">Method</text></g><!--MD5=[63a373d2559db13dd8cc7d36e037ebb1]
class Unit--><g id="elem_Unit"><rect fill="#F1F1F1" height="32" id="Unit" rx="2.5" ry="2.5" style="stroke:#181818;stroke-width:0.5;" width="60" x="539.89" y="187"/><ellipse cx="554.89" cy="203" fill="#ADD1B2" rx="11" ry="11" style="stroke:#181818;stroke-width:1.0;"/><path d="M554.3588,209.9219 Q552.6088,209.9219 551.4681,209.1875 Q550.3431,208.4375 549.7806,207.0938 Q549.2338,205.7344 549.2338,203.9375 Q549.2338,201.9063 549.89,200.4531 Q550.5463,199 551.8275,198.2188 Q553.1088,197.4375 554.9838,197.4375 Q555.8744,197.4375 556.5463,197.625 Q557.2181,197.7969 557.9056,198.1406 L557.0931,200.1563 Q556.4681,199.8438 555.9213,199.7188 Q555.39,199.5938 554.9056,199.5938 Q553.7338,199.5938 553.0306,200.125 Q552.3275,200.6563 552.0306,201.6094 Q551.7338,202.5625 551.7338,203.8281 Q551.7338,205.8438 552.4525,206.8125 Q553.1713,207.7656 554.765,207.7656 Q555.3588,207.7656 555.9838,207.6094 Q556.6088,207.4531 557.4369,207.0781 L557.4369,209.2969 Q556.7025,209.6094 555.9056,209.7656 Q555.1244,209.9219 554.3588,209.9219 Z " fill="#000000"/><text fill="#000000" font-family="sans-serif" font-size="14" lengthAdjust="spacing" textLength="28" x="568.89" y="208.432">Unit</text></g><!--MD5=[6851757d6de7d2461701d01dcd58b292]
reverse link Matrix to Pmfm--><g id="link_Matrix_Pmfm"><path codeLine="22" d="M263.06,67.37 C265.68,113.18 272.15,226.28 276.53,302.85 " fill="none" id="Matrix-backto-Pmfm" style="stroke:#181818;stroke-width:1.0;"/><polygon fill="#181818" points="262.76,62.13,259.28,71.3435,263.0452,67.1219,267.2669,70.8871,262.76,62.13" style="stroke:#181818;stroke-width:1.0;"/><text fill="#000000" font-family="sans-serif" font-size="13" lengthAdjust="spacing" textLength="7" x="254.9217" y="83.9903">1</text><text fill="#000000" font-family="sans-serif" font-size="13" lengthAdjust="spacing" textLength="20" x="255.0491" y="290.9297">0..*</text></g><!--MD5=[ddebdff85438da69f5bfe3949cc21822]
reverse link Fraction to Pmfm--><g id="link_Fraction_Pmfm"><path codeLine="23" d="M335.67,224.38 C328.81,243.73 318.07,274.05 307.91,302.73 " fill="none" id="Fraction-backto-Pmfm" style="stroke:#181818;stroke-width:1.0;"/><polygon fill="#181818" points="337.5,219.22,330.7225,226.366,335.8292,223.9326,338.2626,229.0393,337.5,219.22" style="stroke:#181818;stroke-width:1.0;"/><text fill="#000000" font-family="sans-serif" font-size="13" lengthAdjust="spacing" textLength="7" x="327.7774" y="240.7956">1</text><text fill="#000000" font-family="sans-serif" font-size="13" lengthAdjust="spacing" textLength="20" x="289.5854" y="291.1987">0..*</text></g><!--MD5=[32058c817b7f9e0b9a51f5f5b4fc0472]
reverse link Method to Pmfm--><g id="link_Method_Pmfm"><path codeLine="24" d="M443.22,222.91 C423.19,242.18 390.81,273.31 360.22,302.73 " fill="none" id="Method-backto-Pmfm" style="stroke:#181818;stroke-width:1.0;"/><polygon fill="#181818" points="447.06,219.22,437.8049,222.5878,443.4608,222.6907,443.3579,228.3466,447.06,219.22" style="stroke:#181818;stroke-width:1.0;"/><text fill="#000000" font-family="sans-serif" font-size="13" lengthAdjust="spacing" textLength="7" x="434.1402" y="240.7956">1</text><text fill="#000000" font-family="sans-serif" font-size="13" lengthAdjust="spacing" textLength="20" x="347.0447" y="291.1987">0..*</text></g><!--MD5=[efdcb69a4b8d2dc6a49f24b5555531a7]
reverse link QualitativeValue to Pmfm--><g id="link_QualitativeValue_Pmfm"><path codeLine="25" d="M161.01,246.22 C176.41,263.28 194.67,283.5 212.24,302.96 " fill="none" id="QualitativeValue-backto-Pmfm" style="stroke:#181818;stroke-width:1.0;"/><polygon fill="#181818" points="157.56,242.4,160.6453,251.7531,160.9198,246.1029,166.57,246.3774,157.56,242.4" style="stroke:#181818;stroke-width:1.0;"/><text fill="#000000" font-family="sans-serif" font-size="13" lengthAdjust="spacing" textLength="20" x="141.4918" y="263.9765">0..*</text><text fill="#000000" font-family="sans-serif" font-size="13" lengthAdjust="spacing" textLength="20" x="184.1292" y="291.0511">0..*</text></g><!--MD5=[8f68ea12cf912819ec9860d20029a699]
reverse link Unit to Pmfm--><g id="link_Unit_Pmfm"><path codeLine="26" d="M548.36,222.64 C540.55,229.07 531.53,236.12 522.89,242 C491.86,263.12 457.35,284.05 424.35,302.95 " fill="none" id="Unit-backto-Pmfm" style="stroke:#181818;stroke-width:1.0;"/><polygon fill="#181818" points="552.57,219.15,543.0943,221.8353,548.7277,222.3495,548.2135,227.983,552.57,219.15" style="stroke:#181818;stroke-width:1.0;"/><text fill="#000000" font-family="sans-serif" font-size="13" lengthAdjust="spacing" textLength="7" x="538.9336" y="241.0167">1</text><text fill="#000000" font-family="sans-serif" font-size="13" lengthAdjust="spacing" textLength="20" x="418.1131" y="291.0401">0..*</text></g><!--MD5=[d68c0bb34ed275a920192bc7344e8ae0]
reverse link Parameter to Pmfm--><g id="link_Parameter_Pmfm"><path codeLine="27" d="M50.22,89.56 C28.84,131.05 6,194.64 33.89,242 C55.1,278.02 89.58,305.25 126.13,325.54 " fill="none" id="Parameter-backto-Pmfm" style="stroke:#181818;stroke-width:1.0;"/><polygon fill="#181818" points="52.55,85.11,44.8365,91.2339,50.2342,89.5414,51.9267,94.9391,52.55,85.11" style="stroke:#181818;stroke-width:1.0;"/><text fill="#000000" font-family="sans-serif" font-size="13" lengthAdjust="spacing" textLength="7" x="41.1046" y="106.9396">1</text><text fill="#000000" font-family="sans-serif" font-size="13" lengthAdjust="spacing" textLength="20" x="98.1494" y="319.3946">0..*</text></g><!--MD5=[324138127e2f2601589e5a0e3595d465]
link Matrix to Fraction--><g id="link_Matrix_Fraction"><path codeLine="29" d="M269.8,62.14 C285.25,91.7 319.26,156.78 334.82,186.56 " fill="none" id="Matrix-Fraction" style="stroke:#181818;stroke-width:1.0;"/><text fill="#000000" font-family="sans-serif" font-size="13" lengthAdjust="spacing" textLength="7" x="264.2057" y="84.0035">1</text><text fill="#000000" font-family="sans-serif" font-size="13" lengthAdjust="spacing" textLength="20" x="308.8343" y="175.3126">1..*</text></g><!--MD5=[74d23ef64a4106e12f153a52da56e652]
reverse link Parameter to QualitativeValue--><g id="link_Parameter_QualitativeValue"><path codeLine="30" d="M91.32,97.88 C97.84,119.37 105.29,143.97 111.32,163.86 " fill="none" id="Parameter-backto-QualitativeValue" style="stroke:#181818;stroke-width:1.0;"/><polygon fill="#181818" points="87.51,85.31,85.4319,92.2152,91.0066,96.7893,93.0847,89.8841,87.51,85.31" style="stroke:#181818;stroke-width:1.0;"/><text fill="#000000" font-family="sans-serif" font-size="13" lengthAdjust="spacing" textLength="51" x="103.89" y="129.897">contains</text><text fill="#000000" font-family="sans-serif" font-size="13" lengthAdjust="spacing" textLength="7" x="81.8549" y="107.1728">1</text><text fill="#000000" font-family="sans-serif" font-size="13" lengthAdjust="spacing" textLength="20" x="87.4778" y="152.3219">0..*</text></g></g></svg>