<?xml version="1.0" encoding="UTF-8" standalone="no"?><svg xmlns="http://www.w3.org/2000/svg" xmlns:xlink="http://www.w3.org/1999/xlink" contentScriptType="application/ecmascript" contentStyleType="text/css" height="454px" preserveAspectRatio="none" style="width:544px;height:454px;" version="1.1" viewBox="0 0 544 454" width="544px" zoomAndPan="magnify"><defs><filter height="300%" id="fjoilwu7u0rds" width="300%" x="-1" y="-1"><feGaussianBlur result="blurOut" stdDeviation="2.0"/><feColorMatrix in="blurOut" result="blurOut2" type="matrix" values="0 0 0 0 0 0 0 0 0 0 0 0 0 0 0 0 0 0 .4 0"/><feOffset dx="4.0" dy="4.0" in="blurOut2" result="blurOut3"/><feBlend in="SourceGraphic" in2="blurOut3" mode="normal"/></filter></defs><g><!--class Pmfm--><rect fill="#FEFECE" filter="url(#fjoilwu7u0rds)" height="131.0156" id="Pmfm" style="stroke: #A80036; stroke-width: 1.5;" width="219" x="164.5" y="8"/><ellipse cx="253.25" cy="24" fill="#ADD1B2" rx="11" ry="11" style="stroke: #A80036; stroke-width: 1.0;"/><path d="M255.25,20.5 Q255.4531,20 255.6875,19.75 Q255.9219,19.5 256.1875,19.5 Q256.6563,19.5 256.9531,19.7813 Q257.25,20.0625 257.25,20.7188 L257.25,22.2813 Q257.25,22.9375 256.9688,23.2188 Q256.6875,23.5 256.25,23.5 Q255.8594,23.5 255.6094,23.3281 Q255.3594,23.1563 255.25,22.7031 Q255.2031,22.3906 255.0313,22.2188 Q254.7188,21.8906 254.1563,21.6953 Q253.5938,21.5 253.0313,21.5 Q252.3281,21.5 251.7422,21.7813 Q251.1563,22.0625 250.7031,22.6875 Q250.25,23.3125 250.25,24.1719 L250.25,25.0938 Q250.25,26.125 251.0938,26.8125 Q251.9375,27.5 253.4375,27.5 Q254.3281,27.5 254.9531,27.2969 Q255.3125,27.1875 255.7188,26.8281 Q255.9844,26.625 256.125,26.5625 Q256.2656,26.5 256.4375,26.5 Q256.7656,26.5 257.0078,26.7578 Q257.25,27.0156 257.25,27.375 Q257.25,27.7188 256.9063,28.125 Q256.4063,28.7188 255.6094,29.0469 Q254.5625,29.5 253.2813,29.5 Q251.7813,29.5 250.5781,28.9063 Q249.6094,28.4375 248.9297,27.4219 Q248.25,26.4063 248.25,25.2031 L248.25,24.1094 Q248.25,22.8594 248.8516,21.7656 Q249.4531,20.6719 250.5078,20.0859 Q251.5625,19.5 252.75,19.5 Q253.4688,19.5 254.0938,19.75 Q254.7188,20 255.25,20.5 Z "/><text fill="#000000" font-family="sans-serif" font-size="12" lengthAdjust="spacingAndGlyphs" textLength="33" x="273.75" y="28.9102">Pmfm</text><line style="stroke: #A80036; stroke-width: 1.5;" x1="165.5" x2="382.5" y1="40" y2="40"/><ellipse cx="175.5" cy="52.418" fill="none" rx="3" ry="3" style="stroke: #038048; stroke-width: 1.0;"/><text fill="#000000" font-family="sans-serif" font-size="11" lengthAdjust="spacingAndGlyphs" textLength="55" x="184.5" y="55.4189">label: string</text><ellipse cx="175.5" cy="66.2539" fill="none" rx="3" ry="3" style="stroke: #038048; stroke-width: 1.0;"/><text fill="#000000" font-family="sans-serif" font-size="11" lengthAdjust="spacingAndGlyphs" textLength="112" x="184.5" y="69.2549">minValue [0..1] : double</text><ellipse cx="175.5" cy="80.0898" fill="none" rx="3" ry="3" style="stroke: #038048; stroke-width: 1.0;"/><text fill="#000000" font-family="sans-serif" font-size="11" lengthAdjust="spacingAndGlyphs" textLength="116" x="184.5" y="83.0908">maxValue [0..1] : double</text><ellipse cx="175.5" cy="93.9258" fill="none" rx="3" ry="3" style="stroke: #038048; stroke-width: 1.0;"/><text fill="#000000" font-family="sans-serif" font-size="11" lengthAdjust="spacingAndGlyphs" textLength="129" x="184.5" y="96.9268">defaultValue [0..1] : double</text><ellipse cx="175.5" cy="107.7617" fill="none" rx="3" ry="3" style="stroke: #038048; stroke-width: 1.0;"/><text fill="#000000" font-family="sans-serif" font-size="11" lengthAdjust="spacingAndGlyphs" textLength="193" x="184.5" y="110.7627">maximumNumberDecimals [0..1] : integer</text><ellipse cx="175.5" cy="121.5977" fill="none" rx="3" ry="3" style="stroke: #038048; stroke-width: 1.0;"/><text fill="#000000" font-family="sans-serif" font-size="11" lengthAdjust="spacingAndGlyphs" textLength="168" x="184.5" y="124.5986">signifFiguresNumber [0..1] : integer</text><line style="stroke: #A80036; stroke-width: 1.5;" x1="165.5" x2="382.5" y1="131.0156" y2="131.0156"/><!--class Parameter--><rect fill="#FEFECE" filter="url(#fjoilwu7u0rds)" height="89.5078" id="Parameter" style="stroke: #A80036; stroke-width: 1.5;" width="90" x="6" y="200"/><ellipse cx="21" cy="216" fill="#ADD1B2" rx="11" ry="11" style="stroke: #A80036; stroke-width: 1.0;"/><path d="M23,212.5 Q23.2031,212 23.4375,211.75 Q23.6719,211.5 23.9375,211.5 Q24.4063,211.5 24.7031,211.7813 Q25,212.0625 25,212.7188 L25,214.2813 Q25,214.9375 24.7188,215.2188 Q24.4375,215.5 24,215.5 Q23.6094,215.5 23.3594,215.3281 Q23.1094,215.1563 23,214.7031 Q22.9531,214.3906 22.7813,214.2188 Q22.4688,213.8906 21.9063,213.6953 Q21.3438,213.5 20.7813,213.5 Q20.0781,213.5 19.4922,213.7813 Q18.9063,214.0625 18.4531,214.6875 Q18,215.3125 18,216.1719 L18,217.0938 Q18,218.125 18.8438,218.8125 Q19.6875,219.5 21.1875,219.5 Q22.0781,219.5 22.7031,219.2969 Q23.0625,219.1875 23.4688,218.8281 Q23.7344,218.625 23.875,218.5625 Q24.0156,218.5 24.1875,218.5 Q24.5156,218.5 24.7578,218.7578 Q25,219.0156 25,219.375 Q25,219.7188 24.6563,220.125 Q24.1563,220.7188 23.3594,221.0469 Q22.3125,221.5 21.0313,221.5 Q19.5313,221.5 18.3281,220.9063 Q17.3594,220.4375 16.6797,219.4219 Q16,218.4063 16,217.2031 L16,216.1094 Q16,214.8594 16.6016,213.7656 Q17.2031,212.6719 18.2578,212.0859 Q19.3125,211.5 20.5,211.5 Q21.2188,211.5 21.8438,211.75 Q22.4688,212 23,212.5 Z "/><text fill="#000000" font-family="sans-serif" font-size="12" lengthAdjust="spacingAndGlyphs" textLength="58" x="35" y="220.9102">Parameter</text><line style="stroke: #A80036; stroke-width: 1.5;" x1="7" x2="95" y1="232" y2="232"/><ellipse cx="17" cy="244.418" fill="none" rx="3" ry="3" style="stroke: #038048; stroke-width: 1.0;"/><text fill="#000000" font-family="sans-serif" font-size="11" lengthAdjust="spacingAndGlyphs" textLength="58" x="26" y="247.4189">isQualitative</text><ellipse cx="17" cy="258.2539" fill="none" rx="3" ry="3" style="stroke: #038048; stroke-width: 1.0;"/><text fill="#000000" font-family="sans-serif" font-size="11" lengthAdjust="spacingAndGlyphs" textLength="58" x="26" y="261.2549">label = code</text><ellipse cx="17" cy="272.0898" fill="none" rx="3" ry="3" style="stroke: #038048; stroke-width: 1.0;"/><text fill="#000000" font-family="sans-serif" font-size="11" lengthAdjust="spacingAndGlyphs" textLength="26" x="26" y="275.0908">name</text><line style="stroke: #A80036; stroke-width: 1.5;" x1="7" x2="95" y1="281.5078" y2="281.5078"/><!--class QualitativeValue--><rect fill="#FEFECE" filter="url(#fjoilwu7u0rds)" height="75.6719" id="QualitativeValue" style="stroke: #A80036; stroke-width: 1.5;" width="120" x="46" y="368"/><ellipse cx="61" cy="384" fill="#ADD1B2" rx="11" ry="11" style="stroke: #A80036; stroke-width: 1.0;"/><path d="M63,380.5 Q63.2031,380 63.4375,379.75 Q63.6719,379.5 63.9375,379.5 Q64.4063,379.5 64.7031,379.7813 Q65,380.0625 65,380.7188 L65,382.2813 Q65,382.9375 64.7188,383.2188 Q64.4375,383.5 64,383.5 Q63.6094,383.5 63.3594,383.3281 Q63.1094,383.1563 63,382.7031 Q62.9531,382.3906 62.7813,382.2188 Q62.4688,381.8906 61.9063,381.6953 Q61.3438,381.5 60.7813,381.5 Q60.0781,381.5 59.4922,381.7813 Q58.9063,382.0625 58.4531,382.6875 Q58,383.3125 58,384.1719 L58,385.0938 Q58,386.125 58.8438,386.8125 Q59.6875,387.5 61.1875,387.5 Q62.0781,387.5 62.7031,387.2969 Q63.0625,387.1875 63.4688,386.8281 Q63.7344,386.625 63.875,386.5625 Q64.0156,386.5 64.1875,386.5 Q64.5156,386.5 64.7578,386.7578 Q65,387.0156 65,387.375 Q65,387.7188 64.6563,388.125 Q64.1563,388.7188 63.3594,389.0469 Q62.3125,389.5 61.0313,389.5 Q59.5313,389.5 58.3281,388.9063 Q57.3594,388.4375 56.6797,387.4219 Q56,386.4063 56,385.2031 L56,384.1094 Q56,382.8594 56.6016,381.7656 Q57.2031,380.6719 58.2578,380.0859 Q59.3125,379.5 60.5,379.5 Q61.2188,379.5 61.8438,379.75 Q62.4688,380 63,380.5 Z "/><text fill="#000000" font-family="sans-serif" font-size="12" lengthAdjust="spacingAndGlyphs" textLength="88" x="75" y="388.9102">QualitativeValue</text><line style="stroke: #A80036; stroke-width: 1.5;" x1="47" x2="165" y1="400" y2="400"/><ellipse cx="57" cy="412.418" fill="none" rx="3" ry="3" style="stroke: #038048; stroke-width: 1.0;"/><text fill="#000000" font-family="sans-serif" font-size="11" lengthAdjust="spacingAndGlyphs" textLength="22" x="66" y="415.4189">label</text><ellipse cx="57" cy="426.2539" fill="none" rx="3" ry="3" style="stroke: #038048; stroke-width: 1.0;"/><text fill="#000000" font-family="sans-serif" font-size="11" lengthAdjust="spacingAndGlyphs" textLength="26" x="66" y="429.2549">name</text><line style="stroke: #A80036; stroke-width: 1.5;" x1="47" x2="165" y1="435.6719" y2="435.6719"/><!--class Method--><rect fill="#FEFECE" filter="url(#fjoilwu7u0rds)" height="48" id="Method" style="stroke: #A80036; stroke-width: 1.5;" width="72" x="202" y="221"/><ellipse cx="217" cy="237" fill="#ADD1B2" rx="11" ry="11" style="stroke: #A80036; stroke-width: 1.0;"/><path d="M219,233.5 Q219.2031,233 219.4375,232.75 Q219.6719,232.5 219.9375,232.5 Q220.4063,232.5 220.7031,232.7813 Q221,233.0625 221,233.7188 L221,235.2813 Q221,235.9375 220.7188,236.2188 Q220.4375,236.5 220,236.5 Q219.6094,236.5 219.3594,236.3281 Q219.1094,236.1563 219,235.7031 Q218.9531,235.3906 218.7813,235.2188 Q218.4688,234.8906 217.9063,234.6953 Q217.3438,234.5 216.7813,234.5 Q216.0781,234.5 215.4922,234.7813 Q214.9063,235.0625 214.4531,235.6875 Q214,236.3125 214,237.1719 L214,238.0938 Q214,239.125 214.8438,239.8125 Q215.6875,240.5 217.1875,240.5 Q218.0781,240.5 218.7031,240.2969 Q219.0625,240.1875 219.4688,239.8281 Q219.7344,239.625 219.875,239.5625 Q220.0156,239.5 220.1875,239.5 Q220.5156,239.5 220.7578,239.7578 Q221,240.0156 221,240.375 Q221,240.7188 220.6563,241.125 Q220.1563,241.7188 219.3594,242.0469 Q218.3125,242.5 217.0313,242.5 Q215.5313,242.5 214.3281,241.9063 Q213.3594,241.4375 212.6797,240.4219 Q212,239.4063 212,238.2031 L212,237.1094 Q212,235.8594 212.6016,234.7656 Q213.2031,233.6719 214.2578,233.0859 Q215.3125,232.5 216.5,232.5 Q217.2188,232.5 217.8438,232.75 Q218.4688,233 219,233.5 Z "/><text fill="#000000" font-family="sans-serif" font-size="12" lengthAdjust="spacingAndGlyphs" textLength="40" x="231" y="241.9102">Method</text><line style="stroke: #A80036; stroke-width: 1.5;" x1="203" x2="273" y1="253" y2="253"/><line style="stroke: #A80036; stroke-width: 1.5;" x1="203" x2="273" y1="261" y2="261"/><!--class Matrix--><rect fill="#FEFECE" filter="url(#fjoilwu7u0rds)" height="48" id="Matrix" style="stroke: #A80036; stroke-width: 1.5;" width="63" x="309.5" y="221"/><ellipse cx="324.5" cy="237" fill="#ADD1B2" rx="11" ry="11" style="stroke: #A80036; stroke-width: 1.0;"/><path d="M326.5,233.5 Q326.7031,233 326.9375,232.75 Q327.1719,232.5 327.4375,232.5 Q327.9063,232.5 328.2031,232.7813 Q328.5,233.0625 328.5,233.7188 L328.5,235.2813 Q328.5,235.9375 328.2188,236.2188 Q327.9375,236.5 327.5,236.5 Q327.1094,236.5 326.8594,236.3281 Q326.6094,236.1563 326.5,235.7031 Q326.4531,235.3906 326.2813,235.2188 Q325.9688,234.8906 325.4063,234.6953 Q324.8438,234.5 324.2813,234.5 Q323.5781,234.5 322.9922,234.7813 Q322.4063,235.0625 321.9531,235.6875 Q321.5,236.3125 321.5,237.1719 L321.5,238.0938 Q321.5,239.125 322.3438,239.8125 Q323.1875,240.5 324.6875,240.5 Q325.5781,240.5 326.2031,240.2969 Q326.5625,240.1875 326.9688,239.8281 Q327.2344,239.625 327.375,239.5625 Q327.5156,239.5 327.6875,239.5 Q328.0156,239.5 328.2578,239.7578 Q328.5,240.0156 328.5,240.375 Q328.5,240.7188 328.1563,241.125 Q327.6563,241.7188 326.8594,242.0469 Q325.8125,242.5 324.5313,242.5 Q323.0313,242.5 321.8281,241.9063 Q320.8594,241.4375 320.1797,240.4219 Q319.5,239.4063 319.5,238.2031 L319.5,237.1094 Q319.5,235.8594 320.1016,234.7656 Q320.7031,233.6719 321.7578,233.0859 Q322.8125,232.5 324,232.5 Q324.7188,232.5 325.3438,232.75 Q325.9688,233 326.5,233.5 Z "/><text fill="#000000" font-family="sans-serif" font-size="12" lengthAdjust="spacingAndGlyphs" textLength="31" x="338.5" y="241.9102">Matrix</text><line style="stroke: #A80036; stroke-width: 1.5;" x1="310.5" x2="371.5" y1="253" y2="253"/><line style="stroke: #A80036; stroke-width: 1.5;" x1="310.5" x2="371.5" y1="261" y2="261"/><!--class Fraction--><rect fill="#FEFECE" filter="url(#fjoilwu7u0rds)" height="48" id="Fraction" style="stroke: #A80036; stroke-width: 1.5;" width="76" x="366" y="382"/><ellipse cx="381" cy="398" fill="#ADD1B2" rx="11" ry="11" style="stroke: #A80036; stroke-width: 1.0;"/><path d="M383,394.5 Q383.2031,394 383.4375,393.75 Q383.6719,393.5 383.9375,393.5 Q384.4063,393.5 384.7031,393.7813 Q385,394.0625 385,394.7188 L385,396.2813 Q385,396.9375 384.7188,397.2188 Q384.4375,397.5 384,397.5 Q383.6094,397.5 383.3594,397.3281 Q383.1094,397.1563 383,396.7031 Q382.9531,396.3906 382.7813,396.2188 Q382.4688,395.8906 381.9063,395.6953 Q381.3438,395.5 380.7813,395.5 Q380.0781,395.5 379.4922,395.7813 Q378.9063,396.0625 378.4531,396.6875 Q378,397.3125 378,398.1719 L378,399.0938 Q378,400.125 378.8438,400.8125 Q379.6875,401.5 381.1875,401.5 Q382.0781,401.5 382.7031,401.2969 Q383.0625,401.1875 383.4688,400.8281 Q383.7344,400.625 383.875,400.5625 Q384.0156,400.5 384.1875,400.5 Q384.5156,400.5 384.7578,400.7578 Q385,401.0156 385,401.375 Q385,401.7188 384.6563,402.125 Q384.1563,402.7188 383.3594,403.0469 Q382.3125,403.5 381.0313,403.5 Q379.5313,403.5 378.3281,402.9063 Q377.3594,402.4375 376.6797,401.4219 Q376,400.4063 376,399.2031 L376,398.1094 Q376,396.8594 376.6016,395.7656 Q377.2031,394.6719 378.2578,394.0859 Q379.3125,393.5 380.5,393.5 Q381.2188,393.5 381.8438,393.75 Q382.4688,394 383,394.5 Z "/><text fill="#000000" font-family="sans-serif" font-size="12" lengthAdjust="spacingAndGlyphs" textLength="44" x="395" y="402.9102">Fraction</text><line style="stroke: #A80036; stroke-width: 1.5;" x1="367" x2="441" y1="414" y2="414"/><line style="stroke: #A80036; stroke-width: 1.5;" x1="367" x2="441" y1="422" y2="422"/><!--class Unit--><rect fill="#FEFECE" filter="url(#fjoilwu7u0rds)" height="48" id="Unit" style="stroke: #A80036; stroke-width: 1.5;" width="54" x="479" y="221"/><ellipse cx="494" cy="237" fill="#ADD1B2" rx="11" ry="11" style="stroke: #A80036; stroke-width: 1.0;"/><path d="M496,233.5 Q496.2031,233 496.4375,232.75 Q496.6719,232.5 496.9375,232.5 Q497.4063,232.5 497.7031,232.7813 Q498,233.0625 498,233.7188 L498,235.2813 Q498,235.9375 497.7188,236.2188 Q497.4375,236.5 497,236.5 Q496.6094,236.5 496.3594,236.3281 Q496.1094,236.1563 496,235.7031 Q495.9531,235.3906 495.7813,235.2188 Q495.4688,234.8906 494.9063,234.6953 Q494.3438,234.5 493.7813,234.5 Q493.0781,234.5 492.4922,234.7813 Q491.9063,235.0625 491.4531,235.6875 Q491,236.3125 491,237.1719 L491,238.0938 Q491,239.125 491.8438,239.8125 Q492.6875,240.5 494.1875,240.5 Q495.0781,240.5 495.7031,240.2969 Q496.0625,240.1875 496.4688,239.8281 Q496.7344,239.625 496.875,239.5625 Q497.0156,239.5 497.1875,239.5 Q497.5156,239.5 497.7578,239.7578 Q498,240.0156 498,240.375 Q498,240.7188 497.6563,241.125 Q497.1563,241.7188 496.3594,242.0469 Q495.3125,242.5 494.0313,242.5 Q492.5313,242.5 491.3281,241.9063 Q490.3594,241.4375 489.6797,240.4219 Q489,239.4063 489,238.2031 L489,237.1094 Q489,235.8594 489.6016,234.7656 Q490.2031,233.6719 491.2578,233.0859 Q492.3125,232.5 493.5,232.5 Q494.2188,232.5 494.8438,232.75 Q495.4688,233 496,233.5 Z "/><text fill="#000000" font-family="sans-serif" font-size="12" lengthAdjust="spacingAndGlyphs" textLength="22" x="508" y="241.9102">Unit</text><line style="stroke: #A80036; stroke-width: 1.5;" x1="480" x2="532" y1="253" y2="253"/><line style="stroke: #A80036; stroke-width: 1.5;" x1="480" x2="532" y1="261" y2="261"/><!--link Pmfm to Method--><path d="M260.287,139.064 C254.682,165.456 248.488,194.62 244.055,215.491 " fill="none" id="Pmfm-Method" style="stroke: #A80036; stroke-width: 1.0;"/><polygon fill="#A80036" points="242.968,220.611,248.7505,212.6384,244.0068,215.7201,240.925,210.9764,242.968,220.611" style="stroke: #A80036; stroke-width: 1.0;"/><text fill="#000000" font-family="sans-serif" font-size="13" lengthAdjust="spacingAndGlyphs" textLength="20" x="237.6934" y="160.6236">0..*</text><text fill="#000000" font-family="sans-serif" font-size="13" lengthAdjust="spacingAndGlyphs" textLength="7" x="236.3258" y="210.2541">1</text><!--link Pmfm to Matrix--><path d="M299.521,139.064 C309.997,165.568 321.579,194.867 329.835,215.755 " fill="none" id="Pmfm-Matrix" style="stroke: #A80036; stroke-width: 1.0;"/><polygon fill="#A80036" points="331.755,220.611,332.1655,210.7707,329.9165,215.9613,324.726,213.7122,331.755,220.611" style="stroke: #A80036; stroke-width: 1.0;"/><text fill="#000000" font-family="sans-serif" font-size="13" lengthAdjust="spacingAndGlyphs" textLength="20" x="281.2186" y="160.6236">0..*</text><text fill="#000000" font-family="sans-serif" font-size="13" lengthAdjust="spacingAndGlyphs" textLength="7" x="321.6484" y="210.2541">1</text><!--link Pmfm to Fraction--><path d="M348.637,139.09 C364.963,157.108 380.259,177.868 390,200 C415.787,258.59 412.302,335.765 407.911,376.6844 " fill="none" id="Pmfm-Fraction" style="stroke: #A80036; stroke-width: 1.0;"/><polygon fill="#A80036" points="407.317,381.9717,412.2974,373.4749,407.8756,377.003,404.3475,372.5812,407.317,381.9717" style="stroke: #A80036; stroke-width: 1.0;"/><text fill="#000000" font-family="sans-serif" font-size="13" lengthAdjust="spacingAndGlyphs" textLength="20" x="335.7067" y="160.6524">0..*</text><text fill="#000000" font-family="sans-serif" font-size="13" lengthAdjust="spacingAndGlyphs" textLength="7" x="400.2701" y="371.3046">1</text><!--link Pmfm to QualitativeValue--><path d="M222.782,139.176 C209.126,158.131 195.1,179.332 184,200 C168.466,228.924 138.469,311.894 120.541,362.978 " fill="none" id="Pmfm-QualitativeValue" style="stroke: #A80036; stroke-width: 1.0;"/><polygon fill="#A80036" points="118.845,367.8192,125.5962,360.6483,120.4985,363.1005,118.0463,358.0028,118.845,367.8192" style="stroke: #A80036; stroke-width: 1.0;"/><text fill="#000000" font-family="sans-serif" font-size="13" lengthAdjust="spacingAndGlyphs" textLength="20" x="196.4689" y="160.2863">0..*</text><text fill="#000000" font-family="sans-serif" font-size="13" lengthAdjust="spacingAndGlyphs" textLength="20" x="99.3516" y="357.1489">0..*</text><!--link Pmfm to Unit--><path d="M383.602,122.517 C407.508,135.682 431.7,151.288 452,169 C467.339,182.383 480.737,200.923 490.351,216.22 " fill="none" id="Pmfm-Unit" style="stroke: #A80036; stroke-width: 1.0;"/><polygon fill="#A80036" points="493.211,220.854,491.8871,211.0945,490.5845,216.5994,485.0797,215.2969,493.211,220.854" style="stroke: #A80036; stroke-width: 1.0;"/><text fill="#000000" font-family="sans-serif" font-size="13" lengthAdjust="spacingAndGlyphs" textLength="20" x="391.6378" y="122.7792">0..*</text><text fill="#000000" font-family="sans-serif" font-size="13" lengthAdjust="spacingAndGlyphs" textLength="7" x="482.0369" y="210.1567">1</text><!--link Pmfm to Parameter--><path d="M164.129,138.754 C149.907,148.363 135.839,158.564 123,169 C113.073,177.069 103.1237,186.419 93.9258,195.721 " fill="none" id="Pmfm-Parameter" style="stroke: #A80036; stroke-width: 1.0;"/><polygon fill="#A80036" points="90.032,199.702,99.1846,196.0647,93.5281,196.1275,93.4653,190.471,90.032,199.702" style="stroke: #A80036; stroke-width: 1.0;"/><text fill="#000000" font-family="sans-serif" font-size="13" lengthAdjust="spacingAndGlyphs" textLength="20" x="136.4498" y="139.9277">0..*</text><text fill="#000000" font-family="sans-serif" font-size="13" lengthAdjust="spacingAndGlyphs" textLength="7" x="88.4728" y="189.1005">1</text><!--link Matrix to Fraction--><path d="M350.161,269.12 C362.105,299.265 382.878,351.6931 394.828,381.8521 " fill="none" id="Matrix-Fraction" style="stroke: #A80036; stroke-width: 1.0;"/><text fill="#000000" font-family="sans-serif" font-size="13" lengthAdjust="spacingAndGlyphs" textLength="7" x="344.5409" y="290.4872">1</text><text fill="#000000" font-family="sans-serif" font-size="13" lengthAdjust="spacingAndGlyphs" textLength="20" x="369.9152" y="371.1544">1..*</text><!--link Parameter to QualitativeValue--><path d="M61.7421,303.104 C64.5789,314.801 67.9923,326.918 72,338 C75.5932,347.9358 80.3164,358.2917 85.0949,367.8071 " fill="none" id="Parameter-QualitativeValue" style="stroke: #A80036; stroke-width: 1.0;"/><polygon fill="#A80036" points="58.7835,290.155,56.2205,296.8952,61.4565,301.8535,64.0195,295.1133,58.7835,290.155" style="stroke: #A80036; stroke-width: 1.0;"/><text fill="#000000" font-family="sans-serif" font-size="13" lengthAdjust="spacingAndGlyphs" textLength="49" x="73" y="334.4951">contains</text><text fill="#000000" font-family="sans-serif" font-size="13" lengthAdjust="spacingAndGlyphs" textLength="7" x="52.3591" y="310.8495">1</text><text fill="#000000" font-family="sans-serif" font-size="13" lengthAdjust="spacingAndGlyphs" textLength="20" x="59.5899" y="357.1346">0..*</text><!--
@startuml

class Pmfm {
  +label: string
  +minValue [0..1] : double
  +maxValue [0..1] : double
  +defaultValue [0..1] : double
  +maximumNumberDecimals [0..1] : integer
  +signifFiguresNumber [0..1] : integer
}

class Parameter {
  +isQualitative
  +label = code
  +name
}

class QualitativeValue {
  +label
  +name
}

Method "1" <-down- "0..*" Pmfm
Matrix "1" <-down- "0..*" Pmfm
Fraction "1" <-down- "0..*" Pmfm
QualitativeValue "0..*" <-down- "0..*" Pmfm
Unit "1" <-down- "0..*" Pmfm
Parameter "1" <-down- "0..*" Pmfm

Matrix "1" - - "1..*" Fraction
Parameter "1" *- - "0..*" QualitativeValue : contains

@enduml

PlantUML version 1.2019.06(Fri May 24 19:10:25 CEST 2019)
(GPL source distribution)
Java Runtime: OpenJDK Runtime Environment
JVM: OpenJDK 64-Bit Server VM
Java Version: 1.8.0_212-release-1586-b4
Operating System: Windows 10
OS Version: 10.0
Default Encoding: Cp1252
Language: fr
Country: FR
--></g></svg>