<?xml version="1.0" encoding="us-ascii" standalone="no"?><svg xmlns="http://www.w3.org/2000/svg" xmlns:xlink="http://www.w3.org/1999/xlink" contentStyleType="text/css" height="448px" preserveAspectRatio="none" style="width:617px;height:448px;background:#FFFFFF;" version="1.1" viewBox="0 0 617 448" width="617px" zoomAndPan="magnify"><defs/><g><!--class Pmfm--><g id="elem_Pmfm"><rect codeLine="3" fill="#F1F1F1" height="145.6563" id="Pmfm" rx="2.5" ry="2.5" style="stroke:#181818;stroke-width:0.5;" width="282" x="160" y="296"/><ellipse cx="279.25" cy="312" fill="#ADD1B2" rx="11" ry="11" style="stroke:#181818;stroke-width:1.0;"/><path d="M282.0156,307.875 Q282.1719,307.6563 282.3594,307.5469 Q282.5469,307.4375 282.7656,307.4375 Q283.1406,307.4375 283.375,307.6953 Q283.6094,307.9531 283.6094,308.5625 L283.6094,310.0156 Q283.6094,310.625 283.375,310.8906 Q283.1406,311.1563 282.7656,311.1563 Q282.4219,311.1563 282.2188,310.9531 Q282.0156,310.7656 281.9063,310.25 Q281.8594,309.8906 281.6719,309.7031 Q281.3438,309.3281 280.7344,309.1094 Q280.125,308.8906 279.5,308.8906 Q278.7344,308.8906 278.1016,309.2188 Q277.4688,309.5469 276.9766,310.2969 Q276.4844,311.0469 276.4844,312.0781 L276.4844,313.1719 Q276.4844,314.4063 277.375,315.2266 Q278.2656,316.0469 279.8594,316.0469 Q280.7969,316.0469 281.4531,315.7969 Q281.8438,315.6406 282.2656,315.2031 Q282.5313,314.9375 282.6797,314.8594 Q282.8281,314.7813 283.0313,314.7813 Q283.3594,314.7813 283.6172,315.0391 Q283.875,315.2969 283.875,315.6406 Q283.875,315.9844 283.5313,316.3906 Q283.0313,316.9688 282.2344,317.2969 Q281.1563,317.75 279.8594,317.75 Q278.3438,317.75 277.1406,317.125 Q276.1563,316.625 275.4688,315.5547 Q274.7813,314.4844 274.7813,313.2031 L274.7813,312.0469 Q274.7813,310.7188 275.3984,309.5703 Q276.0156,308.4219 277.1094,307.8047 Q278.2031,307.1875 279.4375,307.1875 Q280.1719,307.1875 280.8203,307.3516 Q281.4688,307.5156 282.0156,307.875 Z " fill="#000000"/><text fill="#000000" font-family="sans-serif" font-size="14" lengthAdjust="spacing" textLength="35" x="299.75" y="317.7285">Pmfm</text><line style="stroke:#181818;stroke-width:0.5;" x1="161" x2="441" y1="328" y2="328"/><ellipse cx="171" cy="342.3047" fill="none" rx="3" ry="3" style="stroke:#038048;stroke-width:1.0;"/><text fill="#000000" font-family="sans-serif" font-size="14" lengthAdjust="spacing" textLength="73" x="180" y="346.5332">label: string</text><ellipse cx="171" cy="359.9141" fill="none" rx="3" ry="3" style="stroke:#038048;stroke-width:1.0;"/><text fill="#000000" font-family="sans-serif" font-size="14" lengthAdjust="spacing" textLength="149" x="180" y="364.1426">minValue [0..1] : double</text><ellipse cx="171" cy="377.5234" fill="none" rx="3" ry="3" style="stroke:#038048;stroke-width:1.0;"/><text fill="#000000" font-family="sans-serif" font-size="14" lengthAdjust="spacing" textLength="152" x="180" y="381.752">maxValue [0..1] : double</text><ellipse cx="171" cy="395.1328" fill="none" rx="3" ry="3" style="stroke:#038048;stroke-width:1.0;"/><text fill="#000000" font-family="sans-serif" font-size="14" lengthAdjust="spacing" textLength="170" x="180" y="399.3613">defaultValue [0..1] : double</text><ellipse cx="171" cy="412.7422" fill="none" rx="3" ry="3" style="stroke:#038048;stroke-width:1.0;"/><text fill="#000000" font-family="sans-serif" font-size="14" lengthAdjust="spacing" textLength="256" x="180" y="416.9707">maximumNumberDecimals [0..1] : integer</text><ellipse cx="171" cy="430.3516" fill="none" rx="3" ry="3" style="stroke:#038048;stroke-width:1.0;"/><text fill="#000000" font-family="sans-serif" font-size="14" lengthAdjust="spacing" textLength="222" x="180" y="434.5801">signifFiguresNumber [0..1] : integer</text></g><!--class Parameter--><g id="elem_Parameter"><rect codeLine="12" fill="#F1F1F1" height="75.2188" id="Parameter" rx="2.5" ry="2.5" style="stroke:#181818;stroke-width:0.5;" width="98" x="7" y="7"/><ellipse cx="22" cy="23" fill="#ADD1B2" rx="11" ry="11" style="stroke:#181818;stroke-width:1.0;"/><path d="M24.7656,18.875 Q24.9219,18.6563 25.1094,18.5469 Q25.2969,18.4375 25.5156,18.4375 Q25.8906,18.4375 26.125,18.6953 Q26.3594,18.9531 26.3594,19.5625 L26.3594,21.0156 Q26.3594,21.625 26.125,21.8906 Q25.8906,22.1563 25.5156,22.1563 Q25.1719,22.1563 24.9688,21.9531 Q24.7656,21.7656 24.6563,21.25 Q24.6094,20.8906 24.4219,20.7031 Q24.0938,20.3281 23.4844,20.1094 Q22.875,19.8906 22.25,19.8906 Q21.4844,19.8906 20.8516,20.2188 Q20.2188,20.5469 19.7266,21.2969 Q19.2344,22.0469 19.2344,23.0781 L19.2344,24.1719 Q19.2344,25.4063 20.125,26.2266 Q21.0156,27.0469 22.6094,27.0469 Q23.5469,27.0469 24.2031,26.7969 Q24.5938,26.6406 25.0156,26.2031 Q25.2813,25.9375 25.4297,25.8594 Q25.5781,25.7813 25.7813,25.7813 Q26.1094,25.7813 26.3672,26.0391 Q26.625,26.2969 26.625,26.6406 Q26.625,26.9844 26.2813,27.3906 Q25.7813,27.9688 24.9844,28.2969 Q23.9063,28.75 22.6094,28.75 Q21.0938,28.75 19.8906,28.125 Q18.9063,27.625 18.2188,26.5547 Q17.5313,25.4844 17.5313,24.2031 L17.5313,23.0469 Q17.5313,21.7188 18.1484,20.5703 Q18.7656,19.4219 19.8594,18.8047 Q20.9531,18.1875 22.1875,18.1875 Q22.9219,18.1875 23.5703,18.3516 Q24.2188,18.5156 24.7656,18.875 Z " fill="#000000"/><text fill="#000000" font-family="sans-serif" font-size="14" lengthAdjust="spacing" textLength="66" x="36" y="28.7285">Parameter</text><line style="stroke:#181818;stroke-width:0.5;" x1="8" x2="104" y1="39" y2="39"/><ellipse cx="18" cy="53.3047" fill="none" rx="3" ry="3" style="stroke:#038048;stroke-width:1.0;"/><text fill="#000000" font-family="sans-serif" font-size="14" lengthAdjust="spacing" textLength="30" x="27" y="57.5332">label</text><ellipse cx="18" cy="70.9141" fill="none" rx="3" ry="3" style="stroke:#038048;stroke-width:1.0;"/><text fill="#000000" font-family="sans-serif" font-size="14" lengthAdjust="spacing" textLength="35" x="27" y="75.1426">name</text></g><!--class QualitativeValue--><g id="elem_QualitativeValue"><rect codeLine="17" fill="#F1F1F1" height="75.2188" id="QualitativeValue" rx="2.5" ry="2.5" style="stroke:#181818;stroke-width:0.5;" width="135" x="78.5" y="160"/><ellipse cx="93.5" cy="176" fill="#ADD1B2" rx="11" ry="11" style="stroke:#181818;stroke-width:1.0;"/><path d="M96.2656,171.875 Q96.4219,171.6563 96.6094,171.5469 Q96.7969,171.4375 97.0156,171.4375 Q97.3906,171.4375 97.625,171.6953 Q97.8594,171.9531 97.8594,172.5625 L97.8594,174.0156 Q97.8594,174.625 97.625,174.8906 Q97.3906,175.1563 97.0156,175.1563 Q96.6719,175.1563 96.4688,174.9531 Q96.2656,174.7656 96.1563,174.25 Q96.1094,173.8906 95.9219,173.7031 Q95.5938,173.3281 94.9844,173.1094 Q94.375,172.8906 93.75,172.8906 Q92.9844,172.8906 92.3516,173.2188 Q91.7188,173.5469 91.2266,174.2969 Q90.7344,175.0469 90.7344,176.0781 L90.7344,177.1719 Q90.7344,178.4063 91.625,179.2266 Q92.5156,180.0469 94.1094,180.0469 Q95.0469,180.0469 95.7031,179.7969 Q96.0938,179.6406 96.5156,179.2031 Q96.7813,178.9375 96.9297,178.8594 Q97.0781,178.7813 97.2813,178.7813 Q97.6094,178.7813 97.8672,179.0391 Q98.125,179.2969 98.125,179.6406 Q98.125,179.9844 97.7813,180.3906 Q97.2813,180.9688 96.4844,181.2969 Q95.4063,181.75 94.1094,181.75 Q92.5938,181.75 91.3906,181.125 Q90.4063,180.625 89.7188,179.5547 Q89.0313,178.4844 89.0313,177.2031 L89.0313,176.0469 Q89.0313,174.7188 89.6484,173.5703 Q90.2656,172.4219 91.3594,171.8047 Q92.4531,171.1875 93.6875,171.1875 Q94.4219,171.1875 95.0703,171.3516 Q95.7188,171.5156 96.2656,171.875 Z " fill="#000000"/><text fill="#000000" font-family="sans-serif" font-size="14" lengthAdjust="spacing" textLength="103" x="107.5" y="181.7285">QualitativeValue</text><line style="stroke:#181818;stroke-width:0.5;" x1="79.5" x2="212.5" y1="192" y2="192"/><ellipse cx="89.5" cy="206.3047" fill="none" rx="3" ry="3" style="stroke:#038048;stroke-width:1.0;"/><text fill="#000000" font-family="sans-serif" font-size="14" lengthAdjust="spacing" textLength="30" x="98.5" y="210.5332">label</text><ellipse cx="89.5" cy="223.9141" fill="none" rx="3" ry="3" style="stroke:#038048;stroke-width:1.0;"/><text fill="#000000" font-family="sans-serif" font-size="14" lengthAdjust="spacing" textLength="35" x="98.5" y="228.1426">name</text></g><!--class Matrix--><g id="elem_Matrix"><rect fill="#F1F1F1" height="32" id="Matrix" rx="2.5" ry="2.5" style="stroke:#181818;stroke-width:0.5;" width="69" x="266.5" y="28.5"/><ellipse cx="281.5" cy="44.5" fill="#ADD1B2" rx="11" ry="11" style="stroke:#181818;stroke-width:1.0;"/><path d="M284.2656,40.375 Q284.4219,40.1563 284.6094,40.0469 Q284.7969,39.9375 285.0156,39.9375 Q285.3906,39.9375 285.625,40.1953 Q285.8594,40.4531 285.8594,41.0625 L285.8594,42.5156 Q285.8594,43.125 285.625,43.3906 Q285.3906,43.6563 285.0156,43.6563 Q284.6719,43.6563 284.4688,43.4531 Q284.2656,43.2656 284.1563,42.75 Q284.1094,42.3906 283.9219,42.2031 Q283.5938,41.8281 282.9844,41.6094 Q282.375,41.3906 281.75,41.3906 Q280.9844,41.3906 280.3516,41.7188 Q279.7188,42.0469 279.2266,42.7969 Q278.7344,43.5469 278.7344,44.5781 L278.7344,45.6719 Q278.7344,46.9063 279.625,47.7266 Q280.5156,48.5469 282.1094,48.5469 Q283.0469,48.5469 283.7031,48.2969 Q284.0938,48.1406 284.5156,47.7031 Q284.7813,47.4375 284.9297,47.3594 Q285.0781,47.2813 285.2813,47.2813 Q285.6094,47.2813 285.8672,47.5391 Q286.125,47.7969 286.125,48.1406 Q286.125,48.4844 285.7813,48.8906 Q285.2813,49.4688 284.4844,49.7969 Q283.4063,50.25 282.1094,50.25 Q280.5938,50.25 279.3906,49.625 Q278.4063,49.125 277.7188,48.0547 Q277.0313,46.9844 277.0313,45.7031 L277.0313,44.5469 Q277.0313,43.2188 277.6484,42.0703 Q278.2656,40.9219 279.3594,40.3047 Q280.4531,39.6875 281.6875,39.6875 Q282.4219,39.6875 283.0703,39.8516 Q283.7188,40.0156 284.2656,40.375 Z " fill="#000000"/><text fill="#000000" font-family="sans-serif" font-size="14" lengthAdjust="spacing" textLength="37" x="295.5" y="50.2285">Matrix</text></g><!--class Fraction--><g id="elem_Fraction"><rect fill="#F1F1F1" height="32" id="Fraction" rx="2.5" ry="2.5" style="stroke:#181818;stroke-width:0.5;" width="84" x="320" y="181.5"/><ellipse cx="335" cy="197.5" fill="#ADD1B2" rx="11" ry="11" style="stroke:#181818;stroke-width:1.0;"/><path d="M337.7656,193.375 Q337.9219,193.1563 338.1094,193.0469 Q338.2969,192.9375 338.5156,192.9375 Q338.8906,192.9375 339.125,193.1953 Q339.3594,193.4531 339.3594,194.0625 L339.3594,195.5156 Q339.3594,196.125 339.125,196.3906 Q338.8906,196.6563 338.5156,196.6563 Q338.1719,196.6563 337.9688,196.4531 Q337.7656,196.2656 337.6563,195.75 Q337.6094,195.3906 337.4219,195.2031 Q337.0938,194.8281 336.4844,194.6094 Q335.875,194.3906 335.25,194.3906 Q334.4844,194.3906 333.8516,194.7188 Q333.2188,195.0469 332.7266,195.7969 Q332.2344,196.5469 332.2344,197.5781 L332.2344,198.6719 Q332.2344,199.9063 333.125,200.7266 Q334.0156,201.5469 335.6094,201.5469 Q336.5469,201.5469 337.2031,201.2969 Q337.5938,201.1406 338.0156,200.7031 Q338.2813,200.4375 338.4297,200.3594 Q338.5781,200.2813 338.7813,200.2813 Q339.1094,200.2813 339.3672,200.5391 Q339.625,200.7969 339.625,201.1406 Q339.625,201.4844 339.2813,201.8906 Q338.7813,202.4688 337.9844,202.7969 Q336.9063,203.25 335.6094,203.25 Q334.0938,203.25 332.8906,202.625 Q331.9063,202.125 331.2188,201.0547 Q330.5313,199.9844 330.5313,198.7031 L330.5313,197.5469 Q330.5313,196.2188 331.1484,195.0703 Q331.7656,193.9219 332.8594,193.3047 Q333.9531,192.6875 335.1875,192.6875 Q335.9219,192.6875 336.5703,192.8516 Q337.2188,193.0156 337.7656,193.375 Z " fill="#000000"/><text fill="#000000" font-family="sans-serif" font-size="14" lengthAdjust="spacing" textLength="52" x="349" y="203.2285">Fraction</text></g><!--class Method--><g id="elem_Method"><rect fill="#F1F1F1" height="32" id="Method" rx="2.5" ry="2.5" style="stroke:#181818;stroke-width:0.5;" width="79" x="439.5" y="181.5"/><ellipse cx="454.5" cy="197.5" fill="#ADD1B2" rx="11" ry="11" style="stroke:#181818;stroke-width:1.0;"/><path d="M457.2656,193.375 Q457.4219,193.1563 457.6094,193.0469 Q457.7969,192.9375 458.0156,192.9375 Q458.3906,192.9375 458.625,193.1953 Q458.8594,193.4531 458.8594,194.0625 L458.8594,195.5156 Q458.8594,196.125 458.625,196.3906 Q458.3906,196.6563 458.0156,196.6563 Q457.6719,196.6563 457.4688,196.4531 Q457.2656,196.2656 457.1563,195.75 Q457.1094,195.3906 456.9219,195.2031 Q456.5938,194.8281 455.9844,194.6094 Q455.375,194.3906 454.75,194.3906 Q453.9844,194.3906 453.3516,194.7188 Q452.7188,195.0469 452.2266,195.7969 Q451.7344,196.5469 451.7344,197.5781 L451.7344,198.6719 Q451.7344,199.9063 452.625,200.7266 Q453.5156,201.5469 455.1094,201.5469 Q456.0469,201.5469 456.7031,201.2969 Q457.0938,201.1406 457.5156,200.7031 Q457.7813,200.4375 457.9297,200.3594 Q458.0781,200.2813 458.2813,200.2813 Q458.6094,200.2813 458.8672,200.5391 Q459.125,200.7969 459.125,201.1406 Q459.125,201.4844 458.7813,201.8906 Q458.2813,202.4688 457.4844,202.7969 Q456.4063,203.25 455.1094,203.25 Q453.5938,203.25 452.3906,202.625 Q451.4063,202.125 450.7188,201.0547 Q450.0313,199.9844 450.0313,198.7031 L450.0313,197.5469 Q450.0313,196.2188 450.6484,195.0703 Q451.2656,193.9219 452.3594,193.3047 Q453.4531,192.6875 454.6875,192.6875 Q455.4219,192.6875 456.0703,192.8516 Q456.7188,193.0156 457.2656,193.375 Z " fill="#000000"/><text fill="#000000" font-family="sans-serif" font-size="14" lengthAdjust="spacing" textLength="47" x="468.5" y="203.2285">Method</text></g><!--class Unit--><g id="elem_Unit"><rect fill="#F1F1F1" height="32" id="Unit" rx="2.5" ry="2.5" style="stroke:#181818;stroke-width:0.5;" width="56" x="554" y="181.5"/><ellipse cx="569" cy="197.5" fill="#ADD1B2" rx="11" ry="11" style="stroke:#181818;stroke-width:1.0;"/><path d="M571.7656,193.375 Q571.9219,193.1563 572.1094,193.0469 Q572.2969,192.9375 572.5156,192.9375 Q572.8906,192.9375 573.125,193.1953 Q573.3594,193.4531 573.3594,194.0625 L573.3594,195.5156 Q573.3594,196.125 573.125,196.3906 Q572.8906,196.6563 572.5156,196.6563 Q572.1719,196.6563 571.9688,196.4531 Q571.7656,196.2656 571.6563,195.75 Q571.6094,195.3906 571.4219,195.2031 Q571.0938,194.8281 570.4844,194.6094 Q569.875,194.3906 569.25,194.3906 Q568.4844,194.3906 567.8516,194.7188 Q567.2188,195.0469 566.7266,195.7969 Q566.2344,196.5469 566.2344,197.5781 L566.2344,198.6719 Q566.2344,199.9063 567.125,200.7266 Q568.0156,201.5469 569.6094,201.5469 Q570.5469,201.5469 571.2031,201.2969 Q571.5938,201.1406 572.0156,200.7031 Q572.2813,200.4375 572.4297,200.3594 Q572.5781,200.2813 572.7813,200.2813 Q573.1094,200.2813 573.3672,200.5391 Q573.625,200.7969 573.625,201.1406 Q573.625,201.4844 573.2813,201.8906 Q572.7813,202.4688 571.9844,202.7969 Q570.9063,203.25 569.6094,203.25 Q568.0938,203.25 566.8906,202.625 Q565.9063,202.125 565.2188,201.0547 Q564.5313,199.9844 564.5313,198.7031 L564.5313,197.5469 Q564.5313,196.2188 565.1484,195.0703 Q565.7656,193.9219 566.8594,193.3047 Q567.9531,192.6875 569.1875,192.6875 Q569.9219,192.6875 570.5703,192.8516 Q571.2188,193.0156 571.7656,193.375 Z " fill="#000000"/><text fill="#000000" font-family="sans-serif" font-size="14" lengthAdjust="spacing" textLength="24" x="583" y="203.2285">Unit</text></g><!--reverse link Matrix to Pmfm--><g id="link_Matrix_Pmfm"><path codeLine="22" d="M301,66.62 C301,107.9 301,218.58 301,295.72 " fill="none" id="Matrix-backto-Pmfm" style="stroke:#181818;stroke-width:1.0;"/><polygon fill="#181818" points="301,60.62,297,69.62,301,65.62,305,69.62,301,60.62" style="stroke:#181818;stroke-width:1.0;"/><text fill="#000000" font-family="sans-serif" font-size="13" lengthAdjust="spacing" textLength="7" x="292.8844" y="81.8594">1</text><text fill="#000000" font-family="sans-serif" font-size="13" lengthAdjust="spacing" textLength="20" x="280.0156" y="285.2483">0..*</text></g><!--reverse link Fraction to Pmfm--><g id="link_Fraction_Pmfm"><path codeLine="23" d="M354.5581,219.1855 C347.8781,237.7455 338.09,264.95 327.05,295.6 " fill="none" id="Fraction-backto-Pmfm" style="stroke:#181818;stroke-width:1.0;"/><polygon fill="#181818" points="356.59,213.54,349.7785,220.6536,354.8968,218.2446,357.3058,223.3628,356.59,213.54" style="stroke:#181818;stroke-width:1.0;"/><text fill="#000000" font-family="sans-serif" font-size="13" lengthAdjust="spacing" textLength="7" x="346.6386" y="235.0566">1</text><text fill="#000000" font-family="sans-serif" font-size="13" lengthAdjust="spacing" textLength="20" x="308.6299" y="285.1165">0..*</text></g><!--reverse link Method to Pmfm--><g id="link_Method_Pmfm"><path codeLine="24" d="M458.856,217.6788 C439.376,236.2388 409.22,264.95 377.03,295.6 " fill="none" id="Method-backto-Pmfm" style="stroke:#181818;stroke-width:1.0;"/><polygon fill="#181818" points="463.2,213.54,453.9248,216.8522,459.58,216.989,459.4432,222.6442,463.2,213.54" style="stroke:#181818;stroke-width:1.0;"/><text fill="#000000" font-family="sans-serif" font-size="13" lengthAdjust="spacing" textLength="7" x="449.8069" y="235.0566">1</text><text fill="#000000" font-family="sans-serif" font-size="13" lengthAdjust="spacing" textLength="20" x="363.5298" y="285.1165">0..*</text></g><!--reverse link QualitativeValue to Pmfm--><g id="link_QualitativeValue_Pmfm"><path codeLine="25" d="M183.6798,239.7071 C199.8898,257.4271 215.86,274.89 234.93,295.75 " fill="none" id="QualitativeValue-backto-Pmfm" style="stroke:#181818;stroke-width:1.0;"/><polygon fill="#181818" points="179.63,235.28,182.7534,244.6205,183.0049,238.9692,188.6561,239.2207,179.63,235.28" style="stroke:#181818;stroke-width:1.0;"/><text fill="#000000" font-family="sans-serif" font-size="13" lengthAdjust="spacing" textLength="20" x="163.6914" y="256.655">0..*</text><text fill="#000000" font-family="sans-serif" font-size="13" lengthAdjust="spacing" textLength="20" x="207.0853" y="284.9021">0..*</text></g><!--reverse link Unit to Pmfm--><g id="link_Unit_Pmfm"><path codeLine="26" d="M559.4975,217.5409 C551.1675,224.3609 545.64,228.51 536,235 C504.7,256.09 469.85,277.06 436.78,295.91 " fill="none" id="Unit-backto-Pmfm" style="stroke:#181818;stroke-width:1.0;"/><polygon fill="#181818" points="564.14,213.74,554.6423,216.3464,560.2712,216.9075,559.7102,222.5364,564.14,213.74" style="stroke:#181818;stroke-width:1.0;"/><text fill="#000000" font-family="sans-serif" font-size="13" lengthAdjust="spacing" textLength="7" x="550.3315" y="235.0176">1</text><text fill="#000000" font-family="sans-serif" font-size="13" lengthAdjust="spacing" textLength="20" x="429.7511" y="285.0786">0..*</text></g><!--reverse link Parameter to Pmfm--><g id="link_Parameter_Pmfm"><path codeLine="27" d="M45.6907,88.2389 C37.7807,128.7689 32.74,188.44 61,235 C83.74,272.46 121.13,300.18 159.71,320.31 " fill="none" id="Parameter-backto-Pmfm" style="stroke:#181818;stroke-width:1.0;"/><polygon fill="#181818" points="46.84,82.35,41.1901,90.4171,45.8822,87.2574,49.042,91.9495,46.84,82.35" style="stroke:#181818;stroke-width:1.0;"/><text fill="#000000" font-family="sans-serif" font-size="13" lengthAdjust="spacing" textLength="7" x="37.6641" y="103.737">1</text><text fill="#000000" font-family="sans-serif" font-size="13" lengthAdjust="spacing" textLength="20" x="131.9091" y="314.9">0..*</text></g><!--link Matrix to Fraction--><g id="link_Matrix_Fraction"><path codeLine="29" d="M307.07,60.53 C318.7,89.32 344.02,151.98 355.77,181.08 " fill="none" id="Matrix-Fraction" style="stroke:#181818;stroke-width:1.0;"/><text fill="#000000" font-family="sans-serif" font-size="13" lengthAdjust="spacing" textLength="7" x="310.2401" y="82.0433">1</text><text fill="#000000" font-family="sans-serif" font-size="13" lengthAdjust="spacing" textLength="20" x="330.3938" y="170.5442">1..*</text></g><!--reverse link Parameter to QualitativeValue--><g id="link_Parameter_QualitativeValue"><path codeLine="30" d="M83.9311,92.3595 C97.9711,115.9295 110.03,136.16 124.1,159.76 " fill="none" id="Parameter-backto-QualitativeValue" style="stroke:#181818;stroke-width:1.0;"/><polygon fill="#181818" points="77.79,82.05,77.424,89.2518,83.9311,92.3595,84.2971,85.1577,77.79,82.05" style="stroke:#181818;stroke-width:1.0;"/><text fill="#000000" font-family="sans-serif" font-size="13" lengthAdjust="spacing" textLength="49" x="105" y="126.4951">contains</text><text fill="#000000" font-family="sans-serif" font-size="13" lengthAdjust="spacing" textLength="7" x="74.0479" y="103.6705">1</text><text fill="#000000" font-family="sans-serif" font-size="13" lengthAdjust="spacing" textLength="20" x="98.4178" y="149.1195">0..*</text></g></g></svg>