<?xml version="1.0" encoding="us-ascii" standalone="no"?><svg xmlns="http://www.w3.org/2000/svg" xmlns:xlink="http://www.w3.org/1999/xlink" contentStyleType="text/css" height="653px" preserveAspectRatio="none" style="width:1521px;height:653px;background:#FFFFFF;" version="1.1" viewBox="0 0 1521 653" width="1521px" zoomAndPan="magnify"><defs/><g><!--cluster referential--><g id="cluster_referential"><path d="M827,560 L900,560 A3.75,3.75 0 0 1 902.5,562.5 L909.5,585.0679 L1194,585.0679 A2.5,2.5 0 0 1 1196.5,587.5679 L1196.5,643.5 A2.5,2.5 0 0 1 1194,646 L827,646 A2.5,2.5 0 0 1 824.5,643.5 L824.5,562.5 A2.5,2.5 0 0 1 827,560 " fill="#DDDDDD" style="stroke:#000000;stroke-width:1.5;"/><line style="stroke:#000000;stroke-width:1.5;" x1="824.5" x2="909.5" y1="585.0679" y2="585.0679"/><text fill="#000000" font-family="sans-serif" font-size="14" font-weight="bold" lengthAdjust="spacing" textLength="72" x="828.5" y="576.9659">referential</text></g><!--class Status--><g id="elem_Status"><rect codeLine="41" fill="#F1F1F1" height="32" id="Status" rx="2.5" ry="2.5" style="stroke:#181818;stroke-width:0.5;" width="74" x="963.5" y="598"/><ellipse cx="978.5" cy="614" fill="#ADD1B2" rx="11" ry="11" style="stroke:#181818;stroke-width:1.0;"/><path d="M977.9688,620.9219 Q976.2188,620.9219 975.0781,620.1875 Q973.9531,619.4375 973.3906,618.0938 Q972.8438,616.7344 972.8438,614.9375 Q972.8438,612.9063 973.5,611.4531 Q974.1563,610 975.4375,609.2188 Q976.7188,608.4375 978.5938,608.4375 Q979.4844,608.4375 980.1563,608.625 Q980.8281,608.7969 981.5156,609.1406 L980.7031,611.1563 Q980.0781,610.8438 979.5313,610.7188 Q979,610.5938 978.5156,610.5938 Q977.3438,610.5938 976.6406,611.125 Q975.9375,611.6563 975.6406,612.6094 Q975.3438,613.5625 975.3438,614.8281 Q975.3438,616.8438 976.0625,617.8125 Q976.7813,618.7656 978.375,618.7656 Q978.9688,618.7656 979.5938,618.6094 Q980.2188,618.4531 981.0469,618.0781 L981.0469,620.2969 Q980.3125,620.6094 979.5156,620.7656 Q978.7344,620.9219 977.9688,620.9219 Z " fill="#000000"/><text fill="#000000" font-family="sans-serif" font-size="14" lengthAdjust="spacing" textLength="42" x="992.5" y="619.432">Status</text></g><!--class ObjectType--><g id="elem_ObjectType"><rect codeLine="43" fill="#F1F1F1" height="32" id="ObjectType" rx="2.5" ry="2.5" style="stroke:#181818;stroke-width:0.5;" width="108" x="1072.5" y="598"/><ellipse cx="1087.5" cy="614" fill="#ADD1B2" rx="11" ry="11" style="stroke:#181818;stroke-width:1.0;"/><path d="M1086.9688,620.9219 Q1085.2188,620.9219 1084.0781,620.1875 Q1082.9531,619.4375 1082.3906,618.0938 Q1081.8438,616.7344 1081.8438,614.9375 Q1081.8438,612.9063 1082.5,611.4531 Q1083.1563,610 1084.4375,609.2188 Q1085.7188,608.4375 1087.5938,608.4375 Q1088.4844,608.4375 1089.1563,608.625 Q1089.8281,608.7969 1090.5156,609.1406 L1089.7031,611.1563 Q1089.0781,610.8438 1088.5313,610.7188 Q1088,610.5938 1087.5156,610.5938 Q1086.3438,610.5938 1085.6406,611.125 Q1084.9375,611.6563 1084.6406,612.6094 Q1084.3438,613.5625 1084.3438,614.8281 Q1084.3438,616.8438 1085.0625,617.8125 Q1085.7813,618.7656 1087.375,618.7656 Q1087.9688,618.7656 1088.5938,618.6094 Q1089.2188,618.4531 1090.0469,618.0781 L1090.0469,620.2969 Q1089.3125,620.6094 1088.5156,620.7656 Q1087.7344,620.9219 1086.9688,620.9219 Z " fill="#000000"/><text fill="#000000" font-family="sans-serif" font-size="14" lengthAdjust="spacing" textLength="76" x="1101.5" y="619.432">ObjectType</text></g><!--class Location--><g id="elem_Location"><rect codeLine="45" fill="#F1F1F1" height="32" id="Location" rx="2.5" ry="2.5" style="stroke:#181818;stroke-width:0.5;" width="88" x="840.5" y="598"/><ellipse cx="855.5" cy="614" fill="#ADD1B2" rx="11" ry="11" style="stroke:#181818;stroke-width:1.0;"/><path d="M854.9688,620.9219 Q853.2188,620.9219 852.0781,620.1875 Q850.9531,619.4375 850.3906,618.0938 Q849.8438,616.7344 849.8438,614.9375 Q849.8438,612.9063 850.5,611.4531 Q851.1563,610 852.4375,609.2188 Q853.7188,608.4375 855.5938,608.4375 Q856.4844,608.4375 857.1563,608.625 Q857.8281,608.7969 858.5156,609.1406 L857.7031,611.1563 Q857.0781,610.8438 856.5313,610.7188 Q856,610.5938 855.5156,610.5938 Q854.3438,610.5938 853.6406,611.125 Q852.9375,611.6563 852.6406,612.6094 Q852.3438,613.5625 852.3438,614.8281 Q852.3438,616.8438 853.0625,617.8125 Q853.7813,618.7656 855.375,618.7656 Q855.9688,618.7656 856.5938,618.6094 Q857.2188,618.4531 858.0469,618.0781 L858.0469,620.2969 Q857.3125,620.6094 856.5156,620.7656 Q855.7344,620.9219 854.9688,620.9219 Z " fill="#000000"/><text fill="#000000" font-family="sans-serif" font-size="14" lengthAdjust="spacing" textLength="56" x="869.5" y="619.432">Location</text></g><!--class SpatialItemType--><g id="elem_SpatialItemType"><rect codeLine="3" fill="#F1F1F1" height="116.2717" id="SpatialItemType" rx="2.5" ry="2.5" style="stroke:#181818;stroke-width:0.5;" width="211" x="940" y="26"/><ellipse cx="986.75" cy="42" fill="#ADD1B2" rx="11" ry="11" style="stroke:#181818;stroke-width:1.0;"/><path d="M986.2188,48.9219 Q984.4688,48.9219 983.3281,48.1875 Q982.2031,47.4375 981.6406,46.0938 Q981.0938,44.7344 981.0938,42.9375 Q981.0938,40.9063 981.75,39.4531 Q982.4063,38 983.6875,37.2188 Q984.9688,36.4375 986.8438,36.4375 Q987.7344,36.4375 988.4063,36.625 Q989.0781,36.7969 989.7656,37.1406 L988.9531,39.1563 Q988.3281,38.8438 987.7813,38.7188 Q987.25,38.5938 986.7656,38.5938 Q985.5938,38.5938 984.8906,39.125 Q984.1875,39.6563 983.8906,40.6094 Q983.5938,41.5625 983.5938,42.8281 Q983.5938,44.8438 984.3125,45.8125 Q985.0313,46.7656 986.625,46.7656 Q987.2188,46.7656 987.8438,46.6094 Q988.4688,46.4531 989.2969,46.0781 L989.2969,48.2969 Q988.5625,48.6094 987.7656,48.7656 Q986.9844,48.9219 986.2188,48.9219 Z " fill="#000000"/><text fill="#000000" font-family="sans-serif" font-size="14" lengthAdjust="spacing" textLength="109" x="1007.25" y="47.432">SpatialItemType</text><line style="stroke:#181818;stroke-width:0.5;" x1="941" x2="1150" y1="58" y2="58"/><ellipse cx="951" cy="73.034" fill="none" rx="3" ry="3" style="stroke:#038048;stroke-width:1.0;"/><text fill="#000000" font-family="sans-serif" font-size="14" lengthAdjust="spacing" textLength="74" x="960" y="76.9659">id : integer</text><ellipse cx="951" cy="92.1019" fill="none" rx="3" ry="3" style="stroke:#038048;stroke-width:1.0;"/><text fill="#000000" font-family="sans-serif" font-size="14" lengthAdjust="spacing" textLength="85" x="960" y="96.0339">label : string</text><ellipse cx="951" cy="111.1698" fill="none" rx="3" ry="3" style="stroke:#038048;stroke-width:1.0;"/><text fill="#000000" font-family="sans-serif" font-size="14" lengthAdjust="spacing" textLength="166" x="960" y="115.1018">description : string [0..1]</text><ellipse cx="951" cy="130.2377" fill="none" rx="3" ry="3" style="stroke:#038048;stroke-width:1.0;"/><text fill="#000000" font-family="sans-serif" font-size="14" lengthAdjust="spacing" textLength="185" x="960" y="134.1697">updateDate : timestamp [1]</text></g><!--class SpatialItem--><g id="elem_SpatialItem"><rect codeLine="10" fill="#F1F1F1" height="97.2038" id="SpatialItem" rx="2.5" ry="2.5" style="stroke:#181818;stroke-width:0.5;" width="211" x="527" y="240"/><ellipse cx="589.75" cy="256" fill="#ADD1B2" rx="11" ry="11" style="stroke:#181818;stroke-width:1.0;"/><path d="M589.2188,262.9219 Q587.4688,262.9219 586.3281,262.1875 Q585.2031,261.4375 584.6406,260.0938 Q584.0938,258.7344 584.0938,256.9375 Q584.0938,254.9063 584.75,253.4531 Q585.4063,252 586.6875,251.2188 Q587.9688,250.4375 589.8438,250.4375 Q590.7344,250.4375 591.4063,250.625 Q592.0781,250.7969 592.7656,251.1406 L591.9531,253.1563 Q591.3281,252.8438 590.7813,252.7188 Q590.25,252.5938 589.7656,252.5938 Q588.5938,252.5938 587.8906,253.125 Q587.1875,253.6563 586.8906,254.6094 Q586.5938,255.5625 586.5938,256.8281 Q586.5938,258.8438 587.3125,259.8125 Q588.0313,260.7656 589.625,260.7656 Q590.2188,260.7656 590.8438,260.6094 Q591.4688,260.4531 592.2969,260.0781 L592.2969,262.2969 Q591.5625,262.6094 590.7656,262.7656 Q589.9844,262.9219 589.2188,262.9219 Z " fill="#000000"/><text fill="#000000" font-family="sans-serif" font-size="14" lengthAdjust="spacing" textLength="77" x="610.25" y="261.432">SpatialItem</text><line style="stroke:#181818;stroke-width:0.5;" x1="528" x2="737" y1="272" y2="272"/><ellipse cx="538" cy="287.034" fill="none" rx="3" ry="3" style="stroke:#038048;stroke-width:1.0;"/><text fill="#000000" font-family="sans-serif" font-size="14" lengthAdjust="spacing" textLength="96" x="547" y="290.9659">id : integer [1]</text><ellipse cx="538" cy="306.1019" fill="none" rx="3" ry="3" style="stroke:#038048;stroke-width:1.0;"/><text fill="#000000" font-family="sans-serif" font-size="14" lengthAdjust="spacing" textLength="137" x="547" y="310.0339">objectid : integer [1]</text><ellipse cx="538" cy="325.1698" fill="none" rx="3" ry="3" style="stroke:#038048;stroke-width:1.0;"/><text fill="#000000" font-family="sans-serif" font-size="14" lengthAdjust="spacing" textLength="185" x="547" y="329.1018">updateDate : timestamp [1]</text></g><!--class SpatialItemPoint--><g id="elem_SpatialItemPoint"><rect codeLine="16" fill="#F1F1F1" height="97.2038" id="SpatialItemPoint" rx="2.5" ry="2.5" style="stroke:#181818;stroke-width:0.5;" width="215" x="7" y="416"/><ellipse cx="54.75" cy="432" fill="#ADD1B2" rx="11" ry="11" style="stroke:#181818;stroke-width:1.0;"/><path d="M54.2188,438.9219 Q52.4688,438.9219 51.3281,438.1875 Q50.2031,437.4375 49.6406,436.0938 Q49.0938,434.7344 49.0938,432.9375 Q49.0938,430.9063 49.75,429.4531 Q50.4063,428 51.6875,427.2188 Q52.9688,426.4375 54.8438,426.4375 Q55.7344,426.4375 56.4063,426.625 Q57.0781,426.7969 57.7656,427.1406 L56.9531,429.1563 Q56.3281,428.8438 55.7813,428.7188 Q55.25,428.5938 54.7656,428.5938 Q53.5938,428.5938 52.8906,429.125 Q52.1875,429.6563 51.8906,430.6094 Q51.5938,431.5625 51.5938,432.8281 Q51.5938,434.8438 52.3125,435.8125 Q53.0313,436.7656 54.625,436.7656 Q55.2188,436.7656 55.8438,436.6094 Q56.4688,436.4531 57.2969,436.0781 L57.2969,438.2969 Q56.5625,438.6094 55.7656,438.7656 Q54.9844,438.9219 54.2188,438.9219 Z " fill="#000000"/><text fill="#000000" font-family="sans-serif" font-size="14" lengthAdjust="spacing" textLength="111" x="75.25" y="437.432">SpatialItemPoint</text><line style="stroke:#181818;stroke-width:0.5;" x1="8" x2="221" y1="448" y2="448"/><ellipse cx="18" cy="463.034" fill="none" rx="3" ry="3" style="stroke:#038048;stroke-width:1.0;"/><text fill="#000000" font-family="sans-serif" font-size="14" lengthAdjust="spacing" textLength="96" x="27" y="466.9659">id : integer [1]</text><ellipse cx="18" cy="482.1019" fill="none" rx="3" ry="3" style="stroke:#038048;stroke-width:1.0;"/><text fill="#000000" font-family="sans-serif" font-size="14" lengthAdjust="spacing" textLength="189" x="27" y="486.0339">localizedName : string [0..1]</text><ellipse cx="18" cy="501.1698" fill="none" rx="3" ry="3" style="stroke:#038048;stroke-width:1.0;"/><text fill="#000000" font-family="sans-serif" font-size="14" lengthAdjust="spacing" textLength="174" x="27" y="505.1018">position : multipoint [0..1]</text></g><!--class SpatialItemLine--><g id="elem_SpatialItemLine"><rect codeLine="22" fill="#F1F1F1" height="97.2038" id="SpatialItemLine" rx="2.5" ry="2.5" style="stroke:#181818;stroke-width:0.5;" width="230" x="257.5" y="416"/><ellipse cx="315.75" cy="432" fill="#ADD1B2" rx="11" ry="11" style="stroke:#181818;stroke-width:1.0;"/><path d="M315.2188,438.9219 Q313.4688,438.9219 312.3281,438.1875 Q311.2031,437.4375 310.6406,436.0938 Q310.0938,434.7344 310.0938,432.9375 Q310.0938,430.9063 310.75,429.4531 Q311.4063,428 312.6875,427.2188 Q313.9688,426.4375 315.8438,426.4375 Q316.7344,426.4375 317.4063,426.625 Q318.0781,426.7969 318.7656,427.1406 L317.9531,429.1563 Q317.3281,428.8438 316.7813,428.7188 Q316.25,428.5938 315.7656,428.5938 Q314.5938,428.5938 313.8906,429.125 Q313.1875,429.6563 312.8906,430.6094 Q312.5938,431.5625 312.5938,432.8281 Q312.5938,434.8438 313.3125,435.8125 Q314.0313,436.7656 315.625,436.7656 Q316.2188,436.7656 316.8438,436.6094 Q317.4688,436.4531 318.2969,436.0781 L318.2969,438.2969 Q317.5625,438.6094 316.7656,438.7656 Q315.9844,438.9219 315.2188,438.9219 Z " fill="#000000"/><text fill="#000000" font-family="sans-serif" font-size="14" lengthAdjust="spacing" textLength="105" x="336.25" y="437.432">SpatialItemLine</text><line style="stroke:#181818;stroke-width:0.5;" x1="258.5" x2="486.5" y1="448" y2="448"/><ellipse cx="268.5" cy="463.034" fill="none" rx="3" ry="3" style="stroke:#038048;stroke-width:1.0;"/><text fill="#000000" font-family="sans-serif" font-size="14" lengthAdjust="spacing" textLength="96" x="277.5" y="466.9659">id : integer [1]</text><ellipse cx="268.5" cy="482.1019" fill="none" rx="3" ry="3" style="stroke:#038048;stroke-width:1.0;"/><text fill="#000000" font-family="sans-serif" font-size="14" lengthAdjust="spacing" textLength="189" x="277.5" y="486.0339">localizedName : string [0..1]</text><ellipse cx="268.5" cy="501.1698" fill="none" rx="3" ry="3" style="stroke:#038048;stroke-width:1.0;"/><text fill="#000000" font-family="sans-serif" font-size="14" lengthAdjust="spacing" textLength="204" x="277.5" y="505.1018">position : multilinestring [0..1]</text></g><!--class SpatialItemArea--><g id="elem_SpatialItemArea"><rect codeLine="28" fill="#F1F1F1" height="97.2038" id="SpatialItemArea" rx="2.5" ry="2.5" style="stroke:#181818;stroke-width:0.5;" width="219" x="523" y="416"/><ellipse cx="574.25" cy="432" fill="#ADD1B2" rx="11" ry="11" style="stroke:#181818;stroke-width:1.0;"/><path d="M573.7188,438.9219 Q571.9688,438.9219 570.8281,438.1875 Q569.7031,437.4375 569.1406,436.0938 Q568.5938,434.7344 568.5938,432.9375 Q568.5938,430.9063 569.25,429.4531 Q569.9063,428 571.1875,427.2188 Q572.4688,426.4375 574.3438,426.4375 Q575.2344,426.4375 575.9063,426.625 Q576.5781,426.7969 577.2656,427.1406 L576.4531,429.1563 Q575.8281,428.8438 575.2813,428.7188 Q574.75,428.5938 574.2656,428.5938 Q573.0938,428.5938 572.3906,429.125 Q571.6875,429.6563 571.3906,430.6094 Q571.0938,431.5625 571.0938,432.8281 Q571.0938,434.8438 571.8125,435.8125 Q572.5313,436.7656 574.125,436.7656 Q574.7188,436.7656 575.3438,436.6094 Q575.9688,436.4531 576.7969,436.0781 L576.7969,438.2969 Q576.0625,438.6094 575.2656,438.7656 Q574.4844,438.9219 573.7188,438.9219 Z " fill="#000000"/><text fill="#000000" font-family="sans-serif" font-size="14" lengthAdjust="spacing" textLength="108" x="594.75" y="437.432">SpatialItemArea</text><line style="stroke:#181818;stroke-width:0.5;" x1="524" x2="741" y1="448" y2="448"/><ellipse cx="534" cy="463.034" fill="none" rx="3" ry="3" style="stroke:#038048;stroke-width:1.0;"/><text fill="#000000" font-family="sans-serif" font-size="14" lengthAdjust="spacing" textLength="96" x="543" y="466.9659">id : integer [1]</text><ellipse cx="534" cy="482.1019" fill="none" rx="3" ry="3" style="stroke:#038048;stroke-width:1.0;"/><text fill="#000000" font-family="sans-serif" font-size="14" lengthAdjust="spacing" textLength="189" x="543" y="486.0339">localizedName : string [0..1]</text><ellipse cx="534" cy="501.1698" fill="none" rx="3" ry="3" style="stroke:#038048;stroke-width:1.0;"/><text fill="#000000" font-family="sans-serif" font-size="14" lengthAdjust="spacing" textLength="193" x="543" y="505.1018">position : multipolygon [0..1]</text></g><!--class SpatialItem2Location--><g id="elem_SpatialItem2Location"><rect codeLine="34" fill="#F1F1F1" height="59.0679" id="SpatialItem2Location" rx="2.5" ry="2.5" style="stroke:#181818;stroke-width:0.5;" width="215" x="777" y="435"/><ellipse cx="810.9" cy="451" fill="#ADD1B2" rx="11" ry="11" style="stroke:#181818;stroke-width:1.0;"/><path d="M810.3688,457.9219 Q808.6188,457.9219 807.4781,457.1875 Q806.3531,456.4375 805.7906,455.0938 Q805.2438,453.7344 805.2438,451.9375 Q805.2438,449.9063 805.9,448.4531 Q806.5563,447 807.8375,446.2188 Q809.1188,445.4375 810.9938,445.4375 Q811.8844,445.4375 812.5563,445.625 Q813.2281,445.7969 813.9156,446.1406 L813.1031,448.1563 Q812.4781,447.8438 811.9313,447.7188 Q811.4,447.5938 810.9156,447.5938 Q809.7438,447.5938 809.0406,448.125 Q808.3375,448.6563 808.0406,449.6094 Q807.7438,450.5625 807.7438,451.8281 Q807.7438,453.8438 808.4625,454.8125 Q809.1813,455.7656 810.775,455.7656 Q811.3688,455.7656 811.9938,455.6094 Q812.6188,455.4531 813.4469,455.0781 L813.4469,457.2969 Q812.7125,457.6094 811.9156,457.7656 Q811.1344,457.9219 810.3688,457.9219 Z " fill="#000000"/><text fill="#000000" font-family="sans-serif" font-size="14" lengthAdjust="spacing" textLength="141" x="829.1" y="456.432">SpatialItem2Location</text><line style="stroke:#181818;stroke-width:0.5;" x1="778" x2="991" y1="467" y2="467"/><ellipse cx="788" cy="482.034" fill="none" rx="3" ry="3" style="stroke:#038048;stroke-width:1.0;"/><text fill="#000000" font-family="sans-serif" font-size="14" lengthAdjust="spacing" textLength="189" x="797" y="485.9659">localizedName : string [0..1]</text></g><!--class SpatialItemTypeEnum--><g id="elem_SpatialItemTypeEnum"><rect codeLine="48" fill="#F1F1F1" height="154.4075" id="SpatialItemTypeEnum" rx="2.5" ry="2.5" style="stroke:#181818;stroke-width:0.5;" width="256" x="1258.5" y="7"/><ellipse cx="1308.25" cy="23" fill="#EB937F" rx="11" ry="11" style="stroke:#181818;stroke-width:1.0;"/><path d="M1304.6094,29.5 L1304.6094,17.3594 L1312.2656,17.3594 L1312.2656,19.4844 L1306.9844,19.4844 L1306.9844,22.1406 L1312,22.1406 L1312,24.2656 L1306.9844,24.2656 L1306.9844,27.375 L1312.2656,27.375 L1312.2656,29.5 L1304.6094,29.5 Z " fill="#000000"/><text fill="#000000" font-family="sans-serif" font-size="14" lengthAdjust="spacing" textLength="148" x="1328.75" y="28.432">SpatialItemTypeEnum</text><line style="stroke:#181818;stroke-width:0.5;" x1="1259.5" x2="1513.5" y1="39" y2="39"/><text fill="#000000" font-family="sans-serif" font-size="14" lengthAdjust="spacing" textLength="144" x="1264.5" y="57.9659">DEPTH_GRADIENT = 1</text><text fill="#000000" font-family="sans-serif" font-size="14" lengthAdjust="spacing" textLength="184" x="1264.5" y="77.0339">NEARBY_SPECIFIC_AREA = 2</text><text fill="#000000" font-family="sans-serif" font-size="14" lengthAdjust="spacing" textLength="244" x="1264.5" y="96.1018">DISTANCE_TO_COAST_GRADIENT = 3</text><text fill="#000000" font-family="sans-serif" font-size="14" lengthAdjust="spacing" textLength="60" x="1264.5" y="115.1697">GEAR = 5</text><text fill="#000000" font-family="sans-serif" font-size="14" lengthAdjust="spacing" textLength="125" x="1264.5" y="134.2376">TAXON_GROUP = 4</text><text fill="#000000" font-family="sans-serif" font-size="14" lengthAdjust="spacing" textLength="75" x="1264.5" y="153.3055">METIER = 8</text></g><!--reverse link SpatialItemType to SpatialItemTypeEnum--><g id="link_SpatialItemType_SpatialItemTypeEnum"><path codeLine="57" d="M1157.06,84 C1191,84 1222.97,84 1258.34,84 " fill="none" id="SpatialItemType-backto-SpatialItemTypeEnum" style="stroke:#181818;stroke-width:1.0;stroke-dasharray:7.0,7.0;"/><polygon fill="#181818" points="1151.06,84,1160.06,88,1156.06,84,1160.06,80,1151.06,84" style="stroke:#181818;stroke-width:1.0;"/><text fill="#000000" font-family="sans-serif" font-size="13" lengthAdjust="spacing" textLength="27" x="1191.25" y="58.897">is an</text><text fill="#000000" font-family="sans-serif" font-size="13" lengthAdjust="spacing" textLength="68" x="1172.25" y="76.603">identifier of</text></g><!--reverse link SpatialItemType to SpatialItem--><g id="link_SpatialItemType_SpatialItem"><path codeLine="59" d="M934.5628,139.3916 C869.7928,171.1516 792.84,208.88 729.68,239.85 " fill="none" id="SpatialItemType-backto-SpatialItem" style="stroke:#181818;stroke-width:1.0;"/><polygon fill="#181818" points="939.95,136.75,930.1081,137.121,935.4607,138.9513,933.6303,144.3039,939.95,136.75" style="stroke:#181818;stroke-width:1.0;"/><text fill="#000000" font-family="sans-serif" font-size="13" lengthAdjust="spacing" textLength="27" x="827.5" y="205.897">type</text><text fill="#000000" font-family="sans-serif" font-size="13" lengthAdjust="spacing" textLength="7" x="924.9416" y="136.9126">1</text><text fill="#000000" font-family="sans-serif" font-size="13" lengthAdjust="spacing" textLength="7" x="737.0247" y="228.0344">*</text></g><!--link SpatialItemType to Status--><g id="link_SpatialItemType_Status"><path codeLine="60" d="M1040.8,142.12 C1034.03,224.19 1021.06,380.21 1009.5,513 C1006.88,543.04 1004.2357,572.1749 1002.4457,591.7749 " fill="none" id="SpatialItemType-to-Status" style="stroke:#181818;stroke-width:1.0;"/><polygon fill="#181818" points="1001.9,597.75,1006.702,589.1511,1002.3547,592.7707,998.7351,588.4235,1001.9,597.75" style="stroke:#181818;stroke-width:1.0;"/><text fill="#000000" font-family="sans-serif" font-size="13" lengthAdjust="spacing" textLength="37" x="1022.5" y="381.897">status</text><text fill="#000000" font-family="sans-serif" font-size="13" lengthAdjust="spacing" textLength="7" x="1032.8006" y="164.1628">1</text><text fill="#000000" font-family="sans-serif" font-size="13" lengthAdjust="spacing" textLength="7" x="994.1781" y="586.2605">*</text></g><!--link SpatialItemType to ObjectType--><g id="link_SpatialItemType_ObjectType"><path codeLine="61" d="M1054.25,142.01 C1072.53,261.2 1113.0497,525.3395 1123.2797,591.9895 " fill="none" id="SpatialItemType-to-ObjectType" style="stroke:#181818;stroke-width:1.0;"/><polygon fill="#181818" points="1124.19,597.92,1126.7783,588.4173,1123.4314,592.9779,1118.8709,589.631,1124.19,597.92" style="stroke:#181818;stroke-width:1.0;"/><text fill="#000000" font-family="sans-serif" font-size="13" lengthAdjust="spacing" textLength="66" x="1092.5" y="381.897">objectType</text><text fill="#000000" font-family="sans-serif" font-size="13" lengthAdjust="spacing" textLength="7" x="1047.8898" y="164.0394">1</text><text fill="#000000" font-family="sans-serif" font-size="13" lengthAdjust="spacing" textLength="7" x="1115.1202" y="586.1861">*</text></g><!--reverse link SpatialItem to SpatialItem2Location--><g id="link_SpatialItem_SpatialItem2Location"><path codeLine="63" d="M711.235,343.8679 C756.555,375.1579 804.52,408.27 842.94,434.8 " fill="none" id="SpatialItem-backto-SpatialItem2Location" style="stroke:#181818;stroke-width:1.0;"/><polygon fill="#181818" points="701.36,337.05,704.0249,343.7506,711.235,343.8679,708.5701,337.1673,701.36,337.05" style="stroke:#181818;stroke-width:1.0;"/><text fill="#000000" font-family="sans-serif" font-size="13" lengthAdjust="spacing" textLength="54" x="766.5" y="381.897">locations</text><text fill="#000000" font-family="sans-serif" font-size="13" lengthAdjust="spacing" textLength="20" x="689.6372" y="359.005">0..*</text><text fill="#000000" font-family="sans-serif" font-size="13" lengthAdjust="spacing" textLength="20" x="811.6613" y="423.4106">0..*</text></g><!--reverse link SpatialItem to SpatialItemPoint--><g id="link_SpatialItem_SpatialItemPoint"><path codeLine="64" d="M515.3477,325.674 C436.1977,350.444 336.86,382.31 240.5,416 C234.54,418.08 228.44,420.26 222.29,422.47 " fill="none" id="SpatialItem-backto-SpatialItemPoint" style="stroke:#181818;stroke-width:1.0;"/><polygon fill="#181818" points="526.8,322.09,519.8792,320.0646,515.3477,325.674,522.2685,327.6994,526.8,322.09" style="stroke:#181818;stroke-width:1.0;"/><text fill="#000000" font-family="sans-serif" font-size="13" lengthAdjust="spacing" textLength="59" x="380.5" y="381.897">geometry</text><text fill="#000000" font-family="sans-serif" font-size="13" lengthAdjust="spacing" textLength="20" x="499.0264" y="320.6896">0..*</text><text fill="#000000" font-family="sans-serif" font-size="13" lengthAdjust="spacing" textLength="20" x="229.6286" y="416.0624">0..*</text></g><!--reverse link SpatialItem to SpatialItemLine--><g id="link_SpatialItem_SpatialItemLine"><path codeLine="65" d="M551.4776,343.7247 C514.9476,368.1747 480.5,391.22 443.91,415.71 " fill="none" id="SpatialItem-backto-SpatialItemLine" style="stroke:#181818;stroke-width:1.0;"/><polygon fill="#181818" points="561.45,337.05,554.2389,337.0632,551.4776,343.7247,558.6887,343.7115,561.45,337.05" style="stroke:#181818;stroke-width:1.0;"/><text fill="#000000" font-family="sans-serif" font-size="13" lengthAdjust="spacing" textLength="59" x="510.5" y="381.897">geometry</text><text fill="#000000" font-family="sans-serif" font-size="13" lengthAdjust="spacing" textLength="20" x="530.0523" y="359.005">0..*</text><text fill="#000000" font-family="sans-serif" font-size="13" lengthAdjust="spacing" textLength="20" x="432.9296" y="404.2294">0..*</text></g><!--reverse link SpatialItem to SpatialItemArea--><g id="link_SpatialItem_SpatialItemArea"><path codeLine="66" d="M632.5,349.05 C632.5,373.5 632.5,391.22 632.5,415.71 " fill="none" id="SpatialItem-backto-SpatialItemArea" style="stroke:#181818;stroke-width:1.0;"/><polygon fill="#181818" points="632.5,337.05,628.5,343.05,632.5,349.05,636.5,343.05,632.5,337.05" style="stroke:#181818;stroke-width:1.0;"/><text fill="#000000" font-family="sans-serif" font-size="13" lengthAdjust="spacing" textLength="59" x="633.5" y="381.897">geometry</text><text fill="#000000" font-family="sans-serif" font-size="13" lengthAdjust="spacing" textLength="20" x="611.0938" y="359.005">0..*</text><text fill="#000000" font-family="sans-serif" font-size="13" lengthAdjust="spacing" textLength="20" x="611.0313" y="404.2294">0..*</text></g><!--link SpatialItem2Location to Location--><g id="link_SpatialItem2Location_Location"><path codeLine="67" d="M884.5,494.29 C884.5,525.31 884.5,573.49 884.5,597.83 " fill="none" id="SpatialItem2Location-Location" style="stroke:#181818;stroke-width:1.0;"/><text fill="#000000" font-family="sans-serif" font-size="13" lengthAdjust="spacing" textLength="20" x="862.4375" y="516.1501">0..*</text><text fill="#000000" font-family="sans-serif" font-size="13" lengthAdjust="spacing" textLength="7" x="876.2531" y="586.0641">1</text></g></g></svg>