<?xml version="1.0" encoding="us-ascii" standalone="no"?><svg xmlns="http://www.w3.org/2000/svg" xmlns:xlink="http://www.w3.org/1999/xlink" contentStyleType="text/css" height="844px" preserveAspectRatio="none" style="width:1742px;height:844px;background:#FFFFFF;" version="1.1" viewBox="0 0 1742 844" width="1742px" zoomAndPan="magnify"><defs/><g><text fill="#000000" font-family="sans-serif" font-size="14" font-weight="bold" lengthAdjust="spacing" textLength="191" x="746" y="25.1074">OBSVENTES - Development</text><rect fill="#228B22" height="678.6719" style="stroke:none;stroke-width:1.0;" width="4" x="628" y="68.6211"/><text fill="#000000" font-family="Serif" font-size="10" lengthAdjust="spacing" textLength="10" x="5" y="66.4121">10</text><text fill="#000000" font-family="Serif" font-size="10" lengthAdjust="spacing" textLength="10" x="33" y="66.4121">11</text><text fill="#000000" font-family="Serif" font-size="10" lengthAdjust="spacing" textLength="10" x="61" y="66.4121">12</text><text fill="#000000" font-family="Serif" font-size="10" lengthAdjust="spacing" textLength="10" x="89" y="66.4121">13</text><text fill="#000000" font-family="Serif" font-size="10" lengthAdjust="spacing" textLength="10" x="117" y="66.4121">14</text><text fill="#000000" font-family="Serif" font-size="10" lengthAdjust="spacing" textLength="10" x="145" y="66.4121">15</text><text fill="#000000" font-family="Serif" font-size="10" lengthAdjust="spacing" textLength="10" x="173" y="66.4121">16</text><text fill="#000000" font-family="Serif" font-size="10" lengthAdjust="spacing" textLength="10" x="201" y="66.4121">17</text><text fill="#000000" font-family="Serif" font-size="10" lengthAdjust="spacing" textLength="10" x="229" y="66.4121">18</text><text fill="#000000" font-family="Serif" font-size="10" lengthAdjust="spacing" textLength="10" x="257" y="66.4121">19</text><text fill="#000000" font-family="Serif" font-size="10" lengthAdjust="spacing" textLength="10" x="285" y="66.4121">20</text><text fill="#000000" font-family="Serif" font-size="10" lengthAdjust="spacing" textLength="10" x="313" y="66.4121">21</text><text fill="#000000" font-family="Serif" font-size="10" lengthAdjust="spacing" textLength="10" x="341" y="66.4121">22</text><text fill="#000000" font-family="Serif" font-size="10" lengthAdjust="spacing" textLength="10" x="369" y="66.4121">23</text><text fill="#000000" font-family="Serif" font-size="10" lengthAdjust="spacing" textLength="10" x="397" y="66.4121">24</text><text fill="#000000" font-family="Serif" font-size="10" lengthAdjust="spacing" textLength="10" x="425" y="66.4121">25</text><text fill="#000000" font-family="Serif" font-size="10" lengthAdjust="spacing" textLength="10" x="453" y="66.4121">26</text><text fill="#000000" font-family="Serif" font-size="10" lengthAdjust="spacing" textLength="10" x="481" y="66.4121">27</text><text fill="#000000" font-family="Serif" font-size="10" lengthAdjust="spacing" textLength="10" x="509" y="66.4121">28</text><text fill="#000000" font-family="Serif" font-size="10" lengthAdjust="spacing" textLength="10" x="537" y="66.4121">29</text><text fill="#000000" font-family="Serif" font-size="10" lengthAdjust="spacing" textLength="10" x="565" y="66.4121">30</text><text fill="#000000" font-family="Serif" font-size="10" lengthAdjust="spacing" textLength="10" x="593" y="66.4121">31</text><text fill="#000000" font-family="Serif" font-size="10" lengthAdjust="spacing" textLength="10" x="621" y="66.4121">32</text><text fill="#000000" font-family="Serif" font-size="10" lengthAdjust="spacing" textLength="10" x="649" y="66.4121">33</text><text fill="#000000" font-family="Serif" font-size="10" lengthAdjust="spacing" textLength="10" x="677" y="66.4121">34</text><text fill="#000000" font-family="Serif" font-size="10" lengthAdjust="spacing" textLength="10" x="705" y="66.4121">35</text><text fill="#000000" font-family="Serif" font-size="10" lengthAdjust="spacing" textLength="10" x="733" y="66.4121">36</text><text fill="#000000" font-family="Serif" font-size="10" lengthAdjust="spacing" textLength="10" x="761" y="66.4121">37</text><text fill="#000000" font-family="Serif" font-size="10" lengthAdjust="spacing" textLength="10" x="789" y="66.4121">38</text><text fill="#000000" font-family="Serif" font-size="10" lengthAdjust="spacing" textLength="10" x="817" y="66.4121">39</text><text fill="#000000" font-family="Serif" font-size="10" lengthAdjust="spacing" textLength="10" x="845" y="66.4121">40</text><text fill="#000000" font-family="Serif" font-size="10" lengthAdjust="spacing" textLength="10" x="873" y="66.4121">41</text><text fill="#000000" font-family="Serif" font-size="10" lengthAdjust="spacing" textLength="10" x="901" y="66.4121">42</text><text fill="#000000" font-family="Serif" font-size="10" lengthAdjust="spacing" textLength="10" x="929" y="66.4121">43</text><text fill="#000000" font-family="Serif" font-size="10" lengthAdjust="spacing" textLength="10" x="957" y="66.4121">44</text><text fill="#000000" font-family="Serif" font-size="10" lengthAdjust="spacing" textLength="10" x="985" y="66.4121">45</text><text fill="#000000" font-family="Serif" font-size="10" lengthAdjust="spacing" textLength="10" x="1013" y="66.4121">46</text><text fill="#000000" font-family="Serif" font-size="10" lengthAdjust="spacing" textLength="10" x="1041" y="66.4121">47</text><text fill="#000000" font-family="Serif" font-size="10" lengthAdjust="spacing" textLength="10" x="1069" y="66.4121">48</text><text fill="#000000" font-family="Serif" font-size="10" lengthAdjust="spacing" textLength="10" x="1097" y="66.4121">49</text><text fill="#000000" font-family="Serif" font-size="10" lengthAdjust="spacing" textLength="10" x="1125" y="66.4121">50</text><text fill="#000000" font-family="Serif" font-size="10" lengthAdjust="spacing" textLength="10" x="1153" y="66.4121">51</text><text fill="#000000" font-family="Serif" font-size="10" lengthAdjust="spacing" textLength="10" x="1181" y="66.4121">52</text><text fill="#000000" font-family="Serif" font-size="10" lengthAdjust="spacing" textLength="5" x="1209" y="66.4121">1</text><text fill="#000000" font-family="Serif" font-size="10" lengthAdjust="spacing" textLength="5" x="1237" y="66.4121">2</text><text fill="#000000" font-family="Serif" font-size="10" lengthAdjust="spacing" textLength="5" x="1265" y="66.4121">3</text><text fill="#000000" font-family="Serif" font-size="10" lengthAdjust="spacing" textLength="5" x="1293" y="66.4121">4</text><text fill="#000000" font-family="Serif" font-size="10" lengthAdjust="spacing" textLength="5" x="1321" y="66.4121">5</text><text fill="#000000" font-family="Serif" font-size="10" lengthAdjust="spacing" textLength="5" x="1349" y="66.4121">6</text><text fill="#000000" font-family="Serif" font-size="10" lengthAdjust="spacing" textLength="5" x="1377" y="66.4121">7</text><text fill="#000000" font-family="Serif" font-size="10" lengthAdjust="spacing" textLength="5" x="1405" y="66.4121">8</text><text fill="#000000" font-family="Serif" font-size="10" lengthAdjust="spacing" textLength="5" x="1433" y="66.4121">9</text><text fill="#000000" font-family="Serif" font-size="10" lengthAdjust="spacing" textLength="10" x="1461" y="66.4121">10</text><text fill="#000000" font-family="Serif" font-size="10" lengthAdjust="spacing" textLength="10" x="1489" y="66.4121">11</text><text fill="#000000" font-family="Serif" font-size="10" lengthAdjust="spacing" textLength="10" x="1517" y="66.4121">12</text><text fill="#000000" font-family="Serif" font-size="10" lengthAdjust="spacing" textLength="10" x="1545" y="66.4121">13</text><text fill="#000000" font-family="Serif" font-size="10" lengthAdjust="spacing" textLength="10" x="1573" y="66.4121">14</text><text fill="#000000" font-family="Serif" font-size="10" lengthAdjust="spacing" textLength="10" x="1601" y="66.4121">15</text><text fill="#000000" font-family="Serif" font-size="10" lengthAdjust="spacing" textLength="10" x="1629" y="66.4121">16</text><text fill="#000000" font-family="Serif" font-size="10" lengthAdjust="spacing" textLength="10" x="1657" y="66.4121">17</text><line style="stroke:#C0C0C0;stroke-width:1.0;" x1="0" x2="0" y1="55.6211" y2="747.293"/><line style="stroke:#C0C0C0;stroke-width:1.0;" x1="28" x2="28" y1="55.6211" y2="747.293"/><line style="stroke:#C0C0C0;stroke-width:1.0;" x1="56" x2="56" y1="55.6211" y2="747.293"/><line style="stroke:#C0C0C0;stroke-width:1.0;" x1="84" x2="84" y1="55.6211" y2="747.293"/><line style="stroke:#C0C0C0;stroke-width:1.0;" x1="112" x2="112" y1="55.6211" y2="747.293"/><line style="stroke:#C0C0C0;stroke-width:1.0;" x1="140" x2="140" y1="55.6211" y2="747.293"/><line style="stroke:#C0C0C0;stroke-width:1.0;" x1="168" x2="168" y1="55.6211" y2="747.293"/><line style="stroke:#C0C0C0;stroke-width:1.0;" x1="196" x2="196" y1="55.6211" y2="747.293"/><line style="stroke:#C0C0C0;stroke-width:1.0;" x1="224" x2="224" y1="55.6211" y2="747.293"/><line style="stroke:#C0C0C0;stroke-width:1.0;" x1="252" x2="252" y1="55.6211" y2="747.293"/><line style="stroke:#C0C0C0;stroke-width:1.0;" x1="280" x2="280" y1="55.6211" y2="747.293"/><line style="stroke:#C0C0C0;stroke-width:1.0;" x1="308" x2="308" y1="55.6211" y2="747.293"/><line style="stroke:#C0C0C0;stroke-width:1.0;" x1="336" x2="336" y1="55.6211" y2="747.293"/><line style="stroke:#C0C0C0;stroke-width:1.0;" x1="364" x2="364" y1="55.6211" y2="747.293"/><line style="stroke:#C0C0C0;stroke-width:1.0;" x1="392" x2="392" y1="55.6211" y2="747.293"/><line style="stroke:#C0C0C0;stroke-width:1.0;" x1="420" x2="420" y1="55.6211" y2="747.293"/><line style="stroke:#C0C0C0;stroke-width:1.0;" x1="448" x2="448" y1="55.6211" y2="747.293"/><line style="stroke:#C0C0C0;stroke-width:1.0;" x1="476" x2="476" y1="55.6211" y2="747.293"/><line style="stroke:#C0C0C0;stroke-width:1.0;" x1="504" x2="504" y1="55.6211" y2="747.293"/><line style="stroke:#C0C0C0;stroke-width:1.0;" x1="532" x2="532" y1="55.6211" y2="747.293"/><line style="stroke:#C0C0C0;stroke-width:1.0;" x1="560" x2="560" y1="55.6211" y2="747.293"/><line style="stroke:#C0C0C0;stroke-width:1.0;" x1="588" x2="588" y1="55.6211" y2="747.293"/><line style="stroke:#C0C0C0;stroke-width:1.0;" x1="616" x2="616" y1="55.6211" y2="747.293"/><line style="stroke:#C0C0C0;stroke-width:1.0;" x1="644" x2="644" y1="55.6211" y2="747.293"/><line style="stroke:#C0C0C0;stroke-width:1.0;" x1="672" x2="672" y1="55.6211" y2="747.293"/><line style="stroke:#C0C0C0;stroke-width:1.0;" x1="700" x2="700" y1="55.6211" y2="747.293"/><line style="stroke:#C0C0C0;stroke-width:1.0;" x1="728" x2="728" y1="55.6211" y2="747.293"/><line style="stroke:#C0C0C0;stroke-width:1.0;" x1="756" x2="756" y1="55.6211" y2="747.293"/><line style="stroke:#C0C0C0;stroke-width:1.0;" x1="784" x2="784" y1="55.6211" y2="747.293"/><line style="stroke:#C0C0C0;stroke-width:1.0;" x1="812" x2="812" y1="55.6211" y2="747.293"/><line style="stroke:#C0C0C0;stroke-width:1.0;" x1="840" x2="840" y1="55.6211" y2="747.293"/><line style="stroke:#C0C0C0;stroke-width:1.0;" x1="868" x2="868" y1="55.6211" y2="747.293"/><line style="stroke:#C0C0C0;stroke-width:1.0;" x1="896" x2="896" y1="55.6211" y2="747.293"/><line style="stroke:#C0C0C0;stroke-width:1.0;" x1="924" x2="924" y1="55.6211" y2="747.293"/><line style="stroke:#C0C0C0;stroke-width:1.0;" x1="952" x2="952" y1="55.6211" y2="747.293"/><line style="stroke:#C0C0C0;stroke-width:1.0;" x1="980" x2="980" y1="55.6211" y2="747.293"/><line style="stroke:#C0C0C0;stroke-width:1.0;" x1="1008" x2="1008" y1="55.6211" y2="747.293"/><line style="stroke:#C0C0C0;stroke-width:1.0;" x1="1036" x2="1036" y1="55.6211" y2="747.293"/><line style="stroke:#C0C0C0;stroke-width:1.0;" x1="1064" x2="1064" y1="55.6211" y2="747.293"/><line style="stroke:#C0C0C0;stroke-width:1.0;" x1="1092" x2="1092" y1="55.6211" y2="747.293"/><line style="stroke:#C0C0C0;stroke-width:1.0;" x1="1120" x2="1120" y1="55.6211" y2="747.293"/><line style="stroke:#C0C0C0;stroke-width:1.0;" x1="1148" x2="1148" y1="55.6211" y2="747.293"/><line style="stroke:#C0C0C0;stroke-width:1.0;" x1="1176" x2="1176" y1="55.6211" y2="747.293"/><line style="stroke:#C0C0C0;stroke-width:1.0;" x1="1204" x2="1204" y1="55.6211" y2="747.293"/><line style="stroke:#C0C0C0;stroke-width:1.0;" x1="1232" x2="1232" y1="55.6211" y2="747.293"/><line style="stroke:#C0C0C0;stroke-width:1.0;" x1="1260" x2="1260" y1="55.6211" y2="747.293"/><line style="stroke:#C0C0C0;stroke-width:1.0;" x1="1288" x2="1288" y1="55.6211" y2="747.293"/><line style="stroke:#C0C0C0;stroke-width:1.0;" x1="1316" x2="1316" y1="55.6211" y2="747.293"/><line style="stroke:#C0C0C0;stroke-width:1.0;" x1="1344" x2="1344" y1="55.6211" y2="747.293"/><line style="stroke:#C0C0C0;stroke-width:1.0;" x1="1372" x2="1372" y1="55.6211" y2="747.293"/><line style="stroke:#C0C0C0;stroke-width:1.0;" x1="1400" x2="1400" y1="55.6211" y2="747.293"/><line style="stroke:#C0C0C0;stroke-width:1.0;" x1="1428" x2="1428" y1="55.6211" y2="747.293"/><line style="stroke:#C0C0C0;stroke-width:1.0;" x1="1456" x2="1456" y1="55.6211" y2="747.293"/><line style="stroke:#C0C0C0;stroke-width:1.0;" x1="1484" x2="1484" y1="55.6211" y2="747.293"/><line style="stroke:#C0C0C0;stroke-width:1.0;" x1="1512" x2="1512" y1="55.6211" y2="747.293"/><line style="stroke:#C0C0C0;stroke-width:1.0;" x1="1540" x2="1540" y1="55.6211" y2="747.293"/><line style="stroke:#C0C0C0;stroke-width:1.0;" x1="1568" x2="1568" y1="55.6211" y2="747.293"/><line style="stroke:#C0C0C0;stroke-width:1.0;" x1="1596" x2="1596" y1="55.6211" y2="747.293"/><line style="stroke:#C0C0C0;stroke-width:1.0;" x1="1624" x2="1624" y1="55.6211" y2="747.293"/><line style="stroke:#C0C0C0;stroke-width:1.0;" x1="1652" x2="1652" y1="55.6211" y2="747.293"/><line style="stroke:#C0C0C0;stroke-width:1.0;" x1="1680" x2="1680" y1="55.6211" y2="747.293"/><line style="stroke:#C0C0C0;stroke-width:1.0;" x1="1684" x2="1684" y1="55.6211" y2="747.293"/><line style="stroke:#C0C0C0;stroke-width:1.0;" x1="0" x2="0" y1="39.6211" y2="55.6211"/><line style="stroke:#C0C0C0;stroke-width:1.0;" x1="112" x2="112" y1="39.6211" y2="55.6211"/><text fill="#000000" font-family="Serif" font-size="12" font-weight="bold" lengthAdjust="spacing" textLength="49" x="31.5" y="52.5703">Mar 2024</text><line style="stroke:#C0C0C0;stroke-width:1.0;" x1="232" x2="232" y1="39.6211" y2="55.6211"/><text fill="#000000" font-family="Serif" font-size="12" font-weight="bold" lengthAdjust="spacing" textLength="46" x="149" y="52.5703">Apr 2024</text><line style="stroke:#C0C0C0;stroke-width:1.0;" x1="356" x2="356" y1="39.6211" y2="55.6211"/><text fill="#000000" font-family="Serif" font-size="12" font-weight="bold" lengthAdjust="spacing" textLength="50" x="269" y="52.5703">May 2024</text><line style="stroke:#C0C0C0;stroke-width:1.0;" x1="476" x2="476" y1="39.6211" y2="55.6211"/><text fill="#000000" font-family="Serif" font-size="12" font-weight="bold" lengthAdjust="spacing" textLength="47" x="392.5" y="52.5703">Jun 2024</text><line style="stroke:#C0C0C0;stroke-width:1.0;" x1="600" x2="600" y1="39.6211" y2="55.6211"/><text fill="#000000" font-family="Serif" font-size="12" font-weight="bold" lengthAdjust="spacing" textLength="44" x="516" y="52.5703">Jul 2024</text><line style="stroke:#C0C0C0;stroke-width:1.0;" x1="724" x2="724" y1="39.6211" y2="55.6211"/><text fill="#000000" font-family="Serif" font-size="12" font-weight="bold" lengthAdjust="spacing" textLength="48" x="638" y="52.5703">Aug 2024</text><line style="stroke:#C0C0C0;stroke-width:1.0;" x1="844" x2="844" y1="39.6211" y2="55.6211"/><text fill="#000000" font-family="Serif" font-size="12" font-weight="bold" lengthAdjust="spacing" textLength="47" x="760.5" y="52.5703">Sep 2024</text><line style="stroke:#C0C0C0;stroke-width:1.0;" x1="968" x2="968" y1="39.6211" y2="55.6211"/><text fill="#000000" font-family="Serif" font-size="12" font-weight="bold" lengthAdjust="spacing" textLength="46" x="883" y="52.5703">Oct 2024</text><line style="stroke:#C0C0C0;stroke-width:1.0;" x1="1088" x2="1088" y1="39.6211" y2="55.6211"/><text fill="#000000" font-family="Serif" font-size="12" font-weight="bold" lengthAdjust="spacing" textLength="47" x="1004.5" y="52.5703">Nov 2024</text><line style="stroke:#C0C0C0;stroke-width:1.0;" x1="1212" x2="1212" y1="39.6211" y2="55.6211"/><text fill="#000000" font-family="Serif" font-size="12" font-weight="bold" lengthAdjust="spacing" textLength="47" x="1126.5" y="52.5703">Dec 2024</text><line style="stroke:#C0C0C0;stroke-width:1.0;" x1="1336" x2="1336" y1="39.6211" y2="55.6211"/><text fill="#000000" font-family="Serif" font-size="12" font-weight="bold" lengthAdjust="spacing" textLength="46" x="1251" y="52.5703">Jan 2025</text><line style="stroke:#C0C0C0;stroke-width:1.0;" x1="1448" x2="1448" y1="39.6211" y2="55.6211"/><text fill="#000000" font-family="Serif" font-size="12" font-weight="bold" lengthAdjust="spacing" textLength="46" x="1369" y="52.5703">Feb 2025</text><line style="stroke:#C0C0C0;stroke-width:1.0;" x1="1572" x2="1572" y1="39.6211" y2="55.6211"/><text fill="#000000" font-family="Serif" font-size="12" font-weight="bold" lengthAdjust="spacing" textLength="49" x="1485.5" y="52.5703">Mar 2025</text><line style="stroke:#C0C0C0;stroke-width:1.0;" x1="1684" x2="1684" y1="39.6211" y2="55.6211"/><text fill="#000000" font-family="Serif" font-size="12" font-weight="bold" lengthAdjust="spacing" textLength="46" x="1605" y="52.5703">Apr 2025</text><line style="stroke:#C0C0C0;stroke-width:1.0;" x1="0" x2="1684" y1="39.6211" y2="39.6211"/><line style="stroke:#C0C0C0;stroke-width:1.0;" x1="0" x2="1684" y1="55.6211" y2="55.6211"/><line style="stroke:#C0C0C0;stroke-width:1.0;" x1="0" x2="1684" y1="68.6211" y2="68.6211"/><line style="stroke:#0000FF;stroke-width:1.5;stroke-dasharray:8.0,8.0;" x1="19" x2="19" y1="86.582" y2="98.5625"/><line style="stroke:#0000FF;stroke-width:1.5;stroke-dasharray:8.0,8.0;" x1="19" x2="27" y1="98.5625" y2="98.5625"/><polygon fill="#0000FF" points="23,94.5625,23,98.5625,23,102.5625,27,98.5625" style="stroke:#0000FF;stroke-width:1.5;"/><line style="stroke:#0000FF;stroke-width:1.5;stroke-dasharray:8.0,8.0;" x1="131" x2="131" y1="106.543" y2="118.5234"/><line style="stroke:#0000FF;stroke-width:1.5;stroke-dasharray:8.0,8.0;" x1="131" x2="139" y1="118.5234" y2="118.5234"/><polygon fill="#0000FF" points="135,114.5234,135,118.5234,135,122.5234,139,118.5234" style="stroke:#0000FF;stroke-width:1.5;"/><line style="stroke:#0000FF;stroke-width:1.5;stroke-dasharray:8.0,8.0;" x1="222" x2="222" y1="126.5039" y2="138.4844"/><line style="stroke:#0000FF;stroke-width:1.5;stroke-dasharray:8.0,8.0;" x1="222" x2="251" y1="138.4844" y2="138.4844"/><polygon fill="#0000FF" points="247,134.4844,247,138.4844,247,142.4844,251,138.4844" style="stroke:#0000FF;stroke-width:1.5;"/><line style="stroke:#0000FF;stroke-width:1.5;stroke-dasharray:8.0,8.0;" x1="215" x2="215" y1="126.5039" y2="178.4063"/><line style="stroke:#0000FF;stroke-width:1.5;stroke-dasharray:8.0,8.0;" x1="215" x2="223" y1="178.4063" y2="178.4063"/><polygon fill="#0000FF" points="219,174.4063,219,178.4063,219,182.4063,223,178.4063" style="stroke:#0000FF;stroke-width:1.5;"/><line style="stroke:#0000FF;stroke-width:1.5;stroke-dasharray:8.0,8.0;" x1="327" x2="327" y1="186.3867" y2="198.3672"/><line style="stroke:#0000FF;stroke-width:1.5;stroke-dasharray:8.0,8.0;" x1="327" x2="335" y1="198.3672" y2="198.3672"/><polygon fill="#0000FF" points="331,194.3672,331,198.3672,331,202.3672,335,198.3672" style="stroke:#0000FF;stroke-width:1.5;"/><line style="stroke:#0000FF;stroke-width:1.5;stroke-dasharray:8.0,8.0;" x1="327" x2="327" y1="186.3867" y2="238.2891"/><line style="stroke:#0000FF;stroke-width:1.5;stroke-dasharray:8.0,8.0;" x1="327" x2="335" y1="238.2891" y2="238.2891"/><polygon fill="#0000FF" points="331,234.2891,331,238.2891,331,242.2891,335,238.2891" style="stroke:#0000FF;stroke-width:1.5;"/><line style="stroke:#0000FF;stroke-width:1.5;stroke-dasharray:8.0,8.0;" x1="446" x2="446" y1="246.2695" y2="258.25"/><line style="stroke:#0000FF;stroke-width:1.5;stroke-dasharray:8.0,8.0;" x1="446" x2="475" y1="258.25" y2="258.25"/><polygon fill="#0000FF" points="471,254.25,471,258.25,471,262.25,475,258.25" style="stroke:#0000FF;stroke-width:1.5;"/><line style="stroke:#0000FF;stroke-width:1.5;stroke-dasharray:8.0,8.0;" x1="439" x2="439" y1="246.2695" y2="298.1719"/><line style="stroke:#0000FF;stroke-width:1.5;stroke-dasharray:8.0,8.0;" x1="439" x2="447" y1="298.1719" y2="298.1719"/><polygon fill="#0000FF" points="443,294.1719,443,298.1719,443,302.1719,447,298.1719" style="stroke:#0000FF;stroke-width:1.5;"/><line style="stroke:#0000FF;stroke-width:1.5;stroke-dasharray:8.0,8.0;" x1="558" x2="558" y1="306.1523" y2="318.1328"/><line style="stroke:#0000FF;stroke-width:1.5;stroke-dasharray:8.0,8.0;" x1="558" x2="599" y1="318.1328" y2="318.1328"/><polygon fill="#0000FF" points="595,314.1328,595,318.1328,595,322.1328,599,318.1328" style="stroke:#0000FF;stroke-width:1.5;"/><line style="stroke:#0000FF;stroke-width:1.5;stroke-dasharray:8.0,8.0;" x1="551" x2="551" y1="306.1523" y2="338.0938"/><line style="stroke:#0000FF;stroke-width:1.5;stroke-dasharray:8.0,8.0;" x1="551" x2="559" y1="338.0938" y2="338.0938"/><polygon fill="#0000FF" points="555,334.0938,555,338.0938,555,342.0938,559,338.0938" style="stroke:#0000FF;stroke-width:1.5;"/><line style="stroke:#0000FF;stroke-width:1.5;stroke-dasharray:8.0,8.0;" x1="663" x2="663" y1="346.0742" y2="358.0547"/><line style="stroke:#0000FF;stroke-width:1.5;stroke-dasharray:8.0,8.0;" x1="663" x2="671" y1="358.0547" y2="358.0547"/><polygon fill="#0000FF" points="667,354.0547,667,358.0547,667,362.0547,671,358.0547" style="stroke:#0000FF;stroke-width:1.5;"/><line style="stroke:#0000FF;stroke-width:1.5;stroke-dasharray:8.0,8.0;" x1="670" x2="670" y1="346.0742" y2="417.9375"/><line style="stroke:#0000FF;stroke-width:1.5;stroke-dasharray:8.0,8.0;" x1="670" x2="1091" y1="417.9375" y2="417.9375"/><polygon fill="#0000FF" points="1087,413.9375,1087,417.9375,1087,421.9375,1091,417.9375" style="stroke:#0000FF;stroke-width:1.5;"/><line style="stroke:#0000FF;stroke-width:1.5;stroke-dasharray:8.0,8.0;" x1="1195" x2="1195" y1="425.918" y2="437.8984"/><line style="stroke:#0000FF;stroke-width:1.5;stroke-dasharray:8.0,8.0;" x1="1195" x2="1203" y1="437.8984" y2="437.8984"/><polygon fill="#0000FF" points="1199,433.8984,1199,437.8984,1199,441.8984,1203,437.8984" style="stroke:#0000FF;stroke-width:1.5;"/><line style="stroke:#0000FF;stroke-width:1.5;stroke-dasharray:8.0,8.0;" x1="1202" x2="1202" y1="425.918" y2="477.8203"/><line style="stroke:#0000FF;stroke-width:1.5;stroke-dasharray:8.0,8.0;" x1="1202" x2="1447" y1="477.8203" y2="477.8203"/><polygon fill="#0000FF" points="1443,473.8203,1443,477.8203,1443,481.8203,1447,477.8203" style="stroke:#0000FF;stroke-width:1.5;"/><line style="stroke:#0000FF;stroke-width:1.5;stroke-dasharray:8.0,8.0;" x1="1551" x2="1551" y1="485.8008" y2="497.7813"/><line style="stroke:#0000FF;stroke-width:1.5;stroke-dasharray:8.0,8.0;" x1="1551" x2="1559" y1="497.7813" y2="497.7813"/><polygon fill="#0000FF" points="1555,493.7813,1555,497.7813,1555,501.7813,1559,497.7813" style="stroke:#0000FF;stroke-width:1.5;"/><rect fill="#808080" height="15.9609" style="stroke:none;stroke-width:1.0;" width="24" x="2" y="70.6211"/><line style="stroke:#808080;stroke-width:1.0;" x1="2" x2="26" y1="70.6211" y2="70.6211"/><line style="stroke:#808080;stroke-width:1.0;" x1="2" x2="26" y1="86.582" y2="86.582"/><line style="stroke:#808080;stroke-width:1.0;" x1="2" x2="2" y1="70.6211" y2="86.582"/><line style="stroke:#808080;stroke-width:1.0;" x1="26" x2="26" y1="70.6211" y2="86.582"/><rect fill="#808080" height="15.9609" style="stroke:none;stroke-width:1.0;" width="108" x="30" y="90.582"/><line style="stroke:#808080;stroke-width:1.0;" x1="30" x2="138" y1="90.582" y2="90.582"/><line style="stroke:#808080;stroke-width:1.0;" x1="30" x2="138" y1="106.543" y2="106.543"/><line style="stroke:#808080;stroke-width:1.0;" x1="30" x2="30" y1="90.582" y2="106.543"/><line style="stroke:#808080;stroke-width:1.0;" x1="138" x2="138" y1="90.582" y2="106.543"/><rect fill="#808080" height="15.9609" style="stroke:none;stroke-width:1.0;" width="80" x="142" y="110.543"/><line style="stroke:#808080;stroke-width:1.0;" x1="142" x2="222" y1="110.543" y2="110.543"/><line style="stroke:#808080;stroke-width:1.0;" x1="142" x2="222" y1="126.5039" y2="126.5039"/><line style="stroke:#808080;stroke-width:1.0;" x1="142" x2="142" y1="110.543" y2="126.5039"/><line style="stroke:#808080;stroke-width:1.0;" x1="222" x2="222" y1="110.543" y2="126.5039"/><rect fill="#00BFFF" height="15.9609" style="stroke:none;stroke-width:1.0;" width="24" x="254" y="130.5039"/><line style="stroke:#00BFFF;stroke-width:1.0;" x1="254" x2="278" y1="130.5039" y2="130.5039"/><line style="stroke:#00BFFF;stroke-width:1.0;" x1="254" x2="278" y1="146.4648" y2="146.4648"/><line style="stroke:#00BFFF;stroke-width:1.0;" x1="254" x2="254" y1="130.5039" y2="146.4648"/><line style="stroke:#00BFFF;stroke-width:1.0;" x1="278" x2="278" y1="130.5039" y2="146.4648"/><rect fill="#FA8072" height="15.9609" style="stroke:none;stroke-width:1.0;" width="80" x="226" y="150.4648"/><line style="stroke:#FA8072;stroke-width:1.0;" x1="226" x2="306" y1="150.4648" y2="150.4648"/><line style="stroke:#FA8072;stroke-width:1.0;" x1="226" x2="306" y1="166.4258" y2="166.4258"/><line style="stroke:#FA8072;stroke-width:1.0;" x1="226" x2="226" y1="150.4648" y2="166.4258"/><line style="stroke:#FA8072;stroke-width:1.0;" x1="306" x2="306" y1="150.4648" y2="166.4258"/><rect fill="#808080" height="15.9609" style="stroke:none;stroke-width:1.0;" width="108" x="226" y="170.4258"/><line style="stroke:#808080;stroke-width:1.0;" x1="226" x2="334" y1="170.4258" y2="170.4258"/><line style="stroke:#808080;stroke-width:1.0;" x1="226" x2="334" y1="186.3867" y2="186.3867"/><line style="stroke:#808080;stroke-width:1.0;" x1="226" x2="226" y1="170.4258" y2="186.3867"/><line style="stroke:#808080;stroke-width:1.0;" x1="334" x2="334" y1="170.4258" y2="186.3867"/><rect fill="#00BFFF" height="15.9609" style="stroke:none;stroke-width:1.0;" width="24" x="338" y="190.3867"/><line style="stroke:#00BFFF;stroke-width:1.0;" x1="338" x2="362" y1="190.3867" y2="190.3867"/><line style="stroke:#00BFFF;stroke-width:1.0;" x1="338" x2="362" y1="206.3477" y2="206.3477"/><line style="stroke:#00BFFF;stroke-width:1.0;" x1="338" x2="338" y1="190.3867" y2="206.3477"/><line style="stroke:#00BFFF;stroke-width:1.0;" x1="362" x2="362" y1="190.3867" y2="206.3477"/><polygon fill="#FFFF00" points="374,210.3477,380,216.3477,374,222.3477,368,216.3477" style="stroke:#B22222;stroke-width:1.0;"/><rect fill="#808080" height="15.9609" style="stroke:none;stroke-width:1.0;" width="108" x="338" y="230.3086"/><line style="stroke:#808080;stroke-width:1.0;" x1="338" x2="446" y1="230.3086" y2="230.3086"/><line style="stroke:#808080;stroke-width:1.0;" x1="338" x2="446" y1="246.2695" y2="246.2695"/><line style="stroke:#808080;stroke-width:1.0;" x1="338" x2="338" y1="230.3086" y2="246.2695"/><line style="stroke:#808080;stroke-width:1.0;" x1="446" x2="446" y1="230.3086" y2="246.2695"/><rect fill="#00BFFF" height="15.9609" style="stroke:none;stroke-width:1.0;" width="24" x="478" y="250.2695"/><line style="stroke:#00BFFF;stroke-width:1.0;" x1="478" x2="502" y1="250.2695" y2="250.2695"/><line style="stroke:#00BFFF;stroke-width:1.0;" x1="478" x2="502" y1="266.2305" y2="266.2305"/><line style="stroke:#00BFFF;stroke-width:1.0;" x1="478" x2="478" y1="250.2695" y2="266.2305"/><line style="stroke:#00BFFF;stroke-width:1.0;" x1="502" x2="502" y1="250.2695" y2="266.2305"/><polygon fill="#FFFF00" points="510,270.2305,516,276.2305,510,282.2305,504,276.2305" style="stroke:#B22222;stroke-width:1.0;"/><rect fill="#808080" height="15.9609" style="stroke:none;stroke-width:1.0;" width="108" x="450" y="290.1914"/><line style="stroke:#808080;stroke-width:1.0;" x1="450" x2="558" y1="290.1914" y2="290.1914"/><line style="stroke:#808080;stroke-width:1.0;" x1="450" x2="558" y1="306.1523" y2="306.1523"/><line style="stroke:#808080;stroke-width:1.0;" x1="450" x2="450" y1="290.1914" y2="306.1523"/><line style="stroke:#808080;stroke-width:1.0;" x1="558" x2="558" y1="290.1914" y2="306.1523"/><rect fill="#00BFFF" height="15.9609" style="stroke:none;stroke-width:1.0;" width="24" x="602" y="310.1523"/><line style="stroke:#00BFFF;stroke-width:1.0;" x1="602" x2="626" y1="310.1523" y2="310.1523"/><line style="stroke:#00BFFF;stroke-width:1.0;" x1="602" x2="626" y1="326.1133" y2="326.1133"/><line style="stroke:#00BFFF;stroke-width:1.0;" x1="602" x2="602" y1="310.1523" y2="326.1133"/><line style="stroke:#00BFFF;stroke-width:1.0;" x1="626" x2="626" y1="310.1523" y2="326.1133"/><rect fill="#008000" height="15.9609" style="stroke:none;stroke-width:1.0;" width="108" x="562" y="330.1133"/><line style="stroke:#008000;stroke-width:1.0;" x1="562" x2="670" y1="330.1133" y2="330.1133"/><line style="stroke:#008000;stroke-width:1.0;" x1="562" x2="670" y1="346.0742" y2="346.0742"/><line style="stroke:#008000;stroke-width:1.0;" x1="562" x2="562" y1="330.1133" y2="346.0742"/><line style="stroke:#008000;stroke-width:1.0;" x1="670" x2="670" y1="330.1133" y2="346.0742"/><rect fill="#00BFFF" height="15.9609" style="stroke:none;stroke-width:1.0;" width="24" x="674" y="350.0742"/><line style="stroke:#00BFFF;stroke-width:1.0;" x1="674" x2="698" y1="350.0742" y2="350.0742"/><line style="stroke:#00BFFF;stroke-width:1.0;" x1="674" x2="698" y1="366.0352" y2="366.0352"/><line style="stroke:#00BFFF;stroke-width:1.0;" x1="674" x2="674" y1="350.0742" y2="366.0352"/><line style="stroke:#00BFFF;stroke-width:1.0;" x1="698" x2="698" y1="350.0742" y2="366.0352"/><polygon fill="#FFFF00" points="762,370.0352,768,376.0352,762,382.0352,756,376.0352" style="stroke:#B22222;stroke-width:1.0;"/><rect fill="#FFFF00" height="15.9609" style="stroke:none;stroke-width:1.0;" width="248" x="846" y="389.9961"/><line style="stroke:#FFFF00;stroke-width:1.0;" x1="846" x2="1094" y1="389.9961" y2="389.9961"/><line style="stroke:#FFFF00;stroke-width:1.0;" x1="846" x2="1094" y1="405.957" y2="405.957"/><line style="stroke:#FFFF00;stroke-width:1.0;" x1="846" x2="846" y1="389.9961" y2="405.957"/><line style="stroke:#FFFF00;stroke-width:1.0;" x1="1094" x2="1094" y1="389.9961" y2="405.957"/><rect fill="#E6E6FA" height="15.9609" style="stroke:none;stroke-width:1.0;" width="108" x="1094" y="409.957"/><line style="stroke:#ADD8E6;stroke-width:1.0;" x1="1094" x2="1202" y1="409.957" y2="409.957"/><line style="stroke:#ADD8E6;stroke-width:1.0;" x1="1094" x2="1202" y1="425.918" y2="425.918"/><line style="stroke:#ADD8E6;stroke-width:1.0;" x1="1094" x2="1094" y1="409.957" y2="425.918"/><line style="stroke:#ADD8E6;stroke-width:1.0;" x1="1202" x2="1202" y1="409.957" y2="425.918"/><rect fill="#00BFFF" height="15.9609" style="stroke:none;stroke-width:1.0;" width="24" x="1206" y="429.918"/><line style="stroke:#00BFFF;stroke-width:1.0;" x1="1206" x2="1230" y1="429.918" y2="429.918"/><line style="stroke:#00BFFF;stroke-width:1.0;" x1="1206" x2="1230" y1="445.8789" y2="445.8789"/><line style="stroke:#00BFFF;stroke-width:1.0;" x1="1206" x2="1206" y1="429.918" y2="445.8789"/><line style="stroke:#00BFFF;stroke-width:1.0;" x1="1230" x2="1230" y1="429.918" y2="445.8789"/><polygon fill="#FFFF00" points="1242,449.8789,1248,455.8789,1242,461.8789,1236,455.8789" style="stroke:#B22222;stroke-width:1.0;"/><rect fill="#E6E6FA" height="15.9609" style="stroke:none;stroke-width:1.0;" width="108" x="1450" y="469.8398"/><line style="stroke:#ADD8E6;stroke-width:1.0;" x1="1450" x2="1558" y1="469.8398" y2="469.8398"/><line style="stroke:#ADD8E6;stroke-width:1.0;" x1="1450" x2="1558" y1="485.8008" y2="485.8008"/><line style="stroke:#ADD8E6;stroke-width:1.0;" x1="1450" x2="1450" y1="469.8398" y2="485.8008"/><line style="stroke:#ADD8E6;stroke-width:1.0;" x1="1558" x2="1558" y1="469.8398" y2="485.8008"/><rect fill="#00BFFF" height="15.9609" style="stroke:none;stroke-width:1.0;" width="52" x="1562" y="489.8008"/><line style="stroke:#00BFFF;stroke-width:1.0;" x1="1562" x2="1614" y1="489.8008" y2="489.8008"/><line style="stroke:#00BFFF;stroke-width:1.0;" x1="1562" x2="1614" y1="505.7617" y2="505.7617"/><line style="stroke:#00BFFF;stroke-width:1.0;" x1="1562" x2="1562" y1="489.8008" y2="505.7617"/><line style="stroke:#00BFFF;stroke-width:1.0;" x1="1614" x2="1614" y1="489.8008" y2="505.7617"/><polygon fill="#FFFF00" points="1626,509.7617,1632,515.7617,1626,521.7617,1620,515.7617" style="stroke:#B22222;stroke-width:1.0;"/><rect fill="#FF0000" height="15.9609" style="stroke:none;stroke-width:1.0;" width="52" x="1630" y="529.7227"/><line style="stroke:#FF0000;stroke-width:1.0;" x1="1630" x2="1682" y1="529.7227" y2="529.7227"/><line style="stroke:#FF0000;stroke-width:1.0;" x1="1630" x2="1682" y1="545.6836" y2="545.6836"/><line style="stroke:#FF0000;stroke-width:1.0;" x1="1630" x2="1630" y1="529.7227" y2="545.6836"/><line style="stroke:#FF0000;stroke-width:1.0;" x1="1682" x2="1682" y1="529.7227" y2="545.6836"/><rect fill="#D3D3D3" height="15.9609" style="stroke:none;stroke-width:1.0;" width="108" x="550" y="549.6836"/><line style="stroke:#D3D3D3;stroke-width:1.0;" x1="550" x2="658" y1="549.6836" y2="549.6836"/><line style="stroke:#D3D3D3;stroke-width:1.0;" x1="550" x2="658" y1="565.6445" y2="565.6445"/><line style="stroke:#D3D3D3;stroke-width:1.0;" x1="550" x2="550" y1="549.6836" y2="565.6445"/><line style="stroke:#D3D3D3;stroke-width:1.0;" x1="658" x2="658" y1="549.6836" y2="565.6445"/><rect fill="#D3D3D3" height="15.9609" style="stroke:none;stroke-width:1.0;" width="80" x="658" y="569.6445"/><line style="stroke:#D3D3D3;stroke-width:1.0;" x1="658" x2="738" y1="569.6445" y2="569.6445"/><line style="stroke:#D3D3D3;stroke-width:1.0;" x1="658" x2="738" y1="585.6055" y2="585.6055"/><line style="stroke:#D3D3D3;stroke-width:1.0;" x1="658" x2="658" y1="569.6445" y2="585.6055"/><line style="stroke:#D3D3D3;stroke-width:1.0;" x1="738" x2="738" y1="569.6445" y2="585.6055"/><rect fill="#D3D3D3" height="15.9609" style="stroke:none;stroke-width:1.0;" width="52" x="766" y="589.6055"/><line style="stroke:#D3D3D3;stroke-width:1.0;" x1="766" x2="818" y1="589.6055" y2="589.6055"/><line style="stroke:#D3D3D3;stroke-width:1.0;" x1="766" x2="818" y1="605.5664" y2="605.5664"/><line style="stroke:#D3D3D3;stroke-width:1.0;" x1="766" x2="766" y1="589.6055" y2="605.5664"/><line style="stroke:#D3D3D3;stroke-width:1.0;" x1="818" x2="818" y1="589.6055" y2="605.5664"/><rect fill="#B0C4DE" height="15.9609" style="stroke:none;stroke-width:1.0;" width="108" x="590" y="609.5664"/><line style="stroke:#B0C4DE;stroke-width:1.0;" x1="590" x2="698" y1="609.5664" y2="609.5664"/><line style="stroke:#B0C4DE;stroke-width:1.0;" x1="590" x2="698" y1="625.5273" y2="625.5273"/><line style="stroke:#B0C4DE;stroke-width:1.0;" x1="590" x2="590" y1="609.5664" y2="625.5273"/><line style="stroke:#B0C4DE;stroke-width:1.0;" x1="698" x2="698" y1="609.5664" y2="625.5273"/><rect fill="#B0C4DE" height="15.9609" style="stroke:none;stroke-width:1.0;" width="52" x="646" y="629.5273"/><line style="stroke:#B0C4DE;stroke-width:1.0;" x1="646" x2="698" y1="629.5273" y2="629.5273"/><line style="stroke:#B0C4DE;stroke-width:1.0;" x1="646" x2="698" y1="645.4883" y2="645.4883"/><line style="stroke:#B0C4DE;stroke-width:1.0;" x1="646" x2="646" y1="629.5273" y2="645.4883"/><line style="stroke:#B0C4DE;stroke-width:1.0;" x1="698" x2="698" y1="629.5273" y2="645.4883"/><rect fill="#B0C4DE" height="15.9609" style="stroke:none;stroke-width:1.0;" width="108" x="658" y="649.4883"/><line style="stroke:#B0C4DE;stroke-width:1.0;" x1="658" x2="766" y1="649.4883" y2="649.4883"/><line style="stroke:#B0C4DE;stroke-width:1.0;" x1="658" x2="766" y1="665.4492" y2="665.4492"/><line style="stroke:#B0C4DE;stroke-width:1.0;" x1="658" x2="658" y1="649.4883" y2="665.4492"/><line style="stroke:#B0C4DE;stroke-width:1.0;" x1="766" x2="766" y1="649.4883" y2="665.4492"/><rect fill="#DDA0DD" height="15.9609" style="stroke:none;stroke-width:1.0;" width="52" x="590" y="669.4492"/><line style="stroke:#DDA0DD;stroke-width:1.0;" x1="590" x2="642" y1="669.4492" y2="669.4492"/><line style="stroke:#DDA0DD;stroke-width:1.0;" x1="590" x2="642" y1="685.4102" y2="685.4102"/><line style="stroke:#DDA0DD;stroke-width:1.0;" x1="590" x2="590" y1="669.4492" y2="685.4102"/><line style="stroke:#DDA0DD;stroke-width:1.0;" x1="642" x2="642" y1="669.4492" y2="685.4102"/><rect fill="#DDA0DD" height="15.9609" style="stroke:none;stroke-width:1.0;" width="80" x="618" y="689.4102"/><line style="stroke:#DDA0DD;stroke-width:1.0;" x1="618" x2="698" y1="689.4102" y2="689.4102"/><line style="stroke:#DDA0DD;stroke-width:1.0;" x1="618" x2="698" y1="705.3711" y2="705.3711"/><line style="stroke:#DDA0DD;stroke-width:1.0;" x1="618" x2="618" y1="689.4102" y2="705.3711"/><line style="stroke:#DDA0DD;stroke-width:1.0;" x1="698" x2="698" y1="689.4102" y2="705.3711"/><rect fill="#DDA0DD" height="15.9609" style="stroke:none;stroke-width:1.0;" width="80" x="506" y="709.3711"/><line style="stroke:#DDA0DD;stroke-width:1.0;" x1="506" x2="586" y1="709.3711" y2="709.3711"/><line style="stroke:#DDA0DD;stroke-width:1.0;" x1="506" x2="586" y1="725.332" y2="725.332"/><line style="stroke:#DDA0DD;stroke-width:1.0;" x1="506" x2="506" y1="709.3711" y2="725.332"/><line style="stroke:#DDA0DD;stroke-width:1.0;" x1="586" x2="586" y1="709.3711" y2="725.332"/><rect fill="#D3D3D3" height="15.9609" style="stroke:none;stroke-width:1.0;" width="80" x="846" y="729.332"/><line style="stroke:#D3D3D3;stroke-width:1.0;" x1="846" x2="926" y1="729.332" y2="729.332"/><line style="stroke:#D3D3D3;stroke-width:1.0;" x1="846" x2="926" y1="745.293" y2="745.293"/><line style="stroke:#D3D3D3;stroke-width:1.0;" x1="846" x2="846" y1="729.332" y2="745.293"/><line style="stroke:#D3D3D3;stroke-width:1.0;" x1="926" x2="926" y1="729.332" y2="745.293"/><text fill="#000000" font-family="Helvetica" font-size="12" font-weight="bold" lengthAdjust="spacing" textLength="46" x="30" y="83.5703">Training</text><text fill="#000000" font-family="Helvetica" font-size="12" font-weight="bold" lengthAdjust="spacing" textLength="39" x="34" y="103.5313">r2.9.16</text><text fill="#000000" font-family="Helvetica" font-size="12" font-weight="bold" lengthAdjust="spacing" textLength="39" x="146" y="123.4922">r2.9.17</text><text fill="#000000" font-family="Helvetica" font-size="12" font-weight="bold" lengthAdjust="spacing" textLength="49" x="282" y="143.4531">Testing2</text><text fill="#000000" font-family="Helvetica" font-size="12" font-weight="bold" lengthAdjust="spacing" textLength="49" x="230" y="163.4141">pre-prod</text><text fill="#000000" font-family="Helvetica" font-size="12" font-weight="bold" lengthAdjust="spacing" textLength="39" x="230" y="183.375">r2.9.18</text><text fill="#000000" font-family="Helvetica" font-size="12" font-weight="bold" lengthAdjust="spacing" textLength="49" x="366" y="203.3359">Testing3</text><text fill="#000000" font-family="sans-serif" font-size="12" font-weight="bold" lengthAdjust="spacing" textLength="73" x="383" y="223.2969">Demo 1 MOA</text><text fill="#000000" font-family="Helvetica" font-size="12" font-weight="bold" lengthAdjust="spacing" textLength="49" x="342" y="243.2578">r2.9.19.2</text><text fill="#000000" font-family="Helvetica" font-size="12" font-weight="bold" lengthAdjust="spacing" textLength="49" x="506" y="263.2188">Testing4</text><text fill="#000000" font-family="sans-serif" font-size="12" font-weight="bold" lengthAdjust="spacing" textLength="73" x="519" y="283.1797">Demo 2 MOA</text><text fill="#000000" font-family="Helvetica" font-size="12" font-weight="bold" lengthAdjust="spacing" textLength="39" x="454" y="303.1406">r2.9.20</text><text fill="#000000" font-family="Helvetica" font-size="12" font-weight="bold" lengthAdjust="spacing" textLength="49" x="630" y="323.1016">Testing5</text><text fill="#000000" font-family="Helvetica" font-size="12" font-weight="bold" lengthAdjust="spacing" textLength="39" x="566" y="343.0625">r2.9.21</text><text fill="#000000" font-family="Helvetica" font-size="12" font-weight="bold" lengthAdjust="spacing" textLength="49" x="702" y="363.0234">Testing6</text><text fill="#000000" font-family="sans-serif" font-size="12" font-weight="bold" lengthAdjust="spacing" textLength="73" x="771" y="382.9844">Demo 3 MOA</text><text fill="#000000" font-family="Helvetica" font-size="12" font-weight="bold" lengthAdjust="spacing" textLength="155" x="895" y="402.9453">Activity Calendar VAL / MEP</text><text fill="#000000" font-family="Helvetica" font-size="12" font-weight="bold" lengthAdjust="spacing" textLength="39" x="1098" y="422.9063">r2.9.22</text><text fill="#000000" font-family="Helvetica" font-size="12" font-weight="bold" lengthAdjust="spacing" textLength="49" x="1234" y="442.8672">Testing7</text><text fill="#000000" font-family="sans-serif" font-size="12" font-weight="bold" lengthAdjust="spacing" textLength="73" x="1251" y="462.8281">Demo 4 MOA</text><text fill="#000000" font-family="Helvetica" font-size="12" font-weight="bold" lengthAdjust="spacing" textLength="39" x="1454" y="482.7891">r2.9.23</text><text fill="#000000" font-family="Helvetica" font-size="12" font-weight="bold" lengthAdjust="spacing" textLength="49" x="1618" y="502.75">Testing8</text><text fill="#000000" font-family="sans-serif" font-size="12" font-weight="bold" lengthAdjust="spacing" textLength="73" x="1635" y="522.7109">Demo MOA 5</text><text fill="#000000" font-family="Helvetica" font-size="12" font-weight="bold" lengthAdjust="spacing" textLength="54" x="1686" y="542.6719">validation</text><text fill="#000000" font-family="Helvetica" font-size="12" font-weight="bold" lengthAdjust="spacing" textLength="24" x="554" y="562.6328">GPR</text><text fill="#000000" font-family="Helvetica" font-size="12" font-weight="bold" lengthAdjust="spacing" textLength="22" x="662" y="582.5938">VFA</text><text fill="#000000" font-family="Helvetica" font-size="12" font-weight="bold" lengthAdjust="spacing" textLength="23" x="770" y="602.5547">CDE</text><text fill="#000000" font-family="Helvetica" font-size="12" font-weight="bold" lengthAdjust="spacing" textLength="26" x="594" y="622.5156">MSC</text><text fill="#000000" font-family="Helvetica" font-size="12" font-weight="bold" lengthAdjust="spacing" textLength="21" x="650" y="642.4766">JLT</text><text fill="#000000" font-family="Helvetica" font-size="12" font-weight="bold" lengthAdjust="spacing" textLength="23" x="662" y="662.4375">EBU</text><text fill="#000000" font-family="Helvetica" font-size="12" font-weight="bold" lengthAdjust="spacing" textLength="21" x="594" y="682.3984">JVF</text><text fill="#000000" font-family="Helvetica" font-size="12" font-weight="bold" lengthAdjust="spacing" textLength="22" x="622" y="702.3594">BLE</text><text fill="#000000" font-family="Helvetica" font-size="12" font-weight="bold" lengthAdjust="spacing" textLength="25" x="510" y="722.3203">MDE</text><text fill="#000000" font-family="Helvetica" font-size="12" font-weight="bold" lengthAdjust="spacing" textLength="65" x="850" y="742.2813">CGFS 2 VFA</text><rect fill="none" height="69.8633" id="_legend" rx="7.5" ry="7.5" style="stroke:#000000;stroke-width:1.0;" width="146" x="768.5" y="759.293"/><rect fill="#D3D3D3" height="18.6211" style="stroke:none;stroke-width:1.0;" width="12" x="773.5" y="766.293"/><text fill="#000000" font-family="sans-serif" font-size="14" lengthAdjust="spacing" textLength="8" x="773.5" y="781.4004">&#160;&#160;</text><text fill="#000000" font-family="sans-serif" font-size="14" lengthAdjust="spacing" textLength="116" x="789.5" y="781.4004">Cong&#233;s/Abs. MOE</text><rect fill="#B0C4DE" height="18.6211" style="stroke:none;stroke-width:1.0;" width="12" x="773.5" y="784.9141"/><text fill="#000000" font-family="sans-serif" font-size="14" lengthAdjust="spacing" textLength="8" x="773.5" y="800.0215">&#160;&#160;</text><text fill="#000000" font-family="sans-serif" font-size="14" lengthAdjust="spacing" textLength="84" x="789.5" y="800.0215">Cong&#233;s MOA</text><rect fill="#DDA0DD" height="18.6211" style="stroke:none;stroke-width:1.0;" width="12" x="773.5" y="803.5352"/><text fill="#000000" font-family="sans-serif" font-size="14" lengthAdjust="spacing" textLength="12" x="773.5" y="818.6426">&#160;&#160;&#160;</text><text fill="#000000" font-family="sans-serif" font-size="14" lengthAdjust="spacing" textLength="78" x="789.5" y="818.6426">Cong&#233;s Dev</text><line style="stroke:#000000;stroke-width:1.0;" x1="773.5" x2="909.5" y1="766.293" y2="766.293"/><line style="stroke:#000000;stroke-width:1.0;" x1="773.5" x2="909.5" y1="784.9141" y2="784.9141"/><line style="stroke:#000000;stroke-width:1.0;" x1="773.5" x2="909.5" y1="803.5352" y2="803.5352"/><line style="stroke:#000000;stroke-width:1.0;" x1="773.5" x2="909.5" y1="822.1563" y2="822.1563"/><line style="stroke:#000000;stroke-width:1.0;" x1="773.5" x2="773.5" y1="766.293" y2="822.1563"/><line style="stroke:#000000;stroke-width:1.0;" x1="785.5" x2="785.5" y1="766.293" y2="822.1563"/><line style="stroke:#000000;stroke-width:1.0;" x1="909.5" x2="909.5" y1="766.293" y2="822.1563"/><!--SRC=[nLZRRkCs47tdLn3eGtSVubYIhsaGh6_9Dcl7XkrDKHX1GLkCpLgcN8fowdRpGVsE_bX7b2LHbhJA5WNg1mVaSCwSCpCSMVdWIIBacd0fqORP53-xhbowloDqxScZGs-GilKPMGkomtyY31-VAozgpuctFUq5drkNomUoe_WZTGvKiXL9cNgkumfy9oZbgVqP-uDYmqpl1S7nqdNiUBjBLjixuVhS3e7wbEvdssFNyMbyPiWupRU-gc_vBmXt7GZyVn7UCOTwqkNqZ7Nei_olg1sfuxWlEQnkcQ1TmKvHGaxSbVbq-aHiYyfRpG4V2yBNT4fj3Pm8uRvyQua4jND2jhur2uhxpqMfM9xNBKHiLQe_65ObhM- -WPHnwdauieJgLexhKLkJ5r1OQnJsZ6-_8l0LlQBhozFDH7l1kFHM15YyKBfrZh3Z_afNwJqacOJLk3jx73pC1pDy0Rrse8wxtr4kmUpQv8YPXrT1A637E4m10MqNrX9DGb2iBhs7vOPYishMBglMPRM65dD166Ty_OI9XnVpQUV71-C96F_cG-zus50yK6n81u8Gm70Xp4gxOZHE49tP9nsXfX0y51bo42BqYvlJ8HI3DXDGKmErT52p05H1dJ3D9zY0f81ICoCF4sxh-Md83NQVyGWI6wGgYX90HH10S2_e1LJC3XbEfeF9TDpFS3p7DjiXU0VAxvpWOz-q38yuEvV7gMWbgR2AyckTOwpZL9XHAgma5LPUfTMHH6jml4ztBXmOZJjFU4FsUye3UK7ZaMT91KxEVkzXoksOSxjY9gnhMTQPx3JpKbyhLcL5gcg9gjfN2so44Uvz9nqYKLoB59jfnUrppvDAivfehBz1Oot2uLHZK2yMMOj4rXEHzT8kFWdj-6lVawb0YTJwKop2I4GqoaKOzKmQOvYC31X3McGL8DRHA6Z1XiQo4R1K5R7I5L5CgY6J6TrBkbj2DuQrGGkS_dHMaXsOFE8UZ5Tk4u4VEqDyYKU3IIWzEX3PbK7hcl5AkX6-oaTCl1tTmLo8T3vE3-ieNzhzQBwXTqAjVRhIf4REwJX3SW0AL5mEsNeZrGyJBR7A8ov2iw08JQq8pUXMrChdGFDi3fXMehBrXkQAXe1ORGA9THHvlarYCvBOIYJgOKrDOakJs8eaWa1S_xh4LYBnG1nc4ybS7gg4jie4Axe_yMC0D2g_jCBWbmD4k9jCG-ZU-E7k5xKwos46FpEi5e-t7Gr4hKgULJ59VOJq-WCDHgtAj1e1Y9U-dw6cj5edA6CuzXIzGgkAMcH5Yz6ifr5Kgv9qcUspP2cdd0YUfDHHloNHuduuryAeLLacp4mwbLj9e47tinP8hShANyy4KcvbYXvlTKN1gaIHcUqpvPOEj7Vy7S1tXthhg5L91-OreFBBnH-bMdFKByTlPTYF-aNelRlR6MGXlaQ3KRSKtp9o7qwXRs43Url6zoHuOtVe6cRC-Ml62vCRX48Rl5XykVukThw19UwvVFttNzvbP-bLO9ODy1VjL5nl_QYQUATJWLomQKPuuG0Z13lnGUW3V8V_Ta0J1_v-7WtnWGeFPY0su0UHQLKCuzrFe0oKOyC2sLTcuygoS6ymcmT9iDwZTtUJ8VPSNwmejfad1LlwmHHzZ-x9WU2fpoNRqIiyXY5yt_yKRU01Fp3XSlN-S_yuIWuqQXTT9Y6a02xuSOJwz9duZWIFbMl3qBx2lRrXraqqX5TNdwm1_5cW7cHMYkCLlft-0m00]--></g></svg>