<?xml version="1.0" encoding="UTF-8" standalone="no"?><svg xmlns="http://www.w3.org/2000/svg" xmlns:xlink="http://www.w3.org/1999/xlink" contentStyleType="text/css" height="960px" preserveAspectRatio="none" style="width:1675px;height:960px;background:#FFFFFF;" version="1.1" viewBox="0 0 1675 960" width="1675px" zoomAndPan="magnify"><defs/><g><!--MD5=[e169ac431914a6adb8cf110c9da1459f]
cluster DB--><g id="cluster_DB"><path d="M1055,809 C1055,799 1257,799 1257,799 C1257,799 1459,799 1459,809 L1459,933 C1459,943 1257,943 1257,943 C1257,943 1055,943 1055,933 L1055,809 " fill="#ADD8E6" style="stroke:#181818;stroke-width:1.0;"/><path d="M1055,809 C1055,819 1257,819 1257,819 C1257,819 1459,819 1459,809 " fill="none" style="stroke:#181818;stroke-width:1.0;"/><text fill="#000000" font-family="sans-serif" font-size="14" font-weight="bold" lengthAdjust="spacing" textLength="19" x="1247.5" y="835.9659">DB</text></g><!--MD5=[86eb43b373e365272b9cfd3b4e10ebdd]
cluster TDB2--><g id="cluster_TDB2"><polygon fill="#ADD8E6" points="1491,820,1501,810,1658,810,1658,932,1648,942,1491,942,1491,820" style="stroke:#181818;stroke-width:1.0;"/><line style="stroke:#181818;stroke-width:1.0;" x1="1648" x2="1658" y1="820" y2="810"/><line style="stroke:#181818;stroke-width:1.0;" x1="1491" x2="1648" y1="820" y2="820"/><line style="stroke:#181818;stroke-width:1.0;" x1="1648" x2="1648" y1="820" y2="942"/><text fill="#000000" font-family="sans-serif" font-size="14" font-weight="bold" lengthAdjust="spacing" textLength="35" x="1553" y="837.9659">TDB2</text></g><!--MD5=[91f8e3379e109545daa90049ee0f0502]
cluster net.sumaris.core.rdf--><g id="cluster_net.sumaris.core.rdf"><path d="M8.5,101 L149.5,101 A3.75,3.75 0 0 1 152,103.5 L159,126.0679 L1279.5,126.0679 A2.5,2.5 0 0 1 1282,128.5679 L1282,703.5 A2.5,2.5 0 0 1 1279.5,706 L8.5,706 A2.5,2.5 0 0 1 6,703.5 L6,103.5 A2.5,2.5 0 0 1 8.5,101 " fill="none" style="stroke:#000000;stroke-width:1.5;"/><line style="stroke:#000000;stroke-width:1.5;" x1="6" x2="159" y1="126.0679" y2="126.0679"/><text fill="#000000" font-family="sans-serif" font-size="14" font-weight="bold" lengthAdjust="spacing" textLength="140" x="10" y="117.9659">net.sumaris.core.rdf</text></g><!--MD5=[a0bb257923b4feabbc8c8a837db65c88]
cluster adapter--><g id="cluster_adapter"><path d="M32.5,512 L87.5,512 A3.75,3.75 0 0 1 90,514.5 L97,537.0679 L448.5,537.0679 A2.5,2.5 0 0 1 451,539.5679 L451,679.5 A2.5,2.5 0 0 1 448.5,682 L32.5,682 A2.5,2.5 0 0 1 30,679.5 L30,514.5 A2.5,2.5 0 0 1 32.5,512 " fill="none" style="stroke:#000000;stroke-width:1.5;"/><line style="stroke:#000000;stroke-width:1.5;" x1="30" x2="97" y1="537.0679" y2="537.0679"/><text fill="#000000" font-family="sans-serif" font-size="14" font-weight="bold" lengthAdjust="spacing" textLength="54" x="34" y="528.9659">adapter</text></g><!--MD5=[5622bc4ba3bf2be5d17935065b98c5f9]
cluster dao--><g id="cluster_dao"><path d="M1081.5,546 L1108.5,546 A3.75,3.75 0 0 1 1111,548.5 L1118,571.0679 L1247.5,571.0679 A2.5,2.5 0 0 1 1250,573.5679 L1250,645.5 A2.5,2.5 0 0 1 1247.5,648 L1081.5,648 A2.5,2.5 0 0 1 1079,645.5 L1079,548.5 A2.5,2.5 0 0 1 1081.5,546 " fill="none" style="stroke:#000000;stroke-width:1.5;"/><line style="stroke:#000000;stroke-width:1.5;" x1="1079" x2="1118" y1="571.0679" y2="571.0679"/><text fill="#000000" font-family="sans-serif" font-size="14" font-weight="bold" lengthAdjust="spacing" textLength="26" x="1083" y="562.9659">dao</text></g><!--MD5=[3059eaac1fd4f9745a2d6cfe842c4363]
cluster loader--><g id="cluster_loader"><path d="M477.5,554 L522.5,554 A3.75,3.75 0 0 1 525,556.5 L532,579.0679 L1044.5,579.0679 A2.5,2.5 0 0 1 1047,581.5679 L1047,637.5 A2.5,2.5 0 0 1 1044.5,640 L477.5,640 A2.5,2.5 0 0 1 475,637.5 L475,556.5 A2.5,2.5 0 0 1 477.5,554 " fill="none" style="stroke:#000000;stroke-width:1.5;"/><line style="stroke:#000000;stroke-width:1.5;" x1="475" x2="532" y1="579.0679" y2="579.0679"/><text fill="#000000" font-family="sans-serif" font-size="14" font-weight="bold" lengthAdjust="spacing" textLength="44" x="479" y="570.9659">loader</text></g><!--MD5=[7579d5565d2521d5936cec86ed3dadee]
cluster service--><g id="cluster_service"><path d="M207.5,357 L256.5,357 A3.75,3.75 0 0 1 259,359.5 L266,382.0679 L752.5,382.0679 A2.5,2.5 0 0 1 755,384.5679 L755,440.5 A2.5,2.5 0 0 1 752.5,443 L207.5,443 A2.5,2.5 0 0 1 205,440.5 L205,359.5 A2.5,2.5 0 0 1 207.5,357 " fill="none" style="stroke:#000000;stroke-width:1.5;"/><line style="stroke:#000000;stroke-width:1.5;" x1="205" x2="266" y1="382.0679" y2="382.0679"/><text fill="#000000" font-family="sans-serif" font-size="14" font-weight="bold" lengthAdjust="spacing" textLength="48" x="209" y="373.9659">service</text></g><!--MD5=[08cfbaecb6317b1e15f6360cd8b42728]
cluster http--><g id="cluster_http"><path d="M65.5,147 L96.5,147 A3.75,3.75 0 0 1 99,149.5 L106,172.0679 L988.5,172.0679 A2.5,2.5 0 0 1 991,174.5679 L991,303.5 A2.5,2.5 0 0 1 988.5,306 L65.5,306 A2.5,2.5 0 0 1 63,303.5 L63,149.5 A2.5,2.5 0 0 1 65.5,147 " fill="none" style="stroke:#000000;stroke-width:1.5;"/><line style="stroke:#000000;stroke-width:1.5;" x1="63" x2="106" y1="172.0679" y2="172.0679"/><text fill="#000000" font-family="sans-serif" font-size="14" font-weight="bold" lengthAdjust="spacing" textLength="30" x="67" y="163.9659">http</text></g><!--MD5=[4d41f1abba492608ed37615c799725da]
class TAXON_NAME--><g id="elem_TAXON_NAME"><rect codeLine="5" fill="#EEEEEE" height="75.2038" id="TAXON_NAME" rx="2.5" ry="2.5" style="stroke:#181818;stroke-width:0.5;" width="169" x="1070.5" y="852"/><text fill="#000000" font-family="sans-serif" font-size="14" lengthAdjust="spacing" textLength="94" x="1108" y="871.9659">TAXON_NAME</text><line style="stroke:#181818;stroke-width:0.5;" x1="1071.5" x2="1238.5" y1="881.0679" y2="881.0679"/><ellipse cx="1081.5" cy="896.1019" fill="#84BE84" rx="3" ry="3" style="stroke:#038048;stroke-width:1.0;"/><text fill="#000000" font-family="sans-serif" font-size="14" lengthAdjust="spacing" textLength="107" x="1090.5" y="900.0339">ID: NUMBER(10)</text><ellipse cx="1081.5" cy="915.1698" fill="#84BE84" rx="3" ry="3" style="stroke:#038048;stroke-width:1.0;"/><text fill="#000000" font-family="sans-serif" font-size="14" lengthAdjust="spacing" textLength="143" x="1090.5" y="919.1018">LABEL: VARCHAR2(40)</text></g><!--MD5=[6eacbabadde1abc100c0f356c7aca141]
class DEPARTMENT--><g id="elem_DEPARTMENT"><rect codeLine="9" fill="#EEEEEE" height="75.2038" id="DEPARTMENT" rx="2.5" ry="2.5" style="stroke:#181818;stroke-width:0.5;" width="169" x="1274.5" y="852"/><text fill="#000000" font-family="sans-serif" font-size="14" lengthAdjust="spacing" textLength="92" x="1313" y="871.9659">DEPARTMENT</text><line style="stroke:#181818;stroke-width:0.5;" x1="1275.5" x2="1442.5" y1="881.0679" y2="881.0679"/><ellipse cx="1285.5" cy="896.1019" fill="#84BE84" rx="3" ry="3" style="stroke:#038048;stroke-width:1.0;"/><text fill="#000000" font-family="sans-serif" font-size="14" lengthAdjust="spacing" textLength="107" x="1294.5" y="900.0339">ID: NUMBER(10)</text><ellipse cx="1285.5" cy="915.1698" fill="#84BE84" rx="3" ry="3" style="stroke:#038048;stroke-width:1.0;"/><text fill="#000000" font-family="sans-serif" font-size="14" lengthAdjust="spacing" textLength="143" x="1294.5" y="919.1018">LABEL: VARCHAR2(40)</text></g><!--MD5=[906a6be943483496c7fd98dd250272af]
entity TDB2 Files--><g id="elem_TDB2 Files"><path d="M1537,861 L1578,861 A3.75,3.75 0 0 1 1580.5,863.5 L1587.5,882 L1631,882 A2.5,2.5 0 0 1 1633.5,884.5 L1633.5,915.5679 A2.5,2.5 0 0 1 1631,918.0679 L1537,918.0679 A2.5,2.5 0 0 1 1534.5,915.5679 L1534.5,863.5 A2.5,2.5 0 0 1 1537,861 " fill="#EEEEEE" style="stroke:#181818;stroke-width:0.5;"/><line style="stroke:#181818;stroke-width:0.5;" x1="1534.5" x2="1587.5" y1="882" y2="882"/><text fill="#000000" font-family="sans-serif" font-size="14" lengthAdjust="spacing" textLength="69" x="1544.5" y="903.9659">TDB2 Files</text></g><!--MD5=[3213c23e2038f4b82898501eced730b5]
class sandreEndpoint--><g id="elem_sandreEndpoint"><rect codeLine="27" fill="#EEEEEE" height="56.1358" id="sandreEndpoint" rx="2.5" ry="2.5" style="stroke:#181818;stroke-width:0.5;" width="202" x="554" y="861.5"/><text fill="#000000" font-family="sans-serif" font-size="14" font-style="italic" lengthAdjust="spacing" textLength="44" x="633" y="881.4659">Sandre</text><line style="stroke:#181818;stroke-width:0.5;" x1="555" x2="755" y1="890.5679" y2="890.5679"/><text fill="#000000" font-family="sans-serif" font-size="14" lengthAdjust="spacing" textLength="190" x="560" y="909.5339">http://id.eaufrance.fr/sparql</text></g><!--MD5=[c19a38ddba5cd503f519c12959da925e]
class mnhnEndpoint--><g id="elem_mnhnEndpoint"><rect codeLine="32" fill="#EEEEEE" height="56.1358" id="mnhnEndpoint" rx="2.5" ry="2.5" style="stroke:#181818;stroke-width:0.5;" width="200" x="791" y="861.5"/><text fill="#000000" font-family="sans-serif" font-size="14" font-style="italic" lengthAdjust="spacing" textLength="42" x="870" y="881.4659">MNHN</text><line style="stroke:#181818;stroke-width:0.5;" x1="792" x2="990" y1="890.5679" y2="890.5679"/><text fill="#000000" font-family="sans-serif" font-size="14" lengthAdjust="spacing" textLength="188" x="797" y="909.5339">http://taxref.mnhn.fr/sparql</text></g><!--MD5=[3c133e0f62115f2f76c7e5fbda3512ed]
class IModelVisitor--><g id="elem_IModelVisitor"><rect codeLine="42" fill="#F1F1F1" height="116.2717" id="IModelVisitor" rx="2.5" ry="2.5" style="stroke:#181818;stroke-width:0.5;" width="186" x="46" y="550"/><ellipse cx="92.25" cy="566" fill="#B4A7E5" rx="11" ry="11" style="stroke:#181818;stroke-width:1.0;"/><path d="M88.2813,572.5 L88.2813,570.7969 L90.6406,570.5313 L90.6406,562.3281 L88.2813,562.0625 L88.2813,560.3594 L95.4219,560.3594 L95.4219,562.0625 L93,562.3281 L93,570.5313 L95.4219,570.7969 L95.4219,572.5 L88.2813,572.5 Z " fill="#000000"/><text fill="#000000" font-family="sans-serif" font-size="14" font-style="italic" lengthAdjust="spacing" textLength="85" x="112.75" y="571.432">IModelVisitor</text><line style="stroke:#181818;stroke-width:0.5;" x1="47" x2="231" y1="582" y2="582"/><ellipse cx="57" cy="597.034" fill="#84BE84" rx="3" ry="3" style="stroke:#038048;stroke-width:1.0;"/><text fill="#000000" font-family="sans-serif" font-size="14" lengthAdjust="spacing" textLength="156" x="66" y="600.9659">accept(model): boolean</text><ellipse cx="57" cy="616.1019" fill="#84BE84" rx="3" ry="3" style="stroke:#038048;stroke-width:1.0;"/><text fill="#000000" font-family="sans-serif" font-size="14" lengthAdjust="spacing" textLength="119" x="66" y="620.0339">visitModel(model)</text><ellipse cx="57" cy="635.1698" fill="#84BE84" rx="3" ry="3" style="stroke:#038048;stroke-width:1.0;"/><text fill="#000000" font-family="sans-serif" font-size="14" lengthAdjust="spacing" textLength="103" x="66" y="639.1018">visitClass(class)</text><ellipse cx="57" cy="654.2377" fill="#84BE84" rx="3" ry="3" style="stroke:#038048;stroke-width:1.0;"/><text fill="#000000" font-family="sans-serif" font-size="14" lengthAdjust="spacing" textLength="160" x="66" y="658.1697">visitIndividual(instance)</text></g><!--MD5=[2ab373531aa1dd6b9e1243d20d42a431]
class SandreEquivalences--><g id="elem_SandreEquivalences"><rect codeLine="49" fill="#F1F1F1" height="32" id="SandreEquivalences" rx="2.5" ry="2.5" style="stroke:#181818;stroke-width:0.5;" width="168" x="267" y="592"/><ellipse cx="282" cy="608" fill="#ADD1B2" rx="11" ry="11" style="stroke:#181818;stroke-width:1.0;"/><path d="M281.4688,614.9219 Q279.7188,614.9219 278.5781,614.1875 Q277.4531,613.4375 276.8906,612.0938 Q276.3438,610.7344 276.3438,608.9375 Q276.3438,606.9063 277,605.4531 Q277.6563,604 278.9375,603.2188 Q280.2188,602.4375 282.0938,602.4375 Q282.9844,602.4375 283.6563,602.625 Q284.3281,602.7969 285.0156,603.1406 L284.2031,605.1563 Q283.5781,604.8438 283.0313,604.7188 Q282.5,604.5938 282.0156,604.5938 Q280.8438,604.5938 280.1406,605.125 Q279.4375,605.6563 279.1406,606.6094 Q278.8438,607.5625 278.8438,608.8281 Q278.8438,610.8438 279.5625,611.8125 Q280.2813,612.7656 281.875,612.7656 Q282.4688,612.7656 283.0938,612.6094 Q283.7188,612.4531 284.5469,612.0781 L284.5469,614.2969 Q283.8125,614.6094 283.0156,614.7656 Q282.2344,614.9219 281.4688,614.9219 Z " fill="#000000"/><text fill="#000000" font-family="sans-serif" font-size="14" lengthAdjust="spacing" textLength="136" x="296" y="613.432">SandreEquivalences</text></g><!--MD5=[bb010123520b19152a07ab04ae8b97a5]
class EntitiesDao--><g id="elem_EntitiesDao"><rect codeLine="56" fill="#F1F1F1" height="32" id="EntitiesDao" rx="2.5" ry="2.5" style="stroke:#181818;stroke-width:0.5;" width="103" x="1103.5" y="592"/><ellipse cx="1118.5" cy="608" fill="#B4A7E5" rx="11" ry="11" style="stroke:#181818;stroke-width:1.0;"/><path d="M1114.5313,614.5 L1114.5313,612.7969 L1116.8906,612.5313 L1116.8906,604.3281 L1114.5313,604.0625 L1114.5313,602.3594 L1121.6719,602.3594 L1121.6719,604.0625 L1119.25,604.3281 L1119.25,612.5313 L1121.6719,612.7969 L1121.6719,614.5 L1114.5313,614.5 Z " fill="#000000"/><text fill="#000000" font-family="sans-serif" font-size="14" font-style="italic" lengthAdjust="spacing" textLength="71" x="1132.5" y="613.432">EntitiesDao</text></g><!--MD5=[f61d3063ea9136e30a52f590a9569ffc]
class INamedRdfLoader--><g id="elem_INamedRdfLoader"><rect codeLine="63" fill="#F1F1F1" height="32" id="INamedRdfLoader" rx="2.5" ry="2.5" style="stroke:#181818;stroke-width:0.5;" width="146" x="491" y="592"/><ellipse cx="506" cy="608" fill="#B4A7E5" rx="11" ry="11" style="stroke:#181818;stroke-width:1.0;"/><path d="M502.0313,614.5 L502.0313,612.7969 L504.3906,612.5313 L504.3906,604.3281 L502.0313,604.0625 L502.0313,602.3594 L509.1719,602.3594 L509.1719,604.0625 L506.75,604.3281 L506.75,612.5313 L509.1719,612.7969 L509.1719,614.5 L502.0313,614.5 Z " fill="#000000"/><text fill="#000000" font-family="sans-serif" font-size="14" font-style="italic" lengthAdjust="spacing" textLength="114" x="520" y="613.432">INamedRdfLoader</text></g><!--MD5=[2072805062a46ce2246650514629f3cb]
class MnhnTaxonLoader--><g id="elem_MnhnTaxonLoader"><rect codeLine="65" fill="#F1F1F1" height="32" id="MnhnTaxonLoader" rx="2.5" ry="2.5" style="stroke:#181818;stroke-width:0.5;" width="158" x="873" y="592"/><ellipse cx="888" cy="608" fill="#ADD1B2" rx="11" ry="11" style="stroke:#181818;stroke-width:1.0;"/><path d="M887.4688,614.9219 Q885.7188,614.9219 884.5781,614.1875 Q883.4531,613.4375 882.8906,612.0938 Q882.3438,610.7344 882.3438,608.9375 Q882.3438,606.9063 883,605.4531 Q883.6563,604 884.9375,603.2188 Q886.2188,602.4375 888.0938,602.4375 Q888.9844,602.4375 889.6563,602.625 Q890.3281,602.7969 891.0156,603.1406 L890.2031,605.1563 Q889.5781,604.8438 889.0313,604.7188 Q888.5,604.5938 888.0156,604.5938 Q886.8438,604.5938 886.1406,605.125 Q885.4375,605.6563 885.1406,606.6094 Q884.8438,607.5625 884.8438,608.8281 Q884.8438,610.8438 885.5625,611.8125 Q886.2813,612.7656 887.875,612.7656 Q888.4688,612.7656 889.0938,612.6094 Q889.7188,612.4531 890.5469,612.0781 L890.5469,614.2969 Q889.8125,614.6094 889.0156,614.7656 Q888.2344,614.9219 887.4688,614.9219 Z " fill="#000000"/><text fill="#000000" font-family="sans-serif" font-size="14" lengthAdjust="spacing" textLength="126" x="902" y="613.432">MnhnTaxonLoader</text></g><!--MD5=[faf0cc5dd7c20f0136e29a2c00ca3a05]
class SandreTaxonLoader--><g id="elem_SandreTaxonLoader"><rect codeLine="66" fill="#F1F1F1" height="32" id="SandreTaxonLoader" rx="2.5" ry="2.5" style="stroke:#181818;stroke-width:0.5;" width="166" x="672" y="592"/><ellipse cx="687" cy="608" fill="#ADD1B2" rx="11" ry="11" style="stroke:#181818;stroke-width:1.0;"/><path d="M686.4688,614.9219 Q684.7188,614.9219 683.5781,614.1875 Q682.4531,613.4375 681.8906,612.0938 Q681.3438,610.7344 681.3438,608.9375 Q681.3438,606.9063 682,605.4531 Q682.6563,604 683.9375,603.2188 Q685.2188,602.4375 687.0938,602.4375 Q687.9844,602.4375 688.6563,602.625 Q689.3281,602.7969 690.0156,603.1406 L689.2031,605.1563 Q688.5781,604.8438 688.0313,604.7188 Q687.5,604.5938 687.0156,604.5938 Q685.8438,604.5938 685.1406,605.125 Q684.4375,605.6563 684.1406,606.6094 Q683.8438,607.5625 683.8438,608.8281 Q683.8438,610.8438 684.5625,611.8125 Q685.2813,612.7656 686.875,612.7656 Q687.4688,612.7656 688.0938,612.6094 Q688.7188,612.4531 689.5469,612.0781 L689.5469,614.2969 Q688.8125,614.6094 688.0156,614.7656 Q687.2344,614.9219 686.4688,614.9219 Z " fill="#000000"/><text fill="#000000" font-family="sans-serif" font-size="14" lengthAdjust="spacing" textLength="134" x="701" y="613.432">SandreTaxonLoader</text></g><!--MD5=[6d087d2b8c69f4352d73fe107933ad37]
class RdfSchemaService--><g id="elem_RdfSchemaService"><rect codeLine="76" fill="#F1F1F1" height="32" id="RdfSchemaService" rx="2.5" ry="2.5" style="stroke:#181818;stroke-width:0.5;" width="144" x="416" y="395"/><ellipse cx="431" cy="411" fill="#B4A7E5" rx="11" ry="11" style="stroke:#181818;stroke-width:1.0;"/><path d="M427.0313,417.5 L427.0313,415.7969 L429.3906,415.5313 L429.3906,407.3281 L427.0313,407.0625 L427.0313,405.3594 L434.1719,405.3594 L434.1719,407.0625 L431.75,407.3281 L431.75,415.5313 L434.1719,415.7969 L434.1719,417.5 L427.0313,417.5 Z " fill="#000000"/><text fill="#000000" font-family="sans-serif" font-size="14" font-style="italic" lengthAdjust="spacing" textLength="112" x="445" y="416.432">RdfSchemaService</text></g><!--MD5=[91d23243c85188b9819904c2388d3a6a]
class RdfIndividualService--><g id="elem_RdfIndividualService"><rect codeLine="79" fill="#F1F1F1" height="32" id="RdfIndividualService" rx="2.5" ry="2.5" style="stroke:#181818;stroke-width:0.5;" width="160" x="221" y="395"/><ellipse cx="236" cy="411" fill="#B4A7E5" rx="11" ry="11" style="stroke:#181818;stroke-width:1.0;"/><path d="M232.0313,417.5 L232.0313,415.7969 L234.3906,415.5313 L234.3906,407.3281 L232.0313,407.0625 L232.0313,405.3594 L239.1719,405.3594 L239.1719,407.0625 L236.75,407.3281 L236.75,415.5313 L239.1719,415.7969 L239.1719,417.5 L232.0313,417.5 Z " fill="#000000"/><text fill="#000000" font-family="sans-serif" font-size="14" font-style="italic" lengthAdjust="spacing" textLength="128" x="250" y="416.432">RdfIndividualService</text></g><!--MD5=[7dc79d414e644f1ba64bb65e5fd1820e]
class RdfDatasetService--><g id="elem_RdfDatasetService"><rect codeLine="83" fill="#F1F1F1" height="32" id="RdfDatasetService" rx="2.5" ry="2.5" style="stroke:#181818;stroke-width:0.5;" width="144" x="595" y="395"/><ellipse cx="610" cy="411" fill="#B4A7E5" rx="11" ry="11" style="stroke:#181818;stroke-width:1.0;"/><path d="M606.0313,417.5 L606.0313,415.7969 L608.3906,415.5313 L608.3906,407.3281 L606.0313,407.0625 L606.0313,405.3594 L613.1719,405.3594 L613.1719,407.0625 L610.75,407.3281 L610.75,415.5313 L613.1719,415.7969 L613.1719,417.5 L606.0313,417.5 Z " fill="#000000"/><text fill="#000000" font-family="sans-serif" font-size="14" font-style="italic" lengthAdjust="spacing" textLength="112" x="624" y="416.432">RdfDatasetService</text></g><!--MD5=[6f63b840f0890bc8b603a76e9264c8c7]
class SparqlRestController--><g id="elem_SparqlRestController"><rect codeLine="100" fill="#F1F1F1" height="86.1358" id="SparqlRestController" rx="2.5" ry="2.5" style="stroke:#181818;stroke-width:0.5;" width="210" x="562" y="194.5"/><ellipse cx="594.1" cy="210.5" fill="#ADD1B2" rx="11" ry="11" style="stroke:#181818;stroke-width:1.0;"/><path d="M593.5688,217.4219 Q591.8188,217.4219 590.6781,216.6875 Q589.5531,215.9375 588.9906,214.5938 Q588.4438,213.2344 588.4438,211.4375 Q588.4438,209.4063 589.1,207.9531 Q589.7563,206.5 591.0375,205.7188 Q592.3188,204.9375 594.1938,204.9375 Q595.0844,204.9375 595.7563,205.125 Q596.4281,205.2969 597.1156,205.6406 L596.3031,207.6563 Q595.6781,207.3438 595.1313,207.2188 Q594.6,207.0938 594.1156,207.0938 Q592.9438,207.0938 592.2406,207.625 Q591.5375,208.1563 591.2406,209.1094 Q590.9438,210.0625 590.9438,211.3281 Q590.9438,213.3438 591.6625,214.3125 Q592.3813,215.2656 593.975,215.2656 Q594.5688,215.2656 595.1938,215.1094 Q595.8188,214.9531 596.6469,214.5781 L596.6469,216.7969 Q595.9125,217.1094 595.1156,217.2656 Q594.3344,217.4219 593.5688,217.4219 Z " fill="#000000"/><text fill="#000000" font-family="sans-serif" font-size="14" lengthAdjust="spacing" textLength="140" x="611.9" y="215.932">SparqlRestController</text><line style="stroke:#181818;stroke-width:0.5;" x1="563" x2="771" y1="226.5" y2="226.5"/><text fill="#000000" font-family="sans-serif" font-size="14" lengthAdjust="spacing" textLength="25" x="568" y="245.4659">The</text><text fill="#000000" font-family="sans-serif" font-size="14" font-weight="bold" lengthAdjust="spacing" textLength="117" x="597" y="245.4659">SparQL endpoint</text><text fill="#000000" font-family="sans-serif" font-size="14" lengthAdjust="spacing" textLength="4" x="714" y="245.4659">,</text><text fill="#000000" font-family="sans-serif" font-size="14" lengthAdjust="spacing" textLength="198" x="568" y="264.5339">with content type negotiation</text><line style="stroke:#181818;stroke-width:1.0;" x1="563" x2="771" y1="272.6358" y2="272.6358"/><line style="stroke:#181818;stroke-width:1.0;" x1="563" x2="771" y1="274.6358" y2="274.6358"/></g><!--MD5=[92d3ed8a7f2a3914238809d87b10f650]
class OntologyRestController--><g id="elem_OntologyRestController"><rect codeLine="107" fill="#F1F1F1" height="105.2038" id="OntologyRestController" rx="2.5" ry="2.5" style="stroke:#181818;stroke-width:0.5;" width="447" x="79.5" y="185"/><ellipse cx="220.25" cy="201" fill="#ADD1B2" rx="11" ry="11" style="stroke:#181818;stroke-width:1.0;"/><path d="M219.7188,207.9219 Q217.9688,207.9219 216.8281,207.1875 Q215.7031,206.4375 215.1406,205.0938 Q214.5938,203.7344 214.5938,201.9375 Q214.5938,199.9063 215.25,198.4531 Q215.9063,197 217.1875,196.2188 Q218.4688,195.4375 220.3438,195.4375 Q221.2344,195.4375 221.9063,195.625 Q222.5781,195.7969 223.2656,196.1406 L222.4531,198.1563 Q221.8281,197.8438 221.2813,197.7188 Q220.75,197.5938 220.2656,197.5938 Q219.0938,197.5938 218.3906,198.125 Q217.6875,198.6563 217.3906,199.6094 Q217.0938,200.5625 217.0938,201.8281 Q217.0938,203.8438 217.8125,204.8125 Q218.5313,205.7656 220.125,205.7656 Q220.7188,205.7656 221.3438,205.6094 Q221.9688,205.4531 222.7969,205.0781 L222.7969,207.2969 Q222.0625,207.6094 221.2656,207.7656 Q220.4844,207.9219 219.7188,207.9219 Z " fill="#000000"/><text fill="#000000" font-family="sans-serif" font-size="14" lengthAdjust="spacing" textLength="157" x="240.75" y="206.432">OntologyRestController</text><line style="stroke:#181818;stroke-width:0.5;" x1="80.5" x2="525.5" y1="217" y2="217"/><ellipse cx="90.5" cy="232.034" fill="#000000" rx="3" ry="3" style="stroke:#000000;stroke-width:1.0;"/><text fill="#000000" font-family="sans-serif" font-size="14" font-weight="bold" lengthAdjust="spacing" textLength="156" x="99.5" y="235.9659">Expose as an ontology</text><text fill="#000000" font-family="sans-serif" font-size="14" lengthAdjust="spacing" textLength="253" x="259.5" y="235.9659">a conceptual model (e.g. used by DB);</text><ellipse cx="90.5" cy="251.1019" fill="#000000" rx="3" ry="3" style="stroke:#000000;stroke-width:1.0;"/><text fill="#000000" font-family="sans-serif" font-size="14" font-weight="bold" lengthAdjust="spacing" textLength="147" x="99.5" y="255.0339">Expose as individuals</text><text fill="#000000" font-family="sans-serif" font-size="14" lengthAdjust="spacing" textLength="270" x="250.5" y="255.0339">a DB content (e.g. referential instances);</text><ellipse cx="90.5" cy="270.1698" fill="#000000" rx="3" ry="3" style="stroke:#000000;stroke-width:1.0;"/><text fill="#000000" font-family="sans-serif" font-size="14" lengthAdjust="spacing" textLength="53" x="99.5" y="274.1018">Allow to</text><text fill="#000000" font-family="sans-serif" font-size="14" font-weight="bold" lengthAdjust="spacing" textLength="53" x="156.5" y="274.1018">convert</text><text fill="#000000" font-family="sans-serif" font-size="14" lengthAdjust="spacing" textLength="237" x="213.5" y="274.1018">any ontology to supported formats.</text><line style="stroke:#181818;stroke-width:1.0;" x1="80.5" x2="525.5" y1="282.2038" y2="282.2038"/><line style="stroke:#181818;stroke-width:1.0;" x1="80.5" x2="525.5" y1="284.2038" y2="284.2038"/></g><!--MD5=[9a4363326fae556340651b8a84bf37a0]
class VowlRestController--><g id="elem_VowlRestController"><rect codeLine="114" fill="#F1F1F1" height="67.0679" id="VowlRestController" rx="2.5" ry="2.5" style="stroke:#181818;stroke-width:0.5;" width="168" x="807" y="204"/><ellipse cx="826.05" cy="220" fill="#ADD1B2" rx="11" ry="11" style="stroke:#181818;stroke-width:1.0;"/><path d="M825.5188,226.9219 Q823.7688,226.9219 822.6281,226.1875 Q821.5031,225.4375 820.9406,224.0938 Q820.3938,222.7344 820.3938,220.9375 Q820.3938,218.9063 821.05,217.4531 Q821.7063,216 822.9875,215.2188 Q824.2688,214.4375 826.1438,214.4375 Q827.0344,214.4375 827.7063,214.625 Q828.3781,214.7969 829.0656,215.1406 L828.2531,217.1563 Q827.6281,216.8438 827.0813,216.7188 Q826.55,216.5938 826.0656,216.5938 Q824.8938,216.5938 824.1906,217.125 Q823.4875,217.6563 823.1906,218.6094 Q822.8938,219.5625 822.8938,220.8281 Q822.8938,222.8438 823.6125,223.8125 Q824.3313,224.7656 825.925,224.7656 Q826.5188,224.7656 827.1438,224.6094 Q827.7688,224.4531 828.5969,224.0781 L828.5969,226.2969 Q827.8625,226.6094 827.0656,226.7656 Q826.2844,226.9219 825.5188,226.9219 Z " fill="#000000"/><text fill="#000000" font-family="sans-serif" font-size="14" lengthAdjust="spacing" textLength="127" x="840.95" y="225.432">VowlRestController</text><line style="stroke:#181818;stroke-width:0.5;" x1="808" x2="974" y1="236" y2="236"/><text fill="#000000" font-family="sans-serif" font-size="14" lengthAdjust="spacing" textLength="156" x="813" y="254.9659">Used by WebVOWL tool</text><line style="stroke:#181818;stroke-width:1.0;" x1="808" x2="974" y1="263.0679" y2="263.0679"/><line style="stroke:#181818;stroke-width:1.0;" x1="808" x2="974" y1="265.0679" y2="265.0679"/></g><!--MD5=[e3f72718913f1e037c5bc72e44de49f6]
class client--><g id="elem_client"><rect codeLine="126" fill="#DDDDDD" height="29.0679" id="client" rx="2.5" ry="2.5" style="stroke:#181818;stroke-width:0.5;" width="129" x="602.5" y="7"/><text fill="#000000" font-family="sans-serif" font-size="14" font-style="italic" lengthAdjust="spacing" textLength="123" x="605.5" y="26.9659">Client HTTP request</text></g><!--MD5=[8719aff1ef0b40e520da9563584a32b4]
reverse link IModelVisitor to SandreEquivalences--><g id="link_IModelVisitor_SandreEquivalences"><path codeLine="51" d="M252.29,608 C257.19,608 262.08,608 266.98,608 " fill="none" id="IModelVisitor-backto-SandreEquivalences" style="stroke:#181818;stroke-width:1.0;"/><polygon fill="none" points="252.16,615,232.16,608,252.16,601,252.16,615" style="stroke:#181818;stroke-width:1.0;"/></g><!--MD5=[25d6731ebb69bc13bf50459f3a0a3e2e]
link EntitiesDao to TAXON_NAME--><g id="link_EntitiesDao_TAXON_NAME"><path codeLine="58" d="M1155,624.03 C1155,665.61 1155,783.28 1155,846.73 " fill="none" id="EntitiesDao-to-TAXON_NAME" style="stroke:#181818;stroke-width:1.0;"/><polygon fill="#181818" points="1155,851.95,1159,842.95,1155,846.95,1151,842.95,1155,851.95" style="stroke:#181818;stroke-width:1.0;"/><text fill="#000000" font-family="sans-serif" font-size="13" lengthAdjust="spacing" textLength="62" x="1164.5" y="736.897">read/write</text><text fill="#000000" font-family="sans-serif" font-size="13" lengthAdjust="spacing" textLength="79" x="1156" y="754.603">(SQL queries)</text></g><!--MD5=[66390284949d706bdc8b242e3aa9351c]
link EntitiesDao to DEPARTMENT--><g id="link_EntitiesDao_DEPARTMENT"><path codeLine="59" d="M1158.77,624.09 C1165.34,647.14 1181.12,690.84 1211,714 C1222.93,723.24 1231.56,713.45 1244,722 C1289.49,753.26 1322.46,808.86 1341.14,847.16 " fill="none" id="EntitiesDao-to-DEPARTMENT" style="stroke:#181818;stroke-width:1.0;"/><polygon fill="#181818" points="1343.35,851.74,1343.0412,841.896,1341.1771,847.2369,1335.8362,845.3727,1343.35,851.74" style="stroke:#181818;stroke-width:1.0;"/><text fill="#000000" font-family="sans-serif" font-size="13" lengthAdjust="spacing" textLength="62" x="1293.5" y="736.897">read/write</text><text fill="#000000" font-family="sans-serif" font-size="13" lengthAdjust="spacing" textLength="79" x="1285" y="754.603">(SQL queries)</text></g><!--MD5=[51747312f5cf9cdd9ea67b16a6e08422]
link MnhnTaxonLoader to INamedRdfLoader--><g id="link_MnhnTaxonLoader_INamedRdfLoader"><path codeLine="68" d="M943.75,591.63 C927.87,562.21 889.94,501.25 837.5,477.5 C770.29,447.06 738.22,446.02 671.5,477.5 C629.71,497.22 598.66,542.04 580.95,573.63 " fill="none" id="MnhnTaxonLoader-to-INamedRdfLoader" style="stroke:#0000FF;stroke-width:1.0;stroke-dasharray:1.0,3.0;"/><polygon fill="none" points="586.97,577.22,571.47,591.66,574.58,570.7,586.97,577.22" style="stroke:#0000FF;stroke-width:1.0;"/></g><!--MD5=[24e029b2dbe4c528b4b7f706231ccaa5]
reverse link INamedRdfLoader to SandreTaxonLoader--><g id="link_INamedRdfLoader_SandreTaxonLoader"><path codeLine="69" d="M657.35,608 C662.12,608 666.89,608 671.65,608 " fill="none" id="INamedRdfLoader-backto-SandreTaxonLoader" style="stroke:#0000FF;stroke-width:1.0;stroke-dasharray:1.0,3.0;"/><polygon fill="none" points="657.12,615,637.12,608,657.12,601,657.12,615" style="stroke:#0000FF;stroke-width:1.0;"/></g><!--MD5=[b43feda27a64c5b2c56b477ef93b3556]
link MnhnTaxonLoader to mnhnEndpoint--><g id="link_MnhnTaxonLoader_mnhnEndpoint"><path codeLine="71" d="M948.72,624.03 C939.16,667.81 911.19,795.98 898.02,856.35 " fill="none" id="MnhnTaxonLoader-to-mnhnEndpoint" style="stroke:#181818;stroke-width:1.0;"/><polygon fill="#181818" points="896.94,861.28,902.775,853.3457,898.011,856.3961,894.9607,851.6321,896.94,861.28" style="stroke:#181818;stroke-width:1.0;"/><text fill="#000000" font-family="sans-serif" font-size="13" lengthAdjust="spacing" textLength="27" x="963" y="736.897">read</text><text fill="#000000" font-family="sans-serif" font-size="13" lengthAdjust="spacing" textLength="99" x="927" y="754.603">(SparQL queries)</text></g><!--MD5=[5834972dfb01a7aed4b3d8b8aa54241f]
link SandreTaxonLoader to sandreEndpoint--><g id="link_SandreTaxonLoader_sandreEndpoint"><path codeLine="72" d="M749.62,624.03 C733.96,667.81 688.1,795.98 666.5,856.35 " fill="none" id="SandreTaxonLoader-to-sandreEndpoint" style="stroke:#181818;stroke-width:1.0;"/><polygon fill="#181818" points="664.74,861.28,671.5436,854.1588,666.428,856.5736,664.0133,851.458,664.74,861.28" style="stroke:#181818;stroke-width:1.0;"/><text fill="#000000" font-family="sans-serif" font-size="13" lengthAdjust="spacing" textLength="27" x="751" y="736.897">read</text><text fill="#000000" font-family="sans-serif" font-size="13" lengthAdjust="spacing" textLength="99" x="715" y="754.603">(SparQL queries)</text></g><!--MD5=[97f36465bcba2a1f483e3f42dd837119]
link RdfSchemaService to dao--><g id="link_RdfSchemaService_dao"><path codeLine="77" d="M500.86,427.09 C519.16,447.26 554.84,482.08 594,496 C610.47,501.85 1209.64,492.74 1223,504 C1231.7575,511.385 1237.3556,521.3731 1240.8189,532.2359 C1241.6847,534.9516 1242.4171,537.722 1243.0321,540.52 C1243.3396,541.9191 1243.6177,543.325 1243.8685,544.7345 C1243.9312,545.0868 1243.9922,545.4394 1244.0515,545.7922 " fill="none" id="RdfSchemaService-to-dao" style="stroke:#181818;stroke-width:1.0;"/><polygon fill="#181818" points="1244.0515,545.7922,1246.504,536.2536,1243.2225,540.8614,1238.6147,537.5799,1244.0515,545.7922" style="stroke:#181818;stroke-width:1.0;"/><text fill="#000000" font-family="sans-serif" font-size="13" lengthAdjust="spacing" textLength="21" x="595" y="482.897">use</text></g><!--MD5=[6f52cb9d0b83cae859c2c0948b11f318]
link RdfIndividualService to EntitiesDao--><g id="link_RdfIndividualService_EntitiesDao"><path codeLine="80" d="M302.6,427.28 C305.56,446.99 313.91,480.58 337,496 C353.4,506.95 1028.73,496.57 1047,504 C1088.97,521.08 1124,562.89 1141.98,587.67 " fill="none" id="RdfIndividualService-to-EntitiesDao" style="stroke:#181818;stroke-width:1.0;"/><polygon fill="#181818" points="1144.93,591.8,1142.9442,582.1534,1142.0198,587.7342,1136.439,586.8098,1144.93,591.8" style="stroke:#181818;stroke-width:1.0;"/><text fill="#000000" font-family="sans-serif" font-size="13" lengthAdjust="spacing" textLength="21" x="338" y="482.897">use</text></g><!--MD5=[4f08e17258205eec8dcbd852cb0fa8de]
link RdfDatasetService to TDB2--><g id="link_RdfDatasetService_TDB2"><path codeLine="85" d="M739.24,416.54 C877.04,426.27 1171.47,452.56 1258,504 C1384.46,579.17 1390.37,636.87 1459,767 C1472.055,791.75 1481.95,821.57 1488.6325,845.4738 C1489.4678,848.4617 1490.2529,851.3572 1490.9877,854.1389 " fill="none" id="RdfDatasetService-to-TDB2" style="stroke:#181818;stroke-width:1.0;"/><polygon fill="#181818" points="1490.9877,854.1389,1492.5564,844.4157,1489.7107,849.3047,1484.8217,846.459,1490.9877,854.1389" style="stroke:#181818;stroke-width:1.0;"/><text fill="#000000" font-family="sans-serif" font-size="13" lengthAdjust="spacing" textLength="62" x="1440.5" y="604.397">read/write</text><text fill="#000000" font-family="sans-serif" font-size="13" lengthAdjust="spacing" textLength="81" x="1431" y="622.103">(Jena queries)</text></g><!--MD5=[751dbc64bf85f4a55706dbb9dbc42ebe]
link RdfDatasetService to INamedRdfLoader--><g id="link_RdfDatasetService_INamedRdfLoader"><path codeLine="86" d="M653.3175,437.9119 C653.3175,437.9119 597.97,542.68 578.3,579.92 " fill="none" id="RdfDatasetService-INamedRdfLoader" style="stroke:#181818;stroke-width:1.0;"/><polygon fill="#181818" points="572.04,591.77,579.7792,585.6786,574.3744,587.3484,572.7046,581.9436,572.04,591.77" style="stroke:#181818;stroke-width:1.0;"/><line style="stroke:#181818;stroke-width:1.0;" x1="574.3744" x2="578.115" y1="587.3484" y2="580.275"/><polygon fill="none" points="658.92,427.3,652.5814,430.7384,653.3175,437.9119,659.656,434.4734,658.92,427.3" style="stroke:#181818;stroke-width:1.0;"/><text fill="#000000" font-family="sans-serif" font-size="13" lengthAdjust="spacing" textLength="21" x="654" y="473.897">run</text><text fill="#000000" font-family="sans-serif" font-size="13" lengthAdjust="spacing" textLength="38" x="647" y="491.603">loader</text><text fill="#000000" font-family="sans-serif" font-size="13" lengthAdjust="spacing" textLength="20" x="551.3662" y="580.2874">0..*</text></g><!--MD5=[a2be49bdcebfa94b940a5ddd49515e65]
reverse link RdfDatasetService to MnhnTaxonLoader--><g id="link_RdfDatasetService_MnhnTaxonLoader"><path codeLine="90" d="M710.71,428.99 C731.39,437.42 756.26,448.1 778,459 C813.43,476.76 823.98,479.32 855,504 C889.21,531.22 922.74,570.39 940,591.72 " fill="none" id="RdfDatasetService-backto-MnhnTaxonLoader" style="stroke:#181818;stroke-width:1.0;stroke-dasharray:7.0,7.0;"/><polygon fill="#181818" points="705.82,427.01,712.6644,434.0919,710.4554,428.8842,715.6632,426.6752,705.82,427.01" style="stroke:#181818;stroke-width:1.0;"/><text fill="#000000" font-family="sans-serif" font-size="13" lengthAdjust="spacing" textLength="46" x="845" y="473.897">register</text><text fill="#000000" font-family="sans-serif" font-size="13" lengthAdjust="spacing" textLength="24" x="856" y="491.603">into</text></g><!--MD5=[787c1339ac460a65cdafc2ceb1a5da35]
reverse link RdfDatasetService to SandreTaxonLoader--><g id="link_RdfDatasetService_SandreTaxonLoader"><path codeLine="91" d="M684.89,430.94 C691.88,439.1 699.52,449.04 705,459 C729.96,504.39 745.51,564.43 751.79,592 " fill="none" id="RdfDatasetService-backto-SandreTaxonLoader" style="stroke:#181818;stroke-width:1.0;stroke-dasharray:7.0,7.0;"/><polygon fill="#181818" points="681.52,427.09,684.4337,436.498,684.8115,430.8538,690.4557,431.2316,681.52,427.09" style="stroke:#181818;stroke-width:1.0;"/><text fill="#000000" font-family="sans-serif" font-size="13" lengthAdjust="spacing" textLength="46" x="723" y="473.897">register</text><text fill="#000000" font-family="sans-serif" font-size="13" lengthAdjust="spacing" textLength="24" x="734" y="491.603">into</text></g><!--MD5=[4d9d9d2a48b5b0f4493d544919978345]
link RdfIndividualService to IModelVisitor--><g id="link_RdfIndividualService_IModelVisitor"><path codeLine="92" d="M208.956,419.9308 C208.956,419.9308 159.53,438.85 144,459 C127.35,480.6 123.64,509.71 125,536.4 " fill="none" id="RdfIndividualService-IModelVisitor" style="stroke:#181818;stroke-width:1.0;"/><polygon fill="#181818" points="126.09,549.67,129.3449,540.3745,125.6834,544.6866,121.3714,541.0251,126.09,549.67" style="stroke:#181818;stroke-width:1.0;"/><line style="stroke:#181818;stroke-width:1.0;" x1="125.6834" x2="125.025" y1="544.6866" y2="536.71"/><polygon fill="none" points="220.61,417.07,213.8294,414.6157,208.956,419.9308,215.7366,422.3851,220.61,417.07" style="stroke:#181818;stroke-width:1.0;"/><text fill="#000000" font-family="sans-serif" font-size="13" lengthAdjust="spacing" textLength="24" x="162" y="473.897">visit</text><text fill="#000000" font-family="sans-serif" font-size="13" lengthAdjust="spacing" textLength="58" x="145" y="491.603">individual</text><text fill="#000000" font-family="sans-serif" font-size="13" lengthAdjust="spacing" textLength="20" x="103.1547" y="538.0322">0..*</text></g><!--MD5=[205e09a8bed4e0d8410282cb16af0345]
reverse link RdfIndividualService to IModelVisitor--><g id="link_RdfIndividualService_IModelVisitor"><path codeLine="95" d="M278.88,430.78 C269.59,439.07 258.9,449.15 250,459 C224.27,487.48 198.37,521.62 178.07,549.93 " fill="none" id="RdfIndividualService-backto-IModelVisitor" style="stroke:#181818;stroke-width:1.0;stroke-dasharray:7.0,7.0;"/><polygon fill="#181818" points="282.77,427.34,273.3683,430.2739,279.0133,430.6396,278.6476,436.2846,282.77,427.34" style="stroke:#181818;stroke-width:1.0;"/><text fill="#000000" font-family="sans-serif" font-size="13" lengthAdjust="spacing" textLength="46" x="251" y="473.897">register</text><text fill="#000000" font-family="sans-serif" font-size="13" lengthAdjust="spacing" textLength="24" x="262" y="491.603">into</text></g><!--MD5=[09ee6204132cbdadd6b777a0416d1f88]
link RdfSchemaService to IModelVisitor--><g id="link_RdfSchemaService_IModelVisitor"><path codeLine="93" d="M446.2327,432.7861 C446.2327,432.7861 417.31,449.64 405,459 C386.49,473.08 389.17,486.38 368,496 C319.74,517.92 297.62,482.88 249,504 C229.33,512.55 210.97,526.18 195.11,540.77 " fill="none" id="RdfSchemaService-IModelVisitor" style="stroke:#181818;stroke-width:1.0;"/><polygon fill="#181818" points="185.57,549.94,194.8345,546.598,189.1789,546.4794,189.2976,540.8238,185.57,549.94" style="stroke:#181818;stroke-width:1.0;"/><line style="stroke:#181818;stroke-width:1.0;" x1="189.1789" x2="194.94" y1="546.4794" y2="540.935"/><polygon fill="none" points="456.8,427.1,449.621,426.4206,446.2327,432.7861,453.4117,433.4655,456.8,427.1" style="stroke:#181818;stroke-width:1.0;"/><text fill="#000000" font-family="sans-serif" font-size="13" lengthAdjust="spacing" textLength="24" x="413" y="473.897">visit</text><text fill="#000000" font-family="sans-serif" font-size="13" lengthAdjust="spacing" textLength="38" x="406" y="491.603">model</text><text fill="#000000" font-family="sans-serif" font-size="13" lengthAdjust="spacing" textLength="20" x="170.2555" y="538.3368">0..*</text></g><!--MD5=[a76a84e0b6435586b4d6240a3ff225e7]
reverse link RdfSchemaService to IModelVisitor--><g id="link_RdfSchemaService_IModelVisitor"><path codeLine="94" d="M484.74,432.32 C480.37,452.25 470.49,481.67 449,496 C430.5,508.34 269.52,495.42 249,504 C224.99,514.05 203.02,531.84 185.14,549.85 " fill="none" id="RdfSchemaService-backto-IModelVisitor" style="stroke:#181818;stroke-width:1.0;stroke-dasharray:7.0,7.0;"/><polygon fill="#181818" points="485.79,427.22,480.0711,435.2384,484.7902,432.119,487.9096,436.8381,485.79,427.22" style="stroke:#181818;stroke-width:1.0;"/><text fill="#000000" font-family="sans-serif" font-size="13" lengthAdjust="spacing" textLength="46" x="477" y="473.897">register</text><text fill="#000000" font-family="sans-serif" font-size="13" lengthAdjust="spacing" textLength="24" x="488" y="491.603">into</text></g><!--MD5=[2c447d842e8a6ac941444000903761b1]
link SparqlRestController to RdfDatasetService--><g id="link_SparqlRestController_RdfDatasetService"><path codeLine="119" d="M667,280.89 C667,315.49 667,362.85 667,389.54 " fill="none" id="SparqlRestController-to-RdfDatasetService" style="stroke:#181818;stroke-width:1.0;"/><polygon fill="#181818" points="667,394.6,671,385.6,667,389.6,663,385.6,667,394.6" style="stroke:#181818;stroke-width:1.0;"/><text fill="#000000" font-family="sans-serif" font-size="13" lengthAdjust="spacing" textLength="21" x="668" y="336.897">use</text></g><!--MD5=[405bee1f0232ea94a1c03b912fb8a4e6]
link OntologyRestController to RdfSchemaService--><g id="link_OntologyRestController_RdfSchemaService"><path codeLine="120" d="M358.76,290.19 C395.67,324.41 441.9,367.26 467.87,391.34 " fill="none" id="OntologyRestController-to-RdfSchemaService" style="stroke:#181818;stroke-width:1.0;"/><polygon fill="#181818" points="471.55,394.75,467.6645,385.7,467.8815,391.3527,462.2288,391.5696,471.55,394.75" style="stroke:#181818;stroke-width:1.0;"/><text fill="#000000" font-family="sans-serif" font-size="13" lengthAdjust="spacing" textLength="21" x="414" y="336.897">use</text></g><!--MD5=[1864ab3992eb594ecfc6288bc4fd30af]
link OntologyRestController to RdfIndividualService--><g id="link_OntologyRestController_RdfIndividualService"><path codeLine="121" d="M302.39,290.42 C302.01,323.78 301.52,365.28 301.24,389.59 " fill="none" id="OntologyRestController-to-RdfIndividualService" style="stroke:#181818;stroke-width:1.0;"/><polygon fill="#181818" points="301.18,394.8,305.2826,385.8463,301.2371,389.8003,297.2831,385.7549,301.18,394.8" style="stroke:#181818;stroke-width:1.0;"/><text fill="#000000" font-family="sans-serif" font-size="13" lengthAdjust="spacing" textLength="21" x="303" y="336.897">use</text></g><!--MD5=[7d342f3d60bb3b86aa87f1e92cd12fa5]
link client to SparqlRestController--><g id="link_client_SparqlRestController"><path codeLine="129" d="M667,36.21 C667,66.47 667,140.18 667,189.23 " fill="none" id="client-to-SparqlRestController" style="stroke:#181818;stroke-width:1.0;"/><polygon fill="#181818" points="667,194.5,671,185.5,667,189.5,663,185.5,667,194.5" style="stroke:#181818;stroke-width:1.0;"/><text fill="#000000" font-family="sans-serif" font-size="13" lengthAdjust="spacing" textLength="42" x="668" y="80.897">/sparql</text></g><!--MD5=[28bb93ae150793ee1f57ceb605089134]
link client to VowlRestController--><g id="link_client_VowlRestController"><path codeLine="130" d="M698.47,36.05 C724.64,48.34 761.86,68.3 789,93 C823.04,123.98 852.33,168.17 870.68,199.31 " fill="none" id="client-to-VowlRestController" style="stroke:#181818;stroke-width:1.0;"/><polygon fill="#181818" points="873.3,203.8,872.2001,194.0127,870.7718,199.4863,865.2982,198.0579,873.3,203.8" style="stroke:#181818;stroke-width:1.0;"/><text fill="#000000" font-family="sans-serif" font-size="13" lengthAdjust="spacing" textLength="51" x="779" y="80.897">/webowl</text></g><!--MD5=[7dd039dbaee800c6c2d28aae5bf1c2fa]
link client to OntologyRestController--><g id="link_client_OntologyRestController"><path codeLine="131" d="M642.89,36.16 C618.04,50.28 578.22,73.01 544,93 C494,122.21 438.45,155.25 393.3,182.25 " fill="none" id="client-to-OntologyRestController" style="stroke:#181818;stroke-width:1.0;"/><polygon fill="#181818" points="388.96,184.85,398.7354,183.6495,393.2475,182.2775,394.6195,176.7896,388.96,184.85" style="stroke:#181818;stroke-width:1.0;"/><text fill="#000000" font-family="sans-serif" font-size="13" lengthAdjust="spacing" textLength="60" x="589" y="80.897">/ontology</text></g></g></svg>