<?xml version="1.0" encoding="UTF-8" standalone="no"?><svg xmlns="http://www.w3.org/2000/svg" xmlns:xlink="http://www.w3.org/1999/xlink" contentStyleType="text/css" height="902px" preserveAspectRatio="none" style="width:1729px;height:902px;background:#FFFFFF;" version="1.1" viewBox="0 0 1729 902" width="1729px" zoomAndPan="magnify"><defs/><g><!--MD5=[e169ac431914a6adb8cf110c9da1459f]
cluster DB--><g id="cluster_DB"><path d="M1079,761 C1079,751 1294,751 1294,751 C1294,751 1509,751 1509,761 L1509,874 C1509,884 1294,884 1294,884 C1294,884 1079,884 1079,874 L1079,761 " fill="#ADD8E6" style="stroke:#181818;stroke-width:1.0;"/><path d="M1079,761 C1079,771 1294,771 1294,771 C1294,771 1509,771 1509,761 " fill="none" style="stroke:#181818;stroke-width:1.0;"/><text fill="#000000" font-family="sans-serif" font-size="14" font-weight="bold" lengthAdjust="spacing" textLength="21" x="1283.5" y="785.9951">DB</text></g><!--MD5=[86eb43b373e365272b9cfd3b4e10ebdd]
cluster TDB2--><g id="cluster_TDB2"><polygon fill="#ADD8E6" points="1541,769.5,1551,759.5,1712,759.5,1712,875.5,1702,885.5,1541,885.5,1541,769.5" style="stroke:#181818;stroke-width:1.0;"/><line style="stroke:#181818;stroke-width:1.0;" x1="1702" x2="1712" y1="769.5" y2="759.5"/><line style="stroke:#181818;stroke-width:1.0;" x1="1541" x2="1702" y1="769.5" y2="769.5"/><line style="stroke:#181818;stroke-width:1.0;" x1="1702" x2="1702" y1="769.5" y2="885.5"/><text fill="#000000" font-family="sans-serif" font-size="14" font-weight="bold" lengthAdjust="spacing" textLength="41" x="1602" y="785.4951">TDB2</text></g><!--MD5=[91f8e3379e109545daa90049ee0f0502]
cluster net.sumaris.core.rdf--><g id="cluster_net.sumaris.core.rdf"><path d="M8.5,96 L171.5,96 A3.75,3.75 0 0 1 174,98.5 L181,118.2969 L1313.5,118.2969 A2.5,2.5 0 0 1 1316,120.7969 L1316,660.5 A2.5,2.5 0 0 1 1313.5,663 L8.5,663 A2.5,2.5 0 0 1 6,660.5 L6,98.5 A2.5,2.5 0 0 1 8.5,96 " fill="none" style="stroke:#000000;stroke-width:1.5;"/><line style="stroke:#000000;stroke-width:1.5;" x1="6" x2="181" y1="118.2969" y2="118.2969"/><text fill="#000000" font-family="sans-serif" font-size="14" font-weight="bold" lengthAdjust="spacing" textLength="162" x="10" y="110.9951">net.sumaris.core.rdf</text></g><!--MD5=[a0bb257923b4feabbc8c8a837db65c88]
cluster adapter--><g id="cluster_adapter"><path d="M32.5,483 L94.5,483 A3.75,3.75 0 0 1 97,485.5 L104,505.2969 L458.5,505.2969 A2.5,2.5 0 0 1 461,507.7969 L461,636.5 A2.5,2.5 0 0 1 458.5,639 L32.5,639 A2.5,2.5 0 0 1 30,636.5 L30,485.5 A2.5,2.5 0 0 1 32.5,483 " fill="none" style="stroke:#000000;stroke-width:1.5;"/><line style="stroke:#000000;stroke-width:1.5;" x1="30" x2="104" y1="505.2969" y2="505.2969"/><text fill="#000000" font-family="sans-serif" font-size="14" font-weight="bold" lengthAdjust="spacing" textLength="61" x="34" y="497.9951">adapter</text></g><!--MD5=[5622bc4ba3bf2be5d17935065b98c5f9]
cluster dao--><g id="cluster_dao"><path d="M1109.5,511.5 L1139.5,511.5 A3.75,3.75 0 0 1 1142,514 L1149,533.7969 L1281.5,533.7969 A2.5,2.5 0 0 1 1284,536.2969 L1284,608 A2.5,2.5 0 0 1 1281.5,610.5 L1109.5,610.5 A2.5,2.5 0 0 1 1107,608 L1107,514 A2.5,2.5 0 0 1 1109.5,511.5 " fill="none" style="stroke:#000000;stroke-width:1.5;"/><line style="stroke:#000000;stroke-width:1.5;" x1="1107" x2="1149" y1="533.7969" y2="533.7969"/><text fill="#000000" font-family="sans-serif" font-size="14" font-weight="bold" lengthAdjust="spacing" textLength="29" x="1111" y="526.4951">dao</text></g><!--MD5=[3059eaac1fd4f9745a2d6cfe842c4363]
cluster loader--><g id="cluster_loader"><path d="M487.5,519.5 L538.5,519.5 A3.75,3.75 0 0 1 541,522 L548,541.7969 L1072.5,541.7969 A2.5,2.5 0 0 1 1075,544.2969 L1075,600 A2.5,2.5 0 0 1 1072.5,602.5 L487.5,602.5 A2.5,2.5 0 0 1 485,600 L485,522 A2.5,2.5 0 0 1 487.5,519.5 " fill="none" style="stroke:#000000;stroke-width:1.5;"/><line style="stroke:#000000;stroke-width:1.5;" x1="485" x2="548" y1="541.7969" y2="541.7969"/><text fill="#000000" font-family="sans-serif" font-size="14" font-weight="bold" lengthAdjust="spacing" textLength="50" x="489" y="534.4951">loader</text></g><!--MD5=[7579d5565d2521d5936cec86ed3dadee]
cluster service--><g id="cluster_service"><path d="M199.5,336 L258.5,336 A3.75,3.75 0 0 1 261,338.5 L268,358.2969 L789.5,358.2969 A2.5,2.5 0 0 1 792,360.7969 L792,416.5 A2.5,2.5 0 0 1 789.5,419 L199.5,419 A2.5,2.5 0 0 1 197,416.5 L197,338.5 A2.5,2.5 0 0 1 199.5,336 " fill="none" style="stroke:#000000;stroke-width:1.5;"/><line style="stroke:#000000;stroke-width:1.5;" x1="197" x2="268" y1="358.2969" y2="358.2969"/><text fill="#000000" font-family="sans-serif" font-size="14" font-weight="bold" lengthAdjust="spacing" textLength="58" x="201" y="350.9951">service</text></g><!--MD5=[08cfbaecb6317b1e15f6360cd8b42728]
cluster http--><g id="cluster_http"><path d="M63.5,139 L96.5,139 A3.75,3.75 0 0 1 99,141.5 L106,161.2969 L1026.5,161.2969 A2.5,2.5 0 0 1 1029,163.7969 L1029,284.5 A2.5,2.5 0 0 1 1026.5,287 L63.5,287 A2.5,2.5 0 0 1 61,284.5 L61,141.5 A2.5,2.5 0 0 1 63.5,139 " fill="none" style="stroke:#000000;stroke-width:1.5;"/><line style="stroke:#000000;stroke-width:1.5;" x1="61" x2="106" y1="161.2969" y2="161.2969"/><text fill="#000000" font-family="sans-serif" font-size="14" font-weight="bold" lengthAdjust="spacing" textLength="32" x="65" y="153.9951">http</text></g><!--MD5=[4d41f1abba492608ed37615c799725da]
class TAXON_NAME--><g id="elem_TAXON_NAME"><rect codeLine="5" fill="#EEEEEE" height="66.8906" id="TAXON_NAME" rx="2.5" ry="2.5" style="stroke:#181818;stroke-width:0.5;" width="181" x="1095.5" y="801"/><text fill="#000000" font-family="sans-serif" font-size="14" lengthAdjust="spacing" textLength="95" x="1138.5" y="818.9951">TAXON_NAME</text><line style="stroke:#181818;stroke-width:0.5;" x1="1096.5" x2="1275.5" y1="827.2969" y2="827.2969"/><ellipse cx="1106.5" cy="840.9453" fill="#84BE84" rx="3" ry="3" style="stroke:#038048;stroke-width:1.0;"/><text fill="#000000" font-family="sans-serif" font-size="14" lengthAdjust="spacing" textLength="112" x="1115.5" y="844.292">ID: NUMBER(10)</text><ellipse cx="1106.5" cy="857.2422" fill="#84BE84" rx="3" ry="3" style="stroke:#038048;stroke-width:1.0;"/><text fill="#000000" font-family="sans-serif" font-size="14" lengthAdjust="spacing" textLength="155" x="1115.5" y="860.5889">LABEL: VARCHAR2(40)</text></g><!--MD5=[6eacbabadde1abc100c0f356c7aca141]
class DEPARTMENT--><g id="elem_DEPARTMENT"><rect codeLine="9" fill="#EEEEEE" height="66.8906" id="DEPARTMENT" rx="2.5" ry="2.5" style="stroke:#181818;stroke-width:0.5;" width="181" x="1311.5" y="801"/><text fill="#000000" font-family="sans-serif" font-size="14" lengthAdjust="spacing" textLength="97" x="1353.5" y="818.9951">DEPARTMENT</text><line style="stroke:#181818;stroke-width:0.5;" x1="1312.5" x2="1491.5" y1="827.2969" y2="827.2969"/><ellipse cx="1322.5" cy="840.9453" fill="#84BE84" rx="3" ry="3" style="stroke:#038048;stroke-width:1.0;"/><text fill="#000000" font-family="sans-serif" font-size="14" lengthAdjust="spacing" textLength="112" x="1331.5" y="844.292">ID: NUMBER(10)</text><ellipse cx="1322.5" cy="857.2422" fill="#84BE84" rx="3" ry="3" style="stroke:#038048;stroke-width:1.0;"/><text fill="#000000" font-family="sans-serif" font-size="14" lengthAdjust="spacing" textLength="155" x="1331.5" y="860.5889">LABEL: VARCHAR2(40)</text></g><!--MD5=[906a6be943483496c7fd98dd250272af]
entity TDB2 Files--><g id="elem_TDB2 Files"><path d="M1586.5,807.5 L1627.5,807.5 A3.75,3.75 0 0 1 1630,810 L1637,828.5 L1685.5,828.5 A2.5,2.5 0 0 1 1688,831 L1688,859.2969 A2.5,2.5 0 0 1 1685.5,861.7969 L1586.5,861.7969 A2.5,2.5 0 0 1 1584,859.2969 L1584,810 A2.5,2.5 0 0 1 1586.5,807.5 " fill="#EEEEEE" style="stroke:#181818;stroke-width:0.5;"/><line style="stroke:#181818;stroke-width:0.5;" x1="1584" x2="1637" y1="828.5" y2="828.5"/><text fill="#000000" font-family="sans-serif" font-size="14" lengthAdjust="spacing" textLength="74" x="1594" y="848.4951">TDB2 Files</text></g><!--MD5=[3213c23e2038f4b82898501eced730b5]
class sandreEndpoint--><g id="elem_sandreEndpoint"><rect codeLine="27" fill="#EEEEEE" height="50.5938" id="sandreEndpoint" rx="2.5" ry="2.5" style="stroke:#181818;stroke-width:0.5;" width="200" x="582" y="809"/><text fill="#000000" font-family="sans-serif" font-size="14" font-style="italic" lengthAdjust="spacing" textLength="49" x="657.5" y="826.9951">Sandre</text><line style="stroke:#181818;stroke-width:0.5;" x1="583" x2="781" y1="835.2969" y2="835.2969"/><text fill="#000000" font-family="sans-serif" font-size="14" lengthAdjust="spacing" textLength="188" x="588" y="852.292">http://id.eaufrance.fr/sparql</text></g><!--MD5=[c19a38ddba5cd503f519c12959da925e]
class mnhnEndpoint--><g id="elem_mnhnEndpoint"><rect codeLine="32" fill="#EEEEEE" height="50.5938" id="mnhnEndpoint" rx="2.5" ry="2.5" style="stroke:#181818;stroke-width:0.5;" width="197" x="817.5" y="809"/><text fill="#000000" font-family="sans-serif" font-size="14" font-style="italic" lengthAdjust="spacing" textLength="45" x="893.5" y="826.9951">MNHN</text><line style="stroke:#181818;stroke-width:0.5;" x1="818.5" x2="1013.5" y1="835.2969" y2="835.2969"/><text fill="#000000" font-family="sans-serif" font-size="14" lengthAdjust="spacing" textLength="185" x="823.5" y="852.292">http://taxref.mnhn.fr/sparql</text></g><!--MD5=[3c133e0f62115f2f76c7e5fbda3512ed]
class IModelVisitor--><g id="elem_IModelVisitor"><rect codeLine="42" fill="#F1F1F1" height="105.1875" id="IModelVisitor" rx="2.5" ry="2.5" style="stroke:#181818;stroke-width:0.5;" width="191" x="46.5" y="518"/><ellipse cx="93.75" cy="534" fill="#B4A7E5" rx="11" ry="11" style="stroke:#181818;stroke-width:1.0;"/><path d="M89.6719,529.7656 L89.6719,527.6094 L97.0625,527.6094 L97.0625,529.7656 L94.5938,529.7656 L94.5938,537.8438 L97.0625,537.8438 L97.0625,540 L89.6719,540 L89.6719,537.8438 L92.1406,537.8438 L92.1406,529.7656 L89.6719,529.7656 Z " fill="#000000"/><text fill="#000000" font-family="sans-serif" font-size="14" font-style="italic" lengthAdjust="spacing" textLength="88" x="114.25" y="538.8467">IModelVisitor</text><line style="stroke:#181818;stroke-width:0.5;" x1="47.5" x2="236.5" y1="550" y2="550"/><ellipse cx="57.5" cy="563.6484" fill="#84BE84" rx="3" ry="3" style="stroke:#038048;stroke-width:1.0;"/><text fill="#000000" font-family="sans-serif" font-size="14" lengthAdjust="spacing" textLength="165" x="66.5" y="566.9951">accept(model): boolean</text><ellipse cx="57.5" cy="579.9453" fill="#84BE84" rx="3" ry="3" style="stroke:#038048;stroke-width:1.0;"/><text fill="#000000" font-family="sans-serif" font-size="14" lengthAdjust="spacing" textLength="121" x="66.5" y="583.292">visitModel(model)</text><ellipse cx="57.5" cy="596.2422" fill="#84BE84" rx="3" ry="3" style="stroke:#038048;stroke-width:1.0;"/><text fill="#000000" font-family="sans-serif" font-size="14" lengthAdjust="spacing" textLength="108" x="66.5" y="599.5889">visitClass(class)</text><ellipse cx="57.5" cy="612.5391" fill="#84BE84" rx="3" ry="3" style="stroke:#038048;stroke-width:1.0;"/><text fill="#000000" font-family="sans-serif" font-size="14" lengthAdjust="spacing" textLength="158" x="66.5" y="615.8857">visitIndividual(instance)</text></g><!--MD5=[2ab373531aa1dd6b9e1243d20d42a431]
class SandreEquivalences--><g id="elem_SandreEquivalences"><rect codeLine="49" fill="#F1F1F1" height="32" id="SandreEquivalences" rx="2.5" ry="2.5" style="stroke:#181818;stroke-width:0.5;" width="172" x="273" y="554.5"/><ellipse cx="288" cy="570.5" fill="#ADD1B2" rx="11" ry="11" style="stroke:#181818;stroke-width:1.0;"/><path d="M290.9688,576.1406 Q290.3906,576.4375 289.75,576.5781 Q289.1094,576.7344 288.4063,576.7344 Q285.9063,576.7344 284.5781,575.0938 Q283.2656,573.4375 283.2656,570.3125 Q283.2656,567.1875 284.5781,565.5313 Q285.9063,563.875 288.4063,563.875 Q289.1094,563.875 289.75,564.0313 Q290.4063,564.1875 290.9688,564.4844 L290.9688,567.2031 Q290.3438,566.625 289.75,566.3594 Q289.1563,566.0781 288.5313,566.0781 Q287.1875,566.0781 286.5,567.1563 Q285.8125,568.2188 285.8125,570.3125 Q285.8125,572.4063 286.5,573.4844 Q287.1875,574.5469 288.5313,574.5469 Q289.1563,574.5469 289.75,574.2813 Q290.3438,574 290.9688,573.4219 L290.9688,576.1406 Z " fill="#000000"/><text fill="#000000" font-family="sans-serif" font-size="14" lengthAdjust="spacing" textLength="140" x="302" y="575.3467">SandreEquivalences</text></g><!--MD5=[bb010123520b19152a07ab04ae8b97a5]
class EntitiesDao--><g id="elem_EntitiesDao"><rect codeLine="56" fill="#F1F1F1" height="32" id="EntitiesDao" rx="2.5" ry="2.5" style="stroke:#181818;stroke-width:0.5;" width="110" x="1131" y="554.5"/><ellipse cx="1146" cy="570.5" fill="#B4A7E5" rx="11" ry="11" style="stroke:#181818;stroke-width:1.0;"/><path d="M1141.9219,566.2656 L1141.9219,564.1094 L1149.3125,564.1094 L1149.3125,566.2656 L1146.8438,566.2656 L1146.8438,574.3438 L1149.3125,574.3438 L1149.3125,576.5 L1141.9219,576.5 L1141.9219,574.3438 L1144.3906,574.3438 L1144.3906,566.2656 L1141.9219,566.2656 Z " fill="#000000"/><text fill="#000000" font-family="sans-serif" font-size="14" font-style="italic" lengthAdjust="spacing" textLength="78" x="1160" y="575.3467">EntitiesDao</text></g><!--MD5=[f61d3063ea9136e30a52f590a9569ffc]
class INamedRdfLoader--><g id="elem_INamedRdfLoader"><rect codeLine="63" fill="#F1F1F1" height="32" id="INamedRdfLoader" rx="2.5" ry="2.5" style="stroke:#181818;stroke-width:0.5;" width="157" x="501.5" y="554.5"/><ellipse cx="516.5" cy="570.5" fill="#B4A7E5" rx="11" ry="11" style="stroke:#181818;stroke-width:1.0;"/><path d="M512.4219,566.2656 L512.4219,564.1094 L519.8125,564.1094 L519.8125,566.2656 L517.3438,566.2656 L517.3438,574.3438 L519.8125,574.3438 L519.8125,576.5 L512.4219,576.5 L512.4219,574.3438 L514.8906,574.3438 L514.8906,566.2656 L512.4219,566.2656 Z " fill="#000000"/><text fill="#000000" font-family="sans-serif" font-size="14" font-style="italic" lengthAdjust="spacing" textLength="125" x="530.5" y="575.3467">INamedRdfLoader</text></g><!--MD5=[2072805062a46ce2246650514629f3cb]
class MnhnTaxonLoader--><g id="elem_MnhnTaxonLoader"><rect codeLine="65" fill="#F1F1F1" height="32" id="MnhnTaxonLoader" rx="2.5" ry="2.5" style="stroke:#181818;stroke-width:0.5;" width="160" x="899" y="554.5"/><ellipse cx="914" cy="570.5" fill="#ADD1B2" rx="11" ry="11" style="stroke:#181818;stroke-width:1.0;"/><path d="M916.9688,576.1406 Q916.3906,576.4375 915.75,576.5781 Q915.1094,576.7344 914.4063,576.7344 Q911.9063,576.7344 910.5781,575.0938 Q909.2656,573.4375 909.2656,570.3125 Q909.2656,567.1875 910.5781,565.5313 Q911.9063,563.875 914.4063,563.875 Q915.1094,563.875 915.75,564.0313 Q916.4063,564.1875 916.9688,564.4844 L916.9688,567.2031 Q916.3438,566.625 915.75,566.3594 Q915.1563,566.0781 914.5313,566.0781 Q913.1875,566.0781 912.5,567.1563 Q911.8125,568.2188 911.8125,570.3125 Q911.8125,572.4063 912.5,573.4844 Q913.1875,574.5469 914.5313,574.5469 Q915.1563,574.5469 915.75,574.2813 Q916.3438,574 916.9688,573.4219 L916.9688,576.1406 Z " fill="#000000"/><text fill="#000000" font-family="sans-serif" font-size="14" lengthAdjust="spacing" textLength="128" x="928" y="575.3467">MnhnTaxonLoader</text></g><!--MD5=[faf0cc5dd7c20f0136e29a2c00ca3a05]
class SandreTaxonLoader--><g id="elem_SandreTaxonLoader"><rect codeLine="66" fill="#F1F1F1" height="32" id="SandreTaxonLoader" rx="2.5" ry="2.5" style="stroke:#181818;stroke-width:0.5;" width="170" x="694" y="554.5"/><ellipse cx="709" cy="570.5" fill="#ADD1B2" rx="11" ry="11" style="stroke:#181818;stroke-width:1.0;"/><path d="M711.9688,576.1406 Q711.3906,576.4375 710.75,576.5781 Q710.1094,576.7344 709.4063,576.7344 Q706.9063,576.7344 705.5781,575.0938 Q704.2656,573.4375 704.2656,570.3125 Q704.2656,567.1875 705.5781,565.5313 Q706.9063,563.875 709.4063,563.875 Q710.1094,563.875 710.75,564.0313 Q711.4063,564.1875 711.9688,564.4844 L711.9688,567.2031 Q711.3438,566.625 710.75,566.3594 Q710.1563,566.0781 709.5313,566.0781 Q708.1875,566.0781 707.5,567.1563 Q706.8125,568.2188 706.8125,570.3125 Q706.8125,572.4063 707.5,573.4844 Q708.1875,574.5469 709.5313,574.5469 Q710.1563,574.5469 710.75,574.2813 Q711.3438,574 711.9688,573.4219 L711.9688,576.1406 Z " fill="#000000"/><text fill="#000000" font-family="sans-serif" font-size="14" lengthAdjust="spacing" textLength="138" x="723" y="575.3467">SandreTaxonLoader</text></g><!--MD5=[6d087d2b8c69f4352d73fe107933ad37]
class RdfSchemaService--><g id="elem_RdfSchemaService"><rect codeLine="76" fill="#F1F1F1" height="32" id="RdfSchemaService" rx="2.5" ry="2.5" style="stroke:#181818;stroke-width:0.5;" width="162" x="420" y="371"/><ellipse cx="435" cy="387" fill="#B4A7E5" rx="11" ry="11" style="stroke:#181818;stroke-width:1.0;"/><path d="M430.9219,382.7656 L430.9219,380.6094 L438.3125,380.6094 L438.3125,382.7656 L435.8438,382.7656 L435.8438,390.8438 L438.3125,390.8438 L438.3125,393 L430.9219,393 L430.9219,390.8438 L433.3906,390.8438 L433.3906,382.7656 L430.9219,382.7656 Z " fill="#000000"/><text fill="#000000" font-family="sans-serif" font-size="14" font-style="italic" lengthAdjust="spacing" textLength="130" x="449" y="391.8467">RdfSchemaService</text></g><!--MD5=[91d23243c85188b9819904c2388d3a6a]
class RdfIndividualService--><g id="elem_RdfIndividualService"><rect codeLine="79" fill="#F1F1F1" height="32" id="RdfIndividualService" rx="2.5" ry="2.5" style="stroke:#181818;stroke-width:0.5;" width="171" x="213.5" y="371"/><ellipse cx="228.5" cy="387" fill="#B4A7E5" rx="11" ry="11" style="stroke:#181818;stroke-width:1.0;"/><path d="M224.4219,382.7656 L224.4219,380.6094 L231.8125,380.6094 L231.8125,382.7656 L229.3438,382.7656 L229.3438,390.8438 L231.8125,390.8438 L231.8125,393 L224.4219,393 L224.4219,390.8438 L226.8906,390.8438 L226.8906,382.7656 L224.4219,382.7656 Z " fill="#000000"/><text fill="#000000" font-family="sans-serif" font-size="14" font-style="italic" lengthAdjust="spacing" textLength="139" x="242.5" y="391.8467">RdfIndividualService</text></g><!--MD5=[7dc79d414e644f1ba64bb65e5fd1820e]
class RdfDatasetService--><g id="elem_RdfDatasetService"><rect codeLine="83" fill="#F1F1F1" height="32" id="RdfDatasetService" rx="2.5" ry="2.5" style="stroke:#181818;stroke-width:0.5;" width="159" x="617.5" y="371"/><ellipse cx="632.5" cy="387" fill="#B4A7E5" rx="11" ry="11" style="stroke:#181818;stroke-width:1.0;"/><path d="M628.4219,382.7656 L628.4219,380.6094 L635.8125,380.6094 L635.8125,382.7656 L633.3438,382.7656 L633.3438,390.8438 L635.8125,390.8438 L635.8125,393 L628.4219,393 L628.4219,390.8438 L630.8906,390.8438 L630.8906,382.7656 L628.4219,382.7656 Z " fill="#000000"/><text fill="#000000" font-family="sans-serif" font-size="14" font-style="italic" lengthAdjust="spacing" textLength="127" x="646.5" y="391.8467">RdfDatasetService</text></g><!--MD5=[6f63b840f0890bc8b603a76e9264c8c7]
class SparqlRestController--><g id="elem_SparqlRestController"><rect codeLine="100" fill="#F1F1F1" height="80.5938" id="SparqlRestController" rx="2.5" ry="2.5" style="stroke:#181818;stroke-width:0.5;" width="214" x="590" y="182"/><ellipse cx="623" cy="198" fill="#ADD1B2" rx="11" ry="11" style="stroke:#181818;stroke-width:1.0;"/><path d="M625.9688,203.6406 Q625.3906,203.9375 624.75,204.0781 Q624.1094,204.2344 623.4063,204.2344 Q620.9063,204.2344 619.5781,202.5938 Q618.2656,200.9375 618.2656,197.8125 Q618.2656,194.6875 619.5781,193.0313 Q620.9063,191.375 623.4063,191.375 Q624.1094,191.375 624.75,191.5313 Q625.4063,191.6875 625.9688,191.9844 L625.9688,194.7031 Q625.3438,194.125 624.75,193.8594 Q624.1563,193.5781 623.5313,193.5781 Q622.1875,193.5781 621.5,194.6563 Q620.8125,195.7188 620.8125,197.8125 Q620.8125,199.9063 621.5,200.9844 Q622.1875,202.0469 623.5313,202.0469 Q624.1563,202.0469 624.75,201.7813 Q625.3438,201.5 625.9688,200.9219 L625.9688,203.6406 Z " fill="#000000"/><text fill="#000000" font-family="sans-serif" font-size="14" lengthAdjust="spacing" textLength="142" x="641" y="202.8467">SparqlRestController</text><line style="stroke:#181818;stroke-width:0.5;" x1="591" x2="803" y1="214" y2="214"/><text fill="#000000" font-family="sans-serif" font-size="14" lengthAdjust="spacing" textLength="27" x="596" y="230.9951">The</text><text fill="#000000" font-family="sans-serif" font-size="14" font-weight="bold" lengthAdjust="spacing" textLength="132" x="627" y="230.9951">SparQL endpoint</text><text fill="#000000" font-family="sans-serif" font-size="14" lengthAdjust="spacing" textLength="4" x="759" y="230.9951">,</text><text fill="#000000" font-family="sans-serif" font-size="14" lengthAdjust="spacing" textLength="202" x="596" y="247.292">with content type negotiation</text><line style="stroke:#181818;stroke-width:1.0;" x1="591" x2="803" y1="254.5938" y2="254.5938"/><line style="stroke:#181818;stroke-width:1.0;" x1="591" x2="803" y1="256.5938" y2="256.5938"/></g><!--MD5=[92d3ed8a7f2a3914238809d87b10f650]
class OntologyRestController--><g id="elem_OntologyRestController"><rect codeLine="107" fill="#F1F1F1" height="96.8906" id="OntologyRestController" rx="2.5" ry="2.5" style="stroke:#181818;stroke-width:0.5;" width="478" x="77" y="174"/><ellipse cx="231.25" cy="190" fill="#ADD1B2" rx="11" ry="11" style="stroke:#181818;stroke-width:1.0;"/><path d="M234.2188,195.6406 Q233.6406,195.9375 233,196.0781 Q232.3594,196.2344 231.6563,196.2344 Q229.1563,196.2344 227.8281,194.5938 Q226.5156,192.9375 226.5156,189.8125 Q226.5156,186.6875 227.8281,185.0313 Q229.1563,183.375 231.6563,183.375 Q232.3594,183.375 233,183.5313 Q233.6563,183.6875 234.2188,183.9844 L234.2188,186.7031 Q233.5938,186.125 233,185.8594 Q232.4063,185.5781 231.7813,185.5781 Q230.4375,185.5781 229.75,186.6563 Q229.0625,187.7188 229.0625,189.8125 Q229.0625,191.9063 229.75,192.9844 Q230.4375,194.0469 231.7813,194.0469 Q232.4063,194.0469 233,193.7813 Q233.5938,193.5 234.2188,192.9219 L234.2188,195.6406 Z " fill="#000000"/><text fill="#000000" font-family="sans-serif" font-size="14" lengthAdjust="spacing" textLength="161" x="251.75" y="194.8467">OntologyRestController</text><line style="stroke:#181818;stroke-width:0.5;" x1="78" x2="554" y1="206" y2="206"/><ellipse cx="88" cy="219.6484" fill="#000000" rx="3" ry="3" style="stroke:#000000;stroke-width:1.0;"/><text fill="#000000" font-family="sans-serif" font-size="14" font-weight="bold" lengthAdjust="spacing" textLength="178" x="97" y="222.9951">Expose as an ontology</text><text fill="#000000" font-family="sans-serif" font-size="14" lengthAdjust="spacing" textLength="265" x="279" y="222.9951">a conceptual model (e.g. used by DB);</text><ellipse cx="88" cy="235.9453" fill="#000000" rx="3" ry="3" style="stroke:#000000;stroke-width:1.0;"/><text fill="#000000" font-family="sans-serif" font-size="14" font-weight="bold" lengthAdjust="spacing" textLength="168" x="97" y="239.292">Expose as individuals</text><text fill="#000000" font-family="sans-serif" font-size="14" lengthAdjust="spacing" textLength="280" x="269" y="239.292">a DB content (e.g. referential instances);</text><ellipse cx="88" cy="252.2422" fill="#000000" rx="3" ry="3" style="stroke:#000000;stroke-width:1.0;"/><text fill="#000000" font-family="sans-serif" font-size="14" lengthAdjust="spacing" textLength="53" x="97" y="255.5889">Allow to</text><text fill="#000000" font-family="sans-serif" font-size="14" font-weight="bold" lengthAdjust="spacing" textLength="61" x="154" y="255.5889">convert</text><text fill="#000000" font-family="sans-serif" font-size="14" lengthAdjust="spacing" textLength="242" x="219" y="255.5889">any ontology to supported formats.</text><line style="stroke:#181818;stroke-width:1.0;" x1="78" x2="554" y1="262.8906" y2="262.8906"/><line style="stroke:#181818;stroke-width:1.0;" x1="78" x2="554" y1="264.8906" y2="264.8906"/></g><!--MD5=[9a4363326fae556340651b8a84bf37a0]
class VowlRestController--><g id="elem_VowlRestController"><rect codeLine="114" fill="#F1F1F1" height="64.2969" id="VowlRestController" rx="2.5" ry="2.5" style="stroke:#181818;stroke-width:0.5;" width="173" x="839.5" y="190.5"/><ellipse cx="859" cy="206.5" fill="#ADD1B2" rx="11" ry="11" style="stroke:#181818;stroke-width:1.0;"/><path d="M861.9688,212.1406 Q861.3906,212.4375 860.75,212.5781 Q860.1094,212.7344 859.4063,212.7344 Q856.9063,212.7344 855.5781,211.0938 Q854.2656,209.4375 854.2656,206.3125 Q854.2656,203.1875 855.5781,201.5313 Q856.9063,199.875 859.4063,199.875 Q860.1094,199.875 860.75,200.0313 Q861.4063,200.1875 861.9688,200.4844 L861.9688,203.2031 Q861.3438,202.625 860.75,202.3594 Q860.1563,202.0781 859.5313,202.0781 Q858.1875,202.0781 857.5,203.1563 Q856.8125,204.2188 856.8125,206.3125 Q856.8125,208.4063 857.5,209.4844 Q858.1875,210.5469 859.5313,210.5469 Q860.1563,210.5469 860.75,210.2813 Q861.3438,210 861.9688,209.4219 L861.9688,212.1406 Z " fill="#000000"/><text fill="#000000" font-family="sans-serif" font-size="14" lengthAdjust="spacing" textLength="131" x="874" y="211.3467">VowlRestController</text><line style="stroke:#181818;stroke-width:0.5;" x1="840.5" x2="1011.5" y1="222.5" y2="222.5"/><text fill="#000000" font-family="sans-serif" font-size="14" lengthAdjust="spacing" textLength="161" x="845.5" y="239.4951">Used by WebVOWL tool</text><line style="stroke:#181818;stroke-width:1.0;" x1="840.5" x2="1011.5" y1="246.7969" y2="246.7969"/><line style="stroke:#181818;stroke-width:1.0;" x1="840.5" x2="1011.5" y1="248.7969" y2="248.7969"/></g><!--MD5=[e3f72718913f1e037c5bc72e44de49f6]
class client--><g id="elem_client"><rect codeLine="126" fill="#DDDDDD" height="26.2969" id="client" rx="2.5" ry="2.5" style="stroke:#181818;stroke-width:0.5;" width="143" x="625.5" y="7"/><text fill="#000000" font-family="sans-serif" font-size="14" font-style="italic" lengthAdjust="spacing" textLength="137" x="628.5" y="24.9951">Client HTTP request</text></g><!--MD5=[8719aff1ef0b40e520da9563584a32b4]
reverse link IModelVisitor to SandreEquivalences--><g id="link_IModelVisitor_SandreEquivalences"><path codeLine="51" d="M258.04,570.5 C262.97,570.5 267.9,570.5 272.82,570.5 " fill="none" id="IModelVisitor-backto-SandreEquivalences" style="stroke:#181818;stroke-width:1.0;"/><polygon fill="none" points="257.79,577.5,237.79,570.5,257.79,563.5,257.79,577.5" style="stroke:#181818;stroke-width:1.0;"/></g><!--MD5=[25d6731ebb69bc13bf50459f3a0a3e2e]
link EntitiesDao to TAXON_NAME--><g id="link_EntitiesDao_TAXON_NAME"><path codeLine="58" d="M1186,586.72 C1186,626.9 1186,736.75 1186,795.41 " fill="none" id="EntitiesDao-to-TAXON_NAME" style="stroke:#181818;stroke-width:1.0;"/><polygon fill="#181818" points="1186,800.57,1190,791.57,1186,795.57,1182,791.57,1186,800.57" style="stroke:#181818;stroke-width:1.0;"/><text fill="#000000" font-family="sans-serif" font-size="13" lengthAdjust="spacing" textLength="63" x="1199" y="692.0669">read/write</text><text fill="#000000" font-family="sans-serif" font-size="13" lengthAdjust="spacing" textLength="87" x="1187" y="707.1997">(SQL queries)</text></g><!--MD5=[66390284949d706bdc8b242e3aa9351c]
link EntitiesDao to DEPARTMENT--><g id="link_EntitiesDao_DEPARTMENT"><path codeLine="59" d="M1190.62,586.67 C1198.19,608.86 1215.45,649.83 1245,671 C1259.03,681.05 1268.39,669.82 1283,679 C1328.54,707.62 1363.39,760.22 1383.28,796.01 " fill="none" id="EntitiesDao-to-DEPARTMENT" style="stroke:#181818;stroke-width:1.0;"/><polygon fill="#181818" points="1385.86,800.73,1385.0239,790.9167,1383.4488,796.3498,1378.0156,794.7747,1385.86,800.73" style="stroke:#181818;stroke-width:1.0;"/><text fill="#000000" font-family="sans-serif" font-size="13" lengthAdjust="spacing" textLength="63" x="1332" y="692.0669">read/write</text><text fill="#000000" font-family="sans-serif" font-size="13" lengthAdjust="spacing" textLength="87" x="1320" y="707.1997">(SQL queries)</text></g><!--MD5=[51747312f5cf9cdd9ea67b16a6e08422]
link MnhnTaxonLoader to INamedRdfLoader--><g id="link_MnhnTaxonLoader_INamedRdfLoader"><path codeLine="68" d="M969.45,554.17 C952.32,526.7 913.44,472.18 863.5,451 C793.94,421.49 762.93,421.19 693.5,451 C652.95,468.41 620.07,508.21 600.33,537.11 " fill="none" id="MnhnTaxonLoader-to-INamedRdfLoader" style="stroke:#0000FF;stroke-width:1.0;stroke-dasharray:1.0,3.0;"/><polygon fill="none" points="606.04,541.17,589.31,554.18,594.28,533.58,606.04,541.17" style="stroke:#0000FF;stroke-width:1.0;"/></g><!--MD5=[24e029b2dbe4c528b4b7f706231ccaa5]
reverse link INamedRdfLoader to SandreTaxonLoader--><g id="link_INamedRdfLoader_SandreTaxonLoader"><path codeLine="69" d="M678.64,570.5 C683.7,570.5 688.76,570.5 693.81,570.5 " fill="none" id="INamedRdfLoader-backto-SandreTaxonLoader" style="stroke:#0000FF;stroke-width:1.0;stroke-dasharray:1.0,3.0;"/><polygon fill="none" points="678.51,577.5,658.51,570.5,678.51,563.5,678.51,577.5" style="stroke:#0000FF;stroke-width:1.0;"/></g><!--MD5=[b43feda27a64c5b2c56b477ef93b3556]
link MnhnTaxonLoader to mnhnEndpoint--><g id="link_MnhnTaxonLoader_mnhnEndpoint"><path codeLine="71" d="M975.34,586.72 C965.19,628.91 936.57,747.94 923.14,803.83 " fill="none" id="MnhnTaxonLoader-to-mnhnEndpoint" style="stroke:#181818;stroke-width:1.0;"/><polygon fill="#181818" points="921.96,808.71,927.9586,800.8987,923.1323,803.8494,920.1816,799.023,921.96,808.71" style="stroke:#181818;stroke-width:1.0;"/><text fill="#000000" font-family="sans-serif" font-size="13" lengthAdjust="spacing" textLength="29" x="993.5" y="692.0669">read</text><text fill="#000000" font-family="sans-serif" font-size="13" lengthAdjust="spacing" textLength="108" x="954" y="707.1997">(SparQL queries)</text></g><!--MD5=[5834972dfb01a7aed4b3d8b8aa54241f]
link SandreTaxonLoader to sandreEndpoint--><g id="link_SandreTaxonLoader_sandreEndpoint"><path codeLine="72" d="M773.37,586.72 C757.74,628.91 713.68,747.94 692.99,803.83 " fill="none" id="SandreTaxonLoader-to-sandreEndpoint" style="stroke:#181818;stroke-width:1.0;"/><polygon fill="#181818" points="691.18,808.71,698.0596,801.6622,692.9184,804.0219,690.5587,798.8808,691.18,808.71" style="stroke:#181818;stroke-width:1.0;"/><text fill="#000000" font-family="sans-serif" font-size="13" lengthAdjust="spacing" textLength="29" x="780.5" y="692.0669">read</text><text fill="#000000" font-family="sans-serif" font-size="13" lengthAdjust="spacing" textLength="108" x="741" y="707.1997">(SparQL queries)</text></g><!--MD5=[97f36465bcba2a1f483e3f42dd837119]
link RdfSchemaService to dao--><g id="link_RdfSchemaService_dao"><path codeLine="77" d="M516.47,403.2 C537.14,422.34 575.83,454.26 616,467 C632.97,472.38 1243.29,463.63 1257,475 C1265.115,481.73 1270.3869,490.8706 1273.7234,500.8278 C1274.5576,503.3171 1275.2708,505.8574 1275.8772,508.4239 C1276.0288,509.0655 1276.1737,509.7088 1276.3122,510.3533 C1276.3814,510.6755 1276.449,510.9981 1276.5151,511.3209 " fill="none" id="RdfSchemaService-to-dao" style="stroke:#181818;stroke-width:1.0;"/><polygon fill="#181818" points="1276.5151,511.3209,1278.6301,501.7018,1275.513,506.4223,1270.7924,503.3052,1276.5151,511.3209" style="stroke:#181818;stroke-width:1.0;"/><text fill="#000000" font-family="sans-serif" font-size="13" lengthAdjust="spacing" textLength="23" x="617" y="455.5669">use</text></g><!--MD5=[6f52cb9d0b83cae859c2c0948b11f318]
link RdfIndividualService to EntitiesDao--><g id="link_RdfIndividualService_EntitiesDao"><path codeLine="80" d="M303.07,403.18 C309.02,421.99 322.08,453.22 346,467 C381.1,487.21 1037.07,460.8 1075,475 C1115.61,490.2 1151.58,527.38 1170.93,550.32 " fill="none" id="RdfIndividualService-to-EntitiesDao" style="stroke:#181818;stroke-width:1.0;"/><polygon fill="#181818" points="1174.35,554.42,1171.6647,544.9443,1171.1505,550.5777,1165.517,550.0635,1174.35,554.42" style="stroke:#181818;stroke-width:1.0;"/><text fill="#000000" font-family="sans-serif" font-size="13" lengthAdjust="spacing" textLength="23" x="347" y="455.5669">use</text></g><!--MD5=[4f08e17258205eec8dcbd852cb0fa8de]
link RdfDatasetService to TDB2--><g id="link_RdfDatasetService_TDB2"><path codeLine="85" d="M776.73,392.9 C917.73,402.67 1204.48,427.8 1292,475 C1419.74,543.88 1435.45,593.89 1509,719 C1522.445,741.87 1532.345,769.965 1538.9325,792.6012 C1539.3442,794.016 1539.743,795.4095 1540.1289,796.779 C1540.3218,797.4637 1540.5116,798.1425 1540.6981,798.815 C1540.7913,799.1512 1540.8838,799.4858 1540.9754,799.8189 " fill="none" id="RdfDatasetService-to-TDB2" style="stroke:#181818;stroke-width:1.0;"/><polygon fill="#181818" points="1540.9754,799.8189,1542.4441,790.0801,1539.6488,794.9981,1534.7308,792.2028,1540.9754,799.8189" style="stroke:#181818;stroke-width:1.0;"/><text fill="#000000" font-family="sans-serif" font-size="13" lengthAdjust="spacing" textLength="63" x="1493.5" y="567.5669">read/write</text><text fill="#000000" font-family="sans-serif" font-size="13" lengthAdjust="spacing" textLength="88" x="1481" y="582.6997">(Jena queries)</text></g><!--MD5=[751dbc64bf85f4a55706dbb9dbc42ebe]
link RdfDatasetService to INamedRdfLoader--><g id="link_RdfDatasetService_INamedRdfLoader"><path codeLine="86" d="M680.7296,413.2469 C680.7296,413.2469 619.16,508.76 596.94,543.22 " fill="none" id="RdfDatasetService-INamedRdfLoader" style="stroke:#181818;stroke-width:1.0;"/><polygon fill="#181818" points="589.83,554.25,598.0676,548.8517,592.5385,550.0471,591.343,544.5181,589.83,554.25" style="stroke:#181818;stroke-width:1.0;"/><line style="stroke:#181818;stroke-width:1.0;" x1="592.5385" x2="596.875" y1="550.0471" y2="543.325"/><polygon fill="none" points="687.23,403.16,680.6175,406.0366,680.7296,413.2469,687.3421,410.3702,687.23,403.16" style="stroke:#181818;stroke-width:1.0;"/><text fill="#000000" font-family="sans-serif" font-size="13" lengthAdjust="spacing" textLength="21" x="678.5" y="448.0669">run</text><text fill="#000000" font-family="sans-serif" font-size="13" lengthAdjust="spacing" textLength="40" x="671" y="463.1997">loader</text><text fill="#000000" font-family="sans-serif" font-size="13" lengthAdjust="spacing" textLength="23" x="566.2768" y="543.4717">0..*</text></g><!--MD5=[a2be49bdcebfa94b940a5ddd49515e65]
reverse link RdfDatasetService to MnhnTaxonLoader--><g id="link_RdfDatasetService_MnhnTaxonLoader"><path codeLine="90" d="M743.96,404.93 C765.63,413.24 791.48,423.84 814,435 C845.07,450.4 853.45,453.94 881,475 C913.67,499.98 947.2,534.66 965.33,554.31 " fill="none" id="RdfDatasetService-backto-MnhnTaxonLoader" style="stroke:#181818;stroke-width:1.0;stroke-dasharray:7.0,7.0;"/><polygon fill="#181818" points="739.12,403.09,746.117,410.0212,743.7952,404.8628,748.9535,402.541,739.12,403.09" style="stroke:#181818;stroke-width:1.0;"/><text fill="#000000" font-family="sans-serif" font-size="13" lengthAdjust="spacing" textLength="49" x="871" y="448.0669">register</text><text fill="#000000" font-family="sans-serif" font-size="13" lengthAdjust="spacing" textLength="24" x="883.5" y="463.1997">into</text></g><!--MD5=[787c1339ac460a65cdafc2ceb1a5da35]
reverse link RdfDatasetService to SandreTaxonLoader--><g id="link_RdfDatasetService_SandreTaxonLoader"><path codeLine="91" d="M717.95,406.84 C725.81,414.86 734.23,424.72 740,435 C762.26,474.64 772.81,528.14 776.88,554.09 " fill="none" id="RdfDatasetService-backto-SandreTaxonLoader" style="stroke:#181818;stroke-width:1.0;stroke-dasharray:7.0,7.0;"/><polygon fill="#181818" points="714.15,403.06,717.7041,412.2452,717.6927,406.5884,723.3495,406.577,714.15,403.06" style="stroke:#181818;stroke-width:1.0;"/><text fill="#000000" font-family="sans-serif" font-size="13" lengthAdjust="spacing" textLength="49" x="756" y="448.0669">register</text><text fill="#000000" font-family="sans-serif" font-size="13" lengthAdjust="spacing" textLength="24" x="768.5" y="463.1997">into</text></g><!--MD5=[4d9d9d2a48b5b0f4493d544919978345]
link RdfIndividualService to IModelVisitor--><g id="link_RdfIndividualService_IModelVisitor"><path codeLine="92" d="M201.9558,401.3447 C201.9558,401.3447 164.39,419.3 152,435 C136.71,454.39 132.32,480.63 132.44,504.79 " fill="none" id="RdfIndividualService-IModelVisitor" style="stroke:#181818;stroke-width:1.0;"/><polygon fill="#181818" points="132.94,517.94,136.6012,508.7969,132.7533,512.9435,128.6068,509.0956,132.94,517.94" style="stroke:#181818;stroke-width:1.0;"/><line style="stroke:#181818;stroke-width:1.0;" x1="132.7533" x2="132.45" y1="512.9435" y2="504.95"/><polygon fill="none" points="213.34,397.55,206.383,395.6526,201.9558,401.3447,208.9128,403.2421,213.34,397.55" style="stroke:#181818;stroke-width:1.0;"/><text fill="#000000" font-family="sans-serif" font-size="13" lengthAdjust="spacing" textLength="25" x="170" y="448.0669">visit</text><text fill="#000000" font-family="sans-serif" font-size="13" lengthAdjust="spacing" textLength="59" x="153" y="463.1997">individual</text><text fill="#000000" font-family="sans-serif" font-size="13" lengthAdjust="spacing" textLength="23" x="107.1773" y="506.9327">0..*</text></g><!--MD5=[205e09a8bed4e0d8410282cb16af0345]
reverse link RdfIndividualService to IModelVisitor--><g id="link_RdfIndividualService_IModelVisitor"><path codeLine="95" d="M281.68,407.19 C274.07,415.67 265.05,425.8 257,435 C233.24,462.18 207.07,492.74 185.7,517.86 " fill="none" id="RdfIndividualService-backto-IModelVisitor" style="stroke:#181818;stroke-width:1.0;stroke-dasharray:7.0,7.0;"/><polygon fill="#181818" points="285.3,403.17,276.3224,407.2201,281.9702,406.8999,282.2903,412.5477,285.3,403.17" style="stroke:#181818;stroke-width:1.0;"/><text fill="#000000" font-family="sans-serif" font-size="13" lengthAdjust="spacing" textLength="49" x="258" y="448.0669">register</text><text fill="#000000" font-family="sans-serif" font-size="13" lengthAdjust="spacing" textLength="24" x="270.5" y="463.1997">into</text></g><!--MD5=[09ee6204132cbdadd6b777a0416d1f88]
link RdfSchemaService to IModelVisitor--><g id="link_RdfSchemaService_IModelVisitor"><path codeLine="93" d="M459.5865,408.6783 C459.5865,408.6783 429.26,425.75 416,435 C398.17,447.44 399.12,458.76 379,467 C327.89,487.93 306.28,454.49 255,475 C235.24,482.9 216.38,495.66 199.93,509.27 " fill="none" id="RdfSchemaService-IModelVisitor" style="stroke:#181818;stroke-width:1.0;"/><polygon fill="#181818" points="190.01,517.82,199.4384,514.9729,193.797,514.5552,194.2147,508.9138,190.01,517.82" style="stroke:#181818;stroke-width:1.0;"/><line style="stroke:#181818;stroke-width:1.0;" x1="193.797" x2="199.86" y1="514.5552" y2="509.335"/><polygon fill="none" points="470.19,403.06,463.0155,402.3346,459.5865,408.6783,466.761,409.4037,470.19,403.06" style="stroke:#181818;stroke-width:1.0;"/><text fill="#000000" font-family="sans-serif" font-size="13" lengthAdjust="spacing" textLength="25" x="424.5" y="448.0669">visit</text><text fill="#000000" font-family="sans-serif" font-size="13" lengthAdjust="spacing" textLength="40" x="417" y="463.1997">model</text><text fill="#000000" font-family="sans-serif" font-size="13" lengthAdjust="spacing" textLength="23" x="171.916" y="506.7965">0..*</text></g><!--MD5=[a76a84e0b6435586b4d6240a3ff225e7]
reverse link RdfSchemaService to IModelVisitor--><g id="link_RdfSchemaService_IModelVisitor"><path codeLine="94" d="M497.07,408.36 C492.28,427.1 482.17,453.91 462,467 C442.69,479.53 276.48,466.73 255,475 C230.78,484.33 208,501.11 189.33,517.98 " fill="none" id="RdfSchemaService-backto-IModelVisitor" style="stroke:#181818;stroke-width:1.0;stroke-dasharray:7.0,7.0;"/><polygon fill="#181818" points="498.29,403.31,492.2914,411.1213,497.1177,408.1706,500.0684,412.997,498.29,403.31" style="stroke:#181818;stroke-width:1.0;"/><text fill="#000000" font-family="sans-serif" font-size="13" lengthAdjust="spacing" textLength="49" x="489" y="448.0669">register</text><text fill="#000000" font-family="sans-serif" font-size="13" lengthAdjust="spacing" textLength="24" x="501.5" y="463.1997">into</text></g><!--MD5=[2c447d842e8a6ac941444000903761b1]
link SparqlRestController to RdfDatasetService--><g id="link_SparqlRestController_RdfDatasetService"><path codeLine="119" d="M697,263.25 C697,295.71 697,340.24 697,365.78 " fill="none" id="SparqlRestController-to-RdfDatasetService" style="stroke:#181818;stroke-width:1.0;"/><polygon fill="#181818" points="697,370.93,701,361.93,697,365.93,693,361.93,697,370.93" style="stroke:#181818;stroke-width:1.0;"/><text fill="#000000" font-family="sans-serif" font-size="13" lengthAdjust="spacing" textLength="23" x="698" y="316.0669">use</text></g><!--MD5=[405bee1f0232ea94a1c03b912fb8a4e6]
link OntologyRestController to RdfSchemaService--><g id="link_OntologyRestController_RdfSchemaService"><path codeLine="120" d="M370.51,271.38 C407.13,303.55 453.37,344.16 479.82,367.4 " fill="none" id="OntologyRestController-to-RdfSchemaService" style="stroke:#181818;stroke-width:1.0;"/><polygon fill="#181818" points="483.9,370.98,479.7776,362.0354,480.1433,367.6804,474.4983,368.0461,483.9,370.98" style="stroke:#181818;stroke-width:1.0;"/><text fill="#000000" font-family="sans-serif" font-size="13" lengthAdjust="spacing" textLength="23" x="427" y="316.0669">use</text></g><!--MD5=[1864ab3992eb594ecfc6288bc4fd30af]
link OntologyRestController to RdfIndividualService--><g id="link_OntologyRestController_RdfIndividualService"><path codeLine="121" d="M310.99,271.38 C307.7,302.88 303.55,342.5 301.1,365.94 " fill="none" id="OntologyRestController-to-RdfIndividualService" style="stroke:#181818;stroke-width:1.0;"/><polygon fill="#181818" points="300.57,370.98,305.4991,362.4533,301.0986,366.008,297.544,361.6075,300.57,370.98" style="stroke:#181818;stroke-width:1.0;"/><text fill="#000000" font-family="sans-serif" font-size="13" lengthAdjust="spacing" textLength="23" x="309" y="316.0669">use</text></g><!--MD5=[7d342f3d60bb3b86aa87f1e92cd12fa5]
link client to SparqlRestController--><g id="link_client_SparqlRestController"><path codeLine="129" d="M697,33.24 C697,61.08 697,130.29 697,176.58 " fill="none" id="client-to-SparqlRestController" style="stroke:#181818;stroke-width:1.0;"/><polygon fill="#181818" points="697,181.82,701,172.82,697,176.82,693,172.82,697,181.82" style="stroke:#181818;stroke-width:1.0;"/><text fill="#000000" font-family="sans-serif" font-size="13" lengthAdjust="spacing" textLength="43" x="698" y="76.0669">/sparql</text></g><!--MD5=[28bb93ae150793ee1f57ceb605089134]
link client to VowlRestController--><g id="link_client_VowlRestController"><path codeLine="130" d="M727.16,33.1 C753.66,44.66 792.36,63.89 821,88 C854.75,116.42 884.92,157.23 904.17,186.23 " fill="none" id="client-to-VowlRestController" style="stroke:#181818;stroke-width:1.0;"/><polygon fill="#181818" points="906.92,190.42,905.3328,180.6999,904.1795,186.2379,898.6415,185.0846,906.92,190.42" style="stroke:#181818;stroke-width:1.0;"/><text fill="#000000" font-family="sans-serif" font-size="13" lengthAdjust="spacing" textLength="49" x="811" y="76.0669">/webowl</text></g><!--MD5=[7dd039dbaee800c6c2d28aae5bf1c2fa]
link client to OntologyRestController--><g id="link_client_OntologyRestController"><path codeLine="131" d="M674.02,33.09 C623.21,59.83 498.84,125.28 411.01,171.5 " fill="none" id="client-to-OntologyRestController" style="stroke:#181818;stroke-width:1.0;"/><polygon fill="#181818" points="406.33,173.97,416.1575,173.3219,410.7555,171.643,412.4344,166.241,406.33,173.97" style="stroke:#181818;stroke-width:1.0;"/><text fill="#000000" font-family="sans-serif" font-size="13" lengthAdjust="spacing" textLength="59" x="616" y="76.0669">/ontology</text></g></g></svg>