<?xml version="1.0" encoding="UTF-8" standalone="no"?><svg xmlns="http://www.w3.org/2000/svg" xmlns:xlink="http://www.w3.org/1999/xlink" contentScriptType="application/ecmascript" contentStyleType="text/css" height="882px" preserveAspectRatio="none" style="width:1350px;height:882px;" version="1.1" viewBox="0 0 1350 882" width="1350px" zoomAndPan="magnify"><defs><filter height="300%" id="fdxnf13xjhatx" width="300%" x="-1" y="-1"><feGaussianBlur result="blurOut" stdDeviation="2.0"/><feColorMatrix in="blurOut" result="blurOut2" type="matrix" values="0 0 0 0 0 0 0 0 0 0 0 0 0 0 0 0 0 0 .4 0"/><feOffset dx="4.0" dy="4.0" in="blurOut2" result="blurOut3"/><feBlend in="SourceGraphic" in2="blurOut3" mode="normal"/></filter></defs><g><!--MD5=[e169ac431914a6adb8cf110c9da1459f]
cluster DB--><path d="M807,772 C807,762 980.5,762 980.5,762 C980.5,762 1154,762 1154,772 L1154,860 C1154,870 980.5,870 980.5,870 C980.5,870 807,870 807,860 L807,772 " fill="#ADD8E6" filter="url(#fdxnf13xjhatx)" style="stroke: #000000; stroke-width: 1.5;"/><path d="M807,772 C807,782 980.5,782 980.5,782 C980.5,782 1154,782 1154,772 " fill="none" style="stroke: #000000; stroke-width: 1.5;"/><text fill="#000000" font-family="sans-serif" font-size="14" font-weight="bold" lengthAdjust="spacingAndGlyphs" textLength="21" x="970" y="796.9951">DB</text><!--MD5=[86eb43b373e365272b9cfd3b4e10ebdd]
cluster TDB2--><polygon fill="#ADD8E6" filter="url(#fdxnf13xjhatx)" points="1173,783,1183,773,1328,773,1328,859,1318,869,1173,869,1173,783" style="stroke: #000000; stroke-width: 1.5;"/><line style="stroke: #000000; stroke-width: 1.5;" x1="1318" x2="1327" y1="783" y2="774"/><line style="stroke: #000000; stroke-width: 1.5;" x1="1173" x2="1318" y1="783" y2="783"/><line style="stroke: #000000; stroke-width: 1.5;" x1="1318" x2="1318" y1="783" y2="869"/><text fill="#000000" font-family="sans-serif" font-size="14" font-weight="bold" lengthAdjust="spacingAndGlyphs" textLength="41" x="1226" y="798.9951">TDB2</text><!--MD5=[91f8e3379e109545daa90049ee0f0502]
cluster net.sumaris.core.rdf--><polygon fill="#FFFFFF" filter="url(#fdxnf13xjhatx)" points="14,87,182,87,189,109.2969,1126,109.2969,1126,700,14,700,14,87" style="stroke: #000000; stroke-width: 1.5;"/><line style="stroke: #000000; stroke-width: 1.5;" x1="14" x2="189" y1="109.2969" y2="109.2969"/><text fill="#000000" font-family="sans-serif" font-size="14" font-weight="bold" lengthAdjust="spacingAndGlyphs" textLength="162" x="18" y="101.9951">net.sumaris.core.rdf</text><!--MD5=[a0bb257923b4feabbc8c8a837db65c88]
cluster adapter--><polygon fill="#FFFFFF" filter="url(#fdxnf13xjhatx)" points="22,566,89,566,96,588.2969,390,588.2969,390,692,22,692,22,566" style="stroke: #000000; stroke-width: 1.5;"/><line style="stroke: #000000; stroke-width: 1.5;" x1="22" x2="96" y1="588.2969" y2="588.2969"/><text fill="#000000" font-family="sans-serif" font-size="14" font-weight="bold" lengthAdjust="spacingAndGlyphs" textLength="61" x="26" y="580.9951">adapter</text><!--MD5=[5622bc4ba3bf2be5d17935065b98c5f9]
cluster dao--><polygon fill="#FFFFFF" filter="url(#fdxnf13xjhatx)" points="963,595.5,998,595.5,1005,617.7969,1118,617.7969,1118,662.5,963,662.5,963,595.5" style="stroke: #000000; stroke-width: 1.5;"/><line style="stroke: #000000; stroke-width: 1.5;" x1="963" x2="1005" y1="617.7969" y2="617.7969"/><text fill="#000000" font-family="sans-serif" font-size="14" font-weight="bold" lengthAdjust="spacingAndGlyphs" textLength="29" x="967" y="610.4951">dao</text><!--MD5=[3059eaac1fd4f9745a2d6cfe842c4363]
cluster loader--><polygon fill="#FFFFFF" filter="url(#fdxnf13xjhatx)" points="410,595.5,466,595.5,473,617.7969,944,617.7969,944,662.5,410,662.5,410,595.5" style="stroke: #000000; stroke-width: 1.5;"/><line style="stroke: #000000; stroke-width: 1.5;" x1="410" x2="473" y1="617.7969" y2="617.7969"/><text fill="#000000" font-family="sans-serif" font-size="14" font-weight="bold" lengthAdjust="spacingAndGlyphs" textLength="50" x="414" y="610.4951">loader</text><!--MD5=[7579d5565d2521d5936cec86ed3dadee]
cluster service--><polygon fill="#FFFFFF" filter="url(#fdxnf13xjhatx)" points="262,344,326,344,333,366.2969,798,366.2969,798,411,262,411,262,344" style="stroke: #000000; stroke-width: 1.5;"/><line style="stroke: #000000; stroke-width: 1.5;" x1="262" x2="333" y1="366.2969" y2="366.2969"/><text fill="#000000" font-family="sans-serif" font-size="14" font-weight="bold" lengthAdjust="spacingAndGlyphs" textLength="58" x="266" y="358.9951">service</text><!--MD5=[08cfbaecb6317b1e15f6360cd8b42728]
cluster http--><polygon fill="#FFFFFF" filter="url(#fdxnf13xjhatx)" points="403,114,441,114,448,136.2969,989,136.2969,989,235,403,235,403,114" style="stroke: #000000; stroke-width: 1.5;"/><line style="stroke: #000000; stroke-width: 1.5;" x1="403" x2="448" y1="136.2969" y2="136.2969"/><text fill="#000000" font-family="sans-serif" font-size="14" font-weight="bold" lengthAdjust="spacingAndGlyphs" textLength="32" x="407" y="128.9951">http</text><!--MD5=[4d41f1abba492608ed37615c799725da]
class TAXON_NAME--><rect fill="#EEEEEE" filter="url(#fdxnf13xjhatx)" height="57.5781" id="TAXON_NAME" style="stroke: #A80036; stroke-width: 1.5;" width="148" x="998" y="804"/><rect fill="#EEEEEE" height="23.9688" style="stroke: #A80036; stroke-width: 1.5;" width="148" x="998" y="804"/><text fill="#000000" font-family="sans-serif" font-size="12" lengthAdjust="spacingAndGlyphs" textLength="81" x="1031.5" y="820.1387">TAXON_NAME</text><line style="stroke: #A80036; stroke-width: 1.5;" x1="999" x2="1145" y1="827.9688" y2="827.9688"/><ellipse cx="1009" cy="838.9688" fill="#84BE84" rx="3" ry="3" style="stroke: #038048; stroke-width: 1.0;"/><text fill="#000000" font-family="sans-serif" font-size="11" lengthAdjust="spacingAndGlyphs" textLength="88" x="1018" y="842.1792">ID: NUMBER(10)</text><ellipse cx="1009" cy="851.7734" fill="#84BE84" rx="3" ry="3" style="stroke: #038048; stroke-width: 1.0;"/><text fill="#000000" font-family="sans-serif" font-size="11" lengthAdjust="spacingAndGlyphs" textLength="122" x="1018" y="854.9839">LABEL: VARCHAR2(40)</text><!--MD5=[6eacbabadde1abc100c0f356c7aca141]
class DEPARTMENT--><rect fill="#EEEEEE" filter="url(#fdxnf13xjhatx)" height="57.5781" id="DEPARTMENT" style="stroke: #A80036; stroke-width: 1.5;" width="148" x="815" y="804"/><rect fill="#EEEEEE" height="23.9688" style="stroke: #A80036; stroke-width: 1.5;" width="148" x="815" y="804"/><text fill="#000000" font-family="sans-serif" font-size="12" lengthAdjust="spacingAndGlyphs" textLength="82" x="848" y="820.1387">DEPARTMENT</text><line style="stroke: #A80036; stroke-width: 1.5;" x1="816" x2="962" y1="827.9688" y2="827.9688"/><ellipse cx="826" cy="838.9688" fill="#84BE84" rx="3" ry="3" style="stroke: #038048; stroke-width: 1.0;"/><text fill="#000000" font-family="sans-serif" font-size="11" lengthAdjust="spacingAndGlyphs" textLength="88" x="835" y="842.1792">ID: NUMBER(10)</text><ellipse cx="826" cy="851.7734" fill="#84BE84" rx="3" ry="3" style="stroke: #038048; stroke-width: 1.0;"/><text fill="#000000" font-family="sans-serif" font-size="11" lengthAdjust="spacingAndGlyphs" textLength="122" x="835" y="854.9839">LABEL: VARCHAR2(40)</text><!--MD5=[906a6be943483496c7fd98dd250272af]
entity TDB2 Files--><polygon fill="#EEEEEE" filter="url(#fdxnf13xjhatx)" points="1181,805,1227,805,1234,826,1285,826,1285,860.5938,1181,860.5938,1181,805" style="stroke: #000000; stroke-width: 1.5;"/><line style="stroke: #000000; stroke-width: 1.5;" x1="1181" x2="1234" y1="826" y2="826"/><text fill="#000000" font-family="sans-serif" font-size="14" lengthAdjust="spacingAndGlyphs" textLength="74" x="1191" y="845.9951">TDB2 Files</text><!--MD5=[3213c23e2038f4b82898501eced730b5]
class sandreEndpoint--><rect fill="#EEEEEE" filter="url(#fdxnf13xjhatx)" height="44.7734" id="sandreEndpoint" style="stroke: #A80036; stroke-width: 1.5;" width="170" x="610" y="810.5"/><rect fill="#EEEEEE" height="23.9688" style="stroke: #A80036; stroke-width: 1.5;" width="170" x="610" y="810.5"/><text fill="#000000" font-family="sans-serif" font-size="12" font-style="italic" lengthAdjust="spacingAndGlyphs" textLength="45" x="672.5" y="826.6387">Sandre</text><line style="stroke: #A80036; stroke-width: 1.5;" x1="611" x2="779" y1="834.4688" y2="834.4688"/><text fill="#000000" font-family="sans-serif" font-size="11" lengthAdjust="spacingAndGlyphs" textLength="158" x="616" y="848.6792">http://id.eaufrance.fr/sparql</text><!--MD5=[c19a38ddba5cd503f519c12959da925e]
class mnhnEndpoint--><rect fill="#EEEEEE" filter="url(#fdxnf13xjhatx)" height="44.7734" id="mnhnEndpoint" style="stroke: #A80036; stroke-width: 1.5;" width="168" x="407" y="810.5"/><rect fill="#EEEEEE" height="23.9688" style="stroke: #A80036; stroke-width: 1.5;" width="168" x="407" y="810.5"/><text fill="#000000" font-family="sans-serif" font-size="12" font-style="italic" lengthAdjust="spacingAndGlyphs" textLength="37" x="472.5" y="826.6387">MNHN</text><line style="stroke: #A80036; stroke-width: 1.5;" x1="408" x2="574" y1="834.4688" y2="834.4688"/><text fill="#000000" font-family="sans-serif" font-size="11" lengthAdjust="spacingAndGlyphs" textLength="156" x="413" y="848.6792">http://taxref.mnhn.fr/sparql</text><!--MD5=[3c133e0f62115f2f76c7e5fbda3512ed]
class IModelVisitor--><rect fill="#FEFECE" filter="url(#fdxnf13xjhatx)" height="91.2188" id="IModelVisitor" style="stroke: #A80036; stroke-width: 1.5;" width="159" x="29.5" y="593"/><ellipse cx="66.1" cy="609" fill="#B4A7E5" rx="11" ry="11" style="stroke: #A80036; stroke-width: 1.0;"/><path d="M62.0219,604.7656 L62.0219,602.6094 L69.4125,602.6094 L69.4125,604.7656 L66.9438,604.7656 L66.9438,612.8438 L69.4125,612.8438 L69.4125,615 L62.0219,615 L62.0219,612.8438 L64.4906,612.8438 L64.4906,604.7656 L62.0219,604.7656 Z "/><text fill="#000000" font-family="sans-serif" font-size="12" font-style="italic" lengthAdjust="spacingAndGlyphs" textLength="79" x="84.9" y="613.1543">IModelVisitor</text><line style="stroke: #A80036; stroke-width: 1.5;" x1="30.5" x2="187.5" y1="625" y2="625"/><ellipse cx="40.5" cy="636" fill="#84BE84" rx="3" ry="3" style="stroke: #038048; stroke-width: 1.0;"/><text fill="#000000" font-family="sans-serif" font-size="11" lengthAdjust="spacingAndGlyphs" textLength="133" x="49.5" y="639.2104">accept(model): boolean</text><ellipse cx="40.5" cy="648.8047" fill="#84BE84" rx="3" ry="3" style="stroke: #038048; stroke-width: 1.0;"/><text fill="#000000" font-family="sans-serif" font-size="11" lengthAdjust="spacingAndGlyphs" textLength="99" x="49.5" y="652.0151">visitModel(model)</text><ellipse cx="40.5" cy="661.6094" fill="#84BE84" rx="3" ry="3" style="stroke: #038048; stroke-width: 1.0;"/><text fill="#000000" font-family="sans-serif" font-size="11" lengthAdjust="spacingAndGlyphs" textLength="93" x="49.5" y="664.8198">visitClass(class)</text><ellipse cx="40.5" cy="674.4141" fill="#84BE84" rx="3" ry="3" style="stroke: #038048; stroke-width: 1.0;"/><text fill="#000000" font-family="sans-serif" font-size="11" lengthAdjust="spacingAndGlyphs" textLength="132" x="49.5" y="677.6245">visitIndividual(instance)</text><!--MD5=[2ab373531aa1dd6b9e1243d20d42a431]
class SandreEquivalences--><rect fill="#FEFECE" filter="url(#fdxnf13xjhatx)" height="32" id="SandreEquivalences" style="stroke: #A80036; stroke-width: 1.5;" width="159" x="223.5" y="622.5"/><ellipse cx="238.5" cy="638.5" fill="#ADD1B2" rx="11" ry="11" style="stroke: #A80036; stroke-width: 1.0;"/><path d="M241.4688,644.1406 Q240.8906,644.4375 240.25,644.5781 Q239.6094,644.7344 238.9063,644.7344 Q236.4063,644.7344 235.0781,643.0938 Q233.7656,641.4375 233.7656,638.3125 Q233.7656,635.1875 235.0781,633.5313 Q236.4063,631.875 238.9063,631.875 Q239.6094,631.875 240.25,632.0313 Q240.9063,632.1875 241.4688,632.4844 L241.4688,635.2031 Q240.8438,634.625 240.25,634.3594 Q239.6563,634.0781 239.0313,634.0781 Q237.6875,634.0781 237,635.1563 Q236.3125,636.2188 236.3125,638.3125 Q236.3125,640.4063 237,641.4844 Q237.6875,642.5469 239.0313,642.5469 Q239.6563,642.5469 240.25,642.2813 Q240.8438,642 241.4688,641.4219 L241.4688,644.1406 Z "/><text fill="#000000" font-family="sans-serif" font-size="12" lengthAdjust="spacingAndGlyphs" textLength="127" x="252.5" y="642.6543">SandreEquivalences</text><!--MD5=[bb010123520b19152a07ab04ae8b97a5]
class EntitiesDao--><rect fill="#FEFECE" filter="url(#fdxnf13xjhatx)" height="32" id="EntitiesDao" style="stroke: #A80036; stroke-width: 1.5;" width="103" x="1006.5" y="622.5"/><ellipse cx="1021.5" cy="638.5" fill="#B4A7E5" rx="11" ry="11" style="stroke: #A80036; stroke-width: 1.0;"/><path d="M1017.4219,634.2656 L1017.4219,632.1094 L1024.8125,632.1094 L1024.8125,634.2656 L1022.3438,634.2656 L1022.3438,642.3438 L1024.8125,642.3438 L1024.8125,644.5 L1017.4219,644.5 L1017.4219,642.3438 L1019.8906,642.3438 L1019.8906,634.2656 L1017.4219,634.2656 Z "/><text fill="#000000" font-family="sans-serif" font-size="12" font-style="italic" lengthAdjust="spacingAndGlyphs" textLength="71" x="1035.5" y="642.6543">EntitiesDao</text><!--MD5=[f61d3063ea9136e30a52f590a9569ffc]
class INamedRdfLoader--><rect fill="#FEFECE" filter="url(#fdxnf13xjhatx)" height="32" id="INamedRdfLoader" style="stroke: #A80036; stroke-width: 1.5;" width="144" x="599" y="622.5"/><ellipse cx="614" cy="638.5" fill="#B4A7E5" rx="11" ry="11" style="stroke: #A80036; stroke-width: 1.0;"/><path d="M609.9219,634.2656 L609.9219,632.1094 L617.3125,632.1094 L617.3125,634.2656 L614.8438,634.2656 L614.8438,642.3438 L617.3125,642.3438 L617.3125,644.5 L609.9219,644.5 L609.9219,642.3438 L612.3906,642.3438 L612.3906,634.2656 L609.9219,634.2656 Z "/><text fill="#000000" font-family="sans-serif" font-size="12" font-style="italic" lengthAdjust="spacingAndGlyphs" textLength="112" x="628" y="642.6543">INamedRdfLoader</text><!--MD5=[2072805062a46ce2246650514629f3cb]
class MnhnTaxonLoader--><rect fill="#FEFECE" filter="url(#fdxnf13xjhatx)" height="32" id="MnhnTaxonLoader" style="stroke: #A80036; stroke-width: 1.5;" width="146" x="418" y="622.5"/><ellipse cx="433" cy="638.5" fill="#ADD1B2" rx="11" ry="11" style="stroke: #A80036; stroke-width: 1.0;"/><path d="M435.9688,644.1406 Q435.3906,644.4375 434.75,644.5781 Q434.1094,644.7344 433.4063,644.7344 Q430.9063,644.7344 429.5781,643.0938 Q428.2656,641.4375 428.2656,638.3125 Q428.2656,635.1875 429.5781,633.5313 Q430.9063,631.875 433.4063,631.875 Q434.1094,631.875 434.75,632.0313 Q435.4063,632.1875 435.9688,632.4844 L435.9688,635.2031 Q435.3438,634.625 434.75,634.3594 Q434.1563,634.0781 433.5313,634.0781 Q432.1875,634.0781 431.5,635.1563 Q430.8125,636.2188 430.8125,638.3125 Q430.8125,640.4063 431.5,641.4844 Q432.1875,642.5469 433.5313,642.5469 Q434.1563,642.5469 434.75,642.2813 Q435.3438,642 435.9688,641.4219 L435.9688,644.1406 Z "/><text fill="#000000" font-family="sans-serif" font-size="12" lengthAdjust="spacingAndGlyphs" textLength="114" x="447" y="642.6543">MnhnTaxonLoader</text><!--MD5=[faf0cc5dd7c20f0136e29a2c00ca3a05]
class SandreTaxonLoader--><rect fill="#FEFECE" filter="url(#fdxnf13xjhatx)" height="32" id="SandreTaxonLoader" style="stroke: #A80036; stroke-width: 1.5;" width="157" x="778.5" y="622.5"/><ellipse cx="793.5" cy="638.5" fill="#ADD1B2" rx="11" ry="11" style="stroke: #A80036; stroke-width: 1.0;"/><path d="M796.4688,644.1406 Q795.8906,644.4375 795.25,644.5781 Q794.6094,644.7344 793.9063,644.7344 Q791.4063,644.7344 790.0781,643.0938 Q788.7656,641.4375 788.7656,638.3125 Q788.7656,635.1875 790.0781,633.5313 Q791.4063,631.875 793.9063,631.875 Q794.6094,631.875 795.25,632.0313 Q795.9063,632.1875 796.4688,632.4844 L796.4688,635.2031 Q795.8438,634.625 795.25,634.3594 Q794.6563,634.0781 794.0313,634.0781 Q792.6875,634.0781 792,635.1563 Q791.3125,636.2188 791.3125,638.3125 Q791.3125,640.4063 792,641.4844 Q792.6875,642.5469 794.0313,642.5469 Q794.6563,642.5469 795.25,642.2813 Q795.8438,642 796.4688,641.4219 L796.4688,644.1406 Z "/><text fill="#000000" font-family="sans-serif" font-size="12" lengthAdjust="spacingAndGlyphs" textLength="125" x="807.5" y="642.6543">SandreTaxonLoader</text><!--MD5=[6d087d2b8c69f4352d73fe107933ad37]
class RdfSchemaService--><rect fill="#FEFECE" filter="url(#fdxnf13xjhatx)" height="32" id="RdfSchemaService" style="stroke: #A80036; stroke-width: 1.5;" width="147" x="270.5" y="371"/><ellipse cx="285.5" cy="387" fill="#B4A7E5" rx="11" ry="11" style="stroke: #A80036; stroke-width: 1.0;"/><path d="M281.4219,382.7656 L281.4219,380.6094 L288.8125,380.6094 L288.8125,382.7656 L286.3438,382.7656 L286.3438,390.8438 L288.8125,390.8438 L288.8125,393 L281.4219,393 L281.4219,390.8438 L283.8906,390.8438 L283.8906,382.7656 L281.4219,382.7656 Z "/><text fill="#000000" font-family="sans-serif" font-size="12" font-style="italic" lengthAdjust="spacingAndGlyphs" textLength="115" x="299.5" y="391.1543">RdfSchemaService</text><!--MD5=[91d23243c85188b9819904c2388d3a6a]
class RdfIndividualService--><rect fill="#FEFECE" filter="url(#fdxnf13xjhatx)" height="32" id="RdfIndividualService" style="stroke: #A80036; stroke-width: 1.5;" width="156" x="453" y="371"/><ellipse cx="468" cy="387" fill="#B4A7E5" rx="11" ry="11" style="stroke: #A80036; stroke-width: 1.0;"/><path d="M463.9219,382.7656 L463.9219,380.6094 L471.3125,380.6094 L471.3125,382.7656 L468.8438,382.7656 L468.8438,390.8438 L471.3125,390.8438 L471.3125,393 L463.9219,393 L463.9219,390.8438 L466.3906,390.8438 L466.3906,382.7656 L463.9219,382.7656 Z "/><text fill="#000000" font-family="sans-serif" font-size="12" font-style="italic" lengthAdjust="spacingAndGlyphs" textLength="124" x="482" y="391.1543">RdfIndividualService</text><!--MD5=[7dc79d414e644f1ba64bb65e5fd1820e]
class RdfDatasetService--><rect fill="#FEFECE" filter="url(#fdxnf13xjhatx)" height="32" id="RdfDatasetService" style="stroke: #A80036; stroke-width: 1.5;" width="146" x="644" y="371"/><ellipse cx="659" cy="387" fill="#B4A7E5" rx="11" ry="11" style="stroke: #A80036; stroke-width: 1.0;"/><path d="M654.9219,382.7656 L654.9219,380.6094 L662.3125,380.6094 L662.3125,382.7656 L659.8438,382.7656 L659.8438,390.8438 L662.3125,390.8438 L662.3125,393 L654.9219,393 L654.9219,390.8438 L657.3906,390.8438 L657.3906,382.7656 L654.9219,382.7656 Z "/><text fill="#000000" font-family="sans-serif" font-size="12" font-style="italic" lengthAdjust="spacingAndGlyphs" textLength="114" x="673" y="391.1543">RdfDatasetService</text><!--MD5=[6f63b840f0890bc8b603a76e9264c8c7]
class SparqlRestController--><rect fill="#FEFECE" filter="url(#fdxnf13xjhatx)" height="60.8047" id="SparqlRestController" style="stroke: #A80036; stroke-width: 1.5;" width="161" x="636.5" y="153.5"/><ellipse cx="651.5" cy="169.5" fill="#ADD1B2" rx="11" ry="11" style="stroke: #A80036; stroke-width: 1.0;"/><path d="M654.4688,175.1406 Q653.8906,175.4375 653.25,175.5781 Q652.6094,175.7344 651.9063,175.7344 Q649.4063,175.7344 648.0781,174.0938 Q646.7656,172.4375 646.7656,169.3125 Q646.7656,166.1875 648.0781,164.5313 Q649.4063,162.875 651.9063,162.875 Q652.6094,162.875 653.25,163.0313 Q653.9063,163.1875 654.4688,163.4844 L654.4688,166.2031 Q653.8438,165.625 653.25,165.3594 Q652.6563,165.0781 652.0313,165.0781 Q650.6875,165.0781 650,166.1563 Q649.3125,167.2188 649.3125,169.3125 Q649.3125,171.4063 650,172.4844 Q650.6875,173.5469 652.0313,173.5469 Q652.6563,173.5469 653.25,173.2813 Q653.8438,173 654.4688,172.4219 L654.4688,175.1406 Z "/><text fill="#000000" font-family="sans-serif" font-size="12" lengthAdjust="spacingAndGlyphs" textLength="129" x="665.5" y="173.6543">SparqlRestController</text><line style="stroke: #A80036; stroke-width: 1.5;" x1="637.5" x2="796.5" y1="185.5" y2="185.5"/><text fill="#000000" font-family="sans-serif" font-size="11" lengthAdjust="spacingAndGlyphs" textLength="120" x="642.5" y="199.7104">The SparQL endpoint</text><line style="stroke: #A80036; stroke-width: 1.0;" x1="637.5" x2="796.5" y1="206.3047" y2="206.3047"/><line style="stroke: #A80036; stroke-width: 1.0;" x1="637.5" x2="796.5" y1="208.3047" y2="208.3047"/><!--MD5=[92d3ed8a7f2a3914238809d87b10f650]
class OntologyRestController--><rect fill="#FEFECE" filter="url(#fdxnf13xjhatx)" height="86.4141" id="OntologyRestController" style="stroke: #A80036; stroke-width: 1.5;" width="190" x="411" y="141"/><ellipse cx="432.3" cy="157" fill="#ADD1B2" rx="11" ry="11" style="stroke: #A80036; stroke-width: 1.0;"/><path d="M435.2688,162.6406 Q434.6906,162.9375 434.05,163.0781 Q433.4094,163.2344 432.7063,163.2344 Q430.2063,163.2344 428.8781,161.5938 Q427.5656,159.9375 427.5656,156.8125 Q427.5656,153.6875 428.8781,152.0313 Q430.2063,150.375 432.7063,150.375 Q433.4094,150.375 434.05,150.5313 Q434.7063,150.6875 435.2688,150.9844 L435.2688,153.7031 Q434.6438,153.125 434.05,152.8594 Q433.4563,152.5781 432.8313,152.5781 Q431.4875,152.5781 430.8,153.6563 Q430.1125,154.7188 430.1125,156.8125 Q430.1125,158.9063 430.8,159.9844 Q431.4875,161.0469 432.8313,161.0469 Q433.4563,161.0469 434.05,160.7813 Q434.6438,160.5 435.2688,159.9219 L435.2688,162.6406 Z "/><text fill="#000000" font-family="sans-serif" font-size="12" lengthAdjust="spacingAndGlyphs" textLength="144" x="447.7" y="161.1543">OntologyRestController</text><line style="stroke: #A80036; stroke-width: 1.5;" x1="412" x2="600" y1="173" y2="173"/><text fill="#000000" font-family="sans-serif" font-size="11" lengthAdjust="spacingAndGlyphs" textLength="178" x="417" y="187.2104">Export a database entity model</text><text fill="#000000" font-family="sans-serif" font-size="11" lengthAdjust="spacingAndGlyphs" textLength="160" x="417" y="200.0151">into an ontology, and export</text><text fill="#000000" font-family="sans-serif" font-size="11" lengthAdjust="spacingAndGlyphs" textLength="100" x="417" y="212.8198">data as individual</text><line style="stroke: #A80036; stroke-width: 1.0;" x1="412" x2="600" y1="219.4141" y2="219.4141"/><line style="stroke: #A80036; stroke-width: 1.0;" x1="412" x2="600" y1="221.4141" y2="221.4141"/><!--MD5=[9a4363326fae556340651b8a84bf37a0]
class VowlRestController--><rect fill="#FEFECE" filter="url(#fdxnf13xjhatx)" height="60.8047" id="VowlRestController" style="stroke: #A80036; stroke-width: 1.5;" width="149" x="832.5" y="153.5"/><ellipse cx="847.5" cy="169.5" fill="#ADD1B2" rx="11" ry="11" style="stroke: #A80036; stroke-width: 1.0;"/><path d="M850.4688,175.1406 Q849.8906,175.4375 849.25,175.5781 Q848.6094,175.7344 847.9063,175.7344 Q845.4063,175.7344 844.0781,174.0938 Q842.7656,172.4375 842.7656,169.3125 Q842.7656,166.1875 844.0781,164.5313 Q845.4063,162.875 847.9063,162.875 Q848.6094,162.875 849.25,163.0313 Q849.9063,163.1875 850.4688,163.4844 L850.4688,166.2031 Q849.8438,165.625 849.25,165.3594 Q848.6563,165.0781 848.0313,165.0781 Q846.6875,165.0781 846,166.1563 Q845.3125,167.2188 845.3125,169.3125 Q845.3125,171.4063 846,172.4844 Q846.6875,173.5469 848.0313,173.5469 Q848.6563,173.5469 849.25,173.2813 Q849.8438,173 850.4688,172.4219 L850.4688,175.1406 Z "/><text fill="#000000" font-family="sans-serif" font-size="12" lengthAdjust="spacingAndGlyphs" textLength="117" x="861.5" y="173.6543">VowlRestController</text><line style="stroke: #A80036; stroke-width: 1.5;" x1="833.5" x2="980.5" y1="185.5" y2="185.5"/><text fill="#000000" font-family="sans-serif" font-size="11" lengthAdjust="spacingAndGlyphs" textLength="129" x="838.5" y="199.7104">Used by WebVOWL tool</text><line style="stroke: #A80036; stroke-width: 1.0;" x1="833.5" x2="980.5" y1="206.3047" y2="206.3047"/><line style="stroke: #A80036; stroke-width: 1.0;" x1="833.5" x2="980.5" y1="208.3047" y2="208.3047"/><!--MD5=[e3f72718913f1e037c5bc72e44de49f6]
class client--><rect fill="#DDDDDD" filter="url(#fdxnf13xjhatx)" height="23.9688" id="client" style="stroke: #A80036; stroke-width: 1.5;" width="127" x="653.5" y="8"/><rect fill="#DDDDDD" height="23.9688" style="stroke: #A80036; stroke-width: 1.5;" width="127" x="653.5" y="8"/><text fill="#000000" font-family="sans-serif" font-size="12" font-style="italic" lengthAdjust="spacingAndGlyphs" textLength="121" x="656.5" y="24.1387">Client HTTP request</text><!--MD5=[8719aff1ef0b40e520da9563584a32b4]
reverse link IModelVisitor to SandreEquivalences--><path d="M208.7268,638.5 C213.6297,638.5 218.5327,638.5 223.4356,638.5 " fill="none" id="IModelVisitor&lt;-SandreEquivalences" style="stroke: #A80036; stroke-width: 1.0;"/><polygon fill="none" points="208.5703,645.4999,188.5703,638.5,208.5703,631.4999,208.5703,645.4999" style="stroke: #A80036; stroke-width: 1.0;"/><!--MD5=[25d6731ebb69bc13bf50459f3a0a3e2e]
link EntitiesDao to TAXON_NAME--><path d="M1059.1696,654.7484 C1061.443,686.3328 1066.5016,756.6112 1069.5438,798.877 " fill="none" id="EntitiesDao-&gt;TAXON_NAME" style="stroke: #A80036; stroke-width: 1.0;"/><polygon fill="#A80036" points="1069.9045,803.888,1073.248,794.624,1069.5455,798.9009,1065.2686,795.1984,1069.9045,803.888" style="stroke: #A80036; stroke-width: 1.0;"/><text fill="#000000" font-family="sans-serif" font-size="13" lengthAdjust="spacingAndGlyphs" textLength="63" x="1078" y="727.0669">read/write</text><text fill="#000000" font-family="sans-serif" font-size="13" lengthAdjust="spacingAndGlyphs" textLength="87" x="1066" y="742.1997">(SQL queries)</text><!--MD5=[66390284949d706bdc8b242e3aa9351c]
link EntitiesDao to DEPARTMENT--><path d="M1041.7109,654.5554 C1028.1657,667.5201 1008.0862,685.8668 989,700 C979.3827,707.1216 974.5776,705.6552 966,714 C940.4292,738.8767 919.1258,773.7421 905.4573,799.3044 " fill="none" id="EntitiesDao-&gt;DEPARTMENT" style="stroke: #A80036; stroke-width: 1.0;"/><polygon fill="#A80036" points="902.9946,803.9647,910.7362,797.8764,905.3307,799.544,903.6631,794.1386,902.9946,803.9647" style="stroke: #A80036; stroke-width: 1.0;"/><text fill="#000000" font-family="sans-serif" font-size="13" lengthAdjust="spacingAndGlyphs" textLength="63" x="979" y="727.0669">read/write</text><text fill="#000000" font-family="sans-serif" font-size="13" lengthAdjust="spacingAndGlyphs" textLength="87" x="967" y="742.1997">(SQL queries)</text><!--MD5=[51747312f5cf9cdd9ea67b16a6e08422]
link MnhnTaxonLoader to INamedRdfLoader--><path d="M564.125,638.5 C568.9978,638.5 573.8706,638.5 578.7433,638.5 " fill="none" id="MnhnTaxonLoader-&gt;INamedRdfLoader" style="stroke: #0000FF; stroke-width: 1.0; stroke-dasharray: 1.0,3.0;"/><polygon fill="none" points="578.7759,631.4999,598.7759,638.5,578.7758,645.4999,578.7759,631.4999" style="stroke: #0000FF; stroke-width: 1.0;"/><!--MD5=[24e029b2dbe4c528b4b7f706231ccaa5]
reverse link INamedRdfLoader to SandreTaxonLoader--><path d="M763.3048,638.5 C768.3306,638.5 773.3564,638.5 778.3822,638.5 " fill="none" id="INamedRdfLoader&lt;-SandreTaxonLoader" style="stroke: #0000FF; stroke-width: 1.0; stroke-dasharray: 1.0,3.0;"/><polygon fill="none" points="763.293,645.4999,743.293,638.5,763.2929,631.4999,763.293,645.4999" style="stroke: #0000FF; stroke-width: 1.0;"/><!--MD5=[b43feda27a64c5b2c56b477ef93b3556]
link MnhnTaxonLoader to mnhnEndpoint--><path d="M491,654.7484 C491,688.0198 491,764.2288 491,805.3993 " fill="none" id="MnhnTaxonLoader-&gt;mnhnEndpoint" style="stroke: #A80036; stroke-width: 1.0;"/><polygon fill="#A80036" points="491,810.4835,495,801.4835,491,805.4835,487,801.4835,491,810.4835" style="stroke: #A80036; stroke-width: 1.0;"/><text fill="#000000" font-family="sans-serif" font-size="13" lengthAdjust="spacingAndGlyphs" textLength="29" x="531.5" y="727.0669">read</text><text fill="#000000" font-family="sans-serif" font-size="13" lengthAdjust="spacingAndGlyphs" textLength="108" x="492" y="742.1997">(SparQL queries)</text><!--MD5=[5834972dfb01a7aed4b3d8b8aa54241f]
link SandreTaxonLoader to sandreEndpoint--><path d="M830.3752,654.5362 C809.1122,668.3202 779.5722,689.7683 759,714 C735.2746,741.9458 716.6662,780.1172 705.7686,805.6162 " fill="none" id="SandreTaxonLoader-&gt;sandreEndpoint" style="stroke: #A80036; stroke-width: 1.0;"/><polygon fill="#A80036" points="703.824,810.2246,711.0083,803.4877,705.7679,805.6179,703.6377,800.3775,703.824,810.2246" style="stroke: #A80036; stroke-width: 1.0;"/><text fill="#000000" font-family="sans-serif" font-size="13" lengthAdjust="spacingAndGlyphs" textLength="29" x="799.5" y="727.0669">read</text><text fill="#000000" font-family="sans-serif" font-size="13" lengthAdjust="spacingAndGlyphs" textLength="108" x="760" y="742.1997">(SparQL queries)</text><!--MD5=[97f36465bcba2a1f483e3f42dd837119]
link RdfSchemaService to dao--><path d="M327.0273,403.0415 C304.9333,425.8422 271.8392,467.9615 296,496 C356.8689,566.6381 618.1379,549.5503 711,558 C724.3411,559.2139 941.5317,557.6409 952,566 C958.1008,570.8716 962.3855,577.4421 965.3703,584.6477 C966.1165,586.449 966.7815,588.2901 967.3733,590.1543 C967.6692,591.0863 967.9468,592.0242 968.2071,592.9657 C968.3372,593.4364 968.4631,593.9081 968.5847,594.3805 C968.6455,594.6166 968.7053,594.853 968.764,595.0894 C968.7934,595.2077 968.8225,595.326 968.8514,595.4442 " fill="none" id="RdfSchemaService-&gt;dao" style="stroke: #A80036; stroke-width: 1.0;"/><polygon fill="#A80036" points="968.8514,595.4442,970.6048,585.7527,967.6666,590.5867,962.8326,587.6484,968.8514,595.4442" style="stroke: #A80036; stroke-width: 1.0;"/><text fill="#000000" font-family="sans-serif" font-size="13" lengthAdjust="spacingAndGlyphs" textLength="23" x="297" y="484.5669">use</text><!--MD5=[6f52cb9d0b83cae859c2c0948b11f318]
link RdfIndividualService to EntitiesDao--><path d="M541.8698,403.3072 C559.0214,427.6454 594.7898,473.0595 637,496 C777.1472,572.1678 849.2653,489.0781 989,566 C1012.0139,578.6688 1031.9107,601.6604 1044.3454,618.3633 " fill="none" id="RdfIndividualService-&gt;EntitiesDao" style="stroke: #A80036; stroke-width: 1.0;"/><polygon fill="#A80036" points="1047.3433,622.4643,1045.2609,612.8381,1044.3925,618.4279,1038.8027,617.5594,1047.3433,622.4643" style="stroke: #A80036; stroke-width: 1.0;"/><text fill="#000000" font-family="sans-serif" font-size="13" lengthAdjust="spacingAndGlyphs" textLength="23" x="638" y="484.5669">use</text><!--MD5=[4f08e17258205eec8dcbd852cb0fa8de]
link RdfDatasetService to TDB2--><path d="M774.098,403.0012 C857.2359,428.1913 1013.8977,482.9452 1126,566 C1218.2103,634.3171 1249.6385,652.4002 1303,754 C1304.957,757.7261 1306.6888,761.6638 1308.2213,765.7124 C1308.9875,767.7366 1309.7039,769.7886 1310.3738,771.8557 C1310.4575,772.1141 1310.5405,772.3727 1310.6228,772.6315 " fill="none" id="RdfDatasetService-&gt;TDB2" style="stroke: #A80036; stroke-width: 1.0;"/><polygon fill="#A80036" points="1310.6228,772.6315,1311.7083,762.8427,1309.108,767.8665,1304.0842,765.2662,1310.6228,772.6315" style="stroke: #A80036; stroke-width: 1.0;"/><text fill="#000000" font-family="sans-serif" font-size="13" lengthAdjust="spacingAndGlyphs" textLength="63" x="1127.5" y="539.0669">read/write</text><text fill="#000000" font-family="sans-serif" font-size="13" lengthAdjust="spacingAndGlyphs" textLength="88" x="1115" y="554.1997">(Jena queries)</text><!--MD5=[751dbc64bf85f4a55706dbb9dbc42ebe]
link RdfDatasetService to INamedRdfLoader--><path d="M749.528,410.8944 C749.528,410.8944 782.7293,443.458 791,464 C796.3118,477.193 795.734,482.5888 791,496 C773.8373,544.6218 731.5136,587.9484 702.0223,613.7191 " fill="none" id="RdfDatasetService-INamedRdfLoader" style="stroke: #A80036; stroke-width: 1.0;"/><polygon fill="#A80036" points="691.8081,622.3966,701.2569,619.618,695.6186,619.1594,696.0773,613.5211,691.8081,622.3966" style="stroke: #A80036; stroke-width: 1.0;"/><line style="stroke: #A80036; stroke-width: 1.0;" x1="695.6186" x2="701.7155" y1="619.1594" y2="613.9797"/><polygon fill="#FFFFFF" points="740.286,403.2403,742.3556,410.148,749.528,410.8944,747.4584,403.9867,740.286,403.2403" style="stroke: #A80036; stroke-width: 1.0;"/><text fill="#000000" font-family="sans-serif" font-size="13" lengthAdjust="spacingAndGlyphs" textLength="21" x="806.5" y="477.0669">run</text><text fill="#000000" font-family="sans-serif" font-size="13" lengthAdjust="spacingAndGlyphs" textLength="40" x="799" y="492.1997">loader</text><text fill="#000000" font-family="sans-serif" font-size="13" lengthAdjust="spacingAndGlyphs" textLength="23" x="702.914" y="611.3727">0..*</text><!--MD5=[a2be49bdcebfa94b940a5ddd49515e65]
reverse link RdfDatasetService to MnhnTaxonLoader--><path d="M711.2984,408.0851 C704.2911,431.298 690.7191,468.9127 670,496 C639.6374,535.695 621.0992,534.8739 582,566 C557.6627,585.3744 529.6754,607.6751 511.2366,622.3702 " fill="none" id="RdfDatasetService&lt;-MnhnTaxonLoader" style="stroke: #A80036; stroke-width: 1.0; stroke-dasharray: 7.0,7.0;"/><polygon fill="#A80036" points="712.7759,403.0762,706.3931,410.5768,711.3613,407.8719,714.0662,412.8402,712.7759,403.0762" style="stroke: #A80036; stroke-width: 1.0;"/><text fill="#000000" font-family="sans-serif" font-size="13" lengthAdjust="spacingAndGlyphs" textLength="49" x="689" y="477.0669">register</text><text fill="#000000" font-family="sans-serif" font-size="13" lengthAdjust="spacingAndGlyphs" textLength="24" x="701.5" y="492.1997">into</text><!--MD5=[787c1339ac460a65cdafc2ceb1a5da35]
reverse link RdfDatasetService to SandreTaxonLoader--><path d="M772.1426,405.0469 C799.8455,417.1453 831.0507,436.0718 848,464 C878.7689,514.6995 867.7919,589.7309 860.885,622.3634 " fill="none" id="RdfDatasetService&lt;-SandreTaxonLoader" style="stroke: #A80036; stroke-width: 1.0; stroke-dasharray: 7.0,7.0;"/><polygon fill="#A80036" points="767.3733,403.0153,774.0857,410.2225,771.9733,404.9749,777.221,402.8625,767.3733,403.0153" style="stroke: #A80036; stroke-width: 1.0;"/><text fill="#000000" font-family="sans-serif" font-size="13" lengthAdjust="spacingAndGlyphs" textLength="49" x="862" y="477.0669">register</text><text fill="#000000" font-family="sans-serif" font-size="13" lengthAdjust="spacingAndGlyphs" textLength="24" x="874.5" y="492.1997">into</text><!--MD5=[4d9d9d2a48b5b0f4493d544919978345]
link RdfIndividualService to IModelVisitor--><path d="M489.8961,408.7226 C489.8961,408.7226 257.6691,532.6888 206,566 C196.7921,571.9364 187.3137,578.4599 178.0565,585.0857 " fill="none" id="RdfIndividualService-IModelVisitor" style="stroke: #A80036; stroke-width: 1.0;"/><polygon fill="#A80036" points="167.3203,592.8817,176.9531,590.8303,171.3662,589.9439,172.2526,584.3569,167.3203,592.8817" style="stroke: #A80036; stroke-width: 1.0;"/><line style="stroke: #A80036; stroke-width: 1.0;" x1="171.3662" x2="177.8396" y1="589.9439" y2="585.2432"/><polygon fill="#FFFFFF" points="500.4987,403.1025,493.3241,402.3783,489.8961,408.7226,497.0708,409.4467,500.4987,403.1025" style="stroke: #A80036; stroke-width: 1.0;"/><text fill="#000000" font-family="sans-serif" font-size="13" lengthAdjust="spacingAndGlyphs" textLength="25" x="403" y="477.0669">visit</text><text fill="#000000" font-family="sans-serif" font-size="13" lengthAdjust="spacingAndGlyphs" textLength="59" x="386" y="492.1997">individual</text><text fill="#000000" font-family="sans-serif" font-size="13" lengthAdjust="spacingAndGlyphs" textLength="23" x="151.4897" y="581.8083">0..*</text><!--MD5=[205e09a8bed4e0d8410282cb16af0345]
reverse link RdfIndividualService to IModelVisitor--><path d="M521.4856,407.9297 C509.2693,432.5147 485.7931,472.8727 454,496 C379.0863,550.4946 345.1572,536.7065 255,558 C233.5247,563.0721 226.3084,557.3696 206,566 C190.1334,572.7428 174.4791,582.6045 160.529,592.8953 " fill="none" id="RdfIndividualService&lt;-IModelVisitor" style="stroke: #A80036; stroke-width: 1.0; stroke-dasharray: 7.0,7.0;"/><polygon fill="#A80036" points="523.7778,403.2328,516.2357,409.5666,521.5848,407.7262,523.4251,413.0753,523.7778,403.2328" style="stroke: #A80036; stroke-width: 1.0;"/><text fill="#000000" font-family="sans-serif" font-size="13" lengthAdjust="spacingAndGlyphs" textLength="49" x="487" y="477.0669">register</text><text fill="#000000" font-family="sans-serif" font-size="13" lengthAdjust="spacingAndGlyphs" textLength="24" x="499.5" y="492.1997">into</text><!--MD5=[09ee6204132cbdadd6b777a0416d1f88]
link RdfSchemaService to IModelVisitor--><path d="M258.4672,400.3889 C258.4672,400.3889 103.7053,434.6808 84,464 C61.1697,497.9689 69.0145,544.0676 81.7157,580.3531 " fill="none" id="RdfSchemaService-IModelVisitor" style="stroke: #A80036; stroke-width: 1.0;"/><polygon fill="#A80036" points="86.3685,592.7425,86.9489,582.9108,84.6106,588.0617,79.4597,585.7234,86.3685,592.7425" style="stroke: #A80036; stroke-width: 1.0;"/><line style="stroke: #A80036; stroke-width: 1.0;" x1="84.6106" x2="81.798" y1="588.0617" y2="580.5724"/><polygon fill="#FFFFFF" points="270.2722,398.2342,263.6515,395.3766,258.4672,400.3889,265.088,403.2466,270.2722,398.2342" style="stroke: #A80036; stroke-width: 1.0;"/><text fill="#000000" font-family="sans-serif" font-size="13" lengthAdjust="spacingAndGlyphs" textLength="25" x="92.5" y="477.0669">visit</text><text fill="#000000" font-family="sans-serif" font-size="13" lengthAdjust="spacingAndGlyphs" textLength="40" x="85" y="492.1997">model</text><text fill="#000000" font-family="sans-serif" font-size="13" lengthAdjust="spacingAndGlyphs" textLength="23" x="58.3554" y="581.9809">0..*</text><!--MD5=[a76a84e0b6435586b4d6240a3ff225e7]
reverse link RdfSchemaService to IModelVisitor--><path d="M290.9468,405.0698 C260.1722,417.6973 222.4031,437.138 196,464 C160.1683,500.4545 136.3382,554.6153 122.8179,592.9115 " fill="none" id="RdfSchemaService&lt;-IModelVisitor" style="stroke: #A80036; stroke-width: 1.0; stroke-dasharray: 7.0,7.0;"/><polygon fill="#A80036" points="295.823,403.1016,285.98,402.7612,291.1865,404.9731,288.9745,410.1796,295.823,403.1016" style="stroke: #A80036; stroke-width: 1.0;"/><text fill="#000000" font-family="sans-serif" font-size="13" lengthAdjust="spacingAndGlyphs" textLength="49" x="197" y="477.0669">register</text><text fill="#000000" font-family="sans-serif" font-size="13" lengthAdjust="spacingAndGlyphs" textLength="24" x="209.5" y="492.1997">into</text><!--MD5=[2c447d842e8a6ac941444000903761b1]
link SparqlRestController to RdfDatasetService--><path d="M717,214.8313 C717,256.4835 717,329.6556 717,365.7032 " fill="none" id="SparqlRestController-&gt;RdfDatasetService" style="stroke: #A80036; stroke-width: 1.0;"/><polygon fill="#A80036" points="717,370.7442,721,361.7442,717,365.7442,713,361.7442,717,370.7442" style="stroke: #A80036; stroke-width: 1.0;"/><text fill="#000000" font-family="sans-serif" font-size="13" lengthAdjust="spacingAndGlyphs" textLength="23" x="718" y="301.0669">use</text><!--MD5=[405bee1f0232ea94a1c03b912fb8a4e6]
link OntologyRestController to RdfSchemaService--><path d="M471.644,227.0511 C437.3335,270.0451 386.085,334.2638 360.2018,366.6977 " fill="none" id="OntologyRestController-&gt;RdfSchemaService" style="stroke: #A80036; stroke-width: 1.0;"/><polygon fill="#A80036" points="356.8727,370.8694,365.613,366.3299,359.9915,366.9613,359.3601,361.3398,356.8727,370.8694" style="stroke: #A80036; stroke-width: 1.0;"/><text fill="#000000" font-family="sans-serif" font-size="13" lengthAdjust="spacingAndGlyphs" textLength="23" x="424" y="301.0669">use</text><!--MD5=[1864ab3992eb594ecfc6288bc4fd30af]
link OntologyRestController to RdfIndividualService--><path d="M511.3019,227.0511 C516.5535,269.6941 524.3765,333.2168 528.4011,365.8971 " fill="none" id="OntologyRestController-&gt;RdfIndividualService" style="stroke: #A80036; stroke-width: 1.0;"/><polygon fill="#A80036" points="529.0135,370.8694,531.8832,361.4479,528.4022,365.9069,523.9432,362.426,529.0135,370.8694" style="stroke: #A80036; stroke-width: 1.0;"/><text fill="#000000" font-family="sans-serif" font-size="13" lengthAdjust="spacingAndGlyphs" textLength="23" x="521" y="301.0669">use</text><!--MD5=[7d342f3d60bb3b86aa87f1e92cd12fa5]
link client to SparqlRestController--><path d="M717,32.0593 C717,56.1719 717,111.1682 717,147.9498 " fill="none" id="client-&gt;SparqlRestController" style="stroke: #A80036; stroke-width: 1.0;"/><polygon fill="#A80036" points="717,153.2386,721,144.2386,717,148.2386,713,144.2386,717,153.2386" style="stroke: #A80036; stroke-width: 1.0;"/><text fill="#000000" font-family="sans-serif" font-size="13" lengthAdjust="spacingAndGlyphs" textLength="43" x="718" y="75.0669">/sparql</text><!--MD5=[28bb93ae150793ee1f57ceb605089134]
link client to VowlRestController--><path d="M737.4193,32.1758 C757.8948,44.7865 789.9014,65.6112 815,87 C837.3579,106.0533 860.0953,129.9756 877.3723,149.2957 " fill="none" id="client-&gt;VowlRestController" style="stroke: #A80036; stroke-width: 1.0;"/><polygon fill="#A80036" points="880.7532,153.0956,877.7589,143.713,877.4295,149.3602,871.7823,149.0308,880.7532,153.0956" style="stroke: #A80036; stroke-width: 1.0;"/><text fill="#000000" font-family="sans-serif" font-size="13" lengthAdjust="spacingAndGlyphs" textLength="49" x="806" y="75.0669">/webowl</text><!--MD5=[7dd039dbaee800c6c2d28aae5bf1c2fa]
link client to OntologyRestController--><path d="M694.971,32.1779 C681.1245,40.1292 663.0899,51.0373 648,62 C616.1705,85.124 582.6935,113.6565 556.2434,137.3128 " fill="none" id="client-&gt;OntologyRestController" style="stroke: #A80036; stroke-width: 1.0;"/><polygon fill="#A80036" points="552.3929,140.7665,561.7635,137.7348,556.115,137.428,556.4219,131.7794,552.3929,140.7665" style="stroke: #A80036; stroke-width: 1.0;"/><text fill="#000000" font-family="sans-serif" font-size="13" lengthAdjust="spacingAndGlyphs" textLength="59" x="649" y="75.0669">/ontology</text></g></svg>