<?xml version="1.0" encoding="us-ascii" standalone="no"?><svg xmlns="http://www.w3.org/2000/svg" xmlns:xlink="http://www.w3.org/1999/xlink" contentStyleType="text/css" height="1115px" preserveAspectRatio="none" style="width:1736px;height:1115px;background:#FFFFFF;" version="1.1" viewBox="0 0 1736 1115" width="1736px" zoomAndPan="magnify"><defs/><g><!--cluster DB--><g id="cluster_DB"><path d="M1098,970 C1098,960 1309,960 1309,960 C1309,960 1520,960 1520,970 L1520,1088 C1520,1098 1309,1098 1309,1098 C1309,1098 1098,1098 1098,1088 L1098,970 " fill="#ADD8E6" style="stroke:#181818;stroke-width:1.0;"/><path d="M1098,970 C1098,980 1309,980 1309,980 C1309,980 1520,980 1520,970 " fill="none" style="stroke:#181818;stroke-width:1.0;"/><text fill="#000000" font-family="sans-serif" font-size="14" font-weight="bold" lengthAdjust="spacing" textLength="20" x="1299" y="996.5332">DB</text></g><!--cluster TDB2--><g id="cluster_TDB2"><polygon fill="#ADD8E6" points="1552,979.5,1562,969.5,1719,969.5,1719,1088.5,1709,1098.5,1552,1098.5,1552,979.5" style="stroke:#181818;stroke-width:1.0;"/><line style="stroke:#181818;stroke-width:1.0;" x1="1709" x2="1719" y1="979.5" y2="969.5"/><line style="stroke:#181818;stroke-width:1.0;" x1="1552" x2="1709" y1="979.5" y2="979.5"/><line style="stroke:#181818;stroke-width:1.0;" x1="1709" x2="1709" y1="979.5" y2="1098.5"/><text fill="#000000" font-family="sans-serif" font-size="14" font-weight="bold" lengthAdjust="spacing" textLength="36" x="1613.5" y="997.0332">TDB2</text></g><!--cluster net--><g id="cluster_net"><path d="M8.5,99 L32.5,99 A3.75,3.75 0 0 1 35,101.5 L42,122.6094 L1399.5,122.6094 A2.5,2.5 0 0 1 1402,125.1094 L1402,883.5 A2.5,2.5 0 0 1 1399.5,886 L8.5,886 A2.5,2.5 0 0 1 6,883.5 L6,101.5 A2.5,2.5 0 0 1 8.5,99 " fill="none" style="stroke:#000000;stroke-width:1.5;"/><line style="stroke:#000000;stroke-width:1.5;" x1="6" x2="42" y1="122.6094" y2="122.6094"/><text fill="#000000" font-family="sans-serif" font-size="14" font-weight="bold" lengthAdjust="spacing" textLength="23" x="10" y="115.5332">net</text></g><!--cluster sumaris--><g id="cluster_sumaris"><path d="M32.5,143 L88.5,143 A3.75,3.75 0 0 1 91,145.5 L98,166.6094 L1375.5,166.6094 A2.5,2.5 0 0 1 1378,169.1094 L1378,859.5 A2.5,2.5 0 0 1 1375.5,862 L32.5,862 A2.5,2.5 0 0 1 30,859.5 L30,145.5 A2.5,2.5 0 0 1 32.5,143 " fill="none" style="stroke:#000000;stroke-width:1.5;"/><line style="stroke:#000000;stroke-width:1.5;" x1="30" x2="98" y1="166.6094" y2="166.6094"/><text fill="#000000" font-family="sans-serif" font-size="14" font-weight="bold" lengthAdjust="spacing" textLength="55" x="34" y="159.5332">sumaris</text></g><!--cluster core--><g id="cluster_core"><path d="M56.5,187 L89.5,187 A3.75,3.75 0 0 1 92,189.5 L99,210.6094 L1351.5,210.6094 A2.5,2.5 0 0 1 1354,213.1094 L1354,835.5 A2.5,2.5 0 0 1 1351.5,838 L56.5,838 A2.5,2.5 0 0 1 54,835.5 L54,189.5 A2.5,2.5 0 0 1 56.5,187 " fill="none" style="stroke:#000000;stroke-width:1.5;"/><line style="stroke:#000000;stroke-width:1.5;" x1="54" x2="99" y1="210.6094" y2="210.6094"/><text fill="#000000" font-family="sans-serif" font-size="14" font-weight="bold" lengthAdjust="spacing" textLength="32" x="58" y="203.5332">core</text></g><!--cluster rdf--><g id="cluster_rdf"><path d="M80.5,231 L101.5,231 A3.75,3.75 0 0 1 104,233.5 L111,254.6094 L1327.5,254.6094 A2.5,2.5 0 0 1 1330,257.1094 L1330,811.5 A2.5,2.5 0 0 1 1327.5,814 L80.5,814 A2.5,2.5 0 0 1 78,811.5 L78,233.5 A2.5,2.5 0 0 1 80.5,231 " fill="none" style="stroke:#000000;stroke-width:1.5;"/><line style="stroke:#000000;stroke-width:1.5;" x1="78" x2="111" y1="254.6094" y2="254.6094"/><text fill="#000000" font-family="sans-serif" font-size="14" font-weight="bold" lengthAdjust="spacing" textLength="20" x="82" y="247.5332">rdf</text></g><!--cluster adapter--><g id="cluster_adapter"><path d="M104.5,628 L159.5,628 A3.75,3.75 0 0 1 162,630.5 L169,651.6094 L504.5,651.6094 A2.5,2.5 0 0 1 507,654.1094 L507,787.5 A2.5,2.5 0 0 1 504.5,790 L104.5,790 A2.5,2.5 0 0 1 102,787.5 L102,630.5 A2.5,2.5 0 0 1 104.5,628 " fill="none" style="stroke:#000000;stroke-width:1.5;"/><line style="stroke:#000000;stroke-width:1.5;" x1="102" x2="169" y1="651.6094" y2="651.6094"/><text fill="#000000" font-family="sans-serif" font-size="14" font-weight="bold" lengthAdjust="spacing" textLength="54" x="106" y="644.5332">adapter</text></g><!--cluster dao--><g id="cluster_dao"><path d="M1129.5,659 L1156.5,659 A3.75,3.75 0 0 1 1159,661.5 L1166,682.6094 L1295.5,682.6094 A2.5,2.5 0 0 1 1298,685.1094 L1298,756.5 A2.5,2.5 0 0 1 1295.5,759 L1129.5,759 A2.5,2.5 0 0 1 1127,756.5 L1127,661.5 A2.5,2.5 0 0 1 1129.5,659 " fill="none" style="stroke:#000000;stroke-width:1.5;"/><line style="stroke:#000000;stroke-width:1.5;" x1="1127" x2="1166" y1="682.6094" y2="682.6094"/><text fill="#000000" font-family="sans-serif" font-size="14" font-weight="bold" lengthAdjust="spacing" textLength="26" x="1131" y="675.5332">dao</text></g><!--cluster loader--><g id="cluster_loader"><path d="M533.5,667 L579.5,667 A3.75,3.75 0 0 1 582,669.5 L589,690.6094 L1092.5,690.6094 A2.5,2.5 0 0 1 1095,693.1094 L1095,748.5 A2.5,2.5 0 0 1 1092.5,751 L533.5,751 A2.5,2.5 0 0 1 531,748.5 L531,669.5 A2.5,2.5 0 0 1 533.5,667 " fill="none" style="stroke:#000000;stroke-width:1.5;"/><line style="stroke:#000000;stroke-width:1.5;" x1="531" x2="589" y1="690.6094" y2="690.6094"/><text fill="#000000" font-family="sans-serif" font-size="14" font-weight="bold" lengthAdjust="spacing" textLength="45" x="535" y="683.5332">loader</text></g><!--cluster service--><g id="cluster_service"><path d="M264.5,478 L318.5,478 A3.75,3.75 0 0 1 321,480.5 L328,501.6094 L821.5,501.6094 A2.5,2.5 0 0 1 824,504.1094 L824,559.5 A2.5,2.5 0 0 1 821.5,562 L264.5,562 A2.5,2.5 0 0 1 262,559.5 L262,480.5 A2.5,2.5 0 0 1 264.5,478 " fill="none" style="stroke:#000000;stroke-width:1.5;"/><line style="stroke:#000000;stroke-width:1.5;" x1="262" x2="328" y1="501.6094" y2="501.6094"/><text fill="#000000" font-family="sans-serif" font-size="14" font-weight="bold" lengthAdjust="spacing" textLength="53" x="266" y="494.5332">service</text></g><!--cluster http--><g id="cluster_http"><path d="M148.5,275 L177.5,275 A3.75,3.75 0 0 1 180,277.5 L187,298.6094 L1041.5,298.6094 A2.5,2.5 0 0 1 1044,301.1094 L1044,425.5 A2.5,2.5 0 0 1 1041.5,428 L148.5,428 A2.5,2.5 0 0 1 146,425.5 L146,277.5 A2.5,2.5 0 0 1 148.5,275 " fill="none" style="stroke:#000000;stroke-width:1.5;"/><line style="stroke:#000000;stroke-width:1.5;" x1="146" x2="187" y1="298.6094" y2="298.6094"/><text fill="#000000" font-family="sans-serif" font-size="14" font-weight="bold" lengthAdjust="spacing" textLength="28" x="150" y="291.5332">http</text></g><!--class TAXON_NAME--><g id="elem_TAXON_NAME"><rect codeLine="5" fill="#EEEEEE" height="70.8281" id="TAXON_NAME" rx="2.5" ry="2.5" style="stroke:#181818;stroke-width:0.5;" width="177" x="1114.5" y="1011"/><text fill="#000000" font-family="sans-serif" font-size="14" lengthAdjust="spacing" textLength="92" x="1157" y="1030.5332">TAXON_NAME</text><line style="stroke:#181818;stroke-width:0.5;" x1="1115.5" x2="1290.5" y1="1038.6094" y2="1038.6094"/><ellipse cx="1125.5" cy="1052.9141" fill="#84BE84" rx="3" ry="3" style="stroke:#038048;stroke-width:1.0;"/><text fill="#000000" font-family="sans-serif" font-size="14" lengthAdjust="spacing" textLength="104" x="1134.5" y="1057.1426">ID: NUMBER(10)</text><ellipse cx="1125.5" cy="1070.5234" fill="#84BE84" rx="3" ry="3" style="stroke:#038048;stroke-width:1.0;"/><text fill="#000000" font-family="sans-serif" font-size="14" lengthAdjust="spacing" textLength="151" x="1134.5" y="1074.752">LABEL: VARCHAR2(40)</text></g><!--class DEPARTMENT--><g id="elem_DEPARTMENT"><rect codeLine="9" fill="#EEEEEE" height="70.8281" id="DEPARTMENT" rx="2.5" ry="2.5" style="stroke:#181818;stroke-width:0.5;" width="177" x="1326.5" y="1011"/><text fill="#000000" font-family="sans-serif" font-size="14" lengthAdjust="spacing" textLength="94" x="1368" y="1030.5332">DEPARTMENT</text><line style="stroke:#181818;stroke-width:0.5;" x1="1327.5" x2="1502.5" y1="1038.6094" y2="1038.6094"/><ellipse cx="1337.5" cy="1052.9141" fill="#84BE84" rx="3" ry="3" style="stroke:#038048;stroke-width:1.0;"/><text fill="#000000" font-family="sans-serif" font-size="14" lengthAdjust="spacing" textLength="104" x="1346.5" y="1057.1426">ID: NUMBER(10)</text><ellipse cx="1337.5" cy="1070.5234" fill="#84BE84" rx="3" ry="3" style="stroke:#038048;stroke-width:1.0;"/><text fill="#000000" font-family="sans-serif" font-size="14" lengthAdjust="spacing" textLength="151" x="1346.5" y="1074.752">LABEL: VARCHAR2(40)</text></g><!--entity TDB2 Files--><g id="elem_TDB2 Files"><path d="M1597.5,1018.5 L1638.5,1018.5 A3.75,3.75 0 0 1 1641,1021 L1648,1039.5 L1692.5,1039.5 A2.5,2.5 0 0 1 1695,1042 L1695,1071.6094 A2.5,2.5 0 0 1 1692.5,1074.1094 L1597.5,1074.1094 A2.5,2.5 0 0 1 1595,1071.6094 L1595,1021 A2.5,2.5 0 0 1 1597.5,1018.5 " fill="#EEEEEE" style="stroke:#181818;stroke-width:0.5;"/><line style="stroke:#181818;stroke-width:0.5;" x1="1595" x2="1648" y1="1039.5" y2="1039.5"/><text fill="#000000" font-family="sans-serif" font-size="14" lengthAdjust="spacing" textLength="70" x="1605" y="1061.0332">TDB2 Files</text></g><!--class IModelVisitor--><g id="elem_IModelVisitor"><rect codeLine="42" fill="#F1F1F1" height="110.4375" id="IModelVisitor" rx="2.5" ry="2.5" style="stroke:#181818;stroke-width:0.5;" width="175" x="118.5" y="664"/><ellipse cx="160.95" cy="680" fill="#B4A7E5" rx="11" ry="11" style="stroke:#181818;stroke-width:1.0;"/><path d="M161.9031,676.6406 L161.9031,683.2969 L163.6219,683.2969 Q164.2313,683.2969 164.4969,683.5313 Q164.7625,683.7656 164.7625,684.1563 Q164.7625,684.5313 164.4969,684.7656 Q164.2313,685 163.6219,685 L158.4813,685 Q157.8719,685 157.6063,684.7656 Q157.3406,684.5313 157.3406,684.1406 Q157.3406,683.7656 157.6063,683.5313 Q157.8719,683.2969 158.4813,683.2969 L160.2,683.2969 L160.2,676.6406 L158.4813,676.6406 Q157.8719,676.6406 157.6063,676.4063 Q157.3406,676.1719 157.3406,675.7813 Q157.3406,675.4063 157.6063,675.1719 Q157.8719,674.9375 158.4813,674.9375 L163.6219,674.9375 Q164.2313,674.9375 164.4969,675.1719 Q164.7625,675.4063 164.7625,675.7813 Q164.7625,676.1719 164.4969,676.4063 Q164.2313,676.6406 163.6219,676.6406 L161.9031,676.6406 Z " fill="#000000"/><text fill="#000000" font-family="sans-serif" font-size="14" font-style="italic" lengthAdjust="spacing" textLength="82" x="181.05" y="685.7285">IModelVisitor</text><line style="stroke:#181818;stroke-width:0.5;" x1="119.5" x2="292.5" y1="696" y2="696"/><ellipse cx="129.5" cy="710.3047" fill="#84BE84" rx="3" ry="3" style="stroke:#038048;stroke-width:1.0;"/><text fill="#000000" font-family="sans-serif" font-size="14" lengthAdjust="spacing" textLength="149" x="138.5" y="714.5332">accept(model): boolean</text><ellipse cx="129.5" cy="727.9141" fill="#84BE84" rx="3" ry="3" style="stroke:#038048;stroke-width:1.0;"/><text fill="#000000" font-family="sans-serif" font-size="14" lengthAdjust="spacing" textLength="110" x="138.5" y="732.1426">visitModel(model)</text><ellipse cx="129.5" cy="745.5234" fill="#84BE84" rx="3" ry="3" style="stroke:#038048;stroke-width:1.0;"/><text fill="#000000" font-family="sans-serif" font-size="14" lengthAdjust="spacing" textLength="101" x="138.5" y="749.752">visitClass(class)</text><ellipse cx="129.5" cy="763.1328" fill="#84BE84" rx="3" ry="3" style="stroke:#038048;stroke-width:1.0;"/><text fill="#000000" font-family="sans-serif" font-size="14" lengthAdjust="spacing" textLength="146" x="138.5" y="767.3613">visitIndividual(instance)</text></g><!--class SandreEquivalences--><g id="elem_SandreEquivalences"><rect codeLine="49" fill="#F1F1F1" height="32" id="SandreEquivalences" rx="2.5" ry="2.5" style="stroke:#181818;stroke-width:0.5;" width="162" x="329" y="703"/><ellipse cx="344" cy="719" fill="#ADD1B2" rx="11" ry="11" style="stroke:#181818;stroke-width:1.0;"/><path d="M346.7656,714.875 Q346.9219,714.6563 347.1094,714.5469 Q347.2969,714.4375 347.5156,714.4375 Q347.8906,714.4375 348.125,714.6953 Q348.3594,714.9531 348.3594,715.5625 L348.3594,717.0156 Q348.3594,717.625 348.125,717.8906 Q347.8906,718.1563 347.5156,718.1563 Q347.1719,718.1563 346.9688,717.9531 Q346.7656,717.7656 346.6563,717.25 Q346.6094,716.8906 346.4219,716.7031 Q346.0938,716.3281 345.4844,716.1094 Q344.875,715.8906 344.25,715.8906 Q343.4844,715.8906 342.8516,716.2188 Q342.2188,716.5469 341.7266,717.2969 Q341.2344,718.0469 341.2344,719.0781 L341.2344,720.1719 Q341.2344,721.4063 342.125,722.2266 Q343.0156,723.0469 344.6094,723.0469 Q345.5469,723.0469 346.2031,722.7969 Q346.5938,722.6406 347.0156,722.2031 Q347.2813,721.9375 347.4297,721.8594 Q347.5781,721.7813 347.7813,721.7813 Q348.1094,721.7813 348.3672,722.0391 Q348.625,722.2969 348.625,722.6406 Q348.625,722.9844 348.2813,723.3906 Q347.7813,723.9688 346.9844,724.2969 Q345.9063,724.75 344.6094,724.75 Q343.0938,724.75 341.8906,724.125 Q340.9063,723.625 340.2188,722.5547 Q339.5313,721.4844 339.5313,720.2031 L339.5313,719.0469 Q339.5313,717.7188 340.1484,716.5703 Q340.7656,715.4219 341.8594,714.8047 Q342.9531,714.1875 344.1875,714.1875 Q344.9219,714.1875 345.5703,714.3516 Q346.2188,714.5156 346.7656,714.875 Z " fill="#000000"/><text fill="#000000" font-family="sans-serif" font-size="14" lengthAdjust="spacing" textLength="130" x="358" y="724.7285">SandreEquivalences</text></g><!--class EntitiesDao--><g id="elem_EntitiesDao"><rect codeLine="56" fill="#F1F1F1" height="32" id="EntitiesDao" rx="2.5" ry="2.5" style="stroke:#181818;stroke-width:0.5;" width="104" x="1151" y="703"/><ellipse cx="1166" cy="719" fill="#B4A7E5" rx="11" ry="11" style="stroke:#181818;stroke-width:1.0;"/><path d="M1166.9531,715.6406 L1166.9531,722.2969 L1168.6719,722.2969 Q1169.2813,722.2969 1169.5469,722.5313 Q1169.8125,722.7656 1169.8125,723.1563 Q1169.8125,723.5313 1169.5469,723.7656 Q1169.2813,724 1168.6719,724 L1163.5313,724 Q1162.9219,724 1162.6563,723.7656 Q1162.3906,723.5313 1162.3906,723.1406 Q1162.3906,722.7656 1162.6563,722.5313 Q1162.9219,722.2969 1163.5313,722.2969 L1165.25,722.2969 L1165.25,715.6406 L1163.5313,715.6406 Q1162.9219,715.6406 1162.6563,715.4063 Q1162.3906,715.1719 1162.3906,714.7813 Q1162.3906,714.4063 1162.6563,714.1719 Q1162.9219,713.9375 1163.5313,713.9375 L1168.6719,713.9375 Q1169.2813,713.9375 1169.5469,714.1719 Q1169.8125,714.4063 1169.8125,714.7813 Q1169.8125,715.1719 1169.5469,715.4063 Q1169.2813,715.6406 1168.6719,715.6406 L1166.9531,715.6406 Z " fill="#000000"/><text fill="#000000" font-family="sans-serif" font-size="14" font-style="italic" lengthAdjust="spacing" textLength="72" x="1180" y="724.7285">EntitiesDao</text></g><!--class INamedRdfLoader--><g id="elem_INamedRdfLoader"><rect codeLine="63" fill="#F1F1F1" height="32" id="INamedRdfLoader" rx="2.5" ry="2.5" style="stroke:#181818;stroke-width:0.5;" width="148" x="547" y="703"/><ellipse cx="562" cy="719" fill="#B4A7E5" rx="11" ry="11" style="stroke:#181818;stroke-width:1.0;"/><path d="M562.9531,715.6406 L562.9531,722.2969 L564.6719,722.2969 Q565.2813,722.2969 565.5469,722.5313 Q565.8125,722.7656 565.8125,723.1563 Q565.8125,723.5313 565.5469,723.7656 Q565.2813,724 564.6719,724 L559.5313,724 Q558.9219,724 558.6563,723.7656 Q558.3906,723.5313 558.3906,723.1406 Q558.3906,722.7656 558.6563,722.5313 Q558.9219,722.2969 559.5313,722.2969 L561.25,722.2969 L561.25,715.6406 L559.5313,715.6406 Q558.9219,715.6406 558.6563,715.4063 Q558.3906,715.1719 558.3906,714.7813 Q558.3906,714.4063 558.6563,714.1719 Q558.9219,713.9375 559.5313,713.9375 L564.6719,713.9375 Q565.2813,713.9375 565.5469,714.1719 Q565.8125,714.4063 565.8125,714.7813 Q565.8125,715.1719 565.5469,715.4063 Q565.2813,715.6406 564.6719,715.6406 L562.9531,715.6406 Z " fill="#000000"/><text fill="#000000" font-family="sans-serif" font-size="14" font-style="italic" lengthAdjust="spacing" textLength="116" x="576" y="724.7285">INamedRdfLoader</text></g><!--class MnhnTaxonLoader--><g id="elem_MnhnTaxonLoader"><rect codeLine="65" fill="#F1F1F1" height="32" id="MnhnTaxonLoader" rx="2.5" ry="2.5" style="stroke:#181818;stroke-width:0.5;" width="151" x="927.5" y="703"/><ellipse cx="942.5" cy="719" fill="#ADD1B2" rx="11" ry="11" style="stroke:#181818;stroke-width:1.0;"/><path d="M945.2656,714.875 Q945.4219,714.6563 945.6094,714.5469 Q945.7969,714.4375 946.0156,714.4375 Q946.3906,714.4375 946.625,714.6953 Q946.8594,714.9531 946.8594,715.5625 L946.8594,717.0156 Q946.8594,717.625 946.625,717.8906 Q946.3906,718.1563 946.0156,718.1563 Q945.6719,718.1563 945.4688,717.9531 Q945.2656,717.7656 945.1563,717.25 Q945.1094,716.8906 944.9219,716.7031 Q944.5938,716.3281 943.9844,716.1094 Q943.375,715.8906 942.75,715.8906 Q941.9844,715.8906 941.3516,716.2188 Q940.7188,716.5469 940.2266,717.2969 Q939.7344,718.0469 939.7344,719.0781 L939.7344,720.1719 Q939.7344,721.4063 940.625,722.2266 Q941.5156,723.0469 943.1094,723.0469 Q944.0469,723.0469 944.7031,722.7969 Q945.0938,722.6406 945.5156,722.2031 Q945.7813,721.9375 945.9297,721.8594 Q946.0781,721.7813 946.2813,721.7813 Q946.6094,721.7813 946.8672,722.0391 Q947.125,722.2969 947.125,722.6406 Q947.125,722.9844 946.7813,723.3906 Q946.2813,723.9688 945.4844,724.2969 Q944.4063,724.75 943.1094,724.75 Q941.5938,724.75 940.3906,724.125 Q939.4063,723.625 938.7188,722.5547 Q938.0313,721.4844 938.0313,720.2031 L938.0313,719.0469 Q938.0313,717.7188 938.6484,716.5703 Q939.2656,715.4219 940.3594,714.8047 Q941.4531,714.1875 942.6875,714.1875 Q943.4219,714.1875 944.0703,714.3516 Q944.7188,714.5156 945.2656,714.875 Z " fill="#000000"/><text fill="#000000" font-family="sans-serif" font-size="14" lengthAdjust="spacing" textLength="119" x="956.5" y="724.7285">MnhnTaxonLoader</text></g><!--class SandreTaxonLoader--><g id="elem_SandreTaxonLoader"><rect codeLine="66" fill="#F1F1F1" height="32" id="SandreTaxonLoader" rx="2.5" ry="2.5" style="stroke:#181818;stroke-width:0.5;" width="162" x="730" y="703"/><ellipse cx="745" cy="719" fill="#ADD1B2" rx="11" ry="11" style="stroke:#181818;stroke-width:1.0;"/><path d="M747.7656,714.875 Q747.9219,714.6563 748.1094,714.5469 Q748.2969,714.4375 748.5156,714.4375 Q748.8906,714.4375 749.125,714.6953 Q749.3594,714.9531 749.3594,715.5625 L749.3594,717.0156 Q749.3594,717.625 749.125,717.8906 Q748.8906,718.1563 748.5156,718.1563 Q748.1719,718.1563 747.9688,717.9531 Q747.7656,717.7656 747.6563,717.25 Q747.6094,716.8906 747.4219,716.7031 Q747.0938,716.3281 746.4844,716.1094 Q745.875,715.8906 745.25,715.8906 Q744.4844,715.8906 743.8516,716.2188 Q743.2188,716.5469 742.7266,717.2969 Q742.2344,718.0469 742.2344,719.0781 L742.2344,720.1719 Q742.2344,721.4063 743.125,722.2266 Q744.0156,723.0469 745.6094,723.0469 Q746.5469,723.0469 747.2031,722.7969 Q747.5938,722.6406 748.0156,722.2031 Q748.2813,721.9375 748.4297,721.8594 Q748.5781,721.7813 748.7813,721.7813 Q749.1094,721.7813 749.3672,722.0391 Q749.625,722.2969 749.625,722.6406 Q749.625,722.9844 749.2813,723.3906 Q748.7813,723.9688 747.9844,724.2969 Q746.9063,724.75 745.6094,724.75 Q744.0938,724.75 742.8906,724.125 Q741.9063,723.625 741.2188,722.5547 Q740.5313,721.4844 740.5313,720.2031 L740.5313,719.0469 Q740.5313,717.7188 741.1484,716.5703 Q741.7656,715.4219 742.8594,714.8047 Q743.9531,714.1875 745.1875,714.1875 Q745.9219,714.1875 746.5703,714.3516 Q747.2188,714.5156 747.7656,714.875 Z " fill="#000000"/><text fill="#000000" font-family="sans-serif" font-size="14" lengthAdjust="spacing" textLength="130" x="759" y="724.7285">SandreTaxonLoader</text></g><!--class RdfSchemaService--><g id="elem_RdfSchemaService"><rect codeLine="76" fill="#F1F1F1" height="32" id="RdfSchemaService" rx="2.5" ry="2.5" style="stroke:#181818;stroke-width:0.5;" width="151" x="472.5" y="514"/><ellipse cx="487.5" cy="530" fill="#B4A7E5" rx="11" ry="11" style="stroke:#181818;stroke-width:1.0;"/><path d="M488.4531,526.6406 L488.4531,533.2969 L490.1719,533.2969 Q490.7813,533.2969 491.0469,533.5313 Q491.3125,533.7656 491.3125,534.1563 Q491.3125,534.5313 491.0469,534.7656 Q490.7813,535 490.1719,535 L485.0313,535 Q484.4219,535 484.1563,534.7656 Q483.8906,534.5313 483.8906,534.1406 Q483.8906,533.7656 484.1563,533.5313 Q484.4219,533.2969 485.0313,533.2969 L486.75,533.2969 L486.75,526.6406 L485.0313,526.6406 Q484.4219,526.6406 484.1563,526.4063 Q483.8906,526.1719 483.8906,525.7813 Q483.8906,525.4063 484.1563,525.1719 Q484.4219,524.9375 485.0313,524.9375 L490.1719,524.9375 Q490.7813,524.9375 491.0469,525.1719 Q491.3125,525.4063 491.3125,525.7813 Q491.3125,526.1719 491.0469,526.4063 Q490.7813,526.6406 490.1719,526.6406 L488.4531,526.6406 Z " fill="#000000"/><text fill="#000000" font-family="sans-serif" font-size="14" font-style="italic" lengthAdjust="spacing" textLength="119" x="501.5" y="535.7285">RdfSchemaService</text></g><!--class RdfIndividualService--><g id="elem_RdfIndividualService"><rect codeLine="79" fill="#F1F1F1" height="32" id="RdfIndividualService" rx="2.5" ry="2.5" style="stroke:#181818;stroke-width:0.5;" width="159" x="278.5" y="514"/><ellipse cx="293.5" cy="530" fill="#B4A7E5" rx="11" ry="11" style="stroke:#181818;stroke-width:1.0;"/><path d="M294.4531,526.6406 L294.4531,533.2969 L296.1719,533.2969 Q296.7813,533.2969 297.0469,533.5313 Q297.3125,533.7656 297.3125,534.1563 Q297.3125,534.5313 297.0469,534.7656 Q296.7813,535 296.1719,535 L291.0313,535 Q290.4219,535 290.1563,534.7656 Q289.8906,534.5313 289.8906,534.1406 Q289.8906,533.7656 290.1563,533.5313 Q290.4219,533.2969 291.0313,533.2969 L292.75,533.2969 L292.75,526.6406 L291.0313,526.6406 Q290.4219,526.6406 290.1563,526.4063 Q289.8906,526.1719 289.8906,525.7813 Q289.8906,525.4063 290.1563,525.1719 Q290.4219,524.9375 291.0313,524.9375 L296.1719,524.9375 Q296.7813,524.9375 297.0469,525.1719 Q297.3125,525.4063 297.3125,525.7813 Q297.3125,526.1719 297.0469,526.4063 Q296.7813,526.6406 296.1719,526.6406 L294.4531,526.6406 Z " fill="#000000"/><text fill="#000000" font-family="sans-serif" font-size="14" font-style="italic" lengthAdjust="spacing" textLength="127" x="307.5" y="535.7285">RdfIndividualService</text></g><!--class RdfDatasetService--><g id="elem_RdfDatasetService"><rect codeLine="83" fill="#F1F1F1" height="32" id="RdfDatasetService" rx="2.5" ry="2.5" style="stroke:#181818;stroke-width:0.5;" width="149" x="658.5" y="514"/><ellipse cx="673.5" cy="530" fill="#B4A7E5" rx="11" ry="11" style="stroke:#181818;stroke-width:1.0;"/><path d="M674.4531,526.6406 L674.4531,533.2969 L676.1719,533.2969 Q676.7813,533.2969 677.0469,533.5313 Q677.3125,533.7656 677.3125,534.1563 Q677.3125,534.5313 677.0469,534.7656 Q676.7813,535 676.1719,535 L671.0313,535 Q670.4219,535 670.1563,534.7656 Q669.8906,534.5313 669.8906,534.1406 Q669.8906,533.7656 670.1563,533.5313 Q670.4219,533.2969 671.0313,533.2969 L672.75,533.2969 L672.75,526.6406 L671.0313,526.6406 Q670.4219,526.6406 670.1563,526.4063 Q669.8906,526.1719 669.8906,525.7813 Q669.8906,525.4063 670.1563,525.1719 Q670.4219,524.9375 671.0313,524.9375 L676.1719,524.9375 Q676.7813,524.9375 677.0469,525.1719 Q677.3125,525.4063 677.3125,525.7813 Q677.3125,526.1719 677.0469,526.4063 Q676.7813,526.6406 676.1719,526.6406 L674.4531,526.6406 Z " fill="#000000"/><text fill="#000000" font-family="sans-serif" font-size="14" font-style="italic" lengthAdjust="spacing" textLength="117" x="687.5" y="535.7285">RdfDatasetService</text></g><!--class SparqlRestController--><g id="elem_SparqlRestController"><rect codeLine="100" fill="#F1F1F1" height="83.2188" id="SparqlRestController" rx="2.5" ry="2.5" style="stroke:#181818;stroke-width:0.5;" width="192" x="637" y="320"/><ellipse cx="664.6" cy="336" fill="#ADD1B2" rx="11" ry="11" style="stroke:#181818;stroke-width:1.0;"/><path d="M667.3656,331.875 Q667.5219,331.6563 667.7094,331.5469 Q667.8969,331.4375 668.1156,331.4375 Q668.4906,331.4375 668.725,331.6953 Q668.9594,331.9531 668.9594,332.5625 L668.9594,334.0156 Q668.9594,334.625 668.725,334.8906 Q668.4906,335.1563 668.1156,335.1563 Q667.7719,335.1563 667.5688,334.9531 Q667.3656,334.7656 667.2563,334.25 Q667.2094,333.8906 667.0219,333.7031 Q666.6938,333.3281 666.0844,333.1094 Q665.475,332.8906 664.85,332.8906 Q664.0844,332.8906 663.4516,333.2188 Q662.8188,333.5469 662.3266,334.2969 Q661.8344,335.0469 661.8344,336.0781 L661.8344,337.1719 Q661.8344,338.4063 662.725,339.2266 Q663.6156,340.0469 665.2094,340.0469 Q666.1469,340.0469 666.8031,339.7969 Q667.1938,339.6406 667.6156,339.2031 Q667.8813,338.9375 668.0297,338.8594 Q668.1781,338.7813 668.3813,338.7813 Q668.7094,338.7813 668.9672,339.0391 Q669.225,339.2969 669.225,339.6406 Q669.225,339.9844 668.8813,340.3906 Q668.3813,340.9688 667.5844,341.2969 Q666.5063,341.75 665.2094,341.75 Q663.6938,341.75 662.4906,341.125 Q661.5063,340.625 660.8188,339.5547 Q660.1313,338.4844 660.1313,337.2031 L660.1313,336.0469 Q660.1313,334.7188 660.7484,333.5703 Q661.3656,332.4219 662.4594,331.8047 Q663.5531,331.1875 664.7875,331.1875 Q665.5219,331.1875 666.1703,331.3516 Q666.8188,331.5156 667.3656,331.875 Z " fill="#000000"/><text fill="#000000" font-family="sans-serif" font-size="14" lengthAdjust="spacing" textLength="132" x="681.4" y="341.7285">SparqlRestController</text><line style="stroke:#181818;stroke-width:0.5;" x1="638" x2="828" y1="352" y2="352"/><text fill="#000000" font-family="sans-serif" font-size="14" lengthAdjust="spacing" textLength="25" x="643" y="370.5332">The</text><text fill="#000000" font-family="sans-serif" font-size="14" font-weight="bold" lengthAdjust="spacing" textLength="118" x="672" y="370.5332">SparQL endpoint</text><text fill="#000000" font-family="sans-serif" font-size="14" lengthAdjust="spacing" textLength="4" x="790" y="370.5332">,</text><text fill="#000000" font-family="sans-serif" font-size="14" lengthAdjust="spacing" textLength="180" x="643" y="388.1426">with content type negotiation</text><line style="stroke:#181818;stroke-width:1.0;" x1="638" x2="828" y1="395.2188" y2="395.2188"/><line style="stroke:#181818;stroke-width:1.0;" x1="638" x2="828" y1="397.2188" y2="397.2188"/></g><!--class OntologyRestController--><g id="elem_OntologyRestController"><rect codeLine="107" fill="#F1F1F1" height="100.8281" id="OntologyRestController" rx="2.5" ry="2.5" style="stroke:#181818;stroke-width:0.5;" width="439" x="162.5" y="311"/><ellipse cx="303.75" cy="327" fill="#ADD1B2" rx="11" ry="11" style="stroke:#181818;stroke-width:1.0;"/><path d="M306.5156,322.875 Q306.6719,322.6563 306.8594,322.5469 Q307.0469,322.4375 307.2656,322.4375 Q307.6406,322.4375 307.875,322.6953 Q308.1094,322.9531 308.1094,323.5625 L308.1094,325.0156 Q308.1094,325.625 307.875,325.8906 Q307.6406,326.1563 307.2656,326.1563 Q306.9219,326.1563 306.7188,325.9531 Q306.5156,325.7656 306.4063,325.25 Q306.3594,324.8906 306.1719,324.7031 Q305.8438,324.3281 305.2344,324.1094 Q304.625,323.8906 304,323.8906 Q303.2344,323.8906 302.6016,324.2188 Q301.9688,324.5469 301.4766,325.2969 Q300.9844,326.0469 300.9844,327.0781 L300.9844,328.1719 Q300.9844,329.4063 301.875,330.2266 Q302.7656,331.0469 304.3594,331.0469 Q305.2969,331.0469 305.9531,330.7969 Q306.3438,330.6406 306.7656,330.2031 Q307.0313,329.9375 307.1797,329.8594 Q307.3281,329.7813 307.5313,329.7813 Q307.8594,329.7813 308.1172,330.0391 Q308.375,330.2969 308.375,330.6406 Q308.375,330.9844 308.0313,331.3906 Q307.5313,331.9688 306.7344,332.2969 Q305.6563,332.75 304.3594,332.75 Q302.8438,332.75 301.6406,332.125 Q300.6563,331.625 299.9688,330.5547 Q299.2813,329.4844 299.2813,328.2031 L299.2813,327.0469 Q299.2813,325.7188 299.8984,324.5703 Q300.5156,323.4219 301.6094,322.8047 Q302.7031,322.1875 303.9375,322.1875 Q304.6719,322.1875 305.3203,322.3516 Q305.9688,322.5156 306.5156,322.875 Z " fill="#000000"/><text fill="#000000" font-family="sans-serif" font-size="14" lengthAdjust="spacing" textLength="148" x="324.25" y="332.7285">OntologyRestController</text><line style="stroke:#181818;stroke-width:0.5;" x1="163.5" x2="600.5" y1="343" y2="343"/><ellipse cx="173.5" cy="357.3047" fill="#000000" rx="3" ry="3" style="stroke:#000000;stroke-width:1.0;"/><text fill="#000000" font-family="sans-serif" font-size="14" font-weight="bold" lengthAdjust="spacing" textLength="158" x="182.5" y="361.5332">Expose as an ontology</text><text fill="#000000" font-family="sans-serif" font-size="14" lengthAdjust="spacing" textLength="242" x="344.5" y="361.5332">a conceptual model (e.g. used by DB);</text><ellipse cx="173.5" cy="374.9141" fill="#000000" rx="3" ry="3" style="stroke:#000000;stroke-width:1.0;"/><text fill="#000000" font-family="sans-serif" font-size="14" font-weight="bold" lengthAdjust="spacing" textLength="153" x="182.5" y="379.1426">Expose as individuals</text><text fill="#000000" font-family="sans-serif" font-size="14" lengthAdjust="spacing" textLength="256" x="339.5" y="379.1426">a DB content (e.g. referential instances);</text><ellipse cx="173.5" cy="392.5234" fill="#000000" rx="3" ry="3" style="stroke:#000000;stroke-width:1.0;"/><text fill="#000000" font-family="sans-serif" font-size="14" lengthAdjust="spacing" textLength="48" x="182.5" y="396.752">Allow to</text><text fill="#000000" font-family="sans-serif" font-size="14" font-weight="bold" lengthAdjust="spacing" textLength="55" x="234.5" y="396.752">convert</text><text fill="#000000" font-family="sans-serif" font-size="14" lengthAdjust="spacing" textLength="220" x="293.5" y="396.752">any ontology to supported formats.</text><line style="stroke:#181818;stroke-width:1.0;" x1="163.5" x2="600.5" y1="403.8281" y2="403.8281"/><line style="stroke:#181818;stroke-width:1.0;" x1="163.5" x2="600.5" y1="405.8281" y2="405.8281"/></g><!--class VowlRestController--><g id="elem_VowlRestController"><rect codeLine="114" fill="#F1F1F1" height="65.6094" id="VowlRestController" rx="2.5" ry="2.5" style="stroke:#181818;stroke-width:0.5;" width="164" x="864" y="328.5"/><ellipse cx="884.4" cy="344.5" fill="#ADD1B2" rx="11" ry="11" style="stroke:#181818;stroke-width:1.0;"/><path d="M887.1656,340.375 Q887.3219,340.1563 887.5094,340.0469 Q887.6969,339.9375 887.9156,339.9375 Q888.2906,339.9375 888.525,340.1953 Q888.7594,340.4531 888.7594,341.0625 L888.7594,342.5156 Q888.7594,343.125 888.525,343.3906 Q888.2906,343.6563 887.9156,343.6563 Q887.5719,343.6563 887.3688,343.4531 Q887.1656,343.2656 887.0563,342.75 Q887.0094,342.3906 886.8219,342.2031 Q886.4938,341.8281 885.8844,341.6094 Q885.275,341.3906 884.65,341.3906 Q883.8844,341.3906 883.2516,341.7188 Q882.6188,342.0469 882.1266,342.7969 Q881.6344,343.5469 881.6344,344.5781 L881.6344,345.6719 Q881.6344,346.9063 882.525,347.7266 Q883.4156,348.5469 885.0094,348.5469 Q885.9469,348.5469 886.6031,348.2969 Q886.9938,348.1406 887.4156,347.7031 Q887.6813,347.4375 887.8297,347.3594 Q887.9781,347.2813 888.1813,347.2813 Q888.5094,347.2813 888.7672,347.5391 Q889.025,347.7969 889.025,348.1406 Q889.025,348.4844 888.6813,348.8906 Q888.1813,349.4688 887.3844,349.7969 Q886.3063,350.25 885.0094,350.25 Q883.4938,350.25 882.2906,349.625 Q881.3063,349.125 880.6188,348.0547 Q879.9313,346.9844 879.9313,345.7031 L879.9313,344.5469 Q879.9313,343.2188 880.5484,342.0703 Q881.1656,340.9219 882.2594,340.3047 Q883.3531,339.6875 884.5875,339.6875 Q885.3219,339.6875 885.9703,339.8516 Q886.6188,340.0156 887.1656,340.375 Z " fill="#000000"/><text fill="#000000" font-family="sans-serif" font-size="14" lengthAdjust="spacing" textLength="120" x="899.6" y="350.2285">VowlRestController</text><line style="stroke:#181818;stroke-width:0.5;" x1="865" x2="1027" y1="360.5" y2="360.5"/><text fill="#000000" font-family="sans-serif" font-size="14" lengthAdjust="spacing" textLength="152" x="870" y="379.0332">Used by WebVOWL tool</text><line style="stroke:#181818;stroke-width:1.0;" x1="865" x2="1027" y1="386.1094" y2="386.1094"/><line style="stroke:#181818;stroke-width:1.0;" x1="865" x2="1027" y1="388.1094" y2="388.1094"/></g><!--class sandreEndpoint--><g id="elem_sandreEndpoint"><rect codeLine="27" fill="#EEEEEE" height="53.2188" id="sandreEndpoint" rx="2.5" ry="2.5" style="stroke:#181818;stroke-width:0.5;" width="183" x="669.5" y="1020"/><text fill="#000000" font-family="sans-serif" font-size="14" font-style="italic" lengthAdjust="spacing" textLength="46" x="738" y="1039.5332">Sandre</text><line style="stroke:#181818;stroke-width:0.5;" x1="670.5" x2="851.5" y1="1047.6094" y2="1047.6094"/><text fill="#000000" font-family="sans-serif" font-size="14" lengthAdjust="spacing" textLength="171" x="675.5" y="1066.1426">http://id.eaufrance.fr/sparql</text></g><!--class mnhnEndpoint--><g id="elem_mnhnEndpoint"><rect codeLine="32" fill="#EEEEEE" height="53.2188" id="mnhnEndpoint" rx="2.5" ry="2.5" style="stroke:#181818;stroke-width:0.5;" width="178" x="888" y="1020"/><text fill="#000000" font-family="sans-serif" font-size="14" font-style="italic" lengthAdjust="spacing" textLength="42" x="956" y="1039.5332">MNHN</text><line style="stroke:#181818;stroke-width:0.5;" x1="889" x2="1065" y1="1047.6094" y2="1047.6094"/><text fill="#000000" font-family="sans-serif" font-size="14" lengthAdjust="spacing" textLength="166" x="894" y="1066.1426">http://taxref.mnhn.fr/sparql</text></g><!--class client--><g id="elem_client"><rect codeLine="126" fill="#DDDDDD" height="27.6094" id="client" rx="2.5" ry="2.5" style="stroke:#181818;stroke-width:0.5;" width="135" x="665.5" y="7"/><text fill="#000000" font-family="sans-serif" font-size="14" font-style="italic" lengthAdjust="spacing" textLength="129" x="668.5" y="26.5332">Client HTTP request</text></g><!--reverse link IModelVisitor to SandreEquivalences--><g id="link_IModelVisitor_SandreEquivalences"><path codeLine="51" d="M311.66,719 C323.32,719 316.99,719 328.65,719 " fill="none" id="IModelVisitor-backto-SandreEquivalences" style="stroke:#181818;stroke-width:1.0;"/><polygon fill="none" points="293.66,719,311.66,725,311.66,713,293.66,719" style="stroke:#181818;stroke-width:1.0;"/></g><!--link EntitiesDao to TAXON_NAME--><g id="link_EntitiesDao_TAXON_NAME"><path codeLine="58" d="M1203,735.26 C1203,784.6 1203,934.61 1203,1004.75 " fill="none" id="EntitiesDao-to-TAXON_NAME" style="stroke:#181818;stroke-width:1.0;"/><polygon fill="#181818" points="1203,1010.75,1207,1001.75,1203,1005.75,1199,1001.75,1203,1010.75" style="stroke:#181818;stroke-width:1.0;"/><text fill="#000000" font-family="sans-serif" font-size="13" lengthAdjust="spacing" textLength="56" x="1216" y="916.4951">read/write</text><text fill="#000000" font-family="sans-serif" font-size="13" lengthAdjust="spacing" textLength="80" x="1204" y="932.8467">(SQL queries)</text></g><!--link EntitiesDao to DEPARTMENT--><g id="link_EntitiesDao_DEPARTMENT"><path codeLine="59" d="M1203.17,735.16 C1204.41,768.97 1212.36,850.96 1259,894 C1270.41,904.53 1279.75,893.9 1293,902 C1337.36,929.12 1370.448,972.8449 1391.598,1005.9249 " fill="none" id="EntitiesDao-to-DEPARTMENT" style="stroke:#181818;stroke-width:1.0;"/><polygon fill="#181818" points="1394.83,1010.98,1393.352,1001.2427,1392.1366,1006.7674,1386.6119,1005.552,1394.83,1010.98" style="stroke:#181818;stroke-width:1.0;"/><text fill="#000000" font-family="sans-serif" font-size="13" lengthAdjust="spacing" textLength="56" x="1346" y="916.4951">read/write</text><text fill="#000000" font-family="sans-serif" font-size="13" lengthAdjust="spacing" textLength="80" x="1334" y="932.8467">(SQL queries)</text></g><!--link MnhnTaxonLoader to INamedRdfLoader--><g id="link_MnhnTaxonLoader_INamedRdfLoader"><path codeLine="68" d="M994.72,702.99 C979.15,674.86 942.49,617.41 892.5,595 C826.39,565.36 795.47,565.06 729.5,595 C680.27,617.34 653.1552,658.4484 637.8552,686.7284 " fill="none" id="MnhnTaxonLoader-to-INamedRdfLoader" style="stroke:#0000FF;stroke-width:1.0;stroke-dasharray:1.0,3.0;"/><polygon fill="none" points="629.29,702.56,643.1323,689.5835,632.578,683.8734,629.29,702.56" style="stroke:#0000FF;stroke-width:1.0;"/></g><!--reverse link INamedRdfLoader to SandreTaxonLoader--><g id="link_INamedRdfLoader_SandreTaxonLoader"><path codeLine="69" d="M713.22,719 C724.68,719 718.13,719 729.59,719 " fill="none" id="INamedRdfLoader-backto-SandreTaxonLoader" style="stroke:#0000FF;stroke-width:1.0;stroke-dasharray:1.0,3.0;"/><polygon fill="none" points="695.22,719,713.22,725,713.22,713,695.22,719" style="stroke:#0000FF;stroke-width:1.0;"/></g><!--link MnhnTaxonLoader to mnhnEndpoint--><g id="link_MnhnTaxonLoader_mnhnEndpoint"><path codeLine="71" d="M1001.78,735.26 C997.66,786.8 984.7277,948.759 979.5477,1013.619 " fill="none" id="MnhnTaxonLoader-to-mnhnEndpoint" style="stroke:#181818;stroke-width:1.0;"/><polygon fill="#181818" points="979.07,1019.6,983.7738,1010.947,979.4681,1014.6159,975.7992,1010.3101,979.07,1019.6" style="stroke:#181818;stroke-width:1.0;"/><text fill="#000000" font-family="sans-serif" font-size="13" lengthAdjust="spacing" textLength="25" x="1025.5" y="916.4951">read</text><text fill="#000000" font-family="sans-serif" font-size="13" lengthAdjust="spacing" textLength="98" x="989" y="932.8467">(SparQL queries)</text></g><!--link SandreTaxonLoader to sandreEndpoint--><g id="link_SandreTaxonLoader_sandreEndpoint"><path codeLine="72" d="M808.66,735.26 C800.74,786.8 775.8507,948.8095 765.8907,1013.6695 " fill="none" id="SandreTaxonLoader-to-sandreEndpoint" style="stroke:#181818;stroke-width:1.0;"/><polygon fill="#181818" points="764.98,1019.6,770.2997,1011.3114,765.7389,1014.6579,762.3924,1010.0971,764.98,1019.6" style="stroke:#181818;stroke-width:1.0;"/><text fill="#000000" font-family="sans-serif" font-size="13" lengthAdjust="spacing" textLength="25" x="821.5" y="916.4951">read</text><text fill="#000000" font-family="sans-serif" font-size="13" lengthAdjust="spacing" textLength="98" x="785" y="932.8467">(SparQL queries)</text></g><!--link RdfSchemaService to dao--><g id="link_RdfSchemaService_dao"><path codeLine="77" d="M562.09,546.23 C581.33,565.79 617.91,598.78 657,612 C673.16,617.46 1257.91,609.06 1271,620 C1279.3775,627.0025 1284.7825,636.4938 1288.1706,646.8247 C1289.0177,649.4074 1289.7386,652.0426 1290.3485,654.7046 C1290.6534,656.0355 1289.8258,651.4758 1290.077,652.8169 " fill="none" id="RdfSchemaService-to-dao" style="stroke:#181818;stroke-width:1.0;"/><polygon fill="#181818" points="1291.1818,658.7143,1293.4562,649.1316,1290.2611,653.7998,1285.593,650.6047,1291.1818,658.7143" style="stroke:#181818;stroke-width:1.0;"/><text fill="#000000" font-family="sans-serif" font-size="13" lengthAdjust="spacing" textLength="21" x="658" y="600.4951">use</text></g><!--link RdfIndividualService to EntitiesDao--><g id="link_RdfIndividualService_EntitiesDao"><path codeLine="80" d="M360.94,546.16 C365.56,565.32 376.53,597.55 400,612 C432.88,632.25 1059.06,605.89 1095,620 C1138.13,636.94 1171.1631,674.9528 1188.5631,697.9828 " fill="none" id="RdfIndividualService-to-EntitiesDao" style="stroke:#181818;stroke-width:1.0;"/><polygon fill="#181818" points="1192.18,702.77,1189.9461,693.1778,1189.1659,698.7806,1183.5631,698.0004,1192.18,702.77" style="stroke:#181818;stroke-width:1.0;"/><text fill="#000000" font-family="sans-serif" font-size="13" lengthAdjust="spacing" textLength="21" x="401" y="600.4951">use</text></g><!--link RdfDatasetService to TDB2--><g id="link_RdfDatasetService_TDB2"><path codeLine="85" d="M807.55,535.14 C943.39,543.87 1224.72,567.83 1306,620 C1397.95,679.015 1461.18,784.195 1501.5563,875.2113 C1521.7444,920.7194 1536.2191,962.6866 1545.7136,993.5717 C1548.0872,1001.293 1548.5133,1002.5491 1550.2759,1008.7673 " fill="none" id="RdfDatasetService-to-TDB2" style="stroke:#181818;stroke-width:1.0;"/><polygon fill="#181818" points="1551.9122,1014.5399,1553.3062,1004.7902,1550.5486,1009.7294,1545.6094,1006.9718,1551.9122,1014.5399" style="stroke:#181818;stroke-width:1.0;"/><text fill="#000000" font-family="sans-serif" font-size="13" lengthAdjust="spacing" textLength="56" x="1520.5" y="716.4951">read/write</text><text fill="#000000" font-family="sans-serif" font-size="13" lengthAdjust="spacing" textLength="81" x="1508" y="732.8467">(Jena queries)</text></g><!--link RdfDatasetService to INamedRdfLoader--><g id="link_RdfDatasetService_INamedRdfLoader"><path codeLine="86" d="M717.666,556.5959 C696.616,591.7559 654.2431,662.4927 633.2131,697.6027 " fill="none" id="RdfDatasetService-INamedRdfLoader" style="stroke:#181818;stroke-width:1.0;"/><polygon fill="none" points="723.83,546.3,717.316,549.3932,717.666,556.5959,724.1799,553.5026,723.83,546.3" style="stroke:#181818;stroke-width:1.0;"/><polygon fill="#181818" points="630.13,702.75,638.1862,697.0845,632.6992,698.4606,631.3231,692.9737,630.13,702.75" style="stroke:#181818;stroke-width:1.0;"/><text fill="#000000" font-family="sans-serif" font-size="13" lengthAdjust="spacing" textLength="18" x="714.5" y="592.4951">run</text><text fill="#000000" font-family="sans-serif" font-size="13" lengthAdjust="spacing" textLength="35" x="708" y="608.8467">loader</text><text fill="#000000" font-family="sans-serif" font-size="13" lengthAdjust="spacing" textLength="20" x="609.8418" y="692.2705">0..*</text></g><!--reverse link RdfDatasetService to MnhnTaxonLoader--><g id="link_RdfDatasetService_MnhnTaxonLoader"><path codeLine="90" d="M775.3223,548.406 C795.9423,557.166 816.45,566.38 839,578 C871.59,594.79 881.33,597.15 910,620 C942.28,645.73 974.13,682.4 990.89,702.81 " fill="none" id="RdfDatasetService-backto-MnhnTaxonLoader" style="stroke:#181818;stroke-width:1.0;stroke-dasharray:7.0,7.0;"/><polygon fill="#181818" points="769.8,546.06,776.5195,553.2606,774.4019,548.015,779.6475,545.8975,769.8,546.06" style="stroke:#181818;stroke-width:1.0;"/><text fill="#000000" font-family="sans-serif" font-size="13" lengthAdjust="spacing" textLength="43" x="899" y="592.4951">register</text><text fill="#000000" font-family="sans-serif" font-size="13" lengthAdjust="spacing" textLength="21" x="910" y="608.8467">into</text></g><!--reverse link RdfDatasetService to SandreTaxonLoader--><g id="link_RdfDatasetService_SandreTaxonLoader"><path codeLine="91" d="M752.1175,550.8554 C759.9075,559.5354 765,566.45 771,578 C793.02,620.4 804.33,676.5 808.74,702.96 " fill="none" id="RdfDatasetService-backto-SandreTaxonLoader" style="stroke:#181818;stroke-width:1.0;stroke-dasharray:7.0,7.0;"/><polygon fill="#181818" points="748.11,546.39,751.1444,555.7598,751.4496,550.1112,757.0982,550.4164,748.11,546.39" style="stroke:#181818;stroke-width:1.0;"/><text fill="#000000" font-family="sans-serif" font-size="13" lengthAdjust="spacing" textLength="43" x="787" y="592.4951">register</text><text fill="#000000" font-family="sans-serif" font-size="13" lengthAdjust="spacing" textLength="21" x="798" y="608.8467">into</text></g><!--link RdfIndividualService to IModelVisitor--><g id="link_RdfIndividualService_IModelVisitor"><path codeLine="92" d="M266.7915,544.4229 C243.9815,551.2329 232.81,559.15 218,578 C199.31,601.78 195.6011,629.378 197.0611,657.698 " fill="none" id="RdfIndividualService-IModelVisitor" style="stroke:#181818;stroke-width:1.0;"/><polygon fill="none" points="278.29,540.99,271.3965,538.8736,266.7915,544.4229,273.6851,546.5393,278.29,540.99" style="stroke:#181818;stroke-width:1.0;"/><polygon fill="#181818" points="197.37,663.69,200.9013,654.496,197.1126,658.6966,192.9119,654.9079,197.37,663.69" style="stroke:#181818;stroke-width:1.0;"/><text fill="#000000" font-family="sans-serif" font-size="13" lengthAdjust="spacing" textLength="22" x="234" y="592.4951">visit</text><text fill="#000000" font-family="sans-serif" font-size="13" lengthAdjust="spacing" textLength="52" x="219" y="608.8467">individual</text><text fill="#000000" font-family="sans-serif" font-size="13" lengthAdjust="spacing" textLength="20" x="174.983" y="653.068">0..*</text></g><!--reverse link RdfIndividualService to IModelVisitor--><g id="link_RdfIndividualService_IModelVisitor"><path codeLine="95" d="M340.5457,550.575 C332.4557,559.725 326,567.18 317,578 C293.79,605.9 268.61,637.54 248.11,663.68 " fill="none" id="RdfIndividualService-backto-IModelVisitor" style="stroke:#181818;stroke-width:1.0;stroke-dasharray:7.0,7.0;"/><polygon fill="#181818" points="344.52,546.08,335.5619,550.173,341.2081,549.8258,341.5553,555.472,344.52,546.08" style="stroke:#181818;stroke-width:1.0;"/><text fill="#000000" font-family="sans-serif" font-size="13" lengthAdjust="spacing" textLength="43" x="318" y="592.4951">register</text><text fill="#000000" font-family="sans-serif" font-size="13" lengthAdjust="spacing" textLength="21" x="329" y="608.8467">into</text></g><!--link RdfSchemaService to IModelVisitor--><g id="link_RdfSchemaService_IModelVisitor"><path codeLine="93" d="M508.4211,551.9134 C492.8211,560.5134 484.06,566.12 468,578 C450.05,591.29 451.53,603.2 431,612 C381.87,633.05 360.05,598.76 311,620 C288.23,629.86 271.5402,642.6149 254.4602,659.7149 " fill="none" id="RdfSchemaService-IModelVisitor" style="stroke:#181818;stroke-width:1.0;"/><polygon fill="none" points="518.93,546.12,511.7444,545.5137,508.4211,551.9134,515.6067,552.5196,518.93,546.12" style="stroke:#181818;stroke-width:1.0;"/><polygon fill="#181818" points="250.22,663.96,259.4103,660.4191,253.7535,660.4224,253.7502,654.7655,250.22,663.96" style="stroke:#181818;stroke-width:1.0;"/><text fill="#000000" font-family="sans-serif" font-size="13" lengthAdjust="spacing" textLength="22" x="475.5" y="592.4951">visit</text><text fill="#000000" font-family="sans-serif" font-size="13" lengthAdjust="spacing" textLength="35" x="469" y="608.8467">model</text><text fill="#000000" font-family="sans-serif" font-size="13" lengthAdjust="spacing" textLength="20" x="234.8183" y="652.9783">0..*</text></g><!--reverse link RdfSchemaService to IModelVisitor--><g id="link_RdfSchemaService_IModelVisitor"><path codeLine="94" d="M544.3175,551.8921 C540.3275,570.9021 531.7,597.09 509,612 C490.6,624.09 331.32,611.51 311,620 C287.99,629.61 266.94,646.67 249.82,663.88 " fill="none" id="RdfSchemaService-backto-IModelVisitor" style="stroke:#181818;stroke-width:1.0;stroke-dasharray:7.0,7.0;"/><polygon fill="#181818" points="545.55,546.02,539.7866,554.0064,544.5229,550.9134,547.616,555.6497,545.55,546.02" style="stroke:#181818;stroke-width:1.0;"/><text fill="#000000" font-family="sans-serif" font-size="13" lengthAdjust="spacing" textLength="43" x="537" y="592.4951">register</text><text fill="#000000" font-family="sans-serif" font-size="13" lengthAdjust="spacing" textLength="21" x="548" y="608.8467">into</text></g><!--link SparqlRestController to RdfDatasetService--><g id="link_SparqlRestController_RdfDatasetService"><path codeLine="119" d="M733,403.23 C733,439.04 733,483.21 733,507.97 " fill="none" id="SparqlRestController-to-RdfDatasetService" style="stroke:#181818;stroke-width:1.0;"/><polygon fill="#181818" points="733,513.97,737,504.97,733,508.97,729,504.97,733,513.97" style="stroke:#181818;stroke-width:1.0;"/><text fill="#000000" font-family="sans-serif" font-size="13" lengthAdjust="spacing" textLength="21" x="734" y="458.4951">use</text></g><!--link OntologyRestController to RdfSchemaService--><g id="link_OntologyRestController_RdfSchemaService"><path codeLine="120" d="M431.36,412 C465.95,446.71 505.7039,486.5709 528.5039,509.4409 " fill="none" id="OntologyRestController-to-RdfSchemaService" style="stroke:#181818;stroke-width:1.0;"/><polygon fill="#181818" points="532.74,513.69,529.2186,504.4922,529.2099,510.1491,523.553,510.1404,532.74,513.69" style="stroke:#181818;stroke-width:1.0;"/><text fill="#000000" font-family="sans-serif" font-size="13" lengthAdjust="spacing" textLength="21" x="481" y="458.4951">use</text></g><!--link OntologyRestController to RdfIndividualService--><g id="link_OntologyRestController_RdfIndividualService"><path codeLine="121" d="M374.86,412 C369.86,446.71 364.3543,484.8811 361.0643,507.7511 " fill="none" id="OntologyRestController-to-RdfIndividualService" style="stroke:#181818;stroke-width:1.0;"/><polygon fill="#181818" points="360.21,513.69,365.4508,505.3513,360.922,508.7409,357.5323,504.2121,360.21,513.69" style="stroke:#181818;stroke-width:1.0;"/><text fill="#000000" font-family="sans-serif" font-size="13" lengthAdjust="spacing" textLength="21" x="371" y="458.4951">use</text></g><!--link client to SparqlRestController--><g id="link_client_SparqlRestController"><path codeLine="129" d="M733,35.27 C733,82.51 733,237.76 733,313.97 " fill="none" id="client-to-SparqlRestController" style="stroke:#181818;stroke-width:1.0;"/><polygon fill="#181818" points="733,319.97,737,310.97,733,314.97,729,310.97,733,319.97" style="stroke:#181818;stroke-width:1.0;"/><text fill="#000000" font-family="sans-serif" font-size="13" lengthAdjust="spacing" textLength="39" x="734" y="79.4951">/sparql</text></g><!--link client to VowlRestController--><g id="link_client_VowlRestController"><path codeLine="130" d="M766.68,35.07 C791.93,46.41 825.67,65.11 847,91 C906.44,163.12 930.8979,268.2577 940.2779,322.5177 " fill="none" id="client-to-VowlRestController" style="stroke:#181818;stroke-width:1.0;"/><polygon fill="#181818" points="941.3,328.43,943.7084,318.8802,940.4483,323.5031,935.8254,320.2429,941.3,328.43" style="stroke:#181818;stroke-width:1.0;"/><text fill="#000000" font-family="sans-serif" font-size="13" lengthAdjust="spacing" textLength="46" x="839" y="79.4951">/webowl</text></g><!--link client to OntologyRestController--><g id="link_client_OntologyRestController"><path codeLine="131" d="M706.14,35.24 C682.03,47.81 646.32,68.13 619,91 C538.61,158.28 465.1396,248.7547 421.7296,306.1447 " fill="none" id="client-to-OntologyRestController" style="stroke:#181818;stroke-width:1.0;"/><polygon fill="#181818" points="418.11,310.93,426.7295,306.1652,421.1263,306.9423,420.3492,301.3391,418.11,310.93" style="stroke:#181818;stroke-width:1.0;"/><text fill="#000000" font-family="sans-serif" font-size="13" lengthAdjust="spacing" textLength="53" x="656" y="79.4951">/ontology</text></g></g></svg>