<?xml version="1.0" encoding="UTF-8" standalone="no"?><svg xmlns="http://www.w3.org/2000/svg" xmlns:xlink="http://www.w3.org/1999/xlink" contentScriptType="application/ecmascript" contentStyleType="text/css" height="354px" preserveAspectRatio="none" style="width:708px;height:354px;" version="1.1" viewBox="0 0 708 354" width="708px" zoomAndPan="magnify"><defs><filter height="300%" id="fh1f3and7pp9w" width="300%" x="-1" y="-1"><feGaussianBlur result="blurOut" stdDeviation="2.0"/><feColorMatrix in="blurOut" result="blurOut2" type="matrix" values="0 0 0 0 0 0 0 0 0 0 0 0 0 0 0 0 0 0 .4 0"/><feOffset dx="4.0" dy="4.0" in="blurOut2" result="blurOut3"/><feBlend in="SourceGraphic" in2="blurOut3" mode="normal"/></filter></defs><g><!--MD5=[95566c14aa2c007e871ef9bf05e5f603]
cluster referential--><polygon fill="#DDDDDD" filter="url(#fh1f3and7pp9w)" points="431.5,92,520.5,92,527.5,114.2969,686.5,114.2969,686.5,194,431.5,194,431.5,92" style="stroke: #000000; stroke-width: 1.5;"/><line style="stroke: #000000; stroke-width: 1.5;" x1="431.5" x2="527.5" y1="114.2969" y2="114.2969"/><text fill="#000000" font-family="sans-serif" font-size="14" font-weight="bold" lengthAdjust="spacingAndGlyphs" textLength="83" x="435.5" y="106.9951">referential</text><!--MD5=[0893684415111cf89975a9f5abae587e]
class ReferentialItem--><rect fill="#FEFECE" filter="url(#fh1f3and7pp9w)" height="48" id="ReferentialItem" style="stroke: #A80036; stroke-width: 1.5;" width="128" x="439.5" y="138"/><ellipse cx="454.5" cy="154" fill="#B4A7E5" rx="11" ry="11" style="stroke: #A80036; stroke-width: 1.0;"/><path d="M450.4219,149.7656 L450.4219,147.6094 L457.8125,147.6094 L457.8125,149.7656 L455.3438,149.7656 L455.3438,157.8438 L457.8125,157.8438 L457.8125,160 L450.4219,160 L450.4219,157.8438 L452.8906,157.8438 L452.8906,149.7656 L450.4219,149.7656 Z "/><text fill="#000000" font-family="sans-serif" font-size="12" font-style="italic" lengthAdjust="spacingAndGlyphs" textLength="96" x="468.5" y="158.1543">ReferentialItem</text><line style="stroke: #A80036; stroke-width: 1.5;" x1="440.5" x2="566.5" y1="170" y2="170"/><line style="stroke: #A80036; stroke-width: 1.5;" x1="440.5" x2="566.5" y1="178" y2="178"/><!--MD5=[09ce52be0ee7de43c61b6e2d59bf108b]
class Person--><rect fill="#FEFECE" filter="url(#fh1f3and7pp9w)" height="48" id="Person" style="stroke: #A80036; stroke-width: 1.5;" width="76" x="602.5" y="138"/><ellipse cx="617.5" cy="154" fill="#ADD1B2" rx="11" ry="11" style="stroke: #A80036; stroke-width: 1.0;"/><path d="M620.4688,159.6406 Q619.8906,159.9375 619.25,160.0781 Q618.6094,160.2344 617.9063,160.2344 Q615.4063,160.2344 614.0781,158.5938 Q612.7656,156.9375 612.7656,153.8125 Q612.7656,150.6875 614.0781,149.0313 Q615.4063,147.375 617.9063,147.375 Q618.6094,147.375 619.25,147.5313 Q619.9063,147.6875 620.4688,147.9844 L620.4688,150.7031 Q619.8438,150.125 619.25,149.8594 Q618.6563,149.5781 618.0313,149.5781 Q616.6875,149.5781 616,150.6563 Q615.3125,151.7188 615.3125,153.8125 Q615.3125,155.9063 616,156.9844 Q616.6875,158.0469 618.0313,158.0469 Q618.6563,158.0469 619.25,157.7813 Q619.8438,157.5 620.4688,156.9219 L620.4688,159.6406 Z "/><text fill="#000000" font-family="sans-serif" font-size="12" lengthAdjust="spacingAndGlyphs" textLength="44" x="631.5" y="158.1543">Person</text><line style="stroke: #A80036; stroke-width: 1.5;" x1="603.5" x2="677.5" y1="170" y2="170"/><line style="stroke: #A80036; stroke-width: 1.5;" x1="603.5" x2="677.5" y1="178" y2="178"/><!--MD5=[22d7e1c8e6d36bc73d6604cf11a0ab9d]
class RootData--><rect fill="#FEFECE" filter="url(#fh1f3and7pp9w)" height="112.0234" id="RootData" style="stroke: #A80036; stroke-width: 1.5;" width="217" x="136" y="106"/><ellipse cx="210.75" cy="122" fill="#B4A7E5" rx="11" ry="11" style="stroke: #A80036; stroke-width: 1.0;"/><path d="M206.6719,117.7656 L206.6719,115.6094 L214.0625,115.6094 L214.0625,117.7656 L211.5938,117.7656 L211.5938,125.8438 L214.0625,125.8438 L214.0625,128 L206.6719,128 L206.6719,125.8438 L209.1406,125.8438 L209.1406,117.7656 L206.6719,117.7656 Z "/><text fill="#000000" font-family="sans-serif" font-size="12" font-style="italic" lengthAdjust="spacingAndGlyphs" textLength="59" x="231.25" y="126.1543">RootData</text><line style="stroke: #A80036; stroke-width: 1.5;" x1="137" x2="352" y1="138" y2="138"/><ellipse cx="147" cy="149" fill="none" rx="3" ry="3" style="stroke: #038048; stroke-width: 1.0;"/><text fill="#000000" font-family="sans-serif" font-size="11" lengthAdjust="spacingAndGlyphs" textLength="32" x="156" y="152.2104">id: Int</text><ellipse cx="147" cy="161.8047" fill="none" rx="3" ry="3" style="stroke: #038048; stroke-width: 1.0;"/><text fill="#000000" font-family="sans-serif" font-size="11" lengthAdjust="spacingAndGlyphs" textLength="106" x="156" y="165.0151">program: Program</text><ellipse cx="147" cy="174.6094" fill="none" rx="3" ry="3" style="stroke: #038048; stroke-width: 1.0;"/><text fill="#000000" font-family="sans-serif" font-size="11" lengthAdjust="spacingAndGlyphs" textLength="137" x="156" y="177.8198">updateDate: Timestamp</text><ellipse cx="147" cy="187.4141" fill="none" rx="3" ry="3" style="stroke: #038048; stroke-width: 1.0;"/><text fill="#000000" font-family="sans-serif" font-size="11" lengthAdjust="spacingAndGlyphs" textLength="191" x="156" y="190.6245">recorderDepartment: Department</text><ellipse cx="147" cy="200.2188" fill="none" rx="3" ry="3" style="stroke: #038048; stroke-width: 1.0;"/><text fill="#000000" font-family="sans-serif" font-size="11" lengthAdjust="spacingAndGlyphs" textLength="167" x="156" y="203.4292">recorderPerson: Person[0..1]</text><line style="stroke: #A80036; stroke-width: 1.5;" x1="137" x2="352" y1="210.0234" y2="210.0234"/><!--MD5=[63b0a1d57ec7d75b43485fc56d956ebe]
class ChildData--><rect fill="#FEFECE" filter="url(#fh1f3and7pp9w)" height="48" id="ChildData" style="stroke: #A80036; stroke-width: 1.5;" width="92" x="198.5" y="295"/><ellipse cx="213.5" cy="311" fill="#B4A7E5" rx="11" ry="11" style="stroke: #A80036; stroke-width: 1.0;"/><path d="M209.4219,306.7656 L209.4219,304.6094 L216.8125,304.6094 L216.8125,306.7656 L214.3438,306.7656 L214.3438,314.8438 L216.8125,314.8438 L216.8125,317 L209.4219,317 L209.4219,314.8438 L211.8906,314.8438 L211.8906,306.7656 L209.4219,306.7656 Z "/><text fill="#000000" font-family="sans-serif" font-size="12" font-style="italic" lengthAdjust="spacingAndGlyphs" textLength="60" x="227.5" y="315.1543">ChildData</text><line style="stroke: #A80036; stroke-width: 1.5;" x1="199.5" x2="289.5" y1="327" y2="327"/><line style="stroke: #A80036; stroke-width: 1.5;" x1="199.5" x2="289.5" y1="335" y2="335"/><!--MD5=[ed239cddac1bd0ea702000b0a8aa8225]
class Vessel--><rect fill="#FEFECE" filter="url(#fh1f3and7pp9w)" height="48" id="Vessel" style="stroke: #A80036; stroke-width: 1.5;" width="73" x="6" y="138"/><ellipse cx="21" cy="154" fill="#ADD1B2" rx="11" ry="11" style="stroke: #A80036; stroke-width: 1.0;"/><path d="M23.9688,159.6406 Q23.3906,159.9375 22.75,160.0781 Q22.1094,160.2344 21.4063,160.2344 Q18.9063,160.2344 17.5781,158.5938 Q16.2656,156.9375 16.2656,153.8125 Q16.2656,150.6875 17.5781,149.0313 Q18.9063,147.375 21.4063,147.375 Q22.1094,147.375 22.75,147.5313 Q23.4063,147.6875 23.9688,147.9844 L23.9688,150.7031 Q23.3438,150.125 22.75,149.8594 Q22.1563,149.5781 21.5313,149.5781 Q20.1875,149.5781 19.5,150.6563 Q18.8125,151.7188 18.8125,153.8125 Q18.8125,155.9063 19.5,156.9844 Q20.1875,158.0469 21.5313,158.0469 Q22.1563,158.0469 22.75,157.7813 Q23.3438,157.5 23.9688,156.9219 L23.9688,159.6406 Z "/><text fill="#000000" font-family="sans-serif" font-size="12" lengthAdjust="spacingAndGlyphs" textLength="41" x="35" y="158.1543">Vessel</text><line style="stroke: #A80036; stroke-width: 1.5;" x1="7" x2="78" y1="170" y2="170"/><line style="stroke: #A80036; stroke-width: 1.5;" x1="7" x2="78" y1="178" y2="178"/><!--MD5=[b233b0b3a5a72f0b75f989d2711fc120]
reverse link Vessel to RootData--><path d="M84.149,162 C99.4219,162 117.501,162 135.9182,162 " fill="none" id="Vessel&lt;-RootData" style="stroke: #A80036; stroke-width: 1.0;"/><polygon fill="#A80036" points="79.0807,162,88.0807,166,84.0807,162,88.0807,158,79.0807,162" style="stroke: #A80036; stroke-width: 1.0;"/><text fill="#000000" font-family="sans-serif" font-size="13" lengthAdjust="spacingAndGlyphs" textLength="0" x="117.5" y="155.0669"/><text fill="#000000" font-family="sans-serif" font-size="13" lengthAdjust="spacingAndGlyphs" textLength="24" x="87.1269" y="176.5733">0..1</text><text fill="#000000" font-family="sans-serif" font-size="13" lengthAdjust="spacingAndGlyphs" textLength="0" x="101.1269" y="191.7061"/><text fill="#000000" font-family="sans-serif" font-size="13" lengthAdjust="spacingAndGlyphs" textLength="7" x="121.0374" y="158.5434">*</text><!--MD5=[353fff1cd3dfd70294028a351b7d4c23]
link RootData to ChildData--><path d="M244.5,218.2372 C244.5,242.3065 244.5,269.4199 244.5,289.4538 " fill="none" id="RootData-&gt;ChildData" style="stroke: #A80036; stroke-width: 1.0;"/><polygon fill="#A80036" points="244.5,294.6477,248.5,285.6477,244.5,289.6477,240.5,285.6477,244.5,294.6477" style="stroke: #A80036; stroke-width: 1.0;"/><text fill="#000000" font-family="sans-serif" font-size="13" lengthAdjust="spacingAndGlyphs" textLength="0" x="265.5" y="261.0669"/><text fill="#000000" font-family="sans-serif" font-size="13" lengthAdjust="spacingAndGlyphs" textLength="8" x="236.0125" y="238.0787">1</text><text fill="#000000" font-family="sans-serif" font-size="13" lengthAdjust="spacingAndGlyphs" textLength="23" x="219.1281" y="268.6256">0..*</text><text fill="#000000" font-family="sans-serif" font-size="13" lengthAdjust="spacingAndGlyphs" textLength="0" x="232.6281" y="283.7584"/><!--MD5=[a741d63845e1d06b711e782f350c2664]
link RootData to Person--><path d="M344.2309,105.9459 C370.2279,94.0126 398.7537,83.1599 426.5,77 C495.7933,61.6164 526.1694,53.0372 585.5,92 C601.4222,102.4562 614.7615,119.0695 624.3144,133.4877 " fill="none" id="RootData-&gt;Person" style="stroke: #A80036; stroke-width: 1.0;"/><polygon fill="#A80036" points="627.1561,137.8825,625.6281,128.1529,624.4411,133.6838,618.9102,132.4969,627.1561,137.8825" style="stroke: #A80036; stroke-width: 1.0;"/><text fill="#000000" font-family="sans-serif" font-size="13" lengthAdjust="spacingAndGlyphs" textLength="0" x="527.5" y="72.0669"/><text fill="#000000" font-family="sans-serif" font-size="13" lengthAdjust="spacingAndGlyphs" textLength="8" x="348.4964" y="94.8769">1</text><text fill="#000000" font-family="sans-serif" font-size="13" lengthAdjust="spacingAndGlyphs" textLength="23" x="592.8142" y="111.8496">1..*</text><text fill="#000000" font-family="sans-serif" font-size="13" lengthAdjust="spacingAndGlyphs" textLength="63" x="572.8142" y="126.9824">observers</text><!--MD5=[200659ab2641edc7e3de5137d147d627]
link RootData to ReferentialItem--><path d="M353.2136,162 C380.6126,162 409.2864,162 434.1551,162 " fill="none" id="RootData-&gt;ReferentialItem" style="stroke: #A80036; stroke-width: 1.0;"/><polygon fill="#A80036" points="439.4022,162,430.4022,158,434.4022,162,430.4022,166,439.4022,162" style="stroke: #A80036; stroke-width: 1.0;"/><text fill="#000000" font-family="sans-serif" font-size="13" lengthAdjust="spacingAndGlyphs" textLength="50" x="371.25" y="155.0669">use any</text></g></svg>