<?xml version="1.0" encoding="UTF-8" standalone="no"?><svg xmlns="http://www.w3.org/2000/svg" xmlns:xlink="http://www.w3.org/1999/xlink" contentStyleType="text/css" height="468px" preserveAspectRatio="none" style="width:791px;height:468px;background:#FFFFFF;" version="1.1" viewBox="0 0 791 468" width="791px" zoomAndPan="magnify"><defs/><g><!--MD5=[6d2d41d62e396074ac0a64a12a76cdad]
class DailyActivityCalendar--><g id="elem_DailyActivityCalendar"><rect codeLine="3" fill="#F1F1F1" height="249.7471" id="DailyActivityCalendar" rx="2.5" ry="2.5" style="stroke:#181818;stroke-width:0.5;" width="273" x="155" y="118"/><ellipse cx="216.25" cy="134" fill="#ADD1B2" rx="11" ry="11" style="stroke:#181818;stroke-width:1.0;"/><path d="M215.7188,140.9219 Q213.9688,140.9219 212.8281,140.1875 Q211.7031,139.4375 211.1406,138.0938 Q210.5938,136.7344 210.5938,134.9375 Q210.5938,132.9063 211.25,131.4531 Q211.9063,130 213.1875,129.2188 Q214.4688,128.4375 216.3438,128.4375 Q217.2344,128.4375 217.9063,128.625 Q218.5781,128.7969 219.2656,129.1406 L218.4531,131.1563 Q217.8281,130.8438 217.2813,130.7188 Q216.75,130.5938 216.2656,130.5938 Q215.0938,130.5938 214.3906,131.125 Q213.6875,131.6563 213.3906,132.6094 Q213.0938,133.5625 213.0938,134.8281 Q213.0938,136.8438 213.8125,137.8125 Q214.5313,138.7656 216.125,138.7656 Q216.7188,138.7656 217.3438,138.6094 Q217.9688,138.4531 218.7969,138.0781 L218.7969,140.2969 Q218.0625,140.6094 217.2656,140.7656 Q216.4844,140.9219 215.7188,140.9219 Z " fill="#000000"/><text fill="#000000" font-family="sans-serif" font-size="14" lengthAdjust="spacing" textLength="142" x="236.75" y="139.432">DailyActivityCalendar</text><line style="stroke:#181818;stroke-width:0.5;" x1="156" x2="427" y1="150" y2="150"/><ellipse cx="166" cy="165.034" fill="none" rx="3" ry="3" style="stroke:#038048;stroke-width:1.0;"/><text fill="#000000" font-family="sans-serif" font-size="14" lengthAdjust="spacing" textLength="75" x="175" y="168.9659">id : Integer</text><ellipse cx="166" cy="184.1019" fill="none" rx="3" ry="3" style="stroke:#038048;stroke-width:1.0;"/><text fill="#000000" font-family="sans-serif" font-size="14" lengthAdjust="spacing" textLength="129" x="175" y="188.0339">program : Program</text><ellipse cx="166" cy="203.1698" fill="none" rx="3" ry="3" style="stroke:#038048;stroke-width:1.0;"/><text fill="#000000" font-family="sans-serif" font-size="14" lengthAdjust="spacing" textLength="105" x="175" y="207.1018">startDate : Date</text><ellipse cx="166" cy="222.2377" fill="none" rx="3" ry="3" style="stroke:#038048;stroke-width:1.0;"/><text fill="#000000" font-family="sans-serif" font-size="14" lengthAdjust="spacing" textLength="100" x="175" y="226.1697">endDate : Date</text><ellipse cx="166" cy="241.3056" fill="none" rx="3" ry="3" style="stroke:#038048;stroke-width:1.0;"/><text fill="#000000" font-family="sans-serif" font-size="14" lengthAdjust="spacing" textLength="161" x="175" y="245.2376">comments : String [0..1]</text><ellipse cx="166" cy="260.3735" fill="none" rx="3" ry="3" style="stroke:#038048;stroke-width:1.0;"/><text fill="#000000" font-family="sans-serif" font-size="14" lengthAdjust="spacing" textLength="203" x="175" y="264.3055">controlDate : Timestamp [0..1]</text><ellipse cx="166" cy="279.4415" fill="none" rx="3" ry="3" style="stroke:#038048;stroke-width:1.0;"/><text fill="#000000" font-family="sans-serif" font-size="14" lengthAdjust="spacing" textLength="222" x="175" y="283.3734">validationDate : Timestamp [0..1]</text><ellipse cx="166" cy="298.5094" fill="none" rx="3" ry="3" style="stroke:#038048;stroke-width:1.0;"/><text fill="#000000" font-family="sans-serif" font-size="14" lengthAdjust="spacing" textLength="240" x="175" y="302.4414">qualificationDate : Timestamp [0..1]</text><ellipse cx="166" cy="317.5773" fill="none" rx="3" ry="3" style="stroke:#038048;stroke-width:1.0;"/><text fill="#000000" font-family="sans-serif" font-size="14" lengthAdjust="spacing" textLength="247" x="175" y="321.5093">qualificationComments : String [0..1]</text><ellipse cx="166" cy="336.6452" fill="none" rx="3" ry="3" style="stroke:#038048;stroke-width:1.0;"/><text fill="#000000" font-family="sans-serif" font-size="14" lengthAdjust="spacing" textLength="173" x="175" y="340.5772">creationDate : Timestamp</text><ellipse cx="166" cy="355.7131" fill="none" rx="3" ry="3" style="stroke:#038048;stroke-width:1.0;"/><text fill="#000000" font-family="sans-serif" font-size="14" lengthAdjust="spacing" textLength="166" x="175" y="359.6451">updateDate : Timestamp</text></g><!--MD5=[bc5a46d077ad07d5fde31ea48a6a1d6d]
class QualityFlag--><g id="elem_QualityFlag"><rect fill="#F1F1F1" height="32" id="QualityFlag" rx="2.5" ry="2.5" style="stroke:#181818;stroke-width:0.5;" width="108" x="357.5" y="7"/><ellipse cx="372.5" cy="23" fill="#ADD1B2" rx="11" ry="11" style="stroke:#181818;stroke-width:1.0;"/><path d="M371.9688,29.9219 Q370.2188,29.9219 369.0781,29.1875 Q367.9531,28.4375 367.3906,27.0938 Q366.8438,25.7344 366.8438,23.9375 Q366.8438,21.9063 367.5,20.4531 Q368.1563,19 369.4375,18.2188 Q370.7188,17.4375 372.5938,17.4375 Q373.4844,17.4375 374.1563,17.625 Q374.8281,17.7969 375.5156,18.1406 L374.7031,20.1563 Q374.0781,19.8438 373.5313,19.7188 Q373,19.5938 372.5156,19.5938 Q371.3438,19.5938 370.6406,20.125 Q369.9375,20.6563 369.6406,21.6094 Q369.3438,22.5625 369.3438,23.8281 Q369.3438,25.8438 370.0625,26.8125 Q370.7813,27.7656 372.375,27.7656 Q372.9688,27.7656 373.5938,27.6094 Q374.2188,27.4531 375.0469,27.0781 L375.0469,29.2969 Q374.3125,29.6094 373.5156,29.7656 Q372.7344,29.9219 371.9688,29.9219 Z " fill="#000000"/><text fill="#000000" font-family="sans-serif" font-size="14" lengthAdjust="spacing" textLength="76" x="386.5" y="28.432">QualityFlag</text></g><!--MD5=[ed239cddac1bd0ea702000b0a8aa8225]
class Vessel--><g id="elem_Vessel"><rect fill="#F1F1F1" height="32" id="Vessel" rx="2.5" ry="2.5" style="stroke:#181818;stroke-width:0.5;" width="74" x="248.5" y="7"/><ellipse cx="263.5" cy="23" fill="#ADD1B2" rx="11" ry="11" style="stroke:#181818;stroke-width:1.0;"/><path d="M262.9688,29.9219 Q261.2188,29.9219 260.0781,29.1875 Q258.9531,28.4375 258.3906,27.0938 Q257.8438,25.7344 257.8438,23.9375 Q257.8438,21.9063 258.5,20.4531 Q259.1563,19 260.4375,18.2188 Q261.7188,17.4375 263.5938,17.4375 Q264.4844,17.4375 265.1563,17.625 Q265.8281,17.7969 266.5156,18.1406 L265.7031,20.1563 Q265.0781,19.8438 264.5313,19.7188 Q264,19.5938 263.5156,19.5938 Q262.3438,19.5938 261.6406,20.125 Q260.9375,20.6563 260.6406,21.6094 Q260.3438,22.5625 260.3438,23.8281 Q260.3438,25.8438 261.0625,26.8125 Q261.7813,27.7656 263.375,27.7656 Q263.9688,27.7656 264.5938,27.6094 Q265.2188,27.4531 266.0469,27.0781 L266.0469,29.2969 Q265.3125,29.6094 264.5156,29.7656 Q263.7344,29.9219 262.9688,29.9219 Z " fill="#000000"/><text fill="#000000" font-family="sans-serif" font-size="14" lengthAdjust="spacing" textLength="42" x="277.5" y="28.432">Vessel</text></g><!--MD5=[c50d89439a12e948b363c4efab1c487c]
class Department--><g id="elem_Department"><rect fill="#F1F1F1" height="32" id="Department" rx="2.5" ry="2.5" style="stroke:#181818;stroke-width:0.5;" width="113" x="671" y="227"/><ellipse cx="686" cy="243" fill="#ADD1B2" rx="11" ry="11" style="stroke:#181818;stroke-width:1.0;"/><path d="M685.4688,249.9219 Q683.7188,249.9219 682.5781,249.1875 Q681.4531,248.4375 680.8906,247.0938 Q680.3438,245.7344 680.3438,243.9375 Q680.3438,241.9063 681,240.4531 Q681.6563,239 682.9375,238.2188 Q684.2188,237.4375 686.0938,237.4375 Q686.9844,237.4375 687.6563,237.625 Q688.3281,237.7969 689.0156,238.1406 L688.2031,240.1563 Q687.5781,239.8438 687.0313,239.7188 Q686.5,239.5938 686.0156,239.5938 Q684.8438,239.5938 684.1406,240.125 Q683.4375,240.6563 683.1406,241.6094 Q682.8438,242.5625 682.8438,243.8281 Q682.8438,245.8438 683.5625,246.8125 Q684.2813,247.7656 685.875,247.7656 Q686.4688,247.7656 687.0938,247.6094 Q687.7188,247.4531 688.5469,247.0781 L688.5469,249.2969 Q687.8125,249.6094 687.0156,249.7656 Q686.2344,249.9219 685.4688,249.9219 Z " fill="#000000"/><text fill="#000000" font-family="sans-serif" font-size="14" lengthAdjust="spacing" textLength="81" x="700" y="248.432">Department</text></g><!--MD5=[09ce52be0ee7de43c61b6e2d59bf108b]
class Person--><g id="elem_Person"><rect fill="#F1F1F1" height="32" id="Person" rx="2.5" ry="2.5" style="stroke:#181818;stroke-width:0.5;" width="78" x="557.5" y="227"/><ellipse cx="572.5" cy="243" fill="#ADD1B2" rx="11" ry="11" style="stroke:#181818;stroke-width:1.0;"/><path d="M571.9688,249.9219 Q570.2188,249.9219 569.0781,249.1875 Q567.9531,248.4375 567.3906,247.0938 Q566.8438,245.7344 566.8438,243.9375 Q566.8438,241.9063 567.5,240.4531 Q568.1563,239 569.4375,238.2188 Q570.7188,237.4375 572.5938,237.4375 Q573.4844,237.4375 574.1563,237.625 Q574.8281,237.7969 575.5156,238.1406 L574.7031,240.1563 Q574.0781,239.8438 573.5313,239.7188 Q573,239.5938 572.5156,239.5938 Q571.3438,239.5938 570.6406,240.125 Q569.9375,240.6563 569.6406,241.6094 Q569.3438,242.5625 569.3438,243.8281 Q569.3438,245.8438 570.0625,246.8125 Q570.7813,247.7656 572.375,247.7656 Q572.9688,247.7656 573.5938,247.6094 Q574.2188,247.4531 575.0469,247.0781 L575.0469,249.2969 Q574.3125,249.6094 573.5156,249.7656 Q572.7344,249.9219 571.9688,249.9219 Z " fill="#000000"/><text fill="#000000" font-family="sans-serif" font-size="14" lengthAdjust="spacing" textLength="46" x="586.5" y="248.432">Person</text></g><!--MD5=[9649b6e584fc604199e58aa8504e0cff]
class SurveyMeasurement--><g id="elem_SurveyMeasurement"><rect fill="#F1F1F1" height="32" id="SurveyMeasurement" rx="2.5" ry="2.5" style="stroke:#181818;stroke-width:0.5;" width="171" x="7" y="429"/><ellipse cx="22" cy="445" fill="#ADD1B2" rx="11" ry="11" style="stroke:#181818;stroke-width:1.0;"/><path d="M21.4688,451.9219 Q19.7188,451.9219 18.5781,451.1875 Q17.4531,450.4375 16.8906,449.0938 Q16.3438,447.7344 16.3438,445.9375 Q16.3438,443.9063 17,442.4531 Q17.6563,441 18.9375,440.2188 Q20.2188,439.4375 22.0938,439.4375 Q22.9844,439.4375 23.6563,439.625 Q24.3281,439.7969 25.0156,440.1406 L24.2031,442.1563 Q23.5781,441.8438 23.0313,441.7188 Q22.5,441.5938 22.0156,441.5938 Q20.8438,441.5938 20.1406,442.125 Q19.4375,442.6563 19.1406,443.6094 Q18.8438,444.5625 18.8438,445.8281 Q18.8438,447.8438 19.5625,448.8125 Q20.2813,449.7656 21.875,449.7656 Q22.4688,449.7656 23.0938,449.6094 Q23.7188,449.4531 24.5469,449.0781 L24.5469,451.2969 Q23.8125,451.6094 23.0156,451.7656 Q22.2344,451.9219 21.4688,451.9219 Z " fill="#000000"/><text fill="#000000" font-family="sans-serif" font-size="14" lengthAdjust="spacing" textLength="139" x="36" y="450.432">SurveyMeasurement</text></g><!--MD5=[051e76b8ace5c6735b1c910a18a08868]
class VesselUseFeatures--><g id="elem_VesselUseFeatures"><rect fill="#F1F1F1" height="32" id="VesselUseFeatures" rx="2.5" ry="2.5" style="stroke:#181818;stroke-width:0.5;" width="157" x="213" y="429"/><ellipse cx="228" cy="445" fill="#ADD1B2" rx="11" ry="11" style="stroke:#181818;stroke-width:1.0;"/><path d="M227.4688,451.9219 Q225.7188,451.9219 224.5781,451.1875 Q223.4531,450.4375 222.8906,449.0938 Q222.3438,447.7344 222.3438,445.9375 Q222.3438,443.9063 223,442.4531 Q223.6563,441 224.9375,440.2188 Q226.2188,439.4375 228.0938,439.4375 Q228.9844,439.4375 229.6563,439.625 Q230.3281,439.7969 231.0156,440.1406 L230.2031,442.1563 Q229.5781,441.8438 229.0313,441.7188 Q228.5,441.5938 228.0156,441.5938 Q226.8438,441.5938 226.1406,442.125 Q225.4375,442.6563 225.1406,443.6094 Q224.8438,444.5625 224.8438,445.8281 Q224.8438,447.8438 225.5625,448.8125 Q226.2813,449.7656 227.875,449.7656 Q228.4688,449.7656 229.0938,449.6094 Q229.7188,449.4531 230.5469,449.0781 L230.5469,451.2969 Q229.8125,451.6094 229.0156,451.7656 Q228.2344,451.9219 227.4688,451.9219 Z " fill="#000000"/><text fill="#000000" font-family="sans-serif" font-size="14" lengthAdjust="spacing" textLength="125" x="242" y="450.432">VesselUseFeatures</text></g><!--MD5=[5bf76ef8869367f0d9afbf1bfae7230c]
class GearUseFeatures--><g id="elem_GearUseFeatures"><rect fill="#F1F1F1" height="32" id="GearUseFeatures" rx="2.5" ry="2.5" style="stroke:#181818;stroke-width:0.5;" width="147" x="405" y="429"/><ellipse cx="420" cy="445" fill="#ADD1B2" rx="11" ry="11" style="stroke:#181818;stroke-width:1.0;"/><path d="M419.4688,451.9219 Q417.7188,451.9219 416.5781,451.1875 Q415.4531,450.4375 414.8906,449.0938 Q414.3438,447.7344 414.3438,445.9375 Q414.3438,443.9063 415,442.4531 Q415.6563,441 416.9375,440.2188 Q418.2188,439.4375 420.0938,439.4375 Q420.9844,439.4375 421.6563,439.625 Q422.3281,439.7969 423.0156,440.1406 L422.2031,442.1563 Q421.5781,441.8438 421.0313,441.7188 Q420.5,441.5938 420.0156,441.5938 Q418.8438,441.5938 418.1406,442.125 Q417.4375,442.6563 417.1406,443.6094 Q416.8438,444.5625 416.8438,445.8281 Q416.8438,447.8438 417.5625,448.8125 Q418.2813,449.7656 419.875,449.7656 Q420.4688,449.7656 421.0938,449.6094 Q421.7188,449.4531 422.5469,449.0781 L422.5469,451.2969 Q421.8125,451.6094 421.0156,451.7656 Q420.2344,451.9219 419.4688,451.9219 Z " fill="#000000"/><text fill="#000000" font-family="sans-serif" font-size="14" lengthAdjust="spacing" textLength="115" x="434" y="450.432">GearUseFeatures</text></g><!--MD5=[c6167eef49b050f9265cf42e84691cfc]
reverse link QualityFlag to DailyActivityCalendar--><g id="link_QualityFlag_DailyActivityCalendar"><path codeLine="17" d="M400.46,44.05 C390.74,61.71 375.7,89.04 359.86,117.81 " fill="none" id="QualityFlag-backto-DailyActivityCalendar" style="stroke:#181818;stroke-width:1.0;"/><polygon fill="#181818" points="403.06,39.33,395.2224,45.2942,400.6537,43.7129,402.235,49.1442,403.06,39.33" style="stroke:#181818;stroke-width:1.0;"/><text fill="#000000" font-family="sans-serif" font-size="13" lengthAdjust="spacing" textLength="7" x="392.4034" y="60.9393">1</text><text fill="#000000" font-family="sans-serif" font-size="13" lengthAdjust="spacing" textLength="7" x="357.0151" y="106.1732">*</text></g><!--MD5=[916c028aac7ebc13d1189fca356bc23e]
reverse link Vessel to DailyActivityCalendar--><g id="link_Vessel_DailyActivityCalendar"><path codeLine="18" d="M286.06,44.5 C286.55,62.17 287.3,89.28 288.08,117.81 " fill="none" id="Vessel-backto-DailyActivityCalendar" style="stroke:#181818;stroke-width:1.0;"/><polygon fill="#181818" points="285.92,39.33,282.1787,48.4406,286.0628,44.328,290.1754,48.2121,285.92,39.33" style="stroke:#181818;stroke-width:1.0;"/><text fill="#000000" font-family="sans-serif" font-size="13" lengthAdjust="spacing" textLength="7" x="277.9768" y="60.9393">1</text><text fill="#000000" font-family="sans-serif" font-size="13" lengthAdjust="spacing" textLength="7" x="280.6367" y="106.1732">*</text></g><!--MD5=[da961307e25468ef1038b37a1ecf09e9]
link DailyActivityCalendar to Department--><g id="link_DailyActivityCalendar_Department"><path codeLine="20" d="M428.04,125.05 C447.64,113.2 468.36,102.99 489.5,96 C559.32,72.91 601.25,66.25 653.5,118 C684.54,148.74 707.45,195.11 719.03,221.88 " fill="none" id="DailyActivityCalendar-to-Department" style="stroke:#181818;stroke-width:1.0;"/><polygon fill="#181818" points="721.06,226.65,721.2172,216.8024,719.1025,222.0491,713.8558,219.9344,721.06,226.65" style="stroke:#181818;stroke-width:1.0;"/><text fill="#000000" font-family="sans-serif" font-size="13" lengthAdjust="spacing" textLength="124" x="490.5" y="83.897">recorderDepartment</text><text fill="#000000" font-family="sans-serif" font-size="13" lengthAdjust="spacing" textLength="7" x="436.1361" y="114.6643">*</text><text fill="#000000" font-family="sans-serif" font-size="13" lengthAdjust="spacing" textLength="7" x="710.6431" y="215.1262">1</text></g><!--MD5=[ba8f3028861646f16828367819466d35]
link DailyActivityCalendar to Person--><g id="link_DailyActivityCalendar_Person"><path codeLine="21" d="M428.39,243 C473.03,243 519.48,243 552.21,243 " fill="none" id="DailyActivityCalendar-to-Person" style="stroke:#181818;stroke-width:1.0;"/><polygon fill="#181818" points="557.35,243,548.35,239,552.35,243,548.35,247,557.35,243" style="stroke:#181818;stroke-width:1.0;"/><text fill="#000000" font-family="sans-serif" font-size="13" lengthAdjust="spacing" textLength="93" x="446.25" y="235.897">recorderPerson</text><text fill="#000000" font-family="sans-serif" font-size="13" lengthAdjust="spacing" textLength="7" x="436.0676" y="239.4584">*</text><text fill="#000000" font-family="sans-serif" font-size="13" lengthAdjust="spacing" textLength="20" x="529.5167" y="258.308">0..1</text></g><!--MD5=[d9259077e93950b3c4525e846565bc4b]
reverse link DailyActivityCalendar to SurveyMeasurement--><g id="link_DailyActivityCalendar_SurveyMeasurement"><path codeLine="23" d="M158.75,377.42 C138.16,398.11 119.72,416.64 107.56,428.87 " fill="none" id="DailyActivityCalendar-backto-SurveyMeasurement" style="stroke:#181818;stroke-width:1.0;"/><polygon fill="#181818" points="168.02,368.1,160.9522,369.5307,159.5545,376.605,166.6223,375.1743,168.02,368.1" style="stroke:#181818;stroke-width:1.0;"/><text fill="#000000" font-family="sans-serif" font-size="13" lengthAdjust="spacing" textLength="20" x="140.3032" y="389.7485">0..1</text><text fill="#000000" font-family="sans-serif" font-size="13" lengthAdjust="spacing" textLength="20" x="89.3626" y="417.1183">0..*</text></g><!--MD5=[244f663bf3f6716a05c168b0b0d24a0d]
reverse link DailyActivityCalendar to VesselUseFeatures--><g id="link_DailyActivityCalendar_VesselUseFeatures"><path codeLine="24" d="M291.5,381.29 C291.5,400.41 291.5,417.41 291.5,428.87 " fill="none" id="DailyActivityCalendar-backto-VesselUseFeatures" style="stroke:#181818;stroke-width:1.0;"/><polygon fill="#181818" points="291.5,368.1,287.5,374.1,291.5,380.1,295.5,374.1,291.5,368.1" style="stroke:#181818;stroke-width:1.0;"/><text fill="#000000" font-family="sans-serif" font-size="13" lengthAdjust="spacing" textLength="20" x="270.9219" y="389.7485">0..1</text><text fill="#000000" font-family="sans-serif" font-size="13" lengthAdjust="spacing" textLength="20" x="267.9375" y="417.1183">0..*</text></g><!--MD5=[2ec24c11247a8dd146a02a8dca720780]
reverse link DailyActivityCalendar to GearUseFeatures--><g id="link_DailyActivityCalendar_GearUseFeatures"><path codeLine="25" d="M416.51,377.7 C435.75,398.27 452.97,416.7 464.35,428.87 " fill="none" id="DailyActivityCalendar-backto-GearUseFeatures" style="stroke:#181818;stroke-width:1.0;"/><polygon fill="#181818" points="407.54,368.1,408.7173,375.2143,415.7372,376.8639,414.5599,369.7495,407.54,368.1" style="stroke:#181818;stroke-width:1.0;"/><text fill="#000000" font-family="sans-serif" font-size="13" lengthAdjust="spacing" textLength="20" x="393.6704" y="389.7485">0..1</text><text fill="#000000" font-family="sans-serif" font-size="13" lengthAdjust="spacing" textLength="20" x="435.7466" y="417.1183">0..*</text></g></g></svg>