<?xml version="1.0" encoding="us-ascii" standalone="no"?><svg xmlns="http://www.w3.org/2000/svg" xmlns:xlink="http://www.w3.org/1999/xlink" contentStyleType="text/css" height="382px" preserveAspectRatio="none" style="width:725px;height:382px;background:#FFFFFF;" version="1.1" viewBox="0 0 725 382" width="725px" zoomAndPan="magnify"><defs/><g><!--cluster referential--><g id="cluster_referential"><path d="M398,276 L482,276 A3.75,3.75 0 0 1 484.5,278.5 L491.5,298.2969 L515,298.2969 A2.5,2.5 0 0 1 517.5,300.7969 L517.5,372.5 A2.5,2.5 0 0 1 515,375 L398,375 A2.5,2.5 0 0 1 395.5,372.5 L395.5,278.5 A2.5,2.5 0 0 1 398,276 " fill="#DDDDDD" style="stroke:#000000;stroke-width:1.5;"/><line style="stroke:#000000;stroke-width:1.5;" x1="395.5" x2="491.5" y1="298.2969" y2="298.2969"/><text fill="#000000" font-family="sans-serif" font-size="14" font-weight="bold" lengthAdjust="spacing" textLength="83" x="399.5" y="290.9951">referential</text></g><!--class Location--><g id="elem_Location"><rect fill="#F1F1F1" height="48" id="Location" rx="2.5" ry="2.5" style="stroke:#181818;stroke-width:0.5;" width="90" x="411.5" y="311"/><ellipse cx="426.5" cy="327" fill="#ADD1B2" rx="11" ry="11" style="stroke:#181818;stroke-width:1.0;"/><path d="M429.4688,332.6406 Q428.8906,332.9375 428.25,333.0781 Q427.6094,333.2344 426.9063,333.2344 Q424.4063,333.2344 423.0781,331.5938 Q421.7656,329.9375 421.7656,326.8125 Q421.7656,323.6875 423.0781,322.0313 Q424.4063,320.375 426.9063,320.375 Q427.6094,320.375 428.25,320.5313 Q428.9063,320.6875 429.4688,320.9844 L429.4688,323.7031 Q428.8438,323.125 428.25,322.8594 Q427.6563,322.5781 427.0313,322.5781 Q425.6875,322.5781 425,323.6563 Q424.3125,324.7188 424.3125,326.8125 Q424.3125,328.9063 425,329.9844 Q425.6875,331.0469 427.0313,331.0469 Q427.6563,331.0469 428.25,330.7813 Q428.8438,330.5 429.4688,329.9219 L429.4688,332.6406 Z " fill="#000000"/><text fill="#000000" font-family="sans-serif" font-size="14" lengthAdjust="spacing" textLength="58" x="440.5" y="331.8467">Location</text><line style="stroke:#181818;stroke-width:0.5;" x1="412.5" x2="500.5" y1="343" y2="343"/><line style="stroke:#181818;stroke-width:0.5;" x1="412.5" x2="500.5" y1="351" y2="351"/></g><!--class ObservedLocation--><g id="elem_ObservedLocation"><rect codeLine="2" fill="#F1F1F1" height="113.1875" id="ObservedLocation" rx="2.5" ry="2.5" style="stroke:#181818;stroke-width:0.5;" width="160" x="255.5" y="116"/><ellipse cx="271.85" cy="132" fill="#ADD1B2" rx="11" ry="11" style="stroke:#181818;stroke-width:1.0;"/><path d="M274.8188,137.6406 Q274.2406,137.9375 273.6,138.0781 Q272.9594,138.2344 272.2563,138.2344 Q269.7563,138.2344 268.4281,136.5938 Q267.1156,134.9375 267.1156,131.8125 Q267.1156,128.6875 268.4281,127.0313 Q269.7563,125.375 272.2563,125.375 Q272.9594,125.375 273.6,125.5313 Q274.2563,125.6875 274.8188,125.9844 L274.8188,128.7031 Q274.1938,128.125 273.6,127.8594 Q273.0063,127.5781 272.3813,127.5781 Q271.0375,127.5781 270.35,128.6563 Q269.6625,129.7188 269.6625,131.8125 Q269.6625,133.9063 270.35,134.9844 Q271.0375,136.0469 272.3813,136.0469 Q273.0063,136.0469 273.6,135.7813 Q274.1938,135.5 274.8188,134.9219 L274.8188,137.6406 Z " fill="#000000"/><text fill="#000000" font-family="sans-serif" font-size="14" lengthAdjust="spacing" textLength="125" x="286.15" y="136.8467">ObservedLocation</text><line style="stroke:#181818;stroke-width:0.5;" x1="256.5" x2="414.5" y1="148" y2="148"/><ellipse cx="266.5" cy="161.6484" fill="none" rx="3" ry="3" style="stroke:#038048;stroke-width:1.0;"/><text fill="#000000" font-family="sans-serif" font-size="14" lengthAdjust="spacing" textLength="12" x="275.5" y="164.9951">id</text><ellipse cx="266.5" cy="177.9453" fill="none" rx="3" ry="3" style="stroke:#038048;stroke-width:1.0;"/><text fill="#000000" font-family="sans-serif" font-size="14" lengthAdjust="spacing" textLength="58" x="275.5" y="181.292">program</text><ellipse cx="266.5" cy="194.2422" fill="none" rx="3" ry="3" style="stroke:#038048;stroke-width:1.0;"/><text fill="#000000" font-family="sans-serif" font-size="14" lengthAdjust="spacing" textLength="98" x="275.5" y="197.5889">startDateTime</text><ellipse cx="266.5" cy="210.5391" fill="none" rx="3" ry="3" style="stroke:#038048;stroke-width:1.0;"/><text fill="#000000" font-family="sans-serif" font-size="14" lengthAdjust="spacing" textLength="134" x="275.5" y="213.8857">endDateTime [0..1]</text><line style="stroke:#181818;stroke-width:0.5;" x1="256.5" x2="414.5" y1="221.1875" y2="221.1875"/></g><!--class Landing--><g id="elem_Landing"><rect codeLine="9" fill="#F1F1F1" height="96.8906" id="Landing" rx="2.5" ry="2.5" style="stroke:#181818;stroke-width:0.5;" width="143" x="506" y="124"/><ellipse cx="546.65" cy="140" fill="#ADD1B2" rx="11" ry="11" style="stroke:#181818;stroke-width:1.0;"/><path d="M549.6188,145.6406 Q549.0406,145.9375 548.4,146.0781 Q547.7594,146.2344 547.0563,146.2344 Q544.5563,146.2344 543.2281,144.5938 Q541.9156,142.9375 541.9156,139.8125 Q541.9156,136.6875 543.2281,135.0313 Q544.5563,133.375 547.0563,133.375 Q547.7594,133.375 548.4,133.5313 Q549.0563,133.6875 549.6188,133.9844 L549.6188,136.7031 Q548.9938,136.125 548.4,135.8594 Q547.8063,135.5781 547.1813,135.5781 Q545.8375,135.5781 545.15,136.6563 Q544.4625,137.7188 544.4625,139.8125 Q544.4625,141.9063 545.15,142.9844 Q545.8375,144.0469 547.1813,144.0469 Q547.8063,144.0469 548.4,143.7813 Q548.9938,143.5 549.6188,142.9219 L549.6188,145.6406 Z " fill="#000000"/><text fill="#000000" font-family="sans-serif" font-size="14" lengthAdjust="spacing" textLength="54" x="566.35" y="144.8467">Landing</text><line style="stroke:#181818;stroke-width:0.5;" x1="507" x2="648" y1="156" y2="156"/><ellipse cx="517" cy="169.6484" fill="none" rx="3" ry="3" style="stroke:#038048;stroke-width:1.0;"/><text fill="#000000" font-family="sans-serif" font-size="14" lengthAdjust="spacing" textLength="12" x="526" y="172.9951">id</text><ellipse cx="517" cy="185.9453" fill="none" rx="3" ry="3" style="stroke:#038048;stroke-width:1.0;"/><text fill="#000000" font-family="sans-serif" font-size="14" lengthAdjust="spacing" textLength="58" x="526" y="189.292">program</text><ellipse cx="517" cy="202.2422" fill="none" rx="3" ry="3" style="stroke:#038048;stroke-width:1.0;"/><text fill="#000000" font-family="sans-serif" font-size="14" lengthAdjust="spacing" textLength="117" x="526" y="205.5889">landingDateTime</text><line style="stroke:#181818;stroke-width:0.5;" x1="507" x2="648" y1="212.8906" y2="212.8906"/></g><!--class Person--><g id="elem_Person"><rect fill="#F1F1F1" height="48" id="Person" rx="2.5" ry="2.5" style="stroke:#181818;stroke-width:0.5;" width="81" x="295" y="311"/><ellipse cx="310" cy="327" fill="#ADD1B2" rx="11" ry="11" style="stroke:#181818;stroke-width:1.0;"/><path d="M312.9688,332.6406 Q312.3906,332.9375 311.75,333.0781 Q311.1094,333.2344 310.4063,333.2344 Q307.9063,333.2344 306.5781,331.5938 Q305.2656,329.9375 305.2656,326.8125 Q305.2656,323.6875 306.5781,322.0313 Q307.9063,320.375 310.4063,320.375 Q311.1094,320.375 311.75,320.5313 Q312.4063,320.6875 312.9688,320.9844 L312.9688,323.7031 Q312.3438,323.125 311.75,322.8594 Q311.1563,322.5781 310.5313,322.5781 Q309.1875,322.5781 308.5,323.6563 Q307.8125,324.7188 307.8125,326.8125 Q307.8125,328.9063 308.5,329.9844 Q309.1875,331.0469 310.5313,331.0469 Q311.1563,331.0469 311.75,330.7813 Q312.3438,330.5 312.9688,329.9219 L312.9688,332.6406 Z " fill="#000000"/><text fill="#000000" font-family="sans-serif" font-size="14" lengthAdjust="spacing" textLength="49" x="324" y="331.8467">Person</text><line style="stroke:#181818;stroke-width:0.5;" x1="296" x2="375" y1="343" y2="343"/><line style="stroke:#181818;stroke-width:0.5;" x1="296" x2="375" y1="351" y2="351"/></g><!--class ObservedLocationMeasurement--><g id="elem_ObservedLocationMeasurement"><rect fill="#F1F1F1" height="48" id="ObservedLocationMeasurement" rx="2.5" ry="2.5" style="stroke:#181818;stroke-width:0.5;" width="253" x="7" y="311"/><ellipse cx="22" cy="327" fill="#ADD1B2" rx="11" ry="11" style="stroke:#181818;stroke-width:1.0;"/><path d="M24.9688,332.6406 Q24.3906,332.9375 23.75,333.0781 Q23.1094,333.2344 22.4063,333.2344 Q19.9063,333.2344 18.5781,331.5938 Q17.2656,329.9375 17.2656,326.8125 Q17.2656,323.6875 18.5781,322.0313 Q19.9063,320.375 22.4063,320.375 Q23.1094,320.375 23.75,320.5313 Q24.4063,320.6875 24.9688,320.9844 L24.9688,323.7031 Q24.3438,323.125 23.75,322.8594 Q23.1563,322.5781 22.5313,322.5781 Q21.1875,322.5781 20.5,323.6563 Q19.8125,324.7188 19.8125,326.8125 Q19.8125,328.9063 20.5,329.9844 Q21.1875,331.0469 22.5313,331.0469 Q23.1563,331.0469 23.75,330.7813 Q24.3438,330.5 24.9688,329.9219 L24.9688,332.6406 Z " fill="#000000"/><text fill="#000000" font-family="sans-serif" font-size="14" lengthAdjust="spacing" textLength="221" x="36" y="331.8467">ObservedLocationMeasurement</text><line style="stroke:#181818;stroke-width:0.5;" x1="8" x2="259" y1="343" y2="343"/><line style="stroke:#181818;stroke-width:0.5;" x1="8" x2="259" y1="351" y2="351"/></g><!--class Vessel--><g id="elem_Vessel"><rect fill="#F1F1F1" height="48" id="Vessel" rx="2.5" ry="2.5" style="stroke:#181818;stroke-width:0.5;" width="78" x="538.5" y="7"/><ellipse cx="553.5" cy="23" fill="#ADD1B2" rx="11" ry="11" style="stroke:#181818;stroke-width:1.0;"/><path d="M556.4688,28.6406 Q555.8906,28.9375 555.25,29.0781 Q554.6094,29.2344 553.9063,29.2344 Q551.4063,29.2344 550.0781,27.5938 Q548.7656,25.9375 548.7656,22.8125 Q548.7656,19.6875 550.0781,18.0313 Q551.4063,16.375 553.9063,16.375 Q554.6094,16.375 555.25,16.5313 Q555.9063,16.6875 556.4688,16.9844 L556.4688,19.7031 Q555.8438,19.125 555.25,18.8594 Q554.6563,18.5781 554.0313,18.5781 Q552.6875,18.5781 552,19.6563 Q551.3125,20.7188 551.3125,22.8125 Q551.3125,24.9063 552,25.9844 Q552.6875,27.0469 554.0313,27.0469 Q554.6563,27.0469 555.25,26.7813 Q555.8438,26.5 556.4688,25.9219 L556.4688,28.6406 Z " fill="#000000"/><text fill="#000000" font-family="sans-serif" font-size="14" lengthAdjust="spacing" textLength="46" x="567.5" y="27.8467">Vessel</text><line style="stroke:#181818;stroke-width:0.5;" x1="539.5" x2="615.5" y1="39" y2="39"/><line style="stroke:#181818;stroke-width:0.5;" x1="539.5" x2="615.5" y1="47" y2="47"/></g><!--class LandingMeasurement--><g id="elem_LandingMeasurement"><rect fill="#F1F1F1" height="48" id="LandingMeasurement" rx="2.5" ry="2.5" style="stroke:#181818;stroke-width:0.5;" width="182" x="536.5" y="311"/><ellipse cx="551.5" cy="327" fill="#ADD1B2" rx="11" ry="11" style="stroke:#181818;stroke-width:1.0;"/><path d="M554.4688,332.6406 Q553.8906,332.9375 553.25,333.0781 Q552.6094,333.2344 551.9063,333.2344 Q549.4063,333.2344 548.0781,331.5938 Q546.7656,329.9375 546.7656,326.8125 Q546.7656,323.6875 548.0781,322.0313 Q549.4063,320.375 551.9063,320.375 Q552.6094,320.375 553.25,320.5313 Q553.9063,320.6875 554.4688,320.9844 L554.4688,323.7031 Q553.8438,323.125 553.25,322.8594 Q552.6563,322.5781 552.0313,322.5781 Q550.6875,322.5781 550,323.6563 Q549.3125,324.7188 549.3125,326.8125 Q549.3125,328.9063 550,329.9844 Q550.6875,331.0469 552.0313,331.0469 Q552.6563,331.0469 553.25,330.7813 Q553.8438,330.5 554.4688,329.9219 L554.4688,332.6406 Z " fill="#000000"/><text fill="#000000" font-family="sans-serif" font-size="14" lengthAdjust="spacing" textLength="150" x="565.5" y="331.8467">LandingMeasurement</text><line style="stroke:#181818;stroke-width:0.5;" x1="537.5" x2="717.5" y1="343" y2="343"/><line style="stroke:#181818;stroke-width:0.5;" x1="537.5" x2="717.5" y1="351" y2="351"/></g><!--reverse link ObservedLocation to Landing--><g id="link_ObservedLocation_Landing"><path codeLine="15" d="M428.88,172.5 C454.35,172.5 481.55,172.5 505.62,172.5 " fill="none" id="ObservedLocation-backto-Landing" style="stroke:#181818;stroke-width:1.0;"/><polygon fill="#181818" points="415.75,172.5,421.75,176.5,427.75,172.5,421.75,168.5,415.75,172.5" style="stroke:#181818;stroke-width:1.0;"/><text fill="#000000" font-family="sans-serif" font-size="13" lengthAdjust="spacing" textLength="54" x="433.75" y="165.5669">contains</text><text fill="#000000" font-family="sans-serif" font-size="13" lengthAdjust="spacing" textLength="24" x="423.3895" y="185.1857">0..1</text><text fill="#000000" font-family="sans-serif" font-size="13" lengthAdjust="spacing" textLength="23" x="474.9334" y="185.2695">0..*</text></g><!--link ObservedLocation to Person--><g id="link_ObservedLocation_Person"><path codeLine="16" d="M335.5,229.18 C335.5,254.89 335.5,284.32 335.5,305.44 " fill="none" id="ObservedLocation-to-Person" style="stroke:#181818;stroke-width:1.0;"/><polygon fill="#181818" points="335.5,310.62,339.5,301.62,335.5,305.62,331.5,301.62,335.5,310.62" style="stroke:#181818;stroke-width:1.0;"/><text fill="#000000" font-family="sans-serif" font-size="13" lengthAdjust="spacing" textLength="8" x="327.0125" y="249.0655">1</text><text fill="#000000" font-family="sans-serif" font-size="13" lengthAdjust="spacing" textLength="23" x="286.0031" y="284.5922">1..*</text><text fill="#000000" font-family="sans-serif" font-size="13" lengthAdjust="spacing" textLength="63" x="266.0031" y="299.725">observers</text></g><!--reverse link ObservedLocation to ObservedLocationMeasurement--><g id="link_ObservedLocation_ObservedLocationMeasurement"><path codeLine="17" d="M254.96,237.49 C222.38,263.38 186.83,291.62 162.66,310.83 " fill="none" id="ObservedLocation-backto-ObservedLocationMeasurement" style="stroke:#181818;stroke-width:1.0;"/><polygon fill="#181818" points="265.42,229.18,258.2341,229.7825,256.0265,236.6473,263.2123,236.0449,265.42,229.18" style="stroke:#181818;stroke-width:1.0;"/><text fill="#000000" font-family="sans-serif" font-size="13" lengthAdjust="spacing" textLength="8" x="248.3915" y="249.0655">1</text><text fill="#000000" font-family="sans-serif" font-size="13" lengthAdjust="spacing" textLength="23" x="144.1854" y="299.7985">0..*</text></g><!--reverse link Vessel to Landing--><g id="link_Vessel_Landing"><path codeLine="19" d="M577.5,60.49 C577.5,78.7 577.5,102.76 577.5,123.83 " fill="none" id="Vessel-backto-Landing" style="stroke:#181818;stroke-width:1.0;"/><polygon fill="#181818" points="577.5,55.04,573.5,64.04,577.5,60.04,581.5,64.04,577.5,55.04" style="stroke:#181818;stroke-width:1.0;"/><text fill="#000000" font-family="sans-serif" font-size="13" lengthAdjust="spacing" textLength="8" x="568.475" y="75.206">1</text><text fill="#000000" font-family="sans-serif" font-size="13" lengthAdjust="spacing" textLength="7" x="570.0078" y="113.015">*</text></g><!--reverse link Landing to LandingMeasurement--><g id="link_Landing_LandingMeasurement"><path codeLine="20" d="M596.25,233.69 C604.62,260.57 613.99,290.64 620.27,310.79 " fill="none" id="Landing-backto-LandingMeasurement" style="stroke:#181818;stroke-width:1.0;"/><polygon fill="#181818" points="592.37,221.22,590.3376,228.1388,595.9425,232.6759,597.9749,225.7571,592.37,221.22" style="stroke:#181818;stroke-width:1.0;"/><text fill="#000000" font-family="sans-serif" font-size="13" lengthAdjust="spacing" textLength="8" x="585.8307" y="240.8577">1</text><text fill="#000000" font-family="sans-serif" font-size="13" lengthAdjust="spacing" textLength="23" x="592.4704" y="299.7482">0..*</text></g><!--link Landing to Location--><g id="link_Landing_Location"><path codeLine="23" d="M541.52,221.22 C520.54,249.06 494.81,283.18 477.19,306.55 " fill="none" id="Landing-to-Location" style="stroke:#181818;stroke-width:1.0;"/><polygon fill="#181818" points="474,310.79,482.6191,306.0245,477.016,306.802,476.2384,301.1989,474,310.79" style="stroke:#181818;stroke-width:1.0;"/><text fill="#000000" font-family="sans-serif" font-size="13" lengthAdjust="spacing" textLength="7" x="529.2149" y="240.8577">*</text><text fill="#000000" font-family="sans-serif" font-size="13" lengthAdjust="spacing" textLength="8" x="469.4594" y="299.7482">1</text></g><!--link ObservedLocation to Location--><g id="link_ObservedLocation_Location"><path codeLine="24" d="M377.48,229.18 C397.19,255.33 419.8,285.32 435.77,306.51 " fill="none" id="ObservedLocation-to-Location" style="stroke:#181818;stroke-width:1.0;"/><polygon fill="#181818" points="438.88,310.62,436.6635,301.0238,435.8731,306.6252,430.2718,305.8348,438.88,310.62" style="stroke:#181818;stroke-width:1.0;"/><text fill="#000000" font-family="sans-serif" font-size="13" lengthAdjust="spacing" textLength="7" x="375.1698" y="249.0655">*</text><text fill="#000000" font-family="sans-serif" font-size="13" lengthAdjust="spacing" textLength="8" x="425.6101" y="299.9323">1</text></g></g></svg>