<?xml version="1.0" encoding="UTF-8" standalone="no"?><svg xmlns="http://www.w3.org/2000/svg" xmlns:xlink="http://www.w3.org/1999/xlink" contentScriptType="application/ecmascript" contentStyleType="text/css" height="374px" preserveAspectRatio="none" style="width:680px;height:374px;" version="1.1" viewBox="0 0 680 374" width="680px" zoomAndPan="magnify"><defs><filter height="300%" id="f1bqysglqbyikx" width="300%" x="-1" y="-1"><feGaussianBlur result="blurOut" stdDeviation="2.0"/><feColorMatrix in="blurOut" result="blurOut2" type="matrix" values="0 0 0 0 0 0 0 0 0 0 0 0 0 0 0 0 0 0 .4 0"/><feOffset dx="4.0" dy="4.0" in="blurOut2" result="blurOut3"/><feBlend in="SourceGraphic" in2="blurOut3" mode="normal"/></filter></defs><g><!--MD5=[95566c14aa2c007e871ef9bf05e5f603]
cluster referential--><polygon fill="#DDDDDD" filter="url(#f1bqysglqbyikx)" points="366,263,455,263,462,285.2969,484,285.2969,484,362,366,362,366,263" style="stroke: #000000; stroke-width: 1.5;"/><line style="stroke: #000000; stroke-width: 1.5;" x1="366" x2="462" y1="285.2969" y2="285.2969"/><text fill="#000000" font-family="sans-serif" font-size="14" font-weight="bold" lengthAdjust="spacingAndGlyphs" textLength="83" x="370" y="277.9951">referential</text><!--MD5=[4f1f3706c1a355a8488e154afcaed5df]
class Location--><rect fill="#FEFECE" filter="url(#f1bqysglqbyikx)" height="48" id="Location" style="stroke: #A80036; stroke-width: 1.5;" width="85" x="382.5" y="298"/><ellipse cx="397.5" cy="314" fill="#ADD1B2" rx="11" ry="11" style="stroke: #A80036; stroke-width: 1.0;"/><path d="M400.4688,319.6406 Q399.8906,319.9375 399.25,320.0781 Q398.6094,320.2344 397.9063,320.2344 Q395.4063,320.2344 394.0781,318.5938 Q392.7656,316.9375 392.7656,313.8125 Q392.7656,310.6875 394.0781,309.0313 Q395.4063,307.375 397.9063,307.375 Q398.6094,307.375 399.25,307.5313 Q399.9063,307.6875 400.4688,307.9844 L400.4688,310.7031 Q399.8438,310.125 399.25,309.8594 Q398.6563,309.5781 398.0313,309.5781 Q396.6875,309.5781 396,310.6563 Q395.3125,311.7188 395.3125,313.8125 Q395.3125,315.9063 396,316.9844 Q396.6875,318.0469 398.0313,318.0469 Q398.6563,318.0469 399.25,317.7813 Q399.8438,317.5 400.4688,316.9219 L400.4688,319.6406 Z "/><text fill="#000000" font-family="sans-serif" font-size="12" lengthAdjust="spacingAndGlyphs" textLength="53" x="411.5" y="318.1543">Location</text><line style="stroke: #A80036; stroke-width: 1.5;" x1="383.5" x2="466.5" y1="330" y2="330"/><line style="stroke: #A80036; stroke-width: 1.5;" x1="383.5" x2="466.5" y1="338" y2="338"/><!--MD5=[0c52ec9187bb5ca91b0a36d5770fae1d]
class ObservedLocation--><rect fill="#FEFECE" filter="url(#f1bqysglqbyikx)" height="99.2188" id="ObservedLocation" style="stroke: #A80036; stroke-width: 1.5;" width="144" x="237" y="117"/><ellipse cx="252" cy="133" fill="#ADD1B2" rx="11" ry="11" style="stroke: #A80036; stroke-width: 1.0;"/><path d="M254.9688,138.6406 Q254.3906,138.9375 253.75,139.0781 Q253.1094,139.2344 252.4063,139.2344 Q249.9063,139.2344 248.5781,137.5938 Q247.2656,135.9375 247.2656,132.8125 Q247.2656,129.6875 248.5781,128.0313 Q249.9063,126.375 252.4063,126.375 Q253.1094,126.375 253.75,126.5313 Q254.4063,126.6875 254.9688,126.9844 L254.9688,129.7031 Q254.3438,129.125 253.75,128.8594 Q253.1563,128.5781 252.5313,128.5781 Q251.1875,128.5781 250.5,129.6563 Q249.8125,130.7188 249.8125,132.8125 Q249.8125,134.9063 250.5,135.9844 Q251.1875,137.0469 252.5313,137.0469 Q253.1563,137.0469 253.75,136.7813 Q254.3438,136.5 254.9688,135.9219 L254.9688,138.6406 Z "/><text fill="#000000" font-family="sans-serif" font-size="12" lengthAdjust="spacingAndGlyphs" textLength="112" x="266" y="137.1543">ObservedLocation</text><line style="stroke: #A80036; stroke-width: 1.5;" x1="238" x2="380" y1="149" y2="149"/><ellipse cx="248" cy="160" fill="none" rx="3" ry="3" style="stroke: #038048; stroke-width: 1.0;"/><text fill="#000000" font-family="sans-serif" font-size="11" lengthAdjust="spacingAndGlyphs" textLength="10" x="257" y="163.2104">id</text><ellipse cx="248" cy="172.8047" fill="none" rx="3" ry="3" style="stroke: #038048; stroke-width: 1.0;"/><text fill="#000000" font-family="sans-serif" font-size="11" lengthAdjust="spacingAndGlyphs" textLength="49" x="257" y="176.0151">program</text><ellipse cx="248" cy="185.6094" fill="none" rx="3" ry="3" style="stroke: #038048; stroke-width: 1.0;"/><text fill="#000000" font-family="sans-serif" font-size="11" lengthAdjust="spacingAndGlyphs" textLength="81" x="257" y="188.8198">startDateTime</text><ellipse cx="248" cy="198.4141" fill="none" rx="3" ry="3" style="stroke: #038048; stroke-width: 1.0;"/><text fill="#000000" font-family="sans-serif" font-size="11" lengthAdjust="spacingAndGlyphs" textLength="109" x="257" y="201.6245">endDateTime [0..1]</text><line style="stroke: #A80036; stroke-width: 1.5;" x1="238" x2="380" y1="208.2188" y2="208.2188"/><!--MD5=[cad5f1f557e769656dcb5f846967bd8a]
class Landing--><rect fill="#FEFECE" filter="url(#f1bqysglqbyikx)" height="86.4141" id="Landing" style="stroke: #A80036; stroke-width: 1.5;" width="121" x="471.5" y="123.5"/><ellipse cx="504.5" cy="139.5" fill="#ADD1B2" rx="11" ry="11" style="stroke: #A80036; stroke-width: 1.0;"/><path d="M507.4688,145.1406 Q506.8906,145.4375 506.25,145.5781 Q505.6094,145.7344 504.9063,145.7344 Q502.4063,145.7344 501.0781,144.0938 Q499.7656,142.4375 499.7656,139.3125 Q499.7656,136.1875 501.0781,134.5313 Q502.4063,132.875 504.9063,132.875 Q505.6094,132.875 506.25,133.0313 Q506.9063,133.1875 507.4688,133.4844 L507.4688,136.2031 Q506.8438,135.625 506.25,135.3594 Q505.6563,135.0781 505.0313,135.0781 Q503.6875,135.0781 503,136.1563 Q502.3125,137.2188 502.3125,139.3125 Q502.3125,141.4063 503,142.4844 Q503.6875,143.5469 505.0313,143.5469 Q505.6563,143.5469 506.25,143.2813 Q506.8438,143 507.4688,142.4219 L507.4688,145.1406 Z "/><text fill="#000000" font-family="sans-serif" font-size="12" lengthAdjust="spacingAndGlyphs" textLength="49" x="522.5" y="143.6543">Landing</text><line style="stroke: #A80036; stroke-width: 1.5;" x1="472.5" x2="591.5" y1="155.5" y2="155.5"/><ellipse cx="482.5" cy="166.5" fill="none" rx="3" ry="3" style="stroke: #038048; stroke-width: 1.0;"/><text fill="#000000" font-family="sans-serif" font-size="11" lengthAdjust="spacingAndGlyphs" textLength="10" x="491.5" y="169.7104">id</text><ellipse cx="482.5" cy="179.3047" fill="none" rx="3" ry="3" style="stroke: #038048; stroke-width: 1.0;"/><text fill="#000000" font-family="sans-serif" font-size="11" lengthAdjust="spacingAndGlyphs" textLength="49" x="491.5" y="182.5151">program</text><ellipse cx="482.5" cy="192.1094" fill="none" rx="3" ry="3" style="stroke: #038048; stroke-width: 1.0;"/><text fill="#000000" font-family="sans-serif" font-size="11" lengthAdjust="spacingAndGlyphs" textLength="95" x="491.5" y="195.3198">landingDateTime</text><line style="stroke: #A80036; stroke-width: 1.5;" x1="472.5" x2="591.5" y1="201.9141" y2="201.9141"/><!--MD5=[09ce52be0ee7de43c61b6e2d59bf108b]
class Person--><rect fill="#FEFECE" filter="url(#f1bqysglqbyikx)" height="48" id="Person" style="stroke: #A80036; stroke-width: 1.5;" width="76" x="271" y="298"/><ellipse cx="286" cy="314" fill="#ADD1B2" rx="11" ry="11" style="stroke: #A80036; stroke-width: 1.0;"/><path d="M288.9688,319.6406 Q288.3906,319.9375 287.75,320.0781 Q287.1094,320.2344 286.4063,320.2344 Q283.9063,320.2344 282.5781,318.5938 Q281.2656,316.9375 281.2656,313.8125 Q281.2656,310.6875 282.5781,309.0313 Q283.9063,307.375 286.4063,307.375 Q287.1094,307.375 287.75,307.5313 Q288.4063,307.6875 288.9688,307.9844 L288.9688,310.7031 Q288.3438,310.125 287.75,309.8594 Q287.1563,309.5781 286.5313,309.5781 Q285.1875,309.5781 284.5,310.6563 Q283.8125,311.7188 283.8125,313.8125 Q283.8125,315.9063 284.5,316.9844 Q285.1875,318.0469 286.5313,318.0469 Q287.1563,318.0469 287.75,317.7813 Q288.3438,317.5 288.9688,316.9219 L288.9688,319.6406 Z "/><text fill="#000000" font-family="sans-serif" font-size="12" lengthAdjust="spacingAndGlyphs" textLength="44" x="300" y="318.1543">Person</text><line style="stroke: #A80036; stroke-width: 1.5;" x1="272" x2="346" y1="330" y2="330"/><line style="stroke: #A80036; stroke-width: 1.5;" x1="272" x2="346" y1="338" y2="338"/><!--MD5=[2a67ed55892424e8b769ab42012f174c]
class ObservedLocationMeasurement--><rect fill="#FEFECE" filter="url(#f1bqysglqbyikx)" height="48" id="ObservedLocationMeasurement" style="stroke: #A80036; stroke-width: 1.5;" width="230" x="6" y="298"/><ellipse cx="21" cy="314" fill="#ADD1B2" rx="11" ry="11" style="stroke: #A80036; stroke-width: 1.0;"/><path d="M23.9688,319.6406 Q23.3906,319.9375 22.75,320.0781 Q22.1094,320.2344 21.4063,320.2344 Q18.9063,320.2344 17.5781,318.5938 Q16.2656,316.9375 16.2656,313.8125 Q16.2656,310.6875 17.5781,309.0313 Q18.9063,307.375 21.4063,307.375 Q22.1094,307.375 22.75,307.5313 Q23.4063,307.6875 23.9688,307.9844 L23.9688,310.7031 Q23.3438,310.125 22.75,309.8594 Q22.1563,309.5781 21.5313,309.5781 Q20.1875,309.5781 19.5,310.6563 Q18.8125,311.7188 18.8125,313.8125 Q18.8125,315.9063 19.5,316.9844 Q20.1875,318.0469 21.5313,318.0469 Q22.1563,318.0469 22.75,317.7813 Q23.3438,317.5 23.9688,316.9219 L23.9688,319.6406 Z "/><text fill="#000000" font-family="sans-serif" font-size="12" lengthAdjust="spacingAndGlyphs" textLength="198" x="35" y="318.1543">ObservedLocationMeasurement</text><line style="stroke: #A80036; stroke-width: 1.5;" x1="7" x2="235" y1="330" y2="330"/><line style="stroke: #A80036; stroke-width: 1.5;" x1="7" x2="235" y1="338" y2="338"/><!--MD5=[ed239cddac1bd0ea702000b0a8aa8225]
class Vessel--><rect fill="#FEFECE" filter="url(#f1bqysglqbyikx)" height="48" id="Vessel" style="stroke: #A80036; stroke-width: 1.5;" width="73" x="495.5" y="8"/><ellipse cx="510.5" cy="24" fill="#ADD1B2" rx="11" ry="11" style="stroke: #A80036; stroke-width: 1.0;"/><path d="M513.4688,29.6406 Q512.8906,29.9375 512.25,30.0781 Q511.6094,30.2344 510.9063,30.2344 Q508.4063,30.2344 507.0781,28.5938 Q505.7656,26.9375 505.7656,23.8125 Q505.7656,20.6875 507.0781,19.0313 Q508.4063,17.375 510.9063,17.375 Q511.6094,17.375 512.25,17.5313 Q512.9063,17.6875 513.4688,17.9844 L513.4688,20.7031 Q512.8438,20.125 512.25,19.8594 Q511.6563,19.5781 511.0313,19.5781 Q509.6875,19.5781 509,20.6563 Q508.3125,21.7188 508.3125,23.8125 Q508.3125,25.9063 509,26.9844 Q509.6875,28.0469 511.0313,28.0469 Q511.6563,28.0469 512.25,27.7813 Q512.8438,27.5 513.4688,26.9219 L513.4688,29.6406 Z "/><text fill="#000000" font-family="sans-serif" font-size="12" lengthAdjust="spacingAndGlyphs" textLength="41" x="524.5" y="28.1543">Vessel</text><line style="stroke: #A80036; stroke-width: 1.5;" x1="496.5" x2="567.5" y1="40" y2="40"/><line style="stroke: #A80036; stroke-width: 1.5;" x1="496.5" x2="567.5" y1="48" y2="48"/><!--MD5=[f8082c124393487de541aee2ab845f73]
class LandingMeasurement--><rect fill="#FEFECE" filter="url(#f1bqysglqbyikx)" height="48" id="LandingMeasurement" style="stroke: #A80036; stroke-width: 1.5;" width="167" x="502.5" y="298"/><ellipse cx="517.5" cy="314" fill="#ADD1B2" rx="11" ry="11" style="stroke: #A80036; stroke-width: 1.0;"/><path d="M520.4688,319.6406 Q519.8906,319.9375 519.25,320.0781 Q518.6094,320.2344 517.9063,320.2344 Q515.4063,320.2344 514.0781,318.5938 Q512.7656,316.9375 512.7656,313.8125 Q512.7656,310.6875 514.0781,309.0313 Q515.4063,307.375 517.9063,307.375 Q518.6094,307.375 519.25,307.5313 Q519.9063,307.6875 520.4688,307.9844 L520.4688,310.7031 Q519.8438,310.125 519.25,309.8594 Q518.6563,309.5781 518.0313,309.5781 Q516.6875,309.5781 516,310.6563 Q515.3125,311.7188 515.3125,313.8125 Q515.3125,315.9063 516,316.9844 Q516.6875,318.0469 518.0313,318.0469 Q518.6563,318.0469 519.25,317.7813 Q519.8438,317.5 520.4688,316.9219 L520.4688,319.6406 Z "/><text fill="#000000" font-family="sans-serif" font-size="12" lengthAdjust="spacingAndGlyphs" textLength="135" x="531.5" y="318.1543">LandingMeasurement</text><line style="stroke: #A80036; stroke-width: 1.5;" x1="503.5" x2="668.5" y1="330" y2="330"/><line style="stroke: #A80036; stroke-width: 1.5;" x1="503.5" x2="668.5" y1="338" y2="338"/><!--MD5=[e496a25b05fae38f68db7cd270c11ec4]
reverse link ObservedLocation to Landing--><path d="M394.31,166.5 C419.99,166.5 447.63,166.5 471.36,166.5 " fill="none" id="ObservedLocation&lt;-Landing" style="stroke: #A80036; stroke-width: 1.0;"/><polygon fill="#A80036" points="381.09,166.5,387.09,170.5,393.09,166.5,387.09,162.5,381.09,166.5" style="stroke: #A80036; stroke-width: 1.0;"/><text fill="#000000" font-family="sans-serif" font-size="13" lengthAdjust="spacingAndGlyphs" textLength="54" x="399.25" y="159.5669">contains</text><text fill="#000000" font-family="sans-serif" font-size="13" lengthAdjust="spacingAndGlyphs" textLength="24" x="389.1048" y="179.2776">0..1</text><text fill="#000000" font-family="sans-serif" font-size="13" lengthAdjust="spacingAndGlyphs" textLength="23" x="440.4697" y="179.3718">0..*</text><!--MD5=[d51e6d04aeb243fcea8b468a282d6a77]
link ObservedLocation to Person--><path d="M309,216.07 C309,241.17 309,270.94 309,292.35 " fill="none" id="ObservedLocation-&gt;Person" style="stroke: #A80036; stroke-width: 1.0;"/><polygon fill="#A80036" points="309,297.6,313,288.6,309,292.6,305,288.6,309,297.6" style="stroke: #A80036; stroke-width: 1.0;"/><text fill="#000000" font-family="sans-serif" font-size="13" lengthAdjust="spacingAndGlyphs" textLength="8" x="300.4375" y="236.1563">1</text><text fill="#000000" font-family="sans-serif" font-size="13" lengthAdjust="spacingAndGlyphs" textLength="23" x="259.5031" y="271.568">1..*</text><text fill="#000000" font-family="sans-serif" font-size="13" lengthAdjust="spacingAndGlyphs" textLength="63" x="239.5031" y="286.7008">observers</text><!--MD5=[88ced35b1fbd43bfe3cb39bd23673e3a]
reverse link ObservedLocation to ObservedLocationMeasurement--><path d="M239.13,224.54 C208.03,249.94 173.15,278.42 149.4,297.81 " fill="none" id="ObservedLocation&lt;-ObservedLocationMeasurement" style="stroke: #A80036; stroke-width: 1.0;"/><polygon fill="#A80036" points="249.52,216.07,242.3427,216.7675,240.226,223.6609,247.4033,222.9635,249.52,216.07" style="stroke: #A80036; stroke-width: 1.0;"/><text fill="#000000" font-family="sans-serif" font-size="13" lengthAdjust="spacingAndGlyphs" textLength="8" x="232.5931" y="236.1563">1</text><text fill="#000000" font-family="sans-serif" font-size="13" lengthAdjust="spacingAndGlyphs" textLength="23" x="130.7306" y="286.7733">0..*</text><!--MD5=[9a456d3eae49fd886904465c346ef5e2]
reverse link Vessel to Landing--><path d="M532,61.49 C532,79.55 532,103.23 532,123.43 " fill="none" id="Vessel&lt;-Landing" style="stroke: #A80036; stroke-width: 1.0;"/><polygon fill="#A80036" points="532,56.08,528,65.08,532,61.08,536,65.08,532,56.08" style="stroke: #A80036; stroke-width: 1.0;"/><text fill="#000000" font-family="sans-serif" font-size="13" lengthAdjust="spacingAndGlyphs" textLength="8" x="522.975" y="76.2563">1</text><text fill="#000000" font-family="sans-serif" font-size="13" lengthAdjust="spacingAndGlyphs" textLength="7" x="524.4422" y="112.4149">*</text><!--MD5=[25f084a7096cd78ad28b92a349f442a3]
reverse link Landing to LandingMeasurement--><path d="M551.26,222.24 C560.39,248.2 570.81,277.84 577.84,297.81 " fill="none" id="Landing&lt;-LandingMeasurement" style="stroke: #A80036; stroke-width: 1.0;"/><polygon fill="#A80036" points="546.9,209.85,545.1164,216.8371,550.8801,221.1707,552.6636,214.1837,546.9,209.85" style="stroke: #A80036; stroke-width: 1.0;"/><text fill="#000000" font-family="sans-serif" font-size="13" lengthAdjust="spacingAndGlyphs" textLength="8" x="540.6372" y="229.9987">1</text><text fill="#000000" font-family="sans-serif" font-size="13" lengthAdjust="spacingAndGlyphs" textLength="23" x="549.8021" y="286.7733">0..*</text><!--MD5=[3d3ed0b36d0ad55db992baab8342f04c]
link Landing to Location--><path d="M502.48,209.85 C483.84,236.58 460.32,270.34 444.1,293.6 " fill="none" id="Landing-&gt;Location" style="stroke: #A80036; stroke-width: 1.0;"/><polygon fill="#A80036" points="441.16,297.81,449.5874,292.713,444.0187,293.7078,443.0239,288.1391,441.16,297.81" style="stroke: #A80036; stroke-width: 1.0;"/><text fill="#000000" font-family="sans-serif" font-size="13" lengthAdjust="spacingAndGlyphs" textLength="7" x="490.2174" y="229.9987">*</text><text fill="#000000" font-family="sans-serif" font-size="13" lengthAdjust="spacingAndGlyphs" textLength="8" x="436.276" y="286.7733">1</text><!--MD5=[8a595edd8973263a86a230f5d91125ed]
link ObservedLocation to Location--><path d="M345.7,216.07 C364.99,241.59 387.93,271.95 404.17,293.43 " fill="none" id="ObservedLocation-&gt;Location" style="stroke: #A80036; stroke-width: 1.0;"/><polygon fill="#A80036" points="407.32,297.6,405.0816,288.0089,404.304,293.612,398.7009,292.8345,407.32,297.6" style="stroke: #A80036; stroke-width: 1.0;"/><text fill="#000000" font-family="sans-serif" font-size="13" lengthAdjust="spacingAndGlyphs" textLength="7" x="343.3688" y="236.1563">*</text><text fill="#000000" font-family="sans-serif" font-size="13" lengthAdjust="spacingAndGlyphs" textLength="8" x="394.0355" y="286.9075">1</text><!--MD5=[82e13079fe574dbed4a33ecdde83b597]
@startuml

class ObservedLocation {
    +id
    +program
    +startDateTime
    +endDateTime [0..1]
}

class Landing {
  +id
  +program
  +landingDateTime
}

ObservedLocation "0..1" *-right- "0..*" Landing : contains
ObservedLocation "1" - -> "1..*\nobservers" Person
ObservedLocation "1" *- - "0..*" ObservedLocationMeasurement

Landing "*" -up-> "1" Vessel
Landing "1" *- - "0..*" LandingMeasurement

package "referential" #DDDDDD {
    Landing "*" - -> "1" Location
    ObservedLocation "*" - -> "1" Location
}

@enduml

PlantUML version 1.2019.12(Sun Nov 03 11:24:54 CET 2019)
(GPL source distribution)
Java Runtime: OpenJDK Runtime Environment
JVM: OpenJDK 64-Bit Server VM
Java Version: 11.0.10+9-Ubuntu-0ubuntu1.20.04
Operating System: Linux
Default Encoding: UTF-8
Language: fr
Country: CA
--></g></svg>