<?xml version="1.0" encoding="UTF-8" standalone="no"?><svg xmlns="http://www.w3.org/2000/svg" xmlns:xlink="http://www.w3.org/1999/xlink" contentStyleType="text/css" height="356px" preserveAspectRatio="none" style="width:809px;height:356px;background:#FFFFFF;" version="1.1" viewBox="0 0 809 356" width="809px" zoomAndPan="magnify"><defs/><g><!--MD5=[95566c14aa2c007e871ef9bf05e5f603]
cluster referential--><g id="cluster_referential"><path d="M389,263 L462,263 A3.75,3.75 0 0 1 464.5,265.5 L471.5,288.0679 L504,288.0679 A2.5,2.5 0 0 1 506.5,290.5679 L506.5,346.5 A2.5,2.5 0 0 1 504,349 L389,349 A2.5,2.5 0 0 1 386.5,346.5 L386.5,265.5 A2.5,2.5 0 0 1 389,263 " fill="#DDDDDD" style="stroke:#000000;stroke-width:1.5;"/><line style="stroke:#000000;stroke-width:1.5;" x1="386.5" x2="471.5" y1="288.0679" y2="288.0679"/><text fill="#000000" font-family="sans-serif" font-size="14" font-weight="bold" lengthAdjust="spacing" textLength="72" x="390.5" y="279.9659">referential</text></g><!--MD5=[4f1f3706c1a355a8488e154afcaed5df]
class Location--><g id="elem_Location"><rect fill="#F1F1F1" height="32" id="Location" rx="2.5" ry="2.5" style="stroke:#181818;stroke-width:0.5;" width="88" x="402.5" y="301"/><ellipse cx="417.5" cy="317" fill="#ADD1B2" rx="11" ry="11" style="stroke:#181818;stroke-width:1.0;"/><path d="M416.9688,323.9219 Q415.2188,323.9219 414.0781,323.1875 Q412.9531,322.4375 412.3906,321.0938 Q411.8438,319.7344 411.8438,317.9375 Q411.8438,315.9063 412.5,314.4531 Q413.1563,313 414.4375,312.2188 Q415.7188,311.4375 417.5938,311.4375 Q418.4844,311.4375 419.1563,311.625 Q419.8281,311.7969 420.5156,312.1406 L419.7031,314.1563 Q419.0781,313.8438 418.5313,313.7188 Q418,313.5938 417.5156,313.5938 Q416.3438,313.5938 415.6406,314.125 Q414.9375,314.6563 414.6406,315.6094 Q414.3438,316.5625 414.3438,317.8281 Q414.3438,319.8438 415.0625,320.8125 Q415.7813,321.7656 417.375,321.7656 Q417.9688,321.7656 418.5938,321.6094 Q419.2188,321.4531 420.0469,321.0781 L420.0469,323.2969 Q419.3125,323.6094 418.5156,323.7656 Q417.7344,323.9219 416.9688,323.9219 Z " fill="#000000"/><text fill="#000000" font-family="sans-serif" font-size="14" lengthAdjust="spacing" textLength="56" x="431.5" y="322.432">Location</text></g><!--MD5=[0c52ec9187bb5ca91b0a36d5770fae1d]
class ObservedLocation--><g id="elem_ObservedLocation"><rect codeLine="3" fill="#F1F1F1" height="116.2717" id="ObservedLocation" rx="2.5" ry="2.5" style="stroke:#181818;stroke-width:0.5;" width="193" x="232" y="100"/><ellipse cx="265" cy="116" fill="#ADD1B2" rx="11" ry="11" style="stroke:#181818;stroke-width:1.0;"/><path d="M264.4688,122.9219 Q262.7188,122.9219 261.5781,122.1875 Q260.4531,121.4375 259.8906,120.0938 Q259.3438,118.7344 259.3438,116.9375 Q259.3438,114.9063 260,113.4531 Q260.6563,112 261.9375,111.2188 Q263.2188,110.4375 265.0938,110.4375 Q265.9844,110.4375 266.6563,110.625 Q267.3281,110.7969 268.0156,111.1406 L267.2031,113.1563 Q266.5781,112.8438 266.0313,112.7188 Q265.5,112.5938 265.0156,112.5938 Q263.8438,112.5938 263.1406,113.125 Q262.4375,113.6563 262.1406,114.6094 Q261.8438,115.5625 261.8438,116.8281 Q261.8438,118.8438 262.5625,119.8125 Q263.2813,120.7656 264.875,120.7656 Q265.4688,120.7656 266.0938,120.6094 Q266.7188,120.4531 267.5469,120.0781 L267.5469,122.2969 Q266.8125,122.6094 266.0156,122.7656 Q265.2344,122.9219 264.4688,122.9219 Z " fill="#000000"/><text fill="#000000" font-family="sans-serif" font-size="14" lengthAdjust="spacing" textLength="121" x="283" y="121.432">ObservedLocation</text><line style="stroke:#181818;stroke-width:0.5;" x1="233" x2="424" y1="132" y2="132"/><ellipse cx="243" cy="147.034" fill="none" rx="3" ry="3" style="stroke:#038048;stroke-width:1.0;"/><text fill="#000000" font-family="sans-serif" font-size="14" lengthAdjust="spacing" textLength="13" x="252" y="150.9659">id</text><ellipse cx="243" cy="166.1019" fill="none" rx="3" ry="3" style="stroke:#038048;stroke-width:1.0;"/><text fill="#000000" font-family="sans-serif" font-size="14" lengthAdjust="spacing" textLength="125" x="252" y="170.0339">program: Program</text><ellipse cx="243" cy="185.1698" fill="none" rx="3" ry="3" style="stroke:#038048;stroke-width:1.0;"/><text fill="#000000" font-family="sans-serif" font-size="14" lengthAdjust="spacing" textLength="134" x="252" y="189.1018">startDateTime: Date</text><ellipse cx="243" cy="204.2377" fill="none" rx="3" ry="3" style="stroke:#038048;stroke-width:1.0;"/><text fill="#000000" font-family="sans-serif" font-size="14" lengthAdjust="spacing" textLength="167" x="252" y="208.1697">endDateTime: Date [0..1]</text></g><!--MD5=[cad5f1f557e769656dcb5f846967bd8a]
class Landing--><g id="elem_Landing"><rect codeLine="10" fill="#F1F1F1" height="97.2038" id="Landing" rx="2.5" ry="2.5" style="stroke:#181818;stroke-width:0.5;" width="181" x="513" y="109.5"/><ellipse cx="571.75" cy="125.5" fill="#ADD1B2" rx="11" ry="11" style="stroke:#181818;stroke-width:1.0;"/><path d="M571.2188,132.4219 Q569.4688,132.4219 568.3281,131.6875 Q567.2031,130.9375 566.6406,129.5938 Q566.0938,128.2344 566.0938,126.4375 Q566.0938,124.4063 566.75,122.9531 Q567.4063,121.5 568.6875,120.7188 Q569.9688,119.9375 571.8438,119.9375 Q572.7344,119.9375 573.4063,120.125 Q574.0781,120.2969 574.7656,120.6406 L573.9531,122.6563 Q573.3281,122.3438 572.7813,122.2188 Q572.25,122.0938 571.7656,122.0938 Q570.5938,122.0938 569.8906,122.625 Q569.1875,123.1563 568.8906,124.1094 Q568.5938,125.0625 568.5938,126.3281 Q568.5938,128.3438 569.3125,129.3125 Q570.0313,130.2656 571.625,130.2656 Q572.2188,130.2656 572.8438,130.1094 Q573.4688,129.9531 574.2969,129.5781 L574.2969,131.7969 Q573.5625,132.1094 572.7656,132.2656 Q571.9844,132.4219 571.2188,132.4219 Z " fill="#000000"/><text fill="#000000" font-family="sans-serif" font-size="14" lengthAdjust="spacing" textLength="55" x="592.25" y="130.932">Landing</text><line style="stroke:#181818;stroke-width:0.5;" x1="514" x2="693" y1="141.5" y2="141.5"/><ellipse cx="524" cy="156.534" fill="none" rx="3" ry="3" style="stroke:#038048;stroke-width:1.0;"/><text fill="#000000" font-family="sans-serif" font-size="14" lengthAdjust="spacing" textLength="13" x="533" y="160.4659">id</text><ellipse cx="524" cy="175.6019" fill="none" rx="3" ry="3" style="stroke:#038048;stroke-width:1.0;"/><text fill="#000000" font-family="sans-serif" font-size="14" lengthAdjust="spacing" textLength="125" x="533" y="179.5339">program: Program</text><ellipse cx="524" cy="194.6698" fill="none" rx="3" ry="3" style="stroke:#038048;stroke-width:1.0;"/><text fill="#000000" font-family="sans-serif" font-size="14" lengthAdjust="spacing" textLength="155" x="533" y="198.6018">landingDateTime: Date</text></g><!--MD5=[09ce52be0ee7de43c61b6e2d59bf108b]
class Person--><g id="elem_Person"><rect fill="#F1F1F1" height="32" id="Person" rx="2.5" ry="2.5" style="stroke:#181818;stroke-width:0.5;" width="78" x="289.5" y="301"/><ellipse cx="304.5" cy="317" fill="#ADD1B2" rx="11" ry="11" style="stroke:#181818;stroke-width:1.0;"/><path d="M303.9688,323.9219 Q302.2188,323.9219 301.0781,323.1875 Q299.9531,322.4375 299.3906,321.0938 Q298.8438,319.7344 298.8438,317.9375 Q298.8438,315.9063 299.5,314.4531 Q300.1563,313 301.4375,312.2188 Q302.7188,311.4375 304.5938,311.4375 Q305.4844,311.4375 306.1563,311.625 Q306.8281,311.7969 307.5156,312.1406 L306.7031,314.1563 Q306.0781,313.8438 305.5313,313.7188 Q305,313.5938 304.5156,313.5938 Q303.3438,313.5938 302.6406,314.125 Q301.9375,314.6563 301.6406,315.6094 Q301.3438,316.5625 301.3438,317.8281 Q301.3438,319.8438 302.0625,320.8125 Q302.7813,321.7656 304.375,321.7656 Q304.9688,321.7656 305.5938,321.6094 Q306.2188,321.4531 307.0469,321.0781 L307.0469,323.2969 Q306.3125,323.6094 305.5156,323.7656 Q304.7344,323.9219 303.9688,323.9219 Z " fill="#000000"/><text fill="#000000" font-family="sans-serif" font-size="14" lengthAdjust="spacing" textLength="46" x="318.5" y="322.432">Person</text></g><!--MD5=[2a67ed55892424e8b769ab42012f174c]
class ObservedLocationMeasurement--><g id="elem_ObservedLocationMeasurement"><rect fill="#F1F1F1" height="32" id="ObservedLocationMeasurement" rx="2.5" ry="2.5" style="stroke:#181818;stroke-width:0.5;" width="247" x="7" y="301"/><ellipse cx="22" cy="317" fill="#ADD1B2" rx="11" ry="11" style="stroke:#181818;stroke-width:1.0;"/><path d="M21.4688,323.9219 Q19.7188,323.9219 18.5781,323.1875 Q17.4531,322.4375 16.8906,321.0938 Q16.3438,319.7344 16.3438,317.9375 Q16.3438,315.9063 17,314.4531 Q17.6563,313 18.9375,312.2188 Q20.2188,311.4375 22.0938,311.4375 Q22.9844,311.4375 23.6563,311.625 Q24.3281,311.7969 25.0156,312.1406 L24.2031,314.1563 Q23.5781,313.8438 23.0313,313.7188 Q22.5,313.5938 22.0156,313.5938 Q20.8438,313.5938 20.1406,314.125 Q19.4375,314.6563 19.1406,315.6094 Q18.8438,316.5625 18.8438,317.8281 Q18.8438,319.8438 19.5625,320.8125 Q20.2813,321.7656 21.875,321.7656 Q22.4688,321.7656 23.0938,321.6094 Q23.7188,321.4531 24.5469,321.0781 L24.5469,323.2969 Q23.8125,323.6094 23.0156,323.7656 Q22.2344,323.9219 21.4688,323.9219 Z " fill="#000000"/><text fill="#000000" font-family="sans-serif" font-size="14" lengthAdjust="spacing" textLength="215" x="36" y="322.432">ObservedLocationMeasurement</text></g><!--MD5=[ed239cddac1bd0ea702000b0a8aa8225]
class Vessel--><g id="elem_Vessel"><rect fill="#F1F1F1" height="32" id="Vessel" rx="2.5" ry="2.5" style="stroke:#181818;stroke-width:0.5;" width="74" x="566.5" y="7"/><ellipse cx="581.5" cy="23" fill="#ADD1B2" rx="11" ry="11" style="stroke:#181818;stroke-width:1.0;"/><path d="M580.9688,29.9219 Q579.2188,29.9219 578.0781,29.1875 Q576.9531,28.4375 576.3906,27.0938 Q575.8438,25.7344 575.8438,23.9375 Q575.8438,21.9063 576.5,20.4531 Q577.1563,19 578.4375,18.2188 Q579.7188,17.4375 581.5938,17.4375 Q582.4844,17.4375 583.1563,17.625 Q583.8281,17.7969 584.5156,18.1406 L583.7031,20.1563 Q583.0781,19.8438 582.5313,19.7188 Q582,19.5938 581.5156,19.5938 Q580.3438,19.5938 579.6406,20.125 Q578.9375,20.6563 578.6406,21.6094 Q578.3438,22.5625 578.3438,23.8281 Q578.3438,25.8438 579.0625,26.8125 Q579.7813,27.7656 581.375,27.7656 Q581.9688,27.7656 582.5938,27.6094 Q583.2188,27.4531 584.0469,27.0781 L584.0469,29.2969 Q583.3125,29.6094 582.5156,29.7656 Q581.7344,29.9219 580.9688,29.9219 Z " fill="#000000"/><text fill="#000000" font-family="sans-serif" font-size="14" lengthAdjust="spacing" textLength="42" x="595.5" y="28.432">Vessel</text></g><!--MD5=[f8082c124393487de541aee2ab845f73]
class LandingMeasurement--><g id="elem_LandingMeasurement"><rect fill="#F1F1F1" height="32" id="LandingMeasurement" rx="2.5" ry="2.5" style="stroke:#181818;stroke-width:0.5;" width="181" x="526" y="301"/><ellipse cx="541" cy="317" fill="#ADD1B2" rx="11" ry="11" style="stroke:#181818;stroke-width:1.0;"/><path d="M540.4688,323.9219 Q538.7188,323.9219 537.5781,323.1875 Q536.4531,322.4375 535.8906,321.0938 Q535.3438,319.7344 535.3438,317.9375 Q535.3438,315.9063 536,314.4531 Q536.6563,313 537.9375,312.2188 Q539.2188,311.4375 541.0938,311.4375 Q541.9844,311.4375 542.6563,311.625 Q543.3281,311.7969 544.0156,312.1406 L543.2031,314.1563 Q542.5781,313.8438 542.0313,313.7188 Q541.5,313.5938 541.0156,313.5938 Q539.8438,313.5938 539.1406,314.125 Q538.4375,314.6563 538.1406,315.6094 Q537.8438,316.5625 537.8438,317.8281 Q537.8438,319.8438 538.5625,320.8125 Q539.2813,321.7656 540.875,321.7656 Q541.4688,321.7656 542.0938,321.6094 Q542.7188,321.4531 543.5469,321.0781 L543.5469,323.2969 Q542.8125,323.6094 542.0156,323.7656 Q541.2344,323.9219 540.4688,323.9219 Z " fill="#000000"/><text fill="#000000" font-family="sans-serif" font-size="14" lengthAdjust="spacing" textLength="149" x="555" y="322.432">LandingMeasurement</text></g><!--MD5=[18f5b4ccae6e62f3670d3aa352beb4cd]
class Trip--><g id="elem_Trip"><rect fill="#F1F1F1" height="32" id="Trip" rx="2.5" ry="2.5" style="stroke:#181818;stroke-width:0.5;" width="59" x="743" y="142"/><ellipse cx="758" cy="158" fill="#ADD1B2" rx="11" ry="11" style="stroke:#181818;stroke-width:1.0;"/><path d="M757.4688,164.9219 Q755.7188,164.9219 754.5781,164.1875 Q753.4531,163.4375 752.8906,162.0938 Q752.3438,160.7344 752.3438,158.9375 Q752.3438,156.9063 753,155.4531 Q753.6563,154 754.9375,153.2188 Q756.2188,152.4375 758.0938,152.4375 Q758.9844,152.4375 759.6563,152.625 Q760.3281,152.7969 761.0156,153.1406 L760.2031,155.1563 Q759.5781,154.8438 759.0313,154.7188 Q758.5,154.5938 758.0156,154.5938 Q756.8438,154.5938 756.1406,155.125 Q755.4375,155.6563 755.1406,156.6094 Q754.8438,157.5625 754.8438,158.8281 Q754.8438,160.8438 755.5625,161.8125 Q756.2813,162.7656 757.875,162.7656 Q758.4688,162.7656 759.0938,162.6094 Q759.7188,162.4531 760.5469,162.0781 L760.5469,164.2969 Q759.8125,164.6094 759.0156,164.7656 Q758.2344,164.9219 757.4688,164.9219 Z " fill="#000000"/><text fill="#000000" font-family="sans-serif" font-size="14" lengthAdjust="spacing" textLength="27" x="772" y="163.432">Trip</text></g><!--MD5=[e496a25b05fae38f68db7cd270c11ec4]
reverse link ObservedLocation to Landing--><g id="link_ObservedLocation_Landing"><path codeLine="16" d="M438.24,158 C462.94,158 488.88,158 512.7,158 " fill="none" id="ObservedLocation-backto-Landing" style="stroke:#181818;stroke-width:1.0;"/><polygon fill="#181818" points="425.07,158,431.07,162,437.07,158,431.07,154,425.07,158" style="stroke:#181818;stroke-width:1.0;"/><text fill="#000000" font-family="sans-serif" font-size="13" lengthAdjust="spacing" textLength="51" x="443.5" y="150.897">contains</text><text fill="#000000" font-family="sans-serif" font-size="13" lengthAdjust="spacing" textLength="20" x="432.8962" y="172.5372">0..1</text><text fill="#000000" font-family="sans-serif" font-size="13" lengthAdjust="spacing" textLength="7" x="497.8908" y="154.2139">*</text></g><!--MD5=[d51e6d04aeb243fcea8b468a282d6a77]
link ObservedLocation to Person--><g id="link_ObservedLocation_Person"><path codeLine="17" d="M328.5,216.12 C328.5,243.97 328.5,275.7 328.5,295.79 " fill="none" id="ObservedLocation-to-Person" style="stroke:#181818;stroke-width:1.0;"/><polygon fill="#181818" points="328.5,300.88,332.5,291.88,328.5,295.88,324.5,291.88,328.5,300.88" style="stroke:#181818;stroke-width:1.0;"/><text fill="#000000" font-family="sans-serif" font-size="13" lengthAdjust="spacing" textLength="7" x="321.0734" y="238.1628">1</text><text fill="#000000" font-family="sans-serif" font-size="13" lengthAdjust="spacing" textLength="20" x="281.8094" y="271.6324">1..*</text><text fill="#000000" font-family="sans-serif" font-size="13" lengthAdjust="spacing" textLength="59" x="262.3094" y="289.3384">observers</text></g><!--MD5=[88ced35b1fbd43bfe3cb39bd23673e3a]
reverse link ObservedLocation to ObservedLocationMeasurement--><g id="link_ObservedLocation_ObservedLocationMeasurement"><path codeLine="18" d="M246.02,224.4 C210.44,252.62 171.92,283.16 149.57,300.88 " fill="none" id="ObservedLocation-backto-ObservedLocationMeasurement" style="stroke:#181818;stroke-width:1.0;"/><polygon fill="#181818" points="256.46,216.12,249.2737,216.7176,247.0613,223.5809,254.2476,222.9833,256.46,216.12" style="stroke:#181818;stroke-width:1.0;"/><text fill="#000000" font-family="sans-serif" font-size="13" lengthAdjust="spacing" textLength="7" x="240.2536" y="238.1628">1</text><text fill="#000000" font-family="sans-serif" font-size="13" lengthAdjust="spacing" textLength="7" x="148.1168" y="289.1319">*</text></g><!--MD5=[9a456d3eae49fd886904465c346ef5e2]
reverse link Vessel to Landing--><g id="link_Vessel_Landing"><path codeLine="20" d="M603.5,44.34 C603.5,61.62 603.5,87.1 603.5,109.46 " fill="none" id="Vessel-backto-Landing" style="stroke:#181818;stroke-width:1.0;"/><polygon fill="#181818" points="603.5,39.26,599.5,48.26,603.5,44.26,607.5,48.26,603.5,39.26" style="stroke:#181818;stroke-width:1.0;"/><text fill="#000000" font-family="sans-serif" font-size="13" lengthAdjust="spacing" textLength="7" x="595.4281" y="60.8479">1</text><text fill="#000000" font-family="sans-serif" font-size="13" lengthAdjust="spacing" textLength="7" x="595.9641" y="97.6612">*</text></g><!--MD5=[25f084a7096cd78ad28b92a349f442a3]
reverse link Landing to LandingMeasurement--><g id="link_Landing_LandingMeasurement"><path codeLine="21" d="M608.53,219.71 C610.96,249.05 613.68,281.91 615.23,300.65 " fill="none" id="Landing-backto-LandingMeasurement" style="stroke:#181818;stroke-width:1.0;"/><polygon fill="#181818" points="607.44,206.53,603.9481,212.8392,608.4289,218.4892,611.9208,212.18,607.44,206.53" style="stroke:#181818;stroke-width:1.0;"/><text fill="#000000" font-family="sans-serif" font-size="13" lengthAdjust="spacing" textLength="7" x="600.5019" y="228.4822">1</text><text fill="#000000" font-family="sans-serif" font-size="13" lengthAdjust="spacing" textLength="7" x="606.5903" y="289.1262">*</text></g><!--MD5=[1a63bf530c0bf5031ee2f368980d8fb0]
link Landing to Trip--><g id="link_Landing_Trip"><path codeLine="22" d="M694.43,158 C711.93,158 729.06,158 742.8,158 " fill="none" id="Landing-Trip" style="stroke:#181818;stroke-width:1.0;"/><text fill="#000000" font-family="sans-serif" font-size="13" lengthAdjust="spacing" textLength="12" x="712.5" y="150.897">    </text><text fill="#000000" font-family="sans-serif" font-size="13" lengthAdjust="spacing" textLength="7" x="701.9549" y="154.2397">*</text><text fill="#000000" font-family="sans-serif" font-size="13" lengthAdjust="spacing" textLength="20" x="714.9841" y="173.6399">0..1</text></g><!--MD5=[3d3ed0b36d0ad55db992baab8342f04c]
link Landing to Location--><g id="link_Landing_Location"><path codeLine="25" d="M555.97,206.53 C525.6,236.9 487.86,274.64 465.56,296.94 " fill="none" id="Landing-to-Location" style="stroke:#181818;stroke-width:1.0;"/><polygon fill="#181818" points="461.85,300.65,471.0424,297.1145,465.3855,297.1145,465.3855,291.4576,461.85,300.65" style="stroke:#181818;stroke-width:1.0;"/><text fill="#000000" font-family="sans-serif" font-size="13" lengthAdjust="spacing" textLength="7" x="541.7939" y="228.4822">*</text><text fill="#000000" font-family="sans-serif" font-size="13" lengthAdjust="spacing" textLength="7" x="458.9234" y="289.1262">1</text></g><!--MD5=[8a595edd8973263a86a230f5d91125ed]
link ObservedLocation to Location--><g id="link_ObservedLocation_Location"><path codeLine="26" d="M371.43,216.12 C392.72,244.45 417.03,276.79 432.07,296.8 " fill="none" id="ObservedLocation-to-Location" style="stroke:#181818;stroke-width:1.0;"/><polygon fill="#181818" points="435.13,300.88,432.93,291.28,432.13,296.88,426.53,296.08,435.13,300.88" style="stroke:#181818;stroke-width:1.0;"/><text fill="#000000" font-family="sans-serif" font-size="13" lengthAdjust="spacing" textLength="7" x="369.2355" y="238.1628">*</text><text fill="#000000" font-family="sans-serif" font-size="13" lengthAdjust="spacing" textLength="7" x="422.8326" y="289.1319">1</text></g></g></svg>