<?xml version="1.0" encoding="UTF-8" standalone="no"?><svg xmlns="http://www.w3.org/2000/svg" xmlns:xlink="http://www.w3.org/1999/xlink" contentStyleType="text/css" height="412px" preserveAspectRatio="none" style="width:716px;height:412px;background:#FFFFFF;" version="1.1" viewBox="0 0 716 412" width="716px" zoomAndPan="magnify"><defs/><g><!--MD5=[da05ae347a1e43de204355cd451af99f]
class ScientificCruise--><g id="elem_ScientificCruise"><rect codeLine="3" fill="#F1F1F1" height="211.6113" id="ScientificCruise" rx="2.5" ry="2.5" style="stroke:#181818;stroke-width:0.5;" width="197" x="226.5" y="100"/><ellipse cx="268.95" cy="116" fill="#ADD1B2" rx="11" ry="11" style="stroke:#181818;stroke-width:1.0;"/><path d="M268.4188,122.9219 Q266.6688,122.9219 265.5281,122.1875 Q264.4031,121.4375 263.8406,120.0938 Q263.2938,118.7344 263.2938,116.9375 Q263.2938,114.9063 263.95,113.4531 Q264.6063,112 265.8875,111.2188 Q267.1688,110.4375 269.0438,110.4375 Q269.9344,110.4375 270.6063,110.625 Q271.2781,110.7969 271.9656,111.1406 L271.1531,113.1563 Q270.5281,112.8438 269.9813,112.7188 Q269.45,112.5938 268.9656,112.5938 Q267.7938,112.5938 267.0906,113.125 Q266.3875,113.6563 266.0906,114.6094 Q265.7938,115.5625 265.7938,116.8281 Q265.7938,118.8438 266.5125,119.8125 Q267.2313,120.7656 268.825,120.7656 Q269.4188,120.7656 270.0438,120.6094 Q270.6688,120.4531 271.4969,120.0781 L271.4969,122.2969 Q270.7625,122.6094 269.9656,122.7656 Q269.1844,122.9219 268.4188,122.9219 Z " fill="#000000"/><text fill="#000000" font-family="sans-serif" font-size="14" lengthAdjust="spacing" textLength="104" x="289.05" y="121.432">ScientificCruise</text><line style="stroke:#181818;stroke-width:0.5;" x1="227.5" x2="422.5" y1="132" y2="132"/><ellipse cx="237.5" cy="147.034" fill="none" rx="3" ry="3" style="stroke:#038048;stroke-width:1.0;"/><text fill="#000000" font-family="sans-serif" font-size="14" lengthAdjust="spacing" textLength="71" x="246.5" y="150.9659">id: Integer</text><ellipse cx="237.5" cy="166.1019" fill="none" rx="3" ry="3" style="stroke:#038048;stroke-width:1.0;"/><text fill="#000000" font-family="sans-serif" font-size="14" lengthAdjust="spacing" textLength="87" x="246.5" y="170.0339">name: String</text><ellipse cx="237.5" cy="185.1698" fill="none" rx="3" ry="3" style="stroke:#038048;stroke-width:1.0;"/><text fill="#000000" font-family="sans-serif" font-size="14" lengthAdjust="spacing" textLength="125" x="246.5" y="189.1018">program: Program</text><ellipse cx="237.5" cy="204.2377" fill="none" rx="3" ry="3" style="stroke:#038048;stroke-width:1.0;"/><text fill="#000000" font-family="sans-serif" font-size="14" lengthAdjust="spacing" textLength="171" x="246.5" y="208.1697">departureDateTime: Date</text><ellipse cx="237.5" cy="223.3056" fill="none" rx="3" ry="3" style="stroke:#038048;stroke-width:1.0;"/><text fill="#000000" font-family="sans-serif" font-size="14" lengthAdjust="spacing" textLength="146" x="246.5" y="227.2376">returnDateTime: Date</text><ellipse cx="237.5" cy="242.3735" fill="none" rx="3" ry="3" style="stroke:#038048;stroke-width:1.0;"/><text fill="#000000" font-family="sans-serif" font-size="14" lengthAdjust="spacing" textLength="152" x="246.5" y="246.3055">reference: String [0..1]</text><ellipse cx="237.5" cy="261.4415" fill="none" rx="3" ry="3" style="stroke:#038048;stroke-width:1.0;"/><text fill="#000000" font-family="sans-serif" font-size="14" lengthAdjust="spacing" textLength="157" x="246.5" y="265.3734">comments: String [0..1]</text><ellipse cx="237.5" cy="280.5094" fill="none" rx="3" ry="3" style="stroke:#038048;stroke-width:1.0;"/><text fill="#000000" font-family="sans-serif" font-size="14" lengthAdjust="spacing" textLength="169" x="246.5" y="284.4414">creationDate: Timestamp</text><ellipse cx="237.5" cy="299.5773" fill="none" rx="3" ry="3" style="stroke:#038048;stroke-width:1.0;"/><text fill="#000000" font-family="sans-serif" font-size="14" lengthAdjust="spacing" textLength="162" x="246.5" y="303.5093">updateDate: Timestamp</text></g><!--MD5=[ed239cddac1bd0ea702000b0a8aa8225]
class Vessel--><g id="elem_Vessel"><rect fill="#F1F1F1" height="32" id="Vessel" rx="2.5" ry="2.5" style="stroke:#181818;stroke-width:0.5;" width="74" x="288" y="7"/><ellipse cx="303" cy="23" fill="#ADD1B2" rx="11" ry="11" style="stroke:#181818;stroke-width:1.0;"/><path d="M302.4688,29.9219 Q300.7188,29.9219 299.5781,29.1875 Q298.4531,28.4375 297.8906,27.0938 Q297.3438,25.7344 297.3438,23.9375 Q297.3438,21.9063 298,20.4531 Q298.6563,19 299.9375,18.2188 Q301.2188,17.4375 303.0938,17.4375 Q303.9844,17.4375 304.6563,17.625 Q305.3281,17.7969 306.0156,18.1406 L305.2031,20.1563 Q304.5781,19.8438 304.0313,19.7188 Q303.5,19.5938 303.0156,19.5938 Q301.8438,19.5938 301.1406,20.125 Q300.4375,20.6563 300.1406,21.6094 Q299.8438,22.5625 299.8438,23.8281 Q299.8438,25.8438 300.5625,26.8125 Q301.2813,27.7656 302.875,27.7656 Q303.4688,27.7656 304.0938,27.6094 Q304.7188,27.4531 305.5469,27.0781 L305.5469,29.2969 Q304.8125,29.6094 304.0156,29.7656 Q303.2344,29.9219 302.4688,29.9219 Z " fill="#000000"/><text fill="#000000" font-family="sans-serif" font-size="14" lengthAdjust="spacing" textLength="42" x="317" y="28.432">Vessel</text></g><!--MD5=[18f5b4ccae6e62f3670d3aa352beb4cd]
class Trip--><g id="elem_Trip"><rect fill="#F1F1F1" height="32" id="Trip" rx="2.5" ry="2.5" style="stroke:#181818;stroke-width:0.5;" width="59" x="295.5" y="373"/><ellipse cx="310.5" cy="389" fill="#ADD1B2" rx="11" ry="11" style="stroke:#181818;stroke-width:1.0;"/><path d="M309.9688,395.9219 Q308.2188,395.9219 307.0781,395.1875 Q305.9531,394.4375 305.3906,393.0938 Q304.8438,391.7344 304.8438,389.9375 Q304.8438,387.9063 305.5,386.4531 Q306.1563,385 307.4375,384.2188 Q308.7188,383.4375 310.5938,383.4375 Q311.4844,383.4375 312.1563,383.625 Q312.8281,383.7969 313.5156,384.1406 L312.7031,386.1563 Q312.0781,385.8438 311.5313,385.7188 Q311,385.5938 310.5156,385.5938 Q309.3438,385.5938 308.6406,386.125 Q307.9375,386.6563 307.6406,387.6094 Q307.3438,388.5625 307.3438,389.8281 Q307.3438,391.8438 308.0625,392.8125 Q308.7813,393.7656 310.375,393.7656 Q310.9688,393.7656 311.5938,393.6094 Q312.2188,393.4531 313.0469,393.0781 L313.0469,395.2969 Q312.3125,395.6094 311.5156,395.7656 Q310.7344,395.9219 309.9688,395.9219 Z " fill="#000000"/><text fill="#000000" font-family="sans-serif" font-size="14" lengthAdjust="spacing" textLength="27" x="324.5" y="394.432">Trip</text></g><!--MD5=[09ce52be0ee7de43c61b6e2d59bf108b]
class Person--><g id="elem_Person"><rect fill="#F1F1F1" height="32" id="Person" rx="2.5" ry="2.5" style="stroke:#181818;stroke-width:0.5;" width="78" x="7" y="190"/><ellipse cx="22" cy="206" fill="#ADD1B2" rx="11" ry="11" style="stroke:#181818;stroke-width:1.0;"/><path d="M21.4688,212.9219 Q19.7188,212.9219 18.5781,212.1875 Q17.4531,211.4375 16.8906,210.0938 Q16.3438,208.7344 16.3438,206.9375 Q16.3438,204.9063 17,203.4531 Q17.6563,202 18.9375,201.2188 Q20.2188,200.4375 22.0938,200.4375 Q22.9844,200.4375 23.6563,200.625 Q24.3281,200.7969 25.0156,201.1406 L24.2031,203.1563 Q23.5781,202.8438 23.0313,202.7188 Q22.5,202.5938 22.0156,202.5938 Q20.8438,202.5938 20.1406,203.125 Q19.4375,203.6563 19.1406,204.6094 Q18.8438,205.5625 18.8438,206.8281 Q18.8438,208.8438 19.5625,209.8125 Q20.2813,210.7656 21.875,210.7656 Q22.4688,210.7656 23.0938,210.6094 Q23.7188,210.4531 24.5469,210.0781 L24.5469,212.2969 Q23.8125,212.6094 23.0156,212.7656 Q22.2344,212.9219 21.4688,212.9219 Z " fill="#000000"/><text fill="#000000" font-family="sans-serif" font-size="14" lengthAdjust="spacing" textLength="46" x="36" y="211.432">Person</text></g><!--MD5=[c50d89439a12e948b363c4efab1c487c]
class Department--><g id="elem_Department"><rect fill="#F1F1F1" height="32" id="Department" rx="2.5" ry="2.5" style="stroke:#181818;stroke-width:0.5;" width="113" x="596.5" y="190"/><ellipse cx="611.5" cy="206" fill="#ADD1B2" rx="11" ry="11" style="stroke:#181818;stroke-width:1.0;"/><path d="M610.9688,212.9219 Q609.2188,212.9219 608.0781,212.1875 Q606.9531,211.4375 606.3906,210.0938 Q605.8438,208.7344 605.8438,206.9375 Q605.8438,204.9063 606.5,203.4531 Q607.1563,202 608.4375,201.2188 Q609.7188,200.4375 611.5938,200.4375 Q612.4844,200.4375 613.1563,200.625 Q613.8281,200.7969 614.5156,201.1406 L613.7031,203.1563 Q613.0781,202.8438 612.5313,202.7188 Q612,202.5938 611.5156,202.5938 Q610.3438,202.5938 609.6406,203.125 Q608.9375,203.6563 608.6406,204.6094 Q608.3438,205.5625 608.3438,206.8281 Q608.3438,208.8438 609.0625,209.8125 Q609.7813,210.7656 611.375,210.7656 Q611.9688,210.7656 612.5938,210.6094 Q613.2188,210.4531 614.0469,210.0781 L614.0469,212.2969 Q613.3125,212.6094 612.5156,212.7656 Q611.7344,212.9219 610.9688,212.9219 Z " fill="#000000"/><text fill="#000000" font-family="sans-serif" font-size="14" lengthAdjust="spacing" textLength="81" x="625.5" y="211.432">Department</text></g><!--MD5=[42bf712be4cb3e2f806ae4534c412a06]
reverse link Vessel to ScientificCruise--><g id="link_Vessel_ScientificCruise"><path codeLine="15" d="M325,44.44 C325,58.62 325,78.7 325,99.88 " fill="none" id="Vessel-backto-ScientificCruise" style="stroke:#181818;stroke-width:1.0;"/><polygon fill="#181818" points="325,39.12,321,48.12,325,44.12,329,48.12,325,39.12" style="stroke:#181818;stroke-width:1.0;"/><text fill="#000000" font-family="sans-serif" font-size="13" lengthAdjust="spacing" textLength="7" x="316.8844" y="60.9772">1</text><text fill="#000000" font-family="sans-serif" font-size="13" lengthAdjust="spacing" textLength="7" x="317.732" y="88.0433">*</text></g><!--MD5=[a28be0bf9c869797f20eec0fadc79a83]
reverse link ScientificCruise to Trip--><g id="link_ScientificCruise_Trip"><path codeLine="16" d="M325,325.07 C325,344.06 325,361.27 325,372.87 " fill="none" id="ScientificCruise-backto-Trip" style="stroke:#181818;stroke-width:1.0;"/><polygon fill="#181818" points="325,312.03,321,318.03,325,324.03,329,318.03,325,312.03" style="stroke:#181818;stroke-width:1.0;"/><text fill="#000000" font-family="sans-serif" font-size="13" lengthAdjust="spacing" textLength="20" x="304.3281" y="333.6588">0..1</text><text fill="#000000" font-family="sans-serif" font-size="13" lengthAdjust="spacing" textLength="7" x="316.7531" y="361.1183">1</text></g><!--MD5=[b11b2954db855040e965bf3803fc8bb8]
reverse link Person to ScientificCruise--><g id="link_Person_ScientificCruise"><path codeLine="17" d="M90.35,206 C126.84,206 179.94,206 226.39,206 " fill="none" id="Person-backto-ScientificCruise" style="stroke:#181818;stroke-width:1.0;"/><polygon fill="#181818" points="85.09,206,94.09,210,90.09,206,94.09,202,85.09,206" style="stroke:#181818;stroke-width:1.0;"/><text fill="#000000" font-family="sans-serif" font-size="13" lengthAdjust="spacing" textLength="96" x="103.25" y="198.897">managerPerson</text><text fill="#000000" font-family="sans-serif" font-size="13" lengthAdjust="spacing" textLength="7" x="92.9425" y="201.3949">1</text><text fill="#000000" font-family="sans-serif" font-size="13" lengthAdjust="spacing" textLength="7" x="211.5722" y="202.2881">*</text></g><!--MD5=[b11b2954db855040e965bf3803fc8bb8]
reverse link Person to ScientificCruise--><g id="link_Person_ScientificCruise"><path codeLine="18" d="M87.1,223.72 C92.61,225.48 98.26,226.99 103.75,228 C143.61,235.34 187.99,232.95 226.48,227.59 " fill="none" id="Person-backto-ScientificCruise-1" style="stroke:#181818;stroke-width:1.0;"/><polygon fill="#181818" points="82.08,222.03,89.3292,228.697,86.8177,223.6283,91.8864,221.1167,82.08,222.03" style="stroke:#181818;stroke-width:1.0;"/><text fill="#000000" font-family="sans-serif" font-size="13" lengthAdjust="spacing" textLength="93" x="104.75" y="223.897">recorderPerson</text><text fill="#000000" font-family="sans-serif" font-size="13" lengthAdjust="spacing" textLength="20" x="70.393" y="243.8585">0..1</text><text fill="#000000" font-family="sans-serif" font-size="13" lengthAdjust="spacing" textLength="7" x="211.3503" y="225.5737">*</text></g><!--MD5=[ea46a2ab346f330d585d8ac81b251afe]
link ScientificCruise to Department--><g id="link_ScientificCruise_Department"><path codeLine="19" d="M423.86,206 C478.27,206 544.12,206 591.23,206 " fill="none" id="ScientificCruise-to-Department" style="stroke:#181818;stroke-width:1.0;"/><polygon fill="#181818" points="596.31,206,587.31,202,591.31,206,587.31,210,596.31,206" style="stroke:#181818;stroke-width:1.0;"/><text fill="#000000" font-family="sans-serif" font-size="13" lengthAdjust="spacing" textLength="124" x="454" y="198.897">recorderDepartment</text><text fill="#000000" font-family="sans-serif" font-size="13" lengthAdjust="spacing" textLength="7" x="431.3771" y="202.313">*</text><text fill="#000000" font-family="sans-serif" font-size="13" lengthAdjust="spacing" textLength="7" x="581.5982" y="201.8532">1</text></g></g></svg>