<?xml version="1.0" encoding="us-ascii" standalone="no"?><svg xmlns="http://www.w3.org/2000/svg" xmlns:xlink="http://www.w3.org/1999/xlink" contentStyleType="text/css" height="524px" preserveAspectRatio="none" style="width:193px;height:524px;background:#FFFFFF;" version="1.1" viewBox="0 0 193 524" width="193px" zoomAndPan="magnify"><defs/><g><g id="Saisie"><rect fill="#F1F1F1" height="82.8906" rx="12.5" ry="12.5" style="stroke:#181818;stroke-width:0.5;" width="179" x="7" y="7"/><line style="stroke:#181818;stroke-width:0.5;" x1="7" x2="186" y1="34.6094" y2="34.6094"/><text fill="#000000" font-family="sans-serif" font-size="14" lengthAdjust="spacing" textLength="38" x="77.5" y="26.5332">Saisie</text><text fill="#000000" font-family="sans-serif" font-size="12" lengthAdjust="spacing" textLength="137" x="12" y="52.0664">Sans de date de contr&#244;le</text><text fill="#000000" font-family="sans-serif" font-size="12" lengthAdjust="spacing" textLength="145" x="12" y="67.1602">Sans de date de validation</text><text fill="#000000" font-family="sans-serif" font-size="12" lengthAdjust="spacing" textLength="159" x="12" y="82.2539">Sans de date de qualification</text></g><g id="Termin&#233;"><rect fill="#F1F1F1" height="82.8906" rx="12.5" ry="12.5" style="stroke:#181818;stroke-width:0.5;" width="179" x="7" y="150"/><line style="stroke:#181818;stroke-width:0.5;" x1="7" x2="186" y1="177.6094" y2="177.6094"/><text fill="#000000" font-family="sans-serif" font-size="14" lengthAdjust="spacing" textLength="52" x="70.5" y="169.5332">Termin&#233;</text><text fill="#000000" font-family="sans-serif" font-size="12" lengthAdjust="spacing" textLength="133" x="12" y="195.0664">Avec de date de contr&#244;le</text><text fill="#000000" font-family="sans-serif" font-size="12" lengthAdjust="spacing" textLength="145" x="12" y="210.1602">Sans de date de validation</text><text fill="#000000" font-family="sans-serif" font-size="12" lengthAdjust="spacing" textLength="159" x="12" y="225.2539">Sans de date de qualification</text></g><g id="Valid&#233;"><rect fill="#F1F1F1" height="82.8906" rx="12.5" ry="12.5" style="stroke:#181818;stroke-width:0.5;" width="179" x="7" y="293"/><line style="stroke:#181818;stroke-width:0.5;" x1="7" x2="186" y1="320.6094" y2="320.6094"/><text fill="#000000" font-family="sans-serif" font-size="14" lengthAdjust="spacing" textLength="39" x="77" y="312.5332">Valid&#233;</text><text fill="#000000" font-family="sans-serif" font-size="12" lengthAdjust="spacing" textLength="133" x="12" y="338.0664">Avec de date de contr&#244;le</text><text fill="#000000" font-family="sans-serif" font-size="12" lengthAdjust="spacing" textLength="141" x="12" y="353.1602">Avec de date de validation</text><text fill="#000000" font-family="sans-serif" font-size="12" lengthAdjust="spacing" textLength="159" x="12" y="368.2539">Sans de date de qualification</text></g><g id="Qualifi&#233;"><rect fill="#F1F1F1" height="82.8906" rx="12.5" ry="12.5" style="stroke:#181818;stroke-width:0.5;" width="175" x="9" y="436"/><line style="stroke:#181818;stroke-width:0.5;" x1="9" x2="184" y1="463.6094" y2="463.6094"/><text fill="#000000" font-family="sans-serif" font-size="14" lengthAdjust="spacing" textLength="48" x="72.5" y="455.5332">Qualifi&#233;</text><text fill="#000000" font-family="sans-serif" font-size="12" lengthAdjust="spacing" textLength="133" x="14" y="481.0664">Avec de date de contr&#244;le</text><text fill="#000000" font-family="sans-serif" font-size="12" lengthAdjust="spacing" textLength="141" x="14" y="496.1602">Avec de date de validation</text><text fill="#000000" font-family="sans-serif" font-size="12" lengthAdjust="spacing" textLength="155" x="14" y="511.2539">Avec de date de qualification</text></g><!--link Saisie to Termin?--><g id="link_Saisie_Termin&#233;"><path d="M84.82,90.28 C83.39,108.99 82.9325,125.1275 84.3625,143.8275 " fill="none" id="Saisie-to-Termin&#233;" style="stroke:#181818;stroke-width:1.0;"/><polygon fill="#181818" points="84.82,149.81,88.1221,140.5312,84.4388,144.8246,80.1454,141.1412,84.82,149.81" style="stroke:#181818;stroke-width:1.0;"/></g><!--link Termin? to Saisie--><g id="link_Termin&#233;_Saisie"><path d="M108.86,149.81 C110.38,131.11 110.8627,114.9706 109.3527,96.2606 " fill="none" id="Termin&#233;-to-Saisie" style="stroke:#181818;stroke-width:1.0;"/><polygon fill="#181818" points="108.87,90.28,105.607,99.5726,109.2722,95.2638,113.581,98.9291,108.87,90.28" style="stroke:#181818;stroke-width:1.0;"/></g><!--link Termin? to Valid?--><g id="link_Termin&#233;_Valid&#233;"><path d="M84.82,233.28 C83.39,251.99 82.9325,268.1275 84.3625,286.8275 " fill="none" id="Termin&#233;-to-Valid&#233;" style="stroke:#181818;stroke-width:1.0;"/><polygon fill="#181818" points="84.82,292.81,88.1221,283.5312,84.4388,287.8246,80.1454,284.1412,84.82,292.81" style="stroke:#181818;stroke-width:1.0;"/></g><!--link Valid? to Termin?--><g id="link_Valid&#233;_Termin&#233;"><path d="M108.86,292.81 C110.38,274.11 110.8627,257.9706 109.3527,239.2606 " fill="none" id="Valid&#233;-to-Termin&#233;" style="stroke:#181818;stroke-width:1.0;"/><polygon fill="#181818" points="108.87,233.28,105.607,242.5726,109.2722,238.2638,113.581,241.9291,108.87,233.28" style="stroke:#181818;stroke-width:1.0;"/></g><!--link Valid? to Qualifi?--><g id="link_Valid&#233;_Qualifi&#233;"><path d="M84.82,376.28 C83.39,394.99 82.9325,411.1275 84.3625,429.8275 " fill="none" id="Valid&#233;-to-Qualifi&#233;" style="stroke:#181818;stroke-width:1.0;"/><polygon fill="#181818" points="84.82,435.81,88.1221,426.5312,84.4388,430.8246,80.1454,427.1412,84.82,435.81" style="stroke:#181818;stroke-width:1.0;"/></g><!--link Qualifi? to Valid?--><g id="link_Qualifi&#233;_Valid&#233;"><path d="M108.86,435.81 C110.38,417.11 110.8627,400.9706 109.3527,382.2606 " fill="none" id="Qualifi&#233;-to-Valid&#233;" style="stroke:#181818;stroke-width:1.0;"/><polygon fill="#181818" points="108.87,376.28,105.607,385.5726,109.2722,381.2638,113.581,384.9291,108.87,376.28" style="stroke:#181818;stroke-width:1.0;"/></g></g></svg>