<?xml version="1.0" encoding="us-ascii" standalone="no"?><svg xmlns="http://www.w3.org/2000/svg" xmlns:xlink="http://www.w3.org/1999/xlink" contentStyleType="text/css" height="505px" preserveAspectRatio="none" style="width:218px;height:505px;background:#FFFFFF;" version="1.1" viewBox="0 0 218 505" width="218px" zoomAndPan="magnify"><defs/><g><g id="Saisie"><rect fill="#F1F1F1" height="78.2031" rx="12.5" ry="12.5" style="stroke:#181818;stroke-width:0.5;" width="204" x="7" y="7"/><line style="stroke:#181818;stroke-width:0.5;" x1="7" x2="211" y1="33.2969" y2="33.2969"/><text fill="#000000" font-family="sans-serif" font-size="14" lengthAdjust="spacing" textLength="40" x="89" y="24.9951">Saisie</text><text fill="#000000" font-family="sans-serif" font-size="12" lengthAdjust="spacing" textLength="160" x="12" y="49.4355">Sans de date de contr&#244;le</text><text fill="#000000" font-family="sans-serif" font-size="12" lengthAdjust="spacing" textLength="168" x="12" y="63.4043">Sans de date de validation</text><text fill="#000000" font-family="sans-serif" font-size="12" lengthAdjust="spacing" textLength="184" x="12" y="77.373">Sans de date de qualification</text></g><g id="Termin&#233;"><rect fill="#F1F1F1" height="78.2031" rx="12.5" ry="12.5" style="stroke:#181818;stroke-width:0.5;" width="204" x="7" y="145"/><line style="stroke:#181818;stroke-width:0.5;" x1="7" x2="211" y1="171.2969" y2="171.2969"/><text fill="#000000" font-family="sans-serif" font-size="14" lengthAdjust="spacing" textLength="57" x="80.5" y="162.9951">Termin&#233;</text><text fill="#000000" font-family="sans-serif" font-size="12" lengthAdjust="spacing" textLength="158" x="12" y="187.4355">Avec de date de contr&#244;le</text><text fill="#000000" font-family="sans-serif" font-size="12" lengthAdjust="spacing" textLength="168" x="12" y="201.4043">Sans de date de validation</text><text fill="#000000" font-family="sans-serif" font-size="12" lengthAdjust="spacing" textLength="184" x="12" y="215.373">Sans de date de qualification</text></g><g id="Valid&#233;"><rect fill="#F1F1F1" height="78.2031" rx="12.5" ry="12.5" style="stroke:#181818;stroke-width:0.5;" width="204" x="7" y="283"/><line style="stroke:#181818;stroke-width:0.5;" x1="7" x2="211" y1="309.2969" y2="309.2969"/><text fill="#000000" font-family="sans-serif" font-size="14" lengthAdjust="spacing" textLength="41" x="88.5" y="300.9951">Valid&#233;</text><text fill="#000000" font-family="sans-serif" font-size="12" lengthAdjust="spacing" textLength="158" x="12" y="325.4355">Avec de date de contr&#244;le</text><text fill="#000000" font-family="sans-serif" font-size="12" lengthAdjust="spacing" textLength="166" x="12" y="339.4043">Avec de date de validation</text><text fill="#000000" font-family="sans-serif" font-size="12" lengthAdjust="spacing" textLength="184" x="12" y="353.373">Sans de date de qualification</text></g><g id="Qualifi&#233;"><rect fill="#F1F1F1" height="78.2031" rx="12.5" ry="12.5" style="stroke:#181818;stroke-width:0.5;" width="202" x="8" y="421"/><line style="stroke:#181818;stroke-width:0.5;" x1="8" x2="210" y1="447.2969" y2="447.2969"/><text fill="#000000" font-family="sans-serif" font-size="14" lengthAdjust="spacing" textLength="50" x="84" y="438.9951">Qualifi&#233;</text><text fill="#000000" font-family="sans-serif" font-size="12" lengthAdjust="spacing" textLength="158" x="13" y="463.4355">Avec de date de contr&#244;le</text><text fill="#000000" font-family="sans-serif" font-size="12" lengthAdjust="spacing" textLength="166" x="13" y="477.4043">Avec de date de validation</text><text fill="#000000" font-family="sans-serif" font-size="12" lengthAdjust="spacing" textLength="182" x="13" y="491.373">Avec de date de qualification</text></g><!--link Saisie to Termin?--><g id="link_Saisie_Termin&#233;"><path d="M97.4,85.25 C96.01,102.05 95.88,121.87 97,139.26 " fill="none" id="Saisie-to-Termin&#233;" style="stroke:#181818;stroke-width:1.0;"/><polygon fill="#181818" points="97.39,144.57,100.7367,135.3072,97.0327,139.5828,92.7572,135.8788,97.39,144.57" style="stroke:#181818;stroke-width:1.0;"/></g><!--link Termin? to Saisie--><g id="link_Termin&#233;_Saisie"><path d="M121.29,144.57 C122.76,127.75 122.89,107.92 121.69,90.55 " fill="none" id="Termin&#233;-to-Saisie" style="stroke:#181818;stroke-width:1.0;"/><polygon fill="#181818" points="121.28,85.25,118.0126,94.5411,121.6799,90.234,125.9869,93.9013,121.28,85.25" style="stroke:#181818;stroke-width:1.0;"/></g><!--link Termin? to Valid?--><g id="link_Termin&#233;_Valid&#233;"><path d="M97.4,223.25 C96.01,240.05 95.88,259.87 97,277.26 " fill="none" id="Termin&#233;-to-Valid&#233;" style="stroke:#181818;stroke-width:1.0;"/><polygon fill="#181818" points="97.39,282.57,100.7367,273.3072,97.0327,277.5828,92.7572,273.8788,97.39,282.57" style="stroke:#181818;stroke-width:1.0;"/></g><!--link Valid? to Termin?--><g id="link_Valid&#233;_Termin&#233;"><path d="M121.29,282.57 C122.76,265.75 122.89,245.92 121.69,228.55 " fill="none" id="Valid&#233;-to-Termin&#233;" style="stroke:#181818;stroke-width:1.0;"/><polygon fill="#181818" points="121.28,223.25,118.0126,232.5411,121.6799,228.234,125.9869,231.9013,121.28,223.25" style="stroke:#181818;stroke-width:1.0;"/></g><!--link Valid? to Qualifi?--><g id="link_Valid&#233;_Qualifi&#233;"><path d="M97.4,361.25 C96.01,378.05 95.88,397.87 97,415.26 " fill="none" id="Valid&#233;-to-Qualifi&#233;" style="stroke:#181818;stroke-width:1.0;"/><polygon fill="#181818" points="97.39,420.57,100.7367,411.3072,97.0327,415.5828,92.7572,411.8788,97.39,420.57" style="stroke:#181818;stroke-width:1.0;"/></g><!--link Qualifi? to Valid?--><g id="link_Qualifi&#233;_Valid&#233;"><path d="M121.29,420.57 C122.76,403.75 122.89,383.92 121.69,366.55 " fill="none" id="Qualifi&#233;-to-Valid&#233;" style="stroke:#181818;stroke-width:1.0;"/><polygon fill="#181818" points="121.28,361.25,118.0126,370.5411,121.6799,366.234,125.9869,369.9013,121.28,361.25" style="stroke:#181818;stroke-width:1.0;"/></g></g></svg>