<?xml version="1.0" encoding="UTF-8" standalone="no"?><svg xmlns="http://www.w3.org/2000/svg" xmlns:xlink="http://www.w3.org/1999/xlink" contentScriptType="application/ecmascript" contentStyleType="text/css" height="560px" preserveAspectRatio="none" style="width:550px;height:560px;" version="1.1" viewBox="0 0 550 560" width="550px" zoomAndPan="magnify"><defs><filter height="300%" id="f1772p0kcq0t2b" width="300%" x="-1" y="-1"><feGaussianBlur result="blurOut" stdDeviation="2.0"/><feColorMatrix in="blurOut" result="blurOut2" type="matrix" values="0 0 0 0 0 0 0 0 0 0 0 0 0 0 0 0 0 0 .4 0"/><feOffset dx="4.0" dy="4.0" in="blurOut2" result="blurOut3"/><feBlend in="SourceGraphic" in2="blurOut3" mode="normal"/></filter></defs><g><!--MD5=[95566c14aa2c007e871ef9bf05e5f603]
cluster referential--><polygon fill="#DDDDDD" filter="url(#f1772p0kcq0t2b)" points="429.47,120.5,518.47,120.5,525.47,142.7969,528.47,142.7969,528.47,219.5,429.47,219.5,429.47,120.5" style="stroke: #000000; stroke-width: 1.5;"/><line style="stroke: #000000; stroke-width: 1.5;" x1="429.47" x2="525.47" y1="142.7969" y2="142.7969"/><text fill="#000000" font-family="sans-serif" font-size="14" font-weight="bold" lengthAdjust="spacingAndGlyphs" textLength="83" x="433.47" y="135.4951">referential</text><!--MD5=[4a5b830e134785a0ee3e2d1c830d1a30]
class Gear--><rect fill="#FEFECE" filter="url(#f1772p0kcq0t2b)" height="48" id="Gear" style="stroke: #A80036; stroke-width: 1.5;" width="62" x="447.47" y="155.5"/><ellipse cx="462.47" cy="171.5" fill="#ADD1B2" rx="11" ry="11" style="stroke: #A80036; stroke-width: 1.0;"/><path d="M465.4388,177.1406 Q464.8606,177.4375 464.22,177.5781 Q463.5794,177.7344 462.8763,177.7344 Q460.3763,177.7344 459.0481,176.0938 Q457.7356,174.4375 457.7356,171.3125 Q457.7356,168.1875 459.0481,166.5313 Q460.3763,164.875 462.8763,164.875 Q463.5794,164.875 464.22,165.0313 Q464.8763,165.1875 465.4388,165.4844 L465.4388,168.2031 Q464.8138,167.625 464.22,167.3594 Q463.6263,167.0781 463.0013,167.0781 Q461.6575,167.0781 460.97,168.1563 Q460.2825,169.2188 460.2825,171.3125 Q460.2825,173.4063 460.97,174.4844 Q461.6575,175.5469 463.0013,175.5469 Q463.6263,175.5469 464.22,175.2813 Q464.8138,175 465.4388,174.4219 L465.4388,177.1406 Z "/><text fill="#000000" font-family="sans-serif" font-size="12" lengthAdjust="spacingAndGlyphs" textLength="30" x="476.47" y="175.6543">Gear</text><line style="stroke: #A80036; stroke-width: 1.5;" x1="448.47" x2="508.47" y1="187.5" y2="187.5"/><line style="stroke: #A80036; stroke-width: 1.5;" x1="448.47" x2="508.47" y1="195.5" y2="195.5"/><!--MD5=[ed239cddac1bd0ea702000b0a8aa8225]
class Vessel--><rect fill="#FEFECE" filter="url(#f1772p0kcq0t2b)" height="48" id="Vessel" style="stroke: #A80036; stroke-width: 1.5;" width="73" x="92.97" y="8"/><ellipse cx="107.97" cy="24" fill="#ADD1B2" rx="11" ry="11" style="stroke: #A80036; stroke-width: 1.0;"/><path d="M110.9388,29.6406 Q110.3606,29.9375 109.72,30.0781 Q109.0794,30.2344 108.3763,30.2344 Q105.8763,30.2344 104.5481,28.5938 Q103.2356,26.9375 103.2356,23.8125 Q103.2356,20.6875 104.5481,19.0313 Q105.8763,17.375 108.3763,17.375 Q109.0794,17.375 109.72,17.5313 Q110.3763,17.6875 110.9388,17.9844 L110.9388,20.7031 Q110.3138,20.125 109.72,19.8594 Q109.1263,19.5781 108.5013,19.5781 Q107.1575,19.5781 106.47,20.6563 Q105.7825,21.7188 105.7825,23.8125 Q105.7825,25.9063 106.47,26.9844 Q107.1575,28.0469 108.5013,28.0469 Q109.1263,28.0469 109.72,27.7813 Q110.3138,27.5 110.9388,26.9219 L110.9388,29.6406 Z "/><text fill="#000000" font-family="sans-serif" font-size="12" lengthAdjust="spacingAndGlyphs" textLength="41" x="121.97" y="28.1543">Vessel</text><line style="stroke: #A80036; stroke-width: 1.5;" x1="93.97" x2="164.97" y1="40" y2="40"/><line style="stroke: #A80036; stroke-width: 1.5;" x1="93.97" x2="164.97" y1="48" y2="48"/><!--MD5=[18f5b4ccae6e62f3670d3aa352beb4cd]
class Trip--><rect fill="#FEFECE" filter="url(#f1772p0kcq0t2b)" height="124.8281" id="Trip" style="stroke: #A80036; stroke-width: 1.5;" width="184" x="37.47" y="117"/><ellipse cx="113.72" cy="133" fill="#ADD1B2" rx="11" ry="11" style="stroke: #A80036; stroke-width: 1.0;"/><path d="M116.6888,138.6406 Q116.1106,138.9375 115.47,139.0781 Q114.8294,139.2344 114.1263,139.2344 Q111.6263,139.2344 110.2981,137.5938 Q108.9856,135.9375 108.9856,132.8125 Q108.9856,129.6875 110.2981,128.0313 Q111.6263,126.375 114.1263,126.375 Q114.8294,126.375 115.47,126.5313 Q116.1263,126.6875 116.6888,126.9844 L116.6888,129.7031 Q116.0638,129.125 115.47,128.8594 Q114.8763,128.5781 114.2513,128.5781 Q112.9075,128.5781 112.22,129.6563 Q111.5325,130.7188 111.5325,132.8125 Q111.5325,134.9063 112.22,135.9844 Q112.9075,137.0469 114.2513,137.0469 Q114.8763,137.0469 115.47,136.7813 Q116.0638,136.5 116.6888,135.9219 L116.6888,138.6406 Z "/><text fill="#000000" font-family="sans-serif" font-size="12" lengthAdjust="spacingAndGlyphs" textLength="23" x="134.22" y="137.1543">Trip</text><line style="stroke: #A80036; stroke-width: 1.5;" x1="38.47" x2="220.47" y1="149" y2="149"/><ellipse cx="48.47" cy="160" fill="none" rx="3" ry="3" style="stroke: #038048; stroke-width: 1.0;"/><text fill="#000000" font-family="sans-serif" font-size="11" lengthAdjust="spacingAndGlyphs" textLength="10" x="57.47" y="163.2104">id</text><ellipse cx="48.47" cy="172.8047" fill="none" rx="3" ry="3" style="stroke: #038048; stroke-width: 1.0;"/><text fill="#000000" font-family="sans-serif" font-size="11" lengthAdjust="spacingAndGlyphs" textLength="106" x="57.47" y="176.0151">program: Program</text><ellipse cx="48.47" cy="185.6094" fill="none" rx="3" ry="3" style="stroke: #038048; stroke-width: 1.0;"/><text fill="#000000" font-family="sans-serif" font-size="11" lengthAdjust="spacingAndGlyphs" textLength="110" x="57.47" y="188.8198">departureDateTime</text><ellipse cx="48.47" cy="198.4141" fill="none" rx="3" ry="3" style="stroke: #038048; stroke-width: 1.0;"/><text fill="#000000" font-family="sans-serif" font-size="11" lengthAdjust="spacingAndGlyphs" textLength="158" x="57.47" y="201.6245">departureLocation: Location</text><ellipse cx="48.47" cy="211.2188" fill="none" rx="3" ry="3" style="stroke: #038048; stroke-width: 1.0;"/><text fill="#000000" font-family="sans-serif" font-size="11" lengthAdjust="spacingAndGlyphs" textLength="89" x="57.47" y="214.4292">returnDateTime</text><ellipse cx="48.47" cy="224.0234" fill="none" rx="3" ry="3" style="stroke: #038048; stroke-width: 1.0;"/><text fill="#000000" font-family="sans-serif" font-size="11" lengthAdjust="spacingAndGlyphs" textLength="137" x="57.47" y="227.2339">returnLocation: Location</text><line style="stroke: #A80036; stroke-width: 1.5;" x1="38.47" x2="220.47" y1="233.8281" y2="233.8281"/><!--MD5=[344ab601e867f84f453afffff3e7290f]
class PhysicalGear--><rect fill="#FEFECE" filter="url(#f1772p0kcq0t2b)" height="73.6094" id="PhysicalGear" style="stroke: #A80036; stroke-width: 1.5;" width="112" x="278.47" y="142.5"/><ellipse cx="293.47" cy="158.5" fill="#ADD1B2" rx="11" ry="11" style="stroke: #A80036; stroke-width: 1.0;"/><path d="M296.4388,164.1406 Q295.8606,164.4375 295.22,164.5781 Q294.5794,164.7344 293.8763,164.7344 Q291.3763,164.7344 290.0481,163.0938 Q288.7356,161.4375 288.7356,158.3125 Q288.7356,155.1875 290.0481,153.5313 Q291.3763,151.875 293.8763,151.875 Q294.5794,151.875 295.22,152.0313 Q295.8763,152.1875 296.4388,152.4844 L296.4388,155.2031 Q295.8138,154.625 295.22,154.3594 Q294.6263,154.0781 294.0013,154.0781 Q292.6575,154.0781 291.97,155.1563 Q291.2825,156.2188 291.2825,158.3125 Q291.2825,160.4063 291.97,161.4844 Q292.6575,162.5469 294.0013,162.5469 Q294.6263,162.5469 295.22,162.2813 Q295.8138,162 296.4388,161.4219 L296.4388,164.1406 Z "/><text fill="#000000" font-family="sans-serif" font-size="12" lengthAdjust="spacingAndGlyphs" textLength="80" x="307.47" y="162.6543">PhysicalGear</text><line style="stroke: #A80036; stroke-width: 1.5;" x1="279.47" x2="389.47" y1="174.5" y2="174.5"/><ellipse cx="289.47" cy="185.5" fill="none" rx="3" ry="3" style="stroke: #038048; stroke-width: 1.0;"/><text fill="#000000" font-family="sans-serif" font-size="11" lengthAdjust="spacingAndGlyphs" textLength="10" x="298.47" y="188.7104">id</text><ellipse cx="289.47" cy="198.3047" fill="none" rx="3" ry="3" style="stroke: #038048; stroke-width: 1.0;"/><text fill="#000000" font-family="sans-serif" font-size="11" lengthAdjust="spacingAndGlyphs" textLength="26" x="298.47" y="201.5151">gear</text><line style="stroke: #A80036; stroke-width: 1.5;" x1="279.47" x2="389.47" y1="208.1094" y2="208.1094"/><!--MD5=[cca5d97aaf46870920fae66c9bd85cdd]
class Operation--><rect fill="#FEFECE" filter="url(#f1772p0kcq0t2b)" height="86.4141" id="Operation" style="stroke: #A80036; stroke-width: 1.5;" width="107" x="149.97" y="303"/><ellipse cx="170.82" cy="319" fill="#ADD1B2" rx="11" ry="11" style="stroke: #A80036; stroke-width: 1.0;"/><path d="M173.7888,324.6406 Q173.2106,324.9375 172.57,325.0781 Q171.9294,325.2344 171.2263,325.2344 Q168.7263,325.2344 167.3981,323.5938 Q166.0856,321.9375 166.0856,318.8125 Q166.0856,315.6875 167.3981,314.0313 Q168.7263,312.375 171.2263,312.375 Q171.9294,312.375 172.57,312.5313 Q173.2263,312.6875 173.7888,312.9844 L173.7888,315.7031 Q173.1638,315.125 172.57,314.8594 Q171.9763,314.5781 171.3513,314.5781 Q170.0075,314.5781 169.32,315.6563 Q168.6325,316.7188 168.6325,318.8125 Q168.6325,320.9063 169.32,321.9844 Q170.0075,323.0469 171.3513,323.0469 Q171.9763,323.0469 172.57,322.7813 Q173.1638,322.5 173.7888,321.9219 L173.7888,324.6406 Z "/><text fill="#000000" font-family="sans-serif" font-size="12" lengthAdjust="spacingAndGlyphs" textLength="62" x="186.12" y="323.1543">Operation</text><line style="stroke: #A80036; stroke-width: 1.5;" x1="150.97" x2="255.97" y1="335" y2="335"/><ellipse cx="160.97" cy="346" fill="none" rx="3" ry="3" style="stroke: #038048; stroke-width: 1.0;"/><text fill="#000000" font-family="sans-serif" font-size="11" lengthAdjust="spacingAndGlyphs" textLength="10" x="169.97" y="349.2104">id</text><ellipse cx="160.97" cy="358.8047" fill="none" rx="3" ry="3" style="stroke: #038048; stroke-width: 1.0;"/><text fill="#000000" font-family="sans-serif" font-size="11" lengthAdjust="spacingAndGlyphs" textLength="81" x="169.97" y="362.0151">startDateTime</text><ellipse cx="160.97" cy="371.6094" fill="none" rx="3" ry="3" style="stroke: #038048; stroke-width: 1.0;"/><text fill="#000000" font-family="sans-serif" font-size="11" lengthAdjust="spacingAndGlyphs" textLength="75" x="169.97" y="374.8198">endDateTime</text><line style="stroke: #A80036; stroke-width: 1.5;" x1="150.97" x2="255.97" y1="381.4141" y2="381.4141"/><!--MD5=[582b92633abb9063e16e5e823c0ce865]
class VesselPosition--><rect fill="#FEFECE" filter="url(#f1772p0kcq0t2b)" height="99.2188" id="VesselPosition" style="stroke: #A80036; stroke-width: 1.5;" width="123" x="47.97" y="450"/><ellipse cx="62.97" cy="466" fill="#ADD1B2" rx="11" ry="11" style="stroke: #A80036; stroke-width: 1.0;"/><path d="M65.9388,471.6406 Q65.3606,471.9375 64.72,472.0781 Q64.0794,472.2344 63.3763,472.2344 Q60.8763,472.2344 59.5481,470.5938 Q58.2356,468.9375 58.2356,465.8125 Q58.2356,462.6875 59.5481,461.0313 Q60.8763,459.375 63.3763,459.375 Q64.0794,459.375 64.72,459.5313 Q65.3763,459.6875 65.9388,459.9844 L65.9388,462.7031 Q65.3138,462.125 64.72,461.8594 Q64.1263,461.5781 63.5013,461.5781 Q62.1575,461.5781 61.47,462.6563 Q60.7825,463.7188 60.7825,465.8125 Q60.7825,467.9063 61.47,468.9844 Q62.1575,470.0469 63.5013,470.0469 Q64.1263,470.0469 64.72,469.7813 Q65.3138,469.5 65.9388,468.9219 L65.9388,471.6406 Z "/><text fill="#000000" font-family="sans-serif" font-size="12" lengthAdjust="spacingAndGlyphs" textLength="91" x="76.97" y="470.1543">VesselPosition</text><line style="stroke: #A80036; stroke-width: 1.5;" x1="48.97" x2="169.97" y1="482" y2="482"/><ellipse cx="58.97" cy="493" fill="none" rx="3" ry="3" style="stroke: #038048; stroke-width: 1.0;"/><text fill="#000000" font-family="sans-serif" font-size="11" lengthAdjust="spacingAndGlyphs" textLength="10" x="67.97" y="496.2104">id</text><ellipse cx="58.97" cy="505.8047" fill="none" rx="3" ry="3" style="stroke: #038048; stroke-width: 1.0;"/><text fill="#000000" font-family="sans-serif" font-size="11" lengthAdjust="spacingAndGlyphs" textLength="53" x="67.97" y="509.0151">dateTime</text><ellipse cx="58.97" cy="518.6094" fill="none" rx="3" ry="3" style="stroke: #038048; stroke-width: 1.0;"/><text fill="#000000" font-family="sans-serif" font-size="11" lengthAdjust="spacingAndGlyphs" textLength="42" x="67.97" y="521.8198">latitude</text><ellipse cx="58.97" cy="531.4141" fill="none" rx="3" ry="3" style="stroke: #038048; stroke-width: 1.0;"/><text fill="#000000" font-family="sans-serif" font-size="11" lengthAdjust="spacingAndGlyphs" textLength="52" x="67.97" y="534.6245">longitude</text><line style="stroke: #A80036; stroke-width: 1.5;" x1="48.97" x2="169.97" y1="541.2188" y2="541.2188"/><!--MD5=[09ce52be0ee7de43c61b6e2d59bf108b]
class Person--><rect fill="#FEFECE" filter="url(#f1772p0kcq0t2b)" height="48" id="Person" style="stroke: #A80036; stroke-width: 1.5;" width="76" x="38.47" y="322"/><ellipse cx="53.47" cy="338" fill="#ADD1B2" rx="11" ry="11" style="stroke: #A80036; stroke-width: 1.0;"/><path d="M56.4388,343.6406 Q55.8606,343.9375 55.22,344.0781 Q54.5794,344.2344 53.8763,344.2344 Q51.3763,344.2344 50.0481,342.5938 Q48.7356,340.9375 48.7356,337.8125 Q48.7356,334.6875 50.0481,333.0313 Q51.3763,331.375 53.8763,331.375 Q54.5794,331.375 55.22,331.5313 Q55.8763,331.6875 56.4388,331.9844 L56.4388,334.7031 Q55.8138,334.125 55.22,333.8594 Q54.6263,333.5781 54.0013,333.5781 Q52.6575,333.5781 51.97,334.6563 Q51.2825,335.7188 51.2825,337.8125 Q51.2825,339.9063 51.97,340.9844 Q52.6575,342.0469 54.0013,342.0469 Q54.6263,342.0469 55.22,341.7813 Q55.8138,341.5 56.4388,340.9219 L56.4388,343.6406 Z "/><text fill="#000000" font-family="sans-serif" font-size="12" lengthAdjust="spacingAndGlyphs" textLength="44" x="67.47" y="342.1543">Person</text><line style="stroke: #A80036; stroke-width: 1.5;" x1="39.47" x2="113.47" y1="354" y2="354"/><line style="stroke: #A80036; stroke-width: 1.5;" x1="39.47" x2="113.47" y1="362" y2="362"/><!--MD5=[5cb6457c5e8fc8e6dd6bc21892474941]
class OperationMeasurement--><rect fill="#FEFECE" filter="url(#f1772p0kcq0t2b)" height="48" id="OperationMeasurement" style="stroke: #A80036; stroke-width: 1.5;" width="180" x="206.47" y="475.5"/><ellipse cx="221.47" cy="491.5" fill="#ADD1B2" rx="11" ry="11" style="stroke: #A80036; stroke-width: 1.0;"/><path d="M224.4388,497.1406 Q223.8606,497.4375 223.22,497.5781 Q222.5794,497.7344 221.8763,497.7344 Q219.3763,497.7344 218.0481,496.0938 Q216.7356,494.4375 216.7356,491.3125 Q216.7356,488.1875 218.0481,486.5313 Q219.3763,484.875 221.8763,484.875 Q222.5794,484.875 223.22,485.0313 Q223.8763,485.1875 224.4388,485.4844 L224.4388,488.2031 Q223.8138,487.625 223.22,487.3594 Q222.6263,487.0781 222.0013,487.0781 Q220.6575,487.0781 219.97,488.1563 Q219.2825,489.2188 219.2825,491.3125 Q219.2825,493.4063 219.97,494.4844 Q220.6575,495.5469 222.0013,495.5469 Q222.6263,495.5469 223.22,495.2813 Q223.8138,495 224.4388,494.4219 L224.4388,497.1406 Z "/><text fill="#000000" font-family="sans-serif" font-size="12" lengthAdjust="spacingAndGlyphs" textLength="148" x="235.47" y="495.6543">OperationMeasurement</text><line style="stroke: #A80036; stroke-width: 1.5;" x1="207.47" x2="385.47" y1="507.5" y2="507.5"/><line style="stroke: #A80036; stroke-width: 1.5;" x1="207.47" x2="385.47" y1="515.5" y2="515.5"/><!--MD5=[54b0fbfb64ea9b9f12832b0882fa4192]
class PhysicalGearMeasurement--><rect fill="#FEFECE" filter="url(#f1772p0kcq0t2b)" height="48" id="PhysicalGearMeasurement" style="stroke: #A80036; stroke-width: 1.5;" width="198" x="292.47" y="322"/><ellipse cx="307.47" cy="338" fill="#ADD1B2" rx="11" ry="11" style="stroke: #A80036; stroke-width: 1.0;"/><path d="M310.4388,343.6406 Q309.8606,343.9375 309.22,344.0781 Q308.5794,344.2344 307.8763,344.2344 Q305.3763,344.2344 304.0481,342.5938 Q302.7356,340.9375 302.7356,337.8125 Q302.7356,334.6875 304.0481,333.0313 Q305.3763,331.375 307.8763,331.375 Q308.5794,331.375 309.22,331.5313 Q309.8763,331.6875 310.4388,331.9844 L310.4388,334.7031 Q309.8138,334.125 309.22,333.8594 Q308.6263,333.5781 308.0013,333.5781 Q306.6575,333.5781 305.97,334.6563 Q305.2825,335.7188 305.2825,337.8125 Q305.2825,339.9063 305.97,340.9844 Q306.6575,342.0469 308.0013,342.0469 Q308.6263,342.0469 309.22,341.7813 Q309.8138,341.5 310.4388,340.9219 L310.4388,343.6406 Z "/><text fill="#000000" font-family="sans-serif" font-size="12" lengthAdjust="spacingAndGlyphs" textLength="166" x="321.47" y="342.1543">PhysicalGearMeasurement</text><line style="stroke: #A80036; stroke-width: 1.5;" x1="293.47" x2="489.47" y1="354" y2="354"/><line style="stroke: #A80036; stroke-width: 1.5;" x1="293.47" x2="489.47" y1="362" y2="362"/><!--MD5=[9a516257824048554cf4d870297ef176]
reverse link Vessel to Trip--><path d="M129.47,61.25 C129.47,77.12 129.47,97.57 129.47,116.94 " fill="none" id="Vessel&lt;-Trip" style="stroke: #A80036; stroke-width: 1.0;"/><polygon fill="#A80036" points="129.47,56.05,125.47,65.05,129.47,61.05,133.47,65.05,129.47,56.05" style="stroke: #A80036; stroke-width: 1.0;"/><text fill="#000000" font-family="sans-serif" font-size="13" lengthAdjust="spacingAndGlyphs" textLength="8" x="120.445" y="76.2186">1</text><text fill="#000000" font-family="sans-serif" font-size="13" lengthAdjust="spacingAndGlyphs" textLength="7" x="122.0653" y="105.9238">*</text><!--MD5=[029ca2f61057fadf794a8bee2c63e6d5]
reverse link Trip to Operation--><path d="M162.64,254.24 C170.14,270.92 177.86,288.07 184.53,302.91 " fill="none" id="Trip&lt;-Operation" style="stroke: #A80036; stroke-width: 1.0;"/><polygon fill="#A80036" points="157.23,242.22,156.0441,249.3329,162.1538,253.1633,163.3397,246.0504,157.23,242.22" style="stroke: #A80036; stroke-width: 1.0;"/><text fill="#000000" font-family="sans-serif" font-size="13" lengthAdjust="spacingAndGlyphs" textLength="8" x="151.8287" y="261.9839">1</text><text fill="#000000" font-family="sans-serif" font-size="13" lengthAdjust="spacingAndGlyphs" textLength="23" x="156.6786" y="291.8917">0..*</text><!--MD5=[06d75b2a5d2a74e46ac2ab2eb7908e5e]
reverse link Trip to PhysicalGear--><path d="M234.68,179.5 C249.73,179.5 264.7,179.5 278.3,179.5 " fill="none" id="Trip&lt;-PhysicalGear" style="stroke: #A80036; stroke-width: 1.0;"/><polygon fill="#A80036" points="221.47,179.5,227.47,183.5,233.47,179.5,227.47,175.5,221.47,179.5" style="stroke: #A80036; stroke-width: 1.0;"/><text fill="#000000" font-family="sans-serif" font-size="13" lengthAdjust="spacingAndGlyphs" textLength="0" x="259.97" y="172.5669"/><text fill="#000000" font-family="sans-serif" font-size="13" lengthAdjust="spacingAndGlyphs" textLength="8" x="229.42" y="175.9584">1</text><text fill="#000000" font-family="sans-serif" font-size="13" lengthAdjust="spacingAndGlyphs" textLength="23" x="247.4757" y="192.4643">0..*</text><!--MD5=[22530794f051a4e43dab6255f2f635d3]
link Trip to Person--><path d="M109.58,242.22 C101.31,267.88 92.13,296.38 85.53,316.85 " fill="none" id="Trip-&gt;Person" style="stroke: #A80036; stroke-width: 1.0;"/><polygon fill="#A80036" points="84,321.62,90.5615,314.2751,85.5296,316.8597,82.945,311.8278,84,321.62" style="stroke: #A80036; stroke-width: 1.0;"/><text fill="#000000" font-family="sans-serif" font-size="13" lengthAdjust="spacingAndGlyphs" textLength="8" x="98.967" y="261.9839">1</text><text fill="#000000" font-family="sans-serif" font-size="13" lengthAdjust="spacingAndGlyphs" textLength="23" x="36.0562" y="295.5922">1..*</text><text fill="#000000" font-family="sans-serif" font-size="13" lengthAdjust="spacingAndGlyphs" textLength="63" x="16.0562" y="310.725">observers</text><!--MD5=[53f8769e940fd32c5d17533b92044cb8]
reverse link Operation to OperationMeasurement--><path d="M236.19,400.3 C251.94,425.97 270.01,455.41 282.23,475.31 " fill="none" id="Operation&lt;-OperationMeasurement" style="stroke: #A80036; stroke-width: 1.0;"/><polygon fill="#A80036" points="229.37,389.2,229.1017,396.4061,235.6503,399.4253,235.9186,392.2192,229.37,389.2" style="stroke: #A80036; stroke-width: 1.0;"/><text fill="#000000" font-family="sans-serif" font-size="13" lengthAdjust="spacingAndGlyphs" textLength="8" x="224.8603" y="409.3248">1</text><text fill="#000000" font-family="sans-serif" font-size="13" lengthAdjust="spacingAndGlyphs" textLength="23" x="252.6341" y="464.2733">0..*</text><!--MD5=[2893ce7afcc8bc8eed48ec7e039a921c]
reverse link PhysicalGear to Operation--><path d="M302.58,220.54 C282.71,245.49 257.18,277.55 237.01,302.88 " fill="none" id="PhysicalGear&lt;-Operation" style="stroke: #A80036; stroke-width: 1.0;"/><polygon fill="#A80036" points="305.72,216.6,296.9864,221.1524,302.607,220.5127,303.2467,226.1333,305.72,216.6" style="stroke: #A80036; stroke-width: 1.0;"/><text fill="#000000" font-family="sans-serif" font-size="13" lengthAdjust="spacingAndGlyphs" textLength="8" x="292.2958" y="236.0971">1</text><text fill="#000000" font-family="sans-serif" font-size="13" lengthAdjust="spacingAndGlyphs" textLength="23" x="217.5226" y="291.8569">0..*</text><!--MD5=[204999fa9802717f9cf4749615ad5baf]
link Operation to VesselPosition--><path d="M170.9497,399.3945 C170.9497,399.3945 154.45,426 146.67,438.54 " fill="none" id="Operation-VesselPosition" style="stroke: #A80036; stroke-width: 1.0;"/><polygon fill="#A80036" points="139.66,449.84,147.8059,444.3043,142.2976,445.5923,141.0096,440.084,139.66,449.84" style="stroke: #A80036; stroke-width: 1.0;"/><line style="stroke: #A80036; stroke-width: 1.0;" x1="142.2976" x2="146.515" y1="445.5923" y2="438.79"/><polygon fill="#A80036" points="177.28,389.2,170.7167,392.1871,170.9497,399.3945,177.513,396.4073,177.28,389.2" style="stroke: #A80036; stroke-width: 1.0;"/><text fill="#000000" font-family="sans-serif" font-size="13" lengthAdjust="spacingAndGlyphs" textLength="24" x="147.1935" y="409.3248">0..1</text><text fill="#000000" font-family="sans-serif" font-size="13" lengthAdjust="spacingAndGlyphs" textLength="23" x="119.2883" y="438.8627">2..*</text><!--MD5=[bc91c027f3c3ce1d0de740ca4499a116]
reverse link PhysicalGear to PhysicalGearMeasurement--><path d="M351.33,229.17 C361.91,259.71 375.08,297.71 383.38,321.67 " fill="none" id="PhysicalGear&lt;-PhysicalGearMeasurement" style="stroke: #A80036; stroke-width: 1.0;"/><polygon fill="#A80036" points="346.98,216.6,345.1649,223.5789,350.9089,227.9386,352.724,220.9596,346.98,216.6" style="stroke: #A80036; stroke-width: 1.0;"/><text fill="#000000" font-family="sans-serif" font-size="13" lengthAdjust="spacingAndGlyphs" textLength="8" x="340.3895" y="236.0971">1</text><text fill="#000000" font-family="sans-serif" font-size="13" lengthAdjust="spacingAndGlyphs" textLength="23" x="355.6049" y="310.9945">0..*</text><!--MD5=[917c0b1fc4208a9bc5916237b00c6b1e]
link PhysicalGear to Gear--><path d="M390.55,179.5 C407.86,179.5 426.47,179.5 442.08,179.5 " fill="none" id="PhysicalGear-&gt;Gear" style="stroke: #A80036; stroke-width: 1.0;"/><polygon fill="#A80036" points="447.26,179.5,438.26,175.5,442.26,179.5,438.26,183.5,447.26,179.5" style="stroke: #A80036; stroke-width: 1.0;"/><text fill="#000000" font-family="sans-serif" font-size="13" lengthAdjust="spacingAndGlyphs" textLength="0" x="428.97" y="172.5669"/><text fill="#000000" font-family="sans-serif" font-size="13" lengthAdjust="spacingAndGlyphs" textLength="7" x="398.5561" y="175.5943">*</text><text fill="#000000" font-family="sans-serif" font-size="13" lengthAdjust="spacingAndGlyphs" textLength="8" x="431.5578" y="174.9408">1</text></g></svg>