<?xml version="1.0" encoding="UTF-8" standalone="no"?><svg xmlns="http://www.w3.org/2000/svg" xmlns:xlink="http://www.w3.org/1999/xlink" contentStyleType="text/css" height="636px" preserveAspectRatio="none" style="width:534px;height:636px;background:#FFFFFF;" version="1.1" viewBox="0 0 534 636" width="534px" zoomAndPan="magnify"><defs/><g><!--MD5=[95566c14aa2c007e871ef9bf05e5f603]
cluster referential--><g id="cluster_referential"><path d="M434.205,135 L507.205,135 A3.75,3.75 0 0 1 509.705,137.5 L516.705,160.0679 L525.205,160.0679 A2.5,2.5 0 0 1 527.705,162.5679 L527.705,234.5 A2.5,2.5 0 0 1 525.205,237 L434.205,237 A2.5,2.5 0 0 1 431.705,234.5 L431.705,137.5 A2.5,2.5 0 0 1 434.205,135 " fill="#DDDDDD" style="stroke:#000000;stroke-width:1.5;"/><line style="stroke:#000000;stroke-width:1.5;" x1="431.705" x2="516.705" y1="160.0679" y2="160.0679"/><text fill="#000000" font-family="sans-serif" font-size="14" font-weight="bold" lengthAdjust="spacing" textLength="72" x="435.705" y="151.9659">referential</text></g><!--MD5=[4a5b830e134785a0ee3e2d1c830d1a30]
class Gear--><g id="elem_Gear"><rect fill="#F1F1F1" height="48" id="Gear" rx="2.5" ry="2.5" style="stroke:#181818;stroke-width:0.5;" width="64" x="447.705" y="173"/><ellipse cx="462.705" cy="189" fill="#ADD1B2" rx="11" ry="11" style="stroke:#181818;stroke-width:1.0;"/><path d="M462.1737,195.9219 Q460.4237,195.9219 459.2831,195.1875 Q458.1581,194.4375 457.5956,193.0938 Q457.0487,191.7344 457.0487,189.9375 Q457.0487,187.9063 457.705,186.4531 Q458.3612,185 459.6425,184.2188 Q460.9237,183.4375 462.7987,183.4375 Q463.6893,183.4375 464.3612,183.625 Q465.0331,183.7969 465.7206,184.1406 L464.9081,186.1563 Q464.2831,185.8438 463.7362,185.7188 Q463.205,185.5938 462.7206,185.5938 Q461.5487,185.5938 460.8456,186.125 Q460.1425,186.6563 459.8456,187.6094 Q459.5487,188.5625 459.5487,189.8281 Q459.5487,191.8438 460.2675,192.8125 Q460.9862,193.7656 462.58,193.7656 Q463.1737,193.7656 463.7987,193.6094 Q464.4237,193.4531 465.2518,193.0781 L465.2518,195.2969 Q464.5175,195.6094 463.7206,195.7656 Q462.9393,195.9219 462.1737,195.9219 Z " fill="#000000"/><text fill="#000000" font-family="sans-serif" font-size="14" lengthAdjust="spacing" textLength="32" x="476.705" y="194.432">Gear</text><line style="stroke:#181818;stroke-width:0.5;" x1="448.705" x2="510.705" y1="205" y2="205"/><line style="stroke:#181818;stroke-width:0.5;" x1="448.705" x2="510.705" y1="213" y2="213"/></g><!--MD5=[ed239cddac1bd0ea702000b0a8aa8225]
class Vessel--><g id="elem_Vessel"><rect codeLine="2" fill="#F1F1F1" height="48" id="Vessel" rx="2.5" ry="2.5" style="stroke:#181818;stroke-width:0.5;" width="74" x="81.705" y="7"/><ellipse cx="96.705" cy="23" fill="#ADD1B2" rx="11" ry="11" style="stroke:#181818;stroke-width:1.0;"/><path d="M96.1737,29.9219 Q94.4237,29.9219 93.2831,29.1875 Q92.1581,28.4375 91.5956,27.0938 Q91.0487,25.7344 91.0487,23.9375 Q91.0487,21.9063 91.705,20.4531 Q92.3612,19 93.6425,18.2188 Q94.9237,17.4375 96.7987,17.4375 Q97.6893,17.4375 98.3612,17.625 Q99.0331,17.7969 99.7206,18.1406 L98.9081,20.1563 Q98.2831,19.8438 97.7362,19.7188 Q97.205,19.5938 96.7206,19.5938 Q95.5487,19.5938 94.8456,20.125 Q94.1425,20.6563 93.8456,21.6094 Q93.5487,22.5625 93.5487,23.8281 Q93.5487,25.8438 94.2675,26.8125 Q94.9862,27.7656 96.58,27.7656 Q97.1737,27.7656 97.7987,27.6094 Q98.4237,27.4531 99.2518,27.0781 L99.2518,29.2969 Q98.5175,29.6094 97.7206,29.7656 Q96.9393,29.9219 96.1737,29.9219 Z " fill="#000000"/><text fill="#000000" font-family="sans-serif" font-size="14" lengthAdjust="spacing" textLength="42" x="110.705" y="28.432">Vessel</text><line style="stroke:#181818;stroke-width:0.5;" x1="82.705" x2="154.705" y1="39" y2="39"/><line style="stroke:#181818;stroke-width:0.5;" x1="82.705" x2="154.705" y1="47" y2="47"/></g><!--MD5=[18f5b4ccae6e62f3670d3aa352beb4cd]
class Trip--><g id="elem_Trip"><rect codeLine="5" fill="#F1F1F1" height="162.4075" id="Trip" rx="2.5" ry="2.5" style="stroke:#181818;stroke-width:0.5;" width="214" x="11.705" y="116"/><ellipse cx="100.955" cy="132" fill="#ADD1B2" rx="11" ry="11" style="stroke:#181818;stroke-width:1.0;"/><path d="M100.4237,138.9219 Q98.6737,138.9219 97.5331,138.1875 Q96.4081,137.4375 95.8456,136.0938 Q95.2987,134.7344 95.2987,132.9375 Q95.2987,130.9063 95.955,129.4531 Q96.6112,128 97.8925,127.2188 Q99.1737,126.4375 101.0487,126.4375 Q101.9393,126.4375 102.6112,126.625 Q103.2831,126.7969 103.9706,127.1406 L103.1581,129.1563 Q102.5331,128.8438 101.9862,128.7188 Q101.455,128.5938 100.9706,128.5938 Q99.7987,128.5938 99.0956,129.125 Q98.3925,129.6563 98.0956,130.6094 Q97.7987,131.5625 97.7987,132.8281 Q97.7987,134.8438 98.5175,135.8125 Q99.2362,136.7656 100.83,136.7656 Q101.4237,136.7656 102.0487,136.6094 Q102.6737,136.4531 103.5018,136.0781 L103.5018,138.2969 Q102.7675,138.6094 101.9706,138.7656 Q101.1893,138.9219 100.4237,138.9219 Z " fill="#000000"/><text fill="#000000" font-family="sans-serif" font-size="14" lengthAdjust="spacing" textLength="27" x="121.455" y="137.432">Trip</text><line style="stroke:#181818;stroke-width:0.5;" x1="12.705" x2="224.705" y1="148" y2="148"/><ellipse cx="22.705" cy="163.034" fill="none" rx="3" ry="3" style="stroke:#038048;stroke-width:1.0;"/><text fill="#000000" font-family="sans-serif" font-size="14" lengthAdjust="spacing" textLength="13" x="31.705" y="166.9659">id</text><ellipse cx="22.705" cy="182.1019" fill="none" rx="3" ry="3" style="stroke:#038048;stroke-width:1.0;"/><text fill="#000000" font-family="sans-serif" font-size="14" lengthAdjust="spacing" textLength="125" x="31.705" y="186.0339">program: Program</text><ellipse cx="22.705" cy="201.1698" fill="none" rx="3" ry="3" style="stroke:#038048;stroke-width:1.0;"/><text fill="#000000" font-family="sans-serif" font-size="14" lengthAdjust="spacing" textLength="132" x="31.705" y="205.1018">departureDateTime</text><ellipse cx="22.705" cy="220.2377" fill="none" rx="3" ry="3" style="stroke:#038048;stroke-width:1.0;"/><text fill="#000000" font-family="sans-serif" font-size="14" lengthAdjust="spacing" textLength="188" x="31.705" y="224.1697">departureLocation: Location</text><ellipse cx="22.705" cy="239.3056" fill="none" rx="3" ry="3" style="stroke:#038048;stroke-width:1.0;"/><text fill="#000000" font-family="sans-serif" font-size="14" lengthAdjust="spacing" textLength="107" x="31.705" y="243.2376">returnDateTime</text><ellipse cx="22.705" cy="258.3735" fill="none" rx="3" ry="3" style="stroke:#038048;stroke-width:1.0;"/><text fill="#000000" font-family="sans-serif" font-size="14" lengthAdjust="spacing" textLength="163" x="31.705" y="262.3055">returnLocation: Location</text><line style="stroke:#181818;stroke-width:0.5;" x1="12.705" x2="224.705" y1="270.4075" y2="270.4075"/></g><!--MD5=[344ab601e867f84f453afffff3e7290f]
class PhysicalGear--><g id="elem_PhysicalGear"><rect codeLine="14" fill="#F1F1F1" height="86.1358" id="PhysicalGear" rx="2.5" ry="2.5" style="stroke:#181818;stroke-width:0.5;" width="118" x="277.705" y="154"/><ellipse cx="292.705" cy="170" fill="#ADD1B2" rx="11" ry="11" style="stroke:#181818;stroke-width:1.0;"/><path d="M292.1737,176.9219 Q290.4237,176.9219 289.2831,176.1875 Q288.1581,175.4375 287.5956,174.0938 Q287.0487,172.7344 287.0487,170.9375 Q287.0487,168.9063 287.705,167.4531 Q288.3612,166 289.6425,165.2188 Q290.9237,164.4375 292.7987,164.4375 Q293.6893,164.4375 294.3612,164.625 Q295.0331,164.7969 295.7206,165.1406 L294.9081,167.1563 Q294.2831,166.8438 293.7362,166.7188 Q293.205,166.5938 292.7206,166.5938 Q291.5487,166.5938 290.8456,167.125 Q290.1425,167.6563 289.8456,168.6094 Q289.5487,169.5625 289.5487,170.8281 Q289.5487,172.8438 290.2675,173.8125 Q290.9862,174.7656 292.58,174.7656 Q293.1737,174.7656 293.7987,174.6094 Q294.4237,174.4531 295.2518,174.0781 L295.2518,176.2969 Q294.5175,176.6094 293.7206,176.7656 Q292.9393,176.9219 292.1737,176.9219 Z " fill="#000000"/><text fill="#000000" font-family="sans-serif" font-size="14" lengthAdjust="spacing" textLength="86" x="306.705" y="175.432">PhysicalGear</text><line style="stroke:#181818;stroke-width:0.5;" x1="278.705" x2="394.705" y1="186" y2="186"/><ellipse cx="288.705" cy="201.034" fill="none" rx="3" ry="3" style="stroke:#038048;stroke-width:1.0;"/><text fill="#000000" font-family="sans-serif" font-size="14" lengthAdjust="spacing" textLength="13" x="297.705" y="204.9659">id</text><ellipse cx="288.705" cy="220.1019" fill="none" rx="3" ry="3" style="stroke:#038048;stroke-width:1.0;"/><text fill="#000000" font-family="sans-serif" font-size="14" lengthAdjust="spacing" textLength="31" x="297.705" y="224.0339">gear</text><line style="stroke:#181818;stroke-width:0.5;" x1="278.705" x2="394.705" y1="232.1358" y2="232.1358"/></g><!--MD5=[cca5d97aaf46870920fae66c9bd85cdd]
class Operation--><g id="elem_Operation"><rect codeLine="19" fill="#F1F1F1" height="105.2038" id="Operation" rx="2.5" ry="2.5" style="stroke:#181818;stroke-width:0.5;" width="121" x="137.205" y="339"/><ellipse cx="161.655" cy="355" fill="#ADD1B2" rx="11" ry="11" style="stroke:#181818;stroke-width:1.0;"/><path d="M161.1237,361.9219 Q159.3737,361.9219 158.2331,361.1875 Q157.1081,360.4375 156.5456,359.0938 Q155.9987,357.7344 155.9987,355.9375 Q155.9987,353.9063 156.655,352.4531 Q157.3112,351 158.5925,350.2188 Q159.8737,349.4375 161.7487,349.4375 Q162.6393,349.4375 163.3112,349.625 Q163.9831,349.7969 164.6706,350.1406 L163.8581,352.1563 Q163.2331,351.8438 162.6862,351.7188 Q162.155,351.5938 161.6706,351.5938 Q160.4987,351.5938 159.7956,352.125 Q159.0925,352.6563 158.7956,353.6094 Q158.4987,354.5625 158.4987,355.8281 Q158.4987,357.8438 159.2175,358.8125 Q159.9362,359.7656 161.53,359.7656 Q162.1237,359.7656 162.7487,359.6094 Q163.3737,359.4531 164.2018,359.0781 L164.2018,361.2969 Q163.4675,361.6094 162.6706,361.7656 Q161.8893,361.9219 161.1237,361.9219 Z " fill="#000000"/><text fill="#000000" font-family="sans-serif" font-size="14" lengthAdjust="spacing" textLength="68" x="177.755" y="360.432">Operation</text><line style="stroke:#181818;stroke-width:0.5;" x1="138.205" x2="257.205" y1="371" y2="371"/><ellipse cx="148.205" cy="386.034" fill="none" rx="3" ry="3" style="stroke:#038048;stroke-width:1.0;"/><text fill="#000000" font-family="sans-serif" font-size="14" lengthAdjust="spacing" textLength="13" x="157.205" y="389.9659">id</text><ellipse cx="148.205" cy="405.1019" fill="none" rx="3" ry="3" style="stroke:#038048;stroke-width:1.0;"/><text fill="#000000" font-family="sans-serif" font-size="14" lengthAdjust="spacing" textLength="95" x="157.205" y="409.0339">startDateTime</text><ellipse cx="148.205" cy="424.1698" fill="none" rx="3" ry="3" style="stroke:#038048;stroke-width:1.0;"/><text fill="#000000" font-family="sans-serif" font-size="14" lengthAdjust="spacing" textLength="90" x="157.205" y="428.1018">endDateTime</text><line style="stroke:#181818;stroke-width:0.5;" x1="138.205" x2="257.205" y1="436.2038" y2="436.2038"/></g><!--MD5=[582b92633abb9063e16e5e823c0ce865]
class VesselPosition--><g id="elem_VesselPosition"><rect codeLine="25" fill="#F1F1F1" height="124.2717" id="VesselPosition" rx="2.5" ry="2.5" style="stroke:#181818;stroke-width:0.5;" width="127" x="36.205" y="505"/><ellipse cx="51.205" cy="521" fill="#ADD1B2" rx="11" ry="11" style="stroke:#181818;stroke-width:1.0;"/><path d="M50.6737,527.9219 Q48.9237,527.9219 47.7831,527.1875 Q46.6581,526.4375 46.0956,525.0938 Q45.5487,523.7344 45.5487,521.9375 Q45.5487,519.9063 46.205,518.4531 Q46.8612,517 48.1425,516.2188 Q49.4237,515.4375 51.2987,515.4375 Q52.1893,515.4375 52.8612,515.625 Q53.5331,515.7969 54.2206,516.1406 L53.4081,518.1563 Q52.7831,517.8438 52.2362,517.7188 Q51.705,517.5938 51.2206,517.5938 Q50.0487,517.5938 49.3456,518.125 Q48.6425,518.6563 48.3456,519.6094 Q48.0487,520.5625 48.0487,521.8281 Q48.0487,523.8438 48.7675,524.8125 Q49.4862,525.7656 51.08,525.7656 Q51.6737,525.7656 52.2987,525.6094 Q52.9237,525.4531 53.7518,525.0781 L53.7518,527.2969 Q53.0175,527.6094 52.2206,527.7656 Q51.4393,527.9219 50.6737,527.9219 Z " fill="#000000"/><text fill="#000000" font-family="sans-serif" font-size="14" lengthAdjust="spacing" textLength="95" x="65.205" y="526.432">VesselPosition</text><line style="stroke:#181818;stroke-width:0.5;" x1="37.205" x2="162.205" y1="537" y2="537"/><ellipse cx="47.205" cy="552.034" fill="none" rx="3" ry="3" style="stroke:#038048;stroke-width:1.0;"/><text fill="#000000" font-family="sans-serif" font-size="14" lengthAdjust="spacing" textLength="13" x="56.205" y="555.9659">id</text><ellipse cx="47.205" cy="571.1019" fill="none" rx="3" ry="3" style="stroke:#038048;stroke-width:1.0;"/><text fill="#000000" font-family="sans-serif" font-size="14" lengthAdjust="spacing" textLength="63" x="56.205" y="575.0339">dateTime</text><ellipse cx="47.205" cy="590.1698" fill="none" rx="3" ry="3" style="stroke:#038048;stroke-width:1.0;"/><text fill="#000000" font-family="sans-serif" font-size="14" lengthAdjust="spacing" textLength="52" x="56.205" y="594.1018">latitude</text><ellipse cx="47.205" cy="609.2377" fill="none" rx="3" ry="3" style="stroke:#038048;stroke-width:1.0;"/><text fill="#000000" font-family="sans-serif" font-size="14" lengthAdjust="spacing" textLength="65" x="56.205" y="613.1697">longitude</text><line style="stroke:#181818;stroke-width:0.5;" x1="37.205" x2="162.205" y1="621.2717" y2="621.2717"/></g><!--MD5=[09ce52be0ee7de43c61b6e2d59bf108b]
class Person--><g id="elem_Person"><rect fill="#F1F1F1" height="48" id="Person" rx="2.5" ry="2.5" style="stroke:#181818;stroke-width:0.5;" width="78" x="23.705" y="367.5"/><ellipse cx="38.705" cy="383.5" fill="#ADD1B2" rx="11" ry="11" style="stroke:#181818;stroke-width:1.0;"/><path d="M38.1737,390.4219 Q36.4237,390.4219 35.2831,389.6875 Q34.1581,388.9375 33.5956,387.5938 Q33.0487,386.2344 33.0487,384.4375 Q33.0487,382.4063 33.705,380.9531 Q34.3612,379.5 35.6425,378.7188 Q36.9237,377.9375 38.7987,377.9375 Q39.6893,377.9375 40.3612,378.125 Q41.0331,378.2969 41.7206,378.6406 L40.9081,380.6563 Q40.2831,380.3438 39.7362,380.2188 Q39.205,380.0938 38.7206,380.0938 Q37.5487,380.0938 36.8456,380.625 Q36.1425,381.1563 35.8456,382.1094 Q35.5487,383.0625 35.5487,384.3281 Q35.5487,386.3438 36.2675,387.3125 Q36.9862,388.2656 38.58,388.2656 Q39.1737,388.2656 39.7987,388.1094 Q40.4237,387.9531 41.2518,387.5781 L41.2518,389.7969 Q40.5175,390.1094 39.7206,390.2656 Q38.9393,390.4219 38.1737,390.4219 Z " fill="#000000"/><text fill="#000000" font-family="sans-serif" font-size="14" lengthAdjust="spacing" textLength="46" x="52.705" y="388.932">Person</text><line style="stroke:#181818;stroke-width:0.5;" x1="24.705" x2="100.705" y1="399.5" y2="399.5"/><line style="stroke:#181818;stroke-width:0.5;" x1="24.705" x2="100.705" y1="407.5" y2="407.5"/></g><!--MD5=[5cb6457c5e8fc8e6dd6bc21892474941]
class OperationMeasurement--><g id="elem_OperationMeasurement"><rect fill="#F1F1F1" height="48" id="OperationMeasurement" rx="2.5" ry="2.5" style="stroke:#181818;stroke-width:0.5;" width="194" x="198.705" y="543"/><ellipse cx="213.705" cy="559" fill="#ADD1B2" rx="11" ry="11" style="stroke:#181818;stroke-width:1.0;"/><path d="M213.1737,565.9219 Q211.4237,565.9219 210.2831,565.1875 Q209.1581,564.4375 208.5956,563.0938 Q208.0487,561.7344 208.0487,559.9375 Q208.0487,557.9063 208.705,556.4531 Q209.3612,555 210.6425,554.2188 Q211.9237,553.4375 213.7987,553.4375 Q214.6893,553.4375 215.3612,553.625 Q216.0331,553.7969 216.7206,554.1406 L215.9081,556.1563 Q215.2831,555.8438 214.7362,555.7188 Q214.205,555.5938 213.7206,555.5938 Q212.5487,555.5938 211.8456,556.125 Q211.1425,556.6563 210.8456,557.6094 Q210.5487,558.5625 210.5487,559.8281 Q210.5487,561.8438 211.2675,562.8125 Q211.9862,563.7656 213.58,563.7656 Q214.1737,563.7656 214.7987,563.6094 Q215.4237,563.4531 216.2518,563.0781 L216.2518,565.2969 Q215.5175,565.6094 214.7206,565.7656 Q213.9393,565.9219 213.1737,565.9219 Z " fill="#000000"/><text fill="#000000" font-family="sans-serif" font-size="14" lengthAdjust="spacing" textLength="162" x="227.705" y="564.432">OperationMeasurement</text><line style="stroke:#181818;stroke-width:0.5;" x1="199.705" x2="391.705" y1="575" y2="575"/><line style="stroke:#181818;stroke-width:0.5;" x1="199.705" x2="391.705" y1="583" y2="583"/></g><!--MD5=[54b0fbfb64ea9b9f12832b0882fa4192]
class PhysicalGearMeasurement--><g id="elem_PhysicalGearMeasurement"><rect fill="#F1F1F1" height="48" id="PhysicalGearMeasurement" rx="2.5" ry="2.5" style="stroke:#181818;stroke-width:0.5;" width="212" x="293.705" y="367.5"/><ellipse cx="308.705" cy="383.5" fill="#ADD1B2" rx="11" ry="11" style="stroke:#181818;stroke-width:1.0;"/><path d="M308.1737,390.4219 Q306.4237,390.4219 305.2831,389.6875 Q304.1581,388.9375 303.5956,387.5938 Q303.0487,386.2344 303.0487,384.4375 Q303.0487,382.4063 303.705,380.9531 Q304.3612,379.5 305.6425,378.7188 Q306.9237,377.9375 308.7987,377.9375 Q309.6893,377.9375 310.3612,378.125 Q311.0331,378.2969 311.7206,378.6406 L310.9081,380.6563 Q310.2831,380.3438 309.7362,380.2188 Q309.205,380.0938 308.7206,380.0938 Q307.5487,380.0938 306.8456,380.625 Q306.1425,381.1563 305.8456,382.1094 Q305.5487,383.0625 305.5487,384.3281 Q305.5487,386.3438 306.2675,387.3125 Q306.9862,388.2656 308.58,388.2656 Q309.1737,388.2656 309.7987,388.1094 Q310.4237,387.9531 311.2518,387.5781 L311.2518,389.7969 Q310.5175,390.1094 309.7206,390.2656 Q308.9393,390.4219 308.1737,390.4219 Z " fill="#000000"/><text fill="#000000" font-family="sans-serif" font-size="14" lengthAdjust="spacing" textLength="180" x="322.705" y="388.932">PhysicalGearMeasurement</text><line style="stroke:#181818;stroke-width:0.5;" x1="294.705" x2="504.705" y1="399.5" y2="399.5"/><line style="stroke:#181818;stroke-width:0.5;" x1="294.705" x2="504.705" y1="407.5" y2="407.5"/></g><!--MD5=[9a516257824048554cf4d870297ef176]
reverse link Vessel to Trip--><g id="link_Vessel_Trip"><path codeLine="32" d="M118.705,60.24 C118.705,75.78 118.705,95.92 118.705,115.92 " fill="none" id="Vessel-backto-Trip" style="stroke:#181818;stroke-width:1.0;"/><polygon fill="#181818" points="118.705,55.15,114.705,64.15,118.705,60.15,122.705,64.15,118.705,55.15" style="stroke:#181818;stroke-width:1.0;"/><text fill="#000000" font-family="sans-serif" font-size="13" lengthAdjust="spacing" textLength="7" x="110.8518" y="77.0915">1</text><text fill="#000000" font-family="sans-serif" font-size="13" lengthAdjust="spacing" textLength="7" x="111.3714" y="104.2931">*</text></g><!--MD5=[029ca2f61057fadf794a8bee2c63e6d5]
reverse link Trip to Operation--><g id="link_Trip_Operation"><path codeLine="33" d="M156.605,290.36 C163.465,307.07 170.395,323.94 176.555,338.95 " fill="none" id="Trip-backto-Operation" style="stroke:#181818;stroke-width:1.0;"/><polygon fill="#181818" points="151.635,278.24,150.2157,285.3101,156.196,289.3394,157.6153,282.2694,151.635,278.24" style="stroke:#181818;stroke-width:1.0;"/><text fill="#000000" font-family="sans-serif" font-size="13" lengthAdjust="spacing" textLength="7" x="147.348" y="300.4237">1</text><text fill="#000000" font-family="sans-serif" font-size="13" lengthAdjust="spacing" textLength="20" x="152.1745" y="327.2972">0..*</text></g><!--MD5=[06d75b2a5d2a74e46ac2ab2eb7908e5e]
reverse link Trip to PhysicalGear--><g id="link_Trip_PhysicalGear"><path codeLine="34" d="M239.175,197 C252.515,197 265.625,197 277.695,197 " fill="none" id="Trip-backto-PhysicalGear" style="stroke:#181818;stroke-width:1.0;"/><polygon fill="#181818" points="225.785,197,231.785,201,237.785,197,231.785,193,225.785,197" style="stroke:#181818;stroke-width:1.0;"/><text fill="#000000" font-family="sans-serif" font-size="13" lengthAdjust="spacing" textLength="15" x="244.205" y="189.897">     </text><text fill="#000000" font-family="sans-serif" font-size="13" lengthAdjust="spacing" textLength="7" x="233.5601" y="193.3099">1</text><text fill="#000000" font-family="sans-serif" font-size="13" lengthAdjust="spacing" textLength="20" x="249.7157" y="211.9128">0..*</text></g><!--MD5=[22530794f051a4e43dab6255f2f635d3]
link Trip to Person--><g id="link_Trip_Person"><path codeLine="35" d="M95.365,278.24 C86.655,308.17 77.335,340.21 70.885,362.38 " fill="none" id="Trip-to-Person" style="stroke:#181818;stroke-width:1.0;"/><polygon fill="#181818" points="69.475,367.23,75.835,359.71,70.875,362.43,68.155,357.47,69.475,367.23" style="stroke:#181818;stroke-width:1.0;"/><text fill="#000000" font-family="sans-serif" font-size="13" lengthAdjust="spacing" textLength="7" x="85.8907" y="300.4237">1</text><text fill="#000000" font-family="sans-serif" font-size="13" lengthAdjust="spacing" textLength="20" x="25.5" y="337.9441">1..*</text><text fill="#000000" font-family="sans-serif" font-size="13" lengthAdjust="spacing" textLength="59" x="6" y="355.6501">observers</text></g><!--MD5=[53f8769e940fd32c5d17533b92044cb8]
reverse link Operation to OperationMeasurement--><g id="link_Operation_OperationMeasurement"><path codeLine="37" d="M233.285,455.5 C250.455,485.9 270.015,520.51 282.585,542.78 " fill="none" id="Operation-backto-OperationMeasurement" style="stroke:#181818;stroke-width:1.0;"/><polygon fill="#181818" points="226.845,444.09,226.3106,451.2813,232.7431,454.5404,233.2775,447.3492,226.845,444.09" style="stroke:#181818;stroke-width:1.0;"/><text fill="#000000" font-family="sans-serif" font-size="13" lengthAdjust="spacing" textLength="7" x="223.2903" y="466.2297">1</text><text fill="#000000" font-family="sans-serif" font-size="13" lengthAdjust="spacing" textLength="20" x="256.6605" y="531.383">0..*</text></g><!--MD5=[2893ce7afcc8bc8eed48ec7e039a921c]
reverse link PhysicalGear to Operation--><g id="link_PhysicalGear_Operation"><path codeLine="38" d="M303.215,244.38 C282.655,272.85 256.295,309.35 235.075,338.75 " fill="none" id="PhysicalGear-backto-Operation" style="stroke:#181818;stroke-width:1.0;"/><polygon fill="#181818" points="306.205,240.24,297.6941,245.1963,303.2786,244.2941,304.1807,249.8786,306.205,240.24" style="stroke:#181818;stroke-width:1.0;"/><text fill="#000000" font-family="sans-serif" font-size="13" lengthAdjust="spacing" textLength="7" x="293.9987" y="262.1034">1</text><text fill="#000000" font-family="sans-serif" font-size="13" lengthAdjust="spacing" textLength="20" x="218.9239" y="327.069">0..*</text></g><!--MD5=[204999fa9802717f9cf4749615ad5baf]
link Operation to VesselPosition--><g id="link_Operation_VesselPosition"><path codeLine="39" d="M162.6668,454.5404 C162.6668,454.5404 147.815,480.83 140.705,493.42 " fill="none" id="Operation-VesselPosition" style="stroke:#181818;stroke-width:1.0;"/><polygon fill="#181818" points="134.265,504.82,142.1721,498.9482,136.7225,500.4657,135.2051,495.0161,134.265,504.82" style="stroke:#181818;stroke-width:1.0;"/><line style="stroke:#181818;stroke-width:1.0;" x1="136.7225" x2="140.655" y1="500.4657" y2="493.505"/><polygon fill="#181818" points="168.565,444.09,162.1324,447.3492,162.6668,454.5404,169.0994,451.2813,168.565,444.09" style="stroke:#181818;stroke-width:1.0;"/><text fill="#000000" font-family="sans-serif" font-size="13" lengthAdjust="spacing" textLength="20" x="143.3055" y="466.2297">0..1</text><text fill="#000000" font-family="sans-serif" font-size="13" lengthAdjust="spacing" textLength="20" x="117.2582" y="493.1294">2..*</text></g><!--MD5=[bc91c027f3c3ce1d0de740ca4499a116]
reverse link PhysicalGear to PhysicalGearMeasurement--><g id="link_PhysicalGear_PhysicalGearMeasurement"><path codeLine="41" d="M354.585,252.65 C366.995,290.55 382.895,339.12 392.125,367.33 " fill="none" id="PhysicalGear-backto-PhysicalGearMeasurement" style="stroke:#181818;stroke-width:1.0;"/><polygon fill="#181818" points="350.535,240.24,348.6086,247.189,354.2822,251.6399,356.2085,244.6909,350.535,240.24" style="stroke:#181818;stroke-width:1.0;"/><text fill="#000000" font-family="sans-serif" font-size="13" lengthAdjust="spacing" textLength="7" x="345.1168" y="262.1034">1</text><text fill="#000000" font-family="sans-serif" font-size="13" lengthAdjust="spacing" textLength="20" x="367.4003" y="355.5418">0..*</text></g><!--MD5=[917c0b1fc4208a9bc5916237b00c6b1e]
link PhysicalGear to Gear--><g id="link_PhysicalGear_Gear"><path codeLine="44" d="M396.105,197 C411.825,197 428.345,197 442.515,197 " fill="none" id="PhysicalGear-to-Gear" style="stroke:#181818;stroke-width:1.0;"/><polygon fill="#181818" points="447.625,197,438.625,193,442.625,197,438.625,201,447.625,197" style="stroke:#181818;stroke-width:1.0;"/><text fill="#000000" font-family="sans-serif" font-size="13" lengthAdjust="spacing" textLength="15" x="414.205" y="189.897">     </text><text fill="#000000" font-family="sans-serif" font-size="13" lengthAdjust="spacing" textLength="7" x="403.7709" y="192.8958">*</text><text fill="#000000" font-family="sans-serif" font-size="13" lengthAdjust="spacing" textLength="7" x="432.8418" y="192.1149">1</text></g></g></svg>