<svg xmlns="http://www.w3.org/2000/svg" xmlns:xlink="http://www.w3.org/1999/xlink" contentStyleType="text/css" height="828px" preserveAspectRatio="none" style="width:1013px;height:828px;background:#FFFFFF;" version="1.1" viewBox="0 0 1013 828" width="1013px" zoomAndPan="magnify"><defs/><g><!--cluster referential--><g id="cluster_referential"><path d="M37.06,574 L113.2817,574 A3.75,3.75 0 0 1 115.7817,576.5 L122.7817,599.0679 L884.06,599.0679 A2.5,2.5 0 0 1 886.56,601.5679 L886.56,818.5 A2.5,2.5 0 0 1 884.06,821 L37.06,821 A2.5,2.5 0 0 1 34.56,818.5 L34.56,576.5 A2.5,2.5 0 0 1 37.06,574 " fill="#DDDDDD" style="stroke:#000000;stroke-width:1.5;"/><line style="stroke:#000000;stroke-width:1.5;" x1="34.56" x2="122.7817" y1="599.0679" y2="599.0679"/><text fill="#000000" font-family="sans-serif" font-size="14" font-weight="bold" lengthAdjust="spacing" textLength="75.2217" x="38.56" y="590.9659">referential</text></g><!--class VesselType--><g id="elem_VesselType"><rect fill="#F1F1F1" height="32" id="VesselType" rx="2.5" ry="2.5" style="stroke:#181818;stroke-width:0.5;" width="104.6457" x="51.06" y="692.5"/><ellipse cx="66.06" cy="708.5" fill="#ADD1B2" rx="11" ry="11" style="stroke:#181818;stroke-width:1.0;"/><path d="M65.5288,715.4219 Q63.7788,715.4219 62.6381,714.6875 Q61.5131,713.9375 60.9506,712.5938 Q60.4038,711.2344 60.4038,709.4375 Q60.4038,707.4063 61.06,705.9531 Q61.7163,704.5 62.9975,703.7188 Q64.2788,702.9375 66.1538,702.9375 Q67.0444,702.9375 67.7163,703.125 Q68.3881,703.2969 69.0756,703.6406 L68.2631,705.6563 Q67.6381,705.3438 67.0913,705.2188 Q66.56,705.0938 66.0756,705.0938 Q64.9038,705.0938 64.2006,705.625 Q63.4975,706.1563 63.2006,707.1094 Q62.9038,708.0625 62.9038,709.3281 Q62.9038,711.3438 63.6225,712.3125 Q64.3413,713.2656 65.935,713.2656 Q66.5288,713.2656 67.1538,713.1094 Q67.7788,712.9531 68.6069,712.5781 L68.6069,714.7969 Q67.8725,715.1094 67.0756,715.2656 Q66.2944,715.4219 65.5288,715.4219 Z " fill="#000000"/><text fill="#000000" font-family="sans-serif" font-size="14" lengthAdjust="spacing" textLength="72.6457" x="80.06" y="713.932">VesselType</text></g><!--class Status--><g id="elem_Status"><rect fill="#F1F1F1" height="32" id="Status" rx="2.5" ry="2.5" style="stroke:#181818;stroke-width:0.5;" width="73.0059" x="797.06" y="692.5"/><ellipse cx="812.06" cy="708.5" fill="#ADD1B2" rx="11" ry="11" style="stroke:#181818;stroke-width:1.0;"/><path d="M811.5288,715.4219 Q809.7788,715.4219 808.6381,714.6875 Q807.5131,713.9375 806.9506,712.5938 Q806.4038,711.2344 806.4038,709.4375 Q806.4038,707.4063 807.06,705.9531 Q807.7163,704.5 808.9975,703.7188 Q810.2788,702.9375 812.1538,702.9375 Q813.0444,702.9375 813.7163,703.125 Q814.3881,703.2969 815.0756,703.6406 L814.2631,705.6563 Q813.6381,705.3438 813.0913,705.2188 Q812.56,705.0938 812.0756,705.0938 Q810.9038,705.0938 810.2006,705.625 Q809.4975,706.1563 809.2006,707.1094 Q808.9038,708.0625 808.9038,709.3281 Q808.9038,711.3438 809.6225,712.3125 Q810.3413,713.2656 811.935,713.2656 Q812.5288,713.2656 813.1538,713.1094 Q813.7788,712.9531 814.6069,712.5781 L814.6069,714.7969 Q813.8725,715.1094 813.0756,715.2656 Q812.2944,715.4219 811.5288,715.4219 Z " fill="#000000"/><text fill="#000000" font-family="sans-serif" font-size="14" lengthAdjust="spacing" textLength="41.0059" x="826.06" y="713.932">Status</text></g><!--class Location--><g id="elem_Location"><rect fill="#F1F1F1" height="32" id="Location" rx="2.5" ry="2.5" style="stroke:#181818;stroke-width:0.5;" width="88.1678" x="498.56" y="692.5"/><ellipse cx="513.56" cy="708.5" fill="#ADD1B2" rx="11" ry="11" style="stroke:#181818;stroke-width:1.0;"/><path d="M513.0288,715.4219 Q511.2787,715.4219 510.1381,714.6875 Q509.0131,713.9375 508.4506,712.5938 Q507.9037,711.2344 507.9037,709.4375 Q507.9037,707.4063 508.56,705.9531 Q509.2162,704.5 510.4975,703.7188 Q511.7787,702.9375 513.6538,702.9375 Q514.5444,702.9375 515.2163,703.125 Q515.8881,703.2969 516.5756,703.6406 L515.7631,705.6563 Q515.1381,705.3438 514.5913,705.2188 Q514.06,705.0938 513.5756,705.0938 Q512.4038,705.0938 511.7006,705.625 Q510.9975,706.1563 510.7006,707.1094 Q510.4037,708.0625 510.4037,709.3281 Q510.4037,711.3438 511.1225,712.3125 Q511.8412,713.2656 513.435,713.2656 Q514.0288,713.2656 514.6538,713.1094 Q515.2788,712.9531 516.1069,712.5781 L516.1069,714.7969 Q515.3725,715.1094 514.5756,715.2656 Q513.7944,715.4219 513.0288,715.4219 Z " fill="#000000"/><text fill="#000000" font-family="sans-serif" font-size="14" lengthAdjust="spacing" textLength="56.1678" x="527.56" y="713.932">Location</text></g><!--class QualitativeValue--><g id="elem_QualitativeValue"><rect fill="#F1F1F1" height="32" id="QualitativeValue" rx="2.5" ry="2.5" style="stroke:#181818;stroke-width:0.5;" width="139.6596" x="621.56" y="692.5"/><ellipse cx="636.56" cy="708.5" fill="#ADD1B2" rx="11" ry="11" style="stroke:#181818;stroke-width:1.0;"/><path d="M636.0288,715.4219 Q634.2788,715.4219 633.1381,714.6875 Q632.0131,713.9375 631.4506,712.5938 Q630.9038,711.2344 630.9038,709.4375 Q630.9038,707.4063 631.56,705.9531 Q632.2163,704.5 633.4975,703.7188 Q634.7788,702.9375 636.6538,702.9375 Q637.5444,702.9375 638.2163,703.125 Q638.8881,703.2969 639.5756,703.6406 L638.7631,705.6563 Q638.1381,705.3438 637.5913,705.2188 Q637.06,705.0938 636.5756,705.0938 Q635.4038,705.0938 634.7006,705.625 Q633.9975,706.1563 633.7006,707.1094 Q633.4038,708.0625 633.4038,709.3281 Q633.4038,711.3438 634.1225,712.3125 Q634.8413,713.2656 636.435,713.2656 Q637.0288,713.2656 637.6538,713.1094 Q638.2788,712.9531 639.1069,712.5781 L639.1069,714.7969 Q638.3725,715.1094 637.5756,715.2656 Q636.7944,715.4219 636.0288,715.4219 Z " fill="#000000"/><text fill="#000000" font-family="sans-serif" font-size="14" lengthAdjust="spacing" textLength="107.6596" x="650.56" y="713.932">QualitativeValue</text></g><!--class VesselTypeEnum--><g id="elem_VesselTypeEnum"><rect codeLine="57" fill="#F1F1F1" height="192.5433" id="VesselTypeEnum" rx="2.5" ry="2.5" style="stroke:#181818;stroke-width:0.5;" width="250.3351" x="213.56" y="612"/><ellipse cx="279.0658" cy="628" fill="#EB937F" rx="11" ry="11" style="stroke:#181818;stroke-width:1.0;"/><path d="M275.4252,634.5 L275.4252,622.3594 L283.0814,622.3594 L283.0814,624.4844 L277.8002,624.4844 L277.8002,627.1406 L282.8158,627.1406 L282.8158,629.2656 L277.8002,629.2656 L277.8002,632.375 L283.0814,632.375 L283.0814,634.5 L275.4252,634.5 Z " fill="#000000"/><text fill="#000000" font-family="sans-serif" font-size="14" lengthAdjust="spacing" textLength="110.8235" x="299.5658" y="633.432">VesselTypeEnum</text><line style="stroke:#181818;stroke-width:0.5;" x1="214.56" x2="462.8951" y1="644" y2="644"/><ellipse cx="224.56" cy="659.034" fill="none" rx="3" ry="3" style="stroke:#038048;stroke-width:1.0;"/><text fill="#000000" font-family="sans-serif" font-size="14" lengthAdjust="spacing" textLength="52.8358" x="233.56" y="662.9659">UNK = 0</text><ellipse cx="224.56" cy="678.1019" fill="none" rx="3" ry="3" style="stroke:#038048;stroke-width:1.0;"/><text fill="#000000" font-family="sans-serif" font-size="14" lengthAdjust="spacing" textLength="131.8375" x="233.56" y="682.0339">FISHING_VESSEL = 1</text><ellipse cx="224.56" cy="697.1698" fill="none" rx="3" ry="3" style="stroke:#038048;stroke-width:1.0;"/><text fill="#000000" font-family="sans-serif" font-size="14" lengthAdjust="spacing" textLength="224.3351" x="233.56" y="701.1018">SCIENTIFIC_RESEARCH_VESSEL = 2</text><ellipse cx="224.56" cy="716.2377" fill="none" rx="3" ry="3" style="stroke:#038048;stroke-width:1.0;"/><text fill="#000000" font-family="sans-serif" font-size="14" lengthAdjust="spacing" textLength="186.5913" x="233.56" y="720.1697">FISHING_VESSEL_GROUP = 3</text><ellipse cx="224.56" cy="735.3056" fill="none" rx="3" ry="3" style="stroke:#038048;stroke-width:1.0;"/><text fill="#000000" font-family="sans-serif" font-size="14" lengthAdjust="spacing" textLength="133.2235" x="233.56" y="739.2376">PLEASURE_BOAT = 4</text><ellipse cx="224.56" cy="754.3735" fill="none" rx="3" ry="3" style="stroke:#038048;stroke-width:1.0;"/><text fill="#000000" font-family="sans-serif" font-size="14" lengthAdjust="spacing" textLength="127.6795" x="233.56" y="758.3055">SAILING_YACHT = 5</text><ellipse cx="224.56" cy="773.4415" fill="none" rx="3" ry="3" style="stroke:#038048;stroke-width:1.0;"/><text fill="#000000" font-family="sans-serif" font-size="14" lengthAdjust="spacing" textLength="114.0855" x="233.56" y="777.3734">TRADITIONAL = 6</text><ellipse cx="224.56" cy="792.5094" fill="none" rx="3" ry="3" style="stroke:#038048;stroke-width:1.0;"/><text fill="#000000" font-family="sans-serif" font-size="14" lengthAdjust="spacing" textLength="68.8797" x="233.56" y="796.4414">OTHER = 7</text></g><!--class Vessel--><g id="elem_Vessel"><rect codeLine="3" fill="#F1F1F1" height="78.1358" id="Vessel" rx="2.5" ry="2.5" style="stroke:#181818;stroke-width:0.5;" width="184.7874" x="460.06" y="7"/><ellipse cx="527.5958" cy="23" fill="#ADD1B2" rx="11" ry="11" style="stroke:#181818;stroke-width:1.0;"/><path d="M527.0645,29.9219 Q525.3145,29.9219 524.1739,29.1875 Q523.0489,28.4375 522.4864,27.0938 Q521.9395,25.7344 521.9395,23.9375 Q521.9395,21.9063 522.5958,20.4531 Q523.252,19 524.5333,18.2188 Q525.8145,17.4375 527.6895,17.4375 Q528.5802,17.4375 529.252,17.625 Q529.9239,17.7969 530.6114,18.1406 L529.7989,20.1563 Q529.1739,19.8438 528.627,19.7188 Q528.0958,19.5938 527.6114,19.5938 Q526.4395,19.5938 525.7364,20.125 Q525.0333,20.6563 524.7364,21.6094 Q524.4395,22.5625 524.4395,23.8281 Q524.4395,25.8438 525.1583,26.8125 Q525.877,27.7656 527.4708,27.7656 Q528.0645,27.7656 528.6895,27.6094 Q529.3145,27.4531 530.1427,27.0781 L530.1427,29.2969 Q529.4083,29.6094 528.6114,29.7656 Q527.8302,29.9219 527.0645,29.9219 Z " fill="#000000"/><text fill="#000000" font-family="sans-serif" font-size="14" lengthAdjust="spacing" textLength="41.2158" x="548.0958" y="28.432">Vessel</text><line style="stroke:#181818;stroke-width:0.5;" x1="461.06" x2="643.8474" y1="39" y2="39"/><ellipse cx="471.06" cy="54.034" fill="none" rx="3" ry="3" style="stroke:#038048;stroke-width:1.0;"/><text fill="#000000" font-family="sans-serif" font-size="14" lengthAdjust="spacing" textLength="12.222" x="480.06" y="57.9659">id</text><ellipse cx="471.06" cy="73.1019" fill="none" rx="3" ry="3" style="stroke:#038048;stroke-width:1.0;"/><text fill="#000000" font-family="sans-serif" font-size="14" lengthAdjust="spacing" textLength="158.7874" x="480.06" y="77.0339">updateDate: Timestamp</text></g><!--class VesselRegistrationPeriod--><g id="elem_VesselRegistrationPeriod"><rect codeLine="8" fill="#F1F1F1" height="97.2038" id="VesselRegistrationPeriod" rx="2.5" ry="2.5" style="stroke:#181818;stroke-width:0.5;" width="196.0654" x="180.56" y="288"/><ellipse cx="195.56" cy="304" fill="#ADD1B2" rx="11" ry="11" style="stroke:#181818;stroke-width:1.0;"/><path d="M195.0288,310.9219 Q193.2788,310.9219 192.1381,310.1875 Q191.0131,309.4375 190.4506,308.0938 Q189.9038,306.7344 189.9038,304.9375 Q189.9038,302.9063 190.56,301.4531 Q191.2163,300 192.4975,299.2188 Q193.7788,298.4375 195.6538,298.4375 Q196.5444,298.4375 197.2163,298.625 Q197.8881,298.7969 198.5756,299.1406 L197.7631,301.1563 Q197.1381,300.8438 196.5913,300.7188 Q196.06,300.5938 195.5756,300.5938 Q194.4038,300.5938 193.7006,301.125 Q192.9975,301.6563 192.7006,302.6094 Q192.4038,303.5625 192.4038,304.8281 Q192.4038,306.8438 193.1225,307.8125 Q193.8413,308.7656 195.435,308.7656 Q196.0288,308.7656 196.6538,308.6094 Q197.2788,308.4531 198.1069,308.0781 L198.1069,310.2969 Q197.3725,310.6094 196.5756,310.7656 Q195.7944,310.9219 195.0288,310.9219 Z " fill="#000000"/><text fill="#000000" font-family="sans-serif" font-size="14" lengthAdjust="spacing" textLength="164.0654" x="209.56" y="309.432">VesselRegistrationPeriod</text><line style="stroke:#181818;stroke-width:0.5;" x1="181.56" x2="375.6254" y1="320" y2="320"/><ellipse cx="191.56" cy="335.034" fill="none" rx="3" ry="3" style="stroke:#038048;stroke-width:1.0;"/><text fill="#000000" font-family="sans-serif" font-size="14" lengthAdjust="spacing" textLength="12.222" x="200.56" y="338.9659">id</text><ellipse cx="191.56" cy="354.1019" fill="none" rx="3" ry="3" style="stroke:#038048;stroke-width:1.0;"/><text fill="#000000" font-family="sans-serif" font-size="14" lengthAdjust="spacing" textLength="99.8896" x="200.56" y="358.0339">startDate: Date</text><ellipse cx="191.56" cy="373.1698" fill="none" rx="3" ry="3" style="stroke:#038048;stroke-width:1.0;"/><text fill="#000000" font-family="sans-serif" font-size="14" lengthAdjust="spacing" textLength="127.3295" x="200.56" y="377.1018">endDate: Date[0..1]</text></g><!--class VesselFeatures--><g id="elem_VesselFeatures"><rect codeLine="14" fill="#F1F1F1" height="345.0867" id="VesselFeatures" rx="2.5" ry="2.5" style="stroke:#181818;stroke-width:0.5;" width="280.855" x="412.06" y="164"/><ellipse cx="499.0767" cy="180" fill="#ADD1B2" rx="11" ry="11" style="stroke:#181818;stroke-width:1.0;"/><path d="M498.5454,186.9219 Q496.7954,186.9219 495.6548,186.1875 Q494.5298,185.4375 493.9673,184.0938 Q493.4204,182.7344 493.4204,180.9375 Q493.4204,178.9063 494.0767,177.4531 Q494.7329,176 496.0142,175.2188 Q497.2954,174.4375 499.1704,174.4375 Q500.0611,174.4375 500.7329,174.625 Q501.4048,174.7969 502.0923,175.1406 L501.2798,177.1563 Q500.6548,176.8438 500.1079,176.7188 Q499.5767,176.5938 499.0923,176.5938 Q497.9204,176.5938 497.2173,177.125 Q496.5142,177.6563 496.2173,178.6094 Q495.9204,179.5625 495.9204,180.8281 Q495.9204,182.8438 496.6392,183.8125 Q497.3579,184.7656 498.9517,184.7656 Q499.5454,184.7656 500.1704,184.6094 Q500.7954,184.4531 501.6236,184.0781 L501.6236,186.2969 Q500.8892,186.6094 500.0923,186.7656 Q499.3111,186.9219 498.5454,186.9219 Z " fill="#000000"/><text fill="#000000" font-family="sans-serif" font-size="14" lengthAdjust="spacing" textLength="98.3216" x="519.5767" y="185.432">VesselFeatures</text><line style="stroke:#181818;stroke-width:0.5;" x1="413.06" x2="691.915" y1="196" y2="196"/><ellipse cx="423.06" cy="211.034" fill="none" rx="3" ry="3" style="stroke:#038048;stroke-width:1.0;"/><text fill="#000000" font-family="sans-serif" font-size="14" lengthAdjust="spacing" textLength="12.222" x="432.06" y="214.9659">id</text><ellipse cx="423.06" cy="230.1019" fill="none" rx="3" ry="3" style="stroke:#038048;stroke-width:1.0;"/><text fill="#000000" font-family="sans-serif" font-size="14" lengthAdjust="spacing" textLength="99.8896" x="432.06" y="234.0339">startDate: Date</text><ellipse cx="423.06" cy="249.1698" fill="none" rx="3" ry="3" style="stroke:#038048;stroke-width:1.0;"/><text fill="#000000" font-family="sans-serif" font-size="14" lengthAdjust="spacing" textLength="127.3295" x="432.06" y="253.1018">endDate: Date[0..1]</text><ellipse cx="423.06" cy="268.2377" fill="none" rx="3" ry="3" style="stroke:#038048;stroke-width:1.0;"/><text fill="#000000" font-family="sans-serif" font-size="14" lengthAdjust="spacing" textLength="84.2797" x="432.06" y="272.1697">name: String</text><ellipse cx="423.06" cy="287.3056" fill="none" rx="3" ry="3" style="stroke:#038048;stroke-width:1.0;"/><text fill="#000000" font-family="sans-serif" font-size="14" lengthAdjust="spacing" textLength="153.3694" x="432.06" y="291.2376">exteriorMarking: String</text><ellipse cx="423.06" cy="306.3735" fill="none" rx="3" ry="3" style="stroke:#038048;stroke-width:1.0;"/><text fill="#000000" font-family="sans-serif" font-size="14" lengthAdjust="spacing" textLength="192.1493" x="432.06" y="310.3055">administrativePower: Integer</text><ellipse cx="423.06" cy="325.4415" fill="none" rx="3" ry="3" style="stroke:#038048;stroke-width:1.0;"/><text fill="#000000" font-family="sans-serif" font-size="14" lengthAdjust="spacing" textLength="153.1734" x="432.06" y="329.3734">auxiliaryPower: Integer</text><ellipse cx="423.06" cy="344.5094" fill="none" rx="3" ry="3" style="stroke:#038048;stroke-width:1.0;"/><text fill="#000000" font-family="sans-serif" font-size="14" lengthAdjust="spacing" textLength="168.0274" x="432.06" y="348.4414">constructionYear: Integer</text><ellipse cx="423.06" cy="363.5773" fill="none" rx="3" ry="3" style="stroke:#038048;stroke-width:1.0;"/><text fill="#000000" font-family="sans-serif" font-size="14" lengthAdjust="spacing" textLength="176.9033" x="432.06" y="367.5093">grossTonnageGRT: Integer</text><ellipse cx="423.06" cy="382.6452" fill="none" rx="3" ry="3" style="stroke:#038048;stroke-width:1.0;"/><text fill="#000000" font-family="sans-serif" font-size="14" lengthAdjust="spacing" textLength="168.1954" x="432.06" y="386.5772">grossTonnageGT: Integer</text><ellipse cx="423.06" cy="401.7131" fill="none" rx="3" ry="3" style="stroke:#038048;stroke-width:1.0;"/><text fill="#000000" font-family="sans-serif" font-size="14" lengthAdjust="spacing" textLength="113.4416" x="432.06" y="405.6451">hasVMS: Boolean</text><ellipse cx="423.06" cy="420.781" fill="none" rx="3" ry="3" style="stroke:#038048;stroke-width:1.0;"/><text fill="#000000" font-family="sans-serif" font-size="14" lengthAdjust="spacing" textLength="76.7757" x="432.06" y="424.713">IRCS: String</text><ellipse cx="423.06" cy="439.849" fill="none" rx="3" ry="3" style="stroke:#038048;stroke-width:1.0;"/><text fill="#000000" font-family="sans-serif" font-size="14" lengthAdjust="spacing" textLength="96.3476" x="432.06" y="443.7809">isFPC: Boolean</text><ellipse cx="423.06" cy="458.9169" fill="none" rx="3" ry="3" style="stroke:#038048;stroke-width:1.0;"/><text fill="#000000" font-family="sans-serif" font-size="14" lengthAdjust="spacing" textLength="254.855" x="432.06" y="462.8489">lengthBetweenPerpendiculars: Integer</text><ellipse cx="423.06" cy="477.9848" fill="none" rx="3" ry="3" style="stroke:#038048;stroke-width:1.0;"/><text fill="#000000" font-family="sans-serif" font-size="14" lengthAdjust="spacing" textLength="146.3974" x="432.06" y="481.9168">lengthOverAll: Integer</text><ellipse cx="423.06" cy="497.0527" fill="none" rx="3" ry="3" style="stroke:#038048;stroke-width:1.0;"/><text fill="#000000" font-family="sans-serif" font-size="14" lengthAdjust="spacing" textLength="158.7874" x="432.06" y="500.9847">updateDate: Timestamp</text></g><!--class VesselFleetEvent--><g id="elem_VesselFleetEvent"><rect codeLine="33" fill="#F1F1F1" height="78.1358" id="VesselFleetEvent" rx="2.5" ry="2.5" style="stroke:#181818;stroke-width:0.5;" width="141.4376" x="728.06" y="297.5"/><ellipse cx="743.06" cy="313.5" fill="#ADD1B2" rx="11" ry="11" style="stroke:#181818;stroke-width:1.0;"/><path d="M742.5288,320.4219 Q740.7788,320.4219 739.6381,319.6875 Q738.5131,318.9375 737.9506,317.5938 Q737.4038,316.2344 737.4038,314.4375 Q737.4038,312.4063 738.06,310.9531 Q738.7163,309.5 739.9975,308.7188 Q741.2788,307.9375 743.1538,307.9375 Q744.0444,307.9375 744.7163,308.125 Q745.3881,308.2969 746.0756,308.6406 L745.2631,310.6563 Q744.6381,310.3438 744.0913,310.2188 Q743.56,310.0938 743.0756,310.0938 Q741.9038,310.0938 741.2006,310.625 Q740.4975,311.1563 740.2006,312.1094 Q739.9038,313.0625 739.9038,314.3281 Q739.9038,316.3438 740.6225,317.3125 Q741.3413,318.2656 742.935,318.2656 Q743.5288,318.2656 744.1538,318.1094 Q744.7788,317.9531 745.6069,317.5781 L745.6069,319.7969 Q744.8725,320.1094 744.0756,320.2656 Q743.2944,320.4219 742.5288,320.4219 Z " fill="#000000"/><text fill="#000000" font-family="sans-serif" font-size="14" lengthAdjust="spacing" textLength="109.4376" x="757.06" y="318.932">VesselFleetEvent</text><line style="stroke:#181818;stroke-width:0.5;" x1="729.06" x2="868.4976" y1="329.5" y2="329.5"/><ellipse cx="739.06" cy="344.534" fill="none" rx="3" ry="3" style="stroke:#038048;stroke-width:1.0;"/><text fill="#000000" font-family="sans-serif" font-size="14" lengthAdjust="spacing" textLength="12.222" x="748.06" y="348.4659">id</text><ellipse cx="739.06" cy="363.6019" fill="none" rx="3" ry="3" style="stroke:#038048;stroke-width:1.0;"/><text fill="#000000" font-family="sans-serif" font-size="14" lengthAdjust="spacing" textLength="106.0496" x="748.06" y="367.5339">eventDate: Date</text></g><!--class Program--><g id="elem_Program"><rect fill="#F1F1F1" height="32" id="Program" rx="2.5" ry="2.5" style="stroke:#181818;stroke-width:0.5;" width="90.0578" x="680.56" y="30"/><ellipse cx="695.56" cy="46" fill="#ADD1B2" rx="11" ry="11" style="stroke:#181818;stroke-width:1.0;"/><path d="M695.0288,52.9219 Q693.2788,52.9219 692.1381,52.1875 Q691.0131,51.4375 690.4506,50.0938 Q689.9038,48.7344 689.9038,46.9375 Q689.9038,44.9063 690.56,43.4531 Q691.2163,42 692.4975,41.2188 Q693.7788,40.4375 695.6538,40.4375 Q696.5444,40.4375 697.2163,40.625 Q697.8881,40.7969 698.5756,41.1406 L697.7631,43.1563 Q697.1381,42.8438 696.5913,42.7188 Q696.06,42.5938 695.5756,42.5938 Q694.4038,42.5938 693.7006,43.125 Q692.9975,43.6563 692.7006,44.6094 Q692.4038,45.5625 692.4038,46.8281 Q692.4038,48.8438 693.1225,49.8125 Q693.8413,50.7656 695.435,50.7656 Q696.0288,50.7656 696.6538,50.6094 Q697.2788,50.4531 698.1069,50.0781 L698.1069,52.2969 Q697.3725,52.6094 696.5756,52.7656 Q695.7944,52.9219 695.0288,52.9219 Z " fill="#000000"/><text fill="#000000" font-family="sans-serif" font-size="14" lengthAdjust="spacing" textLength="58.0578" x="709.56" y="51.432">Program</text></g><!--link Vessel to Program--><g id="link_Vessel_Program"><path codeLine="38" d="M645.14,46 C656.87,46 662.6,46 674.32,46 " fill="none" id="Vessel-to-Program" style="stroke:#181818;stroke-width:1.0;"/><polygon fill="#181818" points="680.32,46,671.32,42,675.32,46,671.32,50,680.32,46" style="stroke:#181818;stroke-width:1.0;"/><text fill="#000000" font-family="sans-serif" font-size="13" lengthAdjust="spacing" textLength="7.163" x="652.8113" y="42.2424">*</text><text fill="#000000" font-family="sans-serif" font-size="13" lengthAdjust="spacing" textLength="7.436" x="664.9753" y="41.4967">1</text></g><!--link Vessel to VesselRegistrationPeriod--><g id="link_Vessel_VesselRegistrationPeriod"><path codeLine="40" d="M491.31,85.16 C460.3,106.18 423.25,134.06 394.56,164 C358.5,201.63 326.07,251.66 304.74,287.96 " fill="none" id="Vessel-VesselRegistrationPeriod" style="stroke:#181818;stroke-width:1.0;"/><text fill="#000000" font-family="sans-serif" font-size="13" lengthAdjust="spacing" textLength="70.1611" x="447.56" y="129.897">&lt;identifier&gt;</text><text fill="#000000" font-family="sans-serif" font-size="13" lengthAdjust="spacing" textLength="7.436" x="473.6395" y="106.9979">1</text><text fill="#000000" font-family="sans-serif" font-size="13" lengthAdjust="spacing" textLength="21.567" x="286.1794" y="276.1612">0..*</text></g><!--link Vessel to VesselFeatures--><g id="link_Vessel_VesselFeatures"><path codeLine="41" d="M552.56,85.01 C552.56,106.2 552.56,134.26 552.56,163.92 " fill="none" id="Vessel-VesselFeatures" style="stroke:#181818;stroke-width:1.0;"/><text fill="#000000" font-family="sans-serif" font-size="13" lengthAdjust="spacing" textLength="70.1611" x="553.56" y="129.897">&lt;identifier&gt;</text><text fill="#000000" font-family="sans-serif" font-size="13" lengthAdjust="spacing" textLength="7.436" x="545.0142" y="107.1218">1</text><text fill="#000000" font-family="sans-serif" font-size="13" lengthAdjust="spacing" textLength="21.567" x="531.0687" y="152.061">0..*</text></g><!--link Vessel to VesselFleetEvent--><g id="link_Vessel_VesselFleetEvent"><path codeLine="42" d="M617.3,85.05 C648.29,105.57 684.28,133.03 710.56,164 C744.88,204.44 770.44,260.55 784.92,297.42 " fill="none" id="Vessel-VesselFleetEvent" style="stroke:#181818;stroke-width:1.0;"/><text fill="#000000" font-family="sans-serif" font-size="13" lengthAdjust="spacing" textLength="70.1611" x="681.56" y="129.897">&lt;identifier&gt;</text><text fill="#000000" font-family="sans-serif" font-size="13" lengthAdjust="spacing" textLength="7.436" x="620.8814" y="107.1687">1</text><text fill="#000000" font-family="sans-serif" font-size="13" lengthAdjust="spacing" textLength="21.567" x="759.4811" y="285.597">0..*</text></g><!--link Vessel to VesselType--><g id="link_Vessel_VesselType"><path codeLine="48" d="M459.94,60.67 C350.95,78.8 179.71,114.4 139.56,164 C6,329.02 77.3575,616.822 97.3375,686.562 " fill="none" id="Vessel-to-VesselType" style="stroke:#181818;stroke-width:1.0;"/><polygon fill="#181818" points="98.99,692.33,100.3566,682.5764,97.6129,687.5234,92.666,684.7797,98.99,692.33" style="stroke:#181818;stroke-width:1.0;"/><text fill="#000000" font-family="sans-serif" font-size="13" lengthAdjust="spacing" textLength="21.593" x="140.56" y="341.897">use</text><text fill="#000000" font-family="sans-serif" font-size="13" lengthAdjust="spacing" textLength="7.163" x="444.9956" y="58.1016">*</text><text fill="#000000" font-family="sans-serif" font-size="13" lengthAdjust="spacing" textLength="7.436" x="89.2558" y="680.5641">1</text></g><!--link Vessel to Status--><g id="link_Vessel_Status"><path codeLine="49" d="M645.16,78.93 C651.38,81.01 657.56,83.04 663.56,85 C763.54,117.57 827.19,77.22 886.56,164 C1006.46,339.28 878.6614,618.5826 844.1614,687.0026 " fill="none" id="Vessel-to-Status" style="stroke:#181818;stroke-width:1.0;"/><polygon fill="#181818" points="841.46,692.36,849.0838,686.1248,843.7112,687.8955,841.9405,682.5229,841.46,692.36" style="stroke:#181818;stroke-width:1.0;"/><text fill="#000000" font-family="sans-serif" font-size="13" lengthAdjust="spacing" textLength="21.593" x="936.56" y="341.897">use</text><text fill="#000000" font-family="sans-serif" font-size="13" lengthAdjust="spacing" textLength="7.163" x="652.8329" y="77.7965">*</text><text fill="#000000" font-family="sans-serif" font-size="13" lengthAdjust="spacing" textLength="7.436" x="836.1041" y="680.6048">1</text></g><!--link VesselRegistrationPeriod to Location--><g id="link_VesselRegistrationPeriod_Location"><path codeLine="51" d="M290.93,385.28 C307.09,437.19 340.75,518.04 401.56,558 C431.05,577.38 452.03,545.23 480.56,566 C522.84,596.79 535.8399,656.8291 540.0399,686.5291 " fill="none" id="VesselRegistrationPeriod-to-Location" style="stroke:#181818;stroke-width:1.0;"/><polygon fill="#181818" points="540.88,692.47,543.5804,682.9986,540.1799,687.5193,535.6592,684.1187,540.88,692.47" style="stroke:#181818;stroke-width:1.0;"/><text fill="#000000" font-family="sans-serif" font-size="13" lengthAdjust="spacing" textLength="123.7341" x="402.56" y="553.897">registrationLocation</text><text fill="#000000" font-family="sans-serif" font-size="13" lengthAdjust="spacing" textLength="7.163" x="285.1842" y="407.2673">*</text><text fill="#000000" font-family="sans-serif" font-size="13" lengthAdjust="spacing" textLength="7.436" x="532.0824" y="680.754">1</text></g><!--link VesselFeatures to Location--><g id="link_VesselFeatures_Location"><path codeLine="52" d="M535.96,509.24 C535.38,525.71 535.19,542.17 535.56,558 C536.71,607.09 539.6191,659.1909 541.2491,686.2409 " fill="none" id="VesselFeatures-to-Location" style="stroke:#181818;stroke-width:1.0;"/><polygon fill="#181818" points="541.61,692.23,545.0614,683.0057,541.3093,687.2391,537.0759,683.4869,541.61,692.23" style="stroke:#181818;stroke-width:1.0;"/><text fill="#000000" font-family="sans-serif" font-size="13" lengthAdjust="spacing" textLength="106.7951" x="536.56" y="553.897">basePortLocation</text><text fill="#000000" font-family="sans-serif" font-size="13" lengthAdjust="spacing" textLength="7.163" x="528.1185" y="530.7961">*</text><text fill="#000000" font-family="sans-serif" font-size="13" lengthAdjust="spacing" textLength="21.84" x="545.0084" y="680.7337">0..1</text></g><!--link VesselFeatures to QualitativeValue--><g id="link_VesselFeatures_QualitativeValue"><path codeLine="53" d="M636.06,509.18 C640.13,519.2 644,529.18 647.56,539 C667.56,594.14 681.3251,656.5902 687.3951,686.4602 " fill="none" id="VesselFeatures-to-QualitativeValue" style="stroke:#181818;stroke-width:1.0;"/><polygon fill="#181818" points="688.59,692.34,690.7176,682.7237,687.5943,687.4401,682.8778,684.3168,688.59,692.34" style="stroke:#181818;stroke-width:1.0;"/><text fill="#000000" font-family="sans-serif" font-size="13" lengthAdjust="spacing" textLength="73.2551" x="654.56" y="553.897">hullMaterial</text><text fill="#000000" font-family="sans-serif" font-size="13" lengthAdjust="spacing" textLength="7.163" x="632.4415" y="530.7336">*</text><text fill="#000000" font-family="sans-serif" font-size="13" lengthAdjust="spacing" textLength="7.436" x="679.4234" y="680.5776">1</text></g><!--link VesselFleetEvent to QualitativeValue--><g id="link_VesselFleetEvent_QualitativeValue"><path codeLine="54" d="M795.61,375.7 C791.41,420.27 781.98,495.8 762.56,558 C746.46,609.56 718.7181,660.8227 703.5181,687.1727 " fill="none" id="VesselFleetEvent-to-QualitativeValue" style="stroke:#181818;stroke-width:1.0;"/><polygon fill="#181818" points="700.52,692.37,708.4819,686.5728,703.0184,688.0389,701.5522,682.5754,700.52,692.37" style="stroke:#181818;stroke-width:1.0;"/><text fill="#000000" font-family="sans-serif" font-size="13" lengthAdjust="spacing" textLength="63.1801" x="768.56" y="553.897">eventType</text><text fill="#000000" font-family="sans-serif" font-size="13" lengthAdjust="spacing" textLength="7.163" x="787.519" y="397.5445">*</text><text fill="#000000" font-family="sans-serif" font-size="13" lengthAdjust="spacing" textLength="7.436" x="695.6034" y="680.6183">1</text></g><!--link VesselType to VesselTypeEnum--><g id="link_VesselType_VesselTypeEnum"><path codeLine="55" d="M156.3,708.5 C173.48,708.5 187.36,708.5 207.53,708.5 " fill="none" id="VesselType-to-VesselTypeEnum" style="stroke:#181818;stroke-width:1.0;stroke-dasharray:7.0,7.0;"/><polygon fill="#181818" points="213.53,708.5,204.53,704.5,208.53,708.5,204.53,712.5,213.53,708.5" style="stroke:#181818;stroke-width:1.0;"/><text fill="#000000" font-family="sans-serif" font-size="13" lengthAdjust="spacing" textLength="21.593" x="174.31" y="701.397">use</text></g><!--SRC=[hLDhQ-905FtUNp6utxeeTLy5wGenHWth8vj4eIoBJ9Dh73gPoCp4LfR-zvs9gOanrYtiXOHmpxddvhxM90G4yKRkK0pn0t1nTOMK1HGBWHOW153q9tDf-qZ2uZlTX5X2NpqTv9COXCJn9eDVJaLSY8YG74kIC0SuIS9piag6oxsgVXS0iB1m_xffjTg_psKR09Of1_7VScGWmx52FCa9YqeXprBNmoUOFohWb833cB2y-2quoHFm3hAPX0XuYPK-4qemtvqZ10bJ6ccWEtWFk8uIyKG8Fs4CHp1q_KkCEi8QYyN4ww1Uab30h01ir_HEQoDYu9WrR0eiakiUo2S0FU-DQYm9Kegvg4cwPy-sm0rAQ_1tRTg00aXh2qoUcpvei3BzNCZXISHnZ1hj1hfhKbZ99cfSDtBfFIU_2arfAbGjoO5Gi-KTTATkZ4co8i2xbmGEY_lEiABcIg0s7Rp1mQEQEMfmM07NEAODzA6VMQbHhqckTP9kbcplydSRKEAfWBUudbJ_Bt9UXLZJd7BeE0aoI0Np4lFLNH4xDEeWeO_rIEK12tLjNFwpWWh_cM9AP7Qe2qnJNV4wfNI2zOrZMfKesdv195ivtSAAGjRL5YVHMhQw9P_5qhZIH52k2gCqjsonvzCVw3kwENOER6zaJuVBXULvrbZXxMFSCsrhwji3srowbcSPhZagk9_UqbeEtTdSKQpFnondR1dUtBMMlPdXA_XB9Q5XZxN8lM6EDFpr6FPTes_xzcngw1_uTWpE_97bAlVjmVsId-zV]--></g></svg>