<?xml version="1.0" encoding="UTF-8" standalone="no"?><svg xmlns="http://www.w3.org/2000/svg" xmlns:xlink="http://www.w3.org/1999/xlink" contentStyleType="text/css" height="456px" preserveAspectRatio="none" style="width:684px;height:456px;background:#FFFFFF;" version="1.1" viewBox="0 0 684 456" width="684px" zoomAndPan="magnify"><defs/><g><!--MD5=[95566c14aa2c007e871ef9bf05e5f603]
cluster referential--><g id="cluster_referential"><path d="M325,6.602 L398,6.602 A3.75,3.75 0 0 1 400.5,9.102 L407.5,31.6699 L583,31.6699 A2.5,2.5 0 0 1 585.5,34.1699 L585.5,90.102 A2.5,2.5 0 0 1 583,92.602 L325,92.602 A2.5,2.5 0 0 1 322.5,90.102 L322.5,9.102 A2.5,2.5 0 0 1 325,6.602 " fill="#DDDDDD" style="stroke:#000000;stroke-width:1.5;"/><line style="stroke:#000000;stroke-width:1.5;" x1="322.5" x2="407.5" y1="31.6699" y2="31.6699"/><text fill="#000000" font-family="sans-serif" font-size="14" font-weight="bold" lengthAdjust="spacing" textLength="72" x="326.5" y="23.5679">referential</text></g><!--MD5=[4f1f3706c1a355a8488e154afcaed5df]
class Location--><g id="elem_Location"><rect fill="#F1F1F1" height="32" id="Location" rx="2.5" ry="2.5" style="stroke:#181818;stroke-width:0.5;" width="88" x="481.5" y="44.602"/><ellipse cx="496.5" cy="60.602" fill="#ADD1B2" rx="11" ry="11" style="stroke:#181818;stroke-width:1.0;"/><path d="M495.9688,67.5239 Q494.2188,67.5239 493.0781,66.7895 Q491.9531,66.0395 491.3906,64.6957 Q490.8438,63.3364 490.8438,61.5395 Q490.8438,59.5082 491.5,58.0551 Q492.1563,56.602 493.4375,55.8207 Q494.7188,55.0395 496.5938,55.0395 Q497.4844,55.0395 498.1563,55.227 Q498.8281,55.3989 499.5156,55.7426 L498.7031,57.7582 Q498.0781,57.4457 497.5313,57.3207 Q497,57.1957 496.5156,57.1957 Q495.3438,57.1957 494.6406,57.727 Q493.9375,58.2582 493.6406,59.2114 Q493.3438,60.1645 493.3438,61.4301 Q493.3438,63.4457 494.0625,64.4145 Q494.7813,65.3676 496.375,65.3676 Q496.9688,65.3676 497.5938,65.2114 Q498.2188,65.0551 499.0469,64.6801 L499.0469,66.8989 Q498.3125,67.2114 497.5156,67.3676 Q496.7344,67.5239 495.9688,67.5239 Z " fill="#000000"/><text fill="#000000" font-family="sans-serif" font-size="14" lengthAdjust="spacing" textLength="56" x="510.5" y="66.034">Location</text></g><!--MD5=[bc5a46d077ad07d5fde31ea48a6a1d6d]
class QualityFlag--><g id="elem_QualityFlag"><rect fill="#F1F1F1" height="32" id="QualityFlag" rx="2.5" ry="2.5" style="stroke:#181818;stroke-width:0.5;" width="108" x="338.5" y="44.602"/><ellipse cx="353.5" cy="60.602" fill="#ADD1B2" rx="11" ry="11" style="stroke:#181818;stroke-width:1.0;"/><path d="M352.9688,67.5239 Q351.2188,67.5239 350.0781,66.7895 Q348.9531,66.0395 348.3906,64.6957 Q347.8438,63.3364 347.8438,61.5395 Q347.8438,59.5082 348.5,58.0551 Q349.1563,56.602 350.4375,55.8207 Q351.7188,55.0395 353.5938,55.0395 Q354.4844,55.0395 355.1563,55.227 Q355.8281,55.3989 356.5156,55.7426 L355.7031,57.7582 Q355.0781,57.4457 354.5313,57.3207 Q354,57.1957 353.5156,57.1957 Q352.3438,57.1957 351.6406,57.727 Q350.9375,58.2582 350.6406,59.2114 Q350.3438,60.1645 350.3438,61.4301 Q350.3438,63.4457 351.0625,64.4145 Q351.7813,65.3676 353.375,65.3676 Q353.9688,65.3676 354.5938,65.2114 Q355.2188,65.0551 356.0469,64.6801 L356.0469,66.8989 Q355.3125,67.2114 354.5156,67.3676 Q353.7344,67.5239 352.9688,67.5239 Z " fill="#000000"/><text fill="#000000" font-family="sans-serif" font-size="14" lengthAdjust="spacing" textLength="76" x="367.5" y="66.034">QualityFlag</text></g><!--MD5=[450f3d8ac624ad693607a87a0cb4fcf3]
class IData--><g id="elem_IData"><rect codeLine="2" fill="#F1F1F1" height="32" id="IData" rx="2.5" ry="2.5" style="stroke:#181818;stroke-width:0.5;" width="67" x="236" y="44.602"/><ellipse cx="251" cy="60.602" fill="#B4A7E5" rx="11" ry="11" style="stroke:#181818;stroke-width:1.0;"/><path d="M247.0313,67.102 L247.0313,65.3989 L249.3906,65.1332 L249.3906,56.9301 L247.0313,56.6645 L247.0313,54.9614 L254.1719,54.9614 L254.1719,56.6645 L251.75,56.9301 L251.75,65.1332 L254.1719,65.3989 L254.1719,67.102 L247.0313,67.102 Z " fill="#000000"/><text fill="#000000" font-family="sans-serif" font-size="14" font-style="italic" lengthAdjust="spacing" textLength="35" x="265" y="66.034">IData</text></g><!--MD5=[051e76b8ace5c6735b1c910a18a08868]
class VesselUseFeatures--><g id="elem_VesselUseFeatures"><rect codeLine="5" fill="#F1F1F1" height="135.3396" id="VesselUseFeatures" rx="2.5" ry="2.5" style="stroke:#181818;stroke-width:0.5;" width="164" x="207.5" y="175.602"/><ellipse cx="225.65" cy="191.602" fill="#ADD1B2" rx="11" ry="11" style="stroke:#181818;stroke-width:1.0;"/><path d="M225.1188,198.5239 Q223.3688,198.5239 222.2281,197.7895 Q221.1031,197.0395 220.5406,195.6957 Q219.9938,194.3364 219.9938,192.5395 Q219.9938,190.5082 220.65,189.0551 Q221.3063,187.602 222.5875,186.8207 Q223.8688,186.0395 225.7438,186.0395 Q226.6344,186.0395 227.3063,186.227 Q227.9781,186.3989 228.6656,186.7426 L227.8531,188.7582 Q227.2281,188.4457 226.6813,188.3207 Q226.15,188.1957 225.6656,188.1957 Q224.4938,188.1957 223.7906,188.727 Q223.0875,189.2582 222.7906,190.2114 Q222.4938,191.1645 222.4938,192.4301 Q222.4938,194.4457 223.2125,195.4145 Q223.9313,196.3676 225.525,196.3676 Q226.1188,196.3676 226.7438,196.2114 Q227.3688,196.0551 228.1969,195.6801 L228.1969,197.8989 Q227.4625,198.2114 226.6656,198.3676 Q225.8844,198.5239 225.1188,198.5239 Z " fill="#000000"/><text fill="#000000" font-family="sans-serif" font-size="14" lengthAdjust="spacing" textLength="125" x="240.35" y="197.034">VesselUseFeatures</text><line style="stroke:#181818;stroke-width:0.5;" x1="208.5" x2="370.5" y1="207.602" y2="207.602"/><ellipse cx="218.5" cy="222.6359" fill="none" rx="3" ry="3" style="stroke:#038048;stroke-width:1.0;"/><text fill="#000000" font-family="sans-serif" font-size="14" lengthAdjust="spacing" textLength="75" x="227.5" y="226.5679">id : Integer</text><ellipse cx="218.5" cy="241.7039" fill="none" rx="3" ry="3" style="stroke:#038048;stroke-width:1.0;"/><text fill="#000000" font-family="sans-serif" font-size="14" lengthAdjust="spacing" textLength="125" x="227.5" y="245.6358">program: Program</text><ellipse cx="218.5" cy="260.7718" fill="none" rx="3" ry="3" style="stroke:#038048;stroke-width:1.0;"/><text fill="#000000" font-family="sans-serif" font-size="14" lengthAdjust="spacing" textLength="113" x="227.5" y="264.7038">isActive : Integer</text><ellipse cx="218.5" cy="279.8397" fill="none" rx="3" ry="3" style="stroke:#038048;stroke-width:1.0;"/><text fill="#000000" font-family="sans-serif" font-size="14" lengthAdjust="spacing" textLength="105" x="227.5" y="283.7717">startDate : Date</text><ellipse cx="218.5" cy="298.9076" fill="none" rx="3" ry="3" style="stroke:#038048;stroke-width:1.0;"/><text fill="#000000" font-family="sans-serif" font-size="14" lengthAdjust="spacing" textLength="138" x="227.5" y="302.8396">endDate : Date [0..1]</text></g><!--MD5=[3e90750b98d63f997606f7e9a29c9b00]
class VesselUseFeaturesOrigin--><g id="elem_VesselUseFeaturesOrigin"><rect codeLine="12" fill="#F1F1F1" height="78.1358" id="VesselUseFeaturesOrigin" rx="2.5" ry="2.5" style="stroke:#181818;stroke-width:0.5;" width="289" x="7" y="371.602"/><ellipse cx="63.25" cy="387.602" fill="#ADD1B2" rx="11" ry="11" style="stroke:#181818;stroke-width:1.0;"/><path d="M62.7188,394.5239 Q60.9688,394.5239 59.8281,393.7895 Q58.7031,393.0395 58.1406,391.6957 Q57.5938,390.3364 57.5938,388.5395 Q57.5938,386.5082 58.25,385.0551 Q58.9063,383.602 60.1875,382.8207 Q61.4688,382.0395 63.3438,382.0395 Q64.2344,382.0395 64.9063,382.227 Q65.5781,382.3989 66.2656,382.7426 L65.4531,384.7582 Q64.8281,384.4457 64.2813,384.3207 Q63.75,384.1957 63.2656,384.1957 Q62.0938,384.1957 61.3906,384.727 Q60.6875,385.2582 60.3906,386.2114 Q60.0938,387.1645 60.0938,388.4301 Q60.0938,390.4457 60.8125,391.4145 Q61.5313,392.3676 63.125,392.3676 Q63.7188,392.3676 64.3438,392.2114 Q64.9688,392.0551 65.7969,391.6801 L65.7969,393.8989 Q65.0625,394.2114 64.2656,394.3676 Q63.4844,394.5239 62.7188,394.5239 Z " fill="#000000"/><text fill="#000000" font-family="sans-serif" font-size="14" lengthAdjust="spacing" textLength="168" x="83.75" y="393.034">VesselUseFeaturesOrigin</text><line style="stroke:#181818;stroke-width:0.5;" x1="8" x2="295" y1="403.602" y2="403.602"/><ellipse cx="18" cy="418.6359" fill="none" rx="3" ry="3" style="stroke:#038048;stroke-width:1.0;"/><text fill="#000000" font-family="sans-serif" font-size="14" lengthAdjust="spacing" textLength="206" x="27" y="422.5679">program: Program «Identifier»</text><ellipse cx="18" cy="437.7039" fill="none" rx="3" ry="3" style="stroke:#038048;stroke-width:1.0;"/><text fill="#000000" font-family="sans-serif" font-size="14" lengthAdjust="spacing" textLength="263" x="27" y="441.6358">acquisitionLevel: AcquisitionLevel [0..1]</text></g><!--MD5=[0257577a023a8704f573ebe28c4ccc76]
class VesselUseFeaturesIsActiveEnum--><g id="elem_VesselUseFeaturesIsActiveEnum"><rect codeLine="16" fill="#F1F1F1" height="97.2038" id="VesselUseFeaturesIsActiveEnum" rx="2.5" ry="2.5" style="stroke:#181818;stroke-width:0.5;" width="248" x="429.5" y="194.602"/><ellipse cx="444.5" cy="210.602" fill="#EB937F" rx="11" ry="11" style="stroke:#181818;stroke-width:1.0;"/><path d="M440.8594,217.102 L440.8594,204.9614 L448.5156,204.9614 L448.5156,207.0864 L443.2344,207.0864 L443.2344,209.7426 L448.25,209.7426 L448.25,211.8676 L443.2344,211.8676 L443.2344,214.977 L448.5156,214.977 L448.5156,217.102 L440.8594,217.102 Z " fill="#000000"/><text fill="#000000" font-family="sans-serif" font-size="14" lengthAdjust="spacing" textLength="216" x="458.5" y="216.034">VesselUseFeaturesIsActiveEnum</text><line style="stroke:#181818;stroke-width:0.5;" x1="430.5" x2="676.5" y1="226.602" y2="226.602"/><ellipse cx="440.5" cy="241.6359" fill="none" rx="3" ry="3" style="stroke:#038048;stroke-width:1.0;"/><text fill="#000000" font-family="sans-serif" font-size="14" lengthAdjust="spacing" textLength="87" x="449.5" y="245.5679">INACTIVE = 0</text><ellipse cx="440.5" cy="260.7039" fill="none" rx="3" ry="3" style="stroke:#038048;stroke-width:1.0;"/><text fill="#000000" font-family="sans-serif" font-size="14" lengthAdjust="spacing" textLength="71" x="449.5" y="264.6358">ACTIVE = 1</text><ellipse cx="440.5" cy="279.7718" fill="none" rx="3" ry="3" style="stroke:#038048;stroke-width:1.0;"/><text fill="#000000" font-family="sans-serif" font-size="14" lengthAdjust="spacing" textLength="105" x="449.5" y="283.7038">NOT_EXISTS = 2</text></g><!--MD5=[ed239cddac1bd0ea702000b0a8aa8225]
class Vessel--><g id="elem_Vessel"><rect fill="#F1F1F1" height="32" id="Vessel" rx="2.5" ry="2.5" style="stroke:#181818;stroke-width:0.5;" width="74" x="126.5" y="44.602"/><ellipse cx="141.5" cy="60.602" fill="#ADD1B2" rx="11" ry="11" style="stroke:#181818;stroke-width:1.0;"/><path d="M140.9688,67.5239 Q139.2188,67.5239 138.0781,66.7895 Q136.9531,66.0395 136.3906,64.6957 Q135.8438,63.3364 135.8438,61.5395 Q135.8438,59.5082 136.5,58.0551 Q137.1563,56.602 138.4375,55.8207 Q139.7188,55.0395 141.5938,55.0395 Q142.4844,55.0395 143.1563,55.227 Q143.8281,55.3989 144.5156,55.7426 L143.7031,57.7582 Q143.0781,57.4457 142.5313,57.3207 Q142,57.1957 141.5156,57.1957 Q140.3438,57.1957 139.6406,57.727 Q138.9375,58.2582 138.6406,59.2114 Q138.3438,60.1645 138.3438,61.4301 Q138.3438,63.4457 139.0625,64.4145 Q139.7813,65.3676 141.375,65.3676 Q141.9688,65.3676 142.5938,65.2114 Q143.2188,65.0551 144.0469,64.6801 L144.0469,66.8989 Q143.3125,67.2114 142.5156,67.3676 Q141.7344,67.5239 140.9688,67.5239 Z " fill="#000000"/><text fill="#000000" font-family="sans-serif" font-size="14" lengthAdjust="spacing" textLength="42" x="155.5" y="66.034">Vessel</text></g><!--MD5=[d8686b0111e64e765f7bd091b5d69a1b]
class VesselUseMeasurement--><g id="elem_VesselUseMeasurement"><rect fill="#F1F1F1" height="32" id="VesselUseMeasurement" rx="2.5" ry="2.5" style="stroke:#181818;stroke-width:0.5;" width="193" x="331" y="394.602"/><ellipse cx="346" cy="410.602" fill="#ADD1B2" rx="11" ry="11" style="stroke:#181818;stroke-width:1.0;"/><path d="M345.4688,417.5239 Q343.7188,417.5239 342.5781,416.7895 Q341.4531,416.0395 340.8906,414.6957 Q340.3438,413.3364 340.3438,411.5395 Q340.3438,409.5082 341,408.0551 Q341.6563,406.602 342.9375,405.8207 Q344.2188,405.0395 346.0938,405.0395 Q346.9844,405.0395 347.6563,405.227 Q348.3281,405.3989 349.0156,405.7426 L348.2031,407.7582 Q347.5781,407.4457 347.0313,407.3207 Q346.5,407.1957 346.0156,407.1957 Q344.8438,407.1957 344.1406,407.727 Q343.4375,408.2582 343.1406,409.2114 Q342.8438,410.1645 342.8438,411.4301 Q342.8438,413.4457 343.5625,414.4145 Q344.2813,415.3676 345.875,415.3676 Q346.4688,415.3676 347.0938,415.2114 Q347.7188,415.0551 348.5469,414.6801 L348.5469,416.8989 Q347.8125,417.2114 347.0156,417.3676 Q346.2344,417.5239 345.4688,417.5239 Z " fill="#000000"/><text fill="#000000" font-family="sans-serif" font-size="14" lengthAdjust="spacing" textLength="161" x="360" y="416.034">VesselUseMeasurement</text></g><!--MD5=[510db5c58de6b36b4c6399396e69ba93]
reverse link IData to VesselUseFeatures--><g id="link_IData_VesselUseFeatures"><path d="M273.41,96.862 C275.88,119.132 279.14,148.642 282.09,175.242 " fill="none" id="IData-backto-VesselUseFeatures" style="stroke:#181818;stroke-width:1.0;"/><polygon fill="none" points="266.42,97.332,271.17,76.682,280.33,95.792,266.42,97.332" style="stroke:#181818;stroke-width:1.0;"/></g><!--MD5=[3d85717b325c44283535cfa3893f12e6]
link VesselUseFeatures to VesselUseFeaturesIsActiveEnum--><g id="link_VesselUseFeatures_VesselUseFeaturesIsActiveEnum"><path codeLine="22" d="M371.58,243.102 C388.33,243.102 406.32,243.102 424.25,243.102 " fill="none" id="VesselUseFeatures-to-VesselUseFeaturesIsActiveEnum" style="stroke:#181818;stroke-width:1.0;stroke-dasharray:7.0,7.0;"/><polygon fill="#181818" points="429.31,243.102,420.31,239.102,424.31,243.102,420.31,247.102,429.31,243.102" style="stroke:#181818;stroke-width:1.0;"/><text fill="#000000" font-family="sans-serif" font-size="13" lengthAdjust="spacing" textLength="21" x="390" y="235.999">use</text></g><!--MD5=[422924708f00da210de16e4b0db0aa93]
reverse link Vessel to VesselUseFeatures--><g id="link_Vessel_VesselUseFeatures"><path codeLine="24" d="M177.01,80.952 C192.68,103.402 219.37,141.642 242.82,175.242 " fill="none" id="Vessel-backto-VesselUseFeatures" style="stroke:#181818;stroke-width:1.0;"/><polygon fill="#181818" points="174.03,76.682,175.8939,86.3529,176.8887,80.7842,182.4574,81.779,174.03,76.682" style="stroke:#181818;stroke-width:1.0;"/><text fill="#000000" font-family="sans-serif" font-size="13" lengthAdjust="spacing" textLength="7" x="169.2708" y="98.5264">1</text></g><!--MD5=[a9179083e35261fdf51cf68a9d1bda4e]
reverse link VesselUseFeatures to VesselUseFeaturesOrigin--><g id="link_VesselUseFeatures_VesselUseFeaturesOrigin"><path codeLine="26" d="M225.23,321.182 C210.63,338.682 195.75,356.532 183.22,371.562 " fill="none" id="VesselUseFeatures-backto-VesselUseFeaturesOrigin" style="stroke:#181818;stroke-width:1.0;"/><polygon fill="#181818" points="233.77,310.942,226.8551,312.9877,226.0839,320.1574,232.9988,318.1117,233.77,310.942" style="stroke:#181818;stroke-width:1.0;"/><text fill="#000000" font-family="sans-serif" font-size="13" lengthAdjust="spacing" textLength="7" x="180.3527" y="332.7096">1</text><text fill="#000000" font-family="sans-serif" font-size="13" lengthAdjust="spacing" textLength="82" x="142.8527" y="350.4156">&lt;&lt;Identifier&gt;&gt;</text><text fill="#000000" font-family="sans-serif" font-size="13" lengthAdjust="spacing" textLength="20" x="167.2246" y="359.7464">0..*</text></g><!--MD5=[05561ad0a90443b3d00cdecf250812ee]
reverse link VesselUseFeatures to VesselUseMeasurement--><g id="link_VesselUseFeatures_VesselUseMeasurement"><path codeLine="27" d="M353.7,321.092 C376.82,348.822 400.66,377.412 414.78,394.342 " fill="none" id="VesselUseFeatures-backto-VesselUseMeasurement" style="stroke:#181818;stroke-width:1.0;"/><polygon fill="#181818" points="345.23,310.942,346.0012,318.1117,352.9161,320.1574,352.1449,312.9877,345.23,310.942" style="stroke:#181818;stroke-width:1.0;"/><text fill="#000000" font-family="sans-serif" font-size="13" lengthAdjust="spacing" textLength="7" x="343.6162" y="332.7305">1</text><text fill="#000000" font-family="sans-serif" font-size="13" lengthAdjust="spacing" textLength="20" x="386.97" y="382.8491">0..*</text></g><!--MD5=[4eee5f20b4cf984c6ba2e2ba1bc3ab96]
reverse link Location to VesselUseFeatures--><g id="link_Location_VesselUseFeatures"><path codeLine="30" d="M501.49,79.972 C471.18,103.142 417.48,144.212 371.72,179.222 " fill="none" id="Location-backto-VesselUseFeatures" style="stroke:#181818;stroke-width:1.0;"/><polygon fill="#181818" points="505.78,76.682,496.2031,78.9805,501.811,79.7229,501.0687,85.3309,505.78,76.682" style="stroke:#181818;stroke-width:1.0;"/><text fill="#000000" font-family="sans-serif" font-size="13" lengthAdjust="spacing" textLength="3" x="514" y="123.499"> </text><text fill="#000000" font-family="sans-serif" font-size="13" lengthAdjust="spacing" textLength="106" x="462.5" y="141.205">basePortLocation</text><text fill="#000000" font-family="sans-serif" font-size="13" lengthAdjust="spacing" textLength="3" x="487.4073" y="98.392"> </text><text fill="#000000" font-family="sans-serif" font-size="13" lengthAdjust="spacing" textLength="20" x="478.9073" y="116.098">0..1</text></g><!--MD5=[eeb6b311009de51ded5dc009a45cafec]
reverse link QualityFlag to VesselUseFeatures--><g id="link_QualityFlag_VesselUseFeatures"><path codeLine="31" d="M381.3,81.232 C368.46,103.722 346.75,141.782 327.66,175.242 " fill="none" id="QualityFlag-backto-VesselUseFeatures" style="stroke:#181818;stroke-width:1.0;"/><polygon fill="#181818" points="383.9,76.682,375.9577,82.506,381.4162,81.0214,382.9008,86.48,383.9,76.682" style="stroke:#181818;stroke-width:1.0;"/><text fill="#000000" font-family="sans-serif" font-size="13" lengthAdjust="spacing" textLength="3" x="376.1019" y="98.392"> </text><text fill="#000000" font-family="sans-serif" font-size="13" lengthAdjust="spacing" textLength="7" x="374.1019" y="116.098">1</text></g></g></svg>