<?xml version="1.0" encoding="UTF-8" standalone="no"?><svg xmlns="http://www.w3.org/2000/svg" xmlns:xlink="http://www.w3.org/1999/xlink" contentStyleType="text/css" height="451px" preserveAspectRatio="none" style="width:712px;height:451px;background:#FFFFFF;" version="1.1" viewBox="0 0 712 451" width="712px" zoomAndPan="magnify"><defs/><g><!--MD5=[c7d41959cb4780d7032d711bf565fddf]
class VesselOwner--><g id="elem_VesselOwner"><rect codeLine="3" fill="#F1F1F1" height="326.0188" id="VesselOwner" rx="2.5" ry="2.5" style="stroke:#181818;stroke-width:0.5;" width="178" x="303" y="118"/><ellipse cx="344.55" cy="134" fill="#ADD1B2" rx="11" ry="11" style="stroke:#181818;stroke-width:1.0;"/><path d="M344.0188,140.9219 Q342.2688,140.9219 341.1281,140.1875 Q340.0031,139.4375 339.4406,138.0938 Q338.8938,136.7344 338.8938,134.9375 Q338.8938,132.9063 339.55,131.4531 Q340.2063,130 341.4875,129.2188 Q342.7688,128.4375 344.6438,128.4375 Q345.5344,128.4375 346.2063,128.625 Q346.8781,128.7969 347.5656,129.1406 L346.7531,131.1563 Q346.1281,130.8438 345.5813,130.7188 Q345.05,130.5938 344.5656,130.5938 Q343.3938,130.5938 342.6906,131.125 Q341.9875,131.6563 341.6906,132.6094 Q341.3938,133.5625 341.3938,134.8281 Q341.3938,136.8438 342.1125,137.8125 Q342.8313,138.7656 344.425,138.7656 Q345.0188,138.7656 345.6438,138.6094 Q346.2688,138.4531 347.0969,138.0781 L347.0969,140.2969 Q346.3625,140.6094 345.5656,140.7656 Q344.7844,140.9219 344.0188,140.9219 Z " fill="#000000"/><text fill="#000000" font-family="sans-serif" font-size="14" lengthAdjust="spacing" textLength="87" x="364.45" y="139.432">VesselOwner</text><line style="stroke:#181818;stroke-width:0.5;" x1="304" x2="480" y1="150" y2="150"/><text fill="#000000" font-family="sans-serif" font-size="14" lengthAdjust="spacing" textLength="75" x="309" y="168.9659">id : Integer</text><text fill="#000000" font-family="sans-serif" font-size="14" lengthAdjust="spacing" textLength="166" x="309" y="188.0339">registrationCode : String</text><text fill="#000000" font-family="sans-serif" font-size="14" lengthAdjust="spacing" textLength="117" x="309" y="207.1018">lastName : String</text><text fill="#000000" font-family="sans-serif" font-size="14" lengthAdjust="spacing" textLength="120" x="309" y="226.1697">firstName : String</text><text fill="#000000" font-family="sans-serif" font-size="14" lengthAdjust="spacing" textLength="92" x="309" y="245.2376">street : String</text><text fill="#000000" font-family="sans-serif" font-size="14" lengthAdjust="spacing" textLength="107" x="309" y="264.3055">zipCode : String</text><text fill="#000000" font-family="sans-serif" font-size="14" lengthAdjust="spacing" textLength="76" x="309" y="283.3734">city : String</text><text fill="#000000" font-family="sans-serif" font-size="14" lengthAdjust="spacing" textLength="122" x="309" y="302.4414">dateOfBirth : Date</text><text fill="#000000" font-family="sans-serif" font-size="14" lengthAdjust="spacing" textLength="146" x="309" y="321.5093">retirementDate : Date</text><text fill="#000000" font-family="sans-serif" font-size="14" lengthAdjust="spacing" textLength="153" x="309" y="340.5772">activityStartDate : Date</text><text fill="#000000" font-family="sans-serif" font-size="14" lengthAdjust="spacing" textLength="152" x="309" y="359.6451">phoneNumber : String</text><text fill="#000000" font-family="sans-serif" font-size="14" lengthAdjust="spacing" textLength="155" x="309" y="378.713">mobileNumber : String</text><text fill="#000000" font-family="sans-serif" font-size="14" lengthAdjust="spacing" textLength="129" x="309" y="397.7809">faxNumber : String</text><text fill="#000000" font-family="sans-serif" font-size="14" lengthAdjust="spacing" textLength="90" x="309" y="416.8489">email : String</text><text fill="#000000" font-family="sans-serif" font-size="14" lengthAdjust="spacing" textLength="122" x="309" y="435.9168">updateDate : Date</text></g><!--MD5=[4b986ba47601d0e54354c02a3da95036]
class VesselOwnerPeriod--><g id="elem_VesselOwnerPeriod"><rect codeLine="21" fill="#F1F1F1" height="78.1358" id="VesselOwnerPeriod" rx="2.5" ry="2.5" style="stroke:#181818;stroke-width:0.5;" width="162" x="7" y="242"/><ellipse cx="22" cy="258" fill="#ADD1B2" rx="11" ry="11" style="stroke:#181818;stroke-width:1.0;"/><path d="M21.4688,264.9219 Q19.7188,264.9219 18.5781,264.1875 Q17.4531,263.4375 16.8906,262.0938 Q16.3438,260.7344 16.3438,258.9375 Q16.3438,256.9063 17,255.4531 Q17.6563,254 18.9375,253.2188 Q20.2188,252.4375 22.0938,252.4375 Q22.9844,252.4375 23.6563,252.625 Q24.3281,252.7969 25.0156,253.1406 L24.2031,255.1563 Q23.5781,254.8438 23.0313,254.7188 Q22.5,254.5938 22.0156,254.5938 Q20.8438,254.5938 20.1406,255.125 Q19.4375,255.6563 19.1406,256.6094 Q18.8438,257.5625 18.8438,258.8281 Q18.8438,260.8438 19.5625,261.8125 Q20.2813,262.7656 21.875,262.7656 Q22.4688,262.7656 23.0938,262.6094 Q23.7188,262.4531 24.5469,262.0781 L24.5469,264.2969 Q23.8125,264.6094 23.0156,264.7656 Q22.2344,264.9219 21.4688,264.9219 Z " fill="#000000"/><text fill="#000000" font-family="sans-serif" font-size="14" lengthAdjust="spacing" textLength="130" x="36" y="263.432">VesselOwnerPeriod</text><line style="stroke:#181818;stroke-width:0.5;" x1="8" x2="168" y1="274" y2="274"/><text fill="#000000" font-family="sans-serif" font-size="14" lengthAdjust="spacing" textLength="105" x="13" y="292.9659">startDate : Date</text><text fill="#000000" font-family="sans-serif" font-size="14" lengthAdjust="spacing" textLength="138" x="13" y="312.0339">endDate : Date [0..1]</text></g><!--MD5=[ed239cddac1bd0ea702000b0a8aa8225]
class Vessel--><g id="elem_Vessel"><rect fill="#F1F1F1" height="32" id="Vessel" rx="2.5" ry="2.5" style="stroke:#181818;stroke-width:0.5;" width="74" x="51" y="7"/><ellipse cx="66" cy="23" fill="#ADD1B2" rx="11" ry="11" style="stroke:#181818;stroke-width:1.0;"/><path d="M65.4688,29.9219 Q63.7188,29.9219 62.5781,29.1875 Q61.4531,28.4375 60.8906,27.0938 Q60.3438,25.7344 60.3438,23.9375 Q60.3438,21.9063 61,20.4531 Q61.6563,19 62.9375,18.2188 Q64.2188,17.4375 66.0938,17.4375 Q66.9844,17.4375 67.6563,17.625 Q68.3281,17.7969 69.0156,18.1406 L68.2031,20.1563 Q67.5781,19.8438 67.0313,19.7188 Q66.5,19.5938 66.0156,19.5938 Q64.8438,19.5938 64.1406,20.125 Q63.4375,20.6563 63.1406,21.6094 Q62.8438,22.5625 62.8438,23.8281 Q62.8438,25.8438 63.5625,26.8125 Q64.2813,27.7656 65.875,27.7656 Q66.4688,27.7656 67.0938,27.6094 Q67.7188,27.4531 68.5469,27.0781 L68.5469,29.2969 Q67.8125,29.6094 67.0156,29.7656 Q66.2344,29.9219 65.4688,29.9219 Z " fill="#000000"/><text fill="#000000" font-family="sans-serif" font-size="14" lengthAdjust="spacing" textLength="42" x="80" y="28.432">Vessel</text></g><!--MD5=[4f1f3706c1a355a8488e154afcaed5df]
class Location--><g id="elem_Location"><rect fill="#F1F1F1" height="32" id="Location" rx="2.5" ry="2.5" style="stroke:#181818;stroke-width:0.5;" width="88" x="617" y="265"/><ellipse cx="632" cy="281" fill="#ADD1B2" rx="11" ry="11" style="stroke:#181818;stroke-width:1.0;"/><path d="M631.4688,287.9219 Q629.7188,287.9219 628.5781,287.1875 Q627.4531,286.4375 626.8906,285.0938 Q626.3438,283.7344 626.3438,281.9375 Q626.3438,279.9063 627,278.4531 Q627.6563,277 628.9375,276.2188 Q630.2188,275.4375 632.0938,275.4375 Q632.9844,275.4375 633.6563,275.625 Q634.3281,275.7969 635.0156,276.1406 L634.2031,278.1563 Q633.5781,277.8438 633.0313,277.7188 Q632.5,277.5938 632.0156,277.5938 Q630.8438,277.5938 630.1406,278.125 Q629.4375,278.6563 629.1406,279.6094 Q628.8438,280.5625 628.8438,281.8281 Q628.8438,283.8438 629.5625,284.8125 Q630.2813,285.7656 631.875,285.7656 Q632.4688,285.7656 633.0938,285.6094 Q633.7188,285.4531 634.5469,285.0781 L634.5469,287.2969 Q633.8125,287.6094 633.0156,287.7656 Q632.2344,287.9219 631.4688,287.9219 Z " fill="#000000"/><text fill="#000000" font-family="sans-serif" font-size="14" lengthAdjust="spacing" textLength="56" x="646" y="286.432">Location</text></g><!--MD5=[175f95e045c1a44aed0b30df3abe0e5c]
class Program--><g id="elem_Program"><rect fill="#F1F1F1" height="32" id="Program" rx="2.5" ry="2.5" style="stroke:#181818;stroke-width:0.5;" width="90" x="347" y="7"/><ellipse cx="362" cy="23" fill="#ADD1B2" rx="11" ry="11" style="stroke:#181818;stroke-width:1.0;"/><path d="M361.4688,29.9219 Q359.7188,29.9219 358.5781,29.1875 Q357.4531,28.4375 356.8906,27.0938 Q356.3438,25.7344 356.3438,23.9375 Q356.3438,21.9063 357,20.4531 Q357.6563,19 358.9375,18.2188 Q360.2188,17.4375 362.0938,17.4375 Q362.9844,17.4375 363.6563,17.625 Q364.3281,17.7969 365.0156,18.1406 L364.2031,20.1563 Q363.5781,19.8438 363.0313,19.7188 Q362.5,19.5938 362.0156,19.5938 Q360.8438,19.5938 360.1406,20.125 Q359.4375,20.6563 359.1406,21.6094 Q358.8438,22.5625 358.8438,23.8281 Q358.8438,25.8438 359.5625,26.8125 Q360.2813,27.7656 361.875,27.7656 Q362.4688,27.7656 363.0938,27.6094 Q363.7188,27.4531 364.5469,27.0781 L364.5469,29.2969 Q363.8125,29.6094 363.0156,29.7656 Q362.2344,29.9219 361.4688,29.9219 Z " fill="#000000"/><text fill="#000000" font-family="sans-serif" font-size="14" lengthAdjust="spacing" textLength="58" x="376" y="28.432">Program</text></g><!--MD5=[986efd12e506e0d8157bfc2c447518bc]
reverse link Vessel to VesselOwnerPeriod--><g id="link_Vessel_VesselOwnerPeriod"><path codeLine="26" d="M88,44.41 C88,87.12 88,186.52 88,241.57 " fill="none" id="Vessel-backto-VesselOwnerPeriod" style="stroke:#181818;stroke-width:1.0;"/><polygon fill="#181818" points="88,39.25,84,48.25,88,44.25,92,48.25,88,39.25" style="stroke:#181818;stroke-width:1.0;"/><text fill="#000000" font-family="sans-serif" font-size="13" lengthAdjust="spacing" textLength="36" x="89" y="83.897">vessel</text><text fill="#000000" font-family="sans-serif" font-size="13" lengthAdjust="spacing" textLength="7" x="79.9281" y="60.8348">1</text><text fill="#000000" font-family="sans-serif" font-size="13" lengthAdjust="spacing" textLength="20" x="66.2813" y="230.278">0..*</text></g><!--MD5=[d4c049a2de9ac02feba61ee60738f878]
link VesselOwnerPeriod to VesselOwner--><g id="link_VesselOwnerPeriod_VesselOwner"><path codeLine="27" d="M169.07,281 C208.62,281 256.44,281 297.63,281 " fill="none" id="VesselOwnerPeriod-to-VesselOwner" style="stroke:#181818;stroke-width:1.0;"/><polygon fill="#181818" points="302.87,281,293.87,277,297.87,281,293.87,285,302.87,281" style="stroke:#181818;stroke-width:1.0;"/><text fill="#000000" font-family="sans-serif" font-size="13" lengthAdjust="spacing" textLength="76" x="199.5" y="273.897">vesselOwner</text><text fill="#000000" font-family="sans-serif" font-size="13" lengthAdjust="spacing" textLength="20" x="176.8963" y="295.652">0..*</text><text fill="#000000" font-family="sans-serif" font-size="13" lengthAdjust="spacing" textLength="7" x="287.9096" y="277.1961">1</text></g><!--MD5=[e15de1489571659991aa79e26dddeb96]
link VesselOwner to Location--><g id="link_VesselOwner_Location"><path codeLine="29" d="M481.2,281 C524.64,281 575.21,281 611.64,281 " fill="none" id="VesselOwner-to-Location" style="stroke:#181818;stroke-width:1.0;"/><polygon fill="#181818" points="616.91,281,607.91,277,611.91,281,607.91,285,616.91,281" style="stroke:#181818;stroke-width:1.0;"/><text fill="#000000" font-family="sans-serif" font-size="13" lengthAdjust="spacing" textLength="99" x="499.5" y="273.897">countryLocation</text><text fill="#000000" font-family="sans-serif" font-size="13" lengthAdjust="spacing" textLength="20" x="489.105" y="295.6017">0..*</text><text fill="#000000" font-family="sans-serif" font-size="13" lengthAdjust="spacing" textLength="20" x="588.9655" y="296.1973">0..1</text></g><!--MD5=[a165af11de545715b8f54fe07c013339]
reverse link Program to VesselOwner--><g id="link_Program_VesselOwner"><path codeLine="30" d="M392,44.33 C392,61.72 392,88.55 392,117.96 " fill="none" id="Program-backto-VesselOwner" style="stroke:#181818;stroke-width:1.0;"/><polygon fill="#181818" points="392,39.25,388,48.25,392,44.25,396,48.25,392,39.25" style="stroke:#181818;stroke-width:1.0;"/><text fill="#000000" font-family="sans-serif" font-size="13" lengthAdjust="spacing" textLength="53" x="393" y="83.897">program</text><text fill="#000000" font-family="sans-serif" font-size="13" lengthAdjust="spacing" textLength="7" x="383.9281" y="60.8348">1</text><text fill="#000000" font-family="sans-serif" font-size="13" lengthAdjust="spacing" textLength="20" x="371.4844" y="106.0297">0..*</text></g></g></svg>