<?xml version="1.0" encoding="us-ascii" standalone="no"?><svg xmlns="http://www.w3.org/2000/svg" xmlns:xlink="http://www.w3.org/1999/xlink" contentStyleType="text/css" height="428px" preserveAspectRatio="none" style="width:689px;height:428px;background:#FFFFFF;" version="1.1" viewBox="0 0 689 428" width="689px" zoomAndPan="magnify"><defs/><g><!--class VesselOwner--><g id="elem_VesselOwner"><rect codeLine="3" fill="#F1F1F1" height="304.1406" id="VesselOwner" rx="2.5" ry="2.5" style="stroke:#181818;stroke-width:0.5;" width="166" x="301" y="117"/><ellipse cx="338.95" cy="133" fill="#ADD1B2" rx="11" ry="11" style="stroke:#181818;stroke-width:1.0;"/><path d="M341.7156,128.875 Q341.8719,128.6563 342.0594,128.5469 Q342.2469,128.4375 342.4656,128.4375 Q342.8406,128.4375 343.075,128.6953 Q343.3094,128.9531 343.3094,129.5625 L343.3094,131.0156 Q343.3094,131.625 343.075,131.8906 Q342.8406,132.1563 342.4656,132.1563 Q342.1219,132.1563 341.9188,131.9531 Q341.7156,131.7656 341.6063,131.25 Q341.5594,130.8906 341.3719,130.7031 Q341.0438,130.3281 340.4344,130.1094 Q339.825,129.8906 339.2,129.8906 Q338.4344,129.8906 337.8016,130.2188 Q337.1688,130.5469 336.6766,131.2969 Q336.1844,132.0469 336.1844,133.0781 L336.1844,134.1719 Q336.1844,135.4063 337.075,136.2266 Q337.9656,137.0469 339.5594,137.0469 Q340.4969,137.0469 341.1531,136.7969 Q341.5438,136.6406 341.9656,136.2031 Q342.2313,135.9375 342.3797,135.8594 Q342.5281,135.7813 342.7313,135.7813 Q343.0594,135.7813 343.3172,136.0391 Q343.575,136.2969 343.575,136.6406 Q343.575,136.9844 343.2313,137.3906 Q342.7313,137.9688 341.9344,138.2969 Q340.8563,138.75 339.5594,138.75 Q338.0438,138.75 336.8406,138.125 Q335.8563,137.625 335.1688,136.5547 Q334.4813,135.4844 334.4813,134.2031 L334.4813,133.0469 Q334.4813,131.7188 335.0984,130.5703 Q335.7156,129.4219 336.8094,128.8047 Q337.9031,128.1875 339.1375,128.1875 Q339.8719,128.1875 340.5203,128.3516 Q341.1688,128.5156 341.7156,128.875 Z " fill="#000000"/><text fill="#000000" font-family="sans-serif" font-size="14" lengthAdjust="spacing" textLength="83" x="358.05" y="138.7285">VesselOwner</text><line style="stroke:#181818;stroke-width:0.5;" x1="302" x2="466" y1="149" y2="149"/><text fill="#000000" font-family="sans-serif" font-size="14" lengthAdjust="spacing" textLength="67" x="307" y="167.5332">id : Integer</text><text fill="#000000" font-family="sans-serif" font-size="14" lengthAdjust="spacing" textLength="154" x="307" y="185.1426">registrationCode : String</text><text fill="#000000" font-family="sans-serif" font-size="14" lengthAdjust="spacing" textLength="107" x="307" y="202.752">lastName : String</text><text fill="#000000" font-family="sans-serif" font-size="14" lengthAdjust="spacing" textLength="108" x="307" y="220.3613">firstName : String</text><text fill="#000000" font-family="sans-serif" font-size="14" lengthAdjust="spacing" textLength="85" x="307" y="237.9707">street : String</text><text fill="#000000" font-family="sans-serif" font-size="14" lengthAdjust="spacing" textLength="100" x="307" y="255.5801">zipCode : String</text><text fill="#000000" font-family="sans-serif" font-size="14" lengthAdjust="spacing" textLength="70" x="307" y="273.1895">city : String</text><text fill="#000000" font-family="sans-serif" font-size="14" lengthAdjust="spacing" textLength="114" x="307" y="290.7988">dateOfBirth : Date</text><text fill="#000000" font-family="sans-serif" font-size="14" lengthAdjust="spacing" textLength="136" x="307" y="308.4082">retirementDate : Date</text><text fill="#000000" font-family="sans-serif" font-size="14" lengthAdjust="spacing" textLength="145" x="307" y="326.0176">activityStartDate : Date</text><text fill="#000000" font-family="sans-serif" font-size="14" lengthAdjust="spacing" textLength="138" x="307" y="343.627">phoneNumber : String</text><text fill="#000000" font-family="sans-serif" font-size="14" lengthAdjust="spacing" textLength="139" x="307" y="361.2363">mobileNumber : String</text><text fill="#000000" font-family="sans-serif" font-size="14" lengthAdjust="spacing" textLength="116" x="307" y="378.8457">faxNumber : String</text><text fill="#000000" font-family="sans-serif" font-size="14" lengthAdjust="spacing" textLength="82" x="307" y="396.4551">email : String</text><text fill="#000000" font-family="sans-serif" font-size="14" lengthAdjust="spacing" textLength="116" x="307" y="414.0645">updateDate : Date</text></g><!--class VesselOwnerPeriod--><g id="elem_VesselOwnerPeriod"><rect codeLine="21" fill="#F1F1F1" height="75.2188" id="VesselOwnerPeriod" rx="2.5" ry="2.5" style="stroke:#181818;stroke-width:0.5;" width="156" x="7" y="231.5"/><ellipse cx="22" cy="247.5" fill="#ADD1B2" rx="11" ry="11" style="stroke:#181818;stroke-width:1.0;"/><path d="M24.7656,243.375 Q24.9219,243.1563 25.1094,243.0469 Q25.2969,242.9375 25.5156,242.9375 Q25.8906,242.9375 26.125,243.1953 Q26.3594,243.4531 26.3594,244.0625 L26.3594,245.5156 Q26.3594,246.125 26.125,246.3906 Q25.8906,246.6563 25.5156,246.6563 Q25.1719,246.6563 24.9688,246.4531 Q24.7656,246.2656 24.6563,245.75 Q24.6094,245.3906 24.4219,245.2031 Q24.0938,244.8281 23.4844,244.6094 Q22.875,244.3906 22.25,244.3906 Q21.4844,244.3906 20.8516,244.7188 Q20.2188,245.0469 19.7266,245.7969 Q19.2344,246.5469 19.2344,247.5781 L19.2344,248.6719 Q19.2344,249.9063 20.125,250.7266 Q21.0156,251.5469 22.6094,251.5469 Q23.5469,251.5469 24.2031,251.2969 Q24.5938,251.1406 25.0156,250.7031 Q25.2813,250.4375 25.4297,250.3594 Q25.5781,250.2813 25.7813,250.2813 Q26.1094,250.2813 26.3672,250.5391 Q26.625,250.7969 26.625,251.1406 Q26.625,251.4844 26.2813,251.8906 Q25.7813,252.4688 24.9844,252.7969 Q23.9063,253.25 22.6094,253.25 Q21.0938,253.25 19.8906,252.625 Q18.9063,252.125 18.2188,251.0547 Q17.5313,249.9844 17.5313,248.7031 L17.5313,247.5469 Q17.5313,246.2188 18.1484,245.0703 Q18.7656,243.9219 19.8594,243.3047 Q20.9531,242.6875 22.1875,242.6875 Q22.9219,242.6875 23.5703,242.8516 Q24.2188,243.0156 24.7656,243.375 Z " fill="#000000"/><text fill="#000000" font-family="sans-serif" font-size="14" lengthAdjust="spacing" textLength="124" x="36" y="253.2285">VesselOwnerPeriod</text><line style="stroke:#181818;stroke-width:0.5;" x1="8" x2="162" y1="263.5" y2="263.5"/><text fill="#000000" font-family="sans-serif" font-size="14" lengthAdjust="spacing" textLength="100" x="13" y="282.0332">startDate : Date</text><text fill="#000000" font-family="sans-serif" font-size="14" lengthAdjust="spacing" textLength="132" x="13" y="299.6426">endDate : Date [0..1]</text></g><!--class Vessel--><g id="elem_Vessel"><rect fill="#F1F1F1" height="32" id="Vessel" rx="2.5" ry="2.5" style="stroke:#181818;stroke-width:0.5;" width="74" x="48" y="7"/><ellipse cx="63" cy="23" fill="#ADD1B2" rx="11" ry="11" style="stroke:#181818;stroke-width:1.0;"/><path d="M65.7656,18.875 Q65.9219,18.6563 66.1094,18.5469 Q66.2969,18.4375 66.5156,18.4375 Q66.8906,18.4375 67.125,18.6953 Q67.3594,18.9531 67.3594,19.5625 L67.3594,21.0156 Q67.3594,21.625 67.125,21.8906 Q66.8906,22.1563 66.5156,22.1563 Q66.1719,22.1563 65.9688,21.9531 Q65.7656,21.7656 65.6563,21.25 Q65.6094,20.8906 65.4219,20.7031 Q65.0938,20.3281 64.4844,20.1094 Q63.875,19.8906 63.25,19.8906 Q62.4844,19.8906 61.8516,20.2188 Q61.2188,20.5469 60.7266,21.2969 Q60.2344,22.0469 60.2344,23.0781 L60.2344,24.1719 Q60.2344,25.4063 61.125,26.2266 Q62.0156,27.0469 63.6094,27.0469 Q64.5469,27.0469 65.2031,26.7969 Q65.5938,26.6406 66.0156,26.2031 Q66.2813,25.9375 66.4297,25.8594 Q66.5781,25.7813 66.7813,25.7813 Q67.1094,25.7813 67.3672,26.0391 Q67.625,26.2969 67.625,26.6406 Q67.625,26.9844 67.2813,27.3906 Q66.7813,27.9688 65.9844,28.2969 Q64.9063,28.75 63.6094,28.75 Q62.0938,28.75 60.8906,28.125 Q59.9063,27.625 59.2188,26.5547 Q58.5313,25.4844 58.5313,24.2031 L58.5313,23.0469 Q58.5313,21.7188 59.1484,20.5703 Q59.7656,19.4219 60.8594,18.8047 Q61.9531,18.1875 63.1875,18.1875 Q63.9219,18.1875 64.5703,18.3516 Q65.2188,18.5156 65.7656,18.875 Z " fill="#000000"/><text fill="#000000" font-family="sans-serif" font-size="14" lengthAdjust="spacing" textLength="42" x="77" y="28.7285">Vessel</text></g><!--class Location--><g id="elem_Location"><rect fill="#F1F1F1" height="32" id="Location" rx="2.5" ry="2.5" style="stroke:#181818;stroke-width:0.5;" width="86" x="596" y="253"/><ellipse cx="611" cy="269" fill="#ADD1B2" rx="11" ry="11" style="stroke:#181818;stroke-width:1.0;"/><path d="M613.7656,264.875 Q613.9219,264.6563 614.1094,264.5469 Q614.2969,264.4375 614.5156,264.4375 Q614.8906,264.4375 615.125,264.6953 Q615.3594,264.9531 615.3594,265.5625 L615.3594,267.0156 Q615.3594,267.625 615.125,267.8906 Q614.8906,268.1563 614.5156,268.1563 Q614.1719,268.1563 613.9688,267.9531 Q613.7656,267.7656 613.6563,267.25 Q613.6094,266.8906 613.4219,266.7031 Q613.0938,266.3281 612.4844,266.1094 Q611.875,265.8906 611.25,265.8906 Q610.4844,265.8906 609.8516,266.2188 Q609.2188,266.5469 608.7266,267.2969 Q608.2344,268.0469 608.2344,269.0781 L608.2344,270.1719 Q608.2344,271.4063 609.125,272.2266 Q610.0156,273.0469 611.6094,273.0469 Q612.5469,273.0469 613.2031,272.7969 Q613.5938,272.6406 614.0156,272.2031 Q614.2813,271.9375 614.4297,271.8594 Q614.5781,271.7813 614.7813,271.7813 Q615.1094,271.7813 615.3672,272.0391 Q615.625,272.2969 615.625,272.6406 Q615.625,272.9844 615.2813,273.3906 Q614.7813,273.9688 613.9844,274.2969 Q612.9063,274.75 611.6094,274.75 Q610.0938,274.75 608.8906,274.125 Q607.9063,273.625 607.2188,272.5547 Q606.5313,271.4844 606.5313,270.2031 L606.5313,269.0469 Q606.5313,267.7188 607.1484,266.5703 Q607.7656,265.4219 608.8594,264.8047 Q609.9531,264.1875 611.1875,264.1875 Q611.9219,264.1875 612.5703,264.3516 Q613.2188,264.5156 613.7656,264.875 Z " fill="#000000"/><text fill="#000000" font-family="sans-serif" font-size="14" lengthAdjust="spacing" textLength="54" x="625" y="274.7285">Location</text></g><!--class Program--><g id="elem_Program"><rect fill="#F1F1F1" height="32" id="Program" rx="2.5" ry="2.5" style="stroke:#181818;stroke-width:0.5;" width="86" x="341" y="7"/><ellipse cx="356" cy="23" fill="#ADD1B2" rx="11" ry="11" style="stroke:#181818;stroke-width:1.0;"/><path d="M358.7656,18.875 Q358.9219,18.6563 359.1094,18.5469 Q359.2969,18.4375 359.5156,18.4375 Q359.8906,18.4375 360.125,18.6953 Q360.3594,18.9531 360.3594,19.5625 L360.3594,21.0156 Q360.3594,21.625 360.125,21.8906 Q359.8906,22.1563 359.5156,22.1563 Q359.1719,22.1563 358.9688,21.9531 Q358.7656,21.7656 358.6563,21.25 Q358.6094,20.8906 358.4219,20.7031 Q358.0938,20.3281 357.4844,20.1094 Q356.875,19.8906 356.25,19.8906 Q355.4844,19.8906 354.8516,20.2188 Q354.2188,20.5469 353.7266,21.2969 Q353.2344,22.0469 353.2344,23.0781 L353.2344,24.1719 Q353.2344,25.4063 354.125,26.2266 Q355.0156,27.0469 356.6094,27.0469 Q357.5469,27.0469 358.2031,26.7969 Q358.5938,26.6406 359.0156,26.2031 Q359.2813,25.9375 359.4297,25.8594 Q359.5781,25.7813 359.7813,25.7813 Q360.1094,25.7813 360.3672,26.0391 Q360.625,26.2969 360.625,26.6406 Q360.625,26.9844 360.2813,27.3906 Q359.7813,27.9688 358.9844,28.2969 Q357.9063,28.75 356.6094,28.75 Q355.0938,28.75 353.8906,28.125 Q352.9063,27.625 352.2188,26.5547 Q351.5313,25.4844 351.5313,24.2031 L351.5313,23.0469 Q351.5313,21.7188 352.1484,20.5703 Q352.7656,19.4219 353.8594,18.8047 Q354.9531,18.1875 356.1875,18.1875 Q356.9219,18.1875 357.5703,18.3516 Q358.2188,18.5156 358.7656,18.875 Z " fill="#000000"/><text fill="#000000" font-family="sans-serif" font-size="14" lengthAdjust="spacing" textLength="54" x="370" y="28.7285">Program</text></g><!--reverse link Vessel to VesselOwnerPeriod--><g id="link_Vessel_VesselOwnerPeriod"><path codeLine="26" d="M85,45.26 C85,83.24 85,176.83 85,231.23 " fill="none" id="Vessel-backto-VesselOwnerPeriod" style="stroke:#181818;stroke-width:1.0;"/><polygon fill="#181818" points="85,39.26,81,48.26,85,44.26,89,48.26,85,39.26" style="stroke:#181818;stroke-width:1.0;"/><text fill="#000000" font-family="sans-serif" font-size="13" lengthAdjust="spacing" textLength="36" x="86" y="83.4951">vessel</text><text fill="#000000" font-family="sans-serif" font-size="13" lengthAdjust="spacing" textLength="7" x="76.8844" y="60.544">1</text><text fill="#000000" font-family="sans-serif" font-size="13" lengthAdjust="spacing" textLength="20" x="63.2188" y="220.5842">0..*</text></g><!--link VesselOwnerPeriod to VesselOwner--><g id="link_VesselOwnerPeriod_VesselOwner"><path codeLine="27" d="M163.17,269 C205.47,269 251.73,269 294.79,269 " fill="none" id="VesselOwnerPeriod-to-VesselOwner" style="stroke:#181818;stroke-width:1.0;"/><polygon fill="#181818" points="300.79,269,291.79,265,295.79,269,291.79,273,300.79,269" style="stroke:#181818;stroke-width:1.0;"/><text fill="#000000" font-family="sans-serif" font-size="13" lengthAdjust="spacing" textLength="73" x="197.5" y="262.4951">vesselOwner</text><text fill="#000000" font-family="sans-serif" font-size="13" lengthAdjust="spacing" textLength="20" x="171.0226" y="283.2135">0..*</text><text fill="#000000" font-family="sans-serif" font-size="13" lengthAdjust="spacing" textLength="7" x="286.0674" y="265.792">1</text></g><!--link VesselOwner to Location--><g id="link_VesselOwner_Location"><path codeLine="29" d="M467.14,269 C510.02,269 554.54,269 589.66,269 " fill="none" id="VesselOwner-to-Location" style="stroke:#181818;stroke-width:1.0;"/><polygon fill="#181818" points="595.66,269,586.66,265,590.66,269,586.66,273,595.66,269" style="stroke:#181818;stroke-width:1.0;"/><text fill="#000000" font-family="sans-serif" font-size="13" lengthAdjust="spacing" textLength="92" x="485.5" y="262.4951">countryLocation</text><text fill="#000000" font-family="sans-serif" font-size="13" lengthAdjust="spacing" textLength="20" x="475.1442" y="283.1917">0..*</text><text fill="#000000" font-family="sans-serif" font-size="13" lengthAdjust="spacing" textLength="22" x="566.0184" y="283.6448">0..1</text></g><!--reverse link Program to VesselOwner--><g id="link_Program_VesselOwner"><path codeLine="30" d="M384,45.26 C384,62.11 384,85.09 384,116.87 " fill="none" id="Program-backto-VesselOwner" style="stroke:#181818;stroke-width:1.0;"/><polygon fill="#181818" points="384,39.26,380,48.26,384,44.26,388,48.26,384,39.26" style="stroke:#181818;stroke-width:1.0;"/><text fill="#000000" font-family="sans-serif" font-size="13" lengthAdjust="spacing" textLength="47" x="385" y="83.4951">program</text><text fill="#000000" font-family="sans-serif" font-size="13" lengthAdjust="spacing" textLength="7" x="375.8844" y="60.544">1</text><text fill="#000000" font-family="sans-serif" font-size="13" lengthAdjust="spacing" textLength="20" x="363.4844" y="106.1139">0..*</text></g></g></svg>