<?xml version="1.0" encoding="UTF-8" standalone="no"?><svg xmlns="http://www.w3.org/2000/svg" xmlns:xlink="http://www.w3.org/1999/xlink" contentStyleType="text/css" height="315px" preserveAspectRatio="none" style="width:568px;height:315px;background:#FFFFFF;" version="1.1" viewBox="0 0 568 315" width="568px" zoomAndPan="magnify"><defs/><g><text fill="#000000" font-family="sans-serif" font-size="12" lengthAdjust="spacing" textLength="34" x="8" y="18.457">Marée</text><line style="stroke:#000000;stroke-width:1.0;" x1="6" x2="6" y1="6" y2="21.0938"/><line style="stroke:#000000;stroke-width:1.0;" x1="6" x2="45" y1="6" y2="6"/><line style="stroke:#000000;stroke-width:1.0;" x1="45" x2="45" y1="6" y2="21.0938"/><line style="stroke:#000000;stroke-width:1.0;" x1="45" x2="55" y1="21.0938" y2="21.0938"/><text fill="#000000" font-family="sans-serif" font-size="12" font-weight="bold" lengthAdjust="spacing" textLength="39" x="60" y="18.457">Détails</text><line style="stroke:#000000;stroke-width:1.0;" x1="55" x2="55" y1="6" y2="21.0938"/><line style="stroke:#000000;stroke-width:1.0;" x1="55" x2="102" y1="6" y2="6"/><line style="stroke:#000000;stroke-width:1.0;" x1="102" x2="102" y1="6" y2="21.0938"/><line style="stroke:#000000;stroke-width:1.0;" x1="102" x2="112" y1="21.0938" y2="21.0938"/><text fill="#000000" font-family="sans-serif" font-size="12" lengthAdjust="spacing" textLength="61" x="114" y="18.457">Opérations</text><line style="stroke:#000000;stroke-width:1.0;" x1="112" x2="112" y1="6" y2="21.0938"/><line style="stroke:#000000;stroke-width:1.0;" x1="112" x2="178" y1="6" y2="6"/><line style="stroke:#000000;stroke-width:1.0;" x1="178" x2="178" y1="6" y2="21.0938"/><line style="stroke:#000000;stroke-width:1.0;" x1="178" x2="188" y1="21.0938" y2="21.0938"/><line style="stroke:#AAAAAA;stroke-width:1.0;stroke-dasharray:1.0,2.0;" x1="6" x2="561" y1="26.5938" y2="26.5938"/><text fill="#000000" font-family="sans-serif" font-size="12" font-weight="bold" lengthAdjust="spacing" textLength="37" x="7" y="44.5508">Engin :</text><text fill="#000000" font-family="sans-serif" font-size="12" lengthAdjust="spacing" textLength="188" x="46" y="44.5508">GNC - Filets maillants encerclants</text><text fill="#000000" font-family="sans-serif" font-size="12" font-weight="bold" lengthAdjust="spacing" textLength="101" x="6" y="79.7383">Caractéristiques :</text><text fill="#000000" font-family="sans-serif" font-size="12" lengthAdjust="spacing" textLength="89" x="12" y="97.832">Hauteur du filet :</text><text fill="#000000" font-family="sans-serif" font-size="12" lengthAdjust="spacing" textLength="3" x="267" y="97.832"> </text><line style="stroke:#000000;stroke-width:1.0;" x1="265" x2="332" y1="100.4688" y2="100.4688"/><line style="stroke:#000000;stroke-width:1.0;" x1="265" x2="265" y1="97.4688" y2="99.4688"/><line style="stroke:#000000;stroke-width:1.0;" x1="332" x2="332" y1="97.4688" y2="99.4688"/><text fill="#000000" font-family="sans-serif" font-size="12" lengthAdjust="spacing" textLength="19" x="362" y="97.832">(m)</text><text fill="#000000" font-family="sans-serif" font-size="12" lengthAdjust="spacing" textLength="96" x="12" y="116.9258">Longueur levée* :</text><text fill="#000000" font-family="sans-serif" font-size="12" lengthAdjust="spacing" textLength="3" x="267" y="116.9258"> </text><line style="stroke:#000000;stroke-width:1.0;" x1="265" x2="332" y1="119.5625" y2="119.5625"/><line style="stroke:#000000;stroke-width:1.0;" x1="265" x2="265" y1="116.5625" y2="118.5625"/><line style="stroke:#000000;stroke-width:1.0;" x1="332" x2="332" y1="116.5625" y2="118.5625"/><text fill="#000000" font-family="sans-serif" font-size="12" lengthAdjust="spacing" textLength="19" x="362" y="116.9258">(m)</text><text fill="#000000" font-family="sans-serif" font-size="12" lengthAdjust="spacing" textLength="170" x="12" y="136.0195">Plus petit maillage à la jauge* :</text><text fill="#000000" font-family="sans-serif" font-size="12" lengthAdjust="spacing" textLength="3" x="267" y="136.0195"> </text><line style="stroke:#000000;stroke-width:1.0;" x1="265" x2="332" y1="138.6563" y2="138.6563"/><line style="stroke:#000000;stroke-width:1.0;" x1="265" x2="265" y1="135.6563" y2="137.6563"/><line style="stroke:#000000;stroke-width:1.0;" x1="332" x2="332" y1="135.6563" y2="137.6563"/><text fill="#000000" font-family="sans-serif" font-size="12" lengthAdjust="spacing" textLength="30" x="362" y="136.0195">(mm)</text><text fill="#000000" font-family="sans-serif" font-size="12" lengthAdjust="spacing" textLength="228" x="12" y="155.1133">Plus grand maillage à la jauge (trémail)* :</text><text fill="#000000" font-family="sans-serif" font-size="12" lengthAdjust="spacing" textLength="3" x="267" y="155.1133"> </text><line style="stroke:#000000;stroke-width:1.0;" x1="265" x2="332" y1="157.75" y2="157.75"/><line style="stroke:#000000;stroke-width:1.0;" x1="265" x2="265" y1="154.75" y2="156.75"/><line style="stroke:#000000;stroke-width:1.0;" x1="332" x2="332" y1="154.75" y2="156.75"/><text fill="#000000" font-family="sans-serif" font-size="12" lengthAdjust="spacing" textLength="30" x="362" y="155.1133">(mm)</text><text fill="#000000" font-family="sans-serif" font-size="12" lengthAdjust="spacing" textLength="123" x="12" y="174.207">Type de fil majoritaire :</text><rect fill="#EEEEEE" height="18.0938" style="stroke:#000000;stroke-width:1.0;" width="47" x="264" y="161.75"/><text fill="#000000" font-family="sans-serif" font-size="12" lengthAdjust="spacing" textLength="32" x="266" y="176.207">mono</text><line style="stroke:#000000;stroke-width:1.0;" x1="300" x2="300" y1="161.75" y2="179.8438"/><polygon fill="#000000" points="303,167.75,309,167.75,306,174.8438" style="stroke:#000000;stroke-width:1.0;"/><text fill="#000000" font-family="sans-serif" font-size="12" lengthAdjust="spacing" textLength="131" x="12" y="195.3008">Dispositifs de répulsif* :</text><rect fill="#EEEEEE" height="18.0938" style="stroke:#000000;stroke-width:1.0;" width="95" x="264" y="182.8438"/><text fill="#000000" font-family="sans-serif" font-size="12" lengthAdjust="spacing" textLength="54" x="266" y="197.3008">Pas d'info</text><line style="stroke:#000000;stroke-width:1.0;" x1="348" x2="348" y1="182.8438" y2="200.9375"/><polygon fill="#000000" points="351,188.8438,357,188.8438,354,195.9375" style="stroke:#000000;stroke-width:1.0;"/><text fill="#000000" font-family="sans-serif" font-size="12" lengthAdjust="spacing" textLength="250" x="12" y="216.3945">+ Autres caractéristiques (cf "Grille de saisie")</text><text fill="#000000" font-family="sans-serif" font-size="12" font-weight="bold" lengthAdjust="spacing" textLength="83" x="7" y="252.582">Commentaire :</text><text fill="#000000" font-family="sans-serif" font-size="12" lengthAdjust="spacing" textLength="3" x="11" y="270.6758"> </text><line style="stroke:#000000;stroke-width:1.0;" x1="9" x2="556" y1="273.3125" y2="273.3125"/><line style="stroke:#000000;stroke-width:1.0;" x1="9" x2="9" y1="270.3125" y2="272.3125"/><line style="stroke:#000000;stroke-width:1.0;" x1="556" x2="556" y1="270.3125" y2="272.3125"/><line style="stroke:#AAAAAA;stroke-width:1.0;" x1="6" x2="561" y1="282.8125" y2="282.8125"/><rect fill="#EEEEEE" height="19.0938" rx="5" ry="5" style="stroke:#000000;stroke-width:2.5;" width="60" x="9.5" y="290.8125"/><text fill="#000000" font-family="sans-serif" font-size="12" lengthAdjust="spacing" textLength="42" x="18.5" y="305.2695">Annuler</text><rect fill="#EEEEEE" height="19.0938" rx="5" ry="5" style="stroke:#000000;stroke-width:2.5;" width="92" x="76.5" y="290.8125"/><text fill="#000000" font-family="sans-serif" font-size="12" lengthAdjust="spacing" textLength="70" x="87.5" y="305.2695">Sauvegarder</text></g></svg>