<?xml version="1.0" encoding="UTF-8" standalone="no"?><svg xmlns="http://www.w3.org/2000/svg" xmlns:xlink="http://www.w3.org/1999/xlink" contentStyleType="text/css" height="364px" preserveAspectRatio="none" style="width:568px;height:364px;background:#FFFFFF;" version="1.1" viewBox="0 0 568 364" width="568px" zoomAndPan="magnify"><defs><filter height="1" id="b1ccgszs77e2sp0" width="1" x="0" y="0"><feFlood flood-color="#FF0000" result="flood"/><feComposite in="SourceGraphic" in2="flood" operator="over"/></filter></defs><g><text fill="#000000" font-family="sans-serif" font-size="12" lengthAdjust="spacing" textLength="37" x="8" y="18.8281">Marée</text><line style="stroke:#000000;stroke-width:1.0;" x1="6" x2="6" y1="6" y2="22.3441"/><line style="stroke:#000000;stroke-width:1.0;" x1="6" x2="48" y1="6" y2="6"/><line style="stroke:#000000;stroke-width:1.0;" x1="48" x2="48" y1="6" y2="22.3441"/><line style="stroke:#000000;stroke-width:1.0;" x1="48" x2="58" y1="22.3441" y2="22.3441"/><text fill="#000000" font-family="sans-serif" font-size="12" font-weight="bold" lengthAdjust="spacing" textLength="42" x="63" y="18.8281">Détails</text><line style="stroke:#000000;stroke-width:1.0;" x1="58" x2="58" y1="6" y2="22.3441"/><line style="stroke:#000000;stroke-width:1.0;" x1="58" x2="108" y1="6" y2="6"/><line style="stroke:#000000;stroke-width:1.0;" x1="108" x2="108" y1="6" y2="22.3441"/><line style="stroke:#000000;stroke-width:1.0;" x1="108" x2="118" y1="22.3441" y2="22.3441"/><text fill="#000000" font-family="sans-serif" font-size="12" lengthAdjust="spacing" textLength="62" x="120" y="18.8281">Opérations</text><line style="stroke:#000000;stroke-width:1.0;" x1="118" x2="118" y1="6" y2="22.3441"/><line style="stroke:#000000;stroke-width:1.0;" x1="118" x2="185" y1="6" y2="6"/><line style="stroke:#000000;stroke-width:1.0;" x1="185" x2="185" y1="6" y2="22.3441"/><line style="stroke:#000000;stroke-width:1.0;" x1="185" x2="195" y1="22.3441" y2="22.3441"/><line style="stroke:#AAAAAA;stroke-width:1.0;stroke-dasharray:1.0,2.0;" x1="6" x2="561" y1="27.8441" y2="27.8441"/><text fill="#FFFFFF" filter="url(#b1ccgszs77e2sp0)" font-family="sans-serif" font-size="12" font-style="italic" lengthAdjust="spacing" textLength="119" x="7" y="46.1722">Informations de saisie</text><text fill="#000000" font-family="sans-serif" font-size="12" font-weight="bold" lengthAdjust="spacing" textLength="41" x="7" y="66.5163">Engin :</text><text fill="#000000" font-family="sans-serif" font-size="12" lengthAdjust="spacing" textLength="187" x="50" y="66.5163">GNC - Filets maillants encerclants</text><rect fill="#EEEEEE" height="20.3441" rx="5" ry="5" style="stroke:#000000;stroke-width:2.5;" width="84" x="361.5" y="56.1882"/><text fill="#000000" font-family="sans-serif" font-size="12" lengthAdjust="spacing" textLength="64" x="371.5" y="71.0163">Rechercher</text><text fill="#000000" font-family="sans-serif" font-size="12" font-weight="bold" lengthAdjust="spacing" textLength="104" x="6" y="113.2045">Caractéristiques :</text><text fill="#000000" font-family="sans-serif" font-size="12" lengthAdjust="spacing" textLength="93" x="12" y="132.5487">Hauteur du filet :</text><text fill="#000000" font-family="sans-serif" font-size="12" lengthAdjust="spacing" textLength="3" x="273" y="132.5487"> </text><line style="stroke:#000000;stroke-width:1.0;" x1="271" x2="338" y1="136.0647" y2="136.0647"/><line style="stroke:#000000;stroke-width:1.0;" x1="271" x2="271" y1="133.0647" y2="135.0647"/><line style="stroke:#000000;stroke-width:1.0;" x1="338" x2="338" y1="133.0647" y2="135.0647"/><text fill="#000000" font-family="sans-serif" font-size="12" lengthAdjust="spacing" textLength="19" x="368" y="132.5487">(m)</text><text fill="#000000" font-family="sans-serif" font-size="12" lengthAdjust="spacing" textLength="99" x="12" y="152.8928">Longueur levée* :</text><text fill="#000000" font-family="sans-serif" font-size="12" lengthAdjust="spacing" textLength="3" x="273" y="152.8928"> </text><line style="stroke:#000000;stroke-width:1.0;" x1="271" x2="338" y1="156.4088" y2="156.4088"/><line style="stroke:#000000;stroke-width:1.0;" x1="271" x2="271" y1="153.4088" y2="155.4088"/><line style="stroke:#000000;stroke-width:1.0;" x1="338" x2="338" y1="153.4088" y2="155.4088"/><text fill="#000000" font-family="sans-serif" font-size="12" lengthAdjust="spacing" textLength="19" x="368" y="152.8928">(m)</text><text fill="#000000" font-family="sans-serif" font-size="12" lengthAdjust="spacing" textLength="172" x="12" y="173.2369">Plus petit maillage à la jauge* :</text><text fill="#000000" font-family="sans-serif" font-size="12" lengthAdjust="spacing" textLength="3" x="273" y="173.2369"> </text><line style="stroke:#000000;stroke-width:1.0;" x1="271" x2="338" y1="176.7529" y2="176.7529"/><line style="stroke:#000000;stroke-width:1.0;" x1="271" x2="271" y1="173.7529" y2="175.7529"/><line style="stroke:#000000;stroke-width:1.0;" x1="338" x2="338" y1="173.7529" y2="175.7529"/><text fill="#000000" font-family="sans-serif" font-size="12" lengthAdjust="spacing" textLength="30" x="368" y="173.2369">(mm)</text><text fill="#000000" font-family="sans-serif" font-size="12" lengthAdjust="spacing" textLength="231" x="12" y="193.581">Plus grand maillage à la jauge (trémail)* :</text><text fill="#000000" font-family="sans-serif" font-size="12" lengthAdjust="spacing" textLength="3" x="273" y="193.581"> </text><line style="stroke:#000000;stroke-width:1.0;" x1="271" x2="338" y1="197.097" y2="197.097"/><line style="stroke:#000000;stroke-width:1.0;" x1="271" x2="271" y1="194.097" y2="196.097"/><line style="stroke:#000000;stroke-width:1.0;" x1="338" x2="338" y1="194.097" y2="196.097"/><text fill="#000000" font-family="sans-serif" font-size="12" lengthAdjust="spacing" textLength="30" x="368" y="193.581">(mm)</text><text fill="#000000" font-family="sans-serif" font-size="12" lengthAdjust="spacing" textLength="128" x="12" y="213.9251">Type de fil majoritaire :</text><rect fill="#EEEEEE" height="19.3441" style="stroke:#000000;stroke-width:1.0;" width="47" x="270" y="201.097"/><text fill="#000000" font-family="sans-serif" font-size="12" lengthAdjust="spacing" textLength="32" x="272" y="215.9251">mono</text><line style="stroke:#000000;stroke-width:1.0;" x1="306" x2="306" y1="201.097" y2="220.4411"/><polygon fill="#000000" points="309,207.097,315,207.097,312,215.4411" style="stroke:#000000;stroke-width:1.0;"/><text fill="#000000" font-family="sans-serif" font-size="12" lengthAdjust="spacing" textLength="133" x="12" y="236.2692">Dispositifs de répulsif* :</text><rect fill="#EEEEEE" height="19.3441" style="stroke:#000000;stroke-width:1.0;" width="95" x="270" y="223.4411"/><text fill="#000000" font-family="sans-serif" font-size="12" lengthAdjust="spacing" textLength="54" x="272" y="238.2692">Pas d'info</text><line style="stroke:#000000;stroke-width:1.0;" x1="354" x2="354" y1="223.4411" y2="242.7853"/><polygon fill="#000000" points="357,229.4411,363,229.4411,360,237.7853" style="stroke:#000000;stroke-width:1.0;"/><text fill="#000000" font-family="sans-serif" font-size="12" lengthAdjust="spacing" textLength="256" x="12" y="258.6133">+ Autres caractéristiques (cf "Grille de saisie")</text><text fill="#000000" font-family="sans-serif" font-size="12" font-weight="bold" lengthAdjust="spacing" textLength="88" x="7" y="297.3016">Commentaire :</text><text fill="#000000" font-family="sans-serif" font-size="12" lengthAdjust="spacing" textLength="3" x="11" y="316.6457"> </text><line style="stroke:#000000;stroke-width:1.0;" x1="9" x2="556" y1="320.1617" y2="320.1617"/><line style="stroke:#000000;stroke-width:1.0;" x1="9" x2="9" y1="317.1617" y2="319.1617"/><line style="stroke:#000000;stroke-width:1.0;" x1="556" x2="556" y1="317.1617" y2="319.1617"/><line style="stroke:#AAAAAA;stroke-width:1.0;" x1="6" x2="561" y1="329.6617" y2="329.6617"/><rect fill="#EEEEEE" height="20.3441" rx="5" ry="5" style="stroke:#000000;stroke-width:2.5;" width="60" x="9.5" y="337.6617"/><text fill="#000000" font-family="sans-serif" font-size="12" lengthAdjust="spacing" textLength="44" x="17.5" y="352.4898">Annuler</text><rect fill="#EEEEEE" height="20.3441" rx="5" ry="5" style="stroke:#000000;stroke-width:2.5;" width="92" x="76.5" y="337.6617"/><text fill="#000000" font-family="sans-serif" font-size="12" lengthAdjust="spacing" textLength="72" x="86.5" y="352.4898">Sauvegarder</text></g></svg>