<?xml version="1.0" encoding="us-ascii" standalone="no"?><svg xmlns="http://www.w3.org/2000/svg" xmlns:xlink="http://www.w3.org/1999/xlink" contentStyleType="text/css" height="127px" preserveAspectRatio="none" style="width:512px;height:127px;background:#FFFFFF;" version="1.1" viewBox="0 0 512 127" width="512px" zoomAndPan="magnify"><defs/><g><text fill="#000000" font-family="sans-serif" font-size="12" font-weight="bold" lengthAdjust="spacing" textLength="94" x="11" y="18.457">Engins existants</text><line style="stroke:#000000;stroke-width:1.0;" x1="6" x2="6" y1="6" y2="21.0938"/><line style="stroke:#000000;stroke-width:1.0;" x1="6" x2="108" y1="6" y2="6"/><line style="stroke:#000000;stroke-width:1.0;" x1="108" x2="108" y1="6" y2="21.0938"/><line style="stroke:#000000;stroke-width:1.0;" x1="108" x2="118" y1="21.0938" y2="21.0938"/><text fill="#000000" font-family="sans-serif" font-size="12" lengthAdjust="spacing" textLength="101" x="7" y="36.5508">D&#233;but de p&#233;riode :</text><text fill="#000000" font-family="sans-serif" font-size="12" lengthAdjust="spacing" textLength="62" x="113" y="36.5508">17/12/2023</text><line style="stroke:#000000;stroke-width:1.0;" x1="111" x2="194" y1="39.1875" y2="39.1875"/><line style="stroke:#000000;stroke-width:1.0;" x1="111" x2="111" y1="36.1875" y2="38.1875"/><line style="stroke:#000000;stroke-width:1.0;" x1="194" x2="194" y1="36.1875" y2="38.1875"/><text fill="#000000" font-family="sans-serif" font-size="12" lengthAdjust="spacing" textLength="85" x="7" y="55.6445">Fin de p&#233;riode :</text><text fill="#000000" font-family="sans-serif" font-size="12" lengthAdjust="spacing" textLength="62" x="113" y="55.6445">17/01/2024</text><line style="stroke:#000000;stroke-width:1.0;" x1="111" x2="194" y1="58.2813" y2="58.2813"/><line style="stroke:#000000;stroke-width:1.0;" x1="111" x2="111" y1="55.2813" y2="57.2813"/><line style="stroke:#000000;stroke-width:1.0;" x1="194" x2="194" y1="55.2813" y2="57.2813"/><text fill="#000000" font-family="sans-serif" font-size="12" lengthAdjust="spacing" textLength="7" x="7" y="76.7383">#</text><text fill="#000000" font-family="sans-serif" font-size="12" font-weight="bold" lengthAdjust="spacing" textLength="31" x="16" y="76.7383">Engin</text><text fill="#000000" font-family="sans-serif" font-size="12" font-weight="bold" lengthAdjust="spacing" textLength="94" x="201" y="76.7383">Libell&#233; de l'engin</text><text fill="#000000" font-family="sans-serif" font-size="12" font-weight="bold" lengthAdjust="spacing" textLength="42" x="297" y="76.7383">PSFM 2</text><text fill="#000000" font-family="sans-serif" font-size="12" font-weight="bold" lengthAdjust="spacing" textLength="107" x="396" y="76.7383">Derni&#232;re utilisation</text><text fill="#000000" font-family="sans-serif" font-size="12" lengthAdjust="spacing" textLength="7" x="7" y="93.832">1</text><text fill="#000000" font-family="sans-serif" font-size="12" lengthAdjust="spacing" textLength="183" x="16" y="93.832">OTT- Chalut jumeaux &#224; panneaux</text><text fill="#000000" font-family="sans-serif" font-size="12" lengthAdjust="spacing" textLength="70" x="201" y="93.832">Engin parent</text><text fill="#000000" font-family="sans-serif" font-size="12" lengthAdjust="spacing" textLength="94" x="297" y="93.832">Caract&#233;ristique 2</text><text fill="#000000" font-family="sans-serif" font-size="12" lengthAdjust="spacing" textLength="65" x="393" y="93.832">il y a 1 mois</text><text fill="#000000" font-family="sans-serif" font-size="12" lengthAdjust="spacing" textLength="7" x="7" y="110.9258">2</text><text fill="#000000" font-family="sans-serif" font-size="12" lengthAdjust="spacing" textLength="178" x="16" y="110.9258">OTB- Chalut de fond &#224; panneaux</text><text fill="#000000" font-family="sans-serif" font-size="12" lengthAdjust="spacing" textLength="46" x="201" y="110.9258">Standart</text><text fill="#000000" font-family="sans-serif" font-size="12" lengthAdjust="spacing" textLength="94" x="297" y="110.9258">Caract&#233;ristique 2</text><text fill="#000000" font-family="sans-serif" font-size="12" lengthAdjust="spacing" textLength="65" x="393" y="110.9258">il y a 1 mois</text><line style="stroke:#000000;stroke-width:1.0;" x1="6" x2="15" y1="63.2813" y2="63.2813"/><line style="stroke:#000000;stroke-width:1.0;" x1="200" x2="296" y1="97.4688" y2="97.4688"/><line style="stroke:#000000;stroke-width:1.0;" x1="15" x2="200" y1="63.2813" y2="63.2813"/><line style="stroke:#000000;stroke-width:1.0;" x1="296" x2="392" y1="97.4688" y2="97.4688"/><line style="stroke:#000000;stroke-width:1.0;" x1="200" x2="296" y1="63.2813" y2="63.2813"/><line style="stroke:#000000;stroke-width:1.0;" x1="392" x2="504" y1="97.4688" y2="97.4688"/><line style="stroke:#000000;stroke-width:1.0;" x1="296" x2="392" y1="63.2813" y2="63.2813"/><line style="stroke:#000000;stroke-width:1.0;" x1="392" x2="504" y1="63.2813" y2="63.2813"/><line style="stroke:#000000;stroke-width:1.0;" x1="6" x2="15" y1="114.5625" y2="114.5625"/><line style="stroke:#000000;stroke-width:1.0;" x1="15" x2="200" y1="114.5625" y2="114.5625"/><line style="stroke:#000000;stroke-width:1.0;" x1="200" x2="296" y1="114.5625" y2="114.5625"/><line style="stroke:#000000;stroke-width:1.0;" x1="6" x2="15" y1="80.375" y2="80.375"/><line style="stroke:#000000;stroke-width:1.0;" x1="296" x2="392" y1="114.5625" y2="114.5625"/><line style="stroke:#000000;stroke-width:1.0;" x1="15" x2="200" y1="80.375" y2="80.375"/><line style="stroke:#000000;stroke-width:1.0;" x1="392" x2="504" y1="114.5625" y2="114.5625"/><line style="stroke:#000000;stroke-width:1.0;" x1="200" x2="296" y1="80.375" y2="80.375"/><line style="stroke:#000000;stroke-width:1.0;" x1="296" x2="392" y1="80.375" y2="80.375"/><line style="stroke:#000000;stroke-width:1.0;" x1="392" x2="504" y1="80.375" y2="80.375"/><line style="stroke:#000000;stroke-width:1.0;" x1="6" x2="15" y1="97.4688" y2="97.4688"/><line style="stroke:#000000;stroke-width:1.0;" x1="15" x2="200" y1="97.4688" y2="97.4688"/><line style="stroke:#000000;stroke-width:1.0;" x1="6" x2="6" y1="63.2813" y2="80.375"/><line style="stroke:#000000;stroke-width:1.0;" x1="200" x2="200" y1="97.4688" y2="114.5625"/><line style="stroke:#000000;stroke-width:1.0;" x1="15" x2="15" y1="63.2813" y2="80.375"/><line style="stroke:#000000;stroke-width:1.0;" x1="296" x2="296" y1="97.4688" y2="114.5625"/><line style="stroke:#000000;stroke-width:1.0;" x1="200" x2="200" y1="63.2813" y2="80.375"/><line style="stroke:#000000;stroke-width:1.0;" x1="392" x2="392" y1="97.4688" y2="114.5625"/><line style="stroke:#000000;stroke-width:1.0;" x1="504" x2="504" y1="97.4688" y2="114.5625"/><line style="stroke:#000000;stroke-width:1.0;" x1="296" x2="296" y1="63.2813" y2="80.375"/><line style="stroke:#000000;stroke-width:1.0;" x1="392" x2="392" y1="63.2813" y2="80.375"/><line style="stroke:#000000;stroke-width:1.0;" x1="504" x2="504" y1="63.2813" y2="80.375"/><line style="stroke:#000000;stroke-width:1.0;" x1="6" x2="6" y1="80.375" y2="97.4688"/><line style="stroke:#000000;stroke-width:1.0;" x1="15" x2="15" y1="80.375" y2="97.4688"/><line style="stroke:#000000;stroke-width:1.0;" x1="200" x2="200" y1="80.375" y2="97.4688"/><line style="stroke:#000000;stroke-width:1.0;" x1="296" x2="296" y1="80.375" y2="97.4688"/><line style="stroke:#000000;stroke-width:1.0;" x1="392" x2="392" y1="80.375" y2="97.4688"/><line style="stroke:#000000;stroke-width:1.0;" x1="504" x2="504" y1="80.375" y2="97.4688"/><line style="stroke:#000000;stroke-width:1.0;" x1="6" x2="6" y1="97.4688" y2="114.5625"/><line style="stroke:#000000;stroke-width:1.0;" x1="15" x2="15" y1="97.4688" y2="114.5625"/><line style="stroke:#AAAAAA;stroke-width:1.0;" x1="6" x2="505" y1="120.0625" y2="120.0625"/></g></svg>