<?xml version="1.0" encoding="us-ascii" standalone="no"?><svg xmlns="http://www.w3.org/2000/svg" xmlns:xlink="http://www.w3.org/1999/xlink" contentStyleType="text/css" height="118px" preserveAspectRatio="none" style="width:265px;height:118px;background:#FFFFFF;" version="1.1" viewBox="0 0 265 118" width="265px" zoomAndPan="magnify"><defs/><g><text fill="#000000" font-family="sans-serif" font-size="12" lengthAdjust="spacing" textLength="39" x="8" y="18.9492">D&#233;tails</text><line style="stroke:#000000;stroke-width:1.0;" x1="6" x2="6" y1="6" y2="21.9609"/><line style="stroke:#000000;stroke-width:1.0;" x1="6" x2="50" y1="6" y2="6"/><line style="stroke:#000000;stroke-width:1.0;" x1="50" x2="50" y1="6" y2="21.9609"/><line style="stroke:#000000;stroke-width:1.0;" x1="50" x2="60" y1="21.9609" y2="21.9609"/><text fill="#000000" font-family="sans-serif" font-size="12" font-weight="bold" lengthAdjust="spacing" textLength="38" x="65" y="18.9492">Engins</text><line style="stroke:#000000;stroke-width:1.0;" x1="60" x2="60" y1="6" y2="21.9609"/><line style="stroke:#000000;stroke-width:1.0;" x1="60" x2="106" y1="6" y2="6"/><line style="stroke:#000000;stroke-width:1.0;" x1="106" x2="106" y1="6" y2="21.9609"/><line style="stroke:#000000;stroke-width:1.0;" x1="106" x2="116" y1="21.9609" y2="21.9609"/><text fill="#000000" font-family="sans-serif" font-size="12" lengthAdjust="spacing" textLength="61" x="118" y="18.9492">Op&#233;rations</text><line style="stroke:#000000;stroke-width:1.0;" x1="116" x2="116" y1="6" y2="21.9609"/><line style="stroke:#000000;stroke-width:1.0;" x1="116" x2="182" y1="6" y2="6"/><line style="stroke:#000000;stroke-width:1.0;" x1="182" x2="182" y1="6" y2="21.9609"/><line style="stroke:#000000;stroke-width:1.0;" x1="182" x2="192" y1="21.9609" y2="21.9609"/><rect fill="#EEEEEE" height="12" rx="5" ry="5" style="stroke:#000000;stroke-width:2.5;" width="36" x="9.5" y="27.4609"/><path d="M26.5,29.4609 L26.5,32.4609 L23.5,32.4609 L23.5,34.4609 L26.5,34.4609 L26.5,37.4609 L28.5,37.4609 L28.5,34.4609 L31.5,34.4609 L31.5,32.4609 L28.5,32.4609 L28.5,29.4609 L26.5,29.4609 " fill="#000000" style="stroke:;stroke-width:0.0;stroke-dasharray:;"/><text fill="#000000" font-family="sans-serif" font-size="12" lengthAdjust="spacing" textLength="7" x="7" y="56.9102">#</text><text fill="#000000" font-family="sans-serif" font-size="12" font-weight="bold" lengthAdjust="spacing" textLength="31" x="50" y="56.9102">Engin</text><text fill="#000000" font-family="sans-serif" font-size="12" font-weight="bold" lengthAdjust="spacing" textLength="71" x="168" y="56.9102">Type d'engin</text><text fill="#000000" font-family="sans-serif" font-size="12" lengthAdjust="spacing" textLength="7" x="7" y="74.8711">1</text><text fill="#000000" font-family="sans-serif" font-size="12" lengthAdjust="spacing" textLength="116" x="50" y="74.8711">OTT- Chalut jumeaux</text><text fill="#000000" font-family="sans-serif" font-size="12" lengthAdjust="spacing" textLength="88" x="168" y="74.8711">Chalut standard</text><line style="stroke:#000000;stroke-width:1.0;" x1="6" x2="49" y1="23.9609" y2="23.9609"/><line style="stroke:#000000;stroke-width:1.0;" x1="49" x2="167" y1="42.9609" y2="42.9609"/><line style="stroke:#000000;stroke-width:1.0;" x1="167" x2="257" y1="60.9219" y2="60.9219"/><line style="stroke:#000000;stroke-width:1.0;" x1="49" x2="167" y1="23.9609" y2="23.9609"/><line style="stroke:#000000;stroke-width:1.0;" x1="167" x2="257" y1="42.9609" y2="42.9609"/><line style="stroke:#000000;stroke-width:1.0;" x1="167" x2="257" y1="23.9609" y2="23.9609"/><line style="stroke:#000000;stroke-width:1.0;" x1="6" x2="49" y1="78.8828" y2="78.8828"/><line style="stroke:#000000;stroke-width:1.0;" x1="49" x2="167" y1="78.8828" y2="78.8828"/><line style="stroke:#000000;stroke-width:1.0;" x1="6" x2="49" y1="60.9219" y2="60.9219"/><line style="stroke:#000000;stroke-width:1.0;" x1="167" x2="257" y1="78.8828" y2="78.8828"/><line style="stroke:#000000;stroke-width:1.0;" x1="6" x2="49" y1="42.9609" y2="42.9609"/><line style="stroke:#000000;stroke-width:1.0;" x1="49" x2="167" y1="60.9219" y2="60.9219"/><line style="stroke:#000000;stroke-width:1.0;" x1="6" x2="6" y1="23.9609" y2="42.9609"/><line style="stroke:#000000;stroke-width:1.0;" x1="49" x2="49" y1="42.9609" y2="60.9219"/><line style="stroke:#000000;stroke-width:1.0;" x1="167" x2="167" y1="60.9219" y2="78.8828"/><line style="stroke:#000000;stroke-width:1.0;" x1="257" x2="257" y1="60.9219" y2="78.8828"/><line style="stroke:#000000;stroke-width:1.0;" x1="49" x2="49" y1="23.9609" y2="42.9609"/><line style="stroke:#000000;stroke-width:1.0;" x1="167" x2="167" y1="42.9609" y2="60.9219"/><line style="stroke:#000000;stroke-width:1.0;" x1="257" x2="257" y1="42.9609" y2="60.9219"/><line style="stroke:#000000;stroke-width:1.0;" x1="167" x2="167" y1="23.9609" y2="42.9609"/><line style="stroke:#000000;stroke-width:1.0;" x1="257" x2="257" y1="23.9609" y2="42.9609"/><line style="stroke:#000000;stroke-width:1.0;" x1="6" x2="6" y1="60.9219" y2="78.8828"/><line style="stroke:#000000;stroke-width:1.0;" x1="6" x2="6" y1="42.9609" y2="60.9219"/><line style="stroke:#000000;stroke-width:1.0;" x1="49" x2="49" y1="60.9219" y2="78.8828"/><line style="stroke:#AAAAAA;stroke-width:1.0;" x1="6" x2="258" y1="84.3828" y2="84.3828"/><rect fill="#EEEEEE" height="19.9609" rx="5" ry="5" style="stroke:#000000;stroke-width:2.5;" width="52" x="9.5" y="92.3828"/><text fill="#000000" font-family="sans-serif" font-size="12" lengthAdjust="spacing" textLength="40" x="15.5" y="107.332">Fermer</text><rect fill="#EEEEEE" height="19.9609" rx="5" ry="5" style="stroke:#000000;stroke-width:2.5;" width="92" x="68.5" y="92.3828"/><text fill="#000000" font-family="sans-serif" font-size="12" lengthAdjust="spacing" textLength="70" x="79.5" y="107.332">Sauvegarder</text><!--SRC=[NL3RJi9047rsls8I4fMOrbwKXuOG8WW9qaYWuWFnOQ5BNTDkc-rk8m4-YE_WnvojDKRdxSoSEJFdz4j5fIffgiYU483zBS3mV5AKfoKSeBlkmQD8k33WkJYV95KyHmH7GiZ5leKhfbRGlInINVRW3ObWmvywWDtmMj-QjMGpGXZj2WRn5JFTXkYQUr5amU2Tfbh1XyuOrPy0_vMRETeGCPKnrFj7OyMoQaDrOpLYCcFIFBTQK5sn1Bc8YU4UIP-9kCw0p58gr4iuXOh94fs2QtkEvzkkU_tAObYm0bmVF2VmEe7lmpYCRXmlS1mmh3Qv7i-cKEPQRj0GBvNaQsq2QvC9hIZCjL0yOm56oSHa-FJJm8mhBdEHCQ78P1d-4ZftrWDNU5VYGx0CoP1jgKuLRcpoc8iaW47XUlSUcLAHQ9gW-5QIGOx2SXV0QFu5]--></g></svg>