<?xml version="1.0" encoding="us-ascii" standalone="no"?><svg xmlns="http://www.w3.org/2000/svg" xmlns:xlink="http://www.w3.org/1999/xlink" contentStyleType="text/css" height="367px" preserveAspectRatio="none" style="width:568px;height:367px;background:#FFFFFF;" version="1.1" viewBox="0 0 568 367" width="568px" zoomAndPan="magnify"><defs><filter height="1" id="b15kajqqzr204i0" width="1" x="0" y="0"><feFlood flood-color="#FF0000" result="flood"/><feComposite in="SourceGraphic" in2="flood" operator="over"/></filter></defs><g><text fill="#000000" font-family="sans-serif" font-size="12" font-weight="bold" lengthAdjust="spacing" textLength="72" x="10" y="19.457">Nouvel engin</text><rect fill="#EEEEEE" height="19.0938" rx="5" ry="5" style="stroke:#000000;stroke-width:2.5;" width="84" x="466.5" y="9.5"/><text fill="#000000" font-family="sans-serif" font-size="12" lengthAdjust="spacing" textLength="64" x="476.5" y="23.957">Rechercher</text><line style="stroke:#AAAAAA;stroke-width:1.0;stroke-dasharray:1.0,2.0;" x1="6" x2="561" y1="37.5938" y2="37.5938"/><text fill="#FFFFFF" filter="url(#b15kajqqzr204i0)" font-family="sans-serif" font-size="12" font-style="italic" lengthAdjust="spacing" textLength="121" x="7" y="55.5508">Informations de saisie</text><text fill="#000000" font-family="sans-serif" font-size="12" font-weight="bold" lengthAdjust="spacing" textLength="37" x="7" y="91.7383">Engin :</text><rect fill="#EEEEEE" height="18.0938" style="stroke:#000000;stroke-width:1.0;" width="287" x="46" y="79.2813"/><text fill="#000000" font-family="sans-serif" font-size="12" lengthAdjust="spacing" textLength="188" x="48" y="93.7383">GNC - Filets maillants encerclants</text><line style="stroke:#000000;stroke-width:1.0;" x1="322" x2="322" y1="79.2813" y2="97.375"/><polygon fill="#000000" points="325,85.2813,331,85.2813,328,92.375" style="stroke:#000000;stroke-width:1.0;"/><text fill="#000000" font-family="sans-serif" font-size="12" font-weight="bold" lengthAdjust="spacing" textLength="101" x="6" y="130.9258">Caract&#233;ristiques :</text><text fill="#000000" font-family="sans-serif" font-size="12" lengthAdjust="spacing" textLength="89" x="12" y="149.0195">Hauteur du filet :</text><text fill="#000000" font-family="sans-serif" font-size="12" lengthAdjust="spacing" textLength="3" x="267" y="149.0195">&#160;</text><line style="stroke:#000000;stroke-width:1.0;" x1="265" x2="332" y1="151.6563" y2="151.6563"/><line style="stroke:#000000;stroke-width:1.0;" x1="265" x2="265" y1="148.6563" y2="150.6563"/><line style="stroke:#000000;stroke-width:1.0;" x1="332" x2="332" y1="148.6563" y2="150.6563"/><text fill="#000000" font-family="sans-serif" font-size="12" lengthAdjust="spacing" textLength="19" x="362" y="149.0195">(m)</text><text fill="#000000" font-family="sans-serif" font-size="12" lengthAdjust="spacing" textLength="96" x="12" y="168.1133">Longueur lev&#233;e* :</text><text fill="#000000" font-family="sans-serif" font-size="12" lengthAdjust="spacing" textLength="3" x="267" y="168.1133">&#160;</text><line style="stroke:#000000;stroke-width:1.0;" x1="265" x2="332" y1="170.75" y2="170.75"/><line style="stroke:#000000;stroke-width:1.0;" x1="265" x2="265" y1="167.75" y2="169.75"/><line style="stroke:#000000;stroke-width:1.0;" x1="332" x2="332" y1="167.75" y2="169.75"/><text fill="#000000" font-family="sans-serif" font-size="12" lengthAdjust="spacing" textLength="19" x="362" y="168.1133">(m)</text><text fill="#000000" font-family="sans-serif" font-size="12" lengthAdjust="spacing" textLength="170" x="12" y="187.207">Plus petit maillage &#224; la jauge* :</text><text fill="#000000" font-family="sans-serif" font-size="12" lengthAdjust="spacing" textLength="3" x="267" y="187.207">&#160;</text><line style="stroke:#000000;stroke-width:1.0;" x1="265" x2="332" y1="189.8438" y2="189.8438"/><line style="stroke:#000000;stroke-width:1.0;" x1="265" x2="265" y1="186.8438" y2="188.8438"/><line style="stroke:#000000;stroke-width:1.0;" x1="332" x2="332" y1="186.8438" y2="188.8438"/><text fill="#000000" font-family="sans-serif" font-size="12" lengthAdjust="spacing" textLength="30" x="362" y="187.207">(mm)</text><text fill="#000000" font-family="sans-serif" font-size="12" lengthAdjust="spacing" textLength="228" x="12" y="206.3008">Plus grand maillage &#224; la jauge (tr&#233;mail)* :</text><text fill="#000000" font-family="sans-serif" font-size="12" lengthAdjust="spacing" textLength="3" x="267" y="206.3008">&#160;</text><line style="stroke:#000000;stroke-width:1.0;" x1="265" x2="332" y1="208.9375" y2="208.9375"/><line style="stroke:#000000;stroke-width:1.0;" x1="265" x2="265" y1="205.9375" y2="207.9375"/><line style="stroke:#000000;stroke-width:1.0;" x1="332" x2="332" y1="205.9375" y2="207.9375"/><text fill="#000000" font-family="sans-serif" font-size="12" lengthAdjust="spacing" textLength="30" x="362" y="206.3008">(mm)</text><text fill="#000000" font-family="sans-serif" font-size="12" lengthAdjust="spacing" textLength="123" x="12" y="225.3945">Type de fil majoritaire :</text><rect fill="#EEEEEE" height="18.0938" style="stroke:#000000;stroke-width:1.0;" width="47" x="264" y="212.9375"/><text fill="#000000" font-family="sans-serif" font-size="12" lengthAdjust="spacing" textLength="32" x="266" y="227.3945">mono</text><line style="stroke:#000000;stroke-width:1.0;" x1="300" x2="300" y1="212.9375" y2="231.0313"/><polygon fill="#000000" points="303,218.9375,309,218.9375,306,226.0313" style="stroke:#000000;stroke-width:1.0;"/><text fill="#000000" font-family="sans-serif" font-size="12" lengthAdjust="spacing" textLength="131" x="12" y="246.4883">Dispositifs de r&#233;pulsif* :</text><rect fill="#EEEEEE" height="18.0938" style="stroke:#000000;stroke-width:1.0;" width="95" x="264" y="234.0313"/><text fill="#000000" font-family="sans-serif" font-size="12" lengthAdjust="spacing" textLength="54" x="266" y="248.4883">Pas d'info</text><line style="stroke:#000000;stroke-width:1.0;" x1="348" x2="348" y1="234.0313" y2="252.125"/><polygon fill="#000000" points="351,240.0313,357,240.0313,354,247.125" style="stroke:#000000;stroke-width:1.0;"/><text fill="#000000" font-family="sans-serif" font-size="12" lengthAdjust="spacing" textLength="250" x="12" y="267.582">+ Autres caract&#233;ristiques (cf "Grille de saisie")</text><text fill="#000000" font-family="sans-serif" font-size="12" font-weight="bold" lengthAdjust="spacing" textLength="83" x="7" y="303.7695">Commentaire :</text><text fill="#000000" font-family="sans-serif" font-size="12" lengthAdjust="spacing" textLength="3" x="11" y="321.8633">&#160;</text><line style="stroke:#000000;stroke-width:1.0;" x1="9" x2="556" y1="324.5" y2="324.5"/><line style="stroke:#000000;stroke-width:1.0;" x1="9" x2="9" y1="321.5" y2="323.5"/><line style="stroke:#000000;stroke-width:1.0;" x1="556" x2="556" y1="321.5" y2="323.5"/><line style="stroke:#AAAAAA;stroke-width:1.0;" x1="6" x2="561" y1="334" y2="334"/><rect fill="#EEEEEE" height="19.0938" rx="5" ry="5" style="stroke:#000000;stroke-width:2.5;" width="60" x="9.5" y="342"/><text fill="#000000" font-family="sans-serif" font-size="12" lengthAdjust="spacing" textLength="42" x="18.5" y="356.457">Annuler</text><rect fill="#EEEEEE" height="19.0938" rx="5" ry="5" style="stroke:#000000;stroke-width:2.5;" width="92" x="76.5" y="342"/><text fill="#000000" font-family="sans-serif" font-size="12" lengthAdjust="spacing" textLength="70" x="87.5" y="356.457">Sauvegarder</text></g></svg>