<?xml version="1.0" encoding="UTF-8" standalone="no"?><svg xmlns="http://www.w3.org/2000/svg" xmlns:xlink="http://www.w3.org/1999/xlink" contentStyleType="text/css" height="388px" preserveAspectRatio="none" style="width:571px;height:388px;background:#FFFFFF;" version="1.1" viewBox="0 0 571 388" width="571px" zoomAndPan="magnify"><defs><filter height="1" id="b1wufx4lfr563g0" width="1" x="0" y="0"><feFlood flood-color="#FF0000" result="flood"/><feComposite in="SourceGraphic" in2="flood" operator="over"/></filter></defs><g><text fill="#000000" font-family="sans-serif" font-size="12" font-weight="bold" lengthAdjust="spacing" textLength="81" x="10" y="19.8281">Nouvel engin</text><rect fill="#EEEEEE" height="20.3441" rx="5" ry="5" style="stroke:#000000;stroke-width:2.5;" width="84" x="475.5" y="9.5"/><text fill="#000000" font-family="sans-serif" font-size="12" lengthAdjust="spacing" textLength="64" x="485.5" y="24.3281">Rechercher</text><line style="stroke:#AAAAAA;stroke-width:1.0;stroke-dasharray:1.0,2.0;" x1="6" x2="564" y1="38.8441" y2="38.8441"/><text fill="#FFFFFF" filter="url(#b1wufx4lfr563g0)" font-family="sans-serif" font-size="12" font-style="italic" lengthAdjust="spacing" textLength="119" x="7" y="57.1722">Informations de saisie</text><text fill="#000000" font-family="sans-serif" font-size="12" font-weight="bold" lengthAdjust="spacing" textLength="41" x="7" y="95.8604">Engin :</text><rect fill="#EEEEEE" height="19.3441" style="stroke:#000000;stroke-width:1.0;" width="287" x="50" y="83.0323"/><text fill="#000000" font-family="sans-serif" font-size="12" lengthAdjust="spacing" textLength="187" x="52" y="97.8604">GNC - Filets maillants encerclants</text><line style="stroke:#000000;stroke-width:1.0;" x1="326" x2="326" y1="83.0323" y2="102.3765"/><polygon fill="#000000" points="329,89.0323,335,89.0323,332,97.3765" style="stroke:#000000;stroke-width:1.0;"/><text fill="#000000" font-family="sans-serif" font-size="12" font-weight="bold" lengthAdjust="spacing" textLength="104" x="6" y="137.5487">Caractéristiques :</text><text fill="#000000" font-family="sans-serif" font-size="12" lengthAdjust="spacing" textLength="93" x="12" y="156.8928">Hauteur du filet :</text><text fill="#000000" font-family="sans-serif" font-size="12" lengthAdjust="spacing" textLength="3" x="273" y="156.8928"> </text><line style="stroke:#000000;stroke-width:1.0;" x1="271" x2="338" y1="160.4088" y2="160.4088"/><line style="stroke:#000000;stroke-width:1.0;" x1="271" x2="271" y1="157.4088" y2="159.4088"/><line style="stroke:#000000;stroke-width:1.0;" x1="338" x2="338" y1="157.4088" y2="159.4088"/><text fill="#000000" font-family="sans-serif" font-size="12" lengthAdjust="spacing" textLength="19" x="368" y="156.8928">(m)</text><text fill="#000000" font-family="sans-serif" font-size="12" lengthAdjust="spacing" textLength="99" x="12" y="177.2369">Longueur levée* :</text><text fill="#000000" font-family="sans-serif" font-size="12" lengthAdjust="spacing" textLength="3" x="273" y="177.2369"> </text><line style="stroke:#000000;stroke-width:1.0;" x1="271" x2="338" y1="180.7529" y2="180.7529"/><line style="stroke:#000000;stroke-width:1.0;" x1="271" x2="271" y1="177.7529" y2="179.7529"/><line style="stroke:#000000;stroke-width:1.0;" x1="338" x2="338" y1="177.7529" y2="179.7529"/><text fill="#000000" font-family="sans-serif" font-size="12" lengthAdjust="spacing" textLength="19" x="368" y="177.2369">(m)</text><text fill="#000000" font-family="sans-serif" font-size="12" lengthAdjust="spacing" textLength="172" x="12" y="197.581">Plus petit maillage à la jauge* :</text><text fill="#000000" font-family="sans-serif" font-size="12" lengthAdjust="spacing" textLength="3" x="273" y="197.581"> </text><line style="stroke:#000000;stroke-width:1.0;" x1="271" x2="338" y1="201.097" y2="201.097"/><line style="stroke:#000000;stroke-width:1.0;" x1="271" x2="271" y1="198.097" y2="200.097"/><line style="stroke:#000000;stroke-width:1.0;" x1="338" x2="338" y1="198.097" y2="200.097"/><text fill="#000000" font-family="sans-serif" font-size="12" lengthAdjust="spacing" textLength="30" x="368" y="197.581">(mm)</text><text fill="#000000" font-family="sans-serif" font-size="12" lengthAdjust="spacing" textLength="231" x="12" y="217.9251">Plus grand maillage à la jauge (trémail)* :</text><text fill="#000000" font-family="sans-serif" font-size="12" lengthAdjust="spacing" textLength="3" x="273" y="217.9251"> </text><line style="stroke:#000000;stroke-width:1.0;" x1="271" x2="338" y1="221.4411" y2="221.4411"/><line style="stroke:#000000;stroke-width:1.0;" x1="271" x2="271" y1="218.4411" y2="220.4411"/><line style="stroke:#000000;stroke-width:1.0;" x1="338" x2="338" y1="218.4411" y2="220.4411"/><text fill="#000000" font-family="sans-serif" font-size="12" lengthAdjust="spacing" textLength="30" x="368" y="217.9251">(mm)</text><text fill="#000000" font-family="sans-serif" font-size="12" lengthAdjust="spacing" textLength="128" x="12" y="238.2692">Type de fil majoritaire :</text><rect fill="#EEEEEE" height="19.3441" style="stroke:#000000;stroke-width:1.0;" width="47" x="270" y="225.4411"/><text fill="#000000" font-family="sans-serif" font-size="12" lengthAdjust="spacing" textLength="32" x="272" y="240.2692">mono</text><line style="stroke:#000000;stroke-width:1.0;" x1="306" x2="306" y1="225.4411" y2="244.7853"/><polygon fill="#000000" points="309,231.4411,315,231.4411,312,239.7853" style="stroke:#000000;stroke-width:1.0;"/><text fill="#000000" font-family="sans-serif" font-size="12" lengthAdjust="spacing" textLength="133" x="12" y="260.6133">Dispositifs de répulsif* :</text><rect fill="#EEEEEE" height="19.3441" style="stroke:#000000;stroke-width:1.0;" width="95" x="270" y="247.7853"/><text fill="#000000" font-family="sans-serif" font-size="12" lengthAdjust="spacing" textLength="54" x="272" y="262.6133">Pas d'info</text><line style="stroke:#000000;stroke-width:1.0;" x1="354" x2="354" y1="247.7853" y2="267.1294"/><polygon fill="#000000" points="357,253.7853,363,253.7853,360,262.1294" style="stroke:#000000;stroke-width:1.0;"/><text fill="#000000" font-family="sans-serif" font-size="12" lengthAdjust="spacing" textLength="256" x="12" y="282.9575">+ Autres caractéristiques (cf "Grille de saisie")</text><text fill="#000000" font-family="sans-serif" font-size="12" font-weight="bold" lengthAdjust="spacing" textLength="88" x="7" y="321.6457">Commentaire :</text><text fill="#000000" font-family="sans-serif" font-size="12" lengthAdjust="spacing" textLength="3" x="11" y="340.9898"> </text><line style="stroke:#000000;stroke-width:1.0;" x1="9" x2="556" y1="344.5058" y2="344.5058"/><line style="stroke:#000000;stroke-width:1.0;" x1="9" x2="9" y1="341.5058" y2="343.5058"/><line style="stroke:#000000;stroke-width:1.0;" x1="556" x2="556" y1="341.5058" y2="343.5058"/><line style="stroke:#AAAAAA;stroke-width:1.0;" x1="6" x2="564" y1="354.0058" y2="354.0058"/><rect fill="#EEEEEE" height="20.3441" rx="5" ry="5" style="stroke:#000000;stroke-width:2.5;" width="60" x="9.5" y="362.0058"/><text fill="#000000" font-family="sans-serif" font-size="12" lengthAdjust="spacing" textLength="44" x="17.5" y="376.8339">Annuler</text><rect fill="#EEEEEE" height="20.3441" rx="5" ry="5" style="stroke:#000000;stroke-width:2.5;" width="92" x="76.5" y="362.0058"/><text fill="#000000" font-family="sans-serif" font-size="12" lengthAdjust="spacing" textLength="72" x="86.5" y="376.8339">Sauvegarder</text></g></svg>