<?xml version="1.0" encoding="us-ascii" standalone="no"?><svg xmlns="http://www.w3.org/2000/svg" xmlns:xlink="http://www.w3.org/1999/xlink" contentStyleType="text/css" height="501px" preserveAspectRatio="none" style="width:684px;height:501px;background:#FFFFFF;" version="1.1" viewBox="0 0 684 501" width="684px" zoomAndPan="magnify"><defs><filter height="1" id="b1xd11l3ttulus0" width="1" x="0" y="0"><feFlood flood-color="#FF0000" result="flood"/><feComposite in="SourceGraphic" in2="flood" operator="over"/></filter></defs><g><text fill="#000000" font-family="sans-serif" font-size="12" font-weight="bold" lengthAdjust="spacing" textLength="72" x="10" y="19.9492">Nouvel engin</text><rect fill="#EEEEEE" height="19.9609" rx="5" ry="5" style="stroke:#000000;stroke-width:2.5;" width="84" x="466.5" y="9.5"/><text fill="#000000" font-family="sans-serif" font-size="12" lengthAdjust="spacing" textLength="64" x="476.5" y="24.4492">Rechercher</text><line style="stroke:#AAAAAA;stroke-width:1.0;stroke-dasharray:1.0,2.0;" x1="6" x2="677" y1="38.4609" y2="38.4609"/><text fill="#FFFFFF" filter="url(#b1xd11l3ttulus0)" font-family="sans-serif" font-size="12" font-style="italic" lengthAdjust="spacing" textLength="121" x="7" y="56.9102">Informations de saisie</text><text fill="#000000" font-family="sans-serif" font-size="12" font-weight="bold" lengthAdjust="spacing" textLength="37" x="7" y="94.832">Engin :</text><rect fill="#EEEEEE" height="18.9609" style="stroke:#000000;stroke-width:1.0;" width="287" x="46" y="81.8828"/><text fill="#000000" font-family="sans-serif" font-size="12" lengthAdjust="spacing" textLength="188" x="48" y="96.832">GNC - Filets maillants encerclants</text><line style="stroke:#000000;stroke-width:1.0;" x1="322" x2="322" y1="81.8828" y2="100.8438"/><polygon fill="#000000" points="325,87.8828,331,87.8828,328,95.8438" style="stroke:#000000;stroke-width:1.0;"/><text fill="#000000" font-family="sans-serif" font-size="12" font-weight="bold" lengthAdjust="spacing" textLength="101" x="6" y="135.7539">Caract&#233;ristiques :</text><text fill="#000000" font-family="sans-serif" font-size="12" lengthAdjust="spacing" textLength="89" x="12" y="154.7148">Hauteur du filet :</text><text fill="#000000" font-family="sans-serif" font-size="12" lengthAdjust="spacing" textLength="3" x="270" y="154.7148">&#160;</text><line style="stroke:#000000;stroke-width:1.0;" x1="268" x2="335" y1="157.7266" y2="157.7266"/><line style="stroke:#000000;stroke-width:1.0;" x1="268" x2="268" y1="154.7266" y2="156.7266"/><line style="stroke:#000000;stroke-width:1.0;" x1="335" x2="335" y1="154.7266" y2="156.7266"/><text fill="#000000" font-family="sans-serif" font-size="12" lengthAdjust="spacing" textLength="19" x="365" y="154.7148">(m)</text><text fill="#000000" font-family="sans-serif" font-size="12" lengthAdjust="spacing" textLength="96" x="12" y="174.6758">Longueur lev&#233;e* :</text><text fill="#000000" font-family="sans-serif" font-size="12" lengthAdjust="spacing" textLength="3" x="270" y="174.6758">&#160;</text><line style="stroke:#000000;stroke-width:1.0;" x1="268" x2="335" y1="177.6875" y2="177.6875"/><line style="stroke:#000000;stroke-width:1.0;" x1="268" x2="268" y1="174.6875" y2="176.6875"/><line style="stroke:#000000;stroke-width:1.0;" x1="335" x2="335" y1="174.6875" y2="176.6875"/><text fill="#000000" font-family="sans-serif" font-size="12" lengthAdjust="spacing" textLength="19" x="365" y="174.6758">(m)</text><text fill="#000000" font-family="sans-serif" font-size="12" lengthAdjust="spacing" textLength="170" x="12" y="194.6367">Plus petit maillage &#224; la jauge* :</text><text fill="#000000" font-family="sans-serif" font-size="12" lengthAdjust="spacing" textLength="3" x="270" y="194.6367">&#160;</text><line style="stroke:#000000;stroke-width:1.0;" x1="268" x2="335" y1="197.6484" y2="197.6484"/><line style="stroke:#000000;stroke-width:1.0;" x1="268" x2="268" y1="194.6484" y2="196.6484"/><line style="stroke:#000000;stroke-width:1.0;" x1="335" x2="335" y1="194.6484" y2="196.6484"/><text fill="#000000" font-family="sans-serif" font-size="12" lengthAdjust="spacing" textLength="30" x="365" y="194.6367">(mm)</text><text fill="#000000" font-family="sans-serif" font-size="12" lengthAdjust="spacing" textLength="228" x="12" y="214.5977">Plus grand maillage &#224; la jauge (tr&#233;mail)* :</text><text fill="#000000" font-family="sans-serif" font-size="12" lengthAdjust="spacing" textLength="3" x="270" y="214.5977">&#160;</text><line style="stroke:#000000;stroke-width:1.0;" x1="268" x2="335" y1="217.6094" y2="217.6094"/><line style="stroke:#000000;stroke-width:1.0;" x1="268" x2="268" y1="214.6094" y2="216.6094"/><line style="stroke:#000000;stroke-width:1.0;" x1="335" x2="335" y1="214.6094" y2="216.6094"/><text fill="#000000" font-family="sans-serif" font-size="12" lengthAdjust="spacing" textLength="30" x="365" y="214.5977">(mm)</text><text fill="#000000" font-family="sans-serif" font-size="12" lengthAdjust="spacing" textLength="123" x="12" y="234.5586">Type de fil majoritaire :</text><rect fill="#EEEEEE" height="18.9609" style="stroke:#000000;stroke-width:1.0;" width="47" x="267" y="221.6094"/><text fill="#000000" font-family="sans-serif" font-size="12" lengthAdjust="spacing" textLength="32" x="269" y="236.5586">mono</text><line style="stroke:#000000;stroke-width:1.0;" x1="303" x2="303" y1="221.6094" y2="240.5703"/><polygon fill="#000000" points="306,227.6094,312,227.6094,309,235.5703" style="stroke:#000000;stroke-width:1.0;"/><text fill="#000000" font-family="sans-serif" font-size="12" lengthAdjust="spacing" textLength="131" x="12" y="256.5195">Dispositifs de r&#233;pulsif* :</text><rect fill="#EEEEEE" height="18.9609" style="stroke:#000000;stroke-width:1.0;" width="95" x="267" y="243.5703"/><text fill="#000000" font-family="sans-serif" font-size="12" lengthAdjust="spacing" textLength="54" x="269" y="258.5195">Pas d'info</text><line style="stroke:#000000;stroke-width:1.0;" x1="351" x2="351" y1="243.5703" y2="262.5313"/><polygon fill="#000000" points="354,249.5703,360,249.5703,357,257.5313" style="stroke:#000000;stroke-width:1.0;"/><path d="M16,270.4922 L16,273.4922 L13,273.4922 L13,275.4922 L16,275.4922 L16,278.4922 L18,278.4922 L18,275.4922 L21,275.4922 L21,273.4922 L18,273.4922 L18,270.4922 L16,270.4922 " fill="#000000" style="stroke:;stroke-width:0.0;stroke-dasharray:;"/><text fill="#000000" font-family="sans-serif" font-size="12" lengthAdjust="spacing" textLength="240" x="25" y="278.4805">Autres caract&#233;ristiques (cf "Grille de saisie")</text><line style="stroke:#AAAAAA;stroke-width:1.0;" x1="6" x2="677" y1="287.9922" y2="287.9922"/><path d="M10,297.4531 L10,300.4531 L7,300.4531 L7,302.4531 L10,302.4531 L10,305.4531 L12,305.4531 L12,302.4531 L15,302.4531 L15,300.4531 L12,300.4531 L12,297.4531 L10,297.4531 " fill="#000000" style="stroke:;stroke-width:0.0;stroke-dasharray:;"/><text fill="#000000" font-family="sans-serif" font-size="12" font-weight="bold" lengthAdjust="spacing" textLength="3" x="16" y="305.4414">&#160;</text><path d="M20,297.4531 L20,299.4531 L28,299.4531 L28,297.4531 L20,297.4531 " fill="#000000" style="stroke:;stroke-width:0.0;stroke-dasharray:;"/><text fill="#000000" font-family="sans-serif" font-size="12" font-weight="bold" lengthAdjust="spacing" textLength="84" x="32" y="305.4414">Navire associ&#233;</text><text fill="#000000" font-family="sans-serif" font-size="12" lengthAdjust="spacing" textLength="91" x="12" y="324.4023">Immatriculation :</text><text fill="#000000" font-family="sans-serif" font-size="12" lengthAdjust="spacing" textLength="35" x="297" y="324.4023">68564</text><line style="stroke:#000000;stroke-width:1.0;" x1="295" x2="338" y1="327.4141" y2="327.4141"/><line style="stroke:#000000;stroke-width:1.0;" x1="295" x2="295" y1="324.4141" y2="326.4141"/><line style="stroke:#000000;stroke-width:1.0;" x1="338" x2="338" y1="324.4141" y2="326.4141"/><text fill="#000000" font-family="sans-serif" font-size="12" lengthAdjust="spacing" textLength="33" x="471" y="324.4023">Nom :</text><text fill="#000000" font-family="sans-serif" font-size="12" lengthAdjust="spacing" textLength="48" x="608" y="324.4023">Vessel 3</text><line style="stroke:#000000;stroke-width:1.0;" x1="606" x2="673" y1="327.4141" y2="327.4141"/><line style="stroke:#000000;stroke-width:1.0;" x1="606" x2="606" y1="324.4141" y2="326.4141"/><line style="stroke:#000000;stroke-width:1.0;" x1="673" x2="673" y1="324.4141" y2="326.4141"/><text fill="#000000" font-family="sans-serif" font-size="12" lengthAdjust="spacing" textLength="143" x="12" y="344.3633">Quartie d'immatriculation :</text><text fill="#000000" font-family="sans-serif" font-size="12" lengthAdjust="spacing" textLength="100" x="297" y="344.3633">SN - Saint Nazaire</text><line style="stroke:#000000;stroke-width:1.0;" x1="295" x2="442" y1="347.375" y2="347.375"/><line style="stroke:#000000;stroke-width:1.0;" x1="295" x2="295" y1="344.375" y2="346.375"/><line style="stroke:#000000;stroke-width:1.0;" x1="442" x2="442" y1="344.375" y2="346.375"/><text fill="#000000" font-family="sans-serif" font-size="12" lengthAdjust="spacing" textLength="132" x="471" y="344.3633">Longueur hors tout (m) :</text><text fill="#000000" font-family="sans-serif" font-size="12" lengthAdjust="spacing" textLength="28" x="608" y="344.3633">2280</text><line style="stroke:#000000;stroke-width:1.0;" x1="606" x2="641" y1="347.375" y2="347.375"/><line style="stroke:#000000;stroke-width:1.0;" x1="606" x2="606" y1="344.375" y2="346.375"/><line style="stroke:#000000;stroke-width:1.0;" x1="641" x2="641" y1="344.375" y2="346.375"/><text fill="#000000" font-family="sans-serif" font-size="12" lengthAdjust="spacing" textLength="266" x="12" y="364.3242">Capteur remont&#233;e sur le navire de l'observateur :</text><rect fill="#EEEEEE" height="18.9609" style="stroke:#000000;stroke-width:1.0;" width="39" x="294" y="351.375"/><text fill="#000000" font-family="sans-serif" font-size="12" lengthAdjust="spacing" textLength="19" x="296" y="366.3242">Oui</text><line style="stroke:#000000;stroke-width:1.0;" x1="322" x2="322" y1="351.375" y2="370.3359"/><polygon fill="#000000" points="325,357.375,331,357.375,328,365.3359" style="stroke:#000000;stroke-width:1.0;"/><text fill="#000000" font-family="sans-serif" font-size="12" lengthAdjust="spacing" textLength="132" x="471" y="364.3242">Longueur hors tout (m) :</text><text fill="#000000" font-family="sans-serif" font-size="12" lengthAdjust="spacing" textLength="28" x="608" y="364.3242">2280</text><line style="stroke:#000000;stroke-width:1.0;" x1="606" x2="641" y1="367.3359" y2="367.3359"/><line style="stroke:#000000;stroke-width:1.0;" x1="606" x2="606" y1="364.3359" y2="366.3359"/><line style="stroke:#000000;stroke-width:1.0;" x1="641" x2="641" y1="364.3359" y2="366.3359"/><text fill="#000000" font-family="sans-serif" font-size="12" lengthAdjust="spacing" textLength="82" x="12" y="386.2852">Commentaire :</text><text fill="#000000" font-family="sans-serif" font-size="12" lengthAdjust="spacing" textLength="3" x="16" y="405.2461">&#160;</text><line style="stroke:#000000;stroke-width:1.0;" x1="14" x2="289" y1="408.2578" y2="408.2578"/><line style="stroke:#000000;stroke-width:1.0;" x1="14" x2="14" y1="405.2578" y2="407.2578"/><line style="stroke:#000000;stroke-width:1.0;" x1="289" x2="289" y1="405.2578" y2="407.2578"/><line style="stroke:#AAAAAA;stroke-width:1.0;" x1="6" x2="677" y1="417.7578" y2="417.7578"/><text fill="#000000" font-family="sans-serif" font-size="12" font-weight="bold" lengthAdjust="spacing" textLength="83" x="7" y="436.207">Commentaire :</text><text fill="#000000" font-family="sans-serif" font-size="12" lengthAdjust="spacing" textLength="3" x="11" y="455.168">&#160;</text><line style="stroke:#000000;stroke-width:1.0;" x1="9" x2="668" y1="458.1797" y2="458.1797"/><line style="stroke:#000000;stroke-width:1.0;" x1="9" x2="9" y1="455.1797" y2="457.1797"/><line style="stroke:#000000;stroke-width:1.0;" x1="668" x2="668" y1="455.1797" y2="457.1797"/><line style="stroke:#AAAAAA;stroke-width:1.0;" x1="6" x2="677" y1="467.6797" y2="467.6797"/><rect fill="#EEEEEE" height="19.9609" rx="5" ry="5" style="stroke:#000000;stroke-width:2.5;" width="60" x="9.5" y="475.6797"/><text fill="#000000" font-family="sans-serif" font-size="12" lengthAdjust="spacing" textLength="42" x="18.5" y="490.6289">Annuler</text><rect fill="#EEEEEE" height="19.9609" rx="5" ry="5" style="stroke:#000000;stroke-width:2.5;" width="92" x="76.5" y="475.6797"/><text fill="#000000" font-family="sans-serif" font-size="12" lengthAdjust="spacing" textLength="70" x="87.5" y="490.6289">Sauvegarder</text><!--SRC=[xLNRRjf047ttLunuIA0IA4238ekYfEJIf8JGaAOFKP4MUqmsjNVTlL2b2V_ILxw37-ki7IvfWfgehrrfvMKzS-Po3kDTRPWociN6k_CyW3k0vh05NMd760EA4HTm3vN_-pNxwXo3QrHkVuK9TRLISRsbTPS_t6eEMV3DLnYscf4K1W8PI_NknpKts6horh68f4gOuL9e214quvfZxZx97XNl4IBHTf3HvLCIWwDk6yfmo6Cq6XB6uvW9Eg48AA_iFF3cK3aG-RUPOe6PJHNNXd-tgC5_5CELzu5PWrP1Q25ow5auACoheiCz59FIYaT7Yf5rBZ6EPrDyytUFNcmrf6YuUKXzX33x1J636sP7wn2UGemK4-6p450qQZPrRqelGRkuJT6HG1KJt8rKt32kC6zr8eKSh1ZlSvrApGsFCk8eJcfZpQCyqA37w7gJ4xshJisDb39kmPurYleUF66Y64HGE59K2YxbK2WjI2oNvopEePeR2HVkq6LZbopJMWPyDbsXr4K-JaXbYWSspiIM9Lbex6mttXRMABmhazpg4hMcAL4lBC0-MPec75s1py7skoJAFkCazoxxwLguBiP2DDTIQJ3I6gUH7ALMszbQXcopD1EaGYA2MaQzoRG68Y-RcXLlog56DMQPOSR2cUM3VmyjamJ5WnGMjpH35s9QlmgJFwbRpWRtLtm4lNZp8kZNhaKgUIxUF9MhFI5ix6ROFLpr6NqHHao5zDjpnXDl5qMOVJcydfiedqyxC4Qb7TlLIcshLgzKgyKl648VKwZMeRRbrnf-lGxjW_u5E8EILppgTK1Bgm9YYiIk-D0wlPIy4pPcS6w5uGdwS9QYEDd_EB-00q7aIk5wv9rSdYuD6c_Bxsbkz8bkL71vwkrZn6nio2EG8HSZ7zffjRPTypgCUAQvu4EalBOaO7Nhm-7vRm00]--></g></svg>