<?xml version="1.0" encoding="us-ascii" standalone="no"?><svg xmlns="http://www.w3.org/2000/svg" xmlns:xlink="http://www.w3.org/1999/xlink" contentStyleType="text/css" height="482px" preserveAspectRatio="none" style="width:584px;height:482px;background:#FFFFFF;" version="1.1" viewBox="0 0 584 482" width="584px" zoomAndPan="magnify"><defs><filter height="1" id="b196k47qqxrv9q0" width="1" x="0" y="0"><feFlood flood-color="#DDDDDD" result="flood"/><feComposite in="SourceGraphic" in2="flood" operator="over"/></filter></defs><g><text fill="#808080" font-family="sans-serif" font-size="20" font-weight="bold" lengthAdjust="spacing" textLength="87" x="8" y="29.582">OBSMER</text><text fill="#000000" font-family="sans-serif" font-size="12" lengthAdjust="spacing" textLength="67" x="8" y="49.5508">Observateur</text><line style="stroke:#AAAAAA;stroke-width:1.0;" x1="8" x2="124" y1="93.9844" y2="93.9844"/><text fill="#000000" font-family="sans-serif" font-size="12" lengthAdjust="spacing" textLength="39" x="8" y="111.4336">Accueil</text><text fill="#808080" font-family="sans-serif" font-size="10" lengthAdjust="spacing" textLength="88" x="8" y="145.1973">saisie des donn&#233;es</text><line style="stroke:#AAAAAA;stroke-width:1.0;" x1="8" x2="124" y1="153.207" y2="153.207"/><text fill="#000000" filter="url(#b196k47qqxrv9q0)" font-family="sans-serif" font-size="12" lengthAdjust="spacing" textLength="41" x="8" y="170.6563">Mar&#233;es</text><text fill="#000000" font-family="sans-serif" font-size="12" lengthAdjust="spacing" textLength="39" x="8" y="188.6172">Sorties</text><text fill="#808080" font-family="sans-serif" font-size="10" lengthAdjust="spacing" textLength="56" x="8" y="222.3809">R&#233;f&#233;rentiels</text><line style="stroke:#AAAAAA;stroke-width:1.0;" x1="8" x2="124" y1="230.3906" y2="230.3906"/><text fill="#000000" font-family="sans-serif" font-size="12" lengthAdjust="spacing" textLength="42" x="8" y="247.8398">Navires</text><text fill="#000000" font-family="sans-serif" font-size="12" lengthAdjust="spacing" textLength="73" x="8" y="265.8008">Programmes</text><text fill="#000000" font-family="sans-serif" font-size="12" lengthAdjust="spacing" textLength="67" x="8" y="283.7617">R&#233;f&#233;rentiels</text><text fill="#000000" font-family="sans-serif" font-size="12" lengthAdjust="spacing" textLength="63" x="8" y="301.7227">Utilisateurs</text><line style="stroke:#AAAAAA;stroke-width:1.0;" x1="8" x2="124" y1="310.2344" y2="310.2344"/><text fill="#808080" font-family="sans-serif" font-size="10" lengthAdjust="spacing" textLength="40" x="8" y="343.4863">Syst&#232;me</text><line style="stroke:#AAAAAA;stroke-width:1.0;" x1="8" x2="124" y1="351.4961" y2="351.4961"/><text fill="#000000" font-family="sans-serif" font-size="12" lengthAdjust="spacing" textLength="115" x="8" y="368.9453">Param&#232;tres syst&#232;me</text><line style="stroke:#AAAAAA;stroke-width:1.0;" x1="8" x2="124" y1="395.418" y2="395.418"/><text fill="#000000" font-family="sans-serif" font-size="12" lengthAdjust="spacing" textLength="86" x="8" y="412.8672">Se d&#233;connecter</text><line style="stroke:#AAAAAA;stroke-width:1.0;" x1="8" x2="124" y1="421.3789" y2="421.3789"/><text fill="#808080" font-family="sans-serif" font-size="10" lengthAdjust="spacing" textLength="80" x="8" y="438.6699">V XXX - &#224; propos</text><line style="stroke:#000000;stroke-width:1.0;" x1="6" x2="160" y1="6" y2="6"/><line style="stroke:#000000;stroke-width:1.0;" x1="6" x2="160" y1="443.1797" y2="443.1797"/><line style="stroke:#000000;stroke-width:1.0;" x1="6" x2="6" y1="6" y2="425.8789"/><line style="stroke:#000000;stroke-width:1.0;" x1="160" x2="160" y1="425.8789" y2="443.1797"/><line style="stroke:#000000;stroke-width:1.0;" x1="160" x2="160" y1="6" y2="425.8789"/><line style="stroke:#000000;stroke-width:1.0;" x1="6" x2="6" y1="425.8789" y2="443.1797"/><rect fill="#EEEEEE" height="19.9609" rx="5" ry="5" style="stroke:#000000;stroke-width:2.5;" width="44" x="182.5" y="10.5"/><text fill="#000000" font-family="sans-serif" font-size="12" font-weight="bold" lengthAdjust="spacing" textLength="36" x="186.5" y="25.4492">Mar&#233;e</text><rect fill="#EEEEEE" height="19.9609" rx="5" ry="5" style="stroke:#000000;stroke-width:2.5;" width="12" x="458.5" y="10.5"/><text fill="#000000" font-family="sans-serif" font-size="12" font-weight="bold" lengthAdjust="spacing" textLength="7" x="461" y="25.4492">+</text><line style="stroke:#AAAAAA;stroke-width:1.0;" x1="179" x2="475" y1="39.4609" y2="39.4609"/><text fill="#000000" font-family="sans-serif" font-size="12" font-weight="bold" lengthAdjust="spacing" textLength="102" x="275" y="237.5195">Fen&#234;tre principale</text><line style="stroke:#000000;stroke-width:1.0;" x1="178" x2="475" y1="6" y2="6"/><line style="stroke:#000000;stroke-width:1.0;" x1="178" x2="475" y1="440.1016" y2="440.1016"/><line style="stroke:#000000;stroke-width:1.0;" x1="178" x2="178" y1="6" y2="34.9609"/><line style="stroke:#000000;stroke-width:1.0;" x1="475" x2="475" y1="6" y2="34.9609"/><line style="stroke:#000000;stroke-width:1.0;" x1="178" x2="178" y1="278.4531" y2="296.4141"/><line style="stroke:#000000;stroke-width:1.0;" x1="475" x2="475" y1="278.4531" y2="296.4141"/><line style="stroke:#000000;stroke-width:1.0;" x1="178" x2="178" y1="204.6094" y2="222.5703"/><line style="stroke:#000000;stroke-width:1.0;" x1="475" x2="475" y1="204.6094" y2="222.5703"/><line style="stroke:#000000;stroke-width:1.0;" x1="178" x2="178" y1="132.7656" y2="150.7266"/><line style="stroke:#000000;stroke-width:1.0;" x1="475" x2="475" y1="132.7656" y2="150.7266"/><line style="stroke:#000000;stroke-width:1.0;" x1="178" x2="178" y1="404.1797" y2="422.1406"/><line style="stroke:#000000;stroke-width:1.0;" x1="475" x2="475" y1="404.1797" y2="422.1406"/><line style="stroke:#000000;stroke-width:1.0;" x1="178" x2="178" y1="60.9219" y2="78.8828"/><line style="stroke:#000000;stroke-width:1.0;" x1="475" x2="475" y1="60.9219" y2="78.8828"/><line style="stroke:#000000;stroke-width:1.0;" x1="178" x2="178" y1="332.3359" y2="350.2969"/><line style="stroke:#000000;stroke-width:1.0;" x1="475" x2="475" y1="332.3359" y2="350.2969"/><line style="stroke:#000000;stroke-width:1.0;" x1="178" x2="178" y1="260.4922" y2="278.4531"/><line style="stroke:#000000;stroke-width:1.0;" x1="475" x2="475" y1="260.4922" y2="278.4531"/><line style="stroke:#000000;stroke-width:1.0;" x1="178" x2="178" y1="186.6484" y2="204.6094"/><line style="stroke:#000000;stroke-width:1.0;" x1="475" x2="475" y1="186.6484" y2="204.6094"/><line style="stroke:#000000;stroke-width:1.0;" x1="178" x2="178" y1="114.8047" y2="132.7656"/><line style="stroke:#000000;stroke-width:1.0;" x1="475" x2="475" y1="114.8047" y2="132.7656"/><line style="stroke:#000000;stroke-width:1.0;" x1="178" x2="178" y1="386.2188" y2="404.1797"/><line style="stroke:#000000;stroke-width:1.0;" x1="475" x2="475" y1="386.2188" y2="404.1797"/><line style="stroke:#000000;stroke-width:1.0;" x1="178" x2="178" y1="42.9609" y2="60.9219"/><line style="stroke:#000000;stroke-width:1.0;" x1="475" x2="475" y1="42.9609" y2="60.9219"/><line style="stroke:#000000;stroke-width:1.0;" x1="178" x2="178" y1="314.375" y2="332.3359"/><line style="stroke:#000000;stroke-width:1.0;" x1="475" x2="475" y1="314.375" y2="332.3359"/><line style="stroke:#000000;stroke-width:1.0;" x1="178" x2="178" y1="242.5313" y2="260.4922"/><line style="stroke:#000000;stroke-width:1.0;" x1="475" x2="475" y1="242.5313" y2="260.4922"/><line style="stroke:#000000;stroke-width:1.0;" x1="178" x2="178" y1="168.6875" y2="186.6484"/><line style="stroke:#000000;stroke-width:1.0;" x1="475" x2="475" y1="168.6875" y2="186.6484"/><line style="stroke:#000000;stroke-width:1.0;" x1="178" x2="178" y1="96.8438" y2="114.8047"/><line style="stroke:#000000;stroke-width:1.0;" x1="475" x2="475" y1="96.8438" y2="114.8047"/><line style="stroke:#000000;stroke-width:1.0;" x1="178" x2="178" y1="368.2578" y2="386.2188"/><line style="stroke:#000000;stroke-width:1.0;" x1="475" x2="475" y1="368.2578" y2="386.2188"/><line style="stroke:#000000;stroke-width:1.0;" x1="178" x2="178" y1="34.9609" y2="42.9609"/><line style="stroke:#000000;stroke-width:1.0;" x1="475" x2="475" y1="34.9609" y2="42.9609"/><line style="stroke:#000000;stroke-width:1.0;" x1="178" x2="178" y1="296.4141" y2="314.375"/><line style="stroke:#000000;stroke-width:1.0;" x1="475" x2="475" y1="296.4141" y2="314.375"/><line style="stroke:#000000;stroke-width:1.0;" x1="178" x2="178" y1="222.5703" y2="242.5313"/><line style="stroke:#000000;stroke-width:1.0;" x1="475" x2="475" y1="222.5703" y2="242.5313"/><line style="stroke:#000000;stroke-width:1.0;" x1="178" x2="178" y1="150.7266" y2="168.6875"/><line style="stroke:#000000;stroke-width:1.0;" x1="475" x2="475" y1="150.7266" y2="168.6875"/><line style="stroke:#000000;stroke-width:1.0;" x1="178" x2="178" y1="422.1406" y2="440.1016"/><line style="stroke:#000000;stroke-width:1.0;" x1="475" x2="475" y1="422.1406" y2="440.1016"/><line style="stroke:#000000;stroke-width:1.0;" x1="178" x2="178" y1="78.8828" y2="96.8438"/><line style="stroke:#000000;stroke-width:1.0;" x1="475" x2="475" y1="78.8828" y2="96.8438"/><line style="stroke:#000000;stroke-width:1.0;" x1="178" x2="178" y1="350.2969" y2="368.2578"/><line style="stroke:#000000;stroke-width:1.0;" x1="475" x2="475" y1="350.2969" y2="368.2578"/><text fill="#808080" font-family="sans-serif" font-size="10" lengthAdjust="spacing" textLength="46" x="484" y="18.791">Saisisseur</text><text fill="#000000" font-family="sans-serif" font-size="12" lengthAdjust="spacing" textLength="67" x="484" y="36.25">Observateur</text><text fill="#808080" font-family="sans-serif" font-size="10" lengthAdjust="spacing" textLength="56" x="484" y="70.0137">Mode saisie</text><text fill="#808080" font-family="sans-serif" font-size="10" font-weight="bold" lengthAdjust="spacing" textLength="32" x="543" y="70.0137">terrain</text><line style="stroke:#000000;stroke-width:1.0;" x1="482" x2="577" y1="6" y2="6"/><line style="stroke:#000000;stroke-width:1.0;" x1="482" x2="577" y1="74.5234" y2="74.5234"/><line style="stroke:#000000;stroke-width:1.0;" x1="482" x2="482" y1="6" y2="74.5234"/><line style="stroke:#000000;stroke-width:1.0;" x1="577" x2="577" y1="6" y2="74.5234"/><line style="stroke:#AAAAAA;stroke-width:1.0;" x1="6" x2="165" y1="448.6797" y2="448.6797"/><line style="stroke:#AAAAAA;stroke-width:1.0;" x1="166" x2="177" y1="448.6797" y2="448.6797"/><line style="stroke:#AAAAAA;stroke-width:1.0;" x1="178" x2="476" y1="448.6797" y2="448.6797"/><rect fill="#EEEEEE" height="19.9609" rx="5" ry="5" style="stroke:#000000;stroke-width:2.5;" width="52" x="9.5" y="456.6797"/><text fill="#000000" font-family="sans-serif" font-size="12" lengthAdjust="spacing" textLength="40" x="15.5" y="471.6289">Fermer</text><rect fill="#EEEEEE" height="19.9609" rx="5" ry="5" style="stroke:#000000;stroke-width:2.5;" width="92" x="68.5" y="456.6797"/><text fill="#000000" font-family="sans-serif" font-size="12" lengthAdjust="spacing" textLength="70" x="79.5" y="471.6289">Sauvegarder</text><!--SRC=[jLJTRjem5BxtKnnfDwsg81AsNaGKTULd4eE1oCgGgbwOn4JMWXtP3X9ZlCikoruZBxQJ40fRWYgrMeGFJdpEv-_uV3wtsb1bD8qCsH20pHKQo6RvqvotcWif3FWoakecL6mDclzWDqwzDRhpXjr9vlKJQkV60MWqrqojg669EdogbIQMTPXzzFs4yQW0BpbMSxBhBKsvvWm2fY6GGgGxfilWpJdrlxllEfrEQqXLvbCidExbIMLuvShBB2RfRf7k51E845KG-49NN3rZdq2FbGmLNIuhz_qRjSBXtl28w_oCgvQF-x-SWRVM9drQidBic2B1zCba_7NXLNL6vKWFwvBkV2mBymrJvmXkoQa2ppASmcms0mlINn0h6KkzZyLHI6-lPDZ00ufuN-V7OkbeNZd-no-ZUVMOf_1yQhKtsCthqwiSIA_7HFeRAuydpeNFOngnWc_jJJR_AzNjl3YpIwxrePNysrhsg6UZXp9WKFG9p0cLg2WNc4QMYMKXWyAGN3mzffPCPSfvy6YoOY5L0RvloPRSCX7aZPEC8ohC_N00AwOqbmBicbDt6ZNRllZ60bH-37O3dBhhNBkD1hIxtbV872x9nQVn0BHCb8-tWskZ-3mnY719-dH5OPBWRLyo5qOn4_tEvyC7w0fi8L8iiHkG_dHuTBX-RzrnWrigv0BJ8Ucm1KqYWn6-3BW8NMZ7jlF18GCgmeI62BvGf2qHMArTw4t-0000]--></g></svg>