<?xml version="1.0" encoding="UTF-8" standalone="no"?><svg xmlns="http://www.w3.org/2000/svg" xmlns:xlink="http://www.w3.org/1999/xlink" contentStyleType="text/css" height="480px" preserveAspectRatio="none" style="width:584px;height:480px;background:#FFFFFF;" version="1.1" viewBox="0 0 584 480" width="584px" zoomAndPan="magnify"><defs><filter height="1" id="bilxnwvsgdnhq0" width="1" x="0" y="0"><feFlood flood-color="#DDDDDD" result="flood"/><feComposite in="SourceGraphic" in2="flood" operator="over"/></filter></defs><g><text fill="#808080" font-family="sans-serif" font-size="20" font-weight="bold" lengthAdjust="spacing" textLength="87" x="8" y="28.7617">OBSMER</text><text fill="#000000" font-family="sans-serif" font-size="12" lengthAdjust="spacing" textLength="67" x="8" y="47.6133">Observateur</text><line style="stroke:#AAAAAA;stroke-width:1.0;" x1="8" x2="124" y1="89.9375" y2="89.9375"/><text fill="#000000" font-family="sans-serif" font-size="12" lengthAdjust="spacing" textLength="39" x="8" y="106.8945">Accueil</text><text fill="#808080" font-family="sans-serif" font-size="10" lengthAdjust="spacing" textLength="88" x="8" y="139.0059">saisie des données</text><line style="stroke:#AAAAAA;stroke-width:1.0;" x1="8" x2="124" y1="146.7031" y2="146.7031"/><text fill="#000000" font-family="sans-serif" font-size="12" lengthAdjust="spacing" textLength="111" x="8" y="163.6602">Campagnes en mer</text><text fill="#000000" filter="url(#bilxnwvsgdnhq0)" font-family="sans-serif" font-size="12" lengthAdjust="spacing" textLength="41" x="8" y="180.7539">Marées</text><text fill="#000000" font-family="sans-serif" font-size="12" lengthAdjust="spacing" textLength="39" x="8" y="197.8477">Sorties</text><text fill="#808080" font-family="sans-serif" font-size="10" lengthAdjust="spacing" textLength="56" x="8" y="229.959">Référentiels</text><line style="stroke:#AAAAAA;stroke-width:1.0;" x1="8" x2="124" y1="237.6563" y2="237.6563"/><text fill="#000000" font-family="sans-serif" font-size="12" lengthAdjust="spacing" textLength="42" x="8" y="254.6133">Navires</text><text fill="#000000" font-family="sans-serif" font-size="12" lengthAdjust="spacing" textLength="73" x="8" y="271.707">Programmes</text><text fill="#000000" font-family="sans-serif" font-size="12" lengthAdjust="spacing" textLength="67" x="8" y="288.8008">Référentiels</text><text fill="#000000" font-family="sans-serif" font-size="12" lengthAdjust="spacing" textLength="63" x="8" y="305.8945">Utilisateurs</text><line style="stroke:#AAAAAA;stroke-width:1.0;" x1="8" x2="124" y1="314.0313" y2="314.0313"/><text fill="#808080" font-family="sans-serif" font-size="10" lengthAdjust="spacing" textLength="40" x="8" y="346.0059">Système</text><line style="stroke:#AAAAAA;stroke-width:1.0;" x1="8" x2="124" y1="353.7031" y2="353.7031"/><text fill="#000000" font-family="sans-serif" font-size="12" lengthAdjust="spacing" textLength="115" x="8" y="370.6602">Paramètres système</text><line style="stroke:#AAAAAA;stroke-width:1.0;" x1="8" x2="124" y1="395.8906" y2="395.8906"/><text fill="#000000" font-family="sans-serif" font-size="12" lengthAdjust="spacing" textLength="86" x="8" y="412.8477">Se déconnecter</text><line style="stroke:#AAAAAA;stroke-width:1.0;" x1="8" x2="124" y1="420.9844" y2="420.9844"/><text fill="#808080" font-family="sans-serif" font-size="10" lengthAdjust="spacing" textLength="80" x="8" y="437.8652">V XXX - à propos</text><line style="stroke:#000000;stroke-width:1.0;" x1="6" x2="160" y1="6" y2="6"/><line style="stroke:#000000;stroke-width:1.0;" x1="6" x2="160" y1="442.0625" y2="442.0625"/><line style="stroke:#000000;stroke-width:1.0;" x1="6" x2="6" y1="6" y2="425.4844"/><line style="stroke:#000000;stroke-width:1.0;" x1="160" x2="160" y1="425.4844" y2="442.0625"/><line style="stroke:#000000;stroke-width:1.0;" x1="160" x2="160" y1="6" y2="425.4844"/><line style="stroke:#000000;stroke-width:1.0;" x1="6" x2="6" y1="425.4844" y2="442.0625"/><rect fill="#EEEEEE" height="19.0938" rx="5" ry="5" style="stroke:#000000;stroke-width:2.5;" width="44" x="182.5" y="10.5"/><text fill="#000000" font-family="sans-serif" font-size="12" font-weight="bold" lengthAdjust="spacing" textLength="36" x="186.5" y="24.957">Marée</text><rect fill="#EEEEEE" height="19.0938" rx="5" ry="5" style="stroke:#000000;stroke-width:2.5;" width="12" x="458.5" y="10.5"/><text fill="#000000" font-family="sans-serif" font-size="12" font-weight="bold" lengthAdjust="spacing" textLength="7" x="461" y="24.957">+</text><line style="stroke:#AAAAAA;stroke-width:1.0;" x1="179" x2="475" y1="38.5938" y2="38.5938"/><text fill="#000000" font-family="sans-serif" font-size="12" font-weight="bold" lengthAdjust="spacing" textLength="102" x="275" y="227.4883">Fenêtre principale</text><line style="stroke:#000000;stroke-width:1.0;" x1="178" x2="475" y1="6" y2="6"/><line style="stroke:#000000;stroke-width:1.0;" x1="178" x2="475" y1="437.25" y2="437.25"/><line style="stroke:#000000;stroke-width:1.0;" x1="178" x2="178" y1="6" y2="34.0938"/><line style="stroke:#000000;stroke-width:1.0;" x1="475" x2="475" y1="6" y2="34.0938"/><line style="stroke:#000000;stroke-width:1.0;" x1="178" x2="178" y1="195.9375" y2="213.0313"/><line style="stroke:#000000;stroke-width:1.0;" x1="475" x2="475" y1="195.9375" y2="213.0313"/><line style="stroke:#000000;stroke-width:1.0;" x1="178" x2="178" y1="385.9688" y2="403.0625"/><line style="stroke:#000000;stroke-width:1.0;" x1="475" x2="475" y1="385.9688" y2="403.0625"/><line style="stroke:#000000;stroke-width:1.0;" x1="178" x2="178" y1="59.1875" y2="76.2813"/><line style="stroke:#000000;stroke-width:1.0;" x1="475" x2="475" y1="59.1875" y2="76.2813"/><line style="stroke:#000000;stroke-width:1.0;" x1="178" x2="178" y1="249.2188" y2="266.3125"/><line style="stroke:#000000;stroke-width:1.0;" x1="475" x2="475" y1="249.2188" y2="266.3125"/><line style="stroke:#000000;stroke-width:1.0;" x1="178" x2="178" y1="110.4688" y2="127.5625"/><line style="stroke:#000000;stroke-width:1.0;" x1="475" x2="475" y1="110.4688" y2="127.5625"/><line style="stroke:#000000;stroke-width:1.0;" x1="178" x2="178" y1="300.5" y2="317.5938"/><line style="stroke:#000000;stroke-width:1.0;" x1="475" x2="475" y1="300.5" y2="317.5938"/><line style="stroke:#000000;stroke-width:1.0;" x1="178" x2="178" y1="161.75" y2="178.8438"/><line style="stroke:#000000;stroke-width:1.0;" x1="475" x2="475" y1="161.75" y2="178.8438"/><line style="stroke:#000000;stroke-width:1.0;" x1="178" x2="178" y1="351.7813" y2="368.875"/><line style="stroke:#000000;stroke-width:1.0;" x1="475" x2="475" y1="351.7813" y2="368.875"/><line style="stroke:#000000;stroke-width:1.0;" x1="178" x2="178" y1="34.0938" y2="42.0938"/><line style="stroke:#000000;stroke-width:1.0;" x1="475" x2="475" y1="34.0938" y2="42.0938"/><line style="stroke:#000000;stroke-width:1.0;" x1="178" x2="178" y1="213.0313" y2="232.125"/><line style="stroke:#000000;stroke-width:1.0;" x1="475" x2="475" y1="213.0313" y2="232.125"/><line style="stroke:#000000;stroke-width:1.0;" x1="178" x2="178" y1="403.0625" y2="420.1563"/><line style="stroke:#000000;stroke-width:1.0;" x1="475" x2="475" y1="403.0625" y2="420.1563"/><line style="stroke:#000000;stroke-width:1.0;" x1="178" x2="178" y1="76.2813" y2="93.375"/><line style="stroke:#000000;stroke-width:1.0;" x1="475" x2="475" y1="76.2813" y2="93.375"/><line style="stroke:#000000;stroke-width:1.0;" x1="178" x2="178" y1="266.3125" y2="283.4063"/><line style="stroke:#000000;stroke-width:1.0;" x1="475" x2="475" y1="266.3125" y2="283.4063"/><line style="stroke:#000000;stroke-width:1.0;" x1="178" x2="178" y1="127.5625" y2="144.6563"/><line style="stroke:#000000;stroke-width:1.0;" x1="475" x2="475" y1="127.5625" y2="144.6563"/><line style="stroke:#000000;stroke-width:1.0;" x1="178" x2="178" y1="317.5938" y2="334.6875"/><line style="stroke:#000000;stroke-width:1.0;" x1="475" x2="475" y1="317.5938" y2="334.6875"/><line style="stroke:#000000;stroke-width:1.0;" x1="178" x2="178" y1="178.8438" y2="195.9375"/><line style="stroke:#000000;stroke-width:1.0;" x1="475" x2="475" y1="178.8438" y2="195.9375"/><line style="stroke:#000000;stroke-width:1.0;" x1="178" x2="178" y1="368.875" y2="385.9688"/><line style="stroke:#000000;stroke-width:1.0;" x1="475" x2="475" y1="368.875" y2="385.9688"/><line style="stroke:#000000;stroke-width:1.0;" x1="178" x2="178" y1="42.0938" y2="59.1875"/><line style="stroke:#000000;stroke-width:1.0;" x1="475" x2="475" y1="42.0938" y2="59.1875"/><line style="stroke:#000000;stroke-width:1.0;" x1="178" x2="178" y1="232.125" y2="249.2188"/><line style="stroke:#000000;stroke-width:1.0;" x1="475" x2="475" y1="232.125" y2="249.2188"/><line style="stroke:#000000;stroke-width:1.0;" x1="178" x2="178" y1="420.1563" y2="437.25"/><line style="stroke:#000000;stroke-width:1.0;" x1="475" x2="475" y1="420.1563" y2="437.25"/><line style="stroke:#000000;stroke-width:1.0;" x1="178" x2="178" y1="93.375" y2="110.4688"/><line style="stroke:#000000;stroke-width:1.0;" x1="475" x2="475" y1="93.375" y2="110.4688"/><line style="stroke:#000000;stroke-width:1.0;" x1="178" x2="178" y1="283.4063" y2="300.5"/><line style="stroke:#000000;stroke-width:1.0;" x1="475" x2="475" y1="283.4063" y2="300.5"/><line style="stroke:#000000;stroke-width:1.0;" x1="178" x2="178" y1="144.6563" y2="161.75"/><line style="stroke:#000000;stroke-width:1.0;" x1="475" x2="475" y1="144.6563" y2="161.75"/><line style="stroke:#000000;stroke-width:1.0;" x1="178" x2="178" y1="334.6875" y2="351.7813"/><line style="stroke:#000000;stroke-width:1.0;" x1="475" x2="475" y1="334.6875" y2="351.7813"/><text fill="#808080" font-family="sans-serif" font-size="10" lengthAdjust="spacing" textLength="46" x="484" y="18.3809">Saisisseur</text><text fill="#000000" font-family="sans-serif" font-size="12" lengthAdjust="spacing" textLength="67" x="484" y="35.0352">Observateur</text><text fill="#808080" font-family="sans-serif" font-size="10" lengthAdjust="spacing" textLength="56" x="484" y="67.1465">Mode saisie</text><text fill="#808080" font-family="sans-serif" font-size="10" font-weight="bold" lengthAdjust="spacing" textLength="32" x="543" y="67.1465">terrain</text><line style="stroke:#000000;stroke-width:1.0;" x1="482" x2="577" y1="6" y2="6"/><line style="stroke:#000000;stroke-width:1.0;" x1="482" x2="577" y1="71.3438" y2="71.3438"/><line style="stroke:#000000;stroke-width:1.0;" x1="482" x2="482" y1="6" y2="71.3438"/><line style="stroke:#000000;stroke-width:1.0;" x1="577" x2="577" y1="6" y2="71.3438"/><line style="stroke:#AAAAAA;stroke-width:1.0;" x1="6" x2="165" y1="447.5625" y2="447.5625"/><line style="stroke:#AAAAAA;stroke-width:1.0;" x1="166" x2="177" y1="447.5625" y2="447.5625"/><line style="stroke:#AAAAAA;stroke-width:1.0;" x1="178" x2="476" y1="447.5625" y2="447.5625"/><rect fill="#EEEEEE" height="19.0938" rx="5" ry="5" style="stroke:#000000;stroke-width:2.5;" width="52" x="9.5" y="455.5625"/><text fill="#000000" font-family="sans-serif" font-size="12" lengthAdjust="spacing" textLength="40" x="15.5" y="470.0195">Fermer</text><rect fill="#EEEEEE" height="19.0938" rx="5" ry="5" style="stroke:#000000;stroke-width:2.5;" width="92" x="68.5" y="455.5625"/><text fill="#000000" font-family="sans-serif" font-size="12" lengthAdjust="spacing" textLength="70" x="79.5" y="470.0195">Sauvegarder</text></g></svg>