<?xml version="1.0" encoding="UTF-8" standalone="no"?><svg xmlns="http://www.w3.org/2000/svg" xmlns:xlink="http://www.w3.org/1999/xlink" contentStyleType="text/css" height="562px" preserveAspectRatio="none" style="width:587px;height:562px;background:#FFFFFF;" version="1.1" viewBox="0 0 587 562" width="587px" zoomAndPan="magnify"><defs><filter height="1" id="b1956oqnt6wsnh0" width="1" x="0" y="0"><feFlood flood-color="#DDDDDD" result="flood"/><feComposite in="SourceGraphic" in2="flood" operator="over"/></filter></defs><g><text fill="#808080" font-family="sans-serif" font-size="20" font-weight="bold" lengthAdjust="spacing" textLength="83" x="8" y="29.38">OBSMER</text><text fill="#000000" font-family="sans-serif" font-size="12" lengthAdjust="spacing" textLength="70" x="8" y="50.0681">Observateur</text><line style="stroke:#AAAAAA;stroke-width:1.0;" x1="8" x2="125" y1="95.7723" y2="95.7723"/><text fill="#000000" font-family="sans-serif" font-size="12" lengthAdjust="spacing" textLength="40" x="8" y="113.1004">Accueil</text><text fill="#808080" font-family="sans-serif" font-size="10" lengthAdjust="spacing" textLength="92" x="8" y="147.6505">saisie des données</text><line style="stroke:#AAAAAA;stroke-width:1.0;" x1="8" x2="125" y1="156.0805" y2="156.0805"/><text fill="#000000" filter="url(#b1956oqnt6wsnh0)" font-family="sans-serif" font-size="12" lengthAdjust="spacing" textLength="43" x="18" y="173.4086">Marées</text><text fill="#000000" font-family="sans-serif" font-size="12" lengthAdjust="spacing" textLength="37" x="28" y="189.7527">Engins</text><text fill="#000000" font-family="sans-serif" font-size="12" lengthAdjust="spacing" textLength="62" x="28" y="206.0969">Opérations</text><text fill="#000000" font-family="sans-serif" font-size="12" lengthAdjust="spacing" textLength="51" x="38" y="222.441">Captures</text><rect fill="none" height="2" style="stroke:#888888;stroke-width:1.0;" width="2" x="11" y="167.7526"/><line style="stroke:#888888;stroke-width:1.0;" x1="12" x2="12" y1="170.7526" y2="185.0967"/><line style="stroke:#888888;stroke-width:1.0;" x1="12" x2="20" y1="185.0967" y2="185.0967"/><rect fill="none" height="2" style="stroke:#888888;stroke-width:1.0;" width="2" x="21" y="200.4408"/><line style="stroke:#888888;stroke-width:1.0;" x1="12" x2="12" y1="170.7526" y2="201.4408"/><line style="stroke:#888888;stroke-width:1.0;" x1="12" x2="20" y1="201.4408" y2="201.4408"/><line style="stroke:#888888;stroke-width:1.0;" x1="22" x2="22" y1="203.4408" y2="217.7849"/><line style="stroke:#888888;stroke-width:1.0;" x1="22" x2="30" y1="217.7849" y2="217.7849"/><text fill="#000000" font-family="sans-serif" font-size="12" lengthAdjust="spacing" textLength="39" x="8" y="240.7851">Sorties</text><text fill="#808080" font-family="sans-serif" font-size="10" lengthAdjust="spacing" textLength="58" x="8" y="275.3352">Référentiels</text><line style="stroke:#AAAAAA;stroke-width:1.0;" x1="8" x2="125" y1="283.7652" y2="283.7652"/><text fill="#000000" font-family="sans-serif" font-size="12" lengthAdjust="spacing" textLength="43" x="8" y="301.0933">Navires</text><text fill="#000000" font-family="sans-serif" font-size="12" lengthAdjust="spacing" textLength="73" x="8" y="319.4374">Programmes</text><text fill="#000000" font-family="sans-serif" font-size="12" lengthAdjust="spacing" textLength="67" x="8" y="337.7815">Référentiels</text><text fill="#000000" font-family="sans-serif" font-size="12" lengthAdjust="spacing" textLength="64" x="8" y="356.1256">Utilisateurs</text><line style="stroke:#AAAAAA;stroke-width:1.0;" x1="8" x2="125" y1="365.1417" y2="365.1417"/><text fill="#808080" font-family="sans-serif" font-size="10" lengthAdjust="spacing" textLength="40" x="8" y="398.6758">Système</text><line style="stroke:#AAAAAA;stroke-width:1.0;" x1="8" x2="125" y1="407.1058" y2="407.1058"/><text fill="#000000" font-family="sans-serif" font-size="12" lengthAdjust="spacing" textLength="116" x="8" y="424.4339">Paramètres système</text><line style="stroke:#AAAAAA;stroke-width:1.0;" x1="8" x2="125" y1="451.794" y2="451.794"/><text fill="#000000" font-family="sans-serif" font-size="12" lengthAdjust="spacing" textLength="87" x="8" y="469.1221">Se déconnecter</text><line style="stroke:#AAAAAA;stroke-width:1.0;" x1="8" x2="125" y1="478.1381" y2="478.1381"/><text fill="#808080" font-family="sans-serif" font-size="10" lengthAdjust="spacing" textLength="78" x="8" y="495.3281">V XXX - à propos</text><line style="stroke:#000000;stroke-width:1.0;" x1="6" x2="161" y1="6" y2="6"/><line style="stroke:#000000;stroke-width:1.0;" x1="6" x2="161" y1="500.2581" y2="500.2581"/><line style="stroke:#000000;stroke-width:1.0;" x1="6" x2="6" y1="6" y2="482.6381"/><line style="stroke:#000000;stroke-width:1.0;" x1="161" x2="161" y1="482.6381" y2="500.2581"/><line style="stroke:#000000;stroke-width:1.0;" x1="161" x2="161" y1="6" y2="482.6381"/><line style="stroke:#000000;stroke-width:1.0;" x1="6" x2="6" y1="482.6381" y2="500.2581"/><rect fill="#EEEEEE" height="20.3441" rx="5" ry="5" style="stroke:#000000;stroke-width:2.5;" width="60" x="182.5" y="10.5"/><text fill="#000000" font-family="sans-serif" font-size="12" font-weight="bold" lengthAdjust="spacing" textLength="48" x="188.5" y="25.3281">Capture</text><line style="stroke:#AAAAAA;stroke-width:1.0;" x1="179" x2="472" y1="39.8441" y2="39.8441"/><text fill="#000000" font-family="sans-serif" font-size="12" font-weight="bold" lengthAdjust="spacing" textLength="110" x="275" y="241.6133">Fenêtre principale</text><line style="stroke:#000000;stroke-width:1.0;" x1="178" x2="472" y1="6" y2="6"/><line style="stroke:#000000;stroke-width:1.0;" x1="178" x2="472" y1="522.2911" y2="522.2911"/><line style="stroke:#000000;stroke-width:1.0;" x1="178" x2="178" y1="6" y2="35.3441"/><line style="stroke:#000000;stroke-width:1.0;" x1="472" x2="472" y1="6" y2="35.3441"/><line style="stroke:#000000;stroke-width:1.0;" x1="178" x2="178" y1="208.4411" y2="226.7853"/><line style="stroke:#000000;stroke-width:1.0;" x1="472" x2="472" y1="208.4411" y2="226.7853"/><line style="stroke:#000000;stroke-width:1.0;" x1="178" x2="178" y1="412.2264" y2="430.5705"/><line style="stroke:#000000;stroke-width:1.0;" x1="472" x2="472" y1="412.2264" y2="430.5705"/><line style="stroke:#000000;stroke-width:1.0;" x1="178" x2="178" y1="61.6882" y2="80.0323"/><line style="stroke:#000000;stroke-width:1.0;" x1="472" x2="472" y1="61.6882" y2="80.0323"/><line style="stroke:#000000;stroke-width:1.0;" x1="178" x2="178" y1="265.4735" y2="283.8176"/><line style="stroke:#000000;stroke-width:1.0;" x1="472" x2="472" y1="265.4735" y2="283.8176"/><line style="stroke:#000000;stroke-width:1.0;" x1="178" x2="178" y1="467.2587" y2="485.6029"/><line style="stroke:#000000;stroke-width:1.0;" x1="472" x2="472" y1="467.2587" y2="485.6029"/><line style="stroke:#000000;stroke-width:1.0;" x1="178" x2="178" y1="116.7206" y2="135.0647"/><line style="stroke:#000000;stroke-width:1.0;" x1="472" x2="472" y1="116.7206" y2="135.0647"/><line style="stroke:#000000;stroke-width:1.0;" x1="178" x2="178" y1="320.5058" y2="338.8499"/><line style="stroke:#000000;stroke-width:1.0;" x1="472" x2="472" y1="320.5058" y2="338.8499"/><line style="stroke:#000000;stroke-width:1.0;" x1="178" x2="178" y1="171.7529" y2="190.097"/><line style="stroke:#000000;stroke-width:1.0;" x1="472" x2="472" y1="171.7529" y2="190.097"/><line style="stroke:#000000;stroke-width:1.0;" x1="178" x2="178" y1="375.5382" y2="393.8823"/><line style="stroke:#000000;stroke-width:1.0;" x1="472" x2="472" y1="375.5382" y2="393.8823"/><line style="stroke:#000000;stroke-width:1.0;" x1="178" x2="178" y1="35.3441" y2="43.3441"/><line style="stroke:#000000;stroke-width:1.0;" x1="472" x2="472" y1="35.3441" y2="43.3441"/><line style="stroke:#000000;stroke-width:1.0;" x1="178" x2="178" y1="226.7853" y2="247.1294"/><line style="stroke:#000000;stroke-width:1.0;" x1="472" x2="472" y1="226.7853" y2="247.1294"/><line style="stroke:#000000;stroke-width:1.0;" x1="178" x2="178" y1="430.5705" y2="448.9146"/><line style="stroke:#000000;stroke-width:1.0;" x1="472" x2="472" y1="430.5705" y2="448.9146"/><line style="stroke:#000000;stroke-width:1.0;" x1="178" x2="178" y1="80.0323" y2="98.3765"/><line style="stroke:#000000;stroke-width:1.0;" x1="472" x2="472" y1="80.0323" y2="98.3765"/><line style="stroke:#000000;stroke-width:1.0;" x1="178" x2="178" y1="283.8176" y2="302.1617"/><line style="stroke:#000000;stroke-width:1.0;" x1="472" x2="472" y1="283.8176" y2="302.1617"/><line style="stroke:#000000;stroke-width:1.0;" x1="178" x2="178" y1="485.6029" y2="503.947"/><line style="stroke:#000000;stroke-width:1.0;" x1="472" x2="472" y1="485.6029" y2="503.947"/><line style="stroke:#000000;stroke-width:1.0;" x1="178" x2="178" y1="135.0647" y2="153.4088"/><line style="stroke:#000000;stroke-width:1.0;" x1="472" x2="472" y1="135.0647" y2="153.4088"/><line style="stroke:#000000;stroke-width:1.0;" x1="178" x2="178" y1="338.8499" y2="357.1941"/><line style="stroke:#000000;stroke-width:1.0;" x1="472" x2="472" y1="338.8499" y2="357.1941"/><line style="stroke:#000000;stroke-width:1.0;" x1="178" x2="178" y1="190.097" y2="208.4411"/><line style="stroke:#000000;stroke-width:1.0;" x1="472" x2="472" y1="190.097" y2="208.4411"/><line style="stroke:#000000;stroke-width:1.0;" x1="178" x2="178" y1="393.8823" y2="412.2264"/><line style="stroke:#000000;stroke-width:1.0;" x1="472" x2="472" y1="393.8823" y2="412.2264"/><line style="stroke:#000000;stroke-width:1.0;" x1="178" x2="178" y1="43.3441" y2="61.6882"/><line style="stroke:#000000;stroke-width:1.0;" x1="472" x2="472" y1="43.3441" y2="61.6882"/><line style="stroke:#000000;stroke-width:1.0;" x1="178" x2="178" y1="247.1294" y2="265.4735"/><line style="stroke:#000000;stroke-width:1.0;" x1="472" x2="472" y1="247.1294" y2="265.4735"/><line style="stroke:#000000;stroke-width:1.0;" x1="178" x2="178" y1="448.9146" y2="467.2587"/><line style="stroke:#000000;stroke-width:1.0;" x1="472" x2="472" y1="448.9146" y2="467.2587"/><line style="stroke:#000000;stroke-width:1.0;" x1="178" x2="178" y1="98.3765" y2="116.7206"/><line style="stroke:#000000;stroke-width:1.0;" x1="472" x2="472" y1="98.3765" y2="116.7206"/><line style="stroke:#000000;stroke-width:1.0;" x1="178" x2="178" y1="302.1617" y2="320.5058"/><line style="stroke:#000000;stroke-width:1.0;" x1="472" x2="472" y1="302.1617" y2="320.5058"/><line style="stroke:#000000;stroke-width:1.0;" x1="178" x2="178" y1="503.947" y2="522.2911"/><line style="stroke:#000000;stroke-width:1.0;" x1="472" x2="472" y1="503.947" y2="522.2911"/><line style="stroke:#000000;stroke-width:1.0;" x1="178" x2="178" y1="153.4088" y2="171.7529"/><line style="stroke:#000000;stroke-width:1.0;" x1="472" x2="472" y1="153.4088" y2="171.7529"/><line style="stroke:#000000;stroke-width:1.0;" x1="178" x2="178" y1="357.1941" y2="375.5382"/><line style="stroke:#000000;stroke-width:1.0;" x1="472" x2="472" y1="357.1941" y2="375.5382"/><text fill="#808080" font-family="sans-serif" font-size="10" lengthAdjust="spacing" textLength="48" x="481" y="18.69">Saisisseur</text><text fill="#000000" font-family="sans-serif" font-size="12" lengthAdjust="spacing" textLength="70" x="481" y="36.4481">Observateur</text><text fill="#808080" font-family="sans-serif" font-size="10" lengthAdjust="spacing" textLength="58" x="481" y="70.9982">Mode saisie</text><text fill="#808080" font-family="sans-serif" font-size="10" font-weight="bold" lengthAdjust="spacing" textLength="36" x="542" y="70.9982">terrain</text><line style="stroke:#000000;stroke-width:1.0;" x1="479" x2="580" y1="6" y2="6"/><line style="stroke:#000000;stroke-width:1.0;" x1="479" x2="580" y1="75.9282" y2="75.9282"/><line style="stroke:#000000;stroke-width:1.0;" x1="479" x2="479" y1="6" y2="75.9282"/><line style="stroke:#000000;stroke-width:1.0;" x1="580" x2="580" y1="6" y2="75.9282"/><line style="stroke:#AAAAAA;stroke-width:1.0;" x1="6" x2="165" y1="527.7911" y2="527.7911"/><line style="stroke:#AAAAAA;stroke-width:1.0;" x1="166" x2="177" y1="527.7911" y2="527.7911"/><line style="stroke:#AAAAAA;stroke-width:1.0;" x1="178" x2="473" y1="527.7911" y2="527.7911"/><rect fill="#EEEEEE" height="20.3441" rx="5" ry="5" style="stroke:#000000;stroke-width:2.5;" width="52" x="9.5" y="535.7911"/><text fill="#000000" font-family="sans-serif" font-size="12" lengthAdjust="spacing" textLength="41" x="15" y="550.6192">Fermer</text><rect fill="#EEEEEE" height="20.3441" rx="5" ry="5" style="stroke:#000000;stroke-width:2.5;" width="92" x="68.5" y="535.7911"/><text fill="#000000" font-family="sans-serif" font-size="12" lengthAdjust="spacing" textLength="72" x="78.5" y="550.6192">Sauvegarder</text></g></svg>