<?xml version="1.0" encoding="us-ascii" standalone="no"?><svg xmlns="http://www.w3.org/2000/svg" xmlns:xlink="http://www.w3.org/1999/xlink" contentStyleType="text/css" height="510px" preserveAspectRatio="none" style="width:581px;height:510px;background:#FFFFFF;" version="1.1" viewBox="0 0 581 510" width="581px" zoomAndPan="magnify"><defs><filter height="1" id="b1nx9cstoxbgda0" width="1" x="0" y="0"><feFlood flood-color="#DDDDDD" result="flood"/><feComposite in="SourceGraphic" in2="flood" operator="over"/></filter></defs><g><text fill="#808080" font-family="sans-serif" font-size="20" font-weight="bold" lengthAdjust="spacing" textLength="87" x="8" y="28.7617">OBSMER</text><text fill="#000000" font-family="sans-serif" font-size="12" lengthAdjust="spacing" textLength="67" x="8" y="47.6133">Observateur</text><line style="stroke:#AAAAAA;stroke-width:1.0;" x1="8" x2="124" y1="89.9375" y2="89.9375"/><text fill="#000000" font-family="sans-serif" font-size="12" lengthAdjust="spacing" textLength="39" x="8" y="106.8945">Accueil</text><text fill="#808080" font-family="sans-serif" font-size="10" lengthAdjust="spacing" textLength="88" x="8" y="139.0059">saisie des donn&#233;es</text><line style="stroke:#AAAAAA;stroke-width:1.0;" x1="8" x2="124" y1="146.7031" y2="146.7031"/><text fill="#000000" filter="url(#b1nx9cstoxbgda0)" font-family="sans-serif" font-size="12" lengthAdjust="spacing" textLength="41" x="18" y="163.6602">Mar&#233;es</text><text fill="#000000" font-family="sans-serif" font-size="12" lengthAdjust="spacing" textLength="39" x="28" y="178.7539">Engins</text><text fill="#000000" font-family="sans-serif" font-size="12" lengthAdjust="spacing" textLength="61" x="28" y="193.8477">Op&#233;rations</text><text fill="#000000" font-family="sans-serif" font-size="12" lengthAdjust="spacing" textLength="51" x="38" y="208.9414">Captures</text><rect fill="none" height="2" style="stroke:#888888;stroke-width:1.0;" width="2" x="11" y="157.75"/><line style="stroke:#888888;stroke-width:1.0;" x1="12" x2="12" y1="160.75" y2="173.8438"/><line style="stroke:#888888;stroke-width:1.0;" x1="12" x2="20" y1="173.8438" y2="173.8438"/><rect fill="none" height="2" style="stroke:#888888;stroke-width:1.0;" width="2" x="21" y="187.9375"/><line style="stroke:#888888;stroke-width:1.0;" x1="12" x2="12" y1="160.75" y2="188.9375"/><line style="stroke:#888888;stroke-width:1.0;" x1="12" x2="20" y1="188.9375" y2="188.9375"/><line style="stroke:#888888;stroke-width:1.0;" x1="22" x2="22" y1="190.9375" y2="204.0313"/><line style="stroke:#888888;stroke-width:1.0;" x1="22" x2="30" y1="204.0313" y2="204.0313"/><text fill="#000000" font-family="sans-serif" font-size="12" lengthAdjust="spacing" textLength="39" x="8" y="226.0352">Sorties</text><text fill="#808080" font-family="sans-serif" font-size="10" lengthAdjust="spacing" textLength="56" x="8" y="258.1465">R&#233;f&#233;rentiels</text><line style="stroke:#AAAAAA;stroke-width:1.0;" x1="8" x2="124" y1="265.8438" y2="265.8438"/><text fill="#000000" font-family="sans-serif" font-size="12" lengthAdjust="spacing" textLength="42" x="8" y="282.8008">Navires</text><text fill="#000000" font-family="sans-serif" font-size="12" lengthAdjust="spacing" textLength="73" x="8" y="299.8945">Programmes</text><text fill="#000000" font-family="sans-serif" font-size="12" lengthAdjust="spacing" textLength="67" x="8" y="316.9883">R&#233;f&#233;rentiels</text><text fill="#000000" font-family="sans-serif" font-size="12" lengthAdjust="spacing" textLength="63" x="8" y="334.082">Utilisateurs</text><line style="stroke:#AAAAAA;stroke-width:1.0;" x1="8" x2="124" y1="342.2188" y2="342.2188"/><text fill="#808080" font-family="sans-serif" font-size="10" lengthAdjust="spacing" textLength="40" x="8" y="374.1934">Syst&#232;me</text><line style="stroke:#AAAAAA;stroke-width:1.0;" x1="8" x2="124" y1="381.8906" y2="381.8906"/><text fill="#000000" font-family="sans-serif" font-size="12" lengthAdjust="spacing" textLength="115" x="8" y="398.8477">Param&#232;tres syst&#232;me</text><line style="stroke:#AAAAAA;stroke-width:1.0;" x1="8" x2="124" y1="424.0781" y2="424.0781"/><text fill="#000000" font-family="sans-serif" font-size="12" lengthAdjust="spacing" textLength="86" x="8" y="441.0352">Se d&#233;connecter</text><line style="stroke:#AAAAAA;stroke-width:1.0;" x1="8" x2="124" y1="449.1719" y2="449.1719"/><text fill="#808080" font-family="sans-serif" font-size="10" lengthAdjust="spacing" textLength="80" x="8" y="466.0527">V XXX - &#224; propos</text><line style="stroke:#000000;stroke-width:1.0;" x1="6" x2="160" y1="6" y2="6"/><line style="stroke:#000000;stroke-width:1.0;" x1="6" x2="160" y1="470.25" y2="470.25"/><line style="stroke:#000000;stroke-width:1.0;" x1="6" x2="6" y1="6" y2="453.6719"/><line style="stroke:#000000;stroke-width:1.0;" x1="160" x2="160" y1="453.6719" y2="470.25"/><line style="stroke:#000000;stroke-width:1.0;" x1="160" x2="160" y1="6" y2="453.6719"/><line style="stroke:#000000;stroke-width:1.0;" x1="6" x2="6" y1="453.6719" y2="470.25"/><rect fill="#EEEEEE" height="19.0938" rx="5" ry="5" style="stroke:#000000;stroke-width:2.5;" width="60" x="182.5" y="10.5"/><text fill="#000000" font-family="sans-serif" font-size="12" font-weight="bold" lengthAdjust="spacing" textLength="45" x="190" y="24.957">Capture</text><line style="stroke:#AAAAAA;stroke-width:1.0;" x1="179" x2="472" y1="38.5938" y2="38.5938"/><text fill="#000000" font-family="sans-serif" font-size="12" font-weight="bold" lengthAdjust="spacing" textLength="102" x="275" y="227.4883">Fen&#234;tre principale</text><line style="stroke:#000000;stroke-width:1.0;" x1="178" x2="472" y1="6" y2="6"/><line style="stroke:#000000;stroke-width:1.0;" x1="178" x2="472" y1="471.4375" y2="471.4375"/><line style="stroke:#000000;stroke-width:1.0;" x1="178" x2="178" y1="6" y2="34.0938"/><line style="stroke:#000000;stroke-width:1.0;" x1="472" x2="472" y1="6" y2="34.0938"/><line style="stroke:#000000;stroke-width:1.0;" x1="178" x2="178" y1="195.9375" y2="213.0313"/><line style="stroke:#000000;stroke-width:1.0;" x1="472" x2="472" y1="195.9375" y2="213.0313"/><line style="stroke:#000000;stroke-width:1.0;" x1="178" x2="178" y1="385.9688" y2="403.0625"/><line style="stroke:#000000;stroke-width:1.0;" x1="472" x2="472" y1="385.9688" y2="403.0625"/><line style="stroke:#000000;stroke-width:1.0;" x1="178" x2="178" y1="59.1875" y2="76.2813"/><line style="stroke:#000000;stroke-width:1.0;" x1="472" x2="472" y1="59.1875" y2="76.2813"/><line style="stroke:#000000;stroke-width:1.0;" x1="178" x2="178" y1="249.2188" y2="266.3125"/><line style="stroke:#000000;stroke-width:1.0;" x1="472" x2="472" y1="249.2188" y2="266.3125"/><line style="stroke:#000000;stroke-width:1.0;" x1="178" x2="178" y1="437.25" y2="454.3438"/><line style="stroke:#000000;stroke-width:1.0;" x1="472" x2="472" y1="437.25" y2="454.3438"/><line style="stroke:#000000;stroke-width:1.0;" x1="178" x2="178" y1="110.4688" y2="127.5625"/><line style="stroke:#000000;stroke-width:1.0;" x1="472" x2="472" y1="110.4688" y2="127.5625"/><line style="stroke:#000000;stroke-width:1.0;" x1="178" x2="178" y1="300.5" y2="317.5938"/><line style="stroke:#000000;stroke-width:1.0;" x1="472" x2="472" y1="300.5" y2="317.5938"/><line style="stroke:#000000;stroke-width:1.0;" x1="178" x2="178" y1="161.75" y2="178.8438"/><line style="stroke:#000000;stroke-width:1.0;" x1="472" x2="472" y1="161.75" y2="178.8438"/><line style="stroke:#000000;stroke-width:1.0;" x1="178" x2="178" y1="351.7813" y2="368.875"/><line style="stroke:#000000;stroke-width:1.0;" x1="472" x2="472" y1="351.7813" y2="368.875"/><line style="stroke:#000000;stroke-width:1.0;" x1="178" x2="178" y1="34.0938" y2="42.0938"/><line style="stroke:#000000;stroke-width:1.0;" x1="472" x2="472" y1="34.0938" y2="42.0938"/><line style="stroke:#000000;stroke-width:1.0;" x1="178" x2="178" y1="213.0313" y2="232.125"/><line style="stroke:#000000;stroke-width:1.0;" x1="472" x2="472" y1="213.0313" y2="232.125"/><line style="stroke:#000000;stroke-width:1.0;" x1="178" x2="178" y1="403.0625" y2="420.1563"/><line style="stroke:#000000;stroke-width:1.0;" x1="472" x2="472" y1="403.0625" y2="420.1563"/><line style="stroke:#000000;stroke-width:1.0;" x1="178" x2="178" y1="76.2813" y2="93.375"/><line style="stroke:#000000;stroke-width:1.0;" x1="472" x2="472" y1="76.2813" y2="93.375"/><line style="stroke:#000000;stroke-width:1.0;" x1="178" x2="178" y1="266.3125" y2="283.4063"/><line style="stroke:#000000;stroke-width:1.0;" x1="472" x2="472" y1="266.3125" y2="283.4063"/><line style="stroke:#000000;stroke-width:1.0;" x1="178" x2="178" y1="454.3438" y2="471.4375"/><line style="stroke:#000000;stroke-width:1.0;" x1="472" x2="472" y1="454.3438" y2="471.4375"/><line style="stroke:#000000;stroke-width:1.0;" x1="178" x2="178" y1="127.5625" y2="144.6563"/><line style="stroke:#000000;stroke-width:1.0;" x1="472" x2="472" y1="127.5625" y2="144.6563"/><line style="stroke:#000000;stroke-width:1.0;" x1="178" x2="178" y1="317.5938" y2="334.6875"/><line style="stroke:#000000;stroke-width:1.0;" x1="472" x2="472" y1="317.5938" y2="334.6875"/><line style="stroke:#000000;stroke-width:1.0;" x1="178" x2="178" y1="178.8438" y2="195.9375"/><line style="stroke:#000000;stroke-width:1.0;" x1="472" x2="472" y1="178.8438" y2="195.9375"/><line style="stroke:#000000;stroke-width:1.0;" x1="178" x2="178" y1="368.875" y2="385.9688"/><line style="stroke:#000000;stroke-width:1.0;" x1="472" x2="472" y1="368.875" y2="385.9688"/><line style="stroke:#000000;stroke-width:1.0;" x1="178" x2="178" y1="42.0938" y2="59.1875"/><line style="stroke:#000000;stroke-width:1.0;" x1="472" x2="472" y1="42.0938" y2="59.1875"/><line style="stroke:#000000;stroke-width:1.0;" x1="178" x2="178" y1="232.125" y2="249.2188"/><line style="stroke:#000000;stroke-width:1.0;" x1="472" x2="472" y1="232.125" y2="249.2188"/><line style="stroke:#000000;stroke-width:1.0;" x1="178" x2="178" y1="420.1563" y2="437.25"/><line style="stroke:#000000;stroke-width:1.0;" x1="472" x2="472" y1="420.1563" y2="437.25"/><line style="stroke:#000000;stroke-width:1.0;" x1="178" x2="178" y1="93.375" y2="110.4688"/><line style="stroke:#000000;stroke-width:1.0;" x1="472" x2="472" y1="93.375" y2="110.4688"/><line style="stroke:#000000;stroke-width:1.0;" x1="178" x2="178" y1="283.4063" y2="300.5"/><line style="stroke:#000000;stroke-width:1.0;" x1="472" x2="472" y1="283.4063" y2="300.5"/><line style="stroke:#000000;stroke-width:1.0;" x1="178" x2="178" y1="144.6563" y2="161.75"/><line style="stroke:#000000;stroke-width:1.0;" x1="472" x2="472" y1="144.6563" y2="161.75"/><line style="stroke:#000000;stroke-width:1.0;" x1="178" x2="178" y1="334.6875" y2="351.7813"/><line style="stroke:#000000;stroke-width:1.0;" x1="472" x2="472" y1="334.6875" y2="351.7813"/><text fill="#808080" font-family="sans-serif" font-size="10" lengthAdjust="spacing" textLength="46" x="481" y="18.3809">Saisisseur</text><text fill="#000000" font-family="sans-serif" font-size="12" lengthAdjust="spacing" textLength="67" x="481" y="35.0352">Observateur</text><text fill="#808080" font-family="sans-serif" font-size="10" lengthAdjust="spacing" textLength="56" x="481" y="67.1465">Mode saisie</text><text fill="#808080" font-family="sans-serif" font-size="10" font-weight="bold" lengthAdjust="spacing" textLength="32" x="540" y="67.1465">terrain</text><line style="stroke:#000000;stroke-width:1.0;" x1="479" x2="574" y1="6" y2="6"/><line style="stroke:#000000;stroke-width:1.0;" x1="479" x2="574" y1="71.3438" y2="71.3438"/><line style="stroke:#000000;stroke-width:1.0;" x1="479" x2="479" y1="6" y2="71.3438"/><line style="stroke:#000000;stroke-width:1.0;" x1="574" x2="574" y1="6" y2="71.3438"/><line style="stroke:#AAAAAA;stroke-width:1.0;" x1="6" x2="165" y1="476.9375" y2="476.9375"/><line style="stroke:#AAAAAA;stroke-width:1.0;" x1="166" x2="177" y1="476.9375" y2="476.9375"/><line style="stroke:#AAAAAA;stroke-width:1.0;" x1="178" x2="473" y1="476.9375" y2="476.9375"/><rect fill="#EEEEEE" height="19.0938" rx="5" ry="5" style="stroke:#000000;stroke-width:2.5;" width="52" x="9.5" y="484.9375"/><text fill="#000000" font-family="sans-serif" font-size="12" lengthAdjust="spacing" textLength="40" x="15.5" y="499.3945">Fermer</text><rect fill="#EEEEEE" height="19.0938" rx="5" ry="5" style="stroke:#000000;stroke-width:2.5;" width="92" x="68.5" y="484.9375"/><text fill="#000000" font-family="sans-serif" font-size="12" lengthAdjust="spacing" textLength="70" x="79.5" y="499.3945">Sauvegarder</text></g></svg>