<?xml version="1.0" encoding="us-ascii" standalone="no"?><svg xmlns="http://www.w3.org/2000/svg" xmlns:xlink="http://www.w3.org/1999/xlink" contentStyleType="text/css" height="447px" preserveAspectRatio="none" style="width:461px;height:447px;background:#FFFFFF;" version="1.1" viewBox="0 0 461 447" width="461px" zoomAndPan="magnify"><defs><filter height="1" id="b1qxi1l6s4w9sf0" width="1" x="0" y="0"><feFlood flood-color="#FF0000" result="flood"/><feComposite in="SourceGraphic" in2="flood" operator="over"/></filter></defs><g><text fill="#808080" font-family="sans-serif" font-size="20" font-weight="bold" lengthAdjust="spacing" textLength="87" x="8" y="29.582">OBSMER</text><text fill="#808080" font-family="sans-serif" font-size="10" lengthAdjust="spacing" textLength="56" x="8" y="47.3926">Observateur</text><line style="stroke:#AAAAAA;stroke-width:1.0;" x1="8" x2="102" y1="91.3242" y2="91.3242"/><text fill="#808080" font-family="sans-serif" font-size="10" lengthAdjust="spacing" textLength="37" x="8" y="106.6152">Accueil</text><text fill="#808080" font-family="sans-serif" font-size="10" lengthAdjust="spacing" textLength="88" x="8" y="142.5371">saisie des donn&#233;es</text><line style="stroke:#AAAAAA;stroke-width:1.0;" x1="8" x2="102" y1="150.5469" y2="150.5469"/><text fill="#808080" font-family="sans-serif" font-size="10" lengthAdjust="spacing" textLength="34" x="8" y="165.8379">Mar&#233;es</text><text fill="#808080" font-family="sans-serif" font-size="10" lengthAdjust="spacing" textLength="32" x="8" y="183.7988">Sorties</text><text fill="#808080" font-family="sans-serif" font-size="10" lengthAdjust="spacing" textLength="56" x="8" y="219.7207">R&#233;f&#233;rentiels</text><line style="stroke:#AAAAAA;stroke-width:1.0;" x1="8" x2="102" y1="227.7305" y2="227.7305"/><text fill="#808080" font-family="sans-serif" font-size="10" lengthAdjust="spacing" textLength="34" x="8" y="243.0215">Navires</text><text fill="#808080" font-family="sans-serif" font-size="10" lengthAdjust="spacing" textLength="59" x="8" y="260.9824">Programmes</text><text fill="#808080" font-family="sans-serif" font-size="10" lengthAdjust="spacing" textLength="56" x="8" y="278.9434">R&#233;f&#233;rentiels</text><text fill="#808080" font-family="sans-serif" font-size="10" lengthAdjust="spacing" textLength="51" x="8" y="296.9043">Utilisateurs</text><line style="stroke:#AAAAAA;stroke-width:1.0;" x1="8" x2="102" y1="307.5742" y2="307.5742"/><text fill="#808080" font-family="sans-serif" font-size="10" lengthAdjust="spacing" textLength="40" x="8" y="340.8262">Syst&#232;me</text><line style="stroke:#AAAAAA;stroke-width:1.0;" x1="8" x2="102" y1="348.8359" y2="348.8359"/><text fill="#808080" font-family="sans-serif" font-size="10" lengthAdjust="spacing" textLength="93" x="8" y="364.127">Param&#232;tres syst&#232;me</text><line style="stroke:#AAAAAA;stroke-width:1.0;" x1="8" x2="102" y1="392.7578" y2="392.7578"/><text fill="#808080" font-family="sans-serif" font-size="10" lengthAdjust="spacing" textLength="76" x="8" y="408.0488">Se d&#233;connecter</text><line style="stroke:#AAAAAA;stroke-width:1.0;" x1="8" x2="102" y1="418.7188" y2="418.7188"/><text fill="#808080" font-family="sans-serif" font-size="10" lengthAdjust="spacing" textLength="80" x="8" y="436.0098">V XXX - &#224; propos</text><line style="stroke:#000000;stroke-width:1.0;" x1="6" x2="138" y1="6" y2="6"/><line style="stroke:#000000;stroke-width:1.0;" x1="6" x2="138" y1="440.5195" y2="440.5195"/><line style="stroke:#000000;stroke-width:1.0;" x1="6" x2="6" y1="6" y2="423.2188"/><line style="stroke:#000000;stroke-width:1.0;" x1="138" x2="138" y1="423.2188" y2="440.5195"/><line style="stroke:#000000;stroke-width:1.0;" x1="138" x2="138" y1="6" y2="423.2188"/><line style="stroke:#000000;stroke-width:1.0;" x1="6" x2="6" y1="423.2188" y2="440.5195"/><line style="stroke:#AAAAAA;stroke-width:1.0;" x1="147" x2="453" y1="137.2266" y2="137.2266"/><text fill="#000000" filter="url(#b1qxi1l6s4w9sf0)" font-family="sans-serif" font-size="16" font-weight="bold" lengthAdjust="spacing" textLength="120" x="228" y="159.9922">Authentification</text><text fill="#000000" font-family="sans-serif" font-size="12" lengthAdjust="spacing" textLength="37" x="228" y="180.957">Email*</text><text fill="#000000" font-family="sans-serif" font-size="12" lengthAdjust="spacing" textLength="3" x="231" y="200.918">&#160;</text><line style="stroke:#000000;stroke-width:1.0;" x1="229" x2="392" y1="203.9297" y2="203.9297"/><line style="stroke:#000000;stroke-width:1.0;" x1="229" x2="229" y1="200.9297" y2="202.9297"/><line style="stroke:#000000;stroke-width:1.0;" x1="392" x2="392" y1="200.9297" y2="202.9297"/><text fill="#000000" font-family="sans-serif" font-size="12" lengthAdjust="spacing" textLength="79" x="228" y="222.8789">Mot de passe*</text><text fill="#000000" font-family="sans-serif" font-size="12" lengthAdjust="spacing" textLength="3" x="231" y="242.8398">&#160;</text><line style="stroke:#000000;stroke-width:1.0;" x1="229" x2="392" y1="245.8516" y2="245.8516"/><line style="stroke:#000000;stroke-width:1.0;" x1="229" x2="229" y1="242.8516" y2="244.8516"/><line style="stroke:#000000;stroke-width:1.0;" x1="392" x2="392" y1="242.8516" y2="244.8516"/><text fill="#000000" font-family="sans-serif" font-size="12" font-weight="bold" lengthAdjust="spacing" textLength="15" x="396" y="242.8398">(o)</text><text fill="#000000" font-family="sans-serif" font-size="12" lengthAdjust="spacing" textLength="37" x="228" y="264.8008">Noeud</text><text fill="#000000" font-family="sans-serif" font-size="12" lengthAdjust="spacing" text-decoration="underline" textLength="51" x="322" y="264.8008">OBSMER</text><rect fill="#EEEEEE" height="19.9609" rx="5" ry="5" style="stroke:#000000;stroke-width:2.5;" width="60" x="230.5" y="274.3125"/><text fill="#000000" font-family="sans-serif" font-size="12" lengthAdjust="spacing" textLength="42" x="239.5" y="289.2617">Annuler</text><rect fill="#EEEEEE" height="19.9609" rx="5" ry="5" style="stroke:#000000;stroke-width:2.5;" width="100" x="302.5" y="274.3125"/><text fill="#000000" font-family="sans-serif" font-size="12" lengthAdjust="spacing" textLength="75" x="315" y="289.2617">Se Connecter</text><line style="stroke:#AAAAAA;stroke-width:1.0;" x1="147" x2="453" y1="303.2734" y2="303.2734"/><line style="stroke:#000000;stroke-width:1.0;" x1="145" x2="454" y1="6" y2="6"/><line style="stroke:#000000;stroke-width:1.0;" x1="145" x2="454" y1="433.5" y2="433.5"/><line style="stroke:#000000;stroke-width:1.0;" x1="145" x2="145" y1="6" y2="23.9609"/><line style="stroke:#000000;stroke-width:1.0;" x1="454" x2="454" y1="6" y2="23.9609"/><line style="stroke:#000000;stroke-width:1.0;" x1="145" x2="145" y1="361.6563" y2="379.6172"/><line style="stroke:#000000;stroke-width:1.0;" x1="454" x2="454" y1="361.6563" y2="379.6172"/><line style="stroke:#000000;stroke-width:1.0;" x1="145" x2="145" y1="131.7266" y2="307.7734"/><line style="stroke:#000000;stroke-width:1.0;" x1="454" x2="454" y1="131.7266" y2="307.7734"/><line style="stroke:#000000;stroke-width:1.0;" x1="145" x2="145" y1="59.8828" y2="77.8438"/><line style="stroke:#000000;stroke-width:1.0;" x1="454" x2="454" y1="59.8828" y2="77.8438"/><line style="stroke:#000000;stroke-width:1.0;" x1="145" x2="145" y1="415.5391" y2="433.5"/><line style="stroke:#000000;stroke-width:1.0;" x1="454" x2="454" y1="415.5391" y2="433.5"/><line style="stroke:#000000;stroke-width:1.0;" x1="145" x2="145" y1="343.6953" y2="361.6563"/><line style="stroke:#000000;stroke-width:1.0;" x1="454" x2="454" y1="343.6953" y2="361.6563"/><line style="stroke:#000000;stroke-width:1.0;" x1="145" x2="145" y1="113.7656" y2="131.7266"/><line style="stroke:#000000;stroke-width:1.0;" x1="454" x2="454" y1="113.7656" y2="131.7266"/><line style="stroke:#000000;stroke-width:1.0;" x1="145" x2="145" y1="41.9219" y2="59.8828"/><line style="stroke:#000000;stroke-width:1.0;" x1="454" x2="454" y1="41.9219" y2="59.8828"/><line style="stroke:#000000;stroke-width:1.0;" x1="145" x2="145" y1="397.5781" y2="415.5391"/><line style="stroke:#000000;stroke-width:1.0;" x1="454" x2="454" y1="397.5781" y2="415.5391"/><line style="stroke:#000000;stroke-width:1.0;" x1="145" x2="145" y1="325.7344" y2="343.6953"/><line style="stroke:#000000;stroke-width:1.0;" x1="454" x2="454" y1="325.7344" y2="343.6953"/><line style="stroke:#000000;stroke-width:1.0;" x1="145" x2="145" y1="95.8047" y2="113.7656"/><line style="stroke:#000000;stroke-width:1.0;" x1="454" x2="454" y1="95.8047" y2="113.7656"/><line style="stroke:#000000;stroke-width:1.0;" x1="145" x2="145" y1="23.9609" y2="41.9219"/><line style="stroke:#000000;stroke-width:1.0;" x1="454" x2="454" y1="23.9609" y2="41.9219"/><line style="stroke:#000000;stroke-width:1.0;" x1="145" x2="145" y1="379.6172" y2="397.5781"/><line style="stroke:#000000;stroke-width:1.0;" x1="454" x2="454" y1="379.6172" y2="397.5781"/><line style="stroke:#000000;stroke-width:1.0;" x1="145" x2="145" y1="307.7734" y2="325.7344"/><line style="stroke:#000000;stroke-width:1.0;" x1="454" x2="454" y1="307.7734" y2="325.7344"/><line style="stroke:#000000;stroke-width:1.0;" x1="145" x2="145" y1="77.8438" y2="95.8047"/><line style="stroke:#000000;stroke-width:1.0;" x1="454" x2="454" y1="77.8438" y2="95.8047"/><!--SRC=[lLLHRzem47xthpZr2JQ1IDXuY2WgfMmI8os2bI5LVJ29OTOI6zaE4gFybpsMtv4_jWk4TgWm4gd2aYtBkk_ptVc-yvKsL1bD0qEM163v4HT8TfjH7pVg4oaCU3AGwdAgs08q_yqkxKhZxdhWjlk9rHEKZyqNeeCi5hACDLDpQbYaThRbDvjIwIHFq_CYneFKdJSCHt6QSiqP-4o3BuM8rqpdkDMbAa6aPfa27aXb-478QMm_Na_YjM826O8yVjxIELSlbsPniwVaLD4mp1VSleDvaFU61rnlwk0GxZN631bUQ1C_Xon7VdeKOusVJP8ZdS8FFL0EoW4MLRpsiAQOPvWw5jAA_2kuesn368r6K8Bu3yoKd4cznU9CbROLRigUPLsY0tiZFVsFc3DEx1hK- -KevkyrZt60furw4f5ZrHhOMfgH-PcKoeHxr70fu3JvwlsyR8UK1n-sMNmdoWiuC2xE6vOh3NOpc56jsRcYmxSioE9PmxoLBFBpWUfH-cUTqqzuQ0eH1KmzRihW2HwmCRHsNU4nQyuEQNMLK_5edq1A9IHE5q9Mv8e9V_F_arv0XRbtkp1dIYTwjCfsnQwMBQlmW_amO3Emgc1N7BlcLAlGQW- -Gs9G98MllIve6IaFknxNHl5nb2YwI3fqJg4VeSf3vi3TZ8dEpRVT0RG5_ajIXDW5I6VelXhKFfMkkS4h5Ve2GvVSi0cD0eC8J_fSJ1repIpxiqswL4mZEaNoYI8jYSHguS2N_by0]--></g></svg>