<?xml version="1.0" encoding="us-ascii" standalone="no"?><svg xmlns="http://www.w3.org/2000/svg" xmlns:xlink="http://www.w3.org/1999/xlink" contentStyleType="text/css" height="118px" preserveAspectRatio="none" style="width:765px;height:118px;background:#FFFFFF;" version="1.1" viewBox="0 0 765 118" width="765px" zoomAndPan="magnify"><defs/><g><text fill="#000000" font-family="sans-serif" font-size="12" lengthAdjust="spacing" textLength="39" x="8" y="18.9492">D&#233;tails</text><line style="stroke:#000000;stroke-width:1.0;" x1="6" x2="6" y1="6" y2="21.9609"/><line style="stroke:#000000;stroke-width:1.0;" x1="6" x2="50" y1="6" y2="6"/><line style="stroke:#000000;stroke-width:1.0;" x1="50" x2="50" y1="6" y2="21.9609"/><line style="stroke:#000000;stroke-width:1.0;" x1="50" x2="60" y1="21.9609" y2="21.9609"/><text fill="#000000" font-family="sans-serif" font-size="12" lengthAdjust="spacing" textLength="39" x="62" y="18.9492">Engins</text><line style="stroke:#000000;stroke-width:1.0;" x1="60" x2="60" y1="6" y2="21.9609"/><line style="stroke:#000000;stroke-width:1.0;" x1="60" x2="104" y1="6" y2="6"/><line style="stroke:#000000;stroke-width:1.0;" x1="104" x2="104" y1="6" y2="21.9609"/><line style="stroke:#000000;stroke-width:1.0;" x1="104" x2="114" y1="21.9609" y2="21.9609"/><text fill="#000000" font-family="sans-serif" font-size="12" font-weight="bold" lengthAdjust="spacing" textLength="63" x="119" y="18.9492">Op&#233;rations</text><line style="stroke:#000000;stroke-width:1.0;" x1="114" x2="114" y1="6" y2="21.9609"/><line style="stroke:#000000;stroke-width:1.0;" x1="114" x2="185" y1="6" y2="6"/><line style="stroke:#000000;stroke-width:1.0;" x1="185" x2="185" y1="6" y2="21.9609"/><line style="stroke:#000000;stroke-width:1.0;" x1="185" x2="195" y1="21.9609" y2="21.9609"/><rect fill="#EEEEEE" height="12" rx="5" ry="5" style="stroke:#000000;stroke-width:2.5;" width="28" x="9.5" y="27.4609"/><path d="M22.5,29.4609 L22.5,32.4609 L19.5,32.4609 L19.5,34.4609 L22.5,34.4609 L22.5,37.4609 L24.5,37.4609 L24.5,34.4609 L27.5,34.4609 L27.5,32.4609 L24.5,32.4609 L24.5,29.4609 L22.5,29.4609 " fill="#000000" style="stroke:;stroke-width:0.0;stroke-dasharray:;"/><rect fill="#EEEEEE" height="12" rx="5" ry="5" style="stroke:#000000;stroke-width:2.5;" width="20" x="44.5" y="27.4609"/><path d="M50.5,29.4609 L54.5,33.4609 L58.5,29.4609 L50.5,29.4609 " fill="#000000" style="stroke:;stroke-width:0.0;stroke-dasharray:;"/><text fill="#000000" font-family="sans-serif" font-size="12" lengthAdjust="spacing" textLength="7" x="7" y="56.9102">#</text><text fill="#000000" font-family="sans-serif" font-size="12" font-weight="bold" lengthAdjust="spacing" textLength="22" x="42" y="56.9102">Etat</text><text fill="#000000" font-family="sans-serif" font-size="12" font-weight="bold" lengthAdjust="spacing" textLength="75" x="69" y="56.9102">Engins utilis&#233;</text><text fill="#000000" font-family="sans-serif" font-size="12" font-weight="bold" lengthAdjust="spacing" textLength="72" x="187" y="56.9102">Esp&#232;ce cible</text><text fill="#000000" font-family="sans-serif" font-size="12" font-weight="bold" lengthAdjust="spacing" textLength="113" x="278" y="56.9102">D&#233;but de l'op&#233;ration</text><text fill="#000000" font-family="sans-serif" font-size="12" font-weight="bold" lengthAdjust="spacing" textLength="82" x="396" y="56.9102">Position D&#233;but</text><text fill="#000000" font-family="sans-serif" font-size="12" font-weight="bold" lengthAdjust="spacing" textLength="96" x="528" y="56.9102">Fin de l'op&#233;ration</text><text fill="#000000" font-family="sans-serif" font-size="12" font-weight="bold" lengthAdjust="spacing" textLength="80" x="629" y="56.9102">Position de fin</text><text fill="#000000" font-family="sans-serif" font-size="12" lengthAdjust="spacing" textLength="7" x="7" y="74.8711">1</text><path d="M43,61.9219 L43,69.9219 L44,69.9219 L44,61.9219 L43,61.9219 M45,61.9219 L45,65.9219 L47,65.9219 L47,66.9219 L51,66.9219 L49,64.9519 L51,62.9219 L48,62.9219 L48,61.9219 L45,61.9219 " fill="#000000" style="stroke:;stroke-width:0.0;stroke-dasharray:;"/><text fill="#000000" font-family="sans-serif" font-size="12" lengthAdjust="spacing" textLength="116" x="69" y="74.8711">OTT- Chalut jumeaux</text><text fill="#000000" font-family="sans-serif" font-size="12" lengthAdjust="spacing" textLength="86" x="187" y="74.8711">MZZ - Poissons</text><text fill="#000000" font-family="sans-serif" font-size="12" lengthAdjust="spacing" textLength="96" x="275" y="74.8711">02/01/2024 07:35</text><text fill="#000000" font-family="sans-serif" font-size="12" lengthAdjust="spacing" textLength="130" x="393" y="74.8711">43&#176;9.354' N, 4&#176;21.996'E</text><text fill="#000000" font-family="sans-serif" font-size="12" lengthAdjust="spacing" textLength="96" x="525" y="74.8711">02/01/2024 08:35</text><text fill="#000000" font-family="sans-serif" font-size="12" lengthAdjust="spacing" textLength="130" x="626" y="74.8711">43&#176;4.497' N, 4&#176;42.869'E</text><line style="stroke:#000000;stroke-width:1.0;" x1="6" x2="41" y1="23.9609" y2="23.9609"/><line style="stroke:#000000;stroke-width:1.0;" x1="41" x2="68" y1="23.9609" y2="23.9609"/><line style="stroke:#000000;stroke-width:1.0;" x1="68" x2="186" y1="23.9609" y2="23.9609"/><line style="stroke:#000000;stroke-width:1.0;" x1="186" x2="274" y1="23.9609" y2="23.9609"/><line style="stroke:#000000;stroke-width:1.0;" x1="274" x2="392" y1="23.9609" y2="23.9609"/><line style="stroke:#000000;stroke-width:1.0;" x1="392" x2="524" y1="23.9609" y2="23.9609"/><line style="stroke:#000000;stroke-width:1.0;" x1="524" x2="625" y1="23.9609" y2="23.9609"/><line style="stroke:#000000;stroke-width:1.0;" x1="625" x2="757" y1="23.9609" y2="23.9609"/><line style="stroke:#000000;stroke-width:1.0;" x1="6" x2="41" y1="78.8828" y2="78.8828"/><line style="stroke:#000000;stroke-width:1.0;" x1="41" x2="68" y1="78.8828" y2="78.8828"/><line style="stroke:#000000;stroke-width:1.0;" x1="68" x2="186" y1="78.8828" y2="78.8828"/><line style="stroke:#000000;stroke-width:1.0;" x1="186" x2="274" y1="78.8828" y2="78.8828"/><line style="stroke:#000000;stroke-width:1.0;" x1="274" x2="392" y1="78.8828" y2="78.8828"/><line style="stroke:#000000;stroke-width:1.0;" x1="392" x2="524" y1="78.8828" y2="78.8828"/><line style="stroke:#000000;stroke-width:1.0;" x1="524" x2="625" y1="78.8828" y2="78.8828"/><line style="stroke:#000000;stroke-width:1.0;" x1="625" x2="757" y1="78.8828" y2="78.8828"/><line style="stroke:#000000;stroke-width:1.0;" x1="6" x2="41" y1="60.9219" y2="60.9219"/><line style="stroke:#000000;stroke-width:1.0;" x1="41" x2="68" y1="60.9219" y2="60.9219"/><line style="stroke:#000000;stroke-width:1.0;" x1="68" x2="186" y1="60.9219" y2="60.9219"/><line style="stroke:#000000;stroke-width:1.0;" x1="186" x2="274" y1="60.9219" y2="60.9219"/><line style="stroke:#000000;stroke-width:1.0;" x1="274" x2="392" y1="60.9219" y2="60.9219"/><line style="stroke:#000000;stroke-width:1.0;" x1="392" x2="524" y1="60.9219" y2="60.9219"/><line style="stroke:#000000;stroke-width:1.0;" x1="524" x2="625" y1="60.9219" y2="60.9219"/><line style="stroke:#000000;stroke-width:1.0;" x1="625" x2="757" y1="60.9219" y2="60.9219"/><line style="stroke:#000000;stroke-width:1.0;" x1="6" x2="41" y1="42.9609" y2="42.9609"/><line style="stroke:#000000;stroke-width:1.0;" x1="41" x2="68" y1="42.9609" y2="42.9609"/><line style="stroke:#000000;stroke-width:1.0;" x1="68" x2="186" y1="42.9609" y2="42.9609"/><line style="stroke:#000000;stroke-width:1.0;" x1="186" x2="274" y1="42.9609" y2="42.9609"/><line style="stroke:#000000;stroke-width:1.0;" x1="274" x2="392" y1="42.9609" y2="42.9609"/><line style="stroke:#000000;stroke-width:1.0;" x1="392" x2="524" y1="42.9609" y2="42.9609"/><line style="stroke:#000000;stroke-width:1.0;" x1="524" x2="625" y1="42.9609" y2="42.9609"/><line style="stroke:#000000;stroke-width:1.0;" x1="625" x2="757" y1="42.9609" y2="42.9609"/><line style="stroke:#000000;stroke-width:1.0;" x1="6" x2="6" y1="23.9609" y2="42.9609"/><line style="stroke:#000000;stroke-width:1.0;" x1="68" x2="68" y1="60.9219" y2="78.8828"/><line style="stroke:#000000;stroke-width:1.0;" x1="41" x2="41" y1="23.9609" y2="42.9609"/><line style="stroke:#000000;stroke-width:1.0;" x1="186" x2="186" y1="60.9219" y2="78.8828"/><line style="stroke:#000000;stroke-width:1.0;" x1="68" x2="68" y1="23.9609" y2="42.9609"/><line style="stroke:#000000;stroke-width:1.0;" x1="274" x2="274" y1="60.9219" y2="78.8828"/><line style="stroke:#000000;stroke-width:1.0;" x1="392" x2="392" y1="60.9219" y2="78.8828"/><line style="stroke:#000000;stroke-width:1.0;" x1="524" x2="524" y1="60.9219" y2="78.8828"/><line style="stroke:#000000;stroke-width:1.0;" x1="625" x2="625" y1="60.9219" y2="78.8828"/><line style="stroke:#000000;stroke-width:1.0;" x1="757" x2="757" y1="60.9219" y2="78.8828"/><line style="stroke:#000000;stroke-width:1.0;" x1="757" x2="757" y1="23.9609" y2="42.9609"/><line style="stroke:#000000;stroke-width:1.0;" x1="6" x2="6" y1="42.9609" y2="60.9219"/><line style="stroke:#000000;stroke-width:1.0;" x1="41" x2="41" y1="42.9609" y2="60.9219"/><line style="stroke:#000000;stroke-width:1.0;" x1="68" x2="68" y1="42.9609" y2="60.9219"/><line style="stroke:#000000;stroke-width:1.0;" x1="186" x2="186" y1="42.9609" y2="60.9219"/><line style="stroke:#000000;stroke-width:1.0;" x1="274" x2="274" y1="42.9609" y2="60.9219"/><line style="stroke:#000000;stroke-width:1.0;" x1="392" x2="392" y1="42.9609" y2="60.9219"/><line style="stroke:#000000;stroke-width:1.0;" x1="524" x2="524" y1="42.9609" y2="60.9219"/><line style="stroke:#000000;stroke-width:1.0;" x1="625" x2="625" y1="42.9609" y2="60.9219"/><line style="stroke:#000000;stroke-width:1.0;" x1="757" x2="757" y1="42.9609" y2="60.9219"/><line style="stroke:#000000;stroke-width:1.0;" x1="6" x2="6" y1="60.9219" y2="78.8828"/><line style="stroke:#000000;stroke-width:1.0;" x1="41" x2="41" y1="60.9219" y2="78.8828"/><line style="stroke:#AAAAAA;stroke-width:1.0;" x1="6" x2="758" y1="84.3828" y2="84.3828"/><rect fill="#EEEEEE" height="19.9609" rx="5" ry="5" style="stroke:#000000;stroke-width:2.5;" width="52" x="9.5" y="92.3828"/><text fill="#000000" font-family="sans-serif" font-size="12" lengthAdjust="spacing" textLength="40" x="15.5" y="107.332">Fermer</text><rect fill="#EEEEEE" height="19.9609" rx="5" ry="5" style="stroke:#000000;stroke-width:2.5;" width="92" x="68.5" y="92.3828"/><text fill="#000000" font-family="sans-serif" font-size="12" lengthAdjust="spacing" textLength="70" x="79.5" y="107.332">Sauvegarder</text><!--SRC=[XPBRRXen48QlwwSOAH8aKdVP4oIxGYWgXqeK4XHeAWNbmh1cwyfh8nzGA-1zmbsU8RnOlSlIIBcfh-n_Flypdl6jqbXgXPb6MuG0jWs0tl6WCMKATj3d6UN5fhtemFtwU91OKs4Ls2E4Fcqlx9LYpQ5TMpEZEi-MdRThIoo9TXP2Qv5tdYleukJJrrXNkvExqPHHTJoKq2cWriUN9O4bNJ1o5ekw5aP3Ie3LnRzQgk14A5eUA-ga3YZ_7s_3Aygh4lqYMbind7LsS3-RET3zYPcr-sLoWirl-B1sC7vw0iUwKQL4sIalQ7X-8_222Bph96nQAGhVNcCtR4PrkFiCqTjhuBjntAhtuGD_yyv7RXHVd_aeS6zQiULtPPtxObAEKywh5EO38dCYo-PFiTcG3ClKdb71xj4juMavOZHXcEllun5iY5J5wttNPWvTtx_yGLAOaZNu8GHU4hIIC8HkVpg30hX2bryd8r32I3kMb2ejgUsoTRX2Gxp1y62ufZb9x2SXVDZxTXRi3zfGANXEk4R3n_4xq8gSBrJRbDBM0ezZr2ChR9YsDvOYfJnBeBlsWsQ0HfXd1cVMV2LHLrXZ-IU1mSDV]--></g></svg>