<?xml version="1.0" encoding="UTF-8" standalone="no"?><svg xmlns="http://www.w3.org/2000/svg" xmlns:xlink="http://www.w3.org/1999/xlink" contentStyleType="text/css" height="117px" preserveAspectRatio="none" style="width:283px;height:117px;background:#FFFFFF;" version="1.1" viewBox="0 0 283 117" width="283px" zoomAndPan="magnify"><defs/><g><text fill="#000000" font-family="sans-serif" font-size="12" font-weight="bold" lengthAdjust="spacing" textLength="67" x="10" y="19.8281">Opérations</text><rect fill="#EEEEEE" height="12" rx="5" ry="5" style="stroke:#000000;stroke-width:2.5;" width="28" x="96.5" y="9.5"/><path d="M109.5,11.5 L109.5,14.5 L106.5,14.5 L106.5,16.5 L109.5,16.5 L109.5,19.5 L111.5,19.5 L111.5,16.5 L114.5,16.5 L114.5,14.5 L111.5,14.5 L111.5,11.5 L109.5,11.5 " fill="#000000" style="stroke:;stroke-width:0.0;stroke-dasharray:;"/><rect fill="#EEEEEE" height="12" rx="5" ry="5" style="stroke:#000000;stroke-width:2.5;" width="20" x="146.5" y="9.5"/><path d="M152.5,11.5 L156.5,15.5 L160.5,11.5 L152.5,11.5 " fill="#808080" style="stroke:;stroke-width:0.0;stroke-dasharray:;"/><line style="stroke:#AAAAAA;stroke-width:1.0;stroke-dasharray:1.0,2.0;" x1="6" x2="272" y1="30.5" y2="30.5"/><text fill="#000000" font-family="sans-serif" font-size="12" lengthAdjust="spacing" textLength="86" x="8" y="68.1722">Filtrer par état :</text><rect fill="#EEEEEE" height="19.3441" style="stroke:#000000;stroke-width:1.0;" width="167" x="101" y="55.3441"/><text fill="#000000" font-family="sans-serif" font-size="12" lengthAdjust="spacing" textLength="100" x="103" y="70.1722">En cours de saisie</text><line style="stroke:#000000;stroke-width:1.0;" x1="257" x2="257" y1="55.3441" y2="74.6882"/><polygon fill="#000000" points="260,61.3441,266,61.3441,263,69.6882" style="stroke:#000000;stroke-width:1.0;"/><line style="stroke:#AAAAAA;stroke-width:1.0;" x1="6" x2="272" y1="83.1882" y2="83.1882"/><text fill="#000000" font-family="sans-serif" font-size="12" lengthAdjust="spacing" textLength="59" x="7" y="101.5163">2 résultats</text><rect fill="#EEEEEE" height="20.3441" rx="5" ry="5" style="stroke:#000000;stroke-width:2.5;" width="52" x="85.5" y="91.1882"/><text fill="#000000" font-family="sans-serif" font-size="12" lengthAdjust="spacing" textLength="41" x="91" y="106.0163">Fermer</text><rect fill="#EEEEEE" height="20.3441" rx="5" ry="5" style="stroke:#000000;stroke-width:2.5;" width="76" x="144.5" y="91.1882"/><text fill="#000000" font-family="sans-serif" font-size="12" lengthAdjust="spacing" textLength="54" x="155.5" y="106.0163">Appliquer</text></g></svg>