<?xml version="1.0" encoding="us-ascii" standalone="no"?><svg xmlns="http://www.w3.org/2000/svg" xmlns:xlink="http://www.w3.org/1999/xlink" contentStyleType="text/css" height="334px" preserveAspectRatio="none" style="width:568px;height:334px;background:#FFFFFF;" version="1.1" viewBox="0 0 568 334" width="568px" zoomAndPan="magnify"><defs/><g><text fill="#000000" font-family="sans-serif" font-size="12" font-weight="bold" lengthAdjust="spacing" textLength="39" x="11" y="18.9492">D&#233;tails</text><line style="stroke:#000000;stroke-width:1.0;" x1="6" x2="6" y1="6" y2="21.9609"/><line style="stroke:#000000;stroke-width:1.0;" x1="6" x2="53" y1="6" y2="6"/><line style="stroke:#000000;stroke-width:1.0;" x1="53" x2="53" y1="6" y2="21.9609"/><line style="stroke:#000000;stroke-width:1.0;" x1="53" x2="63" y1="21.9609" y2="21.9609"/><text fill="#000000" font-family="sans-serif" font-size="12" lengthAdjust="spacing" textLength="44" x="65" y="18.9492">Capture</text><line style="stroke:#000000;stroke-width:1.0;" x1="63" x2="63" y1="6" y2="21.9609"/><line style="stroke:#000000;stroke-width:1.0;" x1="63" x2="112" y1="6" y2="6"/><line style="stroke:#000000;stroke-width:1.0;" x1="112" x2="112" y1="6" y2="21.9609"/><line style="stroke:#000000;stroke-width:1.0;" x1="112" x2="122" y1="21.9609" y2="21.9609"/><line style="stroke:#AAAAAA;stroke-width:1.0;stroke-dasharray:1.0,2.0;" x1="6" x2="561" y1="27.4609" y2="27.4609"/><text fill="#000000" font-family="sans-serif" font-size="12" lengthAdjust="spacing" textLength="124" x="8" y="46.9102">Engin / esp&#232;ce cibl&#233;e :</text><rect fill="#EEEEEE" height="18.9609" style="stroke:#000000;stroke-width:1.0;" width="271" x="134" y="33.9609"/><text fill="#000000" font-family="sans-serif" font-size="12" lengthAdjust="spacing" textLength="181" x="136" y="48.9102">OTT - Chalut jumeau &#224; panneaux</text><line style="stroke:#000000;stroke-width:1.0;" x1="394" x2="394" y1="33.9609" y2="52.9219"/><polygon fill="#000000" points="397,39.9609,403,39.9609,400,47.9219" style="stroke:#000000;stroke-width:1.0;"/><rect fill="#EEEEEE" height="18.9609" style="stroke:#000000;stroke-width:1.0;" width="127" x="408" y="33.9609"/><text fill="#000000" font-family="sans-serif" font-size="12" lengthAdjust="spacing" textLength="71" x="410" y="48.9102">Esp&#232;ce cible</text><line style="stroke:#000000;stroke-width:1.0;" x1="524" x2="524" y1="33.9609" y2="52.9219"/><polygon fill="#000000" points="527,39.9609,533,39.9609,530,47.9219" style="stroke:#000000;stroke-width:1.0;"/><text fill="#000000" font-family="sans-serif" font-size="12" lengthAdjust="spacing" textLength="56" x="8" y="70.8711">Fin filage :</text><rect fill="#EEEEEE" height="18.9609" style="stroke:#000000;stroke-width:1.0;" width="127" x="85" y="57.9219"/><text fill="#000000" font-family="sans-serif" font-size="12" lengthAdjust="spacing" textLength="69" x="87" y="72.8711">Date / Heure</text><line style="stroke:#000000;stroke-width:1.0;" x1="201" x2="201" y1="57.9219" y2="76.8828"/><polygon fill="#000000" points="204,63.9219,210,63.9219,207,71.8828" style="stroke:#000000;stroke-width:1.0;"/><text fill="#000000" font-family="sans-serif" font-size="12" lengthAdjust="spacing" textLength="44" x="218" y="70.8711">Latitude</text><line style="stroke:#000000;stroke-width:1.0;" x1="216" x2="307" y1="73.8828" y2="73.8828"/><line style="stroke:#000000;stroke-width:1.0;" x1="216" x2="216" y1="70.8828" y2="72.8828"/><line style="stroke:#000000;stroke-width:1.0;" x1="307" x2="307" y1="70.8828" y2="72.8828"/><text fill="#000000" font-family="sans-serif" font-size="12" lengthAdjust="spacing" textLength="55" x="314" y="70.8711">Longitude</text><line style="stroke:#000000;stroke-width:1.0;" x1="312" x2="411" y1="73.8828" y2="73.8828"/><line style="stroke:#000000;stroke-width:1.0;" x1="312" x2="312" y1="70.8828" y2="72.8828"/><line style="stroke:#000000;stroke-width:1.0;" x1="411" x2="411" y1="70.8828" y2="72.8828"/><text fill="#000000" font-family="sans-serif" font-size="12" lengthAdjust="spacing" textLength="75" x="8" y="92.832">D&#233;but virage :</text><rect fill="#EEEEEE" height="18.9609" style="stroke:#000000;stroke-width:1.0;" width="127" x="85" y="79.8828"/><text fill="#000000" font-family="sans-serif" font-size="12" lengthAdjust="spacing" textLength="69" x="87" y="94.832">Date / Heure</text><line style="stroke:#000000;stroke-width:1.0;" x1="201" x2="201" y1="79.8828" y2="98.8438"/><polygon fill="#000000" points="204,85.8828,210,85.8828,207,93.8438" style="stroke:#000000;stroke-width:1.0;"/><text fill="#000000" font-family="sans-serif" font-size="12" lengthAdjust="spacing" textLength="44" x="218" y="92.832">Latitude</text><line style="stroke:#000000;stroke-width:1.0;" x1="216" x2="307" y1="95.8438" y2="95.8438"/><line style="stroke:#000000;stroke-width:1.0;" x1="216" x2="216" y1="92.8438" y2="94.8438"/><line style="stroke:#000000;stroke-width:1.0;" x1="307" x2="307" y1="92.8438" y2="94.8438"/><text fill="#000000" font-family="sans-serif" font-size="12" lengthAdjust="spacing" textLength="55" x="314" y="92.832">Longitude</text><line style="stroke:#000000;stroke-width:1.0;" x1="312" x2="411" y1="95.8438" y2="95.8438"/><line style="stroke:#000000;stroke-width:1.0;" x1="312" x2="312" y1="92.8438" y2="94.8438"/><line style="stroke:#000000;stroke-width:1.0;" x1="411" x2="411" y1="92.8438" y2="94.8438"/><text fill="#0000FF" font-family="sans-serif" font-size="12" font-style="italic" lengthAdjust="spacing" textLength="109" x="85" y="114.793">dur&#233;e de l'op&#233;ration</text><text fill="#0000FF" font-family="sans-serif" font-size="12" font-style="italic" lengthAdjust="spacing" textLength="105" x="311" y="114.793">distance parcourue</text><text fill="#000000" font-family="sans-serif" font-size="12" font-weight="bold" lengthAdjust="spacing" textLength="88" x="7" y="153.7148">Zone d'activit&#233; :</text><text fill="#0000FF" font-family="sans-serif" font-size="12" font-style="italic" font-weight="bold" lengthAdjust="spacing" textLength="29" x="98" y="153.7148">22E7</text><text fill="#000000" font-family="sans-serif" font-size="12" font-weight="bold" lengthAdjust="spacing" textLength="101" x="6" y="190.6367">Caract&#233;ristiques :</text><text fill="#000000" font-family="sans-serif" font-size="12" lengthAdjust="spacing" textLength="130" x="12" y="209.5977">Mesures individuelles ?</text><text fill="#000000" font-family="sans-serif" font-size="12" font-weight="bold" lengthAdjust="spacing" textLength="19" x="165" y="210.5977">Oui</text><ellipse cx="152" cy="205.6289" fill="none" rx="5" ry="5" style="stroke:#000000;stroke-width:1.5;"/><ellipse cx="152" cy="205.6289" fill="#000000" rx="2" ry="2" style="stroke:#000000;stroke-width:1.5;"/><text fill="#000000" font-family="sans-serif" font-size="12" lengthAdjust="spacing" textLength="23" x="206" y="210.5977">Non</text><ellipse cx="193" cy="205.6289" fill="none" rx="5" ry="5" style="stroke:#000000;stroke-width:1.5;"/><text fill="#000000" font-family="sans-serif" font-size="12" lengthAdjust="spacing" textLength="124" x="12" y="229.5586">D&#233;roulement normal ?</text><text fill="#000000" font-family="sans-serif" font-size="12" font-weight="bold" lengthAdjust="spacing" textLength="19" x="165" y="230.5586">Oui</text><ellipse cx="152" cy="225.5898" fill="none" rx="5" ry="5" style="stroke:#000000;stroke-width:1.5;"/><ellipse cx="152" cy="225.5898" fill="#000000" rx="2" ry="2" style="stroke:#000000;stroke-width:1.5;"/><text fill="#000000" font-family="sans-serif" font-size="12" lengthAdjust="spacing" textLength="23" x="206" y="230.5586">Non</text><ellipse cx="193" cy="225.5898" fill="none" rx="5" ry="5" style="stroke:#000000;stroke-width:1.5;"/><text fill="#000000" font-family="sans-serif" font-size="12" lengthAdjust="spacing" textLength="250" x="144" y="249.5195">+ Autres caract&#233;ristiques (cf "Grille de saisie")</text><text fill="#000000" font-family="sans-serif" font-size="12" font-weight="bold" lengthAdjust="spacing" textLength="83" x="7" y="269.4805">Commentaire :</text><text fill="#000000" font-family="sans-serif" font-size="12" lengthAdjust="spacing" textLength="3" x="11" y="288.4414">&#160;</text><line style="stroke:#000000;stroke-width:1.0;" x1="9" x2="556" y1="291.4531" y2="291.4531"/><line style="stroke:#000000;stroke-width:1.0;" x1="9" x2="9" y1="288.4531" y2="290.4531"/><line style="stroke:#000000;stroke-width:1.0;" x1="556" x2="556" y1="288.4531" y2="290.4531"/><line style="stroke:#AAAAAA;stroke-width:1.0;" x1="6" x2="561" y1="300.9531" y2="300.9531"/><rect fill="#EEEEEE" height="19.9609" rx="5" ry="5" style="stroke:#000000;stroke-width:2.5;" width="60" x="9.5" y="308.9531"/><text fill="#000000" font-family="sans-serif" font-size="12" lengthAdjust="spacing" textLength="42" x="18.5" y="323.9023">Annuler</text><rect fill="#EEEEEE" height="19.9609" rx="5" ry="5" style="stroke:#000000;stroke-width:2.5;" width="92" x="76.5" y="308.9531"/><text fill="#000000" font-family="sans-serif" font-size="12" lengthAdjust="spacing" textLength="70" x="87.5" y="323.9023">Sauvegarder</text><!--SRC=[hLFHRX9157sVhxZXfH03BOlMPDFKLg0r5MnJQZKscWox5nmpp6ndPuYcyYy-odVmOvx1Ka1zC54ITdTcpZttd7ll79LUEbzAxSMT44HtktGmFAJEOkwbqYLzfROiV71CCvms6X43rFA9DtNDM1dQ9IwBnVUCALD3lPWpfOZyGETNLrIdzaUfWwTFOS8oqE8R5T8OV7u68gAw6x6CzKoiwE_VH2T8Cb9QZbVC7UaPQLzmb1PfAZtfbGyv0rrPhYsahJOUY61i22rJvNvoqJ-nDN1qe0uFCgkjIuSwy64UNFGFeDwnnMBkG6GDS7_2AbJVm7aXNMQ32tpFF1FhPsEZucZDEsl0lYCphwRAB-Rmy0jhadIVRiMlGjlI8GoIa5RT1YuftMvdbDZd4aKeIPaS2VB0McFr3Asklgr5blEW0AlMw1LipJOYKLfdW-O96q_6kedKVnKN_u_eEFYODljDOpKRKUNKAUY8LIsbAXLNQlSEnVQSH9Ts4XL8XLQcuk7a3dty3x_AR9suNb_UcEN6pR4nyExUmypDG8OfZwNBiHOHF1D7RFBbBHCNMXh_kj-ZARioZaQpaUmbhKQpMNt3EGsue6QBahqqsKzRBMft1rSK0JLHFRteKOavmSJ4qN4Aemo6cZYJKqcNmNWruPJE2pPddPUh3TnHZBiriIhYxBg_1km_hZzN7YaTjD1rNtHu98FsYCXihimufNRHJ9uaeYVDEE36f3Hoecr1xBwaT7Bv0m00]--></g></svg>