<?xml version="1.0" encoding="UTF-8" standalone="no"?><svg xmlns="http://www.w3.org/2000/svg" xmlns:xlink="http://www.w3.org/1999/xlink" contentStyleType="text/css" height="340px" preserveAspectRatio="none" style="width:568px;height:340px;background:#FFFFFF;" version="1.1" viewBox="0 0 568 340" width="568px" zoomAndPan="magnify"><defs/><g><text fill="#000000" font-family="sans-serif" font-size="12" font-weight="bold" lengthAdjust="spacing" textLength="42" x="11" y="18.8281">Détails</text><line style="stroke:#000000;stroke-width:1.0;" x1="6" x2="6" y1="6" y2="22.3441"/><line style="stroke:#000000;stroke-width:1.0;" x1="6" x2="56" y1="6" y2="6"/><line style="stroke:#000000;stroke-width:1.0;" x1="56" x2="56" y1="6" y2="22.3441"/><line style="stroke:#000000;stroke-width:1.0;" x1="56" x2="66" y1="22.3441" y2="22.3441"/><text fill="#000000" font-family="sans-serif" font-size="12" lengthAdjust="spacing" textLength="45" x="68" y="18.8281">Capture</text><line style="stroke:#000000;stroke-width:1.0;" x1="66" x2="66" y1="6" y2="22.3441"/><line style="stroke:#000000;stroke-width:1.0;" x1="66" x2="116" y1="6" y2="6"/><line style="stroke:#000000;stroke-width:1.0;" x1="116" x2="116" y1="6" y2="22.3441"/><line style="stroke:#000000;stroke-width:1.0;" x1="116" x2="126" y1="22.3441" y2="22.3441"/><line style="stroke:#AAAAAA;stroke-width:1.0;stroke-dasharray:1.0,2.0;" x1="6" x2="561" y1="27.8441" y2="27.8441"/><text fill="#000000" font-family="sans-serif" font-size="12" lengthAdjust="spacing" textLength="123" x="8" y="47.1722">Engin / espèce ciblée :</text><rect fill="#EEEEEE" height="19.3441" style="stroke:#000000;stroke-width:1.0;" width="271" x="133" y="34.3441"/><text fill="#000000" font-family="sans-serif" font-size="12" lengthAdjust="spacing" textLength="182" x="135" y="49.1722">OTT - Chalut jumeau à panneaux</text><line style="stroke:#000000;stroke-width:1.0;" x1="393" x2="393" y1="34.3441" y2="53.6882"/><polygon fill="#000000" points="396,40.3441,402,40.3441,399,48.6882" style="stroke:#000000;stroke-width:1.0;"/><rect fill="#EEEEEE" height="19.3441" style="stroke:#000000;stroke-width:1.0;" width="127" x="407" y="34.3441"/><text fill="#000000" font-family="sans-serif" font-size="12" lengthAdjust="spacing" textLength="69" x="409" y="49.1722">Espèce cible</text><line style="stroke:#000000;stroke-width:1.0;" x1="523" x2="523" y1="34.3441" y2="53.6882"/><polygon fill="#000000" points="526,40.3441,532,40.3441,529,48.6882" style="stroke:#000000;stroke-width:1.0;"/><text fill="#000000" font-family="sans-serif" font-size="12" lengthAdjust="spacing" textLength="56" x="8" y="71.5163">Fin filage :</text><rect fill="#EEEEEE" height="19.3441" style="stroke:#000000;stroke-width:1.0;" width="127" x="88" y="58.6882"/><text fill="#000000" font-family="sans-serif" font-size="12" lengthAdjust="spacing" textLength="72" x="90" y="73.5163">Date / Heure</text><line style="stroke:#000000;stroke-width:1.0;" x1="204" x2="204" y1="58.6882" y2="78.0323"/><polygon fill="#000000" points="207,64.6882,213,64.6882,210,73.0323" style="stroke:#000000;stroke-width:1.0;"/><text fill="#000000" font-family="sans-serif" font-size="12" lengthAdjust="spacing" textLength="45" x="221" y="71.5163">Latitude</text><line style="stroke:#000000;stroke-width:1.0;" x1="219" x2="310" y1="75.0323" y2="75.0323"/><line style="stroke:#000000;stroke-width:1.0;" x1="219" x2="219" y1="72.0323" y2="74.0323"/><line style="stroke:#000000;stroke-width:1.0;" x1="310" x2="310" y1="72.0323" y2="74.0323"/><text fill="#000000" font-family="sans-serif" font-size="12" lengthAdjust="spacing" textLength="55" x="317" y="71.5163">Longitude</text><line style="stroke:#000000;stroke-width:1.0;" x1="315" x2="414" y1="75.0323" y2="75.0323"/><line style="stroke:#000000;stroke-width:1.0;" x1="315" x2="315" y1="72.0323" y2="74.0323"/><line style="stroke:#000000;stroke-width:1.0;" x1="414" x2="414" y1="72.0323" y2="74.0323"/><text fill="#000000" font-family="sans-serif" font-size="12" lengthAdjust="spacing" textLength="78" x="8" y="93.8604">Début virage :</text><rect fill="#EEEEEE" height="19.3441" style="stroke:#000000;stroke-width:1.0;" width="127" x="88" y="81.0323"/><text fill="#000000" font-family="sans-serif" font-size="12" lengthAdjust="spacing" textLength="72" x="90" y="95.8604">Date / Heure</text><line style="stroke:#000000;stroke-width:1.0;" x1="204" x2="204" y1="81.0323" y2="100.3765"/><polygon fill="#000000" points="207,87.0323,213,87.0323,210,95.3765" style="stroke:#000000;stroke-width:1.0;"/><text fill="#000000" font-family="sans-serif" font-size="12" lengthAdjust="spacing" textLength="45" x="221" y="93.8604">Latitude</text><line style="stroke:#000000;stroke-width:1.0;" x1="219" x2="310" y1="97.3765" y2="97.3765"/><line style="stroke:#000000;stroke-width:1.0;" x1="219" x2="219" y1="94.3765" y2="96.3765"/><line style="stroke:#000000;stroke-width:1.0;" x1="310" x2="310" y1="94.3765" y2="96.3765"/><text fill="#000000" font-family="sans-serif" font-size="12" lengthAdjust="spacing" textLength="55" x="317" y="93.8604">Longitude</text><line style="stroke:#000000;stroke-width:1.0;" x1="315" x2="414" y1="97.3765" y2="97.3765"/><line style="stroke:#000000;stroke-width:1.0;" x1="315" x2="315" y1="94.3765" y2="96.3765"/><line style="stroke:#000000;stroke-width:1.0;" x1="414" x2="414" y1="94.3765" y2="96.3765"/><text fill="#0000FF" font-family="sans-serif" font-size="12" font-style="italic" lengthAdjust="spacing" textLength="109" x="88" y="116.2045">durée de l'opération</text><text fill="#0000FF" font-family="sans-serif" font-size="12" font-style="italic" lengthAdjust="spacing" textLength="103" x="314" y="116.2045">distance parcourue</text><text fill="#000000" font-family="sans-serif" font-size="12" font-weight="bold" lengthAdjust="spacing" textLength="94" x="7" y="155.8928">Zone d'activité :</text><text fill="#0000FF" font-family="sans-serif" font-size="12" font-style="italic" font-weight="bold" lengthAdjust="spacing" textLength="28" x="104" y="155.8928">22E7</text><text fill="#000000" font-family="sans-serif" font-size="12" font-weight="bold" lengthAdjust="spacing" textLength="104" x="6" y="193.581">Caractéristiques :</text><text fill="#000000" font-family="sans-serif" font-size="12" lengthAdjust="spacing" textLength="149" x="12" y="212.9251">Opération échantillonnée ?</text><text fill="#000000" font-family="sans-serif" font-size="12" font-weight="bold" lengthAdjust="spacing" textLength="22" x="184" y="213.9251">Oui</text><ellipse cx="171" cy="209.2691" fill="none" rx="5" ry="5" style="stroke:#000000;stroke-width:1.5;"/><ellipse cx="171" cy="209.2691" fill="#000000" rx="2" ry="2" style="stroke:#000000;stroke-width:1.5;"/><text fill="#000000" font-family="sans-serif" font-size="12" lengthAdjust="spacing" textLength="23" x="228" y="213.9251">Non</text><ellipse cx="215" cy="209.2691" fill="none" rx="5" ry="5" style="stroke:#000000;stroke-width:1.5;"/><text fill="#000000" font-family="sans-serif" font-size="12" lengthAdjust="spacing" textLength="125" x="12" y="233.2692">Déroulement normal ?</text><text fill="#000000" font-family="sans-serif" font-size="12" font-weight="bold" lengthAdjust="spacing" textLength="22" x="184" y="234.2692">Oui</text><ellipse cx="171" cy="229.6132" fill="none" rx="5" ry="5" style="stroke:#000000;stroke-width:1.5;"/><ellipse cx="171" cy="229.6132" fill="#000000" rx="2" ry="2" style="stroke:#000000;stroke-width:1.5;"/><text fill="#000000" font-family="sans-serif" font-size="12" lengthAdjust="spacing" textLength="23" x="228" y="234.2692">Non</text><ellipse cx="215" cy="229.6132" fill="none" rx="5" ry="5" style="stroke:#000000;stroke-width:1.5;"/><text fill="#000000" font-family="sans-serif" font-size="12" lengthAdjust="spacing" textLength="256" x="163" y="253.6133">+ Autres caractéristiques (cf "Grille de saisie")</text><text fill="#000000" font-family="sans-serif" font-size="12" font-weight="bold" lengthAdjust="spacing" textLength="88" x="7" y="273.9575">Commentaire :</text><text fill="#000000" font-family="sans-serif" font-size="12" lengthAdjust="spacing" textLength="3" x="11" y="293.3016"> </text><line style="stroke:#000000;stroke-width:1.0;" x1="9" x2="556" y1="296.8176" y2="296.8176"/><line style="stroke:#000000;stroke-width:1.0;" x1="9" x2="9" y1="293.8176" y2="295.8176"/><line style="stroke:#000000;stroke-width:1.0;" x1="556" x2="556" y1="293.8176" y2="295.8176"/><line style="stroke:#AAAAAA;stroke-width:1.0;" x1="6" x2="561" y1="306.3176" y2="306.3176"/><rect fill="#EEEEEE" height="20.3441" rx="5" ry="5" style="stroke:#000000;stroke-width:2.5;" width="60" x="9.5" y="314.3176"/><text fill="#000000" font-family="sans-serif" font-size="12" lengthAdjust="spacing" textLength="44" x="17.5" y="329.1457">Annuler</text><rect fill="#EEEEEE" height="20.3441" rx="5" ry="5" style="stroke:#000000;stroke-width:2.5;" width="92" x="76.5" y="314.3176"/><text fill="#000000" font-family="sans-serif" font-size="12" lengthAdjust="spacing" textLength="72" x="86.5" y="329.1457">Sauvegarder</text></g></svg>