<?xml version="1.0" encoding="us-ascii" standalone="no"?><svg xmlns="http://www.w3.org/2000/svg" xmlns:xlink="http://www.w3.org/1999/xlink" contentStyleType="text/css" height="114px" preserveAspectRatio="none" style="width:765px;height:114px;background:#FFFFFF;" version="1.1" viewBox="0 0 765 114" width="765px" zoomAndPan="magnify"><defs/><g><text fill="#000000" font-family="sans-serif" font-size="12" lengthAdjust="spacing" textLength="39" x="8" y="18.457">D&#233;tails</text><line style="stroke:#000000;stroke-width:1.0;" x1="6" x2="6" y1="6" y2="21.0938"/><line style="stroke:#000000;stroke-width:1.0;" x1="6" x2="50" y1="6" y2="6"/><line style="stroke:#000000;stroke-width:1.0;" x1="50" x2="50" y1="6" y2="21.0938"/><line style="stroke:#000000;stroke-width:1.0;" x1="50" x2="60" y1="21.0938" y2="21.0938"/><text fill="#000000" font-family="sans-serif" font-size="12" lengthAdjust="spacing" textLength="39" x="62" y="18.457">Engins</text><line style="stroke:#000000;stroke-width:1.0;" x1="60" x2="60" y1="6" y2="21.0938"/><line style="stroke:#000000;stroke-width:1.0;" x1="60" x2="104" y1="6" y2="6"/><line style="stroke:#000000;stroke-width:1.0;" x1="104" x2="104" y1="6" y2="21.0938"/><line style="stroke:#000000;stroke-width:1.0;" x1="104" x2="114" y1="21.0938" y2="21.0938"/><text fill="#000000" font-family="sans-serif" font-size="12" font-weight="bold" lengthAdjust="spacing" textLength="63" x="119" y="18.457">Op&#233;rations</text><line style="stroke:#000000;stroke-width:1.0;" x1="114" x2="114" y1="6" y2="21.0938"/><line style="stroke:#000000;stroke-width:1.0;" x1="114" x2="185" y1="6" y2="6"/><line style="stroke:#000000;stroke-width:1.0;" x1="185" x2="185" y1="6" y2="21.0938"/><line style="stroke:#000000;stroke-width:1.0;" x1="185" x2="195" y1="21.0938" y2="21.0938"/><rect fill="#EEEEEE" height="12" rx="5" ry="5" style="stroke:#000000;stroke-width:2.5;" width="28" x="9.5" y="26.5938"/><path d="M22.5,28.5938 L22.5,31.5938 L19.5,31.5938 L19.5,33.5938 L22.5,33.5938 L22.5,36.5938 L24.5,36.5938 L24.5,33.5938 L27.5,33.5938 L27.5,31.5938 L24.5,31.5938 L24.5,28.5938 L22.5,28.5938 " fill="#000000" style="stroke:;stroke-width:0.0;stroke-dasharray:;"/><rect fill="#EEEEEE" height="12" rx="5" ry="5" style="stroke:#000000;stroke-width:2.5;" width="20" x="44.5" y="26.5938"/><path d="M50.5,28.5938 L54.5,32.5938 L58.5,28.5938 L50.5,28.5938 " fill="#000000" style="stroke:;stroke-width:0.0;stroke-dasharray:;"/><text fill="#000000" font-family="sans-serif" font-size="12" lengthAdjust="spacing" textLength="7" x="7" y="55.5508">#</text><text fill="#000000" font-family="sans-serif" font-size="12" font-weight="bold" lengthAdjust="spacing" textLength="22" x="42" y="55.5508">Etat</text><text fill="#000000" font-family="sans-serif" font-size="12" font-weight="bold" lengthAdjust="spacing" textLength="75" x="69" y="55.5508">Engins utilis&#233;</text><text fill="#000000" font-family="sans-serif" font-size="12" font-weight="bold" lengthAdjust="spacing" textLength="72" x="187" y="55.5508">Esp&#232;ce cible</text><text fill="#000000" font-family="sans-serif" font-size="12" font-weight="bold" lengthAdjust="spacing" textLength="113" x="278" y="55.5508">D&#233;but de l'op&#233;ration</text><text fill="#000000" font-family="sans-serif" font-size="12" font-weight="bold" lengthAdjust="spacing" textLength="82" x="396" y="55.5508">Position D&#233;but</text><text fill="#000000" font-family="sans-serif" font-size="12" font-weight="bold" lengthAdjust="spacing" textLength="96" x="528" y="55.5508">Fin de l'op&#233;ration</text><text fill="#000000" font-family="sans-serif" font-size="12" font-weight="bold" lengthAdjust="spacing" textLength="80" x="629" y="55.5508">Position de fin</text><text fill="#000000" font-family="sans-serif" font-size="12" lengthAdjust="spacing" textLength="7" x="7" y="72.6445">1</text><path d="M43,60.1875 L43,68.1875 L44,68.1875 L44,60.1875 L43,60.1875 M45,60.1875 L45,64.1875 L47,64.1875 L47,65.1875 L51,65.1875 L49,63.2175 L51,61.1875 L48,61.1875 L48,60.1875 L45,60.1875 " fill="#000000" style="stroke:;stroke-width:0.0;stroke-dasharray:;"/><text fill="#000000" font-family="sans-serif" font-size="12" lengthAdjust="spacing" textLength="116" x="69" y="72.6445">OTT- Chalut jumeaux</text><text fill="#000000" font-family="sans-serif" font-size="12" lengthAdjust="spacing" textLength="86" x="187" y="72.6445">MZZ - Poissons</text><text fill="#000000" font-family="sans-serif" font-size="12" lengthAdjust="spacing" textLength="96" x="275" y="72.6445">02/01/2024 07:35</text><text fill="#000000" font-family="sans-serif" font-size="12" lengthAdjust="spacing" textLength="130" x="393" y="72.6445">43&#176;9.354' N, 4&#176;21.996'E</text><text fill="#000000" font-family="sans-serif" font-size="12" lengthAdjust="spacing" textLength="96" x="525" y="72.6445">02/01/2024 08:35</text><text fill="#000000" font-family="sans-serif" font-size="12" lengthAdjust="spacing" textLength="130" x="626" y="72.6445">43&#176;4.497' N, 4&#176;42.869'E</text><line style="stroke:#000000;stroke-width:1.0;" x1="6" x2="41" y1="23.0938" y2="23.0938"/><line style="stroke:#000000;stroke-width:1.0;" x1="41" x2="68" y1="23.0938" y2="23.0938"/><line style="stroke:#000000;stroke-width:1.0;" x1="68" x2="186" y1="23.0938" y2="23.0938"/><line style="stroke:#000000;stroke-width:1.0;" x1="186" x2="274" y1="23.0938" y2="23.0938"/><line style="stroke:#000000;stroke-width:1.0;" x1="274" x2="392" y1="23.0938" y2="23.0938"/><line style="stroke:#000000;stroke-width:1.0;" x1="392" x2="524" y1="23.0938" y2="23.0938"/><line style="stroke:#000000;stroke-width:1.0;" x1="524" x2="625" y1="23.0938" y2="23.0938"/><line style="stroke:#000000;stroke-width:1.0;" x1="625" x2="757" y1="23.0938" y2="23.0938"/><line style="stroke:#000000;stroke-width:1.0;" x1="6" x2="41" y1="76.2813" y2="76.2813"/><line style="stroke:#000000;stroke-width:1.0;" x1="41" x2="68" y1="76.2813" y2="76.2813"/><line style="stroke:#000000;stroke-width:1.0;" x1="68" x2="186" y1="76.2813" y2="76.2813"/><line style="stroke:#000000;stroke-width:1.0;" x1="186" x2="274" y1="76.2813" y2="76.2813"/><line style="stroke:#000000;stroke-width:1.0;" x1="274" x2="392" y1="76.2813" y2="76.2813"/><line style="stroke:#000000;stroke-width:1.0;" x1="392" x2="524" y1="76.2813" y2="76.2813"/><line style="stroke:#000000;stroke-width:1.0;" x1="524" x2="625" y1="76.2813" y2="76.2813"/><line style="stroke:#000000;stroke-width:1.0;" x1="625" x2="757" y1="76.2813" y2="76.2813"/><line style="stroke:#000000;stroke-width:1.0;" x1="6" x2="41" y1="59.1875" y2="59.1875"/><line style="stroke:#000000;stroke-width:1.0;" x1="41" x2="68" y1="59.1875" y2="59.1875"/><line style="stroke:#000000;stroke-width:1.0;" x1="68" x2="186" y1="59.1875" y2="59.1875"/><line style="stroke:#000000;stroke-width:1.0;" x1="186" x2="274" y1="59.1875" y2="59.1875"/><line style="stroke:#000000;stroke-width:1.0;" x1="274" x2="392" y1="59.1875" y2="59.1875"/><line style="stroke:#000000;stroke-width:1.0;" x1="392" x2="524" y1="59.1875" y2="59.1875"/><line style="stroke:#000000;stroke-width:1.0;" x1="524" x2="625" y1="59.1875" y2="59.1875"/><line style="stroke:#000000;stroke-width:1.0;" x1="625" x2="757" y1="59.1875" y2="59.1875"/><line style="stroke:#000000;stroke-width:1.0;" x1="6" x2="41" y1="42.0938" y2="42.0938"/><line style="stroke:#000000;stroke-width:1.0;" x1="41" x2="68" y1="42.0938" y2="42.0938"/><line style="stroke:#000000;stroke-width:1.0;" x1="68" x2="186" y1="42.0938" y2="42.0938"/><line style="stroke:#000000;stroke-width:1.0;" x1="186" x2="274" y1="42.0938" y2="42.0938"/><line style="stroke:#000000;stroke-width:1.0;" x1="274" x2="392" y1="42.0938" y2="42.0938"/><line style="stroke:#000000;stroke-width:1.0;" x1="392" x2="524" y1="42.0938" y2="42.0938"/><line style="stroke:#000000;stroke-width:1.0;" x1="524" x2="625" y1="42.0938" y2="42.0938"/><line style="stroke:#000000;stroke-width:1.0;" x1="625" x2="757" y1="42.0938" y2="42.0938"/><line style="stroke:#000000;stroke-width:1.0;" x1="6" x2="6" y1="23.0938" y2="42.0938"/><line style="stroke:#000000;stroke-width:1.0;" x1="68" x2="68" y1="59.1875" y2="76.2813"/><line style="stroke:#000000;stroke-width:1.0;" x1="41" x2="41" y1="23.0938" y2="42.0938"/><line style="stroke:#000000;stroke-width:1.0;" x1="186" x2="186" y1="59.1875" y2="76.2813"/><line style="stroke:#000000;stroke-width:1.0;" x1="68" x2="68" y1="23.0938" y2="42.0938"/><line style="stroke:#000000;stroke-width:1.0;" x1="274" x2="274" y1="59.1875" y2="76.2813"/><line style="stroke:#000000;stroke-width:1.0;" x1="392" x2="392" y1="59.1875" y2="76.2813"/><line style="stroke:#000000;stroke-width:1.0;" x1="524" x2="524" y1="59.1875" y2="76.2813"/><line style="stroke:#000000;stroke-width:1.0;" x1="625" x2="625" y1="59.1875" y2="76.2813"/><line style="stroke:#000000;stroke-width:1.0;" x1="757" x2="757" y1="59.1875" y2="76.2813"/><line style="stroke:#000000;stroke-width:1.0;" x1="757" x2="757" y1="23.0938" y2="42.0938"/><line style="stroke:#000000;stroke-width:1.0;" x1="6" x2="6" y1="42.0938" y2="59.1875"/><line style="stroke:#000000;stroke-width:1.0;" x1="41" x2="41" y1="42.0938" y2="59.1875"/><line style="stroke:#000000;stroke-width:1.0;" x1="68" x2="68" y1="42.0938" y2="59.1875"/><line style="stroke:#000000;stroke-width:1.0;" x1="186" x2="186" y1="42.0938" y2="59.1875"/><line style="stroke:#000000;stroke-width:1.0;" x1="274" x2="274" y1="42.0938" y2="59.1875"/><line style="stroke:#000000;stroke-width:1.0;" x1="392" x2="392" y1="42.0938" y2="59.1875"/><line style="stroke:#000000;stroke-width:1.0;" x1="524" x2="524" y1="42.0938" y2="59.1875"/><line style="stroke:#000000;stroke-width:1.0;" x1="625" x2="625" y1="42.0938" y2="59.1875"/><line style="stroke:#000000;stroke-width:1.0;" x1="757" x2="757" y1="42.0938" y2="59.1875"/><line style="stroke:#000000;stroke-width:1.0;" x1="6" x2="6" y1="59.1875" y2="76.2813"/><line style="stroke:#000000;stroke-width:1.0;" x1="41" x2="41" y1="59.1875" y2="76.2813"/><line style="stroke:#AAAAAA;stroke-width:1.0;" x1="6" x2="758" y1="81.7813" y2="81.7813"/><rect fill="#EEEEEE" height="19.0938" rx="5" ry="5" style="stroke:#000000;stroke-width:2.5;" width="52" x="9.5" y="89.7813"/><text fill="#000000" font-family="sans-serif" font-size="12" lengthAdjust="spacing" textLength="40" x="15.5" y="104.2383">Fermer</text><rect fill="#EEEEEE" height="19.0938" rx="5" ry="5" style="stroke:#000000;stroke-width:2.5;" width="92" x="68.5" y="89.7813"/><text fill="#000000" font-family="sans-serif" font-size="12" lengthAdjust="spacing" textLength="70" x="79.5" y="104.2383">Sauvegarder</text></g></svg>