<?xml version="1.0" encoding="us-ascii" standalone="no"?><svg xmlns="http://www.w3.org/2000/svg" xmlns:xlink="http://www.w3.org/1999/xlink" contentStyleType="text/css" height="121px" preserveAspectRatio="none" style="width:404px;height:121px;background:#FFFFFF;" version="1.1" viewBox="0 0 404 121" width="404px" zoomAndPan="magnify"><defs><filter height="1" id="b1xht4nqpj880n0" width="1" x="0" y="0"><feFlood flood-color="#008000" result="flood"/><feComposite in="SourceGraphic" in2="flood" operator="over"/></filter></defs><g><path d="M12,12.0938 L9,14.6238 L12,17.0938 L12,15.0938 L17,15.0938 L17,14.0938 L12,14.0938 L12,12.0938 " fill="#000000" style="stroke:;stroke-width:0.0;stroke-dasharray:;"/><text fill="#000000" font-family="sans-serif" font-size="12" font-weight="bold" lengthAdjust="spacing" textLength="295" x="21" y="20.457">CN851741 - Mar&#233;e 07/01/2023 - OP #2 du 07/11/2023</text><rect fill="#EEEEEE" height="18.0938" style="stroke:#000000;stroke-width:1.0;" width="40" x="338" y="8"/><text fill="#000000" font-family="sans-serif" font-size="12" lengthAdjust="spacing" textLength="25" x="340" y="22.457">LOG</text><line style="stroke:#000000;stroke-width:1.0;" x1="367" x2="367" y1="8" y2="26.0938"/><polygon fill="#000000" points="370,14,376,14,373,21.0938" style="stroke:#000000;stroke-width:1.0;"/><line style="stroke:#AAAAAA;stroke-width:1.0;" x1="7" x2="397" y1="33.5938" y2="33.5938"/><text fill="#FFFFFF" filter="url(#b1xht4nqpj880n0)" font-family="sans-serif" font-size="12" font-weight="bold" lengthAdjust="spacing" textLength="120" x="7" y="50.5508">Derni&#232;res op&#233;rations</text><path d="M15.41,60.2813 L14.72,61.0013 L11.94,63.7813 L11.13,63.0013 L10.41,62.2813 L9,63.6913 L9.72,64.4113 L11.22,65.9113 L11.91,66.6313 L12.63,65.9113 L16.13,62.4113 L16.85,61.6913 L15.41,60.2813 " fill="#000000" style="stroke:;stroke-width:0.0;stroke-dasharray:;"/><text fill="#000000" font-family="sans-serif" font-size="12" lengthAdjust="spacing" textLength="205" x="21" y="68.6445">1 - OTB - Chaluts de fond &#224; panneaux</text><text fill="#000000" font-family="sans-serif" font-size="12" lengthAdjust="spacing" textLength="62" x="333" y="68.6445">10/11/2023</text><path d="M15.41,79.375 L14.72,80.095 L11.94,82.875 L11.13,82.095 L10.41,81.375 L9,82.785 L9.72,83.505 L11.22,85.005 L11.91,85.725 L12.63,85.005 L16.13,81.505 L16.85,80.785 L15.41,79.375 " fill="#000000" style="stroke:;stroke-width:0.0;stroke-dasharray:;"/><text fill="#000000" font-family="sans-serif" font-size="12" lengthAdjust="spacing" textLength="205" x="21" y="87.7383">2 - OTB - Chaluts de fond &#224; panneaux</text><text fill="#000000" font-family="sans-serif" font-size="12" lengthAdjust="spacing" textLength="62" x="333" y="87.7383">10/11/2023</text><rect fill="#EEEEEE" height="19.0938" rx="5" ry="5" style="stroke:#000000;stroke-width:2.5;" width="60" x="320.5" y="96.875"/><text fill="#000000" font-family="sans-serif" font-size="12" lengthAdjust="spacing" textLength="38" x="331.5" y="111.332">Ajouter</text></g></svg>