<?xml version="1.0" encoding="us-ascii" standalone="no"?><svg xmlns="http://www.w3.org/2000/svg" xmlns:xlink="http://www.w3.org/1999/xlink" contentStyleType="text/css" height="390px" preserveAspectRatio="none" style="width:568px;height:390px;background:#FFFFFF;" version="1.1" viewBox="0 0 568 390" width="568px" zoomAndPan="magnify"><defs/><g><text fill="#000000" font-family="sans-serif" font-size="12" font-weight="bold" lengthAdjust="spacing" textLength="39" x="11" y="18.457">D&#233;tails</text><line style="stroke:#000000;stroke-width:1.0;" x1="6" x2="6" y1="6" y2="21.0938"/><line style="stroke:#000000;stroke-width:1.0;" x1="6" x2="53" y1="6" y2="6"/><line style="stroke:#000000;stroke-width:1.0;" x1="53" x2="53" y1="6" y2="21.0938"/><line style="stroke:#000000;stroke-width:1.0;" x1="53" x2="63" y1="21.0938" y2="21.0938"/><text fill="#000000" font-family="sans-serif" font-size="12" lengthAdjust="spacing" textLength="44" x="65" y="18.457">Capture</text><line style="stroke:#000000;stroke-width:1.0;" x1="63" x2="63" y1="6" y2="21.0938"/><line style="stroke:#000000;stroke-width:1.0;" x1="63" x2="112" y1="6" y2="6"/><line style="stroke:#000000;stroke-width:1.0;" x1="112" x2="112" y1="6" y2="21.0938"/><line style="stroke:#000000;stroke-width:1.0;" x1="112" x2="122" y1="21.0938" y2="21.0938"/><text fill="#000000" font-family="sans-serif" font-size="12" lengthAdjust="spacing" textLength="124" x="8" y="54.6445">Engin / esp&#232;ce cibl&#233;e :</text><rect fill="#EEEEEE" height="18.0938" style="stroke:#000000;stroke-width:1.0;" width="271" x="134" y="42.1875"/><text fill="#000000" font-family="sans-serif" font-size="12" lengthAdjust="spacing" textLength="181" x="136" y="56.6445">OTT - Chalut jumeau &#224; panneaux</text><line style="stroke:#000000;stroke-width:1.0;" x1="394" x2="394" y1="42.1875" y2="60.2813"/><polygon fill="#000000" points="397,48.1875,403,48.1875,400,55.2813" style="stroke:#000000;stroke-width:1.0;"/><rect fill="#EEEEEE" height="18.0938" style="stroke:#000000;stroke-width:1.0;" width="127" x="408" y="42.1875"/><text fill="#000000" font-family="sans-serif" font-size="12" lengthAdjust="spacing" textLength="71" x="410" y="56.6445">Esp&#232;ce cible</text><line style="stroke:#000000;stroke-width:1.0;" x1="524" x2="524" y1="42.1875" y2="60.2813"/><polygon fill="#000000" points="527,48.1875,533,48.1875,530,55.2813" style="stroke:#000000;stroke-width:1.0;"/><text fill="#000000" font-family="sans-serif" font-size="12" lengthAdjust="spacing" textLength="161" x="8" y="94.832">D&#233;but de l'op&#233;ration (Filage) :</text><rect fill="#EEEEEE" height="18.0938" style="stroke:#000000;stroke-width:1.0;" width="127" x="172" y="82.375"/><text fill="#000000" font-family="sans-serif" font-size="12" lengthAdjust="spacing" textLength="69" x="174" y="96.832">Date / Heure</text><line style="stroke:#000000;stroke-width:1.0;" x1="288" x2="288" y1="82.375" y2="100.4688"/><polygon fill="#000000" points="291,88.375,297,88.375,294,95.4688" style="stroke:#000000;stroke-width:1.0;"/><text fill="#000000" font-family="sans-serif" font-size="12" lengthAdjust="spacing" textLength="44" x="305" y="94.832">Latitude</text><line style="stroke:#000000;stroke-width:1.0;" x1="303" x2="394" y1="97.4688" y2="97.4688"/><line style="stroke:#000000;stroke-width:1.0;" x1="303" x2="303" y1="94.4688" y2="96.4688"/><line style="stroke:#000000;stroke-width:1.0;" x1="394" x2="394" y1="94.4688" y2="96.4688"/><text fill="#000000" font-family="sans-serif" font-size="12" lengthAdjust="spacing" textLength="55" x="401" y="94.832">Longitude</text><line style="stroke:#000000;stroke-width:1.0;" x1="399" x2="498" y1="97.4688" y2="97.4688"/><line style="stroke:#000000;stroke-width:1.0;" x1="399" x2="399" y1="94.4688" y2="96.4688"/><line style="stroke:#000000;stroke-width:1.0;" x1="498" x2="498" y1="94.4688" y2="96.4688"/><text fill="#000000" font-family="sans-serif" font-size="12" lengthAdjust="spacing" textLength="145" x="8" y="115.9258">Fin de l'op&#233;ration (Filage) :</text><rect fill="#EEEEEE" height="18.0938" style="stroke:#000000;stroke-width:1.0;" width="127" x="172" y="103.4688"/><text fill="#000000" font-family="sans-serif" font-size="12" lengthAdjust="spacing" textLength="69" x="174" y="117.9258">Date / Heure</text><line style="stroke:#000000;stroke-width:1.0;" x1="288" x2="288" y1="103.4688" y2="121.5625"/><polygon fill="#000000" points="291,109.4688,297,109.4688,294,116.5625" style="stroke:#000000;stroke-width:1.0;"/><text fill="#000000" font-family="sans-serif" font-size="12" lengthAdjust="spacing" textLength="44" x="305" y="115.9258">Latitude</text><line style="stroke:#000000;stroke-width:1.0;" x1="303" x2="394" y1="118.5625" y2="118.5625"/><line style="stroke:#000000;stroke-width:1.0;" x1="303" x2="303" y1="115.5625" y2="117.5625"/><line style="stroke:#000000;stroke-width:1.0;" x1="394" x2="394" y1="115.5625" y2="117.5625"/><text fill="#000000" font-family="sans-serif" font-size="12" lengthAdjust="spacing" textLength="55" x="401" y="115.9258">Longitude</text><line style="stroke:#000000;stroke-width:1.0;" x1="399" x2="498" y1="118.5625" y2="118.5625"/><line style="stroke:#000000;stroke-width:1.0;" x1="399" x2="399" y1="115.5625" y2="117.5625"/><line style="stroke:#000000;stroke-width:1.0;" x1="498" x2="498" y1="115.5625" y2="117.5625"/><text fill="#000000" font-family="sans-serif" font-size="12" lengthAdjust="spacing" textLength="162" x="8" y="137.0195">D&#233;but de l'op&#233;ration (Virage) :</text><rect fill="#EEEEEE" height="18.0938" style="stroke:#000000;stroke-width:1.0;" width="127" x="172" y="124.5625"/><text fill="#000000" font-family="sans-serif" font-size="12" lengthAdjust="spacing" textLength="69" x="174" y="139.0195">Date / Heure</text><line style="stroke:#000000;stroke-width:1.0;" x1="288" x2="288" y1="124.5625" y2="142.6563"/><polygon fill="#000000" points="291,130.5625,297,130.5625,294,137.6563" style="stroke:#000000;stroke-width:1.0;"/><text fill="#000000" font-family="sans-serif" font-size="12" lengthAdjust="spacing" textLength="44" x="305" y="137.0195">Latitude</text><line style="stroke:#000000;stroke-width:1.0;" x1="303" x2="394" y1="139.6563" y2="139.6563"/><line style="stroke:#000000;stroke-width:1.0;" x1="303" x2="303" y1="136.6563" y2="138.6563"/><line style="stroke:#000000;stroke-width:1.0;" x1="394" x2="394" y1="136.6563" y2="138.6563"/><text fill="#000000" font-family="sans-serif" font-size="12" lengthAdjust="spacing" textLength="55" x="401" y="137.0195">Longitude</text><line style="stroke:#000000;stroke-width:1.0;" x1="399" x2="498" y1="139.6563" y2="139.6563"/><line style="stroke:#000000;stroke-width:1.0;" x1="399" x2="399" y1="136.6563" y2="138.6563"/><line style="stroke:#000000;stroke-width:1.0;" x1="498" x2="498" y1="136.6563" y2="138.6563"/><text fill="#000000" font-family="sans-serif" font-size="12" lengthAdjust="spacing" textLength="146" x="8" y="158.1133">Fin de l'op&#233;ration (Virage) :</text><rect fill="#EEEEEE" height="18.0938" style="stroke:#000000;stroke-width:1.0;" width="127" x="172" y="145.6563"/><text fill="#000000" font-family="sans-serif" font-size="12" lengthAdjust="spacing" textLength="69" x="174" y="160.1133">Date / Heure</text><line style="stroke:#000000;stroke-width:1.0;" x1="288" x2="288" y1="145.6563" y2="163.75"/><polygon fill="#000000" points="291,151.6563,297,151.6563,294,158.75" style="stroke:#000000;stroke-width:1.0;"/><text fill="#000000" font-family="sans-serif" font-size="12" lengthAdjust="spacing" textLength="44" x="305" y="158.1133">Latitude</text><line style="stroke:#000000;stroke-width:1.0;" x1="303" x2="394" y1="160.75" y2="160.75"/><line style="stroke:#000000;stroke-width:1.0;" x1="303" x2="303" y1="157.75" y2="159.75"/><line style="stroke:#000000;stroke-width:1.0;" x1="394" x2="394" y1="157.75" y2="159.75"/><text fill="#000000" font-family="sans-serif" font-size="12" lengthAdjust="spacing" textLength="55" x="401" y="158.1133">Longitude</text><line style="stroke:#000000;stroke-width:1.0;" x1="399" x2="498" y1="160.75" y2="160.75"/><line style="stroke:#000000;stroke-width:1.0;" x1="399" x2="399" y1="157.75" y2="159.75"/><line style="stroke:#000000;stroke-width:1.0;" x1="498" x2="498" y1="157.75" y2="159.75"/><text fill="#0000FF" font-family="sans-serif" font-size="12" font-style="italic" lengthAdjust="spacing" textLength="109" x="172" y="179.207">dur&#233;e de l'op&#233;ration</text><text fill="#0000FF" font-family="sans-serif" font-size="12" font-style="italic" lengthAdjust="spacing" textLength="105" x="398" y="179.207">distance parcourue</text><text fill="#000000" font-family="sans-serif" font-size="12" font-weight="bold" lengthAdjust="spacing" textLength="88" x="7" y="216.3945">Zone d'activit&#233; :</text><text fill="#0000FF" font-family="sans-serif" font-size="12" font-style="italic" font-weight="bold" lengthAdjust="spacing" textLength="29" x="98" y="216.3945">22E7</text><text fill="#000000" font-family="sans-serif" font-size="12" font-weight="bold" lengthAdjust="spacing" textLength="101" x="6" y="251.582">Caract&#233;ristiques :</text><text fill="#000000" font-family="sans-serif" font-size="12" lengthAdjust="spacing" textLength="148" x="12" y="269.6758">Op&#233;ration &#233;chantillonn&#233;e ?</text><text fill="#000000" font-family="sans-serif" font-size="12" font-weight="bold" lengthAdjust="spacing" textLength="19" x="183" y="270.6758">Oui</text><ellipse cx="170" cy="265.7656" fill="none" rx="5" ry="5" style="stroke:#000000;stroke-width:1.5;"/><ellipse cx="170" cy="265.7656" fill="#000000" rx="2" ry="2" style="stroke:#000000;stroke-width:1.5;"/><text fill="#000000" font-family="sans-serif" font-size="12" lengthAdjust="spacing" textLength="23" x="224" y="270.6758">Non</text><ellipse cx="211" cy="265.7656" fill="none" rx="5" ry="5" style="stroke:#000000;stroke-width:1.5;"/><text fill="#000000" font-family="sans-serif" font-size="12" lengthAdjust="spacing" textLength="124" x="12" y="288.7695">D&#233;roulement normal ?</text><text fill="#000000" font-family="sans-serif" font-size="12" font-weight="bold" lengthAdjust="spacing" textLength="19" x="183" y="289.7695">Oui</text><ellipse cx="170" cy="284.8594" fill="none" rx="5" ry="5" style="stroke:#000000;stroke-width:1.5;"/><ellipse cx="170" cy="284.8594" fill="#000000" rx="2" ry="2" style="stroke:#000000;stroke-width:1.5;"/><text fill="#000000" font-family="sans-serif" font-size="12" lengthAdjust="spacing" textLength="23" x="224" y="289.7695">Non</text><ellipse cx="211" cy="284.8594" fill="none" rx="5" ry="5" style="stroke:#000000;stroke-width:1.5;"/><text fill="#000000" font-family="sans-serif" font-size="12" lengthAdjust="spacing" textLength="250" x="162" y="307.8633">+ Autres caract&#233;ristiques (cf "Grille de saisie")</text><text fill="#000000" font-family="sans-serif" font-size="12" font-weight="bold" lengthAdjust="spacing" textLength="83" x="7" y="326.957">Commentaire :</text><text fill="#000000" font-family="sans-serif" font-size="12" lengthAdjust="spacing" textLength="3" x="11" y="345.0508">&#160;</text><line style="stroke:#000000;stroke-width:1.0;" x1="9" x2="556" y1="347.6875" y2="347.6875"/><line style="stroke:#000000;stroke-width:1.0;" x1="9" x2="9" y1="344.6875" y2="346.6875"/><line style="stroke:#000000;stroke-width:1.0;" x1="556" x2="556" y1="344.6875" y2="346.6875"/><line style="stroke:#AAAAAA;stroke-width:1.0;" x1="6" x2="561" y1="357.1875" y2="357.1875"/><rect fill="#EEEEEE" height="19.0938" rx="5" ry="5" style="stroke:#000000;stroke-width:2.5;" width="60" x="9.5" y="365.1875"/><text fill="#000000" font-family="sans-serif" font-size="12" lengthAdjust="spacing" textLength="42" x="18.5" y="379.6445">Annuler</text><rect fill="#EEEEEE" height="19.0938" rx="5" ry="5" style="stroke:#000000;stroke-width:2.5;" width="92" x="76.5" y="365.1875"/><text fill="#000000" font-family="sans-serif" font-size="12" lengthAdjust="spacing" textLength="70" x="87.5" y="379.6445">Sauvegarder</text></g></svg>