<?xml version="1.0" encoding="UTF-8" standalone="no"?><svg xmlns="http://www.w3.org/2000/svg" xmlns:xlink="http://www.w3.org/1999/xlink" contentStyleType="text/css" height="255px" preserveAspectRatio="none" style="width:245px;height:255px;background:#FFFFFF;" version="1.1" viewBox="0 0 245 255" width="245px" zoomAndPan="magnify"><defs/><g><text fill="#000000" font-family="sans-serif" font-size="12" font-weight="bold" lengthAdjust="spacing" textLength="124" x="13" y="20.8281">Ajouter une mesure :</text><line style="stroke:#AAAAAA;stroke-width:1.0;" x1="7" x2="238" y1="30.8441" y2="30.8441"/><text fill="#000000" font-family="sans-serif" font-size="12" lengthAdjust="spacing" textLength="117" x="13" y="49.1722">Espèce scientifique *</text><rect fill="#EEEEEE" height="19.3441" style="stroke:#000000;stroke-width:1.0;" width="167" x="13" y="56.6882"/><text fill="#000000" font-family="sans-serif" font-size="12" lengthAdjust="spacing" textLength="107" x="15" y="71.5163">Lophius piscatorius</text><line style="stroke:#000000;stroke-width:1.0;" x1="169" x2="169" y1="56.6882" y2="76.0323"/><polygon fill="#000000" points="172,62.6882,178,62.6882,175,71.0323" style="stroke:#000000;stroke-width:1.0;"/><text fill="#000000" font-family="sans-serif" font-size="12" lengthAdjust="spacing" textLength="28" x="208" y="69.5163">Figer</text><rect fill="none" height="10" style="stroke:#000000;stroke-width:1.5;" width="10" x="190" y="59.8603"/><text fill="#000000" font-family="sans-serif" font-size="12" lengthAdjust="spacing" textLength="126" x="13" y="112.2045">Longueur totale (cm) *</text><text fill="#000000" font-family="sans-serif" font-size="12" lengthAdjust="spacing" textLength="14" x="16" y="132.5487">12</text><line style="stroke:#000000;stroke-width:1.0;" x1="14" x2="73" y1="136.0647" y2="136.0647"/><line style="stroke:#000000;stroke-width:1.0;" x1="14" x2="14" y1="133.0647" y2="135.0647"/><line style="stroke:#000000;stroke-width:1.0;" x1="73" x2="73" y1="133.0647" y2="135.0647"/><text fill="#000000" font-family="sans-serif" font-size="12" font-style="italic" lengthAdjust="spacing" textLength="113" x="13" y="173.2369">Poids calculé RTP (kg)</text><text fill="#000000" font-family="sans-serif" font-size="12" lengthAdjust="spacing" textLength="45" x="16" y="193.581">0.01335</text><line style="stroke:#000000;stroke-width:1.0;" x1="14" x2="105" y1="197.097" y2="197.097"/><line style="stroke:#000000;stroke-width:1.0;" x1="14" x2="14" y1="194.097" y2="196.097"/><line style="stroke:#000000;stroke-width:1.0;" x1="105" x2="105" y1="194.097" y2="196.097"/><rect fill="#EEEEEE" height="20.3441" rx="5" ry="5" style="stroke:#000000;stroke-width:2.5;" width="60" x="10.5" y="223.9411"/><text fill="#000000" font-family="sans-serif" font-size="12" lengthAdjust="spacing" textLength="41" x="20" y="238.7692">AJouter</text><line style="stroke:#000000;stroke-width:1.0;" x1="6" x2="238" y1="6" y2="6"/><line style="stroke:#000000;stroke-width:1.0;" x1="6" x2="238" y1="248.7853" y2="248.7853"/><line style="stroke:#000000;stroke-width:1.0;" x1="6" x2="6" y1="6" y2="26.3441"/><line style="stroke:#000000;stroke-width:1.0;" x1="238" x2="238" y1="6" y2="26.3441"/><line style="stroke:#000000;stroke-width:1.0;" x1="6" x2="6" y1="219.4411" y2="248.7853"/><line style="stroke:#000000;stroke-width:1.0;" x1="238" x2="238" y1="219.4411" y2="248.7853"/><line style="stroke:#000000;stroke-width:1.0;" x1="6" x2="6" y1="178.7529" y2="201.097"/><line style="stroke:#000000;stroke-width:1.0;" x1="238" x2="238" y1="178.7529" y2="201.097"/><line style="stroke:#000000;stroke-width:1.0;" x1="6" x2="6" y1="140.0647" y2="158.4088"/><line style="stroke:#000000;stroke-width:1.0;" x1="238" x2="238" y1="140.0647" y2="158.4088"/><line style="stroke:#000000;stroke-width:1.0;" x1="6" x2="6" y1="97.3765" y2="117.7206"/><line style="stroke:#000000;stroke-width:1.0;" x1="238" x2="238" y1="97.3765" y2="117.7206"/><line style="stroke:#000000;stroke-width:1.0;" x1="6" x2="6" y1="54.6882" y2="79.0323"/><line style="stroke:#000000;stroke-width:1.0;" x1="238" x2="238" y1="54.6882" y2="79.0323"/><line style="stroke:#000000;stroke-width:1.0;" x1="6" x2="6" y1="26.3441" y2="34.3441"/><line style="stroke:#000000;stroke-width:1.0;" x1="238" x2="238" y1="26.3441" y2="34.3441"/><line style="stroke:#000000;stroke-width:1.0;" x1="6" x2="6" y1="201.097" y2="219.4411"/><line style="stroke:#000000;stroke-width:1.0;" x1="238" x2="238" y1="201.097" y2="219.4411"/><line style="stroke:#000000;stroke-width:1.0;" x1="6" x2="6" y1="158.4088" y2="178.7529"/><line style="stroke:#000000;stroke-width:1.0;" x1="238" x2="238" y1="158.4088" y2="178.7529"/><line style="stroke:#000000;stroke-width:1.0;" x1="6" x2="6" y1="117.7206" y2="140.0647"/><line style="stroke:#000000;stroke-width:1.0;" x1="238" x2="238" y1="117.7206" y2="140.0647"/><line style="stroke:#000000;stroke-width:1.0;" x1="6" x2="6" y1="79.0323" y2="97.3765"/><line style="stroke:#000000;stroke-width:1.0;" x1="238" x2="238" y1="79.0323" y2="97.3765"/><line style="stroke:#000000;stroke-width:1.0;" x1="6" x2="6" y1="34.3441" y2="54.6882"/><line style="stroke:#000000;stroke-width:1.0;" x1="238" x2="238" y1="34.3441" y2="54.6882"/></g></svg>