<?xml version="1.0" encoding="us-ascii" standalone="no"?><svg xmlns="http://www.w3.org/2000/svg" xmlns:xlink="http://www.w3.org/1999/xlink" contentStyleType="text/css" height="154px" preserveAspectRatio="none" style="width:456px;height:154px;background:#FFFFFF;" version="1.1" viewBox="0 0 456 154" width="456px" zoomAndPan="magnify"><defs/><g><path d="M11,11.9609 L8,14.9909 L11,17.9609 L11,15.9609 L16,15.9609 L16,13.9609 L11,13.9609 L11,11.9609 " fill="#000000" style="stroke:;stroke-width:0.0;stroke-dasharray:;"/><text fill="#000000" font-family="sans-serif" font-size="12" lengthAdjust="spacing" textLength="112" x="20" y="19.9492">Lot MNZ - Baudroie -</text><text fill="#000000" font-family="sans-serif" font-size="12" font-weight="bold" lengthAdjust="spacing" textLength="123" x="135" y="19.9492">Mesures individuelles</text><path d="M442.41,7 L441.72,7.72 L438.94,10.5 L438.13,9.72 L437.41,9 L436,10.41 L436.72,11.13 L438.22,12.63 L438.91,13.35 L439.63,12.63 L443.13,9.13 L443.85,8.41 L442.41,7 " fill="#000000" style="stroke:;stroke-width:0.0;stroke-dasharray:;"/><line style="stroke:#AAAAAA;stroke-width:1.0;" x1="6" x2="449" y1="29.4609" y2="29.4609"/><rect fill="#EEEEEE" height="19.9609" rx="5" ry="5" style="stroke:#000000;stroke-width:2.5;" width="12" x="9.5" y="37.4609"/><text fill="#000000" font-family="sans-serif" font-size="12" lengthAdjust="spacing" textLength="3" x="14" y="52.4102">&#160;</text><text fill="#000000" font-family="sans-serif" font-size="12" lengthAdjust="spacing" textLength="7" x="26" y="47.9102">#</text><text fill="#000000" font-family="sans-serif" font-size="12" font-weight="bold" lengthAdjust="spacing" textLength="111" x="38" y="47.9102">Esp&#232;ce scientifique</text><text fill="#000000" font-family="sans-serif" font-size="12" font-weight="bold" lengthAdjust="spacing" textLength="118" x="185" y="47.9102">Longueur totale (cm)</text><text fill="#000000" font-family="sans-serif" font-size="12" font-weight="bold" lengthAdjust="spacing" textLength="127" x="308" y="47.9102">Poids calcul&#233; RTP (kg)</text><path d="M438,34.9609 L438,35.9609 L446,35.9609 L446,34.9609 L438,34.9609 M438,37.9309 L438,38.9309 L446,38.9309 L446,37.9309 L438,37.9309 M438,40.9309 L438,41.9309 L446,41.9309 L446,40.9309 L438,40.9309 " fill="#000000" style="stroke:;stroke-width:0.0;stroke-dasharray:;"/><rect fill="#EEEEEE" height="19.9609" rx="5" ry="5" style="stroke:#000000;stroke-width:2.5;" width="12" x="9.5" y="64.4219"/><text fill="#000000" font-family="sans-serif" font-size="12" lengthAdjust="spacing" textLength="3" x="14" y="79.3711">&#160;</text><text fill="#000000" font-family="sans-serif" font-size="12" lengthAdjust="spacing" textLength="7" x="26" y="74.8711">1</text><text fill="#000000" font-family="sans-serif" font-size="12" lengthAdjust="spacing" textLength="145" x="35" y="74.8711">ANK - Lophius budegassa</text><text fill="#000000" font-family="sans-serif" font-size="12" lengthAdjust="spacing" textLength="14" x="182" y="74.8711">22</text><text fill="#000000" font-family="sans-serif" font-size="12" lengthAdjust="spacing" textLength="38" x="305" y="74.8711">0.1328</text><rect fill="#EEEEEE" height="19.9609" rx="5" ry="5" style="stroke:#000000;stroke-width:2.5;" width="12" x="9.5" y="91.3828"/><text fill="#000000" font-family="sans-serif" font-size="12" lengthAdjust="spacing" textLength="3" x="14" y="106.332">&#160;</text><text fill="#000000" font-family="sans-serif" font-size="12" lengthAdjust="spacing" textLength="7" x="26" y="101.832">2</text><text fill="#000000" font-family="sans-serif" font-size="12" lengthAdjust="spacing" textLength="145" x="35" y="101.832">ANK - Lophius budegassa</text><text fill="#000000" font-family="sans-serif" font-size="12" lengthAdjust="spacing" textLength="14" x="182" y="101.832">12</text><text fill="#000000" font-family="sans-serif" font-size="12" lengthAdjust="spacing" textLength="38" x="305" y="101.832">0.0223</text><line style="stroke:#000000;stroke-width:1.0;" x1="6" x2="25" y1="33.9609" y2="33.9609"/><line style="stroke:#000000;stroke-width:1.0;" x1="34" x2="181" y1="87.8828" y2="87.8828"/><line style="stroke:#000000;stroke-width:1.0;" x1="25" x2="34" y1="33.9609" y2="33.9609"/><line style="stroke:#000000;stroke-width:1.0;" x1="181" x2="304" y1="87.8828" y2="87.8828"/><line style="stroke:#000000;stroke-width:1.0;" x1="34" x2="181" y1="33.9609" y2="33.9609"/><line style="stroke:#000000;stroke-width:1.0;" x1="304" x2="436" y1="87.8828" y2="87.8828"/><line style="stroke:#000000;stroke-width:1.0;" x1="181" x2="304" y1="33.9609" y2="33.9609"/><line style="stroke:#000000;stroke-width:1.0;" x1="436" x2="448" y1="87.8828" y2="87.8828"/><line style="stroke:#000000;stroke-width:1.0;" x1="304" x2="436" y1="33.9609" y2="33.9609"/><line style="stroke:#000000;stroke-width:1.0;" x1="436" x2="448" y1="33.9609" y2="33.9609"/><line style="stroke:#000000;stroke-width:1.0;" x1="6" x2="25" y1="114.8438" y2="114.8438"/><line style="stroke:#000000;stroke-width:1.0;" x1="25" x2="34" y1="114.8438" y2="114.8438"/><line style="stroke:#000000;stroke-width:1.0;" x1="34" x2="181" y1="114.8438" y2="114.8438"/><line style="stroke:#000000;stroke-width:1.0;" x1="6" x2="25" y1="60.9219" y2="60.9219"/><line style="stroke:#000000;stroke-width:1.0;" x1="181" x2="304" y1="114.8438" y2="114.8438"/><line style="stroke:#000000;stroke-width:1.0;" x1="25" x2="34" y1="60.9219" y2="60.9219"/><line style="stroke:#000000;stroke-width:1.0;" x1="304" x2="436" y1="114.8438" y2="114.8438"/><line style="stroke:#000000;stroke-width:1.0;" x1="34" x2="181" y1="60.9219" y2="60.9219"/><line style="stroke:#000000;stroke-width:1.0;" x1="436" x2="448" y1="114.8438" y2="114.8438"/><line style="stroke:#000000;stroke-width:1.0;" x1="181" x2="304" y1="60.9219" y2="60.9219"/><line style="stroke:#000000;stroke-width:1.0;" x1="304" x2="436" y1="60.9219" y2="60.9219"/><line style="stroke:#000000;stroke-width:1.0;" x1="436" x2="448" y1="60.9219" y2="60.9219"/><line style="stroke:#000000;stroke-width:1.0;" x1="6" x2="25" y1="87.8828" y2="87.8828"/><line style="stroke:#000000;stroke-width:1.0;" x1="25" x2="34" y1="87.8828" y2="87.8828"/><line style="stroke:#000000;stroke-width:1.0;" x1="6" x2="6" y1="33.9609" y2="60.9219"/><line style="stroke:#000000;stroke-width:1.0;" x1="34" x2="34" y1="87.8828" y2="114.8438"/><line style="stroke:#000000;stroke-width:1.0;" x1="25" x2="25" y1="33.9609" y2="60.9219"/><line style="stroke:#000000;stroke-width:1.0;" x1="181" x2="181" y1="87.8828" y2="114.8438"/><line style="stroke:#000000;stroke-width:1.0;" x1="34" x2="34" y1="33.9609" y2="60.9219"/><line style="stroke:#000000;stroke-width:1.0;" x1="304" x2="304" y1="87.8828" y2="114.8438"/><line style="stroke:#000000;stroke-width:1.0;" x1="181" x2="181" y1="33.9609" y2="60.9219"/><line style="stroke:#000000;stroke-width:1.0;" x1="436" x2="436" y1="87.8828" y2="114.8438"/><line style="stroke:#000000;stroke-width:1.0;" x1="448" x2="448" y1="87.8828" y2="114.8438"/><line style="stroke:#000000;stroke-width:1.0;" x1="304" x2="304" y1="33.9609" y2="60.9219"/><line style="stroke:#000000;stroke-width:1.0;" x1="436" x2="436" y1="33.9609" y2="60.9219"/><line style="stroke:#000000;stroke-width:1.0;" x1="448" x2="448" y1="33.9609" y2="60.9219"/><line style="stroke:#000000;stroke-width:1.0;" x1="6" x2="6" y1="60.9219" y2="87.8828"/><line style="stroke:#000000;stroke-width:1.0;" x1="25" x2="25" y1="60.9219" y2="87.8828"/><line style="stroke:#000000;stroke-width:1.0;" x1="34" x2="34" y1="60.9219" y2="87.8828"/><line style="stroke:#000000;stroke-width:1.0;" x1="181" x2="181" y1="60.9219" y2="87.8828"/><line style="stroke:#000000;stroke-width:1.0;" x1="304" x2="304" y1="60.9219" y2="87.8828"/><line style="stroke:#000000;stroke-width:1.0;" x1="436" x2="436" y1="60.9219" y2="87.8828"/><line style="stroke:#000000;stroke-width:1.0;" x1="448" x2="448" y1="60.9219" y2="87.8828"/><line style="stroke:#000000;stroke-width:1.0;" x1="6" x2="6" y1="87.8828" y2="114.8438"/><line style="stroke:#000000;stroke-width:1.0;" x1="25" x2="25" y1="87.8828" y2="114.8438"/><line style="stroke:#AAAAAA;stroke-width:1.0;" x1="6" x2="449" y1="120.3438" y2="120.3438"/><rect fill="#EEEEEE" height="19.9609" rx="5" ry="5" style="stroke:#000000;stroke-width:2.5;" width="76" x="9.5" y="128.3438"/><text fill="#000000" font-family="sans-serif" font-size="12" lengthAdjust="spacing" textLength="52" x="21.5" y="143.293">Appliquer</text><!--SRC=[lL7RJXin47t6Np4I4aeUDifwMuHMQ0M4j5BOfL6WL2hYmV5EDbOSU-jBgYhaVyfty6ET3VJsqiTQliwPCpC-S-Q3SC4B7TYM0Mm1Je-4S_Ph4fPAhXADYr10QGDKrvyXWGiHQsSLqlLqNbJeeqCFojHge-g8MjFh4GOlwpzCAbSkKQwA7LL_a2JiO7j8jsxSmmEGms7dD2zWxDldxnB1IuKcg8Nw4X7W5IojQI961y46eH5wSjr_XQPMrHwaq3BgvoUOtKwXjshswD4QJIp-IFS8AQtpwokIfxJjKaKFyrXZ8xmNX71Est2GPloaK-Wl9lydCtrX3ZdFVZ5tZ0xwSjUtlU7-l6rrzo_tm3funyxGrFlcigaM9doiIjYWyyeQI0TyoBD1clO-OGqts4AQ0H_c_3ZFCXYDRswXS-Yptljf2Tv6H-BLoWUdvZ5GX3wRY8s0MIGrrvZ3XnRDvFBgfm76PgESDQHHO9ExwhV3yPlaGWLAwQWMkAlO9Iv4r84OqjRAD3cCsfI_vQmKr1RHKF25OoDBWTst7DxDVW00]--></g></svg>