<?xml version="1.0" encoding="us-ascii" standalone="no"?><svg xmlns="http://www.w3.org/2000/svg" xmlns:xlink="http://www.w3.org/1999/xlink" contentStyleType="text/css" height="91px" preserveAspectRatio="none" style="width:699px;height:91px;background:#FFFFFF;" version="1.1" viewBox="0 0 699 91" width="699px" zoomAndPan="magnify"><defs/><g><text fill="#000000" font-family="sans-serif" font-size="12" font-weight="bold" lengthAdjust="spacing" textLength="43" x="11" y="18.9492">Mar&#233;es</text><line style="stroke:#000000;stroke-width:1.0;" x1="6" x2="6" y1="6" y2="21.9609"/><line style="stroke:#000000;stroke-width:1.0;" x1="6" x2="57" y1="6" y2="6"/><line style="stroke:#000000;stroke-width:1.0;" x1="57" x2="57" y1="6" y2="21.9609"/><line style="stroke:#000000;stroke-width:1.0;" x1="57" x2="67" y1="21.9609" y2="21.9609"/><rect fill="#EEEEEE" height="12" rx="5" ry="5" style="stroke:#000000;stroke-width:2.5;" width="28" x="9.5" y="27.4609"/><path d="M22.5,29.4609 L22.5,32.4609 L19.5,32.4609 L19.5,34.4609 L22.5,34.4609 L22.5,37.4609 L24.5,37.4609 L24.5,34.4609 L27.5,34.4609 L27.5,32.4609 L24.5,32.4609 L24.5,29.4609 L22.5,29.4609 " fill="#000000" style="stroke:;stroke-width:0.0;stroke-dasharray:;"/><rect fill="#EEEEEE" height="12" rx="5" ry="5" style="stroke:#000000;stroke-width:2.5;" width="20" x="44.5" y="27.4609"/><path d="M50.5,29.4609 L54.5,33.4609 L58.5,29.4609 L50.5,29.4609 " fill="#000000" style="stroke:;stroke-width:0.0;stroke-dasharray:;"/><text fill="#000000" font-family="sans-serif" font-size="12" lengthAdjust="spacing" textLength="7" x="7" y="56.9102">#</text><text fill="#000000" font-family="sans-serif" font-size="12" font-weight="bold" lengthAdjust="spacing" textLength="22" x="42" y="56.9102">Etat</text><text fill="#000000" font-family="sans-serif" font-size="12" font-weight="bold" lengthAdjust="spacing" textLength="68" x="69" y="56.9102">Programme</text><text fill="#000000" font-family="sans-serif" font-size="12" font-weight="bold" lengthAdjust="spacing" textLength="36" x="139" y="56.9102">Navire</text><text fill="#000000" font-family="sans-serif" font-size="12" font-weight="bold" lengthAdjust="spacing" textLength="64" x="262" y="56.9102">Port d&#233;part</text><text fill="#000000" font-family="sans-serif" font-size="12" font-weight="bold" lengthAdjust="spacing" textLength="66" x="343" y="56.9102">Date d&#233;part</text><text fill="#000000" font-family="sans-serif" font-size="12" font-weight="bold" lengthAdjust="spacing" textLength="64" x="441" y="56.9102">Date retour</text><text fill="#000000" font-family="sans-serif" font-size="12" font-weight="bold" lengthAdjust="spacing" textLength="61" x="539" y="56.9102">Saisisseur</text><text fill="#000000" font-family="sans-serif" font-size="12" font-weight="bold" lengthAdjust="spacing" textLength="71" x="605" y="56.9102">Observateur</text><text fill="#000000" font-family="sans-serif" font-size="12" font-weight="bold" lengthAdjust="spacing" textLength="9" x="681" y="56.9102">...</text><text fill="#000000" font-family="sans-serif" font-size="12" lengthAdjust="spacing" textLength="7" x="7" y="74.8711">1</text><text fill="#000000" font-family="sans-serif" font-size="12" font-weight="bold" lengthAdjust="spacing" textLength="6" x="42" y="74.8711">&#160;&#160;</text><path d="M55,66.8828 L54,67.8828 L56,69.8828 L57,68.8828 L55,66.8828 M53,68.8828 L49,72.8828 L49,74.8828 L51,74.8828 L55,70.8828 L53,68.8828 " fill="#000000" style="stroke:;stroke-width:0.0;stroke-dasharray:;"/><text fill="#000000" font-family="sans-serif" font-size="12" lengthAdjust="spacing" textLength="62" x="69" y="74.8711">CAM-CGFS</text><text fill="#000000" font-family="sans-serif" font-size="12" lengthAdjust="spacing" textLength="118" x="139" y="74.8711">CN851769 - Vessel 2</text><text fill="#000000" font-family="sans-serif" font-size="12" lengthAdjust="spacing" textLength="79" x="259" y="74.8711">FRBES - Brest</text><text fill="#000000" font-family="sans-serif" font-size="12" lengthAdjust="spacing" textLength="96" x="340" y="74.8711">02/01/2024 06:15</text><text fill="#000000" font-family="sans-serif" font-size="12" lengthAdjust="spacing" textLength="96" x="438" y="74.8711">02/01/2024 16:20</text><text fill="#000000" font-family="sans-serif" font-size="12" lengthAdjust="spacing" textLength="35" x="536" y="74.8711">Admin</text><text fill="#000000" font-family="sans-serif" font-size="12" lengthAdjust="spacing" textLength="30" x="602" y="74.8711">Obs1</text><line style="stroke:#000000;stroke-width:1.0;" x1="6" x2="41" y1="23.9609" y2="23.9609"/><line style="stroke:#000000;stroke-width:1.0;" x1="41" x2="68" y1="23.9609" y2="23.9609"/><line style="stroke:#000000;stroke-width:1.0;" x1="68" x2="138" y1="23.9609" y2="23.9609"/><line style="stroke:#000000;stroke-width:1.0;" x1="138" x2="258" y1="23.9609" y2="23.9609"/><line style="stroke:#000000;stroke-width:1.0;" x1="258" x2="339" y1="23.9609" y2="23.9609"/><line style="stroke:#000000;stroke-width:1.0;" x1="339" x2="437" y1="23.9609" y2="23.9609"/><line style="stroke:#000000;stroke-width:1.0;" x1="437" x2="535" y1="23.9609" y2="23.9609"/><line style="stroke:#000000;stroke-width:1.0;" x1="535" x2="601" y1="23.9609" y2="23.9609"/><line style="stroke:#000000;stroke-width:1.0;" x1="601" x2="677" y1="23.9609" y2="23.9609"/><line style="stroke:#000000;stroke-width:1.0;" x1="677" x2="691" y1="23.9609" y2="23.9609"/><line style="stroke:#000000;stroke-width:1.0;" x1="6" x2="41" y1="78.8828" y2="78.8828"/><line style="stroke:#000000;stroke-width:1.0;" x1="41" x2="68" y1="78.8828" y2="78.8828"/><line style="stroke:#000000;stroke-width:1.0;" x1="68" x2="138" y1="78.8828" y2="78.8828"/><line style="stroke:#000000;stroke-width:1.0;" x1="138" x2="258" y1="78.8828" y2="78.8828"/><line style="stroke:#000000;stroke-width:1.0;" x1="258" x2="339" y1="78.8828" y2="78.8828"/><line style="stroke:#000000;stroke-width:1.0;" x1="339" x2="437" y1="78.8828" y2="78.8828"/><line style="stroke:#000000;stroke-width:1.0;" x1="437" x2="535" y1="78.8828" y2="78.8828"/><line style="stroke:#000000;stroke-width:1.0;" x1="535" x2="601" y1="78.8828" y2="78.8828"/><line style="stroke:#000000;stroke-width:1.0;" x1="601" x2="677" y1="78.8828" y2="78.8828"/><line style="stroke:#000000;stroke-width:1.0;" x1="677" x2="691" y1="78.8828" y2="78.8828"/><line style="stroke:#000000;stroke-width:1.0;" x1="6" x2="41" y1="60.9219" y2="60.9219"/><line style="stroke:#000000;stroke-width:1.0;" x1="41" x2="68" y1="60.9219" y2="60.9219"/><line style="stroke:#000000;stroke-width:1.0;" x1="68" x2="138" y1="60.9219" y2="60.9219"/><line style="stroke:#000000;stroke-width:1.0;" x1="138" x2="258" y1="60.9219" y2="60.9219"/><line style="stroke:#000000;stroke-width:1.0;" x1="258" x2="339" y1="60.9219" y2="60.9219"/><line style="stroke:#000000;stroke-width:1.0;" x1="339" x2="437" y1="60.9219" y2="60.9219"/><line style="stroke:#000000;stroke-width:1.0;" x1="437" x2="535" y1="60.9219" y2="60.9219"/><line style="stroke:#000000;stroke-width:1.0;" x1="535" x2="601" y1="60.9219" y2="60.9219"/><line style="stroke:#000000;stroke-width:1.0;" x1="601" x2="677" y1="60.9219" y2="60.9219"/><line style="stroke:#000000;stroke-width:1.0;" x1="677" x2="691" y1="60.9219" y2="60.9219"/><line style="stroke:#000000;stroke-width:1.0;" x1="6" x2="41" y1="42.9609" y2="42.9609"/><line style="stroke:#000000;stroke-width:1.0;" x1="41" x2="68" y1="42.9609" y2="42.9609"/><line style="stroke:#000000;stroke-width:1.0;" x1="68" x2="138" y1="42.9609" y2="42.9609"/><line style="stroke:#000000;stroke-width:1.0;" x1="138" x2="258" y1="42.9609" y2="42.9609"/><line style="stroke:#000000;stroke-width:1.0;" x1="258" x2="339" y1="42.9609" y2="42.9609"/><line style="stroke:#000000;stroke-width:1.0;" x1="339" x2="437" y1="42.9609" y2="42.9609"/><line style="stroke:#000000;stroke-width:1.0;" x1="437" x2="535" y1="42.9609" y2="42.9609"/><line style="stroke:#000000;stroke-width:1.0;" x1="535" x2="601" y1="42.9609" y2="42.9609"/><line style="stroke:#000000;stroke-width:1.0;" x1="601" x2="677" y1="42.9609" y2="42.9609"/><line style="stroke:#000000;stroke-width:1.0;" x1="677" x2="691" y1="42.9609" y2="42.9609"/><line style="stroke:#000000;stroke-width:1.0;" x1="6" x2="6" y1="23.9609" y2="42.9609"/><line style="stroke:#000000;stroke-width:1.0;" x1="41" x2="41" y1="23.9609" y2="42.9609"/><line style="stroke:#000000;stroke-width:1.0;" x1="68" x2="68" y1="23.9609" y2="42.9609"/><line style="stroke:#000000;stroke-width:1.0;" x1="691" x2="691" y1="23.9609" y2="42.9609"/><line style="stroke:#000000;stroke-width:1.0;" x1="6" x2="6" y1="60.9219" y2="78.8828"/><line style="stroke:#000000;stroke-width:1.0;" x1="41" x2="41" y1="60.9219" y2="78.8828"/><line style="stroke:#000000;stroke-width:1.0;" x1="68" x2="68" y1="60.9219" y2="78.8828"/><line style="stroke:#000000;stroke-width:1.0;" x1="138" x2="138" y1="60.9219" y2="78.8828"/><line style="stroke:#000000;stroke-width:1.0;" x1="258" x2="258" y1="60.9219" y2="78.8828"/><line style="stroke:#000000;stroke-width:1.0;" x1="339" x2="339" y1="60.9219" y2="78.8828"/><line style="stroke:#000000;stroke-width:1.0;" x1="437" x2="437" y1="60.9219" y2="78.8828"/><line style="stroke:#000000;stroke-width:1.0;" x1="535" x2="535" y1="60.9219" y2="78.8828"/><line style="stroke:#000000;stroke-width:1.0;" x1="601" x2="601" y1="60.9219" y2="78.8828"/><line style="stroke:#000000;stroke-width:1.0;" x1="677" x2="677" y1="60.9219" y2="78.8828"/><line style="stroke:#000000;stroke-width:1.0;" x1="691" x2="691" y1="60.9219" y2="78.8828"/><line style="stroke:#000000;stroke-width:1.0;" x1="6" x2="6" y1="42.9609" y2="60.9219"/><line style="stroke:#000000;stroke-width:1.0;" x1="41" x2="41" y1="42.9609" y2="60.9219"/><line style="stroke:#000000;stroke-width:1.0;" x1="68" x2="68" y1="42.9609" y2="60.9219"/><line style="stroke:#000000;stroke-width:1.0;" x1="138" x2="138" y1="42.9609" y2="60.9219"/><line style="stroke:#000000;stroke-width:1.0;" x1="258" x2="258" y1="42.9609" y2="60.9219"/><line style="stroke:#000000;stroke-width:1.0;" x1="339" x2="339" y1="42.9609" y2="60.9219"/><line style="stroke:#000000;stroke-width:1.0;" x1="437" x2="437" y1="42.9609" y2="60.9219"/><line style="stroke:#000000;stroke-width:1.0;" x1="535" x2="535" y1="42.9609" y2="60.9219"/><line style="stroke:#000000;stroke-width:1.0;" x1="601" x2="601" y1="42.9609" y2="60.9219"/><line style="stroke:#000000;stroke-width:1.0;" x1="677" x2="677" y1="42.9609" y2="60.9219"/><line style="stroke:#000000;stroke-width:1.0;" x1="691" x2="691" y1="42.9609" y2="60.9219"/><line style="stroke:#AAAAAA;stroke-width:1.0;" x1="6" x2="692" y1="84.3828" y2="84.3828"/><!--SRC=[RP71JkCm48RFwwSO2Gd18Mdiqh0RLHKqBKYbWOhiTW-8WzkOob9YL_Qa4Yfze3u7ByQafA2LrfVOtqp- -VtxogDqw6M9RCiOmBO3_SK0CkdUzye3m8unzcDxGgLcFK7_T5tMVl0CR_3KFrrAfp1OM4HR3PxRfXEgaSWO9NxkPiwkdAmgTIWVqBtSQAUE9vXPXr2yxzTafaKZYUf_Y0RQshKabzfhxrK3clF3mYkteRQlZZ0CMrky9SqLb5dgSa0WlSw2zFOcX-CYTF-pno_ZNn30N95s2OBepUDmd1CQEkKRFv7eHBmZ8d41KPpmth-8nuc825qNbJRq9Lyq_c1aryGS18pjs9KonI5wDYkbmJ_P53RAUMqDy91qkY7dPtzL0RbQ0- -2Y18H9zqkfEFyDpGDv-piTZO5JuaiAItjqUb5ZQHmpYPo8-6nDgWhbS03tNaokZi261jw06igPP1DvjbtGtmH33NII4TUO9wnaNgHTOdqnz8MsgmIIDTSz0IRIhEgvOh4NnnBBGcxruI2-W00]--></g></svg>