<?xml version="1.0" encoding="us-ascii" standalone="no"?><svg xmlns="http://www.w3.org/2000/svg" xmlns:xlink="http://www.w3.org/1999/xlink" contentStyleType="text/css" height="570px" preserveAspectRatio="none" style="width:636px;height:570px;background:#FFFFFF;" version="1.1" viewBox="0 0 636 570" width="636px" zoomAndPan="magnify"><defs/><g><text fill="#000000" font-family="sans-serif" font-size="12" font-weight="bold" lengthAdjust="spacing" textLength="88" x="6" y="18.457">Nouvelle mar&#233;e</text><line style="stroke:#AAAAAA;stroke-width:1.0;stroke-dasharray:1.0,2.0;" x1="6" x2="629" y1="26.5938" y2="26.5938"/><text fill="#000000" font-family="sans-serif" font-size="12" font-weight="bold" lengthAdjust="spacing" textLength="39" x="8" y="43.5508">D&#233;tails</text><line style="stroke:#000000;stroke-width:1.0;" x1="6" x2="6" y1="31.0938" y2="46.1875"/><line style="stroke:#000000;stroke-width:1.0;" x1="6" x2="50" y1="31.0938" y2="31.0938"/><line style="stroke:#000000;stroke-width:1.0;" x1="50" x2="50" y1="31.0938" y2="46.1875"/><line style="stroke:#000000;stroke-width:1.0;" x1="50" x2="60" y1="46.1875" y2="46.1875"/><text fill="#000000" font-family="sans-serif" font-size="12" lengthAdjust="spacing" textLength="39" x="62" y="43.5508">Engins</text><line style="stroke:#000000;stroke-width:1.0;" x1="60" x2="60" y1="31.0938" y2="46.1875"/><line style="stroke:#000000;stroke-width:1.0;" x1="60" x2="104" y1="31.0938" y2="31.0938"/><line style="stroke:#000000;stroke-width:1.0;" x1="104" x2="104" y1="31.0938" y2="46.1875"/><line style="stroke:#000000;stroke-width:1.0;" x1="104" x2="114" y1="46.1875" y2="46.1875"/><text fill="#000000" font-family="sans-serif" font-size="12" lengthAdjust="spacing" textLength="61" x="116" y="43.5508">Op&#233;rations</text><line style="stroke:#000000;stroke-width:1.0;" x1="114" x2="114" y1="31.0938" y2="46.1875"/><line style="stroke:#000000;stroke-width:1.0;" x1="114" x2="180" y1="31.0938" y2="31.0938"/><line style="stroke:#000000;stroke-width:1.0;" x1="180" x2="180" y1="31.0938" y2="46.1875"/><line style="stroke:#000000;stroke-width:1.0;" x1="180" x2="190" y1="46.1875" y2="46.1875"/><text fill="#000000" font-family="sans-serif" font-size="12" lengthAdjust="spacing" textLength="136" x="7" y="78.7383">Programme de collecte*:</text><rect fill="#EEEEEE" height="18.0938" style="stroke:#000000;stroke-width:1.0;" width="319" x="146" y="67.2813"/><text fill="#000000" font-family="sans-serif" font-size="12" lengthAdjust="spacing" textLength="75" x="148" y="81.7383">SIH-OBSMER</text><line style="stroke:#000000;stroke-width:1.0;" x1="454" x2="454" y1="67.2813" y2="85.375"/><polygon fill="#000000" points="457,73.2813,463,73.2813,460,80.375" style="stroke:#000000;stroke-width:1.0;"/><text fill="#000000" font-family="sans-serif" font-size="12" lengthAdjust="spacing" textLength="145" x="470" y="94.832">D&#233;marrage au 01/01/2023</text><line style="stroke:#000000;stroke-width:1.0;" x1="469" x2="616" y1="73.8281" y2="73.8281"/><line style="stroke:#000000;stroke-width:1.0;" x1="469" x2="616" y1="98.4688" y2="98.4688"/><line style="stroke:#000000;stroke-width:1.0;" x1="469" x2="469" y1="73.8281" y2="98.4688"/><line style="stroke:#000000;stroke-width:1.0;" x1="616" x2="616" y1="73.8281" y2="98.4688"/><rect fill="#FFFFFF" height="15.0938" style="stroke:#FFFFFF;stroke-width:1.0;" width="49" x="475" y="66.2813"/><text fill="#000000" font-family="sans-serif" font-size="12" lengthAdjust="spacing" textLength="49" x="475" y="78.7383">Strat&#233;gie</text><text fill="#000000" font-family="sans-serif" font-size="12" lengthAdjust="spacing" textLength="109" x="7" y="128.0195">R&#233;f&#233;rence au plan*:</text><rect fill="#EEEEEE" height="18.0938" style="stroke:#000000;stroke-width:1.0;" width="207" x="146" y="116.5625"/><text fill="#000000" font-family="sans-serif" font-size="12" lengthAdjust="spacing" textLength="160" x="148" y="131.0195">2021_M020 - DPMA_23_Lot4</text><line style="stroke:#000000;stroke-width:1.0;" x1="342" x2="342" y1="116.5625" y2="134.6563"/><polygon fill="#000000" points="345,122.5625,351,122.5625,348,129.6563" style="stroke:#000000;stroke-width:1.0;"/><text fill="#000000" font-family="sans-serif" font-size="12" lengthAdjust="spacing" textLength="147" x="470" y="144.1133">Nicolas DUPOND - Ifremer</text><line style="stroke:#000000;stroke-width:1.0;" x1="469" x2="618" y1="123.1094" y2="123.1094"/><line style="stroke:#000000;stroke-width:1.0;" x1="469" x2="618" y1="147.75" y2="147.75"/><line style="stroke:#000000;stroke-width:1.0;" x1="469" x2="469" y1="123.1094" y2="147.75"/><line style="stroke:#000000;stroke-width:1.0;" x1="618" x2="618" y1="123.1094" y2="147.75"/><rect fill="#FFFFFF" height="15.0938" style="stroke:#FFFFFF;stroke-width:1.0;" width="60" x="475" y="115.5625"/><text fill="#000000" font-family="sans-serif" font-size="12" lengthAdjust="spacing" textLength="60" x="475" y="128.0195">Saisisseur</text><path d="M470,168.9375 L470,170.9375 L477,170.9375 L477,168.9375 L470,168.9375 M470,171.9375 L470,176.8475 C470,176.8975 470.04,176.9375 470.09,176.9375 L476.9,176.9375 C476.95,176.9375 476.99,176.8975 476.99,176.8475 L476.99,171.9375 L469.99,171.9375 M471,172.9375 L472,172.9375 L472,173.9375 L471,173.9375 L471,172.9375 M473,172.9375 L474,172.9375 L474,173.9375 L473,173.9375 L473,172.9375 M475,172.9375 L476,172.9375 L476,173.9375 L475,173.9375 L475,172.9375 M471,174.9375 L472,174.9375 L472,175.9375 L471,175.9375 L471,174.9375 M473,174.9375 L474,174.9375 L474,175.9375 L473,175.9375 L473,174.9375 " fill="#000000" style="stroke:;stroke-width:0.0;stroke-dasharray:;"/><text fill="#000000" font-family="sans-serif" font-size="12" lengthAdjust="spacing" textLength="105" x="482" y="177.3008">Cr&#233;&#233; le 10/11/2023</text><text fill="#000000" font-family="sans-serif" font-size="12" lengthAdjust="spacing" textLength="82" x="7" y="211.4883">Observateurs*:</text><rect fill="#EEEEEE" height="18.0938" style="stroke:#000000;stroke-width:1.0;" width="167" x="145" y="199.0313"/><text fill="#000000" font-family="sans-serif" font-size="12" lengthAdjust="spacing" textLength="84" x="147" y="213.4883">Observateur #1</text><line style="stroke:#000000;stroke-width:1.0;" x1="301" x2="301" y1="199.0313" y2="217.125"/><polygon fill="#000000" points="304,205.0313,310,205.0313,307,212.125" style="stroke:#000000;stroke-width:1.0;"/><rect fill="#EEEEEE" height="12" rx="5" ry="5" style="stroke:#000000;stroke-width:2.5;" width="20" x="336.5" y="202.5313"/><path d="M345.5,204.5313 L345.5,207.5313 L342.5,207.5313 L342.5,209.5313 L345.5,209.5313 L345.5,212.5313 L347.5,212.5313 L347.5,209.5313 L350.5,209.5313 L350.5,207.5313 L347.5,207.5313 L347.5,204.5313 L345.5,204.5313 " fill="#000000" style="stroke:;stroke-width:0.0;stroke-dasharray:;"/><rect fill="#EEEEEE" height="12" rx="5" ry="5" style="stroke:#000000;stroke-width:2.5;" width="20" x="363.5" y="202.5313"/><path d="M370.91,204.5313 L369.5,205.9413 L370.22,206.6613 L372,208.4713 L370.22,210.2513 L369.5,210.9413 L370.91,212.3813 L371.63,211.6613 L373.44,209.8513 L375.22,211.6613 L375.91,212.3813 L377.35,210.9413 L376.63,210.2513 L374.82,208.4713 L376.63,206.6613 L377.35,205.9413 L375.91,204.5313 L375.22,205.2513 L373.44,207.0313 L371.63,205.2513 L370.91,204.5313 " fill="#000000" style="stroke:;stroke-width:0.0;stroke-dasharray:;"/><path d="M470,203.125 L470,205.125 L477,205.125 L477,203.125 L470,203.125 M470,206.125 L470,211.035 C470,211.085 470.04,211.125 470.09,211.125 L476.9,211.125 C476.95,211.125 476.99,211.085 476.99,211.035 L476.99,206.125 L469.99,206.125 M471,207.125 L472,207.125 L472,208.125 L471,208.125 L471,207.125 M473,207.125 L474,207.125 L474,208.125 L473,208.125 L473,207.125 M475,207.125 L476,207.125 L476,208.125 L475,208.125 L475,207.125 M471,209.125 L472,209.125 L472,210.125 L471,210.125 L471,209.125 M473,209.125 L474,209.125 L474,210.125 L473,210.125 L473,209.125 " fill="#000000" style="stroke:;stroke-width:0.0;stroke-dasharray:;"/><text fill="#000000" font-family="sans-serif" font-size="12" lengthAdjust="spacing" textLength="131" x="482" y="211.4883">Mis &#224; jour le 10/11/2023</text><text fill="#000000" font-family="sans-serif" font-size="12" lengthAdjust="spacing" textLength="43" x="7" y="232.582">Navire*:</text><rect fill="#EEEEEE" height="18.0938" style="stroke:#000000;stroke-width:1.0;" width="167" x="146" y="221.125"/><text fill="#000000" font-family="sans-serif" font-size="12" lengthAdjust="spacing" textLength="110" x="148" y="235.582">851751 - PETIT BAT</text><line style="stroke:#000000;stroke-width:1.0;" x1="302" x2="302" y1="221.125" y2="239.2188"/><polygon fill="#000000" points="305,227.125,311,227.125,308,234.2188" style="stroke:#000000;stroke-width:1.0;"/><rect fill="#EEEEEE" height="19.0938" rx="5" ry="5" style="stroke:#000000;stroke-width:2.5;" width="148" x="471.5" y="222.625"/><text fill="#000000" font-family="sans-serif" font-size="12" lengthAdjust="spacing" textLength="100" x="495.5" y="237.082">Terminer la saisie</text><text fill="#000000" font-family="sans-serif" font-size="12" lengthAdjust="spacing" textLength="45" x="7" y="275.7695">D&#233;part*:</text><rect fill="#EEEEEE" height="18.0938" style="stroke:#000000;stroke-width:1.0;" width="167" x="146" y="264.3125"/><text fill="#000000" font-family="sans-serif" font-size="12" lengthAdjust="spacing" textLength="102" x="148" y="278.7695">DRZ - Douarnenez</text><line style="stroke:#000000;stroke-width:1.0;" x1="302" x2="302" y1="264.3125" y2="282.4063"/><polygon fill="#000000" points="305,270.3125,311,270.3125,308,277.4063" style="stroke:#000000;stroke-width:1.0;"/><rect fill="#EEEEEE" height="18.0938" style="stroke:#000000;stroke-width:1.0;" width="103" x="334" y="264.3125"/><text fill="#000000" font-family="sans-serif" font-size="12" lengthAdjust="spacing" textLength="62" x="336" y="278.7695">jj/mm/aaaa</text><line style="stroke:#000000;stroke-width:1.0;" x1="426" x2="426" y1="264.3125" y2="282.4063"/><polygon fill="#000000" points="429,270.3125,435,270.3125,432,277.4063" style="stroke:#000000;stroke-width:1.0;"/><rect fill="#EEEEEE" height="18.0938" style="stroke:#000000;stroke-width:1.0;" width="103" x="470" y="264.3125"/><text fill="#000000" font-family="sans-serif" font-size="12" lengthAdjust="spacing" textLength="39" x="472" y="278.7695">hh:mm</text><line style="stroke:#000000;stroke-width:1.0;" x1="562" x2="562" y1="264.3125" y2="282.4063"/><polygon fill="#000000" points="565,270.3125,571,270.3125,568,277.4063" style="stroke:#000000;stroke-width:1.0;"/><text fill="#000000" font-family="sans-serif" font-size="12" lengthAdjust="spacing" textLength="45" x="7" y="298.8633">Retour*:</text><rect fill="#EEEEEE" height="18.0938" style="stroke:#000000;stroke-width:1.0;" width="167" x="146" y="287.4063"/><text fill="#000000" font-family="sans-serif" font-size="12" lengthAdjust="spacing" textLength="102" x="148" y="301.8633">DRZ - Douarnenez</text><line style="stroke:#000000;stroke-width:1.0;" x1="302" x2="302" y1="287.4063" y2="305.5"/><polygon fill="#000000" points="305,293.4063,311,293.4063,308,300.5" style="stroke:#000000;stroke-width:1.0;"/><rect fill="#EEEEEE" height="18.0938" style="stroke:#000000;stroke-width:1.0;" width="103" x="334" y="287.4063"/><text fill="#000000" font-family="sans-serif" font-size="12" lengthAdjust="spacing" textLength="62" x="336" y="301.8633">jj/mm/aaaa</text><line style="stroke:#000000;stroke-width:1.0;" x1="426" x2="426" y1="287.4063" y2="305.5"/><polygon fill="#000000" points="429,293.4063,435,293.4063,432,300.5" style="stroke:#000000;stroke-width:1.0;"/><rect fill="#EEEEEE" height="18.0938" style="stroke:#000000;stroke-width:1.0;" width="103" x="470" y="287.4063"/><text fill="#000000" font-family="sans-serif" font-size="12" lengthAdjust="spacing" textLength="39" x="472" y="301.8633">hh:mm</text><line style="stroke:#000000;stroke-width:1.0;" x1="562" x2="562" y1="287.4063" y2="305.5"/><polygon fill="#000000" points="565,293.4063,571,293.4063,568,300.5" style="stroke:#000000;stroke-width:1.0;"/><text fill="#0000FF" font-family="sans-serif" font-size="12" font-style="italic" lengthAdjust="spacing" textLength="101" x="333" y="321.957">dur&#233;e de la mar&#233;e</text><text fill="#000000" font-family="sans-serif" font-size="12" lengthAdjust="spacing" textLength="39" x="7" y="356.1445">Vente*:</text><rect fill="#EEEEEE" height="18.0938" style="stroke:#000000;stroke-width:1.0;" width="183" x="146" y="344.6875"/><text fill="#000000" font-family="sans-serif" font-size="12" lengthAdjust="spacing" textLength="75" x="148" y="359.1445">Type de vente</text><line style="stroke:#000000;stroke-width:1.0;" x1="318" x2="318" y1="344.6875" y2="362.7813"/><polygon fill="#000000" points="321,350.6875,327,350.6875,324,357.7813" style="stroke:#000000;stroke-width:1.0;"/><rect fill="#EEEEEE" height="18.0938" style="stroke:#000000;stroke-width:1.0;" width="103" x="334" y="344.6875"/><text fill="#000000" font-family="sans-serif" font-size="12" lengthAdjust="spacing" textLength="62" x="336" y="359.1445">jj/mm/aaaa</text><line style="stroke:#000000;stroke-width:1.0;" x1="426" x2="426" y1="344.6875" y2="362.7813"/><polygon fill="#000000" points="429,350.6875,435,350.6875,432,357.7813" style="stroke:#000000;stroke-width:1.0;"/><rect fill="#EEEEEE" height="18.0938" style="stroke:#000000;stroke-width:1.0;" width="63" x="470" y="344.6875"/><text fill="#000000" font-family="sans-serif" font-size="12" lengthAdjust="spacing" textLength="39" x="472" y="359.1445">hh:mm</text><line style="stroke:#000000;stroke-width:1.0;" x1="522" x2="522" y1="344.6875" y2="362.7813"/><polygon fill="#000000" points="525,350.6875,531,350.6875,528,357.7813" style="stroke:#000000;stroke-width:1.0;"/><rect fill="#EEEEEE" height="18.0938" style="stroke:#000000;stroke-width:1.0;" width="183" x="146" y="367.7813"/><text fill="#000000" font-family="sans-serif" font-size="12" lengthAdjust="spacing" textLength="73" x="148" y="382.2383">Lieu de vente</text><line style="stroke:#000000;stroke-width:1.0;" x1="318" x2="318" y1="367.7813" y2="385.875"/><polygon fill="#000000" points="321,373.7813,327,373.7813,324,380.875" style="stroke:#000000;stroke-width:1.0;"/><text fill="#000000" font-family="sans-serif" font-size="12" font-weight="bold" lengthAdjust="spacing" textLength="101" x="6" y="403.332">Caract&#233;ristiques :</text><text fill="#000000" font-family="sans-serif" font-size="12" lengthAdjust="spacing" textLength="151" x="12" y="421.4258">Nombre d'hommes &#224; bord :</text><text fill="#000000" font-family="sans-serif" font-size="12" lengthAdjust="spacing" textLength="7" x="168" y="421.4258">4</text><line style="stroke:#000000;stroke-width:1.0;" x1="166" x2="209" y1="424.0625" y2="424.0625"/><line style="stroke:#000000;stroke-width:1.0;" x1="166" x2="166" y1="421.0625" y2="423.0625"/><line style="stroke:#000000;stroke-width:1.0;" x1="209" x2="209" y1="421.0625" y2="423.0625"/><text fill="#000000" font-family="sans-serif" font-size="12" lengthAdjust="spacing" textLength="107" x="12" y="440.5195">Caract&#233;ristique #2 :</text><rect fill="#EEEEEE" height="18.0938" style="stroke:#000000;stroke-width:1.0;" width="159" x="165" y="428.0625"/><text fill="#000000" font-family="sans-serif" font-size="12" lengthAdjust="spacing" textLength="93" x="167" y="442.5195">Valeur qualitative</text><line style="stroke:#000000;stroke-width:1.0;" x1="313" x2="313" y1="428.0625" y2="446.1563"/><polygon fill="#000000" points="316,434.0625,322,434.0625,319,441.1563" style="stroke:#000000;stroke-width:1.0;"/><text fill="#000000" font-family="sans-serif" font-size="12" lengthAdjust="spacing" textLength="250" x="165" y="461.6133">+ autres caract&#233;ristiques (cf "Grille de saisie")</text><text fill="#000000" font-family="sans-serif" font-size="12" font-weight="bold" lengthAdjust="spacing" textLength="83" x="7" y="497.8008">Commentaire :</text><text fill="#000000" font-family="sans-serif" font-size="12" lengthAdjust="spacing" textLength="3" x="11" y="532.9883">&#160;</text><line style="stroke:#000000;stroke-width:1.0;" x1="9" x2="516" y1="535.625" y2="535.625"/><line style="stroke:#000000;stroke-width:1.0;" x1="9" x2="9" y1="532.625" y2="534.625"/><line style="stroke:#000000;stroke-width:1.0;" x1="516" x2="516" y1="532.625" y2="534.625"/><line style="stroke:#000000;stroke-width:1.0;" x1="7" x2="519" y1="502.4375" y2="502.4375"/><line style="stroke:#000000;stroke-width:1.0;" x1="7" x2="519" y1="538.625" y2="538.625"/><line style="stroke:#000000;stroke-width:1.0;" x1="7" x2="7" y1="502.4375" y2="519.5313"/><line style="stroke:#000000;stroke-width:1.0;" x1="519" x2="519" y1="519.5313" y2="538.625"/><line style="stroke:#000000;stroke-width:1.0;" x1="519" x2="519" y1="502.4375" y2="519.5313"/><line style="stroke:#000000;stroke-width:1.0;" x1="7" x2="7" y1="519.5313" y2="538.625"/><rect fill="#EEEEEE" height="19.0938" rx="5" ry="5" style="stroke:#000000;stroke-width:2.5;" width="52" x="9.5" y="545.125"/><text fill="#000000" font-family="sans-serif" font-size="12" lengthAdjust="spacing" textLength="40" x="15.5" y="559.582">Fermer</text><rect fill="#EEEEEE" height="19.0938" rx="5" ry="5" style="stroke:#000000;stroke-width:2.5;" width="92" x="68.5" y="545.125"/><text fill="#000000" font-family="sans-serif" font-size="12" lengthAdjust="spacing" textLength="70" x="79.5" y="559.582">Sauvegarder</text></g></svg>