<?xml version="1.0" encoding="us-ascii" standalone="no"?><svg xmlns="http://www.w3.org/2000/svg" xmlns:xlink="http://www.w3.org/1999/xlink" contentStyleType="text/css" height="99px" preserveAspectRatio="none" style="width:696px;height:99px;background:#FFFFFF;" version="1.1" viewBox="0 0 696 99" width="696px" zoomAndPan="magnify"><defs/><g><text fill="#000000" font-family="sans-serif" font-size="12" font-weight="bold" lengthAdjust="spacing" textLength="43" x="11" y="18.9492">Mar&#233;es</text><line style="stroke:#000000;stroke-width:1.0;" x1="6" x2="6" y1="6" y2="21.9609"/><line style="stroke:#000000;stroke-width:1.0;" x1="6" x2="57" y1="6" y2="6"/><line style="stroke:#000000;stroke-width:1.0;" x1="57" x2="57" y1="6" y2="21.9609"/><line style="stroke:#000000;stroke-width:1.0;" x1="57" x2="67" y1="21.9609" y2="21.9609"/><rect fill="#EEEEEE" height="12" rx="5" ry="5" style="stroke:#000000;stroke-width:2.5;" width="28" x="9.5" y="27.4609"/><path d="M22.5,29.4609 L22.5,32.4609 L19.5,32.4609 L19.5,34.4609 L22.5,34.4609 L22.5,37.4609 L24.5,37.4609 L24.5,34.4609 L27.5,34.4609 L27.5,32.4609 L24.5,32.4609 L24.5,29.4609 L22.5,29.4609 " fill="#000000" style="stroke:;stroke-width:0.0;stroke-dasharray:;"/><rect fill="#EEEEEE" height="19.9609" rx="5" ry="5" style="stroke:#000000;stroke-width:2.5;" width="12" x="44.5" y="27.4609"/><text fill="#000000" font-family="sans-serif" font-size="12" font-weight="bold" lengthAdjust="spacing" textLength="7" x="47" y="42.4102">Y</text><text fill="#000000" font-family="sans-serif" font-size="12" lengthAdjust="spacing" textLength="7" x="7" y="64.8711">#</text><text fill="#000000" font-family="sans-serif" font-size="12" font-weight="bold" lengthAdjust="spacing" textLength="22" x="42" y="64.8711">Etat</text><text fill="#000000" font-family="sans-serif" font-size="12" font-weight="bold" lengthAdjust="spacing" textLength="68" x="66" y="64.8711">Programme</text><text fill="#000000" font-family="sans-serif" font-size="12" font-weight="bold" lengthAdjust="spacing" textLength="36" x="136" y="64.8711">Navire</text><text fill="#000000" font-family="sans-serif" font-size="12" font-weight="bold" lengthAdjust="spacing" textLength="64" x="259" y="64.8711">Port d&#233;part</text><text fill="#000000" font-family="sans-serif" font-size="12" font-weight="bold" lengthAdjust="spacing" textLength="66" x="340" y="64.8711">Date d&#233;part</text><text fill="#000000" font-family="sans-serif" font-size="12" font-weight="bold" lengthAdjust="spacing" textLength="64" x="438" y="64.8711">Date retour</text><text fill="#000000" font-family="sans-serif" font-size="12" font-weight="bold" lengthAdjust="spacing" textLength="61" x="536" y="64.8711">Saisisseur</text><text fill="#000000" font-family="sans-serif" font-size="12" font-weight="bold" lengthAdjust="spacing" textLength="71" x="602" y="64.8711">Observateur</text><text fill="#000000" font-family="sans-serif" font-size="12" font-weight="bold" lengthAdjust="spacing" textLength="9" x="678" y="64.8711">...</text><text fill="#000000" font-family="sans-serif" font-size="12" lengthAdjust="spacing" textLength="7" x="7" y="82.832">1</text><text fill="#000000" font-family="sans-serif" font-size="12" font-weight="bold" lengthAdjust="spacing" textLength="3" x="51" y="82.832">/</text><text fill="#000000" font-family="sans-serif" font-size="12" lengthAdjust="spacing" textLength="62" x="66" y="82.832">CAM-CGFS</text><text fill="#000000" font-family="sans-serif" font-size="12" lengthAdjust="spacing" textLength="118" x="136" y="82.832">CN851769 - Vessel 2</text><text fill="#000000" font-family="sans-serif" font-size="12" lengthAdjust="spacing" textLength="79" x="256" y="82.832">FRBES - Brest</text><text fill="#000000" font-family="sans-serif" font-size="12" lengthAdjust="spacing" textLength="96" x="337" y="82.832">02/01/2024 06:15</text><text fill="#000000" font-family="sans-serif" font-size="12" lengthAdjust="spacing" textLength="96" x="435" y="82.832">02/01/2024 16:20</text><text fill="#000000" font-family="sans-serif" font-size="12" lengthAdjust="spacing" textLength="35" x="533" y="82.832">Admin</text><text fill="#000000" font-family="sans-serif" font-size="12" lengthAdjust="spacing" textLength="30" x="599" y="82.832">Obs1</text><line style="stroke:#000000;stroke-width:1.0;" x1="6" x2="41" y1="23.9609" y2="23.9609"/><line style="stroke:#000000;stroke-width:1.0;" x1="41" x2="65" y1="23.9609" y2="23.9609"/><line style="stroke:#000000;stroke-width:1.0;" x1="65" x2="135" y1="23.9609" y2="23.9609"/><line style="stroke:#000000;stroke-width:1.0;" x1="135" x2="255" y1="23.9609" y2="23.9609"/><line style="stroke:#000000;stroke-width:1.0;" x1="255" x2="336" y1="23.9609" y2="23.9609"/><line style="stroke:#000000;stroke-width:1.0;" x1="336" x2="434" y1="23.9609" y2="23.9609"/><line style="stroke:#000000;stroke-width:1.0;" x1="434" x2="532" y1="23.9609" y2="23.9609"/><line style="stroke:#000000;stroke-width:1.0;" x1="532" x2="598" y1="23.9609" y2="23.9609"/><line style="stroke:#000000;stroke-width:1.0;" x1="598" x2="674" y1="23.9609" y2="23.9609"/><line style="stroke:#000000;stroke-width:1.0;" x1="674" x2="688" y1="23.9609" y2="23.9609"/><line style="stroke:#000000;stroke-width:1.0;" x1="6" x2="41" y1="86.8438" y2="86.8438"/><line style="stroke:#000000;stroke-width:1.0;" x1="41" x2="65" y1="86.8438" y2="86.8438"/><line style="stroke:#000000;stroke-width:1.0;" x1="65" x2="135" y1="86.8438" y2="86.8438"/><line style="stroke:#000000;stroke-width:1.0;" x1="135" x2="255" y1="86.8438" y2="86.8438"/><line style="stroke:#000000;stroke-width:1.0;" x1="255" x2="336" y1="86.8438" y2="86.8438"/><line style="stroke:#000000;stroke-width:1.0;" x1="336" x2="434" y1="86.8438" y2="86.8438"/><line style="stroke:#000000;stroke-width:1.0;" x1="434" x2="532" y1="86.8438" y2="86.8438"/><line style="stroke:#000000;stroke-width:1.0;" x1="532" x2="598" y1="86.8438" y2="86.8438"/><line style="stroke:#000000;stroke-width:1.0;" x1="598" x2="674" y1="86.8438" y2="86.8438"/><line style="stroke:#000000;stroke-width:1.0;" x1="674" x2="688" y1="86.8438" y2="86.8438"/><line style="stroke:#000000;stroke-width:1.0;" x1="6" x2="41" y1="68.8828" y2="68.8828"/><line style="stroke:#000000;stroke-width:1.0;" x1="41" x2="65" y1="68.8828" y2="68.8828"/><line style="stroke:#000000;stroke-width:1.0;" x1="65" x2="135" y1="68.8828" y2="68.8828"/><line style="stroke:#000000;stroke-width:1.0;" x1="135" x2="255" y1="68.8828" y2="68.8828"/><line style="stroke:#000000;stroke-width:1.0;" x1="255" x2="336" y1="68.8828" y2="68.8828"/><line style="stroke:#000000;stroke-width:1.0;" x1="336" x2="434" y1="68.8828" y2="68.8828"/><line style="stroke:#000000;stroke-width:1.0;" x1="434" x2="532" y1="68.8828" y2="68.8828"/><line style="stroke:#000000;stroke-width:1.0;" x1="532" x2="598" y1="68.8828" y2="68.8828"/><line style="stroke:#000000;stroke-width:1.0;" x1="598" x2="674" y1="68.8828" y2="68.8828"/><line style="stroke:#000000;stroke-width:1.0;" x1="674" x2="688" y1="68.8828" y2="68.8828"/><line style="stroke:#000000;stroke-width:1.0;" x1="6" x2="41" y1="50.9219" y2="50.9219"/><line style="stroke:#000000;stroke-width:1.0;" x1="41" x2="65" y1="50.9219" y2="50.9219"/><line style="stroke:#000000;stroke-width:1.0;" x1="65" x2="135" y1="50.9219" y2="50.9219"/><line style="stroke:#000000;stroke-width:1.0;" x1="135" x2="255" y1="50.9219" y2="50.9219"/><line style="stroke:#000000;stroke-width:1.0;" x1="255" x2="336" y1="50.9219" y2="50.9219"/><line style="stroke:#000000;stroke-width:1.0;" x1="336" x2="434" y1="50.9219" y2="50.9219"/><line style="stroke:#000000;stroke-width:1.0;" x1="434" x2="532" y1="50.9219" y2="50.9219"/><line style="stroke:#000000;stroke-width:1.0;" x1="532" x2="598" y1="50.9219" y2="50.9219"/><line style="stroke:#000000;stroke-width:1.0;" x1="598" x2="674" y1="50.9219" y2="50.9219"/><line style="stroke:#000000;stroke-width:1.0;" x1="674" x2="688" y1="50.9219" y2="50.9219"/><line style="stroke:#000000;stroke-width:1.0;" x1="6" x2="6" y1="23.9609" y2="50.9219"/><line style="stroke:#000000;stroke-width:1.0;" x1="41" x2="41" y1="23.9609" y2="50.9219"/><line style="stroke:#000000;stroke-width:1.0;" x1="65" x2="65" y1="23.9609" y2="50.9219"/><line style="stroke:#000000;stroke-width:1.0;" x1="688" x2="688" y1="23.9609" y2="50.9219"/><line style="stroke:#000000;stroke-width:1.0;" x1="6" x2="6" y1="68.8828" y2="86.8438"/><line style="stroke:#000000;stroke-width:1.0;" x1="41" x2="41" y1="68.8828" y2="86.8438"/><line style="stroke:#000000;stroke-width:1.0;" x1="65" x2="65" y1="68.8828" y2="86.8438"/><line style="stroke:#000000;stroke-width:1.0;" x1="135" x2="135" y1="68.8828" y2="86.8438"/><line style="stroke:#000000;stroke-width:1.0;" x1="255" x2="255" y1="68.8828" y2="86.8438"/><line style="stroke:#000000;stroke-width:1.0;" x1="336" x2="336" y1="68.8828" y2="86.8438"/><line style="stroke:#000000;stroke-width:1.0;" x1="434" x2="434" y1="68.8828" y2="86.8438"/><line style="stroke:#000000;stroke-width:1.0;" x1="532" x2="532" y1="68.8828" y2="86.8438"/><line style="stroke:#000000;stroke-width:1.0;" x1="598" x2="598" y1="68.8828" y2="86.8438"/><line style="stroke:#000000;stroke-width:1.0;" x1="674" x2="674" y1="68.8828" y2="86.8438"/><line style="stroke:#000000;stroke-width:1.0;" x1="688" x2="688" y1="68.8828" y2="86.8438"/><line style="stroke:#000000;stroke-width:1.0;" x1="6" x2="6" y1="50.9219" y2="68.8828"/><line style="stroke:#000000;stroke-width:1.0;" x1="41" x2="41" y1="50.9219" y2="68.8828"/><line style="stroke:#000000;stroke-width:1.0;" x1="65" x2="65" y1="50.9219" y2="68.8828"/><line style="stroke:#000000;stroke-width:1.0;" x1="135" x2="135" y1="50.9219" y2="68.8828"/><line style="stroke:#000000;stroke-width:1.0;" x1="255" x2="255" y1="50.9219" y2="68.8828"/><line style="stroke:#000000;stroke-width:1.0;" x1="336" x2="336" y1="50.9219" y2="68.8828"/><line style="stroke:#000000;stroke-width:1.0;" x1="434" x2="434" y1="50.9219" y2="68.8828"/><line style="stroke:#000000;stroke-width:1.0;" x1="532" x2="532" y1="50.9219" y2="68.8828"/><line style="stroke:#000000;stroke-width:1.0;" x1="598" x2="598" y1="50.9219" y2="68.8828"/><line style="stroke:#000000;stroke-width:1.0;" x1="674" x2="674" y1="50.9219" y2="68.8828"/><line style="stroke:#000000;stroke-width:1.0;" x1="688" x2="688" y1="50.9219" y2="68.8828"/><line style="stroke:#AAAAAA;stroke-width:1.0;" x1="6" x2="689" y1="92.3438" y2="92.3438"/><!--SRC=[RP3HIiCm58QlpLCS44GlsZMPgrf4TDqKvgh3waJ4YymUHw1DIv8EPEw1zXo-cAUpKmHpqvpl_FtpyvzR9uspCdTioHZ0iWEdipD8fFbSemM05MDiPxbBg-Oym-bUbTVsx0K-u9cKJo_jPfS0pKCdtVTjOigvaKM1c_K6tSY5ChYTO58Q1zddkg84BHf8X_yXWwwiJKjIgQoo5XlGpBSpYsP1iX-5x_jjBDuIW0xTuel4YwykKzWUGZV7FNuKde07KoJJ70JHoxl-C2NKDsYR887e1BmZ0d48GHZntb_4mqW4X2woGcdwKY1wTvDWrPJgUOojs3dgR5Cqc-HIkuTa30iqLfKQk4y-NP_p_KVC8CKAU1T448amwdOX7gRtq0WEsFxLP0oMgdYbcfHrHirgHmu7R2GN4kvgxLI14TnMg4U3wos0eQRcIrsWTcmqJNu5uQ7NLuwUD9G5fWaRu9kiSqT_l9QPqlC8uegBdc1ZgUUrd9Fvcs5nISRcFQAYlW00]--></g></svg>