<?xml version="1.0" encoding="UTF-8" standalone="no"?><svg xmlns="http://www.w3.org/2000/svg" xmlns:xlink="http://www.w3.org/1999/xlink" contentStyleType="text/css" height="121px" preserveAspectRatio="none" style="width:696px;height:121px;background:#FFFFFF;" version="1.1" viewBox="0 0 696 121" width="696px" zoomAndPan="magnify"><defs/><g><text fill="#000000" font-family="sans-serif" font-size="12" font-weight="bold" lengthAdjust="spacing" textLength="43" x="11" y="18.457">Marées</text><line style="stroke:#000000;stroke-width:1.0;" x1="6" x2="6" y1="6" y2="21.0938"/><line style="stroke:#000000;stroke-width:1.0;" x1="6" x2="57" y1="6" y2="6"/><line style="stroke:#000000;stroke-width:1.0;" x1="57" x2="57" y1="6" y2="21.0938"/><line style="stroke:#000000;stroke-width:1.0;" x1="57" x2="67" y1="21.0938" y2="21.0938"/><rect fill="#EEEEEE" height="12" rx="5" ry="5" style="stroke:#000000;stroke-width:2.5;" width="28" x="9.5" y="26.5938"/><path d="M22.5,28.5938 L22.5,31.5938 L19.5,31.5938 L19.5,33.5938 L22.5,33.5938 L22.5,36.5938 L24.5,36.5938 L24.5,33.5938 L27.5,33.5938 L27.5,31.5938 L24.5,31.5938 L24.5,28.5938 L22.5,28.5938 " fill="#000000" style="stroke:;stroke-width:0.0;stroke-dasharray:;"/><rect fill="#EEEEEE" height="19.0938" rx="5" ry="5" style="stroke:#000000;stroke-width:2.5;" width="12" x="44.5" y="26.5938"/><text fill="#000000" font-family="sans-serif" font-size="12" font-weight="bold" lengthAdjust="spacing" textLength="7" x="47" y="41.0508">Y</text><text fill="#000000" font-family="sans-serif" font-size="12" lengthAdjust="spacing" textLength="7" x="7" y="62.6445">#</text><text fill="#000000" font-family="sans-serif" font-size="12" font-weight="bold" lengthAdjust="spacing" textLength="22" x="42" y="62.6445">Etat</text><text fill="#000000" font-family="sans-serif" font-size="12" font-weight="bold" lengthAdjust="spacing" textLength="68" x="66" y="62.6445">Programme</text><text fill="#000000" font-family="sans-serif" font-size="12" font-weight="bold" lengthAdjust="spacing" textLength="36" x="136" y="62.6445">Navire</text><text fill="#000000" font-family="sans-serif" font-size="12" font-weight="bold" lengthAdjust="spacing" textLength="64" x="259" y="62.6445">Port départ</text><text fill="#000000" font-family="sans-serif" font-size="12" font-weight="bold" lengthAdjust="spacing" textLength="66" x="340" y="62.6445">Date départ</text><text fill="#000000" font-family="sans-serif" font-size="12" font-weight="bold" lengthAdjust="spacing" textLength="64" x="438" y="62.6445">Date retour</text><text fill="#000000" font-family="sans-serif" font-size="12" font-weight="bold" lengthAdjust="spacing" textLength="61" x="536" y="62.6445">Saisisseur</text><text fill="#000000" font-family="sans-serif" font-size="12" font-weight="bold" lengthAdjust="spacing" textLength="71" x="602" y="62.6445">Observateur</text><text fill="#000000" font-family="sans-serif" font-size="12" font-weight="bold" lengthAdjust="spacing" textLength="9" x="678" y="62.6445">...</text><text fill="#000000" font-family="sans-serif" font-size="12" lengthAdjust="spacing" textLength="7" x="7" y="79.7383">1</text><text fill="#000000" font-family="sans-serif" font-size="12" font-weight="bold" lengthAdjust="spacing" textLength="3" x="51" y="79.7383">/</text><text fill="#000000" font-family="sans-serif" font-size="12" lengthAdjust="spacing" textLength="62" x="66" y="79.7383">CAM-CGFS</text><text fill="#000000" font-family="sans-serif" font-size="12" lengthAdjust="spacing" textLength="118" x="136" y="79.7383">CN851769 - Vessel 2</text><text fill="#000000" font-family="sans-serif" font-size="12" lengthAdjust="spacing" textLength="79" x="256" y="79.7383">FRBES - Brest</text><text fill="#000000" font-family="sans-serif" font-size="12" lengthAdjust="spacing" textLength="96" x="337" y="79.7383">02/01/2024 06:15</text><text fill="#000000" font-family="sans-serif" font-size="12" lengthAdjust="spacing" textLength="96" x="435" y="79.7383">02/01/2024 16:20</text><text fill="#000000" font-family="sans-serif" font-size="12" lengthAdjust="spacing" textLength="35" x="533" y="79.7383">Admin</text><text fill="#000000" font-family="sans-serif" font-size="12" lengthAdjust="spacing" textLength="30" x="599" y="79.7383">Obs1</text><line style="stroke:#000000;stroke-width:1.0;" x1="6" x2="41" y1="23.0938" y2="23.0938"/><line style="stroke:#000000;stroke-width:1.0;" x1="41" x2="65" y1="23.0938" y2="23.0938"/><line style="stroke:#000000;stroke-width:1.0;" x1="65" x2="135" y1="23.0938" y2="23.0938"/><line style="stroke:#000000;stroke-width:1.0;" x1="135" x2="255" y1="23.0938" y2="23.0938"/><line style="stroke:#000000;stroke-width:1.0;" x1="255" x2="336" y1="23.0938" y2="23.0938"/><line style="stroke:#000000;stroke-width:1.0;" x1="336" x2="434" y1="23.0938" y2="23.0938"/><line style="stroke:#000000;stroke-width:1.0;" x1="434" x2="532" y1="23.0938" y2="23.0938"/><line style="stroke:#000000;stroke-width:1.0;" x1="532" x2="598" y1="23.0938" y2="23.0938"/><line style="stroke:#000000;stroke-width:1.0;" x1="598" x2="674" y1="23.0938" y2="23.0938"/><line style="stroke:#000000;stroke-width:1.0;" x1="674" x2="688" y1="23.0938" y2="23.0938"/><line style="stroke:#000000;stroke-width:1.0;" x1="6" x2="41" y1="83.375" y2="83.375"/><line style="stroke:#000000;stroke-width:1.0;" x1="41" x2="65" y1="83.375" y2="83.375"/><line style="stroke:#000000;stroke-width:1.0;" x1="65" x2="135" y1="83.375" y2="83.375"/><line style="stroke:#000000;stroke-width:1.0;" x1="135" x2="255" y1="83.375" y2="83.375"/><line style="stroke:#000000;stroke-width:1.0;" x1="255" x2="336" y1="83.375" y2="83.375"/><line style="stroke:#000000;stroke-width:1.0;" x1="336" x2="434" y1="83.375" y2="83.375"/><line style="stroke:#000000;stroke-width:1.0;" x1="434" x2="532" y1="83.375" y2="83.375"/><line style="stroke:#000000;stroke-width:1.0;" x1="532" x2="598" y1="83.375" y2="83.375"/><line style="stroke:#000000;stroke-width:1.0;" x1="598" x2="674" y1="83.375" y2="83.375"/><line style="stroke:#000000;stroke-width:1.0;" x1="674" x2="688" y1="83.375" y2="83.375"/><line style="stroke:#000000;stroke-width:1.0;" x1="6" x2="41" y1="66.2813" y2="66.2813"/><line style="stroke:#000000;stroke-width:1.0;" x1="41" x2="65" y1="66.2813" y2="66.2813"/><line style="stroke:#000000;stroke-width:1.0;" x1="65" x2="135" y1="66.2813" y2="66.2813"/><line style="stroke:#000000;stroke-width:1.0;" x1="135" x2="255" y1="66.2813" y2="66.2813"/><line style="stroke:#000000;stroke-width:1.0;" x1="255" x2="336" y1="66.2813" y2="66.2813"/><line style="stroke:#000000;stroke-width:1.0;" x1="336" x2="434" y1="66.2813" y2="66.2813"/><line style="stroke:#000000;stroke-width:1.0;" x1="434" x2="532" y1="66.2813" y2="66.2813"/><line style="stroke:#000000;stroke-width:1.0;" x1="532" x2="598" y1="66.2813" y2="66.2813"/><line style="stroke:#000000;stroke-width:1.0;" x1="598" x2="674" y1="66.2813" y2="66.2813"/><line style="stroke:#000000;stroke-width:1.0;" x1="674" x2="688" y1="66.2813" y2="66.2813"/><line style="stroke:#000000;stroke-width:1.0;" x1="6" x2="41" y1="49.1875" y2="49.1875"/><line style="stroke:#000000;stroke-width:1.0;" x1="41" x2="65" y1="49.1875" y2="49.1875"/><line style="stroke:#000000;stroke-width:1.0;" x1="65" x2="135" y1="49.1875" y2="49.1875"/><line style="stroke:#000000;stroke-width:1.0;" x1="135" x2="255" y1="49.1875" y2="49.1875"/><line style="stroke:#000000;stroke-width:1.0;" x1="255" x2="336" y1="49.1875" y2="49.1875"/><line style="stroke:#000000;stroke-width:1.0;" x1="336" x2="434" y1="49.1875" y2="49.1875"/><line style="stroke:#000000;stroke-width:1.0;" x1="434" x2="532" y1="49.1875" y2="49.1875"/><line style="stroke:#000000;stroke-width:1.0;" x1="532" x2="598" y1="49.1875" y2="49.1875"/><line style="stroke:#000000;stroke-width:1.0;" x1="598" x2="674" y1="49.1875" y2="49.1875"/><line style="stroke:#000000;stroke-width:1.0;" x1="674" x2="688" y1="49.1875" y2="49.1875"/><line style="stroke:#000000;stroke-width:1.0;" x1="6" x2="6" y1="23.0938" y2="49.1875"/><line style="stroke:#000000;stroke-width:1.0;" x1="41" x2="41" y1="23.0938" y2="49.1875"/><line style="stroke:#000000;stroke-width:1.0;" x1="65" x2="65" y1="23.0938" y2="49.1875"/><line style="stroke:#000000;stroke-width:1.0;" x1="688" x2="688" y1="23.0938" y2="49.1875"/><line style="stroke:#000000;stroke-width:1.0;" x1="6" x2="6" y1="66.2813" y2="83.375"/><line style="stroke:#000000;stroke-width:1.0;" x1="41" x2="41" y1="66.2813" y2="83.375"/><line style="stroke:#000000;stroke-width:1.0;" x1="65" x2="65" y1="66.2813" y2="83.375"/><line style="stroke:#000000;stroke-width:1.0;" x1="135" x2="135" y1="66.2813" y2="83.375"/><line style="stroke:#000000;stroke-width:1.0;" x1="255" x2="255" y1="66.2813" y2="83.375"/><line style="stroke:#000000;stroke-width:1.0;" x1="336" x2="336" y1="66.2813" y2="83.375"/><line style="stroke:#000000;stroke-width:1.0;" x1="434" x2="434" y1="66.2813" y2="83.375"/><line style="stroke:#000000;stroke-width:1.0;" x1="532" x2="532" y1="66.2813" y2="83.375"/><line style="stroke:#000000;stroke-width:1.0;" x1="598" x2="598" y1="66.2813" y2="83.375"/><line style="stroke:#000000;stroke-width:1.0;" x1="674" x2="674" y1="66.2813" y2="83.375"/><line style="stroke:#000000;stroke-width:1.0;" x1="688" x2="688" y1="66.2813" y2="83.375"/><line style="stroke:#000000;stroke-width:1.0;" x1="6" x2="6" y1="49.1875" y2="66.2813"/><line style="stroke:#000000;stroke-width:1.0;" x1="41" x2="41" y1="49.1875" y2="66.2813"/><line style="stroke:#000000;stroke-width:1.0;" x1="65" x2="65" y1="49.1875" y2="66.2813"/><line style="stroke:#000000;stroke-width:1.0;" x1="135" x2="135" y1="49.1875" y2="66.2813"/><line style="stroke:#000000;stroke-width:1.0;" x1="255" x2="255" y1="49.1875" y2="66.2813"/><line style="stroke:#000000;stroke-width:1.0;" x1="336" x2="336" y1="49.1875" y2="66.2813"/><line style="stroke:#000000;stroke-width:1.0;" x1="434" x2="434" y1="49.1875" y2="66.2813"/><line style="stroke:#000000;stroke-width:1.0;" x1="532" x2="532" y1="49.1875" y2="66.2813"/><line style="stroke:#000000;stroke-width:1.0;" x1="598" x2="598" y1="49.1875" y2="66.2813"/><line style="stroke:#000000;stroke-width:1.0;" x1="674" x2="674" y1="49.1875" y2="66.2813"/><line style="stroke:#000000;stroke-width:1.0;" x1="688" x2="688" y1="49.1875" y2="66.2813"/><line style="stroke:#AAAAAA;stroke-width:1.0;" x1="6" x2="689" y1="88.875" y2="88.875"/><rect fill="#EEEEEE" height="19.0938" rx="5" ry="5" style="stroke:#000000;stroke-width:2.5;" width="52" x="9.5" y="96.875"/><text fill="#000000" font-family="sans-serif" font-size="12" lengthAdjust="spacing" textLength="40" x="15.5" y="111.332">Fermer</text><rect fill="#EEEEEE" height="19.0938" rx="5" ry="5" style="stroke:#000000;stroke-width:2.5;" width="92" x="68.5" y="96.875"/><text fill="#000000" font-family="sans-serif" font-size="12" lengthAdjust="spacing" textLength="70" x="79.5" y="111.332">Sauvegarder</text></g></svg>