<?xml version="1.0" encoding="us-ascii" standalone="no"?><svg xmlns="http://www.w3.org/2000/svg" xmlns:xlink="http://www.w3.org/1999/xlink" contentStyleType="text/css" height="118px" preserveAspectRatio="none" style="width:680px;height:118px;background:#FFFFFF;" version="1.1" viewBox="0 0 680 118" width="680px" zoomAndPan="magnify"><defs/><g><text fill="#000000" font-family="sans-serif" font-size="12" font-weight="bold" lengthAdjust="spacing" textLength="43" x="11" y="18.9492">Mar&#233;es</text><line style="stroke:#000000;stroke-width:1.0;" x1="6" x2="6" y1="6" y2="21.9609"/><line style="stroke:#000000;stroke-width:1.0;" x1="6" x2="57" y1="6" y2="6"/><line style="stroke:#000000;stroke-width:1.0;" x1="57" x2="57" y1="6" y2="21.9609"/><line style="stroke:#000000;stroke-width:1.0;" x1="57" x2="67" y1="21.9609" y2="21.9609"/><rect fill="#EEEEEE" height="12" rx="5" ry="5" style="stroke:#000000;stroke-width:2.5;" width="36" x="9.5" y="27.4609"/><path d="M26.5,29.4609 L26.5,32.4609 L23.5,32.4609 L23.5,34.4609 L26.5,34.4609 L26.5,37.4609 L28.5,37.4609 L28.5,34.4609 L31.5,34.4609 L31.5,32.4609 L28.5,32.4609 L28.5,29.4609 L26.5,29.4609 " fill="#000000" style="stroke:;stroke-width:0.0;stroke-dasharray:;"/><text fill="#000000" font-family="sans-serif" font-size="12" lengthAdjust="spacing" textLength="7" x="7" y="56.9102">#</text><text fill="#000000" font-family="sans-serif" font-size="12" font-weight="bold" lengthAdjust="spacing" textLength="68" x="50" y="56.9102">Programme</text><text fill="#000000" font-family="sans-serif" font-size="12" font-weight="bold" lengthAdjust="spacing" textLength="36" x="120" y="56.9102">Navire</text><text fill="#000000" font-family="sans-serif" font-size="12" font-weight="bold" lengthAdjust="spacing" textLength="64" x="243" y="56.9102">Port d&#233;part</text><text fill="#000000" font-family="sans-serif" font-size="12" font-weight="bold" lengthAdjust="spacing" textLength="66" x="324" y="56.9102">Date d&#233;part</text><text fill="#000000" font-family="sans-serif" font-size="12" font-weight="bold" lengthAdjust="spacing" textLength="64" x="422" y="56.9102">Date retour</text><text fill="#000000" font-family="sans-serif" font-size="12" font-weight="bold" lengthAdjust="spacing" textLength="61" x="520" y="56.9102">Saisisseur</text><text fill="#000000" font-family="sans-serif" font-size="12" font-weight="bold" lengthAdjust="spacing" textLength="71" x="586" y="56.9102">Observateur</text><text fill="#000000" font-family="sans-serif" font-size="12" font-weight="bold" lengthAdjust="spacing" textLength="9" x="662" y="56.9102">...</text><text fill="#000000" font-family="sans-serif" font-size="12" lengthAdjust="spacing" textLength="7" x="7" y="74.8711">1</text><text fill="#000000" font-family="sans-serif" font-size="12" lengthAdjust="spacing" textLength="62" x="50" y="74.8711">CAM-CGFS</text><text fill="#000000" font-family="sans-serif" font-size="12" lengthAdjust="spacing" textLength="118" x="120" y="74.8711">CN851769 - Vessel 2</text><text fill="#000000" font-family="sans-serif" font-size="12" lengthAdjust="spacing" textLength="79" x="240" y="74.8711">FRBES - Brest</text><text fill="#000000" font-family="sans-serif" font-size="12" lengthAdjust="spacing" textLength="96" x="321" y="74.8711">02/01/2024 06:15</text><text fill="#000000" font-family="sans-serif" font-size="12" lengthAdjust="spacing" textLength="96" x="419" y="74.8711">02/01/2024 16:20</text><text fill="#000000" font-family="sans-serif" font-size="12" lengthAdjust="spacing" textLength="35" x="517" y="74.8711">Admin</text><text fill="#000000" font-family="sans-serif" font-size="12" lengthAdjust="spacing" textLength="30" x="583" y="74.8711">Obs1</text><line style="stroke:#000000;stroke-width:1.0;" x1="6" x2="49" y1="23.9609" y2="23.9609"/><line style="stroke:#000000;stroke-width:1.0;" x1="49" x2="119" y1="23.9609" y2="23.9609"/><line style="stroke:#000000;stroke-width:1.0;" x1="119" x2="239" y1="23.9609" y2="23.9609"/><line style="stroke:#000000;stroke-width:1.0;" x1="239" x2="320" y1="23.9609" y2="23.9609"/><line style="stroke:#000000;stroke-width:1.0;" x1="320" x2="418" y1="23.9609" y2="23.9609"/><line style="stroke:#000000;stroke-width:1.0;" x1="418" x2="516" y1="23.9609" y2="23.9609"/><line style="stroke:#000000;stroke-width:1.0;" x1="516" x2="582" y1="23.9609" y2="23.9609"/><line style="stroke:#000000;stroke-width:1.0;" x1="582" x2="658" y1="23.9609" y2="23.9609"/><line style="stroke:#000000;stroke-width:1.0;" x1="658" x2="672" y1="23.9609" y2="23.9609"/><line style="stroke:#000000;stroke-width:1.0;" x1="6" x2="49" y1="78.8828" y2="78.8828"/><line style="stroke:#000000;stroke-width:1.0;" x1="49" x2="119" y1="78.8828" y2="78.8828"/><line style="stroke:#000000;stroke-width:1.0;" x1="119" x2="239" y1="78.8828" y2="78.8828"/><line style="stroke:#000000;stroke-width:1.0;" x1="239" x2="320" y1="78.8828" y2="78.8828"/><line style="stroke:#000000;stroke-width:1.0;" x1="320" x2="418" y1="78.8828" y2="78.8828"/><line style="stroke:#000000;stroke-width:1.0;" x1="418" x2="516" y1="78.8828" y2="78.8828"/><line style="stroke:#000000;stroke-width:1.0;" x1="516" x2="582" y1="78.8828" y2="78.8828"/><line style="stroke:#000000;stroke-width:1.0;" x1="582" x2="658" y1="78.8828" y2="78.8828"/><line style="stroke:#000000;stroke-width:1.0;" x1="658" x2="672" y1="78.8828" y2="78.8828"/><line style="stroke:#000000;stroke-width:1.0;" x1="6" x2="49" y1="60.9219" y2="60.9219"/><line style="stroke:#000000;stroke-width:1.0;" x1="49" x2="119" y1="60.9219" y2="60.9219"/><line style="stroke:#000000;stroke-width:1.0;" x1="119" x2="239" y1="60.9219" y2="60.9219"/><line style="stroke:#000000;stroke-width:1.0;" x1="239" x2="320" y1="60.9219" y2="60.9219"/><line style="stroke:#000000;stroke-width:1.0;" x1="320" x2="418" y1="60.9219" y2="60.9219"/><line style="stroke:#000000;stroke-width:1.0;" x1="418" x2="516" y1="60.9219" y2="60.9219"/><line style="stroke:#000000;stroke-width:1.0;" x1="516" x2="582" y1="60.9219" y2="60.9219"/><line style="stroke:#000000;stroke-width:1.0;" x1="582" x2="658" y1="60.9219" y2="60.9219"/><line style="stroke:#000000;stroke-width:1.0;" x1="658" x2="672" y1="60.9219" y2="60.9219"/><line style="stroke:#000000;stroke-width:1.0;" x1="6" x2="49" y1="42.9609" y2="42.9609"/><line style="stroke:#000000;stroke-width:1.0;" x1="49" x2="119" y1="42.9609" y2="42.9609"/><line style="stroke:#000000;stroke-width:1.0;" x1="119" x2="239" y1="42.9609" y2="42.9609"/><line style="stroke:#000000;stroke-width:1.0;" x1="239" x2="320" y1="42.9609" y2="42.9609"/><line style="stroke:#000000;stroke-width:1.0;" x1="320" x2="418" y1="42.9609" y2="42.9609"/><line style="stroke:#000000;stroke-width:1.0;" x1="418" x2="516" y1="42.9609" y2="42.9609"/><line style="stroke:#000000;stroke-width:1.0;" x1="516" x2="582" y1="42.9609" y2="42.9609"/><line style="stroke:#000000;stroke-width:1.0;" x1="582" x2="658" y1="42.9609" y2="42.9609"/><line style="stroke:#000000;stroke-width:1.0;" x1="658" x2="672" y1="42.9609" y2="42.9609"/><line style="stroke:#000000;stroke-width:1.0;" x1="6" x2="6" y1="23.9609" y2="42.9609"/><line style="stroke:#000000;stroke-width:1.0;" x1="119" x2="119" y1="60.9219" y2="78.8828"/><line style="stroke:#000000;stroke-width:1.0;" x1="49" x2="49" y1="23.9609" y2="42.9609"/><line style="stroke:#000000;stroke-width:1.0;" x1="239" x2="239" y1="60.9219" y2="78.8828"/><line style="stroke:#000000;stroke-width:1.0;" x1="320" x2="320" y1="60.9219" y2="78.8828"/><line style="stroke:#000000;stroke-width:1.0;" x1="418" x2="418" y1="60.9219" y2="78.8828"/><line style="stroke:#000000;stroke-width:1.0;" x1="516" x2="516" y1="60.9219" y2="78.8828"/><line style="stroke:#000000;stroke-width:1.0;" x1="582" x2="582" y1="60.9219" y2="78.8828"/><line style="stroke:#000000;stroke-width:1.0;" x1="658" x2="658" y1="60.9219" y2="78.8828"/><line style="stroke:#000000;stroke-width:1.0;" x1="672" x2="672" y1="60.9219" y2="78.8828"/><line style="stroke:#000000;stroke-width:1.0;" x1="672" x2="672" y1="23.9609" y2="42.9609"/><line style="stroke:#000000;stroke-width:1.0;" x1="6" x2="6" y1="42.9609" y2="60.9219"/><line style="stroke:#000000;stroke-width:1.0;" x1="49" x2="49" y1="42.9609" y2="60.9219"/><line style="stroke:#000000;stroke-width:1.0;" x1="119" x2="119" y1="42.9609" y2="60.9219"/><line style="stroke:#000000;stroke-width:1.0;" x1="239" x2="239" y1="42.9609" y2="60.9219"/><line style="stroke:#000000;stroke-width:1.0;" x1="320" x2="320" y1="42.9609" y2="60.9219"/><line style="stroke:#000000;stroke-width:1.0;" x1="418" x2="418" y1="42.9609" y2="60.9219"/><line style="stroke:#000000;stroke-width:1.0;" x1="516" x2="516" y1="42.9609" y2="60.9219"/><line style="stroke:#000000;stroke-width:1.0;" x1="582" x2="582" y1="42.9609" y2="60.9219"/><line style="stroke:#000000;stroke-width:1.0;" x1="658" x2="658" y1="42.9609" y2="60.9219"/><line style="stroke:#000000;stroke-width:1.0;" x1="672" x2="672" y1="42.9609" y2="60.9219"/><line style="stroke:#000000;stroke-width:1.0;" x1="6" x2="6" y1="60.9219" y2="78.8828"/><line style="stroke:#000000;stroke-width:1.0;" x1="49" x2="49" y1="60.9219" y2="78.8828"/><line style="stroke:#AAAAAA;stroke-width:1.0;" x1="6" x2="673" y1="84.3828" y2="84.3828"/><rect fill="#EEEEEE" height="19.9609" rx="5" ry="5" style="stroke:#000000;stroke-width:2.5;" width="52" x="9.5" y="92.3828"/><text fill="#000000" font-family="sans-serif" font-size="12" lengthAdjust="spacing" textLength="40" x="15.5" y="107.332">Fermer</text><rect fill="#EEEEEE" height="19.9609" rx="5" ry="5" style="stroke:#000000;stroke-width:2.5;" width="92" x="68.5" y="92.3828"/><text fill="#000000" font-family="sans-serif" font-size="12" lengthAdjust="spacing" textLength="70" x="79.5" y="107.332">Sauvegarder</text><!--SRC=[RP7HQjim58QlfwSuK1ZjXHrBQRpDbDB6IGfPt8Pwoov2BvJwr0XisKYoOMHve3v7Nsn79bafJ3VYVFhF-G-_RgoJnbbPERPd360_WglTDMJIlBsY1O03O-pJ_eoU_Dd2rUUswkmrF1t96Vpn7MlJb4RMDGvmGFUoLmPF5QmRuw1uUst9xuXcqk7_a47NTEP8SgciiXOzyFN3pgBfIVPF4ORXSHbE9BtDWlHkaSFf4Bh_Ek5VucyGm0PfL0M2wE9nEiy9JGrQRn-9KSH78XAN4CK9dtn4F4v4HEYsg9McczOWjy7tu8CB0f_UK6yNQ6eqJwJQvhBhiPIce9fvwO7Te2w6mDcwajhzp5RGex6gqS13yXg7d9__mW9oR86FGKI9Y9Fn6D9v_WEyu8ATtwrNO2caPmfGMMVKhdCquO8jPI_XiTDErPZ0GujwEVj-0Z3Nz2UDhb4xjjnaxuBuCfWgHvQ6Te5DncRu8hlAKSTpKoXT9f2sN4m4MqbTThAauI-6fGqDDhyJ2lCl]--></g></svg>