<?xml version="1.0" encoding="UTF-8" standalone="no"?><svg xmlns="http://www.w3.org/2000/svg" xmlns:xlink="http://www.w3.org/1999/xlink" contentStyleType="text/css" height="92px" preserveAspectRatio="none" style="width:717px;height:92px;background:#FFFFFF;" version="1.1" viewBox="0 0 717 92" width="717px" zoomAndPan="magnify"><defs/><g><text fill="#000000" font-family="sans-serif" font-size="12" font-weight="bold" lengthAdjust="spacing" textLength="43" x="11" y="18.8281">Marées</text><line style="stroke:#000000;stroke-width:1.0;" x1="6" x2="6" y1="6" y2="22.3441"/><line style="stroke:#000000;stroke-width:1.0;" x1="6" x2="57" y1="6" y2="6"/><line style="stroke:#000000;stroke-width:1.0;" x1="57" x2="57" y1="6" y2="22.3441"/><line style="stroke:#000000;stroke-width:1.0;" x1="57" x2="67" y1="22.3441" y2="22.3441"/><rect fill="#EEEEEE" height="12" rx="5" ry="5" style="stroke:#000000;stroke-width:2.5;" width="28" x="9.5" y="27.8441"/><path d="M22.5,29.8441 L22.5,32.8441 L19.5,32.8441 L19.5,34.8441 L22.5,34.8441 L22.5,37.8441 L24.5,37.8441 L24.5,34.8441 L27.5,34.8441 L27.5,32.8441 L24.5,32.8441 L24.5,29.8441 L22.5,29.8441 " fill="#000000" style="stroke:;stroke-width:0.0;stroke-dasharray:;"/><rect fill="#EEEEEE" height="12" rx="5" ry="5" style="stroke:#000000;stroke-width:2.5;" width="20" x="44.5" y="27.8441"/><path d="M50.5,29.8441 L54.5,33.8441 L58.5,29.8441 L50.5,29.8441 " fill="#000000" style="stroke:;stroke-width:0.0;stroke-dasharray:;"/><text fill="#000000" font-family="sans-serif" font-size="12" lengthAdjust="spacing" textLength="8" x="7" y="57.1722">#</text><text fill="#000000" font-family="sans-serif" font-size="12" font-weight="bold" lengthAdjust="spacing" textLength="24" x="42" y="57.1722">Etat</text><text fill="#000000" font-family="sans-serif" font-size="12" font-weight="bold" lengthAdjust="spacing" textLength="71" x="69" y="57.1722">Programme</text><text fill="#000000" font-family="sans-serif" font-size="12" font-weight="bold" lengthAdjust="spacing" textLength="40" x="142" y="57.1722">Navire</text><text fill="#000000" font-family="sans-serif" font-size="12" font-weight="bold" lengthAdjust="spacing" textLength="87" x="262" y="57.1722">Lieu de départ</text><text fill="#000000" font-family="sans-serif" font-size="12" font-weight="bold" lengthAdjust="spacing" textLength="71" x="354" y="57.1722">Date départ</text><text fill="#000000" font-family="sans-serif" font-size="12" font-weight="bold" lengthAdjust="spacing" textLength="68" x="454" y="57.1722">Date retour</text><text fill="#000000" font-family="sans-serif" font-size="12" font-weight="bold" lengthAdjust="spacing" textLength="60" x="554" y="57.1722">Saisisseur</text><text fill="#000000" font-family="sans-serif" font-size="12" font-weight="bold" lengthAdjust="spacing" textLength="75" x="619" y="57.1722">Observateur</text><text fill="#000000" font-family="sans-serif" font-size="12" font-weight="bold" lengthAdjust="spacing" textLength="9" x="699" y="57.1722">...</text><text fill="#000000" font-family="sans-serif" font-size="12" lengthAdjust="spacing" textLength="7" x="7" y="75.5163">1</text><text fill="#000000" font-family="sans-serif" font-size="12" font-weight="bold" lengthAdjust="spacing" textLength="6" x="42" y="75.5163">  </text><path d="M55,68.0323 L54,69.0323 L56,71.0323 L57,70.0323 L55,68.0323 M53,70.0323 L49,74.0323 L49,76.0323 L51,76.0323 L55,72.0323 L53,70.0323 " fill="#000000" style="stroke:;stroke-width:0.0;stroke-dasharray:;"/><text fill="#000000" font-family="sans-serif" font-size="12" lengthAdjust="spacing" textLength="61" x="69" y="75.5163">CAM-CGFS</text><text fill="#000000" font-family="sans-serif" font-size="12" lengthAdjust="spacing" textLength="115" x="142" y="75.5163">CN851769 - Vessel 2</text><text fill="#000000" font-family="sans-serif" font-size="12" lengthAdjust="spacing" textLength="75" x="259" y="75.5163">FRBES - Brest</text><text fill="#000000" font-family="sans-serif" font-size="12" lengthAdjust="spacing" textLength="98" x="351" y="75.5163">02/01/2024 06:15</text><text fill="#000000" font-family="sans-serif" font-size="12" lengthAdjust="spacing" textLength="98" x="451" y="75.5163">02/01/2024 16:20</text><text fill="#000000" font-family="sans-serif" font-size="12" lengthAdjust="spacing" textLength="36" x="551" y="75.5163">Admin</text><text fill="#000000" font-family="sans-serif" font-size="12" lengthAdjust="spacing" textLength="29" x="616" y="75.5163">Obs1</text><line style="stroke:#000000;stroke-width:1.0;" x1="6" x2="41" y1="24.3441" y2="24.3441"/><line style="stroke:#000000;stroke-width:1.0;" x1="41" x2="68" y1="24.3441" y2="24.3441"/><line style="stroke:#000000;stroke-width:1.0;" x1="68" x2="141" y1="24.3441" y2="24.3441"/><line style="stroke:#000000;stroke-width:1.0;" x1="141" x2="258" y1="24.3441" y2="24.3441"/><line style="stroke:#000000;stroke-width:1.0;" x1="258" x2="350" y1="24.3441" y2="24.3441"/><line style="stroke:#000000;stroke-width:1.0;" x1="350" x2="450" y1="24.3441" y2="24.3441"/><line style="stroke:#000000;stroke-width:1.0;" x1="450" x2="550" y1="24.3441" y2="24.3441"/><line style="stroke:#000000;stroke-width:1.0;" x1="550" x2="615" y1="24.3441" y2="24.3441"/><line style="stroke:#000000;stroke-width:1.0;" x1="615" x2="695" y1="24.3441" y2="24.3441"/><line style="stroke:#000000;stroke-width:1.0;" x1="695" x2="709" y1="24.3441" y2="24.3441"/><line style="stroke:#000000;stroke-width:1.0;" x1="6" x2="41" y1="80.0323" y2="80.0323"/><line style="stroke:#000000;stroke-width:1.0;" x1="41" x2="68" y1="80.0323" y2="80.0323"/><line style="stroke:#000000;stroke-width:1.0;" x1="68" x2="141" y1="80.0323" y2="80.0323"/><line style="stroke:#000000;stroke-width:1.0;" x1="141" x2="258" y1="80.0323" y2="80.0323"/><line style="stroke:#000000;stroke-width:1.0;" x1="258" x2="350" y1="80.0323" y2="80.0323"/><line style="stroke:#000000;stroke-width:1.0;" x1="350" x2="450" y1="80.0323" y2="80.0323"/><line style="stroke:#000000;stroke-width:1.0;" x1="450" x2="550" y1="80.0323" y2="80.0323"/><line style="stroke:#000000;stroke-width:1.0;" x1="550" x2="615" y1="80.0323" y2="80.0323"/><line style="stroke:#000000;stroke-width:1.0;" x1="615" x2="695" y1="80.0323" y2="80.0323"/><line style="stroke:#000000;stroke-width:1.0;" x1="695" x2="709" y1="80.0323" y2="80.0323"/><line style="stroke:#000000;stroke-width:1.0;" x1="6" x2="41" y1="61.6882" y2="61.6882"/><line style="stroke:#000000;stroke-width:1.0;" x1="41" x2="68" y1="61.6882" y2="61.6882"/><line style="stroke:#000000;stroke-width:1.0;" x1="68" x2="141" y1="61.6882" y2="61.6882"/><line style="stroke:#000000;stroke-width:1.0;" x1="141" x2="258" y1="61.6882" y2="61.6882"/><line style="stroke:#000000;stroke-width:1.0;" x1="258" x2="350" y1="61.6882" y2="61.6882"/><line style="stroke:#000000;stroke-width:1.0;" x1="350" x2="450" y1="61.6882" y2="61.6882"/><line style="stroke:#000000;stroke-width:1.0;" x1="450" x2="550" y1="61.6882" y2="61.6882"/><line style="stroke:#000000;stroke-width:1.0;" x1="550" x2="615" y1="61.6882" y2="61.6882"/><line style="stroke:#000000;stroke-width:1.0;" x1="615" x2="695" y1="61.6882" y2="61.6882"/><line style="stroke:#000000;stroke-width:1.0;" x1="695" x2="709" y1="61.6882" y2="61.6882"/><line style="stroke:#000000;stroke-width:1.0;" x1="6" x2="41" y1="43.3441" y2="43.3441"/><line style="stroke:#000000;stroke-width:1.0;" x1="41" x2="68" y1="43.3441" y2="43.3441"/><line style="stroke:#000000;stroke-width:1.0;" x1="68" x2="141" y1="43.3441" y2="43.3441"/><line style="stroke:#000000;stroke-width:1.0;" x1="141" x2="258" y1="43.3441" y2="43.3441"/><line style="stroke:#000000;stroke-width:1.0;" x1="258" x2="350" y1="43.3441" y2="43.3441"/><line style="stroke:#000000;stroke-width:1.0;" x1="350" x2="450" y1="43.3441" y2="43.3441"/><line style="stroke:#000000;stroke-width:1.0;" x1="450" x2="550" y1="43.3441" y2="43.3441"/><line style="stroke:#000000;stroke-width:1.0;" x1="550" x2="615" y1="43.3441" y2="43.3441"/><line style="stroke:#000000;stroke-width:1.0;" x1="615" x2="695" y1="43.3441" y2="43.3441"/><line style="stroke:#000000;stroke-width:1.0;" x1="695" x2="709" y1="43.3441" y2="43.3441"/><line style="stroke:#000000;stroke-width:1.0;" x1="6" x2="6" y1="24.3441" y2="43.3441"/><line style="stroke:#000000;stroke-width:1.0;" x1="41" x2="41" y1="24.3441" y2="43.3441"/><line style="stroke:#000000;stroke-width:1.0;" x1="68" x2="68" y1="24.3441" y2="43.3441"/><line style="stroke:#000000;stroke-width:1.0;" x1="709" x2="709" y1="24.3441" y2="43.3441"/><line style="stroke:#000000;stroke-width:1.0;" x1="6" x2="6" y1="61.6882" y2="80.0323"/><line style="stroke:#000000;stroke-width:1.0;" x1="41" x2="41" y1="61.6882" y2="80.0323"/><line style="stroke:#000000;stroke-width:1.0;" x1="68" x2="68" y1="61.6882" y2="80.0323"/><line style="stroke:#000000;stroke-width:1.0;" x1="141" x2="141" y1="61.6882" y2="80.0323"/><line style="stroke:#000000;stroke-width:1.0;" x1="258" x2="258" y1="61.6882" y2="80.0323"/><line style="stroke:#000000;stroke-width:1.0;" x1="350" x2="350" y1="61.6882" y2="80.0323"/><line style="stroke:#000000;stroke-width:1.0;" x1="450" x2="450" y1="61.6882" y2="80.0323"/><line style="stroke:#000000;stroke-width:1.0;" x1="550" x2="550" y1="61.6882" y2="80.0323"/><line style="stroke:#000000;stroke-width:1.0;" x1="615" x2="615" y1="61.6882" y2="80.0323"/><line style="stroke:#000000;stroke-width:1.0;" x1="695" x2="695" y1="61.6882" y2="80.0323"/><line style="stroke:#000000;stroke-width:1.0;" x1="709" x2="709" y1="61.6882" y2="80.0323"/><line style="stroke:#000000;stroke-width:1.0;" x1="6" x2="6" y1="43.3441" y2="61.6882"/><line style="stroke:#000000;stroke-width:1.0;" x1="41" x2="41" y1="43.3441" y2="61.6882"/><line style="stroke:#000000;stroke-width:1.0;" x1="68" x2="68" y1="43.3441" y2="61.6882"/><line style="stroke:#000000;stroke-width:1.0;" x1="141" x2="141" y1="43.3441" y2="61.6882"/><line style="stroke:#000000;stroke-width:1.0;" x1="258" x2="258" y1="43.3441" y2="61.6882"/><line style="stroke:#000000;stroke-width:1.0;" x1="350" x2="350" y1="43.3441" y2="61.6882"/><line style="stroke:#000000;stroke-width:1.0;" x1="450" x2="450" y1="43.3441" y2="61.6882"/><line style="stroke:#000000;stroke-width:1.0;" x1="550" x2="550" y1="43.3441" y2="61.6882"/><line style="stroke:#000000;stroke-width:1.0;" x1="615" x2="615" y1="43.3441" y2="61.6882"/><line style="stroke:#000000;stroke-width:1.0;" x1="695" x2="695" y1="43.3441" y2="61.6882"/><line style="stroke:#000000;stroke-width:1.0;" x1="709" x2="709" y1="43.3441" y2="61.6882"/><line style="stroke:#AAAAAA;stroke-width:1.0;" x1="6" x2="710" y1="85.5323" y2="85.5323"/></g></svg>