<?xml version="1.0" encoding="UTF-8" standalone="no"?><svg xmlns="http://www.w3.org/2000/svg" xmlns:xlink="http://www.w3.org/1999/xlink" contentStyleType="text/css" height="492px" preserveAspectRatio="none" style="width:692px;height:492px;background:#FFFFFF;" version="1.1" viewBox="0 0 692 492" width="692px" zoomAndPan="magnify"><defs/><g><text fill="#000000" font-family="sans-serif" font-size="12" font-weight="bold" lengthAdjust="spacing" textLength="95" x="6" y="18.8281">Nouvelle marée</text><line style="stroke:#AAAAAA;stroke-width:1.0;stroke-dasharray:1.0,2.0;" x1="6" x2="685" y1="27.8441" y2="27.8441"/><text fill="#000000" font-family="sans-serif" font-size="12" font-weight="bold" lengthAdjust="spacing" textLength="42" x="8" y="45.1722">Détails</text><line style="stroke:#000000;stroke-width:1.0;" x1="6" x2="6" y1="32.3441" y2="48.6882"/><line style="stroke:#000000;stroke-width:1.0;" x1="6" x2="53" y1="32.3441" y2="32.3441"/><line style="stroke:#000000;stroke-width:1.0;" x1="53" x2="53" y1="32.3441" y2="48.6882"/><line style="stroke:#000000;stroke-width:1.0;" x1="53" x2="63" y1="48.6882" y2="48.6882"/><text fill="#000000" font-family="sans-serif" font-size="12" lengthAdjust="spacing" textLength="37" x="65" y="45.1722">Engins</text><line style="stroke:#000000;stroke-width:1.0;" x1="63" x2="63" y1="32.3441" y2="48.6882"/><line style="stroke:#000000;stroke-width:1.0;" x1="63" x2="105" y1="32.3441" y2="32.3441"/><line style="stroke:#000000;stroke-width:1.0;" x1="105" x2="105" y1="32.3441" y2="48.6882"/><line style="stroke:#000000;stroke-width:1.0;" x1="105" x2="115" y1="48.6882" y2="48.6882"/><text fill="#000000" font-family="sans-serif" font-size="12" lengthAdjust="spacing" textLength="62" x="117" y="45.1722">Opérations</text><line style="stroke:#000000;stroke-width:1.0;" x1="115" x2="115" y1="32.3441" y2="48.6882"/><line style="stroke:#000000;stroke-width:1.0;" x1="115" x2="182" y1="32.3441" y2="32.3441"/><line style="stroke:#000000;stroke-width:1.0;" x1="182" x2="182" y1="32.3441" y2="48.6882"/><line style="stroke:#000000;stroke-width:1.0;" x1="182" x2="192" y1="48.6882" y2="48.6882"/><text fill="#000000" font-family="sans-serif" font-size="12" lengthAdjust="spacing" textLength="140" x="7" y="82.8604">Programme de collecte*:</text><rect fill="#EEEEEE" height="19.3441" style="stroke:#000000;stroke-width:1.0;" width="359" x="150" y="71.0323"/><text fill="#000000" font-family="sans-serif" font-size="12" lengthAdjust="spacing" textLength="73" x="152" y="85.8604">SIH-OBSMER</text><line style="stroke:#000000;stroke-width:1.0;" x1="498" x2="498" y1="71.0323" y2="90.3765"/><polygon fill="#000000" points="501,77.0323,507,77.0323,504,85.3765" style="stroke:#000000;stroke-width:1.0;"/><text fill="#000000" font-family="sans-serif" font-size="12" lengthAdjust="spacing" textLength="149" x="520" y="100.2045">Démarrage au 01/01/2023</text><path d="M677.03,92.7206 C674.5,92.7206 673,95.7206 673,95.7206 C673,95.7206 674.5,98.7206 677.03,98.7206 C679.5,98.7206 681,95.7206 681,95.7206 C681,95.7206 679.5,92.7206 677.03,92.7206 M677,93.7206 C678.11,93.7206 679,94.6206 679,95.7206 C679,96.8306 678.11,97.7206 677,97.7206 C675.9,97.7206 675,96.8306 675,95.7206 C675,94.6206 675.9,93.7206 677,93.7206 M677,94.7206 C676.45,94.7206 676,95.1706 676,95.7206 C676,96.2706 676.45,96.7206 677,96.7206 C677.55,96.7206 678,96.2706 678,95.7206 C678,95.6206 677.96,95.5306 677.94,95.4406 C677.86,95.6006 677.7,95.7206 677.5,95.7206 C677.22,95.7206 677,95.5006 677,95.2206 C677,95.0206 677.12,94.8606 677.28,94.7806 C677.19,94.7506 677.1,94.7206 677,94.7206 " fill="#000000" style="stroke:;stroke-width:0.0;stroke-dasharray:;"/><line style="stroke:#000000;stroke-width:1.0;" x1="519" x2="683" y1="78.2044" y2="78.2044"/><line style="stroke:#000000;stroke-width:1.0;" x1="519" x2="683" y1="104.7206" y2="104.7206"/><line style="stroke:#000000;stroke-width:1.0;" x1="519" x2="519" y1="78.2044" y2="104.7206"/><line style="stroke:#000000;stroke-width:1.0;" x1="683" x2="683" y1="78.2044" y2="104.7206"/><rect fill="#FFFFFF" height="16.3441" style="stroke:#FFFFFF;stroke-width:1.0;" width="51" x="525" y="70.0323"/><text fill="#000000" font-family="sans-serif" font-size="12" lengthAdjust="spacing" textLength="51" x="525" y="82.8604">Stratégie</text><text fill="#000000" font-family="sans-serif" font-size="12" lengthAdjust="spacing" textLength="89" x="7" y="135.8928">Observateurs* :</text><rect fill="#EEEEEE" height="19.3441" style="stroke:#000000;stroke-width:1.0;" width="191" x="149" y="123.0647"/><text fill="#000000" font-family="sans-serif" font-size="12" lengthAdjust="spacing" textLength="88" x="151" y="137.8928">Observateur #1</text><line style="stroke:#000000;stroke-width:1.0;" x1="329" x2="329" y1="123.0647" y2="142.4088"/><polygon fill="#000000" points="332,129.0647,338,129.0647,335,137.4088" style="stroke:#000000;stroke-width:1.0;"/><rect fill="#EEEEEE" height="12" rx="5" ry="5" style="stroke:#000000;stroke-width:2.5;" width="20" x="348.5" y="126.5647"/><path d="M357.5,128.5647 L357.5,131.5647 L354.5,131.5647 L354.5,133.5647 L357.5,133.5647 L357.5,136.5647 L359.5,136.5647 L359.5,133.5647 L362.5,133.5647 L362.5,131.5647 L359.5,131.5647 L359.5,128.5647 L357.5,128.5647 " fill="#000000" style="stroke:;stroke-width:0.0;stroke-dasharray:;"/><rect fill="#EEEEEE" height="12" rx="5" ry="5" style="stroke:#000000;stroke-width:2.5;" width="20" x="375.5" y="126.5647"/><path d="M382.91,128.5647 L381.5,129.9747 L382.22,130.6947 L384,132.5047 L382.22,134.2847 L381.5,134.9747 L382.91,136.4147 L383.63,135.6947 L385.44,133.8847 L387.22,135.6947 L387.91,136.4147 L389.35,134.9747 L388.63,134.2847 L386.82,132.5047 L388.63,130.6947 L389.35,129.9747 L387.91,128.5647 L387.22,129.2847 L385.44,131.0647 L383.63,129.2847 L382.91,128.5647 " fill="#000000" style="stroke:;stroke-width:0.0;stroke-dasharray:;"/><text fill="#000000" font-family="sans-serif" font-size="12" lengthAdjust="spacing" textLength="149" x="520" y="153.2369">Nicolas DUPOND - Ifremer</text><line style="stroke:#000000;stroke-width:1.0;" x1="519" x2="670" y1="131.2367" y2="131.2367"/><line style="stroke:#000000;stroke-width:1.0;" x1="519" x2="670" y1="157.7529" y2="157.7529"/><line style="stroke:#000000;stroke-width:1.0;" x1="519" x2="519" y1="131.2367" y2="157.7529"/><line style="stroke:#000000;stroke-width:1.0;" x1="670" x2="670" y1="131.2367" y2="157.7529"/><rect fill="#FFFFFF" height="16.3441" style="stroke:#FFFFFF;stroke-width:1.0;" width="57" x="525" y="123.0647"/><text fill="#000000" font-family="sans-serif" font-size="12" lengthAdjust="spacing" textLength="57" x="525" y="135.8928">Saisisseur</text><text fill="#000000" font-family="sans-serif" font-size="12" lengthAdjust="spacing" textLength="47" x="7" y="188.9251">Navire*:</text><rect fill="#EEEEEE" height="19.3441" style="stroke:#000000;stroke-width:1.0;" width="359" x="150" y="177.097"/><text fill="#000000" font-family="sans-serif" font-size="12" lengthAdjust="spacing" textLength="134" x="152" y="191.9251">851751 - PETIT BATEAU</text><line style="stroke:#000000;stroke-width:1.0;" x1="498" x2="498" y1="177.097" y2="196.4411"/><polygon fill="#000000" points="501,183.097,507,183.097,504,191.4411" style="stroke:#000000;stroke-width:1.0;"/><text fill="#000000" font-family="sans-serif" font-size="12" lengthAdjust="spacing" textLength="49" x="7" y="213.2692">Départ*:</text><rect fill="#EEEEEE" height="19.3441" style="stroke:#000000;stroke-width:1.0;" width="191" x="150" y="201.4411"/><text fill="#000000" font-family="sans-serif" font-size="12" lengthAdjust="spacing" textLength="102" x="152" y="216.2692">DRZ - Douarnenez</text><line style="stroke:#000000;stroke-width:1.0;" x1="330" x2="330" y1="201.4411" y2="220.7853"/><polygon fill="#000000" points="333,207.4411,339,207.4411,336,215.7853" style="stroke:#000000;stroke-width:1.0;"/><rect fill="#EEEEEE" height="19.3441" style="stroke:#000000;stroke-width:1.0;" width="103" x="346" y="201.4411"/><text fill="#000000" font-family="sans-serif" font-size="12" lengthAdjust="spacing" textLength="64" x="348" y="216.2692">jj/mm/aaaa</text><line style="stroke:#000000;stroke-width:1.0;" x1="438" x2="438" y1="201.4411" y2="220.7853"/><polygon fill="#000000" points="441,207.4411,447,207.4411,444,215.7853" style="stroke:#000000;stroke-width:1.0;"/><rect fill="#EEEEEE" height="19.3441" style="stroke:#000000;stroke-width:1.0;" width="63" x="452" y="201.4411"/><text fill="#000000" font-family="sans-serif" font-size="12" lengthAdjust="spacing" textLength="39" x="454" y="216.2692">hh:mm</text><line style="stroke:#000000;stroke-width:1.0;" x1="504" x2="504" y1="201.4411" y2="220.7853"/><polygon fill="#000000" points="507,207.4411,513,207.4411,510,215.7853" style="stroke:#000000;stroke-width:1.0;"/><path d="M520,205.7853 L520,207.7853 L527,207.7853 L527,205.7853 L520,205.7853 M520,208.7853 L520,213.6953 C520,213.7453 520.04,213.7853 520.09,213.7853 L526.9,213.7853 C526.95,213.7853 526.99,213.7453 526.99,213.6953 L526.99,208.7853 L519.99,208.7853 M521,209.7853 L522,209.7853 L522,210.7853 L521,210.7853 L521,209.7853 M523,209.7853 L524,209.7853 L524,210.7853 L523,210.7853 L523,209.7853 M525,209.7853 L526,209.7853 L526,210.7853 L525,210.7853 L525,209.7853 M521,211.7853 L522,211.7853 L522,212.7853 L521,212.7853 L521,211.7853 M523,211.7853 L524,211.7853 L524,212.7853 L523,212.7853 L523,211.7853 " fill="#000000" style="stroke:;stroke-width:0.0;stroke-dasharray:;"/><text fill="#000000" font-family="sans-serif" font-size="12" lengthAdjust="spacing" textLength="107" x="532" y="213.2692">Créé le 10/11/2023</text><text fill="#000000" font-family="sans-serif" font-size="12" lengthAdjust="spacing" textLength="47" x="7" y="237.6133">Retour*:</text><rect fill="#EEEEEE" height="19.3441" style="stroke:#000000;stroke-width:1.0;" width="191" x="150" y="225.7853"/><text fill="#000000" font-family="sans-serif" font-size="12" lengthAdjust="spacing" textLength="102" x="152" y="240.6133">DRZ - Douarnenez</text><line style="stroke:#000000;stroke-width:1.0;" x1="330" x2="330" y1="225.7853" y2="245.1294"/><polygon fill="#000000" points="333,231.7853,339,231.7853,336,240.1294" style="stroke:#000000;stroke-width:1.0;"/><rect fill="#EEEEEE" height="19.3441" style="stroke:#000000;stroke-width:1.0;" width="103" x="346" y="225.7853"/><text fill="#000000" font-family="sans-serif" font-size="12" lengthAdjust="spacing" textLength="64" x="348" y="240.6133">jj/mm/aaaa</text><line style="stroke:#000000;stroke-width:1.0;" x1="438" x2="438" y1="225.7853" y2="245.1294"/><polygon fill="#000000" points="441,231.7853,447,231.7853,444,240.1294" style="stroke:#000000;stroke-width:1.0;"/><rect fill="#EEEEEE" height="19.3441" style="stroke:#000000;stroke-width:1.0;" width="63" x="452" y="225.7853"/><text fill="#000000" font-family="sans-serif" font-size="12" lengthAdjust="spacing" textLength="39" x="454" y="240.6133">hh:mm</text><line style="stroke:#000000;stroke-width:1.0;" x1="504" x2="504" y1="225.7853" y2="245.1294"/><polygon fill="#000000" points="507,231.7853,513,231.7853,510,240.1294" style="stroke:#000000;stroke-width:1.0;"/><path d="M520,230.1294 L520,232.1294 L527,232.1294 L527,230.1294 L520,230.1294 M520,233.1294 L520,238.0394 C520,238.0894 520.04,238.1294 520.09,238.1294 L526.9,238.1294 C526.95,238.1294 526.99,238.0894 526.99,238.0394 L526.99,233.1294 L519.99,233.1294 M521,234.1294 L522,234.1294 L522,235.1294 L521,235.1294 L521,234.1294 M523,234.1294 L524,234.1294 L524,235.1294 L523,235.1294 L523,234.1294 M525,234.1294 L526,234.1294 L526,235.1294 L525,235.1294 L525,234.1294 M521,236.1294 L522,236.1294 L522,237.1294 L521,237.1294 L521,236.1294 M523,236.1294 L524,236.1294 L524,237.1294 L523,237.1294 L523,236.1294 " fill="#000000" style="stroke:;stroke-width:0.0;stroke-dasharray:;"/><text fill="#000000" font-family="sans-serif" font-size="12" lengthAdjust="spacing" textLength="135" x="532" y="237.6133">Mis à jour le 10/11/2023</text><text fill="#000000" font-family="sans-serif" font-size="12" lengthAdjust="spacing" textLength="42" x="7" y="261.9575">Vente*:</text><rect fill="#EEEEEE" height="19.3441" style="stroke:#000000;stroke-width:1.0;" width="191" x="150" y="250.1294"/><text fill="#000000" font-family="sans-serif" font-size="12" lengthAdjust="spacing" textLength="78" x="152" y="264.9575">Type de vente</text><line style="stroke:#000000;stroke-width:1.0;" x1="330" x2="330" y1="250.1294" y2="269.4735"/><polygon fill="#000000" points="333,256.1294,339,256.1294,336,264.4735" style="stroke:#000000;stroke-width:1.0;"/><rect fill="#EEEEEE" height="20.3441" rx="5" ry="5" style="stroke:#000000;stroke-width:2.5;" width="148" x="521.5" y="251.6294"/><text fill="#000000" font-family="sans-serif" font-size="12" lengthAdjust="spacing" textLength="100" x="545.5" y="266.4575">Terminer la saisie</text><rect fill="#EEEEEE" height="19.3441" style="stroke:#000000;stroke-width:1.0;" width="191" x="150" y="277.4735"/><text fill="#000000" font-family="sans-serif" font-size="12" lengthAdjust="spacing" textLength="74" x="152" y="292.3016">Lieu de vente</text><line style="stroke:#000000;stroke-width:1.0;" x1="330" x2="330" y1="277.4735" y2="296.8176"/><polygon fill="#000000" points="333,283.4735,339,283.4735,336,291.8176" style="stroke:#000000;stroke-width:1.0;"/><rect fill="#EEEEEE" height="19.3441" style="stroke:#000000;stroke-width:1.0;" width="103" x="346" y="277.4735"/><text fill="#000000" font-family="sans-serif" font-size="12" lengthAdjust="spacing" textLength="64" x="348" y="292.3016">jj/mm/aaaa</text><line style="stroke:#000000;stroke-width:1.0;" x1="438" x2="438" y1="277.4735" y2="296.8176"/><polygon fill="#000000" points="441,283.4735,447,283.4735,444,291.8176" style="stroke:#000000;stroke-width:1.0;"/><rect fill="#EEEEEE" height="19.3441" style="stroke:#000000;stroke-width:1.0;" width="63" x="452" y="277.4735"/><text fill="#000000" font-family="sans-serif" font-size="12" lengthAdjust="spacing" textLength="39" x="454" y="292.3016">hh:mm</text><line style="stroke:#000000;stroke-width:1.0;" x1="504" x2="504" y1="277.4735" y2="296.8176"/><polygon fill="#000000" points="507,283.4735,513,283.4735,510,291.8176" style="stroke:#000000;stroke-width:1.0;"/><text fill="#000000" font-family="sans-serif" font-size="12" font-weight="bold" lengthAdjust="spacing" textLength="104" x="6" y="314.6457">Caractéristiques :</text><text fill="#000000" font-family="sans-serif" font-size="12" lengthAdjust="spacing" textLength="147" x="12" y="333.9898">Nombre d'homme à bord :</text><text fill="#000000" font-family="sans-serif" font-size="12" lengthAdjust="spacing" textLength="7" x="164" y="333.9898">4</text><line style="stroke:#000000;stroke-width:1.0;" x1="162" x2="205" y1="337.5058" y2="337.5058"/><line style="stroke:#000000;stroke-width:1.0;" x1="162" x2="162" y1="334.5058" y2="336.5058"/><line style="stroke:#000000;stroke-width:1.0;" x1="205" x2="205" y1="334.5058" y2="336.5058"/><text fill="#000000" font-family="sans-serif" font-size="12" lengthAdjust="spacing" textLength="110" x="12" y="354.3339">Caractéristique #2 :</text><rect fill="#EEEEEE" height="19.3441" style="stroke:#000000;stroke-width:1.0;" width="159" x="161" y="341.5058"/><text fill="#000000" font-family="sans-serif" font-size="12" lengthAdjust="spacing" textLength="97" x="163" y="356.3339">Valeur qualitative</text><line style="stroke:#000000;stroke-width:1.0;" x1="309" x2="309" y1="341.5058" y2="360.8499"/><polygon fill="#000000" points="312,347.5058,318,347.5058,315,355.8499" style="stroke:#000000;stroke-width:1.0;"/><text fill="#000000" font-family="sans-serif" font-size="12" lengthAdjust="spacing" textLength="255" x="161" y="376.678">+ autres caractéristiques (cf "Grille de saisie")</text><text fill="#000000" font-family="sans-serif" font-size="12" font-weight="bold" lengthAdjust="spacing" textLength="88" x="7" y="415.3663">Commentaire :</text><text fill="#000000" font-family="sans-serif" font-size="12" lengthAdjust="spacing" textLength="3" x="11" y="453.0545"> </text><line style="stroke:#000000;stroke-width:1.0;" x1="9" x2="516" y1="456.5705" y2="456.5705"/><line style="stroke:#000000;stroke-width:1.0;" x1="9" x2="9" y1="453.5705" y2="455.5705"/><line style="stroke:#000000;stroke-width:1.0;" x1="516" x2="516" y1="453.5705" y2="455.5705"/><line style="stroke:#000000;stroke-width:1.0;" x1="7" x2="519" y1="420.8823" y2="420.8823"/><line style="stroke:#000000;stroke-width:1.0;" x1="7" x2="519" y1="459.5705" y2="459.5705"/><line style="stroke:#000000;stroke-width:1.0;" x1="7" x2="7" y1="420.8823" y2="439.2264"/><line style="stroke:#000000;stroke-width:1.0;" x1="519" x2="519" y1="439.2264" y2="459.5705"/><line style="stroke:#000000;stroke-width:1.0;" x1="519" x2="519" y1="420.8823" y2="439.2264"/><line style="stroke:#000000;stroke-width:1.0;" x1="7" x2="7" y1="439.2264" y2="459.5705"/><rect fill="#EEEEEE" height="20.3441" rx="5" ry="5" style="stroke:#000000;stroke-width:2.5;" width="52" x="9.5" y="466.0705"/><text fill="#000000" font-family="sans-serif" font-size="12" lengthAdjust="spacing" textLength="41" x="15" y="480.8986">Fermer</text><rect fill="#EEEEEE" height="20.3441" rx="5" ry="5" style="stroke:#000000;stroke-width:2.5;" width="92" x="68.5" y="466.0705"/><text fill="#000000" font-family="sans-serif" font-size="12" lengthAdjust="spacing" textLength="72" x="78.5" y="480.8986">Sauvegarder</text></g></svg>