<svg xmlns="http://www.w3.org/2000/svg" xmlns:xlink="http://www.w3.org/1999/xlink" contentStyleType="text/css" height="435px" preserveAspectRatio="none" style="width:985px;height:435px;background:#FFFFFF;" version="1.1" viewBox="0 0 985 435" width="985px" zoomAndPan="magnify"><defs/><g><line style="stroke:none;stroke-width:1.0;" x1="0" x2="0" y1="6" y2="433.8789"/><line style="stroke:none;stroke-width:1.0;" x1="16" x2="16" y1="6" y2="433.8789"/><line style="stroke:none;stroke-width:1.0;" x1="32" x2="32" y1="6" y2="433.8789"/><line style="stroke:none;stroke-width:1.0;" x1="48" x2="48" y1="6" y2="433.8789"/><line style="stroke:none;stroke-width:1.0;" x1="64" x2="64" y1="6" y2="433.8789"/><line style="stroke:none;stroke-width:1.0;" x1="80" x2="80" y1="6" y2="433.8789"/><line style="stroke:none;stroke-width:1.0;" x1="96" x2="96" y1="6" y2="433.8789"/><line style="stroke:none;stroke-width:1.0;" x1="112" x2="112" y1="6" y2="433.8789"/><line style="stroke:none;stroke-width:1.0;" x1="128" x2="128" y1="6" y2="433.8789"/><line style="stroke:none;stroke-width:1.0;" x1="144" x2="144" y1="6" y2="433.8789"/><line style="stroke:none;stroke-width:1.0;" x1="160" x2="160" y1="6" y2="433.8789"/><line style="stroke:none;stroke-width:1.0;" x1="176" x2="176" y1="6" y2="433.8789"/><line style="stroke:none;stroke-width:1.0;" x1="192" x2="192" y1="6" y2="433.8789"/><line style="stroke:none;stroke-width:1.0;" x1="208" x2="208" y1="6" y2="433.8789"/><line style="stroke:none;stroke-width:1.0;" x1="224" x2="224" y1="6" y2="433.8789"/><line style="stroke:none;stroke-width:1.0;" x1="240" x2="240" y1="6" y2="433.8789"/><line style="stroke:none;stroke-width:1.0;" x1="256" x2="256" y1="6" y2="433.8789"/><line style="stroke:none;stroke-width:1.0;" x1="272" x2="272" y1="6" y2="433.8789"/><line style="stroke:none;stroke-width:1.0;" x1="288" x2="288" y1="6" y2="433.8789"/><line style="stroke:none;stroke-width:1.0;" x1="304" x2="304" y1="6" y2="433.8789"/><line style="stroke:none;stroke-width:1.0;" x1="320" x2="320" y1="6" y2="433.8789"/><line style="stroke:none;stroke-width:1.0;" x1="336" x2="336" y1="6" y2="433.8789"/><line style="stroke:none;stroke-width:1.0;" x1="352" x2="352" y1="6" y2="433.8789"/><line style="stroke:none;stroke-width:1.0;" x1="368" x2="368" y1="6" y2="433.8789"/><line style="stroke:none;stroke-width:1.0;" x1="384" x2="384" y1="6" y2="433.8789"/><line style="stroke:none;stroke-width:1.0;" x1="400" x2="400" y1="6" y2="433.8789"/><line style="stroke:none;stroke-width:1.0;" x1="416" x2="416" y1="6" y2="433.8789"/><line style="stroke:none;stroke-width:1.0;" x1="432" x2="432" y1="6" y2="433.8789"/><line style="stroke:none;stroke-width:1.0;" x1="448" x2="448" y1="6" y2="433.8789"/><line style="stroke:none;stroke-width:1.0;" x1="464" x2="464" y1="6" y2="433.8789"/><line style="stroke:none;stroke-width:1.0;" x1="480" x2="480" y1="6" y2="433.8789"/><line style="stroke:none;stroke-width:1.0;" x1="496" x2="496" y1="6" y2="433.8789"/><line style="stroke:none;stroke-width:1.0;" x1="512" x2="512" y1="6" y2="433.8789"/><line style="stroke:none;stroke-width:1.0;" x1="528" x2="528" y1="6" y2="433.8789"/><line style="stroke:none;stroke-width:1.0;" x1="544" x2="544" y1="6" y2="433.8789"/><line style="stroke:none;stroke-width:1.0;" x1="560" x2="560" y1="6" y2="433.8789"/><line style="stroke:none;stroke-width:1.0;" x1="576" x2="576" y1="6" y2="433.8789"/><line style="stroke:none;stroke-width:1.0;" x1="592" x2="592" y1="6" y2="433.8789"/><line style="stroke:none;stroke-width:1.0;" x1="608" x2="608" y1="6" y2="433.8789"/><line style="stroke:none;stroke-width:1.0;" x1="624" x2="624" y1="6" y2="433.8789"/><line style="stroke:none;stroke-width:1.0;" x1="640" x2="640" y1="6" y2="433.8789"/><line style="stroke:none;stroke-width:1.0;" x1="656" x2="656" y1="6" y2="433.8789"/><line style="stroke:none;stroke-width:1.0;" x1="672" x2="672" y1="6" y2="433.8789"/><line style="stroke:none;stroke-width:1.0;" x1="688" x2="688" y1="6" y2="433.8789"/><line style="stroke:none;stroke-width:1.0;" x1="704" x2="704" y1="6" y2="433.8789"/><line style="stroke:none;stroke-width:1.0;" x1="720" x2="720" y1="6" y2="433.8789"/><line style="stroke:none;stroke-width:1.0;" x1="736" x2="736" y1="6" y2="433.8789"/><line style="stroke:none;stroke-width:1.0;" x1="752" x2="752" y1="6" y2="433.8789"/><line style="stroke:none;stroke-width:1.0;" x1="768" x2="768" y1="6" y2="433.8789"/><line style="stroke:none;stroke-width:1.0;" x1="784" x2="784" y1="6" y2="433.8789"/><line style="stroke:none;stroke-width:1.0;" x1="800" x2="800" y1="6" y2="433.8789"/><line style="stroke:none;stroke-width:1.0;" x1="816" x2="816" y1="6" y2="433.8789"/><line style="stroke:none;stroke-width:1.0;" x1="832" x2="832" y1="6" y2="433.8789"/><line style="stroke:none;stroke-width:1.0;" x1="848" x2="848" y1="6" y2="433.8789"/><line style="stroke:none;stroke-width:1.0;" x1="864" x2="864" y1="6" y2="433.8789"/><line style="stroke:none;stroke-width:1.0;" x1="880" x2="880" y1="6" y2="433.8789"/><line style="stroke:none;stroke-width:1.0;" x1="896" x2="896" y1="6" y2="433.8789"/><line style="stroke:none;stroke-width:1.0;" x1="912" x2="912" y1="6" y2="433.8789"/><line style="stroke:none;stroke-width:1.0;" x1="928" x2="928" y1="6" y2="433.8789"/><line style="stroke:#181818;stroke-width:1.5;" x1="-1" x2="-9" y1="25.3154" y2="25.3154"/><line style="stroke:#181818;stroke-width:1.5;" x1="-9" x2="-9" y1="25.3154" y2="62.5771"/><line style="stroke:#181818;stroke-width:1.5;" x1="-9" x2="15" y1="62.5771" y2="62.5771"/><polygon fill="#181818" points="11,58.5771,11,62.5771,11,66.5771,15,62.5771" style="stroke:#181818;stroke-width:1.5;"/><line style="stroke:#181818;stroke-width:1.5;" x1="-1" x2="-9" y1="25.3154" y2="25.3154"/><line style="stroke:#181818;stroke-width:1.5;" x1="-9" x2="-9" y1="25.3154" y2="81.208"/><line style="stroke:#181818;stroke-width:1.5;" x1="-9" x2="15" y1="81.208" y2="81.208"/><polygon fill="#181818" points="11,77.208,11,81.208,11,85.208,15,81.208" style="stroke:#181818;stroke-width:1.5;"/><line style="stroke:#181818;stroke-width:1.5;" x1="-1" x2="-9" y1="25.3154" y2="25.3154"/><line style="stroke:#181818;stroke-width:1.5;" x1="-9" x2="-9" y1="25.3154" y2="99.8389"/><line style="stroke:#181818;stroke-width:1.5;" x1="-9" x2="15" y1="99.8389" y2="99.8389"/><polygon fill="#181818" points="11,95.8389,11,99.8389,11,103.8389,15,99.8389" style="stroke:#181818;stroke-width:1.5;"/><line style="stroke:#181818;stroke-width:1.5;" x1="-1" x2="-9" y1="25.3154" y2="25.3154"/><line style="stroke:#181818;stroke-width:1.5;" x1="-9" x2="-9" y1="25.3154" y2="118.4697"/><line style="stroke:#181818;stroke-width:1.5;" x1="-9" x2="15" y1="118.4697" y2="118.4697"/><polygon fill="#181818" points="11,114.4697,11,118.4697,11,122.4697,15,118.4697" style="stroke:#181818;stroke-width:1.5;"/><line style="stroke:#181818;stroke-width:1.5;" x1="-1" x2="-9" y1="25.3154" y2="25.3154"/><line style="stroke:#181818;stroke-width:1.5;" x1="-9" x2="-9" y1="25.3154" y2="137.1006"/><line style="stroke:#181818;stroke-width:1.5;" x1="-9" x2="15" y1="137.1006" y2="137.1006"/><polygon fill="#181818" points="11,133.1006,11,137.1006,11,141.1006,15,137.1006" style="stroke:#181818;stroke-width:1.5;"/><line style="stroke:#181818;stroke-width:1.5;" x1="-1" x2="-9" y1="25.3154" y2="25.3154"/><line style="stroke:#181818;stroke-width:1.5;" x1="-9" x2="-9" y1="25.3154" y2="155.7314"/><line style="stroke:#181818;stroke-width:1.5;" x1="-9" x2="15" y1="155.7314" y2="155.7314"/><polygon fill="#181818" points="11,151.7314,11,155.7314,11,159.7314,15,155.7314" style="stroke:#181818;stroke-width:1.5;"/><line style="stroke:#181818;stroke-width:1.5;" x1="-1" x2="-9" y1="25.3154" y2="25.3154"/><line style="stroke:#181818;stroke-width:1.5;" x1="-9" x2="-9" y1="25.3154" y2="174.3623"/><line style="stroke:#181818;stroke-width:1.5;" x1="-9" x2="15" y1="174.3623" y2="174.3623"/><polygon fill="#181818" points="11,170.3623,11,174.3623,11,178.3623,15,174.3623" style="stroke:#181818;stroke-width:1.5;"/><line style="stroke:#181818;stroke-width:1.5;" x1="-1" x2="-9" y1="25.3154" y2="25.3154"/><line style="stroke:#181818;stroke-width:1.5;" x1="-9" x2="-9" y1="25.3154" y2="192.9932"/><line style="stroke:#181818;stroke-width:1.5;" x1="-9" x2="15" y1="192.9932" y2="192.9932"/><polygon fill="#181818" points="11,188.9932,11,192.9932,11,196.9932,15,192.9932" style="stroke:#181818;stroke-width:1.5;"/><line style="stroke:#181818;stroke-width:1.5;" x1="328" x2="328" y1="32.6309" y2="211.624"/><line style="stroke:#181818;stroke-width:1.5;" x1="328" x2="351" y1="211.624" y2="211.624"/><polygon fill="#181818" points="347,207.624,347,211.624,347,215.624,351,211.624" style="stroke:#181818;stroke-width:1.5;"/><line style="stroke:#181818;stroke-width:1.5;" x1="351" x2="343" y1="211.624" y2="211.624"/><line style="stroke:#181818;stroke-width:1.5;" x1="343" x2="343" y1="211.624" y2="248.8857"/><line style="stroke:#181818;stroke-width:1.5;" x1="343" x2="367" y1="248.8857" y2="248.8857"/><polygon fill="#181818" points="363,244.8857,363,248.8857,363,252.8857,367,248.8857" style="stroke:#181818;stroke-width:1.5;"/><line style="stroke:#181818;stroke-width:1.5;" x1="351" x2="343" y1="211.624" y2="211.624"/><line style="stroke:#181818;stroke-width:1.5;" x1="343" x2="343" y1="211.624" y2="267.5166"/><line style="stroke:#181818;stroke-width:1.5;" x1="343" x2="367" y1="267.5166" y2="267.5166"/><polygon fill="#181818" points="363,263.5166,363,267.5166,363,271.5166,367,267.5166" style="stroke:#181818;stroke-width:1.5;"/><line style="stroke:#181818;stroke-width:1.5;" x1="351" x2="343" y1="211.624" y2="211.624"/><line style="stroke:#181818;stroke-width:1.5;" x1="343" x2="343" y1="211.624" y2="286.1475"/><line style="stroke:#181818;stroke-width:1.5;" x1="343" x2="367" y1="286.1475" y2="286.1475"/><polygon fill="#181818" points="363,282.1475,363,286.1475,363,290.1475,367,286.1475" style="stroke:#181818;stroke-width:1.5;"/><line style="stroke:#181818;stroke-width:1.5;" x1="351" x2="343" y1="211.624" y2="211.624"/><line style="stroke:#181818;stroke-width:1.5;" x1="343" x2="343" y1="211.624" y2="304.7783"/><line style="stroke:#181818;stroke-width:1.5;" x1="343" x2="367" y1="304.7783" y2="304.7783"/><polygon fill="#181818" points="363,300.7783,363,304.7783,363,308.7783,367,304.7783" style="stroke:#181818;stroke-width:1.5;"/><line style="stroke:#181818;stroke-width:1.5;" x1="351" x2="343" y1="211.624" y2="211.624"/><line style="stroke:#181818;stroke-width:1.5;" x1="343" x2="343" y1="211.624" y2="323.4092"/><line style="stroke:#181818;stroke-width:1.5;" x1="343" x2="367" y1="323.4092" y2="323.4092"/><polygon fill="#181818" points="363,319.4092,363,323.4092,363,327.4092,367,323.4092" style="stroke:#181818;stroke-width:1.5;"/><line style="stroke:#181818;stroke-width:1.5;" x1="351" x2="343" y1="211.624" y2="211.624"/><line style="stroke:#181818;stroke-width:1.5;" x1="343" x2="343" y1="211.624" y2="342.04"/><line style="stroke:#181818;stroke-width:1.5;" x1="343" x2="367" y1="342.04" y2="342.04"/><polygon fill="#181818" points="363,338.04,363,342.04,363,346.04,367,342.04" style="stroke:#181818;stroke-width:1.5;"/><line style="stroke:#181818;stroke-width:1.5;" x1="680" x2="680" y1="218.9395" y2="360.6709"/><line style="stroke:#181818;stroke-width:1.5;" x1="680" x2="703" y1="360.6709" y2="360.6709"/><polygon fill="#181818" points="699,356.6709,699,360.6709,699,364.6709,703,360.6709" style="stroke:#181818;stroke-width:1.5;"/><line style="stroke:#181818;stroke-width:1.5;" x1="703" x2="695" y1="360.6709" y2="360.6709"/><line style="stroke:#181818;stroke-width:1.5;" x1="695" x2="695" y1="360.6709" y2="397.9326"/><line style="stroke:#181818;stroke-width:1.5;" x1="695" x2="719" y1="397.9326" y2="397.9326"/><polygon fill="#181818" points="715,393.9326,715,397.9326,715,401.9326,719,397.9326" style="stroke:#181818;stroke-width:1.5;"/><line style="stroke:#181818;stroke-width:1.5;" x1="703" x2="695" y1="360.6709" y2="360.6709"/><line style="stroke:#181818;stroke-width:1.5;" x1="695" x2="695" y1="360.6709" y2="416.5635"/><line style="stroke:#181818;stroke-width:1.5;" x1="695" x2="719" y1="416.5635" y2="416.5635"/><polygon fill="#181818" points="715,412.5635,715,416.5635,715,420.5635,719,416.5635" style="stroke:#181818;stroke-width:1.5;"/><rect fill="#87CEFA" height="14.6309" style="stroke:none;stroke-width:1.0;" width="332" x="2" y="18"/><line style="stroke:#87CEFA;stroke-width:1.0;" x1="2" x2="334" y1="18" y2="18"/><line style="stroke:#87CEFA;stroke-width:1.0;" x1="2" x2="334" y1="32.6309" y2="32.6309"/><line style="stroke:#87CEFA;stroke-width:1.0;" x1="2" x2="2" y1="18" y2="32.6309"/><line style="stroke:#87CEFA;stroke-width:1.0;" x1="334" x2="334" y1="18" y2="32.6309"/><polygon fill="#000000" points="328,36.6309,333,41.6309,328,46.6309,323,41.6309" style="stroke:#000000;stroke-width:1.0;"/><rect fill="#FFEFD5" height="14.6309" style="stroke:none;stroke-width:1.0;" width="300" x="18" y="55.2617"/><line style="stroke:#FFEFD5;stroke-width:1.0;" x1="18" x2="318" y1="55.2617" y2="55.2617"/><line style="stroke:#FFEFD5;stroke-width:1.0;" x1="18" x2="318" y1="69.8926" y2="69.8926"/><line style="stroke:#FFEFD5;stroke-width:1.0;" x1="18" x2="18" y1="55.2617" y2="69.8926"/><line style="stroke:#FFEFD5;stroke-width:1.0;" x1="318" x2="318" y1="55.2617" y2="69.8926"/><rect fill="#FFEFD5" height="14.6309" style="stroke:none;stroke-width:1.0;" width="300" x="18" y="73.8926"/><line style="stroke:#FFEFD5;stroke-width:1.0;" x1="18" x2="318" y1="73.8926" y2="73.8926"/><line style="stroke:#FFEFD5;stroke-width:1.0;" x1="18" x2="318" y1="88.5234" y2="88.5234"/><line style="stroke:#FFEFD5;stroke-width:1.0;" x1="18" x2="18" y1="73.8926" y2="88.5234"/><line style="stroke:#FFEFD5;stroke-width:1.0;" x1="318" x2="318" y1="73.8926" y2="88.5234"/><rect fill="#FFEFD5" height="14.6309" style="stroke:none;stroke-width:1.0;" width="300" x="18" y="92.5234"/><line style="stroke:#FFEFD5;stroke-width:1.0;" x1="18" x2="318" y1="92.5234" y2="92.5234"/><line style="stroke:#FFEFD5;stroke-width:1.0;" x1="18" x2="318" y1="107.1543" y2="107.1543"/><line style="stroke:#FFEFD5;stroke-width:1.0;" x1="18" x2="18" y1="92.5234" y2="107.1543"/><line style="stroke:#FFEFD5;stroke-width:1.0;" x1="318" x2="318" y1="92.5234" y2="107.1543"/><rect fill="#FFEFD5" height="14.6309" style="stroke:none;stroke-width:1.0;" width="300" x="18" y="111.1543"/><line style="stroke:#FFEFD5;stroke-width:1.0;" x1="18" x2="318" y1="111.1543" y2="111.1543"/><line style="stroke:#FFEFD5;stroke-width:1.0;" x1="18" x2="318" y1="125.7852" y2="125.7852"/><line style="stroke:#FFEFD5;stroke-width:1.0;" x1="18" x2="18" y1="111.1543" y2="125.7852"/><line style="stroke:#FFEFD5;stroke-width:1.0;" x1="318" x2="318" y1="111.1543" y2="125.7852"/><rect fill="#FFEFD5" height="14.6309" style="stroke:none;stroke-width:1.0;" width="300" x="18" y="129.7852"/><line style="stroke:#FFEFD5;stroke-width:1.0;" x1="18" x2="318" y1="129.7852" y2="129.7852"/><line style="stroke:#FFEFD5;stroke-width:1.0;" x1="18" x2="318" y1="144.416" y2="144.416"/><line style="stroke:#FFEFD5;stroke-width:1.0;" x1="18" x2="18" y1="129.7852" y2="144.416"/><line style="stroke:#FFEFD5;stroke-width:1.0;" x1="318" x2="318" y1="129.7852" y2="144.416"/><rect fill="#FFEFD5" height="14.6309" style="stroke:none;stroke-width:1.0;" width="300" x="18" y="148.416"/><line style="stroke:#FFEFD5;stroke-width:1.0;" x1="18" x2="318" y1="148.416" y2="148.416"/><line style="stroke:#FFEFD5;stroke-width:1.0;" x1="18" x2="318" y1="163.0469" y2="163.0469"/><line style="stroke:#FFEFD5;stroke-width:1.0;" x1="18" x2="18" y1="148.416" y2="163.0469"/><line style="stroke:#FFEFD5;stroke-width:1.0;" x1="318" x2="318" y1="148.416" y2="163.0469"/><rect fill="#FFEFD5" height="14.6309" style="stroke:none;stroke-width:1.0;" width="300" x="18" y="167.0469"/><line style="stroke:#FFEFD5;stroke-width:1.0;" x1="18" x2="318" y1="167.0469" y2="167.0469"/><line style="stroke:#FFEFD5;stroke-width:1.0;" x1="18" x2="318" y1="181.6777" y2="181.6777"/><line style="stroke:#FFEFD5;stroke-width:1.0;" x1="18" x2="18" y1="167.0469" y2="181.6777"/><line style="stroke:#FFEFD5;stroke-width:1.0;" x1="318" x2="318" y1="167.0469" y2="181.6777"/><rect fill="#FFEFD5" height="14.6309" style="stroke:none;stroke-width:1.0;" width="300" x="18" y="185.6777"/><line style="stroke:#FFEFD5;stroke-width:1.0;" x1="18" x2="318" y1="185.6777" y2="185.6777"/><line style="stroke:#FFEFD5;stroke-width:1.0;" x1="18" x2="318" y1="200.3086" y2="200.3086"/><line style="stroke:#FFEFD5;stroke-width:1.0;" x1="18" x2="18" y1="185.6777" y2="200.3086"/><line style="stroke:#FFEFD5;stroke-width:1.0;" x1="318" x2="318" y1="185.6777" y2="200.3086"/><rect fill="#98FB98" height="14.6309" style="stroke:none;stroke-width:1.0;" width="332" x="354" y="204.3086"/><line style="stroke:#98FB98;stroke-width:1.0;" x1="354" x2="686" y1="204.3086" y2="204.3086"/><line style="stroke:#98FB98;stroke-width:1.0;" x1="354" x2="686" y1="218.9395" y2="218.9395"/><line style="stroke:#98FB98;stroke-width:1.0;" x1="354" x2="354" y1="204.3086" y2="218.9395"/><line style="stroke:#98FB98;stroke-width:1.0;" x1="686" x2="686" y1="204.3086" y2="218.9395"/><polygon fill="#000000" points="680,222.9395,685,227.9395,680,232.9395,675,227.9395" style="stroke:#000000;stroke-width:1.0;"/><rect fill="#FFEFD5" height="14.6309" style="stroke:none;stroke-width:1.0;" width="300" x="370" y="241.5703"/><line style="stroke:#FFEFD5;stroke-width:1.0;" x1="370" x2="670" y1="241.5703" y2="241.5703"/><line style="stroke:#FFEFD5;stroke-width:1.0;" x1="370" x2="670" y1="256.2012" y2="256.2012"/><line style="stroke:#FFEFD5;stroke-width:1.0;" x1="370" x2="370" y1="241.5703" y2="256.2012"/><line style="stroke:#FFEFD5;stroke-width:1.0;" x1="670" x2="670" y1="241.5703" y2="256.2012"/><rect fill="#FFEFD5" height="14.6309" style="stroke:none;stroke-width:1.0;" width="300" x="370" y="260.2012"/><line style="stroke:#FFEFD5;stroke-width:1.0;" x1="370" x2="670" y1="260.2012" y2="260.2012"/><line style="stroke:#FFEFD5;stroke-width:1.0;" x1="370" x2="670" y1="274.832" y2="274.832"/><line style="stroke:#FFEFD5;stroke-width:1.0;" x1="370" x2="370" y1="260.2012" y2="274.832"/><line style="stroke:#FFEFD5;stroke-width:1.0;" x1="670" x2="670" y1="260.2012" y2="274.832"/><rect fill="#FFEFD5" height="14.6309" style="stroke:none;stroke-width:1.0;" width="300" x="370" y="278.832"/><line style="stroke:#FFEFD5;stroke-width:1.0;" x1="370" x2="670" y1="278.832" y2="278.832"/><line style="stroke:#FFEFD5;stroke-width:1.0;" x1="370" x2="670" y1="293.4629" y2="293.4629"/><line style="stroke:#FFEFD5;stroke-width:1.0;" x1="370" x2="370" y1="278.832" y2="293.4629"/><line style="stroke:#FFEFD5;stroke-width:1.0;" x1="670" x2="670" y1="278.832" y2="293.4629"/><rect fill="#FFEFD5" height="14.6309" style="stroke:none;stroke-width:1.0;" width="300" x="370" y="297.4629"/><line style="stroke:#FFEFD5;stroke-width:1.0;" x1="370" x2="670" y1="297.4629" y2="297.4629"/><line style="stroke:#FFEFD5;stroke-width:1.0;" x1="370" x2="670" y1="312.0938" y2="312.0938"/><line style="stroke:#FFEFD5;stroke-width:1.0;" x1="370" x2="370" y1="297.4629" y2="312.0938"/><line style="stroke:#FFEFD5;stroke-width:1.0;" x1="670" x2="670" y1="297.4629" y2="312.0938"/><rect fill="#FFEFD5" height="14.6309" style="stroke:none;stroke-width:1.0;" width="300" x="370" y="316.0938"/><line style="stroke:#FFEFD5;stroke-width:1.0;" x1="370" x2="670" y1="316.0938" y2="316.0938"/><line style="stroke:#FFEFD5;stroke-width:1.0;" x1="370" x2="670" y1="330.7246" y2="330.7246"/><line style="stroke:#FFEFD5;stroke-width:1.0;" x1="370" x2="370" y1="316.0938" y2="330.7246"/><line style="stroke:#FFEFD5;stroke-width:1.0;" x1="670" x2="670" y1="316.0938" y2="330.7246"/><rect fill="#FFEFD5" height="14.6309" style="stroke:none;stroke-width:1.0;" width="300" x="370" y="334.7246"/><line style="stroke:#FFEFD5;stroke-width:1.0;" x1="370" x2="670" y1="334.7246" y2="334.7246"/><line style="stroke:#FFEFD5;stroke-width:1.0;" x1="370" x2="670" y1="349.3555" y2="349.3555"/><line style="stroke:#FFEFD5;stroke-width:1.0;" x1="370" x2="370" y1="334.7246" y2="349.3555"/><line style="stroke:#FFEFD5;stroke-width:1.0;" x1="670" x2="670" y1="334.7246" y2="349.3555"/><rect fill="#F4A460" height="14.6309" style="stroke:none;stroke-width:1.0;" width="220" x="706" y="353.3555"/><line style="stroke:#F4A460;stroke-width:1.0;" x1="706" x2="926" y1="353.3555" y2="353.3555"/><line style="stroke:#F4A460;stroke-width:1.0;" x1="706" x2="926" y1="367.9863" y2="367.9863"/><line style="stroke:#F4A460;stroke-width:1.0;" x1="706" x2="706" y1="353.3555" y2="367.9863"/><line style="stroke:#F4A460;stroke-width:1.0;" x1="926" x2="926" y1="353.3555" y2="367.9863"/><polygon fill="#000000" points="920,371.9863,925,376.9863,920,381.9863,915,376.9863" style="stroke:#000000;stroke-width:1.0;"/><rect fill="#FFEFD5" height="14.6309" style="stroke:none;stroke-width:1.0;" width="188" x="722" y="390.6172"/><line style="stroke:#FFEFD5;stroke-width:1.0;" x1="722" x2="910" y1="390.6172" y2="390.6172"/><line style="stroke:#FFEFD5;stroke-width:1.0;" x1="722" x2="910" y1="405.248" y2="405.248"/><line style="stroke:#FFEFD5;stroke-width:1.0;" x1="722" x2="722" y1="390.6172" y2="405.248"/><line style="stroke:#FFEFD5;stroke-width:1.0;" x1="910" x2="910" y1="390.6172" y2="405.248"/><rect fill="#FFEFD5" height="14.6309" style="stroke:none;stroke-width:1.0;" width="188" x="722" y="409.248"/><line style="stroke:#FFEFD5;stroke-width:1.0;" x1="722" x2="910" y1="409.248" y2="409.248"/><line style="stroke:#FFEFD5;stroke-width:1.0;" x1="722" x2="910" y1="423.8789" y2="423.8789"/><line style="stroke:#FFEFD5;stroke-width:1.0;" x1="722" x2="722" y1="409.248" y2="423.8789"/><line style="stroke:#FFEFD5;stroke-width:1.0;" x1="910" x2="910" y1="409.248" y2="423.8789"/><text fill="#000000" font-family="sans-serif" font-size="11" font-weight="bold" lengthAdjust="spacing" textLength="45.853" x="6" y="29.8701">Batch #1</text><text fill="#000000" font-family="sans-serif" font-size="11" lengthAdjust="spacing" textLength="107.5991" x="54.9092" y="29.8701">delivery on test server</text><text fill="#000000" font-family="sans-serif" font-size="11" font-weight="bold" lengthAdjust="spacing" textLength="55.0537" x="336" y="48.501">28/03/2025</text><text fill="#000000" font-family="sans-serif" font-size="11" lengthAdjust="spacing" textLength="106.396" x="22" y="67.1318">SIH upgrade to 2.9.xx</text><text fill="#000000" font-family="sans-serif" font-size="11" lengthAdjust="spacing" textLength="111.2837" x="22" y="85.7627">New logbooks creation</text><text fill="#000000" font-family="sans-serif" font-size="11" lengthAdjust="spacing" textLength="223.7544" x="22" y="104.3936">Commercial / research trip parameter addition</text><text fill="#000000" font-family="sans-serif" font-size="11" lengthAdjust="spacing" textLength="277.5889" x="22" y="123.0244">OPRDEB program for Landed catches (packets enabled)</text><text fill="#000000" font-family="sans-serif" font-size="11" lengthAdjust="spacing" textLength="227.4336" x="22" y="141.6553">OPRDEB program for Sales (packets enabled)</text><text fill="#000000" font-family="sans-serif" font-size="11" lengthAdjust="spacing" textLength="133.9282" x="22" y="160.2861">SFA name and logo update</text><text fill="#000000" font-family="sans-serif" font-size="11" lengthAdjust="spacing" textLength="185.8667" x="22" y="178.917">Vessels already observed list restored</text><text fill="#000000" font-family="sans-serif" font-size="11" lengthAdjust="spacing" textLength="243.3428" x="22" y="197.5479">Extraction for Dropline Fishery logbook to be fixed</text><text fill="#000000" font-family="sans-serif" font-size="11" font-weight="bold" lengthAdjust="spacing" textLength="45.853" x="358" y="216.1787">Batch #2</text><text fill="#000000" font-family="sans-serif" font-size="11" lengthAdjust="spacing" textLength="107.5991" x="406.9092" y="216.1787">delivery on test server</text><text fill="#000000" font-family="sans-serif" font-size="11" font-weight="bold" lengthAdjust="spacing" textLength="55.0537" x="688" y="234.8096">30/04/2025</text><text fill="#000000" font-family="sans-serif" font-size="11" lengthAdjust="spacing" textLength="279.415" x="374" y="253.4404">OPRDEB program for Landed catches (packets disabled)</text><text fill="#000000" font-family="sans-serif" font-size="11" lengthAdjust="spacing" textLength="229.2598" x="374" y="272.0713">OPRDEB program for Sales (packets disabled)</text><text fill="#000000" font-family="sans-serif" font-size="11" lengthAdjust="spacing" textLength="108.8452" x="374" y="290.7021">Expenses tab creation</text><text fill="#000000" font-family="sans-serif" font-size="11" lengthAdjust="spacing" textLength="272.7065" x="374" y="309.333">Individual measurements tab addition to Packets screen</text><text fill="#000000" font-family="sans-serif" font-size="11" lengthAdjust="spacing" textLength="246.415" x="374" y="327.9639">Vessel search option addition to Occasions screen</text><text fill="#000000" font-family="sans-serif" font-size="11" lengthAdjust="spacing" textLength="223.7974" x="374" y="346.5947">Adding biological sampling on Packets screen</text><text fill="#000000" font-family="sans-serif" font-size="11" font-weight="bold" lengthAdjust="spacing" textLength="45.853" x="710" y="365.2256">Batch #3</text><text fill="#000000" font-family="sans-serif" font-size="11" lengthAdjust="spacing" textLength="107.5991" x="758.9092" y="365.2256">delivery on test server</text><text fill="#000000" font-family="sans-serif" font-size="11" font-weight="bold" lengthAdjust="spacing" textLength="55.0537" x="928" y="383.8564">27/06/2025</text><text fill="#000000" font-family="sans-serif" font-size="11" lengthAdjust="spacing" textLength="144.9067" x="726" y="402.4873">P03 extractions tool migration</text><text fill="#000000" font-family="sans-serif" font-size="11" lengthAdjust="spacing" textLength="157.1421" x="726" y="421.1182">P03 extractions queries creation</text><!--SRC=[pPVVJzim4CVVyrUSj8S14hHD6JygDB7ITeFHKH5W3uY7It9DBH8xs4vfDUr_tpa5ojYesasezKiTrxxxdC_tTN9eB6gReBJM0su7nevJ-bZsNIl_QGbCD6RmusdODIioIeMa5yEkdVBmaKgL1gjHcXmrIVl7h8wITlQidxyzPI8bOzLVFJfRWKE7KANnAqOclOFAinW78YReAsL3DIe7hZSsccYZ0RohRMn0p14EIOz1IR3i70nfVhu1JNU5q6J0hq6COmCeOn068XSFSLVo9YG36zoEcsb1JmZN_bwbMg_uLV_33GmmpqdoMZkds_S6I4wZkmwElq2HSsuu2Al0tzhV6erkeCofWP8Ci6z9ps-_N5j6aw9nHlPVYw-7EOxn-q3aKw1lT0-fIaAbRdck9hH2oMK27Qai8nq9JA72IJE4cdrQBNBWyuOPEHQCOx5iqBFUUQlTX5ohijJwN1Mdl98NHCuxdxIr7ADRiku8O9XIlBvYk06cgqOPT3w1v2HF3AX4SRN4Q6cPJ5Ta3AKyE-NoYDb-M5fcOuAzQATml7gPXEqHwt7a2gBCQqkhlDJvZZ03v- -Xm9tYX2oUOhGqtAa7VvPO_myRwst9COVWzxW0FciYETtAUhLItPwbzlu2Qh-0HCJ2p5Lz_d8rOYKmsoEN5iQo6CvxPxqfqB6CnL341TzP6Q4fD6NyOZJXUxogNF7r7dRHHExGBPDuecdmSBkgl2HyZdeMHMYulmgmdvXB9X0AdfQ8Y7VPOEOKBd6kLc9Jfnxg_wnh_eAwLjj-3IxWeN5Jg_jdmkRlLgexiuIjle2mzQfreATBXm-wKdpq1Ql67ALONp07_Y9dvINPNK5QqDoljc_1TiXRD_bUytef_rvsJu7jkUg2sXPdP7jhTotWN0IKGtKNQlL6RQzHsuMZTd01xlzrRwrxV0565JeYfy7yEXmMBfnrxmI72EU5T1zt3JZZl9wqlZuEG5iEXLRIoP5tSjMTJjZPtcmAvzA51bTThqLzB5BBAoBbogq1bnUTpJsFBwoam8HjzxLtfDYk7ZUWS_uB]--></g></svg>