<?xml version="1.0" encoding="us-ascii" standalone="no"?><svg xmlns="http://www.w3.org/2000/svg" xmlns:xlink="http://www.w3.org/1999/xlink" contentStyleType="text/css" height="325px" preserveAspectRatio="none" style="width:547px;height:325px;background:#FFFFFF;" version="1.1" viewBox="0 0 547 325" width="547px" zoomAndPan="magnify"><defs/><g><text fill="#000000" font-family="sans-serif" font-size="12" font-weight="bold" lengthAdjust="spacing" textLength="81" x="6" y="18.457">Configruration</text><line style="stroke:#AAAAAA;stroke-width:1.0;stroke-dasharray:1.0,2.0;" x1="6" x2="186" y1="26.5938" y2="26.5938"/><text fill="#000000" font-family="sans-serif" font-size="12" lengthAdjust="spacing" textLength="98" x="6" y="43.5508">Application name:</text><text fill="#000000" font-family="sans-serif" font-size="12" lengthAdjust="spacing" textLength="32" x="190" y="43.5508">name</text><line style="stroke:#000000;stroke-width:1.0;" x1="188" x2="463" y1="46.1875" y2="46.1875"/><line style="stroke:#000000;stroke-width:1.0;" x1="188" x2="188" y1="43.1875" y2="45.1875"/><line style="stroke:#000000;stroke-width:1.0;" x1="463" x2="463" y1="43.1875" y2="45.1875"/><text fill="#000000" font-family="sans-serif" font-size="12" lengthAdjust="spacing" textLength="140" x="6" y="62.6445">Description (home page):</text><text fill="#000000" font-family="sans-serif" font-size="12" lengthAdjust="spacing" textLength="61" x="190" y="62.6445">description</text><line style="stroke:#000000;stroke-width:1.0;" x1="188" x2="463" y1="65.2813" y2="65.2813"/><line style="stroke:#000000;stroke-width:1.0;" x1="188" x2="188" y1="62.2813" y2="64.2813"/><line style="stroke:#000000;stroke-width:1.0;" x1="463" x2="463" y1="62.2813" y2="64.2813"/><text fill="#000000" font-family="sans-serif" font-size="12" font-weight="bold" lengthAdjust="spacing" textLength="47" x="6" y="98.832">Options:</text><text fill="#000000" font-family="sans-serif" font-size="12" lengthAdjust="spacing" textLength="179" x="6" y="115.9258">Menu &gt; Logo (max width: 110px):</text><text fill="#000000" font-family="sans-serif" font-size="12" lengthAdjust="spacing" textLength="118" x="190" y="115.9258">link with logo's image</text><line style="stroke:#000000;stroke-width:1.0;" x1="188" x2="463" y1="118.5625" y2="118.5625"/><line style="stroke:#000000;stroke-width:1.0;" x1="188" x2="188" y1="115.5625" y2="117.5625"/><line style="stroke:#000000;stroke-width:1.0;" x1="463" x2="463" y1="115.5625" y2="117.5625"/><path d="M520.41,103.4688 L519,104.8788 L519.72,105.5988 L521.5,107.4088 L519.72,109.1888 L519,109.8788 L520.41,111.3188 L521.13,110.5988 L522.94,108.7888 L524.72,110.5988 L525.41,111.3188 L526.85,109.8788 L526.13,109.1888 L524.32,107.4088 L526.13,105.5988 L526.85,104.8788 L525.41,103.4688 L524.72,104.1888 L522.94,105.9688 L521.13,104.1888 L520.41,103.4688 " fill="#000000" style="stroke:;stroke-width:0.0;stroke-dasharray:;"/><text fill="#000000" font-family="sans-serif" font-size="12" lengthAdjust="spacing" textLength="179" x="6" y="135.0195">Menu &gt; Logo (max width: 400px):</text><text fill="#000000" font-family="sans-serif" font-size="12" lengthAdjust="spacing" textLength="118" x="190" y="135.0195">link with logo's image</text><line style="stroke:#000000;stroke-width:1.0;" x1="188" x2="463" y1="137.6563" y2="137.6563"/><line style="stroke:#000000;stroke-width:1.0;" x1="188" x2="188" y1="134.6563" y2="136.6563"/><line style="stroke:#000000;stroke-width:1.0;" x1="463" x2="463" y1="134.6563" y2="136.6563"/><path d="M520.41,122.5625 L519,123.9725 L519.72,124.6925 L521.5,126.5025 L519.72,128.2825 L519,128.9725 L520.41,130.4125 L521.13,129.6925 L522.94,127.8825 L524.72,129.6925 L525.41,130.4125 L526.85,128.9725 L526.13,128.2825 L524.32,126.5025 L526.13,124.6925 L526.85,123.9725 L525.41,122.5625 L524.72,123.2825 L522.94,125.0625 L521.13,123.2825 L520.41,122.5625 " fill="#000000" style="stroke:;stroke-width:0.0;stroke-dasharray:;"/><text fill="#000000" font-family="sans-serif" font-size="12" lengthAdjust="spacing" textLength="131" x="6" y="154.1133">Home &gt; Partners logos:</text><text fill="#000000" font-family="sans-serif" font-size="12" lengthAdjust="spacing" textLength="169" x="190" y="154.1133">Partner1,Partner2,Partner3,etc.</text><line style="stroke:#000000;stroke-width:1.0;" x1="188" x2="463" y1="156.75" y2="156.75"/><line style="stroke:#000000;stroke-width:1.0;" x1="188" x2="188" y1="153.75" y2="155.75"/><line style="stroke:#000000;stroke-width:1.0;" x1="463" x2="463" y1="153.75" y2="155.75"/><path d="M520.41,141.6563 L519,143.0663 L519.72,143.7863 L521.5,145.5963 L519.72,147.3763 L519,148.0663 L520.41,149.5063 L521.13,148.7863 L522.94,146.9763 L524.72,148.7863 L525.41,149.5063 L526.85,148.0663 L526.13,147.3763 L524.32,145.5963 L526.13,143.7863 L526.85,143.0663 L525.41,141.6563 L524.72,142.3763 L522.94,144.1563 L521.13,142.3763 L520.41,141.6563 " fill="#000000" style="stroke:;stroke-width:0.0;stroke-dasharray:;"/><text fill="#000000" font-family="sans-serif" font-size="12" lengthAdjust="spacing" textLength="116" x="6" y="173.207">Default lat/lon format:</text><text fill="#000000" font-family="sans-serif" font-size="12" lengthAdjust="spacing" textLength="81" x="190" y="173.207">DDMM or other</text><line style="stroke:#000000;stroke-width:1.0;" x1="188" x2="295" y1="175.8438" y2="175.8438"/><line style="stroke:#000000;stroke-width:1.0;" x1="188" x2="188" y1="172.8438" y2="174.8438"/><line style="stroke:#000000;stroke-width:1.0;" x1="295" x2="295" y1="172.8438" y2="174.8438"/><path d="M520.41,160.75 L519,162.16 L519.72,162.88 L521.5,164.69 L519.72,166.47 L519,167.16 L520.41,168.6 L521.13,167.88 L522.94,166.07 L524.72,167.88 L525.41,168.6 L526.85,167.16 L526.13,166.47 L524.32,164.69 L526.13,162.88 L526.85,162.16 L525.41,160.75 L524.72,161.47 L522.94,163.25 L521.13,161.47 L520.41,160.75 " fill="#000000" style="stroke:;stroke-width:0.0;stroke-dasharray:;"/><text fill="#000000" font-family="sans-serif" font-size="12" lengthAdjust="spacing" textLength="104" x="6" y="192.3008">Default Language :</text><text fill="#000000" font-family="sans-serif" font-size="12" lengthAdjust="spacing" textLength="38" x="190" y="192.3008">en or fr</text><line style="stroke:#000000;stroke-width:1.0;" x1="188" x2="255" y1="194.9375" y2="194.9375"/><line style="stroke:#000000;stroke-width:1.0;" x1="188" x2="188" y1="191.9375" y2="193.9375"/><line style="stroke:#000000;stroke-width:1.0;" x1="255" x2="255" y1="191.9375" y2="193.9375"/><path d="M520.41,179.8438 L519,181.2538 L519.72,181.9738 L521.5,183.7838 L519.72,185.5638 L519,186.2538 L520.41,187.6938 L521.13,186.9738 L522.94,185.1638 L524.72,186.9738 L525.41,187.6938 L526.85,186.2538 L526.13,185.5638 L524.32,183.7838 L526.13,181.9738 L526.85,181.2538 L525.41,179.8438 L524.72,180.5638 L522.94,182.3438 L521.13,180.5638 L520.41,179.8438 " fill="#000000" style="stroke:;stroke-width:0.0;stroke-dasharray:;"/><text fill="#000000" font-family="sans-serif" font-size="12" lengthAdjust="spacing" textLength="161" x="6" y="211.3945">Home &gt; Background images:</text><text fill="#000000" font-family="sans-serif" font-size="12" lengthAdjust="spacing" textLength="154" x="190" y="211.3945">image1,image2,image3,etc.</text><line style="stroke:#000000;stroke-width:1.0;" x1="188" x2="463" y1="214.0313" y2="214.0313"/><line style="stroke:#000000;stroke-width:1.0;" x1="188" x2="188" y1="211.0313" y2="213.0313"/><line style="stroke:#000000;stroke-width:1.0;" x1="463" x2="463" y1="211.0313" y2="213.0313"/><path d="M520.41,198.9375 L519,200.3475 L519.72,201.0675 L521.5,202.8775 L519.72,204.6575 L519,205.3475 L520.41,206.7875 L521.13,206.0675 L522.94,204.2575 L524.72,206.0675 L525.41,206.7875 L526.85,205.3475 L526.13,204.6575 L524.32,202.8775 L526.13,201.0675 L526.85,200.3475 L525.41,198.9375 L524.72,199.6575 L522.94,201.4375 L521.13,199.6575 L520.41,198.9375 " fill="#000000" style="stroke:;stroke-width:0.0;stroke-dasharray:;"/><text fill="#000000" font-family="sans-serif" font-size="12" lengthAdjust="spacing" textLength="41" x="6" y="230.4883">favicon:</text><text fill="#000000" font-family="sans-serif" font-size="12" lengthAdjust="spacing" textLength="118" x="190" y="230.4883">link with logo's image</text><line style="stroke:#000000;stroke-width:1.0;" x1="188" x2="463" y1="233.125" y2="233.125"/><line style="stroke:#000000;stroke-width:1.0;" x1="188" x2="188" y1="230.125" y2="232.125"/><line style="stroke:#000000;stroke-width:1.0;" x1="463" x2="463" y1="230.125" y2="232.125"/><path d="M520.41,218.0313 L519,219.4413 L519.72,220.1613 L521.5,221.9713 L519.72,223.7513 L519,224.4413 L520.41,225.8813 L521.13,225.1613 L522.94,223.3513 L524.72,225.1613 L525.41,225.8813 L526.85,224.4413 L526.13,223.7513 L524.32,221.9713 L526.13,220.1613 L526.85,219.4413 L525.41,218.0313 L524.72,218.7513 L522.94,220.5313 L521.13,218.7513 L520.41,218.0313 " fill="#000000" style="stroke:;stroke-width:0.0;stroke-dasharray:;"/><path d="M534,218.0313 L534,221.0313 L531,221.0313 L531,223.0313 L534,223.0313 L534,226.0313 L536,226.0313 L536,223.0313 L539,223.0313 L539,221.0313 L536,221.0313 L536,218.0313 L534,218.0313 " fill="#000000" style="stroke:;stroke-width:0.0;stroke-dasharray:;"/><text fill="#000000" font-family="sans-serif" font-size="12" font-weight="bold" lengthAdjust="spacing" textLength="154" x="6" y="266.6758">Partners logo (home page):</text><line style="stroke:#AAAAAA;stroke-width:1.0;" x1="6" x2="186" y1="291.9063" y2="291.9063"/><line style="stroke:#AAAAAA;stroke-width:1.0;" x1="187" x2="517" y1="291.9063" y2="291.9063"/><rect fill="#EEEEEE" height="19.0938" rx="5" ry="5" style="stroke:#000000;stroke-width:2.5;" width="68" x="190.5" y="299.9063"/><text fill="#000000" font-family="sans-serif" font-size="12" lengthAdjust="spacing" textLength="40" x="204.5" y="314.3633">Fermer</text><rect fill="#EEEEEE" height="19.0938" rx="5" ry="5" style="stroke:#000000;stroke-width:2.5;" width="132" x="265.5" y="299.9063"/><path d="M297,306 C294.8,306 293,307.8 293,310 C293,312.2 294.8,314 297,314 C298.1,314 299.12,313.57 299.84,312.84 L299.12,312.12 C298.58,312.66 297.83,313 296.99,313 C295.33,313 293.99,311.66 293.99,310 C293.99,308.34 295.33,307 296.99,307 C297.82,307 298.54,307.36 299.08,307.91 L297.99,309 L300.99,309 L300.99,306 L299.8,307.19 C299.08,306.47 298.09,306 296.99,306 " fill="#000000" style="stroke:;stroke-width:0.0;stroke-dasharray:;"/><text fill="#000000" font-family="sans-serif" font-size="12" lengthAdjust="spacing" textLength="66" x="305" y="314.3633">R&#233;initialiser</text><rect fill="#EEEEEE" height="19.0938" rx="5" ry="5" style="stroke:#000000;stroke-width:2.5;" width="108" x="404.5" y="299.9063"/><text fill="#000000" font-family="sans-serif" font-size="12" lengthAdjust="spacing" textLength="70" x="423.5" y="314.3633">Sauvegarder</text></g></svg>