<?xml version="1.0" encoding="UTF-8" standalone="no"?><svg xmlns="http://www.w3.org/2000/svg" xmlns:xlink="http://www.w3.org/1999/xlink" contentStyleType="text/css" height="345px" preserveAspectRatio="none" style="width:500px;height:345px;background:#FFFFFF;" version="1.1" viewBox="0 0 500 345" width="500px" zoomAndPan="magnify"><defs/><g><text fill="#000000" font-family="sans-serif" font-size="12" font-weight="bold" lengthAdjust="spacing" textLength="124" x="6" y="18.8281">Menu.configruration</text><line style="stroke:#AAAAAA;stroke-width:1.0;stroke-dasharray:1.0,2.0;" x1="6" x2="190" y1="27.8441" y2="27.8441"/><text fill="#000000" font-family="sans-serif" font-size="12" lengthAdjust="spacing" textLength="100" x="6" y="45.1722">Application name:</text><text fill="#000000" font-family="sans-serif" font-size="12" lengthAdjust="spacing" textLength="32" x="194" y="45.1722">name</text><line style="stroke:#000000;stroke-width:1.0;" x1="192" x2="467" y1="48.6882" y2="48.6882"/><line style="stroke:#000000;stroke-width:1.0;" x1="192" x2="192" y1="45.6882" y2="47.6882"/><line style="stroke:#000000;stroke-width:1.0;" x1="467" x2="467" y1="45.6882" y2="47.6882"/><text fill="#000000" font-family="sans-serif" font-size="12" lengthAdjust="spacing" textLength="141" x="6" y="65.5163">Description (home page):</text><text fill="#000000" font-family="sans-serif" font-size="12" lengthAdjust="spacing" textLength="62" x="194" y="65.5163">description</text><line style="stroke:#000000;stroke-width:1.0;" x1="192" x2="467" y1="69.0323" y2="69.0323"/><line style="stroke:#000000;stroke-width:1.0;" x1="192" x2="192" y1="66.0323" y2="68.0323"/><line style="stroke:#000000;stroke-width:1.0;" x1="467" x2="467" y1="66.0323" y2="68.0323"/><text fill="#000000" font-family="sans-serif" font-size="12" font-weight="bold" lengthAdjust="spacing" textLength="51" x="6" y="104.2045">Options:</text><text fill="#000000" font-family="sans-serif" font-size="12" lengthAdjust="spacing" textLength="183" x="6" y="122.5487">Menu &gt; Logo (max width: 110px):</text><text fill="#000000" font-family="sans-serif" font-size="12" lengthAdjust="spacing" textLength="119" x="194" y="122.5487">link with logo's image</text><line style="stroke:#000000;stroke-width:1.0;" x1="192" x2="467" y1="126.0647" y2="126.0647"/><line style="stroke:#000000;stroke-width:1.0;" x1="192" x2="192" y1="123.0647" y2="125.0647"/><line style="stroke:#000000;stroke-width:1.0;" x1="467" x2="467" y1="123.0647" y2="125.0647"/><path d="M473.41,109.7206 L472,111.1306 L472.72,111.8506 L474.5,113.6606 L472.72,115.4406 L472,116.1306 L473.41,117.5706 L474.13,116.8506 L475.94,115.0406 L477.72,116.8506 L478.41,117.5706 L479.85,116.1306 L479.13,115.4406 L477.32,113.6606 L479.13,111.8506 L479.85,111.1306 L478.41,109.7206 L477.72,110.4406 L475.94,112.2206 L474.13,110.4406 L473.41,109.7206 " fill="#000000" style="stroke:;stroke-width:0.0;stroke-dasharray:;"/><text fill="#000000" font-family="sans-serif" font-size="12" lengthAdjust="spacing" textLength="183" x="6" y="142.8928">Menu &gt; Logo (max width: 400px):</text><text fill="#000000" font-family="sans-serif" font-size="12" lengthAdjust="spacing" textLength="119" x="194" y="142.8928">link with logo's image</text><line style="stroke:#000000;stroke-width:1.0;" x1="192" x2="467" y1="146.4088" y2="146.4088"/><line style="stroke:#000000;stroke-width:1.0;" x1="192" x2="192" y1="143.4088" y2="145.4088"/><line style="stroke:#000000;stroke-width:1.0;" x1="467" x2="467" y1="143.4088" y2="145.4088"/><path d="M473.41,130.0647 L472,131.4747 L472.72,132.1947 L474.5,134.0047 L472.72,135.7847 L472,136.4747 L473.41,137.9147 L474.13,137.1947 L475.94,135.3847 L477.72,137.1947 L478.41,137.9147 L479.85,136.4747 L479.13,135.7847 L477.32,134.0047 L479.13,132.1947 L479.85,131.4747 L478.41,130.0647 L477.72,130.7847 L475.94,132.5647 L474.13,130.7847 L473.41,130.0647 " fill="#000000" style="stroke:;stroke-width:0.0;stroke-dasharray:;"/><text fill="#000000" font-family="sans-serif" font-size="12" lengthAdjust="spacing" textLength="131" x="6" y="163.2369">Home &gt; Partners logos:</text><text fill="#000000" font-family="sans-serif" font-size="12" lengthAdjust="spacing" textLength="176" x="194" y="163.2369">Partner1,Partner2,Partner3,etc.</text><line style="stroke:#000000;stroke-width:1.0;" x1="192" x2="467" y1="166.7529" y2="166.7529"/><line style="stroke:#000000;stroke-width:1.0;" x1="192" x2="192" y1="163.7529" y2="165.7529"/><line style="stroke:#000000;stroke-width:1.0;" x1="467" x2="467" y1="163.7529" y2="165.7529"/><path d="M473.41,150.4088 L472,151.8188 L472.72,152.5388 L474.5,154.3488 L472.72,156.1288 L472,156.8188 L473.41,158.2588 L474.13,157.5388 L475.94,155.7288 L477.72,157.5388 L478.41,158.2588 L479.85,156.8188 L479.13,156.1288 L477.32,154.3488 L479.13,152.5388 L479.85,151.8188 L478.41,150.4088 L477.72,151.1288 L475.94,152.9088 L474.13,151.1288 L473.41,150.4088 " fill="#000000" style="stroke:;stroke-width:0.0;stroke-dasharray:;"/><text fill="#000000" font-family="sans-serif" font-size="12" lengthAdjust="spacing" textLength="123" x="6" y="183.581">Default lat/lon format:</text><text fill="#000000" font-family="sans-serif" font-size="12" lengthAdjust="spacing" textLength="88" x="194" y="183.581">DDMM or other</text><line style="stroke:#000000;stroke-width:1.0;" x1="192" x2="299" y1="187.097" y2="187.097"/><line style="stroke:#000000;stroke-width:1.0;" x1="192" x2="192" y1="184.097" y2="186.097"/><line style="stroke:#000000;stroke-width:1.0;" x1="299" x2="299" y1="184.097" y2="186.097"/><path d="M473.41,170.7529 L472,172.1629 L472.72,172.8829 L474.5,174.6929 L472.72,176.4729 L472,177.1629 L473.41,178.6029 L474.13,177.8829 L475.94,176.0729 L477.72,177.8829 L478.41,178.6029 L479.85,177.1629 L479.13,176.4729 L477.32,174.6929 L479.13,172.8829 L479.85,172.1629 L478.41,170.7529 L477.72,171.4729 L475.94,173.2529 L474.13,171.4729 L473.41,170.7529 " fill="#000000" style="stroke:;stroke-width:0.0;stroke-dasharray:;"/><text fill="#000000" font-family="sans-serif" font-size="12" lengthAdjust="spacing" textLength="105" x="6" y="203.9251">Default Language :</text><text fill="#000000" font-family="sans-serif" font-size="12" lengthAdjust="spacing" textLength="41" x="194" y="203.9251">en or fr</text><line style="stroke:#000000;stroke-width:1.0;" x1="192" x2="259" y1="207.4411" y2="207.4411"/><line style="stroke:#000000;stroke-width:1.0;" x1="192" x2="192" y1="204.4411" y2="206.4411"/><line style="stroke:#000000;stroke-width:1.0;" x1="259" x2="259" y1="204.4411" y2="206.4411"/><path d="M473.41,191.097 L472,192.507 L472.72,193.227 L474.5,195.037 L472.72,196.817 L472,197.507 L473.41,198.947 L474.13,198.227 L475.94,196.417 L477.72,198.227 L478.41,198.947 L479.85,197.507 L479.13,196.817 L477.32,195.037 L479.13,193.227 L479.85,192.507 L478.41,191.097 L477.72,191.817 L475.94,193.597 L474.13,191.817 L473.41,191.097 " fill="#000000" style="stroke:;stroke-width:0.0;stroke-dasharray:;"/><text fill="#000000" font-family="sans-serif" font-size="12" lengthAdjust="spacing" textLength="161" x="6" y="224.2692">Home &gt; Background images:</text><text fill="#000000" font-family="sans-serif" font-size="12" lengthAdjust="spacing" textLength="155" x="194" y="224.2692">image1,image2,image3,etc.</text><line style="stroke:#000000;stroke-width:1.0;" x1="192" x2="467" y1="227.7853" y2="227.7853"/><line style="stroke:#000000;stroke-width:1.0;" x1="192" x2="192" y1="224.7853" y2="226.7853"/><line style="stroke:#000000;stroke-width:1.0;" x1="467" x2="467" y1="224.7853" y2="226.7853"/><path d="M473.41,211.4411 L472,212.8511 L472.72,213.5711 L474.5,215.3811 L472.72,217.1611 L472,217.8511 L473.41,219.2911 L474.13,218.5711 L475.94,216.7611 L477.72,218.5711 L478.41,219.2911 L479.85,217.8511 L479.13,217.1611 L477.32,215.3811 L479.13,213.5711 L479.85,212.8511 L478.41,211.4411 L477.72,212.1611 L475.94,213.9411 L474.13,212.1611 L473.41,211.4411 " fill="#000000" style="stroke:;stroke-width:0.0;stroke-dasharray:;"/><text fill="#000000" font-family="sans-serif" font-size="12" lengthAdjust="spacing" textLength="43" x="6" y="244.6133">favicon:</text><text fill="#000000" font-family="sans-serif" font-size="12" lengthAdjust="spacing" textLength="119" x="194" y="244.6133">link with logo's image</text><line style="stroke:#000000;stroke-width:1.0;" x1="192" x2="467" y1="248.1294" y2="248.1294"/><line style="stroke:#000000;stroke-width:1.0;" x1="192" x2="192" y1="245.1294" y2="247.1294"/><line style="stroke:#000000;stroke-width:1.0;" x1="467" x2="467" y1="245.1294" y2="247.1294"/><path d="M473.41,231.7853 L472,233.1953 L472.72,233.9153 L474.5,235.7253 L472.72,237.5053 L472,238.1953 L473.41,239.6353 L474.13,238.9153 L475.94,237.1053 L477.72,238.9153 L478.41,239.6353 L479.85,238.1953 L479.13,237.5053 L477.32,235.7253 L479.13,233.9153 L479.85,233.1953 L478.41,231.7853 L477.72,232.5053 L475.94,234.2853 L474.13,232.5053 L473.41,231.7853 " fill="#000000" style="stroke:;stroke-width:0.0;stroke-dasharray:;"/><path d="M487,231.7853 L487,234.7853 L484,234.7853 L484,236.7853 L487,236.7853 L487,239.7853 L489,239.7853 L489,236.7853 L492,236.7853 L492,234.7853 L489,234.7853 L489,231.7853 L487,231.7853 " fill="#000000" style="stroke:;stroke-width:0.0;stroke-dasharray:;"/><text fill="#000000" font-family="sans-serif" font-size="12" font-weight="bold" lengthAdjust="spacing" textLength="161" x="6" y="283.3016">Partners logo (home page):</text><line style="stroke:#AAAAAA;stroke-width:1.0;" x1="6" x2="190" y1="310.6617" y2="310.6617"/><line style="stroke:#AAAAAA;stroke-width:1.0;" x1="191" x2="470" y1="310.6617" y2="310.6617"/><path d="M197,321.5058 C194.8,321.5058 193,323.3058 193,325.5058 C193,327.7058 194.8,329.5058 197,329.5058 C198.1,329.5058 199.12,329.0758 199.84,328.3458 L199.12,327.6258 C198.58,328.1658 197.83,328.5058 196.99,328.5058 C195.33,328.5058 193.99,327.1658 193.99,325.5058 C193.99,323.8458 195.33,322.5058 196.99,322.5058 C197.82,322.5058 198.54,322.8658 199.08,323.4158 L197.99,324.5058 L200.99,324.5058 L200.99,321.5058 L199.8,322.6958 C199.08,321.9758 198.09,321.5058 196.99,321.5058 " fill="#000000" style="stroke:;stroke-width:0.0;stroke-dasharray:;"/><text fill="#000000" font-family="sans-serif" font-size="12" lengthAdjust="spacing" textLength="52" x="205" y="328.9898">[Annuler]</text><rect fill="#EEEEEE" height="20.3441" rx="5" ry="5" style="stroke:#000000;stroke-width:2.5;" width="116" x="261.5" y="318.6617"/><path d="M284.41,326.0058 L283.72,326.7258 L280.94,329.5058 L280.13,328.7258 L279.41,328.0058 L278,329.4158 L278.72,330.1358 L280.22,331.6358 L280.91,332.3558 L281.63,331.6358 L285.13,328.1358 L285.85,327.4158 L284.41,326.0058 " fill="#000000" style="stroke:;stroke-width:0.0;stroke-dasharray:;"/><text fill="#000000" font-family="sans-serif" font-size="12" lengthAdjust="spacing" textLength="72" x="290" y="333.4898">Sauvegarder</text></g></svg>