<?xml version="1.0" encoding="UTF-8" standalone="no"?><svg xmlns="http://www.w3.org/2000/svg" xmlns:xlink="http://www.w3.org/1999/xlink" contentScriptType="application/ecmascript" contentStyleType="text/css" height="307px" preserveAspectRatio="none" style="width:524px;height:307px;" version="1.1" viewBox="0 0 524 307" width="524px" zoomAndPan="magnify"><defs/><g><text fill="#000000" font-family="sans-serif" font-size="12" font-weight="bold" lengthAdjust="spacingAndGlyphs" textLength="145" x="6" y="17.1387">Menu.configruration</text><line style="stroke: #AAAAAA; stroke-width: 1.0; stroke-dasharray: 1.0,2.0;" x1="6" x2="215" y1="25.4688" y2="25.4688"/><text fill="#000000" font-family="sans-serif" font-size="12" lengthAdjust="spacingAndGlyphs" textLength="112" x="6" y="41.1074">Application name:</text><text fill="#000000" font-family="sans-serif" font-size="12" lengthAdjust="spacingAndGlyphs" textLength="35" x="219" y="41.1074">name</text><line style="stroke: #000000; stroke-width: 1.0;" x1="217" x2="492" y1="43.9375" y2="43.9375"/><line style="stroke: #000000; stroke-width: 1.0;" x1="217" x2="217" y1="40.9375" y2="42.9375"/><line style="stroke: #000000; stroke-width: 1.0;" x1="492" x2="492" y1="40.9375" y2="42.9375"/><text fill="#000000" font-family="sans-serif" font-size="12" lengthAdjust="spacingAndGlyphs" textLength="160" x="6" y="59.0762">Description (home page):</text><text fill="#000000" font-family="sans-serif" font-size="12" lengthAdjust="spacingAndGlyphs" textLength="70" x="219" y="59.0762">description</text><line style="stroke: #000000; stroke-width: 1.0;" x1="217" x2="492" y1="61.9063" y2="61.9063"/><line style="stroke: #000000; stroke-width: 1.0;" x1="217" x2="217" y1="58.9063" y2="60.9063"/><line style="stroke: #000000; stroke-width: 1.0;" x1="492" x2="492" y1="58.9063" y2="60.9063"/><text fill="#000000" font-family="sans-serif" font-size="12" font-weight="bold" lengthAdjust="spacingAndGlyphs" textLength="61" x="6" y="93.0137">Options:</text><text fill="#000000" font-family="sans-serif" font-size="12" lengthAdjust="spacingAndGlyphs" textLength="208" x="6" y="108.9824">Menu &gt; Logo (max width: 110px):</text><text fill="#000000" font-family="sans-serif" font-size="12" lengthAdjust="spacingAndGlyphs" textLength="133" x="219" y="108.9824">link with logo's image</text><line style="stroke: #000000; stroke-width: 1.0;" x1="217" x2="492" y1="111.8125" y2="111.8125"/><line style="stroke: #000000; stroke-width: 1.0;" x1="217" x2="217" y1="108.8125" y2="110.8125"/><line style="stroke: #000000; stroke-width: 1.0;" x1="492" x2="492" y1="108.8125" y2="110.8125"/><path d="M498.406,97.8438 L497,99.2498 L497.688,99.9688 L499.469,101.7498 L497.688,103.5308 L497,104.2498 L498.406,105.6558 L499.125,104.9678 L500.906,103.1868 L502.687,104.9678 L503.406,105.6558 L504.812,104.2498 L504.124,103.5308 L502.343,101.7498 L504.124,99.9688 L504.812,99.2498 L503.406,97.8438 L502.687,98.5318 L500.906,100.3128 L499.125,98.5318 L498.406,97.8438 " fill="#000000" style="stroke: ; stroke-width: 0.0; stroke-dasharray: ;"/><text fill="#000000" font-family="sans-serif" font-size="12" lengthAdjust="spacingAndGlyphs" textLength="208" x="6" y="126.9512">Menu &gt; Logo (max width: 400px):</text><text fill="#000000" font-family="sans-serif" font-size="12" lengthAdjust="spacingAndGlyphs" textLength="133" x="219" y="126.9512">link with logo's image</text><line style="stroke: #000000; stroke-width: 1.0;" x1="217" x2="492" y1="129.7813" y2="129.7813"/><line style="stroke: #000000; stroke-width: 1.0;" x1="217" x2="217" y1="126.7813" y2="128.7813"/><line style="stroke: #000000; stroke-width: 1.0;" x1="492" x2="492" y1="126.7813" y2="128.7813"/><path d="M498.406,115.8125 L497,117.2185 L497.688,117.9375 L499.469,119.7185 L497.688,121.4995 L497,122.2185 L498.406,123.6245 L499.125,122.9365 L500.906,121.1555 L502.687,122.9365 L503.406,123.6245 L504.812,122.2185 L504.124,121.4995 L502.343,119.7185 L504.124,117.9375 L504.812,117.2185 L503.406,115.8125 L502.687,116.5005 L500.906,118.2815 L499.125,116.5005 L498.406,115.8125 " fill="#000000" style="stroke: ; stroke-width: 0.0; stroke-dasharray: ;"/><text fill="#000000" font-family="sans-serif" font-size="12" lengthAdjust="spacingAndGlyphs" textLength="150" x="6" y="144.9199">Home &gt; Partners logos:</text><text fill="#000000" font-family="sans-serif" font-size="12" lengthAdjust="spacingAndGlyphs" textLength="201" x="219" y="144.9199">Partner1,Partner2,Partner3,etc.</text><line style="stroke: #000000; stroke-width: 1.0;" x1="217" x2="492" y1="147.75" y2="147.75"/><line style="stroke: #000000; stroke-width: 1.0;" x1="217" x2="217" y1="144.75" y2="146.75"/><line style="stroke: #000000; stroke-width: 1.0;" x1="492" x2="492" y1="144.75" y2="146.75"/><path d="M498.406,133.7813 L497,135.1873 L497.688,135.9063 L499.469,137.6873 L497.688,139.4683 L497,140.1873 L498.406,141.5933 L499.125,140.9053 L500.906,139.1243 L502.687,140.9053 L503.406,141.5933 L504.812,140.1873 L504.124,139.4683 L502.343,137.6873 L504.124,135.9063 L504.812,135.1873 L503.406,133.7813 L502.687,134.4693 L500.906,136.2503 L499.125,134.4693 L498.406,133.7813 " fill="#000000" style="stroke: ; stroke-width: 0.0; stroke-dasharray: ;"/><text fill="#000000" font-family="sans-serif" font-size="12" lengthAdjust="spacingAndGlyphs" textLength="137" x="6" y="162.8887">Default lat/lon format:</text><text fill="#000000" font-family="sans-serif" font-size="12" lengthAdjust="spacingAndGlyphs" textLength="93" x="219" y="162.8887">DDMM or other</text><line style="stroke: #000000; stroke-width: 1.0;" x1="217" x2="324" y1="165.7188" y2="165.7188"/><line style="stroke: #000000; stroke-width: 1.0;" x1="217" x2="217" y1="162.7188" y2="164.7188"/><line style="stroke: #000000; stroke-width: 1.0;" x1="324" x2="324" y1="162.7188" y2="164.7188"/><path d="M498.406,151.75 L497,153.156 L497.688,153.875 L499.469,155.656 L497.688,157.437 L497,158.156 L498.406,159.562 L499.125,158.874 L500.906,157.093 L502.687,158.874 L503.406,159.562 L504.812,158.156 L504.124,157.437 L502.343,155.656 L504.124,153.875 L504.812,153.156 L503.406,151.75 L502.687,152.438 L500.906,154.219 L499.125,152.438 L498.406,151.75 " fill="#000000" style="stroke: ; stroke-width: 0.0; stroke-dasharray: ;"/><text fill="#000000" font-family="sans-serif" font-size="12" lengthAdjust="spacingAndGlyphs" textLength="119" x="6" y="180.8574">Default Language :</text><text fill="#000000" font-family="sans-serif" font-size="12" lengthAdjust="spacingAndGlyphs" textLength="46" x="219" y="180.8574">en or fr</text><line style="stroke: #000000; stroke-width: 1.0;" x1="217" x2="284" y1="183.6875" y2="183.6875"/><line style="stroke: #000000; stroke-width: 1.0;" x1="217" x2="217" y1="180.6875" y2="182.6875"/><line style="stroke: #000000; stroke-width: 1.0;" x1="284" x2="284" y1="180.6875" y2="182.6875"/><path d="M498.406,169.7188 L497,171.1248 L497.688,171.8438 L499.469,173.6248 L497.688,175.4058 L497,176.1248 L498.406,177.5308 L499.125,176.8428 L500.906,175.0618 L502.687,176.8428 L503.406,177.5308 L504.812,176.1248 L504.124,175.4058 L502.343,173.6248 L504.124,171.8438 L504.812,171.1248 L503.406,169.7188 L502.687,170.4068 L500.906,172.1878 L499.125,170.4068 L498.406,169.7188 " fill="#000000" style="stroke: ; stroke-width: 0.0; stroke-dasharray: ;"/><text fill="#000000" font-family="sans-serif" font-size="12" lengthAdjust="spacingAndGlyphs" textLength="182" x="6" y="198.8262">Home &gt; Background images:</text><text fill="#000000" font-family="sans-serif" font-size="12" lengthAdjust="spacingAndGlyphs" textLength="174" x="219" y="198.8262">image1,image2,image3,etc.</text><line style="stroke: #000000; stroke-width: 1.0;" x1="217" x2="492" y1="201.6563" y2="201.6563"/><line style="stroke: #000000; stroke-width: 1.0;" x1="217" x2="217" y1="198.6563" y2="200.6563"/><line style="stroke: #000000; stroke-width: 1.0;" x1="492" x2="492" y1="198.6563" y2="200.6563"/><path d="M498.406,187.6875 L497,189.0935 L497.688,189.8125 L499.469,191.5935 L497.688,193.3745 L497,194.0935 L498.406,195.4995 L499.125,194.8115 L500.906,193.0305 L502.687,194.8115 L503.406,195.4995 L504.812,194.0935 L504.124,193.3745 L502.343,191.5935 L504.124,189.8125 L504.812,189.0935 L503.406,187.6875 L502.687,188.3755 L500.906,190.1565 L499.125,188.3755 L498.406,187.6875 " fill="#000000" style="stroke: ; stroke-width: 0.0; stroke-dasharray: ;"/><text fill="#000000" font-family="sans-serif" font-size="12" lengthAdjust="spacingAndGlyphs" textLength="48" x="6" y="216.7949">favicon:</text><text fill="#000000" font-family="sans-serif" font-size="12" lengthAdjust="spacingAndGlyphs" textLength="133" x="219" y="216.7949">link with logo's image</text><line style="stroke: #000000; stroke-width: 1.0;" x1="217" x2="492" y1="219.625" y2="219.625"/><line style="stroke: #000000; stroke-width: 1.0;" x1="217" x2="217" y1="216.625" y2="218.625"/><line style="stroke: #000000; stroke-width: 1.0;" x1="492" x2="492" y1="216.625" y2="218.625"/><path d="M498.406,205.6563 L497,207.0623 L497.688,207.7813 L499.469,209.5623 L497.688,211.3433 L497,212.0623 L498.406,213.4683 L499.125,212.7803 L500.906,210.9993 L502.687,212.7803 L503.406,213.4683 L504.812,212.0623 L504.124,211.3433 L502.343,209.5623 L504.124,207.7813 L504.812,207.0623 L503.406,205.6563 L502.687,206.3443 L500.906,208.1253 L499.125,206.3443 L498.406,205.6563 " fill="#000000" style="stroke: ; stroke-width: 0.0; stroke-dasharray: ;"/><path d="M512,205.6563 L512,208.6563 L509,208.6563 L509,210.6563 L512,210.6563 L512,213.6563 L514,213.6563 L514,210.6563 L517,210.6563 L517,208.6563 L514,208.6563 L514,205.6563 L512,205.6563 " fill="#000000" style="stroke: ; stroke-width: 0.0; stroke-dasharray: ;"/><text fill="#000000" font-family="sans-serif" font-size="12" font-weight="bold" lengthAdjust="spacingAndGlyphs" textLength="195" x="6" y="250.7324">Partners logo (home page):</text><line style="stroke: #AAAAAA; stroke-width: 1.0;" x1="6" x2="215" y1="275.0313" y2="275.0313"/><line style="stroke: #AAAAAA; stroke-width: 1.0;" x1="216" x2="495" y1="275.0313" y2="275.0313"/><path d="M222,283.5 C219.799,283.5 218,285.299 218,287.5 C218,289.701 219.799,291.5 222,291.5 C223.104,291.5 224.092,291.044 224.813,290.312 L224.125,289.624 C223.585,290.172 222.836,290.499 222,290.499 C220.341,290.499 219,289.158 219,287.499 C219,285.84 220.341,284.499 222,284.499 C222.834,284.499 223.545,284.853 224.094,285.405 L223,286.499 L226,286.499 L226,283.499 L224.812,284.687 C224.081,283.967 223.093,283.499 221.999,283.499 " fill="#000000" style="stroke: ; stroke-width: 0.0; stroke-dasharray: ;"/><text fill="#000000" font-family="sans-serif" font-size="12" lengthAdjust="spacingAndGlyphs" textLength="58" x="231" y="291.6699">[Annuler]</text><rect fill="#EEEEEE" height="17.9688" rx="5" ry="5" style="stroke: #000000; stroke-width: 2.5;" width="116" x="293.5" y="283.0313"/><path d="M311.906,289 L311.187,289.688 L308.406,292.469 L307.625,291.688 L306.906,291 L305.5,292.406 L306.188,293.125 L307.688,294.625 L308.407,295.313 L309.126,294.625 L312.626,291.125 L313.314,290.406 L311.908,289 " fill="#000000" style="stroke: ; stroke-width: 0.0; stroke-dasharray: ;"/><text fill="#000000" font-family="sans-serif" font-size="12" lengthAdjust="spacingAndGlyphs" textLength="80" x="318.5" y="296.1699">Sauvegarder</text></g></svg>