<?xml version="1.0" encoding="UTF-8" standalone="no"?><svg xmlns="http://www.w3.org/2000/svg" xmlns:xlink="http://www.w3.org/1999/xlink" contentScriptType="application/ecmascript" contentStyleType="text/css" height="114px" preserveAspectRatio="none" style="width:291px;height:114px;" version="1.1" viewBox="0 0 291 114" width="291px" zoomAndPan="magnify"><defs/><g><text fill="#000000" font-family="sans-serif" font-size="12" font-weight="bold" lengthAdjust="spacingAndGlyphs" textLength="124" x="7" y="18.1387">Parameter.name:</text><rect fill="#EEEEEE" height="16.9688" style="stroke: #000000; stroke-width: 1.0;" width="87" x="133" y="7"/><text fill="#000000" font-family="sans-serif" font-size="12" lengthAdjust="spacingAndGlyphs" textLength="57" x="135" y="20.1387">PMFM list</text><line style="stroke: #000000; stroke-width: 1.0;" x1="209" x2="209" y1="7" y2="23.9688"/><polygon fill="#000000" points="212,13,218,13,215,18.9688" style="stroke: #000000; stroke-width: 1.0;"/><path d="M256,6 L256,9 L253,9 L253,11 L256,11 L256,14 L258,14 L258,11 L261,11 L261,9 L258,9 L258,6 L256,6 " fill="#000000" style="stroke: ; stroke-width: 0.0; stroke-dasharray: ;"/><path d="M269,6 C266.799,6 265,7.799 265,10 C265,12.201 266.799,14 269,14 C270.104,14 271.092,13.544 271.813,12.812 L271.125,12.124 C270.585,12.672 269.836,12.999 269,12.999 C267.341,12.999 266,11.658 266,9.999 C266,8.34 267.341,6.999 269,6.999 C269.834,6.999 270.545,7.353 271.094,7.905 L270,8.999 L273,8.999 L273,5.999 L271.812,7.187 C271.081,6.467 270.093,5.999 268.999,5.999 " fill="#000000" style="stroke: ; stroke-width: 0.0; stroke-dasharray: ;"/><path d="M280.5,6 C278.573,6 277,7.573 277,9.5 C277,11.427 278.573,13 280.5,13 C281.092,13 281.666,12.855 282.156,12.594 A1,1 0 0 0 282.281,12.719 L283.281,13.719 A1.016,1.016 0 1 0 284.719,12.281 L283.719,11.281 A1,1 0 0 0 283.563,11.156 C283.829,10.663 284.001,10.097 284.001,9.5 C284.001,7.573 282.428,6 280.501,6 M280.501,7 C281.888,7 283.001,8.113 283.001,9.5 C283.001,10.161 282.76,10.773 282.345,11.219 L282.314,11.25 A1,1 0 0 0 282.189,11.375 C281.747,11.772 281.146,12 280.501,12 C279.114,12 278.001,10.887 278.001,9.5 C278.001,8.113 279.114,7 280.501,7 " fill="#000000" style="stroke: ; stroke-width: 0.0; stroke-dasharray: ;"/><text fill="#000000" font-family="sans-serif" font-size="12" font-weight="bold" lengthAdjust="spacingAndGlyphs" textLength="118" x="7" y="56.0762">Qualitative_label</text><text fill="#000000" font-family="sans-serif" font-size="12" font-weight="bold" lengthAdjust="spacingAndGlyphs" textLength="122" x="127" y="56.0762">Qualitative_name</text><text fill="#000000" font-family="sans-serif" font-size="12" lengthAdjust="spacingAndGlyphs" textLength="45" x="7" y="72.0449">value 1</text><text fill="#000000" font-family="sans-serif" font-size="12" lengthAdjust="spacingAndGlyphs" textLength="45" x="127" y="72.0449">value 1</text><text fill="#000000" font-family="sans-serif" font-size="12" lengthAdjust="spacingAndGlyphs" textLength="45" x="7" y="88.0137">value 2</text><text fill="#000000" font-family="sans-serif" font-size="12" lengthAdjust="spacingAndGlyphs" textLength="45" x="127" y="88.0137">value 2</text><text fill="#000000" font-family="sans-serif" font-size="12" lengthAdjust="spacingAndGlyphs" textLength="45" x="7" y="103.9824">value 3</text><text fill="#000000" font-family="sans-serif" font-size="12" lengthAdjust="spacingAndGlyphs" textLength="45" x="127" y="103.9824">value 3</text><line style="stroke: #000000; stroke-width: 1.0;" x1="6" x2="126" y1="43.9375" y2="43.9375"/><line style="stroke: #000000; stroke-width: 1.0;" x1="126" x2="250" y1="59.9063" y2="59.9063"/><line style="stroke: #000000; stroke-width: 1.0;" x1="126" x2="250" y1="43.9375" y2="43.9375"/><line style="stroke: #000000; stroke-width: 1.0;" x1="6" x2="126" y1="107.8125" y2="107.8125"/><line style="stroke: #000000; stroke-width: 1.0;" x1="126" x2="250" y1="107.8125" y2="107.8125"/><line style="stroke: #000000; stroke-width: 1.0;" x1="6" x2="126" y1="91.8438" y2="91.8438"/><line style="stroke: #000000; stroke-width: 1.0;" x1="6" x2="126" y1="75.875" y2="75.875"/><line style="stroke: #000000; stroke-width: 1.0;" x1="126" x2="250" y1="91.8438" y2="91.8438"/><line style="stroke: #000000; stroke-width: 1.0;" x1="6" x2="126" y1="59.9063" y2="59.9063"/><line style="stroke: #000000; stroke-width: 1.0;" x1="126" x2="250" y1="75.875" y2="75.875"/><line style="stroke: #000000; stroke-width: 1.0;" x1="6" x2="6" y1="43.9375" y2="59.9063"/><line style="stroke: #000000; stroke-width: 1.0;" x1="250" x2="250" y1="75.875" y2="91.8438"/><line style="stroke: #000000; stroke-width: 1.0;" x1="126" x2="126" y1="59.9063" y2="75.875"/><line style="stroke: #000000; stroke-width: 1.0;" x1="250" x2="250" y1="59.9063" y2="75.875"/><line style="stroke: #000000; stroke-width: 1.0;" x1="126" x2="126" y1="43.9375" y2="59.9063"/><line style="stroke: #000000; stroke-width: 1.0;" x1="250" x2="250" y1="43.9375" y2="59.9063"/><line style="stroke: #000000; stroke-width: 1.0;" x1="6" x2="6" y1="91.8438" y2="107.8125"/><line style="stroke: #000000; stroke-width: 1.0;" x1="6" x2="6" y1="75.875" y2="91.8438"/><line style="stroke: #000000; stroke-width: 1.0;" x1="126" x2="126" y1="91.8438" y2="107.8125"/><line style="stroke: #000000; stroke-width: 1.0;" x1="6" x2="6" y1="59.9063" y2="75.875"/><line style="stroke: #000000; stroke-width: 1.0;" x1="250" x2="250" y1="91.8438" y2="107.8125"/><line style="stroke: #000000; stroke-width: 1.0;" x1="126" x2="126" y1="75.875" y2="91.8438"/></g></svg>