<?xml version="1.0" encoding="us-ascii" standalone="no"?><svg xmlns="http://www.w3.org/2000/svg" xmlns:xlink="http://www.w3.org/1999/xlink" contentStyleType="text/css" height="108px" preserveAspectRatio="none" style="width:468px;height:108px;background:#FFFFFF;" version="1.1" viewBox="0 0 468 108" width="468px" zoomAndPan="magnify"><defs/><g><path d="M10,8.9688 L10,11.9688 L7,11.9688 L7,13.9688 L10,13.9688 L10,16.9688 L12,16.9688 L12,13.9688 L15,13.9688 L15,11.9688 L12,11.9688 L12,8.9688 L10,8.9688 " fill="#000000" style="stroke:;stroke-width:0.0;stroke-dasharray:;"/><text fill="#000000" font-family="sans-serif" font-size="12" lengthAdjust="spacing" textLength="4" x="16" y="17.1387">&#160;</text><path d="M25,8.9688 C22.8,8.9688 21,10.7688 21,12.9688 C21,15.1688 22.8,16.9688 25,16.9688 C26.1,16.9688 27.12,16.5388 27.84,15.8088 L27.12,15.0888 C26.58,15.6288 25.83,15.9688 24.99,15.9688 C23.33,15.9688 21.99,14.6288 21.99,12.9688 C21.99,11.3088 23.33,9.9688 24.99,9.9688 C25.82,9.9688 26.54,10.3288 27.08,10.8788 L25.99,11.9688 L28.99,11.9688 L28.99,8.9688 L27.8,10.1588 C27.08,9.4388 26.09,8.9688 24.99,8.9688 " fill="#000000" style="stroke:;stroke-width:0.0;stroke-dasharray:;"/><text fill="#000000" font-family="sans-serif" font-size="12" lengthAdjust="spacing" textLength="4" x="30" y="17.1387">&#160;</text><path d="M38.5,8.9688 C36.57,8.9688 35,10.5388 35,12.4688 C35,14.3988 36.57,15.9688 38.5,15.9688 C39.09,15.9688 39.67,15.8288 40.16,15.5588 A1,1 0 0 0 40.29,15.6887 L41.29,16.6888 A1.02,1.02 0 1 0 42.73,15.2488 L41.73,14.2488 A1,1 0 0 0 41.57,14.1188 C41.84,13.6288 42.01,13.0588 42.01,12.4588 C42.01,10.5288 40.44,8.9588 38.51,8.9588 M38.5,9.9688 C39.89,9.9688 41,11.0788 41,12.4688 C41,13.1288 40.76,13.7388 40.34,14.1887 C40.33,14.1988 40.32,14.2088 40.31,14.2188 A1,1 0 0 0 40.18,14.3487 C39.74,14.7488 39.14,14.9788 38.49,14.9788 C37.1,14.9788 35.99,13.8688 35.99,12.4788 C35.99,11.0888 37.1,9.9788 38.49,9.9788 " fill="#000000" style="stroke:;stroke-width:0.0;stroke-dasharray:;"/><path d="M12,41.9063 C10.9,41.9063 10,43.0263 10,44.4063 C10,45.7863 10.9,46.9063 12,46.9063 C13.1,46.9063 14,45.7863 14,44.4063 C14,43.0263 13.1,41.9063 12,41.9063 M9.91,46.9063 C8.85,46.9563 8,47.8263 8,48.9063 L8,49.9063 L16,49.9063 L16,48.9063 C16,47.8263 15.16,46.9563 14.09,46.9063 C13.55,47.5163 12.81,47.9063 12,47.9063 C11.19,47.9063 10.45,47.5163 9.91,46.9063 " fill="#000000" style="stroke:;stroke-width:0.0;stroke-dasharray:;"/><text fill="#000000" font-family="sans-serif" font-size="12" lengthAdjust="spacing" textLength="27" x="21" y="50.0762">logo</text><text fill="#000000" font-family="sans-serif" font-size="12" font-weight="bold" lengthAdjust="spacing" textLength="31" x="50" y="50.0762">Nom</text><text fill="#000000" font-family="sans-serif" font-size="12" font-weight="bold" lengthAdjust="spacing" textLength="54" x="99" y="50.0762">Pr&#233;nom</text><text fill="#000000" font-family="sans-serif" font-size="12" font-weight="bold" lengthAdjust="spacing" textLength="37" x="176" y="50.0762">Email</text><text fill="#000000" font-family="sans-serif" font-size="12" font-weight="bold" lengthAdjust="spacing" textLength="37" x="223" y="50.0762">Profil</text><text fill="#000000" font-family="sans-serif" font-size="12" font-weight="bold" lengthAdjust="spacing" textLength="29" x="262" y="50.0762">Etat</text><text fill="#000000" font-family="sans-serif" font-size="12" font-weight="bold" lengthAdjust="spacing" textLength="88" x="293" y="50.0762">Cl&#233; oublique</text><text fill="#000000" font-family="sans-serif" font-size="12" font-weight="bold" lengthAdjust="spacing" textLength="77" x="383" y="50.0762">Organisme</text><text fill="#000000" font-family="sans-serif" font-size="12" lengthAdjust="spacing" textLength="39" x="7" y="66.0449">logo 1</text><text fill="#000000" font-family="sans-serif" font-size="12" lengthAdjust="spacing" textLength="47" x="50" y="66.0449">name 1</text><text fill="#000000" font-family="sans-serif" font-size="12" lengthAdjust="spacing" textLength="75" x="99" y="66.0449">first name 1</text><text fill="#000000" font-family="sans-serif" font-size="12" lengthAdjust="spacing" textLength="45" x="176" y="66.0449">Email 1</text><text fill="#000000" font-family="sans-serif" font-size="12" lengthAdjust="spacing" textLength="39" x="7" y="82.0137">logo 2</text><text fill="#000000" font-family="sans-serif" font-size="12" lengthAdjust="spacing" textLength="47" x="50" y="82.0137">name 2</text><text fill="#000000" font-family="sans-serif" font-size="12" lengthAdjust="spacing" textLength="75" x="99" y="82.0137">first name 2</text><text fill="#000000" font-family="sans-serif" font-size="12" lengthAdjust="spacing" textLength="45" x="176" y="82.0137">Email 2</text><text fill="#000000" font-family="sans-serif" font-size="12" lengthAdjust="spacing" textLength="39" x="7" y="97.9824">logo 3</text><text fill="#000000" font-family="sans-serif" font-size="12" lengthAdjust="spacing" textLength="47" x="50" y="97.9824">name 3</text><text fill="#000000" font-family="sans-serif" font-size="12" lengthAdjust="spacing" textLength="75" x="99" y="97.9824">first name 3</text><text fill="#000000" font-family="sans-serif" font-size="12" lengthAdjust="spacing" textLength="45" x="176" y="97.9824">Email 3</text><line style="stroke:#000000;stroke-width:1.0;" x1="6" x2="49" y1="37.9375" y2="37.9375"/><line style="stroke:#000000;stroke-width:1.0;" x1="222" x2="261" y1="101.8125" y2="101.8125"/><line style="stroke:#000000;stroke-width:1.0;" x1="49" x2="98" y1="37.9375" y2="37.9375"/><line style="stroke:#000000;stroke-width:1.0;" x1="261" x2="292" y1="101.8125" y2="101.8125"/><line style="stroke:#000000;stroke-width:1.0;" x1="98" x2="175" y1="37.9375" y2="37.9375"/><line style="stroke:#000000;stroke-width:1.0;" x1="292" x2="382" y1="101.8125" y2="101.8125"/><line style="stroke:#000000;stroke-width:1.0;" x1="175" x2="222" y1="37.9375" y2="37.9375"/><line style="stroke:#000000;stroke-width:1.0;" x1="382" x2="461" y1="101.8125" y2="101.8125"/><line style="stroke:#000000;stroke-width:1.0;" x1="222" x2="261" y1="37.9375" y2="37.9375"/><line style="stroke:#000000;stroke-width:1.0;" x1="261" x2="292" y1="37.9375" y2="37.9375"/><line style="stroke:#000000;stroke-width:1.0;" x1="292" x2="382" y1="37.9375" y2="37.9375"/><line style="stroke:#000000;stroke-width:1.0;" x1="382" x2="461" y1="37.9375" y2="37.9375"/><line style="stroke:#000000;stroke-width:1.0;" x1="6" x2="49" y1="85.8438" y2="85.8438"/><line style="stroke:#000000;stroke-width:1.0;" x1="49" x2="98" y1="85.8438" y2="85.8438"/><line style="stroke:#000000;stroke-width:1.0;" x1="98" x2="175" y1="85.8438" y2="85.8438"/><line style="stroke:#000000;stroke-width:1.0;" x1="175" x2="222" y1="85.8438" y2="85.8438"/><line style="stroke:#000000;stroke-width:1.0;" x1="222" x2="261" y1="85.8438" y2="85.8438"/><line style="stroke:#000000;stroke-width:1.0;" x1="261" x2="292" y1="85.8438" y2="85.8438"/><line style="stroke:#000000;stroke-width:1.0;" x1="292" x2="382" y1="85.8438" y2="85.8438"/><line style="stroke:#000000;stroke-width:1.0;" x1="382" x2="461" y1="85.8438" y2="85.8438"/><line style="stroke:#000000;stroke-width:1.0;" x1="6" x2="49" y1="69.875" y2="69.875"/><line style="stroke:#000000;stroke-width:1.0;" x1="49" x2="98" y1="69.875" y2="69.875"/><line style="stroke:#000000;stroke-width:1.0;" x1="98" x2="175" y1="69.875" y2="69.875"/><line style="stroke:#000000;stroke-width:1.0;" x1="175" x2="222" y1="69.875" y2="69.875"/><line style="stroke:#000000;stroke-width:1.0;" x1="222" x2="261" y1="69.875" y2="69.875"/><line style="stroke:#000000;stroke-width:1.0;" x1="261" x2="292" y1="69.875" y2="69.875"/><line style="stroke:#000000;stroke-width:1.0;" x1="292" x2="382" y1="69.875" y2="69.875"/><line style="stroke:#000000;stroke-width:1.0;" x1="382" x2="461" y1="69.875" y2="69.875"/><line style="stroke:#000000;stroke-width:1.0;" x1="6" x2="49" y1="53.9063" y2="53.9063"/><line style="stroke:#000000;stroke-width:1.0;" x1="49" x2="98" y1="53.9063" y2="53.9063"/><line style="stroke:#000000;stroke-width:1.0;" x1="98" x2="175" y1="53.9063" y2="53.9063"/><line style="stroke:#000000;stroke-width:1.0;" x1="175" x2="222" y1="53.9063" y2="53.9063"/><line style="stroke:#000000;stroke-width:1.0;" x1="222" x2="261" y1="53.9063" y2="53.9063"/><line style="stroke:#000000;stroke-width:1.0;" x1="261" x2="292" y1="53.9063" y2="53.9063"/><line style="stroke:#000000;stroke-width:1.0;" x1="292" x2="382" y1="53.9063" y2="53.9063"/><line style="stroke:#000000;stroke-width:1.0;" x1="382" x2="461" y1="53.9063" y2="53.9063"/><line style="stroke:#000000;stroke-width:1.0;" x1="6" x2="49" y1="101.8125" y2="101.8125"/><line style="stroke:#000000;stroke-width:1.0;" x1="49" x2="98" y1="101.8125" y2="101.8125"/><line style="stroke:#000000;stroke-width:1.0;" x1="98" x2="175" y1="101.8125" y2="101.8125"/><line style="stroke:#000000;stroke-width:1.0;" x1="175" x2="222" y1="101.8125" y2="101.8125"/><line style="stroke:#000000;stroke-width:1.0;" x1="6" x2="6" y1="37.9375" y2="53.9063"/><line style="stroke:#000000;stroke-width:1.0;" x1="49" x2="49" y1="37.9375" y2="53.9063"/><line style="stroke:#000000;stroke-width:1.0;" x1="98" x2="98" y1="37.9375" y2="53.9063"/><line style="stroke:#000000;stroke-width:1.0;" x1="175" x2="175" y1="37.9375" y2="53.9063"/><line style="stroke:#000000;stroke-width:1.0;" x1="222" x2="222" y1="37.9375" y2="53.9063"/><line style="stroke:#000000;stroke-width:1.0;" x1="261" x2="261" y1="37.9375" y2="53.9063"/><line style="stroke:#000000;stroke-width:1.0;" x1="292" x2="292" y1="37.9375" y2="53.9063"/><line style="stroke:#000000;stroke-width:1.0;" x1="382" x2="382" y1="37.9375" y2="53.9063"/><line style="stroke:#000000;stroke-width:1.0;" x1="461" x2="461" y1="37.9375" y2="53.9063"/><line style="stroke:#000000;stroke-width:1.0;" x1="6" x2="6" y1="85.8438" y2="101.8125"/><line style="stroke:#000000;stroke-width:1.0;" x1="49" x2="49" y1="85.8438" y2="101.8125"/><line style="stroke:#000000;stroke-width:1.0;" x1="98" x2="98" y1="85.8438" y2="101.8125"/><line style="stroke:#000000;stroke-width:1.0;" x1="175" x2="175" y1="85.8438" y2="101.8125"/><line style="stroke:#000000;stroke-width:1.0;" x1="222" x2="222" y1="85.8438" y2="101.8125"/><line style="stroke:#000000;stroke-width:1.0;" x1="261" x2="261" y1="85.8438" y2="101.8125"/><line style="stroke:#000000;stroke-width:1.0;" x1="292" x2="292" y1="85.8438" y2="101.8125"/><line style="stroke:#000000;stroke-width:1.0;" x1="382" x2="382" y1="85.8438" y2="101.8125"/><line style="stroke:#000000;stroke-width:1.0;" x1="461" x2="461" y1="85.8438" y2="101.8125"/><line style="stroke:#000000;stroke-width:1.0;" x1="6" x2="6" y1="69.875" y2="85.8438"/><line style="stroke:#000000;stroke-width:1.0;" x1="49" x2="49" y1="69.875" y2="85.8438"/><line style="stroke:#000000;stroke-width:1.0;" x1="98" x2="98" y1="69.875" y2="85.8438"/><line style="stroke:#000000;stroke-width:1.0;" x1="175" x2="175" y1="69.875" y2="85.8438"/><line style="stroke:#000000;stroke-width:1.0;" x1="222" x2="222" y1="69.875" y2="85.8438"/><line style="stroke:#000000;stroke-width:1.0;" x1="261" x2="261" y1="69.875" y2="85.8438"/><line style="stroke:#000000;stroke-width:1.0;" x1="292" x2="292" y1="69.875" y2="85.8438"/><line style="stroke:#000000;stroke-width:1.0;" x1="382" x2="382" y1="69.875" y2="85.8438"/><line style="stroke:#000000;stroke-width:1.0;" x1="461" x2="461" y1="69.875" y2="85.8438"/><line style="stroke:#000000;stroke-width:1.0;" x1="6" x2="6" y1="53.9063" y2="69.875"/><line style="stroke:#000000;stroke-width:1.0;" x1="49" x2="49" y1="53.9063" y2="69.875"/><line style="stroke:#000000;stroke-width:1.0;" x1="98" x2="98" y1="53.9063" y2="69.875"/><line style="stroke:#000000;stroke-width:1.0;" x1="175" x2="175" y1="53.9063" y2="69.875"/><line style="stroke:#000000;stroke-width:1.0;" x1="222" x2="222" y1="53.9063" y2="69.875"/><line style="stroke:#000000;stroke-width:1.0;" x1="261" x2="261" y1="53.9063" y2="69.875"/><line style="stroke:#000000;stroke-width:1.0;" x1="292" x2="292" y1="53.9063" y2="69.875"/><line style="stroke:#000000;stroke-width:1.0;" x1="382" x2="382" y1="53.9063" y2="69.875"/><line style="stroke:#000000;stroke-width:1.0;" x1="461" x2="461" y1="53.9063" y2="69.875"/></g></svg>