<?xml version="1.0" encoding="us-ascii" standalone="no"?><svg xmlns="http://www.w3.org/2000/svg" xmlns:xlink="http://www.w3.org/1999/xlink" contentStyleType="text/css" height="111px" preserveAspectRatio="none" style="width:281px;height:111px;background:#FFFFFF;" version="1.1" viewBox="0 0 281 111" width="281px" zoomAndPan="magnify"><defs/><g><text fill="#000000" font-family="sans-serif" font-size="12" font-weight="bold" lengthAdjust="spacing" textLength="55" x="6" y="17.1387">Vessels</text><line style="stroke:#AAAAAA;stroke-width:1.0;stroke-dasharray:1.0,2.0;" x1="6" x2="262" y1="25.4688" y2="25.4688"/><rect fill="#EEEEEE" height="12" rx="5" ry="5" style="stroke:#000000;stroke-width:2.5;" width="20" x="9.5" y="33.4688"/><path d="M18.5,35.4688 L18.5,38.4688 L15.5,38.4688 L15.5,40.4688 L18.5,40.4688 L18.5,43.4688 L20.5,43.4688 L20.5,40.4688 L23.5,40.4688 L23.5,38.4688 L20.5,38.4688 L20.5,35.4688 L18.5,35.4688 " fill="#000000" style="stroke:;stroke-width:0.0;stroke-dasharray:;"/><rect fill="#EEEEEE" height="12" rx="5" ry="5" style="stroke:#000000;stroke-width:2.5;" width="20" x="36.5" y="33.4688"/><path d="M46.5,35.4688 C44.3,35.4688 42.5,37.2688 42.5,39.4688 C42.5,41.6688 44.3,43.4688 46.5,43.4688 C47.6,43.4688 48.62,43.0388 49.34,42.3088 L48.62,41.5888 C48.08,42.1288 47.33,42.4688 46.49,42.4688 C44.83,42.4688 43.49,41.1288 43.49,39.4688 C43.49,37.8088 44.83,36.4688 46.49,36.4688 C47.32,36.4688 48.04,36.8288 48.58,37.3788 L47.49,38.4688 L50.49,38.4688 L50.49,35.4688 L49.3,36.6588 C48.58,35.9388 47.59,35.4688 46.49,35.4688 " fill="#000000" style="stroke:;stroke-width:0.0;stroke-dasharray:;"/><rect fill="#EEEEEE" height="12" rx="5" ry="5" style="stroke:#000000;stroke-width:2.5;" width="20" x="63.5" y="33.4688"/><path d="M73,35.4688 C71.07,35.4688 69.5,37.0388 69.5,38.9688 C69.5,40.8988 71.07,42.4688 73,42.4688 C73.59,42.4688 74.17,42.3288 74.66,42.0588 A1,1 0 0 0 74.79,42.1888 L75.79,43.1888 A1.02,1.02 0 1 0 77.23,41.7488 L76.23,40.7488 A1,1 0 0 0 76.07,40.6188 C76.34,40.1288 76.51,39.5588 76.51,38.9588 C76.51,37.0288 74.94,35.4588 73.01,35.4588 M73,36.4688 C74.39,36.4688 75.5,37.5788 75.5,38.9688 C75.5,39.6288 75.26,40.2387 74.84,40.6888 C74.83,40.6988 74.82,40.7088 74.81,40.7188 A1,1 0 0 0 74.68,40.8488 C74.24,41.2488 73.64,41.4788 72.99,41.4788 C71.6,41.4788 70.49,40.3688 70.49,38.9788 C70.49,37.5888 71.6,36.4788 72.99,36.4788 " fill="#000000" style="stroke:;stroke-width:0.0;stroke-dasharray:;"/><text fill="#000000" font-family="sans-serif" font-size="12" lengthAdjust="spacing" textLength="10" x="7" y="63.1074">#</text><text fill="#000000" font-family="sans-serif" font-size="12" font-weight="bold" lengthAdjust="spacing" textLength="45" x="19" y="63.1074">Navire</text><text fill="#000000" font-family="sans-serif" font-size="12" font-weight="bold" lengthAdjust="spacing" textLength="81" x="100" y="63.1074">Date/Heure</text><text fill="#000000" font-family="sans-serif" font-size="12" font-weight="bold" lengthAdjust="spacing" textLength="29" x="214" y="63.1074">Etat</text><text fill="#000000" font-family="sans-serif" font-size="12" lengthAdjust="spacing" textLength="8" x="7" y="79.0762">1</text><text fill="#000000" font-family="sans-serif" font-size="12" lengthAdjust="spacing" textLength="79" x="19" y="79.0762">FRA0001114</text><text fill="#000000" font-family="sans-serif" font-size="12" lengthAdjust="spacing" textLength="112" x="100" y="79.0762">02/15/2019 11:01</text><text fill="#000000" font-family="sans-serif" font-size="12" lengthAdjust="spacing" textLength="46" x="214" y="79.0762">au port</text><text fill="#000000" font-family="sans-serif" font-size="12" lengthAdjust="spacing" textLength="8" x="7" y="95.0449">2</text><text fill="#000000" font-family="sans-serif" font-size="12" lengthAdjust="spacing" textLength="41" x="19" y="95.0449">SZ003</text><text fill="#000000" font-family="sans-serif" font-size="12" lengthAdjust="spacing" textLength="112" x="100" y="95.0449">02/15/2019 15:05</text><text fill="#000000" font-family="sans-serif" font-size="12" lengthAdjust="spacing" textLength="44" x="214" y="95.0449">en mer</text><line style="stroke:#000000;stroke-width:1.0;" x1="6" x2="18" y1="50.9688" y2="50.9688"/><line style="stroke:#000000;stroke-width:1.0;" x1="99" x2="213" y1="82.9063" y2="82.9063"/><line style="stroke:#000000;stroke-width:1.0;" x1="18" x2="99" y1="50.9688" y2="50.9688"/><line style="stroke:#000000;stroke-width:1.0;" x1="213" x2="261" y1="82.9063" y2="82.9063"/><line style="stroke:#000000;stroke-width:1.0;" x1="99" x2="213" y1="50.9688" y2="50.9688"/><line style="stroke:#000000;stroke-width:1.0;" x1="213" x2="261" y1="50.9688" y2="50.9688"/><line style="stroke:#000000;stroke-width:1.0;" x1="6" x2="18" y1="98.875" y2="98.875"/><line style="stroke:#000000;stroke-width:1.0;" x1="18" x2="99" y1="98.875" y2="98.875"/><line style="stroke:#000000;stroke-width:1.0;" x1="99" x2="213" y1="98.875" y2="98.875"/><line style="stroke:#000000;stroke-width:1.0;" x1="6" x2="18" y1="66.9375" y2="66.9375"/><line style="stroke:#000000;stroke-width:1.0;" x1="213" x2="261" y1="98.875" y2="98.875"/><line style="stroke:#000000;stroke-width:1.0;" x1="18" x2="99" y1="66.9375" y2="66.9375"/><line style="stroke:#000000;stroke-width:1.0;" x1="99" x2="213" y1="66.9375" y2="66.9375"/><line style="stroke:#000000;stroke-width:1.0;" x1="213" x2="261" y1="66.9375" y2="66.9375"/><line style="stroke:#000000;stroke-width:1.0;" x1="6" x2="18" y1="82.9063" y2="82.9063"/><line style="stroke:#000000;stroke-width:1.0;" x1="18" x2="99" y1="82.9063" y2="82.9063"/><line style="stroke:#000000;stroke-width:1.0;" x1="6" x2="6" y1="50.9688" y2="66.9375"/><line style="stroke:#000000;stroke-width:1.0;" x1="99" x2="99" y1="82.9063" y2="98.875"/><line style="stroke:#000000;stroke-width:1.0;" x1="18" x2="18" y1="50.9688" y2="66.9375"/><line style="stroke:#000000;stroke-width:1.0;" x1="213" x2="213" y1="82.9063" y2="98.875"/><line style="stroke:#000000;stroke-width:1.0;" x1="261" x2="261" y1="82.9063" y2="98.875"/><line style="stroke:#000000;stroke-width:1.0;" x1="99" x2="99" y1="50.9688" y2="66.9375"/><line style="stroke:#000000;stroke-width:1.0;" x1="213" x2="213" y1="50.9688" y2="66.9375"/><line style="stroke:#000000;stroke-width:1.0;" x1="261" x2="261" y1="50.9688" y2="66.9375"/><line style="stroke:#000000;stroke-width:1.0;" x1="6" x2="6" y1="66.9375" y2="82.9063"/><line style="stroke:#000000;stroke-width:1.0;" x1="18" x2="18" y1="66.9375" y2="82.9063"/><line style="stroke:#000000;stroke-width:1.0;" x1="99" x2="99" y1="66.9375" y2="82.9063"/><line style="stroke:#000000;stroke-width:1.0;" x1="213" x2="213" y1="66.9375" y2="82.9063"/><line style="stroke:#000000;stroke-width:1.0;" x1="261" x2="261" y1="66.9375" y2="82.9063"/><line style="stroke:#000000;stroke-width:1.0;" x1="6" x2="6" y1="82.9063" y2="98.875"/><line style="stroke:#000000;stroke-width:1.0;" x1="18" x2="18" y1="82.9063" y2="98.875"/><line style="stroke:#AAAAAA;stroke-width:1.0;" x1="6" x2="262" y1="104.375" y2="104.375"/><line style="stroke:#AAAAAA;stroke-width:1.0;" x1="263" x2="274" y1="104.375" y2="104.375"/></g></svg>