<?xml version="1.0" encoding="UTF-8" standalone="no"?><svg xmlns="http://www.w3.org/2000/svg" xmlns:xlink="http://www.w3.org/1999/xlink" contentScriptType="application/ecmascript" contentStyleType="text/css" height="728px" preserveAspectRatio="none" style="width:597px;height:728px;" version="1.1" viewBox="0 0 597 728" width="597px" zoomAndPan="magnify"><defs/><g><text fill="#000000" font-family="sans-serif" font-size="12" font-weight="bold" lengthAdjust="spacingAndGlyphs" textLength="312" x="10" y="17.1387">Immat Navire - Lieu - Date fin marée - Métier</text><line style="stroke: #AAAAAA; stroke-width: 1.0; stroke-dasharray: 1.0,2.0;" x1="6" x2="578" y1="25.4688" y2="25.4688"/><text fill="#000000" font-family="sans-serif" font-size="12" lengthAdjust="spacingAndGlyphs" textLength="74" x="8" y="41.1074">General trip</text><line style="stroke: #000000; stroke-width: 1.0;" x1="6" x2="6" y1="29.9688" y2="43.9375"/><line style="stroke: #000000; stroke-width: 1.0;" x1="6" x2="85" y1="29.9688" y2="29.9688"/><line style="stroke: #000000; stroke-width: 1.0;" x1="85" x2="85" y1="29.9688" y2="43.9375"/><line style="stroke: #000000; stroke-width: 1.0;" x1="85" x2="95" y1="43.9375" y2="43.9375"/><text fill="#000000" font-family="sans-serif" font-size="12" lengthAdjust="spacingAndGlyphs" textLength="34" x="97" y="41.1074">Effort</text><line style="stroke: #000000; stroke-width: 1.0;" x1="95" x2="95" y1="29.9688" y2="43.9375"/><line style="stroke: #000000; stroke-width: 1.0;" x1="95" x2="134" y1="29.9688" y2="29.9688"/><line style="stroke: #000000; stroke-width: 1.0;" x1="134" x2="134" y1="29.9688" y2="43.9375"/><line style="stroke: #000000; stroke-width: 1.0;" x1="134" x2="144" y1="43.9375" y2="43.9375"/><text fill="#000000" font-family="sans-serif" font-size="12" lengthAdjust="spacingAndGlyphs" textLength="123" x="146" y="41.1074">Capture débarquée</text><line style="stroke: #000000; stroke-width: 1.0;" x1="144" x2="144" y1="29.9688" y2="43.9375"/><line style="stroke: #000000; stroke-width: 1.0;" x1="144" x2="272" y1="29.9688" y2="29.9688"/><line style="stroke: #000000; stroke-width: 1.0;" x1="272" x2="272" y1="29.9688" y2="43.9375"/><line style="stroke: #000000; stroke-width: 1.0;" x1="272" x2="282" y1="43.9375" y2="43.9375"/><text fill="#000000" font-family="sans-serif" font-size="12" lengthAdjust="spacingAndGlyphs" textLength="37" x="284" y="41.1074">Vente</text><line style="stroke: #000000; stroke-width: 1.0;" x1="282" x2="282" y1="29.9688" y2="43.9375"/><line style="stroke: #000000; stroke-width: 1.0;" x1="282" x2="324" y1="29.9688" y2="29.9688"/><line style="stroke: #000000; stroke-width: 1.0;" x1="324" x2="324" y1="29.9688" y2="43.9375"/><line style="stroke: #000000; stroke-width: 1.0;" x1="324" x2="334" y1="43.9375" y2="43.9375"/><text fill="#000000" font-family="sans-serif" font-size="12" font-weight="bold" lengthAdjust="spacingAndGlyphs" textLength="71" x="336" y="41.1074">Dépenses</text><line style="stroke: #000000; stroke-width: 1.0;" x1="334" x2="334" y1="29.9688" y2="43.9375"/><line style="stroke: #000000; stroke-width: 1.0;" x1="334" x2="410" y1="29.9688" y2="29.9688"/><line style="stroke: #000000; stroke-width: 1.0;" x1="410" x2="410" y1="29.9688" y2="43.9375"/><line style="stroke: #000000; stroke-width: 1.0;" x1="410" x2="420" y1="43.9375" y2="43.9375"/><text fill="#000000" font-family="sans-serif" font-size="12" lengthAdjust="spacingAndGlyphs" textLength="270" x="7" y="74.0449">Estimation des dépenses totales (Devise) :</text><text fill="#000000" font-family="sans-serif" font-size="12" lengthAdjust="spacingAndGlyphs" textLength="0" x="287" y="75.0449"/><line style="stroke: #000000; stroke-width: 1.0;" x1="281" x2="372" y1="77.875" y2="77.875"/><line style="stroke: #000000; stroke-width: 1.0;" x1="281" x2="281" y1="74.875" y2="76.875"/><line style="stroke: #000000; stroke-width: 1.0;" x1="372" x2="372" y1="74.875" y2="76.875"/><line style="stroke: #000000; stroke-width: 1.0;" x1="279" x2="375" y1="62.9063" y2="62.9063"/><line style="stroke: #000000; stroke-width: 1.0;" x1="279" x2="375" y1="80.875" y2="80.875"/><line style="stroke: #000000; stroke-width: 1.0;" x1="279" x2="279" y1="62.9063" y2="80.875"/><line style="stroke: #000000; stroke-width: 1.0;" x1="375" x2="375" y1="62.9063" y2="80.875"/><text fill="#000000" font-family="sans-serif" font-size="12" lengthAdjust="spacingAndGlyphs" textLength="110" x="378" y="75.0449">Coût total calculé</text><text fill="#0000FF" font-family="sans-serif" font-size="12" lengthAdjust="spacingAndGlyphs" textLength="36" x="495" y="76.0449">354.0</text><text fill="#000000" font-family="sans-serif" font-size="12" lengthAdjust="spacingAndGlyphs" textLength="41" x="534" y="75.0449">Devise</text><line style="stroke: #AAAAAA; stroke-width: 1.0;" x1="6" x2="578" y1="87.375" y2="87.375"/><line style="stroke: #AAAAAA; stroke-width: 1.0;" x1="579" x2="590" y1="87.375" y2="87.375"/><text fill="#000000" font-family="sans-serif" font-size="12" font-weight="bold" lengthAdjust="spacingAndGlyphs" textLength="146" x="6" y="103.0137">Détail des dépenses</text><line style="stroke: #AAAAAA; stroke-width: 1.0; stroke-dasharray: 1.0,2.0;" x1="6" x2="578" y1="111.3438" y2="111.3438"/><text fill="#000000" font-family="sans-serif" font-size="12" font-weight="bold" lengthAdjust="spacingAndGlyphs" textLength="189" x="9" y="143.9512">Fluides de fonctionnement</text><line style="stroke: #000000; stroke-width: 1.0;" x1="7" x2="7" y1="132.8125" y2="146.7813"/><line style="stroke: #000000; stroke-width: 1.0;" x1="7" x2="201" y1="132.8125" y2="132.8125"/><line style="stroke: #000000; stroke-width: 1.0;" x1="201" x2="201" y1="132.8125" y2="146.7813"/><line style="stroke: #000000; stroke-width: 1.0;" x1="201" x2="211" y1="146.7813" y2="146.7813"/><text fill="#000000" font-family="sans-serif" font-size="12" lengthAdjust="spacingAndGlyphs" textLength="87" x="213" y="143.9512">Frais annexes</text><line style="stroke: #000000; stroke-width: 1.0;" x1="211" x2="211" y1="132.8125" y2="146.7813"/><line style="stroke: #000000; stroke-width: 1.0;" x1="211" x2="303" y1="132.8125" y2="132.8125"/><line style="stroke: #000000; stroke-width: 1.0;" x1="303" x2="303" y1="132.8125" y2="146.7813"/><line style="stroke: #000000; stroke-width: 1.0;" x1="303" x2="313" y1="146.7813" y2="146.7813"/><text fill="#000000" font-family="sans-serif" font-size="12" lengthAdjust="spacingAndGlyphs" textLength="84" x="315" y="143.9512">Glace utilisée</text><line style="stroke: #000000; stroke-width: 1.0;" x1="313" x2="313" y1="132.8125" y2="146.7813"/><line style="stroke: #000000; stroke-width: 1.0;" x1="313" x2="402" y1="132.8125" y2="132.8125"/><line style="stroke: #000000; stroke-width: 1.0;" x1="402" x2="402" y1="132.8125" y2="146.7813"/><line style="stroke: #000000; stroke-width: 1.0;" x1="402" x2="412" y1="146.7813" y2="146.7813"/><text fill="#000000" font-family="sans-serif" font-size="12" lengthAdjust="spacingAndGlyphs" textLength="44" x="414" y="143.9512">Appâts</text><line style="stroke: #000000; stroke-width: 1.0;" x1="412" x2="412" y1="132.8125" y2="146.7813"/><line style="stroke: #000000; stroke-width: 1.0;" x1="412" x2="461" y1="132.8125" y2="132.8125"/><line style="stroke: #000000; stroke-width: 1.0;" x1="461" x2="461" y1="132.8125" y2="146.7813"/><line style="stroke: #000000; stroke-width: 1.0;" x1="461" x2="471" y1="146.7813" y2="146.7813"/><text fill="#000000" font-family="sans-serif" font-size="12" lengthAdjust="spacingAndGlyphs" textLength="66" x="126" y="177.8887">Volume (L)</text><text fill="#000000" font-family="sans-serif" font-size="12" lengthAdjust="spacingAndGlyphs" textLength="87" x="226" y="177.8887">Prix (Devise/L)</text><text fill="#000000" font-family="sans-serif" font-size="12" lengthAdjust="spacingAndGlyphs" textLength="110" x="326" y="177.8887">Prix total (Devise)</text><rect fill="#EEEEEE" height="16.9688" style="stroke: #000000; stroke-width: 1.0;" width="87" x="9" y="184.7188"/><text fill="#000000" font-family="sans-serif" font-size="12" lengthAdjust="spacingAndGlyphs" textLength="63" x="11" y="197.8574">Carburant</text><line style="stroke: #000000; stroke-width: 1.0;" x1="85" x2="85" y1="184.7188" y2="201.6875"/><polygon fill="#000000" points="88,190.7188,94,190.7188,91,196.6875" style="stroke: #000000; stroke-width: 1.0;"/><text fill="#000000" font-family="sans-serif" font-size="12" lengthAdjust="spacingAndGlyphs" textLength="0" x="134" y="196.8574"/><line style="stroke: #000000; stroke-width: 1.0;" x1="128" x2="219" y1="199.6875" y2="199.6875"/><line style="stroke: #000000; stroke-width: 1.0;" x1="128" x2="128" y1="196.6875" y2="198.6875"/><line style="stroke: #000000; stroke-width: 1.0;" x1="219" x2="219" y1="196.6875" y2="198.6875"/><line style="stroke: #000000; stroke-width: 1.0;" x1="126" x2="222" y1="184.7188" y2="184.7188"/><line style="stroke: #000000; stroke-width: 1.0;" x1="126" x2="222" y1="202.6875" y2="202.6875"/><line style="stroke: #000000; stroke-width: 1.0;" x1="126" x2="126" y1="184.7188" y2="202.6875"/><line style="stroke: #000000; stroke-width: 1.0;" x1="222" x2="222" y1="184.7188" y2="202.6875"/><text fill="#000000" font-family="sans-serif" font-size="12" lengthAdjust="spacingAndGlyphs" textLength="0" x="234" y="196.8574"/><line style="stroke: #000000; stroke-width: 1.0;" x1="228" x2="319" y1="199.6875" y2="199.6875"/><line style="stroke: #000000; stroke-width: 1.0;" x1="228" x2="228" y1="196.6875" y2="198.6875"/><line style="stroke: #000000; stroke-width: 1.0;" x1="319" x2="319" y1="196.6875" y2="198.6875"/><line style="stroke: #000000; stroke-width: 1.0;" x1="226" x2="322" y1="184.7188" y2="184.7188"/><line style="stroke: #000000; stroke-width: 1.0;" x1="226" x2="322" y1="202.6875" y2="202.6875"/><line style="stroke: #000000; stroke-width: 1.0;" x1="226" x2="226" y1="184.7188" y2="202.6875"/><line style="stroke: #000000; stroke-width: 1.0;" x1="322" x2="322" y1="184.7188" y2="202.6875"/><text fill="#000000" font-family="sans-serif" font-size="12" lengthAdjust="spacingAndGlyphs" textLength="0" x="334" y="196.8574"/><line style="stroke: #000000; stroke-width: 1.0;" x1="328" x2="419" y1="199.6875" y2="199.6875"/><line style="stroke: #000000; stroke-width: 1.0;" x1="328" x2="328" y1="196.6875" y2="198.6875"/><line style="stroke: #000000; stroke-width: 1.0;" x1="419" x2="419" y1="196.6875" y2="198.6875"/><line style="stroke: #000000; stroke-width: 1.0;" x1="326" x2="422" y1="184.7188" y2="184.7188"/><line style="stroke: #000000; stroke-width: 1.0;" x1="326" x2="422" y1="202.6875" y2="202.6875"/><line style="stroke: #000000; stroke-width: 1.0;" x1="326" x2="326" y1="184.7188" y2="202.6875"/><line style="stroke: #000000; stroke-width: 1.0;" x1="422" x2="422" y1="184.7188" y2="202.6875"/><text fill="#000000" font-family="sans-serif" font-size="12" lengthAdjust="spacingAndGlyphs" textLength="107" x="8" y="216.8262">huile de moteur :</text><text fill="#000000" font-family="sans-serif" font-size="12" lengthAdjust="spacingAndGlyphs" textLength="0" x="134" y="218.8262"/><line style="stroke: #000000; stroke-width: 1.0;" x1="128" x2="219" y1="221.6563" y2="221.6563"/><line style="stroke: #000000; stroke-width: 1.0;" x1="128" x2="128" y1="218.6563" y2="220.6563"/><line style="stroke: #000000; stroke-width: 1.0;" x1="219" x2="219" y1="218.6563" y2="220.6563"/><line style="stroke: #000000; stroke-width: 1.0;" x1="126" x2="222" y1="206.6875" y2="206.6875"/><line style="stroke: #000000; stroke-width: 1.0;" x1="126" x2="222" y1="224.6563" y2="224.6563"/><line style="stroke: #000000; stroke-width: 1.0;" x1="126" x2="126" y1="206.6875" y2="224.6563"/><line style="stroke: #000000; stroke-width: 1.0;" x1="222" x2="222" y1="206.6875" y2="224.6563"/><text fill="#000000" font-family="sans-serif" font-size="12" lengthAdjust="spacingAndGlyphs" textLength="0" x="234" y="218.8262"/><line style="stroke: #000000; stroke-width: 1.0;" x1="228" x2="319" y1="221.6563" y2="221.6563"/><line style="stroke: #000000; stroke-width: 1.0;" x1="228" x2="228" y1="218.6563" y2="220.6563"/><line style="stroke: #000000; stroke-width: 1.0;" x1="319" x2="319" y1="218.6563" y2="220.6563"/><line style="stroke: #000000; stroke-width: 1.0;" x1="226" x2="322" y1="206.6875" y2="206.6875"/><line style="stroke: #000000; stroke-width: 1.0;" x1="226" x2="322" y1="224.6563" y2="224.6563"/><line style="stroke: #000000; stroke-width: 1.0;" x1="226" x2="226" y1="206.6875" y2="224.6563"/><line style="stroke: #000000; stroke-width: 1.0;" x1="322" x2="322" y1="206.6875" y2="224.6563"/><text fill="#000000" font-family="sans-serif" font-size="12" lengthAdjust="spacingAndGlyphs" textLength="0" x="334" y="218.8262"/><line style="stroke: #000000; stroke-width: 1.0;" x1="328" x2="419" y1="221.6563" y2="221.6563"/><line style="stroke: #000000; stroke-width: 1.0;" x1="328" x2="328" y1="218.6563" y2="220.6563"/><line style="stroke: #000000; stroke-width: 1.0;" x1="419" x2="419" y1="218.6563" y2="220.6563"/><line style="stroke: #000000; stroke-width: 1.0;" x1="326" x2="422" y1="206.6875" y2="206.6875"/><line style="stroke: #000000; stroke-width: 1.0;" x1="326" x2="422" y1="224.6563" y2="224.6563"/><line style="stroke: #000000; stroke-width: 1.0;" x1="326" x2="326" y1="206.6875" y2="224.6563"/><line style="stroke: #000000; stroke-width: 1.0;" x1="422" x2="422" y1="206.6875" y2="224.6563"/><text fill="#000000" font-family="sans-serif" font-size="12" lengthAdjust="spacingAndGlyphs" textLength="115" x="8" y="238.7949">huile hydraulique :</text><text fill="#000000" font-family="sans-serif" font-size="12" lengthAdjust="spacingAndGlyphs" textLength="0" x="134" y="240.7949"/><line style="stroke: #000000; stroke-width: 1.0;" x1="128" x2="219" y1="243.625" y2="243.625"/><line style="stroke: #000000; stroke-width: 1.0;" x1="128" x2="128" y1="240.625" y2="242.625"/><line style="stroke: #000000; stroke-width: 1.0;" x1="219" x2="219" y1="240.625" y2="242.625"/><line style="stroke: #000000; stroke-width: 1.0;" x1="126" x2="222" y1="228.6563" y2="228.6563"/><line style="stroke: #000000; stroke-width: 1.0;" x1="126" x2="222" y1="246.625" y2="246.625"/><line style="stroke: #000000; stroke-width: 1.0;" x1="126" x2="126" y1="228.6563" y2="246.625"/><line style="stroke: #000000; stroke-width: 1.0;" x1="222" x2="222" y1="228.6563" y2="246.625"/><text fill="#000000" font-family="sans-serif" font-size="12" lengthAdjust="spacingAndGlyphs" textLength="0" x="234" y="240.7949"/><line style="stroke: #000000; stroke-width: 1.0;" x1="228" x2="319" y1="243.625" y2="243.625"/><line style="stroke: #000000; stroke-width: 1.0;" x1="228" x2="228" y1="240.625" y2="242.625"/><line style="stroke: #000000; stroke-width: 1.0;" x1="319" x2="319" y1="240.625" y2="242.625"/><line style="stroke: #000000; stroke-width: 1.0;" x1="226" x2="322" y1="228.6563" y2="228.6563"/><line style="stroke: #000000; stroke-width: 1.0;" x1="226" x2="322" y1="246.625" y2="246.625"/><line style="stroke: #000000; stroke-width: 1.0;" x1="226" x2="226" y1="228.6563" y2="246.625"/><line style="stroke: #000000; stroke-width: 1.0;" x1="322" x2="322" y1="228.6563" y2="246.625"/><text fill="#000000" font-family="sans-serif" font-size="12" lengthAdjust="spacingAndGlyphs" textLength="0" x="334" y="240.7949"/><line style="stroke: #000000; stroke-width: 1.0;" x1="328" x2="419" y1="243.625" y2="243.625"/><line style="stroke: #000000; stroke-width: 1.0;" x1="328" x2="328" y1="240.625" y2="242.625"/><line style="stroke: #000000; stroke-width: 1.0;" x1="419" x2="419" y1="240.625" y2="242.625"/><line style="stroke: #000000; stroke-width: 1.0;" x1="326" x2="422" y1="228.6563" y2="228.6563"/><line style="stroke: #000000; stroke-width: 1.0;" x1="326" x2="422" y1="246.625" y2="246.625"/><line style="stroke: #000000; stroke-width: 1.0;" x1="326" x2="326" y1="228.6563" y2="246.625"/><line style="stroke: #000000; stroke-width: 1.0;" x1="422" x2="422" y1="228.6563" y2="246.625"/><line style="stroke: #AAAAAA; stroke-width: 1.0;" x1="6" x2="578" y1="271.0938" y2="271.0938"/><line style="stroke: #AAAAAA; stroke-width: 1.0;" x1="579" x2="590" y1="271.0938" y2="271.0938"/><text fill="#000000" font-family="sans-serif" font-size="12" lengthAdjust="spacingAndGlyphs" textLength="167" x="8" y="302.7012">Fluides de fonctionnement</text><line style="stroke: #000000; stroke-width: 1.0;" x1="6" x2="6" y1="291.5625" y2="305.5313"/><line style="stroke: #000000; stroke-width: 1.0;" x1="6" x2="178" y1="291.5625" y2="291.5625"/><line style="stroke: #000000; stroke-width: 1.0;" x1="178" x2="178" y1="291.5625" y2="305.5313"/><line style="stroke: #000000; stroke-width: 1.0;" x1="178" x2="188" y1="305.5313" y2="305.5313"/><text fill="#000000" font-family="sans-serif" font-size="12" font-weight="bold" lengthAdjust="spacingAndGlyphs" textLength="99" x="190" y="302.7012">Frais annexes</text><line style="stroke: #000000; stroke-width: 1.0;" x1="188" x2="188" y1="291.5625" y2="305.5313"/><line style="stroke: #000000; stroke-width: 1.0;" x1="188" x2="292" y1="291.5625" y2="291.5625"/><line style="stroke: #000000; stroke-width: 1.0;" x1="292" x2="292" y1="291.5625" y2="305.5313"/><line style="stroke: #000000; stroke-width: 1.0;" x1="292" x2="302" y1="305.5313" y2="305.5313"/><text fill="#000000" font-family="sans-serif" font-size="12" lengthAdjust="spacingAndGlyphs" textLength="84" x="304" y="302.7012">Glace utilisée</text><line style="stroke: #000000; stroke-width: 1.0;" x1="302" x2="302" y1="291.5625" y2="305.5313"/><line style="stroke: #000000; stroke-width: 1.0;" x1="302" x2="391" y1="291.5625" y2="291.5625"/><line style="stroke: #000000; stroke-width: 1.0;" x1="391" x2="391" y1="291.5625" y2="305.5313"/><line style="stroke: #000000; stroke-width: 1.0;" x1="391" x2="401" y1="305.5313" y2="305.5313"/><text fill="#000000" font-family="sans-serif" font-size="12" lengthAdjust="spacingAndGlyphs" textLength="44" x="403" y="302.7012">Appâts</text><line style="stroke: #000000; stroke-width: 1.0;" x1="401" x2="401" y1="291.5625" y2="305.5313"/><line style="stroke: #000000; stroke-width: 1.0;" x1="401" x2="450" y1="291.5625" y2="291.5625"/><line style="stroke: #000000; stroke-width: 1.0;" x1="450" x2="450" y1="291.5625" y2="305.5313"/><line style="stroke: #000000; stroke-width: 1.0;" x1="450" x2="460" y1="305.5313" y2="305.5313"/><text fill="#000000" font-family="sans-serif" font-size="12" lengthAdjust="spacingAndGlyphs" textLength="147" x="7" y="319.6699">Frais de débarquement</text><text fill="#000000" font-family="sans-serif" font-size="12" lengthAdjust="spacingAndGlyphs" textLength="0" x="164" y="320.6699"/><line style="stroke: #000000; stroke-width: 1.0;" x1="158" x2="249" y1="323.5" y2="323.5"/><line style="stroke: #000000; stroke-width: 1.0;" x1="158" x2="158" y1="320.5" y2="322.5"/><line style="stroke: #000000; stroke-width: 1.0;" x1="249" x2="249" y1="320.5" y2="322.5"/><line style="stroke: #000000; stroke-width: 1.0;" x1="156" x2="252" y1="308.5313" y2="308.5313"/><line style="stroke: #000000; stroke-width: 1.0;" x1="156" x2="252" y1="326.5" y2="326.5"/><line style="stroke: #000000; stroke-width: 1.0;" x1="156" x2="156" y1="308.5313" y2="326.5"/><line style="stroke: #000000; stroke-width: 1.0;" x1="252" x2="252" y1="308.5313" y2="326.5"/><text fill="#000000" font-family="sans-serif" font-size="12" lengthAdjust="spacingAndGlyphs" textLength="41" x="318" y="319.6699">Devise</text><text fill="#000000" font-family="sans-serif" font-size="12" lengthAdjust="spacingAndGlyphs" textLength="78" x="7" y="339.6387">Alimentation</text><text fill="#000000" font-family="sans-serif" font-size="12" lengthAdjust="spacingAndGlyphs" textLength="0" x="164" y="340.6387"/><line style="stroke: #000000; stroke-width: 1.0;" x1="158" x2="249" y1="343.4688" y2="343.4688"/><line style="stroke: #000000; stroke-width: 1.0;" x1="158" x2="158" y1="340.4688" y2="342.4688"/><line style="stroke: #000000; stroke-width: 1.0;" x1="249" x2="249" y1="340.4688" y2="342.4688"/><line style="stroke: #000000; stroke-width: 1.0;" x1="156" x2="252" y1="328.5" y2="328.5"/><line style="stroke: #000000; stroke-width: 1.0;" x1="156" x2="252" y1="346.4688" y2="346.4688"/><line style="stroke: #000000; stroke-width: 1.0;" x1="156" x2="156" y1="328.5" y2="346.4688"/><line style="stroke: #000000; stroke-width: 1.0;" x1="252" x2="252" y1="328.5" y2="346.4688"/><text fill="#000000" font-family="sans-serif" font-size="12" lengthAdjust="spacingAndGlyphs" textLength="41" x="318" y="339.6387">Devise</text><text fill="#000000" font-family="sans-serif" font-size="12" lengthAdjust="spacingAndGlyphs" textLength="84" x="7" y="359.6074">Perte d'engin</text><text fill="#000000" font-family="sans-serif" font-size="12" lengthAdjust="spacingAndGlyphs" textLength="0" x="164" y="360.6074"/><line style="stroke: #000000; stroke-width: 1.0;" x1="158" x2="249" y1="363.4375" y2="363.4375"/><line style="stroke: #000000; stroke-width: 1.0;" x1="158" x2="158" y1="360.4375" y2="362.4375"/><line style="stroke: #000000; stroke-width: 1.0;" x1="249" x2="249" y1="360.4375" y2="362.4375"/><line style="stroke: #000000; stroke-width: 1.0;" x1="156" x2="252" y1="348.4688" y2="348.4688"/><line style="stroke: #000000; stroke-width: 1.0;" x1="156" x2="252" y1="366.4375" y2="366.4375"/><line style="stroke: #000000; stroke-width: 1.0;" x1="156" x2="156" y1="348.4688" y2="366.4375"/><line style="stroke: #000000; stroke-width: 1.0;" x1="252" x2="252" y1="348.4688" y2="366.4375"/><text fill="#000000" font-family="sans-serif" font-size="12" lengthAdjust="spacingAndGlyphs" textLength="41" x="318" y="359.6074">Devise</text><text fill="#000000" font-family="sans-serif" font-size="12" lengthAdjust="spacingAndGlyphs" textLength="34" x="7" y="379.5762">Autre</text><text fill="#000000" font-family="sans-serif" font-size="12" lengthAdjust="spacingAndGlyphs" textLength="0" x="164" y="380.5762"/><line style="stroke: #000000; stroke-width: 1.0;" x1="158" x2="249" y1="383.4063" y2="383.4063"/><line style="stroke: #000000; stroke-width: 1.0;" x1="158" x2="158" y1="380.4063" y2="382.4063"/><line style="stroke: #000000; stroke-width: 1.0;" x1="249" x2="249" y1="380.4063" y2="382.4063"/><line style="stroke: #000000; stroke-width: 1.0;" x1="156" x2="252" y1="368.4375" y2="368.4375"/><line style="stroke: #000000; stroke-width: 1.0;" x1="156" x2="252" y1="386.4063" y2="386.4063"/><line style="stroke: #000000; stroke-width: 1.0;" x1="156" x2="156" y1="368.4375" y2="386.4063"/><line style="stroke: #000000; stroke-width: 1.0;" x1="252" x2="252" y1="368.4375" y2="386.4063"/><text fill="#000000" font-family="sans-serif" font-size="12" lengthAdjust="spacingAndGlyphs" textLength="41" x="318" y="379.5762">Devise</text><text fill="#000000" font-family="sans-serif" font-size="12" lengthAdjust="spacingAndGlyphs" textLength="90" x="7" y="415.5137">Commentaires</text><text fill="#000000" font-family="sans-serif" font-size="12" lengthAdjust="spacingAndGlyphs" textLength="89" x="160" y="416.5137">commentaires</text><line style="stroke: #000000; stroke-width: 1.0;" x1="158" x2="313" y1="419.3438" y2="419.3438"/><line style="stroke: #000000; stroke-width: 1.0;" x1="158" x2="158" y1="416.3438" y2="418.3438"/><line style="stroke: #000000; stroke-width: 1.0;" x1="313" x2="313" y1="416.3438" y2="418.3438"/><line style="stroke: #AAAAAA; stroke-width: 1.0;" x1="6" x2="578" y1="444.8125" y2="444.8125"/><line style="stroke: #AAAAAA; stroke-width: 1.0;" x1="579" x2="590" y1="444.8125" y2="444.8125"/><text fill="#000000" font-family="sans-serif" font-size="12" lengthAdjust="spacingAndGlyphs" textLength="167" x="8" y="476.4199">Fluides de fonctionnement</text><line style="stroke: #000000; stroke-width: 1.0;" x1="6" x2="6" y1="465.2813" y2="479.25"/><line style="stroke: #000000; stroke-width: 1.0;" x1="6" x2="178" y1="465.2813" y2="465.2813"/><line style="stroke: #000000; stroke-width: 1.0;" x1="178" x2="178" y1="465.2813" y2="479.25"/><line style="stroke: #000000; stroke-width: 1.0;" x1="178" x2="188" y1="479.25" y2="479.25"/><text fill="#000000" font-family="sans-serif" font-size="12" lengthAdjust="spacingAndGlyphs" textLength="87" x="190" y="476.4199">Frais annexes</text><line style="stroke: #000000; stroke-width: 1.0;" x1="188" x2="188" y1="465.2813" y2="479.25"/><line style="stroke: #000000; stroke-width: 1.0;" x1="188" x2="280" y1="465.2813" y2="465.2813"/><line style="stroke: #000000; stroke-width: 1.0;" x1="280" x2="280" y1="465.2813" y2="479.25"/><line style="stroke: #000000; stroke-width: 1.0;" x1="280" x2="290" y1="479.25" y2="479.25"/><text fill="#000000" font-family="sans-serif" font-size="12" font-weight="bold" lengthAdjust="spacingAndGlyphs" textLength="96" x="292" y="476.4199">Glace utilisée</text><line style="stroke: #000000; stroke-width: 1.0;" x1="290" x2="290" y1="465.2813" y2="479.25"/><line style="stroke: #000000; stroke-width: 1.0;" x1="290" x2="391" y1="465.2813" y2="465.2813"/><line style="stroke: #000000; stroke-width: 1.0;" x1="391" x2="391" y1="465.2813" y2="479.25"/><line style="stroke: #000000; stroke-width: 1.0;" x1="391" x2="401" y1="479.25" y2="479.25"/><text fill="#000000" font-family="sans-serif" font-size="12" lengthAdjust="spacingAndGlyphs" textLength="44" x="403" y="476.4199">Appâts</text><line style="stroke: #000000; stroke-width: 1.0;" x1="401" x2="401" y1="465.2813" y2="479.25"/><line style="stroke: #000000; stroke-width: 1.0;" x1="401" x2="450" y1="465.2813" y2="465.2813"/><line style="stroke: #000000; stroke-width: 1.0;" x1="450" x2="450" y1="465.2813" y2="479.25"/><line style="stroke: #000000; stroke-width: 1.0;" x1="450" x2="460" y1="479.25" y2="479.25"/><text fill="#000000" font-family="sans-serif" font-size="12" lengthAdjust="spacingAndGlyphs" textLength="112" x="7" y="509.3574">Quantité de glace</text><text fill="#000000" font-family="sans-serif" font-size="12" lengthAdjust="spacingAndGlyphs" textLength="0" x="129" y="510.3574"/><line style="stroke: #000000; stroke-width: 1.0;" x1="123" x2="214" y1="513.1875" y2="513.1875"/><line style="stroke: #000000; stroke-width: 1.0;" x1="123" x2="123" y1="510.1875" y2="512.1875"/><line style="stroke: #000000; stroke-width: 1.0;" x1="214" x2="214" y1="510.1875" y2="512.1875"/><line style="stroke: #000000; stroke-width: 1.0;" x1="121" x2="217" y1="498.2188" y2="498.2188"/><line style="stroke: #000000; stroke-width: 1.0;" x1="121" x2="217" y1="516.1875" y2="516.1875"/><line style="stroke: #000000; stroke-width: 1.0;" x1="121" x2="121" y1="498.2188" y2="516.1875"/><line style="stroke: #000000; stroke-width: 1.0;" x1="217" x2="217" y1="498.2188" y2="516.1875"/><rect fill="#EEEEEE" height="16.9688" style="stroke: #000000; stroke-width: 1.0;" width="207" x="219" y="498.2188"/><text fill="#000000" font-family="sans-serif" font-size="12" lengthAdjust="spacingAndGlyphs" textLength="153" x="221" y="511.3574">Unité (au kg ou par sac)</text><line style="stroke: #000000; stroke-width: 1.0;" x1="415" x2="415" y1="498.2188" y2="515.1875"/><polygon fill="#000000" points="418,504.2188,424,504.2188,421,510.1875" style="stroke: #000000; stroke-width: 1.0;"/><text fill="#000000" font-family="sans-serif" font-size="12" lengthAdjust="spacingAndGlyphs" textLength="102" x="7" y="529.3262">Coût de la glace</text><text fill="#000000" font-family="sans-serif" font-size="12" lengthAdjust="spacingAndGlyphs" textLength="0" x="129" y="530.3262"/><line style="stroke: #000000; stroke-width: 1.0;" x1="123" x2="214" y1="533.1563" y2="533.1563"/><line style="stroke: #000000; stroke-width: 1.0;" x1="123" x2="123" y1="530.1563" y2="532.1563"/><line style="stroke: #000000; stroke-width: 1.0;" x1="214" x2="214" y1="530.1563" y2="532.1563"/><line style="stroke: #000000; stroke-width: 1.0;" x1="121" x2="217" y1="518.1875" y2="518.1875"/><line style="stroke: #000000; stroke-width: 1.0;" x1="121" x2="217" y1="536.1563" y2="536.1563"/><line style="stroke: #000000; stroke-width: 1.0;" x1="121" x2="121" y1="518.1875" y2="536.1563"/><line style="stroke: #000000; stroke-width: 1.0;" x1="217" x2="217" y1="518.1875" y2="536.1563"/><text fill="#000000" font-family="sans-serif" font-size="12" lengthAdjust="spacingAndGlyphs" textLength="41" x="219" y="529.3262">Devise</text><line style="stroke: #AAAAAA; stroke-width: 1.0;" x1="6" x2="578" y1="558.625" y2="558.625"/><line style="stroke: #AAAAAA; stroke-width: 1.0;" x1="579" x2="590" y1="558.625" y2="558.625"/><text fill="#000000" font-family="sans-serif" font-size="12" lengthAdjust="spacingAndGlyphs" textLength="167" x="8" y="590.2324">Fluides de fonctionnement</text><line style="stroke: #000000; stroke-width: 1.0;" x1="6" x2="6" y1="579.0938" y2="593.0625"/><line style="stroke: #000000; stroke-width: 1.0;" x1="6" x2="178" y1="579.0938" y2="579.0938"/><line style="stroke: #000000; stroke-width: 1.0;" x1="178" x2="178" y1="579.0938" y2="593.0625"/><line style="stroke: #000000; stroke-width: 1.0;" x1="178" x2="188" y1="593.0625" y2="593.0625"/><text fill="#000000" font-family="sans-serif" font-size="12" lengthAdjust="spacingAndGlyphs" textLength="87" x="190" y="590.2324">Frais annexes</text><line style="stroke: #000000; stroke-width: 1.0;" x1="188" x2="188" y1="579.0938" y2="593.0625"/><line style="stroke: #000000; stroke-width: 1.0;" x1="188" x2="280" y1="579.0938" y2="579.0938"/><line style="stroke: #000000; stroke-width: 1.0;" x1="280" x2="280" y1="579.0938" y2="593.0625"/><line style="stroke: #000000; stroke-width: 1.0;" x1="280" x2="290" y1="593.0625" y2="593.0625"/><text fill="#000000" font-family="sans-serif" font-size="12" lengthAdjust="spacingAndGlyphs" textLength="84" x="292" y="590.2324">Glace utilisée</text><line style="stroke: #000000; stroke-width: 1.0;" x1="290" x2="290" y1="579.0938" y2="593.0625"/><line style="stroke: #000000; stroke-width: 1.0;" x1="290" x2="379" y1="579.0938" y2="579.0938"/><line style="stroke: #000000; stroke-width: 1.0;" x1="379" x2="379" y1="579.0938" y2="593.0625"/><line style="stroke: #000000; stroke-width: 1.0;" x1="379" x2="389" y1="593.0625" y2="593.0625"/><text fill="#000000" font-family="sans-serif" font-size="12" font-weight="bold" lengthAdjust="spacingAndGlyphs" textLength="50" x="391" y="590.2324">Appâts</text><line style="stroke: #000000; stroke-width: 1.0;" x1="389" x2="389" y1="579.0938" y2="593.0625"/><line style="stroke: #000000; stroke-width: 1.0;" x1="389" x2="444" y1="579.0938" y2="579.0938"/><line style="stroke: #000000; stroke-width: 1.0;" x1="444" x2="444" y1="579.0938" y2="593.0625"/><line style="stroke: #000000; stroke-width: 1.0;" x1="444" x2="454" y1="593.0625" y2="593.0625"/><rect fill="#EEEEEE" height="16.9688" style="stroke: #000000; stroke-width: 1.0;" width="111" x="8" y="613.0313"/><text fill="#000000" font-family="sans-serif" font-size="12" lengthAdjust="spacingAndGlyphs" textLength="81" x="10" y="626.1699">Type d'appât</text><line style="stroke: #000000; stroke-width: 1.0;" x1="108" x2="108" y1="613.0313" y2="630"/><polygon fill="#000000" points="111,619.0313,117,619.0313,114,625" style="stroke: #000000; stroke-width: 1.0;"/><text fill="#000000" font-family="sans-serif" font-size="12" lengthAdjust="spacingAndGlyphs" textLength="108" x="123" y="623.1699">Nombre d'appâts</text><text fill="#000000" font-family="sans-serif" font-size="12" lengthAdjust="spacingAndGlyphs" textLength="0" x="241" y="624.1699"/><line style="stroke: #000000; stroke-width: 1.0;" x1="235" x2="326" y1="627" y2="627"/><line style="stroke: #000000; stroke-width: 1.0;" x1="235" x2="235" y1="624" y2="626"/><line style="stroke: #000000; stroke-width: 1.0;" x1="326" x2="326" y1="624" y2="626"/><line style="stroke: #000000; stroke-width: 1.0;" x1="233" x2="329" y1="612.0313" y2="612.0313"/><line style="stroke: #000000; stroke-width: 1.0;" x1="233" x2="329" y1="630" y2="630"/><line style="stroke: #000000; stroke-width: 1.0;" x1="233" x2="233" y1="612.0313" y2="630"/><line style="stroke: #000000; stroke-width: 1.0;" x1="329" x2="329" y1="612.0313" y2="630"/><rect fill="#EEEEEE" height="16.9688" style="stroke: #000000; stroke-width: 1.0;" width="207" x="331" y="612.0313"/><text fill="#000000" font-family="sans-serif" font-size="12" lengthAdjust="spacingAndGlyphs" textLength="163" x="333" y="625.1699">Unité de conditionnement</text><line style="stroke: #000000; stroke-width: 1.0;" x1="527" x2="527" y1="612.0313" y2="629"/><polygon fill="#000000" points="530,618.0313,536,618.0313,533,624" style="stroke: #000000; stroke-width: 1.0;"/><text fill="#000000" font-family="sans-serif" font-size="12" lengthAdjust="spacingAndGlyphs" textLength="104" x="123" y="645.1387">Coût des appâts</text><text fill="#000000" font-family="sans-serif" font-size="12" lengthAdjust="spacingAndGlyphs" textLength="0" x="241" y="646.1387"/><line style="stroke: #000000; stroke-width: 1.0;" x1="235" x2="326" y1="648.9688" y2="648.9688"/><line style="stroke: #000000; stroke-width: 1.0;" x1="235" x2="235" y1="645.9688" y2="647.9688"/><line style="stroke: #000000; stroke-width: 1.0;" x1="326" x2="326" y1="645.9688" y2="647.9688"/><line style="stroke: #000000; stroke-width: 1.0;" x1="233" x2="329" y1="634" y2="634"/><line style="stroke: #000000; stroke-width: 1.0;" x1="233" x2="329" y1="651.9688" y2="651.9688"/><line style="stroke: #000000; stroke-width: 1.0;" x1="233" x2="233" y1="634" y2="651.9688"/><line style="stroke: #000000; stroke-width: 1.0;" x1="329" x2="329" y1="634" y2="651.9688"/><text fill="#000000" font-family="sans-serif" font-size="12" lengthAdjust="spacingAndGlyphs" textLength="41" x="331" y="645.1387">Devise</text><rect fill="#EEEEEE" height="12" rx="5" ry="5" style="stroke: #000000; stroke-width: 2.5;" width="20" x="10.5" y="657.4688"/><path d="M19.5,659.4688 L19.5,662.4688 L16.5,662.4688 L16.5,664.4688 L19.5,664.4688 L19.5,667.4688 L21.5,667.4688 L21.5,664.4688 L24.5,664.4688 L24.5,662.4688 L21.5,662.4688 L21.5,659.4688 L19.5,659.4688 " fill="#000000" style="stroke: ; stroke-width: 0.0; stroke-dasharray: ;"/><line style="stroke: #AAAAAA; stroke-width: 1.0;" x1="6" x2="578" y1="695.4375" y2="695.4375"/><line style="stroke: #AAAAAA; stroke-width: 1.0;" x1="579" x2="590" y1="695.4375" y2="695.4375"/><rect fill="#EEEEEE" height="17.9688" rx="5" ry="5" style="stroke: #000000; stroke-width: 2.5;" width="260" x="10.5" y="704.4375"/><text fill="#000000" font-family="sans-serif" font-size="12" lengthAdjust="spacingAndGlyphs" textLength="200" x="40.5" y="717.5762">Fermer et retour à l'observation</text><rect fill="#EEEEEE" height="17.9688" rx="5" ry="5" style="stroke: #000000; stroke-width: 2.5;" width="92" x="277.5" y="704.4375"/><text fill="#000000" font-family="sans-serif" font-size="12" lengthAdjust="spacingAndGlyphs" textLength="70" x="288.5" y="717.5762">Enregistrer</text></g></svg>