<?xml version="1.0" encoding="UTF-8" standalone="no"?><svg xmlns="http://www.w3.org/2000/svg" xmlns:xlink="http://www.w3.org/1999/xlink" contentStyleType="text/css" height="437px" preserveAspectRatio="none" style="width:1129px;height:437px;background:#FFFFFF;" version="1.1" viewBox="0 0 1129 437" width="1129px" zoomAndPan="magnify"><defs/><g><text fill="#000000" font-family="sans-serif" font-size="12" font-weight="bold" lengthAdjust="spacing" textLength="312" x="10" y="17.1387">Immat Navire - Lieu - Date fin marée - Métier</text><line style="stroke:#AAAAAA;stroke-width:1.0;stroke-dasharray:1.0,2.0;" x1="6" x2="1110" y1="25.4688" y2="25.4688"/><text fill="#000000" font-family="sans-serif" font-size="12" lengthAdjust="spacing" textLength="74" x="8" y="41.1074">General trip</text><line style="stroke:#000000;stroke-width:1.0;" x1="6" x2="6" y1="29.9688" y2="43.9375"/><line style="stroke:#000000;stroke-width:1.0;" x1="6" x2="85" y1="29.9688" y2="29.9688"/><line style="stroke:#000000;stroke-width:1.0;" x1="85" x2="85" y1="29.9688" y2="43.9375"/><line style="stroke:#000000;stroke-width:1.0;" x1="85" x2="95" y1="43.9375" y2="43.9375"/><text fill="#000000" font-family="sans-serif" font-size="12" lengthAdjust="spacing" textLength="34" x="97" y="41.1074">Effort</text><line style="stroke:#000000;stroke-width:1.0;" x1="95" x2="95" y1="29.9688" y2="43.9375"/><line style="stroke:#000000;stroke-width:1.0;" x1="95" x2="134" y1="29.9688" y2="29.9688"/><line style="stroke:#000000;stroke-width:1.0;" x1="134" x2="134" y1="29.9688" y2="43.9375"/><line style="stroke:#000000;stroke-width:1.0;" x1="134" x2="144" y1="43.9375" y2="43.9375"/><text fill="#000000" font-family="sans-serif" font-size="12" lengthAdjust="spacing" textLength="123" x="146" y="41.1074">Capture débarquée</text><line style="stroke:#000000;stroke-width:1.0;" x1="144" x2="144" y1="29.9688" y2="43.9375"/><line style="stroke:#000000;stroke-width:1.0;" x1="144" x2="272" y1="29.9688" y2="29.9688"/><line style="stroke:#000000;stroke-width:1.0;" x1="272" x2="272" y1="29.9688" y2="43.9375"/><line style="stroke:#000000;stroke-width:1.0;" x1="272" x2="282" y1="43.9375" y2="43.9375"/><text fill="#000000" font-family="sans-serif" font-size="12" font-weight="bold" lengthAdjust="spacing" textLength="42" x="284" y="41.1074">Vente</text><line style="stroke:#000000;stroke-width:1.0;" x1="282" x2="282" y1="29.9688" y2="43.9375"/><line style="stroke:#000000;stroke-width:1.0;" x1="282" x2="329" y1="29.9688" y2="29.9688"/><line style="stroke:#000000;stroke-width:1.0;" x1="329" x2="329" y1="29.9688" y2="43.9375"/><line style="stroke:#000000;stroke-width:1.0;" x1="329" x2="339" y1="43.9375" y2="43.9375"/><text fill="#000000" font-family="sans-serif" font-size="12" lengthAdjust="spacing" textLength="63" x="341" y="41.1074">Dépenses</text><line style="stroke:#000000;stroke-width:1.0;" x1="339" x2="339" y1="29.9688" y2="43.9375"/><line style="stroke:#000000;stroke-width:1.0;" x1="339" x2="407" y1="29.9688" y2="29.9688"/><line style="stroke:#000000;stroke-width:1.0;" x1="407" x2="407" y1="29.9688" y2="43.9375"/><line style="stroke:#000000;stroke-width:1.0;" x1="407" x2="417" y1="43.9375" y2="43.9375"/><text fill="#000000" font-family="sans-serif" font-size="12" lengthAdjust="spacing" textLength="202" x="7" y="74.0449">Estimation des ventes (Devise) :</text><path d="M218,65.875 C215.79,65.875 214,67.665 214,69.875 C214,72.085 215.79,73.875 218,73.875 C220.21,73.875 222,72.085 222,69.875 C222,67.665 220.21,65.875 218,65.875 M218,66.875 L221,69.875 L218,72.875 L218,70.875 L215,70.875 L215,68.875 L218,68.875 L218,66.875 " fill="#000000" style="stroke:;stroke-width:0.0;stroke-dasharray:;"/><text fill="#000000" font-family="sans-serif" font-size="12" lengthAdjust="spacing" textLength="4" x="229" y="75.0449"> </text><line style="stroke:#000000;stroke-width:1.0;" x1="227" x2="318" y1="77.875" y2="77.875"/><line style="stroke:#000000;stroke-width:1.0;" x1="227" x2="227" y1="74.875" y2="76.875"/><line style="stroke:#000000;stroke-width:1.0;" x1="318" x2="318" y1="74.875" y2="76.875"/><line style="stroke:#000000;stroke-width:1.0;" x1="225" x2="321" y1="62.9063" y2="62.9063"/><line style="stroke:#000000;stroke-width:1.0;" x1="225" x2="321" y1="80.875" y2="80.875"/><line style="stroke:#000000;stroke-width:1.0;" x1="225" x2="225" y1="62.9063" y2="80.875"/><line style="stroke:#000000;stroke-width:1.0;" x1="321" x2="321" y1="62.9063" y2="80.875"/><path d="M324.09,62.9063 C324.03,62.9063 324,62.9463 324,62.9963 L324,70.8063 C324,70.8563 324.04,70.8963 324.09,70.8963 L330.9,70.8963 C330.95,70.8963 330.99,70.8563 330.99,70.8063 L330.99,62.9963 C330.99,62.9363 330.95,62.9063 330.9,62.9063 L324.09,62.9063 M325,63.9063 L330,63.9063 L330,65.9063 L325,65.9063 L325,63.9063 M325,66.9063 L326,66.9063 L326,67.9063 L325,67.9063 L325,66.9063 M327,66.9063 L328,66.9063 L328,67.9063 L327,67.9063 L327,66.9063 M329,66.9063 L330,66.9063 L330,69.9063 L329,69.9063 L329,66.9063 M325,68.9063 L326,68.9063 L326,69.9063 L325,69.9063 L325,68.9063 M327,68.9063 L328,68.9063 L328,69.9063 L327,69.9063 L327,68.9063 " fill="#000000" style="stroke:;stroke-width:0.0;stroke-dasharray:;"/><text fill="#000000" font-family="sans-serif" font-size="12" lengthAdjust="spacing" textLength="110" x="336" y="75.0449">Coût total calculé</text><text fill="#0000FF" font-family="sans-serif" font-size="12" lengthAdjust="spacing" textLength="44" x="456" y="76.0449">1987.0</text><line style="stroke:#000000;stroke-width:1.0;" x1="450" x2="509" y1="78.875" y2="78.875"/><line style="stroke:#000000;stroke-width:1.0;" x1="450" x2="450" y1="75.875" y2="77.875"/><line style="stroke:#000000;stroke-width:1.0;" x1="509" x2="509" y1="75.875" y2="77.875"/><text fill="#000000" font-family="sans-serif" font-size="12" lengthAdjust="spacing" textLength="41" x="514" y="75.0449">Devise</text><line style="stroke:#AAAAAA;stroke-width:1.0;" x1="6" x2="1110" y1="89.375" y2="89.375"/><line style="stroke:#AAAAAA;stroke-width:1.0;" x1="1111" x2="1122" y1="89.375" y2="89.375"/><text fill="#000000" font-family="sans-serif" font-size="12" font-weight="bold" lengthAdjust="spacing" textLength="125" x="8" y="120.9824">Vente par espèce</text><line style="stroke:#000000;stroke-width:1.0;" x1="6" x2="6" y1="109.8438" y2="123.8125"/><line style="stroke:#000000;stroke-width:1.0;" x1="6" x2="136" y1="109.8438" y2="109.8438"/><line style="stroke:#000000;stroke-width:1.0;" x1="136" x2="136" y1="109.8438" y2="123.8125"/><line style="stroke:#000000;stroke-width:1.0;" x1="136" x2="146" y1="123.8125" y2="123.8125"/><text fill="#000000" font-family="sans-serif" font-size="12" lengthAdjust="spacing" textLength="111" x="148" y="120.9824">Vente par paquet</text><line style="stroke:#000000;stroke-width:1.0;" x1="146" x2="146" y1="109.8438" y2="123.8125"/><line style="stroke:#000000;stroke-width:1.0;" x1="146" x2="262" y1="109.8438" y2="109.8438"/><line style="stroke:#000000;stroke-width:1.0;" x1="262" x2="262" y1="109.8438" y2="123.8125"/><line style="stroke:#000000;stroke-width:1.0;" x1="262" x2="272" y1="123.8125" y2="123.8125"/><text fill="#000000" font-family="sans-serif" font-size="12" font-weight="bold" lengthAdjust="spacing" textLength="207" x="7" y="153.9199">Détail des ventes par espèce</text><line style="stroke:#AAAAAA;stroke-width:1.0;stroke-dasharray:1.0,2.0;" x1="7" x2="1109" y1="162.25" y2="162.25"/><rect fill="#EEEEEE" height="12" rx="5" ry="5" style="stroke:#000000;stroke-width:2.5;" width="20" x="10.5" y="170.25"/><path d="M19.5,172.25 L19.5,175.25 L16.5,175.25 L16.5,177.25 L19.5,177.25 L19.5,180.25 L21.5,180.25 L21.5,177.25 L24.5,177.25 L24.5,175.25 L21.5,175.25 L21.5,172.25 L19.5,172.25 " fill="#000000" style="stroke:;stroke-width:0.0;stroke-dasharray:;"/><rect fill="#EEEEEE" height="12" rx="5" ry="5" style="stroke:#000000;stroke-width:2.5;" width="20" x="37.5" y="170.25"/><path d="M43.5,172.25 L43.5,174.25 L51.5,174.25 L51.5,172.25 L43.5,172.25 " fill="#000000" style="stroke:;stroke-width:0.0;stroke-dasharray:;"/><rect fill="#EEEEEE" height="12" rx="5" ry="5" style="stroke:#000000;stroke-width:2.5;" width="20" x="64.5" y="170.25"/><path d="M70.5,172.25 L70.5,176.25 L74.5,176.25 L74.5,172.25 L70.5,172.25 M75.5,174.25 L75.5,177.25 L72.5,177.25 L72.5,178.25 L76.5,178.25 L76.5,174.25 L75.5,174.25 M77.5,176.25 L77.5,179.25 L74.5,179.25 L74.5,180.25 L78.5,180.25 L78.5,176.25 L77.5,176.25 " fill="#000000" style="stroke:;stroke-width:0.0;stroke-dasharray:;"/><text fill="#000000" font-family="sans-serif" font-size="12" lengthAdjust="spacing" textLength="10" x="8" y="199.8887">#</text><text fill="#000000" font-family="sans-serif" font-size="12" font-weight="bold" lengthAdjust="spacing" textLength="142" x="20" y="199.8887">Espèce commerciale</text><text fill="#000000" font-family="sans-serif" font-size="12" font-weight="bold" lengthAdjust="spacing" textLength="100" x="164" y="199.8887">Type de vente</text><text fill="#000000" font-family="sans-serif" font-size="12" font-weight="bold" lengthAdjust="spacing" textLength="18" x="301" y="199.8887">%*</text><text fill="#000000" font-family="sans-serif" font-size="12" font-weight="bold" lengthAdjust="spacing" textLength="103" x="339" y="199.8887">Poids Ech. (kg)</text><text fill="#000000" font-family="sans-serif" font-size="12" font-weight="bold" lengthAdjust="spacing" textLength="56" x="444" y="199.8887">NB indiv</text><text fill="#000000" font-family="sans-serif" font-size="12" font-weight="bold" lengthAdjust="spacing" textLength="73" x="502" y="199.8887">Packaging</text><text fill="#000000" font-family="sans-serif" font-size="12" font-weight="bold" lengthAdjust="spacing" textLength="159" x="577" y="199.8887">Prix moyen (Devise/kg)</text><text fill="#000000" font-family="sans-serif" font-size="12" font-weight="bold" lengthAdjust="spacing" textLength="215" x="738" y="199.8887">Prix moyen (Devise/packaging)</text><text fill="#000000" font-family="sans-serif" font-size="12" font-weight="bold" lengthAdjust="spacing" textLength="125" x="955" y="199.8887">Prix total (Devise)</text><text fill="#000000" font-family="sans-serif" font-size="12" lengthAdjust="spacing" textLength="8" x="8" y="215.8574">1</text><text fill="#000000" font-family="sans-serif" font-size="12" lengthAdjust="spacing" textLength="116" x="20" y="215.8574">Anba Iasann - PWT</text><text fill="#000000" font-family="sans-serif" font-size="12" lengthAdjust="spacing" textLength="44" x="164" y="215.8574">market</text><text fill="#000000" font-family="sans-serif" font-size="12" lengthAdjust="spacing" textLength="36" x="301" y="215.8574">100.0</text><text fill="#0000FF" font-family="sans-serif" font-size="12" font-style="italic" lengthAdjust="spacing" textLength="36" x="339" y="215.8574">200.0</text><text fill="#000000" font-family="sans-serif" font-size="12" lengthAdjust="spacing" textLength="16" x="444" y="215.8574">45</text><text fill="#000000" font-family="sans-serif" font-size="12" lengthAdjust="spacing" textLength="25" x="502" y="215.8574">Unit</text><text fill="#000000" font-family="sans-serif" font-size="12" lengthAdjust="spacing" textLength="20" x="577" y="215.8574">5.0</text><text fill="#0000FF" font-family="sans-serif" font-size="12" font-style="italic" lengthAdjust="spacing" textLength="28" x="738" y="215.8574">67.0</text><text fill="#0000FF" font-family="sans-serif" font-size="12" font-style="italic" lengthAdjust="spacing" textLength="36" x="955" y="215.8574">335.0</text><rect fill="#EEEEEE" height="12" rx="5" ry="5" style="stroke:#000000;stroke-width:2.5;" width="20" x="1084.5" y="207.2188"/><path d="M1093.5,209.2188 C1092.95,209.2188 1092.5,209.6688 1092.5,210.2188 L1091.5,210.2188 C1090.95,210.2188 1090.5,210.6688 1090.5,211.2188 L1097.5,211.2188 C1097.5,210.6688 1097.05,210.2188 1096.5,210.2188 L1095.5,210.2188 C1095.5,209.6688 1095.05,209.2188 1094.5,209.2188 L1093.5,209.2188 M1091.5,212.2188 L1091.5,217.0288 C1091.5,217.1388 1091.58,217.2188 1091.69,217.2188 L1096.32,217.2188 C1096.43,217.2188 1096.51,217.1388 1096.51,217.0288 L1096.51,212.2188 L1095.51,212.2188 L1095.51,215.7188 C1095.51,215.9988 1095.29,216.2188 1095.01,216.2188 C1094.73,216.2188 1094.51,215.9988 1094.51,215.7188 L1094.51,212.2188 L1093.51,212.2188 L1093.51,215.7188 C1093.51,215.9988 1093.29,216.2188 1093.01,216.2188 C1092.73,216.2188 1092.51,215.9988 1092.51,215.7188 L1092.51,212.2188 L1091.51,212.2188 " fill="#000000" style="stroke:;stroke-width:0.0;stroke-dasharray:;"/><text fill="#000000" font-family="sans-serif" font-size="12" lengthAdjust="spacing" textLength="8" x="8" y="234.8574">2</text><text fill="#000000" font-family="sans-serif" font-size="12" lengthAdjust="spacing" textLength="72" x="20" y="234.8574">Barwa - LXN</text><text fill="#000000" font-family="sans-serif" font-size="12" lengthAdjust="spacing" textLength="135" x="164" y="234.8574">Hotel and Restaurant</text><text fill="#000000" font-family="sans-serif" font-size="12" lengthAdjust="spacing" textLength="36" x="301" y="234.8574">100.0</text><text fill="#0000FF" font-family="sans-serif" font-size="12" font-style="italic" lengthAdjust="spacing" textLength="28" x="339" y="234.8574">26.0</text><text fill="#000000" font-family="sans-serif" font-size="12" lengthAdjust="spacing" textLength="8" x="444" y="234.8574">3</text><text fill="#000000" font-family="sans-serif" font-size="12" lengthAdjust="spacing" textLength="25" x="502" y="234.8574">Unit</text><text fill="#000000" font-family="sans-serif" font-size="12" lengthAdjust="spacing" textLength="20" x="577" y="234.8574">2.5</text><text fill="#0000FF" font-family="sans-serif" font-size="12" font-style="italic" lengthAdjust="spacing" textLength="36" x="738" y="234.8574">11.11</text><text fill="#0000FF" font-family="sans-serif" font-size="12" font-style="italic" lengthAdjust="spacing" textLength="36" x="955" y="234.8574">500.0</text><rect fill="#EEEEEE" height="12" rx="5" ry="5" style="stroke:#000000;stroke-width:2.5;" width="20" x="1084.5" y="226.2188"/><path d="M1093.5,228.2188 C1092.95,228.2188 1092.5,228.6688 1092.5,229.2188 L1091.5,229.2188 C1090.95,229.2188 1090.5,229.6688 1090.5,230.2188 L1097.5,230.2188 C1097.5,229.6688 1097.05,229.2188 1096.5,229.2188 L1095.5,229.2188 C1095.5,228.6688 1095.05,228.2188 1094.5,228.2188 L1093.5,228.2188 M1091.5,231.2188 L1091.5,236.0288 C1091.5,236.1388 1091.58,236.2188 1091.69,236.2188 L1096.32,236.2188 C1096.43,236.2188 1096.51,236.1388 1096.51,236.0288 L1096.51,231.2188 L1095.51,231.2188 L1095.51,234.7188 C1095.51,234.9988 1095.29,235.2188 1095.01,235.2188 C1094.73,235.2188 1094.51,234.9988 1094.51,234.7188 L1094.51,231.2188 L1093.51,231.2188 L1093.51,234.7188 C1093.51,234.9988 1093.29,235.2188 1093.01,235.2188 C1092.73,235.2188 1092.51,234.9988 1092.51,234.7188 L1092.51,231.2188 L1091.51,231.2188 " fill="#000000" style="stroke:;stroke-width:0.0;stroke-dasharray:;"/><line style="stroke:#000000;stroke-width:1.0;" x1="7" x2="19" y1="187.75" y2="187.75"/><line style="stroke:#000000;stroke-width:1.0;" x1="19" x2="163" y1="187.75" y2="187.75"/><line style="stroke:#000000;stroke-width:1.0;" x1="163" x2="300" y1="187.75" y2="187.75"/><line style="stroke:#000000;stroke-width:1.0;" x1="300" x2="338" y1="187.75" y2="187.75"/><line style="stroke:#000000;stroke-width:1.0;" x1="338" x2="443" y1="187.75" y2="187.75"/><line style="stroke:#000000;stroke-width:1.0;" x1="443" x2="501" y1="187.75" y2="187.75"/><line style="stroke:#000000;stroke-width:1.0;" x1="501" x2="576" y1="187.75" y2="187.75"/><line style="stroke:#000000;stroke-width:1.0;" x1="576" x2="737" y1="187.75" y2="187.75"/><line style="stroke:#000000;stroke-width:1.0;" x1="737" x2="954" y1="187.75" y2="187.75"/><line style="stroke:#000000;stroke-width:1.0;" x1="954" x2="1081" y1="187.75" y2="187.75"/><line style="stroke:#000000;stroke-width:1.0;" x1="1081" x2="1108" y1="187.75" y2="187.75"/><line style="stroke:#000000;stroke-width:1.0;" x1="7" x2="19" y1="241.7188" y2="241.7188"/><line style="stroke:#000000;stroke-width:1.0;" x1="19" x2="163" y1="241.7188" y2="241.7188"/><line style="stroke:#000000;stroke-width:1.0;" x1="163" x2="300" y1="241.7188" y2="241.7188"/><line style="stroke:#000000;stroke-width:1.0;" x1="300" x2="338" y1="241.7188" y2="241.7188"/><line style="stroke:#000000;stroke-width:1.0;" x1="338" x2="443" y1="241.7188" y2="241.7188"/><line style="stroke:#000000;stroke-width:1.0;" x1="443" x2="501" y1="241.7188" y2="241.7188"/><line style="stroke:#000000;stroke-width:1.0;" x1="501" x2="576" y1="241.7188" y2="241.7188"/><line style="stroke:#000000;stroke-width:1.0;" x1="576" x2="737" y1="241.7188" y2="241.7188"/><line style="stroke:#000000;stroke-width:1.0;" x1="737" x2="954" y1="241.7188" y2="241.7188"/><line style="stroke:#000000;stroke-width:1.0;" x1="954" x2="1081" y1="241.7188" y2="241.7188"/><line style="stroke:#000000;stroke-width:1.0;" x1="1081" x2="1108" y1="241.7188" y2="241.7188"/><line style="stroke:#000000;stroke-width:1.0;" x1="7" x2="19" y1="222.7188" y2="222.7188"/><line style="stroke:#000000;stroke-width:1.0;" x1="19" x2="163" y1="222.7188" y2="222.7188"/><line style="stroke:#000000;stroke-width:1.0;" x1="163" x2="300" y1="222.7188" y2="222.7188"/><line style="stroke:#000000;stroke-width:1.0;" x1="300" x2="338" y1="222.7188" y2="222.7188"/><line style="stroke:#000000;stroke-width:1.0;" x1="338" x2="443" y1="222.7188" y2="222.7188"/><line style="stroke:#000000;stroke-width:1.0;" x1="443" x2="501" y1="222.7188" y2="222.7188"/><line style="stroke:#000000;stroke-width:1.0;" x1="501" x2="576" y1="222.7188" y2="222.7188"/><line style="stroke:#000000;stroke-width:1.0;" x1="576" x2="737" y1="222.7188" y2="222.7188"/><line style="stroke:#000000;stroke-width:1.0;" x1="737" x2="954" y1="222.7188" y2="222.7188"/><line style="stroke:#000000;stroke-width:1.0;" x1="954" x2="1081" y1="222.7188" y2="222.7188"/><line style="stroke:#000000;stroke-width:1.0;" x1="1081" x2="1108" y1="222.7188" y2="222.7188"/><line style="stroke:#000000;stroke-width:1.0;" x1="7" x2="19" y1="203.7188" y2="203.7188"/><line style="stroke:#000000;stroke-width:1.0;" x1="19" x2="163" y1="203.7188" y2="203.7188"/><line style="stroke:#000000;stroke-width:1.0;" x1="163" x2="300" y1="203.7188" y2="203.7188"/><line style="stroke:#000000;stroke-width:1.0;" x1="300" x2="338" y1="203.7188" y2="203.7188"/><line style="stroke:#000000;stroke-width:1.0;" x1="338" x2="443" y1="203.7188" y2="203.7188"/><line style="stroke:#000000;stroke-width:1.0;" x1="443" x2="501" y1="203.7188" y2="203.7188"/><line style="stroke:#000000;stroke-width:1.0;" x1="501" x2="576" y1="203.7188" y2="203.7188"/><line style="stroke:#000000;stroke-width:1.0;" x1="576" x2="737" y1="203.7188" y2="203.7188"/><line style="stroke:#000000;stroke-width:1.0;" x1="737" x2="954" y1="203.7188" y2="203.7188"/><line style="stroke:#000000;stroke-width:1.0;" x1="954" x2="1081" y1="203.7188" y2="203.7188"/><line style="stroke:#000000;stroke-width:1.0;" x1="1081" x2="1108" y1="203.7188" y2="203.7188"/><line style="stroke:#000000;stroke-width:1.0;" x1="7" x2="7" y1="187.75" y2="203.7188"/><line style="stroke:#000000;stroke-width:1.0;" x1="19" x2="19" y1="187.75" y2="203.7188"/><line style="stroke:#000000;stroke-width:1.0;" x1="163" x2="163" y1="187.75" y2="203.7188"/><line style="stroke:#000000;stroke-width:1.0;" x1="300" x2="300" y1="187.75" y2="203.7188"/><line style="stroke:#000000;stroke-width:1.0;" x1="338" x2="338" y1="187.75" y2="203.7188"/><line style="stroke:#000000;stroke-width:1.0;" x1="443" x2="443" y1="187.75" y2="203.7188"/><line style="stroke:#000000;stroke-width:1.0;" x1="501" x2="501" y1="187.75" y2="203.7188"/><line style="stroke:#000000;stroke-width:1.0;" x1="576" x2="576" y1="187.75" y2="203.7188"/><line style="stroke:#000000;stroke-width:1.0;" x1="737" x2="737" y1="187.75" y2="203.7188"/><line style="stroke:#000000;stroke-width:1.0;" x1="954" x2="954" y1="187.75" y2="203.7188"/><line style="stroke:#000000;stroke-width:1.0;" x1="1081" x2="1081" y1="187.75" y2="203.7188"/><line style="stroke:#000000;stroke-width:1.0;" x1="1108" x2="1108" y1="187.75" y2="203.7188"/><line style="stroke:#000000;stroke-width:1.0;" x1="7" x2="7" y1="222.7188" y2="241.7188"/><line style="stroke:#000000;stroke-width:1.0;" x1="19" x2="19" y1="222.7188" y2="241.7188"/><line style="stroke:#000000;stroke-width:1.0;" x1="163" x2="163" y1="222.7188" y2="241.7188"/><line style="stroke:#000000;stroke-width:1.0;" x1="300" x2="300" y1="222.7188" y2="241.7188"/><line style="stroke:#000000;stroke-width:1.0;" x1="338" x2="338" y1="222.7188" y2="241.7188"/><line style="stroke:#000000;stroke-width:1.0;" x1="443" x2="443" y1="222.7188" y2="241.7188"/><line style="stroke:#000000;stroke-width:1.0;" x1="501" x2="501" y1="222.7188" y2="241.7188"/><line style="stroke:#000000;stroke-width:1.0;" x1="576" x2="576" y1="222.7188" y2="241.7188"/><line style="stroke:#000000;stroke-width:1.0;" x1="737" x2="737" y1="222.7188" y2="241.7188"/><line style="stroke:#000000;stroke-width:1.0;" x1="954" x2="954" y1="222.7188" y2="241.7188"/><line style="stroke:#000000;stroke-width:1.0;" x1="1081" x2="1081" y1="222.7188" y2="241.7188"/><line style="stroke:#000000;stroke-width:1.0;" x1="1108" x2="1108" y1="222.7188" y2="241.7188"/><line style="stroke:#000000;stroke-width:1.0;" x1="7" x2="7" y1="203.7188" y2="222.7188"/><line style="stroke:#000000;stroke-width:1.0;" x1="19" x2="19" y1="203.7188" y2="222.7188"/><line style="stroke:#000000;stroke-width:1.0;" x1="163" x2="163" y1="203.7188" y2="222.7188"/><line style="stroke:#000000;stroke-width:1.0;" x1="300" x2="300" y1="203.7188" y2="222.7188"/><line style="stroke:#000000;stroke-width:1.0;" x1="338" x2="338" y1="203.7188" y2="222.7188"/><line style="stroke:#000000;stroke-width:1.0;" x1="443" x2="443" y1="203.7188" y2="222.7188"/><line style="stroke:#000000;stroke-width:1.0;" x1="501" x2="501" y1="203.7188" y2="222.7188"/><line style="stroke:#000000;stroke-width:1.0;" x1="576" x2="576" y1="203.7188" y2="222.7188"/><line style="stroke:#000000;stroke-width:1.0;" x1="737" x2="737" y1="203.7188" y2="222.7188"/><line style="stroke:#000000;stroke-width:1.0;" x1="954" x2="954" y1="203.7188" y2="222.7188"/><line style="stroke:#000000;stroke-width:1.0;" x1="1081" x2="1081" y1="203.7188" y2="222.7188"/><line style="stroke:#000000;stroke-width:1.0;" x1="1108" x2="1108" y1="203.7188" y2="222.7188"/><line style="stroke:#AAAAAA;stroke-width:1.0;" x1="6" x2="1110" y1="264.1875" y2="264.1875"/><line style="stroke:#AAAAAA;stroke-width:1.0;" x1="1111" x2="1122" y1="264.1875" y2="264.1875"/><text fill="#000000" font-family="sans-serif" font-size="12" lengthAdjust="spacing" textLength="112" x="8" y="279.8262">Vente par espèce</text><line style="stroke:#000000;stroke-width:1.0;" x1="6" x2="6" y1="268.6875" y2="282.6563"/><line style="stroke:#000000;stroke-width:1.0;" x1="6" x2="123" y1="268.6875" y2="268.6875"/><line style="stroke:#000000;stroke-width:1.0;" x1="123" x2="123" y1="268.6875" y2="282.6563"/><line style="stroke:#000000;stroke-width:1.0;" x1="123" x2="133" y1="282.6563" y2="282.6563"/><text fill="#000000" font-family="sans-serif" font-size="12" font-weight="bold" lengthAdjust="spacing" textLength="125" x="135" y="279.8262">Vente par paquet</text><line style="stroke:#000000;stroke-width:1.0;" x1="133" x2="133" y1="268.6875" y2="282.6563"/><line style="stroke:#000000;stroke-width:1.0;" x1="133" x2="263" y1="268.6875" y2="268.6875"/><line style="stroke:#000000;stroke-width:1.0;" x1="263" x2="263" y1="268.6875" y2="282.6563"/><line style="stroke:#000000;stroke-width:1.0;" x1="263" x2="273" y1="282.6563" y2="282.6563"/><text fill="#000000" font-family="sans-serif" font-size="12" font-weight="bold" lengthAdjust="spacing" textLength="207" x="7" y="312.7637">Détail des ventes par paquet</text><line style="stroke:#AAAAAA;stroke-width:1.0;stroke-dasharray:1.0,2.0;" x1="7" x2="766" y1="321.0938" y2="321.0938"/><rect fill="#EEEEEE" height="12" rx="5" ry="5" style="stroke:#000000;stroke-width:2.5;" width="20" x="10.5" y="329.0938"/><path d="M19.5,331.0938 L19.5,334.0938 L16.5,334.0938 L16.5,336.0938 L19.5,336.0938 L19.5,339.0938 L21.5,339.0938 L21.5,336.0938 L24.5,336.0938 L24.5,334.0938 L21.5,334.0938 L21.5,331.0938 L19.5,331.0938 " fill="#000000" style="stroke:;stroke-width:0.0;stroke-dasharray:;"/><rect fill="#EEEEEE" height="12" rx="5" ry="5" style="stroke:#000000;stroke-width:2.5;" width="20" x="37.5" y="329.0938"/><path d="M43.5,331.0938 L43.5,333.0938 L51.5,333.0938 L51.5,331.0938 L43.5,331.0938 " fill="#000000" style="stroke:;stroke-width:0.0;stroke-dasharray:;"/><rect fill="#EEEEEE" height="12" rx="5" ry="5" style="stroke:#000000;stroke-width:2.5;" width="20" x="64.5" y="329.0938"/><path d="M70.5,331.0938 L70.5,335.0938 L74.5,335.0938 L74.5,331.0938 L70.5,331.0938 M75.5,333.0938 L75.5,336.0938 L72.5,336.0938 L72.5,337.0938 L76.5,337.0938 L76.5,333.0938 L75.5,333.0938 M77.5,335.0938 L77.5,338.0938 L74.5,338.0938 L74.5,339.0938 L78.5,339.0938 L78.5,335.0938 L77.5,335.0938 " fill="#000000" style="stroke:;stroke-width:0.0;stroke-dasharray:;"/><text fill="#000000" font-family="sans-serif" font-size="12" lengthAdjust="spacing" textLength="10" x="8" y="358.7324">#</text><text fill="#000000" font-family="sans-serif" font-size="12" font-weight="bold" lengthAdjust="spacing" textLength="14" x="20" y="358.7324">ID</text><text fill="#000000" font-family="sans-serif" font-size="12" font-weight="bold" lengthAdjust="spacing" textLength="42" x="36" y="358.7324">Detail</text><text fill="#000000" font-family="sans-serif" font-size="12" font-weight="bold" lengthAdjust="spacing" textLength="100" x="80" y="358.7324">Type de vente</text><text fill="#000000" font-family="sans-serif" font-size="12" font-weight="bold" lengthAdjust="spacing" textLength="151" x="182" y="358.7324">Nombre de paquets*)</text><text fill="#000000" font-family="sans-serif" font-size="12" font-weight="bold" lengthAdjust="spacing" textLength="76" x="339" y="358.7324">Poids (kg)*</text><text fill="#000000" font-family="sans-serif" font-size="12" font-weight="bold" lengthAdjust="spacing" textLength="193" x="417" y="358.7324">Prix moyen (Devise/paquet)</text><text fill="#000000" font-family="sans-serif" font-size="12" font-weight="bold" lengthAdjust="spacing" textLength="125" x="612" y="358.7324">Prix total (Devise)</text><text fill="#000000" font-family="sans-serif" font-size="12" lengthAdjust="spacing" textLength="8" x="8" y="374.7012">1</text><text fill="#000000" font-family="sans-serif" font-size="12" lengthAdjust="spacing" textLength="8" x="20" y="374.7012">1</text><path d="M37.09,363.5625 C37.03,363.5625 37,363.6025 37,363.6525 L37,369.4625 C37,369.5125 37.04,369.5525 37.09,369.5525 L43,369.5525 L45,371.5525 L45,363.6425 C45,363.5825 44.96,363.5525 44.91,363.5525 L37.1,363.5525 " fill="#000000" style="stroke:;stroke-width:0.0;stroke-dasharray:;"/><text fill="#000000" font-family="sans-serif" font-size="12" lengthAdjust="spacing" textLength="73" x="80" y="374.7012">Fishmonger</text><text fill="#000000" font-family="sans-serif" font-size="12" lengthAdjust="spacing" textLength="8" x="182" y="374.7012">5</text><text fill="#000000" font-family="sans-serif" font-size="12" lengthAdjust="spacing" textLength="36" x="335" y="374.7012">484.0</text><text fill="#000000" font-family="sans-serif" font-size="12" lengthAdjust="spacing" textLength="28" x="417" y="374.7012">20.0</text><text fill="#0000FF" font-family="sans-serif" font-size="12" font-style="italic" lengthAdjust="spacing" textLength="36" x="612" y="374.7012">100.0</text><rect fill="#EEEEEE" height="12" rx="5" ry="5" style="stroke:#000000;stroke-width:2.5;" width="20" x="741.5" y="366.0625"/><path d="M750.5,368.0625 C749.95,368.0625 749.5,368.5125 749.5,369.0625 L748.5,369.0625 C747.95,369.0625 747.5,369.5125 747.5,370.0625 L754.5,370.0625 C754.5,369.5125 754.05,369.0625 753.5,369.0625 L752.5,369.0625 C752.5,368.5125 752.05,368.0625 751.5,368.0625 L750.5,368.0625 M748.5,371.0625 L748.5,375.8725 C748.5,375.9825 748.58,376.0625 748.69,376.0625 L753.32,376.0625 C753.43,376.0625 753.51,375.9825 753.51,375.8725 L753.51,371.0625 L752.51,371.0625 L752.51,374.5625 C752.51,374.8425 752.29,375.0625 752.01,375.0625 C751.73,375.0625 751.51,374.8425 751.51,374.5625 L751.51,371.0625 L750.51,371.0625 L750.51,374.5625 C750.51,374.8425 750.29,375.0625 750.01,375.0625 C749.73,375.0625 749.51,374.8425 749.51,374.5625 L749.51,371.0625 L748.51,371.0625 " fill="#000000" style="stroke:;stroke-width:0.0;stroke-dasharray:;"/><line style="stroke:#000000;stroke-width:1.0;" x1="7" x2="19" y1="346.5938" y2="346.5938"/><line style="stroke:#000000;stroke-width:1.0;" x1="19" x2="35" y1="346.5938" y2="346.5938"/><line style="stroke:#000000;stroke-width:1.0;" x1="35" x2="79" y1="346.5938" y2="346.5938"/><line style="stroke:#000000;stroke-width:1.0;" x1="79" x2="181" y1="346.5938" y2="346.5938"/><line style="stroke:#000000;stroke-width:1.0;" x1="181" x2="334" y1="346.5938" y2="346.5938"/><line style="stroke:#000000;stroke-width:1.0;" x1="334" x2="416" y1="346.5938" y2="346.5938"/><line style="stroke:#000000;stroke-width:1.0;" x1="416" x2="611" y1="346.5938" y2="346.5938"/><line style="stroke:#000000;stroke-width:1.0;" x1="611" x2="738" y1="346.5938" y2="346.5938"/><line style="stroke:#000000;stroke-width:1.0;" x1="738" x2="765" y1="346.5938" y2="346.5938"/><line style="stroke:#000000;stroke-width:1.0;" x1="7" x2="19" y1="381.5625" y2="381.5625"/><line style="stroke:#000000;stroke-width:1.0;" x1="19" x2="35" y1="381.5625" y2="381.5625"/><line style="stroke:#000000;stroke-width:1.0;" x1="35" x2="79" y1="381.5625" y2="381.5625"/><line style="stroke:#000000;stroke-width:1.0;" x1="79" x2="181" y1="381.5625" y2="381.5625"/><line style="stroke:#000000;stroke-width:1.0;" x1="181" x2="334" y1="381.5625" y2="381.5625"/><line style="stroke:#000000;stroke-width:1.0;" x1="334" x2="416" y1="381.5625" y2="381.5625"/><line style="stroke:#000000;stroke-width:1.0;" x1="416" x2="611" y1="381.5625" y2="381.5625"/><line style="stroke:#000000;stroke-width:1.0;" x1="611" x2="738" y1="381.5625" y2="381.5625"/><line style="stroke:#000000;stroke-width:1.0;" x1="738" x2="765" y1="381.5625" y2="381.5625"/><line style="stroke:#000000;stroke-width:1.0;" x1="7" x2="19" y1="362.5625" y2="362.5625"/><line style="stroke:#000000;stroke-width:1.0;" x1="19" x2="35" y1="362.5625" y2="362.5625"/><line style="stroke:#000000;stroke-width:1.0;" x1="35" x2="79" y1="362.5625" y2="362.5625"/><line style="stroke:#000000;stroke-width:1.0;" x1="79" x2="181" y1="362.5625" y2="362.5625"/><line style="stroke:#000000;stroke-width:1.0;" x1="181" x2="334" y1="362.5625" y2="362.5625"/><line style="stroke:#000000;stroke-width:1.0;" x1="334" x2="416" y1="362.5625" y2="362.5625"/><line style="stroke:#000000;stroke-width:1.0;" x1="416" x2="611" y1="362.5625" y2="362.5625"/><line style="stroke:#000000;stroke-width:1.0;" x1="611" x2="738" y1="362.5625" y2="362.5625"/><line style="stroke:#000000;stroke-width:1.0;" x1="738" x2="765" y1="362.5625" y2="362.5625"/><line style="stroke:#000000;stroke-width:1.0;" x1="7" x2="7" y1="346.5938" y2="362.5625"/><line style="stroke:#000000;stroke-width:1.0;" x1="19" x2="19" y1="346.5938" y2="362.5625"/><line style="stroke:#000000;stroke-width:1.0;" x1="35" x2="35" y1="346.5938" y2="362.5625"/><line style="stroke:#000000;stroke-width:1.0;" x1="79" x2="79" y1="346.5938" y2="362.5625"/><line style="stroke:#000000;stroke-width:1.0;" x1="181" x2="181" y1="346.5938" y2="362.5625"/><line style="stroke:#000000;stroke-width:1.0;" x1="334" x2="334" y1="346.5938" y2="362.5625"/><line style="stroke:#000000;stroke-width:1.0;" x1="416" x2="416" y1="346.5938" y2="362.5625"/><line style="stroke:#000000;stroke-width:1.0;" x1="611" x2="611" y1="346.5938" y2="362.5625"/><line style="stroke:#000000;stroke-width:1.0;" x1="738" x2="738" y1="346.5938" y2="362.5625"/><line style="stroke:#000000;stroke-width:1.0;" x1="765" x2="765" y1="346.5938" y2="362.5625"/><line style="stroke:#000000;stroke-width:1.0;" x1="7" x2="7" y1="362.5625" y2="381.5625"/><line style="stroke:#000000;stroke-width:1.0;" x1="19" x2="19" y1="362.5625" y2="381.5625"/><line style="stroke:#000000;stroke-width:1.0;" x1="35" x2="35" y1="362.5625" y2="381.5625"/><line style="stroke:#000000;stroke-width:1.0;" x1="79" x2="79" y1="362.5625" y2="381.5625"/><line style="stroke:#000000;stroke-width:1.0;" x1="181" x2="181" y1="362.5625" y2="381.5625"/><line style="stroke:#000000;stroke-width:1.0;" x1="334" x2="334" y1="362.5625" y2="381.5625"/><line style="stroke:#000000;stroke-width:1.0;" x1="416" x2="416" y1="362.5625" y2="381.5625"/><line style="stroke:#000000;stroke-width:1.0;" x1="611" x2="611" y1="362.5625" y2="381.5625"/><line style="stroke:#000000;stroke-width:1.0;" x1="738" x2="738" y1="362.5625" y2="381.5625"/><line style="stroke:#000000;stroke-width:1.0;" x1="765" x2="765" y1="362.5625" y2="381.5625"/><line style="stroke:#AAAAAA;stroke-width:1.0;" x1="6" x2="1110" y1="404.0313" y2="404.0313"/><line style="stroke:#AAAAAA;stroke-width:1.0;" x1="1111" x2="1122" y1="404.0313" y2="404.0313"/><rect fill="#EEEEEE" height="17.9688" rx="5" ry="5" style="stroke:#000000;stroke-width:2.5;" width="260" x="10.5" y="413.0313"/><text fill="#000000" font-family="sans-serif" font-size="12" lengthAdjust="spacing" textLength="200" x="40.5" y="426.1699">Fermer et retour à l'observation</text><rect fill="#EEEEEE" height="17.9688" rx="5" ry="5" style="stroke:#000000;stroke-width:2.5;" width="156" x="277.5" y="413.0313"/><text fill="#000000" font-family="sans-serif" font-size="12" lengthAdjust="spacing" textLength="122" x="294.5" y="426.1699">Saisir les dépenses</text></g></svg>