<?xml version="1.0" encoding="us-ascii" standalone="no"?><svg xmlns="http://www.w3.org/2000/svg" xmlns:xlink="http://www.w3.org/1999/xlink" contentStyleType="text/css" height="455px" preserveAspectRatio="none" style="width:944px;height:455px;background:#FFFFFF;" version="1.1" viewBox="0 0 944 455" width="944px" zoomAndPan="magnify"><defs/><g><text fill="#000000" font-family="sans-serif" font-size="12" font-weight="bold" lengthAdjust="spacing" textLength="248" x="9" y="18.457">Immat Navire - Lieu - Date fin mar&#233;e - M&#233;tier</text><line style="stroke:#AAAAAA;stroke-width:1.0;stroke-dasharray:1.0,2.0;" x1="6" x2="925" y1="26.5938" y2="26.5938"/><text fill="#000000" font-family="sans-serif" font-size="12" lengthAdjust="spacing" textLength="64" x="8" y="43.5508">General trip</text><line style="stroke:#000000;stroke-width:1.0;" x1="6" x2="6" y1="31.0938" y2="46.1875"/><line style="stroke:#000000;stroke-width:1.0;" x1="6" x2="75" y1="31.0938" y2="31.0938"/><line style="stroke:#000000;stroke-width:1.0;" x1="75" x2="75" y1="31.0938" y2="46.1875"/><line style="stroke:#000000;stroke-width:1.0;" x1="75" x2="85" y1="46.1875" y2="46.1875"/><text fill="#000000" font-family="sans-serif" font-size="12" lengthAdjust="spacing" textLength="28" x="87" y="43.5508">Effort</text><line style="stroke:#000000;stroke-width:1.0;" x1="85" x2="85" y1="31.0938" y2="46.1875"/><line style="stroke:#000000;stroke-width:1.0;" x1="85" x2="118" y1="31.0938" y2="31.0938"/><line style="stroke:#000000;stroke-width:1.0;" x1="118" x2="118" y1="31.0938" y2="46.1875"/><line style="stroke:#000000;stroke-width:1.0;" x1="118" x2="128" y1="46.1875" y2="46.1875"/><text fill="#000000" font-family="sans-serif" font-size="12" lengthAdjust="spacing" textLength="107" x="130" y="43.5508">Capture d&#233;barqu&#233;e</text><line style="stroke:#000000;stroke-width:1.0;" x1="128" x2="128" y1="31.0938" y2="46.1875"/><line style="stroke:#000000;stroke-width:1.0;" x1="128" x2="240" y1="31.0938" y2="31.0938"/><line style="stroke:#000000;stroke-width:1.0;" x1="240" x2="240" y1="31.0938" y2="46.1875"/><line style="stroke:#000000;stroke-width:1.0;" x1="240" x2="250" y1="46.1875" y2="46.1875"/><text fill="#000000" font-family="sans-serif" font-size="12" font-weight="bold" lengthAdjust="spacing" textLength="33" x="252" y="43.5508">Vente</text><line style="stroke:#000000;stroke-width:1.0;" x1="250" x2="250" y1="31.0938" y2="46.1875"/><line style="stroke:#000000;stroke-width:1.0;" x1="250" x2="288" y1="31.0938" y2="31.0938"/><line style="stroke:#000000;stroke-width:1.0;" x1="288" x2="288" y1="31.0938" y2="46.1875"/><line style="stroke:#000000;stroke-width:1.0;" x1="288" x2="298" y1="46.1875" y2="46.1875"/><text fill="#000000" font-family="sans-serif" font-size="12" lengthAdjust="spacing" textLength="58" x="300" y="43.5508">D&#233;penses</text><line style="stroke:#000000;stroke-width:1.0;" x1="298" x2="298" y1="31.0938" y2="46.1875"/><line style="stroke:#000000;stroke-width:1.0;" x1="298" x2="361" y1="31.0938" y2="31.0938"/><line style="stroke:#000000;stroke-width:1.0;" x1="361" x2="361" y1="31.0938" y2="46.1875"/><line style="stroke:#000000;stroke-width:1.0;" x1="361" x2="371" y1="46.1875" y2="46.1875"/><text fill="#000000" font-family="sans-serif" font-size="12" lengthAdjust="spacing" textLength="177" x="7" y="78.7383">Estimation des ventes (Devise) :</text><path d="M192,70.375 C189.79,70.375 188,72.165 188,74.375 C188,76.585 189.79,78.375 192,78.375 C194.21,78.375 196,76.585 196,74.375 C196,72.165 194.21,70.375 192,70.375 M192,71.375 L195,74.375 L192,77.375 L192,75.375 L189,75.375 L189,73.375 L192,73.375 L192,71.375 " fill="#000000" style="stroke:;stroke-width:0.0;stroke-dasharray:;"/><text fill="#000000" font-family="sans-serif" font-size="12" lengthAdjust="spacing" textLength="3" x="203" y="79.7383">&#160;</text><line style="stroke:#000000;stroke-width:1.0;" x1="201" x2="292" y1="82.375" y2="82.375"/><line style="stroke:#000000;stroke-width:1.0;" x1="201" x2="201" y1="79.375" y2="81.375"/><line style="stroke:#000000;stroke-width:1.0;" x1="292" x2="292" y1="79.375" y2="81.375"/><line style="stroke:#000000;stroke-width:1.0;" x1="199" x2="295" y1="66.2813" y2="66.2813"/><line style="stroke:#000000;stroke-width:1.0;" x1="199" x2="295" y1="85.375" y2="85.375"/><line style="stroke:#000000;stroke-width:1.0;" x1="199" x2="199" y1="66.2813" y2="85.375"/><line style="stroke:#000000;stroke-width:1.0;" x1="295" x2="295" y1="66.2813" y2="85.375"/><path d="M298.09,66.2813 C298.03,66.2813 298,66.3213 298,66.3713 L298,74.1813 C298,74.2313 298.04,74.2713 298.09,74.2713 L304.9,74.2713 C304.95,74.2713 304.99,74.2313 304.99,74.1813 L304.99,66.3713 C304.99,66.3113 304.95,66.2813 304.9,66.2813 L298.09,66.2813 M299,67.2813 L304,67.2813 L304,69.2813 L299,69.2813 L299,67.2813 M299,70.2813 L300,70.2813 L300,71.2813 L299,71.2813 L299,70.2813 M301,70.2813 L302,70.2813 L302,71.2813 L301,71.2813 L301,70.2813 M303,70.2813 L304,70.2813 L304,73.2813 L303,73.2813 L303,70.2813 M299,72.2813 L300,72.2813 L300,73.2813 L299,73.2813 L299,72.2813 M301,72.2813 L302,72.2813 L302,73.2813 L301,73.2813 L301,72.2813 " fill="#000000" style="stroke:;stroke-width:0.0;stroke-dasharray:;"/><text fill="#000000" font-family="sans-serif" font-size="12" lengthAdjust="spacing" textLength="94" x="310" y="79.7383">Co&#251;t total calcul&#233;</text><text fill="#0000FF" font-family="sans-serif" font-size="12" lengthAdjust="spacing" textLength="38" x="413" y="80.7383">1987.0</text><line style="stroke:#000000;stroke-width:1.0;" x1="408" x2="467" y1="83.375" y2="83.375"/><line style="stroke:#000000;stroke-width:1.0;" x1="408" x2="408" y1="80.375" y2="82.375"/><line style="stroke:#000000;stroke-width:1.0;" x1="467" x2="467" y1="80.375" y2="82.375"/><text fill="#000000" font-family="sans-serif" font-size="12" lengthAdjust="spacing" textLength="38" x="472" y="79.7383">Devise</text><line style="stroke:#AAAAAA;stroke-width:1.0;" x1="6" x2="925" y1="93.875" y2="93.875"/><line style="stroke:#AAAAAA;stroke-width:1.0;" x1="926" x2="937" y1="93.875" y2="93.875"/><text fill="#000000" font-family="sans-serif" font-size="12" font-weight="bold" lengthAdjust="spacing" textLength="100" x="8" y="127.9258">Vente par esp&#232;ce</text><line style="stroke:#000000;stroke-width:1.0;" x1="6" x2="6" y1="115.4688" y2="130.5625"/><line style="stroke:#000000;stroke-width:1.0;" x1="6" x2="111" y1="115.4688" y2="115.4688"/><line style="stroke:#000000;stroke-width:1.0;" x1="111" x2="111" y1="115.4688" y2="130.5625"/><line style="stroke:#000000;stroke-width:1.0;" x1="111" x2="121" y1="130.5625" y2="130.5625"/><text fill="#000000" font-family="sans-serif" font-size="12" lengthAdjust="spacing" textLength="93" x="123" y="127.9258">Vente par paquet</text><line style="stroke:#000000;stroke-width:1.0;" x1="121" x2="121" y1="115.4688" y2="130.5625"/><line style="stroke:#000000;stroke-width:1.0;" x1="121" x2="219" y1="115.4688" y2="115.4688"/><line style="stroke:#000000;stroke-width:1.0;" x1="219" x2="219" y1="115.4688" y2="130.5625"/><line style="stroke:#000000;stroke-width:1.0;" x1="219" x2="229" y1="130.5625" y2="130.5625"/><text fill="#000000" font-family="sans-serif" font-size="12" font-weight="bold" lengthAdjust="spacing" textLength="164" x="7" y="163.1133">D&#233;tail des ventes par esp&#232;ce</text><line style="stroke:#AAAAAA;stroke-width:1.0;stroke-dasharray:1.0,2.0;" x1="7" x2="924" y1="171.25" y2="171.25"/><rect fill="#EEEEEE" height="12" rx="5" ry="5" style="stroke:#000000;stroke-width:2.5;" width="20" x="10.5" y="179.25"/><path d="M19.5,181.25 L19.5,184.25 L16.5,184.25 L16.5,186.25 L19.5,186.25 L19.5,189.25 L21.5,189.25 L21.5,186.25 L24.5,186.25 L24.5,184.25 L21.5,184.25 L21.5,181.25 L19.5,181.25 " fill="#000000" style="stroke:;stroke-width:0.0;stroke-dasharray:;"/><rect fill="#EEEEEE" height="12" rx="5" ry="5" style="stroke:#000000;stroke-width:2.5;" width="20" x="37.5" y="179.25"/><path d="M43.5,181.25 L43.5,183.25 L51.5,183.25 L51.5,181.25 L43.5,181.25 " fill="#000000" style="stroke:;stroke-width:0.0;stroke-dasharray:;"/><rect fill="#EEEEEE" height="12" rx="5" ry="5" style="stroke:#000000;stroke-width:2.5;" width="20" x="64.5" y="179.25"/><path d="M70.5,181.25 L70.5,185.25 L74.5,185.25 L74.5,181.25 L70.5,181.25 M75.5,183.25 L75.5,186.25 L72.5,186.25 L72.5,187.25 L76.5,187.25 L76.5,183.25 L75.5,183.25 M77.5,185.25 L77.5,188.25 L74.5,188.25 L74.5,189.25 L78.5,189.25 L78.5,185.25 L77.5,185.25 " fill="#000000" style="stroke:;stroke-width:0.0;stroke-dasharray:;"/><text fill="#000000" font-family="sans-serif" font-size="12" lengthAdjust="spacing" textLength="7" x="8" y="210.207">#</text><text fill="#000000" font-family="sans-serif" font-size="12" font-weight="bold" lengthAdjust="spacing" textLength="120" x="17" y="210.207">Esp&#232;ce commerciale</text><text fill="#000000" font-family="sans-serif" font-size="12" font-weight="bold" lengthAdjust="spacing" textLength="78" x="139" y="210.207">Type de vente</text><text fill="#000000" font-family="sans-serif" font-size="12" font-weight="bold" lengthAdjust="spacing" textLength="14" x="258" y="210.207">%*</text><text fill="#000000" font-family="sans-serif" font-size="12" font-weight="bold" lengthAdjust="spacing" textLength="84" x="291" y="210.207">Poids Ech. (kg)</text><text fill="#000000" font-family="sans-serif" font-size="12" font-weight="bold" lengthAdjust="spacing" textLength="45" x="377" y="210.207">NB indiv</text><text fill="#000000" font-family="sans-serif" font-size="12" font-weight="bold" lengthAdjust="spacing" textLength="60" x="424" y="210.207">Packaging</text><text fill="#000000" font-family="sans-serif" font-size="12" font-weight="bold" lengthAdjust="spacing" textLength="130" x="486" y="210.207">Prix moyen (Devise/kg)</text><text fill="#000000" font-family="sans-serif" font-size="12" font-weight="bold" lengthAdjust="spacing" textLength="175" x="618" y="210.207">Prix moyen (Devise/packaging)</text><text fill="#000000" font-family="sans-serif" font-size="12" font-weight="bold" lengthAdjust="spacing" textLength="100" x="795" y="210.207">Prix total (Devise)</text><text fill="#000000" font-family="sans-serif" font-size="12" lengthAdjust="spacing" textLength="7" x="8" y="227.3008">1</text><text fill="#000000" font-family="sans-serif" font-size="12" lengthAdjust="spacing" textLength="105" x="17" y="227.3008">Anba Iasann - PWT</text><text fill="#000000" font-family="sans-serif" font-size="12" lengthAdjust="spacing" textLength="38" x="139" y="227.3008">market</text><text fill="#000000" font-family="sans-serif" font-size="12" lengthAdjust="spacing" textLength="31" x="258" y="227.3008">100.0</text><text fill="#0000FF" font-family="sans-serif" font-size="12" font-style="italic" lengthAdjust="spacing" textLength="31" x="291" y="227.3008">200.0</text><text fill="#000000" font-family="sans-serif" font-size="12" lengthAdjust="spacing" textLength="14" x="377" y="227.3008">45</text><text fill="#000000" font-family="sans-serif" font-size="12" lengthAdjust="spacing" textLength="22" x="424" y="227.3008">Unit</text><text fill="#000000" font-family="sans-serif" font-size="12" lengthAdjust="spacing" textLength="17" x="486" y="227.3008">5.0</text><text fill="#0000FF" font-family="sans-serif" font-size="12" font-style="italic" lengthAdjust="spacing" textLength="24" x="618" y="227.3008">67.0</text><text fill="#0000FF" font-family="sans-serif" font-size="12" font-style="italic" lengthAdjust="spacing" textLength="31" x="795" y="227.3008">335.0</text><rect fill="#EEEEEE" height="12" rx="5" ry="5" style="stroke:#000000;stroke-width:2.5;" width="20" x="899.5" y="217.3438"/><path d="M908.5,219.3438 C907.95,219.3438 907.5,219.7938 907.5,220.3438 L906.5,220.3438 C905.95,220.3438 905.5,220.7938 905.5,221.3438 L912.5,221.3438 C912.5,220.7938 912.05,220.3438 911.5,220.3438 L910.5,220.3438 C910.5,219.7938 910.05,219.3438 909.5,219.3438 L908.5,219.3438 M906.5,222.3438 L906.5,227.1538 C906.5,227.2638 906.58,227.3438 906.69,227.3438 L911.32,227.3438 C911.43,227.3438 911.51,227.2638 911.51,227.1538 L911.51,222.3438 L910.51,222.3438 L910.51,225.8438 C910.51,226.1238 910.29,226.3438 910.01,226.3438 C909.73,226.3438 909.51,226.1238 909.51,225.8438 L909.51,222.3438 L908.51,222.3438 L908.51,225.8438 C908.51,226.1238 908.29,226.3438 908.01,226.3438 C907.73,226.3438 907.51,226.1238 907.51,225.8438 L907.51,222.3438 L906.51,222.3438 " fill="#000000" style="stroke:;stroke-width:0.0;stroke-dasharray:;"/><text fill="#000000" font-family="sans-serif" font-size="12" lengthAdjust="spacing" textLength="7" x="8" y="246.3008">2</text><text fill="#000000" font-family="sans-serif" font-size="12" lengthAdjust="spacing" textLength="68" x="17" y="246.3008">Barwa - LXN</text><text fill="#000000" font-family="sans-serif" font-size="12" lengthAdjust="spacing" textLength="117" x="139" y="246.3008">Hotel and Restaurant</text><text fill="#000000" font-family="sans-serif" font-size="12" lengthAdjust="spacing" textLength="31" x="258" y="246.3008">100.0</text><text fill="#0000FF" font-family="sans-serif" font-size="12" font-style="italic" lengthAdjust="spacing" textLength="24" x="291" y="246.3008">26.0</text><text fill="#000000" font-family="sans-serif" font-size="12" lengthAdjust="spacing" textLength="7" x="377" y="246.3008">3</text><text fill="#000000" font-family="sans-serif" font-size="12" lengthAdjust="spacing" textLength="22" x="424" y="246.3008">Unit</text><text fill="#000000" font-family="sans-serif" font-size="12" lengthAdjust="spacing" textLength="17" x="486" y="246.3008">2.5</text><text fill="#0000FF" font-family="sans-serif" font-size="12" font-style="italic" lengthAdjust="spacing" textLength="31" x="618" y="246.3008">11.11</text><text fill="#0000FF" font-family="sans-serif" font-size="12" font-style="italic" lengthAdjust="spacing" textLength="31" x="795" y="246.3008">500.0</text><rect fill="#EEEEEE" height="12" rx="5" ry="5" style="stroke:#000000;stroke-width:2.5;" width="20" x="899.5" y="236.3438"/><path d="M908.5,238.3438 C907.95,238.3438 907.5,238.7938 907.5,239.3438 L906.5,239.3438 C905.95,239.3438 905.5,239.7938 905.5,240.3438 L912.5,240.3438 C912.5,239.7938 912.05,239.3438 911.5,239.3438 L910.5,239.3438 C910.5,238.7938 910.05,238.3438 909.5,238.3438 L908.5,238.3438 M906.5,241.3438 L906.5,246.1538 C906.5,246.2638 906.58,246.3438 906.69,246.3438 L911.32,246.3438 C911.43,246.3438 911.51,246.2638 911.51,246.1538 L911.51,241.3438 L910.51,241.3438 L910.51,244.8438 C910.51,245.1238 910.29,245.3438 910.01,245.3438 C909.73,245.3438 909.51,245.1238 909.51,244.8438 L909.51,241.3438 L908.51,241.3438 L908.51,244.8438 C908.51,245.1238 908.29,245.3438 908.01,245.3438 C907.73,245.3438 907.51,245.1238 907.51,244.8438 L907.51,241.3438 L906.51,241.3438 " fill="#000000" style="stroke:;stroke-width:0.0;stroke-dasharray:;"/><line style="stroke:#000000;stroke-width:1.0;" x1="7" x2="16" y1="196.75" y2="196.75"/><line style="stroke:#000000;stroke-width:1.0;" x1="16" x2="138" y1="196.75" y2="196.75"/><line style="stroke:#000000;stroke-width:1.0;" x1="138" x2="257" y1="196.75" y2="196.75"/><line style="stroke:#000000;stroke-width:1.0;" x1="257" x2="290" y1="196.75" y2="196.75"/><line style="stroke:#000000;stroke-width:1.0;" x1="290" x2="376" y1="196.75" y2="196.75"/><line style="stroke:#000000;stroke-width:1.0;" x1="376" x2="423" y1="196.75" y2="196.75"/><line style="stroke:#000000;stroke-width:1.0;" x1="423" x2="485" y1="196.75" y2="196.75"/><line style="stroke:#000000;stroke-width:1.0;" x1="485" x2="617" y1="196.75" y2="196.75"/><line style="stroke:#000000;stroke-width:1.0;" x1="617" x2="794" y1="196.75" y2="196.75"/><line style="stroke:#000000;stroke-width:1.0;" x1="794" x2="896" y1="196.75" y2="196.75"/><line style="stroke:#000000;stroke-width:1.0;" x1="896" x2="923" y1="196.75" y2="196.75"/><line style="stroke:#000000;stroke-width:1.0;" x1="7" x2="16" y1="251.8438" y2="251.8438"/><line style="stroke:#000000;stroke-width:1.0;" x1="16" x2="138" y1="251.8438" y2="251.8438"/><line style="stroke:#000000;stroke-width:1.0;" x1="138" x2="257" y1="251.8438" y2="251.8438"/><line style="stroke:#000000;stroke-width:1.0;" x1="257" x2="290" y1="251.8438" y2="251.8438"/><line style="stroke:#000000;stroke-width:1.0;" x1="290" x2="376" y1="251.8438" y2="251.8438"/><line style="stroke:#000000;stroke-width:1.0;" x1="376" x2="423" y1="251.8438" y2="251.8438"/><line style="stroke:#000000;stroke-width:1.0;" x1="423" x2="485" y1="251.8438" y2="251.8438"/><line style="stroke:#000000;stroke-width:1.0;" x1="485" x2="617" y1="251.8438" y2="251.8438"/><line style="stroke:#000000;stroke-width:1.0;" x1="617" x2="794" y1="251.8438" y2="251.8438"/><line style="stroke:#000000;stroke-width:1.0;" x1="794" x2="896" y1="251.8438" y2="251.8438"/><line style="stroke:#000000;stroke-width:1.0;" x1="896" x2="923" y1="251.8438" y2="251.8438"/><line style="stroke:#000000;stroke-width:1.0;" x1="7" x2="16" y1="232.8438" y2="232.8438"/><line style="stroke:#000000;stroke-width:1.0;" x1="16" x2="138" y1="232.8438" y2="232.8438"/><line style="stroke:#000000;stroke-width:1.0;" x1="138" x2="257" y1="232.8438" y2="232.8438"/><line style="stroke:#000000;stroke-width:1.0;" x1="257" x2="290" y1="232.8438" y2="232.8438"/><line style="stroke:#000000;stroke-width:1.0;" x1="290" x2="376" y1="232.8438" y2="232.8438"/><line style="stroke:#000000;stroke-width:1.0;" x1="376" x2="423" y1="232.8438" y2="232.8438"/><line style="stroke:#000000;stroke-width:1.0;" x1="423" x2="485" y1="232.8438" y2="232.8438"/><line style="stroke:#000000;stroke-width:1.0;" x1="485" x2="617" y1="232.8438" y2="232.8438"/><line style="stroke:#000000;stroke-width:1.0;" x1="617" x2="794" y1="232.8438" y2="232.8438"/><line style="stroke:#000000;stroke-width:1.0;" x1="794" x2="896" y1="232.8438" y2="232.8438"/><line style="stroke:#000000;stroke-width:1.0;" x1="896" x2="923" y1="232.8438" y2="232.8438"/><line style="stroke:#000000;stroke-width:1.0;" x1="7" x2="16" y1="213.8438" y2="213.8438"/><line style="stroke:#000000;stroke-width:1.0;" x1="16" x2="138" y1="213.8438" y2="213.8438"/><line style="stroke:#000000;stroke-width:1.0;" x1="138" x2="257" y1="213.8438" y2="213.8438"/><line style="stroke:#000000;stroke-width:1.0;" x1="257" x2="290" y1="213.8438" y2="213.8438"/><line style="stroke:#000000;stroke-width:1.0;" x1="290" x2="376" y1="213.8438" y2="213.8438"/><line style="stroke:#000000;stroke-width:1.0;" x1="376" x2="423" y1="213.8438" y2="213.8438"/><line style="stroke:#000000;stroke-width:1.0;" x1="423" x2="485" y1="213.8438" y2="213.8438"/><line style="stroke:#000000;stroke-width:1.0;" x1="485" x2="617" y1="213.8438" y2="213.8438"/><line style="stroke:#000000;stroke-width:1.0;" x1="617" x2="794" y1="213.8438" y2="213.8438"/><line style="stroke:#000000;stroke-width:1.0;" x1="794" x2="896" y1="213.8438" y2="213.8438"/><line style="stroke:#000000;stroke-width:1.0;" x1="896" x2="923" y1="213.8438" y2="213.8438"/><line style="stroke:#000000;stroke-width:1.0;" x1="7" x2="7" y1="196.75" y2="213.8438"/><line style="stroke:#000000;stroke-width:1.0;" x1="16" x2="16" y1="196.75" y2="213.8438"/><line style="stroke:#000000;stroke-width:1.0;" x1="138" x2="138" y1="196.75" y2="213.8438"/><line style="stroke:#000000;stroke-width:1.0;" x1="257" x2="257" y1="196.75" y2="213.8438"/><line style="stroke:#000000;stroke-width:1.0;" x1="290" x2="290" y1="196.75" y2="213.8438"/><line style="stroke:#000000;stroke-width:1.0;" x1="376" x2="376" y1="196.75" y2="213.8438"/><line style="stroke:#000000;stroke-width:1.0;" x1="423" x2="423" y1="196.75" y2="213.8438"/><line style="stroke:#000000;stroke-width:1.0;" x1="485" x2="485" y1="196.75" y2="213.8438"/><line style="stroke:#000000;stroke-width:1.0;" x1="617" x2="617" y1="196.75" y2="213.8438"/><line style="stroke:#000000;stroke-width:1.0;" x1="794" x2="794" y1="196.75" y2="213.8438"/><line style="stroke:#000000;stroke-width:1.0;" x1="896" x2="896" y1="196.75" y2="213.8438"/><line style="stroke:#000000;stroke-width:1.0;" x1="923" x2="923" y1="196.75" y2="213.8438"/><line style="stroke:#000000;stroke-width:1.0;" x1="7" x2="7" y1="232.8438" y2="251.8438"/><line style="stroke:#000000;stroke-width:1.0;" x1="16" x2="16" y1="232.8438" y2="251.8438"/><line style="stroke:#000000;stroke-width:1.0;" x1="138" x2="138" y1="232.8438" y2="251.8438"/><line style="stroke:#000000;stroke-width:1.0;" x1="257" x2="257" y1="232.8438" y2="251.8438"/><line style="stroke:#000000;stroke-width:1.0;" x1="290" x2="290" y1="232.8438" y2="251.8438"/><line style="stroke:#000000;stroke-width:1.0;" x1="376" x2="376" y1="232.8438" y2="251.8438"/><line style="stroke:#000000;stroke-width:1.0;" x1="423" x2="423" y1="232.8438" y2="251.8438"/><line style="stroke:#000000;stroke-width:1.0;" x1="485" x2="485" y1="232.8438" y2="251.8438"/><line style="stroke:#000000;stroke-width:1.0;" x1="617" x2="617" y1="232.8438" y2="251.8438"/><line style="stroke:#000000;stroke-width:1.0;" x1="794" x2="794" y1="232.8438" y2="251.8438"/><line style="stroke:#000000;stroke-width:1.0;" x1="896" x2="896" y1="232.8438" y2="251.8438"/><line style="stroke:#000000;stroke-width:1.0;" x1="923" x2="923" y1="232.8438" y2="251.8438"/><line style="stroke:#000000;stroke-width:1.0;" x1="7" x2="7" y1="213.8438" y2="232.8438"/><line style="stroke:#000000;stroke-width:1.0;" x1="16" x2="16" y1="213.8438" y2="232.8438"/><line style="stroke:#000000;stroke-width:1.0;" x1="138" x2="138" y1="213.8438" y2="232.8438"/><line style="stroke:#000000;stroke-width:1.0;" x1="257" x2="257" y1="213.8438" y2="232.8438"/><line style="stroke:#000000;stroke-width:1.0;" x1="290" x2="290" y1="213.8438" y2="232.8438"/><line style="stroke:#000000;stroke-width:1.0;" x1="376" x2="376" y1="213.8438" y2="232.8438"/><line style="stroke:#000000;stroke-width:1.0;" x1="423" x2="423" y1="213.8438" y2="232.8438"/><line style="stroke:#000000;stroke-width:1.0;" x1="485" x2="485" y1="213.8438" y2="232.8438"/><line style="stroke:#000000;stroke-width:1.0;" x1="617" x2="617" y1="213.8438" y2="232.8438"/><line style="stroke:#000000;stroke-width:1.0;" x1="794" x2="794" y1="213.8438" y2="232.8438"/><line style="stroke:#000000;stroke-width:1.0;" x1="896" x2="896" y1="213.8438" y2="232.8438"/><line style="stroke:#000000;stroke-width:1.0;" x1="923" x2="923" y1="213.8438" y2="232.8438"/><line style="stroke:#AAAAAA;stroke-width:1.0;" x1="6" x2="925" y1="275.4375" y2="275.4375"/><line style="stroke:#AAAAAA;stroke-width:1.0;" x1="926" x2="937" y1="275.4375" y2="275.4375"/><text fill="#000000" font-family="sans-serif" font-size="12" lengthAdjust="spacing" textLength="96" x="8" y="292.3945">Vente par esp&#232;ce</text><line style="stroke:#000000;stroke-width:1.0;" x1="6" x2="6" y1="279.9375" y2="295.0313"/><line style="stroke:#000000;stroke-width:1.0;" x1="6" x2="107" y1="279.9375" y2="279.9375"/><line style="stroke:#000000;stroke-width:1.0;" x1="107" x2="107" y1="279.9375" y2="295.0313"/><line style="stroke:#000000;stroke-width:1.0;" x1="107" x2="117" y1="295.0313" y2="295.0313"/><text fill="#000000" font-family="sans-serif" font-size="12" font-weight="bold" lengthAdjust="spacing" textLength="97" x="119" y="292.3945">Vente par paquet</text><line style="stroke:#000000;stroke-width:1.0;" x1="117" x2="117" y1="279.9375" y2="295.0313"/><line style="stroke:#000000;stroke-width:1.0;" x1="117" x2="219" y1="279.9375" y2="279.9375"/><line style="stroke:#000000;stroke-width:1.0;" x1="219" x2="219" y1="279.9375" y2="295.0313"/><line style="stroke:#000000;stroke-width:1.0;" x1="219" x2="229" y1="295.0313" y2="295.0313"/><text fill="#000000" font-family="sans-serif" font-size="12" font-weight="bold" lengthAdjust="spacing" textLength="161" x="7" y="327.582">D&#233;tail des ventes par paquet</text><line style="stroke:#AAAAAA;stroke-width:1.0;stroke-dasharray:1.0,2.0;" x1="7" x2="619" y1="335.7188" y2="335.7188"/><rect fill="#EEEEEE" height="12" rx="5" ry="5" style="stroke:#000000;stroke-width:2.5;" width="20" x="10.5" y="343.7188"/><path d="M19.5,345.7188 L19.5,348.7188 L16.5,348.7188 L16.5,350.7188 L19.5,350.7188 L19.5,353.7188 L21.5,353.7188 L21.5,350.7188 L24.5,350.7188 L24.5,348.7188 L21.5,348.7188 L21.5,345.7188 L19.5,345.7188 " fill="#000000" style="stroke:;stroke-width:0.0;stroke-dasharray:;"/><rect fill="#EEEEEE" height="12" rx="5" ry="5" style="stroke:#000000;stroke-width:2.5;" width="20" x="37.5" y="343.7188"/><path d="M43.5,345.7188 L43.5,347.7188 L51.5,347.7188 L51.5,345.7188 L43.5,345.7188 " fill="#000000" style="stroke:;stroke-width:0.0;stroke-dasharray:;"/><rect fill="#EEEEEE" height="12" rx="5" ry="5" style="stroke:#000000;stroke-width:2.5;" width="20" x="64.5" y="343.7188"/><path d="M70.5,345.7188 L70.5,349.7188 L74.5,349.7188 L74.5,345.7188 L70.5,345.7188 M75.5,347.7188 L75.5,350.7188 L72.5,350.7188 L72.5,351.7188 L76.5,351.7188 L76.5,347.7188 L75.5,347.7188 M77.5,349.7188 L77.5,352.7188 L74.5,352.7188 L74.5,353.7188 L78.5,353.7188 L78.5,349.7188 L77.5,349.7188 " fill="#000000" style="stroke:;stroke-width:0.0;stroke-dasharray:;"/><text fill="#000000" font-family="sans-serif" font-size="12" lengthAdjust="spacing" textLength="7" x="8" y="374.6758">#</text><text fill="#000000" font-family="sans-serif" font-size="12" font-weight="bold" lengthAdjust="spacing" textLength="11" x="17" y="374.6758">ID</text><text fill="#000000" font-family="sans-serif" font-size="12" font-weight="bold" lengthAdjust="spacing" textLength="32" x="30" y="374.6758">Detail</text><text fill="#000000" font-family="sans-serif" font-size="12" font-weight="bold" lengthAdjust="spacing" textLength="78" x="64" y="374.6758">Type de vente</text><text fill="#000000" font-family="sans-serif" font-size="12" font-weight="bold" lengthAdjust="spacing" textLength="120" x="144" y="374.6758">Nombre de paquets*)</text><text fill="#000000" font-family="sans-serif" font-size="12" font-weight="bold" lengthAdjust="spacing" textLength="62" x="269" y="374.6758">Poids (kg)*</text><text fill="#000000" font-family="sans-serif" font-size="12" font-weight="bold" lengthAdjust="spacing" textLength="155" x="333" y="374.6758">Prix moyen (Devise/paquet)</text><text fill="#000000" font-family="sans-serif" font-size="12" font-weight="bold" lengthAdjust="spacing" textLength="100" x="490" y="374.6758">Prix total (Devise)</text><text fill="#000000" font-family="sans-serif" font-size="12" lengthAdjust="spacing" textLength="7" x="8" y="391.7695">1</text><text fill="#000000" font-family="sans-serif" font-size="12" lengthAdjust="spacing" textLength="7" x="17" y="391.7695">1</text><path d="M31.09,379.3125 C31.03,379.3125 31,379.3525 31,379.4025 L31,385.2125 C31,385.2625 31.04,385.3025 31.09,385.3025 L37,385.3025 L39,387.3025 L39,379.3925 C39,379.3325 38.96,379.3025 38.91,379.3025 L31.1,379.3025 " fill="#000000" style="stroke:;stroke-width:0.0;stroke-dasharray:;"/><text fill="#000000" font-family="sans-serif" font-size="12" lengthAdjust="spacing" textLength="67" x="64" y="391.7695">Fishmonger</text><text fill="#000000" font-family="sans-serif" font-size="12" lengthAdjust="spacing" textLength="7" x="144" y="391.7695">5</text><text fill="#000000" font-family="sans-serif" font-size="12" lengthAdjust="spacing" textLength="31" x="266" y="391.7695">484.0</text><text fill="#000000" font-family="sans-serif" font-size="12" lengthAdjust="spacing" textLength="24" x="333" y="391.7695">20.0</text><text fill="#0000FF" font-family="sans-serif" font-size="12" font-style="italic" lengthAdjust="spacing" textLength="31" x="490" y="391.7695">100.0</text><rect fill="#EEEEEE" height="12" rx="5" ry="5" style="stroke:#000000;stroke-width:2.5;" width="20" x="594.5" y="381.8125"/><path d="M603.5,383.8125 C602.95,383.8125 602.5,384.2625 602.5,384.8125 L601.5,384.8125 C600.95,384.8125 600.5,385.2625 600.5,385.8125 L607.5,385.8125 C607.5,385.2625 607.05,384.8125 606.5,384.8125 L605.5,384.8125 C605.5,384.2625 605.05,383.8125 604.5,383.8125 L603.5,383.8125 M601.5,386.8125 L601.5,391.6225 C601.5,391.7325 601.58,391.8125 601.69,391.8125 L606.32,391.8125 C606.43,391.8125 606.51,391.7325 606.51,391.6225 L606.51,386.8125 L605.51,386.8125 L605.51,390.3125 C605.51,390.5925 605.29,390.8125 605.01,390.8125 C604.73,390.8125 604.51,390.5925 604.51,390.3125 L604.51,386.8125 L603.51,386.8125 L603.51,390.3125 C603.51,390.5925 603.29,390.8125 603.01,390.8125 C602.73,390.8125 602.51,390.5925 602.51,390.3125 L602.51,386.8125 L601.51,386.8125 " fill="#000000" style="stroke:;stroke-width:0.0;stroke-dasharray:;"/><line style="stroke:#000000;stroke-width:1.0;" x1="7" x2="16" y1="361.2188" y2="361.2188"/><line style="stroke:#000000;stroke-width:1.0;" x1="16" x2="29" y1="361.2188" y2="361.2188"/><line style="stroke:#000000;stroke-width:1.0;" x1="29" x2="63" y1="361.2188" y2="361.2188"/><line style="stroke:#000000;stroke-width:1.0;" x1="63" x2="143" y1="361.2188" y2="361.2188"/><line style="stroke:#000000;stroke-width:1.0;" x1="143" x2="265" y1="361.2188" y2="361.2188"/><line style="stroke:#000000;stroke-width:1.0;" x1="265" x2="332" y1="361.2188" y2="361.2188"/><line style="stroke:#000000;stroke-width:1.0;" x1="332" x2="489" y1="361.2188" y2="361.2188"/><line style="stroke:#000000;stroke-width:1.0;" x1="489" x2="591" y1="361.2188" y2="361.2188"/><line style="stroke:#000000;stroke-width:1.0;" x1="591" x2="618" y1="361.2188" y2="361.2188"/><line style="stroke:#000000;stroke-width:1.0;" x1="7" x2="16" y1="397.3125" y2="397.3125"/><line style="stroke:#000000;stroke-width:1.0;" x1="16" x2="29" y1="397.3125" y2="397.3125"/><line style="stroke:#000000;stroke-width:1.0;" x1="29" x2="63" y1="397.3125" y2="397.3125"/><line style="stroke:#000000;stroke-width:1.0;" x1="63" x2="143" y1="397.3125" y2="397.3125"/><line style="stroke:#000000;stroke-width:1.0;" x1="143" x2="265" y1="397.3125" y2="397.3125"/><line style="stroke:#000000;stroke-width:1.0;" x1="265" x2="332" y1="397.3125" y2="397.3125"/><line style="stroke:#000000;stroke-width:1.0;" x1="332" x2="489" y1="397.3125" y2="397.3125"/><line style="stroke:#000000;stroke-width:1.0;" x1="489" x2="591" y1="397.3125" y2="397.3125"/><line style="stroke:#000000;stroke-width:1.0;" x1="591" x2="618" y1="397.3125" y2="397.3125"/><line style="stroke:#000000;stroke-width:1.0;" x1="7" x2="16" y1="378.3125" y2="378.3125"/><line style="stroke:#000000;stroke-width:1.0;" x1="16" x2="29" y1="378.3125" y2="378.3125"/><line style="stroke:#000000;stroke-width:1.0;" x1="29" x2="63" y1="378.3125" y2="378.3125"/><line style="stroke:#000000;stroke-width:1.0;" x1="63" x2="143" y1="378.3125" y2="378.3125"/><line style="stroke:#000000;stroke-width:1.0;" x1="143" x2="265" y1="378.3125" y2="378.3125"/><line style="stroke:#000000;stroke-width:1.0;" x1="265" x2="332" y1="378.3125" y2="378.3125"/><line style="stroke:#000000;stroke-width:1.0;" x1="332" x2="489" y1="378.3125" y2="378.3125"/><line style="stroke:#000000;stroke-width:1.0;" x1="489" x2="591" y1="378.3125" y2="378.3125"/><line style="stroke:#000000;stroke-width:1.0;" x1="591" x2="618" y1="378.3125" y2="378.3125"/><line style="stroke:#000000;stroke-width:1.0;" x1="7" x2="7" y1="361.2188" y2="378.3125"/><line style="stroke:#000000;stroke-width:1.0;" x1="16" x2="16" y1="361.2188" y2="378.3125"/><line style="stroke:#000000;stroke-width:1.0;" x1="29" x2="29" y1="361.2188" y2="378.3125"/><line style="stroke:#000000;stroke-width:1.0;" x1="63" x2="63" y1="361.2188" y2="378.3125"/><line style="stroke:#000000;stroke-width:1.0;" x1="143" x2="143" y1="361.2188" y2="378.3125"/><line style="stroke:#000000;stroke-width:1.0;" x1="265" x2="265" y1="361.2188" y2="378.3125"/><line style="stroke:#000000;stroke-width:1.0;" x1="332" x2="332" y1="361.2188" y2="378.3125"/><line style="stroke:#000000;stroke-width:1.0;" x1="489" x2="489" y1="361.2188" y2="378.3125"/><line style="stroke:#000000;stroke-width:1.0;" x1="591" x2="591" y1="361.2188" y2="378.3125"/><line style="stroke:#000000;stroke-width:1.0;" x1="618" x2="618" y1="361.2188" y2="378.3125"/><line style="stroke:#000000;stroke-width:1.0;" x1="7" x2="7" y1="378.3125" y2="397.3125"/><line style="stroke:#000000;stroke-width:1.0;" x1="16" x2="16" y1="378.3125" y2="397.3125"/><line style="stroke:#000000;stroke-width:1.0;" x1="29" x2="29" y1="378.3125" y2="397.3125"/><line style="stroke:#000000;stroke-width:1.0;" x1="63" x2="63" y1="378.3125" y2="397.3125"/><line style="stroke:#000000;stroke-width:1.0;" x1="143" x2="143" y1="378.3125" y2="397.3125"/><line style="stroke:#000000;stroke-width:1.0;" x1="265" x2="265" y1="378.3125" y2="397.3125"/><line style="stroke:#000000;stroke-width:1.0;" x1="332" x2="332" y1="378.3125" y2="397.3125"/><line style="stroke:#000000;stroke-width:1.0;" x1="489" x2="489" y1="378.3125" y2="397.3125"/><line style="stroke:#000000;stroke-width:1.0;" x1="591" x2="591" y1="378.3125" y2="397.3125"/><line style="stroke:#000000;stroke-width:1.0;" x1="618" x2="618" y1="378.3125" y2="397.3125"/><line style="stroke:#AAAAAA;stroke-width:1.0;" x1="6" x2="925" y1="420.9063" y2="420.9063"/><line style="stroke:#AAAAAA;stroke-width:1.0;" x1="926" x2="937" y1="420.9063" y2="420.9063"/><rect fill="#EEEEEE" height="19.0938" rx="5" ry="5" style="stroke:#000000;stroke-width:2.5;" width="260" x="10.5" y="429.9063"/><text fill="#000000" font-family="sans-serif" font-size="12" lengthAdjust="spacing" textLength="170" x="55.5" y="444.3633">Fermer et retour &#224; l'observation</text><rect fill="#EEEEEE" height="19.0938" rx="5" ry="5" style="stroke:#000000;stroke-width:2.5;" width="156" x="277.5" y="429.9063"/><text fill="#000000" font-family="sans-serif" font-size="12" lengthAdjust="spacing" textLength="111" x="300" y="444.3633">Saisir les d&#233;penses</text></g></svg>