<?xml version="1.0" encoding="UTF-8" standalone="no"?><svg xmlns="http://www.w3.org/2000/svg" xmlns:xlink="http://www.w3.org/1999/xlink" contentScriptType="application/ecmascript" contentStyleType="text/css" height="71px" preserveAspectRatio="none" style="width:212px;height:71px;" version="1.1" viewBox="0 0 212 71" width="212px" zoomAndPan="magnify"><defs/><g><text fill="#000000" font-family="sans-serif" font-size="12" lengthAdjust="spacingAndGlyphs" textLength="31" x="6" y="18.457">Login</text><path d="M42,10.0938 C40.895,10.0938 40,11.2128 40,12.5938 C40,13.9748 40.895,15.0938 42,15.0938 C43.105,15.0938 44,13.9748 44,12.5938 C44,11.2128 43.105,10.0938 42,10.0938 M39.906,15.0938 C38.836,15.1338 38,16.0138 38,17.0938 L38,18.0938 L46,18.0938 L46,17.0938 C46,16.0138 45.164,15.1338 44.094,15.0938 C43.554,15.7038 42.81,16.0938 42,16.0938 C41.19,16.0938 40.446,15.7038 39.906,15.0938 " fill="#000000" style="stroke: ; stroke-width: 0.0; stroke-dasharray: ;"/><text fill="#000000" font-family="sans-serif" font-size="12" lengthAdjust="spacingAndGlyphs" textLength="48" x="100" y="18.457">MyName</text><line style="stroke: #000000; stroke-width: 1.0;" x1="98" x2="189" y1="21.0938" y2="21.0938"/><line style="stroke: #000000; stroke-width: 1.0;" x1="98" x2="98" y1="18.0938" y2="20.0938"/><line style="stroke: #000000; stroke-width: 1.0;" x1="189" x2="189" y1="18.0938" y2="20.0938"/><text fill="#000000" font-family="sans-serif" font-size="12" lengthAdjust="spacingAndGlyphs" textLength="56" x="6" y="37.5508">Password</text><path d="M68.5,29.1875 C67.12,29.1875 66,30.3075 66,31.6875 C66,31.8475 66.033,31.9845 66.063,32.1255 L63,35.1885 L63,37.1885 L66,37.1885 L66,35.1885 L68,35.1885 L68,34.1885 L68.063,34.1255 C68.203,34.1555 68.34,34.1885 68.501,34.1885 C69.881,34.1885 71.001,33.0685 71.001,31.6885 C71.001,30.3085 69.881,29.1885 68.501,29.1885 M69.001,30.1885 C69.551,30.1885 70.001,30.6385 70.001,31.1885 C70.001,31.7385 69.551,32.1885 69.001,32.1885 C68.451,32.1885 68.001,31.7385 68.001,31.1885 C68.001,30.6385 68.451,30.1885 69.001,30.1885 " fill="#000000" style="stroke: ; stroke-width: 0.0; stroke-dasharray: ;"/><text fill="#000000" font-family="sans-serif" font-size="12" lengthAdjust="spacingAndGlyphs" textLength="20" x="100" y="37.5508">****</text><line style="stroke: #000000; stroke-width: 1.0;" x1="98" x2="205" y1="40.1875" y2="40.1875"/><line style="stroke: #000000; stroke-width: 1.0;" x1="98" x2="98" y1="37.1875" y2="39.1875"/><line style="stroke: #000000; stroke-width: 1.0;" x1="205" x2="205" y1="37.1875" y2="39.1875"/><rect fill="#EEEEEE" height="19.0938" rx="5" ry="5" style="stroke: #000000; stroke-width: 2.5;" width="84" x="8.5" y="46.6875"/><text fill="#000000" font-family="sans-serif" font-size="12" lengthAdjust="spacingAndGlyphs" textLength="39" x="23" y="61.1445">Cancel</text><path d="M73,52.7813 C70.79,52.7813 69,54.5713 69,56.7813 C69,58.9913 70.79,60.7813 73,60.7813 C75.21,60.7813 77,58.9913 77,56.7813 C77,54.5713 75.21,52.7813 73,52.7813 M71.5,54.5623 L73,56.0623 L74.5,54.5623 L75.219,55.2813 L73.719,56.7813 L75.219,58.2813 L74.5,59.0003 L73,57.5003 L71.5,59.0003 L70.781,58.2813 L72.281,56.7813 L70.781,55.2813 L71.5,54.5623 " fill="#000000" style="stroke: ; stroke-width: 0.0; stroke-dasharray: ;"/><rect fill="#EEEEEE" height="19.0938" rx="5" ry="5" style="stroke: #000000; stroke-width: 2.5;" width="52" x="99.5" y="46.6875"/><text fill="#000000" font-family="sans-serif" font-size="12" lengthAdjust="spacingAndGlyphs" textLength="17" x="109" y="61.1445">OK</text><path d="M136,52.7813 L136,53.7813 L140,53.7813 L140,58.7813 L136,58.7813 L136,59.7813 L141,59.7813 L141,52.7813 L136,52.7813 M137,54.7813 L137,55.7813 L133,55.7813 L133,56.7813 L137,56.7813 L137,57.7813 L139,56.2813 L137,54.7813 " fill="#000000" style="stroke: ; stroke-width: 0.0; stroke-dasharray: ;"/></g></svg>