<?xml version="1.0" encoding="us-ascii" standalone="no"?><svg xmlns="http://www.w3.org/2000/svg" xmlns:xlink="http://www.w3.org/1999/xlink" contentStyleType="text/css" height="399px" preserveAspectRatio="none" style="width:499px;height:399px;background:#FFFFFF;" version="1.1" viewBox="0 0 499 399" width="499px" zoomAndPan="magnify"><defs/><g><text fill="#000000" font-family="sans-serif" font-size="12" font-weight="bold" lengthAdjust="spacing" textLength="131" x="6" y="18.457">Lot Partie rejet&#233;e, Vrac</text><line style="stroke:#AAAAAA;stroke-width:1.0;stroke-dasharray:1.0,2.0;" x1="6" x2="492" y1="26.5938" y2="26.5938"/><path d="M11,32.0938 L11,35.0938 L8,35.0938 L8,37.0938 L11,37.0938 L11,40.0938 L13,40.0938 L13,37.0938 L16,37.0938 L16,35.0938 L13,35.0938 L13,32.0938 L11,32.0938 " fill="#000000" style="stroke:;stroke-width:0.0;stroke-dasharray:;"/><path d="M23,32.0938 C22.45,32.0938 22,32.5438 22,33.0938 L21,33.0938 C20.45,33.0938 20,33.5438 20,34.0938 L27,34.0938 C27,33.5438 26.55,33.0938 26,33.0938 L25,33.0938 C25,32.5438 24.55,32.0938 24,32.0938 L23,32.0938 M21,35.0938 L21,39.9038 C21,40.0138 21.08,40.0938 21.19,40.0938 L25.82,40.0938 C25.93,40.0938 26.01,40.0138 26.01,39.9038 L26.01,35.0938 L25.01,35.0938 L25.01,38.5938 C25.01,38.8738 24.79,39.0938 24.51,39.0938 C24.23,39.0938 24.01,38.8738 24.01,38.5938 L24.01,35.0938 L23.01,35.0938 L23.01,38.5938 C23.01,38.8738 22.79,39.0938 22.51,39.0938 C22.23,39.0938 22.01,38.8738 22.01,38.5938 L22.01,35.0938 L21.01,35.0938 " fill="#000000" style="stroke:;stroke-width:0.0;stroke-dasharray:;"/><text fill="#000000" font-family="sans-serif" font-size="12" font-weight="bold" lengthAdjust="spacing" textLength="7" x="7" y="56.5508">#</text><text fill="#000000" font-family="sans-serif" font-size="12" font-weight="bold" lengthAdjust="spacing" textLength="176" x="16" y="56.5508">Crit&#232;res de classement (PSFM)</text><text fill="#000000" font-family="sans-serif" font-size="12" font-weight="bold" lengthAdjust="spacing" textLength="45" x="293" y="56.5508">Valeur *</text><text fill="#000000" font-family="sans-serif" font-size="12" lengthAdjust="spacing" textLength="7" x="7" y="73.6445">1</text><text fill="#000000" font-family="sans-serif" font-size="12" lengthAdjust="spacing" textLength="275" x="16" y="73.6445">Partie Retenue (PR) ou Partie Non Retenue (PNR)</text><rect fill="#EEEEEE" height="18.0938" style="stroke:#000000;stroke-width:1.0;" width="143" x="293" y="61.1875"/><text fill="#000000" font-family="sans-serif" font-size="12" lengthAdjust="spacing" textLength="76" x="295" y="75.6445">Partie  rejet&#233;e</text><line style="stroke:#000000;stroke-width:1.0;" x1="425" x2="425" y1="61.1875" y2="79.2813"/><polygon fill="#000000" points="428,67.1875,434,67.1875,431,74.2813" style="stroke:#000000;stroke-width:1.0;"/><text fill="#000000" font-family="sans-serif" font-size="12" lengthAdjust="spacing" textLength="7" x="7" y="94.7383">2</text><text fill="#000000" font-family="sans-serif" font-size="12" lengthAdjust="spacing" textLength="98" x="16" y="94.7383">Vrac ou Hors Vrac</text><rect fill="#EEEEEE" height="18.0938" style="stroke:#000000;stroke-width:1.0;" width="143" x="293" y="82.2813"/><text fill="#000000" font-family="sans-serif" font-size="12" lengthAdjust="spacing" textLength="24" x="295" y="96.7383">Vrac</text><line style="stroke:#000000;stroke-width:1.0;" x1="425" x2="425" y1="82.2813" y2="100.375"/><polygon fill="#000000" points="428,88.2813,434,88.2813,431,95.375" style="stroke:#000000;stroke-width:1.0;"/><line style="stroke:#000000;stroke-width:1.0;" x1="6" x2="15" y1="43.0938" y2="43.0938"/><line style="stroke:#000000;stroke-width:1.0;" x1="15" x2="292" y1="60.1875" y2="60.1875"/><line style="stroke:#000000;stroke-width:1.0;" x1="292" x2="438" y1="81.2813" y2="81.2813"/><line style="stroke:#000000;stroke-width:1.0;" x1="15" x2="292" y1="43.0938" y2="43.0938"/><line style="stroke:#000000;stroke-width:1.0;" x1="292" x2="438" y1="60.1875" y2="60.1875"/><line style="stroke:#000000;stroke-width:1.0;" x1="292" x2="438" y1="43.0938" y2="43.0938"/><line style="stroke:#000000;stroke-width:1.0;" x1="6" x2="15" y1="102.375" y2="102.375"/><line style="stroke:#000000;stroke-width:1.0;" x1="15" x2="292" y1="102.375" y2="102.375"/><line style="stroke:#000000;stroke-width:1.0;" x1="6" x2="15" y1="81.2813" y2="81.2813"/><line style="stroke:#000000;stroke-width:1.0;" x1="292" x2="438" y1="102.375" y2="102.375"/><line style="stroke:#000000;stroke-width:1.0;" x1="6" x2="15" y1="60.1875" y2="60.1875"/><line style="stroke:#000000;stroke-width:1.0;" x1="15" x2="292" y1="81.2813" y2="81.2813"/><line style="stroke:#000000;stroke-width:1.0;" x1="6" x2="6" y1="43.0938" y2="60.1875"/><line style="stroke:#000000;stroke-width:1.0;" x1="15" x2="15" y1="60.1875" y2="81.2813"/><line style="stroke:#000000;stroke-width:1.0;" x1="292" x2="292" y1="81.2813" y2="102.375"/><line style="stroke:#000000;stroke-width:1.0;" x1="438" x2="438" y1="81.2813" y2="102.375"/><line style="stroke:#000000;stroke-width:1.0;" x1="15" x2="15" y1="43.0938" y2="60.1875"/><line style="stroke:#000000;stroke-width:1.0;" x1="292" x2="292" y1="60.1875" y2="81.2813"/><line style="stroke:#000000;stroke-width:1.0;" x1="438" x2="438" y1="60.1875" y2="81.2813"/><line style="stroke:#000000;stroke-width:1.0;" x1="292" x2="292" y1="43.0938" y2="60.1875"/><line style="stroke:#000000;stroke-width:1.0;" x1="438" x2="438" y1="43.0938" y2="60.1875"/><line style="stroke:#000000;stroke-width:1.0;" x1="6" x2="6" y1="81.2813" y2="102.375"/><line style="stroke:#000000;stroke-width:1.0;" x1="6" x2="6" y1="60.1875" y2="81.2813"/><line style="stroke:#000000;stroke-width:1.0;" x1="15" x2="15" y1="81.2813" y2="102.375"/><text fill="#000000" font-family="sans-serif" font-size="12" font-weight="bold" lengthAdjust="spacing" textLength="101" x="6" y="116.832">Options de saisie:</text><text fill="#000000" font-family="sans-serif" font-size="12" lengthAdjust="spacing" textLength="68" x="27" y="134.9258">Poids total ?</text><rect fill="none" height="10" style="stroke:#000000;stroke-width:1.5;" width="10" x="9" y="125.0156"/><polygon fill="#000000" points="10,128.4688,13,131.4688,20,122.4688,13,129.4688" style="stroke:#000000;stroke-width:1.5;"/><text fill="#000000" font-family="sans-serif" font-size="12" lengthAdjust="spacing" textLength="58" x="117" y="134.9258">obligatoire</text><rect fill="none" height="10" style="stroke:#000000;stroke-width:1.5;" width="10" x="99" y="125.0156"/><polygon fill="#000000" points="100,128.4688,103,131.4688,110,122.4688,103,129.4688" style="stroke:#000000;stroke-width:1.5;"/><text fill="#000000" font-family="sans-serif" font-size="12" lengthAdjust="spacing" textLength="109" x="32" y="154.0195">Poids &#233;chantillonn&#233;</text><rect fill="none" height="10" style="stroke:#000000;stroke-width:1.5;" width="10" x="14" y="144.1094"/><polygon fill="#000000" points="15,147.5625,18,150.5625,25,141.5625,18,148.5625" style="stroke:#000000;stroke-width:1.5;"/><text fill="#000000" font-family="sans-serif" font-size="12" lengthAdjust="spacing" textLength="58" x="163" y="154.0195">obligatoire</text><rect fill="none" height="10" style="stroke:#000000;stroke-width:1.5;" width="10" x="145" y="144.1094"/><polygon fill="#000000" points="146,147.5625,149,150.5625,156,141.5625,149,148.5625" style="stroke:#000000;stroke-width:1.5;"/><text fill="#000000" font-family="sans-serif" font-size="12" lengthAdjust="spacing" textLength="166" x="27" y="173.1133">Inventaire exhaustif esp&#232;ces ?</text><rect fill="none" height="10" style="stroke:#000000;stroke-width:1.5;" width="10" x="9" y="163.2031"/><text fill="#000000" font-family="sans-serif" font-size="12" font-weight="bold" lengthAdjust="spacing" textLength="51" x="7" y="209.3008">Lots fils :</text><text fill="#000000" font-family="sans-serif" font-size="12" lengthAdjust="spacing" textLength="117" x="27" y="228.3945">Esp&#232;ce commerciale</text><rect fill="none" height="10" style="stroke:#000000;stroke-width:1.5;" width="10" x="9" y="218.4844"/><polygon fill="#000000" points="10,221.9375,13,224.9375,20,215.9375,13,222.9375" style="stroke:#000000;stroke-width:1.5;"/><text fill="#000000" font-family="sans-serif" font-size="12" lengthAdjust="spacing" textLength="108" x="27" y="247.4883">Esp&#232;ce scientifique</text><rect fill="none" height="10" style="stroke:#000000;stroke-width:1.5;" width="10" x="9" y="237.5781"/><text fill="#000000" font-family="sans-serif" font-size="12" lengthAdjust="spacing" textLength="58" x="27" y="266.582">Poids total</text><ellipse cx="14" cy="261.6719" fill="none" rx="5" ry="5" style="stroke:#000000;stroke-width:1.5;"/><ellipse cx="14" cy="261.6719" fill="#000000" rx="2" ry="2" style="stroke:#000000;stroke-width:1.5;"/><text fill="#000000" font-family="sans-serif" font-size="12" lengthAdjust="spacing" textLength="109" x="32" y="285.6758">Poids &#233;chantillonn&#233;</text><rect fill="none" height="10" style="stroke:#000000;stroke-width:1.5;" width="10" x="14" y="275.7656"/><polygon fill="#000000" points="15,279.2188,18,282.2188,25,273.2188,18,280.2188" style="stroke:#000000;stroke-width:1.5;"/><text fill="#000000" font-family="sans-serif" font-size="12" lengthAdjust="spacing" textLength="125" x="27" y="304.7695">Nombre d'individu total</text><ellipse cx="14" cy="299.8594" fill="none" rx="5" ry="5" style="stroke:#000000;stroke-width:1.5;"/><path d="M11,311.4063 L11,314.4063 L8,314.4063 L8,316.4063 L11,316.4063 L11,319.4063 L13,319.4063 L13,316.4063 L16,316.4063 L16,314.4063 L13,314.4063 L13,311.4063 L11,311.4063 " fill="#000000" style="stroke:;stroke-width:0.0;stroke-dasharray:;"/><path d="M23,311.4063 C22.45,311.4063 22,311.8563 22,312.4063 L21,312.4063 C20.45,312.4063 20,312.8563 20,313.4063 L27,313.4063 C27,312.8563 26.55,312.4063 26,312.4063 L25,312.4063 C25,311.8563 24.55,311.4063 24,311.4063 L23,311.4063 M21,314.4063 L21,319.2163 C21,319.3263 21.08,319.4063 21.19,319.4063 L25.82,319.4063 C25.93,319.4063 26.01,319.3263 26.01,319.2163 L26.01,314.4063 L25.01,314.4063 L25.01,317.9063 C25.01,318.1863 24.79,318.4063 24.51,318.4063 C24.23,318.4063 24.01,318.1863 24.01,317.9063 L24.01,314.4063 L23.01,314.4063 L23.01,317.9063 C23.01,318.1863 22.79,318.4063 22.51,318.4063 C22.23,318.4063 22.01,318.1863 22.01,317.9063 L22.01,314.4063 L21.01,314.4063 " fill="#000000" style="stroke:;stroke-width:0.0;stroke-dasharray:;"/><text fill="#000000" font-family="sans-serif" font-size="12" font-weight="bold" lengthAdjust="spacing" textLength="7" x="7" y="335.8633">#</text><text fill="#000000" font-family="sans-serif" font-size="12" font-weight="bold" lengthAdjust="spacing" textLength="169" x="16" y="335.8633">Crit&#232;re de classement (PSFM)</text><text fill="#000000" font-family="sans-serif" font-size="12" font-weight="bold" lengthAdjust="spacing" textLength="98" x="290" y="335.8633">Valeur par d&#233;faut</text><text fill="#000000" font-family="sans-serif" font-size="12" lengthAdjust="spacing" textLength="7" x="7" y="352.957">1</text><rect fill="#EEEEEE" height="18.0938" style="stroke:#000000;stroke-width:1.0;" width="271" x="16" y="340.5"/><text fill="#000000" font-family="sans-serif" font-size="12" lengthAdjust="spacing" textLength="42" x="18" y="354.957">(Aucun)</text><line style="stroke:#000000;stroke-width:1.0;" x1="276" x2="276" y1="340.5" y2="358.5938"/><polygon fill="#000000" points="279,346.5,285,346.5,282,353.5938" style="stroke:#000000;stroke-width:1.0;"/><rect fill="#EEEEEE" height="18.0938" style="stroke:#000000;stroke-width:1.0;" width="143" x="290" y="340.5"/><text fill="#000000" font-family="sans-serif" font-size="12" lengthAdjust="spacing" textLength="42" x="292" y="354.957">(Aucun)</text><line style="stroke:#000000;stroke-width:1.0;" x1="422" x2="422" y1="340.5" y2="358.5938"/><polygon fill="#000000" points="425,346.5,431,346.5,428,353.5938" style="stroke:#000000;stroke-width:1.0;"/><rect fill="#EEEEEE" height="12" rx="5" ry="5" style="stroke:#000000;stroke-width:2.5;" width="20" x="439.5" y="344"/><path d="M447.97,346 L445.5,349 L447.5,349 L447.5,354 L448.5,354 L448.5,349 L450.5,349 L447.97,346 " fill="#000000" style="stroke:;stroke-width:0.0;stroke-dasharray:;"/><rect fill="#EEEEEE" height="12" rx="5" ry="5" style="stroke:#000000;stroke-width:2.5;" width="20" x="466.5" y="344"/><path d="M474.5,346 L474.5,351 L472.5,351 L475.03,354 L477.5,351 L475.5,351 L475.5,346 L474.5,346 " fill="#000000" style="stroke:;stroke-width:0.0;stroke-dasharray:;"/><line style="stroke:#000000;stroke-width:1.0;" x1="6" x2="15" y1="322.4063" y2="322.4063"/><line style="stroke:#000000;stroke-width:1.0;" x1="289" x2="435" y1="360.5938" y2="360.5938"/><line style="stroke:#000000;stroke-width:1.0;" x1="15" x2="289" y1="339.5" y2="339.5"/><line style="stroke:#000000;stroke-width:1.0;" x1="15" x2="289" y1="322.4063" y2="322.4063"/><line style="stroke:#000000;stroke-width:1.0;" x1="435" x2="491" y1="360.5938" y2="360.5938"/><line style="stroke:#000000;stroke-width:1.0;" x1="289" x2="435" y1="339.5" y2="339.5"/><line style="stroke:#000000;stroke-width:1.0;" x1="289" x2="435" y1="322.4063" y2="322.4063"/><line style="stroke:#000000;stroke-width:1.0;" x1="435" x2="491" y1="339.5" y2="339.5"/><line style="stroke:#000000;stroke-width:1.0;" x1="435" x2="491" y1="322.4063" y2="322.4063"/><line style="stroke:#000000;stroke-width:1.0;" x1="6" x2="15" y1="360.5938" y2="360.5938"/><line style="stroke:#000000;stroke-width:1.0;" x1="15" x2="289" y1="360.5938" y2="360.5938"/><line style="stroke:#000000;stroke-width:1.0;" x1="6" x2="15" y1="339.5" y2="339.5"/><line style="stroke:#000000;stroke-width:1.0;" x1="6" x2="6" y1="322.4063" y2="339.5"/><line style="stroke:#000000;stroke-width:1.0;" x1="15" x2="15" y1="339.5" y2="360.5938"/><line style="stroke:#000000;stroke-width:1.0;" x1="15" x2="15" y1="322.4063" y2="339.5"/><line style="stroke:#000000;stroke-width:1.0;" x1="289" x2="289" y1="339.5" y2="360.5938"/><line style="stroke:#000000;stroke-width:1.0;" x1="289" x2="289" y1="322.4063" y2="339.5"/><line style="stroke:#000000;stroke-width:1.0;" x1="435" x2="435" y1="339.5" y2="360.5938"/><line style="stroke:#000000;stroke-width:1.0;" x1="491" x2="491" y1="339.5" y2="360.5938"/><line style="stroke:#000000;stroke-width:1.0;" x1="435" x2="435" y1="322.4063" y2="339.5"/><line style="stroke:#000000;stroke-width:1.0;" x1="491" x2="491" y1="322.4063" y2="339.5"/><line style="stroke:#000000;stroke-width:1.0;" x1="6" x2="6" y1="339.5" y2="360.5938"/><line style="stroke:#AAAAAA;stroke-width:1.0;" x1="6" x2="492" y1="366.0938" y2="366.0938"/><rect fill="#EEEEEE" height="19.0938" rx="5" ry="5" style="stroke:#000000;stroke-width:2.5;" width="60" x="9.5" y="374.0938"/><text fill="#000000" font-family="sans-serif" font-size="12" lengthAdjust="spacing" textLength="42" x="18.5" y="388.5508">Annuler</text><rect fill="#EEEEEE" height="19.0938" rx="5" ry="5" style="stroke:#000000;stroke-width:2.5;" width="84" x="76.5" y="374.0938"/><path d="M100.41,380.1875 L99.72,380.9075 L96.94,383.6875 L96.13,382.9075 L95.41,382.1875 L94,383.5975 L94.72,384.3175 L96.22,385.8175 L96.91,386.5375 L97.63,385.8175 L101.13,382.3175 L101.85,381.5975 L100.41,380.1875 " fill="#000000" style="stroke:;stroke-width:0.0;stroke-dasharray:;"/><text fill="#000000" font-family="sans-serif" font-size="12" lengthAdjust="spacing" textLength="38" x="106" y="388.5508">Valider</text></g></svg>