<?xml version="1.0" encoding="UTF-8" standalone="no"?><svg xmlns="http://www.w3.org/2000/svg" xmlns:xlink="http://www.w3.org/1999/xlink" contentStyleType="text/css" height="391px" preserveAspectRatio="none" style="width:764px;height:391px;background:#FFFFFF;" version="1.1" viewBox="0 0 764 391" width="764px" zoomAndPan="magnify"><defs/><g><text fill="#000000" font-family="sans-serif" font-size="12" font-weight="bold" lengthAdjust="spacing" textLength="70" x="6" y="18.8281">Lot Capture</text><line style="stroke:#AAAAAA;stroke-width:1.0;stroke-dasharray:1.0,2.0;" x1="6" x2="597" y1="27.8441" y2="27.8441"/><text fill="#000000" font-family="sans-serif" font-size="12" lengthAdjust="spacing" textLength="124" x="7" y="46.1722">Destnation du produit:</text><rect fill="#EEEEEE" height="19.3441" style="stroke:#000000;stroke-width:1.0;" width="87" x="133" y="33.3441"/><text fill="#000000" font-family="sans-serif" font-size="12" lengthAdjust="spacing" textLength="50" x="135" y="48.1722">Industrie</text><line style="stroke:#000000;stroke-width:1.0;" x1="209" x2="209" y1="33.3441" y2="52.6882"/><polygon fill="#000000" points="212,39.3441,218,39.3441,215,47.6882" style="stroke:#000000;stroke-width:1.0;"/><text fill="#000000" font-family="sans-serif" font-size="12" font-weight="bold" lengthAdjust="spacing" textLength="106" x="6" y="69.5163">Options de saisie:</text><text fill="#000000" font-family="sans-serif" font-size="12" lengthAdjust="spacing" textLength="58" x="27" y="88.8604">Poids total</text><rect fill="none" height="10" style="stroke:#000000;stroke-width:1.5;" width="10" x="9" y="79.2044"/><polygon fill="#000000" points="10,82.0323,13,85.0323,20,76.0323,13,83.0323" style="stroke:#000000;stroke-width:1.5;"/><text fill="#000000" font-family="sans-serif" font-size="12" lengthAdjust="spacing" textLength="60" x="107" y="88.8604">obligatoire</text><rect fill="none" height="10" style="stroke:#000000;stroke-width:1.5;" width="10" x="89" y="79.2044"/><polygon fill="#000000" points="90,82.0323,93,85.0323,100,76.0323,93,83.0323" style="stroke:#000000;stroke-width:1.5;"/><text fill="#000000" font-family="sans-serif" font-size="12" lengthAdjust="spacing" textLength="108" x="32" y="109.2045">Poids échantillonné</text><rect fill="none" height="10" style="stroke:#000000;stroke-width:1.5;" width="10" x="14" y="99.5485"/><text fill="#9A9A9A" font-family="sans-serif" font-size="12" lengthAdjust="spacing" textLength="60" x="162" y="109.2045">obligatoire</text><rect fill="none" height="10" style="stroke:#000000;stroke-width:1.5;" width="10" x="144" y="99.5485"/><text fill="#000000" font-family="sans-serif" font-size="12" lengthAdjust="spacing" textLength="168" x="27" y="129.5487">Inventaire exhaustif espèces ?</text><rect fill="none" height="10" style="stroke:#000000;stroke-width:1.5;" width="10" x="9" y="119.8926"/><text fill="#000000" font-family="sans-serif" font-size="12" font-weight="bold" lengthAdjust="spacing" textLength="53" x="7" y="168.2369">Lots fils :</text><text fill="#000000" font-family="sans-serif" font-size="12" lengthAdjust="spacing" textLength="116" x="27" y="188.581">Espèce commerciale</text><rect fill="none" height="10" style="stroke:#000000;stroke-width:1.5;" width="10" x="9" y="178.925"/><text fill="#000000" font-family="sans-serif" font-size="12" lengthAdjust="spacing" textLength="107" x="27" y="208.9251">Espèce scientifique</text><rect fill="none" height="10" style="stroke:#000000;stroke-width:1.5;" width="10" x="9" y="199.2691"/><text fill="#9A9A9A" font-family="sans-serif" font-size="12" lengthAdjust="spacing" textLength="58" x="27" y="229.2692">Poids total</text><ellipse cx="14" cy="224.6132" fill="none" rx="5" ry="5" style="stroke:#000000;stroke-width:1.5;"/><text fill="#9A9A9A" font-family="sans-serif" font-size="12" lengthAdjust="spacing" textLength="108" x="32" y="249.6133">Poids échantillonné</text><rect fill="none" height="10" style="stroke:#000000;stroke-width:1.5;" width="10" x="14" y="239.9573"/><text fill="#9A9A9A" font-family="sans-serif" font-size="12" lengthAdjust="spacing" textLength="130" x="27" y="269.9575">Nombre d'individu total</text><ellipse cx="14" cy="265.3014" fill="none" rx="5" ry="5" style="stroke:#000000;stroke-width:1.5;"/><path d="M11,277.4735 L11,280.4735 L8,280.4735 L8,282.4735 L11,282.4735 L11,285.4735 L13,285.4735 L13,282.4735 L16,282.4735 L16,280.4735 L13,280.4735 L13,277.4735 L11,277.4735 " fill="#000000" style="stroke:;stroke-width:0.0;stroke-dasharray:;"/><path d="M23,277.4735 C22.45,277.4735 22,277.9235 22,278.4735 L21,278.4735 C20.45,278.4735 20,278.9235 20,279.4735 L27,279.4735 C27,278.9235 26.55,278.4735 26,278.4735 L25,278.4735 C25,277.9235 24.55,277.4735 24,277.4735 L23,277.4735 M21,280.4735 L21,285.2835 C21,285.3935 21.08,285.4735 21.19,285.4735 L25.82,285.4735 C25.93,285.4735 26.01,285.3935 26.01,285.2835 L26.01,280.4735 L25.01,280.4735 L25.01,283.9735 C25.01,284.2535 24.79,284.4735 24.51,284.4735 C24.23,284.4735 24.01,284.2535 24.01,283.9735 L24.01,280.4735 L23.01,280.4735 L23.01,283.9735 C23.01,284.2535 22.79,284.4735 22.51,284.4735 C22.23,284.4735 22.01,284.2535 22.01,283.9735 L22.01,280.4735 L21.01,280.4735 " fill="#000000" style="stroke:;stroke-width:0.0;stroke-dasharray:;"/><text fill="#000000" font-family="sans-serif" font-size="12" font-weight="bold" lengthAdjust="spacing" textLength="8" x="7" y="302.3016">#</text><text fill="#000000" font-family="sans-serif" font-size="12" font-weight="bold" lengthAdjust="spacing" textLength="174" x="17" y="302.3016">Critère de classement (PSFM)</text><text fill="#000000" font-family="sans-serif" font-size="12" font-weight="bold" lengthAdjust="spacing" textLength="105" x="419" y="302.3016">Valeur par défaut</text><text fill="#000000" font-family="sans-serif" font-size="12" lengthAdjust="spacing" textLength="7" x="7" y="320.6457">1</text><rect fill="#EEEEEE" height="19.3441" style="stroke:#000000;stroke-width:1.0;" width="399" x="17" y="307.8176"/><text fill="#000000" font-family="sans-serif" font-size="12" lengthAdjust="spacing" textLength="269" x="19" y="322.6457">Partie Retenue (PR) ou Partie Non Retenue (PNR)</text><line style="stroke:#000000;stroke-width:1.0;" x1="405" x2="405" y1="307.8176" y2="327.1617"/><polygon fill="#000000" points="408,313.8176,414,313.8176,411,322.1617" style="stroke:#000000;stroke-width:1.0;"/><rect fill="#EEEEEE" height="19.3441" style="stroke:#000000;stroke-width:1.0;" width="119" x="419" y="307.8176"/><text fill="#000000" font-family="sans-serif" font-size="12" lengthAdjust="spacing" textLength="50" x="421" y="322.6457">(Aucune)</text><line style="stroke:#000000;stroke-width:1.0;" x1="527" x2="527" y1="307.8176" y2="327.1617"/><polygon fill="#000000" points="530,313.8176,536,313.8176,533,322.1617" style="stroke:#000000;stroke-width:1.0;"/><rect fill="#EEEEEE" height="12" rx="5" ry="5" style="stroke:#000000;stroke-width:2.5;" width="20" x="544.5" y="311.3176"/><path d="M552.97,313.3176 L550.5,316.3176 L552.5,316.3176 L552.5,321.3176 L553.5,321.3176 L553.5,316.3176 L555.5,316.3176 L552.97,313.3176 " fill="#000000" style="stroke:;stroke-width:0.0;stroke-dasharray:;"/><rect fill="#EEEEEE" height="12" rx="5" ry="5" style="stroke:#000000;stroke-width:2.5;" width="20" x="571.5" y="311.3176"/><path d="M579.5,313.3176 L579.5,318.3176 L577.5,318.3176 L580.03,321.3176 L582.5,318.3176 L580.5,318.3176 L580.5,313.3176 L579.5,313.3176 " fill="#000000" style="stroke:;stroke-width:0.0;stroke-dasharray:;"/><text fill="#000000" font-family="sans-serif" font-size="12" lengthAdjust="spacing" textLength="7" x="7" y="342.9898">2</text><rect fill="#EEEEEE" height="19.3441" style="stroke:#000000;stroke-width:1.0;" width="399" x="17" y="330.1617"/><text fill="#000000" font-family="sans-serif" font-size="12" lengthAdjust="spacing" textLength="100" x="19" y="344.9898">Vrac ou Hors Vrac</text><line style="stroke:#000000;stroke-width:1.0;" x1="405" x2="405" y1="330.1617" y2="349.5058"/><polygon fill="#000000" points="408,336.1617,414,336.1617,411,344.5058" style="stroke:#000000;stroke-width:1.0;"/><rect fill="#EEEEEE" height="19.3441" style="stroke:#000000;stroke-width:1.0;" width="119" x="419" y="330.1617"/><text fill="#000000" font-family="sans-serif" font-size="12" lengthAdjust="spacing" textLength="25" x="421" y="344.9898">Vrac</text><line style="stroke:#000000;stroke-width:1.0;" x1="527" x2="527" y1="330.1617" y2="349.5058"/><polygon fill="#000000" points="530,336.1617,536,336.1617,533,344.5058" style="stroke:#000000;stroke-width:1.0;"/><rect fill="#EEEEEE" height="12" rx="5" ry="5" style="stroke:#000000;stroke-width:2.5;" width="20" x="544.5" y="333.6617"/><path d="M552.97,335.6617 L550.5,338.6617 L552.5,338.6617 L552.5,343.6617 L553.5,343.6617 L553.5,338.6617 L555.5,338.6617 L552.97,335.6617 " fill="#000000" style="stroke:;stroke-width:0.0;stroke-dasharray:;"/><rect fill="#EEEEEE" height="12" rx="5" ry="5" style="stroke:#000000;stroke-width:2.5;" width="20" x="571.5" y="333.6617"/><path d="M579.5,335.6617 L579.5,340.6617 L577.5,340.6617 L580.03,343.6617 L582.5,340.6617 L580.5,340.6617 L580.5,335.6617 L579.5,335.6617 " fill="#000000" style="stroke:;stroke-width:0.0;stroke-dasharray:;"/><line style="stroke:#000000;stroke-width:1.0;" x1="6" x2="16" y1="288.4735" y2="288.4735"/><line style="stroke:#000000;stroke-width:1.0;" x1="418" x2="540" y1="329.1617" y2="329.1617"/><line style="stroke:#000000;stroke-width:1.0;" x1="16" x2="418" y1="288.4735" y2="288.4735"/><line style="stroke:#000000;stroke-width:1.0;" x1="540" x2="596" y1="329.1617" y2="329.1617"/><line style="stroke:#000000;stroke-width:1.0;" x1="418" x2="540" y1="288.4735" y2="288.4735"/><line style="stroke:#000000;stroke-width:1.0;" x1="540" x2="596" y1="288.4735" y2="288.4735"/><line style="stroke:#000000;stroke-width:1.0;" x1="6" x2="16" y1="351.5058" y2="351.5058"/><line style="stroke:#000000;stroke-width:1.0;" x1="16" x2="418" y1="351.5058" y2="351.5058"/><line style="stroke:#000000;stroke-width:1.0;" x1="418" x2="540" y1="351.5058" y2="351.5058"/><line style="stroke:#000000;stroke-width:1.0;" x1="6" x2="16" y1="306.8176" y2="306.8176"/><line style="stroke:#000000;stroke-width:1.0;" x1="540" x2="596" y1="351.5058" y2="351.5058"/><line style="stroke:#000000;stroke-width:1.0;" x1="16" x2="418" y1="306.8176" y2="306.8176"/><line style="stroke:#000000;stroke-width:1.0;" x1="418" x2="540" y1="306.8176" y2="306.8176"/><line style="stroke:#000000;stroke-width:1.0;" x1="540" x2="596" y1="306.8176" y2="306.8176"/><line style="stroke:#000000;stroke-width:1.0;" x1="6" x2="16" y1="329.1617" y2="329.1617"/><line style="stroke:#000000;stroke-width:1.0;" x1="16" x2="418" y1="329.1617" y2="329.1617"/><line style="stroke:#000000;stroke-width:1.0;" x1="6" x2="6" y1="288.4735" y2="306.8176"/><line style="stroke:#000000;stroke-width:1.0;" x1="418" x2="418" y1="329.1617" y2="351.5058"/><line style="stroke:#000000;stroke-width:1.0;" x1="16" x2="16" y1="288.4735" y2="306.8176"/><line style="stroke:#000000;stroke-width:1.0;" x1="540" x2="540" y1="329.1617" y2="351.5058"/><line style="stroke:#000000;stroke-width:1.0;" x1="596" x2="596" y1="329.1617" y2="351.5058"/><line style="stroke:#000000;stroke-width:1.0;" x1="418" x2="418" y1="288.4735" y2="306.8176"/><line style="stroke:#000000;stroke-width:1.0;" x1="540" x2="540" y1="288.4735" y2="306.8176"/><line style="stroke:#000000;stroke-width:1.0;" x1="596" x2="596" y1="288.4735" y2="306.8176"/><line style="stroke:#000000;stroke-width:1.0;" x1="6" x2="6" y1="306.8176" y2="329.1617"/><line style="stroke:#000000;stroke-width:1.0;" x1="16" x2="16" y1="306.8176" y2="329.1617"/><line style="stroke:#000000;stroke-width:1.0;" x1="418" x2="418" y1="306.8176" y2="329.1617"/><line style="stroke:#000000;stroke-width:1.0;" x1="540" x2="540" y1="306.8176" y2="329.1617"/><line style="stroke:#000000;stroke-width:1.0;" x1="596" x2="596" y1="306.8176" y2="329.1617"/><line style="stroke:#000000;stroke-width:1.0;" x1="6" x2="6" y1="329.1617" y2="351.5058"/><line style="stroke:#000000;stroke-width:1.0;" x1="16" x2="16" y1="329.1617" y2="351.5058"/><line style="stroke:#AAAAAA;stroke-width:1.0;" x1="6" x2="597" y1="357.0058" y2="357.0058"/><line style="stroke:#AAAAAA;stroke-width:1.0;" x1="598" x2="757" y1="357.0058" y2="357.0058"/><rect fill="#EEEEEE" height="20.3441" rx="5" ry="5" style="stroke:#000000;stroke-width:2.5;" width="60" x="601.5" y="365.0058"/><text fill="#000000" font-family="sans-serif" font-size="12" lengthAdjust="spacing" textLength="44" x="609.5" y="379.8339">Annuler</text><rect fill="#EEEEEE" height="20.3441" rx="5" ry="5" style="stroke:#000000;stroke-width:2.5;" width="84" x="668.5" y="365.0058"/><path d="M691.91,372.3499 L691.22,373.0699 L688.44,375.8499 L687.63,375.0699 L686.91,374.3499 L685.5,375.7599 L686.22,376.4799 L687.72,377.9799 L688.41,378.6999 L689.13,377.9799 L692.63,374.4799 L693.35,373.7599 L691.91,372.3499 " fill="#000000" style="stroke:;stroke-width:0.0;stroke-dasharray:;"/><text fill="#000000" font-family="sans-serif" font-size="12" lengthAdjust="spacing" textLength="39" x="697.5" y="379.8339">Valider</text></g></svg>