<?xml version="1.0" encoding="us-ascii" standalone="no"?><svg xmlns="http://www.w3.org/2000/svg" xmlns:xlink="http://www.w3.org/1999/xlink" contentStyleType="text/css" height="397px" preserveAspectRatio="none" style="width:673px;height:397px;background:#FFFFFF;" version="1.1" viewBox="0 0 673 397" width="673px" zoomAndPan="magnify"><defs><filter height="1" id="b1tuwpofbsfq3o0" width="1" x="0" y="0"><feFlood flood-color="#DDDDDD" result="flood"/><feComposite in="SourceGraphic" in2="flood" operator="over"/></filter></defs><g><text fill="#000000" font-family="sans-serif" font-size="12" lengthAdjust="spacing" textLength="39" x="8" y="18.457">D&#233;tails</text><line style="stroke:#000000;stroke-width:1.0;" x1="6" x2="6" y1="6" y2="21.0938"/><line style="stroke:#000000;stroke-width:1.0;" x1="6" x2="50" y1="6" y2="6"/><line style="stroke:#000000;stroke-width:1.0;" x1="50" x2="50" y1="6" y2="21.0938"/><line style="stroke:#000000;stroke-width:1.0;" x1="50" x2="60" y1="21.0938" y2="21.0938"/><text fill="#000000" font-family="sans-serif" font-size="12" font-weight="bold" lengthAdjust="spacing" textLength="45" x="65" y="18.457">Capture</text><line style="stroke:#000000;stroke-width:1.0;" x1="60" x2="60" y1="6" y2="21.0938"/><line style="stroke:#000000;stroke-width:1.0;" x1="60" x2="113" y1="6" y2="6"/><line style="stroke:#000000;stroke-width:1.0;" x1="113" x2="113" y1="6" y2="21.0938"/><line style="stroke:#000000;stroke-width:1.0;" x1="113" x2="123" y1="21.0938" y2="21.0938"/><text fill="#000000" font-family="sans-serif" font-size="12" lengthAdjust="spacing" textLength="44" x="17" y="36.5508">Capture</text><text fill="#000000" font-family="sans-serif" font-size="12" lengthAdjust="spacing" textLength="77" x="27" y="51.6445">Partie retenue</text><text fill="#000000" font-family="sans-serif" font-size="12" lengthAdjust="spacing" textLength="3" x="114" y="51.6445">[</text><path d="M121,43.2813 L121,46.2813 L118,46.2813 L118,48.2813 L121,48.2813 L121,51.2813 L123,51.2813 L123,48.2813 L126,48.2813 L126,46.2813 L123,46.2813 L123,43.2813 L121,43.2813 " fill="#000000" style="stroke:;stroke-width:0.0;stroke-dasharray:;"/><text fill="#000000" font-family="sans-serif" font-size="12" lengthAdjust="spacing" textLength="3" x="127" y="51.6445">]</text><text fill="#000000" filter="url(#b1tuwpofbsfq3o0)" font-family="sans-serif" font-size="12" lengthAdjust="spacing" textLength="73" x="27" y="66.7383">Partie rejet&#233;e</text><text fill="#000000" font-family="sans-serif" font-size="12" lengthAdjust="spacing" textLength="3" x="114" y="66.7383">[</text><path d="M121,58.375 L121,61.375 L118,61.375 L118,63.375 L121,63.375 L121,66.375 L123,66.375 L123,63.375 L126,63.375 L126,61.375 L123,61.375 L123,58.375 L121,58.375 " fill="#000000" style="stroke:;stroke-width:0.0;stroke-dasharray:;"/><text fill="#000000" font-family="sans-serif" font-size="12" lengthAdjust="spacing" textLength="3" x="127" y="66.7383">]</text><text fill="#000000" font-family="sans-serif" font-size="12" lengthAdjust="spacing" textLength="24" x="37" y="81.832">Vrac</text><text fill="#000000" font-family="sans-serif" font-size="12" lengthAdjust="spacing" textLength="3" x="114" y="81.832">[</text><path d="M121,73.4688 L121,76.4688 L118,76.4688 L118,78.4688 L121,78.4688 L121,81.4688 L123,81.4688 L123,78.4688 L126,78.4688 L126,76.4688 L123,76.4688 L123,73.4688 L121,73.4688 " fill="#000000" style="stroke:;stroke-width:0.0;stroke-dasharray:;"/><text fill="#000000" font-family="sans-serif" font-size="12" lengthAdjust="spacing" textLength="3" x="127" y="81.832">]</text><text fill="#000000" font-family="sans-serif" font-size="12" lengthAdjust="spacing" textLength="55" x="37" y="96.9258">Hors-Vrac</text><text fill="#000000" font-family="sans-serif" font-size="12" lengthAdjust="spacing" textLength="3" x="114" y="96.9258">[</text><path d="M121,88.5625 L121,91.5625 L118,91.5625 L118,93.5625 L121,93.5625 L121,96.5625 L123,96.5625 L123,93.5625 L126,93.5625 L126,91.5625 L123,91.5625 L123,88.5625 L121,88.5625 " fill="#000000" style="stroke:;stroke-width:0.0;stroke-dasharray:;"/><text fill="#000000" font-family="sans-serif" font-size="12" lengthAdjust="spacing" textLength="3" x="127" y="96.9258">]</text><rect fill="none" height="2" style="stroke:#888888;stroke-width:1.0;" width="2" x="10" y="30.6406"/><line style="stroke:#888888;stroke-width:1.0;" x1="11" x2="11" y1="33.6406" y2="46.7344"/><line style="stroke:#888888;stroke-width:1.0;" x1="11" x2="19" y1="46.7344" y2="46.7344"/><rect fill="none" height="2" style="stroke:#888888;stroke-width:1.0;" width="2" x="20" y="60.8281"/><line style="stroke:#888888;stroke-width:1.0;" x1="11" x2="11" y1="33.6406" y2="61.8281"/><line style="stroke:#888888;stroke-width:1.0;" x1="11" x2="19" y1="61.8281" y2="61.8281"/><line style="stroke:#888888;stroke-width:1.0;" x1="21" x2="21" y1="63.8281" y2="76.9219"/><line style="stroke:#888888;stroke-width:1.0;" x1="21" x2="29" y1="76.9219" y2="76.9219"/><line style="stroke:#888888;stroke-width:1.0;" x1="21" x2="21" y1="63.8281" y2="92.0156"/><line style="stroke:#888888;stroke-width:1.0;" x1="21" x2="29" y1="92.0156" y2="92.0156"/><line style="stroke:#AAAAAA;stroke-width:1.0;" x1="7" x2="142" y1="327.2813" y2="327.2813"/><rect fill="#EEEEEE" height="19.0938" rx="5" ry="5" style="stroke:#000000;stroke-width:2.5;" width="84" x="10.5" y="335.2813"/><text fill="#000000" font-family="sans-serif" font-size="12" lengthAdjust="spacing" textLength="38" x="35" y="349.7383">Valider</text><rect fill="#EEEEEE" height="19.0938" rx="5" ry="5" style="stroke:#000000;stroke-width:2.5;" width="36" x="101.5" y="335.2813"/><text fill="#000000" font-family="sans-serif" font-size="12" lengthAdjust="spacing" textLength="14" x="112.5" y="349.7383">&lt;&lt;</text><line style="stroke:#000000;stroke-width:1.0;" x1="6" x2="142" y1="23.0938" y2="23.0938"/><line style="stroke:#000000;stroke-width:1.0;" x1="6" x2="142" y1="358.875" y2="358.875"/><line style="stroke:#000000;stroke-width:1.0;" x1="6" x2="6" y1="23.0938" y2="100.5625"/><line style="stroke:#000000;stroke-width:1.0;" x1="142" x2="142" y1="23.0938" y2="100.5625"/><line style="stroke:#000000;stroke-width:1.0;" x1="6" x2="6" y1="330.7813" y2="358.875"/><line style="stroke:#000000;stroke-width:1.0;" x1="142" x2="142" y1="330.7813" y2="358.875"/><line style="stroke:#000000;stroke-width:1.0;" x1="6" x2="6" y1="271.5" y2="288.5938"/><line style="stroke:#000000;stroke-width:1.0;" x1="142" x2="142" y1="271.5" y2="288.5938"/><line style="stroke:#000000;stroke-width:1.0;" x1="6" x2="6" y1="203.125" y2="220.2188"/><line style="stroke:#000000;stroke-width:1.0;" x1="142" x2="142" y1="203.125" y2="220.2188"/><line style="stroke:#000000;stroke-width:1.0;" x1="6" x2="6" y1="134.75" y2="151.8438"/><line style="stroke:#000000;stroke-width:1.0;" x1="142" x2="142" y1="134.75" y2="151.8438"/><line style="stroke:#000000;stroke-width:1.0;" x1="6" x2="6" y1="322.7813" y2="330.7813"/><line style="stroke:#000000;stroke-width:1.0;" x1="142" x2="142" y1="322.7813" y2="330.7813"/><line style="stroke:#000000;stroke-width:1.0;" x1="6" x2="6" y1="254.4063" y2="271.5"/><line style="stroke:#000000;stroke-width:1.0;" x1="142" x2="142" y1="254.4063" y2="271.5"/><line style="stroke:#000000;stroke-width:1.0;" x1="6" x2="6" y1="186.0313" y2="203.125"/><line style="stroke:#000000;stroke-width:1.0;" x1="142" x2="142" y1="186.0313" y2="203.125"/><line style="stroke:#000000;stroke-width:1.0;" x1="6" x2="6" y1="117.6563" y2="134.75"/><line style="stroke:#000000;stroke-width:1.0;" x1="142" x2="142" y1="117.6563" y2="134.75"/><line style="stroke:#000000;stroke-width:1.0;" x1="6" x2="6" y1="305.6875" y2="322.7813"/><line style="stroke:#000000;stroke-width:1.0;" x1="142" x2="142" y1="305.6875" y2="322.7813"/><line style="stroke:#000000;stroke-width:1.0;" x1="6" x2="6" y1="237.3125" y2="254.4063"/><line style="stroke:#000000;stroke-width:1.0;" x1="142" x2="142" y1="237.3125" y2="254.4063"/><line style="stroke:#000000;stroke-width:1.0;" x1="6" x2="6" y1="168.9375" y2="186.0313"/><line style="stroke:#000000;stroke-width:1.0;" x1="142" x2="142" y1="168.9375" y2="186.0313"/><line style="stroke:#000000;stroke-width:1.0;" x1="6" x2="6" y1="100.5625" y2="117.6563"/><line style="stroke:#000000;stroke-width:1.0;" x1="142" x2="142" y1="100.5625" y2="117.6563"/><line style="stroke:#000000;stroke-width:1.0;" x1="6" x2="6" y1="288.5938" y2="305.6875"/><line style="stroke:#000000;stroke-width:1.0;" x1="142" x2="142" y1="288.5938" y2="305.6875"/><line style="stroke:#000000;stroke-width:1.0;" x1="6" x2="6" y1="220.2188" y2="237.3125"/><line style="stroke:#000000;stroke-width:1.0;" x1="142" x2="142" y1="220.2188" y2="237.3125"/><line style="stroke:#000000;stroke-width:1.0;" x1="6" x2="6" y1="151.8438" y2="168.9375"/><line style="stroke:#000000;stroke-width:1.0;" x1="142" x2="142" y1="151.8438" y2="168.9375"/><text fill="#000000" font-family="sans-serif" font-size="12" font-weight="bold" lengthAdjust="spacing" textLength="131" x="179" y="36.5508">Lot Partie rejet&#233;e, Vrac</text><line style="stroke:#AAAAAA;stroke-width:1.0;stroke-dasharray:1.0,2.0;" x1="179" x2="665" y1="44.6875" y2="44.6875"/><path d="M184,50.1875 L184,53.1875 L181,53.1875 L181,55.1875 L184,55.1875 L184,58.1875 L186,58.1875 L186,55.1875 L189,55.1875 L189,53.1875 L186,53.1875 L186,50.1875 L184,50.1875 " fill="#000000" style="stroke:;stroke-width:0.0;stroke-dasharray:;"/><path d="M196,50.1875 C195.45,50.1875 195,50.6375 195,51.1875 L194,51.1875 C193.45,51.1875 193,51.6375 193,52.1875 L200,52.1875 C200,51.6375 199.55,51.1875 199,51.1875 L198,51.1875 C198,50.6375 197.55,50.1875 197,50.1875 L196,50.1875 M194,53.1875 L194,57.9975 C194,58.1075 194.08,58.1875 194.19,58.1875 L198.82,58.1875 C198.93,58.1875 199.01,58.1075 199.01,57.9975 L199.01,53.1875 L198.01,53.1875 L198.01,56.6875 C198.01,56.9675 197.79,57.1875 197.51,57.1875 C197.23,57.1875 197.01,56.9675 197.01,56.6875 L197.01,53.1875 L196.01,53.1875 L196.01,56.6875 C196.01,56.9675 195.79,57.1875 195.51,57.1875 C195.23,57.1875 195.01,56.9675 195.01,56.6875 L195.01,53.1875 L194.01,53.1875 " fill="#000000" style="stroke:;stroke-width:0.0;stroke-dasharray:;"/><text fill="#000000" font-family="sans-serif" font-size="12" font-weight="bold" lengthAdjust="spacing" textLength="7" x="180" y="74.6445">#</text><text fill="#000000" font-family="sans-serif" font-size="12" font-weight="bold" lengthAdjust="spacing" textLength="176" x="189" y="74.6445">Crit&#232;res de classement (PSFM)</text><text fill="#000000" font-family="sans-serif" font-size="12" font-weight="bold" lengthAdjust="spacing" textLength="45" x="466" y="74.6445">Valeur *</text><text fill="#000000" font-family="sans-serif" font-size="12" lengthAdjust="spacing" textLength="7" x="180" y="91.7383">1</text><text fill="#000000" font-family="sans-serif" font-size="12" lengthAdjust="spacing" textLength="275" x="189" y="91.7383">Partie Retenue (PR) ou Partie Non Retenue (PNR)</text><rect fill="#EEEEEE" height="18.0938" style="stroke:#000000;stroke-width:1.0;" width="143" x="466" y="79.2813"/><text fill="#000000" font-family="sans-serif" font-size="12" lengthAdjust="spacing" textLength="76" x="468" y="93.7383">Partie  rejet&#233;e</text><line style="stroke:#000000;stroke-width:1.0;" x1="598" x2="598" y1="79.2813" y2="97.375"/><polygon fill="#000000" points="601,85.2813,607,85.2813,604,92.375" style="stroke:#000000;stroke-width:1.0;"/><line style="stroke:#000000;stroke-width:1.0;" x1="179" x2="188" y1="61.1875" y2="61.1875"/><line style="stroke:#000000;stroke-width:1.0;" x1="465" x2="611" y1="99.375" y2="99.375"/><line style="stroke:#000000;stroke-width:1.0;" x1="188" x2="465" y1="78.2813" y2="78.2813"/><line style="stroke:#000000;stroke-width:1.0;" x1="188" x2="465" y1="61.1875" y2="61.1875"/><line style="stroke:#000000;stroke-width:1.0;" x1="465" x2="611" y1="78.2813" y2="78.2813"/><line style="stroke:#000000;stroke-width:1.0;" x1="465" x2="611" y1="61.1875" y2="61.1875"/><line style="stroke:#000000;stroke-width:1.0;" x1="179" x2="188" y1="99.375" y2="99.375"/><line style="stroke:#000000;stroke-width:1.0;" x1="188" x2="465" y1="99.375" y2="99.375"/><line style="stroke:#000000;stroke-width:1.0;" x1="179" x2="188" y1="78.2813" y2="78.2813"/><line style="stroke:#000000;stroke-width:1.0;" x1="179" x2="179" y1="61.1875" y2="78.2813"/><line style="stroke:#000000;stroke-width:1.0;" x1="188" x2="188" y1="78.2813" y2="99.375"/><line style="stroke:#000000;stroke-width:1.0;" x1="188" x2="188" y1="61.1875" y2="78.2813"/><line style="stroke:#000000;stroke-width:1.0;" x1="465" x2="465" y1="78.2813" y2="99.375"/><line style="stroke:#000000;stroke-width:1.0;" x1="611" x2="611" y1="78.2813" y2="99.375"/><line style="stroke:#000000;stroke-width:1.0;" x1="465" x2="465" y1="61.1875" y2="78.2813"/><line style="stroke:#000000;stroke-width:1.0;" x1="611" x2="611" y1="61.1875" y2="78.2813"/><line style="stroke:#000000;stroke-width:1.0;" x1="179" x2="179" y1="78.2813" y2="99.375"/><text fill="#000000" font-family="sans-serif" font-size="12" font-weight="bold" lengthAdjust="spacing" textLength="101" x="179" y="113.832">Options de saisie:</text><text fill="#000000" font-family="sans-serif" font-size="12" lengthAdjust="spacing" textLength="68" x="200" y="131.9258">Poids total ?</text><rect fill="none" height="10" style="stroke:#000000;stroke-width:1.5;" width="10" x="182" y="122.0156"/><text fill="#808080" font-family="sans-serif" font-size="12" lengthAdjust="spacing" textLength="58" x="290" y="131.9258">obligatoire</text><rect fill="none" height="10" style="stroke:#000000;stroke-width:1.5;" width="10" x="272" y="122.0156"/><text fill="#000000" font-family="sans-serif" font-size="12" lengthAdjust="spacing" textLength="109" x="205" y="151.0195">Poids &#233;chantillonn&#233;</text><rect fill="none" height="10" style="stroke:#000000;stroke-width:1.5;" width="10" x="187" y="141.1094"/><text fill="#808080" font-family="sans-serif" font-size="12" lengthAdjust="spacing" textLength="58" x="336" y="151.0195">obligatoire</text><rect fill="none" height="10" style="stroke:#000000;stroke-width:1.5;" width="10" x="318" y="141.1094"/><text fill="#000000" font-family="sans-serif" font-size="12" lengthAdjust="spacing" textLength="166" x="200" y="170.1133">Inventaire exhaustif esp&#232;ces ?</text><rect fill="none" height="10" style="stroke:#000000;stroke-width:1.5;" width="10" x="182" y="160.2031"/><text fill="#000000" font-family="sans-serif" font-size="12" font-weight="bold" lengthAdjust="spacing" textLength="51" x="180" y="206.3008">Lots fils :</text><text fill="#000000" font-family="sans-serif" font-size="12" lengthAdjust="spacing" textLength="117" x="200" y="225.3945">Esp&#232;ce commerciale</text><rect fill="none" height="10" style="stroke:#000000;stroke-width:1.5;" width="10" x="182" y="215.4844"/><text fill="#000000" font-family="sans-serif" font-size="12" lengthAdjust="spacing" textLength="108" x="200" y="244.4883">Esp&#232;ce scientifique</text><rect fill="none" height="10" style="stroke:#000000;stroke-width:1.5;" width="10" x="182" y="234.5781"/><text fill="#808080" font-family="sans-serif" font-size="12" lengthAdjust="spacing" textLength="58" x="200" y="263.582">Poids total</text><ellipse cx="187" cy="258.6719" fill="none" rx="5" ry="5" style="stroke:#000000;stroke-width:1.5;"/><text fill="#808080" font-family="sans-serif" font-size="12" lengthAdjust="spacing" textLength="109" x="205" y="282.6758">Poids &#233;chantillonn&#233;</text><rect fill="none" height="10" style="stroke:#000000;stroke-width:1.5;" width="10" x="187" y="272.7656"/><text fill="#808080" font-family="sans-serif" font-size="12" lengthAdjust="spacing" textLength="125" x="200" y="301.7695">Nombre d'individu total</text><ellipse cx="187" cy="296.8594" fill="none" rx="5" ry="5" style="stroke:#000000;stroke-width:1.5;"/><path d="M184,308.4063 L184,311.4063 L181,311.4063 L181,313.4063 L184,313.4063 L184,316.4063 L186,316.4063 L186,313.4063 L189,313.4063 L189,311.4063 L186,311.4063 L186,308.4063 L184,308.4063 " fill="#000000" style="stroke:;stroke-width:0.0;stroke-dasharray:;"/><path d="M196,308.4063 C195.45,308.4063 195,308.8563 195,309.4063 L194,309.4063 C193.45,309.4063 193,309.8563 193,310.4063 L200,310.4063 C200,309.8563 199.55,309.4063 199,309.4063 L198,309.4063 C198,308.8563 197.55,308.4063 197,308.4063 L196,308.4063 M194,311.4063 L194,316.2163 C194,316.3263 194.08,316.4063 194.19,316.4063 L198.82,316.4063 C198.93,316.4063 199.01,316.3263 199.01,316.2163 L199.01,311.4063 L198.01,311.4063 L198.01,314.9063 C198.01,315.1863 197.79,315.4063 197.51,315.4063 C197.23,315.4063 197.01,315.1863 197.01,314.9063 L197.01,311.4063 L196.01,311.4063 L196.01,314.9063 C196.01,315.1863 195.79,315.4063 195.51,315.4063 C195.23,315.4063 195.01,315.1863 195.01,314.9063 L195.01,311.4063 L194.01,311.4063 " fill="#000000" style="stroke:;stroke-width:0.0;stroke-dasharray:;"/><text fill="#000000" font-family="sans-serif" font-size="12" font-weight="bold" lengthAdjust="spacing" textLength="7" x="180" y="332.8633">#</text><text fill="#000000" font-family="sans-serif" font-size="12" font-weight="bold" lengthAdjust="spacing" textLength="169" x="189" y="332.8633">Crit&#232;re de classement (PSFM)</text><text fill="#000000" font-family="sans-serif" font-size="12" font-weight="bold" lengthAdjust="spacing" textLength="98" x="463" y="332.8633">Valeur par d&#233;faut</text><text fill="#000000" font-family="sans-serif" font-size="12" lengthAdjust="spacing" textLength="7" x="180" y="349.957">1</text><rect fill="#EEEEEE" height="18.0938" style="stroke:#000000;stroke-width:1.0;" width="271" x="189" y="337.5"/><text fill="#000000" font-family="sans-serif" font-size="12" lengthAdjust="spacing" textLength="98" x="191" y="351.957">Vrac ou Hors Vrac</text><line style="stroke:#000000;stroke-width:1.0;" x1="449" x2="449" y1="337.5" y2="355.5938"/><polygon fill="#000000" points="452,343.5,458,343.5,455,350.5938" style="stroke:#000000;stroke-width:1.0;"/><rect fill="#EEEEEE" height="18.0938" style="stroke:#000000;stroke-width:1.0;" width="143" x="463" y="337.5"/><text fill="#000000" font-family="sans-serif" font-size="12" lengthAdjust="spacing" textLength="42" x="465" y="351.957">(Aucun)</text><line style="stroke:#000000;stroke-width:1.0;" x1="595" x2="595" y1="337.5" y2="355.5938"/><polygon fill="#000000" points="598,343.5,604,343.5,601,350.5938" style="stroke:#000000;stroke-width:1.0;"/><rect fill="#EEEEEE" height="12" rx="5" ry="5" style="stroke:#000000;stroke-width:2.5;" width="20" x="612.5" y="341"/><path d="M620.97,343 L618.5,346 L620.5,346 L620.5,351 L621.5,351 L621.5,346 L623.5,346 L620.97,343 " fill="#000000" style="stroke:;stroke-width:0.0;stroke-dasharray:;"/><rect fill="#EEEEEE" height="12" rx="5" ry="5" style="stroke:#000000;stroke-width:2.5;" width="20" x="639.5" y="341"/><path d="M647.5,343 L647.5,348 L645.5,348 L648.03,351 L650.5,348 L648.5,348 L648.5,343 L647.5,343 " fill="#000000" style="stroke:;stroke-width:0.0;stroke-dasharray:;"/><line style="stroke:#000000;stroke-width:1.0;" x1="179" x2="188" y1="319.4063" y2="319.4063"/><line style="stroke:#000000;stroke-width:1.0;" x1="462" x2="608" y1="357.5938" y2="357.5938"/><line style="stroke:#000000;stroke-width:1.0;" x1="188" x2="462" y1="336.5" y2="336.5"/><line style="stroke:#000000;stroke-width:1.0;" x1="188" x2="462" y1="319.4063" y2="319.4063"/><line style="stroke:#000000;stroke-width:1.0;" x1="608" x2="664" y1="357.5938" y2="357.5938"/><line style="stroke:#000000;stroke-width:1.0;" x1="462" x2="608" y1="336.5" y2="336.5"/><line style="stroke:#000000;stroke-width:1.0;" x1="462" x2="608" y1="319.4063" y2="319.4063"/><line style="stroke:#000000;stroke-width:1.0;" x1="608" x2="664" y1="336.5" y2="336.5"/><line style="stroke:#000000;stroke-width:1.0;" x1="608" x2="664" y1="319.4063" y2="319.4063"/><line style="stroke:#000000;stroke-width:1.0;" x1="179" x2="188" y1="357.5938" y2="357.5938"/><line style="stroke:#000000;stroke-width:1.0;" x1="188" x2="462" y1="357.5938" y2="357.5938"/><line style="stroke:#000000;stroke-width:1.0;" x1="179" x2="188" y1="336.5" y2="336.5"/><line style="stroke:#000000;stroke-width:1.0;" x1="179" x2="179" y1="319.4063" y2="336.5"/><line style="stroke:#000000;stroke-width:1.0;" x1="188" x2="188" y1="336.5" y2="357.5938"/><line style="stroke:#000000;stroke-width:1.0;" x1="188" x2="188" y1="319.4063" y2="336.5"/><line style="stroke:#000000;stroke-width:1.0;" x1="462" x2="462" y1="336.5" y2="357.5938"/><line style="stroke:#000000;stroke-width:1.0;" x1="462" x2="462" y1="319.4063" y2="336.5"/><line style="stroke:#000000;stroke-width:1.0;" x1="608" x2="608" y1="336.5" y2="357.5938"/><line style="stroke:#000000;stroke-width:1.0;" x1="664" x2="664" y1="336.5" y2="357.5938"/><line style="stroke:#000000;stroke-width:1.0;" x1="608" x2="608" y1="319.4063" y2="336.5"/><line style="stroke:#000000;stroke-width:1.0;" x1="664" x2="664" y1="319.4063" y2="336.5"/><line style="stroke:#000000;stroke-width:1.0;" x1="179" x2="179" y1="336.5" y2="357.5938"/><line style="stroke:#AAAAAA;stroke-width:1.0;" x1="6" x2="165" y1="364.375" y2="364.375"/><line style="stroke:#AAAAAA;stroke-width:1.0;" x1="166" x2="177" y1="364.375" y2="364.375"/><line style="stroke:#AAAAAA;stroke-width:1.0;" x1="178" x2="666" y1="364.375" y2="364.375"/><rect fill="#EEEEEE" height="19.0938" rx="5" ry="5" style="stroke:#000000;stroke-width:2.5;" width="52" x="9.5" y="372.375"/><text fill="#000000" font-family="sans-serif" font-size="12" lengthAdjust="spacing" textLength="40" x="15.5" y="386.832">Fermer</text><rect fill="#EEEEEE" height="19.0938" rx="5" ry="5" style="stroke:#000000;stroke-width:2.5;" width="92" x="68.5" y="372.375"/><text fill="#000000" font-family="sans-serif" font-size="12" lengthAdjust="spacing" textLength="70" x="79.5" y="386.832">Sauvegarder</text></g></svg>