<?xml version="1.0" encoding="us-ascii" standalone="no"?><svg xmlns="http://www.w3.org/2000/svg" xmlns:xlink="http://www.w3.org/1999/xlink" contentStyleType="text/css" height="382px" preserveAspectRatio="none" style="width:202px;height:382px;background:#FFFFFF;" version="1.1" viewBox="0 0 202 382" width="202px" zoomAndPan="magnify"><defs/><g><!--class Software--><g id="elem_Software"><rect codeLine="3" fill="#F1F1F1" height="154.4075" id="Software" rx="2.5" ry="2.5" style="stroke:#181818;stroke-width:0.5;" width="188" x="7" y="7"/><ellipse cx="67.25" cy="23" fill="#ADD1B2" rx="11" ry="11" style="stroke:#181818;stroke-width:1.0;"/><path d="M66.7188,29.9219 Q64.9688,29.9219 63.8281,29.1875 Q62.7031,28.4375 62.1406,27.0938 Q61.5938,25.7344 61.5938,23.9375 Q61.5938,21.9063 62.25,20.4531 Q62.9063,19 64.1875,18.2188 Q65.4688,17.4375 67.3438,17.4375 Q68.2344,17.4375 68.9063,17.625 Q69.5781,17.7969 70.2656,18.1406 L69.4531,20.1563 Q68.8281,19.8438 68.2813,19.7188 Q67.75,19.5938 67.2656,19.5938 Q66.0938,19.5938 65.3906,20.125 Q64.6875,20.6563 64.3906,21.6094 Q64.0938,22.5625 64.0938,23.8281 Q64.0938,25.8438 64.8125,26.8125 Q65.5313,27.7656 67.125,27.7656 Q67.7188,27.7656 68.3438,27.6094 Q68.9688,27.4531 69.7969,27.0781 L69.7969,29.2969 Q69.0625,29.6094 68.2656,29.7656 Q67.4844,29.9219 66.7188,29.9219 Z " fill="#000000"/><text fill="#000000" font-family="sans-serif" font-size="14" lengthAdjust="spacing" textLength="59" x="87.75" y="28.432">Software</text><line style="stroke:#181818;stroke-width:0.5;" x1="8" x2="194" y1="39" y2="39"/><ellipse cx="18" cy="54.034" fill="none" rx="3" ry="3" style="stroke:#038048;stroke-width:1.0;"/><text fill="#000000" font-family="sans-serif" font-size="14" lengthAdjust="spacing" textLength="39" x="27" y="57.9659">id: int</text><ellipse cx="18" cy="73.1019" fill="none" rx="3" ry="3" style="stroke:#038048;stroke-width:1.0;"/><text fill="#000000" font-family="sans-serif" font-size="14" lengthAdjust="spacing" textLength="81" x="27" y="77.0339">label: string</text><ellipse cx="18" cy="92.1698" fill="none" rx="3" ry="3" style="stroke:#038048;stroke-width:1.0;"/><text fill="#000000" font-family="sans-serif" font-size="14" lengthAdjust="spacing" textLength="86" x="27" y="96.1018">name: string</text><ellipse cx="18" cy="111.2377" fill="none" rx="3" ry="3" style="stroke:#038048;stroke-width:1.0;"/><text fill="#000000" font-family="sans-serif" font-size="14" lengthAdjust="spacing" textLength="162" x="27" y="115.1697">description: string [0..1]</text><ellipse cx="18" cy="130.3056" fill="none" rx="3" ry="3" style="stroke:#038048;stroke-width:1.0;"/><text fill="#000000" font-family="sans-serif" font-size="14" lengthAdjust="spacing" textLength="125" x="27" y="134.2376">creationDate: Date</text><ellipse cx="18" cy="149.3735" fill="none" rx="3" ry="3" style="stroke:#038048;stroke-width:1.0;"/><text fill="#000000" font-family="sans-serif" font-size="14" lengthAdjust="spacing" textLength="162" x="27" y="153.3055">updateDate: Timestamp</text></g><!--class SoftwareProperty--><g id="elem_SoftwareProperty"><rect codeLine="12" fill="#F1F1F1" height="154.4075" id="SoftwareProperty" rx="2.5" ry="2.5" style="stroke:#181818;stroke-width:0.5;" width="188" x="7" y="221"/><ellipse cx="40" cy="237" fill="#ADD1B2" rx="11" ry="11" style="stroke:#181818;stroke-width:1.0;"/><path d="M39.4688,243.9219 Q37.7188,243.9219 36.5781,243.1875 Q35.4531,242.4375 34.8906,241.0938 Q34.3438,239.7344 34.3438,237.9375 Q34.3438,235.9063 35,234.4531 Q35.6563,233 36.9375,232.2188 Q38.2188,231.4375 40.0938,231.4375 Q40.9844,231.4375 41.6563,231.625 Q42.3281,231.7969 43.0156,232.1406 L42.2031,234.1563 Q41.5781,233.8438 41.0313,233.7188 Q40.5,233.5938 40.0156,233.5938 Q38.8438,233.5938 38.1406,234.125 Q37.4375,234.6563 37.1406,235.6094 Q36.8438,236.5625 36.8438,237.8281 Q36.8438,239.8438 37.5625,240.8125 Q38.2813,241.7656 39.875,241.7656 Q40.4688,241.7656 41.0938,241.6094 Q41.7188,241.4531 42.5469,241.0781 L42.5469,243.2969 Q41.8125,243.6094 41.0156,243.7656 Q40.2344,243.9219 39.4688,243.9219 Z " fill="#000000"/><text fill="#000000" font-family="sans-serif" font-size="14" lengthAdjust="spacing" textLength="116" x="58" y="242.432">SoftwareProperty</text><line style="stroke:#181818;stroke-width:0.5;" x1="8" x2="194" y1="253" y2="253"/><ellipse cx="18" cy="268.034" fill="none" rx="3" ry="3" style="stroke:#038048;stroke-width:1.0;"/><text fill="#000000" font-family="sans-serif" font-size="14" lengthAdjust="spacing" textLength="39" x="27" y="271.9659">id: int</text><ellipse cx="18" cy="287.1019" fill="none" rx="3" ry="3" style="stroke:#038048;stroke-width:1.0;"/><text fill="#000000" font-family="sans-serif" font-size="14" lengthAdjust="spacing" textLength="81" x="27" y="291.0339">label: string</text><ellipse cx="18" cy="306.1698" fill="none" rx="3" ry="3" style="stroke:#038048;stroke-width:1.0;"/><text fill="#000000" font-family="sans-serif" font-size="14" lengthAdjust="spacing" textLength="86" x="27" y="310.1018">name: string</text><ellipse cx="18" cy="325.2377" fill="none" rx="3" ry="3" style="stroke:#038048;stroke-width:1.0;"/><text fill="#000000" font-family="sans-serif" font-size="14" lengthAdjust="spacing" textLength="102" x="27" y="329.1697">description: int</text><ellipse cx="18" cy="344.3056" fill="none" rx="3" ry="3" style="stroke:#038048;stroke-width:1.0;"/><text fill="#000000" font-family="sans-serif" font-size="14" lengthAdjust="spacing" textLength="125" x="27" y="348.2376">creationDate: Date</text><ellipse cx="18" cy="363.3735" fill="none" rx="3" ry="3" style="stroke:#038048;stroke-width:1.0;"/><text fill="#000000" font-family="sans-serif" font-size="14" lengthAdjust="spacing" textLength="162" x="27" y="367.3055">updateDate: Timestamp</text></g><!--reverse link Software to SoftwareProperty--><g id="link_Software_SoftwareProperty"><path codeLine="21" d="M101,173.24 C101,192.59 101,201.38 101,220.73 " fill="none" id="Software-backto-SoftwareProperty" style="stroke:#181818;stroke-width:1.0;"/><polygon fill="#181818" points="101,161.24,97,167.24,101,173.24,105,167.24,101,161.24" style="stroke:#181818;stroke-width:1.0;"/><text fill="#000000" font-family="sans-serif" font-size="13" lengthAdjust="spacing" textLength="7" x="93.6664" y="183.3233">1</text><text fill="#000000" font-family="sans-serif" font-size="13" lengthAdjust="spacing" textLength="20" x="80.0156" y="209.1987">0..*</text></g><!--SRC=[hP312i8m38RlVOhGusJYhZlx08BUn4EsHWsiNKaZ8kAxsr4Sg2V174Bo__pm9MTs1EIZti2JxqYICVs0AS5sFEeLXU1k8DU2NGiSj2m3TZIqa5Gud8eKqDExuYZrmb5v32y3zglbiZaKlnV2oLoZvkJKYtw9Biz5tR6dfEYZUNo2RMIC91dyFu1pz6Ui-LEsiL3LDTXyP6M_GCqJ]--></g></svg>