<?xml version="1.0" encoding="us-ascii" standalone="no"?><svg xmlns="http://www.w3.org/2000/svg" xmlns:xlink="http://www.w3.org/1999/xlink" contentStyleType="text/css" height="271px" preserveAspectRatio="none" style="width:1110px;height:271px;background:#FFFFFF;" version="1.1" viewBox="0 0 1110 271" width="1110px" zoomAndPan="magnify"><defs><filter height="1" id="biodas8zfmxqj0" width="1" x="0" y="0"><feFlood flood-color="#DDDDDD" result="flood"/><feComposite in="SourceGraphic" in2="flood" operator="over"/></filter></defs><g><text fill="#000000" font-family="sans-serif" font-size="12" lengthAdjust="spacing" textLength="39" x="8" y="18.457">D&#233;tails</text><line style="stroke:#000000;stroke-width:1.0;" x1="6" x2="6" y1="6" y2="21.0938"/><line style="stroke:#000000;stroke-width:1.0;" x1="6" x2="50" y1="6" y2="6"/><line style="stroke:#000000;stroke-width:1.0;" x1="50" x2="50" y1="6" y2="21.0938"/><line style="stroke:#000000;stroke-width:1.0;" x1="50" x2="60" y1="21.0938" y2="21.0938"/><text fill="#000000" font-family="sans-serif" font-size="12" font-weight="bold" lengthAdjust="spacing" textLength="45" x="65" y="18.457">Capture</text><line style="stroke:#000000;stroke-width:1.0;" x1="60" x2="60" y1="6" y2="21.0938"/><line style="stroke:#000000;stroke-width:1.0;" x1="60" x2="113" y1="6" y2="6"/><line style="stroke:#000000;stroke-width:1.0;" x1="113" x2="113" y1="6" y2="21.0938"/><line style="stroke:#000000;stroke-width:1.0;" x1="113" x2="123" y1="21.0938" y2="21.0938"/><text fill="#000000" font-family="sans-serif" font-size="12" lengthAdjust="spacing" textLength="44" x="17" y="36.5508">Capture</text><text fill="#000000" font-family="sans-serif" font-size="12" lengthAdjust="spacing" textLength="77" x="27" y="51.6445">Partie retenue</text><text fill="#000000" font-family="sans-serif" font-size="12" lengthAdjust="spacing" textLength="138" x="37" y="66.7383">Consommation humaine</text><text fill="#0000FF" font-family="sans-serif" font-size="12" font-style="italic" lengthAdjust="spacing" textLength="13" x="199" y="66.7383">[1]</text><text fill="#000000" font-family="sans-serif" font-size="12" lengthAdjust="spacing" textLength="126" x="37" y="81.832">Obligation &#224; d&#233;barquer</text><text fill="#0000FF" font-family="sans-serif" font-size="12" font-style="italic" lengthAdjust="spacing" textLength="13" x="199" y="81.832">[2]</text><text fill="#000000" filter="url(#biodas8zfmxqj0)" font-family="sans-serif" font-size="12" lengthAdjust="spacing" textLength="31" x="37" y="96.9258">Appat</text><text fill="#0000FF" font-family="sans-serif" font-size="12" font-style="italic" lengthAdjust="spacing" textLength="13" x="199" y="96.9258">[2]</text><text fill="#000000" font-family="sans-serif" font-size="12" lengthAdjust="spacing" textLength="46" x="37" y="112.0195">Godaille</text><text fill="#0000FF" font-family="sans-serif" font-size="12" font-style="italic" lengthAdjust="spacing" textLength="13" x="199" y="112.0195">[1]</text><text fill="#000000" font-family="sans-serif" font-size="12" lengthAdjust="spacing" textLength="131" x="27" y="127.1133">Partie non retenue, Vrac</text><text fill="#000000" font-family="sans-serif" font-size="12" lengthAdjust="spacing" textLength="162" x="27" y="142.207">Partie non retenue, Hors-Vrac</text><rect fill="none" height="2" style="stroke:#888888;stroke-width:1.0;" width="2" x="10" y="30.6406"/><rect fill="none" height="2" style="stroke:#888888;stroke-width:1.0;" width="2" x="20" y="45.7344"/><line style="stroke:#888888;stroke-width:1.0;" x1="11" x2="11" y1="33.6406" y2="46.7344"/><line style="stroke:#888888;stroke-width:1.0;" x1="11" x2="19" y1="46.7344" y2="46.7344"/><line style="stroke:#888888;stroke-width:1.0;" x1="21" x2="21" y1="48.7344" y2="61.8281"/><line style="stroke:#888888;stroke-width:1.0;" x1="21" x2="29" y1="61.8281" y2="61.8281"/><line style="stroke:#888888;stroke-width:1.0;" x1="21" x2="21" y1="48.7344" y2="76.9219"/><line style="stroke:#888888;stroke-width:1.0;" x1="21" x2="29" y1="76.9219" y2="76.9219"/><line style="stroke:#888888;stroke-width:1.0;" x1="21" x2="21" y1="48.7344" y2="92.0156"/><line style="stroke:#888888;stroke-width:1.0;" x1="21" x2="29" y1="92.0156" y2="92.0156"/><line style="stroke:#888888;stroke-width:1.0;" x1="21" x2="21" y1="48.7344" y2="107.1094"/><line style="stroke:#888888;stroke-width:1.0;" x1="21" x2="29" y1="107.1094" y2="107.1094"/><line style="stroke:#888888;stroke-width:1.0;" x1="11" x2="11" y1="33.6406" y2="122.2031"/><line style="stroke:#888888;stroke-width:1.0;" x1="11" x2="19" y1="122.2031" y2="122.2031"/><line style="stroke:#888888;stroke-width:1.0;" x1="11" x2="11" y1="33.6406" y2="137.2969"/><line style="stroke:#888888;stroke-width:1.0;" x1="11" x2="19" y1="137.2969" y2="137.2969"/><line style="stroke:#AAAAAA;stroke-width:1.0;" x1="7" x2="215" y1="201.625" y2="201.625"/><rect fill="#EEEEEE" height="19.0938" rx="5" ry="5" style="stroke:#000000;stroke-width:2.5;" width="100" x="10.5" y="209.625"/><text fill="#000000" font-family="sans-serif" font-size="12" lengthAdjust="spacing" textLength="51" x="36.5" y="224.082">Contr&#244;ler</text><rect fill="#EEEEEE" height="19.0938" rx="5" ry="5" style="stroke:#000000;stroke-width:2.5;" width="36" x="117.5" y="209.625"/><text fill="#000000" font-family="sans-serif" font-size="12" font-weight="bold" lengthAdjust="spacing" textLength="14" x="128.5" y="224.082">&lt;&lt;</text><line style="stroke:#000000;stroke-width:1.0;" x1="6" x2="215" y1="23.0938" y2="23.0938"/><line style="stroke:#000000;stroke-width:1.0;" x1="6" x2="215" y1="233.2188" y2="233.2188"/><line style="stroke:#000000;stroke-width:1.0;" x1="6" x2="6" y1="23.0938" y2="145.8438"/><line style="stroke:#000000;stroke-width:1.0;" x1="215" x2="215" y1="145.8438" y2="162.9375"/><line style="stroke:#000000;stroke-width:1.0;" x1="215" x2="215" y1="23.0938" y2="145.8438"/><line style="stroke:#000000;stroke-width:1.0;" x1="6" x2="6" y1="205.125" y2="233.2188"/><line style="stroke:#000000;stroke-width:1.0;" x1="6" x2="6" y1="197.125" y2="205.125"/><line style="stroke:#000000;stroke-width:1.0;" x1="215" x2="215" y1="205.125" y2="233.2188"/><line style="stroke:#000000;stroke-width:1.0;" x1="6" x2="6" y1="180.0313" y2="197.125"/><line style="stroke:#000000;stroke-width:1.0;" x1="215" x2="215" y1="197.125" y2="205.125"/><line style="stroke:#000000;stroke-width:1.0;" x1="6" x2="6" y1="162.9375" y2="180.0313"/><line style="stroke:#000000;stroke-width:1.0;" x1="215" x2="215" y1="180.0313" y2="197.125"/><line style="stroke:#000000;stroke-width:1.0;" x1="6" x2="6" y1="145.8438" y2="162.9375"/><line style="stroke:#000000;stroke-width:1.0;" x1="215" x2="215" y1="162.9375" y2="180.0313"/><rect fill="#EEEEEE" height="19.0938" rx="5" ry="5" style="stroke:#000000;stroke-width:2.5;" width="60" x="233.5" y="27.5938"/><text fill="#000000" font-family="sans-serif" font-size="12" lengthAdjust="spacing" textLength="44" x="241.5" y="42.0508">Capture</text><text fill="#000000" font-family="sans-serif" font-size="12" lengthAdjust="spacing" textLength="3" x="298" y="37.5508">/</text><rect fill="#EEEEEE" height="19.0938" rx="5" ry="5" style="stroke:#000000;stroke-width:2.5;" width="116" x="305.5" y="27.5938"/><text fill="#000000" font-family="sans-serif" font-size="12" lengthAdjust="spacing" textLength="77" x="325" y="42.0508">Partie retenue</text><rect fill="#EEEEEE" height="19.0938" rx="5" ry="5" style="stroke:#000000;stroke-width:2.5;" width="44" x="428.5" y="27.5938"/><text fill="#000000" font-family="sans-serif" font-size="12" font-weight="bold" lengthAdjust="spacing" textLength="33" x="434" y="42.0508">Appat</text><text fill="#000000" font-family="sans-serif" font-size="12" lengthAdjust="spacing" textLength="15" x="477" y="37.5508">(2)</text><rect fill="#EEEEEE" height="12" rx="5" ry="5" style="stroke:#000000;stroke-width:2.5;" width="20" x="642.5" y="28.5938"/><path d="M652.5,30.5938 L648.5,34.5938 L652.5,38.5938 L654,37.0938 L651.5,34.5938 L654,32.0938 L652.5,30.5938 " fill="#000000" style="stroke:;stroke-width:0.0;stroke-dasharray:;"/><rect fill="#EEEEEE" height="12" rx="5" ry="5" style="stroke:#000000;stroke-width:2.5;" width="20" x="669.5" y="28.5938"/><path d="M677,30.5938 L675.5,32.0938 L678,34.5938 L675.5,37.0938 L677,38.5938 L681,34.5938 L677,30.5938 " fill="#000000" style="stroke:;stroke-width:0.0;stroke-dasharray:;"/><text fill="#000000" font-family="sans-serif" font-size="12" lengthAdjust="spacing" textLength="93" x="231" y="65.6445">Poids total (kg)* :</text><text fill="#000000" font-family="sans-serif" font-size="12" lengthAdjust="spacing" textLength="7" x="329" y="65.6445">0</text><line style="stroke:#000000;stroke-width:1.0;" x1="327" x2="378" y1="68.2813" y2="68.2813"/><line style="stroke:#000000;stroke-width:1.0;" x1="327" x2="327" y1="65.2813" y2="67.2813"/><line style="stroke:#000000;stroke-width:1.0;" x1="378" x2="378" y1="65.2813" y2="67.2813"/><text fill="#000000" font-family="sans-serif" font-size="12" lengthAdjust="spacing" textLength="190" x="251" y="86.7383">Inventaire exhaustif des esp&#232;ces ?</text><rect fill="none" height="10" style="stroke:#000000;stroke-width:1.5;" width="10" x="233" y="76.8281"/><line style="stroke:#AAAAAA;stroke-width:1.0;" x1="231" x2="442" y1="94.875" y2="94.875"/><path d="M234.97,101.375 L232,104.375 L234,104.375 L234,109.375 L236,109.375 L236,104.375 L238,104.375 L234.97,101.375 " fill="#000000" style="stroke:;stroke-width:0.0;stroke-dasharray:;"/><rect fill="#EEEEEE" height="12" rx="5" ry="5" style="stroke:#000000;stroke-width:2.5;" width="36" x="262.5" y="104.875"/><path d="M279.5,106.875 L279.5,109.875 L276.5,109.875 L276.5,111.875 L279.5,111.875 L279.5,114.875 L281.5,114.875 L281.5,111.875 L284.5,111.875 L284.5,109.875 L281.5,109.875 L281.5,106.875 L279.5,106.875 " fill="#000000" style="stroke:;stroke-width:0.0;stroke-dasharray:;"/><rect fill="#EEEEEE" height="12" rx="5" ry="5" style="stroke:#000000;stroke-width:2.5;" width="36" x="305.5" y="104.875"/><path d="M322.5,106.875 C321.95,106.875 321.5,107.325 321.5,107.875 L320.5,107.875 C319.95,107.875 319.5,108.325 319.5,108.875 L326.5,108.875 C326.5,108.325 326.05,107.875 325.5,107.875 L324.5,107.875 C324.5,107.325 324.05,106.875 323.5,106.875 L322.5,106.875 M320.5,109.875 L320.5,114.685 C320.5,114.795 320.58,114.875 320.69,114.875 L325.32,114.875 C325.43,114.875 325.51,114.795 325.51,114.685 L325.51,109.875 L324.51,109.875 L324.51,113.375 C324.51,113.655 324.29,113.875 324.01,113.875 C323.73,113.875 323.51,113.655 323.51,113.375 L323.51,109.875 L322.51,109.875 L322.51,113.375 C322.51,113.655 322.29,113.875 322.01,113.875 C321.73,113.875 321.51,113.655 321.51,113.375 L321.51,109.875 L320.51,109.875 " fill="#000000" style="stroke:;stroke-width:0.0;stroke-dasharray:;"/><text fill="#000000" font-family="sans-serif" font-size="12" lengthAdjust="spacing" textLength="49" x="366" y="114.832">Estim&#233; ?</text><rect fill="none" height="10" style="stroke:#000000;stroke-width:1.5;" width="10" x="348" y="104.9219"/><rect fill="#EEEEEE" height="19.0938" rx="5" ry="5" style="stroke:#000000;stroke-width:2.5;" width="12" x="233.5" y="124.875"/><text fill="#000000" font-family="sans-serif" font-size="12" lengthAdjust="spacing" textLength="3" x="238" y="139.332">&#160;</text><text fill="#000000" font-family="sans-serif" font-size="12" lengthAdjust="spacing" textLength="7" x="250" y="134.832">#</text><text fill="#000000" font-family="sans-serif" font-size="12" font-weight="bold" lengthAdjust="spacing" textLength="120" x="259" y="134.832">Esp&#232;ce commerciale</text><text fill="#000000" font-family="sans-serif" font-size="12" font-weight="bold" lengthAdjust="spacing" textLength="73" x="477" y="134.832">Pr&#233;sentation</text><text fill="#000000" font-family="sans-serif" font-size="12" font-weight="bold" lengthAdjust="spacing" textLength="22" x="575" y="134.832">&#201;tat</text><text fill="#000000" font-family="sans-serif" font-size="12" font-weight="bold" lengthAdjust="spacing" textLength="55" x="649" y="134.832">Cat&#233;gorie</text><text fill="#000000" font-family="sans-serif" font-size="12" font-weight="bold" lengthAdjust="spacing" textLength="85" x="707" y="134.832">Poids total (kg)</text><text fill="#000000" font-family="sans-serif" font-size="12" font-weight="bold" lengthAdjust="spacing" textLength="70" x="804" y="134.832">Taux &#233;chant</text><text fill="#000000" font-family="sans-serif" font-size="12" font-weight="bold" lengthAdjust="spacing" textLength="77" x="876" y="134.832">Poids &#233;chant.</text><text fill="#000000" font-family="sans-serif" font-size="12" font-weight="bold" lengthAdjust="spacing" textLength="89" x="973" y="134.832">Nb indiv &#233;chant.</text><path d="M1065,122.375 L1065,123.375 L1073,123.375 L1073,122.375 L1065,122.375 M1065,125.345 L1065,126.345 L1073,126.345 L1073,125.345 L1065,125.345 M1065,128.345 L1065,129.345 L1073,129.345 L1073,128.345 L1065,128.345 " fill="#000000" style="stroke:;stroke-width:0.0;stroke-dasharray:;"/><rect fill="#EEEEEE" height="19.0938" rx="5" ry="5" style="stroke:#000000;stroke-width:2.5;" width="12" x="233.5" y="150.9688"/><text fill="#000000" font-family="sans-serif" font-size="12" lengthAdjust="spacing" textLength="3" x="238" y="165.4258">&#160;</text><text fill="#000000" font-family="sans-serif" font-size="12" lengthAdjust="spacing" textLength="7" x="250" y="160.9258">1</text><rect fill="#EEEEEE" height="18.0938" style="stroke:#000000;stroke-width:1.0;" width="175" x="259" y="148.4688"/><text fill="#000000" font-family="sans-serif" font-size="12" lengthAdjust="spacing" textLength="82" x="261" y="162.9258">MNZ- Baudroie</text><line style="stroke:#000000;stroke-width:1.0;" x1="423" x2="423" y1="148.4688" y2="166.5625"/><polygon fill="#000000" points="426,154.4688,432,154.4688,429,161.5625" style="stroke:#000000;stroke-width:1.0;"/><rect fill="#EEEEEE" height="18.0938" style="stroke:#000000;stroke-width:1.0;" width="95" x="477" y="148.4688"/><text fill="#000000" font-family="sans-serif" font-size="12" lengthAdjust="spacing" textLength="32" x="479" y="162.9258">Entier</text><line style="stroke:#000000;stroke-width:1.0;" x1="561" x2="561" y1="148.4688" y2="166.5625"/><polygon fill="#000000" points="564,154.4688,570,154.4688,567,161.5625" style="stroke:#000000;stroke-width:1.0;"/><rect fill="#EEEEEE" height="18.0938" style="stroke:#000000;stroke-width:1.0;" width="71" x="575" y="148.4688"/><text fill="#000000" font-family="sans-serif" font-size="12" lengthAdjust="spacing" textLength="28" x="577" y="162.9258">Frais</text><line style="stroke:#000000;stroke-width:1.0;" x1="635" x2="635" y1="148.4688" y2="166.5625"/><polygon fill="#000000" points="638,154.4688,644,154.4688,641,161.5625" style="stroke:#000000;stroke-width:1.0;"/><rect fill="#EEEEEE" height="18.0938" style="stroke:#000000;stroke-width:1.0;" width="47" x="649" y="148.4688"/><text fill="#000000" font-family="sans-serif" font-size="12" lengthAdjust="spacing" textLength="27" x="651" y="162.9258">Gros</text><line style="stroke:#000000;stroke-width:1.0;" x1="685" x2="685" y1="148.4688" y2="166.5625"/><polygon fill="#000000" points="688,154.4688,694,154.4688,691,161.5625" style="stroke:#000000;stroke-width:1.0;"/><text fill="#000000" font-family="sans-serif" font-size="12" lengthAdjust="spacing" textLength="14" x="711" y="161.9258">50</text><line style="stroke:#000000;stroke-width:1.0;" x1="709" x2="728" y1="164.5625" y2="164.5625"/><line style="stroke:#000000;stroke-width:1.0;" x1="709" x2="709" y1="161.5625" y2="163.5625"/><line style="stroke:#000000;stroke-width:1.0;" x1="728" x2="728" y1="161.5625" y2="163.5625"/><text fill="#000000" font-family="sans-serif" font-size="12" lengthAdjust="spacing" textLength="49" x="752" y="161.9258">Estim&#233; ?</text><rect fill="none" height="10" style="stroke:#000000;stroke-width:1.5;" width="10" x="734" y="152.0156"/><text fill="#000000" font-family="sans-serif" font-size="12" lengthAdjust="spacing" textLength="14" x="880" y="161.9258">10</text><line style="stroke:#000000;stroke-width:1.0;" x1="878" x2="897" y1="164.5625" y2="164.5625"/><line style="stroke:#000000;stroke-width:1.0;" x1="878" x2="878" y1="161.5625" y2="163.5625"/><line style="stroke:#000000;stroke-width:1.0;" x1="897" x2="897" y1="161.5625" y2="163.5625"/><text fill="#000000" font-family="sans-serif" font-size="12" lengthAdjust="spacing" textLength="49" x="921" y="161.9258">Estim&#233; ?</text><rect fill="none" height="10" style="stroke:#000000;stroke-width:1.5;" width="10" x="903" y="152.0156"/><text fill="#000000" font-family="sans-serif" font-size="12" lengthAdjust="spacing" textLength="7" x="976" y="160.9258">4</text><line style="stroke:#000000;stroke-width:1.0;" x1="974" x2="985" y1="163.5625" y2="163.5625"/><line style="stroke:#000000;stroke-width:1.0;" x1="974" x2="974" y1="160.5625" y2="162.5625"/><line style="stroke:#000000;stroke-width:1.0;" x1="985" x2="985" y1="160.5625" y2="162.5625"/><path d="M1065,152.5625 L1065,159.5625 L1073,159.5625 L1073,158.5625 L1066,158.5625 L1066,152.5625 L1065,152.5625 M1070,152.5625 L1070,157.5625 L1072,157.5625 L1072,152.5625 L1070,152.5625 M1067,154.5625 L1067,157.5625 L1069,157.5625 L1069,154.5625 L1067,154.5625 " fill="#000000" style="stroke:;stroke-width:0.0;stroke-dasharray:;"/><text fill="#000000" font-family="sans-serif" font-size="12" lengthAdjust="spacing" textLength="3" x="1074" y="160.9258">&#160;</text><path d="M1078.09,152.5625 C1078.03,152.5625 1078,152.6025 1078,152.6525 L1078,158.4625 C1078,158.5125 1078.04,158.5525 1078.09,158.5525 L1084,158.5525 L1086,160.5525 L1086,152.6425 C1086,152.5825 1085.96,152.5525 1085.91,152.5525 L1078.1,152.5525 " fill="#000000" style="stroke:;stroke-width:0.0;stroke-dasharray:;"/><text fill="#000000" font-family="sans-serif" font-size="12" lengthAdjust="spacing" textLength="3" x="1087" y="160.9258">&#160;</text><path d="M1091,152.5625 L1091,160.5625 L1099,160.5625 L1099,152.5625 L1091,152.5625 M1092,153.5625 L1098,153.5625 L1098,156.5625 L1097,155.5625 L1096,156.5625 L1098,158.5625 L1098,159.5625 L1097,159.5625 L1093,155.5625 L1092,156.5625 L1092,153.5625 " fill="#000000" style="stroke:;stroke-width:0.0;stroke-dasharray:;"/><rect fill="#EEEEEE" height="19.0938" rx="5" ry="5" style="stroke:#000000;stroke-width:2.5;" width="12" x="233.5" y="177.0625"/><text fill="#000000" font-family="sans-serif" font-size="12" lengthAdjust="spacing" textLength="3" x="238" y="191.5195">&#160;</text><text fill="#000000" font-family="sans-serif" font-size="12" lengthAdjust="spacing" textLength="7" x="250" y="187.0195">2</text><rect fill="#EEEEEE" height="18.0938" style="stroke:#000000;stroke-width:1.0;" width="215" x="259" y="174.5625"/><text fill="#000000" font-family="sans-serif" font-size="12" lengthAdjust="spacing" textLength="109" x="261" y="189.0195">BSS - Bar europ&#233;en</text><line style="stroke:#000000;stroke-width:1.0;" x1="463" x2="463" y1="174.5625" y2="192.6563"/><polygon fill="#000000" points="466,180.5625,472,180.5625,469,187.6563" style="stroke:#000000;stroke-width:1.0;"/><rect fill="#EEEEEE" height="18.0938" style="stroke:#000000;stroke-width:1.0;" width="95" x="477" y="174.5625"/><text fill="#000000" font-family="sans-serif" font-size="12" lengthAdjust="spacing" textLength="47" x="479" y="189.0195">Evisc&#233;r&#233;</text><line style="stroke:#000000;stroke-width:1.0;" x1="561" x2="561" y1="174.5625" y2="192.6563"/><polygon fill="#000000" points="564,180.5625,570,180.5625,567,187.6563" style="stroke:#000000;stroke-width:1.0;"/><rect fill="#EEEEEE" height="18.0938" style="stroke:#000000;stroke-width:1.0;" width="71" x="575" y="174.5625"/><text fill="#000000" font-family="sans-serif" font-size="12" lengthAdjust="spacing" textLength="28" x="577" y="189.0195">Frais</text><line style="stroke:#000000;stroke-width:1.0;" x1="635" x2="635" y1="174.5625" y2="192.6563"/><polygon fill="#000000" points="638,180.5625,644,180.5625,641,187.6563" style="stroke:#000000;stroke-width:1.0;"/><rect fill="#EEEEEE" height="18.0938" style="stroke:#000000;stroke-width:1.0;" width="55" x="649" y="174.5625"/><text fill="#000000" font-family="sans-serif" font-size="12" lengthAdjust="spacing" textLength="35" x="651" y="189.0195">Moyen</text><line style="stroke:#000000;stroke-width:1.0;" x1="693" x2="693" y1="174.5625" y2="192.6563"/><polygon fill="#000000" points="696,180.5625,702,180.5625,699,187.6563" style="stroke:#000000;stroke-width:1.0;"/><text fill="#000000" font-family="sans-serif" font-size="12" lengthAdjust="spacing" textLength="14" x="711" y="188.0195">50</text><line style="stroke:#000000;stroke-width:1.0;" x1="709" x2="728" y1="190.6563" y2="190.6563"/><line style="stroke:#000000;stroke-width:1.0;" x1="709" x2="709" y1="187.6563" y2="189.6563"/><line style="stroke:#000000;stroke-width:1.0;" x1="728" x2="728" y1="187.6563" y2="189.6563"/><text fill="#000000" font-family="sans-serif" font-size="12" lengthAdjust="spacing" textLength="49" x="752" y="188.0195">Estim&#233; ?</text><rect fill="none" height="10" style="stroke:#000000;stroke-width:1.5;" width="10" x="734" y="178.1094"/><text fill="#000000" font-family="sans-serif" font-size="12" lengthAdjust="spacing" textLength="14" x="880" y="188.0195">10</text><line style="stroke:#000000;stroke-width:1.0;" x1="878" x2="897" y1="190.6563" y2="190.6563"/><line style="stroke:#000000;stroke-width:1.0;" x1="878" x2="878" y1="187.6563" y2="189.6563"/><line style="stroke:#000000;stroke-width:1.0;" x1="897" x2="897" y1="187.6563" y2="189.6563"/><text fill="#000000" font-family="sans-serif" font-size="12" lengthAdjust="spacing" textLength="49" x="921" y="188.0195">Estim&#233; ?</text><rect fill="none" height="10" style="stroke:#000000;stroke-width:1.5;" width="10" x="903" y="178.1094"/><text fill="#000000" font-family="sans-serif" font-size="12" lengthAdjust="spacing" textLength="7" x="976" y="187.0195">4</text><line style="stroke:#000000;stroke-width:1.0;" x1="974" x2="985" y1="189.6563" y2="189.6563"/><line style="stroke:#000000;stroke-width:1.0;" x1="974" x2="974" y1="186.6563" y2="188.6563"/><line style="stroke:#000000;stroke-width:1.0;" x1="985" x2="985" y1="186.6563" y2="188.6563"/><path d="M1065,178.6563 L1065,185.6563 L1073,185.6563 L1073,184.6563 L1066,184.6563 L1066,178.6563 L1065,178.6563 M1070,178.6563 L1070,183.6563 L1072,183.6563 L1072,178.6563 L1070,178.6563 M1067,180.6563 L1067,183.6563 L1069,183.6563 L1069,180.6563 L1067,180.6563 " fill="#000000" style="stroke:;stroke-width:0.0;stroke-dasharray:;"/><text fill="#000000" font-family="sans-serif" font-size="12" lengthAdjust="spacing" textLength="3" x="1074" y="187.0195">&#160;</text><path d="M1078.09,178.6563 C1078.03,178.6563 1078,178.6963 1078,178.7463 L1078,184.5563 C1078,184.6063 1078.04,184.6463 1078.09,184.6463 L1084,184.6463 L1086,186.6463 L1086,178.7363 C1086,178.6763 1085.96,178.6463 1085.91,178.6463 L1078.1,178.6463 " fill="#000000" style="stroke:;stroke-width:0.0;stroke-dasharray:;"/><text fill="#000000" font-family="sans-serif" font-size="12" lengthAdjust="spacing" textLength="3" x="1087" y="187.0195">&#160;</text><path d="M1091,178.6563 L1091,186.6563 L1099,186.6563 L1099,178.6563 L1091,178.6563 M1092,179.6563 L1098,179.6563 L1098,182.6563 L1097,181.6563 L1096,182.6563 L1098,184.6563 L1098,185.6563 L1097,185.6563 L1093,181.6563 L1092,182.6563 L1092,179.6563 " fill="#000000" style="stroke:;stroke-width:0.0;stroke-dasharray:;"/><line style="stroke:#000000;stroke-width:1.0;" x1="230" x2="249" y1="100.375" y2="100.375"/><line style="stroke:#000000;stroke-width:1.0;" x1="249" x2="258" y1="100.375" y2="100.375"/><line style="stroke:#000000;stroke-width:1.0;" x1="258" x2="476" y1="100.375" y2="100.375"/><line style="stroke:#000000;stroke-width:1.0;" x1="476" x2="574" y1="100.375" y2="100.375"/><line style="stroke:#000000;stroke-width:1.0;" x1="574" x2="648" y1="100.375" y2="100.375"/><line style="stroke:#000000;stroke-width:1.0;" x1="648" x2="706" y1="100.375" y2="100.375"/><line style="stroke:#000000;stroke-width:1.0;" x1="706" x2="803" y1="100.375" y2="100.375"/><line style="stroke:#000000;stroke-width:1.0;" x1="803" x2="875" y1="100.375" y2="100.375"/><line style="stroke:#000000;stroke-width:1.0;" x1="875" x2="972" y1="100.375" y2="100.375"/><line style="stroke:#000000;stroke-width:1.0;" x1="972" x2="1063" y1="100.375" y2="100.375"/><line style="stroke:#000000;stroke-width:1.0;" x1="1063" x2="1101" y1="100.375" y2="100.375"/><line style="stroke:#000000;stroke-width:1.0;" x1="230" x2="249" y1="173.5625" y2="173.5625"/><line style="stroke:#000000;stroke-width:1.0;" x1="249" x2="258" y1="173.5625" y2="173.5625"/><line style="stroke:#000000;stroke-width:1.0;" x1="258" x2="476" y1="173.5625" y2="173.5625"/><line style="stroke:#000000;stroke-width:1.0;" x1="476" x2="574" y1="173.5625" y2="173.5625"/><line style="stroke:#000000;stroke-width:1.0;" x1="574" x2="648" y1="173.5625" y2="173.5625"/><line style="stroke:#000000;stroke-width:1.0;" x1="648" x2="706" y1="173.5625" y2="173.5625"/><line style="stroke:#000000;stroke-width:1.0;" x1="706" x2="803" y1="173.5625" y2="173.5625"/><line style="stroke:#000000;stroke-width:1.0;" x1="803" x2="875" y1="173.5625" y2="173.5625"/><line style="stroke:#000000;stroke-width:1.0;" x1="875" x2="972" y1="173.5625" y2="173.5625"/><line style="stroke:#000000;stroke-width:1.0;" x1="972" x2="1063" y1="173.5625" y2="173.5625"/><line style="stroke:#000000;stroke-width:1.0;" x1="1063" x2="1101" y1="173.5625" y2="173.5625"/><line style="stroke:#000000;stroke-width:1.0;" x1="230" x2="249" y1="121.375" y2="121.375"/><line style="stroke:#000000;stroke-width:1.0;" x1="249" x2="258" y1="121.375" y2="121.375"/><line style="stroke:#000000;stroke-width:1.0;" x1="258" x2="476" y1="121.375" y2="121.375"/><line style="stroke:#000000;stroke-width:1.0;" x1="476" x2="574" y1="121.375" y2="121.375"/><line style="stroke:#000000;stroke-width:1.0;" x1="574" x2="648" y1="121.375" y2="121.375"/><line style="stroke:#000000;stroke-width:1.0;" x1="648" x2="706" y1="121.375" y2="121.375"/><line style="stroke:#000000;stroke-width:1.0;" x1="706" x2="803" y1="121.375" y2="121.375"/><line style="stroke:#000000;stroke-width:1.0;" x1="803" x2="875" y1="121.375" y2="121.375"/><line style="stroke:#000000;stroke-width:1.0;" x1="875" x2="972" y1="121.375" y2="121.375"/><line style="stroke:#000000;stroke-width:1.0;" x1="972" x2="1063" y1="121.375" y2="121.375"/><line style="stroke:#000000;stroke-width:1.0;" x1="1063" x2="1101" y1="121.375" y2="121.375"/><line style="stroke:#000000;stroke-width:1.0;" x1="230" x2="249" y1="199.6563" y2="199.6563"/><line style="stroke:#000000;stroke-width:1.0;" x1="249" x2="258" y1="199.6563" y2="199.6563"/><line style="stroke:#000000;stroke-width:1.0;" x1="258" x2="476" y1="199.6563" y2="199.6563"/><line style="stroke:#000000;stroke-width:1.0;" x1="476" x2="574" y1="199.6563" y2="199.6563"/><line style="stroke:#000000;stroke-width:1.0;" x1="574" x2="648" y1="199.6563" y2="199.6563"/><line style="stroke:#000000;stroke-width:1.0;" x1="648" x2="706" y1="199.6563" y2="199.6563"/><line style="stroke:#000000;stroke-width:1.0;" x1="706" x2="803" y1="199.6563" y2="199.6563"/><line style="stroke:#000000;stroke-width:1.0;" x1="803" x2="875" y1="199.6563" y2="199.6563"/><line style="stroke:#000000;stroke-width:1.0;" x1="875" x2="972" y1="199.6563" y2="199.6563"/><line style="stroke:#000000;stroke-width:1.0;" x1="972" x2="1063" y1="199.6563" y2="199.6563"/><line style="stroke:#000000;stroke-width:1.0;" x1="1063" x2="1101" y1="199.6563" y2="199.6563"/><line style="stroke:#000000;stroke-width:1.0;" x1="230" x2="249" y1="147.4688" y2="147.4688"/><line style="stroke:#000000;stroke-width:1.0;" x1="249" x2="258" y1="147.4688" y2="147.4688"/><line style="stroke:#000000;stroke-width:1.0;" x1="258" x2="476" y1="147.4688" y2="147.4688"/><line style="stroke:#000000;stroke-width:1.0;" x1="476" x2="574" y1="147.4688" y2="147.4688"/><line style="stroke:#000000;stroke-width:1.0;" x1="574" x2="648" y1="147.4688" y2="147.4688"/><line style="stroke:#000000;stroke-width:1.0;" x1="648" x2="706" y1="147.4688" y2="147.4688"/><line style="stroke:#000000;stroke-width:1.0;" x1="706" x2="803" y1="147.4688" y2="147.4688"/><line style="stroke:#000000;stroke-width:1.0;" x1="803" x2="875" y1="147.4688" y2="147.4688"/><line style="stroke:#000000;stroke-width:1.0;" x1="875" x2="972" y1="147.4688" y2="147.4688"/><line style="stroke:#000000;stroke-width:1.0;" x1="972" x2="1063" y1="147.4688" y2="147.4688"/><line style="stroke:#000000;stroke-width:1.0;" x1="1063" x2="1101" y1="147.4688" y2="147.4688"/><line style="stroke:#000000;stroke-width:1.0;" x1="230" x2="230" y1="100.375" y2="121.375"/><line style="stroke:#000000;stroke-width:1.0;" x1="258" x2="258" y1="100.375" y2="121.375"/><line style="stroke:#000000;stroke-width:1.0;" x1="1101" x2="1101" y1="100.375" y2="121.375"/><line style="stroke:#000000;stroke-width:1.0;" x1="230" x2="230" y1="173.5625" y2="199.6563"/><line style="stroke:#000000;stroke-width:1.0;" x1="249" x2="249" y1="173.5625" y2="199.6563"/><line style="stroke:#000000;stroke-width:1.0;" x1="258" x2="258" y1="173.5625" y2="199.6563"/><line style="stroke:#000000;stroke-width:1.0;" x1="476" x2="476" y1="173.5625" y2="199.6563"/><line style="stroke:#000000;stroke-width:1.0;" x1="574" x2="574" y1="173.5625" y2="199.6563"/><line style="stroke:#000000;stroke-width:1.0;" x1="648" x2="648" y1="173.5625" y2="199.6563"/><line style="stroke:#000000;stroke-width:1.0;" x1="706" x2="706" y1="173.5625" y2="199.6563"/><line style="stroke:#000000;stroke-width:1.0;" x1="803" x2="803" y1="173.5625" y2="199.6563"/><line style="stroke:#000000;stroke-width:1.0;" x1="875" x2="875" y1="173.5625" y2="199.6563"/><line style="stroke:#000000;stroke-width:1.0;" x1="972" x2="972" y1="173.5625" y2="199.6563"/><line style="stroke:#000000;stroke-width:1.0;" x1="1063" x2="1063" y1="173.5625" y2="199.6563"/><line style="stroke:#000000;stroke-width:1.0;" x1="1101" x2="1101" y1="173.5625" y2="199.6563"/><line style="stroke:#000000;stroke-width:1.0;" x1="230" x2="230" y1="147.4688" y2="173.5625"/><line style="stroke:#000000;stroke-width:1.0;" x1="249" x2="249" y1="147.4688" y2="173.5625"/><line style="stroke:#000000;stroke-width:1.0;" x1="258" x2="258" y1="147.4688" y2="173.5625"/><line style="stroke:#000000;stroke-width:1.0;" x1="476" x2="476" y1="147.4688" y2="173.5625"/><line style="stroke:#000000;stroke-width:1.0;" x1="574" x2="574" y1="147.4688" y2="173.5625"/><line style="stroke:#000000;stroke-width:1.0;" x1="648" x2="648" y1="147.4688" y2="173.5625"/><line style="stroke:#000000;stroke-width:1.0;" x1="706" x2="706" y1="147.4688" y2="173.5625"/><line style="stroke:#000000;stroke-width:1.0;" x1="803" x2="803" y1="147.4688" y2="173.5625"/><line style="stroke:#000000;stroke-width:1.0;" x1="875" x2="875" y1="147.4688" y2="173.5625"/><line style="stroke:#000000;stroke-width:1.0;" x1="972" x2="972" y1="147.4688" y2="173.5625"/><line style="stroke:#000000;stroke-width:1.0;" x1="1063" x2="1063" y1="147.4688" y2="173.5625"/><line style="stroke:#000000;stroke-width:1.0;" x1="1101" x2="1101" y1="147.4688" y2="173.5625"/><line style="stroke:#000000;stroke-width:1.0;" x1="230" x2="230" y1="121.375" y2="147.4688"/><line style="stroke:#000000;stroke-width:1.0;" x1="249" x2="249" y1="121.375" y2="147.4688"/><line style="stroke:#000000;stroke-width:1.0;" x1="258" x2="258" y1="121.375" y2="147.4688"/><line style="stroke:#000000;stroke-width:1.0;" x1="476" x2="476" y1="121.375" y2="147.4688"/><line style="stroke:#000000;stroke-width:1.0;" x1="574" x2="574" y1="121.375" y2="147.4688"/><line style="stroke:#000000;stroke-width:1.0;" x1="648" x2="648" y1="121.375" y2="147.4688"/><line style="stroke:#000000;stroke-width:1.0;" x1="706" x2="706" y1="121.375" y2="147.4688"/><line style="stroke:#000000;stroke-width:1.0;" x1="803" x2="803" y1="121.375" y2="147.4688"/><line style="stroke:#000000;stroke-width:1.0;" x1="875" x2="875" y1="121.375" y2="147.4688"/><line style="stroke:#000000;stroke-width:1.0;" x1="972" x2="972" y1="121.375" y2="147.4688"/><line style="stroke:#000000;stroke-width:1.0;" x1="1063" x2="1063" y1="121.375" y2="147.4688"/><line style="stroke:#000000;stroke-width:1.0;" x1="1101" x2="1101" y1="121.375" y2="147.4688"/><line style="stroke:#AAAAAA;stroke-width:1.0;" x1="6" x2="216" y1="238.7188" y2="238.7188"/><line style="stroke:#AAAAAA;stroke-width:1.0;" x1="217" x2="228" y1="238.7188" y2="238.7188"/><line style="stroke:#AAAAAA;stroke-width:1.0;" x1="229" x2="1103" y1="238.7188" y2="238.7188"/><rect fill="#EEEEEE" height="19.0938" rx="5" ry="5" style="stroke:#000000;stroke-width:2.5;" width="52" x="9.5" y="246.7188"/><text fill="#000000" font-family="sans-serif" font-size="12" lengthAdjust="spacing" textLength="40" x="15.5" y="261.1758">Fermer</text><rect fill="#EEEEEE" height="19.0938" rx="5" ry="5" style="stroke:#000000;stroke-width:2.5;" width="92" x="68.5" y="246.7188"/><text fill="#000000" font-family="sans-serif" font-size="12" lengthAdjust="spacing" textLength="70" x="79.5" y="261.1758">Sauvegarder</text></g></svg>