<?xml version="1.0" encoding="us-ascii" standalone="no"?><svg xmlns="http://www.w3.org/2000/svg" xmlns:xlink="http://www.w3.org/1999/xlink" contentStyleType="text/css" height="271px" preserveAspectRatio="none" style="width:846px;height:271px;background:#FFFFFF;" version="1.1" viewBox="0 0 846 271" width="846px" zoomAndPan="magnify"><defs><filter height="1" id="biq2vxlu1103v0" width="1" x="0" y="0"><feFlood flood-color="#DDDDDD" result="flood"/><feComposite in="SourceGraphic" in2="flood" operator="over"/></filter></defs><g><text fill="#000000" font-family="sans-serif" font-size="12" lengthAdjust="spacing" textLength="39" x="8" y="18.457">D&#233;tails</text><line style="stroke:#000000;stroke-width:1.0;" x1="6" x2="6" y1="6" y2="21.0938"/><line style="stroke:#000000;stroke-width:1.0;" x1="6" x2="50" y1="6" y2="6"/><line style="stroke:#000000;stroke-width:1.0;" x1="50" x2="50" y1="6" y2="21.0938"/><line style="stroke:#000000;stroke-width:1.0;" x1="50" x2="60" y1="21.0938" y2="21.0938"/><text fill="#000000" font-family="sans-serif" font-size="12" font-weight="bold" lengthAdjust="spacing" textLength="45" x="65" y="18.457">Capture</text><line style="stroke:#000000;stroke-width:1.0;" x1="60" x2="60" y1="6" y2="21.0938"/><line style="stroke:#000000;stroke-width:1.0;" x1="60" x2="113" y1="6" y2="6"/><line style="stroke:#000000;stroke-width:1.0;" x1="113" x2="113" y1="6" y2="21.0938"/><line style="stroke:#000000;stroke-width:1.0;" x1="113" x2="123" y1="21.0938" y2="21.0938"/><text fill="#000000" font-family="sans-serif" font-size="12" lengthAdjust="spacing" textLength="44" x="17" y="36.5508">Capture</text><text fill="#000000" font-family="sans-serif" font-size="12" lengthAdjust="spacing" textLength="77" x="27" y="51.6445">Partie retenue</text><text fill="#000000" font-family="sans-serif" font-size="12" lengthAdjust="spacing" textLength="131" x="27" y="66.7383">Partie non retenue, Vrac</text><text fill="#000000" font-family="sans-serif" font-size="12" lengthAdjust="spacing" textLength="42" x="37" y="81.832">D&#233;taill&#233;</text><text fill="#000000" font-family="sans-serif" font-size="12" lengthAdjust="spacing" textLength="66" x="37" y="96.9258">Non d&#233;taill&#233;</text><text fill="#000000" font-family="sans-serif" font-size="12" lengthAdjust="spacing" textLength="13" x="231" y="96.9258">[0]</text><text fill="#000000" font-family="sans-serif" font-size="12" lengthAdjust="spacing" textLength="162" x="27" y="112.0195">Partie non retenue, Hors-Vrac</text><text fill="#000000" filter="url(#biq2vxlu1103v0)" font-family="sans-serif" font-size="12" lengthAdjust="spacing" textLength="47" x="37" y="127.1133">Animaux</text><text fill="#0000FF" font-family="sans-serif" font-size="12" font-style="italic" lengthAdjust="spacing" textLength="13" x="231" y="127.1133">[2]</text><text fill="#000000" font-family="sans-serif" font-size="12" lengthAdjust="spacing" textLength="184" x="37" y="142.207">Ecosyst&#232;mes Marins Vuln&#233;rables</text><text fill="#000000" font-family="sans-serif" font-size="12" lengthAdjust="spacing" textLength="13" x="231" y="142.207">[0]</text><rect fill="none" height="2" style="stroke:#888888;stroke-width:1.0;" width="2" x="10" y="30.6406"/><line style="stroke:#888888;stroke-width:1.0;" x1="11" x2="11" y1="33.6406" y2="46.7344"/><line style="stroke:#888888;stroke-width:1.0;" x1="11" x2="19" y1="46.7344" y2="46.7344"/><rect fill="none" height="2" style="stroke:#888888;stroke-width:1.0;" width="2" x="20" y="60.8281"/><line style="stroke:#888888;stroke-width:1.0;" x1="11" x2="11" y1="33.6406" y2="61.8281"/><line style="stroke:#888888;stroke-width:1.0;" x1="11" x2="19" y1="61.8281" y2="61.8281"/><line style="stroke:#888888;stroke-width:1.0;" x1="21" x2="21" y1="63.8281" y2="76.9219"/><line style="stroke:#888888;stroke-width:1.0;" x1="21" x2="29" y1="76.9219" y2="76.9219"/><line style="stroke:#888888;stroke-width:1.0;" x1="21" x2="21" y1="63.8281" y2="92.0156"/><line style="stroke:#888888;stroke-width:1.0;" x1="21" x2="29" y1="92.0156" y2="92.0156"/><rect fill="none" height="2" style="stroke:#888888;stroke-width:1.0;" width="2" x="20" y="106.1094"/><line style="stroke:#888888;stroke-width:1.0;" x1="11" x2="11" y1="33.6406" y2="107.1094"/><line style="stroke:#888888;stroke-width:1.0;" x1="11" x2="19" y1="107.1094" y2="107.1094"/><line style="stroke:#888888;stroke-width:1.0;" x1="21" x2="21" y1="109.1094" y2="122.2031"/><line style="stroke:#888888;stroke-width:1.0;" x1="21" x2="29" y1="122.2031" y2="122.2031"/><line style="stroke:#888888;stroke-width:1.0;" x1="21" x2="21" y1="109.1094" y2="137.2969"/><line style="stroke:#888888;stroke-width:1.0;" x1="21" x2="29" y1="137.2969" y2="137.2969"/><line style="stroke:#AAAAAA;stroke-width:1.0;" x1="7" x2="247" y1="201.625" y2="201.625"/><rect fill="#EEEEEE" height="19.0938" rx="5" ry="5" style="stroke:#000000;stroke-width:2.5;" width="100" x="10.5" y="209.625"/><text fill="#000000" font-family="sans-serif" font-size="12" lengthAdjust="spacing" textLength="51" x="36.5" y="224.082">Contr&#244;ler</text><rect fill="#EEEEEE" height="19.0938" rx="5" ry="5" style="stroke:#000000;stroke-width:2.5;" width="36" x="117.5" y="209.625"/><text fill="#000000" font-family="sans-serif" font-size="12" font-weight="bold" lengthAdjust="spacing" textLength="14" x="128.5" y="224.082">&lt;&lt;</text><line style="stroke:#000000;stroke-width:1.0;" x1="6" x2="247" y1="23.0938" y2="23.0938"/><line style="stroke:#000000;stroke-width:1.0;" x1="6" x2="247" y1="233.2188" y2="233.2188"/><line style="stroke:#000000;stroke-width:1.0;" x1="6" x2="6" y1="23.0938" y2="145.8438"/><line style="stroke:#000000;stroke-width:1.0;" x1="247" x2="247" y1="145.8438" y2="162.9375"/><line style="stroke:#000000;stroke-width:1.0;" x1="247" x2="247" y1="23.0938" y2="145.8438"/><line style="stroke:#000000;stroke-width:1.0;" x1="6" x2="6" y1="205.125" y2="233.2188"/><line style="stroke:#000000;stroke-width:1.0;" x1="6" x2="6" y1="197.125" y2="205.125"/><line style="stroke:#000000;stroke-width:1.0;" x1="247" x2="247" y1="205.125" y2="233.2188"/><line style="stroke:#000000;stroke-width:1.0;" x1="6" x2="6" y1="180.0313" y2="197.125"/><line style="stroke:#000000;stroke-width:1.0;" x1="247" x2="247" y1="197.125" y2="205.125"/><line style="stroke:#000000;stroke-width:1.0;" x1="6" x2="6" y1="162.9375" y2="180.0313"/><line style="stroke:#000000;stroke-width:1.0;" x1="247" x2="247" y1="180.0313" y2="197.125"/><line style="stroke:#000000;stroke-width:1.0;" x1="6" x2="6" y1="145.8438" y2="162.9375"/><line style="stroke:#000000;stroke-width:1.0;" x1="247" x2="247" y1="162.9375" y2="180.0313"/><rect fill="#EEEEEE" height="19.0938" rx="5" ry="5" style="stroke:#000000;stroke-width:2.5;" width="60" x="265.5" y="27.5938"/><text fill="#000000" font-family="sans-serif" font-size="12" lengthAdjust="spacing" textLength="44" x="273.5" y="42.0508">Capture</text><text fill="#000000" font-family="sans-serif" font-size="12" lengthAdjust="spacing" textLength="3" x="330" y="37.5508">/</text><rect fill="#EEEEEE" height="19.0938" rx="5" ry="5" style="stroke:#000000;stroke-width:2.5;" width="196" x="337.5" y="27.5938"/><text fill="#000000" font-family="sans-serif" font-size="12" lengthAdjust="spacing" textLength="131" x="370" y="42.0508">Partie non retenue, Vrac</text><rect fill="#EEEEEE" height="19.0938" rx="5" ry="5" style="stroke:#000000;stroke-width:2.5;" width="68" x="540.5" y="27.5938"/><text fill="#000000" font-family="sans-serif" font-size="12" lengthAdjust="spacing" textLength="42" x="553.5" y="42.0508">D&#233;taill&#233;</text><rect fill="#EEEEEE" height="19.0938" rx="5" ry="5" style="stroke:#000000;stroke-width:2.5;" width="60" x="615.5" y="27.5938"/><text fill="#000000" font-family="sans-serif" font-size="12" font-weight="bold" lengthAdjust="spacing" textLength="50" x="620.5" y="42.0508">Animaux</text><text fill="#000000" font-family="sans-serif" font-size="12" lengthAdjust="spacing" textLength="15" x="680" y="37.5508">(2)</text><rect fill="#EEEEEE" height="12" rx="5" ry="5" style="stroke:#000000;stroke-width:2.5;" width="20" x="785.5" y="28.5938"/><path d="M795.5,30.5938 L791.5,34.5938 L795.5,38.5938 L797,37.0938 L794.5,34.5938 L797,32.0938 L795.5,30.5938 " fill="#000000" style="stroke:;stroke-width:0.0;stroke-dasharray:;"/><rect fill="#EEEEEE" height="12" rx="5" ry="5" style="stroke:#000000;stroke-width:2.5;" width="20" x="812.5" y="28.5938"/><path d="M820,30.5938 L818.5,32.0938 L821,34.5938 L818.5,37.0938 L820,38.5938 L824,34.5938 L820,30.5938 " fill="#000000" style="stroke:;stroke-width:0.0;stroke-dasharray:;"/><line style="stroke:#AAAAAA;stroke-width:1.0;" x1="262" x2="838" y1="55.6875" y2="55.6875"/><text fill="#000000" font-family="sans-serif" font-size="12" lengthAdjust="spacing" textLength="88" x="263" y="73.6445">Poids total (kg) :</text><text fill="#0000FF" font-family="sans-serif" font-size="12" font-style="italic" lengthAdjust="spacing" textLength="14" x="356" y="73.6445">70</text><line style="stroke:#000000;stroke-width:1.0;" x1="354" x2="413" y1="76.2813" y2="76.2813"/><line style="stroke:#000000;stroke-width:1.0;" x1="354" x2="354" y1="73.2813" y2="75.2813"/><line style="stroke:#000000;stroke-width:1.0;" x1="413" x2="413" y1="73.2813" y2="75.2813"/><text fill="#000000" font-family="sans-serif" font-size="12" lengthAdjust="spacing" textLength="49" x="582" y="73.6445">Estim&#233; ?</text><rect fill="none" height="10" style="stroke:#000000;stroke-width:1.5;" width="10" x="564" y="63.7344"/><rect fill="#EEEEEE" height="12" rx="5" ry="5" style="stroke:#000000;stroke-width:2.5;" width="36" x="265.5" y="101.875"/><path d="M282.5,103.875 L282.5,106.875 L279.5,106.875 L279.5,108.875 L282.5,108.875 L282.5,111.875 L284.5,111.875 L284.5,108.875 L287.5,108.875 L287.5,106.875 L284.5,106.875 L284.5,103.875 L282.5,103.875 " fill="#000000" style="stroke:;stroke-width:0.0;stroke-dasharray:;"/><rect fill="#EEEEEE" height="12" rx="5" ry="5" style="stroke:#000000;stroke-width:2.5;" width="36" x="308.5" y="101.875"/><path d="M325.5,103.875 C324.95,103.875 324.5,104.325 324.5,104.875 L323.5,104.875 C322.95,104.875 322.5,105.325 322.5,105.875 L329.5,105.875 C329.5,105.325 329.05,104.875 328.5,104.875 L327.5,104.875 C327.5,104.325 327.05,103.875 326.5,103.875 L325.5,103.875 M323.5,106.875 L323.5,111.685 C323.5,111.795 323.58,111.875 323.69,111.875 L328.32,111.875 C328.43,111.875 328.51,111.795 328.51,111.685 L328.51,106.875 L327.51,106.875 L327.51,110.375 C327.51,110.655 327.29,110.875 327.01,110.875 C326.73,110.875 326.51,110.655 326.51,110.375 L326.51,106.875 L325.51,106.875 L325.51,110.375 C325.51,110.655 325.29,110.875 325.01,110.875 C324.73,110.875 324.51,110.655 324.51,110.375 L324.51,106.875 L323.51,106.875 " fill="#000000" style="stroke:;stroke-width:0.0;stroke-dasharray:;"/><rect fill="#EEEEEE" height="19.0938" rx="5" ry="5" style="stroke:#000000;stroke-width:2.5;" width="12" x="265.5" y="122.875"/><text fill="#000000" font-family="sans-serif" font-size="12" lengthAdjust="spacing" textLength="3" x="270" y="137.332">&#160;</text><text fill="#000000" font-family="sans-serif" font-size="12" lengthAdjust="spacing" textLength="7" x="282" y="132.832">#</text><text fill="#000000" font-family="sans-serif" font-size="12" font-weight="bold" lengthAdjust="spacing" textLength="111" x="291" y="132.832">Esp&#232;ce scientifique</text><text fill="#000000" font-family="sans-serif" font-size="12" font-weight="bold" lengthAdjust="spacing" textLength="85" x="525" y="132.832">Poids total (kg)</text><text fill="#000000" font-family="sans-serif" font-size="12" font-weight="bold" lengthAdjust="spacing" textLength="75" x="612" y="132.832">Nb indiv. total</text><path d="M690,120.375 L690,121.375 L698,121.375 L698,120.375 L690,120.375 M690,123.345 L690,124.345 L698,124.345 L698,123.345 L690,123.345 M690,126.345 L690,127.345 L698,127.345 L698,126.345 L690,126.345 " fill="#000000" style="stroke:;stroke-width:0.0;stroke-dasharray:;"/><rect fill="#EEEEEE" height="19.0938" rx="5" ry="5" style="stroke:#000000;stroke-width:2.5;" width="12" x="265.5" y="148.9688"/><text fill="#000000" font-family="sans-serif" font-size="12" lengthAdjust="spacing" textLength="3" x="270" y="163.4258">&#160;</text><text fill="#000000" font-family="sans-serif" font-size="12" lengthAdjust="spacing" textLength="7" x="282" y="158.9258">1</text><rect fill="#EEEEEE" height="18.0938" style="stroke:#000000;stroke-width:1.0;" width="231" x="291" y="146.4688"/><text fill="#000000" font-family="sans-serif" font-size="12" lengthAdjust="spacing" textLength="146" x="293" y="160.9258">MON - Lophius piscatoruis</text><line style="stroke:#000000;stroke-width:1.0;" x1="511" x2="511" y1="146.4688" y2="164.5625"/><polygon fill="#000000" points="514,152.4688,520,152.4688,517,159.5625" style="stroke:#000000;stroke-width:1.0;"/><text fill="#000000" font-family="sans-serif" font-size="12" lengthAdjust="spacing" textLength="14" x="525" y="158.9258">50</text><text fill="#000000" font-family="sans-serif" font-size="12" lengthAdjust="spacing" textLength="14" x="612" y="158.9258">24</text><path d="M690,150.5625 L690,157.5625 L698,157.5625 L698,156.5625 L691,156.5625 L691,150.5625 L690,150.5625 M695,150.5625 L695,155.5625 L697,155.5625 L697,150.5625 L695,150.5625 M692,152.5625 L692,155.5625 L694,155.5625 L694,152.5625 L692,152.5625 " fill="#000000" style="stroke:;stroke-width:0.0;stroke-dasharray:;"/><text fill="#000000" font-family="sans-serif" font-size="12" lengthAdjust="spacing" textLength="3" x="699" y="158.9258">&#160;</text><path d="M703.09,150.5625 C703.03,150.5625 703,150.6025 703,150.6525 L703,156.4625 C703,156.5125 703.04,156.5525 703.09,156.5525 L709,156.5525 L711,158.5525 L711,150.6425 C711,150.5825 710.96,150.5525 710.91,150.5525 L703.1,150.5525 " fill="#000000" style="stroke:;stroke-width:0.0;stroke-dasharray:;"/><text fill="#000000" font-family="sans-serif" font-size="12" lengthAdjust="spacing" textLength="3" x="712" y="158.9258">&#160;</text><path d="M716,150.5625 L716,158.5625 L724,158.5625 L724,150.5625 L716,150.5625 M717,151.5625 L723,151.5625 L723,154.5625 L722,153.5625 L721,154.5625 L723,156.5625 L723,157.5625 L722,157.5625 L718,153.5625 L717,154.5625 L717,151.5625 " fill="#000000" style="stroke:;stroke-width:0.0;stroke-dasharray:;"/><rect fill="#EEEEEE" height="19.0938" rx="5" ry="5" style="stroke:#000000;stroke-width:2.5;" width="12" x="265.5" y="175.0625"/><text fill="#000000" font-family="sans-serif" font-size="12" lengthAdjust="spacing" textLength="3" x="270" y="189.5195">&#160;</text><text fill="#000000" font-family="sans-serif" font-size="12" lengthAdjust="spacing" textLength="7" x="282" y="185.0195">2</text><rect fill="#EEEEEE" height="18.0938" style="stroke:#000000;stroke-width:1.0;" width="215" x="291" y="172.5625"/><text fill="#000000" font-family="sans-serif" font-size="12" lengthAdjust="spacing" textLength="145" x="293" y="187.0195">ANK - Lophius budegassa</text><line style="stroke:#000000;stroke-width:1.0;" x1="495" x2="495" y1="172.5625" y2="190.6563"/><polygon fill="#000000" points="498,178.5625,504,178.5625,501,185.6563" style="stroke:#000000;stroke-width:1.0;"/><text fill="#000000" font-family="sans-serif" font-size="12" lengthAdjust="spacing" textLength="14" x="525" y="185.0195">20</text><text fill="#000000" font-family="sans-serif" font-size="12" lengthAdjust="spacing" textLength="14" x="612" y="185.0195">36</text><path d="M690,176.6563 L690,183.6563 L698,183.6563 L698,182.6563 L691,182.6563 L691,176.6563 L690,176.6563 M695,176.6563 L695,181.6563 L697,181.6563 L697,176.6563 L695,176.6563 M692,178.6563 L692,181.6563 L694,181.6563 L694,178.6563 L692,178.6563 " fill="#000000" style="stroke:;stroke-width:0.0;stroke-dasharray:;"/><text fill="#000000" font-family="sans-serif" font-size="12" lengthAdjust="spacing" textLength="3" x="699" y="185.0195">&#160;</text><path d="M703.09,176.6563 C703.03,176.6563 703,176.6963 703,176.7463 L703,182.5563 C703,182.6063 703.04,182.6463 703.09,182.6463 L709,182.6463 L711,184.6463 L711,176.7363 C711,176.6763 710.96,176.6463 710.91,176.6463 L703.1,176.6463 " fill="#000000" style="stroke:;stroke-width:0.0;stroke-dasharray:;"/><text fill="#000000" font-family="sans-serif" font-size="12" lengthAdjust="spacing" textLength="3" x="712" y="185.0195">&#160;</text><path d="M716,176.6563 L716,184.6563 L724,184.6563 L724,176.6563 L716,176.6563 M717,177.6563 L723,177.6563 L723,180.6563 L722,179.6563 L721,180.6563 L723,182.6563 L723,183.6563 L722,183.6563 L718,179.6563 L717,180.6563 L717,177.6563 " fill="#000000" style="stroke:;stroke-width:0.0;stroke-dasharray:;"/><line style="stroke:#000000;stroke-width:1.0;" x1="262" x2="281" y1="119.375" y2="119.375"/><line style="stroke:#000000;stroke-width:1.0;" x1="290" x2="524" y1="171.5625" y2="171.5625"/><line style="stroke:#000000;stroke-width:1.0;" x1="281" x2="290" y1="119.375" y2="119.375"/><line style="stroke:#000000;stroke-width:1.0;" x1="524" x2="611" y1="171.5625" y2="171.5625"/><line style="stroke:#000000;stroke-width:1.0;" x1="290" x2="524" y1="119.375" y2="119.375"/><line style="stroke:#000000;stroke-width:1.0;" x1="611" x2="688" y1="171.5625" y2="171.5625"/><line style="stroke:#000000;stroke-width:1.0;" x1="524" x2="611" y1="119.375" y2="119.375"/><line style="stroke:#000000;stroke-width:1.0;" x1="688" x2="726" y1="171.5625" y2="171.5625"/><line style="stroke:#000000;stroke-width:1.0;" x1="611" x2="688" y1="119.375" y2="119.375"/><line style="stroke:#000000;stroke-width:1.0;" x1="688" x2="726" y1="119.375" y2="119.375"/><line style="stroke:#000000;stroke-width:1.0;" x1="262" x2="281" y1="197.6563" y2="197.6563"/><line style="stroke:#000000;stroke-width:1.0;" x1="281" x2="290" y1="197.6563" y2="197.6563"/><line style="stroke:#000000;stroke-width:1.0;" x1="290" x2="524" y1="197.6563" y2="197.6563"/><line style="stroke:#000000;stroke-width:1.0;" x1="262" x2="281" y1="145.4688" y2="145.4688"/><line style="stroke:#000000;stroke-width:1.0;" x1="524" x2="611" y1="197.6563" y2="197.6563"/><line style="stroke:#000000;stroke-width:1.0;" x1="281" x2="290" y1="145.4688" y2="145.4688"/><line style="stroke:#000000;stroke-width:1.0;" x1="611" x2="688" y1="197.6563" y2="197.6563"/><line style="stroke:#000000;stroke-width:1.0;" x1="290" x2="524" y1="145.4688" y2="145.4688"/><line style="stroke:#000000;stroke-width:1.0;" x1="688" x2="726" y1="197.6563" y2="197.6563"/><line style="stroke:#000000;stroke-width:1.0;" x1="524" x2="611" y1="145.4688" y2="145.4688"/><line style="stroke:#000000;stroke-width:1.0;" x1="611" x2="688" y1="145.4688" y2="145.4688"/><line style="stroke:#000000;stroke-width:1.0;" x1="688" x2="726" y1="145.4688" y2="145.4688"/><line style="stroke:#000000;stroke-width:1.0;" x1="262" x2="281" y1="171.5625" y2="171.5625"/><line style="stroke:#000000;stroke-width:1.0;" x1="281" x2="290" y1="171.5625" y2="171.5625"/><line style="stroke:#000000;stroke-width:1.0;" x1="262" x2="262" y1="119.375" y2="145.4688"/><line style="stroke:#000000;stroke-width:1.0;" x1="290" x2="290" y1="171.5625" y2="197.6563"/><line style="stroke:#000000;stroke-width:1.0;" x1="281" x2="281" y1="119.375" y2="145.4688"/><line style="stroke:#000000;stroke-width:1.0;" x1="524" x2="524" y1="171.5625" y2="197.6563"/><line style="stroke:#000000;stroke-width:1.0;" x1="290" x2="290" y1="119.375" y2="145.4688"/><line style="stroke:#000000;stroke-width:1.0;" x1="611" x2="611" y1="171.5625" y2="197.6563"/><line style="stroke:#000000;stroke-width:1.0;" x1="524" x2="524" y1="119.375" y2="145.4688"/><line style="stroke:#000000;stroke-width:1.0;" x1="688" x2="688" y1="171.5625" y2="197.6563"/><line style="stroke:#000000;stroke-width:1.0;" x1="726" x2="726" y1="171.5625" y2="197.6563"/><line style="stroke:#000000;stroke-width:1.0;" x1="611" x2="611" y1="119.375" y2="145.4688"/><line style="stroke:#000000;stroke-width:1.0;" x1="688" x2="688" y1="119.375" y2="145.4688"/><line style="stroke:#000000;stroke-width:1.0;" x1="726" x2="726" y1="119.375" y2="145.4688"/><line style="stroke:#000000;stroke-width:1.0;" x1="262" x2="262" y1="145.4688" y2="171.5625"/><line style="stroke:#000000;stroke-width:1.0;" x1="281" x2="281" y1="145.4688" y2="171.5625"/><line style="stroke:#000000;stroke-width:1.0;" x1="290" x2="290" y1="145.4688" y2="171.5625"/><line style="stroke:#000000;stroke-width:1.0;" x1="524" x2="524" y1="145.4688" y2="171.5625"/><line style="stroke:#000000;stroke-width:1.0;" x1="611" x2="611" y1="145.4688" y2="171.5625"/><line style="stroke:#000000;stroke-width:1.0;" x1="688" x2="688" y1="145.4688" y2="171.5625"/><line style="stroke:#000000;stroke-width:1.0;" x1="726" x2="726" y1="145.4688" y2="171.5625"/><line style="stroke:#000000;stroke-width:1.0;" x1="262" x2="262" y1="171.5625" y2="197.6563"/><line style="stroke:#000000;stroke-width:1.0;" x1="281" x2="281" y1="171.5625" y2="197.6563"/><line style="stroke:#AAAAAA;stroke-width:1.0;" x1="6" x2="248" y1="238.7188" y2="238.7188"/><line style="stroke:#AAAAAA;stroke-width:1.0;" x1="249" x2="260" y1="238.7188" y2="238.7188"/><line style="stroke:#AAAAAA;stroke-width:1.0;" x1="261" x2="839" y1="238.7188" y2="238.7188"/><rect fill="#EEEEEE" height="19.0938" rx="5" ry="5" style="stroke:#000000;stroke-width:2.5;" width="52" x="9.5" y="246.7188"/><text fill="#000000" font-family="sans-serif" font-size="12" lengthAdjust="spacing" textLength="40" x="15.5" y="261.1758">Fermer</text><rect fill="#EEEEEE" height="19.0938" rx="5" ry="5" style="stroke:#000000;stroke-width:2.5;" width="92" x="68.5" y="246.7188"/><text fill="#000000" font-family="sans-serif" font-size="12" lengthAdjust="spacing" textLength="70" x="79.5" y="261.1758">Sauvegarder</text></g></svg>