<?xml version="1.0" encoding="us-ascii" standalone="no"?><svg xmlns="http://www.w3.org/2000/svg" xmlns:xlink="http://www.w3.org/1999/xlink" contentStyleType="text/css" height="172px" preserveAspectRatio="none" style="width:530px;height:172px;background:#FFFFFF;" version="1.1" viewBox="0 0 530 172" width="530px" zoomAndPan="magnify"><defs/><g><text fill="#000000" font-family="sans-serif" font-size="12" lengthAdjust="spacing" textLength="39" x="8" y="18.9492">D&#233;tails</text><line style="stroke:#000000;stroke-width:1.0;" x1="6" x2="6" y1="6" y2="21.9609"/><line style="stroke:#000000;stroke-width:1.0;" x1="6" x2="50" y1="6" y2="6"/><line style="stroke:#000000;stroke-width:1.0;" x1="50" x2="50" y1="6" y2="21.9609"/><line style="stroke:#000000;stroke-width:1.0;" x1="50" x2="60" y1="21.9609" y2="21.9609"/><text fill="#000000" font-family="sans-serif" font-size="12" lengthAdjust="spacing" textLength="44" x="62" y="18.9492">Capture</text><line style="stroke:#000000;stroke-width:1.0;" x1="60" x2="60" y1="6" y2="21.9609"/><line style="stroke:#000000;stroke-width:1.0;" x1="60" x2="109" y1="6" y2="6"/><line style="stroke:#000000;stroke-width:1.0;" x1="109" x2="109" y1="6" y2="21.9609"/><line style="stroke:#000000;stroke-width:1.0;" x1="109" x2="119" y1="21.9609" y2="21.9609"/><text fill="#000000" font-family="sans-serif" font-size="12" font-weight="bold" lengthAdjust="spacing" textLength="149" x="124" y="18.9492">Captures accidentelles (1)</text><line style="stroke:#000000;stroke-width:1.0;" x1="119" x2="119" y1="6" y2="21.9609"/><line style="stroke:#000000;stroke-width:1.0;" x1="119" x2="276" y1="6" y2="6"/><line style="stroke:#000000;stroke-width:1.0;" x1="276" x2="276" y1="6" y2="21.9609"/><line style="stroke:#000000;stroke-width:1.0;" x1="276" x2="286" y1="21.9609" y2="21.9609"/><text fill="#000000" font-family="sans-serif" font-size="12" font-weight="bold" lengthAdjust="spacing" textLength="123" x="8" y="36.9102">Mesures individuelles</text><line style="stroke:#000000;stroke-width:1.0;" x1="6" x2="6" y1="23.9609" y2="39.9219"/><line style="stroke:#000000;stroke-width:1.0;" x1="6" x2="134" y1="23.9609" y2="23.9609"/><line style="stroke:#000000;stroke-width:1.0;" x1="134" x2="134" y1="23.9609" y2="39.9219"/><line style="stroke:#000000;stroke-width:1.0;" x1="134" x2="144" y1="39.9219" y2="39.9219"/><text fill="#000000" font-family="sans-serif" font-size="12" lengthAdjust="spacing" textLength="53" x="146" y="36.9102">Rel&#226;ch&#233;s</text><line style="stroke:#000000;stroke-width:1.0;" x1="144" x2="144" y1="23.9609" y2="39.9219"/><line style="stroke:#000000;stroke-width:1.0;" x1="144" x2="202" y1="23.9609" y2="23.9609"/><line style="stroke:#000000;stroke-width:1.0;" x1="202" x2="202" y1="23.9609" y2="39.9219"/><line style="stroke:#000000;stroke-width:1.0;" x1="202" x2="212" y1="39.9219" y2="39.9219"/><rect fill="#EEEEEE" height="12" rx="5" ry="5" style="stroke:#000000;stroke-width:2.5;" width="28" x="9.5" y="45.4219"/><path d="M22.5,47.4219 L22.5,50.4219 L19.5,50.4219 L19.5,52.4219 L22.5,52.4219 L22.5,55.4219 L24.5,55.4219 L24.5,52.4219 L27.5,52.4219 L27.5,50.4219 L24.5,50.4219 L24.5,47.4219 L22.5,47.4219 " fill="#000000" style="stroke:;stroke-width:0.0;stroke-dasharray:;"/><text fill="#000000" font-family="sans-serif" font-size="12" lengthAdjust="spacing" textLength="7" x="7" y="74.8711">#</text><path d="M45.97,66.8828 L43,69.8828 L45,69.8828 L45,74.8828 L47,74.8828 L47,69.8828 L49,69.8828 L45.97,66.8828 " fill="#000000" style="stroke:;stroke-width:0.0;stroke-dasharray:;"/><text fill="#000000" font-family="sans-serif" font-size="12" lengthAdjust="spacing" textLength="3" x="52" y="74.8711">&#160;</text><text fill="#000000" font-family="sans-serif" font-size="12" font-weight="bold" lengthAdjust="spacing" textLength="111" x="55" y="74.8711">Esp&#232;ce scientifique</text><text fill="#000000" font-family="sans-serif" font-size="12" font-weight="bold" lengthAdjust="spacing" textLength="36" x="168" y="74.8711">Mort ?</text><text fill="#000000" font-family="sans-serif" font-size="12" font-weight="bold" lengthAdjust="spacing" textLength="29" x="206" y="74.8711">Sexe</text><text fill="#000000" font-family="sans-serif" font-size="12" font-weight="bold" lengthAdjust="spacing" textLength="118" x="237" y="74.8711">Longueur totale (cm)</text><text fill="#000000" font-family="sans-serif" font-size="12" font-weight="bold" lengthAdjust="spacing" textLength="136" x="360" y="74.8711">R&#233;f&#233;rence de la marque</text><path d="M499,61.9219 L499,62.9219 L507,62.9219 L507,61.9219 L499,61.9219 M499,64.8919 L499,65.8919 L507,65.8919 L507,64.8919 L499,64.8919 M499,67.8919 L499,68.8919 L507,68.8919 L507,67.8919 L499,67.8919 " fill="#000000" style="stroke:;stroke-width:0.0;stroke-dasharray:;"/><text fill="#000000" font-family="sans-serif" font-size="12" lengthAdjust="spacing" textLength="7" x="7" y="92.832">1</text><text fill="#000000" font-family="sans-serif" font-size="12" lengthAdjust="spacing" textLength="83" x="42" y="92.832">SKA - Raja spp</text><path d="M175.41,79.8828 L174.72,80.6028 L171.94,83.3828 L171.13,82.6028 L170.41,81.8828 L169,83.2928 L169.72,84.0128 L171.22,85.5128 L171.91,86.2328 L172.63,85.5128 L176.13,82.0128 L176.85,81.2928 L175.41,79.8828 " fill="#000000" style="stroke:;stroke-width:0.0;stroke-dasharray:;"/><text fill="#000000" font-family="sans-serif" font-size="12" lengthAdjust="spacing" textLength="9" x="206" y="92.832">M</text><text fill="#000000" font-family="sans-serif" font-size="12" lengthAdjust="spacing" textLength="21" x="237" y="92.832">124</text><text fill="#000000" font-family="sans-serif" font-size="12" lengthAdjust="spacing" textLength="17" x="357" y="92.832">Zzz</text><path d="M499.09,84.8438 C499.03,84.8438 499,84.8838 499,84.9338 L499,90.7438 C499,90.7938 499.04,90.8338 499.09,90.8338 L505,90.8338 L507,92.8338 L507,84.9238 C507,84.8638 506.96,84.8338 506.91,84.8338 L499.1,84.8338 " fill="#000000" style="stroke:;stroke-width:0.0;stroke-dasharray:;"/><text fill="#000000" font-family="sans-serif" font-size="12" lengthAdjust="spacing" textLength="3" x="508" y="92.832">&#160;</text><path d="M512,84.8438 L512,92.8438 L520,92.8438 L520,84.8438 L512,84.8438 M513,85.8438 L519,85.8438 L519,88.8438 L518,87.8438 L517,88.8438 L519,90.8438 L519,91.8438 L518,91.8438 L514,87.8438 L513,88.8438 L513,85.8438 " fill="#000000" style="stroke:;stroke-width:0.0;stroke-dasharray:;"/><line style="stroke:#000000;stroke-width:1.0;" x1="6" x2="41" y1="41.9219" y2="41.9219"/><line style="stroke:#000000;stroke-width:1.0;" x1="41" x2="167" y1="41.9219" y2="41.9219"/><line style="stroke:#000000;stroke-width:1.0;" x1="167" x2="205" y1="41.9219" y2="41.9219"/><line style="stroke:#000000;stroke-width:1.0;" x1="205" x2="236" y1="41.9219" y2="41.9219"/><line style="stroke:#000000;stroke-width:1.0;" x1="236" x2="356" y1="41.9219" y2="41.9219"/><line style="stroke:#000000;stroke-width:1.0;" x1="356" x2="497" y1="41.9219" y2="41.9219"/><line style="stroke:#000000;stroke-width:1.0;" x1="497" x2="522" y1="41.9219" y2="41.9219"/><line style="stroke:#000000;stroke-width:1.0;" x1="6" x2="41" y1="96.8438" y2="96.8438"/><line style="stroke:#000000;stroke-width:1.0;" x1="41" x2="167" y1="96.8438" y2="96.8438"/><line style="stroke:#000000;stroke-width:1.0;" x1="167" x2="205" y1="96.8438" y2="96.8438"/><line style="stroke:#000000;stroke-width:1.0;" x1="205" x2="236" y1="96.8438" y2="96.8438"/><line style="stroke:#000000;stroke-width:1.0;" x1="236" x2="356" y1="96.8438" y2="96.8438"/><line style="stroke:#000000;stroke-width:1.0;" x1="356" x2="497" y1="96.8438" y2="96.8438"/><line style="stroke:#000000;stroke-width:1.0;" x1="497" x2="522" y1="96.8438" y2="96.8438"/><line style="stroke:#000000;stroke-width:1.0;" x1="6" x2="41" y1="78.8828" y2="78.8828"/><line style="stroke:#000000;stroke-width:1.0;" x1="41" x2="167" y1="78.8828" y2="78.8828"/><line style="stroke:#000000;stroke-width:1.0;" x1="167" x2="205" y1="78.8828" y2="78.8828"/><line style="stroke:#000000;stroke-width:1.0;" x1="205" x2="236" y1="78.8828" y2="78.8828"/><line style="stroke:#000000;stroke-width:1.0;" x1="236" x2="356" y1="78.8828" y2="78.8828"/><line style="stroke:#000000;stroke-width:1.0;" x1="356" x2="497" y1="78.8828" y2="78.8828"/><line style="stroke:#000000;stroke-width:1.0;" x1="497" x2="522" y1="78.8828" y2="78.8828"/><line style="stroke:#000000;stroke-width:1.0;" x1="6" x2="41" y1="60.9219" y2="60.9219"/><line style="stroke:#000000;stroke-width:1.0;" x1="41" x2="167" y1="60.9219" y2="60.9219"/><line style="stroke:#000000;stroke-width:1.0;" x1="167" x2="205" y1="60.9219" y2="60.9219"/><line style="stroke:#000000;stroke-width:1.0;" x1="205" x2="236" y1="60.9219" y2="60.9219"/><line style="stroke:#000000;stroke-width:1.0;" x1="236" x2="356" y1="60.9219" y2="60.9219"/><line style="stroke:#000000;stroke-width:1.0;" x1="356" x2="497" y1="60.9219" y2="60.9219"/><line style="stroke:#000000;stroke-width:1.0;" x1="497" x2="522" y1="60.9219" y2="60.9219"/><line style="stroke:#000000;stroke-width:1.0;" x1="6" x2="6" y1="41.9219" y2="60.9219"/><line style="stroke:#000000;stroke-width:1.0;" x1="167" x2="167" y1="78.8828" y2="96.8438"/><line style="stroke:#000000;stroke-width:1.0;" x1="41" x2="41" y1="41.9219" y2="60.9219"/><line style="stroke:#000000;stroke-width:1.0;" x1="205" x2="205" y1="78.8828" y2="96.8438"/><line style="stroke:#000000;stroke-width:1.0;" x1="236" x2="236" y1="78.8828" y2="96.8438"/><line style="stroke:#000000;stroke-width:1.0;" x1="356" x2="356" y1="78.8828" y2="96.8438"/><line style="stroke:#000000;stroke-width:1.0;" x1="497" x2="497" y1="78.8828" y2="96.8438"/><line style="stroke:#000000;stroke-width:1.0;" x1="522" x2="522" y1="78.8828" y2="96.8438"/><line style="stroke:#000000;stroke-width:1.0;" x1="522" x2="522" y1="41.9219" y2="60.9219"/><line style="stroke:#000000;stroke-width:1.0;" x1="6" x2="6" y1="60.9219" y2="78.8828"/><line style="stroke:#000000;stroke-width:1.0;" x1="41" x2="41" y1="60.9219" y2="78.8828"/><line style="stroke:#000000;stroke-width:1.0;" x1="167" x2="167" y1="60.9219" y2="78.8828"/><line style="stroke:#000000;stroke-width:1.0;" x1="205" x2="205" y1="60.9219" y2="78.8828"/><line style="stroke:#000000;stroke-width:1.0;" x1="236" x2="236" y1="60.9219" y2="78.8828"/><line style="stroke:#000000;stroke-width:1.0;" x1="356" x2="356" y1="60.9219" y2="78.8828"/><line style="stroke:#000000;stroke-width:1.0;" x1="497" x2="497" y1="60.9219" y2="78.8828"/><line style="stroke:#000000;stroke-width:1.0;" x1="522" x2="522" y1="60.9219" y2="78.8828"/><line style="stroke:#000000;stroke-width:1.0;" x1="6" x2="6" y1="78.8828" y2="96.8438"/><line style="stroke:#000000;stroke-width:1.0;" x1="41" x2="41" y1="78.8828" y2="96.8438"/><text fill="#000000" font-family="sans-serif" font-size="12" font-weight="bold" lengthAdjust="spacing" textLength="44" x="6" y="129.7539">Total : 1</text><text fill="#000000" font-family="sans-serif" font-size="12" lengthAdjust="spacing" textLength="118" x="53" y="129.7539">individu(s) marqu&#233;(s)</text><line style="stroke:#AAAAAA;stroke-width:1.0;" x1="6" x2="523" y1="138.2656" y2="138.2656"/><rect fill="#EEEEEE" height="19.9609" rx="5" ry="5" style="stroke:#000000;stroke-width:2.5;" width="52" x="9.5" y="146.2656"/><text fill="#000000" font-family="sans-serif" font-size="12" lengthAdjust="spacing" textLength="40" x="15.5" y="161.2148">Fermer</text><rect fill="#EEEEEE" height="19.9609" rx="5" ry="5" style="stroke:#000000;stroke-width:2.5;" width="92" x="68.5" y="146.2656"/><text fill="#000000" font-family="sans-serif" font-size="12" lengthAdjust="spacing" textLength="70" x="79.5" y="161.2148">Sauvegarder</text><!--SRC=[NL7DRjf043vtdsAaI0WE9h59Sx0GJGka4i5gPD9KAifXOm-mZRthx0zf0xnCJ_Lp-CKwDaQLkjAEPaRVVFFDpBMnN5l3CyjsZ07ipW4cLMcvo0piOSmBwpIIDtmQdI83F4b4Yj9Ybb7KzNjmQ6i95g5fG4AcOYjITmJj8SQi-frigj8GchtRdL59_POmx1IPCwF7Dd5Mj-jmhTMhPpSYUVQiAaOrzTGKrPy4mII2kekLU76jjaXf2n-QyYPUu4yy-NCbrmwT1giipn2wITvh9ughSbML6YMHfWWPXvphbhIJetIZLfDFcSNjH_0WvZyucA9e8Ca6a-SH_FVs4D7tWqkotz_UZaYL4v_rp8lZ6ccQZiZv6e_yXyRs6qkoxckT488_F2UDfprsJU-ehYh99QpdDHThgfOtg7FKZzHhkU1kYskkKufPJNvWroZJviZiBkFIVetci4LjX9BWzuEBOD3t_UutJ6611VW322x2u2eS360yNTn33UYnxkUxEHZbTBqhOQmMJyuIGu_D-9P3xEWYEORmfK0vczoU4Z2LMw6LhATdiuVe7-3gqliaBBNKf0KU8ZR15NUPfOf4fKAkGnWNVl0-O7DE5wHjXR3IRAo8MFyAuIR-2m00]--></g></svg>