<?xml version="1.0" encoding="us-ascii" standalone="no"?><svg xmlns="http://www.w3.org/2000/svg" xmlns:xlink="http://www.w3.org/1999/xlink" contentStyleType="text/css" height="299px" preserveAspectRatio="none" style="width:939px;height:299px;background:#FFFFFF;" version="1.1" viewBox="0 0 939 299" width="939px" zoomAndPan="magnify"><defs><filter height="1" id="b10w9llbbvty3e0" width="1" x="0" y="0"><feFlood flood-color="#DDDDFF" result="flood"/><feComposite in="SourceGraphic" in2="flood" operator="over"/></filter></defs><g><text fill="#000000" font-family="sans-serif" font-size="12" lengthAdjust="spacing" textLength="39" x="8" y="18.9492">D&#233;tails</text><line style="stroke:#000000;stroke-width:1.0;" x1="6" x2="6" y1="6" y2="21.9609"/><line style="stroke:#000000;stroke-width:1.0;" x1="6" x2="50" y1="6" y2="6"/><line style="stroke:#000000;stroke-width:1.0;" x1="50" x2="50" y1="6" y2="21.9609"/><line style="stroke:#000000;stroke-width:1.0;" x1="50" x2="60" y1="21.9609" y2="21.9609"/><text fill="#000000" font-family="sans-serif" font-size="12" font-weight="bold" lengthAdjust="spacing" textLength="45" x="65" y="18.9492">Capture</text><line style="stroke:#000000;stroke-width:1.0;" x1="60" x2="60" y1="6" y2="21.9609"/><line style="stroke:#000000;stroke-width:1.0;" x1="60" x2="113" y1="6" y2="6"/><line style="stroke:#000000;stroke-width:1.0;" x1="113" x2="113" y1="6" y2="21.9609"/><line style="stroke:#000000;stroke-width:1.0;" x1="113" x2="123" y1="21.9609" y2="21.9609"/><text fill="#000000" font-family="sans-serif" font-size="12" lengthAdjust="spacing" textLength="44" x="17" y="37.9102">Capture</text><text fill="#0000FF" font-family="sans-serif" font-size="12" font-style="italic" lengthAdjust="spacing" textLength="13" x="199" y="37.9102">[8]</text><text fill="#000000" font-family="sans-serif" font-size="12" lengthAdjust="spacing" textLength="77" x="27" y="53.8711">Partie retenue</text><text fill="#0000FF" font-family="sans-serif" font-size="12" font-style="italic" lengthAdjust="spacing" textLength="13" x="199" y="53.8711">[8]</text><text fill="#000000" filter="url(#b10w9llbbvty3e0)" font-family="sans-serif" font-size="12" lengthAdjust="spacing" textLength="31" x="37" y="69.832">Appat</text><text fill="#0000FF" font-family="sans-serif" font-size="12" font-style="italic" lengthAdjust="spacing" textLength="13" x="199" y="69.832">[2]</text><text fill="#000000" font-family="sans-serif" font-size="12" lengthAdjust="spacing" textLength="138" x="37" y="85.793">Consommation humaine</text><text fill="#0000FF" font-family="sans-serif" font-size="12" font-style="italic" lengthAdjust="spacing" textLength="13" x="199" y="85.793">[1]</text><text fill="#000000" font-family="sans-serif" font-size="12" lengthAdjust="spacing" textLength="46" x="37" y="101.7539">Godaille</text><text fill="#0000FF" font-family="sans-serif" font-size="12" font-style="italic" lengthAdjust="spacing" textLength="13" x="199" y="101.7539">[1]</text><text fill="#000000" font-family="sans-serif" font-size="12" lengthAdjust="spacing" textLength="48" x="37" y="117.7148">Industrie</text><text fill="#0000FF" font-family="sans-serif" font-size="12" font-style="italic" lengthAdjust="spacing" textLength="13" x="199" y="117.7148">[2]</text><text fill="#000000" font-family="sans-serif" font-size="12" lengthAdjust="spacing" textLength="126" x="37" y="133.6758">Obligation &#224; d&#233;barquer</text><text fill="#0000FF" font-family="sans-serif" font-size="12" font-style="italic" lengthAdjust="spacing" textLength="13" x="199" y="133.6758">[2]</text><text fill="#000000" font-family="sans-serif" font-size="12" lengthAdjust="spacing" textLength="131" x="27" y="149.6367">Partie non retenue, Vrac</text><text fill="#808080" font-family="sans-serif" font-size="12" lengthAdjust="spacing" textLength="13" x="199" y="149.6367">[0]</text><text fill="#000000" font-family="sans-serif" font-size="12" lengthAdjust="spacing" textLength="162" x="27" y="165.5977">Partie non retenue, Hors-Vrac</text><text fill="#808080" font-family="sans-serif" font-size="12" lengthAdjust="spacing" textLength="13" x="199" y="165.5977">[0]</text><rect fill="none" height="2" style="stroke:#888888;stroke-width:1.0;" width="2" x="10" y="31.9414"/><rect fill="none" height="2" style="stroke:#888888;stroke-width:1.0;" width="2" x="20" y="47.9023"/><line style="stroke:#888888;stroke-width:1.0;" x1="11" x2="11" y1="34.9414" y2="48.9023"/><line style="stroke:#888888;stroke-width:1.0;" x1="11" x2="19" y1="48.9023" y2="48.9023"/><line style="stroke:#888888;stroke-width:1.0;" x1="21" x2="21" y1="50.9023" y2="64.8633"/><line style="stroke:#888888;stroke-width:1.0;" x1="21" x2="29" y1="64.8633" y2="64.8633"/><line style="stroke:#888888;stroke-width:1.0;" x1="21" x2="21" y1="50.9023" y2="80.8242"/><line style="stroke:#888888;stroke-width:1.0;" x1="21" x2="29" y1="80.8242" y2="80.8242"/><line style="stroke:#888888;stroke-width:1.0;" x1="21" x2="21" y1="50.9023" y2="96.7852"/><line style="stroke:#888888;stroke-width:1.0;" x1="21" x2="29" y1="96.7852" y2="96.7852"/><line style="stroke:#888888;stroke-width:1.0;" x1="21" x2="21" y1="50.9023" y2="112.7461"/><line style="stroke:#888888;stroke-width:1.0;" x1="21" x2="29" y1="112.7461" y2="112.7461"/><line style="stroke:#888888;stroke-width:1.0;" x1="21" x2="21" y1="50.9023" y2="128.707"/><line style="stroke:#888888;stroke-width:1.0;" x1="21" x2="29" y1="128.707" y2="128.707"/><line style="stroke:#888888;stroke-width:1.0;" x1="11" x2="11" y1="34.9414" y2="144.668"/><line style="stroke:#888888;stroke-width:1.0;" x1="11" x2="19" y1="144.668" y2="144.668"/><line style="stroke:#888888;stroke-width:1.0;" x1="11" x2="11" y1="34.9414" y2="160.6289"/><line style="stroke:#888888;stroke-width:1.0;" x1="11" x2="19" y1="160.6289" y2="160.6289"/><line style="stroke:#AAAAAA;stroke-width:1.0;" x1="7" x2="215" y1="227.9922" y2="227.9922"/><rect fill="#EEEEEE" height="19.9609" rx="5" ry="5" style="stroke:#000000;stroke-width:2.5;" width="100" x="10.5" y="235.9922"/><text fill="#000000" font-family="sans-serif" font-size="12" lengthAdjust="spacing" textLength="51" x="36.5" y="250.9414">Contr&#244;ler</text><rect fill="#EEEEEE" height="19.9609" rx="5" ry="5" style="stroke:#000000;stroke-width:2.5;" width="36" x="117.5" y="235.9922"/><text fill="#000000" font-family="sans-serif" font-size="12" font-weight="bold" lengthAdjust="spacing" textLength="14" x="128.5" y="250.9414">&lt;&lt;</text><line style="stroke:#000000;stroke-width:1.0;" x1="6" x2="215" y1="23.9609" y2="23.9609"/><line style="stroke:#000000;stroke-width:1.0;" x1="6" x2="215" y1="260.4531" y2="260.4531"/><line style="stroke:#000000;stroke-width:1.0;" x1="6" x2="6" y1="23.9609" y2="169.6094"/><line style="stroke:#000000;stroke-width:1.0;" x1="215" x2="215" y1="169.6094" y2="187.5703"/><line style="stroke:#000000;stroke-width:1.0;" x1="215" x2="215" y1="23.9609" y2="169.6094"/><line style="stroke:#000000;stroke-width:1.0;" x1="6" x2="6" y1="231.4922" y2="260.4531"/><line style="stroke:#000000;stroke-width:1.0;" x1="6" x2="6" y1="223.4922" y2="231.4922"/><line style="stroke:#000000;stroke-width:1.0;" x1="215" x2="215" y1="231.4922" y2="260.4531"/><line style="stroke:#000000;stroke-width:1.0;" x1="6" x2="6" y1="205.5313" y2="223.4922"/><line style="stroke:#000000;stroke-width:1.0;" x1="215" x2="215" y1="223.4922" y2="231.4922"/><line style="stroke:#000000;stroke-width:1.0;" x1="6" x2="6" y1="187.5703" y2="205.5313"/><line style="stroke:#000000;stroke-width:1.0;" x1="215" x2="215" y1="205.5313" y2="223.4922"/><line style="stroke:#000000;stroke-width:1.0;" x1="6" x2="6" y1="169.6094" y2="187.5703"/><line style="stroke:#000000;stroke-width:1.0;" x1="215" x2="215" y1="187.5703" y2="205.5313"/><rect fill="#EEEEEE" height="19.9609" rx="5" ry="5" style="stroke:#000000;stroke-width:2.5;" width="60" x="233.5" y="28.4609"/><text fill="#000000" font-family="sans-serif" font-size="12" lengthAdjust="spacing" textLength="44" x="241.5" y="43.4102">Capture</text><text fill="#000000" font-family="sans-serif" font-size="12" lengthAdjust="spacing" textLength="3" x="298" y="38.9102">/</text><rect fill="#EEEEEE" height="19.9609" rx="5" ry="5" style="stroke:#000000;stroke-width:2.5;" width="116" x="305.5" y="28.4609"/><text fill="#000000" font-family="sans-serif" font-size="12" lengthAdjust="spacing" textLength="77" x="325" y="43.4102">Partie retenue</text><rect fill="#EEEEEE" height="19.9609" rx="5" ry="5" style="stroke:#000000;stroke-width:2.5;" width="44" x="428.5" y="28.4609"/><text fill="#000000" font-family="sans-serif" font-size="12" font-weight="bold" lengthAdjust="spacing" textLength="33" x="434" y="43.4102">Appat</text><rect fill="#EEEEEE" height="12" rx="5" ry="5" style="stroke:#000000;stroke-width:2.5;" width="20" x="640.5" y="29.4609"/><path d="M650.5,31.4609 L646.5,35.4609 L650.5,39.4609 L652,37.9609 L649.5,35.4609 L652,32.9609 L650.5,31.4609 " fill="#000000" style="stroke:;stroke-width:0.0;stroke-dasharray:;"/><rect fill="#EEEEEE" height="12" rx="5" ry="5" style="stroke:#000000;stroke-width:2.5;" width="20" x="667.5" y="29.4609"/><path d="M675,31.4609 L673.5,32.9609 L676,35.4609 L673.5,37.9609 L675,39.4609 L679,35.4609 L675,31.4609 " fill="#000000" style="stroke:;stroke-width:0.0;stroke-dasharray:;"/><text fill="#000000" font-family="sans-serif" font-size="12" lengthAdjust="spacing" textLength="93" x="231" y="67.8711">Poids total (kg)* :</text><text fill="#000000" font-family="sans-serif" font-size="12" lengthAdjust="spacing" textLength="7" x="329" y="67.8711">0</text><line style="stroke:#000000;stroke-width:1.0;" x1="327" x2="378" y1="70.8828" y2="70.8828"/><line style="stroke:#000000;stroke-width:1.0;" x1="327" x2="327" y1="67.8828" y2="69.8828"/><line style="stroke:#000000;stroke-width:1.0;" x1="378" x2="378" y1="67.8828" y2="69.8828"/><text fill="#000000" font-family="sans-serif" font-size="12" lengthAdjust="spacing" textLength="49" x="662" y="67.8711">Estim&#233; ?</text><rect fill="none" height="10" style="stroke:#000000;stroke-width:1.5;" width="10" x="644" y="57.9023"/><text fill="#000000" font-family="sans-serif" font-size="12" lengthAdjust="spacing" textLength="61" x="231" y="89.832">Coef. &#233;ch. :</text><text fill="#000000" font-family="sans-serif" font-size="12" lengthAdjust="spacing" textLength="17" x="297" y="89.832">1/1</text><line style="stroke:#000000;stroke-width:1.0;" x1="295" x2="362" y1="92.8438" y2="92.8438"/><line style="stroke:#000000;stroke-width:1.0;" x1="295" x2="295" y1="89.8438" y2="91.8438"/><line style="stroke:#000000;stroke-width:1.0;" x1="362" x2="362" y1="89.8438" y2="91.8438"/><text fill="#000000" font-family="sans-serif" font-size="12" lengthAdjust="spacing" textLength="107" x="391" y="89.832">Poids &#233;chant (kg)* :</text><text fill="#000000" font-family="sans-serif" font-size="12" lengthAdjust="spacing" textLength="3" x="503" y="89.832">&#160;</text><line style="stroke:#000000;stroke-width:1.0;" x1="501" x2="544" y1="92.8438" y2="92.8438"/><line style="stroke:#000000;stroke-width:1.0;" x1="501" x2="501" y1="89.8438" y2="91.8438"/><line style="stroke:#000000;stroke-width:1.0;" x1="544" x2="544" y1="89.8438" y2="91.8438"/><text fill="#000000" font-family="sans-serif" font-size="12" lengthAdjust="spacing" textLength="190" x="251" y="111.793">Inventaire exhaustif des esp&#232;ces ?</text><rect fill="none" height="10" style="stroke:#000000;stroke-width:1.5;" width="10" x="233" y="101.8242"/><line style="stroke:#AAAAAA;stroke-width:1.0;" x1="231" x2="442" y1="120.3047" y2="120.3047"/><rect fill="#EEEEEE" height="12" rx="5" ry="5" style="stroke:#000000;stroke-width:2.5;" width="36" x="243.5" y="130.3047"/><path d="M260.5,132.3047 L260.5,135.3047 L257.5,135.3047 L257.5,137.3047 L260.5,137.3047 L260.5,140.3047 L262.5,140.3047 L262.5,137.3047 L265.5,137.3047 L265.5,135.3047 L262.5,135.3047 L262.5,132.3047 L260.5,132.3047 " fill="#000000" style="stroke:;stroke-width:0.0;stroke-dasharray:;"/><rect fill="#EEEEEE" height="12" rx="5" ry="5" style="stroke:#000000;stroke-width:2.5;" width="36" x="286.5" y="130.3047"/><path d="M303.5,132.3047 C302.95,132.3047 302.5,132.7547 302.5,133.3047 L301.5,133.3047 C300.95,133.3047 300.5,133.7547 300.5,134.3047 L307.5,134.3047 C307.5,133.7547 307.05,133.3047 306.5,133.3047 L305.5,133.3047 C305.5,132.7547 305.05,132.3047 304.5,132.3047 L303.5,132.3047 M301.5,135.3047 L301.5,140.1147 C301.5,140.2247 301.58,140.3047 301.69,140.3047 L306.32,140.3047 C306.43,140.3047 306.51,140.2247 306.51,140.1147 L306.51,135.3047 L305.51,135.3047 L305.51,138.8047 C305.51,139.0847 305.29,139.3047 305.01,139.3047 C304.73,139.3047 304.51,139.0847 304.51,138.8047 L304.51,135.3047 L303.51,135.3047 L303.51,138.8047 C303.51,139.0847 303.29,139.3047 303.01,139.3047 C302.73,139.3047 302.51,139.0847 302.51,138.8047 L302.51,135.3047 L301.51,135.3047 " fill="#000000" style="stroke:;stroke-width:0.0;stroke-dasharray:;"/><text fill="#000000" font-family="sans-serif" font-size="12" lengthAdjust="spacing" textLength="7" x="231" y="160.7539">#</text><text fill="#000000" font-family="sans-serif" font-size="12" font-weight="bold" lengthAdjust="spacing" textLength="120" x="240" y="160.7539">Esp&#232;ce commerciale</text><text fill="#000000" font-family="sans-serif" font-size="12" font-weight="bold" lengthAdjust="spacing" textLength="73" x="418" y="160.7539">Pr&#233;sentation</text><text fill="#000000" font-family="sans-serif" font-size="12" font-weight="bold" lengthAdjust="spacing" textLength="22" x="516" y="160.7539">&#201;tat</text><text fill="#000000" font-family="sans-serif" font-size="12" font-weight="bold" lengthAdjust="spacing" textLength="85" x="590" y="160.7539">Poids total (kg)</text><text fill="#000000" font-family="sans-serif" font-size="12" font-weight="bold" lengthAdjust="spacing" textLength="70" x="677" y="160.7539">Taux &#233;chant</text><text fill="#000000" font-family="sans-serif" font-size="12" font-weight="bold" lengthAdjust="spacing" textLength="77" x="749" y="160.7539">Poids &#233;chant.</text><text fill="#000000" font-family="sans-serif" font-size="12" font-weight="bold" lengthAdjust="spacing" textLength="89" x="828" y="160.7539">Nb indiv &#233;chant.</text><path d="M920,147.8047 L920,148.8047 L928,148.8047 L928,147.8047 L920,147.8047 M920,150.7747 L920,151.7747 L928,151.7747 L928,150.7747 L920,150.7747 M920,153.7747 L920,154.7747 L928,154.7747 L928,153.7747 L920,153.7747 " fill="#000000" style="stroke:;stroke-width:0.0;stroke-dasharray:;"/><text fill="#000000" font-family="sans-serif" font-size="12" lengthAdjust="spacing" textLength="7" x="231" y="178.7148">1</text><rect fill="#EEEEEE" height="18.9609" style="stroke:#000000;stroke-width:1.0;" width="175" x="240" y="165.7656"/><text fill="#000000" font-family="sans-serif" font-size="12" lengthAdjust="spacing" textLength="82" x="242" y="180.7148">MNZ- Baudroie</text><line style="stroke:#000000;stroke-width:1.0;" x1="404" x2="404" y1="165.7656" y2="184.7266"/><polygon fill="#000000" points="407,171.7656,413,171.7656,410,179.7266" style="stroke:#000000;stroke-width:1.0;"/><rect fill="#EEEEEE" height="18.9609" style="stroke:#000000;stroke-width:1.0;" width="95" x="418" y="165.7656"/><text fill="#000000" font-family="sans-serif" font-size="12" lengthAdjust="spacing" textLength="32" x="420" y="180.7148">Entier</text><line style="stroke:#000000;stroke-width:1.0;" x1="502" x2="502" y1="165.7656" y2="184.7266"/><polygon fill="#000000" points="505,171.7656,511,171.7656,508,179.7266" style="stroke:#000000;stroke-width:1.0;"/><rect fill="#EEEEEE" height="18.9609" style="stroke:#000000;stroke-width:1.0;" width="71" x="516" y="165.7656"/><text fill="#000000" font-family="sans-serif" font-size="12" lengthAdjust="spacing" textLength="28" x="518" y="180.7148">Frais</text><line style="stroke:#000000;stroke-width:1.0;" x1="576" x2="576" y1="165.7656" y2="184.7266"/><polygon fill="#000000" points="579,171.7656,585,171.7656,582,179.7266" style="stroke:#000000;stroke-width:1.0;"/><text fill="#000000" font-family="sans-serif" font-size="12" lengthAdjust="spacing" textLength="14" x="590" y="178.7148">50</text><text fill="#000000" font-family="sans-serif" font-size="12" lengthAdjust="spacing" textLength="14" x="749" y="178.7148">10</text><text fill="#000000" font-family="sans-serif" font-size="12" lengthAdjust="spacing" textLength="7" x="828" y="178.7148">4</text><path d="M920,165.7656 L920,172.7656 L928,172.7656 L928,171.7656 L921,171.7656 L921,165.7656 L920,165.7656 M925,165.7656 L925,170.7656 L927,170.7656 L927,165.7656 L925,165.7656 M922,167.7656 L922,170.7656 L924,170.7656 L924,167.7656 L922,167.7656 " fill="#000000" style="stroke:;stroke-width:0.0;stroke-dasharray:;"/><text fill="#000000" font-family="sans-serif" font-size="12" lengthAdjust="spacing" textLength="7" x="231" y="200.6758">2</text><rect fill="#EEEEEE" height="18.9609" style="stroke:#000000;stroke-width:1.0;" width="175" x="240" y="187.7266"/><text fill="#000000" font-family="sans-serif" font-size="12" lengthAdjust="spacing" textLength="82" x="242" y="202.6758">MNZ- Baudroie</text><line style="stroke:#000000;stroke-width:1.0;" x1="404" x2="404" y1="187.7266" y2="206.6875"/><polygon fill="#000000" points="407,193.7266,413,193.7266,410,201.6875" style="stroke:#000000;stroke-width:1.0;"/><rect fill="#EEEEEE" height="18.9609" style="stroke:#000000;stroke-width:1.0;" width="95" x="418" y="187.7266"/><text fill="#000000" font-family="sans-serif" font-size="12" lengthAdjust="spacing" textLength="47" x="420" y="202.6758">Evisc&#233;r&#233;</text><line style="stroke:#000000;stroke-width:1.0;" x1="502" x2="502" y1="187.7266" y2="206.6875"/><polygon fill="#000000" points="505,193.7266,511,193.7266,508,201.6875" style="stroke:#000000;stroke-width:1.0;"/><rect fill="#EEEEEE" height="18.9609" style="stroke:#000000;stroke-width:1.0;" width="71" x="516" y="187.7266"/><text fill="#000000" font-family="sans-serif" font-size="12" lengthAdjust="spacing" textLength="28" x="518" y="202.6758">Frais</text><line style="stroke:#000000;stroke-width:1.0;" x1="576" x2="576" y1="187.7266" y2="206.6875"/><polygon fill="#000000" points="579,193.7266,585,193.7266,582,201.6875" style="stroke:#000000;stroke-width:1.0;"/><text fill="#000000" font-family="sans-serif" font-size="12" lengthAdjust="spacing" textLength="14" x="590" y="200.6758">50</text><text fill="#000000" font-family="sans-serif" font-size="12" lengthAdjust="spacing" textLength="14" x="749" y="200.6758">10</text><text fill="#000000" font-family="sans-serif" font-size="12" lengthAdjust="spacing" textLength="7" x="828" y="200.6758">4</text><path d="M920,187.7266 L920,194.7266 L928,194.7266 L928,193.7266 L921,193.7266 L921,187.7266 L920,187.7266 M925,187.7266 L925,192.7266 L927,192.7266 L927,187.7266 L925,187.7266 M922,189.7266 L922,192.7266 L924,192.7266 L924,189.7266 L922,189.7266 " fill="#000000" style="stroke:;stroke-width:0.0;stroke-dasharray:;"/><line style="stroke:#000000;stroke-width:1.0;" x1="230" x2="239" y1="125.8047" y2="125.8047"/><line style="stroke:#000000;stroke-width:1.0;" x1="589" x2="676" y1="208.6875" y2="208.6875"/><line style="stroke:#000000;stroke-width:1.0;" x1="239" x2="417" y1="125.8047" y2="125.8047"/><line style="stroke:#000000;stroke-width:1.0;" x1="676" x2="748" y1="208.6875" y2="208.6875"/><line style="stroke:#000000;stroke-width:1.0;" x1="417" x2="515" y1="125.8047" y2="125.8047"/><line style="stroke:#000000;stroke-width:1.0;" x1="748" x2="827" y1="208.6875" y2="208.6875"/><line style="stroke:#000000;stroke-width:1.0;" x1="515" x2="589" y1="125.8047" y2="125.8047"/><line style="stroke:#000000;stroke-width:1.0;" x1="827" x2="918" y1="208.6875" y2="208.6875"/><line style="stroke:#000000;stroke-width:1.0;" x1="589" x2="676" y1="125.8047" y2="125.8047"/><line style="stroke:#000000;stroke-width:1.0;" x1="918" x2="930" y1="208.6875" y2="208.6875"/><line style="stroke:#000000;stroke-width:1.0;" x1="676" x2="748" y1="125.8047" y2="125.8047"/><line style="stroke:#000000;stroke-width:1.0;" x1="748" x2="827" y1="125.8047" y2="125.8047"/><line style="stroke:#000000;stroke-width:1.0;" x1="827" x2="918" y1="125.8047" y2="125.8047"/><line style="stroke:#000000;stroke-width:1.0;" x1="918" x2="930" y1="125.8047" y2="125.8047"/><line style="stroke:#000000;stroke-width:1.0;" x1="230" x2="239" y1="186.7266" y2="186.7266"/><line style="stroke:#000000;stroke-width:1.0;" x1="239" x2="417" y1="186.7266" y2="186.7266"/><line style="stroke:#000000;stroke-width:1.0;" x1="417" x2="515" y1="186.7266" y2="186.7266"/><line style="stroke:#000000;stroke-width:1.0;" x1="515" x2="589" y1="186.7266" y2="186.7266"/><line style="stroke:#000000;stroke-width:1.0;" x1="589" x2="676" y1="186.7266" y2="186.7266"/><line style="stroke:#000000;stroke-width:1.0;" x1="676" x2="748" y1="186.7266" y2="186.7266"/><line style="stroke:#000000;stroke-width:1.0;" x1="748" x2="827" y1="186.7266" y2="186.7266"/><line style="stroke:#000000;stroke-width:1.0;" x1="827" x2="918" y1="186.7266" y2="186.7266"/><line style="stroke:#000000;stroke-width:1.0;" x1="918" x2="930" y1="186.7266" y2="186.7266"/><line style="stroke:#000000;stroke-width:1.0;" x1="230" x2="239" y1="164.7656" y2="164.7656"/><line style="stroke:#000000;stroke-width:1.0;" x1="239" x2="417" y1="164.7656" y2="164.7656"/><line style="stroke:#000000;stroke-width:1.0;" x1="417" x2="515" y1="164.7656" y2="164.7656"/><line style="stroke:#000000;stroke-width:1.0;" x1="515" x2="589" y1="164.7656" y2="164.7656"/><line style="stroke:#000000;stroke-width:1.0;" x1="589" x2="676" y1="164.7656" y2="164.7656"/><line style="stroke:#000000;stroke-width:1.0;" x1="676" x2="748" y1="164.7656" y2="164.7656"/><line style="stroke:#000000;stroke-width:1.0;" x1="748" x2="827" y1="164.7656" y2="164.7656"/><line style="stroke:#000000;stroke-width:1.0;" x1="827" x2="918" y1="164.7656" y2="164.7656"/><line style="stroke:#000000;stroke-width:1.0;" x1="918" x2="930" y1="164.7656" y2="164.7656"/><line style="stroke:#000000;stroke-width:1.0;" x1="230" x2="239" y1="146.8047" y2="146.8047"/><line style="stroke:#000000;stroke-width:1.0;" x1="239" x2="417" y1="146.8047" y2="146.8047"/><line style="stroke:#000000;stroke-width:1.0;" x1="417" x2="515" y1="146.8047" y2="146.8047"/><line style="stroke:#000000;stroke-width:1.0;" x1="515" x2="589" y1="146.8047" y2="146.8047"/><line style="stroke:#000000;stroke-width:1.0;" x1="589" x2="676" y1="146.8047" y2="146.8047"/><line style="stroke:#000000;stroke-width:1.0;" x1="676" x2="748" y1="146.8047" y2="146.8047"/><line style="stroke:#000000;stroke-width:1.0;" x1="748" x2="827" y1="146.8047" y2="146.8047"/><line style="stroke:#000000;stroke-width:1.0;" x1="827" x2="918" y1="146.8047" y2="146.8047"/><line style="stroke:#000000;stroke-width:1.0;" x1="918" x2="930" y1="146.8047" y2="146.8047"/><line style="stroke:#000000;stroke-width:1.0;" x1="230" x2="239" y1="208.6875" y2="208.6875"/><line style="stroke:#000000;stroke-width:1.0;" x1="239" x2="417" y1="208.6875" y2="208.6875"/><line style="stroke:#000000;stroke-width:1.0;" x1="417" x2="515" y1="208.6875" y2="208.6875"/><line style="stroke:#000000;stroke-width:1.0;" x1="515" x2="589" y1="208.6875" y2="208.6875"/><line style="stroke:#000000;stroke-width:1.0;" x1="230" x2="230" y1="125.8047" y2="146.8047"/><line style="stroke:#000000;stroke-width:1.0;" x1="239" x2="239" y1="125.8047" y2="146.8047"/><line style="stroke:#000000;stroke-width:1.0;" x1="417" x2="417" y1="125.8047" y2="146.8047"/><line style="stroke:#000000;stroke-width:1.0;" x1="515" x2="515" y1="125.8047" y2="146.8047"/><line style="stroke:#000000;stroke-width:1.0;" x1="589" x2="589" y1="125.8047" y2="146.8047"/><line style="stroke:#000000;stroke-width:1.0;" x1="676" x2="676" y1="125.8047" y2="146.8047"/><line style="stroke:#000000;stroke-width:1.0;" x1="748" x2="748" y1="125.8047" y2="146.8047"/><line style="stroke:#000000;stroke-width:1.0;" x1="827" x2="827" y1="125.8047" y2="146.8047"/><line style="stroke:#000000;stroke-width:1.0;" x1="918" x2="918" y1="125.8047" y2="146.8047"/><line style="stroke:#000000;stroke-width:1.0;" x1="930" x2="930" y1="125.8047" y2="146.8047"/><line style="stroke:#000000;stroke-width:1.0;" x1="230" x2="230" y1="186.7266" y2="208.6875"/><line style="stroke:#000000;stroke-width:1.0;" x1="239" x2="239" y1="186.7266" y2="208.6875"/><line style="stroke:#000000;stroke-width:1.0;" x1="417" x2="417" y1="186.7266" y2="208.6875"/><line style="stroke:#000000;stroke-width:1.0;" x1="515" x2="515" y1="186.7266" y2="208.6875"/><line style="stroke:#000000;stroke-width:1.0;" x1="589" x2="589" y1="186.7266" y2="208.6875"/><line style="stroke:#000000;stroke-width:1.0;" x1="676" x2="676" y1="186.7266" y2="208.6875"/><line style="stroke:#000000;stroke-width:1.0;" x1="748" x2="748" y1="186.7266" y2="208.6875"/><line style="stroke:#000000;stroke-width:1.0;" x1="827" x2="827" y1="186.7266" y2="208.6875"/><line style="stroke:#000000;stroke-width:1.0;" x1="918" x2="918" y1="186.7266" y2="208.6875"/><line style="stroke:#000000;stroke-width:1.0;" x1="930" x2="930" y1="186.7266" y2="208.6875"/><line style="stroke:#000000;stroke-width:1.0;" x1="230" x2="230" y1="164.7656" y2="186.7266"/><line style="stroke:#000000;stroke-width:1.0;" x1="239" x2="239" y1="164.7656" y2="186.7266"/><line style="stroke:#000000;stroke-width:1.0;" x1="417" x2="417" y1="164.7656" y2="186.7266"/><line style="stroke:#000000;stroke-width:1.0;" x1="515" x2="515" y1="164.7656" y2="186.7266"/><line style="stroke:#000000;stroke-width:1.0;" x1="589" x2="589" y1="164.7656" y2="186.7266"/><line style="stroke:#000000;stroke-width:1.0;" x1="676" x2="676" y1="164.7656" y2="186.7266"/><line style="stroke:#000000;stroke-width:1.0;" x1="748" x2="748" y1="164.7656" y2="186.7266"/><line style="stroke:#000000;stroke-width:1.0;" x1="827" x2="827" y1="164.7656" y2="186.7266"/><line style="stroke:#000000;stroke-width:1.0;" x1="918" x2="918" y1="164.7656" y2="186.7266"/><line style="stroke:#000000;stroke-width:1.0;" x1="930" x2="930" y1="164.7656" y2="186.7266"/><line style="stroke:#000000;stroke-width:1.0;" x1="230" x2="230" y1="146.8047" y2="164.7656"/><line style="stroke:#000000;stroke-width:1.0;" x1="239" x2="239" y1="146.8047" y2="164.7656"/><line style="stroke:#000000;stroke-width:1.0;" x1="417" x2="417" y1="146.8047" y2="164.7656"/><line style="stroke:#000000;stroke-width:1.0;" x1="515" x2="515" y1="146.8047" y2="164.7656"/><line style="stroke:#000000;stroke-width:1.0;" x1="589" x2="589" y1="146.8047" y2="164.7656"/><line style="stroke:#000000;stroke-width:1.0;" x1="676" x2="676" y1="146.8047" y2="164.7656"/><line style="stroke:#000000;stroke-width:1.0;" x1="748" x2="748" y1="146.8047" y2="164.7656"/><line style="stroke:#000000;stroke-width:1.0;" x1="827" x2="827" y1="146.8047" y2="164.7656"/><line style="stroke:#000000;stroke-width:1.0;" x1="918" x2="918" y1="146.8047" y2="164.7656"/><line style="stroke:#000000;stroke-width:1.0;" x1="930" x2="930" y1="146.8047" y2="164.7656"/><line style="stroke:#AAAAAA;stroke-width:1.0;" x1="6" x2="216" y1="265.9531" y2="265.9531"/><line style="stroke:#AAAAAA;stroke-width:1.0;" x1="217" x2="228" y1="265.9531" y2="265.9531"/><line style="stroke:#AAAAAA;stroke-width:1.0;" x1="229" x2="932" y1="265.9531" y2="265.9531"/><rect fill="#EEEEEE" height="19.9609" rx="5" ry="5" style="stroke:#000000;stroke-width:2.5;" width="52" x="9.5" y="273.9531"/><text fill="#000000" font-family="sans-serif" font-size="12" lengthAdjust="spacing" textLength="40" x="15.5" y="288.9023">Fermer</text><rect fill="#EEEEEE" height="19.9609" rx="5" ry="5" style="stroke:#000000;stroke-width:2.5;" width="92" x="68.5" y="273.9531"/><text fill="#000000" font-family="sans-serif" font-size="12" lengthAdjust="spacing" textLength="70" x="79.5" y="288.9023">Sauvegarder</text><!--SRC=[pLNlJXf14Fz-Jp7HX6Zf8NUeQGWvRK6iLfIejKa99ilT0XlkNtVtY0PvWBv5FvRlVODxiSxU7WX69KsQj1TskPsPt_pVkKCX2PU2-DAO602J7MYaCqcOB-01QZq7wYIM2QSmLTmYRZ2vLhjwYWikFYZEd9eR-H6lzlo4EfrttOLW4TfeXb7WLD8meJdzTKmH7I3kgBhPQ3ITzt5Cv3C0UmLGZq8H1G6HB0fXc0I4XVGPaBK2Eeuy3DXVBtWIUecGdD6rVbpqV3RGNgG_m4jdFSA_9PI_ZfidAKHOdgYtSCE9g-nfq82JUwTJNWVw675XleoSPl3Iqzqqi_hckZkrWZkaxYWWVEIep4gU_l8fxwBEZkgDMWqMsgP8BE7Iu0bqyivGmZiAi5h_J0UgoAhQVSZ1_t9DydZ7F0fDd_QbetrSq3WR31LnEZLqZEs8UG9a98aFMwF1zXke8c83oegxyH-4z8VhfHyMkmj7Gh8WdS71FFfwHFibI6Vki9J7RUrOhqKEEbyAGKAvaZ4DcslEx9s4OnhY7CBPGk-61AyTwuD71L0HfpzTV3d8f4tTimgiqPlpcw6QMjKLMxKG-ubm86_SWkH43DLn-b8obdHiwZbufCs2YzE5SfSH71UQq-RfJ2XVizkUaTBlKiygv3vfadpiATOrIUuMwLYMpcabJJll0GizDbuX5mAyHSwIcnPIRrldNqtuG1AFHsm-OcyL0uv2l7nySMnomaJslbVM_fJq7rZbHvqFi9lPmjbbecakbmtQQmoEcN3J6URcRvdCfemgiccYIBuPMRyqAG_okNH5aZ4T4EwfyzIO6eSqzBBFcz7sCNkVMsSmfboeMbabksnNIfQrzOLwS4LZi2fWbwlsVhLIWVhHrJKeWMrZwxXz1Y9AE3Q0nzGNe9UeQcyRfsHCu3B1x0Qq2XSn3KyRd-O4pFgOuUZ0MadZzARrAB2_QtvW4aroz0LkMaQ3zadYIqIuaSV2GHNgiMNlsSOP2GS96Q3oFZVg4IhczrLeNlu6]--></g></svg>