<?xml version="1.0" encoding="us-ascii" standalone="no"?><svg xmlns="http://www.w3.org/2000/svg" xmlns:xlink="http://www.w3.org/1999/xlink" contentStyleType="text/css" height="271px" preserveAspectRatio="none" style="width:985px;height:271px;background:#FFFFFF;" version="1.1" viewBox="0 0 985 271" width="985px" zoomAndPan="magnify"><defs><filter height="1" id="b7a15doqecqr20" width="1" x="0" y="0"><feFlood flood-color="#DDDDDD" result="flood"/><feComposite in="SourceGraphic" in2="flood" operator="over"/></filter></defs><g><text fill="#000000" font-family="sans-serif" font-size="12" lengthAdjust="spacing" textLength="39" x="8" y="18.457">D&#233;tails</text><line style="stroke:#000000;stroke-width:1.0;" x1="6" x2="6" y1="6" y2="21.0938"/><line style="stroke:#000000;stroke-width:1.0;" x1="6" x2="50" y1="6" y2="6"/><line style="stroke:#000000;stroke-width:1.0;" x1="50" x2="50" y1="6" y2="21.0938"/><line style="stroke:#000000;stroke-width:1.0;" x1="50" x2="60" y1="21.0938" y2="21.0938"/><text fill="#000000" font-family="sans-serif" font-size="12" font-weight="bold" lengthAdjust="spacing" textLength="45" x="65" y="18.457">Capture</text><line style="stroke:#000000;stroke-width:1.0;" x1="60" x2="60" y1="6" y2="21.0938"/><line style="stroke:#000000;stroke-width:1.0;" x1="60" x2="113" y1="6" y2="6"/><line style="stroke:#000000;stroke-width:1.0;" x1="113" x2="113" y1="6" y2="21.0938"/><line style="stroke:#000000;stroke-width:1.0;" x1="113" x2="123" y1="21.0938" y2="21.0938"/><text fill="#000000" font-family="sans-serif" font-size="12" lengthAdjust="spacing" textLength="44" x="17" y="36.5508">Capture</text><text fill="#000000" font-family="sans-serif" font-size="12" lengthAdjust="spacing" textLength="77" x="27" y="51.6445">Partie retenue</text><text fill="#000000" font-family="sans-serif" font-size="12" lengthAdjust="spacing" textLength="131" x="27" y="66.7383">Partie non retenue, Vrac</text><text fill="#000000" font-family="sans-serif" font-size="12" lengthAdjust="spacing" textLength="42" x="37" y="81.832">D&#233;taill&#233;</text><text fill="#000000" font-family="sans-serif" font-size="12" lengthAdjust="spacing" textLength="66" x="37" y="96.9258">Non d&#233;taill&#233;</text><text fill="#000000" font-family="sans-serif" font-size="12" lengthAdjust="spacing" textLength="13" x="231" y="96.9258">[0]</text><text fill="#000000" font-family="sans-serif" font-size="12" lengthAdjust="spacing" textLength="162" x="27" y="112.0195">Partie non retenue, Hors-Vrac</text><text fill="#000000" font-family="sans-serif" font-size="12" lengthAdjust="spacing" textLength="47" x="37" y="127.1133">Animaux</text><text fill="#000000" font-family="sans-serif" font-size="12" lengthAdjust="spacing" textLength="13" x="231" y="127.1133">[0]</text><text fill="#000000" filter="url(#b7a15doqecqr20)" font-family="sans-serif" font-size="12" lengthAdjust="spacing" textLength="184" x="37" y="142.207">Ecosyst&#232;mes Marins Vuln&#233;rables</text><text fill="#0000FF" font-family="sans-serif" font-size="12" font-style="italic" lengthAdjust="spacing" textLength="13" x="231" y="142.207">[1]</text><rect fill="none" height="2" style="stroke:#888888;stroke-width:1.0;" width="2" x="10" y="30.6406"/><line style="stroke:#888888;stroke-width:1.0;" x1="11" x2="11" y1="33.6406" y2="46.7344"/><line style="stroke:#888888;stroke-width:1.0;" x1="11" x2="19" y1="46.7344" y2="46.7344"/><rect fill="none" height="2" style="stroke:#888888;stroke-width:1.0;" width="2" x="20" y="60.8281"/><line style="stroke:#888888;stroke-width:1.0;" x1="11" x2="11" y1="33.6406" y2="61.8281"/><line style="stroke:#888888;stroke-width:1.0;" x1="11" x2="19" y1="61.8281" y2="61.8281"/><line style="stroke:#888888;stroke-width:1.0;" x1="21" x2="21" y1="63.8281" y2="76.9219"/><line style="stroke:#888888;stroke-width:1.0;" x1="21" x2="29" y1="76.9219" y2="76.9219"/><line style="stroke:#888888;stroke-width:1.0;" x1="21" x2="21" y1="63.8281" y2="92.0156"/><line style="stroke:#888888;stroke-width:1.0;" x1="21" x2="29" y1="92.0156" y2="92.0156"/><rect fill="none" height="2" style="stroke:#888888;stroke-width:1.0;" width="2" x="20" y="106.1094"/><line style="stroke:#888888;stroke-width:1.0;" x1="11" x2="11" y1="33.6406" y2="107.1094"/><line style="stroke:#888888;stroke-width:1.0;" x1="11" x2="19" y1="107.1094" y2="107.1094"/><line style="stroke:#888888;stroke-width:1.0;" x1="21" x2="21" y1="109.1094" y2="122.2031"/><line style="stroke:#888888;stroke-width:1.0;" x1="21" x2="29" y1="122.2031" y2="122.2031"/><line style="stroke:#888888;stroke-width:1.0;" x1="21" x2="21" y1="109.1094" y2="137.2969"/><line style="stroke:#888888;stroke-width:1.0;" x1="21" x2="29" y1="137.2969" y2="137.2969"/><line style="stroke:#AAAAAA;stroke-width:1.0;" x1="7" x2="247" y1="201.625" y2="201.625"/><rect fill="#EEEEEE" height="19.0938" rx="5" ry="5" style="stroke:#000000;stroke-width:2.5;" width="100" x="10.5" y="209.625"/><text fill="#000000" font-family="sans-serif" font-size="12" lengthAdjust="spacing" textLength="51" x="36.5" y="224.082">Contr&#244;ler</text><rect fill="#EEEEEE" height="19.0938" rx="5" ry="5" style="stroke:#000000;stroke-width:2.5;" width="36" x="117.5" y="209.625"/><text fill="#000000" font-family="sans-serif" font-size="12" font-weight="bold" lengthAdjust="spacing" textLength="14" x="128.5" y="224.082">&lt;&lt;</text><line style="stroke:#000000;stroke-width:1.0;" x1="6" x2="247" y1="23.0938" y2="23.0938"/><line style="stroke:#000000;stroke-width:1.0;" x1="6" x2="247" y1="233.2188" y2="233.2188"/><line style="stroke:#000000;stroke-width:1.0;" x1="6" x2="6" y1="23.0938" y2="145.8438"/><line style="stroke:#000000;stroke-width:1.0;" x1="247" x2="247" y1="145.8438" y2="162.9375"/><line style="stroke:#000000;stroke-width:1.0;" x1="247" x2="247" y1="23.0938" y2="145.8438"/><line style="stroke:#000000;stroke-width:1.0;" x1="6" x2="6" y1="205.125" y2="233.2188"/><line style="stroke:#000000;stroke-width:1.0;" x1="6" x2="6" y1="197.125" y2="205.125"/><line style="stroke:#000000;stroke-width:1.0;" x1="247" x2="247" y1="205.125" y2="233.2188"/><line style="stroke:#000000;stroke-width:1.0;" x1="6" x2="6" y1="180.0313" y2="197.125"/><line style="stroke:#000000;stroke-width:1.0;" x1="247" x2="247" y1="197.125" y2="205.125"/><line style="stroke:#000000;stroke-width:1.0;" x1="6" x2="6" y1="162.9375" y2="180.0313"/><line style="stroke:#000000;stroke-width:1.0;" x1="247" x2="247" y1="180.0313" y2="197.125"/><line style="stroke:#000000;stroke-width:1.0;" x1="6" x2="6" y1="145.8438" y2="162.9375"/><line style="stroke:#000000;stroke-width:1.0;" x1="247" x2="247" y1="162.9375" y2="180.0313"/><rect fill="#EEEEEE" height="19.0938" rx="5" ry="5" style="stroke:#000000;stroke-width:2.5;" width="60" x="265.5" y="27.5938"/><text fill="#000000" font-family="sans-serif" font-size="12" lengthAdjust="spacing" textLength="44" x="273.5" y="42.0508">Capture</text><text fill="#000000" font-family="sans-serif" font-size="12" lengthAdjust="spacing" textLength="3" x="330" y="37.5508">/</text><rect fill="#EEEEEE" height="19.0938" rx="5" ry="5" style="stroke:#000000;stroke-width:2.5;" width="196" x="337.5" y="27.5938"/><text fill="#000000" font-family="sans-serif" font-size="12" lengthAdjust="spacing" textLength="131" x="370" y="42.0508">Partie non retenue, Vrac</text><rect fill="#EEEEEE" height="19.0938" rx="5" ry="5" style="stroke:#000000;stroke-width:2.5;" width="68" x="540.5" y="27.5938"/><text fill="#000000" font-family="sans-serif" font-size="12" lengthAdjust="spacing" textLength="42" x="553.5" y="42.0508">D&#233;taill&#233;</text><rect fill="#EEEEEE" height="19.0938" rx="5" ry="5" style="stroke:#000000;stroke-width:2.5;" width="244" x="615.5" y="27.5938"/><text fill="#000000" font-family="sans-serif" font-size="12" font-weight="bold" lengthAdjust="spacing" textLength="190" x="642.5" y="42.0508">Ecosyst&#232;mes Marins Vuln&#233;rables</text><text fill="#000000" font-family="sans-serif" font-size="12" lengthAdjust="spacing" textLength="15" x="864" y="37.5508">(1)</text><rect fill="#EEEEEE" height="12" rx="5" ry="5" style="stroke:#000000;stroke-width:2.5;" width="20" x="924.5" y="28.5938"/><path d="M934.5,30.5938 L930.5,34.5938 L934.5,38.5938 L936,37.0938 L933.5,34.5938 L936,32.0938 L934.5,30.5938 " fill="#000000" style="stroke:;stroke-width:0.0;stroke-dasharray:;"/><rect fill="#EEEEEE" height="12" rx="5" ry="5" style="stroke:#000000;stroke-width:2.5;" width="20" x="951.5" y="28.5938"/><path d="M959,30.5938 L957.5,32.0938 L960,34.5938 L957.5,37.0938 L959,38.5938 L963,34.5938 L959,30.5938 " fill="#000000" style="stroke:;stroke-width:0.0;stroke-dasharray:;"/><text fill="#000000" font-family="sans-serif" font-size="12" lengthAdjust="spacing" textLength="88" x="263" y="82.7383">Poids total (kg) :</text><text fill="#0000FF" font-family="sans-serif" font-size="12" font-style="italic" lengthAdjust="spacing" textLength="14" x="356" y="82.7383">10</text><line style="stroke:#000000;stroke-width:1.0;" x1="354" x2="413" y1="85.375" y2="85.375"/><line style="stroke:#000000;stroke-width:1.0;" x1="354" x2="354" y1="82.375" y2="84.375"/><line style="stroke:#000000;stroke-width:1.0;" x1="413" x2="413" y1="82.375" y2="84.375"/><line style="stroke:#AAAAAA;stroke-width:1.0;" x1="262" x2="977" y1="110.9688" y2="110.9688"/><path d="M266.97,116.4688 L264,119.4688 L266,119.4688 L266,124.4688 L268,124.4688 L268,119.4688 L270,119.4688 L266.97,116.4688 " fill="#000000" style="stroke:;stroke-width:0.0;stroke-dasharray:;"/><rect fill="#EEEEEE" height="12" rx="5" ry="5" style="stroke:#000000;stroke-width:2.5;" width="36" x="294.5" y="119.9688"/><path d="M311.5,121.9688 L311.5,124.9688 L308.5,124.9688 L308.5,126.9688 L311.5,126.9688 L311.5,129.9688 L313.5,129.9688 L313.5,126.9688 L316.5,126.9688 L316.5,124.9688 L313.5,124.9688 L313.5,121.9688 L311.5,121.9688 " fill="#000000" style="stroke:;stroke-width:0.0;stroke-dasharray:;"/><rect fill="#EEEEEE" height="12" rx="5" ry="5" style="stroke:#000000;stroke-width:2.5;" width="36" x="337.5" y="119.9688"/><path d="M354.5,121.9688 C353.95,121.9688 353.5,122.4188 353.5,122.9688 L352.5,122.9688 C351.95,122.9688 351.5,123.4188 351.5,123.9688 L358.5,123.9688 C358.5,123.4188 358.05,122.9688 357.5,122.9688 L356.5,122.9688 C356.5,122.4188 356.05,121.9688 355.5,121.9688 L354.5,121.9688 M352.5,124.9688 L352.5,129.7788 C352.5,129.8888 352.58,129.9688 352.69,129.9688 L357.32,129.9688 C357.43,129.9688 357.51,129.8888 357.51,129.7788 L357.51,124.9688 L356.51,124.9688 L356.51,128.4688 C356.51,128.7488 356.29,128.9688 356.01,128.9688 C355.73,128.9688 355.51,128.7488 355.51,128.4688 L355.51,124.9688 L354.51,124.9688 L354.51,128.4688 C354.51,128.7488 354.29,128.9688 354.01,128.9688 C353.73,128.9688 353.51,128.7488 353.51,128.4688 L353.51,124.9688 L352.51,124.9688 " fill="#000000" style="stroke:;stroke-width:0.0;stroke-dasharray:;"/><text fill="#000000" font-family="sans-serif" font-size="12" lengthAdjust="spacing" textLength="49" x="398" y="129.9258">Estim&#233; ?</text><rect fill="none" height="10" style="stroke:#000000;stroke-width:1.5;" width="10" x="380" y="120.0156"/><rect fill="#EEEEEE" height="19.0938" rx="5" ry="5" style="stroke:#000000;stroke-width:2.5;" width="12" x="265.5" y="139.9688"/><text fill="#000000" font-family="sans-serif" font-size="12" lengthAdjust="spacing" textLength="3" x="270" y="154.4258">&#160;</text><text fill="#000000" font-family="sans-serif" font-size="12" lengthAdjust="spacing" textLength="7" x="282" y="149.9258">#</text><text fill="#000000" font-family="sans-serif" font-size="12" font-weight="bold" lengthAdjust="spacing" textLength="93" x="291" y="149.9258">Cat&#233;gorie d'EMV</text><text fill="#000000" font-family="sans-serif" font-size="12" font-weight="bold" lengthAdjust="spacing" textLength="85" x="493" y="149.9258">Poids total (kg)</text><path d="M581,137.4688 L581,138.4688 L589,138.4688 L589,137.4688 L581,137.4688 M581,140.4388 L581,141.4388 L589,141.4388 L589,140.4388 L581,140.4388 M581,143.4388 L581,144.4388 L589,144.4388 L589,143.4388 L581,143.4388 " fill="#000000" style="stroke:;stroke-width:0.0;stroke-dasharray:;"/><rect fill="#EEEEEE" height="19.0938" rx="5" ry="5" style="stroke:#000000;stroke-width:2.5;" width="12" x="265.5" y="166.0625"/><text fill="#000000" font-family="sans-serif" font-size="12" lengthAdjust="spacing" textLength="3" x="270" y="180.5195">&#160;</text><text fill="#000000" font-family="sans-serif" font-size="12" lengthAdjust="spacing" textLength="7" x="282" y="176.0195">1</text><rect fill="#EEEEEE" height="18.0938" style="stroke:#000000;stroke-width:1.0;" width="199" x="291" y="163.5625"/><text fill="#000000" font-family="sans-serif" font-size="12" lengthAdjust="spacing" textLength="97" x="293" y="178.0195">BC - Coraux noirs</text><line style="stroke:#000000;stroke-width:1.0;" x1="479" x2="479" y1="163.5625" y2="181.6563"/><polygon fill="#000000" points="482,169.5625,488,169.5625,485,176.6563" style="stroke:#000000;stroke-width:1.0;"/><text fill="#000000" font-family="sans-serif" font-size="12" lengthAdjust="spacing" textLength="14" x="493" y="176.0195">10</text><path d="M581.09,167.6563 C581.03,167.6563 581,167.6963 581,167.7463 L581,173.5563 C581,173.6063 581.04,173.6463 581.09,173.6463 L587,173.6463 L589,175.6463 L589,167.7363 C589,167.6763 588.96,167.6463 588.91,167.6463 L581.1,167.6463 " fill="#000000" style="stroke:;stroke-width:0.0;stroke-dasharray:;"/><text fill="#000000" font-family="sans-serif" font-size="12" lengthAdjust="spacing" textLength="3" x="590" y="176.0195">&#160;</text><path d="M594,167.6563 L594,175.6563 L602,175.6563 L602,167.6563 L594,167.6563 M595,168.6563 L601,168.6563 L601,171.6563 L600,170.6563 L599,171.6563 L601,173.6563 L601,174.6563 L600,174.6563 L596,170.6563 L595,171.6563 L595,168.6563 " fill="#000000" style="stroke:;stroke-width:0.0;stroke-dasharray:;"/><line style="stroke:#000000;stroke-width:1.0;" x1="262" x2="281" y1="115.4688" y2="115.4688"/><line style="stroke:#000000;stroke-width:1.0;" x1="281" x2="290" y1="115.4688" y2="115.4688"/><line style="stroke:#000000;stroke-width:1.0;" x1="290" x2="492" y1="115.4688" y2="115.4688"/><line style="stroke:#000000;stroke-width:1.0;" x1="492" x2="579" y1="115.4688" y2="115.4688"/><line style="stroke:#000000;stroke-width:1.0;" x1="579" x2="604" y1="115.4688" y2="115.4688"/><line style="stroke:#000000;stroke-width:1.0;" x1="604" x2="604" y1="115.4688" y2="115.4688"/><line style="stroke:#000000;stroke-width:1.0;" x1="604" x2="604" y1="115.4688" y2="115.4688"/><line style="stroke:#000000;stroke-width:1.0;" x1="604" x2="604" y1="115.4688" y2="115.4688"/><line style="stroke:#000000;stroke-width:1.0;" x1="604" x2="604" y1="115.4688" y2="115.4688"/><line style="stroke:#000000;stroke-width:1.0;" x1="604" x2="604" y1="115.4688" y2="115.4688"/><line style="stroke:#000000;stroke-width:1.0;" x1="604" x2="604" y1="115.4688" y2="115.4688"/><line style="stroke:#000000;stroke-width:1.0;" x1="262" x2="281" y1="188.6563" y2="188.6563"/><line style="stroke:#000000;stroke-width:1.0;" x1="281" x2="290" y1="188.6563" y2="188.6563"/><line style="stroke:#000000;stroke-width:1.0;" x1="290" x2="492" y1="188.6563" y2="188.6563"/><line style="stroke:#000000;stroke-width:1.0;" x1="492" x2="579" y1="188.6563" y2="188.6563"/><line style="stroke:#000000;stroke-width:1.0;" x1="579" x2="604" y1="188.6563" y2="188.6563"/><line style="stroke:#000000;stroke-width:1.0;" x1="604" x2="604" y1="188.6563" y2="188.6563"/><line style="stroke:#000000;stroke-width:1.0;" x1="604" x2="604" y1="188.6563" y2="188.6563"/><line style="stroke:#000000;stroke-width:1.0;" x1="604" x2="604" y1="188.6563" y2="188.6563"/><line style="stroke:#000000;stroke-width:1.0;" x1="604" x2="604" y1="188.6563" y2="188.6563"/><line style="stroke:#000000;stroke-width:1.0;" x1="604" x2="604" y1="188.6563" y2="188.6563"/><line style="stroke:#000000;stroke-width:1.0;" x1="604" x2="604" y1="188.6563" y2="188.6563"/><line style="stroke:#000000;stroke-width:1.0;" x1="262" x2="281" y1="162.5625" y2="162.5625"/><line style="stroke:#000000;stroke-width:1.0;" x1="281" x2="290" y1="162.5625" y2="162.5625"/><line style="stroke:#000000;stroke-width:1.0;" x1="290" x2="492" y1="162.5625" y2="162.5625"/><line style="stroke:#000000;stroke-width:1.0;" x1="492" x2="579" y1="162.5625" y2="162.5625"/><line style="stroke:#000000;stroke-width:1.0;" x1="579" x2="604" y1="162.5625" y2="162.5625"/><line style="stroke:#000000;stroke-width:1.0;" x1="262" x2="281" y1="136.4688" y2="136.4688"/><line style="stroke:#000000;stroke-width:1.0;" x1="281" x2="290" y1="136.4688" y2="136.4688"/><line style="stroke:#000000;stroke-width:1.0;" x1="290" x2="492" y1="136.4688" y2="136.4688"/><line style="stroke:#000000;stroke-width:1.0;" x1="492" x2="579" y1="136.4688" y2="136.4688"/><line style="stroke:#000000;stroke-width:1.0;" x1="579" x2="604" y1="136.4688" y2="136.4688"/><line style="stroke:#000000;stroke-width:1.0;" x1="604" x2="604" y1="136.4688" y2="136.4688"/><line style="stroke:#000000;stroke-width:1.0;" x1="604" x2="604" y1="136.4688" y2="136.4688"/><line style="stroke:#000000;stroke-width:1.0;" x1="604" x2="604" y1="136.4688" y2="136.4688"/><line style="stroke:#000000;stroke-width:1.0;" x1="604" x2="604" y1="136.4688" y2="136.4688"/><line style="stroke:#000000;stroke-width:1.0;" x1="604" x2="604" y1="136.4688" y2="136.4688"/><line style="stroke:#000000;stroke-width:1.0;" x1="604" x2="604" y1="136.4688" y2="136.4688"/><line style="stroke:#000000;stroke-width:1.0;" x1="262" x2="262" y1="115.4688" y2="136.4688"/><line style="stroke:#000000;stroke-width:1.0;" x1="290" x2="290" y1="162.5625" y2="188.6563"/><line style="stroke:#000000;stroke-width:1.0;" x1="492" x2="492" y1="162.5625" y2="188.6563"/><line style="stroke:#000000;stroke-width:1.0;" x1="290" x2="290" y1="115.4688" y2="136.4688"/><line style="stroke:#000000;stroke-width:1.0;" x1="579" x2="579" y1="162.5625" y2="188.6563"/><line style="stroke:#000000;stroke-width:1.0;" x1="604" x2="604" y1="162.5625" y2="188.6563"/><line style="stroke:#000000;stroke-width:1.0;" x1="604" x2="604" y1="162.5625" y2="188.6563"/><line style="stroke:#000000;stroke-width:1.0;" x1="604" x2="604" y1="115.4688" y2="136.4688"/><line style="stroke:#000000;stroke-width:1.0;" x1="262" x2="262" y1="136.4688" y2="162.5625"/><line style="stroke:#000000;stroke-width:1.0;" x1="281" x2="281" y1="136.4688" y2="162.5625"/><line style="stroke:#000000;stroke-width:1.0;" x1="290" x2="290" y1="136.4688" y2="162.5625"/><line style="stroke:#000000;stroke-width:1.0;" x1="492" x2="492" y1="136.4688" y2="162.5625"/><line style="stroke:#000000;stroke-width:1.0;" x1="579" x2="579" y1="136.4688" y2="162.5625"/><line style="stroke:#000000;stroke-width:1.0;" x1="604" x2="604" y1="136.4688" y2="162.5625"/><line style="stroke:#000000;stroke-width:1.0;" x1="604" x2="604" y1="136.4688" y2="162.5625"/><line style="stroke:#000000;stroke-width:1.0;" x1="262" x2="262" y1="162.5625" y2="188.6563"/><line style="stroke:#000000;stroke-width:1.0;" x1="281" x2="281" y1="162.5625" y2="188.6563"/><line style="stroke:#AAAAAA;stroke-width:1.0;" x1="6" x2="248" y1="238.7188" y2="238.7188"/><line style="stroke:#AAAAAA;stroke-width:1.0;" x1="249" x2="260" y1="238.7188" y2="238.7188"/><line style="stroke:#AAAAAA;stroke-width:1.0;" x1="261" x2="978" y1="238.7188" y2="238.7188"/><rect fill="#EEEEEE" height="19.0938" rx="5" ry="5" style="stroke:#000000;stroke-width:2.5;" width="52" x="9.5" y="246.7188"/><text fill="#000000" font-family="sans-serif" font-size="12" lengthAdjust="spacing" textLength="40" x="15.5" y="261.1758">Fermer</text><rect fill="#EEEEEE" height="19.0938" rx="5" ry="5" style="stroke:#000000;stroke-width:2.5;" width="92" x="68.5" y="246.7188"/><text fill="#000000" font-family="sans-serif" font-size="12" lengthAdjust="spacing" textLength="70" x="79.5" y="261.1758">Sauvegarder</text></g></svg>