<?xml version="1.0" encoding="UTF-8" standalone="no"?><svg xmlns="http://www.w3.org/2000/svg" xmlns:xlink="http://www.w3.org/1999/xlink" contentStyleType="text/css" height="362px" preserveAspectRatio="none" style="width:500px;height:362px;background:#FFFFFF;" version="1.1" viewBox="0 0 500 362" width="500px" zoomAndPan="magnify"><defs><filter height="1" id="bz32w42u6rc4s0" width="1" x="0" y="0"><feFlood flood-color="#DDDDDD" result="flood"/><feComposite in="SourceGraphic" in2="flood" operator="over"/></filter></defs><g><text fill="#000000" font-family="sans-serif" font-size="12" lengthAdjust="spacing" textLength="39" x="8" y="18.8281">Détails</text><line style="stroke:#000000;stroke-width:1.0;" x1="6" x2="6" y1="6" y2="22.3441"/><line style="stroke:#000000;stroke-width:1.0;" x1="6" x2="50" y1="6" y2="6"/><line style="stroke:#000000;stroke-width:1.0;" x1="50" x2="50" y1="6" y2="22.3441"/><line style="stroke:#000000;stroke-width:1.0;" x1="50" x2="60" y1="22.3441" y2="22.3441"/><text fill="#000000" font-family="sans-serif" font-size="12" font-weight="bold" lengthAdjust="spacing" textLength="48" x="65" y="18.8281">Capture</text><line style="stroke:#000000;stroke-width:1.0;" x1="60" x2="60" y1="6" y2="22.3441"/><line style="stroke:#000000;stroke-width:1.0;" x1="60" x2="116" y1="6" y2="6"/><line style="stroke:#000000;stroke-width:1.0;" x1="116" x2="116" y1="6" y2="22.3441"/><line style="stroke:#000000;stroke-width:1.0;" x1="116" x2="126" y1="22.3441" y2="22.3441"/><text fill="#000000" filter="url(#bz32w42u6rc4s0)" font-family="sans-serif" font-size="12" lengthAdjust="spacing" textLength="45" x="17" y="38.1722">Capture</text><text fill="#000000" font-family="sans-serif" font-size="12" lengthAdjust="spacing" textLength="42" x="175" y="38.1722">[200kg]</text><text fill="#000000" font-family="sans-serif" font-size="12" lengthAdjust="spacing" textLength="111" x="27" y="54.5163">Partie retenue, Vrac</text><text fill="#000000" font-family="sans-serif" font-size="12" lengthAdjust="spacing" textLength="71" x="175" y="54.5163">[100kg] (1/2)</text><text fill="#000000" font-family="sans-serif" font-size="12" lengthAdjust="spacing" textLength="107" x="27" y="70.8604">Partie rejetée, Vrac</text><text fill="#000000" font-family="sans-serif" font-size="12" lengthAdjust="spacing" textLength="35" x="175" y="70.8604">[10kg]</text><text fill="#000000" font-family="sans-serif" font-size="12" lengthAdjust="spacing" textLength="138" x="27" y="87.2045">Partie rejetée, Hors-Vrac</text><text fill="#000000" font-family="sans-serif" font-size="12" lengthAdjust="spacing" textLength="28" x="175" y="87.2045">[5kg]</text><rect fill="none" height="2" style="stroke:#888888;stroke-width:1.0;" width="2" x="10" y="32.5162"/><line style="stroke:#888888;stroke-width:1.0;" x1="11" x2="11" y1="35.5162" y2="49.8603"/><line style="stroke:#888888;stroke-width:1.0;" x1="11" x2="19" y1="49.8603" y2="49.8603"/><line style="stroke:#888888;stroke-width:1.0;" x1="11" x2="11" y1="35.5162" y2="66.2044"/><line style="stroke:#888888;stroke-width:1.0;" x1="11" x2="19" y1="66.2044" y2="66.2044"/><line style="stroke:#888888;stroke-width:1.0;" x1="11" x2="11" y1="35.5162" y2="82.5485"/><line style="stroke:#888888;stroke-width:1.0;" x1="11" x2="19" y1="82.5485" y2="82.5485"/><text fill="#FFA500" font-family="sans-serif" font-size="12" font-style="italic" lengthAdjust="spacing" textLength="222" x="7" y="123.8928">ou bien sous forme dépliée : (à confirmer)</text><text fill="#000000" filter="url(#bz32w42u6rc4s0)" font-family="sans-serif" font-size="12" lengthAdjust="spacing" textLength="45" x="17" y="160.581">Capture</text><text fill="#000000" font-family="sans-serif" font-size="12" lengthAdjust="spacing" textLength="42" x="148" y="160.581">[200kg]</text><text fill="#000000" font-family="sans-serif" font-size="12" lengthAdjust="spacing" textLength="111" x="27" y="176.9251">Partie retenue, Vrac</text><text fill="#000000" font-family="sans-serif" font-size="12" lengthAdjust="spacing" textLength="71" x="148" y="176.9251">[100kg] (1/2)</text><text fill="#666666" font-family="sans-serif" font-size="12" lengthAdjust="spacing" textLength="76" x="27" y="193.2692">Partie rejetée</text><text fill="#666666" font-family="sans-serif" font-size="12" lengthAdjust="spacing" textLength="35" x="148" y="193.2692">[15kg]</text><text fill="#000000" font-family="sans-serif" font-size="12" lengthAdjust="spacing" textLength="25" x="37" y="209.6133">Vrac</text><text fill="#000000" font-family="sans-serif" font-size="12" lengthAdjust="spacing" textLength="35" x="148" y="209.6133">[10kg]</text><text fill="#000000" font-family="sans-serif" font-size="12" lengthAdjust="spacing" textLength="56" x="37" y="225.9575">Hors-Vrac</text><text fill="#000000" font-family="sans-serif" font-size="12" lengthAdjust="spacing" textLength="28" x="148" y="225.9575">[5kg]</text><rect fill="none" height="2" style="stroke:#888888;stroke-width:1.0;" width="2" x="10" y="154.925"/><line style="stroke:#888888;stroke-width:1.0;" x1="11" x2="11" y1="157.925" y2="172.2691"/><line style="stroke:#888888;stroke-width:1.0;" x1="11" x2="19" y1="172.2691" y2="172.2691"/><rect fill="none" height="2" style="stroke:#888888;stroke-width:1.0;" width="2" x="20" y="187.6132"/><line style="stroke:#888888;stroke-width:1.0;" x1="11" x2="11" y1="157.925" y2="188.6132"/><line style="stroke:#888888;stroke-width:1.0;" x1="11" x2="19" y1="188.6132" y2="188.6132"/><line style="stroke:#888888;stroke-width:1.0;" x1="21" x2="21" y1="190.6132" y2="204.9573"/><line style="stroke:#888888;stroke-width:1.0;" x1="21" x2="29" y1="204.9573" y2="204.9573"/><line style="stroke:#888888;stroke-width:1.0;" x1="21" x2="21" y1="190.6132" y2="221.3014"/><line style="stroke:#888888;stroke-width:1.0;" x1="21" x2="29" y1="221.3014" y2="221.3014"/><line style="stroke:#AAAAAA;stroke-width:1.0;" x1="7" x2="249" y1="290.0058" y2="290.0058"/><rect fill="#EEEEEE" height="20.3441" rx="5" ry="5" style="stroke:#000000;stroke-width:2.5;" width="100" x="10.5" y="298.0058"/><text fill="#000000" font-family="sans-serif" font-size="12" lengthAdjust="spacing" textLength="53" x="35.5" y="312.8339">Contrôler</text><rect fill="#EEEEEE" height="20.3441" rx="5" ry="5" style="stroke:#000000;stroke-width:2.5;" width="36" x="117.5" y="298.0058"/><text fill="#000000" font-family="sans-serif" font-size="12" lengthAdjust="spacing" textLength="14" x="128.5" y="312.8339">&lt;&lt;</text><line style="stroke:#000000;stroke-width:1.0;" x1="6" x2="249" y1="24.3441" y2="24.3441"/><line style="stroke:#000000;stroke-width:1.0;" x1="6" x2="249" y1="322.8499" y2="322.8499"/><line style="stroke:#000000;stroke-width:1.0;" x1="6" x2="6" y1="24.3441" y2="91.7206"/><line style="stroke:#000000;stroke-width:1.0;" x1="249" x2="249" y1="24.3441" y2="91.7206"/><line style="stroke:#000000;stroke-width:1.0;" x1="6" x2="6" y1="293.5058" y2="322.8499"/><line style="stroke:#000000;stroke-width:1.0;" x1="249" x2="249" y1="293.5058" y2="322.8499"/><line style="stroke:#000000;stroke-width:1.0;" x1="6" x2="6" y1="267.1617" y2="285.5058"/><line style="stroke:#000000;stroke-width:1.0;" x1="249" x2="249" y1="267.1617" y2="285.5058"/><line style="stroke:#000000;stroke-width:1.0;" x1="6" x2="6" y1="230.4735" y2="248.8176"/><line style="stroke:#000000;stroke-width:1.0;" x1="249" x2="249" y1="230.4735" y2="248.8176"/><line style="stroke:#000000;stroke-width:1.0;" x1="6" x2="6" y1="128.4088" y2="146.7529"/><line style="stroke:#000000;stroke-width:1.0;" x1="249" x2="249" y1="128.4088" y2="146.7529"/><line style="stroke:#000000;stroke-width:1.0;" x1="6" x2="6" y1="91.7206" y2="110.0647"/><line style="stroke:#000000;stroke-width:1.0;" x1="249" x2="249" y1="91.7206" y2="110.0647"/><line style="stroke:#000000;stroke-width:1.0;" x1="6" x2="6" y1="285.5058" y2="293.5058"/><line style="stroke:#000000;stroke-width:1.0;" x1="249" x2="249" y1="285.5058" y2="293.5058"/><line style="stroke:#000000;stroke-width:1.0;" x1="6" x2="6" y1="248.8176" y2="267.1617"/><line style="stroke:#000000;stroke-width:1.0;" x1="249" x2="249" y1="248.8176" y2="267.1617"/><line style="stroke:#000000;stroke-width:1.0;" x1="6" x2="6" y1="146.7529" y2="230.4735"/><line style="stroke:#000000;stroke-width:1.0;" x1="249" x2="249" y1="146.7529" y2="230.4735"/><line style="stroke:#000000;stroke-width:1.0;" x1="6" x2="6" y1="110.0647" y2="128.4088"/><line style="stroke:#000000;stroke-width:1.0;" x1="249" x2="249" y1="110.0647" y2="128.4088"/><rect fill="#EEEEEE" height="20.3441" rx="5" ry="5" style="stroke:#000000;stroke-width:2.5;" width="60" x="267.5" y="28.8441"/><text fill="#000000" font-family="sans-serif" font-size="12" font-weight="bold" lengthAdjust="spacing" textLength="48" x="273.5" y="43.6722">Capture</text><text fill="#000000" font-family="sans-serif" font-size="12" lengthAdjust="spacing" textLength="4" x="332" y="39.1722">/</text><rect fill="#EEEEEE" height="20.3441" rx="5" ry="5" style="stroke:#000000;stroke-width:2.5;" width="28" x="340.5" y="28.8441"/><text fill="#000000" font-family="sans-serif" font-size="12" lengthAdjust="spacing" textLength="9" x="350" y="43.6722">...</text><text fill="#000000" font-family="sans-serif" font-size="12" lengthAdjust="spacing" textLength="185" x="265" y="68.5163">Capture (toutes espèces) (kg) (*):</text><text fill="#000000" font-family="sans-serif" font-size="12" lengthAdjust="spacing" textLength="21" x="455" y="68.5163">200</text><line style="stroke:#000000;stroke-width:1.0;" x1="453" x2="488" y1="72.0323" y2="72.0323"/><line style="stroke:#000000;stroke-width:1.0;" x1="453" x2="453" y1="69.0323" y2="71.0323"/><line style="stroke:#000000;stroke-width:1.0;" x1="488" x2="488" y1="69.0323" y2="71.0323"/><text fill="#FFA500" font-family="sans-serif" font-size="12" font-style="italic" lengthAdjust="spacing" textLength="114" x="267" y="89.8604">-&gt; Est-ce obligatoire ?</text><line style="stroke:#AAAAAA;stroke-width:1.0;" x1="6" x2="250" y1="328.3499" y2="328.3499"/><line style="stroke:#AAAAAA;stroke-width:1.0;" x1="251" x2="262" y1="328.3499" y2="328.3499"/><line style="stroke:#AAAAAA;stroke-width:1.0;" x1="263" x2="493" y1="328.3499" y2="328.3499"/><rect fill="#EEEEEE" height="20.3441" rx="5" ry="5" style="stroke:#000000;stroke-width:2.5;" width="52" x="9.5" y="336.3499"/><text fill="#000000" font-family="sans-serif" font-size="12" lengthAdjust="spacing" textLength="41" x="15" y="351.178">Fermer</text><rect fill="#EEEEEE" height="20.3441" rx="5" ry="5" style="stroke:#000000;stroke-width:2.5;" width="92" x="68.5" y="336.3499"/><text fill="#000000" font-family="sans-serif" font-size="12" lengthAdjust="spacing" textLength="72" x="78.5" y="351.178">Sauvegarder</text></g></svg>