<?xml version="1.0" encoding="UTF-8" standalone="no"?><svg xmlns="http://www.w3.org/2000/svg" xmlns:xlink="http://www.w3.org/1999/xlink" contentStyleType="text/css" height="289px" preserveAspectRatio="none" style="width:1003px;height:289px;background:#FFFFFF;" version="1.1" viewBox="0 0 1003 289" width="1003px" zoomAndPan="magnify"><defs><filter height="1" id="bzmkj4bwgimg0" width="1" x="0" y="0"><feFlood flood-color="#DDDDDD" result="flood"/><feComposite in="SourceGraphic" in2="flood" operator="over"/></filter></defs><g><text fill="#000000" font-family="sans-serif" font-size="12" lengthAdjust="spacing" textLength="39" x="8" y="18.8281">Détails</text><line style="stroke:#000000;stroke-width:1.0;" x1="6" x2="6" y1="6" y2="22.3441"/><line style="stroke:#000000;stroke-width:1.0;" x1="6" x2="50" y1="6" y2="6"/><line style="stroke:#000000;stroke-width:1.0;" x1="50" x2="50" y1="6" y2="22.3441"/><line style="stroke:#000000;stroke-width:1.0;" x1="50" x2="60" y1="22.3441" y2="22.3441"/><text fill="#000000" font-family="sans-serif" font-size="12" font-weight="bold" lengthAdjust="spacing" textLength="48" x="65" y="18.8281">Capture</text><line style="stroke:#000000;stroke-width:1.0;" x1="60" x2="60" y1="6" y2="22.3441"/><line style="stroke:#000000;stroke-width:1.0;" x1="60" x2="116" y1="6" y2="6"/><line style="stroke:#000000;stroke-width:1.0;" x1="116" x2="116" y1="6" y2="22.3441"/><line style="stroke:#000000;stroke-width:1.0;" x1="116" x2="126" y1="22.3441" y2="22.3441"/><text fill="#000000" font-family="sans-serif" font-size="12" lengthAdjust="spacing" textLength="45" x="17" y="38.1722">Capture</text><text fill="#000000" font-family="sans-serif" font-size="12" lengthAdjust="spacing" textLength="80" x="27" y="54.5163">Partie retenue</text><text fill="#000000" font-family="sans-serif" font-size="12" lengthAdjust="spacing" textLength="135" x="27" y="70.8604">Partie non retenue, Vrac</text><text fill="#000000" font-family="sans-serif" font-size="12" lengthAdjust="spacing" textLength="43" x="37" y="87.2045">Détaillé</text><text fill="#000000" font-family="sans-serif" font-size="12" lengthAdjust="spacing" textLength="49" x="47" y="103.5487">Animaux</text><text fill="#000000" font-family="sans-serif" font-size="12" lengthAdjust="spacing" textLength="15" x="241" y="103.5487">[0]</text><text fill="#000000" filter="url(#bzmkj4bwgimg0)" font-family="sans-serif" font-size="12" lengthAdjust="spacing" textLength="184" x="47" y="119.8928">Ecosystèmes Marins Vulnérables</text><text fill="#0000FF" font-family="sans-serif" font-size="12" font-style="italic" lengthAdjust="spacing" textLength="13" x="241" y="119.8928">[1]</text><text fill="#000000" font-family="sans-serif" font-size="12" lengthAdjust="spacing" textLength="67" x="37" y="136.2369">Non détaillé</text><text fill="#000000" font-family="sans-serif" font-size="12" lengthAdjust="spacing" textLength="15" x="241" y="136.2369">[0]</text><text fill="#000000" font-family="sans-serif" font-size="12" lengthAdjust="spacing" textLength="166" x="27" y="152.581">Partie non retenue, Hors-Vrac</text><rect fill="none" height="2" style="stroke:#888888;stroke-width:1.0;" width="2" x="10" y="32.5162"/><line style="stroke:#888888;stroke-width:1.0;" x1="11" x2="11" y1="35.5162" y2="49.8603"/><line style="stroke:#888888;stroke-width:1.0;" x1="11" x2="19" y1="49.8603" y2="49.8603"/><rect fill="none" height="2" style="stroke:#888888;stroke-width:1.0;" width="2" x="20" y="65.2044"/><line style="stroke:#888888;stroke-width:1.0;" x1="11" x2="11" y1="35.5162" y2="66.2044"/><line style="stroke:#888888;stroke-width:1.0;" x1="11" x2="19" y1="66.2044" y2="66.2044"/><rect fill="none" height="2" style="stroke:#888888;stroke-width:1.0;" width="2" x="30" y="81.5485"/><line style="stroke:#888888;stroke-width:1.0;" x1="21" x2="21" y1="68.2044" y2="82.5485"/><line style="stroke:#888888;stroke-width:1.0;" x1="21" x2="29" y1="82.5485" y2="82.5485"/><line style="stroke:#888888;stroke-width:1.0;" x1="31" x2="31" y1="84.5485" y2="98.8926"/><line style="stroke:#888888;stroke-width:1.0;" x1="31" x2="39" y1="98.8926" y2="98.8926"/><line style="stroke:#888888;stroke-width:1.0;" x1="31" x2="31" y1="84.5485" y2="115.2367"/><line style="stroke:#888888;stroke-width:1.0;" x1="31" x2="39" y1="115.2367" y2="115.2367"/><line style="stroke:#888888;stroke-width:1.0;" x1="21" x2="21" y1="68.2044" y2="131.5809"/><line style="stroke:#888888;stroke-width:1.0;" x1="21" x2="29" y1="131.5809" y2="131.5809"/><line style="stroke:#888888;stroke-width:1.0;" x1="11" x2="11" y1="35.5162" y2="147.925"/><line style="stroke:#888888;stroke-width:1.0;" x1="11" x2="19" y1="147.925" y2="147.925"/><line style="stroke:#AAAAAA;stroke-width:1.0;" x1="7" x2="259" y1="216.6294" y2="216.6294"/><rect fill="#EEEEEE" height="20.3441" rx="5" ry="5" style="stroke:#000000;stroke-width:2.5;" width="100" x="10.5" y="224.6294"/><text fill="#000000" font-family="sans-serif" font-size="12" lengthAdjust="spacing" textLength="53" x="35.5" y="239.4575">Contrôler</text><rect fill="#EEEEEE" height="20.3441" rx="5" ry="5" style="stroke:#000000;stroke-width:2.5;" width="36" x="117.5" y="224.6294"/><text fill="#000000" font-family="sans-serif" font-size="12" font-weight="bold" lengthAdjust="spacing" textLength="14" x="128.5" y="239.4575">&lt;&lt;</text><line style="stroke:#000000;stroke-width:1.0;" x1="6" x2="259" y1="24.3441" y2="24.3441"/><line style="stroke:#000000;stroke-width:1.0;" x1="6" x2="259" y1="249.4735" y2="249.4735"/><line style="stroke:#000000;stroke-width:1.0;" x1="6" x2="6" y1="24.3441" y2="157.097"/><line style="stroke:#000000;stroke-width:1.0;" x1="259" x2="259" y1="157.097" y2="175.4411"/><line style="stroke:#000000;stroke-width:1.0;" x1="259" x2="259" y1="24.3441" y2="157.097"/><line style="stroke:#000000;stroke-width:1.0;" x1="6" x2="6" y1="220.1294" y2="249.4735"/><line style="stroke:#000000;stroke-width:1.0;" x1="6" x2="6" y1="212.1294" y2="220.1294"/><line style="stroke:#000000;stroke-width:1.0;" x1="259" x2="259" y1="220.1294" y2="249.4735"/><line style="stroke:#000000;stroke-width:1.0;" x1="6" x2="6" y1="193.7853" y2="212.1294"/><line style="stroke:#000000;stroke-width:1.0;" x1="259" x2="259" y1="212.1294" y2="220.1294"/><line style="stroke:#000000;stroke-width:1.0;" x1="6" x2="6" y1="175.4411" y2="193.7853"/><line style="stroke:#000000;stroke-width:1.0;" x1="259" x2="259" y1="193.7853" y2="212.1294"/><line style="stroke:#000000;stroke-width:1.0;" x1="6" x2="6" y1="157.097" y2="175.4411"/><line style="stroke:#000000;stroke-width:1.0;" x1="259" x2="259" y1="175.4411" y2="193.7853"/><rect fill="#EEEEEE" height="20.3441" rx="5" ry="5" style="stroke:#000000;stroke-width:2.5;" width="60" x="277.5" y="28.8441"/><text fill="#000000" font-family="sans-serif" font-size="12" lengthAdjust="spacing" textLength="45" x="285" y="43.6722">Capture</text><text fill="#000000" font-family="sans-serif" font-size="12" lengthAdjust="spacing" textLength="4" x="342" y="39.1722">/</text><rect fill="#EEEEEE" height="20.3441" rx="5" ry="5" style="stroke:#000000;stroke-width:2.5;" width="196" x="350.5" y="28.8441"/><text fill="#000000" font-family="sans-serif" font-size="12" lengthAdjust="spacing" textLength="135" x="381" y="43.6722">Partie non retenue, Vrac</text><rect fill="#EEEEEE" height="20.3441" rx="5" ry="5" style="stroke:#000000;stroke-width:2.5;" width="68" x="553.5" y="28.8441"/><text fill="#000000" font-family="sans-serif" font-size="12" lengthAdjust="spacing" textLength="43" x="566" y="43.6722">Détaillé</text><rect fill="#EEEEEE" height="20.3441" rx="5" ry="5" style="stroke:#000000;stroke-width:2.5;" width="244" x="628.5" y="28.8441"/><text fill="#000000" font-family="sans-serif" font-size="12" font-weight="bold" lengthAdjust="spacing" textLength="195" x="653" y="43.6722">Ecosystèmes Marins Vulnérables</text><text fill="#000000" font-family="sans-serif" font-size="12" lengthAdjust="spacing" textLength="15" x="877" y="39.1722">(1)</text><rect fill="#EEEEEE" height="12" rx="5" ry="5" style="stroke:#000000;stroke-width:2.5;" width="20" x="942.5" y="29.8441"/><path d="M952.5,31.8441 L948.5,35.8441 L952.5,39.8441 L954,38.3441 L951.5,35.8441 L954,33.3441 L952.5,31.8441 " fill="#000000" style="stroke:;stroke-width:0.0;stroke-dasharray:;"/><rect fill="#EEEEEE" height="12" rx="5" ry="5" style="stroke:#000000;stroke-width:2.5;" width="20" x="969.5" y="29.8441"/><path d="M977,31.8441 L975.5,33.3441 L978,35.8441 L975.5,38.3441 L977,39.8441 L981,35.8441 L977,31.8441 " fill="#000000" style="stroke:;stroke-width:0.0;stroke-dasharray:;"/><text fill="#000000" font-family="sans-serif" font-size="12" lengthAdjust="spacing" textLength="88" x="275" y="68.5163">Poids total (kg) :</text><text fill="#000000" font-family="sans-serif" font-size="12" lengthAdjust="spacing" textLength="7" x="368" y="68.5163">0</text><line style="stroke:#000000;stroke-width:1.0;" x1="366" x2="417" y1="72.0323" y2="72.0323"/><line style="stroke:#000000;stroke-width:1.0;" x1="366" x2="366" y1="69.0323" y2="71.0323"/><line style="stroke:#000000;stroke-width:1.0;" x1="417" x2="417" y1="69.0323" y2="71.0323"/><text fill="#000000" font-family="sans-serif" font-size="12" lengthAdjust="spacing" textLength="46" x="616" y="68.5163">Estimé ?</text><rect fill="none" height="10" style="stroke:#000000;stroke-width:1.5;" width="10" x="598" y="58.8603"/><text fill="#000000" font-family="sans-serif" font-size="12" lengthAdjust="spacing" textLength="61" x="275" y="90.8604">Coef. éch. :</text><text fill="#000000" font-family="sans-serif" font-size="12" lengthAdjust="spacing" textLength="18" x="341" y="90.8604">1/1</text><line style="stroke:#000000;stroke-width:1.0;" x1="339" x2="406" y1="94.3765" y2="94.3765"/><line style="stroke:#000000;stroke-width:1.0;" x1="339" x2="339" y1="91.3765" y2="93.3765"/><line style="stroke:#000000;stroke-width:1.0;" x1="406" x2="406" y1="91.3765" y2="93.3765"/><text fill="#000000" font-family="sans-serif" font-size="12" lengthAdjust="spacing" textLength="101" x="435" y="90.8604">Poids échant (kg) :</text><text fill="#000000" font-family="sans-serif" font-size="12" lengthAdjust="spacing" textLength="7" x="541" y="90.8604">0</text><line style="stroke:#000000;stroke-width:1.0;" x1="539" x2="590" y1="94.3765" y2="94.3765"/><line style="stroke:#000000;stroke-width:1.0;" x1="539" x2="539" y1="91.3765" y2="93.3765"/><line style="stroke:#000000;stroke-width:1.0;" x1="590" x2="590" y1="91.3765" y2="93.3765"/><text fill="#000000" font-family="sans-serif" font-size="12" lengthAdjust="spacing" textLength="191" x="295" y="113.2045">Inventaire exhaustif des espèces ?</text><rect fill="none" height="10" style="stroke:#000000;stroke-width:1.5;" width="10" x="277" y="103.5485"/><line style="stroke:#AAAAAA;stroke-width:1.0;" x1="274" x2="995" y1="123.2206" y2="123.2206"/><rect fill="#EEEEEE" height="12" rx="5" ry="5" style="stroke:#000000;stroke-width:2.5;" width="36" x="288.5" y="132.2206"/><path d="M305.5,134.2206 L305.5,137.2206 L302.5,137.2206 L302.5,139.2206 L305.5,139.2206 L305.5,142.2206 L307.5,142.2206 L307.5,139.2206 L310.5,139.2206 L310.5,137.2206 L307.5,137.2206 L307.5,134.2206 L305.5,134.2206 " fill="#000000" style="stroke:;stroke-width:0.0;stroke-dasharray:;"/><rect fill="#EEEEEE" height="20.3441" rx="5" ry="5" style="stroke:#000000;stroke-width:2.5;" width="44" x="331.5" y="132.2206"/><text fill="#000000" font-family="sans-serif" font-size="12" font-weight="bold" lengthAdjust="spacing" textLength="8" x="342.5" y="147.0487">((</text><path d="M354.5,139.5647 L354.5,142.5647 L351.5,142.5647 L351.5,144.5647 L354.5,144.5647 L354.5,147.5647 L356.5,147.5647 L356.5,144.5647 L359.5,144.5647 L359.5,142.5647 L356.5,142.5647 L356.5,139.5647 L354.5,139.5647 " fill="#000000" style="stroke:;stroke-width:0.0;stroke-dasharray:;"/><text fill="#000000" font-family="sans-serif" font-size="12" font-weight="bold" lengthAdjust="spacing" textLength="4" x="360.5" y="147.0487">)</text><rect fill="#EEEEEE" height="12" rx="5" ry="5" style="stroke:#000000;stroke-width:2.5;" width="36" x="382.5" y="132.2206"/><path d="M399.5,134.2206 C398.95,134.2206 398.5,134.6706 398.5,135.2206 L397.5,135.2206 C396.95,135.2206 396.5,135.6706 396.5,136.2206 L403.5,136.2206 C403.5,135.6706 403.05,135.2206 402.5,135.2206 L401.5,135.2206 C401.5,134.6706 401.05,134.2206 400.5,134.2206 L399.5,134.2206 M397.5,137.2206 L397.5,142.0306 C397.5,142.1406 397.58,142.2206 397.69,142.2206 L402.32,142.2206 C402.43,142.2206 402.51,142.1406 402.51,142.0306 L402.51,137.2206 L401.51,137.2206 L401.51,140.7206 C401.51,141.0006 401.29,141.2206 401.01,141.2206 C400.73,141.2206 400.51,141.0006 400.51,140.7206 L400.51,137.2206 L399.51,137.2206 L399.51,140.7206 C399.51,141.0006 399.29,141.2206 399.01,141.2206 C398.73,141.2206 398.51,141.0006 398.51,140.7206 L398.51,137.2206 L397.51,137.2206 " fill="#000000" style="stroke:;stroke-width:0.0;stroke-dasharray:;"/><text fill="#000000" font-family="sans-serif" font-size="12" lengthAdjust="spacing" textLength="8" x="275" y="170.8928">#</text><text fill="#000000" font-family="sans-serif" font-size="12" font-weight="bold" lengthAdjust="spacing" textLength="98" x="285" y="170.8928">Catégorie d'EMV</text><text fill="#000000" font-family="sans-serif" font-size="12" font-weight="bold" lengthAdjust="spacing" textLength="90" x="487" y="170.8928">Poids total (kg)</text><path d="M580,158.0647 L580,159.0647 L588,159.0647 L588,158.0647 L580,158.0647 M580,161.0347 L580,162.0347 L588,162.0347 L588,161.0347 L580,161.0347 M580,164.0347 L580,165.0347 L588,165.0347 L588,164.0347 L580,164.0347 " fill="#000000" style="stroke:;stroke-width:0.0;stroke-dasharray:;"/><text fill="#000000" font-family="sans-serif" font-size="12" lengthAdjust="spacing" textLength="7" x="275" y="189.2369">1</text><rect fill="#EEEEEE" height="19.3441" style="stroke:#000000;stroke-width:1.0;" width="199" x="285" y="176.4088"/><text fill="#000000" font-family="sans-serif" font-size="12" lengthAdjust="spacing" textLength="97" x="287" y="191.2369">BC - Coraux noirs</text><line style="stroke:#000000;stroke-width:1.0;" x1="473" x2="473" y1="176.4088" y2="195.7529"/><polygon fill="#000000" points="476,182.4088,482,182.4088,479,190.7529" style="stroke:#000000;stroke-width:1.0;"/><text fill="#000000" font-family="sans-serif" font-size="12" lengthAdjust="spacing" textLength="14" x="487" y="189.2369">10</text><path d="M580.09,181.7529 C580.03,181.7529 580,181.7929 580,181.8429 L580,187.6529 C580,187.7029 580.04,187.7429 580.09,187.7429 L586,187.7429 L588,189.7429 L588,181.8329 C588,181.7729 587.96,181.7429 587.91,181.7429 L580.1,181.7429 " fill="#000000" style="stroke:;stroke-width:0.0;stroke-dasharray:;"/><text fill="#000000" font-family="sans-serif" font-size="12" lengthAdjust="spacing" textLength="3" x="589" y="189.2369"> </text><path d="M593,181.7529 L593,189.7529 L601,189.7529 L601,181.7529 L593,181.7529 M594,182.7529 L600,182.7529 L600,185.7529 L599,184.7529 L598,185.7529 L600,187.7529 L600,188.7529 L599,188.7529 L595,184.7529 L594,185.7529 L594,182.7529 " fill="#000000" style="stroke:;stroke-width:0.0;stroke-dasharray:;"/><line style="stroke:#000000;stroke-width:1.0;" x1="274" x2="284" y1="127.7206" y2="127.7206"/><line style="stroke:#000000;stroke-width:1.0;" x1="486" x2="578" y1="175.4088" y2="175.4088"/><line style="stroke:#000000;stroke-width:1.0;" x1="284" x2="486" y1="127.7206" y2="127.7206"/><line style="stroke:#000000;stroke-width:1.0;" x1="578" x2="603" y1="175.4088" y2="175.4088"/><line style="stroke:#000000;stroke-width:1.0;" x1="486" x2="578" y1="127.7206" y2="127.7206"/><line style="stroke:#000000;stroke-width:1.0;" x1="578" x2="603" y1="127.7206" y2="127.7206"/><line style="stroke:#000000;stroke-width:1.0;" x1="274" x2="284" y1="197.7529" y2="197.7529"/><line style="stroke:#000000;stroke-width:1.0;" x1="284" x2="486" y1="197.7529" y2="197.7529"/><line style="stroke:#000000;stroke-width:1.0;" x1="486" x2="578" y1="197.7529" y2="197.7529"/><line style="stroke:#000000;stroke-width:1.0;" x1="274" x2="284" y1="157.0647" y2="157.0647"/><line style="stroke:#000000;stroke-width:1.0;" x1="578" x2="603" y1="197.7529" y2="197.7529"/><line style="stroke:#000000;stroke-width:1.0;" x1="284" x2="486" y1="157.0647" y2="157.0647"/><line style="stroke:#000000;stroke-width:1.0;" x1="486" x2="578" y1="157.0647" y2="157.0647"/><line style="stroke:#000000;stroke-width:1.0;" x1="578" x2="603" y1="157.0647" y2="157.0647"/><line style="stroke:#000000;stroke-width:1.0;" x1="274" x2="284" y1="175.4088" y2="175.4088"/><line style="stroke:#000000;stroke-width:1.0;" x1="284" x2="486" y1="175.4088" y2="175.4088"/><line style="stroke:#000000;stroke-width:1.0;" x1="274" x2="274" y1="127.7206" y2="157.0647"/><line style="stroke:#000000;stroke-width:1.0;" x1="486" x2="486" y1="175.4088" y2="197.7529"/><line style="stroke:#000000;stroke-width:1.0;" x1="284" x2="284" y1="127.7206" y2="157.0647"/><line style="stroke:#000000;stroke-width:1.0;" x1="578" x2="578" y1="175.4088" y2="197.7529"/><line style="stroke:#000000;stroke-width:1.0;" x1="603" x2="603" y1="175.4088" y2="197.7529"/><line style="stroke:#000000;stroke-width:1.0;" x1="486" x2="486" y1="127.7206" y2="157.0647"/><line style="stroke:#000000;stroke-width:1.0;" x1="578" x2="578" y1="127.7206" y2="157.0647"/><line style="stroke:#000000;stroke-width:1.0;" x1="603" x2="603" y1="127.7206" y2="157.0647"/><line style="stroke:#000000;stroke-width:1.0;" x1="274" x2="274" y1="157.0647" y2="175.4088"/><line style="stroke:#000000;stroke-width:1.0;" x1="284" x2="284" y1="157.0647" y2="175.4088"/><line style="stroke:#000000;stroke-width:1.0;" x1="486" x2="486" y1="157.0647" y2="175.4088"/><line style="stroke:#000000;stroke-width:1.0;" x1="578" x2="578" y1="157.0647" y2="175.4088"/><line style="stroke:#000000;stroke-width:1.0;" x1="603" x2="603" y1="157.0647" y2="175.4088"/><line style="stroke:#000000;stroke-width:1.0;" x1="274" x2="274" y1="175.4088" y2="197.7529"/><line style="stroke:#000000;stroke-width:1.0;" x1="284" x2="284" y1="175.4088" y2="197.7529"/><line style="stroke:#AAAAAA;stroke-width:1.0;" x1="6" x2="260" y1="254.9735" y2="254.9735"/><line style="stroke:#AAAAAA;stroke-width:1.0;" x1="261" x2="272" y1="254.9735" y2="254.9735"/><line style="stroke:#AAAAAA;stroke-width:1.0;" x1="273" x2="996" y1="254.9735" y2="254.9735"/><rect fill="#EEEEEE" height="20.3441" rx="5" ry="5" style="stroke:#000000;stroke-width:2.5;" width="52" x="9.5" y="262.9735"/><text fill="#000000" font-family="sans-serif" font-size="12" lengthAdjust="spacing" textLength="41" x="15" y="277.8016">Fermer</text><rect fill="#EEEEEE" height="20.3441" rx="5" ry="5" style="stroke:#000000;stroke-width:2.5;" width="92" x="68.5" y="262.9735"/><text fill="#000000" font-family="sans-serif" font-size="12" lengthAdjust="spacing" textLength="72" x="78.5" y="277.8016">Sauvegarder</text></g></svg>