<?xml version="1.0" encoding="UTF-8" standalone="no"?><svg xmlns="http://www.w3.org/2000/svg" xmlns:xlink="http://www.w3.org/1999/xlink" contentStyleType="text/css" height="245px" preserveAspectRatio="none" style="width:1148px;height:245px;background:#FFFFFF;" version="1.1" viewBox="0 0 1148 245" width="1148px" zoomAndPan="magnify"><defs/><g><text fill="#000000" font-family="sans-serif" font-size="12" font-weight="bold" lengthAdjust="spacing" textLength="297" x="6" y="18.8281">Liste de règles "Arbre d'échantillonnage ObsMer"</text><line style="stroke:#AAAAAA;stroke-width:1.0;stroke-dasharray:1.0,2.0;" x1="6" x2="981" y1="27.8441" y2="27.8441"/><text fill="#000000" font-family="sans-serif" font-size="12" lengthAdjust="spacing" textLength="95" x="7" y="46.1722">Libellé de la liste:</text><text fill="#000000" font-family="sans-serif" font-size="12" lengthAdjust="spacing" textLength="182" x="107" y="46.1722">Arbre d'échantillonnage ObsMer</text><line style="stroke:#000000;stroke-width:1.0;" x1="105" x2="348" y1="49.6882" y2="49.6882"/><line style="stroke:#000000;stroke-width:1.0;" x1="105" x2="105" y1="46.6882" y2="48.6882"/><line style="stroke:#000000;stroke-width:1.0;" x1="348" x2="348" y1="46.6882" y2="48.6882"/><text fill="#000000" font-family="sans-serif" font-size="12" lengthAdjust="spacing" textLength="123" x="7" y="68.5163">Type d'objet contrôlé :</text><rect fill="#EEEEEE" height="19.3441" style="stroke:#000000;stroke-width:1.0;" width="279" x="132" y="55.6882"/><text fill="#000000" font-family="sans-serif" font-size="12" lengthAdjust="spacing" textLength="176" x="134" y="70.5163">Lot avec critères de classement</text><line style="stroke:#000000;stroke-width:1.0;" x1="400" x2="400" y1="55.6882" y2="75.0323"/><polygon fill="#000000" points="403,61.6882,409,61.6882,406,70.0323" style="stroke:#000000;stroke-width:1.0;"/><path d="M11,80.0323 L11,83.0323 L8,83.0323 L8,85.0323 L11,85.0323 L11,88.0323 L13,88.0323 L13,85.0323 L16,85.0323 L16,83.0323 L13,83.0323 L13,80.0323 L11,80.0323 " fill="#000000" style="stroke:;stroke-width:0.0;stroke-dasharray:;"/><path d="M23,80.0323 C22.45,80.0323 22,80.4823 22,81.0323 L21,81.0323 C20.45,81.0323 20,81.4823 20,82.0323 L27,82.0323 C27,81.4823 26.55,81.0323 26,81.0323 L25,81.0323 C25,80.4823 24.55,80.0323 24,80.0323 L23,80.0323 M21,83.0323 L21,87.8423 C21,87.9523 21.08,88.0323 21.19,88.0323 L25.82,88.0323 C25.93,88.0323 26.01,87.9523 26.01,87.8423 L26.01,83.0323 L25.01,83.0323 L25.01,86.5323 C25.01,86.8123 24.79,87.0323 24.51,87.0323 C24.23,87.0323 24.01,86.8123 24.01,86.5323 L24.01,83.0323 L23.01,83.0323 L23.01,86.5323 C23.01,86.8123 22.79,87.0323 22.51,87.0323 C22.23,87.0323 22.01,86.8123 22.01,86.5323 L22.01,83.0323 L21.01,83.0323 " fill="#000000" style="stroke:;stroke-width:0.0;stroke-dasharray:;"/><text fill="#000000" font-family="sans-serif" font-size="12" font-weight="bold" lengthAdjust="spacing" textLength="8" x="16" y="103.8604">#</text><text fill="#000000" font-family="sans-serif" font-size="12" font-weight="bold" lengthAdjust="spacing" textLength="30" x="53" y="103.8604">Code</text><text fill="#000000" font-family="sans-serif" font-size="12" font-weight="bold" lengthAdjust="spacing" textLength="41" x="200" y="103.8604">Libellé</text><text fill="#000000" font-family="sans-serif" font-size="12" font-weight="bold" lengthAdjust="spacing" textLength="86" x="421" y="103.8604">Précondition ?</text><text fill="#000000" font-family="sans-serif" font-size="12" font-weight="bold" lengthAdjust="spacing" textLength="64" x="517" y="103.8604">Bloquant ?</text><text fill="#000000" font-family="sans-serif" font-size="12" font-weight="bold" lengthAdjust="spacing" textLength="100" x="591" y="103.8604">Attribut contrôlé</text><text fill="#000000" font-family="sans-serif" font-size="12" font-weight="bold" lengthAdjust="spacing" textLength="62" x="778" y="103.8604">Opérateur</text><text fill="#000000" font-family="sans-serif" font-size="12" font-weight="bold" lengthAdjust="spacing" textLength="39" x="850" y="103.8604">Valeur</text><text fill="#000000" font-family="sans-serif" font-size="12" lengthAdjust="spacing" textLength="7" x="16" y="120.2045">1</text><text fill="#000000" font-family="sans-serif" font-size="12" lengthAdjust="spacing" textLength="41" x="53" y="120.2045">landing</text><text fill="#000000" font-family="sans-serif" font-size="12" lengthAdjust="spacing" textLength="163" x="200" y="120.2045">Partie Retenue (précondition)</text><path d="M428.41,112.7206 L427.72,113.4406 L424.94,116.2206 L424.13,115.4406 L423.41,114.7206 L422,116.1306 L422.72,116.8506 L424.22,118.3506 L424.91,119.0706 L425.63,118.3506 L429.13,114.8506 L429.85,114.1306 L428.41,112.7206 " fill="#000000" style="stroke:;stroke-width:0.0;stroke-dasharray:;"/><text fill="#000000" font-family="sans-serif" font-size="12" lengthAdjust="spacing" textLength="19" x="434" y="120.2045">Oui</text><text fill="#000000" font-family="sans-serif" font-size="12" lengthAdjust="spacing" textLength="177" x="591" y="120.2045">Valeur du critère de classement</text><text fill="#000000" font-family="sans-serif" font-size="12" lengthAdjust="spacing" textLength="7" x="778" y="120.2045">=</text><text fill="#000000" font-family="sans-serif" font-size="12" lengthAdjust="spacing" textLength="80" x="850" y="120.2045">Partie retenue</text><text fill="#000000" font-family="sans-serif" font-size="12" lengthAdjust="spacing" textLength="17" x="26" y="136.5487">1.1</text><text fill="#000000" font-family="sans-serif" font-size="12" lengthAdjust="spacing" textLength="129" x="53" y="136.5487">no-batch-sorting-pmfm</text><text fill="#000000" font-family="sans-serif" font-size="12" lengthAdjust="spacing" textLength="156" x="200" y="136.5487">Vrac/Hors vrac non autorisé</text><path d="M423.41,129.0647 L422,130.4747 L422.72,131.1947 L424.5,133.0047 L422.72,134.7847 L422,135.4747 L423.41,136.9147 L424.13,136.1947 L425.94,134.3847 L427.72,136.1947 L428.41,136.9147 L429.85,135.4747 L429.13,134.7847 L427.32,133.0047 L429.13,131.1947 L429.85,130.4747 L428.41,129.0647 L427.72,129.7847 L425.94,131.5647 L424.13,129.7847 L423.41,129.0647 " fill="#000000" style="stroke:;stroke-width:0.0;stroke-dasharray:;"/><text fill="#000000" font-family="sans-serif" font-size="12" lengthAdjust="spacing" textLength="23" x="434" y="136.5487">Non</text><path d="M524.41,129.0647 L523.72,129.7847 L520.94,132.5647 L520.13,131.7847 L519.41,131.0647 L518,132.4747 L518.72,133.1947 L520.22,134.6947 L520.91,135.4147 L521.63,134.6947 L525.13,131.1947 L525.85,130.4747 L524.41,129.0647 " fill="#000000" style="stroke:;stroke-width:0.0;stroke-dasharray:;"/><text fill="#000000" font-family="sans-serif" font-size="12" lengthAdjust="spacing" textLength="19" x="530" y="136.5487">Oui</text><text fill="#000000" font-family="sans-serif" font-size="12" lengthAdjust="spacing" textLength="123" x="591" y="136.5487">Critère de classement</text><text fill="#000000" font-family="sans-serif" font-size="12" lengthAdjust="spacing" textLength="10" x="778" y="136.5487">!=</text><text fill="#000000" font-family="sans-serif" font-size="12" lengthAdjust="spacing" textLength="100" x="850" y="136.5487">Vrac ou Hors Vrac</text><text fill="#000000" font-family="sans-serif" font-size="12" lengthAdjust="spacing" textLength="17" x="26" y="152.8928">1.2</text><text fill="#000000" font-family="sans-serif" font-size="12" lengthAdjust="spacing" textLength="137" x="53" y="152.8928">no-discard-weight-pmfm</text><text fill="#000000" font-family="sans-serif" font-size="12" lengthAdjust="spacing" textLength="149" x="200" y="152.8928">Poids du rejet non autorisé</text><path d="M423.41,145.4088 L422,146.8188 L422.72,147.5388 L424.5,149.3488 L422.72,151.1288 L422,151.8188 L423.41,153.2588 L424.13,152.5388 L425.94,150.7288 L427.72,152.5388 L428.41,153.2588 L429.85,151.8188 L429.13,151.1288 L427.32,149.3488 L429.13,147.5388 L429.85,146.8188 L428.41,145.4088 L427.72,146.1288 L425.94,147.9088 L424.13,146.1288 L423.41,145.4088 " fill="#000000" style="stroke:;stroke-width:0.0;stroke-dasharray:;"/><text fill="#000000" font-family="sans-serif" font-size="12" lengthAdjust="spacing" textLength="23" x="434" y="152.8928">Non</text><path d="M524.41,145.4088 L523.72,146.1288 L520.94,148.9088 L520.13,148.1288 L519.41,147.4088 L518,148.8188 L518.72,149.5388 L520.22,151.0388 L520.91,151.7588 L521.63,151.0388 L525.13,147.5388 L525.85,146.8188 L524.41,145.4088 " fill="#000000" style="stroke:;stroke-width:0.0;stroke-dasharray:;"/><text fill="#000000" font-family="sans-serif" font-size="12" lengthAdjust="spacing" textLength="19" x="530" y="152.8928">Oui</text><text fill="#000000" font-family="sans-serif" font-size="12" lengthAdjust="spacing" textLength="123" x="591" y="152.8928">Critère de classement</text><text fill="#000000" font-family="sans-serif" font-size="12" lengthAdjust="spacing" textLength="10" x="778" y="152.8928">!=</text><text fill="#000000" font-family="sans-serif" font-size="12" lengthAdjust="spacing" textLength="76" x="850" y="152.8928">Poids du rejet</text><text fill="#000000" font-family="sans-serif" font-size="12" lengthAdjust="spacing" textLength="7" x="16" y="169.2369">2</text><text fill="#000000" font-family="sans-serif" font-size="12" lengthAdjust="spacing" textLength="41" x="53" y="169.2369">discard</text><text fill="#000000" font-family="sans-serif" font-size="12" lengthAdjust="spacing" textLength="159" x="200" y="169.2369">Partie Rejetée (précondition)</text><path d="M428.41,161.7529 L427.72,162.4729 L424.94,165.2529 L424.13,164.4729 L423.41,163.7529 L422,165.1629 L422.72,165.8829 L424.22,167.3829 L424.91,168.1029 L425.63,167.3829 L429.13,163.8829 L429.85,163.1629 L428.41,161.7529 " fill="#000000" style="stroke:;stroke-width:0.0;stroke-dasharray:;"/><text fill="#000000" font-family="sans-serif" font-size="12" lengthAdjust="spacing" textLength="19" x="434" y="169.2369">Oui</text><text fill="#000000" font-family="sans-serif" font-size="12" lengthAdjust="spacing" textLength="177" x="591" y="169.2369">Valeur du critère de classement</text><text fill="#000000" font-family="sans-serif" font-size="12" lengthAdjust="spacing" textLength="7" x="778" y="169.2369">=</text><text fill="#000000" font-family="sans-serif" font-size="12" lengthAdjust="spacing" textLength="76" x="850" y="169.2369">Partie rejetée</text><text fill="#000000" font-family="sans-serif" font-size="12" lengthAdjust="spacing" textLength="17" x="26" y="185.581">2.1</text><text fill="#000000" font-family="sans-serif" font-size="12" lengthAdjust="spacing" textLength="130" x="53" y="185.581">no-size-category-pmfm</text><text fill="#000000" font-family="sans-serif" font-size="12" lengthAdjust="spacing" textLength="211" x="200" y="185.581">Catégorie commerciale non autorisée</text><path d="M423.41,178.097 L422,179.507 L422.72,180.227 L424.5,182.037 L422.72,183.817 L422,184.507 L423.41,185.947 L424.13,185.227 L425.94,183.417 L427.72,185.227 L428.41,185.947 L429.85,184.507 L429.13,183.817 L427.32,182.037 L429.13,180.227 L429.85,179.507 L428.41,178.097 L427.72,178.817 L425.94,180.597 L424.13,178.817 L423.41,178.097 " fill="#000000" style="stroke:;stroke-width:0.0;stroke-dasharray:;"/><text fill="#000000" font-family="sans-serif" font-size="12" lengthAdjust="spacing" textLength="23" x="434" y="185.581">Non</text><path d="M524.41,178.097 L523.72,178.817 L520.94,181.597 L520.13,180.817 L519.41,180.097 L518,181.507 L518.72,182.227 L520.22,183.727 L520.91,184.447 L521.63,183.727 L525.13,180.227 L525.85,179.507 L524.41,178.097 " fill="#000000" style="stroke:;stroke-width:0.0;stroke-dasharray:;"/><text fill="#000000" font-family="sans-serif" font-size="12" lengthAdjust="spacing" textLength="19" x="530" y="185.581">Oui</text><text fill="#000000" font-family="sans-serif" font-size="12" lengthAdjust="spacing" textLength="123" x="591" y="185.581">Critère de classement</text><text fill="#000000" font-family="sans-serif" font-size="12" lengthAdjust="spacing" textLength="10" x="778" y="185.581">!=</text><text fill="#000000" font-family="sans-serif" font-size="12" lengthAdjust="spacing" textLength="74" x="850" y="185.581">Catégorie UE</text><text fill="#000000" font-family="sans-serif" font-size="12" lengthAdjust="spacing" textLength="17" x="26" y="201.9251">2.2</text><text fill="#000000" font-family="sans-serif" font-size="12" lengthAdjust="spacing" textLength="122" x="53" y="201.9251">no-size-unli-cat-pmfm</text><text fill="#000000" font-family="sans-serif" font-size="12" lengthAdjust="spacing" textLength="208" x="200" y="201.9251">Catégorie de tri terrain non autorisée</text><path d="M423.41,194.4411 L422,195.8511 L422.72,196.5711 L424.5,198.3811 L422.72,200.1611 L422,200.8511 L423.41,202.2911 L424.13,201.5711 L425.94,199.7611 L427.72,201.5711 L428.41,202.2911 L429.85,200.8511 L429.13,200.1611 L427.32,198.3811 L429.13,196.5711 L429.85,195.8511 L428.41,194.4411 L427.72,195.1611 L425.94,196.9411 L424.13,195.1611 L423.41,194.4411 " fill="#000000" style="stroke:;stroke-width:0.0;stroke-dasharray:;"/><text fill="#000000" font-family="sans-serif" font-size="12" lengthAdjust="spacing" textLength="23" x="434" y="201.9251">Non</text><path d="M524.41,194.4411 L523.72,195.1611 L520.94,197.9411 L520.13,197.1611 L519.41,196.4411 L518,197.8511 L518.72,198.5711 L520.22,200.0711 L520.91,200.7911 L521.63,200.0711 L525.13,196.5711 L525.85,195.8511 L524.41,194.4411 " fill="#000000" style="stroke:;stroke-width:0.0;stroke-dasharray:;"/><text fill="#000000" font-family="sans-serif" font-size="12" lengthAdjust="spacing" textLength="19" x="530" y="201.9251">Oui</text><text fill="#000000" font-family="sans-serif" font-size="12" lengthAdjust="spacing" textLength="123" x="591" y="201.9251">Critère de classement</text><text fill="#000000" font-family="sans-serif" font-size="12" lengthAdjust="spacing" textLength="10" x="778" y="201.9251">!=</text><text fill="#000000" font-family="sans-serif" font-size="12" lengthAdjust="spacing" textLength="128" x="850" y="201.9251">Catégorie de tri terrain</text><rect fill="none" height="2" style="stroke:#888888;stroke-width:1.0;" width="2" x="9" y="114.5485"/><line style="stroke:#888888;stroke-width:1.0;" x1="10" x2="10" y1="117.5485" y2="131.8926"/><line style="stroke:#888888;stroke-width:1.0;" x1="10" x2="18" y1="131.8926" y2="131.8926"/><line style="stroke:#888888;stroke-width:1.0;" x1="10" x2="10" y1="117.5485" y2="148.2367"/><line style="stroke:#888888;stroke-width:1.0;" x1="10" x2="18" y1="148.2367" y2="148.2367"/><rect fill="none" height="2" style="stroke:#888888;stroke-width:1.0;" width="2" x="9" y="163.5809"/><line style="stroke:#888888;stroke-width:1.0;" x1="10" x2="10" y1="166.5809" y2="180.925"/><line style="stroke:#888888;stroke-width:1.0;" x1="10" x2="18" y1="180.925" y2="180.925"/><line style="stroke:#888888;stroke-width:1.0;" x1="10" x2="10" y1="166.5809" y2="197.2691"/><line style="stroke:#888888;stroke-width:1.0;" x1="10" x2="18" y1="197.2691" y2="197.2691"/><line style="stroke:#888888;stroke-width:1.0;" x1="6" x2="983" y1="91.0323" y2="91.0323"/><line style="stroke:#888888;stroke-width:1.0;" x1="6" x2="983" y1="107.3765" y2="107.3765"/><line style="stroke:#888888;stroke-width:1.0;" x1="6" x2="983" y1="123.7206" y2="123.7206"/><line style="stroke:#888888;stroke-width:1.0;" x1="6" x2="983" y1="140.0647" y2="140.0647"/><line style="stroke:#888888;stroke-width:1.0;" x1="6" x2="983" y1="156.4088" y2="156.4088"/><line style="stroke:#888888;stroke-width:1.0;" x1="6" x2="983" y1="172.7529" y2="172.7529"/><line style="stroke:#888888;stroke-width:1.0;" x1="6" x2="983" y1="189.097" y2="189.097"/><line style="stroke:#888888;stroke-width:1.0;" x1="6" x2="983" y1="205.4411" y2="205.4411"/><line style="stroke:#888888;stroke-width:1.0;" x1="6" x2="6" y1="91.0323" y2="205.4411"/><line style="stroke:#888888;stroke-width:1.0;" x1="48" x2="48" y1="91.0323" y2="205.4411"/><line style="stroke:#888888;stroke-width:1.0;" x1="195" x2="195" y1="91.0323" y2="205.4411"/><line style="stroke:#888888;stroke-width:1.0;" x1="416" x2="416" y1="91.0323" y2="205.4411"/><line style="stroke:#888888;stroke-width:1.0;" x1="512" x2="512" y1="91.0323" y2="205.4411"/><line style="stroke:#888888;stroke-width:1.0;" x1="586" x2="586" y1="91.0323" y2="205.4411"/><line style="stroke:#888888;stroke-width:1.0;" x1="773" x2="773" y1="91.0323" y2="205.4411"/><line style="stroke:#888888;stroke-width:1.0;" x1="845" x2="845" y1="91.0323" y2="205.4411"/><line style="stroke:#888888;stroke-width:1.0;" x1="983" x2="983" y1="91.0323" y2="205.4411"/><line style="stroke:#AAAAAA;stroke-width:1.0;" x1="6" x2="981" y1="210.9411" y2="210.9411"/><line style="stroke:#AAAAAA;stroke-width:1.0;" x1="982" x2="1141" y1="210.9411" y2="210.9411"/><rect fill="#EEEEEE" height="20.3441" rx="5" ry="5" style="stroke:#000000;stroke-width:2.5;" width="60" x="985.5" y="218.9411"/><text fill="#000000" font-family="sans-serif" font-size="12" lengthAdjust="spacing" textLength="44" x="993.5" y="233.7692">Annuler</text><rect fill="#EEEEEE" height="20.3441" rx="5" ry="5" style="stroke:#000000;stroke-width:2.5;" width="84" x="1052.5" y="218.9411"/><path d="M1075.91,226.2853 L1075.22,227.0053 L1072.44,229.7853 L1071.63,229.0053 L1070.91,228.2853 L1069.5,229.6953 L1070.22,230.4153 L1071.72,231.9153 L1072.41,232.6353 L1073.13,231.9153 L1076.63,228.4153 L1077.35,227.6953 L1075.91,226.2853 " fill="#000000" style="stroke:;stroke-width:0.0;stroke-dasharray:;"/><text fill="#000000" font-family="sans-serif" font-size="12" lengthAdjust="spacing" textLength="39" x="1081.5" y="233.7692">Valider</text></g></svg>