<?xml version="1.0" encoding="us-ascii" standalone="no"?><svg xmlns="http://www.w3.org/2000/svg" xmlns:xlink="http://www.w3.org/1999/xlink" contentStyleType="text/css" height="231px" preserveAspectRatio="none" style="width:1122px;height:231px;background:#FFFFFF;" version="1.1" viewBox="0 0 1122 231" width="1122px" zoomAndPan="magnify"><defs/><g><text fill="#000000" font-family="sans-serif" font-size="12" font-weight="bold" lengthAdjust="spacing" textLength="282" x="6" y="18.457">Liste de r&#232;gles "Arbre d'&#233;chantillonnage ObsMer"</text><line style="stroke:#AAAAAA;stroke-width:1.0;stroke-dasharray:1.0,2.0;" x1="6" x2="955" y1="26.5938" y2="26.5938"/><text fill="#000000" font-family="sans-serif" font-size="12" lengthAdjust="spacing" textLength="96" x="7" y="44.5508">Libell&#233; de la liste:</text><text fill="#000000" font-family="sans-serif" font-size="12" lengthAdjust="spacing" textLength="175" x="108" y="44.5508">Arbre d'&#233;chantillonnage ObsMer</text><line style="stroke:#000000;stroke-width:1.0;" x1="106" x2="349" y1="47.1875" y2="47.1875"/><line style="stroke:#000000;stroke-width:1.0;" x1="106" x2="106" y1="44.1875" y2="46.1875"/><line style="stroke:#000000;stroke-width:1.0;" x1="349" x2="349" y1="44.1875" y2="46.1875"/><text fill="#000000" font-family="sans-serif" font-size="12" lengthAdjust="spacing" textLength="118" x="7" y="65.6445">Type d'objet contr&#244;l&#233; :</text><rect fill="#EEEEEE" height="18.0938" style="stroke:#000000;stroke-width:1.0;" width="279" x="127" y="53.1875"/><text fill="#000000" font-family="sans-serif" font-size="12" lengthAdjust="spacing" textLength="174" x="129" y="67.6445">Lot avec crit&#232;res de classement</text><line style="stroke:#000000;stroke-width:1.0;" x1="395" x2="395" y1="53.1875" y2="71.2813"/><polygon fill="#000000" points="398,59.1875,404,59.1875,401,66.2813" style="stroke:#000000;stroke-width:1.0;"/><path d="M11,76.2813 L11,79.2813 L8,79.2813 L8,81.2813 L11,81.2813 L11,84.2813 L13,84.2813 L13,81.2813 L16,81.2813 L16,79.2813 L13,79.2813 L13,76.2813 L11,76.2813 " fill="#000000" style="stroke:;stroke-width:0.0;stroke-dasharray:;"/><path d="M23,76.2813 C22.45,76.2813 22,76.7313 22,77.2813 L21,77.2813 C20.45,77.2813 20,77.7313 20,78.2813 L27,78.2813 C27,77.7313 26.55,77.2813 26,77.2813 L25,77.2813 C25,76.7313 24.55,76.2813 24,76.2813 L23,76.2813 M21,79.2813 L21,84.0913 C21,84.2013 21.08,84.2813 21.19,84.2813 L25.82,84.2813 C25.93,84.2813 26.01,84.2013 26.01,84.0913 L26.01,79.2813 L25.01,79.2813 L25.01,82.7813 C25.01,83.0613 24.79,83.2813 24.51,83.2813 C24.23,83.2813 24.01,83.0613 24.01,82.7813 L24.01,79.2813 L23.01,79.2813 L23.01,82.7813 C23.01,83.0613 22.79,83.2813 22.51,83.2813 C22.23,83.2813 22.01,83.0613 22.01,82.7813 L22.01,79.2813 L21.01,79.2813 " fill="#000000" style="stroke:;stroke-width:0.0;stroke-dasharray:;"/><text fill="#000000" font-family="sans-serif" font-size="12" font-weight="bold" lengthAdjust="spacing" textLength="7" x="16" y="99.7383">#</text><text fill="#000000" font-family="sans-serif" font-size="12" font-weight="bold" lengthAdjust="spacing" textLength="29" x="53" y="99.7383">Code</text><text fill="#000000" font-family="sans-serif" font-size="12" font-weight="bold" lengthAdjust="spacing" textLength="37" x="198" y="99.7383">Libell&#233;</text><text fill="#000000" font-family="sans-serif" font-size="12" font-weight="bold" lengthAdjust="spacing" textLength="82" x="416" y="99.7383">Pr&#233;condition ?</text><text fill="#000000" font-family="sans-serif" font-size="12" font-weight="bold" lengthAdjust="spacing" textLength="60" x="508" y="99.7383">Bloquant ?</text><text fill="#000000" font-family="sans-serif" font-size="12" font-weight="bold" lengthAdjust="spacing" textLength="92" x="578" y="99.7383">Attribut contr&#244;l&#233;</text><text fill="#000000" font-family="sans-serif" font-size="12" font-weight="bold" lengthAdjust="spacing" textLength="58" x="762" y="99.7383">Op&#233;rateur</text><text fill="#000000" font-family="sans-serif" font-size="12" font-weight="bold" lengthAdjust="spacing" textLength="37" x="830" y="99.7383">Valeur</text><text fill="#000000" font-family="sans-serif" font-size="12" lengthAdjust="spacing" textLength="7" x="16" y="114.832">1</text><text fill="#000000" font-family="sans-serif" font-size="12" lengthAdjust="spacing" textLength="41" x="53" y="114.832">landing</text><text fill="#000000" font-family="sans-serif" font-size="12" lengthAdjust="spacing" textLength="161" x="198" y="114.832">Partie Retenue (pr&#233;condition)</text><path d="M423.41,106.4688 L422.72,107.1888 L419.94,109.9688 L419.13,109.1888 L418.41,108.4688 L417,109.8788 L417.72,110.5988 L419.22,112.0988 L419.91,112.8188 L420.63,112.0988 L424.13,108.5988 L424.85,107.8788 L423.41,106.4688 " fill="#000000" style="stroke:;stroke-width:0.0;stroke-dasharray:;"/><text fill="#000000" font-family="sans-serif" font-size="12" lengthAdjust="spacing" textLength="19" x="429" y="114.832">Oui</text><text fill="#000000" font-family="sans-serif" font-size="12" lengthAdjust="spacing" textLength="174" x="578" y="114.832">Valeur du crit&#232;re de classement</text><text fill="#000000" font-family="sans-serif" font-size="12" lengthAdjust="spacing" textLength="7" x="762" y="114.832">=</text><text fill="#000000" font-family="sans-serif" font-size="12" lengthAdjust="spacing" textLength="77" x="830" y="114.832">Partie retenue</text><text fill="#000000" font-family="sans-serif" font-size="12" lengthAdjust="spacing" textLength="17" x="26" y="129.9258">1.1</text><text fill="#000000" font-family="sans-serif" font-size="12" lengthAdjust="spacing" textLength="126" x="53" y="129.9258">no-batch-sorting-pmfm</text><text fill="#000000" font-family="sans-serif" font-size="12" lengthAdjust="spacing" textLength="151" x="198" y="129.9258">Vrac/Hors vrac non autoris&#233;</text><path d="M418.41,121.5625 L417,122.9725 L417.72,123.6925 L419.5,125.5025 L417.72,127.2825 L417,127.9725 L418.41,129.4125 L419.13,128.6925 L420.94,126.8825 L422.72,128.6925 L423.41,129.4125 L424.85,127.9725 L424.13,127.2825 L422.32,125.5025 L424.13,123.6925 L424.85,122.9725 L423.41,121.5625 L422.72,122.2825 L420.94,124.0625 L419.13,122.2825 L418.41,121.5625 " fill="#000000" style="stroke:;stroke-width:0.0;stroke-dasharray:;"/><text fill="#000000" font-family="sans-serif" font-size="12" lengthAdjust="spacing" textLength="23" x="429" y="129.9258">Non</text><path d="M515.41,121.5625 L514.72,122.2825 L511.94,125.0625 L511.13,124.2825 L510.41,123.5625 L509,124.9725 L509.72,125.6925 L511.22,127.1925 L511.91,127.9125 L512.63,127.1925 L516.13,123.6925 L516.85,122.9725 L515.41,121.5625 " fill="#000000" style="stroke:;stroke-width:0.0;stroke-dasharray:;"/><text fill="#000000" font-family="sans-serif" font-size="12" lengthAdjust="spacing" textLength="19" x="521" y="129.9258">Oui</text><text fill="#000000" font-family="sans-serif" font-size="12" lengthAdjust="spacing" textLength="122" x="578" y="129.9258">Crit&#232;re de classement</text><text fill="#000000" font-family="sans-serif" font-size="12" lengthAdjust="spacing" textLength="10" x="762" y="129.9258">!=</text><text fill="#000000" font-family="sans-serif" font-size="12" lengthAdjust="spacing" textLength="98" x="830" y="129.9258">Vrac ou Hors Vrac</text><text fill="#000000" font-family="sans-serif" font-size="12" lengthAdjust="spacing" textLength="17" x="26" y="145.0195">1.2</text><text fill="#000000" font-family="sans-serif" font-size="12" lengthAdjust="spacing" textLength="135" x="53" y="145.0195">no-discard-weight-pmfm</text><text fill="#000000" font-family="sans-serif" font-size="12" lengthAdjust="spacing" textLength="148" x="198" y="145.0195">Poids du rejet non autoris&#233;</text><path d="M418.41,136.6563 L417,138.0663 L417.72,138.7863 L419.5,140.5963 L417.72,142.3763 L417,143.0663 L418.41,144.5063 L419.13,143.7863 L420.94,141.9763 L422.72,143.7863 L423.41,144.5063 L424.85,143.0663 L424.13,142.3763 L422.32,140.5963 L424.13,138.7863 L424.85,138.0663 L423.41,136.6563 L422.72,137.3763 L420.94,139.1563 L419.13,137.3763 L418.41,136.6563 " fill="#000000" style="stroke:;stroke-width:0.0;stroke-dasharray:;"/><text fill="#000000" font-family="sans-serif" font-size="12" lengthAdjust="spacing" textLength="23" x="429" y="145.0195">Non</text><path d="M515.41,136.6563 L514.72,137.3763 L511.94,140.1563 L511.13,139.3763 L510.41,138.6563 L509,140.0663 L509.72,140.7863 L511.22,142.2863 L511.91,143.0063 L512.63,142.2863 L516.13,138.7863 L516.85,138.0663 L515.41,136.6563 " fill="#000000" style="stroke:;stroke-width:0.0;stroke-dasharray:;"/><text fill="#000000" font-family="sans-serif" font-size="12" lengthAdjust="spacing" textLength="19" x="521" y="145.0195">Oui</text><text fill="#000000" font-family="sans-serif" font-size="12" lengthAdjust="spacing" textLength="122" x="578" y="145.0195">Crit&#232;re de classement</text><text fill="#000000" font-family="sans-serif" font-size="12" lengthAdjust="spacing" textLength="10" x="762" y="145.0195">!=</text><text fill="#000000" font-family="sans-serif" font-size="12" lengthAdjust="spacing" textLength="76" x="830" y="145.0195">Poids du rejet</text><text fill="#000000" font-family="sans-serif" font-size="12" lengthAdjust="spacing" textLength="7" x="16" y="160.1133">2</text><text fill="#000000" font-family="sans-serif" font-size="12" lengthAdjust="spacing" textLength="41" x="53" y="160.1133">discard</text><text fill="#000000" font-family="sans-serif" font-size="12" lengthAdjust="spacing" textLength="157" x="198" y="160.1133">Partie Rejet&#233;e (pr&#233;condition)</text><path d="M423.41,151.75 L422.72,152.47 L419.94,155.25 L419.13,154.47 L418.41,153.75 L417,155.16 L417.72,155.88 L419.22,157.38 L419.91,158.1 L420.63,157.38 L424.13,153.88 L424.85,153.16 L423.41,151.75 " fill="#000000" style="stroke:;stroke-width:0.0;stroke-dasharray:;"/><text fill="#000000" font-family="sans-serif" font-size="12" lengthAdjust="spacing" textLength="19" x="429" y="160.1133">Oui</text><text fill="#000000" font-family="sans-serif" font-size="12" lengthAdjust="spacing" textLength="174" x="578" y="160.1133">Valeur du crit&#232;re de classement</text><text fill="#000000" font-family="sans-serif" font-size="12" lengthAdjust="spacing" textLength="7" x="762" y="160.1133">=</text><text fill="#000000" font-family="sans-serif" font-size="12" lengthAdjust="spacing" textLength="73" x="830" y="160.1133">Partie rejet&#233;e</text><text fill="#000000" font-family="sans-serif" font-size="12" lengthAdjust="spacing" textLength="17" x="26" y="175.207">2.1</text><text fill="#000000" font-family="sans-serif" font-size="12" lengthAdjust="spacing" textLength="126" x="53" y="175.207">no-size-category-pmfm</text><text fill="#000000" font-family="sans-serif" font-size="12" lengthAdjust="spacing" textLength="208" x="198" y="175.207">Cat&#233;gorie commerciale non autoris&#233;e</text><path d="M418.41,166.8438 L417,168.2538 L417.72,168.9738 L419.5,170.7838 L417.72,172.5638 L417,173.2538 L418.41,174.6938 L419.13,173.9738 L420.94,172.1638 L422.72,173.9738 L423.41,174.6938 L424.85,173.2538 L424.13,172.5638 L422.32,170.7838 L424.13,168.9738 L424.85,168.2538 L423.41,166.8438 L422.72,167.5638 L420.94,169.3438 L419.13,167.5638 L418.41,166.8438 " fill="#000000" style="stroke:;stroke-width:0.0;stroke-dasharray:;"/><text fill="#000000" font-family="sans-serif" font-size="12" lengthAdjust="spacing" textLength="23" x="429" y="175.207">Non</text><path d="M515.41,166.8438 L514.72,167.5638 L511.94,170.3438 L511.13,169.5638 L510.41,168.8438 L509,170.2538 L509.72,170.9738 L511.22,172.4738 L511.91,173.1938 L512.63,172.4738 L516.13,168.9738 L516.85,168.2538 L515.41,166.8438 " fill="#000000" style="stroke:;stroke-width:0.0;stroke-dasharray:;"/><text fill="#000000" font-family="sans-serif" font-size="12" lengthAdjust="spacing" textLength="19" x="521" y="175.207">Oui</text><text fill="#000000" font-family="sans-serif" font-size="12" lengthAdjust="spacing" textLength="122" x="578" y="175.207">Crit&#232;re de classement</text><text fill="#000000" font-family="sans-serif" font-size="12" lengthAdjust="spacing" textLength="10" x="762" y="175.207">!=</text><text fill="#000000" font-family="sans-serif" font-size="12" lengthAdjust="spacing" textLength="74" x="830" y="175.207">Cat&#233;gorie UE</text><text fill="#000000" font-family="sans-serif" font-size="12" lengthAdjust="spacing" textLength="17" x="26" y="190.3008">2.2</text><text fill="#000000" font-family="sans-serif" font-size="12" lengthAdjust="spacing" textLength="120" x="53" y="190.3008">no-size-unli-cat-pmfm</text><text fill="#000000" font-family="sans-serif" font-size="12" lengthAdjust="spacing" textLength="201" x="198" y="190.3008">Cat&#233;gorie de tri terrain non autoris&#233;e</text><path d="M418.41,181.9375 L417,183.3475 L417.72,184.0675 L419.5,185.8775 L417.72,187.6575 L417,188.3475 L418.41,189.7875 L419.13,189.0675 L420.94,187.2575 L422.72,189.0675 L423.41,189.7875 L424.85,188.3475 L424.13,187.6575 L422.32,185.8775 L424.13,184.0675 L424.85,183.3475 L423.41,181.9375 L422.72,182.6575 L420.94,184.4375 L419.13,182.6575 L418.41,181.9375 " fill="#000000" style="stroke:;stroke-width:0.0;stroke-dasharray:;"/><text fill="#000000" font-family="sans-serif" font-size="12" lengthAdjust="spacing" textLength="23" x="429" y="190.3008">Non</text><path d="M515.41,181.9375 L514.72,182.6575 L511.94,185.4375 L511.13,184.6575 L510.41,183.9375 L509,185.3475 L509.72,186.0675 L511.22,187.5675 L511.91,188.2875 L512.63,187.5675 L516.13,184.0675 L516.85,183.3475 L515.41,181.9375 " fill="#000000" style="stroke:;stroke-width:0.0;stroke-dasharray:;"/><text fill="#000000" font-family="sans-serif" font-size="12" lengthAdjust="spacing" textLength="19" x="521" y="190.3008">Oui</text><text fill="#000000" font-family="sans-serif" font-size="12" lengthAdjust="spacing" textLength="122" x="578" y="190.3008">Crit&#232;re de classement</text><text fill="#000000" font-family="sans-serif" font-size="12" lengthAdjust="spacing" textLength="10" x="762" y="190.3008">!=</text><text fill="#000000" font-family="sans-serif" font-size="12" lengthAdjust="spacing" textLength="122" x="830" y="190.3008">Cat&#233;gorie de tri terrain</text><rect fill="none" height="2" style="stroke:#888888;stroke-width:1.0;" width="2" x="9" y="108.9219"/><line style="stroke:#888888;stroke-width:1.0;" x1="10" x2="10" y1="111.9219" y2="125.0156"/><line style="stroke:#888888;stroke-width:1.0;" x1="10" x2="18" y1="125.0156" y2="125.0156"/><line style="stroke:#888888;stroke-width:1.0;" x1="10" x2="10" y1="111.9219" y2="140.1094"/><line style="stroke:#888888;stroke-width:1.0;" x1="10" x2="18" y1="140.1094" y2="140.1094"/><rect fill="none" height="2" style="stroke:#888888;stroke-width:1.0;" width="2" x="9" y="154.2031"/><line style="stroke:#888888;stroke-width:1.0;" x1="10" x2="10" y1="157.2031" y2="170.2969"/><line style="stroke:#888888;stroke-width:1.0;" x1="10" x2="18" y1="170.2969" y2="170.2969"/><line style="stroke:#888888;stroke-width:1.0;" x1="10" x2="10" y1="157.2031" y2="185.3906"/><line style="stroke:#888888;stroke-width:1.0;" x1="10" x2="18" y1="185.3906" y2="185.3906"/><line style="stroke:#888888;stroke-width:1.0;" x1="6" x2="957" y1="87.2813" y2="87.2813"/><line style="stroke:#888888;stroke-width:1.0;" x1="6" x2="957" y1="102.375" y2="102.375"/><line style="stroke:#888888;stroke-width:1.0;" x1="6" x2="957" y1="117.4688" y2="117.4688"/><line style="stroke:#888888;stroke-width:1.0;" x1="6" x2="957" y1="132.5625" y2="132.5625"/><line style="stroke:#888888;stroke-width:1.0;" x1="6" x2="957" y1="147.6563" y2="147.6563"/><line style="stroke:#888888;stroke-width:1.0;" x1="6" x2="957" y1="162.75" y2="162.75"/><line style="stroke:#888888;stroke-width:1.0;" x1="6" x2="957" y1="177.8438" y2="177.8438"/><line style="stroke:#888888;stroke-width:1.0;" x1="6" x2="957" y1="192.9375" y2="192.9375"/><line style="stroke:#888888;stroke-width:1.0;" x1="6" x2="6" y1="87.2813" y2="192.9375"/><line style="stroke:#888888;stroke-width:1.0;" x1="48" x2="48" y1="87.2813" y2="192.9375"/><line style="stroke:#888888;stroke-width:1.0;" x1="193" x2="193" y1="87.2813" y2="192.9375"/><line style="stroke:#888888;stroke-width:1.0;" x1="411" x2="411" y1="87.2813" y2="192.9375"/><line style="stroke:#888888;stroke-width:1.0;" x1="503" x2="503" y1="87.2813" y2="192.9375"/><line style="stroke:#888888;stroke-width:1.0;" x1="573" x2="573" y1="87.2813" y2="192.9375"/><line style="stroke:#888888;stroke-width:1.0;" x1="757" x2="757" y1="87.2813" y2="192.9375"/><line style="stroke:#888888;stroke-width:1.0;" x1="825" x2="825" y1="87.2813" y2="192.9375"/><line style="stroke:#888888;stroke-width:1.0;" x1="957" x2="957" y1="87.2813" y2="192.9375"/><line style="stroke:#AAAAAA;stroke-width:1.0;" x1="6" x2="955" y1="198.4375" y2="198.4375"/><line style="stroke:#AAAAAA;stroke-width:1.0;" x1="956" x2="1115" y1="198.4375" y2="198.4375"/><rect fill="#EEEEEE" height="19.0938" rx="5" ry="5" style="stroke:#000000;stroke-width:2.5;" width="60" x="959.5" y="206.4375"/><text fill="#000000" font-family="sans-serif" font-size="12" lengthAdjust="spacing" textLength="42" x="968.5" y="220.8945">Annuler</text><rect fill="#EEEEEE" height="19.0938" rx="5" ry="5" style="stroke:#000000;stroke-width:2.5;" width="84" x="1026.5" y="206.4375"/><path d="M1050.41,212.5313 L1049.72,213.2513 L1046.94,216.0313 L1046.13,215.2513 L1045.41,214.5313 L1044,215.9413 L1044.72,216.6613 L1046.22,218.1613 L1046.91,218.8813 L1047.63,218.1613 L1051.13,214.6613 L1051.85,213.9413 L1050.41,212.5313 " fill="#000000" style="stroke:;stroke-width:0.0;stroke-dasharray:;"/><text fill="#000000" font-family="sans-serif" font-size="12" lengthAdjust="spacing" textLength="38" x="1056" y="220.8945">Valider</text></g></svg>