<?xml version="1.0" encoding="us-ascii" standalone="no"?><svg xmlns="http://www.w3.org/2000/svg" xmlns:xlink="http://www.w3.org/1999/xlink" contentStyleType="text/css" height="283px" preserveAspectRatio="none" style="width:1005px;height:283px;background:#FFFFFF;" version="1.1" viewBox="0 0 1005 283" width="1005px" zoomAndPan="magnify"><defs><filter height="1" id="bmscjc9rjh6zi0" width="1" x="0" y="0"><feFlood flood-color="#DDDDFF" result="flood"/><feComposite in="SourceGraphic" in2="flood" operator="over"/></filter></defs><g><text fill="#000000" font-family="sans-serif" font-size="12" lengthAdjust="spacing" textLength="39" x="8" y="18.9492">D&#233;tails</text><line style="stroke:#000000;stroke-width:1.0;" x1="6" x2="6" y1="6" y2="21.9609"/><line style="stroke:#000000;stroke-width:1.0;" x1="6" x2="50" y1="6" y2="6"/><line style="stroke:#000000;stroke-width:1.0;" x1="50" x2="50" y1="6" y2="21.9609"/><line style="stroke:#000000;stroke-width:1.0;" x1="50" x2="60" y1="21.9609" y2="21.9609"/><text fill="#000000" font-family="sans-serif" font-size="12" font-weight="bold" lengthAdjust="spacing" textLength="45" x="65" y="18.9492">Capture</text><line style="stroke:#000000;stroke-width:1.0;" x1="60" x2="60" y1="6" y2="21.9609"/><line style="stroke:#000000;stroke-width:1.0;" x1="60" x2="113" y1="6" y2="6"/><line style="stroke:#000000;stroke-width:1.0;" x1="113" x2="113" y1="6" y2="21.9609"/><line style="stroke:#000000;stroke-width:1.0;" x1="113" x2="123" y1="21.9609" y2="21.9609"/><text fill="#000000" font-family="sans-serif" font-size="12" lengthAdjust="spacing" textLength="44" x="17" y="37.9102">Capture</text><text fill="#000000" font-family="sans-serif" font-size="12" lengthAdjust="spacing" textLength="77" x="27" y="53.8711">Partie retenue</text><text fill="#000000" filter="url(#bmscjc9rjh6zi0)" font-family="sans-serif" font-size="12" lengthAdjust="spacing" textLength="31" x="37" y="69.832">Appat</text><text fill="#0000FF" font-family="sans-serif" font-size="12" font-style="italic" lengthAdjust="spacing" textLength="13" x="199" y="69.832">[2]</text><text fill="#000000" font-family="sans-serif" font-size="12" lengthAdjust="spacing" textLength="138" x="37" y="85.793">Consommation humaine</text><text fill="#0000FF" font-family="sans-serif" font-size="12" font-style="italic" lengthAdjust="spacing" textLength="13" x="199" y="85.793">[1]</text><text fill="#000000" font-family="sans-serif" font-size="12" lengthAdjust="spacing" textLength="46" x="37" y="101.7539">Godaille</text><text fill="#0000FF" font-family="sans-serif" font-size="12" font-style="italic" lengthAdjust="spacing" textLength="13" x="199" y="101.7539">[1]</text><text fill="#000000" font-family="sans-serif" font-size="12" lengthAdjust="spacing" textLength="126" x="37" y="117.7148">Obligation &#224; d&#233;barquer</text><text fill="#0000FF" font-family="sans-serif" font-size="12" font-style="italic" lengthAdjust="spacing" textLength="13" x="199" y="117.7148">[2]</text><text fill="#000000" font-family="sans-serif" font-size="12" lengthAdjust="spacing" textLength="131" x="27" y="133.6758">Partie non retenue, Vrac</text><text fill="#000000" font-family="sans-serif" font-size="12" lengthAdjust="spacing" textLength="162" x="27" y="149.6367">Partie non retenue, Hors-Vrac</text><rect fill="none" height="2" style="stroke:#888888;stroke-width:1.0;" width="2" x="10" y="31.9414"/><rect fill="none" height="2" style="stroke:#888888;stroke-width:1.0;" width="2" x="20" y="47.9023"/><line style="stroke:#888888;stroke-width:1.0;" x1="11" x2="11" y1="34.9414" y2="48.9023"/><line style="stroke:#888888;stroke-width:1.0;" x1="11" x2="19" y1="48.9023" y2="48.9023"/><line style="stroke:#888888;stroke-width:1.0;" x1="21" x2="21" y1="50.9023" y2="64.8633"/><line style="stroke:#888888;stroke-width:1.0;" x1="21" x2="29" y1="64.8633" y2="64.8633"/><line style="stroke:#888888;stroke-width:1.0;" x1="21" x2="21" y1="50.9023" y2="80.8242"/><line style="stroke:#888888;stroke-width:1.0;" x1="21" x2="29" y1="80.8242" y2="80.8242"/><line style="stroke:#888888;stroke-width:1.0;" x1="21" x2="21" y1="50.9023" y2="96.7852"/><line style="stroke:#888888;stroke-width:1.0;" x1="21" x2="29" y1="96.7852" y2="96.7852"/><line style="stroke:#888888;stroke-width:1.0;" x1="21" x2="21" y1="50.9023" y2="112.7461"/><line style="stroke:#888888;stroke-width:1.0;" x1="21" x2="29" y1="112.7461" y2="112.7461"/><line style="stroke:#888888;stroke-width:1.0;" x1="11" x2="11" y1="34.9414" y2="128.707"/><line style="stroke:#888888;stroke-width:1.0;" x1="11" x2="19" y1="128.707" y2="128.707"/><line style="stroke:#888888;stroke-width:1.0;" x1="11" x2="11" y1="34.9414" y2="144.668"/><line style="stroke:#888888;stroke-width:1.0;" x1="11" x2="19" y1="144.668" y2="144.668"/><line style="stroke:#AAAAAA;stroke-width:1.0;" x1="7" x2="215" y1="212.0313" y2="212.0313"/><rect fill="#EEEEEE" height="19.9609" rx="5" ry="5" style="stroke:#000000;stroke-width:2.5;" width="100" x="10.5" y="220.0313"/><text fill="#000000" font-family="sans-serif" font-size="12" lengthAdjust="spacing" textLength="51" x="36.5" y="234.9805">Contr&#244;ler</text><rect fill="#EEEEEE" height="19.9609" rx="5" ry="5" style="stroke:#000000;stroke-width:2.5;" width="36" x="117.5" y="220.0313"/><text fill="#000000" font-family="sans-serif" font-size="12" font-weight="bold" lengthAdjust="spacing" textLength="14" x="128.5" y="234.9805">&lt;&lt;</text><line style="stroke:#000000;stroke-width:1.0;" x1="6" x2="215" y1="23.9609" y2="23.9609"/><line style="stroke:#000000;stroke-width:1.0;" x1="6" x2="215" y1="244.4922" y2="244.4922"/><line style="stroke:#000000;stroke-width:1.0;" x1="6" x2="6" y1="23.9609" y2="153.6484"/><line style="stroke:#000000;stroke-width:1.0;" x1="215" x2="215" y1="153.6484" y2="171.6094"/><line style="stroke:#000000;stroke-width:1.0;" x1="215" x2="215" y1="23.9609" y2="153.6484"/><line style="stroke:#000000;stroke-width:1.0;" x1="6" x2="6" y1="215.5313" y2="244.4922"/><line style="stroke:#000000;stroke-width:1.0;" x1="6" x2="6" y1="207.5313" y2="215.5313"/><line style="stroke:#000000;stroke-width:1.0;" x1="215" x2="215" y1="215.5313" y2="244.4922"/><line style="stroke:#000000;stroke-width:1.0;" x1="6" x2="6" y1="189.5703" y2="207.5313"/><line style="stroke:#000000;stroke-width:1.0;" x1="215" x2="215" y1="207.5313" y2="215.5313"/><line style="stroke:#000000;stroke-width:1.0;" x1="6" x2="6" y1="171.6094" y2="189.5703"/><line style="stroke:#000000;stroke-width:1.0;" x1="215" x2="215" y1="189.5703" y2="207.5313"/><line style="stroke:#000000;stroke-width:1.0;" x1="6" x2="6" y1="153.6484" y2="171.6094"/><line style="stroke:#000000;stroke-width:1.0;" x1="215" x2="215" y1="171.6094" y2="189.5703"/><rect fill="#EEEEEE" height="19.9609" rx="5" ry="5" style="stroke:#000000;stroke-width:2.5;" width="60" x="233.5" y="28.4609"/><text fill="#000000" font-family="sans-serif" font-size="12" lengthAdjust="spacing" textLength="44" x="241.5" y="43.4102">Capture</text><text fill="#000000" font-family="sans-serif" font-size="12" lengthAdjust="spacing" textLength="3" x="298" y="38.9102">/</text><rect fill="#EEEEEE" height="19.9609" rx="5" ry="5" style="stroke:#000000;stroke-width:2.5;" width="116" x="305.5" y="28.4609"/><text fill="#000000" font-family="sans-serif" font-size="12" lengthAdjust="spacing" textLength="77" x="325" y="43.4102">Partie retenue</text><rect fill="#EEEEEE" height="19.9609" rx="5" ry="5" style="stroke:#000000;stroke-width:2.5;" width="44" x="428.5" y="28.4609"/><text fill="#000000" font-family="sans-serif" font-size="12" font-weight="bold" lengthAdjust="spacing" textLength="33" x="434" y="43.4102">Appat</text><text fill="#000000" font-family="sans-serif" font-size="12" lengthAdjust="spacing" textLength="15" x="477" y="38.9102">(2)</text><rect fill="#EEEEEE" height="12" rx="5" ry="5" style="stroke:#000000;stroke-width:2.5;" width="20" x="642.5" y="29.4609"/><path d="M652.5,31.4609 L648.5,35.4609 L652.5,39.4609 L654,37.9609 L651.5,35.4609 L654,32.9609 L652.5,31.4609 " fill="#000000" style="stroke:;stroke-width:0.0;stroke-dasharray:;"/><rect fill="#EEEEEE" height="12" rx="5" ry="5" style="stroke:#000000;stroke-width:2.5;" width="20" x="669.5" y="29.4609"/><path d="M677,31.4609 L675.5,32.9609 L678,35.4609 L675.5,37.9609 L677,39.4609 L681,35.4609 L677,31.4609 " fill="#000000" style="stroke:;stroke-width:0.0;stroke-dasharray:;"/><text fill="#000000" font-family="sans-serif" font-size="12" lengthAdjust="spacing" textLength="93" x="231" y="67.8711">Poids total (kg)* :</text><text fill="#000000" font-family="sans-serif" font-size="12" lengthAdjust="spacing" textLength="7" x="329" y="67.8711">0</text><line style="stroke:#000000;stroke-width:1.0;" x1="327" x2="378" y1="70.8828" y2="70.8828"/><line style="stroke:#000000;stroke-width:1.0;" x1="327" x2="327" y1="67.8828" y2="69.8828"/><line style="stroke:#000000;stroke-width:1.0;" x1="378" x2="378" y1="67.8828" y2="69.8828"/><text fill="#000000" font-family="sans-serif" font-size="12" lengthAdjust="spacing" textLength="49" x="662" y="67.8711">Estim&#233; ?</text><rect fill="none" height="10" style="stroke:#000000;stroke-width:1.5;" width="10" x="644" y="57.9023"/><text fill="#000000" font-family="sans-serif" font-size="12" lengthAdjust="spacing" textLength="61" x="231" y="89.832">Coef. &#233;ch. :</text><text fill="#000000" font-family="sans-serif" font-size="12" lengthAdjust="spacing" textLength="17" x="297" y="89.832">1/1</text><line style="stroke:#000000;stroke-width:1.0;" x1="295" x2="362" y1="92.8438" y2="92.8438"/><line style="stroke:#000000;stroke-width:1.0;" x1="295" x2="295" y1="89.8438" y2="91.8438"/><line style="stroke:#000000;stroke-width:1.0;" x1="362" x2="362" y1="89.8438" y2="91.8438"/><text fill="#000000" font-family="sans-serif" font-size="12" lengthAdjust="spacing" textLength="107" x="391" y="89.832">Poids &#233;chant (kg)* :</text><text fill="#000000" font-family="sans-serif" font-size="12" lengthAdjust="spacing" textLength="3" x="503" y="89.832">&#160;</text><line style="stroke:#000000;stroke-width:1.0;" x1="501" x2="544" y1="92.8438" y2="92.8438"/><line style="stroke:#000000;stroke-width:1.0;" x1="501" x2="501" y1="89.8438" y2="91.8438"/><line style="stroke:#000000;stroke-width:1.0;" x1="544" x2="544" y1="89.8438" y2="91.8438"/><text fill="#000000" font-family="sans-serif" font-size="12" lengthAdjust="spacing" textLength="190" x="251" y="111.793">Inventaire exhaustif des esp&#232;ces ?</text><rect fill="none" height="10" style="stroke:#000000;stroke-width:1.5;" width="10" x="233" y="101.8242"/><line style="stroke:#AAAAAA;stroke-width:1.0;" x1="231" x2="442" y1="120.3047" y2="120.3047"/><rect fill="#EEEEEE" height="12" rx="5" ry="5" style="stroke:#000000;stroke-width:2.5;" width="36" x="243.5" y="130.3047"/><path d="M260.5,132.3047 L260.5,135.3047 L257.5,135.3047 L257.5,137.3047 L260.5,137.3047 L260.5,140.3047 L262.5,140.3047 L262.5,137.3047 L265.5,137.3047 L265.5,135.3047 L262.5,135.3047 L262.5,132.3047 L260.5,132.3047 " fill="#000000" style="stroke:;stroke-width:0.0;stroke-dasharray:;"/><rect fill="#EEEEEE" height="12" rx="5" ry="5" style="stroke:#000000;stroke-width:2.5;" width="36" x="286.5" y="130.3047"/><path d="M303.5,132.3047 C302.95,132.3047 302.5,132.7547 302.5,133.3047 L301.5,133.3047 C300.95,133.3047 300.5,133.7547 300.5,134.3047 L307.5,134.3047 C307.5,133.7547 307.05,133.3047 306.5,133.3047 L305.5,133.3047 C305.5,132.7547 305.05,132.3047 304.5,132.3047 L303.5,132.3047 M301.5,135.3047 L301.5,140.1147 C301.5,140.2247 301.58,140.3047 301.69,140.3047 L306.32,140.3047 C306.43,140.3047 306.51,140.2247 306.51,140.1147 L306.51,135.3047 L305.51,135.3047 L305.51,138.8047 C305.51,139.0847 305.29,139.3047 305.01,139.3047 C304.73,139.3047 304.51,139.0847 304.51,138.8047 L304.51,135.3047 L303.51,135.3047 L303.51,138.8047 C303.51,139.0847 303.29,139.3047 303.01,139.3047 C302.73,139.3047 302.51,139.0847 302.51,138.8047 L302.51,135.3047 L301.51,135.3047 " fill="#000000" style="stroke:;stroke-width:0.0;stroke-dasharray:;"/><text fill="#000000" font-family="sans-serif" font-size="12" lengthAdjust="spacing" textLength="7" x="231" y="160.7539">#</text><path d="M243.97,152.7656 L241,155.7656 L243,155.7656 L243,160.7656 L245,160.7656 L245,155.7656 L247,155.7656 L243.97,152.7656 " fill="#000000" style="stroke:;stroke-width:0.0;stroke-dasharray:;"/><text fill="#000000" font-family="sans-serif" font-size="12" lengthAdjust="spacing" textLength="3" x="250" y="160.7539">&#160;</text><text fill="#000000" font-family="sans-serif" font-size="12" font-weight="bold" lengthAdjust="spacing" textLength="120" x="253" y="160.7539">Esp&#232;ce commerciale</text><text fill="#000000" font-family="sans-serif" font-size="12" font-weight="bold" lengthAdjust="spacing" textLength="73" x="458" y="160.7539">Pr&#233;sentation</text><text fill="#000000" font-family="sans-serif" font-size="12" font-weight="bold" lengthAdjust="spacing" textLength="22" x="556" y="160.7539">&#201;tat</text><text fill="#000000" font-family="sans-serif" font-size="12" font-weight="bold" lengthAdjust="spacing" textLength="85" x="630" y="160.7539">Poids total (kg)</text><text fill="#000000" font-family="sans-serif" font-size="12" font-weight="bold" lengthAdjust="spacing" textLength="70" x="717" y="160.7539">Taux &#233;chant</text><text fill="#000000" font-family="sans-serif" font-size="12" font-weight="bold" lengthAdjust="spacing" textLength="77" x="789" y="160.7539">Poids &#233;chant.</text><text fill="#000000" font-family="sans-serif" font-size="12" font-weight="bold" lengthAdjust="spacing" textLength="89" x="868" y="160.7539">Nb indiv &#233;chant.</text><path d="M960,147.8047 L960,148.8047 L968,148.8047 L968,147.8047 L960,147.8047 M960,150.7747 L960,151.7747 L968,151.7747 L968,150.7747 L960,150.7747 M960,153.7747 L960,154.7747 L968,154.7747 L968,153.7747 L960,153.7747 " fill="#000000" style="stroke:;stroke-width:0.0;stroke-dasharray:;"/><text fill="#000000" font-family="sans-serif" font-size="12" lengthAdjust="spacing" textLength="7" x="231" y="178.7148">1</text><rect fill="#EEEEEE" height="18.9609" style="stroke:#000000;stroke-width:1.0;" width="175" x="240" y="165.7656"/><text fill="#000000" font-family="sans-serif" font-size="12" lengthAdjust="spacing" textLength="82" x="242" y="180.7148">MNZ- Baudroie</text><line style="stroke:#000000;stroke-width:1.0;" x1="404" x2="404" y1="165.7656" y2="184.7266"/><polygon fill="#000000" points="407,171.7656,413,171.7656,410,179.7266" style="stroke:#000000;stroke-width:1.0;"/><rect fill="#EEEEEE" height="18.9609" style="stroke:#000000;stroke-width:1.0;" width="95" x="458" y="165.7656"/><text fill="#000000" font-family="sans-serif" font-size="12" lengthAdjust="spacing" textLength="32" x="460" y="180.7148">Entier</text><line style="stroke:#000000;stroke-width:1.0;" x1="542" x2="542" y1="165.7656" y2="184.7266"/><polygon fill="#000000" points="545,171.7656,551,171.7656,548,179.7266" style="stroke:#000000;stroke-width:1.0;"/><rect fill="#EEEEEE" height="18.9609" style="stroke:#000000;stroke-width:1.0;" width="71" x="556" y="165.7656"/><text fill="#000000" font-family="sans-serif" font-size="12" lengthAdjust="spacing" textLength="28" x="558" y="180.7148">Frais</text><line style="stroke:#000000;stroke-width:1.0;" x1="616" x2="616" y1="165.7656" y2="184.7266"/><polygon fill="#000000" points="619,171.7656,625,171.7656,622,179.7266" style="stroke:#000000;stroke-width:1.0;"/><text fill="#000000" font-family="sans-serif" font-size="12" lengthAdjust="spacing" textLength="14" x="630" y="178.7148">50</text><text fill="#000000" font-family="sans-serif" font-size="12" lengthAdjust="spacing" textLength="14" x="789" y="178.7148">10</text><text fill="#000000" font-family="sans-serif" font-size="12" lengthAdjust="spacing" textLength="7" x="868" y="178.7148">4</text><path d="M960,170.7266 L960,177.7266 L968,177.7266 L968,176.7266 L961,176.7266 L961,170.7266 L960,170.7266 M965,170.7266 L965,175.7266 L967,175.7266 L967,170.7266 L965,170.7266 M962,172.7266 L962,175.7266 L964,175.7266 L964,172.7266 L962,172.7266 " fill="#000000" style="stroke:;stroke-width:0.0;stroke-dasharray:;"/><text fill="#000000" font-family="sans-serif" font-size="12" lengthAdjust="spacing" textLength="3" x="969" y="178.7148">&#160;</text><path d="M973.09,170.7266 C973.03,170.7266 973,170.7666 973,170.8166 L973,176.6266 C973,176.6766 973.04,176.7166 973.09,176.7166 L979,176.7166 L981,178.7166 L981,170.8066 C981,170.7466 980.96,170.7166 980.91,170.7166 L973.1,170.7166 " fill="#000000" style="stroke:;stroke-width:0.0;stroke-dasharray:;"/><text fill="#000000" font-family="sans-serif" font-size="12" lengthAdjust="spacing" textLength="3" x="982" y="178.7148">&#160;</text><path d="M986,170.7266 L986,178.7266 L994,178.7266 L994,170.7266 L986,170.7266 M987,171.7266 L993,171.7266 L993,174.7266 L992,173.7266 L991,174.7266 L993,176.7266 L993,177.7266 L992,177.7266 L988,173.7266 L987,174.7266 L987,171.7266 " fill="#000000" style="stroke:;stroke-width:0.0;stroke-dasharray:;"/><text fill="#000000" font-family="sans-serif" font-size="12" lengthAdjust="spacing" textLength="7" x="231" y="200.6758">2</text><rect fill="#EEEEEE" height="18.9609" style="stroke:#000000;stroke-width:1.0;" width="215" x="240" y="187.7266"/><text fill="#000000" font-family="sans-serif" font-size="12" lengthAdjust="spacing" textLength="109" x="242" y="202.6758">BSS - Bar europ&#233;en</text><line style="stroke:#000000;stroke-width:1.0;" x1="444" x2="444" y1="187.7266" y2="206.6875"/><polygon fill="#000000" points="447,193.7266,453,193.7266,450,201.6875" style="stroke:#000000;stroke-width:1.0;"/><rect fill="#EEEEEE" height="18.9609" style="stroke:#000000;stroke-width:1.0;" width="95" x="458" y="187.7266"/><text fill="#000000" font-family="sans-serif" font-size="12" lengthAdjust="spacing" textLength="47" x="460" y="202.6758">Evisc&#233;r&#233;</text><line style="stroke:#000000;stroke-width:1.0;" x1="542" x2="542" y1="187.7266" y2="206.6875"/><polygon fill="#000000" points="545,193.7266,551,193.7266,548,201.6875" style="stroke:#000000;stroke-width:1.0;"/><rect fill="#EEEEEE" height="18.9609" style="stroke:#000000;stroke-width:1.0;" width="71" x="556" y="187.7266"/><text fill="#000000" font-family="sans-serif" font-size="12" lengthAdjust="spacing" textLength="28" x="558" y="202.6758">Frais</text><line style="stroke:#000000;stroke-width:1.0;" x1="616" x2="616" y1="187.7266" y2="206.6875"/><polygon fill="#000000" points="619,193.7266,625,193.7266,622,201.6875" style="stroke:#000000;stroke-width:1.0;"/><text fill="#000000" font-family="sans-serif" font-size="12" lengthAdjust="spacing" textLength="14" x="630" y="200.6758">50</text><text fill="#000000" font-family="sans-serif" font-size="12" lengthAdjust="spacing" textLength="14" x="789" y="200.6758">10</text><text fill="#000000" font-family="sans-serif" font-size="12" lengthAdjust="spacing" textLength="7" x="868" y="200.6758">4</text><path d="M960,192.6875 L960,199.6875 L968,199.6875 L968,198.6875 L961,198.6875 L961,192.6875 L960,192.6875 M965,192.6875 L965,197.6875 L967,197.6875 L967,192.6875 L965,192.6875 M962,194.6875 L962,197.6875 L964,197.6875 L964,194.6875 L962,194.6875 " fill="#000000" style="stroke:;stroke-width:0.0;stroke-dasharray:;"/><text fill="#000000" font-family="sans-serif" font-size="12" lengthAdjust="spacing" textLength="3" x="969" y="200.6758">&#160;</text><path d="M973.09,192.6875 C973.03,192.6875 973,192.7275 973,192.7775 L973,198.5875 C973,198.6375 973.04,198.6775 973.09,198.6775 L979,198.6775 L981,200.6775 L981,192.7675 C981,192.7075 980.96,192.6775 980.91,192.6775 L973.1,192.6775 " fill="#000000" style="stroke:;stroke-width:0.0;stroke-dasharray:;"/><text fill="#000000" font-family="sans-serif" font-size="12" lengthAdjust="spacing" textLength="3" x="982" y="200.6758">&#160;</text><path d="M986,192.6875 L986,200.6875 L994,200.6875 L994,192.6875 L986,192.6875 M987,193.6875 L993,193.6875 L993,196.6875 L992,195.6875 L991,196.6875 L993,198.6875 L993,199.6875 L992,199.6875 L988,195.6875 L987,196.6875 L987,193.6875 " fill="#000000" style="stroke:;stroke-width:0.0;stroke-dasharray:;"/><line style="stroke:#000000;stroke-width:1.0;" x1="230" x2="239" y1="125.8047" y2="125.8047"/><line style="stroke:#000000;stroke-width:1.0;" x1="629" x2="716" y1="208.6875" y2="208.6875"/><line style="stroke:#000000;stroke-width:1.0;" x1="239" x2="457" y1="125.8047" y2="125.8047"/><line style="stroke:#000000;stroke-width:1.0;" x1="716" x2="788" y1="208.6875" y2="208.6875"/><line style="stroke:#000000;stroke-width:1.0;" x1="457" x2="555" y1="125.8047" y2="125.8047"/><line style="stroke:#000000;stroke-width:1.0;" x1="788" x2="867" y1="208.6875" y2="208.6875"/><line style="stroke:#000000;stroke-width:1.0;" x1="555" x2="629" y1="125.8047" y2="125.8047"/><line style="stroke:#000000;stroke-width:1.0;" x1="867" x2="958" y1="208.6875" y2="208.6875"/><line style="stroke:#000000;stroke-width:1.0;" x1="629" x2="716" y1="125.8047" y2="125.8047"/><line style="stroke:#000000;stroke-width:1.0;" x1="958" x2="996" y1="208.6875" y2="208.6875"/><line style="stroke:#000000;stroke-width:1.0;" x1="716" x2="788" y1="125.8047" y2="125.8047"/><line style="stroke:#000000;stroke-width:1.0;" x1="788" x2="867" y1="125.8047" y2="125.8047"/><line style="stroke:#000000;stroke-width:1.0;" x1="867" x2="958" y1="125.8047" y2="125.8047"/><line style="stroke:#000000;stroke-width:1.0;" x1="958" x2="996" y1="125.8047" y2="125.8047"/><line style="stroke:#000000;stroke-width:1.0;" x1="230" x2="239" y1="186.7266" y2="186.7266"/><line style="stroke:#000000;stroke-width:1.0;" x1="239" x2="457" y1="186.7266" y2="186.7266"/><line style="stroke:#000000;stroke-width:1.0;" x1="457" x2="555" y1="186.7266" y2="186.7266"/><line style="stroke:#000000;stroke-width:1.0;" x1="555" x2="629" y1="186.7266" y2="186.7266"/><line style="stroke:#000000;stroke-width:1.0;" x1="629" x2="716" y1="186.7266" y2="186.7266"/><line style="stroke:#000000;stroke-width:1.0;" x1="716" x2="788" y1="186.7266" y2="186.7266"/><line style="stroke:#000000;stroke-width:1.0;" x1="788" x2="867" y1="186.7266" y2="186.7266"/><line style="stroke:#000000;stroke-width:1.0;" x1="867" x2="958" y1="186.7266" y2="186.7266"/><line style="stroke:#000000;stroke-width:1.0;" x1="958" x2="996" y1="186.7266" y2="186.7266"/><line style="stroke:#000000;stroke-width:1.0;" x1="230" x2="239" y1="164.7656" y2="164.7656"/><line style="stroke:#000000;stroke-width:1.0;" x1="239" x2="457" y1="164.7656" y2="164.7656"/><line style="stroke:#000000;stroke-width:1.0;" x1="457" x2="555" y1="164.7656" y2="164.7656"/><line style="stroke:#000000;stroke-width:1.0;" x1="555" x2="629" y1="164.7656" y2="164.7656"/><line style="stroke:#000000;stroke-width:1.0;" x1="629" x2="716" y1="164.7656" y2="164.7656"/><line style="stroke:#000000;stroke-width:1.0;" x1="716" x2="788" y1="164.7656" y2="164.7656"/><line style="stroke:#000000;stroke-width:1.0;" x1="788" x2="867" y1="164.7656" y2="164.7656"/><line style="stroke:#000000;stroke-width:1.0;" x1="867" x2="958" y1="164.7656" y2="164.7656"/><line style="stroke:#000000;stroke-width:1.0;" x1="958" x2="996" y1="164.7656" y2="164.7656"/><line style="stroke:#000000;stroke-width:1.0;" x1="230" x2="239" y1="146.8047" y2="146.8047"/><line style="stroke:#000000;stroke-width:1.0;" x1="239" x2="457" y1="146.8047" y2="146.8047"/><line style="stroke:#000000;stroke-width:1.0;" x1="457" x2="555" y1="146.8047" y2="146.8047"/><line style="stroke:#000000;stroke-width:1.0;" x1="555" x2="629" y1="146.8047" y2="146.8047"/><line style="stroke:#000000;stroke-width:1.0;" x1="629" x2="716" y1="146.8047" y2="146.8047"/><line style="stroke:#000000;stroke-width:1.0;" x1="716" x2="788" y1="146.8047" y2="146.8047"/><line style="stroke:#000000;stroke-width:1.0;" x1="788" x2="867" y1="146.8047" y2="146.8047"/><line style="stroke:#000000;stroke-width:1.0;" x1="867" x2="958" y1="146.8047" y2="146.8047"/><line style="stroke:#000000;stroke-width:1.0;" x1="958" x2="996" y1="146.8047" y2="146.8047"/><line style="stroke:#000000;stroke-width:1.0;" x1="230" x2="239" y1="208.6875" y2="208.6875"/><line style="stroke:#000000;stroke-width:1.0;" x1="239" x2="457" y1="208.6875" y2="208.6875"/><line style="stroke:#000000;stroke-width:1.0;" x1="457" x2="555" y1="208.6875" y2="208.6875"/><line style="stroke:#000000;stroke-width:1.0;" x1="555" x2="629" y1="208.6875" y2="208.6875"/><line style="stroke:#000000;stroke-width:1.0;" x1="230" x2="230" y1="125.8047" y2="146.8047"/><line style="stroke:#000000;stroke-width:1.0;" x1="239" x2="239" y1="125.8047" y2="146.8047"/><line style="stroke:#000000;stroke-width:1.0;" x1="457" x2="457" y1="125.8047" y2="146.8047"/><line style="stroke:#000000;stroke-width:1.0;" x1="555" x2="555" y1="125.8047" y2="146.8047"/><line style="stroke:#000000;stroke-width:1.0;" x1="629" x2="629" y1="125.8047" y2="146.8047"/><line style="stroke:#000000;stroke-width:1.0;" x1="716" x2="716" y1="125.8047" y2="146.8047"/><line style="stroke:#000000;stroke-width:1.0;" x1="788" x2="788" y1="125.8047" y2="146.8047"/><line style="stroke:#000000;stroke-width:1.0;" x1="867" x2="867" y1="125.8047" y2="146.8047"/><line style="stroke:#000000;stroke-width:1.0;" x1="958" x2="958" y1="125.8047" y2="146.8047"/><line style="stroke:#000000;stroke-width:1.0;" x1="996" x2="996" y1="125.8047" y2="146.8047"/><line style="stroke:#000000;stroke-width:1.0;" x1="230" x2="230" y1="186.7266" y2="208.6875"/><line style="stroke:#000000;stroke-width:1.0;" x1="239" x2="239" y1="186.7266" y2="208.6875"/><line style="stroke:#000000;stroke-width:1.0;" x1="457" x2="457" y1="186.7266" y2="208.6875"/><line style="stroke:#000000;stroke-width:1.0;" x1="555" x2="555" y1="186.7266" y2="208.6875"/><line style="stroke:#000000;stroke-width:1.0;" x1="629" x2="629" y1="186.7266" y2="208.6875"/><line style="stroke:#000000;stroke-width:1.0;" x1="716" x2="716" y1="186.7266" y2="208.6875"/><line style="stroke:#000000;stroke-width:1.0;" x1="788" x2="788" y1="186.7266" y2="208.6875"/><line style="stroke:#000000;stroke-width:1.0;" x1="867" x2="867" y1="186.7266" y2="208.6875"/><line style="stroke:#000000;stroke-width:1.0;" x1="958" x2="958" y1="186.7266" y2="208.6875"/><line style="stroke:#000000;stroke-width:1.0;" x1="996" x2="996" y1="186.7266" y2="208.6875"/><line style="stroke:#000000;stroke-width:1.0;" x1="230" x2="230" y1="164.7656" y2="186.7266"/><line style="stroke:#000000;stroke-width:1.0;" x1="239" x2="239" y1="164.7656" y2="186.7266"/><line style="stroke:#000000;stroke-width:1.0;" x1="457" x2="457" y1="164.7656" y2="186.7266"/><line style="stroke:#000000;stroke-width:1.0;" x1="555" x2="555" y1="164.7656" y2="186.7266"/><line style="stroke:#000000;stroke-width:1.0;" x1="629" x2="629" y1="164.7656" y2="186.7266"/><line style="stroke:#000000;stroke-width:1.0;" x1="716" x2="716" y1="164.7656" y2="186.7266"/><line style="stroke:#000000;stroke-width:1.0;" x1="788" x2="788" y1="164.7656" y2="186.7266"/><line style="stroke:#000000;stroke-width:1.0;" x1="867" x2="867" y1="164.7656" y2="186.7266"/><line style="stroke:#000000;stroke-width:1.0;" x1="958" x2="958" y1="164.7656" y2="186.7266"/><line style="stroke:#000000;stroke-width:1.0;" x1="996" x2="996" y1="164.7656" y2="186.7266"/><line style="stroke:#000000;stroke-width:1.0;" x1="230" x2="230" y1="146.8047" y2="164.7656"/><line style="stroke:#000000;stroke-width:1.0;" x1="239" x2="239" y1="146.8047" y2="164.7656"/><line style="stroke:#000000;stroke-width:1.0;" x1="457" x2="457" y1="146.8047" y2="164.7656"/><line style="stroke:#000000;stroke-width:1.0;" x1="555" x2="555" y1="146.8047" y2="164.7656"/><line style="stroke:#000000;stroke-width:1.0;" x1="629" x2="629" y1="146.8047" y2="164.7656"/><line style="stroke:#000000;stroke-width:1.0;" x1="716" x2="716" y1="146.8047" y2="164.7656"/><line style="stroke:#000000;stroke-width:1.0;" x1="788" x2="788" y1="146.8047" y2="164.7656"/><line style="stroke:#000000;stroke-width:1.0;" x1="867" x2="867" y1="146.8047" y2="164.7656"/><line style="stroke:#000000;stroke-width:1.0;" x1="958" x2="958" y1="146.8047" y2="164.7656"/><line style="stroke:#000000;stroke-width:1.0;" x1="996" x2="996" y1="146.8047" y2="164.7656"/><line style="stroke:#AAAAAA;stroke-width:1.0;" x1="6" x2="216" y1="249.9922" y2="249.9922"/><line style="stroke:#AAAAAA;stroke-width:1.0;" x1="217" x2="228" y1="249.9922" y2="249.9922"/><line style="stroke:#AAAAAA;stroke-width:1.0;" x1="229" x2="998" y1="249.9922" y2="249.9922"/><rect fill="#EEEEEE" height="19.9609" rx="5" ry="5" style="stroke:#000000;stroke-width:2.5;" width="52" x="9.5" y="257.9922"/><text fill="#000000" font-family="sans-serif" font-size="12" lengthAdjust="spacing" textLength="40" x="15.5" y="272.9414">Fermer</text><rect fill="#EEEEEE" height="19.9609" rx="5" ry="5" style="stroke:#000000;stroke-width:2.5;" width="92" x="68.5" y="257.9922"/><text fill="#000000" font-family="sans-serif" font-size="12" lengthAdjust="spacing" textLength="70" x="79.5" y="272.9414">Sauvegarder</text><!--SRC=[nLNTRjDA4BxtKuoe5BNqE8tTmeKL6KwJ5YWjHAIdIASAqiRU9AlOksPsDnIrUG3UWajoVzx0BtPcRQSaY9-B8t6iU6FFp3V_Ctwg3KEZMMQyMm_WzW3wvSemaMcuW-uuXXuhZ4KEIyVTfmDkBztfhlqrzvwm3mDI9pWWDrpQ3SO-QMF9FDhfzq_ZFuk26MT0nDr4PGgZSMPvV1sEDW4z9RNASsQ4aZ2pEHEIVmSKR86UgPIyptuj-7gSYMcjk_mCQRaQCtnlEVxSgtLyac1DZ7_05RBa5oBF5Mf_BRUiXDlVdhvVfRVHTDrj9JEUp7E6yzZbmc3vJyPnH95Tkz9qkp1QQriIiKrt3Rw5wwOmJlZ00RRBKkaW5LKTHdUm6-ur2dxtxNoj0bsWadx69oQkdRkdePZE776vzEhW1aga6emoB8FT-NJl8KI4U00TnttmFyNn7-uV_QZA8pZHHkJb2fwie-yfFcb3kKfcxIRku23uMUHGvyiXc3HR6QjXQysLlHTomINDFqqylvanI-Oda78DN1VbbuGUdbJIVjsi3boZTzO3uBhPTIBrQAl8h8wXwTYMGQPdxdNvesHiwDXn0znYYEg3RsOYcVj65R7h-vFQ4qXeDt1C1ADXhvVL0CkLTkvNKrsHoa-ctZJ4_QPlAZEK7s9TCdjpdw5DwORMhcclnY1aAXPRv5PE4nLlU1uGzTt5gxzzE6OsHKLZLr_l70DE90qYth-U8XEwUdxKgVrfrtyGTBxgl8EZoXRjA9zCew5CjAe4IEFhzvOXTnIHiodVz2LqDew7Gt3E872BgYXNN6vxj10wALUKlD_WKxMjNC_uFg6RmwlQxvHZtkot8RCBFcMOklUbj_IUSfbMNobla57c_xeuXmL7xUeSjCDEUDWEWjstF8KXBo0uXB0JXO-ZmqFedGmlmGdiURlF1kUWbKLgdbHeWs9iNQViUMTimU2DfShaF8BN1PTd_PTh0bLi8MWJkRYyiwkBhmAFZ_nZOSWaaYzmTU7r-OJPp10YKQcGqmXwHH0-2hrp9gUMyX311BsU8iNuCOBJD_y2]--></g></svg>