<?xml version="1.0" encoding="UTF-8" standalone="no"?><svg xmlns="http://www.w3.org/2000/svg" xmlns:xlink="http://www.w3.org/1999/xlink" contentStyleType="text/css" height="256px" preserveAspectRatio="none" style="width:614px;height:256px;background:#FFFFFF;" version="1.1" viewBox="0 0 614 256" width="614px" zoomAndPan="magnify"><defs><filter height="1" id="be66wvojz22qd0" width="1" x="0" y="0"><feFlood flood-color="#DDDDDD" result="flood"/><feComposite in="SourceGraphic" in2="flood" operator="over"/></filter></defs><g><text fill="#000000" font-family="sans-serif" font-size="12" lengthAdjust="spacing" textLength="39" x="8" y="18.8281">Détails</text><line style="stroke:#000000;stroke-width:1.0;" x1="6" x2="6" y1="6" y2="22.3441"/><line style="stroke:#000000;stroke-width:1.0;" x1="6" x2="50" y1="6" y2="6"/><line style="stroke:#000000;stroke-width:1.0;" x1="50" x2="50" y1="6" y2="22.3441"/><line style="stroke:#000000;stroke-width:1.0;" x1="50" x2="60" y1="22.3441" y2="22.3441"/><text fill="#000000" font-family="sans-serif" font-size="12" font-weight="bold" lengthAdjust="spacing" textLength="48" x="65" y="18.8281">Capture</text><line style="stroke:#000000;stroke-width:1.0;" x1="60" x2="60" y1="6" y2="22.3441"/><line style="stroke:#000000;stroke-width:1.0;" x1="60" x2="116" y1="6" y2="6"/><line style="stroke:#000000;stroke-width:1.0;" x1="116" x2="116" y1="6" y2="22.3441"/><line style="stroke:#000000;stroke-width:1.0;" x1="116" x2="126" y1="22.3441" y2="22.3441"/><text fill="#000000" filter="url(#be66wvojz22qd0)" font-family="sans-serif" font-size="12" lengthAdjust="spacing" textLength="45" x="17" y="38.1722">Capture</text><text fill="#000000" font-family="sans-serif" font-size="12" lengthAdjust="spacing" textLength="80" x="27" y="54.5163">Partie retenue</text><text fill="#808080" font-family="sans-serif" font-size="12" lengthAdjust="spacing" textLength="15" x="184" y="54.5163">[0]</text><text fill="#000000" font-family="sans-serif" font-size="12" lengthAdjust="spacing" textLength="137" x="37" y="70.8604">Consommation humaine</text><text fill="#0000FF" font-family="sans-serif" font-size="12" lengthAdjust="spacing" textLength="15" x="184" y="70.8604">[2]</text><text fill="#000000" font-family="sans-serif" font-size="12" lengthAdjust="spacing" textLength="50" x="37" y="87.2045">Industrie</text><text fill="#0000FF" font-family="sans-serif" font-size="12" lengthAdjust="spacing" textLength="15" x="184" y="87.2045">[2]</text><text fill="#000000" font-family="sans-serif" font-size="12" lengthAdjust="spacing" textLength="107" x="27" y="103.5487">Partie rejetée, Vrac</text><text fill="#808080" font-family="sans-serif" font-size="12" lengthAdjust="spacing" textLength="15" x="184" y="103.5487">[0]</text><text fill="#000000" font-family="sans-serif" font-size="12" lengthAdjust="spacing" textLength="138" x="27" y="119.8928">Partie rejetée, Hors-Vrac</text><text fill="#808080" font-family="sans-serif" font-size="12" lengthAdjust="spacing" textLength="15" x="184" y="119.8928">[0]</text><rect fill="none" height="2" style="stroke:#888888;stroke-width:1.0;" width="2" x="10" y="32.5162"/><rect fill="none" height="2" style="stroke:#888888;stroke-width:1.0;" width="2" x="20" y="48.8603"/><line style="stroke:#888888;stroke-width:1.0;" x1="11" x2="11" y1="35.5162" y2="49.8603"/><line style="stroke:#888888;stroke-width:1.0;" x1="11" x2="19" y1="49.8603" y2="49.8603"/><line style="stroke:#888888;stroke-width:1.0;" x1="21" x2="21" y1="51.8603" y2="66.2044"/><line style="stroke:#888888;stroke-width:1.0;" x1="21" x2="29" y1="66.2044" y2="66.2044"/><line style="stroke:#888888;stroke-width:1.0;" x1="21" x2="21" y1="51.8603" y2="82.5485"/><line style="stroke:#888888;stroke-width:1.0;" x1="21" x2="29" y1="82.5485" y2="82.5485"/><line style="stroke:#888888;stroke-width:1.0;" x1="11" x2="11" y1="35.5162" y2="98.8926"/><line style="stroke:#888888;stroke-width:1.0;" x1="11" x2="19" y1="98.8926" y2="98.8926"/><line style="stroke:#888888;stroke-width:1.0;" x1="11" x2="11" y1="35.5162" y2="115.2367"/><line style="stroke:#888888;stroke-width:1.0;" x1="11" x2="19" y1="115.2367" y2="115.2367"/><line style="stroke:#AAAAAA;stroke-width:1.0;" x1="7" x2="202" y1="183.9411" y2="183.9411"/><rect fill="#EEEEEE" height="20.3441" rx="5" ry="5" style="stroke:#000000;stroke-width:2.5;" width="100" x="10.5" y="191.9411"/><text fill="#000000" font-family="sans-serif" font-size="12" lengthAdjust="spacing" textLength="53" x="35.5" y="206.7692">Contrôler</text><rect fill="#EEEEEE" height="20.3441" rx="5" ry="5" style="stroke:#000000;stroke-width:2.5;" width="36" x="117.5" y="191.9411"/><text fill="#000000" font-family="sans-serif" font-size="12" lengthAdjust="spacing" textLength="14" x="128.5" y="206.7692">&lt;&lt;</text><line style="stroke:#000000;stroke-width:1.0;" x1="6" x2="202" y1="24.3441" y2="24.3441"/><line style="stroke:#000000;stroke-width:1.0;" x1="6" x2="202" y1="216.7853" y2="216.7853"/><line style="stroke:#000000;stroke-width:1.0;" x1="6" x2="6" y1="24.3441" y2="124.4088"/><line style="stroke:#000000;stroke-width:1.0;" x1="202" x2="202" y1="124.4088" y2="142.7529"/><line style="stroke:#000000;stroke-width:1.0;" x1="202" x2="202" y1="24.3441" y2="124.4088"/><line style="stroke:#000000;stroke-width:1.0;" x1="6" x2="6" y1="187.4411" y2="216.7853"/><line style="stroke:#000000;stroke-width:1.0;" x1="6" x2="6" y1="179.4411" y2="187.4411"/><line style="stroke:#000000;stroke-width:1.0;" x1="202" x2="202" y1="187.4411" y2="216.7853"/><line style="stroke:#000000;stroke-width:1.0;" x1="6" x2="6" y1="161.097" y2="179.4411"/><line style="stroke:#000000;stroke-width:1.0;" x1="202" x2="202" y1="179.4411" y2="187.4411"/><line style="stroke:#000000;stroke-width:1.0;" x1="6" x2="6" y1="142.7529" y2="161.097"/><line style="stroke:#000000;stroke-width:1.0;" x1="202" x2="202" y1="161.097" y2="179.4411"/><line style="stroke:#000000;stroke-width:1.0;" x1="6" x2="6" y1="124.4088" y2="142.7529"/><line style="stroke:#000000;stroke-width:1.0;" x1="202" x2="202" y1="142.7529" y2="161.097"/><rect fill="#EEEEEE" height="20.3441" rx="5" ry="5" style="stroke:#000000;stroke-width:2.5;" width="60" x="220.5" y="28.8441"/><text fill="#000000" font-family="sans-serif" font-size="12" font-weight="bold" lengthAdjust="spacing" textLength="48" x="226.5" y="43.6722">Capture</text><text fill="#000000" font-family="sans-serif" font-size="12" lengthAdjust="spacing" textLength="4" x="285" y="39.1722">/</text><rect fill="#EEEEEE" height="20.3441" rx="5" ry="5" style="stroke:#000000;stroke-width:2.5;" width="28" x="293.5" y="28.8441"/><text fill="#000000" font-family="sans-serif" font-size="12" lengthAdjust="spacing" textLength="9" x="303" y="43.6722">...</text><text fill="#000000" font-family="sans-serif" font-size="12" lengthAdjust="spacing" textLength="170" x="218" y="68.5163">Capture (toutes espèces) (kg) :</text><text fill="#808080" font-family="sans-serif" font-size="12" lengthAdjust="spacing" textLength="128" x="393" y="68.5163">Poids total capture (kg)</text><line style="stroke:#000000;stroke-width:1.0;" x1="391" x2="602" y1="72.0323" y2="72.0323"/><line style="stroke:#000000;stroke-width:1.0;" x1="391" x2="391" y1="69.0323" y2="71.0323"/><line style="stroke:#000000;stroke-width:1.0;" x1="602" x2="602" y1="69.0323" y2="71.0323"/><line style="stroke:#AAAAAA;stroke-width:1.0;" x1="6" x2="203" y1="222.2853" y2="222.2853"/><line style="stroke:#AAAAAA;stroke-width:1.0;" x1="204" x2="215" y1="222.2853" y2="222.2853"/><line style="stroke:#AAAAAA;stroke-width:1.0;" x1="216" x2="607" y1="222.2853" y2="222.2853"/><rect fill="#EEEEEE" height="20.3441" rx="5" ry="5" style="stroke:#000000;stroke-width:2.5;" width="52" x="9.5" y="230.2853"/><text fill="#000000" font-family="sans-serif" font-size="12" lengthAdjust="spacing" textLength="41" x="15" y="245.1133">Fermer</text><rect fill="#EEEEEE" height="20.3441" rx="5" ry="5" style="stroke:#000000;stroke-width:2.5;" width="92" x="68.5" y="230.2853"/><text fill="#000000" font-family="sans-serif" font-size="12" lengthAdjust="spacing" textLength="72" x="78.5" y="245.1133">Sauvegarder</text></g></svg>