<?xml version="1.0" encoding="us-ascii" standalone="no"?><svg xmlns="http://www.w3.org/2000/svg" xmlns:xlink="http://www.w3.org/1999/xlink" contentStyleType="text/css" height="283px" preserveAspectRatio="none" style="width:893px;height:283px;background:#FFFFFF;" version="1.1" viewBox="0 0 893 283" width="893px" zoomAndPan="magnify"><defs/><g><text fill="#000000" font-family="sans-serif" font-size="12" lengthAdjust="spacing" textLength="39" x="8" y="18.9492">D&#233;tails</text><line style="stroke:#000000;stroke-width:1.0;" x1="6" x2="6" y1="6" y2="21.9609"/><line style="stroke:#000000;stroke-width:1.0;" x1="6" x2="50" y1="6" y2="6"/><line style="stroke:#000000;stroke-width:1.0;" x1="50" x2="50" y1="6" y2="21.9609"/><line style="stroke:#000000;stroke-width:1.0;" x1="50" x2="60" y1="21.9609" y2="21.9609"/><text fill="#000000" font-family="sans-serif" font-size="12" font-weight="bold" lengthAdjust="spacing" textLength="45" x="65" y="18.9492">Capture</text><line style="stroke:#000000;stroke-width:1.0;" x1="60" x2="60" y1="6" y2="21.9609"/><line style="stroke:#000000;stroke-width:1.0;" x1="60" x2="113" y1="6" y2="6"/><line style="stroke:#000000;stroke-width:1.0;" x1="113" x2="113" y1="6" y2="21.9609"/><line style="stroke:#000000;stroke-width:1.0;" x1="113" x2="123" y1="21.9609" y2="21.9609"/><text fill="#000000" font-family="sans-serif" font-size="12" lengthAdjust="spacing" textLength="44" x="17" y="37.9102">Capture</text><text fill="#0000FF" font-family="sans-serif" font-size="12" font-style="italic" lengthAdjust="spacing" textLength="13" x="241" y="37.9102">[8]</text><text fill="#000000" font-family="sans-serif" font-size="12" lengthAdjust="spacing" textLength="77" x="27" y="53.8711">Partie retenue</text><text fill="#0000FF" font-family="sans-serif" font-size="12" font-style="italic" lengthAdjust="spacing" textLength="13" x="241" y="53.8711">[8]</text><text fill="#000000" font-family="sans-serif" font-size="12" lengthAdjust="spacing" textLength="131" x="27" y="69.832">Partie non retenue, Vrac</text><text fill="#000000" font-family="sans-serif" font-size="12" lengthAdjust="spacing" textLength="13" x="241" y="69.832">[0]</text><text fill="#000000" font-family="sans-serif" font-size="12" lengthAdjust="spacing" textLength="42" x="37" y="85.793">D&#233;taill&#233;</text><text fill="#000000" font-family="sans-serif" font-size="12" lengthAdjust="spacing" textLength="47" x="47" y="101.7539">Animaux</text><text fill="#000000" font-family="sans-serif" font-size="12" lengthAdjust="spacing" textLength="13" x="241" y="101.7539">[0]</text><text fill="#000000" font-family="sans-serif" font-size="12" lengthAdjust="spacing" textLength="184" x="47" y="117.7148">Ecosyst&#232;mes Marins Vuln&#233;rables</text><text fill="#000000" font-family="sans-serif" font-size="12" lengthAdjust="spacing" textLength="13" x="241" y="117.7148">[0]</text><text fill="#000000" font-family="sans-serif" font-size="12" lengthAdjust="spacing" textLength="66" x="37" y="133.6758">Non d&#233;taill&#233;</text><text fill="#000000" font-family="sans-serif" font-size="12" lengthAdjust="spacing" textLength="162" x="27" y="149.6367">Partie non retenue, Hors-Vrac</text><text fill="#808080" font-family="sans-serif" font-size="12" lengthAdjust="spacing" textLength="13" x="241" y="149.6367">[0]</text><rect fill="none" height="2" style="stroke:#888888;stroke-width:1.0;" width="2" x="10" y="31.9414"/><line style="stroke:#888888;stroke-width:1.0;" x1="11" x2="11" y1="34.9414" y2="48.9023"/><line style="stroke:#888888;stroke-width:1.0;" x1="11" x2="19" y1="48.9023" y2="48.9023"/><rect fill="none" height="2" style="stroke:#888888;stroke-width:1.0;" width="2" x="20" y="63.8633"/><line style="stroke:#888888;stroke-width:1.0;" x1="11" x2="11" y1="34.9414" y2="64.8633"/><line style="stroke:#888888;stroke-width:1.0;" x1="11" x2="19" y1="64.8633" y2="64.8633"/><rect fill="none" height="2" style="stroke:#888888;stroke-width:1.0;" width="2" x="30" y="79.8242"/><line style="stroke:#888888;stroke-width:1.0;" x1="21" x2="21" y1="66.8633" y2="80.8242"/><line style="stroke:#888888;stroke-width:1.0;" x1="21" x2="29" y1="80.8242" y2="80.8242"/><line style="stroke:#888888;stroke-width:1.0;" x1="31" x2="31" y1="82.8242" y2="96.7852"/><line style="stroke:#888888;stroke-width:1.0;" x1="31" x2="39" y1="96.7852" y2="96.7852"/><line style="stroke:#888888;stroke-width:1.0;" x1="31" x2="31" y1="82.8242" y2="112.7461"/><line style="stroke:#888888;stroke-width:1.0;" x1="31" x2="39" y1="112.7461" y2="112.7461"/><line style="stroke:#888888;stroke-width:1.0;" x1="21" x2="21" y1="66.8633" y2="128.707"/><line style="stroke:#888888;stroke-width:1.0;" x1="21" x2="29" y1="128.707" y2="128.707"/><line style="stroke:#888888;stroke-width:1.0;" x1="11" x2="11" y1="34.9414" y2="144.668"/><line style="stroke:#888888;stroke-width:1.0;" x1="11" x2="19" y1="144.668" y2="144.668"/><line style="stroke:#AAAAAA;stroke-width:1.0;" x1="7" x2="257" y1="212.0313" y2="212.0313"/><rect fill="#EEEEEE" height="19.9609" rx="5" ry="5" style="stroke:#000000;stroke-width:2.5;" width="100" x="10.5" y="220.0313"/><text fill="#000000" font-family="sans-serif" font-size="12" lengthAdjust="spacing" textLength="51" x="36.5" y="234.9805">Contr&#244;ler</text><rect fill="#EEEEEE" height="19.9609" rx="5" ry="5" style="stroke:#000000;stroke-width:2.5;" width="36" x="117.5" y="220.0313"/><text fill="#000000" font-family="sans-serif" font-size="12" font-weight="bold" lengthAdjust="spacing" textLength="14" x="128.5" y="234.9805">&lt;&lt;</text><line style="stroke:#000000;stroke-width:1.0;" x1="6" x2="257" y1="23.9609" y2="23.9609"/><line style="stroke:#000000;stroke-width:1.0;" x1="6" x2="257" y1="244.4922" y2="244.4922"/><line style="stroke:#000000;stroke-width:1.0;" x1="6" x2="6" y1="23.9609" y2="153.6484"/><line style="stroke:#000000;stroke-width:1.0;" x1="257" x2="257" y1="153.6484" y2="171.6094"/><line style="stroke:#000000;stroke-width:1.0;" x1="257" x2="257" y1="23.9609" y2="153.6484"/><line style="stroke:#000000;stroke-width:1.0;" x1="6" x2="6" y1="215.5313" y2="244.4922"/><line style="stroke:#000000;stroke-width:1.0;" x1="6" x2="6" y1="207.5313" y2="215.5313"/><line style="stroke:#000000;stroke-width:1.0;" x1="257" x2="257" y1="215.5313" y2="244.4922"/><line style="stroke:#000000;stroke-width:1.0;" x1="6" x2="6" y1="189.5703" y2="207.5313"/><line style="stroke:#000000;stroke-width:1.0;" x1="257" x2="257" y1="207.5313" y2="215.5313"/><line style="stroke:#000000;stroke-width:1.0;" x1="6" x2="6" y1="171.6094" y2="189.5703"/><line style="stroke:#000000;stroke-width:1.0;" x1="257" x2="257" y1="189.5703" y2="207.5313"/><line style="stroke:#000000;stroke-width:1.0;" x1="6" x2="6" y1="153.6484" y2="171.6094"/><line style="stroke:#000000;stroke-width:1.0;" x1="257" x2="257" y1="171.6094" y2="189.5703"/><rect fill="#EEEEEE" height="19.9609" rx="5" ry="5" style="stroke:#000000;stroke-width:2.5;" width="60" x="275.5" y="28.4609"/><text fill="#000000" font-family="sans-serif" font-size="12" lengthAdjust="spacing" textLength="44" x="283.5" y="43.4102">Capture</text><text fill="#000000" font-family="sans-serif" font-size="12" lengthAdjust="spacing" textLength="3" x="340" y="38.9102">/</text><rect fill="#EEEEEE" height="19.9609" rx="5" ry="5" style="stroke:#000000;stroke-width:2.5;" width="196" x="347.5" y="28.4609"/><text fill="#000000" font-family="sans-serif" font-size="12" lengthAdjust="spacing" textLength="131" x="380" y="43.4102">Partie non retenue, Vrac</text><rect fill="#EEEEEE" height="19.9609" rx="5" ry="5" style="stroke:#000000;stroke-width:2.5;" width="68" x="550.5" y="28.4609"/><text fill="#000000" font-family="sans-serif" font-size="12" lengthAdjust="spacing" textLength="42" x="563.5" y="43.4102">D&#233;taill&#233;</text><rect fill="#EEEEEE" height="19.9609" rx="5" ry="5" style="stroke:#000000;stroke-width:2.5;" width="60" x="625.5" y="28.4609"/><text fill="#000000" font-family="sans-serif" font-size="12" font-weight="bold" lengthAdjust="spacing" textLength="50" x="630.5" y="43.4102">Animaux</text><text fill="#000000" font-family="sans-serif" font-size="12" lengthAdjust="spacing" textLength="15" x="690" y="38.9102">(2)</text><rect fill="#EEEEEE" height="12" rx="5" ry="5" style="stroke:#000000;stroke-width:2.5;" width="20" x="795.5" y="29.4609"/><path d="M805.5,31.4609 L801.5,35.4609 L805.5,39.4609 L807,37.9609 L804.5,35.4609 L807,32.9609 L805.5,31.4609 " fill="#000000" style="stroke:;stroke-width:0.0;stroke-dasharray:;"/><rect fill="#EEEEEE" height="12" rx="5" ry="5" style="stroke:#000000;stroke-width:2.5;" width="20" x="822.5" y="29.4609"/><path d="M830,31.4609 L828.5,32.9609 L831,35.4609 L828.5,37.9609 L830,39.4609 L834,35.4609 L830,31.4609 " fill="#000000" style="stroke:;stroke-width:0.0;stroke-dasharray:;"/><text fill="#000000" font-family="sans-serif" font-size="12" lengthAdjust="spacing" textLength="88" x="273" y="67.8711">Poids total (kg) :</text><text fill="#000000" font-family="sans-serif" font-size="12" lengthAdjust="spacing" textLength="7" x="366" y="67.8711">0</text><line style="stroke:#000000;stroke-width:1.0;" x1="364" x2="415" y1="70.8828" y2="70.8828"/><line style="stroke:#000000;stroke-width:1.0;" x1="364" x2="364" y1="67.8828" y2="69.8828"/><line style="stroke:#000000;stroke-width:1.0;" x1="415" x2="415" y1="67.8828" y2="69.8828"/><text fill="#000000" font-family="sans-serif" font-size="12" lengthAdjust="spacing" textLength="49" x="614" y="67.8711">Estim&#233; ?</text><rect fill="none" height="10" style="stroke:#000000;stroke-width:1.5;" width="10" x="596" y="57.9023"/><text fill="#000000" font-family="sans-serif" font-size="12" lengthAdjust="spacing" textLength="61" x="273" y="89.832">Coef. &#233;ch. :</text><text fill="#000000" font-family="sans-serif" font-size="12" lengthAdjust="spacing" textLength="17" x="339" y="89.832">1/1</text><line style="stroke:#000000;stroke-width:1.0;" x1="337" x2="404" y1="92.8438" y2="92.8438"/><line style="stroke:#000000;stroke-width:1.0;" x1="337" x2="337" y1="89.8438" y2="91.8438"/><line style="stroke:#000000;stroke-width:1.0;" x1="404" x2="404" y1="89.8438" y2="91.8438"/><text fill="#000000" font-family="sans-serif" font-size="12" lengthAdjust="spacing" textLength="102" x="433" y="89.832">Poids &#233;chant (kg) :</text><text fill="#000000" font-family="sans-serif" font-size="12" lengthAdjust="spacing" textLength="7" x="540" y="89.832">0</text><line style="stroke:#000000;stroke-width:1.0;" x1="538" x2="589" y1="92.8438" y2="92.8438"/><line style="stroke:#000000;stroke-width:1.0;" x1="538" x2="538" y1="89.8438" y2="91.8438"/><line style="stroke:#000000;stroke-width:1.0;" x1="589" x2="589" y1="89.8438" y2="91.8438"/><text fill="#000000" font-family="sans-serif" font-size="12" lengthAdjust="spacing" textLength="190" x="293" y="111.793">Inventaire exhaustif des esp&#232;ces ?</text><rect fill="none" height="10" style="stroke:#000000;stroke-width:1.5;" width="10" x="275" y="101.8242"/><line style="stroke:#AAAAAA;stroke-width:1.0;" x1="272" x2="885" y1="121.3047" y2="121.3047"/><rect fill="#EEEEEE" height="12" rx="5" ry="5" style="stroke:#000000;stroke-width:2.5;" width="36" x="285.5" y="130.3047"/><path d="M302.5,132.3047 L302.5,135.3047 L299.5,135.3047 L299.5,137.3047 L302.5,137.3047 L302.5,140.3047 L304.5,140.3047 L304.5,137.3047 L307.5,137.3047 L307.5,135.3047 L304.5,135.3047 L304.5,132.3047 L302.5,132.3047 " fill="#000000" style="stroke:;stroke-width:0.0;stroke-dasharray:;"/><rect fill="#EEEEEE" height="12" rx="5" ry="5" style="stroke:#000000;stroke-width:2.5;" width="36" x="328.5" y="130.3047"/><path d="M345.5,132.3047 C344.95,132.3047 344.5,132.7547 344.5,133.3047 L343.5,133.3047 C342.95,133.3047 342.5,133.7547 342.5,134.3047 L349.5,134.3047 C349.5,133.7547 349.05,133.3047 348.5,133.3047 L347.5,133.3047 C347.5,132.7547 347.05,132.3047 346.5,132.3047 L345.5,132.3047 M343.5,135.3047 L343.5,140.1147 C343.5,140.2247 343.58,140.3047 343.69,140.3047 L348.32,140.3047 C348.43,140.3047 348.51,140.2247 348.51,140.1147 L348.51,135.3047 L347.51,135.3047 L347.51,138.8047 C347.51,139.0847 347.29,139.3047 347.01,139.3047 C346.73,139.3047 346.51,139.0847 346.51,138.8047 L346.51,135.3047 L345.51,135.3047 L345.51,138.8047 C345.51,139.0847 345.29,139.3047 345.01,139.3047 C344.73,139.3047 344.51,139.0847 344.51,138.8047 L344.51,135.3047 L343.51,135.3047 " fill="#000000" style="stroke:;stroke-width:0.0;stroke-dasharray:;"/><text fill="#000000" font-family="sans-serif" font-size="12" lengthAdjust="spacing" textLength="7" x="273" y="160.7539">#</text><text fill="#000000" font-family="sans-serif" font-size="12" font-weight="bold" lengthAdjust="spacing" textLength="120" x="282" y="160.7539">Esp&#232;ce commerciale</text><text fill="#000000" font-family="sans-serif" font-size="12" font-weight="bold" lengthAdjust="spacing" textLength="85" x="460" y="160.7539">Poids total (kg)</text><text fill="#000000" font-family="sans-serif" font-size="12" font-weight="bold" lengthAdjust="spacing" textLength="75" x="547" y="160.7539">Nb indiv. total</text><text fill="#000000" font-family="sans-serif" font-size="12" font-weight="bold" lengthAdjust="spacing" textLength="74" x="624" y="160.7539">Coef. &#233;chant.</text><text fill="#000000" font-family="sans-serif" font-size="12" font-weight="bold" lengthAdjust="spacing" textLength="80" x="700" y="160.7539">Poids. &#233;chant.</text><text fill="#000000" font-family="sans-serif" font-size="12" font-weight="bold" lengthAdjust="spacing" textLength="89" x="782" y="160.7539">Nb indiv &#233;chant.</text><path d="M874,147.8047 L874,148.8047 L882,148.8047 L882,147.8047 L874,147.8047 M874,150.7747 L874,151.7747 L882,151.7747 L882,150.7747 L874,150.7747 M874,153.7747 L874,154.7747 L882,154.7747 L882,153.7747 L874,153.7747 " fill="#000000" style="stroke:;stroke-width:0.0;stroke-dasharray:;"/><text fill="#000000" font-family="sans-serif" font-size="12" lengthAdjust="spacing" textLength="7" x="273" y="178.7148">1</text><rect fill="#EEEEEE" height="18.9609" style="stroke:#000000;stroke-width:1.0;" width="175" x="282" y="165.7656"/><text fill="#000000" font-family="sans-serif" font-size="12" lengthAdjust="spacing" textLength="82" x="284" y="180.7148">MNZ- Baudroie</text><line style="stroke:#000000;stroke-width:1.0;" x1="446" x2="446" y1="165.7656" y2="184.7266"/><polygon fill="#000000" points="449,171.7656,455,171.7656,452,179.7266" style="stroke:#000000;stroke-width:1.0;"/><text fill="#000000" font-family="sans-serif" font-size="12" lengthAdjust="spacing" textLength="14" x="460" y="178.7148">50</text><text fill="#000000" font-family="sans-serif" font-size="12" lengthAdjust="spacing" textLength="14" x="547" y="178.7148">24</text><text fill="#000000" font-family="sans-serif" font-size="12" lengthAdjust="spacing" textLength="14" x="624" y="178.7148">10</text><text fill="#000000" font-family="sans-serif" font-size="12" lengthAdjust="spacing" textLength="7" x="700" y="178.7148">4</text><text fill="#000000" font-family="sans-serif" font-size="12" lengthAdjust="spacing" textLength="14" x="782" y="178.7148">10</text><path d="M874,165.7656 L874,172.7656 L882,172.7656 L882,171.7656 L875,171.7656 L875,165.7656 L874,165.7656 M879,165.7656 L879,170.7656 L881,170.7656 L881,165.7656 L879,165.7656 M876,167.7656 L876,170.7656 L878,170.7656 L878,167.7656 L876,167.7656 " fill="#000000" style="stroke:;stroke-width:0.0;stroke-dasharray:;"/><text fill="#000000" font-family="sans-serif" font-size="12" lengthAdjust="spacing" textLength="7" x="273" y="200.6758">2</text><rect fill="#EEEEEE" height="18.9609" style="stroke:#000000;stroke-width:1.0;" width="175" x="282" y="187.7266"/><text fill="#000000" font-family="sans-serif" font-size="12" lengthAdjust="spacing" textLength="82" x="284" y="202.6758">MNZ- Baudroie</text><line style="stroke:#000000;stroke-width:1.0;" x1="446" x2="446" y1="187.7266" y2="206.6875"/><polygon fill="#000000" points="449,193.7266,455,193.7266,452,201.6875" style="stroke:#000000;stroke-width:1.0;"/><text fill="#000000" font-family="sans-serif" font-size="12" lengthAdjust="spacing" textLength="14" x="460" y="200.6758">20</text><text fill="#000000" font-family="sans-serif" font-size="12" lengthAdjust="spacing" textLength="14" x="547" y="200.6758">36</text><text fill="#000000" font-family="sans-serif" font-size="12" lengthAdjust="spacing" textLength="14" x="624" y="200.6758">10</text><text fill="#000000" font-family="sans-serif" font-size="12" lengthAdjust="spacing" textLength="7" x="700" y="200.6758">4</text><text fill="#000000" font-family="sans-serif" font-size="12" lengthAdjust="spacing" textLength="14" x="782" y="200.6758">10</text><path d="M874,187.7266 L874,194.7266 L882,194.7266 L882,193.7266 L875,193.7266 L875,187.7266 L874,187.7266 M879,187.7266 L879,192.7266 L881,192.7266 L881,187.7266 L879,187.7266 M876,189.7266 L876,192.7266 L878,192.7266 L878,189.7266 L876,189.7266 " fill="#000000" style="stroke:;stroke-width:0.0;stroke-dasharray:;"/><line style="stroke:#000000;stroke-width:1.0;" x1="272" x2="281" y1="125.8047" y2="125.8047"/><line style="stroke:#000000;stroke-width:1.0;" x1="623" x2="699" y1="208.6875" y2="208.6875"/><line style="stroke:#000000;stroke-width:1.0;" x1="281" x2="459" y1="125.8047" y2="125.8047"/><line style="stroke:#000000;stroke-width:1.0;" x1="699" x2="781" y1="208.6875" y2="208.6875"/><line style="stroke:#000000;stroke-width:1.0;" x1="459" x2="546" y1="125.8047" y2="125.8047"/><line style="stroke:#000000;stroke-width:1.0;" x1="781" x2="872" y1="208.6875" y2="208.6875"/><line style="stroke:#000000;stroke-width:1.0;" x1="546" x2="623" y1="125.8047" y2="125.8047"/><line style="stroke:#000000;stroke-width:1.0;" x1="872" x2="884" y1="208.6875" y2="208.6875"/><line style="stroke:#000000;stroke-width:1.0;" x1="623" x2="699" y1="125.8047" y2="125.8047"/><line style="stroke:#000000;stroke-width:1.0;" x1="699" x2="781" y1="125.8047" y2="125.8047"/><line style="stroke:#000000;stroke-width:1.0;" x1="781" x2="872" y1="125.8047" y2="125.8047"/><line style="stroke:#000000;stroke-width:1.0;" x1="872" x2="884" y1="125.8047" y2="125.8047"/><line style="stroke:#000000;stroke-width:1.0;" x1="272" x2="281" y1="186.7266" y2="186.7266"/><line style="stroke:#000000;stroke-width:1.0;" x1="281" x2="459" y1="186.7266" y2="186.7266"/><line style="stroke:#000000;stroke-width:1.0;" x1="459" x2="546" y1="186.7266" y2="186.7266"/><line style="stroke:#000000;stroke-width:1.0;" x1="546" x2="623" y1="186.7266" y2="186.7266"/><line style="stroke:#000000;stroke-width:1.0;" x1="623" x2="699" y1="186.7266" y2="186.7266"/><line style="stroke:#000000;stroke-width:1.0;" x1="699" x2="781" y1="186.7266" y2="186.7266"/><line style="stroke:#000000;stroke-width:1.0;" x1="781" x2="872" y1="186.7266" y2="186.7266"/><line style="stroke:#000000;stroke-width:1.0;" x1="872" x2="884" y1="186.7266" y2="186.7266"/><line style="stroke:#000000;stroke-width:1.0;" x1="272" x2="281" y1="164.7656" y2="164.7656"/><line style="stroke:#000000;stroke-width:1.0;" x1="281" x2="459" y1="164.7656" y2="164.7656"/><line style="stroke:#000000;stroke-width:1.0;" x1="459" x2="546" y1="164.7656" y2="164.7656"/><line style="stroke:#000000;stroke-width:1.0;" x1="546" x2="623" y1="164.7656" y2="164.7656"/><line style="stroke:#000000;stroke-width:1.0;" x1="623" x2="699" y1="164.7656" y2="164.7656"/><line style="stroke:#000000;stroke-width:1.0;" x1="699" x2="781" y1="164.7656" y2="164.7656"/><line style="stroke:#000000;stroke-width:1.0;" x1="781" x2="872" y1="164.7656" y2="164.7656"/><line style="stroke:#000000;stroke-width:1.0;" x1="872" x2="884" y1="164.7656" y2="164.7656"/><line style="stroke:#000000;stroke-width:1.0;" x1="272" x2="281" y1="146.8047" y2="146.8047"/><line style="stroke:#000000;stroke-width:1.0;" x1="281" x2="459" y1="146.8047" y2="146.8047"/><line style="stroke:#000000;stroke-width:1.0;" x1="459" x2="546" y1="146.8047" y2="146.8047"/><line style="stroke:#000000;stroke-width:1.0;" x1="546" x2="623" y1="146.8047" y2="146.8047"/><line style="stroke:#000000;stroke-width:1.0;" x1="623" x2="699" y1="146.8047" y2="146.8047"/><line style="stroke:#000000;stroke-width:1.0;" x1="699" x2="781" y1="146.8047" y2="146.8047"/><line style="stroke:#000000;stroke-width:1.0;" x1="781" x2="872" y1="146.8047" y2="146.8047"/><line style="stroke:#000000;stroke-width:1.0;" x1="872" x2="884" y1="146.8047" y2="146.8047"/><line style="stroke:#000000;stroke-width:1.0;" x1="272" x2="281" y1="208.6875" y2="208.6875"/><line style="stroke:#000000;stroke-width:1.0;" x1="281" x2="459" y1="208.6875" y2="208.6875"/><line style="stroke:#000000;stroke-width:1.0;" x1="459" x2="546" y1="208.6875" y2="208.6875"/><line style="stroke:#000000;stroke-width:1.0;" x1="546" x2="623" y1="208.6875" y2="208.6875"/><line style="stroke:#000000;stroke-width:1.0;" x1="272" x2="272" y1="125.8047" y2="146.8047"/><line style="stroke:#000000;stroke-width:1.0;" x1="281" x2="281" y1="125.8047" y2="146.8047"/><line style="stroke:#000000;stroke-width:1.0;" x1="459" x2="459" y1="125.8047" y2="146.8047"/><line style="stroke:#000000;stroke-width:1.0;" x1="546" x2="546" y1="125.8047" y2="146.8047"/><line style="stroke:#000000;stroke-width:1.0;" x1="623" x2="623" y1="125.8047" y2="146.8047"/><line style="stroke:#000000;stroke-width:1.0;" x1="699" x2="699" y1="125.8047" y2="146.8047"/><line style="stroke:#000000;stroke-width:1.0;" x1="781" x2="781" y1="125.8047" y2="146.8047"/><line style="stroke:#000000;stroke-width:1.0;" x1="872" x2="872" y1="125.8047" y2="146.8047"/><line style="stroke:#000000;stroke-width:1.0;" x1="884" x2="884" y1="125.8047" y2="146.8047"/><line style="stroke:#000000;stroke-width:1.0;" x1="272" x2="272" y1="186.7266" y2="208.6875"/><line style="stroke:#000000;stroke-width:1.0;" x1="281" x2="281" y1="186.7266" y2="208.6875"/><line style="stroke:#000000;stroke-width:1.0;" x1="459" x2="459" y1="186.7266" y2="208.6875"/><line style="stroke:#000000;stroke-width:1.0;" x1="546" x2="546" y1="186.7266" y2="208.6875"/><line style="stroke:#000000;stroke-width:1.0;" x1="623" x2="623" y1="186.7266" y2="208.6875"/><line style="stroke:#000000;stroke-width:1.0;" x1="699" x2="699" y1="186.7266" y2="208.6875"/><line style="stroke:#000000;stroke-width:1.0;" x1="781" x2="781" y1="186.7266" y2="208.6875"/><line style="stroke:#000000;stroke-width:1.0;" x1="872" x2="872" y1="186.7266" y2="208.6875"/><line style="stroke:#000000;stroke-width:1.0;" x1="884" x2="884" y1="186.7266" y2="208.6875"/><line style="stroke:#000000;stroke-width:1.0;" x1="272" x2="272" y1="164.7656" y2="186.7266"/><line style="stroke:#000000;stroke-width:1.0;" x1="281" x2="281" y1="164.7656" y2="186.7266"/><line style="stroke:#000000;stroke-width:1.0;" x1="459" x2="459" y1="164.7656" y2="186.7266"/><line style="stroke:#000000;stroke-width:1.0;" x1="546" x2="546" y1="164.7656" y2="186.7266"/><line style="stroke:#000000;stroke-width:1.0;" x1="623" x2="623" y1="164.7656" y2="186.7266"/><line style="stroke:#000000;stroke-width:1.0;" x1="699" x2="699" y1="164.7656" y2="186.7266"/><line style="stroke:#000000;stroke-width:1.0;" x1="781" x2="781" y1="164.7656" y2="186.7266"/><line style="stroke:#000000;stroke-width:1.0;" x1="872" x2="872" y1="164.7656" y2="186.7266"/><line style="stroke:#000000;stroke-width:1.0;" x1="884" x2="884" y1="164.7656" y2="186.7266"/><line style="stroke:#000000;stroke-width:1.0;" x1="272" x2="272" y1="146.8047" y2="164.7656"/><line style="stroke:#000000;stroke-width:1.0;" x1="281" x2="281" y1="146.8047" y2="164.7656"/><line style="stroke:#000000;stroke-width:1.0;" x1="459" x2="459" y1="146.8047" y2="164.7656"/><line style="stroke:#000000;stroke-width:1.0;" x1="546" x2="546" y1="146.8047" y2="164.7656"/><line style="stroke:#000000;stroke-width:1.0;" x1="623" x2="623" y1="146.8047" y2="164.7656"/><line style="stroke:#000000;stroke-width:1.0;" x1="699" x2="699" y1="146.8047" y2="164.7656"/><line style="stroke:#000000;stroke-width:1.0;" x1="781" x2="781" y1="146.8047" y2="164.7656"/><line style="stroke:#000000;stroke-width:1.0;" x1="872" x2="872" y1="146.8047" y2="164.7656"/><line style="stroke:#000000;stroke-width:1.0;" x1="884" x2="884" y1="146.8047" y2="164.7656"/><line style="stroke:#AAAAAA;stroke-width:1.0;" x1="6" x2="258" y1="249.9922" y2="249.9922"/><line style="stroke:#AAAAAA;stroke-width:1.0;" x1="259" x2="270" y1="249.9922" y2="249.9922"/><line style="stroke:#AAAAAA;stroke-width:1.0;" x1="271" x2="886" y1="249.9922" y2="249.9922"/><rect fill="#EEEEEE" height="19.9609" rx="5" ry="5" style="stroke:#000000;stroke-width:2.5;" width="52" x="9.5" y="257.9922"/><text fill="#000000" font-family="sans-serif" font-size="12" lengthAdjust="spacing" textLength="40" x="15.5" y="272.9414">Fermer</text><rect fill="#EEEEEE" height="19.9609" rx="5" ry="5" style="stroke:#000000;stroke-width:2.5;" width="92" x="68.5" y="257.9922"/><text fill="#000000" font-family="sans-serif" font-size="12" lengthAdjust="spacing" textLength="70" x="79.5" y="272.9414">Sauvegarder</text><!--SRC=[hLJhRjem5FwVfpXg9GHYIKbegmaXsfMoIrSwr7PC6cebanYmI1naEwWLpVkK_tk3lDYESm7QTMpQ6ia6dtE-xrpjOwc8K9BuobWO08izE4sMYZ1VmWCqXoreavcA18LOQwkumU9Qx_ghhhJueJbhDTtG3qLZw4UqDNXxipAiGW_TC0g2AieZcil_3iD3Nk3UG5yGL-CA476dhK5j0rKjCl2JvOQq2kyu2qXqjnrSXOuRodkfaiU0IkWImRY4VkJpP2d8qAVo3yulC5ZlXG1UJEPZAAJvDAEn8FS5Pvp2hUUxQQPjoBa7pP8xeUuq86AAxGgv4iaFdueRv1pe5ZQRi6ABKMZXoi0B6EGDrCPx6l2xagTiwyAcH-JEQwgFPQUIa__lMkGvpKN8JP-EL2jpjv89DfveOOmvPOdqGkP9KA4YFfIdumeq4B43K4FbpYk5zLfh03VGaOe5oHAELXcqGpgo85cw4oiFtjwpOKluMSeQGBZQbdJX8NNyYSyfnoRYdQLt4n9X72FmSAgfd2MFBluvoiVEpCOC5hl54Elvq-t1gIhD_4Ys89-naX94JlGnXfUYtI3OpPwLJkODt308g70PyIbacbywcRqJMdKn1COzDhToTGPO5mxhO6sGF1SMy2VYKe0ptje8q4RfRVVYkmad9F94o8gtwbP7SL3Bed7sir-mQsle0-pZGedc7H9XeXkXDicThUHEJbu__0Voz7RhJficckIRaRRzFHL1_XvSaMXEnqHu-XmRiN5CkPU-_aRFnvfyxPx3d0h9yFxRbbDpwfPjbxzH3wxe3EmwnjXm3XlrEhGxLzUW3If6-KFl76GO2MoenwGIR1WfPAWOPsHEu3BYEEoq0Lzcb9-TVYu4qE5pXjSPEw2CitvtRN2uRvumXIu5nWBzhd5AHoJo5IBSq6Dyt83sp7OE7EESy754naW-4aOxH69ntu3tbpy1]--></g></svg>