<?xml version="1.0" encoding="us-ascii" standalone="no"?><svg xmlns="http://www.w3.org/2000/svg" xmlns:xlink="http://www.w3.org/1999/xlink" contentStyleType="text/css" height="304px" preserveAspectRatio="none" style="width:506px;height:304px;background:#FFFFFF;" version="1.1" viewBox="0 0 506 304" width="506px" zoomAndPan="magnify"><defs><filter height="1" id="b1h5yuwzb2pgvz0" width="1" x="0" y="0"><feFlood flood-color="#DDDDDD" result="flood"/><feComposite in="SourceGraphic" in2="flood" operator="over"/></filter></defs><g><text fill="#000000" font-family="sans-serif" font-size="12" lengthAdjust="spacing" textLength="39" x="8" y="18.457">D&#233;tails</text><line style="stroke:#000000;stroke-width:1.0;" x1="6" x2="6" y1="6" y2="21.0938"/><line style="stroke:#000000;stroke-width:1.0;" x1="6" x2="50" y1="6" y2="6"/><line style="stroke:#000000;stroke-width:1.0;" x1="50" x2="50" y1="6" y2="21.0938"/><line style="stroke:#000000;stroke-width:1.0;" x1="50" x2="60" y1="21.0938" y2="21.0938"/><text fill="#000000" font-family="sans-serif" font-size="12" font-weight="bold" lengthAdjust="spacing" textLength="45" x="65" y="18.457">Capture</text><line style="stroke:#000000;stroke-width:1.0;" x1="60" x2="60" y1="6" y2="21.0938"/><line style="stroke:#000000;stroke-width:1.0;" x1="60" x2="113" y1="6" y2="6"/><line style="stroke:#000000;stroke-width:1.0;" x1="113" x2="113" y1="6" y2="21.0938"/><line style="stroke:#000000;stroke-width:1.0;" x1="113" x2="123" y1="21.0938" y2="21.0938"/><text fill="#000000" filter="url(#b1h5yuwzb2pgvz0)" font-family="sans-serif" font-size="12" lengthAdjust="spacing" textLength="44" x="17" y="36.5508">Capture</text><text fill="#0000FF" font-family="sans-serif" font-size="12" font-style="italic" lengthAdjust="spacing" textLength="41" x="199" y="36.5508">[200kg]</text><text fill="#000000" font-family="sans-serif" font-size="12" lengthAdjust="spacing" textLength="77" x="27" y="51.6445">Partie retenue</text><text fill="#000000" font-family="sans-serif" font-size="12" lengthAdjust="spacing" textLength="68" x="199" y="51.6445">[185kg] (1/2)</text><text fill="#000000" font-family="sans-serif" font-size="12" lengthAdjust="spacing" textLength="31" x="37" y="66.7383">Appat</text><text fill="#0000FF" font-family="sans-serif" font-size="12" font-style="italic" lengthAdjust="spacing" textLength="34" x="199" y="66.7383">[10kg]</text><text fill="#000000" font-family="sans-serif" font-size="12" lengthAdjust="spacing" textLength="138" x="37" y="81.832">Consommation humaine</text><text fill="#0000FF" font-family="sans-serif" font-size="12" font-style="italic" lengthAdjust="spacing" textLength="34" x="199" y="81.832">[40kg]</text><text fill="#000000" font-family="sans-serif" font-size="12" lengthAdjust="spacing" textLength="46" x="37" y="96.9258">Godaille</text><text fill="#0000FF" font-family="sans-serif" font-size="12" font-style="italic" lengthAdjust="spacing" textLength="34" x="199" y="96.9258">[10kg]</text><text fill="#000000" font-family="sans-serif" font-size="12" lengthAdjust="spacing" textLength="48" x="37" y="112.0195">Industrie</text><text fill="#0000FF" font-family="sans-serif" font-size="12" font-style="italic" lengthAdjust="spacing" textLength="34" x="199" y="112.0195">[75kg]</text><text fill="#000000" font-family="sans-serif" font-size="12" lengthAdjust="spacing" textLength="126" x="37" y="127.1133">Obligation &#224; d&#233;barquer</text><text fill="#0000FF" font-family="sans-serif" font-size="12" font-style="italic" lengthAdjust="spacing" textLength="34" x="199" y="127.1133">[50kg]</text><text fill="#000000" font-family="sans-serif" font-size="12" lengthAdjust="spacing" textLength="131" x="27" y="142.207">Partie non retenue, Vrac</text><text fill="#000000" font-family="sans-serif" font-size="12" lengthAdjust="spacing" textLength="33" x="199" y="142.207">[10kg]</text><text fill="#000000" font-family="sans-serif" font-size="12" lengthAdjust="spacing" textLength="162" x="27" y="157.3008">Partie non retenue, Hors-Vrac</text><text fill="#000000" font-family="sans-serif" font-size="12" lengthAdjust="spacing" textLength="26" x="199" y="157.3008">[5kg]</text><rect fill="none" height="2" style="stroke:#888888;stroke-width:1.0;" width="2" x="10" y="30.6406"/><rect fill="none" height="2" style="stroke:#888888;stroke-width:1.0;" width="2" x="20" y="45.7344"/><line style="stroke:#888888;stroke-width:1.0;" x1="11" x2="11" y1="33.6406" y2="46.7344"/><line style="stroke:#888888;stroke-width:1.0;" x1="11" x2="19" y1="46.7344" y2="46.7344"/><line style="stroke:#888888;stroke-width:1.0;" x1="21" x2="21" y1="48.7344" y2="61.8281"/><line style="stroke:#888888;stroke-width:1.0;" x1="21" x2="29" y1="61.8281" y2="61.8281"/><line style="stroke:#888888;stroke-width:1.0;" x1="21" x2="21" y1="48.7344" y2="76.9219"/><line style="stroke:#888888;stroke-width:1.0;" x1="21" x2="29" y1="76.9219" y2="76.9219"/><line style="stroke:#888888;stroke-width:1.0;" x1="21" x2="21" y1="48.7344" y2="92.0156"/><line style="stroke:#888888;stroke-width:1.0;" x1="21" x2="29" y1="92.0156" y2="92.0156"/><line style="stroke:#888888;stroke-width:1.0;" x1="21" x2="21" y1="48.7344" y2="107.1094"/><line style="stroke:#888888;stroke-width:1.0;" x1="21" x2="29" y1="107.1094" y2="107.1094"/><line style="stroke:#888888;stroke-width:1.0;" x1="21" x2="21" y1="48.7344" y2="122.2031"/><line style="stroke:#888888;stroke-width:1.0;" x1="21" x2="29" y1="122.2031" y2="122.2031"/><line style="stroke:#888888;stroke-width:1.0;" x1="11" x2="11" y1="33.6406" y2="137.2969"/><line style="stroke:#888888;stroke-width:1.0;" x1="11" x2="19" y1="137.2969" y2="137.2969"/><line style="stroke:#888888;stroke-width:1.0;" x1="11" x2="11" y1="33.6406" y2="152.3906"/><line style="stroke:#888888;stroke-width:1.0;" x1="11" x2="19" y1="152.3906" y2="152.3906"/><line style="stroke:#AAAAAA;stroke-width:1.0;" x1="7" x2="270" y1="233.8125" y2="233.8125"/><rect fill="#EEEEEE" height="19.0938" rx="5" ry="5" style="stroke:#000000;stroke-width:2.5;" width="100" x="10.5" y="241.8125"/><text fill="#000000" font-family="sans-serif" font-size="12" lengthAdjust="spacing" textLength="51" x="36.5" y="256.2695">Contr&#244;ler</text><rect fill="#EEEEEE" height="19.0938" rx="5" ry="5" style="stroke:#000000;stroke-width:2.5;" width="36" x="117.5" y="241.8125"/><text fill="#000000" font-family="sans-serif" font-size="12" font-weight="bold" lengthAdjust="spacing" textLength="14" x="128.5" y="256.2695">&lt;&lt;</text><line style="stroke:#000000;stroke-width:1.0;" x1="6" x2="270" y1="23.0938" y2="23.0938"/><line style="stroke:#000000;stroke-width:1.0;" x1="6" x2="270" y1="265.4063" y2="265.4063"/><line style="stroke:#000000;stroke-width:1.0;" x1="6" x2="6" y1="23.0938" y2="160.9375"/><line style="stroke:#000000;stroke-width:1.0;" x1="270" x2="270" y1="23.0938" y2="160.9375"/><line style="stroke:#000000;stroke-width:1.0;" x1="6" x2="6" y1="229.3125" y2="237.3125"/><line style="stroke:#000000;stroke-width:1.0;" x1="270" x2="270" y1="229.3125" y2="237.3125"/><line style="stroke:#000000;stroke-width:1.0;" x1="6" x2="6" y1="195.125" y2="212.2188"/><line style="stroke:#000000;stroke-width:1.0;" x1="270" x2="270" y1="195.125" y2="212.2188"/><line style="stroke:#000000;stroke-width:1.0;" x1="6" x2="6" y1="160.9375" y2="178.0313"/><line style="stroke:#000000;stroke-width:1.0;" x1="270" x2="270" y1="160.9375" y2="178.0313"/><line style="stroke:#000000;stroke-width:1.0;" x1="6" x2="6" y1="237.3125" y2="265.4063"/><line style="stroke:#000000;stroke-width:1.0;" x1="270" x2="270" y1="237.3125" y2="265.4063"/><line style="stroke:#000000;stroke-width:1.0;" x1="6" x2="6" y1="212.2188" y2="229.3125"/><line style="stroke:#000000;stroke-width:1.0;" x1="270" x2="270" y1="212.2188" y2="229.3125"/><line style="stroke:#000000;stroke-width:1.0;" x1="6" x2="6" y1="178.0313" y2="195.125"/><line style="stroke:#000000;stroke-width:1.0;" x1="270" x2="270" y1="178.0313" y2="195.125"/><rect fill="#EEEEEE" height="19.0938" rx="5" ry="5" style="stroke:#000000;stroke-width:2.5;" width="60" x="288.5" y="27.5938"/><text fill="#000000" font-family="sans-serif" font-size="12" font-weight="bold" lengthAdjust="spacing" textLength="45" x="296" y="42.0508">Capture</text><text fill="#000000" font-family="sans-serif" font-size="12" lengthAdjust="spacing" textLength="3" x="353" y="37.5508">/</text><rect fill="#EEEEEE" height="19.0938" rx="5" ry="5" style="stroke:#000000;stroke-width:2.5;" width="28" x="360.5" y="27.5938"/><text fill="#000000" font-family="sans-serif" font-size="12" lengthAdjust="spacing" textLength="9" x="370" y="42.0508">...</text><rect fill="#EEEEEE" height="12" rx="5" ry="5" style="stroke:#000000;stroke-width:2.5;" width="20" x="440.5" y="27.5938"/><path d="M450.5,29.5938 L446.5,33.5938 L450.5,37.5938 L452,36.0938 L449.5,33.5938 L452,31.0938 L450.5,29.5938 " fill="#000000" style="stroke:;stroke-width:0.0;stroke-dasharray:;"/><rect fill="#EEEEEE" height="12" rx="5" ry="5" style="stroke:#000000;stroke-width:2.5;" width="20" x="467.5" y="27.5938"/><path d="M475,29.5938 L473.5,31.0938 L476,33.5938 L473.5,36.0938 L475,37.5938 L479,33.5938 L475,29.5938 " fill="#000000" style="stroke:;stroke-width:0.0;stroke-dasharray:;"/><text fill="#000000" font-family="sans-serif" font-size="12" lengthAdjust="spacing" textLength="60" x="306" y="65.6445">Coup nul ?</text><rect fill="none" height="10" style="stroke:#000000;stroke-width:1.5;" width="10" x="288" y="55.7344"/><text fill="#000000" font-family="sans-serif" font-size="12" lengthAdjust="spacing" textLength="170" x="286" y="84.7383">Capture (toutes esp&#232;ces) (kg) :</text><text fill="#0000FF" font-family="sans-serif" font-size="12" font-style="italic" lengthAdjust="spacing" textLength="21" x="461" y="84.7383">200</text><line style="stroke:#000000;stroke-width:1.0;" x1="459" x2="494" y1="87.375" y2="87.375"/><line style="stroke:#000000;stroke-width:1.0;" x1="459" x2="459" y1="84.375" y2="86.375"/><line style="stroke:#000000;stroke-width:1.0;" x1="494" x2="494" y1="84.375" y2="86.375"/><line style="stroke:#AAAAAA;stroke-width:1.0;" x1="6" x2="271" y1="270.9063" y2="270.9063"/><line style="stroke:#AAAAAA;stroke-width:1.0;" x1="272" x2="283" y1="270.9063" y2="270.9063"/><line style="stroke:#AAAAAA;stroke-width:1.0;" x1="284" x2="499" y1="270.9063" y2="270.9063"/><rect fill="#EEEEEE" height="19.0938" rx="5" ry="5" style="stroke:#000000;stroke-width:2.5;" width="52" x="9.5" y="278.9063"/><text fill="#000000" font-family="sans-serif" font-size="12" lengthAdjust="spacing" textLength="40" x="15.5" y="293.3633">Fermer</text><rect fill="#EEEEEE" height="19.0938" rx="5" ry="5" style="stroke:#000000;stroke-width:2.5;" width="92" x="68.5" y="278.9063"/><text fill="#000000" font-family="sans-serif" font-size="12" lengthAdjust="spacing" textLength="70" x="79.5" y="293.3633">Sauvegarder</text></g></svg>