<?xml version="1.0" encoding="us-ascii" standalone="no"?><svg xmlns="http://www.w3.org/2000/svg" xmlns:xlink="http://www.w3.org/1999/xlink" contentStyleType="text/css" height="238px" preserveAspectRatio="none" style="width:448px;height:238px;background:#FFFFFF;" version="1.1" viewBox="0 0 448 238" width="448px" zoomAndPan="magnify"><defs><filter height="1" id="bxwhonf21z3pm0" width="1" x="0" y="0"><feFlood flood-color="#DDDDDD" result="flood"/><feComposite in="SourceGraphic" in2="flood" operator="over"/></filter></defs><g><text fill="#000000" font-family="sans-serif" font-size="12" lengthAdjust="spacing" textLength="39" x="8" y="18.9492">D&#233;tails</text><line style="stroke:#000000;stroke-width:1.0;" x1="6" x2="6" y1="6" y2="21.9609"/><line style="stroke:#000000;stroke-width:1.0;" x1="6" x2="50" y1="6" y2="6"/><line style="stroke:#000000;stroke-width:1.0;" x1="50" x2="50" y1="6" y2="21.9609"/><line style="stroke:#000000;stroke-width:1.0;" x1="50" x2="60" y1="21.9609" y2="21.9609"/><text fill="#000000" font-family="sans-serif" font-size="12" font-weight="bold" lengthAdjust="spacing" textLength="45" x="65" y="18.9492">Capture</text><line style="stroke:#000000;stroke-width:1.0;" x1="60" x2="60" y1="6" y2="21.9609"/><line style="stroke:#000000;stroke-width:1.0;" x1="60" x2="113" y1="6" y2="6"/><line style="stroke:#000000;stroke-width:1.0;" x1="113" x2="113" y1="6" y2="21.9609"/><line style="stroke:#000000;stroke-width:1.0;" x1="113" x2="123" y1="21.9609" y2="21.9609"/><text fill="#000000" filter="url(#bxwhonf21z3pm0)" font-family="sans-serif" font-size="12" lengthAdjust="spacing" textLength="44" x="17" y="37.9102">Capture</text><text fill="#808080" font-family="sans-serif" font-size="12" lengthAdjust="spacing" textLength="26" x="199" y="37.9102">[0kg]</text><text fill="#808080" font-family="sans-serif" font-size="12" lengthAdjust="spacing" textLength="77" x="27" y="53.8711">Partie retenue</text><text fill="#808080" font-family="sans-serif" font-size="12" lengthAdjust="spacing" textLength="26" x="199" y="53.8711">[0kg]</text><text fill="#808080" font-family="sans-serif" font-size="12" lengthAdjust="spacing" textLength="131" x="27" y="69.832">Partie non retenue, Vrac</text><text fill="#808080" font-family="sans-serif" font-size="12" lengthAdjust="spacing" textLength="26" x="199" y="69.832">[0kg]</text><text fill="#808080" font-family="sans-serif" font-size="12" lengthAdjust="spacing" textLength="162" x="27" y="85.793">Partie non retenue, Hors-Vrac</text><text fill="#808080" font-family="sans-serif" font-size="12" lengthAdjust="spacing" textLength="26" x="199" y="85.793">[0kg]</text><rect fill="none" height="2" style="stroke:#888888;stroke-width:1.0;" width="2" x="10" y="31.9414"/><line style="stroke:#888888;stroke-width:1.0;" x1="11" x2="11" y1="34.9414" y2="48.9023"/><line style="stroke:#888888;stroke-width:1.0;" x1="11" x2="19" y1="48.9023" y2="48.9023"/><line style="stroke:#888888;stroke-width:1.0;" x1="11" x2="11" y1="34.9414" y2="64.8633"/><line style="stroke:#888888;stroke-width:1.0;" x1="11" x2="19" y1="64.8633" y2="64.8633"/><line style="stroke:#888888;stroke-width:1.0;" x1="11" x2="11" y1="34.9414" y2="80.8242"/><line style="stroke:#888888;stroke-width:1.0;" x1="11" x2="19" y1="80.8242" y2="80.8242"/><line style="stroke:#AAAAAA;stroke-width:1.0;" x1="7" x2="228" y1="166.1484" y2="166.1484"/><rect fill="#EEEEEE" height="19.9609" rx="5" ry="5" style="stroke:#000000;stroke-width:2.5;" width="100" x="10.5" y="174.1484"/><text fill="#000000" font-family="sans-serif" font-size="12" lengthAdjust="spacing" textLength="51" x="36.5" y="189.0977">Contr&#244;ler</text><rect fill="#EEEEEE" height="19.9609" rx="5" ry="5" style="stroke:#000000;stroke-width:2.5;" width="36" x="117.5" y="174.1484"/><text fill="#000000" font-family="sans-serif" font-size="12" lengthAdjust="spacing" textLength="14" x="128.5" y="189.0977">&lt;&lt;</text><line style="stroke:#000000;stroke-width:1.0;" x1="6" x2="228" y1="23.9609" y2="23.9609"/><line style="stroke:#000000;stroke-width:1.0;" x1="6" x2="228" y1="198.6094" y2="198.6094"/><line style="stroke:#000000;stroke-width:1.0;" x1="6" x2="6" y1="23.9609" y2="89.8047"/><line style="stroke:#000000;stroke-width:1.0;" x1="228" x2="228" y1="23.9609" y2="89.8047"/><line style="stroke:#000000;stroke-width:1.0;" x1="6" x2="6" y1="161.6484" y2="169.6484"/><line style="stroke:#000000;stroke-width:1.0;" x1="228" x2="228" y1="161.6484" y2="169.6484"/><line style="stroke:#000000;stroke-width:1.0;" x1="6" x2="6" y1="125.7266" y2="143.6875"/><line style="stroke:#000000;stroke-width:1.0;" x1="228" x2="228" y1="125.7266" y2="143.6875"/><line style="stroke:#000000;stroke-width:1.0;" x1="6" x2="6" y1="89.8047" y2="107.7656"/><line style="stroke:#000000;stroke-width:1.0;" x1="228" x2="228" y1="89.8047" y2="107.7656"/><line style="stroke:#000000;stroke-width:1.0;" x1="6" x2="6" y1="169.6484" y2="198.6094"/><line style="stroke:#000000;stroke-width:1.0;" x1="228" x2="228" y1="169.6484" y2="198.6094"/><line style="stroke:#000000;stroke-width:1.0;" x1="6" x2="6" y1="143.6875" y2="161.6484"/><line style="stroke:#000000;stroke-width:1.0;" x1="228" x2="228" y1="143.6875" y2="161.6484"/><line style="stroke:#000000;stroke-width:1.0;" x1="6" x2="6" y1="107.7656" y2="125.7266"/><line style="stroke:#000000;stroke-width:1.0;" x1="228" x2="228" y1="107.7656" y2="125.7266"/><rect fill="#EEEEEE" height="19.9609" rx="5" ry="5" style="stroke:#000000;stroke-width:2.5;" width="60" x="246.5" y="28.4609"/><text fill="#000000" font-family="sans-serif" font-size="12" font-weight="bold" lengthAdjust="spacing" textLength="45" x="254" y="43.4102">Capture</text><text fill="#000000" font-family="sans-serif" font-size="12" lengthAdjust="spacing" textLength="3" x="311" y="38.9102">/</text><rect fill="#EEEEEE" height="19.9609" rx="5" ry="5" style="stroke:#000000;stroke-width:2.5;" width="28" x="318.5" y="28.4609"/><text fill="#000000" font-family="sans-serif" font-size="12" lengthAdjust="spacing" textLength="9" x="328" y="43.4102">...</text><text fill="#000000" font-family="sans-serif" font-size="12" lengthAdjust="spacing" textLength="60" x="264" y="67.8711">Coup nul ?</text><rect fill="none" height="10" style="stroke:#000000;stroke-width:1.5;" width="10" x="246" y="57.9023"/><polygon fill="#000000" points="247,60.9219,250,63.9219,257,54.9219,250,61.9219" style="stroke:#000000;stroke-width:1.5;"/><text fill="#000000" font-family="sans-serif" font-size="12" lengthAdjust="spacing" textLength="170" x="244" y="87.832">Capture (toutes esp&#232;ces) (kg) :</text><text fill="#000000" font-family="sans-serif" font-size="12" lengthAdjust="spacing" textLength="7" x="419" y="87.832">0</text><line style="stroke:#000000;stroke-width:1.0;" x1="417" x2="436" y1="90.8438" y2="90.8438"/><line style="stroke:#000000;stroke-width:1.0;" x1="417" x2="417" y1="87.8438" y2="89.8438"/><line style="stroke:#000000;stroke-width:1.0;" x1="436" x2="436" y1="87.8438" y2="89.8438"/><line style="stroke:#AAAAAA;stroke-width:1.0;" x1="6" x2="229" y1="204.1094" y2="204.1094"/><line style="stroke:#AAAAAA;stroke-width:1.0;" x1="230" x2="241" y1="204.1094" y2="204.1094"/><line style="stroke:#AAAAAA;stroke-width:1.0;" x1="242" x2="441" y1="204.1094" y2="204.1094"/><rect fill="#EEEEEE" height="19.9609" rx="5" ry="5" style="stroke:#000000;stroke-width:2.5;" width="52" x="9.5" y="212.1094"/><text fill="#000000" font-family="sans-serif" font-size="12" lengthAdjust="spacing" textLength="40" x="15.5" y="227.0586">Fermer</text><rect fill="#EEEEEE" height="19.9609" rx="5" ry="5" style="stroke:#000000;stroke-width:2.5;" width="92" x="68.5" y="212.1094"/><text fill="#000000" font-family="sans-serif" font-size="12" lengthAdjust="spacing" textLength="70" x="79.5" y="227.0586">Sauvegarder</text><!--SRC=[hPBDQjj04CVl-nH32iN6bMB9RGx2kA5MqkBQrCIfMp0-hAM9kaZU5VjX2AhUfxdd3VnY7IaMQG-vb2xiB3lpdzyCitjfBDVMyCAoYW5Kvn0V7omNXO6VCDvDOCfBwpH2tKG7PEYuROzs3KZ4apnw5SVnfDDsYmY9AfIECettayqmpxP_P0x-YYwf3O6WqQ9q-C_vKicEyGRMcYV_X_H9QUErk9T8TMlz5wpdFKskAxePlqv-O9BlkSvfnafQVNmiK6-9lu7n69wXDRbysXLhN1Mbxhf1D-hp9iFt_MtDEdYr-RubfYj1kWBUdrfh0jq3zQno5WsWAO-_4ZHzwELP7o9YdS7mxAbkm_CySfqCQwjVezwV-bnnTy2CwxIvrwncboZJzYknPS6b_RgOmm6r4JJ9m0-7uSWFWjutJ6659GGZ28THU16DHZ2zMjr28-YptiVb78noEa58XR5Qx9mbGf_D-873ZPDMx362BoNAMVovSy2LF0Yjv1wbPRFrubbmyTRx82oLrDGBh1SinZlk2aiPYKg5p2AOba7uBcHpBZF7CuBVQKRpeqUvZ-3wvZS0]--></g></svg>