<?xml version="1.0" encoding="us-ascii" standalone="no"?><svg xmlns="http://www.w3.org/2000/svg" xmlns:xlink="http://www.w3.org/1999/xlink" contentStyleType="text/css" height="267px" preserveAspectRatio="none" style="width:627px;height:267px;background:#FFFFFF;" version="1.1" viewBox="0 0 627 267" width="627px" zoomAndPan="magnify"><defs><filter height="1" id="b3wj75dmsmz7p0" width="1" x="0" y="0"><feFlood flood-color="#DDDDFF" result="flood"/><feComposite in="SourceGraphic" in2="flood" operator="over"/></filter></defs><g><text fill="#000000" font-family="sans-serif" font-size="12" lengthAdjust="spacing" textLength="39" x="8" y="18.9492">D&#233;tails</text><line style="stroke:#000000;stroke-width:1.0;" x1="6" x2="6" y1="6" y2="21.9609"/><line style="stroke:#000000;stroke-width:1.0;" x1="6" x2="50" y1="6" y2="6"/><line style="stroke:#000000;stroke-width:1.0;" x1="50" x2="50" y1="6" y2="21.9609"/><line style="stroke:#000000;stroke-width:1.0;" x1="50" x2="60" y1="21.9609" y2="21.9609"/><text fill="#000000" font-family="sans-serif" font-size="12" font-weight="bold" lengthAdjust="spacing" textLength="45" x="65" y="18.9492">Capture</text><line style="stroke:#000000;stroke-width:1.0;" x1="60" x2="60" y1="6" y2="21.9609"/><line style="stroke:#000000;stroke-width:1.0;" x1="60" x2="113" y1="6" y2="6"/><line style="stroke:#000000;stroke-width:1.0;" x1="113" x2="113" y1="6" y2="21.9609"/><line style="stroke:#000000;stroke-width:1.0;" x1="113" x2="123" y1="21.9609" y2="21.9609"/><text fill="#000000" filter="url(#b3wj75dmsmz7p0)" font-family="sans-serif" font-size="12" lengthAdjust="spacing" textLength="44" x="17" y="37.9102">Capture</text><text fill="#000000" font-family="sans-serif" font-size="12" lengthAdjust="spacing" textLength="77" x="27" y="53.8711">Partie retenue</text><text fill="#0000FF" font-family="sans-serif" font-size="12" font-style="italic" lengthAdjust="spacing" textLength="13" x="199" y="53.8711">[6]</text><text fill="#000000" font-family="sans-serif" font-size="12" lengthAdjust="spacing" textLength="138" x="37" y="69.832">Consommation humaine</text><text fill="#0000FF" font-family="sans-serif" font-size="12" font-style="italic" lengthAdjust="spacing" textLength="13" x="199" y="69.832">[2]</text><text fill="#000000" font-family="sans-serif" font-size="12" lengthAdjust="spacing" textLength="48" x="37" y="85.793">Industrie</text><text fill="#0000FF" font-family="sans-serif" font-size="12" font-style="italic" lengthAdjust="spacing" textLength="13" x="199" y="85.793">[2]</text><text fill="#000000" font-family="sans-serif" font-size="12" lengthAdjust="spacing" textLength="126" x="37" y="101.7539">Obligation &#224; d&#233;barquer</text><text fill="#0000FF" font-family="sans-serif" font-size="12" font-style="italic" lengthAdjust="spacing" textLength="13" x="199" y="101.7539">[2]</text><text fill="#000000" font-family="sans-serif" font-size="12" lengthAdjust="spacing" textLength="131" x="27" y="117.7148">Partie non retenue, Vrac</text><text fill="#808080" font-family="sans-serif" font-size="12" font-style="italic" lengthAdjust="spacing" textLength="13" x="199" y="117.7148">[0]</text><text fill="#000000" font-family="sans-serif" font-size="12" lengthAdjust="spacing" textLength="162" x="27" y="133.6758">Partie non retenue, Hors-Vrac</text><text fill="#808080" font-family="sans-serif" font-size="12" font-style="italic" lengthAdjust="spacing" textLength="13" x="199" y="133.6758">[0]</text><rect fill="none" height="2" style="stroke:#888888;stroke-width:1.0;" width="2" x="10" y="31.9414"/><rect fill="none" height="2" style="stroke:#888888;stroke-width:1.0;" width="2" x="20" y="47.9023"/><line style="stroke:#888888;stroke-width:1.0;" x1="11" x2="11" y1="34.9414" y2="48.9023"/><line style="stroke:#888888;stroke-width:1.0;" x1="11" x2="19" y1="48.9023" y2="48.9023"/><line style="stroke:#888888;stroke-width:1.0;" x1="21" x2="21" y1="50.9023" y2="64.8633"/><line style="stroke:#888888;stroke-width:1.0;" x1="21" x2="29" y1="64.8633" y2="64.8633"/><line style="stroke:#888888;stroke-width:1.0;" x1="21" x2="21" y1="50.9023" y2="80.8242"/><line style="stroke:#888888;stroke-width:1.0;" x1="21" x2="29" y1="80.8242" y2="80.8242"/><line style="stroke:#888888;stroke-width:1.0;" x1="21" x2="21" y1="50.9023" y2="96.7852"/><line style="stroke:#888888;stroke-width:1.0;" x1="21" x2="29" y1="96.7852" y2="96.7852"/><line style="stroke:#888888;stroke-width:1.0;" x1="11" x2="11" y1="34.9414" y2="112.7461"/><line style="stroke:#888888;stroke-width:1.0;" x1="11" x2="19" y1="112.7461" y2="112.7461"/><line style="stroke:#888888;stroke-width:1.0;" x1="11" x2="11" y1="34.9414" y2="128.707"/><line style="stroke:#888888;stroke-width:1.0;" x1="11" x2="19" y1="128.707" y2="128.707"/><line style="stroke:#AAAAAA;stroke-width:1.0;" x1="7" x2="215" y1="196.0703" y2="196.0703"/><rect fill="#EEEEEE" height="19.9609" rx="5" ry="5" style="stroke:#000000;stroke-width:2.5;" width="100" x="10.5" y="204.0703"/><text fill="#000000" font-family="sans-serif" font-size="12" lengthAdjust="spacing" textLength="51" x="36.5" y="219.0195">Contr&#244;ler</text><rect fill="#EEEEEE" height="19.9609" rx="5" ry="5" style="stroke:#000000;stroke-width:2.5;" width="36" x="117.5" y="204.0703"/><text fill="#000000" font-family="sans-serif" font-size="12" lengthAdjust="spacing" textLength="14" x="128.5" y="219.0195">&lt;&lt;</text><line style="stroke:#000000;stroke-width:1.0;" x1="6" x2="215" y1="23.9609" y2="23.9609"/><line style="stroke:#000000;stroke-width:1.0;" x1="6" x2="215" y1="228.5313" y2="228.5313"/><line style="stroke:#000000;stroke-width:1.0;" x1="6" x2="6" y1="23.9609" y2="137.6875"/><line style="stroke:#000000;stroke-width:1.0;" x1="215" x2="215" y1="137.6875" y2="155.6484"/><line style="stroke:#000000;stroke-width:1.0;" x1="215" x2="215" y1="23.9609" y2="137.6875"/><line style="stroke:#000000;stroke-width:1.0;" x1="6" x2="6" y1="199.5703" y2="228.5313"/><line style="stroke:#000000;stroke-width:1.0;" x1="6" x2="6" y1="191.5703" y2="199.5703"/><line style="stroke:#000000;stroke-width:1.0;" x1="215" x2="215" y1="199.5703" y2="228.5313"/><line style="stroke:#000000;stroke-width:1.0;" x1="6" x2="6" y1="173.6094" y2="191.5703"/><line style="stroke:#000000;stroke-width:1.0;" x1="215" x2="215" y1="191.5703" y2="199.5703"/><line style="stroke:#000000;stroke-width:1.0;" x1="6" x2="6" y1="155.6484" y2="173.6094"/><line style="stroke:#000000;stroke-width:1.0;" x1="215" x2="215" y1="173.6094" y2="191.5703"/><line style="stroke:#000000;stroke-width:1.0;" x1="6" x2="6" y1="137.6875" y2="155.6484"/><line style="stroke:#000000;stroke-width:1.0;" x1="215" x2="215" y1="155.6484" y2="173.6094"/><rect fill="#EEEEEE" height="19.9609" rx="5" ry="5" style="stroke:#000000;stroke-width:2.5;" width="60" x="233.5" y="28.4609"/><text fill="#000000" font-family="sans-serif" font-size="12" font-weight="bold" lengthAdjust="spacing" textLength="45" x="241" y="43.4102">Capture</text><text fill="#000000" font-family="sans-serif" font-size="12" lengthAdjust="spacing" textLength="3" x="298" y="38.9102">/</text><rect fill="#EEEEEE" height="19.9609" rx="5" ry="5" style="stroke:#000000;stroke-width:2.5;" width="28" x="305.5" y="28.4609"/><text fill="#000000" font-family="sans-serif" font-size="12" lengthAdjust="spacing" textLength="9" x="315" y="43.4102">...</text><text fill="#000000" font-family="sans-serif" font-size="12" lengthAdjust="spacing" textLength="60" x="251" y="67.8711">Coup nul ?</text><rect fill="none" height="10" style="stroke:#000000;stroke-width:1.5;" width="10" x="233" y="57.9023"/><text fill="#000000" font-family="sans-serif" font-size="12" lengthAdjust="spacing" textLength="170" x="231" y="87.832">Capture (toutes esp&#232;ces) (kg) :</text><text fill="#808080" font-family="sans-serif" font-size="12" lengthAdjust="spacing" textLength="126" x="406" y="87.832">Poids total capture (kg)</text><line style="stroke:#000000;stroke-width:1.0;" x1="404" x2="615" y1="90.8438" y2="90.8438"/><line style="stroke:#000000;stroke-width:1.0;" x1="404" x2="404" y1="87.8438" y2="89.8438"/><line style="stroke:#000000;stroke-width:1.0;" x1="615" x2="615" y1="87.8438" y2="89.8438"/><line style="stroke:#AAAAAA;stroke-width:1.0;" x1="6" x2="216" y1="234.0313" y2="234.0313"/><line style="stroke:#AAAAAA;stroke-width:1.0;" x1="217" x2="228" y1="234.0313" y2="234.0313"/><line style="stroke:#AAAAAA;stroke-width:1.0;" x1="229" x2="620" y1="234.0313" y2="234.0313"/><rect fill="#EEEEEE" height="19.9609" rx="5" ry="5" style="stroke:#000000;stroke-width:2.5;" width="52" x="9.5" y="242.0313"/><text fill="#000000" font-family="sans-serif" font-size="12" lengthAdjust="spacing" textLength="40" x="15.5" y="256.9805">Fermer</text><rect fill="#EEEEEE" height="19.9609" rx="5" ry="5" style="stroke:#000000;stroke-width:2.5;" width="92" x="68.5" y="242.0313"/><text fill="#000000" font-family="sans-serif" font-size="12" lengthAdjust="spacing" textLength="70" x="79.5" y="256.9805">Sauvegarder</text><!--SRC=[XPBFRjf04CRl-nIZLAf0r0wObeE5tAWGsb1GK4Zf0N5OsnDdXRrszmzIHFmkFJRtlW4lrbrZ9qrL9Ijvf5r_lszcTlPCAYgKfAaYUmAmFuNnuK5HbaguXs4Om8WMIWk4qlxjc03xQnljwXW5ZRR-c_5u4ZH2i-x1VPHqO64IC0I12hd6-joOis0OvMak_33L6Am7coUc0wESoppBg68vXrkTKSRnFv3t3BhWiPPAiDULbs7AagFvuIV4XuUGYXyQnSjSqmetMDtEErW96ZtBbmXw5woxht5VSY6T5-6oSd3_ZOvJJQ6sNm_VHhSORJCgje6zDYKElrCK6sExXk4G7grAEnVp7Scz8SDcQ5PyQW7NTJSbEGhMi35-kW2kK_XOLxDlnjnIkLOe0MLn-1MXR4DhcxJ1Doudy7SpYvp54bIkQ0fH0rlf2LIPgk0uXgi3gOgReCZgBfPKxp2X8hRxafJa37bSFLcoI2bNt-OpsA6GTfezr-jwVRVNQtt769POGAyFNjVt1dw_3wFpvJLOGPkqFYzc87Cj8eIOsLSJQliUscHATnIkD5SiGnyk2-JJyTVc0CxvZecSPyWLcQxcJuB1U-SJKoQbCBN0Qax6U4DrgWmHvJ7ZYG-ZekTzyCYCyaJJn9ZV269ks8pipeV9rHy0]--></g></svg>