<?xml version="1.0" encoding="us-ascii" standalone="no"?><svg xmlns="http://www.w3.org/2000/svg" xmlns:xlink="http://www.w3.org/1999/xlink" contentStyleType="text/css" height="283px" preserveAspectRatio="none" style="width:469px;height:283px;background:#FFFFFF;" version="1.1" viewBox="0 0 469 283" width="469px" zoomAndPan="magnify"><defs/><g><text fill="#000000" font-family="sans-serif" font-size="12" lengthAdjust="spacing" textLength="39" x="8" y="18.9492">D&#233;tails</text><line style="stroke:#000000;stroke-width:1.0;" x1="6" x2="6" y1="6" y2="21.9609"/><line style="stroke:#000000;stroke-width:1.0;" x1="6" x2="50" y1="6" y2="6"/><line style="stroke:#000000;stroke-width:1.0;" x1="50" x2="50" y1="6" y2="21.9609"/><line style="stroke:#000000;stroke-width:1.0;" x1="50" x2="60" y1="21.9609" y2="21.9609"/><text fill="#000000" font-family="sans-serif" font-size="12" font-weight="bold" lengthAdjust="spacing" textLength="45" x="65" y="18.9492">Capture</text><line style="stroke:#000000;stroke-width:1.0;" x1="60" x2="60" y1="6" y2="21.9609"/><line style="stroke:#000000;stroke-width:1.0;" x1="60" x2="113" y1="6" y2="6"/><line style="stroke:#000000;stroke-width:1.0;" x1="113" x2="113" y1="6" y2="21.9609"/><line style="stroke:#000000;stroke-width:1.0;" x1="113" x2="123" y1="21.9609" y2="21.9609"/><text fill="#000000" font-family="sans-serif" font-size="12" lengthAdjust="spacing" textLength="44" x="17" y="37.9102">Capture</text><text fill="#000000" font-family="sans-serif" font-size="12" lengthAdjust="spacing" textLength="77" x="27" y="53.8711">Partie retenue</text><text fill="#000000" font-family="sans-serif" font-size="12" lengthAdjust="spacing" textLength="31" x="37" y="69.832">Appat</text><text fill="#0000FF" font-family="sans-serif" font-size="12" font-style="italic" lengthAdjust="spacing" textLength="13" x="199" y="69.832">[1]</text><text fill="#000000" font-family="sans-serif" font-size="12" lengthAdjust="spacing" textLength="138" x="37" y="85.793">Consommation humaine</text><text fill="#0000FF" font-family="sans-serif" font-size="12" font-style="italic" lengthAdjust="spacing" textLength="13" x="199" y="85.793">[2]</text><text fill="#000000" font-family="sans-serif" font-size="12" lengthAdjust="spacing" textLength="46" x="37" y="101.7539">Godaille</text><text fill="#0000FF" font-family="sans-serif" font-size="12" font-style="italic" lengthAdjust="spacing" textLength="13" x="199" y="101.7539">[2]</text><text fill="#000000" font-family="sans-serif" font-size="12" lengthAdjust="spacing" textLength="126" x="37" y="117.7148">Obligation &#224; d&#233;barquer</text><text fill="#0000FF" font-family="sans-serif" font-size="12" font-style="italic" lengthAdjust="spacing" textLength="13" x="199" y="117.7148">[2]</text><text fill="#000000" font-family="sans-serif" font-size="12" lengthAdjust="spacing" textLength="131" x="27" y="133.6758">Partie non retenue, Vrac</text><text fill="#000000" font-family="sans-serif" font-size="12" lengthAdjust="spacing" textLength="162" x="27" y="149.6367">Partie non retenue, Hors-Vrac</text><rect fill="none" height="2" style="stroke:#888888;stroke-width:1.0;" width="2" x="10" y="31.9414"/><rect fill="none" height="2" style="stroke:#888888;stroke-width:1.0;" width="2" x="20" y="47.9023"/><line style="stroke:#888888;stroke-width:1.0;" x1="11" x2="11" y1="34.9414" y2="48.9023"/><line style="stroke:#888888;stroke-width:1.0;" x1="11" x2="19" y1="48.9023" y2="48.9023"/><line style="stroke:#888888;stroke-width:1.0;" x1="21" x2="21" y1="50.9023" y2="64.8633"/><line style="stroke:#888888;stroke-width:1.0;" x1="21" x2="29" y1="64.8633" y2="64.8633"/><line style="stroke:#888888;stroke-width:1.0;" x1="21" x2="21" y1="50.9023" y2="80.8242"/><line style="stroke:#888888;stroke-width:1.0;" x1="21" x2="29" y1="80.8242" y2="80.8242"/><line style="stroke:#888888;stroke-width:1.0;" x1="21" x2="21" y1="50.9023" y2="96.7852"/><line style="stroke:#888888;stroke-width:1.0;" x1="21" x2="29" y1="96.7852" y2="96.7852"/><line style="stroke:#888888;stroke-width:1.0;" x1="21" x2="21" y1="50.9023" y2="112.7461"/><line style="stroke:#888888;stroke-width:1.0;" x1="21" x2="29" y1="112.7461" y2="112.7461"/><line style="stroke:#888888;stroke-width:1.0;" x1="11" x2="11" y1="34.9414" y2="128.707"/><line style="stroke:#888888;stroke-width:1.0;" x1="11" x2="19" y1="128.707" y2="128.707"/><line style="stroke:#888888;stroke-width:1.0;" x1="11" x2="11" y1="34.9414" y2="144.668"/><line style="stroke:#888888;stroke-width:1.0;" x1="11" x2="19" y1="144.668" y2="144.668"/><line style="stroke:#AAAAAA;stroke-width:1.0;" x1="7" x2="215" y1="212.0313" y2="212.0313"/><rect fill="#EEEEEE" height="19.9609" rx="5" ry="5" style="stroke:#000000;stroke-width:2.5;" width="100" x="10.5" y="220.0313"/><text fill="#000000" font-family="sans-serif" font-size="12" lengthAdjust="spacing" textLength="51" x="36.5" y="234.9805">Contr&#244;ler</text><rect fill="#EEEEEE" height="19.9609" rx="5" ry="5" style="stroke:#000000;stroke-width:2.5;" width="36" x="117.5" y="220.0313"/><text fill="#000000" font-family="sans-serif" font-size="12" font-weight="bold" lengthAdjust="spacing" textLength="14" x="128.5" y="234.9805">&lt;&lt;</text><line style="stroke:#000000;stroke-width:1.0;" x1="6" x2="215" y1="23.9609" y2="23.9609"/><line style="stroke:#000000;stroke-width:1.0;" x1="6" x2="215" y1="244.4922" y2="244.4922"/><line style="stroke:#000000;stroke-width:1.0;" x1="6" x2="6" y1="23.9609" y2="153.6484"/><line style="stroke:#000000;stroke-width:1.0;" x1="215" x2="215" y1="153.6484" y2="171.6094"/><line style="stroke:#000000;stroke-width:1.0;" x1="215" x2="215" y1="23.9609" y2="153.6484"/><line style="stroke:#000000;stroke-width:1.0;" x1="6" x2="6" y1="215.5313" y2="244.4922"/><line style="stroke:#000000;stroke-width:1.0;" x1="6" x2="6" y1="207.5313" y2="215.5313"/><line style="stroke:#000000;stroke-width:1.0;" x1="215" x2="215" y1="215.5313" y2="244.4922"/><line style="stroke:#000000;stroke-width:1.0;" x1="6" x2="6" y1="189.5703" y2="207.5313"/><line style="stroke:#000000;stroke-width:1.0;" x1="215" x2="215" y1="207.5313" y2="215.5313"/><line style="stroke:#000000;stroke-width:1.0;" x1="6" x2="6" y1="171.6094" y2="189.5703"/><line style="stroke:#000000;stroke-width:1.0;" x1="215" x2="215" y1="189.5703" y2="207.5313"/><line style="stroke:#000000;stroke-width:1.0;" x1="6" x2="6" y1="153.6484" y2="171.6094"/><line style="stroke:#000000;stroke-width:1.0;" x1="215" x2="215" y1="171.6094" y2="189.5703"/><rect fill="#EEEEEE" height="19.9609" rx="5" ry="5" style="stroke:#000000;stroke-width:2.5;" width="60" x="233.5" y="28.4609"/><text fill="#000000" font-family="sans-serif" font-size="12" lengthAdjust="spacing" textLength="44" x="241.5" y="43.4102">Capture</text><text fill="#000000" font-family="sans-serif" font-size="12" lengthAdjust="spacing" textLength="3" x="298" y="38.9102">/</text><rect fill="#EEEEEE" height="19.9609" rx="5" ry="5" style="stroke:#000000;stroke-width:2.5;" width="116" x="305.5" y="28.4609"/><text fill="#000000" font-family="sans-serif" font-size="12" font-weight="bold" lengthAdjust="spacing" textLength="81" x="323" y="43.4102">Partie retenue</text><rect fill="#EEEEEE" height="19.9609" rx="5" ry="5" style="stroke:#000000;stroke-width:2.5;" width="28" x="428.5" y="28.4609"/><text fill="#000000" font-family="sans-serif" font-size="12" lengthAdjust="spacing" textLength="9" x="438" y="43.4102">...</text><line style="stroke:#AAAAAA;stroke-width:1.0;" x1="6" x2="216" y1="249.9922" y2="249.9922"/><line style="stroke:#AAAAAA;stroke-width:1.0;" x1="217" x2="228" y1="249.9922" y2="249.9922"/><line style="stroke:#AAAAAA;stroke-width:1.0;" x1="229" x2="462" y1="249.9922" y2="249.9922"/><rect fill="#EEEEEE" height="19.9609" rx="5" ry="5" style="stroke:#000000;stroke-width:2.5;" width="52" x="9.5" y="257.9922"/><text fill="#000000" font-family="sans-serif" font-size="12" lengthAdjust="spacing" textLength="40" x="15.5" y="272.9414">Fermer</text><rect fill="#EEEEEE" height="19.9609" rx="5" ry="5" style="stroke:#000000;stroke-width:2.5;" width="92" x="68.5" y="257.9922"/><text fill="#000000" font-family="sans-serif" font-size="12" lengthAdjust="spacing" textLength="70" x="79.5" y="272.9414">Sauvegarder</text><!--SRC=[XL91Rjim4Bpp5Nig4hXI8hdDGH2Cj7AImhKH8qxTW-439MqK8XAfhaW3XQE_z9fxV-2FbLJaf2aAc007uExCSBdByqPpqWqlDTioWEq9Z7TFcekoWKU8qn4alDQ645gN7LY0xQr3jmOlMRiUmN-93s1kNGK2eKPfy3KnW4zrpRKp5wCuKwMYA2qDZbR1-czMecIZgefheIJScueBYVyHXMz4LogtbPU7YTTfAOfdxzqlo7TFAQSV1kc0SFygQNNzozx3adXsWF95KUFjUMr7zlz5p-jwspkjudVPFMOF5QU7aMk6fjtl4cbjArovkSGnhFTkhUkztS_YBQpwgJZoYHDO_jjvT3Q-xw-jtXauy3mRx85rDfT8LN_bWfiD5fnoTsvPoyvHvjslOVEII_rjDeKDKkCw6lZXQJZqW-3eE-Qmm1g28OIdKNWM3OUGN2nkmH6EsT7LV0gDCfGXvABH95BZPdBC9dp3uSP8BIgCuBf6EHb_tGVWGcu4ALcXr6oodBqIpZvuduMsLvAj1POpDiOxRafj5PdAXImYIEeW_1YoAPU5uOKrloEMA6jCFoEulFa3]--></g></svg>