<?xml version="1.0" encoding="UTF-8" standalone="no"?><svg xmlns="http://www.w3.org/2000/svg" xmlns:xlink="http://www.w3.org/1999/xlink" contentStyleType="text/css" height="242px" preserveAspectRatio="none" style="width:458px;height:242px;background:#FFFFFF;" version="1.1" viewBox="0 0 458 242" width="458px" zoomAndPan="magnify"><defs><filter height="1" id="bt4cq83rkk0dp0" width="1" x="0" y="0"><feFlood flood-color="#DDDDDD" result="flood"/><feComposite in="SourceGraphic" in2="flood" operator="over"/></filter></defs><g><text fill="#000000" font-family="sans-serif" font-size="12" lengthAdjust="spacing" textLength="39" x="8" y="18.8281">Détails</text><line style="stroke:#000000;stroke-width:1.0;" x1="6" x2="6" y1="6" y2="22.3441"/><line style="stroke:#000000;stroke-width:1.0;" x1="6" x2="50" y1="6" y2="6"/><line style="stroke:#000000;stroke-width:1.0;" x1="50" x2="50" y1="6" y2="22.3441"/><line style="stroke:#000000;stroke-width:1.0;" x1="50" x2="60" y1="22.3441" y2="22.3441"/><text fill="#000000" font-family="sans-serif" font-size="12" font-weight="bold" lengthAdjust="spacing" textLength="48" x="65" y="18.8281">Capture</text><line style="stroke:#000000;stroke-width:1.0;" x1="60" x2="60" y1="6" y2="22.3441"/><line style="stroke:#000000;stroke-width:1.0;" x1="60" x2="116" y1="6" y2="6"/><line style="stroke:#000000;stroke-width:1.0;" x1="116" x2="116" y1="6" y2="22.3441"/><line style="stroke:#000000;stroke-width:1.0;" x1="116" x2="126" y1="22.3441" y2="22.3441"/><text fill="#000000" filter="url(#bt4cq83rkk0dp0)" font-family="sans-serif" font-size="12" lengthAdjust="spacing" textLength="45" x="17" y="38.1722">Capture</text><text fill="#000000" font-family="sans-serif" font-size="12" lengthAdjust="spacing" textLength="80" x="27" y="54.5163">Partie retenue</text><text fill="#000000" font-family="sans-serif" font-size="12" lengthAdjust="spacing" textLength="135" x="27" y="70.8604">Partie non retenue, Vrac</text><text fill="#000000" font-family="sans-serif" font-size="12" lengthAdjust="spacing" textLength="166" x="27" y="87.2045">Partie non retenue, Hors-Vrac</text><rect fill="none" height="2" style="stroke:#888888;stroke-width:1.0;" width="2" x="10" y="32.5162"/><line style="stroke:#888888;stroke-width:1.0;" x1="11" x2="11" y1="35.5162" y2="49.8603"/><line style="stroke:#888888;stroke-width:1.0;" x1="11" x2="19" y1="49.8603" y2="49.8603"/><line style="stroke:#888888;stroke-width:1.0;" x1="11" x2="11" y1="35.5162" y2="66.2044"/><line style="stroke:#888888;stroke-width:1.0;" x1="11" x2="19" y1="66.2044" y2="66.2044"/><line style="stroke:#888888;stroke-width:1.0;" x1="11" x2="11" y1="35.5162" y2="82.5485"/><line style="stroke:#888888;stroke-width:1.0;" x1="11" x2="19" y1="82.5485" y2="82.5485"/><line style="stroke:#AAAAAA;stroke-width:1.0;" x1="7" x2="196" y1="169.597" y2="169.597"/><rect fill="#EEEEEE" height="20.3441" rx="5" ry="5" style="stroke:#000000;stroke-width:2.5;" width="100" x="10.5" y="177.597"/><text fill="#000000" font-family="sans-serif" font-size="12" lengthAdjust="spacing" textLength="53" x="35.5" y="192.4251">Contrôler</text><rect fill="#EEEEEE" height="20.3441" rx="5" ry="5" style="stroke:#000000;stroke-width:2.5;" width="36" x="117.5" y="177.597"/><text fill="#000000" font-family="sans-serif" font-size="12" font-weight="bold" lengthAdjust="spacing" textLength="14" x="128.5" y="192.4251">&lt;&lt;</text><line style="stroke:#000000;stroke-width:1.0;" x1="6" x2="196" y1="24.3441" y2="24.3441"/><line style="stroke:#000000;stroke-width:1.0;" x1="6" x2="196" y1="202.4411" y2="202.4411"/><line style="stroke:#000000;stroke-width:1.0;" x1="6" x2="6" y1="24.3441" y2="91.7206"/><line style="stroke:#000000;stroke-width:1.0;" x1="196" x2="196" y1="24.3441" y2="91.7206"/><line style="stroke:#000000;stroke-width:1.0;" x1="6" x2="6" y1="165.097" y2="173.097"/><line style="stroke:#000000;stroke-width:1.0;" x1="196" x2="196" y1="165.097" y2="173.097"/><line style="stroke:#000000;stroke-width:1.0;" x1="6" x2="6" y1="128.4088" y2="146.7529"/><line style="stroke:#000000;stroke-width:1.0;" x1="196" x2="196" y1="128.4088" y2="146.7529"/><line style="stroke:#000000;stroke-width:1.0;" x1="6" x2="6" y1="91.7206" y2="110.0647"/><line style="stroke:#000000;stroke-width:1.0;" x1="196" x2="196" y1="91.7206" y2="110.0647"/><line style="stroke:#000000;stroke-width:1.0;" x1="6" x2="6" y1="173.097" y2="202.4411"/><line style="stroke:#000000;stroke-width:1.0;" x1="196" x2="196" y1="173.097" y2="202.4411"/><line style="stroke:#000000;stroke-width:1.0;" x1="6" x2="6" y1="146.7529" y2="165.097"/><line style="stroke:#000000;stroke-width:1.0;" x1="196" x2="196" y1="146.7529" y2="165.097"/><line style="stroke:#000000;stroke-width:1.0;" x1="6" x2="6" y1="110.0647" y2="128.4088"/><line style="stroke:#000000;stroke-width:1.0;" x1="196" x2="196" y1="110.0647" y2="128.4088"/><rect fill="#EEEEEE" height="20.3441" rx="5" ry="5" style="stroke:#000000;stroke-width:2.5;" width="60" x="214.5" y="28.8441"/><text fill="#000000" font-family="sans-serif" font-size="12" font-weight="bold" lengthAdjust="spacing" textLength="48" x="220.5" y="43.6722">Capture</text><text fill="#000000" font-family="sans-serif" font-size="12" lengthAdjust="spacing" textLength="4" x="279" y="39.1722">/</text><rect fill="#EEEEEE" height="20.3441" rx="5" ry="5" style="stroke:#000000;stroke-width:2.5;" width="28" x="287.5" y="28.8441"/><text fill="#000000" font-family="sans-serif" font-size="12" lengthAdjust="spacing" textLength="9" x="297" y="43.6722">...</text><rect fill="#EEEEEE" height="12" rx="5" ry="5" style="stroke:#000000;stroke-width:2.5;" width="20" x="363.5" y="29.8441"/><path d="M373.5,31.8441 L369.5,35.8441 L373.5,39.8441 L375,38.3441 L372.5,35.8441 L375,33.3441 L373.5,31.8441 " fill="#000000" style="stroke:;stroke-width:0.0;stroke-dasharray:;"/><rect fill="#EEEEEE" height="12" rx="5" ry="5" style="stroke:#000000;stroke-width:2.5;" width="20" x="390.5" y="29.8441"/><path d="M398,31.8441 L396.5,33.3441 L399,35.8441 L396.5,38.3441 L398,39.8441 L402,35.8441 L398,31.8441 " fill="#000000" style="stroke:;stroke-width:0.0;stroke-dasharray:;"/><rect fill="#DDDDDD" height="17.3441" style="stroke:#000000;stroke-width:1.0;" width="34" x="285" y="53.6882"/><rect fill="#BBBBBB" height="16.3441" style="stroke:#000000;stroke-width:1.0;" width="9" x="285" y="53.6882"/><text fill="#000000" font-family="sans-serif" font-size="12" lengthAdjust="spacing" textLength="9" x="285" y="66.5163">...</text><text fill="#000000" font-family="sans-serif" font-size="12" lengthAdjust="spacing" textLength="57" x="232" y="86.8604">Coup nul ?</text><rect fill="none" height="10" style="stroke:#000000;stroke-width:1.5;" width="10" x="214" y="77.2044"/><polygon fill="#000000" points="215,80.0323,218,83.0323,225,74.0323,218,81.0323" style="stroke:#000000;stroke-width:1.5;"/><text fill="#000000" font-family="sans-serif" font-size="12" lengthAdjust="spacing" textLength="170" x="212" y="107.2045">Capture (toutes espèces) (kg) :</text><text fill="#000000" font-family="sans-serif" font-size="12" lengthAdjust="spacing" textLength="7" x="387" y="107.2045">0</text><line style="stroke:#000000;stroke-width:1.0;" x1="385" x2="404" y1="110.7206" y2="110.7206"/><line style="stroke:#000000;stroke-width:1.0;" x1="385" x2="385" y1="107.7206" y2="109.7206"/><line style="stroke:#000000;stroke-width:1.0;" x1="404" x2="404" y1="107.7206" y2="109.7206"/><line style="stroke:#AAAAAA;stroke-width:1.0;" x1="6" x2="197" y1="207.9411" y2="207.9411"/><line style="stroke:#AAAAAA;stroke-width:1.0;" x1="198" x2="209" y1="207.9411" y2="207.9411"/><line style="stroke:#AAAAAA;stroke-width:1.0;" x1="210" x2="417" y1="207.9411" y2="207.9411"/><rect fill="#EEEEEE" height="20.3441" rx="5" ry="5" style="stroke:#000000;stroke-width:2.5;" width="52" x="9.5" y="215.9411"/><text fill="#000000" font-family="sans-serif" font-size="12" lengthAdjust="spacing" textLength="41" x="15" y="230.7692">Fermer</text><rect fill="#EEEEEE" height="20.3441" rx="5" ry="5" style="stroke:#000000;stroke-width:2.5;" width="92" x="68.5" y="215.9411"/><text fill="#000000" font-family="sans-serif" font-size="12" lengthAdjust="spacing" textLength="72" x="78.5" y="230.7692">Sauvegarder</text><rect fill="#DDDDDD" height="49.0323" style="stroke:#000000;stroke-width:1.0;" width="166" x="285" y="70.0323"/><text fill="#000000" font-family="sans-serif" font-size="12" lengthAdjust="spacing" textLength="80" x="285" y="82.8604">Partie retenue</text><text fill="#000000" font-family="sans-serif" font-size="12" lengthAdjust="spacing" textLength="135" x="285" y="99.2045">Partie non retenue, Vrac</text><text fill="#000000" font-family="sans-serif" font-size="12" lengthAdjust="spacing" textLength="166" x="285" y="115.5487">Partie non retenue, Hors-Vrac</text></g></svg>