<?xml version="1.0" encoding="us-ascii" standalone="no"?><svg xmlns="http://www.w3.org/2000/svg" xmlns:xlink="http://www.w3.org/1999/xlink" contentStyleType="text/css" height="283px" preserveAspectRatio="none" style="width:746px;height:283px;background:#FFFFFF;" version="1.1" viewBox="0 0 746 283" width="746px" zoomAndPan="magnify"><defs><filter height="1" id="bx4vcis8o23bh0" width="1" x="0" y="0"><feFlood flood-color="#DDDDDD" result="flood"/><feComposite in="SourceGraphic" in2="flood" operator="over"/></filter></defs><g><text fill="#000000" font-family="sans-serif" font-size="12" lengthAdjust="spacing" textLength="39" x="8" y="18.9492">D&#233;tails</text><line style="stroke:#000000;stroke-width:1.0;" x1="6" x2="6" y1="6" y2="21.9609"/><line style="stroke:#000000;stroke-width:1.0;" x1="6" x2="50" y1="6" y2="6"/><line style="stroke:#000000;stroke-width:1.0;" x1="50" x2="50" y1="6" y2="21.9609"/><line style="stroke:#000000;stroke-width:1.0;" x1="50" x2="60" y1="21.9609" y2="21.9609"/><text fill="#000000" font-family="sans-serif" font-size="12" font-weight="bold" lengthAdjust="spacing" textLength="45" x="65" y="18.9492">Capture</text><line style="stroke:#000000;stroke-width:1.0;" x1="60" x2="60" y1="6" y2="21.9609"/><line style="stroke:#000000;stroke-width:1.0;" x1="60" x2="113" y1="6" y2="6"/><line style="stroke:#000000;stroke-width:1.0;" x1="113" x2="113" y1="6" y2="21.9609"/><line style="stroke:#000000;stroke-width:1.0;" x1="113" x2="123" y1="21.9609" y2="21.9609"/><text fill="#000000" font-family="sans-serif" font-size="12" lengthAdjust="spacing" textLength="44" x="17" y="37.9102">Capture</text><text fill="#000000" font-family="sans-serif" font-size="12" lengthAdjust="spacing" textLength="77" x="27" y="53.8711">Partie retenue</text><text fill="#000000" font-family="sans-serif" font-size="12" lengthAdjust="spacing" textLength="131" x="27" y="69.832">Partie non retenue, Vrac</text><text fill="#000000" font-family="sans-serif" font-size="12" lengthAdjust="spacing" textLength="42" x="37" y="85.793">D&#233;taill&#233;</text><text fill="#000000" font-family="sans-serif" font-size="12" lengthAdjust="spacing" textLength="47" x="47" y="101.7539">Animaux</text><text fill="#000000" font-family="sans-serif" font-size="12" lengthAdjust="spacing" textLength="13" x="241" y="101.7539">[0]</text><text fill="#000000" font-family="sans-serif" font-size="12" lengthAdjust="spacing" textLength="184" x="47" y="117.7148">Ecosyst&#232;mes Marins Vuln&#233;rables</text><text fill="#000000" font-family="sans-serif" font-size="12" lengthAdjust="spacing" textLength="13" x="241" y="117.7148">[0]</text><text fill="#000000" filter="url(#bx4vcis8o23bh0)" font-family="sans-serif" font-size="12" lengthAdjust="spacing" textLength="66" x="37" y="133.6758">Non d&#233;taill&#233;</text><text fill="#0000FF" font-family="sans-serif" font-size="12" font-style="italic" lengthAdjust="spacing" textLength="13" x="241" y="133.6758">[2]</text><text fill="#000000" font-family="sans-serif" font-size="12" lengthAdjust="spacing" textLength="162" x="27" y="149.6367">Partie non retenue, Hors-Vrac</text><rect fill="none" height="2" style="stroke:#888888;stroke-width:1.0;" width="2" x="10" y="31.9414"/><line style="stroke:#888888;stroke-width:1.0;" x1="11" x2="11" y1="34.9414" y2="48.9023"/><line style="stroke:#888888;stroke-width:1.0;" x1="11" x2="19" y1="48.9023" y2="48.9023"/><rect fill="none" height="2" style="stroke:#888888;stroke-width:1.0;" width="2" x="20" y="63.8633"/><line style="stroke:#888888;stroke-width:1.0;" x1="11" x2="11" y1="34.9414" y2="64.8633"/><line style="stroke:#888888;stroke-width:1.0;" x1="11" x2="19" y1="64.8633" y2="64.8633"/><rect fill="none" height="2" style="stroke:#888888;stroke-width:1.0;" width="2" x="30" y="79.8242"/><line style="stroke:#888888;stroke-width:1.0;" x1="21" x2="21" y1="66.8633" y2="80.8242"/><line style="stroke:#888888;stroke-width:1.0;" x1="21" x2="29" y1="80.8242" y2="80.8242"/><line style="stroke:#888888;stroke-width:1.0;" x1="31" x2="31" y1="82.8242" y2="96.7852"/><line style="stroke:#888888;stroke-width:1.0;" x1="31" x2="39" y1="96.7852" y2="96.7852"/><line style="stroke:#888888;stroke-width:1.0;" x1="31" x2="31" y1="82.8242" y2="112.7461"/><line style="stroke:#888888;stroke-width:1.0;" x1="31" x2="39" y1="112.7461" y2="112.7461"/><line style="stroke:#888888;stroke-width:1.0;" x1="21" x2="21" y1="66.8633" y2="128.707"/><line style="stroke:#888888;stroke-width:1.0;" x1="21" x2="29" y1="128.707" y2="128.707"/><line style="stroke:#888888;stroke-width:1.0;" x1="11" x2="11" y1="34.9414" y2="144.668"/><line style="stroke:#888888;stroke-width:1.0;" x1="11" x2="19" y1="144.668" y2="144.668"/><line style="stroke:#AAAAAA;stroke-width:1.0;" x1="7" x2="257" y1="212.0313" y2="212.0313"/><rect fill="#EEEEEE" height="19.9609" rx="5" ry="5" style="stroke:#000000;stroke-width:2.5;" width="100" x="10.5" y="220.0313"/><text fill="#000000" font-family="sans-serif" font-size="12" lengthAdjust="spacing" textLength="51" x="36.5" y="234.9805">Contr&#244;ler</text><rect fill="#EEEEEE" height="19.9609" rx="5" ry="5" style="stroke:#000000;stroke-width:2.5;" width="36" x="117.5" y="220.0313"/><text fill="#000000" font-family="sans-serif" font-size="12" font-weight="bold" lengthAdjust="spacing" textLength="14" x="128.5" y="234.9805">&lt;&lt;</text><line style="stroke:#000000;stroke-width:1.0;" x1="6" x2="257" y1="23.9609" y2="23.9609"/><line style="stroke:#000000;stroke-width:1.0;" x1="6" x2="257" y1="244.4922" y2="244.4922"/><line style="stroke:#000000;stroke-width:1.0;" x1="6" x2="6" y1="23.9609" y2="153.6484"/><line style="stroke:#000000;stroke-width:1.0;" x1="257" x2="257" y1="153.6484" y2="171.6094"/><line style="stroke:#000000;stroke-width:1.0;" x1="257" x2="257" y1="23.9609" y2="153.6484"/><line style="stroke:#000000;stroke-width:1.0;" x1="6" x2="6" y1="215.5313" y2="244.4922"/><line style="stroke:#000000;stroke-width:1.0;" x1="6" x2="6" y1="207.5313" y2="215.5313"/><line style="stroke:#000000;stroke-width:1.0;" x1="257" x2="257" y1="215.5313" y2="244.4922"/><line style="stroke:#000000;stroke-width:1.0;" x1="6" x2="6" y1="189.5703" y2="207.5313"/><line style="stroke:#000000;stroke-width:1.0;" x1="257" x2="257" y1="207.5313" y2="215.5313"/><line style="stroke:#000000;stroke-width:1.0;" x1="6" x2="6" y1="171.6094" y2="189.5703"/><line style="stroke:#000000;stroke-width:1.0;" x1="257" x2="257" y1="189.5703" y2="207.5313"/><line style="stroke:#000000;stroke-width:1.0;" x1="6" x2="6" y1="153.6484" y2="171.6094"/><line style="stroke:#000000;stroke-width:1.0;" x1="257" x2="257" y1="171.6094" y2="189.5703"/><rect fill="#EEEEEE" height="19.9609" rx="5" ry="5" style="stroke:#000000;stroke-width:2.5;" width="60" x="275.5" y="28.4609"/><text fill="#000000" font-family="sans-serif" font-size="12" lengthAdjust="spacing" textLength="44" x="283.5" y="43.4102">Capture</text><text fill="#000000" font-family="sans-serif" font-size="12" lengthAdjust="spacing" textLength="3" x="340" y="38.9102">/</text><rect fill="#EEEEEE" height="19.9609" rx="5" ry="5" style="stroke:#000000;stroke-width:2.5;" width="196" x="347.5" y="28.4609"/><text fill="#000000" font-family="sans-serif" font-size="12" lengthAdjust="spacing" textLength="131" x="380" y="43.4102">Partie non retenue, Vrac</text><rect fill="#EEEEEE" height="19.9609" rx="5" ry="5" style="stroke:#000000;stroke-width:2.5;" width="100" x="550.5" y="28.4609"/><text fill="#000000" font-family="sans-serif" font-size="12" font-weight="bold" lengthAdjust="spacing" textLength="66" x="567.5" y="43.4102">Non d&#233;taill&#233;</text><text fill="#000000" font-family="sans-serif" font-size="12" lengthAdjust="spacing" textLength="15" x="655" y="38.9102">(2)</text><rect fill="#EEEEEE" height="12" rx="5" ry="5" style="stroke:#000000;stroke-width:2.5;" width="20" x="685.5" y="29.4609"/><path d="M695.5,31.4609 L691.5,35.4609 L695.5,39.4609 L697,37.9609 L694.5,35.4609 L697,32.9609 L695.5,31.4609 " fill="#000000" style="stroke:;stroke-width:0.0;stroke-dasharray:;"/><rect fill="#EEEEEE" height="12" rx="5" ry="5" style="stroke:#000000;stroke-width:2.5;" width="20" x="712.5" y="29.4609"/><path d="M720,31.4609 L718.5,32.9609 L721,35.4609 L718.5,37.9609 L720,39.4609 L724,35.4609 L720,31.4609 " fill="#000000" style="stroke:;stroke-width:0.0;stroke-dasharray:;"/><rect fill="#EEEEEE" height="12" rx="5" ry="5" style="stroke:#000000;stroke-width:2.5;" width="36" x="285.5" y="76.3828"/><path d="M302.5,78.3828 L302.5,81.3828 L299.5,81.3828 L299.5,83.3828 L302.5,83.3828 L302.5,86.3828 L304.5,86.3828 L304.5,83.3828 L307.5,83.3828 L307.5,81.3828 L304.5,81.3828 L304.5,78.3828 L302.5,78.3828 " fill="#000000" style="stroke:;stroke-width:0.0;stroke-dasharray:;"/><rect fill="#EEEEEE" height="19.9609" rx="5" ry="5" style="stroke:#000000;stroke-width:2.5;" width="44" x="328.5" y="76.3828"/><text fill="#000000" font-family="sans-serif" font-size="12" font-weight="bold" lengthAdjust="spacing" textLength="8" x="339.5" y="91.332">((</text><path d="M351.5,83.3438 L351.5,86.3438 L348.5,86.3438 L348.5,88.3438 L351.5,88.3438 L351.5,91.3438 L353.5,91.3438 L353.5,88.3438 L356.5,88.3438 L356.5,86.3438 L353.5,86.3438 L353.5,83.3438 L351.5,83.3438 " fill="#000000" style="stroke:;stroke-width:0.0;stroke-dasharray:;"/><text fill="#000000" font-family="sans-serif" font-size="12" font-weight="bold" lengthAdjust="spacing" textLength="4" x="357.5" y="91.332">)</text><rect fill="#EEEEEE" height="12" rx="5" ry="5" style="stroke:#000000;stroke-width:2.5;" width="36" x="379.5" y="76.3828"/><path d="M396.5,78.3828 C395.95,78.3828 395.5,78.8328 395.5,79.3828 L394.5,79.3828 C393.95,79.3828 393.5,79.8328 393.5,80.3828 L400.5,80.3828 C400.5,79.8328 400.05,79.3828 399.5,79.3828 L398.5,79.3828 C398.5,78.8328 398.05,78.3828 397.5,78.3828 L396.5,78.3828 M394.5,81.3828 L394.5,86.1928 C394.5,86.3028 394.58,86.3828 394.69,86.3828 L399.32,86.3828 C399.43,86.3828 399.51,86.3028 399.51,86.1928 L399.51,81.3828 L398.51,81.3828 L398.51,84.8828 C398.51,85.1628 398.29,85.3828 398.01,85.3828 C397.73,85.3828 397.51,85.1628 397.51,84.8828 L397.51,81.3828 L396.51,81.3828 L396.51,84.8828 C396.51,85.1628 396.29,85.3828 396.01,85.3828 C395.73,85.3828 395.51,85.1628 395.51,84.8828 L395.51,81.3828 L394.51,81.3828 " fill="#000000" style="stroke:;stroke-width:0.0;stroke-dasharray:;"/><text fill="#000000" font-family="sans-serif" font-size="12" lengthAdjust="spacing" textLength="7" x="273" y="114.793">#</text><text fill="#000000" font-family="sans-serif" font-size="12" font-weight="bold" lengthAdjust="spacing" textLength="98" x="282" y="114.793">Nature des rejets</text><text fill="#000000" font-family="sans-serif" font-size="12" font-weight="bold" lengthAdjust="spacing" textLength="85" x="508" y="114.793">Poids total (kg)</text><path d="M596,101.8438 L596,102.8438 L604,102.8438 L604,101.8438 L596,101.8438 M596,104.8138 L596,105.8138 L604,105.8138 L604,104.8138 L596,104.8138 M596,107.8138 L596,108.8138 L604,108.8138 L604,107.8138 L596,107.8138 " fill="#000000" style="stroke:;stroke-width:0.0;stroke-dasharray:;"/><text fill="#000000" font-family="sans-serif" font-size="12" lengthAdjust="spacing" textLength="7" x="273" y="132.7539">1</text><rect fill="#EEEEEE" height="18.9609" style="stroke:#000000;stroke-width:1.0;" width="127" x="282" y="119.8047"/><text fill="#000000" font-family="sans-serif" font-size="12" lengthAdjust="spacing" textLength="76" x="284" y="134.7539">ANI - Animaux</text><line style="stroke:#000000;stroke-width:1.0;" x1="398" x2="398" y1="119.8047" y2="138.7656"/><polygon fill="#000000" points="401,125.8047,407,125.8047,404,133.7656" style="stroke:#000000;stroke-width:1.0;"/><text fill="#000000" font-family="sans-serif" font-size="12" lengthAdjust="spacing" textLength="14" x="508" y="132.7539">10</text><path d="M596.09,124.7656 C596.03,124.7656 596,124.8056 596,124.8556 L596,130.6656 C596,130.7156 596.04,130.7556 596.09,130.7556 L602,130.7556 L604,132.7556 L604,124.8456 C604,124.7856 603.96,124.7556 603.91,124.7556 L596.1,124.7556 " fill="#000000" style="stroke:;stroke-width:0.0;stroke-dasharray:;"/><text fill="#000000" font-family="sans-serif" font-size="12" lengthAdjust="spacing" textLength="3" x="605" y="132.7539">&#160;</text><path d="M609,124.7656 L609,132.7656 L617,132.7656 L617,124.7656 L609,124.7656 M610,125.7656 L616,125.7656 L616,128.7656 L615,127.7656 L614,128.7656 L616,130.7656 L616,131.7656 L615,131.7656 L611,127.7656 L610,128.7656 L610,125.7656 " fill="#000000" style="stroke:;stroke-width:0.0;stroke-dasharray:;"/><text fill="#000000" font-family="sans-serif" font-size="12" lengthAdjust="spacing" textLength="7" x="273" y="154.7148">2</text><rect fill="#EEEEEE" height="18.9609" style="stroke:#000000;stroke-width:1.0;" width="223" x="282" y="141.7656"/><text fill="#000000" font-family="sans-serif" font-size="12" lengthAdjust="spacing" textLength="124" x="284" y="156.7148">INV - Inerte et v&#233;g&#233;taux</text><line style="stroke:#000000;stroke-width:1.0;" x1="494" x2="494" y1="141.7656" y2="160.7266"/><polygon fill="#000000" points="497,147.7656,503,147.7656,500,155.7266" style="stroke:#000000;stroke-width:1.0;"/><text fill="#000000" font-family="sans-serif" font-size="12" lengthAdjust="spacing" textLength="14" x="508" y="154.7148">10</text><path d="M596.09,146.7266 C596.03,146.7266 596,146.7666 596,146.8166 L596,152.6266 C596,152.6766 596.04,152.7166 596.09,152.7166 L602,152.7166 L604,154.7166 L604,146.8066 C604,146.7466 603.96,146.7166 603.91,146.7166 L596.1,146.7166 " fill="#000000" style="stroke:;stroke-width:0.0;stroke-dasharray:;"/><text fill="#000000" font-family="sans-serif" font-size="12" lengthAdjust="spacing" textLength="3" x="605" y="154.7148">&#160;</text><path d="M609,146.7266 L609,154.7266 L617,154.7266 L617,146.7266 L609,146.7266 M610,147.7266 L616,147.7266 L616,150.7266 L615,149.7266 L614,150.7266 L616,152.7266 L616,153.7266 L615,153.7266 L611,149.7266 L610,150.7266 L610,147.7266 " fill="#000000" style="stroke:;stroke-width:0.0;stroke-dasharray:;"/><line style="stroke:#000000;stroke-width:1.0;" x1="272" x2="281" y1="71.8828" y2="71.8828"/><line style="stroke:#000000;stroke-width:1.0;" x1="507" x2="594" y1="118.8047" y2="118.8047"/><line style="stroke:#000000;stroke-width:1.0;" x1="281" x2="507" y1="71.8828" y2="71.8828"/><line style="stroke:#000000;stroke-width:1.0;" x1="594" x2="619" y1="118.8047" y2="118.8047"/><line style="stroke:#000000;stroke-width:1.0;" x1="507" x2="594" y1="71.8828" y2="71.8828"/><line style="stroke:#000000;stroke-width:1.0;" x1="594" x2="619" y1="71.8828" y2="71.8828"/><line style="stroke:#000000;stroke-width:1.0;" x1="272" x2="281" y1="140.7656" y2="140.7656"/><line style="stroke:#000000;stroke-width:1.0;" x1="281" x2="507" y1="140.7656" y2="140.7656"/><line style="stroke:#000000;stroke-width:1.0;" x1="272" x2="281" y1="100.8438" y2="100.8438"/><line style="stroke:#000000;stroke-width:1.0;" x1="507" x2="594" y1="140.7656" y2="140.7656"/><line style="stroke:#000000;stroke-width:1.0;" x1="281" x2="507" y1="100.8438" y2="100.8438"/><line style="stroke:#000000;stroke-width:1.0;" x1="594" x2="619" y1="140.7656" y2="140.7656"/><line style="stroke:#000000;stroke-width:1.0;" x1="507" x2="594" y1="100.8438" y2="100.8438"/><line style="stroke:#000000;stroke-width:1.0;" x1="594" x2="619" y1="100.8438" y2="100.8438"/><line style="stroke:#000000;stroke-width:1.0;" x1="272" x2="281" y1="162.7266" y2="162.7266"/><line style="stroke:#000000;stroke-width:1.0;" x1="281" x2="507" y1="162.7266" y2="162.7266"/><line style="stroke:#000000;stroke-width:1.0;" x1="507" x2="594" y1="162.7266" y2="162.7266"/><line style="stroke:#000000;stroke-width:1.0;" x1="272" x2="281" y1="118.8047" y2="118.8047"/><line style="stroke:#000000;stroke-width:1.0;" x1="594" x2="619" y1="162.7266" y2="162.7266"/><line style="stroke:#000000;stroke-width:1.0;" x1="281" x2="507" y1="118.8047" y2="118.8047"/><line style="stroke:#000000;stroke-width:1.0;" x1="272" x2="272" y1="71.8828" y2="100.8438"/><line style="stroke:#000000;stroke-width:1.0;" x1="507" x2="507" y1="118.8047" y2="140.7656"/><line style="stroke:#000000;stroke-width:1.0;" x1="281" x2="281" y1="71.8828" y2="100.8438"/><line style="stroke:#000000;stroke-width:1.0;" x1="594" x2="594" y1="118.8047" y2="140.7656"/><line style="stroke:#000000;stroke-width:1.0;" x1="619" x2="619" y1="118.8047" y2="140.7656"/><line style="stroke:#000000;stroke-width:1.0;" x1="507" x2="507" y1="71.8828" y2="100.8438"/><line style="stroke:#000000;stroke-width:1.0;" x1="594" x2="594" y1="71.8828" y2="100.8438"/><line style="stroke:#000000;stroke-width:1.0;" x1="619" x2="619" y1="71.8828" y2="100.8438"/><line style="stroke:#000000;stroke-width:1.0;" x1="272" x2="272" y1="140.7656" y2="162.7266"/><line style="stroke:#000000;stroke-width:1.0;" x1="281" x2="281" y1="140.7656" y2="162.7266"/><line style="stroke:#000000;stroke-width:1.0;" x1="272" x2="272" y1="100.8438" y2="118.8047"/><line style="stroke:#000000;stroke-width:1.0;" x1="507" x2="507" y1="140.7656" y2="162.7266"/><line style="stroke:#000000;stroke-width:1.0;" x1="281" x2="281" y1="100.8438" y2="118.8047"/><line style="stroke:#000000;stroke-width:1.0;" x1="594" x2="594" y1="140.7656" y2="162.7266"/><line style="stroke:#000000;stroke-width:1.0;" x1="619" x2="619" y1="140.7656" y2="162.7266"/><line style="stroke:#000000;stroke-width:1.0;" x1="507" x2="507" y1="100.8438" y2="118.8047"/><line style="stroke:#000000;stroke-width:1.0;" x1="594" x2="594" y1="100.8438" y2="118.8047"/><line style="stroke:#000000;stroke-width:1.0;" x1="619" x2="619" y1="100.8438" y2="118.8047"/><line style="stroke:#000000;stroke-width:1.0;" x1="272" x2="272" y1="118.8047" y2="140.7656"/><line style="stroke:#000000;stroke-width:1.0;" x1="281" x2="281" y1="118.8047" y2="140.7656"/><line style="stroke:#AAAAAA;stroke-width:1.0;" x1="6" x2="258" y1="249.9922" y2="249.9922"/><line style="stroke:#AAAAAA;stroke-width:1.0;" x1="259" x2="270" y1="249.9922" y2="249.9922"/><line style="stroke:#AAAAAA;stroke-width:1.0;" x1="271" x2="739" y1="249.9922" y2="249.9922"/><rect fill="#EEEEEE" height="19.9609" rx="5" ry="5" style="stroke:#000000;stroke-width:2.5;" width="52" x="9.5" y="257.9922"/><text fill="#000000" font-family="sans-serif" font-size="12" lengthAdjust="spacing" textLength="40" x="15.5" y="272.9414">Fermer</text><rect fill="#EEEEEE" height="19.9609" rx="5" ry="5" style="stroke:#000000;stroke-width:2.5;" width="92" x="68.5" y="257.9922"/><text fill="#000000" font-family="sans-serif" font-size="12" lengthAdjust="spacing" textLength="70" x="79.5" y="272.9414">Sauvegarder</text><!--SRC=[bLFRRjf047tVhnWfKWIY9jYqUR2GbHQIDccWA4df0oBIOc-SBVOktLsZHiJ_Kzxx1_nOPts1KlMYMl9eVMREsRdvJ1kgZAQ98Mi2i3w1mNPZA4yqF4Dl7a2VBasc6EJMsq83wpjhxTEglJkW1MEKummKCqnalt48AMhd2vWe6kv3MlNToNRp4zg2ruAdDFjgCmfb8fK_JsYu2AQTsK7OUIZrapRRRodJCAIA2msJB17RZQBpXEc_yx5Q1FsZmM0GZ339Q9UBvV5WHyrOCFLc_wZidLJQgSlBY-3shzPnYdPMIjFUSVZ8maLArGBRBeLHs-y9KpEyVcf7qUl1h5RB4MpZMvBNCAq6OODFBE5FtIxKKEomGeisl6ObMWXN-QoK54x27anGCdUOul6Z1VEgkdrjHKP7ksFXA1MXTxnCCXt03Aeq6eqAmdEpglJOAAeVRL0ETKO7QaVbQeveiPWH3bQnpyneAF6nv9468mrDeB68cmNd6L0unJu41r8kEkxXzUWId7hBxdVEPt0x9J6KANADexzaLB404GoDsQ6MLsXTZYQeTIcOCWoOWTLs4zi-u_hUxuN_HxdiRqw8tHXaLOOKSxzWAgrsv9PcAnPJ5TdldEJaZ8ce-BF9EA72V1nUmuefpN7qRjlhUDsswpO-iGXksHBSBdWTtplrkrtedz_UWGreaiRRyJLecQaGEysrKNoU6LHeaYkwed2J2SDJviE79HDNW_Sr0ETYnN5DR6taQZBS1vo-TDvmWrSgp0KcGp9W3pHB33926N4H-z1VkjuhZrnJ4MVO2nyU5EbB55PFFbpS_000]--></g></svg>