<?xml version="1.0" encoding="us-ascii" standalone="no"?><svg xmlns="http://www.w3.org/2000/svg" xmlns:xlink="http://www.w3.org/1999/xlink" contentStyleType="text/css" height="299px" preserveAspectRatio="none" style="width:915px;height:299px;background:#FFFFFF;" version="1.1" viewBox="0 0 915 299" width="915px" zoomAndPan="magnify"><defs><filter height="1" id="b7bnv6h9b4gt30" width="1" x="0" y="0"><feFlood flood-color="#DDDDFF" result="flood"/><feComposite in="SourceGraphic" in2="flood" operator="over"/></filter></defs><g><text fill="#000000" font-family="sans-serif" font-size="12" lengthAdjust="spacing" textLength="39" x="8" y="18.9492">D&#233;tails</text><line style="stroke:#000000;stroke-width:1.0;" x1="6" x2="6" y1="6" y2="21.9609"/><line style="stroke:#000000;stroke-width:1.0;" x1="6" x2="50" y1="6" y2="6"/><line style="stroke:#000000;stroke-width:1.0;" x1="50" x2="50" y1="6" y2="21.9609"/><line style="stroke:#000000;stroke-width:1.0;" x1="50" x2="60" y1="21.9609" y2="21.9609"/><text fill="#000000" font-family="sans-serif" font-size="12" font-weight="bold" lengthAdjust="spacing" textLength="45" x="65" y="18.9492">Capture</text><line style="stroke:#000000;stroke-width:1.0;" x1="60" x2="60" y1="6" y2="21.9609"/><line style="stroke:#000000;stroke-width:1.0;" x1="60" x2="113" y1="6" y2="6"/><line style="stroke:#000000;stroke-width:1.0;" x1="113" x2="113" y1="6" y2="21.9609"/><line style="stroke:#000000;stroke-width:1.0;" x1="113" x2="123" y1="21.9609" y2="21.9609"/><text fill="#000000" font-family="sans-serif" font-size="12" lengthAdjust="spacing" textLength="44" x="17" y="37.9102">Capture</text><text fill="#000000" font-family="sans-serif" font-size="12" lengthAdjust="spacing" textLength="77" x="27" y="53.8711">Partie retenue</text><text fill="#0000FF" font-family="sans-serif" font-size="12" font-style="italic" lengthAdjust="spacing" textLength="13" x="199" y="53.8711">[8]</text><text fill="#000000" filter="url(#b7bnv6h9b4gt30)" font-family="sans-serif" font-size="12" lengthAdjust="spacing" textLength="31" x="37" y="69.832">Appat</text><text fill="#0000FF" font-family="sans-serif" font-size="12" font-style="italic" lengthAdjust="spacing" textLength="13" x="199" y="69.832">[2]</text><text fill="#000000" font-family="sans-serif" font-size="12" lengthAdjust="spacing" textLength="138" x="37" y="85.793">Consommation humaine</text><text fill="#0000FF" font-family="sans-serif" font-size="12" font-style="italic" lengthAdjust="spacing" textLength="13" x="199" y="85.793">[1]</text><text fill="#000000" font-family="sans-serif" font-size="12" lengthAdjust="spacing" textLength="46" x="37" y="101.7539">Godaille</text><text fill="#0000FF" font-family="sans-serif" font-size="12" font-style="italic" lengthAdjust="spacing" textLength="13" x="199" y="101.7539">[1]</text><text fill="#000000" font-family="sans-serif" font-size="12" lengthAdjust="spacing" textLength="48" x="37" y="117.7148">Industrie</text><text fill="#0000FF" font-family="sans-serif" font-size="12" font-style="italic" lengthAdjust="spacing" textLength="13" x="199" y="117.7148">[2]</text><text fill="#000000" font-family="sans-serif" font-size="12" lengthAdjust="spacing" textLength="126" x="37" y="133.6758">Obligation &#224; d&#233;barquer</text><text fill="#0000FF" font-family="sans-serif" font-size="12" font-style="italic" lengthAdjust="spacing" textLength="13" x="199" y="133.6758">[2]</text><text fill="#000000" font-family="sans-serif" font-size="12" lengthAdjust="spacing" textLength="131" x="27" y="149.6367">Partie non retenue, Vrac</text><text fill="#808080" font-family="sans-serif" font-size="12" lengthAdjust="spacing" textLength="13" x="199" y="149.6367">[0]</text><text fill="#000000" font-family="sans-serif" font-size="12" lengthAdjust="spacing" textLength="162" x="27" y="165.5977">Partie non retenue, Hors-Vrac</text><text fill="#808080" font-family="sans-serif" font-size="12" lengthAdjust="spacing" textLength="13" x="199" y="165.5977">[0]</text><rect fill="none" height="2" style="stroke:#888888;stroke-width:1.0;" width="2" x="10" y="31.9414"/><rect fill="none" height="2" style="stroke:#888888;stroke-width:1.0;" width="2" x="20" y="47.9023"/><line style="stroke:#888888;stroke-width:1.0;" x1="11" x2="11" y1="34.9414" y2="48.9023"/><line style="stroke:#888888;stroke-width:1.0;" x1="11" x2="19" y1="48.9023" y2="48.9023"/><line style="stroke:#888888;stroke-width:1.0;" x1="21" x2="21" y1="50.9023" y2="64.8633"/><line style="stroke:#888888;stroke-width:1.0;" x1="21" x2="29" y1="64.8633" y2="64.8633"/><line style="stroke:#888888;stroke-width:1.0;" x1="21" x2="21" y1="50.9023" y2="80.8242"/><line style="stroke:#888888;stroke-width:1.0;" x1="21" x2="29" y1="80.8242" y2="80.8242"/><line style="stroke:#888888;stroke-width:1.0;" x1="21" x2="21" y1="50.9023" y2="96.7852"/><line style="stroke:#888888;stroke-width:1.0;" x1="21" x2="29" y1="96.7852" y2="96.7852"/><line style="stroke:#888888;stroke-width:1.0;" x1="21" x2="21" y1="50.9023" y2="112.7461"/><line style="stroke:#888888;stroke-width:1.0;" x1="21" x2="29" y1="112.7461" y2="112.7461"/><line style="stroke:#888888;stroke-width:1.0;" x1="21" x2="21" y1="50.9023" y2="128.707"/><line style="stroke:#888888;stroke-width:1.0;" x1="21" x2="29" y1="128.707" y2="128.707"/><line style="stroke:#888888;stroke-width:1.0;" x1="11" x2="11" y1="34.9414" y2="144.668"/><line style="stroke:#888888;stroke-width:1.0;" x1="11" x2="19" y1="144.668" y2="144.668"/><line style="stroke:#888888;stroke-width:1.0;" x1="11" x2="11" y1="34.9414" y2="160.6289"/><line style="stroke:#888888;stroke-width:1.0;" x1="11" x2="19" y1="160.6289" y2="160.6289"/><line style="stroke:#AAAAAA;stroke-width:1.0;" x1="7" x2="215" y1="227.9922" y2="227.9922"/><rect fill="#EEEEEE" height="19.9609" rx="5" ry="5" style="stroke:#000000;stroke-width:2.5;" width="100" x="10.5" y="235.9922"/><text fill="#000000" font-family="sans-serif" font-size="12" lengthAdjust="spacing" textLength="51" x="36.5" y="250.9414">Contr&#244;ler</text><rect fill="#EEEEEE" height="19.9609" rx="5" ry="5" style="stroke:#000000;stroke-width:2.5;" width="36" x="117.5" y="235.9922"/><text fill="#000000" font-family="sans-serif" font-size="12" font-weight="bold" lengthAdjust="spacing" textLength="14" x="128.5" y="250.9414">&lt;&lt;</text><line style="stroke:#000000;stroke-width:1.0;" x1="6" x2="215" y1="23.9609" y2="23.9609"/><line style="stroke:#000000;stroke-width:1.0;" x1="6" x2="215" y1="260.4531" y2="260.4531"/><line style="stroke:#000000;stroke-width:1.0;" x1="6" x2="6" y1="23.9609" y2="169.6094"/><line style="stroke:#000000;stroke-width:1.0;" x1="215" x2="215" y1="169.6094" y2="187.5703"/><line style="stroke:#000000;stroke-width:1.0;" x1="215" x2="215" y1="23.9609" y2="169.6094"/><line style="stroke:#000000;stroke-width:1.0;" x1="6" x2="6" y1="231.4922" y2="260.4531"/><line style="stroke:#000000;stroke-width:1.0;" x1="6" x2="6" y1="223.4922" y2="231.4922"/><line style="stroke:#000000;stroke-width:1.0;" x1="215" x2="215" y1="231.4922" y2="260.4531"/><line style="stroke:#000000;stroke-width:1.0;" x1="6" x2="6" y1="205.5313" y2="223.4922"/><line style="stroke:#000000;stroke-width:1.0;" x1="215" x2="215" y1="223.4922" y2="231.4922"/><line style="stroke:#000000;stroke-width:1.0;" x1="6" x2="6" y1="187.5703" y2="205.5313"/><line style="stroke:#000000;stroke-width:1.0;" x1="215" x2="215" y1="205.5313" y2="223.4922"/><line style="stroke:#000000;stroke-width:1.0;" x1="6" x2="6" y1="169.6094" y2="187.5703"/><line style="stroke:#000000;stroke-width:1.0;" x1="215" x2="215" y1="187.5703" y2="205.5313"/><rect fill="#EEEEEE" height="19.9609" rx="5" ry="5" style="stroke:#000000;stroke-width:2.5;" width="60" x="233.5" y="28.4609"/><text fill="#000000" font-family="sans-serif" font-size="12" lengthAdjust="spacing" textLength="44" x="241.5" y="43.4102">Capture</text><text fill="#000000" font-family="sans-serif" font-size="12" lengthAdjust="spacing" textLength="3" x="298" y="38.9102">/</text><rect fill="#EEEEEE" height="19.9609" rx="5" ry="5" style="stroke:#000000;stroke-width:2.5;" width="116" x="305.5" y="28.4609"/><text fill="#000000" font-family="sans-serif" font-size="12" lengthAdjust="spacing" textLength="77" x="325" y="43.4102">Partie retenue</text><rect fill="#EEEEEE" height="19.9609" rx="5" ry="5" style="stroke:#000000;stroke-width:2.5;" width="44" x="428.5" y="28.4609"/><text fill="#000000" font-family="sans-serif" font-size="12" font-weight="bold" lengthAdjust="spacing" textLength="33" x="434" y="43.4102">Appat</text><text fill="#000000" font-family="sans-serif" font-size="12" lengthAdjust="spacing" textLength="15" x="477" y="38.9102">(1)</text><text fill="#000000" font-family="sans-serif" font-size="12" lengthAdjust="spacing" textLength="88" x="231" y="67.8711">Poids total (kg) :</text><text fill="#000000" font-family="sans-serif" font-size="12" lengthAdjust="spacing" textLength="3" x="324" y="67.8711">&#160;</text><line style="stroke:#000000;stroke-width:1.0;" x1="322" x2="365" y1="70.8828" y2="70.8828"/><line style="stroke:#000000;stroke-width:1.0;" x1="322" x2="322" y1="67.8828" y2="69.8828"/><line style="stroke:#000000;stroke-width:1.0;" x1="365" x2="365" y1="67.8828" y2="69.8828"/><text fill="#000000" font-family="sans-serif" font-size="12" lengthAdjust="spacing" textLength="100" x="231" y="89.832">Taux &#233;chant (1/n) :</text><text fill="#000000" font-family="sans-serif" font-size="12" lengthAdjust="spacing" textLength="3" x="336" y="89.832">&#160;</text><line style="stroke:#000000;stroke-width:1.0;" x1="334" x2="377" y1="92.8438" y2="92.8438"/><line style="stroke:#000000;stroke-width:1.0;" x1="334" x2="334" y1="89.8438" y2="91.8438"/><line style="stroke:#000000;stroke-width:1.0;" x1="377" x2="377" y1="89.8438" y2="91.8438"/><text fill="#000000" font-family="sans-serif" font-size="12" lengthAdjust="spacing" textLength="102" x="381" y="89.832">Poids &#233;chant (kg) :</text><text fill="#000000" font-family="sans-serif" font-size="12" lengthAdjust="spacing" textLength="3" x="488" y="89.832">&#160;</text><line style="stroke:#000000;stroke-width:1.0;" x1="486" x2="529" y1="92.8438" y2="92.8438"/><line style="stroke:#000000;stroke-width:1.0;" x1="486" x2="486" y1="89.8438" y2="91.8438"/><line style="stroke:#000000;stroke-width:1.0;" x1="529" x2="529" y1="89.8438" y2="91.8438"/><text fill="#000000" font-family="sans-serif" font-size="12" lengthAdjust="spacing" textLength="190" x="251" y="111.793">Inventaire exhaustif des esp&#232;ces ?</text><rect fill="none" height="10" style="stroke:#000000;stroke-width:1.5;" width="10" x="233" y="101.8242"/><line style="stroke:#AAAAAA;stroke-width:1.0;" x1="231" x2="442" y1="120.3047" y2="120.3047"/><path d="M232,129.7656 L232,130.7656 L240,130.7656 L240,129.7656 L232,129.7656 M232,131.7656 L232,137.6756 C232,137.7256 232.04,137.7656 232.09,137.7656 L239.9,137.7656 C239.95,137.7656 239.99,137.7256 239.99,137.6756 L239.99,131.7656 L237.02,131.7656 L237.02,132.7956 L234.99,132.7956 L234.99,131.7656 L231.99,131.7656 " fill="#000000" style="stroke:;stroke-width:0.0;stroke-dasharray:;"/><text fill="#000000" font-family="sans-serif" font-size="12" lengthAdjust="spacing" textLength="89" x="241" y="137.7539">Lots par esp&#232;ce</text><rect fill="#EEEEEE" height="12" rx="5" ry="5" style="stroke:#000000;stroke-width:2.5;" width="36" x="243.5" y="148.2656"/><path d="M260.5,150.2656 L260.5,153.2656 L257.5,153.2656 L257.5,155.2656 L260.5,155.2656 L260.5,158.2656 L262.5,158.2656 L262.5,155.2656 L265.5,155.2656 L265.5,153.2656 L262.5,153.2656 L262.5,150.2656 L260.5,150.2656 " fill="#000000" style="stroke:;stroke-width:0.0;stroke-dasharray:;"/><rect fill="#EEEEEE" height="12" rx="5" ry="5" style="stroke:#000000;stroke-width:2.5;" width="36" x="286.5" y="148.2656"/><path d="M303.5,150.2656 C302.95,150.2656 302.5,150.7156 302.5,151.2656 L301.5,151.2656 C300.95,151.2656 300.5,151.7156 300.5,152.2656 L307.5,152.2656 C307.5,151.7156 307.05,151.2656 306.5,151.2656 L305.5,151.2656 C305.5,150.7156 305.05,150.2656 304.5,150.2656 L303.5,150.2656 M301.5,153.2656 L301.5,158.0756 C301.5,158.1856 301.58,158.2656 301.69,158.2656 L306.32,158.2656 C306.43,158.2656 306.51,158.1856 306.51,158.0756 L306.51,153.2656 L305.51,153.2656 L305.51,156.7656 C305.51,157.0456 305.29,157.2656 305.01,157.2656 C304.73,157.2656 304.51,157.0456 304.51,156.7656 L304.51,153.2656 L303.51,153.2656 L303.51,156.7656 C303.51,157.0456 303.29,157.2656 303.01,157.2656 C302.73,157.2656 302.51,157.0456 302.51,156.7656 L302.51,153.2656 L301.51,153.2656 " fill="#000000" style="stroke:;stroke-width:0.0;stroke-dasharray:;"/><text fill="#000000" font-family="sans-serif" font-size="12" lengthAdjust="spacing" textLength="7" x="231" y="178.7148">#</text><text fill="#000000" font-family="sans-serif" font-size="12" font-weight="bold" lengthAdjust="spacing" textLength="120" x="240" y="178.7148">Esp&#232;ce commerciale</text><text fill="#000000" font-family="sans-serif" font-size="12" font-weight="bold" lengthAdjust="spacing" textLength="73" x="418" y="178.7148">Pr&#233;sentation</text><text fill="#000000" font-family="sans-serif" font-size="12" font-weight="bold" lengthAdjust="spacing" textLength="22" x="508" y="178.7148">&#201;tat</text><text fill="#000000" font-family="sans-serif" font-size="12" font-weight="bold" lengthAdjust="spacing" textLength="85" x="566" y="178.7148">Poids total (kg)</text><text fill="#000000" font-family="sans-serif" font-size="12" font-weight="bold" lengthAdjust="spacing" textLength="70" x="653" y="178.7148">Taux &#233;chant</text><text fill="#000000" font-family="sans-serif" font-size="12" font-weight="bold" lengthAdjust="spacing" textLength="77" x="725" y="178.7148">Poids &#233;chant.</text><text fill="#000000" font-family="sans-serif" font-size="12" font-weight="bold" lengthAdjust="spacing" textLength="89" x="804" y="178.7148">Nb indiv &#233;chant.</text><path d="M896,165.7656 L896,166.7656 L904,166.7656 L904,165.7656 L896,165.7656 M896,168.7356 L896,169.7356 L904,169.7356 L904,168.7356 L896,168.7356 M896,171.7356 L896,172.7356 L904,172.7356 L904,171.7356 L896,171.7356 " fill="#000000" style="stroke:;stroke-width:0.0;stroke-dasharray:;"/><text fill="#000000" font-family="sans-serif" font-size="12" lengthAdjust="spacing" textLength="7" x="231" y="196.6758">1</text><rect fill="#EEEEEE" height="18.9609" style="stroke:#000000;stroke-width:1.0;" width="175" x="240" y="183.7266"/><text fill="#000000" font-family="sans-serif" font-size="12" lengthAdjust="spacing" textLength="82" x="242" y="198.6758">MNZ- Baudroie</text><line style="stroke:#000000;stroke-width:1.0;" x1="404" x2="404" y1="183.7266" y2="202.6875"/><polygon fill="#000000" points="407,189.7266,413,189.7266,410,197.6875" style="stroke:#000000;stroke-width:1.0;"/><rect fill="#EEEEEE" height="18.9609" style="stroke:#000000;stroke-width:1.0;" width="87" x="418" y="183.7266"/><text fill="#000000" font-family="sans-serif" font-size="12" lengthAdjust="spacing" textLength="27" x="420" y="198.6758">WHL</text><line style="stroke:#000000;stroke-width:1.0;" x1="494" x2="494" y1="183.7266" y2="202.6875"/><polygon fill="#000000" points="497,189.7266,503,189.7266,500,197.6875" style="stroke:#000000;stroke-width:1.0;"/><rect fill="#EEEEEE" height="18.9609" style="stroke:#000000;stroke-width:1.0;" width="55" x="508" y="183.7266"/><text fill="#000000" font-family="sans-serif" font-size="12" lengthAdjust="spacing" textLength="24" x="510" y="198.6758">FRE</text><line style="stroke:#000000;stroke-width:1.0;" x1="552" x2="552" y1="183.7266" y2="202.6875"/><polygon fill="#000000" points="555,189.7266,561,189.7266,558,197.6875" style="stroke:#000000;stroke-width:1.0;"/><text fill="#000000" font-family="sans-serif" font-size="12" lengthAdjust="spacing" textLength="14" x="566" y="196.6758">50</text><text fill="#000000" font-family="sans-serif" font-size="12" lengthAdjust="spacing" textLength="14" x="725" y="196.6758">10</text><text fill="#000000" font-family="sans-serif" font-size="12" lengthAdjust="spacing" textLength="7" x="804" y="196.6758">4</text><path d="M896,183.7266 L896,190.7266 L904,190.7266 L904,189.7266 L897,189.7266 L897,183.7266 L896,183.7266 M901,183.7266 L901,188.7266 L903,188.7266 L903,183.7266 L901,183.7266 M898,185.7266 L898,188.7266 L900,188.7266 L900,185.7266 L898,185.7266 " fill="#000000" style="stroke:;stroke-width:0.0;stroke-dasharray:;"/><text fill="#000000" font-family="sans-serif" font-size="12" lengthAdjust="spacing" textLength="7" x="231" y="218.6367">2</text><rect fill="#EEEEEE" height="18.9609" style="stroke:#000000;stroke-width:1.0;" width="175" x="240" y="205.6875"/><text fill="#000000" font-family="sans-serif" font-size="12" lengthAdjust="spacing" textLength="82" x="242" y="220.6367">MNZ- Baudroie</text><line style="stroke:#000000;stroke-width:1.0;" x1="404" x2="404" y1="205.6875" y2="224.6484"/><polygon fill="#000000" points="407,211.6875,413,211.6875,410,219.6484" style="stroke:#000000;stroke-width:1.0;"/><rect fill="#EEEEEE" height="18.9609" style="stroke:#000000;stroke-width:1.0;" width="87" x="418" y="205.6875"/><text fill="#000000" font-family="sans-serif" font-size="12" lengthAdjust="spacing" textLength="25" x="420" y="220.6367">GUT</text><line style="stroke:#000000;stroke-width:1.0;" x1="494" x2="494" y1="205.6875" y2="224.6484"/><polygon fill="#000000" points="497,211.6875,503,211.6875,500,219.6484" style="stroke:#000000;stroke-width:1.0;"/><rect fill="#EEEEEE" height="18.9609" style="stroke:#000000;stroke-width:1.0;" width="55" x="508" y="205.6875"/><text fill="#000000" font-family="sans-serif" font-size="12" lengthAdjust="spacing" textLength="24" x="510" y="220.6367">FRE</text><line style="stroke:#000000;stroke-width:1.0;" x1="552" x2="552" y1="205.6875" y2="224.6484"/><polygon fill="#000000" points="555,211.6875,561,211.6875,558,219.6484" style="stroke:#000000;stroke-width:1.0;"/><text fill="#000000" font-family="sans-serif" font-size="12" lengthAdjust="spacing" textLength="14" x="566" y="218.6367">50</text><text fill="#000000" font-family="sans-serif" font-size="12" lengthAdjust="spacing" textLength="14" x="725" y="218.6367">10</text><text fill="#000000" font-family="sans-serif" font-size="12" lengthAdjust="spacing" textLength="7" x="804" y="218.6367">4</text><path d="M896,205.6875 L896,212.6875 L904,212.6875 L904,211.6875 L897,211.6875 L897,205.6875 L896,205.6875 M901,205.6875 L901,210.6875 L903,210.6875 L903,205.6875 L901,205.6875 M898,207.6875 L898,210.6875 L900,210.6875 L900,207.6875 L898,207.6875 " fill="#000000" style="stroke:;stroke-width:0.0;stroke-dasharray:;"/><line style="stroke:#000000;stroke-width:1.0;" x1="230" x2="239" y1="143.7656" y2="143.7656"/><line style="stroke:#000000;stroke-width:1.0;" x1="565" x2="652" y1="226.6484" y2="226.6484"/><line style="stroke:#000000;stroke-width:1.0;" x1="239" x2="417" y1="143.7656" y2="143.7656"/><line style="stroke:#000000;stroke-width:1.0;" x1="652" x2="724" y1="226.6484" y2="226.6484"/><line style="stroke:#000000;stroke-width:1.0;" x1="417" x2="507" y1="143.7656" y2="143.7656"/><line style="stroke:#000000;stroke-width:1.0;" x1="724" x2="803" y1="226.6484" y2="226.6484"/><line style="stroke:#000000;stroke-width:1.0;" x1="507" x2="565" y1="143.7656" y2="143.7656"/><line style="stroke:#000000;stroke-width:1.0;" x1="803" x2="894" y1="226.6484" y2="226.6484"/><line style="stroke:#000000;stroke-width:1.0;" x1="565" x2="652" y1="143.7656" y2="143.7656"/><line style="stroke:#000000;stroke-width:1.0;" x1="894" x2="906" y1="226.6484" y2="226.6484"/><line style="stroke:#000000;stroke-width:1.0;" x1="652" x2="724" y1="143.7656" y2="143.7656"/><line style="stroke:#000000;stroke-width:1.0;" x1="724" x2="803" y1="143.7656" y2="143.7656"/><line style="stroke:#000000;stroke-width:1.0;" x1="803" x2="894" y1="143.7656" y2="143.7656"/><line style="stroke:#000000;stroke-width:1.0;" x1="894" x2="906" y1="143.7656" y2="143.7656"/><line style="stroke:#000000;stroke-width:1.0;" x1="230" x2="239" y1="204.6875" y2="204.6875"/><line style="stroke:#000000;stroke-width:1.0;" x1="239" x2="417" y1="204.6875" y2="204.6875"/><line style="stroke:#000000;stroke-width:1.0;" x1="417" x2="507" y1="204.6875" y2="204.6875"/><line style="stroke:#000000;stroke-width:1.0;" x1="507" x2="565" y1="204.6875" y2="204.6875"/><line style="stroke:#000000;stroke-width:1.0;" x1="565" x2="652" y1="204.6875" y2="204.6875"/><line style="stroke:#000000;stroke-width:1.0;" x1="652" x2="724" y1="204.6875" y2="204.6875"/><line style="stroke:#000000;stroke-width:1.0;" x1="724" x2="803" y1="204.6875" y2="204.6875"/><line style="stroke:#000000;stroke-width:1.0;" x1="803" x2="894" y1="204.6875" y2="204.6875"/><line style="stroke:#000000;stroke-width:1.0;" x1="894" x2="906" y1="204.6875" y2="204.6875"/><line style="stroke:#000000;stroke-width:1.0;" x1="230" x2="239" y1="182.7266" y2="182.7266"/><line style="stroke:#000000;stroke-width:1.0;" x1="239" x2="417" y1="182.7266" y2="182.7266"/><line style="stroke:#000000;stroke-width:1.0;" x1="417" x2="507" y1="182.7266" y2="182.7266"/><line style="stroke:#000000;stroke-width:1.0;" x1="507" x2="565" y1="182.7266" y2="182.7266"/><line style="stroke:#000000;stroke-width:1.0;" x1="565" x2="652" y1="182.7266" y2="182.7266"/><line style="stroke:#000000;stroke-width:1.0;" x1="652" x2="724" y1="182.7266" y2="182.7266"/><line style="stroke:#000000;stroke-width:1.0;" x1="724" x2="803" y1="182.7266" y2="182.7266"/><line style="stroke:#000000;stroke-width:1.0;" x1="803" x2="894" y1="182.7266" y2="182.7266"/><line style="stroke:#000000;stroke-width:1.0;" x1="894" x2="906" y1="182.7266" y2="182.7266"/><line style="stroke:#000000;stroke-width:1.0;" x1="230" x2="239" y1="164.7656" y2="164.7656"/><line style="stroke:#000000;stroke-width:1.0;" x1="239" x2="417" y1="164.7656" y2="164.7656"/><line style="stroke:#000000;stroke-width:1.0;" x1="417" x2="507" y1="164.7656" y2="164.7656"/><line style="stroke:#000000;stroke-width:1.0;" x1="507" x2="565" y1="164.7656" y2="164.7656"/><line style="stroke:#000000;stroke-width:1.0;" x1="565" x2="652" y1="164.7656" y2="164.7656"/><line style="stroke:#000000;stroke-width:1.0;" x1="652" x2="724" y1="164.7656" y2="164.7656"/><line style="stroke:#000000;stroke-width:1.0;" x1="724" x2="803" y1="164.7656" y2="164.7656"/><line style="stroke:#000000;stroke-width:1.0;" x1="803" x2="894" y1="164.7656" y2="164.7656"/><line style="stroke:#000000;stroke-width:1.0;" x1="894" x2="906" y1="164.7656" y2="164.7656"/><line style="stroke:#000000;stroke-width:1.0;" x1="230" x2="239" y1="226.6484" y2="226.6484"/><line style="stroke:#000000;stroke-width:1.0;" x1="239" x2="417" y1="226.6484" y2="226.6484"/><line style="stroke:#000000;stroke-width:1.0;" x1="417" x2="507" y1="226.6484" y2="226.6484"/><line style="stroke:#000000;stroke-width:1.0;" x1="507" x2="565" y1="226.6484" y2="226.6484"/><line style="stroke:#000000;stroke-width:1.0;" x1="230" x2="230" y1="143.7656" y2="164.7656"/><line style="stroke:#000000;stroke-width:1.0;" x1="239" x2="239" y1="143.7656" y2="164.7656"/><line style="stroke:#000000;stroke-width:1.0;" x1="417" x2="417" y1="143.7656" y2="164.7656"/><line style="stroke:#000000;stroke-width:1.0;" x1="507" x2="507" y1="143.7656" y2="164.7656"/><line style="stroke:#000000;stroke-width:1.0;" x1="565" x2="565" y1="143.7656" y2="164.7656"/><line style="stroke:#000000;stroke-width:1.0;" x1="652" x2="652" y1="143.7656" y2="164.7656"/><line style="stroke:#000000;stroke-width:1.0;" x1="724" x2="724" y1="143.7656" y2="164.7656"/><line style="stroke:#000000;stroke-width:1.0;" x1="803" x2="803" y1="143.7656" y2="164.7656"/><line style="stroke:#000000;stroke-width:1.0;" x1="894" x2="894" y1="143.7656" y2="164.7656"/><line style="stroke:#000000;stroke-width:1.0;" x1="906" x2="906" y1="143.7656" y2="164.7656"/><line style="stroke:#000000;stroke-width:1.0;" x1="230" x2="230" y1="204.6875" y2="226.6484"/><line style="stroke:#000000;stroke-width:1.0;" x1="239" x2="239" y1="204.6875" y2="226.6484"/><line style="stroke:#000000;stroke-width:1.0;" x1="417" x2="417" y1="204.6875" y2="226.6484"/><line style="stroke:#000000;stroke-width:1.0;" x1="507" x2="507" y1="204.6875" y2="226.6484"/><line style="stroke:#000000;stroke-width:1.0;" x1="565" x2="565" y1="204.6875" y2="226.6484"/><line style="stroke:#000000;stroke-width:1.0;" x1="652" x2="652" y1="204.6875" y2="226.6484"/><line style="stroke:#000000;stroke-width:1.0;" x1="724" x2="724" y1="204.6875" y2="226.6484"/><line style="stroke:#000000;stroke-width:1.0;" x1="803" x2="803" y1="204.6875" y2="226.6484"/><line style="stroke:#000000;stroke-width:1.0;" x1="894" x2="894" y1="204.6875" y2="226.6484"/><line style="stroke:#000000;stroke-width:1.0;" x1="906" x2="906" y1="204.6875" y2="226.6484"/><line style="stroke:#000000;stroke-width:1.0;" x1="230" x2="230" y1="182.7266" y2="204.6875"/><line style="stroke:#000000;stroke-width:1.0;" x1="239" x2="239" y1="182.7266" y2="204.6875"/><line style="stroke:#000000;stroke-width:1.0;" x1="417" x2="417" y1="182.7266" y2="204.6875"/><line style="stroke:#000000;stroke-width:1.0;" x1="507" x2="507" y1="182.7266" y2="204.6875"/><line style="stroke:#000000;stroke-width:1.0;" x1="565" x2="565" y1="182.7266" y2="204.6875"/><line style="stroke:#000000;stroke-width:1.0;" x1="652" x2="652" y1="182.7266" y2="204.6875"/><line style="stroke:#000000;stroke-width:1.0;" x1="724" x2="724" y1="182.7266" y2="204.6875"/><line style="stroke:#000000;stroke-width:1.0;" x1="803" x2="803" y1="182.7266" y2="204.6875"/><line style="stroke:#000000;stroke-width:1.0;" x1="894" x2="894" y1="182.7266" y2="204.6875"/><line style="stroke:#000000;stroke-width:1.0;" x1="906" x2="906" y1="182.7266" y2="204.6875"/><line style="stroke:#000000;stroke-width:1.0;" x1="230" x2="230" y1="164.7656" y2="182.7266"/><line style="stroke:#000000;stroke-width:1.0;" x1="239" x2="239" y1="164.7656" y2="182.7266"/><line style="stroke:#000000;stroke-width:1.0;" x1="417" x2="417" y1="164.7656" y2="182.7266"/><line style="stroke:#000000;stroke-width:1.0;" x1="507" x2="507" y1="164.7656" y2="182.7266"/><line style="stroke:#000000;stroke-width:1.0;" x1="565" x2="565" y1="164.7656" y2="182.7266"/><line style="stroke:#000000;stroke-width:1.0;" x1="652" x2="652" y1="164.7656" y2="182.7266"/><line style="stroke:#000000;stroke-width:1.0;" x1="724" x2="724" y1="164.7656" y2="182.7266"/><line style="stroke:#000000;stroke-width:1.0;" x1="803" x2="803" y1="164.7656" y2="182.7266"/><line style="stroke:#000000;stroke-width:1.0;" x1="894" x2="894" y1="164.7656" y2="182.7266"/><line style="stroke:#000000;stroke-width:1.0;" x1="906" x2="906" y1="164.7656" y2="182.7266"/><line style="stroke:#AAAAAA;stroke-width:1.0;" x1="6" x2="216" y1="265.9531" y2="265.9531"/><line style="stroke:#AAAAAA;stroke-width:1.0;" x1="217" x2="228" y1="265.9531" y2="265.9531"/><line style="stroke:#AAAAAA;stroke-width:1.0;" x1="229" x2="908" y1="265.9531" y2="265.9531"/><rect fill="#EEEEEE" height="19.9609" rx="5" ry="5" style="stroke:#000000;stroke-width:2.5;" width="52" x="9.5" y="273.9531"/><text fill="#000000" font-family="sans-serif" font-size="12" lengthAdjust="spacing" textLength="40" x="15.5" y="288.9023">Fermer</text><rect fill="#EEEEEE" height="19.9609" rx="5" ry="5" style="stroke:#000000;stroke-width:2.5;" width="92" x="68.5" y="273.9531"/><text fill="#000000" font-family="sans-serif" font-size="12" lengthAdjust="spacing" textLength="70" x="79.5" y="288.9023">Sauvegarder</text><!--SRC=[hLHHRjf04FttAKQ9X8Ye2OOagYpafW6ID8K49IIHYeYqs1jOONRTzHeb0WxGM_Ip_FS6lbXdRKCWJSfFaRpOC_FUhD-RzN6eY5GXyPKnDG2c-r2F5uemFuGPLFiEr4YW8abXhhC5N63QqQl-5LPP_CsWk8eNe8siZ8AaYlA8Pd5aP4xL5RwGTj-FgDFzs7l15B0VSKVsRhr-wdmE0gBU09Gt03N1Gp4U4yK4Xs4q9epJDq3M1kXCUFX-_lR2BzoBGYKPtRgFgxxF1kakuf_WnOi-aTyZAl-DMuh44PO9zG7k975rlnGqaEJPwPQsWSw53CttaVC4NdozccPYPyRThURS8NL7Oo97ZbPMoVYtJsKFERjw5AfLMB7DjTrufU0fTBD1qCNx6h3fVyA158chlLdUsaEM5DeMp0j12KLyo8y6Us1ZxKwoevrLKOT4Jn0lt27X2lBMFjyicq7AigfuZmTVf8UsJYZ74SUnfKz3WXQpH_1e23GCubyktdnAgirK7wZc-kB9QGeLGa3aiYf98MzAlBiqI6khTK75Se4VXGva-kMK9E5GFowr- -jQuzXDJryZxGKk3ZcLBYCujMccBUD5g5yZ6Rea5FzGwP71x6jHqzEdKnjIhbTdiM8Qk-m3unwRR8HpOpJJMTkcXT67rkKt4qv8v4d1bYVzGIUIk_lpPlPqUjr8xWvBwMQAwHzOfHV26HmaZV3ycDXNglLkvUtTpcux_wTRCkJQNDF4acmnaX4wfNAS7OiR4ateW4XFFy-DkN5CkPTyJ8ssZwhTjfemeJBK7bd5SgbSALfM_fvwS4C3i2fGBjdb8xjIWLhZfWEwOC_8dxMR48f8el4Uqn-WVgHTtZCko8J0TSGL6rCRhWBAB-fVbm5ey0cJWgD7ohYuQxqK71sO9qnXIubxWRkMKQUF9F8L8bpXCJwmeHPOvSEoqIHy4941aZzAeoQGM3xRAEKV]--></g></svg>