<?xml version="1.0" encoding="us-ascii" standalone="no"?><svg xmlns="http://www.w3.org/2000/svg" xmlns:xlink="http://www.w3.org/1999/xlink" contentStyleType="text/css" height="283px" preserveAspectRatio="none" style="width:1000px;height:283px;background:#FFFFFF;" version="1.1" viewBox="0 0 1000 283" width="1000px" zoomAndPan="magnify"><defs><filter height="1" id="b1b61xdkqinwqf0" width="1" x="0" y="0"><feFlood flood-color="#DDDDDD" result="flood"/><feComposite in="SourceGraphic" in2="flood" operator="over"/></filter></defs><g><text fill="#000000" font-family="sans-serif" font-size="12" lengthAdjust="spacing" textLength="39" x="8" y="18.9492">D&#233;tails</text><line style="stroke:#000000;stroke-width:1.0;" x1="6" x2="6" y1="6" y2="21.9609"/><line style="stroke:#000000;stroke-width:1.0;" x1="6" x2="50" y1="6" y2="6"/><line style="stroke:#000000;stroke-width:1.0;" x1="50" x2="50" y1="6" y2="21.9609"/><line style="stroke:#000000;stroke-width:1.0;" x1="50" x2="60" y1="21.9609" y2="21.9609"/><text fill="#000000" font-family="sans-serif" font-size="12" font-weight="bold" lengthAdjust="spacing" textLength="45" x="65" y="18.9492">Capture</text><line style="stroke:#000000;stroke-width:1.0;" x1="60" x2="60" y1="6" y2="21.9609"/><line style="stroke:#000000;stroke-width:1.0;" x1="60" x2="113" y1="6" y2="6"/><line style="stroke:#000000;stroke-width:1.0;" x1="113" x2="113" y1="6" y2="21.9609"/><line style="stroke:#000000;stroke-width:1.0;" x1="113" x2="123" y1="21.9609" y2="21.9609"/><text fill="#000000" font-family="sans-serif" font-size="12" lengthAdjust="spacing" textLength="44" x="17" y="37.9102">Capture</text><text fill="#000000" font-family="sans-serif" font-size="12" lengthAdjust="spacing" textLength="77" x="27" y="53.8711">Partie retenue</text><text fill="#000000" font-family="sans-serif" font-size="12" lengthAdjust="spacing" textLength="131" x="27" y="69.832">Partie non retenue, Vrac</text><text fill="#000000" font-family="sans-serif" font-size="12" lengthAdjust="spacing" textLength="42" x="37" y="85.793">D&#233;taill&#233;</text><text fill="#000000" font-family="sans-serif" font-size="12" lengthAdjust="spacing" textLength="47" x="47" y="101.7539">Animaux</text><text fill="#000000" font-family="sans-serif" font-size="12" lengthAdjust="spacing" textLength="13" x="241" y="101.7539">[0]</text><text fill="#000000" filter="url(#b1b61xdkqinwqf0)" font-family="sans-serif" font-size="12" lengthAdjust="spacing" textLength="184" x="47" y="117.7148">Ecosyst&#232;mes Marins Vuln&#233;rables</text><text fill="#0000FF" font-family="sans-serif" font-size="12" font-style="italic" lengthAdjust="spacing" textLength="13" x="241" y="117.7148">[1]</text><text fill="#000000" font-family="sans-serif" font-size="12" lengthAdjust="spacing" textLength="66" x="37" y="133.6758">Non d&#233;taill&#233;</text><text fill="#000000" font-family="sans-serif" font-size="12" lengthAdjust="spacing" textLength="13" x="241" y="133.6758">[0]</text><text fill="#000000" font-family="sans-serif" font-size="12" lengthAdjust="spacing" textLength="162" x="27" y="149.6367">Partie non retenue, Hors-Vrac</text><rect fill="none" height="2" style="stroke:#888888;stroke-width:1.0;" width="2" x="10" y="31.9414"/><line style="stroke:#888888;stroke-width:1.0;" x1="11" x2="11" y1="34.9414" y2="48.9023"/><line style="stroke:#888888;stroke-width:1.0;" x1="11" x2="19" y1="48.9023" y2="48.9023"/><rect fill="none" height="2" style="stroke:#888888;stroke-width:1.0;" width="2" x="20" y="63.8633"/><line style="stroke:#888888;stroke-width:1.0;" x1="11" x2="11" y1="34.9414" y2="64.8633"/><line style="stroke:#888888;stroke-width:1.0;" x1="11" x2="19" y1="64.8633" y2="64.8633"/><rect fill="none" height="2" style="stroke:#888888;stroke-width:1.0;" width="2" x="30" y="79.8242"/><line style="stroke:#888888;stroke-width:1.0;" x1="21" x2="21" y1="66.8633" y2="80.8242"/><line style="stroke:#888888;stroke-width:1.0;" x1="21" x2="29" y1="80.8242" y2="80.8242"/><line style="stroke:#888888;stroke-width:1.0;" x1="31" x2="31" y1="82.8242" y2="96.7852"/><line style="stroke:#888888;stroke-width:1.0;" x1="31" x2="39" y1="96.7852" y2="96.7852"/><line style="stroke:#888888;stroke-width:1.0;" x1="31" x2="31" y1="82.8242" y2="112.7461"/><line style="stroke:#888888;stroke-width:1.0;" x1="31" x2="39" y1="112.7461" y2="112.7461"/><line style="stroke:#888888;stroke-width:1.0;" x1="21" x2="21" y1="66.8633" y2="128.707"/><line style="stroke:#888888;stroke-width:1.0;" x1="21" x2="29" y1="128.707" y2="128.707"/><line style="stroke:#888888;stroke-width:1.0;" x1="11" x2="11" y1="34.9414" y2="144.668"/><line style="stroke:#888888;stroke-width:1.0;" x1="11" x2="19" y1="144.668" y2="144.668"/><line style="stroke:#AAAAAA;stroke-width:1.0;" x1="7" x2="257" y1="212.0313" y2="212.0313"/><rect fill="#EEEEEE" height="19.9609" rx="5" ry="5" style="stroke:#000000;stroke-width:2.5;" width="100" x="10.5" y="220.0313"/><text fill="#000000" font-family="sans-serif" font-size="12" lengthAdjust="spacing" textLength="51" x="36.5" y="234.9805">Contr&#244;ler</text><rect fill="#EEEEEE" height="19.9609" rx="5" ry="5" style="stroke:#000000;stroke-width:2.5;" width="36" x="117.5" y="220.0313"/><text fill="#000000" font-family="sans-serif" font-size="12" font-weight="bold" lengthAdjust="spacing" textLength="14" x="128.5" y="234.9805">&lt;&lt;</text><line style="stroke:#000000;stroke-width:1.0;" x1="6" x2="257" y1="23.9609" y2="23.9609"/><line style="stroke:#000000;stroke-width:1.0;" x1="6" x2="257" y1="244.4922" y2="244.4922"/><line style="stroke:#000000;stroke-width:1.0;" x1="6" x2="6" y1="23.9609" y2="153.6484"/><line style="stroke:#000000;stroke-width:1.0;" x1="257" x2="257" y1="153.6484" y2="171.6094"/><line style="stroke:#000000;stroke-width:1.0;" x1="257" x2="257" y1="23.9609" y2="153.6484"/><line style="stroke:#000000;stroke-width:1.0;" x1="6" x2="6" y1="215.5313" y2="244.4922"/><line style="stroke:#000000;stroke-width:1.0;" x1="6" x2="6" y1="207.5313" y2="215.5313"/><line style="stroke:#000000;stroke-width:1.0;" x1="257" x2="257" y1="215.5313" y2="244.4922"/><line style="stroke:#000000;stroke-width:1.0;" x1="6" x2="6" y1="189.5703" y2="207.5313"/><line style="stroke:#000000;stroke-width:1.0;" x1="257" x2="257" y1="207.5313" y2="215.5313"/><line style="stroke:#000000;stroke-width:1.0;" x1="6" x2="6" y1="171.6094" y2="189.5703"/><line style="stroke:#000000;stroke-width:1.0;" x1="257" x2="257" y1="189.5703" y2="207.5313"/><line style="stroke:#000000;stroke-width:1.0;" x1="6" x2="6" y1="153.6484" y2="171.6094"/><line style="stroke:#000000;stroke-width:1.0;" x1="257" x2="257" y1="171.6094" y2="189.5703"/><rect fill="#EEEEEE" height="19.9609" rx="5" ry="5" style="stroke:#000000;stroke-width:2.5;" width="60" x="275.5" y="28.4609"/><text fill="#000000" font-family="sans-serif" font-size="12" lengthAdjust="spacing" textLength="44" x="283.5" y="43.4102">Capture</text><text fill="#000000" font-family="sans-serif" font-size="12" lengthAdjust="spacing" textLength="3" x="340" y="38.9102">/</text><rect fill="#EEEEEE" height="19.9609" rx="5" ry="5" style="stroke:#000000;stroke-width:2.5;" width="196" x="347.5" y="28.4609"/><text fill="#000000" font-family="sans-serif" font-size="12" lengthAdjust="spacing" textLength="131" x="380" y="43.4102">Partie non retenue, Vrac</text><rect fill="#EEEEEE" height="19.9609" rx="5" ry="5" style="stroke:#000000;stroke-width:2.5;" width="68" x="550.5" y="28.4609"/><text fill="#000000" font-family="sans-serif" font-size="12" lengthAdjust="spacing" textLength="42" x="563.5" y="43.4102">D&#233;taill&#233;</text><rect fill="#EEEEEE" height="19.9609" rx="5" ry="5" style="stroke:#000000;stroke-width:2.5;" width="244" x="625.5" y="28.4609"/><text fill="#000000" font-family="sans-serif" font-size="12" font-weight="bold" lengthAdjust="spacing" textLength="190" x="652.5" y="43.4102">Ecosyst&#232;mes Marins Vuln&#233;rables</text><text fill="#000000" font-family="sans-serif" font-size="12" lengthAdjust="spacing" textLength="15" x="874" y="38.9102">(1)</text><rect fill="#EEEEEE" height="12" rx="5" ry="5" style="stroke:#000000;stroke-width:2.5;" width="20" x="939.5" y="29.4609"/><path d="M949.5,31.4609 L945.5,35.4609 L949.5,39.4609 L951,37.9609 L948.5,35.4609 L951,32.9609 L949.5,31.4609 " fill="#000000" style="stroke:;stroke-width:0.0;stroke-dasharray:;"/><rect fill="#EEEEEE" height="12" rx="5" ry="5" style="stroke:#000000;stroke-width:2.5;" width="20" x="966.5" y="29.4609"/><path d="M974,31.4609 L972.5,32.9609 L975,35.4609 L972.5,37.9609 L974,39.4609 L978,35.4609 L974,31.4609 " fill="#000000" style="stroke:;stroke-width:0.0;stroke-dasharray:;"/><text fill="#000000" font-family="sans-serif" font-size="12" lengthAdjust="spacing" textLength="88" x="273" y="67.8711">Poids total (kg) :</text><text fill="#000000" font-family="sans-serif" font-size="12" lengthAdjust="spacing" textLength="7" x="366" y="67.8711">0</text><line style="stroke:#000000;stroke-width:1.0;" x1="364" x2="415" y1="70.8828" y2="70.8828"/><line style="stroke:#000000;stroke-width:1.0;" x1="364" x2="364" y1="67.8828" y2="69.8828"/><line style="stroke:#000000;stroke-width:1.0;" x1="415" x2="415" y1="67.8828" y2="69.8828"/><text fill="#000000" font-family="sans-serif" font-size="12" lengthAdjust="spacing" textLength="49" x="614" y="67.8711">Estim&#233; ?</text><rect fill="none" height="10" style="stroke:#000000;stroke-width:1.5;" width="10" x="596" y="57.9023"/><text fill="#000000" font-family="sans-serif" font-size="12" lengthAdjust="spacing" textLength="61" x="273" y="89.832">Coef. &#233;ch. :</text><text fill="#000000" font-family="sans-serif" font-size="12" lengthAdjust="spacing" textLength="17" x="339" y="89.832">1/1</text><line style="stroke:#000000;stroke-width:1.0;" x1="337" x2="404" y1="92.8438" y2="92.8438"/><line style="stroke:#000000;stroke-width:1.0;" x1="337" x2="337" y1="89.8438" y2="91.8438"/><line style="stroke:#000000;stroke-width:1.0;" x1="404" x2="404" y1="89.8438" y2="91.8438"/><text fill="#000000" font-family="sans-serif" font-size="12" lengthAdjust="spacing" textLength="102" x="433" y="89.832">Poids &#233;chant (kg) :</text><text fill="#000000" font-family="sans-serif" font-size="12" lengthAdjust="spacing" textLength="7" x="540" y="89.832">0</text><line style="stroke:#000000;stroke-width:1.0;" x1="538" x2="589" y1="92.8438" y2="92.8438"/><line style="stroke:#000000;stroke-width:1.0;" x1="538" x2="538" y1="89.8438" y2="91.8438"/><line style="stroke:#000000;stroke-width:1.0;" x1="589" x2="589" y1="89.8438" y2="91.8438"/><text fill="#000000" font-family="sans-serif" font-size="12" lengthAdjust="spacing" textLength="190" x="293" y="111.793">Inventaire exhaustif des esp&#232;ces ?</text><rect fill="none" height="10" style="stroke:#000000;stroke-width:1.5;" width="10" x="275" y="101.8242"/><line style="stroke:#AAAAAA;stroke-width:1.0;" x1="272" x2="992" y1="121.3047" y2="121.3047"/><rect fill="#EEEEEE" height="12" rx="5" ry="5" style="stroke:#000000;stroke-width:2.5;" width="36" x="285.5" y="130.3047"/><path d="M302.5,132.3047 L302.5,135.3047 L299.5,135.3047 L299.5,137.3047 L302.5,137.3047 L302.5,140.3047 L304.5,140.3047 L304.5,137.3047 L307.5,137.3047 L307.5,135.3047 L304.5,135.3047 L304.5,132.3047 L302.5,132.3047 " fill="#000000" style="stroke:;stroke-width:0.0;stroke-dasharray:;"/><rect fill="#EEEEEE" height="19.9609" rx="5" ry="5" style="stroke:#000000;stroke-width:2.5;" width="44" x="328.5" y="130.3047"/><text fill="#000000" font-family="sans-serif" font-size="12" font-weight="bold" lengthAdjust="spacing" textLength="8" x="339.5" y="145.2539">((</text><path d="M351.5,137.2656 L351.5,140.2656 L348.5,140.2656 L348.5,142.2656 L351.5,142.2656 L351.5,145.2656 L353.5,145.2656 L353.5,142.2656 L356.5,142.2656 L356.5,140.2656 L353.5,140.2656 L353.5,137.2656 L351.5,137.2656 " fill="#000000" style="stroke:;stroke-width:0.0;stroke-dasharray:;"/><text fill="#000000" font-family="sans-serif" font-size="12" font-weight="bold" lengthAdjust="spacing" textLength="4" x="357.5" y="145.2539">)</text><rect fill="#EEEEEE" height="12" rx="5" ry="5" style="stroke:#000000;stroke-width:2.5;" width="36" x="379.5" y="130.3047"/><path d="M396.5,132.3047 C395.95,132.3047 395.5,132.7547 395.5,133.3047 L394.5,133.3047 C393.95,133.3047 393.5,133.7547 393.5,134.3047 L400.5,134.3047 C400.5,133.7547 400.05,133.3047 399.5,133.3047 L398.5,133.3047 C398.5,132.7547 398.05,132.3047 397.5,132.3047 L396.5,132.3047 M394.5,135.3047 L394.5,140.1147 C394.5,140.2247 394.58,140.3047 394.69,140.3047 L399.32,140.3047 C399.43,140.3047 399.51,140.2247 399.51,140.1147 L399.51,135.3047 L398.51,135.3047 L398.51,138.8047 C398.51,139.0847 398.29,139.3047 398.01,139.3047 C397.73,139.3047 397.51,139.0847 397.51,138.8047 L397.51,135.3047 L396.51,135.3047 L396.51,138.8047 C396.51,139.0847 396.29,139.3047 396.01,139.3047 C395.73,139.3047 395.51,139.0847 395.51,138.8047 L395.51,135.3047 L394.51,135.3047 " fill="#000000" style="stroke:;stroke-width:0.0;stroke-dasharray:;"/><text fill="#000000" font-family="sans-serif" font-size="12" lengthAdjust="spacing" textLength="7" x="273" y="168.7148">#</text><text fill="#000000" font-family="sans-serif" font-size="12" font-weight="bold" lengthAdjust="spacing" textLength="93" x="282" y="168.7148">Cat&#233;gorie d'EMV</text><text fill="#000000" font-family="sans-serif" font-size="12" font-weight="bold" lengthAdjust="spacing" textLength="85" x="484" y="168.7148">Poids total (kg)</text><path d="M572,155.7656 L572,156.7656 L580,156.7656 L580,155.7656 L572,155.7656 M572,158.7356 L572,159.7356 L580,159.7356 L580,158.7356 L572,158.7356 M572,161.7356 L572,162.7356 L580,162.7356 L580,161.7356 L572,161.7356 " fill="#000000" style="stroke:;stroke-width:0.0;stroke-dasharray:;"/><text fill="#000000" font-family="sans-serif" font-size="12" lengthAdjust="spacing" textLength="7" x="273" y="186.6758">1</text><rect fill="#EEEEEE" height="18.9609" style="stroke:#000000;stroke-width:1.0;" width="199" x="282" y="173.7266"/><text fill="#000000" font-family="sans-serif" font-size="12" lengthAdjust="spacing" textLength="97" x="284" y="188.6758">BC - Coraux noirs</text><line style="stroke:#000000;stroke-width:1.0;" x1="470" x2="470" y1="173.7266" y2="192.6875"/><polygon fill="#000000" points="473,179.7266,479,179.7266,476,187.6875" style="stroke:#000000;stroke-width:1.0;"/><text fill="#000000" font-family="sans-serif" font-size="12" lengthAdjust="spacing" textLength="14" x="484" y="186.6758">10</text><path d="M572.09,178.6875 C572.03,178.6875 572,178.7275 572,178.7775 L572,184.5875 C572,184.6375 572.04,184.6775 572.09,184.6775 L578,184.6775 L580,186.6775 L580,178.7675 C580,178.7075 579.96,178.6775 579.91,178.6775 L572.1,178.6775 " fill="#000000" style="stroke:;stroke-width:0.0;stroke-dasharray:;"/><text fill="#000000" font-family="sans-serif" font-size="12" lengthAdjust="spacing" textLength="3" x="581" y="186.6758">&#160;</text><path d="M585,178.6875 L585,186.6875 L593,186.6875 L593,178.6875 L585,178.6875 M586,179.6875 L592,179.6875 L592,182.6875 L591,181.6875 L590,182.6875 L592,184.6875 L592,185.6875 L591,185.6875 L587,181.6875 L586,182.6875 L586,179.6875 " fill="#000000" style="stroke:;stroke-width:0.0;stroke-dasharray:;"/><line style="stroke:#000000;stroke-width:1.0;" x1="272" x2="281" y1="125.8047" y2="125.8047"/><line style="stroke:#000000;stroke-width:1.0;" x1="483" x2="570" y1="172.7266" y2="172.7266"/><line style="stroke:#000000;stroke-width:1.0;" x1="281" x2="483" y1="125.8047" y2="125.8047"/><line style="stroke:#000000;stroke-width:1.0;" x1="570" x2="595" y1="172.7266" y2="172.7266"/><line style="stroke:#000000;stroke-width:1.0;" x1="483" x2="570" y1="125.8047" y2="125.8047"/><line style="stroke:#000000;stroke-width:1.0;" x1="570" x2="595" y1="125.8047" y2="125.8047"/><line style="stroke:#000000;stroke-width:1.0;" x1="272" x2="281" y1="194.6875" y2="194.6875"/><line style="stroke:#000000;stroke-width:1.0;" x1="281" x2="483" y1="194.6875" y2="194.6875"/><line style="stroke:#000000;stroke-width:1.0;" x1="483" x2="570" y1="194.6875" y2="194.6875"/><line style="stroke:#000000;stroke-width:1.0;" x1="272" x2="281" y1="154.7656" y2="154.7656"/><line style="stroke:#000000;stroke-width:1.0;" x1="570" x2="595" y1="194.6875" y2="194.6875"/><line style="stroke:#000000;stroke-width:1.0;" x1="281" x2="483" y1="154.7656" y2="154.7656"/><line style="stroke:#000000;stroke-width:1.0;" x1="483" x2="570" y1="154.7656" y2="154.7656"/><line style="stroke:#000000;stroke-width:1.0;" x1="570" x2="595" y1="154.7656" y2="154.7656"/><line style="stroke:#000000;stroke-width:1.0;" x1="272" x2="281" y1="172.7266" y2="172.7266"/><line style="stroke:#000000;stroke-width:1.0;" x1="281" x2="483" y1="172.7266" y2="172.7266"/><line style="stroke:#000000;stroke-width:1.0;" x1="272" x2="272" y1="125.8047" y2="154.7656"/><line style="stroke:#000000;stroke-width:1.0;" x1="483" x2="483" y1="172.7266" y2="194.6875"/><line style="stroke:#000000;stroke-width:1.0;" x1="281" x2="281" y1="125.8047" y2="154.7656"/><line style="stroke:#000000;stroke-width:1.0;" x1="570" x2="570" y1="172.7266" y2="194.6875"/><line style="stroke:#000000;stroke-width:1.0;" x1="595" x2="595" y1="172.7266" y2="194.6875"/><line style="stroke:#000000;stroke-width:1.0;" x1="483" x2="483" y1="125.8047" y2="154.7656"/><line style="stroke:#000000;stroke-width:1.0;" x1="570" x2="570" y1="125.8047" y2="154.7656"/><line style="stroke:#000000;stroke-width:1.0;" x1="595" x2="595" y1="125.8047" y2="154.7656"/><line style="stroke:#000000;stroke-width:1.0;" x1="272" x2="272" y1="154.7656" y2="172.7266"/><line style="stroke:#000000;stroke-width:1.0;" x1="281" x2="281" y1="154.7656" y2="172.7266"/><line style="stroke:#000000;stroke-width:1.0;" x1="483" x2="483" y1="154.7656" y2="172.7266"/><line style="stroke:#000000;stroke-width:1.0;" x1="570" x2="570" y1="154.7656" y2="172.7266"/><line style="stroke:#000000;stroke-width:1.0;" x1="595" x2="595" y1="154.7656" y2="172.7266"/><line style="stroke:#000000;stroke-width:1.0;" x1="272" x2="272" y1="172.7266" y2="194.6875"/><line style="stroke:#000000;stroke-width:1.0;" x1="281" x2="281" y1="172.7266" y2="194.6875"/><line style="stroke:#AAAAAA;stroke-width:1.0;" x1="6" x2="258" y1="249.9922" y2="249.9922"/><line style="stroke:#AAAAAA;stroke-width:1.0;" x1="259" x2="270" y1="249.9922" y2="249.9922"/><line style="stroke:#AAAAAA;stroke-width:1.0;" x1="271" x2="993" y1="249.9922" y2="249.9922"/><rect fill="#EEEEEE" height="19.9609" rx="5" ry="5" style="stroke:#000000;stroke-width:2.5;" width="52" x="9.5" y="257.9922"/><text fill="#000000" font-family="sans-serif" font-size="12" lengthAdjust="spacing" textLength="40" x="15.5" y="272.9414">Fermer</text><rect fill="#EEEEEE" height="19.9609" rx="5" ry="5" style="stroke:#000000;stroke-width:2.5;" width="92" x="68.5" y="257.9922"/><text fill="#000000" font-family="sans-serif" font-size="12" lengthAdjust="spacing" textLength="70" x="79.5" y="272.9414">Sauvegarder</text><!--SRC=[lLJTRjem5BxFKnor4WEnK09RBoAKTWMwhIiRQZjsWQXa4WCMmMQsWrhHl4-vtnlanNQS7s1Rr-vgaMmbv-SxVz_9gT94QaL2RQqjWFKHT9AD9YnKy02jiGTjijIHf10RRHKlMD-OsppLGhiLLA6FS8o2f9how0a55xnGleQ19FxEf5h43fFDdhGAxpXRaEZEPEIBK4Xt719_xWther_CMcEKkeUTJiVh-aBTAvqyBgY27f6CAnX48Kysaen3cXR7l2rQHBsXimy6dp7DO9lDiv6VhEo3aCekoejJuzhljssdxSoHXgsIFwF-V47a7Dikk9R9Zv3A4GOVcb6qMZ0gq68Krl1apciOveCmnaV6uM_TJj5sRKu_4VkbVXcxibF9exvqrdanAocu7TA9zh8uMvbaqvaHnbXCLa5Vi4215fg4K9vFA-2Ynm507PK7_nZsVvqXZA2hD5iWCKws5RG5dTGWsVYpMfwyS-J0C-bd9Hi7mlLpHHSHqi0V-Ofod1wk9BsRaGZpc420KwDgcJpw-7AIyytE-0NhmuAhXdXcF4YdqZACb0V5_ClbN8BlbPnn9Is9cXcR68fazf0Einz4c-XaCnKIoHQywlO6a8d_cATv7l2qIWjaexS7vA3yzgmDDf9UcZNdWacLwMwDZrFFd94_Oe7UsbRV8oAfXnByCKpf3YtT3TCksqQ7_BBItfrJkSYtwPf4ApebCZ3ViHLRfvG7wJ_GweSuZA-zIrXHgHXkZrDhr1lDckEKlz40hkaId2OqwcxZs6qseTszlW5ZKB7Ax_kNe4GaVUm4KrgoSQGHeM9Ta1M1guWZOwWBNvQKNtG-5GBeyXN3dJ1rMHU3tixW-8rznZI6b9WB37fMXqv856hqy4N0-DI5zj9fl6rObuHF8-o32nDfjGK2otiNpgz-0W00]--></g></svg>