<?xml version="1.0" encoding="UTF-8" standalone="no"?><svg xmlns="http://www.w3.org/2000/svg" xmlns:xlink="http://www.w3.org/1999/xlink" contentStyleType="text/css" height="440px" preserveAspectRatio="none" style="width:590px;height:440px;background:#FFFFFF;" version="1.1" viewBox="0 0 590 440" width="590px" zoomAndPan="magnify"><defs><filter height="1" id="b1egz1ipfqha960" width="1" x="0" y="0"><feFlood flood-color="#DDDDDD" result="flood"/><feComposite in="SourceGraphic" in2="flood" operator="over"/></filter></defs><g><text fill="#000000" font-family="sans-serif" font-size="12" lengthAdjust="spacing" textLength="39" x="8" y="18.8281">Détails</text><line style="stroke:#000000;stroke-width:1.0;" x1="6" x2="6" y1="6" y2="22.3441"/><line style="stroke:#000000;stroke-width:1.0;" x1="6" x2="50" y1="6" y2="6"/><line style="stroke:#000000;stroke-width:1.0;" x1="50" x2="50" y1="6" y2="22.3441"/><line style="stroke:#000000;stroke-width:1.0;" x1="50" x2="60" y1="22.3441" y2="22.3441"/><text fill="#000000" font-family="sans-serif" font-size="12" font-weight="bold" lengthAdjust="spacing" textLength="48" x="65" y="18.8281">Capture</text><line style="stroke:#000000;stroke-width:1.0;" x1="60" x2="60" y1="6" y2="22.3441"/><line style="stroke:#000000;stroke-width:1.0;" x1="60" x2="116" y1="6" y2="6"/><line style="stroke:#000000;stroke-width:1.0;" x1="116" x2="116" y1="6" y2="22.3441"/><line style="stroke:#000000;stroke-width:1.0;" x1="116" x2="126" y1="22.3441" y2="22.3441"/><text fill="#000000" filter="url(#b1egz1ipfqha960)" font-family="sans-serif" font-size="12" lengthAdjust="spacing" textLength="45" x="17" y="38.1722">Capture</text><text fill="#000000" font-family="sans-serif" font-size="12" lengthAdjust="spacing" textLength="80" x="27" y="54.5163">Partie retenue</text><text fill="#808080" font-family="sans-serif" font-size="12" lengthAdjust="spacing" textLength="15" x="184" y="54.5163">[0]</text><text fill="#000000" font-family="sans-serif" font-size="12" lengthAdjust="spacing" textLength="137" x="37" y="70.8604">Consommation humaine</text><text fill="#0000FF" font-family="sans-serif" font-size="12" lengthAdjust="spacing" textLength="15" x="184" y="70.8604">[2]</text><text fill="#000000" font-family="sans-serif" font-size="12" lengthAdjust="spacing" textLength="50" x="37" y="87.2045">Industrie</text><text fill="#0000FF" font-family="sans-serif" font-size="12" lengthAdjust="spacing" textLength="15" x="184" y="87.2045">[2]</text><text fill="#000000" font-family="sans-serif" font-size="12" lengthAdjust="spacing" textLength="107" x="27" y="103.5487">Partie rejetée, Vrac</text><text fill="#808080" font-family="sans-serif" font-size="12" lengthAdjust="spacing" textLength="15" x="184" y="103.5487">[0]</text><text fill="#000000" font-family="sans-serif" font-size="12" lengthAdjust="spacing" textLength="138" x="27" y="119.8928">Partie rejetée, Hors-Vrac</text><text fill="#808080" font-family="sans-serif" font-size="12" lengthAdjust="spacing" textLength="15" x="184" y="119.8928">[0]</text><rect fill="none" height="2" style="stroke:#888888;stroke-width:1.0;" width="2" x="10" y="32.5162"/><rect fill="none" height="2" style="stroke:#888888;stroke-width:1.0;" width="2" x="20" y="48.8603"/><line style="stroke:#888888;stroke-width:1.0;" x1="11" x2="11" y1="35.5162" y2="49.8603"/><line style="stroke:#888888;stroke-width:1.0;" x1="11" x2="19" y1="49.8603" y2="49.8603"/><line style="stroke:#888888;stroke-width:1.0;" x1="21" x2="21" y1="51.8603" y2="66.2044"/><line style="stroke:#888888;stroke-width:1.0;" x1="21" x2="29" y1="66.2044" y2="66.2044"/><line style="stroke:#888888;stroke-width:1.0;" x1="21" x2="21" y1="51.8603" y2="82.5485"/><line style="stroke:#888888;stroke-width:1.0;" x1="21" x2="29" y1="82.5485" y2="82.5485"/><line style="stroke:#888888;stroke-width:1.0;" x1="11" x2="11" y1="35.5162" y2="98.8926"/><line style="stroke:#888888;stroke-width:1.0;" x1="11" x2="19" y1="98.8926" y2="98.8926"/><line style="stroke:#888888;stroke-width:1.0;" x1="11" x2="11" y1="35.5162" y2="115.2367"/><line style="stroke:#888888;stroke-width:1.0;" x1="11" x2="19" y1="115.2367" y2="115.2367"/><line style="stroke:#AAAAAA;stroke-width:1.0;" x1="7" x2="202" y1="367.3823" y2="367.3823"/><rect fill="#EEEEEE" height="20.3441" rx="5" ry="5" style="stroke:#000000;stroke-width:2.5;" width="76" x="10.5" y="375.3823"/><path d="M32.5,382.7264 L31.5,383.7264 L33.5,385.7264 L34.5,384.7264 L32.5,382.7264 M30.5,384.7264 L26.5,388.7264 L26.5,390.7264 L28.5,390.7264 L32.5,386.7264 L30.5,384.7264 " fill="#000000" style="stroke:;stroke-width:0.0;stroke-dasharray:;"/><text fill="#000000" font-family="sans-serif" font-size="12" lengthAdjust="spacing" textLength="33" x="38.5" y="390.2104">éditer</text><rect fill="#EEEEEE" height="20.3441" rx="5" ry="5" style="stroke:#000000;stroke-width:2.5;" width="36" x="93.5" y="375.3823"/><text fill="#000000" font-family="sans-serif" font-size="12" lengthAdjust="spacing" textLength="14" x="104.5" y="390.2104">&lt;&lt;</text><line style="stroke:#000000;stroke-width:1.0;" x1="6" x2="202" y1="24.3441" y2="24.3441"/><line style="stroke:#000000;stroke-width:1.0;" x1="6" x2="202" y1="400.2264" y2="400.2264"/><line style="stroke:#000000;stroke-width:1.0;" x1="6" x2="6" y1="24.3441" y2="124.4088"/><line style="stroke:#000000;stroke-width:1.0;" x1="202" x2="202" y1="24.3441" y2="124.4088"/><line style="stroke:#000000;stroke-width:1.0;" x1="6" x2="6" y1="370.8823" y2="400.2264"/><line style="stroke:#000000;stroke-width:1.0;" x1="202" x2="202" y1="370.8823" y2="400.2264"/><line style="stroke:#000000;stroke-width:1.0;" x1="6" x2="6" y1="307.8499" y2="326.1941"/><line style="stroke:#000000;stroke-width:1.0;" x1="202" x2="202" y1="307.8499" y2="326.1941"/><line style="stroke:#000000;stroke-width:1.0;" x1="6" x2="6" y1="234.4735" y2="252.8176"/><line style="stroke:#000000;stroke-width:1.0;" x1="202" x2="202" y1="234.4735" y2="252.8176"/><line style="stroke:#000000;stroke-width:1.0;" x1="6" x2="6" y1="161.097" y2="179.4411"/><line style="stroke:#000000;stroke-width:1.0;" x1="202" x2="202" y1="161.097" y2="179.4411"/><line style="stroke:#000000;stroke-width:1.0;" x1="6" x2="6" y1="362.8823" y2="370.8823"/><line style="stroke:#000000;stroke-width:1.0;" x1="202" x2="202" y1="362.8823" y2="370.8823"/><line style="stroke:#000000;stroke-width:1.0;" x1="6" x2="6" y1="289.5058" y2="307.8499"/><line style="stroke:#000000;stroke-width:1.0;" x1="202" x2="202" y1="289.5058" y2="307.8499"/><line style="stroke:#000000;stroke-width:1.0;" x1="6" x2="6" y1="216.1294" y2="234.4735"/><line style="stroke:#000000;stroke-width:1.0;" x1="202" x2="202" y1="216.1294" y2="234.4735"/><line style="stroke:#000000;stroke-width:1.0;" x1="6" x2="6" y1="142.7529" y2="161.097"/><line style="stroke:#000000;stroke-width:1.0;" x1="202" x2="202" y1="142.7529" y2="161.097"/><line style="stroke:#000000;stroke-width:1.0;" x1="6" x2="6" y1="344.5382" y2="362.8823"/><line style="stroke:#000000;stroke-width:1.0;" x1="202" x2="202" y1="344.5382" y2="362.8823"/><line style="stroke:#000000;stroke-width:1.0;" x1="6" x2="6" y1="271.1617" y2="289.5058"/><line style="stroke:#000000;stroke-width:1.0;" x1="202" x2="202" y1="271.1617" y2="289.5058"/><line style="stroke:#000000;stroke-width:1.0;" x1="6" x2="6" y1="197.7853" y2="216.1294"/><line style="stroke:#000000;stroke-width:1.0;" x1="202" x2="202" y1="197.7853" y2="216.1294"/><line style="stroke:#000000;stroke-width:1.0;" x1="6" x2="6" y1="124.4088" y2="142.7529"/><line style="stroke:#000000;stroke-width:1.0;" x1="202" x2="202" y1="124.4088" y2="142.7529"/><line style="stroke:#000000;stroke-width:1.0;" x1="6" x2="6" y1="326.1941" y2="344.5382"/><line style="stroke:#000000;stroke-width:1.0;" x1="202" x2="202" y1="326.1941" y2="344.5382"/><line style="stroke:#000000;stroke-width:1.0;" x1="6" x2="6" y1="252.8176" y2="271.1617"/><line style="stroke:#000000;stroke-width:1.0;" x1="202" x2="202" y1="252.8176" y2="271.1617"/><line style="stroke:#000000;stroke-width:1.0;" x1="6" x2="6" y1="179.4411" y2="197.7853"/><line style="stroke:#000000;stroke-width:1.0;" x1="202" x2="202" y1="179.4411" y2="197.7853"/><rect fill="#EEEEEE" height="20.3441" rx="5" ry="5" style="stroke:#000000;stroke-width:2.5;" width="60" x="220.5" y="28.8441"/><text fill="#000000" font-family="sans-serif" font-size="12" font-weight="bold" lengthAdjust="spacing" textLength="48" x="226.5" y="43.6722">Capture</text><text fill="#000000" font-family="sans-serif" font-size="12" lengthAdjust="spacing" textLength="4" x="285" y="39.1722">/</text><rect fill="#EEEEEE" height="20.3441" rx="5" ry="5" style="stroke:#000000;stroke-width:2.5;" width="28" x="293.5" y="28.8441"/><text fill="#000000" font-family="sans-serif" font-size="12" lengthAdjust="spacing" textLength="9" x="303" y="43.6722">...</text><text fill="#000000" font-family="sans-serif" font-size="12" lengthAdjust="spacing" textLength="146" x="218" y="68.5163">Capture (toutes espèces) :</text><text fill="#808080" font-family="sans-serif" font-size="12" lengthAdjust="spacing" textLength="128" x="369" y="68.5163">Poids total capture (kg)</text><line style="stroke:#000000;stroke-width:1.0;" x1="367" x2="578" y1="72.0323" y2="72.0323"/><line style="stroke:#000000;stroke-width:1.0;" x1="367" x2="367" y1="69.0323" y2="71.0323"/><line style="stroke:#000000;stroke-width:1.0;" x1="578" x2="578" y1="69.0323" y2="71.0323"/><line style="stroke:#AAAAAA;stroke-width:1.0;" x1="6" x2="203" y1="405.7264" y2="405.7264"/><line style="stroke:#AAAAAA;stroke-width:1.0;" x1="204" x2="215" y1="405.7264" y2="405.7264"/><line style="stroke:#AAAAAA;stroke-width:1.0;" x1="216" x2="583" y1="405.7264" y2="405.7264"/><rect fill="#EEEEEE" height="20.3441" rx="5" ry="5" style="stroke:#000000;stroke-width:2.5;" width="52" x="9.5" y="413.7264"/><text fill="#000000" font-family="sans-serif" font-size="12" lengthAdjust="spacing" textLength="41" x="15" y="428.5545">Fermer</text><rect fill="#EEEEEE" height="20.3441" rx="5" ry="5" style="stroke:#000000;stroke-width:2.5;" width="92" x="68.5" y="413.7264"/><text fill="#000000" font-family="sans-serif" font-size="12" lengthAdjust="spacing" textLength="72" x="78.5" y="428.5545">Sauvegarder</text></g></svg>