<?xml version="1.0" encoding="UTF-8" standalone="no"?><svg xmlns="http://www.w3.org/2000/svg" xmlns:xlink="http://www.w3.org/1999/xlink" contentStyleType="text/css" height="324px" preserveAspectRatio="none" style="width:513px;height:324px;background:#FFFFFF;" version="1.1" viewBox="0 0 513 324" width="513px" zoomAndPan="magnify"><defs><filter height="1" id="b111xw0mah0kj20" width="1" x="0" y="0"><feFlood flood-color="#DDDDDD" result="flood"/><feComposite in="SourceGraphic" in2="flood" operator="over"/></filter></defs><g><text fill="#000000" font-family="sans-serif" font-size="12" lengthAdjust="spacing" textLength="39" x="8" y="18.8281">Détails</text><line style="stroke:#000000;stroke-width:1.0;" x1="6" x2="6" y1="6" y2="22.3441"/><line style="stroke:#000000;stroke-width:1.0;" x1="6" x2="50" y1="6" y2="6"/><line style="stroke:#000000;stroke-width:1.0;" x1="50" x2="50" y1="6" y2="22.3441"/><line style="stroke:#000000;stroke-width:1.0;" x1="50" x2="60" y1="22.3441" y2="22.3441"/><text fill="#000000" font-family="sans-serif" font-size="12" font-weight="bold" lengthAdjust="spacing" textLength="48" x="65" y="18.8281">Capture</text><line style="stroke:#000000;stroke-width:1.0;" x1="60" x2="60" y1="6" y2="22.3441"/><line style="stroke:#000000;stroke-width:1.0;" x1="60" x2="116" y1="6" y2="6"/><line style="stroke:#000000;stroke-width:1.0;" x1="116" x2="116" y1="6" y2="22.3441"/><line style="stroke:#000000;stroke-width:1.0;" x1="116" x2="126" y1="22.3441" y2="22.3441"/><text fill="#000000" filter="url(#b111xw0mah0kj20)" font-family="sans-serif" font-size="12" lengthAdjust="spacing" textLength="45" x="17" y="38.1722">Capture</text><text fill="#0000FF" font-family="sans-serif" font-size="12" font-style="italic" lengthAdjust="spacing" textLength="40" x="203" y="38.1722">[200kg]</text><text fill="#000000" font-family="sans-serif" font-size="12" lengthAdjust="spacing" textLength="80" x="27" y="54.5163">Partie retenue</text><text fill="#000000" font-family="sans-serif" font-size="12" lengthAdjust="spacing" textLength="71" x="203" y="54.5163">[185kg] (1/2)</text><text fill="#000000" font-family="sans-serif" font-size="12" lengthAdjust="spacing" textLength="33" x="37" y="70.8604">Appat</text><text fill="#0000FF" font-family="sans-serif" font-size="12" font-style="italic" lengthAdjust="spacing" textLength="33" x="203" y="70.8604">[10kg]</text><text fill="#000000" font-family="sans-serif" font-size="12" lengthAdjust="spacing" textLength="137" x="37" y="87.2045">Consommation humaine</text><text fill="#0000FF" font-family="sans-serif" font-size="12" font-style="italic" lengthAdjust="spacing" textLength="33" x="203" y="87.2045">[40kg]</text><text fill="#000000" font-family="sans-serif" font-size="12" lengthAdjust="spacing" textLength="46" x="37" y="103.5487">Godaille</text><text fill="#0000FF" font-family="sans-serif" font-size="12" font-style="italic" lengthAdjust="spacing" textLength="33" x="203" y="103.5487">[10kg]</text><text fill="#000000" font-family="sans-serif" font-size="12" lengthAdjust="spacing" textLength="50" x="37" y="119.8928">Industrie</text><text fill="#0000FF" font-family="sans-serif" font-size="12" font-style="italic" lengthAdjust="spacing" textLength="33" x="203" y="119.8928">[75kg]</text><text fill="#000000" font-family="sans-serif" font-size="12" lengthAdjust="spacing" textLength="129" x="37" y="136.2369">Obligation à débarquer</text><text fill="#0000FF" font-family="sans-serif" font-size="12" font-style="italic" lengthAdjust="spacing" textLength="33" x="203" y="136.2369">[50kg]</text><text fill="#000000" font-family="sans-serif" font-size="12" lengthAdjust="spacing" textLength="135" x="27" y="152.581">Partie non retenue, Vrac</text><text fill="#000000" font-family="sans-serif" font-size="12" lengthAdjust="spacing" textLength="35" x="203" y="152.581">[10kg]</text><text fill="#000000" font-family="sans-serif" font-size="12" lengthAdjust="spacing" textLength="166" x="27" y="168.9251">Partie non retenue, Hors-Vrac</text><text fill="#000000" font-family="sans-serif" font-size="12" lengthAdjust="spacing" textLength="28" x="203" y="168.9251">[5kg]</text><rect fill="none" height="2" style="stroke:#888888;stroke-width:1.0;" width="2" x="10" y="32.5162"/><rect fill="none" height="2" style="stroke:#888888;stroke-width:1.0;" width="2" x="20" y="48.8603"/><line style="stroke:#888888;stroke-width:1.0;" x1="11" x2="11" y1="35.5162" y2="49.8603"/><line style="stroke:#888888;stroke-width:1.0;" x1="11" x2="19" y1="49.8603" y2="49.8603"/><line style="stroke:#888888;stroke-width:1.0;" x1="21" x2="21" y1="51.8603" y2="66.2044"/><line style="stroke:#888888;stroke-width:1.0;" x1="21" x2="29" y1="66.2044" y2="66.2044"/><line style="stroke:#888888;stroke-width:1.0;" x1="21" x2="21" y1="51.8603" y2="82.5485"/><line style="stroke:#888888;stroke-width:1.0;" x1="21" x2="29" y1="82.5485" y2="82.5485"/><line style="stroke:#888888;stroke-width:1.0;" x1="21" x2="21" y1="51.8603" y2="98.8926"/><line style="stroke:#888888;stroke-width:1.0;" x1="21" x2="29" y1="98.8926" y2="98.8926"/><line style="stroke:#888888;stroke-width:1.0;" x1="21" x2="21" y1="51.8603" y2="115.2367"/><line style="stroke:#888888;stroke-width:1.0;" x1="21" x2="29" y1="115.2367" y2="115.2367"/><line style="stroke:#888888;stroke-width:1.0;" x1="21" x2="21" y1="51.8603" y2="131.5809"/><line style="stroke:#888888;stroke-width:1.0;" x1="21" x2="29" y1="131.5809" y2="131.5809"/><line style="stroke:#888888;stroke-width:1.0;" x1="11" x2="11" y1="35.5162" y2="147.925"/><line style="stroke:#888888;stroke-width:1.0;" x1="11" x2="19" y1="147.925" y2="147.925"/><line style="stroke:#888888;stroke-width:1.0;" x1="11" x2="11" y1="35.5162" y2="164.2691"/><line style="stroke:#888888;stroke-width:1.0;" x1="11" x2="19" y1="164.2691" y2="164.2691"/><line style="stroke:#AAAAAA;stroke-width:1.0;" x1="7" x2="277" y1="251.3176" y2="251.3176"/><rect fill="#EEEEEE" height="20.3441" rx="5" ry="5" style="stroke:#000000;stroke-width:2.5;" width="100" x="10.5" y="259.3176"/><text fill="#000000" font-family="sans-serif" font-size="12" lengthAdjust="spacing" textLength="53" x="35.5" y="274.1457">Contrôler</text><rect fill="#EEEEEE" height="20.3441" rx="5" ry="5" style="stroke:#000000;stroke-width:2.5;" width="36" x="117.5" y="259.3176"/><text fill="#000000" font-family="sans-serif" font-size="12" font-weight="bold" lengthAdjust="spacing" textLength="14" x="128.5" y="274.1457">&lt;&lt;</text><line style="stroke:#000000;stroke-width:1.0;" x1="6" x2="277" y1="24.3441" y2="24.3441"/><line style="stroke:#000000;stroke-width:1.0;" x1="6" x2="277" y1="284.1617" y2="284.1617"/><line style="stroke:#000000;stroke-width:1.0;" x1="6" x2="6" y1="24.3441" y2="173.4411"/><line style="stroke:#000000;stroke-width:1.0;" x1="277" x2="277" y1="24.3441" y2="173.4411"/><line style="stroke:#000000;stroke-width:1.0;" x1="6" x2="6" y1="246.8176" y2="254.8176"/><line style="stroke:#000000;stroke-width:1.0;" x1="277" x2="277" y1="246.8176" y2="254.8176"/><line style="stroke:#000000;stroke-width:1.0;" x1="6" x2="6" y1="210.1294" y2="228.4735"/><line style="stroke:#000000;stroke-width:1.0;" x1="277" x2="277" y1="210.1294" y2="228.4735"/><line style="stroke:#000000;stroke-width:1.0;" x1="6" x2="6" y1="173.4411" y2="191.7853"/><line style="stroke:#000000;stroke-width:1.0;" x1="277" x2="277" y1="173.4411" y2="191.7853"/><line style="stroke:#000000;stroke-width:1.0;" x1="6" x2="6" y1="254.8176" y2="284.1617"/><line style="stroke:#000000;stroke-width:1.0;" x1="277" x2="277" y1="254.8176" y2="284.1617"/><line style="stroke:#000000;stroke-width:1.0;" x1="6" x2="6" y1="228.4735" y2="246.8176"/><line style="stroke:#000000;stroke-width:1.0;" x1="277" x2="277" y1="228.4735" y2="246.8176"/><line style="stroke:#000000;stroke-width:1.0;" x1="6" x2="6" y1="191.7853" y2="210.1294"/><line style="stroke:#000000;stroke-width:1.0;" x1="277" x2="277" y1="191.7853" y2="210.1294"/><rect fill="#EEEEEE" height="20.3441" rx="5" ry="5" style="stroke:#000000;stroke-width:2.5;" width="60" x="295.5" y="28.8441"/><text fill="#000000" font-family="sans-serif" font-size="12" font-weight="bold" lengthAdjust="spacing" textLength="48" x="301.5" y="43.6722">Capture</text><text fill="#000000" font-family="sans-serif" font-size="12" lengthAdjust="spacing" textLength="4" x="360" y="39.1722">/</text><rect fill="#EEEEEE" height="20.3441" rx="5" ry="5" style="stroke:#000000;stroke-width:2.5;" width="28" x="368.5" y="28.8441"/><text fill="#000000" font-family="sans-serif" font-size="12" lengthAdjust="spacing" textLength="9" x="378" y="43.6722">...</text><rect fill="#EEEEEE" height="12" rx="5" ry="5" style="stroke:#000000;stroke-width:2.5;" width="20" x="448.5" y="28.8441"/><path d="M458.5,30.8441 L454.5,34.8441 L458.5,38.8441 L460,37.3441 L457.5,34.8441 L460,32.3441 L458.5,30.8441 " fill="#000000" style="stroke:;stroke-width:0.0;stroke-dasharray:;"/><rect fill="#EEEEEE" height="12" rx="5" ry="5" style="stroke:#000000;stroke-width:2.5;" width="20" x="475.5" y="28.8441"/><path d="M483,30.8441 L481.5,32.3441 L484,34.8441 L481.5,37.3441 L483,38.8441 L487,34.8441 L483,30.8441 " fill="#000000" style="stroke:;stroke-width:0.0;stroke-dasharray:;"/><text fill="#000000" font-family="sans-serif" font-size="12" lengthAdjust="spacing" textLength="57" x="313" y="68.5163">Coup nul ?</text><rect fill="none" height="10" style="stroke:#000000;stroke-width:1.5;" width="10" x="295" y="58.8603"/><text fill="#000000" font-family="sans-serif" font-size="12" lengthAdjust="spacing" textLength="170" x="293" y="88.8604">Capture (toutes espèces) (kg) :</text><text fill="#0000FF" font-family="sans-serif" font-size="12" font-style="italic" lengthAdjust="spacing" textLength="21" x="468" y="88.8604">200</text><line style="stroke:#000000;stroke-width:1.0;" x1="466" x2="501" y1="92.3765" y2="92.3765"/><line style="stroke:#000000;stroke-width:1.0;" x1="466" x2="466" y1="89.3765" y2="91.3765"/><line style="stroke:#000000;stroke-width:1.0;" x1="501" x2="501" y1="89.3765" y2="91.3765"/><line style="stroke:#AAAAAA;stroke-width:1.0;" x1="6" x2="278" y1="289.6617" y2="289.6617"/><line style="stroke:#AAAAAA;stroke-width:1.0;" x1="279" x2="290" y1="289.6617" y2="289.6617"/><line style="stroke:#AAAAAA;stroke-width:1.0;" x1="291" x2="506" y1="289.6617" y2="289.6617"/><rect fill="#EEEEEE" height="20.3441" rx="5" ry="5" style="stroke:#000000;stroke-width:2.5;" width="52" x="9.5" y="297.6617"/><text fill="#000000" font-family="sans-serif" font-size="12" lengthAdjust="spacing" textLength="41" x="15" y="312.4898">Fermer</text><rect fill="#EEEEEE" height="20.3441" rx="5" ry="5" style="stroke:#000000;stroke-width:2.5;" width="92" x="68.5" y="297.6617"/><text fill="#000000" font-family="sans-serif" font-size="12" lengthAdjust="spacing" textLength="72" x="78.5" y="312.4898">Sauvegarder</text></g></svg>