<?xml version="1.0" encoding="UTF-8" standalone="no"?><svg xmlns="http://www.w3.org/2000/svg" xmlns:xlink="http://www.w3.org/1999/xlink" contentStyleType="text/css" height="289px" preserveAspectRatio="none" style="width:968px;height:289px;background:#FFFFFF;" version="1.1" viewBox="0 0 968 289" width="968px" zoomAndPan="magnify"><defs><filter height="1" id="b18vek4wup1gsf0" width="1" x="0" y="0"><feFlood flood-color="#DDDDDD" result="flood"/><feComposite in="SourceGraphic" in2="flood" operator="over"/></filter></defs><g><text fill="#000000" font-family="sans-serif" font-size="12" lengthAdjust="spacing" textLength="39" x="8" y="18.8281">Détails</text><line style="stroke:#000000;stroke-width:1.0;" x1="6" x2="6" y1="6" y2="22.3441"/><line style="stroke:#000000;stroke-width:1.0;" x1="6" x2="50" y1="6" y2="6"/><line style="stroke:#000000;stroke-width:1.0;" x1="50" x2="50" y1="6" y2="22.3441"/><line style="stroke:#000000;stroke-width:1.0;" x1="50" x2="60" y1="22.3441" y2="22.3441"/><text fill="#000000" font-family="sans-serif" font-size="12" font-weight="bold" lengthAdjust="spacing" textLength="48" x="65" y="18.8281">Capture</text><line style="stroke:#000000;stroke-width:1.0;" x1="60" x2="60" y1="6" y2="22.3441"/><line style="stroke:#000000;stroke-width:1.0;" x1="60" x2="116" y1="6" y2="6"/><line style="stroke:#000000;stroke-width:1.0;" x1="116" x2="116" y1="6" y2="22.3441"/><line style="stroke:#000000;stroke-width:1.0;" x1="116" x2="126" y1="22.3441" y2="22.3441"/><text fill="#000000" font-family="sans-serif" font-size="12" lengthAdjust="spacing" textLength="45" x="17" y="38.1722">Capture</text><text fill="#000000" font-family="sans-serif" font-size="12" lengthAdjust="spacing" textLength="80" x="27" y="54.5163">Partie retenue</text><text fill="#000000" font-family="sans-serif" font-size="12" lengthAdjust="spacing" textLength="135" x="27" y="70.8604">Partie non retenue, Vrac</text><text fill="#000000" font-family="sans-serif" font-size="12" lengthAdjust="spacing" textLength="43" x="37" y="87.2045">Détaillé</text><text fill="#000000" font-family="sans-serif" font-size="12" lengthAdjust="spacing" textLength="67" x="37" y="103.5487">Non détaillé</text><text fill="#000000" font-family="sans-serif" font-size="12" lengthAdjust="spacing" textLength="15" x="231" y="103.5487">[0]</text><text fill="#000000" font-family="sans-serif" font-size="12" lengthAdjust="spacing" textLength="166" x="27" y="119.8928">Partie non retenue, Hors-Vrac</text><text fill="#000000" filter="url(#b18vek4wup1gsf0)" font-family="sans-serif" font-size="12" lengthAdjust="spacing" textLength="49" x="37" y="136.2369">Animaux</text><text fill="#0000FF" font-family="sans-serif" font-size="12" font-style="italic" lengthAdjust="spacing" textLength="13" x="231" y="136.2369">[2]</text><text fill="#000000" font-family="sans-serif" font-size="12" lengthAdjust="spacing" textLength="184" x="37" y="152.581">Ecosystèmes Marins Vulnérables</text><text fill="#000000" font-family="sans-serif" font-size="12" lengthAdjust="spacing" textLength="15" x="231" y="152.581">[0]</text><rect fill="none" height="2" style="stroke:#888888;stroke-width:1.0;" width="2" x="10" y="32.5162"/><line style="stroke:#888888;stroke-width:1.0;" x1="11" x2="11" y1="35.5162" y2="49.8603"/><line style="stroke:#888888;stroke-width:1.0;" x1="11" x2="19" y1="49.8603" y2="49.8603"/><rect fill="none" height="2" style="stroke:#888888;stroke-width:1.0;" width="2" x="20" y="65.2044"/><line style="stroke:#888888;stroke-width:1.0;" x1="11" x2="11" y1="35.5162" y2="66.2044"/><line style="stroke:#888888;stroke-width:1.0;" x1="11" x2="19" y1="66.2044" y2="66.2044"/><line style="stroke:#888888;stroke-width:1.0;" x1="21" x2="21" y1="68.2044" y2="82.5485"/><line style="stroke:#888888;stroke-width:1.0;" x1="21" x2="29" y1="82.5485" y2="82.5485"/><line style="stroke:#888888;stroke-width:1.0;" x1="21" x2="21" y1="68.2044" y2="98.8926"/><line style="stroke:#888888;stroke-width:1.0;" x1="21" x2="29" y1="98.8926" y2="98.8926"/><rect fill="none" height="2" style="stroke:#888888;stroke-width:1.0;" width="2" x="20" y="114.2367"/><line style="stroke:#888888;stroke-width:1.0;" x1="11" x2="11" y1="35.5162" y2="115.2367"/><line style="stroke:#888888;stroke-width:1.0;" x1="11" x2="19" y1="115.2367" y2="115.2367"/><line style="stroke:#888888;stroke-width:1.0;" x1="21" x2="21" y1="117.2367" y2="131.5809"/><line style="stroke:#888888;stroke-width:1.0;" x1="21" x2="29" y1="131.5809" y2="131.5809"/><line style="stroke:#888888;stroke-width:1.0;" x1="21" x2="21" y1="117.2367" y2="147.925"/><line style="stroke:#888888;stroke-width:1.0;" x1="21" x2="29" y1="147.925" y2="147.925"/><line style="stroke:#AAAAAA;stroke-width:1.0;" x1="7" x2="249" y1="216.6294" y2="216.6294"/><rect fill="#EEEEEE" height="20.3441" rx="5" ry="5" style="stroke:#000000;stroke-width:2.5;" width="100" x="10.5" y="224.6294"/><text fill="#000000" font-family="sans-serif" font-size="12" lengthAdjust="spacing" textLength="53" x="35.5" y="239.4575">Contrôler</text><rect fill="#EEEEEE" height="20.3441" rx="5" ry="5" style="stroke:#000000;stroke-width:2.5;" width="36" x="117.5" y="224.6294"/><text fill="#000000" font-family="sans-serif" font-size="12" font-weight="bold" lengthAdjust="spacing" textLength="14" x="128.5" y="239.4575">&lt;&lt;</text><line style="stroke:#000000;stroke-width:1.0;" x1="6" x2="249" y1="24.3441" y2="24.3441"/><line style="stroke:#000000;stroke-width:1.0;" x1="6" x2="249" y1="249.4735" y2="249.4735"/><line style="stroke:#000000;stroke-width:1.0;" x1="6" x2="6" y1="24.3441" y2="157.097"/><line style="stroke:#000000;stroke-width:1.0;" x1="249" x2="249" y1="157.097" y2="175.4411"/><line style="stroke:#000000;stroke-width:1.0;" x1="249" x2="249" y1="24.3441" y2="157.097"/><line style="stroke:#000000;stroke-width:1.0;" x1="6" x2="6" y1="220.1294" y2="249.4735"/><line style="stroke:#000000;stroke-width:1.0;" x1="6" x2="6" y1="212.1294" y2="220.1294"/><line style="stroke:#000000;stroke-width:1.0;" x1="249" x2="249" y1="220.1294" y2="249.4735"/><line style="stroke:#000000;stroke-width:1.0;" x1="6" x2="6" y1="193.7853" y2="212.1294"/><line style="stroke:#000000;stroke-width:1.0;" x1="249" x2="249" y1="212.1294" y2="220.1294"/><line style="stroke:#000000;stroke-width:1.0;" x1="6" x2="6" y1="175.4411" y2="193.7853"/><line style="stroke:#000000;stroke-width:1.0;" x1="249" x2="249" y1="193.7853" y2="212.1294"/><line style="stroke:#000000;stroke-width:1.0;" x1="6" x2="6" y1="157.097" y2="175.4411"/><line style="stroke:#000000;stroke-width:1.0;" x1="249" x2="249" y1="175.4411" y2="193.7853"/><rect fill="#EEEEEE" height="20.3441" rx="5" ry="5" style="stroke:#000000;stroke-width:2.5;" width="60" x="267.5" y="28.8441"/><text fill="#000000" font-family="sans-serif" font-size="12" lengthAdjust="spacing" textLength="45" x="275" y="43.6722">Capture</text><text fill="#000000" font-family="sans-serif" font-size="12" lengthAdjust="spacing" textLength="4" x="332" y="39.1722">/</text><rect fill="#EEEEEE" height="20.3441" rx="5" ry="5" style="stroke:#000000;stroke-width:2.5;" width="196" x="340.5" y="28.8441"/><text fill="#000000" font-family="sans-serif" font-size="12" lengthAdjust="spacing" textLength="135" x="371" y="43.6722">Partie non retenue, Vrac</text><rect fill="#EEEEEE" height="20.3441" rx="5" ry="5" style="stroke:#000000;stroke-width:2.5;" width="68" x="543.5" y="28.8441"/><text fill="#000000" font-family="sans-serif" font-size="12" lengthAdjust="spacing" textLength="43" x="556" y="43.6722">Détaillé</text><rect fill="#EEEEEE" height="20.3441" rx="5" ry="5" style="stroke:#000000;stroke-width:2.5;" width="60" x="618.5" y="28.8441"/><text fill="#000000" font-family="sans-serif" font-size="12" font-weight="bold" lengthAdjust="spacing" textLength="54" x="621.5" y="43.6722">Animaux</text><text fill="#000000" font-family="sans-serif" font-size="12" lengthAdjust="spacing" textLength="15" x="683" y="39.1722">(2)</text><rect fill="#EEEEEE" height="12" rx="5" ry="5" style="stroke:#000000;stroke-width:2.5;" width="20" x="788.5" y="29.8441"/><path d="M798.5,31.8441 L794.5,35.8441 L798.5,39.8441 L800,38.3441 L797.5,35.8441 L800,33.3441 L798.5,31.8441 " fill="#000000" style="stroke:;stroke-width:0.0;stroke-dasharray:;"/><rect fill="#EEEEEE" height="12" rx="5" ry="5" style="stroke:#000000;stroke-width:2.5;" width="20" x="815.5" y="29.8441"/><path d="M823,31.8441 L821.5,33.3441 L824,35.8441 L821.5,38.3441 L823,39.8441 L827,35.8441 L823,31.8441 " fill="#000000" style="stroke:;stroke-width:0.0;stroke-dasharray:;"/><text fill="#000000" font-family="sans-serif" font-size="12" lengthAdjust="spacing" textLength="191" x="285" y="68.5163">Inventaire exhaustif des espèces ?</text><rect fill="none" height="10" style="stroke:#000000;stroke-width:1.5;" width="10" x="267" y="58.8603"/><line style="stroke:#AAAAAA;stroke-width:1.0;" x1="264" x2="960" y1="78.5323" y2="78.5323"/><rect fill="#EEEEEE" height="12" rx="5" ry="5" style="stroke:#000000;stroke-width:2.5;" width="36" x="278.5" y="87.5323"/><path d="M295.5,89.5323 L295.5,92.5323 L292.5,92.5323 L292.5,94.5323 L295.5,94.5323 L295.5,97.5323 L297.5,97.5323 L297.5,94.5323 L300.5,94.5323 L300.5,92.5323 L297.5,92.5323 L297.5,89.5323 L295.5,89.5323 " fill="#000000" style="stroke:;stroke-width:0.0;stroke-dasharray:;"/><rect fill="#EEEEEE" height="12" rx="5" ry="5" style="stroke:#000000;stroke-width:2.5;" width="36" x="321.5" y="87.5323"/><path d="M338.5,89.5323 C337.95,89.5323 337.5,89.9823 337.5,90.5323 L336.5,90.5323 C335.95,90.5323 335.5,90.9823 335.5,91.5323 L342.5,91.5323 C342.5,90.9823 342.05,90.5323 341.5,90.5323 L340.5,90.5323 C340.5,89.9823 340.05,89.5323 339.5,89.5323 L338.5,89.5323 M336.5,92.5323 L336.5,97.3423 C336.5,97.4523 336.58,97.5323 336.69,97.5323 L341.32,97.5323 C341.43,97.5323 341.51,97.4523 341.51,97.3423 L341.51,92.5323 L340.51,92.5323 L340.51,96.0323 C340.51,96.3123 340.29,96.5323 340.01,96.5323 C339.73,96.5323 339.51,96.3123 339.51,96.0323 L339.51,92.5323 L338.51,92.5323 L338.51,96.0323 C338.51,96.3123 338.29,96.5323 338.01,96.5323 C337.73,96.5323 337.51,96.3123 337.51,96.0323 L337.51,92.5323 L336.51,92.5323 " fill="#000000" style="stroke:;stroke-width:0.0;stroke-dasharray:;"/><text fill="#000000" font-family="sans-serif" font-size="12" lengthAdjust="spacing" textLength="8" x="265" y="117.8604">#</text><text fill="#000000" font-family="sans-serif" font-size="12" font-weight="bold" lengthAdjust="spacing" textLength="121" x="275" y="117.8604">Espèce commerciale</text><text fill="#000000" font-family="sans-serif" font-size="12" font-weight="bold" lengthAdjust="spacing" textLength="90" x="477" y="117.8604">Poids total (kg)</text><text fill="#000000" font-family="sans-serif" font-size="12" font-weight="bold" lengthAdjust="spacing" textLength="86" x="569" y="117.8604">Nb indiv. total</text><text fill="#000000" font-family="sans-serif" font-size="12" font-weight="bold" lengthAdjust="spacing" textLength="77" x="657" y="117.8604">Coef. échant.</text><text fill="#000000" font-family="sans-serif" font-size="12" font-weight="bold" lengthAdjust="spacing" textLength="83" x="736" y="117.8604">Poids. échant.</text><text fill="#000000" font-family="sans-serif" font-size="12" font-weight="bold" lengthAdjust="spacing" textLength="99" x="821" y="117.8604">Nb indiv échant.</text><path d="M923,105.0323 L923,106.0323 L931,106.0323 L931,105.0323 L923,105.0323 M923,108.0023 L923,109.0023 L931,109.0023 L931,108.0023 L923,108.0023 M923,111.0023 L923,112.0023 L931,112.0023 L931,111.0023 L923,111.0023 " fill="#000000" style="stroke:;stroke-width:0.0;stroke-dasharray:;"/><text fill="#000000" font-family="sans-serif" font-size="12" lengthAdjust="spacing" textLength="7" x="265" y="136.2045">1</text><rect fill="#EEEEEE" height="19.3441" style="stroke:#000000;stroke-width:1.0;" width="143" x="275" y="123.3765"/><text fill="#000000" font-family="sans-serif" font-size="12" lengthAdjust="spacing" textLength="85" x="277" y="138.2045">MNZ- Baudroie</text><line style="stroke:#000000;stroke-width:1.0;" x1="407" x2="407" y1="123.3765" y2="142.7206"/><polygon fill="#000000" points="410,129.3765,416,129.3765,413,137.7206" style="stroke:#000000;stroke-width:1.0;"/><text fill="#000000" font-family="sans-serif" font-size="12" lengthAdjust="spacing" textLength="14" x="477" y="136.2045">50</text><text fill="#000000" font-family="sans-serif" font-size="12" lengthAdjust="spacing" textLength="14" x="569" y="136.2045">24</text><text fill="#000000" font-family="sans-serif" font-size="12" lengthAdjust="spacing" textLength="14" x="657" y="136.2045">10</text><text fill="#000000" font-family="sans-serif" font-size="12" lengthAdjust="spacing" textLength="7" x="736" y="136.2045">4</text><text fill="#000000" font-family="sans-serif" font-size="12" lengthAdjust="spacing" textLength="14" x="821" y="136.2045">10</text><path d="M923,128.7206 L923,135.7206 L931,135.7206 L931,134.7206 L924,134.7206 L924,128.7206 L923,128.7206 M928,128.7206 L928,133.7206 L930,133.7206 L930,128.7206 L928,128.7206 M925,130.7206 L925,133.7206 L927,133.7206 L927,130.7206 L925,130.7206 " fill="#000000" style="stroke:;stroke-width:0.0;stroke-dasharray:;"/><text fill="#000000" font-family="sans-serif" font-size="12" lengthAdjust="spacing" textLength="3" x="932" y="136.2045"> </text><path d="M936.09,128.7206 C936.03,128.7206 936,128.7606 936,128.8106 L936,134.6206 C936,134.6706 936.04,134.7106 936.09,134.7106 L942,134.7106 L944,136.7106 L944,128.8006 C944,128.7406 943.96,128.7106 943.91,128.7106 L936.1,128.7106 " fill="#000000" style="stroke:;stroke-width:0.0;stroke-dasharray:;"/><text fill="#000000" font-family="sans-serif" font-size="12" lengthAdjust="spacing" textLength="3" x="945" y="136.2045"> </text><path d="M949,128.7206 L949,136.7206 L957,136.7206 L957,128.7206 L949,128.7206 M950,129.7206 L956,129.7206 L956,132.7206 L955,131.7206 L954,132.7206 L956,134.7206 L956,135.7206 L955,135.7206 L951,131.7206 L950,132.7206 L950,129.7206 " fill="#000000" style="stroke:;stroke-width:0.0;stroke-dasharray:;"/><text fill="#000000" font-family="sans-serif" font-size="12" lengthAdjust="spacing" textLength="7" x="265" y="158.5487">2</text><rect fill="#EEEEEE" height="19.3441" style="stroke:#000000;stroke-width:1.0;" width="199" x="275" y="145.7206"/><text fill="#000000" font-family="sans-serif" font-size="12" lengthAdjust="spacing" textLength="129" x="277" y="160.5487">CTC - Seiche commune</text><line style="stroke:#000000;stroke-width:1.0;" x1="463" x2="463" y1="145.7206" y2="165.0647"/><polygon fill="#000000" points="466,151.7206,472,151.7206,469,160.0647" style="stroke:#000000;stroke-width:1.0;"/><text fill="#000000" font-family="sans-serif" font-size="12" lengthAdjust="spacing" textLength="14" x="477" y="158.5487">20</text><text fill="#000000" font-family="sans-serif" font-size="12" lengthAdjust="spacing" textLength="14" x="569" y="158.5487">36</text><text fill="#000000" font-family="sans-serif" font-size="12" lengthAdjust="spacing" textLength="14" x="657" y="158.5487">10</text><text fill="#000000" font-family="sans-serif" font-size="12" lengthAdjust="spacing" textLength="7" x="736" y="158.5487">4</text><text fill="#000000" font-family="sans-serif" font-size="12" lengthAdjust="spacing" textLength="14" x="821" y="158.5487">10</text><path d="M923,151.0647 L923,158.0647 L931,158.0647 L931,157.0647 L924,157.0647 L924,151.0647 L923,151.0647 M928,151.0647 L928,156.0647 L930,156.0647 L930,151.0647 L928,151.0647 M925,153.0647 L925,156.0647 L927,156.0647 L927,153.0647 L925,153.0647 " fill="#000000" style="stroke:;stroke-width:0.0;stroke-dasharray:;"/><text fill="#000000" font-family="sans-serif" font-size="12" lengthAdjust="spacing" textLength="3" x="932" y="158.5487"> </text><path d="M936.09,151.0647 C936.03,151.0647 936,151.1047 936,151.1547 L936,156.9647 C936,157.0147 936.04,157.0547 936.09,157.0547 L942,157.0547 L944,159.0547 L944,151.1447 C944,151.0847 943.96,151.0547 943.91,151.0547 L936.1,151.0547 " fill="#000000" style="stroke:;stroke-width:0.0;stroke-dasharray:;"/><text fill="#000000" font-family="sans-serif" font-size="12" lengthAdjust="spacing" textLength="3" x="945" y="158.5487"> </text><path d="M949,151.0647 L949,159.0647 L957,159.0647 L957,151.0647 L949,151.0647 M950,152.0647 L956,152.0647 L956,155.0647 L955,154.0647 L954,155.0647 L956,157.0647 L956,158.0647 L955,158.0647 L951,154.0647 L950,155.0647 L950,152.0647 " fill="#000000" style="stroke:;stroke-width:0.0;stroke-dasharray:;"/><line style="stroke:#000000;stroke-width:1.0;" x1="264" x2="274" y1="83.0323" y2="83.0323"/><line style="stroke:#000000;stroke-width:1.0;" x1="656" x2="735" y1="167.0647" y2="167.0647"/><line style="stroke:#000000;stroke-width:1.0;" x1="274" x2="476" y1="83.0323" y2="83.0323"/><line style="stroke:#000000;stroke-width:1.0;" x1="735" x2="820" y1="167.0647" y2="167.0647"/><line style="stroke:#000000;stroke-width:1.0;" x1="476" x2="568" y1="83.0323" y2="83.0323"/><line style="stroke:#000000;stroke-width:1.0;" x1="820" x2="921" y1="167.0647" y2="167.0647"/><line style="stroke:#000000;stroke-width:1.0;" x1="568" x2="656" y1="83.0323" y2="83.0323"/><line style="stroke:#000000;stroke-width:1.0;" x1="921" x2="959" y1="167.0647" y2="167.0647"/><line style="stroke:#000000;stroke-width:1.0;" x1="656" x2="735" y1="83.0323" y2="83.0323"/><line style="stroke:#000000;stroke-width:1.0;" x1="735" x2="820" y1="83.0323" y2="83.0323"/><line style="stroke:#000000;stroke-width:1.0;" x1="820" x2="921" y1="83.0323" y2="83.0323"/><line style="stroke:#000000;stroke-width:1.0;" x1="921" x2="959" y1="83.0323" y2="83.0323"/><line style="stroke:#000000;stroke-width:1.0;" x1="264" x2="274" y1="144.7206" y2="144.7206"/><line style="stroke:#000000;stroke-width:1.0;" x1="274" x2="476" y1="144.7206" y2="144.7206"/><line style="stroke:#000000;stroke-width:1.0;" x1="476" x2="568" y1="144.7206" y2="144.7206"/><line style="stroke:#000000;stroke-width:1.0;" x1="568" x2="656" y1="144.7206" y2="144.7206"/><line style="stroke:#000000;stroke-width:1.0;" x1="656" x2="735" y1="144.7206" y2="144.7206"/><line style="stroke:#000000;stroke-width:1.0;" x1="735" x2="820" y1="144.7206" y2="144.7206"/><line style="stroke:#000000;stroke-width:1.0;" x1="820" x2="921" y1="144.7206" y2="144.7206"/><line style="stroke:#000000;stroke-width:1.0;" x1="921" x2="959" y1="144.7206" y2="144.7206"/><line style="stroke:#000000;stroke-width:1.0;" x1="264" x2="274" y1="122.3765" y2="122.3765"/><line style="stroke:#000000;stroke-width:1.0;" x1="274" x2="476" y1="122.3765" y2="122.3765"/><line style="stroke:#000000;stroke-width:1.0;" x1="476" x2="568" y1="122.3765" y2="122.3765"/><line style="stroke:#000000;stroke-width:1.0;" x1="568" x2="656" y1="122.3765" y2="122.3765"/><line style="stroke:#000000;stroke-width:1.0;" x1="656" x2="735" y1="122.3765" y2="122.3765"/><line style="stroke:#000000;stroke-width:1.0;" x1="735" x2="820" y1="122.3765" y2="122.3765"/><line style="stroke:#000000;stroke-width:1.0;" x1="820" x2="921" y1="122.3765" y2="122.3765"/><line style="stroke:#000000;stroke-width:1.0;" x1="921" x2="959" y1="122.3765" y2="122.3765"/><line style="stroke:#000000;stroke-width:1.0;" x1="264" x2="274" y1="104.0323" y2="104.0323"/><line style="stroke:#000000;stroke-width:1.0;" x1="274" x2="476" y1="104.0323" y2="104.0323"/><line style="stroke:#000000;stroke-width:1.0;" x1="476" x2="568" y1="104.0323" y2="104.0323"/><line style="stroke:#000000;stroke-width:1.0;" x1="568" x2="656" y1="104.0323" y2="104.0323"/><line style="stroke:#000000;stroke-width:1.0;" x1="656" x2="735" y1="104.0323" y2="104.0323"/><line style="stroke:#000000;stroke-width:1.0;" x1="735" x2="820" y1="104.0323" y2="104.0323"/><line style="stroke:#000000;stroke-width:1.0;" x1="820" x2="921" y1="104.0323" y2="104.0323"/><line style="stroke:#000000;stroke-width:1.0;" x1="921" x2="959" y1="104.0323" y2="104.0323"/><line style="stroke:#000000;stroke-width:1.0;" x1="264" x2="274" y1="167.0647" y2="167.0647"/><line style="stroke:#000000;stroke-width:1.0;" x1="274" x2="476" y1="167.0647" y2="167.0647"/><line style="stroke:#000000;stroke-width:1.0;" x1="476" x2="568" y1="167.0647" y2="167.0647"/><line style="stroke:#000000;stroke-width:1.0;" x1="568" x2="656" y1="167.0647" y2="167.0647"/><line style="stroke:#000000;stroke-width:1.0;" x1="264" x2="264" y1="83.0323" y2="104.0323"/><line style="stroke:#000000;stroke-width:1.0;" x1="274" x2="274" y1="83.0323" y2="104.0323"/><line style="stroke:#000000;stroke-width:1.0;" x1="476" x2="476" y1="83.0323" y2="104.0323"/><line style="stroke:#000000;stroke-width:1.0;" x1="568" x2="568" y1="83.0323" y2="104.0323"/><line style="stroke:#000000;stroke-width:1.0;" x1="656" x2="656" y1="83.0323" y2="104.0323"/><line style="stroke:#000000;stroke-width:1.0;" x1="735" x2="735" y1="83.0323" y2="104.0323"/><line style="stroke:#000000;stroke-width:1.0;" x1="820" x2="820" y1="83.0323" y2="104.0323"/><line style="stroke:#000000;stroke-width:1.0;" x1="921" x2="921" y1="83.0323" y2="104.0323"/><line style="stroke:#000000;stroke-width:1.0;" x1="959" x2="959" y1="83.0323" y2="104.0323"/><line style="stroke:#000000;stroke-width:1.0;" x1="264" x2="264" y1="144.7206" y2="167.0647"/><line style="stroke:#000000;stroke-width:1.0;" x1="274" x2="274" y1="144.7206" y2="167.0647"/><line style="stroke:#000000;stroke-width:1.0;" x1="476" x2="476" y1="144.7206" y2="167.0647"/><line style="stroke:#000000;stroke-width:1.0;" x1="568" x2="568" y1="144.7206" y2="167.0647"/><line style="stroke:#000000;stroke-width:1.0;" x1="656" x2="656" y1="144.7206" y2="167.0647"/><line style="stroke:#000000;stroke-width:1.0;" x1="735" x2="735" y1="144.7206" y2="167.0647"/><line style="stroke:#000000;stroke-width:1.0;" x1="820" x2="820" y1="144.7206" y2="167.0647"/><line style="stroke:#000000;stroke-width:1.0;" x1="921" x2="921" y1="144.7206" y2="167.0647"/><line style="stroke:#000000;stroke-width:1.0;" x1="959" x2="959" y1="144.7206" y2="167.0647"/><line style="stroke:#000000;stroke-width:1.0;" x1="264" x2="264" y1="122.3765" y2="144.7206"/><line style="stroke:#000000;stroke-width:1.0;" x1="274" x2="274" y1="122.3765" y2="144.7206"/><line style="stroke:#000000;stroke-width:1.0;" x1="476" x2="476" y1="122.3765" y2="144.7206"/><line style="stroke:#000000;stroke-width:1.0;" x1="568" x2="568" y1="122.3765" y2="144.7206"/><line style="stroke:#000000;stroke-width:1.0;" x1="656" x2="656" y1="122.3765" y2="144.7206"/><line style="stroke:#000000;stroke-width:1.0;" x1="735" x2="735" y1="122.3765" y2="144.7206"/><line style="stroke:#000000;stroke-width:1.0;" x1="820" x2="820" y1="122.3765" y2="144.7206"/><line style="stroke:#000000;stroke-width:1.0;" x1="921" x2="921" y1="122.3765" y2="144.7206"/><line style="stroke:#000000;stroke-width:1.0;" x1="959" x2="959" y1="122.3765" y2="144.7206"/><line style="stroke:#000000;stroke-width:1.0;" x1="264" x2="264" y1="104.0323" y2="122.3765"/><line style="stroke:#000000;stroke-width:1.0;" x1="274" x2="274" y1="104.0323" y2="122.3765"/><line style="stroke:#000000;stroke-width:1.0;" x1="476" x2="476" y1="104.0323" y2="122.3765"/><line style="stroke:#000000;stroke-width:1.0;" x1="568" x2="568" y1="104.0323" y2="122.3765"/><line style="stroke:#000000;stroke-width:1.0;" x1="656" x2="656" y1="104.0323" y2="122.3765"/><line style="stroke:#000000;stroke-width:1.0;" x1="735" x2="735" y1="104.0323" y2="122.3765"/><line style="stroke:#000000;stroke-width:1.0;" x1="820" x2="820" y1="104.0323" y2="122.3765"/><line style="stroke:#000000;stroke-width:1.0;" x1="921" x2="921" y1="104.0323" y2="122.3765"/><line style="stroke:#000000;stroke-width:1.0;" x1="959" x2="959" y1="104.0323" y2="122.3765"/><line style="stroke:#AAAAAA;stroke-width:1.0;" x1="6" x2="250" y1="254.9735" y2="254.9735"/><line style="stroke:#AAAAAA;stroke-width:1.0;" x1="251" x2="262" y1="254.9735" y2="254.9735"/><line style="stroke:#AAAAAA;stroke-width:1.0;" x1="263" x2="961" y1="254.9735" y2="254.9735"/><rect fill="#EEEEEE" height="20.3441" rx="5" ry="5" style="stroke:#000000;stroke-width:2.5;" width="52" x="9.5" y="262.9735"/><text fill="#000000" font-family="sans-serif" font-size="12" lengthAdjust="spacing" textLength="41" x="15" y="277.8016">Fermer</text><rect fill="#EEEEEE" height="20.3441" rx="5" ry="5" style="stroke:#000000;stroke-width:2.5;" width="92" x="68.5" y="262.9735"/><text fill="#000000" font-family="sans-serif" font-size="12" lengthAdjust="spacing" textLength="72" x="78.5" y="277.8016">Sauvegarder</text></g></svg>