<?xml version="1.0" encoding="us-ascii" standalone="no"?><svg xmlns="http://www.w3.org/2000/svg" xmlns:xlink="http://www.w3.org/1999/xlink" contentStyleType="text/css" height="256px" preserveAspectRatio="none" style="width:697px;height:256px;background:#FFFFFF;" version="1.1" viewBox="0 0 697 256" width="697px" zoomAndPan="magnify"><defs><filter height="1" id="b1wqeinb5esmui0" width="1" x="0" y="0"><feFlood flood-color="#DDDDDD" result="flood"/><feComposite in="SourceGraphic" in2="flood" operator="over"/></filter></defs><g><text fill="#000000" font-family="sans-serif" font-size="12" lengthAdjust="spacing" textLength="39" x="8" y="18.457">D&#233;tails</text><line style="stroke:#000000;stroke-width:1.0;" x1="6" x2="6" y1="6" y2="21.0938"/><line style="stroke:#000000;stroke-width:1.0;" x1="6" x2="50" y1="6" y2="6"/><line style="stroke:#000000;stroke-width:1.0;" x1="50" x2="50" y1="6" y2="21.0938"/><line style="stroke:#000000;stroke-width:1.0;" x1="50" x2="60" y1="21.0938" y2="21.0938"/><text fill="#000000" font-family="sans-serif" font-size="12" font-weight="bold" lengthAdjust="spacing" textLength="45" x="65" y="18.457">Capture</text><line style="stroke:#000000;stroke-width:1.0;" x1="60" x2="60" y1="6" y2="21.0938"/><line style="stroke:#000000;stroke-width:1.0;" x1="60" x2="113" y1="6" y2="6"/><line style="stroke:#000000;stroke-width:1.0;" x1="113" x2="113" y1="6" y2="21.0938"/><line style="stroke:#000000;stroke-width:1.0;" x1="113" x2="123" y1="21.0938" y2="21.0938"/><text fill="#000000" font-family="sans-serif" font-size="12" lengthAdjust="spacing" textLength="44" x="17" y="36.5508">Capture</text><text fill="#000000" font-family="sans-serif" font-size="12" lengthAdjust="spacing" textLength="77" x="27" y="51.6445">Partie retenue</text><text fill="#000000" filter="url(#b1wqeinb5esmui0)" font-family="sans-serif" font-size="12" lengthAdjust="spacing" textLength="131" x="27" y="66.7383">Partie non retenue, Vrac</text><text fill="#000000" font-family="sans-serif" font-size="12" lengthAdjust="spacing" textLength="42" x="37" y="81.832">D&#233;taill&#233;</text><text fill="#000000" font-family="sans-serif" font-size="12" lengthAdjust="spacing" textLength="184" x="47" y="96.9258">Ecosyst&#232;mes Marins Vuln&#233;rables</text><text fill="#000000" font-family="sans-serif" font-size="12" lengthAdjust="spacing" textLength="13" x="241" y="96.9258">[0]</text><text fill="#000000" font-family="sans-serif" font-size="12" lengthAdjust="spacing" textLength="66" x="37" y="112.0195">Non d&#233;taill&#233;</text><text fill="#000000" font-family="sans-serif" font-size="12" lengthAdjust="spacing" textLength="13" x="241" y="112.0195">[0]</text><text fill="#000000" font-family="sans-serif" font-size="12" lengthAdjust="spacing" textLength="162" x="27" y="127.1133">Partie non retenue, Hors-Vrac</text><rect fill="none" height="2" style="stroke:#888888;stroke-width:1.0;" width="2" x="10" y="30.6406"/><line style="stroke:#888888;stroke-width:1.0;" x1="11" x2="11" y1="33.6406" y2="46.7344"/><line style="stroke:#888888;stroke-width:1.0;" x1="11" x2="19" y1="46.7344" y2="46.7344"/><rect fill="none" height="2" style="stroke:#888888;stroke-width:1.0;" width="2" x="20" y="60.8281"/><line style="stroke:#888888;stroke-width:1.0;" x1="11" x2="11" y1="33.6406" y2="61.8281"/><line style="stroke:#888888;stroke-width:1.0;" x1="11" x2="19" y1="61.8281" y2="61.8281"/><rect fill="none" height="2" style="stroke:#888888;stroke-width:1.0;" width="2" x="30" y="75.9219"/><line style="stroke:#888888;stroke-width:1.0;" x1="21" x2="21" y1="63.8281" y2="76.9219"/><line style="stroke:#888888;stroke-width:1.0;" x1="21" x2="29" y1="76.9219" y2="76.9219"/><line style="stroke:#888888;stroke-width:1.0;" x1="31" x2="31" y1="78.9219" y2="92.0156"/><line style="stroke:#888888;stroke-width:1.0;" x1="31" x2="39" y1="92.0156" y2="92.0156"/><line style="stroke:#888888;stroke-width:1.0;" x1="21" x2="21" y1="63.8281" y2="107.1094"/><line style="stroke:#888888;stroke-width:1.0;" x1="21" x2="29" y1="107.1094" y2="107.1094"/><line style="stroke:#888888;stroke-width:1.0;" x1="11" x2="11" y1="33.6406" y2="122.2031"/><line style="stroke:#888888;stroke-width:1.0;" x1="11" x2="19" y1="122.2031" y2="122.2031"/><line style="stroke:#AAAAAA;stroke-width:1.0;" x1="7" x2="257" y1="186.5313" y2="186.5313"/><rect fill="#EEEEEE" height="19.0938" rx="5" ry="5" style="stroke:#000000;stroke-width:2.5;" width="100" x="10.5" y="194.5313"/><text fill="#000000" font-family="sans-serif" font-size="12" lengthAdjust="spacing" textLength="51" x="36.5" y="208.9883">Contr&#244;ler</text><rect fill="#EEEEEE" height="19.0938" rx="5" ry="5" style="stroke:#000000;stroke-width:2.5;" width="36" x="117.5" y="194.5313"/><text fill="#000000" font-family="sans-serif" font-size="12" font-weight="bold" lengthAdjust="spacing" textLength="14" x="128.5" y="208.9883">&lt;&lt;</text><line style="stroke:#000000;stroke-width:1.0;" x1="6" x2="257" y1="23.0938" y2="23.0938"/><line style="stroke:#000000;stroke-width:1.0;" x1="6" x2="257" y1="218.125" y2="218.125"/><line style="stroke:#000000;stroke-width:1.0;" x1="6" x2="6" y1="23.0938" y2="130.75"/><line style="stroke:#000000;stroke-width:1.0;" x1="257" x2="257" y1="130.75" y2="147.8438"/><line style="stroke:#000000;stroke-width:1.0;" x1="257" x2="257" y1="23.0938" y2="130.75"/><line style="stroke:#000000;stroke-width:1.0;" x1="6" x2="6" y1="190.0313" y2="218.125"/><line style="stroke:#000000;stroke-width:1.0;" x1="6" x2="6" y1="182.0313" y2="190.0313"/><line style="stroke:#000000;stroke-width:1.0;" x1="257" x2="257" y1="190.0313" y2="218.125"/><line style="stroke:#000000;stroke-width:1.0;" x1="6" x2="6" y1="164.9375" y2="182.0313"/><line style="stroke:#000000;stroke-width:1.0;" x1="257" x2="257" y1="182.0313" y2="190.0313"/><line style="stroke:#000000;stroke-width:1.0;" x1="6" x2="6" y1="147.8438" y2="164.9375"/><line style="stroke:#000000;stroke-width:1.0;" x1="257" x2="257" y1="164.9375" y2="182.0313"/><line style="stroke:#000000;stroke-width:1.0;" x1="6" x2="6" y1="130.75" y2="147.8438"/><line style="stroke:#000000;stroke-width:1.0;" x1="257" x2="257" y1="147.8438" y2="164.9375"/><rect fill="#EEEEEE" height="19.0938" rx="5" ry="5" style="stroke:#000000;stroke-width:2.5;" width="60" x="275.5" y="27.5938"/><text fill="#000000" font-family="sans-serif" font-size="12" lengthAdjust="spacing" textLength="44" x="283.5" y="42.0508">Capture</text><text fill="#000000" font-family="sans-serif" font-size="12" lengthAdjust="spacing" textLength="3" x="340" y="37.5508">/</text><rect fill="#EEEEEE" height="19.0938" rx="5" ry="5" style="stroke:#000000;stroke-width:2.5;" width="196" x="347.5" y="27.5938"/><text fill="#000000" font-family="sans-serif" font-size="12" font-weight="bold" lengthAdjust="spacing" textLength="138" x="376.5" y="42.0508">Partie non retenue, Vrac</text><rect fill="#EEEEEE" height="12" rx="5" ry="5" style="stroke:#000000;stroke-width:2.5;" width="20" x="636.5" y="28.5938"/><path d="M646.5,30.5938 L642.5,34.5938 L646.5,38.5938 L648,37.0938 L645.5,34.5938 L648,32.0938 L646.5,30.5938 " fill="#000000" style="stroke:;stroke-width:0.0;stroke-dasharray:;"/><rect fill="#EEEEEE" height="12" rx="5" ry="5" style="stroke:#000000;stroke-width:2.5;" width="20" x="663.5" y="28.5938"/><path d="M671,30.5938 L669.5,32.0938 L672,34.5938 L669.5,37.0938 L671,38.5938 L675,34.5938 L671,30.5938 " fill="#000000" style="stroke:;stroke-width:0.0;stroke-dasharray:;"/><line style="stroke:#AAAAAA;stroke-width:1.0;" x1="6" x2="258" y1="223.625" y2="223.625"/><line style="stroke:#AAAAAA;stroke-width:1.0;" x1="259" x2="270" y1="223.625" y2="223.625"/><line style="stroke:#AAAAAA;stroke-width:1.0;" x1="271" x2="690" y1="223.625" y2="223.625"/><rect fill="#EEEEEE" height="19.0938" rx="5" ry="5" style="stroke:#000000;stroke-width:2.5;" width="52" x="9.5" y="231.625"/><text fill="#000000" font-family="sans-serif" font-size="12" lengthAdjust="spacing" textLength="40" x="15.5" y="246.082">Fermer</text><rect fill="#EEEEEE" height="19.0938" rx="5" ry="5" style="stroke:#000000;stroke-width:2.5;" width="92" x="68.5" y="231.625"/><text fill="#000000" font-family="sans-serif" font-size="12" lengthAdjust="spacing" textLength="70" x="79.5" y="246.082">Sauvegarder</text></g></svg>