<?xml version="1.0" encoding="us-ascii" standalone="no"?><svg xmlns="http://www.w3.org/2000/svg" xmlns:xlink="http://www.w3.org/1999/xlink" contentStyleType="text/css" height="267px" preserveAspectRatio="none" style="width:889px;height:267px;background:#FFFFFF;" version="1.1" viewBox="0 0 889 267" width="889px" zoomAndPan="magnify"><defs><filter height="1" id="b13dftzl60f780" width="1" x="0" y="0"><feFlood flood-color="#DDDDFF" result="flood"/><feComposite in="SourceGraphic" in2="flood" operator="over"/></filter></defs><g><text fill="#000000" font-family="sans-serif" font-size="12" lengthAdjust="spacing" textLength="39" x="8" y="18.9492">D&#233;tails</text><line style="stroke:#000000;stroke-width:1.0;" x1="6" x2="6" y1="6" y2="21.9609"/><line style="stroke:#000000;stroke-width:1.0;" x1="6" x2="50" y1="6" y2="6"/><line style="stroke:#000000;stroke-width:1.0;" x1="50" x2="50" y1="6" y2="21.9609"/><line style="stroke:#000000;stroke-width:1.0;" x1="50" x2="60" y1="21.9609" y2="21.9609"/><text fill="#000000" font-family="sans-serif" font-size="12" font-weight="bold" lengthAdjust="spacing" textLength="45" x="65" y="18.9492">Capture</text><line style="stroke:#000000;stroke-width:1.0;" x1="60" x2="60" y1="6" y2="21.9609"/><line style="stroke:#000000;stroke-width:1.0;" x1="60" x2="113" y1="6" y2="6"/><line style="stroke:#000000;stroke-width:1.0;" x1="113" x2="113" y1="6" y2="21.9609"/><line style="stroke:#000000;stroke-width:1.0;" x1="113" x2="123" y1="21.9609" y2="21.9609"/><text fill="#000000" font-family="sans-serif" font-size="12" lengthAdjust="spacing" textLength="44" x="17" y="37.9102">Capture</text><text fill="#000000" font-family="sans-serif" font-size="12" lengthAdjust="spacing" textLength="77" x="27" y="53.8711">Partie retenue</text><text fill="#0000FF" font-family="sans-serif" font-size="12" font-style="italic" lengthAdjust="spacing" textLength="13" x="185" y="53.8711">[6]</text><text fill="#000000" filter="url(#b13dftzl60f780)" font-family="sans-serif" font-size="12" lengthAdjust="spacing" textLength="138" x="37" y="69.832">Consommation humaine</text><text fill="#0000FF" font-family="sans-serif" font-size="12" font-style="italic" lengthAdjust="spacing" textLength="13" x="185" y="69.832">[2]</text><text fill="#000000" font-family="sans-serif" font-size="12" lengthAdjust="spacing" textLength="48" x="37" y="85.793">Industrie</text><text fill="#0000FF" font-family="sans-serif" font-size="12" font-style="italic" lengthAdjust="spacing" textLength="13" x="185" y="85.793">[2]</text><text fill="#000000" font-family="sans-serif" font-size="12" lengthAdjust="spacing" textLength="126" x="37" y="101.7539">Obligation &#224; d&#233;barquer</text><text fill="#0000FF" font-family="sans-serif" font-size="12" font-style="italic" lengthAdjust="spacing" textLength="13" x="185" y="101.7539">[2]</text><text fill="#000000" font-family="sans-serif" font-size="12" lengthAdjust="spacing" textLength="103" x="27" y="117.7148">Partie rejet&#233;e, Vrac</text><text fill="#808080" font-family="sans-serif" font-size="12" lengthAdjust="spacing" textLength="13" x="185" y="117.7148">[0]</text><text fill="#000000" font-family="sans-serif" font-size="12" lengthAdjust="spacing" textLength="134" x="27" y="133.6758">Partie rejet&#233;e, Hors-Vrac</text><text fill="#808080" font-family="sans-serif" font-size="12" lengthAdjust="spacing" textLength="13" x="185" y="133.6758">[0]</text><rect fill="none" height="2" style="stroke:#888888;stroke-width:1.0;" width="2" x="10" y="31.9414"/><rect fill="none" height="2" style="stroke:#888888;stroke-width:1.0;" width="2" x="20" y="47.9023"/><line style="stroke:#888888;stroke-width:1.0;" x1="11" x2="11" y1="34.9414" y2="48.9023"/><line style="stroke:#888888;stroke-width:1.0;" x1="11" x2="19" y1="48.9023" y2="48.9023"/><line style="stroke:#888888;stroke-width:1.0;" x1="21" x2="21" y1="50.9023" y2="64.8633"/><line style="stroke:#888888;stroke-width:1.0;" x1="21" x2="29" y1="64.8633" y2="64.8633"/><line style="stroke:#888888;stroke-width:1.0;" x1="21" x2="21" y1="50.9023" y2="80.8242"/><line style="stroke:#888888;stroke-width:1.0;" x1="21" x2="29" y1="80.8242" y2="80.8242"/><line style="stroke:#888888;stroke-width:1.0;" x1="21" x2="21" y1="50.9023" y2="96.7852"/><line style="stroke:#888888;stroke-width:1.0;" x1="21" x2="29" y1="96.7852" y2="96.7852"/><line style="stroke:#888888;stroke-width:1.0;" x1="11" x2="11" y1="34.9414" y2="112.7461"/><line style="stroke:#888888;stroke-width:1.0;" x1="11" x2="19" y1="112.7461" y2="112.7461"/><line style="stroke:#888888;stroke-width:1.0;" x1="11" x2="11" y1="34.9414" y2="128.707"/><line style="stroke:#888888;stroke-width:1.0;" x1="11" x2="19" y1="128.707" y2="128.707"/><line style="stroke:#AAAAAA;stroke-width:1.0;" x1="7" x2="201" y1="196.0703" y2="196.0703"/><rect fill="#EEEEEE" height="19.9609" rx="5" ry="5" style="stroke:#000000;stroke-width:2.5;" width="100" x="10.5" y="204.0703"/><text fill="#000000" font-family="sans-serif" font-size="12" lengthAdjust="spacing" textLength="51" x="36.5" y="219.0195">Contr&#244;ler</text><rect fill="#EEEEEE" height="19.9609" rx="5" ry="5" style="stroke:#000000;stroke-width:2.5;" width="36" x="117.5" y="204.0703"/><text fill="#000000" font-family="sans-serif" font-size="12" lengthAdjust="spacing" textLength="14" x="128.5" y="219.0195">&lt;&lt;</text><line style="stroke:#000000;stroke-width:1.0;" x1="6" x2="201" y1="23.9609" y2="23.9609"/><line style="stroke:#000000;stroke-width:1.0;" x1="6" x2="201" y1="228.5313" y2="228.5313"/><line style="stroke:#000000;stroke-width:1.0;" x1="6" x2="6" y1="23.9609" y2="137.6875"/><line style="stroke:#000000;stroke-width:1.0;" x1="201" x2="201" y1="137.6875" y2="155.6484"/><line style="stroke:#000000;stroke-width:1.0;" x1="201" x2="201" y1="23.9609" y2="137.6875"/><line style="stroke:#000000;stroke-width:1.0;" x1="6" x2="6" y1="199.5703" y2="228.5313"/><line style="stroke:#000000;stroke-width:1.0;" x1="6" x2="6" y1="191.5703" y2="199.5703"/><line style="stroke:#000000;stroke-width:1.0;" x1="201" x2="201" y1="199.5703" y2="228.5313"/><line style="stroke:#000000;stroke-width:1.0;" x1="6" x2="6" y1="173.6094" y2="191.5703"/><line style="stroke:#000000;stroke-width:1.0;" x1="201" x2="201" y1="191.5703" y2="199.5703"/><line style="stroke:#000000;stroke-width:1.0;" x1="6" x2="6" y1="155.6484" y2="173.6094"/><line style="stroke:#000000;stroke-width:1.0;" x1="201" x2="201" y1="173.6094" y2="191.5703"/><line style="stroke:#000000;stroke-width:1.0;" x1="6" x2="6" y1="137.6875" y2="155.6484"/><line style="stroke:#000000;stroke-width:1.0;" x1="201" x2="201" y1="155.6484" y2="173.6094"/><rect fill="#EEEEEE" height="19.9609" rx="5" ry="5" style="stroke:#000000;stroke-width:2.5;" width="60" x="219.5" y="28.4609"/><text fill="#000000" font-family="sans-serif" font-size="12" lengthAdjust="spacing" textLength="44" x="227.5" y="43.4102">Capture</text><text fill="#000000" font-family="sans-serif" font-size="12" lengthAdjust="spacing" textLength="3" x="284" y="38.9102">/</text><rect fill="#EEEEEE" height="19.9609" rx="5" ry="5" style="stroke:#000000;stroke-width:2.5;" width="116" x="291.5" y="28.4609"/><text fill="#000000" font-family="sans-serif" font-size="12" lengthAdjust="spacing" textLength="77" x="311" y="43.4102">Partie retenue</text><rect fill="#EEEEEE" height="19.9609" rx="5" ry="5" style="stroke:#000000;stroke-width:2.5;" width="164" x="414.5" y="28.4609"/><text fill="#000000" font-family="sans-serif" font-size="12" font-weight="bold" lengthAdjust="spacing" textLength="138" x="427.5" y="43.4102">Consommation humaine</text><text fill="#000000" font-family="sans-serif" font-size="12" lengthAdjust="spacing" textLength="88" x="217" y="67.8711">Poids total (kg) :</text><text fill="#000000" font-family="sans-serif" font-size="12" lengthAdjust="spacing" textLength="3" x="310" y="67.8711">&#160;</text><line style="stroke:#000000;stroke-width:1.0;" x1="308" x2="351" y1="70.8828" y2="70.8828"/><line style="stroke:#000000;stroke-width:1.0;" x1="308" x2="308" y1="67.8828" y2="69.8828"/><line style="stroke:#000000;stroke-width:1.0;" x1="351" x2="351" y1="67.8828" y2="69.8828"/><text fill="#000000" font-family="sans-serif" font-size="12" lengthAdjust="spacing" textLength="100" x="217" y="89.832">Taux &#233;chant (1/n) :</text><text fill="#000000" font-family="sans-serif" font-size="12" lengthAdjust="spacing" textLength="3" x="322" y="89.832">&#160;</text><line style="stroke:#000000;stroke-width:1.0;" x1="320" x2="363" y1="92.8438" y2="92.8438"/><line style="stroke:#000000;stroke-width:1.0;" x1="320" x2="320" y1="89.8438" y2="91.8438"/><line style="stroke:#000000;stroke-width:1.0;" x1="363" x2="363" y1="89.8438" y2="91.8438"/><text fill="#000000" font-family="sans-serif" font-size="12" lengthAdjust="spacing" textLength="102" x="367" y="89.832">Poids &#233;chant (kg) :</text><text fill="#000000" font-family="sans-serif" font-size="12" lengthAdjust="spacing" textLength="3" x="474" y="89.832">&#160;</text><line style="stroke:#000000;stroke-width:1.0;" x1="472" x2="515" y1="92.8438" y2="92.8438"/><line style="stroke:#000000;stroke-width:1.0;" x1="472" x2="472" y1="89.8438" y2="91.8438"/><line style="stroke:#000000;stroke-width:1.0;" x1="515" x2="515" y1="89.8438" y2="91.8438"/><text fill="#000000" font-family="sans-serif" font-size="12" lengthAdjust="spacing" textLength="190" x="237" y="111.793">Inventaire exhaustif des esp&#232;ces ?</text><rect fill="none" height="10" style="stroke:#000000;stroke-width:1.5;" width="10" x="219" y="101.8242"/><rect fill="#EEEEEE" height="12" rx="5" ry="5" style="stroke:#000000;stroke-width:2.5;" width="36" x="229.5" y="122.3047"/><path d="M246.5,124.3047 L246.5,127.3047 L243.5,127.3047 L243.5,129.3047 L246.5,129.3047 L246.5,132.3047 L248.5,132.3047 L248.5,129.3047 L251.5,129.3047 L251.5,127.3047 L248.5,127.3047 L248.5,124.3047 L246.5,124.3047 " fill="#000000" style="stroke:;stroke-width:0.0;stroke-dasharray:;"/><rect fill="#EEEEEE" height="12" rx="5" ry="5" style="stroke:#000000;stroke-width:2.5;" width="36" x="272.5" y="122.3047"/><path d="M289.5,124.3047 C288.95,124.3047 288.5,124.7547 288.5,125.3047 L287.5,125.3047 C286.95,125.3047 286.5,125.7547 286.5,126.3047 L293.5,126.3047 C293.5,125.7547 293.05,125.3047 292.5,125.3047 L291.5,125.3047 C291.5,124.7547 291.05,124.3047 290.5,124.3047 L289.5,124.3047 M287.5,127.3047 L287.5,132.1147 C287.5,132.2247 287.58,132.3047 287.69,132.3047 L292.32,132.3047 C292.43,132.3047 292.51,132.2247 292.51,132.1147 L292.51,127.3047 L291.51,127.3047 L291.51,130.8047 C291.51,131.0847 291.29,131.3047 291.01,131.3047 C290.73,131.3047 290.51,131.0847 290.51,130.8047 L290.51,127.3047 L289.51,127.3047 L289.51,130.8047 C289.51,131.0847 289.29,131.3047 289.01,131.3047 C288.73,131.3047 288.51,131.0847 288.51,130.8047 L288.51,127.3047 L287.51,127.3047 " fill="#000000" style="stroke:;stroke-width:0.0;stroke-dasharray:;"/><text fill="#000000" font-family="sans-serif" font-size="12" lengthAdjust="spacing" textLength="7" x="217" y="152.7539">#</text><text fill="#000000" font-family="sans-serif" font-size="12" font-weight="bold" lengthAdjust="spacing" textLength="120" x="226" y="152.7539">Esp&#232;ce commerciale</text><text fill="#000000" font-family="sans-serif" font-size="12" font-weight="bold" lengthAdjust="spacing" textLength="73" x="404" y="152.7539">Pr&#233;sentation</text><text fill="#000000" font-family="sans-serif" font-size="12" font-weight="bold" lengthAdjust="spacing" textLength="22" x="494" y="152.7539">&#201;tat</text><text fill="#000000" font-family="sans-serif" font-size="12" font-weight="bold" lengthAdjust="spacing" textLength="85" x="552" y="152.7539">Poids total (kg)</text><text fill="#000000" font-family="sans-serif" font-size="12" font-weight="bold" lengthAdjust="spacing" textLength="70" x="639" y="152.7539">Taux &#233;chant</text><text fill="#000000" font-family="sans-serif" font-size="12" font-weight="bold" lengthAdjust="spacing" textLength="77" x="711" y="152.7539">Poids &#233;chant.</text><text fill="#000000" font-family="sans-serif" font-size="12" font-weight="bold" lengthAdjust="spacing" textLength="89" x="790" y="152.7539">Nb indiv &#233;chant.</text><text fill="#000000" font-family="sans-serif" font-size="12" lengthAdjust="spacing" textLength="7" x="217" y="170.7148">1</text><rect fill="#EEEEEE" height="18.9609" style="stroke:#000000;stroke-width:1.0;" width="175" x="226" y="157.7656"/><text fill="#000000" font-family="sans-serif" font-size="12" lengthAdjust="spacing" textLength="82" x="228" y="172.7148">MNZ- Baudroie</text><line style="stroke:#000000;stroke-width:1.0;" x1="390" x2="390" y1="157.7656" y2="176.7266"/><polygon fill="#000000" points="393,163.7656,399,163.7656,396,171.7266" style="stroke:#000000;stroke-width:1.0;"/><rect fill="#EEEEEE" height="18.9609" style="stroke:#000000;stroke-width:1.0;" width="87" x="404" y="157.7656"/><text fill="#000000" font-family="sans-serif" font-size="12" lengthAdjust="spacing" textLength="27" x="406" y="172.7148">WHL</text><line style="stroke:#000000;stroke-width:1.0;" x1="480" x2="480" y1="157.7656" y2="176.7266"/><polygon fill="#000000" points="483,163.7656,489,163.7656,486,171.7266" style="stroke:#000000;stroke-width:1.0;"/><rect fill="#EEEEEE" height="18.9609" style="stroke:#000000;stroke-width:1.0;" width="55" x="494" y="157.7656"/><text fill="#000000" font-family="sans-serif" font-size="12" lengthAdjust="spacing" textLength="24" x="496" y="172.7148">FRE</text><line style="stroke:#000000;stroke-width:1.0;" x1="538" x2="538" y1="157.7656" y2="176.7266"/><polygon fill="#000000" points="541,163.7656,547,163.7656,544,171.7266" style="stroke:#000000;stroke-width:1.0;"/><text fill="#000000" font-family="sans-serif" font-size="12" lengthAdjust="spacing" textLength="14" x="552" y="170.7148">50</text><text fill="#000000" font-family="sans-serif" font-size="12" lengthAdjust="spacing" textLength="14" x="711" y="170.7148">10</text><text fill="#000000" font-family="sans-serif" font-size="12" lengthAdjust="spacing" textLength="7" x="790" y="170.7148">4</text><text fill="#000000" font-family="sans-serif" font-size="12" lengthAdjust="spacing" textLength="7" x="217" y="192.6758">2</text><rect fill="#EEEEEE" height="18.9609" style="stroke:#000000;stroke-width:1.0;" width="175" x="226" y="179.7266"/><text fill="#000000" font-family="sans-serif" font-size="12" lengthAdjust="spacing" textLength="82" x="228" y="194.6758">MNZ- Baudroie</text><line style="stroke:#000000;stroke-width:1.0;" x1="390" x2="390" y1="179.7266" y2="198.6875"/><polygon fill="#000000" points="393,185.7266,399,185.7266,396,193.6875" style="stroke:#000000;stroke-width:1.0;"/><rect fill="#EEEEEE" height="18.9609" style="stroke:#000000;stroke-width:1.0;" width="87" x="404" y="179.7266"/><text fill="#000000" font-family="sans-serif" font-size="12" lengthAdjust="spacing" textLength="25" x="406" y="194.6758">GUT</text><line style="stroke:#000000;stroke-width:1.0;" x1="480" x2="480" y1="179.7266" y2="198.6875"/><polygon fill="#000000" points="483,185.7266,489,185.7266,486,193.6875" style="stroke:#000000;stroke-width:1.0;"/><rect fill="#EEEEEE" height="18.9609" style="stroke:#000000;stroke-width:1.0;" width="55" x="494" y="179.7266"/><text fill="#000000" font-family="sans-serif" font-size="12" lengthAdjust="spacing" textLength="24" x="496" y="194.6758">FRE</text><line style="stroke:#000000;stroke-width:1.0;" x1="538" x2="538" y1="179.7266" y2="198.6875"/><polygon fill="#000000" points="541,185.7266,547,185.7266,544,193.6875" style="stroke:#000000;stroke-width:1.0;"/><text fill="#000000" font-family="sans-serif" font-size="12" lengthAdjust="spacing" textLength="14" x="552" y="192.6758">50</text><text fill="#000000" font-family="sans-serif" font-size="12" lengthAdjust="spacing" textLength="14" x="711" y="192.6758">10</text><text fill="#000000" font-family="sans-serif" font-size="12" lengthAdjust="spacing" textLength="7" x="790" y="192.6758">4</text><line style="stroke:#000000;stroke-width:1.0;" x1="216" x2="225" y1="117.8047" y2="117.8047"/><line style="stroke:#000000;stroke-width:1.0;" x1="551" x2="638" y1="200.6875" y2="200.6875"/><line style="stroke:#000000;stroke-width:1.0;" x1="225" x2="403" y1="117.8047" y2="117.8047"/><line style="stroke:#000000;stroke-width:1.0;" x1="638" x2="710" y1="200.6875" y2="200.6875"/><line style="stroke:#000000;stroke-width:1.0;" x1="403" x2="493" y1="117.8047" y2="117.8047"/><line style="stroke:#000000;stroke-width:1.0;" x1="710" x2="789" y1="200.6875" y2="200.6875"/><line style="stroke:#000000;stroke-width:1.0;" x1="493" x2="551" y1="117.8047" y2="117.8047"/><line style="stroke:#000000;stroke-width:1.0;" x1="789" x2="880" y1="200.6875" y2="200.6875"/><line style="stroke:#000000;stroke-width:1.0;" x1="551" x2="638" y1="117.8047" y2="117.8047"/><line style="stroke:#000000;stroke-width:1.0;" x1="638" x2="710" y1="117.8047" y2="117.8047"/><line style="stroke:#000000;stroke-width:1.0;" x1="710" x2="789" y1="117.8047" y2="117.8047"/><line style="stroke:#000000;stroke-width:1.0;" x1="789" x2="880" y1="117.8047" y2="117.8047"/><line style="stroke:#000000;stroke-width:1.0;" x1="216" x2="225" y1="178.7266" y2="178.7266"/><line style="stroke:#000000;stroke-width:1.0;" x1="225" x2="403" y1="178.7266" y2="178.7266"/><line style="stroke:#000000;stroke-width:1.0;" x1="403" x2="493" y1="178.7266" y2="178.7266"/><line style="stroke:#000000;stroke-width:1.0;" x1="493" x2="551" y1="178.7266" y2="178.7266"/><line style="stroke:#000000;stroke-width:1.0;" x1="551" x2="638" y1="178.7266" y2="178.7266"/><line style="stroke:#000000;stroke-width:1.0;" x1="638" x2="710" y1="178.7266" y2="178.7266"/><line style="stroke:#000000;stroke-width:1.0;" x1="710" x2="789" y1="178.7266" y2="178.7266"/><line style="stroke:#000000;stroke-width:1.0;" x1="789" x2="880" y1="178.7266" y2="178.7266"/><line style="stroke:#000000;stroke-width:1.0;" x1="216" x2="225" y1="156.7656" y2="156.7656"/><line style="stroke:#000000;stroke-width:1.0;" x1="225" x2="403" y1="156.7656" y2="156.7656"/><line style="stroke:#000000;stroke-width:1.0;" x1="403" x2="493" y1="156.7656" y2="156.7656"/><line style="stroke:#000000;stroke-width:1.0;" x1="493" x2="551" y1="156.7656" y2="156.7656"/><line style="stroke:#000000;stroke-width:1.0;" x1="551" x2="638" y1="156.7656" y2="156.7656"/><line style="stroke:#000000;stroke-width:1.0;" x1="638" x2="710" y1="156.7656" y2="156.7656"/><line style="stroke:#000000;stroke-width:1.0;" x1="710" x2="789" y1="156.7656" y2="156.7656"/><line style="stroke:#000000;stroke-width:1.0;" x1="789" x2="880" y1="156.7656" y2="156.7656"/><line style="stroke:#000000;stroke-width:1.0;" x1="216" x2="225" y1="138.8047" y2="138.8047"/><line style="stroke:#000000;stroke-width:1.0;" x1="225" x2="403" y1="138.8047" y2="138.8047"/><line style="stroke:#000000;stroke-width:1.0;" x1="403" x2="493" y1="138.8047" y2="138.8047"/><line style="stroke:#000000;stroke-width:1.0;" x1="493" x2="551" y1="138.8047" y2="138.8047"/><line style="stroke:#000000;stroke-width:1.0;" x1="551" x2="638" y1="138.8047" y2="138.8047"/><line style="stroke:#000000;stroke-width:1.0;" x1="638" x2="710" y1="138.8047" y2="138.8047"/><line style="stroke:#000000;stroke-width:1.0;" x1="710" x2="789" y1="138.8047" y2="138.8047"/><line style="stroke:#000000;stroke-width:1.0;" x1="789" x2="880" y1="138.8047" y2="138.8047"/><line style="stroke:#000000;stroke-width:1.0;" x1="216" x2="225" y1="200.6875" y2="200.6875"/><line style="stroke:#000000;stroke-width:1.0;" x1="225" x2="403" y1="200.6875" y2="200.6875"/><line style="stroke:#000000;stroke-width:1.0;" x1="403" x2="493" y1="200.6875" y2="200.6875"/><line style="stroke:#000000;stroke-width:1.0;" x1="493" x2="551" y1="200.6875" y2="200.6875"/><line style="stroke:#000000;stroke-width:1.0;" x1="216" x2="216" y1="117.8047" y2="138.8047"/><line style="stroke:#000000;stroke-width:1.0;" x1="225" x2="225" y1="117.8047" y2="138.8047"/><line style="stroke:#000000;stroke-width:1.0;" x1="403" x2="403" y1="117.8047" y2="138.8047"/><line style="stroke:#000000;stroke-width:1.0;" x1="493" x2="493" y1="117.8047" y2="138.8047"/><line style="stroke:#000000;stroke-width:1.0;" x1="551" x2="551" y1="117.8047" y2="138.8047"/><line style="stroke:#000000;stroke-width:1.0;" x1="638" x2="638" y1="117.8047" y2="138.8047"/><line style="stroke:#000000;stroke-width:1.0;" x1="710" x2="710" y1="117.8047" y2="138.8047"/><line style="stroke:#000000;stroke-width:1.0;" x1="789" x2="789" y1="117.8047" y2="138.8047"/><line style="stroke:#000000;stroke-width:1.0;" x1="880" x2="880" y1="117.8047" y2="138.8047"/><line style="stroke:#000000;stroke-width:1.0;" x1="216" x2="216" y1="178.7266" y2="200.6875"/><line style="stroke:#000000;stroke-width:1.0;" x1="225" x2="225" y1="178.7266" y2="200.6875"/><line style="stroke:#000000;stroke-width:1.0;" x1="403" x2="403" y1="178.7266" y2="200.6875"/><line style="stroke:#000000;stroke-width:1.0;" x1="493" x2="493" y1="178.7266" y2="200.6875"/><line style="stroke:#000000;stroke-width:1.0;" x1="551" x2="551" y1="178.7266" y2="200.6875"/><line style="stroke:#000000;stroke-width:1.0;" x1="638" x2="638" y1="178.7266" y2="200.6875"/><line style="stroke:#000000;stroke-width:1.0;" x1="710" x2="710" y1="178.7266" y2="200.6875"/><line style="stroke:#000000;stroke-width:1.0;" x1="789" x2="789" y1="178.7266" y2="200.6875"/><line style="stroke:#000000;stroke-width:1.0;" x1="880" x2="880" y1="178.7266" y2="200.6875"/><line style="stroke:#000000;stroke-width:1.0;" x1="216" x2="216" y1="156.7656" y2="178.7266"/><line style="stroke:#000000;stroke-width:1.0;" x1="225" x2="225" y1="156.7656" y2="178.7266"/><line style="stroke:#000000;stroke-width:1.0;" x1="403" x2="403" y1="156.7656" y2="178.7266"/><line style="stroke:#000000;stroke-width:1.0;" x1="493" x2="493" y1="156.7656" y2="178.7266"/><line style="stroke:#000000;stroke-width:1.0;" x1="551" x2="551" y1="156.7656" y2="178.7266"/><line style="stroke:#000000;stroke-width:1.0;" x1="638" x2="638" y1="156.7656" y2="178.7266"/><line style="stroke:#000000;stroke-width:1.0;" x1="710" x2="710" y1="156.7656" y2="178.7266"/><line style="stroke:#000000;stroke-width:1.0;" x1="789" x2="789" y1="156.7656" y2="178.7266"/><line style="stroke:#000000;stroke-width:1.0;" x1="880" x2="880" y1="156.7656" y2="178.7266"/><line style="stroke:#000000;stroke-width:1.0;" x1="216" x2="216" y1="138.8047" y2="156.7656"/><line style="stroke:#000000;stroke-width:1.0;" x1="225" x2="225" y1="138.8047" y2="156.7656"/><line style="stroke:#000000;stroke-width:1.0;" x1="403" x2="403" y1="138.8047" y2="156.7656"/><line style="stroke:#000000;stroke-width:1.0;" x1="493" x2="493" y1="138.8047" y2="156.7656"/><line style="stroke:#000000;stroke-width:1.0;" x1="551" x2="551" y1="138.8047" y2="156.7656"/><line style="stroke:#000000;stroke-width:1.0;" x1="638" x2="638" y1="138.8047" y2="156.7656"/><line style="stroke:#000000;stroke-width:1.0;" x1="710" x2="710" y1="138.8047" y2="156.7656"/><line style="stroke:#000000;stroke-width:1.0;" x1="789" x2="789" y1="138.8047" y2="156.7656"/><line style="stroke:#000000;stroke-width:1.0;" x1="880" x2="880" y1="138.8047" y2="156.7656"/><line style="stroke:#AAAAAA;stroke-width:1.0;" x1="6" x2="202" y1="234.0313" y2="234.0313"/><line style="stroke:#AAAAAA;stroke-width:1.0;" x1="203" x2="214" y1="234.0313" y2="234.0313"/><line style="stroke:#AAAAAA;stroke-width:1.0;" x1="215" x2="882" y1="234.0313" y2="234.0313"/><rect fill="#EEEEEE" height="19.9609" rx="5" ry="5" style="stroke:#000000;stroke-width:2.5;" width="52" x="9.5" y="242.0313"/><text fill="#000000" font-family="sans-serif" font-size="12" lengthAdjust="spacing" textLength="40" x="15.5" y="256.9805">Fermer</text><rect fill="#EEEEEE" height="19.9609" rx="5" ry="5" style="stroke:#000000;stroke-width:2.5;" width="92" x="68.5" y="242.0313"/><text fill="#000000" font-family="sans-serif" font-size="12" lengthAdjust="spacing" textLength="70" x="79.5" y="256.9805">Sauvegarder</text><!--SRC=[dLJjRjem5FsVfxXgfOgAXPBGzaU4M5MWNuCMjRILXgXa4ZTu18SvDce5FC3UOZ_7_xr1NcpNIHgWweUqI77iU-yvji-nSnH98cH40cdC383P7ZJYfIGiY60ErK4DwcGYbQ2mqDaYDZ3hwbO_nJoBpnnAURm87MHb50ILb2kQnP6HrQfk68J26GIArdg7_HMcYFCHT-HiDnedjNh8et0y9fA578PgJ1YdR-3j3VmvzrGa1VkyyceGC3ybZt-35oy7HFnKL7oCM-tg1vNnadw1Eq5SFLcAy0LvhlNA7oBEGX6PxyCM2RRqkZNDHFcCk5VTSOVK7Os96A538PSY_XjGqKVE7bIha5Cjj2tufiWPz3B3TEMUhjxqAI50rzzIlu-4AKidP5u4CfGaWCB8tmK7OLl9ohRoeYvHJn0ltI7X4WhM7jyicqFAabUynuCRwgEnKyhnLE99eqz3WYQpH_1e13IQn7zSx7pD0TilwcljzDPHaPr9eA8QPFhiI46YeHuk8DDdurqZs4vlGJET1bmKXGgNaO12ckc8U1dfjILI9Q7u5uwox6kbqbkWKnlwh5TdiL8Qknm0unwRvk6rnLbOyj2-_6x2CL6U2DdBFNlGYQHtVzRAHYVNpQHtK4wNK4e_O9LNX7FONwEtFwS_lUt-9troEBLZfednh34Ilq-e66Td-OQeAVM9yFHuOIoC8ygzv6TbT09KuxRTWYaLaTRUAjbbkrAohC8zzU26Ji2gW5rsx4EdKe5wywOBkc3NA9nsMX25Ig2X7jF_Yu7IxkqQ5sHAu5fnoSRKWQi9vHUDRoy1QF8f4o4Vezl6nLrxLN2uRnupYLCAN0lSjOq6VIGga8XmGuzntu7wnB8FRAD5kA-8Z-IFmgY7I2oU7TJk7m00]--></g></svg>