<?xml version="1.0" encoding="us-ascii" standalone="no"?><svg xmlns="http://www.w3.org/2000/svg" xmlns:xlink="http://www.w3.org/1999/xlink" contentStyleType="text/css" height="136px" preserveAspectRatio="none" style="width:482px;height:136px;background:#FFFFFF;" version="1.1" viewBox="0 0 482 136" width="482px" zoomAndPan="magnify"><defs/><g><text fill="#000000" font-family="sans-serif" font-size="12" lengthAdjust="spacing" textLength="39" x="8" y="18.9492">D&#233;tails</text><line style="stroke:#000000;stroke-width:1.0;" x1="6" x2="6" y1="6" y2="21.9609"/><line style="stroke:#000000;stroke-width:1.0;" x1="6" x2="50" y1="6" y2="6"/><line style="stroke:#000000;stroke-width:1.0;" x1="50" x2="50" y1="6" y2="21.9609"/><line style="stroke:#000000;stroke-width:1.0;" x1="50" x2="60" y1="21.9609" y2="21.9609"/><text fill="#000000" font-family="sans-serif" font-size="12" lengthAdjust="spacing" textLength="44" x="62" y="18.9492">Capture</text><line style="stroke:#000000;stroke-width:1.0;" x1="60" x2="60" y1="6" y2="21.9609"/><line style="stroke:#000000;stroke-width:1.0;" x1="60" x2="109" y1="6" y2="6"/><line style="stroke:#000000;stroke-width:1.0;" x1="109" x2="109" y1="6" y2="21.9609"/><line style="stroke:#000000;stroke-width:1.0;" x1="109" x2="119" y1="21.9609" y2="21.9609"/><text fill="#000000" font-family="sans-serif" font-size="12" font-weight="bold" lengthAdjust="spacing" textLength="149" x="124" y="18.9492">Captures accidentelles (1)</text><line style="stroke:#000000;stroke-width:1.0;" x1="119" x2="119" y1="6" y2="21.9609"/><line style="stroke:#000000;stroke-width:1.0;" x1="119" x2="276" y1="6" y2="6"/><line style="stroke:#000000;stroke-width:1.0;" x1="276" x2="276" y1="6" y2="21.9609"/><line style="stroke:#000000;stroke-width:1.0;" x1="276" x2="286" y1="21.9609" y2="21.9609"/><text fill="#000000" font-family="sans-serif" font-size="12" lengthAdjust="spacing" textLength="120" x="8" y="36.9102">Mesures individuelles</text><line style="stroke:#000000;stroke-width:1.0;" x1="6" x2="6" y1="23.9609" y2="39.9219"/><line style="stroke:#000000;stroke-width:1.0;" x1="6" x2="131" y1="23.9609" y2="23.9609"/><line style="stroke:#000000;stroke-width:1.0;" x1="131" x2="131" y1="23.9609" y2="39.9219"/><line style="stroke:#000000;stroke-width:1.0;" x1="131" x2="141" y1="39.9219" y2="39.9219"/><text fill="#000000" font-family="sans-serif" font-size="12" font-weight="bold" lengthAdjust="spacing" textLength="71" x="143" y="36.9102">Rel&#226;ch&#233;s (1)</text><line style="stroke:#000000;stroke-width:1.0;" x1="141" x2="141" y1="23.9609" y2="39.9219"/><line style="stroke:#000000;stroke-width:1.0;" x1="141" x2="217" y1="23.9609" y2="23.9609"/><line style="stroke:#000000;stroke-width:1.0;" x1="217" x2="217" y1="23.9609" y2="39.9219"/><line style="stroke:#000000;stroke-width:1.0;" x1="217" x2="227" y1="39.9219" y2="39.9219"/><rect fill="#EEEEEE" height="12" rx="5" ry="5" style="stroke:#000000;stroke-width:2.5;" width="28" x="9.5" y="45.4219"/><path d="M22.5,47.4219 L22.5,50.4219 L19.5,50.4219 L19.5,52.4219 L22.5,52.4219 L22.5,55.4219 L24.5,55.4219 L24.5,52.4219 L27.5,52.4219 L27.5,50.4219 L24.5,50.4219 L24.5,47.4219 L22.5,47.4219 " fill="#000000" style="stroke:;stroke-width:0.0;stroke-dasharray:;"/><text fill="#000000" font-family="sans-serif" font-size="12" lengthAdjust="spacing" textLength="7" x="7" y="74.8711">#</text><path d="M45.97,66.8828 L43,69.8828 L45,69.8828 L45,74.8828 L47,74.8828 L47,69.8828 L49,69.8828 L45.97,66.8828 " fill="#000000" style="stroke:;stroke-width:0.0;stroke-dasharray:;"/><text fill="#000000" font-family="sans-serif" font-size="12" lengthAdjust="spacing" textLength="3" x="52" y="74.8711">&#160;</text><text fill="#000000" font-family="sans-serif" font-size="12" font-weight="bold" lengthAdjust="spacing" textLength="136" x="55" y="74.8711">R&#233;f&#233;rence de la marque</text><text fill="#000000" font-family="sans-serif" font-size="12" font-weight="bold" lengthAdjust="spacing" textLength="114" x="193" y="74.8711">Date de mise &#224; l'eau</text><text fill="#000000" font-family="sans-serif" font-size="12" font-weight="bold" lengthAdjust="spacing" textLength="46" x="309" y="74.8711">Latitude</text><text fill="#000000" font-family="sans-serif" font-size="12" font-weight="bold" lengthAdjust="spacing" textLength="56" x="375" y="74.8711">Longitude</text><path d="M438,61.9219 L438,62.9219 L446,62.9219 L446,61.9219 L438,61.9219 M438,64.8919 L438,65.8919 L446,65.8919 L446,64.8919 L438,64.8919 M438,67.8919 L438,68.8919 L446,68.8919 L446,67.8919 L438,67.8919 " fill="#000000" style="stroke:;stroke-width:0.0;stroke-dasharray:;"/><text fill="#000000" font-family="sans-serif" font-size="12" lengthAdjust="spacing" textLength="7" x="7" y="92.832">1</text><text fill="#000000" font-family="sans-serif" font-size="12" lengthAdjust="spacing" textLength="17" x="42" y="92.832">Zzz</text><text fill="#000000" font-family="sans-serif" font-size="12" lengthAdjust="spacing" textLength="96" x="193" y="92.832">12/02/2024 12:53</text><text fill="#000000" font-family="sans-serif" font-size="12" lengthAdjust="spacing" textLength="64" x="309" y="92.832">43&#176;9.354' N</text><text fill="#000000" font-family="sans-serif" font-size="12" lengthAdjust="spacing" textLength="60" x="375" y="92.832">4&#176;21.996'E</text><path d="M438.09,84.8438 C438.03,84.8438 438,84.8838 438,84.9338 L438,90.7438 C438,90.7938 438.04,90.8338 438.09,90.8338 L444,90.8338 L446,92.8338 L446,84.9238 C446,84.8638 445.96,84.8338 445.91,84.8338 L438.1,84.8338 " fill="#000000" style="stroke:;stroke-width:0.0;stroke-dasharray:;"/><text fill="#000000" font-family="sans-serif" font-size="12" lengthAdjust="spacing" textLength="3" x="447" y="92.832">&#160;</text><path d="M451,84.8438 L451,92.8438 L459,92.8438 L459,84.8438 L451,84.8438 M452,85.8438 L458,85.8438 L458,88.8438 L457,87.8438 L456,88.8438 L458,90.8438 L458,91.8438 L457,91.8438 L453,87.8438 L452,88.8438 L452,85.8438 " fill="#000000" style="stroke:;stroke-width:0.0;stroke-dasharray:;"/><text fill="#000000" font-family="sans-serif" font-size="12" lengthAdjust="spacing" textLength="3" x="460" y="92.832">&#160;</text><path d="M467,84.8438 C466.45,84.8438 466,85.2938 466,85.8438 L465,85.8438 C464.45,85.8438 464,86.2938 464,86.8438 L471,86.8438 C471,86.2938 470.55,85.8438 470,85.8438 L469,85.8438 C469,85.2938 468.55,84.8438 468,84.8438 L467,84.8438 M465,87.8438 L465,92.6538 C465,92.7638 465.08,92.8438 465.19,92.8438 L469.82,92.8438 C469.93,92.8438 470.01,92.7638 470.01,92.6538 L470.01,87.8438 L469.01,87.8438 L469.01,91.3438 C469.01,91.6238 468.79,91.8438 468.51,91.8438 C468.23,91.8438 468.01,91.6238 468.01,91.3438 L468.01,87.8438 L467.01,87.8438 L467.01,91.3438 C467.01,91.6238 466.79,91.8438 466.51,91.8438 C466.23,91.8438 466.01,91.6238 466.01,91.3438 L466.01,87.8438 L465.01,87.8438 " fill="#000000" style="stroke:;stroke-width:0.0;stroke-dasharray:;"/><line style="stroke:#000000;stroke-width:1.0;" x1="6" x2="41" y1="41.9219" y2="41.9219"/><line style="stroke:#000000;stroke-width:1.0;" x1="192" x2="308" y1="78.8828" y2="78.8828"/><line style="stroke:#000000;stroke-width:1.0;" x1="41" x2="192" y1="41.9219" y2="41.9219"/><line style="stroke:#000000;stroke-width:1.0;" x1="308" x2="374" y1="78.8828" y2="78.8828"/><line style="stroke:#000000;stroke-width:1.0;" x1="192" x2="308" y1="41.9219" y2="41.9219"/><line style="stroke:#000000;stroke-width:1.0;" x1="374" x2="436" y1="78.8828" y2="78.8828"/><line style="stroke:#000000;stroke-width:1.0;" x1="308" x2="374" y1="41.9219" y2="41.9219"/><line style="stroke:#000000;stroke-width:1.0;" x1="436" x2="474" y1="78.8828" y2="78.8828"/><line style="stroke:#000000;stroke-width:1.0;" x1="374" x2="436" y1="41.9219" y2="41.9219"/><line style="stroke:#000000;stroke-width:1.0;" x1="436" x2="474" y1="41.9219" y2="41.9219"/><line style="stroke:#000000;stroke-width:1.0;" x1="6" x2="41" y1="96.8438" y2="96.8438"/><line style="stroke:#000000;stroke-width:1.0;" x1="41" x2="192" y1="96.8438" y2="96.8438"/><line style="stroke:#000000;stroke-width:1.0;" x1="192" x2="308" y1="96.8438" y2="96.8438"/><line style="stroke:#000000;stroke-width:1.0;" x1="6" x2="41" y1="60.9219" y2="60.9219"/><line style="stroke:#000000;stroke-width:1.0;" x1="308" x2="374" y1="96.8438" y2="96.8438"/><line style="stroke:#000000;stroke-width:1.0;" x1="41" x2="192" y1="60.9219" y2="60.9219"/><line style="stroke:#000000;stroke-width:1.0;" x1="374" x2="436" y1="96.8438" y2="96.8438"/><line style="stroke:#000000;stroke-width:1.0;" x1="192" x2="308" y1="60.9219" y2="60.9219"/><line style="stroke:#000000;stroke-width:1.0;" x1="436" x2="474" y1="96.8438" y2="96.8438"/><line style="stroke:#000000;stroke-width:1.0;" x1="308" x2="374" y1="60.9219" y2="60.9219"/><line style="stroke:#000000;stroke-width:1.0;" x1="374" x2="436" y1="60.9219" y2="60.9219"/><line style="stroke:#000000;stroke-width:1.0;" x1="436" x2="474" y1="60.9219" y2="60.9219"/><line style="stroke:#000000;stroke-width:1.0;" x1="6" x2="41" y1="78.8828" y2="78.8828"/><line style="stroke:#000000;stroke-width:1.0;" x1="41" x2="192" y1="78.8828" y2="78.8828"/><line style="stroke:#000000;stroke-width:1.0;" x1="6" x2="6" y1="41.9219" y2="60.9219"/><line style="stroke:#000000;stroke-width:1.0;" x1="192" x2="192" y1="78.8828" y2="96.8438"/><line style="stroke:#000000;stroke-width:1.0;" x1="41" x2="41" y1="41.9219" y2="60.9219"/><line style="stroke:#000000;stroke-width:1.0;" x1="308" x2="308" y1="78.8828" y2="96.8438"/><line style="stroke:#000000;stroke-width:1.0;" x1="374" x2="374" y1="78.8828" y2="96.8438"/><line style="stroke:#000000;stroke-width:1.0;" x1="436" x2="436" y1="78.8828" y2="96.8438"/><line style="stroke:#000000;stroke-width:1.0;" x1="474" x2="474" y1="78.8828" y2="96.8438"/><line style="stroke:#000000;stroke-width:1.0;" x1="474" x2="474" y1="41.9219" y2="60.9219"/><line style="stroke:#000000;stroke-width:1.0;" x1="6" x2="6" y1="60.9219" y2="78.8828"/><line style="stroke:#000000;stroke-width:1.0;" x1="41" x2="41" y1="60.9219" y2="78.8828"/><line style="stroke:#000000;stroke-width:1.0;" x1="192" x2="192" y1="60.9219" y2="78.8828"/><line style="stroke:#000000;stroke-width:1.0;" x1="308" x2="308" y1="60.9219" y2="78.8828"/><line style="stroke:#000000;stroke-width:1.0;" x1="374" x2="374" y1="60.9219" y2="78.8828"/><line style="stroke:#000000;stroke-width:1.0;" x1="436" x2="436" y1="60.9219" y2="78.8828"/><line style="stroke:#000000;stroke-width:1.0;" x1="474" x2="474" y1="60.9219" y2="78.8828"/><line style="stroke:#000000;stroke-width:1.0;" x1="6" x2="6" y1="78.8828" y2="96.8438"/><line style="stroke:#000000;stroke-width:1.0;" x1="41" x2="41" y1="78.8828" y2="96.8438"/><line style="stroke:#AAAAAA;stroke-width:1.0;" x1="6" x2="475" y1="102.3438" y2="102.3438"/><rect fill="#EEEEEE" height="19.9609" rx="5" ry="5" style="stroke:#000000;stroke-width:2.5;" width="52" x="9.5" y="110.3438"/><text fill="#000000" font-family="sans-serif" font-size="12" lengthAdjust="spacing" textLength="40" x="15.5" y="125.293">Fermer</text><rect fill="#EEEEEE" height="19.9609" rx="5" ry="5" style="stroke:#000000;stroke-width:2.5;" width="92" x="68.5" y="110.3438"/><text fill="#000000" font-family="sans-serif" font-size="12" lengthAdjust="spacing" textLength="70" x="79.5" y="125.293">Sauvegarder</text><!--SRC=[HL7RRjf047tkViL8aRWy6B0DI5WHYWga4eKsWZQLYl8miGTOrLuxUw5gIFuboXjl-ORunxfUeDs7rPpPSyuSZw-KHgaLffhj6GFOjm76vK4ZJnKymGWBRIJPwl9-U4OAC8vvGa9JcbhKy9lmVDBEIJa65mdVySGS6Kw-eBHyZRVbuQnW7_ONLbQT5LpMYjIeuTsfSL5fQYXb_jlJMnx_ydHU39rDULYN1qaY9aW8KeGCvOCvPHoZTksCAuBo1T8weN6Exdc6ccjZtyyu5vjZengNaJ33Km3VTdu-FjhR3zgTe1rqWgujeru8_yuJTCFtjq4hx7NhyAM2xs-1tneC-lM9Cuppp7fgJpqOb6JZrtY66rTeYMfx75RjplFSzXrUNPFCIDvPYzKIpOusA1EBMKLzPbSa4lV3s4sAGd-Vps17Kl5SWD-oCSEMxpT-K09BAi0F8UX4GJyAGnXDbj-W8ZHPuzFD35HkPBL4hhJazqPRXoQRuWvXOOJc6KNmjI0n7Ny-Ds0YTbpceleeDhsT_oVqkzv7hkr8QRF0xPoDQOqcrLOHvmaNcmX6XH_q0ZP3iJ5s2H6i9HlbrbZ-YU1wyHS0]--></g></svg>