<?xml version="1.0" encoding="us-ascii" standalone="no"?><svg xmlns="http://www.w3.org/2000/svg" xmlns:xlink="http://www.w3.org/1999/xlink" contentStyleType="text/css" height="267px" preserveAspectRatio="none" style="width:455px;height:267px;background:#FFFFFF;" version="1.1" viewBox="0 0 455 267" width="455px" zoomAndPan="magnify"><defs><filter height="1" id="bsmyn6keo5mjl0" width="1" x="0" y="0"><feFlood flood-color="#DDDDFF" result="flood"/><feComposite in="SourceGraphic" in2="flood" operator="over"/></filter></defs><g><text fill="#000000" font-family="sans-serif" font-size="12" lengthAdjust="spacing" textLength="39" x="8" y="18.9492">D&#233;tails</text><line style="stroke:#000000;stroke-width:1.0;" x1="6" x2="6" y1="6" y2="21.9609"/><line style="stroke:#000000;stroke-width:1.0;" x1="6" x2="50" y1="6" y2="6"/><line style="stroke:#000000;stroke-width:1.0;" x1="50" x2="50" y1="6" y2="21.9609"/><line style="stroke:#000000;stroke-width:1.0;" x1="50" x2="60" y1="21.9609" y2="21.9609"/><text fill="#000000" font-family="sans-serif" font-size="12" font-weight="bold" lengthAdjust="spacing" textLength="45" x="65" y="18.9492">Capture</text><line style="stroke:#000000;stroke-width:1.0;" x1="60" x2="60" y1="6" y2="21.9609"/><line style="stroke:#000000;stroke-width:1.0;" x1="60" x2="113" y1="6" y2="6"/><line style="stroke:#000000;stroke-width:1.0;" x1="113" x2="113" y1="6" y2="21.9609"/><line style="stroke:#000000;stroke-width:1.0;" x1="113" x2="123" y1="21.9609" y2="21.9609"/><text fill="#000000" font-family="sans-serif" font-size="12" lengthAdjust="spacing" textLength="44" x="17" y="37.9102">Capture</text><text fill="#000000" filter="url(#bsmyn6keo5mjl0)" font-family="sans-serif" font-size="12" lengthAdjust="spacing" textLength="77" x="27" y="53.8711">Partie retenue</text><text fill="#0000FF" font-family="sans-serif" font-size="12" font-style="italic" lengthAdjust="spacing" textLength="13" x="185" y="53.8711">[6]</text><text fill="#000000" font-family="sans-serif" font-size="12" lengthAdjust="spacing" textLength="138" x="37" y="69.832">Consommation humaine</text><text fill="#0000FF" font-family="sans-serif" font-size="12" font-style="italic" lengthAdjust="spacing" textLength="13" x="185" y="69.832">[2]</text><text fill="#000000" font-family="sans-serif" font-size="12" lengthAdjust="spacing" textLength="48" x="37" y="85.793">Industrie</text><text fill="#0000FF" font-family="sans-serif" font-size="12" font-style="italic" lengthAdjust="spacing" textLength="13" x="185" y="85.793">[2]</text><text fill="#000000" font-family="sans-serif" font-size="12" lengthAdjust="spacing" textLength="126" x="37" y="101.7539">Obligation &#224; d&#233;barquer</text><text fill="#0000FF" font-family="sans-serif" font-size="12" font-style="italic" lengthAdjust="spacing" textLength="13" x="185" y="101.7539">[2]</text><text fill="#000000" font-family="sans-serif" font-size="12" lengthAdjust="spacing" textLength="103" x="27" y="117.7148">Partie rejet&#233;e, Vrac</text><text fill="#808080" font-family="sans-serif" font-size="12" lengthAdjust="spacing" textLength="13" x="185" y="117.7148">[0]</text><text fill="#000000" font-family="sans-serif" font-size="12" lengthAdjust="spacing" textLength="134" x="27" y="133.6758">Partie rejet&#233;e, Hors-Vrac</text><text fill="#808080" font-family="sans-serif" font-size="12" lengthAdjust="spacing" textLength="13" x="185" y="133.6758">[0]</text><rect fill="none" height="2" style="stroke:#888888;stroke-width:1.0;" width="2" x="10" y="31.9414"/><rect fill="none" height="2" style="stroke:#888888;stroke-width:1.0;" width="2" x="20" y="47.9023"/><line style="stroke:#888888;stroke-width:1.0;" x1="11" x2="11" y1="34.9414" y2="48.9023"/><line style="stroke:#888888;stroke-width:1.0;" x1="11" x2="19" y1="48.9023" y2="48.9023"/><line style="stroke:#888888;stroke-width:1.0;" x1="21" x2="21" y1="50.9023" y2="64.8633"/><line style="stroke:#888888;stroke-width:1.0;" x1="21" x2="29" y1="64.8633" y2="64.8633"/><line style="stroke:#888888;stroke-width:1.0;" x1="21" x2="21" y1="50.9023" y2="80.8242"/><line style="stroke:#888888;stroke-width:1.0;" x1="21" x2="29" y1="80.8242" y2="80.8242"/><line style="stroke:#888888;stroke-width:1.0;" x1="21" x2="21" y1="50.9023" y2="96.7852"/><line style="stroke:#888888;stroke-width:1.0;" x1="21" x2="29" y1="96.7852" y2="96.7852"/><line style="stroke:#888888;stroke-width:1.0;" x1="11" x2="11" y1="34.9414" y2="112.7461"/><line style="stroke:#888888;stroke-width:1.0;" x1="11" x2="19" y1="112.7461" y2="112.7461"/><line style="stroke:#888888;stroke-width:1.0;" x1="11" x2="11" y1="34.9414" y2="128.707"/><line style="stroke:#888888;stroke-width:1.0;" x1="11" x2="19" y1="128.707" y2="128.707"/><line style="stroke:#AAAAAA;stroke-width:1.0;" x1="7" x2="201" y1="196.0703" y2="196.0703"/><rect fill="#EEEEEE" height="19.9609" rx="5" ry="5" style="stroke:#000000;stroke-width:2.5;" width="100" x="10.5" y="204.0703"/><text fill="#000000" font-family="sans-serif" font-size="12" lengthAdjust="spacing" textLength="51" x="36.5" y="219.0195">Contr&#244;ler</text><rect fill="#EEEEEE" height="19.9609" rx="5" ry="5" style="stroke:#000000;stroke-width:2.5;" width="36" x="117.5" y="204.0703"/><text fill="#000000" font-family="sans-serif" font-size="12" lengthAdjust="spacing" textLength="14" x="128.5" y="219.0195">&lt;&lt;</text><line style="stroke:#000000;stroke-width:1.0;" x1="6" x2="201" y1="23.9609" y2="23.9609"/><line style="stroke:#000000;stroke-width:1.0;" x1="6" x2="201" y1="228.5313" y2="228.5313"/><line style="stroke:#000000;stroke-width:1.0;" x1="6" x2="6" y1="23.9609" y2="137.6875"/><line style="stroke:#000000;stroke-width:1.0;" x1="201" x2="201" y1="137.6875" y2="155.6484"/><line style="stroke:#000000;stroke-width:1.0;" x1="201" x2="201" y1="23.9609" y2="137.6875"/><line style="stroke:#000000;stroke-width:1.0;" x1="6" x2="6" y1="199.5703" y2="228.5313"/><line style="stroke:#000000;stroke-width:1.0;" x1="6" x2="6" y1="191.5703" y2="199.5703"/><line style="stroke:#000000;stroke-width:1.0;" x1="201" x2="201" y1="199.5703" y2="228.5313"/><line style="stroke:#000000;stroke-width:1.0;" x1="6" x2="6" y1="173.6094" y2="191.5703"/><line style="stroke:#000000;stroke-width:1.0;" x1="201" x2="201" y1="191.5703" y2="199.5703"/><line style="stroke:#000000;stroke-width:1.0;" x1="6" x2="6" y1="155.6484" y2="173.6094"/><line style="stroke:#000000;stroke-width:1.0;" x1="201" x2="201" y1="173.6094" y2="191.5703"/><line style="stroke:#000000;stroke-width:1.0;" x1="6" x2="6" y1="137.6875" y2="155.6484"/><line style="stroke:#000000;stroke-width:1.0;" x1="201" x2="201" y1="155.6484" y2="173.6094"/><rect fill="#EEEEEE" height="19.9609" rx="5" ry="5" style="stroke:#000000;stroke-width:2.5;" width="60" x="219.5" y="28.4609"/><text fill="#000000" font-family="sans-serif" font-size="12" lengthAdjust="spacing" textLength="44" x="227.5" y="43.4102">Capture</text><text fill="#000000" font-family="sans-serif" font-size="12" lengthAdjust="spacing" textLength="3" x="284" y="38.9102">/</text><rect fill="#EEEEEE" height="19.9609" rx="5" ry="5" style="stroke:#000000;stroke-width:2.5;" width="116" x="291.5" y="28.4609"/><text fill="#000000" font-family="sans-serif" font-size="12" font-weight="bold" lengthAdjust="spacing" textLength="81" x="309" y="43.4102">Partie retenue</text><rect fill="#EEEEEE" height="19.9609" rx="5" ry="5" style="stroke:#000000;stroke-width:2.5;" width="28" x="414.5" y="28.4609"/><text fill="#000000" font-family="sans-serif" font-size="12" lengthAdjust="spacing" textLength="9" x="424" y="43.4102">...</text><text fill="#0000FF" font-family="sans-serif" font-size="12" font-style="italic" lengthAdjust="spacing" textLength="152" x="216" y="66.8711">Rien &#224; afficher sur cet &#233;cran</text><line style="stroke:#AAAAAA;stroke-width:1.0;" x1="6" x2="202" y1="234.0313" y2="234.0313"/><line style="stroke:#AAAAAA;stroke-width:1.0;" x1="203" x2="214" y1="234.0313" y2="234.0313"/><line style="stroke:#AAAAAA;stroke-width:1.0;" x1="215" x2="448" y1="234.0313" y2="234.0313"/><rect fill="#EEEEEE" height="19.9609" rx="5" ry="5" style="stroke:#000000;stroke-width:2.5;" width="52" x="9.5" y="242.0313"/><text fill="#000000" font-family="sans-serif" font-size="12" lengthAdjust="spacing" textLength="40" x="15.5" y="256.9805">Fermer</text><rect fill="#EEEEEE" height="19.9609" rx="5" ry="5" style="stroke:#000000;stroke-width:2.5;" width="92" x="68.5" y="242.0313"/><text fill="#000000" font-family="sans-serif" font-size="12" lengthAdjust="spacing" textLength="70" x="79.5" y="256.9805">Sauvegarder</text><!--SRC=[XPB1Rjf048Rl-nGZLQeIKJlOj1miP4N5eIq11K5A3uZ3OW_E5djDnxj84U5TUkMUD_2BPTTGeaHjkf97sjt_-sSyivUbugHAdYcsPG3R2uYglU8YA-41EeiGkdojD27ix6t31DZUscXNutHhrWEuf_E6GNcy2jv5KIyScGG2WL2Xr7YK67CHTk8YAoXOP1h3MNl-Z1lZGfP5ddCb2WbtEkT2ubyW_mNqJIQwL2J-hxnPP28zc5U_8Qds2qw_DDBR79n-vIUgQeyVO4eyjiaEH4hyFfmrtoI-5bGw_yPsDUk-ZevJT_veFEkyZ-ymNkMSLg5jbQBgCKEQ6yyPT3fmijhPiPZlG6vXTXoOLLvOjHdno_dK7gxhpWrVGwyQCXPOzumlby8KGL1gWXWLLFkOkBGvBUSunkSOM9svXvGVIvnmlS6KKsBtExPZboYJ-WsoKSQb-ZuSm0QfjEFnNB_fjrpFE_k12Knm3LuB_6RWjuDM2xfNarkmWdDszcKqWBBG52CamZw3XRO3FcTzlk4mrbA970EuMQFiHzT_3k1ARWGLCaUfM7ywV1QqFpgVXJ8foTG2qo6BSCbrfWmH5ucGQG3TjUT_yjc0orJpr9WlYNKBOqpt0VJ6Jm00]--></g></svg>