<?xml version="1.0" encoding="UTF-8" standalone="no"?><svg xmlns="http://www.w3.org/2000/svg" xmlns:xlink="http://www.w3.org/1999/xlink" contentStyleType="text/css" height="289px" preserveAspectRatio="none" style="width:749px;height:289px;background:#FFFFFF;" version="1.1" viewBox="0 0 749 289" width="749px" zoomAndPan="magnify"><defs><filter height="1" id="b1l1j4ac9n0oev0" width="1" x="0" y="0"><feFlood flood-color="#DDDDDD" result="flood"/><feComposite in="SourceGraphic" in2="flood" operator="over"/></filter></defs><g><text fill="#000000" font-family="sans-serif" font-size="12" lengthAdjust="spacing" textLength="39" x="8" y="18.8281">Détails</text><line style="stroke:#000000;stroke-width:1.0;" x1="6" x2="6" y1="6" y2="22.3441"/><line style="stroke:#000000;stroke-width:1.0;" x1="6" x2="50" y1="6" y2="6"/><line style="stroke:#000000;stroke-width:1.0;" x1="50" x2="50" y1="6" y2="22.3441"/><line style="stroke:#000000;stroke-width:1.0;" x1="50" x2="60" y1="22.3441" y2="22.3441"/><text fill="#000000" font-family="sans-serif" font-size="12" font-weight="bold" lengthAdjust="spacing" textLength="48" x="65" y="18.8281">Capture</text><line style="stroke:#000000;stroke-width:1.0;" x1="60" x2="60" y1="6" y2="22.3441"/><line style="stroke:#000000;stroke-width:1.0;" x1="60" x2="116" y1="6" y2="6"/><line style="stroke:#000000;stroke-width:1.0;" x1="116" x2="116" y1="6" y2="22.3441"/><line style="stroke:#000000;stroke-width:1.0;" x1="116" x2="126" y1="22.3441" y2="22.3441"/><text fill="#000000" font-family="sans-serif" font-size="12" lengthAdjust="spacing" textLength="45" x="17" y="38.1722">Capture</text><text fill="#000000" font-family="sans-serif" font-size="12" lengthAdjust="spacing" textLength="80" x="27" y="54.5163">Partie retenue</text><text fill="#000000" font-family="sans-serif" font-size="12" lengthAdjust="spacing" textLength="135" x="27" y="70.8604">Partie non retenue, Vrac</text><text fill="#000000" font-family="sans-serif" font-size="12" lengthAdjust="spacing" textLength="43" x="37" y="87.2045">Détaillé</text><text fill="#000000" font-family="sans-serif" font-size="12" lengthAdjust="spacing" textLength="49" x="47" y="103.5487">Animaux</text><text fill="#000000" font-family="sans-serif" font-size="12" lengthAdjust="spacing" textLength="15" x="241" y="103.5487">[0]</text><text fill="#000000" font-family="sans-serif" font-size="12" lengthAdjust="spacing" textLength="184" x="47" y="119.8928">Ecosystèmes Marins Vulnérables</text><text fill="#000000" font-family="sans-serif" font-size="12" lengthAdjust="spacing" textLength="15" x="241" y="119.8928">[0]</text><text fill="#000000" filter="url(#b1l1j4ac9n0oev0)" font-family="sans-serif" font-size="12" lengthAdjust="spacing" textLength="67" x="37" y="136.2369">Non détaillé</text><text fill="#0000FF" font-family="sans-serif" font-size="12" font-style="italic" lengthAdjust="spacing" textLength="13" x="241" y="136.2369">[2]</text><text fill="#000000" font-family="sans-serif" font-size="12" lengthAdjust="spacing" textLength="166" x="27" y="152.581">Partie non retenue, Hors-Vrac</text><rect fill="none" height="2" style="stroke:#888888;stroke-width:1.0;" width="2" x="10" y="32.5162"/><line style="stroke:#888888;stroke-width:1.0;" x1="11" x2="11" y1="35.5162" y2="49.8603"/><line style="stroke:#888888;stroke-width:1.0;" x1="11" x2="19" y1="49.8603" y2="49.8603"/><rect fill="none" height="2" style="stroke:#888888;stroke-width:1.0;" width="2" x="20" y="65.2044"/><line style="stroke:#888888;stroke-width:1.0;" x1="11" x2="11" y1="35.5162" y2="66.2044"/><line style="stroke:#888888;stroke-width:1.0;" x1="11" x2="19" y1="66.2044" y2="66.2044"/><rect fill="none" height="2" style="stroke:#888888;stroke-width:1.0;" width="2" x="30" y="81.5485"/><line style="stroke:#888888;stroke-width:1.0;" x1="21" x2="21" y1="68.2044" y2="82.5485"/><line style="stroke:#888888;stroke-width:1.0;" x1="21" x2="29" y1="82.5485" y2="82.5485"/><line style="stroke:#888888;stroke-width:1.0;" x1="31" x2="31" y1="84.5485" y2="98.8926"/><line style="stroke:#888888;stroke-width:1.0;" x1="31" x2="39" y1="98.8926" y2="98.8926"/><line style="stroke:#888888;stroke-width:1.0;" x1="31" x2="31" y1="84.5485" y2="115.2367"/><line style="stroke:#888888;stroke-width:1.0;" x1="31" x2="39" y1="115.2367" y2="115.2367"/><line style="stroke:#888888;stroke-width:1.0;" x1="21" x2="21" y1="68.2044" y2="131.5809"/><line style="stroke:#888888;stroke-width:1.0;" x1="21" x2="29" y1="131.5809" y2="131.5809"/><line style="stroke:#888888;stroke-width:1.0;" x1="11" x2="11" y1="35.5162" y2="147.925"/><line style="stroke:#888888;stroke-width:1.0;" x1="11" x2="19" y1="147.925" y2="147.925"/><line style="stroke:#AAAAAA;stroke-width:1.0;" x1="7" x2="259" y1="216.6294" y2="216.6294"/><rect fill="#EEEEEE" height="20.3441" rx="5" ry="5" style="stroke:#000000;stroke-width:2.5;" width="100" x="10.5" y="224.6294"/><text fill="#000000" font-family="sans-serif" font-size="12" lengthAdjust="spacing" textLength="53" x="35.5" y="239.4575">Contrôler</text><rect fill="#EEEEEE" height="20.3441" rx="5" ry="5" style="stroke:#000000;stroke-width:2.5;" width="36" x="117.5" y="224.6294"/><text fill="#000000" font-family="sans-serif" font-size="12" font-weight="bold" lengthAdjust="spacing" textLength="14" x="128.5" y="239.4575">&lt;&lt;</text><line style="stroke:#000000;stroke-width:1.0;" x1="6" x2="259" y1="24.3441" y2="24.3441"/><line style="stroke:#000000;stroke-width:1.0;" x1="6" x2="259" y1="249.4735" y2="249.4735"/><line style="stroke:#000000;stroke-width:1.0;" x1="6" x2="6" y1="24.3441" y2="157.097"/><line style="stroke:#000000;stroke-width:1.0;" x1="259" x2="259" y1="157.097" y2="175.4411"/><line style="stroke:#000000;stroke-width:1.0;" x1="259" x2="259" y1="24.3441" y2="157.097"/><line style="stroke:#000000;stroke-width:1.0;" x1="6" x2="6" y1="220.1294" y2="249.4735"/><line style="stroke:#000000;stroke-width:1.0;" x1="6" x2="6" y1="212.1294" y2="220.1294"/><line style="stroke:#000000;stroke-width:1.0;" x1="259" x2="259" y1="220.1294" y2="249.4735"/><line style="stroke:#000000;stroke-width:1.0;" x1="6" x2="6" y1="193.7853" y2="212.1294"/><line style="stroke:#000000;stroke-width:1.0;" x1="259" x2="259" y1="212.1294" y2="220.1294"/><line style="stroke:#000000;stroke-width:1.0;" x1="6" x2="6" y1="175.4411" y2="193.7853"/><line style="stroke:#000000;stroke-width:1.0;" x1="259" x2="259" y1="193.7853" y2="212.1294"/><line style="stroke:#000000;stroke-width:1.0;" x1="6" x2="6" y1="157.097" y2="175.4411"/><line style="stroke:#000000;stroke-width:1.0;" x1="259" x2="259" y1="175.4411" y2="193.7853"/><rect fill="#EEEEEE" height="20.3441" rx="5" ry="5" style="stroke:#000000;stroke-width:2.5;" width="60" x="277.5" y="28.8441"/><text fill="#000000" font-family="sans-serif" font-size="12" lengthAdjust="spacing" textLength="45" x="285" y="43.6722">Capture</text><text fill="#000000" font-family="sans-serif" font-size="12" lengthAdjust="spacing" textLength="4" x="342" y="39.1722">/</text><rect fill="#EEEEEE" height="20.3441" rx="5" ry="5" style="stroke:#000000;stroke-width:2.5;" width="196" x="350.5" y="28.8441"/><text fill="#000000" font-family="sans-serif" font-size="12" lengthAdjust="spacing" textLength="135" x="381" y="43.6722">Partie non retenue, Vrac</text><rect fill="#EEEEEE" height="20.3441" rx="5" ry="5" style="stroke:#000000;stroke-width:2.5;" width="100" x="553.5" y="28.8441"/><text fill="#000000" font-family="sans-serif" font-size="12" font-weight="bold" lengthAdjust="spacing" textLength="74" x="566.5" y="43.6722">Non détaillé</text><text fill="#000000" font-family="sans-serif" font-size="12" lengthAdjust="spacing" textLength="15" x="658" y="39.1722">(2)</text><rect fill="#EEEEEE" height="12" rx="5" ry="5" style="stroke:#000000;stroke-width:2.5;" width="20" x="688.5" y="29.8441"/><path d="M698.5,31.8441 L694.5,35.8441 L698.5,39.8441 L700,38.3441 L697.5,35.8441 L700,33.3441 L698.5,31.8441 " fill="#000000" style="stroke:;stroke-width:0.0;stroke-dasharray:;"/><rect fill="#EEEEEE" height="12" rx="5" ry="5" style="stroke:#000000;stroke-width:2.5;" width="20" x="715.5" y="29.8441"/><path d="M723,31.8441 L721.5,33.3441 L724,35.8441 L721.5,38.3441 L723,39.8441 L727,35.8441 L723,31.8441 " fill="#000000" style="stroke:;stroke-width:0.0;stroke-dasharray:;"/><rect fill="#EEEEEE" height="12" rx="5" ry="5" style="stroke:#000000;stroke-width:2.5;" width="36" x="288.5" y="77.5323"/><path d="M305.5,79.5323 L305.5,82.5323 L302.5,82.5323 L302.5,84.5323 L305.5,84.5323 L305.5,87.5323 L307.5,87.5323 L307.5,84.5323 L310.5,84.5323 L310.5,82.5323 L307.5,82.5323 L307.5,79.5323 L305.5,79.5323 " fill="#000000" style="stroke:;stroke-width:0.0;stroke-dasharray:;"/><rect fill="#EEEEEE" height="20.3441" rx="5" ry="5" style="stroke:#000000;stroke-width:2.5;" width="44" x="331.5" y="77.5323"/><text fill="#000000" font-family="sans-serif" font-size="12" font-weight="bold" lengthAdjust="spacing" textLength="8" x="342.5" y="92.3604">((</text><path d="M354.5,84.8765 L354.5,87.8765 L351.5,87.8765 L351.5,89.8765 L354.5,89.8765 L354.5,92.8765 L356.5,92.8765 L356.5,89.8765 L359.5,89.8765 L359.5,87.8765 L356.5,87.8765 L356.5,84.8765 L354.5,84.8765 " fill="#000000" style="stroke:;stroke-width:0.0;stroke-dasharray:;"/><text fill="#000000" font-family="sans-serif" font-size="12" font-weight="bold" lengthAdjust="spacing" textLength="4" x="360.5" y="92.3604">)</text><rect fill="#EEEEEE" height="12" rx="5" ry="5" style="stroke:#000000;stroke-width:2.5;" width="36" x="382.5" y="77.5323"/><path d="M399.5,79.5323 C398.95,79.5323 398.5,79.9823 398.5,80.5323 L397.5,80.5323 C396.95,80.5323 396.5,80.9823 396.5,81.5323 L403.5,81.5323 C403.5,80.9823 403.05,80.5323 402.5,80.5323 L401.5,80.5323 C401.5,79.9823 401.05,79.5323 400.5,79.5323 L399.5,79.5323 M397.5,82.5323 L397.5,87.3423 C397.5,87.4523 397.58,87.5323 397.69,87.5323 L402.32,87.5323 C402.43,87.5323 402.51,87.4523 402.51,87.3423 L402.51,82.5323 L401.51,82.5323 L401.51,86.0323 C401.51,86.3123 401.29,86.5323 401.01,86.5323 C400.73,86.5323 400.51,86.3123 400.51,86.0323 L400.51,82.5323 L399.51,82.5323 L399.51,86.0323 C399.51,86.3123 399.29,86.5323 399.01,86.5323 C398.73,86.5323 398.51,86.3123 398.51,86.0323 L398.51,82.5323 L397.51,82.5323 " fill="#000000" style="stroke:;stroke-width:0.0;stroke-dasharray:;"/><text fill="#000000" font-family="sans-serif" font-size="12" lengthAdjust="spacing" textLength="8" x="275" y="116.2045">#</text><text fill="#000000" font-family="sans-serif" font-size="12" font-weight="bold" lengthAdjust="spacing" textLength="103" x="285" y="116.2045">Nature des rejets</text><text fill="#000000" font-family="sans-serif" font-size="12" font-weight="bold" lengthAdjust="spacing" textLength="90" x="511" y="116.2045">Poids total (kg)</text><path d="M604,103.3765 L604,104.3765 L612,104.3765 L612,103.3765 L604,103.3765 M604,106.3465 L604,107.3465 L612,107.3465 L612,106.3465 L604,106.3465 M604,109.3465 L604,110.3465 L612,110.3465 L612,109.3465 L604,109.3465 " fill="#000000" style="stroke:;stroke-width:0.0;stroke-dasharray:;"/><text fill="#000000" font-family="sans-serif" font-size="12" lengthAdjust="spacing" textLength="7" x="275" y="134.5487">1</text><rect fill="#EEEEEE" height="19.3441" style="stroke:#000000;stroke-width:1.0;" width="127" x="285" y="121.7206"/><text fill="#000000" font-family="sans-serif" font-size="12" lengthAdjust="spacing" textLength="80" x="287" y="136.5487">ANI - Animaux</text><line style="stroke:#000000;stroke-width:1.0;" x1="401" x2="401" y1="121.7206" y2="141.0647"/><polygon fill="#000000" points="404,127.7206,410,127.7206,407,136.0647" style="stroke:#000000;stroke-width:1.0;"/><text fill="#000000" font-family="sans-serif" font-size="12" lengthAdjust="spacing" textLength="14" x="511" y="134.5487">10</text><path d="M604.09,127.0647 C604.03,127.0647 604,127.1047 604,127.1547 L604,132.9647 C604,133.0147 604.04,133.0547 604.09,133.0547 L610,133.0547 L612,135.0547 L612,127.1447 C612,127.0847 611.96,127.0547 611.91,127.0547 L604.1,127.0547 " fill="#000000" style="stroke:;stroke-width:0.0;stroke-dasharray:;"/><text fill="#000000" font-family="sans-serif" font-size="12" lengthAdjust="spacing" textLength="3" x="613" y="134.5487"> </text><path d="M617,127.0647 L617,135.0647 L625,135.0647 L625,127.0647 L617,127.0647 M618,128.0647 L624,128.0647 L624,131.0647 L623,130.0647 L622,131.0647 L624,133.0647 L624,134.0647 L623,134.0647 L619,130.0647 L618,131.0647 L618,128.0647 " fill="#000000" style="stroke:;stroke-width:0.0;stroke-dasharray:;"/><text fill="#000000" font-family="sans-serif" font-size="12" lengthAdjust="spacing" textLength="7" x="275" y="156.8928">2</text><rect fill="#EEEEEE" height="19.3441" style="stroke:#000000;stroke-width:1.0;" width="223" x="285" y="144.0647"/><text fill="#000000" font-family="sans-serif" font-size="12" lengthAdjust="spacing" textLength="132" x="287" y="158.8928">INV - Inerte et végétaux</text><line style="stroke:#000000;stroke-width:1.0;" x1="497" x2="497" y1="144.0647" y2="163.4088"/><polygon fill="#000000" points="500,150.0647,506,150.0647,503,158.4088" style="stroke:#000000;stroke-width:1.0;"/><text fill="#000000" font-family="sans-serif" font-size="12" lengthAdjust="spacing" textLength="14" x="511" y="156.8928">10</text><path d="M604.09,149.4088 C604.03,149.4088 604,149.4488 604,149.4988 L604,155.3088 C604,155.3588 604.04,155.3988 604.09,155.3988 L610,155.3988 L612,157.3988 L612,149.4888 C612,149.4288 611.96,149.3988 611.91,149.3988 L604.1,149.3988 " fill="#000000" style="stroke:;stroke-width:0.0;stroke-dasharray:;"/><text fill="#000000" font-family="sans-serif" font-size="12" lengthAdjust="spacing" textLength="3" x="613" y="156.8928"> </text><path d="M617,149.4088 L617,157.4088 L625,157.4088 L625,149.4088 L617,149.4088 M618,150.4088 L624,150.4088 L624,153.4088 L623,152.4088 L622,153.4088 L624,155.4088 L624,156.4088 L623,156.4088 L619,152.4088 L618,153.4088 L618,150.4088 " fill="#000000" style="stroke:;stroke-width:0.0;stroke-dasharray:;"/><line style="stroke:#000000;stroke-width:1.0;" x1="274" x2="284" y1="73.0323" y2="73.0323"/><line style="stroke:#000000;stroke-width:1.0;" x1="510" x2="602" y1="120.7206" y2="120.7206"/><line style="stroke:#000000;stroke-width:1.0;" x1="284" x2="510" y1="73.0323" y2="73.0323"/><line style="stroke:#000000;stroke-width:1.0;" x1="602" x2="627" y1="120.7206" y2="120.7206"/><line style="stroke:#000000;stroke-width:1.0;" x1="510" x2="602" y1="73.0323" y2="73.0323"/><line style="stroke:#000000;stroke-width:1.0;" x1="602" x2="627" y1="73.0323" y2="73.0323"/><line style="stroke:#000000;stroke-width:1.0;" x1="274" x2="284" y1="143.0647" y2="143.0647"/><line style="stroke:#000000;stroke-width:1.0;" x1="284" x2="510" y1="143.0647" y2="143.0647"/><line style="stroke:#000000;stroke-width:1.0;" x1="274" x2="284" y1="102.3765" y2="102.3765"/><line style="stroke:#000000;stroke-width:1.0;" x1="510" x2="602" y1="143.0647" y2="143.0647"/><line style="stroke:#000000;stroke-width:1.0;" x1="284" x2="510" y1="102.3765" y2="102.3765"/><line style="stroke:#000000;stroke-width:1.0;" x1="602" x2="627" y1="143.0647" y2="143.0647"/><line style="stroke:#000000;stroke-width:1.0;" x1="510" x2="602" y1="102.3765" y2="102.3765"/><line style="stroke:#000000;stroke-width:1.0;" x1="602" x2="627" y1="102.3765" y2="102.3765"/><line style="stroke:#000000;stroke-width:1.0;" x1="274" x2="284" y1="165.4088" y2="165.4088"/><line style="stroke:#000000;stroke-width:1.0;" x1="284" x2="510" y1="165.4088" y2="165.4088"/><line style="stroke:#000000;stroke-width:1.0;" x1="510" x2="602" y1="165.4088" y2="165.4088"/><line style="stroke:#000000;stroke-width:1.0;" x1="274" x2="284" y1="120.7206" y2="120.7206"/><line style="stroke:#000000;stroke-width:1.0;" x1="602" x2="627" y1="165.4088" y2="165.4088"/><line style="stroke:#000000;stroke-width:1.0;" x1="284" x2="510" y1="120.7206" y2="120.7206"/><line style="stroke:#000000;stroke-width:1.0;" x1="274" x2="274" y1="73.0323" y2="102.3765"/><line style="stroke:#000000;stroke-width:1.0;" x1="510" x2="510" y1="120.7206" y2="143.0647"/><line style="stroke:#000000;stroke-width:1.0;" x1="284" x2="284" y1="73.0323" y2="102.3765"/><line style="stroke:#000000;stroke-width:1.0;" x1="602" x2="602" y1="120.7206" y2="143.0647"/><line style="stroke:#000000;stroke-width:1.0;" x1="627" x2="627" y1="120.7206" y2="143.0647"/><line style="stroke:#000000;stroke-width:1.0;" x1="510" x2="510" y1="73.0323" y2="102.3765"/><line style="stroke:#000000;stroke-width:1.0;" x1="602" x2="602" y1="73.0323" y2="102.3765"/><line style="stroke:#000000;stroke-width:1.0;" x1="627" x2="627" y1="73.0323" y2="102.3765"/><line style="stroke:#000000;stroke-width:1.0;" x1="274" x2="274" y1="143.0647" y2="165.4088"/><line style="stroke:#000000;stroke-width:1.0;" x1="284" x2="284" y1="143.0647" y2="165.4088"/><line style="stroke:#000000;stroke-width:1.0;" x1="274" x2="274" y1="102.3765" y2="120.7206"/><line style="stroke:#000000;stroke-width:1.0;" x1="510" x2="510" y1="143.0647" y2="165.4088"/><line style="stroke:#000000;stroke-width:1.0;" x1="284" x2="284" y1="102.3765" y2="120.7206"/><line style="stroke:#000000;stroke-width:1.0;" x1="602" x2="602" y1="143.0647" y2="165.4088"/><line style="stroke:#000000;stroke-width:1.0;" x1="627" x2="627" y1="143.0647" y2="165.4088"/><line style="stroke:#000000;stroke-width:1.0;" x1="510" x2="510" y1="102.3765" y2="120.7206"/><line style="stroke:#000000;stroke-width:1.0;" x1="602" x2="602" y1="102.3765" y2="120.7206"/><line style="stroke:#000000;stroke-width:1.0;" x1="627" x2="627" y1="102.3765" y2="120.7206"/><line style="stroke:#000000;stroke-width:1.0;" x1="274" x2="274" y1="120.7206" y2="143.0647"/><line style="stroke:#000000;stroke-width:1.0;" x1="284" x2="284" y1="120.7206" y2="143.0647"/><line style="stroke:#AAAAAA;stroke-width:1.0;" x1="6" x2="260" y1="254.9735" y2="254.9735"/><line style="stroke:#AAAAAA;stroke-width:1.0;" x1="261" x2="272" y1="254.9735" y2="254.9735"/><line style="stroke:#AAAAAA;stroke-width:1.0;" x1="273" x2="742" y1="254.9735" y2="254.9735"/><rect fill="#EEEEEE" height="20.3441" rx="5" ry="5" style="stroke:#000000;stroke-width:2.5;" width="52" x="9.5" y="262.9735"/><text fill="#000000" font-family="sans-serif" font-size="12" lengthAdjust="spacing" textLength="41" x="15" y="277.8016">Fermer</text><rect fill="#EEEEEE" height="20.3441" rx="5" ry="5" style="stroke:#000000;stroke-width:2.5;" width="92" x="68.5" y="262.9735"/><text fill="#000000" font-family="sans-serif" font-size="12" lengthAdjust="spacing" textLength="72" x="78.5" y="277.8016">Sauvegarder</text></g></svg>