<?xml version="1.0" encoding="us-ascii" standalone="no"?><svg xmlns="http://www.w3.org/2000/svg" xmlns:xlink="http://www.w3.org/1999/xlink" contentStyleType="text/css" height="271px" preserveAspectRatio="none" style="width:886px;height:271px;background:#FFFFFF;" version="1.1" viewBox="0 0 886 271" width="886px" zoomAndPan="magnify"><defs><filter height="1" id="bro44g1e3x0a90" width="1" x="0" y="0"><feFlood flood-color="#DDDDDD" result="flood"/><feComposite in="SourceGraphic" in2="flood" operator="over"/></filter></defs><g><text fill="#000000" font-family="sans-serif" font-size="12" lengthAdjust="spacing" textLength="39" x="8" y="18.457">D&#233;tails</text><line style="stroke:#000000;stroke-width:1.0;" x1="6" x2="6" y1="6" y2="21.0938"/><line style="stroke:#000000;stroke-width:1.0;" x1="6" x2="50" y1="6" y2="6"/><line style="stroke:#000000;stroke-width:1.0;" x1="50" x2="50" y1="6" y2="21.0938"/><line style="stroke:#000000;stroke-width:1.0;" x1="50" x2="60" y1="21.0938" y2="21.0938"/><text fill="#000000" font-family="sans-serif" font-size="12" font-weight="bold" lengthAdjust="spacing" textLength="45" x="65" y="18.457">Capture</text><line style="stroke:#000000;stroke-width:1.0;" x1="60" x2="60" y1="6" y2="21.0938"/><line style="stroke:#000000;stroke-width:1.0;" x1="60" x2="113" y1="6" y2="6"/><line style="stroke:#000000;stroke-width:1.0;" x1="113" x2="113" y1="6" y2="21.0938"/><line style="stroke:#000000;stroke-width:1.0;" x1="113" x2="123" y1="21.0938" y2="21.0938"/><text fill="#000000" font-family="sans-serif" font-size="12" lengthAdjust="spacing" textLength="44" x="17" y="36.5508">Capture</text><text fill="#000000" font-family="sans-serif" font-size="12" lengthAdjust="spacing" textLength="77" x="27" y="51.6445">Partie retenue</text><text fill="#000000" font-family="sans-serif" font-size="12" lengthAdjust="spacing" textLength="131" x="27" y="66.7383">Partie non retenue, Vrac</text><text fill="#000000" font-family="sans-serif" font-size="12" lengthAdjust="spacing" textLength="42" x="37" y="81.832">D&#233;taill&#233;</text><text fill="#000000" font-family="sans-serif" font-size="12" lengthAdjust="spacing" textLength="66" x="37" y="96.9258">Non d&#233;taill&#233;</text><text fill="#000000" font-family="sans-serif" font-size="12" lengthAdjust="spacing" textLength="13" x="231" y="96.9258">[0]</text><text fill="#000000" font-family="sans-serif" font-size="12" lengthAdjust="spacing" textLength="162" x="27" y="112.0195">Partie non retenue, Hors-Vrac</text><text fill="#000000" filter="url(#bro44g1e3x0a90)" font-family="sans-serif" font-size="12" lengthAdjust="spacing" textLength="47" x="37" y="127.1133">Animaux</text><text fill="#0000FF" font-family="sans-serif" font-size="12" font-style="italic" lengthAdjust="spacing" textLength="13" x="231" y="127.1133">[2]</text><text fill="#000000" font-family="sans-serif" font-size="12" lengthAdjust="spacing" textLength="184" x="37" y="142.207">Ecosyst&#232;mes Marins Vuln&#233;rables</text><text fill="#000000" font-family="sans-serif" font-size="12" lengthAdjust="spacing" textLength="13" x="231" y="142.207">[0]</text><rect fill="none" height="2" style="stroke:#888888;stroke-width:1.0;" width="2" x="10" y="30.6406"/><line style="stroke:#888888;stroke-width:1.0;" x1="11" x2="11" y1="33.6406" y2="46.7344"/><line style="stroke:#888888;stroke-width:1.0;" x1="11" x2="19" y1="46.7344" y2="46.7344"/><rect fill="none" height="2" style="stroke:#888888;stroke-width:1.0;" width="2" x="20" y="60.8281"/><line style="stroke:#888888;stroke-width:1.0;" x1="11" x2="11" y1="33.6406" y2="61.8281"/><line style="stroke:#888888;stroke-width:1.0;" x1="11" x2="19" y1="61.8281" y2="61.8281"/><line style="stroke:#888888;stroke-width:1.0;" x1="21" x2="21" y1="63.8281" y2="76.9219"/><line style="stroke:#888888;stroke-width:1.0;" x1="21" x2="29" y1="76.9219" y2="76.9219"/><line style="stroke:#888888;stroke-width:1.0;" x1="21" x2="21" y1="63.8281" y2="92.0156"/><line style="stroke:#888888;stroke-width:1.0;" x1="21" x2="29" y1="92.0156" y2="92.0156"/><rect fill="none" height="2" style="stroke:#888888;stroke-width:1.0;" width="2" x="20" y="106.1094"/><line style="stroke:#888888;stroke-width:1.0;" x1="11" x2="11" y1="33.6406" y2="107.1094"/><line style="stroke:#888888;stroke-width:1.0;" x1="11" x2="19" y1="107.1094" y2="107.1094"/><line style="stroke:#888888;stroke-width:1.0;" x1="21" x2="21" y1="109.1094" y2="122.2031"/><line style="stroke:#888888;stroke-width:1.0;" x1="21" x2="29" y1="122.2031" y2="122.2031"/><line style="stroke:#888888;stroke-width:1.0;" x1="21" x2="21" y1="109.1094" y2="137.2969"/><line style="stroke:#888888;stroke-width:1.0;" x1="21" x2="29" y1="137.2969" y2="137.2969"/><line style="stroke:#AAAAAA;stroke-width:1.0;" x1="7" x2="247" y1="201.625" y2="201.625"/><rect fill="#EEEEEE" height="19.0938" rx="5" ry="5" style="stroke:#000000;stroke-width:2.5;" width="100" x="10.5" y="209.625"/><text fill="#000000" font-family="sans-serif" font-size="12" lengthAdjust="spacing" textLength="51" x="36.5" y="224.082">Contr&#244;ler</text><rect fill="#EEEEEE" height="19.0938" rx="5" ry="5" style="stroke:#000000;stroke-width:2.5;" width="36" x="117.5" y="209.625"/><text fill="#000000" font-family="sans-serif" font-size="12" font-weight="bold" lengthAdjust="spacing" textLength="14" x="128.5" y="224.082">&lt;&lt;</text><line style="stroke:#000000;stroke-width:1.0;" x1="6" x2="247" y1="23.0938" y2="23.0938"/><line style="stroke:#000000;stroke-width:1.0;" x1="6" x2="247" y1="233.2188" y2="233.2188"/><line style="stroke:#000000;stroke-width:1.0;" x1="6" x2="6" y1="23.0938" y2="145.8438"/><line style="stroke:#000000;stroke-width:1.0;" x1="247" x2="247" y1="145.8438" y2="162.9375"/><line style="stroke:#000000;stroke-width:1.0;" x1="247" x2="247" y1="23.0938" y2="145.8438"/><line style="stroke:#000000;stroke-width:1.0;" x1="6" x2="6" y1="205.125" y2="233.2188"/><line style="stroke:#000000;stroke-width:1.0;" x1="6" x2="6" y1="197.125" y2="205.125"/><line style="stroke:#000000;stroke-width:1.0;" x1="247" x2="247" y1="205.125" y2="233.2188"/><line style="stroke:#000000;stroke-width:1.0;" x1="6" x2="6" y1="180.0313" y2="197.125"/><line style="stroke:#000000;stroke-width:1.0;" x1="247" x2="247" y1="197.125" y2="205.125"/><line style="stroke:#000000;stroke-width:1.0;" x1="6" x2="6" y1="162.9375" y2="180.0313"/><line style="stroke:#000000;stroke-width:1.0;" x1="247" x2="247" y1="180.0313" y2="197.125"/><line style="stroke:#000000;stroke-width:1.0;" x1="6" x2="6" y1="145.8438" y2="162.9375"/><line style="stroke:#000000;stroke-width:1.0;" x1="247" x2="247" y1="162.9375" y2="180.0313"/><rect fill="#EEEEEE" height="19.0938" rx="5" ry="5" style="stroke:#000000;stroke-width:2.5;" width="60" x="265.5" y="27.5938"/><text fill="#000000" font-family="sans-serif" font-size="12" lengthAdjust="spacing" textLength="44" x="273.5" y="42.0508">Capture</text><text fill="#000000" font-family="sans-serif" font-size="12" lengthAdjust="spacing" textLength="3" x="330" y="37.5508">/</text><rect fill="#EEEEEE" height="19.0938" rx="5" ry="5" style="stroke:#000000;stroke-width:2.5;" width="236" x="337.5" y="27.5938"/><text fill="#000000" font-family="sans-serif" font-size="12" lengthAdjust="spacing" textLength="161" x="375" y="42.0508">Partie non retenue, Hors Vrac</text><rect fill="#EEEEEE" height="19.0938" rx="5" ry="5" style="stroke:#000000;stroke-width:2.5;" width="68" x="580.5" y="27.5938"/><text fill="#000000" font-family="sans-serif" font-size="12" lengthAdjust="spacing" textLength="42" x="593.5" y="42.0508">D&#233;taill&#233;</text><rect fill="#EEEEEE" height="19.0938" rx="5" ry="5" style="stroke:#000000;stroke-width:2.5;" width="60" x="655.5" y="27.5938"/><text fill="#000000" font-family="sans-serif" font-size="12" font-weight="bold" lengthAdjust="spacing" textLength="50" x="660.5" y="42.0508">Animaux</text><text fill="#000000" font-family="sans-serif" font-size="12" lengthAdjust="spacing" textLength="15" x="720" y="37.5508">(2)</text><rect fill="#EEEEEE" height="12" rx="5" ry="5" style="stroke:#000000;stroke-width:2.5;" width="20" x="825.5" y="28.5938"/><path d="M835.5,30.5938 L831.5,34.5938 L835.5,38.5938 L837,37.0938 L834.5,34.5938 L837,32.0938 L835.5,30.5938 " fill="#000000" style="stroke:;stroke-width:0.0;stroke-dasharray:;"/><rect fill="#EEEEEE" height="12" rx="5" ry="5" style="stroke:#000000;stroke-width:2.5;" width="20" x="852.5" y="28.5938"/><path d="M860,30.5938 L858.5,32.0938 L861,34.5938 L858.5,37.0938 L860,38.5938 L864,34.5938 L860,30.5938 " fill="#000000" style="stroke:;stroke-width:0.0;stroke-dasharray:;"/><line style="stroke:#AAAAAA;stroke-width:1.0;" x1="262" x2="878" y1="55.6875" y2="55.6875"/><text fill="#000000" font-family="sans-serif" font-size="12" lengthAdjust="spacing" textLength="88" x="263" y="73.6445">Poids total (kg) :</text><text fill="#0000FF" font-family="sans-serif" font-size="12" font-style="italic" lengthAdjust="spacing" textLength="14" x="356" y="73.6445">26</text><line style="stroke:#000000;stroke-width:1.0;" x1="354" x2="413" y1="76.2813" y2="76.2813"/><line style="stroke:#000000;stroke-width:1.0;" x1="354" x2="354" y1="73.2813" y2="75.2813"/><line style="stroke:#000000;stroke-width:1.0;" x1="413" x2="413" y1="73.2813" y2="75.2813"/><line style="stroke:#AAAAAA;stroke-width:1.0;" x1="262" x2="878" y1="84.7813" y2="84.7813"/><path d="M266.97,90.2813 L264,93.2813 L266,93.2813 L266,98.2813 L268,98.2813 L268,93.2813 L270,93.2813 L266.97,90.2813 " fill="#000000" style="stroke:;stroke-width:0.0;stroke-dasharray:;"/><rect fill="#EEEEEE" height="12" rx="5" ry="5" style="stroke:#000000;stroke-width:2.5;" width="36" x="294.5" y="93.7813"/><path d="M311.5,95.7813 L311.5,98.7813 L308.5,98.7813 L308.5,100.7813 L311.5,100.7813 L311.5,103.7813 L313.5,103.7813 L313.5,100.7813 L316.5,100.7813 L316.5,98.7813 L313.5,98.7813 L313.5,95.7813 L311.5,95.7813 " fill="#000000" style="stroke:;stroke-width:0.0;stroke-dasharray:;"/><rect fill="#EEEEEE" height="12" rx="5" ry="5" style="stroke:#000000;stroke-width:2.5;" width="36" x="337.5" y="93.7813"/><path d="M354.5,95.7813 C353.95,95.7813 353.5,96.2313 353.5,96.7813 L352.5,96.7813 C351.95,96.7813 351.5,97.2313 351.5,97.7813 L358.5,97.7813 C358.5,97.2313 358.05,96.7813 357.5,96.7813 L356.5,96.7813 C356.5,96.2313 356.05,95.7813 355.5,95.7813 L354.5,95.7813 M352.5,98.7813 L352.5,103.5913 C352.5,103.7013 352.58,103.7813 352.69,103.7813 L357.32,103.7813 C357.43,103.7813 357.51,103.7013 357.51,103.5913 L357.51,98.7813 L356.51,98.7813 L356.51,102.2813 C356.51,102.5613 356.29,102.7813 356.01,102.7813 C355.73,102.7813 355.51,102.5613 355.51,102.2813 L355.51,98.7813 L354.51,98.7813 L354.51,102.2813 C354.51,102.5613 354.29,102.7813 354.01,102.7813 C353.73,102.7813 353.51,102.5613 353.51,102.2813 L353.51,98.7813 L352.51,98.7813 " fill="#000000" style="stroke:;stroke-width:0.0;stroke-dasharray:;"/><text fill="#000000" font-family="sans-serif" font-size="12" lengthAdjust="spacing" textLength="49" x="398" y="103.7383">Estim&#233; ?</text><rect fill="none" height="10" style="stroke:#000000;stroke-width:1.5;" width="10" x="380" y="93.8281"/><rect fill="#EEEEEE" height="19.0938" rx="5" ry="5" style="stroke:#000000;stroke-width:2.5;" width="12" x="265.5" y="113.7813"/><text fill="#000000" font-family="sans-serif" font-size="12" lengthAdjust="spacing" textLength="3" x="270" y="128.2383">&#160;</text><text fill="#000000" font-family="sans-serif" font-size="12" lengthAdjust="spacing" textLength="7" x="282" y="123.7383">#</text><text fill="#000000" font-family="sans-serif" font-size="12" font-weight="bold" lengthAdjust="spacing" textLength="111" x="291" y="123.7383">Esp&#232;ce scientifique</text><text fill="#000000" font-family="sans-serif" font-size="12" font-weight="bold" lengthAdjust="spacing" textLength="85" x="437" y="123.7383">Poids total (kg)</text><text fill="#000000" font-family="sans-serif" font-size="12" font-weight="bold" lengthAdjust="spacing" textLength="75" x="524" y="123.7383">Nb indiv. total</text><path d="M602,111.2813 L602,112.2813 L610,112.2813 L610,111.2813 L602,111.2813 M602,114.2513 L602,115.2513 L610,115.2513 L610,114.2513 L602,114.2513 M602,117.2513 L602,118.2513 L610,118.2513 L610,117.2513 L602,117.2513 " fill="#000000" style="stroke:;stroke-width:0.0;stroke-dasharray:;"/><rect fill="#EEEEEE" height="19.0938" rx="5" ry="5" style="stroke:#000000;stroke-width:2.5;" width="12" x="265.5" y="139.875"/><text fill="#000000" font-family="sans-serif" font-size="12" lengthAdjust="spacing" textLength="3" x="270" y="154.332">&#160;</text><text fill="#000000" font-family="sans-serif" font-size="12" lengthAdjust="spacing" textLength="7" x="282" y="149.832">1</text><rect fill="#EEEEEE" height="18.0938" style="stroke:#000000;stroke-width:1.0;" width="143" x="291" y="137.375"/><text fill="#000000" font-family="sans-serif" font-size="12" lengthAdjust="spacing" textLength="76" x="293" y="151.832">TOR - Torpille</text><line style="stroke:#000000;stroke-width:1.0;" x1="423" x2="423" y1="137.375" y2="155.4688"/><polygon fill="#000000" points="426,143.375,432,143.375,429,150.4688" style="stroke:#000000;stroke-width:1.0;"/><text fill="#000000" font-family="sans-serif" font-size="12" lengthAdjust="spacing" textLength="14" x="437" y="149.832">12</text><text fill="#000000" font-family="sans-serif" font-size="12" lengthAdjust="spacing" textLength="7" x="524" y="149.832">5</text><path d="M602,141.4688 L602,148.4688 L610,148.4688 L610,147.4688 L603,147.4688 L603,141.4688 L602,141.4688 M607,141.4688 L607,146.4688 L609,146.4688 L609,141.4688 L607,141.4688 M604,143.4688 L604,146.4688 L606,146.4688 L606,143.4688 L604,143.4688 " fill="#000000" style="stroke:;stroke-width:0.0;stroke-dasharray:;"/><text fill="#000000" font-family="sans-serif" font-size="12" lengthAdjust="spacing" textLength="3" x="611" y="149.832">&#160;</text><path d="M615.09,141.4688 C615.03,141.4688 615,141.5088 615,141.5588 L615,147.3688 C615,147.4188 615.04,147.4588 615.09,147.4588 L621,147.4588 L623,149.4588 L623,141.5488 C623,141.4888 622.96,141.4588 622.91,141.4588 L615.1,141.4588 " fill="#000000" style="stroke:;stroke-width:0.0;stroke-dasharray:;"/><text fill="#000000" font-family="sans-serif" font-size="12" lengthAdjust="spacing" textLength="3" x="624" y="149.832">&#160;</text><path d="M628,141.4688 L628,149.4688 L636,149.4688 L636,141.4688 L628,141.4688 M629,142.4688 L635,142.4688 L635,145.4688 L634,144.4688 L633,145.4688 L635,147.4688 L635,148.4688 L634,148.4688 L630,144.4688 L629,145.4688 L629,142.4688 " fill="#000000" style="stroke:;stroke-width:0.0;stroke-dasharray:;"/><rect fill="#EEEEEE" height="19.0938" rx="5" ry="5" style="stroke:#000000;stroke-width:2.5;" width="12" x="265.5" y="165.9688"/><text fill="#000000" font-family="sans-serif" font-size="12" lengthAdjust="spacing" textLength="3" x="270" y="180.4258">&#160;</text><text fill="#000000" font-family="sans-serif" font-size="12" lengthAdjust="spacing" textLength="7" x="282" y="175.9258">2</text><rect fill="#EEEEEE" height="18.0938" style="stroke:#000000;stroke-width:1.0;" width="119" x="291" y="163.4688"/><text fill="#000000" font-family="sans-serif" font-size="12" lengthAdjust="spacing" textLength="78" x="293" y="177.9258">CON - Congar</text><line style="stroke:#000000;stroke-width:1.0;" x1="399" x2="399" y1="163.4688" y2="181.5625"/><polygon fill="#000000" points="402,169.4688,408,169.4688,405,176.5625" style="stroke:#000000;stroke-width:1.0;"/><text fill="#000000" font-family="sans-serif" font-size="12" lengthAdjust="spacing" textLength="7" x="437" y="175.9258">7</text><text fill="#000000" font-family="sans-serif" font-size="12" lengthAdjust="spacing" textLength="7" x="524" y="175.9258">3</text><path d="M602,167.5625 L602,174.5625 L610,174.5625 L610,173.5625 L603,173.5625 L603,167.5625 L602,167.5625 M607,167.5625 L607,172.5625 L609,172.5625 L609,167.5625 L607,167.5625 M604,169.5625 L604,172.5625 L606,172.5625 L606,169.5625 L604,169.5625 " fill="#000000" style="stroke:;stroke-width:0.0;stroke-dasharray:;"/><text fill="#000000" font-family="sans-serif" font-size="12" lengthAdjust="spacing" textLength="3" x="611" y="175.9258">&#160;</text><path d="M615.09,167.5625 C615.03,167.5625 615,167.6025 615,167.6525 L615,173.4625 C615,173.5125 615.04,173.5525 615.09,173.5525 L621,173.5525 L623,175.5525 L623,167.6425 C623,167.5825 622.96,167.5525 622.91,167.5525 L615.1,167.5525 " fill="#000000" style="stroke:;stroke-width:0.0;stroke-dasharray:;"/><text fill="#000000" font-family="sans-serif" font-size="12" lengthAdjust="spacing" textLength="3" x="624" y="175.9258">&#160;</text><path d="M628,167.5625 L628,175.5625 L636,175.5625 L636,167.5625 L628,167.5625 M629,168.5625 L635,168.5625 L635,171.5625 L634,170.5625 L633,171.5625 L635,173.5625 L635,174.5625 L634,174.5625 L630,170.5625 L629,171.5625 L629,168.5625 " fill="#000000" style="stroke:;stroke-width:0.0;stroke-dasharray:;"/><line style="stroke:#000000;stroke-width:1.0;" x1="262" x2="281" y1="89.2813" y2="89.2813"/><line style="stroke:#000000;stroke-width:1.0;" x1="523" x2="600" y1="188.5625" y2="188.5625"/><line style="stroke:#000000;stroke-width:1.0;" x1="281" x2="290" y1="89.2813" y2="89.2813"/><line style="stroke:#000000;stroke-width:1.0;" x1="600" x2="638" y1="188.5625" y2="188.5625"/><line style="stroke:#000000;stroke-width:1.0;" x1="290" x2="436" y1="89.2813" y2="89.2813"/><line style="stroke:#000000;stroke-width:1.0;" x1="436" x2="523" y1="89.2813" y2="89.2813"/><line style="stroke:#000000;stroke-width:1.0;" x1="523" x2="600" y1="89.2813" y2="89.2813"/><line style="stroke:#000000;stroke-width:1.0;" x1="600" x2="638" y1="89.2813" y2="89.2813"/><line style="stroke:#000000;stroke-width:1.0;" x1="262" x2="281" y1="162.4688" y2="162.4688"/><line style="stroke:#000000;stroke-width:1.0;" x1="281" x2="290" y1="162.4688" y2="162.4688"/><line style="stroke:#000000;stroke-width:1.0;" x1="290" x2="436" y1="162.4688" y2="162.4688"/><line style="stroke:#000000;stroke-width:1.0;" x1="436" x2="523" y1="162.4688" y2="162.4688"/><line style="stroke:#000000;stroke-width:1.0;" x1="523" x2="600" y1="162.4688" y2="162.4688"/><line style="stroke:#000000;stroke-width:1.0;" x1="600" x2="638" y1="162.4688" y2="162.4688"/><line style="stroke:#000000;stroke-width:1.0;" x1="262" x2="281" y1="136.375" y2="136.375"/><line style="stroke:#000000;stroke-width:1.0;" x1="281" x2="290" y1="136.375" y2="136.375"/><line style="stroke:#000000;stroke-width:1.0;" x1="290" x2="436" y1="136.375" y2="136.375"/><line style="stroke:#000000;stroke-width:1.0;" x1="436" x2="523" y1="136.375" y2="136.375"/><line style="stroke:#000000;stroke-width:1.0;" x1="523" x2="600" y1="136.375" y2="136.375"/><line style="stroke:#000000;stroke-width:1.0;" x1="600" x2="638" y1="136.375" y2="136.375"/><line style="stroke:#000000;stroke-width:1.0;" x1="262" x2="281" y1="110.2813" y2="110.2813"/><line style="stroke:#000000;stroke-width:1.0;" x1="281" x2="290" y1="110.2813" y2="110.2813"/><line style="stroke:#000000;stroke-width:1.0;" x1="290" x2="436" y1="110.2813" y2="110.2813"/><line style="stroke:#000000;stroke-width:1.0;" x1="436" x2="523" y1="110.2813" y2="110.2813"/><line style="stroke:#000000;stroke-width:1.0;" x1="523" x2="600" y1="110.2813" y2="110.2813"/><line style="stroke:#000000;stroke-width:1.0;" x1="600" x2="638" y1="110.2813" y2="110.2813"/><line style="stroke:#000000;stroke-width:1.0;" x1="262" x2="281" y1="188.5625" y2="188.5625"/><line style="stroke:#000000;stroke-width:1.0;" x1="281" x2="290" y1="188.5625" y2="188.5625"/><line style="stroke:#000000;stroke-width:1.0;" x1="290" x2="436" y1="188.5625" y2="188.5625"/><line style="stroke:#000000;stroke-width:1.0;" x1="436" x2="523" y1="188.5625" y2="188.5625"/><line style="stroke:#000000;stroke-width:1.0;" x1="262" x2="262" y1="89.2813" y2="110.2813"/><line style="stroke:#000000;stroke-width:1.0;" x1="290" x2="290" y1="136.375" y2="162.4688"/><line style="stroke:#000000;stroke-width:1.0;" x1="436" x2="436" y1="136.375" y2="162.4688"/><line style="stroke:#000000;stroke-width:1.0;" x1="290" x2="290" y1="89.2813" y2="110.2813"/><line style="stroke:#000000;stroke-width:1.0;" x1="523" x2="523" y1="136.375" y2="162.4688"/><line style="stroke:#000000;stroke-width:1.0;" x1="600" x2="600" y1="136.375" y2="162.4688"/><line style="stroke:#000000;stroke-width:1.0;" x1="638" x2="638" y1="136.375" y2="162.4688"/><line style="stroke:#000000;stroke-width:1.0;" x1="638" x2="638" y1="89.2813" y2="110.2813"/><line style="stroke:#000000;stroke-width:1.0;" x1="262" x2="262" y1="162.4688" y2="188.5625"/><line style="stroke:#000000;stroke-width:1.0;" x1="281" x2="281" y1="162.4688" y2="188.5625"/><line style="stroke:#000000;stroke-width:1.0;" x1="262" x2="262" y1="110.2813" y2="136.375"/><line style="stroke:#000000;stroke-width:1.0;" x1="290" x2="290" y1="162.4688" y2="188.5625"/><line style="stroke:#000000;stroke-width:1.0;" x1="281" x2="281" y1="110.2813" y2="136.375"/><line style="stroke:#000000;stroke-width:1.0;" x1="436" x2="436" y1="162.4688" y2="188.5625"/><line style="stroke:#000000;stroke-width:1.0;" x1="290" x2="290" y1="110.2813" y2="136.375"/><line style="stroke:#000000;stroke-width:1.0;" x1="523" x2="523" y1="162.4688" y2="188.5625"/><line style="stroke:#000000;stroke-width:1.0;" x1="436" x2="436" y1="110.2813" y2="136.375"/><line style="stroke:#000000;stroke-width:1.0;" x1="600" x2="600" y1="162.4688" y2="188.5625"/><line style="stroke:#000000;stroke-width:1.0;" x1="638" x2="638" y1="162.4688" y2="188.5625"/><line style="stroke:#000000;stroke-width:1.0;" x1="523" x2="523" y1="110.2813" y2="136.375"/><line style="stroke:#000000;stroke-width:1.0;" x1="600" x2="600" y1="110.2813" y2="136.375"/><line style="stroke:#000000;stroke-width:1.0;" x1="638" x2="638" y1="110.2813" y2="136.375"/><line style="stroke:#000000;stroke-width:1.0;" x1="262" x2="262" y1="136.375" y2="162.4688"/><line style="stroke:#000000;stroke-width:1.0;" x1="281" x2="281" y1="136.375" y2="162.4688"/><line style="stroke:#AAAAAA;stroke-width:1.0;" x1="6" x2="248" y1="238.7188" y2="238.7188"/><line style="stroke:#AAAAAA;stroke-width:1.0;" x1="249" x2="260" y1="238.7188" y2="238.7188"/><line style="stroke:#AAAAAA;stroke-width:1.0;" x1="261" x2="879" y1="238.7188" y2="238.7188"/><rect fill="#EEEEEE" height="19.0938" rx="5" ry="5" style="stroke:#000000;stroke-width:2.5;" width="52" x="9.5" y="246.7188"/><text fill="#000000" font-family="sans-serif" font-size="12" lengthAdjust="spacing" textLength="40" x="15.5" y="261.1758">Fermer</text><rect fill="#EEEEEE" height="19.0938" rx="5" ry="5" style="stroke:#000000;stroke-width:2.5;" width="92" x="68.5" y="246.7188"/><text fill="#000000" font-family="sans-serif" font-size="12" lengthAdjust="spacing" textLength="70" x="79.5" y="261.1758">Sauvegarder</text></g></svg>