<?xml version="1.0" encoding="us-ascii" standalone="no"?><svg xmlns="http://www.w3.org/2000/svg" xmlns:xlink="http://www.w3.org/1999/xlink" contentStyleType="text/css" height="317px" preserveAspectRatio="none" style="width:506px;height:317px;background:#FFFFFF;" version="1.1" viewBox="0 0 506 317" width="506px" zoomAndPan="magnify"><defs><filter height="1" id="b1h5yuwzb2pgvz0" width="1" x="0" y="0"><feFlood flood-color="#DDDDDD" result="flood"/><feComposite in="SourceGraphic" in2="flood" operator="over"/></filter></defs><g><text fill="#000000" font-family="sans-serif" font-size="12" lengthAdjust="spacing" textLength="39" x="8" y="18.9492">D&#233;tails</text><line style="stroke:#000000;stroke-width:1.0;" x1="6" x2="6" y1="6" y2="21.9609"/><line style="stroke:#000000;stroke-width:1.0;" x1="6" x2="50" y1="6" y2="6"/><line style="stroke:#000000;stroke-width:1.0;" x1="50" x2="50" y1="6" y2="21.9609"/><line style="stroke:#000000;stroke-width:1.0;" x1="50" x2="60" y1="21.9609" y2="21.9609"/><text fill="#000000" font-family="sans-serif" font-size="12" font-weight="bold" lengthAdjust="spacing" textLength="45" x="65" y="18.9492">Capture</text><line style="stroke:#000000;stroke-width:1.0;" x1="60" x2="60" y1="6" y2="21.9609"/><line style="stroke:#000000;stroke-width:1.0;" x1="60" x2="113" y1="6" y2="6"/><line style="stroke:#000000;stroke-width:1.0;" x1="113" x2="113" y1="6" y2="21.9609"/><line style="stroke:#000000;stroke-width:1.0;" x1="113" x2="123" y1="21.9609" y2="21.9609"/><text fill="#000000" filter="url(#b1h5yuwzb2pgvz0)" font-family="sans-serif" font-size="12" lengthAdjust="spacing" textLength="44" x="17" y="37.9102">Capture</text><text fill="#0000FF" font-family="sans-serif" font-size="12" font-style="italic" lengthAdjust="spacing" textLength="41" x="199" y="37.9102">[200kg]</text><text fill="#000000" font-family="sans-serif" font-size="12" lengthAdjust="spacing" textLength="77" x="27" y="53.8711">Partie retenue</text><text fill="#000000" font-family="sans-serif" font-size="12" lengthAdjust="spacing" textLength="68" x="199" y="53.8711">[185kg] (1/2)</text><text fill="#000000" font-family="sans-serif" font-size="12" lengthAdjust="spacing" textLength="31" x="37" y="69.832">Appat</text><text fill="#0000FF" font-family="sans-serif" font-size="12" font-style="italic" lengthAdjust="spacing" textLength="34" x="199" y="69.832">[10kg]</text><text fill="#000000" font-family="sans-serif" font-size="12" lengthAdjust="spacing" textLength="138" x="37" y="85.793">Consommation humaine</text><text fill="#0000FF" font-family="sans-serif" font-size="12" font-style="italic" lengthAdjust="spacing" textLength="34" x="199" y="85.793">[40kg]</text><text fill="#000000" font-family="sans-serif" font-size="12" lengthAdjust="spacing" textLength="46" x="37" y="101.7539">Godaille</text><text fill="#0000FF" font-family="sans-serif" font-size="12" font-style="italic" lengthAdjust="spacing" textLength="34" x="199" y="101.7539">[10kg]</text><text fill="#000000" font-family="sans-serif" font-size="12" lengthAdjust="spacing" textLength="48" x="37" y="117.7148">Industrie</text><text fill="#0000FF" font-family="sans-serif" font-size="12" font-style="italic" lengthAdjust="spacing" textLength="34" x="199" y="117.7148">[75kg]</text><text fill="#000000" font-family="sans-serif" font-size="12" lengthAdjust="spacing" textLength="126" x="37" y="133.6758">Obligation &#224; d&#233;barquer</text><text fill="#0000FF" font-family="sans-serif" font-size="12" font-style="italic" lengthAdjust="spacing" textLength="34" x="199" y="133.6758">[50kg]</text><text fill="#000000" font-family="sans-serif" font-size="12" lengthAdjust="spacing" textLength="131" x="27" y="149.6367">Partie non retenue, Vrac</text><text fill="#000000" font-family="sans-serif" font-size="12" lengthAdjust="spacing" textLength="33" x="199" y="149.6367">[10kg]</text><text fill="#000000" font-family="sans-serif" font-size="12" lengthAdjust="spacing" textLength="162" x="27" y="165.5977">Partie non retenue, Hors-Vrac</text><text fill="#000000" font-family="sans-serif" font-size="12" lengthAdjust="spacing" textLength="26" x="199" y="165.5977">[5kg]</text><rect fill="none" height="2" style="stroke:#888888;stroke-width:1.0;" width="2" x="10" y="31.9414"/><rect fill="none" height="2" style="stroke:#888888;stroke-width:1.0;" width="2" x="20" y="47.9023"/><line style="stroke:#888888;stroke-width:1.0;" x1="11" x2="11" y1="34.9414" y2="48.9023"/><line style="stroke:#888888;stroke-width:1.0;" x1="11" x2="19" y1="48.9023" y2="48.9023"/><line style="stroke:#888888;stroke-width:1.0;" x1="21" x2="21" y1="50.9023" y2="64.8633"/><line style="stroke:#888888;stroke-width:1.0;" x1="21" x2="29" y1="64.8633" y2="64.8633"/><line style="stroke:#888888;stroke-width:1.0;" x1="21" x2="21" y1="50.9023" y2="80.8242"/><line style="stroke:#888888;stroke-width:1.0;" x1="21" x2="29" y1="80.8242" y2="80.8242"/><line style="stroke:#888888;stroke-width:1.0;" x1="21" x2="21" y1="50.9023" y2="96.7852"/><line style="stroke:#888888;stroke-width:1.0;" x1="21" x2="29" y1="96.7852" y2="96.7852"/><line style="stroke:#888888;stroke-width:1.0;" x1="21" x2="21" y1="50.9023" y2="112.7461"/><line style="stroke:#888888;stroke-width:1.0;" x1="21" x2="29" y1="112.7461" y2="112.7461"/><line style="stroke:#888888;stroke-width:1.0;" x1="21" x2="21" y1="50.9023" y2="128.707"/><line style="stroke:#888888;stroke-width:1.0;" x1="21" x2="29" y1="128.707" y2="128.707"/><line style="stroke:#888888;stroke-width:1.0;" x1="11" x2="11" y1="34.9414" y2="144.668"/><line style="stroke:#888888;stroke-width:1.0;" x1="11" x2="19" y1="144.668" y2="144.668"/><line style="stroke:#888888;stroke-width:1.0;" x1="11" x2="11" y1="34.9414" y2="160.6289"/><line style="stroke:#888888;stroke-width:1.0;" x1="11" x2="19" y1="160.6289" y2="160.6289"/><line style="stroke:#AAAAAA;stroke-width:1.0;" x1="7" x2="270" y1="245.9531" y2="245.9531"/><rect fill="#EEEEEE" height="19.9609" rx="5" ry="5" style="stroke:#000000;stroke-width:2.5;" width="100" x="10.5" y="253.9531"/><text fill="#000000" font-family="sans-serif" font-size="12" lengthAdjust="spacing" textLength="51" x="36.5" y="268.9023">Contr&#244;ler</text><rect fill="#EEEEEE" height="19.9609" rx="5" ry="5" style="stroke:#000000;stroke-width:2.5;" width="36" x="117.5" y="253.9531"/><text fill="#000000" font-family="sans-serif" font-size="12" font-weight="bold" lengthAdjust="spacing" textLength="14" x="128.5" y="268.9023">&lt;&lt;</text><line style="stroke:#000000;stroke-width:1.0;" x1="6" x2="270" y1="23.9609" y2="23.9609"/><line style="stroke:#000000;stroke-width:1.0;" x1="6" x2="270" y1="278.4141" y2="278.4141"/><line style="stroke:#000000;stroke-width:1.0;" x1="6" x2="6" y1="23.9609" y2="169.6094"/><line style="stroke:#000000;stroke-width:1.0;" x1="270" x2="270" y1="23.9609" y2="169.6094"/><line style="stroke:#000000;stroke-width:1.0;" x1="6" x2="6" y1="241.4531" y2="249.4531"/><line style="stroke:#000000;stroke-width:1.0;" x1="270" x2="270" y1="241.4531" y2="249.4531"/><line style="stroke:#000000;stroke-width:1.0;" x1="6" x2="6" y1="205.5313" y2="223.4922"/><line style="stroke:#000000;stroke-width:1.0;" x1="270" x2="270" y1="205.5313" y2="223.4922"/><line style="stroke:#000000;stroke-width:1.0;" x1="6" x2="6" y1="169.6094" y2="187.5703"/><line style="stroke:#000000;stroke-width:1.0;" x1="270" x2="270" y1="169.6094" y2="187.5703"/><line style="stroke:#000000;stroke-width:1.0;" x1="6" x2="6" y1="249.4531" y2="278.4141"/><line style="stroke:#000000;stroke-width:1.0;" x1="270" x2="270" y1="249.4531" y2="278.4141"/><line style="stroke:#000000;stroke-width:1.0;" x1="6" x2="6" y1="223.4922" y2="241.4531"/><line style="stroke:#000000;stroke-width:1.0;" x1="270" x2="270" y1="223.4922" y2="241.4531"/><line style="stroke:#000000;stroke-width:1.0;" x1="6" x2="6" y1="187.5703" y2="205.5313"/><line style="stroke:#000000;stroke-width:1.0;" x1="270" x2="270" y1="187.5703" y2="205.5313"/><rect fill="#EEEEEE" height="19.9609" rx="5" ry="5" style="stroke:#000000;stroke-width:2.5;" width="60" x="288.5" y="28.4609"/><text fill="#000000" font-family="sans-serif" font-size="12" font-weight="bold" lengthAdjust="spacing" textLength="45" x="296" y="43.4102">Capture</text><text fill="#000000" font-family="sans-serif" font-size="12" lengthAdjust="spacing" textLength="3" x="353" y="38.9102">/</text><rect fill="#EEEEEE" height="19.9609" rx="5" ry="5" style="stroke:#000000;stroke-width:2.5;" width="28" x="360.5" y="28.4609"/><text fill="#000000" font-family="sans-serif" font-size="12" lengthAdjust="spacing" textLength="9" x="370" y="43.4102">...</text><rect fill="#EEEEEE" height="12" rx="5" ry="5" style="stroke:#000000;stroke-width:2.5;" width="20" x="440.5" y="28.4609"/><path d="M450.5,30.4609 L446.5,34.4609 L450.5,38.4609 L452,36.9609 L449.5,34.4609 L452,31.9609 L450.5,30.4609 " fill="#000000" style="stroke:;stroke-width:0.0;stroke-dasharray:;"/><rect fill="#EEEEEE" height="12" rx="5" ry="5" style="stroke:#000000;stroke-width:2.5;" width="20" x="467.5" y="28.4609"/><path d="M475,30.4609 L473.5,31.9609 L476,34.4609 L473.5,36.9609 L475,38.4609 L479,34.4609 L475,30.4609 " fill="#000000" style="stroke:;stroke-width:0.0;stroke-dasharray:;"/><text fill="#000000" font-family="sans-serif" font-size="12" lengthAdjust="spacing" textLength="60" x="306" y="67.8711">Coup nul ?</text><rect fill="none" height="10" style="stroke:#000000;stroke-width:1.5;" width="10" x="288" y="57.9023"/><text fill="#000000" font-family="sans-serif" font-size="12" lengthAdjust="spacing" textLength="170" x="286" y="87.832">Capture (toutes esp&#232;ces) (kg) :</text><text fill="#0000FF" font-family="sans-serif" font-size="12" font-style="italic" lengthAdjust="spacing" textLength="21" x="461" y="87.832">200</text><line style="stroke:#000000;stroke-width:1.0;" x1="459" x2="494" y1="90.8438" y2="90.8438"/><line style="stroke:#000000;stroke-width:1.0;" x1="459" x2="459" y1="87.8438" y2="89.8438"/><line style="stroke:#000000;stroke-width:1.0;" x1="494" x2="494" y1="87.8438" y2="89.8438"/><line style="stroke:#AAAAAA;stroke-width:1.0;" x1="6" x2="271" y1="283.9141" y2="283.9141"/><line style="stroke:#AAAAAA;stroke-width:1.0;" x1="272" x2="283" y1="283.9141" y2="283.9141"/><line style="stroke:#AAAAAA;stroke-width:1.0;" x1="284" x2="499" y1="283.9141" y2="283.9141"/><rect fill="#EEEEEE" height="19.9609" rx="5" ry="5" style="stroke:#000000;stroke-width:2.5;" width="52" x="9.5" y="291.9141"/><text fill="#000000" font-family="sans-serif" font-size="12" lengthAdjust="spacing" textLength="40" x="15.5" y="306.8633">Fermer</text><rect fill="#EEEEEE" height="19.9609" rx="5" ry="5" style="stroke:#000000;stroke-width:2.5;" width="92" x="68.5" y="291.9141"/><text fill="#000000" font-family="sans-serif" font-size="12" lengthAdjust="spacing" textLength="70" x="79.5" y="306.8633">Sauvegarder</text><!--SRC=[ZLFTRjem5BxtKnnrqWHY2IIKReeGwmPjDmOgAXsxG5oOv10i4YTrRAI9vLrskTxl3NYnsK2WOrIh9Hyhnz_tdH-VN6QI2fdHI98L0LXLeRD-b9H56Vo0vhG5RPfA9H1oSrlHHX_tcsEpAXf4_ONtgjFfj0fiiRG2QpNz94g4DuqKjiPkhRO89q_e5HZe-0n1e4IkSCySE-yQ6Webf-gMoHvUWGzfIkK9QUUfiW6s4vubSKmbIpZCLKmPnnEyysFUJHBe-YDyIOpFF52P5EmK-6tZ27mxZLYuJMVz4uBruvIA1uNYNshZkIvnpTrrwWsC1FKFxNeHvLCYCcl3qvHzVld6sizOozg-UY4-Rhxsv-WlOYeMBTDbATQ_8nGJesbcfjc4WswklRRUAs9SAysU5dDY25L3icrxiaNzRszZBqN2hGXdiZNvsoTOE3VEd1J9hiOmqJcg5BYAuFskL7DH36j99afY1fYbwry-PcKeBS8oU5hvxFXXzFYURQio0InBOtQ6R6gxHX7l6Z6aQeaX5O7vpabEBf47c_-C32BAvTT-3vOeCZCDZktMtBhjEALl6C0GKt3guDOyzyAhrw5zDRm70oYJqisW1rcYX8yGC3DuKsNcgKowT4dXJd79OlJWDaNUxNmf7735bqpt9qOkINVKFm0kpgsFJEgGGkS2epxfu8ogI6g6dmICXnwqKyTjkAH7UQXegCLdWkY6wbV_xi7rtHy0]--></g></svg>