<?xml version="1.0" encoding="us-ascii" standalone="no"?><svg xmlns="http://www.w3.org/2000/svg" xmlns:xlink="http://www.w3.org/1999/xlink" contentStyleType="text/css" height="267px" preserveAspectRatio="none" style="width:697px;height:267px;background:#FFFFFF;" version="1.1" viewBox="0 0 697 267" width="697px" zoomAndPan="magnify"><defs><filter height="1" id="b16zg7cx10cmcl0" width="1" x="0" y="0"><feFlood flood-color="#DDDDDD" result="flood"/><feComposite in="SourceGraphic" in2="flood" operator="over"/></filter></defs><g><text fill="#000000" font-family="sans-serif" font-size="12" lengthAdjust="spacing" textLength="39" x="8" y="18.9492">D&#233;tails</text><line style="stroke:#000000;stroke-width:1.0;" x1="6" x2="6" y1="6" y2="21.9609"/><line style="stroke:#000000;stroke-width:1.0;" x1="6" x2="50" y1="6" y2="6"/><line style="stroke:#000000;stroke-width:1.0;" x1="50" x2="50" y1="6" y2="21.9609"/><line style="stroke:#000000;stroke-width:1.0;" x1="50" x2="60" y1="21.9609" y2="21.9609"/><text fill="#000000" font-family="sans-serif" font-size="12" font-weight="bold" lengthAdjust="spacing" textLength="45" x="65" y="18.9492">Capture</text><line style="stroke:#000000;stroke-width:1.0;" x1="60" x2="60" y1="6" y2="21.9609"/><line style="stroke:#000000;stroke-width:1.0;" x1="60" x2="113" y1="6" y2="6"/><line style="stroke:#000000;stroke-width:1.0;" x1="113" x2="113" y1="6" y2="21.9609"/><line style="stroke:#000000;stroke-width:1.0;" x1="113" x2="123" y1="21.9609" y2="21.9609"/><text fill="#000000" font-family="sans-serif" font-size="12" lengthAdjust="spacing" textLength="44" x="17" y="37.9102">Capture</text><text fill="#000000" font-family="sans-serif" font-size="12" lengthAdjust="spacing" textLength="77" x="27" y="53.8711">Partie retenue</text><text fill="#000000" filter="url(#b16zg7cx10cmcl0)" font-family="sans-serif" font-size="12" lengthAdjust="spacing" textLength="131" x="27" y="69.832">Partie non retenue, Vrac</text><text fill="#000000" font-family="sans-serif" font-size="12" lengthAdjust="spacing" textLength="42" x="37" y="85.793">D&#233;taill&#233;</text><text fill="#000000" font-family="sans-serif" font-size="12" lengthAdjust="spacing" textLength="184" x="47" y="101.7539">Ecosyst&#232;mes Marins Vuln&#233;rables</text><text fill="#000000" font-family="sans-serif" font-size="12" lengthAdjust="spacing" textLength="13" x="241" y="101.7539">[0]</text><text fill="#000000" font-family="sans-serif" font-size="12" lengthAdjust="spacing" textLength="66" x="37" y="117.7148">Non d&#233;taill&#233;</text><text fill="#000000" font-family="sans-serif" font-size="12" lengthAdjust="spacing" textLength="13" x="241" y="117.7148">[0]</text><text fill="#000000" font-family="sans-serif" font-size="12" lengthAdjust="spacing" textLength="162" x="27" y="133.6758">Partie non retenue, Hors-Vrac</text><rect fill="none" height="2" style="stroke:#888888;stroke-width:1.0;" width="2" x="10" y="31.9414"/><line style="stroke:#888888;stroke-width:1.0;" x1="11" x2="11" y1="34.9414" y2="48.9023"/><line style="stroke:#888888;stroke-width:1.0;" x1="11" x2="19" y1="48.9023" y2="48.9023"/><rect fill="none" height="2" style="stroke:#888888;stroke-width:1.0;" width="2" x="20" y="63.8633"/><line style="stroke:#888888;stroke-width:1.0;" x1="11" x2="11" y1="34.9414" y2="64.8633"/><line style="stroke:#888888;stroke-width:1.0;" x1="11" x2="19" y1="64.8633" y2="64.8633"/><rect fill="none" height="2" style="stroke:#888888;stroke-width:1.0;" width="2" x="30" y="79.8242"/><line style="stroke:#888888;stroke-width:1.0;" x1="21" x2="21" y1="66.8633" y2="80.8242"/><line style="stroke:#888888;stroke-width:1.0;" x1="21" x2="29" y1="80.8242" y2="80.8242"/><line style="stroke:#888888;stroke-width:1.0;" x1="31" x2="31" y1="82.8242" y2="96.7852"/><line style="stroke:#888888;stroke-width:1.0;" x1="31" x2="39" y1="96.7852" y2="96.7852"/><line style="stroke:#888888;stroke-width:1.0;" x1="21" x2="21" y1="66.8633" y2="112.7461"/><line style="stroke:#888888;stroke-width:1.0;" x1="21" x2="29" y1="112.7461" y2="112.7461"/><line style="stroke:#888888;stroke-width:1.0;" x1="11" x2="11" y1="34.9414" y2="128.707"/><line style="stroke:#888888;stroke-width:1.0;" x1="11" x2="19" y1="128.707" y2="128.707"/><line style="stroke:#AAAAAA;stroke-width:1.0;" x1="7" x2="257" y1="196.0703" y2="196.0703"/><rect fill="#EEEEEE" height="19.9609" rx="5" ry="5" style="stroke:#000000;stroke-width:2.5;" width="100" x="10.5" y="204.0703"/><text fill="#000000" font-family="sans-serif" font-size="12" lengthAdjust="spacing" textLength="51" x="36.5" y="219.0195">Contr&#244;ler</text><rect fill="#EEEEEE" height="19.9609" rx="5" ry="5" style="stroke:#000000;stroke-width:2.5;" width="36" x="117.5" y="204.0703"/><text fill="#000000" font-family="sans-serif" font-size="12" font-weight="bold" lengthAdjust="spacing" textLength="14" x="128.5" y="219.0195">&lt;&lt;</text><line style="stroke:#000000;stroke-width:1.0;" x1="6" x2="257" y1="23.9609" y2="23.9609"/><line style="stroke:#000000;stroke-width:1.0;" x1="6" x2="257" y1="228.5313" y2="228.5313"/><line style="stroke:#000000;stroke-width:1.0;" x1="6" x2="6" y1="23.9609" y2="137.6875"/><line style="stroke:#000000;stroke-width:1.0;" x1="257" x2="257" y1="137.6875" y2="155.6484"/><line style="stroke:#000000;stroke-width:1.0;" x1="257" x2="257" y1="23.9609" y2="137.6875"/><line style="stroke:#000000;stroke-width:1.0;" x1="6" x2="6" y1="199.5703" y2="228.5313"/><line style="stroke:#000000;stroke-width:1.0;" x1="6" x2="6" y1="191.5703" y2="199.5703"/><line style="stroke:#000000;stroke-width:1.0;" x1="257" x2="257" y1="199.5703" y2="228.5313"/><line style="stroke:#000000;stroke-width:1.0;" x1="6" x2="6" y1="173.6094" y2="191.5703"/><line style="stroke:#000000;stroke-width:1.0;" x1="257" x2="257" y1="191.5703" y2="199.5703"/><line style="stroke:#000000;stroke-width:1.0;" x1="6" x2="6" y1="155.6484" y2="173.6094"/><line style="stroke:#000000;stroke-width:1.0;" x1="257" x2="257" y1="173.6094" y2="191.5703"/><line style="stroke:#000000;stroke-width:1.0;" x1="6" x2="6" y1="137.6875" y2="155.6484"/><line style="stroke:#000000;stroke-width:1.0;" x1="257" x2="257" y1="155.6484" y2="173.6094"/><rect fill="#EEEEEE" height="19.9609" rx="5" ry="5" style="stroke:#000000;stroke-width:2.5;" width="60" x="275.5" y="28.4609"/><text fill="#000000" font-family="sans-serif" font-size="12" lengthAdjust="spacing" textLength="44" x="283.5" y="43.4102">Capture</text><text fill="#000000" font-family="sans-serif" font-size="12" lengthAdjust="spacing" textLength="3" x="340" y="38.9102">/</text><rect fill="#EEEEEE" height="19.9609" rx="5" ry="5" style="stroke:#000000;stroke-width:2.5;" width="196" x="347.5" y="28.4609"/><text fill="#000000" font-family="sans-serif" font-size="12" font-weight="bold" lengthAdjust="spacing" textLength="138" x="376.5" y="43.4102">Partie non retenue, Vrac</text><rect fill="#EEEEEE" height="12" rx="5" ry="5" style="stroke:#000000;stroke-width:2.5;" width="20" x="636.5" y="29.4609"/><path d="M646.5,31.4609 L642.5,35.4609 L646.5,39.4609 L648,37.9609 L645.5,35.4609 L648,32.9609 L646.5,31.4609 " fill="#000000" style="stroke:;stroke-width:0.0;stroke-dasharray:;"/><rect fill="#EEEEEE" height="12" rx="5" ry="5" style="stroke:#000000;stroke-width:2.5;" width="20" x="663.5" y="29.4609"/><path d="M671,31.4609 L669.5,32.9609 L672,35.4609 L669.5,37.9609 L671,39.4609 L675,35.4609 L671,31.4609 " fill="#000000" style="stroke:;stroke-width:0.0;stroke-dasharray:;"/><text fill="#000000" font-family="sans-serif" font-size="12" lengthAdjust="spacing" textLength="93" x="273" y="67.8711">Poids total (kg)* :</text><text fill="#000000" font-family="sans-serif" font-size="12" lengthAdjust="spacing" textLength="7" x="371" y="67.8711">0</text><line style="stroke:#000000;stroke-width:1.0;" x1="369" x2="420" y1="70.8828" y2="70.8828"/><line style="stroke:#000000;stroke-width:1.0;" x1="369" x2="369" y1="67.8828" y2="69.8828"/><line style="stroke:#000000;stroke-width:1.0;" x1="420" x2="420" y1="67.8828" y2="69.8828"/><text fill="#000000" font-family="sans-serif" font-size="12" lengthAdjust="spacing" textLength="61" x="273" y="89.832">Coef. &#233;ch. :</text><text fill="#000000" font-family="sans-serif" font-size="12" lengthAdjust="spacing" textLength="17" x="339" y="89.832">1/1</text><line style="stroke:#000000;stroke-width:1.0;" x1="337" x2="404" y1="92.8438" y2="92.8438"/><line style="stroke:#000000;stroke-width:1.0;" x1="337" x2="337" y1="89.8438" y2="91.8438"/><line style="stroke:#000000;stroke-width:1.0;" x1="404" x2="404" y1="89.8438" y2="91.8438"/><text fill="#000000" font-family="sans-serif" font-size="12" lengthAdjust="spacing" textLength="107" x="433" y="89.832">Poids &#233;chant (kg)* :</text><text fill="#000000" font-family="sans-serif" font-size="12" lengthAdjust="spacing" textLength="3" x="545" y="89.832">&#160;</text><line style="stroke:#000000;stroke-width:1.0;" x1="543" x2="586" y1="92.8438" y2="92.8438"/><line style="stroke:#000000;stroke-width:1.0;" x1="543" x2="543" y1="89.8438" y2="91.8438"/><line style="stroke:#000000;stroke-width:1.0;" x1="586" x2="586" y1="89.8438" y2="91.8438"/><line style="stroke:#AAAAAA;stroke-width:1.0;" x1="6" x2="258" y1="234.0313" y2="234.0313"/><line style="stroke:#AAAAAA;stroke-width:1.0;" x1="259" x2="270" y1="234.0313" y2="234.0313"/><line style="stroke:#AAAAAA;stroke-width:1.0;" x1="271" x2="690" y1="234.0313" y2="234.0313"/><rect fill="#EEEEEE" height="19.9609" rx="5" ry="5" style="stroke:#000000;stroke-width:2.5;" width="52" x="9.5" y="242.0313"/><text fill="#000000" font-family="sans-serif" font-size="12" lengthAdjust="spacing" textLength="40" x="15.5" y="256.9805">Fermer</text><rect fill="#EEEEEE" height="19.9609" rx="5" ry="5" style="stroke:#000000;stroke-width:2.5;" width="92" x="68.5" y="242.0313"/><text fill="#000000" font-family="sans-serif" font-size="12" lengthAdjust="spacing" textLength="70" x="79.5" y="256.9805">Sauvegarder</text><!--SRC=[jLF1Zjem4BtxAqPRgOAb2IIqUuWGMfMmhLXeqRAb1yJ192PO61lP3jAAvd_AVVyWFrOx942hTYzj8tcapBptvdackLKQIwqmqsYF0FPD2FE3nfGf-0QTHHTwUAjJII2prOO9i7-qqJwDgdfAD61iv2W1IJJXwMMXiy3HEdWLXc6tn731AzmRc4eSdT6DoWRB3nVP1lGZePwKphzlY88HbfGhcAQCvmU95umKhYF1X0mMpFJhpbhpIzLFfcLyKduH3Bzp-L58vLHMimBi_XeTfvXIgJJhl8vM95fli5oRQGgkPVxCY9oRvZCxuKu7vfLQPfAkEKVo7cRbV2suQGa6_wVXpKlktvvzQNad1NSOMUfkOVMSapHPsMHcB1zzZWMD5MYXCOFQEgbVGs0eLz2orQj_vEj_dDCDUe8iNSWFqSejlNjDxoNtSBopPM2kVxhraMQK2scxLiSnXJAWOgztH6xARs22qnr9i8pjUuOoT4juNFoGQCoCzfVH47P4AceMxhb-os-xdbVxIcAOa2ruRV1RWNyJjDlGwqyUmGBggFPXF0GbKXaHYAdIaYvIRHJgQ81t61vIhkc61F1vI_WWlAyIqESxQdQy8LoZmNHq1joyTTvJRLfAumMc8nII9KwPDen8n9Gd0VIsdl_EHqFCanGdHdmfKKyOOVaKmDt33m00]--></g></svg>