<svg xmlns="http://www.w3.org/2000/svg" xmlns:xlink="http://www.w3.org/1999/xlink" contentStyleType="text/css" height="867px" preserveAspectRatio="none" style="width:989px;height:867px;background:#FFFFFF;" version="1.1" viewBox="0 0 989 867" width="989px" zoomAndPan="magnify"><defs/><g><!--cluster referential--><g id="cluster_referential"><path d="M8.5,332 L84.7217,332 A3.75,3.75 0 0 1 87.2217,334.5 L94.2217,357.0679 L850.5,357.0679 A2.5,2.5 0 0 1 853,359.5679 L853,857.5 A2.5,2.5 0 0 1 850.5,860 L8.5,860 A2.5,2.5 0 0 1 6,857.5 L6,334.5 A2.5,2.5 0 0 1 8.5,332 " fill="#DDDDDD" style="stroke:#000000;stroke-width:1.5;"/><line style="stroke:#000000;stroke-width:1.5;" x1="6" x2="94.2217" y1="357.0679" y2="357.0679"/><text fill="#000000" font-family="sans-serif" font-size="14" font-weight="bold" lengthAdjust="spacing" textLength="75.2217" x="10" y="348.9659">referential</text></g><!--cluster location--><g id="cluster_location"><path d="M32.5,420 L90.2978,420 A3.75,3.75 0 0 1 92.7978,422.5 L99.7978,445.0679 L513.5,445.0679 A2.5,2.5 0 0 1 516,447.5679 L516,503.5 A2.5,2.5 0 0 1 513.5,506 L32.5,506 A2.5,2.5 0 0 1 30,503.5 L30,422.5 A2.5,2.5 0 0 1 32.5,420 " fill="none" style="stroke:#000000;stroke-width:1.5;"/><line style="stroke:#000000;stroke-width:1.5;" x1="30" x2="99.7978" y1="445.0679" y2="445.0679"/><text fill="#000000" font-family="sans-serif" font-size="14" font-weight="bold" lengthAdjust="spacing" textLength="56.7978" x="34" y="436.9659">location</text></g><!--cluster spatial--><g id="cluster_spatial"><path d="M627.5,378 L675.8478,378 A3.75,3.75 0 0 1 678.3478,380.5 L685.3478,403.0679 L826.5,403.0679 A2.5,2.5 0 0 1 829,405.5679 L829,771.5 A2.5,2.5 0 0 1 826.5,774 L627.5,774 A2.5,2.5 0 0 1 625,771.5 L625,380.5 A2.5,2.5 0 0 1 627.5,378 " fill="none" style="stroke:#000000;stroke-width:1.5;"/><line style="stroke:#000000;stroke-width:1.5;" x1="625" x2="685.3478" y1="403.0679" y2="403.0679"/><text fill="#000000" font-family="sans-serif" font-size="14" font-weight="bold" lengthAdjust="spacing" textLength="47.3478" x="629" y="394.9659">spatial</text></g><!--class Status--><g id="elem_Status"><rect codeLine="24" fill="#F1F1F1" height="32" id="Status" rx="2.5" ry="2.5" style="stroke:#181818;stroke-width:0.5;" width="73.0059" x="535.5" y="458"/><ellipse cx="550.5" cy="474" fill="#ADD1B2" rx="11" ry="11" style="stroke:#181818;stroke-width:1.0;"/><path d="M549.9688,480.9219 Q548.2188,480.9219 547.0781,480.1875 Q545.9531,479.4375 545.3906,478.0938 Q544.8438,476.7344 544.8438,474.9375 Q544.8438,472.9063 545.5,471.4531 Q546.1563,470 547.4375,469.2188 Q548.7188,468.4375 550.5938,468.4375 Q551.4844,468.4375 552.1563,468.625 Q552.8281,468.7969 553.5156,469.1406 L552.7031,471.1563 Q552.0781,470.8438 551.5313,470.7188 Q551,470.5938 550.5156,470.5938 Q549.3438,470.5938 548.6406,471.125 Q547.9375,471.6563 547.6406,472.6094 Q547.3438,473.5625 547.3438,474.8281 Q547.3438,476.8438 548.0625,477.8125 Q548.7813,478.7656 550.375,478.7656 Q550.9688,478.7656 551.5938,478.6094 Q552.2188,478.4531 553.0469,478.0781 L553.0469,480.2969 Q552.3125,480.6094 551.5156,480.7656 Q550.7344,480.9219 549.9688,480.9219 Z " fill="#000000"/><text fill="#000000" font-family="sans-serif" font-size="14" lengthAdjust="spacing" textLength="41.0059" x="564.5" y="479.432">Status</text></g><g id="elem_AnyReferentialItem"><rect fill="#F1F1F1" height="23.0679" style="stroke:#181818;stroke-width:0.5;" width="141.3015" x="656.5" y="821"/><text fill="#000000" font-family="sans-serif" font-size="14" lengthAdjust="spacing" textLength="127.3015" x="663.5" y="837.9659">AnyReferentialItem</text></g><g id="elem_GMN24"><path d="M43.5,593 L43.5,638.412 A0,0 0 0 0 43.5,638.412 L222.6451,638.412 A0,0 0 0 0 222.6451,638.412 L222.6451,603 L212.6451,593 L137,593 L133,490.19 L129,593 L43.5,593 A0,0 0 0 0 43.5,593 " fill="#FEFFDD" style="stroke:#181818;stroke-width:0.5;"/><path d="M212.6451,593 L212.6451,603 L222.6451,603 L212.6451,593 " fill="#FEFFDD" style="stroke:#181818;stroke-width:0.5;"/><text fill="#000000" font-family="sans-serif" font-size="13" lengthAdjust="spacing" textLength="129.2201" x="49.5" y="611.897">Permet de distinguer</text><text fill="#000000" font-family="sans-serif" font-size="13" lengthAdjust="spacing" textLength="158.1451" x="49.5" y="629.603">lieux terrestres et en mer.</text></g><!--class LocationClassification--><g id="elem_LocationClassification"><rect codeLine="29" fill="#F1F1F1" height="32" id="LocationClassification" rx="2.5" ry="2.5" style="stroke:#181818;stroke-width:0.5;" width="174.2955" x="46" y="458"/><ellipse cx="61" cy="474" fill="#ADD1B2" rx="11" ry="11" style="stroke:#181818;stroke-width:1.0;"/><path d="M60.4688,480.9219 Q58.7188,480.9219 57.5781,480.1875 Q56.4531,479.4375 55.8906,478.0938 Q55.3438,476.7344 55.3438,474.9375 Q55.3438,472.9063 56,471.4531 Q56.6563,470 57.9375,469.2188 Q59.2188,468.4375 61.0938,468.4375 Q61.9844,468.4375 62.6563,468.625 Q63.3281,468.7969 64.0156,469.1406 L63.2031,471.1563 Q62.5781,470.8438 62.0313,470.7188 Q61.5,470.5938 61.0156,470.5938 Q59.8438,470.5938 59.1406,471.125 Q58.4375,471.6563 58.1406,472.6094 Q57.8438,473.5625 57.8438,474.8281 Q57.8438,476.8438 58.5625,477.8125 Q59.2813,478.7656 60.875,478.7656 Q61.4688,478.7656 62.0938,478.6094 Q62.7188,478.4531 63.5469,478.0781 L63.5469,480.2969 Q62.8125,480.6094 62.0156,480.7656 Q61.2344,480.9219 60.4688,480.9219 Z " fill="#000000"/><text fill="#000000" font-family="sans-serif" font-size="14" lengthAdjust="spacing" textLength="142.2955" x="75" y="479.432">LocationClassification</text></g><!--class Location--><g id="elem_Location"><rect codeLine="30" fill="#F1F1F1" height="32" id="Location" rx="2.5" ry="2.5" style="stroke:#181818;stroke-width:0.5;" width="88.1678" x="255" y="458"/><ellipse cx="270" cy="474" fill="#ADD1B2" rx="11" ry="11" style="stroke:#181818;stroke-width:1.0;"/><path d="M269.4688,480.9219 Q267.7188,480.9219 266.5781,480.1875 Q265.4531,479.4375 264.8906,478.0938 Q264.3438,476.7344 264.3438,474.9375 Q264.3438,472.9063 265,471.4531 Q265.6563,470 266.9375,469.2188 Q268.2188,468.4375 270.0938,468.4375 Q270.9844,468.4375 271.6563,468.625 Q272.3281,468.7969 273.0156,469.1406 L272.2031,471.1563 Q271.5781,470.8438 271.0313,470.7188 Q270.5,470.5938 270.0156,470.5938 Q268.8438,470.5938 268.1406,471.125 Q267.4375,471.6563 267.1406,472.6094 Q266.8438,473.5625 266.8438,474.8281 Q266.8438,476.8438 267.5625,477.8125 Q268.2813,478.7656 269.875,478.7656 Q270.4688,478.7656 271.0938,478.6094 Q271.7188,478.4531 272.5469,478.0781 L272.5469,480.2969 Q271.8125,480.6094 271.0156,480.7656 Q270.2344,480.9219 269.4688,480.9219 Z " fill="#000000"/><text fill="#000000" font-family="sans-serif" font-size="14" lengthAdjust="spacing" textLength="56.1678" x="284" y="479.432">Location</text></g><!--class LocationLevel--><g id="elem_LocationLevel"><rect codeLine="31" fill="#F1F1F1" height="32" id="LocationLevel" rx="2.5" ry="2.5" style="stroke:#181818;stroke-width:0.5;" width="122.0196" x="378" y="458"/><ellipse cx="393" cy="474" fill="#ADD1B2" rx="11" ry="11" style="stroke:#181818;stroke-width:1.0;"/><path d="M392.4688,480.9219 Q390.7188,480.9219 389.5781,480.1875 Q388.4531,479.4375 387.8906,478.0938 Q387.3438,476.7344 387.3438,474.9375 Q387.3438,472.9063 388,471.4531 Q388.6563,470 389.9375,469.2188 Q391.2188,468.4375 393.0938,468.4375 Q393.9844,468.4375 394.6563,468.625 Q395.3281,468.7969 396.0156,469.1406 L395.2031,471.1563 Q394.5781,470.8438 394.0313,470.7188 Q393.5,470.5938 393.0156,470.5938 Q391.8438,470.5938 391.1406,471.125 Q390.4375,471.6563 390.1406,472.6094 Q389.8438,473.5625 389.8438,474.8281 Q389.8438,476.8438 390.5625,477.8125 Q391.2813,478.7656 392.875,478.7656 Q393.4688,478.7656 394.0938,478.6094 Q394.7188,478.4531 395.5469,478.0781 L395.5469,480.2969 Q394.8125,480.6094 394.0156,480.7656 Q393.2344,480.9219 392.4688,480.9219 Z " fill="#000000"/><text fill="#000000" font-family="sans-serif" font-size="14" lengthAdjust="spacing" textLength="90.0196" x="407" y="479.432">LocationLevel</text></g><!--class SpatialItemType--><g id="elem_SpatialItemType"><rect codeLine="41" fill="#F1F1F1" height="116.2717" id="SpatialItemType" rx="2.5" ry="2.5" style="stroke:#181818;stroke-width:0.5;" width="165.4394" x="644.5" y="416"/><ellipse cx="671.6238" cy="432" fill="#ADD1B2" rx="11" ry="11" style="stroke:#181818;stroke-width:1.0;"/><path d="M671.0926,438.9219 Q669.3426,438.9219 668.2019,438.1875 Q667.0769,437.4375 666.5144,436.0938 Q665.9676,434.7344 665.9676,432.9375 Q665.9676,430.9063 666.6238,429.4531 Q667.2801,428 668.5613,427.2188 Q669.8426,426.4375 671.7176,426.4375 Q672.6082,426.4375 673.2801,426.625 Q673.9519,426.7969 674.6394,427.1406 L673.8269,429.1563 Q673.2019,428.8438 672.6551,428.7188 Q672.1238,428.5938 671.6394,428.5938 Q670.4676,428.5938 669.7644,429.125 Q669.0613,429.6563 668.7644,430.6094 Q668.4676,431.5625 668.4676,432.8281 Q668.4676,434.8438 669.1863,435.8125 Q669.9051,436.7656 671.4988,436.7656 Q672.0926,436.7656 672.7176,436.6094 Q673.3426,436.4531 674.1707,436.0781 L674.1707,438.2969 Q673.4363,438.6094 672.6394,438.7656 Q671.8582,438.9219 671.0926,438.9219 Z " fill="#000000"/><text fill="#000000" font-family="sans-serif" font-size="14" lengthAdjust="spacing" textLength="106.4976" x="688.318" y="437.432">SpatialItemType</text><line style="stroke:#181818;stroke-width:0.5;" x1="645.5" x2="808.9394" y1="448" y2="448"/><text fill="#000000" font-family="sans-serif" font-size="14" lengthAdjust="spacing" textLength="67.1157" x="650.5" y="466.9659">id: integer</text><text fill="#000000" font-family="sans-serif" font-size="14" lengthAdjust="spacing" textLength="77.3917" x="650.5" y="486.0339">label: string</text><text fill="#000000" font-family="sans-serif" font-size="14" lengthAdjust="spacing" textLength="83.2997" x="650.5" y="505.1018">name: string</text><text fill="#000000" font-family="sans-serif" font-size="14" lengthAdjust="spacing" textLength="153.4394" x="650.5" y="524.1697">objectType: ObjectType</text></g><!--class SpatialItem2Location--><g id="elem_SpatialItem2Location"><rect codeLine="48" fill="#F1F1F1" height="32" id="SpatialItem2Location" rx="2.5" ry="2.5" style="stroke:#181818;stroke-width:0.5;" width="171.2435" x="641.5" y="599.5"/><ellipse cx="656.5" cy="615.5" fill="#ADD1B2" rx="11" ry="11" style="stroke:#181818;stroke-width:1.0;"/><path d="M655.9688,622.4219 Q654.2188,622.4219 653.0781,621.6875 Q651.9531,620.9375 651.3906,619.5938 Q650.8438,618.2344 650.8438,616.4375 Q650.8438,614.4063 651.5,612.9531 Q652.1563,611.5 653.4375,610.7188 Q654.7188,609.9375 656.5938,609.9375 Q657.4844,609.9375 658.1563,610.125 Q658.8281,610.2969 659.5156,610.6406 L658.7031,612.6563 Q658.0781,612.3438 657.5313,612.2188 Q657,612.0938 656.5156,612.0938 Q655.3438,612.0938 654.6406,612.625 Q653.9375,613.1563 653.6406,614.1094 Q653.3438,615.0625 653.3438,616.3281 Q653.3438,618.3438 654.0625,619.3125 Q654.7813,620.2656 656.375,620.2656 Q656.9688,620.2656 657.5938,620.1094 Q658.2188,619.9531 659.0469,619.5781 L659.0469,621.7969 Q658.3125,622.1094 657.5156,622.2656 Q656.7344,622.4219 655.9688,622.4219 Z " fill="#000000"/><text fill="#000000" font-family="sans-serif" font-size="14" lengthAdjust="spacing" textLength="139.2435" x="670.5" y="620.932">SpatialItem2Location</text></g><!--class SpatialItem--><g id="elem_SpatialItem"><rect codeLine="49" fill="#F1F1F1" height="59.0679" id="SpatialItem" rx="2.5" ry="2.5" style="stroke:#181818;stroke-width:0.5;" width="120.6116" x="666.5" y="699"/><ellipse cx="687.5947" cy="715" fill="#ADD1B2" rx="11" ry="11" style="stroke:#181818;stroke-width:1.0;"/><path d="M687.0635,721.9219 Q685.3135,721.9219 684.1729,721.1875 Q683.0479,720.4375 682.4854,719.0938 Q681.9385,717.7344 681.9385,715.9375 Q681.9385,713.9063 682.5947,712.4531 Q683.251,711 684.5322,710.2188 Q685.8135,709.4375 687.6885,709.4375 Q688.5791,709.4375 689.251,709.625 Q689.9229,709.7969 690.6104,710.1406 L689.7979,712.1563 Q689.1729,711.8438 688.626,711.7188 Q688.0947,711.5938 687.6104,711.5938 Q686.4385,711.5938 685.7354,712.125 Q685.0322,712.6563 684.7354,713.6094 Q684.4385,714.5625 684.4385,715.8281 Q684.4385,717.8438 685.1572,718.8125 Q685.876,719.7656 687.4697,719.7656 Q688.0635,719.7656 688.6885,719.6094 Q689.3135,719.4531 690.1416,719.0781 L690.1416,721.2969 Q689.4072,721.6094 688.6104,721.7656 Q687.8291,721.9219 687.0635,721.9219 Z " fill="#000000"/><text fill="#000000" font-family="sans-serif" font-size="14" lengthAdjust="spacing" textLength="75.0677" x="702.9491" y="720.432">SpatialItem</text><line style="stroke:#181818;stroke-width:0.5;" x1="667.5" x2="786.1116" y1="731" y2="731"/><text fill="#000000" font-family="sans-serif" font-size="14" lengthAdjust="spacing" textLength="108.6116" x="672.5" y="749.9659">objectId: integer</text></g><!--class ExpertiseArea--><g id="elem_ExpertiseArea"><rect codeLine="3" fill="#F1F1F1" height="154.4075" id="ExpertiseArea" rx="2.5" ry="2.5" style="stroke:#181818;stroke-width:0.5;" width="185.6974" x="346" y="7"/><ellipse cx="389.1132" cy="23" fill="#ADD1B2" rx="11" ry="11" style="stroke:#181818;stroke-width:1.0;"/><path d="M388.5819,29.9219 Q386.8319,29.9219 385.6913,29.1875 Q384.5663,28.4375 384.0038,27.0938 Q383.4569,25.7344 383.4569,23.9375 Q383.4569,21.9063 384.1132,20.4531 Q384.7694,19 386.0507,18.2188 Q387.3319,17.4375 389.2069,17.4375 Q390.0976,17.4375 390.7694,17.625 Q391.4413,17.7969 392.1288,18.1406 L391.3163,20.1563 Q390.6913,19.8438 390.1444,19.7188 Q389.6132,19.5938 389.1288,19.5938 Q387.9569,19.5938 387.2538,20.125 Q386.5507,20.6563 386.2538,21.6094 Q385.9569,22.5625 385.9569,23.8281 Q385.9569,25.8438 386.6757,26.8125 Q387.3944,27.7656 388.9882,27.7656 Q389.5819,27.7656 390.2069,27.6094 Q390.8319,27.4531 391.6601,27.0781 L391.6601,29.2969 Q390.9257,29.6094 390.1288,29.7656 Q389.3476,29.9219 388.5819,29.9219 Z " fill="#000000"/><text fill="#000000" font-family="sans-serif" font-size="14" lengthAdjust="spacing" textLength="91.2237" x="409.3606" y="28.432">ExpertiseArea</text><line style="stroke:#181818;stroke-width:0.5;" x1="347" x2="530.6974" y1="39" y2="39"/><ellipse cx="357" cy="54.034" fill="none" rx="3" ry="3" style="stroke:#038048;stroke-width:1.0;"/><text fill="#000000" font-family="sans-serif" font-size="14" lengthAdjust="spacing" textLength="70.7557" x="366" y="57.9659">id : integer</text><ellipse cx="357" cy="73.1019" fill="none" rx="3" ry="3" style="stroke:#038048;stroke-width:1.0;"/><text fill="#000000" font-family="sans-serif" font-size="14" lengthAdjust="spacing" textLength="81.0317" x="366" y="77.0339">label : string</text><ellipse cx="357" cy="92.1698" fill="none" rx="3" ry="3" style="stroke:#038048;stroke-width:1.0;"/><text fill="#000000" font-family="sans-serif" font-size="14" lengthAdjust="spacing" textLength="86.9397" x="366" y="96.1018">name : string</text><ellipse cx="357" cy="111.2377" fill="none" rx="3" ry="3" style="stroke:#038048;stroke-width:1.0;"/><text fill="#000000" font-family="sans-serif" font-size="14" lengthAdjust="spacing" textLength="155.9034" x="366" y="115.1697">description: string [0..1]</text><ellipse cx="357" cy="130.3056" fill="none" rx="3" ry="3" style="stroke:#038048;stroke-width:1.0;"/><text fill="#000000" font-family="sans-serif" font-size="14" lengthAdjust="spacing" textLength="127.1195" x="366" y="134.2376">creationDate : Date</text><ellipse cx="357" cy="149.3735" fill="none" rx="3" ry="3" style="stroke:#038048;stroke-width:1.0;"/><text fill="#000000" font-family="sans-serif" font-size="14" lengthAdjust="spacing" textLength="159.6974" x="366" y="153.3055">updateDate : timestamp</text></g><g id="elem_GMN3"><path d="M567,61.5 L567,80 L532.23,84 L567,88 L567,106.912 A0,0 0 0 0 567,106.912 L854.7863,106.912 A0,0 0 0 0 854.7863,106.912 L854.7863,71.5 L844.7863,61.5 L567,61.5 A0,0 0 0 0 567,61.5 " fill="#FEFFDD" style="stroke:#181818;stroke-width:0.5;"/><path d="M844.7863,61.5 L844.7863,71.5 L854.7863,71.5 L844.7863,61.5 " fill="#FEFFDD" style="stroke:#181818;stroke-width:0.5;"/><text fill="#000000" font-family="sans-serif" font-size="13" lengthAdjust="spacing" textLength="127.9721" x="573" y="80.397">Zone de comp&#233;tence</text><text fill="#000000" font-family="sans-serif" font-size="13" lengthAdjust="spacing" textLength="266.7863" x="573" y="98.103">Exemple: Guyane, La R&#233;union, Mayotte, etc.</text></g><!--class ExpertiseArea2Location--><g id="elem_ExpertiseArea2Location"><rect codeLine="14" fill="#F1F1F1" height="32" id="ExpertiseArea2Location" rx="2.5" ry="2.5" style="stroke:#181818;stroke-width:0.5;" width="187.3994" x="106.5" y="246.5"/><ellipse cx="121.5" cy="262.5" fill="#ADD1B2" rx="11" ry="11" style="stroke:#181818;stroke-width:1.0;"/><path d="M120.9688,269.4219 Q119.2188,269.4219 118.0781,268.6875 Q116.9531,267.9375 116.3906,266.5938 Q115.8438,265.2344 115.8438,263.4375 Q115.8438,261.4063 116.5,259.9531 Q117.1563,258.5 118.4375,257.7188 Q119.7188,256.9375 121.5938,256.9375 Q122.4844,256.9375 123.1563,257.125 Q123.8281,257.2969 124.5156,257.6406 L123.7031,259.6563 Q123.0781,259.3438 122.5313,259.2188 Q122,259.0938 121.5156,259.0938 Q120.3438,259.0938 119.6406,259.625 Q118.9375,260.1563 118.6406,261.1094 Q118.3438,262.0625 118.3438,263.3281 Q118.3438,265.3438 119.0625,266.3125 Q119.7813,267.2656 121.375,267.2656 Q121.9688,267.2656 122.5938,267.1094 Q123.2188,266.9531 124.0469,266.5781 L124.0469,268.7969 Q123.3125,269.1094 122.5156,269.2656 Q121.7344,269.4219 120.9688,269.4219 Z " fill="#000000"/><text fill="#000000" font-family="sans-serif" font-size="14" lengthAdjust="spacing" textLength="155.3994" x="135.5" y="267.932">ExpertiseArea2Location</text></g><g id="elem_GMN7"><path d="M806.5,240 L806.5,285.412 L951.4031,285.412 L951.4031,250 L941.4031,240 L806.5,240 " fill="#FEFFDD" style="stroke:#181818;stroke-width:0.5;"/><path d="M941.4031,240 L941.4031,250 L951.4031,250 L941.4031,240 " fill="#FEFFDD" style="stroke:#181818;stroke-width:1.0;"/><text fill="#000000" font-family="sans-serif" font-size="13" lengthAdjust="spacing" textLength="97.8641" x="812.5" y="258.897">Lieux de la zone</text><text fill="#000000" font-family="sans-serif" font-size="13" lengthAdjust="spacing" textLength="123.9031" x="812.5" y="276.603">(terrestre et en mer)</text></g><!--class ExpertiseArea2LocationLevel--><g id="elem_ExpertiseArea2LocationLevel"><rect codeLine="18" fill="#F1F1F1" height="32" id="ExpertiseArea2LocationLevel" rx="2.5" ry="2.5" style="stroke:#181818;stroke-width:0.5;" width="221.2513" x="328.5" y="246.5"/><ellipse cx="343.5" cy="262.5" fill="#ADD1B2" rx="11" ry="11" style="stroke:#181818;stroke-width:1.0;"/><path d="M342.9688,269.4219 Q341.2188,269.4219 340.0781,268.6875 Q338.9531,267.9375 338.3906,266.5938 Q337.8438,265.2344 337.8438,263.4375 Q337.8438,261.4063 338.5,259.9531 Q339.1563,258.5 340.4375,257.7188 Q341.7188,256.9375 343.5938,256.9375 Q344.4844,256.9375 345.1563,257.125 Q345.8281,257.2969 346.5156,257.6406 L345.7031,259.6563 Q345.0781,259.3438 344.5313,259.2188 Q344,259.0938 343.5156,259.0938 Q342.3438,259.0938 341.6406,259.625 Q340.9375,260.1563 340.6406,261.1094 Q340.3438,262.0625 340.3438,263.3281 Q340.3438,265.3438 341.0625,266.3125 Q341.7813,267.2656 343.375,267.2656 Q343.9688,267.2656 344.5938,267.1094 Q345.2188,266.9531 346.0469,266.5781 L346.0469,268.7969 Q345.3125,269.1094 344.5156,269.2656 Q343.7344,269.4219 342.9688,269.4219 Z " fill="#000000"/><text fill="#000000" font-family="sans-serif" font-size="14" lengthAdjust="spacing" textLength="189.2513" x="357.5" y="267.932">ExpertiseArea2LocationLevel</text></g><g id="elem_GMN11"><path d="M584.5,240 L584.5,258.5 L549.63,262.5 L584.5,266.5 L584.5,285.412 A0,0 0 0 0 584.5,285.412 L771.3671,285.412 A0,0 0 0 0 771.3671,285.412 L771.3671,250 L761.3671,240 L584.5,240 A0,0 0 0 0 584.5,240 " fill="#FEFFDD" style="stroke:#181818;stroke-width:0.5;"/><path d="M761.3671,240 L761.3671,250 L771.3671,250 L761.3671,240 " fill="#FEFFDD" style="stroke:#181818;stroke-width:0.5;"/><text fill="#000000" font-family="sans-serif" font-size="13" lengthAdjust="spacing" textLength="165.8671" x="590.5" y="258.897">Niveaux de lieux de la zone</text><text fill="#000000" font-family="sans-serif" font-size="13" lengthAdjust="spacing" textLength="123.9031" x="590.5" y="276.603">(terrestre et en mer)</text></g><!--link GMN7 to ExpertiseArea2Location--><g id="link_GMN7_ExpertiseArea2Location"><path d="M849.39,239.71 C828.79,225.35 800.01,208.13 771.5,200.5 C581.31,149.58 520.44,156.62 328.5,200.5 C290.11,209.28 249.83,231.07 224.83,246.32 " fill="none" id="GMN7-ExpertiseArea2Location" style="stroke:#181818;stroke-width:1.0;stroke-dasharray:7.0,7.0;"/></g><!--reverse link LocationClassification to Location--><g id="link_LocationClassification_Location"><path codeLine="33" d="M226.21,474 C237.81,474 243.4,474 254.99,474 " fill="none" id="LocationClassification-backto-Location" style="stroke:#181818;stroke-width:1.0;"/><polygon fill="#181818" points="220.21,474,229.21,478,225.21,474,229.21,470,220.21,474" style="stroke:#181818;stroke-width:1.0;"/><text fill="#000000" font-family="sans-serif" font-size="13" lengthAdjust="spacing" textLength="7.436" x="228.2951" y="470.1714">1</text><text fill="#000000" font-family="sans-serif" font-size="13" lengthAdjust="spacing" textLength="7.163" x="239.8238" y="469.4967">*</text></g><!--link Location to LocationLevel--><g id="link_Location_LocationLevel"><path codeLine="34" d="M343.02,474 C354.65,474 360.27,474 371.89,474 " fill="none" id="Location-to-LocationLevel" style="stroke:#181818;stroke-width:1.0;"/><polygon fill="#181818" points="377.89,474,368.89,470,372.89,474,368.89,478,377.89,474" style="stroke:#181818;stroke-width:1.0;"/><text fill="#000000" font-family="sans-serif" font-size="13" lengthAdjust="spacing" textLength="7.163" x="351.1871" y="469.4967">*</text><text fill="#000000" font-family="sans-serif" font-size="13" lengthAdjust="spacing" textLength="7.436" x="362.6385" y="469.8532">1</text></g><!--reverse link SpatialItemType to SpatialItem2Location--><g id="link_SpatialItemType_SpatialItem2Location"><path codeLine="54" d="M727,538.14 C727,562.52 727,583.03 727,599.2 " fill="none" id="SpatialItemType-backto-SpatialItem2Location" style="stroke:#181818;stroke-width:1.0;"/><polygon fill="#181818" points="727,532.14,723,541.14,727,537.14,731,541.14,727,532.14" style="stroke:#181818;stroke-width:1.0;"/><text fill="#000000" font-family="sans-serif" font-size="13" lengthAdjust="spacing" textLength="7.436" x="719.5732" y="554.1852">1</text><text fill="#000000" font-family="sans-serif" font-size="13" lengthAdjust="spacing" textLength="21.567" x="702.4462" y="587.6934">0..*</text></g><!--link SpatialItem2Location to SpatialItem--><g id="link_SpatialItem2Location_SpatialItem"><path codeLine="55" d="M727,631.93 C727,649.21 727,671.57 727,692.92 " fill="none" id="SpatialItem2Location-to-SpatialItem" style="stroke:#181818;stroke-width:1.0;"/><polygon fill="#181818" points="727,698.92,731,689.92,727,693.92,723,689.92,727,698.92" style="stroke:#181818;stroke-width:1.0;"/><text fill="#000000" font-family="sans-serif" font-size="13" lengthAdjust="spacing" textLength="21.567" x="702.9631" y="653.2539">0..*</text><text fill="#000000" font-family="sans-serif" font-size="13" lengthAdjust="spacing" textLength="7.436" x="719.2859" y="687.0848">1</text></g><!--link SpatialItem to AnyReferentialItem--><g id="link_SpatialItem_AnyReferentialItem"><path codeLine="57" d="M727,758.18 C727,778.93 727,799.8 727,814.57 " fill="none" id="SpatialItem-to-AnyReferentialItem" style="stroke:#181818;stroke-width:1.0;"/><polygon fill="#181818" points="727,820.57,731,811.57,727,815.57,723,811.57,727,820.57" style="stroke:#181818;stroke-width:1.0;"/></g><!--link ExpertiseArea to Status--><g id="link_ExpertiseArea_Status"><path codeLine="61" d="M532.25,152.67 C538.13,155.73 544.07,158.54 550,161 C725.03,233.64 848.05,94.11 969,240 C981.76,255.4 982.32,270.08 969,285 C917.75,342.38 685.26,276.17 625,324 C582.85,357.46 574.5225,421.0298 572.7625,451.8098 " fill="none" id="ExpertiseArea-to-Status" style="stroke:#181818;stroke-width:1.0;"/><polygon fill="#181818" points="572.42,457.8,576.9273,449.043,572.7054,452.8082,568.9403,448.5863,572.42,457.8" style="stroke:#181818;stroke-width:1.0;"/><text fill="#000000" font-family="sans-serif" font-size="13" lengthAdjust="spacing" textLength="7.163" x="539.6752" y="154.1852">*</text><text fill="#000000" font-family="sans-serif" font-size="13" lengthAdjust="spacing" textLength="7.436" x="564.4352" y="446.3277">1</text></g><!--reverse link ExpertiseArea to ExpertiseArea2Location--><g id="link_ExpertiseArea_ExpertiseArea2Location"><path codeLine="62" d="M336.2583,160.8705 C290.1283,194.9505 248.11,225.97 220.33,246.49 " fill="none" id="ExpertiseArea-backto-ExpertiseArea2Location" style="stroke:#181818;stroke-width:1.0;"/><polygon fill="#181818" points="345.91,153.74,338.7073,154.088,336.2583,160.8705,343.461,160.5225,345.91,153.74" style="stroke:#181818;stroke-width:1.0;"/><text fill="#000000" font-family="sans-serif" font-size="13" lengthAdjust="spacing" textLength="54.925" x="293" y="205.897">locations</text><text fill="#000000" font-family="sans-serif" font-size="13" lengthAdjust="spacing" textLength="7.436" x="330.641" y="155.9127">1</text><text fill="#000000" font-family="sans-serif" font-size="13" lengthAdjust="spacing" textLength="21.567" x="202.8618" y="234.7811">0..*</text></g><!--link ExpertiseArea2Location to Location--><g id="link_ExpertiseArea2Location_Location"><path codeLine="63" d="M210.1,278.54 C217.95,290.56 228.83,307.99 237,324 C261.19,371.42 281.5649,424.8929 291.5249,452.2129 " fill="none" id="ExpertiseArea2Location-to-Location" style="stroke:#181818;stroke-width:1.0;"/><polygon fill="#181818" points="293.58,457.85,294.2554,448.0243,291.8674,453.1524,286.7393,450.7645,293.58,457.85" style="stroke:#181818;stroke-width:1.0;"/><text fill="#000000" font-family="sans-serif" font-size="13" lengthAdjust="spacing" textLength="21.567" x="188.9992" y="300.3717">0..*</text><text fill="#000000" font-family="sans-serif" font-size="13" lengthAdjust="spacing" textLength="7.436" x="283.45" y="446.0912">1</text></g><!--reverse link ExpertiseArea to ExpertiseArea2LocationLevel--><g id="link_ExpertiseArea_ExpertiseArea2LocationLevel"><path codeLine="64" d="M439,173.13 C439,205.04 439,227.1 439,246.21 " fill="none" id="ExpertiseArea-backto-ExpertiseArea2LocationLevel" style="stroke:#181818;stroke-width:1.0;"/><polygon fill="#181818" points="439,161.13,435,167.13,439,173.13,443,167.13,439,161.13" style="stroke:#181818;stroke-width:1.0;"/><text fill="#000000" font-family="sans-serif" font-size="13" lengthAdjust="spacing" textLength="86.3591" x="440" y="205.897">locationLevels</text><text fill="#000000" font-family="sans-serif" font-size="13" lengthAdjust="spacing" textLength="7.436" x="431.7016" y="183.2028">1</text><text fill="#000000" font-family="sans-serif" font-size="13" lengthAdjust="spacing" textLength="21.567" x="414.4449" y="234.7068">0..*</text></g><!--link ExpertiseArea2LocationLevel to LocationLevel--><g id="link_ExpertiseArea2LocationLevel_LocationLevel"><path codeLine="65" d="M439,278.57 C439,317.13 439,413.07 439,451.79 " fill="none" id="ExpertiseArea2LocationLevel-to-LocationLevel" style="stroke:#181818;stroke-width:1.0;"/><polygon fill="#181818" points="439,457.79,443,448.79,439,452.79,435,448.79,439,457.79" style="stroke:#181818;stroke-width:1.0;"/><text fill="#000000" font-family="sans-serif" font-size="13" lengthAdjust="spacing" textLength="21.567" x="414.7035" y="300.4112">0..*</text><text fill="#000000" font-family="sans-serif" font-size="13" lengthAdjust="spacing" textLength="7.436" x="430.8684" y="446.3143">1</text></g><!--reverse link Location to SpatialItem2Location--><g id="link_Location_SpatialItem2Location"><path codeLine="67" d="M314.8002,494.5995 C326.0402,507.7395 340.19,521.72 360,532 C418.03,562.1 440.15,547.97 504,562 C563.7,575.12 578.51,578.93 638,593 C646.66,595.05 655.79,597.23 664.78,599.39 " fill="none" id="Location-backto-SpatialItem2Location" style="stroke:#181818;stroke-width:1.0;"/><polygon fill="#181818" points="310.9,490.04,313.7106,499.4793,314.1501,493.8395,319.7899,494.2791,310.9,490.04" style="stroke:#181818;stroke-width:1.0;"/><text fill="#000000" font-family="sans-serif" font-size="13" lengthAdjust="spacing" textLength="7.436" x="306.6202" y="511.8717">1</text><text fill="#000000" font-family="sans-serif" font-size="13" lengthAdjust="spacing" textLength="21.567" x="617.9311" y="587.6455">0..*</text></g><!--SRC=[dLJBRjim4BpxAnRgfKqZeybHA0e4JL04S1z8UchT0osl7ROY9P2hm6hX3yftvCUwV4YsB1argel4tUNiS9QZ1xb4G5LH0mhL0esTJ03oGbWBDviA3KcBLmO5_E4um6kGIyX0Qi8rcXWgn08BZbeoKgzZK0k5Xx4bsjp8YcIfsmnyVpETNlo81JbtSjbhGMwpUyLCNIrv4UCa5LeIgkBarX7M9SUDN3yGbAi-yGo-bHgvDUIbgfwV27MEStspuLCNcC67kX4Qps4cuExvgTRS_Hm-YgOauYXIFZsYoEMip3tPZa21AyfW9h7Uk7w5WD_SUgvV4Xh3X0rBJO2QfJQl_eKwmqSi-cVBu9DyH17HJszJYVoNM3C8hj2W9YaAU77j7nwh5pWmkIT1jGsHSl4JSu8htTpjjjqIgf1kCOj8DzwF5gaznNktaYiPbHeh6GrsftVFE1Wa5mcyJRqoAIHdoI5Y3ojMkn4T5FlgRNXvhHSy-bAvYpJUE8ClQ1HBpE8lfIM-nJMQkGuJwOPWTrEOzZMpbV0pw4js7w9EugzDXLqMs79znxd7UwvdBy-VJJS8Xaawp0m-TzynlPqS8t4vEg2zWZs6eSNjW2UZnwynO4ZO-poAjAxITtv01ngSidUuSwIbBnkvoe5ZLA7_lqlsmOCl1YMSEalJbiguZxFE8WE0euVPK_u_ElhxlclhbyTxHtUC4-XiUDhuTfxQJlu2]--></g></svg>