<?xml version="1.0" encoding="us-ascii" standalone="no"?><svg xmlns="http://www.w3.org/2000/svg" xmlns:xlink="http://www.w3.org/1999/xlink" contentStyleType="text/css" height="355px" preserveAspectRatio="none" style="width:585px;height:355px;background:#FFFFFF;" version="1.1" viewBox="0 0 585 355" width="585px" zoomAndPan="magnify"><defs/><g><!--cluster referential--><g id="cluster_referential"><path d="M8.5,192 L92.5,192 A3.75,3.75 0 0 1 95,194.5 L102,214.2969 L510.5,214.2969 A2.5,2.5 0 0 1 513,216.7969 L513,345.5 A2.5,2.5 0 0 1 510.5,348 L8.5,348 A2.5,2.5 0 0 1 6,345.5 L6,194.5 A2.5,2.5 0 0 1 8.5,192 " fill="#DDDDDD" style="stroke:#000000;stroke-width:1.5;"/><line style="stroke:#000000;stroke-width:1.5;" x1="6" x2="102" y1="214.2969" y2="214.2969"/><text fill="#000000" font-family="sans-serif" font-size="14" font-weight="bold" lengthAdjust="spacing" textLength="83" x="10" y="206.9951">referential</text></g><!--class Status--><g id="elem_Status"><rect codeLine="22" fill="#F1F1F1" height="32" id="Status" rx="2.5" ry="2.5" style="stroke:#181818;stroke-width:0.5;" width="76" x="421" y="263.5"/><ellipse cx="436" cy="279.5" fill="#ADD1B2" rx="11" ry="11" style="stroke:#181818;stroke-width:1.0;"/><path d="M438.9688,285.1406 Q438.3906,285.4375 437.75,285.5781 Q437.1094,285.7344 436.4063,285.7344 Q433.9063,285.7344 432.5781,284.0938 Q431.2656,282.4375 431.2656,279.3125 Q431.2656,276.1875 432.5781,274.5313 Q433.9063,272.875 436.4063,272.875 Q437.1094,272.875 437.75,273.0313 Q438.4063,273.1875 438.9688,273.4844 L438.9688,276.2031 Q438.3438,275.625 437.75,275.3594 Q437.1563,275.0781 436.5313,275.0781 Q435.1875,275.0781 434.5,276.1563 Q433.8125,277.2188 433.8125,279.3125 Q433.8125,281.4063 434.5,282.4844 Q435.1875,283.5469 436.5313,283.5469 Q437.1563,283.5469 437.75,283.2813 Q438.3438,283 438.9688,282.4219 L438.9688,285.1406 Z " fill="#000000"/><text fill="#000000" font-family="sans-serif" font-size="14" lengthAdjust="spacing" textLength="44" x="450" y="284.3467">Status</text></g><!--class UserProfile--><g id="elem_UserProfile"><rect codeLine="23" fill="#F1F1F1" height="32" id="UserProfile" rx="2.5" ry="2.5" style="stroke:#181818;stroke-width:0.5;" width="106" x="22" y="263.5"/><ellipse cx="37" cy="279.5" fill="#ADD1B2" rx="11" ry="11" style="stroke:#181818;stroke-width:1.0;"/><path d="M39.9688,285.1406 Q39.3906,285.4375 38.75,285.5781 Q38.1094,285.7344 37.4063,285.7344 Q34.9063,285.7344 33.5781,284.0938 Q32.2656,282.4375 32.2656,279.3125 Q32.2656,276.1875 33.5781,274.5313 Q34.9063,272.875 37.4063,272.875 Q38.1094,272.875 38.75,273.0313 Q39.4063,273.1875 39.9688,273.4844 L39.9688,276.2031 Q39.3438,275.625 38.75,275.3594 Q38.1563,275.0781 37.5313,275.0781 Q36.1875,275.0781 35.5,276.1563 Q34.8125,277.2188 34.8125,279.3125 Q34.8125,281.4063 35.5,282.4844 Q36.1875,283.5469 37.5313,283.5469 Q38.1563,283.5469 38.75,283.2813 Q39.3438,283 39.9688,282.4219 L39.9688,285.1406 Z " fill="#000000"/><text fill="#000000" font-family="sans-serif" font-size="14" lengthAdjust="spacing" textLength="74" x="51" y="284.3467">UserProfile</text></g><!--class UserProfileEnum--><g id="elem_UserProfileEnum"><rect codeLine="25" fill="#F1F1F1" height="105.1875" id="UserProfileEnum" rx="2.5" ry="2.5" style="stroke:#181818;stroke-width:0.5;" width="146" x="240" y="227"/><ellipse cx="255" cy="243" fill="#EB937F" rx="11" ry="11" style="stroke:#181818;stroke-width:1.0;"/><path d="M259.1094,249 L251.3906,249 L251.3906,236.6094 L259.1094,236.6094 L259.1094,238.7656 L253.8438,238.7656 L253.8438,241.4375 L258.6094,241.4375 L258.6094,243.5938 L253.8438,243.5938 L253.8438,246.8438 L259.1094,246.8438 L259.1094,249 Z " fill="#000000"/><text fill="#000000" font-family="sans-serif" font-size="14" lengthAdjust="spacing" textLength="114" x="269" y="247.8467">UserProfileEnum</text><line style="stroke:#181818;stroke-width:0.5;" x1="241" x2="385" y1="259" y2="259"/><ellipse cx="251" cy="272.6484" fill="none" rx="3" ry="3" style="stroke:#038048;stroke-width:1.0;"/><text fill="#000000" font-family="sans-serif" font-size="14" lengthAdjust="spacing" textLength="63" x="260" y="275.9951">ADMIN: 1</text><ellipse cx="251" cy="288.9453" fill="none" rx="3" ry="3" style="stroke:#038048;stroke-width:1.0;"/><text fill="#000000" font-family="sans-serif" font-size="14" lengthAdjust="spacing" textLength="56" x="260" y="292.292">USER: 2</text><ellipse cx="251" cy="305.2422" fill="none" rx="3" ry="3" style="stroke:#038048;stroke-width:1.0;"/><text fill="#000000" font-family="sans-serif" font-size="14" lengthAdjust="spacing" textLength="107" x="260" y="308.5889">SUPERVISOR: 3</text><ellipse cx="251" cy="321.5391" fill="none" rx="3" ry="3" style="stroke:#038048;stroke-width:1.0;"/><text fill="#000000" font-family="sans-serif" font-size="14" lengthAdjust="spacing" textLength="66" x="260" y="324.8857">GUEST: 4</text></g><!--class Person--><g id="elem_Person"><rect codeLine="4" fill="#F1F1F1" height="137.7813" id="Person" rx="2.5" ry="2.5" style="stroke:#181818;stroke-width:0.5;" width="91" x="220.5" y="7"/><ellipse cx="240" cy="23" fill="#ADD1B2" rx="11" ry="11" style="stroke:#181818;stroke-width:1.0;"/><path d="M242.9688,28.6406 Q242.3906,28.9375 241.75,29.0781 Q241.1094,29.2344 240.4063,29.2344 Q237.9063,29.2344 236.5781,27.5938 Q235.2656,25.9375 235.2656,22.8125 Q235.2656,19.6875 236.5781,18.0313 Q237.9063,16.375 240.4063,16.375 Q241.1094,16.375 241.75,16.5313 Q242.4063,16.6875 242.9688,16.9844 L242.9688,19.7031 Q242.3438,19.125 241.75,18.8594 Q241.1563,18.5781 240.5313,18.5781 Q239.1875,18.5781 238.5,19.6563 Q237.8125,20.7188 237.8125,22.8125 Q237.8125,24.9063 238.5,25.9844 Q239.1875,27.0469 240.5313,27.0469 Q241.1563,27.0469 241.75,26.7813 Q242.3438,26.5 242.9688,25.9219 L242.9688,28.6406 Z " fill="#000000"/><text fill="#000000" font-family="sans-serif" font-size="14" lengthAdjust="spacing" textLength="49" x="255" y="27.8467">Person</text><line style="stroke:#181818;stroke-width:0.5;" x1="221.5" x2="310.5" y1="39" y2="39"/><ellipse cx="231.5" cy="52.6484" fill="none" rx="3" ry="3" style="stroke:#038048;stroke-width:1.0;"/><text fill="#000000" font-family="sans-serif" font-size="14" lengthAdjust="spacing" textLength="12" x="240.5" y="55.9951">id</text><ellipse cx="231.5" cy="68.9453" fill="none" rx="3" ry="3" style="stroke:#038048;stroke-width:1.0;"/><text fill="#000000" font-family="sans-serif" font-size="14" lengthAdjust="spacing" textLength="65" x="240.5" y="72.292">firstName</text><ellipse cx="231.5" cy="85.2422" fill="none" rx="3" ry="3" style="stroke:#038048;stroke-width:1.0;"/><text fill="#000000" font-family="sans-serif" font-size="14" lengthAdjust="spacing" textLength="64" x="240.5" y="88.5889">lastName</text><ellipse cx="231.5" cy="101.5391" fill="none" rx="3" ry="3" style="stroke:#038048;stroke-width:1.0;"/><text fill="#000000" font-family="sans-serif" font-size="14" lengthAdjust="spacing" textLength="36" x="240.5" y="104.8857">email</text><ellipse cx="231.5" cy="117.8359" fill="none" rx="3" ry="3" style="stroke:#038048;stroke-width:1.0;"/><text fill="#000000" font-family="sans-serif" font-size="14" lengthAdjust="spacing" textLength="33" x="240.5" y="121.1826">login</text><ellipse cx="231.5" cy="134.1328" fill="none" rx="3" ry="3" style="stroke:#038048;stroke-width:1.0;"/><text fill="#000000" font-family="sans-serif" font-size="14" lengthAdjust="spacing" textLength="51" x="240.5" y="137.4795">pubkey</text></g><!--class Department--><g id="elem_Department"><rect codeLine="13" fill="#F1F1F1" height="88.8906" id="Department" rx="2.5" ry="2.5" style="stroke:#181818;stroke-width:0.5;" width="115" x="463.5" y="31.5"/><ellipse cx="478.5" cy="47.5" fill="#ADD1B2" rx="11" ry="11" style="stroke:#181818;stroke-width:1.0;"/><path d="M481.4688,53.1406 Q480.8906,53.4375 480.25,53.5781 Q479.6094,53.7344 478.9063,53.7344 Q476.4063,53.7344 475.0781,52.0938 Q473.7656,50.4375 473.7656,47.3125 Q473.7656,44.1875 475.0781,42.5313 Q476.4063,40.875 478.9063,40.875 Q479.6094,40.875 480.25,41.0313 Q480.9063,41.1875 481.4688,41.4844 L481.4688,44.2031 Q480.8438,43.625 480.25,43.3594 Q479.6563,43.0781 479.0313,43.0781 Q477.6875,43.0781 477,44.1563 Q476.3125,45.2188 476.3125,47.3125 Q476.3125,49.4063 477,50.4844 Q477.6875,51.5469 479.0313,51.5469 Q479.6563,51.5469 480.25,51.2813 Q480.8438,51 481.4688,50.4219 L481.4688,53.1406 Z " fill="#000000"/><text fill="#000000" font-family="sans-serif" font-size="14" lengthAdjust="spacing" textLength="83" x="492.5" y="52.3467">Department</text><line style="stroke:#181818;stroke-width:0.5;" x1="464.5" x2="577.5" y1="63.5" y2="63.5"/><ellipse cx="474.5" cy="77.1484" fill="none" rx="3" ry="3" style="stroke:#038048;stroke-width:1.0;"/><text fill="#000000" font-family="sans-serif" font-size="14" lengthAdjust="spacing" textLength="12" x="483.5" y="80.4951">id</text><ellipse cx="474.5" cy="93.4453" fill="none" rx="3" ry="3" style="stroke:#038048;stroke-width:1.0;"/><text fill="#000000" font-family="sans-serif" font-size="14" lengthAdjust="spacing" textLength="32" x="483.5" y="96.792">label</text><ellipse cx="474.5" cy="109.7422" fill="none" rx="3" ry="3" style="stroke:#038048;stroke-width:1.0;"/><text fill="#000000" font-family="sans-serif" font-size="14" lengthAdjust="spacing" textLength="39" x="483.5" y="113.0889">name</text></g><!--link Person to Department--><g id="link_Person_Department"><path codeLine="19" d="M311.59,76 C352.42,76 412.68,76 458.09,76 " fill="none" id="Person-to-Department" style="stroke:#181818;stroke-width:1.0;"/><polygon fill="#181818" points="463.28,76,454.28,72,458.28,76,454.28,80,463.28,76" style="stroke:#181818;stroke-width:1.0;"/><text fill="#000000" font-family="sans-serif" font-size="13" lengthAdjust="spacing" textLength="115" x="330" y="69.0669">has a department</text><text fill="#000000" font-family="sans-serif" font-size="13" lengthAdjust="spacing" textLength="8" x="447.3721" y="72.1215">1</text></g><!--link Person to Status--><g id="link_Person_Status"><path codeLine="32" d="M311.6,105.7 C340.41,125.34 377.14,153.32 404,184 C424.14,207.01 440.71,238.48 450.23,258.65 " fill="none" id="Person-to-Status" style="stroke:#181818;stroke-width:1.0;"/><polygon fill="#181818" points="452.38,263.27,452.1971,253.4228,450.2648,258.7394,444.9482,256.8072,452.38,263.27" style="stroke:#181818;stroke-width:1.0;"/><text fill="#000000" font-family="sans-serif" font-size="13" lengthAdjust="spacing" textLength="8" x="440.8621" y="252.4983">1</text></g><!--link Person to UserProfile--><g id="link_Person_UserProfile"><path codeLine="33" d="M220.49,125.01 C179.73,168.01 122.05,228.86 93.08,259.42 " fill="none" id="Person-to-UserProfile" style="stroke:#181818;stroke-width:1.0;"/><polygon fill="#181818" points="89.36,263.35,98.4564,259.5744,92.8015,259.7229,92.653,254.068,89.36,263.35" style="stroke:#181818;stroke-width:1.0;"/><text fill="#000000" font-family="sans-serif" font-size="13" lengthAdjust="spacing" textLength="7" x="205.3727" y="128.9811">*</text><text fill="#000000" font-family="sans-serif" font-size="13" lengthAdjust="spacing" textLength="23" x="67.3431" y="252.31">1..*</text></g><!--reverse link UserProfile to UserProfileEnum--><g id="link_UserProfile_UserProfileEnum"><path codeLine="34" d="M133.2,279.5 C165.31,279.5 205.51,279.5 239.74,279.5 " fill="none" id="UserProfile-backto-UserProfileEnum" style="stroke:#181818;stroke-width:1.0;stroke-dasharray:7.0,7.0;"/><polygon fill="#181818" points="128.12,279.5,137.12,283.5,133.12,279.5,137.12,275.5,128.12,279.5" style="stroke:#181818;stroke-width:1.0;"/><text fill="#000000" font-family="sans-serif" font-size="13" lengthAdjust="spacing" textLength="30" x="169" y="257.5669">is an</text><text fill="#000000" font-family="sans-serif" font-size="13" lengthAdjust="spacing" textLength="71" x="150.5" y="272.6997">identifier of</text></g></g></svg>