<?xml version="1.0" encoding="us-ascii" standalone="no"?><svg xmlns="http://www.w3.org/2000/svg" xmlns:xlink="http://www.w3.org/1999/xlink" contentStyleType="text/css" height="369px" preserveAspectRatio="none" style="width:546px;height:369px;background:#FFFFFF;" version="1.1" viewBox="0 0 546 369" width="546px" zoomAndPan="magnify"><defs/><g><!--cluster referential--><g id="cluster_referential"><path d="M8.5,200 L83.5,200 A3.75,3.75 0 0 1 86,202.5 L93,223.6094 L484.5,223.6094 A2.5,2.5 0 0 1 487,226.1094 L487,359.5 A2.5,2.5 0 0 1 484.5,362 L8.5,362 A2.5,2.5 0 0 1 6,359.5 L6,202.5 A2.5,2.5 0 0 1 8.5,200 " fill="#DDDDDD" style="stroke:#000000;stroke-width:1.5;"/><line style="stroke:#000000;stroke-width:1.5;" x1="6" x2="93" y1="223.6094" y2="223.6094"/><text fill="#000000" font-family="sans-serif" font-size="14" font-weight="bold" lengthAdjust="spacing" textLength="74" x="10" y="216.5332">referential</text></g><!--class Status--><g id="elem_Status"><rect codeLine="22" fill="#F1F1F1" height="32" id="Status" rx="2.5" ry="2.5" style="stroke:#181818;stroke-width:0.5;" width="72" x="399" y="275"/><ellipse cx="414" cy="291" fill="#ADD1B2" rx="11" ry="11" style="stroke:#181818;stroke-width:1.0;"/><path d="M416.7656,286.875 Q416.9219,286.6563 417.1094,286.5469 Q417.2969,286.4375 417.5156,286.4375 Q417.8906,286.4375 418.125,286.6953 Q418.3594,286.9531 418.3594,287.5625 L418.3594,289.0156 Q418.3594,289.625 418.125,289.8906 Q417.8906,290.1563 417.5156,290.1563 Q417.1719,290.1563 416.9688,289.9531 Q416.7656,289.7656 416.6563,289.25 Q416.6094,288.8906 416.4219,288.7031 Q416.0938,288.3281 415.4844,288.1094 Q414.875,287.8906 414.25,287.8906 Q413.4844,287.8906 412.8516,288.2188 Q412.2188,288.5469 411.7266,289.2969 Q411.2344,290.0469 411.2344,291.0781 L411.2344,292.1719 Q411.2344,293.4063 412.125,294.2266 Q413.0156,295.0469 414.6094,295.0469 Q415.5469,295.0469 416.2031,294.7969 Q416.5938,294.6406 417.0156,294.2031 Q417.2813,293.9375 417.4297,293.8594 Q417.5781,293.7813 417.7813,293.7813 Q418.1094,293.7813 418.3672,294.0391 Q418.625,294.2969 418.625,294.6406 Q418.625,294.9844 418.2813,295.3906 Q417.7813,295.9688 416.9844,296.2969 Q415.9063,296.75 414.6094,296.75 Q413.0938,296.75 411.8906,296.125 Q410.9063,295.625 410.2188,294.5547 Q409.5313,293.4844 409.5313,292.2031 L409.5313,291.0469 Q409.5313,289.7188 410.1484,288.5703 Q410.7656,287.4219 411.8594,286.8047 Q412.9531,286.1875 414.1875,286.1875 Q414.9219,286.1875 415.5703,286.3516 Q416.2188,286.5156 416.7656,286.875 Z " fill="#000000"/><text fill="#000000" font-family="sans-serif" font-size="14" lengthAdjust="spacing" textLength="40" x="428" y="296.7285">Status</text></g><!--class UserProfile--><g id="elem_UserProfile"><rect codeLine="23" fill="#F1F1F1" height="32" id="UserProfile" rx="2.5" ry="2.5" style="stroke:#181818;stroke-width:0.5;" width="101" x="22.5" y="275"/><ellipse cx="37.5" cy="291" fill="#ADD1B2" rx="11" ry="11" style="stroke:#181818;stroke-width:1.0;"/><path d="M40.2656,286.875 Q40.4219,286.6563 40.6094,286.5469 Q40.7969,286.4375 41.0156,286.4375 Q41.3906,286.4375 41.625,286.6953 Q41.8594,286.9531 41.8594,287.5625 L41.8594,289.0156 Q41.8594,289.625 41.625,289.8906 Q41.3906,290.1563 41.0156,290.1563 Q40.6719,290.1563 40.4688,289.9531 Q40.2656,289.7656 40.1563,289.25 Q40.1094,288.8906 39.9219,288.7031 Q39.5938,288.3281 38.9844,288.1094 Q38.375,287.8906 37.75,287.8906 Q36.9844,287.8906 36.3516,288.2188 Q35.7188,288.5469 35.2266,289.2969 Q34.7344,290.0469 34.7344,291.0781 L34.7344,292.1719 Q34.7344,293.4063 35.625,294.2266 Q36.5156,295.0469 38.1094,295.0469 Q39.0469,295.0469 39.7031,294.7969 Q40.0938,294.6406 40.5156,294.2031 Q40.7813,293.9375 40.9297,293.8594 Q41.0781,293.7813 41.2813,293.7813 Q41.6094,293.7813 41.8672,294.0391 Q42.125,294.2969 42.125,294.6406 Q42.125,294.9844 41.7813,295.3906 Q41.2813,295.9688 40.4844,296.2969 Q39.4063,296.75 38.1094,296.75 Q36.5938,296.75 35.3906,296.125 Q34.4063,295.625 33.7188,294.5547 Q33.0313,293.4844 33.0313,292.2031 L33.0313,291.0469 Q33.0313,289.7188 33.6484,288.5703 Q34.2656,287.4219 35.3594,286.8047 Q36.4531,286.1875 37.6875,286.1875 Q38.4219,286.1875 39.0703,286.3516 Q39.7188,286.5156 40.2656,286.875 Z " fill="#000000"/><text fill="#000000" font-family="sans-serif" font-size="14" lengthAdjust="spacing" textLength="69" x="51.5" y="296.7285">UserProfile</text></g><!--class UserProfileEnum--><g id="elem_UserProfileEnum"><rect codeLine="25" fill="#F1F1F1" height="110.4375" id="UserProfileEnum" rx="2.5" ry="2.5" style="stroke:#181818;stroke-width:0.5;" width="137" x="226.5" y="236"/><ellipse cx="241.5" cy="252" fill="#EB937F" rx="11" ry="11" style="stroke:#181818;stroke-width:1.0;"/><path d="M240.3594,252.7969 L240.3594,255.2969 L244.6875,255.2969 L244.6875,254.375 Q244.6875,253.7656 244.9297,253.5 Q245.1719,253.2344 245.5469,253.2344 Q245.9219,253.2344 246.1563,253.5 Q246.3906,253.7656 246.3906,254.375 L246.3906,257 L238.3906,257 Q237.7656,257 237.5078,256.7656 Q237.25,256.5313 237.25,256.1406 Q237.25,255.7656 237.5156,255.5313 Q237.7813,255.2969 238.3906,255.2969 L238.6563,255.2969 L238.6563,248.6406 L238.3906,248.6406 Q237.7656,248.6406 237.5078,248.4063 Q237.25,248.1719 237.25,247.7813 Q237.25,247.4063 237.5078,247.1719 Q237.7656,246.9375 238.3906,246.9375 L246.0156,246.9375 L246.0156,249.5313 Q246.0156,250.1406 245.7891,250.3984 Q245.5625,250.6563 245.1719,250.6563 Q244.7969,250.6563 244.5625,250.3984 Q244.3281,250.1406 244.3281,249.5313 L244.3281,248.6406 L240.3594,248.6406 L240.3594,251.0938 L241.8438,251.0938 Q241.8438,250.4375 241.9688,250.25 Q242.2344,249.8438 242.7031,249.8438 Q243.0781,249.8438 243.3125,250.1016 Q243.5469,250.3594 243.5469,250.9688 L243.5469,252.9375 Q243.5469,253.4844 243.4219,253.6719 Q243.1563,254.0625 242.7031,254.0625 Q242.2344,254.0625 241.9688,253.6563 Q241.8438,253.4688 241.8438,252.7969 L240.3594,252.7969 Z " fill="#000000"/><text fill="#000000" font-family="sans-serif" font-size="14" lengthAdjust="spacing" textLength="105" x="255.5" y="257.7285">UserProfileEnum</text><line style="stroke:#181818;stroke-width:0.5;" x1="227.5" x2="362.5" y1="268" y2="268"/><ellipse cx="237.5" cy="282.3047" fill="none" rx="3" ry="3" style="stroke:#038048;stroke-width:1.0;"/><text fill="#000000" font-family="sans-serif" font-size="14" lengthAdjust="spacing" textLength="58" x="246.5" y="286.5332">ADMIN: 1</text><ellipse cx="237.5" cy="299.9141" fill="none" rx="3" ry="3" style="stroke:#038048;stroke-width:1.0;"/><text fill="#000000" font-family="sans-serif" font-size="14" lengthAdjust="spacing" textLength="53" x="246.5" y="304.1426">USER: 2</text><ellipse cx="237.5" cy="317.5234" fill="none" rx="3" ry="3" style="stroke:#038048;stroke-width:1.0;"/><text fill="#000000" font-family="sans-serif" font-size="14" lengthAdjust="spacing" textLength="104" x="246.5" y="321.752">SUPERVISOR: 3</text><ellipse cx="237.5" cy="335.1328" fill="none" rx="3" ry="3" style="stroke:#038048;stroke-width:1.0;"/><text fill="#000000" font-family="sans-serif" font-size="14" lengthAdjust="spacing" textLength="63" x="246.5" y="339.3613">GUEST: 4</text></g><!--class Person--><g id="elem_Person"><rect codeLine="4" fill="#F1F1F1" height="145.6563" id="Person" rx="2.5" ry="2.5" style="stroke:#181818;stroke-width:0.5;" width="85" x="210.5" y="7"/><ellipse cx="229.1" cy="23" fill="#ADD1B2" rx="11" ry="11" style="stroke:#181818;stroke-width:1.0;"/><path d="M231.8656,18.875 Q232.0219,18.6563 232.2094,18.5469 Q232.3969,18.4375 232.6156,18.4375 Q232.9906,18.4375 233.225,18.6953 Q233.4594,18.9531 233.4594,19.5625 L233.4594,21.0156 Q233.4594,21.625 233.225,21.8906 Q232.9906,22.1563 232.6156,22.1563 Q232.2719,22.1563 232.0688,21.9531 Q231.8656,21.7656 231.7563,21.25 Q231.7094,20.8906 231.5219,20.7031 Q231.1938,20.3281 230.5844,20.1094 Q229.975,19.8906 229.35,19.8906 Q228.5844,19.8906 227.9516,20.2188 Q227.3188,20.5469 226.8266,21.2969 Q226.3344,22.0469 226.3344,23.0781 L226.3344,24.1719 Q226.3344,25.4063 227.225,26.2266 Q228.1156,27.0469 229.7094,27.0469 Q230.6469,27.0469 231.3031,26.7969 Q231.6938,26.6406 232.1156,26.2031 Q232.3813,25.9375 232.5297,25.8594 Q232.6781,25.7813 232.8813,25.7813 Q233.2094,25.7813 233.4672,26.0391 Q233.725,26.2969 233.725,26.6406 Q233.725,26.9844 233.3813,27.3906 Q232.8813,27.9688 232.0844,28.2969 Q231.0063,28.75 229.7094,28.75 Q228.1938,28.75 226.9906,28.125 Q226.0063,27.625 225.3188,26.5547 Q224.6313,25.4844 224.6313,24.2031 L224.6313,23.0469 Q224.6313,21.7188 225.2484,20.5703 Q225.8656,19.4219 226.9594,18.8047 Q228.0531,18.1875 229.2875,18.1875 Q230.0219,18.1875 230.6703,18.3516 Q231.3188,18.5156 231.8656,18.875 Z " fill="#000000"/><text fill="#000000" font-family="sans-serif" font-size="14" lengthAdjust="spacing" textLength="45" x="243.9" y="28.7285">Person</text><line style="stroke:#181818;stroke-width:0.5;" x1="211.5" x2="294.5" y1="39" y2="39"/><ellipse cx="221.5" cy="53.3047" fill="none" rx="3" ry="3" style="stroke:#038048;stroke-width:1.0;"/><text fill="#000000" font-family="sans-serif" font-size="14" lengthAdjust="spacing" textLength="11" x="230.5" y="57.5332">id</text><ellipse cx="221.5" cy="70.9141" fill="none" rx="3" ry="3" style="stroke:#038048;stroke-width:1.0;"/><text fill="#000000" font-family="sans-serif" font-size="14" lengthAdjust="spacing" textLength="59" x="230.5" y="75.1426">firstName</text><ellipse cx="221.5" cy="88.5234" fill="none" rx="3" ry="3" style="stroke:#038048;stroke-width:1.0;"/><text fill="#000000" font-family="sans-serif" font-size="14" lengthAdjust="spacing" textLength="58" x="230.5" y="92.752">lastName</text><ellipse cx="221.5" cy="106.1328" fill="none" rx="3" ry="3" style="stroke:#038048;stroke-width:1.0;"/><text fill="#000000" font-family="sans-serif" font-size="14" lengthAdjust="spacing" textLength="33" x="230.5" y="110.3613">email</text><ellipse cx="221.5" cy="123.7422" fill="none" rx="3" ry="3" style="stroke:#038048;stroke-width:1.0;"/><text fill="#000000" font-family="sans-serif" font-size="14" lengthAdjust="spacing" textLength="30" x="230.5" y="127.9707">login</text><ellipse cx="221.5" cy="141.3516" fill="none" rx="3" ry="3" style="stroke:#038048;stroke-width:1.0;"/><text fill="#000000" font-family="sans-serif" font-size="14" lengthAdjust="spacing" textLength="46" x="230.5" y="145.5801">pubkey</text></g><!--class Department--><g id="elem_Department"><rect codeLine="13" fill="#F1F1F1" height="92.8281" id="Department" rx="2.5" ry="2.5" style="stroke:#181818;stroke-width:0.5;" width="106" x="433" y="33.5"/><ellipse cx="448" cy="49.5" fill="#ADD1B2" rx="11" ry="11" style="stroke:#181818;stroke-width:1.0;"/><path d="M450.7656,45.375 Q450.9219,45.1563 451.1094,45.0469 Q451.2969,44.9375 451.5156,44.9375 Q451.8906,44.9375 452.125,45.1953 Q452.3594,45.4531 452.3594,46.0625 L452.3594,47.5156 Q452.3594,48.125 452.125,48.3906 Q451.8906,48.6563 451.5156,48.6563 Q451.1719,48.6563 450.9688,48.4531 Q450.7656,48.2656 450.6563,47.75 Q450.6094,47.3906 450.4219,47.2031 Q450.0938,46.8281 449.4844,46.6094 Q448.875,46.3906 448.25,46.3906 Q447.4844,46.3906 446.8516,46.7188 Q446.2188,47.0469 445.7266,47.7969 Q445.2344,48.5469 445.2344,49.5781 L445.2344,50.6719 Q445.2344,51.9063 446.125,52.7266 Q447.0156,53.5469 448.6094,53.5469 Q449.5469,53.5469 450.2031,53.2969 Q450.5938,53.1406 451.0156,52.7031 Q451.2813,52.4375 451.4297,52.3594 Q451.5781,52.2813 451.7813,52.2813 Q452.1094,52.2813 452.3672,52.5391 Q452.625,52.7969 452.625,53.1406 Q452.625,53.4844 452.2813,53.8906 Q451.7813,54.4688 450.9844,54.7969 Q449.9063,55.25 448.6094,55.25 Q447.0938,55.25 445.8906,54.625 Q444.9063,54.125 444.2188,53.0547 Q443.5313,51.9844 443.5313,50.7031 L443.5313,49.5469 Q443.5313,48.2188 444.1484,47.0703 Q444.7656,45.9219 445.8594,45.3047 Q446.9531,44.6875 448.1875,44.6875 Q448.9219,44.6875 449.5703,44.8516 Q450.2188,45.0156 450.7656,45.375 Z " fill="#000000"/><text fill="#000000" font-family="sans-serif" font-size="14" lengthAdjust="spacing" textLength="74" x="462" y="55.2285">Department</text><line style="stroke:#181818;stroke-width:0.5;" x1="434" x2="538" y1="65.5" y2="65.5"/><ellipse cx="444" cy="79.8047" fill="none" rx="3" ry="3" style="stroke:#038048;stroke-width:1.0;"/><text fill="#000000" font-family="sans-serif" font-size="14" lengthAdjust="spacing" textLength="11" x="453" y="84.0332">id</text><ellipse cx="444" cy="97.4141" fill="none" rx="3" ry="3" style="stroke:#038048;stroke-width:1.0;"/><text fill="#000000" font-family="sans-serif" font-size="14" lengthAdjust="spacing" textLength="30" x="453" y="101.6426">label</text><ellipse cx="444" cy="115.0234" fill="none" rx="3" ry="3" style="stroke:#038048;stroke-width:1.0;"/><text fill="#000000" font-family="sans-serif" font-size="14" lengthAdjust="spacing" textLength="35" x="453" y="119.252">name</text></g><!--link Person to Department--><g id="link_Person_Department"><path codeLine="19" d="M295.74,80 C334.36,80 385.36,80 426.9,80 " fill="none" id="Person-to-Department" style="stroke:#181818;stroke-width:1.0;"/><polygon fill="#181818" points="432.9,80,423.9,76,427.9,80,423.9,84,432.9,80" style="stroke:#181818;stroke-width:1.0;"/><text fill="#000000" font-family="sans-serif" font-size="13" lengthAdjust="spacing" textLength="101" x="313.75" y="73.4951">has a department</text><text fill="#000000" font-family="sans-serif" font-size="13" lengthAdjust="spacing" textLength="7" x="417.9406" y="76.4069">1</text></g><!--link Person to Status--><g id="link_Person_Status"><path codeLine="32" d="M295.62,111.72 C322.31,132.38 356.22,161.35 381,192 C402.38,218.43 417.349,249.0257 426.209,269.2157 " fill="none" id="Person-to-Status" style="stroke:#181818;stroke-width:1.0;"/><polygon fill="#181818" points="428.62,274.71,428.6663,264.8613,426.6108,270.1315,421.3406,268.076,428.62,274.71" style="stroke:#181818;stroke-width:1.0;"/><text fill="#000000" font-family="sans-serif" font-size="13" lengthAdjust="spacing" textLength="7" x="418.3473" y="264.2173">1</text></g><!--link Person to UserProfile--><g id="link_Person_UserProfile"><path codeLine="33" d="M210.34,130.53 C170.01,177.37 115.8455,240.2537 90.0855,270.1637 " fill="none" id="Person-to-UserProfile" style="stroke:#181818;stroke-width:1.0;"/><polygon fill="#181818" points="86.17,274.71,95.0741,270.5009,89.4329,270.9214,89.0124,265.2802,86.17,274.71" style="stroke:#181818;stroke-width:1.0;"/><text fill="#000000" font-family="sans-serif" font-size="13" lengthAdjust="spacing" textLength="5" x="197.5781" y="135.3947">*</text><text fill="#000000" font-family="sans-serif" font-size="13" lengthAdjust="spacing" textLength="20" x="67.2201" y="264.2173">1..*</text></g><!--reverse link UserProfile to UserProfileEnum--><g id="link_UserProfile_UserProfileEnum"><path codeLine="34" d="M129.65,291 C160.11,291 193.28,291 226.47,291 " fill="none" id="UserProfile-backto-UserProfileEnum" style="stroke:#181818;stroke-width:1.0;stroke-dasharray:7.0,7.0;"/><polygon fill="#181818" points="123.65,291,132.65,295,128.65,291,132.65,287,123.65,291" style="stroke:#181818;stroke-width:1.0;"/><text fill="#000000" font-family="sans-serif" font-size="13" lengthAdjust="spacing" textLength="28" x="161" y="268.4951">is an</text><text fill="#000000" font-family="sans-serif" font-size="13" lengthAdjust="spacing" textLength="62" x="146" y="284.8467">identifier of</text></g></g></svg>