<?xml version="1.0" encoding="UTF-8" standalone="no"?><svg xmlns="http://www.w3.org/2000/svg" xmlns:xlink="http://www.w3.org/1999/xlink" contentStyleType="text/css" height="457px" preserveAspectRatio="none" style="width:772px;height:457px;background:#FFFFFF;" version="1.1" viewBox="0 0 772 457" width="772px" zoomAndPan="magnify"><defs/><g><!--MD5=[95566c14aa2c007e871ef9bf05e5f603]
cluster referential--><g id="cluster_referential"><path d="M293.5,239.63 L366.5,239.63 A3.75,3.75 0 0 1 369,242.13 L376,264.6979 L762.5,264.6979 A2.5,2.5 0 0 1 765,267.1979 L765,448.13 A2.5,2.5 0 0 1 762.5,450.63 L293.5,450.63 A2.5,2.5 0 0 1 291,448.13 L291,242.13 A2.5,2.5 0 0 1 293.5,239.63 " fill="#DDDDDD" style="stroke:#000000;stroke-width:1.5;"/><line style="stroke:#000000;stroke-width:1.5;" x1="291" x2="376" y1="264.6979" y2="264.6979"/><text fill="#000000" font-family="sans-serif" font-size="14" font-weight="bold" lengthAdjust="spacing" textLength="72" x="295" y="256.5959">referential</text></g><!--MD5=[0dc6d102fd548e867df8be71f277f036]
class ProgramPrivilege--><g id="elem_ProgramPrivilege"><rect codeLine="14" fill="#F1F1F1" height="32" id="ProgramPrivilege" rx="2.5" ry="2.5" style="stroke:#181818;stroke-width:0.5;" width="148" x="307" y="351.13"/><ellipse cx="322" cy="367.13" fill="#ADD1B2" rx="11" ry="11" style="stroke:#181818;stroke-width:1.0;"/><path d="M321.4688,374.0519 Q319.7188,374.0519 318.5781,373.3175 Q317.4531,372.5675 316.8906,371.2238 Q316.3438,369.8644 316.3438,368.0675 Q316.3438,366.0363 317,364.5831 Q317.6563,363.13 318.9375,362.3488 Q320.2188,361.5675 322.0938,361.5675 Q322.9844,361.5675 323.6563,361.755 Q324.3281,361.9269 325.0156,362.2706 L324.2031,364.2863 Q323.5781,363.9738 323.0313,363.8488 Q322.5,363.7238 322.0156,363.7238 Q320.8438,363.7238 320.1406,364.255 Q319.4375,364.7863 319.1406,365.7394 Q318.8438,366.6925 318.8438,367.9581 Q318.8438,369.9738 319.5625,370.9425 Q320.2813,371.8956 321.875,371.8956 Q322.4688,371.8956 323.0938,371.7394 Q323.7188,371.5831 324.5469,371.2081 L324.5469,373.4269 Q323.8125,373.7394 323.0156,373.8956 Q322.2344,374.0519 321.4688,374.0519 Z " fill="#000000"/><text fill="#000000" font-family="sans-serif" font-size="14" lengthAdjust="spacing" textLength="116" x="336" y="372.562">ProgramPrivilege</text></g><!--MD5=[b002a59bd0937a59f2f8cb21fe124139]
class ProgramPrivilegeEnum--><g id="elem_ProgramPrivilegeEnum"><rect codeLine="17" fill="#F1F1F1" height="135.3396" id="ProgramPrivilegeEnum" rx="2.5" ry="2.5" style="stroke:#181818;stroke-width:0.5;" width="187" x="562.5" y="299.63"/><ellipse cx="577.5" cy="315.63" fill="#EB937F" rx="11" ry="11" style="stroke:#181818;stroke-width:1.0;"/><path d="M573.8594,322.13 L573.8594,309.9894 L581.5156,309.9894 L581.5156,312.1144 L576.2344,312.1144 L576.2344,314.7706 L581.25,314.7706 L581.25,316.8956 L576.2344,316.8956 L576.2344,320.005 L581.5156,320.005 L581.5156,322.13 L573.8594,322.13 Z " fill="#000000"/><text fill="#000000" font-family="sans-serif" font-size="14" lengthAdjust="spacing" textLength="155" x="591.5" y="321.062">ProgramPrivilegeEnum</text><line style="stroke:#181818;stroke-width:0.5;" x1="563.5" x2="748.5" y1="331.63" y2="331.63"/><ellipse cx="573.5" cy="346.664" fill="none" rx="3" ry="3" style="stroke:#038048;stroke-width:1.0;"/><text fill="#000000" font-family="sans-serif" font-size="14" lengthAdjust="spacing" textLength="85" x="582.5" y="350.5959">MANAGER: 1</text><ellipse cx="573.5" cy="365.7319" fill="none" rx="3" ry="3" style="stroke:#038048;stroke-width:1.0;"/><text fill="#000000" font-family="sans-serif" font-size="14" lengthAdjust="spacing" textLength="86" x="582.5" y="369.6639">OBSERVER: 2</text><ellipse cx="573.5" cy="384.7998" fill="none" rx="3" ry="3" style="stroke:#038048;stroke-width:1.0;"/><text fill="#000000" font-family="sans-serif" font-size="14" lengthAdjust="spacing" textLength="67" x="582.5" y="388.7318">VIEWER: 3</text><ellipse cx="573.5" cy="403.8677" fill="none" rx="3" ry="3" style="stroke:#038048;stroke-width:1.0;"/><text fill="#000000" font-family="sans-serif" font-size="14" lengthAdjust="spacing" textLength="92" x="582.5" y="407.7997">VALIDATOR: 4</text><ellipse cx="573.5" cy="422.9356" fill="none" rx="3" ry="3" style="stroke:#038048;stroke-width:1.0;"/><text fill="#000000" font-family="sans-serif" font-size="14" lengthAdjust="spacing" textLength="87" x="582.5" y="426.8676">QUALIFIER: 5</text></g><!--MD5=[175f95e045c1a44aed0b30df3abe0e5c]
class Program--><g id="elem_Program"><rect codeLine="3" fill="#F1F1F1" height="97.2038" id="Program" rx="2.5" ry="2.5" style="stroke:#181818;stroke-width:0.5;" width="90" x="7" y="59.63"/><ellipse cx="22" cy="75.63" fill="#ADD1B2" rx="11" ry="11" style="stroke:#181818;stroke-width:1.0;"/><path d="M21.4688,82.5519 Q19.7188,82.5519 18.5781,81.8175 Q17.4531,81.0675 16.8906,79.7238 Q16.3438,78.3644 16.3438,76.5675 Q16.3438,74.5363 17,73.0831 Q17.6563,71.63 18.9375,70.8488 Q20.2188,70.0675 22.0938,70.0675 Q22.9844,70.0675 23.6563,70.255 Q24.3281,70.4269 25.0156,70.7706 L24.2031,72.7863 Q23.5781,72.4738 23.0313,72.3488 Q22.5,72.2238 22.0156,72.2238 Q20.8438,72.2238 20.1406,72.755 Q19.4375,73.2863 19.1406,74.2394 Q18.8438,75.1925 18.8438,76.4581 Q18.8438,78.4738 19.5625,79.4425 Q20.2813,80.3956 21.875,80.3956 Q22.4688,80.3956 23.0938,80.2394 Q23.7188,80.0831 24.5469,79.7081 L24.5469,81.9269 Q23.8125,82.2394 23.0156,82.3956 Q22.2344,82.5519 21.4688,82.5519 Z " fill="#000000"/><text fill="#000000" font-family="sans-serif" font-size="14" lengthAdjust="spacing" textLength="58" x="36" y="81.062">Program</text><line style="stroke:#181818;stroke-width:0.5;" x1="8" x2="96" y1="91.63" y2="91.63"/><ellipse cx="18" cy="106.664" fill="none" rx="3" ry="3" style="stroke:#038048;stroke-width:1.0;"/><text fill="#000000" font-family="sans-serif" font-size="14" lengthAdjust="spacing" textLength="13" x="27" y="110.5959">id</text><ellipse cx="18" cy="125.7319" fill="none" rx="3" ry="3" style="stroke:#038048;stroke-width:1.0;"/><text fill="#000000" font-family="sans-serif" font-size="14" lengthAdjust="spacing" textLength="33" x="27" y="129.6639">label</text><ellipse cx="18" cy="144.7998" fill="none" rx="3" ry="3" style="stroke:#038048;stroke-width:1.0;"/><text fill="#000000" font-family="sans-serif" font-size="14" lengthAdjust="spacing" textLength="38" x="27" y="148.7318">name</text></g><!--MD5=[3df94286af967b7b318d9e429d9f0990]
class Program2Department--><g id="elem_Program2Department"><rect fill="#F1F1F1" height="32" id="Program2Department" rx="2.5" ry="2.5" style="stroke:#181818;stroke-width:0.5;" width="179" x="413.5" y="92.13"/><ellipse cx="428.5" cy="108.13" fill="#ADD1B2" rx="11" ry="11" style="stroke:#181818;stroke-width:1.0;"/><path d="M427.9688,115.0519 Q426.2188,115.0519 425.0781,114.3175 Q423.9531,113.5675 423.3906,112.2238 Q422.8438,110.8644 422.8438,109.0675 Q422.8438,107.0363 423.5,105.5831 Q424.1563,104.13 425.4375,103.3488 Q426.7188,102.5675 428.5938,102.5675 Q429.4844,102.5675 430.1563,102.755 Q430.8281,102.9269 431.5156,103.2706 L430.7031,105.2863 Q430.0781,104.9738 429.5313,104.8488 Q429,104.7238 428.5156,104.7238 Q427.3438,104.7238 426.6406,105.255 Q425.9375,105.7863 425.6406,106.7394 Q425.3438,107.6925 425.3438,108.9581 Q425.3438,110.9738 426.0625,111.9425 Q426.7813,112.8956 428.375,112.8956 Q428.9688,112.8956 429.5938,112.7394 Q430.2188,112.5831 431.0469,112.2081 L431.0469,114.4269 Q430.3125,114.7394 429.5156,114.8956 Q428.7344,115.0519 427.9688,115.0519 Z " fill="#000000"/><text fill="#000000" font-family="sans-serif" font-size="14" lengthAdjust="spacing" textLength="147" x="442.5" y="113.562">Program2Department</text></g><!--MD5=[28472aaa8468b3f648ed3c271d7bd3ae]
class Program2Person--><g id="elem_Program2Person"><rect fill="#F1F1F1" height="32" id="Program2Person" rx="2.5" ry="2.5" style="stroke:#181818;stroke-width:0.5;" width="144" x="234" y="92.13"/><ellipse cx="249" cy="108.13" fill="#ADD1B2" rx="11" ry="11" style="stroke:#181818;stroke-width:1.0;"/><path d="M248.4688,115.0519 Q246.7188,115.0519 245.5781,114.3175 Q244.4531,113.5675 243.8906,112.2238 Q243.3438,110.8644 243.3438,109.0675 Q243.3438,107.0363 244,105.5831 Q244.6563,104.13 245.9375,103.3488 Q247.2188,102.5675 249.0938,102.5675 Q249.9844,102.5675 250.6563,102.755 Q251.3281,102.9269 252.0156,103.2706 L251.2031,105.2863 Q250.5781,104.9738 250.0313,104.8488 Q249.5,104.7238 249.0156,104.7238 Q247.8438,104.7238 247.1406,105.255 Q246.4375,105.7863 246.1406,106.7394 Q245.8438,107.6925 245.8438,108.9581 Q245.8438,110.9738 246.5625,111.9425 Q247.2813,112.8956 248.875,112.8956 Q249.4688,112.8956 250.0938,112.7394 Q250.7188,112.5831 251.5469,112.2081 L251.5469,114.4269 Q250.8125,114.7394 250.0156,114.8956 Q249.2344,115.0519 248.4688,115.0519 Z " fill="#000000"/><text fill="#000000" font-family="sans-serif" font-size="14" lengthAdjust="spacing" textLength="112" x="263" y="113.562">Program2Person</text></g><!--MD5=[377953f0e8c8c0131a700fca43c84158]
class Strategy--><g id="elem_Strategy"><rect fill="#F1F1F1" height="32" id="Strategy" rx="2.5" ry="2.5" style="stroke:#181818;stroke-width:0.5;" width="88" x="8" y="351.13"/><ellipse cx="23" cy="367.13" fill="#ADD1B2" rx="11" ry="11" style="stroke:#181818;stroke-width:1.0;"/><path d="M22.4688,374.0519 Q20.7188,374.0519 19.5781,373.3175 Q18.4531,372.5675 17.8906,371.2238 Q17.3438,369.8644 17.3438,368.0675 Q17.3438,366.0363 18,364.5831 Q18.6563,363.13 19.9375,362.3488 Q21.2188,361.5675 23.0938,361.5675 Q23.9844,361.5675 24.6563,361.755 Q25.3281,361.9269 26.0156,362.2706 L25.2031,364.2863 Q24.5781,363.9738 24.0313,363.8488 Q23.5,363.7238 23.0156,363.7238 Q21.8438,363.7238 21.1406,364.255 Q20.4375,364.7863 20.1406,365.7394 Q19.8438,366.6925 19.8438,367.9581 Q19.8438,369.9738 20.5625,370.9425 Q21.2813,371.8956 22.875,371.8956 Q23.4688,371.8956 24.0938,371.7394 Q24.7188,371.5831 25.5469,371.2081 L25.5469,373.4269 Q24.8125,373.7394 24.0156,373.8956 Q23.2344,374.0519 22.4688,374.0519 Z " fill="#000000"/><text fill="#000000" font-family="sans-serif" font-size="14" lengthAdjust="spacing" textLength="56" x="37" y="372.562">Strategy</text></g><!--MD5=[f8a3df79209c4daa2377aace8e1c526f]
link Program to Program2Department--><g id="link_Program_Program2Department"><path codeLine="9" d="M106.8752,62.7077 C106.8752,62.7077 155.07,32.29 181,24.63 C244.08,6 264.86,10.04 329,24.63 C380,36.23 433.5,64.73 467.49,85.21 " fill="none" id="Program-Program2Department" style="stroke:#181818;stroke-width:1.0;"/><polygon fill="#181818" points="478.66,92.07,473.0844,83.9513,474.3994,89.4532,468.8976,90.7682,478.66,92.07" style="stroke:#181818;stroke-width:1.0;"/><line style="stroke:#181818;stroke-width:1.0;" x1="474.3994" x2="467.58" y1="89.4532" y2="85.265"/><polygon fill="#181818" points="97.13,69.71,104.3367,69.4573,106.8752,62.7077,99.6685,62.9605,97.13,69.71" style="stroke:#181818;stroke-width:1.0;"/><text fill="#000000" font-family="sans-serif" font-size="13" lengthAdjust="spacing" textLength="146" x="182" y="25.527">authorized departments</text><text fill="#000000" font-family="sans-serif" font-size="13" lengthAdjust="spacing" textLength="20" x="446.4264" y="80.3433">0..*</text></g><!--MD5=[a7dc997e9a2590f08073c74ab191e4b3]
link Program to Program2Person--><g id="link_Program_Program2Person"><path codeLine="10" d="M109.12,108.13 C109.12,108.13 184.42,108.13 220.79,108.13 " fill="none" id="Program-Program2Person" style="stroke:#181818;stroke-width:1.0;"/><polygon fill="#181818" points="233.94,108.13,224.94,104.13,228.94,108.13,224.94,112.13,233.94,108.13" style="stroke:#181818;stroke-width:1.0;"/><line style="stroke:#181818;stroke-width:1.0;" x1="228.94" x2="220.94" y1="108.13" y2="108.13"/><polygon fill="#181818" points="97.12,108.13,103.12,112.13,109.12,108.13,103.12,104.13,97.12,108.13" style="stroke:#181818;stroke-width:1.0;"/><text fill="#000000" font-family="sans-serif" font-size="13" lengthAdjust="spacing" textLength="100" x="115.5" y="101.027">authorized users</text><text fill="#000000" font-family="sans-serif" font-size="13" lengthAdjust="spacing" textLength="20" x="206.1187" y="122.8708">0..*</text></g><!--MD5=[5b4857a777ebecf2bcbe304993cd8071]
reverse link Program to Strategy--><g id="link_Program_Strategy"><path codeLine="11" d="M52,169.9 C52,229.54 52,316.43 52,351.07 " fill="none" id="Program-backto-Strategy" style="stroke:#181818;stroke-width:1.0;"/><polygon fill="#181818" points="52,156.87,48,162.87,52,168.87,56,162.87,52,156.87" style="stroke:#181818;stroke-width:1.0;"/><text fill="#000000" font-family="sans-serif" font-size="13" lengthAdjust="spacing" textLength="51" x="53" y="210.527">contains</text><text fill="#000000" font-family="sans-serif" font-size="13" lengthAdjust="spacing" textLength="7" x="44.5078" y="178.8517">1</text><text fill="#000000" font-family="sans-serif" font-size="13" lengthAdjust="spacing" textLength="20" x="28.4375" y="339.3433">1..*</text></g><!--MD5=[2b219ddcccd9fb2858ea605b40c4ebd6]
link Program2Department to ProgramPrivilege--><g id="link_Program2Department_ProgramPrivilege"><path codeLine="25" d="M495.73,124.44 C474.71,168.72 413.85,296.94 390.38,346.37 " fill="none" id="Program2Department-to-ProgramPrivilege" style="stroke:#181818;stroke-width:1.0;"/><polygon fill="#181818" points="388.23,350.9,395.703,344.4848,390.3741,346.3831,388.4759,341.0542,388.23,350.9" style="stroke:#181818;stroke-width:1.0;"/><text fill="#000000" font-family="sans-serif" font-size="13" lengthAdjust="spacing" textLength="38" x="475" y="201.527">access</text><text fill="#000000" font-family="sans-serif" font-size="13" lengthAdjust="spacing" textLength="57" x="467" y="219.233">privileges</text><text fill="#000000" font-family="sans-serif" font-size="13" lengthAdjust="spacing" textLength="7" x="485.4317" y="146.0432">*</text><text fill="#000000" font-family="sans-serif" font-size="13" lengthAdjust="spacing" textLength="20" x="367.2778" y="339.4174">1..*</text></g><!--MD5=[93465e8c8bab112339bf72dc136258af]
link Program2Person to ProgramPrivilege--><g id="link_Program2Person_ProgramPrivilege"><path codeLine="26" d="M310.47,124.44 C323.36,168.63 360.66,296.42 375.15,346.07 " fill="none" id="Program2Person-to-ProgramPrivilege" style="stroke:#181818;stroke-width:1.0;"/><polygon fill="#181818" points="376.56,350.9,377.88,341.14,375.16,346.1,370.2,343.38,376.56,350.9" style="stroke:#181818;stroke-width:1.0;"/><text fill="#000000" font-family="sans-serif" font-size="13" lengthAdjust="spacing" textLength="38" x="351" y="201.527">access</text><text fill="#000000" font-family="sans-serif" font-size="13" lengthAdjust="spacing" textLength="57" x="343" y="219.233">privileges</text><text fill="#000000" font-family="sans-serif" font-size="13" lengthAdjust="spacing" textLength="7" x="303.7671" y="146.0432">*</text><text fill="#000000" font-family="sans-serif" font-size="13" lengthAdjust="spacing" textLength="20" x="351.5963" y="339.4174">1..*</text></g><!--MD5=[a753944e57d01e62defef7a080f7b272]
reverse link ProgramPrivilege to ProgramPrivilegeEnum--><g id="link_ProgramPrivilege_ProgramPrivilegeEnum"><path codeLine="27" d="M460.13,367.13 C492.04,367.13 529.1,367.13 562.34,367.13 " fill="none" id="ProgramPrivilege-backto-ProgramPrivilegeEnum" style="stroke:#181818;stroke-width:1.0;stroke-dasharray:7.0,7.0;"/><polygon fill="#181818" points="455.06,367.13,464.06,371.13,460.06,367.13,464.06,363.13,455.06,367.13" style="stroke:#181818;stroke-width:1.0;"/><text fill="#000000" font-family="sans-serif" font-size="13" lengthAdjust="spacing" textLength="27" x="495.25" y="342.027">is an</text><text fill="#000000" font-family="sans-serif" font-size="13" lengthAdjust="spacing" textLength="68" x="476.25" y="359.733">identifier of</text></g></g></svg>