<?xml version="1.0" encoding="us-ascii" standalone="no"?><svg xmlns="http://www.w3.org/2000/svg" xmlns:xlink="http://www.w3.org/1999/xlink" contentStyleType="text/css" height="423px" preserveAspectRatio="none" style="width:786px;height:423px;background:#FFFFFF;" version="1.1" viewBox="0 0 786 423" width="786px" zoomAndPan="magnify"><defs/><g><!--cluster referential--><g id="cluster_referential"><path d="M303.5,225.78 L387.5,225.78 A3.75,3.75 0 0 1 390,228.28 L397,248.0769 L776.5,248.0769 A2.5,2.5 0 0 1 779,250.5769 L779,414.28 A2.5,2.5 0 0 1 776.5,416.78 L303.5,416.78 A2.5,2.5 0 0 1 301,414.28 L301,228.28 A2.5,2.5 0 0 1 303.5,225.78 " fill="#DDDDDD" style="stroke:#000000;stroke-width:1.5;"/><line style="stroke:#000000;stroke-width:1.5;" x1="301" x2="397" y1="248.0769" y2="248.0769"/><text fill="#000000" font-family="sans-serif" font-size="14" font-weight="bold" lengthAdjust="spacing" textLength="83" x="305" y="240.7751">referential</text></g><!--class ProgramPrivilege--><g id="elem_ProgramPrivilege"><rect codeLine="14" fill="#F1F1F1" height="32" id="ProgramPrivilege" rx="2.5" ry="2.5" style="stroke:#181818;stroke-width:0.5;" width="147" x="317.5" y="324.28"/><ellipse cx="332.5" cy="340.28" fill="#ADD1B2" rx="11" ry="11" style="stroke:#181818;stroke-width:1.0;"/><path d="M335.4688,345.9206 Q334.8906,346.2175 334.25,346.3581 Q333.6094,346.5144 332.9063,346.5144 Q330.4063,346.5144 329.0781,344.8738 Q327.7656,343.2175 327.7656,340.0925 Q327.7656,336.9675 329.0781,335.3113 Q330.4063,333.655 332.9063,333.655 Q333.6094,333.655 334.25,333.8113 Q334.9063,333.9675 335.4688,334.2644 L335.4688,336.9831 Q334.8438,336.405 334.25,336.1394 Q333.6563,335.8581 333.0313,335.8581 Q331.6875,335.8581 331,336.9363 Q330.3125,337.9988 330.3125,340.0925 Q330.3125,342.1863 331,343.2644 Q331.6875,344.3269 333.0313,344.3269 Q333.6563,344.3269 334.25,344.0613 Q334.8438,343.78 335.4688,343.2019 L335.4688,345.9206 Z " fill="#000000"/><text fill="#000000" font-family="sans-serif" font-size="14" lengthAdjust="spacing" textLength="115" x="346.5" y="345.1267">ProgramPrivilege</text></g><!--class ProgramPrivilegeEnum--><g id="elem_ProgramPrivilegeEnum"><rect codeLine="17" fill="#F1F1F1" height="121.4844" id="ProgramPrivilegeEnum" rx="2.5" ry="2.5" style="stroke:#181818;stroke-width:0.5;" width="187" x="576.5" y="279.78"/><ellipse cx="591.5" cy="295.78" fill="#EB937F" rx="11" ry="11" style="stroke:#181818;stroke-width:1.0;"/><path d="M595.6094,301.78 L587.8906,301.78 L587.8906,289.3894 L595.6094,289.3894 L595.6094,291.5456 L590.3438,291.5456 L590.3438,294.2175 L595.1094,294.2175 L595.1094,296.3738 L590.3438,296.3738 L590.3438,299.6238 L595.6094,299.6238 L595.6094,301.78 Z " fill="#000000"/><text fill="#000000" font-family="sans-serif" font-size="14" lengthAdjust="spacing" textLength="155" x="605.5" y="300.6267">ProgramPrivilegeEnum</text><line style="stroke:#181818;stroke-width:0.5;" x1="577.5" x2="762.5" y1="311.78" y2="311.78"/><ellipse cx="587.5" cy="325.4284" fill="none" rx="3" ry="3" style="stroke:#038048;stroke-width:1.0;"/><text fill="#000000" font-family="sans-serif" font-size="14" lengthAdjust="spacing" textLength="88" x="596.5" y="328.7751">MANAGER: 1</text><ellipse cx="587.5" cy="341.7253" fill="none" rx="3" ry="3" style="stroke:#038048;stroke-width:1.0;"/><text fill="#000000" font-family="sans-serif" font-size="14" lengthAdjust="spacing" textLength="95" x="596.5" y="345.072">OBSERVER: 2</text><ellipse cx="587.5" cy="358.0222" fill="none" rx="3" ry="3" style="stroke:#038048;stroke-width:1.0;"/><text fill="#000000" font-family="sans-serif" font-size="14" lengthAdjust="spacing" textLength="71" x="596.5" y="361.3689">VIEWER: 3</text><ellipse cx="587.5" cy="374.3191" fill="none" rx="3" ry="3" style="stroke:#038048;stroke-width:1.0;"/><text fill="#000000" font-family="sans-serif" font-size="14" lengthAdjust="spacing" textLength="96" x="596.5" y="377.6657">VALIDATOR: 4</text><ellipse cx="587.5" cy="390.6159" fill="none" rx="3" ry="3" style="stroke:#038048;stroke-width:1.0;"/><text fill="#000000" font-family="sans-serif" font-size="14" lengthAdjust="spacing" textLength="88" x="596.5" y="393.9626">QUALIFIER: 5</text></g><!--class Program--><g id="elem_Program"><rect codeLine="3" fill="#F1F1F1" height="88.8906" id="Program" rx="2.5" ry="2.5" style="stroke:#181818;stroke-width:0.5;" width="90" x="7" y="58.78"/><ellipse cx="22" cy="74.78" fill="#ADD1B2" rx="11" ry="11" style="stroke:#181818;stroke-width:1.0;"/><path d="M24.9688,80.4206 Q24.3906,80.7175 23.75,80.8581 Q23.1094,81.0144 22.4063,81.0144 Q19.9063,81.0144 18.5781,79.3737 Q17.2656,77.7175 17.2656,74.5925 Q17.2656,71.4675 18.5781,69.8112 Q19.9063,68.155 22.4063,68.155 Q23.1094,68.155 23.75,68.3112 Q24.4063,68.4675 24.9688,68.7644 L24.9688,71.4831 Q24.3438,70.905 23.75,70.6394 Q23.1563,70.3581 22.5313,70.3581 Q21.1875,70.3581 20.5,71.4362 Q19.8125,72.4987 19.8125,74.5925 Q19.8125,76.6862 20.5,77.7644 Q21.1875,78.8269 22.5313,78.8269 Q23.1563,78.8269 23.75,78.5612 Q24.3438,78.28 24.9688,77.7019 L24.9688,80.4206 Z " fill="#000000"/><text fill="#000000" font-family="sans-serif" font-size="14" lengthAdjust="spacing" textLength="58" x="36" y="79.6267">Program</text><line style="stroke:#181818;stroke-width:0.5;" x1="8" x2="96" y1="90.78" y2="90.78"/><ellipse cx="18" cy="104.4284" fill="none" rx="3" ry="3" style="stroke:#038048;stroke-width:1.0;"/><text fill="#000000" font-family="sans-serif" font-size="14" lengthAdjust="spacing" textLength="12" x="27" y="107.7751">id</text><ellipse cx="18" cy="120.7253" fill="none" rx="3" ry="3" style="stroke:#038048;stroke-width:1.0;"/><text fill="#000000" font-family="sans-serif" font-size="14" lengthAdjust="spacing" textLength="32" x="27" y="124.072">label</text><ellipse cx="18" cy="137.0222" fill="none" rx="3" ry="3" style="stroke:#038048;stroke-width:1.0;"/><text fill="#000000" font-family="sans-serif" font-size="14" lengthAdjust="spacing" textLength="39" x="27" y="140.3689">name</text></g><!--class Program2Department--><g id="elem_Program2Department"><rect fill="#F1F1F1" height="32" id="Program2Department" rx="2.5" ry="2.5" style="stroke:#181818;stroke-width:0.5;" width="182" x="424" y="87.28"/><ellipse cx="439" cy="103.28" fill="#ADD1B2" rx="11" ry="11" style="stroke:#181818;stroke-width:1.0;"/><path d="M441.9688,108.9206 Q441.3906,109.2175 440.75,109.3581 Q440.1094,109.5144 439.4063,109.5144 Q436.9063,109.5144 435.5781,107.8737 Q434.2656,106.2175 434.2656,103.0925 Q434.2656,99.9675 435.5781,98.3112 Q436.9063,96.655 439.4063,96.655 Q440.1094,96.655 440.75,96.8112 Q441.4063,96.9675 441.9688,97.2644 L441.9688,99.9831 Q441.3438,99.405 440.75,99.1394 Q440.1563,98.8581 439.5313,98.8581 Q438.1875,98.8581 437.5,99.9362 Q436.8125,100.9987 436.8125,103.0925 Q436.8125,105.1862 437.5,106.2644 Q438.1875,107.3269 439.5313,107.3269 Q440.1563,107.3269 440.75,107.0612 Q441.3438,106.78 441.9688,106.2019 L441.9688,108.9206 Z " fill="#000000"/><text fill="#000000" font-family="sans-serif" font-size="14" lengthAdjust="spacing" textLength="150" x="453" y="108.1267">Program2Department</text></g><!--class Program2Person--><g id="elem_Program2Person"><rect fill="#F1F1F1" height="32" id="Program2Person" rx="2.5" ry="2.5" style="stroke:#181818;stroke-width:0.5;" width="148" x="241" y="87.28"/><ellipse cx="256" cy="103.28" fill="#ADD1B2" rx="11" ry="11" style="stroke:#181818;stroke-width:1.0;"/><path d="M258.9688,108.9206 Q258.3906,109.2175 257.75,109.3581 Q257.1094,109.5144 256.4063,109.5144 Q253.9063,109.5144 252.5781,107.8737 Q251.2656,106.2175 251.2656,103.0925 Q251.2656,99.9675 252.5781,98.3112 Q253.9063,96.655 256.4063,96.655 Q257.1094,96.655 257.75,96.8112 Q258.4063,96.9675 258.9688,97.2644 L258.9688,99.9831 Q258.3438,99.405 257.75,99.1394 Q257.1563,98.8581 256.5313,98.8581 Q255.1875,98.8581 254.5,99.9362 Q253.8125,100.9987 253.8125,103.0925 Q253.8125,105.1862 254.5,106.2644 Q255.1875,107.3269 256.5313,107.3269 Q257.1563,107.3269 257.75,107.0612 Q258.3438,106.78 258.9688,106.2019 L258.9688,108.9206 Z " fill="#000000"/><text fill="#000000" font-family="sans-serif" font-size="14" lengthAdjust="spacing" textLength="116" x="270" y="108.1267">Program2Person</text></g><!--class Strategy--><g id="elem_Strategy"><rect fill="#F1F1F1" height="32" id="Strategy" rx="2.5" ry="2.5" style="stroke:#181818;stroke-width:0.5;" width="89" x="7.5" y="324.28"/><ellipse cx="22.5" cy="340.28" fill="#ADD1B2" rx="11" ry="11" style="stroke:#181818;stroke-width:1.0;"/><path d="M25.4688,345.9206 Q24.8906,346.2175 24.25,346.3581 Q23.6094,346.5144 22.9063,346.5144 Q20.4063,346.5144 19.0781,344.8738 Q17.7656,343.2175 17.7656,340.0925 Q17.7656,336.9675 19.0781,335.3113 Q20.4063,333.655 22.9063,333.655 Q23.6094,333.655 24.25,333.8113 Q24.9063,333.9675 25.4688,334.2644 L25.4688,336.9831 Q24.8438,336.405 24.25,336.1394 Q23.6563,335.8581 23.0313,335.8581 Q21.6875,335.8581 21,336.9363 Q20.3125,337.9988 20.3125,340.0925 Q20.3125,342.1863 21,343.2644 Q21.6875,344.3269 23.0313,344.3269 Q23.6563,344.3269 24.25,344.0613 Q24.8438,343.78 25.4688,343.2019 L25.4688,345.9206 Z " fill="#000000"/><text fill="#000000" font-family="sans-serif" font-size="14" lengthAdjust="spacing" textLength="57" x="36.5" y="345.1267">Strategy</text></g><!--link Program to Program2Department--><g id="link_Program_Program2Department"><path codeLine="9" d="M108.05,60.15 C129.77,45.98 155.63,32.01 181.5,24.78 C248.7,6 270.24,10.29 338.5,24.78 C388.83,35.47 442.22,61.54 476.93,80.71 " fill="none" id="Program-Program2Department" style="stroke:#181818;stroke-width:1.0;"/><polygon fill="#181818" points="97.09,67.54,104.301,67.5027,107.04,60.832,99.829,60.8693,97.09,67.54" style="stroke:#181818;stroke-width:1.0;"/><polygon fill="#181818" points="488.39,87.17,482.5182,79.2629,484.0357,84.7124,478.5861,86.2299,488.39,87.17" style="stroke:#181818;stroke-width:1.0;"/><line style="stroke:#181818;stroke-width:1.0;" x1="484.0357" x2="477.065" y1="84.7124" y2="80.79"/><text fill="#000000" font-family="sans-serif" font-size="13" lengthAdjust="spacing" textLength="155" x="182.5" y="24.8469">authorized departments</text><text fill="#000000" font-family="sans-serif" font-size="13" lengthAdjust="spacing" textLength="23" x="452.2897" y="76.1438">0..*</text></g><!--link Program to Program2Person--><g id="link_Program_Program2Person"><path codeLine="10" d="M110.27,103.28 C144.76,103.28 189.11,103.28 227.71,103.28 " fill="none" id="Program-Program2Person" style="stroke:#181818;stroke-width:1.0;"/><polygon fill="#181818" points="97.21,103.28,103.21,107.28,109.21,103.28,103.21,99.28,97.21,103.28" style="stroke:#181818;stroke-width:1.0;"/><polygon fill="#181818" points="240.83,103.28,231.83,99.28,235.83,103.28,231.83,107.28,240.83,103.28" style="stroke:#181818;stroke-width:1.0;"/><line style="stroke:#181818;stroke-width:1.0;" x1="235.83" x2="227.83" y1="103.28" y2="103.28"/><text fill="#000000" font-family="sans-serif" font-size="13" lengthAdjust="spacing" textLength="107" x="115.5" y="96.3469">authorized users</text><text fill="#000000" font-family="sans-serif" font-size="13" lengthAdjust="spacing" textLength="23" x="209.9323" y="116.0444">0..*</text></g><!--reverse link Program to Strategy--><g id="link_Program_Strategy"><path codeLine="11" d="M52,161.06 C52,214.82 52,291.99 52,324.23 " fill="none" id="Program-backto-Strategy" style="stroke:#181818;stroke-width:1.0;"/><polygon fill="#181818" points="52,147.93,48,153.93,52,159.93,56,153.93,52,147.93" style="stroke:#181818;stroke-width:1.0;"/><text fill="#000000" font-family="sans-serif" font-size="13" lengthAdjust="spacing" textLength="54" x="53" y="198.3469">contains</text><text fill="#000000" font-family="sans-serif" font-size="13" lengthAdjust="spacing" textLength="8" x="43.4125" y="167.6742">1</text><text fill="#000000" font-family="sans-serif" font-size="13" lengthAdjust="spacing" textLength="23" x="25.0469" y="313.2244">1..*</text></g><!--link Program2Department to ProgramPrivilege--><g id="link_Program2Department_ProgramPrivilege"><path codeLine="25" d="M507.05,119.34 C485.45,160.28 425.65,273.61 401.41,319.55 " fill="none" id="Program2Department-to-ProgramPrivilege" style="stroke:#181818;stroke-width:1.0;"/><polygon fill="#181818" points="399.04,324.04,406.7925,317.9655,401.384,319.6235,399.7261,314.2151,399.04,324.04" style="stroke:#181818;stroke-width:1.0;"/><text fill="#000000" font-family="sans-serif" font-size="13" lengthAdjust="spacing" textLength="44" x="485" y="190.8469">access</text><text fill="#000000" font-family="sans-serif" font-size="13" lengthAdjust="spacing" textLength="60" x="479" y="205.9797">privileges</text><text fill="#000000" font-family="sans-serif" font-size="13" lengthAdjust="spacing" textLength="7" x="496.2572" y="139.2331">*</text><text fill="#000000" font-family="sans-serif" font-size="13" lengthAdjust="spacing" textLength="23" x="374.8939" y="313.265">1..*</text></g><!--link Program2Person to ProgramPrivilege--><g id="link_Program2Person_ProgramPrivilege"><path codeLine="26" d="M319.87,119.34 C333.08,160.19 369.61,273.15 384.53,319.27 " fill="none" id="Program2Person-to-ProgramPrivilege" style="stroke:#181818;stroke-width:1.0;"/><polygon fill="#181818" points="386.07,324.04,387.125,314.2478,384.5404,319.2797,379.5085,316.6951,386.07,324.04" style="stroke:#181818;stroke-width:1.0;"/><text fill="#000000" font-family="sans-serif" font-size="13" lengthAdjust="spacing" textLength="44" x="359" y="190.8469">access</text><text fill="#000000" font-family="sans-serif" font-size="13" lengthAdjust="spacing" textLength="60" x="353" y="205.9797">privileges</text><text fill="#000000" font-family="sans-serif" font-size="13" lengthAdjust="spacing" textLength="7" x="313.3238" y="139.2331">*</text><text fill="#000000" font-family="sans-serif" font-size="13" lengthAdjust="spacing" textLength="23" x="357.6276" y="313.265">1..*</text></g><!--reverse link ProgramPrivilege to ProgramPrivilegeEnum--><g id="link_ProgramPrivilege_ProgramPrivilegeEnum"><path codeLine="27" d="M469.93,340.28 C503.06,340.28 541.83,340.28 576.38,340.28 " fill="none" id="ProgramPrivilege-backto-ProgramPrivilegeEnum" style="stroke:#181818;stroke-width:1.0;stroke-dasharray:7.0,7.0;"/><polygon fill="#181818" points="464.67,340.28,473.67,344.28,469.67,340.28,473.67,336.28,464.67,340.28" style="stroke:#181818;stroke-width:1.0;"/><text fill="#000000" font-family="sans-serif" font-size="13" lengthAdjust="spacing" textLength="30" x="505.5" y="318.3469">is an</text><text fill="#000000" font-family="sans-serif" font-size="13" lengthAdjust="spacing" textLength="71" x="487" y="333.4797">identifier of</text></g></g></svg>