<?xml version="1.0" encoding="UTF-8" standalone="no"?><svg xmlns="http://www.w3.org/2000/svg" xmlns:xlink="http://www.w3.org/1999/xlink" contentStyleType="text/css" height="439px" preserveAspectRatio="none" style="width:786px;height:439px;background:#FFFFFF;" version="1.1" viewBox="0 0 786 439" width="786px" zoomAndPan="magnify"><defs/><g><!--MD5=[95566c14aa2c007e871ef9bf05e5f603]
cluster referential--><g id="cluster_referential"><path d="M303.5,233.34 L387.5,233.34 A3.75,3.75 0 0 1 390,235.84 L397,255.6369 L776.5,255.6369 A2.5,2.5 0 0 1 779,258.1369 L779,429.84 A2.5,2.5 0 0 1 776.5,432.34 L303.5,432.34 A2.5,2.5 0 0 1 301,429.84 L301,235.84 A2.5,2.5 0 0 1 303.5,233.34 " fill="#DDDDDD" style="stroke:#000000;stroke-width:1.5;"/><line style="stroke:#000000;stroke-width:1.5;" x1="301" x2="397" y1="255.6369" y2="255.6369"/><text fill="#000000" font-family="sans-serif" font-size="14" font-weight="bold" lengthAdjust="spacing" textLength="83" x="305" y="248.3351">referential</text></g><!--MD5=[0dc6d102fd548e867df8be71f277f036]
class ProgramPrivilege--><g id="elem_ProgramPrivilege"><rect codeLine="13" fill="#F1F1F1" height="48" id="ProgramPrivilege" rx="2.5" ry="2.5" style="stroke:#181818;stroke-width:0.5;" width="147" x="317.5" y="327.84"/><ellipse cx="332.5" cy="343.84" fill="#ADD1B2" rx="11" ry="11" style="stroke:#181818;stroke-width:1.0;"/><path d="M335.4688,349.4806 Q334.8906,349.7775 334.25,349.9181 Q333.6094,350.0744 332.9063,350.0744 Q330.4063,350.0744 329.0781,348.4338 Q327.7656,346.7775 327.7656,343.6525 Q327.7656,340.5275 329.0781,338.8713 Q330.4063,337.215 332.9063,337.215 Q333.6094,337.215 334.25,337.3713 Q334.9063,337.5275 335.4688,337.8244 L335.4688,340.5431 Q334.8438,339.965 334.25,339.6994 Q333.6563,339.4181 333.0313,339.4181 Q331.6875,339.4181 331,340.4963 Q330.3125,341.5588 330.3125,343.6525 Q330.3125,345.7463 331,346.8244 Q331.6875,347.8869 333.0313,347.8869 Q333.6563,347.8869 334.25,347.6213 Q334.8438,347.34 335.4688,346.7619 L335.4688,349.4806 Z " fill="#000000"/><text fill="#000000" font-family="sans-serif" font-size="14" lengthAdjust="spacing" textLength="115" x="346.5" y="348.6867">ProgramPrivilege</text><line style="stroke:#181818;stroke-width:0.5;" x1="318.5" x2="463.5" y1="359.84" y2="359.84"/><line style="stroke:#181818;stroke-width:0.5;" x1="318.5" x2="463.5" y1="367.84" y2="367.84"/></g><!--MD5=[b002a59bd0937a59f2f8cb21fe124139]
class ProgramPrivilegeEnum--><g id="elem_ProgramPrivilegeEnum"><rect codeLine="16" fill="#F1F1F1" height="129.4844" id="ProgramPrivilegeEnum" rx="2.5" ry="2.5" style="stroke:#181818;stroke-width:0.5;" width="187" x="576.5" y="287.34"/><ellipse cx="591.5" cy="303.34" fill="#EB937F" rx="11" ry="11" style="stroke:#181818;stroke-width:1.0;"/><path d="M595.6094,309.34 L587.8906,309.34 L587.8906,296.9494 L595.6094,296.9494 L595.6094,299.1056 L590.3438,299.1056 L590.3438,301.7775 L595.1094,301.7775 L595.1094,303.9338 L590.3438,303.9338 L590.3438,307.1838 L595.6094,307.1838 L595.6094,309.34 Z " fill="#000000"/><text fill="#000000" font-family="sans-serif" font-size="14" lengthAdjust="spacing" textLength="155" x="605.5" y="308.1867">ProgramPrivilegeEnum</text><line style="stroke:#181818;stroke-width:0.5;" x1="577.5" x2="762.5" y1="319.34" y2="319.34"/><ellipse cx="587.5" cy="332.9884" fill="none" rx="3" ry="3" style="stroke:#038048;stroke-width:1.0;"/><text fill="#000000" font-family="sans-serif" font-size="14" lengthAdjust="spacing" textLength="88" x="596.5" y="336.3351">MANAGER: 1</text><ellipse cx="587.5" cy="349.2853" fill="none" rx="3" ry="3" style="stroke:#038048;stroke-width:1.0;"/><text fill="#000000" font-family="sans-serif" font-size="14" lengthAdjust="spacing" textLength="95" x="596.5" y="352.632">OBSERVER: 2</text><ellipse cx="587.5" cy="365.5822" fill="none" rx="3" ry="3" style="stroke:#038048;stroke-width:1.0;"/><text fill="#000000" font-family="sans-serif" font-size="14" lengthAdjust="spacing" textLength="71" x="596.5" y="368.9289">VIEWER: 3</text><ellipse cx="587.5" cy="381.8791" fill="none" rx="3" ry="3" style="stroke:#038048;stroke-width:1.0;"/><text fill="#000000" font-family="sans-serif" font-size="14" lengthAdjust="spacing" textLength="96" x="596.5" y="385.2257">VALIDATOR: 4</text><ellipse cx="587.5" cy="398.1759" fill="none" rx="3" ry="3" style="stroke:#038048;stroke-width:1.0;"/><text fill="#000000" font-family="sans-serif" font-size="14" lengthAdjust="spacing" textLength="88" x="596.5" y="401.5226">QUALIFIER: 5</text><line style="stroke:#181818;stroke-width:0.5;" x1="577.5" x2="762.5" y1="408.8244" y2="408.8244"/></g><!--MD5=[175f95e045c1a44aed0b30df3abe0e5c]
class Program--><g id="elem_Program"><rect codeLine="2" fill="#F1F1F1" height="96.8906" id="Program" rx="2.5" ry="2.5" style="stroke:#181818;stroke-width:0.5;" width="90" x="7" y="58.34"/><ellipse cx="22" cy="74.34" fill="#ADD1B2" rx="11" ry="11" style="stroke:#181818;stroke-width:1.0;"/><path d="M24.9688,79.9806 Q24.3906,80.2775 23.75,80.4181 Q23.1094,80.5744 22.4063,80.5744 Q19.9063,80.5744 18.5781,78.9337 Q17.2656,77.2775 17.2656,74.1525 Q17.2656,71.0275 18.5781,69.3712 Q19.9063,67.715 22.4063,67.715 Q23.1094,67.715 23.75,67.8712 Q24.4063,68.0275 24.9688,68.3244 L24.9688,71.0431 Q24.3438,70.465 23.75,70.1994 Q23.1563,69.9181 22.5313,69.9181 Q21.1875,69.9181 20.5,70.9962 Q19.8125,72.0587 19.8125,74.1525 Q19.8125,76.2462 20.5,77.3244 Q21.1875,78.3869 22.5313,78.3869 Q23.1563,78.3869 23.75,78.1212 Q24.3438,77.84 24.9688,77.2619 L24.9688,79.9806 Z " fill="#000000"/><text fill="#000000" font-family="sans-serif" font-size="14" lengthAdjust="spacing" textLength="58" x="36" y="79.1867">Program</text><line style="stroke:#181818;stroke-width:0.5;" x1="8" x2="96" y1="90.34" y2="90.34"/><ellipse cx="18" cy="103.9884" fill="none" rx="3" ry="3" style="stroke:#038048;stroke-width:1.0;"/><text fill="#000000" font-family="sans-serif" font-size="14" lengthAdjust="spacing" textLength="12" x="27" y="107.3351">id</text><ellipse cx="18" cy="120.2853" fill="none" rx="3" ry="3" style="stroke:#038048;stroke-width:1.0;"/><text fill="#000000" font-family="sans-serif" font-size="14" lengthAdjust="spacing" textLength="32" x="27" y="123.632">label</text><ellipse cx="18" cy="136.5822" fill="none" rx="3" ry="3" style="stroke:#038048;stroke-width:1.0;"/><text fill="#000000" font-family="sans-serif" font-size="14" lengthAdjust="spacing" textLength="39" x="27" y="139.9289">name</text><line style="stroke:#181818;stroke-width:0.5;" x1="8" x2="96" y1="147.2306" y2="147.2306"/></g><!--MD5=[3df94286af967b7b318d9e429d9f0990]
class Program2Department--><g id="elem_Program2Department"><rect fill="#F1F1F1" height="48" id="Program2Department" rx="2.5" ry="2.5" style="stroke:#181818;stroke-width:0.5;" width="182" x="424" y="82.84"/><ellipse cx="439" cy="98.84" fill="#ADD1B2" rx="11" ry="11" style="stroke:#181818;stroke-width:1.0;"/><path d="M441.9688,104.4806 Q441.3906,104.7775 440.75,104.9181 Q440.1094,105.0744 439.4063,105.0744 Q436.9063,105.0744 435.5781,103.4337 Q434.2656,101.7775 434.2656,98.6525 Q434.2656,95.5275 435.5781,93.8712 Q436.9063,92.215 439.4063,92.215 Q440.1094,92.215 440.75,92.3712 Q441.4063,92.5275 441.9688,92.8244 L441.9688,95.5431 Q441.3438,94.965 440.75,94.6994 Q440.1563,94.4181 439.5313,94.4181 Q438.1875,94.4181 437.5,95.4962 Q436.8125,96.5587 436.8125,98.6525 Q436.8125,100.7462 437.5,101.8244 Q438.1875,102.8869 439.5313,102.8869 Q440.1563,102.8869 440.75,102.6212 Q441.3438,102.34 441.9688,101.7619 L441.9688,104.4806 Z " fill="#000000"/><text fill="#000000" font-family="sans-serif" font-size="14" lengthAdjust="spacing" textLength="150" x="453" y="103.6867">Program2Department</text><line style="stroke:#181818;stroke-width:0.5;" x1="425" x2="605" y1="114.84" y2="114.84"/><line style="stroke:#181818;stroke-width:0.5;" x1="425" x2="605" y1="122.84" y2="122.84"/></g><!--MD5=[28472aaa8468b3f648ed3c271d7bd3ae]
class Program2Person--><g id="elem_Program2Person"><rect fill="#F1F1F1" height="48" id="Program2Person" rx="2.5" ry="2.5" style="stroke:#181818;stroke-width:0.5;" width="148" x="241" y="82.84"/><ellipse cx="256" cy="98.84" fill="#ADD1B2" rx="11" ry="11" style="stroke:#181818;stroke-width:1.0;"/><path d="M258.9688,104.4806 Q258.3906,104.7775 257.75,104.9181 Q257.1094,105.0744 256.4063,105.0744 Q253.9063,105.0744 252.5781,103.4337 Q251.2656,101.7775 251.2656,98.6525 Q251.2656,95.5275 252.5781,93.8712 Q253.9063,92.215 256.4063,92.215 Q257.1094,92.215 257.75,92.3712 Q258.4063,92.5275 258.9688,92.8244 L258.9688,95.5431 Q258.3438,94.965 257.75,94.6994 Q257.1563,94.4181 256.5313,94.4181 Q255.1875,94.4181 254.5,95.4962 Q253.8125,96.5587 253.8125,98.6525 Q253.8125,100.7462 254.5,101.8244 Q255.1875,102.8869 256.5313,102.8869 Q257.1563,102.8869 257.75,102.6212 Q258.3438,102.34 258.9688,101.7619 L258.9688,104.4806 Z " fill="#000000"/><text fill="#000000" font-family="sans-serif" font-size="14" lengthAdjust="spacing" textLength="116" x="270" y="103.6867">Program2Person</text><line style="stroke:#181818;stroke-width:0.5;" x1="242" x2="388" y1="114.84" y2="114.84"/><line style="stroke:#181818;stroke-width:0.5;" x1="242" x2="388" y1="122.84" y2="122.84"/></g><!--MD5=[377953f0e8c8c0131a700fca43c84158]
class Strategy--><g id="elem_Strategy"><rect fill="#F1F1F1" height="48" id="Strategy" rx="2.5" ry="2.5" style="stroke:#181818;stroke-width:0.5;" width="89" x="7.5" y="327.84"/><ellipse cx="22.5" cy="343.84" fill="#ADD1B2" rx="11" ry="11" style="stroke:#181818;stroke-width:1.0;"/><path d="M25.4688,349.4806 Q24.8906,349.7775 24.25,349.9181 Q23.6094,350.0744 22.9063,350.0744 Q20.4063,350.0744 19.0781,348.4338 Q17.7656,346.7775 17.7656,343.6525 Q17.7656,340.5275 19.0781,338.8713 Q20.4063,337.215 22.9063,337.215 Q23.6094,337.215 24.25,337.3713 Q24.9063,337.5275 25.4688,337.8244 L25.4688,340.5431 Q24.8438,339.965 24.25,339.6994 Q23.6563,339.4181 23.0313,339.4181 Q21.6875,339.4181 21,340.4963 Q20.3125,341.5588 20.3125,343.6525 Q20.3125,345.7463 21,346.8244 Q21.6875,347.8869 23.0313,347.8869 Q23.6563,347.8869 24.25,347.6213 Q24.8438,347.34 25.4688,346.7619 L25.4688,349.4806 Z " fill="#000000"/><text fill="#000000" font-family="sans-serif" font-size="14" lengthAdjust="spacing" textLength="57" x="36.5" y="348.6867">Strategy</text><line style="stroke:#181818;stroke-width:0.5;" x1="8.5" x2="95.5" y1="359.84" y2="359.84"/><line style="stroke:#181818;stroke-width:0.5;" x1="8.5" x2="95.5" y1="367.84" y2="367.84"/></g><!--MD5=[f8a3df79209c4daa2377aace8e1c526f]
link Program to Program2Department--><g id="link_Program_Program2Department"><path codeLine="8" d="M107.0077,62.654 C107.0077,62.654 155.53,32.83 181.5,25.34 C248.54,6 270.35,10.36 338.5,25.34 C383.17,35.16 430.01,57.42 464.2,76.2 " fill="none" id="Program-Program2Department" style="stroke:#181818;stroke-width:1.0;"/><polygon fill="#181818" points="475.75,82.67,469.8588,74.7773,471.3896,80.2231,465.9438,81.7539,475.75,82.67" style="stroke:#181818;stroke-width:1.0;"/><line style="stroke:#181818;stroke-width:1.0;" x1="471.3896" x2="464.405" y1="80.2231" y2="76.315"/><polygon fill="#181818" points="97.18,69.54,104.3892,69.3729,107.0077,62.654,99.7985,62.8211,97.18,69.54" style="stroke:#181818;stroke-width:1.0;"/><text fill="#000000" font-family="sans-serif" font-size="13" lengthAdjust="spacing" textLength="155" x="182.5" y="24.4069">authorized departments</text><text fill="#000000" font-family="sans-serif" font-size="13" lengthAdjust="spacing" textLength="23" x="439.7453" y="71.6385">0..*</text></g><!--MD5=[a7dc997e9a2590f08073c74ab191e4b3]
link Program to Program2Person--><g id="link_Program_Program2Person"><path codeLine="9" d="M109.21,106.84 C109.21,106.84 189.11,106.84 227.71,106.84 " fill="none" id="Program-Program2Person" style="stroke:#181818;stroke-width:1.0;"/><polygon fill="#181818" points="240.83,106.84,231.83,102.84,235.83,106.84,231.83,110.84,240.83,106.84" style="stroke:#181818;stroke-width:1.0;"/><line style="stroke:#181818;stroke-width:1.0;" x1="235.83" x2="227.83" y1="106.84" y2="106.84"/><polygon fill="#181818" points="97.21,106.84,103.21,110.84,109.21,106.84,103.21,102.84,97.21,106.84" style="stroke:#181818;stroke-width:1.0;"/><text fill="#000000" font-family="sans-serif" font-size="13" lengthAdjust="spacing" textLength="107" x="115.5" y="99.9069">authorized users</text><text fill="#000000" font-family="sans-serif" font-size="13" lengthAdjust="spacing" textLength="23" x="209.9323" y="119.6044">0..*</text></g><!--MD5=[5b4857a777ebecf2bcbe304993cd8071]
reverse link Program to Strategy--><g id="link_Program_Strategy"><path codeLine="10" d="M52,168.57 C52,220.23 52,291.63 52,327.83 " fill="none" id="Program-backto-Strategy" style="stroke:#181818;stroke-width:1.0;"/><polygon fill="#181818" points="52,155.56,48,161.56,52,167.56,56,161.56,52,155.56" style="stroke:#181818;stroke-width:1.0;"/><text fill="#000000" font-family="sans-serif" font-size="13" lengthAdjust="spacing" textLength="54" x="53" y="205.9069">contains</text><text fill="#000000" font-family="sans-serif" font-size="13" lengthAdjust="spacing" textLength="8" x="43.4625" y="175.1977">1</text><text fill="#000000" font-family="sans-serif" font-size="13" lengthAdjust="spacing" textLength="23" x="26.0531" y="316.8395">1..*</text></g><!--MD5=[2b219ddcccd9fb2858ea605b40c4ebd6]
link Program2Department to ProgramPrivilege--><g id="link_Program2Department_ProgramPrivilege"><path codeLine="24" d="M503.11,131.14 C480.15,176.14 429.8,274.8 405.16,323.1 " fill="none" id="Program2Department-to-ProgramPrivilege" style="stroke:#181818;stroke-width:1.0;"/><polygon fill="#181818" points="402.85,327.61,410.5004,321.4074,405.1203,323.1551,403.3726,317.775,402.85,327.61" style="stroke:#181818;stroke-width:1.0;"/><text fill="#000000" font-family="sans-serif" font-size="13" lengthAdjust="spacing" textLength="44" x="485" y="198.4069">access</text><text fill="#000000" font-family="sans-serif" font-size="13" lengthAdjust="spacing" textLength="60" x="479" y="213.5397">privileges</text><text fill="#000000" font-family="sans-serif" font-size="13" lengthAdjust="spacing" textLength="7" x="492.3587" y="150.9743">*</text><text fill="#000000" font-family="sans-serif" font-size="13" lengthAdjust="spacing" textLength="23" x="379.9353" y="316.9589">1..*</text></g><!--MD5=[93465e8c8bab112339bf72dc136258af]
link Program2Person to ProgramPrivilege--><g id="link_Program2Person_ProgramPrivilege"><path codeLine="25" d="M322.29,131.14 C336.33,176.04 367.09,274.4 382.23,322.8 " fill="none" id="Program2Person-to-ProgramPrivilege" style="stroke:#181818;stroke-width:1.0;"/><polygon fill="#181818" points="383.73,327.61,384.8735,317.8277,382.2435,322.8361,377.2352,320.2061,383.73,327.61" style="stroke:#181818;stroke-width:1.0;"/><text fill="#000000" font-family="sans-serif" font-size="13" lengthAdjust="spacing" textLength="44" x="359" y="198.4069">access</text><text fill="#000000" font-family="sans-serif" font-size="13" lengthAdjust="spacing" textLength="60" x="353" y="213.5397">privileges</text><text fill="#000000" font-family="sans-serif" font-size="13" lengthAdjust="spacing" textLength="7" x="316.2138" y="150.9743">*</text><text fill="#000000" font-family="sans-serif" font-size="13" lengthAdjust="spacing" textLength="23" x="356.1548" y="316.9589">1..*</text></g><!--MD5=[a753944e57d01e62defef7a080f7b272]
reverse link ProgramPrivilege to ProgramPrivilegeEnum--><g id="link_ProgramPrivilege_ProgramPrivilegeEnum"><path codeLine="26" d="M469.93,351.84 C503.06,351.84 541.83,351.84 576.38,351.84 " fill="none" id="ProgramPrivilege-backto-ProgramPrivilegeEnum" style="stroke:#181818;stroke-width:1.0;stroke-dasharray:7.0,7.0;"/><polygon fill="#181818" points="464.67,351.84,473.67,355.84,469.67,351.84,473.67,347.84,464.67,351.84" style="stroke:#181818;stroke-width:1.0;"/><text fill="#000000" font-family="sans-serif" font-size="13" lengthAdjust="spacing" textLength="30" x="505.5" y="329.9069">is an</text><text fill="#000000" font-family="sans-serif" font-size="13" lengthAdjust="spacing" textLength="71" x="487" y="345.0397">identifier of</text></g></g></svg>