<svg xmlns="http://www.w3.org/2000/svg" xmlns:xlink="http://www.w3.org/1999/xlink" contentStyleType="text/css" height="734px" preserveAspectRatio="none" style="width:1419px;height:734px;background:#FFFFFF;" version="1.1" viewBox="0 0 1419 734" width="1419px" zoomAndPan="magnify"><defs/><g><!--class Program--><g id="elem_Program"><rect codeLine="3" fill="#F1F1F1" height="32" id="Program" rx="2.5" ry="2.5" style="stroke:#181818;stroke-width:0.5;" width="90.0578" x="811.81" y="7"/><ellipse cx="826.81" cy="23" fill="#ADD1B2" rx="11" ry="11" style="stroke:#181818;stroke-width:1.0;"/><path d="M826.2788,29.9219 Q824.5288,29.9219 823.3881,29.1875 Q822.2631,28.4375 821.7006,27.0938 Q821.1538,25.7344 821.1538,23.9375 Q821.1538,21.9063 821.81,20.4531 Q822.4663,19 823.7475,18.2188 Q825.0288,17.4375 826.9038,17.4375 Q827.7944,17.4375 828.4663,17.625 Q829.1381,17.7969 829.8256,18.1406 L829.0131,20.1563 Q828.3881,19.8438 827.8413,19.7188 Q827.31,19.5938 826.8256,19.5938 Q825.6538,19.5938 824.9506,20.125 Q824.2475,20.6563 823.9506,21.6094 Q823.6538,22.5625 823.6538,23.8281 Q823.6538,25.8438 824.3725,26.8125 Q825.0913,27.7656 826.685,27.7656 Q827.2788,27.7656 827.9038,27.6094 Q828.5288,27.4531 829.3569,27.0781 L829.3569,29.2969 Q828.6225,29.6094 827.8256,29.7656 Q827.0444,29.9219 826.2788,29.9219 Z " fill="#000000"/><text fill="#000000" font-family="sans-serif" font-size="14" lengthAdjust="spacing" textLength="58.0578" x="840.81" y="28.432">Program</text></g><!--class Strategy--><g id="elem_Strategy"><rect codeLine="8" fill="#F1F1F1" height="78.1358" id="Strategy" rx="2.5" ry="2.5" style="stroke:#181818;stroke-width:0.5;" width="87.0758" x="813.31" y="103.5"/><ellipse cx="828.31" cy="119.5" fill="#ADD1B2" rx="11" ry="11" style="stroke:#181818;stroke-width:1.0;"/><path d="M827.7788,126.4219 Q826.0288,126.4219 824.8881,125.6875 Q823.7631,124.9375 823.2006,123.5938 Q822.6538,122.2344 822.6538,120.4375 Q822.6538,118.4063 823.31,116.9531 Q823.9663,115.5 825.2475,114.7188 Q826.5288,113.9375 828.4038,113.9375 Q829.2944,113.9375 829.9663,114.125 Q830.6381,114.2969 831.3256,114.6406 L830.5131,116.6563 Q829.8881,116.3438 829.3413,116.2188 Q828.81,116.0938 828.3256,116.0938 Q827.1538,116.0938 826.4506,116.625 Q825.7475,117.1563 825.4506,118.1094 Q825.1538,119.0625 825.1538,120.3281 Q825.1538,122.3438 825.8725,123.3125 Q826.5913,124.2656 828.185,124.2656 Q828.7788,124.2656 829.4038,124.1094 Q830.0288,123.9531 830.8569,123.5781 L830.8569,125.7969 Q830.1225,126.1094 829.3256,126.2656 Q828.5444,126.4219 827.7788,126.4219 Z " fill="#000000"/><text fill="#000000" font-family="sans-serif" font-size="14" lengthAdjust="spacing" textLength="55.0758" x="842.31" y="124.932">Strategy</text><line style="stroke:#181818;stroke-width:0.5;" x1="814.31" x2="899.3858" y1="135.5" y2="135.5"/><ellipse cx="824.31" cy="150.534" fill="none" rx="3" ry="3" style="stroke:#038048;stroke-width:1.0;"/><text fill="#000000" font-family="sans-serif" font-size="14" lengthAdjust="spacing" textLength="31.5839" x="833.31" y="154.4659">label</text><ellipse cx="824.31" cy="169.6019" fill="none" rx="3" ry="3" style="stroke:#038048;stroke-width:1.0;"/><text fill="#000000" font-family="sans-serif" font-size="14" lengthAdjust="spacing" textLength="37.4919" x="833.31" y="173.5339">name</text></g><!--class ReferenceTaxonStrategy--><g id="elem_ReferenceTaxonStrategy"><rect codeLine="13" fill="#F1F1F1" height="59.0679" id="ReferenceTaxonStrategy" rx="2.5" ry="2.5" style="stroke:#181818;stroke-width:0.5;" width="202.8193" x="100.31" y="354"/><ellipse cx="119.5022" cy="370" fill="#ADD1B2" rx="11" ry="11" style="stroke:#181818;stroke-width:1.0;"/><path d="M118.9709,376.9219 Q117.2209,376.9219 116.0803,376.1875 Q114.9553,375.4375 114.3928,374.0938 Q113.8459,372.7344 113.8459,370.9375 Q113.8459,368.9063 114.5022,367.4531 Q115.1584,366 116.4397,365.2188 Q117.7209,364.4375 119.5959,364.4375 Q120.4865,364.4375 121.1584,364.625 Q121.8303,364.7969 122.5178,365.1406 L121.7053,367.1563 Q121.0803,366.8438 120.5334,366.7188 Q120.0022,366.5938 119.5178,366.5938 Q118.3459,366.5938 117.6428,367.125 Q116.9397,367.6563 116.6428,368.6094 Q116.3459,369.5625 116.3459,370.8281 Q116.3459,372.8438 117.0647,373.8125 Q117.7834,374.7656 119.3772,374.7656 Q119.9709,374.7656 120.5959,374.6094 Q121.2209,374.4531 122.049,374.0781 L122.049,376.2969 Q121.3147,376.6094 120.5178,376.7656 Q119.7365,376.9219 118.9709,376.9219 Z " fill="#000000"/><text fill="#000000" font-family="sans-serif" font-size="14" lengthAdjust="spacing" textLength="161.5034" x="134.4338" y="375.432">ReferenceTaxonStrategy</text><line style="stroke:#181818;stroke-width:0.5;" x1="101.31" x2="302.1293" y1="386" y2="386"/><ellipse cx="111.31" cy="401.034" fill="none" rx="3" ry="3" style="stroke:#038048;stroke-width:1.0;"/><text fill="#000000" font-family="sans-serif" font-size="14" lengthAdjust="spacing" textLength="176.8193" x="120.31" y="404.9659">priorityLevel : integer [0..1]</text></g><!--class TaxonGroupStrategy--><g id="elem_TaxonGroupStrategy"><rect codeLine="16" fill="#F1F1F1" height="59.0679" id="TaxonGroupStrategy" rx="2.5" ry="2.5" style="stroke:#181818;stroke-width:0.5;" width="202.8193" x="1209.31" y="354"/><ellipse cx="1239.5523" cy="370" fill="#ADD1B2" rx="11" ry="11" style="stroke:#181818;stroke-width:1.0;"/><path d="M1239.0211,376.9219 Q1237.2711,376.9219 1236.1304,376.1875 Q1235.0054,375.4375 1234.4429,374.0938 Q1233.8961,372.7344 1233.8961,370.9375 Q1233.8961,368.9063 1234.5523,367.4531 Q1235.2086,366 1236.4898,365.2188 Q1237.7711,364.4375 1239.6461,364.4375 Q1240.5367,364.4375 1241.2086,364.625 Q1241.8804,364.7969 1242.5679,365.1406 L1241.7554,367.1563 Q1241.1304,366.8438 1240.5836,366.7188 Q1240.0523,366.5938 1239.5679,366.5938 Q1238.3961,366.5938 1237.6929,367.125 Q1236.9898,367.6563 1236.6929,368.6094 Q1236.3961,369.5625 1236.3961,370.8281 Q1236.3961,372.8438 1237.1148,373.8125 Q1237.8336,374.7656 1239.4273,374.7656 Q1240.0211,374.7656 1240.6461,374.6094 Q1241.2711,374.4531 1242.0992,374.0781 L1242.0992,376.2969 Q1241.3648,376.6094 1240.5679,376.7656 Q1239.7867,376.9219 1239.0211,376.9219 Z " fill="#000000"/><text fill="#000000" font-family="sans-serif" font-size="14" lengthAdjust="spacing" textLength="136.9475" x="1256.9395" y="375.432">TaxonGroupStrategy</text><line style="stroke:#181818;stroke-width:0.5;" x1="1210.31" x2="1411.1293" y1="386" y2="386"/><ellipse cx="1220.31" cy="401.034" fill="none" rx="3" ry="3" style="stroke:#038048;stroke-width:1.0;"/><text fill="#000000" font-family="sans-serif" font-size="14" lengthAdjust="spacing" textLength="176.8193" x="1229.31" y="404.9659">priorityLevel : integer [0..1]</text></g><!--class Gear--><g id="elem_Gear"><rect fill="#F1F1F1" height="32" id="Gear" rx="2.5" ry="2.5" style="stroke:#181818;stroke-width:0.5;" width="63.7239" x="27.81" y="695"/><ellipse cx="42.81" cy="711" fill="#ADD1B2" rx="11" ry="11" style="stroke:#181818;stroke-width:1.0;"/><path d="M42.2788,717.9219 Q40.5288,717.9219 39.3881,717.1875 Q38.2631,716.4375 37.7006,715.0938 Q37.1538,713.7344 37.1538,711.9375 Q37.1538,709.9063 37.81,708.4531 Q38.4663,707 39.7475,706.2188 Q41.0288,705.4375 42.9038,705.4375 Q43.7944,705.4375 44.4663,705.625 Q45.1381,705.7969 45.8256,706.1406 L45.0131,708.1563 Q44.3881,707.8438 43.8413,707.7188 Q43.31,707.5938 42.8256,707.5938 Q41.6538,707.5938 40.9506,708.125 Q40.2475,708.6563 39.9506,709.6094 Q39.6538,710.5625 39.6538,711.8281 Q39.6538,713.8438 40.3725,714.8125 Q41.0913,715.7656 42.685,715.7656 Q43.2788,715.7656 43.9038,715.6094 Q44.5288,715.4531 45.3569,715.0781 L45.3569,717.2969 Q44.6225,717.6094 43.8256,717.7656 Q43.0444,717.9219 42.2788,717.9219 Z " fill="#000000"/><text fill="#000000" font-family="sans-serif" font-size="14" lengthAdjust="spacing" textLength="31.7239" x="56.81" y="716.432">Gear</text></g><!--class Metier--><g id="elem_Metier"><rect fill="#F1F1F1" height="32" id="Metier" rx="2.5" ry="2.5" style="stroke:#181818;stroke-width:0.5;" width="74.9378" x="754.31" y="695"/><ellipse cx="769.31" cy="711" fill="#ADD1B2" rx="11" ry="11" style="stroke:#181818;stroke-width:1.0;"/><path d="M768.7788,717.9219 Q767.0288,717.9219 765.8881,717.1875 Q764.7631,716.4375 764.2006,715.0938 Q763.6538,713.7344 763.6538,711.9375 Q763.6538,709.9063 764.31,708.4531 Q764.9663,707 766.2475,706.2188 Q767.5288,705.4375 769.4038,705.4375 Q770.2944,705.4375 770.9663,705.625 Q771.6381,705.7969 772.3256,706.1406 L771.5131,708.1563 Q770.8881,707.8438 770.3413,707.7188 Q769.81,707.5938 769.3256,707.5938 Q768.1538,707.5938 767.4506,708.125 Q766.7475,708.6563 766.4506,709.6094 Q766.1538,710.5625 766.1538,711.8281 Q766.1538,713.8438 766.8725,714.8125 Q767.5913,715.7656 769.185,715.7656 Q769.7788,715.7656 770.4038,715.6094 Q771.0288,715.4531 771.8569,715.0781 L771.8569,717.2969 Q771.1225,717.6094 770.3256,717.7656 Q769.5444,717.9219 768.7788,717.9219 Z " fill="#000000"/><text fill="#000000" font-family="sans-serif" font-size="14" lengthAdjust="spacing" textLength="42.9378" x="783.31" y="716.432">Metier</text></g><!--class StrategyDepartment--><g id="elem_StrategyDepartment"><rect fill="#F1F1F1" height="32" id="StrategyDepartment" rx="2.5" ry="2.5" style="stroke:#181818;stroke-width:0.5;" width="167.1835" x="938.31" y="269"/><ellipse cx="953.31" cy="285" fill="#ADD1B2" rx="11" ry="11" style="stroke:#181818;stroke-width:1.0;"/><path d="M952.7788,291.9219 Q951.0288,291.9219 949.8881,291.1875 Q948.7631,290.4375 948.2006,289.0938 Q947.6538,287.7344 947.6538,285.9375 Q947.6538,283.9063 948.31,282.4531 Q948.9663,281 950.2475,280.2188 Q951.5288,279.4375 953.4038,279.4375 Q954.2944,279.4375 954.9663,279.625 Q955.6381,279.7969 956.3256,280.1406 L955.5131,282.1563 Q954.8881,281.8438 954.3413,281.7188 Q953.81,281.5938 953.3256,281.5938 Q952.1538,281.5938 951.4506,282.125 Q950.7475,282.6563 950.4506,283.6094 Q950.1538,284.5625 950.1538,285.8281 Q950.1538,287.8438 950.8725,288.8125 Q951.5913,289.7656 953.185,289.7656 Q953.7788,289.7656 954.4038,289.6094 Q955.0288,289.4531 955.8569,289.0781 L955.8569,291.2969 Q955.1225,291.6094 954.3256,291.7656 Q953.5444,291.9219 952.7788,291.9219 Z " fill="#000000"/><text fill="#000000" font-family="sans-serif" font-size="14" lengthAdjust="spacing" textLength="135.1835" x="967.31" y="290.432">StrategyDepartment</text></g><!--class Department--><g id="elem_Department"><rect fill="#F1F1F1" height="32" id="Department" rx="2.5" ry="2.5" style="stroke:#181818;stroke-width:0.5;" width="112.1077" x="1021.81" y="513.5"/><ellipse cx="1036.81" cy="529.5" fill="#ADD1B2" rx="11" ry="11" style="stroke:#181818;stroke-width:1.0;"/><path d="M1036.2788,536.4219 Q1034.5288,536.4219 1033.3881,535.6875 Q1032.2631,534.9375 1031.7006,533.5938 Q1031.1538,532.2344 1031.1538,530.4375 Q1031.1538,528.4063 1031.81,526.9531 Q1032.4663,525.5 1033.7475,524.7188 Q1035.0288,523.9375 1036.9038,523.9375 Q1037.7944,523.9375 1038.4663,524.125 Q1039.1381,524.2969 1039.8256,524.6406 L1039.0131,526.6563 Q1038.3881,526.3438 1037.8413,526.2188 Q1037.31,526.0938 1036.8256,526.0938 Q1035.6538,526.0938 1034.9506,526.625 Q1034.2475,527.1563 1033.9506,528.1094 Q1033.6538,529.0625 1033.6538,530.3281 Q1033.6538,532.3438 1034.3725,533.3125 Q1035.0913,534.2656 1036.685,534.2656 Q1037.2788,534.2656 1037.9038,534.1094 Q1038.5288,533.9531 1039.3569,533.5781 L1039.3569,535.7969 Q1038.6225,536.1094 1037.8256,536.2656 Q1037.0444,536.4219 1036.2788,536.4219 Z " fill="#000000"/><text fill="#000000" font-family="sans-serif" font-size="14" lengthAdjust="spacing" textLength="80.1077" x="1050.81" y="534.932">Department</text></g><!--class ReferenceTaxon--><g id="elem_ReferenceTaxon"><rect fill="#F1F1F1" height="32" id="ReferenceTaxon" rx="2.5" ry="2.5" style="stroke:#181818;stroke-width:0.5;" width="138.4276" x="166.81" y="695"/><ellipse cx="181.81" cy="711" fill="#ADD1B2" rx="11" ry="11" style="stroke:#181818;stroke-width:1.0;"/><path d="M181.2788,717.9219 Q179.5288,717.9219 178.3881,717.1875 Q177.2631,716.4375 176.7006,715.0938 Q176.1538,713.7344 176.1538,711.9375 Q176.1538,709.9063 176.81,708.4531 Q177.4663,707 178.7475,706.2188 Q180.0288,705.4375 181.9038,705.4375 Q182.7944,705.4375 183.4663,705.625 Q184.1381,705.7969 184.8256,706.1406 L184.0131,708.1563 Q183.3881,707.8438 182.8413,707.7188 Q182.31,707.5938 181.8256,707.5938 Q180.6538,707.5938 179.9506,708.125 Q179.2475,708.6563 178.9506,709.6094 Q178.6538,710.5625 178.6538,711.8281 Q178.6538,713.8438 179.3725,714.8125 Q180.0913,715.7656 181.685,715.7656 Q182.2788,715.7656 182.9038,715.6094 Q183.5288,715.4531 184.3569,715.0781 L184.3569,717.2969 Q183.6225,717.6094 182.8256,717.7656 Q182.0444,717.9219 181.2788,717.9219 Z " fill="#000000"/><text fill="#000000" font-family="sans-serif" font-size="14" lengthAdjust="spacing" textLength="106.4276" x="195.81" y="716.432">ReferenceTaxon</text></g><!--class TaxonGroup--><g id="elem_TaxonGroup"><rect fill="#F1F1F1" height="32" id="TaxonGroup" rx="2.5" ry="2.5" style="stroke:#181818;stroke-width:0.5;" width="113.8717" x="864.81" y="695"/><ellipse cx="879.81" cy="711" fill="#ADD1B2" rx="11" ry="11" style="stroke:#181818;stroke-width:1.0;"/><path d="M879.2788,717.9219 Q877.5288,717.9219 876.3881,717.1875 Q875.2631,716.4375 874.7006,715.0938 Q874.1538,713.7344 874.1538,711.9375 Q874.1538,709.9063 874.81,708.4531 Q875.4663,707 876.7475,706.2188 Q878.0288,705.4375 879.9038,705.4375 Q880.7944,705.4375 881.4663,705.625 Q882.1381,705.7969 882.8256,706.1406 L882.0131,708.1563 Q881.3881,707.8438 880.8413,707.7188 Q880.31,707.5938 879.8256,707.5938 Q878.6538,707.5938 877.9506,708.125 Q877.2475,708.6563 876.9506,709.6094 Q876.6538,710.5625 876.6538,711.8281 Q876.6538,713.8438 877.3725,714.8125 Q878.0913,715.7656 879.685,715.7656 Q880.2788,715.7656 880.9038,715.6094 Q881.5288,715.4531 882.3569,715.0781 L882.3569,717.2969 Q881.6225,717.6094 880.8256,717.7656 Q880.0444,717.9219 879.2788,717.9219 Z " fill="#000000"/><text fill="#000000" font-family="sans-serif" font-size="14" lengthAdjust="spacing" textLength="81.8717" x="893.81" y="716.432">TaxonGroup</text></g><!--class PmfmStrategy--><g id="elem_PmfmStrategy"><rect codeLine="38" fill="#F1F1F1" height="173.4754" id="PmfmStrategy" rx="2.5" ry="2.5" style="stroke:#181818;stroke-width:0.5;" width="260.1071" x="726.81" y="443"/><ellipse cx="805.3427" cy="459" fill="#ADD1B2" rx="11" ry="11" style="stroke:#181818;stroke-width:1.0;"/><path d="M804.8115,465.9219 Q803.0615,465.9219 801.9208,465.1875 Q800.7958,464.4375 800.2333,463.0938 Q799.6865,461.7344 799.6865,459.9375 Q799.6865,457.9063 800.3427,456.4531 Q800.999,455 802.2802,454.2188 Q803.5615,453.4375 805.4365,453.4375 Q806.3271,453.4375 806.999,453.625 Q807.6708,453.7969 808.3583,454.1406 L807.5458,456.1563 Q806.9208,455.8438 806.374,455.7188 Q805.8427,455.5938 805.3583,455.5938 Q804.1865,455.5938 803.4833,456.125 Q802.7802,456.6563 802.4833,457.6094 Q802.1865,458.5625 802.1865,459.8281 Q802.1865,461.8438 802.9052,462.8125 Q803.624,463.7656 805.2177,463.7656 Q805.8115,463.7656 806.4365,463.6094 Q807.0615,463.4531 807.8896,463.0781 L807.8896,465.2969 Q807.1552,465.6094 806.3583,465.7656 Q805.5771,465.9219 804.8115,465.9219 Z " fill="#000000"/><text fill="#000000" font-family="sans-serif" font-size="14" lengthAdjust="spacing" textLength="94.5417" x="825.8427" y="464.432">PmfmStrategy</text><line style="stroke:#181818;stroke-width:0.5;" x1="727.81" x2="985.9171" y1="475" y2="475"/><ellipse cx="737.81" cy="490.034" fill="none" rx="3" ry="3" style="stroke:#038048;stroke-width:1.0;"/><text fill="#000000" font-family="sans-serif" font-size="14" lengthAdjust="spacing" textLength="155.0214" x="746.81" y="493.9659">minValue : double [0..1]</text><ellipse cx="737.81" cy="509.1019" fill="none" rx="3" ry="3" style="stroke:#038048;stroke-width:1.0;"/><text fill="#000000" font-family="sans-serif" font-size="14" lengthAdjust="spacing" textLength="158.0174" x="746.81" y="513.0339">maxValue : double [0..1]</text><ellipse cx="737.81" cy="528.1698" fill="none" rx="3" ry="3" style="stroke:#038048;stroke-width:1.0;"/><text fill="#000000" font-family="sans-serif" font-size="14" lengthAdjust="spacing" textLength="176.1613" x="746.81" y="532.1018">defaultValue : double [0..1]</text><ellipse cx="737.81" cy="547.2377" fill="none" rx="3" ry="3" style="stroke:#038048;stroke-width:1.0;"/><text fill="#000000" font-family="sans-serif" font-size="14" lengthAdjust="spacing" textLength="181.1173" x="746.81" y="551.1697">acquisitionNumber: integer</text><ellipse cx="737.81" cy="566.3056" fill="none" rx="3" ry="3" style="stroke:#038048;stroke-width:1.0;"/><text fill="#000000" font-family="sans-serif" font-size="14" lengthAdjust="spacing" textLength="123.6615" x="746.81" y="570.2376">rankOrder: integer</text><ellipse cx="737.81" cy="585.3735" fill="none" rx="3" ry="3" style="stroke:#038048;stroke-width:1.0;"/><text fill="#000000" font-family="sans-serif" font-size="14" lengthAdjust="spacing" textLength="147.0275" x="746.81" y="589.3055">isMandatory : boolean</text><ellipse cx="737.81" cy="604.4415" fill="none" rx="3" ry="3" style="stroke:#038048;stroke-width:1.0;"/><text fill="#000000" font-family="sans-serif" font-size="14" lengthAdjust="spacing" textLength="234.1071" x="746.81" y="608.3734">signifFiguresNumber : integer [0..1]</text></g><!--class AppliedStrategy--><g id="elem_AppliedStrategy"><rect codeLine="48" fill="#F1F1F1" height="78.1358" id="AppliedStrategy" rx="2.5" ry="2.5" style="stroke:#181818;stroke-width:0.5;" width="142.0036" x="545.81" y="246"/><ellipse cx="563.0744" cy="262" fill="#ADD1B2" rx="11" ry="11" style="stroke:#181818;stroke-width:1.0;"/><path d="M562.5431,268.9219 Q560.7931,268.9219 559.6525,268.1875 Q558.5275,267.4375 557.965,266.0938 Q557.4181,264.7344 557.4181,262.9375 Q557.4181,260.9063 558.0744,259.4531 Q558.7306,258 560.0119,257.2188 Q561.2931,256.4375 563.1681,256.4375 Q564.0587,256.4375 564.7306,256.625 Q565.4025,256.7969 566.09,257.1406 L565.2775,259.1563 Q564.6525,258.8438 564.1056,258.7188 Q563.5744,258.5938 563.09,258.5938 Q561.9181,258.5938 561.215,259.125 Q560.5119,259.6563 560.215,260.6094 Q559.9181,261.5625 559.9181,262.8281 Q559.9181,264.8438 560.6369,265.8125 Q561.3556,266.7656 562.9494,266.7656 Q563.5431,266.7656 564.1681,266.6094 Q564.7931,266.4531 565.6212,266.0781 L565.6212,268.2969 Q564.8869,268.6094 564.09,268.7656 Q563.3087,268.9219 562.5431,268.9219 Z " fill="#000000"/><text fill="#000000" font-family="sans-serif" font-size="14" lengthAdjust="spacing" textLength="104.9716" x="577.5776" y="267.432">AppliedStrategy</text><line style="stroke:#181818;stroke-width:0.5;" x1="546.81" x2="686.8136" y1="278" y2="278"/><ellipse cx="556.81" cy="293.034" fill="none" rx="3" ry="3" style="stroke:#038048;stroke-width:1.0;"/><text fill="#000000" font-family="sans-serif" font-size="14" lengthAdjust="spacing" textLength="67.1157" x="565.81" y="296.9659">id: integer</text><ellipse cx="556.81" cy="312.1019" fill="none" rx="3" ry="3" style="stroke:#038048;stroke-width:1.0;"/><text fill="#000000" font-family="sans-serif" font-size="14" lengthAdjust="spacing" textLength="116.0036" x="565.81" y="316.0339">location: Location</text></g><!--class AppliedPeriod--><g id="elem_AppliedPeriod"><rect codeLine="53" fill="#F1F1F1" height="78.1358" id="AppliedPeriod" rx="2.5" ry="2.5" style="stroke:#181818;stroke-width:0.5;" width="125.8896" x="388.81" y="103.5"/><ellipse cx="404.3293" cy="119.5" fill="#ADD1B2" rx="11" ry="11" style="stroke:#181818;stroke-width:1.0;"/><path d="M403.798,126.4219 Q402.048,126.4219 400.9074,125.6875 Q399.7824,124.9375 399.2199,123.5938 Q398.673,122.2344 398.673,120.4375 Q398.673,118.4063 399.3293,116.9531 Q399.9855,115.5 401.2668,114.7188 Q402.548,113.9375 404.423,113.9375 Q405.3137,113.9375 405.9855,114.125 Q406.6574,114.2969 407.3449,114.6406 L406.5324,116.6563 Q405.9074,116.3438 405.3605,116.2188 Q404.8293,116.0938 404.3449,116.0938 Q403.173,116.0938 402.4699,116.625 Q401.7668,117.1563 401.4699,118.1094 Q401.173,119.0625 401.173,120.3281 Q401.173,122.3438 401.8918,123.3125 Q402.6105,124.2656 404.2043,124.2656 Q404.798,124.2656 405.423,124.1094 Q406.048,123.9531 406.8762,123.5781 L406.8762,125.7969 Q406.1418,126.1094 405.3449,126.2656 Q404.5637,126.4219 403.798,126.4219 Z " fill="#000000"/><text fill="#000000" font-family="sans-serif" font-size="14" lengthAdjust="spacing" textLength="92.7357" x="418.4447" y="124.932">AppliedPeriod</text><line style="stroke:#181818;stroke-width:0.5;" x1="389.81" x2="513.6996" y1="135.5" y2="135.5"/><ellipse cx="399.81" cy="150.534" fill="none" rx="3" ry="3" style="stroke:#038048;stroke-width:1.0;"/><text fill="#000000" font-family="sans-serif" font-size="14" lengthAdjust="spacing" textLength="99.8896" x="408.81" y="154.4659">startDate: Date</text><ellipse cx="399.81" cy="169.6019" fill="none" rx="3" ry="3" style="stroke:#038048;stroke-width:1.0;"/><text fill="#000000" font-family="sans-serif" font-size="14" lengthAdjust="spacing" textLength="94.5976" x="408.81" y="173.5339">endDate: Date</text></g><!--class PmfmAppliedStrategy--><g id="elem_PmfmAppliedStrategy"><rect codeLine="58" fill="#F1F1F1" height="32" id="PmfmAppliedStrategy" rx="2.5" ry="2.5" style="stroke:#181818;stroke-width:0.5;" width="176.4375" x="147.81" y="513.5"/><ellipse cx="162.81" cy="529.5" fill="#ADD1B2" rx="11" ry="11" style="stroke:#181818;stroke-width:1.0;"/><path d="M162.2788,536.4219 Q160.5288,536.4219 159.3881,535.6875 Q158.2631,534.9375 157.7006,533.5938 Q157.1538,532.2344 157.1538,530.4375 Q157.1538,528.4063 157.81,526.9531 Q158.4663,525.5 159.7475,524.7188 Q161.0288,523.9375 162.9038,523.9375 Q163.7944,523.9375 164.4663,524.125 Q165.1381,524.2969 165.8256,524.6406 L165.0131,526.6563 Q164.3881,526.3438 163.8413,526.2188 Q163.31,526.0938 162.8256,526.0938 Q161.6538,526.0938 160.9506,526.625 Q160.2475,527.1563 159.9506,528.1094 Q159.6538,529.0625 159.6538,530.3281 Q159.6538,532.3438 160.3725,533.3125 Q161.0913,534.2656 162.685,534.2656 Q163.2788,534.2656 163.9038,534.1094 Q164.5288,533.9531 165.3569,533.5781 L165.3569,535.7969 Q164.6225,536.1094 163.8256,536.2656 Q163.0444,536.4219 162.2788,536.4219 Z " fill="#000000"/><text fill="#000000" font-family="sans-serif" font-size="14" lengthAdjust="spacing" textLength="144.4375" x="176.81" y="534.932">PmfmAppliedStrategy</text></g><!--class Pmfm--><g id="elem_Pmfm"><rect fill="#F1F1F1" height="32" id="Pmfm" rx="2.5" ry="2.5" style="stroke:#181818;stroke-width:0.5;" width="71.4659" x="613.31" y="695"/><ellipse cx="628.31" cy="711" fill="#ADD1B2" rx="11" ry="11" style="stroke:#181818;stroke-width:1.0;"/><path d="M627.7788,717.9219 Q626.0288,717.9219 624.8881,717.1875 Q623.7631,716.4375 623.2006,715.0938 Q622.6538,713.7344 622.6538,711.9375 Q622.6538,709.9063 623.31,708.4531 Q623.9663,707 625.2475,706.2188 Q626.5288,705.4375 628.4038,705.4375 Q629.2944,705.4375 629.9663,705.625 Q630.6381,705.7969 631.3256,706.1406 L630.5131,708.1563 Q629.8881,707.8438 629.3413,707.7188 Q628.81,707.5938 628.3256,707.5938 Q627.1538,707.5938 626.4506,708.125 Q625.7475,708.6563 625.4506,709.6094 Q625.1538,710.5625 625.1538,711.8281 Q625.1538,713.8438 625.8725,714.8125 Q626.5913,715.7656 628.185,715.7656 Q628.7788,715.7656 629.4038,715.6094 Q630.0288,715.4531 630.8569,715.0781 L630.8569,717.2969 Q630.1225,717.6094 629.3256,717.7656 Q628.5444,717.9219 627.7788,717.9219 Z " fill="#000000"/><text fill="#000000" font-family="sans-serif" font-size="14" lengthAdjust="spacing" textLength="39.4659" x="642.31" y="716.432">Pmfm</text></g><!--class AcquisitionLevel--><g id="elem_AcquisitionLevel"><rect fill="#F1F1F1" height="32" id="AcquisitionLevel" rx="2.5" ry="2.5" style="stroke:#181818;stroke-width:0.5;" width="138.4976" x="553.81" y="513.5"/><ellipse cx="568.81" cy="529.5" fill="#ADD1B2" rx="11" ry="11" style="stroke:#181818;stroke-width:1.0;"/><path d="M568.2788,536.4219 Q566.5288,536.4219 565.3881,535.6875 Q564.2631,534.9375 563.7006,533.5938 Q563.1538,532.2344 563.1538,530.4375 Q563.1538,528.4063 563.81,526.9531 Q564.4663,525.5 565.7475,524.7188 Q567.0288,523.9375 568.9038,523.9375 Q569.7944,523.9375 570.4663,524.125 Q571.1381,524.2969 571.8256,524.6406 L571.0131,526.6563 Q570.3881,526.3438 569.8413,526.2188 Q569.31,526.0938 568.8256,526.0938 Q567.6538,526.0938 566.9506,526.625 Q566.2475,527.1563 565.9506,528.1094 Q565.6538,529.0625 565.6538,530.3281 Q565.6538,532.3438 566.3725,533.3125 Q567.0913,534.2656 568.685,534.2656 Q569.2788,534.2656 569.9038,534.1094 Q570.5288,533.9531 571.3569,533.5781 L571.3569,535.7969 Q570.6225,536.1094 569.8256,536.2656 Q569.0444,536.4219 568.2788,536.4219 Z " fill="#000000"/><text fill="#000000" font-family="sans-serif" font-size="14" lengthAdjust="spacing" textLength="106.4976" x="582.81" y="534.932">AcquisitionLevel</text></g><!--class AnalysisInstrument--><g id="elem_AnalysisInstrument"><rect fill="#F1F1F1" height="32" id="AnalysisInstrument" rx="2.5" ry="2.5" style="stroke:#181818;stroke-width:0.5;" width="159.5115" x="358.81" y="513.5"/><ellipse cx="373.81" cy="529.5" fill="#ADD1B2" rx="11" ry="11" style="stroke:#181818;stroke-width:1.0;"/><path d="M373.2788,536.4219 Q371.5288,536.4219 370.3881,535.6875 Q369.2631,534.9375 368.7006,533.5938 Q368.1538,532.2344 368.1538,530.4375 Q368.1538,528.4063 368.81,526.9531 Q369.4663,525.5 370.7475,524.7188 Q372.0288,523.9375 373.9038,523.9375 Q374.7944,523.9375 375.4663,524.125 Q376.1381,524.2969 376.8256,524.6406 L376.0131,526.6563 Q375.3881,526.3438 374.8413,526.2188 Q374.31,526.0938 373.8256,526.0938 Q372.6538,526.0938 371.9506,526.625 Q371.2475,527.1563 370.9506,528.1094 Q370.6538,529.0625 370.6538,530.3281 Q370.6538,532.3438 371.3725,533.3125 Q372.0913,534.2656 373.685,534.2656 Q374.2788,534.2656 374.9038,534.1094 Q375.5288,533.9531 376.3569,533.5781 L376.3569,535.7969 Q375.6225,536.1094 374.8256,536.2656 Q374.0444,536.4219 373.2788,536.4219 Z " fill="#000000"/><text fill="#000000" font-family="sans-serif" font-size="14" lengthAdjust="spacing" textLength="127.5115" x="387.81" y="534.932">AnalysisInstrument</text></g><!--link Program to Strategy--><g id="link_Program_Strategy"><path codeLine="6" d="M856.81,51.36 C856.81,67.53 856.81,75.62 856.81,97.38 " fill="none" id="Program-Strategy" style="stroke:#181818;stroke-width:1.0;"/><polygon fill="#181818" points="856.81,39.36,852.81,45.36,856.81,51.36,860.81,45.36,856.81,39.36" style="stroke:#181818;stroke-width:1.0;"/><polygon fill="#181818" points="856.81,103.38,860.81,94.38,856.81,98.38,852.81,94.38,856.81,103.38" style="stroke:#181818;stroke-width:1.0;"/><text fill="#000000" font-family="sans-serif" font-size="13" lengthAdjust="spacing" textLength="7.436" x="848.796" y="60.9785">1</text><text fill="#000000" font-family="sans-serif" font-size="13" lengthAdjust="spacing" textLength="21.567" x="833.9193" y="91.5496">0..*</text></g><!--link Strategy to Gear--><g id="link_Strategy_Gear"><path codeLine="20" d="M813.14,148.2 C662.52,165.44 169.31,230.65 82.81,354 C6,463.53 40.9735,635.8495 54.2335,688.8395 " fill="none" id="Strategy-to-Gear" style="stroke:#181818;stroke-width:1.0;"/><polygon fill="#181818" points="55.69,694.66,57.3856,684.9582,54.4762,689.8096,49.6249,686.9002,55.69,694.66" style="stroke:#181818;stroke-width:1.0;"/><text fill="#000000" font-family="sans-serif" font-size="13" lengthAdjust="spacing" textLength="21.567" x="29.8093" y="683.1396">0..*</text></g><!--link Strategy to Metier--><g id="link_Strategy_Metier"><path codeLine="21" d="M900.52,147.09 C960.68,154.52 1067.79,177.2 1122.81,246 C1174.32,310.41 1202.26,550.76 1151.81,616 C1066.41,726.43 982.79,659.38 847.81,695 C841.87,696.57 841.3868,696.6917 835.2468,698.3317 " fill="none" id="Strategy-to-Metier" style="stroke:#181818;stroke-width:1.0;"/><polygon fill="#181818" points="829.45,699.88,839.1774,701.422,834.2807,698.5897,837.113,693.693,829.45,699.88" style="stroke:#181818;stroke-width:1.0;"/><text fill="#000000" font-family="sans-serif" font-size="13" lengthAdjust="spacing" textLength="21.567" x="835.2124" y="693.113">0..*</text></g><!--reverse link Strategy to ReferenceTaxonStrategy--><g id="link_Strategy_ReferenceTaxonStrategy"><path codeLine="22" d="M801.7164,158.9179 C738.3264,176.9179 628.71,209.25 527.81,246 C435.13,279.75 330.3,324.94 265.13,353.89 " fill="none" id="Strategy-backto-ReferenceTaxonStrategy" style="stroke:#181818;stroke-width:1.0;"/><polygon fill="#181818" points="813.26,155.64,806.3956,153.4311,801.7164,158.9179,808.5808,161.1268,813.26,155.64" style="stroke:#181818;stroke-width:1.0;"/><text fill="#000000" font-family="sans-serif" font-size="13" lengthAdjust="spacing" textLength="21.567" x="256.4311" y="342.0479">0..*</text></g><!--reverse link Strategy to TaxonGroupStrategy--><g id="link_Strategy_TaxonGroupStrategy"><path codeLine="23" d="M912.5122,149.0734 C996.1922,158.0034 1163.04,179.48 1212.81,215 C1261.08,249.44 1289.3,315.7 1302.22,353.74 " fill="none" id="Strategy-backto-TaxonGroupStrategy" style="stroke:#181818;stroke-width:1.0;"/><polygon fill="#181818" points="900.58,147.8,906.1217,152.4141,912.5122,149.0734,906.9706,144.4593,900.58,147.8" style="stroke:#181818;stroke-width:1.0;"/><text fill="#000000" font-family="sans-serif" font-size="13" lengthAdjust="spacing" textLength="21.567" x="1277.1258" y="342.3374">0..*</text></g><!--reverse link Strategy to StrategyDepartment--><g id="link_Strategy_StrategyDepartment"><path codeLine="24" d="M909.7266,188.5596 C943.5266,217.3396 979.4,247.89 1003.96,268.8 " fill="none" id="Strategy-backto-StrategyDepartment" style="stroke:#181818;stroke-width:1.0;"/><polygon fill="#181818" points="900.59,180.78,902.5651,187.7153,909.7266,188.5596,907.7515,181.6243,900.59,180.78" style="stroke:#181818;stroke-width:1.0;"/><text fill="#000000" font-family="sans-serif" font-size="13" lengthAdjust="spacing" textLength="21.567" x="973.2806" y="257.3277">0..*</text></g><!--reverse link Strategy to Strategy--><g id="link_Strategy_Strategy"><path codeLine="25" d="M912.3799,128.4658 C931.1899,127.3758 935.31,132.52 935.31,142.5 C935.31,152.48 919.21,156.93 900.4,155.84 " fill="none" id="Strategy-backto-Strategy" style="stroke:#181818;stroke-width:1.0;"/><polygon fill="#181818" points="900.4,129.16,906.6214,132.8062,912.3799,128.4658,906.1585,124.8196,900.4,129.16" style="stroke:#181818;stroke-width:1.0;"/><text fill="#000000" font-family="sans-serif" font-size="13" lengthAdjust="spacing" textLength="91.8581" x="995.4585" y="119.897">parentStrategy</text><path d="M940.31,134.706 L940.31,179.706 L1142.31,179.706 L1142.31,144.706 L1132.31,134.706 L940.31,134.706 " fill="#FEFFDD" style="stroke:#181818;stroke-width:0.5;"/><path d="M1132.31,134.706 L1132.31,144.706 L1142.31,144.706 L1132.31,134.706 " fill="#FEFFDD" style="stroke:#181818;stroke-width:0.5;"/><text fill="#000000" font-family="sans-serif" font-size="13" lengthAdjust="spacing" textLength="181.1552" x="946.31" y="153.603">Lien r&#233;cursif "parentStrategy"</text><text fill="#000000" font-family="sans-serif" font-size="13" lengthAdjust="spacing" textLength="128.9471" x="946.31" y="171.309">&#224; valider (ObsVentes)</text><text fill="#000000" font-family="sans-serif" font-size="13" lengthAdjust="spacing" textLength="7.436" x="908.5245" y="122.3523">1</text><text fill="#000000" font-family="sans-serif" font-size="13" lengthAdjust="spacing" textLength="21.567" x="908.3805" y="153.4898">0..*</text></g><!--link StrategyDepartment to Department--><g id="link_StrategyDepartment_Department"><path codeLine="32" d="M1025.31,301.17 C1035.37,344.72 1062.8996,463.9439 1072.9596,507.4939 " fill="none" id="StrategyDepartment-to-Department" style="stroke:#181818;stroke-width:1.0;"/><polygon fill="#181818" points="1074.31,513.34,1076.1817,503.6706,1073.1846,508.4683,1068.387,505.4712,1074.31,513.34" style="stroke:#181818;stroke-width:1.0;"/><text fill="#000000" font-family="sans-serif" font-size="13" lengthAdjust="spacing" textLength="7.436" x="1064.8747" y="501.5776">1</text></g><!--link ReferenceTaxonStrategy to ReferenceTaxon--><g id="link_ReferenceTaxonStrategy_ReferenceTaxon"><path codeLine="35" d="M153.99,413.25 C144.23,421.54 135.28,431.51 129.81,443 C96.77,512.43 98.27,545.88 129.81,616 C145.75,651.44 177.2829,675.7908 203.0029,691.6508 " fill="none" id="ReferenceTaxonStrategy-to-ReferenceTaxon" style="stroke:#181818;stroke-width:1.0;"/><polygon fill="#181818" points="208.11,694.8,202.5489,686.6714,203.8541,692.1756,198.3499,693.4809,208.11,694.8" style="stroke:#181818;stroke-width:1.0;"/><text fill="#000000" font-family="sans-serif" font-size="13" lengthAdjust="spacing" textLength="7.436" x="190.3865" y="683.3277">1</text></g><!--link TaxonGroupStrategy to TaxonGroup--><g id="link_TaxonGroupStrategy_TaxonGroup"><path codeLine="36" d="M1309.97,413.29 C1306.6,470.92 1290.33,600.49 1212.81,665 C1178.18,693.82 1059.2925,703.9798 984.8425,707.7098 " fill="none" id="TaxonGroupStrategy-to-TaxonGroup" style="stroke:#181818;stroke-width:1.0;"/><polygon fill="#181818" points="978.85,708.01,988.0389,711.5546,983.8437,707.7598,987.6386,703.5647,978.85,708.01" style="stroke:#181818;stroke-width:1.0;"/><text fill="#000000" font-family="sans-serif" font-size="13" lengthAdjust="spacing" textLength="7.436" x="986.6428" y="703.4801">1</text></g><!--link Strategy to PmfmStrategy--><g id="link_Strategy_PmfmStrategy"><path codeLine="62" d="M856.81,193.82 C856.81,254.31 856.81,355.39 856.81,436.95 " fill="none" id="Strategy-PmfmStrategy" style="stroke:#181818;stroke-width:1.0;"/><polygon fill="#181818" points="856.81,181.82,852.81,187.82,856.81,193.82,860.81,187.82,856.81,181.82" style="stroke:#181818;stroke-width:1.0;"/><polygon fill="#181818" points="856.81,442.95,860.81,433.95,856.81,437.95,852.81,433.95,856.81,442.95" style="stroke:#181818;stroke-width:1.0;"/><text fill="#000000" font-family="sans-serif" font-size="13" lengthAdjust="spacing" textLength="7.436" x="849.2809" y="203.3838">1</text><text fill="#000000" font-family="sans-serif" font-size="13" lengthAdjust="spacing" textLength="21.567" x="834.8632" y="431.0952">0..*</text></g><!--link PmfmStrategy to Pmfm--><g id="link_PmfmStrategy_Pmfm"><path codeLine="63" d="M757.68,616.04 C722.74,646.2 691.5924,673.08 671.0124,690.84 " fill="none" id="PmfmStrategy-to-Pmfm" style="stroke:#181818;stroke-width:1.0;"/><polygon fill="#181818" points="666.47,694.76,675.897,691.9083,670.2554,691.4933,670.6703,685.8517,666.47,694.76" style="stroke:#181818;stroke-width:1.0;"/><text fill="#000000" font-family="sans-serif" font-size="13" lengthAdjust="spacing" textLength="13.52" x="723.81" y="660.897">&#160;&#160;&#160;&#160;</text><text fill="#000000" font-family="sans-serif" font-size="13" lengthAdjust="spacing" textLength="21.567" x="726.9366" y="638.4118">0..*</text><text fill="#000000" font-family="sans-serif" font-size="13" lengthAdjust="spacing" textLength="7.436" x="664.3324" y="683.274">1</text></g><!--reverse link AcquisitionLevel to PmfmStrategy--><g id="link_AcquisitionLevel_PmfmStrategy"><path codeLine="64" d="M697.82,529.5 C709.42,529.5 715.02,529.5 726.62,529.5 " fill="none" id="AcquisitionLevel-backto-PmfmStrategy" style="stroke:#181818;stroke-width:1.0;"/><polygon fill="#181818" points="691.82,529.5,700.82,533.5,696.82,529.5,700.82,525.5,691.82,529.5" style="stroke:#181818;stroke-width:1.0;"/><text fill="#000000" font-family="sans-serif" font-size="13" lengthAdjust="spacing" textLength="7.436" x="700.2004" y="525.455">1</text><text fill="#000000" font-family="sans-serif" font-size="13" lengthAdjust="spacing" textLength="21.567" x="700.3726" y="525.5479">0..*</text></g><!--link PmfmStrategy to Gear--><g id="link_PmfmStrategy_Gear"><path codeLine="66" d="M726.53,609.23 C720.62,611.7 714.7,613.97 708.81,616 C649.4,636.48 210.91,685.39 148.81,695 C129.92,697.92 114.7331,700.4524 97.8231,703.3624 " fill="none" id="PmfmStrategy-to-Gear" style="stroke:#181818;stroke-width:1.0;"/><polygon fill="#181818" points="91.91,704.38,101.458,706.7957,96.8376,703.532,100.1012,698.9116,91.91,704.38" style="stroke:#181818;stroke-width:1.0;"/><text fill="#000000" font-family="sans-serif" font-size="13" lengthAdjust="spacing" textLength="21.567" x="99.5732" y="698.6466">0..*</text></g><!--link PmfmStrategy to Metier--><g id="link_PmfmStrategy_Metier"><path codeLine="67" d="M825.83,616.04 C814.91,646.2 805.8025,671.3584 799.3725,689.1184 " fill="none" id="PmfmStrategy-to-Metier" style="stroke:#181818;stroke-width:1.0;"/><polygon fill="#181818" points="797.33,694.76,804.1549,687.6593,799.0321,690.0586,796.6327,684.9359,797.33,694.76" style="stroke:#181818;stroke-width:1.0;"/><text fill="#000000" font-family="sans-serif" font-size="13" lengthAdjust="spacing" textLength="21.567" x="774.7263" y="683.274">0..*</text></g><!--link PmfmStrategy to ReferenceTaxon--><g id="link_PmfmStrategy_ReferenceTaxon"><path codeLine="68" d="M726.8,608.63 C720.79,611.28 714.78,613.75 708.81,616 C570.9,667.91 405.0126,692.201 311.0726,702.741 " fill="none" id="PmfmStrategy-to-ReferenceTaxon" style="stroke:#181818;stroke-width:1.0;"/><polygon fill="#181818" points="305.11,703.41,314.4999,706.3816,310.0788,702.8525,313.6079,698.4314,305.11,703.41" style="stroke:#181818;stroke-width:1.0;"/><text fill="#000000" font-family="sans-serif" font-size="13" lengthAdjust="spacing" textLength="21.567" x="313.3466" y="698.6841">0..*</text></g><!--link PmfmStrategy to TaxonGroup--><g id="link_PmfmStrategy_TaxonGroup"><path codeLine="69" d="M887.79,616.04 C898.71,646.2 907.8175,671.3584 914.2475,689.1184 " fill="none" id="PmfmStrategy-to-TaxonGroup" style="stroke:#181818;stroke-width:1.0;"/><polygon fill="#181818" points="916.29,694.76,916.9873,684.9359,914.5879,690.0586,909.4651,687.6593,916.29,694.76" style="stroke:#181818;stroke-width:1.0;"/><text fill="#000000" font-family="sans-serif" font-size="13" lengthAdjust="spacing" textLength="21.567" x="889.9026" y="683.274">0..*</text></g><!--reverse link Strategy to AppliedStrategy--><g id="link_Strategy_AppliedStrategy"><path codeLine="71" d="M802.7141,175.1726 C766.0741,196.6226 723.59,221.49 681.97,245.85 " fill="none" id="Strategy-backto-AppliedStrategy" style="stroke:#181818;stroke-width:1.0;"/><polygon fill="#181818" points="813.07,169.11,805.8712,168.6893,802.7141,175.1726,809.9129,175.5933,813.07,169.11" style="stroke:#181818;stroke-width:1.0;"/><text fill="#000000" font-family="sans-serif" font-size="13" lengthAdjust="spacing" textLength="7.436" x="797.9816" y="169.1687">1</text><text fill="#000000" font-family="sans-serif" font-size="13" lengthAdjust="spacing" textLength="21.567" x="670.7565" y="234.3101">1..*</text></g><!--reverse link AppliedStrategy to PmfmAppliedStrategy--><g id="link_AppliedStrategy_PmfmAppliedStrategy"><path codeLine="73" d="M535.0642,327.8451 C478.1442,357.8451 407.68,397.22 340.81,443 C308.03,465.44 272.77,495.52 252.59,513.36 " fill="none" id="AppliedStrategy-backto-PmfmAppliedStrategy" style="stroke:#181818;stroke-width:1.0;"/><polygon fill="#181818" points="545.68,322.25,538.5071,321.509,535.0642,327.8451,542.2371,328.5861,545.68,322.25" style="stroke:#181818;stroke-width:1.0;"/><text fill="#000000" font-family="sans-serif" font-size="13" lengthAdjust="spacing" textLength="7.436" x="530.541" y="322.3227">1</text><text fill="#000000" font-family="sans-serif" font-size="13" lengthAdjust="spacing" textLength="7.436" x="250.3207" y="501.6048">1</text></g><!--link AppliedPeriod to AppliedStrategy--><g id="link_AppliedPeriod_AppliedStrategy"><path codeLine="75" d="M496.46,181.52 C519.94,201.51 539.5048,218.1687 562.9848,238.1687 " fill="none" id="AppliedPeriod-to-AppliedStrategy" style="stroke:#181818;stroke-width:1.0;"/><polygon fill="#181818" points="572.12,245.95,570.1462,239.0143,562.9848,238.1687,564.9586,245.1044,572.12,245.95" style="stroke:#181818;stroke-width:1.0;"/><text fill="#000000" font-family="sans-serif" font-size="13" lengthAdjust="spacing" textLength="21.567" x="481.3877" y="203.6335">1..*</text><text fill="#000000" font-family="sans-serif" font-size="13" lengthAdjust="spacing" textLength="7.436" x="556.2748" y="234.1325">1</text></g><!--link PmfmAppliedStrategy to Pmfm--><g id="link_PmfmAppliedStrategy_Pmfm"><path codeLine="77" d="M250.45,545.6 C269.59,564.55 304.92,596.87 340.81,616 C432.57,664.92 553.58,692.38 612.9,703.73 " fill="none" id="PmfmAppliedStrategy-Pmfm" style="stroke:#181818;stroke-width:1.0;"/><text fill="#000000" font-family="sans-serif" font-size="13" lengthAdjust="spacing" textLength="7.436" x="597.7686" y="697.4473">1</text></g><!--link PmfmAppliedStrategy to Gear--><g id="link_PmfmAppliedStrategy_Gear"><path codeLine="78" d="M220.8,545.8 C187.55,579.72 112.1907,656.5758 78.9807,690.4458 " fill="none" id="PmfmAppliedStrategy-to-Gear" style="stroke:#181818;stroke-width:1.0;"/><polygon fill="#181818" points="74.78,694.73,83.9372,691.1042,78.2806,691.1599,78.2249,685.5033,74.78,694.73" style="stroke:#181818;stroke-width:1.0;"/><text fill="#000000" font-family="sans-serif" font-size="13" lengthAdjust="spacing" textLength="21.84" x="55.5084" y="683.2337">0..1</text></g><!--link PmfmAppliedStrategy to Metier--><g id="link_PmfmAppliedStrategy_Metier"><path codeLine="79" d="M249.86,545.78 C268.64,565.23 303.88,598.41 340.81,616 C359.7,624.99 643.1416,680.938 748.1816,701.488 " fill="none" id="PmfmAppliedStrategy-to-Metier" style="stroke:#181818;stroke-width:1.0;"/><polygon fill="#181818" points="754.07,702.64,746.0054,696.9864,749.163,701.68,744.4694,704.8376,754.07,702.64" style="stroke:#181818;stroke-width:1.0;"/><text fill="#000000" font-family="sans-serif" font-size="13" lengthAdjust="spacing" textLength="21.84" x="724.5576" y="696.5967">0..1</text></g><!--link PmfmAppliedStrategy to ReferenceTaxon--><g id="link_PmfmAppliedStrategy_ReferenceTaxon"><path codeLine="80" d="M235.81,545.8 C235.81,579.72 235.81,654.86 235.81,688.73 " fill="none" id="PmfmAppliedStrategy-to-ReferenceTaxon" style="stroke:#181818;stroke-width:1.0;"/><polygon fill="#181818" points="235.81,694.73,239.81,685.73,235.81,689.73,231.81,685.73,235.81,694.73" style="stroke:#181818;stroke-width:1.0;"/><text fill="#000000" font-family="sans-serif" font-size="13" lengthAdjust="spacing" textLength="21.84" x="211.2715" y="683.2337">0..1</text></g><!--link PmfmAppliedStrategy to TaxonGroup--><g id="link_PmfmAppliedStrategy_TaxonGroup"><path codeLine="81" d="M248.59,545.51 C266.75,565.63 302.15,600.62 340.81,616 C508.52,682.72 569.33,608.14 745.81,646 C797.31,657.05 848.6112,677.3393 883.3812,692.5193 " fill="none" id="PmfmAppliedStrategy-to-TaxonGroup" style="stroke:#181818;stroke-width:1.0;"/><polygon fill="#181818" points="888.88,694.92,882.2323,687.6531,884.2977,692.9194,879.0314,694.9848,888.88,694.92" style="stroke:#181818;stroke-width:1.0;"/><text fill="#000000" font-family="sans-serif" font-size="13" lengthAdjust="spacing" textLength="21.84" x="852.5805" y="683.1861">0..1</text></g><!--link PmfmAppliedStrategy to AnalysisInstrument--><g id="link_PmfmAppliedStrategy_AnalysisInstrument"><path codeLine="82" d="M323.83,529.5 C335.36,529.5 340.89,529.5 352.41,529.5 " fill="none" id="PmfmAppliedStrategy-to-AnalysisInstrument" style="stroke:#181818;stroke-width:1.0;"/><polygon fill="#181818" points="358.41,529.5,349.41,525.5,353.41,529.5,349.41,533.5,358.41,529.5" style="stroke:#181818;stroke-width:1.0;"/><text fill="#000000" font-family="sans-serif" font-size="13" lengthAdjust="spacing" textLength="21.84" x="329.0914" y="525.646">0..1</text></g><!--SRC=[bLJBRjim4BppAnOwjGuKr5SV2XW84XHmcg0jSYbweAILGeGYLJxI24N-fTT-HtwibAW7zJ9G7soBCxlSdTdL8yiGiAnC3IMM2IfDICgfrd2lPA5e2R_9Ao7zGxIFO1TdyfU8FqBquV9o5y5NewZ1eku3-sSN2HUS9iZThw0bDeayvGlcg52a-8s-I349g1IJYfdwXC_8uG1CE0WLV7UNxN-u53v36tYZfAt-BveCz7Ziu0QfMWLkqJ0Ce5qSzz1w2wlKPQqXhHLphkKLLbIP4eKPgLxx1VK0aUCwPdyG4IAaGP02E1DF1E34K81w-vjQfLc-v0Ey_O5dojqiA7Xtb-W71wD-Jr1aqEGQPHiBypgvce9Q2TbmjkTEORBYOiySeM4WoxmCpOQBaea7oYqwepDf4uwzpmr6NpQn37DgkTd4QVhJCiqCa-ApRPPY6AG6LLGytQbiTihqBHKPDLBLBcKY9KSg6a2pGh3ycXLMeVRfLWVJDtciAiumc_R9iibLNAQqgUq0f-xV8luUtI9aFbeRPy-LItU0vhivShu61w-Xmii27BmOmc53GbF8nA6E42jMF9hEr8RWvXNS9rfdSynxyd5qeLrdCerOBF0csctn9ZuRoarUE98pGRebthUycOI4p3MTnaHhkcy5sMf-ZRVQYpEFYSVy6xXlRXz8U8OJ27c6jIBd6NOWwYfp61zFFmhAQytq9w6DikrBvny0]--></g></svg>