<?xml version="1.0" encoding="UTF-8" standalone="no"?><svg xmlns="http://www.w3.org/2000/svg" xmlns:xlink="http://www.w3.org/1999/xlink" contentStyleType="text/css" height="512px" preserveAspectRatio="none" style="width:777px;height:512px;background:#FFFFFF;" version="1.1" viewBox="0 0 777 512" width="777px" zoomAndPan="magnify"><defs/><g><!--MD5=[175f95e045c1a44aed0b30df3abe0e5c]
class Program--><g id="elem_Program"><rect codeLine="3" fill="#F1F1F1" height="32" id="Program" rx="2.5" ry="2.5" style="stroke:#181818;stroke-width:0.5;" width="90" x="141.66" y="7"/><ellipse cx="156.66" cy="23" fill="#ADD1B2" rx="11" ry="11" style="stroke:#181818;stroke-width:1.0;"/><path d="M156.1288,29.9219 Q154.3788,29.9219 153.2381,29.1875 Q152.1131,28.4375 151.5506,27.0938 Q151.0038,25.7344 151.0038,23.9375 Q151.0038,21.9063 151.66,20.4531 Q152.3163,19 153.5975,18.2188 Q154.8788,17.4375 156.7538,17.4375 Q157.6444,17.4375 158.3163,17.625 Q158.9881,17.7969 159.6756,18.1406 L158.8631,20.1563 Q158.2381,19.8438 157.6913,19.7188 Q157.16,19.5938 156.6756,19.5938 Q155.5038,19.5938 154.8006,20.125 Q154.0975,20.6563 153.8006,21.6094 Q153.5038,22.5625 153.5038,23.8281 Q153.5038,25.8438 154.2225,26.8125 Q154.9413,27.7656 156.535,27.7656 Q157.1288,27.7656 157.7538,27.6094 Q158.3788,27.4531 159.2069,27.0781 L159.2069,29.2969 Q158.4725,29.6094 157.6756,29.7656 Q156.8944,29.9219 156.1288,29.9219 Z " fill="#000000"/><text fill="#000000" font-family="sans-serif" font-size="14" lengthAdjust="spacing" textLength="58" x="170.66" y="28.432">Program</text></g><!--MD5=[377953f0e8c8c0131a700fca43c84158]
class Strategy--><g id="elem_Strategy"><rect codeLine="8" fill="#F1F1F1" height="78.1358" id="Strategy" rx="2.5" ry="2.5" style="stroke:#181818;stroke-width:0.5;" width="88" x="142.66" y="100"/><ellipse cx="157.66" cy="116" fill="#ADD1B2" rx="11" ry="11" style="stroke:#181818;stroke-width:1.0;"/><path d="M157.1288,122.9219 Q155.3788,122.9219 154.2381,122.1875 Q153.1131,121.4375 152.5506,120.0938 Q152.0038,118.7344 152.0038,116.9375 Q152.0038,114.9063 152.66,113.4531 Q153.3163,112 154.5975,111.2188 Q155.8788,110.4375 157.7538,110.4375 Q158.6444,110.4375 159.3163,110.625 Q159.9881,110.7969 160.6756,111.1406 L159.8631,113.1563 Q159.2381,112.8438 158.6913,112.7188 Q158.16,112.5938 157.6756,112.5938 Q156.5038,112.5938 155.8006,113.125 Q155.0975,113.6563 154.8006,114.6094 Q154.5038,115.5625 154.5038,116.8281 Q154.5038,118.8438 155.2225,119.8125 Q155.9413,120.7656 157.535,120.7656 Q158.1288,120.7656 158.7538,120.6094 Q159.3788,120.4531 160.2069,120.0781 L160.2069,122.2969 Q159.4725,122.6094 158.6756,122.7656 Q157.8944,122.9219 157.1288,122.9219 Z " fill="#000000"/><text fill="#000000" font-family="sans-serif" font-size="14" lengthAdjust="spacing" textLength="56" x="171.66" y="121.432">Strategy</text><line style="stroke:#181818;stroke-width:0.5;" x1="143.66" x2="229.66" y1="132" y2="132"/><ellipse cx="153.66" cy="147.034" fill="none" rx="3" ry="3" style="stroke:#038048;stroke-width:1.0;"/><text fill="#000000" font-family="sans-serif" font-size="14" lengthAdjust="spacing" textLength="33" x="162.66" y="150.9659">label</text><ellipse cx="153.66" cy="166.1019" fill="none" rx="3" ry="3" style="stroke:#038048;stroke-width:1.0;"/><text fill="#000000" font-family="sans-serif" font-size="14" lengthAdjust="spacing" textLength="38" x="162.66" y="170.0339">name</text></g><!--MD5=[7cf2f087f3d85f0d5cd124d15ee8e0b3]
class TaxonGroup--><g id="elem_TaxonGroup"><rect fill="#F1F1F1" height="32" id="TaxonGroup" rx="2.5" ry="2.5" style="stroke:#181818;stroke-width:0.5;" width="114" x="45.66" y="473"/><ellipse cx="60.66" cy="489" fill="#ADD1B2" rx="11" ry="11" style="stroke:#181818;stroke-width:1.0;"/><path d="M60.1288,495.9219 Q58.3788,495.9219 57.2381,495.1875 Q56.1131,494.4375 55.5506,493.0938 Q55.0038,491.7344 55.0038,489.9375 Q55.0038,487.9063 55.66,486.4531 Q56.3163,485 57.5975,484.2188 Q58.8788,483.4375 60.7538,483.4375 Q61.6444,483.4375 62.3163,483.625 Q62.9881,483.7969 63.6756,484.1406 L62.8631,486.1563 Q62.2381,485.8438 61.6913,485.7188 Q61.16,485.5938 60.6756,485.5938 Q59.5038,485.5938 58.8006,486.125 Q58.0975,486.6563 57.8006,487.6094 Q57.5038,488.5625 57.5038,489.8281 Q57.5038,491.8438 58.2225,492.8125 Q58.9413,493.7656 60.535,493.7656 Q61.1288,493.7656 61.7538,493.6094 Q62.3788,493.4531 63.2069,493.0781 L63.2069,495.2969 Q62.4725,495.6094 61.6756,495.7656 Q60.8944,495.9219 60.1288,495.9219 Z " fill="#000000"/><text fill="#000000" font-family="sans-serif" font-size="14" lengthAdjust="spacing" textLength="82" x="74.66" y="494.432">TaxonGroup</text></g><!--MD5=[5fbf44cad9d85d041f6c22d6936de63f]
class ReferenceTaxon--><g id="elem_ReferenceTaxon"><rect fill="#F1F1F1" height="32" id="ReferenceTaxon" rx="2.5" ry="2.5" style="stroke:#181818;stroke-width:0.5;" width="140" x="560.66" y="473"/><ellipse cx="575.66" cy="489" fill="#ADD1B2" rx="11" ry="11" style="stroke:#181818;stroke-width:1.0;"/><path d="M575.1288,495.9219 Q573.3788,495.9219 572.2381,495.1875 Q571.1131,494.4375 570.5506,493.0938 Q570.0038,491.7344 570.0038,489.9375 Q570.0038,487.9063 570.66,486.4531 Q571.3163,485 572.5975,484.2188 Q573.8788,483.4375 575.7538,483.4375 Q576.6444,483.4375 577.3163,483.625 Q577.9881,483.7969 578.6756,484.1406 L577.8631,486.1563 Q577.2381,485.8438 576.6913,485.7188 Q576.16,485.5938 575.6756,485.5938 Q574.5038,485.5938 573.8006,486.125 Q573.0975,486.6563 572.8006,487.6094 Q572.5038,488.5625 572.5038,489.8281 Q572.5038,491.8438 573.2225,492.8125 Q573.9413,493.7656 575.535,493.7656 Q576.1288,493.7656 576.7538,493.6094 Q577.3788,493.4531 578.2069,493.0781 L578.2069,495.2969 Q577.4725,495.6094 576.6756,495.7656 Q575.8944,495.9219 575.1288,495.9219 Z " fill="#000000"/><text fill="#000000" font-family="sans-serif" font-size="14" lengthAdjust="spacing" textLength="108" x="589.66" y="494.432">ReferenceTaxon</text></g><!--MD5=[4a5b830e134785a0ee3e2d1c830d1a30]
class Gear--><g id="elem_Gear"><rect fill="#F1F1F1" height="32" id="Gear" rx="2.5" ry="2.5" style="stroke:#181818;stroke-width:0.5;" width="64" x="329.66" y="473"/><ellipse cx="344.66" cy="489" fill="#ADD1B2" rx="11" ry="11" style="stroke:#181818;stroke-width:1.0;"/><path d="M344.1288,495.9219 Q342.3788,495.9219 341.2381,495.1875 Q340.1131,494.4375 339.5506,493.0938 Q339.0038,491.7344 339.0038,489.9375 Q339.0038,487.9063 339.66,486.4531 Q340.3163,485 341.5975,484.2188 Q342.8788,483.4375 344.7538,483.4375 Q345.6444,483.4375 346.3163,483.625 Q346.9881,483.7969 347.6756,484.1406 L346.8631,486.1563 Q346.2381,485.8438 345.6913,485.7188 Q345.16,485.5938 344.6756,485.5938 Q343.5038,485.5938 342.8006,486.125 Q342.0975,486.6563 341.8006,487.6094 Q341.5038,488.5625 341.5038,489.8281 Q341.5038,491.8438 342.2225,492.8125 Q342.9413,493.7656 344.535,493.7656 Q345.1288,493.7656 345.7538,493.6094 Q346.3788,493.4531 347.2069,493.0781 L347.2069,495.2969 Q346.4725,495.6094 345.6756,495.7656 Q344.8944,495.9219 344.1288,495.9219 Z " fill="#000000"/><text fill="#000000" font-family="sans-serif" font-size="14" lengthAdjust="spacing" textLength="32" x="358.66" y="494.432">Gear</text></g><!--MD5=[0c7872ea219d4fbcf315dbece3cf7128]
class PmfmStrategy--><g id="elem_PmfmStrategy"><rect codeLine="18" fill="#F1F1F1" height="173.4754" id="PmfmStrategy" rx="2.5" ry="2.5" style="stroke:#181818;stroke-width:0.5;" width="269" x="315.16" y="239"/><ellipse cx="397.91" cy="255" fill="#ADD1B2" rx="11" ry="11" style="stroke:#181818;stroke-width:1.0;"/><path d="M397.3788,261.9219 Q395.6288,261.9219 394.4881,261.1875 Q393.3631,260.4375 392.8006,259.0938 Q392.2538,257.7344 392.2538,255.9375 Q392.2538,253.9063 392.91,252.4531 Q393.5663,251 394.8475,250.2188 Q396.1288,249.4375 398.0038,249.4375 Q398.8944,249.4375 399.5663,249.625 Q400.2381,249.7969 400.9256,250.1406 L400.1131,252.1563 Q399.4881,251.8438 398.9413,251.7188 Q398.41,251.5938 397.9256,251.5938 Q396.7538,251.5938 396.0506,252.125 Q395.3475,252.6563 395.0506,253.6094 Q394.7538,254.5625 394.7538,255.8281 Q394.7538,257.8438 395.4725,258.8125 Q396.1913,259.7656 397.785,259.7656 Q398.3788,259.7656 399.0038,259.6094 Q399.6288,259.4531 400.4569,259.0781 L400.4569,261.2969 Q399.7225,261.6094 398.9256,261.7656 Q398.1444,261.9219 397.3788,261.9219 Z " fill="#000000"/><text fill="#000000" font-family="sans-serif" font-size="14" lengthAdjust="spacing" textLength="95" x="418.41" y="260.432">PmfmStrategy</text><line style="stroke:#181818;stroke-width:0.5;" x1="316.16" x2="583.16" y1="271" y2="271"/><ellipse cx="326.16" cy="286.034" fill="none" rx="3" ry="3" style="stroke:#038048;stroke-width:1.0;"/><text fill="#000000" font-family="sans-serif" font-size="14" lengthAdjust="spacing" textLength="160" x="335.16" y="289.9659">minValue [0..1] : double</text><ellipse cx="326.16" cy="305.1019" fill="none" rx="3" ry="3" style="stroke:#038048;stroke-width:1.0;"/><text fill="#000000" font-family="sans-serif" font-size="14" lengthAdjust="spacing" textLength="162" x="335.16" y="309.0339">maxValue [0..1] : double</text><ellipse cx="326.16" cy="324.1698" fill="none" rx="3" ry="3" style="stroke:#038048;stroke-width:1.0;"/><text fill="#000000" font-family="sans-serif" font-size="14" lengthAdjust="spacing" textLength="182" x="335.16" y="328.1018">defaultValue [0..1] : double</text><ellipse cx="326.16" cy="343.2377" fill="none" rx="3" ry="3" style="stroke:#038048;stroke-width:1.0;"/><text fill="#000000" font-family="sans-serif" font-size="14" lengthAdjust="spacing" textLength="187" x="335.16" y="347.1697">acquisitionNumber: integer</text><ellipse cx="326.16" cy="362.3056" fill="none" rx="3" ry="3" style="stroke:#038048;stroke-width:1.0;"/><text fill="#000000" font-family="sans-serif" font-size="14" lengthAdjust="spacing" textLength="127" x="335.16" y="366.2376">rankOrder: integer</text><ellipse cx="326.16" cy="381.3735" fill="none" rx="3" ry="3" style="stroke:#038048;stroke-width:1.0;"/><text fill="#000000" font-family="sans-serif" font-size="14" lengthAdjust="spacing" textLength="150" x="335.16" y="385.3055">isMandatory : boolean</text><ellipse cx="326.16" cy="400.4415" fill="none" rx="3" ry="3" style="stroke:#038048;stroke-width:1.0;"/><text fill="#000000" font-family="sans-serif" font-size="14" lengthAdjust="spacing" textLength="243" x="335.16" y="404.3734">signifFiguresNumber [0..1] : integer</text></g><!--MD5=[11fe6be91ad07e7920240f142ef66897]
class Pmfm--><g id="elem_Pmfm"><rect fill="#F1F1F1" height="32" id="Pmfm" rx="2.5" ry="2.5" style="stroke:#181818;stroke-width:0.5;" width="71" x="633.16" y="309.5"/><ellipse cx="648.16" cy="325.5" fill="#ADD1B2" rx="11" ry="11" style="stroke:#181818;stroke-width:1.0;"/><path d="M647.6288,332.4219 Q645.8788,332.4219 644.7381,331.6875 Q643.6131,330.9375 643.0506,329.5938 Q642.5038,328.2344 642.5038,326.4375 Q642.5038,324.4063 643.16,322.9531 Q643.8163,321.5 645.0975,320.7188 Q646.3788,319.9375 648.2538,319.9375 Q649.1444,319.9375 649.8163,320.125 Q650.4881,320.2969 651.1756,320.6406 L650.3631,322.6563 Q649.7381,322.3438 649.1913,322.2188 Q648.66,322.0938 648.1756,322.0938 Q647.0038,322.0938 646.3006,322.625 Q645.5975,323.1563 645.3006,324.1094 Q645.0038,325.0625 645.0038,326.3281 Q645.0038,328.3438 645.7225,329.3125 Q646.4413,330.2656 648.035,330.2656 Q648.6288,330.2656 649.2538,330.1094 Q649.8788,329.9531 650.7069,329.5781 L650.7069,331.7969 Q649.9725,332.1094 649.1756,332.2656 Q648.3944,332.4219 647.6288,332.4219 Z " fill="#000000"/><text fill="#000000" font-family="sans-serif" font-size="14" lengthAdjust="spacing" textLength="39" x="662.16" y="330.932">Pmfm</text></g><!--MD5=[de895414ee81697c49c0205b9633c189]
class AcquisitionLevel--><g id="elem_AcquisitionLevel"><rect fill="#F1F1F1" height="32" id="AcquisitionLevel" rx="2.5" ry="2.5" style="stroke:#181818;stroke-width:0.5;" width="141" x="139.16" y="309.5"/><ellipse cx="154.16" cy="325.5" fill="#ADD1B2" rx="11" ry="11" style="stroke:#181818;stroke-width:1.0;"/><path d="M153.6288,332.4219 Q151.8788,332.4219 150.7381,331.6875 Q149.6131,330.9375 149.0506,329.5938 Q148.5038,328.2344 148.5038,326.4375 Q148.5038,324.4063 149.16,322.9531 Q149.8163,321.5 151.0975,320.7188 Q152.3788,319.9375 154.2538,319.9375 Q155.1444,319.9375 155.8163,320.125 Q156.4881,320.2969 157.1756,320.6406 L156.3631,322.6563 Q155.7381,322.3438 155.1913,322.2188 Q154.66,322.0938 154.1756,322.0938 Q153.0038,322.0938 152.3006,322.625 Q151.5975,323.1563 151.3006,324.1094 Q151.0038,325.0625 151.0038,326.3281 Q151.0038,328.3438 151.7225,329.3125 Q152.4413,330.2656 154.035,330.2656 Q154.6288,330.2656 155.2538,330.1094 Q155.8788,329.9531 156.7069,329.5781 L156.7069,331.7969 Q155.9725,332.1094 155.1756,332.2656 Q154.3944,332.4219 153.6288,332.4219 Z " fill="#000000"/><text fill="#000000" font-family="sans-serif" font-size="14" lengthAdjust="spacing" textLength="109" x="168.16" y="330.932">AcquisitionLevel</text></g><!--MD5=[5c98a2976bb81e6eaef9fb207988ac77]
link Program to Strategy--><g id="link_Program_Strategy"><path codeLine="6" d="M186.66,51.37 C186.66,51.37 186.66,74.99 186.66,86.79 " fill="none" id="Program-Strategy" style="stroke:#181818;stroke-width:1.0;"/><polygon fill="#181818" points="186.66,99.87,190.66,90.87,186.66,94.87,182.66,90.87,186.66,99.87" style="stroke:#181818;stroke-width:1.0;"/><line style="stroke:#181818;stroke-width:1.0;" x1="186.66" x2="186.66" y1="94.87" y2="86.87"/><polygon fill="#181818" points="186.66,39.37,182.66,45.37,186.66,51.37,190.66,45.37,186.66,39.37" style="stroke:#181818;stroke-width:1.0;"/><text fill="#000000" font-family="sans-serif" font-size="13" lengthAdjust="spacing" textLength="20" x="163.5975" y="60.9916">0..*</text><text fill="#000000" font-family="sans-serif" font-size="13" lengthAdjust="spacing" textLength="7" x="179.0366" y="88.3337">1</text></g><!--MD5=[fd2b25c840a578572f9c198381f55d2f]
link Strategy to TaxonGroup--><g id="link_Strategy_TaxonGroup"><path codeLine="13" d="M142.52,150.94 C113.43,160.69 77.52,178.18 59.66,208 C6,297.6 20.79,346.06 59.66,443 C63.67,453 71.08,462.03 78.63,469.34 " fill="none" id="Strategy-to-TaxonGroup" style="stroke:#181818;stroke-width:1.0;"/><polygon fill="#181818" points="82.33,472.78,78.4621,463.7224,78.6681,469.3756,73.015,469.5815,82.33,472.78" style="stroke:#181818;stroke-width:1.0;"/><text fill="#000000" font-family="sans-serif" font-size="13" lengthAdjust="spacing" textLength="20" x="51.9041" y="461.3009">0..*</text></g><!--MD5=[36b8caed83bb8b1d59d5b723248840b9]
link Strategy to ReferenceTaxon--><g id="link_Strategy_ReferenceTaxon"><path codeLine="14" d="M230.67,141.22 C347.18,145.46 659.06,163.75 721.66,239 C770.84,298.11 754.24,342.35 721.66,412 C709.86,437.24 685.09,457.04 664.37,470.09 " fill="none" id="Strategy-to-ReferenceTaxon" style="stroke:#181818;stroke-width:1.0;"/><polygon fill="#181818" points="660.02,472.77,669.7825,471.4689,664.2807,470.1535,665.5961,464.6517,660.02,472.77" style="stroke:#181818;stroke-width:1.0;"/><text fill="#000000" font-family="sans-serif" font-size="13" lengthAdjust="spacing" textLength="20" x="646.675" y="461.2874">0..*</text></g><!--MD5=[e0c074d204e929ddaa4d3fdc14063ed7]
link Strategy to Gear--><g id="link_Strategy_Gear"><path codeLine="15" d="M154.02,178.26 C141.29,195.62 128.2,217.13 121.66,239 C99.64,312.67 76.24,349.97 121.66,412 C168.44,475.88 269.2,487.41 324.11,488.69 " fill="none" id="Strategy-to-Gear" style="stroke:#181818;stroke-width:1.0;"/><polygon fill="#181818" points="329.28,488.78,320.3499,484.6263,324.2807,488.6943,320.2128,492.6251,329.28,488.78" style="stroke:#181818;stroke-width:1.0;"/><text fill="#000000" font-family="sans-serif" font-size="13" lengthAdjust="spacing" textLength="20" x="301.7311" y="484.1866">0..*</text></g><!--MD5=[ce902d2b0202fbbcaf16e19b51981346]
link Strategy to PmfmStrategy--><g id="link_Strategy_PmfmStrategy"><path codeLine="29" d="M240.5015,177.7748 C240.5015,177.7748 290.36,212.74 317.11,231.51 " fill="none" id="Strategy-PmfmStrategy" style="stroke:#181818;stroke-width:1.0;"/><polygon fill="#181818" points="327.76,238.98,322.6922,230.5351,323.6677,236.1072,318.0956,237.0827,327.76,238.98" style="stroke:#181818;stroke-width:1.0;"/><line style="stroke:#181818;stroke-width:1.0;" x1="323.6677" x2="317.115" y1="236.1072" y2="231.515"/><polygon fill="#181818" points="230.68,170.88,233.2925,177.6012,240.5015,177.7748,237.889,171.0536,230.68,170.88" style="stroke:#181818;stroke-width:1.0;"/><text fill="#000000" font-family="sans-serif" font-size="13" lengthAdjust="spacing" textLength="7" x="238.5505" y="171.6965">1</text><text fill="#000000" font-family="sans-serif" font-size="13" lengthAdjust="spacing" textLength="20" x="295.6005" y="227.128">0..*</text></g><!--MD5=[08f9e00d5ea0e1615f0b90760db74e1c]
link PmfmStrategy to Pmfm--><g id="link_PmfmStrategy_Pmfm"><path codeLine="30" d="M584.3,325.5 C600.05,325.5 615.06,325.5 627.94,325.5 " fill="none" id="PmfmStrategy-to-Pmfm" style="stroke:#181818;stroke-width:1.0;"/><polygon fill="#181818" points="632.95,325.5,623.95,321.5,627.95,325.5,623.95,329.5,632.95,325.5" style="stroke:#181818;stroke-width:1.0;"/><text fill="#000000" font-family="sans-serif" font-size="13" lengthAdjust="spacing" textLength="12" x="602.66" y="318.397">    </text><text fill="#000000" font-family="sans-serif" font-size="13" lengthAdjust="spacing" textLength="20" x="592.21" y="339.8682">0..*</text><text fill="#000000" font-family="sans-serif" font-size="13" lengthAdjust="spacing" textLength="7" x="618.2305" y="320.7931">1</text></g><!--MD5=[e0f9749b6c4972ce0b22e34072ead951]
reverse link AcquisitionLevel to PmfmStrategy--><g id="link_AcquisitionLevel_PmfmStrategy"><path codeLine="31" d="M285.59,325.5 C295.45,325.5 305.3,325.5 315.15,325.5 " fill="none" id="AcquisitionLevel-backto-PmfmStrategy" style="stroke:#181818;stroke-width:1.0;"/><polygon fill="#181818" points="280.44,325.5,289.44,329.5,285.44,325.5,289.44,321.5,280.44,325.5" style="stroke:#181818;stroke-width:1.0;"/><text fill="#000000" font-family="sans-serif" font-size="13" lengthAdjust="spacing" textLength="7" x="288.1001" y="321.5569">1</text><text fill="#000000" font-family="sans-serif" font-size="13" lengthAdjust="spacing" textLength="20" x="288.2051" y="321.8444">0..*</text></g><!--MD5=[9cc6a7be6db876724e4ce8a473eb5f8b]
link PmfmStrategy to TaxonGroup--><g id="link_PmfmStrategy_TaxonGroup"><path codeLine="33" d="M315.09,403.49 C309.24,406.43 303.41,409.28 297.66,412 C248.9,435.08 191.11,456.95 151.17,471.25 " fill="none" id="PmfmStrategy-to-TaxonGroup" style="stroke:#181818;stroke-width:1.0;"/><polygon fill="#181818" points="146.39,472.96,156.21,473.7132,151.101,471.2847,153.5295,466.1756,146.39,472.96" style="stroke:#181818;stroke-width:1.0;"/><text fill="#000000" font-family="sans-serif" font-size="13" lengthAdjust="spacing" textLength="20" x="138.4063" y="461.2404">0..*</text></g><!--MD5=[292e36985e55b1453d1ff0e2c172e625]
link PmfmStrategy to ReferenceTaxon--><g id="link_PmfmStrategy_ReferenceTaxon"><path codeLine="34" d="M545.73,412.22 C569.91,433.79 593.56,454.89 609.73,469.33 " fill="none" id="PmfmStrategy-to-ReferenceTaxon" style="stroke:#181818;stroke-width:1.0;"/><polygon fill="#181818" points="613.68,472.85,609.6299,463.8724,609.9501,469.5202,604.3023,469.8403,613.68,472.85" style="stroke:#181818;stroke-width:1.0;"/><text fill="#000000" font-family="sans-serif" font-size="13" lengthAdjust="spacing" textLength="20" x="584.0684" y="461.0912">0..*</text></g><!--MD5=[29144045c2e1d6bbe0dbf9fea73991c7]
link PmfmStrategy to Gear--><g id="link_PmfmStrategy_Gear"><path codeLine="35" d="M402.83,412.45 C391.4,433.43 380.22,453.94 372.4,468.29 " fill="none" id="PmfmStrategy-to-Gear" style="stroke:#181818;stroke-width:1.0;"/><polygon fill="#181818" points="369.89,472.91,377.6962,466.9048,372.2733,468.5145,370.6635,463.0916,369.89,472.91" style="stroke:#181818;stroke-width:1.0;"/><text fill="#000000" font-family="sans-serif" font-size="13" lengthAdjust="spacing" textLength="20" x="349.2594" y="461.1726">0..*</text></g></g></svg>