<?xml version="1.0" encoding="UTF-8" standalone="no"?><svg xmlns="http://www.w3.org/2000/svg" xmlns:xlink="http://www.w3.org/1999/xlink" contentScriptType="application/ecmascript" contentStyleType="text/css" height="519px" preserveAspectRatio="none" style="width:667px;height:519px;" version="1.1" viewBox="0 0 667 519" width="667px" zoomAndPan="magnify"><defs><filter height="300%" id="f1uit3wjskb748" width="300%" x="-1" y="-1"><feGaussianBlur result="blurOut" stdDeviation="2.0"/><feColorMatrix in="blurOut" result="blurOut2" type="matrix" values="0 0 0 0 0 0 0 0 0 0 0 0 0 0 0 0 0 0 .4 0"/><feOffset dx="4.0" dy="4.0" in="blurOut2" result="blurOut3"/><feBlend in="SourceGraphic" in2="blurOut3" mode="normal"/></filter></defs><g><!--class Program--><rect fill="#FEFECE" filter="url(#f1uit3wjskb748)" height="48" id="Program" style="stroke: #A80036; stroke-width: 1.5;" width="80" x="123.5" y="8"/><ellipse cx="138.5" cy="24" fill="#ADD1B2" rx="11" ry="11" style="stroke: #A80036; stroke-width: 1.0;"/><path d="M141.2656,19.875 Q141.4219,19.6563 141.6094,19.5469 Q141.7969,19.4375 142.0156,19.4375 Q142.3906,19.4375 142.625,19.6953 Q142.8594,19.9531 142.8594,20.5625 L142.8594,22.0156 Q142.8594,22.625 142.625,22.8906 Q142.3906,23.1563 142.0156,23.1563 Q141.6719,23.1563 141.4688,22.9531 Q141.2656,22.7656 141.1563,22.25 Q141.1094,21.8906 140.9219,21.7031 Q140.5938,21.3281 139.9844,21.1094 Q139.375,20.8906 138.75,20.8906 Q137.9844,20.8906 137.3516,21.2188 Q136.7188,21.5469 136.2266,22.2969 Q135.7344,23.0469 135.7344,24.0781 L135.7344,25.1719 Q135.7344,26.4063 136.625,27.2266 Q137.5156,28.0469 139.1094,28.0469 Q140.0469,28.0469 140.7031,27.7969 Q141.0938,27.6406 141.5156,27.2031 Q141.7813,26.9375 141.9297,26.8594 Q142.0781,26.7813 142.2813,26.7813 Q142.6094,26.7813 142.8672,27.0391 Q143.125,27.2969 143.125,27.6406 Q143.125,27.9844 142.7813,28.3906 Q142.2813,28.9688 141.4844,29.2969 Q140.4063,29.75 139.1094,29.75 Q137.5938,29.75 136.3906,29.125 Q135.4063,28.625 134.7188,27.5547 Q134.0313,26.4844 134.0313,25.2031 L134.0313,24.0469 Q134.0313,22.7188 134.6484,21.5703 Q135.2656,20.4219 136.3594,19.8047 Q137.4531,19.1875 138.6875,19.1875 Q139.4219,19.1875 140.0703,19.3516 Q140.7188,19.5156 141.2656,19.875 Z "/><text fill="#000000" font-family="sans-serif" font-size="12" lengthAdjust="spacingAndGlyphs" textLength="48" x="152.5" y="28.9102">Program</text><line style="stroke: #A80036; stroke-width: 1.5;" x1="124.5" x2="202.5" y1="40" y2="40"/><line style="stroke: #A80036; stroke-width: 1.5;" x1="124.5" x2="202.5" y1="48" y2="48"/><!--class Strategy--><rect fill="#FEFECE" filter="url(#f1uit3wjskb748)" height="75.6719" id="Strategy" style="stroke: #A80036; stroke-width: 1.5;" width="76" x="125.5" y="117"/><ellipse cx="140.5" cy="133" fill="#ADD1B2" rx="11" ry="11" style="stroke: #A80036; stroke-width: 1.0;"/><path d="M143.2656,128.875 Q143.4219,128.6563 143.6094,128.5469 Q143.7969,128.4375 144.0156,128.4375 Q144.3906,128.4375 144.625,128.6953 Q144.8594,128.9531 144.8594,129.5625 L144.8594,131.0156 Q144.8594,131.625 144.625,131.8906 Q144.3906,132.1563 144.0156,132.1563 Q143.6719,132.1563 143.4688,131.9531 Q143.2656,131.7656 143.1563,131.25 Q143.1094,130.8906 142.9219,130.7031 Q142.5938,130.3281 141.9844,130.1094 Q141.375,129.8906 140.75,129.8906 Q139.9844,129.8906 139.3516,130.2188 Q138.7188,130.5469 138.2266,131.2969 Q137.7344,132.0469 137.7344,133.0781 L137.7344,134.1719 Q137.7344,135.4063 138.625,136.2266 Q139.5156,137.0469 141.1094,137.0469 Q142.0469,137.0469 142.7031,136.7969 Q143.0938,136.6406 143.5156,136.2031 Q143.7813,135.9375 143.9297,135.8594 Q144.0781,135.7813 144.2813,135.7813 Q144.6094,135.7813 144.8672,136.0391 Q145.125,136.2969 145.125,136.6406 Q145.125,136.9844 144.7813,137.3906 Q144.2813,137.9688 143.4844,138.2969 Q142.4063,138.75 141.1094,138.75 Q139.5938,138.75 138.3906,138.125 Q137.4063,137.625 136.7188,136.5547 Q136.0313,135.4844 136.0313,134.2031 L136.0313,133.0469 Q136.0313,131.7188 136.6484,130.5703 Q137.2656,129.4219 138.3594,128.8047 Q139.4531,128.1875 140.6875,128.1875 Q141.4219,128.1875 142.0703,128.3516 Q142.7188,128.5156 143.2656,128.875 Z "/><text fill="#000000" font-family="sans-serif" font-size="12" lengthAdjust="spacingAndGlyphs" textLength="44" x="154.5" y="137.9102">Strategy</text><line style="stroke: #A80036; stroke-width: 1.5;" x1="126.5" x2="200.5" y1="149" y2="149"/><ellipse cx="136.5" cy="161.418" fill="none" rx="3" ry="3" style="stroke: #038048; stroke-width: 1.0;"/><text fill="#000000" font-family="sans-serif" font-size="11" lengthAdjust="spacingAndGlyphs" textLength="22" x="145.5" y="164.4189">label</text><ellipse cx="136.5" cy="175.2539" fill="none" rx="3" ry="3" style="stroke: #038048; stroke-width: 1.0;"/><text fill="#000000" font-family="sans-serif" font-size="11" lengthAdjust="spacingAndGlyphs" textLength="26" x="145.5" y="178.2549">name</text><line style="stroke: #A80036; stroke-width: 1.5;" x1="126.5" x2="200.5" y1="184.6719" y2="184.6719"/><!--class TaxonGroup--><rect fill="#FEFECE" filter="url(#f1uit3wjskb748)" height="48" id="TaxonGroup" style="stroke: #A80036; stroke-width: 1.5;" width="99" x="6" y="460"/><ellipse cx="21" cy="476" fill="#ADD1B2" rx="11" ry="11" style="stroke: #A80036; stroke-width: 1.0;"/><path d="M23.7656,471.875 Q23.9219,471.6563 24.1094,471.5469 Q24.2969,471.4375 24.5156,471.4375 Q24.8906,471.4375 25.125,471.6953 Q25.3594,471.9531 25.3594,472.5625 L25.3594,474.0156 Q25.3594,474.625 25.125,474.8906 Q24.8906,475.1563 24.5156,475.1563 Q24.1719,475.1563 23.9688,474.9531 Q23.7656,474.7656 23.6563,474.25 Q23.6094,473.8906 23.4219,473.7031 Q23.0938,473.3281 22.4844,473.1094 Q21.875,472.8906 21.25,472.8906 Q20.4844,472.8906 19.8516,473.2188 Q19.2188,473.5469 18.7266,474.2969 Q18.2344,475.0469 18.2344,476.0781 L18.2344,477.1719 Q18.2344,478.4063 19.125,479.2266 Q20.0156,480.0469 21.6094,480.0469 Q22.5469,480.0469 23.2031,479.7969 Q23.5938,479.6406 24.0156,479.2031 Q24.2813,478.9375 24.4297,478.8594 Q24.5781,478.7813 24.7813,478.7813 Q25.1094,478.7813 25.3672,479.0391 Q25.625,479.2969 25.625,479.6406 Q25.625,479.9844 25.2813,480.3906 Q24.7813,480.9688 23.9844,481.2969 Q22.9063,481.75 21.6094,481.75 Q20.0938,481.75 18.8906,481.125 Q17.9063,480.625 17.2188,479.5547 Q16.5313,478.4844 16.5313,477.2031 L16.5313,476.0469 Q16.5313,474.7188 17.1484,473.5703 Q17.7656,472.4219 18.8594,471.8047 Q19.9531,471.1875 21.1875,471.1875 Q21.9219,471.1875 22.5703,471.3516 Q23.2188,471.5156 23.7656,471.875 Z "/><text fill="#000000" font-family="sans-serif" font-size="12" lengthAdjust="spacingAndGlyphs" textLength="67" x="35" y="480.9102">TaxonGroup</text><line style="stroke: #A80036; stroke-width: 1.5;" x1="7" x2="104" y1="492" y2="492"/><line style="stroke: #A80036; stroke-width: 1.5;" x1="7" x2="104" y1="500" y2="500"/><!--class ReferenceTaxon--><rect fill="#FEFECE" filter="url(#f1uit3wjskb748)" height="48" id="ReferenceTaxon" style="stroke: #A80036; stroke-width: 1.5;" width="122" x="382.5" y="460"/><ellipse cx="397.5" cy="476" fill="#ADD1B2" rx="11" ry="11" style="stroke: #A80036; stroke-width: 1.0;"/><path d="M400.2656,471.875 Q400.4219,471.6563 400.6094,471.5469 Q400.7969,471.4375 401.0156,471.4375 Q401.3906,471.4375 401.625,471.6953 Q401.8594,471.9531 401.8594,472.5625 L401.8594,474.0156 Q401.8594,474.625 401.625,474.8906 Q401.3906,475.1563 401.0156,475.1563 Q400.6719,475.1563 400.4688,474.9531 Q400.2656,474.7656 400.1563,474.25 Q400.1094,473.8906 399.9219,473.7031 Q399.5938,473.3281 398.9844,473.1094 Q398.375,472.8906 397.75,472.8906 Q396.9844,472.8906 396.3516,473.2188 Q395.7188,473.5469 395.2266,474.2969 Q394.7344,475.0469 394.7344,476.0781 L394.7344,477.1719 Q394.7344,478.4063 395.625,479.2266 Q396.5156,480.0469 398.1094,480.0469 Q399.0469,480.0469 399.7031,479.7969 Q400.0938,479.6406 400.5156,479.2031 Q400.7813,478.9375 400.9297,478.8594 Q401.0781,478.7813 401.2813,478.7813 Q401.6094,478.7813 401.8672,479.0391 Q402.125,479.2969 402.125,479.6406 Q402.125,479.9844 401.7813,480.3906 Q401.2813,480.9688 400.4844,481.2969 Q399.4063,481.75 398.1094,481.75 Q396.5938,481.75 395.3906,481.125 Q394.4063,480.625 393.7188,479.5547 Q393.0313,478.4844 393.0313,477.2031 L393.0313,476.0469 Q393.0313,474.7188 393.6484,473.5703 Q394.2656,472.4219 395.3594,471.8047 Q396.4531,471.1875 397.6875,471.1875 Q398.4219,471.1875 399.0703,471.3516 Q399.7188,471.5156 400.2656,471.875 Z "/><text fill="#000000" font-family="sans-serif" font-size="12" lengthAdjust="spacingAndGlyphs" textLength="90" x="411.5" y="480.9102">ReferenceTaxon</text><line style="stroke: #A80036; stroke-width: 1.5;" x1="383.5" x2="503.5" y1="492" y2="492"/><line style="stroke: #A80036; stroke-width: 1.5;" x1="383.5" x2="503.5" y1="500" y2="500"/><!--class Gear--><rect fill="#FEFECE" filter="url(#f1uit3wjskb748)" height="48" id="Gear" style="stroke: #A80036; stroke-width: 1.5;" width="59" x="239" y="460"/><ellipse cx="254" cy="476" fill="#ADD1B2" rx="11" ry="11" style="stroke: #A80036; stroke-width: 1.0;"/><path d="M256.7656,471.875 Q256.9219,471.6563 257.1094,471.5469 Q257.2969,471.4375 257.5156,471.4375 Q257.8906,471.4375 258.125,471.6953 Q258.3594,471.9531 258.3594,472.5625 L258.3594,474.0156 Q258.3594,474.625 258.125,474.8906 Q257.8906,475.1563 257.5156,475.1563 Q257.1719,475.1563 256.9688,474.9531 Q256.7656,474.7656 256.6563,474.25 Q256.6094,473.8906 256.4219,473.7031 Q256.0938,473.3281 255.4844,473.1094 Q254.875,472.8906 254.25,472.8906 Q253.4844,472.8906 252.8516,473.2188 Q252.2188,473.5469 251.7266,474.2969 Q251.2344,475.0469 251.2344,476.0781 L251.2344,477.1719 Q251.2344,478.4063 252.125,479.2266 Q253.0156,480.0469 254.6094,480.0469 Q255.5469,480.0469 256.2031,479.7969 Q256.5938,479.6406 257.0156,479.2031 Q257.2813,478.9375 257.4297,478.8594 Q257.5781,478.7813 257.7813,478.7813 Q258.1094,478.7813 258.3672,479.0391 Q258.625,479.2969 258.625,479.6406 Q258.625,479.9844 258.2813,480.3906 Q257.7813,480.9688 256.9844,481.2969 Q255.9063,481.75 254.6094,481.75 Q253.0938,481.75 251.8906,481.125 Q250.9063,480.625 250.2188,479.5547 Q249.5313,478.4844 249.5313,477.2031 L249.5313,476.0469 Q249.5313,474.7188 250.1484,473.5703 Q250.7656,472.4219 251.8594,471.8047 Q252.9531,471.1875 254.1875,471.1875 Q254.9219,471.1875 255.5703,471.3516 Q256.2188,471.5156 256.7656,471.875 Z "/><text fill="#000000" font-family="sans-serif" font-size="12" lengthAdjust="spacingAndGlyphs" textLength="27" x="268" y="480.9102">Gear</text><line style="stroke: #A80036; stroke-width: 1.5;" x1="240" x2="297" y1="492" y2="492"/><line style="stroke: #A80036; stroke-width: 1.5;" x1="240" x2="297" y1="500" y2="500"/><!--class PmfmStrategy--><rect fill="#FEFECE" filter="url(#f1uit3wjskb748)" height="144.8516" id="PmfmStrategy" style="stroke: #A80036; stroke-width: 1.5;" width="194" x="286.5" y="254"/><ellipse cx="340.75" cy="270" fill="#ADD1B2" rx="11" ry="11" style="stroke: #A80036; stroke-width: 1.0;"/><path d="M343.5156,265.875 Q343.6719,265.6563 343.8594,265.5469 Q344.0469,265.4375 344.2656,265.4375 Q344.6406,265.4375 344.875,265.6953 Q345.1094,265.9531 345.1094,266.5625 L345.1094,268.0156 Q345.1094,268.625 344.875,268.8906 Q344.6406,269.1563 344.2656,269.1563 Q343.9219,269.1563 343.7188,268.9531 Q343.5156,268.7656 343.4063,268.25 Q343.3594,267.8906 343.1719,267.7031 Q342.8438,267.3281 342.2344,267.1094 Q341.625,266.8906 341,266.8906 Q340.2344,266.8906 339.6016,267.2188 Q338.9688,267.5469 338.4766,268.2969 Q337.9844,269.0469 337.9844,270.0781 L337.9844,271.1719 Q337.9844,272.4063 338.875,273.2266 Q339.7656,274.0469 341.3594,274.0469 Q342.2969,274.0469 342.9531,273.7969 Q343.3438,273.6406 343.7656,273.2031 Q344.0313,272.9375 344.1797,272.8594 Q344.3281,272.7813 344.5313,272.7813 Q344.8594,272.7813 345.1172,273.0391 Q345.375,273.2969 345.375,273.6406 Q345.375,273.9844 345.0313,274.3906 Q344.5313,274.9688 343.7344,275.2969 Q342.6563,275.75 341.3594,275.75 Q339.8438,275.75 338.6406,275.125 Q337.6563,274.625 336.9688,273.5547 Q336.2813,272.4844 336.2813,271.2031 L336.2813,270.0469 Q336.2813,268.7188 336.8984,267.5703 Q337.5156,266.4219 338.6094,265.8047 Q339.7031,265.1875 340.9375,265.1875 Q341.6719,265.1875 342.3203,265.3516 Q342.9688,265.5156 343.5156,265.875 Z "/><text fill="#000000" font-family="sans-serif" font-size="12" lengthAdjust="spacingAndGlyphs" textLength="77" x="361.25" y="274.9102">PmfmStrategy</text><line style="stroke: #A80036; stroke-width: 1.5;" x1="287.5" x2="479.5" y1="286" y2="286"/><ellipse cx="297.5" cy="298.418" fill="none" rx="3" ry="3" style="stroke: #038048; stroke-width: 1.0;"/><text fill="#000000" font-family="sans-serif" font-size="11" lengthAdjust="spacingAndGlyphs" textLength="112" x="306.5" y="301.4189">minValue [0..1] : double</text><ellipse cx="297.5" cy="312.2539" fill="none" rx="3" ry="3" style="stroke: #038048; stroke-width: 1.0;"/><text fill="#000000" font-family="sans-serif" font-size="11" lengthAdjust="spacingAndGlyphs" textLength="116" x="306.5" y="315.2549">maxValue [0..1] : double</text><ellipse cx="297.5" cy="326.0898" fill="none" rx="3" ry="3" style="stroke: #038048; stroke-width: 1.0;"/><text fill="#000000" font-family="sans-serif" font-size="11" lengthAdjust="spacingAndGlyphs" textLength="129" x="306.5" y="329.0908">defaultValue [0..1] : double</text><ellipse cx="297.5" cy="339.9258" fill="none" rx="3" ry="3" style="stroke: #038048; stroke-width: 1.0;"/><text fill="#000000" font-family="sans-serif" font-size="11" lengthAdjust="spacingAndGlyphs" textLength="127" x="306.5" y="342.9268">acquisitionNumber: integer</text><ellipse cx="297.5" cy="353.7617" fill="none" rx="3" ry="3" style="stroke: #038048; stroke-width: 1.0;"/><text fill="#000000" font-family="sans-serif" font-size="11" lengthAdjust="spacingAndGlyphs" textLength="88" x="306.5" y="356.7627">rankOrder: integer</text><ellipse cx="297.5" cy="367.5977" fill="none" rx="3" ry="3" style="stroke: #038048; stroke-width: 1.0;"/><text fill="#000000" font-family="sans-serif" font-size="11" lengthAdjust="spacingAndGlyphs" textLength="106" x="306.5" y="370.5986">isMandatory : boolean</text><ellipse cx="297.5" cy="381.4336" fill="none" rx="3" ry="3" style="stroke: #038048; stroke-width: 1.0;"/><text fill="#000000" font-family="sans-serif" font-size="11" lengthAdjust="spacingAndGlyphs" textLength="168" x="306.5" y="384.4346">signifFiguresNumber [0..1] : integer</text><line style="stroke: #A80036; stroke-width: 1.5;" x1="287.5" x2="479.5" y1="390.8516" y2="390.8516"/><!--class Pmfm--><rect fill="#FEFECE" filter="url(#f1uit3wjskb748)" height="48" id="Pmfm" style="stroke: #A80036; stroke-width: 1.5;" width="65" x="533" y="302.5"/><ellipse cx="548" cy="318.5" fill="#ADD1B2" rx="11" ry="11" style="stroke: #A80036; stroke-width: 1.0;"/><path d="M550.7656,314.375 Q550.9219,314.1563 551.1094,314.0469 Q551.2969,313.9375 551.5156,313.9375 Q551.8906,313.9375 552.125,314.1953 Q552.3594,314.4531 552.3594,315.0625 L552.3594,316.5156 Q552.3594,317.125 552.125,317.3906 Q551.8906,317.6563 551.5156,317.6563 Q551.1719,317.6563 550.9688,317.4531 Q550.7656,317.2656 550.6563,316.75 Q550.6094,316.3906 550.4219,316.2031 Q550.0938,315.8281 549.4844,315.6094 Q548.875,315.3906 548.25,315.3906 Q547.4844,315.3906 546.8516,315.7188 Q546.2188,316.0469 545.7266,316.7969 Q545.2344,317.5469 545.2344,318.5781 L545.2344,319.6719 Q545.2344,320.9063 546.125,321.7266 Q547.0156,322.5469 548.6094,322.5469 Q549.5469,322.5469 550.2031,322.2969 Q550.5938,322.1406 551.0156,321.7031 Q551.2813,321.4375 551.4297,321.3594 Q551.5781,321.2813 551.7813,321.2813 Q552.1094,321.2813 552.3672,321.5391 Q552.625,321.7969 552.625,322.1406 Q552.625,322.4844 552.2813,322.8906 Q551.7813,323.4688 550.9844,323.7969 Q549.9063,324.25 548.6094,324.25 Q547.0938,324.25 545.8906,323.625 Q544.9063,323.125 544.2188,322.0547 Q543.5313,320.9844 543.5313,319.7031 L543.5313,318.5469 Q543.5313,317.2188 544.1484,316.0703 Q544.7656,314.9219 545.8594,314.3047 Q546.9531,313.6875 548.1875,313.6875 Q548.9219,313.6875 549.5703,313.8516 Q550.2188,314.0156 550.7656,314.375 Z "/><text fill="#000000" font-family="sans-serif" font-size="12" lengthAdjust="spacingAndGlyphs" textLength="33" x="562" y="323.4102">Pmfm</text><line style="stroke: #A80036; stroke-width: 1.5;" x1="534" x2="597" y1="334.5" y2="334.5"/><line style="stroke: #A80036; stroke-width: 1.5;" x1="534" x2="597" y1="342.5" y2="342.5"/><!--class AcquisitionLevel--><rect fill="#FEFECE" filter="url(#f1uit3wjskb748)" height="48" id="AcquisitionLevel" style="stroke: #A80036; stroke-width: 1.5;" width="121" x="130" y="302.5"/><ellipse cx="145" cy="318.5" fill="#ADD1B2" rx="11" ry="11" style="stroke: #A80036; stroke-width: 1.0;"/><path d="M147.7656,314.375 Q147.9219,314.1563 148.1094,314.0469 Q148.2969,313.9375 148.5156,313.9375 Q148.8906,313.9375 149.125,314.1953 Q149.3594,314.4531 149.3594,315.0625 L149.3594,316.5156 Q149.3594,317.125 149.125,317.3906 Q148.8906,317.6563 148.5156,317.6563 Q148.1719,317.6563 147.9688,317.4531 Q147.7656,317.2656 147.6563,316.75 Q147.6094,316.3906 147.4219,316.2031 Q147.0938,315.8281 146.4844,315.6094 Q145.875,315.3906 145.25,315.3906 Q144.4844,315.3906 143.8516,315.7188 Q143.2188,316.0469 142.7266,316.7969 Q142.2344,317.5469 142.2344,318.5781 L142.2344,319.6719 Q142.2344,320.9063 143.125,321.7266 Q144.0156,322.5469 145.6094,322.5469 Q146.5469,322.5469 147.2031,322.2969 Q147.5938,322.1406 148.0156,321.7031 Q148.2813,321.4375 148.4297,321.3594 Q148.5781,321.2813 148.7813,321.2813 Q149.1094,321.2813 149.3672,321.5391 Q149.625,321.7969 149.625,322.1406 Q149.625,322.4844 149.2813,322.8906 Q148.7813,323.4688 147.9844,323.7969 Q146.9063,324.25 145.6094,324.25 Q144.0938,324.25 142.8906,323.625 Q141.9063,323.125 141.2188,322.0547 Q140.5313,320.9844 140.5313,319.7031 L140.5313,318.5469 Q140.5313,317.2188 141.1484,316.0703 Q141.7656,314.9219 142.8594,314.3047 Q143.9531,313.6875 145.1875,313.6875 Q145.9219,313.6875 146.5703,313.8516 Q147.2188,314.0156 147.7656,314.375 Z "/><text fill="#000000" font-family="sans-serif" font-size="12" lengthAdjust="spacingAndGlyphs" textLength="89" x="159" y="323.4102">AcquisitionLevel</text><line style="stroke: #A80036; stroke-width: 1.5;" x1="131" x2="250" y1="334.5" y2="334.5"/><line style="stroke: #A80036; stroke-width: 1.5;" x1="131" x2="250" y1="342.5" y2="342.5"/><!--link Program to Strategy--><path d="M163.5,68.044 C163.5,68.044 163.5,91.947 163.5,103.519 " fill="none" id="Program-Strategy" style="stroke: #A80036; stroke-width: 1.0;"/><polygon fill="#A80036" points="163.5,116.767,167.5,107.767,163.5,111.767,159.5,107.767,163.5,116.767" style="stroke: #A80036; stroke-width: 1.0;"/><line style="stroke: #A80036; stroke-width: 1.0;" x1="163.5" x2="163.5" y1="111.767" y2="103.767"/><polygon fill="#A80036" points="163.5,56.044,159.5,62.044,163.5,68.044,167.5,62.044,163.5,56.044" style="stroke: #A80036; stroke-width: 1.0;"/><text fill="#000000" font-family="sans-serif" font-size="13" lengthAdjust="spacingAndGlyphs" textLength="20" x="141.0625" y="77.3927">0..*</text><text fill="#000000" font-family="sans-serif" font-size="13" lengthAdjust="spacingAndGlyphs" textLength="7" x="155.8766" y="106.0874">1</text><!--link Strategy to TaxonGroup--><path d="M127.837,193.144 C113.322,210.359 97.8039,231.882 88.5,254 C59.915,321.956 55.3554,410.1797 55.0644,454.6788 " fill="none" id="Strategy-TaxonGroup" style="stroke: #A80036; stroke-width: 1.0;"/><polygon fill="#A80036" points="55.0488,459.8845,59.076,450.8967,55.0639,454.8845,51.0761,450.8724,55.0488,459.8845" style="stroke: #A80036; stroke-width: 1.0;"/><text fill="#000000" font-family="sans-serif" font-size="13" lengthAdjust="spacingAndGlyphs" textLength="20" x="32.3707" y="449.1951">0..*</text><!--link Strategy to ReferenceTaxon--><path d="M201.825,158.337 C301.272,165.277 563.457,189.465 615.5,254 C655.954,304.165 649.636,344.339 615.5,399 C592.42,435.9566 547.864,457.0917 509.885,468.9176 " fill="none" id="Strategy-ReferenceTaxon" style="stroke: #A80036; stroke-width: 1.0;"/><polygon fill="#A80036" points="504.812,470.4547,514.5852,471.6728,509.5971,469.0047,512.2652,464.0166,504.812,470.4547" style="stroke: #A80036; stroke-width: 1.0;"/><text fill="#000000" font-family="sans-serif" font-size="13" lengthAdjust="spacingAndGlyphs" textLength="20" x="512.6118" y="465.6125">0..*</text><!--link Strategy to Gear--><path d="M140.274,193.278 C112.291,243.436 73.5961,333.866 112.5,399 C138.691,442.8491 196.535,465.1547 233.953,475.4164 " fill="none" id="Strategy-Gear" style="stroke: #A80036; stroke-width: 1.0;"/><polygon fill="#A80036" points="238.865,476.7266,231.2016,470.5402,234.0342,475.4367,229.1377,478.2694,238.865,476.7266" style="stroke: #A80036; stroke-width: 1.0;"/><text fill="#000000" font-family="sans-serif" font-size="13" lengthAdjust="spacingAndGlyphs" textLength="20" x="211.0619" y="471.2494">0..*</text><!--link Strategy to PmfmStrategy--><path d="M211.3265,192.8493 C211.3265,192.8493 256.288,227.489 279.863,245.653 " fill="none" id="Strategy-PmfmStrategy" style="stroke: #A80036; stroke-width: 1.0;"/><polygon fill="#A80036" points="290.29,253.686,285.6017,245.0246,286.3292,250.6345,280.7193,251.3619,290.29,253.686" style="stroke: #A80036; stroke-width: 1.0;"/><line style="stroke: #A80036; stroke-width: 1.0;" x1="286.3292" x2="279.992" y1="250.6345" y2="245.7515"/><polygon fill="#A80036" points="201.821,185.525,204.1323,192.3557,211.3265,192.8493,209.0152,186.0186,201.821,185.525" style="stroke: #A80036; stroke-width: 1.0;"/><text fill="#000000" font-family="sans-serif" font-size="13" lengthAdjust="spacingAndGlyphs" textLength="7" x="209.5317" y="187.2358">1</text><text fill="#000000" font-family="sans-serif" font-size="13" lengthAdjust="spacingAndGlyphs" textLength="20" x="260.1303" y="243.2506">0..*</text><!--link PmfmStrategy to Pmfm--><path d="M480.628,326.5 C497.375,326.5 513.845,326.5 527.753,326.5 " fill="none" id="PmfmStrategy-Pmfm" style="stroke: #A80036; stroke-width: 1.0;"/><polygon fill="#A80036" points="532.758,326.5,523.758,322.5,527.758,326.5,523.758,330.5,532.758,326.5" style="stroke: #A80036; stroke-width: 1.0;"/><text fill="#000000" font-family="sans-serif" font-size="13" lengthAdjust="spacingAndGlyphs" textLength="0" x="514.75" y="319.9951"/><text fill="#000000" font-family="sans-serif" font-size="13" lengthAdjust="spacingAndGlyphs" textLength="20" x="488.4952" y="340.601">0..*</text><text fill="#000000" font-family="sans-serif" font-size="13" lengthAdjust="spacingAndGlyphs" textLength="7" x="517.8301" y="322.2836">1</text><!--link AcquisitionLevel to PmfmStrategy--><path d="M256.406,326.5 C266.382,326.5 276.358,326.5 286.334,326.5 " fill="none" id="AcquisitionLevel-PmfmStrategy" style="stroke: #A80036; stroke-width: 1.0;"/><polygon fill="#A80036" points="251.189,326.5,260.189,330.5,256.189,326.5,260.189,322.5,251.189,326.5" style="stroke: #A80036; stroke-width: 1.0;"/><text fill="#000000" font-family="sans-serif" font-size="13" lengthAdjust="spacingAndGlyphs" textLength="7" x="259.012" y="323.0415">1</text><text fill="#000000" font-family="sans-serif" font-size="13" lengthAdjust="spacingAndGlyphs" textLength="20" x="259.0731" y="323.3604">0..*</text><!--link PmfmStrategy to TaxonGroup--><path d="M286.321,389.584 C280.351,392.877 274.381,396.043 268.5,399 C216.352,425.224 153.948,449.0011 110.211,464.5103 " fill="none" id="PmfmStrategy-TaxonGroup" style="stroke: #A80036; stroke-width: 1.0;"/><polygon fill="#A80036" points="105.239,466.2663,115.0572,467.0423,109.9539,464.6019,112.3942,459.4985,105.239,466.2663" style="stroke: #A80036; stroke-width: 1.0;"/><text fill="#000000" font-family="sans-serif" font-size="13" lengthAdjust="spacingAndGlyphs" textLength="20" x="112.8931" y="460.4868">0..*</text><!--link PmfmStrategy to ReferenceTaxon--><path d="M411.217,399.333 C418.841,419.0929 426.664,439.3657 432.699,455.0061 " fill="none" id="PmfmStrategy-ReferenceTaxon" style="stroke: #A80036; stroke-width: 1.0;"/><polygon fill="#A80036" points="434.512,459.7056,435.0045,449.8691,432.7123,455.0407,427.5407,452.7486,434.512,459.7056" style="stroke: #A80036; stroke-width: 1.0;"/><text fill="#000000" font-family="sans-serif" font-size="13" lengthAdjust="spacingAndGlyphs" textLength="20" x="409.6463" y="448.9703">0..*</text><!--link PmfmStrategy to Gear--><path d="M330.376,399.333 C315.637,419.2632 300.511,439.7153 288.904,455.4096 " fill="none" id="PmfmStrategy-Gear" style="stroke: #A80036; stroke-width: 1.0;"/><polygon fill="#A80036" points="285.727,459.7056,294.2945,454.8479,288.7001,455.6855,287.8624,450.091,285.727,459.7056" style="stroke: #A80036; stroke-width: 1.0;"/><text fill="#000000" font-family="sans-serif" font-size="13" lengthAdjust="spacingAndGlyphs" textLength="20" x="267.5789" y="448.9703">0..*</text><!--
@startuml

class Program {
}

Program "0..*" *-down-> "1" Strategy

class Strategy {
 +label
 +name
}

Strategy  - -> "0..*" TaxonGroup
Strategy  - -> "0..*" ReferenceTaxon
Strategy  - -> "0..*" Gear


class PmfmStrategy {
  +minValue [0..1] : double
  +maxValue [0..1] : double
  +defaultValue [0..1] : double
  +acquisitionNumber: integer
  +rankOrder: integer
  +isMandatory : boolean
  +signifFiguresNumber [0..1] : integer
}


Strategy "1" *- -> "0..*" PmfmStrategy
PmfmStrategy "0..*" -right-> "1" Pmfm: "    "
PmfmStrategy "0..*" -left-> "1" AcquisitionLevel

PmfmStrategy  - -> "0..*" TaxonGroup
PmfmStrategy  - -> "0..*" ReferenceTaxon
PmfmStrategy  - -> "0..*" Gear

@enduml

PlantUML version 1.2019.06(Fri May 24 19:10:25 CEST 2019)
(GPL source distribution)
Java Runtime: Java(TM) SE Runtime Environment
JVM: Java HotSpot(TM) Client VM
Java Version: 1.8.0_211-b12
Operating System: Windows 10
OS Version: 10.0
Default Encoding: Cp1252
Language: fr
Country: FR
--></g></svg>