<?xml version="1.0" encoding="UTF-8" standalone="no"?><svg xmlns="http://www.w3.org/2000/svg" xmlns:xlink="http://www.w3.org/1999/xlink" contentScriptType="application/ecmascript" contentStyleType="text/css" height="544px" preserveAspectRatio="none" style="width:636px;height:544px;" version="1.1" viewBox="0 0 636 544" width="636px" zoomAndPan="magnify"><defs><filter height="300%" id="fdpk6jnw6vteb" width="300%" x="-1" y="-1"><feGaussianBlur result="blurOut" stdDeviation="2.0"/><feColorMatrix in="blurOut" result="blurOut2" type="matrix" values="0 0 0 0 0 0 0 0 0 0 0 0 0 0 0 0 0 0 .4 0"/><feOffset dx="4.0" dy="4.0" in="blurOut2" result="blurOut3"/><feBlend in="SourceGraphic" in2="blurOut3" mode="normal"/></filter></defs><g><!--class Program--><rect fill="#FEFECE" filter="url(#fdpk6jnw6vteb)" height="75.6719" id="Program" style="stroke: #A80036; stroke-width: 1.5;" width="80" x="256.622" y="8"/><ellipse cx="271.622" cy="24" fill="#ADD1B2" rx="11" ry="11" style="stroke: #A80036; stroke-width: 1.0;"/><path d="M274.3876,19.875 Q274.5439,19.6563 274.7314,19.5469 Q274.9189,19.4375 275.1376,19.4375 Q275.5126,19.4375 275.747,19.6953 Q275.9814,19.9531 275.9814,20.5625 L275.9814,22.0156 Q275.9814,22.625 275.747,22.8906 Q275.5126,23.1563 275.1376,23.1563 Q274.7939,23.1563 274.5908,22.9531 Q274.3876,22.7656 274.2783,22.25 Q274.2314,21.8906 274.0439,21.7031 Q273.7158,21.3281 273.1064,21.1094 Q272.497,20.8906 271.872,20.8906 Q271.1064,20.8906 270.4736,21.2188 Q269.8408,21.5469 269.3486,22.2969 Q268.8564,23.0469 268.8564,24.0781 L268.8564,25.1719 Q268.8564,26.4063 269.747,27.2266 Q270.6376,28.0469 272.2314,28.0469 Q273.1689,28.0469 273.8251,27.7969 Q274.2158,27.6406 274.6376,27.2031 Q274.9033,26.9375 275.0517,26.8594 Q275.2001,26.7813 275.4033,26.7813 Q275.7314,26.7813 275.9892,27.0391 Q276.247,27.2969 276.247,27.6406 Q276.247,27.9844 275.9033,28.3906 Q275.4033,28.9688 274.6064,29.2969 Q273.5283,29.75 272.2314,29.75 Q270.7158,29.75 269.5126,29.125 Q268.5283,28.625 267.8408,27.5547 Q267.1533,26.4844 267.1533,25.2031 L267.1533,24.0469 Q267.1533,22.7188 267.7704,21.5703 Q268.3876,20.4219 269.4814,19.8047 Q270.5751,19.1875 271.8095,19.1875 Q272.5439,19.1875 273.1923,19.3516 Q273.8408,19.5156 274.3876,19.875 Z "/><text fill="#000000" font-family="sans-serif" font-size="12" lengthAdjust="spacingAndGlyphs" textLength="48" x="285.622" y="28.9102">Program</text><line style="stroke: #A80036; stroke-width: 1.5;" x1="257.622" x2="335.622" y1="40" y2="40"/><ellipse cx="267.622" cy="52.418" fill="none" rx="3" ry="3" style="stroke: #038048; stroke-width: 1.0;"/><text fill="#000000" font-family="sans-serif" font-size="11" lengthAdjust="spacingAndGlyphs" textLength="22" x="276.622" y="55.4189">label</text><ellipse cx="267.622" cy="66.2539" fill="none" rx="3" ry="3" style="stroke: #038048; stroke-width: 1.0;"/><text fill="#000000" font-family="sans-serif" font-size="11" lengthAdjust="spacingAndGlyphs" textLength="26" x="276.622" y="69.2549">name</text><line style="stroke: #A80036; stroke-width: 1.5;" x1="257.622" x2="335.622" y1="75.6719" y2="75.6719"/><!--class Strategy--><rect fill="#FEFECE" filter="url(#fdpk6jnw6vteb)" height="75.6719" id="Strategy" style="stroke: #A80036; stroke-width: 1.5;" width="76" x="258.622" y="144"/><ellipse cx="273.622" cy="160" fill="#ADD1B2" rx="11" ry="11" style="stroke: #A80036; stroke-width: 1.0;"/><path d="M276.3876,155.875 Q276.5439,155.6563 276.7314,155.5469 Q276.9189,155.4375 277.1376,155.4375 Q277.5126,155.4375 277.747,155.6953 Q277.9814,155.9531 277.9814,156.5625 L277.9814,158.0156 Q277.9814,158.625 277.747,158.8906 Q277.5126,159.1563 277.1376,159.1563 Q276.7939,159.1563 276.5908,158.9531 Q276.3876,158.7656 276.2783,158.25 Q276.2314,157.8906 276.0439,157.7031 Q275.7158,157.3281 275.1064,157.1094 Q274.497,156.8906 273.872,156.8906 Q273.1064,156.8906 272.4736,157.2188 Q271.8408,157.5469 271.3486,158.2969 Q270.8564,159.0469 270.8564,160.0781 L270.8564,161.1719 Q270.8564,162.4063 271.747,163.2266 Q272.6376,164.0469 274.2314,164.0469 Q275.1689,164.0469 275.8251,163.7969 Q276.2158,163.6406 276.6376,163.2031 Q276.9033,162.9375 277.0517,162.8594 Q277.2001,162.7813 277.4033,162.7813 Q277.7314,162.7813 277.9892,163.0391 Q278.247,163.2969 278.247,163.6406 Q278.247,163.9844 277.9033,164.3906 Q277.4033,164.9688 276.6064,165.2969 Q275.5283,165.75 274.2314,165.75 Q272.7158,165.75 271.5126,165.125 Q270.5283,164.625 269.8408,163.5547 Q269.1533,162.4844 269.1533,161.2031 L269.1533,160.0469 Q269.1533,158.7188 269.7704,157.5703 Q270.3876,156.4219 271.4814,155.8047 Q272.5751,155.1875 273.8095,155.1875 Q274.5439,155.1875 275.1923,155.3516 Q275.8408,155.5156 276.3876,155.875 Z "/><text fill="#000000" font-family="sans-serif" font-size="12" lengthAdjust="spacingAndGlyphs" textLength="44" x="287.622" y="164.9102">Strategy</text><line style="stroke: #A80036; stroke-width: 1.5;" x1="259.622" x2="333.622" y1="176" y2="176"/><ellipse cx="269.622" cy="188.418" fill="none" rx="3" ry="3" style="stroke: #038048; stroke-width: 1.0;"/><text fill="#000000" font-family="sans-serif" font-size="11" lengthAdjust="spacingAndGlyphs" textLength="22" x="278.622" y="191.4189">label</text><ellipse cx="269.622" cy="202.2539" fill="none" rx="3" ry="3" style="stroke: #038048; stroke-width: 1.0;"/><text fill="#000000" font-family="sans-serif" font-size="11" lengthAdjust="spacingAndGlyphs" textLength="26" x="278.622" y="205.2549">name</text><line style="stroke: #A80036; stroke-width: 1.5;" x1="259.622" x2="333.622" y1="211.6719" y2="211.6719"/><!--class TaxonGroup--><rect fill="#FEFECE" filter="url(#fdpk6jnw6vteb)" height="48" id="TaxonGroup" style="stroke: #A80036; stroke-width: 1.5;" width="99" x="236.122" y="485"/><ellipse cx="251.122" cy="501" fill="#ADD1B2" rx="11" ry="11" style="stroke: #A80036; stroke-width: 1.0;"/><path d="M253.8876,496.875 Q254.0439,496.6563 254.2314,496.5469 Q254.4189,496.4375 254.6376,496.4375 Q255.0126,496.4375 255.247,496.6953 Q255.4814,496.9531 255.4814,497.5625 L255.4814,499.0156 Q255.4814,499.625 255.247,499.8906 Q255.0126,500.1563 254.6376,500.1563 Q254.2939,500.1563 254.0908,499.9531 Q253.8876,499.7656 253.7783,499.25 Q253.7314,498.8906 253.5439,498.7031 Q253.2158,498.3281 252.6064,498.1094 Q251.997,497.8906 251.372,497.8906 Q250.6064,497.8906 249.9736,498.2188 Q249.3408,498.5469 248.8486,499.2969 Q248.3564,500.0469 248.3564,501.0781 L248.3564,502.1719 Q248.3564,503.4063 249.247,504.2266 Q250.1376,505.0469 251.7314,505.0469 Q252.6689,505.0469 253.3251,504.7969 Q253.7158,504.6406 254.1376,504.2031 Q254.4033,503.9375 254.5517,503.8594 Q254.7001,503.7813 254.9033,503.7813 Q255.2314,503.7813 255.4892,504.0391 Q255.747,504.2969 255.747,504.6406 Q255.747,504.9844 255.4033,505.3906 Q254.9033,505.9688 254.1064,506.2969 Q253.0283,506.75 251.7314,506.75 Q250.2158,506.75 249.0126,506.125 Q248.0283,505.625 247.3408,504.5547 Q246.6533,503.4844 246.6533,502.2031 L246.6533,501.0469 Q246.6533,499.7188 247.2704,498.5703 Q247.8876,497.4219 248.9814,496.8047 Q250.0751,496.1875 251.3095,496.1875 Q252.0439,496.1875 252.6923,496.3516 Q253.3408,496.5156 253.8876,496.875 Z "/><text fill="#000000" font-family="sans-serif" font-size="12" lengthAdjust="spacingAndGlyphs" textLength="67" x="265.122" y="505.9102">TaxonGroup</text><line style="stroke: #A80036; stroke-width: 1.5;" x1="237.122" x2="334.122" y1="517" y2="517"/><line style="stroke: #A80036; stroke-width: 1.5;" x1="237.122" x2="334.122" y1="525" y2="525"/><!--class ReferenceTaxon--><rect fill="#FEFECE" filter="url(#fdpk6jnw6vteb)" height="48" id="ReferenceTaxon" style="stroke: #A80036; stroke-width: 1.5;" width="122" x="435.622" y="485"/><ellipse cx="450.622" cy="501" fill="#ADD1B2" rx="11" ry="11" style="stroke: #A80036; stroke-width: 1.0;"/><path d="M453.3876,496.875 Q453.5439,496.6563 453.7314,496.5469 Q453.9189,496.4375 454.1376,496.4375 Q454.5126,496.4375 454.747,496.6953 Q454.9814,496.9531 454.9814,497.5625 L454.9814,499.0156 Q454.9814,499.625 454.747,499.8906 Q454.5126,500.1563 454.1376,500.1563 Q453.7939,500.1563 453.5908,499.9531 Q453.3876,499.7656 453.2783,499.25 Q453.2314,498.8906 453.0439,498.7031 Q452.7158,498.3281 452.1064,498.1094 Q451.497,497.8906 450.872,497.8906 Q450.1064,497.8906 449.4736,498.2188 Q448.8408,498.5469 448.3486,499.2969 Q447.8564,500.0469 447.8564,501.0781 L447.8564,502.1719 Q447.8564,503.4063 448.747,504.2266 Q449.6376,505.0469 451.2314,505.0469 Q452.1689,505.0469 452.8251,504.7969 Q453.2158,504.6406 453.6376,504.2031 Q453.9033,503.9375 454.0517,503.8594 Q454.2001,503.7813 454.4033,503.7813 Q454.7314,503.7813 454.9892,504.0391 Q455.247,504.2969 455.247,504.6406 Q455.247,504.9844 454.9033,505.3906 Q454.4033,505.9688 453.6064,506.2969 Q452.5283,506.75 451.2314,506.75 Q449.7158,506.75 448.5126,506.125 Q447.5283,505.625 446.8408,504.5547 Q446.1533,503.4844 446.1533,502.2031 L446.1533,501.0469 Q446.1533,499.7188 446.7704,498.5703 Q447.3876,497.4219 448.4814,496.8047 Q449.5751,496.1875 450.8095,496.1875 Q451.5439,496.1875 452.1923,496.3516 Q452.8408,496.5156 453.3876,496.875 Z "/><text fill="#000000" font-family="sans-serif" font-size="12" lengthAdjust="spacingAndGlyphs" textLength="90" x="464.622" y="505.9102">ReferenceTaxon</text><line style="stroke: #A80036; stroke-width: 1.5;" x1="436.622" x2="556.622" y1="517" y2="517"/><line style="stroke: #A80036; stroke-width: 1.5;" x1="436.622" x2="556.622" y1="525" y2="525"/><!--class Gear--><rect fill="#FEFECE" filter="url(#fdpk6jnw6vteb)" height="48" id="Gear" style="stroke: #A80036; stroke-width: 1.5;" width="59" x="85.1221" y="485"/><ellipse cx="100.1221" cy="501" fill="#ADD1B2" rx="11" ry="11" style="stroke: #A80036; stroke-width: 1.0;"/><path d="M102.8877,496.875 Q103.044,496.6563 103.2315,496.5469 Q103.419,496.4375 103.6377,496.4375 Q104.0127,496.4375 104.2471,496.6953 Q104.4815,496.9531 104.4815,497.5625 L104.4815,499.0156 Q104.4815,499.625 104.2471,499.8906 Q104.0127,500.1563 103.6377,500.1563 Q103.294,500.1563 103.0909,499.9531 Q102.8877,499.7656 102.7784,499.25 Q102.7315,498.8906 102.544,498.7031 Q102.2159,498.3281 101.6065,498.1094 Q100.9971,497.8906 100.3721,497.8906 Q99.6065,497.8906 98.9737,498.2188 Q98.3409,498.5469 97.8487,499.2969 Q97.3565,500.0469 97.3565,501.0781 L97.3565,502.1719 Q97.3565,503.4063 98.2471,504.2266 Q99.1377,505.0469 100.7315,505.0469 Q101.669,505.0469 102.3252,504.7969 Q102.7159,504.6406 103.1377,504.2031 Q103.4034,503.9375 103.5518,503.8594 Q103.7002,503.7813 103.9034,503.7813 Q104.2315,503.7813 104.4893,504.0391 Q104.7471,504.2969 104.7471,504.6406 Q104.7471,504.9844 104.4034,505.3906 Q103.9034,505.9688 103.1065,506.2969 Q102.0284,506.75 100.7315,506.75 Q99.2159,506.75 98.0127,506.125 Q97.0284,505.625 96.3409,504.5547 Q95.6534,503.4844 95.6534,502.2031 L95.6534,501.0469 Q95.6534,499.7188 96.2705,498.5703 Q96.8877,497.4219 97.9815,496.8047 Q99.0752,496.1875 100.3096,496.1875 Q101.044,496.1875 101.6924,496.3516 Q102.3409,496.5156 102.8877,496.875 Z "/><text fill="#000000" font-family="sans-serif" font-size="12" lengthAdjust="spacingAndGlyphs" textLength="27" x="114.1221" y="505.9102">Gear</text><line style="stroke: #A80036; stroke-width: 1.5;" x1="86.1221" x2="143.1221" y1="517" y2="517"/><line style="stroke: #A80036; stroke-width: 1.5;" x1="86.1221" x2="143.1221" y1="525" y2="525"/><!--class PmfmStrategy--><rect fill="#FEFECE" filter="url(#fdpk6jnw6vteb)" height="144.8516" id="PmfmStrategy" style="stroke: #A80036; stroke-width: 1.5;" width="194" x="274.622" y="280"/><ellipse cx="328.872" cy="296" fill="#ADD1B2" rx="11" ry="11" style="stroke: #A80036; stroke-width: 1.0;"/><path d="M331.6376,291.875 Q331.7939,291.6563 331.9814,291.5469 Q332.1689,291.4375 332.3876,291.4375 Q332.7626,291.4375 332.997,291.6953 Q333.2314,291.9531 333.2314,292.5625 L333.2314,294.0156 Q333.2314,294.625 332.997,294.8906 Q332.7626,295.1563 332.3876,295.1563 Q332.0439,295.1563 331.8408,294.9531 Q331.6376,294.7656 331.5283,294.25 Q331.4814,293.8906 331.2939,293.7031 Q330.9658,293.3281 330.3564,293.1094 Q329.747,292.8906 329.122,292.8906 Q328.3564,292.8906 327.7236,293.2188 Q327.0908,293.5469 326.5986,294.2969 Q326.1064,295.0469 326.1064,296.0781 L326.1064,297.1719 Q326.1064,298.4063 326.997,299.2266 Q327.8876,300.0469 329.4814,300.0469 Q330.4189,300.0469 331.0751,299.7969 Q331.4658,299.6406 331.8876,299.2031 Q332.1533,298.9375 332.3017,298.8594 Q332.4501,298.7813 332.6533,298.7813 Q332.9814,298.7813 333.2392,299.0391 Q333.497,299.2969 333.497,299.6406 Q333.497,299.9844 333.1533,300.3906 Q332.6533,300.9688 331.8564,301.2969 Q330.7783,301.75 329.4814,301.75 Q327.9658,301.75 326.7626,301.125 Q325.7783,300.625 325.0908,299.5547 Q324.4033,298.4844 324.4033,297.2031 L324.4033,296.0469 Q324.4033,294.7188 325.0204,293.5703 Q325.6376,292.4219 326.7314,291.8047 Q327.8251,291.1875 329.0595,291.1875 Q329.7939,291.1875 330.4423,291.3516 Q331.0908,291.5156 331.6376,291.875 Z "/><text fill="#000000" font-family="sans-serif" font-size="12" lengthAdjust="spacingAndGlyphs" textLength="77" x="349.372" y="300.9102">PmfmStrategy</text><line style="stroke: #A80036; stroke-width: 1.5;" x1="275.622" x2="467.622" y1="312" y2="312"/><ellipse cx="285.622" cy="324.418" fill="none" rx="3" ry="3" style="stroke: #038048; stroke-width: 1.0;"/><text fill="#000000" font-family="sans-serif" font-size="11" lengthAdjust="spacingAndGlyphs" textLength="112" x="294.622" y="327.4189">minValue [0..1] : double</text><ellipse cx="285.622" cy="338.2539" fill="none" rx="3" ry="3" style="stroke: #038048; stroke-width: 1.0;"/><text fill="#000000" font-family="sans-serif" font-size="11" lengthAdjust="spacingAndGlyphs" textLength="116" x="294.622" y="341.2549">maxValue [0..1] : double</text><ellipse cx="285.622" cy="352.0898" fill="none" rx="3" ry="3" style="stroke: #038048; stroke-width: 1.0;"/><text fill="#000000" font-family="sans-serif" font-size="11" lengthAdjust="spacingAndGlyphs" textLength="129" x="294.622" y="355.0908">defaultValue [0..1] : double</text><ellipse cx="285.622" cy="365.9258" fill="none" rx="3" ry="3" style="stroke: #038048; stroke-width: 1.0;"/><text fill="#000000" font-family="sans-serif" font-size="11" lengthAdjust="spacingAndGlyphs" textLength="127" x="294.622" y="368.9268">acquisitionNumber: integer</text><ellipse cx="285.622" cy="379.7617" fill="none" rx="3" ry="3" style="stroke: #038048; stroke-width: 1.0;"/><text fill="#000000" font-family="sans-serif" font-size="11" lengthAdjust="spacingAndGlyphs" textLength="88" x="294.622" y="382.7627">rankOrder: integer</text><ellipse cx="285.622" cy="393.5977" fill="none" rx="3" ry="3" style="stroke: #038048; stroke-width: 1.0;"/><text fill="#000000" font-family="sans-serif" font-size="11" lengthAdjust="spacingAndGlyphs" textLength="106" x="294.622" y="396.5986">isMandatory : boolean</text><ellipse cx="285.622" cy="407.4336" fill="none" rx="3" ry="3" style="stroke: #038048; stroke-width: 1.0;"/><text fill="#000000" font-family="sans-serif" font-size="11" lengthAdjust="spacingAndGlyphs" textLength="168" x="294.622" y="410.4346">signifFiguresNumber [0..1] : integer</text><line style="stroke: #A80036; stroke-width: 1.5;" x1="275.622" x2="467.622" y1="416.8516" y2="416.8516"/><!--class Pmfm--><rect fill="#FEFECE" filter="url(#fdpk6jnw6vteb)" height="48" id="Pmfm" style="stroke: #A80036; stroke-width: 1.5;" width="65" x="504.122" y="328.5"/><ellipse cx="519.122" cy="344.5" fill="#ADD1B2" rx="11" ry="11" style="stroke: #A80036; stroke-width: 1.0;"/><path d="M521.8876,340.375 Q522.0439,340.1563 522.2314,340.0469 Q522.4189,339.9375 522.6376,339.9375 Q523.0126,339.9375 523.247,340.1953 Q523.4814,340.4531 523.4814,341.0625 L523.4814,342.5156 Q523.4814,343.125 523.247,343.3906 Q523.0126,343.6563 522.6376,343.6563 Q522.2939,343.6563 522.0908,343.4531 Q521.8876,343.2656 521.7783,342.75 Q521.7314,342.3906 521.5439,342.2031 Q521.2158,341.8281 520.6064,341.6094 Q519.997,341.3906 519.372,341.3906 Q518.6064,341.3906 517.9736,341.7188 Q517.3408,342.0469 516.8486,342.7969 Q516.3564,343.5469 516.3564,344.5781 L516.3564,345.6719 Q516.3564,346.9063 517.247,347.7266 Q518.1376,348.5469 519.7314,348.5469 Q520.6689,348.5469 521.3251,348.2969 Q521.7158,348.1406 522.1376,347.7031 Q522.4033,347.4375 522.5517,347.3594 Q522.7001,347.2813 522.9033,347.2813 Q523.2314,347.2813 523.4892,347.5391 Q523.747,347.7969 523.747,348.1406 Q523.747,348.4844 523.4033,348.8906 Q522.9033,349.4688 522.1064,349.7969 Q521.0283,350.25 519.7314,350.25 Q518.2158,350.25 517.0126,349.625 Q516.0283,349.125 515.3408,348.0547 Q514.6533,346.9844 514.6533,345.7031 L514.6533,344.5469 Q514.6533,343.2188 515.2704,342.0703 Q515.8876,340.9219 516.9814,340.3047 Q518.0751,339.6875 519.3095,339.6875 Q520.0439,339.6875 520.6923,339.8516 Q521.3408,340.0156 521.8876,340.375 Z "/><text fill="#000000" font-family="sans-serif" font-size="12" lengthAdjust="spacingAndGlyphs" textLength="33" x="533.122" y="349.4102">Pmfm</text><line style="stroke: #A80036; stroke-width: 1.5;" x1="505.122" x2="568.122" y1="360.5" y2="360.5"/><line style="stroke: #A80036; stroke-width: 1.5;" x1="505.122" x2="568.122" y1="368.5" y2="368.5"/><!--class AcquisitionLevel--><rect fill="#FEFECE" filter="url(#fdpk6jnw6vteb)" height="48" id="AcquisitionLevel" style="stroke: #A80036; stroke-width: 1.5;" width="121" x="47.1221" y="328.5"/><ellipse cx="62.1221" cy="344.5" fill="#ADD1B2" rx="11" ry="11" style="stroke: #A80036; stroke-width: 1.0;"/><path d="M64.8877,340.375 Q65.044,340.1563 65.2315,340.0469 Q65.419,339.9375 65.6377,339.9375 Q66.0127,339.9375 66.2471,340.1953 Q66.4815,340.4531 66.4815,341.0625 L66.4815,342.5156 Q66.4815,343.125 66.2471,343.3906 Q66.0127,343.6563 65.6377,343.6563 Q65.294,343.6563 65.0909,343.4531 Q64.8877,343.2656 64.7784,342.75 Q64.7315,342.3906 64.544,342.2031 Q64.2159,341.8281 63.6065,341.6094 Q62.9971,341.3906 62.3721,341.3906 Q61.6065,341.3906 60.9737,341.7188 Q60.3409,342.0469 59.8487,342.7969 Q59.3565,343.5469 59.3565,344.5781 L59.3565,345.6719 Q59.3565,346.9063 60.2471,347.7266 Q61.1377,348.5469 62.7315,348.5469 Q63.669,348.5469 64.3252,348.2969 Q64.7159,348.1406 65.1377,347.7031 Q65.4034,347.4375 65.5518,347.3594 Q65.7002,347.2813 65.9034,347.2813 Q66.2315,347.2813 66.4893,347.5391 Q66.7471,347.7969 66.7471,348.1406 Q66.7471,348.4844 66.4034,348.8906 Q65.9034,349.4688 65.1065,349.7969 Q64.0284,350.25 62.7315,350.25 Q61.2159,350.25 60.0127,349.625 Q59.0284,349.125 58.3409,348.0547 Q57.6534,346.9844 57.6534,345.7031 L57.6534,344.5469 Q57.6534,343.2188 58.2705,342.0703 Q58.8877,340.9219 59.9815,340.3047 Q61.0752,339.6875 62.3096,339.6875 Q63.044,339.6875 63.6924,339.8516 Q64.3409,340.0156 64.8877,340.375 Z "/><text fill="#000000" font-family="sans-serif" font-size="12" lengthAdjust="spacingAndGlyphs" textLength="89" x="76.1221" y="349.4102">AcquisitionLevel</text><line style="stroke: #A80036; stroke-width: 1.5;" x1="48.1221" x2="167.1221" y1="360.5" y2="360.5"/><line style="stroke: #A80036; stroke-width: 1.5;" x1="48.1221" x2="167.1221" y1="368.5" y2="368.5"/><!--link Program to Strategy--><path d="M296.622,96.326 C296.622,96.326 296.622,119.742 296.622,130.575 " fill="none" id="Program-Strategy" style="stroke: #A80036; stroke-width: 1.0;"/><polygon fill="#A80036" points="296.622,143.874,300.622,134.874,296.622,138.874,292.622,134.874,296.622,143.874" style="stroke: #A80036; stroke-width: 1.0;"/><line style="stroke: #A80036; stroke-width: 1.0;" x1="296.622" x2="296.622" y1="138.874" y2="130.874"/><polygon fill="#A80036" points="296.622,84.326,292.622,90.326,296.622,96.326,300.622,90.326,296.622,84.326" style="stroke: #A80036; stroke-width: 1.0;"/><text fill="#000000" font-family="sans-serif" font-size="13" lengthAdjust="spacingAndGlyphs" textLength="20" x="275.0283" y="105.2585">0..*</text><text fill="#000000" font-family="sans-serif" font-size="13" lengthAdjust="spacingAndGlyphs" textLength="7" x="288.9986" y="133.2135">1</text><!--link Strategy to TaxonGroup--><path d="M277.29,220.162 C269.178,237.79 260.693,259.451 256.622,280 C244.099,343.216 245.842,361.464 256.622,425 C259.839,443.9569 266.911,464.3544 273.266,480.1847 " fill="none" id="Strategy-TaxonGroup" style="stroke: #A80036; stroke-width: 1.0;"/><polygon fill="#A80036" points="275.211,484.9443,275.5103,475.1,273.3201,480.3156,268.1045,478.1254,275.211,484.9443" style="stroke: #A80036; stroke-width: 1.0;"/><text fill="#000000" font-family="sans-serif" font-size="13" lengthAdjust="spacingAndGlyphs" textLength="20" x="249.9807" y="474.2702">0..*</text><!--link Strategy to ReferenceTaxon--><path d="M334.792,182.751 C399.243,184.657 528.306,199.002 586.622,280 C624.276,332.3 612.483,365.972 586.622,425 C576.551,447.9868 556.626,467.4255 538.078,481.6992 " fill="none" id="Strategy-ReferenceTaxon" style="stroke: #A80036; stroke-width: 1.0;"/><polygon fill="#A80036" points="533.898,484.8485,543.4932,482.6278,537.8915,481.8399,538.6794,476.2382,533.898,484.8485" style="stroke: #A80036; stroke-width: 1.0;"/><text fill="#000000" font-family="sans-serif" font-size="13" lengthAdjust="spacingAndGlyphs" textLength="20" x="520.8875" y="474.1498">0..*</text><!--link Strategy to Gear--><path d="M258.483,184.002 C198.099,187.896 81.9769,205.277 29.6221,280 C-7.3574,332.779 4.6063,365.609 29.6221,425 C40.0428,449.7402 61.8392,470.7784 80.7503,485.4838 " fill="none" id="Strategy-Gear" style="stroke: #A80036; stroke-width: 1.0;"/><polygon fill="#A80036" points="84.9854,488.7105,80.2508,480.0743,81.0083,485.6802,75.4024,486.4377,84.9854,488.7105" style="stroke: #A80036; stroke-width: 1.0;"/><text fill="#000000" font-family="sans-serif" font-size="13" lengthAdjust="spacingAndGlyphs" textLength="20" x="57.1819" y="480.6707">0..*</text><!--link Strategy to PmfmStrategy--><path d="M318.1476,231.3586 C318.1476,231.3586 329.001,255.744 334.401,267.878 " fill="none" id="Strategy-PmfmStrategy" style="stroke: #A80036; stroke-width: 1.0;"/><polygon fill="#A80036" points="339.783,279.968,339.7772,270.1191,337.7496,275.4001,332.4686,273.3726,339.783,279.968" style="stroke: #A80036; stroke-width: 1.0;"/><line style="stroke: #A80036; stroke-width: 1.0;" x1="337.7496" x2="334.497" y1="275.4001" y2="268.0915"/><polygon fill="#A80036" points="313.267,220.396,312.0531,227.5042,318.1476,231.3586,319.3615,224.2504,313.267,220.396" style="stroke: #A80036; stroke-width: 1.0;"/><text fill="#000000" font-family="sans-serif" font-size="13" lengthAdjust="spacingAndGlyphs" textLength="7" x="308.2798" y="241.0475">1</text><text fill="#000000" font-family="sans-serif" font-size="13" lengthAdjust="spacingAndGlyphs" textLength="20" x="315.4684" y="269.184">0..*</text><!--link PmfmStrategy to Pmfm--><path d="M468.624,352.5 C478.652,352.5 488.68,352.5 498.707,352.5 " fill="none" id="PmfmStrategy-Pmfm" style="stroke: #A80036; stroke-width: 1.0;"/><polygon fill="#A80036" points="503.951,352.5,494.951,348.5,498.951,352.5,494.951,356.5,503.951,352.5" style="stroke: #A80036; stroke-width: 1.0;"/><text fill="#000000" font-family="sans-serif" font-size="13" lengthAdjust="spacingAndGlyphs" textLength="20" x="476.0902" y="349.3604">0..*</text><text fill="#000000" font-family="sans-serif" font-size="13" lengthAdjust="spacingAndGlyphs" textLength="7" x="489.0386" y="348.2836">1</text><!--link AcquisitionLevel to PmfmStrategy--><path d="M173.595,352.5 C207.158,352.5 240.722,352.5 274.285,352.5 " fill="none" id="AcquisitionLevel-PmfmStrategy" style="stroke: #A80036; stroke-width: 1.0;"/><polygon fill="#A80036" points="168.208,352.5,177.208,356.5,173.208,352.5,177.208,348.5,168.208,352.5" style="stroke: #A80036; stroke-width: 1.0;"/><text fill="#000000" font-family="sans-serif" font-size="13" lengthAdjust="spacingAndGlyphs" textLength="7" x="176.0185" y="349.0415">1</text><text fill="#000000" font-family="sans-serif" font-size="13" lengthAdjust="spacingAndGlyphs" textLength="20" x="246.7379" y="349.4502">0..*</text><!--link PmfmStrategy to TaxonGroup--><path d="M331.643,425.322 C320.831,444.7471 309.762,464.6317 301.191,480.031 " fill="none" id="PmfmStrategy-TaxonGroup" style="stroke: #A80036; stroke-width: 1.0;"/><polygon fill="#A80036" points="298.614,484.6606,306.4856,478.7414,301.0453,480.2915,299.4952,474.8512,298.614,484.6606" style="stroke: #A80036; stroke-width: 1.0;"/><text fill="#000000" font-family="sans-serif" font-size="13" lengthAdjust="spacingAndGlyphs" textLength="20" x="279.3433" y="474.3158">0..*</text><!--link PmfmStrategy to ReferenceTaxon--><path d="M429.731,425.322 C445.582,444.9145 461.812,464.9746 474.315,480.4283 " fill="none" id="PmfmStrategy-ReferenceTaxon" style="stroke: #A80036; stroke-width: 1.0;"/><polygon fill="#A80036" points="477.739,484.6606,475.188,475.1479,474.5941,480.7735,468.9685,480.1796,477.739,484.6606" style="stroke: #A80036; stroke-width: 1.0;"/><text fill="#000000" font-family="sans-serif" font-size="13" lengthAdjust="spacingAndGlyphs" textLength="20" x="450.6988" y="474.3158">0..*</text><!--link PmfmStrategy to Gear--><path d="M274.461,411.91 C230.295,438.4615 180.867,468.1757 148.83,487.4351 " fill="none" id="PmfmStrategy-Gear" style="stroke: #A80036; stroke-width: 1.0;"/><polygon fill="#A80036" points="144.233,490.1991,154.0072,488.9886,148.5178,487.6222,149.8842,482.1329,144.233,490.1991" style="stroke: #A80036; stroke-width: 1.0;"/><text fill="#000000" font-family="sans-serif" font-size="13" lengthAdjust="spacingAndGlyphs" textLength="20" x="152.0314" y="482.4524">0..*</text><!--
@startuml

class Program {
 +label
 +name
}

Program "0..*" *-down-> "1" Strategy

class Strategy {
 +label
 +name
}

Strategy  - -> "0..*" TaxonGroup
Strategy  - -> "0..*" ReferenceTaxon
Strategy  - -> "0..*" Gear


class PmfmStrategy {
  +minValue [0..1] : double
  +maxValue [0..1] : double
  +defaultValue [0..1] : double
  +acquisitionNumber: integer
  +rankOrder: integer
  +isMandatory : boolean
  +signifFiguresNumber [0..1] : integer
}


Strategy "1" *- -> "0..*" PmfmStrategy
PmfmStrategy "0..*" -right-> "1" Pmfm
PmfmStrategy "0..*" -left-> "1" AcquisitionLevel

PmfmStrategy  - -> "0..*" TaxonGroup
PmfmStrategy  - -> "0..*" ReferenceTaxon
PmfmStrategy  - -> "0..*" Gear

@enduml

PlantUML version 1.2019.06(Fri May 24 19:10:25 CEST 2019)
(GPL source distribution)
Java Runtime: Java(TM) SE Runtime Environment
JVM: Java HotSpot(TM) 64-Bit Server VM
Java Version: 1.8.0_221-b11
Operating System: Windows 10
OS Version: 10.0
Default Encoding: Cp1252
Language: fr
Country: FR
--></g></svg>