<?xml version="1.0" encoding="UTF-8" standalone="no"?><svg xmlns="http://www.w3.org/2000/svg" xmlns:xlink="http://www.w3.org/1999/xlink" contentScriptType="application/ecmascript" contentStyleType="text/css" height="544px" preserveAspectRatio="none" style="width:636px;height:544px;" version="1.1" viewBox="0 0 636 544" width="636px" zoomAndPan="magnify"><defs><filter height="300%" id="fdpk6jnw6vteb" width="300%" x="-1" y="-1"><feGaussianBlur result="blurOut" stdDeviation="2.0"/><feColorMatrix in="blurOut" result="blurOut2" type="matrix" values="0 0 0 0 0 0 0 0 0 0 0 0 0 0 0 0 0 0 .4 0"/><feOffset dx="4.0" dy="4.0" in="blurOut2" result="blurOut3"/><feBlend in="SourceGraphic" in2="blurOut3" mode="normal"/></filter></defs><g><!--class Program--><rect fill="#FEFECE" filter="url(#fdpk6jnw6vteb)" height="75.6719" id="Program" style="stroke: #A80036; stroke-width: 1.5;" width="80" x="256.622" y="8"/><ellipse cx="271.622" cy="24" fill="#ADD1B2" rx="11" ry="11" style="stroke: #A80036; stroke-width: 1.0;"/><path d="M273.622,20.5 Q273.8251,20 274.0595,19.75 Q274.2939,19.5 274.5595,19.5 Q275.0283,19.5 275.3251,19.7813 Q275.622,20.0625 275.622,20.7188 L275.622,22.2813 Q275.622,22.9375 275.3408,23.2188 Q275.0595,23.5 274.622,23.5 Q274.2314,23.5 273.9814,23.3281 Q273.7314,23.1563 273.622,22.7031 Q273.5751,22.3906 273.4033,22.2188 Q273.0908,21.8906 272.5283,21.6953 Q271.9658,21.5 271.4033,21.5 Q270.7001,21.5 270.1142,21.7813 Q269.5283,22.0625 269.0751,22.6875 Q268.622,23.3125 268.622,24.1719 L268.622,25.0938 Q268.622,26.125 269.4658,26.8125 Q270.3095,27.5 271.8095,27.5 Q272.7001,27.5 273.3251,27.2969 Q273.6845,27.1875 274.0908,26.8281 Q274.3564,26.625 274.497,26.5625 Q274.6376,26.5 274.8095,26.5 Q275.1376,26.5 275.3798,26.7578 Q275.622,27.0156 275.622,27.375 Q275.622,27.7188 275.2783,28.125 Q274.7783,28.7188 273.9814,29.0469 Q272.9345,29.5 271.6533,29.5 Q270.1533,29.5 268.9501,28.9063 Q267.9814,28.4375 267.3017,27.4219 Q266.622,26.4063 266.622,25.2031 L266.622,24.1094 Q266.622,22.8594 267.2236,21.7656 Q267.8251,20.6719 268.8798,20.0859 Q269.9345,19.5 271.122,19.5 Q271.8408,19.5 272.4658,19.75 Q273.0908,20 273.622,20.5 Z "/><text fill="#000000" font-family="sans-serif" font-size="12" lengthAdjust="spacingAndGlyphs" textLength="48" x="285.622" y="28.9102">Program</text><line style="stroke: #A80036; stroke-width: 1.5;" x1="257.622" x2="335.622" y1="40" y2="40"/><ellipse cx="267.622" cy="52.418" fill="none" rx="3" ry="3" style="stroke: #038048; stroke-width: 1.0;"/><text fill="#000000" font-family="sans-serif" font-size="11" lengthAdjust="spacingAndGlyphs" textLength="22" x="276.622" y="55.4189">label</text><ellipse cx="267.622" cy="66.2539" fill="none" rx="3" ry="3" style="stroke: #038048; stroke-width: 1.0;"/><text fill="#000000" font-family="sans-serif" font-size="11" lengthAdjust="spacingAndGlyphs" textLength="26" x="276.622" y="69.2549">name</text><line style="stroke: #A80036; stroke-width: 1.5;" x1="257.622" x2="335.622" y1="75.6719" y2="75.6719"/><!--class Strategy--><rect fill="#FEFECE" filter="url(#fdpk6jnw6vteb)" height="75.6719" id="Strategy" style="stroke: #A80036; stroke-width: 1.5;" width="76" x="258.622" y="144"/><ellipse cx="273.622" cy="160" fill="#ADD1B2" rx="11" ry="11" style="stroke: #A80036; stroke-width: 1.0;"/><path d="M275.622,156.5 Q275.8251,156 276.0595,155.75 Q276.2939,155.5 276.5595,155.5 Q277.0283,155.5 277.3251,155.7813 Q277.622,156.0625 277.622,156.7188 L277.622,158.2813 Q277.622,158.9375 277.3408,159.2188 Q277.0595,159.5 276.622,159.5 Q276.2314,159.5 275.9814,159.3281 Q275.7314,159.1563 275.622,158.7031 Q275.5751,158.3906 275.4033,158.2188 Q275.0908,157.8906 274.5283,157.6953 Q273.9658,157.5 273.4033,157.5 Q272.7001,157.5 272.1142,157.7813 Q271.5283,158.0625 271.0751,158.6875 Q270.622,159.3125 270.622,160.1719 L270.622,161.0938 Q270.622,162.125 271.4658,162.8125 Q272.3095,163.5 273.8095,163.5 Q274.7001,163.5 275.3251,163.2969 Q275.6845,163.1875 276.0908,162.8281 Q276.3564,162.625 276.497,162.5625 Q276.6376,162.5 276.8095,162.5 Q277.1376,162.5 277.3798,162.7578 Q277.622,163.0156 277.622,163.375 Q277.622,163.7188 277.2783,164.125 Q276.7783,164.7188 275.9814,165.0469 Q274.9345,165.5 273.6533,165.5 Q272.1533,165.5 270.9501,164.9063 Q269.9814,164.4375 269.3017,163.4219 Q268.622,162.4063 268.622,161.2031 L268.622,160.1094 Q268.622,158.8594 269.2236,157.7656 Q269.8251,156.6719 270.8798,156.0859 Q271.9345,155.5 273.122,155.5 Q273.8408,155.5 274.4658,155.75 Q275.0908,156 275.622,156.5 Z "/><text fill="#000000" font-family="sans-serif" font-size="12" lengthAdjust="spacingAndGlyphs" textLength="44" x="287.622" y="164.9102">Strategy</text><line style="stroke: #A80036; stroke-width: 1.5;" x1="259.622" x2="333.622" y1="176" y2="176"/><ellipse cx="269.622" cy="188.418" fill="none" rx="3" ry="3" style="stroke: #038048; stroke-width: 1.0;"/><text fill="#000000" font-family="sans-serif" font-size="11" lengthAdjust="spacingAndGlyphs" textLength="22" x="278.622" y="191.4189">label</text><ellipse cx="269.622" cy="202.2539" fill="none" rx="3" ry="3" style="stroke: #038048; stroke-width: 1.0;"/><text fill="#000000" font-family="sans-serif" font-size="11" lengthAdjust="spacingAndGlyphs" textLength="26" x="278.622" y="205.2549">name</text><line style="stroke: #A80036; stroke-width: 1.5;" x1="259.622" x2="333.622" y1="211.6719" y2="211.6719"/><!--class TaxonGroup--><rect fill="#FEFECE" filter="url(#fdpk6jnw6vteb)" height="48" id="TaxonGroup" style="stroke: #A80036; stroke-width: 1.5;" width="99" x="236.122" y="485"/><ellipse cx="251.122" cy="501" fill="#ADD1B2" rx="11" ry="11" style="stroke: #A80036; stroke-width: 1.0;"/><path d="M253.122,497.5 Q253.3251,497 253.5595,496.75 Q253.7939,496.5 254.0595,496.5 Q254.5283,496.5 254.8251,496.7813 Q255.122,497.0625 255.122,497.7188 L255.122,499.2813 Q255.122,499.9375 254.8408,500.2188 Q254.5595,500.5 254.122,500.5 Q253.7314,500.5 253.4814,500.3281 Q253.2314,500.1563 253.122,499.7031 Q253.0751,499.3906 252.9033,499.2188 Q252.5908,498.8906 252.0283,498.6953 Q251.4658,498.5 250.9033,498.5 Q250.2001,498.5 249.6142,498.7813 Q249.0283,499.0625 248.5751,499.6875 Q248.122,500.3125 248.122,501.1719 L248.122,502.0938 Q248.122,503.125 248.9658,503.8125 Q249.8095,504.5 251.3095,504.5 Q252.2001,504.5 252.8251,504.2969 Q253.1845,504.1875 253.5908,503.8281 Q253.8564,503.625 253.997,503.5625 Q254.1376,503.5 254.3095,503.5 Q254.6376,503.5 254.8798,503.7578 Q255.122,504.0156 255.122,504.375 Q255.122,504.7188 254.7783,505.125 Q254.2783,505.7188 253.4814,506.0469 Q252.4345,506.5 251.1533,506.5 Q249.6533,506.5 248.4501,505.9063 Q247.4814,505.4375 246.8017,504.4219 Q246.122,503.4063 246.122,502.2031 L246.122,501.1094 Q246.122,499.8594 246.7236,498.7656 Q247.3251,497.6719 248.3798,497.0859 Q249.4345,496.5 250.622,496.5 Q251.3408,496.5 251.9658,496.75 Q252.5908,497 253.122,497.5 Z "/><text fill="#000000" font-family="sans-serif" font-size="12" lengthAdjust="spacingAndGlyphs" textLength="67" x="265.122" y="505.9102">TaxonGroup</text><line style="stroke: #A80036; stroke-width: 1.5;" x1="237.122" x2="334.122" y1="517" y2="517"/><line style="stroke: #A80036; stroke-width: 1.5;" x1="237.122" x2="334.122" y1="525" y2="525"/><!--class ReferenceTaxon--><rect fill="#FEFECE" filter="url(#fdpk6jnw6vteb)" height="48" id="ReferenceTaxon" style="stroke: #A80036; stroke-width: 1.5;" width="122" x="435.622" y="485"/><ellipse cx="450.622" cy="501" fill="#ADD1B2" rx="11" ry="11" style="stroke: #A80036; stroke-width: 1.0;"/><path d="M452.622,497.5 Q452.8251,497 453.0595,496.75 Q453.2939,496.5 453.5595,496.5 Q454.0283,496.5 454.3251,496.7813 Q454.622,497.0625 454.622,497.7188 L454.622,499.2813 Q454.622,499.9375 454.3408,500.2188 Q454.0595,500.5 453.622,500.5 Q453.2314,500.5 452.9814,500.3281 Q452.7314,500.1563 452.622,499.7031 Q452.5751,499.3906 452.4033,499.2188 Q452.0908,498.8906 451.5283,498.6953 Q450.9658,498.5 450.4033,498.5 Q449.7001,498.5 449.1142,498.7813 Q448.5283,499.0625 448.0751,499.6875 Q447.622,500.3125 447.622,501.1719 L447.622,502.0938 Q447.622,503.125 448.4658,503.8125 Q449.3095,504.5 450.8095,504.5 Q451.7001,504.5 452.3251,504.2969 Q452.6845,504.1875 453.0908,503.8281 Q453.3564,503.625 453.497,503.5625 Q453.6376,503.5 453.8095,503.5 Q454.1376,503.5 454.3798,503.7578 Q454.622,504.0156 454.622,504.375 Q454.622,504.7188 454.2783,505.125 Q453.7783,505.7188 452.9814,506.0469 Q451.9345,506.5 450.6533,506.5 Q449.1533,506.5 447.9501,505.9063 Q446.9814,505.4375 446.3017,504.4219 Q445.622,503.4063 445.622,502.2031 L445.622,501.1094 Q445.622,499.8594 446.2236,498.7656 Q446.8251,497.6719 447.8798,497.0859 Q448.9345,496.5 450.122,496.5 Q450.8408,496.5 451.4658,496.75 Q452.0908,497 452.622,497.5 Z "/><text fill="#000000" font-family="sans-serif" font-size="12" lengthAdjust="spacingAndGlyphs" textLength="90" x="464.622" y="505.9102">ReferenceTaxon</text><line style="stroke: #A80036; stroke-width: 1.5;" x1="436.622" x2="556.622" y1="517" y2="517"/><line style="stroke: #A80036; stroke-width: 1.5;" x1="436.622" x2="556.622" y1="525" y2="525"/><!--class Gear--><rect fill="#FEFECE" filter="url(#fdpk6jnw6vteb)" height="48" id="Gear" style="stroke: #A80036; stroke-width: 1.5;" width="59" x="85.1221" y="485"/><ellipse cx="100.1221" cy="501" fill="#ADD1B2" rx="11" ry="11" style="stroke: #A80036; stroke-width: 1.0;"/><path d="M102.1221,497.5 Q102.3252,497 102.5596,496.75 Q102.794,496.5 103.0596,496.5 Q103.5284,496.5 103.8252,496.7813 Q104.1221,497.0625 104.1221,497.7188 L104.1221,499.2813 Q104.1221,499.9375 103.8409,500.2188 Q103.5596,500.5 103.1221,500.5 Q102.7315,500.5 102.4815,500.3281 Q102.2315,500.1563 102.1221,499.7031 Q102.0752,499.3906 101.9034,499.2188 Q101.5909,498.8906 101.0284,498.6953 Q100.4659,498.5 99.9034,498.5 Q99.2002,498.5 98.6143,498.7813 Q98.0284,499.0625 97.5752,499.6875 Q97.1221,500.3125 97.1221,501.1719 L97.1221,502.0938 Q97.1221,503.125 97.9659,503.8125 Q98.8096,504.5 100.3096,504.5 Q101.2002,504.5 101.8252,504.2969 Q102.1846,504.1875 102.5909,503.8281 Q102.8565,503.625 102.9971,503.5625 Q103.1377,503.5 103.3096,503.5 Q103.6377,503.5 103.8799,503.7578 Q104.1221,504.0156 104.1221,504.375 Q104.1221,504.7188 103.7784,505.125 Q103.2784,505.7188 102.4815,506.0469 Q101.4346,506.5 100.1534,506.5 Q98.6534,506.5 97.4502,505.9063 Q96.4815,505.4375 95.8018,504.4219 Q95.1221,503.4063 95.1221,502.2031 L95.1221,501.1094 Q95.1221,499.8594 95.7237,498.7656 Q96.3252,497.6719 97.3799,497.0859 Q98.4346,496.5 99.6221,496.5 Q100.3409,496.5 100.9659,496.75 Q101.5909,497 102.1221,497.5 Z "/><text fill="#000000" font-family="sans-serif" font-size="12" lengthAdjust="spacingAndGlyphs" textLength="27" x="114.1221" y="505.9102">Gear</text><line style="stroke: #A80036; stroke-width: 1.5;" x1="86.1221" x2="143.1221" y1="517" y2="517"/><line style="stroke: #A80036; stroke-width: 1.5;" x1="86.1221" x2="143.1221" y1="525" y2="525"/><!--class PmfmStrategy--><rect fill="#FEFECE" filter="url(#fdpk6jnw6vteb)" height="144.8516" id="PmfmStrategy" style="stroke: #A80036; stroke-width: 1.5;" width="194" x="274.622" y="280"/><ellipse cx="328.872" cy="296" fill="#ADD1B2" rx="11" ry="11" style="stroke: #A80036; stroke-width: 1.0;"/><path d="M330.872,292.5 Q331.0751,292 331.3095,291.75 Q331.5439,291.5 331.8095,291.5 Q332.2783,291.5 332.5751,291.7813 Q332.872,292.0625 332.872,292.7188 L332.872,294.2813 Q332.872,294.9375 332.5908,295.2188 Q332.3095,295.5 331.872,295.5 Q331.4814,295.5 331.2314,295.3281 Q330.9814,295.1563 330.872,294.7031 Q330.8251,294.3906 330.6533,294.2188 Q330.3408,293.8906 329.7783,293.6953 Q329.2158,293.5 328.6533,293.5 Q327.9501,293.5 327.3642,293.7813 Q326.7783,294.0625 326.3251,294.6875 Q325.872,295.3125 325.872,296.1719 L325.872,297.0938 Q325.872,298.125 326.7158,298.8125 Q327.5595,299.5 329.0595,299.5 Q329.9501,299.5 330.5751,299.2969 Q330.9345,299.1875 331.3408,298.8281 Q331.6064,298.625 331.747,298.5625 Q331.8876,298.5 332.0595,298.5 Q332.3876,298.5 332.6298,298.7578 Q332.872,299.0156 332.872,299.375 Q332.872,299.7188 332.5283,300.125 Q332.0283,300.7188 331.2314,301.0469 Q330.1845,301.5 328.9033,301.5 Q327.4033,301.5 326.2001,300.9063 Q325.2314,300.4375 324.5517,299.4219 Q323.872,298.4063 323.872,297.2031 L323.872,296.1094 Q323.872,294.8594 324.4736,293.7656 Q325.0751,292.6719 326.1298,292.0859 Q327.1845,291.5 328.372,291.5 Q329.0908,291.5 329.7158,291.75 Q330.3408,292 330.872,292.5 Z "/><text fill="#000000" font-family="sans-serif" font-size="12" lengthAdjust="spacingAndGlyphs" textLength="77" x="349.372" y="300.9102">PmfmStrategy</text><line style="stroke: #A80036; stroke-width: 1.5;" x1="275.622" x2="467.622" y1="312" y2="312"/><ellipse cx="285.622" cy="324.418" fill="none" rx="3" ry="3" style="stroke: #038048; stroke-width: 1.0;"/><text fill="#000000" font-family="sans-serif" font-size="11" lengthAdjust="spacingAndGlyphs" textLength="112" x="294.622" y="327.4189">minValue [0..1] : double</text><ellipse cx="285.622" cy="338.2539" fill="none" rx="3" ry="3" style="stroke: #038048; stroke-width: 1.0;"/><text fill="#000000" font-family="sans-serif" font-size="11" lengthAdjust="spacingAndGlyphs" textLength="116" x="294.622" y="341.2549">maxValue [0..1] : double</text><ellipse cx="285.622" cy="352.0898" fill="none" rx="3" ry="3" style="stroke: #038048; stroke-width: 1.0;"/><text fill="#000000" font-family="sans-serif" font-size="11" lengthAdjust="spacingAndGlyphs" textLength="129" x="294.622" y="355.0908">defaultValue [0..1] : double</text><ellipse cx="285.622" cy="365.9258" fill="none" rx="3" ry="3" style="stroke: #038048; stroke-width: 1.0;"/><text fill="#000000" font-family="sans-serif" font-size="11" lengthAdjust="spacingAndGlyphs" textLength="127" x="294.622" y="368.9268">acquisitionNumber: integer</text><ellipse cx="285.622" cy="379.7617" fill="none" rx="3" ry="3" style="stroke: #038048; stroke-width: 1.0;"/><text fill="#000000" font-family="sans-serif" font-size="11" lengthAdjust="spacingAndGlyphs" textLength="88" x="294.622" y="382.7627">rankOrder: integer</text><ellipse cx="285.622" cy="393.5977" fill="none" rx="3" ry="3" style="stroke: #038048; stroke-width: 1.0;"/><text fill="#000000" font-family="sans-serif" font-size="11" lengthAdjust="spacingAndGlyphs" textLength="106" x="294.622" y="396.5986">isMandatory : boolean</text><ellipse cx="285.622" cy="407.4336" fill="none" rx="3" ry="3" style="stroke: #038048; stroke-width: 1.0;"/><text fill="#000000" font-family="sans-serif" font-size="11" lengthAdjust="spacingAndGlyphs" textLength="168" x="294.622" y="410.4346">signifFiguresNumber [0..1] : integer</text><line style="stroke: #A80036; stroke-width: 1.5;" x1="275.622" x2="467.622" y1="416.8516" y2="416.8516"/><!--class Pmfm--><rect fill="#FEFECE" filter="url(#fdpk6jnw6vteb)" height="48" id="Pmfm" style="stroke: #A80036; stroke-width: 1.5;" width="65" x="504.122" y="328.5"/><ellipse cx="519.122" cy="344.5" fill="#ADD1B2" rx="11" ry="11" style="stroke: #A80036; stroke-width: 1.0;"/><path d="M521.122,341 Q521.3251,340.5 521.5595,340.25 Q521.7939,340 522.0595,340 Q522.5283,340 522.8251,340.2813 Q523.122,340.5625 523.122,341.2188 L523.122,342.7813 Q523.122,343.4375 522.8408,343.7188 Q522.5595,344 522.122,344 Q521.7314,344 521.4814,343.8281 Q521.2314,343.6563 521.122,343.2031 Q521.0751,342.8906 520.9033,342.7188 Q520.5908,342.3906 520.0283,342.1953 Q519.4658,342 518.9033,342 Q518.2001,342 517.6142,342.2813 Q517.0283,342.5625 516.5751,343.1875 Q516.122,343.8125 516.122,344.6719 L516.122,345.5938 Q516.122,346.625 516.9658,347.3125 Q517.8095,348 519.3095,348 Q520.2001,348 520.8251,347.7969 Q521.1845,347.6875 521.5908,347.3281 Q521.8564,347.125 521.997,347.0625 Q522.1376,347 522.3095,347 Q522.6376,347 522.8798,347.2578 Q523.122,347.5156 523.122,347.875 Q523.122,348.2188 522.7783,348.625 Q522.2783,349.2188 521.4814,349.5469 Q520.4345,350 519.1533,350 Q517.6533,350 516.4501,349.4063 Q515.4814,348.9375 514.8017,347.9219 Q514.122,346.9063 514.122,345.7031 L514.122,344.6094 Q514.122,343.3594 514.7236,342.2656 Q515.3251,341.1719 516.3798,340.5859 Q517.4345,340 518.622,340 Q519.3408,340 519.9658,340.25 Q520.5908,340.5 521.122,341 Z "/><text fill="#000000" font-family="sans-serif" font-size="12" lengthAdjust="spacingAndGlyphs" textLength="33" x="533.122" y="349.4102">Pmfm</text><line style="stroke: #A80036; stroke-width: 1.5;" x1="505.122" x2="568.122" y1="360.5" y2="360.5"/><line style="stroke: #A80036; stroke-width: 1.5;" x1="505.122" x2="568.122" y1="368.5" y2="368.5"/><!--class AcquisitionLevel--><rect fill="#FEFECE" filter="url(#fdpk6jnw6vteb)" height="48" id="AcquisitionLevel" style="stroke: #A80036; stroke-width: 1.5;" width="121" x="47.1221" y="328.5"/><ellipse cx="62.1221" cy="344.5" fill="#ADD1B2" rx="11" ry="11" style="stroke: #A80036; stroke-width: 1.0;"/><path d="M64.1221,341 Q64.3252,340.5 64.5596,340.25 Q64.794,340 65.0596,340 Q65.5284,340 65.8252,340.2813 Q66.1221,340.5625 66.1221,341.2188 L66.1221,342.7813 Q66.1221,343.4375 65.8409,343.7188 Q65.5596,344 65.1221,344 Q64.7315,344 64.4815,343.8281 Q64.2315,343.6563 64.1221,343.2031 Q64.0752,342.8906 63.9034,342.7188 Q63.5909,342.3906 63.0284,342.1953 Q62.4659,342 61.9034,342 Q61.2002,342 60.6143,342.2813 Q60.0284,342.5625 59.5752,343.1875 Q59.1221,343.8125 59.1221,344.6719 L59.1221,345.5938 Q59.1221,346.625 59.9659,347.3125 Q60.8096,348 62.3096,348 Q63.2002,348 63.8252,347.7969 Q64.1846,347.6875 64.5909,347.3281 Q64.8565,347.125 64.9971,347.0625 Q65.1377,347 65.3096,347 Q65.6377,347 65.8799,347.2578 Q66.1221,347.5156 66.1221,347.875 Q66.1221,348.2188 65.7784,348.625 Q65.2784,349.2188 64.4815,349.5469 Q63.4346,350 62.1534,350 Q60.6534,350 59.4502,349.4063 Q58.4815,348.9375 57.8018,347.9219 Q57.1221,346.9063 57.1221,345.7031 L57.1221,344.6094 Q57.1221,343.3594 57.7237,342.2656 Q58.3252,341.1719 59.3799,340.5859 Q60.4346,340 61.6221,340 Q62.3409,340 62.9659,340.25 Q63.5909,340.5 64.1221,341 Z "/><text fill="#000000" font-family="sans-serif" font-size="12" lengthAdjust="spacingAndGlyphs" textLength="89" x="76.1221" y="349.4102">AcquisitionLevel</text><line style="stroke: #A80036; stroke-width: 1.5;" x1="48.1221" x2="167.1221" y1="360.5" y2="360.5"/><line style="stroke: #A80036; stroke-width: 1.5;" x1="48.1221" x2="167.1221" y1="368.5" y2="368.5"/><!--link Program to Strategy--><path d="M296.622,96.326 C296.622,96.326 296.622,119.742 296.622,130.575 " fill="none" id="Program-Strategy" style="stroke: #A80036; stroke-width: 1.0;"/><polygon fill="#A80036" points="296.622,143.874,300.622,134.874,296.622,138.874,292.622,134.874,296.622,143.874" style="stroke: #A80036; stroke-width: 1.0;"/><line style="stroke: #A80036; stroke-width: 1.0;" x1="296.622" x2="296.622" y1="138.874" y2="130.874"/><polygon fill="#A80036" points="296.622,84.326,292.622,90.326,296.622,96.326,300.622,90.326,296.622,84.326" style="stroke: #A80036; stroke-width: 1.0;"/><text fill="#000000" font-family="sans-serif" font-size="13" lengthAdjust="spacingAndGlyphs" textLength="20" x="275.0283" y="105.2585">0..*</text><text fill="#000000" font-family="sans-serif" font-size="13" lengthAdjust="spacingAndGlyphs" textLength="7" x="288.9986" y="133.2135">1</text><!--link Strategy to TaxonGroup--><path d="M277.29,220.162 C269.178,237.79 260.693,259.451 256.622,280 C244.099,343.216 245.842,361.464 256.622,425 C259.839,443.9569 266.911,464.3544 273.266,480.1847 " fill="none" id="Strategy-TaxonGroup" style="stroke: #A80036; stroke-width: 1.0;"/><polygon fill="#A80036" points="275.211,484.9443,275.5103,475.1,273.3201,480.3156,268.1045,478.1254,275.211,484.9443" style="stroke: #A80036; stroke-width: 1.0;"/><text fill="#000000" font-family="sans-serif" font-size="13" lengthAdjust="spacingAndGlyphs" textLength="20" x="249.9807" y="474.2702">0..*</text><!--link Strategy to ReferenceTaxon--><path d="M334.792,182.751 C399.243,184.657 528.306,199.002 586.622,280 C624.276,332.3 612.483,365.972 586.622,425 C576.551,447.9868 556.626,467.4255 538.078,481.6992 " fill="none" id="Strategy-ReferenceTaxon" style="stroke: #A80036; stroke-width: 1.0;"/><polygon fill="#A80036" points="533.898,484.8485,543.4932,482.6278,537.8915,481.8399,538.6794,476.2382,533.898,484.8485" style="stroke: #A80036; stroke-width: 1.0;"/><text fill="#000000" font-family="sans-serif" font-size="13" lengthAdjust="spacingAndGlyphs" textLength="20" x="520.8875" y="474.1498">0..*</text><!--link Strategy to Gear--><path d="M258.483,184.002 C198.099,187.896 81.9769,205.277 29.6221,280 C-7.3574,332.779 4.6063,365.609 29.6221,425 C40.0428,449.7402 61.8392,470.7784 80.7503,485.4838 " fill="none" id="Strategy-Gear" style="stroke: #A80036; stroke-width: 1.0;"/><polygon fill="#A80036" points="84.9854,488.7105,80.2508,480.0743,81.0083,485.6802,75.4024,486.4377,84.9854,488.7105" style="stroke: #A80036; stroke-width: 1.0;"/><text fill="#000000" font-family="sans-serif" font-size="13" lengthAdjust="spacingAndGlyphs" textLength="20" x="57.1819" y="480.6707">0..*</text><!--link Strategy to PmfmStrategy--><path d="M318.1476,231.3586 C318.1476,231.3586 329.001,255.744 334.401,267.878 " fill="none" id="Strategy-PmfmStrategy" style="stroke: #A80036; stroke-width: 1.0;"/><polygon fill="#A80036" points="339.783,279.968,339.7772,270.1191,337.7496,275.4001,332.4686,273.3726,339.783,279.968" style="stroke: #A80036; stroke-width: 1.0;"/><line style="stroke: #A80036; stroke-width: 1.0;" x1="337.7496" x2="334.497" y1="275.4001" y2="268.0915"/><polygon fill="#A80036" points="313.267,220.396,312.0531,227.5042,318.1476,231.3586,319.3615,224.2504,313.267,220.396" style="stroke: #A80036; stroke-width: 1.0;"/><text fill="#000000" font-family="sans-serif" font-size="13" lengthAdjust="spacingAndGlyphs" textLength="7" x="308.2798" y="241.0475">1</text><text fill="#000000" font-family="sans-serif" font-size="13" lengthAdjust="spacingAndGlyphs" textLength="20" x="315.4684" y="269.184">0..*</text><!--link PmfmStrategy to Pmfm--><path d="M468.624,352.5 C478.652,352.5 488.68,352.5 498.707,352.5 " fill="none" id="PmfmStrategy-Pmfm" style="stroke: #A80036; stroke-width: 1.0;"/><polygon fill="#A80036" points="503.951,352.5,494.951,348.5,498.951,352.5,494.951,356.5,503.951,352.5" style="stroke: #A80036; stroke-width: 1.0;"/><text fill="#000000" font-family="sans-serif" font-size="13" lengthAdjust="spacingAndGlyphs" textLength="20" x="476.0902" y="349.3604">0..*</text><text fill="#000000" font-family="sans-serif" font-size="13" lengthAdjust="spacingAndGlyphs" textLength="7" x="489.0386" y="348.2836">1</text><!--link AcquisitionLevel to PmfmStrategy--><path d="M173.595,352.5 C207.158,352.5 240.722,352.5 274.285,352.5 " fill="none" id="AcquisitionLevel-PmfmStrategy" style="stroke: #A80036; stroke-width: 1.0;"/><polygon fill="#A80036" points="168.208,352.5,177.208,356.5,173.208,352.5,177.208,348.5,168.208,352.5" style="stroke: #A80036; stroke-width: 1.0;"/><text fill="#000000" font-family="sans-serif" font-size="13" lengthAdjust="spacingAndGlyphs" textLength="7" x="176.0185" y="349.0415">1</text><text fill="#000000" font-family="sans-serif" font-size="13" lengthAdjust="spacingAndGlyphs" textLength="20" x="246.7379" y="349.4502">0..*</text><!--link PmfmStrategy to TaxonGroup--><path d="M331.643,425.322 C320.831,444.7471 309.762,464.6317 301.191,480.031 " fill="none" id="PmfmStrategy-TaxonGroup" style="stroke: #A80036; stroke-width: 1.0;"/><polygon fill="#A80036" points="298.614,484.6606,306.4856,478.7414,301.0453,480.2915,299.4952,474.8512,298.614,484.6606" style="stroke: #A80036; stroke-width: 1.0;"/><text fill="#000000" font-family="sans-serif" font-size="13" lengthAdjust="spacingAndGlyphs" textLength="20" x="279.3433" y="474.3158">0..*</text><!--link PmfmStrategy to ReferenceTaxon--><path d="M429.731,425.322 C445.582,444.9145 461.812,464.9746 474.315,480.4283 " fill="none" id="PmfmStrategy-ReferenceTaxon" style="stroke: #A80036; stroke-width: 1.0;"/><polygon fill="#A80036" points="477.739,484.6606,475.188,475.1479,474.5941,480.7735,468.9685,480.1796,477.739,484.6606" style="stroke: #A80036; stroke-width: 1.0;"/><text fill="#000000" font-family="sans-serif" font-size="13" lengthAdjust="spacingAndGlyphs" textLength="20" x="450.6988" y="474.3158">0..*</text><!--link PmfmStrategy to Gear--><path d="M274.461,411.91 C230.295,438.4615 180.867,468.1757 148.83,487.4351 " fill="none" id="PmfmStrategy-Gear" style="stroke: #A80036; stroke-width: 1.0;"/><polygon fill="#A80036" points="144.233,490.1991,154.0072,488.9886,148.5178,487.6222,149.8842,482.1329,144.233,490.1991" style="stroke: #A80036; stroke-width: 1.0;"/><text fill="#000000" font-family="sans-serif" font-size="13" lengthAdjust="spacingAndGlyphs" textLength="20" x="152.0314" y="482.4524">0..*</text><!--
@startuml

class Program {
 +label
 +name
}

Program "0..*" *-down-> "1" Strategy

class Strategy {
 +label
 +name
}

Strategy  - -> "0..*" TaxonGroup
Strategy  - -> "0..*" ReferenceTaxon
Strategy  - -> "0..*" Gear


class PmfmStrategy {
  +minValue [0..1] : double
  +maxValue [0..1] : double
  +defaultValue [0..1] : double
  +acquisitionNumber: integer
  +rankOrder: integer
  +isMandatory : boolean
  +signifFiguresNumber [0..1] : integer
}


Strategy "1" *- -> "0..*" PmfmStrategy
PmfmStrategy "0..*" -right-> "1" Pmfm
PmfmStrategy "0..*" -left-> "1" AcquisitionLevel

PmfmStrategy  - -> "0..*" TaxonGroup
PmfmStrategy  - -> "0..*" ReferenceTaxon
PmfmStrategy  - -> "0..*" Gear

@enduml

PlantUML version 1.2019.06(Fri May 24 19:10:25 CEST 2019)
(GPL source distribution)
Java Runtime: OpenJDK Runtime Environment
JVM: OpenJDK 64-Bit Server VM
Java Version: 1.8.0_212-release-1586-b4
Operating System: Windows 10
OS Version: 10.0
Default Encoding: Cp1252
Language: fr
Country: FR
--></g></svg>