<?xml version="1.0" encoding="us-ascii" standalone="no"?><svg xmlns="http://www.w3.org/2000/svg" xmlns:xlink="http://www.w3.org/1999/xlink" contentStyleType="text/css" height="499px" preserveAspectRatio="none" style="width:743px;height:499px;background:#FFFFFF;" version="1.1" viewBox="0 0 743 499" width="743px" zoomAndPan="magnify"><defs/><g><!--class Program--><g id="elem_Program"><rect codeLine="3" fill="#F1F1F1" height="32" id="Program" rx="2.5" ry="2.5" style="stroke:#181818;stroke-width:0.5;" width="86" x="137.21" y="7"/><ellipse cx="152.21" cy="23" fill="#ADD1B2" rx="11" ry="11" style="stroke:#181818;stroke-width:1.0;"/><path d="M154.9756,18.875 Q155.1319,18.6563 155.3194,18.5469 Q155.5069,18.4375 155.7256,18.4375 Q156.1006,18.4375 156.335,18.6953 Q156.5694,18.9531 156.5694,19.5625 L156.5694,21.0156 Q156.5694,21.625 156.335,21.8906 Q156.1006,22.1563 155.7256,22.1563 Q155.3819,22.1563 155.1787,21.9531 Q154.9756,21.7656 154.8662,21.25 Q154.8194,20.8906 154.6319,20.7031 Q154.3037,20.3281 153.6944,20.1094 Q153.085,19.8906 152.46,19.8906 Q151.6944,19.8906 151.0616,20.2188 Q150.4287,20.5469 149.9366,21.2969 Q149.4444,22.0469 149.4444,23.0781 L149.4444,24.1719 Q149.4444,25.4063 150.335,26.2266 Q151.2256,27.0469 152.8194,27.0469 Q153.7569,27.0469 154.4131,26.7969 Q154.8037,26.6406 155.2256,26.2031 Q155.4912,25.9375 155.6397,25.8594 Q155.7881,25.7813 155.9912,25.7813 Q156.3194,25.7813 156.5772,26.0391 Q156.835,26.2969 156.835,26.6406 Q156.835,26.9844 156.4912,27.3906 Q155.9912,27.9688 155.1944,28.2969 Q154.1162,28.75 152.8194,28.75 Q151.3037,28.75 150.1006,28.125 Q149.1162,27.625 148.4287,26.5547 Q147.7412,25.4844 147.7412,24.2031 L147.7412,23.0469 Q147.7412,21.7188 148.3584,20.5703 Q148.9756,19.4219 150.0694,18.8047 Q151.1631,18.1875 152.3975,18.1875 Q153.1319,18.1875 153.7803,18.3516 Q154.4287,18.5156 154.9756,18.875 Z " fill="#000000"/><text fill="#000000" font-family="sans-serif" font-size="14" lengthAdjust="spacing" textLength="54" x="166.21" y="28.7285">Program</text></g><!--class Strategy--><g id="elem_Strategy"><rect codeLine="8" fill="#F1F1F1" height="75.2188" id="Strategy" rx="2.5" ry="2.5" style="stroke:#181818;stroke-width:0.5;" width="85" x="137.71" y="100"/><ellipse cx="152.71" cy="116" fill="#ADD1B2" rx="11" ry="11" style="stroke:#181818;stroke-width:1.0;"/><path d="M155.4756,111.875 Q155.6319,111.6563 155.8194,111.5469 Q156.0069,111.4375 156.2256,111.4375 Q156.6006,111.4375 156.835,111.6953 Q157.0694,111.9531 157.0694,112.5625 L157.0694,114.0156 Q157.0694,114.625 156.835,114.8906 Q156.6006,115.1563 156.2256,115.1563 Q155.8819,115.1563 155.6787,114.9531 Q155.4756,114.7656 155.3662,114.25 Q155.3194,113.8906 155.1319,113.7031 Q154.8037,113.3281 154.1944,113.1094 Q153.585,112.8906 152.96,112.8906 Q152.1944,112.8906 151.5616,113.2188 Q150.9287,113.5469 150.4366,114.2969 Q149.9444,115.0469 149.9444,116.0781 L149.9444,117.1719 Q149.9444,118.4063 150.835,119.2266 Q151.7256,120.0469 153.3194,120.0469 Q154.2569,120.0469 154.9131,119.7969 Q155.3037,119.6406 155.7256,119.2031 Q155.9912,118.9375 156.1397,118.8594 Q156.2881,118.7813 156.4912,118.7813 Q156.8194,118.7813 157.0772,119.0391 Q157.335,119.2969 157.335,119.6406 Q157.335,119.9844 156.9912,120.3906 Q156.4912,120.9688 155.6944,121.2969 Q154.6162,121.75 153.3194,121.75 Q151.8037,121.75 150.6006,121.125 Q149.6162,120.625 148.9287,119.5547 Q148.2412,118.4844 148.2412,117.2031 L148.2412,116.0469 Q148.2412,114.7188 148.8584,113.5703 Q149.4756,112.4219 150.5694,111.8047 Q151.6631,111.1875 152.8975,111.1875 Q153.6319,111.1875 154.2803,111.3516 Q154.9287,111.5156 155.4756,111.875 Z " fill="#000000"/><text fill="#000000" font-family="sans-serif" font-size="14" lengthAdjust="spacing" textLength="53" x="166.71" y="121.7285">Strategy</text><line style="stroke:#181818;stroke-width:0.5;" x1="138.71" x2="221.71" y1="132" y2="132"/><ellipse cx="148.71" cy="146.3047" fill="none" rx="3" ry="3" style="stroke:#038048;stroke-width:1.0;"/><text fill="#000000" font-family="sans-serif" font-size="14" lengthAdjust="spacing" textLength="30" x="157.71" y="150.5332">label</text><ellipse cx="148.71" cy="163.9141" fill="none" rx="3" ry="3" style="stroke:#038048;stroke-width:1.0;"/><text fill="#000000" font-family="sans-serif" font-size="14" lengthAdjust="spacing" textLength="35" x="157.71" y="168.1426">name</text></g><!--class TaxonGroup--><g id="elem_TaxonGroup"><rect fill="#F1F1F1" height="32" id="TaxonGroup" rx="2.5" ry="2.5" style="stroke:#181818;stroke-width:0.5;" width="111" x="40.71" y="460"/><ellipse cx="55.71" cy="476" fill="#ADD1B2" rx="11" ry="11" style="stroke:#181818;stroke-width:1.0;"/><path d="M58.4756,471.875 Q58.6319,471.6563 58.8194,471.5469 Q59.0069,471.4375 59.2256,471.4375 Q59.6006,471.4375 59.835,471.6953 Q60.0694,471.9531 60.0694,472.5625 L60.0694,474.0156 Q60.0694,474.625 59.835,474.8906 Q59.6006,475.1563 59.2256,475.1563 Q58.8819,475.1563 58.6788,474.9531 Q58.4756,474.7656 58.3663,474.25 Q58.3194,473.8906 58.1319,473.7031 Q57.8038,473.3281 57.1944,473.1094 Q56.585,472.8906 55.96,472.8906 Q55.1944,472.8906 54.5616,473.2188 Q53.9288,473.5469 53.4366,474.2969 Q52.9444,475.0469 52.9444,476.0781 L52.9444,477.1719 Q52.9444,478.4063 53.835,479.2266 Q54.7256,480.0469 56.3194,480.0469 Q57.2569,480.0469 57.9131,479.7969 Q58.3038,479.6406 58.7256,479.2031 Q58.9913,478.9375 59.1397,478.8594 Q59.2881,478.7813 59.4913,478.7813 Q59.8194,478.7813 60.0772,479.0391 Q60.335,479.2969 60.335,479.6406 Q60.335,479.9844 59.9913,480.3906 Q59.4913,480.9688 58.6944,481.2969 Q57.6163,481.75 56.3194,481.75 Q54.8038,481.75 53.6006,481.125 Q52.6163,480.625 51.9288,479.5547 Q51.2413,478.4844 51.2413,477.2031 L51.2413,476.0469 Q51.2413,474.7188 51.8584,473.5703 Q52.4756,472.4219 53.5694,471.8047 Q54.6631,471.1875 55.8975,471.1875 Q56.6319,471.1875 57.2803,471.3516 Q57.9288,471.5156 58.4756,471.875 Z " fill="#000000"/><text fill="#000000" font-family="sans-serif" font-size="14" lengthAdjust="spacing" textLength="79" x="69.71" y="481.7285">TaxonGroup</text></g><!--class ReferenceTaxon--><g id="elem_ReferenceTaxon"><rect fill="#F1F1F1" height="32" id="ReferenceTaxon" rx="2.5" ry="2.5" style="stroke:#181818;stroke-width:0.5;" width="137" x="535.71" y="460"/><ellipse cx="550.71" cy="476" fill="#ADD1B2" rx="11" ry="11" style="stroke:#181818;stroke-width:1.0;"/><path d="M553.4756,471.875 Q553.6319,471.6563 553.8194,471.5469 Q554.0069,471.4375 554.2256,471.4375 Q554.6006,471.4375 554.835,471.6953 Q555.0694,471.9531 555.0694,472.5625 L555.0694,474.0156 Q555.0694,474.625 554.835,474.8906 Q554.6006,475.1563 554.2256,475.1563 Q553.8819,475.1563 553.6788,474.9531 Q553.4756,474.7656 553.3663,474.25 Q553.3194,473.8906 553.1319,473.7031 Q552.8038,473.3281 552.1944,473.1094 Q551.585,472.8906 550.96,472.8906 Q550.1944,472.8906 549.5616,473.2188 Q548.9288,473.5469 548.4366,474.2969 Q547.9444,475.0469 547.9444,476.0781 L547.9444,477.1719 Q547.9444,478.4063 548.835,479.2266 Q549.7256,480.0469 551.3194,480.0469 Q552.2569,480.0469 552.9131,479.7969 Q553.3038,479.6406 553.7256,479.2031 Q553.9913,478.9375 554.1397,478.8594 Q554.2881,478.7813 554.4913,478.7813 Q554.8194,478.7813 555.0772,479.0391 Q555.335,479.2969 555.335,479.6406 Q555.335,479.9844 554.9913,480.3906 Q554.4913,480.9688 553.6944,481.2969 Q552.6163,481.75 551.3194,481.75 Q549.8038,481.75 548.6006,481.125 Q547.6163,480.625 546.9288,479.5547 Q546.2413,478.4844 546.2413,477.2031 L546.2413,476.0469 Q546.2413,474.7188 546.8584,473.5703 Q547.4756,472.4219 548.5694,471.8047 Q549.6631,471.1875 550.8975,471.1875 Q551.6319,471.1875 552.2803,471.3516 Q552.9288,471.5156 553.4756,471.875 Z " fill="#000000"/><text fill="#000000" font-family="sans-serif" font-size="14" lengthAdjust="spacing" textLength="105" x="564.71" y="481.7285">ReferenceTaxon</text></g><!--class Gear--><g id="elem_Gear"><rect fill="#F1F1F1" height="32" id="Gear" rx="2.5" ry="2.5" style="stroke:#181818;stroke-width:0.5;" width="64" x="313.21" y="460"/><ellipse cx="328.21" cy="476" fill="#ADD1B2" rx="11" ry="11" style="stroke:#181818;stroke-width:1.0;"/><path d="M330.9756,471.875 Q331.1319,471.6563 331.3194,471.5469 Q331.5069,471.4375 331.7256,471.4375 Q332.1006,471.4375 332.335,471.6953 Q332.5694,471.9531 332.5694,472.5625 L332.5694,474.0156 Q332.5694,474.625 332.335,474.8906 Q332.1006,475.1563 331.7256,475.1563 Q331.3819,475.1563 331.1788,474.9531 Q330.9756,474.7656 330.8663,474.25 Q330.8194,473.8906 330.6319,473.7031 Q330.3038,473.3281 329.6944,473.1094 Q329.085,472.8906 328.46,472.8906 Q327.6944,472.8906 327.0616,473.2188 Q326.4288,473.5469 325.9366,474.2969 Q325.4444,475.0469 325.4444,476.0781 L325.4444,477.1719 Q325.4444,478.4063 326.335,479.2266 Q327.2256,480.0469 328.8194,480.0469 Q329.7569,480.0469 330.4131,479.7969 Q330.8038,479.6406 331.2256,479.2031 Q331.4913,478.9375 331.6397,478.8594 Q331.7881,478.7813 331.9913,478.7813 Q332.3194,478.7813 332.5772,479.0391 Q332.835,479.2969 332.835,479.6406 Q332.835,479.9844 332.4913,480.3906 Q331.9913,480.9688 331.1944,481.2969 Q330.1163,481.75 328.8194,481.75 Q327.3038,481.75 326.1006,481.125 Q325.1163,480.625 324.4288,479.5547 Q323.7413,478.4844 323.7413,477.2031 L323.7413,476.0469 Q323.7413,474.7188 324.3584,473.5703 Q324.9756,472.4219 326.0694,471.8047 Q327.1631,471.1875 328.3975,471.1875 Q329.1319,471.1875 329.7803,471.3516 Q330.4288,471.5156 330.9756,471.875 Z " fill="#000000"/><text fill="#000000" font-family="sans-serif" font-size="14" lengthAdjust="spacing" textLength="32" x="342.21" y="481.7285">Gear</text></g><!--class PmfmStrategy--><g id="elem_PmfmStrategy"><rect codeLine="18" fill="#F1F1F1" height="163.2656" id="PmfmStrategy" rx="2.5" ry="2.5" style="stroke:#181818;stroke-width:0.5;" width="248" x="305.21" y="236"/><ellipse cx="380.96" cy="252" fill="#ADD1B2" rx="11" ry="11" style="stroke:#181818;stroke-width:1.0;"/><path d="M383.7256,247.875 Q383.8819,247.6563 384.0694,247.5469 Q384.2569,247.4375 384.4756,247.4375 Q384.8506,247.4375 385.085,247.6953 Q385.3194,247.9531 385.3194,248.5625 L385.3194,250.0156 Q385.3194,250.625 385.085,250.8906 Q384.8506,251.1563 384.4756,251.1563 Q384.1319,251.1563 383.9288,250.9531 Q383.7256,250.7656 383.6163,250.25 Q383.5694,249.8906 383.3819,249.7031 Q383.0538,249.3281 382.4444,249.1094 Q381.835,248.8906 381.21,248.8906 Q380.4444,248.8906 379.8116,249.2188 Q379.1788,249.5469 378.6866,250.2969 Q378.1944,251.0469 378.1944,252.0781 L378.1944,253.1719 Q378.1944,254.4063 379.085,255.2266 Q379.9756,256.0469 381.5694,256.0469 Q382.5069,256.0469 383.1631,255.7969 Q383.5538,255.6406 383.9756,255.2031 Q384.2413,254.9375 384.3897,254.8594 Q384.5381,254.7813 384.7413,254.7813 Q385.0694,254.7813 385.3272,255.0391 Q385.585,255.2969 385.585,255.6406 Q385.585,255.9844 385.2413,256.3906 Q384.7413,256.9688 383.9444,257.2969 Q382.8663,257.75 381.5694,257.75 Q380.0538,257.75 378.8506,257.125 Q377.8663,256.625 377.1788,255.5547 Q376.4913,254.4844 376.4913,253.2031 L376.4913,252.0469 Q376.4913,250.7188 377.1084,249.5703 Q377.7256,248.4219 378.8194,247.8047 Q379.9131,247.1875 381.1475,247.1875 Q381.8819,247.1875 382.5303,247.3516 Q383.1788,247.5156 383.7256,247.875 Z " fill="#000000"/><text fill="#000000" font-family="sans-serif" font-size="14" lengthAdjust="spacing" textLength="88" x="401.46" y="257.7285">PmfmStrategy</text><line style="stroke:#181818;stroke-width:0.5;" x1="306.21" x2="552.21" y1="268" y2="268"/><ellipse cx="316.21" cy="282.3047" fill="none" rx="3" ry="3" style="stroke:#038048;stroke-width:1.0;"/><text fill="#000000" font-family="sans-serif" font-size="14" lengthAdjust="spacing" textLength="149" x="325.21" y="286.5332">minValue [0..1] : double</text><ellipse cx="316.21" cy="299.9141" fill="none" rx="3" ry="3" style="stroke:#038048;stroke-width:1.0;"/><text fill="#000000" font-family="sans-serif" font-size="14" lengthAdjust="spacing" textLength="152" x="325.21" y="304.1426">maxValue [0..1] : double</text><ellipse cx="316.21" cy="317.5234" fill="none" rx="3" ry="3" style="stroke:#038048;stroke-width:1.0;"/><text fill="#000000" font-family="sans-serif" font-size="14" lengthAdjust="spacing" textLength="170" x="325.21" y="321.752">defaultValue [0..1] : double</text><ellipse cx="316.21" cy="335.1328" fill="none" rx="3" ry="3" style="stroke:#038048;stroke-width:1.0;"/><text fill="#000000" font-family="sans-serif" font-size="14" lengthAdjust="spacing" textLength="168" x="325.21" y="339.3613">acquisitionNumber: integer</text><ellipse cx="316.21" cy="352.7422" fill="none" rx="3" ry="3" style="stroke:#038048;stroke-width:1.0;"/><text fill="#000000" font-family="sans-serif" font-size="14" lengthAdjust="spacing" textLength="117" x="325.21" y="356.9707">rankOrder: integer</text><ellipse cx="316.21" cy="370.3516" fill="none" rx="3" ry="3" style="stroke:#038048;stroke-width:1.0;"/><text fill="#000000" font-family="sans-serif" font-size="14" lengthAdjust="spacing" textLength="140" x="325.21" y="374.5801">isMandatory : boolean</text><ellipse cx="316.21" cy="387.9609" fill="none" rx="3" ry="3" style="stroke:#038048;stroke-width:1.0;"/><text fill="#000000" font-family="sans-serif" font-size="14" lengthAdjust="spacing" textLength="222" x="325.21" y="392.1895">signifFiguresNumber [0..1] : integer</text></g><!--class Pmfm--><g id="elem_Pmfm"><rect fill="#F1F1F1" height="32" id="Pmfm" rx="2.5" ry="2.5" style="stroke:#181818;stroke-width:0.5;" width="67" x="605.71" y="301.5"/><ellipse cx="620.71" cy="317.5" fill="#ADD1B2" rx="11" ry="11" style="stroke:#181818;stroke-width:1.0;"/><path d="M623.4756,313.375 Q623.6319,313.1563 623.8194,313.0469 Q624.0069,312.9375 624.2256,312.9375 Q624.6006,312.9375 624.835,313.1953 Q625.0694,313.4531 625.0694,314.0625 L625.0694,315.5156 Q625.0694,316.125 624.835,316.3906 Q624.6006,316.6563 624.2256,316.6563 Q623.8819,316.6563 623.6788,316.4531 Q623.4756,316.2656 623.3663,315.75 Q623.3194,315.3906 623.1319,315.2031 Q622.8038,314.8281 622.1944,314.6094 Q621.585,314.3906 620.96,314.3906 Q620.1944,314.3906 619.5616,314.7188 Q618.9288,315.0469 618.4366,315.7969 Q617.9444,316.5469 617.9444,317.5781 L617.9444,318.6719 Q617.9444,319.9063 618.835,320.7266 Q619.7256,321.5469 621.3194,321.5469 Q622.2569,321.5469 622.9131,321.2969 Q623.3038,321.1406 623.7256,320.7031 Q623.9913,320.4375 624.1397,320.3594 Q624.2881,320.2813 624.4913,320.2813 Q624.8194,320.2813 625.0772,320.5391 Q625.335,320.7969 625.335,321.1406 Q625.335,321.4844 624.9913,321.8906 Q624.4913,322.4688 623.6944,322.7969 Q622.6163,323.25 621.3194,323.25 Q619.8038,323.25 618.6006,322.625 Q617.6163,322.125 616.9288,321.0547 Q616.2413,319.9844 616.2413,318.7031 L616.2413,317.5469 Q616.2413,316.2188 616.8584,315.0703 Q617.4756,313.9219 618.5694,313.3047 Q619.6631,312.6875 620.8975,312.6875 Q621.6319,312.6875 622.2803,312.8516 Q622.9288,313.0156 623.4756,313.375 Z " fill="#000000"/><text fill="#000000" font-family="sans-serif" font-size="14" lengthAdjust="spacing" textLength="35" x="634.71" y="323.2285">Pmfm</text></g><!--class AcquisitionLevel--><g id="elem_AcquisitionLevel"><rect fill="#F1F1F1" height="32" id="AcquisitionLevel" rx="2.5" ry="2.5" style="stroke:#181818;stroke-width:0.5;" width="134" x="136.21" y="301.5"/><ellipse cx="151.21" cy="317.5" fill="#ADD1B2" rx="11" ry="11" style="stroke:#181818;stroke-width:1.0;"/><path d="M153.9756,313.375 Q154.1319,313.1563 154.3194,313.0469 Q154.5069,312.9375 154.7256,312.9375 Q155.1006,312.9375 155.335,313.1953 Q155.5694,313.4531 155.5694,314.0625 L155.5694,315.5156 Q155.5694,316.125 155.335,316.3906 Q155.1006,316.6563 154.7256,316.6563 Q154.3819,316.6563 154.1787,316.4531 Q153.9756,316.2656 153.8662,315.75 Q153.8194,315.3906 153.6319,315.2031 Q153.3037,314.8281 152.6944,314.6094 Q152.085,314.3906 151.46,314.3906 Q150.6944,314.3906 150.0616,314.7188 Q149.4287,315.0469 148.9366,315.7969 Q148.4444,316.5469 148.4444,317.5781 L148.4444,318.6719 Q148.4444,319.9063 149.335,320.7266 Q150.2256,321.5469 151.8194,321.5469 Q152.7569,321.5469 153.4131,321.2969 Q153.8037,321.1406 154.2256,320.7031 Q154.4912,320.4375 154.6397,320.3594 Q154.7881,320.2813 154.9912,320.2813 Q155.3194,320.2813 155.5772,320.5391 Q155.835,320.7969 155.835,321.1406 Q155.835,321.4844 155.4912,321.8906 Q154.9912,322.4688 154.1944,322.7969 Q153.1162,323.25 151.8194,323.25 Q150.3037,323.25 149.1006,322.625 Q148.1162,322.125 147.4287,321.0547 Q146.7412,319.9844 146.7412,318.7031 L146.7412,317.5469 Q146.7412,316.2188 147.3584,315.0703 Q147.9756,313.9219 149.0694,313.3047 Q150.1631,312.6875 151.3975,312.6875 Q152.1319,312.6875 152.7803,312.8516 Q153.4287,313.0156 153.9756,313.375 Z " fill="#000000"/><text fill="#000000" font-family="sans-serif" font-size="14" lengthAdjust="spacing" textLength="102" x="165.21" y="323.2285">AcquisitionLevel</text></g><!--link Program to Strategy--><g id="link_Program_Strategy"><path codeLine="6" d="M180.21,51.17 C180.21,66.65 180.21,73.24 180.21,93.83 " fill="none" id="Program-Strategy" style="stroke:#181818;stroke-width:1.0;"/><polygon fill="#181818" points="180.21,39.17,176.21,45.17,180.21,51.17,184.21,45.17,180.21,39.17" style="stroke:#181818;stroke-width:1.0;"/><polygon fill="#181818" points="180.21,99.83,184.21,90.83,180.21,94.83,176.21,90.83,180.21,99.83" style="stroke:#181818;stroke-width:1.0;"/><text fill="#000000" font-family="sans-serif" font-size="13" lengthAdjust="spacing" textLength="20" x="157.0225" y="60.4253">0..*</text><text fill="#000000" font-family="sans-serif" font-size="13" lengthAdjust="spacing" textLength="7" x="172.5866" y="89.202">1</text></g><!--link Strategy to TaxonGroup--><g id="link_Strategy_TaxonGroup"><path codeLine="13" d="M137.44,149.31 C109.26,158.9 74.48,176.02 57.21,205 C6,290.9 22.26,336.31 57.21,430 C61.47,441.43 65.8209,447.664 73.8709,455.614 " fill="none" id="Strategy-to-TaxonGroup" style="stroke:#181818;stroke-width:1.0;"/><polygon fill="#181818" points="78.14,459.83,74.5471,450.6599,74.5824,456.3166,68.9257,456.352,78.14,459.83" style="stroke:#181818;stroke-width:1.0;"/><text fill="#000000" font-family="sans-serif" font-size="13" lengthAdjust="spacing" textLength="20" x="48.4909" y="449.0771">0..*</text></g><!--link Strategy to ReferenceTaxon--><g id="link_Strategy_ReferenceTaxon"><path codeLine="14" d="M222.98,139.96 C334.71,144.77 630.82,164.19 690.21,236 C736.37,291.83 719.98,332.96 690.21,399 C678.17,425.7 656.6493,443.559 636.2093,456.679 " fill="none" id="Strategy-to-ReferenceTaxon" style="stroke:#181818;stroke-width:1.0;"/><polygon fill="#181818" points="631.16,459.92,640.8947,458.4246,635.3678,457.2191,636.5733,451.6922,631.16,459.92" style="stroke:#181818;stroke-width:1.0;"/><text fill="#000000" font-family="sans-serif" font-size="13" lengthAdjust="spacing" textLength="20" x="616.9866" y="449.198">0..*</text></g><!--link Strategy to Gear--><g id="link_Strategy_Gear"><path codeLine="15" d="M149.71,175.41 C137.36,192.69 124.54,214.24 118.21,236 C97.96,305.56 75.89,340.2 118.21,399 C163.12,461.4 255.6737,473.0892 306.8737,474.8892 " fill="none" id="Strategy-to-Gear" style="stroke:#181818;stroke-width:1.0;"/><polygon fill="#181818" points="312.87,475.1,304.0161,470.7863,307.8731,474.9243,303.735,478.7813,312.87,475.1" style="stroke:#181818;stroke-width:1.0;"/><text fill="#000000" font-family="sans-serif" font-size="13" lengthAdjust="spacing" textLength="20" x="285.3282" y="471.0411">0..*</text></g><!--link Strategy to PmfmStrategy--><g id="link_Strategy_PmfmStrategy"><path codeLine="29" d="M232.4912,175.8798 C258.3912,194.3998 278.1788,208.5409 311.4888,232.3509 " fill="none" id="Strategy-PmfmStrategy" style="stroke:#181818;stroke-width:1.0;"/><polygon fill="#181818" points="222.73,168.9,225.284,175.6437,232.4912,175.8798,229.9372,169.1362,222.73,168.9" style="stroke:#181818;stroke-width:1.0;"/><polygon fill="#181818" points="316.37,235.84,311.3742,227.3522,312.3023,232.9324,306.7221,233.8605,316.37,235.84" style="stroke:#181818;stroke-width:1.0;"/><text fill="#000000" font-family="sans-serif" font-size="13" lengthAdjust="spacing" textLength="7" x="230.6397" y="170.4284">1</text><text fill="#000000" font-family="sans-serif" font-size="13" lengthAdjust="spacing" textLength="20" x="285.0457" y="225.0735">0..*</text></g><!--link PmfmStrategy to Pmfm--><g id="link_PmfmStrategy_Pmfm"><path codeLine="30" d="M553.49,317.5 C572.62,317.5 584.86,317.5 599.56,317.5 " fill="none" id="PmfmStrategy-to-Pmfm" style="stroke:#181818;stroke-width:1.0;"/><polygon fill="#181818" points="605.56,317.5,596.56,313.5,600.56,317.5,596.56,321.5,605.56,317.5" style="stroke:#181818;stroke-width:1.0;"/><text fill="#000000" font-family="sans-serif" font-size="13" lengthAdjust="spacing" textLength="16" x="571.46" y="310.9951">&#160;&#160;&#160;&#160;</text><text fill="#000000" font-family="sans-serif" font-size="13" lengthAdjust="spacing" textLength="20" x="561.2531" y="331.4601">0..*</text><text fill="#000000" font-family="sans-serif" font-size="13" lengthAdjust="spacing" textLength="7" x="590.8978" y="313.3814">1</text></g><!--reverse link AcquisitionLevel to PmfmStrategy--><g id="link_AcquisitionLevel_PmfmStrategy"><path codeLine="31" d="M276.3,317.5 C287.89,317.5 293.47,317.5 305.06,317.5 " fill="none" id="AcquisitionLevel-backto-PmfmStrategy" style="stroke:#181818;stroke-width:1.0;"/><polygon fill="#181818" points="270.3,317.5,279.3,321.5,275.3,317.5,279.3,313.5,270.3,317.5" style="stroke:#181818;stroke-width:1.0;"/><text fill="#000000" font-family="sans-serif" font-size="13" lengthAdjust="spacing" textLength="7" x="278.0208" y="314.1393">1</text><text fill="#000000" font-family="sans-serif" font-size="13" lengthAdjust="spacing" textLength="20" x="278.2242" y="314.4445">0..*</text></g><!--link PmfmStrategy to TaxonGroup--><g id="link_PmfmStrategy_TaxonGroup"><path codeLine="33" d="M305.04,390.16 C299.05,393.22 293.08,396.18 287.21,399 C237.49,422.84 183.857,443.5346 144.667,457.8246 " fill="none" id="PmfmStrategy-to-TaxonGroup" style="stroke:#181818;stroke-width:1.0;"/><polygon fill="#181818" points="139.03,459.88,148.8557,460.5548,143.7275,458.1671,146.1151,453.0389,139.03,459.88" style="stroke:#181818;stroke-width:1.0;"/><text fill="#000000" font-family="sans-serif" font-size="13" lengthAdjust="spacing" textLength="20" x="130.3119" y="449.1443">0..*</text></g><!--link PmfmStrategy to ReferenceTaxon--><g id="link_PmfmStrategy_ReferenceTaxon"><path codeLine="34" d="M519.27,399.04 C545.4,422.41 566.7478,441.5001 582.9378,455.9801 " fill="none" id="PmfmStrategy-to-ReferenceTaxon" style="stroke:#181818;stroke-width:1.0;"/><polygon fill="#181818" points="587.41,459.98,583.3682,450.9987,583.6831,456.6468,578.035,456.9617,587.41,459.98" style="stroke:#181818;stroke-width:1.0;"/><text fill="#000000" font-family="sans-serif" font-size="13" lengthAdjust="spacing" textLength="20" x="558.1975" y="449.2787">0..*</text></g><!--link PmfmStrategy to Gear--><g id="link_PmfmStrategy_Gear"><path codeLine="35" d="M385.98,399.04 C373.43,422.41 363.877,440.2131 356.107,454.6931 " fill="none" id="PmfmStrategy-to-Gear" style="stroke:#181818;stroke-width:1.0;"/><polygon fill="#181818" points="353.27,459.98,361.0501,453.9409,355.6341,455.5742,354.0008,450.1583,353.27,459.98" style="stroke:#181818;stroke-width:1.0;"/><text fill="#000000" font-family="sans-serif" font-size="13" lengthAdjust="spacing" textLength="20" x="332.6031" y="449.2787">0..*</text></g></g></svg>