<?xml version="1.0" encoding="us-ascii" standalone="no"?><svg xmlns="http://www.w3.org/2000/svg" xmlns:xlink="http://www.w3.org/1999/xlink" contentStyleType="text/css" height="1157px" preserveAspectRatio="none" style="width:1785px;height:1157px;background:#FFFFFF;" version="1.1" viewBox="0 0 1785 1157" width="1785px" zoomAndPan="magnify"><defs/><g><!--cluster DB--><g id="cluster_DB"><path d="M1254,939 C1254,929 1511,929 1511,929 C1511,929 1768,929 1768,939 L1768,1107 C1768,1117 1511,1117 1511,1117 C1511,1117 1254,1117 1254,1107 L1254,939 " fill="#ADD8E6" style="stroke:#181818;stroke-width:1.0;"/><path d="M1254,939 C1254,949 1511,949 1511,949 C1511,949 1768,949 1768,939 " fill="none" style="stroke:#181818;stroke-width:1.0;"/><text fill="#000000" font-family="sans-serif" font-size="14" font-weight="bold" lengthAdjust="spacing" textLength="20" x="1501" y="965.5332">DB</text></g><!--cluster net--><g id="cluster_net"><path d="M8.5,99 L32.5,99 A3.75,3.75 0 0 1 35,101.5 L42,122.6094 L1219.5,122.6094 A2.5,2.5 0 0 1 1222,125.1094 L1222,1147.5 A2.5,2.5 0 0 1 1219.5,1150 L8.5,1150 A2.5,2.5 0 0 1 6,1147.5 L6,101.5 A2.5,2.5 0 0 1 8.5,99 " fill="none" style="stroke:#000000;stroke-width:1.5;"/><line style="stroke:#000000;stroke-width:1.5;" x1="6" x2="42" y1="122.6094" y2="122.6094"/><text fill="#000000" font-family="sans-serif" font-size="14" font-weight="bold" lengthAdjust="spacing" textLength="23" x="10" y="115.5332">net</text></g><!--cluster sumaris--><g id="cluster_sumaris"><path d="M32.5,143 L88.5,143 A3.75,3.75 0 0 1 91,145.5 L98,166.6094 L1195.5,166.6094 A2.5,2.5 0 0 1 1198,169.1094 L1198,1123.5 A2.5,2.5 0 0 1 1195.5,1126 L32.5,1126 A2.5,2.5 0 0 1 30,1123.5 L30,145.5 A2.5,2.5 0 0 1 32.5,143 " fill="none" style="stroke:#000000;stroke-width:1.5;"/><line style="stroke:#000000;stroke-width:1.5;" x1="30" x2="98" y1="166.6094" y2="166.6094"/><text fill="#000000" font-family="sans-serif" font-size="14" font-weight="bold" lengthAdjust="spacing" textLength="55" x="34" y="159.5332">sumaris</text></g><!--cluster core--><g id="cluster_core"><path d="M56.5,415 L89.5,415 A3.75,3.75 0 0 1 92,417.5 L99,438.6094 L1171.5,438.6094 A2.5,2.5 0 0 1 1174,441.1094 L1174,1099.5 A2.5,2.5 0 0 1 1171.5,1102 L56.5,1102 A2.5,2.5 0 0 1 54,1099.5 L54,417.5 A2.5,2.5 0 0 1 56.5,415 " fill="none" style="stroke:#000000;stroke-width:1.5;"/><line style="stroke:#000000;stroke-width:1.5;" x1="54" x2="99" y1="438.6094" y2="438.6094"/><text fill="#000000" font-family="sans-serif" font-size="14" font-weight="bold" lengthAdjust="spacing" textLength="32" x="58" y="431.5332">core</text></g><!--cluster model--><g id="cluster_model"><path d="M80.5,677 L124.5,677 A3.75,3.75 0 0 1 127,679.5 L134,700.6094 L334.5,700.6094 A2.5,2.5 0 0 1 337,703.1094 L337,1075.5 A2.5,2.5 0 0 1 334.5,1078 L80.5,1078 A2.5,2.5 0 0 1 78,1075.5 L78,679.5 A2.5,2.5 0 0 1 80.5,677 " fill="none" style="stroke:#000000;stroke-width:1.5;"/><line style="stroke:#000000;stroke-width:1.5;" x1="78" x2="134" y1="700.6094" y2="700.6094"/><text fill="#000000" font-family="sans-serif" font-size="14" font-weight="bold" lengthAdjust="spacing" textLength="43" x="82" y="693.5332">model</text></g><!--cluster dao--><g id="cluster_dao"><path d="M749.5,467 L776.5,467 A3.75,3.75 0 0 1 779,469.5 L786,490.6094 L1139.5,490.6094 A2.5,2.5 0 0 1 1142,493.1094 L1142,812 A2.5,2.5 0 0 1 1139.5,814.5 L749.5,814.5 A2.5,2.5 0 0 1 747,812 L747,469.5 A2.5,2.5 0 0 1 749.5,467 " fill="none" style="stroke:#000000;stroke-width:1.5;"/><line style="stroke:#000000;stroke-width:1.5;" x1="747" x2="786" y1="490.6094" y2="490.6094"/><text fill="#000000" font-family="sans-serif" font-size="14" font-weight="bold" lengthAdjust="spacing" textLength="26" x="751" y="483.5332">dao</text></g><!--cluster service--><g id="cluster_service"><path d="M371.5,500.5 L425.5,500.5 A3.75,3.75 0 0 1 428,503 L435,524.1094 L720.5,524.1094 A2.5,2.5 0 0 1 723,526.6094 L723,593 A2.5,2.5 0 0 1 720.5,595.5 L371.5,595.5 A2.5,2.5 0 0 1 369,593 L369,503 A2.5,2.5 0 0 1 371.5,500.5 " fill="none" style="stroke:#000000;stroke-width:1.5;"/><line style="stroke:#000000;stroke-width:1.5;" x1="369" x2="435" y1="524.1094" y2="524.1094"/><text fill="#000000" font-family="sans-serif" font-size="14" font-weight="bold" lengthAdjust="spacing" textLength="53" x="373" y="517.0332">service</text></g><!--cluster server--><g id="cluster_server"><path d="M362.5,187 L410.5,187 A3.75,3.75 0 0 1 413,189.5 L420,210.6094 L739.5,210.6094 A2.5,2.5 0 0 1 742,213.1094 L742,362.5 A2.5,2.5 0 0 1 739.5,365 L362.5,365 A2.5,2.5 0 0 1 360,362.5 L360,189.5 A2.5,2.5 0 0 1 362.5,187 " fill="none" style="stroke:#000000;stroke-width:1.5;"/><line style="stroke:#000000;stroke-width:1.5;" x1="360" x2="420" y1="210.6094" y2="210.6094"/><text fill="#000000" font-family="sans-serif" font-size="14" font-weight="bold" lengthAdjust="spacing" textLength="47" x="364" y="203.5332">server</text></g><!--cluster http--><g id="cluster_http"><path d="M386.5,231 L415.5,231 A3.75,3.75 0 0 1 418,233.5 L425,254.6094 L715.5,254.6094 A2.5,2.5 0 0 1 718,257.1094 L718,338.5 A2.5,2.5 0 0 1 715.5,341 L386.5,341 A2.5,2.5 0 0 1 384,338.5 L384,233.5 A2.5,2.5 0 0 1 386.5,231 " fill="none" style="stroke:#000000;stroke-width:1.5;"/><line style="stroke:#000000;stroke-width:1.5;" x1="384" x2="425" y1="254.6094" y2="254.6094"/><text fill="#000000" font-family="sans-serif" font-size="14" font-weight="bold" lengthAdjust="spacing" textLength="28" x="388" y="247.5332">http</text></g><!--class LOCATION--><g id="elem_LOCATION"><rect codeLine="5" fill="#EEEEEE" height="121.1406" id="LOCATION" rx="2.5" ry="2.5" style="stroke:#181818;stroke-width:0.5;" width="223" x="1528.5" y="980"/><text fill="#000000" font-family="sans-serif" font-size="12" font-style="italic" lengthAdjust="spacing" textLength="46" x="1617" y="997.457">&#171;Table&#187;</text><text fill="#000000" font-family="sans-serif" font-size="14" lengthAdjust="spacing" textLength="70" x="1605" y="1014.627">LOCATION</text><line style="stroke:#181818;stroke-width:0.5;" x1="1529.5" x2="1750.5" y1="1022.7031" y2="1022.7031"/><ellipse cx="1539.5" cy="1037.0078" fill="#84BE84" rx="3" ry="3" style="stroke:#038048;stroke-width:1.0;"/><text fill="#000000" font-family="sans-serif" font-size="14" lengthAdjust="spacing" textLength="104" x="1548.5" y="1041.2363">ID: NUMBER(10)</text><ellipse cx="1539.5" cy="1054.6172" fill="#84BE84" rx="3" ry="3" style="stroke:#038048;stroke-width:1.0;"/><text fill="#000000" font-family="sans-serif" font-size="14" lengthAdjust="spacing" textLength="151" x="1548.5" y="1058.8457">LABEL: VARCHAR2(50)</text><ellipse cx="1539.5" cy="1072.2266" fill="#84BE84" rx="3" ry="3" style="stroke:#038048;stroke-width:1.0;"/><text fill="#000000" font-family="sans-serif" font-size="14" lengthAdjust="spacing" textLength="154" x="1548.5" y="1076.4551">NAME: VARCHAR2(100)</text><ellipse cx="1539.5" cy="1089.8359" fill="#84BE84" rx="3" ry="3" style="stroke:#038048;stroke-width:1.0;"/><text fill="#000000" font-family="sans-serif" font-size="14" lengthAdjust="spacing" textLength="197" x="1548.5" y="1094.0645">UPDATE_DATE: TIMESTAMP()</text></g><!--class DEPARTMENT--><g id="elem_DEPARTMENT"><rect codeLine="11" fill="#EEEEEE" height="121.1406" id="DEPARTMENT" rx="2.5" ry="2.5" style="stroke:#181818;stroke-width:0.5;" width="223" x="1270.5" y="980"/><text fill="#000000" font-family="sans-serif" font-size="12" font-style="italic" lengthAdjust="spacing" textLength="46" x="1359" y="997.457">&#171;Table&#187;</text><text fill="#000000" font-family="sans-serif" font-size="14" lengthAdjust="spacing" textLength="94" x="1335" y="1014.627">DEPARTMENT</text><line style="stroke:#181818;stroke-width:0.5;" x1="1271.5" x2="1492.5" y1="1022.7031" y2="1022.7031"/><ellipse cx="1281.5" cy="1037.0078" fill="#84BE84" rx="3" ry="3" style="stroke:#038048;stroke-width:1.0;"/><text fill="#000000" font-family="sans-serif" font-size="14" lengthAdjust="spacing" textLength="104" x="1290.5" y="1041.2363">ID: NUMBER(10)</text><ellipse cx="1281.5" cy="1054.6172" fill="#84BE84" rx="3" ry="3" style="stroke:#038048;stroke-width:1.0;"/><text fill="#000000" font-family="sans-serif" font-size="14" lengthAdjust="spacing" textLength="151" x="1290.5" y="1058.8457">LABEL: VARCHAR2(50)</text><ellipse cx="1281.5" cy="1072.2266" fill="#84BE84" rx="3" ry="3" style="stroke:#038048;stroke-width:1.0;"/><text fill="#000000" font-family="sans-serif" font-size="14" lengthAdjust="spacing" textLength="154" x="1290.5" y="1076.4551">NAME: VARCHAR2(100)</text><ellipse cx="1281.5" cy="1089.8359" fill="#84BE84" rx="3" ry="3" style="stroke:#038048;stroke-width:1.0;"/><text fill="#000000" font-family="sans-serif" font-size="14" lengthAdjust="spacing" textLength="197" x="1290.5" y="1094.0645">UPDATE_DATE: TIMESTAMP()</text></g><!--class IReferentialEntity--><g id="elem_IReferentialEntity"><rect codeLine="29" fill="#F1F1F1" height="128.0469" id="IReferentialEntity" rx="2.5" ry="2.5" style="stroke:#181818;stroke-width:0.5;" width="140" x="137" y="713"/><ellipse cx="152" cy="729" fill="#B4A7E5" rx="11" ry="11" style="stroke:#181818;stroke-width:1.0;"/><path d="M152.9531,725.6406 L152.9531,732.2969 L154.6719,732.2969 Q155.2813,732.2969 155.5469,732.5313 Q155.8125,732.7656 155.8125,733.1563 Q155.8125,733.5313 155.5469,733.7656 Q155.2813,734 154.6719,734 L149.5313,734 Q148.9219,734 148.6563,733.7656 Q148.3906,733.5313 148.3906,733.1406 Q148.3906,732.7656 148.6563,732.5313 Q148.9219,732.2969 149.5313,732.2969 L151.25,732.2969 L151.25,725.6406 L149.5313,725.6406 Q148.9219,725.6406 148.6563,725.4063 Q148.3906,725.1719 148.3906,724.7813 Q148.3906,724.4063 148.6563,724.1719 Q148.9219,723.9375 149.5313,723.9375 L154.6719,723.9375 Q155.2813,723.9375 155.5469,724.1719 Q155.8125,724.4063 155.8125,724.7813 Q155.8125,725.1719 155.5469,725.4063 Q155.2813,725.6406 154.6719,725.6406 L152.9531,725.6406 Z " fill="#000000"/><text fill="#000000" font-family="sans-serif" font-size="14" font-style="italic" lengthAdjust="spacing" textLength="108" x="166" y="734.7285">IReferentialEntity</text><line style="stroke:#181818;stroke-width:0.5;" x1="138" x2="276" y1="745" y2="745"/><ellipse cx="148" cy="759.3047" fill="none" rx="3" ry="3" style="stroke:#038048;stroke-width:1.0;"/><text fill="#000000" font-family="sans-serif" font-size="14" lengthAdjust="spacing" textLength="11" x="157" y="763.5332">id</text><ellipse cx="148" cy="776.9141" fill="none" rx="3" ry="3" style="stroke:#038048;stroke-width:1.0;"/><text fill="#000000" font-family="sans-serif" font-size="14" lengthAdjust="spacing" textLength="30" x="157" y="781.1426">label</text><ellipse cx="148" cy="794.5234" fill="none" rx="3" ry="3" style="stroke:#038048;stroke-width:1.0;"/><text fill="#000000" font-family="sans-serif" font-size="14" lengthAdjust="spacing" textLength="35" x="157" y="798.752">name</text><ellipse cx="148" cy="812.1328" fill="none" rx="3" ry="3" style="stroke:#038048;stroke-width:1.0;"/><text fill="#000000" font-family="sans-serif" font-size="14" lengthAdjust="spacing" textLength="74" x="157" y="816.3613">updateDate</text><ellipse cx="148" cy="829.7422" fill="none" rx="3" ry="3" style="stroke:#038048;stroke-width:1.0;"/><text fill="#000000" font-family="sans-serif" font-size="14" lengthAdjust="spacing" textLength="81" x="157" y="833.9707">creationDate</text></g><!--class Department--><g id="elem_Department"><rect codeLine="36" fill="#F1F1F1" height="42.7031" id="Department" rx="2.5" ry="2.5" style="stroke:#181818;stroke-width:0.5;" width="106" x="94" y="1019"/><ellipse cx="109" cy="1040.3516" fill="#ADD1B2" rx="11" ry="11" style="stroke:#181818;stroke-width:1.0;"/><path d="M111.7656,1036.2266 Q111.9219,1036.0078 112.1094,1035.8984 Q112.2969,1035.7891 112.5156,1035.7891 Q112.8906,1035.7891 113.125,1036.0469 Q113.3594,1036.3047 113.3594,1036.9141 L113.3594,1038.3672 Q113.3594,1038.9766 113.125,1039.2422 Q112.8906,1039.5078 112.5156,1039.5078 Q112.1719,1039.5078 111.9688,1039.3047 Q111.7656,1039.1172 111.6563,1038.6016 Q111.6094,1038.2422 111.4219,1038.0547 Q111.0938,1037.6797 110.4844,1037.4609 Q109.875,1037.2422 109.25,1037.2422 Q108.4844,1037.2422 107.8516,1037.5703 Q107.2188,1037.8984 106.7266,1038.6484 Q106.2344,1039.3984 106.2344,1040.4297 L106.2344,1041.5234 Q106.2344,1042.7578 107.125,1043.5781 Q108.0156,1044.3984 109.6094,1044.3984 Q110.5469,1044.3984 111.2031,1044.1484 Q111.5938,1043.9922 112.0156,1043.5547 Q112.2813,1043.2891 112.4297,1043.2109 Q112.5781,1043.1328 112.7813,1043.1328 Q113.1094,1043.1328 113.3672,1043.3906 Q113.625,1043.6484 113.625,1043.9922 Q113.625,1044.3359 113.2813,1044.7422 Q112.7813,1045.3203 111.9844,1045.6484 Q110.9063,1046.1016 109.6094,1046.1016 Q108.0938,1046.1016 106.8906,1045.4766 Q105.9063,1044.9766 105.2188,1043.9063 Q104.5313,1042.8359 104.5313,1041.5547 L104.5313,1040.3984 Q104.5313,1039.0703 105.1484,1037.9219 Q105.7656,1036.7734 106.8594,1036.1563 Q107.9531,1035.5391 109.1875,1035.5391 Q109.9219,1035.5391 110.5703,1035.7031 Q111.2188,1035.8672 111.7656,1036.2266 Z " fill="#000000"/><text fill="#000000" font-family="sans-serif" font-size="12" font-style="italic" lengthAdjust="spacing" textLength="44" x="138" y="1036.457">&#171;Entity&#187;</text><text fill="#000000" font-family="sans-serif" font-size="14" lengthAdjust="spacing" textLength="74" x="123" y="1053.627">Department</text></g><!--class Location--><g id="elem_Location"><rect codeLine="37" fill="#F1F1F1" height="42.7031" id="Location" rx="2.5" ry="2.5" style="stroke:#181818;stroke-width:0.5;" width="86" x="235" y="1019"/><ellipse cx="250" cy="1040.3516" fill="#ADD1B2" rx="11" ry="11" style="stroke:#181818;stroke-width:1.0;"/><path d="M252.7656,1036.2266 Q252.9219,1036.0078 253.1094,1035.8984 Q253.2969,1035.7891 253.5156,1035.7891 Q253.8906,1035.7891 254.125,1036.0469 Q254.3594,1036.3047 254.3594,1036.9141 L254.3594,1038.3672 Q254.3594,1038.9766 254.125,1039.2422 Q253.8906,1039.5078 253.5156,1039.5078 Q253.1719,1039.5078 252.9688,1039.3047 Q252.7656,1039.1172 252.6563,1038.6016 Q252.6094,1038.2422 252.4219,1038.0547 Q252.0938,1037.6797 251.4844,1037.4609 Q250.875,1037.2422 250.25,1037.2422 Q249.4844,1037.2422 248.8516,1037.5703 Q248.2188,1037.8984 247.7266,1038.6484 Q247.2344,1039.3984 247.2344,1040.4297 L247.2344,1041.5234 Q247.2344,1042.7578 248.125,1043.5781 Q249.0156,1044.3984 250.6094,1044.3984 Q251.5469,1044.3984 252.2031,1044.1484 Q252.5938,1043.9922 253.0156,1043.5547 Q253.2813,1043.2891 253.4297,1043.2109 Q253.5781,1043.1328 253.7813,1043.1328 Q254.1094,1043.1328 254.3672,1043.3906 Q254.625,1043.6484 254.625,1043.9922 Q254.625,1044.3359 254.2813,1044.7422 Q253.7813,1045.3203 252.9844,1045.6484 Q251.9063,1046.1016 250.6094,1046.1016 Q249.0938,1046.1016 247.8906,1045.4766 Q246.9063,1044.9766 246.2188,1043.9063 Q245.5313,1042.8359 245.5313,1041.5547 L245.5313,1040.3984 Q245.5313,1039.0703 246.1484,1037.9219 Q246.7656,1036.7734 247.8594,1036.1563 Q248.9531,1035.5391 250.1875,1035.5391 Q250.9219,1035.5391 251.5703,1035.7031 Q252.2188,1035.8672 252.7656,1036.2266 Z " fill="#000000"/><text fill="#000000" font-family="sans-serif" font-size="12" font-style="italic" lengthAdjust="spacing" textLength="44" x="269" y="1036.457">&#171;Entity&#187;</text><text fill="#000000" font-family="sans-serif" font-size="14" lengthAdjust="spacing" textLength="54" x="264" y="1053.627">Location</text></g><!--class JpaRepository--><g id="elem_JpaRepository"><rect codeLine="45" fill="#F1F1F1" height="110.4375" id="JpaRepository" rx="2.5" ry="2.5" style="stroke:#181818;stroke-width:0.5;" width="173" x="857.5" y="503"/><ellipse cx="895" cy="519" fill="#B4A7E5" rx="11" ry="11" style="stroke:#181818;stroke-width:1.0;"/><path d="M895.9531,515.6406 L895.9531,522.2969 L897.6719,522.2969 Q898.2813,522.2969 898.5469,522.5313 Q898.8125,522.7656 898.8125,523.1563 Q898.8125,523.5313 898.5469,523.7656 Q898.2813,524 897.6719,524 L892.5313,524 Q891.9219,524 891.6563,523.7656 Q891.3906,523.5313 891.3906,523.1406 Q891.3906,522.7656 891.6563,522.5313 Q891.9219,522.2969 892.5313,522.2969 L894.25,522.2969 L894.25,515.6406 L892.5313,515.6406 Q891.9219,515.6406 891.6563,515.4063 Q891.3906,515.1719 891.3906,514.7813 Q891.3906,514.4063 891.6563,514.1719 Q891.9219,513.9375 892.5313,513.9375 L897.6719,513.9375 Q898.2813,513.9375 898.5469,514.1719 Q898.8125,514.4063 898.8125,514.7813 Q898.8125,515.1719 898.5469,515.4063 Q898.2813,515.6406 897.6719,515.6406 L895.9531,515.6406 Z " fill="#000000"/><text fill="#000000" font-family="sans-serif" font-size="14" font-style="italic" lengthAdjust="spacing" textLength="91" x="914" y="524.7285">JpaRepository</text><line style="stroke:#181818;stroke-width:0.5;" x1="858.5" x2="1029.5" y1="535" y2="535"/><ellipse cx="868.5" cy="549.3047" fill="#84BE84" rx="3" ry="3" style="stroke:#038048;stroke-width:1.0;"/><text fill="#000000" font-family="sans-serif" font-size="14" lengthAdjust="spacing" textLength="147" x="877.5" y="553.5332">findAll(filter: F): List&lt;V&gt;</text><ellipse cx="868.5" cy="566.9141" fill="#84BE84" rx="3" ry="3" style="stroke:#038048;stroke-width:1.0;"/><text fill="#000000" font-family="sans-serif" font-size="14" lengthAdjust="spacing" textLength="79" x="877.5" y="571.1426">get(id: ID): V</text><ellipse cx="868.5" cy="584.5234" fill="#84BE84" rx="3" ry="3" style="stroke:#038048;stroke-width:1.0;"/><text fill="#000000" font-family="sans-serif" font-size="14" lengthAdjust="spacing" textLength="102" x="877.5" y="588.752">save(data: V): V</text><ellipse cx="868.5" cy="602.1328" fill="#84BE84" rx="3" ry="3" style="stroke:#038048;stroke-width:1.0;"/><text fill="#000000" font-family="sans-serif" font-size="14" lengthAdjust="spacing" textLength="83" x="877.5" y="606.3613">delete(id: int)</text></g><!--class DepartmentRepository--><g id="elem_DepartmentRepository"><rect codeLine="52" fill="#F1F1F1" height="42.7031" id="DepartmentRepository" rx="2.5" ry="2.5" style="stroke:#181818;stroke-width:0.5;" width="174" x="763" y="755.5"/><ellipse cx="778" cy="776.8516" fill="#ADD1B2" rx="11" ry="11" style="stroke:#181818;stroke-width:1.0;"/><path d="M780.7656,772.7266 Q780.9219,772.5078 781.1094,772.3984 Q781.2969,772.2891 781.5156,772.2891 Q781.8906,772.2891 782.125,772.5469 Q782.3594,772.8047 782.3594,773.4141 L782.3594,774.8672 Q782.3594,775.4766 782.125,775.7422 Q781.8906,776.0078 781.5156,776.0078 Q781.1719,776.0078 780.9688,775.8047 Q780.7656,775.6172 780.6563,775.1016 Q780.6094,774.7422 780.4219,774.5547 Q780.0938,774.1797 779.4844,773.9609 Q778.875,773.7422 778.25,773.7422 Q777.4844,773.7422 776.8516,774.0703 Q776.2188,774.3984 775.7266,775.1484 Q775.2344,775.8984 775.2344,776.9297 L775.2344,778.0234 Q775.2344,779.2578 776.125,780.0781 Q777.0156,780.8984 778.6094,780.8984 Q779.5469,780.8984 780.2031,780.6484 Q780.5938,780.4922 781.0156,780.0547 Q781.2813,779.7891 781.4297,779.7109 Q781.5781,779.6328 781.7813,779.6328 Q782.1094,779.6328 782.3672,779.8906 Q782.625,780.1484 782.625,780.4922 Q782.625,780.8359 782.2813,781.2422 Q781.7813,781.8203 780.9844,782.1484 Q779.9063,782.6016 778.6094,782.6016 Q777.0938,782.6016 775.8906,781.9766 Q774.9063,781.4766 774.2188,780.4063 Q773.5313,779.3359 773.5313,778.0547 L773.5313,776.8984 Q773.5313,775.5703 774.1484,774.4219 Q774.7656,773.2734 775.8594,772.6563 Q776.9531,772.0391 778.1875,772.0391 Q778.9219,772.0391 779.5703,772.2031 Q780.2188,772.3672 780.7656,772.7266 Z " fill="#000000"/><text fill="#000000" font-family="sans-serif" font-size="12" font-style="italic" lengthAdjust="spacing" textLength="73" x="826.5" y="772.957">&#171;Repository&#187;</text><text fill="#000000" font-family="sans-serif" font-size="14" lengthAdjust="spacing" textLength="142" x="792" y="790.127">DepartmentRepository</text></g><!--class LocationRepository--><g id="elem_LocationRepository"><rect codeLine="54" fill="#F1F1F1" height="42.7031" id="LocationRepository" rx="2.5" ry="2.5" style="stroke:#181818;stroke-width:0.5;" width="154" x="972" y="755.5"/><ellipse cx="987" cy="776.8516" fill="#ADD1B2" rx="11" ry="11" style="stroke:#181818;stroke-width:1.0;"/><path d="M989.7656,772.7266 Q989.9219,772.5078 990.1094,772.3984 Q990.2969,772.2891 990.5156,772.2891 Q990.8906,772.2891 991.125,772.5469 Q991.3594,772.8047 991.3594,773.4141 L991.3594,774.8672 Q991.3594,775.4766 991.125,775.7422 Q990.8906,776.0078 990.5156,776.0078 Q990.1719,776.0078 989.9688,775.8047 Q989.7656,775.6172 989.6563,775.1016 Q989.6094,774.7422 989.4219,774.5547 Q989.0938,774.1797 988.4844,773.9609 Q987.875,773.7422 987.25,773.7422 Q986.4844,773.7422 985.8516,774.0703 Q985.2188,774.3984 984.7266,775.1484 Q984.2344,775.8984 984.2344,776.9297 L984.2344,778.0234 Q984.2344,779.2578 985.125,780.0781 Q986.0156,780.8984 987.6094,780.8984 Q988.5469,780.8984 989.2031,780.6484 Q989.5938,780.4922 990.0156,780.0547 Q990.2813,779.7891 990.4297,779.7109 Q990.5781,779.6328 990.7813,779.6328 Q991.1094,779.6328 991.3672,779.8906 Q991.625,780.1484 991.625,780.4922 Q991.625,780.8359 991.2813,781.2422 Q990.7813,781.8203 989.9844,782.1484 Q988.9063,782.6016 987.6094,782.6016 Q986.0938,782.6016 984.8906,781.9766 Q983.9063,781.4766 983.2188,780.4063 Q982.5313,779.3359 982.5313,778.0547 L982.5313,776.8984 Q982.5313,775.5703 983.1484,774.4219 Q983.7656,773.2734 984.8594,772.6563 Q985.9531,772.0391 987.1875,772.0391 Q987.9219,772.0391 988.5703,772.2031 Q989.2188,772.3672 989.7656,772.7266 Z " fill="#000000"/><text fill="#000000" font-family="sans-serif" font-size="12" font-style="italic" lengthAdjust="spacing" textLength="73" x="1025.5" y="772.957">&#171;Repository&#187;</text><text fill="#000000" font-family="sans-serif" font-size="14" lengthAdjust="spacing" textLength="122" x="1001" y="790.127">LocationRepository</text></g><!--class DepartmentService--><g id="elem_DepartmentService"><rect codeLine="64" fill="#F1F1F1" height="42.7031" id="DepartmentService" rx="2.5" ry="2.5" style="stroke:#181818;stroke-width:0.5;" width="153" x="385.5" y="536.5"/><ellipse cx="400.5" cy="557.8516" fill="#ADD1B2" rx="11" ry="11" style="stroke:#181818;stroke-width:1.0;"/><path d="M403.2656,553.7266 Q403.4219,553.5078 403.6094,553.3984 Q403.7969,553.2891 404.0156,553.2891 Q404.3906,553.2891 404.625,553.5469 Q404.8594,553.8047 404.8594,554.4141 L404.8594,555.8672 Q404.8594,556.4766 404.625,556.7422 Q404.3906,557.0078 404.0156,557.0078 Q403.6719,557.0078 403.4688,556.8047 Q403.2656,556.6172 403.1563,556.1016 Q403.1094,555.7422 402.9219,555.5547 Q402.5938,555.1797 401.9844,554.9609 Q401.375,554.7422 400.75,554.7422 Q399.9844,554.7422 399.3516,555.0703 Q398.7188,555.3984 398.2266,556.1484 Q397.7344,556.8984 397.7344,557.9297 L397.7344,559.0234 Q397.7344,560.2578 398.625,561.0781 Q399.5156,561.8984 401.1094,561.8984 Q402.0469,561.8984 402.7031,561.6484 Q403.0938,561.4922 403.5156,561.0547 Q403.7813,560.7891 403.9297,560.7109 Q404.0781,560.6328 404.2813,560.6328 Q404.6094,560.6328 404.8672,560.8906 Q405.125,561.1484 405.125,561.4922 Q405.125,561.8359 404.7813,562.2422 Q404.2813,562.8203 403.4844,563.1484 Q402.4063,563.6016 401.1094,563.6016 Q399.5938,563.6016 398.3906,562.9766 Q397.4063,562.4766 396.7188,561.4063 Q396.0313,560.3359 396.0313,559.0547 L396.0313,557.8984 Q396.0313,556.5703 396.6484,555.4219 Q397.2656,554.2734 398.3594,553.6563 Q399.4531,553.0391 400.6875,553.0391 Q401.4219,553.0391 402.0703,553.2031 Q402.7188,553.3672 403.2656,553.7266 Z " fill="#000000"/><text fill="#000000" font-family="sans-serif" font-size="12" font-style="italic" lengthAdjust="spacing" textLength="55" x="447.5" y="553.957">&#171;Service&#187;</text><text fill="#000000" font-family="sans-serif" font-size="14" lengthAdjust="spacing" textLength="121" x="414.5" y="571.127">DepartmentService</text></g><!--class LocationService--><g id="elem_LocationService"><rect codeLine="69" fill="#F1F1F1" height="42.7031" id="LocationService" rx="2.5" ry="2.5" style="stroke:#181818;stroke-width:0.5;" width="133" x="573.5" y="536.5"/><ellipse cx="588.5" cy="557.8516" fill="#ADD1B2" rx="11" ry="11" style="stroke:#181818;stroke-width:1.0;"/><path d="M591.2656,553.7266 Q591.4219,553.5078 591.6094,553.3984 Q591.7969,553.2891 592.0156,553.2891 Q592.3906,553.2891 592.625,553.5469 Q592.8594,553.8047 592.8594,554.4141 L592.8594,555.8672 Q592.8594,556.4766 592.625,556.7422 Q592.3906,557.0078 592.0156,557.0078 Q591.6719,557.0078 591.4688,556.8047 Q591.2656,556.6172 591.1563,556.1016 Q591.1094,555.7422 590.9219,555.5547 Q590.5938,555.1797 589.9844,554.9609 Q589.375,554.7422 588.75,554.7422 Q587.9844,554.7422 587.3516,555.0703 Q586.7188,555.3984 586.2266,556.1484 Q585.7344,556.8984 585.7344,557.9297 L585.7344,559.0234 Q585.7344,560.2578 586.625,561.0781 Q587.5156,561.8984 589.1094,561.8984 Q590.0469,561.8984 590.7031,561.6484 Q591.0938,561.4922 591.5156,561.0547 Q591.7813,560.7891 591.9297,560.7109 Q592.0781,560.6328 592.2813,560.6328 Q592.6094,560.6328 592.8672,560.8906 Q593.125,561.1484 593.125,561.4922 Q593.125,561.8359 592.7813,562.2422 Q592.2813,562.8203 591.4844,563.1484 Q590.4063,563.6016 589.1094,563.6016 Q587.5938,563.6016 586.3906,562.9766 Q585.4063,562.4766 584.7188,561.4063 Q584.0313,560.3359 584.0313,559.0547 L584.0313,557.8984 Q584.0313,556.5703 584.6484,555.4219 Q585.2656,554.2734 586.3594,553.6563 Q587.4531,553.0391 588.6875,553.0391 Q589.4219,553.0391 590.0703,553.2031 Q590.7188,553.3672 591.2656,553.7266 Z " fill="#000000"/><text fill="#000000" font-family="sans-serif" font-size="12" font-style="italic" lengthAdjust="spacing" textLength="55" x="625.5" y="553.957">&#171;Service&#187;</text><text fill="#000000" font-family="sans-serif" font-size="14" lengthAdjust="spacing" textLength="101" x="602.5" y="571.127">LocationService</text></g><!--class GraphQLController--><g id="elem_GraphQLController"><rect codeLine="84" fill="#F1F1F1" height="57.6094" id="GraphQLController" rx="2.5" ry="2.5" style="stroke:#181818;stroke-width:0.5;" width="302" x="400" y="267"/><ellipse cx="486.25" cy="283" fill="#ADD1B2" rx="11" ry="11" style="stroke:#181818;stroke-width:1.0;"/><path d="M489.0156,278.875 Q489.1719,278.6563 489.3594,278.5469 Q489.5469,278.4375 489.7656,278.4375 Q490.1406,278.4375 490.375,278.6953 Q490.6094,278.9531 490.6094,279.5625 L490.6094,281.0156 Q490.6094,281.625 490.375,281.8906 Q490.1406,282.1563 489.7656,282.1563 Q489.4219,282.1563 489.2188,281.9531 Q489.0156,281.7656 488.9063,281.25 Q488.8594,280.8906 488.6719,280.7031 Q488.3438,280.3281 487.7344,280.1094 Q487.125,279.8906 486.5,279.8906 Q485.7344,279.8906 485.1016,280.2188 Q484.4688,280.5469 483.9766,281.2969 Q483.4844,282.0469 483.4844,283.0781 L483.4844,284.1719 Q483.4844,285.4063 484.375,286.2266 Q485.2656,287.0469 486.8594,287.0469 Q487.7969,287.0469 488.4531,286.7969 Q488.8438,286.6406 489.2656,286.2031 Q489.5313,285.9375 489.6797,285.8594 Q489.8281,285.7813 490.0313,285.7813 Q490.3594,285.7813 490.6172,286.0391 Q490.875,286.2969 490.875,286.6406 Q490.875,286.9844 490.5313,287.3906 Q490.0313,287.9688 489.2344,288.2969 Q488.1563,288.75 486.8594,288.75 Q485.3438,288.75 484.1406,288.125 Q483.1563,287.625 482.4688,286.5547 Q481.7813,285.4844 481.7813,284.2031 L481.7813,283.0469 Q481.7813,281.7188 482.3984,280.5703 Q483.0156,279.4219 484.1094,278.8047 Q485.2031,278.1875 486.4375,278.1875 Q487.1719,278.1875 487.8203,278.3516 Q488.4688,278.5156 489.0156,278.875 Z " fill="#000000"/><text fill="#000000" font-family="sans-serif" font-size="14" lengthAdjust="spacing" textLength="121" x="506.75" y="288.7285">GraphQLController</text><line style="stroke:#181818;stroke-width:0.5;" x1="401" x2="701" y1="299" y2="299"/><text fill="#000000" font-family="sans-serif" font-size="14" font-weight="bold" lengthAdjust="spacing" textLength="117" x="406" y="317.5332">Expose services</text><text fill="#000000" font-family="sans-serif" font-size="14" lengthAdjust="spacing" textLength="169" x="527" y="317.5332">into the GraphQL endpoint</text></g><!--class client--><g id="elem_client"><rect codeLine="94" fill="#DDDDDD" height="27.6094" id="client" rx="2.5" ry="2.5" style="stroke:#181818;stroke-width:0.5;" width="135" x="483.5" y="7"/><text fill="#000000" font-family="sans-serif" font-size="14" font-style="italic" lengthAdjust="spacing" textLength="129" x="486.5" y="26.5332">Client HTTP request</text></g><!--reverse link IReferentialEntity to Department--><g id="link_IReferentialEntity_Department"><path d="M188.4541,858.844 C175.2041,916.584 160.43,980.95 151.74,1018.82 " fill="none" id="IReferentialEntity-backto-Department" style="stroke:#181818;stroke-width:1.0;stroke-dasharray:7.0,7.0;"/><polygon fill="none" points="192.48,841.3,182.6061,857.502,194.3021,860.186,192.48,841.3" style="stroke:#181818;stroke-width:1.0;"/></g><!--reverse link IReferentialEntity to Location--><g id="link_IReferentialEntity_Location"><path d="M228.9045,858.6716 C244.5745,916.4116 262.1,980.95 272.39,1018.82 " fill="none" id="IReferentialEntity-backto-Location" style="stroke:#181818;stroke-width:1.0;stroke-dasharray:7.0,7.0;"/><polygon fill="none" points="224.19,841.3,223.1139,860.2431,234.695,857.1001,224.19,841.3" style="stroke:#181818;stroke-width:1.0;"/></g><!--reverse link JpaRepository to DepartmentRepository--><g id="link_JpaRepository_DepartmentRepository"><path d="M913.3672,629.7178 C893.4172,675.7878 872.98,722.94 858.96,755.31 " fill="none" id="JpaRepository-backto-DepartmentRepository" style="stroke:#181818;stroke-width:1.0;stroke-dasharray:7.0,7.0;"/><polygon fill="none" points="920.52,613.2,907.8613,627.3335,918.8731,632.1021,920.52,613.2" style="stroke:#181818;stroke-width:1.0;"/></g><!--reverse link JpaRepository to LocationRepository--><g id="link_JpaRepository_LocationRepository"><path d="M978.0695,629.4031 C1000.3595,675.4731 1023.33,722.94 1038.99,755.31 " fill="none" id="JpaRepository-backto-LocationRepository" style="stroke:#181818;stroke-width:1.0;stroke-dasharray:7.0,7.0;"/><polygon fill="none" points="970.23,613.2,972.6685,632.0163,983.4706,626.79,970.23,613.2" style="stroke:#181818;stroke-width:1.0;"/></g><!--link DepartmentRepository to DEPARTMENT--><g id="link_DepartmentRepository_DEPARTMENT"><path codeLine="56" d="M882.59,798.77 C903.07,811.51 930.21,827.85 955,841 C1059.89,896.65 1177.73,950.6294 1264.8,989.0194 " fill="none" id="DepartmentRepository-to-DEPARTMENT" style="stroke:#181818;stroke-width:1.0;"/><polygon fill="#181818" points="1270.29,991.44,1263.6687,984.149,1265.715,989.4228,1260.4412,991.4691,1270.29,991.44" style="stroke:#181818;stroke-width:1.0;"/><text fill="#000000" font-family="sans-serif" font-size="13" lengthAdjust="spacing" textLength="56" x="1095" y="885.4951">read/write</text><text fill="#000000" font-family="sans-serif" font-size="13" lengthAdjust="spacing" textLength="80" x="1083" y="901.8467">(SQL queries)</text></g><!--link LocationRepository to LOCATION--><g id="link_LocationRepository_LOCATION"><path codeLine="57" d="M1126.36,788.74 C1222.03,804.59 1387.35,840.56 1511,913 C1540.64,930.36 1564.4144,951.6446 1586.6244,975.3146 " fill="none" id="LocationRepository-to-LOCATION" style="stroke:#181818;stroke-width:1.0;"/><polygon fill="#181818" points="1590.73,979.69,1587.4886,970.3898,1587.3087,976.0438,1581.6547,975.8639,1590.73,979.69" style="stroke:#181818;stroke-width:1.0;"/><text fill="#000000" font-family="sans-serif" font-size="13" lengthAdjust="spacing" textLength="56" x="1501" y="885.4951">read/write</text><text fill="#000000" font-family="sans-serif" font-size="13" lengthAdjust="spacing" textLength="80" x="1489" y="901.8467">(SQL queries)</text></g><!--link DepartmentRepository to Department--><!--link LocationRepository to Location--><!--link DepartmentService to DepartmentRepository--><g id="link_DepartmentService_DepartmentRepository"><path codeLine="67" d="M497.64,579.64 C515.18,589.76 536.66,602.08 556,613 C647.74,664.78 751.0106,721.6822 807.0506,752.4522 " fill="none" id="DepartmentService-to-DepartmentRepository" style="stroke:#181818;stroke-width:1.0;"/><polygon fill="#181818" points="812.31,755.34,806.3461,747.5021,807.9272,752.9335,802.4958,754.5146,812.31,755.34" style="stroke:#181818;stroke-width:1.0;"/><text fill="#000000" font-family="sans-serif" font-size="13" lengthAdjust="spacing" textLength="20" x="637" y="657.4951">call</text></g><!--link LocationService to LocationRepository--><g id="link_LocationService_LocationRepository"><path codeLine="72" d="M676.3,579.65 C696.62,590.62 722.71,603.71 747,613 C836.42,647.19 873.71,618.43 955,669 C990.69,691.2 1017.1362,726.085 1033.0962,750.385 " fill="none" id="LocationService-to-LocationRepository" style="stroke:#181818;stroke-width:1.0;"/><polygon fill="#181818" points="1036.39,755.4,1034.7926,745.6815,1033.6451,751.2208,1028.1059,750.0733,1036.39,755.4" style="stroke:#181818;stroke-width:1.0;"/><text fill="#000000" font-family="sans-serif" font-size="13" lengthAdjust="spacing" textLength="20" x="941" y="657.4951">call</text></g><!--link GraphQLController to DepartmentService--><g id="link_GraphQLController_DepartmentService"><path codeLine="89" d="M541.31,325.32 C523.24,378.1 486.7734,484.6435 470.9634,530.8235 " fill="none" id="GraphQLController-to-DepartmentService" style="stroke:#181818;stroke-width:1.0;"/><polygon fill="#181818" points="469.02,536.5,475.7195,529.2808,470.6395,531.7695,468.1507,526.6896,469.02,536.5" style="stroke:#181818;stroke-width:1.0;"/><text fill="#000000" font-family="sans-serif" font-size="13" lengthAdjust="spacing" textLength="42" x="523" y="395.4951">expose</text></g><!--link GraphQLController to LocationService--><g id="link_GraphQLController_LocationService"><path codeLine="90" d="M560.69,325.32 C578.76,378.1 615.2266,484.6435 631.0366,530.8235 " fill="none" id="GraphQLController-to-LocationService" style="stroke:#181818;stroke-width:1.0;"/><polygon fill="#181818" points="632.98,536.5,633.8493,526.6896,631.3605,531.7695,626.2805,529.2808,632.98,536.5" style="stroke:#181818;stroke-width:1.0;"/><text fill="#000000" font-family="sans-serif" font-size="13" lengthAdjust="spacing" textLength="42" x="585" y="395.4951">expose</text></g><!--link client to GraphQLController--><g id="link_client_GraphQLController"><path codeLine="97" d="M551,35.17 C551,77.13 551,202.38 551,260.64 " fill="none" id="client-to-GraphQLController" style="stroke:#181818;stroke-width:1.0;"/><polygon fill="#181818" points="551,266.64,555,257.64,551,261.64,547,257.64,551,266.64" style="stroke:#181818;stroke-width:1.0;"/><text fill="#000000" font-family="sans-serif" font-size="13" lengthAdjust="spacing" textLength="67" x="552" y="79.4951">/api/graphql</text></g></g></svg>