<?xml version="1.0" encoding="UTF-8" standalone="no"?><svg xmlns="http://www.w3.org/2000/svg" xmlns:xlink="http://www.w3.org/1999/xlink" contentStyleType="text/css" height="1120px" preserveAspectRatio="none" style="width:1758px;height:1120px;background:#FFFFFF;" version="1.1" viewBox="0 0 1758 1120" width="1758px" zoomAndPan="magnify"><defs/><g><!--MD5=[e169ac431914a6adb8cf110c9da1459f]
cluster DB--><g id="cluster_DB"><path d="M1242,914 C1242,904 1491.5,904 1491.5,904 C1491.5,904 1741,904 1741,914 L1741,1093 C1741,1103 1491.5,1103 1491.5,1103 C1491.5,1103 1242,1103 1242,1093 L1242,914 " fill="#ADD8E6" style="stroke:#181818;stroke-width:1.0;"/><path d="M1242,914 C1242,924 1491.5,924 1491.5,924 C1491.5,924 1741,924 1741,914 " fill="none" style="stroke:#181818;stroke-width:1.0;"/><text fill="#000000" font-family="sans-serif" font-size="14" font-weight="bold" lengthAdjust="spacing" textLength="19" x="1482" y="940.9659">DB</text></g><!--MD5=[e460d1046ee5596416f261c3d55d0132]
cluster net.sumaris.core--><g id="cluster_net.sumaris.core"><path d="M8.5,335 L125.5,335 A3.75,3.75 0 0 1 128,337.5 L135,360.0679 L1191.5,360.0679 A2.5,2.5 0 0 1 1194,362.5679 L1194,1082 A2.5,2.5 0 0 1 1191.5,1084.5 L8.5,1084.5 A2.5,2.5 0 0 1 6,1082 L6,337.5 A2.5,2.5 0 0 1 8.5,335 " fill="none" style="stroke:#000000;stroke-width:1.5;"/><line style="stroke:#000000;stroke-width:1.5;" x1="6" x2="135" y1="360.0679" y2="360.0679"/><text fill="#000000" font-family="sans-serif" font-size="14" font-weight="bold" lengthAdjust="spacing" textLength="116" x="10" y="351.9659">net.sumaris.core</text></g><!--MD5=[5d4cd377749310b66bf14896f5cd8d9b]
cluster model--><g id="cluster_model"><path d="M32.5,624 L77.5,624 A3.75,3.75 0 0 1 80,626.5 L87,649.0679 L296.5,649.0679 A2.5,2.5 0 0 1 299,651.5679 L299,1058 A2.5,2.5 0 0 1 296.5,1060.5 L32.5,1060.5 A2.5,2.5 0 0 1 30,1058 L30,626.5 A2.5,2.5 0 0 1 32.5,624 " fill="none" style="stroke:#000000;stroke-width:1.5;"/><line style="stroke:#000000;stroke-width:1.5;" x1="30" x2="87" y1="649.0679" y2="649.0679"/><text fill="#000000" font-family="sans-serif" font-size="14" font-weight="bold" lengthAdjust="spacing" textLength="44" x="34" y="640.9659">model</text></g><!--MD5=[5622bc4ba3bf2be5d17935065b98c5f9]
cluster dao--><g id="cluster_dao"><path d="M738.5,405 L765.5,405 A3.75,3.75 0 0 1 768,407.5 L775,430.0679 L1143.5,430.0679 A2.5,2.5 0 0 1 1146,432.5679 L1146,765.5 A2.5,2.5 0 0 1 1143.5,768 L738.5,768 A2.5,2.5 0 0 1 736,765.5 L736,407.5 A2.5,2.5 0 0 1 738.5,405 " fill="none" style="stroke:#000000;stroke-width:1.5;"/><line style="stroke:#000000;stroke-width:1.5;" x1="736" x2="775" y1="430.0679" y2="430.0679"/><text fill="#000000" font-family="sans-serif" font-size="14" font-weight="bold" lengthAdjust="spacing" textLength="26" x="740" y="421.9659">dao</text></g><!--MD5=[7579d5565d2521d5936cec86ed3dadee]
cluster service--><g id="cluster_service"><path d="M349.5,440.5 L398.5,440.5 A3.75,3.75 0 0 1 401,443 L408,465.5679 L709.5,465.5679 A2.5,2.5 0 0 1 712,468.0679 L712,537 A2.5,2.5 0 0 1 709.5,539.5 L349.5,539.5 A2.5,2.5 0 0 1 347,537 L347,443 A2.5,2.5 0 0 1 349.5,440.5 " fill="none" style="stroke:#000000;stroke-width:1.5;"/><line style="stroke:#000000;stroke-width:1.5;" x1="347" x2="408" y1="465.5679" y2="465.5679"/><text fill="#000000" font-family="sans-serif" font-size="14" font-weight="bold" lengthAdjust="spacing" textLength="48" x="351" y="457.4659">service</text></g><!--MD5=[f97aa87eb592234aec20b1d1dbdf0add]
cluster net.sumaris.server--><g id="cluster_net.sumaris.server"><path d="M344.5,101 L474.5,101 A3.75,3.75 0 0 1 477,103.5 L484,126.0679 L725.5,126.0679 A2.5,2.5 0 0 1 728,128.5679 L728,281.5 A2.5,2.5 0 0 1 725.5,284 L344.5,284 A2.5,2.5 0 0 1 342,281.5 L342,103.5 A2.5,2.5 0 0 1 344.5,101 " fill="none" style="stroke:#000000;stroke-width:1.5;"/><line style="stroke:#000000;stroke-width:1.5;" x1="342" x2="484" y1="126.0679" y2="126.0679"/><text fill="#000000" font-family="sans-serif" font-size="14" font-weight="bold" lengthAdjust="spacing" textLength="129" x="346" y="117.9659">net.sumaris.server</text></g><!--MD5=[08cfbaecb6317b1e15f6360cd8b42728]
cluster http--><g id="cluster_http"><path d="M368.5,147 L399.5,147 A3.75,3.75 0 0 1 402,149.5 L409,172.0679 L701.5,172.0679 A2.5,2.5 0 0 1 704,174.5679 L704,257.5 A2.5,2.5 0 0 1 701.5,260 L368.5,260 A2.5,2.5 0 0 1 366,257.5 L366,149.5 A2.5,2.5 0 0 1 368.5,147 " fill="none" style="stroke:#000000;stroke-width:1.5;"/><line style="stroke:#000000;stroke-width:1.5;" x1="366" x2="409" y1="172.0679" y2="172.0679"/><text fill="#000000" font-family="sans-serif" font-size="14" font-weight="bold" lengthAdjust="spacing" textLength="30" x="370" y="163.9659">http</text></g><!--MD5=[5593925982e282328b4030193d3df60a]
class LOCATION--><g id="elem_LOCATION"><rect codeLine="5" fill="#EEEEEE" height="129.6837" id="LOCATION" rx="2.5" ry="2.5" style="stroke:#181818;stroke-width:0.5;" width="216" x="1258" y="957"/><text fill="#000000" font-family="sans-serif" font-size="12" font-style="italic" lengthAdjust="spacing" textLength="41" x="1345.5" y="974.8281">«Table»</text><text fill="#000000" font-family="sans-serif" font-size="14" lengthAdjust="spacing" textLength="71" x="1330.5" y="993.31">LOCATION</text><line style="stroke:#181818;stroke-width:0.5;" x1="1259" x2="1473" y1="1002.412" y2="1002.412"/><ellipse cx="1269" cy="1017.446" fill="#84BE84" rx="3" ry="3" style="stroke:#038048;stroke-width:1.0;"/><text fill="#000000" font-family="sans-serif" font-size="14" lengthAdjust="spacing" textLength="107" x="1278" y="1021.378">ID: NUMBER(10)</text><ellipse cx="1269" cy="1036.5139" fill="#84BE84" rx="3" ry="3" style="stroke:#038048;stroke-width:1.0;"/><text fill="#000000" font-family="sans-serif" font-size="14" lengthAdjust="spacing" textLength="143" x="1278" y="1040.4459">LABEL: VARCHAR2(50)</text><ellipse cx="1269" cy="1055.5818" fill="#84BE84" rx="3" ry="3" style="stroke:#038048;stroke-width:1.0;"/><text fill="#000000" font-family="sans-serif" font-size="14" lengthAdjust="spacing" textLength="152" x="1278" y="1059.5138">NAME: VARCHAR2(100)</text><ellipse cx="1269" cy="1074.6497" fill="#84BE84" rx="3" ry="3" style="stroke:#038048;stroke-width:1.0;"/><text fill="#000000" font-family="sans-serif" font-size="14" lengthAdjust="spacing" textLength="190" x="1278" y="1078.5817">UPDATE_DATE: TIMESTAMP()</text></g><!--MD5=[6eacbabadde1abc100c0f356c7aca141]
class DEPARTMENT--><g id="elem_DEPARTMENT"><rect codeLine="11" fill="#EEEEEE" height="129.6837" id="DEPARTMENT" rx="2.5" ry="2.5" style="stroke:#181818;stroke-width:0.5;" width="216" x="1509" y="957"/><text fill="#000000" font-family="sans-serif" font-size="12" font-style="italic" lengthAdjust="spacing" textLength="41" x="1596.5" y="974.8281">«Table»</text><text fill="#000000" font-family="sans-serif" font-size="14" lengthAdjust="spacing" textLength="92" x="1571" y="993.31">DEPARTMENT</text><line style="stroke:#181818;stroke-width:0.5;" x1="1510" x2="1724" y1="1002.412" y2="1002.412"/><ellipse cx="1520" cy="1017.446" fill="#84BE84" rx="3" ry="3" style="stroke:#038048;stroke-width:1.0;"/><text fill="#000000" font-family="sans-serif" font-size="14" lengthAdjust="spacing" textLength="107" x="1529" y="1021.378">ID: NUMBER(10)</text><ellipse cx="1520" cy="1036.5139" fill="#84BE84" rx="3" ry="3" style="stroke:#038048;stroke-width:1.0;"/><text fill="#000000" font-family="sans-serif" font-size="14" lengthAdjust="spacing" textLength="143" x="1529" y="1040.4459">LABEL: VARCHAR2(50)</text><ellipse cx="1520" cy="1055.5818" fill="#84BE84" rx="3" ry="3" style="stroke:#038048;stroke-width:1.0;"/><text fill="#000000" font-family="sans-serif" font-size="14" lengthAdjust="spacing" textLength="152" x="1529" y="1059.5138">NAME: VARCHAR2(100)</text><ellipse cx="1520" cy="1074.6497" fill="#84BE84" rx="3" ry="3" style="stroke:#038048;stroke-width:1.0;"/><text fill="#000000" font-family="sans-serif" font-size="14" lengthAdjust="spacing" textLength="190" x="1529" y="1078.5817">UPDATE_DATE: TIMESTAMP()</text></g><!--MD5=[da1d22adcda8fa07362bf873f5b3aad1]
class IReferentialEntity--><g id="elem_IReferentialEntity"><rect codeLine="29" fill="#F1F1F1" height="135.3396" id="IReferentialEntity" rx="2.5" ry="2.5" style="stroke:#181818;stroke-width:0.5;" width="141" x="93.5" y="662"/><ellipse cx="108.5" cy="678" fill="#B4A7E5" rx="11" ry="11" style="stroke:#181818;stroke-width:1.0;"/><path d="M104.5313,684.5 L104.5313,682.7969 L106.8906,682.5313 L106.8906,674.3281 L104.5313,674.0625 L104.5313,672.3594 L111.6719,672.3594 L111.6719,674.0625 L109.25,674.3281 L109.25,682.5313 L111.6719,682.7969 L111.6719,684.5 L104.5313,684.5 Z " fill="#000000"/><text fill="#000000" font-family="sans-serif" font-size="14" font-style="italic" lengthAdjust="spacing" textLength="109" x="122.5" y="683.432">IReferentialEntity</text><line style="stroke:#181818;stroke-width:0.5;" x1="94.5" x2="233.5" y1="694" y2="694"/><ellipse cx="104.5" cy="709.034" fill="none" rx="3" ry="3" style="stroke:#038048;stroke-width:1.0;"/><text fill="#000000" font-family="sans-serif" font-size="14" lengthAdjust="spacing" textLength="13" x="113.5" y="712.9659">id</text><ellipse cx="104.5" cy="728.1019" fill="none" rx="3" ry="3" style="stroke:#038048;stroke-width:1.0;"/><text fill="#000000" font-family="sans-serif" font-size="14" lengthAdjust="spacing" textLength="33" x="113.5" y="732.0339">label</text><ellipse cx="104.5" cy="747.1698" fill="none" rx="3" ry="3" style="stroke:#038048;stroke-width:1.0;"/><text fill="#000000" font-family="sans-serif" font-size="14" lengthAdjust="spacing" textLength="38" x="113.5" y="751.1018">name</text><ellipse cx="104.5" cy="766.2377" fill="none" rx="3" ry="3" style="stroke:#038048;stroke-width:1.0;"/><text fill="#000000" font-family="sans-serif" font-size="14" lengthAdjust="spacing" textLength="79" x="113.5" y="770.1697">updateDate</text><ellipse cx="104.5" cy="785.3056" fill="none" rx="3" ry="3" style="stroke:#038048;stroke-width:1.0;"/><text fill="#000000" font-family="sans-serif" font-size="14" lengthAdjust="spacing" textLength="86" x="113.5" y="789.2376">creationDate</text></g><!--MD5=[c50d89439a12e948b363c4efab1c487c]
class Department--><g id="elem_Department"><rect codeLine="36" fill="#F1F1F1" height="45.412" id="Department" rx="2.5" ry="2.5" style="stroke:#181818;stroke-width:0.5;" width="113" x="169.5" y="999.5"/><ellipse cx="184.5" cy="1022.206" fill="#ADD1B2" rx="11" ry="11" style="stroke:#181818;stroke-width:1.0;"/><path d="M183.9688,1029.1279 Q182.2188,1029.1279 181.0781,1028.3935 Q179.9531,1027.6435 179.3906,1026.2998 Q178.8438,1024.9404 178.8438,1023.1435 Q178.8438,1021.1123 179.5,1019.6591 Q180.1563,1018.206 181.4375,1017.4248 Q182.7188,1016.6435 184.5938,1016.6435 Q185.4844,1016.6435 186.1563,1016.831 Q186.8281,1017.0029 187.5156,1017.3466 L186.7031,1019.3623 Q186.0781,1019.0498 185.5313,1018.9248 Q185,1018.7998 184.5156,1018.7998 Q183.3438,1018.7998 182.6406,1019.331 Q181.9375,1019.8623 181.6406,1020.8154 Q181.3438,1021.7685 181.3438,1023.0341 Q181.3438,1025.0498 182.0625,1026.0185 Q182.7813,1026.9716 184.375,1026.9716 Q184.9688,1026.9716 185.5938,1026.8154 Q186.2188,1026.6591 187.0469,1026.2841 L187.0469,1028.5029 Q186.3125,1028.8154 185.5156,1028.9716 Q184.7344,1029.1279 183.9688,1029.1279 Z " fill="#000000"/><text fill="#000000" font-family="sans-serif" font-size="12" font-style="italic" lengthAdjust="spacing" textLength="42" x="218" y="1017.3281">«Entity»</text><text fill="#000000" font-family="sans-serif" font-size="14" lengthAdjust="spacing" textLength="81" x="198.5" y="1035.81">Department</text></g><!--MD5=[4f1f3706c1a355a8488e154afcaed5df]
class Location--><g id="elem_Location"><rect codeLine="37" fill="#F1F1F1" height="45.412" id="Location" rx="2.5" ry="2.5" style="stroke:#181818;stroke-width:0.5;" width="88" x="46" y="999.5"/><ellipse cx="61" cy="1022.206" fill="#ADD1B2" rx="11" ry="11" style="stroke:#181818;stroke-width:1.0;"/><path d="M60.4688,1029.1279 Q58.7188,1029.1279 57.5781,1028.3935 Q56.4531,1027.6435 55.8906,1026.2998 Q55.3438,1024.9404 55.3438,1023.1435 Q55.3438,1021.1123 56,1019.6591 Q56.6563,1018.206 57.9375,1017.4248 Q59.2188,1016.6435 61.0938,1016.6435 Q61.9844,1016.6435 62.6563,1016.831 Q63.3281,1017.0029 64.0156,1017.3466 L63.2031,1019.3623 Q62.5781,1019.0498 62.0313,1018.9248 Q61.5,1018.7998 61.0156,1018.7998 Q59.8438,1018.7998 59.1406,1019.331 Q58.4375,1019.8623 58.1406,1020.8154 Q57.8438,1021.7685 57.8438,1023.0341 Q57.8438,1025.0498 58.5625,1026.0185 Q59.2813,1026.9716 60.875,1026.9716 Q61.4688,1026.9716 62.0938,1026.8154 Q62.7188,1026.6591 63.5469,1026.2841 L63.5469,1028.5029 Q62.8125,1028.8154 62.0156,1028.9716 Q61.2344,1029.1279 60.4688,1029.1279 Z " fill="#000000"/><text fill="#000000" font-family="sans-serif" font-size="12" font-style="italic" lengthAdjust="spacing" textLength="42" x="82" y="1017.3281">«Entity»</text><text fill="#000000" font-family="sans-serif" font-size="14" lengthAdjust="spacing" textLength="56" x="75" y="1035.81">Location</text></g><!--MD5=[5d9d7f361cf9aacac4ee237afb90f58a]
class JpaRepository--><g id="elem_JpaRepository"><rect codeLine="45" fill="#F1F1F1" height="116.2717" id="JpaRepository" rx="2.5" ry="2.5" style="stroke:#181818;stroke-width:0.5;" width="180" x="850" y="443"/><ellipse cx="892.45" cy="459" fill="#B4A7E5" rx="11" ry="11" style="stroke:#181818;stroke-width:1.0;"/><path d="M888.4813,465.5 L888.4813,463.7969 L890.8406,463.5313 L890.8406,455.3281 L888.4813,455.0625 L888.4813,453.3594 L895.6219,453.3594 L895.6219,455.0625 L893.2,455.3281 L893.2,463.5313 L895.6219,463.7969 L895.6219,465.5 L888.4813,465.5 Z " fill="#000000"/><text fill="#000000" font-family="sans-serif" font-size="14" font-style="italic" lengthAdjust="spacing" textLength="87" x="912.55" y="464.432">JpaRepository</text><line style="stroke:#181818;stroke-width:0.5;" x1="851" x2="1029" y1="475" y2="475"/><ellipse cx="861" cy="490.034" fill="#84BE84" rx="3" ry="3" style="stroke:#038048;stroke-width:1.0;"/><text fill="#000000" font-family="sans-serif" font-size="14" lengthAdjust="spacing" textLength="154" x="870" y="493.9659">findAll(filter: F): List&lt;V&gt;</text><ellipse cx="861" cy="509.1019" fill="#84BE84" rx="3" ry="3" style="stroke:#038048;stroke-width:1.0;"/><text fill="#000000" font-family="sans-serif" font-size="14" lengthAdjust="spacing" textLength="82" x="870" y="513.0339">get(id: ID): V</text><ellipse cx="861" cy="528.1698" fill="#84BE84" rx="3" ry="3" style="stroke:#038048;stroke-width:1.0;"/><text fill="#000000" font-family="sans-serif" font-size="14" lengthAdjust="spacing" textLength="100" x="870" y="532.1018">save(data: V): V</text><ellipse cx="861" cy="547.2377" fill="#84BE84" rx="3" ry="3" style="stroke:#038048;stroke-width:1.0;"/><text fill="#000000" font-family="sans-serif" font-size="14" lengthAdjust="spacing" textLength="89" x="870" y="551.1697">delete(id: int)</text></g><!--MD5=[458bb2f0f2decbebaf7fe3b47470309f]
class DepartmentRepository--><g id="elem_DepartmentRepository"><rect codeLine="52" fill="#F1F1F1" height="45.412" id="DepartmentRepository" rx="2.5" ry="2.5" style="stroke:#181818;stroke-width:0.5;" width="184" x="946" y="707"/><ellipse cx="961" cy="729.706" fill="#ADD1B2" rx="11" ry="11" style="stroke:#181818;stroke-width:1.0;"/><path d="M960.4688,736.6279 Q958.7188,736.6279 957.5781,735.8935 Q956.4531,735.1435 955.8906,733.7998 Q955.3438,732.4404 955.3438,730.6435 Q955.3438,728.6123 956,727.1591 Q956.6563,725.706 957.9375,724.9248 Q959.2188,724.1435 961.0938,724.1435 Q961.9844,724.1435 962.6563,724.331 Q963.3281,724.5029 964.0156,724.8466 L963.2031,726.8623 Q962.5781,726.5498 962.0313,726.4248 Q961.5,726.2998 961.0156,726.2998 Q959.8438,726.2998 959.1406,726.831 Q958.4375,727.3623 958.1406,728.3154 Q957.8438,729.2685 957.8438,730.5341 Q957.8438,732.5498 958.5625,733.5185 Q959.2813,734.4716 960.875,734.4716 Q961.4688,734.4716 962.0938,734.3154 Q962.7188,734.1591 963.5469,733.7841 L963.5469,736.0029 Q962.8125,736.3154 962.0156,736.4716 Q961.2344,736.6279 960.4688,736.6279 Z " fill="#000000"/><text fill="#000000" font-family="sans-serif" font-size="12" font-style="italic" lengthAdjust="spacing" textLength="69" x="1016.5" y="724.8281">«Repository»</text><text fill="#000000" font-family="sans-serif" font-size="14" lengthAdjust="spacing" textLength="152" x="975" y="743.31">DepartmentRepository</text></g><!--MD5=[b071f04f269d6c8381fbf3b952d7395d]
class LocationRepository--><g id="elem_LocationRepository"><rect codeLine="54" fill="#F1F1F1" height="45.412" id="LocationRepository" rx="2.5" ry="2.5" style="stroke:#181818;stroke-width:0.5;" width="159" x="751.5" y="707"/><ellipse cx="766.5" cy="729.706" fill="#ADD1B2" rx="11" ry="11" style="stroke:#181818;stroke-width:1.0;"/><path d="M765.9688,736.6279 Q764.2188,736.6279 763.0781,735.8935 Q761.9531,735.1435 761.3906,733.7998 Q760.8438,732.4404 760.8438,730.6435 Q760.8438,728.6123 761.5,727.1591 Q762.1563,725.706 763.4375,724.9248 Q764.7188,724.1435 766.5938,724.1435 Q767.4844,724.1435 768.1563,724.331 Q768.8281,724.5029 769.5156,724.8466 L768.7031,726.8623 Q768.0781,726.5498 767.5313,726.4248 Q767,726.2998 766.5156,726.2998 Q765.3438,726.2998 764.6406,726.831 Q763.9375,727.3623 763.6406,728.3154 Q763.3438,729.2685 763.3438,730.5341 Q763.3438,732.5498 764.0625,733.5185 Q764.7813,734.4716 766.375,734.4716 Q766.9688,734.4716 767.5938,734.3154 Q768.2188,734.1591 769.0469,733.7841 L769.0469,736.0029 Q768.3125,736.3154 767.5156,736.4716 Q766.7344,736.6279 765.9688,736.6279 Z " fill="#000000"/><text fill="#000000" font-family="sans-serif" font-size="12" font-style="italic" lengthAdjust="spacing" textLength="69" x="809.5" y="724.8281">«Repository»</text><text fill="#000000" font-family="sans-serif" font-size="14" lengthAdjust="spacing" textLength="127" x="780.5" y="743.31">LocationRepository</text></g><!--MD5=[e64cf3cda83d77f4e5b2abf782c4ad4b]
class DepartmentService--><g id="elem_DepartmentService"><rect codeLine="64" fill="#F1F1F1" height="45.412" id="DepartmentService" rx="2.5" ry="2.5" style="stroke:#181818;stroke-width:0.5;" width="161" x="534.5" y="478.5"/><ellipse cx="549.5" cy="501.206" fill="#ADD1B2" rx="11" ry="11" style="stroke:#181818;stroke-width:1.0;"/><path d="M548.9688,508.1279 Q547.2188,508.1279 546.0781,507.3935 Q544.9531,506.6435 544.3906,505.2998 Q543.8438,503.9404 543.8438,502.1435 Q543.8438,500.1123 544.5,498.6591 Q545.1563,497.206 546.4375,496.4248 Q547.7188,495.6435 549.5938,495.6435 Q550.4844,495.6435 551.1563,495.831 Q551.8281,496.0029 552.5156,496.3466 L551.7031,498.3623 Q551.0781,498.0498 550.5313,497.9248 Q550,497.7998 549.5156,497.7998 Q548.3438,497.7998 547.6406,498.331 Q546.9375,498.8623 546.6406,499.8154 Q546.3438,500.7685 546.3438,502.0341 Q546.3438,504.0498 547.0625,505.0185 Q547.7813,505.9716 549.375,505.9716 Q549.9688,505.9716 550.5938,505.8154 Q551.2188,505.6591 552.0469,505.2841 L552.0469,507.5029 Q551.3125,507.8154 550.5156,507.9716 Q549.7344,508.1279 548.9688,508.1279 Z " fill="#000000"/><text fill="#000000" font-family="sans-serif" font-size="12" font-style="italic" lengthAdjust="spacing" textLength="49" x="603.5" y="496.3281">«Service»</text><text fill="#000000" font-family="sans-serif" font-size="14" lengthAdjust="spacing" textLength="129" x="563.5" y="514.81">DepartmentService</text></g><!--MD5=[7abcb1c16c01fed8935f67d7d9b66a59]
class LocationService--><g id="elem_LocationService"><rect codeLine="69" fill="#F1F1F1" height="45.412" id="LocationService" rx="2.5" ry="2.5" style="stroke:#181818;stroke-width:0.5;" width="136" x="363" y="478.5"/><ellipse cx="378" cy="501.206" fill="#ADD1B2" rx="11" ry="11" style="stroke:#181818;stroke-width:1.0;"/><path d="M377.4688,508.1279 Q375.7188,508.1279 374.5781,507.3935 Q373.4531,506.6435 372.8906,505.2998 Q372.3438,503.9404 372.3438,502.1435 Q372.3438,500.1123 373,498.6591 Q373.6563,497.206 374.9375,496.4248 Q376.2188,495.6435 378.0938,495.6435 Q378.9844,495.6435 379.6563,495.831 Q380.3281,496.0029 381.0156,496.3466 L380.2031,498.3623 Q379.5781,498.0498 379.0313,497.9248 Q378.5,497.7998 378.0156,497.7998 Q376.8438,497.7998 376.1406,498.331 Q375.4375,498.8623 375.1406,499.8154 Q374.8438,500.7685 374.8438,502.0341 Q374.8438,504.0498 375.5625,505.0185 Q376.2813,505.9716 377.875,505.9716 Q378.4688,505.9716 379.0938,505.8154 Q379.7188,505.6591 380.5469,505.2841 L380.5469,507.5029 Q379.8125,507.8154 379.0156,507.9716 Q378.2344,508.1279 377.4688,508.1279 Z " fill="#000000"/><text fill="#000000" font-family="sans-serif" font-size="12" font-style="italic" lengthAdjust="spacing" textLength="49" x="419.5" y="496.3281">«Service»</text><text fill="#000000" font-family="sans-serif" font-size="14" lengthAdjust="spacing" textLength="104" x="392" y="514.81">LocationService</text></g><!--MD5=[fc10a528aabf8832007a1c441e9e29df]
class GraphQLController--><g id="elem_GraphQLController"><rect codeLine="84" fill="#F1F1F1" height="59.0679" id="GraphQLController" rx="2.5" ry="2.5" style="stroke:#181818;stroke-width:0.5;" width="305" x="382.5" y="185"/><ellipse cx="467.25" cy="201" fill="#ADD1B2" rx="11" ry="11" style="stroke:#181818;stroke-width:1.0;"/><path d="M466.7188,207.9219 Q464.9688,207.9219 463.8281,207.1875 Q462.7031,206.4375 462.1406,205.0938 Q461.5938,203.7344 461.5938,201.9375 Q461.5938,199.9063 462.25,198.4531 Q462.9063,197 464.1875,196.2188 Q465.4688,195.4375 467.3438,195.4375 Q468.2344,195.4375 468.9063,195.625 Q469.5781,195.7969 470.2656,196.1406 L469.4531,198.1563 Q468.8281,197.8438 468.2813,197.7188 Q467.75,197.5938 467.2656,197.5938 Q466.0938,197.5938 465.3906,198.125 Q464.6875,198.6563 464.3906,199.6094 Q464.0938,200.5625 464.0938,201.8281 Q464.0938,203.8438 464.8125,204.8125 Q465.5313,205.7656 467.125,205.7656 Q467.7188,205.7656 468.3438,205.6094 Q468.9688,205.4531 469.7969,205.0781 L469.7969,207.2969 Q469.0625,207.6094 468.2656,207.7656 Q467.4844,207.9219 466.7188,207.9219 Z " fill="#000000"/><text fill="#000000" font-family="sans-serif" font-size="14" lengthAdjust="spacing" textLength="127" x="487.75" y="206.432">GraphQLController</text><line style="stroke:#181818;stroke-width:0.5;" x1="383.5" x2="686.5" y1="217" y2="217"/><text fill="#000000" font-family="sans-serif" font-size="14" font-weight="bold" lengthAdjust="spacing" textLength="108" x="388.5" y="235.9659">Expose services</text><text fill="#000000" font-family="sans-serif" font-size="14" lengthAdjust="spacing" textLength="181" x="500.5" y="235.9659">into the GraphQL endpoint</text></g><!--MD5=[e3f72718913f1e037c5bc72e44de49f6]
class client--><g id="elem_client"><rect codeLine="94" fill="#DDDDDD" height="29.0679" id="client" rx="2.5" ry="2.5" style="stroke:#181818;stroke-width:0.5;" width="129" x="470.5" y="7"/><text fill="#000000" font-family="sans-serif" font-size="14" font-style="italic" lengthAdjust="spacing" textLength="123" x="473.5" y="26.9659">Client HTTP request</text></g><!--MD5=[1a915a720f5b5427b4583468323dfb12]
reverse link IReferentialEntity to Department--><g id="link_IReferentialEntity_Department"><path d="M182.45,816.97 C195.95,880.2 213.26,961.31 221.39,999.41 " fill="none" id="IReferentialEntity-backto-Department" style="stroke:#181818;stroke-width:1.0;stroke-dasharray:7.0,7.0;"/><polygon fill="none" points="175.55,818.17,178.22,797.15,189.24,815.24,175.55,818.17" style="stroke:#181818;stroke-width:1.0;"/></g><!--MD5=[1d6c53f3b52b47dc9cf7fb3beaceb011]
reverse link IReferentialEntity to Location--><g id="link_IReferentialEntity_Location"><path d="M142.08,816.56 C125.96,879.85 105.23,961.22 95.5,999.41 " fill="none" id="IReferentialEntity-backto-Location" style="stroke:#181818;stroke-width:1.0;stroke-dasharray:7.0,7.0;"/><polygon fill="none" points="135.3,814.8,147.02,797.15,148.87,818.26,135.3,814.8" style="stroke:#181818;stroke-width:1.0;"/></g><!--MD5=[e060ad5941c6189d8e57ebf5e2bf433d]
reverse link JpaRepository to DepartmentRepository--><g id="link_JpaRepository_DepartmentRepository"><path d="M972.7,577.58 C992.29,622.86 1015.8,677.19 1028.59,706.74 " fill="none" id="JpaRepository-backto-DepartmentRepository" style="stroke:#181818;stroke-width:1.0;stroke-dasharray:7.0,7.0;"/><polygon fill="none" points="966.25,580.29,964.73,559.16,979.1,574.73,966.25,580.29" style="stroke:#181818;stroke-width:1.0;"/></g><!--MD5=[66fc63471dcbf495b7cc210a2f1f6f21]
reverse link JpaRepository to LocationRepository--><g id="link_JpaRepository_LocationRepository"><path d="M903.77,577.28 C881.96,622.61 855.72,677.13 841.47,706.74 " fill="none" id="JpaRepository-backto-LocationRepository" style="stroke:#181818;stroke-width:1.0;stroke-dasharray:7.0,7.0;"/><polygon fill="none" points="897.51,574.14,912.49,559.16,910.13,580.21,897.51,574.14" style="stroke:#181818;stroke-width:1.0;"/></g><!--MD5=[87afc3a62368c32f23c5effef4137bdb]
link DepartmentRepository to DEPARTMENT--><g id="link_DepartmentRepository_DEPARTMENT"><path codeLine="56" d="M1130.31,743.5 C1227.03,760.56 1380.16,797.53 1492,872 C1523.48,892.96 1551.33,924.1 1572.72,952.49 " fill="none" id="DepartmentRepository-to-DEPARTMENT" style="stroke:#181818;stroke-width:1.0;"/><polygon fill="#181818" points="1575.82,956.66,1573.6584,947.0513,1572.836,952.648,1567.2393,951.8257,1575.82,956.66" style="stroke:#181818;stroke-width:1.0;"/><text fill="#000000" font-family="sans-serif" font-size="13" lengthAdjust="spacing" textLength="62" x="1479.5" y="841.897">read/write</text><text fill="#000000" font-family="sans-serif" font-size="13" lengthAdjust="spacing" textLength="79" x="1471" y="859.603">(SQL queries)</text></g><!--MD5=[c6939357481a0188d5ff020317f693bc]
link LocationRepository to LOCATION--><g id="link_LocationRepository_LOCATION"><path codeLine="57" d="M858.98,752.03 C878.18,766.38 904.53,785.25 929,800 C1035.58,864.26 1163.15,927.29 1252.87,969.48 " fill="none" id="LocationRepository-to-LOCATION" style="stroke:#181818;stroke-width:1.0;"/><polygon fill="#181818" points="1257.65,971.73,1251.1872,964.2982,1253.1194,969.6148,1247.8028,971.5471,1257.65,971.73" style="stroke:#181818;stroke-width:1.0;"/><text fill="#000000" font-family="sans-serif" font-size="13" lengthAdjust="spacing" textLength="62" x="1043.5" y="841.897">read/write</text><text fill="#000000" font-family="sans-serif" font-size="13" lengthAdjust="spacing" textLength="79" x="1035" y="859.603">(SQL queries)</text></g><!--MD5=[a1ce89230ead1dd2876b7c249aeadbb7]
link DepartmentRepository to Department--><!--MD5=[8e554aa4332c0635ba1122ffd91c235f]
link LocationRepository to Location--><!--MD5=[14a3bd95211a4cc525f1452807cc540f]
link DepartmentService to DepartmentRepository--><g id="link_DepartmentService_DepartmentRepository"><path codeLine="67" d="M656.6,523.51 C679.63,534.93 708.99,548.7 736,559 C819.17,590.72 851.77,570.04 928,616 C965.53,638.63 999.22,677.07 1019.14,702.63 " fill="none" id="DepartmentService-to-DepartmentRepository" style="stroke:#181818;stroke-width:1.0;"/><polygon fill="#181818" points="1022.22,706.61,1019.8831,697.0424,1019.1632,702.6533,1013.5523,701.9333,1022.22,706.61" style="stroke:#181818;stroke-width:1.0;"/><text fill="#000000" font-family="sans-serif" font-size="13" lengthAdjust="spacing" textLength="19" x="911" y="603.897">call</text></g><!--MD5=[8882bc38a6ba043fa8bf0cc34db50995]
link LocationService to LocationRepository--><g id="link_LocationService_LocationRepository"><path codeLine="72" d="M462.02,523.54 C478.18,534.51 498.41,547.85 517,559 C609.43,614.42 721.24,672.8 783.41,704.51 " fill="none" id="LocationService-to-LocationRepository" style="stroke:#181818;stroke-width:1.0;"/><polygon fill="#181818" points="788.17,706.94,781.9674,699.2896,783.7151,704.6697,778.335,706.4174,788.17,706.94" style="stroke:#181818;stroke-width:1.0;"/><text fill="#000000" font-family="sans-serif" font-size="13" lengthAdjust="spacing" textLength="19" x="602" y="603.897">call</text></g><!--MD5=[adcbe9d32afd583ec55d2fcfe1393a0e]
link GraphQLController to DepartmentService--><g id="link_GraphQLController_DepartmentService"><path codeLine="89" d="M543.04,244.08 C558.54,299.23 592.39,419.6 607.48,473.26 " fill="none" id="GraphQLController-to-DepartmentService" style="stroke:#181818;stroke-width:1.0;"/><polygon fill="#181818" points="608.88,478.24,610.288,468.4923,607.5234,473.4276,602.5881,470.6629,608.88,478.24" style="stroke:#181818;stroke-width:1.0;"/><text fill="#000000" font-family="sans-serif" font-size="13" lengthAdjust="spacing" textLength="43" x="564" y="314.897">expose</text></g><!--MD5=[02fbd9218b1f90fafbf724d6156fae5b]
link GraphQLController to LocationService--><g id="link_GraphQLController_LocationService"><path codeLine="90" d="M524.55,244.08 C504.39,299.23 460.39,419.6 440.77,473.26 " fill="none" id="GraphQLController-to-LocationService" style="stroke:#181818;stroke-width:1.0;"/><polygon fill="#181818" points="438.95,478.24,445.8177,471.1806,440.6805,473.549,438.3121,468.4118,438.95,478.24" style="stroke:#181818;stroke-width:1.0;"/><text fill="#000000" font-family="sans-serif" font-size="13" lengthAdjust="spacing" textLength="43" x="502" y="314.897">expose</text></g><!--MD5=[fb63c8a607c9cd1fc89d2a552beb7db6]
link client to GraphQLController--><g id="link_client_GraphQLController"><path codeLine="97" d="M535,36.24 C535,65.99 535,137.14 535,179.7 " fill="none" id="client-to-GraphQLController" style="stroke:#181818;stroke-width:1.0;"/><polygon fill="#181818" points="535,184.74,539,175.74,535,179.74,531,175.74,535,184.74" style="stroke:#181818;stroke-width:1.0;"/><text fill="#000000" font-family="sans-serif" font-size="13" lengthAdjust="spacing" textLength="75" x="536" y="80.897">/api/graphql</text></g></g></svg>