<?xml version="1.0" encoding="UTF-8" standalone="no"?><svg xmlns="http://www.w3.org/2000/svg" xmlns:xlink="http://www.w3.org/1999/xlink" contentScriptType="application/ecmascript" contentStyleType="text/css" height="350px" preserveAspectRatio="none" style="width:454px;height:350px;" version="1.1" viewBox="0 0 454 350" width="454px" zoomAndPan="magnify"><defs><filter height="300%" id="f1p4arcxtyi0mf" width="300%" x="-1" y="-1"><feGaussianBlur result="blurOut" stdDeviation="2.0"/><feColorMatrix in="blurOut" result="blurOut2" type="matrix" values="0 0 0 0 0 0 0 0 0 0 0 0 0 0 0 0 0 0 .4 0"/><feOffset dx="4.0" dy="4.0" in="blurOut2" result="blurOut3"/><feBlend in="SourceGraphic" in2="blurOut3" mode="normal"/></filter></defs><g><!--cluster referential--><polygon fill="#DDDDDD" filter="url(#f1p4arcxtyi0mf)" points="167.0425,255,248.0425,255,255.0425,277.29,261.0425,277.29,261.0425,338,167.0425,338,167.0425,255" style="stroke: #000000; stroke-width: 1.5;"/><line style="stroke: #000000; stroke-width: 1.5;" x1="167.0425" x2="255.0425" y1="277.29" y2="277.29"/><text fill="#000000" font-family="sans-serif" font-size="14" font-weight="bold" lengthAdjust="spacingAndGlyphs" textLength="75" x="171.0425" y="270.3369">referential</text><!--class Location--><rect fill="#FEFECE" filter="url(#f1p4arcxtyi0mf)" height="48" id="Location" style="stroke: #A80036; stroke-width: 1.5;" width="79" x="174.5425" y="282"/><ellipse cx="189.5425" cy="298" fill="#ADD1B2" rx="11" ry="11" style="stroke: #A80036; stroke-width: 1.0;"/><path d="M193.3706,303.6563 Q191.4956,304.3125 189.6831,304.3125 Q187.0894,304.3125 185.5034,302.5313 Q183.9175,300.75 183.9175,297.8438 Q183.9175,295.1563 185.3238,293.3906 Q186.1831,292.3125 187.3003,291.8594 Q188.4175,291.4063 190.1988,291.4063 Q191.9175,291.4063 193.3706,291.7656 L193.3706,293.75 Q191.4956,293.0469 190.2456,293.0469 Q188.5581,293.0469 187.5659,294.3672 Q186.5738,295.6875 186.5738,297.9219 Q186.5738,299.9688 187.6128,301.2656 Q188.6519,302.5625 190.2925,302.5625 Q191.6831,302.5625 193.3706,301.7813 L193.3706,303.6563 Z "/><text fill="#000000" font-family="sans-serif" font-size="12" lengthAdjust="spacingAndGlyphs" textLength="47" x="203.5425" y="302.4209">Location</text><line style="stroke: #A80036; stroke-width: 1.5;" x1="175.5425" x2="252.5425" y1="314" y2="314"/><line style="stroke: #A80036; stroke-width: 1.5;" x1="175.5425" x2="252.5425" y1="322" y2="322"/><!--class ObservedLocation--><rect fill="#FEFECE" filter="url(#f1p4arcxtyi0mf)" height="99.1973" id="ObservedLocation" style="stroke: #A80036; stroke-width: 1.5;" width="135" x="59.5425" y="117"/><ellipse cx="74.5425" cy="133" fill="#ADD1B2" rx="11" ry="11" style="stroke: #A80036; stroke-width: 1.0;"/><path d="M78.3706,138.6563 Q76.4956,139.3125 74.6831,139.3125 Q72.0894,139.3125 70.5034,137.5313 Q68.9175,135.75 68.9175,132.8438 Q68.9175,130.1563 70.3237,128.3906 Q71.1831,127.3125 72.3003,126.8594 Q73.4175,126.4063 75.1987,126.4063 Q76.9175,126.4063 78.3706,126.7656 L78.3706,128.75 Q76.4956,128.0469 75.2456,128.0469 Q73.5581,128.0469 72.5659,129.3672 Q71.5737,130.6875 71.5737,132.9219 Q71.5737,134.9688 72.6128,136.2656 Q73.6519,137.5625 75.2925,137.5625 Q76.6831,137.5625 78.3706,136.7813 L78.3706,138.6563 Z "/><text fill="#000000" font-family="sans-serif" font-size="12" lengthAdjust="spacingAndGlyphs" textLength="103" x="88.5425" y="137.4209">ObservedLocation</text><line style="stroke: #A80036; stroke-width: 1.5;" x1="60.5425" x2="193.5425" y1="149" y2="149"/><ellipse cx="70.5425" cy="160.8997" fill="none" rx="3" ry="3" style="stroke: #038048; stroke-width: 1.0;"/><text fill="#000000" font-family="sans-serif" font-size="11" lengthAdjust="spacingAndGlyphs" textLength="10" x="79.5425" y="163.4521">id</text><ellipse cx="70.5425" cy="173.699" fill="none" rx="3" ry="3" style="stroke: #038048; stroke-width: 1.0;"/><text fill="#000000" font-family="sans-serif" font-size="11" lengthAdjust="spacingAndGlyphs" textLength="47" x="79.5425" y="176.2515">program</text><ellipse cx="70.5425" cy="186.4983" fill="none" rx="3" ry="3" style="stroke: #038048; stroke-width: 1.0;"/><text fill="#000000" font-family="sans-serif" font-size="11" lengthAdjust="spacingAndGlyphs" textLength="93" x="79.5425" y="189.0508">startDateTime [1]</text><ellipse cx="70.5425" cy="199.2976" fill="none" rx="3" ry="3" style="stroke: #038048; stroke-width: 1.0;"/><text fill="#000000" font-family="sans-serif" font-size="11" lengthAdjust="spacingAndGlyphs" textLength="101" x="79.5425" y="201.8501">endDateTime [0..1]</text><line style="stroke: #A80036; stroke-width: 1.5;" x1="60.5425" x2="193.5425" y1="208.1973" y2="208.1973"/><!--class Landing--><rect fill="#FEFECE" filter="url(#f1p4arcxtyi0mf)" height="73.5986" id="Landing" style="stroke: #A80036; stroke-width: 1.5;" width="116" x="285.0425" y="129.5"/><ellipse cx="317.5925" cy="145.5" fill="#ADD1B2" rx="11" ry="11" style="stroke: #A80036; stroke-width: 1.0;"/><path d="M321.4206,151.1563 Q319.5456,151.8125 317.7331,151.8125 Q315.1394,151.8125 313.5534,150.0313 Q311.9675,148.25 311.9675,145.3438 Q311.9675,142.6563 313.3738,140.8906 Q314.2331,139.8125 315.3503,139.3594 Q316.4675,138.9063 318.2488,138.9063 Q319.9675,138.9063 321.4206,139.2656 L321.4206,141.25 Q319.5456,140.5469 318.2956,140.5469 Q316.6081,140.5469 315.6159,141.8672 Q314.6238,143.1875 314.6238,145.4219 Q314.6238,147.4688 315.6628,148.7656 Q316.7019,150.0625 318.3425,150.0625 Q319.7331,150.0625 321.4206,149.2813 L321.4206,151.1563 Z "/><text fill="#000000" font-family="sans-serif" font-size="12" lengthAdjust="spacingAndGlyphs" textLength="45" x="335.4925" y="149.9209">Landing</text><line style="stroke: #A80036; stroke-width: 1.5;" x1="286.0425" x2="400.0425" y1="161.5" y2="161.5"/><ellipse cx="296.0425" cy="173.3997" fill="none" rx="3" ry="3" style="stroke: #038048; stroke-width: 1.0;"/><text fill="#000000" font-family="sans-serif" font-size="11" lengthAdjust="spacingAndGlyphs" textLength="10" x="305.0425" y="175.9521">id</text><ellipse cx="296.0425" cy="186.199" fill="none" rx="3" ry="3" style="stroke: #038048; stroke-width: 1.0;"/><text fill="#000000" font-family="sans-serif" font-size="11" lengthAdjust="spacingAndGlyphs" textLength="90" x="305.0425" y="188.7515">landingDateTime</text><line style="stroke: #A80036; stroke-width: 1.5;" x1="286.0425" x2="400.0425" y1="195.0986" y2="195.0986"/><!--class LandingMeasurement--><rect fill="#FEFECE" filter="url(#f1p4arcxtyi0mf)" height="48" id="LandingMeasurement" style="stroke: #A80036; stroke-width: 1.5;" width="155" x="288.5425" y="282"/><ellipse cx="303.5425" cy="298" fill="#ADD1B2" rx="11" ry="11" style="stroke: #A80036; stroke-width: 1.0;"/><path d="M307.3706,303.6563 Q305.4956,304.3125 303.6831,304.3125 Q301.0894,304.3125 299.5034,302.5313 Q297.9175,300.75 297.9175,297.8438 Q297.9175,295.1563 299.3238,293.3906 Q300.1831,292.3125 301.3003,291.8594 Q302.4175,291.4063 304.1988,291.4063 Q305.9175,291.4063 307.3706,291.7656 L307.3706,293.75 Q305.4956,293.0469 304.2456,293.0469 Q302.5581,293.0469 301.5659,294.3672 Q300.5738,295.6875 300.5738,297.9219 Q300.5738,299.9688 301.6128,301.2656 Q302.6519,302.5625 304.2925,302.5625 Q305.6831,302.5625 307.3706,301.7813 L307.3706,303.6563 Z "/><text fill="#000000" font-family="sans-serif" font-size="12" lengthAdjust="spacingAndGlyphs" textLength="123" x="317.5425" y="302.4209">LandingMeasurement</text><line style="stroke: #A80036; stroke-width: 1.5;" x1="289.5425" x2="442.5425" y1="314" y2="314"/><line style="stroke: #A80036; stroke-width: 1.5;" x1="289.5425" x2="442.5425" y1="322" y2="322"/><!--class Person--><rect fill="#FEFECE" filter="url(#f1p4arcxtyi0mf)" height="48" id="Person" style="stroke: #A80036; stroke-width: 1.5;" width="71" x="68.5425" y="282"/><ellipse cx="83.5425" cy="298" fill="#ADD1B2" rx="11" ry="11" style="stroke: #A80036; stroke-width: 1.0;"/><path d="M87.3706,303.6563 Q85.4956,304.3125 83.6831,304.3125 Q81.0894,304.3125 79.5034,302.5313 Q77.9175,300.75 77.9175,297.8438 Q77.9175,295.1563 79.3237,293.3906 Q80.1831,292.3125 81.3003,291.8594 Q82.4175,291.4063 84.1987,291.4063 Q85.9175,291.4063 87.3706,291.7656 L87.3706,293.75 Q85.4956,293.0469 84.2456,293.0469 Q82.5581,293.0469 81.5659,294.3672 Q80.5737,295.6875 80.5737,297.9219 Q80.5737,299.9688 81.6128,301.2656 Q82.6519,302.5625 84.2925,302.5625 Q85.6831,302.5625 87.3706,301.7813 L87.3706,303.6563 Z "/><text fill="#000000" font-family="sans-serif" font-size="12" lengthAdjust="spacingAndGlyphs" textLength="39" x="97.5425" y="302.4209">Person</text><line style="stroke: #A80036; stroke-width: 1.5;" x1="69.5425" x2="138.5425" y1="314" y2="314"/><line style="stroke: #A80036; stroke-width: 1.5;" x1="69.5425" x2="138.5425" y1="322" y2="322"/><!--class Vessel--><rect fill="#FEFECE" filter="url(#f1p4arcxtyi0mf)" height="48" id="Vessel" style="stroke: #A80036; stroke-width: 1.5;" width="69" x="308.5425" y="8"/><ellipse cx="323.5425" cy="24" fill="#ADD1B2" rx="11" ry="11" style="stroke: #A80036; stroke-width: 1.0;"/><path d="M327.3706,29.6563 Q325.4956,30.3125 323.6831,30.3125 Q321.0894,30.3125 319.5034,28.5313 Q317.9175,26.75 317.9175,23.8438 Q317.9175,21.1563 319.3238,19.3906 Q320.1831,18.3125 321.3003,17.8594 Q322.4175,17.4063 324.1988,17.4063 Q325.9175,17.4063 327.3706,17.7656 L327.3706,19.75 Q325.4956,19.0469 324.2456,19.0469 Q322.5581,19.0469 321.5659,20.3672 Q320.5738,21.6875 320.5738,23.9219 Q320.5738,25.9688 321.6128,27.2656 Q322.6519,28.5625 324.2925,28.5625 Q325.6831,28.5625 327.3706,27.7813 L327.3706,29.6563 Z "/><text fill="#000000" font-family="sans-serif" font-size="12" lengthAdjust="spacingAndGlyphs" textLength="37" x="337.5425" y="28.4209">Vessel</text><line style="stroke: #A80036; stroke-width: 1.5;" x1="309.5425" x2="376.5425" y1="40" y2="40"/><line style="stroke: #A80036; stroke-width: 1.5;" x1="309.5425" x2="376.5425" y1="48" y2="48"/><!--link ObservedLocation to Landing--><path d="M207.9502,166.5 C233.5515,166.5 261.324,166.5 284.992,166.5 " fill="none" id="ObservedLocation-Landing" style="stroke: #A80036; stroke-width: 1.0;"/><polygon fill="#A80036" points="194.7936,166.5,200.7936,170.5,206.7936,166.5,200.7936,162.5,194.7936,166.5" style="stroke: #A80036; stroke-width: 1.0;"/><text fill="#000000" font-family="sans-serif" font-size="13" lengthAdjust="spacingAndGlyphs" textLength="54" x="212.7925" y="159.8525">contains</text><text fill="#000000" font-family="sans-serif" font-size="13" lengthAdjust="spacingAndGlyphs" textLength="8" x="202.6414" y="163.0284">1</text><text fill="#000000" font-family="sans-serif" font-size="13" lengthAdjust="spacingAndGlyphs" textLength="22" x="255.008" y="179.7502">0..*</text><!--link ObservedLocation to Person--><path d="M118.8688,216.0753 C115.5222,236.373 111.7644,259.1648 108.8694,276.7239 " fill="none" id="ObservedLocation-Person" style="stroke: #A80036; stroke-width: 1.0;"/><polygon fill="#A80036" points="108,281.9968,113.4109,273.7674,108.8134,277.0634,105.5174,272.466,108,281.9968" style="stroke: #A80036; stroke-width: 1.0;"/><text fill="#000000" font-family="sans-serif" font-size="13" lengthAdjust="spacingAndGlyphs" textLength="8" x="109.1569" y="236.4491">1</text><text fill="#000000" font-family="sans-serif" font-size="13" lengthAdjust="spacingAndGlyphs" textLength="87" x="10.8672" y="271.2928">1..* observers</text><!--link Vessel to Landing--><path d="M343.0425,61.2438 C343.0425,81.262 343.0425,107.9694 343.0425,129.472 " fill="none" id="Vessel-Landing" style="stroke: #A80036; stroke-width: 1.0;"/><polygon fill="#A80036" points="343.0425,56.0459,339.0425,65.0459,343.0425,61.0459,347.0425,65.0459,343.0425,56.0459" style="stroke: #A80036; stroke-width: 1.0;"/><text fill="#000000" font-family="sans-serif" font-size="13" lengthAdjust="spacingAndGlyphs" textLength="8" x="334.0175" y="76.4983">1</text><text fill="#000000" font-family="sans-serif" font-size="13" lengthAdjust="spacingAndGlyphs" textLength="6" x="336.4894" y="118.6633">*</text><!--link Landing to LandingMeasurement--><path d="M351.2975,216.5686 C354.9704,238.8456 359.1243,264.0397 362.085,281.9968 " fill="none" id="Landing-LandingMeasurement" style="stroke: #A80036; stroke-width: 1.0;"/><polygon fill="#A80036" points="349.1457,203.5172,346.1751,210.088,351.0979,215.3573,354.0685,208.7865,349.1457,203.5172" style="stroke: #A80036; stroke-width: 1.0;"/><text fill="#000000" font-family="sans-serif" font-size="13" lengthAdjust="spacingAndGlyphs" textLength="8" x="341.5072" y="223.5665">1</text><text fill="#000000" font-family="sans-serif" font-size="13" lengthAdjust="spacingAndGlyphs" textLength="22" x="336.2521" y="271.2928">0..*</text><!--link Landing to Location--><path d="M308.8115,203.5172 C287.1687,226.9216 259.6456,256.685 239.8435,278.0989 " fill="none" id="Landing-Location" style="stroke: #A80036; stroke-width: 1.0;"/><polygon fill="#A80036" points="236.239,281.9968,245.2862,278.1048,239.6337,278.3258,239.4127,272.6733,236.239,281.9968" style="stroke: #A80036; stroke-width: 1.0;"/><text fill="#000000" font-family="sans-serif" font-size="13" lengthAdjust="spacingAndGlyphs" textLength="6" x="296.4124" y="223.5665">*</text><text fill="#000000" font-family="sans-serif" font-size="13" lengthAdjust="spacingAndGlyphs" textLength="8" x="232.9019" y="271.2928">1</text><!--link ObservedLocation to Location--><path d="M157.9604,216.0753 C170.8375,236.723 185.324,259.9515 196.3478,277.6275 " fill="none" id="ObservedLocation-Location" style="stroke: #A80036; stroke-width: 1.0;"/><polygon fill="#A80036" points="199.0727,281.9968,197.704,272.2435,196.4267,277.7543,190.916,276.4771,199.0727,281.9968" style="stroke: #A80036; stroke-width: 1.0;"/><text fill="#000000" font-family="sans-serif" font-size="13" lengthAdjust="spacingAndGlyphs" textLength="6" x="155.8864" y="236.4491">*</text><text fill="#000000" font-family="sans-serif" font-size="13" lengthAdjust="spacingAndGlyphs" textLength="8" x="186.2117" y="271.2928">1</text><!--
@startuml class
class ObservedLocation {
    +id
    +program
    +startDateTime [1]
    +endDateTime [0..1]
}

class Landing {
  +id
  +landingDateTime
}

class LandingMeasurement {
}

ObservedLocation "1" *-right- "0..*" Landing : contains
ObservedLocation "1" - -> "1..* observers" Person

Landing "*" -up-> "1" Vessel
Landing "1" *- - "0..*" LandingMeasurement

package "referential" #DDDDDD {
    Landing "*" - -> "1" Location
    ObservedLocation "*" - -> "1" Location
}

@enduml

PlantUML version 1.2018.05(Sat May 05 20:00:17 GMT 2018)
(GPL source distribution)
Java Runtime: Java(TM) SE Runtime Environment
JVM: Java HotSpot(TM) 64-Bit Server VM
Java Version: 1.8.0_161-b12
Operating System: Linux
OS Version: 4.4.0-150-generic
Default Encoding: ANSI_X3.4-1968
Language: en
Country: US
--></g></svg>