<?xml version="1.0" encoding="UTF-8" standalone="no"?><svg xmlns="http://www.w3.org/2000/svg" xmlns:xlink="http://www.w3.org/1999/xlink" contentScriptType="application/ecmascript" contentStyleType="text/css" height="265px" preserveAspectRatio="none" style="width:350px;height:265px;" version="1.1" viewBox="0 0 350 265" width="350px" zoomAndPan="magnify"><defs/><g><text fill="#000000" font-family="sans-serif" font-size="12" font-weight="bold" lengthAdjust="spacingAndGlyphs" textLength="150" x="6" y="17.1387">Nouvelle observation</text><line style="stroke: #AAAAAA; stroke-width: 1.0; stroke-dasharray: 1.0,2.0;" x1="6" x2="157" y1="25.4688" y2="25.4688"/><text fill="#000000" font-family="sans-serif" font-size="12" font-weight="bold" lengthAdjust="spacingAndGlyphs" textLength="56" x="8" y="41.1074">General</text><line style="stroke: #000000; stroke-width: 1.0;" x1="6" x2="6" y1="29.9688" y2="43.9375"/><line style="stroke: #000000; stroke-width: 1.0;" x1="6" x2="67" y1="29.9688" y2="29.9688"/><line style="stroke: #000000; stroke-width: 1.0;" x1="67" x2="67" y1="29.9688" y2="43.9375"/><line style="stroke: #000000; stroke-width: 1.0;" x1="67" x2="77" y1="43.9375" y2="43.9375"/><text fill="#000000" font-family="sans-serif" font-size="12" lengthAdjust="spacingAndGlyphs" textLength="50" x="79" y="41.1074">Capture</text><line style="stroke: #000000; stroke-width: 1.0;" x1="77" x2="77" y1="29.9688" y2="43.9375"/><line style="stroke: #000000; stroke-width: 1.0;" x1="77" x2="132" y1="29.9688" y2="29.9688"/><line style="stroke: #000000; stroke-width: 1.0;" x1="132" x2="132" y1="29.9688" y2="43.9375"/><line style="stroke: #000000; stroke-width: 1.0;" x1="132" x2="142" y1="43.9375" y2="43.9375"/><text fill="#000000" font-family="sans-serif" font-size="12" lengthAdjust="spacingAndGlyphs" textLength="149" x="6" y="73.0449">Programme de collecte:</text><rect fill="#EEEEEE" height="16.9688" style="stroke: #000000; stroke-width: 1.0;" width="95" x="159" y="62.9063"/><text fill="#000000" font-family="sans-serif" font-size="12" lengthAdjust="spacingAndGlyphs" textLength="74" x="161" y="76.0449">SIH-OBSDEB</text><line style="stroke: #000000; stroke-width: 1.0;" x1="243" x2="243" y1="62.9063" y2="79.875"/><polygon fill="#000000" points="246,68.9063,252,68.9063,249,74.875" style="stroke: #000000; stroke-width: 1.0;"/><text fill="#000000" font-family="sans-serif" font-size="12" lengthAdjust="spacingAndGlyphs" textLength="43" x="6" y="95.0137">Navire:</text><rect fill="#EEEEEE" height="16.9688" style="stroke: #000000; stroke-width: 1.0;" width="95" x="159" y="84.875"/><text fill="#000000" font-family="sans-serif" font-size="12" lengthAdjust="spacingAndGlyphs" textLength="79" x="161" y="98.0137">FRA0001114</text><line style="stroke: #000000; stroke-width: 1.0;" x1="243" x2="243" y1="84.875" y2="101.8438"/><polygon fill="#000000" points="246,90.875,252,90.875,249,96.8438" style="stroke: #000000; stroke-width: 1.0;"/><path d="M261,84.875 L261,87.875 L258,87.875 L258,89.875 L261,89.875 L261,92.875 L263,92.875 L263,89.875 L266,89.875 L266,87.875 L263,87.875 L263,84.875 L261,84.875 " fill="#000000" style="stroke: ; stroke-width: 0.0; stroke-dasharray: ;"/><text fill="#000000" font-family="sans-serif" font-size="12" lengthAdjust="spacingAndGlyphs" textLength="118" x="6" y="116.9824">Lieu d'observation:</text><rect fill="#EEEEEE" height="16.9688" style="stroke: #000000; stroke-width: 1.0;" width="143" x="159" y="106.8438"/><text fill="#000000" font-family="sans-serif" font-size="12" lengthAdjust="spacingAndGlyphs" textLength="105" x="161" y="119.9824">MA - Mahé Island</text><line style="stroke: #000000; stroke-width: 1.0;" x1="291" x2="291" y1="106.8438" y2="123.8125"/><polygon fill="#000000" points="294,112.8438,300,112.8438,297,118.8125" style="stroke: #000000; stroke-width: 1.0;"/><text fill="#000000" font-family="sans-serif" font-size="12" lengthAdjust="spacingAndGlyphs" textLength="117" x="6" y="138.9512">Date/Heure début:</text><rect fill="#EEEEEE" height="16.9688" style="stroke: #000000; stroke-width: 1.0;" width="95" x="159" y="128.8125"/><text fill="#000000" font-family="sans-serif" font-size="12" lengthAdjust="spacingAndGlyphs" textLength="72" x="161" y="141.9512">01/02/2019</text><line style="stroke: #000000; stroke-width: 1.0;" x1="243" x2="243" y1="128.8125" y2="145.7813"/><polygon fill="#000000" points="246,134.8125,252,134.8125,249,140.7813" style="stroke: #000000; stroke-width: 1.0;"/><rect fill="#EEEEEE" height="16.9688" style="stroke: #000000; stroke-width: 1.0;" width="55" x="257" y="128.8125"/><text fill="#000000" font-family="sans-serif" font-size="12" lengthAdjust="spacingAndGlyphs" textLength="36" x="259" y="141.9512">09:55</text><line style="stroke: #000000; stroke-width: 1.0;" x1="301" x2="301" y1="128.8125" y2="145.7813"/><polygon fill="#000000" points="304,134.8125,310,134.8125,307,140.7813" style="stroke: #000000; stroke-width: 1.0;"/><text fill="#000000" font-family="sans-serif" font-size="12" lengthAdjust="spacingAndGlyphs" textLength="95" x="6" y="160.9199">Date/Heure fin:</text><rect fill="#EEEEEE" height="16.9688" style="stroke: #000000; stroke-width: 1.0;" width="95" x="159" y="150.7813"/><text fill="#000000" font-family="sans-serif" font-size="12" lengthAdjust="spacingAndGlyphs" textLength="72" x="161" y="163.9199">01/02/2019</text><line style="stroke: #000000; stroke-width: 1.0;" x1="243" x2="243" y1="150.7813" y2="167.75"/><polygon fill="#000000" points="246,156.7813,252,156.7813,249,162.75" style="stroke: #000000; stroke-width: 1.0;"/><rect fill="#EEEEEE" height="16.9688" style="stroke: #000000; stroke-width: 1.0;" width="55" x="257" y="150.7813"/><text fill="#000000" font-family="sans-serif" font-size="12" lengthAdjust="spacingAndGlyphs" textLength="36" x="259" y="163.9199">09:55</text><line style="stroke: #000000; stroke-width: 1.0;" x1="301" x2="301" y1="150.7813" y2="167.75"/><polygon fill="#000000" points="304,156.7813,310,156.7813,307,162.75" style="stroke: #000000; stroke-width: 1.0;"/><text fill="#000000" font-family="sans-serif" font-size="12" lengthAdjust="spacingAndGlyphs" textLength="92" x="6" y="182.8887">Observateurs :</text><rect fill="#EEEEEE" height="16.9688" style="stroke: #000000; stroke-width: 1.0;" width="127" x="159" y="172.75"/><text fill="#000000" font-family="sans-serif" font-size="12" lengthAdjust="spacingAndGlyphs" textLength="99" x="161" y="185.8887">Observateur #1</text><line style="stroke: #000000; stroke-width: 1.0;" x1="275" x2="275" y1="172.75" y2="189.7188"/><polygon fill="#000000" points="278,178.75,284,178.75,281,184.7188" style="stroke: #000000; stroke-width: 1.0;"/><rect fill="#EEEEEE" height="12" rx="5" ry="5" style="stroke: #000000; stroke-width: 2.5;" width="20" x="291.5" y="175.25"/><path d="M300.5,177.25 L300.5,180.25 L297.5,180.25 L297.5,182.25 L300.5,182.25 L300.5,185.25 L302.5,185.25 L302.5,182.25 L305.5,182.25 L305.5,180.25 L302.5,180.25 L302.5,177.25 L300.5,177.25 " fill="#000000" style="stroke: ; stroke-width: 0.0; stroke-dasharray: ;"/><rect fill="#EEEEEE" height="12" rx="5" ry="5" style="stroke: #000000; stroke-width: 2.5;" width="20" x="318.5" y="175.25"/><path d="M325.906,177.25 L324.5,178.656 L325.188,179.375 L326.969,181.156 L325.188,182.937 L324.5,183.656 L325.906,185.062 L326.625,184.374 L328.406,182.593 L330.187,184.374 L330.906,185.062 L332.312,183.656 L331.624,182.937 L329.843,181.156 L331.624,179.375 L332.312,178.656 L330.906,177.25 L330.187,177.938 L328.406,179.719 L326.625,177.938 L325.906,177.25 " fill="#000000" style="stroke: ; stroke-width: 0.0; stroke-dasharray: ;"/><text fill="#000000" font-family="sans-serif" font-size="12" lengthAdjust="spacingAndGlyphs" textLength="90" x="6" y="220.8262">Commentaires</text><text fill="#000000" font-family="sans-serif" font-size="12" lengthAdjust="spacingAndGlyphs" textLength="89" x="162" y="221.8262">commentaires</text><line style="stroke: #000000; stroke-width: 1.0;" x1="160" x2="315" y1="224.6563" y2="224.6563"/><line style="stroke: #000000; stroke-width: 1.0;" x1="160" x2="160" y1="221.6563" y2="223.6563"/><line style="stroke: #000000; stroke-width: 1.0;" x1="315" x2="315" y1="221.6563" y2="223.6563"/><line style="stroke: #AAAAAA; stroke-width: 1.0;" x1="6" x2="157" y1="233.1563" y2="233.1563"/><line style="stroke: #AAAAAA; stroke-width: 1.0;" x1="158" x2="343" y1="233.1563" y2="233.1563"/><rect fill="#EEEEEE" height="17.9688" rx="5" ry="5" style="stroke: #000000; stroke-width: 2.5;" width="60" x="161.5" y="241.1563"/><text fill="#000000" font-family="sans-serif" font-size="12" lengthAdjust="spacingAndGlyphs" textLength="48" x="167.5" y="254.2949">Annuler</text><rect fill="#EEEEEE" height="17.9688" rx="5" ry="5" style="stroke: #000000; stroke-width: 2.5;" width="92" x="228.5" y="241.1563"/><text fill="#000000" font-family="sans-serif" font-size="12" lengthAdjust="spacingAndGlyphs" textLength="80" x="234.5" y="254.2949">Sauvegarder</text></g></svg>