<?xml version="1.0" encoding="UTF-8" standalone="no"?><svg xmlns="http://www.w3.org/2000/svg" xmlns:xlink="http://www.w3.org/1999/xlink" contentScriptType="application/ecmascript" contentStyleType="text/css" height="285px" preserveAspectRatio="none" style="width:459px;height:285px;" version="1.1" viewBox="0 0 459 285" width="459px" zoomAndPan="magnify"><defs/><g><text fill="#000000" font-family="sans-serif" font-size="12" font-weight="bold" lengthAdjust="spacingAndGlyphs" textLength="171" x="6" y="17.1387">Nouveau débarquement</text><line style="stroke: #AAAAAA; stroke-width: 1.0; stroke-dasharray: 1.0,2.0;" x1="6" x2="180" y1="25.4688" y2="25.4688"/><text fill="#000000" font-family="sans-serif" font-size="12" font-weight="bold" lengthAdjust="spacingAndGlyphs" textLength="56" x="8" y="41.1074">General</text><line style="stroke: #000000; stroke-width: 1.0;" x1="6" x2="6" y1="29.9688" y2="43.9375"/><line style="stroke: #000000; stroke-width: 1.0;" x1="6" x2="67" y1="29.9688" y2="29.9688"/><line style="stroke: #000000; stroke-width: 1.0;" x1="67" x2="67" y1="29.9688" y2="43.9375"/><line style="stroke: #000000; stroke-width: 1.0;" x1="67" x2="77" y1="43.9375" y2="43.9375"/><text fill="#000000" font-family="sans-serif" font-size="12" lengthAdjust="spacingAndGlyphs" textLength="50" x="79" y="41.1074">Capture</text><line style="stroke: #000000; stroke-width: 1.0;" x1="77" x2="77" y1="29.9688" y2="43.9375"/><line style="stroke: #000000; stroke-width: 1.0;" x1="77" x2="132" y1="29.9688" y2="29.9688"/><line style="stroke: #000000; stroke-width: 1.0;" x1="132" x2="132" y1="29.9688" y2="43.9375"/><line style="stroke: #000000; stroke-width: 1.0;" x1="132" x2="142" y1="43.9375" y2="43.9375"/><text fill="#000000" font-family="sans-serif" font-size="12" lengthAdjust="spacingAndGlyphs" textLength="149" x="6" y="73.0449">Programme de collecte:</text><rect fill="#EEEEEE" height="16.9688" style="stroke: #000000; stroke-width: 1.0;" width="95" x="182" y="62.9063"/><text fill="#000000" font-family="sans-serif" font-size="12" lengthAdjust="spacingAndGlyphs" textLength="74" x="184" y="76.0449">SIH-OBSDEB</text><line style="stroke: #000000; stroke-width: 1.0;" x1="266" x2="266" y1="62.9063" y2="79.875"/><polygon fill="#000000" points="269,68.9063,275,68.9063,272,74.875" style="stroke: #000000; stroke-width: 1.0;"/><text fill="#000000" font-family="sans-serif" font-size="12" lengthAdjust="spacingAndGlyphs" textLength="43" x="6" y="95.0137">Navire:</text><rect fill="#EEEEEE" height="16.9688" style="stroke: #000000; stroke-width: 1.0;" width="95" x="182" y="84.875"/><text fill="#000000" font-family="sans-serif" font-size="12" lengthAdjust="spacingAndGlyphs" textLength="79" x="184" y="98.0137">FRA0001114</text><line style="stroke: #000000; stroke-width: 1.0;" x1="266" x2="266" y1="84.875" y2="101.8438"/><polygon fill="#000000" points="269,90.875,275,90.875,272,96.8438" style="stroke: #000000; stroke-width: 1.0;"/><path d="M284,84.875 L284,87.875 L281,87.875 L281,89.875 L284,89.875 L284,92.875 L286,92.875 L286,89.875 L289,89.875 L289,87.875 L286,87.875 L286,84.875 L284,84.875 " fill="#000000" style="stroke: ; stroke-width: 0.0; stroke-dasharray: ;"/><text fill="#000000" font-family="sans-serif" font-size="12" lengthAdjust="spacingAndGlyphs" textLength="146" x="6" y="116.9824">Lieu de débarquement:</text><rect fill="#EEEEEE" height="16.9688" style="stroke: #000000; stroke-width: 1.0;" width="143" x="182" y="106.8438"/><text fill="#000000" font-family="sans-serif" font-size="12" lengthAdjust="spacingAndGlyphs" textLength="105" x="184" y="119.9824">MA - Mahé Island</text><line style="stroke: #000000; stroke-width: 1.0;" x1="314" x2="314" y1="106.8438" y2="123.8125"/><polygon fill="#000000" points="317,112.8438,323,112.8438,320,118.8125" style="stroke: #000000; stroke-width: 1.0;"/><text fill="#000000" font-family="sans-serif" font-size="12" lengthAdjust="spacingAndGlyphs" textLength="173" x="6" y="138.9512">Date/Heure débarquement:</text><rect fill="#EEEEEE" height="16.9688" style="stroke: #000000; stroke-width: 1.0;" width="95" x="182" y="128.8125"/><text fill="#000000" font-family="sans-serif" font-size="12" lengthAdjust="spacingAndGlyphs" textLength="72" x="184" y="141.9512">01/02/2019</text><line style="stroke: #000000; stroke-width: 1.0;" x1="266" x2="266" y1="128.8125" y2="145.7813"/><polygon fill="#000000" points="269,134.8125,275,134.8125,272,140.7813" style="stroke: #000000; stroke-width: 1.0;"/><rect fill="#EEEEEE" height="16.9688" style="stroke: #000000; stroke-width: 1.0;" width="55" x="280" y="128.8125"/><text fill="#000000" font-family="sans-serif" font-size="12" lengthAdjust="spacingAndGlyphs" textLength="36" x="282" y="141.9512">09:55</text><line style="stroke: #000000; stroke-width: 1.0;" x1="324" x2="324" y1="128.8125" y2="145.7813"/><polygon fill="#000000" points="327,134.8125,333,134.8125,330,140.7813" style="stroke: #000000; stroke-width: 1.0;"/><text fill="#000000" font-family="sans-serif" font-size="12" lengthAdjust="spacingAndGlyphs" textLength="92" x="6" y="160.9199">Observateurs :</text><rect fill="#EEEEEE" height="16.9688" style="stroke: #000000; stroke-width: 1.0;" width="127" x="182" y="150.7813"/><text fill="#000000" font-family="sans-serif" font-size="12" lengthAdjust="spacingAndGlyphs" textLength="99" x="184" y="163.9199">Observateur #1</text><line style="stroke: #000000; stroke-width: 1.0;" x1="298" x2="298" y1="150.7813" y2="167.75"/><polygon fill="#000000" points="301,156.7813,307,156.7813,304,162.75" style="stroke: #000000; stroke-width: 1.0;"/><rect fill="#EEEEEE" height="12" rx="5" ry="5" style="stroke: #000000; stroke-width: 2.5;" width="20" x="314.5" y="153.2813"/><path d="M323.5,155.2813 L323.5,158.2813 L320.5,158.2813 L320.5,160.2813 L323.5,160.2813 L323.5,163.2813 L325.5,163.2813 L325.5,160.2813 L328.5,160.2813 L328.5,158.2813 L325.5,158.2813 L325.5,155.2813 L323.5,155.2813 " fill="#000000" style="stroke: ; stroke-width: 0.0; stroke-dasharray: ;"/><rect fill="#EEEEEE" height="12" rx="5" ry="5" style="stroke: #000000; stroke-width: 2.5;" width="20" x="341.5" y="153.2813"/><path d="M348.906,155.2813 L347.5,156.6873 L348.188,157.4063 L349.969,159.1873 L348.188,160.9683 L347.5,161.6873 L348.906,163.0933 L349.625,162.4053 L351.406,160.6243 L353.187,162.4053 L353.906,163.0933 L355.312,161.6873 L354.624,160.9683 L352.843,159.1873 L354.624,157.4063 L355.312,156.6873 L353.906,155.2813 L353.187,155.9693 L351.406,157.7503 L349.625,155.9693 L348.906,155.2813 " fill="#000000" style="stroke: ; stroke-width: 0.0; stroke-dasharray: ;"/><text fill="#000000" font-family="sans-serif" font-size="12" lengthAdjust="spacingAndGlyphs" textLength="151" x="6" y="182.8887">Autres caractéristiques:</text><text fill="#000000" font-family="sans-serif" font-size="12" lengthAdjust="spacingAndGlyphs" textLength="212" x="182" y="183.8887">Nombre d'homme à bord (PMFM) :</text><text fill="#000000" font-family="sans-serif" font-size="12" lengthAdjust="spacingAndGlyphs" textLength="8" x="399" y="183.8887">1</text><line style="stroke: #000000; stroke-width: 1.0;" x1="397" x2="448" y1="186.7188" y2="186.7188"/><line style="stroke: #000000; stroke-width: 1.0;" x1="397" x2="397" y1="183.7188" y2="185.7188"/><line style="stroke: #000000; stroke-width: 1.0;" x1="448" x2="448" y1="183.7188" y2="185.7188"/><text fill="#000000" font-family="sans-serif" font-size="12" lengthAdjust="spacingAndGlyphs" textLength="65" x="182" y="203.8574">PMFM #2 :</text><rect fill="#EEEEEE" height="16.9688" style="stroke: #000000; stroke-width: 1.0;" width="159" x="249" y="192.7188"/><text fill="#000000" font-family="sans-serif" font-size="12" lengthAdjust="spacingAndGlyphs" textLength="109" x="251" y="205.8574">Valeur qualitative</text><line style="stroke: #000000; stroke-width: 1.0;" x1="397" x2="397" y1="192.7188" y2="209.6875"/><polygon fill="#000000" points="400,198.7188,406,198.7188,403,204.6875" style="stroke: #000000; stroke-width: 1.0;"/><text fill="#000000" font-family="sans-serif" font-size="12" lengthAdjust="spacingAndGlyphs" textLength="90" x="6" y="240.7949">Commentaires</text><text fill="#000000" font-family="sans-serif" font-size="12" lengthAdjust="spacingAndGlyphs" textLength="89" x="185" y="241.7949">commentaires</text><line style="stroke: #000000; stroke-width: 1.0;" x1="183" x2="338" y1="244.625" y2="244.625"/><line style="stroke: #000000; stroke-width: 1.0;" x1="183" x2="183" y1="241.625" y2="243.625"/><line style="stroke: #000000; stroke-width: 1.0;" x1="338" x2="338" y1="241.625" y2="243.625"/><line style="stroke: #AAAAAA; stroke-width: 1.0;" x1="6" x2="180" y1="253.125" y2="253.125"/><line style="stroke: #AAAAAA; stroke-width: 1.0;" x1="181" x2="452" y1="253.125" y2="253.125"/><rect fill="#EEEEEE" height="17.9688" rx="5" ry="5" style="stroke: #000000; stroke-width: 2.5;" width="60" x="184.5" y="261.125"/><text fill="#000000" font-family="sans-serif" font-size="12" lengthAdjust="spacingAndGlyphs" textLength="48" x="190.5" y="274.2637">Annuler</text><rect fill="#EEEEEE" height="17.9688" rx="5" ry="5" style="stroke: #000000; stroke-width: 2.5;" width="92" x="251.5" y="261.125"/><text fill="#000000" font-family="sans-serif" font-size="12" lengthAdjust="spacingAndGlyphs" textLength="80" x="257.5" y="274.2637">Sauvegarder</text></g></svg>