<?xml version="1.0" encoding="UTF-8" standalone="no"?>
<svg xmlns="http://www.w3.org/2000/svg" xmlns:xlink="http://www.w3.org/1999/xlink" contentScriptType="application/ecmascript" contentStyleType="text/css" height="168px" preserveAspectRatio="none" style="width:437px;height:168px;" version="1.1" viewBox="0 0 437 168" width="437px" zoomAndPan="magnify">
    <defs/><g>
    <text fill="#000000" font-family="sans-serif" font-size="12" font-weight="bold" lengthAdjust="spacingAndGlyphs" textLength="150" x="6" y="17.1387">Nouvelle observation</text>
    <line style="stroke: #AAAAAA; stroke-width: 1.0; stroke-dasharray: 1.0,2.0;" x1="6" x2="262" y1="25.4688" y2="25.4688"/>
    <text fill="#000000" font-family="sans-serif" font-size="12" lengthAdjust="spacingAndGlyphs" textLength="49" x="8" y="41.1074">General</text>
    <line style="stroke: #000000; stroke-width: 1.0;" x1="6" x2="6" y1="29.9688" y2="43.9375"/>
    <line style="stroke: #000000; stroke-width: 1.0;" x1="6" x2="60" y1="29.9688" y2="29.9688"/>
    <line style="stroke: #000000; stroke-width: 1.0;" x1="60" x2="60" y1="29.9688" y2="43.9375"/>
    <line style="stroke: #000000; stroke-width: 1.0;" x1="60" x2="70" y1="43.9375" y2="43.9375"/>
    <text fill="#000000" font-family="sans-serif" font-size="12" font-weight="bold" lengthAdjust="spacingAndGlyphs" textLength="122" x="72" y="41.1074">Navires observés</text>
    <line style="stroke: #000000; stroke-width: 1.0;" x1="70" x2="70" y1="29.9688" y2="43.9375"/>
    <line style="stroke: #000000; stroke-width: 1.0;" x1="70" x2="197" y1="29.9688" y2="29.9688"/>
    <line style="stroke: #000000; stroke-width: 1.0;" x1="197" x2="197" y1="29.9688" y2="43.9375"/>
    <line style="stroke: #000000; stroke-width: 1.0;" x1="197" x2="207" y1="43.9375" y2="43.9375"/>
    <rect fill="#EEEEEE" height="12" rx="5" ry="5" style="stroke: #000000; stroke-width: 2.5;" width="20" x="9.5" y="65.4063"/>
    <path d="M18.5,67.4063 L18.5,70.4063 L15.5,70.4063 L15.5,72.4063 L18.5,72.4063 L18.5,75.4063 L20.5,75.4063 L20.5,72.4063 L23.5,72.4063 L23.5,70.4063 L20.5,70.4063 L20.5,67.4063 L18.5,67.4063 " fill="#000000" style="stroke: ; stroke-width: 0.0; stroke-dasharray: ;"/>
    <rect fill="#EEEEEE" height="12" rx="5" ry="5" style="stroke: #000000; stroke-width: 2.5;" width="20" x="36.5" y="65.4063"/>
    <path d="M45.5,67.4063 C44.95,67.4063 44.5,67.8563 44.5,68.4063 L43.5,68.4063 C42.95,68.4063 42.5,68.8563 42.5,69.4063 L49.5,69.4063 C49.5,68.8563 49.05,68.4063 48.5,68.4063 L47.5,68.4063 C47.5,67.8563 47.05,67.4063 46.5,67.4063 L45.5,67.4063 M43.5,70.4063 L43.5,75.2193 C43.5,75.3293 43.577,75.4073 43.688,75.4073 L48.313,75.4073 C48.423,75.4073 48.501,75.3303 48.501,75.2193 L48.501,70.4063 L47.501,70.4063 L47.501,73.9063 C47.501,74.1863 47.281,74.4063 47.001,74.4063 C46.721,74.4063 46.501,74.1863 46.501,73.9063 L46.501,70.4063 L45.501,70.4063 L45.501,73.9063 C45.501,74.1863 45.281,74.4063 45.001,74.4063 C44.721,74.4063 44.501,74.1863 44.501,73.9063 L44.501,70.4063 L43.501,70.4063 " fill="#000000" style="stroke: ; stroke-width: 0.0; stroke-dasharray: ;"/>
    <rect fill="#EEEEEE" height="12" rx="5" ry="5" style="stroke: #000000; stroke-width: 2.5;" width="20" x="63.5" y="65.4063"/>
    <path d="M73,67.4063 C71.073,67.4063 69.5,68.9793 69.5,70.9063 C69.5,72.8332 71.073,74.4063 73,74.4063 C73.592,74.4063 74.166,74.2613 74.656,74.0003 A1,1 0 0 0 74.781,74.1253 L75.781,75.1253 A1.016,1.016 0 1 0 77.219,73.6873 L76.219,72.6873 A1,1 0 0 0 76.063,72.5623 C76.329,72.0693 76.501,71.5033 76.501,70.9063 C76.501,68.9793 74.928,67.4063 73.001,67.4063 M73.001,68.4063 C74.388,68.4063 75.501,69.5193 75.501,70.9063 C75.501,71.5673 75.26,72.1793 74.845,72.6253 L74.814,72.6563 A1,1 0 0 0 74.689,72.7813 C74.247,73.1783 73.646,73.4063 73.001,73.4063 C71.614,73.4063 70.501,72.2933 70.501,70.9063 C70.501,69.5193 71.614,68.4063 73.001,68.4063 " fill="#000000" style="stroke: ; stroke-width: 0.0; stroke-dasharray: ;"/>
    <text fill="#000000" font-family="sans-serif" font-size="12" lengthAdjust="spacingAndGlyphs" textLength="10" x="7" y="95.0449">#</text>
    <text fill="#000000" font-family="sans-serif" font-size="12" font-weight="bold" lengthAdjust="spacingAndGlyphs" textLength="45" x="19" y="95.0449">Navire</text>
    <text fill="#000000" font-family="sans-serif" font-size="12" font-weight="bold" lengthAdjust="spacingAndGlyphs" textLength="81" x="100" y="95.0449">Date/Heure</text>
    <text fill="#000000" font-family="sans-serif" font-size="12" font-weight="bold" lengthAdjust="spacingAndGlyphs" textLength="29" x="214" y="95.0449">Etat</text>
    <text fill="#000000" font-family="sans-serif" font-size="12" lengthAdjust="spacingAndGlyphs" textLength="8" x="7" y="111.0137">1</text>
    <text fill="#000000" font-family="sans-serif" font-size="12" lengthAdjust="spacingAndGlyphs" textLength="79" x="19" y="111.0137">FRA0001114</text>
    <text fill="#000000" font-family="sans-serif" font-size="12" lengthAdjust="spacingAndGlyphs" textLength="112" x="100" y="111.0137">02/15/2019 11:01</text>
    <text fill="#000000" font-family="sans-serif" font-size="12" lengthAdjust="spacingAndGlyphs" textLength="46" x="214" y="111.0137">au port</text>
    <text fill="#000000" font-family="sans-serif" font-size="12" lengthAdjust="spacingAndGlyphs" textLength="8" x="7" y="126.9824">2</text>
    <text fill="#000000" font-family="sans-serif" font-size="12" lengthAdjust="spacingAndGlyphs" textLength="41" x="19" y="126.9824">SZ003</text>
    <text fill="#000000" font-family="sans-serif" font-size="12" lengthAdjust="spacingAndGlyphs" textLength="112" x="100" y="126.9824">02/15/2019 15:05</text>
    <text fill="#000000" font-family="sans-serif" font-size="12" lengthAdjust="spacingAndGlyphs" textLength="44" x="214" y="126.9824">en mer</text>
    <line style="stroke: #000000; stroke-width: 1.0;" x1="6" x2="18" y1="82.9063" y2="82.9063"/>
    <line style="stroke: #000000; stroke-width: 1.0;" x1="99" x2="213" y1="114.8438" y2="114.8438"/>
    <line style="stroke: #000000; stroke-width: 1.0;" x1="18" x2="99" y1="82.9063" y2="82.9063"/>
    <line style="stroke: #000000; stroke-width: 1.0;" x1="213" x2="261" y1="114.8438" y2="114.8438"/>
    <line style="stroke: #000000; stroke-width: 1.0;" x1="99" x2="213" y1="82.9063" y2="82.9063"/>
    <line style="stroke: #000000; stroke-width: 1.0;" x1="213" x2="261" y1="82.9063" y2="82.9063"/>
    <line style="stroke: #000000; stroke-width: 1.0;" x1="6" x2="18" y1="130.8125" y2="130.8125"/>
    <line style="stroke: #000000; stroke-width: 1.0;" x1="18" x2="99" y1="130.8125" y2="130.8125"/>
    <line style="stroke: #000000; stroke-width: 1.0;" x1="99" x2="213" y1="130.8125" y2="130.8125"/>
    <line style="stroke: #000000; stroke-width: 1.0;" x1="6" x2="18" y1="98.875" y2="98.875"/>
    <line style="stroke: #000000; stroke-width: 1.0;" x1="213" x2="261" y1="130.8125" y2="130.8125"/>
    <line style="stroke: #000000; stroke-width: 1.0;" x1="18" x2="99" y1="98.875" y2="98.875"/>
    <line style="stroke: #000000; stroke-width: 1.0;" x1="99" x2="213" y1="98.875" y2="98.875"/>
    <line style="stroke: #000000; stroke-width: 1.0;" x1="213" x2="261" y1="98.875" y2="98.875"/>
    <line style="stroke: #000000; stroke-width: 1.0;" x1="6" x2="18" y1="114.8438" y2="114.8438"/>
    <line style="stroke: #000000; stroke-width: 1.0;" x1="18" x2="99" y1="114.8438" y2="114.8438"/>
    <line style="stroke: #000000; stroke-width: 1.0;" x1="6" x2="6" y1="82.9063" y2="98.875"/>
    <line style="stroke: #000000; stroke-width: 1.0;" x1="99" x2="99" y1="114.8438" y2="130.8125"/>
    <line style="stroke: #000000; stroke-width: 1.0;" x1="18" x2="18" y1="82.9063" y2="98.875"/>
    <line style="stroke: #000000; stroke-width: 1.0;" x1="213" x2="213" y1="114.8438" y2="130.8125"/>
    <line style="stroke: #000000; stroke-width: 1.0;" x1="261" x2="261" y1="114.8438" y2="130.8125"/>
    <line style="stroke: #000000; stroke-width: 1.0;" x1="99" x2="99" y1="82.9063" y2="98.875"/>
    <line style="stroke: #000000; stroke-width: 1.0;" x1="213" x2="213" y1="82.9063" y2="98.875"/>
    <line style="stroke: #000000; stroke-width: 1.0;" x1="261" x2="261" y1="82.9063" y2="98.875"/>
    <line style="stroke: #000000; stroke-width: 1.0;" x1="6" x2="6" y1="98.875" y2="114.8438"/>
    <line style="stroke: #000000; stroke-width: 1.0;" x1="18" x2="18" y1="98.875" y2="114.8438"/>
    <line style="stroke: #000000; stroke-width: 1.0;" x1="99" x2="99" y1="98.875" y2="114.8438"/>
    <line style="stroke: #000000; stroke-width: 1.0;" x1="213" x2="213" y1="98.875" y2="114.8438"/>
    <line style="stroke: #000000; stroke-width: 1.0;" x1="261" x2="261" y1="98.875" y2="114.8438"/>
    <line style="stroke: #000000; stroke-width: 1.0;" x1="6" x2="6" y1="114.8438" y2="130.8125"/>
    <line style="stroke: #000000; stroke-width: 1.0;" x1="18" x2="18" y1="114.8438" y2="130.8125"/>
    <line style="stroke: #AAAAAA; stroke-width: 1.0;" x1="6" x2="262" y1="136.3125" y2="136.3125"/>
    <line style="stroke: #AAAAAA; stroke-width: 1.0;" x1="263" x2="430" y1="136.3125" y2="136.3125"/>
    <rect fill="#EEEEEE" height="17.9688" rx="5" ry="5" style="stroke: #000000; stroke-width: 2.5;" width="60" x="266.5" y="144.3125"/>
    <text fill="#000000" font-family="sans-serif" font-size="12" lengthAdjust="spacingAndGlyphs" textLength="48" x="272.5" y="157.4512">Annuler</text>
    <rect fill="#EEEEEE" height="17.9688" rx="5" ry="5" style="stroke: #000000; stroke-width: 2.5;" width="92" x="333.5" y="144.3125"/>
    <text fill="#000000" font-family="sans-serif" font-size="12" lengthAdjust="spacingAndGlyphs" textLength="80" x="339.5" y="157.4512">Sauvegarder</text>
</g>
</svg>