<?xml version="1.0" encoding="UTF-8" standalone="no"?><svg xmlns="http://www.w3.org/2000/svg" xmlns:xlink="http://www.w3.org/1999/xlink" contentScriptType="application/ecmascript" contentStyleType="text/css" height="380px" preserveAspectRatio="none" style="width:526px;height:380px;" version="1.1" viewBox="0 0 526 380" width="526px" zoomAndPan="magnify"><defs/><g><text fill="#000000" font-family="sans-serif" font-size="12" font-weight="bold" lengthAdjust="spacingAndGlyphs" textLength="77" x="6" y="17.1387">Titre écran</text><line style="stroke: #AAAAAA; stroke-width: 1.0;" x1="6" x2="519" y1="25.4688" y2="25.4688"/><text fill="#000000" font-family="sans-serif" font-size="12" lengthAdjust="spacingAndGlyphs" textLength="54" x="10" y="58.0762">champ 1</text><line style="stroke: #000000; stroke-width: 1.0;" x1="8" x2="67" y1="60.9063" y2="60.9063"/><line style="stroke: #000000; stroke-width: 1.0;" x1="8" x2="8" y1="57.9063" y2="59.9063"/><line style="stroke: #000000; stroke-width: 1.0;" x1="67" x2="67" y1="57.9063" y2="59.9063"/><text fill="#000000" font-family="sans-serif" font-size="12" lengthAdjust="spacingAndGlyphs" textLength="54" x="178" y="58.0762">champ 2</text><line style="stroke: #000000; stroke-width: 1.0;" x1="176" x2="235" y1="60.9063" y2="60.9063"/><line style="stroke: #000000; stroke-width: 1.0;" x1="176" x2="176" y1="57.9063" y2="59.9063"/><line style="stroke: #000000; stroke-width: 1.0;" x1="235" x2="235" y1="57.9063" y2="59.9063"/><text fill="#000000" font-family="sans-serif" font-size="12" lengthAdjust="spacingAndGlyphs" textLength="133" x="10" y="76.0449">champ long très long</text><line style="stroke: #000000; stroke-width: 1.0;" x1="8" x2="171" y1="78.875" y2="78.875"/><line style="stroke: #000000; stroke-width: 1.0;" x1="8" x2="8" y1="75.875" y2="77.875"/><line style="stroke: #000000; stroke-width: 1.0;" x1="171" x2="171" y1="75.875" y2="77.875"/><text fill="#000000" font-family="sans-serif" font-size="12" lengthAdjust="spacingAndGlyphs" textLength="54" x="178" y="76.0449">champ 2</text><line style="stroke: #000000; stroke-width: 1.0;" x1="176" x2="235" y1="78.875" y2="78.875"/><line style="stroke: #000000; stroke-width: 1.0;" x1="176" x2="176" y1="75.875" y2="77.875"/><line style="stroke: #000000; stroke-width: 1.0;" x1="235" x2="235" y1="75.875" y2="77.875"/><text fill="#000000" font-family="sans-serif" font-size="12" font-weight="bold" lengthAdjust="spacingAndGlyphs" textLength="56" x="8" y="110.9824">General</text><line style="stroke: #000000; stroke-width: 1.0;" x1="6" x2="6" y1="99.8438" y2="113.8125"/><line style="stroke: #000000; stroke-width: 1.0;" x1="6" x2="67" y1="99.8438" y2="99.8438"/><line style="stroke: #000000; stroke-width: 1.0;" x1="67" x2="67" y1="99.8438" y2="113.8125"/><line style="stroke: #000000; stroke-width: 1.0;" x1="67" x2="77" y1="113.8125" y2="113.8125"/><text fill="#000000" font-family="sans-serif" font-size="12" lengthAdjust="spacingAndGlyphs" textLength="123" x="79" y="110.9824">Capture débarquée</text><line style="stroke: #000000; stroke-width: 1.0;" x1="77" x2="77" y1="99.8438" y2="113.8125"/><line style="stroke: #000000; stroke-width: 1.0;" x1="77" x2="205" y1="99.8438" y2="99.8438"/><line style="stroke: #000000; stroke-width: 1.0;" x1="205" x2="205" y1="99.8438" y2="113.8125"/><line style="stroke: #000000; stroke-width: 1.0;" x1="205" x2="215" y1="113.8125" y2="113.8125"/><text fill="#000000" font-family="sans-serif" font-size="12" lengthAdjust="spacingAndGlyphs" textLength="149" x="7" y="143.9199">Programme de collecte:</text><rect fill="#EEEEEE" height="16.9688" style="stroke: #000000; stroke-width: 1.0;" width="95" x="183" y="133.7813"/><text fill="#000000" font-family="sans-serif" font-size="12" lengthAdjust="spacingAndGlyphs" textLength="74" x="185" y="146.9199">SIH-OBSDEB</text><line style="stroke: #000000; stroke-width: 1.0;" x1="267" x2="267" y1="133.7813" y2="150.75"/><polygon fill="#000000" points="270,139.7813,276,139.7813,273,145.75" style="stroke: #000000; stroke-width: 1.0;"/><text fill="#000000" font-family="sans-serif" font-size="12" lengthAdjust="spacingAndGlyphs" textLength="43" x="7" y="165.8887">Navire:</text><rect fill="#EEEEEE" height="16.9688" style="stroke: #000000; stroke-width: 1.0;" width="95" x="183" y="155.75"/><text fill="#000000" font-family="sans-serif" font-size="12" lengthAdjust="spacingAndGlyphs" textLength="79" x="185" y="168.8887">FRA0001114</text><line style="stroke: #000000; stroke-width: 1.0;" x1="267" x2="267" y1="155.75" y2="172.7188"/><polygon fill="#000000" points="270,161.75,276,161.75,273,167.7188" style="stroke: #000000; stroke-width: 1.0;"/><path d="M285,155.75 L285,158.75 L282,158.75 L282,160.75 L285,160.75 L285,163.75 L287,163.75 L287,160.75 L290,160.75 L290,158.75 L287,158.75 L287,155.75 L285,155.75 " fill="#000000" style="stroke: ; stroke-width: 0.0; stroke-dasharray: ;"/><text fill="#000000" font-family="sans-serif" font-size="12" lengthAdjust="spacingAndGlyphs" textLength="146" x="7" y="187.8574">Lieu de débarquement:</text><rect fill="#EEEEEE" height="16.9688" style="stroke: #000000; stroke-width: 1.0;" width="143" x="183" y="177.7188"/><text fill="#000000" font-family="sans-serif" font-size="12" lengthAdjust="spacingAndGlyphs" textLength="105" x="185" y="190.8574">MA - Mahé Island</text><line style="stroke: #000000; stroke-width: 1.0;" x1="315" x2="315" y1="177.7188" y2="194.6875"/><polygon fill="#000000" points="318,183.7188,324,183.7188,321,189.6875" style="stroke: #000000; stroke-width: 1.0;"/><text fill="#000000" font-family="sans-serif" font-size="12" lengthAdjust="spacingAndGlyphs" textLength="173" x="7" y="209.8262">Date/Heure débarquement:</text><rect fill="#EEEEEE" height="16.9688" style="stroke: #000000; stroke-width: 1.0;" width="95" x="183" y="199.6875"/><text fill="#000000" font-family="sans-serif" font-size="12" lengthAdjust="spacingAndGlyphs" textLength="72" x="185" y="212.8262">01/02/2019</text><line style="stroke: #000000; stroke-width: 1.0;" x1="267" x2="267" y1="199.6875" y2="216.6563"/><polygon fill="#000000" points="270,205.6875,276,205.6875,273,211.6563" style="stroke: #000000; stroke-width: 1.0;"/><rect fill="#EEEEEE" height="16.9688" style="stroke: #000000; stroke-width: 1.0;" width="55" x="281" y="199.6875"/><text fill="#000000" font-family="sans-serif" font-size="12" lengthAdjust="spacingAndGlyphs" textLength="36" x="283" y="212.8262">09:55</text><line style="stroke: #000000; stroke-width: 1.0;" x1="325" x2="325" y1="199.6875" y2="216.6563"/><polygon fill="#000000" points="328,205.6875,334,205.6875,331,211.6563" style="stroke: #000000; stroke-width: 1.0;"/><text fill="#000000" font-family="sans-serif" font-size="12" lengthAdjust="spacingAndGlyphs" textLength="92" x="7" y="231.7949">Observateurs :</text><rect fill="#EEEEEE" height="16.9688" style="stroke: #000000; stroke-width: 1.0;" width="127" x="183" y="221.6563"/><text fill="#000000" font-family="sans-serif" font-size="12" lengthAdjust="spacingAndGlyphs" textLength="99" x="185" y="234.7949">Observateur #1</text><line style="stroke: #000000; stroke-width: 1.0;" x1="299" x2="299" y1="221.6563" y2="238.625"/><polygon fill="#000000" points="302,227.6563,308,227.6563,305,233.625" style="stroke: #000000; stroke-width: 1.0;"/><rect fill="#EEEEEE" height="12" rx="5" ry="5" style="stroke: #000000; stroke-width: 2.5;" width="20" x="315.5" y="224.1563"/><path d="M324.5,226.1563 L324.5,229.1563 L321.5,229.1563 L321.5,231.1563 L324.5,231.1563 L324.5,234.1563 L326.5,234.1563 L326.5,231.1563 L329.5,231.1563 L329.5,229.1563 L326.5,229.1563 L326.5,226.1563 L324.5,226.1563 " fill="#000000" style="stroke: ; stroke-width: 0.0; stroke-dasharray: ;"/><rect fill="#EEEEEE" height="12" rx="5" ry="5" style="stroke: #000000; stroke-width: 2.5;" width="20" x="342.5" y="224.1563"/><path d="M349.906,226.1563 L348.5,227.5623 L349.188,228.2813 L350.969,230.0623 L349.188,231.8433 L348.5,232.5623 L349.906,233.9683 L350.625,233.2803 L352.406,231.4993 L354.187,233.2803 L354.906,233.9683 L356.312,232.5623 L355.624,231.8433 L353.843,230.0623 L355.624,228.2813 L356.312,227.5623 L354.906,226.1563 L354.187,226.8443 L352.406,228.6253 L350.625,226.8443 L349.906,226.1563 " fill="#000000" style="stroke: ; stroke-width: 0.0; stroke-dasharray: ;"/><text fill="#000000" font-family="sans-serif" font-size="12" lengthAdjust="spacingAndGlyphs" textLength="151" x="7" y="253.7637">Autres caractéristiques:</text><text fill="#000000" font-family="sans-serif" font-size="12" lengthAdjust="spacingAndGlyphs" textLength="277" x="183" y="254.7637">Paramètre 1 (ex: Nombre d'homme à bord) :</text><text fill="#000000" font-family="sans-serif" font-size="12" lengthAdjust="spacingAndGlyphs" textLength="8" x="465" y="254.7637">1</text><line style="stroke: #000000; stroke-width: 1.0;" x1="463" x2="514" y1="257.5938" y2="257.5938"/><line style="stroke: #000000; stroke-width: 1.0;" x1="463" x2="463" y1="254.5938" y2="256.5938"/><line style="stroke: #000000; stroke-width: 1.0;" x1="514" x2="514" y1="254.5938" y2="256.5938"/><text fill="#000000" font-family="sans-serif" font-size="12" lengthAdjust="spacingAndGlyphs" textLength="86" x="183" y="274.7324">Paramètre 2 :</text><rect fill="#EEEEEE" height="16.9688" style="stroke: #000000; stroke-width: 1.0;" width="159" x="271" y="263.5938"/><text fill="#000000" font-family="sans-serif" font-size="12" lengthAdjust="spacingAndGlyphs" textLength="109" x="273" y="276.7324">Valeur qualitative</text><line style="stroke: #000000; stroke-width: 1.0;" x1="419" x2="419" y1="263.5938" y2="280.5625"/><polygon fill="#000000" points="422,269.5938,428,269.5938,425,275.5625" style="stroke: #000000; stroke-width: 1.0;"/><text fill="#000000" font-family="sans-serif" font-size="12" lengthAdjust="spacingAndGlyphs" textLength="86" x="183" y="296.7012">Paramètre 2 :</text><text fill="#000000" font-family="sans-serif" font-size="12" lengthAdjust="spacingAndGlyphs" textLength="20" x="291" y="296.7012">Oui</text><ellipse cx="278" cy="292.5469" fill="none" rx="5" ry="5" style="stroke: #000000; stroke-width: 1.5;"/><text fill="#000000" font-family="sans-serif" font-size="12" lengthAdjust="spacingAndGlyphs" textLength="25" x="333" y="296.7012">Non</text><ellipse cx="320" cy="292.5469" fill="none" rx="5" ry="5" style="stroke: #000000; stroke-width: 1.5;"/><ellipse cx="320" cy="292.5469" fill="#000000" rx="2" ry="2" style="stroke: #000000; stroke-width: 1.5;"/><text fill="#000000" font-family="sans-serif" font-size="12" lengthAdjust="spacingAndGlyphs" textLength="90" x="7" y="329.6387">Commentaires</text><text fill="#000000" font-family="sans-serif" font-size="12" lengthAdjust="spacingAndGlyphs" textLength="89" x="186" y="330.6387">commentaires</text><line style="stroke: #000000; stroke-width: 1.0;" x1="184" x2="339" y1="333.4688" y2="333.4688"/><line style="stroke: #000000; stroke-width: 1.0;" x1="184" x2="184" y1="330.4688" y2="332.4688"/><line style="stroke: #000000; stroke-width: 1.0;" x1="339" x2="339" y1="330.4688" y2="332.4688"/><line style="stroke: #AAAAAA; stroke-width: 1.0;" x1="6" x2="519" y1="342.9688" y2="342.9688"/><rect fill="#EEEEEE" height="17.9688" rx="5" ry="5" style="stroke: #000000; stroke-width: 2.5;" width="60" x="9.5" y="350.9688"/><text fill="#000000" font-family="sans-serif" font-size="12" lengthAdjust="spacingAndGlyphs" textLength="48" x="15.5" y="364.1074">Annuler</text><rect fill="#EEEEEE" height="17.9688" rx="5" ry="5" style="stroke: #000000; stroke-width: 2.5;" width="92" x="76.5" y="350.9688"/><text fill="#000000" font-family="sans-serif" font-size="12" lengthAdjust="spacingAndGlyphs" textLength="80" x="82.5" y="364.1074">Sauvegarder</text><line style="stroke: #000000; stroke-width: 1.0;" x1="5" x2="519" y1="5" y2="5"/><line style="stroke: #000000; stroke-width: 1.0;" x1="5" x2="519" y1="373.4375" y2="373.4375"/><line style="stroke: #000000; stroke-width: 1.0;" x1="5" x2="5" y1="5" y2="20.9688"/><line style="stroke: #000000; stroke-width: 1.0;" x1="519" x2="519" y1="5" y2="20.9688"/><line style="stroke: #000000; stroke-width: 1.0;" x1="5" x2="5" y1="338.4688" y2="346.4688"/><line style="stroke: #000000; stroke-width: 1.0;" x1="519" x2="519" y1="338.4688" y2="346.4688"/><line style="stroke: #000000; stroke-width: 1.0;" x1="5" x2="5" y1="98.8438" y2="114.8125"/><line style="stroke: #000000; stroke-width: 1.0;" x1="519" x2="519" y1="98.8438" y2="114.8125"/><line style="stroke: #000000; stroke-width: 1.0;" x1="5" x2="5" y1="44.9375" y2="82.875"/><line style="stroke: #000000; stroke-width: 1.0;" x1="519" x2="519" y1="44.9375" y2="82.875"/><line style="stroke: #000000; stroke-width: 1.0;" x1="5" x2="5" y1="20.9688" y2="28.9688"/><line style="stroke: #000000; stroke-width: 1.0;" x1="519" x2="519" y1="20.9688" y2="28.9688"/><line style="stroke: #000000; stroke-width: 1.0;" x1="5" x2="5" y1="346.4688" y2="373.4375"/><line style="stroke: #000000; stroke-width: 1.0;" x1="519" x2="519" y1="346.4688" y2="373.4375"/><line style="stroke: #000000; stroke-width: 1.0;" x1="5" x2="5" y1="114.8125" y2="338.4688"/><line style="stroke: #000000; stroke-width: 1.0;" x1="519" x2="519" y1="114.8125" y2="338.4688"/><line style="stroke: #000000; stroke-width: 1.0;" x1="5" x2="5" y1="82.875" y2="98.8438"/><line style="stroke: #000000; stroke-width: 1.0;" x1="519" x2="519" y1="82.875" y2="98.8438"/><line style="stroke: #000000; stroke-width: 1.0;" x1="5" x2="5" y1="28.9688" y2="44.9375"/><line style="stroke: #000000; stroke-width: 1.0;" x1="519" x2="519" y1="28.9688" y2="44.9375"/></g></svg>