<?xml version="1.0" encoding="us-ascii" standalone="no"?><svg xmlns="http://www.w3.org/2000/svg" xmlns:xlink="http://www.w3.org/1999/xlink" contentStyleType="text/css" height="499px" preserveAspectRatio="none" style="width:895px;height:499px;background:#FFFFFF;" version="1.1" viewBox="0 0 895 499" width="895px" zoomAndPan="magnify"><defs/><g><text fill="#000000" font-family="sans-serif" font-size="14" font-weight="bold" lengthAdjust="spacing" textLength="169" x="335" y="25.1074">OBSMER - Development</text><text fill="#000000" font-family="Serif" font-size="10" lengthAdjust="spacing" textLength="10" x="5" y="66.4121">10</text><text fill="#000000" font-family="Serif" font-size="10" lengthAdjust="spacing" textLength="10" x="33" y="66.4121">11</text><text fill="#000000" font-family="Serif" font-size="10" lengthAdjust="spacing" textLength="10" x="61" y="66.4121">12</text><text fill="#000000" font-family="Serif" font-size="10" lengthAdjust="spacing" textLength="10" x="89" y="66.4121">13</text><text fill="#000000" font-family="Serif" font-size="10" lengthAdjust="spacing" textLength="10" x="117" y="66.4121">14</text><text fill="#000000" font-family="Serif" font-size="10" lengthAdjust="spacing" textLength="10" x="145" y="66.4121">15</text><text fill="#000000" font-family="Serif" font-size="10" lengthAdjust="spacing" textLength="10" x="173" y="66.4121">16</text><text fill="#000000" font-family="Serif" font-size="10" lengthAdjust="spacing" textLength="10" x="201" y="66.4121">17</text><text fill="#000000" font-family="Serif" font-size="10" lengthAdjust="spacing" textLength="10" x="229" y="66.4121">18</text><text fill="#000000" font-family="Serif" font-size="10" lengthAdjust="spacing" textLength="10" x="257" y="66.4121">19</text><text fill="#000000" font-family="Serif" font-size="10" lengthAdjust="spacing" textLength="10" x="285" y="66.4121">20</text><text fill="#000000" font-family="Serif" font-size="10" lengthAdjust="spacing" textLength="10" x="313" y="66.4121">21</text><text fill="#000000" font-family="Serif" font-size="10" lengthAdjust="spacing" textLength="10" x="341" y="66.4121">22</text><text fill="#000000" font-family="Serif" font-size="10" lengthAdjust="spacing" textLength="10" x="369" y="66.4121">23</text><text fill="#000000" font-family="Serif" font-size="10" lengthAdjust="spacing" textLength="10" x="397" y="66.4121">24</text><text fill="#000000" font-family="Serif" font-size="10" lengthAdjust="spacing" textLength="10" x="425" y="66.4121">25</text><text fill="#000000" font-family="Serif" font-size="10" lengthAdjust="spacing" textLength="10" x="453" y="66.4121">26</text><text fill="#000000" font-family="Serif" font-size="10" lengthAdjust="spacing" textLength="10" x="481" y="66.4121">27</text><text fill="#000000" font-family="Serif" font-size="10" lengthAdjust="spacing" textLength="10" x="509" y="66.4121">28</text><text fill="#000000" font-family="Serif" font-size="10" lengthAdjust="spacing" textLength="10" x="537" y="66.4121">29</text><text fill="#000000" font-family="Serif" font-size="10" lengthAdjust="spacing" textLength="10" x="565" y="66.4121">30</text><text fill="#000000" font-family="Serif" font-size="10" lengthAdjust="spacing" textLength="10" x="593" y="66.4121">31</text><text fill="#000000" font-family="Serif" font-size="10" lengthAdjust="spacing" textLength="10" x="621" y="66.4121">32</text><text fill="#000000" font-family="Serif" font-size="10" lengthAdjust="spacing" textLength="10" x="649" y="66.4121">33</text><text fill="#000000" font-family="Serif" font-size="10" lengthAdjust="spacing" textLength="10" x="677" y="66.4121">34</text><text fill="#000000" font-family="Serif" font-size="10" lengthAdjust="spacing" textLength="10" x="705" y="66.4121">35</text><text fill="#000000" font-family="Serif" font-size="10" lengthAdjust="spacing" textLength="10" x="733" y="66.4121">36</text><text fill="#000000" font-family="Serif" font-size="10" lengthAdjust="spacing" textLength="10" x="761" y="66.4121">37</text><text fill="#000000" font-family="Serif" font-size="10" lengthAdjust="spacing" textLength="10" x="789" y="66.4121">38</text><text fill="#000000" font-family="Serif" font-size="10" lengthAdjust="spacing" textLength="10" x="817" y="66.4121">39</text><line style="stroke:#C0C0C0;stroke-width:1.0;" x1="0" x2="0" y1="55.6211" y2="497.1309"/><line style="stroke:#C0C0C0;stroke-width:1.0;" x1="28" x2="28" y1="55.6211" y2="497.1309"/><line style="stroke:#C0C0C0;stroke-width:1.0;" x1="56" x2="56" y1="55.6211" y2="497.1309"/><line style="stroke:#C0C0C0;stroke-width:1.0;" x1="84" x2="84" y1="55.6211" y2="497.1309"/><line style="stroke:#C0C0C0;stroke-width:1.0;" x1="112" x2="112" y1="55.6211" y2="497.1309"/><line style="stroke:#C0C0C0;stroke-width:1.0;" x1="140" x2="140" y1="55.6211" y2="497.1309"/><line style="stroke:#C0C0C0;stroke-width:1.0;" x1="168" x2="168" y1="55.6211" y2="497.1309"/><line style="stroke:#C0C0C0;stroke-width:1.0;" x1="196" x2="196" y1="55.6211" y2="497.1309"/><line style="stroke:#C0C0C0;stroke-width:1.0;" x1="224" x2="224" y1="55.6211" y2="497.1309"/><line style="stroke:#C0C0C0;stroke-width:1.0;" x1="252" x2="252" y1="55.6211" y2="497.1309"/><line style="stroke:#C0C0C0;stroke-width:1.0;" x1="280" x2="280" y1="55.6211" y2="497.1309"/><line style="stroke:#C0C0C0;stroke-width:1.0;" x1="308" x2="308" y1="55.6211" y2="497.1309"/><line style="stroke:#C0C0C0;stroke-width:1.0;" x1="336" x2="336" y1="55.6211" y2="497.1309"/><line style="stroke:#C0C0C0;stroke-width:1.0;" x1="364" x2="364" y1="55.6211" y2="497.1309"/><line style="stroke:#C0C0C0;stroke-width:1.0;" x1="392" x2="392" y1="55.6211" y2="497.1309"/><line style="stroke:#C0C0C0;stroke-width:1.0;" x1="420" x2="420" y1="55.6211" y2="497.1309"/><line style="stroke:#C0C0C0;stroke-width:1.0;" x1="448" x2="448" y1="55.6211" y2="497.1309"/><line style="stroke:#C0C0C0;stroke-width:1.0;" x1="476" x2="476" y1="55.6211" y2="497.1309"/><line style="stroke:#C0C0C0;stroke-width:1.0;" x1="504" x2="504" y1="55.6211" y2="497.1309"/><line style="stroke:#C0C0C0;stroke-width:1.0;" x1="532" x2="532" y1="55.6211" y2="497.1309"/><line style="stroke:#C0C0C0;stroke-width:1.0;" x1="560" x2="560" y1="55.6211" y2="497.1309"/><line style="stroke:#C0C0C0;stroke-width:1.0;" x1="588" x2="588" y1="55.6211" y2="497.1309"/><line style="stroke:#C0C0C0;stroke-width:1.0;" x1="616" x2="616" y1="55.6211" y2="497.1309"/><line style="stroke:#C0C0C0;stroke-width:1.0;" x1="644" x2="644" y1="55.6211" y2="497.1309"/><line style="stroke:#C0C0C0;stroke-width:1.0;" x1="672" x2="672" y1="55.6211" y2="497.1309"/><line style="stroke:#C0C0C0;stroke-width:1.0;" x1="700" x2="700" y1="55.6211" y2="497.1309"/><line style="stroke:#C0C0C0;stroke-width:1.0;" x1="728" x2="728" y1="55.6211" y2="497.1309"/><line style="stroke:#C0C0C0;stroke-width:1.0;" x1="756" x2="756" y1="55.6211" y2="497.1309"/><line style="stroke:#C0C0C0;stroke-width:1.0;" x1="784" x2="784" y1="55.6211" y2="497.1309"/><line style="stroke:#C0C0C0;stroke-width:1.0;" x1="812" x2="812" y1="55.6211" y2="497.1309"/><line style="stroke:#C0C0C0;stroke-width:1.0;" x1="840" x2="840" y1="55.6211" y2="497.1309"/><line style="stroke:#C0C0C0;stroke-width:1.0;" x1="0" x2="0" y1="39.6211" y2="55.6211"/><line style="stroke:#C0C0C0;stroke-width:1.0;" x1="112" x2="112" y1="39.6211" y2="55.6211"/><text fill="#000000" font-family="Serif" font-size="12" font-weight="bold" lengthAdjust="spacing" textLength="49" x="31.5" y="52.5703">Mar 2024</text><line style="stroke:#C0C0C0;stroke-width:1.0;" x1="232" x2="232" y1="39.6211" y2="55.6211"/><text fill="#000000" font-family="Serif" font-size="12" font-weight="bold" lengthAdjust="spacing" textLength="46" x="149" y="52.5703">Apr 2024</text><line style="stroke:#C0C0C0;stroke-width:1.0;" x1="356" x2="356" y1="39.6211" y2="55.6211"/><text fill="#000000" font-family="Serif" font-size="12" font-weight="bold" lengthAdjust="spacing" textLength="50" x="269" y="52.5703">May 2024</text><line style="stroke:#C0C0C0;stroke-width:1.0;" x1="476" x2="476" y1="39.6211" y2="55.6211"/><text fill="#000000" font-family="Serif" font-size="12" font-weight="bold" lengthAdjust="spacing" textLength="47" x="392.5" y="52.5703">Jun 2024</text><line style="stroke:#C0C0C0;stroke-width:1.0;" x1="600" x2="600" y1="39.6211" y2="55.6211"/><text fill="#000000" font-family="Serif" font-size="12" font-weight="bold" lengthAdjust="spacing" textLength="44" x="516" y="52.5703">Jul 2024</text><line style="stroke:#C0C0C0;stroke-width:1.0;" x1="724" x2="724" y1="39.6211" y2="55.6211"/><text fill="#000000" font-family="Serif" font-size="12" font-weight="bold" lengthAdjust="spacing" textLength="48" x="638" y="52.5703">Aug 2024</text><line style="stroke:#C0C0C0;stroke-width:1.0;" x1="840" x2="840" y1="39.6211" y2="55.6211"/><text fill="#000000" font-family="Serif" font-size="12" font-weight="bold" lengthAdjust="spacing" textLength="47" x="758.5" y="52.5703">Sep 2024</text><line style="stroke:#C0C0C0;stroke-width:1.0;" x1="0" x2="840" y1="39.6211" y2="39.6211"/><line style="stroke:#C0C0C0;stroke-width:1.0;" x1="0" x2="840" y1="55.6211" y2="55.6211"/><line style="stroke:#C0C0C0;stroke-width:1.0;" x1="0" x2="840" y1="68.6211" y2="68.6211"/><line style="stroke:#181818;stroke-width:1.5;" x1="19" x2="19" y1="85.252" y2="96.5674"/><line style="stroke:#181818;stroke-width:1.5;" x1="19" x2="27" y1="96.5674" y2="96.5674"/><polygon fill="#181818" points="23,92.5674,23,96.5674,23,100.5674,27,96.5674" style="stroke:#181818;stroke-width:1.5;"/><line style="stroke:#181818;stroke-width:1.5;" x1="131" x2="131" y1="103.8828" y2="115.1982"/><line style="stroke:#181818;stroke-width:1.5;" x1="131" x2="139" y1="115.1982" y2="115.1982"/><polygon fill="#181818" points="135,111.1982,135,115.1982,135,119.1982,139,115.1982" style="stroke:#181818;stroke-width:1.5;"/><line style="stroke:#181818;stroke-width:1.5;" x1="131" x2="131" y1="103.8828" y2="152.46"/><line style="stroke:#181818;stroke-width:1.5;" x1="131" x2="139" y1="152.46" y2="152.46"/><polygon fill="#181818" points="135,148.46,135,152.46,135,156.46,139,152.46" style="stroke:#181818;stroke-width:1.5;"/><line style="stroke:#181818;stroke-width:1.5;" x1="215" x2="215" y1="159.7754" y2="171.0908"/><line style="stroke:#181818;stroke-width:1.5;" x1="215" x2="223" y1="171.0908" y2="171.0908"/><polygon fill="#181818" points="219,167.0908,219,171.0908,219,175.0908,223,171.0908" style="stroke:#181818;stroke-width:1.5;"/><line style="stroke:#181818;stroke-width:1.5;" x1="215" x2="215" y1="159.7754" y2="208.3525"/><line style="stroke:#181818;stroke-width:1.5;" x1="215" x2="223" y1="208.3525" y2="208.3525"/><polygon fill="#181818" points="219,204.3525,219,208.3525,219,212.3525,223,208.3525" style="stroke:#181818;stroke-width:1.5;"/><line style="stroke:#181818;stroke-width:1.5;" x1="327" x2="327" y1="215.668" y2="226.9834"/><line style="stroke:#181818;stroke-width:1.5;" x1="327" x2="335" y1="226.9834" y2="226.9834"/><polygon fill="#181818" points="331,222.9834,331,226.9834,331,230.9834,335,226.9834" style="stroke:#181818;stroke-width:1.5;"/><line style="stroke:#181818;stroke-width:1.5;" x1="327" x2="327" y1="215.668" y2="264.2451"/><line style="stroke:#181818;stroke-width:1.5;" x1="327" x2="335" y1="264.2451" y2="264.2451"/><polygon fill="#181818" points="331,260.2451,331,264.2451,331,268.2451,335,264.2451" style="stroke:#181818;stroke-width:1.5;"/><line style="stroke:#181818;stroke-width:1.5;" x1="411" x2="411" y1="271.5605" y2="282.876"/><line style="stroke:#181818;stroke-width:1.5;" x1="411" x2="419" y1="282.876" y2="282.876"/><polygon fill="#181818" points="415,278.876,415,282.876,415,286.876,419,282.876" style="stroke:#181818;stroke-width:1.5;"/><line style="stroke:#181818;stroke-width:1.5;" x1="411" x2="411" y1="271.5605" y2="320.1377"/><line style="stroke:#181818;stroke-width:1.5;" x1="411" x2="419" y1="320.1377" y2="320.1377"/><polygon fill="#181818" points="415,316.1377,415,320.1377,415,324.1377,419,320.1377" style="stroke:#181818;stroke-width:1.5;"/><line style="stroke:#181818;stroke-width:1.5;" x1="495" x2="495" y1="327.4531" y2="338.7686"/><line style="stroke:#181818;stroke-width:1.5;" x1="495" x2="503" y1="338.7686" y2="338.7686"/><polygon fill="#181818" points="499,334.7686,499,338.7686,499,342.7686,503,338.7686" style="stroke:#181818;stroke-width:1.5;"/><line style="stroke:#181818;stroke-width:1.5;" x1="495" x2="495" y1="327.4531" y2="376.0303"/><line style="stroke:#181818;stroke-width:1.5;" x1="495" x2="503" y1="376.0303" y2="376.0303"/><polygon fill="#181818" points="499,372.0303,499,376.0303,499,380.0303,503,376.0303" style="stroke:#181818;stroke-width:1.5;"/><line style="stroke:#181818;stroke-width:1.5;" x1="607" x2="607" y1="383.3457" y2="394.6611"/><line style="stroke:#181818;stroke-width:1.5;" x1="607" x2="615" y1="394.6611" y2="394.6611"/><polygon fill="#181818" points="611,390.6611,611,394.6611,611,398.6611,615,394.6611" style="stroke:#181818;stroke-width:1.5;"/><rect fill="#008000" height="14.6309" style="stroke:none;stroke-width:1.0;" width="24" x="2" y="70.6211"/><line style="stroke:#90EE90;stroke-width:1.0;" x1="2" x2="26" y1="70.6211" y2="70.6211"/><line style="stroke:#90EE90;stroke-width:1.0;" x1="2" x2="26" y1="85.252" y2="85.252"/><line style="stroke:#90EE90;stroke-width:1.0;" x1="2" x2="2" y1="70.6211" y2="85.252"/><line style="stroke:#90EE90;stroke-width:1.0;" x1="26" x2="26" y1="70.6211" y2="85.252"/><rect fill="#E6E6FA" height="14.6309" style="stroke:none;stroke-width:1.0;" width="108" x="30" y="89.252"/><line style="stroke:#ADD8E6;stroke-width:1.0;" x1="30" x2="138" y1="89.252" y2="89.252"/><line style="stroke:#ADD8E6;stroke-width:1.0;" x1="30" x2="138" y1="103.8828" y2="103.8828"/><line style="stroke:#ADD8E6;stroke-width:1.0;" x1="30" x2="30" y1="89.252" y2="103.8828"/><line style="stroke:#ADD8E6;stroke-width:1.0;" x1="138" x2="138" y1="89.252" y2="103.8828"/><rect fill="#E2E2F0" height="14.6309" style="stroke:none;stroke-width:1.0;" width="24" x="142" y="107.8828"/><line style="stroke:#181818;stroke-width:1.0;" x1="142" x2="166" y1="107.8828" y2="107.8828"/><line style="stroke:#181818;stroke-width:1.0;" x1="142" x2="166" y1="122.5137" y2="122.5137"/><line style="stroke:#181818;stroke-width:1.0;" x1="142" x2="142" y1="107.8828" y2="122.5137"/><line style="stroke:#181818;stroke-width:1.0;" x1="166" x2="166" y1="107.8828" y2="122.5137"/><polygon fill="#000000" points="170,126.5137,175,131.5137,170,136.5137,165,131.5137" style="stroke:#000000;stroke-width:1.0;"/><rect fill="#E6E6FA" height="14.6309" style="stroke:none;stroke-width:1.0;" width="80" x="142" y="145.1445"/><line style="stroke:#ADD8E6;stroke-width:1.0;" x1="142" x2="222" y1="145.1445" y2="145.1445"/><line style="stroke:#ADD8E6;stroke-width:1.0;" x1="142" x2="222" y1="159.7754" y2="159.7754"/><line style="stroke:#ADD8E6;stroke-width:1.0;" x1="142" x2="142" y1="145.1445" y2="159.7754"/><line style="stroke:#ADD8E6;stroke-width:1.0;" x1="222" x2="222" y1="145.1445" y2="159.7754"/><rect fill="#E2E2F0" height="14.6309" style="stroke:none;stroke-width:1.0;" width="24" x="226" y="163.7754"/><line style="stroke:#181818;stroke-width:1.0;" x1="226" x2="250" y1="163.7754" y2="163.7754"/><line style="stroke:#181818;stroke-width:1.0;" x1="226" x2="250" y1="178.4063" y2="178.4063"/><line style="stroke:#181818;stroke-width:1.0;" x1="226" x2="226" y1="163.7754" y2="178.4063"/><line style="stroke:#181818;stroke-width:1.0;" x1="250" x2="250" y1="163.7754" y2="178.4063"/><rect fill="#FA8072" height="14.6309" style="stroke:none;stroke-width:1.0;" width="24" x="170" y="182.4063"/><line style="stroke:#FA8072;stroke-width:1.0;" x1="170" x2="194" y1="182.4063" y2="182.4063"/><line style="stroke:#FA8072;stroke-width:1.0;" x1="170" x2="194" y1="197.0371" y2="197.0371"/><line style="stroke:#FA8072;stroke-width:1.0;" x1="170" x2="170" y1="182.4063" y2="197.0371"/><line style="stroke:#FA8072;stroke-width:1.0;" x1="194" x2="194" y1="182.4063" y2="197.0371"/><rect fill="#E6E6FA" height="14.6309" style="stroke:none;stroke-width:1.0;" width="108" x="226" y="201.0371"/><line style="stroke:#ADD8E6;stroke-width:1.0;" x1="226" x2="334" y1="201.0371" y2="201.0371"/><line style="stroke:#ADD8E6;stroke-width:1.0;" x1="226" x2="334" y1="215.668" y2="215.668"/><line style="stroke:#ADD8E6;stroke-width:1.0;" x1="226" x2="226" y1="201.0371" y2="215.668"/><line style="stroke:#ADD8E6;stroke-width:1.0;" x1="334" x2="334" y1="201.0371" y2="215.668"/><rect fill="#E2E2F0" height="14.6309" style="stroke:none;stroke-width:1.0;" width="24" x="338" y="219.668"/><line style="stroke:#181818;stroke-width:1.0;" x1="338" x2="362" y1="219.668" y2="219.668"/><line style="stroke:#181818;stroke-width:1.0;" x1="338" x2="362" y1="234.2988" y2="234.2988"/><line style="stroke:#181818;stroke-width:1.0;" x1="338" x2="338" y1="219.668" y2="234.2988"/><line style="stroke:#181818;stroke-width:1.0;" x1="362" x2="362" y1="219.668" y2="234.2988"/><polygon fill="#000000" points="366,238.2988,371,243.2988,366,248.2988,361,243.2988" style="stroke:#000000;stroke-width:1.0;"/><rect fill="#E6E6FA" height="14.6309" style="stroke:none;stroke-width:1.0;" width="80" x="338" y="256.9297"/><line style="stroke:#ADD8E6;stroke-width:1.0;" x1="338" x2="418" y1="256.9297" y2="256.9297"/><line style="stroke:#ADD8E6;stroke-width:1.0;" x1="338" x2="418" y1="271.5605" y2="271.5605"/><line style="stroke:#ADD8E6;stroke-width:1.0;" x1="338" x2="338" y1="256.9297" y2="271.5605"/><line style="stroke:#ADD8E6;stroke-width:1.0;" x1="418" x2="418" y1="256.9297" y2="271.5605"/><rect fill="#E2E2F0" height="14.6309" style="stroke:none;stroke-width:1.0;" width="24" x="422" y="275.5605"/><line style="stroke:#181818;stroke-width:1.0;" x1="422" x2="446" y1="275.5605" y2="275.5605"/><line style="stroke:#181818;stroke-width:1.0;" x1="422" x2="446" y1="290.1914" y2="290.1914"/><line style="stroke:#181818;stroke-width:1.0;" x1="422" x2="422" y1="275.5605" y2="290.1914"/><line style="stroke:#181818;stroke-width:1.0;" x1="446" x2="446" y1="275.5605" y2="290.1914"/><polygon fill="#000000" points="450,294.1914,455,299.1914,450,304.1914,445,299.1914" style="stroke:#000000;stroke-width:1.0;"/><rect fill="#E6E6FA" height="14.6309" style="stroke:none;stroke-width:1.0;" width="80" x="422" y="312.8223"/><line style="stroke:#ADD8E6;stroke-width:1.0;" x1="422" x2="502" y1="312.8223" y2="312.8223"/><line style="stroke:#ADD8E6;stroke-width:1.0;" x1="422" x2="502" y1="327.4531" y2="327.4531"/><line style="stroke:#ADD8E6;stroke-width:1.0;" x1="422" x2="422" y1="312.8223" y2="327.4531"/><line style="stroke:#ADD8E6;stroke-width:1.0;" x1="502" x2="502" y1="312.8223" y2="327.4531"/><rect fill="#E2E2F0" height="14.6309" style="stroke:none;stroke-width:1.0;" width="24" x="506" y="331.4531"/><line style="stroke:#181818;stroke-width:1.0;" x1="506" x2="530" y1="331.4531" y2="331.4531"/><line style="stroke:#181818;stroke-width:1.0;" x1="506" x2="530" y1="346.084" y2="346.084"/><line style="stroke:#181818;stroke-width:1.0;" x1="506" x2="506" y1="331.4531" y2="346.084"/><line style="stroke:#181818;stroke-width:1.0;" x1="530" x2="530" y1="331.4531" y2="346.084"/><polygon fill="#000000" points="534,350.084,539,355.084,534,360.084,529,355.084" style="stroke:#000000;stroke-width:1.0;"/><rect fill="#E6E6FA" height="14.6309" style="stroke:none;stroke-width:1.0;" width="108" x="506" y="368.7148"/><line style="stroke:#ADD8E6;stroke-width:1.0;" x1="506" x2="614" y1="368.7148" y2="368.7148"/><line style="stroke:#ADD8E6;stroke-width:1.0;" x1="506" x2="614" y1="383.3457" y2="383.3457"/><line style="stroke:#ADD8E6;stroke-width:1.0;" x1="506" x2="506" y1="368.7148" y2="383.3457"/><line style="stroke:#ADD8E6;stroke-width:1.0;" x1="614" x2="614" y1="368.7148" y2="383.3457"/><rect fill="#E2E2F0" height="14.6309" style="stroke:none;stroke-width:1.0;" width="52" x="618" y="387.3457"/><line style="stroke:#181818;stroke-width:1.0;" x1="618" x2="670" y1="387.3457" y2="387.3457"/><line style="stroke:#181818;stroke-width:1.0;" x1="618" x2="670" y1="401.9766" y2="401.9766"/><line style="stroke:#181818;stroke-width:1.0;" x1="618" x2="618" y1="387.3457" y2="401.9766"/><line style="stroke:#181818;stroke-width:1.0;" x1="670" x2="670" y1="387.3457" y2="401.9766"/><polygon fill="#000000" points="674,405.9766,679,410.9766,674,415.9766,669,410.9766" style="stroke:#000000;stroke-width:1.0;"/><rect fill="#E6E6FA" height="14.6309" style="stroke:none;stroke-width:1.0;" width="80" x="730" y="424.6074"/><line style="stroke:#ADD8E6;stroke-width:1.0;" x1="730" x2="810" y1="424.6074" y2="424.6074"/><line style="stroke:#ADD8E6;stroke-width:1.0;" x1="730" x2="810" y1="439.2383" y2="439.2383"/><line style="stroke:#ADD8E6;stroke-width:1.0;" x1="730" x2="730" y1="424.6074" y2="439.2383"/><line style="stroke:#ADD8E6;stroke-width:1.0;" x1="810" x2="810" y1="424.6074" y2="439.2383"/><rect fill="#E2E2F0" height="14.6309" style="stroke:none;stroke-width:1.0;" width="24" x="730" y="443.2383"/><line style="stroke:#181818;stroke-width:1.0;" x1="730" x2="754" y1="443.2383" y2="443.2383"/><line style="stroke:#181818;stroke-width:1.0;" x1="730" x2="754" y1="457.8691" y2="457.8691"/><line style="stroke:#181818;stroke-width:1.0;" x1="730" x2="730" y1="443.2383" y2="457.8691"/><line style="stroke:#181818;stroke-width:1.0;" x1="754" x2="754" y1="443.2383" y2="457.8691"/><polygon fill="#000000" points="734,461.8691,739,466.8691,734,471.8691,729,466.8691" style="stroke:#000000;stroke-width:1.0;"/><rect fill="#FF0000" height="14.6309" style="stroke:none;stroke-width:1.0;" width="24" x="814" y="480.5"/><line style="stroke:#FF0000;stroke-width:1.0;" x1="814" x2="838" y1="480.5" y2="480.5"/><line style="stroke:#FF0000;stroke-width:1.0;" x1="814" x2="838" y1="495.1309" y2="495.1309"/><line style="stroke:#FF0000;stroke-width:1.0;" x1="814" x2="814" y1="480.5" y2="495.1309"/><line style="stroke:#FF0000;stroke-width:1.0;" x1="838" x2="838" y1="480.5" y2="495.1309"/><text fill="#000000" font-family="sans-serif" font-size="11" lengthAdjust="spacing" textLength="38" x="30" y="82.4912">Training</text><text fill="#000000" font-family="sans-serif" font-size="11" lengthAdjust="spacing" textLength="37" x="34" y="101.1221">Sprint 1</text><text fill="#000000" font-family="sans-serif" font-size="11" lengthAdjust="spacing" textLength="41" x="170" y="119.7529">Testing1</text><text fill="#000000" font-family="sans-serif" font-size="11" lengthAdjust="spacing" textLength="63" x="178" y="138.3838">Demo MOA 1</text><text fill="#000000" font-family="sans-serif" font-size="11" lengthAdjust="spacing" textLength="37" x="146" y="157.0146">Sprint 2</text><text fill="#000000" font-family="sans-serif" font-size="11" lengthAdjust="spacing" textLength="41" x="254" y="175.6455">Testing2</text><text fill="#000000" font-family="sans-serif" font-size="11" lengthAdjust="spacing" textLength="42" x="198" y="194.2764">pre-prod</text><text fill="#000000" font-family="sans-serif" font-size="11" lengthAdjust="spacing" textLength="37" x="230" y="212.9072">Sprint 3</text><text fill="#000000" font-family="sans-serif" font-size="11" lengthAdjust="spacing" textLength="41" x="366" y="231.5381">Testing3</text><text fill="#000000" font-family="sans-serif" font-size="11" lengthAdjust="spacing" textLength="63" x="374" y="250.1689">Demo MOA 2</text><text fill="#000000" font-family="sans-serif" font-size="11" lengthAdjust="spacing" textLength="37" x="342" y="268.7998">Sprint 4</text><text fill="#000000" font-family="sans-serif" font-size="11" lengthAdjust="spacing" textLength="41" x="450" y="287.4307">Testing4</text><text fill="#000000" font-family="sans-serif" font-size="11" lengthAdjust="spacing" textLength="63" x="458" y="306.0615">Demo MOA 4</text><text fill="#000000" font-family="sans-serif" font-size="11" lengthAdjust="spacing" textLength="37" x="426" y="324.6924">Sprint 5</text><text fill="#000000" font-family="sans-serif" font-size="11" lengthAdjust="spacing" textLength="41" x="534" y="343.3232">Testing5</text><text fill="#000000" font-family="sans-serif" font-size="11" lengthAdjust="spacing" textLength="63" x="542" y="361.9541">Demo MOA 5</text><text fill="#000000" font-family="sans-serif" font-size="11" lengthAdjust="spacing" textLength="37" x="510" y="380.585">Sprint 6</text><text fill="#000000" font-family="sans-serif" font-size="11" lengthAdjust="spacing" textLength="41" x="622" y="399.2158">Testing6</text><text fill="#000000" font-family="sans-serif" font-size="11" lengthAdjust="spacing" textLength="63" x="682" y="417.8467">Demo MOA 6</text><text fill="#000000" font-family="sans-serif" font-size="11" lengthAdjust="spacing" textLength="37" x="734" y="436.4775">Sprint 7</text><text fill="#000000" font-family="sans-serif" font-size="11" lengthAdjust="spacing" textLength="41" x="758" y="455.1084">Testing7</text><text fill="#000000" font-family="sans-serif" font-size="11" lengthAdjust="spacing" textLength="103" x="742" y="473.7393">Demo MOA/COORD 1</text><text fill="#000000" font-family="sans-serif" font-size="11" lengthAdjust="spacing" textLength="51" x="842" y="492.3701">production</text><!--SRC=[ZTNDSjem403WkvvYRqqEX5YopGo7JWZGJ1CeZA7fWSb1mGBK6edACYrlNzcEaL8mySbWQty-5ibtgQPAhwdG6crup60bfNwLVn7QAIvqkgG9Wp-C_KeEvexyoPRlxo7DjVaskP-DXn6qOC3sB96xBHCQeMaP04MD5FI60Rx5VlkMj6zzj9WhoWKNwnUWAIpcKU_hD-y55FkTSSLIy8eQwFY0fx2KYLGi1YxWGJ4csYE-tkZY8qABMT4oU6_vUhCdDvrVf4jHzU1zkX7TCn4pLMQyJp9sBDpw_1PYIinPgat7PziirkIBgpLeCM1R2UD9B-zfGtSx9lBrCJq0NMccmAxzb8AfRn7O8h1JZBW8t0XnRAk8E19m3G4x19oJTugrpEJZig5fD9n6ay59C50HktFs0hq1kOAUuIJ5r96DVTzrIfEjTEP7B9tKpOyqfUEAJYoTrD29GoVkzF3bwP6JwVcMuDTDpszA81N1jmI_Xk0x1Dyb-9S9_WaXi8IWZX0q9VWL8R24e8OGE8J09GIN2S498RI4iEwF53Ob11KXj0GtAtO8eKC8NK9ucH0U2KT3nnewfsFuVzVXSjFDs4wpxQl9N6wyj-W6qBAFpldj_N4bIstt9vDeyD6vryd1HTRYe95njjHSYkgeQN3EO7AUVEwWCHU4xWowVDsXQMAktySZs3ELchBWtPXWSkDvLpzCX4a97Z7vkZZi4WBzuMoUPoVNwEfXEe9KPch98EQfLlmronk_HezqJo7AXEPRreM9aJyEdgeRC1HxhgGetewFpsEx8FHRzroRaihq0izZD60hcYNQH2nbR7wfBlHt7Wum6b6npkZQ95yfr9SciJfquKlq3m00]--></g></svg>