<?xml version="1.0" encoding="us-ascii" standalone="no"?><svg xmlns="http://www.w3.org/2000/svg" xmlns:xlink="http://www.w3.org/1999/xlink" contentStyleType="text/css" height="409px" preserveAspectRatio="none" style="width:1606px;height:409px;background:#FFFFFF;" version="1.1" viewBox="0 0 1606 409" width="1606px" zoomAndPan="magnify"><defs/><g><text fill="#000000" font-family="sans-serif" font-size="14" font-weight="bold" lengthAdjust="spacing" textLength="169" x="689" y="25.1074">OBSMER - Development</text><rect fill="#FFFAFA" height="29" style="stroke:none;stroke-width:1.0;" width="1548" x="0" y="39.6211"/><text fill="#000000" font-family="Serif" font-size="10" lengthAdjust="spacing" textLength="10" x="5" y="66.4121">10</text><text fill="#000000" font-family="Serif" font-size="10" lengthAdjust="spacing" textLength="10" x="33" y="66.4121">11</text><text fill="#000000" font-family="Serif" font-size="10" lengthAdjust="spacing" textLength="10" x="61" y="66.4121">12</text><text fill="#000000" font-family="Serif" font-size="10" lengthAdjust="spacing" textLength="10" x="89" y="66.4121">13</text><text fill="#000000" font-family="Serif" font-size="10" lengthAdjust="spacing" textLength="10" x="117" y="66.4121">14</text><text fill="#000000" font-family="Serif" font-size="10" lengthAdjust="spacing" textLength="10" x="145" y="66.4121">15</text><text fill="#000000" font-family="Serif" font-size="10" lengthAdjust="spacing" textLength="10" x="173" y="66.4121">16</text><text fill="#000000" font-family="Serif" font-size="10" lengthAdjust="spacing" textLength="10" x="201" y="66.4121">17</text><text fill="#000000" font-family="Serif" font-size="10" lengthAdjust="spacing" textLength="10" x="229" y="66.4121">18</text><text fill="#000000" font-family="Serif" font-size="10" lengthAdjust="spacing" textLength="10" x="257" y="66.4121">19</text><text fill="#000000" font-family="Serif" font-size="10" lengthAdjust="spacing" textLength="10" x="285" y="66.4121">20</text><text fill="#000000" font-family="Serif" font-size="10" lengthAdjust="spacing" textLength="10" x="313" y="66.4121">21</text><text fill="#000000" font-family="Serif" font-size="10" lengthAdjust="spacing" textLength="10" x="341" y="66.4121">22</text><text fill="#000000" font-family="Serif" font-size="10" lengthAdjust="spacing" textLength="10" x="369" y="66.4121">23</text><text fill="#000000" font-family="Serif" font-size="10" lengthAdjust="spacing" textLength="10" x="397" y="66.4121">24</text><text fill="#000000" font-family="Serif" font-size="10" lengthAdjust="spacing" textLength="10" x="425" y="66.4121">25</text><text fill="#000000" font-family="Serif" font-size="10" lengthAdjust="spacing" textLength="10" x="453" y="66.4121">26</text><text fill="#000000" font-family="Serif" font-size="10" lengthAdjust="spacing" textLength="10" x="481" y="66.4121">27</text><text fill="#000000" font-family="Serif" font-size="10" lengthAdjust="spacing" textLength="10" x="509" y="66.4121">28</text><text fill="#000000" font-family="Serif" font-size="10" lengthAdjust="spacing" textLength="10" x="537" y="66.4121">29</text><text fill="#000000" font-family="Serif" font-size="10" lengthAdjust="spacing" textLength="10" x="565" y="66.4121">30</text><text fill="#000000" font-family="Serif" font-size="10" lengthAdjust="spacing" textLength="10" x="593" y="66.4121">31</text><text fill="#000000" font-family="Serif" font-size="10" lengthAdjust="spacing" textLength="10" x="621" y="66.4121">32</text><text fill="#000000" font-family="Serif" font-size="10" lengthAdjust="spacing" textLength="10" x="649" y="66.4121">33</text><text fill="#000000" font-family="Serif" font-size="10" lengthAdjust="spacing" textLength="10" x="677" y="66.4121">34</text><text fill="#000000" font-family="Serif" font-size="10" lengthAdjust="spacing" textLength="10" x="705" y="66.4121">35</text><text fill="#000000" font-family="Serif" font-size="10" lengthAdjust="spacing" textLength="10" x="733" y="66.4121">36</text><text fill="#000000" font-family="Serif" font-size="10" lengthAdjust="spacing" textLength="10" x="761" y="66.4121">37</text><text fill="#000000" font-family="Serif" font-size="10" lengthAdjust="spacing" textLength="10" x="789" y="66.4121">38</text><text fill="#000000" font-family="Serif" font-size="10" lengthAdjust="spacing" textLength="10" x="817" y="66.4121">39</text><text fill="#000000" font-family="Serif" font-size="10" lengthAdjust="spacing" textLength="10" x="845" y="66.4121">40</text><text fill="#000000" font-family="Serif" font-size="10" lengthAdjust="spacing" textLength="10" x="873" y="66.4121">41</text><text fill="#000000" font-family="Serif" font-size="10" lengthAdjust="spacing" textLength="10" x="901" y="66.4121">42</text><text fill="#000000" font-family="Serif" font-size="10" lengthAdjust="spacing" textLength="10" x="929" y="66.4121">43</text><text fill="#000000" font-family="Serif" font-size="10" lengthAdjust="spacing" textLength="10" x="957" y="66.4121">44</text><text fill="#000000" font-family="Serif" font-size="10" lengthAdjust="spacing" textLength="10" x="985" y="66.4121">45</text><text fill="#000000" font-family="Serif" font-size="10" lengthAdjust="spacing" textLength="10" x="1013" y="66.4121">46</text><text fill="#000000" font-family="Serif" font-size="10" lengthAdjust="spacing" textLength="10" x="1041" y="66.4121">47</text><text fill="#000000" font-family="Serif" font-size="10" lengthAdjust="spacing" textLength="10" x="1069" y="66.4121">48</text><text fill="#000000" font-family="Serif" font-size="10" lengthAdjust="spacing" textLength="10" x="1097" y="66.4121">49</text><text fill="#000000" font-family="Serif" font-size="10" lengthAdjust="spacing" textLength="10" x="1125" y="66.4121">50</text><text fill="#000000" font-family="Serif" font-size="10" lengthAdjust="spacing" textLength="10" x="1153" y="66.4121">51</text><text fill="#000000" font-family="Serif" font-size="10" lengthAdjust="spacing" textLength="10" x="1181" y="66.4121">52</text><text fill="#000000" font-family="Serif" font-size="10" lengthAdjust="spacing" textLength="5" x="1209" y="66.4121">1</text><text fill="#000000" font-family="Serif" font-size="10" lengthAdjust="spacing" textLength="5" x="1237" y="66.4121">2</text><text fill="#000000" font-family="Serif" font-size="10" lengthAdjust="spacing" textLength="5" x="1265" y="66.4121">3</text><text fill="#000000" font-family="Serif" font-size="10" lengthAdjust="spacing" textLength="5" x="1293" y="66.4121">4</text><text fill="#000000" font-family="Serif" font-size="10" lengthAdjust="spacing" textLength="5" x="1321" y="66.4121">5</text><text fill="#000000" font-family="Serif" font-size="10" lengthAdjust="spacing" textLength="5" x="1349" y="66.4121">6</text><text fill="#000000" font-family="Serif" font-size="10" lengthAdjust="spacing" textLength="5" x="1377" y="66.4121">7</text><text fill="#000000" font-family="Serif" font-size="10" lengthAdjust="spacing" textLength="5" x="1405" y="66.4121">8</text><text fill="#000000" font-family="Serif" font-size="10" lengthAdjust="spacing" textLength="5" x="1433" y="66.4121">9</text><text fill="#000000" font-family="Serif" font-size="10" lengthAdjust="spacing" textLength="10" x="1461" y="66.4121">10</text><text fill="#000000" font-family="Serif" font-size="10" lengthAdjust="spacing" textLength="10" x="1489" y="66.4121">11</text><text fill="#000000" font-family="Serif" font-size="10" lengthAdjust="spacing" textLength="10" x="1517" y="66.4121">12</text><text fill="#000000" font-family="Serif" font-size="10" lengthAdjust="spacing" textLength="10" x="1545" y="66.4121">13</text><line style="stroke:#C0C0C0;stroke-width:1.0;" x1="0" x2="0" y1="55.6211" y2="407.957"/><line style="stroke:#C0C0C0;stroke-width:1.0;" x1="28" x2="28" y1="55.6211" y2="407.957"/><line style="stroke:#C0C0C0;stroke-width:1.0;" x1="56" x2="56" y1="55.6211" y2="407.957"/><line style="stroke:#C0C0C0;stroke-width:1.0;" x1="84" x2="84" y1="55.6211" y2="407.957"/><line style="stroke:#C0C0C0;stroke-width:1.0;" x1="112" x2="112" y1="55.6211" y2="407.957"/><line style="stroke:#C0C0C0;stroke-width:1.0;" x1="140" x2="140" y1="55.6211" y2="407.957"/><line style="stroke:#C0C0C0;stroke-width:1.0;" x1="168" x2="168" y1="55.6211" y2="407.957"/><line style="stroke:#C0C0C0;stroke-width:1.0;" x1="196" x2="196" y1="55.6211" y2="407.957"/><line style="stroke:#C0C0C0;stroke-width:1.0;" x1="224" x2="224" y1="55.6211" y2="407.957"/><line style="stroke:#C0C0C0;stroke-width:1.0;" x1="252" x2="252" y1="55.6211" y2="407.957"/><line style="stroke:#C0C0C0;stroke-width:1.0;" x1="280" x2="280" y1="55.6211" y2="407.957"/><line style="stroke:#C0C0C0;stroke-width:1.0;" x1="308" x2="308" y1="55.6211" y2="407.957"/><line style="stroke:#C0C0C0;stroke-width:1.0;" x1="336" x2="336" y1="55.6211" y2="407.957"/><line style="stroke:#C0C0C0;stroke-width:1.0;" x1="364" x2="364" y1="55.6211" y2="407.957"/><line style="stroke:#C0C0C0;stroke-width:1.0;" x1="392" x2="392" y1="55.6211" y2="407.957"/><line style="stroke:#C0C0C0;stroke-width:1.0;" x1="420" x2="420" y1="55.6211" y2="407.957"/><line style="stroke:#C0C0C0;stroke-width:1.0;" x1="448" x2="448" y1="55.6211" y2="407.957"/><line style="stroke:#C0C0C0;stroke-width:1.0;" x1="476" x2="476" y1="55.6211" y2="407.957"/><line style="stroke:#C0C0C0;stroke-width:1.0;" x1="504" x2="504" y1="55.6211" y2="407.957"/><line style="stroke:#C0C0C0;stroke-width:1.0;" x1="532" x2="532" y1="55.6211" y2="407.957"/><line style="stroke:#C0C0C0;stroke-width:1.0;" x1="560" x2="560" y1="55.6211" y2="407.957"/><line style="stroke:#C0C0C0;stroke-width:1.0;" x1="588" x2="588" y1="55.6211" y2="407.957"/><line style="stroke:#C0C0C0;stroke-width:1.0;" x1="616" x2="616" y1="55.6211" y2="407.957"/><line style="stroke:#C0C0C0;stroke-width:1.0;" x1="644" x2="644" y1="55.6211" y2="407.957"/><line style="stroke:#C0C0C0;stroke-width:1.0;" x1="672" x2="672" y1="55.6211" y2="407.957"/><line style="stroke:#C0C0C0;stroke-width:1.0;" x1="700" x2="700" y1="55.6211" y2="407.957"/><line style="stroke:#C0C0C0;stroke-width:1.0;" x1="728" x2="728" y1="55.6211" y2="407.957"/><line style="stroke:#C0C0C0;stroke-width:1.0;" x1="756" x2="756" y1="55.6211" y2="407.957"/><line style="stroke:#C0C0C0;stroke-width:1.0;" x1="784" x2="784" y1="55.6211" y2="407.957"/><line style="stroke:#C0C0C0;stroke-width:1.0;" x1="812" x2="812" y1="55.6211" y2="407.957"/><line style="stroke:#C0C0C0;stroke-width:1.0;" x1="840" x2="840" y1="55.6211" y2="407.957"/><line style="stroke:#C0C0C0;stroke-width:1.0;" x1="868" x2="868" y1="55.6211" y2="407.957"/><line style="stroke:#C0C0C0;stroke-width:1.0;" x1="896" x2="896" y1="55.6211" y2="407.957"/><line style="stroke:#C0C0C0;stroke-width:1.0;" x1="924" x2="924" y1="55.6211" y2="407.957"/><line style="stroke:#C0C0C0;stroke-width:1.0;" x1="952" x2="952" y1="55.6211" y2="407.957"/><line style="stroke:#C0C0C0;stroke-width:1.0;" x1="980" x2="980" y1="55.6211" y2="407.957"/><line style="stroke:#C0C0C0;stroke-width:1.0;" x1="1008" x2="1008" y1="55.6211" y2="407.957"/><line style="stroke:#C0C0C0;stroke-width:1.0;" x1="1036" x2="1036" y1="55.6211" y2="407.957"/><line style="stroke:#C0C0C0;stroke-width:1.0;" x1="1064" x2="1064" y1="55.6211" y2="407.957"/><line style="stroke:#C0C0C0;stroke-width:1.0;" x1="1092" x2="1092" y1="55.6211" y2="407.957"/><line style="stroke:#C0C0C0;stroke-width:1.0;" x1="1120" x2="1120" y1="55.6211" y2="407.957"/><line style="stroke:#C0C0C0;stroke-width:1.0;" x1="1148" x2="1148" y1="55.6211" y2="407.957"/><line style="stroke:#C0C0C0;stroke-width:1.0;" x1="1176" x2="1176" y1="55.6211" y2="407.957"/><line style="stroke:#C0C0C0;stroke-width:1.0;" x1="1204" x2="1204" y1="55.6211" y2="407.957"/><line style="stroke:#C0C0C0;stroke-width:1.0;" x1="1232" x2="1232" y1="55.6211" y2="407.957"/><line style="stroke:#C0C0C0;stroke-width:1.0;" x1="1260" x2="1260" y1="55.6211" y2="407.957"/><line style="stroke:#C0C0C0;stroke-width:1.0;" x1="1288" x2="1288" y1="55.6211" y2="407.957"/><line style="stroke:#C0C0C0;stroke-width:1.0;" x1="1316" x2="1316" y1="55.6211" y2="407.957"/><line style="stroke:#C0C0C0;stroke-width:1.0;" x1="1344" x2="1344" y1="55.6211" y2="407.957"/><line style="stroke:#C0C0C0;stroke-width:1.0;" x1="1372" x2="1372" y1="55.6211" y2="407.957"/><line style="stroke:#C0C0C0;stroke-width:1.0;" x1="1400" x2="1400" y1="55.6211" y2="407.957"/><line style="stroke:#C0C0C0;stroke-width:1.0;" x1="1428" x2="1428" y1="55.6211" y2="407.957"/><line style="stroke:#C0C0C0;stroke-width:1.0;" x1="1456" x2="1456" y1="55.6211" y2="407.957"/><line style="stroke:#C0C0C0;stroke-width:1.0;" x1="1484" x2="1484" y1="55.6211" y2="407.957"/><line style="stroke:#C0C0C0;stroke-width:1.0;" x1="1512" x2="1512" y1="55.6211" y2="407.957"/><line style="stroke:#C0C0C0;stroke-width:1.0;" x1="1540" x2="1540" y1="55.6211" y2="407.957"/><line style="stroke:#C0C0C0;stroke-width:1.0;" x1="1548" x2="1548" y1="55.6211" y2="407.957"/><line style="stroke:#C0C0C0;stroke-width:1.0;" x1="0" x2="0" y1="39.6211" y2="55.6211"/><line style="stroke:#C0C0C0;stroke-width:1.0;" x1="112" x2="112" y1="39.6211" y2="55.6211"/><text fill="#000000" font-family="Serif" font-size="12" font-weight="bold" lengthAdjust="spacing" textLength="49" x="31.5" y="52.5703">Mar 2024</text><line style="stroke:#C0C0C0;stroke-width:1.0;" x1="232" x2="232" y1="39.6211" y2="55.6211"/><text fill="#000000" font-family="Serif" font-size="12" font-weight="bold" lengthAdjust="spacing" textLength="46" x="149" y="52.5703">Apr 2024</text><line style="stroke:#C0C0C0;stroke-width:1.0;" x1="356" x2="356" y1="39.6211" y2="55.6211"/><text fill="#000000" font-family="Serif" font-size="12" font-weight="bold" lengthAdjust="spacing" textLength="50" x="269" y="52.5703">May 2024</text><line style="stroke:#C0C0C0;stroke-width:1.0;" x1="476" x2="476" y1="39.6211" y2="55.6211"/><text fill="#000000" font-family="Serif" font-size="12" font-weight="bold" lengthAdjust="spacing" textLength="47" x="392.5" y="52.5703">Jun 2024</text><line style="stroke:#C0C0C0;stroke-width:1.0;" x1="600" x2="600" y1="39.6211" y2="55.6211"/><text fill="#000000" font-family="Serif" font-size="12" font-weight="bold" lengthAdjust="spacing" textLength="44" x="516" y="52.5703">Jul 2024</text><line style="stroke:#C0C0C0;stroke-width:1.0;" x1="724" x2="724" y1="39.6211" y2="55.6211"/><text fill="#000000" font-family="Serif" font-size="12" font-weight="bold" lengthAdjust="spacing" textLength="48" x="638" y="52.5703">Aug 2024</text><line style="stroke:#C0C0C0;stroke-width:1.0;" x1="844" x2="844" y1="39.6211" y2="55.6211"/><text fill="#000000" font-family="Serif" font-size="12" font-weight="bold" lengthAdjust="spacing" textLength="47" x="760.5" y="52.5703">Sep 2024</text><line style="stroke:#C0C0C0;stroke-width:1.0;" x1="968" x2="968" y1="39.6211" y2="55.6211"/><text fill="#000000" font-family="Serif" font-size="12" font-weight="bold" lengthAdjust="spacing" textLength="46" x="883" y="52.5703">Oct 2024</text><line style="stroke:#C0C0C0;stroke-width:1.0;" x1="1088" x2="1088" y1="39.6211" y2="55.6211"/><text fill="#000000" font-family="Serif" font-size="12" font-weight="bold" lengthAdjust="spacing" textLength="47" x="1004.5" y="52.5703">Nov 2024</text><line style="stroke:#C0C0C0;stroke-width:1.0;" x1="1212" x2="1212" y1="39.6211" y2="55.6211"/><text fill="#000000" font-family="Serif" font-size="12" font-weight="bold" lengthAdjust="spacing" textLength="47" x="1126.5" y="52.5703">Dec 2024</text><line style="stroke:#C0C0C0;stroke-width:1.0;" x1="1336" x2="1336" y1="39.6211" y2="55.6211"/><text fill="#000000" font-family="Serif" font-size="12" font-weight="bold" lengthAdjust="spacing" textLength="46" x="1251" y="52.5703">Jan 2025</text><line style="stroke:#C0C0C0;stroke-width:1.0;" x1="1448" x2="1448" y1="39.6211" y2="55.6211"/><text fill="#000000" font-family="Serif" font-size="12" font-weight="bold" lengthAdjust="spacing" textLength="46" x="1369" y="52.5703">Feb 2025</text><line style="stroke:#C0C0C0;stroke-width:1.0;" x1="1548" x2="1548" y1="39.6211" y2="55.6211"/><text fill="#000000" font-family="Serif" font-size="12" font-weight="bold" lengthAdjust="spacing" textLength="49" x="1473.5" y="52.5703">Mar 2025</text><line style="stroke:#C0C0C0;stroke-width:1.0;" x1="0" x2="1548" y1="39.6211" y2="39.6211"/><line style="stroke:#C0C0C0;stroke-width:1.0;" x1="0" x2="1548" y1="55.6211" y2="55.6211"/><line style="stroke:#C0C0C0;stroke-width:1.0;" x1="0" x2="1548" y1="68.6211" y2="68.6211"/><line style="stroke:#0000FF;stroke-width:1.5;stroke-dasharray:8.0,8.0;" x1="19" x2="19" y1="86.582" y2="98.5625"/><line style="stroke:#0000FF;stroke-width:1.5;stroke-dasharray:8.0,8.0;" x1="19" x2="27" y1="98.5625" y2="98.5625"/><polygon fill="#0000FF" points="23,94.5625,23,98.5625,23,102.5625,27,98.5625" style="stroke:#0000FF;stroke-width:1.5;"/><line style="stroke:#0000FF;stroke-width:1.5;stroke-dasharray:8.0,8.0;" x1="131" x2="131" y1="106.543" y2="118.5234"/><line style="stroke:#0000FF;stroke-width:1.5;stroke-dasharray:8.0,8.0;" x1="131" x2="139" y1="118.5234" y2="118.5234"/><polygon fill="#0000FF" points="135,114.5234,135,118.5234,135,122.5234,139,118.5234" style="stroke:#0000FF;stroke-width:1.5;"/><line style="stroke:#0000FF;stroke-width:1.5;stroke-dasharray:8.0,8.0;" x1="222" x2="222" y1="126.5039" y2="138.4844"/><line style="stroke:#0000FF;stroke-width:1.5;stroke-dasharray:8.0,8.0;" x1="222" x2="255" y1="138.4844" y2="138.4844"/><polygon fill="#0000FF" points="251,134.4844,251,138.4844,251,142.4844,255,138.4844" style="stroke:#0000FF;stroke-width:1.5;"/><line style="stroke:#0000FF;stroke-width:1.5;stroke-dasharray:8.0,8.0;" x1="215" x2="215" y1="126.5039" y2="178.4063"/><line style="stroke:#0000FF;stroke-width:1.5;stroke-dasharray:8.0,8.0;" x1="215" x2="223" y1="178.4063" y2="178.4063"/><polygon fill="#0000FF" points="219,174.4063,219,178.4063,219,182.4063,223,178.4063" style="stroke:#0000FF;stroke-width:1.5;"/><line style="stroke:#0000FF;stroke-width:1.5;stroke-dasharray:8.0,8.0;" x1="327" x2="327" y1="186.3867" y2="198.3672"/><line style="stroke:#0000FF;stroke-width:1.5;stroke-dasharray:8.0,8.0;" x1="327" x2="335" y1="198.3672" y2="198.3672"/><polygon fill="#0000FF" points="331,194.3672,331,198.3672,331,202.3672,335,198.3672" style="stroke:#0000FF;stroke-width:1.5;"/><line style="stroke:#0000FF;stroke-width:1.5;stroke-dasharray:8.0,8.0;" x1="334" x2="334" y1="186.3867" y2="238.2891"/><line style="stroke:#0000FF;stroke-width:1.5;stroke-dasharray:8.0,8.0;" x1="334" x2="1215" y1="238.2891" y2="238.2891"/><polygon fill="#0000FF" points="1211,234.2891,1211,238.2891,1211,242.2891,1215,238.2891" style="stroke:#0000FF;stroke-width:1.5;"/><line style="stroke:#0000FF;stroke-width:1.5;stroke-dasharray:8.0,8.0;" x1="1291" x2="1291" y1="246.2695" y2="258.25"/><line style="stroke:#0000FF;stroke-width:1.5;stroke-dasharray:8.0,8.0;" x1="1291" x2="1299" y1="258.25" y2="258.25"/><polygon fill="#0000FF" points="1295,254.25,1295,258.25,1295,262.25,1299,258.25" style="stroke:#0000FF;stroke-width:1.5;"/><line style="stroke:#0000FF;stroke-width:1.5;stroke-dasharray:8.0,8.0;" x1="1291" x2="1291" y1="246.2695" y2="298.1719"/><line style="stroke:#0000FF;stroke-width:1.5;stroke-dasharray:8.0,8.0;" x1="1291" x2="1299" y1="298.1719" y2="298.1719"/><polygon fill="#0000FF" points="1295,294.1719,1295,298.1719,1295,302.1719,1299,298.1719" style="stroke:#0000FF;stroke-width:1.5;"/><line style="stroke:#0000FF;stroke-width:1.5;stroke-dasharray:8.0,8.0;" x1="1375" x2="1375" y1="306.1523" y2="318.1328"/><line style="stroke:#0000FF;stroke-width:1.5;stroke-dasharray:8.0,8.0;" x1="1375" x2="1383" y1="318.1328" y2="318.1328"/><polygon fill="#0000FF" points="1379,314.1328,1379,318.1328,1379,322.1328,1383,318.1328" style="stroke:#0000FF;stroke-width:1.5;"/><line style="stroke:#0000FF;stroke-width:1.5;stroke-dasharray:8.0,8.0;" x1="1375" x2="1375" y1="306.1523" y2="358.0547"/><line style="stroke:#0000FF;stroke-width:1.5;stroke-dasharray:8.0,8.0;" x1="1375" x2="1383" y1="358.0547" y2="358.0547"/><polygon fill="#0000FF" points="1379,354.0547,1379,358.0547,1379,362.0547,1383,358.0547" style="stroke:#0000FF;stroke-width:1.5;"/><line style="stroke:#0000FF;stroke-width:1.5;stroke-dasharray:8.0,8.0;" x1="1459" x2="1459" y1="366.0352" y2="378.0156"/><line style="stroke:#0000FF;stroke-width:1.5;stroke-dasharray:8.0,8.0;" x1="1459" x2="1467" y1="378.0156" y2="378.0156"/><polygon fill="#0000FF" points="1463,374.0156,1463,378.0156,1463,382.0156,1467,378.0156" style="stroke:#0000FF;stroke-width:1.5;"/><rect fill="#008000" height="15.9609" style="stroke:none;stroke-width:1.0;" width="24" x="2" y="70.6211"/><line style="stroke:#90EE90;stroke-width:1.0;" x1="2" x2="26" y1="70.6211" y2="70.6211"/><line style="stroke:#90EE90;stroke-width:1.0;" x1="2" x2="26" y1="86.582" y2="86.582"/><line style="stroke:#90EE90;stroke-width:1.0;" x1="2" x2="2" y1="70.6211" y2="86.582"/><line style="stroke:#90EE90;stroke-width:1.0;" x1="26" x2="26" y1="70.6211" y2="86.582"/><rect fill="#808080" height="15.9609" style="stroke:none;stroke-width:1.0;" width="108" x="30" y="90.582"/><line style="stroke:#808080;stroke-width:1.0;" x1="30" x2="138" y1="90.582" y2="90.582"/><line style="stroke:#808080;stroke-width:1.0;" x1="30" x2="138" y1="106.543" y2="106.543"/><line style="stroke:#808080;stroke-width:1.0;" x1="30" x2="30" y1="90.582" y2="106.543"/><line style="stroke:#808080;stroke-width:1.0;" x1="138" x2="138" y1="90.582" y2="106.543"/><rect fill="#808080" height="15.9609" style="stroke:none;stroke-width:1.0;" width="80" x="142" y="110.543"/><line style="stroke:#808080;stroke-width:1.0;" x1="142" x2="222" y1="110.543" y2="110.543"/><line style="stroke:#808080;stroke-width:1.0;" x1="142" x2="222" y1="126.5039" y2="126.5039"/><line style="stroke:#808080;stroke-width:1.0;" x1="142" x2="142" y1="110.543" y2="126.5039"/><line style="stroke:#808080;stroke-width:1.0;" x1="222" x2="222" y1="110.543" y2="126.5039"/><rect fill="#00BFFF" height="15.9609" style="stroke:none;stroke-width:1.0;" width="24" x="258" y="130.5039"/><line style="stroke:#00BFFF;stroke-width:1.0;" x1="258" x2="282" y1="130.5039" y2="130.5039"/><line style="stroke:#00BFFF;stroke-width:1.0;" x1="258" x2="282" y1="146.4648" y2="146.4648"/><line style="stroke:#00BFFF;stroke-width:1.0;" x1="258" x2="258" y1="130.5039" y2="146.4648"/><line style="stroke:#00BFFF;stroke-width:1.0;" x1="282" x2="282" y1="130.5039" y2="146.4648"/><rect fill="#FA8072" height="15.9609" style="stroke:none;stroke-width:1.0;" width="24" x="226" y="150.4648"/><line style="stroke:#FA8072;stroke-width:1.0;" x1="226" x2="250" y1="150.4648" y2="150.4648"/><line style="stroke:#FA8072;stroke-width:1.0;" x1="226" x2="250" y1="166.4258" y2="166.4258"/><line style="stroke:#FA8072;stroke-width:1.0;" x1="226" x2="226" y1="150.4648" y2="166.4258"/><line style="stroke:#FA8072;stroke-width:1.0;" x1="250" x2="250" y1="150.4648" y2="166.4258"/><rect fill="#008000" height="15.9609" style="stroke:none;stroke-width:1.0;" width="108" x="226" y="170.4258"/><line style="stroke:#008000;stroke-width:1.0;" x1="226" x2="334" y1="170.4258" y2="170.4258"/><line style="stroke:#008000;stroke-width:1.0;" x1="226" x2="334" y1="186.3867" y2="186.3867"/><line style="stroke:#008000;stroke-width:1.0;" x1="226" x2="226" y1="170.4258" y2="186.3867"/><line style="stroke:#008000;stroke-width:1.0;" x1="334" x2="334" y1="170.4258" y2="186.3867"/><rect fill="#00BFFF" height="15.9609" style="stroke:none;stroke-width:1.0;" width="24" x="338" y="190.3867"/><line style="stroke:#00BFFF;stroke-width:1.0;" x1="338" x2="362" y1="190.3867" y2="190.3867"/><line style="stroke:#00BFFF;stroke-width:1.0;" x1="338" x2="362" y1="206.3477" y2="206.3477"/><line style="stroke:#00BFFF;stroke-width:1.0;" x1="338" x2="338" y1="190.3867" y2="206.3477"/><line style="stroke:#00BFFF;stroke-width:1.0;" x1="362" x2="362" y1="190.3867" y2="206.3477"/><polygon fill="#FFFF00" points="286,210.3477,292,216.3477,286,222.3477,280,216.3477" style="stroke:#B22222;stroke-width:1.0;"/><rect fill="#E6E6FA" height="15.9609" style="stroke:none;stroke-width:1.0;" width="80" x="1218" y="230.3086"/><line style="stroke:#ADD8E6;stroke-width:1.0;" x1="1218" x2="1298" y1="230.3086" y2="230.3086"/><line style="stroke:#ADD8E6;stroke-width:1.0;" x1="1218" x2="1298" y1="246.2695" y2="246.2695"/><line style="stroke:#ADD8E6;stroke-width:1.0;" x1="1218" x2="1218" y1="230.3086" y2="246.2695"/><line style="stroke:#ADD8E6;stroke-width:1.0;" x1="1298" x2="1298" y1="230.3086" y2="246.2695"/><rect fill="#00BFFF" height="15.9609" style="stroke:none;stroke-width:1.0;" width="24" x="1302" y="250.2695"/><line style="stroke:#00BFFF;stroke-width:1.0;" x1="1302" x2="1326" y1="250.2695" y2="250.2695"/><line style="stroke:#00BFFF;stroke-width:1.0;" x1="1302" x2="1326" y1="266.2305" y2="266.2305"/><line style="stroke:#00BFFF;stroke-width:1.0;" x1="1302" x2="1302" y1="250.2695" y2="266.2305"/><line style="stroke:#00BFFF;stroke-width:1.0;" x1="1326" x2="1326" y1="250.2695" y2="266.2305"/><polygon fill="#FFFF00" points="1330,270.2305,1336,276.2305,1330,282.2305,1324,276.2305" style="stroke:#B22222;stroke-width:1.0;"/><rect fill="#E6E6FA" height="15.9609" style="stroke:none;stroke-width:1.0;" width="80" x="1302" y="290.1914"/><line style="stroke:#ADD8E6;stroke-width:1.0;" x1="1302" x2="1382" y1="290.1914" y2="290.1914"/><line style="stroke:#ADD8E6;stroke-width:1.0;" x1="1302" x2="1382" y1="306.1523" y2="306.1523"/><line style="stroke:#ADD8E6;stroke-width:1.0;" x1="1302" x2="1302" y1="290.1914" y2="306.1523"/><line style="stroke:#ADD8E6;stroke-width:1.0;" x1="1382" x2="1382" y1="290.1914" y2="306.1523"/><rect fill="#00BFFF" height="15.9609" style="stroke:none;stroke-width:1.0;" width="24" x="1386" y="310.1523"/><line style="stroke:#00BFFF;stroke-width:1.0;" x1="1386" x2="1410" y1="310.1523" y2="310.1523"/><line style="stroke:#00BFFF;stroke-width:1.0;" x1="1386" x2="1410" y1="326.1133" y2="326.1133"/><line style="stroke:#00BFFF;stroke-width:1.0;" x1="1386" x2="1386" y1="310.1523" y2="326.1133"/><line style="stroke:#00BFFF;stroke-width:1.0;" x1="1410" x2="1410" y1="310.1523" y2="326.1133"/><polygon fill="#FFFF00" points="1330,330.1133,1336,336.1133,1330,342.1133,1324,336.1133" style="stroke:#B22222;stroke-width:1.0;"/><rect fill="#E6E6FA" height="15.9609" style="stroke:none;stroke-width:1.0;" width="80" x="1386" y="350.0742"/><line style="stroke:#ADD8E6;stroke-width:1.0;" x1="1386" x2="1466" y1="350.0742" y2="350.0742"/><line style="stroke:#ADD8E6;stroke-width:1.0;" x1="1386" x2="1466" y1="366.0352" y2="366.0352"/><line style="stroke:#ADD8E6;stroke-width:1.0;" x1="1386" x2="1386" y1="350.0742" y2="366.0352"/><line style="stroke:#ADD8E6;stroke-width:1.0;" x1="1466" x2="1466" y1="350.0742" y2="366.0352"/><rect fill="#00BFFF" height="15.9609" style="stroke:none;stroke-width:1.0;" width="52" x="1470" y="370.0352"/><line style="stroke:#00BFFF;stroke-width:1.0;" x1="1470" x2="1522" y1="370.0352" y2="370.0352"/><line style="stroke:#00BFFF;stroke-width:1.0;" x1="1470" x2="1522" y1="385.9961" y2="385.9961"/><line style="stroke:#00BFFF;stroke-width:1.0;" x1="1470" x2="1470" y1="370.0352" y2="385.9961"/><line style="stroke:#00BFFF;stroke-width:1.0;" x1="1522" x2="1522" y1="370.0352" y2="385.9961"/><rect fill="#FF0000" height="15.9609" style="stroke:none;stroke-width:1.0;" width="24" x="1522" y="389.9961"/><line style="stroke:#FF0000;stroke-width:1.0;" x1="1522" x2="1546" y1="389.9961" y2="389.9961"/><line style="stroke:#FF0000;stroke-width:1.0;" x1="1522" x2="1546" y1="405.957" y2="405.957"/><line style="stroke:#FF0000;stroke-width:1.0;" x1="1522" x2="1522" y1="389.9961" y2="405.957"/><line style="stroke:#FF0000;stroke-width:1.0;" x1="1546" x2="1546" y1="389.9961" y2="405.957"/><text fill="#000000" font-family="Helvetica" font-size="12" font-weight="bold" lengthAdjust="spacing" textLength="46" x="30" y="83.5703">Training</text><text fill="#000000" font-family="Helvetica" font-size="12" font-weight="bold" lengthAdjust="spacing" textLength="44" x="34" y="103.5313">Sprint 1</text><text fill="#000000" font-family="Helvetica" font-size="12" font-weight="bold" lengthAdjust="spacing" textLength="44" x="146" y="123.4922">Sprint 2</text><text fill="#000000" font-family="Helvetica" font-size="12" font-weight="bold" lengthAdjust="spacing" textLength="49" x="286" y="143.4531">Testing2</text><text fill="#000000" font-family="Helvetica" font-size="12" font-weight="bold" lengthAdjust="spacing" textLength="49" x="254" y="163.4141">pre-prod</text><text fill="#000000" font-family="Helvetica" font-size="12" font-weight="bold" lengthAdjust="spacing" textLength="44" x="230" y="183.375">Sprint 3</text><text fill="#000000" font-family="Helvetica" font-size="12" font-weight="bold" lengthAdjust="spacing" textLength="49" x="366" y="203.3359">Testing3</text><text fill="#000000" font-family="sans-serif" font-size="12" font-weight="bold" lengthAdjust="spacing" textLength="73" x="295" y="223.2969">Demo MOA 2</text><text fill="#000000" font-family="Helvetica" font-size="12" font-weight="bold" lengthAdjust="spacing" textLength="44" x="1222" y="243.2578">Sprint 4</text><text fill="#000000" font-family="Helvetica" font-size="12" font-weight="bold" lengthAdjust="spacing" textLength="49" x="1330" y="263.2188">Testing4</text><text fill="#000000" font-family="sans-serif" font-size="12" font-weight="bold" lengthAdjust="spacing" textLength="73" x="1339" y="283.1797">Demo MOA 4</text><text fill="#000000" font-family="Helvetica" font-size="12" font-weight="bold" lengthAdjust="spacing" textLength="44" x="1306" y="303.1406">Sprint 5</text><text fill="#000000" font-family="Helvetica" font-size="12" font-weight="bold" lengthAdjust="spacing" textLength="49" x="1414" y="323.1016">Testing5</text><text fill="#000000" font-family="sans-serif" font-size="12" font-weight="bold" lengthAdjust="spacing" textLength="73" x="1339" y="343.0625">Demo MOA 5</text><text fill="#000000" font-family="Helvetica" font-size="12" font-weight="bold" lengthAdjust="spacing" textLength="44" x="1390" y="363.0234">Sprint 6</text><text fill="#000000" font-family="Helvetica" font-size="12" font-weight="bold" lengthAdjust="spacing" textLength="49" x="1526" y="382.9844">Testing6</text><text fill="#000000" font-family="Helvetica" font-size="12" font-weight="bold" lengthAdjust="spacing" textLength="54" x="1550" y="402.9453">validation</text><!--SRC=[rLRRSXev47tNL-WjIMtPPgwRiAbKmDXE70WKi4vjkVmWc0OKX3JHQF2oAV_xzcWOPWQ37LVjo_BWIwlxz3cdTU5ZOfWsSoQD8GiU0PqfPIRgRqBU9sOZu0EnQntEvfgjw4z2yPDAMmNHc2NBRIpxN2fflh8Lq4yWrc3ubDMMpfLGchO5covhyH7_1wZZrcDPSpfH8jg5srXtfLKgenoe0n2FbfksI66Nq-KI3gy-s9_c_qPunGKaHadOOvtNJFuhQXiGGjqVO7N9DRGrttR9EKbb3jFfC8se0F80fSO1yBvcSWv3Y2hWJ6jr_z8HQOWEj7pxKXSizx-EMJ7PdrkE-FQqyOVZdTRrZHTecOGaeSLAhYw1c6bc4ErdZSMymg8l-1ewcasEDDllLN1dcoCKd4f1wKxud3kblTyMt9JIUqpFkQJ1BZ1WKSJbd8RLWyPN87Xjs-xh7CcjpNd5LAW4eYVoOowNJyp-WJoGzsVRIul4cakJJ1cAkWTOYWr6r7UOrcF4S8F_zTkZtiMGdk0PN8DGyGga8MIG5r1xroNKB82w3TS_QtXd3P_SZZNZ4cNVKPRGs_6mzVchSuTiVgHuPD1qsuFi5dX2fnbVb8ZcsPrsrkNpXSaF3BaTMShKsUArHb-gSBw5IqYny0Xkisjryc6RH4fKjqHrAwXU5TKzWcgnjg3kNP6R1V1cGWDihFXptm3AP5Hry7Upe6g6UsXZpKI6iOOJd4sKCnmCBmR3VkTP7FTT3jH2VIA7AclhCX8cLghYi5TwuHrpsDi7cTifLRJRf9rmxz3aRKhfKvRUWPMYlNuh6yY2nJ78B3z2DzZCWAQbaQyI2Z8gMVibQ__n11_PaxjppMJAjBKw84LjNLYNhR4Fw7mpsjUdmjnMx5JwHrJw5PL-LQN_j4h_aSgWL1aSswV1hqhm2mb1AI4u8Y6eI0Yg4eANIWXB2U4n2U6lIWWA2M4feOhgLYI45GcXFVnh9dZ435SovtJJwZvxi9ntnGdLqyLsuzYwEk7irYKVaNF-rP4C1Fx-izUbQz09DiH71skzKyTv_GqhHX1JnqEufXisFOzUzSQ_DTncev5ryDwGrrU3BarKggT08vuOpITfnliDkMPhHeUfp1wK9ktZ8AuxNue0lP1hhfMq5_RrJQzC2FsJDZVOLoCXUjCZ7PYnL1YicAhijMhIyzXn0vTqyJj8okO8FjFa79yRepTDUZdy5m00]--></g></svg>