<?xml version="1.0" encoding="UTF-8" standalone="no"?><svg xmlns="http://www.w3.org/2000/svg" xmlns:xlink="http://www.w3.org/1999/xlink" contentStyleType="text/css" height="194px" preserveAspectRatio="none" style="width:605px;height:194px;background:#FFFFFF;" version="1.1" viewBox="0 0 605 194" width="605px" zoomAndPan="magnify"><defs/><g><text fill="#000000" font-family="sans-serif" font-size="12" font-weight="bold" lengthAdjust="spacing" textLength="128" x="6" y="18.8281">Nouvelle observation</text><line style="stroke:#AAAAAA;stroke-width:1.0;stroke-dasharray:1.0,2.0;" x1="6" x2="586" y1="27.8441" y2="27.8441"/><text fill="#000000" font-family="sans-serif" font-size="12" lengthAdjust="spacing" textLength="45" x="8" y="45.1722">General</text><line style="stroke:#000000;stroke-width:1.0;" x1="6" x2="6" y1="32.3441" y2="48.6882"/><line style="stroke:#000000;stroke-width:1.0;" x1="6" x2="56" y1="32.3441" y2="32.3441"/><line style="stroke:#000000;stroke-width:1.0;" x1="56" x2="56" y1="32.3441" y2="48.6882"/><line style="stroke:#000000;stroke-width:1.0;" x1="56" x2="66" y1="48.6882" y2="48.6882"/><text fill="#000000" font-family="sans-serif" font-size="12" font-weight="bold" lengthAdjust="spacing" textLength="102" x="68" y="45.1722">Navires observés</text><line style="stroke:#000000;stroke-width:1.0;" x1="66" x2="66" y1="32.3441" y2="48.6882"/><line style="stroke:#000000;stroke-width:1.0;" x1="66" x2="173" y1="32.3441" y2="32.3441"/><line style="stroke:#000000;stroke-width:1.0;" x1="173" x2="173" y1="32.3441" y2="48.6882"/><line style="stroke:#000000;stroke-width:1.0;" x1="173" x2="183" y1="48.6882" y2="48.6882"/><rect fill="#EEEEEE" height="12" rx="5" ry="5" style="stroke:#000000;stroke-width:2.5;" width="20" x="9.5" y="72.5323"/><path d="M18.5,74.5323 L18.5,77.5323 L15.5,77.5323 L15.5,79.5323 L18.5,79.5323 L18.5,82.5323 L20.5,82.5323 L20.5,79.5323 L23.5,79.5323 L23.5,77.5323 L20.5,77.5323 L20.5,74.5323 L18.5,74.5323 " fill="#000000" style="stroke:;stroke-width:0.0;stroke-dasharray:;"/><rect fill="#EEEEEE" height="12" rx="5" ry="5" style="stroke:#000000;stroke-width:2.5;" width="20" x="36.5" y="72.5323"/><path d="M45.5,74.5323 C44.95,74.5323 44.5,74.9823 44.5,75.5323 L43.5,75.5323 C42.95,75.5323 42.5,75.9823 42.5,76.5323 L49.5,76.5323 C49.5,75.9823 49.05,75.5323 48.5,75.5323 L47.5,75.5323 C47.5,74.9823 47.05,74.5323 46.5,74.5323 L45.5,74.5323 M43.5,77.5323 L43.5,82.3423 C43.5,82.4523 43.58,82.5323 43.69,82.5323 L48.32,82.5323 C48.43,82.5323 48.51,82.4523 48.51,82.3423 L48.51,77.5323 L47.51,77.5323 L47.51,81.0323 C47.51,81.3123 47.29,81.5323 47.01,81.5323 C46.73,81.5323 46.51,81.3123 46.51,81.0323 L46.51,77.5323 L45.51,77.5323 L45.51,81.0323 C45.51,81.3123 45.29,81.5323 45.01,81.5323 C44.73,81.5323 44.51,81.3123 44.51,81.0323 L44.51,77.5323 L43.51,77.5323 " fill="#000000" style="stroke:;stroke-width:0.0;stroke-dasharray:;"/><rect fill="#EEEEEE" height="12" rx="5" ry="5" style="stroke:#000000;stroke-width:2.5;" width="20" x="63.5" y="72.5323"/><path d="M73,74.5323 C71.07,74.5323 69.5,76.1023 69.5,78.0323 C69.5,79.9623 71.07,81.5323 73,81.5323 C73.59,81.5323 74.17,81.3923 74.66,81.1223 A1,1 0 0 0 74.79,81.2523 L75.79,82.2523 A1.02,1.02 0 1 0 77.23,80.8123 L76.23,79.8123 A1,1 0 0 0 76.07,79.6823 C76.34,79.1923 76.51,78.6223 76.51,78.0223 C76.51,76.0923 74.94,74.5223 73.01,74.5223 M73,75.5323 C74.39,75.5323 75.5,76.6423 75.5,78.0323 C75.5,78.6923 75.26,79.3023 74.84,79.7523 C74.83,79.7623 74.82,79.7723 74.81,79.7823 A1,1 0 0 0 74.68,79.9123 C74.24,80.3123 73.64,80.5423 72.99,80.5423 C71.6,80.5423 70.49,79.4323 70.49,78.0423 C70.49,76.6523 71.6,75.5423 72.99,75.5423 " fill="#000000" style="stroke:;stroke-width:0.0;stroke-dasharray:;"/><rect fill="#EEEEEE" height="20.3441" rx="5" ry="5" style="stroke:#000000;stroke-width:2.5;" width="396" x="90.5" y="72.5323"/><text fill="#000000" font-family="sans-serif" font-size="12" lengthAdjust="spacing" textLength="279" x="149" y="87.3604">Montrer les navires observés les 12 derniers mois</text><text fill="#000000" font-family="sans-serif" font-size="12" lengthAdjust="spacing" textLength="8" x="7" y="112.2045">#</text><text fill="#000000" font-family="sans-serif" font-size="12" font-weight="bold" lengthAdjust="spacing" textLength="88" x="17" y="112.2045">Type de navire</text><text fill="#000000" font-family="sans-serif" font-size="12" font-weight="bold" lengthAdjust="spacing" textLength="29" x="107" y="112.2045">Nom</text><text fill="#000000" font-family="sans-serif" font-size="12" font-weight="bold" lengthAdjust="spacing" textLength="99" x="166" y="112.2045">Immatriculation</text><text fill="#000000" font-family="sans-serif" font-size="12" font-weight="bold" lengthAdjust="spacing" textLength="157" x="267" y="112.2045">Date/Heure validité début</text><text fill="#000000" font-family="sans-serif" font-size="12" font-weight="bold" lengthAdjust="spacing" textLength="56" x="429" y="112.2045">Base port</text><text fill="#000000" font-family="sans-serif" font-size="12" font-weight="bold" lengthAdjust="spacing" textLength="38" x="544" y="112.2045">Status</text><text fill="#000000" font-family="sans-serif" font-size="12" lengthAdjust="spacing" textLength="7" x="7" y="130.5487">1</text><text fill="#000000" font-family="sans-serif" font-size="12" lengthAdjust="spacing" textLength="59" x="17" y="130.5487">Mini Mahe</text><text fill="#000000" font-family="sans-serif" font-size="12" lengthAdjust="spacing" textLength="37" x="107" y="130.5487">Ti Pikir</text><text fill="#000000" font-family="sans-serif" font-size="12" lengthAdjust="spacing" textLength="35" x="166" y="130.5487">SZ178</text><text fill="#000000" font-family="sans-serif" font-size="12" lengthAdjust="spacing" textLength="98" x="267" y="130.5487">02/15/2019 11:01</text><text fill="#000000" font-family="sans-serif" font-size="12" lengthAdjust="spacing" textLength="105" x="426" y="130.5487">LS-LRT - La retraite</text><text fill="#000000" font-family="sans-serif" font-size="12" lengthAdjust="spacing" textLength="40" x="544" y="130.5487">au port</text><text fill="#000000" font-family="sans-serif" font-size="12" lengthAdjust="spacing" textLength="7" x="7" y="148.8928">2</text><text fill="#000000" font-family="sans-serif" font-size="12" lengthAdjust="spacing" textLength="43" x="17" y="148.8928">Pirogue</text><text fill="#000000" font-family="sans-serif" font-size="12" lengthAdjust="spacing" textLength="57" x="107" y="148.8928">Saint Rock</text><text fill="#000000" font-family="sans-serif" font-size="12" lengthAdjust="spacing" textLength="35" x="166" y="148.8928">SZ616</text><text fill="#000000" font-family="sans-serif" font-size="12" lengthAdjust="spacing" textLength="98" x="267" y="148.8928">02/15/2019 15:05</text><text fill="#000000" font-family="sans-serif" font-size="12" lengthAdjust="spacing" textLength="116" x="426" y="148.8928">LS-PC - Pointe Conan</text><text fill="#000000" font-family="sans-serif" font-size="12" lengthAdjust="spacing" textLength="40" x="544" y="148.8928">en mer</text><line style="stroke:#000000;stroke-width:1.0;" x1="6" x2="16" y1="98.3765" y2="98.3765"/><line style="stroke:#000000;stroke-width:1.0;" x1="16" x2="106" y1="98.3765" y2="98.3765"/><line style="stroke:#000000;stroke-width:1.0;" x1="106" x2="165" y1="98.3765" y2="98.3765"/><line style="stroke:#000000;stroke-width:1.0;" x1="165" x2="266" y1="98.3765" y2="98.3765"/><line style="stroke:#000000;stroke-width:1.0;" x1="266" x2="425" y1="98.3765" y2="98.3765"/><line style="stroke:#000000;stroke-width:1.0;" x1="425" x2="543" y1="98.3765" y2="98.3765"/><line style="stroke:#000000;stroke-width:1.0;" x1="543" x2="585" y1="98.3765" y2="98.3765"/><line style="stroke:#000000;stroke-width:1.0;" x1="6" x2="16" y1="153.4088" y2="153.4088"/><line style="stroke:#000000;stroke-width:1.0;" x1="16" x2="106" y1="153.4088" y2="153.4088"/><line style="stroke:#000000;stroke-width:1.0;" x1="106" x2="165" y1="153.4088" y2="153.4088"/><line style="stroke:#000000;stroke-width:1.0;" x1="165" x2="266" y1="153.4088" y2="153.4088"/><line style="stroke:#000000;stroke-width:1.0;" x1="266" x2="425" y1="153.4088" y2="153.4088"/><line style="stroke:#000000;stroke-width:1.0;" x1="425" x2="543" y1="153.4088" y2="153.4088"/><line style="stroke:#000000;stroke-width:1.0;" x1="543" x2="585" y1="153.4088" y2="153.4088"/><line style="stroke:#000000;stroke-width:1.0;" x1="6" x2="16" y1="135.0647" y2="135.0647"/><line style="stroke:#000000;stroke-width:1.0;" x1="16" x2="106" y1="135.0647" y2="135.0647"/><line style="stroke:#000000;stroke-width:1.0;" x1="106" x2="165" y1="135.0647" y2="135.0647"/><line style="stroke:#000000;stroke-width:1.0;" x1="165" x2="266" y1="135.0647" y2="135.0647"/><line style="stroke:#000000;stroke-width:1.0;" x1="266" x2="425" y1="135.0647" y2="135.0647"/><line style="stroke:#000000;stroke-width:1.0;" x1="425" x2="543" y1="135.0647" y2="135.0647"/><line style="stroke:#000000;stroke-width:1.0;" x1="543" x2="585" y1="135.0647" y2="135.0647"/><line style="stroke:#000000;stroke-width:1.0;" x1="6" x2="16" y1="116.7206" y2="116.7206"/><line style="stroke:#000000;stroke-width:1.0;" x1="16" x2="106" y1="116.7206" y2="116.7206"/><line style="stroke:#000000;stroke-width:1.0;" x1="106" x2="165" y1="116.7206" y2="116.7206"/><line style="stroke:#000000;stroke-width:1.0;" x1="165" x2="266" y1="116.7206" y2="116.7206"/><line style="stroke:#000000;stroke-width:1.0;" x1="266" x2="425" y1="116.7206" y2="116.7206"/><line style="stroke:#000000;stroke-width:1.0;" x1="425" x2="543" y1="116.7206" y2="116.7206"/><line style="stroke:#000000;stroke-width:1.0;" x1="543" x2="585" y1="116.7206" y2="116.7206"/><line style="stroke:#000000;stroke-width:1.0;" x1="6" x2="6" y1="98.3765" y2="116.7206"/><line style="stroke:#000000;stroke-width:1.0;" x1="106" x2="106" y1="135.0647" y2="153.4088"/><line style="stroke:#000000;stroke-width:1.0;" x1="16" x2="16" y1="98.3765" y2="116.7206"/><line style="stroke:#000000;stroke-width:1.0;" x1="165" x2="165" y1="135.0647" y2="153.4088"/><line style="stroke:#000000;stroke-width:1.0;" x1="106" x2="106" y1="98.3765" y2="116.7206"/><line style="stroke:#000000;stroke-width:1.0;" x1="266" x2="266" y1="135.0647" y2="153.4088"/><line style="stroke:#000000;stroke-width:1.0;" x1="165" x2="165" y1="98.3765" y2="116.7206"/><line style="stroke:#000000;stroke-width:1.0;" x1="425" x2="425" y1="135.0647" y2="153.4088"/><line style="stroke:#000000;stroke-width:1.0;" x1="266" x2="266" y1="98.3765" y2="116.7206"/><line style="stroke:#000000;stroke-width:1.0;" x1="543" x2="543" y1="135.0647" y2="153.4088"/><line style="stroke:#000000;stroke-width:1.0;" x1="585" x2="585" y1="135.0647" y2="153.4088"/><line style="stroke:#000000;stroke-width:1.0;" x1="425" x2="425" y1="98.3765" y2="116.7206"/><line style="stroke:#000000;stroke-width:1.0;" x1="543" x2="543" y1="98.3765" y2="116.7206"/><line style="stroke:#000000;stroke-width:1.0;" x1="585" x2="585" y1="98.3765" y2="116.7206"/><line style="stroke:#000000;stroke-width:1.0;" x1="6" x2="6" y1="116.7206" y2="135.0647"/><line style="stroke:#000000;stroke-width:1.0;" x1="16" x2="16" y1="116.7206" y2="135.0647"/><line style="stroke:#000000;stroke-width:1.0;" x1="106" x2="106" y1="116.7206" y2="135.0647"/><line style="stroke:#000000;stroke-width:1.0;" x1="165" x2="165" y1="116.7206" y2="135.0647"/><line style="stroke:#000000;stroke-width:1.0;" x1="266" x2="266" y1="116.7206" y2="135.0647"/><line style="stroke:#000000;stroke-width:1.0;" x1="425" x2="425" y1="116.7206" y2="135.0647"/><line style="stroke:#000000;stroke-width:1.0;" x1="543" x2="543" y1="116.7206" y2="135.0647"/><line style="stroke:#000000;stroke-width:1.0;" x1="585" x2="585" y1="116.7206" y2="135.0647"/><line style="stroke:#000000;stroke-width:1.0;" x1="6" x2="6" y1="135.0647" y2="153.4088"/><line style="stroke:#000000;stroke-width:1.0;" x1="16" x2="16" y1="135.0647" y2="153.4088"/><line style="stroke:#AAAAAA;stroke-width:1.0;" x1="6" x2="586" y1="158.9088" y2="158.9088"/><line style="stroke:#AAAAAA;stroke-width:1.0;" x1="587" x2="598" y1="158.9088" y2="158.9088"/><rect fill="#EEEEEE" height="20.3441" rx="5" ry="5" style="stroke:#000000;stroke-width:2.5;" width="92" x="10.5" y="167.9088"/><text fill="#000000" font-family="sans-serif" font-size="12" lengthAdjust="spacing" textLength="72" x="20.5" y="182.7369">Sauvegarder</text><rect fill="#EEEEEE" height="20.3441" rx="5" ry="5" style="stroke:#000000;stroke-width:2.5;" width="332" x="109.5" y="167.9088"/><text fill="#000000" font-family="sans-serif" font-size="12" lengthAdjust="spacing" textLength="253" x="149" y="182.7369">Saisir une marée observée au débarquement</text></g></svg>