<?xml version="1.0" encoding="us-ascii" standalone="no"?><svg xmlns="http://www.w3.org/2000/svg" xmlns:xlink="http://www.w3.org/1999/xlink" contentStyleType="text/css" height="175px" preserveAspectRatio="none" style="width:690px;height:175px;background:#FFFFFF;" version="1.1" viewBox="0 0 690 175" width="690px" zoomAndPan="magnify"><defs/><g><text fill="#000000" font-family="sans-serif" font-size="12" font-weight="bold" lengthAdjust="spacing" textLength="150" x="6" y="17.1387">Nouvelle observation</text><line style="stroke:#AAAAAA;stroke-width:1.0;stroke-dasharray:1.0,2.0;" x1="6" x2="671" y1="25.4688" y2="25.4688"/><text fill="#000000" font-family="sans-serif" font-size="12" lengthAdjust="spacing" textLength="49" x="8" y="41.1074">General</text><line style="stroke:#000000;stroke-width:1.0;" x1="6" x2="6" y1="29.9688" y2="43.9375"/><line style="stroke:#000000;stroke-width:1.0;" x1="6" x2="60" y1="29.9688" y2="29.9688"/><line style="stroke:#000000;stroke-width:1.0;" x1="60" x2="60" y1="29.9688" y2="43.9375"/><line style="stroke:#000000;stroke-width:1.0;" x1="60" x2="70" y1="43.9375" y2="43.9375"/><text fill="#000000" font-family="sans-serif" font-size="12" font-weight="bold" lengthAdjust="spacing" textLength="122" x="72" y="41.1074">Navires observ&#233;s</text><line style="stroke:#000000;stroke-width:1.0;" x1="70" x2="70" y1="29.9688" y2="43.9375"/><line style="stroke:#000000;stroke-width:1.0;" x1="70" x2="197" y1="29.9688" y2="29.9688"/><line style="stroke:#000000;stroke-width:1.0;" x1="197" x2="197" y1="29.9688" y2="43.9375"/><line style="stroke:#000000;stroke-width:1.0;" x1="197" x2="207" y1="43.9375" y2="43.9375"/><rect fill="#EEEEEE" height="12" rx="5" ry="5" style="stroke:#000000;stroke-width:2.5;" width="20" x="9.5" y="65.4063"/><path d="M18.5,67.4063 L18.5,70.4063 L15.5,70.4063 L15.5,72.4063 L18.5,72.4063 L18.5,75.4063 L20.5,75.4063 L20.5,72.4063 L23.5,72.4063 L23.5,70.4063 L20.5,70.4063 L20.5,67.4063 L18.5,67.4063 " fill="#000000" style="stroke:;stroke-width:0.0;stroke-dasharray:;"/><rect fill="#EEEEEE" height="12" rx="5" ry="5" style="stroke:#000000;stroke-width:2.5;" width="20" x="36.5" y="65.4063"/><path d="M45.5,67.4063 C44.95,67.4063 44.5,67.8563 44.5,68.4063 L43.5,68.4063 C42.95,68.4063 42.5,68.8563 42.5,69.4063 L49.5,69.4063 C49.5,68.8563 49.05,68.4063 48.5,68.4063 L47.5,68.4063 C47.5,67.8563 47.05,67.4063 46.5,67.4063 L45.5,67.4063 M43.5,70.4063 L43.5,75.2163 C43.5,75.3263 43.58,75.4063 43.69,75.4063 L48.32,75.4063 C48.43,75.4063 48.51,75.3263 48.51,75.2163 L48.51,70.4063 L47.51,70.4063 L47.51,73.9063 C47.51,74.1863 47.29,74.4063 47.01,74.4063 C46.73,74.4063 46.51,74.1863 46.51,73.9063 L46.51,70.4063 L45.51,70.4063 L45.51,73.9063 C45.51,74.1863 45.29,74.4063 45.01,74.4063 C44.73,74.4063 44.51,74.1863 44.51,73.9063 L44.51,70.4063 L43.51,70.4063 " fill="#000000" style="stroke:;stroke-width:0.0;stroke-dasharray:;"/><rect fill="#EEEEEE" height="12" rx="5" ry="5" style="stroke:#000000;stroke-width:2.5;" width="20" x="63.5" y="65.4063"/><path d="M73,67.4063 C71.07,67.4063 69.5,68.9763 69.5,70.9063 C69.5,72.8363 71.07,74.4063 73,74.4063 C73.59,74.4063 74.17,74.2663 74.66,73.9963 A1,1 0 0 0 74.79,74.1263 L75.79,75.1263 A1.02,1.02 0 1 0 77.23,73.6863 L76.23,72.6863 A1,1 0 0 0 76.07,72.5563 C76.34,72.0663 76.51,71.4963 76.51,70.8963 C76.51,68.9663 74.94,67.3963 73.01,67.3963 M73,68.4063 C74.39,68.4063 75.5,69.5163 75.5,70.9063 C75.5,71.5663 75.26,72.1763 74.84,72.6263 C74.83,72.6363 74.82,72.6463 74.81,72.6563 A1,1 0 0 0 74.68,72.7863 C74.24,73.1863 73.64,73.4163 72.99,73.4163 C71.6,73.4163 70.49,72.3063 70.49,70.9163 C70.49,69.5263 71.6,68.4163 72.99,68.4163 " fill="#000000" style="stroke:;stroke-width:0.0;stroke-dasharray:;"/><rect fill="#EEEEEE" height="17.9688" rx="5" ry="5" style="stroke:#000000;stroke-width:2.5;" width="396" x="90.5" y="65.4063"/><text fill="#000000" font-family="sans-serif" font-size="12" lengthAdjust="spacing" textLength="312" x="132.5" y="78.5449">Montrer les navires observ&#233;s les 12 derniers mois</text><text fill="#000000" font-family="sans-serif" font-size="12" lengthAdjust="spacing" textLength="10" x="7" y="101.0137">#</text><text fill="#000000" font-family="sans-serif" font-size="12" font-weight="bold" lengthAdjust="spacing" textLength="104" x="19" y="101.0137">Type de navire</text><text fill="#000000" font-family="sans-serif" font-size="12" font-weight="bold" lengthAdjust="spacing" textLength="31" x="125" y="101.0137">Nom</text><text fill="#000000" font-family="sans-serif" font-size="12" font-weight="bold" lengthAdjust="spacing" textLength="110" x="193" y="101.0137">Immatriculation</text><text fill="#000000" font-family="sans-serif" font-size="12" font-weight="bold" lengthAdjust="spacing" textLength="183" x="305" y="101.0137">Date/Heure validit&#233; d&#233;but</text><text fill="#000000" font-family="sans-serif" font-size="12" font-weight="bold" lengthAdjust="spacing" textLength="69" x="494" y="101.0137">Base port</text><text fill="#000000" font-family="sans-serif" font-size="12" font-weight="bold" lengthAdjust="spacing" textLength="47" x="622" y="101.0137">Status</text><text fill="#000000" font-family="sans-serif" font-size="12" lengthAdjust="spacing" textLength="8" x="7" y="116.9824">1</text><text fill="#000000" font-family="sans-serif" font-size="12" lengthAdjust="spacing" textLength="62" x="19" y="116.9824">Mini Mahe</text><text fill="#000000" font-family="sans-serif" font-size="12" lengthAdjust="spacing" textLength="40" x="125" y="116.9824">Ti Pikir</text><text fill="#000000" font-family="sans-serif" font-size="12" lengthAdjust="spacing" textLength="41" x="193" y="116.9824">SZ178</text><text fill="#000000" font-family="sans-serif" font-size="12" lengthAdjust="spacing" textLength="112" x="305" y="116.9824">02/15/2019 11:01</text><text fill="#000000" font-family="sans-serif" font-size="12" lengthAdjust="spacing" textLength="116" x="490" y="116.9824">LS-LRT - La retraite</text><text fill="#000000" font-family="sans-serif" font-size="12" lengthAdjust="spacing" textLength="46" x="622" y="116.9824">au port</text><text fill="#000000" font-family="sans-serif" font-size="12" lengthAdjust="spacing" textLength="8" x="7" y="132.9512">2</text><text fill="#000000" font-family="sans-serif" font-size="12" lengthAdjust="spacing" textLength="48" x="19" y="132.9512">Pirogue</text><text fill="#000000" font-family="sans-serif" font-size="12" lengthAdjust="spacing" textLength="66" x="125" y="132.9512">Saint Rock</text><text fill="#000000" font-family="sans-serif" font-size="12" lengthAdjust="spacing" textLength="41" x="193" y="132.9512">SZ616</text><text fill="#000000" font-family="sans-serif" font-size="12" lengthAdjust="spacing" textLength="112" x="305" y="132.9512">02/15/2019 15:05</text><text fill="#000000" font-family="sans-serif" font-size="12" lengthAdjust="spacing" textLength="130" x="490" y="132.9512">LS-PC - Pointe Conan</text><text fill="#000000" font-family="sans-serif" font-size="12" lengthAdjust="spacing" textLength="44" x="622" y="132.9512">en mer</text><line style="stroke:#000000;stroke-width:1.0;" x1="6" x2="18" y1="88.875" y2="88.875"/><line style="stroke:#000000;stroke-width:1.0;" x1="18" x2="124" y1="88.875" y2="88.875"/><line style="stroke:#000000;stroke-width:1.0;" x1="124" x2="192" y1="88.875" y2="88.875"/><line style="stroke:#000000;stroke-width:1.0;" x1="192" x2="304" y1="88.875" y2="88.875"/><line style="stroke:#000000;stroke-width:1.0;" x1="304" x2="489" y1="88.875" y2="88.875"/><line style="stroke:#000000;stroke-width:1.0;" x1="489" x2="621" y1="88.875" y2="88.875"/><line style="stroke:#000000;stroke-width:1.0;" x1="621" x2="670" y1="88.875" y2="88.875"/><line style="stroke:#000000;stroke-width:1.0;" x1="6" x2="18" y1="136.7813" y2="136.7813"/><line style="stroke:#000000;stroke-width:1.0;" x1="18" x2="124" y1="136.7813" y2="136.7813"/><line style="stroke:#000000;stroke-width:1.0;" x1="124" x2="192" y1="136.7813" y2="136.7813"/><line style="stroke:#000000;stroke-width:1.0;" x1="192" x2="304" y1="136.7813" y2="136.7813"/><line style="stroke:#000000;stroke-width:1.0;" x1="304" x2="489" y1="136.7813" y2="136.7813"/><line style="stroke:#000000;stroke-width:1.0;" x1="489" x2="621" y1="136.7813" y2="136.7813"/><line style="stroke:#000000;stroke-width:1.0;" x1="621" x2="670" y1="136.7813" y2="136.7813"/><line style="stroke:#000000;stroke-width:1.0;" x1="6" x2="18" y1="120.8125" y2="120.8125"/><line style="stroke:#000000;stroke-width:1.0;" x1="18" x2="124" y1="120.8125" y2="120.8125"/><line style="stroke:#000000;stroke-width:1.0;" x1="124" x2="192" y1="120.8125" y2="120.8125"/><line style="stroke:#000000;stroke-width:1.0;" x1="192" x2="304" y1="120.8125" y2="120.8125"/><line style="stroke:#000000;stroke-width:1.0;" x1="304" x2="489" y1="120.8125" y2="120.8125"/><line style="stroke:#000000;stroke-width:1.0;" x1="489" x2="621" y1="120.8125" y2="120.8125"/><line style="stroke:#000000;stroke-width:1.0;" x1="621" x2="670" y1="120.8125" y2="120.8125"/><line style="stroke:#000000;stroke-width:1.0;" x1="6" x2="18" y1="104.8438" y2="104.8438"/><line style="stroke:#000000;stroke-width:1.0;" x1="18" x2="124" y1="104.8438" y2="104.8438"/><line style="stroke:#000000;stroke-width:1.0;" x1="124" x2="192" y1="104.8438" y2="104.8438"/><line style="stroke:#000000;stroke-width:1.0;" x1="192" x2="304" y1="104.8438" y2="104.8438"/><line style="stroke:#000000;stroke-width:1.0;" x1="304" x2="489" y1="104.8438" y2="104.8438"/><line style="stroke:#000000;stroke-width:1.0;" x1="489" x2="621" y1="104.8438" y2="104.8438"/><line style="stroke:#000000;stroke-width:1.0;" x1="621" x2="670" y1="104.8438" y2="104.8438"/><line style="stroke:#000000;stroke-width:1.0;" x1="6" x2="6" y1="88.875" y2="104.8438"/><line style="stroke:#000000;stroke-width:1.0;" x1="124" x2="124" y1="120.8125" y2="136.7813"/><line style="stroke:#000000;stroke-width:1.0;" x1="18" x2="18" y1="88.875" y2="104.8438"/><line style="stroke:#000000;stroke-width:1.0;" x1="192" x2="192" y1="120.8125" y2="136.7813"/><line style="stroke:#000000;stroke-width:1.0;" x1="124" x2="124" y1="88.875" y2="104.8438"/><line style="stroke:#000000;stroke-width:1.0;" x1="304" x2="304" y1="120.8125" y2="136.7813"/><line style="stroke:#000000;stroke-width:1.0;" x1="192" x2="192" y1="88.875" y2="104.8438"/><line style="stroke:#000000;stroke-width:1.0;" x1="489" x2="489" y1="120.8125" y2="136.7813"/><line style="stroke:#000000;stroke-width:1.0;" x1="304" x2="304" y1="88.875" y2="104.8438"/><line style="stroke:#000000;stroke-width:1.0;" x1="621" x2="621" y1="120.8125" y2="136.7813"/><line style="stroke:#000000;stroke-width:1.0;" x1="670" x2="670" y1="120.8125" y2="136.7813"/><line style="stroke:#000000;stroke-width:1.0;" x1="489" x2="489" y1="88.875" y2="104.8438"/><line style="stroke:#000000;stroke-width:1.0;" x1="621" x2="621" y1="88.875" y2="104.8438"/><line style="stroke:#000000;stroke-width:1.0;" x1="670" x2="670" y1="88.875" y2="104.8438"/><line style="stroke:#000000;stroke-width:1.0;" x1="6" x2="6" y1="104.8438" y2="120.8125"/><line style="stroke:#000000;stroke-width:1.0;" x1="18" x2="18" y1="104.8438" y2="120.8125"/><line style="stroke:#000000;stroke-width:1.0;" x1="124" x2="124" y1="104.8438" y2="120.8125"/><line style="stroke:#000000;stroke-width:1.0;" x1="192" x2="192" y1="104.8438" y2="120.8125"/><line style="stroke:#000000;stroke-width:1.0;" x1="304" x2="304" y1="104.8438" y2="120.8125"/><line style="stroke:#000000;stroke-width:1.0;" x1="489" x2="489" y1="104.8438" y2="120.8125"/><line style="stroke:#000000;stroke-width:1.0;" x1="621" x2="621" y1="104.8438" y2="120.8125"/><line style="stroke:#000000;stroke-width:1.0;" x1="670" x2="670" y1="104.8438" y2="120.8125"/><line style="stroke:#000000;stroke-width:1.0;" x1="6" x2="6" y1="120.8125" y2="136.7813"/><line style="stroke:#000000;stroke-width:1.0;" x1="18" x2="18" y1="120.8125" y2="136.7813"/><line style="stroke:#AAAAAA;stroke-width:1.0;" x1="6" x2="671" y1="142.2813" y2="142.2813"/><line style="stroke:#AAAAAA;stroke-width:1.0;" x1="672" x2="683" y1="142.2813" y2="142.2813"/><rect fill="#EEEEEE" height="17.9688" rx="5" ry="5" style="stroke:#000000;stroke-width:2.5;" width="92" x="10.5" y="151.2813"/><text fill="#000000" font-family="sans-serif" font-size="12" lengthAdjust="spacing" textLength="80" x="16.5" y="164.4199">Sauvegarder</text><rect fill="#EEEEEE" height="17.9688" rx="5" ry="5" style="stroke:#000000;stroke-width:2.5;" width="332" x="109.5" y="151.2813"/><text fill="#000000" font-family="sans-serif" font-size="12" lengthAdjust="spacing" textLength="285" x="133" y="164.4199">Saisir une mar&#233;e observ&#233;e au d&#233;barquement</text></g></svg>