<?xml version="1.0" encoding="UTF-8" standalone="no"?><svg xmlns="http://www.w3.org/2000/svg" xmlns:xlink="http://www.w3.org/1999/xlink" contentStyleType="text/css" height="315px" preserveAspectRatio="none" style="width:495px;height:315px;background:#FFFFFF;" version="1.1" viewBox="0 0 495 315" width="495px" zoomAndPan="magnify"><defs/><g><text fill="#000000" font-family="sans-serif" font-size="12" font-weight="bold" lengthAdjust="spacing" textLength="128" x="6" y="18.8281">Nouvelle observation</text><line style="stroke:#AAAAAA;stroke-width:1.0;stroke-dasharray:1.0,2.0;" x1="6" x2="181" y1="27.8441" y2="27.8441"/><text fill="#000000" font-family="sans-serif" font-size="12" font-weight="bold" lengthAdjust="spacing" textLength="47" x="8" y="45.1722">General</text><line style="stroke:#000000;stroke-width:1.0;" x1="6" x2="6" y1="32.3441" y2="48.6882"/><line style="stroke:#000000;stroke-width:1.0;" x1="6" x2="58" y1="32.3441" y2="32.3441"/><line style="stroke:#000000;stroke-width:1.0;" x1="58" x2="58" y1="32.3441" y2="48.6882"/><line style="stroke:#000000;stroke-width:1.0;" x1="58" x2="68" y1="48.6882" y2="48.6882"/><text fill="#000000" font-family="sans-serif" font-size="12" lengthAdjust="spacing" textLength="97" x="70" y="45.1722">Navires observés</text><line style="stroke:#000000;stroke-width:1.0;" x1="68" x2="68" y1="32.3441" y2="48.6882"/><line style="stroke:#000000;stroke-width:1.0;" x1="68" x2="170" y1="32.3441" y2="32.3441"/><line style="stroke:#000000;stroke-width:1.0;" x1="170" x2="170" y1="32.3441" y2="48.6882"/><line style="stroke:#000000;stroke-width:1.0;" x1="170" x2="180" y1="48.6882" y2="48.6882"/><text fill="#000000" font-family="sans-serif" font-size="12" lengthAdjust="spacing" textLength="140" x="6" y="81.8604">Programme de collecte*:</text><rect fill="#EEEEEE" height="19.3441" style="stroke:#000000;stroke-width:1.0;" width="95" x="183" y="70.0323"/><text fill="#000000" font-family="sans-serif" font-size="12" lengthAdjust="spacing" textLength="72" x="185" y="84.8604">SIH-OBSDEB</text><line style="stroke:#000000;stroke-width:1.0;" x1="267" x2="267" y1="70.0323" y2="89.3765"/><polygon fill="#000000" points="270,76.0323,276,76.0323,273,84.3765" style="stroke:#000000;stroke-width:1.0;"/><text fill="#000000" font-family="sans-serif" font-size="12" lengthAdjust="spacing" textLength="112" x="6" y="106.2045">Lieu d'observation*:</text><rect fill="#EEEEEE" height="19.3441" style="stroke:#000000;stroke-width:1.0;" width="143" x="183" y="94.3765"/><text fill="#000000" font-family="sans-serif" font-size="12" lengthAdjust="spacing" textLength="98" x="185" y="109.2045">MA - Mahé Island</text><line style="stroke:#000000;stroke-width:1.0;" x1="315" x2="315" y1="94.3765" y2="113.7206"/><polygon fill="#000000" points="318,100.3765,324,100.3765,321,108.7206" style="stroke:#000000;stroke-width:1.0;"/><text fill="#000000" font-family="sans-serif" font-size="12" lengthAdjust="spacing" textLength="111" x="6" y="130.5487">Date/Heure début*:</text><rect fill="#EEEEEE" height="19.3441" style="stroke:#000000;stroke-width:1.0;" width="95" x="183" y="118.7206"/><text fill="#000000" font-family="sans-serif" font-size="12" lengthAdjust="spacing" textLength="64" x="185" y="133.5487">01/02/2019</text><line style="stroke:#000000;stroke-width:1.0;" x1="267" x2="267" y1="118.7206" y2="138.0647"/><polygon fill="#000000" points="270,124.7206,276,124.7206,273,133.0647" style="stroke:#000000;stroke-width:1.0;"/><rect fill="#EEEEEE" height="19.3441" style="stroke:#000000;stroke-width:1.0;" width="55" x="281" y="118.7206"/><text fill="#000000" font-family="sans-serif" font-size="12" lengthAdjust="spacing" textLength="31" x="283" y="133.5487">09:55</text><line style="stroke:#000000;stroke-width:1.0;" x1="325" x2="325" y1="118.7206" y2="138.0647"/><polygon fill="#000000" points="328,124.7206,334,124.7206,331,133.0647" style="stroke:#000000;stroke-width:1.0;"/><text fill="#000000" font-family="sans-serif" font-size="12" lengthAdjust="spacing" textLength="86" x="6" y="154.8928">Date/Heure fin:</text><rect fill="#EEEEEE" height="19.3441" style="stroke:#000000;stroke-width:1.0;" width="95" x="183" y="143.0647"/><text fill="#000000" font-family="sans-serif" font-size="12" lengthAdjust="spacing" textLength="64" x="185" y="157.8928">01/02/2019</text><line style="stroke:#000000;stroke-width:1.0;" x1="267" x2="267" y1="143.0647" y2="162.4088"/><polygon fill="#000000" points="270,149.0647,276,149.0647,273,157.4088" style="stroke:#000000;stroke-width:1.0;"/><rect fill="#EEEEEE" height="19.3441" style="stroke:#000000;stroke-width:1.0;" width="55" x="281" y="143.0647"/><text fill="#000000" font-family="sans-serif" font-size="12" lengthAdjust="spacing" textLength="31" x="283" y="157.8928">09:55</text><line style="stroke:#000000;stroke-width:1.0;" x1="325" x2="325" y1="143.0647" y2="162.4088"/><polygon fill="#000000" points="328,149.0647,334,149.0647,331,157.4088" style="stroke:#000000;stroke-width:1.0;"/><text fill="#000000" font-family="sans-serif" font-size="12" lengthAdjust="spacing" textLength="86" x="6" y="179.2369">Observateurs*:</text><rect fill="#EEEEEE" height="19.3441" style="stroke:#000000;stroke-width:1.0;" width="127" x="183" y="167.4088"/><text fill="#000000" font-family="sans-serif" font-size="12" lengthAdjust="spacing" textLength="88" x="185" y="182.2369">Observateur #1</text><line style="stroke:#000000;stroke-width:1.0;" x1="299" x2="299" y1="167.4088" y2="186.7529"/><polygon fill="#000000" points="302,173.4088,308,173.4088,305,181.7529" style="stroke:#000000;stroke-width:1.0;"/><rect fill="#EEEEEE" height="12" rx="5" ry="5" style="stroke:#000000;stroke-width:2.5;" width="20" x="315.5" y="169.9088"/><path d="M324.5,171.9088 L324.5,174.9088 L321.5,174.9088 L321.5,176.9088 L324.5,176.9088 L324.5,179.9088 L326.5,179.9088 L326.5,176.9088 L329.5,176.9088 L329.5,174.9088 L326.5,174.9088 L326.5,171.9088 L324.5,171.9088 " fill="#000000" style="stroke:;stroke-width:0.0;stroke-dasharray:;"/><rect fill="#EEEEEE" height="12" rx="5" ry="5" style="stroke:#000000;stroke-width:2.5;" width="20" x="342.5" y="169.9088"/><path d="M349.91,171.9088 L348.5,173.3188 L349.22,174.0388 L351,175.8488 L349.22,177.6288 L348.5,178.3188 L349.91,179.7588 L350.63,179.0388 L352.44,177.2288 L354.22,179.0388 L354.91,179.7588 L356.35,178.3188 L355.63,177.6288 L353.82,175.8488 L355.63,174.0388 L356.35,173.3188 L354.91,171.9088 L354.22,172.6288 L352.44,174.4088 L350.63,172.6288 L349.91,171.9088 " fill="#000000" style="stroke:;stroke-width:0.0;stroke-dasharray:;"/><text fill="#000000" font-family="sans-serif" font-size="12" lengthAdjust="spacing" textLength="133" x="6" y="203.581">Autres caractéristiques:</text><text fill="#000000" font-family="sans-serif" font-size="12" lengthAdjust="spacing" textLength="247" x="183" y="204.581">Paramètre 1 (ex: Nombre d'homme à bord) :</text><text fill="#000000" font-family="sans-serif" font-size="12" lengthAdjust="spacing" textLength="7" x="435" y="204.581">1</text><line style="stroke:#000000;stroke-width:1.0;" x1="433" x2="484" y1="208.097" y2="208.097"/><line style="stroke:#000000;stroke-width:1.0;" x1="433" x2="433" y1="205.097" y2="207.097"/><line style="stroke:#000000;stroke-width:1.0;" x1="484" x2="484" y1="205.097" y2="207.097"/><text fill="#000000" font-family="sans-serif" font-size="12" lengthAdjust="spacing" textLength="76" x="183" y="226.9251">Paramètre 2 :</text><rect fill="#EEEEEE" height="19.3441" style="stroke:#000000;stroke-width:1.0;" width="159" x="261" y="214.097"/><text fill="#000000" font-family="sans-serif" font-size="12" lengthAdjust="spacing" textLength="97" x="263" y="228.9251">Valeur qualitative</text><line style="stroke:#000000;stroke-width:1.0;" x1="409" x2="409" y1="214.097" y2="233.4411"/><polygon fill="#000000" points="412,220.097,418,220.097,415,228.4411" style="stroke:#000000;stroke-width:1.0;"/><text fill="#000000" font-family="sans-serif" font-size="12" lengthAdjust="spacing" textLength="83" x="6" y="268.6133">Commentaires</text><text fill="#000000" font-family="sans-serif" font-size="12" lengthAdjust="spacing" textLength="81" x="186" y="269.6133">commentaires</text><line style="stroke:#000000;stroke-width:1.0;" x1="184" x2="339" y1="273.1294" y2="273.1294"/><line style="stroke:#000000;stroke-width:1.0;" x1="184" x2="184" y1="270.1294" y2="272.1294"/><line style="stroke:#000000;stroke-width:1.0;" x1="339" x2="339" y1="270.1294" y2="272.1294"/><line style="stroke:#AAAAAA;stroke-width:1.0;" x1="6" x2="181" y1="281.6294" y2="281.6294"/><line style="stroke:#AAAAAA;stroke-width:1.0;" x1="182" x2="488" y1="281.6294" y2="281.6294"/><rect fill="#EEEEEE" height="20.3441" rx="5" ry="5" style="stroke:#000000;stroke-width:2.5;" width="60" x="185.5" y="289.6294"/><text fill="#000000" font-family="sans-serif" font-size="12" lengthAdjust="spacing" textLength="44" x="193.5" y="304.4575">Annuler</text><rect fill="#EEEEEE" height="20.3441" rx="5" ry="5" style="stroke:#000000;stroke-width:2.5;" width="92" x="252.5" y="289.6294"/><text fill="#000000" font-family="sans-serif" font-size="12" lengthAdjust="spacing" textLength="72" x="262.5" y="304.4575">Sauvegarder</text></g></svg>