<?xml version="1.0" encoding="UTF-8" standalone="no"?><svg xmlns="http://www.w3.org/2000/svg" xmlns:xlink="http://www.w3.org/1999/xlink" contentScriptType="application/ecmascript" contentStyleType="text/css" height="63px" preserveAspectRatio="none" style="width:169px;height:63px;" version="1.1" viewBox="0 0 169 63" width="169px" zoomAndPan="magnify"><defs/><g><path d="M11,10.0938 C9.895,10.0938 9,11.2128 9,12.5938 C9,13.9748 9.895,15.0938 11,15.0938 C12.105,15.0938 13,13.9748 13,12.5938 C13,11.2128 12.105,10.0938 11,10.0938 M8.906,15.0938 C7.836,15.1338 7,16.0138 7,17.0938 L7,18.0938 L15,18.0938 L15,17.0938 C15,16.0138 14.164,15.1338 13.094,15.0938 C12.554,15.7038 11.81,16.0938 11,16.0938 C10.19,16.0938 9.446,15.7038 8.906,15.0938 " fill="#000000" style="stroke: ; stroke-width: 0.0; stroke-dasharray: ;"/><text fill="#000000" font-family="sans-serif" font-size="12" lengthAdjust="spacingAndGlyphs" textLength="142" x="19" y="18.457">Recorder: Observer name</text><path d="M11,27.1875 C8.797,27.1875 7,28.9845 7,31.1875 C7,33.3905 8.797,35.1875 11,35.1875 C13.203,35.1875 15,33.3905 15,31.1875 C15,28.9845 13.203,27.1875 11,27.1875 M11,28.1875 C12.663,28.1875 14,29.5245 14,31.1875 C14,32.8505 12.663,34.1875 11,34.1875 C9.337,34.1875 8,32.8505 8,31.1875 C8,29.5245 9.337,28.1875 11,28.1875 M10.5,29.1875 L10.5,31.4065 L10.656,31.5315 L11.156,32.0315 L11.5,32.4065 L12.219,31.6875 L11.844,31.3435 L11.5,30.9995 L11.5,29.1865 L10.5,29.1865 " fill="#000000" style="stroke: ; stroke-width: 0.0; stroke-dasharray: ;"/><text fill="#000000" font-family="sans-serif" font-size="12" lengthAdjust="spacingAndGlyphs" textLength="97" x="19" y="35.5508">Last modification:</text><text fill="#000000" font-family="sans-serif" font-size="12" lengthAdjust="spacingAndGlyphs" textLength="135" x="6" y="52.6445">on  dd/mm/aaaa  hh:mm</text><line style="stroke: #000000; stroke-width: 1.0;" x1="5" x2="162" y1="5" y2="5"/><line style="stroke: #000000; stroke-width: 1.0;" x1="5" x2="162" y1="56.2813" y2="56.2813"/><line style="stroke: #000000; stroke-width: 1.0;" x1="5" x2="5" y1="5" y2="22.0938"/><line style="stroke: #000000; stroke-width: 1.0;" x1="162" x2="162" y1="22.0938" y2="39.1875"/><line style="stroke: #000000; stroke-width: 1.0;" x1="162" x2="162" y1="5" y2="22.0938"/><line style="stroke: #000000; stroke-width: 1.0;" x1="5" x2="5" y1="39.1875" y2="56.2813"/><line style="stroke: #000000; stroke-width: 1.0;" x1="5" x2="5" y1="22.0938" y2="39.1875"/><line style="stroke: #000000; stroke-width: 1.0;" x1="162" x2="162" y1="39.1875" y2="56.2813"/></g></svg>