<?xml version="1.0" encoding="UTF-8" standalone="no"?><svg xmlns="http://www.w3.org/2000/svg" xmlns:xlink="http://www.w3.org/1999/xlink" contentStyleType="text/css" height="83px" preserveAspectRatio="none" style="width:384px;height:83px;background:#FFFFFF;" version="1.1" viewBox="0 0 384 83" width="384px" zoomAndPan="magnify"><defs/><g><path d="M11,8.9688 C9.9,8.9688 9,10.0888 9,11.4688 C9,12.8487 9.9,13.9688 11,13.9688 C12.1,13.9688 13,12.8487 13,11.4688 C13,10.0888 12.1,8.9688 11,8.9688 M8.91,13.9688 C7.85,14.0188 7,14.8888 7,15.9688 L7,16.9688 L15,16.9688 L15,15.9688 C15,14.8888 14.16,14.0188 13.09,13.9688 C12.55,14.5788 11.81,14.9688 11,14.9688 C10.19,14.9688 9.45,14.5788 8.91,13.9688 " fill="#000000" style="stroke:;stroke-width:0.0;stroke-dasharray:;"/><text fill="#000000" font-family="sans-serif" font-size="12" lengthAdjust="spacing" textLength="61" x="20" y="17.1387">Recorder:</text><text fill="#000000" font-family="sans-serif" font-size="12" font-weight="bold" lengthAdjust="spacing" textLength="108" x="268" y="17.1387">Observer name</text><text fill="#000000" font-family="sans-serif" font-size="12" lengthAdjust="spacing" textLength="98" x="268" y="33.1074">Organism name</text><line style="stroke:#AAAAAA;stroke-width:1.0;stroke-dasharray:1.0,2.0;" x1="6" x2="267" y1="41.4375" y2="41.4375"/><line style="stroke:#AAAAAA;stroke-width:1.0;stroke-dasharray:1.0,2.0;" x1="268" x2="377" y1="41.4375" y2="41.4375"/><path d="M7,48.9063 L7,50.9063 L14,50.9063 L14,48.9063 L7,48.9063 M7,51.9063 L7,56.8163 C7,56.8663 7.04,56.9063 7.09,56.9063 L13.9,56.9063 C13.95,56.9063 13.99,56.8663 13.99,56.8163 L13.99,51.9063 L6.99,51.9063 M8,52.9063 L9,52.9063 L9,53.9063 L8,53.9063 L8,52.9063 M10,52.9063 L11,52.9063 L11,53.9063 L10,53.9063 L10,52.9063 M12,52.9063 L13,52.9063 L13,53.9063 L12,53.9063 L12,52.9063 M8,54.9063 L9,54.9063 L9,55.9063 L8,55.9063 L8,54.9063 M10,54.9063 L11,54.9063 L11,55.9063 L10,55.9063 L10,54.9063 " fill="#000000" style="stroke:;stroke-width:0.0;stroke-dasharray:;"/><text fill="#000000" font-family="sans-serif" font-size="12" lengthAdjust="spacing" textLength="246" x="20" y="57.0762">Created on dd/mm/aaaa  hh:mm AM/PM</text><path d="M7,64.875 L7,72.875 L15,72.875 L15,70.495 A0.5,0.5 0 0 0 15,70.275 L15,64.865 L7,64.865 M8,65.875 L14,65.875 L14,69.875 L12.5,69.875 A0.5,0.5 0 0 0 12.41,69.875 A0.5,0.5 0 1 0 12.5,70.875 L14,70.875 L14,71.875 L8,71.875 L8,65.875 M10.5,66.875 C9.67,66.875 9,67.545 9,68.375 C9,69.375 10.5,70.875 10.5,70.875 C10.5,70.875 12,69.375 12,68.375 C12,67.545 11.33,66.875 10.5,66.875 M10.5,67.875 C10.78,67.875 11,68.095 11,68.375 C11,68.655 10.78,68.875 10.5,68.875 C10.22,68.875 10,68.655 10,68.375 C10,68.095 10.22,67.875 10.5,67.875 " fill="#000000" style="stroke:;stroke-width:0.0;stroke-dasharray:;"/><text fill="#000000" font-family="sans-serif" font-size="12" lengthAdjust="spacing" textLength="234" x="20" y="73.0449">Input position: -4.704492, 55.475403</text><line style="stroke:#000000;stroke-width:1.0;" x1="5" x2="267" y1="5" y2="5"/><line style="stroke:#000000;stroke-width:1.0;" x1="267" x2="377" y1="5" y2="5"/><line style="stroke:#000000;stroke-width:1.0;" x1="5" x2="267" y1="76.875" y2="76.875"/><line style="stroke:#000000;stroke-width:1.0;" x1="267" x2="377" y1="76.875" y2="76.875"/><line style="stroke:#000000;stroke-width:1.0;" x1="5" x2="5" y1="5" y2="20.9688"/><line style="stroke:#000000;stroke-width:1.0;" x1="377" x2="377" y1="36.9375" y2="44.9375"/><line style="stroke:#000000;stroke-width:1.0;" x1="377" x2="377" y1="20.9688" y2="36.9375"/><line style="stroke:#000000;stroke-width:1.0;" x1="377" x2="377" y1="5" y2="20.9688"/><line style="stroke:#000000;stroke-width:1.0;" x1="5" x2="5" y1="60.9063" y2="76.875"/><line style="stroke:#000000;stroke-width:1.0;" x1="5" x2="5" y1="44.9375" y2="60.9063"/><line style="stroke:#000000;stroke-width:1.0;" x1="5" x2="5" y1="36.9375" y2="44.9375"/><line style="stroke:#000000;stroke-width:1.0;" x1="377" x2="377" y1="60.9063" y2="76.875"/><line style="stroke:#000000;stroke-width:1.0;" x1="5" x2="5" y1="20.9688" y2="36.9375"/><line style="stroke:#000000;stroke-width:1.0;" x1="377" x2="377" y1="44.9375" y2="60.9063"/></g></svg>