<?xml version="1.0" encoding="us-ascii" standalone="no"?><svg xmlns="http://www.w3.org/2000/svg" xmlns:xlink="http://www.w3.org/1999/xlink" contentStyleType="text/css" height="249px" preserveAspectRatio="none" style="width:360px;height:249px;background:#FFFFFF;" version="1.1" viewBox="0 0 360 249" width="360px" zoomAndPan="magnify"><defs/><g><text fill="#000000" font-family="sans-serif" font-size="12" font-weight="bold" lengthAdjust="spacing" textLength="87" x="6" y="18.457">Nouveau navire</text><line style="stroke:#AAAAAA;stroke-width:1.0;stroke-dasharray:1.0,2.0;" x1="6" x2="191" y1="26.5938" y2="26.5938"/><text fill="#000000" font-family="sans-serif" font-size="12" lengthAdjust="spacing" textLength="84" x="10" y="61.6445">Type de navire*</text><line style="stroke:#000000;stroke-width:1.0;" x1="8" x2="187" y1="64.2813" y2="64.2813"/><line style="stroke:#000000;stroke-width:1.0;" x1="8" x2="8" y1="61.2813" y2="63.2813"/><line style="stroke:#000000;stroke-width:1.0;" x1="187" x2="187" y1="61.2813" y2="63.2813"/><text fill="#000000" font-family="sans-serif" font-size="12" lengthAdjust="spacing" textLength="80" x="10" y="82.7383">Nom du navire</text><line style="stroke:#000000;stroke-width:1.0;" x1="8" x2="179" y1="85.375" y2="85.375"/><line style="stroke:#000000;stroke-width:1.0;" x1="8" x2="8" y1="82.375" y2="84.375"/><line style="stroke:#000000;stroke-width:1.0;" x1="179" x2="179" y1="82.375" y2="84.375"/><text fill="#000000" font-family="sans-serif" font-size="12" lengthAdjust="spacing" textLength="90" x="196" y="82.7383">Immatriculation*</text><line style="stroke:#000000;stroke-width:1.0;" x1="194" x2="349" y1="85.375" y2="85.375"/><line style="stroke:#000000;stroke-width:1.0;" x1="194" x2="194" y1="82.375" y2="84.375"/><line style="stroke:#000000;stroke-width:1.0;" x1="349" x2="349" y1="82.375" y2="84.375"/><text fill="#000000" font-family="sans-serif" font-size="12" lengthAdjust="spacing" textLength="104" x="6" y="102.832">Date validit&#233; d&#233;but:</text><rect fill="#EEEEEE" height="18.0938" style="stroke:#000000;stroke-width:1.0;" width="95" x="193" y="91.375"/><text fill="#000000" font-family="sans-serif" font-size="12" lengthAdjust="spacing" textLength="62" x="195" y="105.832">01/02/2019</text><line style="stroke:#000000;stroke-width:1.0;" x1="277" x2="277" y1="91.375" y2="109.4688"/><polygon fill="#000000" points="280,97.375,286,97.375,283,104.4688" style="stroke:#000000;stroke-width:1.0;"/><path d="M10,117.5625 C8.34,117.5625 7,118.9025 7,120.5625 C7,122.5625 10,125.5625 10,125.5625 C10,125.5625 13,122.5625 13,120.5625 C13,118.9025 11.66,117.5625 10,117.5625 M10,118.5625 C11.11,118.5625 12,119.4625 12,120.5625 C12,121.6725 11.11,122.5625 10,122.5625 C8.9,122.5625 8,121.6725 8,120.5625 C8,119.4625 8.9,118.5625 10,118.5625 " fill="#000000" style="stroke:;stroke-width:0.0;stroke-dasharray:;"/><text fill="#000000" font-family="sans-serif" font-size="12" lengthAdjust="spacing" textLength="61" x="19" y="125.9258">Base port*:</text><rect fill="#EEEEEE" height="18.0938" style="stroke:#000000;stroke-width:1.0;" width="143" x="193" y="114.4688"/><text fill="#000000" font-family="sans-serif" font-size="12" lengthAdjust="spacing" textLength="93" x="195" y="128.9258">MA - Mah&#233; Island</text><line style="stroke:#000000;stroke-width:1.0;" x1="325" x2="325" y1="114.4688" y2="132.5625"/><polygon fill="#000000" points="328,120.4688,334,120.4688,331,127.5625" style="stroke:#000000;stroke-width:1.0;"/><text fill="#000000" font-family="sans-serif" font-size="12" lengthAdjust="spacing" textLength="40" x="10" y="150.0195">Status*</text><line style="stroke:#000000;stroke-width:1.0;" x1="8" x2="123" y1="152.6563" y2="152.6563"/><line style="stroke:#000000;stroke-width:1.0;" x1="8" x2="8" y1="149.6563" y2="151.6563"/><line style="stroke:#000000;stroke-width:1.0;" x1="123" x2="123" y1="149.6563" y2="151.6563"/><text fill="#000000" font-family="sans-serif" font-size="12" lengthAdjust="spacing" textLength="83" x="6" y="187.207">Commentaires</text><text fill="#000000" font-family="sans-serif" font-size="12" lengthAdjust="spacing" textLength="80" x="196" y="188.207">commentaires</text><line style="stroke:#000000;stroke-width:1.0;" x1="194" x2="349" y1="190.8438" y2="190.8438"/><line style="stroke:#000000;stroke-width:1.0;" x1="194" x2="194" y1="187.8438" y2="189.8438"/><line style="stroke:#000000;stroke-width:1.0;" x1="349" x2="349" y1="187.8438" y2="189.8438"/><line style="stroke:#AAAAAA;stroke-width:1.0;" x1="6" x2="191" y1="216.4375" y2="216.4375"/><line style="stroke:#AAAAAA;stroke-width:1.0;" x1="192" x2="353" y1="216.4375" y2="216.4375"/><rect fill="#EEEEEE" height="19.0938" rx="5" ry="5" style="stroke:#000000;stroke-width:2.5;" width="60" x="9.5" y="224.4375"/><text fill="#000000" font-family="sans-serif" font-size="12" lengthAdjust="spacing" textLength="42" x="18.5" y="238.8945">Annuler</text><rect fill="#EEEEEE" height="19.0938" rx="5" ry="5" style="stroke:#000000;stroke-width:2.5;" width="60" x="76.5" y="224.4375"/><text fill="#000000" font-family="sans-serif" font-size="12" lengthAdjust="spacing" textLength="38" x="87.5" y="238.8945">Ajouter</text></g></svg>