<?xml version="1.0" encoding="us-ascii" standalone="no"?><svg xmlns="http://www.w3.org/2000/svg" xmlns:xlink="http://www.w3.org/1999/xlink" contentStyleType="text/css" height="88px" preserveAspectRatio="none" style="width:337px;height:88px;background:#FFFFFF;" version="1.1" viewBox="0 0 337 88" width="337px" zoomAndPan="magnify"><defs/><g><path d="M11,10.0938 C9.9,10.0938 9,11.2138 9,12.5938 C9,13.9737 9.9,15.0938 11,15.0938 C12.1,15.0938 13,13.9737 13,12.5938 C13,11.2138 12.1,10.0938 11,10.0938 M8.91,15.0938 C7.85,15.1438 7,16.0138 7,17.0938 L7,18.0938 L15,18.0938 L15,17.0938 C15,16.0138 14.16,15.1438 13.09,15.0938 C12.55,15.7038 11.81,16.0938 11,16.0938 C10.19,16.0938 9.45,15.7038 8.91,15.0938 " fill="#000000" style="stroke:;stroke-width:0.0;stroke-dasharray:;"/><text fill="#000000" font-family="sans-serif" font-size="12" lengthAdjust="spacing" textLength="54" x="19" y="18.457">Recorder:</text><text fill="#000000" font-family="sans-serif" font-size="12" font-weight="bold" lengthAdjust="spacing" textLength="88" x="239" y="18.457">Observer name</text><text fill="#000000" font-family="sans-serif" font-size="12" lengthAdjust="spacing" textLength="90" x="239" y="35.5508">Organism name</text><line style="stroke:#AAAAAA;stroke-width:1.0;stroke-dasharray:1.0,2.0;" x1="6" x2="238" y1="43.6875" y2="43.6875"/><line style="stroke:#AAAAAA;stroke-width:1.0;stroke-dasharray:1.0,2.0;" x1="239" x2="330" y1="43.6875" y2="43.6875"/><path d="M7,52.2813 L7,54.2813 L14,54.2813 L14,52.2813 L7,52.2813 M7,55.2813 L7,60.1913 C7,60.2413 7.04,60.2813 7.09,60.2813 L13.9,60.2813 C13.95,60.2813 13.99,60.2413 13.99,60.1913 L13.99,55.2813 L6.99,55.2813 M8,56.2813 L9,56.2813 L9,57.2813 L8,57.2813 L8,56.2813 M10,56.2813 L11,56.2813 L11,57.2813 L10,57.2813 L10,56.2813 M12,56.2813 L13,56.2813 L13,57.2813 L12,57.2813 L12,56.2813 M8,58.2813 L9,58.2813 L9,59.2813 L8,59.2813 L8,58.2813 M10,58.2813 L11,58.2813 L11,59.2813 L10,59.2813 L10,58.2813 " fill="#000000" style="stroke:;stroke-width:0.0;stroke-dasharray:;"/><text fill="#000000" font-family="sans-serif" font-size="12" lengthAdjust="spacing" textLength="218" x="19" y="60.6445">Created on dd/mm/aaaa  hh:mm AM/PM</text><path d="M7,69.375 L7,77.375 L15,77.375 L15,74.995 A0.5,0.5 0 0 0 15,74.775 L15,69.365 L7,69.365 M8,70.375 L14,70.375 L14,74.375 L12.5,74.375 A0.5,0.5 0 0 0 12.41,74.375 A0.5,0.5 0 1 0 12.5,75.375 L14,75.375 L14,76.375 L8,76.375 L8,70.375 M10.5,71.375 C9.67,71.375 9,72.045 9,72.875 C9,73.875 10.5,75.375 10.5,75.375 C10.5,75.375 12,73.875 12,72.875 C12,72.045 11.33,71.375 10.5,71.375 M10.5,72.375 C10.78,72.375 11,72.595 11,72.875 C11,73.155 10.78,73.375 10.5,73.375 C10.22,73.375 10,73.155 10,72.875 C10,72.595 10.22,72.375 10.5,72.375 " fill="#000000" style="stroke:;stroke-width:0.0;stroke-dasharray:;"/><text fill="#000000" font-family="sans-serif" font-size="12" lengthAdjust="spacing" textLength="201" x="19" y="77.7383">Input position: -4.704492, 55.475403</text><line style="stroke:#000000;stroke-width:1.0;" x1="5" x2="238" y1="5" y2="5"/><line style="stroke:#000000;stroke-width:1.0;" x1="238" x2="330" y1="5" y2="5"/><line style="stroke:#000000;stroke-width:1.0;" x1="5" x2="238" y1="81.375" y2="81.375"/><line style="stroke:#000000;stroke-width:1.0;" x1="238" x2="330" y1="81.375" y2="81.375"/><line style="stroke:#000000;stroke-width:1.0;" x1="5" x2="5" y1="5" y2="22.0938"/><line style="stroke:#000000;stroke-width:1.0;" x1="330" x2="330" y1="39.1875" y2="47.1875"/><line style="stroke:#000000;stroke-width:1.0;" x1="330" x2="330" y1="22.0938" y2="39.1875"/><line style="stroke:#000000;stroke-width:1.0;" x1="330" x2="330" y1="5" y2="22.0938"/><line style="stroke:#000000;stroke-width:1.0;" x1="5" x2="5" y1="64.2813" y2="81.375"/><line style="stroke:#000000;stroke-width:1.0;" x1="5" x2="5" y1="47.1875" y2="64.2813"/><line style="stroke:#000000;stroke-width:1.0;" x1="5" x2="5" y1="39.1875" y2="47.1875"/><line style="stroke:#000000;stroke-width:1.0;" x1="330" x2="330" y1="64.2813" y2="81.375"/><line style="stroke:#000000;stroke-width:1.0;" x1="5" x2="5" y1="22.0938" y2="39.1875"/><line style="stroke:#000000;stroke-width:1.0;" x1="330" x2="330" y1="47.1875" y2="64.2813"/></g></svg>