<?xml version="1.0" encoding="us-ascii" standalone="no"?><svg xmlns="http://www.w3.org/2000/svg" xmlns:xlink="http://www.w3.org/1999/xlink" contentStyleType="text/css" height="822px" preserveAspectRatio="none" style="width:906px;height:822px;background:#FFFFFF;" version="1.1" viewBox="0 0 906 822" width="906px" zoomAndPan="magnify"><defs/><g><text fill="#000000" font-family="sans-serif" font-size="14" font-weight="bold" lengthAdjust="spacing" textLength="249" x="295" y="25.1074">Calendrier d'activit&#233; - Development</text><rect fill="#FFFAFA" height="27" style="stroke:none;stroke-width:1.0;" width="840" x="0" y="39.6211"/><rect fill="#228B22" height="658.7109" style="stroke:none;stroke-width:1.0;" width="4" x="544" y="66.6211"/><text fill="#000000" font-family="sans-serif" font-size="10" lengthAdjust="spacing" textLength="12" x="5" y="66.4121">15</text><text fill="#000000" font-family="sans-serif" font-size="10" lengthAdjust="spacing" textLength="12" x="33" y="66.4121">16</text><text fill="#000000" font-family="sans-serif" font-size="10" lengthAdjust="spacing" textLength="12" x="61" y="66.4121">17</text><text fill="#000000" font-family="sans-serif" font-size="10" lengthAdjust="spacing" textLength="12" x="89" y="66.4121">18</text><text fill="#000000" font-family="sans-serif" font-size="10" lengthAdjust="spacing" textLength="12" x="117" y="66.4121">19</text><text fill="#000000" font-family="sans-serif" font-size="10" lengthAdjust="spacing" textLength="12" x="145" y="66.4121">20</text><text fill="#000000" font-family="sans-serif" font-size="10" lengthAdjust="spacing" textLength="12" x="173" y="66.4121">21</text><text fill="#000000" font-family="sans-serif" font-size="10" lengthAdjust="spacing" textLength="12" x="201" y="66.4121">22</text><text fill="#000000" font-family="sans-serif" font-size="10" lengthAdjust="spacing" textLength="12" x="229" y="66.4121">23</text><text fill="#000000" font-family="sans-serif" font-size="10" lengthAdjust="spacing" textLength="12" x="257" y="66.4121">24</text><text fill="#000000" font-family="sans-serif" font-size="10" lengthAdjust="spacing" textLength="12" x="285" y="66.4121">25</text><text fill="#000000" font-family="sans-serif" font-size="10" lengthAdjust="spacing" textLength="12" x="313" y="66.4121">26</text><text fill="#000000" font-family="sans-serif" font-size="10" lengthAdjust="spacing" textLength="12" x="341" y="66.4121">27</text><text fill="#000000" font-family="sans-serif" font-size="10" lengthAdjust="spacing" textLength="12" x="369" y="66.4121">28</text><text fill="#000000" font-family="sans-serif" font-size="10" lengthAdjust="spacing" textLength="12" x="397" y="66.4121">29</text><text fill="#000000" font-family="sans-serif" font-size="10" lengthAdjust="spacing" textLength="12" x="425" y="66.4121">30</text><text fill="#000000" font-family="sans-serif" font-size="10" lengthAdjust="spacing" textLength="12" x="453" y="66.4121">31</text><text fill="#000000" font-family="sans-serif" font-size="10" lengthAdjust="spacing" textLength="12" x="481" y="66.4121">32</text><text fill="#000000" font-family="sans-serif" font-size="10" lengthAdjust="spacing" textLength="12" x="509" y="66.4121">33</text><text fill="#000000" font-family="sans-serif" font-size="10" lengthAdjust="spacing" textLength="12" x="537" y="66.4121">34</text><text fill="#000000" font-family="sans-serif" font-size="10" lengthAdjust="spacing" textLength="12" x="565" y="66.4121">35</text><text fill="#000000" font-family="sans-serif" font-size="10" lengthAdjust="spacing" textLength="12" x="593" y="66.4121">36</text><text fill="#000000" font-family="sans-serif" font-size="10" lengthAdjust="spacing" textLength="12" x="621" y="66.4121">37</text><text fill="#000000" font-family="sans-serif" font-size="10" lengthAdjust="spacing" textLength="12" x="649" y="66.4121">38</text><text fill="#000000" font-family="sans-serif" font-size="10" lengthAdjust="spacing" textLength="12" x="677" y="66.4121">39</text><text fill="#000000" font-family="sans-serif" font-size="10" lengthAdjust="spacing" textLength="12" x="705" y="66.4121">40</text><text fill="#000000" font-family="sans-serif" font-size="10" lengthAdjust="spacing" textLength="12" x="733" y="66.4121">41</text><text fill="#000000" font-family="sans-serif" font-size="10" lengthAdjust="spacing" textLength="12" x="761" y="66.4121">42</text><text fill="#000000" font-family="sans-serif" font-size="10" lengthAdjust="spacing" textLength="12" x="789" y="66.4121">43</text><text fill="#000000" font-family="sans-serif" font-size="10" lengthAdjust="spacing" textLength="12" x="817" y="66.4121">44</text><line style="stroke:#C0C0C0;stroke-width:1.0;" x1="0" x2="0" y1="55.6211" y2="725.332"/><line style="stroke:#C0C0C0;stroke-width:1.0;" x1="28" x2="28" y1="55.6211" y2="725.332"/><line style="stroke:#C0C0C0;stroke-width:1.0;" x1="56" x2="56" y1="55.6211" y2="725.332"/><line style="stroke:#C0C0C0;stroke-width:1.0;" x1="84" x2="84" y1="55.6211" y2="725.332"/><line style="stroke:#C0C0C0;stroke-width:1.0;" x1="112" x2="112" y1="55.6211" y2="725.332"/><line style="stroke:#C0C0C0;stroke-width:1.0;" x1="140" x2="140" y1="55.6211" y2="725.332"/><line style="stroke:#C0C0C0;stroke-width:1.0;" x1="168" x2="168" y1="55.6211" y2="725.332"/><line style="stroke:#C0C0C0;stroke-width:1.0;" x1="196" x2="196" y1="55.6211" y2="725.332"/><line style="stroke:#C0C0C0;stroke-width:1.0;" x1="224" x2="224" y1="55.6211" y2="725.332"/><line style="stroke:#C0C0C0;stroke-width:1.0;" x1="252" x2="252" y1="55.6211" y2="725.332"/><line style="stroke:#C0C0C0;stroke-width:1.0;" x1="280" x2="280" y1="55.6211" y2="725.332"/><line style="stroke:#C0C0C0;stroke-width:1.0;" x1="308" x2="308" y1="55.6211" y2="725.332"/><line style="stroke:#C0C0C0;stroke-width:1.0;" x1="336" x2="336" y1="55.6211" y2="725.332"/><line style="stroke:#C0C0C0;stroke-width:1.0;" x1="364" x2="364" y1="55.6211" y2="725.332"/><line style="stroke:#C0C0C0;stroke-width:1.0;" x1="392" x2="392" y1="55.6211" y2="725.332"/><line style="stroke:#C0C0C0;stroke-width:1.0;" x1="420" x2="420" y1="55.6211" y2="725.332"/><line style="stroke:#C0C0C0;stroke-width:1.0;" x1="448" x2="448" y1="55.6211" y2="725.332"/><line style="stroke:#C0C0C0;stroke-width:1.0;" x1="476" x2="476" y1="55.6211" y2="725.332"/><line style="stroke:#C0C0C0;stroke-width:1.0;" x1="504" x2="504" y1="55.6211" y2="725.332"/><line style="stroke:#C0C0C0;stroke-width:1.0;" x1="532" x2="532" y1="55.6211" y2="725.332"/><line style="stroke:#C0C0C0;stroke-width:1.0;" x1="560" x2="560" y1="55.6211" y2="725.332"/><line style="stroke:#C0C0C0;stroke-width:1.0;" x1="588" x2="588" y1="55.6211" y2="725.332"/><line style="stroke:#C0C0C0;stroke-width:1.0;" x1="616" x2="616" y1="55.6211" y2="725.332"/><line style="stroke:#C0C0C0;stroke-width:1.0;" x1="644" x2="644" y1="55.6211" y2="725.332"/><line style="stroke:#C0C0C0;stroke-width:1.0;" x1="672" x2="672" y1="55.6211" y2="725.332"/><line style="stroke:#C0C0C0;stroke-width:1.0;" x1="700" x2="700" y1="55.6211" y2="725.332"/><line style="stroke:#C0C0C0;stroke-width:1.0;" x1="728" x2="728" y1="55.6211" y2="725.332"/><line style="stroke:#C0C0C0;stroke-width:1.0;" x1="756" x2="756" y1="55.6211" y2="725.332"/><line style="stroke:#C0C0C0;stroke-width:1.0;" x1="784" x2="784" y1="55.6211" y2="725.332"/><line style="stroke:#C0C0C0;stroke-width:1.0;" x1="812" x2="812" y1="55.6211" y2="725.332"/><line style="stroke:#C0C0C0;stroke-width:1.0;" x1="840" x2="840" y1="55.6211" y2="725.332"/><line style="stroke:#C0C0C0;stroke-width:1.0;" x1="0" x2="0" y1="39.6211" y2="55.6211"/><line style="stroke:#C0C0C0;stroke-width:1.0;" x1="92" x2="92" y1="39.6211" y2="55.6211"/><text fill="#000000" font-family="sans-serif" font-size="12" font-weight="bold" lengthAdjust="spacing" textLength="51" x="20.5" y="52.5703">Apr 2024</text><line style="stroke:#C0C0C0;stroke-width:1.0;" x1="216" x2="216" y1="39.6211" y2="55.6211"/><text fill="#000000" font-family="sans-serif" font-size="12" font-weight="bold" lengthAdjust="spacing" textLength="54" x="127" y="52.5703">May 2024</text><line style="stroke:#C0C0C0;stroke-width:1.0;" x1="336" x2="336" y1="39.6211" y2="55.6211"/><text fill="#000000" font-family="sans-serif" font-size="12" font-weight="bold" lengthAdjust="spacing" textLength="52" x="250" y="52.5703">Jun 2024</text><line style="stroke:#C0C0C0;stroke-width:1.0;" x1="460" x2="460" y1="39.6211" y2="55.6211"/><text fill="#000000" font-family="sans-serif" font-size="12" font-weight="bold" lengthAdjust="spacing" textLength="48" x="374" y="52.5703">Jul 2024</text><line style="stroke:#C0C0C0;stroke-width:1.0;" x1="584" x2="584" y1="39.6211" y2="55.6211"/><text fill="#000000" font-family="sans-serif" font-size="12" font-weight="bold" lengthAdjust="spacing" textLength="53" x="495.5" y="52.5703">Aug 2024</text><line style="stroke:#C0C0C0;stroke-width:1.0;" x1="704" x2="704" y1="39.6211" y2="55.6211"/><text fill="#000000" font-family="sans-serif" font-size="12" font-weight="bold" lengthAdjust="spacing" textLength="53" x="617.5" y="52.5703">Sep 2024</text><line style="stroke:#C0C0C0;stroke-width:1.0;" x1="828" x2="828" y1="39.6211" y2="55.6211"/><text fill="#000000" font-family="sans-serif" font-size="12" font-weight="bold" lengthAdjust="spacing" textLength="51" x="740.5" y="52.5703">Oct 2024</text><line style="stroke:#C0C0C0;stroke-width:1.0;" x1="840" x2="840" y1="39.6211" y2="55.6211"/><text fill="#000000" font-family="sans-serif" font-size="12" font-weight="bold" lengthAdjust="spacing" textLength="21" x="828" y="52.5703">Nov</text><line style="stroke:#C0C0C0;stroke-width:1.0;" x1="0" x2="840" y1="39.6211" y2="39.6211"/><line style="stroke:#C0C0C0;stroke-width:1.0;" x1="0" x2="840" y1="55.6211" y2="55.6211"/><line style="stroke:#C0C0C0;stroke-width:1.0;" x1="0" x2="840" y1="66.6211" y2="66.6211"/><line style="stroke:#0000FF;stroke-width:1.5;stroke-dasharray:8.0,8.0;" x1="75" x2="75" y1="84.582" y2="96.5625"/><line style="stroke:#0000FF;stroke-width:1.5;stroke-dasharray:8.0,8.0;" x1="75" x2="83" y1="96.5625" y2="96.5625"/><polygon fill="#0000FF" points="79,92.5625,79,96.5625,79,100.5625,83,96.5625" style="stroke:#0000FF;stroke-width:1.5;"/><line style="stroke:#0000FF;stroke-width:1.5;stroke-dasharray:8.0,8.0;" x1="75" x2="75" y1="84.582" y2="116.5234"/><line style="stroke:#0000FF;stroke-width:1.5;stroke-dasharray:8.0,8.0;" x1="75" x2="83" y1="116.5234" y2="116.5234"/><polygon fill="#0000FF" points="79,112.5234,79,116.5234,79,120.5234,83,116.5234" style="stroke:#0000FF;stroke-width:1.5;"/><line style="stroke:#0000FF;stroke-width:1.5;stroke-dasharray:8.0,8.0;" x1="187" x2="187" y1="124.5039" y2="136.4844"/><line style="stroke:#0000FF;stroke-width:1.5;stroke-dasharray:8.0,8.0;" x1="187" x2="195" y1="136.4844" y2="136.4844"/><polygon fill="#0000FF" points="191,132.4844,191,136.4844,191,140.4844,195,136.4844" style="stroke:#0000FF;stroke-width:1.5;"/><line style="stroke:#0000FF;stroke-width:1.5;stroke-dasharray:8.0,8.0;" x1="187" x2="187" y1="124.5039" y2="196.3672"/><line style="stroke:#0000FF;stroke-width:1.5;stroke-dasharray:8.0,8.0;" x1="187" x2="195" y1="196.3672" y2="196.3672"/><polygon fill="#0000FF" points="191,192.3672,191,196.3672,191,200.3672,195,196.3672" style="stroke:#0000FF;stroke-width:1.5;"/><line style="stroke:#0000FF;stroke-width:1.5;stroke-dasharray:8.0,8.0;" x1="306" x2="306" y1="204.3477" y2="216.3281"/><line style="stroke:#0000FF;stroke-width:1.5;stroke-dasharray:8.0,8.0;" x1="306" x2="335" y1="216.3281" y2="216.3281"/><polygon fill="#0000FF" points="331,212.3281,331,216.3281,331,220.3281,335,216.3281" style="stroke:#0000FF;stroke-width:1.5;"/><line style="stroke:#0000FF;stroke-width:1.5;stroke-dasharray:8.0,8.0;" x1="299" x2="299" y1="204.3477" y2="256.25"/><line style="stroke:#0000FF;stroke-width:1.5;stroke-dasharray:8.0,8.0;" x1="299" x2="307" y1="256.25" y2="256.25"/><polygon fill="#0000FF" points="303,252.25,303,256.25,303,260.25,307,256.25" style="stroke:#0000FF;stroke-width:1.5;"/><line style="stroke:#0000FF;stroke-width:1.5;stroke-dasharray:8.0,8.0;" x1="418" x2="418" y1="264.2305" y2="276.2109"/><line style="stroke:#0000FF;stroke-width:1.5;stroke-dasharray:8.0,8.0;" x1="418" x2="463" y1="276.2109" y2="276.2109"/><polygon fill="#0000FF" points="459,272.2109,459,276.2109,459,280.2109,463,276.2109" style="stroke:#0000FF;stroke-width:1.5;"/><line style="stroke:#0000FF;stroke-width:1.5;stroke-dasharray:8.0,8.0;" x1="411" x2="411" y1="264.2305" y2="296.1719"/><line style="stroke:#0000FF;stroke-width:1.5;stroke-dasharray:8.0,8.0;" x1="411" x2="419" y1="296.1719" y2="296.1719"/><polygon fill="#0000FF" points="415,292.1719,415,296.1719,415,300.1719,419,296.1719" style="stroke:#0000FF;stroke-width:1.5;"/><line style="stroke:#0000FF;stroke-width:1.5;stroke-dasharray:8.0,8.0;" x1="530" x2="530" y1="304.1523" y2="316.1328"/><line style="stroke:#0000FF;stroke-width:1.5;stroke-dasharray:8.0,8.0;" x1="530" x2="587" y1="316.1328" y2="316.1328"/><polygon fill="#0000FF" points="583,312.1328,583,316.1328,583,320.1328,587,316.1328" style="stroke:#0000FF;stroke-width:1.5;"/><line style="stroke:#0000FF;stroke-width:1.5;stroke-dasharray:8.0,8.0;" x1="523" x2="523" y1="304.1523" y2="356.0547"/><line style="stroke:#0000FF;stroke-width:1.5;stroke-dasharray:8.0,8.0;" x1="523" x2="531" y1="356.0547" y2="356.0547"/><polygon fill="#0000FF" points="527,352.0547,527,356.0547,527,360.0547,531,356.0547" style="stroke:#0000FF;stroke-width:1.5;"/><line style="stroke:#0000FF;stroke-width:1.5;stroke-dasharray:8.0,8.0;" x1="607" x2="607" y1="364.0352" y2="376.0156"/><line style="stroke:#0000FF;stroke-width:1.5;stroke-dasharray:8.0,8.0;" x1="607" x2="615" y1="376.0156" y2="376.0156"/><polygon fill="#0000FF" points="611,372.0156,611,376.0156,611,380.0156,615,376.0156" style="stroke:#0000FF;stroke-width:1.5;"/><line style="stroke:#0000FF;stroke-width:1.5;stroke-dasharray:8.0,8.0;" x1="607" x2="607" y1="364.0352" y2="415.9375"/><line style="stroke:#0000FF;stroke-width:1.5;stroke-dasharray:8.0,8.0;" x1="607" x2="615" y1="415.9375" y2="415.9375"/><polygon fill="#0000FF" points="611,411.9375,611,415.9375,611,419.9375,615,415.9375" style="stroke:#0000FF;stroke-width:1.5;"/><line style="stroke:#0000FF;stroke-width:1.5;stroke-dasharray:8.0,8.0;" x1="719" x2="719" y1="423.918" y2="435.8984"/><line style="stroke:#0000FF;stroke-width:1.5;stroke-dasharray:8.0,8.0;" x1="719" x2="727" y1="435.8984" y2="435.8984"/><polygon fill="#0000FF" points="723,431.8984,723,435.8984,723,439.8984,727,435.8984" style="stroke:#0000FF;stroke-width:1.5;"/><line style="stroke:#0000FF;stroke-width:1.5;stroke-dasharray:8.0,8.0;" x1="747" x2="747" y1="443.8789" y2="475.8203"/><line style="stroke:#0000FF;stroke-width:1.5;stroke-dasharray:8.0,8.0;" x1="747" x2="755" y1="475.8203" y2="475.8203"/><polygon fill="#0000FF" points="751,471.8203,751,475.8203,751,479.8203,755,475.8203" style="stroke:#0000FF;stroke-width:1.5;"/><line style="stroke:#0000FF;stroke-width:1.5;stroke-dasharray:8.0,8.0;" x1="719" x2="719" y1="423.918" y2="495.7813"/><line style="stroke:#0000FF;stroke-width:1.5;stroke-dasharray:8.0,8.0;" x1="719" x2="727" y1="495.7813" y2="495.7813"/><polygon fill="#0000FF" points="723,491.7813,723,495.7813,723,499.7813,727,495.7813" style="stroke:#0000FF;stroke-width:1.5;"/><line style="stroke:#0000FF;stroke-width:1.5;stroke-dasharray:8.0,8.0;" x1="803" x2="803" y1="483.8008" y2="515.7422"/><line style="stroke:#0000FF;stroke-width:1.5;stroke-dasharray:8.0,8.0;" x1="803" x2="811" y1="515.7422" y2="515.7422"/><polygon fill="#0000FF" points="807,511.7422,807,515.7422,807,519.7422,811,515.7422" style="stroke:#0000FF;stroke-width:1.5;"/><rect fill="#808080" height="15.9609" style="stroke:none;stroke-width:1.0;" width="80" x="2" y="68.6211"/><line style="stroke:#808080;stroke-width:1.0;" x1="2" x2="82" y1="68.6211" y2="68.6211"/><line style="stroke:#808080;stroke-width:1.0;" x1="2" x2="82" y1="84.582" y2="84.582"/><line style="stroke:#808080;stroke-width:1.0;" x1="2" x2="2" y1="68.6211" y2="84.582"/><line style="stroke:#808080;stroke-width:1.0;" x1="82" x2="82" y1="68.6211" y2="84.582"/><rect fill="#00BFFF" height="15.9609" style="stroke:none;stroke-width:1.0;" width="24" x="86" y="88.582"/><line style="stroke:#00BFFF;stroke-width:1.0;" x1="86" x2="110" y1="88.582" y2="88.582"/><line style="stroke:#00BFFF;stroke-width:1.0;" x1="86" x2="110" y1="104.543" y2="104.543"/><line style="stroke:#00BFFF;stroke-width:1.0;" x1="86" x2="86" y1="88.582" y2="104.543"/><line style="stroke:#00BFFF;stroke-width:1.0;" x1="110" x2="110" y1="88.582" y2="104.543"/><rect fill="#808080" height="15.9609" style="stroke:none;stroke-width:1.0;" width="108" x="86" y="108.543"/><line style="stroke:#808080;stroke-width:1.0;" x1="86" x2="194" y1="108.543" y2="108.543"/><line style="stroke:#808080;stroke-width:1.0;" x1="86" x2="194" y1="124.5039" y2="124.5039"/><line style="stroke:#808080;stroke-width:1.0;" x1="86" x2="86" y1="108.543" y2="124.5039"/><line style="stroke:#808080;stroke-width:1.0;" x1="194" x2="194" y1="108.543" y2="124.5039"/><rect fill="#00BFFF" height="15.9609" style="stroke:none;stroke-width:1.0;" width="24" x="198" y="128.5039"/><line style="stroke:#00BFFF;stroke-width:1.0;" x1="198" x2="222" y1="128.5039" y2="128.5039"/><line style="stroke:#00BFFF;stroke-width:1.0;" x1="198" x2="222" y1="144.4648" y2="144.4648"/><line style="stroke:#00BFFF;stroke-width:1.0;" x1="198" x2="198" y1="128.5039" y2="144.4648"/><line style="stroke:#00BFFF;stroke-width:1.0;" x1="222" x2="222" y1="128.5039" y2="144.4648"/><polygon fill="#FFFF00" points="266,148.4648,272,154.4648,266,160.4648,260,154.4648" style="stroke:#B22222;stroke-width:1.0;"/><rect fill="#FA8072" height="15.9609" style="stroke:none;stroke-width:1.0;" width="52" x="114" y="168.4258"/><line style="stroke:#FA8072;stroke-width:1.0;" x1="114" x2="166" y1="168.4258" y2="168.4258"/><line style="stroke:#FA8072;stroke-width:1.0;" x1="114" x2="166" y1="184.3867" y2="184.3867"/><line style="stroke:#FA8072;stroke-width:1.0;" x1="114" x2="114" y1="168.4258" y2="184.3867"/><line style="stroke:#FA8072;stroke-width:1.0;" x1="166" x2="166" y1="168.4258" y2="184.3867"/><rect fill="#808080" height="15.9609" style="stroke:none;stroke-width:1.0;" width="108" x="198" y="188.3867"/><line style="stroke:#808080;stroke-width:1.0;" x1="198" x2="306" y1="188.3867" y2="188.3867"/><line style="stroke:#808080;stroke-width:1.0;" x1="198" x2="306" y1="204.3477" y2="204.3477"/><line style="stroke:#808080;stroke-width:1.0;" x1="198" x2="198" y1="188.3867" y2="204.3477"/><line style="stroke:#808080;stroke-width:1.0;" x1="306" x2="306" y1="188.3867" y2="204.3477"/><rect fill="#00BFFF" height="15.9609" style="stroke:none;stroke-width:1.0;" width="24" x="338" y="208.3477"/><line style="stroke:#00BFFF;stroke-width:1.0;" x1="338" x2="362" y1="208.3477" y2="208.3477"/><line style="stroke:#00BFFF;stroke-width:1.0;" x1="338" x2="362" y1="224.3086" y2="224.3086"/><line style="stroke:#00BFFF;stroke-width:1.0;" x1="338" x2="338" y1="208.3477" y2="224.3086"/><line style="stroke:#00BFFF;stroke-width:1.0;" x1="362" x2="362" y1="208.3477" y2="224.3086"/><polygon fill="#FFFF00" points="370,228.3086,376,234.3086,370,240.3086,364,234.3086" style="stroke:#B22222;stroke-width:1.0;"/><rect fill="#808080" height="15.9609" style="stroke:none;stroke-width:1.0;" width="108" x="310" y="248.2695"/><line style="stroke:#808080;stroke-width:1.0;" x1="310" x2="418" y1="248.2695" y2="248.2695"/><line style="stroke:#808080;stroke-width:1.0;" x1="310" x2="418" y1="264.2305" y2="264.2305"/><line style="stroke:#808080;stroke-width:1.0;" x1="310" x2="310" y1="248.2695" y2="264.2305"/><line style="stroke:#808080;stroke-width:1.0;" x1="418" x2="418" y1="248.2695" y2="264.2305"/><rect fill="#00BFFF" height="15.9609" style="stroke:none;stroke-width:1.0;" width="24" x="466" y="268.2305"/><line style="stroke:#00BFFF;stroke-width:1.0;" x1="466" x2="490" y1="268.2305" y2="268.2305"/><line style="stroke:#00BFFF;stroke-width:1.0;" x1="466" x2="490" y1="284.1914" y2="284.1914"/><line style="stroke:#00BFFF;stroke-width:1.0;" x1="466" x2="466" y1="268.2305" y2="284.1914"/><line style="stroke:#00BFFF;stroke-width:1.0;" x1="490" x2="490" y1="268.2305" y2="284.1914"/><rect fill="#808080" height="15.9609" style="stroke:none;stroke-width:1.0;" width="108" x="422" y="288.1914"/><line style="stroke:#808080;stroke-width:1.0;" x1="422" x2="530" y1="288.1914" y2="288.1914"/><line style="stroke:#808080;stroke-width:1.0;" x1="422" x2="530" y1="304.1523" y2="304.1523"/><line style="stroke:#808080;stroke-width:1.0;" x1="422" x2="422" y1="288.1914" y2="304.1523"/><line style="stroke:#808080;stroke-width:1.0;" x1="530" x2="530" y1="288.1914" y2="304.1523"/><rect fill="#00BFFF" height="15.9609" style="stroke:none;stroke-width:1.0;" width="24" x="590" y="308.1523"/><line style="stroke:#00BFFF;stroke-width:1.0;" x1="590" x2="614" y1="308.1523" y2="308.1523"/><line style="stroke:#00BFFF;stroke-width:1.0;" x1="590" x2="614" y1="324.1133" y2="324.1133"/><line style="stroke:#00BFFF;stroke-width:1.0;" x1="590" x2="590" y1="308.1523" y2="324.1133"/><line style="stroke:#00BFFF;stroke-width:1.0;" x1="614" x2="614" y1="308.1523" y2="324.1133"/><polygon fill="#FFFF00" points="566,328.1133,572,334.1133,566,340.1133,560,334.1133" style="stroke:#B22222;stroke-width:1.0;"/><rect fill="#008000" height="15.9609" style="stroke:none;stroke-width:1.0;" width="80" x="534" y="348.0742"/><line style="stroke:#008000;stroke-width:1.0;" x1="534" x2="614" y1="348.0742" y2="348.0742"/><line style="stroke:#008000;stroke-width:1.0;" x1="534" x2="614" y1="364.0352" y2="364.0352"/><line style="stroke:#008000;stroke-width:1.0;" x1="534" x2="534" y1="348.0742" y2="364.0352"/><line style="stroke:#008000;stroke-width:1.0;" x1="614" x2="614" y1="348.0742" y2="364.0352"/><rect fill="#00BFFF" height="15.9609" style="stroke:none;stroke-width:1.0;" width="24" x="618" y="368.0352"/><line style="stroke:#00BFFF;stroke-width:1.0;" x1="618" x2="642" y1="368.0352" y2="368.0352"/><line style="stroke:#00BFFF;stroke-width:1.0;" x1="618" x2="642" y1="383.9961" y2="383.9961"/><line style="stroke:#00BFFF;stroke-width:1.0;" x1="618" x2="618" y1="368.0352" y2="383.9961"/><line style="stroke:#00BFFF;stroke-width:1.0;" x1="642" x2="642" y1="368.0352" y2="383.9961"/><polygon fill="#FFFF00" points="654,387.9961,660,393.9961,654,399.9961,648,393.9961" style="stroke:#B22222;stroke-width:1.0;"/><rect fill="#E6E6FA" height="15.9609" style="stroke:none;stroke-width:1.0;" width="108" x="618" y="407.957"/><line style="stroke:#ADD8E6;stroke-width:1.0;" x1="618" x2="726" y1="407.957" y2="407.957"/><line style="stroke:#ADD8E6;stroke-width:1.0;" x1="618" x2="726" y1="423.918" y2="423.918"/><line style="stroke:#ADD8E6;stroke-width:1.0;" x1="618" x2="618" y1="407.957" y2="423.918"/><line style="stroke:#ADD8E6;stroke-width:1.0;" x1="726" x2="726" y1="407.957" y2="423.918"/><rect fill="#00BFFF" height="15.9609" style="stroke:none;stroke-width:1.0;" width="24" x="730" y="427.918"/><line style="stroke:#00BFFF;stroke-width:1.0;" x1="730" x2="754" y1="427.918" y2="427.918"/><line style="stroke:#00BFFF;stroke-width:1.0;" x1="730" x2="754" y1="443.8789" y2="443.8789"/><line style="stroke:#00BFFF;stroke-width:1.0;" x1="730" x2="730" y1="427.918" y2="443.8789"/><line style="stroke:#00BFFF;stroke-width:1.0;" x1="754" x2="754" y1="427.918" y2="443.8789"/><polygon fill="#FFFF00" points="762,447.8789,768,453.8789,762,459.8789,756,453.8789" style="stroke:#B22222;stroke-width:1.0;"/><rect fill="#FFA500" height="15.9609" style="stroke:none;stroke-width:1.0;" width="52" x="758" y="467.8398"/><line style="stroke:#FFA500;stroke-width:1.0;" x1="758" x2="810" y1="467.8398" y2="467.8398"/><line style="stroke:#FFA500;stroke-width:1.0;" x1="758" x2="810" y1="483.8008" y2="483.8008"/><line style="stroke:#FFA500;stroke-width:1.0;" x1="758" x2="758" y1="467.8398" y2="483.8008"/><line style="stroke:#FFA500;stroke-width:1.0;" x1="810" x2="810" y1="467.8398" y2="483.8008"/><rect fill="#E6E6FA" height="15.9609" style="stroke:none;stroke-width:1.0;" width="80" x="730" y="487.8008"/><line style="stroke:#ADD8E6;stroke-width:1.0;" x1="730" x2="810" y1="487.8008" y2="487.8008"/><line style="stroke:#ADD8E6;stroke-width:1.0;" x1="730" x2="810" y1="503.7617" y2="503.7617"/><line style="stroke:#ADD8E6;stroke-width:1.0;" x1="730" x2="730" y1="487.8008" y2="503.7617"/><line style="stroke:#ADD8E6;stroke-width:1.0;" x1="810" x2="810" y1="487.8008" y2="503.7617"/><rect fill="#008000" height="15.9609" style="stroke:none;stroke-width:1.0;" width="24" x="814" y="507.7617"/><line style="stroke:#008000;stroke-width:1.0;" x1="814" x2="838" y1="507.7617" y2="507.7617"/><line style="stroke:#008000;stroke-width:1.0;" x1="814" x2="838" y1="523.7227" y2="523.7227"/><line style="stroke:#008000;stroke-width:1.0;" x1="814" x2="814" y1="507.7617" y2="523.7227"/><line style="stroke:#008000;stroke-width:1.0;" x1="838" x2="838" y1="507.7617" y2="523.7227"/><rect fill="#D3D3D3" height="15.9609" style="stroke:none;stroke-width:1.0;" width="108" x="410" y="527.7227"/><line style="stroke:#D3D3D3;stroke-width:1.0;" x1="410" x2="518" y1="527.7227" y2="527.7227"/><line style="stroke:#D3D3D3;stroke-width:1.0;" x1="410" x2="518" y1="543.6836" y2="543.6836"/><line style="stroke:#D3D3D3;stroke-width:1.0;" x1="410" x2="410" y1="527.7227" y2="543.6836"/><line style="stroke:#D3D3D3;stroke-width:1.0;" x1="518" x2="518" y1="527.7227" y2="543.6836"/><rect fill="#D3D3D3" height="15.9609" style="stroke:none;stroke-width:1.0;" width="80" x="518" y="547.6836"/><line style="stroke:#D3D3D3;stroke-width:1.0;" x1="518" x2="598" y1="547.6836" y2="547.6836"/><line style="stroke:#D3D3D3;stroke-width:1.0;" x1="518" x2="598" y1="563.6445" y2="563.6445"/><line style="stroke:#D3D3D3;stroke-width:1.0;" x1="518" x2="518" y1="547.6836" y2="563.6445"/><line style="stroke:#D3D3D3;stroke-width:1.0;" x1="598" x2="598" y1="547.6836" y2="563.6445"/><rect fill="#D3D3D3" height="15.9609" style="stroke:none;stroke-width:1.0;" width="40" x="602" y="567.6445"/><line style="stroke:#D3D3D3;stroke-width:1.0;" x1="602" x2="642" y1="567.6445" y2="567.6445"/><line style="stroke:#D3D3D3;stroke-width:1.0;" x1="602" x2="642" y1="583.6055" y2="583.6055"/><line style="stroke:#D3D3D3;stroke-width:1.0;" x1="602" x2="602" y1="567.6445" y2="583.6055"/><line style="stroke:#D3D3D3;stroke-width:1.0;" x1="642" x2="642" y1="567.6445" y2="583.6055"/><rect fill="#B0C4DE" height="15.9609" style="stroke:none;stroke-width:1.0;" width="108" x="394" y="587.6055"/><line style="stroke:#B0C4DE;stroke-width:1.0;" x1="394" x2="502" y1="587.6055" y2="587.6055"/><line style="stroke:#B0C4DE;stroke-width:1.0;" x1="394" x2="502" y1="603.5664" y2="603.5664"/><line style="stroke:#B0C4DE;stroke-width:1.0;" x1="394" x2="394" y1="587.6055" y2="603.5664"/><line style="stroke:#B0C4DE;stroke-width:1.0;" x1="502" x2="502" y1="587.6055" y2="603.5664"/><rect fill="#B0C4DE" height="15.9609" style="stroke:none;stroke-width:1.0;" width="52" x="506" y="607.5664"/><line style="stroke:#B0C4DE;stroke-width:1.0;" x1="506" x2="558" y1="607.5664" y2="607.5664"/><line style="stroke:#B0C4DE;stroke-width:1.0;" x1="506" x2="558" y1="623.5273" y2="623.5273"/><line style="stroke:#B0C4DE;stroke-width:1.0;" x1="506" x2="506" y1="607.5664" y2="623.5273"/><line style="stroke:#B0C4DE;stroke-width:1.0;" x1="558" x2="558" y1="607.5664" y2="623.5273"/><rect fill="#DDA0DD" height="15.9609" style="stroke:none;stroke-width:1.0;" width="52" x="450" y="627.5273"/><line style="stroke:#DDA0DD;stroke-width:1.0;" x1="450" x2="502" y1="627.5273" y2="627.5273"/><line style="stroke:#DDA0DD;stroke-width:1.0;" x1="450" x2="502" y1="643.4883" y2="643.4883"/><line style="stroke:#DDA0DD;stroke-width:1.0;" x1="450" x2="450" y1="627.5273" y2="643.4883"/><line style="stroke:#DDA0DD;stroke-width:1.0;" x1="502" x2="502" y1="627.5273" y2="643.4883"/><rect fill="#DDA0DD" height="15.9609" style="stroke:none;stroke-width:1.0;" width="52" x="738" y="647.4883"/><line style="stroke:#DDA0DD;stroke-width:1.0;" x1="738" x2="790" y1="647.4883" y2="647.4883"/><line style="stroke:#DDA0DD;stroke-width:1.0;" x1="738" x2="790" y1="663.4492" y2="663.4492"/><line style="stroke:#DDA0DD;stroke-width:1.0;" x1="738" x2="738" y1="647.4883" y2="663.4492"/><line style="stroke:#DDA0DD;stroke-width:1.0;" x1="790" x2="790" y1="647.4883" y2="663.4492"/><rect fill="#DDA0DD" height="15.9609" style="stroke:none;stroke-width:1.0;" width="80" x="478" y="667.4492"/><line style="stroke:#DDA0DD;stroke-width:1.0;" x1="478" x2="558" y1="667.4492" y2="667.4492"/><line style="stroke:#DDA0DD;stroke-width:1.0;" x1="478" x2="558" y1="683.4102" y2="683.4102"/><line style="stroke:#DDA0DD;stroke-width:1.0;" x1="478" x2="478" y1="667.4492" y2="683.4102"/><line style="stroke:#DDA0DD;stroke-width:1.0;" x1="558" x2="558" y1="667.4492" y2="683.4102"/><rect fill="#DDA0DD" height="15.9609" style="stroke:none;stroke-width:1.0;" width="80" x="366" y="687.4102"/><line style="stroke:#DDA0DD;stroke-width:1.0;" x1="366" x2="446" y1="687.4102" y2="687.4102"/><line style="stroke:#DDA0DD;stroke-width:1.0;" x1="366" x2="446" y1="703.3711" y2="703.3711"/><line style="stroke:#DDA0DD;stroke-width:1.0;" x1="366" x2="366" y1="687.4102" y2="703.3711"/><line style="stroke:#DDA0DD;stroke-width:1.0;" x1="446" x2="446" y1="687.4102" y2="703.3711"/><rect fill="#D3D3D3" height="15.9609" style="stroke:none;stroke-width:1.0;" width="80" x="706" y="707.3711"/><line style="stroke:#D3D3D3;stroke-width:1.0;" x1="706" x2="786" y1="707.3711" y2="707.3711"/><line style="stroke:#D3D3D3;stroke-width:1.0;" x1="706" x2="786" y1="723.332" y2="723.332"/><line style="stroke:#D3D3D3;stroke-width:1.0;" x1="706" x2="706" y1="707.3711" y2="723.332"/><line style="stroke:#D3D3D3;stroke-width:1.0;" x1="786" x2="786" y1="707.3711" y2="723.332"/><text fill="#000000" font-family="Helvetica" font-size="12" font-weight="bold" lengthAdjust="spacing" textLength="39" x="6" y="81.5703">r2.9.17</text><text fill="#000000" font-family="Helvetica" font-size="12" font-weight="bold" lengthAdjust="spacing" textLength="49" x="114" y="101.5313">Testing1</text><text fill="#000000" font-family="Helvetica" font-size="12" font-weight="bold" lengthAdjust="spacing" textLength="39" x="90" y="121.4922">r2.9.18</text><text fill="#000000" font-family="Helvetica" font-size="12" font-weight="bold" lengthAdjust="spacing" textLength="49" x="226" y="141.4531">Testing2</text><text fill="#000000" font-family="sans-serif" font-size="12" font-weight="bold" lengthAdjust="spacing" textLength="73" x="275" y="161.4141">Demo MOA 1</text><text fill="#000000" font-family="Helvetica" font-size="12" font-weight="bold" lengthAdjust="spacing" textLength="49" x="170" y="181.375">pre-prod</text><text fill="#000000" font-family="Helvetica" font-size="12" font-weight="bold" lengthAdjust="spacing" textLength="49" x="202" y="201.3359">r2.9.19.2</text><text fill="#000000" font-family="Helvetica" font-size="12" font-weight="bold" lengthAdjust="spacing" textLength="49" x="366" y="221.2969">Testing3</text><text fill="#000000" font-family="sans-serif" font-size="12" font-weight="bold" lengthAdjust="spacing" textLength="73" x="379" y="241.2578">Demo MOA 2</text><text fill="#000000" font-family="Helvetica" font-size="12" font-weight="bold" lengthAdjust="spacing" textLength="39" x="314" y="261.2188">r2.9.20</text><text fill="#000000" font-family="Helvetica" font-size="12" font-weight="bold" lengthAdjust="spacing" textLength="49" x="494" y="281.1797">Testing4</text><text fill="#000000" font-family="Helvetica" font-size="12" font-weight="bold" lengthAdjust="spacing" textLength="39" x="426" y="301.1406">r2.9.21</text><text fill="#000000" font-family="Helvetica" font-size="12" font-weight="bold" lengthAdjust="spacing" textLength="49" x="618" y="321.1016">Testing5</text><text fill="#000000" font-family="sans-serif" font-size="12" font-weight="bold" lengthAdjust="spacing" textLength="73" x="575" y="341.0625">Demo MOA 3</text><text fill="#000000" font-family="Helvetica" font-size="12" font-weight="bold" lengthAdjust="spacing" textLength="39" x="538" y="361.0234">r2.9.22</text><text fill="#000000" font-family="Helvetica" font-size="12" font-weight="bold" lengthAdjust="spacing" textLength="49" x="646" y="380.9844">Testing6</text><text fill="#000000" font-family="sans-serif" font-size="12" font-weight="bold" lengthAdjust="spacing" textLength="73" x="663" y="400.9453">Demo MOA 4</text><text fill="#000000" font-family="Helvetica" font-size="12" font-weight="bold" lengthAdjust="spacing" textLength="39" x="622" y="420.9063">r2.9.23</text><text fill="#000000" font-family="Helvetica" font-size="12" font-weight="bold" lengthAdjust="spacing" textLength="49" x="758" y="440.8672">Testing7</text><text fill="#000000" font-family="sans-serif" font-size="12" font-weight="bold" lengthAdjust="spacing" textLength="73" x="771" y="460.8281">Demo MOA 5</text><text fill="#000000" font-family="Helvetica" font-size="12" font-weight="bold" lengthAdjust="spacing" textLength="54" x="814" y="480.7891">validation</text><text fill="#000000" font-family="Helvetica" font-size="12" font-weight="bold" lengthAdjust="spacing" textLength="66" x="734" y="500.75">r2.9.23.x fix</text><text fill="#000000" font-family="Helvetica" font-size="12" font-weight="bold" lengthAdjust="spacing" textLength="62" x="842" y="520.7109">Production</text><text fill="#000000" font-family="Helvetica" font-size="12" font-weight="bold" lengthAdjust="spacing" textLength="24" x="414" y="540.6719">GPR</text><text fill="#000000" font-family="Helvetica" font-size="12" font-weight="bold" lengthAdjust="spacing" textLength="22" x="522" y="560.6328">VFA</text><text fill="#000000" font-family="Helvetica" font-size="12" font-weight="bold" lengthAdjust="spacing" textLength="23" x="606" y="580.5938">CDE</text><text fill="#000000" font-family="Helvetica" font-size="12" font-weight="bold" lengthAdjust="spacing" textLength="22" x="398" y="600.5547">ELR</text><text fill="#000000" font-family="Helvetica" font-size="12" font-weight="bold" lengthAdjust="spacing" textLength="21" x="510" y="620.5156">JLT</text><text fill="#000000" font-family="Helvetica" font-size="12" font-weight="bold" lengthAdjust="spacing" textLength="21" x="454" y="640.4766">JVF</text><text fill="#000000" font-family="Helvetica" font-size="12" font-weight="bold" lengthAdjust="spacing" textLength="24" x="742" y="660.4375">MFA</text><text fill="#000000" font-family="Helvetica" font-size="12" font-weight="bold" lengthAdjust="spacing" textLength="22" x="482" y="680.3984">BLE</text><text fill="#000000" font-family="Helvetica" font-size="12" font-weight="bold" lengthAdjust="spacing" textLength="25" x="370" y="700.3594">MDE</text><text fill="#000000" font-family="Helvetica" font-size="12" font-weight="bold" lengthAdjust="spacing" textLength="65" x="710" y="720.3203">CGFS 2 VFA</text><rect fill="none" height="69.8633" id="_legend" rx="7.5" ry="7.5" style="stroke:#000000;stroke-width:1.0;" width="146" x="346.5" y="737.332"/><rect fill="#D3D3D3" height="18.6211" style="stroke:none;stroke-width:1.0;" width="12" x="351.5" y="744.332"/><text fill="#000000" font-family="sans-serif" font-size="14" lengthAdjust="spacing" textLength="8" x="351.5" y="759.4395">&#160;&#160;</text><text fill="#000000" font-family="sans-serif" font-size="14" lengthAdjust="spacing" textLength="116" x="367.5" y="759.4395">Cong&#233;s/Abs. MOE</text><rect fill="#B0C4DE" height="18.6211" style="stroke:none;stroke-width:1.0;" width="12" x="351.5" y="762.9531"/><text fill="#000000" font-family="sans-serif" font-size="14" lengthAdjust="spacing" textLength="8" x="351.5" y="778.0605">&#160;&#160;</text><text fill="#000000" font-family="sans-serif" font-size="14" lengthAdjust="spacing" textLength="84" x="367.5" y="778.0605">Cong&#233;s MOA</text><rect fill="#DDA0DD" height="18.6211" style="stroke:none;stroke-width:1.0;" width="12" x="351.5" y="781.5742"/><text fill="#000000" font-family="sans-serif" font-size="14" lengthAdjust="spacing" textLength="12" x="351.5" y="796.6816">&#160;&#160;&#160;</text><text fill="#000000" font-family="sans-serif" font-size="14" lengthAdjust="spacing" textLength="78" x="367.5" y="796.6816">Cong&#233;s Dev</text><line style="stroke:#000000;stroke-width:1.0;" x1="351.5" x2="487.5" y1="744.332" y2="744.332"/><line style="stroke:#000000;stroke-width:1.0;" x1="351.5" x2="487.5" y1="762.9531" y2="762.9531"/><line style="stroke:#000000;stroke-width:1.0;" x1="351.5" x2="487.5" y1="781.5742" y2="781.5742"/><line style="stroke:#000000;stroke-width:1.0;" x1="351.5" x2="487.5" y1="800.1953" y2="800.1953"/><line style="stroke:#000000;stroke-width:1.0;" x1="351.5" x2="351.5" y1="744.332" y2="800.1953"/><line style="stroke:#000000;stroke-width:1.0;" x1="363.5" x2="363.5" y1="744.332" y2="800.1953"/><line style="stroke:#000000;stroke-width:1.0;" x1="487.5" x2="487.5" y1="744.332" y2="800.1953"/><!--SRC=[rLZTRjis5BxdKn3OHTkBE9PasKvM58r_aYArQoF9CWn1CT0MRNEHIO-ad7Xj7wZFqHVR4MMRb2pLBR2R6O4JakVd-xvpI55vgpIHUawurcZ18efdGkY9U4RejTARcBv1Pgt7o5oI9Vw4C7mIRhneT4VKutOk_LmAhZ-G9SNlQBoccar9RgahOY5n9oRJnzpyBVk7Oi_FpwN9yKJ4qNww0tvNKYGyoWBrA5tTFcuwSKBtDWF6QVdg5_Ej_s-0boocIWjE2wWpdyb_1Mr3urWybQ2wP99s9DjcoJ1neSlXz8Y4g9Jo4aZrak0ZIVYStj382Kwa54y_Mo99evAKxPzLmM3_eqgAIR5kMSHshVwh5zJo_EuM81cdIk7TIiPEqHMHH4EqJpaKSmV5A6PhsfDaKf6ic6k7dMmg87YEWrMdUKmTA-_l2wOjzI6HSyPnk9yOaoXYV8wRxaPZIngpNDiMUTxohSoPnpGMYaRViLyn_lYTsdz1Nz3hq-sXXLQISQsc14WzKVeORs16_4Md-JcacOPH5wPu91cLE7f1ffgjcVxs5P_0dbpJMAoMb6km5H7POARmDCqBK4646VoXTDRpQ9nbmEPmL5WlAFRhVkEq3ZzjX1waNpkhUQsFc2ZyS7Tn-zxx2EZ_Jc2BGPyOJ0hj5l9vvf82seSxI0PAktwUyTkvdRonDcYVicrJ-evhmqtf5rDUfIcTiCPc3y6lWE0x45Bp7bqAF1nTOC2y8AiLvM3luLH9CjCWk3L-eJ1K0K2l93s1QaKPwl5DVtmpwZdvV9CF4nwvKZVr0eiPTEV6g8wiOvwN8l5IyBqsPpNVgXDKgHEK5iHXR6pswWG7wXJHUXdQwoJUmSr2MFK2LptVgdTMzDmoyUkMHwEAHwEQHx3ZqR0y6aTv-1cQYsIUAEqmQJXC6hOLVS-23Aj0XjKW6pkGeGKP_YZ8MxhIT3c1fhCuGmTdw2eUMCNzrY797H-dUPg7kxa89AnGgrd264uK1w4nsbDkLko-fiEcwR9fM3P1oUPhsisNqGeihTPXcNv2trQHsO2i8H6LfmCsNsXpst6W6u-Tf-NIijHRnwjT0MSlHkYKjaICbXLZJM8M4Sq4p_IulnWSFOUsEtiqrSBcDevv8OIv_3YyW6vgPcjGUyOpzcmhqJxUOD-fHFj7Az7QLQATOe67MfHChGI5ixYY166P26MdyRRHK-AGrLX0qglnJPQjE_fmzQSP5NhmGFM3O_7X_lB22M961VaEWfJjpswlxuGn8ylUFCcgjhagLC7moDEFK-cpuyq0h5mrUQjMqKD_u0fcHiS42mjo6QUI34fJ6fkxBtgu7jmvQSpes6xm3mGrRiSItL-wYTBHaKJ-OGCOjtoYLPmi8Vmmrnh3N6kKXw-VbNNqyB1csmoTWTirPdIa-Sfwp_YLCyXrvR1tF7xxG9zXhofwz-ho5eJOxw3-i7CqVk2Ldpt6jx9prIFZwIlH4iTq3iTHyTB_nFG2eMmDhlcVN_-oTtu3GzmLVFxjgpgzcAWQ7Evz_DcnsdUKQseU0Lkhb2wiEOjmuuT5IBR5Wz1R-Cx-FuB6CVp-RJZ0QoeLd8ZmPWKSWveNl1p2g4UdwOdWdPtxzVEmXRlzkrI3u1LwUJKUO2KIEQKuOafBDadI8_KLkYPhWcyIdhuldUCHF9IkU-zt4xZFrqmARju_hk-7rg3PEEam3LfBW8BlXwX7PoI9DNXCHVeoTewxAyyFVJI0fqn2vX1y9b4NXDLoSuulR_u5]--></g></svg>