<?xml version="1.0" encoding="us-ascii" standalone="no"?><svg xmlns="http://www.w3.org/2000/svg" xmlns:xlink="http://www.w3.org/1999/xlink" contentStyleType="text/css" height="844px" preserveAspectRatio="none" style="width:906px;height:844px;background:#FFFFFF;" version="1.1" viewBox="0 0 906 844" width="906px" zoomAndPan="magnify"><defs/><g><text fill="#000000" font-family="sans-serif" font-size="14" font-weight="bold" lengthAdjust="spacing" textLength="249" x="295" y="25.1074">Calendrier d'activit&#233; - Development</text><rect fill="#FFFAFA" height="29" style="stroke:none;stroke-width:1.0;" width="840" x="0" y="39.6211"/><rect fill="#228B22" height="678.6719" style="stroke:none;stroke-width:1.0;" width="4" x="652" y="68.6211"/><text fill="#000000" font-family="Serif" font-size="10" lengthAdjust="spacing" textLength="10" x="5" y="66.4121">15</text><text fill="#000000" font-family="Serif" font-size="10" lengthAdjust="spacing" textLength="10" x="33" y="66.4121">16</text><text fill="#000000" font-family="Serif" font-size="10" lengthAdjust="spacing" textLength="10" x="61" y="66.4121">17</text><text fill="#000000" font-family="Serif" font-size="10" lengthAdjust="spacing" textLength="10" x="89" y="66.4121">18</text><text fill="#000000" font-family="Serif" font-size="10" lengthAdjust="spacing" textLength="10" x="117" y="66.4121">19</text><text fill="#000000" font-family="Serif" font-size="10" lengthAdjust="spacing" textLength="10" x="145" y="66.4121">20</text><text fill="#000000" font-family="Serif" font-size="10" lengthAdjust="spacing" textLength="10" x="173" y="66.4121">21</text><text fill="#000000" font-family="Serif" font-size="10" lengthAdjust="spacing" textLength="10" x="201" y="66.4121">22</text><text fill="#000000" font-family="Serif" font-size="10" lengthAdjust="spacing" textLength="10" x="229" y="66.4121">23</text><text fill="#000000" font-family="Serif" font-size="10" lengthAdjust="spacing" textLength="10" x="257" y="66.4121">24</text><text fill="#000000" font-family="Serif" font-size="10" lengthAdjust="spacing" textLength="10" x="285" y="66.4121">25</text><text fill="#000000" font-family="Serif" font-size="10" lengthAdjust="spacing" textLength="10" x="313" y="66.4121">26</text><text fill="#000000" font-family="Serif" font-size="10" lengthAdjust="spacing" textLength="10" x="341" y="66.4121">27</text><text fill="#000000" font-family="Serif" font-size="10" lengthAdjust="spacing" textLength="10" x="369" y="66.4121">28</text><text fill="#000000" font-family="Serif" font-size="10" lengthAdjust="spacing" textLength="10" x="397" y="66.4121">29</text><text fill="#000000" font-family="Serif" font-size="10" lengthAdjust="spacing" textLength="10" x="425" y="66.4121">30</text><text fill="#000000" font-family="Serif" font-size="10" lengthAdjust="spacing" textLength="10" x="453" y="66.4121">31</text><text fill="#000000" font-family="Serif" font-size="10" lengthAdjust="spacing" textLength="10" x="481" y="66.4121">32</text><text fill="#000000" font-family="Serif" font-size="10" lengthAdjust="spacing" textLength="10" x="509" y="66.4121">33</text><text fill="#000000" font-family="Serif" font-size="10" lengthAdjust="spacing" textLength="10" x="537" y="66.4121">34</text><text fill="#000000" font-family="Serif" font-size="10" lengthAdjust="spacing" textLength="10" x="565" y="66.4121">35</text><text fill="#000000" font-family="Serif" font-size="10" lengthAdjust="spacing" textLength="10" x="593" y="66.4121">36</text><text fill="#000000" font-family="Serif" font-size="10" lengthAdjust="spacing" textLength="10" x="621" y="66.4121">37</text><text fill="#000000" font-family="Serif" font-size="10" lengthAdjust="spacing" textLength="10" x="649" y="66.4121">38</text><text fill="#000000" font-family="Serif" font-size="10" lengthAdjust="spacing" textLength="10" x="677" y="66.4121">39</text><text fill="#000000" font-family="Serif" font-size="10" lengthAdjust="spacing" textLength="10" x="705" y="66.4121">40</text><text fill="#000000" font-family="Serif" font-size="10" lengthAdjust="spacing" textLength="10" x="733" y="66.4121">41</text><text fill="#000000" font-family="Serif" font-size="10" lengthAdjust="spacing" textLength="10" x="761" y="66.4121">42</text><text fill="#000000" font-family="Serif" font-size="10" lengthAdjust="spacing" textLength="10" x="789" y="66.4121">43</text><text fill="#000000" font-family="Serif" font-size="10" lengthAdjust="spacing" textLength="10" x="817" y="66.4121">44</text><line style="stroke:#C0C0C0;stroke-width:1.0;" x1="0" x2="0" y1="55.6211" y2="747.293"/><line style="stroke:#C0C0C0;stroke-width:1.0;" x1="28" x2="28" y1="55.6211" y2="747.293"/><line style="stroke:#C0C0C0;stroke-width:1.0;" x1="56" x2="56" y1="55.6211" y2="747.293"/><line style="stroke:#C0C0C0;stroke-width:1.0;" x1="84" x2="84" y1="55.6211" y2="747.293"/><line style="stroke:#C0C0C0;stroke-width:1.0;" x1="112" x2="112" y1="55.6211" y2="747.293"/><line style="stroke:#C0C0C0;stroke-width:1.0;" x1="140" x2="140" y1="55.6211" y2="747.293"/><line style="stroke:#C0C0C0;stroke-width:1.0;" x1="168" x2="168" y1="55.6211" y2="747.293"/><line style="stroke:#C0C0C0;stroke-width:1.0;" x1="196" x2="196" y1="55.6211" y2="747.293"/><line style="stroke:#C0C0C0;stroke-width:1.0;" x1="224" x2="224" y1="55.6211" y2="747.293"/><line style="stroke:#C0C0C0;stroke-width:1.0;" x1="252" x2="252" y1="55.6211" y2="747.293"/><line style="stroke:#C0C0C0;stroke-width:1.0;" x1="280" x2="280" y1="55.6211" y2="747.293"/><line style="stroke:#C0C0C0;stroke-width:1.0;" x1="308" x2="308" y1="55.6211" y2="747.293"/><line style="stroke:#C0C0C0;stroke-width:1.0;" x1="336" x2="336" y1="55.6211" y2="747.293"/><line style="stroke:#C0C0C0;stroke-width:1.0;" x1="364" x2="364" y1="55.6211" y2="747.293"/><line style="stroke:#C0C0C0;stroke-width:1.0;" x1="392" x2="392" y1="55.6211" y2="747.293"/><line style="stroke:#C0C0C0;stroke-width:1.0;" x1="420" x2="420" y1="55.6211" y2="747.293"/><line style="stroke:#C0C0C0;stroke-width:1.0;" x1="448" x2="448" y1="55.6211" y2="747.293"/><line style="stroke:#C0C0C0;stroke-width:1.0;" x1="476" x2="476" y1="55.6211" y2="747.293"/><line style="stroke:#C0C0C0;stroke-width:1.0;" x1="504" x2="504" y1="55.6211" y2="747.293"/><line style="stroke:#C0C0C0;stroke-width:1.0;" x1="532" x2="532" y1="55.6211" y2="747.293"/><line style="stroke:#C0C0C0;stroke-width:1.0;" x1="560" x2="560" y1="55.6211" y2="747.293"/><line style="stroke:#C0C0C0;stroke-width:1.0;" x1="588" x2="588" y1="55.6211" y2="747.293"/><line style="stroke:#C0C0C0;stroke-width:1.0;" x1="616" x2="616" y1="55.6211" y2="747.293"/><line style="stroke:#C0C0C0;stroke-width:1.0;" x1="644" x2="644" y1="55.6211" y2="747.293"/><line style="stroke:#C0C0C0;stroke-width:1.0;" x1="672" x2="672" y1="55.6211" y2="747.293"/><line style="stroke:#C0C0C0;stroke-width:1.0;" x1="700" x2="700" y1="55.6211" y2="747.293"/><line style="stroke:#C0C0C0;stroke-width:1.0;" x1="728" x2="728" y1="55.6211" y2="747.293"/><line style="stroke:#C0C0C0;stroke-width:1.0;" x1="756" x2="756" y1="55.6211" y2="747.293"/><line style="stroke:#C0C0C0;stroke-width:1.0;" x1="784" x2="784" y1="55.6211" y2="747.293"/><line style="stroke:#C0C0C0;stroke-width:1.0;" x1="812" x2="812" y1="55.6211" y2="747.293"/><line style="stroke:#C0C0C0;stroke-width:1.0;" x1="840" x2="840" y1="55.6211" y2="747.293"/><line style="stroke:#C0C0C0;stroke-width:1.0;" x1="0" x2="0" y1="39.6211" y2="55.6211"/><line style="stroke:#C0C0C0;stroke-width:1.0;" x1="92" x2="92" y1="39.6211" y2="55.6211"/><text fill="#000000" font-family="Serif" font-size="12" font-weight="bold" lengthAdjust="spacing" textLength="46" x="23" y="52.5703">Apr 2024</text><line style="stroke:#C0C0C0;stroke-width:1.0;" x1="216" x2="216" y1="39.6211" y2="55.6211"/><text fill="#000000" font-family="Serif" font-size="12" font-weight="bold" lengthAdjust="spacing" textLength="50" x="129" y="52.5703">May 2024</text><line style="stroke:#C0C0C0;stroke-width:1.0;" x1="336" x2="336" y1="39.6211" y2="55.6211"/><text fill="#000000" font-family="Serif" font-size="12" font-weight="bold" lengthAdjust="spacing" textLength="47" x="252.5" y="52.5703">Jun 2024</text><line style="stroke:#C0C0C0;stroke-width:1.0;" x1="460" x2="460" y1="39.6211" y2="55.6211"/><text fill="#000000" font-family="Serif" font-size="12" font-weight="bold" lengthAdjust="spacing" textLength="44" x="376" y="52.5703">Jul 2024</text><line style="stroke:#C0C0C0;stroke-width:1.0;" x1="584" x2="584" y1="39.6211" y2="55.6211"/><text fill="#000000" font-family="Serif" font-size="12" font-weight="bold" lengthAdjust="spacing" textLength="48" x="498" y="52.5703">Aug 2024</text><line style="stroke:#C0C0C0;stroke-width:1.0;" x1="704" x2="704" y1="39.6211" y2="55.6211"/><text fill="#000000" font-family="Serif" font-size="12" font-weight="bold" lengthAdjust="spacing" textLength="47" x="620.5" y="52.5703">Sep 2024</text><line style="stroke:#C0C0C0;stroke-width:1.0;" x1="828" x2="828" y1="39.6211" y2="55.6211"/><text fill="#000000" font-family="Serif" font-size="12" font-weight="bold" lengthAdjust="spacing" textLength="46" x="743" y="52.5703">Oct 2024</text><line style="stroke:#C0C0C0;stroke-width:1.0;" x1="840" x2="840" y1="39.6211" y2="55.6211"/><text fill="#000000" font-family="Serif" font-size="12" font-weight="bold" lengthAdjust="spacing" textLength="20" x="828" y="52.5703">Nov</text><line style="stroke:#C0C0C0;stroke-width:1.0;" x1="0" x2="840" y1="39.6211" y2="39.6211"/><line style="stroke:#C0C0C0;stroke-width:1.0;" x1="0" x2="840" y1="55.6211" y2="55.6211"/><line style="stroke:#C0C0C0;stroke-width:1.0;" x1="0" x2="840" y1="68.6211" y2="68.6211"/><line style="stroke:#0000FF;stroke-width:1.5;stroke-dasharray:8.0,8.0;" x1="75" x2="75" y1="86.582" y2="98.5625"/><line style="stroke:#0000FF;stroke-width:1.5;stroke-dasharray:8.0,8.0;" x1="75" x2="83" y1="98.5625" y2="98.5625"/><polygon fill="#0000FF" points="79,94.5625,79,98.5625,79,102.5625,83,98.5625" style="stroke:#0000FF;stroke-width:1.5;"/><line style="stroke:#0000FF;stroke-width:1.5;stroke-dasharray:8.0,8.0;" x1="75" x2="75" y1="86.582" y2="118.5234"/><line style="stroke:#0000FF;stroke-width:1.5;stroke-dasharray:8.0,8.0;" x1="75" x2="83" y1="118.5234" y2="118.5234"/><polygon fill="#0000FF" points="79,114.5234,79,118.5234,79,122.5234,83,118.5234" style="stroke:#0000FF;stroke-width:1.5;"/><line style="stroke:#0000FF;stroke-width:1.5;stroke-dasharray:8.0,8.0;" x1="187" x2="187" y1="126.5039" y2="138.4844"/><line style="stroke:#0000FF;stroke-width:1.5;stroke-dasharray:8.0,8.0;" x1="187" x2="195" y1="138.4844" y2="138.4844"/><polygon fill="#0000FF" points="191,134.4844,191,138.4844,191,142.4844,195,138.4844" style="stroke:#0000FF;stroke-width:1.5;"/><line style="stroke:#0000FF;stroke-width:1.5;stroke-dasharray:8.0,8.0;" x1="187" x2="187" y1="126.5039" y2="198.3672"/><line style="stroke:#0000FF;stroke-width:1.5;stroke-dasharray:8.0,8.0;" x1="187" x2="195" y1="198.3672" y2="198.3672"/><polygon fill="#0000FF" points="191,194.3672,191,198.3672,191,202.3672,195,198.3672" style="stroke:#0000FF;stroke-width:1.5;"/><line style="stroke:#0000FF;stroke-width:1.5;stroke-dasharray:8.0,8.0;" x1="306" x2="306" y1="206.3477" y2="218.3281"/><line style="stroke:#0000FF;stroke-width:1.5;stroke-dasharray:8.0,8.0;" x1="306" x2="335" y1="218.3281" y2="218.3281"/><polygon fill="#0000FF" points="331,214.3281,331,218.3281,331,222.3281,335,218.3281" style="stroke:#0000FF;stroke-width:1.5;"/><line style="stroke:#0000FF;stroke-width:1.5;stroke-dasharray:8.0,8.0;" x1="299" x2="299" y1="206.3477" y2="258.25"/><line style="stroke:#0000FF;stroke-width:1.5;stroke-dasharray:8.0,8.0;" x1="299" x2="307" y1="258.25" y2="258.25"/><polygon fill="#0000FF" points="303,254.25,303,258.25,303,262.25,307,258.25" style="stroke:#0000FF;stroke-width:1.5;"/><line style="stroke:#0000FF;stroke-width:1.5;stroke-dasharray:8.0,8.0;" x1="418" x2="418" y1="266.2305" y2="278.2109"/><line style="stroke:#0000FF;stroke-width:1.5;stroke-dasharray:8.0,8.0;" x1="418" x2="463" y1="278.2109" y2="278.2109"/><polygon fill="#0000FF" points="459,274.2109,459,278.2109,459,282.2109,463,278.2109" style="stroke:#0000FF;stroke-width:1.5;"/><line style="stroke:#0000FF;stroke-width:1.5;stroke-dasharray:8.0,8.0;" x1="411" x2="411" y1="266.2305" y2="298.1719"/><line style="stroke:#0000FF;stroke-width:1.5;stroke-dasharray:8.0,8.0;" x1="411" x2="419" y1="298.1719" y2="298.1719"/><polygon fill="#0000FF" points="415,294.1719,415,298.1719,415,302.1719,419,298.1719" style="stroke:#0000FF;stroke-width:1.5;"/><line style="stroke:#0000FF;stroke-width:1.5;stroke-dasharray:8.0,8.0;" x1="530" x2="530" y1="306.1523" y2="318.1328"/><line style="stroke:#0000FF;stroke-width:1.5;stroke-dasharray:8.0,8.0;" x1="530" x2="587" y1="318.1328" y2="318.1328"/><polygon fill="#0000FF" points="583,314.1328,583,318.1328,583,322.1328,587,318.1328" style="stroke:#0000FF;stroke-width:1.5;"/><line style="stroke:#0000FF;stroke-width:1.5;stroke-dasharray:8.0,8.0;" x1="523" x2="523" y1="306.1523" y2="358.0547"/><line style="stroke:#0000FF;stroke-width:1.5;stroke-dasharray:8.0,8.0;" x1="523" x2="531" y1="358.0547" y2="358.0547"/><polygon fill="#0000FF" points="527,354.0547,527,358.0547,527,362.0547,531,358.0547" style="stroke:#0000FF;stroke-width:1.5;"/><line style="stroke:#0000FF;stroke-width:1.5;stroke-dasharray:8.0,8.0;" x1="635" x2="635" y1="366.0352" y2="378.0156"/><line style="stroke:#0000FF;stroke-width:1.5;stroke-dasharray:8.0,8.0;" x1="635" x2="643" y1="378.0156" y2="378.0156"/><polygon fill="#0000FF" points="639,374.0156,639,378.0156,639,382.0156,643,378.0156" style="stroke:#0000FF;stroke-width:1.5;"/><line style="stroke:#0000FF;stroke-width:1.5;stroke-dasharray:8.0,8.0;" x1="635" x2="635" y1="366.0352" y2="437.8984"/><line style="stroke:#0000FF;stroke-width:1.5;stroke-dasharray:8.0,8.0;" x1="635" x2="643" y1="437.8984" y2="437.8984"/><polygon fill="#0000FF" points="639,433.8984,639,437.8984,639,441.8984,643,437.8984" style="stroke:#0000FF;stroke-width:1.5;"/><line style="stroke:#0000FF;stroke-width:1.5;stroke-dasharray:8.0,8.0;" x1="719" x2="719" y1="445.8789" y2="457.8594"/><line style="stroke:#0000FF;stroke-width:1.5;stroke-dasharray:8.0,8.0;" x1="719" x2="727" y1="457.8594" y2="457.8594"/><polygon fill="#0000FF" points="723,453.8594,723,457.8594,723,461.8594,727,457.8594" style="stroke:#0000FF;stroke-width:1.5;"/><line style="stroke:#0000FF;stroke-width:1.5;stroke-dasharray:8.0,8.0;" x1="747" x2="747" y1="465.8398" y2="497.7813"/><line style="stroke:#0000FF;stroke-width:1.5;stroke-dasharray:8.0,8.0;" x1="747" x2="755" y1="497.7813" y2="497.7813"/><polygon fill="#0000FF" points="751,493.7813,751,497.7813,751,501.7813,755,497.7813" style="stroke:#0000FF;stroke-width:1.5;"/><line style="stroke:#0000FF;stroke-width:1.5;stroke-dasharray:8.0,8.0;" x1="719" x2="719" y1="445.8789" y2="517.7422"/><line style="stroke:#0000FF;stroke-width:1.5;stroke-dasharray:8.0,8.0;" x1="719" x2="727" y1="517.7422" y2="517.7422"/><polygon fill="#0000FF" points="723,513.7422,723,517.7422,723,521.7422,727,517.7422" style="stroke:#0000FF;stroke-width:1.5;"/><line style="stroke:#0000FF;stroke-width:1.5;stroke-dasharray:8.0,8.0;" x1="803" x2="803" y1="505.7617" y2="537.7031"/><line style="stroke:#0000FF;stroke-width:1.5;stroke-dasharray:8.0,8.0;" x1="803" x2="811" y1="537.7031" y2="537.7031"/><polygon fill="#0000FF" points="807,533.7031,807,537.7031,807,541.7031,811,537.7031" style="stroke:#0000FF;stroke-width:1.5;"/><rect fill="#808080" height="15.9609" style="stroke:none;stroke-width:1.0;" width="80" x="2" y="70.6211"/><line style="stroke:#808080;stroke-width:1.0;" x1="2" x2="82" y1="70.6211" y2="70.6211"/><line style="stroke:#808080;stroke-width:1.0;" x1="2" x2="82" y1="86.582" y2="86.582"/><line style="stroke:#808080;stroke-width:1.0;" x1="2" x2="2" y1="70.6211" y2="86.582"/><line style="stroke:#808080;stroke-width:1.0;" x1="82" x2="82" y1="70.6211" y2="86.582"/><rect fill="#00BFFF" height="15.9609" style="stroke:none;stroke-width:1.0;" width="24" x="86" y="90.582"/><line style="stroke:#00BFFF;stroke-width:1.0;" x1="86" x2="110" y1="90.582" y2="90.582"/><line style="stroke:#00BFFF;stroke-width:1.0;" x1="86" x2="110" y1="106.543" y2="106.543"/><line style="stroke:#00BFFF;stroke-width:1.0;" x1="86" x2="86" y1="90.582" y2="106.543"/><line style="stroke:#00BFFF;stroke-width:1.0;" x1="110" x2="110" y1="90.582" y2="106.543"/><rect fill="#808080" height="15.9609" style="stroke:none;stroke-width:1.0;" width="108" x="86" y="110.543"/><line style="stroke:#808080;stroke-width:1.0;" x1="86" x2="194" y1="110.543" y2="110.543"/><line style="stroke:#808080;stroke-width:1.0;" x1="86" x2="194" y1="126.5039" y2="126.5039"/><line style="stroke:#808080;stroke-width:1.0;" x1="86" x2="86" y1="110.543" y2="126.5039"/><line style="stroke:#808080;stroke-width:1.0;" x1="194" x2="194" y1="110.543" y2="126.5039"/><rect fill="#00BFFF" height="15.9609" style="stroke:none;stroke-width:1.0;" width="24" x="198" y="130.5039"/><line style="stroke:#00BFFF;stroke-width:1.0;" x1="198" x2="222" y1="130.5039" y2="130.5039"/><line style="stroke:#00BFFF;stroke-width:1.0;" x1="198" x2="222" y1="146.4648" y2="146.4648"/><line style="stroke:#00BFFF;stroke-width:1.0;" x1="198" x2="198" y1="130.5039" y2="146.4648"/><line style="stroke:#00BFFF;stroke-width:1.0;" x1="222" x2="222" y1="130.5039" y2="146.4648"/><polygon fill="#FFFF00" points="266,150.4648,272,156.4648,266,162.4648,260,156.4648" style="stroke:#B22222;stroke-width:1.0;"/><rect fill="#FA8072" height="15.9609" style="stroke:none;stroke-width:1.0;" width="52" x="114" y="170.4258"/><line style="stroke:#FA8072;stroke-width:1.0;" x1="114" x2="166" y1="170.4258" y2="170.4258"/><line style="stroke:#FA8072;stroke-width:1.0;" x1="114" x2="166" y1="186.3867" y2="186.3867"/><line style="stroke:#FA8072;stroke-width:1.0;" x1="114" x2="114" y1="170.4258" y2="186.3867"/><line style="stroke:#FA8072;stroke-width:1.0;" x1="166" x2="166" y1="170.4258" y2="186.3867"/><rect fill="#808080" height="15.9609" style="stroke:none;stroke-width:1.0;" width="108" x="198" y="190.3867"/><line style="stroke:#808080;stroke-width:1.0;" x1="198" x2="306" y1="190.3867" y2="190.3867"/><line style="stroke:#808080;stroke-width:1.0;" x1="198" x2="306" y1="206.3477" y2="206.3477"/><line style="stroke:#808080;stroke-width:1.0;" x1="198" x2="198" y1="190.3867" y2="206.3477"/><line style="stroke:#808080;stroke-width:1.0;" x1="306" x2="306" y1="190.3867" y2="206.3477"/><rect fill="#00BFFF" height="15.9609" style="stroke:none;stroke-width:1.0;" width="24" x="338" y="210.3477"/><line style="stroke:#00BFFF;stroke-width:1.0;" x1="338" x2="362" y1="210.3477" y2="210.3477"/><line style="stroke:#00BFFF;stroke-width:1.0;" x1="338" x2="362" y1="226.3086" y2="226.3086"/><line style="stroke:#00BFFF;stroke-width:1.0;" x1="338" x2="338" y1="210.3477" y2="226.3086"/><line style="stroke:#00BFFF;stroke-width:1.0;" x1="362" x2="362" y1="210.3477" y2="226.3086"/><polygon fill="#FFFF00" points="370,230.3086,376,236.3086,370,242.3086,364,236.3086" style="stroke:#B22222;stroke-width:1.0;"/><rect fill="#808080" height="15.9609" style="stroke:none;stroke-width:1.0;" width="108" x="310" y="250.2695"/><line style="stroke:#808080;stroke-width:1.0;" x1="310" x2="418" y1="250.2695" y2="250.2695"/><line style="stroke:#808080;stroke-width:1.0;" x1="310" x2="418" y1="266.2305" y2="266.2305"/><line style="stroke:#808080;stroke-width:1.0;" x1="310" x2="310" y1="250.2695" y2="266.2305"/><line style="stroke:#808080;stroke-width:1.0;" x1="418" x2="418" y1="250.2695" y2="266.2305"/><rect fill="#00BFFF" height="15.9609" style="stroke:none;stroke-width:1.0;" width="24" x="466" y="270.2305"/><line style="stroke:#00BFFF;stroke-width:1.0;" x1="466" x2="490" y1="270.2305" y2="270.2305"/><line style="stroke:#00BFFF;stroke-width:1.0;" x1="466" x2="490" y1="286.1914" y2="286.1914"/><line style="stroke:#00BFFF;stroke-width:1.0;" x1="466" x2="466" y1="270.2305" y2="286.1914"/><line style="stroke:#00BFFF;stroke-width:1.0;" x1="490" x2="490" y1="270.2305" y2="286.1914"/><rect fill="#808080" height="15.9609" style="stroke:none;stroke-width:1.0;" width="108" x="422" y="290.1914"/><line style="stroke:#808080;stroke-width:1.0;" x1="422" x2="530" y1="290.1914" y2="290.1914"/><line style="stroke:#808080;stroke-width:1.0;" x1="422" x2="530" y1="306.1523" y2="306.1523"/><line style="stroke:#808080;stroke-width:1.0;" x1="422" x2="422" y1="290.1914" y2="306.1523"/><line style="stroke:#808080;stroke-width:1.0;" x1="530" x2="530" y1="290.1914" y2="306.1523"/><rect fill="#00BFFF" height="15.9609" style="stroke:none;stroke-width:1.0;" width="24" x="590" y="310.1523"/><line style="stroke:#00BFFF;stroke-width:1.0;" x1="590" x2="614" y1="310.1523" y2="310.1523"/><line style="stroke:#00BFFF;stroke-width:1.0;" x1="590" x2="614" y1="326.1133" y2="326.1133"/><line style="stroke:#00BFFF;stroke-width:1.0;" x1="590" x2="590" y1="310.1523" y2="326.1133"/><line style="stroke:#00BFFF;stroke-width:1.0;" x1="614" x2="614" y1="310.1523" y2="326.1133"/><polygon fill="#FFFF00" points="566,330.1133,572,336.1133,566,342.1133,560,336.1133" style="stroke:#B22222;stroke-width:1.0;"/><rect fill="#808080" height="15.9609" style="stroke:none;stroke-width:1.0;" width="108" x="534" y="350.0742"/><line style="stroke:#808080;stroke-width:1.0;" x1="534" x2="642" y1="350.0742" y2="350.0742"/><line style="stroke:#808080;stroke-width:1.0;" x1="534" x2="642" y1="366.0352" y2="366.0352"/><line style="stroke:#808080;stroke-width:1.0;" x1="534" x2="534" y1="350.0742" y2="366.0352"/><line style="stroke:#808080;stroke-width:1.0;" x1="642" x2="642" y1="350.0742" y2="366.0352"/><rect fill="#00BFFF" height="15.9609" style="stroke:none;stroke-width:1.0;" width="24" x="646" y="370.0352"/><line style="stroke:#00BFFF;stroke-width:1.0;" x1="646" x2="670" y1="370.0352" y2="370.0352"/><line style="stroke:#00BFFF;stroke-width:1.0;" x1="646" x2="670" y1="385.9961" y2="385.9961"/><line style="stroke:#00BFFF;stroke-width:1.0;" x1="646" x2="646" y1="370.0352" y2="385.9961"/><line style="stroke:#00BFFF;stroke-width:1.0;" x1="670" x2="670" y1="370.0352" y2="385.9961"/><polygon fill="#FFFF00" points="658,389.9961,664,395.9961,658,401.9961,652,395.9961" style="stroke:#B22222;stroke-width:1.0;"/><polygon fill="#FFFF00" points="686,409.957,692,415.957,686,421.957,680,415.957" style="stroke:#B22222;stroke-width:1.0;"/><rect fill="#008000" height="15.9609" style="stroke:none;stroke-width:1.0;" width="80" x="646" y="429.918"/><line style="stroke:#008000;stroke-width:1.0;" x1="646" x2="726" y1="429.918" y2="429.918"/><line style="stroke:#008000;stroke-width:1.0;" x1="646" x2="726" y1="445.8789" y2="445.8789"/><line style="stroke:#008000;stroke-width:1.0;" x1="646" x2="646" y1="429.918" y2="445.8789"/><line style="stroke:#008000;stroke-width:1.0;" x1="726" x2="726" y1="429.918" y2="445.8789"/><rect fill="#00BFFF" height="15.9609" style="stroke:none;stroke-width:1.0;" width="24" x="730" y="449.8789"/><line style="stroke:#00BFFF;stroke-width:1.0;" x1="730" x2="754" y1="449.8789" y2="449.8789"/><line style="stroke:#00BFFF;stroke-width:1.0;" x1="730" x2="754" y1="465.8398" y2="465.8398"/><line style="stroke:#00BFFF;stroke-width:1.0;" x1="730" x2="730" y1="449.8789" y2="465.8398"/><line style="stroke:#00BFFF;stroke-width:1.0;" x1="754" x2="754" y1="449.8789" y2="465.8398"/><polygon fill="#FFFF00" points="762,469.8398,768,475.8398,762,481.8398,756,475.8398" style="stroke:#B22222;stroke-width:1.0;"/><rect fill="#FFA500" height="15.9609" style="stroke:none;stroke-width:1.0;" width="52" x="758" y="489.8008"/><line style="stroke:#FFA500;stroke-width:1.0;" x1="758" x2="810" y1="489.8008" y2="489.8008"/><line style="stroke:#FFA500;stroke-width:1.0;" x1="758" x2="810" y1="505.7617" y2="505.7617"/><line style="stroke:#FFA500;stroke-width:1.0;" x1="758" x2="758" y1="489.8008" y2="505.7617"/><line style="stroke:#FFA500;stroke-width:1.0;" x1="810" x2="810" y1="489.8008" y2="505.7617"/><rect fill="#E6E6FA" height="15.9609" style="stroke:none;stroke-width:1.0;" width="80" x="730" y="509.7617"/><line style="stroke:#ADD8E6;stroke-width:1.0;" x1="730" x2="810" y1="509.7617" y2="509.7617"/><line style="stroke:#ADD8E6;stroke-width:1.0;" x1="730" x2="810" y1="525.7227" y2="525.7227"/><line style="stroke:#ADD8E6;stroke-width:1.0;" x1="730" x2="730" y1="509.7617" y2="525.7227"/><line style="stroke:#ADD8E6;stroke-width:1.0;" x1="810" x2="810" y1="509.7617" y2="525.7227"/><rect fill="#008000" height="15.9609" style="stroke:none;stroke-width:1.0;" width="24" x="814" y="529.7227"/><line style="stroke:#008000;stroke-width:1.0;" x1="814" x2="838" y1="529.7227" y2="529.7227"/><line style="stroke:#008000;stroke-width:1.0;" x1="814" x2="838" y1="545.6836" y2="545.6836"/><line style="stroke:#008000;stroke-width:1.0;" x1="814" x2="814" y1="529.7227" y2="545.6836"/><line style="stroke:#008000;stroke-width:1.0;" x1="838" x2="838" y1="529.7227" y2="545.6836"/><rect fill="#D3D3D3" height="15.9609" style="stroke:none;stroke-width:1.0;" width="108" x="410" y="549.6836"/><line style="stroke:#D3D3D3;stroke-width:1.0;" x1="410" x2="518" y1="549.6836" y2="549.6836"/><line style="stroke:#D3D3D3;stroke-width:1.0;" x1="410" x2="518" y1="565.6445" y2="565.6445"/><line style="stroke:#D3D3D3;stroke-width:1.0;" x1="410" x2="410" y1="549.6836" y2="565.6445"/><line style="stroke:#D3D3D3;stroke-width:1.0;" x1="518" x2="518" y1="549.6836" y2="565.6445"/><rect fill="#D3D3D3" height="15.9609" style="stroke:none;stroke-width:1.0;" width="80" x="518" y="569.6445"/><line style="stroke:#D3D3D3;stroke-width:1.0;" x1="518" x2="598" y1="569.6445" y2="569.6445"/><line style="stroke:#D3D3D3;stroke-width:1.0;" x1="518" x2="598" y1="585.6055" y2="585.6055"/><line style="stroke:#D3D3D3;stroke-width:1.0;" x1="518" x2="518" y1="569.6445" y2="585.6055"/><line style="stroke:#D3D3D3;stroke-width:1.0;" x1="598" x2="598" y1="569.6445" y2="585.6055"/><rect fill="#D3D3D3" height="15.9609" style="stroke:none;stroke-width:1.0;" width="40" x="602" y="589.6055"/><line style="stroke:#D3D3D3;stroke-width:1.0;" x1="602" x2="642" y1="589.6055" y2="589.6055"/><line style="stroke:#D3D3D3;stroke-width:1.0;" x1="602" x2="642" y1="605.5664" y2="605.5664"/><line style="stroke:#D3D3D3;stroke-width:1.0;" x1="602" x2="602" y1="589.6055" y2="605.5664"/><line style="stroke:#D3D3D3;stroke-width:1.0;" x1="642" x2="642" y1="589.6055" y2="605.5664"/><rect fill="#B0C4DE" height="15.9609" style="stroke:none;stroke-width:1.0;" width="108" x="394" y="609.5664"/><line style="stroke:#B0C4DE;stroke-width:1.0;" x1="394" x2="502" y1="609.5664" y2="609.5664"/><line style="stroke:#B0C4DE;stroke-width:1.0;" x1="394" x2="502" y1="625.5273" y2="625.5273"/><line style="stroke:#B0C4DE;stroke-width:1.0;" x1="394" x2="394" y1="609.5664" y2="625.5273"/><line style="stroke:#B0C4DE;stroke-width:1.0;" x1="502" x2="502" y1="609.5664" y2="625.5273"/><rect fill="#B0C4DE" height="15.9609" style="stroke:none;stroke-width:1.0;" width="52" x="506" y="629.5273"/><line style="stroke:#B0C4DE;stroke-width:1.0;" x1="506" x2="558" y1="629.5273" y2="629.5273"/><line style="stroke:#B0C4DE;stroke-width:1.0;" x1="506" x2="558" y1="645.4883" y2="645.4883"/><line style="stroke:#B0C4DE;stroke-width:1.0;" x1="506" x2="506" y1="629.5273" y2="645.4883"/><line style="stroke:#B0C4DE;stroke-width:1.0;" x1="558" x2="558" y1="629.5273" y2="645.4883"/><rect fill="#DDA0DD" height="15.9609" style="stroke:none;stroke-width:1.0;" width="52" x="450" y="649.4883"/><line style="stroke:#DDA0DD;stroke-width:1.0;" x1="450" x2="502" y1="649.4883" y2="649.4883"/><line style="stroke:#DDA0DD;stroke-width:1.0;" x1="450" x2="502" y1="665.4492" y2="665.4492"/><line style="stroke:#DDA0DD;stroke-width:1.0;" x1="450" x2="450" y1="649.4883" y2="665.4492"/><line style="stroke:#DDA0DD;stroke-width:1.0;" x1="502" x2="502" y1="649.4883" y2="665.4492"/><rect fill="#DDA0DD" height="15.9609" style="stroke:none;stroke-width:1.0;" width="52" x="738" y="669.4492"/><line style="stroke:#DDA0DD;stroke-width:1.0;" x1="738" x2="790" y1="669.4492" y2="669.4492"/><line style="stroke:#DDA0DD;stroke-width:1.0;" x1="738" x2="790" y1="685.4102" y2="685.4102"/><line style="stroke:#DDA0DD;stroke-width:1.0;" x1="738" x2="738" y1="669.4492" y2="685.4102"/><line style="stroke:#DDA0DD;stroke-width:1.0;" x1="790" x2="790" y1="669.4492" y2="685.4102"/><rect fill="#DDA0DD" height="15.9609" style="stroke:none;stroke-width:1.0;" width="80" x="478" y="689.4102"/><line style="stroke:#DDA0DD;stroke-width:1.0;" x1="478" x2="558" y1="689.4102" y2="689.4102"/><line style="stroke:#DDA0DD;stroke-width:1.0;" x1="478" x2="558" y1="705.3711" y2="705.3711"/><line style="stroke:#DDA0DD;stroke-width:1.0;" x1="478" x2="478" y1="689.4102" y2="705.3711"/><line style="stroke:#DDA0DD;stroke-width:1.0;" x1="558" x2="558" y1="689.4102" y2="705.3711"/><rect fill="#DDA0DD" height="15.9609" style="stroke:none;stroke-width:1.0;" width="80" x="366" y="709.3711"/><line style="stroke:#DDA0DD;stroke-width:1.0;" x1="366" x2="446" y1="709.3711" y2="709.3711"/><line style="stroke:#DDA0DD;stroke-width:1.0;" x1="366" x2="446" y1="725.332" y2="725.332"/><line style="stroke:#DDA0DD;stroke-width:1.0;" x1="366" x2="366" y1="709.3711" y2="725.332"/><line style="stroke:#DDA0DD;stroke-width:1.0;" x1="446" x2="446" y1="709.3711" y2="725.332"/><rect fill="#D3D3D3" height="15.9609" style="stroke:none;stroke-width:1.0;" width="80" x="706" y="729.332"/><line style="stroke:#D3D3D3;stroke-width:1.0;" x1="706" x2="786" y1="729.332" y2="729.332"/><line style="stroke:#D3D3D3;stroke-width:1.0;" x1="706" x2="786" y1="745.293" y2="745.293"/><line style="stroke:#D3D3D3;stroke-width:1.0;" x1="706" x2="706" y1="729.332" y2="745.293"/><line style="stroke:#D3D3D3;stroke-width:1.0;" x1="786" x2="786" y1="729.332" y2="745.293"/><text fill="#000000" font-family="Helvetica" font-size="12" font-weight="bold" lengthAdjust="spacing" textLength="39" x="6" y="83.5703">r2.9.17</text><text fill="#000000" font-family="Helvetica" font-size="12" font-weight="bold" lengthAdjust="spacing" textLength="49" x="114" y="103.5313">Testing1</text><text fill="#000000" font-family="Helvetica" font-size="12" font-weight="bold" lengthAdjust="spacing" textLength="39" x="90" y="123.4922">r2.9.18</text><text fill="#000000" font-family="Helvetica" font-size="12" font-weight="bold" lengthAdjust="spacing" textLength="49" x="226" y="143.4531">Testing2</text><text fill="#000000" font-family="sans-serif" font-size="12" font-weight="bold" lengthAdjust="spacing" textLength="73" x="275" y="163.4141">Demo MOA 1</text><text fill="#000000" font-family="Helvetica" font-size="12" font-weight="bold" lengthAdjust="spacing" textLength="49" x="170" y="183.375">pre-prod</text><text fill="#000000" font-family="Helvetica" font-size="12" font-weight="bold" lengthAdjust="spacing" textLength="49" x="202" y="203.3359">r2.9.19.2</text><text fill="#000000" font-family="Helvetica" font-size="12" font-weight="bold" lengthAdjust="spacing" textLength="49" x="366" y="223.2969">Testing3</text><text fill="#000000" font-family="sans-serif" font-size="12" font-weight="bold" lengthAdjust="spacing" textLength="73" x="379" y="243.2578">Demo MOA 2</text><text fill="#000000" font-family="Helvetica" font-size="12" font-weight="bold" lengthAdjust="spacing" textLength="49" x="314" y="263.2188">r2.9.20.1</text><text fill="#000000" font-family="Helvetica" font-size="12" font-weight="bold" lengthAdjust="spacing" textLength="49" x="494" y="283.1797">Testing4</text><text fill="#000000" font-family="Helvetica" font-size="12" font-weight="bold" lengthAdjust="spacing" textLength="39" x="426" y="303.1406">r2.9.21</text><text fill="#000000" font-family="Helvetica" font-size="12" font-weight="bold" lengthAdjust="spacing" textLength="49" x="618" y="323.1016">Testing5</text><text fill="#000000" font-family="sans-serif" font-size="12" font-weight="bold" lengthAdjust="spacing" textLength="73" x="575" y="343.0625">Demo MOA 3</text><text fill="#000000" font-family="Helvetica" font-size="12" font-weight="bold" lengthAdjust="spacing" textLength="39" x="538" y="363.0234">r2.9.22</text><text fill="#000000" font-family="Helvetica" font-size="12" font-weight="bold" lengthAdjust="spacing" textLength="49" x="674" y="382.9844">Testing6</text><text fill="#000000" font-family="sans-serif" font-size="12" font-weight="bold" lengthAdjust="spacing" textLength="73" x="667" y="402.9453">Demo MOA 4</text><text fill="#000000" font-family="sans-serif" font-size="12" font-weight="bold" lengthAdjust="spacing" textLength="141" x="695" y="422.9063">Pr&#233;sentation Utilisateurs</text><text fill="#000000" font-family="Helvetica" font-size="12" font-weight="bold" lengthAdjust="spacing" textLength="39" x="650" y="442.8672">r2.9.23</text><text fill="#000000" font-family="Helvetica" font-size="12" font-weight="bold" lengthAdjust="spacing" textLength="49" x="758" y="462.8281">Testing7</text><text fill="#000000" font-family="sans-serif" font-size="12" font-weight="bold" lengthAdjust="spacing" textLength="73" x="771" y="482.7891">Demo MOA 5</text><text fill="#000000" font-family="Helvetica" font-size="12" font-weight="bold" lengthAdjust="spacing" textLength="54" x="814" y="502.75">validation</text><text fill="#000000" font-family="Helvetica" font-size="12" font-weight="bold" lengthAdjust="spacing" textLength="66" x="734" y="522.7109">r2.9.23.x fix</text><text fill="#000000" font-family="Helvetica" font-size="12" font-weight="bold" lengthAdjust="spacing" textLength="62" x="842" y="542.6719">Production</text><text fill="#000000" font-family="Helvetica" font-size="12" font-weight="bold" lengthAdjust="spacing" textLength="24" x="414" y="562.6328">GPR</text><text fill="#000000" font-family="Helvetica" font-size="12" font-weight="bold" lengthAdjust="spacing" textLength="22" x="522" y="582.5938">VFA</text><text fill="#000000" font-family="Helvetica" font-size="12" font-weight="bold" lengthAdjust="spacing" textLength="23" x="606" y="602.5547">CDE</text><text fill="#000000" font-family="Helvetica" font-size="12" font-weight="bold" lengthAdjust="spacing" textLength="22" x="398" y="622.5156">ELR</text><text fill="#000000" font-family="Helvetica" font-size="12" font-weight="bold" lengthAdjust="spacing" textLength="21" x="510" y="642.4766">JLT</text><text fill="#000000" font-family="Helvetica" font-size="12" font-weight="bold" lengthAdjust="spacing" textLength="21" x="454" y="662.4375">JVF</text><text fill="#000000" font-family="Helvetica" font-size="12" font-weight="bold" lengthAdjust="spacing" textLength="24" x="742" y="682.3984">MFA</text><text fill="#000000" font-family="Helvetica" font-size="12" font-weight="bold" lengthAdjust="spacing" textLength="22" x="482" y="702.3594">BLE</text><text fill="#000000" font-family="Helvetica" font-size="12" font-weight="bold" lengthAdjust="spacing" textLength="25" x="370" y="722.3203">MDE</text><text fill="#000000" font-family="Helvetica" font-size="12" font-weight="bold" lengthAdjust="spacing" textLength="65" x="710" y="742.2813">CGFS 2 VFA</text><rect fill="none" height="69.8633" id="_legend" rx="7.5" ry="7.5" style="stroke:#000000;stroke-width:1.0;" width="146" x="346.5" y="759.293"/><rect fill="#D3D3D3" height="18.6211" style="stroke:none;stroke-width:1.0;" width="12" x="351.5" y="766.293"/><text fill="#000000" font-family="sans-serif" font-size="14" lengthAdjust="spacing" textLength="8" x="351.5" y="781.4004">&#160;&#160;</text><text fill="#000000" font-family="sans-serif" font-size="14" lengthAdjust="spacing" textLength="116" x="367.5" y="781.4004">Cong&#233;s/Abs. MOE</text><rect fill="#B0C4DE" height="18.6211" style="stroke:none;stroke-width:1.0;" width="12" x="351.5" y="784.9141"/><text fill="#000000" font-family="sans-serif" font-size="14" lengthAdjust="spacing" textLength="8" x="351.5" y="800.0215">&#160;&#160;</text><text fill="#000000" font-family="sans-serif" font-size="14" lengthAdjust="spacing" textLength="84" x="367.5" y="800.0215">Cong&#233;s MOA</text><rect fill="#DDA0DD" height="18.6211" style="stroke:none;stroke-width:1.0;" width="12" x="351.5" y="803.5352"/><text fill="#000000" font-family="sans-serif" font-size="14" lengthAdjust="spacing" textLength="12" x="351.5" y="818.6426">&#160;&#160;&#160;</text><text fill="#000000" font-family="sans-serif" font-size="14" lengthAdjust="spacing" textLength="78" x="367.5" y="818.6426">Cong&#233;s Dev</text><line style="stroke:#000000;stroke-width:1.0;" x1="351.5" x2="487.5" y1="766.293" y2="766.293"/><line style="stroke:#000000;stroke-width:1.0;" x1="351.5" x2="487.5" y1="784.9141" y2="784.9141"/><line style="stroke:#000000;stroke-width:1.0;" x1="351.5" x2="487.5" y1="803.5352" y2="803.5352"/><line style="stroke:#000000;stroke-width:1.0;" x1="351.5" x2="487.5" y1="822.1563" y2="822.1563"/><line style="stroke:#000000;stroke-width:1.0;" x1="351.5" x2="351.5" y1="766.293" y2="822.1563"/><line style="stroke:#000000;stroke-width:1.0;" x1="363.5" x2="363.5" y1="766.293" y2="822.1563"/><line style="stroke:#000000;stroke-width:1.0;" x1="487.5" x2="487.5" y1="766.293" y2="822.1563"/><!--SRC=[rLZTSjeu5BxNKsXcBzfUXCGs1fBjT1f-aauAXGbfEZkPpex00hGn4Yl9f6pR1-fpzCNsM0Oa6xjiP_TccGo9fFFpVP-EZgsyLff8FITSQxHW4SKp8VH4V4BefTARcBv2PgtBo5oI9VwCC7mIRhneT4VKutOk_Lm9hj-H9SLlQBoccar9RgaZOY5nEoRJnzpycFr5iUVdvzBaU2BYQ3_T1hzhAH8UPO6wbAx6ZvjsdD2zJPznMhxwrNph_nlW9OkfqeBJ0khCP_9VGTlGE1PF9QYkcAHjoRPPCanSw78uNI8XAgMy1D9PIV2X97nERsda12TIYgUVtI99evAKhPzLmM3_hKgAIN7VieYjsjclNb3ByxjRW6ISAeLtAnaxHLT44WtHFkTGp1qKmvYjQLUIIKMoOguTThAfWE0v3bQTnZ5rhBmV5anRwWCYvupZS3yn8b74-1mtt8F6bZHckR8jyXpphSoPnpGMYaO_i5yn_lY3lV-AlgANfzkcXLQISQsc14WzKVeORs16_46d-JcacOPH1wPu91cLE7f6ffgjcVx-3P_0cLpJMAoMb6km5H7POARmDCqBK4646VoXT5RpQ9HbmAOvAgmN5FjdVltq37vQ23r8ltPUyveVCL7uuUvo_DRx2EZ_JE28GPqOJ0hj5l9vvf82seSxI0PAktwUyTkvdRooDcYVicLJ-evhtKtf5rDUfocTiCPc3y6lWE0x45BpBbqAF1XUOi2y8AiLvM3luLH9CjCWk3L-fZ3i0e1UINe2knLbg4UtlT7jiElayqq-J7ZaIjtG2oncK9qRepgoZdbUYiHBmVVQdDTygqvGfKvGkY4EOsEpLoSuKAU8rilGtYJn3cuMmgeNkEhvLhtpekUMYNzMyooJUXMJUZMJOCUaRfdKZpBnCpoNoJnHsk5ITxZKRJ7w3iYm2cHO3RA-0nbQaE4_1JccAqsN4oWxYpDqS8Qkve7Lt6yUajpnSSgdSSYd22IiKAjHpJZSCMvOnesAuzTmo3HSCdNd-6qhI1N46CdltnHqEgAPuFYzPZ5JHDD4AaU8HgdlJel0Qj4yx6q_iIdD4ZcWnJeSZT7Es99kMesQnwkY0i5UjT1XNjApchPdhKdC8gDS9i7zPVzenzhsWE5K2vlREEQv2_EQvF02kgcPbRts2S_O9oj-wr-9toe2w9CriAJojC_c2stUK1tXZGTAwqT4oTHAKEZQ5LiGbebGrhUt5P0IXwp60f9UZswpR9tXk-lVpQXm10zKFsYW3_TNbquGCoh8Tn2ax1ntkZqdZ1bPzkQPLzKEYaVHyCZJZrFfiwPW05QkchnLg-YXrtS5CwDZWeK5kOnJIGQbAOtDMp9wkEdVEMdCwDXfy0y4DMx74jrVkOdIqP54_c416BTyebMSB27y85SQWrnfb8S_Eo-hwC7XdcqpjFjkrPZHaU8hgptZLyuWLvM3xl7uhGDz1jsgw9thgp48iJz1lK7xQFp0A-yznhUoSjKZu-dbQObZEeTsLBmUF36zG2XRWml1bvU_x9rVmH1t19_30-xqSg9gqDnx-8jZjQyerzGy0hPMALrOSnRXRW2Ba6oB1w7Ny9tz9mMDOlZzVj37QofL-ZZruFqC-hJdFVy0p80vzWAWVU4tBe80TthZkrI4u0LwVZtgOoKIEQKuOafBDadIdle2tP0rmRS9JwzM5tW8JwMRxjlT1ExnDPE2cwlApVt06ZJg9ssc8QK4BFX-WBfqHf9OWyTKfFUs2znPUNxeepuyPX8oX-0pYJgWh9QR2tnr-pS0]--></g></svg>