<?xml version="1.0" encoding="us-ascii" standalone="no"?><svg xmlns="http://www.w3.org/2000/svg" xmlns:xlink="http://www.w3.org/1999/xlink" contentStyleType="text/css" height="487px" preserveAspectRatio="none" style="width:797px;height:487px;background:#FFFFFF;" version="1.1" viewBox="0 0 797 487" width="797px" zoomAndPan="magnify"><defs/><g><text fill="#000000" font-family="sans-serif" font-size="14" font-weight="bold" lengthAdjust="spacing" textLength="249" x="241" y="24.5332">Calendrier d'activit&#233; - Development</text><rect fill="#FFFAFA" height="27" style="stroke:none;stroke-width:1.0;" width="732" x="0" y="38.6094"/><text fill="#000000" font-family="sans-serif" font-size="10" lengthAdjust="spacing" textLength="12" x="5" y="64.9902">15</text><text fill="#000000" font-family="sans-serif" font-size="10" lengthAdjust="spacing" textLength="12" x="33" y="64.9902">16</text><text fill="#000000" font-family="sans-serif" font-size="10" lengthAdjust="spacing" textLength="12" x="61" y="64.9902">17</text><text fill="#000000" font-family="sans-serif" font-size="10" lengthAdjust="spacing" textLength="12" x="89" y="64.9902">18</text><text fill="#000000" font-family="sans-serif" font-size="10" lengthAdjust="spacing" textLength="12" x="117" y="64.9902">19</text><text fill="#000000" font-family="sans-serif" font-size="10" lengthAdjust="spacing" textLength="12" x="145" y="64.9902">20</text><text fill="#000000" font-family="sans-serif" font-size="10" lengthAdjust="spacing" textLength="12" x="173" y="64.9902">21</text><text fill="#000000" font-family="sans-serif" font-size="10" lengthAdjust="spacing" textLength="12" x="201" y="64.9902">22</text><text fill="#000000" font-family="sans-serif" font-size="10" lengthAdjust="spacing" textLength="12" x="229" y="64.9902">23</text><text fill="#000000" font-family="sans-serif" font-size="10" lengthAdjust="spacing" textLength="12" x="257" y="64.9902">24</text><text fill="#000000" font-family="sans-serif" font-size="10" lengthAdjust="spacing" textLength="12" x="285" y="64.9902">25</text><text fill="#000000" font-family="sans-serif" font-size="10" lengthAdjust="spacing" textLength="12" x="313" y="64.9902">26</text><text fill="#000000" font-family="sans-serif" font-size="10" lengthAdjust="spacing" textLength="12" x="341" y="64.9902">27</text><text fill="#000000" font-family="sans-serif" font-size="10" lengthAdjust="spacing" textLength="12" x="369" y="64.9902">28</text><text fill="#000000" font-family="sans-serif" font-size="10" lengthAdjust="spacing" textLength="12" x="397" y="64.9902">29</text><text fill="#000000" font-family="sans-serif" font-size="10" lengthAdjust="spacing" textLength="12" x="425" y="64.9902">30</text><text fill="#000000" font-family="sans-serif" font-size="10" lengthAdjust="spacing" textLength="12" x="453" y="64.9902">31</text><text fill="#000000" font-family="sans-serif" font-size="10" lengthAdjust="spacing" textLength="12" x="481" y="64.9902">32</text><text fill="#000000" font-family="sans-serif" font-size="10" lengthAdjust="spacing" textLength="12" x="509" y="64.9902">33</text><text fill="#000000" font-family="sans-serif" font-size="10" lengthAdjust="spacing" textLength="12" x="537" y="64.9902">34</text><text fill="#000000" font-family="sans-serif" font-size="10" lengthAdjust="spacing" textLength="12" x="565" y="64.9902">35</text><text fill="#000000" font-family="sans-serif" font-size="10" lengthAdjust="spacing" textLength="12" x="593" y="64.9902">36</text><text fill="#000000" font-family="sans-serif" font-size="10" lengthAdjust="spacing" textLength="12" x="621" y="64.9902">37</text><text fill="#000000" font-family="sans-serif" font-size="10" lengthAdjust="spacing" textLength="12" x="649" y="64.9902">38</text><text fill="#000000" font-family="sans-serif" font-size="10" lengthAdjust="spacing" textLength="12" x="677" y="64.9902">39</text><text fill="#000000" font-family="sans-serif" font-size="10" lengthAdjust="spacing" textLength="12" x="705" y="64.9902">40</text><line style="stroke:#C0C0C0;stroke-width:1.0;" x1="0" x2="0" y1="54.6094" y2="485.6719"/><line style="stroke:#C0C0C0;stroke-width:1.0;" x1="28" x2="28" y1="54.6094" y2="485.6719"/><line style="stroke:#C0C0C0;stroke-width:1.0;" x1="56" x2="56" y1="54.6094" y2="485.6719"/><line style="stroke:#C0C0C0;stroke-width:1.0;" x1="84" x2="84" y1="54.6094" y2="485.6719"/><line style="stroke:#C0C0C0;stroke-width:1.0;" x1="112" x2="112" y1="54.6094" y2="485.6719"/><line style="stroke:#C0C0C0;stroke-width:1.0;" x1="140" x2="140" y1="54.6094" y2="485.6719"/><line style="stroke:#C0C0C0;stroke-width:1.0;" x1="168" x2="168" y1="54.6094" y2="485.6719"/><line style="stroke:#C0C0C0;stroke-width:1.0;" x1="196" x2="196" y1="54.6094" y2="485.6719"/><line style="stroke:#C0C0C0;stroke-width:1.0;" x1="224" x2="224" y1="54.6094" y2="485.6719"/><line style="stroke:#C0C0C0;stroke-width:1.0;" x1="252" x2="252" y1="54.6094" y2="485.6719"/><line style="stroke:#C0C0C0;stroke-width:1.0;" x1="280" x2="280" y1="54.6094" y2="485.6719"/><line style="stroke:#C0C0C0;stroke-width:1.0;" x1="308" x2="308" y1="54.6094" y2="485.6719"/><line style="stroke:#C0C0C0;stroke-width:1.0;" x1="336" x2="336" y1="54.6094" y2="485.6719"/><line style="stroke:#C0C0C0;stroke-width:1.0;" x1="364" x2="364" y1="54.6094" y2="485.6719"/><line style="stroke:#C0C0C0;stroke-width:1.0;" x1="392" x2="392" y1="54.6094" y2="485.6719"/><line style="stroke:#C0C0C0;stroke-width:1.0;" x1="420" x2="420" y1="54.6094" y2="485.6719"/><line style="stroke:#C0C0C0;stroke-width:1.0;" x1="448" x2="448" y1="54.6094" y2="485.6719"/><line style="stroke:#C0C0C0;stroke-width:1.0;" x1="476" x2="476" y1="54.6094" y2="485.6719"/><line style="stroke:#C0C0C0;stroke-width:1.0;" x1="504" x2="504" y1="54.6094" y2="485.6719"/><line style="stroke:#C0C0C0;stroke-width:1.0;" x1="532" x2="532" y1="54.6094" y2="485.6719"/><line style="stroke:#C0C0C0;stroke-width:1.0;" x1="560" x2="560" y1="54.6094" y2="485.6719"/><line style="stroke:#C0C0C0;stroke-width:1.0;" x1="588" x2="588" y1="54.6094" y2="485.6719"/><line style="stroke:#C0C0C0;stroke-width:1.0;" x1="616" x2="616" y1="54.6094" y2="485.6719"/><line style="stroke:#C0C0C0;stroke-width:1.0;" x1="644" x2="644" y1="54.6094" y2="485.6719"/><line style="stroke:#C0C0C0;stroke-width:1.0;" x1="672" x2="672" y1="54.6094" y2="485.6719"/><line style="stroke:#C0C0C0;stroke-width:1.0;" x1="700" x2="700" y1="54.6094" y2="485.6719"/><line style="stroke:#C0C0C0;stroke-width:1.0;" x1="728" x2="728" y1="54.6094" y2="485.6719"/><line style="stroke:#C0C0C0;stroke-width:1.0;" x1="732" x2="732" y1="54.6094" y2="485.6719"/><line style="stroke:#C0C0C0;stroke-width:1.0;" x1="0" x2="0" y1="38.6094" y2="54.6094"/><line style="stroke:#C0C0C0;stroke-width:1.0;" x1="92" x2="92" y1="38.6094" y2="54.6094"/><text fill="#000000" font-family="sans-serif" font-size="12" font-weight="bold" lengthAdjust="spacing" textLength="51" x="20.5" y="51.0664">Apr 2024</text><line style="stroke:#C0C0C0;stroke-width:1.0;" x1="216" x2="216" y1="38.6094" y2="54.6094"/><text fill="#000000" font-family="sans-serif" font-size="12" font-weight="bold" lengthAdjust="spacing" textLength="54" x="127" y="51.0664">May 2024</text><line style="stroke:#C0C0C0;stroke-width:1.0;" x1="336" x2="336" y1="38.6094" y2="54.6094"/><text fill="#000000" font-family="sans-serif" font-size="12" font-weight="bold" lengthAdjust="spacing" textLength="52" x="250" y="51.0664">Jun 2024</text><line style="stroke:#C0C0C0;stroke-width:1.0;" x1="460" x2="460" y1="38.6094" y2="54.6094"/><text fill="#000000" font-family="sans-serif" font-size="12" font-weight="bold" lengthAdjust="spacing" textLength="48" x="374" y="51.0664">Jul 2024</text><line style="stroke:#C0C0C0;stroke-width:1.0;" x1="584" x2="584" y1="38.6094" y2="54.6094"/><text fill="#000000" font-family="sans-serif" font-size="12" font-weight="bold" lengthAdjust="spacing" textLength="53" x="495.5" y="51.0664">Aug 2024</text><line style="stroke:#C0C0C0;stroke-width:1.0;" x1="704" x2="704" y1="38.6094" y2="54.6094"/><text fill="#000000" font-family="sans-serif" font-size="12" font-weight="bold" lengthAdjust="spacing" textLength="53" x="617.5" y="51.0664">Sep 2024</text><line style="stroke:#C0C0C0;stroke-width:1.0;" x1="732" x2="732" y1="38.6094" y2="54.6094"/><text fill="#000000" font-family="sans-serif" font-size="12" font-weight="bold" lengthAdjust="spacing" textLength="20" x="708" y="51.0664">Oct</text><line style="stroke:#C0C0C0;stroke-width:1.0;" x1="0" x2="732" y1="38.6094" y2="38.6094"/><line style="stroke:#C0C0C0;stroke-width:1.0;" x1="0" x2="732" y1="54.6094" y2="54.6094"/><line style="stroke:#C0C0C0;stroke-width:1.0;" x1="0" x2="732" y1="65.6094" y2="65.6094"/><line style="stroke:#0000FF;stroke-width:1.5;stroke-dasharray:8.0,8.0;" x1="75" x2="75" y1="82.7031" y2="94.25"/><line style="stroke:#0000FF;stroke-width:1.5;stroke-dasharray:8.0,8.0;" x1="75" x2="83" y1="94.25" y2="94.25"/><polygon fill="#0000FF" points="79,90.25,79,94.25,79,98.25,83,94.25" style="stroke:#0000FF;stroke-width:1.5;"/><line style="stroke:#0000FF;stroke-width:1.5;stroke-dasharray:8.0,8.0;" x1="75" x2="75" y1="82.7031" y2="132.4375"/><line style="stroke:#0000FF;stroke-width:1.5;stroke-dasharray:8.0,8.0;" x1="75" x2="83" y1="132.4375" y2="132.4375"/><polygon fill="#0000FF" points="79,128.4375,79,132.4375,79,136.4375,83,132.4375" style="stroke:#0000FF;stroke-width:1.5;"/><line style="stroke:#0000FF;stroke-width:1.5;stroke-dasharray:8.0,8.0;" x1="187" x2="187" y1="139.9844" y2="151.5313"/><line style="stroke:#0000FF;stroke-width:1.5;stroke-dasharray:8.0,8.0;" x1="187" x2="195" y1="151.5313" y2="151.5313"/><polygon fill="#0000FF" points="191,147.5313,191,151.5313,191,155.5313,195,151.5313" style="stroke:#0000FF;stroke-width:1.5;"/><line style="stroke:#0000FF;stroke-width:1.5;stroke-dasharray:8.0,8.0;" x1="187" x2="187" y1="139.9844" y2="208.8125"/><line style="stroke:#0000FF;stroke-width:1.5;stroke-dasharray:8.0,8.0;" x1="187" x2="195" y1="208.8125" y2="208.8125"/><polygon fill="#0000FF" points="191,204.8125,191,208.8125,191,212.8125,195,208.8125" style="stroke:#0000FF;stroke-width:1.5;"/><line style="stroke:#0000FF;stroke-width:1.5;stroke-dasharray:8.0,8.0;" x1="299" x2="299" y1="216.3594" y2="227.9063"/><line style="stroke:#0000FF;stroke-width:1.5;stroke-dasharray:8.0,8.0;" x1="299" x2="307" y1="227.9063" y2="227.9063"/><polygon fill="#0000FF" points="303,223.9063,303,227.9063,303,231.9063,307,227.9063" style="stroke:#0000FF;stroke-width:1.5;"/><line style="stroke:#0000FF;stroke-width:1.5;stroke-dasharray:8.0,8.0;" x1="299" x2="299" y1="216.3594" y2="266.0938"/><line style="stroke:#0000FF;stroke-width:1.5;stroke-dasharray:8.0,8.0;" x1="299" x2="307" y1="266.0938" y2="266.0938"/><polygon fill="#0000FF" points="303,262.0938,303,266.0938,303,270.0938,307,266.0938" style="stroke:#0000FF;stroke-width:1.5;"/><line style="stroke:#0000FF;stroke-width:1.5;stroke-dasharray:8.0,8.0;" x1="383" x2="383" y1="273.6406" y2="285.1875"/><line style="stroke:#0000FF;stroke-width:1.5;stroke-dasharray:8.0,8.0;" x1="383" x2="391" y1="285.1875" y2="285.1875"/><polygon fill="#0000FF" points="387,281.1875,387,285.1875,387,289.1875,391,285.1875" style="stroke:#0000FF;stroke-width:1.5;"/><line style="stroke:#0000FF;stroke-width:1.5;stroke-dasharray:8.0,8.0;" x1="383" x2="383" y1="273.6406" y2="323.375"/><line style="stroke:#0000FF;stroke-width:1.5;stroke-dasharray:8.0,8.0;" x1="383" x2="391" y1="323.375" y2="323.375"/><polygon fill="#0000FF" points="387,319.375,387,323.375,387,327.375,391,323.375" style="stroke:#0000FF;stroke-width:1.5;"/><line style="stroke:#0000FF;stroke-width:1.5;stroke-dasharray:8.0,8.0;" x1="467" x2="467" y1="330.9219" y2="342.4688"/><line style="stroke:#0000FF;stroke-width:1.5;stroke-dasharray:8.0,8.0;" x1="467" x2="475" y1="342.4688" y2="342.4688"/><polygon fill="#0000FF" points="471,338.4688,471,342.4688,471,346.4688,475,342.4688" style="stroke:#0000FF;stroke-width:1.5;"/><line style="stroke:#0000FF;stroke-width:1.5;stroke-dasharray:8.0,8.0;" x1="467" x2="467" y1="330.9219" y2="380.6563"/><line style="stroke:#0000FF;stroke-width:1.5;stroke-dasharray:8.0,8.0;" x1="467" x2="475" y1="380.6563" y2="380.6563"/><polygon fill="#0000FF" points="471,376.6563,471,380.6563,471,384.6563,475,380.6563" style="stroke:#0000FF;stroke-width:1.5;"/><line style="stroke:#0000FF;stroke-width:1.5;stroke-dasharray:8.0,8.0;" x1="579" x2="579" y1="388.2031" y2="399.75"/><line style="stroke:#0000FF;stroke-width:1.5;stroke-dasharray:8.0,8.0;" x1="579" x2="587" y1="399.75" y2="399.75"/><polygon fill="#0000FF" points="583,395.75,583,399.75,583,403.75,587,399.75" style="stroke:#0000FF;stroke-width:1.5;"/><line style="stroke:#0000FF;stroke-width:1.5;stroke-dasharray:8.0,8.0;" x1="579" x2="579" y1="388.2031" y2="437.9375"/><line style="stroke:#0000FF;stroke-width:1.5;stroke-dasharray:8.0,8.0;" x1="579" x2="587" y1="437.9375" y2="437.9375"/><polygon fill="#0000FF" points="583,433.9375,583,437.9375,583,441.9375,587,437.9375" style="stroke:#0000FF;stroke-width:1.5;"/><line style="stroke:#0000FF;stroke-width:1.5;stroke-dasharray:8.0,8.0;" x1="663" x2="663" y1="445.4844" y2="457.0313"/><line style="stroke:#0000FF;stroke-width:1.5;stroke-dasharray:8.0,8.0;" x1="663" x2="671" y1="457.0313" y2="457.0313"/><polygon fill="#0000FF" points="667,453.0313,667,457.0313,667,461.0313,671,457.0313" style="stroke:#0000FF;stroke-width:1.5;"/><rect fill="#008000" height="15.0938" style="stroke:none;stroke-width:1.0;" width="80" x="2" y="67.6094"/><line style="stroke:#008000;stroke-width:1.0;" x1="2" x2="82" y1="67.6094" y2="67.6094"/><line style="stroke:#008000;stroke-width:1.0;" x1="2" x2="82" y1="82.7031" y2="82.7031"/><line style="stroke:#008000;stroke-width:1.0;" x1="2" x2="2" y1="67.6094" y2="82.7031"/><line style="stroke:#008000;stroke-width:1.0;" x1="82" x2="82" y1="67.6094" y2="82.7031"/><rect fill="#00BFFF" height="15.0938" style="stroke:none;stroke-width:1.0;" width="24" x="86" y="86.7031"/><line style="stroke:#00BFFF;stroke-width:1.0;" x1="86" x2="110" y1="86.7031" y2="86.7031"/><line style="stroke:#00BFFF;stroke-width:1.0;" x1="86" x2="110" y1="101.7969" y2="101.7969"/><line style="stroke:#00BFFF;stroke-width:1.0;" x1="86" x2="86" y1="86.7031" y2="101.7969"/><line style="stroke:#00BFFF;stroke-width:1.0;" x1="110" x2="110" y1="86.7031" y2="101.7969"/><polygon fill="#FFFF00" points="114,105.7969,120,111.7969,114,117.7969,108,111.7969" style="stroke:#B22222;stroke-width:1.0;"/><rect fill="#E6E6FA" height="15.0938" style="stroke:none;stroke-width:1.0;" width="108" x="86" y="124.8906"/><line style="stroke:#ADD8E6;stroke-width:1.0;" x1="86" x2="194" y1="124.8906" y2="124.8906"/><line style="stroke:#ADD8E6;stroke-width:1.0;" x1="86" x2="194" y1="139.9844" y2="139.9844"/><line style="stroke:#ADD8E6;stroke-width:1.0;" x1="86" x2="86" y1="124.8906" y2="139.9844"/><line style="stroke:#ADD8E6;stroke-width:1.0;" x1="194" x2="194" y1="124.8906" y2="139.9844"/><rect fill="#00BFFF" height="15.0938" style="stroke:none;stroke-width:1.0;" width="24" x="198" y="143.9844"/><line style="stroke:#00BFFF;stroke-width:1.0;" x1="198" x2="222" y1="143.9844" y2="143.9844"/><line style="stroke:#00BFFF;stroke-width:1.0;" x1="198" x2="222" y1="159.0781" y2="159.0781"/><line style="stroke:#00BFFF;stroke-width:1.0;" x1="198" x2="198" y1="143.9844" y2="159.0781"/><line style="stroke:#00BFFF;stroke-width:1.0;" x1="222" x2="222" y1="143.9844" y2="159.0781"/><polygon fill="#FFFF00" points="226,163.0781,232,169.0781,226,175.0781,220,169.0781" style="stroke:#B22222;stroke-width:1.0;"/><rect fill="#FA8072" height="15.0938" style="stroke:none;stroke-width:1.0;" width="24" x="86" y="182.1719"/><line style="stroke:#FA8072;stroke-width:1.0;" x1="86" x2="110" y1="182.1719" y2="182.1719"/><line style="stroke:#FA8072;stroke-width:1.0;" x1="86" x2="110" y1="197.2656" y2="197.2656"/><line style="stroke:#FA8072;stroke-width:1.0;" x1="86" x2="86" y1="182.1719" y2="197.2656"/><line style="stroke:#FA8072;stroke-width:1.0;" x1="110" x2="110" y1="182.1719" y2="197.2656"/><rect fill="#E6E6FA" height="15.0938" style="stroke:none;stroke-width:1.0;" width="108" x="198" y="201.2656"/><line style="stroke:#ADD8E6;stroke-width:1.0;" x1="198" x2="306" y1="201.2656" y2="201.2656"/><line style="stroke:#ADD8E6;stroke-width:1.0;" x1="198" x2="306" y1="216.3594" y2="216.3594"/><line style="stroke:#ADD8E6;stroke-width:1.0;" x1="198" x2="198" y1="201.2656" y2="216.3594"/><line style="stroke:#ADD8E6;stroke-width:1.0;" x1="306" x2="306" y1="201.2656" y2="216.3594"/><rect fill="#00BFFF" height="15.0938" style="stroke:none;stroke-width:1.0;" width="24" x="310" y="220.3594"/><line style="stroke:#00BFFF;stroke-width:1.0;" x1="310" x2="334" y1="220.3594" y2="220.3594"/><line style="stroke:#00BFFF;stroke-width:1.0;" x1="310" x2="334" y1="235.4531" y2="235.4531"/><line style="stroke:#00BFFF;stroke-width:1.0;" x1="310" x2="310" y1="220.3594" y2="235.4531"/><line style="stroke:#00BFFF;stroke-width:1.0;" x1="334" x2="334" y1="220.3594" y2="235.4531"/><polygon fill="#FFFF00" points="338,239.4531,344,245.4531,338,251.4531,332,245.4531" style="stroke:#B22222;stroke-width:1.0;"/><rect fill="#E6E6FA" height="15.0938" style="stroke:none;stroke-width:1.0;" width="80" x="310" y="258.5469"/><line style="stroke:#ADD8E6;stroke-width:1.0;" x1="310" x2="390" y1="258.5469" y2="258.5469"/><line style="stroke:#ADD8E6;stroke-width:1.0;" x1="310" x2="390" y1="273.6406" y2="273.6406"/><line style="stroke:#ADD8E6;stroke-width:1.0;" x1="310" x2="310" y1="258.5469" y2="273.6406"/><line style="stroke:#ADD8E6;stroke-width:1.0;" x1="390" x2="390" y1="258.5469" y2="273.6406"/><rect fill="#00BFFF" height="15.0938" style="stroke:none;stroke-width:1.0;" width="24" x="394" y="277.6406"/><line style="stroke:#00BFFF;stroke-width:1.0;" x1="394" x2="418" y1="277.6406" y2="277.6406"/><line style="stroke:#00BFFF;stroke-width:1.0;" x1="394" x2="418" y1="292.7344" y2="292.7344"/><line style="stroke:#00BFFF;stroke-width:1.0;" x1="394" x2="394" y1="277.6406" y2="292.7344"/><line style="stroke:#00BFFF;stroke-width:1.0;" x1="418" x2="418" y1="277.6406" y2="292.7344"/><polygon fill="#FFFF00" points="422,296.7344,428,302.7344,422,308.7344,416,302.7344" style="stroke:#B22222;stroke-width:1.0;"/><rect fill="#E6E6FA" height="15.0938" style="stroke:none;stroke-width:1.0;" width="80" x="394" y="315.8281"/><line style="stroke:#ADD8E6;stroke-width:1.0;" x1="394" x2="474" y1="315.8281" y2="315.8281"/><line style="stroke:#ADD8E6;stroke-width:1.0;" x1="394" x2="474" y1="330.9219" y2="330.9219"/><line style="stroke:#ADD8E6;stroke-width:1.0;" x1="394" x2="394" y1="315.8281" y2="330.9219"/><line style="stroke:#ADD8E6;stroke-width:1.0;" x1="474" x2="474" y1="315.8281" y2="330.9219"/><rect fill="#00BFFF" height="15.0938" style="stroke:none;stroke-width:1.0;" width="24" x="478" y="334.9219"/><line style="stroke:#00BFFF;stroke-width:1.0;" x1="478" x2="502" y1="334.9219" y2="334.9219"/><line style="stroke:#00BFFF;stroke-width:1.0;" x1="478" x2="502" y1="350.0156" y2="350.0156"/><line style="stroke:#00BFFF;stroke-width:1.0;" x1="478" x2="478" y1="334.9219" y2="350.0156"/><line style="stroke:#00BFFF;stroke-width:1.0;" x1="502" x2="502" y1="334.9219" y2="350.0156"/><polygon fill="#FFFF00" points="506,354.0156,512,360.0156,506,366.0156,500,360.0156" style="stroke:#B22222;stroke-width:1.0;"/><rect fill="#E6E6FA" height="15.0938" style="stroke:none;stroke-width:1.0;" width="108" x="478" y="373.1094"/><line style="stroke:#ADD8E6;stroke-width:1.0;" x1="478" x2="586" y1="373.1094" y2="373.1094"/><line style="stroke:#ADD8E6;stroke-width:1.0;" x1="478" x2="586" y1="388.2031" y2="388.2031"/><line style="stroke:#ADD8E6;stroke-width:1.0;" x1="478" x2="478" y1="373.1094" y2="388.2031"/><line style="stroke:#ADD8E6;stroke-width:1.0;" x1="586" x2="586" y1="373.1094" y2="388.2031"/><rect fill="#00BFFF" height="15.0938" style="stroke:none;stroke-width:1.0;" width="24" x="590" y="392.2031"/><line style="stroke:#00BFFF;stroke-width:1.0;" x1="590" x2="614" y1="392.2031" y2="392.2031"/><line style="stroke:#00BFFF;stroke-width:1.0;" x1="590" x2="614" y1="407.2969" y2="407.2969"/><line style="stroke:#00BFFF;stroke-width:1.0;" x1="590" x2="590" y1="392.2031" y2="407.2969"/><line style="stroke:#00BFFF;stroke-width:1.0;" x1="614" x2="614" y1="392.2031" y2="407.2969"/><polygon fill="#FFFF00" points="618,411.2969,624,417.2969,618,423.2969,612,417.2969" style="stroke:#B22222;stroke-width:1.0;"/><rect fill="#E6E6FA" height="15.0938" style="stroke:none;stroke-width:1.0;" width="80" x="590" y="430.3906"/><line style="stroke:#ADD8E6;stroke-width:1.0;" x1="590" x2="670" y1="430.3906" y2="430.3906"/><line style="stroke:#ADD8E6;stroke-width:1.0;" x1="590" x2="670" y1="445.4844" y2="445.4844"/><line style="stroke:#ADD8E6;stroke-width:1.0;" x1="590" x2="590" y1="430.3906" y2="445.4844"/><line style="stroke:#ADD8E6;stroke-width:1.0;" x1="670" x2="670" y1="430.3906" y2="445.4844"/><rect fill="#00BFFF" height="15.0938" style="stroke:none;stroke-width:1.0;" width="24" x="674" y="449.4844"/><line style="stroke:#00BFFF;stroke-width:1.0;" x1="674" x2="698" y1="449.4844" y2="449.4844"/><line style="stroke:#00BFFF;stroke-width:1.0;" x1="674" x2="698" y1="464.5781" y2="464.5781"/><line style="stroke:#00BFFF;stroke-width:1.0;" x1="674" x2="674" y1="449.4844" y2="464.5781"/><line style="stroke:#00BFFF;stroke-width:1.0;" x1="698" x2="698" y1="449.4844" y2="464.5781"/><rect fill="#FF0000" height="15.0938" style="stroke:none;stroke-width:1.0;" width="24" x="706" y="468.5781"/><line style="stroke:#FF0000;stroke-width:1.0;" x1="706" x2="730" y1="468.5781" y2="468.5781"/><line style="stroke:#FF0000;stroke-width:1.0;" x1="706" x2="730" y1="483.6719" y2="483.6719"/><line style="stroke:#FF0000;stroke-width:1.0;" x1="706" x2="706" y1="468.5781" y2="483.6719"/><line style="stroke:#FF0000;stroke-width:1.0;" x1="730" x2="730" y1="468.5781" y2="483.6719"/><text fill="#000000" font-family="Helvetica" font-size="12" font-weight="bold" lengthAdjust="spacing" textLength="44" x="6" y="80.0664">Sprint 1</text><text fill="#000000" font-family="Helvetica" font-size="12" font-weight="bold" lengthAdjust="spacing" textLength="49" x="114" y="99.1602">Testing1</text><text fill="#000000" font-family="sans-serif" font-size="12" font-weight="bold" lengthAdjust="spacing" textLength="73" x="123" y="118.2539">Demo MOA 1</text><text fill="#000000" font-family="Helvetica" font-size="12" font-weight="bold" lengthAdjust="spacing" textLength="44" x="90" y="137.3477">Sprint 2</text><text fill="#000000" font-family="Helvetica" font-size="12" font-weight="bold" lengthAdjust="spacing" textLength="49" x="226" y="156.4414">Testing2</text><text fill="#000000" font-family="sans-serif" font-size="12" font-weight="bold" lengthAdjust="spacing" textLength="118" x="235" y="175.5352">Demo MOA/COORD 1</text><text fill="#000000" font-family="Helvetica" font-size="12" font-weight="bold" lengthAdjust="spacing" textLength="49" x="114" y="194.6289">pre-prod</text><text fill="#000000" font-family="Helvetica" font-size="12" font-weight="bold" lengthAdjust="spacing" textLength="44" x="202" y="213.7227">Sprint 3</text><text fill="#000000" font-family="Helvetica" font-size="12" font-weight="bold" lengthAdjust="spacing" textLength="49" x="338" y="232.8164">Testing3</text><text fill="#000000" font-family="sans-serif" font-size="12" font-weight="bold" lengthAdjust="spacing" textLength="73" x="347" y="251.9102">Demo MOA 2</text><text fill="#000000" font-family="Helvetica" font-size="12" font-weight="bold" lengthAdjust="spacing" textLength="44" x="314" y="271.0039">Sprint 4</text><text fill="#000000" font-family="Helvetica" font-size="12" font-weight="bold" lengthAdjust="spacing" textLength="49" x="422" y="290.0977">Testing4</text><text fill="#000000" font-family="sans-serif" font-size="12" font-weight="bold" lengthAdjust="spacing" textLength="73" x="431" y="309.1914">Demo MOA 4</text><text fill="#000000" font-family="Helvetica" font-size="12" font-weight="bold" lengthAdjust="spacing" textLength="44" x="398" y="328.2852">Sprint 5</text><text fill="#000000" font-family="Helvetica" font-size="12" font-weight="bold" lengthAdjust="spacing" textLength="49" x="506" y="347.3789">Testing5</text><text fill="#000000" font-family="sans-serif" font-size="12" font-weight="bold" lengthAdjust="spacing" textLength="73" x="515" y="366.4727">Demo MOA 5</text><text fill="#000000" font-family="Helvetica" font-size="12" font-weight="bold" lengthAdjust="spacing" textLength="44" x="482" y="385.5664">Sprint 6</text><text fill="#000000" font-family="Helvetica" font-size="12" font-weight="bold" lengthAdjust="spacing" textLength="49" x="618" y="404.6602">Testing6</text><text fill="#000000" font-family="sans-serif" font-size="12" font-weight="bold" lengthAdjust="spacing" textLength="73" x="627" y="423.7539">Demo MOA 6</text><text fill="#000000" font-family="Helvetica" font-size="12" font-weight="bold" lengthAdjust="spacing" textLength="44" x="594" y="442.8477">Sprint 7</text><text fill="#000000" font-family="Helvetica" font-size="12" font-weight="bold" lengthAdjust="spacing" textLength="49" x="702" y="461.9414">Testing7</text><text fill="#000000" font-family="Helvetica" font-size="12" font-weight="bold" lengthAdjust="spacing" textLength="61" x="734" y="481.0352">production</text></g></svg>