<?xml version="1.0" encoding="us-ascii" standalone="no"?><svg xmlns="http://www.w3.org/2000/svg" xmlns:xlink="http://www.w3.org/1999/xlink" contentStyleType="text/css" height="850px" preserveAspectRatio="none" style="width:433px;height:850px;background:#FFFFFF;" version="1.1" viewBox="0 0 433 850" width="433px" zoomAndPan="magnify"><defs/><g><!--entity Opus-Activit?--><g id="elem_Opus-Activit&#233;"><rect fill="#F1F1F1" height="38.6211" rx="2.5" ry="2.5" style="stroke:#181818;stroke-width:0.5;" width="104" x="285.5" y="25.5"/><text fill="#000000" font-family="sans-serif" font-size="14" lengthAdjust="spacing" textLength="84" x="295.5" y="50.6074">Opus-Activit&#233;</text></g><!--entity MOA--><g id="elem_MOA"><ellipse cx="209.5" cy="394" fill="#F1F1F1" rx="8" ry="8" style="stroke:#181818;stroke-width:0.5;"/><path d="M209.5,402 L209.5,429 M196.5,410 L222.5,410 M209.5,429 L196.5,444 M209.5,429 L222.5,444 " fill="none" style="stroke:#181818;stroke-width:0.5;"/><text fill="#000000" font-family="sans-serif" font-size="14" lengthAdjust="spacing" textLength="31" x="194" y="460.6074">MOA</text></g><!--entity MOE--><g id="elem_MOE"><ellipse cx="209.5" cy="620" fill="#F1F1F1" rx="8" ry="8" style="stroke:#181818;stroke-width:0.5;"/><path d="M209.5,628 L209.5,655 M196.5,636 L222.5,636 M209.5,655 L196.5,670 M209.5,655 L222.5,670 " fill="none" style="stroke:#181818;stroke-width:0.5;"/><text fill="#000000" font-family="sans-serif" font-size="14" lengthAdjust="spacing" textLength="31" x="194" y="686.6074">MOE</text></g><g id="elem_bug"><ellipse cx="76.4347" cy="222.0022" fill="#F1F1F1" rx="70.4347" ry="16.5022" style="stroke:#181818;stroke-width:0.5;"/><text fill="#000000" font-family="sans-serif" font-size="14" lengthAdjust="spacing" textLength="81" x="32.9347" y="226.8059">Ticket OTRS</text></g><g id="elem_enh"><ellipse cx="209.476" cy="827.9557" fill="#F1F1F1" rx="62.976" ry="16.4557" style="stroke:#181818;stroke-width:0.5;"/><text fill="#000000" font-family="sans-serif" font-size="14" lengthAdjust="spacing" textLength="71" x="170.976" y="832.7594">issue gitlab</text></g><!--entity Observateur--><g id="elem_Observateur"><ellipse cx="210.5" cy="14" fill="#F1F1F1" rx="8" ry="8" style="stroke:#181818;stroke-width:0.5;"/><path d="M210.5,22 L210.5,49 M197.5,30 L223.5,30 M210.5,49 L197.5,64 M210.5,49 L223.5,64 " fill="none" style="stroke:#181818;stroke-width:0.5;"/><text fill="#000000" font-family="sans-serif" font-size="14" lengthAdjust="spacing" textLength="79" x="171" y="80.6074">Observateur</text></g><g id="elem_GMN10"><path d="M182,208.5 L182,218 L147.12,222 L182,226 L182,235.791 A0,0 0 0 0 182,235.791 L291,235.791 A0,0 0 0 0 291,235.791 L291,218.5 L281,208.5 L182,208.5 A0,0 0 0 0 182,208.5 " fill="#FEFFDD" style="stroke:#181818;stroke-width:0.5;"/><path d="M281,208.5 L281,218.5 L291,218.5 L281,208.5 " fill="#FEFFDD" style="stroke:#181818;stroke-width:0.5;"/><text fill="#000000" font-family="sans-serif" font-size="13" lengthAdjust="spacing" textLength="88" x="188" y="227.5283">Assigned MOA</text></g><g id="elem_GMN13"><path d="M260,411.5 L260,421 L225.09,425 L260,429 L260,438.791 A0,0 0 0 0 260,438.791 L387,438.791 A0,0 0 0 0 387,438.791 L387,421.5 L377,411.5 L260,411.5 A0,0 0 0 0 260,411.5 " fill="#FEFFDD" style="stroke:#181818;stroke-width:0.5;"/><path d="M377,411.5 L377,421.5 L387,421.5 L377,411.5 " fill="#FEFFDD" style="stroke:#181818;stroke-width:0.5;"/><text fill="#000000" font-family="sans-serif" font-size="13" lengthAdjust="spacing" textLength="106" x="266" y="430.5283">1 - Ticket analysis</text></g><g id="elem_GMN16"><path d="M260.5,637.5 L260.5,647 L225.2,651 L260.5,655 L260.5,664.791 A0,0 0 0 0 260.5,664.791 L426.5,664.791 A0,0 0 0 0 426.5,664.791 L426.5,647.5 L416.5,637.5 L260.5,637.5 A0,0 0 0 0 260.5,637.5 " fill="#FEFFDD" style="stroke:#181818;stroke-width:0.5;"/><path d="M416.5,637.5 L416.5,647.5 L426.5,647.5 L416.5,637.5 " fill="#FEFFDD" style="stroke:#181818;stroke-width:0.5;"/><text fill="#000000" font-family="sans-serif" font-size="13" lengthAdjust="spacing" textLength="145" x="266.5" y="656.5283">3 - Analyse evolution/bug</text></g><g id="elem_answer"><path d="M231.5,298.5 L231.5,325.791 L387.5,325.791 L387.5,308.5 L377.5,298.5 L231.5,298.5 " fill="#FEFFDD" style="stroke:#181818;stroke-width:0.5;"/><path d="M377.5,298.5 L377.5,308.5 L387.5,308.5 L377.5,298.5 " fill="#FEFFDD" style="stroke:#181818;stroke-width:1.0;"/><text fill="#000000" font-family="sans-serif" font-size="13" lengthAdjust="spacing" textLength="135" x="237.5" y="317.5283">2 - Answer Observateur</text></g><g id="elem_fix"><path d="M147,524.5 L147,551.791 L272,551.791 L272,534.5 L262,524.5 L147,524.5 " fill="#FEFFDD" style="stroke:#181818;stroke-width:0.5;"/><path d="M262,524.5 L262,534.5 L272,534.5 L262,524.5 " fill="#FEFFDD" style="stroke:#181818;stroke-width:1.0;"/><text fill="#000000" font-family="sans-serif" font-size="13" lengthAdjust="spacing" textLength="104" x="153" y="543.5283">Fix or enh needed</text></g><!--link Observateur to bug--><g id="link_Observateur_bug"><path d="M180.76,84.84 C151.62,122.9 112.3283,174.2166 91.8483,200.9566 " fill="none" id="Observateur-to-bug" style="stroke:#181818;stroke-width:1.0;"/><polygon fill="#181818" points="88.2,205.72,96.848,201.0071,91.2402,201.7505,90.4968,196.1427,88.2,205.72" style="stroke:#181818;stroke-width:1.0;"/></g><!--link bug to MOA--><g id="link_bug_MOA"><path d="M86.72,238.44 C109.83,273.37 162.959,353.6663 190.519,395.3163 " fill="none" id="bug-to-MOA" style="stroke:#181818;stroke-width:1.0;"/><polygon fill="#181818" points="193.83,400.32,192.1993,390.6071,191.0708,396.1502,185.5277,395.0217,193.83,400.32" style="stroke:#181818;stroke-width:1.0;"/></g><!--link MOE to enh--><g id="link_MOE_enh"><path d="M209.5,690.84 C209.5,728.7 209.5,778.39 209.5,805.3 " fill="none" id="MOE-to-enh" style="stroke:#181818;stroke-width:1.0;"/><polygon fill="#181818" points="209.5,811.3,213.5,802.3,209.5,806.3,205.5,802.3,209.5,811.3" style="stroke:#181818;stroke-width:1.0;"/></g><!--link Observateur to answer--><g id="link_Observateur_answer"><path d="M242.69,84.73 C265.96,115.37 295.51,160.37 308.5,205.5 C317.82,237.89 314.26,278.22 311.52,298.34 " fill="none" id="Observateur-answer" style="stroke:#181818;stroke-width:1.0;stroke-dasharray:7.0,7.0;"/></g><!--link answer to MOA--><g id="link_answer_MOA"><path d="M297.49,325.7 C283.97,340.07 261.42,364.25 242.5,385.5 C236.76,391.94 230.58,399.1 225.14,405.47 " fill="none" id="answer-MOA" style="stroke:#181818;stroke-width:1.0;stroke-dasharray:7.0,7.0;"/></g><!--link MOA to fix--><g id="link_MOA_fix"><path d="M209.5,464.51 C209.5,485.42 209.5,509.9 209.5,524.39 " fill="none" id="MOA-fix" style="stroke:#181818;stroke-width:1.0;stroke-dasharray:7.0,7.0;"/></g><!--link fix to MOE--><g id="link_fix_MOE"><path d="M209.5,551.73 C209.5,566.2 209.5,590.49 209.5,611.31 " fill="none" id="fix-MOE" style="stroke:#181818;stroke-width:1.0;stroke-dasharray:7.0,7.0;"/></g><!--SRC=[POyzJiGm44RxESKeLL9u4T2bG4eHkbKas0iuoMnsH6GZ_uH5Y0Dn3Yx6s0bI14Kqyilxx6_gOzVKg3tAXFhOjTkX1N0q16sccR1xZLurG-25m_SNVi0dG7dYuOK2TgUdvofboZvE5PJiVIISECowNpcPImNGzPxSeWD5XqgfXys7F3OY7OGO6mWTJvU0zepo6sjilEV9q9Xh_Z44YN6B2hTAskZvtRF_BxOYtelOP8EG5Zl7mDRSo3C0ILYRh9rplBZB0Vz63dTB56atdJ6KErxXuV3Brv70VhNYaQze7SeRQ8X66lDTPxv2rfAV3l9jqLQYFm00]--></g></svg>