<?xml version="1.0" encoding="UTF-8" standalone="no"?><svg xmlns="http://www.w3.org/2000/svg" xmlns:xlink="http://www.w3.org/1999/xlink" contentStyleType="text/css" height="427px" preserveAspectRatio="none" style="width:1630px;height:427px;background:#FFFFFF;" version="1.1" viewBox="0 0 1630 427" width="1630px" zoomAndPan="magnify"><defs/><g><!--MD5=[18adaff280d038ad130edec3ebc63bda]
class ExtractionCategoryEnum--><g id="elem_ExtractionCategoryEnum"><rect codeLine="3" fill="#F1F1F1" height="72.5938" id="ExtractionCategoryEnum" rx="2.5" ry="2.5" style="stroke:#181818;stroke-width:0.5;" width="202" x="258" y="31"/><ellipse cx="273" cy="47" fill="#EB937F" rx="11" ry="11" style="stroke:#181818;stroke-width:1.0;"/><path d="M277.1094,53 L269.3906,53 L269.3906,40.6094 L277.1094,40.6094 L277.1094,42.7656 L271.8438,42.7656 L271.8438,45.4375 L276.6094,45.4375 L276.6094,47.5938 L271.8438,47.5938 L271.8438,50.8438 L277.1094,50.8438 L277.1094,53 Z " fill="#000000"/><text fill="#000000" font-family="sans-serif" font-size="14" lengthAdjust="spacing" textLength="170" x="287" y="51.8467">ExtractionCategoryEnum</text><line style="stroke:#181818;stroke-width:0.5;" x1="259" x2="459" y1="63" y2="63"/><text fill="#000000" font-family="sans-serif" font-size="14" lengthAdjust="spacing" textLength="28" x="264" y="79.9951">LIVE</text><text fill="#000000" font-family="sans-serif" font-size="14" lengthAdjust="spacing" textLength="70" x="264" y="96.292">PRODUCT</text></g><!--MD5=[604bf7b0e5ef44a4b400b2df80498890]
class LiveExtractionTypeEnum--><g id="elem_LiveExtractionTypeEnum"><rect codeLine="7" fill="#F1F1F1" height="137.7813" id="LiveExtractionTypeEnum" rx="2.5" ry="2.5" style="stroke:#181818;stroke-width:0.5;" width="200" x="7" y="189"/><ellipse cx="22" cy="205" fill="#EB937F" rx="11" ry="11" style="stroke:#181818;stroke-width:1.0;"/><path d="M26.1094,211 L18.3906,211 L18.3906,198.6094 L26.1094,198.6094 L26.1094,200.7656 L20.8438,200.7656 L20.8438,203.4375 L25.6094,203.4375 L25.6094,205.5938 L20.8438,205.5938 L20.8438,208.8438 L26.1094,208.8438 L26.1094,211 Z " fill="#000000"/><text fill="#000000" font-family="sans-serif" font-size="14" lengthAdjust="spacing" textLength="168" x="36" y="209.8467">LiveExtractionTypeEnum</text><line style="stroke:#181818;stroke-width:0.5;" x1="8" x2="206" y1="221" y2="221"/><text fill="#000000" font-family="sans-serif" font-size="14" lengthAdjust="spacing" textLength="31" x="13" y="237.9951">RDB</text><text fill="#000000" font-family="sans-serif" font-size="14" lengthAdjust="spacing" textLength="39" x="13" y="254.292">COST</text><text fill="#000000" font-family="sans-serif" font-size="14" lengthAdjust="spacing" textLength="45" x="13" y="270.5889">FREE1</text><text fill="#000000" font-family="sans-serif" font-size="14" lengthAdjust="spacing" textLength="45" x="13" y="286.8857">FREE2</text><text fill="#000000" font-family="sans-serif" font-size="14" lengthAdjust="spacing" textLength="79" x="13" y="303.1826">PMFM_TRIP</text><text fill="#000000" font-family="sans-serif" font-size="14" lengthAdjust="spacing" textLength="46" x="13" y="319.4795">STRAT</text></g><!--MD5=[ea58218b0064b413ce3b45fa2371acf3]
class IExtractionType--><g id="elem_IExtractionType"><rect codeLine="22" fill="#F1F1F1" height="121.4844" id="IExtractionType" rx="2.5" ry="2.5" style="stroke:#181818;stroke-width:0.5;" width="146" x="553" y="7"/><ellipse cx="570.7" cy="23" fill="#B4A7E5" rx="11" ry="11" style="stroke:#181818;stroke-width:1.0;"/><path d="M566.6219,18.7656 L566.6219,16.6094 L574.0125,16.6094 L574.0125,18.7656 L571.5438,18.7656 L571.5438,26.8438 L574.0125,26.8438 L574.0125,29 L566.6219,29 L566.6219,26.8438 L569.0906,26.8438 L569.0906,18.7656 L566.6219,18.7656 Z " fill="#000000"/><text fill="#000000" font-family="sans-serif" font-size="14" font-style="italic" lengthAdjust="spacing" textLength="108" x="585.3" y="27.8467">IExtractionType</text><line style="stroke:#181818;stroke-width:0.5;" x1="554" x2="698" y1="39" y2="39"/><ellipse cx="564" cy="52.6484" fill="none" rx="3" ry="3" style="stroke:#038048;stroke-width:1.0;"/><text fill="#000000" font-family="sans-serif" font-size="14" lengthAdjust="spacing" textLength="78" x="573" y="55.9951">id: int [0..1]</text><ellipse cx="564" cy="68.9453" fill="none" rx="3" ry="3" style="stroke:#038048;stroke-width:1.0;"/><text fill="#000000" font-family="sans-serif" font-size="14" lengthAdjust="spacing" textLength="120" x="573" y="72.292">label: string [0..1]</text><ellipse cx="564" cy="85.2422" fill="none" rx="3" ry="3" style="stroke:#038048;stroke-width:1.0;"/><text fill="#000000" font-family="sans-serif" font-size="14" lengthAdjust="spacing" textLength="92" x="573" y="88.5889">format: string</text><ellipse cx="564" cy="101.5391" fill="none" rx="3" ry="3" style="stroke:#038048;stroke-width:1.0;"/><text fill="#000000" font-family="sans-serif" font-size="14" lengthAdjust="spacing" textLength="98" x="573" y="104.8857">version: string</text><ellipse cx="564" cy="117.8359" fill="none" rx="3" ry="3" style="stroke:#038048;stroke-width:1.0;"/><text fill="#000000" font-family="sans-serif" font-size="14" lengthAdjust="spacing" textLength="83" x="573" y="121.1826">parentId: int</text></g><!--MD5=[9ec4726dc94bd0b201d815b1373000f7]
class AggExtractionTypeEnum--><g id="elem_AggExtractionTypeEnum"><rect codeLine="16" fill="#F1F1F1" height="56.2969" id="AggExtractionTypeEnum" rx="2.5" ry="2.5" style="stroke:#181818;stroke-width:0.5;" width="201" x="312.5" y="230"/><ellipse cx="327.5" cy="246" fill="#EB937F" rx="11" ry="11" style="stroke:#181818;stroke-width:1.0;"/><path d="M331.6094,252 L323.8906,252 L323.8906,239.6094 L331.6094,239.6094 L331.6094,241.7656 L326.3438,241.7656 L326.3438,244.4375 L331.1094,244.4375 L331.1094,246.5938 L326.3438,246.5938 L326.3438,249.8438 L331.6094,249.8438 L331.6094,252 Z " fill="#000000"/><text fill="#000000" font-family="sans-serif" font-size="14" lengthAdjust="spacing" textLength="169" x="341.5" y="250.8467">AggExtractionTypeEnum</text><line style="stroke:#181818;stroke-width:0.5;" x1="313.5" x2="512.5" y1="262" y2="262"/><text fill="#000000" font-family="sans-serif" font-size="14" lengthAdjust="spacing" textLength="69" x="318.5" y="278.9951">AGG_RDB</text></g><!--MD5=[a24d24dc0b7a383f13a5d618a8176d71]
class ExtractionTypeVO--><g id="elem_ExtractionTypeVO"><rect codeLine="34" fill="#F1F1F1" height="72.5938" id="ExtractionTypeVO" rx="2.5" ry="2.5" style="stroke:#181818;stroke-width:0.5;" width="154" x="549" y="221.5"/><ellipse cx="564" cy="237.5" fill="#ADD1B2" rx="11" ry="11" style="stroke:#181818;stroke-width:1.0;"/><path d="M566.9688,243.1406 Q566.3906,243.4375 565.75,243.5781 Q565.1094,243.7344 564.4063,243.7344 Q561.9063,243.7344 560.5781,242.0938 Q559.2656,240.4375 559.2656,237.3125 Q559.2656,234.1875 560.5781,232.5313 Q561.9063,230.875 564.4063,230.875 Q565.1094,230.875 565.75,231.0313 Q566.4063,231.1875 566.9688,231.4844 L566.9688,234.2031 Q566.3438,233.625 565.75,233.3594 Q565.1563,233.0781 564.5313,233.0781 Q563.1875,233.0781 562.5,234.1563 Q561.8125,235.2188 561.8125,237.3125 Q561.8125,239.4063 562.5,240.4844 Q563.1875,241.5469 564.5313,241.5469 Q565.1563,241.5469 565.75,241.2813 Q566.3438,241 566.9688,240.4219 L566.9688,243.1406 Z " fill="#000000"/><text fill="#000000" font-family="sans-serif" font-size="14" lengthAdjust="spacing" textLength="122" x="578" y="242.3467">ExtractionTypeVO</text><line style="stroke:#181818;stroke-width:0.5;" x1="550" x2="702" y1="253.5" y2="253.5"/><ellipse cx="560" cy="267.1484" fill="none" rx="3" ry="3" style="stroke:#038048;stroke-width:1.0;"/><text fill="#000000" font-family="sans-serif" font-size="14" lengthAdjust="spacing" textLength="124" x="569" y="270.4951">updateDate: Date</text><ellipse cx="560" cy="283.4453" fill="none" rx="3" ry="3" style="stroke:#038048;stroke-width:1.0;"/><text fill="#000000" font-family="sans-serif" font-size="14" lengthAdjust="spacing" textLength="83" x="569" y="286.792">parentId: int</text></g><!--MD5=[6700eae554e9de9170aa14431b858e00]
class ExtractionProductVO--><g id="elem_ExtractionProductVO"><rect codeLine="39" fill="#F1F1F1" height="72.5938" id="ExtractionProductVO" rx="2.5" ry="2.5" style="stroke:#181818;stroke-width:0.5;" width="174" x="738" y="221.5"/><ellipse cx="753" cy="237.5" fill="#ADD1B2" rx="11" ry="11" style="stroke:#181818;stroke-width:1.0;"/><path d="M755.9688,243.1406 Q755.3906,243.4375 754.75,243.5781 Q754.1094,243.7344 753.4063,243.7344 Q750.9063,243.7344 749.5781,242.0938 Q748.2656,240.4375 748.2656,237.3125 Q748.2656,234.1875 749.5781,232.5313 Q750.9063,230.875 753.4063,230.875 Q754.1094,230.875 754.75,231.0313 Q755.4063,231.1875 755.9688,231.4844 L755.9688,234.2031 Q755.3438,233.625 754.75,233.3594 Q754.1563,233.0781 753.5313,233.0781 Q752.1875,233.0781 751.5,234.1563 Q750.8125,235.2188 750.8125,237.3125 Q750.8125,239.4063 751.5,240.4844 Q752.1875,241.5469 753.5313,241.5469 Q754.1563,241.5469 754.75,241.2813 Q755.3438,241 755.9688,240.4219 L755.9688,243.1406 Z " fill="#000000"/><text fill="#000000" font-family="sans-serif" font-size="14" lengthAdjust="spacing" textLength="142" x="767" y="242.3467">ExtractionProductVO</text><line style="stroke:#181818;stroke-width:0.5;" x1="739" x2="911" y1="253.5" y2="253.5"/><ellipse cx="749" cy="267.1484" fill="none" rx="3" ry="3" style="stroke:#038048;stroke-width:1.0;"/><text fill="#000000" font-family="sans-serif" font-size="14" lengthAdjust="spacing" textLength="124" x="758" y="270.4951">updateDate: Date</text><ellipse cx="749" cy="283.4453" fill="none" rx="3" ry="3" style="stroke:#038048;stroke-width:1.0;"/><text fill="#000000" font-family="sans-serif" font-size="14" lengthAdjust="spacing" textLength="83" x="758" y="286.792">parentId: int</text></g><!--MD5=[16f904edaa4bd051cf28f16fce2b29a4]
class ExtractionContextVO--><g id="elem_ExtractionContextVO"><rect codeLine="44" fill="#F1F1F1" height="32" id="ExtractionContextVO" rx="2.5" ry="2.5" style="stroke:#181818;stroke-width:0.5;" width="174" x="947" y="242"/><ellipse cx="962" cy="258" fill="#ADD1B2" rx="11" ry="11" style="stroke:#181818;stroke-width:1.0;"/><path d="M964.9688,263.6406 Q964.3906,263.9375 963.75,264.0781 Q963.1094,264.2344 962.4063,264.2344 Q959.9063,264.2344 958.5781,262.5938 Q957.2656,260.9375 957.2656,257.8125 Q957.2656,254.6875 958.5781,253.0313 Q959.9063,251.375 962.4063,251.375 Q963.1094,251.375 963.75,251.5313 Q964.4063,251.6875 964.9688,251.9844 L964.9688,254.7031 Q964.3438,254.125 963.75,253.8594 Q963.1563,253.5781 962.5313,253.5781 Q961.1875,253.5781 960.5,254.6563 Q959.8125,255.7188 959.8125,257.8125 Q959.8125,259.9063 960.5,260.9844 Q961.1875,262.0469 962.5313,262.0469 Q963.1563,262.0469 963.75,261.7813 Q964.3438,261.5 964.9688,260.9219 L964.9688,263.6406 Z " fill="#000000"/><text fill="#000000" font-family="sans-serif" font-size="14" lengthAdjust="spacing" textLength="142" x="976" y="262.8467">ExtractionContextVO</text></g><!--MD5=[f6eebaa04df540dec910de6056160fb2]
class AggregationContextVO--><g id="elem_AggregationContextVO"><rect codeLine="47" fill="#F1F1F1" height="32" id="AggregationContextVO" rx="2.5" ry="2.5" style="stroke:#181818;stroke-width:0.5;" width="190" x="939" y="388"/><ellipse cx="954" cy="404" fill="#ADD1B2" rx="11" ry="11" style="stroke:#181818;stroke-width:1.0;"/><path d="M956.9688,409.6406 Q956.3906,409.9375 955.75,410.0781 Q955.1094,410.2344 954.4063,410.2344 Q951.9063,410.2344 950.5781,408.5938 Q949.2656,406.9375 949.2656,403.8125 Q949.2656,400.6875 950.5781,399.0313 Q951.9063,397.375 954.4063,397.375 Q955.1094,397.375 955.75,397.5313 Q956.4063,397.6875 956.9688,397.9844 L956.9688,400.7031 Q956.3438,400.125 955.75,399.8594 Q955.1563,399.5781 954.5313,399.5781 Q953.1875,399.5781 952.5,400.6563 Q951.8125,401.7188 951.8125,403.8125 Q951.8125,405.9063 952.5,406.9844 Q953.1875,408.0469 954.5313,408.0469 Q955.1563,408.0469 955.75,407.7813 Q956.3438,407.5 956.9688,406.9219 L956.9688,409.6406 Z " fill="#000000"/><text fill="#000000" font-family="sans-serif" font-size="14" lengthAdjust="spacing" textLength="158" x="968" y="408.8467">AggregationContextVO</text></g><!--MD5=[c85e92b7371c467ebf8072d54dc71c4c]
class ExtractionManager--><g id="elem_ExtractionManager"><rect codeLine="50" fill="#F1F1F1" height="72.5938" id="ExtractionManager" rx="2.5" ry="2.5" style="stroke:#181818;stroke-width:0.5;" width="817" x="806.5" y="31"/><ellipse cx="1146.75" cy="47" fill="#ADD1B2" rx="11" ry="11" style="stroke:#181818;stroke-width:1.0;"/><path d="M1149.7188,52.6406 Q1149.1406,52.9375 1148.5,53.0781 Q1147.8594,53.2344 1147.1563,53.2344 Q1144.6563,53.2344 1143.3281,51.5938 Q1142.0156,49.9375 1142.0156,46.8125 Q1142.0156,43.6875 1143.3281,42.0313 Q1144.6563,40.375 1147.1563,40.375 Q1147.8594,40.375 1148.5,40.5313 Q1149.1563,40.6875 1149.7188,40.9844 L1149.7188,43.7031 Q1149.0938,43.125 1148.5,42.8594 Q1147.9063,42.5781 1147.2813,42.5781 Q1145.9375,42.5781 1145.25,43.6563 Q1144.5625,44.7188 1144.5625,46.8125 Q1144.5625,48.9063 1145.25,49.9844 Q1145.9375,51.0469 1147.2813,51.0469 Q1147.9063,51.0469 1148.5,50.7813 Q1149.0938,50.5 1149.7188,49.9219 L1149.7188,52.6406 Z " fill="#000000"/><text fill="#000000" font-family="sans-serif" font-size="14" lengthAdjust="spacing" textLength="128" x="1167.25" y="51.8467">ExtractionManager</text><line style="stroke:#181818;stroke-width:0.5;" x1="807.5" x2="1622.5" y1="63" y2="63"/><ellipse cx="817.5" cy="76.6484" fill="#84BE84" rx="3" ry="3" style="stroke:#038048;stroke-width:1.0;"/><text fill="#000000" font-family="sans-serif" font-size="14" lengthAdjust="spacing" textLength="528" x="826.5" y="79.9951">execute(type: IExtractionType, filter: ExtractionFilterVO): ExtractionContextVO</text><ellipse cx="817.5" cy="92.9453" fill="#84BE84" rx="3" ry="3" style="stroke:#038048;stroke-width:1.0;"/><text fill="#000000" font-family="sans-serif" font-size="14" lengthAdjust="spacing" textLength="791" x="826.5" y="96.292">executeAndRead(type: IExtractionType, filter: ExtractionFilterVO, strata: AggregationStrataVO): ExtractionContextVO</text></g><!--MD5=[94b6550a1eedd793172d0b1b7d38da5a]
reverse link IExtractionType to LiveExtractionTypeEnum--><g id="link_IExtractionType_LiveExtractionTypeEnum"><path d="M534.36,106.34 C515.79,113.73 496.33,121.27 478,128 C397.52,157.56 375.98,160.86 295,189 C266.48,198.91 235.63,209.94 207.33,220.18 " fill="none" id="IExtractionType-backto-LiveExtractionTypeEnum" style="stroke:#181818;stroke-width:1.0;stroke-dasharray:7.0,7.0;"/><polygon fill="none" points="531.77,99.84,552.94,98.89,536.99,112.83,531.77,99.84" style="stroke:#181818;stroke-width:1.0;"/></g><!--MD5=[aca87c184ce0df70db156e51754e084d]
reverse link IExtractionType to AggExtractionTypeEnum--><g id="link_IExtractionType_AggExtractionTypeEnum"><path d="M543.37,141.63 C508.39,172.58 469.8,206.73 443.74,229.79 " fill="none" id="IExtractionType-backto-AggExtractionTypeEnum" style="stroke:#181818;stroke-width:1.0;stroke-dasharray:7.0,7.0;"/><polygon fill="none" points="538.99,136.16,558.61,128.14,548.27,146.64,538.99,136.16" style="stroke:#181818;stroke-width:1.0;"/></g><!--MD5=[1565040d66494889b80f6af2d5c98f62]
reverse link LiveExtractionTypeEnum to AggExtractionTypeEnum--><g id="link_LiveExtractionTypeEnum_AggExtractionTypeEnum"><path codeLine="20" d="M212.36,258 C244.74,258 280.27,258 312.32,258 " fill="none" id="LiveExtractionTypeEnum-backto-AggExtractionTypeEnum" style="stroke:#181818;stroke-width:1.0;stroke-dasharray:7.0,7.0;"/><polygon fill="#181818" points="207.2,258,216.2,262,212.2,258,216.2,254,207.2,258" style="stroke:#181818;stroke-width:1.0;"/><text fill="#000000" font-family="sans-serif" font-size="13" lengthAdjust="spacing" textLength="69" x="225.25" y="251.0669">has parent</text></g><!--MD5=[c5989cfa0e73de214c8215b17fa64be7]
reverse link ExtractionCategoryEnum to IExtractionType--><g id="link_ExtractionCategoryEnum_IExtractionType"><path codeLine="30" d="M465.4,67.5 C494.78,67.5 525.98,67.5 553,67.5 " fill="none" id="ExtractionCategoryEnum-backto-IExtractionType" style="stroke:#181818;stroke-width:1.0;"/><polygon fill="#181818" points="460.32,67.5,469.32,71.5,465.32,67.5,469.32,63.5,460.32,67.5" style="stroke:#181818;stroke-width:1.0;"/><text fill="#000000" font-family="sans-serif" font-size="13" lengthAdjust="spacing" textLength="56" x="478.5" y="60.5669">category</text><text fill="#000000" font-family="sans-serif" font-size="13" lengthAdjust="spacing" textLength="8" x="468.0544" y="64.0359">1</text></g><!--MD5=[00e42c16a92d0802fed9b4f38da47eb7]
reverse link IExtractionType to IExtractionType--><g id="link_IExtractionType_IExtractionType"><path codeLine="32" d="M704.62,51.12 C721.65,52.72 734,58.18 734,67.5 C734,77.78 718.96,83.37 699.19,84.25 " fill="none" id="IExtractionType-backto-IExtractionType" style="stroke:#181818;stroke-width:1.0;"/><polygon fill="#181818" points="699.19,50.75,707.8944,55.358,704.1782,51.093,708.4432,47.3769,699.19,50.75" style="stroke:#181818;stroke-width:1.0;"/><text fill="#000000" font-family="sans-serif" font-size="13" lengthAdjust="spacing" textLength="42" x="740" y="72.0669">parent</text><text fill="#000000" font-family="sans-serif" font-size="13" lengthAdjust="spacing" textLength="24" x="707.0435" y="45.5651">0..1</text></g><!--MD5=[f5e32e68cb8e02fe5cc07620386c46b8]
reverse link IExtractionType to ExtractionTypeVO--><g id="link_IExtractionType_ExtractionTypeVO"><path d="M626,148.51 C626,173.91 626,200.71 626,221.32 " fill="none" id="IExtractionType-backto-ExtractionTypeVO" style="stroke:#181818;stroke-width:1.0;"/><polygon fill="none" points="619,148.14,626,128.14,633,148.14,619,148.14" style="stroke:#181818;stroke-width:1.0;"/></g><!--MD5=[21b8d0e254fd9750a4489ff45633eb78]
reverse link IExtractionType to ExtractionProductVO--><g id="link_IExtractionType_ExtractionProductVO"><path d="M703.71,142.11 C732.45,169.33 763.74,198.97 787.34,221.32 " fill="none" id="IExtractionType-backto-ExtractionProductVO" style="stroke:#181818;stroke-width:1.0;"/><polygon fill="none" points="698.67,146.98,688.96,128.14,708.3,136.81,698.67,146.98" style="stroke:#181818;stroke-width:1.0;"/></g><!--MD5=[b1a91e19af0b0d1bbe8d7bf08e2de65d]
reverse link IExtractionType to ExtractionContextVO--><g id="link_IExtractionType_ExtractionContextVO"><path d="M718.12,102.68 C792.89,130.85 891.92,169.26 930,189 C960.45,204.79 993.2,227.19 1013.64,241.91 " fill="none" id="IExtractionType-backto-ExtractionContextVO" style="stroke:#181818;stroke-width:1.0;"/><polygon fill="none" points="715.47,109.16,699.2,95.57,720.39,96.05,715.47,109.16" style="stroke:#181818;stroke-width:1.0;"/></g><!--MD5=[9f2851d9c9d017f11a92f55e187d198c]
reverse link ExtractionContextVO to AggregationContextVO--><g id="link_ExtractionContextVO_AggregationContextVO"><path d="M1034,294.22 C1034,324.09 1034,365.51 1034,387.63 " fill="none" id="ExtractionContextVO-backto-AggregationContextVO" style="stroke:#181818;stroke-width:1.0;"/><polygon fill="none" points="1027,294.14,1034,274.14,1041,294.14,1027,294.14" style="stroke:#181818;stroke-width:1.0;"/></g></g></svg>