<?xml version="1.0" encoding="us-ascii" standalone="no"?><svg xmlns="http://www.w3.org/2000/svg" xmlns:xlink="http://www.w3.org/1999/xlink" contentStyleType="text/css" height="102px" preserveAspectRatio="none" style="width:769px;height:102px;background:#FFFFFF;" version="1.1" viewBox="0 0 769 102" width="769px" zoomAndPan="magnify"><defs/><g><text fill="#000000" font-family="sans-serif" font-size="12" font-weight="bold" lengthAdjust="spacing" textLength="90" x="7" y="19.9492">Profil utilisateur</text><text fill="#000000" font-family="sans-serif" font-size="12" font-weight="bold" lengthAdjust="spacing" textLength="136" x="171" y="19.9492">Privil&#232;ge de programme</text><text fill="#000000" font-family="sans-serif" font-size="12" font-weight="bold" lengthAdjust="spacing" textLength="71" x="333" y="19.9492">Consultation</text><text fill="#000000" font-family="sans-serif" font-size="12" font-weight="bold" lengthAdjust="spacing" textLength="48" x="406" y="19.9492">Cr&#233;ation</text><text fill="#000000" font-family="sans-serif" font-size="12" font-weight="bold" lengthAdjust="spacing" textLength="69" x="456" y="19.9492">Modification</text><text fill="#000000" font-family="sans-serif" font-size="12" font-weight="bold" lengthAdjust="spacing" textLength="72" x="527" y="19.9492">Suppression</text><text fill="#000000" font-family="sans-serif" font-size="12" font-weight="bold" lengthAdjust="spacing" textLength="56" x="601" y="19.9492">Validation</text><text fill="#000000" font-family="sans-serif" font-size="12" font-weight="bold" lengthAdjust="spacing" textLength="102" x="659" y="19.9492">Acc&#232;s &#224; la pr&#233;doc</text><text fill="#000000" font-family="sans-serif" font-size="12" lengthAdjust="spacing" textLength="162" x="7" y="37.9102">Administrateur de r&#233;f&#233;rentiels</text><text fill="#000000" font-family="sans-serif" font-size="12" lengthAdjust="spacing" textLength="7" x="171" y="37.9102">_</text><text fill="#000000" font-family="sans-serif" font-size="12" lengthAdjust="spacing" textLength="19" x="333" y="37.9102">Oui</text><text fill="#000000" font-family="sans-serif" font-size="12" lengthAdjust="spacing" textLength="19" x="406" y="37.9102">Oui</text><text fill="#000000" font-family="sans-serif" font-size="12" lengthAdjust="spacing" textLength="34" x="456" y="37.9102">Oui(2)</text><text fill="#000000" font-family="sans-serif" font-size="12" lengthAdjust="spacing" textLength="34" x="527" y="37.9102">Oui(2)</text><text fill="#000000" font-family="sans-serif" font-size="12" lengthAdjust="spacing" textLength="19" x="601" y="37.9102">Oui</text><text fill="#000000" font-family="sans-serif" font-size="12" lengthAdjust="spacing" textLength="19" x="659" y="37.9102">Oui</text><text fill="#000000" font-family="sans-serif" font-size="12" lengthAdjust="spacing" textLength="66" x="7" y="55.8711">Superviseur</text><text fill="#000000" font-family="sans-serif" font-size="12" lengthAdjust="spacing" textLength="160" x="171" y="55.8711">Responsable de programme</text><text fill="#000000" font-family="sans-serif" font-size="12" lengthAdjust="spacing" textLength="19" x="333" y="55.8711">Oui</text><text fill="#000000" font-family="sans-serif" font-size="12" lengthAdjust="spacing" textLength="19" x="406" y="55.8711">Oui</text><text fill="#000000" font-family="sans-serif" font-size="12" lengthAdjust="spacing" textLength="34" x="456" y="55.8711">Oui(2)</text><text fill="#000000" font-family="sans-serif" font-size="12" lengthAdjust="spacing" textLength="34" x="527" y="55.8711">Oui(2)</text><text fill="#000000" font-family="sans-serif" font-size="12" lengthAdjust="spacing" textLength="19" x="601" y="55.8711">Oui</text><text fill="#000000" font-family="sans-serif" font-size="12" lengthAdjust="spacing" textLength="19" x="659" y="55.8711">Oui</text><text fill="#000000" font-family="sans-serif" font-size="12" lengthAdjust="spacing" textLength="66" x="7" y="73.832">Superviseur</text><text fill="#000000" font-family="sans-serif" font-size="12" lengthAdjust="spacing" textLength="7" x="171" y="73.832">_</text><text fill="#000000" font-family="sans-serif" font-size="12" lengthAdjust="spacing" textLength="34" x="333" y="73.832">Oui(1)</text><text fill="#000000" font-family="sans-serif" font-size="12" lengthAdjust="spacing" textLength="34" x="406" y="73.832">Oui(1)</text><text fill="#000000" font-family="sans-serif" font-size="12" lengthAdjust="spacing" textLength="49" x="456" y="73.832">Oui(1)(2)</text><text fill="#000000" font-family="sans-serif" font-size="12" lengthAdjust="spacing" textLength="49" x="527" y="73.832">Oui(1)(2)</text><text fill="#000000" font-family="sans-serif" font-size="12" lengthAdjust="spacing" textLength="23" x="601" y="73.832">Non</text><text fill="#000000" font-family="sans-serif" font-size="12" lengthAdjust="spacing" textLength="37" x="659" y="73.832">Oui (1)</text><text fill="#000000" font-family="sans-serif" font-size="12" lengthAdjust="spacing" textLength="67" x="7" y="91.793">Observateur</text><text fill="#000000" font-family="sans-serif" font-size="12" lengthAdjust="spacing" textLength="67" x="171" y="91.793">Observateur</text><text fill="#000000" font-family="sans-serif" font-size="12" lengthAdjust="spacing" textLength="34" x="333" y="91.793">Oui(1)</text><text fill="#000000" font-family="sans-serif" font-size="12" lengthAdjust="spacing" textLength="34" x="406" y="91.793">Oui(1)</text><text fill="#000000" font-family="sans-serif" font-size="12" lengthAdjust="spacing" textLength="49" x="456" y="91.793">Oui(1)(2)</text><text fill="#000000" font-family="sans-serif" font-size="12" lengthAdjust="spacing" textLength="49" x="527" y="91.793">Oui(1)(2)</text><text fill="#000000" font-family="sans-serif" font-size="12" lengthAdjust="spacing" textLength="23" x="601" y="91.793">Non</text><text fill="#000000" font-family="sans-serif" font-size="12" lengthAdjust="spacing" textLength="37" x="659" y="91.793">Oui (1)</text><line style="stroke:#000000;stroke-width:1.0;" x1="6" x2="170" y1="6" y2="6"/><line style="stroke:#000000;stroke-width:1.0;" x1="455" x2="526" y1="77.8438" y2="77.8438"/><line style="stroke:#000000;stroke-width:1.0;" x1="170" x2="332" y1="6" y2="6"/><line style="stroke:#000000;stroke-width:1.0;" x1="526" x2="600" y1="77.8438" y2="77.8438"/><line style="stroke:#000000;stroke-width:1.0;" x1="332" x2="405" y1="6" y2="6"/><line style="stroke:#000000;stroke-width:1.0;" x1="600" x2="658" y1="77.8438" y2="77.8438"/><line style="stroke:#000000;stroke-width:1.0;" x1="405" x2="455" y1="6" y2="6"/><line style="stroke:#000000;stroke-width:1.0;" x1="658" x2="762" y1="77.8438" y2="77.8438"/><line style="stroke:#000000;stroke-width:1.0;" x1="455" x2="526" y1="6" y2="6"/><line style="stroke:#000000;stroke-width:1.0;" x1="526" x2="600" y1="6" y2="6"/><line style="stroke:#000000;stroke-width:1.0;" x1="600" x2="658" y1="6" y2="6"/><line style="stroke:#000000;stroke-width:1.0;" x1="658" x2="762" y1="6" y2="6"/><line style="stroke:#000000;stroke-width:1.0;" x1="6" x2="170" y1="59.8828" y2="59.8828"/><line style="stroke:#000000;stroke-width:1.0;" x1="170" x2="332" y1="59.8828" y2="59.8828"/><line style="stroke:#000000;stroke-width:1.0;" x1="332" x2="405" y1="59.8828" y2="59.8828"/><line style="stroke:#000000;stroke-width:1.0;" x1="405" x2="455" y1="59.8828" y2="59.8828"/><line style="stroke:#000000;stroke-width:1.0;" x1="455" x2="526" y1="59.8828" y2="59.8828"/><line style="stroke:#000000;stroke-width:1.0;" x1="526" x2="600" y1="59.8828" y2="59.8828"/><line style="stroke:#000000;stroke-width:1.0;" x1="600" x2="658" y1="59.8828" y2="59.8828"/><line style="stroke:#000000;stroke-width:1.0;" x1="658" x2="762" y1="59.8828" y2="59.8828"/><line style="stroke:#000000;stroke-width:1.0;" x1="6" x2="170" y1="41.9219" y2="41.9219"/><line style="stroke:#000000;stroke-width:1.0;" x1="170" x2="332" y1="41.9219" y2="41.9219"/><line style="stroke:#000000;stroke-width:1.0;" x1="332" x2="405" y1="41.9219" y2="41.9219"/><line style="stroke:#000000;stroke-width:1.0;" x1="405" x2="455" y1="41.9219" y2="41.9219"/><line style="stroke:#000000;stroke-width:1.0;" x1="455" x2="526" y1="41.9219" y2="41.9219"/><line style="stroke:#000000;stroke-width:1.0;" x1="526" x2="600" y1="41.9219" y2="41.9219"/><line style="stroke:#000000;stroke-width:1.0;" x1="600" x2="658" y1="41.9219" y2="41.9219"/><line style="stroke:#000000;stroke-width:1.0;" x1="658" x2="762" y1="41.9219" y2="41.9219"/><line style="stroke:#000000;stroke-width:1.0;" x1="6" x2="170" y1="95.8047" y2="95.8047"/><line style="stroke:#000000;stroke-width:1.0;" x1="170" x2="332" y1="95.8047" y2="95.8047"/><line style="stroke:#000000;stroke-width:1.0;" x1="332" x2="405" y1="95.8047" y2="95.8047"/><line style="stroke:#000000;stroke-width:1.0;" x1="405" x2="455" y1="95.8047" y2="95.8047"/><line style="stroke:#000000;stroke-width:1.0;" x1="455" x2="526" y1="95.8047" y2="95.8047"/><line style="stroke:#000000;stroke-width:1.0;" x1="6" x2="170" y1="23.9609" y2="23.9609"/><line style="stroke:#000000;stroke-width:1.0;" x1="526" x2="600" y1="95.8047" y2="95.8047"/><line style="stroke:#000000;stroke-width:1.0;" x1="170" x2="332" y1="23.9609" y2="23.9609"/><line style="stroke:#000000;stroke-width:1.0;" x1="600" x2="658" y1="95.8047" y2="95.8047"/><line style="stroke:#000000;stroke-width:1.0;" x1="332" x2="405" y1="23.9609" y2="23.9609"/><line style="stroke:#000000;stroke-width:1.0;" x1="658" x2="762" y1="95.8047" y2="95.8047"/><line style="stroke:#000000;stroke-width:1.0;" x1="405" x2="455" y1="23.9609" y2="23.9609"/><line style="stroke:#000000;stroke-width:1.0;" x1="455" x2="526" y1="23.9609" y2="23.9609"/><line style="stroke:#000000;stroke-width:1.0;" x1="526" x2="600" y1="23.9609" y2="23.9609"/><line style="stroke:#000000;stroke-width:1.0;" x1="600" x2="658" y1="23.9609" y2="23.9609"/><line style="stroke:#000000;stroke-width:1.0;" x1="658" x2="762" y1="23.9609" y2="23.9609"/><line style="stroke:#000000;stroke-width:1.0;" x1="6" x2="170" y1="77.8438" y2="77.8438"/><line style="stroke:#000000;stroke-width:1.0;" x1="170" x2="332" y1="77.8438" y2="77.8438"/><line style="stroke:#000000;stroke-width:1.0;" x1="332" x2="405" y1="77.8438" y2="77.8438"/><line style="stroke:#000000;stroke-width:1.0;" x1="405" x2="455" y1="77.8438" y2="77.8438"/><line style="stroke:#000000;stroke-width:1.0;" x1="6" x2="6" y1="6" y2="23.9609"/><line style="stroke:#000000;stroke-width:1.0;" x1="455" x2="455" y1="77.8438" y2="95.8047"/><line style="stroke:#000000;stroke-width:1.0;" x1="170" x2="170" y1="6" y2="23.9609"/><line style="stroke:#000000;stroke-width:1.0;" x1="526" x2="526" y1="77.8438" y2="95.8047"/><line style="stroke:#000000;stroke-width:1.0;" x1="332" x2="332" y1="6" y2="23.9609"/><line style="stroke:#000000;stroke-width:1.0;" x1="600" x2="600" y1="77.8438" y2="95.8047"/><line style="stroke:#000000;stroke-width:1.0;" x1="405" x2="405" y1="6" y2="23.9609"/><line style="stroke:#000000;stroke-width:1.0;" x1="658" x2="658" y1="77.8438" y2="95.8047"/><line style="stroke:#000000;stroke-width:1.0;" x1="762" x2="762" y1="77.8438" y2="95.8047"/><line style="stroke:#000000;stroke-width:1.0;" x1="455" x2="455" y1="6" y2="23.9609"/><line style="stroke:#000000;stroke-width:1.0;" x1="526" x2="526" y1="6" y2="23.9609"/><line style="stroke:#000000;stroke-width:1.0;" x1="600" x2="600" y1="6" y2="23.9609"/><line style="stroke:#000000;stroke-width:1.0;" x1="658" x2="658" y1="6" y2="23.9609"/><line style="stroke:#000000;stroke-width:1.0;" x1="762" x2="762" y1="6" y2="23.9609"/><line style="stroke:#000000;stroke-width:1.0;" x1="6" x2="6" y1="59.8828" y2="77.8438"/><line style="stroke:#000000;stroke-width:1.0;" x1="170" x2="170" y1="59.8828" y2="77.8438"/><line style="stroke:#000000;stroke-width:1.0;" x1="332" x2="332" y1="59.8828" y2="77.8438"/><line style="stroke:#000000;stroke-width:1.0;" x1="405" x2="405" y1="59.8828" y2="77.8438"/><line style="stroke:#000000;stroke-width:1.0;" x1="455" x2="455" y1="59.8828" y2="77.8438"/><line style="stroke:#000000;stroke-width:1.0;" x1="526" x2="526" y1="59.8828" y2="77.8438"/><line style="stroke:#000000;stroke-width:1.0;" x1="600" x2="600" y1="59.8828" y2="77.8438"/><line style="stroke:#000000;stroke-width:1.0;" x1="658" x2="658" y1="59.8828" y2="77.8438"/><line style="stroke:#000000;stroke-width:1.0;" x1="762" x2="762" y1="59.8828" y2="77.8438"/><line style="stroke:#000000;stroke-width:1.0;" x1="6" x2="6" y1="41.9219" y2="59.8828"/><line style="stroke:#000000;stroke-width:1.0;" x1="170" x2="170" y1="41.9219" y2="59.8828"/><line style="stroke:#000000;stroke-width:1.0;" x1="332" x2="332" y1="41.9219" y2="59.8828"/><line style="stroke:#000000;stroke-width:1.0;" x1="405" x2="405" y1="41.9219" y2="59.8828"/><line style="stroke:#000000;stroke-width:1.0;" x1="455" x2="455" y1="41.9219" y2="59.8828"/><line style="stroke:#000000;stroke-width:1.0;" x1="526" x2="526" y1="41.9219" y2="59.8828"/><line style="stroke:#000000;stroke-width:1.0;" x1="600" x2="600" y1="41.9219" y2="59.8828"/><line style="stroke:#000000;stroke-width:1.0;" x1="658" x2="658" y1="41.9219" y2="59.8828"/><line style="stroke:#000000;stroke-width:1.0;" x1="762" x2="762" y1="41.9219" y2="59.8828"/><line style="stroke:#000000;stroke-width:1.0;" x1="6" x2="6" y1="23.9609" y2="41.9219"/><line style="stroke:#000000;stroke-width:1.0;" x1="170" x2="170" y1="23.9609" y2="41.9219"/><line style="stroke:#000000;stroke-width:1.0;" x1="332" x2="332" y1="23.9609" y2="41.9219"/><line style="stroke:#000000;stroke-width:1.0;" x1="405" x2="405" y1="23.9609" y2="41.9219"/><line style="stroke:#000000;stroke-width:1.0;" x1="455" x2="455" y1="23.9609" y2="41.9219"/><line style="stroke:#000000;stroke-width:1.0;" x1="526" x2="526" y1="23.9609" y2="41.9219"/><line style="stroke:#000000;stroke-width:1.0;" x1="600" x2="600" y1="23.9609" y2="41.9219"/><line style="stroke:#000000;stroke-width:1.0;" x1="658" x2="658" y1="23.9609" y2="41.9219"/><line style="stroke:#000000;stroke-width:1.0;" x1="762" x2="762" y1="23.9609" y2="41.9219"/><line style="stroke:#000000;stroke-width:1.0;" x1="6" x2="6" y1="77.8438" y2="95.8047"/><line style="stroke:#000000;stroke-width:1.0;" x1="170" x2="170" y1="77.8438" y2="95.8047"/><line style="stroke:#000000;stroke-width:1.0;" x1="332" x2="332" y1="77.8438" y2="95.8047"/><line style="stroke:#000000;stroke-width:1.0;" x1="405" x2="405" y1="77.8438" y2="95.8047"/><!--SRC=[fLBBJiCm43pZhrY9Iti0aV0I4KA55f1AGwi2lI8tSQAL73lo8n82_eKZ_Oxy69k6GWJ7HegrEskFPpqxi8uRPxbqx9NjlEuoQBxpvSNCw0mbU8SIBNV26tXhSQnGrf-vW5H0QNHkU568jZZKodhfk4EjlX5Jhpffh5FCCEaW3xuiZR3s1rXmYMbdmsMIr9yMwW-GdEwhLwbEMfMNQO4AhJEjF993rQnU6Q4S2cdf_3FzKu_TjHVs_mJjsdAI764gj6s_Ss5BQealvRzkjs3z5jKB-l-3NvvDVBz-Y8QGe9PkkhH4jp6bcst9_CxUsK2eT3qFR2QvSa_n12fXrlu4- -51UBWV7FPYoaOYWI20u2mA3wBZKnXUFq9JxxFUxMm2LdkJqBCr1k7IDuRssPXN7EQU_2b41DDIgF7eRWF0jQhGQ5MGVsoyY7ytd1pjNQ631-fJ65Z4R2GoJeD69nAQA9L7C2o3y3Xa4wvoptCYpmmRQY8sBn7SpBy0]--></g></svg>