<?xml version="1.0" encoding="us-ascii" standalone="no"?><svg xmlns="http://www.w3.org/2000/svg" xmlns:xlink="http://www.w3.org/1999/xlink" contentStyleType="text/css" height="102px" preserveAspectRatio="none" style="width:857px;height:102px;background:#FFFFFF;" version="1.1" viewBox="0 0 857 102" width="857px" zoomAndPan="magnify"><defs/><g><text fill="#000000" font-family="sans-serif" font-size="12" font-weight="bold" lengthAdjust="spacing" textLength="52" x="237" y="19.9492">Strat&#233;gie</text><text fill="#000000" font-family="sans-serif" font-size="12" font-weight="bold" lengthAdjust="spacing" textLength="113" x="517" y="19.9492">Calendrier d'activit&#233;</text><text fill="#000000" font-family="sans-serif" font-size="12" font-weight="bold" lengthAdjust="spacing" textLength="60" x="172" y="37.9102">Connexion</text><text fill="#000000" font-family="sans-serif" font-size="12" font-weight="bold" lengthAdjust="spacing" textLength="71" x="237" y="37.9102">Consultation</text><text fill="#000000" font-family="sans-serif" font-size="12" font-weight="bold" lengthAdjust="spacing" textLength="48" x="313" y="37.9102">Cr&#233;ation</text><text fill="#000000" font-family="sans-serif" font-size="12" font-weight="bold" lengthAdjust="spacing" textLength="69" x="366" y="37.9102">Modification</text><text fill="#000000" font-family="sans-serif" font-size="12" font-weight="bold" lengthAdjust="spacing" textLength="72" x="440" y="37.9102">Suppression</text><text fill="#000000" font-family="sans-serif" font-size="12" font-weight="bold" lengthAdjust="spacing" textLength="71" x="517" y="37.9102">Consultation</text><text fill="#000000" font-family="sans-serif" font-size="12" font-weight="bold" lengthAdjust="spacing" textLength="48" x="593" y="37.9102">Cr&#233;ation</text><text fill="#000000" font-family="sans-serif" font-size="12" font-weight="bold" lengthAdjust="spacing" textLength="69" x="646" y="37.9102">Modification</text><text fill="#000000" font-family="sans-serif" font-size="12" font-weight="bold" lengthAdjust="spacing" textLength="72" x="720" y="37.9102">Suppression</text><text fill="#000000" font-family="sans-serif" font-size="12" font-weight="bold" lengthAdjust="spacing" textLength="52" x="797" y="37.9102">Validaion</text><text fill="#000000" font-family="sans-serif" font-size="12" lengthAdjust="spacing" textLength="155" x="7" y="55.8711">Administrateur de r&#233;f&#233;rentiel</text><text fill="#000000" font-family="sans-serif" font-size="12" lengthAdjust="spacing" textLength="19" x="169" y="55.8711">Oui</text><text fill="#000000" font-family="sans-serif" font-size="12" lengthAdjust="spacing" textLength="19" x="234" y="55.8711">Oui</text><text fill="#000000" font-family="sans-serif" font-size="12" lengthAdjust="spacing" textLength="19" x="310" y="55.8711">Oui</text><text fill="#000000" font-family="sans-serif" font-size="12" lengthAdjust="spacing" textLength="19" x="363" y="55.8711">Oui</text><text fill="#000000" font-family="sans-serif" font-size="12" lengthAdjust="spacing" textLength="19" x="437" y="55.8711">Oui</text><text fill="#000000" font-family="sans-serif" font-size="12" lengthAdjust="spacing" textLength="19" x="514" y="55.8711">Oui</text><text fill="#000000" font-family="sans-serif" font-size="12" lengthAdjust="spacing" textLength="19" x="590" y="55.8711">Oui</text><text fill="#000000" font-family="sans-serif" font-size="12" lengthAdjust="spacing" textLength="34" x="643" y="55.8711">Oui(2)</text><text fill="#000000" font-family="sans-serif" font-size="12" lengthAdjust="spacing" textLength="34" x="717" y="55.8711">Oui(2)</text><text fill="#000000" font-family="sans-serif" font-size="12" lengthAdjust="spacing" textLength="23" x="794" y="55.8711">Non</text><text fill="#000000" font-family="sans-serif" font-size="12" lengthAdjust="spacing" textLength="160" x="7" y="73.832">Responsable de programme</text><text fill="#000000" font-family="sans-serif" font-size="12" lengthAdjust="spacing" textLength="19" x="169" y="73.832">Oui</text><text fill="#000000" font-family="sans-serif" font-size="12" lengthAdjust="spacing" textLength="19" x="234" y="73.832">Oui</text><text fill="#000000" font-family="sans-serif" font-size="12" lengthAdjust="spacing" textLength="19" x="310" y="73.832">Oui</text><text fill="#000000" font-family="sans-serif" font-size="12" lengthAdjust="spacing" textLength="19" x="363" y="73.832">Oui</text><text fill="#000000" font-family="sans-serif" font-size="12" lengthAdjust="spacing" textLength="19" x="437" y="73.832">Oui</text><text fill="#000000" font-family="sans-serif" font-size="12" lengthAdjust="spacing" textLength="19" x="514" y="73.832">Oui</text><text fill="#000000" font-family="sans-serif" font-size="12" lengthAdjust="spacing" textLength="19" x="590" y="73.832">Oui</text><text fill="#000000" font-family="sans-serif" font-size="12" lengthAdjust="spacing" textLength="34" x="643" y="73.832">Oui(2)</text><text fill="#000000" font-family="sans-serif" font-size="12" lengthAdjust="spacing" textLength="34" x="717" y="73.832">Oui(2)</text><text fill="#000000" font-family="sans-serif" font-size="12" lengthAdjust="spacing" textLength="19" x="794" y="73.832">Oui</text><text fill="#000000" font-family="sans-serif" font-size="12" lengthAdjust="spacing" textLength="67" x="7" y="91.793">Observateur</text><text fill="#000000" font-family="sans-serif" font-size="12" lengthAdjust="spacing" textLength="19" x="169" y="91.793">Oui</text><text fill="#000000" font-family="sans-serif" font-size="12" lengthAdjust="spacing" textLength="23" x="234" y="91.793">Non</text><text fill="#000000" font-family="sans-serif" font-size="12" lengthAdjust="spacing" textLength="23" x="310" y="91.793">Non</text><text fill="#000000" font-family="sans-serif" font-size="12" lengthAdjust="spacing" textLength="23" x="363" y="91.793">Non</text><text fill="#000000" font-family="sans-serif" font-size="12" lengthAdjust="spacing" textLength="23" x="437" y="91.793">Non</text><text fill="#000000" font-family="sans-serif" font-size="12" lengthAdjust="spacing" textLength="34" x="514" y="91.793">Oui(1)</text><text fill="#000000" font-family="sans-serif" font-size="12" lengthAdjust="spacing" textLength="19" x="590" y="91.793">Oui</text><text fill="#000000" font-family="sans-serif" font-size="12" lengthAdjust="spacing" textLength="49" x="643" y="91.793">Oui(1)(2)</text><text fill="#000000" font-family="sans-serif" font-size="12" lengthAdjust="spacing" textLength="49" x="717" y="91.793">Oui(1)(2)</text><text fill="#000000" font-family="sans-serif" font-size="12" lengthAdjust="spacing" textLength="23" x="794" y="91.793">Non</text><line style="stroke:#000000;stroke-width:1.0;" x1="6" x2="168" y1="6" y2="6"/><line style="stroke:#000000;stroke-width:1.0;" x1="168" x2="233" y1="6" y2="6"/><line style="stroke:#000000;stroke-width:1.0;" x1="233" x2="309" y1="6" y2="6"/><line style="stroke:#000000;stroke-width:1.0;" x1="309" x2="362" y1="6" y2="6"/><line style="stroke:#000000;stroke-width:1.0;" x1="362" x2="436" y1="6" y2="6"/><line style="stroke:#000000;stroke-width:1.0;" x1="436" x2="513" y1="6" y2="6"/><line style="stroke:#000000;stroke-width:1.0;" x1="513" x2="589" y1="6" y2="6"/><line style="stroke:#000000;stroke-width:1.0;" x1="589" x2="642" y1="6" y2="6"/><line style="stroke:#000000;stroke-width:1.0;" x1="642" x2="716" y1="6" y2="6"/><line style="stroke:#000000;stroke-width:1.0;" x1="716" x2="793" y1="6" y2="6"/><line style="stroke:#000000;stroke-width:1.0;" x1="793" x2="850" y1="6" y2="6"/><line style="stroke:#000000;stroke-width:1.0;" x1="6" x2="168" y1="59.8828" y2="59.8828"/><line style="stroke:#000000;stroke-width:1.0;" x1="168" x2="233" y1="59.8828" y2="59.8828"/><line style="stroke:#000000;stroke-width:1.0;" x1="233" x2="309" y1="59.8828" y2="59.8828"/><line style="stroke:#000000;stroke-width:1.0;" x1="309" x2="362" y1="59.8828" y2="59.8828"/><line style="stroke:#000000;stroke-width:1.0;" x1="362" x2="436" y1="59.8828" y2="59.8828"/><line style="stroke:#000000;stroke-width:1.0;" x1="436" x2="513" y1="59.8828" y2="59.8828"/><line style="stroke:#000000;stroke-width:1.0;" x1="513" x2="589" y1="59.8828" y2="59.8828"/><line style="stroke:#000000;stroke-width:1.0;" x1="589" x2="642" y1="59.8828" y2="59.8828"/><line style="stroke:#000000;stroke-width:1.0;" x1="642" x2="716" y1="59.8828" y2="59.8828"/><line style="stroke:#000000;stroke-width:1.0;" x1="716" x2="793" y1="59.8828" y2="59.8828"/><line style="stroke:#000000;stroke-width:1.0;" x1="793" x2="850" y1="59.8828" y2="59.8828"/><line style="stroke:#000000;stroke-width:1.0;" x1="6" x2="168" y1="23.9609" y2="23.9609"/><line style="stroke:#000000;stroke-width:1.0;" x1="168" x2="233" y1="23.9609" y2="23.9609"/><line style="stroke:#000000;stroke-width:1.0;" x1="233" x2="309" y1="23.9609" y2="23.9609"/><line style="stroke:#000000;stroke-width:1.0;" x1="309" x2="362" y1="23.9609" y2="23.9609"/><line style="stroke:#000000;stroke-width:1.0;" x1="362" x2="436" y1="23.9609" y2="23.9609"/><line style="stroke:#000000;stroke-width:1.0;" x1="436" x2="513" y1="23.9609" y2="23.9609"/><line style="stroke:#000000;stroke-width:1.0;" x1="513" x2="589" y1="23.9609" y2="23.9609"/><line style="stroke:#000000;stroke-width:1.0;" x1="589" x2="642" y1="23.9609" y2="23.9609"/><line style="stroke:#000000;stroke-width:1.0;" x1="642" x2="716" y1="23.9609" y2="23.9609"/><line style="stroke:#000000;stroke-width:1.0;" x1="716" x2="793" y1="23.9609" y2="23.9609"/><line style="stroke:#000000;stroke-width:1.0;" x1="793" x2="850" y1="23.9609" y2="23.9609"/><line style="stroke:#000000;stroke-width:1.0;" x1="6" x2="168" y1="77.8438" y2="77.8438"/><line style="stroke:#000000;stroke-width:1.0;" x1="168" x2="233" y1="77.8438" y2="77.8438"/><line style="stroke:#000000;stroke-width:1.0;" x1="233" x2="309" y1="77.8438" y2="77.8438"/><line style="stroke:#000000;stroke-width:1.0;" x1="309" x2="362" y1="77.8438" y2="77.8438"/><line style="stroke:#000000;stroke-width:1.0;" x1="362" x2="436" y1="77.8438" y2="77.8438"/><line style="stroke:#000000;stroke-width:1.0;" x1="436" x2="513" y1="77.8438" y2="77.8438"/><line style="stroke:#000000;stroke-width:1.0;" x1="513" x2="589" y1="77.8438" y2="77.8438"/><line style="stroke:#000000;stroke-width:1.0;" x1="589" x2="642" y1="77.8438" y2="77.8438"/><line style="stroke:#000000;stroke-width:1.0;" x1="642" x2="716" y1="77.8438" y2="77.8438"/><line style="stroke:#000000;stroke-width:1.0;" x1="716" x2="793" y1="77.8438" y2="77.8438"/><line style="stroke:#000000;stroke-width:1.0;" x1="793" x2="850" y1="77.8438" y2="77.8438"/><line style="stroke:#000000;stroke-width:1.0;" x1="6" x2="168" y1="41.9219" y2="41.9219"/><line style="stroke:#000000;stroke-width:1.0;" x1="168" x2="233" y1="41.9219" y2="41.9219"/><line style="stroke:#000000;stroke-width:1.0;" x1="233" x2="309" y1="41.9219" y2="41.9219"/><line style="stroke:#000000;stroke-width:1.0;" x1="309" x2="362" y1="41.9219" y2="41.9219"/><line style="stroke:#000000;stroke-width:1.0;" x1="362" x2="436" y1="41.9219" y2="41.9219"/><line style="stroke:#000000;stroke-width:1.0;" x1="436" x2="513" y1="41.9219" y2="41.9219"/><line style="stroke:#000000;stroke-width:1.0;" x1="513" x2="589" y1="41.9219" y2="41.9219"/><line style="stroke:#000000;stroke-width:1.0;" x1="589" x2="642" y1="41.9219" y2="41.9219"/><line style="stroke:#000000;stroke-width:1.0;" x1="642" x2="716" y1="41.9219" y2="41.9219"/><line style="stroke:#000000;stroke-width:1.0;" x1="716" x2="793" y1="41.9219" y2="41.9219"/><line style="stroke:#000000;stroke-width:1.0;" x1="793" x2="850" y1="41.9219" y2="41.9219"/><line style="stroke:#000000;stroke-width:1.0;" x1="6" x2="168" y1="95.8047" y2="95.8047"/><line style="stroke:#000000;stroke-width:1.0;" x1="168" x2="233" y1="95.8047" y2="95.8047"/><line style="stroke:#000000;stroke-width:1.0;" x1="233" x2="309" y1="95.8047" y2="95.8047"/><line style="stroke:#000000;stroke-width:1.0;" x1="309" x2="362" y1="95.8047" y2="95.8047"/><line style="stroke:#000000;stroke-width:1.0;" x1="362" x2="436" y1="95.8047" y2="95.8047"/><line style="stroke:#000000;stroke-width:1.0;" x1="436" x2="513" y1="95.8047" y2="95.8047"/><line style="stroke:#000000;stroke-width:1.0;" x1="513" x2="589" y1="95.8047" y2="95.8047"/><line style="stroke:#000000;stroke-width:1.0;" x1="589" x2="642" y1="95.8047" y2="95.8047"/><line style="stroke:#000000;stroke-width:1.0;" x1="642" x2="716" y1="95.8047" y2="95.8047"/><line style="stroke:#000000;stroke-width:1.0;" x1="716" x2="793" y1="95.8047" y2="95.8047"/><line style="stroke:#000000;stroke-width:1.0;" x1="793" x2="850" y1="95.8047" y2="95.8047"/><line style="stroke:#000000;stroke-width:1.0;" x1="6" x2="6" y1="6" y2="23.9609"/><line style="stroke:#000000;stroke-width:1.0;" x1="168" x2="168" y1="6" y2="23.9609"/><line style="stroke:#000000;stroke-width:1.0;" x1="233" x2="233" y1="6" y2="23.9609"/><line style="stroke:#000000;stroke-width:1.0;" x1="513" x2="513" y1="6" y2="23.9609"/><line style="stroke:#000000;stroke-width:1.0;" x1="850" x2="850" y1="6" y2="23.9609"/><line style="stroke:#000000;stroke-width:1.0;" x1="6" x2="6" y1="59.8828" y2="77.8438"/><line style="stroke:#000000;stroke-width:1.0;" x1="168" x2="168" y1="59.8828" y2="77.8438"/><line style="stroke:#000000;stroke-width:1.0;" x1="233" x2="233" y1="59.8828" y2="77.8438"/><line style="stroke:#000000;stroke-width:1.0;" x1="309" x2="309" y1="59.8828" y2="77.8438"/><line style="stroke:#000000;stroke-width:1.0;" x1="362" x2="362" y1="59.8828" y2="77.8438"/><line style="stroke:#000000;stroke-width:1.0;" x1="436" x2="436" y1="59.8828" y2="77.8438"/><line style="stroke:#000000;stroke-width:1.0;" x1="513" x2="513" y1="59.8828" y2="77.8438"/><line style="stroke:#000000;stroke-width:1.0;" x1="589" x2="589" y1="59.8828" y2="77.8438"/><line style="stroke:#000000;stroke-width:1.0;" x1="642" x2="642" y1="59.8828" y2="77.8438"/><line style="stroke:#000000;stroke-width:1.0;" x1="716" x2="716" y1="59.8828" y2="77.8438"/><line style="stroke:#000000;stroke-width:1.0;" x1="793" x2="793" y1="59.8828" y2="77.8438"/><line style="stroke:#000000;stroke-width:1.0;" x1="850" x2="850" y1="59.8828" y2="77.8438"/><line style="stroke:#000000;stroke-width:1.0;" x1="6" x2="6" y1="23.9609" y2="41.9219"/><line style="stroke:#000000;stroke-width:1.0;" x1="168" x2="168" y1="23.9609" y2="41.9219"/><line style="stroke:#000000;stroke-width:1.0;" x1="233" x2="233" y1="23.9609" y2="41.9219"/><line style="stroke:#000000;stroke-width:1.0;" x1="309" x2="309" y1="23.9609" y2="41.9219"/><line style="stroke:#000000;stroke-width:1.0;" x1="362" x2="362" y1="23.9609" y2="41.9219"/><line style="stroke:#000000;stroke-width:1.0;" x1="436" x2="436" y1="23.9609" y2="41.9219"/><line style="stroke:#000000;stroke-width:1.0;" x1="513" x2="513" y1="23.9609" y2="41.9219"/><line style="stroke:#000000;stroke-width:1.0;" x1="589" x2="589" y1="23.9609" y2="41.9219"/><line style="stroke:#000000;stroke-width:1.0;" x1="642" x2="642" y1="23.9609" y2="41.9219"/><line style="stroke:#000000;stroke-width:1.0;" x1="716" x2="716" y1="23.9609" y2="41.9219"/><line style="stroke:#000000;stroke-width:1.0;" x1="793" x2="793" y1="23.9609" y2="41.9219"/><line style="stroke:#000000;stroke-width:1.0;" x1="850" x2="850" y1="23.9609" y2="41.9219"/><line style="stroke:#000000;stroke-width:1.0;" x1="6" x2="6" y1="77.8438" y2="95.8047"/><line style="stroke:#000000;stroke-width:1.0;" x1="168" x2="168" y1="77.8438" y2="95.8047"/><line style="stroke:#000000;stroke-width:1.0;" x1="233" x2="233" y1="77.8438" y2="95.8047"/><line style="stroke:#000000;stroke-width:1.0;" x1="309" x2="309" y1="77.8438" y2="95.8047"/><line style="stroke:#000000;stroke-width:1.0;" x1="362" x2="362" y1="77.8438" y2="95.8047"/><line style="stroke:#000000;stroke-width:1.0;" x1="436" x2="436" y1="77.8438" y2="95.8047"/><line style="stroke:#000000;stroke-width:1.0;" x1="513" x2="513" y1="77.8438" y2="95.8047"/><line style="stroke:#000000;stroke-width:1.0;" x1="589" x2="589" y1="77.8438" y2="95.8047"/><line style="stroke:#000000;stroke-width:1.0;" x1="642" x2="642" y1="77.8438" y2="95.8047"/><line style="stroke:#000000;stroke-width:1.0;" x1="716" x2="716" y1="77.8438" y2="95.8047"/><line style="stroke:#000000;stroke-width:1.0;" x1="793" x2="793" y1="77.8438" y2="95.8047"/><line style="stroke:#000000;stroke-width:1.0;" x1="850" x2="850" y1="77.8438" y2="95.8047"/><line style="stroke:#000000;stroke-width:1.0;" x1="6" x2="6" y1="41.9219" y2="59.8828"/><line style="stroke:#000000;stroke-width:1.0;" x1="168" x2="168" y1="41.9219" y2="59.8828"/><line style="stroke:#000000;stroke-width:1.0;" x1="233" x2="233" y1="41.9219" y2="59.8828"/><line style="stroke:#000000;stroke-width:1.0;" x1="309" x2="309" y1="41.9219" y2="59.8828"/><line style="stroke:#000000;stroke-width:1.0;" x1="362" x2="362" y1="41.9219" y2="59.8828"/><line style="stroke:#000000;stroke-width:1.0;" x1="436" x2="436" y1="41.9219" y2="59.8828"/><line style="stroke:#000000;stroke-width:1.0;" x1="513" x2="513" y1="41.9219" y2="59.8828"/><line style="stroke:#000000;stroke-width:1.0;" x1="589" x2="589" y1="41.9219" y2="59.8828"/><line style="stroke:#000000;stroke-width:1.0;" x1="642" x2="642" y1="41.9219" y2="59.8828"/><line style="stroke:#000000;stroke-width:1.0;" x1="716" x2="716" y1="41.9219" y2="59.8828"/><line style="stroke:#000000;stroke-width:1.0;" x1="793" x2="793" y1="41.9219" y2="59.8828"/><line style="stroke:#000000;stroke-width:1.0;" x1="850" x2="850" y1="41.9219" y2="59.8828"/><!--SRC=[fP9HJy8m482VxQ-un0SPYOGDqRWOWmAQ80C2odlPZgN9rYrjjsYG7yJlu8zv7H9GNqXiqkRkUlTTxteTRRWocYU6hTZPwfo1NGtuhFRTuXvcHd6ptSG2oL0_slQoonEKaHAe8BhWeH6b8DzVZlK3j8h9fCHtaSc3hel4S7DaKjlDjsxL88l4KeJ77hCYpnLgVIe6JkRCUI8YJlhkrGzHAgJGjWbOK9K815rkDmgb4PXGqBWGfvyrppaMHliqKzGv5S0N2TeSkSfYnTCK_yadOSSVBpIgSbV3tdrKrVptjD6kyuFgEWVmNhPlPnLzpTQiGtDGZH6R95oQjs089Qgghsx3QtgjXjkg1QJrC0JN1VVMzvf- -mQw_LUmzmwhFK-6eBD2XTG3stAnAEnNEMp0ImxJWZgUeW_Z7EMWzx8tG5-MGcKofHzXWtbmSBY-kdmK1cPKEGteF60zN7AQ4Oe8QHHax4CtTxssnuPSnWMF2RvKh9iHM7tuy3Jz0W00]--></g></svg>