<?xml version="1.0" encoding="us-ascii" standalone="no"?><svg xmlns="http://www.w3.org/2000/svg" xmlns:xlink="http://www.w3.org/1999/xlink" contentStyleType="text/css" height="211px" preserveAspectRatio="none" style="width:631px;height:211px;background:#FFFFFF;" version="1.1" viewBox="0 0 631 211" width="631px" zoomAndPan="magnify"><defs/><g><text fill="#000000" font-family="sans-serif" font-size="12" font-weight="bold" lengthAdjust="spacing" textLength="105" x="6" y="18.9492">Quadruplets PSFM</text><line style="stroke:#AAAAAA;stroke-width:1.0;stroke-dasharray:1.0,2.0;" x1="6" x2="624" y1="27.4609" y2="27.4609"/><text fill="#000000" font-family="sans-serif" font-size="12" lengthAdjust="spacing" textLength="135" x="10" y="45.9102">Recherche : code, libell&#233;</text><line style="stroke:#000000;stroke-width:1.0;" x1="8" x2="619" y1="48.9219" y2="48.9219"/><line style="stroke:#000000;stroke-width:1.0;" x1="8" x2="8" y1="45.9219" y2="47.9219"/><line style="stroke:#000000;stroke-width:1.0;" x1="619" x2="619" y1="45.9219" y2="47.9219"/><text fill="#000000" font-family="sans-serif" font-size="12" lengthAdjust="spacing" textLength="7" x="7" y="85.832">#</text><text fill="#000000" font-family="sans-serif" font-size="12" lengthAdjust="spacing" textLength="37" x="30" y="85.832">Libell&#233;</text><text fill="#000000" font-family="sans-serif" font-size="12" lengthAdjust="spacing" textLength="29" x="189" y="85.832">Unit&#233;</text><text fill="#000000" font-family="sans-serif" font-size="12" lengthAdjust="spacing" textLength="43" x="220" y="85.832">Support</text><text fill="#000000" font-family="sans-serif" font-size="12" lengthAdjust="spacing" textLength="44" x="265" y="85.832">Fraction</text><text fill="#000000" font-family="sans-serif" font-size="12" lengthAdjust="spacing" textLength="109" x="370" y="85.832">M&#233;thode de collecte</text><text fill="#000000" font-family="sans-serif" font-size="12" lengthAdjust="spacing" textLength="21" x="540" y="85.832">Etat</text><text fill="#000000" font-family="sans-serif" font-size="12" lengthAdjust="spacing" textLength="14" x="7" y="103.793">21</text><text fill="#000000" font-family="sans-serif" font-size="12" lengthAdjust="spacing" textLength="157" x="30" y="103.793">Maillage de l'engin (logbook)</text><text fill="#000000" font-family="sans-serif" font-size="12" lengthAdjust="spacing" textLength="22" x="189" y="103.793">mm</text><text fill="#000000" font-family="sans-serif" font-size="12" lengthAdjust="spacing" textLength="31" x="220" y="103.793">engin</text><text fill="#000000" font-family="sans-serif" font-size="12" lengthAdjust="spacing" textLength="51" x="265" y="103.793">inconnue</text><text fill="#000000" font-family="sans-serif" font-size="12" lengthAdjust="spacing" textLength="168" x="370" y="103.793">D&#233;claration d'un professionnel</text><text fill="#000000" font-family="sans-serif" font-size="12" lengthAdjust="spacing" textLength="82" x="540" y="103.793">Actif &#224; la saisie</text><text fill="#000000" font-family="sans-serif" font-size="12" lengthAdjust="spacing" textLength="21" x="7" y="121.7539">292</text><text fill="#000000" font-family="sans-serif" font-size="12" lengthAdjust="spacing" textLength="129" x="30" y="121.7539">Maillage &#233;tir&#233; de l'engin</text><text fill="#000000" font-family="sans-serif" font-size="12" lengthAdjust="spacing" textLength="22" x="189" y="121.7539">mm</text><text fill="#000000" font-family="sans-serif" font-size="12" lengthAdjust="spacing" textLength="31" x="220" y="121.7539">engin</text><text fill="#000000" font-family="sans-serif" font-size="12" lengthAdjust="spacing" textLength="94" x="265" y="121.7539">plus petite maille</text><text fill="#000000" font-family="sans-serif" font-size="12" lengthAdjust="spacing" textLength="168" x="370" y="121.7539">D&#233;claration d'un professionnel</text><text fill="#000000" font-family="sans-serif" font-size="12" lengthAdjust="spacing" textLength="82" x="540" y="121.7539">Actif &#224; la saisie</text><text fill="#000000" font-family="sans-serif" font-size="12" lengthAdjust="spacing" textLength="21" x="7" y="139.7148">293</text><text fill="#000000" font-family="sans-serif" font-size="12" lengthAdjust="spacing" textLength="129" x="30" y="139.7148">Maillage &#233;tir&#233; de l'engin</text><text fill="#000000" font-family="sans-serif" font-size="12" lengthAdjust="spacing" textLength="22" x="189" y="139.7148">mm</text><text fill="#000000" font-family="sans-serif" font-size="12" lengthAdjust="spacing" textLength="31" x="220" y="139.7148">engin</text><text fill="#000000" font-family="sans-serif" font-size="12" lengthAdjust="spacing" textLength="103" x="265" y="139.7148">plus grande maille</text><text fill="#000000" font-family="sans-serif" font-size="12" lengthAdjust="spacing" textLength="168" x="370" y="139.7148">D&#233;claration d'un professionnel</text><text fill="#000000" font-family="sans-serif" font-size="12" lengthAdjust="spacing" textLength="82" x="540" y="139.7148">Actif &#224; la saisie</text><text fill="#000000" font-family="sans-serif" font-size="12" lengthAdjust="spacing" textLength="21" x="7" y="157.6758">204</text><text fill="#000000" font-family="sans-serif" font-size="12" lengthAdjust="spacing" textLength="85" x="30" y="157.6758">Longueur lev&#233;e</text><text fill="#000000" font-family="sans-serif" font-size="12" lengthAdjust="spacing" textLength="11" x="189" y="157.6758">m</text><text fill="#000000" font-family="sans-serif" font-size="12" lengthAdjust="spacing" textLength="31" x="220" y="157.6758">engin</text><text fill="#000000" font-family="sans-serif" font-size="12" lengthAdjust="spacing" textLength="30" x="265" y="157.6758">totale</text><text fill="#000000" font-family="sans-serif" font-size="12" lengthAdjust="spacing" textLength="168" x="370" y="157.6758">D&#233;claration d'un professionnel</text><text fill="#000000" font-family="sans-serif" font-size="12" lengthAdjust="spacing" textLength="82" x="540" y="157.6758">Actif &#224; la saisie</text><line style="stroke:#000000;stroke-width:1.0;" x1="6" x2="29" y1="71.8828" y2="71.8828"/><line style="stroke:#000000;stroke-width:1.0;" x1="264" x2="369" y1="143.7266" y2="143.7266"/><line style="stroke:#000000;stroke-width:1.0;" x1="29" x2="188" y1="71.8828" y2="71.8828"/><line style="stroke:#000000;stroke-width:1.0;" x1="369" x2="539" y1="143.7266" y2="143.7266"/><line style="stroke:#000000;stroke-width:1.0;" x1="188" x2="219" y1="71.8828" y2="71.8828"/><line style="stroke:#000000;stroke-width:1.0;" x1="539" x2="623" y1="143.7266" y2="143.7266"/><line style="stroke:#000000;stroke-width:1.0;" x1="219" x2="264" y1="71.8828" y2="71.8828"/><line style="stroke:#000000;stroke-width:1.0;" x1="264" x2="369" y1="71.8828" y2="71.8828"/><line style="stroke:#000000;stroke-width:1.0;" x1="369" x2="539" y1="71.8828" y2="71.8828"/><line style="stroke:#000000;stroke-width:1.0;" x1="539" x2="623" y1="71.8828" y2="71.8828"/><line style="stroke:#000000;stroke-width:1.0;" x1="6" x2="29" y1="125.7656" y2="125.7656"/><line style="stroke:#000000;stroke-width:1.0;" x1="29" x2="188" y1="125.7656" y2="125.7656"/><line style="stroke:#000000;stroke-width:1.0;" x1="188" x2="219" y1="125.7656" y2="125.7656"/><line style="stroke:#000000;stroke-width:1.0;" x1="219" x2="264" y1="125.7656" y2="125.7656"/><line style="stroke:#000000;stroke-width:1.0;" x1="264" x2="369" y1="125.7656" y2="125.7656"/><line style="stroke:#000000;stroke-width:1.0;" x1="369" x2="539" y1="125.7656" y2="125.7656"/><line style="stroke:#000000;stroke-width:1.0;" x1="539" x2="623" y1="125.7656" y2="125.7656"/><line style="stroke:#000000;stroke-width:1.0;" x1="6" x2="29" y1="107.8047" y2="107.8047"/><line style="stroke:#000000;stroke-width:1.0;" x1="29" x2="188" y1="107.8047" y2="107.8047"/><line style="stroke:#000000;stroke-width:1.0;" x1="188" x2="219" y1="107.8047" y2="107.8047"/><line style="stroke:#000000;stroke-width:1.0;" x1="219" x2="264" y1="107.8047" y2="107.8047"/><line style="stroke:#000000;stroke-width:1.0;" x1="264" x2="369" y1="107.8047" y2="107.8047"/><line style="stroke:#000000;stroke-width:1.0;" x1="369" x2="539" y1="107.8047" y2="107.8047"/><line style="stroke:#000000;stroke-width:1.0;" x1="539" x2="623" y1="107.8047" y2="107.8047"/><line style="stroke:#000000;stroke-width:1.0;" x1="6" x2="29" y1="161.6875" y2="161.6875"/><line style="stroke:#000000;stroke-width:1.0;" x1="29" x2="188" y1="161.6875" y2="161.6875"/><line style="stroke:#000000;stroke-width:1.0;" x1="188" x2="219" y1="161.6875" y2="161.6875"/><line style="stroke:#000000;stroke-width:1.0;" x1="219" x2="264" y1="161.6875" y2="161.6875"/><line style="stroke:#000000;stroke-width:1.0;" x1="264" x2="369" y1="161.6875" y2="161.6875"/><line style="stroke:#000000;stroke-width:1.0;" x1="6" x2="29" y1="89.8438" y2="89.8438"/><line style="stroke:#000000;stroke-width:1.0;" x1="369" x2="539" y1="161.6875" y2="161.6875"/><line style="stroke:#000000;stroke-width:1.0;" x1="29" x2="188" y1="89.8438" y2="89.8438"/><line style="stroke:#000000;stroke-width:1.0;" x1="539" x2="623" y1="161.6875" y2="161.6875"/><line style="stroke:#000000;stroke-width:1.0;" x1="188" x2="219" y1="89.8438" y2="89.8438"/><line style="stroke:#000000;stroke-width:1.0;" x1="219" x2="264" y1="89.8438" y2="89.8438"/><line style="stroke:#000000;stroke-width:1.0;" x1="264" x2="369" y1="89.8438" y2="89.8438"/><line style="stroke:#000000;stroke-width:1.0;" x1="369" x2="539" y1="89.8438" y2="89.8438"/><line style="stroke:#000000;stroke-width:1.0;" x1="539" x2="623" y1="89.8438" y2="89.8438"/><line style="stroke:#000000;stroke-width:1.0;" x1="6" x2="29" y1="143.7266" y2="143.7266"/><line style="stroke:#000000;stroke-width:1.0;" x1="29" x2="188" y1="143.7266" y2="143.7266"/><line style="stroke:#000000;stroke-width:1.0;" x1="188" x2="219" y1="143.7266" y2="143.7266"/><line style="stroke:#000000;stroke-width:1.0;" x1="219" x2="264" y1="143.7266" y2="143.7266"/><line style="stroke:#000000;stroke-width:1.0;" x1="6" x2="6" y1="71.8828" y2="89.8438"/><line style="stroke:#000000;stroke-width:1.0;" x1="264" x2="264" y1="143.7266" y2="161.6875"/><line style="stroke:#000000;stroke-width:1.0;" x1="29" x2="29" y1="71.8828" y2="89.8438"/><line style="stroke:#000000;stroke-width:1.0;" x1="369" x2="369" y1="143.7266" y2="161.6875"/><line style="stroke:#000000;stroke-width:1.0;" x1="188" x2="188" y1="71.8828" y2="89.8438"/><line style="stroke:#000000;stroke-width:1.0;" x1="539" x2="539" y1="143.7266" y2="161.6875"/><line style="stroke:#000000;stroke-width:1.0;" x1="623" x2="623" y1="143.7266" y2="161.6875"/><line style="stroke:#000000;stroke-width:1.0;" x1="219" x2="219" y1="71.8828" y2="89.8438"/><line style="stroke:#000000;stroke-width:1.0;" x1="264" x2="264" y1="71.8828" y2="89.8438"/><line style="stroke:#000000;stroke-width:1.0;" x1="369" x2="369" y1="71.8828" y2="89.8438"/><line style="stroke:#000000;stroke-width:1.0;" x1="539" x2="539" y1="71.8828" y2="89.8438"/><line style="stroke:#000000;stroke-width:1.0;" x1="623" x2="623" y1="71.8828" y2="89.8438"/><line style="stroke:#000000;stroke-width:1.0;" x1="6" x2="6" y1="125.7656" y2="143.7266"/><line style="stroke:#000000;stroke-width:1.0;" x1="29" x2="29" y1="125.7656" y2="143.7266"/><line style="stroke:#000000;stroke-width:1.0;" x1="188" x2="188" y1="125.7656" y2="143.7266"/><line style="stroke:#000000;stroke-width:1.0;" x1="219" x2="219" y1="125.7656" y2="143.7266"/><line style="stroke:#000000;stroke-width:1.0;" x1="264" x2="264" y1="125.7656" y2="143.7266"/><line style="stroke:#000000;stroke-width:1.0;" x1="369" x2="369" y1="125.7656" y2="143.7266"/><line style="stroke:#000000;stroke-width:1.0;" x1="539" x2="539" y1="125.7656" y2="143.7266"/><line style="stroke:#000000;stroke-width:1.0;" x1="623" x2="623" y1="125.7656" y2="143.7266"/><line style="stroke:#000000;stroke-width:1.0;" x1="6" x2="6" y1="107.8047" y2="125.7656"/><line style="stroke:#000000;stroke-width:1.0;" x1="29" x2="29" y1="107.8047" y2="125.7656"/><line style="stroke:#000000;stroke-width:1.0;" x1="188" x2="188" y1="107.8047" y2="125.7656"/><line style="stroke:#000000;stroke-width:1.0;" x1="219" x2="219" y1="107.8047" y2="125.7656"/><line style="stroke:#000000;stroke-width:1.0;" x1="264" x2="264" y1="107.8047" y2="125.7656"/><line style="stroke:#000000;stroke-width:1.0;" x1="369" x2="369" y1="107.8047" y2="125.7656"/><line style="stroke:#000000;stroke-width:1.0;" x1="539" x2="539" y1="107.8047" y2="125.7656"/><line style="stroke:#000000;stroke-width:1.0;" x1="623" x2="623" y1="107.8047" y2="125.7656"/><line style="stroke:#000000;stroke-width:1.0;" x1="6" x2="6" y1="89.8438" y2="107.8047"/><line style="stroke:#000000;stroke-width:1.0;" x1="29" x2="29" y1="89.8438" y2="107.8047"/><line style="stroke:#000000;stroke-width:1.0;" x1="188" x2="188" y1="89.8438" y2="107.8047"/><line style="stroke:#000000;stroke-width:1.0;" x1="219" x2="219" y1="89.8438" y2="107.8047"/><line style="stroke:#000000;stroke-width:1.0;" x1="264" x2="264" y1="89.8438" y2="107.8047"/><line style="stroke:#000000;stroke-width:1.0;" x1="369" x2="369" y1="89.8438" y2="107.8047"/><line style="stroke:#000000;stroke-width:1.0;" x1="539" x2="539" y1="89.8438" y2="107.8047"/><line style="stroke:#000000;stroke-width:1.0;" x1="623" x2="623" y1="89.8438" y2="107.8047"/><line style="stroke:#000000;stroke-width:1.0;" x1="6" x2="6" y1="143.7266" y2="161.6875"/><line style="stroke:#000000;stroke-width:1.0;" x1="29" x2="29" y1="143.7266" y2="161.6875"/><line style="stroke:#000000;stroke-width:1.0;" x1="188" x2="188" y1="143.7266" y2="161.6875"/><line style="stroke:#000000;stroke-width:1.0;" x1="219" x2="219" y1="143.7266" y2="161.6875"/><rect fill="#EEEEEE" height="19.9609" rx="5" ry="5" style="stroke:#000000;stroke-width:2.5;" width="60" x="9.5" y="185.1484"/><text fill="#000000" font-family="sans-serif" font-size="12" lengthAdjust="spacing" textLength="42" x="18.5" y="200.0977">Annuler</text><!--SRC=[hPFVRzCm4CVV_LUSjeUr4bHDke4M8RJH7qYb4QLbUq4ykCarit3io3vNGkl-5rxxT-GVunoOLl468qgiy_dy_PnzbojFqf6NciIz07YpUVifoDA5HYDvMAvdENi70y7Z_SaAYpjq_446XItn1MYrGQtR0_pzS_8GbJlXKpY5FImUjVPmOnHrnZeqZNN4rip9WfGrRERjWUuO3_mMLcii2Daz9KcYaqwJ62MLrhBgelGPcaePw6bRRQpzrkVrkkRXbtiFoXJMc11b9ksXqDB93bQU1GEDirlqdkS6DKTSSo9RQ7-0bk2byWf_Oo_JOovdgHoVueZ_1xNHmKE3f3Z_EcvxBd_q3_pAILF-7_xmF9RHcYfWSA1nrnwYuZ6IBCddO9wQ1hvSSyKqkg_iV11NQCgkZSLIIqCt-G9swA8Q98Dqc8u6oQYNyso21IG999TPEimkNiDu-XdYUb_qtYyNu6rm1JUDykJK9iJq-c8kTn9MmP2gCOEF3PhvvCEZ0wPcfvmrDHeIyzlyAU3L-SjtYc2DZbE1srnCS2k39jx1luyoLGRZ9aalKh6GV6bSj0osJemj2xll6SnMFm40]--></g></svg>