<?xml version="1.0" encoding="UTF-8" standalone="no"?><svg xmlns="http://www.w3.org/2000/svg" xmlns:xlink="http://www.w3.org/1999/xlink" contentStyleType="text/css" height="271px" preserveAspectRatio="none" style="width:823px;height:271px;background:#FFFFFF;" version="1.1" viewBox="0 0 823 271" width="823px" zoomAndPan="magnify"><defs/><g><text fill="#000000" font-family="sans-serif" font-size="12" font-weight="bold" lengthAdjust="spacing" textLength="248" x="6" y="18.8281">136794 - SONNY NINO MATHILDE 3 - 2022</text><line style="stroke:#AAAAAA;stroke-width:1.0;" x1="6" x2="816.6667" y1="27.8441" y2="27.8441"/><text fill="#000000" font-family="sans-serif" font-size="12" lengthAdjust="spacing" textLength="45" x="8" y="45.1722">Général</text><line style="stroke:#000000;stroke-width:1.0;" x1="6" x2="6" y1="32.3441" y2="48.6882"/><line style="stroke:#000000;stroke-width:1.0;" x1="6" x2="56" y1="32.3441" y2="32.3441"/><line style="stroke:#000000;stroke-width:1.0;" x1="56" x2="56" y1="32.3441" y2="48.6882"/><line style="stroke:#000000;stroke-width:1.0;" x1="56" x2="66" y1="48.6882" y2="48.6882"/><text fill="#000000" font-family="sans-serif" font-size="12" lengthAdjust="spacing" textLength="59" x="68" y="45.1722">Calendrier</text><line style="stroke:#000000;stroke-width:1.0;" x1="66" x2="66" y1="32.3441" y2="48.6882"/><line style="stroke:#000000;stroke-width:1.0;" x1="66" x2="130" y1="32.3441" y2="32.3441"/><line style="stroke:#000000;stroke-width:1.0;" x1="130" x2="130" y1="32.3441" y2="48.6882"/><line style="stroke:#000000;stroke-width:1.0;" x1="130" x2="140" y1="48.6882" y2="48.6882"/><text fill="#000000" font-family="sans-serif" font-size="12" lengthAdjust="spacing" textLength="43" x="142" y="45.1722">Métiers</text><line style="stroke:#000000;stroke-width:1.0;" x1="140" x2="140" y1="32.3441" y2="48.6882"/><line style="stroke:#000000;stroke-width:1.0;" x1="140" x2="188" y1="32.3441" y2="32.3441"/><line style="stroke:#000000;stroke-width:1.0;" x1="188" x2="188" y1="32.3441" y2="48.6882"/><line style="stroke:#000000;stroke-width:1.0;" x1="188" x2="198" y1="48.6882" y2="48.6882"/><text fill="#000000" font-family="sans-serif" font-size="12" font-weight="bold" lengthAdjust="spacing" textLength="88" x="200" y="45.1722">Commentaires</text><line style="stroke:#000000;stroke-width:1.0;" x1="198" x2="198" y1="32.3441" y2="48.6882"/><line style="stroke:#000000;stroke-width:1.0;" x1="198" x2="291" y1="32.3441" y2="32.3441"/><line style="stroke:#000000;stroke-width:1.0;" x1="291" x2="291" y1="32.3441" y2="48.6882"/><line style="stroke:#000000;stroke-width:1.0;" x1="291" x2="301" y1="48.6882" y2="48.6882"/><line style="stroke:#AAAAAA;stroke-width:1.0;stroke-dasharray:1.0,2.0;" x1="6" x2="816.6667" y1="54.1882" y2="54.1882"/><text fill="#000000" font-family="sans-serif" font-size="12" lengthAdjust="spacing" textLength="181" x="8" y="73.5163">19.01.2017 : Appel sans réponse</text><text fill="#000000" font-family="sans-serif" font-size="12" lengthAdjust="spacing" textLength="223" x="8" y="91.8604">08/03/2019 : Conversation téléphonique</text><text fill="#000000" font-family="sans-serif" font-size="12" lengthAdjust="spacing" textLength="622" x="8" y="110.2045">2020 : Sort souvent avec Jean (BIBAS) --&gt; Pêchent également sur ensemble sur BIBAS de temps en temps à ERU</text><text fill="#000000" font-family="sans-serif" font-size="12" lengthAdjust="spacing" textLength="198" x="8" y="128.5487">12/02/2022 : Hélice cassée fin 2022</text><line style="stroke:#000000;stroke-width:1.0;" x1="7" x2="631" y1="59.6882" y2="59.6882"/><line style="stroke:#000000;stroke-width:1.0;" x1="7" x2="631" y1="224.7853" y2="224.7853"/><line style="stroke:#000000;stroke-width:1.0;" x1="7" x2="7" y1="59.6882" y2="78.0323"/><line style="stroke:#000000;stroke-width:1.0;" x1="631" x2="631" y1="59.6882" y2="78.0323"/><line style="stroke:#000000;stroke-width:1.0;" x1="7" x2="7" y1="188.097" y2="206.4411"/><line style="stroke:#000000;stroke-width:1.0;" x1="631" x2="631" y1="188.097" y2="206.4411"/><line style="stroke:#000000;stroke-width:1.0;" x1="7" x2="7" y1="151.4088" y2="169.7529"/><line style="stroke:#000000;stroke-width:1.0;" x1="631" x2="631" y1="151.4088" y2="169.7529"/><line style="stroke:#000000;stroke-width:1.0;" x1="7" x2="7" y1="114.7206" y2="133.0647"/><line style="stroke:#000000;stroke-width:1.0;" x1="631" x2="631" y1="114.7206" y2="133.0647"/><line style="stroke:#000000;stroke-width:1.0;" x1="7" x2="7" y1="78.0323" y2="96.3765"/><line style="stroke:#000000;stroke-width:1.0;" x1="631" x2="631" y1="78.0323" y2="96.3765"/><line style="stroke:#000000;stroke-width:1.0;" x1="7" x2="7" y1="206.4411" y2="224.7853"/><line style="stroke:#000000;stroke-width:1.0;" x1="631" x2="631" y1="206.4411" y2="224.7853"/><line style="stroke:#000000;stroke-width:1.0;" x1="7" x2="7" y1="169.7529" y2="188.097"/><line style="stroke:#000000;stroke-width:1.0;" x1="631" x2="631" y1="169.7529" y2="188.097"/><line style="stroke:#000000;stroke-width:1.0;" x1="7" x2="7" y1="133.0647" y2="151.4088"/><line style="stroke:#000000;stroke-width:1.0;" x1="631" x2="631" y1="133.0647" y2="151.4088"/><line style="stroke:#000000;stroke-width:1.0;" x1="7" x2="7" y1="96.3765" y2="114.7206"/><line style="stroke:#000000;stroke-width:1.0;" x1="631" x2="631" y1="96.3765" y2="114.7206"/><text fill="#808080" font-family="sans-serif" font-size="10" lengthAdjust="spacing" textLength="48" x="640" y="72.3782">Saisisseur</text><text fill="#000000" font-family="sans-serif" font-size="12" lengthAdjust="spacing" textLength="98" x="640" y="90.1363">Adelaide GAMON</text><text fill="#808080" font-family="sans-serif" font-size="10" lengthAdjust="spacing" textLength="47" x="640" y="106.3423">Groupe EI</text><line style="stroke:#AAAAAA;stroke-width:1.0;" x1="640" x2="813.6667" y1="114.7723" y2="114.7723"/><path d="M641,123.7256 L641,125.3923 L646.8333,125.3923 L646.8333,123.7256 L641,123.7256 M641,126.2256 L641,130.3173 C641,130.359 641.0333,130.3923 641.075,130.3923 L646.75,130.3923 C646.7917,130.3923 646.825,130.359 646.825,130.3173 L646.825,126.2256 L640.9917,126.2256 M641.8333,127.059 L642.6667,127.059 L642.6667,127.8923 L641.8333,127.8923 L641.8333,127.059 M643.5,127.059 L644.3333,127.059 L644.3333,127.8923 L643.5,127.8923 L643.5,127.059 M645.1667,127.059 L646,127.059 L646,127.8923 L645.1667,127.8923 L645.1667,127.059 M641.8333,128.7256 L642.6667,128.7256 L642.6667,129.559 L641.8333,129.559 L641.8333,128.7256 M643.5,128.7256 L644.3333,128.7256 L644.3333,129.559 L643.5,129.559 L643.5,128.7256 " fill="#808080" style="stroke:;stroke-width:0.0;stroke-dasharray:;"/><text fill="#808080" font-family="sans-serif" font-size="10" lengthAdjust="spacing" textLength="138" x="648.6667" y="129.9623">Créé le 20/03/2023 17:08:31</text><path d="M644.3333,139.3456 C642.5,139.3456 641,140.8456 641,142.679 C641,144.5123 642.5,146.0123 644.3333,146.0123 C646.1667,146.0123 647.6667,144.5123 647.6667,142.679 C647.6667,140.8456 646.1667,139.3456 644.3333,139.3456 M644.3333,140.179 C645.7167,140.179 646.8333,141.2956 646.8333,142.679 C646.8333,144.0623 645.7167,145.179 644.3333,145.179 C642.95,145.179 641.8333,144.0623 641.8333,142.679 C641.8333,141.2956 642.95,140.179 644.3333,140.179 M643.9167,141.0123 L643.9167,142.8623 L644.05,142.9706 L644.4667,143.3873 L644.75,143.704 L645.35,143.104 L645.0333,142.8206 L644.75,142.5373 L644.75,141.029 L643.9167,141.029 " fill="#808080" style="stroke:;stroke-width:0.0;stroke-dasharray:;"/><text fill="#808080" font-family="sans-serif" font-size="10" lengthAdjust="spacing" textLength="164" x="648.6667" y="145.5823">Mis à jour le 20/03/2023 17:08:31</text><text fill="#808080" font-family="sans-serif" font-size="10" lengthAdjust="spacing" textLength="58" x="640" y="179.5464">Mode saisie</text><text fill="#808080" font-family="sans-serif" font-size="10" font-weight="bold" lengthAdjust="spacing" textLength="37" x="701" y="179.5464">bureau</text><rect fill="#EEEEEE" height="20.3441" rx="5" ry="5" style="stroke:#000000;stroke-width:2.5;" width="156" x="642.5" y="205.3205"/><text fill="#000000" font-family="sans-serif" font-size="12" lengthAdjust="spacing" textLength="100" x="670.5" y="220.1486">Terminer la saisie</text><line style="stroke:#000000;stroke-width:1.0;" x1="638" x2="814.6667" y1="59.6882" y2="59.6882"/><line style="stroke:#000000;stroke-width:1.0;" x1="638" x2="814.6667" y1="230.1646" y2="230.1646"/><line style="stroke:#000000;stroke-width:1.0;" x1="638" x2="638" y1="59.6882" y2="230.1646"/><line style="stroke:#000000;stroke-width:1.0;" x1="814.6667" x2="814.6667" y1="59.6882" y2="230.1646"/><line style="stroke:#AAAAAA;stroke-width:1.0;" x1="6" x2="816.6667" y1="236.6646" y2="236.6646"/><rect fill="#EEEEEE" height="20.3441" rx="5" ry="5" style="stroke:#000000;stroke-width:2.5;" width="52" x="9.5" y="244.6646"/><text fill="#000000" font-family="sans-serif" font-size="12" lengthAdjust="spacing" textLength="41" x="15" y="259.4927">Fermer</text><rect fill="#EEEEEE" height="20.3441" rx="5" ry="5" style="stroke:#000000;stroke-width:2.5;" width="92" x="68.5" y="244.6646"/><text fill="#000000" font-family="sans-serif" font-size="12" lengthAdjust="spacing" textLength="72" x="78.5" y="259.4927">Sauvegarder</text></g></svg>