<?xml version="1.0" encoding="us-ascii" standalone="no"?><svg xmlns="http://www.w3.org/2000/svg" xmlns:xlink="http://www.w3.org/1999/xlink" contentStyleType="text/css" height="448px" preserveAspectRatio="none" style="width:585px;height:448px;background:#FFFFFF;" version="1.1" viewBox="0 0 585 448" width="585px" zoomAndPan="magnify"><defs><filter height="1" id="b10owq2lgr6bac0" width="1" x="0" y="0"><feFlood flood-color="#DDDDDD" result="flood"/><feComposite in="SourceGraphic" in2="flood" operator="over"/></filter></defs><g><text fill="#808080" font-family="sans-serif" font-size="20" font-weight="bold" lengthAdjust="spacing" textLength="188" x="8" y="29.582">Calendrier d'activit&#233;</text><text fill="#000000" font-family="sans-serif" font-size="12" lengthAdjust="spacing" textLength="67" x="8" y="49.5508">Observateur</text><line style="stroke:#AAAAAA;stroke-width:1.0;" x1="8" x2="197" y1="93.9844" y2="93.9844"/><text fill="#000000" font-family="sans-serif" font-size="12" lengthAdjust="spacing" textLength="39" x="8" y="111.4336">Accueil</text><text fill="#808080" font-family="sans-serif" font-size="10" lengthAdjust="spacing" textLength="87" x="8" y="145.1973">Saisie de donn&#233;es</text><line style="stroke:#AAAAAA;stroke-width:1.0;" x1="8" x2="197" y1="153.207" y2="153.207"/><text fill="#000000" filter="url(#b10owq2lgr6bac0)" font-family="sans-serif" font-size="12" lengthAdjust="spacing" textLength="114" x="18" y="170.6563">Calendriers d'activit&#233;</text><text fill="#000000" font-family="sans-serif" font-size="12" lengthAdjust="spacing" textLength="138" x="28" y="186.6172">Calendrier d'activit&#233; 2023</text><text fill="#000000" font-family="sans-serif" font-size="12" lengthAdjust="spacing" textLength="58" x="38" y="202.5781">Calendrier</text><text fill="#000000" font-family="sans-serif" font-size="12" lengthAdjust="spacing" textLength="30" x="38" y="218.5391">Carte</text><rect fill="none" height="2" style="stroke:#888888;stroke-width:1.0;" width="2" x="11" y="164.6875"/><rect fill="none" height="2" style="stroke:#888888;stroke-width:1.0;" width="2" x="21" y="180.6484"/><line style="stroke:#888888;stroke-width:1.0;" x1="12" x2="12" y1="167.6875" y2="181.6484"/><line style="stroke:#888888;stroke-width:1.0;" x1="12" x2="20" y1="181.6484" y2="181.6484"/><line style="stroke:#888888;stroke-width:1.0;" x1="22" x2="22" y1="183.6484" y2="197.6094"/><line style="stroke:#888888;stroke-width:1.0;" x1="22" x2="30" y1="197.6094" y2="197.6094"/><line style="stroke:#888888;stroke-width:1.0;" x1="22" x2="22" y1="183.6484" y2="213.5703"/><line style="stroke:#888888;stroke-width:1.0;" x1="22" x2="30" y1="213.5703" y2="213.5703"/><text fill="#808080" font-family="sans-serif" font-size="10" lengthAdjust="spacing" textLength="56" x="8" y="360.0684">R&#233;f&#233;rentiels</text><line style="stroke:#AAAAAA;stroke-width:1.0;" x1="8" x2="197" y1="368.0781" y2="368.0781"/><line style="stroke:#AAAAAA;stroke-width:1.0;" x1="8" x2="197" y1="394.0391" y2="394.0391"/><text fill="#000000" font-family="sans-serif" font-size="12" lengthAdjust="spacing" textLength="86" x="8" y="411.4883">Se d&#233;connecter</text><line style="stroke:#AAAAAA;stroke-width:1.0;" x1="8" x2="197" y1="420" y2="420"/><text fill="#808080" font-family="sans-serif" font-size="10" lengthAdjust="spacing" textLength="80" x="8" y="437.291">V XXX - &#224; propos</text><line style="stroke:#000000;stroke-width:1.0;" x1="6" x2="203" y1="6" y2="6"/><line style="stroke:#000000;stroke-width:1.0;" x1="6" x2="203" y1="441.8008" y2="441.8008"/><line style="stroke:#000000;stroke-width:1.0;" x1="6" x2="6" y1="6" y2="424.5"/><line style="stroke:#000000;stroke-width:1.0;" x1="203" x2="203" y1="424.5" y2="441.8008"/><line style="stroke:#000000;stroke-width:1.0;" x1="203" x2="203" y1="6" y2="424.5"/><line style="stroke:#000000;stroke-width:1.0;" x1="6" x2="6" y1="424.5" y2="441.8008"/><text fill="#000000" font-family="sans-serif" font-size="12" font-weight="bold" lengthAdjust="spacing" textLength="120" x="212" y="20.9492">Calendriers d'activit&#233;</text><rect fill="#EEEEEE" height="19.9609" rx="5" ry="5" style="stroke:#000000;stroke-width:2.5;" width="12" x="561.5" y="10.5"/><text fill="#000000" font-family="sans-serif" font-size="12" font-weight="bold" lengthAdjust="spacing" textLength="7" x="564" y="25.4492">+</text><line style="stroke:#AAAAAA;stroke-width:1.0;" x1="211" x2="578" y1="39.4609" y2="39.4609"/><text fill="#000000" font-family="sans-serif" font-size="12" font-weight="bold" lengthAdjust="spacing" textLength="102" x="347" y="237.5195">Fen&#234;tre principale</text><line style="stroke:#000000;stroke-width:1.0;" x1="210" x2="578" y1="6" y2="6"/><line style="stroke:#000000;stroke-width:1.0;" x1="210" x2="578" y1="440.1016" y2="440.1016"/><line style="stroke:#000000;stroke-width:1.0;" x1="210" x2="210" y1="6" y2="34.9609"/><line style="stroke:#000000;stroke-width:1.0;" x1="578" x2="578" y1="6" y2="34.9609"/><line style="stroke:#000000;stroke-width:1.0;" x1="210" x2="210" y1="278.4531" y2="296.4141"/><line style="stroke:#000000;stroke-width:1.0;" x1="578" x2="578" y1="278.4531" y2="296.4141"/><line style="stroke:#000000;stroke-width:1.0;" x1="210" x2="210" y1="204.6094" y2="222.5703"/><line style="stroke:#000000;stroke-width:1.0;" x1="578" x2="578" y1="204.6094" y2="222.5703"/><line style="stroke:#000000;stroke-width:1.0;" x1="210" x2="210" y1="132.7656" y2="150.7266"/><line style="stroke:#000000;stroke-width:1.0;" x1="578" x2="578" y1="132.7656" y2="150.7266"/><line style="stroke:#000000;stroke-width:1.0;" x1="210" x2="210" y1="404.1797" y2="422.1406"/><line style="stroke:#000000;stroke-width:1.0;" x1="578" x2="578" y1="404.1797" y2="422.1406"/><line style="stroke:#000000;stroke-width:1.0;" x1="210" x2="210" y1="60.9219" y2="78.8828"/><line style="stroke:#000000;stroke-width:1.0;" x1="578" x2="578" y1="60.9219" y2="78.8828"/><line style="stroke:#000000;stroke-width:1.0;" x1="210" x2="210" y1="332.3359" y2="350.2969"/><line style="stroke:#000000;stroke-width:1.0;" x1="578" x2="578" y1="332.3359" y2="350.2969"/><line style="stroke:#000000;stroke-width:1.0;" x1="210" x2="210" y1="260.4922" y2="278.4531"/><line style="stroke:#000000;stroke-width:1.0;" x1="578" x2="578" y1="260.4922" y2="278.4531"/><line style="stroke:#000000;stroke-width:1.0;" x1="210" x2="210" y1="186.6484" y2="204.6094"/><line style="stroke:#000000;stroke-width:1.0;" x1="578" x2="578" y1="186.6484" y2="204.6094"/><line style="stroke:#000000;stroke-width:1.0;" x1="210" x2="210" y1="114.8047" y2="132.7656"/><line style="stroke:#000000;stroke-width:1.0;" x1="578" x2="578" y1="114.8047" y2="132.7656"/><line style="stroke:#000000;stroke-width:1.0;" x1="210" x2="210" y1="386.2188" y2="404.1797"/><line style="stroke:#000000;stroke-width:1.0;" x1="578" x2="578" y1="386.2188" y2="404.1797"/><line style="stroke:#000000;stroke-width:1.0;" x1="210" x2="210" y1="42.9609" y2="60.9219"/><line style="stroke:#000000;stroke-width:1.0;" x1="578" x2="578" y1="42.9609" y2="60.9219"/><line style="stroke:#000000;stroke-width:1.0;" x1="210" x2="210" y1="314.375" y2="332.3359"/><line style="stroke:#000000;stroke-width:1.0;" x1="578" x2="578" y1="314.375" y2="332.3359"/><line style="stroke:#000000;stroke-width:1.0;" x1="210" x2="210" y1="242.5313" y2="260.4922"/><line style="stroke:#000000;stroke-width:1.0;" x1="578" x2="578" y1="242.5313" y2="260.4922"/><line style="stroke:#000000;stroke-width:1.0;" x1="210" x2="210" y1="168.6875" y2="186.6484"/><line style="stroke:#000000;stroke-width:1.0;" x1="578" x2="578" y1="168.6875" y2="186.6484"/><line style="stroke:#000000;stroke-width:1.0;" x1="210" x2="210" y1="96.8438" y2="114.8047"/><line style="stroke:#000000;stroke-width:1.0;" x1="578" x2="578" y1="96.8438" y2="114.8047"/><line style="stroke:#000000;stroke-width:1.0;" x1="210" x2="210" y1="368.2578" y2="386.2188"/><line style="stroke:#000000;stroke-width:1.0;" x1="578" x2="578" y1="368.2578" y2="386.2188"/><line style="stroke:#000000;stroke-width:1.0;" x1="210" x2="210" y1="34.9609" y2="42.9609"/><line style="stroke:#000000;stroke-width:1.0;" x1="578" x2="578" y1="34.9609" y2="42.9609"/><line style="stroke:#000000;stroke-width:1.0;" x1="210" x2="210" y1="296.4141" y2="314.375"/><line style="stroke:#000000;stroke-width:1.0;" x1="578" x2="578" y1="296.4141" y2="314.375"/><line style="stroke:#000000;stroke-width:1.0;" x1="210" x2="210" y1="222.5703" y2="242.5313"/><line style="stroke:#000000;stroke-width:1.0;" x1="578" x2="578" y1="222.5703" y2="242.5313"/><line style="stroke:#000000;stroke-width:1.0;" x1="210" x2="210" y1="150.7266" y2="168.6875"/><line style="stroke:#000000;stroke-width:1.0;" x1="578" x2="578" y1="150.7266" y2="168.6875"/><line style="stroke:#000000;stroke-width:1.0;" x1="210" x2="210" y1="422.1406" y2="440.1016"/><line style="stroke:#000000;stroke-width:1.0;" x1="578" x2="578" y1="422.1406" y2="440.1016"/><line style="stroke:#000000;stroke-width:1.0;" x1="210" x2="210" y1="78.8828" y2="96.8438"/><line style="stroke:#000000;stroke-width:1.0;" x1="578" x2="578" y1="78.8828" y2="96.8438"/><line style="stroke:#000000;stroke-width:1.0;" x1="210" x2="210" y1="350.2969" y2="368.2578"/><line style="stroke:#000000;stroke-width:1.0;" x1="578" x2="578" y1="350.2969" y2="368.2578"/><!--SRC=[jLHHQzj037w_No7Omrf2JEok6pDfw1QtWooX9Ur2OEpXSb72CVVEdC-6pir_sQltD_p79gVsagnE6IaJTx9EI4BI9_ayjjpOc8UMPGmWQn63KbfJTzRhBhIo87IepTdIu3t4yWUUUPrUduUevaQYWVbhBgnCfItoslDg5gD9kSN4r2hdYT1krz878HAKOIa-D1Ws9-5sUZTSnX9XJaShLUGOFuqDsUqVSOjQtHaNt_rNGH1irH8t5RFZreBcoi7hU2VRsUzwxRWzQsKiDXYiwlV-TZuh_7jFnqM-A7A3oaeC6_gvYRNHtH00HIu80nIM2doaXx-XNh7jyTgRmGIcqocqeVW9aT6HZbdLW5KPakxZc49M3kWUx2hB3Jlm_e_pbT9kVQiWhPhel81dXvTtqANqBr4Llwn10aWg8IC2eQh7UH5VVogOsOgT4xJhdnEx3hcoNqP3I0begHMuJhbmZdjoDA9NW09S5zptljVnJzz1_-9slP37xEZJzH1YdHX1CofZQ-GiiHJWc0ruoc6Sq9pVeGzN4Qf1yBbMm8LAfT7gZlQ03IQZZS7RD-sFqjB86qe59YCMu88deIKFeUTIBNteHwvtwh4XLyk4Bodumh2-fi3cteVByMy0]--></g></svg>