<?xml version="1.0" encoding="us-ascii" standalone="no"?><svg xmlns="http://www.w3.org/2000/svg" xmlns:xlink="http://www.w3.org/1999/xlink" contentStyleType="text/css" height="305px" preserveAspectRatio="none" style="width:994px;height:305px;background:#FFFFFF;" version="1.1" viewBox="0 0 994 305" width="994px" zoomAndPan="magnify"><defs/><g><text fill="#000000" font-family="sans-serif" font-size="12" font-weight="bold" lengthAdjust="spacing" textLength="120" x="7" y="19.9492">Calendriers d'activit&#233;</text><rect fill="#EEEEEE" height="19.9609" rx="5" ry="5" style="stroke:#000000;stroke-width:2.5;" width="148" x="717.5" y="10.5"/><text fill="#000000" font-family="sans-serif" font-size="12" lengthAdjust="spacing" textLength="27" x="752" y="25.4492">Filtre</text><path d="M784.5,17.4609 L783,18.9609 L787,22.9609 L791,18.9609 L789.5,17.4609 L787,19.9609 L784.5,17.4609 " fill="#000000" style="stroke:;stroke-width:0.0;stroke-dasharray:;"/><text fill="#000000" font-family="sans-serif" font-size="12" lengthAdjust="spacing" textLength="3" x="792" y="25.4492">&#160;</text><path d="M797,17.4609 C796.93,17.4609 796.87,17.4709 796.81,17.4909 C796.42,17.5709 796.11,17.8809 796.03,18.2709 C796,18.3309 796,18.3909 796,18.4609 L796,23.9609 C796,24.7909 796.67,25.4609 797.5,25.4609 L803,25.4609 L803,24.4609 L797.5,24.4609 C797.22,24.4609 797,24.2409 797,23.9609 C797,23.6809 797.22,23.4609 797.5,23.4609 L803,23.4609 L803,17.9609 C803,17.6809 802.78,17.4609 802.5,17.4609 L802,17.4609 L802,20.4609 L801,19.4609 L800,20.4609 L800,17.4609 L797,17.4609 " fill="#000000" style="stroke:;stroke-width:0.0;stroke-dasharray:;"/><text fill="#000000" font-family="sans-serif" font-size="12" lengthAdjust="spacing" textLength="3" x="805" y="25.4492">&#160;</text><path d="M812,17.4609 C811.45,17.4609 811,17.9109 811,18.4609 L810,18.4609 C809.45,18.4609 809,18.9109 809,19.4609 L816,19.4609 C816,18.9109 815.55,18.4609 815,18.4609 L814,18.4609 C814,17.9109 813.55,17.4609 813,17.4609 L812,17.4609 M810,20.4609 L810,25.2709 C810,25.3809 810.08,25.4609 810.19,25.4609 L814.82,25.4609 C814.93,25.4609 815.01,25.3809 815.01,25.2709 L815.01,20.4609 L814.01,20.4609 L814.01,23.9609 C814.01,24.2409 813.79,24.4609 813.51,24.4609 C813.23,24.4609 813.01,24.2409 813.01,23.9609 L813.01,20.4609 L812.01,20.4609 L812.01,23.9609 C812.01,24.2409 811.79,24.4609 811.51,24.4609 C811.23,24.4609 811.01,24.2409 811.01,23.9609 L811.01,20.4609 L810.01,20.4609 " fill="#000000" style="stroke:;stroke-width:0.0;stroke-dasharray:;"/><text fill="#000000" font-family="sans-serif" font-size="12" lengthAdjust="spacing" textLength="3" x="818" y="25.4492">&#160;</text><path d="M822,17.4609 L822,18.4609 L830,18.4609 L830,17.4609 L822,17.4609 M822,20.4309 L822,21.4309 L830,21.4309 L830,20.4309 L822,20.4309 M822,23.4309 L822,24.4309 L830,24.4309 L830,23.4309 L822,23.4309 " fill="#000000" style="stroke:;stroke-width:0.0;stroke-dasharray:;"/><path d="M875,11.9609 L875,14.9609 L872,14.9609 L872,16.9609 L875,16.9609 L875,19.9609 L877,19.9609 L877,16.9609 L880,16.9609 L880,14.9609 L877,14.9609 L877,11.9609 L875,11.9609 " fill="#000000" style="stroke:;stroke-width:0.0;stroke-dasharray:;"/><text fill="#000000" font-family="sans-serif" font-size="12" lengthAdjust="spacing" textLength="3" x="881" y="19.9492">&#160;</text><path d="M889,11.9609 C886.8,11.9609 885,13.7609 885,15.9609 C885,18.1609 886.8,19.9609 889,19.9609 C890.1,19.9609 891.12,19.5309 891.84,18.8009 L891.12,18.0809 C890.58,18.6209 889.83,18.9609 888.99,18.9609 C887.33,18.9609 885.99,17.6209 885.99,15.9609 C885.99,14.3009 887.33,12.9609 888.99,12.9609 C889.82,12.9609 890.54,13.3209 891.08,13.8709 L889.99,14.9609 L892.99,14.9609 L892.99,11.9609 L891.8,13.1509 C891.08,12.4309 890.09,11.9609 888.99,11.9609 " fill="#000000" style="stroke:;stroke-width:0.0;stroke-dasharray:;"/><text fill="#000000" font-family="sans-serif" font-size="12" lengthAdjust="spacing" textLength="7" x="897" y="19.9492">Y</text><rect fill="#EEEEEE" height="19.9609" rx="5" ry="5" style="stroke:#000000;stroke-width:2.5;" width="60" x="909.5" y="10.5"/><text fill="#000000" font-family="sans-serif" font-size="12" lengthAdjust="spacing" textLength="28" x="919" y="25.4492">2022</text><path d="M952.5,17.4609 L951,18.9609 L955,22.9609 L959,18.9609 L957.5,17.4609 L955,19.9609 L952.5,17.4609 " fill="#000000" style="stroke:;stroke-width:0.0;stroke-dasharray:;"/><path d="M976,7 L976,8 L984,8 L984,7 L976,7 M976,9.97 L976,10.97 L984,10.97 L984,9.97 L976,9.97 M976,12.97 L976,13.97 L984,13.97 L984,12.97 L976,12.97 " fill="#000000" style="stroke:;stroke-width:0.0;stroke-dasharray:;"/><line style="stroke:#AAAAAA;stroke-width:1.0;" x1="6" x2="987" y1="40.4609" y2="40.4609"/><text fill="#000000" font-family="sans-serif" font-size="12" lengthAdjust="spacing" textLength="134" x="7" y="58.9102">Programme de collecte :</text><rect fill="#EEEEEE" height="18.9609" style="stroke:#000000;stroke-width:1.0;" width="327" x="168" y="45.9609"/><text fill="#000000" font-family="sans-serif" font-size="12" lengthAdjust="spacing" textLength="196" x="170" y="60.9102">SIH-ACTIFLOT - Activit&#233; des flottilles</text><line style="stroke:#000000;stroke-width:1.0;" x1="484" x2="484" y1="45.9609" y2="64.9219"/><polygon fill="#000000" points="487,51.9609,493,51.9609,490,59.9219" style="stroke:#000000;stroke-width:1.0;"/><text fill="#000000" font-family="sans-serif" font-size="12" lengthAdjust="spacing" textLength="127" x="7" y="98.832">Lieu d'immatriculation :</text><rect fill="#EEEEEE" height="18.9609" style="stroke:#000000;stroke-width:1.0;" width="327" x="168" y="85.8828"/><text fill="#000000" font-family="sans-serif" font-size="12" lengthAdjust="spacing" textLength="76" x="170" y="100.832">MA - Marseille</text><line style="stroke:#000000;stroke-width:1.0;" x1="484" x2="484" y1="85.8828" y2="104.8438"/><polygon fill="#000000" points="487,91.8828,493,91.8828,490,99.8438" style="stroke:#000000;stroke-width:1.0;"/><text fill="#000000" font-family="sans-serif" font-size="12" lengthAdjust="spacing" textLength="102" x="508" y="98.832">Port d'exploitation :</text><rect fill="#EEEEEE" height="18.9609" style="stroke:#000000;stroke-width:1.0;" width="327" x="652" y="85.8828"/><text fill="#000000" font-family="sans-serif" font-size="12" lengthAdjust="spacing" textLength="182" x="654" y="100.832">JMA - La Madrague de Montredon</text><line style="stroke:#000000;stroke-width:1.0;" x1="968" x2="968" y1="85.8828" y2="104.8438"/><polygon fill="#000000" points="971,91.8828,977,91.8828,974,99.8438" style="stroke:#000000;stroke-width:1.0;"/><text fill="#000000" font-family="sans-serif" font-size="12" lengthAdjust="spacing" textLength="85" x="7" y="138.7539">Type de navire :</text><rect fill="#EEEEEE" height="18.9609" style="stroke:#000000;stroke-width:1.0;" width="327" x="168" y="125.8047"/><text fill="#000000" font-family="sans-serif" font-size="12" lengthAdjust="spacing" textLength="168" x="170" y="140.7539">Navire de p&#234;che professionnel</text><line style="stroke:#000000;stroke-width:1.0;" x1="484" x2="484" y1="125.8047" y2="144.7656"/><polygon fill="#000000" points="487,131.8047,493,131.8047,490,139.7656" style="stroke:#000000;stroke-width:1.0;"/><text fill="#000000" font-family="sans-serif" font-size="12" lengthAdjust="spacing" textLength="41" x="508" y="138.7539">Navire :</text><rect fill="#EEEEEE" height="18.9609" style="stroke:#000000;stroke-width:1.0;" width="327" x="652" y="125.8047"/><text fill="#000000" font-family="sans-serif" font-size="12" lengthAdjust="spacing" textLength="94" x="654" y="140.7539">123456 - SONNY</text><line style="stroke:#000000;stroke-width:1.0;" x1="968" x2="968" y1="125.8047" y2="144.7656"/><polygon fill="#000000" points="971,131.8047,977,131.8047,974,139.7656" style="stroke:#000000;stroke-width:1.0;"/><text fill="#000000" font-family="sans-serif" font-size="12" lengthAdjust="spacing" textLength="154" x="7" y="178.6758">Objectif d'enqu&#234;te directe ? :</text><rect fill="#EEEEEE" height="18.9609" style="stroke:#000000;stroke-width:1.0;" width="327" x="168" y="165.7266"/><text fill="#000000" font-family="sans-serif" font-size="12" lengthAdjust="spacing" textLength="19" x="170" y="180.6758">Oui</text><line style="stroke:#000000;stroke-width:1.0;" x1="484" x2="484" y1="165.7266" y2="184.6875"/><polygon fill="#000000" points="487,171.7266,493,171.7266,490,179.6875" style="stroke:#000000;stroke-width:1.0;"/><text fill="#000000" font-family="sans-serif" font-size="12" lengthAdjust="spacing" textLength="137" x="508" y="178.6758">Objectif d'enqu&#234;te &#233;co ? :</text><text fill="#000000" font-family="sans-serif" font-size="12" lengthAdjust="spacing" textLength="19" x="673" y="179.6758">Oui</text><ellipse cx="660" cy="174.707" fill="none" rx="5" ry="5" style="stroke:#000000;stroke-width:1.5;"/><text fill="#000000" font-family="sans-serif" font-size="12" font-weight="bold" lengthAdjust="spacing" textLength="22" x="714" y="179.6758">Non</text><ellipse cx="701" cy="174.707" fill="none" rx="5" ry="5" style="stroke:#000000;stroke-width:1.5;"/><ellipse cx="701" cy="174.707" fill="#000000" rx="2" ry="2" style="stroke:#000000;stroke-width:1.5;"/><text fill="#000000" font-family="sans-serif" font-size="12" lengthAdjust="spacing" textLength="136" x="7" y="218.5977">Organisme observateur :</text><rect fill="#EEEEEE" height="18.9609" style="stroke:#000000;stroke-width:1.0;" width="327" x="168" y="205.6484"/><text fill="#000000" font-family="sans-serif" font-size="12" lengthAdjust="spacing" textLength="39" x="170" y="220.5977">Ifremer</text><line style="stroke:#000000;stroke-width:1.0;" x1="484" x2="484" y1="205.6484" y2="224.6094"/><polygon fill="#000000" points="487,211.6484,493,211.6484,490,219.6094" style="stroke:#000000;stroke-width:1.0;"/><text fill="#000000" font-family="sans-serif" font-size="12" lengthAdjust="spacing" textLength="73" x="508" y="218.5977">Observateur :</text><rect fill="#EEEEEE" height="18.9609" style="stroke:#000000;stroke-width:1.0;" width="327" x="652" y="205.6484"/><text fill="#000000" font-family="sans-serif" font-size="12" lengthAdjust="spacing" textLength="98" x="654" y="220.5977">Nicolas DUPOND</text><line style="stroke:#000000;stroke-width:1.0;" x1="968" x2="968" y1="205.6484" y2="224.6094"/><polygon fill="#000000" points="971,211.6484,977,211.6484,974,219.6094" style="stroke:#000000;stroke-width:1.0;"/><text fill="#000000" font-family="sans-serif" font-size="12" lengthAdjust="spacing" textLength="27" x="7" y="258.5195">Etat :</text><rect fill="#EEEEEE" height="18.9609" style="stroke:#000000;stroke-width:1.0;" width="327" x="168" y="245.5703"/><text fill="#000000" font-family="sans-serif" font-size="12" lengthAdjust="spacing" textLength="42" x="170" y="260.5195">Qualifi&#233;</text><line style="stroke:#000000;stroke-width:1.0;" x1="484" x2="484" y1="245.5703" y2="264.5313"/><polygon fill="#000000" points="487,251.5703,493,251.5703,490,259.5313" style="stroke:#000000;stroke-width:1.0;"/><text fill="#000000" font-family="sans-serif" font-size="12" lengthAdjust="spacing" textLength="101" x="508" y="258.5195">Niveau de qualit&#233; :</text><rect fill="#EEEEEE" height="18.9609" style="stroke:#000000;stroke-width:1.0;" width="327" x="652" y="245.5703"/><text fill="#000000" font-family="sans-serif" font-size="12" lengthAdjust="spacing" textLength="3" x="654" y="260.5195">&#160;</text><line style="stroke:#000000;stroke-width:1.0;" x1="968" x2="968" y1="245.5703" y2="264.5313"/><polygon fill="#000000" points="971,251.5703,977,251.5703,974,259.5313" style="stroke:#000000;stroke-width:1.0;"/><line style="stroke:#AAAAAA;stroke-width:1.0;" x1="6" x2="987" y1="272.0313" y2="272.0313"/><text fill="#000000" font-family="sans-serif" font-size="12" lengthAdjust="spacing" textLength="58" x="7" y="290.4805">2 r&#233;sultats</text><rect fill="#EEEEEE" height="12" rx="5" ry="5" style="stroke:#000000;stroke-width:2.5;" width="20" x="71.5" y="280.0313"/><path d="M77.5,282.0313 L81.5,286.0313 L85.5,282.0313 L77.5,282.0313 " fill="#000000" style="stroke:;stroke-width:0.0;stroke-dasharray:;"/><rect fill="#EEEEEE" height="19.9609" rx="5" ry="5" style="stroke:#000000;stroke-width:2.5;" width="52" x="98.5" y="280.0313"/><text fill="#000000" font-family="sans-serif" font-size="12" lengthAdjust="spacing" textLength="40" x="104.5" y="294.9805">Fermer</text><rect fill="#EEEEEE" height="19.9609" rx="5" ry="5" style="stroke:#000000;stroke-width:2.5;" width="76" x="157.5" y="280.0313"/><text fill="#000000" font-family="sans-serif" font-size="12" lengthAdjust="spacing" textLength="52" x="169.5" y="294.9805">Appliquer</text><!--SRC=[rLJRRjf047ttLynJ2m-WsBbKHH4DXT26Wg49YHf5HLhiDTbslMlsOZKY_g3aD_YnpZeD8IbHqiTQihoxdZrpvdBcG1kYZ2RSU0lF0rZiJvjjmgc85QDAG_oMH8Rbp2nluFz_zj_e9iPuqMNSA8hRw9BcIehQL1eZqoQUJANywRv64Ntf5YaLjlczm5N6hNOdYd99uYQS8rAm5GH_uvJcvSK2SmgrcaijElRkYOoKd2cIfXHY2f7ad4Q6GWEkeOxl14wEFjTQxV5HjpySGmrQgnh4L4F2qGl3Etgo0golLdr6BPQDfIanYaMM4yEaMCCUj11nG9Ic3kEvL4t-sBjt99L1IFehuvAP9tYz4gzF439MP6RBa0PIO89Zj5lXRQ0wlifAQq5ofjR33-yEy5UslCNSGgPaGhL6nuBoZHp3fnX-iBspkuVKJePXUFvic1je3QS_i1miSI6BkLtUOcbY17Sb-e0UuCx7P6ZPQvfkSWqhbfkWbpUHNCU51LIguC2leVAj2gZ8K8fY4r4r8u9fx28vrLJbn52hrWZ2KQ9eIjLB1E4Hmmr8hYGCsvHew9oEXc7dNz9vY1tpK9Ulbd2Mi1V7oIDI8SifiQuVvkww4y8wjzSzTzmA9qKK92m2KCiRRJdIqwZDuW9bJ1GrAn4ZzaMNAanWkMnb6MTpYxkYy0hl06TaEJUz4IV2d0xwaEF4TDhmwpWMjkl-TWLr01qQWU-3_xuHR3Lstq7xS0pkVzMhV1hrGKkh8jTW6kKwjKvSLQz7SWB7LXYMqWOCCofwdI_t1t0eiDUbm05ZlDxPuC5WRwVsaHaumGfYrSy6NeSc12F46v6CcPWre9tvmMxWzOcOMJ93y4HvROd0wge1tUFV]--></g></svg>