<?xml version="1.0" encoding="us-ascii" standalone="no"?><svg xmlns="http://www.w3.org/2000/svg" xmlns:xlink="http://www.w3.org/1999/xlink" contentStyleType="text/css" height="450px" preserveAspectRatio="none" style="width:1185px;height:450px;background:#FFFFFF;" version="1.1" viewBox="0 0 1185 450" width="1185px" zoomAndPan="magnify"><defs/><g><text fill="#000000" font-family="sans-serif" font-size="12" lengthAdjust="spacing" textLength="41" x="6" y="18.9492">Navire :</text><text fill="#000000" font-family="sans-serif" font-size="12" font-weight="bold" lengthAdjust="spacing" textLength="206" x="50" y="18.9492">SONNY - 123456 - MA - 7,81 m - 2022</text><line style="stroke:#AAAAAA;stroke-width:1.0;" x1="6" x2="1178" y1="27.4609" y2="27.4609"/><text fill="#000000" font-family="sans-serif" font-size="12" lengthAdjust="spacing" textLength="44" x="8" y="44.9102">G&#233;n&#233;ral</text><line style="stroke:#000000;stroke-width:1.0;" x1="6" x2="6" y1="31.9609" y2="47.9219"/><line style="stroke:#000000;stroke-width:1.0;" x1="6" x2="55" y1="31.9609" y2="31.9609"/><line style="stroke:#000000;stroke-width:1.0;" x1="55" x2="55" y1="31.9609" y2="47.9219"/><line style="stroke:#000000;stroke-width:1.0;" x1="55" x2="65" y1="47.9219" y2="47.9219"/><text fill="#000000" font-family="sans-serif" font-size="12" font-weight="bold" lengthAdjust="spacing" textLength="36" x="67" y="44.9102">Navire</text><line style="stroke:#000000;stroke-width:1.0;" x1="65" x2="65" y1="31.9609" y2="47.9219"/><line style="stroke:#000000;stroke-width:1.0;" x1="65" x2="106" y1="31.9609" y2="31.9609"/><line style="stroke:#000000;stroke-width:1.0;" x1="106" x2="106" y1="31.9609" y2="47.9219"/><line style="stroke:#000000;stroke-width:1.0;" x1="106" x2="116" y1="47.9219" y2="47.9219"/><text fill="#000000" font-family="sans-serif" font-size="12" lengthAdjust="spacing" textLength="58" x="118" y="44.9102">Calendrier</text><line style="stroke:#000000;stroke-width:1.0;" x1="116" x2="116" y1="31.9609" y2="47.9219"/><line style="stroke:#000000;stroke-width:1.0;" x1="116" x2="179" y1="31.9609" y2="31.9609"/><line style="stroke:#000000;stroke-width:1.0;" x1="179" x2="179" y1="31.9609" y2="47.9219"/><line style="stroke:#000000;stroke-width:1.0;" x1="179" x2="189" y1="47.9219" y2="47.9219"/><text fill="#000000" font-family="sans-serif" font-size="12" lengthAdjust="spacing" textLength="40" x="191" y="44.9102">M&#233;tiers</text><line style="stroke:#000000;stroke-width:1.0;" x1="189" x2="189" y1="31.9609" y2="47.9219"/><line style="stroke:#000000;stroke-width:1.0;" x1="189" x2="234" y1="31.9609" y2="31.9609"/><line style="stroke:#000000;stroke-width:1.0;" x1="234" x2="234" y1="31.9609" y2="47.9219"/><line style="stroke:#000000;stroke-width:1.0;" x1="234" x2="244" y1="47.9219" y2="47.9219"/><text fill="#000000" font-family="sans-serif" font-size="12" lengthAdjust="spacing" textLength="30" x="246" y="44.9102">Carte</text><line style="stroke:#000000;stroke-width:1.0;" x1="244" x2="244" y1="31.9609" y2="47.9219"/><line style="stroke:#000000;stroke-width:1.0;" x1="244" x2="279" y1="31.9609" y2="31.9609"/><line style="stroke:#000000;stroke-width:1.0;" x1="279" x2="279" y1="31.9609" y2="47.9219"/><line style="stroke:#000000;stroke-width:1.0;" x1="279" x2="289" y1="47.9219" y2="47.9219"/><line style="stroke:#AAAAAA;stroke-width:1.0;stroke-dasharray:1.0,2.0;" x1="6" x2="1178" y1="53.4219" y2="53.4219"/><path d="M13,62.8828 C10.8,62.8828 9,64.6828 9,66.8828 C9,69.0828 10.8,70.8828 13,70.8828 C15.2,70.8828 17,69.0828 17,66.8828 C17,64.6828 15.2,62.8828 13,62.8828 M13,63.8828 C14.66,63.8828 16,65.2228 16,66.8828 C16,68.5428 14.66,69.8828 13,69.8828 C11.34,69.8828 10,68.5428 10,66.8828 C10,65.2228 11.34,63.8828 13,63.8828 M12.5,64.8828 L12.5,67.1028 L12.66,67.2328 L13.16,67.7328 L13.5,68.1128 L14.22,67.3928 L13.84,67.0528 L13.5,66.7128 L13.5,64.9028 L12.5,64.9028 " fill="#000000" style="stroke:;stroke-width:0.0;stroke-dasharray:;"/><text fill="#000000" font-family="sans-serif" font-size="12" font-weight="bold" lengthAdjust="spacing" textLength="58" x="18" y="70.8711">Historique</text><line style="stroke:#000000;stroke-width:1.0;" x1="6" x2="6" y1="57.9219" y2="73.8828"/><line style="stroke:#000000;stroke-width:1.0;" x1="6" x2="79" y1="57.9219" y2="57.9219"/><line style="stroke:#000000;stroke-width:1.0;" x1="79" x2="79" y1="57.9219" y2="73.8828"/><line style="stroke:#000000;stroke-width:1.0;" x1="79" x2="89" y1="73.8828" y2="73.8828"/><path d="M96.09,62.8828 C96.04,62.8828 95.99,62.9228 95.96,62.9728 L95.02,64.7828 C95,64.8328 94.95,64.8728 94.89,64.8728 L93.48,64.8728 C92.65,64.8728 91.98,65.5428 91.98,66.3728 L91.98,70.7828 C91.98,70.8328 92.02,70.8728 92.07,70.8728 L99.88,70.8728 C99.93,70.8728 99.97,70.8328 99.97,70.7828 L99.97,64.9728 C99.97,64.9128 99.93,64.8828 99.88,64.8828 L99.07,64.8828 C99.02,64.8828 98.97,64.8428 98.94,64.7928 L98,62.9828 C97.97,62.9328 97.93,62.8928 97.87,62.8928 L96.06,62.8928 M93.5,65.8828 C93.78,65.8828 94,66.1028 94,66.3828 C94,66.6628 93.78,66.8828 93.5,66.8828 C93.22,66.8828 93,66.6628 93,66.3828 C93,66.1028 93.22,65.8828 93.5,65.8828 M97,65.8828 C98.1,65.8828 99,66.7828 99,67.8828 C99,68.9828 98.1,69.8828 97,69.8828 C95.9,69.8828 95,68.9828 95,67.8828 C95,66.7828 95.9,65.8828 97,65.8828 M97,66.8828 C96.45,66.8828 96,67.3328 96,67.8828 C96,68.4328 96.45,68.8828 97,68.8828 C97.55,68.8828 98,68.4328 98,67.8828 C98,67.3328 97.55,66.8828 97,66.8828 " fill="#000000" style="stroke:;stroke-width:0.0;stroke-dasharray:;"/><text fill="#000000" font-family="sans-serif" font-size="12" lengthAdjust="spacing" textLength="39" x="101" y="70.8711">Photos</text><line style="stroke:#000000;stroke-width:1.0;" x1="89" x2="89" y1="57.9219" y2="73.8828"/><line style="stroke:#000000;stroke-width:1.0;" x1="89" x2="143" y1="57.9219" y2="57.9219"/><line style="stroke:#000000;stroke-width:1.0;" x1="143" x2="143" y1="57.9219" y2="73.8828"/><line style="stroke:#000000;stroke-width:1.0;" x1="143" x2="153" y1="73.8828" y2="73.8828"/><line style="stroke:#AAAAAA;stroke-width:1.0;stroke-dasharray:1.0,2.0;" x1="6" x2="1178" y1="79.3828" y2="79.3828"/><text fill="#000000" font-family="sans-serif" font-size="12" lengthAdjust="spacing" textLength="127" x="14" y="99.832">Caract&#233;ristiques navire</text><text fill="#000000" font-family="sans-serif" font-size="12" lengthAdjust="spacing" textLength="74" x="15" y="118.793">D&#233;but validit&#233;</text><text fill="#000000" font-family="sans-serif" font-size="12" lengthAdjust="spacing" textLength="58" x="91" y="118.793">Fin validit&#233;</text><text fill="#000000" font-family="sans-serif" font-size="12" lengthAdjust="spacing" textLength="105" x="155" y="118.793">Marquage ext&#233;rieur</text><text fill="#000000" font-family="sans-serif" font-size="12" lengthAdjust="spacing" textLength="27" x="262" y="118.793">Nom</text><text fill="#000000" font-family="sans-serif" font-size="12" lengthAdjust="spacing" textLength="34" x="306" y="118.793">FPC ?</text><text fill="#000000" font-family="sans-serif" font-size="12" lengthAdjust="spacing" textLength="167" x="342" y="118.793">Puissance administrative (kW)</text><text fill="#000000" font-family="sans-serif" font-size="12" lengthAdjust="spacing" textLength="126" x="511" y="118.793">Longueur hors tout (m)</text><text fill="#000000" font-family="sans-serif" font-size="12" lengthAdjust="spacing" textLength="146" x="639" y="118.793">Tonnage jauge brute (TJB)</text><text fill="#000000" font-family="sans-serif" font-size="12" lengthAdjust="spacing" textLength="86" x="787" y="118.793">Tonnage (UMS)</text><text fill="#000000" font-family="sans-serif" font-size="12" lengthAdjust="spacing" textLength="114" x="875" y="118.793">Mat&#233;riau de la coque</text><text fill="#000000" font-family="sans-serif" font-size="12" lengthAdjust="spacing" textLength="96" x="991" y="118.793">Port d'exploitation</text><text fill="#000000" font-family="sans-serif" font-size="12" lengthAdjust="spacing" textLength="62" x="15" y="136.7539">06/04/2021</text><text fill="#000000" font-family="sans-serif" font-size="12" lengthAdjust="spacing" textLength="62" x="91" y="136.7539">31/12/2022</text><text fill="#000000" font-family="sans-serif" font-size="12" lengthAdjust="spacing" textLength="42" x="155" y="136.7539">123456</text><text fill="#000000" font-family="sans-serif" font-size="12" lengthAdjust="spacing" textLength="42" x="262" y="136.7539">SONNY</text><text fill="#000000" font-family="sans-serif" font-size="12" lengthAdjust="spacing" textLength="19" x="306" y="136.7539">Oui</text><text fill="#000000" font-family="sans-serif" font-size="12" lengthAdjust="spacing" textLength="14" x="342" y="136.7539">66</text><text fill="#000000" font-family="sans-serif" font-size="12" lengthAdjust="spacing" textLength="7" x="511" y="136.7539">9</text><text fill="#000000" font-family="sans-serif" font-size="12" lengthAdjust="spacing" textLength="17" x="639" y="136.7539">5.6</text><text fill="#000000" font-family="sans-serif" font-size="12" lengthAdjust="spacing" textLength="17" x="787" y="136.7539">3.2</text><text fill="#000000" font-family="sans-serif" font-size="12" lengthAdjust="spacing" textLength="25" x="875" y="136.7539">Bois</text><text fill="#000000" font-family="sans-serif" font-size="12" lengthAdjust="spacing" textLength="182" x="991" y="136.7539">JMA - La Madrague de Montredon</text><line style="stroke:#000000;stroke-width:1.0;" x1="14" x2="90" y1="104.8438" y2="104.8438"/><line style="stroke:#000000;stroke-width:1.0;" x1="90" x2="154" y1="104.8438" y2="104.8438"/><line style="stroke:#000000;stroke-width:1.0;" x1="154" x2="261" y1="104.8438" y2="104.8438"/><line style="stroke:#000000;stroke-width:1.0;" x1="261" x2="305" y1="104.8438" y2="104.8438"/><line style="stroke:#000000;stroke-width:1.0;" x1="305" x2="341" y1="104.8438" y2="104.8438"/><line style="stroke:#000000;stroke-width:1.0;" x1="341" x2="510" y1="104.8438" y2="104.8438"/><line style="stroke:#000000;stroke-width:1.0;" x1="510" x2="638" y1="104.8438" y2="104.8438"/><line style="stroke:#000000;stroke-width:1.0;" x1="638" x2="786" y1="104.8438" y2="104.8438"/><line style="stroke:#000000;stroke-width:1.0;" x1="786" x2="874" y1="104.8438" y2="104.8438"/><line style="stroke:#000000;stroke-width:1.0;" x1="874" x2="990" y1="104.8438" y2="104.8438"/><line style="stroke:#000000;stroke-width:1.0;" x1="990" x2="1174" y1="104.8438" y2="104.8438"/><line style="stroke:#000000;stroke-width:1.0;" x1="14" x2="90" y1="140.7656" y2="140.7656"/><line style="stroke:#000000;stroke-width:1.0;" x1="90" x2="154" y1="140.7656" y2="140.7656"/><line style="stroke:#000000;stroke-width:1.0;" x1="154" x2="261" y1="140.7656" y2="140.7656"/><line style="stroke:#000000;stroke-width:1.0;" x1="261" x2="305" y1="140.7656" y2="140.7656"/><line style="stroke:#000000;stroke-width:1.0;" x1="305" x2="341" y1="140.7656" y2="140.7656"/><line style="stroke:#000000;stroke-width:1.0;" x1="341" x2="510" y1="140.7656" y2="140.7656"/><line style="stroke:#000000;stroke-width:1.0;" x1="510" x2="638" y1="140.7656" y2="140.7656"/><line style="stroke:#000000;stroke-width:1.0;" x1="638" x2="786" y1="140.7656" y2="140.7656"/><line style="stroke:#000000;stroke-width:1.0;" x1="786" x2="874" y1="140.7656" y2="140.7656"/><line style="stroke:#000000;stroke-width:1.0;" x1="874" x2="990" y1="140.7656" y2="140.7656"/><line style="stroke:#000000;stroke-width:1.0;" x1="990" x2="1174" y1="140.7656" y2="140.7656"/><line style="stroke:#000000;stroke-width:1.0;" x1="14" x2="90" y1="122.8047" y2="122.8047"/><line style="stroke:#000000;stroke-width:1.0;" x1="90" x2="154" y1="122.8047" y2="122.8047"/><line style="stroke:#000000;stroke-width:1.0;" x1="154" x2="261" y1="122.8047" y2="122.8047"/><line style="stroke:#000000;stroke-width:1.0;" x1="261" x2="305" y1="122.8047" y2="122.8047"/><line style="stroke:#000000;stroke-width:1.0;" x1="305" x2="341" y1="122.8047" y2="122.8047"/><line style="stroke:#000000;stroke-width:1.0;" x1="341" x2="510" y1="122.8047" y2="122.8047"/><line style="stroke:#000000;stroke-width:1.0;" x1="510" x2="638" y1="122.8047" y2="122.8047"/><line style="stroke:#000000;stroke-width:1.0;" x1="638" x2="786" y1="122.8047" y2="122.8047"/><line style="stroke:#000000;stroke-width:1.0;" x1="786" x2="874" y1="122.8047" y2="122.8047"/><line style="stroke:#000000;stroke-width:1.0;" x1="874" x2="990" y1="122.8047" y2="122.8047"/><line style="stroke:#000000;stroke-width:1.0;" x1="990" x2="1174" y1="122.8047" y2="122.8047"/><line style="stroke:#000000;stroke-width:1.0;" x1="14" x2="14" y1="104.8438" y2="122.8047"/><line style="stroke:#000000;stroke-width:1.0;" x1="90" x2="90" y1="104.8438" y2="122.8047"/><line style="stroke:#000000;stroke-width:1.0;" x1="154" x2="154" y1="104.8438" y2="122.8047"/><line style="stroke:#000000;stroke-width:1.0;" x1="261" x2="261" y1="104.8438" y2="122.8047"/><line style="stroke:#000000;stroke-width:1.0;" x1="305" x2="305" y1="104.8438" y2="122.8047"/><line style="stroke:#000000;stroke-width:1.0;" x1="341" x2="341" y1="104.8438" y2="122.8047"/><line style="stroke:#000000;stroke-width:1.0;" x1="510" x2="510" y1="104.8438" y2="122.8047"/><line style="stroke:#000000;stroke-width:1.0;" x1="638" x2="638" y1="104.8438" y2="122.8047"/><line style="stroke:#000000;stroke-width:1.0;" x1="786" x2="786" y1="104.8438" y2="122.8047"/><line style="stroke:#000000;stroke-width:1.0;" x1="874" x2="874" y1="104.8438" y2="122.8047"/><line style="stroke:#000000;stroke-width:1.0;" x1="990" x2="990" y1="104.8438" y2="122.8047"/><line style="stroke:#000000;stroke-width:1.0;" x1="1174" x2="1174" y1="104.8438" y2="122.8047"/><line style="stroke:#000000;stroke-width:1.0;" x1="14" x2="14" y1="122.8047" y2="140.7656"/><line style="stroke:#000000;stroke-width:1.0;" x1="90" x2="90" y1="122.8047" y2="140.7656"/><line style="stroke:#000000;stroke-width:1.0;" x1="154" x2="154" y1="122.8047" y2="140.7656"/><line style="stroke:#000000;stroke-width:1.0;" x1="261" x2="261" y1="122.8047" y2="140.7656"/><line style="stroke:#000000;stroke-width:1.0;" x1="305" x2="305" y1="122.8047" y2="140.7656"/><line style="stroke:#000000;stroke-width:1.0;" x1="341" x2="341" y1="122.8047" y2="140.7656"/><line style="stroke:#000000;stroke-width:1.0;" x1="510" x2="510" y1="122.8047" y2="140.7656"/><line style="stroke:#000000;stroke-width:1.0;" x1="638" x2="638" y1="122.8047" y2="140.7656"/><line style="stroke:#000000;stroke-width:1.0;" x1="786" x2="786" y1="122.8047" y2="140.7656"/><line style="stroke:#000000;stroke-width:1.0;" x1="874" x2="874" y1="122.8047" y2="140.7656"/><line style="stroke:#000000;stroke-width:1.0;" x1="990" x2="990" y1="122.8047" y2="140.7656"/><line style="stroke:#000000;stroke-width:1.0;" x1="1174" x2="1174" y1="122.8047" y2="140.7656"/><text fill="#808080" font-family="sans-serif" font-size="12" lengthAdjust="spacing" textLength="152" x="15" y="156.7148">Nombre de lignes affich&#233;es</text><text fill="#000000" font-family="sans-serif" font-size="12" lengthAdjust="spacing" textLength="7" x="172" y="156.7148">4</text><line style="stroke:#000000;stroke-width:1.0;" x1="170" x2="197" y1="159.7266" y2="159.7266"/><line style="stroke:#000000;stroke-width:1.0;" x1="170" x2="170" y1="156.7266" y2="158.7266"/><line style="stroke:#000000;stroke-width:1.0;" x1="197" x2="197" y1="156.7266" y2="158.7266"/><text fill="#808080" font-family="sans-serif" font-size="12" lengthAdjust="spacing" textLength="62" x="221" y="156.7148">1 - 4 sur 10</text><path d="M310,148.7266 L306,152.7266 L310,156.7266 L310,148.7266 " fill="#000000" style="stroke:;stroke-width:0.0;stroke-dasharray:;"/><text fill="#000000" font-family="sans-serif" font-size="12" lengthAdjust="spacing" textLength="3" x="315" y="156.7148">&#160;</text><path d="M323,148.7266 L319,152.7266 L323,156.7266 L324.5,155.2266 L322,152.7266 L324.5,150.2266 L323,148.7266 " fill="#000000" style="stroke:;stroke-width:0.0;stroke-dasharray:;"/><text fill="#000000" font-family="sans-serif" font-size="12" lengthAdjust="spacing" textLength="3" x="328" y="156.7148">&#160;</text><path d="M333.5,148.7266 L332,150.2266 L334.5,152.7266 L332,155.2266 L333.5,156.7266 L337.5,152.7266 L333.5,148.7266 " fill="#000000" style="stroke:;stroke-width:0.0;stroke-dasharray:;"/><text fill="#000000" font-family="sans-serif" font-size="12" lengthAdjust="spacing" textLength="3" x="341" y="156.7148">&#160;</text><path d="M345,148.7266 L345,156.7266 L349,152.7266 L345,148.7266 " fill="#000000" style="stroke:;stroke-width:0.0;stroke-dasharray:;"/><text fill="#000000" font-family="sans-serif" font-size="12" lengthAdjust="spacing" textLength="92" x="14" y="195.6367">Immatriculations</text><text fill="#000000" font-family="sans-serif" font-size="12" lengthAdjust="spacing" textLength="121" x="15" y="214.5977">D&#233;but immatriculation</text><text fill="#000000" font-family="sans-serif" font-size="12" lengthAdjust="spacing" textLength="105" x="138" y="214.5977">Fin immatriculation</text><text fill="#000000" font-family="sans-serif" font-size="12" lengthAdjust="spacing" textLength="85" x="245" y="214.5977">Immatriculation</text><text fill="#000000" font-family="sans-serif" font-size="12" lengthAdjust="spacing" textLength="163" x="332" y="214.5977">Immatriculation internationale</text><text fill="#000000" font-family="sans-serif" font-size="12" lengthAdjust="spacing" textLength="141" x="497" y="214.5977">Quartier d'immatriculation</text><text fill="#000000" font-family="sans-serif" font-size="12" lengthAdjust="spacing" textLength="62" x="15" y="232.5586">01/01/1967</text><text fill="#000000" font-family="sans-serif" font-size="12" lengthAdjust="spacing" textLength="42" x="245" y="232.5586">123456</text><text fill="#000000" font-family="sans-serif" font-size="12" lengthAdjust="spacing" textLength="86" x="332" y="232.5586">FRA000123456</text><text fill="#000000" font-family="sans-serif" font-size="12" lengthAdjust="spacing" textLength="76" x="497" y="232.5586">MA - Marseille</text><line style="stroke:#000000;stroke-width:1.0;" x1="14" x2="137" y1="200.6484" y2="200.6484"/><line style="stroke:#000000;stroke-width:1.0;" x1="244" x2="331" y1="236.5703" y2="236.5703"/><line style="stroke:#000000;stroke-width:1.0;" x1="137" x2="244" y1="200.6484" y2="200.6484"/><line style="stroke:#000000;stroke-width:1.0;" x1="331" x2="496" y1="236.5703" y2="236.5703"/><line style="stroke:#000000;stroke-width:1.0;" x1="244" x2="331" y1="200.6484" y2="200.6484"/><line style="stroke:#000000;stroke-width:1.0;" x1="496" x2="639" y1="236.5703" y2="236.5703"/><line style="stroke:#000000;stroke-width:1.0;" x1="331" x2="496" y1="200.6484" y2="200.6484"/><line style="stroke:#000000;stroke-width:1.0;" x1="496" x2="639" y1="200.6484" y2="200.6484"/><line style="stroke:#000000;stroke-width:1.0;" x1="14" x2="137" y1="218.6094" y2="218.6094"/><line style="stroke:#000000;stroke-width:1.0;" x1="137" x2="244" y1="218.6094" y2="218.6094"/><line style="stroke:#000000;stroke-width:1.0;" x1="244" x2="331" y1="218.6094" y2="218.6094"/><line style="stroke:#000000;stroke-width:1.0;" x1="331" x2="496" y1="218.6094" y2="218.6094"/><line style="stroke:#000000;stroke-width:1.0;" x1="496" x2="639" y1="218.6094" y2="218.6094"/><line style="stroke:#000000;stroke-width:1.0;" x1="14" x2="137" y1="236.5703" y2="236.5703"/><line style="stroke:#000000;stroke-width:1.0;" x1="137" x2="244" y1="236.5703" y2="236.5703"/><line style="stroke:#000000;stroke-width:1.0;" x1="14" x2="14" y1="200.6484" y2="218.6094"/><line style="stroke:#000000;stroke-width:1.0;" x1="137" x2="137" y1="218.6094" y2="236.5703"/><line style="stroke:#000000;stroke-width:1.0;" x1="137" x2="137" y1="200.6484" y2="218.6094"/><line style="stroke:#000000;stroke-width:1.0;" x1="244" x2="244" y1="218.6094" y2="236.5703"/><line style="stroke:#000000;stroke-width:1.0;" x1="244" x2="244" y1="200.6484" y2="218.6094"/><line style="stroke:#000000;stroke-width:1.0;" x1="331" x2="331" y1="218.6094" y2="236.5703"/><line style="stroke:#000000;stroke-width:1.0;" x1="331" x2="331" y1="200.6484" y2="218.6094"/><line style="stroke:#000000;stroke-width:1.0;" x1="496" x2="496" y1="218.6094" y2="236.5703"/><line style="stroke:#000000;stroke-width:1.0;" x1="639" x2="639" y1="218.6094" y2="236.5703"/><line style="stroke:#000000;stroke-width:1.0;" x1="496" x2="496" y1="200.6484" y2="218.6094"/><line style="stroke:#000000;stroke-width:1.0;" x1="639" x2="639" y1="200.6484" y2="218.6094"/><line style="stroke:#000000;stroke-width:1.0;" x1="14" x2="14" y1="218.6094" y2="236.5703"/><text fill="#808080" font-family="sans-serif" font-size="12" lengthAdjust="spacing" textLength="152" x="15" y="252.5195">Nombre de lignes affich&#233;es</text><text fill="#000000" font-family="sans-serif" font-size="12" lengthAdjust="spacing" textLength="7" x="172" y="252.5195">4</text><line style="stroke:#000000;stroke-width:1.0;" x1="170" x2="197" y1="255.5313" y2="255.5313"/><line style="stroke:#000000;stroke-width:1.0;" x1="170" x2="170" y1="252.5313" y2="254.5313"/><line style="stroke:#000000;stroke-width:1.0;" x1="197" x2="197" y1="252.5313" y2="254.5313"/><text fill="#808080" font-family="sans-serif" font-size="12" lengthAdjust="spacing" textLength="62" x="221" y="252.5195">1 - 4 sur 10</text><path d="M310,244.5313 L306,248.5313 L310,252.5313 L310,244.5313 " fill="#000000" style="stroke:;stroke-width:0.0;stroke-dasharray:;"/><text fill="#000000" font-family="sans-serif" font-size="12" lengthAdjust="spacing" textLength="3" x="315" y="252.5195">&#160;</text><path d="M323,244.5313 L319,248.5313 L323,252.5313 L324.5,251.0313 L322,248.5313 L324.5,246.0313 L323,244.5313 " fill="#000000" style="stroke:;stroke-width:0.0;stroke-dasharray:;"/><text fill="#000000" font-family="sans-serif" font-size="12" lengthAdjust="spacing" textLength="3" x="328" y="252.5195">&#160;</text><path d="M333.5,244.5313 L332,246.0313 L334.5,248.5313 L332,251.0313 L333.5,252.5313 L337.5,248.5313 L333.5,244.5313 " fill="#000000" style="stroke:;stroke-width:0.0;stroke-dasharray:;"/><text fill="#000000" font-family="sans-serif" font-size="12" lengthAdjust="spacing" textLength="3" x="341" y="252.5195">&#160;</text><path d="M345,244.5313 L345,252.5313 L349,248.5313 L345,244.5313 " fill="#000000" style="stroke:;stroke-width:0.0;stroke-dasharray:;"/><text fill="#000000" font-family="sans-serif" font-size="12" lengthAdjust="spacing" textLength="57" x="14" y="291.4414">Armateurs</text><text fill="#000000" font-family="sans-serif" font-size="12" lengthAdjust="spacing" textLength="93" x="15" y="310.4023">D&#233;but armement</text><text fill="#000000" font-family="sans-serif" font-size="12" lengthAdjust="spacing" textLength="77" x="110" y="310.4023">Fin armement</text><text fill="#000000" font-family="sans-serif" font-size="12" lengthAdjust="spacing" textLength="83" x="189" y="310.4023">Code armateur</text><text fill="#000000" font-family="sans-serif" font-size="12" lengthAdjust="spacing" textLength="27" x="274" y="310.4023">Nom</text><text fill="#000000" font-family="sans-serif" font-size="12" lengthAdjust="spacing" textLength="44" x="329" y="310.4023">Pr&#233;nom</text><text fill="#000000" font-family="sans-serif" font-size="12" lengthAdjust="spacing" textLength="73" x="375" y="310.4023">D&#233;but activit&#233;</text><text fill="#000000" font-family="sans-serif" font-size="12" lengthAdjust="spacing" textLength="109" x="450" y="310.4023">Date de la retraite ...</text><text fill="#000000" font-family="sans-serif" font-size="12" lengthAdjust="spacing" textLength="62" x="15" y="328.3633">06/04/2021</text><text fill="#000000" font-family="sans-serif" font-size="12" lengthAdjust="spacing" textLength="35" x="189" y="328.3633">12345</text><text fill="#000000" font-family="sans-serif" font-size="12" lengthAdjust="spacing" textLength="53" x="274" y="328.3633">DUPOND</text><text fill="#000000" font-family="sans-serif" font-size="12" lengthAdjust="spacing" textLength="21" x="329" y="328.3633">Eric</text><text fill="#000000" font-family="sans-serif" font-size="12" lengthAdjust="spacing" textLength="62" x="375" y="328.3633">01/01/2020</text><line style="stroke:#000000;stroke-width:1.0;" x1="14" x2="109" y1="296.4531" y2="296.4531"/><line style="stroke:#000000;stroke-width:1.0;" x1="188" x2="273" y1="332.375" y2="332.375"/><line style="stroke:#000000;stroke-width:1.0;" x1="109" x2="188" y1="296.4531" y2="296.4531"/><line style="stroke:#000000;stroke-width:1.0;" x1="273" x2="328" y1="332.375" y2="332.375"/><line style="stroke:#000000;stroke-width:1.0;" x1="188" x2="273" y1="296.4531" y2="296.4531"/><line style="stroke:#000000;stroke-width:1.0;" x1="328" x2="374" y1="332.375" y2="332.375"/><line style="stroke:#000000;stroke-width:1.0;" x1="273" x2="328" y1="296.4531" y2="296.4531"/><line style="stroke:#000000;stroke-width:1.0;" x1="374" x2="449" y1="332.375" y2="332.375"/><line style="stroke:#000000;stroke-width:1.0;" x1="328" x2="374" y1="296.4531" y2="296.4531"/><line style="stroke:#000000;stroke-width:1.0;" x1="449" x2="560" y1="332.375" y2="332.375"/><line style="stroke:#000000;stroke-width:1.0;" x1="374" x2="449" y1="296.4531" y2="296.4531"/><line style="stroke:#000000;stroke-width:1.0;" x1="449" x2="560" y1="296.4531" y2="296.4531"/><line style="stroke:#000000;stroke-width:1.0;" x1="14" x2="109" y1="314.4141" y2="314.4141"/><line style="stroke:#000000;stroke-width:1.0;" x1="109" x2="188" y1="314.4141" y2="314.4141"/><line style="stroke:#000000;stroke-width:1.0;" x1="188" x2="273" y1="314.4141" y2="314.4141"/><line style="stroke:#000000;stroke-width:1.0;" x1="273" x2="328" y1="314.4141" y2="314.4141"/><line style="stroke:#000000;stroke-width:1.0;" x1="328" x2="374" y1="314.4141" y2="314.4141"/><line style="stroke:#000000;stroke-width:1.0;" x1="374" x2="449" y1="314.4141" y2="314.4141"/><line style="stroke:#000000;stroke-width:1.0;" x1="449" x2="560" y1="314.4141" y2="314.4141"/><line style="stroke:#000000;stroke-width:1.0;" x1="14" x2="109" y1="332.375" y2="332.375"/><line style="stroke:#000000;stroke-width:1.0;" x1="109" x2="188" y1="332.375" y2="332.375"/><line style="stroke:#000000;stroke-width:1.0;" x1="14" x2="14" y1="296.4531" y2="314.4141"/><line style="stroke:#000000;stroke-width:1.0;" x1="109" x2="109" y1="296.4531" y2="314.4141"/><line style="stroke:#000000;stroke-width:1.0;" x1="188" x2="188" y1="296.4531" y2="314.4141"/><line style="stroke:#000000;stroke-width:1.0;" x1="273" x2="273" y1="296.4531" y2="314.4141"/><line style="stroke:#000000;stroke-width:1.0;" x1="328" x2="328" y1="296.4531" y2="314.4141"/><line style="stroke:#000000;stroke-width:1.0;" x1="374" x2="374" y1="296.4531" y2="314.4141"/><line style="stroke:#000000;stroke-width:1.0;" x1="449" x2="449" y1="296.4531" y2="314.4141"/><line style="stroke:#000000;stroke-width:1.0;" x1="560" x2="560" y1="296.4531" y2="314.4141"/><line style="stroke:#000000;stroke-width:1.0;" x1="14" x2="14" y1="314.4141" y2="332.375"/><line style="stroke:#000000;stroke-width:1.0;" x1="109" x2="109" y1="314.4141" y2="332.375"/><line style="stroke:#000000;stroke-width:1.0;" x1="188" x2="188" y1="314.4141" y2="332.375"/><line style="stroke:#000000;stroke-width:1.0;" x1="273" x2="273" y1="314.4141" y2="332.375"/><line style="stroke:#000000;stroke-width:1.0;" x1="328" x2="328" y1="314.4141" y2="332.375"/><line style="stroke:#000000;stroke-width:1.0;" x1="374" x2="374" y1="314.4141" y2="332.375"/><line style="stroke:#000000;stroke-width:1.0;" x1="449" x2="449" y1="314.4141" y2="332.375"/><line style="stroke:#000000;stroke-width:1.0;" x1="560" x2="560" y1="314.4141" y2="332.375"/><text fill="#808080" font-family="sans-serif" font-size="12" lengthAdjust="spacing" textLength="152" x="15" y="348.3242">Nombre de lignes affich&#233;es</text><text fill="#000000" font-family="sans-serif" font-size="12" lengthAdjust="spacing" textLength="7" x="172" y="348.3242">4</text><line style="stroke:#000000;stroke-width:1.0;" x1="170" x2="197" y1="351.3359" y2="351.3359"/><line style="stroke:#000000;stroke-width:1.0;" x1="170" x2="170" y1="348.3359" y2="350.3359"/><line style="stroke:#000000;stroke-width:1.0;" x1="197" x2="197" y1="348.3359" y2="350.3359"/><text fill="#808080" font-family="sans-serif" font-size="12" lengthAdjust="spacing" textLength="62" x="221" y="348.3242">1 - 4 sur 10</text><path d="M310,340.3359 L306,344.3359 L310,348.3359 L310,340.3359 " fill="#000000" style="stroke:;stroke-width:0.0;stroke-dasharray:;"/><text fill="#000000" font-family="sans-serif" font-size="12" lengthAdjust="spacing" textLength="3" x="315" y="348.3242">&#160;</text><path d="M323,340.3359 L319,344.3359 L323,348.3359 L324.5,346.8359 L322,344.3359 L324.5,341.8359 L323,340.3359 " fill="#000000" style="stroke:;stroke-width:0.0;stroke-dasharray:;"/><text fill="#000000" font-family="sans-serif" font-size="12" lengthAdjust="spacing" textLength="3" x="328" y="348.3242">&#160;</text><path d="M333.5,340.3359 L332,341.8359 L334.5,344.3359 L332,346.8359 L333.5,348.3359 L337.5,344.3359 L333.5,340.3359 " fill="#000000" style="stroke:;stroke-width:0.0;stroke-dasharray:;"/><text fill="#000000" font-family="sans-serif" font-size="12" lengthAdjust="spacing" textLength="3" x="341" y="348.3242">&#160;</text><path d="M345,340.3359 L345,348.3359 L349,344.3359 L345,340.3359 " fill="#000000" style="stroke:;stroke-width:0.0;stroke-dasharray:;"/><text fill="#000000" font-family="sans-serif" font-size="12" lengthAdjust="spacing" textLength="39" x="14" y="387.2461">Photos</text><line style="stroke:#AAAAAA;stroke-width:1.0;" x1="6" x2="1178" y1="416.7188" y2="416.7188"/><rect fill="#EEEEEE" height="19.9609" rx="5" ry="5" style="stroke:#000000;stroke-width:2.5;" width="52" x="9.5" y="424.7188"/><text fill="#000000" font-family="sans-serif" font-size="12" lengthAdjust="spacing" textLength="40" x="15.5" y="439.668">Fermer</text><rect fill="#EEEEEE" height="19.9609" rx="5" ry="5" style="stroke:#000000;stroke-width:2.5;" width="132" x="68.5" y="424.7188"/><path d="M100,431.6797 C97.8,431.6797 96,433.4797 96,435.6797 C96,437.8797 97.8,439.6797 100,439.6797 C101.1,439.6797 102.12,439.2497 102.84,438.5197 L102.12,437.7997 C101.58,438.3397 100.83,438.6797 99.99,438.6797 C98.33,438.6797 96.99,437.3397 96.99,435.6797 C96.99,434.0197 98.33,432.6797 99.99,432.6797 C100.82,432.6797 101.54,433.0397 102.08,433.5897 L100.99,434.6797 L103.99,434.6797 L103.99,431.6797 L102.8,432.8697 C102.08,432.1497 101.09,431.6797 99.99,431.6797 " fill="#000000" style="stroke:;stroke-width:0.0;stroke-dasharray:;"/><text fill="#000000" font-family="sans-serif" font-size="12" lengthAdjust="spacing" textLength="66" x="108" y="439.668">R&#233;initialiser</text><rect fill="#EEEEEE" height="19.9609" rx="5" ry="5" style="stroke:#000000;stroke-width:2.5;" width="92" x="207.5" y="424.7188"/><text fill="#000000" font-family="sans-serif" font-size="12" lengthAdjust="spacing" textLength="70" x="218.5" y="439.668">Sauvegarder</text><!--SRC=[tLNlRjCm4F-UfpY119r4qoJjEbQLmjPkG6cxiZyWXFZW9MvhSEpXE1LewmFrEVfY_9na7R19VATgdBlptUNkVhxpgymoOpCchNVj4KtOKXXE7UfUzivE9fDFLASmQhPsso361rZsdZqFAGKH1L44YteTotM3Nc_MQhCsJDADCwuStL2VIQuI8xW1CzwiBQYia1lBLx3r_T91zqaiTVoj1-Ct8hFQYE-vSm0vIxbXzKoQtdIXhSxkpAuzh7WNgr-wPR55873X76IaYaYs2jUFQR1PN-QMbaoAH40NqcEX_k37p7pFsPmJ_r4uuxaBVw9Jfpljqqkyfxd8CgPYJYn9XS873RDYoQdsxUCEzaTQpNDdkD38s6fyifQwZNEjbFFzbULOBqrkONC-FFnzhtOnFjif0Yc-pt9AE4b6iIwhCjN6KlAK_xYIMbXyLwiYHVSBsesWrG0-8HIROIEC71E1gQ2yeHBR6ph91TQs4-tZsVKTrVITxg4M3gTXWVg88PB4C2Ja0XbhPGrFjABLNM6fEuCO4KfjNimD_zb3lIvDOI35N04BDfk9UB5PywpRSCezsD4ZQk41vV_rtFCN8f8MPIXf63oaZvDYkArBFeDdS0k-D5hTuusOBqf1eLwnLIRUDg6tQSgi4N4kY_9c3nmXyQTATP3kIz_-KoAKvKOLD1e62kzpD8ZhckJfN_vkSGx21lxXVdklod-Bxl7fGH04MxP042Swuq9A_lyXTflFWK6Tq70F8SLCobEEu4g8VcFx6jcoojHbLtRvr62W5TIjXnZDNOs70PIhXaGyXWcmlky_t85RQ9pXnVHaCW1n13pnAZ64ObcT_nURSd0NhDjQUTxATPg_lK7eyp47AEOBb3ztdnWkDKjwTBfPOxHQWTcSLPjdB5_oEJE9urVmymeNJ763ULF9bBqOZsY9IyQrLUYZjaq_RDOmicZ0Omf32lSxKT3PtQF-qRcxnfexNktrT4IPpWscUU8ckG3aSB3Z3TcIqMckh4XvXqwkk1eEtjqAw4ZXSj7A7ILl-65yfz1krG-5fJDk40fz67i3FcEvjB28TIBKl4Fzgp3QZRmHmpM1aT-XcV7w6exDpmvQ-1S0]--></g></svg>