<?xml version="1.0" encoding="us-ascii" standalone="no"?><svg xmlns="http://www.w3.org/2000/svg" xmlns:xlink="http://www.w3.org/1999/xlink" contentStyleType="text/css" height="706px" preserveAspectRatio="none" style="width:1116px;height:706px;background:#FFFFFF;" version="1.1" viewBox="0 0 1116 706" width="1116px" zoomAndPan="magnify"><defs/><g><text fill="#000000" font-family="sans-serif" font-size="12" lengthAdjust="spacing" textLength="146" x="6" y="18.9492">Nouveau calendrier: navire</text><text fill="#000000" font-family="sans-serif" font-size="12" font-weight="bold" lengthAdjust="spacing" textLength="229" x="155" y="18.9492">SONNY NINO MATHILDE 3 - b136794 - MA</text><text fill="#000000" font-family="sans-serif" font-size="12" lengthAdjust="spacing" textLength="58" x="384" y="18.9492">; longueur:</text><text fill="#000000" font-family="sans-serif" font-size="12" font-weight="bold" lengthAdjust="spacing" textLength="38" x="445" y="18.9492">7,81 m</text><text fill="#000000" font-family="sans-serif" font-size="12" lengthAdjust="spacing" textLength="161" x="483" y="18.9492">; enqu&#234;te: Directe; enqu&#234;teur:</text><text fill="#000000" font-family="sans-serif" font-size="12" font-weight="bold" lengthAdjust="spacing" textLength="95" x="647" y="18.9492">Adelaide GAMON</text><text fill="#000000" font-family="sans-serif" font-size="12" lengthAdjust="spacing" textLength="49" x="742" y="18.9492">; soci&#233;t&#233;:</text><text fill="#000000" font-family="sans-serif" font-size="12" font-weight="bold" lengthAdjust="spacing" textLength="42" x="794" y="18.9492">Ifremer</text><line style="stroke:#AAAAAA;stroke-width:1.0;" x1="6" x2="1109" y1="27.4609" y2="27.4609"/><text fill="#000000" font-family="sans-serif" font-size="12" font-weight="bold" lengthAdjust="spacing" textLength="44" x="8" y="44.9102">G&#233;n&#233;ral</text><line style="stroke:#000000;stroke-width:1.0;" x1="6" x2="6" y1="31.9609" y2="47.9219"/><line style="stroke:#000000;stroke-width:1.0;" x1="6" x2="55" y1="31.9609" y2="31.9609"/><line style="stroke:#000000;stroke-width:1.0;" x1="55" x2="55" y1="31.9609" y2="47.9219"/><line style="stroke:#000000;stroke-width:1.0;" x1="55" x2="65" y1="47.9219" y2="47.9219"/><text fill="#000000" font-family="sans-serif" font-size="12" lengthAdjust="spacing" textLength="58" x="67" y="44.9102">Calendrier</text><line style="stroke:#000000;stroke-width:1.0;" x1="65" x2="65" y1="31.9609" y2="47.9219"/><line style="stroke:#000000;stroke-width:1.0;" x1="65" x2="128" y1="31.9609" y2="31.9609"/><line style="stroke:#000000;stroke-width:1.0;" x1="128" x2="128" y1="31.9609" y2="47.9219"/><line style="stroke:#000000;stroke-width:1.0;" x1="128" x2="138" y1="47.9219" y2="47.9219"/><text fill="#000000" font-family="sans-serif" font-size="12" lengthAdjust="spacing" textLength="40" x="140" y="44.9102">M&#233;tiers</text><line style="stroke:#000000;stroke-width:1.0;" x1="138" x2="138" y1="31.9609" y2="47.9219"/><line style="stroke:#000000;stroke-width:1.0;" x1="138" x2="183" y1="31.9609" y2="31.9609"/><line style="stroke:#000000;stroke-width:1.0;" x1="183" x2="183" y1="31.9609" y2="47.9219"/><line style="stroke:#000000;stroke-width:1.0;" x1="183" x2="193" y1="47.9219" y2="47.9219"/><text fill="#000000" font-family="sans-serif" font-size="12" lengthAdjust="spacing" textLength="83" x="195" y="44.9102">Commentaires</text><line style="stroke:#000000;stroke-width:1.0;" x1="193" x2="193" y1="31.9609" y2="47.9219"/><line style="stroke:#000000;stroke-width:1.0;" x1="193" x2="281" y1="31.9609" y2="31.9609"/><line style="stroke:#000000;stroke-width:1.0;" x1="281" x2="281" y1="31.9609" y2="47.9219"/><line style="stroke:#000000;stroke-width:1.0;" x1="281" x2="291" y1="47.9219" y2="47.9219"/><line style="stroke:#AAAAAA;stroke-width:1.0;stroke-dasharray:1.0,2.0;" x1="6" x2="1109" y1="53.4219" y2="53.4219"/><text fill="#000000" font-family="sans-serif" font-size="12" font-weight="bold" lengthAdjust="spacing" textLength="457" x="7" y="89.832">Etat des changements des caract&#233;ristiques et des armateurs du navire sur 2022</text><text fill="#000000" font-family="sans-serif" font-size="12" lengthAdjust="spacing" textLength="158" x="13" y="108.793">Caract&#233;ristiques des navires</text><text fill="#000000" font-family="sans-serif" font-size="12" lengthAdjust="spacing" textLength="85" x="14" y="127.7539">Immatriculation</text><text fill="#000000" font-family="sans-serif" font-size="12" lengthAdjust="spacing" textLength="74" x="101" y="127.7539">D&#233;but validit&#233;</text><text fill="#000000" font-family="sans-serif" font-size="12" lengthAdjust="spacing" textLength="58" x="177" y="127.7539">Fin validit&#233;</text><text fill="#000000" font-family="sans-serif" font-size="12" lengthAdjust="spacing" textLength="80" x="241" y="127.7539">Nom du navire</text><text fill="#000000" font-family="sans-serif" font-size="12" lengthAdjust="spacing" textLength="96" x="390" y="127.7539">Port d'exploitation</text><text fill="#000000" font-family="sans-serif" font-size="12" lengthAdjust="spacing" textLength="142" x="574" y="127.7539">Jauge brute (TJB 1/100 tx)</text><text fill="#000000" font-family="sans-serif" font-size="12" lengthAdjust="spacing" textLength="61" x="718" y="127.7539">Jauge (GT)</text><text fill="#000000" font-family="sans-serif" font-size="12" lengthAdjust="spacing" textLength="94" x="781" y="127.7539">Puiss. adm. (kW)</text><text fill="#000000" font-family="sans-serif" font-size="12" lengthAdjust="spacing" textLength="78" x="877" y="127.7539">Long. H.T. (m)</text><text fill="#000000" font-family="sans-serif" font-size="12" lengthAdjust="spacing" textLength="122" x="957" y="127.7539">Ann&#233;e de construction</text><text fill="#000000" font-family="sans-serif" font-size="12" lengthAdjust="spacing" textLength="24" x="1081" y="127.7539">FPC</text><text fill="#000000" font-family="sans-serif" font-size="12" lengthAdjust="spacing" textLength="42" x="14" y="145.7148">136794</text><text fill="#000000" font-family="sans-serif" font-size="12" lengthAdjust="spacing" textLength="62" x="101" y="145.7148">06/04/2021</text><text fill="#000000" font-family="sans-serif" font-size="12" lengthAdjust="spacing" textLength="62" x="177" y="145.7148">31/12/2022</text><text fill="#000000" font-family="sans-serif" font-size="12" lengthAdjust="spacing" textLength="147" x="241" y="145.7148">SONNY NINO MATHILDE 3</text><text fill="#000000" font-family="sans-serif" font-size="12" lengthAdjust="spacing" textLength="182" x="390" y="145.7148">JMA - La Madrague de Montredon</text><text fill="#000000" font-family="sans-serif" font-size="12" lengthAdjust="spacing" textLength="21" x="574" y="145.7148">560</text><text fill="#000000" font-family="sans-serif" font-size="12" lengthAdjust="spacing" textLength="21" x="718" y="145.7148">320</text><text fill="#000000" font-family="sans-serif" font-size="12" lengthAdjust="spacing" textLength="24" x="781" y="145.7148">66.0</text><text fill="#000000" font-family="sans-serif" font-size="12" lengthAdjust="spacing" textLength="7" x="877" y="145.7148">9</text><text fill="#000000" font-family="sans-serif" font-size="12" lengthAdjust="spacing" textLength="28" x="957" y="145.7148">1967</text><text fill="#000000" font-family="sans-serif" font-size="12" lengthAdjust="spacing" textLength="19" x="1081" y="145.7148">Oui</text><line style="stroke:#000000;stroke-width:1.0;" x1="13" x2="100" y1="113.8047" y2="113.8047"/><line style="stroke:#000000;stroke-width:1.0;" x1="100" x2="176" y1="113.8047" y2="113.8047"/><line style="stroke:#000000;stroke-width:1.0;" x1="176" x2="240" y1="113.8047" y2="113.8047"/><line style="stroke:#000000;stroke-width:1.0;" x1="240" x2="389" y1="113.8047" y2="113.8047"/><line style="stroke:#000000;stroke-width:1.0;" x1="389" x2="573" y1="113.8047" y2="113.8047"/><line style="stroke:#000000;stroke-width:1.0;" x1="573" x2="717" y1="113.8047" y2="113.8047"/><line style="stroke:#000000;stroke-width:1.0;" x1="717" x2="780" y1="113.8047" y2="113.8047"/><line style="stroke:#000000;stroke-width:1.0;" x1="780" x2="876" y1="113.8047" y2="113.8047"/><line style="stroke:#000000;stroke-width:1.0;" x1="876" x2="956" y1="113.8047" y2="113.8047"/><line style="stroke:#000000;stroke-width:1.0;" x1="956" x2="1080" y1="113.8047" y2="113.8047"/><line style="stroke:#000000;stroke-width:1.0;" x1="1080" x2="1106" y1="113.8047" y2="113.8047"/><line style="stroke:#000000;stroke-width:1.0;" x1="13" x2="100" y1="149.7266" y2="149.7266"/><line style="stroke:#000000;stroke-width:1.0;" x1="100" x2="176" y1="149.7266" y2="149.7266"/><line style="stroke:#000000;stroke-width:1.0;" x1="176" x2="240" y1="149.7266" y2="149.7266"/><line style="stroke:#000000;stroke-width:1.0;" x1="240" x2="389" y1="149.7266" y2="149.7266"/><line style="stroke:#000000;stroke-width:1.0;" x1="389" x2="573" y1="149.7266" y2="149.7266"/><line style="stroke:#000000;stroke-width:1.0;" x1="573" x2="717" y1="149.7266" y2="149.7266"/><line style="stroke:#000000;stroke-width:1.0;" x1="717" x2="780" y1="149.7266" y2="149.7266"/><line style="stroke:#000000;stroke-width:1.0;" x1="780" x2="876" y1="149.7266" y2="149.7266"/><line style="stroke:#000000;stroke-width:1.0;" x1="876" x2="956" y1="149.7266" y2="149.7266"/><line style="stroke:#000000;stroke-width:1.0;" x1="956" x2="1080" y1="149.7266" y2="149.7266"/><line style="stroke:#000000;stroke-width:1.0;" x1="1080" x2="1106" y1="149.7266" y2="149.7266"/><line style="stroke:#000000;stroke-width:1.0;" x1="13" x2="100" y1="131.7656" y2="131.7656"/><line style="stroke:#000000;stroke-width:1.0;" x1="100" x2="176" y1="131.7656" y2="131.7656"/><line style="stroke:#000000;stroke-width:1.0;" x1="176" x2="240" y1="131.7656" y2="131.7656"/><line style="stroke:#000000;stroke-width:1.0;" x1="240" x2="389" y1="131.7656" y2="131.7656"/><line style="stroke:#000000;stroke-width:1.0;" x1="389" x2="573" y1="131.7656" y2="131.7656"/><line style="stroke:#000000;stroke-width:1.0;" x1="573" x2="717" y1="131.7656" y2="131.7656"/><line style="stroke:#000000;stroke-width:1.0;" x1="717" x2="780" y1="131.7656" y2="131.7656"/><line style="stroke:#000000;stroke-width:1.0;" x1="780" x2="876" y1="131.7656" y2="131.7656"/><line style="stroke:#000000;stroke-width:1.0;" x1="876" x2="956" y1="131.7656" y2="131.7656"/><line style="stroke:#000000;stroke-width:1.0;" x1="956" x2="1080" y1="131.7656" y2="131.7656"/><line style="stroke:#000000;stroke-width:1.0;" x1="1080" x2="1106" y1="131.7656" y2="131.7656"/><line style="stroke:#000000;stroke-width:1.0;" x1="13" x2="13" y1="113.8047" y2="131.7656"/><line style="stroke:#000000;stroke-width:1.0;" x1="100" x2="100" y1="113.8047" y2="131.7656"/><line style="stroke:#000000;stroke-width:1.0;" x1="176" x2="176" y1="113.8047" y2="131.7656"/><line style="stroke:#000000;stroke-width:1.0;" x1="240" x2="240" y1="113.8047" y2="131.7656"/><line style="stroke:#000000;stroke-width:1.0;" x1="389" x2="389" y1="113.8047" y2="131.7656"/><line style="stroke:#000000;stroke-width:1.0;" x1="573" x2="573" y1="113.8047" y2="131.7656"/><line style="stroke:#000000;stroke-width:1.0;" x1="717" x2="717" y1="113.8047" y2="131.7656"/><line style="stroke:#000000;stroke-width:1.0;" x1="780" x2="780" y1="113.8047" y2="131.7656"/><line style="stroke:#000000;stroke-width:1.0;" x1="876" x2="876" y1="113.8047" y2="131.7656"/><line style="stroke:#000000;stroke-width:1.0;" x1="956" x2="956" y1="113.8047" y2="131.7656"/><line style="stroke:#000000;stroke-width:1.0;" x1="1080" x2="1080" y1="113.8047" y2="131.7656"/><line style="stroke:#000000;stroke-width:1.0;" x1="1106" x2="1106" y1="113.8047" y2="131.7656"/><line style="stroke:#000000;stroke-width:1.0;" x1="13" x2="13" y1="131.7656" y2="149.7266"/><line style="stroke:#000000;stroke-width:1.0;" x1="100" x2="100" y1="131.7656" y2="149.7266"/><line style="stroke:#000000;stroke-width:1.0;" x1="176" x2="176" y1="131.7656" y2="149.7266"/><line style="stroke:#000000;stroke-width:1.0;" x1="240" x2="240" y1="131.7656" y2="149.7266"/><line style="stroke:#000000;stroke-width:1.0;" x1="389" x2="389" y1="131.7656" y2="149.7266"/><line style="stroke:#000000;stroke-width:1.0;" x1="573" x2="573" y1="131.7656" y2="149.7266"/><line style="stroke:#000000;stroke-width:1.0;" x1="717" x2="717" y1="131.7656" y2="149.7266"/><line style="stroke:#000000;stroke-width:1.0;" x1="780" x2="780" y1="131.7656" y2="149.7266"/><line style="stroke:#000000;stroke-width:1.0;" x1="876" x2="876" y1="131.7656" y2="149.7266"/><line style="stroke:#000000;stroke-width:1.0;" x1="956" x2="956" y1="131.7656" y2="149.7266"/><line style="stroke:#000000;stroke-width:1.0;" x1="1080" x2="1080" y1="131.7656" y2="149.7266"/><line style="stroke:#000000;stroke-width:1.0;" x1="1106" x2="1106" y1="131.7656" y2="149.7266"/><text fill="#000000" font-family="sans-serif" font-size="12" lengthAdjust="spacing" textLength="219" x="13" y="182.6367">Historique des immatriculations navires</text><text fill="#000000" font-family="sans-serif" font-size="12" lengthAdjust="spacing" textLength="85" x="14" y="201.5977">Immatriculation</text><text fill="#000000" font-family="sans-serif" font-size="12" lengthAdjust="spacing" textLength="121" x="101" y="201.5977">D&#233;but immatriculation</text><text fill="#000000" font-family="sans-serif" font-size="12" lengthAdjust="spacing" textLength="105" x="224" y="201.5977">Fin immatriculation</text><text fill="#000000" font-family="sans-serif" font-size="12" lengthAdjust="spacing" textLength="141" x="331" y="201.5977">Quartier d'immatriculation</text><text fill="#000000" font-family="sans-serif" font-size="12" lengthAdjust="spacing" textLength="42" x="14" y="219.5586">136794</text><text fill="#000000" font-family="sans-serif" font-size="12" lengthAdjust="spacing" textLength="62" x="101" y="219.5586">01/01/1967</text><text fill="#000000" font-family="sans-serif" font-size="12" lengthAdjust="spacing" textLength="76" x="331" y="219.5586">MA - Marseille</text><line style="stroke:#000000;stroke-width:1.0;" x1="13" x2="100" y1="187.6484" y2="187.6484"/><line style="stroke:#000000;stroke-width:1.0;" x1="223" x2="330" y1="223.5703" y2="223.5703"/><line style="stroke:#000000;stroke-width:1.0;" x1="100" x2="223" y1="205.6094" y2="205.6094"/><line style="stroke:#000000;stroke-width:1.0;" x1="100" x2="223" y1="187.6484" y2="187.6484"/><line style="stroke:#000000;stroke-width:1.0;" x1="330" x2="473" y1="223.5703" y2="223.5703"/><line style="stroke:#000000;stroke-width:1.0;" x1="223" x2="330" y1="205.6094" y2="205.6094"/><line style="stroke:#000000;stroke-width:1.0;" x1="223" x2="330" y1="187.6484" y2="187.6484"/><line style="stroke:#000000;stroke-width:1.0;" x1="330" x2="473" y1="205.6094" y2="205.6094"/><line style="stroke:#000000;stroke-width:1.0;" x1="330" x2="473" y1="187.6484" y2="187.6484"/><line style="stroke:#000000;stroke-width:1.0;" x1="13" x2="100" y1="223.5703" y2="223.5703"/><line style="stroke:#000000;stroke-width:1.0;" x1="100" x2="223" y1="223.5703" y2="223.5703"/><line style="stroke:#000000;stroke-width:1.0;" x1="13" x2="100" y1="205.6094" y2="205.6094"/><line style="stroke:#000000;stroke-width:1.0;" x1="13" x2="13" y1="187.6484" y2="205.6094"/><line style="stroke:#000000;stroke-width:1.0;" x1="100" x2="100" y1="205.6094" y2="223.5703"/><line style="stroke:#000000;stroke-width:1.0;" x1="100" x2="100" y1="187.6484" y2="205.6094"/><line style="stroke:#000000;stroke-width:1.0;" x1="223" x2="223" y1="205.6094" y2="223.5703"/><line style="stroke:#000000;stroke-width:1.0;" x1="223" x2="223" y1="187.6484" y2="205.6094"/><line style="stroke:#000000;stroke-width:1.0;" x1="330" x2="330" y1="205.6094" y2="223.5703"/><line style="stroke:#000000;stroke-width:1.0;" x1="473" x2="473" y1="205.6094" y2="223.5703"/><line style="stroke:#000000;stroke-width:1.0;" x1="330" x2="330" y1="187.6484" y2="205.6094"/><line style="stroke:#000000;stroke-width:1.0;" x1="473" x2="473" y1="187.6484" y2="205.6094"/><line style="stroke:#000000;stroke-width:1.0;" x1="13" x2="13" y1="205.6094" y2="223.5703"/><text fill="#000000" font-family="sans-serif" font-size="12" lengthAdjust="spacing" textLength="151" x="13" y="256.4805">Couples navires-armateurs</text><text fill="#000000" font-family="sans-serif" font-size="12" lengthAdjust="spacing" textLength="85" x="14" y="275.4414">Immatricualtion</text><text fill="#000000" font-family="sans-serif" font-size="12" lengthAdjust="spacing" textLength="83" x="101" y="275.4414">Code armateur</text><text fill="#000000" font-family="sans-serif" font-size="12" lengthAdjust="spacing" textLength="93" x="186" y="275.4414">D&#233;but armement</text><text fill="#000000" font-family="sans-serif" font-size="12" lengthAdjust="spacing" textLength="77" x="281" y="275.4414">Fin armement</text><text fill="#000000" font-family="sans-serif" font-size="12" lengthAdjust="spacing" textLength="80" x="360" y="275.4414">Nom armateur</text><text fill="#000000" font-family="sans-serif" font-size="12" lengthAdjust="spacing" textLength="97" x="442" y="275.4414">Pr&#233;nom armateur</text><text fill="#000000" font-family="sans-serif" font-size="12" lengthAdjust="spacing" textLength="42" x="14" y="293.4023">136794</text><text fill="#000000" font-family="sans-serif" font-size="12" lengthAdjust="spacing" textLength="35" x="101" y="293.4023">15233</text><text fill="#000000" font-family="sans-serif" font-size="12" lengthAdjust="spacing" textLength="62" x="186" y="293.4023">06/04/2021</text><text fill="#000000" font-family="sans-serif" font-size="12" lengthAdjust="spacing" textLength="48" x="360" y="293.4023">CRIMON</text><text fill="#000000" font-family="sans-serif" font-size="12" lengthAdjust="spacing" textLength="21" x="442" y="293.4023">Eric</text><line style="stroke:#000000;stroke-width:1.0;" x1="13" x2="100" y1="261.4922" y2="261.4922"/><line style="stroke:#000000;stroke-width:1.0;" x1="185" x2="280" y1="297.4141" y2="297.4141"/><line style="stroke:#000000;stroke-width:1.0;" x1="100" x2="185" y1="261.4922" y2="261.4922"/><line style="stroke:#000000;stroke-width:1.0;" x1="280" x2="359" y1="297.4141" y2="297.4141"/><line style="stroke:#000000;stroke-width:1.0;" x1="185" x2="280" y1="261.4922" y2="261.4922"/><line style="stroke:#000000;stroke-width:1.0;" x1="359" x2="441" y1="297.4141" y2="297.4141"/><line style="stroke:#000000;stroke-width:1.0;" x1="280" x2="359" y1="261.4922" y2="261.4922"/><line style="stroke:#000000;stroke-width:1.0;" x1="441" x2="540" y1="297.4141" y2="297.4141"/><line style="stroke:#000000;stroke-width:1.0;" x1="359" x2="441" y1="261.4922" y2="261.4922"/><line style="stroke:#000000;stroke-width:1.0;" x1="441" x2="540" y1="261.4922" y2="261.4922"/><line style="stroke:#000000;stroke-width:1.0;" x1="13" x2="100" y1="279.4531" y2="279.4531"/><line style="stroke:#000000;stroke-width:1.0;" x1="100" x2="185" y1="279.4531" y2="279.4531"/><line style="stroke:#000000;stroke-width:1.0;" x1="185" x2="280" y1="279.4531" y2="279.4531"/><line style="stroke:#000000;stroke-width:1.0;" x1="280" x2="359" y1="279.4531" y2="279.4531"/><line style="stroke:#000000;stroke-width:1.0;" x1="359" x2="441" y1="279.4531" y2="279.4531"/><line style="stroke:#000000;stroke-width:1.0;" x1="441" x2="540" y1="279.4531" y2="279.4531"/><line style="stroke:#000000;stroke-width:1.0;" x1="13" x2="100" y1="297.4141" y2="297.4141"/><line style="stroke:#000000;stroke-width:1.0;" x1="100" x2="185" y1="297.4141" y2="297.4141"/><line style="stroke:#000000;stroke-width:1.0;" x1="13" x2="13" y1="261.4922" y2="279.4531"/><line style="stroke:#000000;stroke-width:1.0;" x1="100" x2="100" y1="261.4922" y2="279.4531"/><line style="stroke:#000000;stroke-width:1.0;" x1="185" x2="185" y1="261.4922" y2="279.4531"/><line style="stroke:#000000;stroke-width:1.0;" x1="280" x2="280" y1="261.4922" y2="279.4531"/><line style="stroke:#000000;stroke-width:1.0;" x1="359" x2="359" y1="261.4922" y2="279.4531"/><line style="stroke:#000000;stroke-width:1.0;" x1="441" x2="441" y1="261.4922" y2="279.4531"/><line style="stroke:#000000;stroke-width:1.0;" x1="540" x2="540" y1="261.4922" y2="279.4531"/><line style="stroke:#000000;stroke-width:1.0;" x1="13" x2="13" y1="279.4531" y2="297.4141"/><line style="stroke:#000000;stroke-width:1.0;" x1="100" x2="100" y1="279.4531" y2="297.4141"/><line style="stroke:#000000;stroke-width:1.0;" x1="185" x2="185" y1="279.4531" y2="297.4141"/><line style="stroke:#000000;stroke-width:1.0;" x1="280" x2="280" y1="279.4531" y2="297.4141"/><line style="stroke:#000000;stroke-width:1.0;" x1="359" x2="359" y1="279.4531" y2="297.4141"/><line style="stroke:#000000;stroke-width:1.0;" x1="441" x2="441" y1="279.4531" y2="297.4141"/><line style="stroke:#000000;stroke-width:1.0;" x1="540" x2="540" y1="279.4531" y2="297.4141"/><text fill="#000000" font-family="sans-serif" font-size="12" font-weight="bold" lengthAdjust="spacing" textLength="167" x="7" y="333.3242">Caract&#233;ristiques de l'enqu&#234;te</text><text fill="#000000" font-family="sans-serif" font-size="12" lengthAdjust="spacing" textLength="149" x="13" y="352.2852">Qualification de l'enqu&#234;te* :</text><rect fill="#EEEEEE" height="18.9609" style="stroke:#000000;stroke-width:1.0;" width="87" x="385" y="339.3359"/><text fill="#000000" font-family="sans-serif" font-size="12" lengthAdjust="spacing" textLength="47" x="387" y="354.2852">Indirecte</text><line style="stroke:#000000;stroke-width:1.0;" x1="461" x2="461" y1="339.3359" y2="358.2969"/><polygon fill="#000000" points="464,345.3359,470,345.3359,467,353.2969" style="stroke:#000000;stroke-width:1.0;"/><text fill="#000000" font-family="sans-serif" font-size="12" lengthAdjust="spacing" textLength="124" x="13" y="374.2461">Fiabilit&#233; de l'enqu&#234;te* :</text><rect fill="#EEEEEE" height="18.9609" style="stroke:#000000;stroke-width:1.0;" width="87" x="385" y="361.2969"/><text fill="#000000" font-family="sans-serif" font-size="12" lengthAdjust="spacing" textLength="34" x="387" y="376.2461">Fiable</text><line style="stroke:#000000;stroke-width:1.0;" x1="461" x2="461" y1="361.2969" y2="380.2578"/><polygon fill="#000000" points="464,367.2969,470,367.2969,467,375.2578" style="stroke:#000000;stroke-width:1.0;"/><text fill="#000000" font-family="sans-serif" font-size="12" lengthAdjust="spacing" textLength="261" x="13" y="396.207">Inactivit&#233; annuelle confirm&#233;e par l'observateur* :</text><text fill="#000000" font-family="sans-serif" font-size="12" font-weight="bold" lengthAdjust="spacing" textLength="19" x="406" y="397.207">Oui</text><ellipse cx="393" cy="392.2383" fill="none" rx="5" ry="5" style="stroke:#000000;stroke-width:1.5;"/><ellipse cx="393" cy="392.2383" fill="#000000" rx="2" ry="2" style="stroke:#000000;stroke-width:1.5;"/><text fill="#000000" font-family="sans-serif" font-size="12" lengthAdjust="spacing" textLength="23" x="447" y="397.207">Non</text><ellipse cx="434" cy="392.2383" fill="none" rx="5" ry="5" style="stroke:#000000;stroke-width:1.5;"/><text fill="#000000" font-family="sans-serif" font-size="12" lengthAdjust="spacing" textLength="370" x="13" y="416.168">Le professionnel accepterait-il de r&#233;pondre &#224; une autre enqu&#234;te ?* :</text><text fill="#000000" font-family="sans-serif" font-size="12" lengthAdjust="spacing" textLength="19" x="406" y="417.168">Oui</text><ellipse cx="393" cy="412.1992" fill="none" rx="5" ry="5" style="stroke:#000000;stroke-width:1.5;"/><text fill="#000000" font-family="sans-serif" font-size="12" font-weight="bold" lengthAdjust="spacing" textLength="22" x="447" y="417.168">Non</text><ellipse cx="434" cy="412.1992" fill="none" rx="5" ry="5" style="stroke:#000000;stroke-width:1.5;"/><ellipse cx="434" cy="412.1992" fill="#000000" rx="2" ry="2" style="stroke:#000000;stroke-width:1.5;"/><text fill="#000000" font-family="sans-serif" font-size="12" lengthAdjust="spacing" textLength="340" x="13" y="436.1289">M&#233;tiers d&#233;clar&#233;s dans les journeaux de bord/fiches de p&#234;che :</text><rect fill="#EEEEEE" height="18.9609" style="stroke:#000000;stroke-width:1.0;" width="87" x="385" y="423.1797"/><text fill="#000000" font-family="sans-serif" font-size="12" lengthAdjust="spacing" textLength="3" x="387" y="438.1289">&#160;</text><line style="stroke:#000000;stroke-width:1.0;" x1="461" x2="461" y1="423.1797" y2="442.1406"/><polygon fill="#000000" points="464,429.1797,470,429.1797,467,437.1406" style="stroke:#000000;stroke-width:1.0;"/><text fill="#000000" font-family="sans-serif" font-size="12" lengthAdjust="spacing" textLength="165" x="13" y="458.0898">Habitudes de vente &#224; la cri&#233;e :</text><rect fill="#EEEEEE" height="18.9609" style="stroke:#000000;stroke-width:1.0;" width="87" x="385" y="445.1406"/><text fill="#000000" font-family="sans-serif" font-size="12" lengthAdjust="spacing" textLength="3" x="387" y="460.0898">&#160;</text><line style="stroke:#000000;stroke-width:1.0;" x1="461" x2="461" y1="445.1406" y2="464.1016"/><polygon fill="#000000" points="464,451.1406,470,451.1406,467,459.1016" style="stroke:#000000;stroke-width:1.0;"/><text fill="#000000" font-family="sans-serif" font-size="12" font-weight="bold" lengthAdjust="spacing" textLength="90" x="6" y="500.0117">Commentaires :</text><text fill="#000000" font-family="sans-serif" font-size="12" lengthAdjust="spacing" textLength="182" x="7" y="518.9727">19.01.2017 : Appel sans r&#233;ponse</text><text fill="#000000" font-family="sans-serif" font-size="12" lengthAdjust="spacing" textLength="219" x="7" y="536.9336">08/03/2019 : Conversation t&#233;l&#233;phonique</text><text fill="#000000" font-family="sans-serif" font-size="12" lengthAdjust="spacing" textLength="623" x="7" y="554.8945">2020 : Sort souvent avec Jean (BIBAS) --&gt; P&#234;chent &#233;galement sur ensemble sur BIBAS de temps en temps &#224; ERU</text><text fill="#000000" font-family="sans-serif" font-size="12" lengthAdjust="spacing" textLength="197" x="7" y="572.8555">12/02/2022 : H&#233;lice cass&#233;e fin 2022</text><line style="stroke:#000000;stroke-width:1.0;" x1="6" x2="631" y1="505.0234" y2="505.0234"/><line style="stroke:#000000;stroke-width:1.0;" x1="6" x2="631" y1="666.6719" y2="666.6719"/><line style="stroke:#000000;stroke-width:1.0;" x1="6" x2="6" y1="505.0234" y2="522.9844"/><line style="stroke:#000000;stroke-width:1.0;" x1="631" x2="631" y1="505.0234" y2="522.9844"/><line style="stroke:#000000;stroke-width:1.0;" x1="6" x2="6" y1="630.75" y2="648.7109"/><line style="stroke:#000000;stroke-width:1.0;" x1="631" x2="631" y1="630.75" y2="648.7109"/><line style="stroke:#000000;stroke-width:1.0;" x1="6" x2="6" y1="594.8281" y2="612.7891"/><line style="stroke:#000000;stroke-width:1.0;" x1="631" x2="631" y1="594.8281" y2="612.7891"/><line style="stroke:#000000;stroke-width:1.0;" x1="6" x2="6" y1="558.9063" y2="576.8672"/><line style="stroke:#000000;stroke-width:1.0;" x1="631" x2="631" y1="558.9063" y2="576.8672"/><line style="stroke:#000000;stroke-width:1.0;" x1="6" x2="6" y1="522.9844" y2="540.9453"/><line style="stroke:#000000;stroke-width:1.0;" x1="631" x2="631" y1="522.9844" y2="540.9453"/><line style="stroke:#000000;stroke-width:1.0;" x1="6" x2="6" y1="648.7109" y2="666.6719"/><line style="stroke:#000000;stroke-width:1.0;" x1="631" x2="631" y1="648.7109" y2="666.6719"/><line style="stroke:#000000;stroke-width:1.0;" x1="6" x2="6" y1="612.7891" y2="630.75"/><line style="stroke:#000000;stroke-width:1.0;" x1="631" x2="631" y1="612.7891" y2="630.75"/><line style="stroke:#000000;stroke-width:1.0;" x1="6" x2="6" y1="576.8672" y2="594.8281"/><line style="stroke:#000000;stroke-width:1.0;" x1="631" x2="631" y1="576.8672" y2="594.8281"/><line style="stroke:#000000;stroke-width:1.0;" x1="6" x2="6" y1="540.9453" y2="558.9063"/><line style="stroke:#000000;stroke-width:1.0;" x1="631" x2="631" y1="540.9453" y2="558.9063"/><line style="stroke:#AAAAAA;stroke-width:1.0;" x1="6" x2="1109" y1="672.1719" y2="672.1719"/><rect fill="#EEEEEE" height="19.9609" rx="5" ry="5" style="stroke:#000000;stroke-width:2.5;" width="52" x="9.5" y="680.1719"/><text fill="#000000" font-family="sans-serif" font-size="12" lengthAdjust="spacing" textLength="40" x="15.5" y="695.1211">Fermer</text><rect fill="#EEEEEE" height="19.9609" rx="5" ry="5" style="stroke:#000000;stroke-width:2.5;" width="92" x="68.5" y="680.1719"/><text fill="#000000" font-family="sans-serif" font-size="12" lengthAdjust="spacing" textLength="70" x="79.5" y="695.1211">Sauvegarder</text><!--SRC=[dLRTSjf65BxNKvoPNXZQ0fAmSKmpRZ1W6mgOsaxQJgQPMQG5Rogjo6gNSSRcNN9BNeCNwxSI2Fnpqsf0x9uzlz_vMTwbcYcTiaWx3mxHA34BpWm5BE8oL8Ah9acs48hJsydfpTLez1UDUgCh6hPkBtk3JfVgLA69LsySdnnYDMozhKrEVw4eaJF33QGXTlpp6u_Y_83BBsRzNVCcTQ0qq7n7sd2tGXun4NAwQ0slHhbKcWHYlTBhLSRHcoeUSsMFu7AbWjT3pHvSh5TolL8ieaTg5n5WCuGmLgcb9t7CfMQmdj8IejMgVLaT-499LpDD8Gw3EoPdt3Ad-Puf5i079L8jlXXGUCx8LCoi-s0pMxHIeyXtVHywSysmaNdrN8TLaCka1TV33zIBeLE9m4HCYqI2s5cl9aRJWaKY5501qhcGJ_QZ9DvpuP76YOA71_n-7YL2RnNrcPbncYYZEPLk-sVarJpN9NrVBWvB5xTsCpOYJQl4mhXAfN_-iAG14bkbo-ejAB4bj2GWvmY3WaIcMfbWO-PytCu2mhCfZqTo6pNti0PSF6pgiElRZO_DwwK5VuOjbDM0qP25Yg6chALX8hNYOMRcgE5QNRvzDnfL-tE2htVIECRFbH7B75QdGFSIs2VAef-1BvuY_T-o8LuSs9oyfFvkq6Ms5iE3PuSlCV9g-6pyj_Op18PCfLn44NyHJZinysXNH9MY6byD08sUUzHE0EIMTnSGA5d9RoBPszhYskCVApJR7kb57DwHNwy_ptdcy7KFZOr55mxbuTXtrelEhWzVQnMA3hRJ8hUNTrQc5X17OYg27F8dl3zI4moVUZBCPywddTIvO1CHPVtpceWzZZXuzqHw4dw9HIR3f3GSMR75FnKgjgqmPmgAaadArIA39jVrGAK_opOmr2IsfJ8GbRJSwHr0L2LJdgO8GFA8M13mkUQA2LqHaVKFcCyJJ3LEwsza919eq0Z51ALV2rDbsfZ9RJupLSp3SBqA8WQrM3BKlYsapubH4fV0lRKuILHO0wftEVxpzNSiSsne- -nXSmaqjGbpvWKA9_CqOXGeOR5vLN2N_Jpn-nEwkQshXv_GqrNNg_gkTmmzhVaS4ANMwHoLb3k5OdBVrDmwYiux0MixaGi4cnS6iXQ1_owHjgZsH52XBfXlxCnCxJM8gcSB7b2VCqcbizvPwwQCs-QKnXa8E5wlPhXbilwmyvx3XzYMYzra_1O5pUCvhWgvMG2ExlNxFRkOWUvc33Rf4jw90EN4qjJYDKKF5jT8_bJ_xthf5BSbVJpdw6prDzBnyOOXs1bJeTqldQNp3XTdze_06KTCwlV30LdyB7eMVhzUzUebp63g01tFGrwQljiyEgPszzPwMoyxfOlnmAAe44k81bO2mmKAoawVBHXT6wb5Z3y1LtCk-vtVjWJgIWonH5f8dVw7uOwXSLWv4vfkq5EOeX-6JeTFcOaq988a57A6DCyz_yXt1hYr3Pj1-LGv68wuAhuswVpwNm00]--></g></svg>