<?xml version="1.0" encoding="UTF-8" standalone="no"?><svg xmlns="http://www.w3.org/2000/svg" xmlns:xlink="http://www.w3.org/1999/xlink" contentStyleType="text/css" height="121px" preserveAspectRatio="none" style="width:416px;height:121px;background:#FFFFFF;" version="1.1" viewBox="0 0 416 121" width="416px" zoomAndPan="magnify"><defs/><g><text fill="#000000" font-family="sans-serif" font-size="12" font-weight="bold" lengthAdjust="spacing" textLength="128" x="6" y="18.8281">Calendriers d'activité</text><path d="M402,11.3441 L402,14.3441 L399,14.3441 L399,16.3441 L402,16.3441 L402,19.3441 L404,19.3441 L404,16.3441 L407,16.3441 L407,14.3441 L404,14.3441 L404,11.3441 L402,11.3441 " fill="#000000" style="stroke:;stroke-width:0.0;stroke-dasharray:;"/><line style="stroke:#AAAAAA;stroke-width:1.0;" x1="6" x2="409" y1="27.8441" y2="27.8441"/><rect fill="#EEEEEE" height="20.3441" rx="5" ry="5" style="stroke:#000000;stroke-width:2.5;" width="20" x="9.5" y="35.8441"/><text fill="#000000" font-family="sans-serif" font-size="12" lengthAdjust="spacing" textLength="3" x="18" y="50.6722"> </text><text fill="#000000" font-family="sans-serif" font-size="12" font-weight="bold" lengthAdjust="spacing" textLength="8" x="34" y="46.1722">#</text><text fill="#000000" font-family="sans-serif" font-size="12" font-weight="bold" lengthAdjust="spacing" textLength="24" x="57" y="46.1722">Etat</text><text fill="#000000" font-family="sans-serif" font-size="12" font-weight="bold" lengthAdjust="spacing" textLength="40" x="83" y="46.1722">Navire</text><text fill="#000000" font-family="sans-serif" font-size="12" font-weight="bold" lengthAdjust="spacing" textLength="38" x="289" y="46.1722">Année</text><text fill="#000000" font-family="sans-serif" font-size="12" font-weight="bold" lengthAdjust="spacing" textLength="60" x="332" y="46.1722">Saisisseur</text><rect fill="#EEEEEE" height="20.3441" rx="5" ry="5" style="stroke:#000000;stroke-width:2.5;" width="20" x="9.5" y="63.1882"/><text fill="#000000" font-family="sans-serif" font-size="12" lengthAdjust="spacing" textLength="3" x="18" y="78.0163"> </text><text fill="#000000" font-family="sans-serif" font-size="12" lengthAdjust="spacing" textLength="21" x="34" y="73.5163">120</text><text fill="#000000" font-family="sans-serif" font-size="12" font-weight="bold" lengthAdjust="spacing" textLength="6" x="57" y="73.5163">  </text><path d="M70,66.0323 L69,67.0323 L71,69.0323 L72,68.0323 L70,66.0323 M68,68.0323 L64,72.0323 L64,74.0323 L66,74.0323 L70,70.0323 L68,68.0323 " fill="#000000" style="stroke:;stroke-width:0.0;stroke-dasharray:;"/><text fill="#000000" font-family="sans-serif" font-size="12" lengthAdjust="spacing" textLength="201" x="83" y="73.5163">136794 - SONNY NINO MATHILDE 3</text><text fill="#000000" font-family="sans-serif" font-size="12" lengthAdjust="spacing" textLength="28" x="286" y="73.5163">2022</text><text fill="#000000" font-family="sans-serif" font-size="12" lengthAdjust="spacing" textLength="29" x="329" y="73.5163">Obs1</text><rect fill="#EEEEEE" height="20.3441" rx="5" ry="5" style="stroke:#000000;stroke-width:2.5;" width="20" x="9.5" y="90.5323"/><text fill="#000000" font-family="sans-serif" font-size="12" lengthAdjust="spacing" textLength="3" x="18" y="105.3604"> </text><text fill="#000000" font-family="sans-serif" font-size="12" lengthAdjust="spacing" textLength="21" x="34" y="100.8604">122</text><text fill="#000000" font-family="sans-serif" font-size="12" font-weight="bold" lengthAdjust="spacing" textLength="6" x="57" y="100.8604">  </text><path d="M70,93.3765 L69,94.3765 L71,96.3765 L72,95.3765 L70,93.3765 M68,95.3765 L64,99.3765 L64,101.3765 L66,101.3765 L70,97.3765 L68,95.3765 " fill="#000000" style="stroke:;stroke-width:0.0;stroke-dasharray:;"/><text fill="#000000" font-family="sans-serif" font-size="12" lengthAdjust="spacing" textLength="115" x="83" y="100.8604">CN123456 - Vessel 3</text><text fill="#000000" font-family="sans-serif" font-size="12" lengthAdjust="spacing" textLength="28" x="286" y="100.8604">2022</text><text fill="#000000" font-family="sans-serif" font-size="12" lengthAdjust="spacing" textLength="29" x="329" y="100.8604">Obs3</text><path d="M395.09,88.0323 C395.03,88.0323 395,88.0723 395,88.1223 L395,93.9323 C395,93.9823 395.04,94.0223 395.09,94.0223 L401,94.0223 L403,96.0223 L403,88.1123 C403,88.0523 402.96,88.0223 402.91,88.0223 L395.1,88.0223 " fill="#000000" style="stroke:;stroke-width:0.0;stroke-dasharray:;"/><line style="stroke:#000000;stroke-width:1.0;" x1="6" x2="33" y1="32.3441" y2="32.3441"/><line style="stroke:#000000;stroke-width:1.0;" x1="33" x2="56" y1="32.3441" y2="32.3441"/><line style="stroke:#000000;stroke-width:1.0;" x1="56" x2="82" y1="32.3441" y2="32.3441"/><line style="stroke:#000000;stroke-width:1.0;" x1="82" x2="285" y1="32.3441" y2="32.3441"/><line style="stroke:#000000;stroke-width:1.0;" x1="285" x2="328" y1="32.3441" y2="32.3441"/><line style="stroke:#000000;stroke-width:1.0;" x1="328" x2="393" y1="32.3441" y2="32.3441"/><line style="stroke:#000000;stroke-width:1.0;" x1="393" x2="405" y1="32.3441" y2="32.3441"/><line style="stroke:#000000;stroke-width:1.0;" x1="6" x2="33" y1="114.3765" y2="114.3765"/><line style="stroke:#000000;stroke-width:1.0;" x1="33" x2="56" y1="114.3765" y2="114.3765"/><line style="stroke:#000000;stroke-width:1.0;" x1="56" x2="82" y1="114.3765" y2="114.3765"/><line style="stroke:#000000;stroke-width:1.0;" x1="82" x2="285" y1="114.3765" y2="114.3765"/><line style="stroke:#000000;stroke-width:1.0;" x1="285" x2="328" y1="114.3765" y2="114.3765"/><line style="stroke:#000000;stroke-width:1.0;" x1="328" x2="393" y1="114.3765" y2="114.3765"/><line style="stroke:#000000;stroke-width:1.0;" x1="393" x2="405" y1="114.3765" y2="114.3765"/><line style="stroke:#000000;stroke-width:1.0;" x1="6" x2="33" y1="87.0323" y2="87.0323"/><line style="stroke:#000000;stroke-width:1.0;" x1="33" x2="56" y1="87.0323" y2="87.0323"/><line style="stroke:#000000;stroke-width:1.0;" x1="56" x2="82" y1="87.0323" y2="87.0323"/><line style="stroke:#000000;stroke-width:1.0;" x1="82" x2="285" y1="87.0323" y2="87.0323"/><line style="stroke:#000000;stroke-width:1.0;" x1="285" x2="328" y1="87.0323" y2="87.0323"/><line style="stroke:#000000;stroke-width:1.0;" x1="328" x2="393" y1="87.0323" y2="87.0323"/><line style="stroke:#000000;stroke-width:1.0;" x1="393" x2="405" y1="87.0323" y2="87.0323"/><line style="stroke:#000000;stroke-width:1.0;" x1="6" x2="33" y1="59.6882" y2="59.6882"/><line style="stroke:#000000;stroke-width:1.0;" x1="33" x2="56" y1="59.6882" y2="59.6882"/><line style="stroke:#000000;stroke-width:1.0;" x1="56" x2="82" y1="59.6882" y2="59.6882"/><line style="stroke:#000000;stroke-width:1.0;" x1="82" x2="285" y1="59.6882" y2="59.6882"/><line style="stroke:#000000;stroke-width:1.0;" x1="285" x2="328" y1="59.6882" y2="59.6882"/><line style="stroke:#000000;stroke-width:1.0;" x1="328" x2="393" y1="59.6882" y2="59.6882"/><line style="stroke:#000000;stroke-width:1.0;" x1="393" x2="405" y1="59.6882" y2="59.6882"/><line style="stroke:#000000;stroke-width:1.0;" x1="6" x2="6" y1="32.3441" y2="59.6882"/><line style="stroke:#000000;stroke-width:1.0;" x1="56" x2="56" y1="87.0323" y2="114.3765"/><line style="stroke:#000000;stroke-width:1.0;" x1="33" x2="33" y1="32.3441" y2="59.6882"/><line style="stroke:#000000;stroke-width:1.0;" x1="82" x2="82" y1="87.0323" y2="114.3765"/><line style="stroke:#000000;stroke-width:1.0;" x1="56" x2="56" y1="32.3441" y2="59.6882"/><line style="stroke:#000000;stroke-width:1.0;" x1="285" x2="285" y1="87.0323" y2="114.3765"/><line style="stroke:#000000;stroke-width:1.0;" x1="82" x2="82" y1="32.3441" y2="59.6882"/><line style="stroke:#000000;stroke-width:1.0;" x1="328" x2="328" y1="87.0323" y2="114.3765"/><line style="stroke:#000000;stroke-width:1.0;" x1="285" x2="285" y1="32.3441" y2="59.6882"/><line style="stroke:#000000;stroke-width:1.0;" x1="393" x2="393" y1="87.0323" y2="114.3765"/><line style="stroke:#000000;stroke-width:1.0;" x1="405" x2="405" y1="87.0323" y2="114.3765"/><line style="stroke:#000000;stroke-width:1.0;" x1="328" x2="328" y1="32.3441" y2="59.6882"/><line style="stroke:#000000;stroke-width:1.0;" x1="393" x2="393" y1="32.3441" y2="59.6882"/><line style="stroke:#000000;stroke-width:1.0;" x1="405" x2="405" y1="32.3441" y2="59.6882"/><line style="stroke:#000000;stroke-width:1.0;" x1="6" x2="6" y1="59.6882" y2="87.0323"/><line style="stroke:#000000;stroke-width:1.0;" x1="33" x2="33" y1="59.6882" y2="87.0323"/><line style="stroke:#000000;stroke-width:1.0;" x1="56" x2="56" y1="59.6882" y2="87.0323"/><line style="stroke:#000000;stroke-width:1.0;" x1="82" x2="82" y1="59.6882" y2="87.0323"/><line style="stroke:#000000;stroke-width:1.0;" x1="285" x2="285" y1="59.6882" y2="87.0323"/><line style="stroke:#000000;stroke-width:1.0;" x1="328" x2="328" y1="59.6882" y2="87.0323"/><line style="stroke:#000000;stroke-width:1.0;" x1="393" x2="393" y1="59.6882" y2="87.0323"/><line style="stroke:#000000;stroke-width:1.0;" x1="405" x2="405" y1="59.6882" y2="87.0323"/><line style="stroke:#000000;stroke-width:1.0;" x1="6" x2="6" y1="87.0323" y2="114.3765"/><line style="stroke:#000000;stroke-width:1.0;" x1="33" x2="33" y1="87.0323" y2="114.3765"/></g></svg>