<?xml version="1.0" encoding="us-ascii" standalone="no"?><svg xmlns="http://www.w3.org/2000/svg" xmlns:xlink="http://www.w3.org/1999/xlink" contentStyleType="text/css" height="253px" preserveAspectRatio="none" style="width:751px;height:253px;background:#FFFFFF;" version="1.1" viewBox="0 0 751 253" width="751px" zoomAndPan="magnify"><defs/><g><text fill="#000000" font-family="sans-serif" font-size="12" font-weight="bold" lengthAdjust="spacing" textLength="120" x="7" y="19.9492">Calendriers d'activit&#233;</text><path d="M666,11.9609 C663.8,11.9609 662,13.7609 662,15.9609 C662,18.1609 663.8,19.9609 666,19.9609 C667.1,19.9609 668.12,19.5309 668.84,18.8009 L668.12,18.0809 C667.58,18.6209 666.83,18.9609 665.99,18.9609 C664.33,18.9609 662.99,17.6209 662.99,15.9609 C662.99,14.3009 664.33,12.9609 665.99,12.9609 C666.82,12.9609 667.54,13.3209 668.08,13.8709 L666.99,14.9609 L669.99,14.9609 L669.99,11.9609 L668.8,13.1509 C668.08,12.4309 667.09,11.9609 665.99,11.9609 " fill="#000000" style="stroke:;stroke-width:0.0;stroke-dasharray:;"/><line style="stroke:#AAAAAA;stroke-width:1.0;" x1="6" x2="739" y1="29.4609" y2="29.4609"/><text fill="#000000" font-family="sans-serif" font-size="12" lengthAdjust="spacing" textLength="134" x="7" y="47.9102">Programme de collecte :</text><rect fill="#EEEEEE" height="18.9609" style="stroke:#000000;stroke-width:1.0;" width="191" x="168" y="34.9609"/><text fill="#000000" font-family="sans-serif" font-size="12" lengthAdjust="spacing" textLength="80" x="170" y="49.9102">SIH-ACTIFLOT</text><line style="stroke:#000000;stroke-width:1.0;" x1="348" x2="348" y1="34.9609" y2="53.9219"/><polygon fill="#000000" points="351,40.9609,357,40.9609,354,48.9219" style="stroke:#000000;stroke-width:1.0;"/><text fill="#000000" font-family="sans-serif" font-size="12" lengthAdjust="spacing" textLength="127" x="7" y="87.832">Lieu d'immatriculation :</text><rect fill="#EEEEEE" height="18.9609" style="stroke:#000000;stroke-width:1.0;" width="191" x="168" y="74.8828"/><text fill="#000000" font-family="sans-serif" font-size="12" lengthAdjust="spacing" textLength="76" x="170" y="89.832">MA - Marseille</text><line style="stroke:#000000;stroke-width:1.0;" x1="348" x2="348" y1="74.8828" y2="93.8438"/><polygon fill="#000000" points="351,80.8828,357,80.8828,354,88.8438" style="stroke:#000000;stroke-width:1.0;"/><text fill="#000000" font-family="sans-serif" font-size="12" lengthAdjust="spacing" textLength="102" x="372" y="87.832">Port d'exploitation :</text><rect fill="#EEEEEE" height="18.9609" style="stroke:#000000;stroke-width:1.0;" width="255" x="481" y="74.8828"/><text fill="#000000" font-family="sans-serif" font-size="12" lengthAdjust="spacing" textLength="182" x="483" y="89.832">JMA - La Madrague de Montredon</text><line style="stroke:#000000;stroke-width:1.0;" x1="725" x2="725" y1="74.8828" y2="93.8438"/><polygon fill="#000000" points="728,80.8828,734,80.8828,731,88.8438" style="stroke:#000000;stroke-width:1.0;"/><text fill="#000000" font-family="sans-serif" font-size="12" lengthAdjust="spacing" textLength="41" x="7" y="127.7539">Navire :</text><rect fill="#EEEEEE" height="18.9609" style="stroke:#000000;stroke-width:1.0;" width="191" x="168" y="114.8047"/><text fill="#000000" font-family="sans-serif" font-size="12" lengthAdjust="spacing" textLength="94" x="170" y="129.7539">123456 - SONNY</text><line style="stroke:#000000;stroke-width:1.0;" x1="348" x2="348" y1="114.8047" y2="133.7656"/><polygon fill="#000000" points="351,120.8047,357,120.8047,354,128.7656" style="stroke:#000000;stroke-width:1.0;"/><text fill="#000000" font-family="sans-serif" font-size="12" lengthAdjust="spacing" textLength="27" x="372" y="127.7539">Etat :</text><rect fill="#EEEEEE" height="18.9609" style="stroke:#000000;stroke-width:1.0;" width="255" x="481" y="114.8047"/><text fill="#000000" font-family="sans-serif" font-size="12" lengthAdjust="spacing" textLength="103" x="483" y="129.7539">En cours de saisie</text><line style="stroke:#000000;stroke-width:1.0;" x1="725" x2="725" y1="114.8047" y2="133.7656"/><polygon fill="#000000" points="728,120.8047,734,120.8047,731,128.7656" style="stroke:#000000;stroke-width:1.0;"/><text fill="#000000" font-family="sans-serif" font-size="12" lengthAdjust="spacing" textLength="154" x="7" y="167.6758">Objectif d'enqu&#234;te directe ? :</text><text fill="#000000" font-family="sans-serif" font-size="12" font-weight="bold" lengthAdjust="spacing" textLength="19" x="189" y="168.6758">Oui</text><ellipse cx="176" cy="163.707" fill="none" rx="5" ry="5" style="stroke:#000000;stroke-width:1.5;"/><ellipse cx="176" cy="163.707" fill="#000000" rx="2" ry="2" style="stroke:#000000;stroke-width:1.5;"/><text fill="#000000" font-family="sans-serif" font-size="12" lengthAdjust="spacing" textLength="23" x="230" y="168.6758">Non</text><ellipse cx="217" cy="163.707" fill="none" rx="5" ry="5" style="stroke:#000000;stroke-width:1.5;"/><text fill="#000000" font-family="sans-serif" font-size="12" lengthAdjust="spacing" textLength="85" x="372" y="167.6758">Enqu&#234;te &#233;co ? :</text><text fill="#000000" font-family="sans-serif" font-size="12" lengthAdjust="spacing" textLength="19" x="502" y="168.6758">Oui</text><ellipse cx="489" cy="163.707" fill="none" rx="5" ry="5" style="stroke:#000000;stroke-width:1.5;"/><text fill="#000000" font-family="sans-serif" font-size="12" font-weight="bold" lengthAdjust="spacing" textLength="22" x="543" y="168.6758">Non</text><ellipse cx="530" cy="163.707" fill="none" rx="5" ry="5" style="stroke:#000000;stroke-width:1.5;"/><ellipse cx="530" cy="163.707" fill="#000000" rx="2" ry="2" style="stroke:#000000;stroke-width:1.5;"/><text fill="#000000" font-family="sans-serif" font-size="12" lengthAdjust="spacing" textLength="130" x="7" y="205.5977">Organisme saisisseur :</text><rect fill="#EEEEEE" height="18.9609" style="stroke:#000000;stroke-width:1.0;" width="191" x="168" y="192.6484"/><text fill="#000000" font-family="sans-serif" font-size="12" lengthAdjust="spacing" textLength="39" x="170" y="207.5977">Ifremer</text><line style="stroke:#000000;stroke-width:1.0;" x1="348" x2="348" y1="192.6484" y2="211.6094"/><polygon fill="#000000" points="351,198.6484,357,198.6484,354,206.6094" style="stroke:#000000;stroke-width:1.0;"/><text fill="#000000" font-family="sans-serif" font-size="12" lengthAdjust="spacing" textLength="66" x="372" y="205.5977">Saisisseur :</text><rect fill="#EEEEEE" height="18.9609" style="stroke:#000000;stroke-width:1.0;" width="255" x="481" y="192.6484"/><text fill="#000000" font-family="sans-serif" font-size="12" lengthAdjust="spacing" textLength="98" x="483" y="207.5977">Nicolas DUPOND</text><line style="stroke:#000000;stroke-width:1.0;" x1="725" x2="725" y1="192.6484" y2="211.6094"/><polygon fill="#000000" points="728,198.6484,734,198.6484,731,206.6094" style="stroke:#000000;stroke-width:1.0;"/><line style="stroke:#AAAAAA;stroke-width:1.0;" x1="6" x2="739" y1="219.1094" y2="219.1094"/><text fill="#000000" font-family="sans-serif" font-size="12" lengthAdjust="spacing" textLength="58" x="7" y="237.5586">2 r&#233;sultats</text><rect fill="#EEEEEE" height="12" rx="5" ry="5" style="stroke:#000000;stroke-width:2.5;" width="20" x="71.5" y="227.1094"/><path d="M77.5,229.1094 L81.5,233.1094 L85.5,229.1094 L77.5,229.1094 " fill="#000000" style="stroke:;stroke-width:0.0;stroke-dasharray:;"/><rect fill="#EEEEEE" height="19.9609" rx="5" ry="5" style="stroke:#000000;stroke-width:2.5;" width="52" x="98.5" y="227.1094"/><text fill="#000000" font-family="sans-serif" font-size="12" lengthAdjust="spacing" textLength="40" x="104.5" y="242.0586">Fermer</text><rect fill="#EEEEEE" height="19.9609" rx="5" ry="5" style="stroke:#000000;stroke-width:2.5;" width="76" x="157.5" y="227.1094"/><text fill="#000000" font-family="sans-serif" font-size="12" lengthAdjust="spacing" textLength="52" x="169.5" y="242.0586">Appliquer</text><!--SRC=[rLFjRjem5FtlfxY_ElWHr8JIQH5YPNniPKb0XLQRgY6Pn4IU4flQ3jf4yq3iDNYnNVEzYXTO92l-kEVut7kFxxIXocYQ6R8Y163LdBKwD6CYKPmf3Sax6Xk-v6QpXl_kQrufbacQj4hC31p79eWfaiFvICbKqJnda328PPQns33muHLgEAOmll_Yj3kJ-tumd1n9fqTuxJWBE2kmL3pFgL4yBZ9gk1HdJ64R70YfqepZBGUc_R4T8waCCh1VYqnoymO-sC83YWo9eccnrHjAOHHBfBWaAA9BhivJSRtwJUCMMSR3AFf-GK0FBpt5zmJMex3zPw0frvoTr_NIZSFPJwmUdzian4kn-OELJ523hUX798OTzGegtwg09XiM77SgLOYaA5_XfEC0tgnZUOw4bOtUmtOS5df9Yagfu3hVIzUQ5Uh4CuNxkM8vK_zwnTRYA69y0OSH4KUJK0tTnz4mwhunstJdhjB-q6heCm_KPgsB32khSLa-DwzYgfXnPj8OcRT-8EbpdodKifss5ukClnIuAajIaZjyXDk7IKOP5UOn3629Jz8wmwrvrrwzvjOhw0BeiXXS5zmFldVjDzv3fpS1UrubbS-Z03GsChRDqEZDMM6jLIK3kgJmK0Z3S-R3SC74eFlri85DGFj8aJDXoE0fF0NStZYVk84nKoW5daBIPNEA6I8YbWaNgG-TXUirF19GaHOqHVAv8Xs9nEgt3_s7lm00]--></g></svg>