<?xml version="1.0" encoding="us-ascii" standalone="no"?><svg xmlns="http://www.w3.org/2000/svg" xmlns:xlink="http://www.w3.org/1999/xlink" contentStyleType="text/css" height="215px" preserveAspectRatio="none" style="width:618px;height:215px;background:#FFFFFF;" version="1.1" viewBox="0 0 618 215" width="618px" zoomAndPan="magnify"><defs/><g><text fill="#000000" font-family="sans-serif" font-size="12" font-weight="bold" lengthAdjust="spacing" textLength="120" x="7" y="19.9492">Calendriers d'activit&#233;</text><path d="M582,11.9609 C579.8,11.9609 578,13.7609 578,15.9609 C578,18.1609 579.8,19.9609 582,19.9609 C583.1,19.9609 584.12,19.5309 584.84,18.8009 L584.12,18.0809 C583.58,18.6209 582.83,18.9609 581.99,18.9609 C580.33,18.9609 578.99,17.6209 578.99,15.9609 C578.99,14.3009 580.33,12.9609 581.99,12.9609 C582.82,12.9609 583.54,13.3209 584.08,13.8709 L582.99,14.9609 L585.99,14.9609 L585.99,11.9609 L584.8,13.1509 C584.08,12.4309 583.09,11.9609 581.99,11.9609 " fill="#000000" style="stroke:;stroke-width:0.0;stroke-dasharray:;"/><line style="stroke:#AAAAAA;stroke-width:1.0;" x1="6" x2="606" y1="29.4609" y2="29.4609"/><text fill="#000000" font-family="sans-serif" font-size="12" lengthAdjust="spacing" textLength="134" x="7" y="47.9102">Programme de collecte :</text><rect fill="#EEEEEE" height="18.9609" style="stroke:#000000;stroke-width:1.0;" width="191" x="158" y="34.9609"/><text fill="#000000" font-family="sans-serif" font-size="12" lengthAdjust="spacing" textLength="80" x="160" y="49.9102">SIH-ACTIFLOT</text><line style="stroke:#000000;stroke-width:1.0;" x1="338" x2="338" y1="34.9609" y2="53.9219"/><polygon fill="#000000" points="341,40.9609,347,40.9609,344,48.9219" style="stroke:#000000;stroke-width:1.0;"/><text fill="#000000" font-family="sans-serif" font-size="12" lengthAdjust="spacing" textLength="27" x="362" y="47.9102">Etat :</text><rect fill="#EEEEEE" height="18.9609" style="stroke:#000000;stroke-width:1.0;" width="159" x="444" y="34.9609"/><text fill="#000000" font-family="sans-serif" font-size="12" lengthAdjust="spacing" textLength="103" x="446" y="49.9102">En cours de saisie</text><line style="stroke:#000000;stroke-width:1.0;" x1="592" x2="592" y1="34.9609" y2="53.9219"/><polygon fill="#000000" points="595,40.9609,601,40.9609,598,48.9219" style="stroke:#000000;stroke-width:1.0;"/><text fill="#000000" font-family="sans-serif" font-size="12" lengthAdjust="spacing" textLength="41" x="7" y="87.832">Navire :</text><rect fill="#EEEEEE" height="18.9609" style="stroke:#000000;stroke-width:1.0;" width="191" x="158" y="74.8828"/><text fill="#000000" font-family="sans-serif" font-size="12" lengthAdjust="spacing" textLength="134" x="160" y="89.832">456789 - PETIT BATEAU</text><line style="stroke:#000000;stroke-width:1.0;" x1="338" x2="338" y1="74.8828" y2="93.8438"/><polygon fill="#000000" points="341,80.8828,347,80.8828,344,88.8438" style="stroke:#000000;stroke-width:1.0;"/><text fill="#000000" font-family="sans-serif" font-size="12" lengthAdjust="spacing" textLength="41" x="362" y="87.832">Ann&#233;e :</text><rect fill="#EEEEEE" height="18.9609" style="stroke:#000000;stroke-width:1.0;" width="159" x="444" y="74.8828"/><text fill="#000000" font-family="sans-serif" font-size="12" lengthAdjust="spacing" textLength="28" x="446" y="89.832">2022</text><line style="stroke:#000000;stroke-width:1.0;" x1="592" x2="592" y1="74.8828" y2="93.8438"/><polygon fill="#000000" points="595,80.8828,601,80.8828,598,88.8438" style="stroke:#000000;stroke-width:1.0;"/><text fill="#000000" font-family="sans-serif" font-size="12" lengthAdjust="spacing" textLength="144" x="7" y="127.7539">Objectif d'enqu&#234;te directe :</text><rect fill="#EEEEEE" height="18.9609" style="stroke:#000000;stroke-width:1.0;" width="191" x="158" y="114.8047"/><text fill="#000000" font-family="sans-serif" font-size="12" lengthAdjust="spacing" textLength="39" x="160" y="129.7539">Directe</text><line style="stroke:#000000;stroke-width:1.0;" x1="338" x2="338" y1="114.8047" y2="133.7656"/><polygon fill="#000000" points="341,120.8047,347,120.8047,344,128.7656" style="stroke:#000000;stroke-width:1.0;"/><text fill="#000000" font-family="sans-serif" font-size="12" lengthAdjust="spacing" textLength="75" x="362" y="127.7539">Enqu&#234;te &#233;co :</text><rect fill="#EEEEEE" height="18.9609" style="stroke:#000000;stroke-width:1.0;" width="159" x="444" y="114.8047"/><text fill="#000000" font-family="sans-serif" font-size="12" lengthAdjust="spacing" textLength="3" x="446" y="129.7539">&#160;</text><line style="stroke:#000000;stroke-width:1.0;" x1="592" x2="592" y1="114.8047" y2="133.7656"/><polygon fill="#000000" points="595,120.8047,601,120.8047,598,128.7656" style="stroke:#000000;stroke-width:1.0;"/><text fill="#000000" font-family="sans-serif" font-size="12" lengthAdjust="spacing" textLength="130" x="7" y="167.6758">Organisme saisisseur :</text><rect fill="#EEEEEE" height="18.9609" style="stroke:#000000;stroke-width:1.0;" width="191" x="158" y="154.7266"/><text fill="#000000" font-family="sans-serif" font-size="12" lengthAdjust="spacing" textLength="39" x="160" y="169.6758">Ifremer</text><line style="stroke:#000000;stroke-width:1.0;" x1="338" x2="338" y1="154.7266" y2="173.6875"/><polygon fill="#000000" points="341,160.7266,347,160.7266,344,168.6875" style="stroke:#000000;stroke-width:1.0;"/><text fill="#000000" font-family="sans-serif" font-size="12" lengthAdjust="spacing" textLength="66" x="362" y="167.6758">Saisisseur :</text><rect fill="#EEEEEE" height="18.9609" style="stroke:#000000;stroke-width:1.0;" width="159" x="444" y="154.7266"/><text fill="#000000" font-family="sans-serif" font-size="12" lengthAdjust="spacing" textLength="98" x="446" y="169.6758">Nicolas DUPOND</text><line style="stroke:#000000;stroke-width:1.0;" x1="592" x2="592" y1="154.7266" y2="173.6875"/><polygon fill="#000000" points="595,160.7266,601,160.7266,598,168.6875" style="stroke:#000000;stroke-width:1.0;"/><line style="stroke:#AAAAAA;stroke-width:1.0;" x1="6" x2="606" y1="181.1875" y2="181.1875"/><text fill="#000000" font-family="sans-serif" font-size="12" lengthAdjust="spacing" textLength="58" x="7" y="199.6367">2 r&#233;sultats</text><rect fill="#EEEEEE" height="12" rx="5" ry="5" style="stroke:#000000;stroke-width:2.5;" width="20" x="71.5" y="189.1875"/><path d="M77.5,191.1875 L81.5,195.1875 L85.5,191.1875 L77.5,191.1875 " fill="#000000" style="stroke:;stroke-width:0.0;stroke-dasharray:;"/><rect fill="#EEEEEE" height="19.9609" rx="5" ry="5" style="stroke:#000000;stroke-width:2.5;" width="52" x="98.5" y="189.1875"/><text fill="#000000" font-family="sans-serif" font-size="12" lengthAdjust="spacing" textLength="40" x="104.5" y="204.1367">Fermer</text><rect fill="#EEEEEE" height="19.9609" rx="5" ry="5" style="stroke:#000000;stroke-width:2.5;" width="76" x="157.5" y="189.1875"/><text fill="#000000" font-family="sans-serif" font-size="12" lengthAdjust="spacing" textLength="52" x="169.5" y="204.1367">Appliquer</text><!--SRC=[pLFRRjf047tVhvYdD7amYar86WkX40mjb8iLJ5wY8YtsWBQorsHtZHIb_Y3w6_wnZ0aGHqLzhgMLzpRdp9apUwSDLqRpsB1NnW1UcujMXySe8oLGQOY-yD28ZJ355lxBhtccC4vvrCefUx2iKWJ9O8TpNwKhnPC48K88qpZ6q22uy1jgDEOmxN-tsfsWtnjEWYFeV7zSZgxXXkx38Q8h2IOhIuEWkT02vqUosd4svXkXgZnNZUkRhxTWWTyD-W7SjuDkUrRbQKjPRAiHpgNZV99wYcUo-4M2n9ACGlcS5Nz8N4JCxoBtIS_1sszzngFJ3vc7w68RfbMzVvVyP1vgnQNGoRucMcEcgWdqbmeJLFz8O7eYZcwC1Pd6DNWpVpBsTkmxqhpyaTtajGEgsEei9gCqBVEdvbd85HfhaHgJ9gsV1FJKGqNyksbxlOx5SqQhF6SvkwDctpq0viTScjbe21jgVP5Ai6jaGhrcryz7jF8m1Di6-zPrBjt63NIwGMbI_OATV_E7eAahmhBwsYYno0m1NB01tt1uoAGH2RemMQCSU3yE6rHqwf9K9YWD6poEFYvSNrdtmi0K5QK2ZoFcuPAJGee8qqZ8bGkTjUqq73RaSfNn5O4l5Uka1AnUNEWzl040]--></g></svg>