<?xml version="1.0" encoding="us-ascii" standalone="no"?><svg xmlns="http://www.w3.org/2000/svg" xmlns:xlink="http://www.w3.org/1999/xlink" contentStyleType="text/css" height="601px" preserveAspectRatio="none" style="width:702px;height:601px;background:#FFFFFF;" version="1.1" viewBox="0 0 702 601" width="702px" zoomAndPan="magnify"><defs/><g><text fill="#000000" font-family="sans-serif" font-size="12" lengthAdjust="spacing" textLength="41" x="6" y="18.9492">Navire :</text><text fill="#000000" font-family="sans-serif" font-size="12" font-weight="bold" lengthAdjust="spacing" textLength="206" x="50" y="18.9492">SONNY - 123456 - MA - 7,81 m - 2022</text><line style="stroke:#AAAAAA;stroke-width:1.0;" x1="6" x2="483" y1="27.4609" y2="27.4609"/><text fill="#000000" font-family="sans-serif" font-size="12" font-weight="bold" lengthAdjust="spacing" textLength="44" x="8" y="44.9102">G&#233;n&#233;ral</text><line style="stroke:#000000;stroke-width:1.0;" x1="6" x2="6" y1="31.9609" y2="47.9219"/><line style="stroke:#000000;stroke-width:1.0;" x1="6" x2="55" y1="31.9609" y2="31.9609"/><line style="stroke:#000000;stroke-width:1.0;" x1="55" x2="55" y1="31.9609" y2="47.9219"/><line style="stroke:#000000;stroke-width:1.0;" x1="55" x2="65" y1="47.9219" y2="47.9219"/><text fill="#000000" font-family="sans-serif" font-size="12" lengthAdjust="spacing" textLength="35" x="67" y="44.9102">Navire</text><line style="stroke:#000000;stroke-width:1.0;" x1="65" x2="65" y1="31.9609" y2="47.9219"/><line style="stroke:#000000;stroke-width:1.0;" x1="65" x2="105" y1="31.9609" y2="31.9609"/><line style="stroke:#000000;stroke-width:1.0;" x1="105" x2="105" y1="31.9609" y2="47.9219"/><line style="stroke:#000000;stroke-width:1.0;" x1="105" x2="115" y1="47.9219" y2="47.9219"/><text fill="#000000" font-family="sans-serif" font-size="12" lengthAdjust="spacing" textLength="58" x="117" y="44.9102">Calendrier</text><line style="stroke:#000000;stroke-width:1.0;" x1="115" x2="115" y1="31.9609" y2="47.9219"/><line style="stroke:#000000;stroke-width:1.0;" x1="115" x2="178" y1="31.9609" y2="31.9609"/><line style="stroke:#000000;stroke-width:1.0;" x1="178" x2="178" y1="31.9609" y2="47.9219"/><line style="stroke:#000000;stroke-width:1.0;" x1="178" x2="188" y1="47.9219" y2="47.9219"/><text fill="#000000" font-family="sans-serif" font-size="12" lengthAdjust="spacing" textLength="40" x="190" y="44.9102">M&#233;tiers</text><line style="stroke:#000000;stroke-width:1.0;" x1="188" x2="188" y1="31.9609" y2="47.9219"/><line style="stroke:#000000;stroke-width:1.0;" x1="188" x2="233" y1="31.9609" y2="31.9609"/><line style="stroke:#000000;stroke-width:1.0;" x1="233" x2="233" y1="31.9609" y2="47.9219"/><line style="stroke:#000000;stroke-width:1.0;" x1="233" x2="243" y1="47.9219" y2="47.9219"/><text fill="#000000" font-family="sans-serif" font-size="12" lengthAdjust="spacing" textLength="30" x="245" y="44.9102">Carte</text><line style="stroke:#000000;stroke-width:1.0;" x1="243" x2="243" y1="31.9609" y2="47.9219"/><line style="stroke:#000000;stroke-width:1.0;" x1="243" x2="278" y1="31.9609" y2="31.9609"/><line style="stroke:#000000;stroke-width:1.0;" x1="278" x2="278" y1="31.9609" y2="47.9219"/><line style="stroke:#000000;stroke-width:1.0;" x1="278" x2="288" y1="47.9219" y2="47.9219"/><line style="stroke:#AAAAAA;stroke-width:1.0;stroke-dasharray:1.0,2.0;" x1="6" x2="483" y1="53.4219" y2="53.4219"/><text fill="#000000" font-family="sans-serif" font-size="12" lengthAdjust="spacing" textLength="153" x="8" y="90.832">Objectif d'enqu&#234;te directe ?*</text><text fill="#000000" font-family="sans-serif" font-size="12" font-weight="bold" lengthAdjust="spacing" textLength="19" x="184" y="91.832">Oui</text><ellipse cx="171" cy="86.8633" fill="none" rx="5" ry="5" style="stroke:#000000;stroke-width:1.5;"/><ellipse cx="171" cy="86.8633" fill="#000000" rx="2" ry="2" style="stroke:#000000;stroke-width:1.5;"/><text fill="#000000" font-family="sans-serif" font-size="12" lengthAdjust="spacing" textLength="23" x="225" y="91.832">Non</text><ellipse cx="212" cy="86.8633" fill="none" rx="5" ry="5" style="stroke:#000000;stroke-width:1.5;"/><text fill="#000000" font-family="sans-serif" font-size="12" lengthAdjust="spacing" textLength="84" x="8" y="110.793">Enqu&#234;te &#233;co ?*</text><text fill="#000000" font-family="sans-serif" font-size="12" font-weight="bold" lengthAdjust="spacing" textLength="19" x="184" y="111.793">Oui</text><ellipse cx="171" cy="106.8242" fill="none" rx="5" ry="5" style="stroke:#000000;stroke-width:1.5;"/><ellipse cx="171" cy="106.8242" fill="#000000" rx="2" ry="2" style="stroke:#000000;stroke-width:1.5;"/><text fill="#000000" font-family="sans-serif" font-size="12" lengthAdjust="spacing" textLength="23" x="225" y="111.793">Non</text><ellipse cx="212" cy="106.8242" fill="none" rx="5" ry="5" style="stroke:#000000;stroke-width:1.5;"/><text fill="#000000" font-family="sans-serif" font-size="12" font-weight="bold" lengthAdjust="spacing" textLength="167" x="7" y="151.7148">Caract&#233;ristiques de l'enqu&#234;te</text><text fill="#000000" font-family="sans-serif" font-size="12" lengthAdjust="spacing" textLength="149" x="13" y="170.6758">Qualification de l'enqu&#234;te* :</text><rect fill="#EEEEEE" height="18.9609" style="stroke:#000000;stroke-width:1.0;" width="87" x="385" y="157.7266"/><text fill="#000000" font-family="sans-serif" font-size="12" lengthAdjust="spacing" textLength="39" x="387" y="172.6758">Directe</text><line style="stroke:#000000;stroke-width:1.0;" x1="461" x2="461" y1="157.7266" y2="176.6875"/><polygon fill="#000000" points="464,163.7266,470,163.7266,467,171.6875" style="stroke:#000000;stroke-width:1.0;"/><text fill="#000000" font-family="sans-serif" font-size="12" lengthAdjust="spacing" textLength="124" x="13" y="192.6367">Fiabilit&#233; de l'enqu&#234;te* :</text><rect fill="#EEEEEE" height="18.9609" style="stroke:#000000;stroke-width:1.0;" width="87" x="385" y="179.6875"/><text fill="#000000" font-family="sans-serif" font-size="12" lengthAdjust="spacing" textLength="34" x="387" y="194.6367">Fiable</text><line style="stroke:#000000;stroke-width:1.0;" x1="461" x2="461" y1="179.6875" y2="198.6484"/><polygon fill="#000000" points="464,185.6875,470,185.6875,467,193.6484" style="stroke:#000000;stroke-width:1.0;"/><text fill="#000000" font-family="sans-serif" font-size="12" lengthAdjust="spacing" textLength="256" x="13" y="214.5977">Inactivit&#233; annuelle confirm&#233;e par l'observateur :</text><text fill="#000000" font-family="sans-serif" font-size="12" font-weight="bold" lengthAdjust="spacing" textLength="19" x="406" y="215.5977">Oui</text><ellipse cx="393" cy="210.6289" fill="none" rx="5" ry="5" style="stroke:#000000;stroke-width:1.5;"/><ellipse cx="393" cy="210.6289" fill="#000000" rx="2" ry="2" style="stroke:#000000;stroke-width:1.5;"/><text fill="#000000" font-family="sans-serif" font-size="12" lengthAdjust="spacing" textLength="23" x="447" y="215.5977">Non</text><ellipse cx="434" cy="210.6289" fill="none" rx="5" ry="5" style="stroke:#000000;stroke-width:1.5;"/><text fill="#000000" font-family="sans-serif" font-size="12" lengthAdjust="spacing" textLength="370" x="13" y="234.5586">Le professionnel accepterait-il de r&#233;pondre &#224; une autre enqu&#234;te ?* :</text><text fill="#000000" font-family="sans-serif" font-size="12" lengthAdjust="spacing" textLength="19" x="406" y="235.5586">Oui</text><ellipse cx="393" cy="230.5898" fill="none" rx="5" ry="5" style="stroke:#000000;stroke-width:1.5;"/><text fill="#000000" font-family="sans-serif" font-size="12" font-weight="bold" lengthAdjust="spacing" textLength="22" x="447" y="235.5586">Non</text><ellipse cx="434" cy="230.5898" fill="none" rx="5" ry="5" style="stroke:#000000;stroke-width:1.5;"/><ellipse cx="434" cy="230.5898" fill="#000000" rx="2" ry="2" style="stroke:#000000;stroke-width:1.5;"/><text fill="#000000" font-family="sans-serif" font-size="12" lengthAdjust="spacing" textLength="340" x="13" y="254.5195">M&#233;tiers d&#233;clar&#233;s dans les journeaux de bord/fiches de p&#234;che :</text><rect fill="#EEEEEE" height="18.9609" style="stroke:#000000;stroke-width:1.0;" width="87" x="385" y="241.5703"/><text fill="#000000" font-family="sans-serif" font-size="12" lengthAdjust="spacing" textLength="3" x="387" y="256.5195">&#160;</text><line style="stroke:#000000;stroke-width:1.0;" x1="461" x2="461" y1="241.5703" y2="260.5313"/><polygon fill="#000000" points="464,247.5703,470,247.5703,467,255.5313" style="stroke:#000000;stroke-width:1.0;"/><text fill="#000000" font-family="sans-serif" font-size="12" lengthAdjust="spacing" textLength="165" x="13" y="276.4805">Habitudes de vente &#224; la cri&#233;e :</text><rect fill="#EEEEEE" height="18.9609" style="stroke:#000000;stroke-width:1.0;" width="87" x="385" y="263.5313"/><text fill="#000000" font-family="sans-serif" font-size="12" lengthAdjust="spacing" textLength="3" x="387" y="278.4805">&#160;</text><line style="stroke:#000000;stroke-width:1.0;" x1="461" x2="461" y1="263.5313" y2="282.4922"/><polygon fill="#000000" points="464,269.5313,470,269.5313,467,277.4922" style="stroke:#000000;stroke-width:1.0;"/><text fill="#808080" font-family="sans-serif" font-size="10" lengthAdjust="spacing" textLength="43" x="492" y="151.5566">Strat&#233;gie</text><text fill="#000000" font-family="sans-serif" font-size="12" lengthAdjust="spacing" textLength="198" x="492" y="169.0156">ACTIFLOT d&#233;marrage le 01/01/2019</text><line style="stroke:#000000;stroke-width:1.0;" x1="490" x2="692" y1="138.7656" y2="138.7656"/><line style="stroke:#000000;stroke-width:1.0;" x1="490" x2="692" y1="174.0273" y2="174.0273"/><line style="stroke:#000000;stroke-width:1.0;" x1="490" x2="490" y1="138.7656" y2="174.0273"/><line style="stroke:#000000;stroke-width:1.0;" x1="692" x2="692" y1="138.7656" y2="174.0273"/><text fill="#808080" font-family="sans-serif" font-size="10" lengthAdjust="spacing" textLength="46" x="492" y="188.8184">Saisisseur</text><text fill="#000000" font-family="sans-serif" font-size="12" lengthAdjust="spacing" textLength="30" x="492" y="206.2773">Obs1</text><text fill="#808080" font-family="sans-serif" font-size="10" lengthAdjust="spacing" textLength="48" x="492" y="222.0801">Groupe EI</text><line style="stroke:#AAAAAA;stroke-width:1.0;" x1="492" x2="694" y1="230.0898" y2="230.0898"/><path d="M493,238.724 L493,240.3906 L498.8333,240.3906 L498.8333,238.724 L493,238.724 M493,241.224 L493,245.3156 C493,245.3573 493.0333,245.3906 493.075,245.3906 L498.75,245.3906 C498.7917,245.3906 498.825,245.3573 498.825,245.3156 L498.825,241.224 L492.9917,241.224 M493.8333,242.0573 L494.6667,242.0573 L494.6667,242.8906 L493.8333,242.8906 L493.8333,242.0573 M495.5,242.0573 L496.3333,242.0573 L496.3333,242.8906 L495.5,242.8906 L495.5,242.0573 M497.1667,242.0573 L498,242.0573 L498,242.8906 L497.1667,242.8906 L497.1667,242.0573 M493.8333,243.724 L494.6667,243.724 L494.6667,244.5573 L493.8333,244.5573 L493.8333,243.724 M495.5,243.724 L496.3333,243.724 L496.3333,244.5573 L495.5,244.5573 L495.5,243.724 " fill="#808080" style="stroke:;stroke-width:0.0;stroke-dasharray:;"/><text fill="#808080" font-family="sans-serif" font-size="10" lengthAdjust="spacing" textLength="121" x="500.6667" y="245.3809">Cr&#233;&#233; le 20/03/2023 17:08</text><path d="M496.3333,254.0247 C494.5,254.0247 493,255.5247 493,257.3581 C493,259.1914 494.5,260.6914 496.3333,260.6914 C498.1667,260.6914 499.6667,259.1914 499.6667,257.3581 C499.6667,255.5247 498.1667,254.0247 496.3333,254.0247 M496.3333,254.8581 C497.7167,254.8581 498.8333,255.9747 498.8333,257.3581 C498.8333,258.7414 497.7167,259.8581 496.3333,259.8581 C494.95,259.8581 493.8333,258.7414 493.8333,257.3581 C493.8333,255.9747 494.95,254.8581 496.3333,254.8581 M495.9167,255.6914 L495.9167,257.5414 L496.05,257.6497 L496.4667,258.0664 L496.75,258.3831 L497.35,257.7831 L497.0333,257.4997 L496.75,257.2164 L496.75,255.7081 L495.9167,255.7081 " fill="#808080" style="stroke:;stroke-width:0.0;stroke-dasharray:;"/><text fill="#808080" font-family="sans-serif" font-size="10" lengthAdjust="spacing" textLength="160" x="500.6667" y="260.6816">Mis &#224; jour le 20/03/2023 17:08:31</text><text fill="#808080" font-family="sans-serif" font-size="10" lengthAdjust="spacing" textLength="56" x="492" y="293.9434">Mode saisie</text><text fill="#808080" font-family="sans-serif" font-size="10" font-weight="bold" lengthAdjust="spacing" textLength="34" x="551" y="293.9434">bureau</text><rect fill="#EEEEEE" height="19.9609" rx="5" ry="5" style="stroke:#000000;stroke-width:2.5;" width="196" x="494.5" y="318.9141"/><text fill="#000000" font-family="sans-serif" font-size="12" lengthAdjust="spacing" textLength="100" x="542.5" y="333.8633">Terminer la saisie</text><line style="stroke:#000000;stroke-width:1.0;" x1="490" x2="695" y1="176.0273" y2="176.0273"/><line style="stroke:#000000;stroke-width:1.0;" x1="490" x2="695" y1="343.375" y2="343.375"/><line style="stroke:#000000;stroke-width:1.0;" x1="490" x2="490" y1="176.0273" y2="343.375"/><line style="stroke:#000000;stroke-width:1.0;" x1="695" x2="695" y1="176.0273" y2="343.375"/><text fill="#000000" font-family="sans-serif" font-size="12" font-weight="bold" lengthAdjust="spacing" textLength="90" x="6" y="359.3242">Commentaires :</text><text fill="#000000" font-family="sans-serif" font-size="12" lengthAdjust="spacing" textLength="182" x="7" y="378.2852">19.01.2017 : Appel sans r&#233;ponse</text><text fill="#000000" font-family="sans-serif" font-size="12" lengthAdjust="spacing" textLength="219" x="7" y="396.2461">08/03/2019 : Conversation t&#233;l&#233;phonique</text><text fill="#000000" font-family="sans-serif" font-size="12" lengthAdjust="spacing" textLength="474" x="7" y="414.207">2020 : Sort souvent avec Jean (BIBAS) --&gt; P&#234;chent &#233;galement sur ensemble sur BIBAS</text><text fill="#000000" font-family="sans-serif" font-size="12" lengthAdjust="spacing" textLength="146" x="7" y="432.168">de temps en temps &#224; ERU</text><text fill="#000000" font-family="sans-serif" font-size="12" lengthAdjust="spacing" textLength="197" x="7" y="450.1289">12/02/2022 : H&#233;lice cass&#233;e fin 2022</text><line style="stroke:#000000;stroke-width:1.0;" x1="6" x2="482" y1="364.3359" y2="364.3359"/><line style="stroke:#000000;stroke-width:1.0;" x1="6" x2="482" y1="543.9453" y2="543.9453"/><line style="stroke:#000000;stroke-width:1.0;" x1="6" x2="6" y1="364.3359" y2="382.2969"/><line style="stroke:#000000;stroke-width:1.0;" x1="482" x2="482" y1="364.3359" y2="382.2969"/><line style="stroke:#000000;stroke-width:1.0;" x1="6" x2="6" y1="525.9844" y2="543.9453"/><line style="stroke:#000000;stroke-width:1.0;" x1="482" x2="482" y1="525.9844" y2="543.9453"/><line style="stroke:#000000;stroke-width:1.0;" x1="6" x2="6" y1="490.0625" y2="508.0234"/><line style="stroke:#000000;stroke-width:1.0;" x1="482" x2="482" y1="490.0625" y2="508.0234"/><line style="stroke:#000000;stroke-width:1.0;" x1="6" x2="6" y1="454.1406" y2="472.1016"/><line style="stroke:#000000;stroke-width:1.0;" x1="482" x2="482" y1="454.1406" y2="472.1016"/><line style="stroke:#000000;stroke-width:1.0;" x1="6" x2="6" y1="418.2188" y2="436.1797"/><line style="stroke:#000000;stroke-width:1.0;" x1="482" x2="482" y1="418.2188" y2="436.1797"/><line style="stroke:#000000;stroke-width:1.0;" x1="6" x2="6" y1="382.2969" y2="400.2578"/><line style="stroke:#000000;stroke-width:1.0;" x1="482" x2="482" y1="382.2969" y2="400.2578"/><line style="stroke:#000000;stroke-width:1.0;" x1="6" x2="6" y1="508.0234" y2="525.9844"/><line style="stroke:#000000;stroke-width:1.0;" x1="482" x2="482" y1="508.0234" y2="525.9844"/><line style="stroke:#000000;stroke-width:1.0;" x1="6" x2="6" y1="472.1016" y2="490.0625"/><line style="stroke:#000000;stroke-width:1.0;" x1="482" x2="482" y1="472.1016" y2="490.0625"/><line style="stroke:#000000;stroke-width:1.0;" x1="6" x2="6" y1="436.1797" y2="454.1406"/><line style="stroke:#000000;stroke-width:1.0;" x1="482" x2="482" y1="436.1797" y2="454.1406"/><line style="stroke:#000000;stroke-width:1.0;" x1="6" x2="6" y1="400.2578" y2="418.2188"/><line style="stroke:#000000;stroke-width:1.0;" x1="482" x2="482" y1="400.2578" y2="418.2188"/><line style="stroke:#AAAAAA;stroke-width:1.0;" x1="6" x2="483" y1="567.4063" y2="567.4063"/><rect fill="#EEEEEE" height="19.9609" rx="5" ry="5" style="stroke:#000000;stroke-width:2.5;" width="52" x="9.5" y="575.4063"/><text fill="#000000" font-family="sans-serif" font-size="12" lengthAdjust="spacing" textLength="40" x="15.5" y="590.3555">Fermer</text><rect fill="#EEEEEE" height="19.9609" rx="5" ry="5" style="stroke:#000000;stroke-width:2.5;" width="132" x="68.5" y="575.4063"/><path d="M100,582.3672 C97.8,582.3672 96,584.1672 96,586.3672 C96,588.5672 97.8,590.3672 100,590.3672 C101.1,590.3672 102.12,589.9372 102.84,589.2072 L102.12,588.4872 C101.58,589.0272 100.83,589.3672 99.99,589.3672 C98.33,589.3672 96.99,588.0272 96.99,586.3672 C96.99,584.7072 98.33,583.3672 99.99,583.3672 C100.82,583.3672 101.54,583.7272 102.08,584.2772 L100.99,585.3672 L103.99,585.3672 L103.99,582.3672 L102.8,583.5572 C102.08,582.8372 101.09,582.3672 99.99,582.3672 " fill="#000000" style="stroke:;stroke-width:0.0;stroke-dasharray:;"/><text fill="#000000" font-family="sans-serif" font-size="12" lengthAdjust="spacing" textLength="66" x="108" y="590.3555">R&#233;initialiser</text><rect fill="#EEEEEE" height="19.9609" rx="5" ry="5" style="stroke:#000000;stroke-width:2.5;" width="92" x="207.5" y="575.4063"/><text fill="#000000" font-family="sans-serif" font-size="12" lengthAdjust="spacing" textLength="70" x="218.5" y="590.3555">Sauvegarder</text><!--SRC=[jLRjSjf65FslfxY_Kd0BI2AERSOXiV57x89nZPDfnvFCBD92DX6xokwAQOhrBlrBNeCNwra9_D6ncIaprTXY5zrpxzMvzvxbhR5CMyCIwyqyeWis5PfJY_Q7xK7_uk8Fgb4GDbzklyAYTu3RpY-x0Ksm2Fqm1A9MmstMS83JnLmkvfebTBjoT4iTbd0PQy4rDht5t69bYk-rvJcmzRgxEISk0QB-y0kFh1XH_1ENtxB53yifXgy8ds-sW9nHvVUgYzVF1BQLAbqecHVOunLWCO_K6clASxe58b-5nZzCa1EBB5v162k-PTnGp2cvIwC8GMMML8UptpAMY968c1Nm-SXs2npUqgUZPUBqwHvr8jXG909ndeIunmaG3o5d4dc9QO5XKcOyWKMav4ZeoMBEAMKQZjJGS3rbbcUwSFNCgz-xxGAfrOWRW_mbJuX54KyjrqpOcaXSUdenJnNg1qh_fanoOfd5vguoRxPMeQgq35F6_5Uekyh7A4t2u1PB9WqbOFcBohJaBFlJHHmg7JT0wkUI_dJn0ykI6bfT3wXv1p9j5fV6KovjaMd2ADB2KVCaq2MM0pwR_UpHyzTitSFzaP8MHKYKVZtM_3iPyHT_7VZjWTKCXHeBlWv-qBa-E-dshnqX4wOr6wCNEFb10t-X7-oj0-VvshJ_ZvTYmWXZq5hhuFsX2JPoVwfLbd8wFbk7BgJcl_lUVn4L6iHqkuE-mmY1vz1l-4tm73Ofs6dvkvjwJbJqjTqJnZMTQ-EdVBUQQqcfRnIxfz3lnbM5kt4RPXe3j76O6xhcUY8aL1gZitJhhe_hsx3iGoUTQZB1y37edQ6Mzw0NATYh-q4TBRs3OJn8K-YCSPDVIejvF2N-RibTi0VZZf9JQ4OfhnYf18ZFIZffVWG2rJxC1qfRCYfpAa1ioYCwvqnIvV3iy61GHVkqwR9G4pp6VA8fNCfaK3MEF2PETjsci7yK05HRFaaDx9OBbFluwlqZeo1i-A4hUuXStY5R4K6acJ5EXaP2haxCvqgoqMvrWfN7CDsSe8nSVuJetUo_q3nHB6xJrM8kfB02fvLPFXmmq3HcEdRxtCkzjvYGucU0TvamQT_tkkIuTyoxueNDUj2izB0x0gz1WAgsGh-rlKETusltPisgLpczx3h-TUHER6Er66QkT5Nld4qPNMNIYWblKJ_bylperzKNEBNnMq59Lmpl_4Fltk3LozgXi3J0gOR6_D3pZlY8POa58bAna6EqI1g4sw7NPNASGK9RDD9UHy6n_jwYawj_0000]--></g></svg>