<?xml version="1.0" encoding="us-ascii" standalone="no"?><svg xmlns="http://www.w3.org/2000/svg" xmlns:xlink="http://www.w3.org/1999/xlink" contentStyleType="text/css" height="199px" preserveAspectRatio="none" style="width:957px;height:199px;background:#FFFFFF;" version="1.1" viewBox="0 0 957 199" width="957px" zoomAndPan="magnify"><defs/><g><text fill="#000000" font-family="sans-serif" font-size="12" lengthAdjust="spacing" textLength="41" x="6" y="18.9492">Navire :</text><text fill="#000000" font-family="sans-serif" font-size="12" font-weight="bold" lengthAdjust="spacing" textLength="206" x="50" y="18.9492">SONNY - 123456 - MA - 7,81 m - 2022</text><line style="stroke:#AAAAAA;stroke-width:1.0;" x1="6" x2="950" y1="27.4609" y2="27.4609"/><text fill="#000000" font-family="sans-serif" font-size="12" lengthAdjust="spacing" textLength="44" x="8" y="44.9102">G&#233;n&#233;ral</text><line style="stroke:#000000;stroke-width:1.0;" x1="6" x2="6" y1="31.9609" y2="47.9219"/><line style="stroke:#000000;stroke-width:1.0;" x1="6" x2="55" y1="31.9609" y2="31.9609"/><line style="stroke:#000000;stroke-width:1.0;" x1="55" x2="55" y1="31.9609" y2="47.9219"/><line style="stroke:#000000;stroke-width:1.0;" x1="55" x2="65" y1="47.9219" y2="47.9219"/><text fill="#000000" font-family="sans-serif" font-size="12" lengthAdjust="spacing" textLength="35" x="67" y="44.9102">Navire</text><line style="stroke:#000000;stroke-width:1.0;" x1="65" x2="65" y1="31.9609" y2="47.9219"/><line style="stroke:#000000;stroke-width:1.0;" x1="65" x2="105" y1="31.9609" y2="31.9609"/><line style="stroke:#000000;stroke-width:1.0;" x1="105" x2="105" y1="31.9609" y2="47.9219"/><line style="stroke:#000000;stroke-width:1.0;" x1="105" x2="115" y1="47.9219" y2="47.9219"/><text fill="#000000" font-family="sans-serif" font-size="12" lengthAdjust="spacing" textLength="76" x="117" y="44.9102">Calendrier (4)</text><line style="stroke:#000000;stroke-width:1.0;" x1="115" x2="115" y1="31.9609" y2="47.9219"/><line style="stroke:#000000;stroke-width:1.0;" x1="115" x2="196" y1="31.9609" y2="31.9609"/><line style="stroke:#000000;stroke-width:1.0;" x1="196" x2="196" y1="31.9609" y2="47.9219"/><line style="stroke:#000000;stroke-width:1.0;" x1="196" x2="206" y1="47.9219" y2="47.9219"/><text fill="#000000" font-family="sans-serif" font-size="12" font-weight="bold" lengthAdjust="spacing" textLength="61" x="208" y="44.9102">M&#233;tiers (2)</text><line style="stroke:#000000;stroke-width:1.0;" x1="206" x2="206" y1="31.9609" y2="47.9219"/><line style="stroke:#000000;stroke-width:1.0;" x1="206" x2="272" y1="31.9609" y2="31.9609"/><line style="stroke:#000000;stroke-width:1.0;" x1="272" x2="272" y1="31.9609" y2="47.9219"/><line style="stroke:#000000;stroke-width:1.0;" x1="272" x2="282" y1="47.9219" y2="47.9219"/><text fill="#000000" font-family="sans-serif" font-size="12" lengthAdjust="spacing" textLength="30" x="284" y="44.9102">Carte</text><line style="stroke:#000000;stroke-width:1.0;" x1="282" x2="282" y1="31.9609" y2="47.9219"/><line style="stroke:#000000;stroke-width:1.0;" x1="282" x2="317" y1="31.9609" y2="31.9609"/><line style="stroke:#000000;stroke-width:1.0;" x1="317" x2="317" y1="31.9609" y2="47.9219"/><line style="stroke:#000000;stroke-width:1.0;" x1="317" x2="327" y1="47.9219" y2="47.9219"/><line style="stroke:#AAAAAA;stroke-width:1.0;stroke-dasharray:1.0,2.0;" x1="6" x2="950" y1="53.4219" y2="53.4219"/><text fill="#000000" font-family="sans-serif" font-size="12" lengthAdjust="spacing" textLength="7" x="32" y="71.8711">#</text><text fill="#000000" font-family="sans-serif" font-size="12" lengthAdjust="spacing" textLength="33" x="41" y="71.8711">M&#233;tier</text><text fill="#000000" font-family="sans-serif" font-size="12" font-weight="bold" lengthAdjust="spacing" textLength="193" x="238" y="72.8711">Maillage de l'engin (logbook) (mm)</text><text fill="#000000" font-family="sans-serif" font-size="12" lengthAdjust="spacing" textLength="38" x="238" y="90.832">engin -</text><text fill="#000000" font-family="sans-serif" font-size="12" lengthAdjust="spacing" textLength="58" x="238" y="108.793">inconnue -</text><text fill="#000000" font-family="sans-serif" font-size="12" lengthAdjust="spacing" textLength="168" x="238" y="126.7539">D&#233;claration d'un professionnel</text><text fill="#000000" font-family="sans-serif" font-size="12" font-weight="bold" lengthAdjust="spacing" textLength="166" x="435" y="72.8711">Maillage &#233;tir&#233; de l'engin (mm)</text><text fill="#000000" font-family="sans-serif" font-size="12" lengthAdjust="spacing" textLength="38" x="435" y="90.832">engin -</text><text fill="#000000" font-family="sans-serif" font-size="12" lengthAdjust="spacing" textLength="101" x="435" y="108.793">plus petite maille -</text><text fill="#000000" font-family="sans-serif" font-size="12" lengthAdjust="spacing" textLength="168" x="435" y="126.7539">D&#233;claration d'un professionnel</text><text fill="#000000" font-family="sans-serif" font-size="12" font-weight="bold" lengthAdjust="spacing" textLength="166" x="607" y="72.8711">Maillage &#233;tir&#233; de l'engin (mm)</text><text fill="#000000" font-family="sans-serif" font-size="12" lengthAdjust="spacing" textLength="38" x="607" y="90.832">engin -</text><text fill="#000000" font-family="sans-serif" font-size="12" lengthAdjust="spacing" textLength="110" x="607" y="108.793">plus grande maille -</text><text fill="#000000" font-family="sans-serif" font-size="12" lengthAdjust="spacing" textLength="168" x="607" y="126.7539">D&#233;claration d'un professionnel</text><text fill="#000000" font-family="sans-serif" font-size="12" font-weight="bold" lengthAdjust="spacing" textLength="109" x="779" y="72.8711">Longueur lev&#233;e (m)</text><text fill="#000000" font-family="sans-serif" font-size="12" lengthAdjust="spacing" textLength="38" x="779" y="90.832">engin -</text><text fill="#000000" font-family="sans-serif" font-size="12" lengthAdjust="spacing" textLength="37" x="779" y="108.793">totale -</text><text fill="#000000" font-family="sans-serif" font-size="12" lengthAdjust="spacing" textLength="168" x="779" y="126.7539">D&#233;claration d'un professionnel</text><text fill="#000000" font-family="sans-serif" font-size="12" lengthAdjust="spacing" textLength="3" x="27" y="145.7148">.</text><rect fill="none" height="10" style="stroke:#000000;stroke-width:1.5;" width="10" x="9" y="135.7461"/><text fill="#000000" font-family="sans-serif" font-size="12" lengthAdjust="spacing" textLength="7" x="32" y="145.7148">0</text><text fill="#000000" font-family="sans-serif" font-size="12" lengthAdjust="spacing" textLength="172" x="41" y="145.7148">GTRMZZ - Tr&#233;mails &#224; poissons</text><text fill="#000000" font-family="sans-serif" font-size="12" lengthAdjust="spacing" textLength="21" x="237" y="145.7148">100</text><text fill="#000000" font-family="sans-serif" font-size="12" lengthAdjust="spacing" textLength="14" x="434" y="145.7148">97</text><text fill="#000000" font-family="sans-serif" font-size="12" lengthAdjust="spacing" textLength="21" x="606" y="145.7148">103</text><text fill="#000000" font-family="sans-serif" font-size="12" lengthAdjust="spacing" textLength="3" x="27" y="163.6758">.</text><rect fill="none" height="10" style="stroke:#000000;stroke-width:1.5;" width="10" x="9" y="153.707"/><text fill="#000000" font-family="sans-serif" font-size="12" lengthAdjust="spacing" textLength="7" x="32" y="163.6758">1</text><text fill="#000000" font-family="sans-serif" font-size="12" lengthAdjust="spacing" textLength="194" x="41" y="163.6758">GTRNEP - Tr&#233;mails &#224; langoustines</text><text fill="#000000" font-family="sans-serif" font-size="12" lengthAdjust="spacing" textLength="14" x="434" y="163.6758">57</text><text fill="#000000" font-family="sans-serif" font-size="12" lengthAdjust="spacing" textLength="21" x="778" y="163.6758">100</text><line style="stroke:#000000;stroke-width:1.0;" x1="6" x2="31" y1="57.9219" y2="57.9219"/><line style="stroke:#000000;stroke-width:1.0;" x1="31" x2="40" y1="57.9219" y2="57.9219"/><line style="stroke:#000000;stroke-width:1.0;" x1="40" x2="236" y1="57.9219" y2="57.9219"/><line style="stroke:#000000;stroke-width:1.0;" x1="236" x2="433" y1="57.9219" y2="57.9219"/><line style="stroke:#000000;stroke-width:1.0;" x1="433" x2="605" y1="57.9219" y2="57.9219"/><line style="stroke:#000000;stroke-width:1.0;" x1="605" x2="777" y1="57.9219" y2="57.9219"/><line style="stroke:#000000;stroke-width:1.0;" x1="777" x2="949" y1="57.9219" y2="57.9219"/><line style="stroke:#000000;stroke-width:1.0;" x1="6" x2="31" y1="167.6875" y2="167.6875"/><line style="stroke:#000000;stroke-width:1.0;" x1="31" x2="40" y1="167.6875" y2="167.6875"/><line style="stroke:#000000;stroke-width:1.0;" x1="40" x2="236" y1="167.6875" y2="167.6875"/><line style="stroke:#000000;stroke-width:1.0;" x1="236" x2="433" y1="167.6875" y2="167.6875"/><line style="stroke:#000000;stroke-width:1.0;" x1="433" x2="605" y1="167.6875" y2="167.6875"/><line style="stroke:#000000;stroke-width:1.0;" x1="605" x2="777" y1="167.6875" y2="167.6875"/><line style="stroke:#000000;stroke-width:1.0;" x1="777" x2="949" y1="167.6875" y2="167.6875"/><line style="stroke:#000000;stroke-width:1.0;" x1="6" x2="31" y1="149.7266" y2="149.7266"/><line style="stroke:#000000;stroke-width:1.0;" x1="31" x2="40" y1="149.7266" y2="149.7266"/><line style="stroke:#000000;stroke-width:1.0;" x1="40" x2="236" y1="149.7266" y2="149.7266"/><line style="stroke:#000000;stroke-width:1.0;" x1="236" x2="433" y1="149.7266" y2="149.7266"/><line style="stroke:#000000;stroke-width:1.0;" x1="433" x2="605" y1="149.7266" y2="149.7266"/><line style="stroke:#000000;stroke-width:1.0;" x1="605" x2="777" y1="149.7266" y2="149.7266"/><line style="stroke:#000000;stroke-width:1.0;" x1="777" x2="949" y1="149.7266" y2="149.7266"/><line style="stroke:#000000;stroke-width:1.0;" x1="6" x2="31" y1="131.7656" y2="131.7656"/><line style="stroke:#000000;stroke-width:1.0;" x1="31" x2="40" y1="131.7656" y2="131.7656"/><line style="stroke:#000000;stroke-width:1.0;" x1="40" x2="236" y1="131.7656" y2="131.7656"/><line style="stroke:#000000;stroke-width:1.0;" x1="236" x2="433" y1="131.7656" y2="131.7656"/><line style="stroke:#000000;stroke-width:1.0;" x1="433" x2="605" y1="131.7656" y2="131.7656"/><line style="stroke:#000000;stroke-width:1.0;" x1="605" x2="777" y1="131.7656" y2="131.7656"/><line style="stroke:#000000;stroke-width:1.0;" x1="777" x2="949" y1="131.7656" y2="131.7656"/><line style="stroke:#000000;stroke-width:1.0;" x1="6" x2="6" y1="57.9219" y2="131.7656"/><line style="stroke:#000000;stroke-width:1.0;" x1="40" x2="40" y1="149.7266" y2="167.6875"/><line style="stroke:#000000;stroke-width:1.0;" x1="31" x2="31" y1="57.9219" y2="131.7656"/><line style="stroke:#000000;stroke-width:1.0;" x1="236" x2="236" y1="149.7266" y2="167.6875"/><line style="stroke:#000000;stroke-width:1.0;" x1="40" x2="40" y1="57.9219" y2="131.7656"/><line style="stroke:#000000;stroke-width:1.0;" x1="433" x2="433" y1="149.7266" y2="167.6875"/><line style="stroke:#000000;stroke-width:1.0;" x1="236" x2="236" y1="57.9219" y2="131.7656"/><line style="stroke:#000000;stroke-width:1.0;" x1="605" x2="605" y1="149.7266" y2="167.6875"/><line style="stroke:#000000;stroke-width:1.0;" x1="433" x2="433" y1="57.9219" y2="131.7656"/><line style="stroke:#000000;stroke-width:1.0;" x1="777" x2="777" y1="149.7266" y2="167.6875"/><line style="stroke:#000000;stroke-width:1.0;" x1="949" x2="949" y1="149.7266" y2="167.6875"/><line style="stroke:#000000;stroke-width:1.0;" x1="605" x2="605" y1="57.9219" y2="131.7656"/><line style="stroke:#000000;stroke-width:1.0;" x1="777" x2="777" y1="57.9219" y2="131.7656"/><line style="stroke:#000000;stroke-width:1.0;" x1="949" x2="949" y1="57.9219" y2="131.7656"/><line style="stroke:#000000;stroke-width:1.0;" x1="6" x2="6" y1="131.7656" y2="149.7266"/><line style="stroke:#000000;stroke-width:1.0;" x1="31" x2="31" y1="131.7656" y2="149.7266"/><line style="stroke:#000000;stroke-width:1.0;" x1="40" x2="40" y1="131.7656" y2="149.7266"/><line style="stroke:#000000;stroke-width:1.0;" x1="236" x2="236" y1="131.7656" y2="149.7266"/><line style="stroke:#000000;stroke-width:1.0;" x1="433" x2="433" y1="131.7656" y2="149.7266"/><line style="stroke:#000000;stroke-width:1.0;" x1="605" x2="605" y1="131.7656" y2="149.7266"/><line style="stroke:#000000;stroke-width:1.0;" x1="777" x2="777" y1="131.7656" y2="149.7266"/><line style="stroke:#000000;stroke-width:1.0;" x1="949" x2="949" y1="131.7656" y2="149.7266"/><line style="stroke:#000000;stroke-width:1.0;" x1="6" x2="6" y1="149.7266" y2="167.6875"/><line style="stroke:#000000;stroke-width:1.0;" x1="31" x2="31" y1="149.7266" y2="167.6875"/><rect fill="#EEEEEE" height="19.9609" rx="5" ry="5" style="stroke:#000000;stroke-width:2.5;" width="52" x="9.5" y="173.1875"/><text fill="#000000" font-family="sans-serif" font-size="12" lengthAdjust="spacing" textLength="40" x="15.5" y="188.1367">Fermer</text><rect fill="#EEEEEE" height="19.9609" rx="5" ry="5" style="stroke:#000000;stroke-width:2.5;" width="132" x="68.5" y="173.1875"/><path d="M100,180.1484 C97.8,180.1484 96,181.9484 96,184.1484 C96,186.3484 97.8,188.1484 100,188.1484 C101.1,188.1484 102.12,187.7184 102.84,186.9884 L102.12,186.2684 C101.58,186.8084 100.83,187.1484 99.99,187.1484 C98.33,187.1484 96.99,185.8084 96.99,184.1484 C96.99,182.4884 98.33,181.1484 99.99,181.1484 C100.82,181.1484 101.54,181.5084 102.08,182.0584 L100.99,183.1484 L103.99,183.1484 L103.99,180.1484 L102.8,181.3384 C102.08,180.6184 101.09,180.1484 99.99,180.1484 " fill="#000000" style="stroke:;stroke-width:0.0;stroke-dasharray:;"/><text fill="#000000" font-family="sans-serif" font-size="12" lengthAdjust="spacing" textLength="66" x="108" y="188.1367">R&#233;initialiser</text><rect fill="#EEEEEE" height="19.9609" rx="5" ry="5" style="stroke:#000000;stroke-width:2.5;" width="92" x="207.5" y="173.1875"/><text fill="#000000" font-family="sans-serif" font-size="12" lengthAdjust="spacing" textLength="70" x="218.5" y="188.1367">Sauvegarder</text><!--SRC=[pLFHRjem57tFLrofqWhIO2H0MQEgwWOKYH6AW5LQKHyCkKJM73ko7QGA-9UzvZloOxkcL1FT7hPf3uiKwzxhSu-FhNjkZ6NQ6YQij_K0ncp3DK88LylhsTru_0Lgu0VDLlk2WkW3BPstxtr8AGWQGK0TjHejstSmA0jP5fe9sBsmxA3B1CfOSzHGQLMfGBHHMLWg6AW4rGD4MzmJHxtkYCwWJiKps1rXb6nT4-D2i0GXHX3dA1CkeI9KibJgQnKgQLgbvjFl6LJxgSxbIacPuo-sUcMn4ampovM4-3oNa6crHcCeboZsi7lLSYBD2TPbSIBnJuHb8ZUGeUKM8NMa_wd4H3CP_sk98oMJ77CD0ZTbWIJhzrLPPTbVANbkMC2Zcxa6_OFvD7fueE6Uqokv2neelq6ck35A6WBu3GUxx1p29gtr4mx_cMFSdxpc44mcAZUMItGy3jpk70CY9PQzv-OV5hUeKzIFL5zSlT4e58klOLeMN7BBcU3ck3bZ-GOJfcENxxszTqDMEnZPcz1fzdCqWWtvpDtThvDRctM_MOaew-4AV1_yop1eXAIYsvyxDpUhNcKm6O5HkLwHqxYncYzpztXLRyWs3AQvj3p54EuobCFUfvS2z2KPNiaKfVM6zz4Fm4Mhzf5RcA4cAN0VUJrSirnOwbYfcCiaX6xc1-t06z43vJIZ8QorrrL4h9z2k9r-1m00]--></g></svg>