<?xml version="1.0" encoding="us-ascii" standalone="no"?><svg xmlns="http://www.w3.org/2000/svg" xmlns:xlink="http://www.w3.org/1999/xlink" contentStyleType="text/css" height="224px" preserveAspectRatio="none" style="width:751px;height:224px;background:#FFFFFF;" version="1.1" viewBox="0 0 751 224" width="751px" zoomAndPan="magnify"><defs/><g><text fill="#000000" font-family="sans-serif" font-size="12" font-weight="bold" lengthAdjust="spacing" textLength="120" x="7" y="19.9492">Calendriers d'activit&#233;</text><path d="M641,11.9609 L641,14.9609 L638,14.9609 L638,16.9609 L641,16.9609 L641,19.9609 L643,19.9609 L643,16.9609 L646,16.9609 L646,14.9609 L643,14.9609 L643,11.9609 L641,11.9609 " fill="#000000" style="stroke:;stroke-width:0.0;stroke-dasharray:;"/><text fill="#000000" font-family="sans-serif" font-size="12" font-weight="bold" lengthAdjust="spacing" textLength="3" x="647" y="19.9492">&#160;</text><path d="M655,11.9609 C652.8,11.9609 651,13.7609 651,15.9609 C651,18.1609 652.8,19.9609 655,19.9609 C656.1,19.9609 657.12,19.5309 657.84,18.8009 L657.12,18.0809 C656.58,18.6209 655.83,18.9609 654.99,18.9609 C653.33,18.9609 651.99,17.6209 651.99,15.9609 C651.99,14.3009 653.33,12.9609 654.99,12.9609 C655.82,12.9609 656.54,13.3209 657.08,13.8709 L655.99,14.9609 L658.99,14.9609 L658.99,11.9609 L657.8,13.1509 C657.08,12.4309 656.09,11.9609 654.99,11.9609 " fill="#000000" style="stroke:;stroke-width:0.0;stroke-dasharray:;"/><text fill="#000000" font-family="sans-serif" font-size="12" font-weight="bold" lengthAdjust="spacing" textLength="7" x="663" y="19.9492">Y</text><rect fill="#EEEEEE" height="19.9609" rx="5" ry="5" style="stroke:#000000;stroke-width:2.5;" width="60" x="675.5" y="10.5"/><text fill="#000000" font-family="sans-serif" font-size="12" lengthAdjust="spacing" textLength="28" x="685" y="25.4492">2022</text><path d="M718.5,17.4609 L717,18.9609 L721,22.9609 L725,18.9609 L723.5,17.4609 L721,19.9609 L718.5,17.4609 " fill="#000000" style="stroke:;stroke-width:0.0;stroke-dasharray:;"/><line style="stroke:#AAAAAA;stroke-width:1.0;" x1="6" x2="741" y1="40.4609" y2="40.4609"/><text fill="#000000" font-family="sans-serif" font-size="12" lengthAdjust="spacing" textLength="127" x="7" y="58.9102">Lieu d'immatriculation :</text><rect fill="#EEEEEE" height="18.9609" style="stroke:#000000;stroke-width:1.0;" width="191" x="168" y="45.9609"/><text fill="#000000" font-family="sans-serif" font-size="12" lengthAdjust="spacing" textLength="76" x="170" y="60.9102">MA - Marseille</text><line style="stroke:#000000;stroke-width:1.0;" x1="348" x2="348" y1="45.9609" y2="64.9219"/><polygon fill="#000000" points="351,51.9609,357,51.9609,354,59.9219" style="stroke:#000000;stroke-width:1.0;"/><text fill="#000000" font-family="sans-serif" font-size="12" lengthAdjust="spacing" textLength="102" x="372" y="58.9102">Port d'exploitation :</text><rect fill="#EEEEEE" height="18.9609" style="stroke:#000000;stroke-width:1.0;" width="255" x="481" y="45.9609"/><text fill="#000000" font-family="sans-serif" font-size="12" lengthAdjust="spacing" textLength="182" x="483" y="60.9102">JMA - La Madrague de Montredon</text><line style="stroke:#000000;stroke-width:1.0;" x1="725" x2="725" y1="45.9609" y2="64.9219"/><polygon fill="#000000" points="728,51.9609,734,51.9609,731,59.9219" style="stroke:#000000;stroke-width:1.0;"/><text fill="#000000" font-family="sans-serif" font-size="12" lengthAdjust="spacing" textLength="41" x="7" y="98.832">Navire :</text><rect fill="#EEEEEE" height="18.9609" style="stroke:#000000;stroke-width:1.0;" width="191" x="168" y="85.8828"/><text fill="#000000" font-family="sans-serif" font-size="12" lengthAdjust="spacing" textLength="94" x="170" y="100.832">123456 - SONNY</text><line style="stroke:#000000;stroke-width:1.0;" x1="348" x2="348" y1="85.8828" y2="104.8438"/><polygon fill="#000000" points="351,91.8828,357,91.8828,354,99.8438" style="stroke:#000000;stroke-width:1.0;"/><text fill="#000000" font-family="sans-serif" font-size="12" lengthAdjust="spacing" textLength="27" x="372" y="98.832">Etat :</text><rect fill="#EEEEEE" height="18.9609" style="stroke:#000000;stroke-width:1.0;" width="255" x="481" y="85.8828"/><text fill="#000000" font-family="sans-serif" font-size="12" lengthAdjust="spacing" textLength="103" x="483" y="100.832">En cours de saisie</text><line style="stroke:#000000;stroke-width:1.0;" x1="725" x2="725" y1="85.8828" y2="104.8438"/><polygon fill="#000000" points="728,91.8828,734,91.8828,731,99.8438" style="stroke:#000000;stroke-width:1.0;"/><text fill="#000000" font-family="sans-serif" font-size="12" lengthAdjust="spacing" textLength="154" x="7" y="138.7539">Objectif d'enqu&#234;te directe ? :</text><text fill="#000000" font-family="sans-serif" font-size="12" font-weight="bold" lengthAdjust="spacing" textLength="19" x="189" y="139.7539">Oui</text><ellipse cx="176" cy="134.7852" fill="none" rx="5" ry="5" style="stroke:#000000;stroke-width:1.5;"/><ellipse cx="176" cy="134.7852" fill="#000000" rx="2" ry="2" style="stroke:#000000;stroke-width:1.5;"/><text fill="#000000" font-family="sans-serif" font-size="12" lengthAdjust="spacing" textLength="23" x="230" y="139.7539">Non</text><ellipse cx="217" cy="134.7852" fill="none" rx="5" ry="5" style="stroke:#000000;stroke-width:1.5;"/><text fill="#000000" font-family="sans-serif" font-size="12" lengthAdjust="spacing" textLength="85" x="372" y="138.7539">Enqu&#234;te &#233;co ? :</text><text fill="#000000" font-family="sans-serif" font-size="12" lengthAdjust="spacing" textLength="19" x="502" y="139.7539">Oui</text><ellipse cx="489" cy="134.7852" fill="none" rx="5" ry="5" style="stroke:#000000;stroke-width:1.5;"/><text fill="#000000" font-family="sans-serif" font-size="12" font-weight="bold" lengthAdjust="spacing" textLength="22" x="543" y="139.7539">Non</text><ellipse cx="530" cy="134.7852" fill="none" rx="5" ry="5" style="stroke:#000000;stroke-width:1.5;"/><ellipse cx="530" cy="134.7852" fill="#000000" rx="2" ry="2" style="stroke:#000000;stroke-width:1.5;"/><text fill="#000000" font-family="sans-serif" font-size="12" lengthAdjust="spacing" textLength="136" x="7" y="176.6758">Organisme observateur :</text><rect fill="#EEEEEE" height="18.9609" style="stroke:#000000;stroke-width:1.0;" width="191" x="168" y="163.7266"/><text fill="#000000" font-family="sans-serif" font-size="12" lengthAdjust="spacing" textLength="39" x="170" y="178.6758">Ifremer</text><line style="stroke:#000000;stroke-width:1.0;" x1="348" x2="348" y1="163.7266" y2="182.6875"/><polygon fill="#000000" points="351,169.7266,357,169.7266,354,177.6875" style="stroke:#000000;stroke-width:1.0;"/><text fill="#000000" font-family="sans-serif" font-size="12" lengthAdjust="spacing" textLength="73" x="372" y="176.6758">Observateur :</text><rect fill="#EEEEEE" height="18.9609" style="stroke:#000000;stroke-width:1.0;" width="255" x="481" y="163.7266"/><text fill="#000000" font-family="sans-serif" font-size="12" lengthAdjust="spacing" textLength="98" x="483" y="178.6758">Nicolas DUPOND</text><line style="stroke:#000000;stroke-width:1.0;" x1="725" x2="725" y1="163.7266" y2="182.6875"/><polygon fill="#000000" points="728,169.7266,734,169.7266,731,177.6875" style="stroke:#000000;stroke-width:1.0;"/><line style="stroke:#AAAAAA;stroke-width:1.0;" x1="6" x2="741" y1="190.1875" y2="190.1875"/><text fill="#000000" font-family="sans-serif" font-size="12" lengthAdjust="spacing" textLength="58" x="7" y="208.6367">2 r&#233;sultats</text><rect fill="#EEEEEE" height="12" rx="5" ry="5" style="stroke:#000000;stroke-width:2.5;" width="20" x="71.5" y="198.1875"/><path d="M77.5,200.1875 L81.5,204.1875 L85.5,200.1875 L77.5,200.1875 " fill="#000000" style="stroke:;stroke-width:0.0;stroke-dasharray:;"/><rect fill="#EEEEEE" height="19.9609" rx="5" ry="5" style="stroke:#000000;stroke-width:2.5;" width="52" x="98.5" y="198.1875"/><text fill="#000000" font-family="sans-serif" font-size="12" lengthAdjust="spacing" textLength="40" x="104.5" y="213.1367">Fermer</text><rect fill="#EEEEEE" height="19.9609" rx="5" ry="5" style="stroke:#000000;stroke-width:2.5;" width="76" x="157.5" y="198.1875"/><text fill="#000000" font-family="sans-serif" font-size="12" lengthAdjust="spacing" textLength="52" x="169.5" y="213.1367">Appliquer</text><!--SRC=[rLFRRjf047ttLynJ2m-Ws8HKjIAQ54XLYcsKD54ZLAJ57kXMzgwp5zIA-8FeR_1ZdGtNHln0BQtsuZbdpyoSlTA6AQDPRhobvm4iBwUTBijHP8gZqf2zPQdX2sxMA_XlliitPMvrXsQ5kMHP1nvXEGxEWe2EqX-uK58qfj8OMNI-LnMb3Os6ovxoztOaGuwMqkT5mOpYgSsPuL902C_Gf361w1eQ436baUSvRb6JxMytHb8POi1VPIwvUGKVlC27Z1WonUOM8KE8f30ACoacUndD_Ifc2wxmI80VjCxR5yHobyJnuma1VRhq4DyNa4hhUegW6TSSZsjswiPa-XEf-pENX7Yowp-6L9A6bEOFH0mRwYNKljM1Z9DOJYUrEiHILCzmqB43hrUfF4R2qaLlOHiE1pqbHSsPuBf0a5EDQi4CMdKWci3dcS82rRz6SCNOgqXE0IaavgdCcORU_IY9Uw-iDDdOed8JUOGC4e1QhxJDgRQQjjMOBCKKchsXY7HyWuh4l2olopBdJvPsvBJAkwAdzVBSl57EXBcFXh2WX-QyuJV9egsctwgH3w27AVW- -E_3u2niluDk_oku_tMlzcaq14sjJ5qxDBbpQfsvwjw0BHZSMc5uWI4a9Of1xylkWDf01fAYG66ymKDq2BWuRtpa1kweF5J1XyZhuOnHXeH8PSR5F8HkwGVjm1ioCRTiJkGpvNKb4QlV8TpS_WK0]--></g></svg>