<?xml version="1.0" encoding="us-ascii" standalone="no"?><svg xmlns="http://www.w3.org/2000/svg" xmlns:xlink="http://www.w3.org/1999/xlink" contentStyleType="text/css" height="532px" preserveAspectRatio="none" style="width:1116px;height:532px;background:#FFFFFF;" version="1.1" viewBox="0 0 1116 532" width="1116px" zoomAndPan="magnify"><defs/><g><text fill="#000000" font-family="sans-serif" font-size="12" font-weight="bold" lengthAdjust="spacing" textLength="110" x="6" y="18.9492">Nouveau calendrier</text><line style="stroke:#AAAAAA;stroke-width:1.0;stroke-dasharray:1.0,2.0;" x1="6" x2="1109" y1="27.4609" y2="27.4609"/><text fill="#000000" font-family="sans-serif" font-size="12" font-weight="bold" lengthAdjust="spacing" textLength="44" x="8" y="44.9102">G&#233;n&#233;ral</text><line style="stroke:#000000;stroke-width:1.0;" x1="6" x2="6" y1="31.9609" y2="47.9219"/><line style="stroke:#000000;stroke-width:1.0;" x1="6" x2="55" y1="31.9609" y2="31.9609"/><line style="stroke:#000000;stroke-width:1.0;" x1="55" x2="55" y1="31.9609" y2="47.9219"/><line style="stroke:#000000;stroke-width:1.0;" x1="55" x2="65" y1="47.9219" y2="47.9219"/><text fill="#000000" font-family="sans-serif" font-size="12" lengthAdjust="spacing" textLength="58" x="67" y="44.9102">Calendrier</text><line style="stroke:#000000;stroke-width:1.0;" x1="65" x2="65" y1="31.9609" y2="47.9219"/><line style="stroke:#000000;stroke-width:1.0;" x1="65" x2="128" y1="31.9609" y2="31.9609"/><line style="stroke:#000000;stroke-width:1.0;" x1="128" x2="128" y1="31.9609" y2="47.9219"/><line style="stroke:#000000;stroke-width:1.0;" x1="128" x2="138" y1="47.9219" y2="47.9219"/><text fill="#000000" font-family="sans-serif" font-size="12" lengthAdjust="spacing" textLength="40" x="140" y="44.9102">M&#233;tiers</text><line style="stroke:#000000;stroke-width:1.0;" x1="138" x2="138" y1="31.9609" y2="47.9219"/><line style="stroke:#000000;stroke-width:1.0;" x1="138" x2="183" y1="31.9609" y2="31.9609"/><line style="stroke:#000000;stroke-width:1.0;" x1="183" x2="183" y1="31.9609" y2="47.9219"/><line style="stroke:#000000;stroke-width:1.0;" x1="183" x2="193" y1="47.9219" y2="47.9219"/><text fill="#000000" font-family="sans-serif" font-size="12" lengthAdjust="spacing" textLength="83" x="195" y="44.9102">Commentaires</text><line style="stroke:#000000;stroke-width:1.0;" x1="193" x2="193" y1="31.9609" y2="47.9219"/><line style="stroke:#000000;stroke-width:1.0;" x1="193" x2="281" y1="31.9609" y2="31.9609"/><line style="stroke:#000000;stroke-width:1.0;" x1="281" x2="281" y1="31.9609" y2="47.9219"/><line style="stroke:#000000;stroke-width:1.0;" x1="281" x2="291" y1="47.9219" y2="47.9219"/><text fill="#000000" font-family="sans-serif" font-size="12" font-weight="bold" lengthAdjust="spacing" textLength="47" x="7" y="81.832">Navire* :</text><rect fill="#EEEEEE" height="18.9609" style="stroke:#000000;stroke-width:1.0;" width="255" x="56" y="68.8828"/><text fill="#000000" font-family="sans-serif" font-size="12" lengthAdjust="spacing" textLength="199" x="58" y="83.832">136794 - SONNY NINO MATHILDE 3</text><line style="stroke:#000000;stroke-width:1.0;" x1="300" x2="300" y1="68.8828" y2="87.8438"/><polygon fill="#000000" points="303,74.8828,309,74.8828,306,82.8438" style="stroke:#000000;stroke-width:1.0;"/><text fill="#000000" font-family="sans-serif" font-size="12" font-weight="bold" lengthAdjust="spacing" textLength="457" x="7" y="105.793">Etat des changements des caract&#233;ristiques et des armateurs du navire sur 2022</text><text fill="#000000" font-family="sans-serif" font-size="12" lengthAdjust="spacing" textLength="158" x="13" y="124.7539">Caract&#233;ristiques des navires</text><text fill="#000000" font-family="sans-serif" font-size="12" lengthAdjust="spacing" textLength="85" x="14" y="143.7148">Immatriculation</text><text fill="#000000" font-family="sans-serif" font-size="12" lengthAdjust="spacing" textLength="74" x="101" y="143.7148">D&#233;but validit&#233;</text><text fill="#000000" font-family="sans-serif" font-size="12" lengthAdjust="spacing" textLength="58" x="177" y="143.7148">Fin validit&#233;</text><text fill="#000000" font-family="sans-serif" font-size="12" lengthAdjust="spacing" textLength="80" x="241" y="143.7148">Nom du navire</text><text fill="#000000" font-family="sans-serif" font-size="12" lengthAdjust="spacing" textLength="96" x="390" y="143.7148">Port d'exploitation</text><text fill="#000000" font-family="sans-serif" font-size="12" lengthAdjust="spacing" textLength="142" x="574" y="143.7148">Jauge brute (TJB 1/100 tx)</text><text fill="#000000" font-family="sans-serif" font-size="12" lengthAdjust="spacing" textLength="61" x="718" y="143.7148">Jauge (GT)</text><text fill="#000000" font-family="sans-serif" font-size="12" lengthAdjust="spacing" textLength="94" x="781" y="143.7148">Puiss. adm. (kW)</text><text fill="#000000" font-family="sans-serif" font-size="12" lengthAdjust="spacing" textLength="78" x="877" y="143.7148">Long. H.T. (m)</text><text fill="#000000" font-family="sans-serif" font-size="12" lengthAdjust="spacing" textLength="122" x="957" y="143.7148">Ann&#233;e de construction</text><text fill="#000000" font-family="sans-serif" font-size="12" lengthAdjust="spacing" textLength="24" x="1081" y="143.7148">FPC</text><text fill="#000000" font-family="sans-serif" font-size="12" lengthAdjust="spacing" textLength="42" x="14" y="161.6758">136794</text><text fill="#000000" font-family="sans-serif" font-size="12" lengthAdjust="spacing" textLength="62" x="101" y="161.6758">06/04/2021</text><text fill="#000000" font-family="sans-serif" font-size="12" lengthAdjust="spacing" textLength="62" x="177" y="161.6758">31/12/2022</text><text fill="#000000" font-family="sans-serif" font-size="12" lengthAdjust="spacing" textLength="147" x="241" y="161.6758">SONNY NINO MATHILDE 3</text><text fill="#000000" font-family="sans-serif" font-size="12" lengthAdjust="spacing" textLength="182" x="390" y="161.6758">JMA - La Madrague de Montredon</text><text fill="#000000" font-family="sans-serif" font-size="12" lengthAdjust="spacing" textLength="21" x="574" y="161.6758">560</text><text fill="#000000" font-family="sans-serif" font-size="12" lengthAdjust="spacing" textLength="21" x="718" y="161.6758">320</text><text fill="#000000" font-family="sans-serif" font-size="12" lengthAdjust="spacing" textLength="24" x="781" y="161.6758">66.0</text><text fill="#000000" font-family="sans-serif" font-size="12" lengthAdjust="spacing" textLength="7" x="877" y="161.6758">9</text><text fill="#000000" font-family="sans-serif" font-size="12" lengthAdjust="spacing" textLength="28" x="957" y="161.6758">1967</text><text fill="#000000" font-family="sans-serif" font-size="12" lengthAdjust="spacing" textLength="19" x="1081" y="161.6758">Oui</text><line style="stroke:#000000;stroke-width:1.0;" x1="13" x2="100" y1="129.7656" y2="129.7656"/><line style="stroke:#000000;stroke-width:1.0;" x1="100" x2="176" y1="129.7656" y2="129.7656"/><line style="stroke:#000000;stroke-width:1.0;" x1="176" x2="240" y1="129.7656" y2="129.7656"/><line style="stroke:#000000;stroke-width:1.0;" x1="240" x2="389" y1="129.7656" y2="129.7656"/><line style="stroke:#000000;stroke-width:1.0;" x1="389" x2="573" y1="129.7656" y2="129.7656"/><line style="stroke:#000000;stroke-width:1.0;" x1="573" x2="717" y1="129.7656" y2="129.7656"/><line style="stroke:#000000;stroke-width:1.0;" x1="717" x2="780" y1="129.7656" y2="129.7656"/><line style="stroke:#000000;stroke-width:1.0;" x1="780" x2="876" y1="129.7656" y2="129.7656"/><line style="stroke:#000000;stroke-width:1.0;" x1="876" x2="956" y1="129.7656" y2="129.7656"/><line style="stroke:#000000;stroke-width:1.0;" x1="956" x2="1080" y1="129.7656" y2="129.7656"/><line style="stroke:#000000;stroke-width:1.0;" x1="1080" x2="1106" y1="129.7656" y2="129.7656"/><line style="stroke:#000000;stroke-width:1.0;" x1="13" x2="100" y1="165.6875" y2="165.6875"/><line style="stroke:#000000;stroke-width:1.0;" x1="100" x2="176" y1="165.6875" y2="165.6875"/><line style="stroke:#000000;stroke-width:1.0;" x1="176" x2="240" y1="165.6875" y2="165.6875"/><line style="stroke:#000000;stroke-width:1.0;" x1="240" x2="389" y1="165.6875" y2="165.6875"/><line style="stroke:#000000;stroke-width:1.0;" x1="389" x2="573" y1="165.6875" y2="165.6875"/><line style="stroke:#000000;stroke-width:1.0;" x1="573" x2="717" y1="165.6875" y2="165.6875"/><line style="stroke:#000000;stroke-width:1.0;" x1="717" x2="780" y1="165.6875" y2="165.6875"/><line style="stroke:#000000;stroke-width:1.0;" x1="780" x2="876" y1="165.6875" y2="165.6875"/><line style="stroke:#000000;stroke-width:1.0;" x1="876" x2="956" y1="165.6875" y2="165.6875"/><line style="stroke:#000000;stroke-width:1.0;" x1="956" x2="1080" y1="165.6875" y2="165.6875"/><line style="stroke:#000000;stroke-width:1.0;" x1="1080" x2="1106" y1="165.6875" y2="165.6875"/><line style="stroke:#000000;stroke-width:1.0;" x1="13" x2="100" y1="147.7266" y2="147.7266"/><line style="stroke:#000000;stroke-width:1.0;" x1="100" x2="176" y1="147.7266" y2="147.7266"/><line style="stroke:#000000;stroke-width:1.0;" x1="176" x2="240" y1="147.7266" y2="147.7266"/><line style="stroke:#000000;stroke-width:1.0;" x1="240" x2="389" y1="147.7266" y2="147.7266"/><line style="stroke:#000000;stroke-width:1.0;" x1="389" x2="573" y1="147.7266" y2="147.7266"/><line style="stroke:#000000;stroke-width:1.0;" x1="573" x2="717" y1="147.7266" y2="147.7266"/><line style="stroke:#000000;stroke-width:1.0;" x1="717" x2="780" y1="147.7266" y2="147.7266"/><line style="stroke:#000000;stroke-width:1.0;" x1="780" x2="876" y1="147.7266" y2="147.7266"/><line style="stroke:#000000;stroke-width:1.0;" x1="876" x2="956" y1="147.7266" y2="147.7266"/><line style="stroke:#000000;stroke-width:1.0;" x1="956" x2="1080" y1="147.7266" y2="147.7266"/><line style="stroke:#000000;stroke-width:1.0;" x1="1080" x2="1106" y1="147.7266" y2="147.7266"/><line style="stroke:#000000;stroke-width:1.0;" x1="13" x2="13" y1="129.7656" y2="147.7266"/><line style="stroke:#000000;stroke-width:1.0;" x1="100" x2="100" y1="129.7656" y2="147.7266"/><line style="stroke:#000000;stroke-width:1.0;" x1="176" x2="176" y1="129.7656" y2="147.7266"/><line style="stroke:#000000;stroke-width:1.0;" x1="240" x2="240" y1="129.7656" y2="147.7266"/><line style="stroke:#000000;stroke-width:1.0;" x1="389" x2="389" y1="129.7656" y2="147.7266"/><line style="stroke:#000000;stroke-width:1.0;" x1="573" x2="573" y1="129.7656" y2="147.7266"/><line style="stroke:#000000;stroke-width:1.0;" x1="717" x2="717" y1="129.7656" y2="147.7266"/><line style="stroke:#000000;stroke-width:1.0;" x1="780" x2="780" y1="129.7656" y2="147.7266"/><line style="stroke:#000000;stroke-width:1.0;" x1="876" x2="876" y1="129.7656" y2="147.7266"/><line style="stroke:#000000;stroke-width:1.0;" x1="956" x2="956" y1="129.7656" y2="147.7266"/><line style="stroke:#000000;stroke-width:1.0;" x1="1080" x2="1080" y1="129.7656" y2="147.7266"/><line style="stroke:#000000;stroke-width:1.0;" x1="1106" x2="1106" y1="129.7656" y2="147.7266"/><line style="stroke:#000000;stroke-width:1.0;" x1="13" x2="13" y1="147.7266" y2="165.6875"/><line style="stroke:#000000;stroke-width:1.0;" x1="100" x2="100" y1="147.7266" y2="165.6875"/><line style="stroke:#000000;stroke-width:1.0;" x1="176" x2="176" y1="147.7266" y2="165.6875"/><line style="stroke:#000000;stroke-width:1.0;" x1="240" x2="240" y1="147.7266" y2="165.6875"/><line style="stroke:#000000;stroke-width:1.0;" x1="389" x2="389" y1="147.7266" y2="165.6875"/><line style="stroke:#000000;stroke-width:1.0;" x1="573" x2="573" y1="147.7266" y2="165.6875"/><line style="stroke:#000000;stroke-width:1.0;" x1="717" x2="717" y1="147.7266" y2="165.6875"/><line style="stroke:#000000;stroke-width:1.0;" x1="780" x2="780" y1="147.7266" y2="165.6875"/><line style="stroke:#000000;stroke-width:1.0;" x1="876" x2="876" y1="147.7266" y2="165.6875"/><line style="stroke:#000000;stroke-width:1.0;" x1="956" x2="956" y1="147.7266" y2="165.6875"/><line style="stroke:#000000;stroke-width:1.0;" x1="1080" x2="1080" y1="147.7266" y2="165.6875"/><line style="stroke:#000000;stroke-width:1.0;" x1="1106" x2="1106" y1="147.7266" y2="165.6875"/><text fill="#000000" font-family="sans-serif" font-size="12" lengthAdjust="spacing" textLength="219" x="13" y="198.5977">Historique des immatriculations navires</text><text fill="#000000" font-family="sans-serif" font-size="12" lengthAdjust="spacing" textLength="85" x="14" y="217.5586">Immatriculation</text><text fill="#000000" font-family="sans-serif" font-size="12" lengthAdjust="spacing" textLength="121" x="101" y="217.5586">D&#233;but immatriculation</text><text fill="#000000" font-family="sans-serif" font-size="12" lengthAdjust="spacing" textLength="105" x="224" y="217.5586">Fin immatriculation</text><text fill="#000000" font-family="sans-serif" font-size="12" lengthAdjust="spacing" textLength="141" x="331" y="217.5586">Quartier d'immatriculation</text><text fill="#000000" font-family="sans-serif" font-size="12" lengthAdjust="spacing" textLength="42" x="14" y="235.5195">136794</text><text fill="#000000" font-family="sans-serif" font-size="12" lengthAdjust="spacing" textLength="62" x="101" y="235.5195">01/01/1967</text><text fill="#000000" font-family="sans-serif" font-size="12" lengthAdjust="spacing" textLength="76" x="331" y="235.5195">MA - Marseille</text><line style="stroke:#000000;stroke-width:1.0;" x1="13" x2="100" y1="203.6094" y2="203.6094"/><line style="stroke:#000000;stroke-width:1.0;" x1="223" x2="330" y1="239.5313" y2="239.5313"/><line style="stroke:#000000;stroke-width:1.0;" x1="100" x2="223" y1="221.5703" y2="221.5703"/><line style="stroke:#000000;stroke-width:1.0;" x1="100" x2="223" y1="203.6094" y2="203.6094"/><line style="stroke:#000000;stroke-width:1.0;" x1="330" x2="473" y1="239.5313" y2="239.5313"/><line style="stroke:#000000;stroke-width:1.0;" x1="223" x2="330" y1="221.5703" y2="221.5703"/><line style="stroke:#000000;stroke-width:1.0;" x1="223" x2="330" y1="203.6094" y2="203.6094"/><line style="stroke:#000000;stroke-width:1.0;" x1="330" x2="473" y1="221.5703" y2="221.5703"/><line style="stroke:#000000;stroke-width:1.0;" x1="330" x2="473" y1="203.6094" y2="203.6094"/><line style="stroke:#000000;stroke-width:1.0;" x1="13" x2="100" y1="239.5313" y2="239.5313"/><line style="stroke:#000000;stroke-width:1.0;" x1="100" x2="223" y1="239.5313" y2="239.5313"/><line style="stroke:#000000;stroke-width:1.0;" x1="13" x2="100" y1="221.5703" y2="221.5703"/><line style="stroke:#000000;stroke-width:1.0;" x1="13" x2="13" y1="203.6094" y2="221.5703"/><line style="stroke:#000000;stroke-width:1.0;" x1="100" x2="100" y1="221.5703" y2="239.5313"/><line style="stroke:#000000;stroke-width:1.0;" x1="100" x2="100" y1="203.6094" y2="221.5703"/><line style="stroke:#000000;stroke-width:1.0;" x1="223" x2="223" y1="221.5703" y2="239.5313"/><line style="stroke:#000000;stroke-width:1.0;" x1="223" x2="223" y1="203.6094" y2="221.5703"/><line style="stroke:#000000;stroke-width:1.0;" x1="330" x2="330" y1="221.5703" y2="239.5313"/><line style="stroke:#000000;stroke-width:1.0;" x1="473" x2="473" y1="221.5703" y2="239.5313"/><line style="stroke:#000000;stroke-width:1.0;" x1="330" x2="330" y1="203.6094" y2="221.5703"/><line style="stroke:#000000;stroke-width:1.0;" x1="473" x2="473" y1="203.6094" y2="221.5703"/><line style="stroke:#000000;stroke-width:1.0;" x1="13" x2="13" y1="221.5703" y2="239.5313"/><text fill="#000000" font-family="sans-serif" font-size="12" lengthAdjust="spacing" textLength="151" x="13" y="272.4414">Couples navires-armateurs</text><text fill="#000000" font-family="sans-serif" font-size="12" lengthAdjust="spacing" textLength="85" x="14" y="291.4023">Immatricualtion</text><text fill="#000000" font-family="sans-serif" font-size="12" lengthAdjust="spacing" textLength="83" x="101" y="291.4023">Code armateur</text><text fill="#000000" font-family="sans-serif" font-size="12" lengthAdjust="spacing" textLength="93" x="186" y="291.4023">D&#233;but armement</text><text fill="#000000" font-family="sans-serif" font-size="12" lengthAdjust="spacing" textLength="77" x="281" y="291.4023">Fin armement</text><text fill="#000000" font-family="sans-serif" font-size="12" lengthAdjust="spacing" textLength="80" x="360" y="291.4023">Nom armateur</text><text fill="#000000" font-family="sans-serif" font-size="12" lengthAdjust="spacing" textLength="97" x="442" y="291.4023">Pr&#233;nom armateur</text><text fill="#000000" font-family="sans-serif" font-size="12" lengthAdjust="spacing" textLength="42" x="14" y="309.3633">136794</text><text fill="#000000" font-family="sans-serif" font-size="12" lengthAdjust="spacing" textLength="35" x="101" y="309.3633">15233</text><text fill="#000000" font-family="sans-serif" font-size="12" lengthAdjust="spacing" textLength="62" x="186" y="309.3633">06/04/2021</text><text fill="#000000" font-family="sans-serif" font-size="12" lengthAdjust="spacing" textLength="48" x="360" y="309.3633">CRIMON</text><text fill="#000000" font-family="sans-serif" font-size="12" lengthAdjust="spacing" textLength="21" x="442" y="309.3633">Eric</text><line style="stroke:#000000;stroke-width:1.0;" x1="13" x2="100" y1="277.4531" y2="277.4531"/><line style="stroke:#000000;stroke-width:1.0;" x1="185" x2="280" y1="313.375" y2="313.375"/><line style="stroke:#000000;stroke-width:1.0;" x1="100" x2="185" y1="277.4531" y2="277.4531"/><line style="stroke:#000000;stroke-width:1.0;" x1="280" x2="359" y1="313.375" y2="313.375"/><line style="stroke:#000000;stroke-width:1.0;" x1="185" x2="280" y1="277.4531" y2="277.4531"/><line style="stroke:#000000;stroke-width:1.0;" x1="359" x2="441" y1="313.375" y2="313.375"/><line style="stroke:#000000;stroke-width:1.0;" x1="280" x2="359" y1="277.4531" y2="277.4531"/><line style="stroke:#000000;stroke-width:1.0;" x1="441" x2="540" y1="313.375" y2="313.375"/><line style="stroke:#000000;stroke-width:1.0;" x1="359" x2="441" y1="277.4531" y2="277.4531"/><line style="stroke:#000000;stroke-width:1.0;" x1="441" x2="540" y1="277.4531" y2="277.4531"/><line style="stroke:#000000;stroke-width:1.0;" x1="13" x2="100" y1="295.4141" y2="295.4141"/><line style="stroke:#000000;stroke-width:1.0;" x1="100" x2="185" y1="295.4141" y2="295.4141"/><line style="stroke:#000000;stroke-width:1.0;" x1="185" x2="280" y1="295.4141" y2="295.4141"/><line style="stroke:#000000;stroke-width:1.0;" x1="280" x2="359" y1="295.4141" y2="295.4141"/><line style="stroke:#000000;stroke-width:1.0;" x1="359" x2="441" y1="295.4141" y2="295.4141"/><line style="stroke:#000000;stroke-width:1.0;" x1="441" x2="540" y1="295.4141" y2="295.4141"/><line style="stroke:#000000;stroke-width:1.0;" x1="13" x2="100" y1="313.375" y2="313.375"/><line style="stroke:#000000;stroke-width:1.0;" x1="100" x2="185" y1="313.375" y2="313.375"/><line style="stroke:#000000;stroke-width:1.0;" x1="13" x2="13" y1="277.4531" y2="295.4141"/><line style="stroke:#000000;stroke-width:1.0;" x1="100" x2="100" y1="277.4531" y2="295.4141"/><line style="stroke:#000000;stroke-width:1.0;" x1="185" x2="185" y1="277.4531" y2="295.4141"/><line style="stroke:#000000;stroke-width:1.0;" x1="280" x2="280" y1="277.4531" y2="295.4141"/><line style="stroke:#000000;stroke-width:1.0;" x1="359" x2="359" y1="277.4531" y2="295.4141"/><line style="stroke:#000000;stroke-width:1.0;" x1="441" x2="441" y1="277.4531" y2="295.4141"/><line style="stroke:#000000;stroke-width:1.0;" x1="540" x2="540" y1="277.4531" y2="295.4141"/><line style="stroke:#000000;stroke-width:1.0;" x1="13" x2="13" y1="295.4141" y2="313.375"/><line style="stroke:#000000;stroke-width:1.0;" x1="100" x2="100" y1="295.4141" y2="313.375"/><line style="stroke:#000000;stroke-width:1.0;" x1="185" x2="185" y1="295.4141" y2="313.375"/><line style="stroke:#000000;stroke-width:1.0;" x1="280" x2="280" y1="295.4141" y2="313.375"/><line style="stroke:#000000;stroke-width:1.0;" x1="359" x2="359" y1="295.4141" y2="313.375"/><line style="stroke:#000000;stroke-width:1.0;" x1="441" x2="441" y1="295.4141" y2="313.375"/><line style="stroke:#000000;stroke-width:1.0;" x1="540" x2="540" y1="295.4141" y2="313.375"/><text fill="#000000" font-family="sans-serif" font-size="12" font-weight="bold" lengthAdjust="spacing" textLength="167" x="7" y="349.2852">Caract&#233;ristiques de l'enqu&#234;te</text><text fill="#000000" font-family="sans-serif" font-size="12" lengthAdjust="spacing" textLength="149" x="13" y="368.2461">Qualification de l'enqu&#234;te* :</text><rect fill="#EEEEEE" height="18.9609" style="stroke:#000000;stroke-width:1.0;" width="87" x="385" y="355.2969"/><text fill="#000000" font-family="sans-serif" font-size="12" lengthAdjust="spacing" textLength="47" x="387" y="370.2461">Indirecte</text><line style="stroke:#000000;stroke-width:1.0;" x1="461" x2="461" y1="355.2969" y2="374.2578"/><polygon fill="#000000" points="464,361.2969,470,361.2969,467,369.2578" style="stroke:#000000;stroke-width:1.0;"/><text fill="#000000" font-family="sans-serif" font-size="12" lengthAdjust="spacing" textLength="124" x="13" y="390.207">Fiabilit&#233; de l'enqu&#234;te* :</text><rect fill="#EEEEEE" height="18.9609" style="stroke:#000000;stroke-width:1.0;" width="87" x="385" y="377.2578"/><text fill="#000000" font-family="sans-serif" font-size="12" lengthAdjust="spacing" textLength="34" x="387" y="392.207">Fiable</text><line style="stroke:#000000;stroke-width:1.0;" x1="461" x2="461" y1="377.2578" y2="396.2188"/><polygon fill="#000000" points="464,383.2578,470,383.2578,467,391.2188" style="stroke:#000000;stroke-width:1.0;"/><text fill="#000000" font-family="sans-serif" font-size="12" lengthAdjust="spacing" textLength="261" x="13" y="412.168">Inactivit&#233; annuelle confirm&#233;e par l'observateur* :</text><text fill="#000000" font-family="sans-serif" font-size="12" font-weight="bold" lengthAdjust="spacing" textLength="19" x="406" y="413.168">Oui</text><ellipse cx="393" cy="408.1992" fill="none" rx="5" ry="5" style="stroke:#000000;stroke-width:1.5;"/><ellipse cx="393" cy="408.1992" fill="#000000" rx="2" ry="2" style="stroke:#000000;stroke-width:1.5;"/><text fill="#000000" font-family="sans-serif" font-size="12" lengthAdjust="spacing" textLength="23" x="447" y="413.168">Non</text><ellipse cx="434" cy="408.1992" fill="none" rx="5" ry="5" style="stroke:#000000;stroke-width:1.5;"/><text fill="#000000" font-family="sans-serif" font-size="12" lengthAdjust="spacing" textLength="370" x="13" y="432.1289">Le professionnel accepterait-il de r&#233;pondre &#224; une autre enqu&#234;te ?* :</text><text fill="#000000" font-family="sans-serif" font-size="12" lengthAdjust="spacing" textLength="19" x="406" y="433.1289">Oui</text><ellipse cx="393" cy="428.1602" fill="none" rx="5" ry="5" style="stroke:#000000;stroke-width:1.5;"/><text fill="#000000" font-family="sans-serif" font-size="12" font-weight="bold" lengthAdjust="spacing" textLength="22" x="447" y="433.1289">Non</text><ellipse cx="434" cy="428.1602" fill="none" rx="5" ry="5" style="stroke:#000000;stroke-width:1.5;"/><ellipse cx="434" cy="428.1602" fill="#000000" rx="2" ry="2" style="stroke:#000000;stroke-width:1.5;"/><text fill="#000000" font-family="sans-serif" font-size="12" lengthAdjust="spacing" textLength="340" x="13" y="452.0898">M&#233;tiers d&#233;clar&#233;s dans les journeaux de bord/fiches de p&#234;che :</text><rect fill="#EEEEEE" height="18.9609" style="stroke:#000000;stroke-width:1.0;" width="87" x="385" y="439.1406"/><text fill="#000000" font-family="sans-serif" font-size="12" lengthAdjust="spacing" textLength="3" x="387" y="454.0898">&#160;</text><line style="stroke:#000000;stroke-width:1.0;" x1="461" x2="461" y1="439.1406" y2="458.1016"/><polygon fill="#000000" points="464,445.1406,470,445.1406,467,453.1016" style="stroke:#000000;stroke-width:1.0;"/><text fill="#000000" font-family="sans-serif" font-size="12" lengthAdjust="spacing" textLength="165" x="13" y="474.0508">Habitudes de vente &#224; la cri&#233;e :</text><rect fill="#EEEEEE" height="18.9609" style="stroke:#000000;stroke-width:1.0;" width="87" x="385" y="461.1016"/><text fill="#000000" font-family="sans-serif" font-size="12" lengthAdjust="spacing" textLength="3" x="387" y="476.0508">&#160;</text><line style="stroke:#000000;stroke-width:1.0;" x1="461" x2="461" y1="461.1016" y2="480.0625"/><polygon fill="#000000" points="464,467.1016,470,467.1016,467,475.0625" style="stroke:#000000;stroke-width:1.0;"/><rect fill="#EEEEEE" height="19.9609" rx="5" ry="5" style="stroke:#000000;stroke-width:2.5;" width="52" x="9.5" y="506.5234"/><text fill="#000000" font-family="sans-serif" font-size="12" lengthAdjust="spacing" textLength="40" x="15.5" y="521.4727">Fermer</text><rect fill="#EEEEEE" height="19.9609" rx="5" ry="5" style="stroke:#000000;stroke-width:2.5;" width="92" x="68.5" y="506.5234"/><text fill="#000000" font-family="sans-serif" font-size="12" lengthAdjust="spacing" textLength="70" x="79.5" y="521.4727">Sauvegarder</text><!--SRC=[bLLRR-9657xthpXI7mAL0jWaH45LTxDS4YW6cj3ThLQDDDW3EwsPOSSpA5N2V-ah-pVuO_t6vfR0orfW-vmvr-zS_3urJ9kK9SPxzeX-6V_QLtR1cQM89Lp6Md0DVgc4stFPdT-kLtAzqYoX5shiP424wvN1M-huQZRZqZ2XUKfBf-yvVMUTBS3ycUgGUlIhjQlh2pgdXq6__oVrE_q1XJUZkqwlsQBgup9JogDg6MOeXhNeAvDJxgodESqqYmm24gaHtomuF1TaUiOCjuWdjYGpjvHQJK4b260pjup8iZJUsd06Sfrq9_Ny4tLciAb5P1DcX99WDjUhiJMqO8c81Ko0rHRo5TrNiuCGNcYeD28yuq_pH0cpDTHbTiffhAtXL1XrFv1VzYiLCa_5tM7XTkI8eHLfMY8MpqfK-EUJO_MKd9RehZG2P-OODn8ruaY38YLJessqSTCUDhA4S6tGVw5AhLovA0CN7qGLVWD7121EriN54zwWQZr68OirczhCKwYaqJpEt5pMAivMuEwrMiazhl7thsjNU0oiMEQmUZjqxu2zqWxz37pn6kaVguOuEd0rEUR-Rj7xhddZipU7nnZvPVmsyJl_6G8XqoaNISAFqcaeEq_sJNI-wyQJ2M3yyeWQ2a1kPVS9WPEr_2QJ0z8rru7yK6Cw3rX7UVYNGRNwjkPPmFUTSD37Imi1vUcu-tvuypayDIgKd77vpQw_6vxxooShCmk84p4HKGxvAzdD4kZ860X5XZ_kjTg2ZKMIpSyf5NUSSCWUg7GauXABJ8T9QJcguff_8lJCZSASQHXIuvJhHGPDRkkP2f-BBZ7q9CX24OXAMkxjzg2grOIdAHAGF24MHNnkk6R2d8l4nGVCvmfhaDFwFx8I1RGO1De6JUzshegqSPFxVEDgjq3ZzIfA6CpYbQ7tNIFzhQoMsCjFpkDOwRWCLB_c-C_Nt_6QOqFRwm2REw1fR9mBBz0uMQG9eqWBXyr9nTVLfozjZgxJVq7qomF39sBATEpefRVqtkCha7r3l672fFaZxC6DTeYHNqAJLKj-jO3zG4qUaUzZ3zI3IltoYXgjaLl8rQ9Nk1tsA4MI4HO0caiBD3uC5BqkMp2wjzA86Q_JOCvbj_dRba4jYG5Jqes3r_qOxWLg5-SVXA47r1iJ_Z7qcdp2R6AW4QbOo6cT6dC_k0oy7huebarXVA8z32xMsBzrQj__3m00]--></g></svg>