<?xml version="1.0" encoding="UTF-8" standalone="no"?><svg xmlns="http://www.w3.org/2000/svg" xmlns:xlink="http://www.w3.org/1999/xlink" contentStyleType="text/css" height="773px" preserveAspectRatio="none" style="width:1380px;height:773px;background:#FFFFFF;" version="1.1" viewBox="0 0 1380 773" width="1380px" zoomAndPan="magnify"><defs/><g><!--MD5=[0f48d6d2ce6f3cc0a3780dfb2fd701e0]
class ACTIVITY_CALENDAR--><g id="elem_ACTIVITY_CALENDAR"><rect codeLine="3" fill="#F1F1F1" height="238.6792" id="ACTIVITY_CALENDAR" rx="2.5" ry="2.5" style="stroke:#181818;stroke-width:0.5;" width="245" x="571" y="210"/><ellipse cx="620.25" cy="226" fill="#ADD1B2" rx="11" ry="11" style="stroke:#181818;stroke-width:1.0;"/><path d="M619.7188,232.9219 Q617.9688,232.9219 616.8281,232.1875 Q615.7031,231.4375 615.1406,230.0938 Q614.5938,228.7344 614.5938,226.9375 Q614.5938,224.9063 615.25,223.4531 Q615.9063,222 617.1875,221.2188 Q618.4688,220.4375 620.3438,220.4375 Q621.2344,220.4375 621.9063,220.625 Q622.5781,220.7969 623.2656,221.1406 L622.4531,223.1563 Q621.8281,222.8438 621.2813,222.7188 Q620.75,222.5938 620.2656,222.5938 Q619.0938,222.5938 618.3906,223.125 Q617.6875,223.6563 617.3906,224.6094 Q617.0938,225.5625 617.0938,226.8281 Q617.0938,228.8438 617.8125,229.8125 Q618.5313,230.7656 620.125,230.7656 Q620.7188,230.7656 621.3438,230.6094 Q621.9688,230.4531 622.7969,230.0781 L622.7969,232.2969 Q622.0625,232.6094 621.2656,232.7656 Q620.4844,232.9219 619.7188,232.9219 Z " fill="#000000"/><text fill="#000000" font-family="sans-serif" font-size="14" lengthAdjust="spacing" textLength="138" x="640.75" y="231.432">ACTIVITY_CALENDAR</text><line style="stroke:#181818;stroke-width:0.5;" x1="572" x2="815" y1="242" y2="242"/><ellipse cx="582" cy="257.034" fill="none" rx="3" ry="3" style="stroke:#038048;stroke-width:1.0;"/><text fill="#000000" font-family="sans-serif" font-size="14" lengthAdjust="spacing" textLength="15" x="591" y="260.9659">ID</text><ellipse cx="582" cy="276.1019" fill="none" rx="3" ry="3" style="stroke:#038048;stroke-width:1.0;"/><text fill="#000000" font-family="sans-serif" font-size="14" lengthAdjust="spacing" textLength="34" x="591" y="280.0339">YEAR</text><ellipse cx="582" cy="295.1698" fill="none" rx="3" ry="3" style="stroke:#038048;stroke-width:1.0;"/><text fill="#000000" font-family="sans-serif" font-size="14" lengthAdjust="spacing" textLength="219" x="591" y="299.1018">DIRECT_SURVEY_INVESTIGATION</text><ellipse cx="582" cy="314.2377" fill="none" rx="3" ry="3" style="stroke:#038048;stroke-width:1.0;"/><text fill="#000000" font-family="sans-serif" font-size="14" lengthAdjust="spacing" textLength="81" x="591" y="318.1697">COMMENTS</text><ellipse cx="582" cy="333.3056" fill="none" rx="3" ry="3" style="stroke:#038048;stroke-width:1.0;"/><text fill="#000000" font-family="sans-serif" font-size="14" lengthAdjust="spacing" textLength="111" x="591" y="337.2376">CREATION_DATE</text><ellipse cx="582" cy="352.3735" fill="none" rx="3" ry="3" style="stroke:#038048;stroke-width:1.0;"/><text fill="#000000" font-family="sans-serif" font-size="14" lengthAdjust="spacing" textLength="94" x="591" y="356.3055">UPDATE_DATE</text><ellipse cx="582" cy="371.4415" fill="none" rx="3" ry="3" style="stroke:#038048;stroke-width:1.0;"/><text fill="#000000" font-family="sans-serif" font-size="14" lengthAdjust="spacing" textLength="156" x="591" y="375.3734">RECORDER_PERSON_FK</text><ellipse cx="582" cy="390.5094" fill="none" rx="3" ry="3" style="stroke:#038048;stroke-width:1.0;"/><text fill="#000000" font-family="sans-serif" font-size="14" lengthAdjust="spacing" textLength="69" x="591" y="394.4414">VESSEL_FK</text><ellipse cx="582" cy="409.5773" fill="none" rx="3" ry="3" style="stroke:#038048;stroke-width:1.0;"/><text fill="#000000" font-family="sans-serif" font-size="14" lengthAdjust="spacing" textLength="91" x="591" y="413.5093">PROGRAM_FK</text><ellipse cx="582" cy="428.6452" fill="none" rx="3" ry="3" style="stroke:#038048;stroke-width:1.0;"/><text fill="#000000" font-family="sans-serif" font-size="14" lengthAdjust="spacing" textLength="193" x="591" y="432.5772">RECORDER_DEPARTMENT_FK</text><line style="stroke:#181818;stroke-width:0.5;" x1="572" x2="815" y1="440.6792" y2="440.6792"/></g><!--MD5=[77d092d5f232c7ba1cc627d33b24dc6f]
class SURVEY_MEASUREMENT--><g id="elem_SURVEY_MEASUREMENT"><rect codeLine="16" fill="#F1F1F1" height="124.2717" id="SURVEY_MEASUREMENT" rx="2.5" ry="2.5" style="stroke:#181818;stroke-width:0.5;" width="194" x="596.5" y="7"/><ellipse cx="611.5" cy="23" fill="#ADD1B2" rx="11" ry="11" style="stroke:#181818;stroke-width:1.0;"/><path d="M610.9688,29.9219 Q609.2188,29.9219 608.0781,29.1875 Q606.9531,28.4375 606.3906,27.0938 Q605.8438,25.7344 605.8438,23.9375 Q605.8438,21.9063 606.5,20.4531 Q607.1563,19 608.4375,18.2188 Q609.7188,17.4375 611.5938,17.4375 Q612.4844,17.4375 613.1563,17.625 Q613.8281,17.7969 614.5156,18.1406 L613.7031,20.1563 Q613.0781,19.8438 612.5313,19.7188 Q612,19.5938 611.5156,19.5938 Q610.3438,19.5938 609.6406,20.125 Q608.9375,20.6563 608.6406,21.6094 Q608.3438,22.5625 608.3438,23.8281 Q608.3438,25.8438 609.0625,26.8125 Q609.7813,27.7656 611.375,27.7656 Q611.9688,27.7656 612.5938,27.6094 Q613.2188,27.4531 614.0469,27.0781 L614.0469,29.2969 Q613.3125,29.6094 612.5156,29.7656 Q611.7344,29.9219 610.9688,29.9219 Z " fill="#000000"/><text fill="#000000" font-family="sans-serif" font-size="14" lengthAdjust="spacing" textLength="162" x="625.5" y="28.432">SURVEY_MEASUREMENT</text><line style="stroke:#181818;stroke-width:0.5;" x1="597.5" x2="789.5" y1="39" y2="39"/><ellipse cx="607.5" cy="54.034" fill="none" rx="3" ry="3" style="stroke:#038048;stroke-width:1.0;"/><text fill="#000000" font-family="sans-serif" font-size="14" lengthAdjust="spacing" textLength="15" x="616.5" y="57.9659">ID</text><ellipse cx="607.5" cy="73.1019" fill="none" rx="3" ry="3" style="stroke:#038048;stroke-width:1.0;"/><text fill="#000000" font-family="sans-serif" font-size="14" lengthAdjust="spacing" textLength="63" x="616.5" y="77.0339">PMFM_FK</text><ellipse cx="607.5" cy="92.1698" fill="none" rx="3" ry="3" style="stroke:#038048;stroke-width:1.0;"/><text fill="#000000" font-family="sans-serif" font-size="14" lengthAdjust="spacing" textLength="158" x="616.5" y="96.1018">QUALITATIVE_VALUE_FK</text><ellipse cx="607.5" cy="111.2377" fill="none" rx="3" ry="3" style="stroke:#038048;stroke-width:1.0;"/><text fill="#000000" font-family="sans-serif" font-size="14" lengthAdjust="spacing" textLength="160" x="616.5" y="115.1697">ACTIVITY_CALENDAR_FK</text><line style="stroke:#181818;stroke-width:0.5;" x1="597.5" x2="789.5" y1="123.2717" y2="123.2717"/></g><!--MD5=[bbbfabb211eb24ea022b3ed6b893594f]
class VESSEL_USE_FEATURES--><g id="elem_VESSEL_USE_FEATURES"><rect codeLine="23" fill="#F1F1F1" height="238.6792" id="VESSEL_USE_FEATURES" rx="2.5" ry="2.5" style="stroke:#181818;stroke-width:0.5;" width="201" x="593" y="528"/><ellipse cx="615.65" cy="544" fill="#ADD1B2" rx="11" ry="11" style="stroke:#181818;stroke-width:1.0;"/><path d="M615.1188,550.9219 Q613.3688,550.9219 612.2281,550.1875 Q611.1031,549.4375 610.5406,548.0938 Q609.9938,546.7344 609.9938,544.9375 Q609.9938,542.9063 610.65,541.4531 Q611.3063,540 612.5875,539.2188 Q613.8688,538.4375 615.7438,538.4375 Q616.6344,538.4375 617.3063,538.625 Q617.9781,538.7969 618.6656,539.1406 L617.8531,541.1563 Q617.2281,540.8438 616.6813,540.7188 Q616.15,540.5938 615.6656,540.5938 Q614.4938,540.5938 613.7906,541.125 Q613.0875,541.6563 612.7906,542.6094 Q612.4938,543.5625 612.4938,544.8281 Q612.4938,546.8438 613.2125,547.8125 Q613.9313,548.7656 615.525,548.7656 Q616.1188,548.7656 616.7438,548.6094 Q617.3688,548.4531 618.1969,548.0781 L618.1969,550.2969 Q617.4625,550.6094 616.6656,550.7656 Q615.8844,550.9219 615.1188,550.9219 Z " fill="#000000"/><text fill="#000000" font-family="sans-serif" font-size="14" lengthAdjust="spacing" textLength="152" x="631.35" y="549.432">VESSEL_USE_FEATURES</text><line style="stroke:#181818;stroke-width:0.5;" x1="594" x2="793" y1="560" y2="560"/><ellipse cx="604" cy="575.034" fill="none" rx="3" ry="3" style="stroke:#038048;stroke-width:1.0;"/><text fill="#000000" font-family="sans-serif" font-size="14" lengthAdjust="spacing" textLength="15" x="613" y="578.9659">ID</text><ellipse cx="604" cy="594.1019" fill="none" rx="3" ry="3" style="stroke:#038048;stroke-width:1.0;"/><text fill="#000000" font-family="sans-serif" font-size="14" lengthAdjust="spacing" textLength="83" x="613" y="598.0339">START_DATE</text><ellipse cx="604" cy="613.1698" fill="none" rx="3" ry="3" style="stroke:#038048;stroke-width:1.0;"/><text fill="#000000" font-family="sans-serif" font-size="14" lengthAdjust="spacing" textLength="70" x="613" y="617.1018">END_DATE</text><ellipse cx="604" cy="632.2377" fill="none" rx="3" ry="3" style="stroke:#038048;stroke-width:1.0;"/><text fill="#000000" font-family="sans-serif" font-size="14" lengthAdjust="spacing" textLength="111" x="613" y="636.1697">CREATION_DATE</text><ellipse cx="604" cy="651.3056" fill="none" rx="3" ry="3" style="stroke:#038048;stroke-width:1.0;"/><text fill="#000000" font-family="sans-serif" font-size="14" lengthAdjust="spacing" textLength="94" x="613" y="655.2376">UPDATE_DATE</text><ellipse cx="604" cy="670.3735" fill="none" rx="3" ry="3" style="stroke:#038048;stroke-width:1.0;"/><text fill="#000000" font-family="sans-serif" font-size="14" lengthAdjust="spacing" textLength="69" x="613" y="674.3055">VESSEL_FK</text><ellipse cx="604" cy="689.4415" fill="none" rx="3" ry="3" style="stroke:#038048;stroke-width:1.0;"/><text fill="#000000" font-family="sans-serif" font-size="14" lengthAdjust="spacing" textLength="91" x="613" y="693.3734">PROGRAM_FK</text><ellipse cx="604" cy="708.5094" fill="none" rx="3" ry="3" style="stroke:#038048;stroke-width:1.0;"/><text fill="#000000" font-family="sans-serif" font-size="14" lengthAdjust="spacing" textLength="66" x="613" y="712.4414">IS_ACTIVE</text><ellipse cx="604" cy="727.5773" fill="none" rx="3" ry="3" style="stroke:#038048;stroke-width:1.0;"/><text fill="#000000" font-family="sans-serif" font-size="14" lengthAdjust="spacing" textLength="160" x="613" y="731.5093">ACTIVITY_CALENDAR_FK</text><ellipse cx="604" cy="746.6452" fill="none" rx="3" ry="3" style="stroke:#038048;stroke-width:1.0;"/><text fill="#000000" font-family="sans-serif" font-size="14" lengthAdjust="spacing" textLength="175" x="613" y="750.5772">BASE_PORT_LOCATION_FK</text><line style="stroke:#181818;stroke-width:0.5;" x1="594" x2="793" y1="758.6792" y2="758.6792"/></g><!--MD5=[e6d8971f44f5505b38a1c69d43ab1c80]
class VESSEL_USE_MEASUREMENT--><g id="elem_VESSEL_USE_MEASUREMENT"><rect codeLine="36" fill="#F1F1F1" height="124.2717" id="VESSEL_USE_MEASUREMENT" rx="2.5" ry="2.5" style="stroke:#181818;stroke-width:0.5;" width="222" x="845.5" y="585.5"/><ellipse cx="860.5" cy="601.5" fill="#ADD1B2" rx="11" ry="11" style="stroke:#181818;stroke-width:1.0;"/><path d="M859.9688,608.4219 Q858.2188,608.4219 857.0781,607.6875 Q855.9531,606.9375 855.3906,605.5938 Q854.8438,604.2344 854.8438,602.4375 Q854.8438,600.4063 855.5,598.9531 Q856.1563,597.5 857.4375,596.7188 Q858.7188,595.9375 860.5938,595.9375 Q861.4844,595.9375 862.1563,596.125 Q862.8281,596.2969 863.5156,596.6406 L862.7031,598.6563 Q862.0781,598.3438 861.5313,598.2188 Q861,598.0938 860.5156,598.0938 Q859.3438,598.0938 858.6406,598.625 Q857.9375,599.1563 857.6406,600.1094 Q857.3438,601.0625 857.3438,602.3281 Q857.3438,604.3438 858.0625,605.3125 Q858.7813,606.2656 860.375,606.2656 Q860.9688,606.2656 861.5938,606.1094 Q862.2188,605.9531 863.0469,605.5781 L863.0469,607.7969 Q862.3125,608.1094 861.5156,608.2656 Q860.7344,608.4219 859.9688,608.4219 Z " fill="#000000"/><text fill="#000000" font-family="sans-serif" font-size="14" lengthAdjust="spacing" textLength="190" x="874.5" y="606.932">VESSEL_USE_MEASUREMENT</text><line style="stroke:#181818;stroke-width:0.5;" x1="846.5" x2="1066.5" y1="617.5" y2="617.5"/><ellipse cx="856.5" cy="632.534" fill="none" rx="3" ry="3" style="stroke:#038048;stroke-width:1.0;"/><text fill="#000000" font-family="sans-serif" font-size="14" lengthAdjust="spacing" textLength="15" x="865.5" y="636.4659">ID</text><ellipse cx="856.5" cy="651.6019" fill="none" rx="3" ry="3" style="stroke:#038048;stroke-width:1.0;"/><text fill="#000000" font-family="sans-serif" font-size="14" lengthAdjust="spacing" textLength="129" x="865.5" y="655.5339">NUMERICAL_VALUE</text><ellipse cx="856.5" cy="670.6698" fill="none" rx="3" ry="3" style="stroke:#038048;stroke-width:1.0;"/><text fill="#000000" font-family="sans-serif" font-size="14" lengthAdjust="spacing" textLength="63" x="865.5" y="674.6018">PMFM_FK</text><ellipse cx="856.5" cy="689.7377" fill="none" rx="3" ry="3" style="stroke:#038048;stroke-width:1.0;"/><text fill="#000000" font-family="sans-serif" font-size="14" lengthAdjust="spacing" textLength="174" x="865.5" y="693.6697">VESSEL_USE_FEATURES_FK</text><line style="stroke:#181818;stroke-width:0.5;" x1="846.5" x2="1066.5" y1="701.7717" y2="701.7717"/></g><!--MD5=[08ceb01524ab6b394d55bcb8d29c6ef1]
class GEAR_USE_FEATURES--><g id="elem_GEAR_USE_FEATURES"><rect codeLine="43" fill="#F1F1F1" height="238.6792" id="GEAR_USE_FEATURES" rx="2.5" ry="2.5" style="stroke:#181818;stroke-width:0.5;" width="186" x="867.5" y="210"/><ellipse cx="888.35" cy="226" fill="#ADD1B2" rx="11" ry="11" style="stroke:#181818;stroke-width:1.0;"/><path d="M887.8188,232.9219 Q886.0688,232.9219 884.9281,232.1875 Q883.8031,231.4375 883.2406,230.0938 Q882.6938,228.7344 882.6938,226.9375 Q882.6938,224.9063 883.35,223.4531 Q884.0063,222 885.2875,221.2188 Q886.5688,220.4375 888.4438,220.4375 Q889.3344,220.4375 890.0063,220.625 Q890.6781,220.7969 891.3656,221.1406 L890.5531,223.1563 Q889.9281,222.8438 889.3813,222.7188 Q888.85,222.5938 888.3656,222.5938 Q887.1938,222.5938 886.4906,223.125 Q885.7875,223.6563 885.4906,224.6094 Q885.1938,225.5625 885.1938,226.8281 Q885.1938,228.8438 885.9125,229.8125 Q886.6313,230.7656 888.225,230.7656 Q888.8188,230.7656 889.4438,230.6094 Q890.0688,230.4531 890.8969,230.0781 L890.8969,232.2969 Q890.1625,232.6094 889.3656,232.7656 Q888.5844,232.9219 887.8188,232.9219 Z " fill="#000000"/><text fill="#000000" font-family="sans-serif" font-size="14" lengthAdjust="spacing" textLength="141" x="903.65" y="231.432">GEAR_USE_FEATURES</text><line style="stroke:#181818;stroke-width:0.5;" x1="868.5" x2="1052.5" y1="242" y2="242"/><ellipse cx="878.5" cy="257.034" fill="none" rx="3" ry="3" style="stroke:#038048;stroke-width:1.0;"/><text fill="#000000" font-family="sans-serif" font-size="14" lengthAdjust="spacing" textLength="15" x="887.5" y="260.9659">ID</text><ellipse cx="878.5" cy="276.1019" fill="none" rx="3" ry="3" style="stroke:#038048;stroke-width:1.0;"/><text fill="#000000" font-family="sans-serif" font-size="14" lengthAdjust="spacing" textLength="83" x="887.5" y="280.0339">START_DATE</text><ellipse cx="878.5" cy="295.1698" fill="none" rx="3" ry="3" style="stroke:#038048;stroke-width:1.0;"/><text fill="#000000" font-family="sans-serif" font-size="14" lengthAdjust="spacing" textLength="70" x="887.5" y="299.1018">END_DATE</text><ellipse cx="878.5" cy="314.2377" fill="none" rx="3" ry="3" style="stroke:#038048;stroke-width:1.0;"/><text fill="#000000" font-family="sans-serif" font-size="14" lengthAdjust="spacing" textLength="111" x="887.5" y="318.1697">CREATION_DATE</text><ellipse cx="878.5" cy="333.3056" fill="none" rx="3" ry="3" style="stroke:#038048;stroke-width:1.0;"/><text fill="#000000" font-family="sans-serif" font-size="14" lengthAdjust="spacing" textLength="94" x="887.5" y="337.2376">UPDATE_DATE</text><ellipse cx="878.5" cy="352.3735" fill="none" rx="3" ry="3" style="stroke:#038048;stroke-width:1.0;"/><text fill="#000000" font-family="sans-serif" font-size="14" lengthAdjust="spacing" textLength="69" x="887.5" y="356.3055">VESSEL_FK</text><ellipse cx="878.5" cy="371.4415" fill="none" rx="3" ry="3" style="stroke:#038048;stroke-width:1.0;"/><text fill="#000000" font-family="sans-serif" font-size="14" lengthAdjust="spacing" textLength="91" x="887.5" y="375.3734">PROGRAM_FK</text><ellipse cx="878.5" cy="390.5094" fill="none" rx="3" ry="3" style="stroke:#038048;stroke-width:1.0;"/><text fill="#000000" font-family="sans-serif" font-size="14" lengthAdjust="spacing" textLength="58" x="887.5" y="394.4414">GEAR_FK</text><ellipse cx="878.5" cy="409.5773" fill="none" rx="3" ry="3" style="stroke:#038048;stroke-width:1.0;"/><text fill="#000000" font-family="sans-serif" font-size="14" lengthAdjust="spacing" textLength="160" x="887.5" y="413.5093">ACTIVITY_CALENDAR_FK</text><ellipse cx="878.5" cy="428.6452" fill="none" rx="3" ry="3" style="stroke:#038048;stroke-width:1.0;"/><text fill="#000000" font-family="sans-serif" font-size="14" lengthAdjust="spacing" textLength="73" x="887.5" y="432.5772">METIER_FK</text><line style="stroke:#181818;stroke-width:0.5;" x1="868.5" x2="1052.5" y1="440.6792" y2="440.6792"/></g><!--MD5=[7dff13f5060bfcb241efdb9b64fdaabb]
class FISHING_AREA--><g id="elem_FISHING_AREA"><rect codeLine="56" fill="#F1F1F1" height="162.4075" id="FISHING_AREA" rx="2.5" ry="2.5" style="stroke:#181818;stroke-width:0.5;" width="268" x="1105.5" y="248.5"/><ellipse cx="1186.75" cy="264.5" fill="#ADD1B2" rx="11" ry="11" style="stroke:#181818;stroke-width:1.0;"/><path d="M1186.2188,271.4219 Q1184.4688,271.4219 1183.3281,270.6875 Q1182.2031,269.9375 1181.6406,268.5938 Q1181.0938,267.2344 1181.0938,265.4375 Q1181.0938,263.4063 1181.75,261.9531 Q1182.4063,260.5 1183.6875,259.7188 Q1184.9688,258.9375 1186.8438,258.9375 Q1187.7344,258.9375 1188.4063,259.125 Q1189.0781,259.2969 1189.7656,259.6406 L1188.9531,261.6563 Q1188.3281,261.3438 1187.7813,261.2188 Q1187.25,261.0938 1186.7656,261.0938 Q1185.5938,261.0938 1184.8906,261.625 Q1184.1875,262.1563 1183.8906,263.1094 Q1183.5938,264.0625 1183.5938,265.3281 Q1183.5938,267.3438 1184.3125,268.3125 Q1185.0313,269.2656 1186.625,269.2656 Q1187.2188,269.2656 1187.8438,269.1094 Q1188.4688,268.9531 1189.2969,268.5781 L1189.2969,270.7969 Q1188.5625,271.1094 1187.7656,271.2656 Q1186.9844,271.4219 1186.2188,271.4219 Z " fill="#000000"/><text fill="#000000" font-family="sans-serif" font-size="14" lengthAdjust="spacing" textLength="97" x="1207.25" y="269.932">FISHING_AREA</text><line style="stroke:#181818;stroke-width:0.5;" x1="1106.5" x2="1372.5" y1="280.5" y2="280.5"/><ellipse cx="1116.5" cy="295.534" fill="none" rx="3" ry="3" style="stroke:#038048;stroke-width:1.0;"/><text fill="#000000" font-family="sans-serif" font-size="14" lengthAdjust="spacing" textLength="15" x="1125.5" y="299.4659">ID</text><ellipse cx="1116.5" cy="314.6019" fill="none" rx="3" ry="3" style="stroke:#038048;stroke-width:1.0;"/><text fill="#000000" font-family="sans-serif" font-size="14" lengthAdjust="spacing" textLength="182" x="1125.5" y="318.5339">NEARBY_SPECIFIC_AREA_FK</text><ellipse cx="1116.5" cy="333.6698" fill="none" rx="3" ry="3" style="stroke:#038048;stroke-width:1.0;"/><text fill="#000000" font-family="sans-serif" font-size="14" lengthAdjust="spacing" textLength="142" x="1125.5" y="337.6018">DEPTH_GRADIENT_FK</text><ellipse cx="1116.5" cy="352.7377" fill="none" rx="3" ry="3" style="stroke:#038048;stroke-width:1.0;"/><text fill="#000000" font-family="sans-serif" font-size="14" lengthAdjust="spacing" textLength="242" x="1125.5" y="356.6697">DISTANCE_TO_COAST_GRADIENT_FK</text><ellipse cx="1116.5" cy="371.8056" fill="none" rx="3" ry="3" style="stroke:#038048;stroke-width:1.0;"/><text fill="#000000" font-family="sans-serif" font-size="14" lengthAdjust="spacing" textLength="93" x="1125.5" y="375.7376">LOCATION_FK</text><ellipse cx="1116.5" cy="390.8735" fill="none" rx="3" ry="3" style="stroke:#038048;stroke-width:1.0;"/><text fill="#000000" font-family="sans-serif" font-size="14" lengthAdjust="spacing" textLength="163" x="1125.5" y="394.8055">GEAR_USE_FEATURES_FK</text><line style="stroke:#181818;stroke-width:0.5;" x1="1106.5" x2="1372.5" y1="402.9075" y2="402.9075"/></g><!--MD5=[9a806a8793da5ecae65073136c1552a9]
class GEAR_PHYSICAL_FEATURES--><g id="elem_GEAR_PHYSICAL_FEATURES"><rect codeLine="65" fill="#F1F1F1" height="238.6792" id="GEAR_PHYSICAL_FEATURES" rx="2.5" ry="2.5" style="stroke:#181818;stroke-width:0.5;" width="211" x="308" y="210"/><ellipse cx="323" cy="226" fill="#ADD1B2" rx="11" ry="11" style="stroke:#181818;stroke-width:1.0;"/><path d="M322.4688,232.9219 Q320.7188,232.9219 319.5781,232.1875 Q318.4531,231.4375 317.8906,230.0938 Q317.3438,228.7344 317.3438,226.9375 Q317.3438,224.9063 318,223.4531 Q318.6563,222 319.9375,221.2188 Q321.2188,220.4375 323.0938,220.4375 Q323.9844,220.4375 324.6563,220.625 Q325.3281,220.7969 326.0156,221.1406 L325.2031,223.1563 Q324.5781,222.8438 324.0313,222.7188 Q323.5,222.5938 323.0156,222.5938 Q321.8438,222.5938 321.1406,223.125 Q320.4375,223.6563 320.1406,224.6094 Q319.8438,225.5625 319.8438,226.8281 Q319.8438,228.8438 320.5625,229.8125 Q321.2813,230.7656 322.875,230.7656 Q323.4688,230.7656 324.0938,230.6094 Q324.7188,230.4531 325.5469,230.0781 L325.5469,232.2969 Q324.8125,232.6094 324.0156,232.7656 Q323.2344,232.9219 322.4688,232.9219 Z " fill="#000000"/><text fill="#000000" font-family="sans-serif" font-size="14" lengthAdjust="spacing" textLength="179" x="337" y="231.432">GEAR_PHYSICAL_FEATURES</text><line style="stroke:#181818;stroke-width:0.5;" x1="309" x2="518" y1="242" y2="242"/><ellipse cx="319" cy="257.034" fill="none" rx="3" ry="3" style="stroke:#038048;stroke-width:1.0;"/><text fill="#000000" font-family="sans-serif" font-size="14" lengthAdjust="spacing" textLength="15" x="328" y="260.9659">ID</text><ellipse cx="319" cy="276.1019" fill="none" rx="3" ry="3" style="stroke:#038048;stroke-width:1.0;"/><text fill="#000000" font-family="sans-serif" font-size="14" lengthAdjust="spacing" textLength="83" x="328" y="280.0339">START_DATE</text><ellipse cx="319" cy="295.1698" fill="none" rx="3" ry="3" style="stroke:#038048;stroke-width:1.0;"/><text fill="#000000" font-family="sans-serif" font-size="14" lengthAdjust="spacing" textLength="70" x="328" y="299.1018">END_DATE</text><ellipse cx="319" cy="314.2377" fill="none" rx="3" ry="3" style="stroke:#038048;stroke-width:1.0;"/><text fill="#000000" font-family="sans-serif" font-size="14" lengthAdjust="spacing" textLength="111" x="328" y="318.1697">CREATION_DATE</text><ellipse cx="319" cy="333.3056" fill="none" rx="3" ry="3" style="stroke:#038048;stroke-width:1.0;"/><text fill="#000000" font-family="sans-serif" font-size="14" lengthAdjust="spacing" textLength="94" x="328" y="337.2376">UPDATE_DATE</text><ellipse cx="319" cy="352.3735" fill="none" rx="3" ry="3" style="stroke:#038048;stroke-width:1.0;"/><text fill="#000000" font-family="sans-serif" font-size="14" lengthAdjust="spacing" textLength="69" x="328" y="356.3055">VESSEL_FK</text><ellipse cx="319" cy="371.4415" fill="none" rx="3" ry="3" style="stroke:#038048;stroke-width:1.0;"/><text fill="#000000" font-family="sans-serif" font-size="14" lengthAdjust="spacing" textLength="91" x="328" y="375.3734">PROGRAM_FK</text><ellipse cx="319" cy="390.5094" fill="none" rx="3" ry="3" style="stroke:#038048;stroke-width:1.0;"/><text fill="#000000" font-family="sans-serif" font-size="14" lengthAdjust="spacing" textLength="58" x="328" y="394.4414">GEAR_FK</text><ellipse cx="319" cy="409.5773" fill="none" rx="3" ry="3" style="stroke:#038048;stroke-width:1.0;"/><text fill="#000000" font-family="sans-serif" font-size="14" lengthAdjust="spacing" textLength="160" x="328" y="413.5093">ACTIVITY_CALENDAR_FK</text><ellipse cx="319" cy="428.6452" fill="none" rx="3" ry="3" style="stroke:#038048;stroke-width:1.0;"/><text fill="#000000" font-family="sans-serif" font-size="14" lengthAdjust="spacing" textLength="73" x="328" y="432.5772">METIER_FK</text><line style="stroke:#181818;stroke-width:0.5;" x1="309" x2="518" y1="440.6792" y2="440.6792"/></g><!--MD5=[b6f030f60ebbda96ac801d0e40dd7f70]
class GEAR_PHYSICAL_MEASUREMENT--><g id="elem_GEAR_PHYSICAL_MEASUREMENT"><rect codeLine="78" fill="#F1F1F1" height="124.2717" id="GEAR_PHYSICAL_MEASUREMENT" rx="2.5" ry="2.5" style="stroke:#181818;stroke-width:0.5;" width="249" x="7" y="267.5"/><ellipse cx="22" cy="283.5" fill="#ADD1B2" rx="11" ry="11" style="stroke:#181818;stroke-width:1.0;"/><path d="M21.4688,290.4219 Q19.7188,290.4219 18.5781,289.6875 Q17.4531,288.9375 16.8906,287.5938 Q16.3438,286.2344 16.3438,284.4375 Q16.3438,282.4063 17,280.9531 Q17.6563,279.5 18.9375,278.7188 Q20.2188,277.9375 22.0938,277.9375 Q22.9844,277.9375 23.6563,278.125 Q24.3281,278.2969 25.0156,278.6406 L24.2031,280.6563 Q23.5781,280.3438 23.0313,280.2188 Q22.5,280.0938 22.0156,280.0938 Q20.8438,280.0938 20.1406,280.625 Q19.4375,281.1563 19.1406,282.1094 Q18.8438,283.0625 18.8438,284.3281 Q18.8438,286.3438 19.5625,287.3125 Q20.2813,288.2656 21.875,288.2656 Q22.4688,288.2656 23.0938,288.1094 Q23.7188,287.9531 24.5469,287.5781 L24.5469,289.7969 Q23.8125,290.1094 23.0156,290.2656 Q22.2344,290.4219 21.4688,290.4219 Z " fill="#000000"/><text fill="#000000" font-family="sans-serif" font-size="14" lengthAdjust="spacing" textLength="217" x="36" y="288.932">GEAR_PHYSICAL_MEASUREMENT</text><line style="stroke:#181818;stroke-width:0.5;" x1="8" x2="255" y1="299.5" y2="299.5"/><ellipse cx="18" cy="314.534" fill="none" rx="3" ry="3" style="stroke:#038048;stroke-width:1.0;"/><text fill="#000000" font-family="sans-serif" font-size="14" lengthAdjust="spacing" textLength="15" x="27" y="318.4659">ID</text><ellipse cx="18" cy="333.6019" fill="none" rx="3" ry="3" style="stroke:#038048;stroke-width:1.0;"/><text fill="#000000" font-family="sans-serif" font-size="14" lengthAdjust="spacing" textLength="129" x="27" y="337.5339">NUMERICAL_VALUE</text><ellipse cx="18" cy="352.6698" fill="none" rx="3" ry="3" style="stroke:#038048;stroke-width:1.0;"/><text fill="#000000" font-family="sans-serif" font-size="14" lengthAdjust="spacing" textLength="63" x="27" y="356.6018">PMFM_FK</text><ellipse cx="18" cy="371.7377" fill="none" rx="3" ry="3" style="stroke:#038048;stroke-width:1.0;"/><text fill="#000000" font-family="sans-serif" font-size="14" lengthAdjust="spacing" textLength="201" x="27" y="375.6697">GEAR_PHYSICAL_FEATURES_FK</text><line style="stroke:#181818;stroke-width:0.5;" x1="8" x2="255" y1="383.7717" y2="383.7717"/></g><!--MD5=[8ca69a5bc86009b6a97318ea3a5b0938]
link SURVEY_MEASUREMENT to ACTIVITY_CALENDAR--><g id="link_SURVEY_MEASUREMENT_ACTIVITY_CALENDAR"><path codeLine="86" d="M693.5,131.26 C693.5,151.07 693.5,173.86 693.5,196.76 " fill="none" id="SURVEY_MEASUREMENT-to-ACTIVITY_CALENDAR" style="stroke:#181818;stroke-width:1.0;"/><polygon fill="#181818" points="693.5,209.85,697.5,203.85,693.5,197.85,689.5,203.85,693.5,209.85" style="stroke:#181818;stroke-width:1.0;"/><text fill="#000000" font-family="sans-serif" font-size="13" lengthAdjust="spacing" textLength="15" x="694.5" y="175.897">     </text><text fill="#000000" font-family="sans-serif" font-size="13" lengthAdjust="spacing" textLength="26" x="665.9969" y="153.3637">4?..6</text><text fill="#000000" font-family="sans-serif" font-size="13" lengthAdjust="spacing" textLength="7" x="686.2648" y="198.1714">1</text></g><!--MD5=[f88addb45b612041a48efceb7f58f2b2]
reverse link ACTIVITY_CALENDAR to GEAR_USE_FEATURES--><g id="link_ACTIVITY_CALENDAR_GEAR_USE_FEATURES"><path codeLine="87" d="M829.45,329.5 C842.31,329.5 855.13,329.5 867.45,329.5 " fill="none" id="ACTIVITY_CALENDAR-backto-GEAR_USE_FEATURES" style="stroke:#181818;stroke-width:1.0;"/><polygon fill="#181818" points="816.06,329.5,822.06,333.5,828.06,329.5,822.06,325.5,816.06,329.5" style="stroke:#181818;stroke-width:1.0;"/><text fill="#000000" font-family="sans-serif" font-size="13" lengthAdjust="spacing" textLength="15" x="834.25" y="322.397">     </text><text fill="#000000" font-family="sans-serif" font-size="13" lengthAdjust="spacing" textLength="7" x="824.1357" y="325.8854">1</text><text fill="#000000" font-family="sans-serif" font-size="13" lengthAdjust="spacing" textLength="20" x="839.5602" y="344.0871">0..*</text></g><!--MD5=[96d531c1ea011c6f5eb6cbd0c71474fa]
reverse link ACTIVITY_CALENDAR to VESSEL_USE_FEATURES--><g id="link_ACTIVITY_CALENDAR_VESSEL_USE_FEATURES"><path codeLine="88" d="M693.5,462.15 C693.5,483.92 693.5,506.37 693.5,527.8 " fill="none" id="ACTIVITY_CALENDAR-backto-VESSEL_USE_FEATURES" style="stroke:#181818;stroke-width:1.0;"/><polygon fill="#181818" points="693.5,449.07,689.5,455.07,693.5,461.07,697.5,455.07,693.5,449.07" style="stroke:#181818;stroke-width:1.0;"/><text fill="#000000" font-family="sans-serif" font-size="13" lengthAdjust="spacing" textLength="15" x="694.5" y="493.897">     </text><text fill="#000000" font-family="sans-serif" font-size="13" lengthAdjust="spacing" textLength="7" x="686.2977" y="470.4007">1</text><text fill="#000000" font-family="sans-serif" font-size="13" lengthAdjust="spacing" textLength="27" x="665.593" y="516.1181">0..12</text></g><!--MD5=[98f9ffdc4dd1e54b3793346953ef1a18]
link GEAR_PHYSICAL_FEATURES to ACTIVITY_CALENDAR--><g id="link_GEAR_PHYSICAL_FEATURES_ACTIVITY_CALENDAR"><path codeLine="89" d="M519.36,329.5 C531.77,329.5 544.56,329.5 557.32,329.5 " fill="none" id="GEAR_PHYSICAL_FEATURES-to-ACTIVITY_CALENDAR" style="stroke:#181818;stroke-width:1.0;"/><polygon fill="#181818" points="570.57,329.5,564.57,325.5,558.57,329.5,564.57,333.5,570.57,329.5" style="stroke:#181818;stroke-width:1.0;"/><text fill="#000000" font-family="sans-serif" font-size="13" lengthAdjust="spacing" textLength="15" x="537.5" y="322.397">     </text><text fill="#000000" font-family="sans-serif" font-size="13" lengthAdjust="spacing" textLength="20" x="527.1443" y="344.0026">0..*</text><text fill="#000000" font-family="sans-serif" font-size="13" lengthAdjust="spacing" textLength="7" x="555.8657" y="325.9103">1</text></g><!--MD5=[e69fe4a320499038d5b1e9fa664ab3d0]
reverse link VESSEL_USE_FEATURES to VESSEL_USE_MEASUREMENT--><g id="link_VESSEL_USE_FEATURES_VESSEL_USE_MEASUREMENT"><path codeLine="90" d="M807.19,647.5 C819.89,647.5 832.81,647.5 845.48,647.5 " fill="none" id="VESSEL_USE_FEATURES-backto-VESSEL_USE_MEASUREMENT" style="stroke:#181818;stroke-width:1.0;"/><polygon fill="#181818" points="794.05,647.5,800.05,651.5,806.05,647.5,800.05,643.5,794.05,647.5" style="stroke:#181818;stroke-width:1.0;"/><text fill="#000000" font-family="sans-serif" font-size="13" lengthAdjust="spacing" textLength="15" x="812.25" y="640.397">     </text><text fill="#000000" font-family="sans-serif" font-size="13" lengthAdjust="spacing" textLength="7" x="802.0163" y="643.7855">1</text><text fill="#000000" font-family="sans-serif" font-size="13" lengthAdjust="spacing" textLength="20" x="817.349" y="661.9827">0..3</text></g><!--MD5=[5de02619c36b6f50c5d34af688ab30db]
link GEAR_USE_FEATURES to FISHING_AREA--><g id="link_GEAR_USE_FEATURES_FISHING_AREA"><path codeLine="91" d="M1065.79,329.5 C1065.79,329.5 1093.3,329.5 1093.3,329.5 " fill="none" id="GEAR_USE_FEATURES-FISHING_AREA" style="stroke:#181818;stroke-width:1.0;"/><polygon fill="#181818" points="1105.3,329.5,1099.3,325.5,1093.3,329.5,1099.3,333.5,1105.3,329.5" style="stroke:#181818;stroke-width:1.0;"/><polygon fill="#181818" points="1053.79,329.5,1059.79,333.5,1065.79,329.5,1059.79,325.5,1053.79,329.5" style="stroke:#181818;stroke-width:1.0;"/><text fill="#000000" font-family="sans-serif" font-size="13" lengthAdjust="spacing" textLength="15" x="1072" y="322.397">     </text><text fill="#000000" font-family="sans-serif" font-size="13" lengthAdjust="spacing" textLength="7" x="1061.503" y="325.7606">1</text><text fill="#000000" font-family="sans-serif" font-size="13" lengthAdjust="spacing" textLength="20" x="1077.4141" y="343.87">1..2</text></g><!--MD5=[b1f3c5fb63264bfc3c40fcfeb2690ad0]
link GEAR_PHYSICAL_MEASUREMENT to GEAR_PHYSICAL_FEATURES--><g id="link_GEAR_PHYSICAL_MEASUREMENT_GEAR_PHYSICAL_FEATURES"><path codeLine="92" d="M268.01,329.5 C268.01,329.5 295.75,329.5 295.75,329.5 " fill="none" id="GEAR_PHYSICAL_MEASUREMENT-GEAR_PHYSICAL_FEATURES" style="stroke:#181818;stroke-width:1.0;"/><polygon fill="#181818" points="307.75,329.5,301.75,325.5,295.75,329.5,301.75,333.5,307.75,329.5" style="stroke:#181818;stroke-width:1.0;"/><polygon fill="#181818" points="256.01,329.5,262.01,333.5,268.01,329.5,262.01,325.5,256.01,329.5" style="stroke:#181818;stroke-width:1.0;"/><text fill="#000000" font-family="sans-serif" font-size="13" lengthAdjust="spacing" textLength="15" x="274.5" y="322.397">     </text><text fill="#000000" font-family="sans-serif" font-size="13" lengthAdjust="spacing" textLength="20" x="264.2067" y="343.9282">0..*</text><text fill="#000000" font-family="sans-serif" font-size="13" lengthAdjust="spacing" textLength="7" x="293.0684" y="325.8355">1</text></g></g></svg>