<?xml version="1.0" encoding="us-ascii" standalone="no"?><svg xmlns="http://www.w3.org/2000/svg" xmlns:xlink="http://www.w3.org/1999/xlink" contentStyleType="text/css" height="427px" preserveAspectRatio="none" style="width:585px;height:427px;background:#FFFFFF;" version="1.1" viewBox="0 0 585 427" width="585px" zoomAndPan="magnify"><defs><filter height="1" id="b1g4fpnyf75gh50" width="1" x="0" y="0"><feFlood flood-color="#DDDDDD" result="flood"/><feComposite in="SourceGraphic" in2="flood" operator="over"/></filter></defs><g><text fill="#808080" font-family="sans-serif" font-size="20" font-weight="bold" lengthAdjust="spacing" textLength="188" x="8" y="28.7617">Calendrier d'activit&#233;</text><text fill="#000000" font-family="sans-serif" font-size="12" lengthAdjust="spacing" textLength="67" x="8" y="47.6133">Observateur</text><line style="stroke:#AAAAAA;stroke-width:1.0;" x1="8" x2="197" y1="89.9375" y2="89.9375"/><text fill="#000000" font-family="sans-serif" font-size="12" lengthAdjust="spacing" textLength="39" x="8" y="106.8945">Accueil</text><text fill="#808080" font-family="sans-serif" font-size="10" lengthAdjust="spacing" textLength="87" x="8" y="139.0059">Saisie de donn&#233;es</text><line style="stroke:#AAAAAA;stroke-width:1.0;" x1="8" x2="197" y1="146.7031" y2="146.7031"/><text fill="#000000" filter="url(#b1g4fpnyf75gh50)" font-family="sans-serif" font-size="12" lengthAdjust="spacing" textLength="114" x="8" y="163.6602">Calendriers d'activit&#233;</text><text fill="#808080" font-family="sans-serif" font-size="10" lengthAdjust="spacing" textLength="56" x="8" y="332.5215">R&#233;f&#233;rentiels</text><line style="stroke:#AAAAAA;stroke-width:1.0;" x1="8" x2="197" y1="340.2188" y2="340.2188"/><line style="stroke:#AAAAAA;stroke-width:1.0;" x1="8" x2="197" y1="365.3125" y2="365.3125"/><text fill="#000000" font-family="sans-serif" font-size="12" lengthAdjust="spacing" textLength="86" x="8" y="382.2695">Se d&#233;connecter</text><line style="stroke:#AAAAAA;stroke-width:1.0;" x1="8" x2="197" y1="390.4063" y2="390.4063"/><text fill="#808080" font-family="sans-serif" font-size="10" lengthAdjust="spacing" textLength="80" x="8" y="407.2871">V XXX - &#224; propos</text><line style="stroke:#000000;stroke-width:1.0;" x1="6" x2="203" y1="6" y2="6"/><line style="stroke:#000000;stroke-width:1.0;" x1="6" x2="203" y1="411.4844" y2="411.4844"/><line style="stroke:#000000;stroke-width:1.0;" x1="6" x2="6" y1="6" y2="394.9063"/><line style="stroke:#000000;stroke-width:1.0;" x1="203" x2="203" y1="394.9063" y2="411.4844"/><line style="stroke:#000000;stroke-width:1.0;" x1="203" x2="203" y1="6" y2="394.9063"/><line style="stroke:#000000;stroke-width:1.0;" x1="6" x2="6" y1="394.9063" y2="411.4844"/><text fill="#000000" font-family="sans-serif" font-size="12" font-weight="bold" lengthAdjust="spacing" textLength="120" x="212" y="20.457">Calendriers d'activit&#233;</text><rect fill="#EEEEEE" height="19.0938" rx="5" ry="5" style="stroke:#000000;stroke-width:2.5;" width="12" x="561.5" y="10.5"/><text fill="#000000" font-family="sans-serif" font-size="12" font-weight="bold" lengthAdjust="spacing" textLength="7" x="564" y="24.957">+</text><line style="stroke:#AAAAAA;stroke-width:1.0;" x1="211" x2="578" y1="38.5938" y2="38.5938"/><text fill="#000000" font-family="sans-serif" font-size="12" font-weight="bold" lengthAdjust="spacing" textLength="102" x="347" y="227.4883">Fen&#234;tre principale</text><line style="stroke:#000000;stroke-width:1.0;" x1="210" x2="578" y1="6" y2="6"/><line style="stroke:#000000;stroke-width:1.0;" x1="210" x2="578" y1="420.1563" y2="420.1563"/><line style="stroke:#000000;stroke-width:1.0;" x1="210" x2="210" y1="6" y2="34.0938"/><line style="stroke:#000000;stroke-width:1.0;" x1="578" x2="578" y1="6" y2="34.0938"/><line style="stroke:#000000;stroke-width:1.0;" x1="210" x2="210" y1="266.3125" y2="283.4063"/><line style="stroke:#000000;stroke-width:1.0;" x1="578" x2="578" y1="266.3125" y2="283.4063"/><line style="stroke:#000000;stroke-width:1.0;" x1="210" x2="210" y1="195.9375" y2="213.0313"/><line style="stroke:#000000;stroke-width:1.0;" x1="578" x2="578" y1="195.9375" y2="213.0313"/><line style="stroke:#000000;stroke-width:1.0;" x1="210" x2="210" y1="127.5625" y2="144.6563"/><line style="stroke:#000000;stroke-width:1.0;" x1="578" x2="578" y1="127.5625" y2="144.6563"/><line style="stroke:#000000;stroke-width:1.0;" x1="210" x2="210" y1="385.9688" y2="403.0625"/><line style="stroke:#000000;stroke-width:1.0;" x1="578" x2="578" y1="385.9688" y2="403.0625"/><line style="stroke:#000000;stroke-width:1.0;" x1="210" x2="210" y1="59.1875" y2="76.2813"/><line style="stroke:#000000;stroke-width:1.0;" x1="578" x2="578" y1="59.1875" y2="76.2813"/><line style="stroke:#000000;stroke-width:1.0;" x1="210" x2="210" y1="317.5938" y2="334.6875"/><line style="stroke:#000000;stroke-width:1.0;" x1="578" x2="578" y1="317.5938" y2="334.6875"/><line style="stroke:#000000;stroke-width:1.0;" x1="210" x2="210" y1="249.2188" y2="266.3125"/><line style="stroke:#000000;stroke-width:1.0;" x1="578" x2="578" y1="249.2188" y2="266.3125"/><line style="stroke:#000000;stroke-width:1.0;" x1="210" x2="210" y1="178.8438" y2="195.9375"/><line style="stroke:#000000;stroke-width:1.0;" x1="578" x2="578" y1="178.8438" y2="195.9375"/><line style="stroke:#000000;stroke-width:1.0;" x1="210" x2="210" y1="110.4688" y2="127.5625"/><line style="stroke:#000000;stroke-width:1.0;" x1="578" x2="578" y1="110.4688" y2="127.5625"/><line style="stroke:#000000;stroke-width:1.0;" x1="210" x2="210" y1="368.875" y2="385.9688"/><line style="stroke:#000000;stroke-width:1.0;" x1="578" x2="578" y1="368.875" y2="385.9688"/><line style="stroke:#000000;stroke-width:1.0;" x1="210" x2="210" y1="42.0938" y2="59.1875"/><line style="stroke:#000000;stroke-width:1.0;" x1="578" x2="578" y1="42.0938" y2="59.1875"/><line style="stroke:#000000;stroke-width:1.0;" x1="210" x2="210" y1="300.5" y2="317.5938"/><line style="stroke:#000000;stroke-width:1.0;" x1="578" x2="578" y1="300.5" y2="317.5938"/><line style="stroke:#000000;stroke-width:1.0;" x1="210" x2="210" y1="232.125" y2="249.2188"/><line style="stroke:#000000;stroke-width:1.0;" x1="578" x2="578" y1="232.125" y2="249.2188"/><line style="stroke:#000000;stroke-width:1.0;" x1="210" x2="210" y1="161.75" y2="178.8438"/><line style="stroke:#000000;stroke-width:1.0;" x1="578" x2="578" y1="161.75" y2="178.8438"/><line style="stroke:#000000;stroke-width:1.0;" x1="210" x2="210" y1="93.375" y2="110.4688"/><line style="stroke:#000000;stroke-width:1.0;" x1="578" x2="578" y1="93.375" y2="110.4688"/><line style="stroke:#000000;stroke-width:1.0;" x1="210" x2="210" y1="351.7813" y2="368.875"/><line style="stroke:#000000;stroke-width:1.0;" x1="578" x2="578" y1="351.7813" y2="368.875"/><line style="stroke:#000000;stroke-width:1.0;" x1="210" x2="210" y1="34.0938" y2="42.0938"/><line style="stroke:#000000;stroke-width:1.0;" x1="578" x2="578" y1="34.0938" y2="42.0938"/><line style="stroke:#000000;stroke-width:1.0;" x1="210" x2="210" y1="283.4063" y2="300.5"/><line style="stroke:#000000;stroke-width:1.0;" x1="578" x2="578" y1="283.4063" y2="300.5"/><line style="stroke:#000000;stroke-width:1.0;" x1="210" x2="210" y1="213.0313" y2="232.125"/><line style="stroke:#000000;stroke-width:1.0;" x1="578" x2="578" y1="213.0313" y2="232.125"/><line style="stroke:#000000;stroke-width:1.0;" x1="210" x2="210" y1="144.6563" y2="161.75"/><line style="stroke:#000000;stroke-width:1.0;" x1="578" x2="578" y1="144.6563" y2="161.75"/><line style="stroke:#000000;stroke-width:1.0;" x1="210" x2="210" y1="403.0625" y2="420.1563"/><line style="stroke:#000000;stroke-width:1.0;" x1="578" x2="578" y1="403.0625" y2="420.1563"/><line style="stroke:#000000;stroke-width:1.0;" x1="210" x2="210" y1="76.2813" y2="93.375"/><line style="stroke:#000000;stroke-width:1.0;" x1="578" x2="578" y1="76.2813" y2="93.375"/><line style="stroke:#000000;stroke-width:1.0;" x1="210" x2="210" y1="334.6875" y2="351.7813"/><line style="stroke:#000000;stroke-width:1.0;" x1="578" x2="578" y1="334.6875" y2="351.7813"/></g></svg>