<?xml version="1.0" encoding="us-ascii" standalone="no"?><svg xmlns="http://www.w3.org/2000/svg" xmlns:xlink="http://www.w3.org/1999/xlink" contentStyleType="text/css" height="661px" preserveAspectRatio="none" style="width:702px;height:661px;background:#FFFFFF;" version="1.1" viewBox="0 0 702 661" width="702px" zoomAndPan="magnify"><defs/><g><text fill="#000000" font-family="sans-serif" font-size="12" lengthAdjust="spacing" textLength="41" x="6" y="18.9492">Navire :</text><text fill="#000000" font-family="sans-serif" font-size="12" font-weight="bold" lengthAdjust="spacing" textLength="263" x="50" y="18.9492">LIEU IMMAT - 123456 - VESSEL1 - Activit&#233; 2022</text><line style="stroke:#AAAAAA;stroke-width:1.0;" x1="6" x2="483" y1="27.4609" y2="27.4609"/><text fill="#000000" font-family="sans-serif" font-size="12" font-weight="bold" lengthAdjust="spacing" textLength="44" x="8" y="44.9102">G&#233;n&#233;ral</text><line style="stroke:#000000;stroke-width:1.0;" x1="6" x2="6" y1="31.9609" y2="47.9219"/><line style="stroke:#000000;stroke-width:1.0;" x1="6" x2="55" y1="31.9609" y2="31.9609"/><line style="stroke:#000000;stroke-width:1.0;" x1="55" x2="55" y1="31.9609" y2="47.9219"/><line style="stroke:#000000;stroke-width:1.0;" x1="55" x2="65" y1="47.9219" y2="47.9219"/><text fill="#000000" font-family="sans-serif" font-size="12" lengthAdjust="spacing" textLength="35" x="67" y="44.9102">Navire</text><line style="stroke:#000000;stroke-width:1.0;" x1="65" x2="65" y1="31.9609" y2="47.9219"/><line style="stroke:#000000;stroke-width:1.0;" x1="65" x2="105" y1="31.9609" y2="31.9609"/><line style="stroke:#000000;stroke-width:1.0;" x1="105" x2="105" y1="31.9609" y2="47.9219"/><line style="stroke:#000000;stroke-width:1.0;" x1="105" x2="115" y1="47.9219" y2="47.9219"/><text fill="#000000" font-family="sans-serif" font-size="12" lengthAdjust="spacing" textLength="58" x="117" y="44.9102">Calendrier</text><line style="stroke:#000000;stroke-width:1.0;" x1="115" x2="115" y1="31.9609" y2="47.9219"/><line style="stroke:#000000;stroke-width:1.0;" x1="115" x2="178" y1="31.9609" y2="31.9609"/><line style="stroke:#000000;stroke-width:1.0;" x1="178" x2="178" y1="31.9609" y2="47.9219"/><line style="stroke:#000000;stroke-width:1.0;" x1="178" x2="188" y1="47.9219" y2="47.9219"/><text fill="#000000" font-family="sans-serif" font-size="12" lengthAdjust="spacing" textLength="40" x="190" y="44.9102">M&#233;tiers</text><line style="stroke:#000000;stroke-width:1.0;" x1="188" x2="188" y1="31.9609" y2="47.9219"/><line style="stroke:#000000;stroke-width:1.0;" x1="188" x2="233" y1="31.9609" y2="31.9609"/><line style="stroke:#000000;stroke-width:1.0;" x1="233" x2="233" y1="31.9609" y2="47.9219"/><line style="stroke:#000000;stroke-width:1.0;" x1="233" x2="243" y1="47.9219" y2="47.9219"/><text fill="#000000" font-family="sans-serif" font-size="12" lengthAdjust="spacing" textLength="30" x="245" y="44.9102">Carte</text><line style="stroke:#000000;stroke-width:1.0;" x1="243" x2="243" y1="31.9609" y2="47.9219"/><line style="stroke:#000000;stroke-width:1.0;" x1="243" x2="278" y1="31.9609" y2="31.9609"/><line style="stroke:#000000;stroke-width:1.0;" x1="278" x2="278" y1="31.9609" y2="47.9219"/><line style="stroke:#000000;stroke-width:1.0;" x1="278" x2="288" y1="47.9219" y2="47.9219"/><line style="stroke:#AAAAAA;stroke-width:1.0;stroke-dasharray:1.0,2.0;" x1="6" x2="483" y1="53.4219" y2="53.4219"/><text fill="#808080" font-family="sans-serif" font-size="12" lengthAdjust="spacing" textLength="153" x="8" y="90.832">Objectif d'enqu&#234;te directe ?*</text><text fill="#808080" font-family="sans-serif" font-size="12" font-weight="bold" lengthAdjust="spacing" textLength="19" x="184" y="91.832">Oui</text><ellipse cx="171" cy="86.8633" fill="none" rx="5" ry="5" style="stroke:#000000;stroke-width:1.5;"/><ellipse cx="171" cy="86.8633" fill="#000000" rx="2" ry="2" style="stroke:#000000;stroke-width:1.5;"/><text fill="#808080" font-family="sans-serif" font-size="12" lengthAdjust="spacing" textLength="23" x="225" y="91.832">Non</text><ellipse cx="212" cy="86.8633" fill="none" rx="5" ry="5" style="stroke:#000000;stroke-width:1.5;"/><text fill="#000000" font-family="sans-serif" font-size="12" lengthAdjust="spacing" textLength="84" x="8" y="110.793">Enqu&#234;te &#233;co ?*</text><text fill="#000000" font-family="sans-serif" font-size="12" font-weight="bold" lengthAdjust="spacing" textLength="19" x="184" y="111.793">Oui</text><ellipse cx="171" cy="106.8242" fill="none" rx="5" ry="5" style="stroke:#000000;stroke-width:1.5;"/><ellipse cx="171" cy="106.8242" fill="#000000" rx="2" ry="2" style="stroke:#000000;stroke-width:1.5;"/><text fill="#000000" font-family="sans-serif" font-size="12" lengthAdjust="spacing" textLength="23" x="225" y="111.793">Non</text><ellipse cx="212" cy="106.8242" fill="none" rx="5" ry="5" style="stroke:#000000;stroke-width:1.5;"/><text fill="#000000" font-family="sans-serif" font-size="12" font-weight="bold" lengthAdjust="spacing" textLength="86" x="6" y="150.7148">Observateur(s)</text><rect fill="#EEEEEE" height="18.9609" style="stroke:#000000;stroke-width:1.0;" width="119" x="12" y="156.7266"/><text fill="#000000" font-family="sans-serif" font-size="12" lengthAdjust="spacing" textLength="74" x="14" y="171.6758">Observateur1</text><line style="stroke:#000000;stroke-width:1.0;" x1="120" x2="120" y1="156.7266" y2="175.6875"/><polygon fill="#000000" points="123,162.7266,129,162.7266,126,170.6875" style="stroke:#000000;stroke-width:1.0;"/><path d="M168,161.6875 L168,164.6875 L165,164.6875 L165,166.6875 L168,166.6875 L168,169.6875 L170,169.6875 L170,166.6875 L173,166.6875 L173,164.6875 L170,164.6875 L170,161.6875 L168,161.6875 " fill="#000000" style="stroke:;stroke-width:0.0;stroke-dasharray:;"/><text fill="#000000" font-family="sans-serif" font-size="12" lengthAdjust="spacing" textLength="3" x="174" y="169.6758">&#160;</text><path d="M179.41,161.6875 L178,163.0975 L178.72,163.8175 L180.5,165.6275 L178.72,167.4075 L178,168.0975 L179.41,169.5375 L180.13,168.8175 L181.94,167.0075 L183.72,168.8175 L184.41,169.5375 L185.85,168.0975 L185.13,167.4075 L183.32,165.6275 L185.13,163.8175 L185.85,163.0975 L184.41,161.6875 L183.72,162.4075 L181.94,164.1875 L180.13,162.4075 L179.41,161.6875 " fill="#000000" style="stroke:;stroke-width:0.0;stroke-dasharray:;"/><text fill="#000000" font-family="sans-serif" font-size="12" font-weight="bold" lengthAdjust="spacing" textLength="167" x="7" y="211.5977">Caract&#233;ristiques de l'enqu&#234;te</text><text fill="#000000" font-family="sans-serif" font-size="12" lengthAdjust="spacing" textLength="149" x="13" y="230.5586">Qualification de l'enqu&#234;te* :</text><rect fill="#EEEEEE" height="18.9609" style="stroke:#000000;stroke-width:1.0;" width="87" x="385" y="217.6094"/><text fill="#000000" font-family="sans-serif" font-size="12" lengthAdjust="spacing" textLength="39" x="387" y="232.5586">Directe</text><line style="stroke:#000000;stroke-width:1.0;" x1="461" x2="461" y1="217.6094" y2="236.5703"/><polygon fill="#000000" points="464,223.6094,470,223.6094,467,231.5703" style="stroke:#000000;stroke-width:1.0;"/><text fill="#000000" font-family="sans-serif" font-size="12" lengthAdjust="spacing" textLength="124" x="13" y="252.5195">Fiabilit&#233; de l'enqu&#234;te* :</text><rect fill="#EEEEEE" height="18.9609" style="stroke:#000000;stroke-width:1.0;" width="87" x="385" y="239.5703"/><text fill="#000000" font-family="sans-serif" font-size="12" lengthAdjust="spacing" textLength="34" x="387" y="254.5195">Fiable</text><line style="stroke:#000000;stroke-width:1.0;" x1="461" x2="461" y1="239.5703" y2="258.5313"/><polygon fill="#000000" points="464,245.5703,470,245.5703,467,253.5313" style="stroke:#000000;stroke-width:1.0;"/><text fill="#000000" font-family="sans-serif" font-size="12" lengthAdjust="spacing" textLength="256" x="13" y="274.4805">Inactivit&#233; annuelle confirm&#233;e par l'observateur :</text><text fill="#000000" font-family="sans-serif" font-size="12" lengthAdjust="spacing" textLength="19" x="406" y="275.4805">Oui</text><ellipse cx="393" cy="270.5117" fill="none" rx="5" ry="5" style="stroke:#000000;stroke-width:1.5;"/><text fill="#000000" font-family="sans-serif" font-size="12" font-weight="bold" lengthAdjust="spacing" textLength="22" x="447" y="275.4805">Non</text><ellipse cx="434" cy="270.5117" fill="none" rx="5" ry="5" style="stroke:#000000;stroke-width:1.5;"/><ellipse cx="434" cy="270.5117" fill="#000000" rx="2" ry="2" style="stroke:#000000;stroke-width:1.5;"/><text fill="#000000" font-family="sans-serif" font-size="12" lengthAdjust="spacing" textLength="370" x="13" y="294.4414">Le professionnel accepterait-il de r&#233;pondre &#224; une autre enqu&#234;te ?* :</text><text fill="#000000" font-family="sans-serif" font-size="12" lengthAdjust="spacing" textLength="19" x="406" y="295.4414">Oui</text><ellipse cx="393" cy="290.4727" fill="none" rx="5" ry="5" style="stroke:#000000;stroke-width:1.5;"/><text fill="#000000" font-family="sans-serif" font-size="12" font-weight="bold" lengthAdjust="spacing" textLength="22" x="447" y="295.4414">Non</text><ellipse cx="434" cy="290.4727" fill="none" rx="5" ry="5" style="stroke:#000000;stroke-width:1.5;"/><ellipse cx="434" cy="290.4727" fill="#000000" rx="2" ry="2" style="stroke:#000000;stroke-width:1.5;"/><text fill="#000000" font-family="sans-serif" font-size="12" lengthAdjust="spacing" textLength="340" x="13" y="314.4023">M&#233;tiers d&#233;clar&#233;s dans les journeaux de bord/fiches de p&#234;che :</text><rect fill="#EEEEEE" height="18.9609" style="stroke:#000000;stroke-width:1.0;" width="87" x="385" y="301.4531"/><text fill="#000000" font-family="sans-serif" font-size="12" lengthAdjust="spacing" textLength="3" x="387" y="316.4023">&#160;</text><line style="stroke:#000000;stroke-width:1.0;" x1="461" x2="461" y1="301.4531" y2="320.4141"/><polygon fill="#000000" points="464,307.4531,470,307.4531,467,315.4141" style="stroke:#000000;stroke-width:1.0;"/><text fill="#000000" font-family="sans-serif" font-size="12" lengthAdjust="spacing" textLength="165" x="13" y="336.3633">Habitudes de vente &#224; la cri&#233;e :</text><rect fill="#EEEEEE" height="18.9609" style="stroke:#000000;stroke-width:1.0;" width="87" x="385" y="323.4141"/><text fill="#000000" font-family="sans-serif" font-size="12" lengthAdjust="spacing" textLength="3" x="387" y="338.3633">&#160;</text><line style="stroke:#000000;stroke-width:1.0;" x1="461" x2="461" y1="323.4141" y2="342.375"/><polygon fill="#000000" points="464,329.4141,470,329.4141,467,337.375" style="stroke:#000000;stroke-width:1.0;"/><text fill="#808080" font-family="sans-serif" font-size="10" lengthAdjust="spacing" textLength="43" x="492" y="211.4395">Strat&#233;gie</text><text fill="#000000" font-family="sans-serif" font-size="12" lengthAdjust="spacing" textLength="198" x="492" y="228.8984">ACTIFLOT d&#233;marrage le 01/01/2019</text><line style="stroke:#000000;stroke-width:1.0;" x1="490" x2="692" y1="198.6484" y2="198.6484"/><line style="stroke:#000000;stroke-width:1.0;" x1="490" x2="692" y1="233.9102" y2="233.9102"/><line style="stroke:#000000;stroke-width:1.0;" x1="490" x2="490" y1="198.6484" y2="233.9102"/><line style="stroke:#000000;stroke-width:1.0;" x1="692" x2="692" y1="198.6484" y2="233.9102"/><text fill="#808080" font-family="sans-serif" font-size="10" lengthAdjust="spacing" textLength="66" x="492" y="248.7012">Observateur(s)</text><text fill="#000000" font-family="sans-serif" font-size="12" lengthAdjust="spacing" textLength="30" x="492" y="266.1602">Obs1</text><text fill="#808080" font-family="sans-serif" font-size="10" lengthAdjust="spacing" textLength="48" x="492" y="281.9629">Groupe EI</text><line style="stroke:#AAAAAA;stroke-width:1.0;" x1="492" x2="694" y1="289.9727" y2="289.9727"/><path d="M493,298.6068 L493,300.2734 L498.8333,300.2734 L498.8333,298.6068 L493,298.6068 M493,301.1068 L493,305.1984 C493,305.2401 493.0333,305.2734 493.075,305.2734 L498.75,305.2734 C498.7917,305.2734 498.825,305.2401 498.825,305.1984 L498.825,301.1068 L492.9917,301.1068 M493.8333,301.9401 L494.6667,301.9401 L494.6667,302.7734 L493.8333,302.7734 L493.8333,301.9401 M495.5,301.9401 L496.3333,301.9401 L496.3333,302.7734 L495.5,302.7734 L495.5,301.9401 M497.1667,301.9401 L498,301.9401 L498,302.7734 L497.1667,302.7734 L497.1667,301.9401 M493.8333,303.6068 L494.6667,303.6068 L494.6667,304.4401 L493.8333,304.4401 L493.8333,303.6068 M495.5,303.6068 L496.3333,303.6068 L496.3333,304.4401 L495.5,304.4401 L495.5,303.6068 " fill="#808080" style="stroke:;stroke-width:0.0;stroke-dasharray:;"/><text fill="#808080" font-family="sans-serif" font-size="10" lengthAdjust="spacing" textLength="121" x="500.6667" y="305.2637">Cr&#233;&#233; le 20/03/2023 17:08</text><path d="M496.3333,313.9076 C494.5,313.9076 493,315.4076 493,317.2409 C493,319.0742 494.5,320.5742 496.3333,320.5742 C498.1667,320.5742 499.6667,319.0742 499.6667,317.2409 C499.6667,315.4076 498.1667,313.9076 496.3333,313.9076 M496.3333,314.7409 C497.7167,314.7409 498.8333,315.8576 498.8333,317.2409 C498.8333,318.6242 497.7167,319.7409 496.3333,319.7409 C494.95,319.7409 493.8333,318.6242 493.8333,317.2409 C493.8333,315.8576 494.95,314.7409 496.3333,314.7409 M495.9167,315.5742 L495.9167,317.4242 L496.05,317.5326 L496.4667,317.9492 L496.75,318.2659 L497.35,317.6659 L497.0333,317.3826 L496.75,317.0992 L496.75,315.5909 L495.9167,315.5909 " fill="#808080" style="stroke:;stroke-width:0.0;stroke-dasharray:;"/><text fill="#808080" font-family="sans-serif" font-size="10" lengthAdjust="spacing" textLength="160" x="500.6667" y="320.5645">Mis &#224; jour le 20/03/2023 17:08:31</text><text fill="#808080" font-family="sans-serif" font-size="10" lengthAdjust="spacing" textLength="56" x="492" y="353.8262">Mode saisie</text><text fill="#808080" font-family="sans-serif" font-size="10" font-weight="bold" lengthAdjust="spacing" textLength="34" x="551" y="353.8262">bureau</text><rect fill="#EEEEEE" height="19.9609" rx="5" ry="5" style="stroke:#000000;stroke-width:2.5;" width="196" x="494.5" y="378.7969"/><text fill="#000000" font-family="sans-serif" font-size="12" lengthAdjust="spacing" textLength="100" x="542.5" y="393.7461">Terminer la saisie</text><line style="stroke:#000000;stroke-width:1.0;" x1="490" x2="695" y1="235.9102" y2="235.9102"/><line style="stroke:#000000;stroke-width:1.0;" x1="490" x2="695" y1="403.2578" y2="403.2578"/><line style="stroke:#000000;stroke-width:1.0;" x1="490" x2="490" y1="235.9102" y2="403.2578"/><line style="stroke:#000000;stroke-width:1.0;" x1="695" x2="695" y1="235.9102" y2="403.2578"/><text fill="#000000" font-family="sans-serif" font-size="12" font-weight="bold" lengthAdjust="spacing" textLength="90" x="6" y="419.207">Commentaires :</text><text fill="#000000" font-family="sans-serif" font-size="12" lengthAdjust="spacing" textLength="182" x="7" y="438.168">19.01.2017 : Appel sans r&#233;ponse</text><text fill="#000000" font-family="sans-serif" font-size="12" lengthAdjust="spacing" textLength="219" x="7" y="456.1289">08/03/2019 : Conversation t&#233;l&#233;phonique</text><text fill="#000000" font-family="sans-serif" font-size="12" lengthAdjust="spacing" textLength="474" x="7" y="474.0898">2020 : Sort souvent avec Jean (BIBAS) --&gt; P&#234;chent &#233;galement sur ensemble sur BIBAS</text><text fill="#000000" font-family="sans-serif" font-size="12" lengthAdjust="spacing" textLength="146" x="7" y="492.0508">de temps en temps &#224; ERU</text><text fill="#000000" font-family="sans-serif" font-size="12" lengthAdjust="spacing" textLength="197" x="7" y="510.0117">12/02/2022 : H&#233;lice cass&#233;e fin 2022</text><line style="stroke:#000000;stroke-width:1.0;" x1="6" x2="482" y1="424.2188" y2="424.2188"/><line style="stroke:#000000;stroke-width:1.0;" x1="6" x2="482" y1="603.8281" y2="603.8281"/><line style="stroke:#000000;stroke-width:1.0;" x1="6" x2="6" y1="424.2188" y2="442.1797"/><line style="stroke:#000000;stroke-width:1.0;" x1="482" x2="482" y1="424.2188" y2="442.1797"/><line style="stroke:#000000;stroke-width:1.0;" x1="6" x2="6" y1="585.8672" y2="603.8281"/><line style="stroke:#000000;stroke-width:1.0;" x1="482" x2="482" y1="585.8672" y2="603.8281"/><line style="stroke:#000000;stroke-width:1.0;" x1="6" x2="6" y1="549.9453" y2="567.9063"/><line style="stroke:#000000;stroke-width:1.0;" x1="482" x2="482" y1="549.9453" y2="567.9063"/><line style="stroke:#000000;stroke-width:1.0;" x1="6" x2="6" y1="514.0234" y2="531.9844"/><line style="stroke:#000000;stroke-width:1.0;" x1="482" x2="482" y1="514.0234" y2="531.9844"/><line style="stroke:#000000;stroke-width:1.0;" x1="6" x2="6" y1="478.1016" y2="496.0625"/><line style="stroke:#000000;stroke-width:1.0;" x1="482" x2="482" y1="478.1016" y2="496.0625"/><line style="stroke:#000000;stroke-width:1.0;" x1="6" x2="6" y1="442.1797" y2="460.1406"/><line style="stroke:#000000;stroke-width:1.0;" x1="482" x2="482" y1="442.1797" y2="460.1406"/><line style="stroke:#000000;stroke-width:1.0;" x1="6" x2="6" y1="567.9063" y2="585.8672"/><line style="stroke:#000000;stroke-width:1.0;" x1="482" x2="482" y1="567.9063" y2="585.8672"/><line style="stroke:#000000;stroke-width:1.0;" x1="6" x2="6" y1="531.9844" y2="549.9453"/><line style="stroke:#000000;stroke-width:1.0;" x1="482" x2="482" y1="531.9844" y2="549.9453"/><line style="stroke:#000000;stroke-width:1.0;" x1="6" x2="6" y1="496.0625" y2="514.0234"/><line style="stroke:#000000;stroke-width:1.0;" x1="482" x2="482" y1="496.0625" y2="514.0234"/><line style="stroke:#000000;stroke-width:1.0;" x1="6" x2="6" y1="460.1406" y2="478.1016"/><line style="stroke:#000000;stroke-width:1.0;" x1="482" x2="482" y1="460.1406" y2="478.1016"/><line style="stroke:#AAAAAA;stroke-width:1.0;" x1="6" x2="483" y1="627.2891" y2="627.2891"/><rect fill="#EEEEEE" height="19.9609" rx="5" ry="5" style="stroke:#000000;stroke-width:2.5;" width="52" x="9.5" y="635.2891"/><text fill="#000000" font-family="sans-serif" font-size="12" lengthAdjust="spacing" textLength="40" x="15.5" y="650.2383">Fermer</text><rect fill="#EEEEEE" height="19.9609" rx="5" ry="5" style="stroke:#000000;stroke-width:2.5;" width="132" x="68.5" y="635.2891"/><path d="M100,642.25 C97.8,642.25 96,644.05 96,646.25 C96,648.45 97.8,650.25 100,650.25 C101.1,650.25 102.12,649.82 102.84,649.09 L102.12,648.37 C101.58,648.91 100.83,649.25 99.99,649.25 C98.33,649.25 96.99,647.91 96.99,646.25 C96.99,644.59 98.33,643.25 99.99,643.25 C100.82,643.25 101.54,643.61 102.08,644.16 L100.99,645.25 L103.99,645.25 L103.99,642.25 L102.8,643.44 C102.08,642.72 101.09,642.25 99.99,642.25 " fill="#000000" style="stroke:;stroke-width:0.0;stroke-dasharray:;"/><text fill="#000000" font-family="sans-serif" font-size="12" lengthAdjust="spacing" textLength="66" x="108" y="650.2383">R&#233;initialiser</text><rect fill="#EEEEEE" height="19.9609" rx="5" ry="5" style="stroke:#000000;stroke-width:2.5;" width="92" x="207.5" y="635.2891"/><text fill="#000000" font-family="sans-serif" font-size="12" lengthAdjust="spacing" textLength="70" x="218.5" y="650.2383">Sauvegarder</text><!--SRC=[jLRTSjeu5BxtKvoh5B8Ji4sRDanAcn2IaeKc6qXsPpBDZB05LTT8hYGpxHBUfRVqDNYn_MGWWIvbTZEpciJevtpd77_dntfhBDFMiCHwOu_eFHi9pQbAXxrQgzcufcQxVTIbFGh2olCN-vZSD3gTHYl0x2YoOYJiR4gX7uO0x-tXCIuxxDbiAcTJpHAwN-gyfpfBk8oru1gBzcngCJFvlhPy0cofv1vEoTWxx2jfALA9qgy7cd-jNVG-SLZiK_oCoy_PxBlb54DnXDytkr0pfi8VHVe73jvSP0BdXGs7xvKaPvceiTGvcqPgJU4AFXUVq3qG4w-Kuznnpt0zOfPdkc2A-Ix6U3af0Nkt8XFG7NRSRlxuyVzm9qqoKyFlbzfInMJ9YvSR164i0l5Q62i-PznGp2bveCLRjUzK_fQnHFH5nAp02wp9xYBMSEzaGIJTFQ9E1Uk990_m9eWxJe1OXJGbUqWA9cN64qX4IlQ57iwcd5AceKWzSf6h6Zjg5npF2NyCIwws1QHMVMuC_9Sy8HP5FBLSCs7tHEBSqxDfgf1SYDytoYGdbbai7ZBbpUw_C_MGbZ7o865GYocJXXAm_4bbMdAMVN4MUqh7PP3wSKv_ElkEwPmQMeuLQjw1J9l5S-4HbpRtD64KQU6esGXqZaq07uz_yUZdOxpjyCUS9oF-ugy3lzQncY5G0y6tmO_gtUPfwwBh21aohTa0kS393yhu2_tWO1juCjdgzl_mKfjhSTE0PF0a4sTQPIcdHdCREk-5_rttuKwKDqccQtNa7ie8N8T-sQ-0wx12mSkg_-gfcXCL_Lbh2-CIpwNo9jtLobPIIa-otLR8USE44ToLN2_JAA8dcxcbBjT38V4PGVairBhnONigJfRzkgw6GnGWGyypLFLMyf62Wv8Vb93MBr6GHscANcDSzS_RYrcl5F_LdBlW0C9r9KVe6_CMYx9AWFYef6lFQo1GxKEyexGbepBN2OYDU4Jdd4ag73UFZpf5f4-DBlEEWcFKA9B2kKm6KUFmO-XQhrlayci6GBNbmzH0RZ51k1jNrsj2GLZsGnVs4BwyWxSYGgDcnhXMr1To-Kd_MKYUj5f-nURt1BezHHYv_e36TtkuetcYM5oZgzbKI645lbXcSTXXe6d0TEpM4s_YlKM5v5SMxp9XqbwtM-IuTyoxu8MLKX0KVkSnTNXAGGKlKmttgvKArHkThdkrIj4hd5ssN01qvAuHnchHorpiYjuv6p6wogGLGrwbYvJByvDVbnku9-0sewIBXdT-qtuKs7- -TomiJ6huGZTjxuJtMPPO828L2pb0ZgH1-2BqMamEClJHAlMrLrTGhBzMwVJgRm00]--></g></svg>