<?xml version="1.0" encoding="us-ascii" standalone="no"?><svg xmlns="http://www.w3.org/2000/svg" xmlns:xlink="http://www.w3.org/1999/xlink" contentStyleType="text/css" height="120px" preserveAspectRatio="none" style="width:680px;height:120px;background:#FFFFFF;" version="1.1" viewBox="0 0 680 120" width="680px" zoomAndPan="magnify"><defs/><g><text fill="#000000" font-family="sans-serif" font-size="12" font-weight="bold" lengthAdjust="spacing" textLength="113" x="336" y="19.9492">Calendrier d'activit&#233;</text><text fill="#000000" font-family="sans-serif" font-size="12" font-weight="bold" lengthAdjust="spacing" textLength="90" x="7" y="37.9102">Profil utilisateur</text><text fill="#000000" font-family="sans-serif" font-size="12" font-weight="bold" lengthAdjust="spacing" textLength="136" x="171" y="37.9102">Privil&#232;ge de programme</text><text fill="#000000" font-family="sans-serif" font-size="12" font-weight="bold" lengthAdjust="spacing" textLength="71" x="336" y="37.9102">Consultation</text><text fill="#000000" font-family="sans-serif" font-size="12" font-weight="bold" lengthAdjust="spacing" textLength="48" x="412" y="37.9102">Cr&#233;ation</text><text fill="#000000" font-family="sans-serif" font-size="12" font-weight="bold" lengthAdjust="spacing" textLength="69" x="465" y="37.9102">Modification</text><text fill="#000000" font-family="sans-serif" font-size="12" font-weight="bold" lengthAdjust="spacing" textLength="72" x="539" y="37.9102">Suppression</text><text fill="#000000" font-family="sans-serif" font-size="12" font-weight="bold" lengthAdjust="spacing" textLength="56" x="616" y="37.9102">Validation</text><text fill="#000000" font-family="sans-serif" font-size="12" lengthAdjust="spacing" textLength="162" x="7" y="55.8711">Administrateur de r&#233;f&#233;rentiels</text><text fill="#000000" font-family="sans-serif" font-size="12" lengthAdjust="spacing" textLength="19" x="333" y="55.8711">Oui</text><text fill="#000000" font-family="sans-serif" font-size="12" lengthAdjust="spacing" textLength="19" x="409" y="55.8711">Oui</text><text fill="#000000" font-family="sans-serif" font-size="12" lengthAdjust="spacing" textLength="34" x="462" y="55.8711">Oui(2)</text><text fill="#000000" font-family="sans-serif" font-size="12" lengthAdjust="spacing" textLength="34" x="536" y="55.8711">Oui(2)</text><text fill="#000000" font-family="sans-serif" font-size="12" lengthAdjust="spacing" textLength="23" x="613" y="55.8711">Non</text><text fill="#000000" font-family="sans-serif" font-size="12" lengthAdjust="spacing" textLength="160" x="171" y="73.832">Responsable de programme</text><text fill="#000000" font-family="sans-serif" font-size="12" lengthAdjust="spacing" textLength="19" x="333" y="73.832">Oui</text><text fill="#000000" font-family="sans-serif" font-size="12" lengthAdjust="spacing" textLength="19" x="409" y="73.832">Oui</text><text fill="#000000" font-family="sans-serif" font-size="12" lengthAdjust="spacing" textLength="34" x="462" y="73.832">Oui(2)</text><text fill="#000000" font-family="sans-serif" font-size="12" lengthAdjust="spacing" textLength="34" x="536" y="73.832">Oui(2)</text><text fill="#000000" font-family="sans-serif" font-size="12" lengthAdjust="spacing" textLength="19" x="613" y="73.832">Oui</text><text fill="#000000" font-family="sans-serif" font-size="12" lengthAdjust="spacing" textLength="66" x="7" y="91.793">Superviseur</text><text fill="#000000" font-family="sans-serif" font-size="12" lengthAdjust="spacing" textLength="7" x="171" y="91.793">?</text><text fill="#000000" font-family="sans-serif" font-size="12" lengthAdjust="spacing" textLength="34" x="333" y="91.793">Oui(1)</text><text fill="#000000" font-family="sans-serif" font-size="12" lengthAdjust="spacing" textLength="19" x="409" y="91.793">Oui</text><text fill="#000000" font-family="sans-serif" font-size="12" lengthAdjust="spacing" textLength="49" x="462" y="91.793">Oui(1)(2)</text><text fill="#000000" font-family="sans-serif" font-size="12" lengthAdjust="spacing" textLength="49" x="536" y="91.793">Oui(1)(2)</text><text fill="#000000" font-family="sans-serif" font-size="12" lengthAdjust="spacing" textLength="23" x="613" y="91.793">Non</text><text fill="#000000" font-family="sans-serif" font-size="12" lengthAdjust="spacing" textLength="67" x="7" y="109.7539">Observateur</text><text fill="#000000" font-family="sans-serif" font-size="12" lengthAdjust="spacing" textLength="67" x="171" y="109.7539">Observateur</text><text fill="#000000" font-family="sans-serif" font-size="12" lengthAdjust="spacing" textLength="34" x="333" y="109.7539">Oui(1)</text><text fill="#000000" font-family="sans-serif" font-size="12" lengthAdjust="spacing" textLength="19" x="409" y="109.7539">Oui</text><text fill="#000000" font-family="sans-serif" font-size="12" lengthAdjust="spacing" textLength="49" x="462" y="109.7539">Oui(1)(2)</text><text fill="#000000" font-family="sans-serif" font-size="12" lengthAdjust="spacing" textLength="49" x="536" y="109.7539">Oui(1)(2)</text><text fill="#000000" font-family="sans-serif" font-size="12" lengthAdjust="spacing" textLength="23" x="613" y="109.7539">Non</text><line style="stroke:#000000;stroke-width:1.0;" x1="6" x2="170" y1="6" y2="6"/><line style="stroke:#000000;stroke-width:1.0;" x1="170" x2="332" y1="6" y2="6"/><line style="stroke:#000000;stroke-width:1.0;" x1="332" x2="408" y1="6" y2="6"/><line style="stroke:#000000;stroke-width:1.0;" x1="408" x2="461" y1="6" y2="6"/><line style="stroke:#000000;stroke-width:1.0;" x1="461" x2="535" y1="6" y2="6"/><line style="stroke:#000000;stroke-width:1.0;" x1="535" x2="612" y1="6" y2="6"/><line style="stroke:#000000;stroke-width:1.0;" x1="612" x2="673" y1="6" y2="6"/><line style="stroke:#000000;stroke-width:1.0;" x1="6" x2="170" y1="59.8828" y2="59.8828"/><line style="stroke:#000000;stroke-width:1.0;" x1="170" x2="332" y1="59.8828" y2="59.8828"/><line style="stroke:#000000;stroke-width:1.0;" x1="332" x2="408" y1="59.8828" y2="59.8828"/><line style="stroke:#000000;stroke-width:1.0;" x1="408" x2="461" y1="59.8828" y2="59.8828"/><line style="stroke:#000000;stroke-width:1.0;" x1="461" x2="535" y1="59.8828" y2="59.8828"/><line style="stroke:#000000;stroke-width:1.0;" x1="535" x2="612" y1="59.8828" y2="59.8828"/><line style="stroke:#000000;stroke-width:1.0;" x1="612" x2="673" y1="59.8828" y2="59.8828"/><line style="stroke:#000000;stroke-width:1.0;" x1="6" x2="170" y1="113.7656" y2="113.7656"/><line style="stroke:#000000;stroke-width:1.0;" x1="170" x2="332" y1="113.7656" y2="113.7656"/><line style="stroke:#000000;stroke-width:1.0;" x1="332" x2="408" y1="113.7656" y2="113.7656"/><line style="stroke:#000000;stroke-width:1.0;" x1="408" x2="461" y1="113.7656" y2="113.7656"/><line style="stroke:#000000;stroke-width:1.0;" x1="461" x2="535" y1="113.7656" y2="113.7656"/><line style="stroke:#000000;stroke-width:1.0;" x1="535" x2="612" y1="113.7656" y2="113.7656"/><line style="stroke:#000000;stroke-width:1.0;" x1="612" x2="673" y1="113.7656" y2="113.7656"/><line style="stroke:#000000;stroke-width:1.0;" x1="6" x2="170" y1="23.9609" y2="23.9609"/><line style="stroke:#000000;stroke-width:1.0;" x1="170" x2="332" y1="23.9609" y2="23.9609"/><line style="stroke:#000000;stroke-width:1.0;" x1="332" x2="408" y1="23.9609" y2="23.9609"/><line style="stroke:#000000;stroke-width:1.0;" x1="408" x2="461" y1="23.9609" y2="23.9609"/><line style="stroke:#000000;stroke-width:1.0;" x1="461" x2="535" y1="23.9609" y2="23.9609"/><line style="stroke:#000000;stroke-width:1.0;" x1="535" x2="612" y1="23.9609" y2="23.9609"/><line style="stroke:#000000;stroke-width:1.0;" x1="612" x2="673" y1="23.9609" y2="23.9609"/><line style="stroke:#000000;stroke-width:1.0;" x1="6" x2="170" y1="77.8438" y2="77.8438"/><line style="stroke:#000000;stroke-width:1.0;" x1="170" x2="332" y1="77.8438" y2="77.8438"/><line style="stroke:#000000;stroke-width:1.0;" x1="332" x2="408" y1="77.8438" y2="77.8438"/><line style="stroke:#000000;stroke-width:1.0;" x1="408" x2="461" y1="77.8438" y2="77.8438"/><line style="stroke:#000000;stroke-width:1.0;" x1="461" x2="535" y1="77.8438" y2="77.8438"/><line style="stroke:#000000;stroke-width:1.0;" x1="535" x2="612" y1="77.8438" y2="77.8438"/><line style="stroke:#000000;stroke-width:1.0;" x1="612" x2="673" y1="77.8438" y2="77.8438"/><line style="stroke:#000000;stroke-width:1.0;" x1="6" x2="170" y1="41.9219" y2="41.9219"/><line style="stroke:#000000;stroke-width:1.0;" x1="170" x2="332" y1="41.9219" y2="41.9219"/><line style="stroke:#000000;stroke-width:1.0;" x1="332" x2="408" y1="41.9219" y2="41.9219"/><line style="stroke:#000000;stroke-width:1.0;" x1="408" x2="461" y1="41.9219" y2="41.9219"/><line style="stroke:#000000;stroke-width:1.0;" x1="461" x2="535" y1="41.9219" y2="41.9219"/><line style="stroke:#000000;stroke-width:1.0;" x1="535" x2="612" y1="41.9219" y2="41.9219"/><line style="stroke:#000000;stroke-width:1.0;" x1="612" x2="673" y1="41.9219" y2="41.9219"/><line style="stroke:#000000;stroke-width:1.0;" x1="6" x2="170" y1="95.8047" y2="95.8047"/><line style="stroke:#000000;stroke-width:1.0;" x1="170" x2="332" y1="95.8047" y2="95.8047"/><line style="stroke:#000000;stroke-width:1.0;" x1="332" x2="408" y1="95.8047" y2="95.8047"/><line style="stroke:#000000;stroke-width:1.0;" x1="408" x2="461" y1="95.8047" y2="95.8047"/><line style="stroke:#000000;stroke-width:1.0;" x1="461" x2="535" y1="95.8047" y2="95.8047"/><line style="stroke:#000000;stroke-width:1.0;" x1="535" x2="612" y1="95.8047" y2="95.8047"/><line style="stroke:#000000;stroke-width:1.0;" x1="612" x2="673" y1="95.8047" y2="95.8047"/><line style="stroke:#000000;stroke-width:1.0;" x1="6" x2="6" y1="6" y2="23.9609"/><line style="stroke:#000000;stroke-width:1.0;" x1="461" x2="461" y1="77.8438" y2="95.8047"/><line style="stroke:#000000;stroke-width:1.0;" x1="170" x2="170" y1="6" y2="23.9609"/><line style="stroke:#000000;stroke-width:1.0;" x1="535" x2="535" y1="77.8438" y2="95.8047"/><line style="stroke:#000000;stroke-width:1.0;" x1="332" x2="332" y1="6" y2="23.9609"/><line style="stroke:#000000;stroke-width:1.0;" x1="612" x2="612" y1="77.8438" y2="95.8047"/><line style="stroke:#000000;stroke-width:1.0;" x1="673" x2="673" y1="77.8438" y2="95.8047"/><line style="stroke:#000000;stroke-width:1.0;" x1="673" x2="673" y1="6" y2="23.9609"/><line style="stroke:#000000;stroke-width:1.0;" x1="6" x2="6" y1="59.8828" y2="77.8438"/><line style="stroke:#000000;stroke-width:1.0;" x1="170" x2="170" y1="59.8828" y2="77.8438"/><line style="stroke:#000000;stroke-width:1.0;" x1="332" x2="332" y1="59.8828" y2="77.8438"/><line style="stroke:#000000;stroke-width:1.0;" x1="408" x2="408" y1="59.8828" y2="77.8438"/><line style="stroke:#000000;stroke-width:1.0;" x1="461" x2="461" y1="59.8828" y2="77.8438"/><line style="stroke:#000000;stroke-width:1.0;" x1="535" x2="535" y1="59.8828" y2="77.8438"/><line style="stroke:#000000;stroke-width:1.0;" x1="612" x2="612" y1="59.8828" y2="77.8438"/><line style="stroke:#000000;stroke-width:1.0;" x1="673" x2="673" y1="59.8828" y2="77.8438"/><line style="stroke:#000000;stroke-width:1.0;" x1="6" x2="6" y1="41.9219" y2="59.8828"/><line style="stroke:#000000;stroke-width:1.0;" x1="170" x2="170" y1="41.9219" y2="59.8828"/><line style="stroke:#000000;stroke-width:1.0;" x1="332" x2="332" y1="41.9219" y2="59.8828"/><line style="stroke:#000000;stroke-width:1.0;" x1="408" x2="408" y1="41.9219" y2="59.8828"/><line style="stroke:#000000;stroke-width:1.0;" x1="461" x2="461" y1="41.9219" y2="59.8828"/><line style="stroke:#000000;stroke-width:1.0;" x1="535" x2="535" y1="41.9219" y2="59.8828"/><line style="stroke:#000000;stroke-width:1.0;" x1="612" x2="612" y1="41.9219" y2="59.8828"/><line style="stroke:#000000;stroke-width:1.0;" x1="673" x2="673" y1="41.9219" y2="59.8828"/><line style="stroke:#000000;stroke-width:1.0;" x1="6" x2="6" y1="95.8047" y2="113.7656"/><line style="stroke:#000000;stroke-width:1.0;" x1="170" x2="170" y1="95.8047" y2="113.7656"/><line style="stroke:#000000;stroke-width:1.0;" x1="332" x2="332" y1="95.8047" y2="113.7656"/><line style="stroke:#000000;stroke-width:1.0;" x1="408" x2="408" y1="95.8047" y2="113.7656"/><line style="stroke:#000000;stroke-width:1.0;" x1="6" x2="6" y1="23.9609" y2="41.9219"/><line style="stroke:#000000;stroke-width:1.0;" x1="461" x2="461" y1="95.8047" y2="113.7656"/><line style="stroke:#000000;stroke-width:1.0;" x1="170" x2="170" y1="23.9609" y2="41.9219"/><line style="stroke:#000000;stroke-width:1.0;" x1="535" x2="535" y1="95.8047" y2="113.7656"/><line style="stroke:#000000;stroke-width:1.0;" x1="332" x2="332" y1="23.9609" y2="41.9219"/><line style="stroke:#000000;stroke-width:1.0;" x1="612" x2="612" y1="95.8047" y2="113.7656"/><line style="stroke:#000000;stroke-width:1.0;" x1="673" x2="673" y1="95.8047" y2="113.7656"/><line style="stroke:#000000;stroke-width:1.0;" x1="408" x2="408" y1="23.9609" y2="41.9219"/><line style="stroke:#000000;stroke-width:1.0;" x1="461" x2="461" y1="23.9609" y2="41.9219"/><line style="stroke:#000000;stroke-width:1.0;" x1="535" x2="535" y1="23.9609" y2="41.9219"/><line style="stroke:#000000;stroke-width:1.0;" x1="612" x2="612" y1="23.9609" y2="41.9219"/><line style="stroke:#000000;stroke-width:1.0;" x1="673" x2="673" y1="23.9609" y2="41.9219"/><line style="stroke:#000000;stroke-width:1.0;" x1="6" x2="6" y1="77.8438" y2="95.8047"/><line style="stroke:#000000;stroke-width:1.0;" x1="170" x2="170" y1="77.8438" y2="95.8047"/><line style="stroke:#000000;stroke-width:1.0;" x1="332" x2="332" y1="77.8438" y2="95.8047"/><line style="stroke:#000000;stroke-width:1.0;" x1="408" x2="408" y1="77.8438" y2="95.8047"/><!--SRC=[bLBXQjj03FwzUmh1VYmUBDJkkb4pjhP9LqZZ9QHj_b_iin6SpqPtPoXjtwTvZhpOvBXUN0Q56iv8EdtVIPzqPfqaPwLsua5yUFWeeFt6yBW_FpO_OIArCXcX8iW-oTHXWswtvSlFmzFXE7z9LOuQl4EDLZhbgUDP4WFrxhbGa2cegIf8bgNg7wcCzTf9XvNfGxJR3lsaoZ37T1YwyNLDojf3P2qrPlkKhg3ph4I3rb5N2R_ChFbkIyeuLDg-zBdmEFoFec1e_EdPsjILiZKNApVwlqRUPc6ZO-6g5JLeEsb-lUI4mIji61pWlVslZiN6CaClxj1xFzcJU19dFE3z2eYbbiRT9NDe5Erb3SVHKNGy3ez72NjJbK8OGdWQHqVnoNUONDv2Un-8qTLo3hRobB8ihU2uyUqO0Z6JZOILPxrB5SEYLcOslUu3S6aQfCgKF0ynMoU7X6zVlroWWnjkZJTldOYfoYMl22DItWHJn32fm-Wa4dDf2YyB9iz9J2ecfliOVg_-0W00]--></g></svg>