<?xml version="1.0" encoding="us-ascii" standalone="no"?><svg xmlns="http://www.w3.org/2000/svg" xmlns:xlink="http://www.w3.org/1999/xlink" contentStyleType="text/css" height="266px" preserveAspectRatio="none" style="width:1111px;height:266px;background:#FFFFFF;" version="1.1" viewBox="0 0 1111 266" width="1111px" zoomAndPan="magnify"><defs/><g><text fill="#000000" font-family="sans-serif" font-size="12" lengthAdjust="spacing" textLength="146" x="6" y="18.9492">Calendrier d'activit&#233;: navire</text><text fill="#000000" font-family="sans-serif" font-size="12" font-weight="bold" lengthAdjust="spacing" textLength="229" x="155" y="18.9492">SONNY NINO MATHILDE 3 - b136794 - MA</text><text fill="#000000" font-family="sans-serif" font-size="12" lengthAdjust="spacing" textLength="58" x="384" y="18.9492">; longueur:</text><text fill="#000000" font-family="sans-serif" font-size="12" font-weight="bold" lengthAdjust="spacing" textLength="38" x="445" y="18.9492">7,81 m</text><text fill="#000000" font-family="sans-serif" font-size="12" lengthAdjust="spacing" textLength="161" x="483" y="18.9492">; enqu&#234;te: Directe; enqu&#234;teur:</text><text fill="#000000" font-family="sans-serif" font-size="12" font-weight="bold" lengthAdjust="spacing" textLength="95" x="647" y="18.9492">Adelaide GAMON</text><text fill="#000000" font-family="sans-serif" font-size="12" lengthAdjust="spacing" textLength="49" x="742" y="18.9492">; soci&#233;t&#233;:</text><text fill="#000000" font-family="sans-serif" font-size="12" font-weight="bold" lengthAdjust="spacing" textLength="42" x="794" y="18.9492">Ifremer</text><line style="stroke:#AAAAAA;stroke-width:1.0;" x1="6" x2="1104.6667" y1="27.4609" y2="27.4609"/><text fill="#000000" font-family="sans-serif" font-size="12" lengthAdjust="spacing" textLength="44" x="8" y="44.9102">G&#233;n&#233;ral</text><line style="stroke:#000000;stroke-width:1.0;" x1="6" x2="6" y1="31.9609" y2="47.9219"/><line style="stroke:#000000;stroke-width:1.0;" x1="6" x2="55" y1="31.9609" y2="31.9609"/><line style="stroke:#000000;stroke-width:1.0;" x1="55" x2="55" y1="31.9609" y2="47.9219"/><line style="stroke:#000000;stroke-width:1.0;" x1="55" x2="65" y1="47.9219" y2="47.9219"/><text fill="#000000" font-family="sans-serif" font-size="12" lengthAdjust="spacing" textLength="58" x="67" y="44.9102">Calendrier</text><line style="stroke:#000000;stroke-width:1.0;" x1="65" x2="65" y1="31.9609" y2="47.9219"/><line style="stroke:#000000;stroke-width:1.0;" x1="65" x2="128" y1="31.9609" y2="31.9609"/><line style="stroke:#000000;stroke-width:1.0;" x1="128" x2="128" y1="31.9609" y2="47.9219"/><line style="stroke:#000000;stroke-width:1.0;" x1="128" x2="138" y1="47.9219" y2="47.9219"/><text fill="#000000" font-family="sans-serif" font-size="12" font-weight="bold" lengthAdjust="spacing" textLength="43" x="140" y="44.9102">M&#233;tiers</text><line style="stroke:#000000;stroke-width:1.0;" x1="138" x2="138" y1="31.9609" y2="47.9219"/><line style="stroke:#000000;stroke-width:1.0;" x1="138" x2="186" y1="31.9609" y2="31.9609"/><line style="stroke:#000000;stroke-width:1.0;" x1="186" x2="186" y1="31.9609" y2="47.9219"/><line style="stroke:#000000;stroke-width:1.0;" x1="186" x2="196" y1="47.9219" y2="47.9219"/><text fill="#000000" font-family="sans-serif" font-size="12" lengthAdjust="spacing" textLength="83" x="198" y="44.9102">Commentaires</text><line style="stroke:#000000;stroke-width:1.0;" x1="196" x2="196" y1="31.9609" y2="47.9219"/><line style="stroke:#000000;stroke-width:1.0;" x1="196" x2="284" y1="31.9609" y2="31.9609"/><line style="stroke:#000000;stroke-width:1.0;" x1="284" x2="284" y1="31.9609" y2="47.9219"/><line style="stroke:#000000;stroke-width:1.0;" x1="284" x2="294" y1="47.9219" y2="47.9219"/><line style="stroke:#AAAAAA;stroke-width:1.0;stroke-dasharray:1.0,2.0;" x1="6" x2="1104.6667" y1="53.4219" y2="53.4219"/><text fill="#000000" font-family="sans-serif" font-size="12" lengthAdjust="spacing" textLength="33" x="8" y="72.8711">M&#233;tier</text><text fill="#000000" font-family="sans-serif" font-size="12" font-weight="bold" lengthAdjust="spacing" textLength="193" x="205" y="73.8711">Maillage de l'engin (logbook) (mm)</text><text fill="#000000" font-family="sans-serif" font-size="12" lengthAdjust="spacing" textLength="38" x="205" y="91.832">engin -</text><text fill="#000000" font-family="sans-serif" font-size="12" lengthAdjust="spacing" textLength="58" x="205" y="109.793">inconnue -</text><text fill="#000000" font-family="sans-serif" font-size="12" lengthAdjust="spacing" textLength="168" x="205" y="127.7539">D&#233;claration d'un professionnel</text><text fill="#000000" font-family="sans-serif" font-size="12" font-weight="bold" lengthAdjust="spacing" textLength="166" x="402" y="73.8711">Maillage &#233;tir&#233; de l'engin (mm)</text><text fill="#000000" font-family="sans-serif" font-size="12" lengthAdjust="spacing" textLength="38" x="402" y="91.832">engin -</text><text fill="#000000" font-family="sans-serif" font-size="12" lengthAdjust="spacing" textLength="101" x="402" y="109.793">plus petite maille -</text><text fill="#000000" font-family="sans-serif" font-size="12" lengthAdjust="spacing" textLength="168" x="402" y="127.7539">D&#233;claration d'un professionnel</text><text fill="#000000" font-family="sans-serif" font-size="12" font-weight="bold" lengthAdjust="spacing" textLength="166" x="574" y="73.8711">Maillage &#233;tir&#233; de l'engin (mm)</text><text fill="#000000" font-family="sans-serif" font-size="12" lengthAdjust="spacing" textLength="38" x="574" y="91.832">engin -</text><text fill="#000000" font-family="sans-serif" font-size="12" lengthAdjust="spacing" textLength="110" x="574" y="109.793">plus grande maille -</text><text fill="#000000" font-family="sans-serif" font-size="12" lengthAdjust="spacing" textLength="168" x="574" y="127.7539">D&#233;claration d'un professionnel</text><text fill="#000000" font-family="sans-serif" font-size="12" font-weight="bold" lengthAdjust="spacing" textLength="109" x="746" y="73.8711">Longueur lev&#233;e (m)</text><text fill="#000000" font-family="sans-serif" font-size="12" lengthAdjust="spacing" textLength="38" x="746" y="91.832">engin -</text><text fill="#000000" font-family="sans-serif" font-size="12" lengthAdjust="spacing" textLength="37" x="746" y="109.793">totale -</text><text fill="#000000" font-family="sans-serif" font-size="12" lengthAdjust="spacing" textLength="168" x="746" y="127.7539">D&#233;claration d'un professionnel</text><path d="M918,59.9219 L918,60.9219 L926,60.9219 L926,59.9219 L918,59.9219 M918,62.8919 L918,63.8919 L926,63.8919 L926,62.8919 L918,62.8919 M918,65.8919 L918,66.8919 L926,66.8919 L926,65.8919 L918,65.8919 " fill="#000000" style="stroke:;stroke-width:0.0;stroke-dasharray:;"/><text fill="#000000" font-family="sans-serif" font-size="12" lengthAdjust="spacing" textLength="172" x="8" y="146.7148">GTRMZZ - Tr&#233;mails &#224; poissons</text><text fill="#000000" font-family="sans-serif" font-size="12" lengthAdjust="spacing" textLength="21" x="204" y="146.7148">100</text><text fill="#000000" font-family="sans-serif" font-size="12" lengthAdjust="spacing" textLength="14" x="401" y="146.7148">97</text><text fill="#000000" font-family="sans-serif" font-size="12" lengthAdjust="spacing" textLength="21" x="573" y="146.7148">103</text><text fill="#000000" font-family="sans-serif" font-size="12" lengthAdjust="spacing" textLength="194" x="8" y="164.6758">GTRNEP - Tr&#233;mails &#224; langoustines</text><text fill="#000000" font-family="sans-serif" font-size="12" lengthAdjust="spacing" textLength="14" x="401" y="164.6758">57</text><text fill="#000000" font-family="sans-serif" font-size="12" lengthAdjust="spacing" textLength="21" x="745" y="164.6758">100</text><line style="stroke:#000000;stroke-width:1.0;" x1="7" x2="203" y1="58.9219" y2="58.9219"/><line style="stroke:#000000;stroke-width:1.0;" x1="400" x2="572" y1="150.7266" y2="150.7266"/><line style="stroke:#000000;stroke-width:1.0;" x1="203" x2="400" y1="58.9219" y2="58.9219"/><line style="stroke:#000000;stroke-width:1.0;" x1="572" x2="744" y1="150.7266" y2="150.7266"/><line style="stroke:#000000;stroke-width:1.0;" x1="400" x2="572" y1="58.9219" y2="58.9219"/><line style="stroke:#000000;stroke-width:1.0;" x1="744" x2="916" y1="150.7266" y2="150.7266"/><line style="stroke:#000000;stroke-width:1.0;" x1="572" x2="744" y1="58.9219" y2="58.9219"/><line style="stroke:#000000;stroke-width:1.0;" x1="916" x2="928" y1="150.7266" y2="150.7266"/><line style="stroke:#000000;stroke-width:1.0;" x1="744" x2="916" y1="58.9219" y2="58.9219"/><line style="stroke:#000000;stroke-width:1.0;" x1="916" x2="928" y1="58.9219" y2="58.9219"/><line style="stroke:#000000;stroke-width:1.0;" x1="7" x2="203" y1="168.6875" y2="168.6875"/><line style="stroke:#000000;stroke-width:1.0;" x1="203" x2="400" y1="168.6875" y2="168.6875"/><line style="stroke:#000000;stroke-width:1.0;" x1="400" x2="572" y1="168.6875" y2="168.6875"/><line style="stroke:#000000;stroke-width:1.0;" x1="7" x2="203" y1="132.7656" y2="132.7656"/><line style="stroke:#000000;stroke-width:1.0;" x1="572" x2="744" y1="168.6875" y2="168.6875"/><line style="stroke:#000000;stroke-width:1.0;" x1="203" x2="400" y1="132.7656" y2="132.7656"/><line style="stroke:#000000;stroke-width:1.0;" x1="744" x2="916" y1="168.6875" y2="168.6875"/><line style="stroke:#000000;stroke-width:1.0;" x1="400" x2="572" y1="132.7656" y2="132.7656"/><line style="stroke:#000000;stroke-width:1.0;" x1="916" x2="928" y1="168.6875" y2="168.6875"/><line style="stroke:#000000;stroke-width:1.0;" x1="572" x2="744" y1="132.7656" y2="132.7656"/><line style="stroke:#000000;stroke-width:1.0;" x1="744" x2="916" y1="132.7656" y2="132.7656"/><line style="stroke:#000000;stroke-width:1.0;" x1="916" x2="928" y1="132.7656" y2="132.7656"/><line style="stroke:#000000;stroke-width:1.0;" x1="7" x2="203" y1="150.7266" y2="150.7266"/><line style="stroke:#000000;stroke-width:1.0;" x1="203" x2="400" y1="150.7266" y2="150.7266"/><line style="stroke:#000000;stroke-width:1.0;" x1="7" x2="7" y1="58.9219" y2="132.7656"/><line style="stroke:#000000;stroke-width:1.0;" x1="400" x2="400" y1="150.7266" y2="168.6875"/><line style="stroke:#000000;stroke-width:1.0;" x1="203" x2="203" y1="58.9219" y2="132.7656"/><line style="stroke:#000000;stroke-width:1.0;" x1="572" x2="572" y1="150.7266" y2="168.6875"/><line style="stroke:#000000;stroke-width:1.0;" x1="400" x2="400" y1="58.9219" y2="132.7656"/><line style="stroke:#000000;stroke-width:1.0;" x1="744" x2="744" y1="150.7266" y2="168.6875"/><line style="stroke:#000000;stroke-width:1.0;" x1="572" x2="572" y1="58.9219" y2="132.7656"/><line style="stroke:#000000;stroke-width:1.0;" x1="916" x2="916" y1="150.7266" y2="168.6875"/><line style="stroke:#000000;stroke-width:1.0;" x1="928" x2="928" y1="150.7266" y2="168.6875"/><line style="stroke:#000000;stroke-width:1.0;" x1="744" x2="744" y1="58.9219" y2="132.7656"/><line style="stroke:#000000;stroke-width:1.0;" x1="916" x2="916" y1="58.9219" y2="132.7656"/><line style="stroke:#000000;stroke-width:1.0;" x1="928" x2="928" y1="58.9219" y2="132.7656"/><line style="stroke:#000000;stroke-width:1.0;" x1="7" x2="7" y1="132.7656" y2="150.7266"/><line style="stroke:#000000;stroke-width:1.0;" x1="203" x2="203" y1="132.7656" y2="150.7266"/><line style="stroke:#000000;stroke-width:1.0;" x1="400" x2="400" y1="132.7656" y2="150.7266"/><line style="stroke:#000000;stroke-width:1.0;" x1="572" x2="572" y1="132.7656" y2="150.7266"/><line style="stroke:#000000;stroke-width:1.0;" x1="744" x2="744" y1="132.7656" y2="150.7266"/><line style="stroke:#000000;stroke-width:1.0;" x1="916" x2="916" y1="132.7656" y2="150.7266"/><line style="stroke:#000000;stroke-width:1.0;" x1="928" x2="928" y1="132.7656" y2="150.7266"/><line style="stroke:#000000;stroke-width:1.0;" x1="7" x2="7" y1="150.7266" y2="168.6875"/><line style="stroke:#000000;stroke-width:1.0;" x1="203" x2="203" y1="150.7266" y2="168.6875"/><text fill="#808080" font-family="sans-serif" font-size="10" lengthAdjust="spacing" textLength="46" x="932" y="71.7129">Saisisseur</text><text fill="#000000" font-family="sans-serif" font-size="12" lengthAdjust="spacing" textLength="94" x="932" y="89.1719">Adelaide GAMON</text><text fill="#808080" font-family="sans-serif" font-size="10" lengthAdjust="spacing" textLength="48" x="932" y="104.9746">Groupe EI</text><line style="stroke:#AAAAAA;stroke-width:1.0;" x1="932" x2="1101.6667" y1="112.9844" y2="112.9844"/><path d="M933,121.6185 L933,123.2852 L938.8333,123.2852 L938.8333,121.6185 L933,121.6185 M933,124.1185 L933,128.2102 C933,128.2518 933.0333,128.2852 933.075,128.2852 L938.75,128.2852 C938.7917,128.2852 938.825,128.2518 938.825,128.2102 L938.825,124.1185 L932.9917,124.1185 M933.8333,124.9518 L934.6667,124.9518 L934.6667,125.7852 L933.8333,125.7852 L933.8333,124.9518 M935.5,124.9518 L936.3333,124.9518 L936.3333,125.7852 L935.5,125.7852 L935.5,124.9518 M937.1667,124.9518 L938,124.9518 L938,125.7852 L937.1667,125.7852 L937.1667,124.9518 M933.8333,126.6185 L934.6667,126.6185 L934.6667,127.4518 L933.8333,127.4518 L933.8333,126.6185 M935.5,126.6185 L936.3333,126.6185 L936.3333,127.4518 L935.5,127.4518 L935.5,126.6185 " fill="#808080" style="stroke:;stroke-width:0.0;stroke-dasharray:;"/><text fill="#808080" font-family="sans-serif" font-size="10" lengthAdjust="spacing" textLength="136" x="940.6667" y="128.2754">Cr&#233;&#233; le 20/03/2023 17:08:31</text><path d="M936.3333,136.9193 C934.5,136.9193 933,138.4193 933,140.2526 C933,142.0859 934.5,143.5859 936.3333,143.5859 C938.1667,143.5859 939.6667,142.0859 939.6667,140.2526 C939.6667,138.4193 938.1667,136.9193 936.3333,136.9193 M936.3333,137.7526 C937.7167,137.7526 938.8333,138.8693 938.8333,140.2526 C938.8333,141.6359 937.7167,142.7526 936.3333,142.7526 C934.95,142.7526 933.8333,141.6359 933.8333,140.2526 C933.8333,138.8693 934.95,137.7526 936.3333,137.7526 M935.9167,138.5859 L935.9167,140.4359 L936.05,140.5443 L936.4667,140.9609 L936.75,141.2776 L937.35,140.6776 L937.0333,140.3943 L936.75,140.1109 L936.75,138.6026 L935.9167,138.6026 " fill="#808080" style="stroke:;stroke-width:0.0;stroke-dasharray:;"/><text fill="#808080" font-family="sans-serif" font-size="10" lengthAdjust="spacing" textLength="160" x="940.6667" y="143.5762">Mis &#224; jour le 20/03/2023 17:08:31</text><text fill="#808080" font-family="sans-serif" font-size="10" lengthAdjust="spacing" textLength="56" x="932" y="176.8379">Mode saisie</text><text fill="#808080" font-family="sans-serif" font-size="10" font-weight="bold" lengthAdjust="spacing" textLength="34" x="991" y="176.8379">bureau</text><rect fill="#EEEEEE" height="19.9609" rx="5" ry="5" style="stroke:#000000;stroke-width:2.5;" width="156" x="934.5" y="201.8086"/><text fill="#000000" font-family="sans-serif" font-size="12" lengthAdjust="spacing" textLength="100" x="962.5" y="216.7578">Terminer la saisie</text><line style="stroke:#000000;stroke-width:1.0;" x1="930" x2="1102.6667" y1="58.9219" y2="58.9219"/><line style="stroke:#000000;stroke-width:1.0;" x1="930" x2="1102.6667" y1="226.2695" y2="226.2695"/><line style="stroke:#000000;stroke-width:1.0;" x1="930" x2="930" y1="58.9219" y2="226.2695"/><line style="stroke:#000000;stroke-width:1.0;" x1="1102.6667" x2="1102.6667" y1="58.9219" y2="226.2695"/><line style="stroke:#AAAAAA;stroke-width:1.0;" x1="6" x2="1104.6667" y1="232.7695" y2="232.7695"/><rect fill="#EEEEEE" height="19.9609" rx="5" ry="5" style="stroke:#000000;stroke-width:2.5;" width="52" x="9.5" y="240.7695"/><text fill="#000000" font-family="sans-serif" font-size="12" lengthAdjust="spacing" textLength="40" x="15.5" y="255.7188">Fermer</text><rect fill="#EEEEEE" height="19.9609" rx="5" ry="5" style="stroke:#000000;stroke-width:2.5;" width="92" x="68.5" y="240.7695"/><text fill="#000000" font-family="sans-serif" font-size="12" lengthAdjust="spacing" textLength="70" x="79.5" y="255.7188">Sauvegarder</text><!--SRC=[pLLTRn9157tVNt4Jazf6eIoqObSaLg18PQ4fsCGsFWpBPJCwEuFpGL9R_ekl-3VsZta7q5hKs1eV9DdDpDnxpfwvS-RombYchM721bS1G8C9b6FDKSFu8Kiidt6RBoAGRCOrGcrK7_HxlRVGw_Jw41yENtMwpHPKe02ZiFAaUh17e_YmjZkgFmEXPEhGwSZ3ge-VXf2j0YW_kloBnGYQH9fOl5bQPn-EKJ0-HcWVnltU2cLKmlF5KWrbT2OQCzG-HB8B1NfTxK8xNyXyePc0wn-tSkqHCO5fOdn8PHbAo-Zh1kO4BHO3J-2V1x1EfBmh3sDS29OYa1hn46NA9MmBbOwK-h03srcsGwZRlrLIuQTrBXCbfSDVX9hv8X5CCykLfCex2LEj9cWCpIMAELnlG6v9yu9rlhWbyJx2fi8PcABb5Y7pfF-fn5GpEVxN4hjhcuB0MRv0adLtLLPPzfTAeBP57dJr5RGzF8tFp-do3Ab8Vdy6yiymLTmO9RrbmrA9tWVLvR12xw9_leDxhPDDi60oLSvOBj6iy_Uhwy6ApSEzagj7csM1saH92uaIIZzFDLw2uP_mULYg3nWt98hgjO6vVMKtWh-bQslbfWYjpWQWKBWhGsqhMLvqfkiDsZvPZ0waNDejLNRBfN85mcfKUXfLmdlm2PLygCTyMSNtQkcCEp0Mx_g5M56LZA_Zig6Ed4Rc_a1s0KFK6HqbYM5hyBkDdFby_hqLmiKHvQD-HyTxCM1kXYdJOp-V1_FW1TLhsVA34tA9VHDtOKQTqNirBFez5iFATaop9YOGXX0UHELIHEvfj8RWupl1TlkaIotPwOGw8pTMyv7pPjy9ZjcCmQcJbcVKuVjJbCVDrzyMe2NfZqH9ttw3uxFu9k79Nk4bjp10JLBWB0wQE65EM48aQinb6a5Z6fRtoq6NZEsefqGmqK534R6-ZE3ez2i0]--></g></svg>