<?xml version="1.0" encoding="us-ascii" standalone="no"?><svg xmlns="http://www.w3.org/2000/svg" xmlns:xlink="http://www.w3.org/1999/xlink" contentStyleType="text/css" height="98px" preserveAspectRatio="none" style="width:769px;height:98px;background:#FFFFFF;" version="1.1" viewBox="0 0 769 98" width="769px" zoomAndPan="magnify"><defs/><g><text fill="#000000" font-family="sans-serif" font-size="12" font-weight="bold" lengthAdjust="spacing" textLength="90" x="7" y="19.457">Profil utilisateur</text><text fill="#000000" font-family="sans-serif" font-size="12" font-weight="bold" lengthAdjust="spacing" textLength="136" x="171" y="19.457">Privil&#232;ge de programme</text><text fill="#000000" font-family="sans-serif" font-size="12" font-weight="bold" lengthAdjust="spacing" textLength="71" x="333" y="19.457">Consultation</text><text fill="#000000" font-family="sans-serif" font-size="12" font-weight="bold" lengthAdjust="spacing" textLength="48" x="406" y="19.457">Cr&#233;ation</text><text fill="#000000" font-family="sans-serif" font-size="12" font-weight="bold" lengthAdjust="spacing" textLength="69" x="456" y="19.457">Modification</text><text fill="#000000" font-family="sans-serif" font-size="12" font-weight="bold" lengthAdjust="spacing" textLength="72" x="527" y="19.457">Suppression</text><text fill="#000000" font-family="sans-serif" font-size="12" font-weight="bold" lengthAdjust="spacing" textLength="56" x="601" y="19.457">Validation</text><text fill="#000000" font-family="sans-serif" font-size="12" font-weight="bold" lengthAdjust="spacing" textLength="102" x="659" y="19.457">Acc&#232;s &#224; la pr&#233;doc</text><text fill="#000000" font-family="sans-serif" font-size="12" lengthAdjust="spacing" textLength="162" x="7" y="36.5508">Administrateur de r&#233;f&#233;rentiels</text><text fill="#000000" font-family="sans-serif" font-size="12" lengthAdjust="spacing" textLength="7" x="171" y="36.5508">_</text><text fill="#000000" font-family="sans-serif" font-size="12" lengthAdjust="spacing" textLength="19" x="333" y="36.5508">Oui</text><text fill="#000000" font-family="sans-serif" font-size="12" lengthAdjust="spacing" textLength="19" x="406" y="36.5508">Oui</text><text fill="#000000" font-family="sans-serif" font-size="12" lengthAdjust="spacing" textLength="34" x="456" y="36.5508">Oui(2)</text><text fill="#000000" font-family="sans-serif" font-size="12" lengthAdjust="spacing" textLength="34" x="527" y="36.5508">Oui(2)</text><text fill="#000000" font-family="sans-serif" font-size="12" lengthAdjust="spacing" textLength="19" x="601" y="36.5508">Oui</text><text fill="#000000" font-family="sans-serif" font-size="12" lengthAdjust="spacing" textLength="19" x="659" y="36.5508">Oui</text><text fill="#000000" font-family="sans-serif" font-size="12" lengthAdjust="spacing" textLength="66" x="7" y="53.6445">Superviseur</text><text fill="#000000" font-family="sans-serif" font-size="12" lengthAdjust="spacing" textLength="160" x="171" y="53.6445">Responsable de programme</text><text fill="#000000" font-family="sans-serif" font-size="12" lengthAdjust="spacing" textLength="19" x="333" y="53.6445">Oui</text><text fill="#000000" font-family="sans-serif" font-size="12" lengthAdjust="spacing" textLength="19" x="406" y="53.6445">Oui</text><text fill="#000000" font-family="sans-serif" font-size="12" lengthAdjust="spacing" textLength="34" x="456" y="53.6445">Oui(2)</text><text fill="#000000" font-family="sans-serif" font-size="12" lengthAdjust="spacing" textLength="34" x="527" y="53.6445">Oui(2)</text><text fill="#000000" font-family="sans-serif" font-size="12" lengthAdjust="spacing" textLength="19" x="601" y="53.6445">Oui</text><text fill="#000000" font-family="sans-serif" font-size="12" lengthAdjust="spacing" textLength="19" x="659" y="53.6445">Oui</text><text fill="#000000" font-family="sans-serif" font-size="12" lengthAdjust="spacing" textLength="66" x="7" y="70.7383">Superviseur</text><text fill="#000000" font-family="sans-serif" font-size="12" lengthAdjust="spacing" textLength="7" x="171" y="70.7383">_</text><text fill="#000000" font-family="sans-serif" font-size="12" lengthAdjust="spacing" textLength="34" x="333" y="70.7383">Oui(1)</text><text fill="#000000" font-family="sans-serif" font-size="12" lengthAdjust="spacing" textLength="34" x="406" y="70.7383">Oui(1)</text><text fill="#000000" font-family="sans-serif" font-size="12" lengthAdjust="spacing" textLength="49" x="456" y="70.7383">Oui(1)(2)</text><text fill="#000000" font-family="sans-serif" font-size="12" lengthAdjust="spacing" textLength="49" x="527" y="70.7383">Oui(1)(2)</text><text fill="#000000" font-family="sans-serif" font-size="12" lengthAdjust="spacing" textLength="23" x="601" y="70.7383">Non</text><text fill="#000000" font-family="sans-serif" font-size="12" lengthAdjust="spacing" textLength="37" x="659" y="70.7383">Oui (1)</text><text fill="#000000" font-family="sans-serif" font-size="12" lengthAdjust="spacing" textLength="67" x="7" y="87.832">Observateur</text><text fill="#000000" font-family="sans-serif" font-size="12" lengthAdjust="spacing" textLength="67" x="171" y="87.832">Observateur</text><text fill="#000000" font-family="sans-serif" font-size="12" lengthAdjust="spacing" textLength="34" x="333" y="87.832">Oui(1)</text><text fill="#000000" font-family="sans-serif" font-size="12" lengthAdjust="spacing" textLength="34" x="406" y="87.832">Oui(1)</text><text fill="#000000" font-family="sans-serif" font-size="12" lengthAdjust="spacing" textLength="49" x="456" y="87.832">Oui(1)(2)</text><text fill="#000000" font-family="sans-serif" font-size="12" lengthAdjust="spacing" textLength="49" x="527" y="87.832">Oui(1)(2)</text><text fill="#000000" font-family="sans-serif" font-size="12" lengthAdjust="spacing" textLength="23" x="601" y="87.832">Non</text><text fill="#000000" font-family="sans-serif" font-size="12" lengthAdjust="spacing" textLength="37" x="659" y="87.832">Oui (1)</text><line style="stroke:#000000;stroke-width:1.0;" x1="6" x2="170" y1="6" y2="6"/><line style="stroke:#000000;stroke-width:1.0;" x1="455" x2="526" y1="74.375" y2="74.375"/><line style="stroke:#000000;stroke-width:1.0;" x1="170" x2="332" y1="6" y2="6"/><line style="stroke:#000000;stroke-width:1.0;" x1="526" x2="600" y1="74.375" y2="74.375"/><line style="stroke:#000000;stroke-width:1.0;" x1="332" x2="405" y1="6" y2="6"/><line style="stroke:#000000;stroke-width:1.0;" x1="600" x2="658" y1="74.375" y2="74.375"/><line style="stroke:#000000;stroke-width:1.0;" x1="405" x2="455" y1="6" y2="6"/><line style="stroke:#000000;stroke-width:1.0;" x1="658" x2="762" y1="74.375" y2="74.375"/><line style="stroke:#000000;stroke-width:1.0;" x1="455" x2="526" y1="6" y2="6"/><line style="stroke:#000000;stroke-width:1.0;" x1="526" x2="600" y1="6" y2="6"/><line style="stroke:#000000;stroke-width:1.0;" x1="600" x2="658" y1="6" y2="6"/><line style="stroke:#000000;stroke-width:1.0;" x1="658" x2="762" y1="6" y2="6"/><line style="stroke:#000000;stroke-width:1.0;" x1="6" x2="170" y1="57.2813" y2="57.2813"/><line style="stroke:#000000;stroke-width:1.0;" x1="170" x2="332" y1="57.2813" y2="57.2813"/><line style="stroke:#000000;stroke-width:1.0;" x1="332" x2="405" y1="57.2813" y2="57.2813"/><line style="stroke:#000000;stroke-width:1.0;" x1="405" x2="455" y1="57.2813" y2="57.2813"/><line style="stroke:#000000;stroke-width:1.0;" x1="455" x2="526" y1="57.2813" y2="57.2813"/><line style="stroke:#000000;stroke-width:1.0;" x1="526" x2="600" y1="57.2813" y2="57.2813"/><line style="stroke:#000000;stroke-width:1.0;" x1="600" x2="658" y1="57.2813" y2="57.2813"/><line style="stroke:#000000;stroke-width:1.0;" x1="658" x2="762" y1="57.2813" y2="57.2813"/><line style="stroke:#000000;stroke-width:1.0;" x1="6" x2="170" y1="40.1875" y2="40.1875"/><line style="stroke:#000000;stroke-width:1.0;" x1="170" x2="332" y1="40.1875" y2="40.1875"/><line style="stroke:#000000;stroke-width:1.0;" x1="332" x2="405" y1="40.1875" y2="40.1875"/><line style="stroke:#000000;stroke-width:1.0;" x1="405" x2="455" y1="40.1875" y2="40.1875"/><line style="stroke:#000000;stroke-width:1.0;" x1="455" x2="526" y1="40.1875" y2="40.1875"/><line style="stroke:#000000;stroke-width:1.0;" x1="526" x2="600" y1="40.1875" y2="40.1875"/><line style="stroke:#000000;stroke-width:1.0;" x1="600" x2="658" y1="40.1875" y2="40.1875"/><line style="stroke:#000000;stroke-width:1.0;" x1="658" x2="762" y1="40.1875" y2="40.1875"/><line style="stroke:#000000;stroke-width:1.0;" x1="6" x2="170" y1="91.4688" y2="91.4688"/><line style="stroke:#000000;stroke-width:1.0;" x1="170" x2="332" y1="91.4688" y2="91.4688"/><line style="stroke:#000000;stroke-width:1.0;" x1="332" x2="405" y1="91.4688" y2="91.4688"/><line style="stroke:#000000;stroke-width:1.0;" x1="405" x2="455" y1="91.4688" y2="91.4688"/><line style="stroke:#000000;stroke-width:1.0;" x1="455" x2="526" y1="91.4688" y2="91.4688"/><line style="stroke:#000000;stroke-width:1.0;" x1="6" x2="170" y1="23.0938" y2="23.0938"/><line style="stroke:#000000;stroke-width:1.0;" x1="526" x2="600" y1="91.4688" y2="91.4688"/><line style="stroke:#000000;stroke-width:1.0;" x1="170" x2="332" y1="23.0938" y2="23.0938"/><line style="stroke:#000000;stroke-width:1.0;" x1="600" x2="658" y1="91.4688" y2="91.4688"/><line style="stroke:#000000;stroke-width:1.0;" x1="332" x2="405" y1="23.0938" y2="23.0938"/><line style="stroke:#000000;stroke-width:1.0;" x1="658" x2="762" y1="91.4688" y2="91.4688"/><line style="stroke:#000000;stroke-width:1.0;" x1="405" x2="455" y1="23.0938" y2="23.0938"/><line style="stroke:#000000;stroke-width:1.0;" x1="455" x2="526" y1="23.0938" y2="23.0938"/><line style="stroke:#000000;stroke-width:1.0;" x1="526" x2="600" y1="23.0938" y2="23.0938"/><line style="stroke:#000000;stroke-width:1.0;" x1="600" x2="658" y1="23.0938" y2="23.0938"/><line style="stroke:#000000;stroke-width:1.0;" x1="658" x2="762" y1="23.0938" y2="23.0938"/><line style="stroke:#000000;stroke-width:1.0;" x1="6" x2="170" y1="74.375" y2="74.375"/><line style="stroke:#000000;stroke-width:1.0;" x1="170" x2="332" y1="74.375" y2="74.375"/><line style="stroke:#000000;stroke-width:1.0;" x1="332" x2="405" y1="74.375" y2="74.375"/><line style="stroke:#000000;stroke-width:1.0;" x1="405" x2="455" y1="74.375" y2="74.375"/><line style="stroke:#000000;stroke-width:1.0;" x1="6" x2="6" y1="6" y2="23.0938"/><line style="stroke:#000000;stroke-width:1.0;" x1="455" x2="455" y1="74.375" y2="91.4688"/><line style="stroke:#000000;stroke-width:1.0;" x1="170" x2="170" y1="6" y2="23.0938"/><line style="stroke:#000000;stroke-width:1.0;" x1="526" x2="526" y1="74.375" y2="91.4688"/><line style="stroke:#000000;stroke-width:1.0;" x1="332" x2="332" y1="6" y2="23.0938"/><line style="stroke:#000000;stroke-width:1.0;" x1="600" x2="600" y1="74.375" y2="91.4688"/><line style="stroke:#000000;stroke-width:1.0;" x1="405" x2="405" y1="6" y2="23.0938"/><line style="stroke:#000000;stroke-width:1.0;" x1="658" x2="658" y1="74.375" y2="91.4688"/><line style="stroke:#000000;stroke-width:1.0;" x1="762" x2="762" y1="74.375" y2="91.4688"/><line style="stroke:#000000;stroke-width:1.0;" x1="455" x2="455" y1="6" y2="23.0938"/><line style="stroke:#000000;stroke-width:1.0;" x1="526" x2="526" y1="6" y2="23.0938"/><line style="stroke:#000000;stroke-width:1.0;" x1="600" x2="600" y1="6" y2="23.0938"/><line style="stroke:#000000;stroke-width:1.0;" x1="658" x2="658" y1="6" y2="23.0938"/><line style="stroke:#000000;stroke-width:1.0;" x1="762" x2="762" y1="6" y2="23.0938"/><line style="stroke:#000000;stroke-width:1.0;" x1="6" x2="6" y1="57.2813" y2="74.375"/><line style="stroke:#000000;stroke-width:1.0;" x1="170" x2="170" y1="57.2813" y2="74.375"/><line style="stroke:#000000;stroke-width:1.0;" x1="332" x2="332" y1="57.2813" y2="74.375"/><line style="stroke:#000000;stroke-width:1.0;" x1="405" x2="405" y1="57.2813" y2="74.375"/><line style="stroke:#000000;stroke-width:1.0;" x1="455" x2="455" y1="57.2813" y2="74.375"/><line style="stroke:#000000;stroke-width:1.0;" x1="526" x2="526" y1="57.2813" y2="74.375"/><line style="stroke:#000000;stroke-width:1.0;" x1="600" x2="600" y1="57.2813" y2="74.375"/><line style="stroke:#000000;stroke-width:1.0;" x1="658" x2="658" y1="57.2813" y2="74.375"/><line style="stroke:#000000;stroke-width:1.0;" x1="762" x2="762" y1="57.2813" y2="74.375"/><line style="stroke:#000000;stroke-width:1.0;" x1="6" x2="6" y1="40.1875" y2="57.2813"/><line style="stroke:#000000;stroke-width:1.0;" x1="170" x2="170" y1="40.1875" y2="57.2813"/><line style="stroke:#000000;stroke-width:1.0;" x1="332" x2="332" y1="40.1875" y2="57.2813"/><line style="stroke:#000000;stroke-width:1.0;" x1="405" x2="405" y1="40.1875" y2="57.2813"/><line style="stroke:#000000;stroke-width:1.0;" x1="455" x2="455" y1="40.1875" y2="57.2813"/><line style="stroke:#000000;stroke-width:1.0;" x1="526" x2="526" y1="40.1875" y2="57.2813"/><line style="stroke:#000000;stroke-width:1.0;" x1="600" x2="600" y1="40.1875" y2="57.2813"/><line style="stroke:#000000;stroke-width:1.0;" x1="658" x2="658" y1="40.1875" y2="57.2813"/><line style="stroke:#000000;stroke-width:1.0;" x1="762" x2="762" y1="40.1875" y2="57.2813"/><line style="stroke:#000000;stroke-width:1.0;" x1="6" x2="6" y1="23.0938" y2="40.1875"/><line style="stroke:#000000;stroke-width:1.0;" x1="170" x2="170" y1="23.0938" y2="40.1875"/><line style="stroke:#000000;stroke-width:1.0;" x1="332" x2="332" y1="23.0938" y2="40.1875"/><line style="stroke:#000000;stroke-width:1.0;" x1="405" x2="405" y1="23.0938" y2="40.1875"/><line style="stroke:#000000;stroke-width:1.0;" x1="455" x2="455" y1="23.0938" y2="40.1875"/><line style="stroke:#000000;stroke-width:1.0;" x1="526" x2="526" y1="23.0938" y2="40.1875"/><line style="stroke:#000000;stroke-width:1.0;" x1="600" x2="600" y1="23.0938" y2="40.1875"/><line style="stroke:#000000;stroke-width:1.0;" x1="658" x2="658" y1="23.0938" y2="40.1875"/><line style="stroke:#000000;stroke-width:1.0;" x1="762" x2="762" y1="23.0938" y2="40.1875"/><line style="stroke:#000000;stroke-width:1.0;" x1="6" x2="6" y1="74.375" y2="91.4688"/><line style="stroke:#000000;stroke-width:1.0;" x1="170" x2="170" y1="74.375" y2="91.4688"/><line style="stroke:#000000;stroke-width:1.0;" x1="332" x2="332" y1="74.375" y2="91.4688"/><line style="stroke:#000000;stroke-width:1.0;" x1="405" x2="405" y1="74.375" y2="91.4688"/></g></svg>