<?xml version="1.0" encoding="us-ascii" standalone="no"?><svg xmlns="http://www.w3.org/2000/svg" xmlns:xlink="http://www.w3.org/1999/xlink" contentStyleType="text/css" height="508px" preserveAspectRatio="none" style="width:1116px;height:508px;background:#FFFFFF;" version="1.1" viewBox="0 0 1116 508" width="1116px" zoomAndPan="magnify"><defs/><g><text fill="#000000" font-family="sans-serif" font-size="12" font-weight="bold" lengthAdjust="spacing" textLength="110" x="6" y="18.9492">Nouveau calendrier</text><line style="stroke:#AAAAAA;stroke-width:1.0;stroke-dasharray:1.0,2.0;" x1="6" x2="1109" y1="27.4609" y2="27.4609"/><text fill="#000000" font-family="sans-serif" font-size="12" font-weight="bold" lengthAdjust="spacing" textLength="44" x="8" y="44.9102">G&#233;n&#233;ral</text><line style="stroke:#000000;stroke-width:1.0;" x1="6" x2="6" y1="31.9609" y2="47.9219"/><line style="stroke:#000000;stroke-width:1.0;" x1="6" x2="55" y1="31.9609" y2="31.9609"/><line style="stroke:#000000;stroke-width:1.0;" x1="55" x2="55" y1="31.9609" y2="47.9219"/><line style="stroke:#000000;stroke-width:1.0;" x1="55" x2="65" y1="47.9219" y2="47.9219"/><text fill="#000000" font-family="sans-serif" font-size="12" lengthAdjust="spacing" textLength="58" x="67" y="44.9102">Calendrier</text><line style="stroke:#000000;stroke-width:1.0;" x1="65" x2="65" y1="31.9609" y2="47.9219"/><line style="stroke:#000000;stroke-width:1.0;" x1="65" x2="128" y1="31.9609" y2="31.9609"/><line style="stroke:#000000;stroke-width:1.0;" x1="128" x2="128" y1="31.9609" y2="47.9219"/><line style="stroke:#000000;stroke-width:1.0;" x1="128" x2="138" y1="47.9219" y2="47.9219"/><text fill="#000000" font-family="sans-serif" font-size="12" lengthAdjust="spacing" textLength="39" x="140" y="44.9102">Engins</text><line style="stroke:#000000;stroke-width:1.0;" x1="138" x2="138" y1="31.9609" y2="47.9219"/><line style="stroke:#000000;stroke-width:1.0;" x1="138" x2="182" y1="31.9609" y2="31.9609"/><line style="stroke:#000000;stroke-width:1.0;" x1="182" x2="182" y1="31.9609" y2="47.9219"/><line style="stroke:#000000;stroke-width:1.0;" x1="182" x2="192" y1="47.9219" y2="47.9219"/><text fill="#000000" font-family="sans-serif" font-size="12" lengthAdjust="spacing" textLength="83" x="194" y="44.9102">Commentaires</text><line style="stroke:#000000;stroke-width:1.0;" x1="192" x2="192" y1="31.9609" y2="47.9219"/><line style="stroke:#000000;stroke-width:1.0;" x1="192" x2="280" y1="31.9609" y2="31.9609"/><line style="stroke:#000000;stroke-width:1.0;" x1="280" x2="280" y1="31.9609" y2="47.9219"/><line style="stroke:#000000;stroke-width:1.0;" x1="280" x2="290" y1="47.9219" y2="47.9219"/><text fill="#000000" font-family="sans-serif" font-size="12" font-weight="bold" lengthAdjust="spacing" textLength="457" x="7" y="81.832">Etat des changements des caract&#233;ristiques et des armateurs du navire sur 2022</text><text fill="#000000" font-family="sans-serif" font-size="12" lengthAdjust="spacing" textLength="158" x="13" y="100.793">Caract&#233;ristiques des navires</text><text fill="#000000" font-family="sans-serif" font-size="12" lengthAdjust="spacing" textLength="85" x="14" y="119.7539">Immatriculation</text><text fill="#000000" font-family="sans-serif" font-size="12" lengthAdjust="spacing" textLength="74" x="101" y="119.7539">D&#233;but validit&#233;</text><text fill="#000000" font-family="sans-serif" font-size="12" lengthAdjust="spacing" textLength="58" x="177" y="119.7539">Fin validit&#233;</text><text fill="#000000" font-family="sans-serif" font-size="12" lengthAdjust="spacing" textLength="80" x="241" y="119.7539">Nom du navire</text><text fill="#000000" font-family="sans-serif" font-size="12" lengthAdjust="spacing" textLength="96" x="390" y="119.7539">Port d'exploitation</text><text fill="#000000" font-family="sans-serif" font-size="12" lengthAdjust="spacing" textLength="142" x="574" y="119.7539">Jauge brute (TJB 1/100 tx)</text><text fill="#000000" font-family="sans-serif" font-size="12" lengthAdjust="spacing" textLength="61" x="718" y="119.7539">Jauge (GT)</text><text fill="#000000" font-family="sans-serif" font-size="12" lengthAdjust="spacing" textLength="94" x="781" y="119.7539">Puiss. adm. (kW)</text><text fill="#000000" font-family="sans-serif" font-size="12" lengthAdjust="spacing" textLength="78" x="877" y="119.7539">Long. H.T. (m)</text><text fill="#000000" font-family="sans-serif" font-size="12" lengthAdjust="spacing" textLength="122" x="957" y="119.7539">Ann&#233;e de construction</text><text fill="#000000" font-family="sans-serif" font-size="12" lengthAdjust="spacing" textLength="24" x="1081" y="119.7539">FPC</text><text fill="#000000" font-family="sans-serif" font-size="12" lengthAdjust="spacing" textLength="42" x="14" y="137.7148">136794</text><text fill="#000000" font-family="sans-serif" font-size="12" lengthAdjust="spacing" textLength="62" x="101" y="137.7148">06/04/2021</text><text fill="#000000" font-family="sans-serif" font-size="12" lengthAdjust="spacing" textLength="62" x="177" y="137.7148">31/12/2022</text><text fill="#000000" font-family="sans-serif" font-size="12" lengthAdjust="spacing" textLength="147" x="241" y="137.7148">SONNY NINO MATHILDE 3</text><text fill="#000000" font-family="sans-serif" font-size="12" lengthAdjust="spacing" textLength="182" x="390" y="137.7148">JMA - La Madrague de Montredon</text><text fill="#000000" font-family="sans-serif" font-size="12" lengthAdjust="spacing" textLength="21" x="574" y="137.7148">560</text><text fill="#000000" font-family="sans-serif" font-size="12" lengthAdjust="spacing" textLength="21" x="718" y="137.7148">320</text><text fill="#000000" font-family="sans-serif" font-size="12" lengthAdjust="spacing" textLength="24" x="781" y="137.7148">66.0</text><text fill="#000000" font-family="sans-serif" font-size="12" lengthAdjust="spacing" textLength="7" x="877" y="137.7148">9</text><text fill="#000000" font-family="sans-serif" font-size="12" lengthAdjust="spacing" textLength="28" x="957" y="137.7148">1967</text><text fill="#000000" font-family="sans-serif" font-size="12" lengthAdjust="spacing" textLength="19" x="1081" y="137.7148">Oui</text><line style="stroke:#000000;stroke-width:1.0;" x1="13" x2="100" y1="105.8047" y2="105.8047"/><line style="stroke:#000000;stroke-width:1.0;" x1="100" x2="176" y1="105.8047" y2="105.8047"/><line style="stroke:#000000;stroke-width:1.0;" x1="176" x2="240" y1="105.8047" y2="105.8047"/><line style="stroke:#000000;stroke-width:1.0;" x1="240" x2="389" y1="105.8047" y2="105.8047"/><line style="stroke:#000000;stroke-width:1.0;" x1="389" x2="573" y1="105.8047" y2="105.8047"/><line style="stroke:#000000;stroke-width:1.0;" x1="573" x2="717" y1="105.8047" y2="105.8047"/><line style="stroke:#000000;stroke-width:1.0;" x1="717" x2="780" y1="105.8047" y2="105.8047"/><line style="stroke:#000000;stroke-width:1.0;" x1="780" x2="876" y1="105.8047" y2="105.8047"/><line style="stroke:#000000;stroke-width:1.0;" x1="876" x2="956" y1="105.8047" y2="105.8047"/><line style="stroke:#000000;stroke-width:1.0;" x1="956" x2="1080" y1="105.8047" y2="105.8047"/><line style="stroke:#000000;stroke-width:1.0;" x1="1080" x2="1106" y1="105.8047" y2="105.8047"/><line style="stroke:#000000;stroke-width:1.0;" x1="13" x2="100" y1="141.7266" y2="141.7266"/><line style="stroke:#000000;stroke-width:1.0;" x1="100" x2="176" y1="141.7266" y2="141.7266"/><line style="stroke:#000000;stroke-width:1.0;" x1="176" x2="240" y1="141.7266" y2="141.7266"/><line style="stroke:#000000;stroke-width:1.0;" x1="240" x2="389" y1="141.7266" y2="141.7266"/><line style="stroke:#000000;stroke-width:1.0;" x1="389" x2="573" y1="141.7266" y2="141.7266"/><line style="stroke:#000000;stroke-width:1.0;" x1="573" x2="717" y1="141.7266" y2="141.7266"/><line style="stroke:#000000;stroke-width:1.0;" x1="717" x2="780" y1="141.7266" y2="141.7266"/><line style="stroke:#000000;stroke-width:1.0;" x1="780" x2="876" y1="141.7266" y2="141.7266"/><line style="stroke:#000000;stroke-width:1.0;" x1="876" x2="956" y1="141.7266" y2="141.7266"/><line style="stroke:#000000;stroke-width:1.0;" x1="956" x2="1080" y1="141.7266" y2="141.7266"/><line style="stroke:#000000;stroke-width:1.0;" x1="1080" x2="1106" y1="141.7266" y2="141.7266"/><line style="stroke:#000000;stroke-width:1.0;" x1="13" x2="100" y1="123.7656" y2="123.7656"/><line style="stroke:#000000;stroke-width:1.0;" x1="100" x2="176" y1="123.7656" y2="123.7656"/><line style="stroke:#000000;stroke-width:1.0;" x1="176" x2="240" y1="123.7656" y2="123.7656"/><line style="stroke:#000000;stroke-width:1.0;" x1="240" x2="389" y1="123.7656" y2="123.7656"/><line style="stroke:#000000;stroke-width:1.0;" x1="389" x2="573" y1="123.7656" y2="123.7656"/><line style="stroke:#000000;stroke-width:1.0;" x1="573" x2="717" y1="123.7656" y2="123.7656"/><line style="stroke:#000000;stroke-width:1.0;" x1="717" x2="780" y1="123.7656" y2="123.7656"/><line style="stroke:#000000;stroke-width:1.0;" x1="780" x2="876" y1="123.7656" y2="123.7656"/><line style="stroke:#000000;stroke-width:1.0;" x1="876" x2="956" y1="123.7656" y2="123.7656"/><line style="stroke:#000000;stroke-width:1.0;" x1="956" x2="1080" y1="123.7656" y2="123.7656"/><line style="stroke:#000000;stroke-width:1.0;" x1="1080" x2="1106" y1="123.7656" y2="123.7656"/><line style="stroke:#000000;stroke-width:1.0;" x1="13" x2="13" y1="105.8047" y2="123.7656"/><line style="stroke:#000000;stroke-width:1.0;" x1="100" x2="100" y1="105.8047" y2="123.7656"/><line style="stroke:#000000;stroke-width:1.0;" x1="176" x2="176" y1="105.8047" y2="123.7656"/><line style="stroke:#000000;stroke-width:1.0;" x1="240" x2="240" y1="105.8047" y2="123.7656"/><line style="stroke:#000000;stroke-width:1.0;" x1="389" x2="389" y1="105.8047" y2="123.7656"/><line style="stroke:#000000;stroke-width:1.0;" x1="573" x2="573" y1="105.8047" y2="123.7656"/><line style="stroke:#000000;stroke-width:1.0;" x1="717" x2="717" y1="105.8047" y2="123.7656"/><line style="stroke:#000000;stroke-width:1.0;" x1="780" x2="780" y1="105.8047" y2="123.7656"/><line style="stroke:#000000;stroke-width:1.0;" x1="876" x2="876" y1="105.8047" y2="123.7656"/><line style="stroke:#000000;stroke-width:1.0;" x1="956" x2="956" y1="105.8047" y2="123.7656"/><line style="stroke:#000000;stroke-width:1.0;" x1="1080" x2="1080" y1="105.8047" y2="123.7656"/><line style="stroke:#000000;stroke-width:1.0;" x1="1106" x2="1106" y1="105.8047" y2="123.7656"/><line style="stroke:#000000;stroke-width:1.0;" x1="13" x2="13" y1="123.7656" y2="141.7266"/><line style="stroke:#000000;stroke-width:1.0;" x1="100" x2="100" y1="123.7656" y2="141.7266"/><line style="stroke:#000000;stroke-width:1.0;" x1="176" x2="176" y1="123.7656" y2="141.7266"/><line style="stroke:#000000;stroke-width:1.0;" x1="240" x2="240" y1="123.7656" y2="141.7266"/><line style="stroke:#000000;stroke-width:1.0;" x1="389" x2="389" y1="123.7656" y2="141.7266"/><line style="stroke:#000000;stroke-width:1.0;" x1="573" x2="573" y1="123.7656" y2="141.7266"/><line style="stroke:#000000;stroke-width:1.0;" x1="717" x2="717" y1="123.7656" y2="141.7266"/><line style="stroke:#000000;stroke-width:1.0;" x1="780" x2="780" y1="123.7656" y2="141.7266"/><line style="stroke:#000000;stroke-width:1.0;" x1="876" x2="876" y1="123.7656" y2="141.7266"/><line style="stroke:#000000;stroke-width:1.0;" x1="956" x2="956" y1="123.7656" y2="141.7266"/><line style="stroke:#000000;stroke-width:1.0;" x1="1080" x2="1080" y1="123.7656" y2="141.7266"/><line style="stroke:#000000;stroke-width:1.0;" x1="1106" x2="1106" y1="123.7656" y2="141.7266"/><text fill="#000000" font-family="sans-serif" font-size="12" lengthAdjust="spacing" textLength="219" x="13" y="174.6367">Historique des immatriculations navires</text><text fill="#000000" font-family="sans-serif" font-size="12" lengthAdjust="spacing" textLength="85" x="14" y="193.5977">Immatriculation</text><text fill="#000000" font-family="sans-serif" font-size="12" lengthAdjust="spacing" textLength="121" x="101" y="193.5977">D&#233;but immatriculation</text><text fill="#000000" font-family="sans-serif" font-size="12" lengthAdjust="spacing" textLength="105" x="224" y="193.5977">Fin immatriculation</text><text fill="#000000" font-family="sans-serif" font-size="12" lengthAdjust="spacing" textLength="141" x="331" y="193.5977">Quartier d'immatriculation</text><text fill="#000000" font-family="sans-serif" font-size="12" lengthAdjust="spacing" textLength="42" x="14" y="211.5586">136794</text><text fill="#000000" font-family="sans-serif" font-size="12" lengthAdjust="spacing" textLength="62" x="101" y="211.5586">01/01/1967</text><text fill="#000000" font-family="sans-serif" font-size="12" lengthAdjust="spacing" textLength="76" x="331" y="211.5586">MA - Marseille</text><line style="stroke:#000000;stroke-width:1.0;" x1="13" x2="100" y1="179.6484" y2="179.6484"/><line style="stroke:#000000;stroke-width:1.0;" x1="223" x2="330" y1="215.5703" y2="215.5703"/><line style="stroke:#000000;stroke-width:1.0;" x1="100" x2="223" y1="197.6094" y2="197.6094"/><line style="stroke:#000000;stroke-width:1.0;" x1="100" x2="223" y1="179.6484" y2="179.6484"/><line style="stroke:#000000;stroke-width:1.0;" x1="330" x2="473" y1="215.5703" y2="215.5703"/><line style="stroke:#000000;stroke-width:1.0;" x1="223" x2="330" y1="197.6094" y2="197.6094"/><line style="stroke:#000000;stroke-width:1.0;" x1="223" x2="330" y1="179.6484" y2="179.6484"/><line style="stroke:#000000;stroke-width:1.0;" x1="330" x2="473" y1="197.6094" y2="197.6094"/><line style="stroke:#000000;stroke-width:1.0;" x1="330" x2="473" y1="179.6484" y2="179.6484"/><line style="stroke:#000000;stroke-width:1.0;" x1="13" x2="100" y1="215.5703" y2="215.5703"/><line style="stroke:#000000;stroke-width:1.0;" x1="100" x2="223" y1="215.5703" y2="215.5703"/><line style="stroke:#000000;stroke-width:1.0;" x1="13" x2="100" y1="197.6094" y2="197.6094"/><line style="stroke:#000000;stroke-width:1.0;" x1="13" x2="13" y1="179.6484" y2="197.6094"/><line style="stroke:#000000;stroke-width:1.0;" x1="100" x2="100" y1="197.6094" y2="215.5703"/><line style="stroke:#000000;stroke-width:1.0;" x1="100" x2="100" y1="179.6484" y2="197.6094"/><line style="stroke:#000000;stroke-width:1.0;" x1="223" x2="223" y1="197.6094" y2="215.5703"/><line style="stroke:#000000;stroke-width:1.0;" x1="223" x2="223" y1="179.6484" y2="197.6094"/><line style="stroke:#000000;stroke-width:1.0;" x1="330" x2="330" y1="197.6094" y2="215.5703"/><line style="stroke:#000000;stroke-width:1.0;" x1="473" x2="473" y1="197.6094" y2="215.5703"/><line style="stroke:#000000;stroke-width:1.0;" x1="330" x2="330" y1="179.6484" y2="197.6094"/><line style="stroke:#000000;stroke-width:1.0;" x1="473" x2="473" y1="179.6484" y2="197.6094"/><line style="stroke:#000000;stroke-width:1.0;" x1="13" x2="13" y1="197.6094" y2="215.5703"/><text fill="#000000" font-family="sans-serif" font-size="12" lengthAdjust="spacing" textLength="151" x="13" y="248.4805">Couples navires-armateurs</text><text fill="#000000" font-family="sans-serif" font-size="12" lengthAdjust="spacing" textLength="85" x="14" y="267.4414">Immatricualtion</text><text fill="#000000" font-family="sans-serif" font-size="12" lengthAdjust="spacing" textLength="83" x="101" y="267.4414">Code armateur</text><text fill="#000000" font-family="sans-serif" font-size="12" lengthAdjust="spacing" textLength="93" x="186" y="267.4414">D&#233;but armement</text><text fill="#000000" font-family="sans-serif" font-size="12" lengthAdjust="spacing" textLength="77" x="281" y="267.4414">Fin armement</text><text fill="#000000" font-family="sans-serif" font-size="12" lengthAdjust="spacing" textLength="80" x="360" y="267.4414">Nom armateur</text><text fill="#000000" font-family="sans-serif" font-size="12" lengthAdjust="spacing" textLength="97" x="442" y="267.4414">Pr&#233;nom armateur</text><text fill="#000000" font-family="sans-serif" font-size="12" lengthAdjust="spacing" textLength="42" x="14" y="285.4023">136794</text><text fill="#000000" font-family="sans-serif" font-size="12" lengthAdjust="spacing" textLength="35" x="101" y="285.4023">15233</text><text fill="#000000" font-family="sans-serif" font-size="12" lengthAdjust="spacing" textLength="62" x="186" y="285.4023">06/04/2021</text><text fill="#000000" font-family="sans-serif" font-size="12" lengthAdjust="spacing" textLength="48" x="360" y="285.4023">CRIMON</text><text fill="#000000" font-family="sans-serif" font-size="12" lengthAdjust="spacing" textLength="21" x="442" y="285.4023">Eric</text><line style="stroke:#000000;stroke-width:1.0;" x1="13" x2="100" y1="253.4922" y2="253.4922"/><line style="stroke:#000000;stroke-width:1.0;" x1="185" x2="280" y1="289.4141" y2="289.4141"/><line style="stroke:#000000;stroke-width:1.0;" x1="100" x2="185" y1="253.4922" y2="253.4922"/><line style="stroke:#000000;stroke-width:1.0;" x1="280" x2="359" y1="289.4141" y2="289.4141"/><line style="stroke:#000000;stroke-width:1.0;" x1="185" x2="280" y1="253.4922" y2="253.4922"/><line style="stroke:#000000;stroke-width:1.0;" x1="359" x2="441" y1="289.4141" y2="289.4141"/><line style="stroke:#000000;stroke-width:1.0;" x1="280" x2="359" y1="253.4922" y2="253.4922"/><line style="stroke:#000000;stroke-width:1.0;" x1="441" x2="540" y1="289.4141" y2="289.4141"/><line style="stroke:#000000;stroke-width:1.0;" x1="359" x2="441" y1="253.4922" y2="253.4922"/><line style="stroke:#000000;stroke-width:1.0;" x1="441" x2="540" y1="253.4922" y2="253.4922"/><line style="stroke:#000000;stroke-width:1.0;" x1="13" x2="100" y1="271.4531" y2="271.4531"/><line style="stroke:#000000;stroke-width:1.0;" x1="100" x2="185" y1="271.4531" y2="271.4531"/><line style="stroke:#000000;stroke-width:1.0;" x1="185" x2="280" y1="271.4531" y2="271.4531"/><line style="stroke:#000000;stroke-width:1.0;" x1="280" x2="359" y1="271.4531" y2="271.4531"/><line style="stroke:#000000;stroke-width:1.0;" x1="359" x2="441" y1="271.4531" y2="271.4531"/><line style="stroke:#000000;stroke-width:1.0;" x1="441" x2="540" y1="271.4531" y2="271.4531"/><line style="stroke:#000000;stroke-width:1.0;" x1="13" x2="100" y1="289.4141" y2="289.4141"/><line style="stroke:#000000;stroke-width:1.0;" x1="100" x2="185" y1="289.4141" y2="289.4141"/><line style="stroke:#000000;stroke-width:1.0;" x1="13" x2="13" y1="253.4922" y2="271.4531"/><line style="stroke:#000000;stroke-width:1.0;" x1="100" x2="100" y1="253.4922" y2="271.4531"/><line style="stroke:#000000;stroke-width:1.0;" x1="185" x2="185" y1="253.4922" y2="271.4531"/><line style="stroke:#000000;stroke-width:1.0;" x1="280" x2="280" y1="253.4922" y2="271.4531"/><line style="stroke:#000000;stroke-width:1.0;" x1="359" x2="359" y1="253.4922" y2="271.4531"/><line style="stroke:#000000;stroke-width:1.0;" x1="441" x2="441" y1="253.4922" y2="271.4531"/><line style="stroke:#000000;stroke-width:1.0;" x1="540" x2="540" y1="253.4922" y2="271.4531"/><line style="stroke:#000000;stroke-width:1.0;" x1="13" x2="13" y1="271.4531" y2="289.4141"/><line style="stroke:#000000;stroke-width:1.0;" x1="100" x2="100" y1="271.4531" y2="289.4141"/><line style="stroke:#000000;stroke-width:1.0;" x1="185" x2="185" y1="271.4531" y2="289.4141"/><line style="stroke:#000000;stroke-width:1.0;" x1="280" x2="280" y1="271.4531" y2="289.4141"/><line style="stroke:#000000;stroke-width:1.0;" x1="359" x2="359" y1="271.4531" y2="289.4141"/><line style="stroke:#000000;stroke-width:1.0;" x1="441" x2="441" y1="271.4531" y2="289.4141"/><line style="stroke:#000000;stroke-width:1.0;" x1="540" x2="540" y1="271.4531" y2="289.4141"/><text fill="#000000" font-family="sans-serif" font-size="12" font-weight="bold" lengthAdjust="spacing" textLength="167" x="7" y="325.3242">Caract&#233;ristiques de l'enqu&#234;te</text><text fill="#000000" font-family="sans-serif" font-size="12" lengthAdjust="spacing" textLength="149" x="13" y="344.2852">Qualification de l'enqu&#234;te* :</text><rect fill="#EEEEEE" height="18.9609" style="stroke:#000000;stroke-width:1.0;" width="87" x="385" y="331.3359"/><text fill="#000000" font-family="sans-serif" font-size="12" lengthAdjust="spacing" textLength="47" x="387" y="346.2852">Indirecte</text><line style="stroke:#000000;stroke-width:1.0;" x1="461" x2="461" y1="331.3359" y2="350.2969"/><polygon fill="#000000" points="464,337.3359,470,337.3359,467,345.2969" style="stroke:#000000;stroke-width:1.0;"/><text fill="#000000" font-family="sans-serif" font-size="12" lengthAdjust="spacing" textLength="124" x="13" y="366.2461">Fiabilit&#233; de l'enqu&#234;te* :</text><rect fill="#EEEEEE" height="18.9609" style="stroke:#000000;stroke-width:1.0;" width="87" x="385" y="353.2969"/><text fill="#000000" font-family="sans-serif" font-size="12" lengthAdjust="spacing" textLength="34" x="387" y="368.2461">Fiable</text><line style="stroke:#000000;stroke-width:1.0;" x1="461" x2="461" y1="353.2969" y2="372.2578"/><polygon fill="#000000" points="464,359.2969,470,359.2969,467,367.2578" style="stroke:#000000;stroke-width:1.0;"/><text fill="#000000" font-family="sans-serif" font-size="12" lengthAdjust="spacing" textLength="261" x="13" y="388.207">Inactivit&#233; annuelle confirm&#233;e par l'observateur* :</text><text fill="#000000" font-family="sans-serif" font-size="12" font-weight="bold" lengthAdjust="spacing" textLength="19" x="406" y="389.207">Oui</text><ellipse cx="393" cy="384.2383" fill="none" rx="5" ry="5" style="stroke:#000000;stroke-width:1.5;"/><ellipse cx="393" cy="384.2383" fill="#000000" rx="2" ry="2" style="stroke:#000000;stroke-width:1.5;"/><text fill="#000000" font-family="sans-serif" font-size="12" lengthAdjust="spacing" textLength="23" x="447" y="389.207">Non</text><ellipse cx="434" cy="384.2383" fill="none" rx="5" ry="5" style="stroke:#000000;stroke-width:1.5;"/><text fill="#000000" font-family="sans-serif" font-size="12" lengthAdjust="spacing" textLength="370" x="13" y="408.168">Le professionnel accepterait-il de r&#233;pondre &#224; une autre enqu&#234;te ?* :</text><text fill="#000000" font-family="sans-serif" font-size="12" lengthAdjust="spacing" textLength="19" x="406" y="409.168">Oui</text><ellipse cx="393" cy="404.1992" fill="none" rx="5" ry="5" style="stroke:#000000;stroke-width:1.5;"/><text fill="#000000" font-family="sans-serif" font-size="12" font-weight="bold" lengthAdjust="spacing" textLength="22" x="447" y="409.168">Non</text><ellipse cx="434" cy="404.1992" fill="none" rx="5" ry="5" style="stroke:#000000;stroke-width:1.5;"/><ellipse cx="434" cy="404.1992" fill="#000000" rx="2" ry="2" style="stroke:#000000;stroke-width:1.5;"/><text fill="#000000" font-family="sans-serif" font-size="12" lengthAdjust="spacing" textLength="340" x="13" y="428.1289">M&#233;tiers d&#233;clar&#233;s dans les journeaux de bord/fiches de p&#234;che :</text><rect fill="#EEEEEE" height="18.9609" style="stroke:#000000;stroke-width:1.0;" width="87" x="385" y="415.1797"/><text fill="#000000" font-family="sans-serif" font-size="12" lengthAdjust="spacing" textLength="3" x="387" y="430.1289">&#160;</text><line style="stroke:#000000;stroke-width:1.0;" x1="461" x2="461" y1="415.1797" y2="434.1406"/><polygon fill="#000000" points="464,421.1797,470,421.1797,467,429.1406" style="stroke:#000000;stroke-width:1.0;"/><text fill="#000000" font-family="sans-serif" font-size="12" lengthAdjust="spacing" textLength="165" x="13" y="450.0898">Habitudes de vente &#224; la cri&#233;e :</text><rect fill="#EEEEEE" height="18.9609" style="stroke:#000000;stroke-width:1.0;" width="87" x="385" y="437.1406"/><text fill="#000000" font-family="sans-serif" font-size="12" lengthAdjust="spacing" textLength="3" x="387" y="452.0898">&#160;</text><line style="stroke:#000000;stroke-width:1.0;" x1="461" x2="461" y1="437.1406" y2="456.1016"/><polygon fill="#000000" points="464,443.1406,470,443.1406,467,451.1016" style="stroke:#000000;stroke-width:1.0;"/><rect fill="#EEEEEE" height="19.9609" rx="5" ry="5" style="stroke:#000000;stroke-width:2.5;" width="52" x="9.5" y="482.5625"/><text fill="#000000" font-family="sans-serif" font-size="12" lengthAdjust="spacing" textLength="40" x="15.5" y="497.5117">Fermer</text><rect fill="#EEEEEE" height="19.9609" rx="5" ry="5" style="stroke:#000000;stroke-width:2.5;" width="92" x="68.5" y="482.5625"/><text fill="#000000" font-family="sans-serif" font-size="12" lengthAdjust="spacing" textLength="70" x="79.5" y="497.5117">Sauvegarder</text><!--SRC=[bLNRRY9747sVhoWf3uP81cQmiOoYPBrWR0W3n2QRHAkirCmqR2TDDzlJZHnv-PUyih_1Z-NqZBaO_19a3rHrrQcgqrKrxpBBZCsOjC5pGFJ3vCU1TalE72LCSfKQmGtqbGeUprL_VhTPgytQC4bVgRMpWN2hPa9bNgldSwui4uPdjFBUWVSku6yjivJY8FdCr8nxmwoGcM691RB8hFZYeE658JDpPhapC7Eas1Amb3b3KIsAW5aW8qYUpp661oXyiftLytVKdGFJYCH9PeLMKBOtwucpj6HIf08GK7M4UYKFzFmWXQyqqWOPdl6dXTJ2Re5wpCquJOopd4hZtdiAgs6jHlQfl3iitOszC78Yooh4qdc5Id__vbLzhMOLkg-CePbxnOq2sHnbKA9LPerBNi9qHgsy87p2UkFg-WAwMgDQkwY2bn127N4ZBqGG7eU3mHyqw0w65D-CxxlzzYtLVJxn3PrJdr7CKiDcBeyKQsKDJ_CmbusQnuhyiz6e-Azh_8VNZIjy3PrO5RG6EtRlmRqsdlsSVF6QwVzt6-BamD_9gVONXoRsNPYU7HsUSXHMyVUIlu-VCn0pat4X9JyffwNTGkwRw7pNZMyMW3agCcff4BcrtHS4JTxoBvKSYBwv3kn71cDse3gf8xoCwlNZEyyJVkZ6mu6VHoHKbEEVntFurgYGFEFgYzjyixo8LqnM3WkAfPYAfA3ybUttr8J1fwvAmL1Y-QUzLqUmYP3v_BpbueybX-s1IrSXBx7CVPXIZkDMVFDFXPdxKLWm0o0zoRXPvjGKMCzK-hti2qDFGYoLmQYYrHwt3rUZfppBK83YabYIy8NbXWbxBgJF3vmlDFOPfys_v1Gkq64GQ9iq_RGBLQQNC4NCer3nPksx4PHkrebaWCLFXjxtZVINTaPXmJxvY1DjqYfO_LpmlzXymy-26zf-3hYv1vlMfONn4esJPoeP9KPuRjvqV7txzB73qNNcJvX-V6JOzJDcKY-lWbNm3kiyVna48ycK_JNk8upnZ55OGPFLAs6zXFr0RPvG668FDADQy_AAMhTZlv3hvQ1qD-fJXY8JB00qbn5eV02KWnvRCdfmoeevRz9mmLMl_VDMWTS71amhFmv1xqEyDsXSdByNbXvntvZm3t7GvbFcf8L7ebEXPargBSBeCWhwUACuDWFur0GONAonVvhKUVWF]--></g></svg>