<?xml version="1.0" encoding="us-ascii" standalone="no"?><svg xmlns="http://www.w3.org/2000/svg" xmlns:xlink="http://www.w3.org/1999/xlink" contentStyleType="text/css" height="447px" preserveAspectRatio="none" style="width:615px;height:447px;background:#FFFFFF;" version="1.1" viewBox="0 0 615 447" width="615px" zoomAndPan="magnify"><defs><filter height="1" id="bga32gwsbu79t0" width="1" x="0" y="0"><feFlood flood-color="#DDDDDD" result="flood"/><feComposite in="SourceGraphic" in2="flood" operator="over"/></filter></defs><g><text fill="#808080" font-family="sans-serif" font-size="20" font-weight="bold" lengthAdjust="spacing" textLength="188" x="8" y="29.582">Calendrier d'activit&#233;</text><text fill="#000000" font-family="sans-serif" font-size="12" lengthAdjust="spacing" textLength="67" x="8" y="49.5508">Observateur</text><line style="stroke:#AAAAAA;stroke-width:1.0;" x1="8" x2="197" y1="93.9844" y2="93.9844"/><text fill="#000000" font-family="sans-serif" font-size="12" lengthAdjust="spacing" textLength="39" x="8" y="111.4336">Accueil</text><text fill="#808080" font-family="sans-serif" font-size="10" lengthAdjust="spacing" textLength="87" x="8" y="145.1973">Saisie de donn&#233;es</text><line style="stroke:#AAAAAA;stroke-width:1.0;" x1="8" x2="197" y1="153.207" y2="153.207"/><text fill="#000000" filter="url(#bga32gwsbu79t0)" font-family="sans-serif" font-size="12" lengthAdjust="spacing" textLength="114" x="8" y="170.6563">Calendriers d'activit&#233;</text><text fill="#808080" font-family="sans-serif" font-size="10" lengthAdjust="spacing" textLength="56" x="8" y="222.3809">R&#233;f&#233;rentiels</text><line style="stroke:#AAAAAA;stroke-width:1.0;" x1="8" x2="197" y1="230.3906" y2="230.3906"/><line style="stroke:#AAAAAA;stroke-width:1.0;" x1="8" x2="197" y1="256.3516" y2="256.3516"/><text fill="#000000" font-family="sans-serif" font-size="12" lengthAdjust="spacing" textLength="86" x="8" y="273.8008">Se d&#233;connecter</text><line style="stroke:#AAAAAA;stroke-width:1.0;" x1="8" x2="197" y1="282.3125" y2="282.3125"/><text fill="#808080" font-family="sans-serif" font-size="10" lengthAdjust="spacing" textLength="80" x="8" y="299.6035">V XXX - &#224; propos</text><line style="stroke:#000000;stroke-width:1.0;" x1="6" x2="233" y1="6" y2="6"/><line style="stroke:#000000;stroke-width:1.0;" x1="6" x2="233" y1="304.1133" y2="304.1133"/><line style="stroke:#000000;stroke-width:1.0;" x1="6" x2="6" y1="6" y2="286.8125"/><line style="stroke:#000000;stroke-width:1.0;" x1="233" x2="233" y1="286.8125" y2="304.1133"/><line style="stroke:#000000;stroke-width:1.0;" x1="233" x2="233" y1="6" y2="286.8125"/><line style="stroke:#000000;stroke-width:1.0;" x1="6" x2="6" y1="286.8125" y2="304.1133"/><text fill="#000000" font-family="sans-serif" font-size="12" font-weight="bold" lengthAdjust="spacing" textLength="120" x="242" y="20.9492">Calendriers d'activit&#233;</text><rect fill="#EEEEEE" height="19.9609" rx="5" ry="5" style="stroke:#000000;stroke-width:2.5;" width="12" x="591.5" y="10.5"/><text fill="#000000" font-family="sans-serif" font-size="12" font-weight="bold" lengthAdjust="spacing" textLength="7" x="594" y="25.4492">+</text><line style="stroke:#AAAAAA;stroke-width:1.0;" x1="241" x2="608" y1="39.4609" y2="39.4609"/><text fill="#000000" font-family="sans-serif" font-size="12" font-weight="bold" lengthAdjust="spacing" textLength="102" x="397" y="237.5195">Fen&#234;tre principale</text><line style="stroke:#000000;stroke-width:1.0;" x1="240" x2="608" y1="6" y2="6"/><line style="stroke:#000000;stroke-width:1.0;" x1="240" x2="608" y1="440.1016" y2="440.1016"/><line style="stroke:#000000;stroke-width:1.0;" x1="240" x2="240" y1="6" y2="34.9609"/><line style="stroke:#000000;stroke-width:1.0;" x1="608" x2="608" y1="6" y2="34.9609"/><line style="stroke:#000000;stroke-width:1.0;" x1="240" x2="240" y1="278.4531" y2="296.4141"/><line style="stroke:#000000;stroke-width:1.0;" x1="608" x2="608" y1="278.4531" y2="296.4141"/><line style="stroke:#000000;stroke-width:1.0;" x1="240" x2="240" y1="204.6094" y2="222.5703"/><line style="stroke:#000000;stroke-width:1.0;" x1="608" x2="608" y1="204.6094" y2="222.5703"/><line style="stroke:#000000;stroke-width:1.0;" x1="240" x2="240" y1="132.7656" y2="150.7266"/><line style="stroke:#000000;stroke-width:1.0;" x1="608" x2="608" y1="132.7656" y2="150.7266"/><line style="stroke:#000000;stroke-width:1.0;" x1="240" x2="240" y1="404.1797" y2="422.1406"/><line style="stroke:#000000;stroke-width:1.0;" x1="608" x2="608" y1="404.1797" y2="422.1406"/><line style="stroke:#000000;stroke-width:1.0;" x1="240" x2="240" y1="60.9219" y2="78.8828"/><line style="stroke:#000000;stroke-width:1.0;" x1="608" x2="608" y1="60.9219" y2="78.8828"/><line style="stroke:#000000;stroke-width:1.0;" x1="240" x2="240" y1="332.3359" y2="350.2969"/><line style="stroke:#000000;stroke-width:1.0;" x1="608" x2="608" y1="332.3359" y2="350.2969"/><line style="stroke:#000000;stroke-width:1.0;" x1="240" x2="240" y1="260.4922" y2="278.4531"/><line style="stroke:#000000;stroke-width:1.0;" x1="608" x2="608" y1="260.4922" y2="278.4531"/><line style="stroke:#000000;stroke-width:1.0;" x1="240" x2="240" y1="186.6484" y2="204.6094"/><line style="stroke:#000000;stroke-width:1.0;" x1="608" x2="608" y1="186.6484" y2="204.6094"/><line style="stroke:#000000;stroke-width:1.0;" x1="240" x2="240" y1="114.8047" y2="132.7656"/><line style="stroke:#000000;stroke-width:1.0;" x1="608" x2="608" y1="114.8047" y2="132.7656"/><line style="stroke:#000000;stroke-width:1.0;" x1="240" x2="240" y1="386.2188" y2="404.1797"/><line style="stroke:#000000;stroke-width:1.0;" x1="608" x2="608" y1="386.2188" y2="404.1797"/><line style="stroke:#000000;stroke-width:1.0;" x1="240" x2="240" y1="42.9609" y2="60.9219"/><line style="stroke:#000000;stroke-width:1.0;" x1="608" x2="608" y1="42.9609" y2="60.9219"/><line style="stroke:#000000;stroke-width:1.0;" x1="240" x2="240" y1="314.375" y2="332.3359"/><line style="stroke:#000000;stroke-width:1.0;" x1="608" x2="608" y1="314.375" y2="332.3359"/><line style="stroke:#000000;stroke-width:1.0;" x1="240" x2="240" y1="242.5313" y2="260.4922"/><line style="stroke:#000000;stroke-width:1.0;" x1="608" x2="608" y1="242.5313" y2="260.4922"/><line style="stroke:#000000;stroke-width:1.0;" x1="240" x2="240" y1="168.6875" y2="186.6484"/><line style="stroke:#000000;stroke-width:1.0;" x1="608" x2="608" y1="168.6875" y2="186.6484"/><line style="stroke:#000000;stroke-width:1.0;" x1="240" x2="240" y1="96.8438" y2="114.8047"/><line style="stroke:#000000;stroke-width:1.0;" x1="608" x2="608" y1="96.8438" y2="114.8047"/><line style="stroke:#000000;stroke-width:1.0;" x1="240" x2="240" y1="368.2578" y2="386.2188"/><line style="stroke:#000000;stroke-width:1.0;" x1="608" x2="608" y1="368.2578" y2="386.2188"/><line style="stroke:#000000;stroke-width:1.0;" x1="240" x2="240" y1="34.9609" y2="42.9609"/><line style="stroke:#000000;stroke-width:1.0;" x1="608" x2="608" y1="34.9609" y2="42.9609"/><line style="stroke:#000000;stroke-width:1.0;" x1="240" x2="240" y1="296.4141" y2="314.375"/><line style="stroke:#000000;stroke-width:1.0;" x1="608" x2="608" y1="296.4141" y2="314.375"/><line style="stroke:#000000;stroke-width:1.0;" x1="240" x2="240" y1="222.5703" y2="242.5313"/><line style="stroke:#000000;stroke-width:1.0;" x1="608" x2="608" y1="222.5703" y2="242.5313"/><line style="stroke:#000000;stroke-width:1.0;" x1="240" x2="240" y1="150.7266" y2="168.6875"/><line style="stroke:#000000;stroke-width:1.0;" x1="608" x2="608" y1="150.7266" y2="168.6875"/><line style="stroke:#000000;stroke-width:1.0;" x1="240" x2="240" y1="422.1406" y2="440.1016"/><line style="stroke:#000000;stroke-width:1.0;" x1="608" x2="608" y1="422.1406" y2="440.1016"/><line style="stroke:#000000;stroke-width:1.0;" x1="240" x2="240" y1="78.8828" y2="96.8438"/><line style="stroke:#000000;stroke-width:1.0;" x1="608" x2="608" y1="78.8828" y2="96.8438"/><line style="stroke:#000000;stroke-width:1.0;" x1="240" x2="240" y1="350.2969" y2="368.2578"/><line style="stroke:#000000;stroke-width:1.0;" x1="608" x2="608" y1="350.2969" y2="368.2578"/><!--SRC=[jLDHJzim47xthpY9Xu5GeoR0456fs1f0wbg1obPLclRWkjVA8jYHxKI2Zl-or_0tyiUub6JfL2fDi4M-YtCvVtUVF_lCEcwSvR5ZImQmt2S7vMprTARTpbmh1qB7sfmk3Dw3bGzu6hIxFHwZcXc91cOVk70oawx8orK_mTjcDV3LrAB9kCFKr25lOz9grRDFGgGeumfy8_7r7lrszuPBAn5cDBHIHOvs4xipvU8st8cYQ8sINUTKPvQb_xxsgCZdHMvGEOdnAtKRh2PsGuqMkQ1UKJZQsARk7wcFR5sbhHsCOJAPG0kANv0OdMZxifQiakD5RLYMEc_XNcKsxetsFyPtQdl_nuhHxqtqtk6NRwVtJupeNA0gdfn14amg8HCIfUBdlSklNfNix96TaTIhEy-kOwxSj-40CX9UQWM-5xI30yy_s1tILuG2V1_yap1eXqV7q3l_2kN_FRPxUJq0grCZwCnAwuoSfeu0zbYVPnn6APtxEmpXAa7LZxxK0JXNcJHQtT6zOFtni4duUDZwB1rT0KEjm7Z88fppD7QqGkYPL8iGUeaV70LimDKYvGi2dnlMqmHixaEu63q3]--></g></svg>