<?xml version="1.0" encoding="us-ascii" standalone="no"?><svg xmlns="http://www.w3.org/2000/svg" xmlns:xlink="http://www.w3.org/1999/xlink" contentStyleType="text/css" height="286px" preserveAspectRatio="none" style="width:1124px;height:286px;background:#FFFFFF;" version="1.1" viewBox="0 0 1124 286" width="1124px" zoomAndPan="magnify"><defs/><g><text fill="#000000" font-family="sans-serif" font-size="12" lengthAdjust="spacing" textLength="41" x="6" y="18.9492">Navire :</text><text fill="#000000" font-family="sans-serif" font-size="12" font-weight="bold" lengthAdjust="spacing" textLength="206" x="50" y="18.9492">SONNY - 123456 - MA - 7,81 m - 2022</text><line style="stroke:#AAAAAA;stroke-width:1.0;" x1="6" x2="1117.6667" y1="27.4609" y2="27.4609"/><text fill="#000000" font-family="sans-serif" font-size="12" lengthAdjust="spacing" textLength="44" x="8" y="44.9102">G&#233;n&#233;ral</text><line style="stroke:#000000;stroke-width:1.0;" x1="6" x2="6" y1="31.9609" y2="47.9219"/><line style="stroke:#000000;stroke-width:1.0;" x1="6" x2="55" y1="31.9609" y2="31.9609"/><line style="stroke:#000000;stroke-width:1.0;" x1="55" x2="55" y1="31.9609" y2="47.9219"/><line style="stroke:#000000;stroke-width:1.0;" x1="55" x2="65" y1="47.9219" y2="47.9219"/><text fill="#000000" font-family="sans-serif" font-size="12" lengthAdjust="spacing" textLength="93" x="67" y="44.9102">Mois d'activit&#233; (4)</text><line style="stroke:#000000;stroke-width:1.0;" x1="65" x2="65" y1="31.9609" y2="47.9219"/><line style="stroke:#000000;stroke-width:1.0;" x1="65" x2="163" y1="31.9609" y2="31.9609"/><line style="stroke:#000000;stroke-width:1.0;" x1="163" x2="163" y1="31.9609" y2="47.9219"/><line style="stroke:#000000;stroke-width:1.0;" x1="163" x2="173" y1="47.9219" y2="47.9219"/><text fill="#000000" font-family="sans-serif" font-size="12" font-weight="bold" lengthAdjust="spacing" textLength="61" x="175" y="44.9102">M&#233;tiers (2)</text><line style="stroke:#000000;stroke-width:1.0;" x1="173" x2="173" y1="31.9609" y2="47.9219"/><line style="stroke:#000000;stroke-width:1.0;" x1="173" x2="239" y1="31.9609" y2="31.9609"/><line style="stroke:#000000;stroke-width:1.0;" x1="239" x2="239" y1="31.9609" y2="47.9219"/><line style="stroke:#000000;stroke-width:1.0;" x1="239" x2="249" y1="47.9219" y2="47.9219"/><text fill="#000000" font-family="sans-serif" font-size="12" lengthAdjust="spacing" textLength="84" x="251" y="44.9102">Zones d'activit&#233;</text><line style="stroke:#000000;stroke-width:1.0;" x1="249" x2="249" y1="31.9609" y2="47.9219"/><line style="stroke:#000000;stroke-width:1.0;" x1="249" x2="338" y1="31.9609" y2="31.9609"/><line style="stroke:#000000;stroke-width:1.0;" x1="338" x2="338" y1="31.9609" y2="47.9219"/><line style="stroke:#000000;stroke-width:1.0;" x1="338" x2="348" y1="47.9219" y2="47.9219"/><line style="stroke:#AAAAAA;stroke-width:1.0;stroke-dasharray:1.0,2.0;" x1="6" x2="1117.6667" y1="53.4219" y2="53.4219"/><path d="M11,63.8828 L11,66.8828 L8,66.8828 L8,68.8828 L11,68.8828 L11,71.8828 L13,71.8828 L13,68.8828 L16,68.8828 L16,66.8828 L13,66.8828 L13,63.8828 L11,63.8828 " fill="#000000" style="stroke:;stroke-width:0.0;stroke-dasharray:;"/><text fill="#000000" font-family="sans-serif" font-size="12" lengthAdjust="spacing" textLength="3" x="17" y="71.8711">&#160;</text><path d="M24,63.8828 C23.45,63.8828 23,64.3328 23,64.8828 L22,64.8828 C21.45,64.8828 21,65.3328 21,65.8828 L28,65.8828 C28,65.3328 27.55,64.8828 27,64.8828 L26,64.8828 C26,64.3328 25.55,63.8828 25,63.8828 L24,63.8828 M22,66.8828 L22,71.6928 C22,71.8028 22.08,71.8828 22.19,71.8828 L26.82,71.8828 C26.93,71.8828 27.01,71.8028 27.01,71.6928 L27.01,66.8828 L26.01,66.8828 L26.01,70.3828 C26.01,70.6628 25.79,70.8828 25.51,70.8828 C25.23,70.8828 25.01,70.6628 25.01,70.3828 L25.01,66.8828 L24.01,66.8828 L24.01,70.3828 C24.01,70.6628 23.79,70.8828 23.51,70.8828 C23.23,70.8828 23.01,70.6628 23.01,70.3828 L23.01,66.8828 L22.01,66.8828 " fill="#000000" style="stroke:;stroke-width:0.0;stroke-dasharray:;"/><text fill="#000000" font-family="sans-serif" font-size="12" lengthAdjust="spacing" textLength="3" x="28" y="92.832">.</text><rect fill="none" height="10" style="stroke:#000000;stroke-width:1.5;" width="10" x="10" y="82.8633"/><text fill="#000000" font-family="sans-serif" font-size="12" lengthAdjust="spacing" textLength="33" x="33" y="92.832">M&#233;tier</text><text fill="#000000" font-family="sans-serif" font-size="12" font-weight="bold" lengthAdjust="spacing" textLength="193" x="230" y="93.832">Maillage de l'engin (logbook) (mm)</text><text fill="#000000" font-family="sans-serif" font-size="12" lengthAdjust="spacing" textLength="38" x="230" y="111.793">engin -</text><text fill="#000000" font-family="sans-serif" font-size="12" lengthAdjust="spacing" textLength="58" x="230" y="129.7539">inconnue -</text><text fill="#000000" font-family="sans-serif" font-size="12" lengthAdjust="spacing" textLength="168" x="230" y="147.7148">D&#233;claration d'un professionnel</text><text fill="#000000" font-family="sans-serif" font-size="12" font-weight="bold" lengthAdjust="spacing" textLength="166" x="427" y="93.832">Maillage &#233;tir&#233; de l'engin (mm)</text><text fill="#000000" font-family="sans-serif" font-size="12" lengthAdjust="spacing" textLength="38" x="427" y="111.793">engin -</text><text fill="#000000" font-family="sans-serif" font-size="12" lengthAdjust="spacing" textLength="101" x="427" y="129.7539">plus petite maille -</text><text fill="#000000" font-family="sans-serif" font-size="12" lengthAdjust="spacing" textLength="168" x="427" y="147.7148">D&#233;claration d'un professionnel</text><text fill="#000000" font-family="sans-serif" font-size="12" font-weight="bold" lengthAdjust="spacing" textLength="166" x="599" y="93.832">Maillage &#233;tir&#233; de l'engin (mm)</text><text fill="#000000" font-family="sans-serif" font-size="12" lengthAdjust="spacing" textLength="38" x="599" y="111.793">engin -</text><text fill="#000000" font-family="sans-serif" font-size="12" lengthAdjust="spacing" textLength="110" x="599" y="129.7539">plus grande maille -</text><text fill="#000000" font-family="sans-serif" font-size="12" lengthAdjust="spacing" textLength="168" x="599" y="147.7148">D&#233;claration d'un professionnel</text><text fill="#000000" font-family="sans-serif" font-size="12" font-weight="bold" lengthAdjust="spacing" textLength="109" x="771" y="93.832">Longueur lev&#233;e (m)</text><text fill="#000000" font-family="sans-serif" font-size="12" lengthAdjust="spacing" textLength="38" x="771" y="111.793">engin -</text><text fill="#000000" font-family="sans-serif" font-size="12" lengthAdjust="spacing" textLength="37" x="771" y="129.7539">totale -</text><text fill="#000000" font-family="sans-serif" font-size="12" lengthAdjust="spacing" textLength="168" x="771" y="147.7148">D&#233;claration d'un professionnel</text><text fill="#000000" font-family="sans-serif" font-size="12" lengthAdjust="spacing" textLength="3" x="28" y="166.6758">.</text><rect fill="none" height="10" style="stroke:#000000;stroke-width:1.5;" width="10" x="10" y="156.707"/><polygon fill="#000000" points="11,159.7266,14,162.7266,21,153.7266,14,160.7266" style="stroke:#000000;stroke-width:1.5;"/><text fill="#000000" font-family="sans-serif" font-size="12" lengthAdjust="spacing" textLength="172" x="33" y="166.6758">GTRMZZ - Tr&#233;mails &#224; poissons</text><text fill="#000000" font-family="sans-serif" font-size="12" lengthAdjust="spacing" textLength="21" x="229" y="166.6758">100</text><text fill="#000000" font-family="sans-serif" font-size="12" lengthAdjust="spacing" textLength="14" x="426" y="166.6758">97</text><text fill="#000000" font-family="sans-serif" font-size="12" lengthAdjust="spacing" textLength="21" x="598" y="166.6758">103</text><text fill="#000000" font-family="sans-serif" font-size="12" lengthAdjust="spacing" textLength="3" x="28" y="184.6367">.</text><rect fill="none" height="10" style="stroke:#000000;stroke-width:1.5;" width="10" x="10" y="174.668"/><text fill="#000000" font-family="sans-serif" font-size="12" lengthAdjust="spacing" textLength="194" x="33" y="184.6367">GTRNEP - Tr&#233;mails &#224; langoustines</text><text fill="#000000" font-family="sans-serif" font-size="12" lengthAdjust="spacing" textLength="14" x="426" y="184.6367">57</text><text fill="#000000" font-family="sans-serif" font-size="12" lengthAdjust="spacing" textLength="21" x="770" y="184.6367">100</text><line style="stroke:#000000;stroke-width:1.0;" x1="7" x2="32" y1="78.8828" y2="78.8828"/><line style="stroke:#000000;stroke-width:1.0;" x1="228" x2="425" y1="170.6875" y2="170.6875"/><line style="stroke:#000000;stroke-width:1.0;" x1="32" x2="228" y1="78.8828" y2="78.8828"/><line style="stroke:#000000;stroke-width:1.0;" x1="425" x2="597" y1="170.6875" y2="170.6875"/><line style="stroke:#000000;stroke-width:1.0;" x1="228" x2="425" y1="78.8828" y2="78.8828"/><line style="stroke:#000000;stroke-width:1.0;" x1="597" x2="769" y1="170.6875" y2="170.6875"/><line style="stroke:#000000;stroke-width:1.0;" x1="425" x2="597" y1="78.8828" y2="78.8828"/><line style="stroke:#000000;stroke-width:1.0;" x1="769" x2="941" y1="170.6875" y2="170.6875"/><line style="stroke:#000000;stroke-width:1.0;" x1="597" x2="769" y1="78.8828" y2="78.8828"/><line style="stroke:#000000;stroke-width:1.0;" x1="769" x2="941" y1="78.8828" y2="78.8828"/><line style="stroke:#000000;stroke-width:1.0;" x1="7" x2="32" y1="188.6484" y2="188.6484"/><line style="stroke:#000000;stroke-width:1.0;" x1="32" x2="228" y1="188.6484" y2="188.6484"/><line style="stroke:#000000;stroke-width:1.0;" x1="228" x2="425" y1="188.6484" y2="188.6484"/><line style="stroke:#000000;stroke-width:1.0;" x1="7" x2="32" y1="152.7266" y2="152.7266"/><line style="stroke:#000000;stroke-width:1.0;" x1="425" x2="597" y1="188.6484" y2="188.6484"/><line style="stroke:#000000;stroke-width:1.0;" x1="32" x2="228" y1="152.7266" y2="152.7266"/><line style="stroke:#000000;stroke-width:1.0;" x1="597" x2="769" y1="188.6484" y2="188.6484"/><line style="stroke:#000000;stroke-width:1.0;" x1="228" x2="425" y1="152.7266" y2="152.7266"/><line style="stroke:#000000;stroke-width:1.0;" x1="769" x2="941" y1="188.6484" y2="188.6484"/><line style="stroke:#000000;stroke-width:1.0;" x1="425" x2="597" y1="152.7266" y2="152.7266"/><line style="stroke:#000000;stroke-width:1.0;" x1="597" x2="769" y1="152.7266" y2="152.7266"/><line style="stroke:#000000;stroke-width:1.0;" x1="769" x2="941" y1="152.7266" y2="152.7266"/><line style="stroke:#000000;stroke-width:1.0;" x1="7" x2="32" y1="170.6875" y2="170.6875"/><line style="stroke:#000000;stroke-width:1.0;" x1="32" x2="228" y1="170.6875" y2="170.6875"/><line style="stroke:#000000;stroke-width:1.0;" x1="7" x2="7" y1="78.8828" y2="152.7266"/><line style="stroke:#000000;stroke-width:1.0;" x1="228" x2="228" y1="170.6875" y2="188.6484"/><line style="stroke:#000000;stroke-width:1.0;" x1="32" x2="32" y1="78.8828" y2="152.7266"/><line style="stroke:#000000;stroke-width:1.0;" x1="425" x2="425" y1="170.6875" y2="188.6484"/><line style="stroke:#000000;stroke-width:1.0;" x1="228" x2="228" y1="78.8828" y2="152.7266"/><line style="stroke:#000000;stroke-width:1.0;" x1="597" x2="597" y1="170.6875" y2="188.6484"/><line style="stroke:#000000;stroke-width:1.0;" x1="425" x2="425" y1="78.8828" y2="152.7266"/><line style="stroke:#000000;stroke-width:1.0;" x1="769" x2="769" y1="170.6875" y2="188.6484"/><line style="stroke:#000000;stroke-width:1.0;" x1="941" x2="941" y1="170.6875" y2="188.6484"/><line style="stroke:#000000;stroke-width:1.0;" x1="597" x2="597" y1="78.8828" y2="152.7266"/><line style="stroke:#000000;stroke-width:1.0;" x1="769" x2="769" y1="78.8828" y2="152.7266"/><line style="stroke:#000000;stroke-width:1.0;" x1="941" x2="941" y1="78.8828" y2="152.7266"/><line style="stroke:#000000;stroke-width:1.0;" x1="7" x2="7" y1="152.7266" y2="170.6875"/><line style="stroke:#000000;stroke-width:1.0;" x1="32" x2="32" y1="152.7266" y2="170.6875"/><line style="stroke:#000000;stroke-width:1.0;" x1="228" x2="228" y1="152.7266" y2="170.6875"/><line style="stroke:#000000;stroke-width:1.0;" x1="425" x2="425" y1="152.7266" y2="170.6875"/><line style="stroke:#000000;stroke-width:1.0;" x1="597" x2="597" y1="152.7266" y2="170.6875"/><line style="stroke:#000000;stroke-width:1.0;" x1="769" x2="769" y1="152.7266" y2="170.6875"/><line style="stroke:#000000;stroke-width:1.0;" x1="941" x2="941" y1="152.7266" y2="170.6875"/><line style="stroke:#000000;stroke-width:1.0;" x1="7" x2="7" y1="170.6875" y2="188.6484"/><line style="stroke:#000000;stroke-width:1.0;" x1="32" x2="32" y1="170.6875" y2="188.6484"/><text fill="#808080" font-family="sans-serif" font-size="10" lengthAdjust="spacing" textLength="46" x="945" y="91.6738">Saisisseur</text><text fill="#000000" font-family="sans-serif" font-size="12" lengthAdjust="spacing" textLength="30" x="945" y="109.1328">Obs1</text><text fill="#808080" font-family="sans-serif" font-size="10" lengthAdjust="spacing" textLength="48" x="945" y="124.9355">Groupe EI</text><line style="stroke:#AAAAAA;stroke-width:1.0;" x1="945" x2="1114.6667" y1="132.9453" y2="132.9453"/><path d="M946,141.5794 L946,143.2461 L951.8333,143.2461 L951.8333,141.5794 L946,141.5794 M946,144.0794 L946,148.1711 C946,148.2128 946.0333,148.2461 946.075,148.2461 L951.75,148.2461 C951.7917,148.2461 951.825,148.2128 951.825,148.1711 L951.825,144.0794 L945.9917,144.0794 M946.8333,144.9128 L947.6667,144.9128 L947.6667,145.7461 L946.8333,145.7461 L946.8333,144.9128 M948.5,144.9128 L949.3333,144.9128 L949.3333,145.7461 L948.5,145.7461 L948.5,144.9128 M950.1667,144.9128 L951,144.9128 L951,145.7461 L950.1667,145.7461 L950.1667,144.9128 M946.8333,146.5794 L947.6667,146.5794 L947.6667,147.4128 L946.8333,147.4128 L946.8333,146.5794 M948.5,146.5794 L949.3333,146.5794 L949.3333,147.4128 L948.5,147.4128 L948.5,146.5794 " fill="#808080" style="stroke:;stroke-width:0.0;stroke-dasharray:;"/><text fill="#808080" font-family="sans-serif" font-size="10" lengthAdjust="spacing" textLength="136" x="953.6667" y="148.2363">Cr&#233;&#233; le 20/03/2023 17:08:31</text><path d="M949.3333,156.8802 C947.5,156.8802 946,158.3802 946,160.2135 C946,162.0469 947.5,163.5469 949.3333,163.5469 C951.1667,163.5469 952.6667,162.0469 952.6667,160.2135 C952.6667,158.3802 951.1667,156.8802 949.3333,156.8802 M949.3333,157.7135 C950.7167,157.7135 951.8333,158.8302 951.8333,160.2135 C951.8333,161.5969 950.7167,162.7135 949.3333,162.7135 C947.95,162.7135 946.8333,161.5969 946.8333,160.2135 C946.8333,158.8302 947.95,157.7135 949.3333,157.7135 M948.9167,158.5469 L948.9167,160.3969 L949.05,160.5052 L949.4667,160.9219 L949.75,161.2385 L950.35,160.6385 L950.0333,160.3552 L949.75,160.0719 L949.75,158.5635 L948.9167,158.5635 " fill="#808080" style="stroke:;stroke-width:0.0;stroke-dasharray:;"/><text fill="#808080" font-family="sans-serif" font-size="10" lengthAdjust="spacing" textLength="160" x="953.6667" y="163.5371">Mis &#224; jour le 20/03/2023 17:08:31</text><text fill="#808080" font-family="sans-serif" font-size="10" lengthAdjust="spacing" textLength="56" x="945" y="196.7988">Mode saisie</text><text fill="#808080" font-family="sans-serif" font-size="10" font-weight="bold" lengthAdjust="spacing" textLength="34" x="1004" y="196.7988">bureau</text><rect fill="#EEEEEE" height="19.9609" rx="5" ry="5" style="stroke:#000000;stroke-width:2.5;" width="156" x="947.5" y="221.7695"/><text fill="#000000" font-family="sans-serif" font-size="12" lengthAdjust="spacing" textLength="100" x="975.5" y="236.7188">Terminer la saisie</text><line style="stroke:#000000;stroke-width:1.0;" x1="943" x2="1115.6667" y1="78.8828" y2="78.8828"/><line style="stroke:#000000;stroke-width:1.0;" x1="943" x2="1115.6667" y1="246.2305" y2="246.2305"/><line style="stroke:#000000;stroke-width:1.0;" x1="943" x2="943" y1="78.8828" y2="246.2305"/><line style="stroke:#000000;stroke-width:1.0;" x1="1115.6667" x2="1115.6667" y1="78.8828" y2="246.2305"/><line style="stroke:#AAAAAA;stroke-width:1.0;" x1="6" x2="1117.6667" y1="252.7305" y2="252.7305"/><rect fill="#EEEEEE" height="19.9609" rx="5" ry="5" style="stroke:#000000;stroke-width:2.5;" width="52" x="9.5" y="260.7305"/><text fill="#000000" font-family="sans-serif" font-size="12" lengthAdjust="spacing" textLength="40" x="15.5" y="275.6797">Fermer</text><rect fill="#EEEEEE" height="19.9609" rx="5" ry="5" style="stroke:#000000;stroke-width:2.5;" width="92" x="68.5" y="260.7305"/><text fill="#000000" font-family="sans-serif" font-size="12" lengthAdjust="spacing" textLength="70" x="79.5" y="275.6797">Sauvegarder</text><!--SRC=[pLJHRjem57tFLrnfKWlQGfFGbZQYg1jGr8xGgh1gA-g32IRpwjZ8Tf0wcd_PAz-H7zirfTlADerEUnWIndRkEHmVdznZROWocd3Zp1s07fanHI64-gZHF-_rFe0BVb3TtTl7IVGQXzgh0nzId0HU4232TN6Oxq2dM8XYeGY7UuWaqp3U9h5XCsQA1PHsoxYDd56nC8mg3QN0xbnBGPzKvaXMgLX6g6zDUQOR-6iKqHyRO9zPZVCNC8IR2jolo91dRga9uvma5COK-3OL2HDGuZ8PINbRXbAQbX7xzFDGvFwqpqGiXSZeBnwrYaNCYIA6IO72Cm5J9ITKQrmBodEuNuCyaMO5A_JZHudF4MOTWIarp518BUb_AZ5HH8p_jSIk54b6CmMSpee5HLcRgpBIaBzIyW0OlhTvWyxWChg-nkmFq25xE0t55vXYshKK6WjypyFniBQSLd6ihF3mYE-rBzRnd8X4Pjem-ouW1BzxjTK42P4Xjn5_kMu9r2TI68Wbb-eeKVGEDFjCZtolqITCeoRqQWrpFjB-sjPlIJfAPbCAxTCrWEjkob3VYj5qCIQgqSG3OwZm2W9lnwlkOFEeWbyBlOEmwZ-3ZylujX6nfM-Vv38B6p1MDls7I69gjNMFscuroXGbsH_8XZ2WAiNBGp5a1RvPgydp_5khXE49rbDrWvSwx9DiHXEYndQTExbpZ7ujkx5pWRamxw8kpB1VsdJw5Nl6YbyjHRXgqHXy7_p3CF12p4kpFR0jkLfsIfsBBcWq9yPUoBHHR9JPU9UTCp8ZS9a9mr8QmlcKYhFMsySDQ0li_LAaL1Zdx2hwNh2_wxvX1lfKeHIuYfmMdP2C6qJ4Sin44a9pwWTxWTF5A6VOHKAOAASfaLZTXN1o-HK0]--></g></svg>