<?xml version="1.0" encoding="us-ascii" standalone="no"?><svg xmlns="http://www.w3.org/2000/svg" xmlns:xlink="http://www.w3.org/1999/xlink" contentStyleType="text/css" height="706px" preserveAspectRatio="none" style="width:1116px;height:706px;background:#FFFFFF;" version="1.1" viewBox="0 0 1116 706" width="1116px" zoomAndPan="magnify"><defs/><g><text fill="#000000" font-family="sans-serif" font-size="12" lengthAdjust="spacing" textLength="41" x="6" y="18.9492">Navire :</text><text fill="#000000" font-family="sans-serif" font-size="12" font-weight="bold" lengthAdjust="spacing" textLength="308" x="50" y="18.9492">SONNY NINO MATHILDE 3 - 123456 - MA - 7,81 m - 2022</text><line style="stroke:#AAAAAA;stroke-width:1.0;" x1="6" x2="1109" y1="27.4609" y2="27.4609"/><text fill="#000000" font-family="sans-serif" font-size="12" font-weight="bold" lengthAdjust="spacing" textLength="44" x="8" y="44.9102">G&#233;n&#233;ral</text><line style="stroke:#000000;stroke-width:1.0;" x1="6" x2="6" y1="31.9609" y2="47.9219"/><line style="stroke:#000000;stroke-width:1.0;" x1="6" x2="55" y1="31.9609" y2="31.9609"/><line style="stroke:#000000;stroke-width:1.0;" x1="55" x2="55" y1="31.9609" y2="47.9219"/><line style="stroke:#000000;stroke-width:1.0;" x1="55" x2="65" y1="47.9219" y2="47.9219"/><text fill="#000000" font-family="sans-serif" font-size="12" lengthAdjust="spacing" textLength="58" x="67" y="44.9102">Calendrier</text><line style="stroke:#000000;stroke-width:1.0;" x1="65" x2="65" y1="31.9609" y2="47.9219"/><line style="stroke:#000000;stroke-width:1.0;" x1="65" x2="128" y1="31.9609" y2="31.9609"/><line style="stroke:#000000;stroke-width:1.0;" x1="128" x2="128" y1="31.9609" y2="47.9219"/><line style="stroke:#000000;stroke-width:1.0;" x1="128" x2="138" y1="47.9219" y2="47.9219"/><text fill="#000000" font-family="sans-serif" font-size="12" lengthAdjust="spacing" textLength="40" x="140" y="44.9102">M&#233;tiers</text><line style="stroke:#000000;stroke-width:1.0;" x1="138" x2="138" y1="31.9609" y2="47.9219"/><line style="stroke:#000000;stroke-width:1.0;" x1="138" x2="183" y1="31.9609" y2="31.9609"/><line style="stroke:#000000;stroke-width:1.0;" x1="183" x2="183" y1="31.9609" y2="47.9219"/><line style="stroke:#000000;stroke-width:1.0;" x1="183" x2="193" y1="47.9219" y2="47.9219"/><text fill="#000000" font-family="sans-serif" font-size="12" lengthAdjust="spacing" textLength="30" x="195" y="44.9102">Carte</text><line style="stroke:#000000;stroke-width:1.0;" x1="193" x2="193" y1="31.9609" y2="47.9219"/><line style="stroke:#000000;stroke-width:1.0;" x1="193" x2="228" y1="31.9609" y2="31.9609"/><line style="stroke:#000000;stroke-width:1.0;" x1="228" x2="228" y1="31.9609" y2="47.9219"/><line style="stroke:#000000;stroke-width:1.0;" x1="228" x2="238" y1="47.9219" y2="47.9219"/><line style="stroke:#AAAAAA;stroke-width:1.0;stroke-dasharray:1.0,2.0;" x1="6" x2="1109" y1="53.4219" y2="53.4219"/><text fill="#000000" font-family="sans-serif" font-size="12" font-weight="bold" lengthAdjust="spacing" textLength="457" x="7" y="89.832">Etat des changements des caract&#233;ristiques et des armateurs du navire sur 2022</text><text fill="#000000" font-family="sans-serif" font-size="12" lengthAdjust="spacing" textLength="158" x="13" y="108.793">Caract&#233;ristiques des navires</text><text fill="#000000" font-family="sans-serif" font-size="12" lengthAdjust="spacing" textLength="85" x="14" y="127.7539">Immatriculation</text><text fill="#000000" font-family="sans-serif" font-size="12" lengthAdjust="spacing" textLength="74" x="101" y="127.7539">D&#233;but validit&#233;</text><text fill="#000000" font-family="sans-serif" font-size="12" lengthAdjust="spacing" textLength="58" x="177" y="127.7539">Fin validit&#233;</text><text fill="#000000" font-family="sans-serif" font-size="12" lengthAdjust="spacing" textLength="80" x="241" y="127.7539">Nom du navire</text><text fill="#000000" font-family="sans-serif" font-size="12" lengthAdjust="spacing" textLength="96" x="390" y="127.7539">Port d'exploitation</text><text fill="#000000" font-family="sans-serif" font-size="12" lengthAdjust="spacing" textLength="142" x="574" y="127.7539">Jauge brute (TJB 1/100 tx)</text><text fill="#000000" font-family="sans-serif" font-size="12" lengthAdjust="spacing" textLength="61" x="718" y="127.7539">Jauge (GT)</text><text fill="#000000" font-family="sans-serif" font-size="12" lengthAdjust="spacing" textLength="94" x="781" y="127.7539">Puiss. adm. (kW)</text><text fill="#000000" font-family="sans-serif" font-size="12" lengthAdjust="spacing" textLength="78" x="877" y="127.7539">Long. H.T. (m)</text><text fill="#000000" font-family="sans-serif" font-size="12" lengthAdjust="spacing" textLength="122" x="957" y="127.7539">Ann&#233;e de construction</text><text fill="#000000" font-family="sans-serif" font-size="12" lengthAdjust="spacing" textLength="24" x="1081" y="127.7539">FPC</text><text fill="#000000" font-family="sans-serif" font-size="12" lengthAdjust="spacing" textLength="42" x="14" y="145.7148">123456</text><text fill="#000000" font-family="sans-serif" font-size="12" lengthAdjust="spacing" textLength="62" x="101" y="145.7148">06/04/2021</text><text fill="#000000" font-family="sans-serif" font-size="12" lengthAdjust="spacing" textLength="62" x="177" y="145.7148">31/12/2022</text><text fill="#000000" font-family="sans-serif" font-size="12" lengthAdjust="spacing" textLength="147" x="241" y="145.7148">SONNY NINO MATHILDE 3</text><text fill="#000000" font-family="sans-serif" font-size="12" lengthAdjust="spacing" textLength="182" x="390" y="145.7148">JMA - La Madrague de Montredon</text><text fill="#000000" font-family="sans-serif" font-size="12" lengthAdjust="spacing" textLength="21" x="574" y="145.7148">560</text><text fill="#000000" font-family="sans-serif" font-size="12" lengthAdjust="spacing" textLength="21" x="718" y="145.7148">320</text><text fill="#000000" font-family="sans-serif" font-size="12" lengthAdjust="spacing" textLength="24" x="781" y="145.7148">66.0</text><text fill="#000000" font-family="sans-serif" font-size="12" lengthAdjust="spacing" textLength="7" x="877" y="145.7148">9</text><text fill="#000000" font-family="sans-serif" font-size="12" lengthAdjust="spacing" textLength="28" x="957" y="145.7148">1967</text><text fill="#000000" font-family="sans-serif" font-size="12" lengthAdjust="spacing" textLength="19" x="1081" y="145.7148">Oui</text><line style="stroke:#000000;stroke-width:1.0;" x1="13" x2="100" y1="113.8047" y2="113.8047"/><line style="stroke:#000000;stroke-width:1.0;" x1="100" x2="176" y1="113.8047" y2="113.8047"/><line style="stroke:#000000;stroke-width:1.0;" x1="176" x2="240" y1="113.8047" y2="113.8047"/><line style="stroke:#000000;stroke-width:1.0;" x1="240" x2="389" y1="113.8047" y2="113.8047"/><line style="stroke:#000000;stroke-width:1.0;" x1="389" x2="573" y1="113.8047" y2="113.8047"/><line style="stroke:#000000;stroke-width:1.0;" x1="573" x2="717" y1="113.8047" y2="113.8047"/><line style="stroke:#000000;stroke-width:1.0;" x1="717" x2="780" y1="113.8047" y2="113.8047"/><line style="stroke:#000000;stroke-width:1.0;" x1="780" x2="876" y1="113.8047" y2="113.8047"/><line style="stroke:#000000;stroke-width:1.0;" x1="876" x2="956" y1="113.8047" y2="113.8047"/><line style="stroke:#000000;stroke-width:1.0;" x1="956" x2="1080" y1="113.8047" y2="113.8047"/><line style="stroke:#000000;stroke-width:1.0;" x1="1080" x2="1106" y1="113.8047" y2="113.8047"/><line style="stroke:#000000;stroke-width:1.0;" x1="13" x2="100" y1="149.7266" y2="149.7266"/><line style="stroke:#000000;stroke-width:1.0;" x1="100" x2="176" y1="149.7266" y2="149.7266"/><line style="stroke:#000000;stroke-width:1.0;" x1="176" x2="240" y1="149.7266" y2="149.7266"/><line style="stroke:#000000;stroke-width:1.0;" x1="240" x2="389" y1="149.7266" y2="149.7266"/><line style="stroke:#000000;stroke-width:1.0;" x1="389" x2="573" y1="149.7266" y2="149.7266"/><line style="stroke:#000000;stroke-width:1.0;" x1="573" x2="717" y1="149.7266" y2="149.7266"/><line style="stroke:#000000;stroke-width:1.0;" x1="717" x2="780" y1="149.7266" y2="149.7266"/><line style="stroke:#000000;stroke-width:1.0;" x1="780" x2="876" y1="149.7266" y2="149.7266"/><line style="stroke:#000000;stroke-width:1.0;" x1="876" x2="956" y1="149.7266" y2="149.7266"/><line style="stroke:#000000;stroke-width:1.0;" x1="956" x2="1080" y1="149.7266" y2="149.7266"/><line style="stroke:#000000;stroke-width:1.0;" x1="1080" x2="1106" y1="149.7266" y2="149.7266"/><line style="stroke:#000000;stroke-width:1.0;" x1="13" x2="100" y1="131.7656" y2="131.7656"/><line style="stroke:#000000;stroke-width:1.0;" x1="100" x2="176" y1="131.7656" y2="131.7656"/><line style="stroke:#000000;stroke-width:1.0;" x1="176" x2="240" y1="131.7656" y2="131.7656"/><line style="stroke:#000000;stroke-width:1.0;" x1="240" x2="389" y1="131.7656" y2="131.7656"/><line style="stroke:#000000;stroke-width:1.0;" x1="389" x2="573" y1="131.7656" y2="131.7656"/><line style="stroke:#000000;stroke-width:1.0;" x1="573" x2="717" y1="131.7656" y2="131.7656"/><line style="stroke:#000000;stroke-width:1.0;" x1="717" x2="780" y1="131.7656" y2="131.7656"/><line style="stroke:#000000;stroke-width:1.0;" x1="780" x2="876" y1="131.7656" y2="131.7656"/><line style="stroke:#000000;stroke-width:1.0;" x1="876" x2="956" y1="131.7656" y2="131.7656"/><line style="stroke:#000000;stroke-width:1.0;" x1="956" x2="1080" y1="131.7656" y2="131.7656"/><line style="stroke:#000000;stroke-width:1.0;" x1="1080" x2="1106" y1="131.7656" y2="131.7656"/><line style="stroke:#000000;stroke-width:1.0;" x1="13" x2="13" y1="113.8047" y2="131.7656"/><line style="stroke:#000000;stroke-width:1.0;" x1="100" x2="100" y1="113.8047" y2="131.7656"/><line style="stroke:#000000;stroke-width:1.0;" x1="176" x2="176" y1="113.8047" y2="131.7656"/><line style="stroke:#000000;stroke-width:1.0;" x1="240" x2="240" y1="113.8047" y2="131.7656"/><line style="stroke:#000000;stroke-width:1.0;" x1="389" x2="389" y1="113.8047" y2="131.7656"/><line style="stroke:#000000;stroke-width:1.0;" x1="573" x2="573" y1="113.8047" y2="131.7656"/><line style="stroke:#000000;stroke-width:1.0;" x1="717" x2="717" y1="113.8047" y2="131.7656"/><line style="stroke:#000000;stroke-width:1.0;" x1="780" x2="780" y1="113.8047" y2="131.7656"/><line style="stroke:#000000;stroke-width:1.0;" x1="876" x2="876" y1="113.8047" y2="131.7656"/><line style="stroke:#000000;stroke-width:1.0;" x1="956" x2="956" y1="113.8047" y2="131.7656"/><line style="stroke:#000000;stroke-width:1.0;" x1="1080" x2="1080" y1="113.8047" y2="131.7656"/><line style="stroke:#000000;stroke-width:1.0;" x1="1106" x2="1106" y1="113.8047" y2="131.7656"/><line style="stroke:#000000;stroke-width:1.0;" x1="13" x2="13" y1="131.7656" y2="149.7266"/><line style="stroke:#000000;stroke-width:1.0;" x1="100" x2="100" y1="131.7656" y2="149.7266"/><line style="stroke:#000000;stroke-width:1.0;" x1="176" x2="176" y1="131.7656" y2="149.7266"/><line style="stroke:#000000;stroke-width:1.0;" x1="240" x2="240" y1="131.7656" y2="149.7266"/><line style="stroke:#000000;stroke-width:1.0;" x1="389" x2="389" y1="131.7656" y2="149.7266"/><line style="stroke:#000000;stroke-width:1.0;" x1="573" x2="573" y1="131.7656" y2="149.7266"/><line style="stroke:#000000;stroke-width:1.0;" x1="717" x2="717" y1="131.7656" y2="149.7266"/><line style="stroke:#000000;stroke-width:1.0;" x1="780" x2="780" y1="131.7656" y2="149.7266"/><line style="stroke:#000000;stroke-width:1.0;" x1="876" x2="876" y1="131.7656" y2="149.7266"/><line style="stroke:#000000;stroke-width:1.0;" x1="956" x2="956" y1="131.7656" y2="149.7266"/><line style="stroke:#000000;stroke-width:1.0;" x1="1080" x2="1080" y1="131.7656" y2="149.7266"/><line style="stroke:#000000;stroke-width:1.0;" x1="1106" x2="1106" y1="131.7656" y2="149.7266"/><text fill="#000000" font-family="sans-serif" font-size="12" lengthAdjust="spacing" textLength="219" x="13" y="182.6367">Historique des immatriculations navires</text><text fill="#000000" font-family="sans-serif" font-size="12" lengthAdjust="spacing" textLength="85" x="14" y="201.5977">Immatriculation</text><text fill="#000000" font-family="sans-serif" font-size="12" lengthAdjust="spacing" textLength="121" x="101" y="201.5977">D&#233;but immatriculation</text><text fill="#000000" font-family="sans-serif" font-size="12" lengthAdjust="spacing" textLength="105" x="224" y="201.5977">Fin immatriculation</text><text fill="#000000" font-family="sans-serif" font-size="12" lengthAdjust="spacing" textLength="141" x="331" y="201.5977">Quartier d'immatriculation</text><text fill="#000000" font-family="sans-serif" font-size="12" lengthAdjust="spacing" textLength="42" x="14" y="219.5586">123456</text><text fill="#000000" font-family="sans-serif" font-size="12" lengthAdjust="spacing" textLength="62" x="101" y="219.5586">01/01/1967</text><text fill="#000000" font-family="sans-serif" font-size="12" lengthAdjust="spacing" textLength="76" x="331" y="219.5586">MA - Marseille</text><line style="stroke:#000000;stroke-width:1.0;" x1="13" x2="100" y1="187.6484" y2="187.6484"/><line style="stroke:#000000;stroke-width:1.0;" x1="223" x2="330" y1="223.5703" y2="223.5703"/><line style="stroke:#000000;stroke-width:1.0;" x1="100" x2="223" y1="205.6094" y2="205.6094"/><line style="stroke:#000000;stroke-width:1.0;" x1="100" x2="223" y1="187.6484" y2="187.6484"/><line style="stroke:#000000;stroke-width:1.0;" x1="330" x2="473" y1="223.5703" y2="223.5703"/><line style="stroke:#000000;stroke-width:1.0;" x1="223" x2="330" y1="205.6094" y2="205.6094"/><line style="stroke:#000000;stroke-width:1.0;" x1="223" x2="330" y1="187.6484" y2="187.6484"/><line style="stroke:#000000;stroke-width:1.0;" x1="330" x2="473" y1="205.6094" y2="205.6094"/><line style="stroke:#000000;stroke-width:1.0;" x1="330" x2="473" y1="187.6484" y2="187.6484"/><line style="stroke:#000000;stroke-width:1.0;" x1="13" x2="100" y1="223.5703" y2="223.5703"/><line style="stroke:#000000;stroke-width:1.0;" x1="100" x2="223" y1="223.5703" y2="223.5703"/><line style="stroke:#000000;stroke-width:1.0;" x1="13" x2="100" y1="205.6094" y2="205.6094"/><line style="stroke:#000000;stroke-width:1.0;" x1="13" x2="13" y1="187.6484" y2="205.6094"/><line style="stroke:#000000;stroke-width:1.0;" x1="100" x2="100" y1="205.6094" y2="223.5703"/><line style="stroke:#000000;stroke-width:1.0;" x1="100" x2="100" y1="187.6484" y2="205.6094"/><line style="stroke:#000000;stroke-width:1.0;" x1="223" x2="223" y1="205.6094" y2="223.5703"/><line style="stroke:#000000;stroke-width:1.0;" x1="223" x2="223" y1="187.6484" y2="205.6094"/><line style="stroke:#000000;stroke-width:1.0;" x1="330" x2="330" y1="205.6094" y2="223.5703"/><line style="stroke:#000000;stroke-width:1.0;" x1="473" x2="473" y1="205.6094" y2="223.5703"/><line style="stroke:#000000;stroke-width:1.0;" x1="330" x2="330" y1="187.6484" y2="205.6094"/><line style="stroke:#000000;stroke-width:1.0;" x1="473" x2="473" y1="187.6484" y2="205.6094"/><line style="stroke:#000000;stroke-width:1.0;" x1="13" x2="13" y1="205.6094" y2="223.5703"/><text fill="#000000" font-family="sans-serif" font-size="12" lengthAdjust="spacing" textLength="151" x="13" y="256.4805">Couples navires-armateurs</text><text fill="#000000" font-family="sans-serif" font-size="12" lengthAdjust="spacing" textLength="85" x="14" y="275.4414">Immatricualtion</text><text fill="#000000" font-family="sans-serif" font-size="12" lengthAdjust="spacing" textLength="83" x="101" y="275.4414">Code armateur</text><text fill="#000000" font-family="sans-serif" font-size="12" lengthAdjust="spacing" textLength="93" x="186" y="275.4414">D&#233;but armement</text><text fill="#000000" font-family="sans-serif" font-size="12" lengthAdjust="spacing" textLength="77" x="281" y="275.4414">Fin armement</text><text fill="#000000" font-family="sans-serif" font-size="12" lengthAdjust="spacing" textLength="80" x="360" y="275.4414">Nom armateur</text><text fill="#000000" font-family="sans-serif" font-size="12" lengthAdjust="spacing" textLength="97" x="442" y="275.4414">Pr&#233;nom armateur</text><text fill="#000000" font-family="sans-serif" font-size="12" lengthAdjust="spacing" textLength="42" x="14" y="293.4023">123456</text><text fill="#000000" font-family="sans-serif" font-size="12" lengthAdjust="spacing" textLength="35" x="101" y="293.4023">12345</text><text fill="#000000" font-family="sans-serif" font-size="12" lengthAdjust="spacing" textLength="62" x="186" y="293.4023">06/04/2021</text><text fill="#000000" font-family="sans-serif" font-size="12" lengthAdjust="spacing" textLength="53" x="360" y="293.4023">DUPOND</text><text fill="#000000" font-family="sans-serif" font-size="12" lengthAdjust="spacing" textLength="21" x="442" y="293.4023">Eric</text><line style="stroke:#000000;stroke-width:1.0;" x1="13" x2="100" y1="261.4922" y2="261.4922"/><line style="stroke:#000000;stroke-width:1.0;" x1="185" x2="280" y1="297.4141" y2="297.4141"/><line style="stroke:#000000;stroke-width:1.0;" x1="100" x2="185" y1="261.4922" y2="261.4922"/><line style="stroke:#000000;stroke-width:1.0;" x1="280" x2="359" y1="297.4141" y2="297.4141"/><line style="stroke:#000000;stroke-width:1.0;" x1="185" x2="280" y1="261.4922" y2="261.4922"/><line style="stroke:#000000;stroke-width:1.0;" x1="359" x2="441" y1="297.4141" y2="297.4141"/><line style="stroke:#000000;stroke-width:1.0;" x1="280" x2="359" y1="261.4922" y2="261.4922"/><line style="stroke:#000000;stroke-width:1.0;" x1="441" x2="540" y1="297.4141" y2="297.4141"/><line style="stroke:#000000;stroke-width:1.0;" x1="359" x2="441" y1="261.4922" y2="261.4922"/><line style="stroke:#000000;stroke-width:1.0;" x1="441" x2="540" y1="261.4922" y2="261.4922"/><line style="stroke:#000000;stroke-width:1.0;" x1="13" x2="100" y1="279.4531" y2="279.4531"/><line style="stroke:#000000;stroke-width:1.0;" x1="100" x2="185" y1="279.4531" y2="279.4531"/><line style="stroke:#000000;stroke-width:1.0;" x1="185" x2="280" y1="279.4531" y2="279.4531"/><line style="stroke:#000000;stroke-width:1.0;" x1="280" x2="359" y1="279.4531" y2="279.4531"/><line style="stroke:#000000;stroke-width:1.0;" x1="359" x2="441" y1="279.4531" y2="279.4531"/><line style="stroke:#000000;stroke-width:1.0;" x1="441" x2="540" y1="279.4531" y2="279.4531"/><line style="stroke:#000000;stroke-width:1.0;" x1="13" x2="100" y1="297.4141" y2="297.4141"/><line style="stroke:#000000;stroke-width:1.0;" x1="100" x2="185" y1="297.4141" y2="297.4141"/><line style="stroke:#000000;stroke-width:1.0;" x1="13" x2="13" y1="261.4922" y2="279.4531"/><line style="stroke:#000000;stroke-width:1.0;" x1="100" x2="100" y1="261.4922" y2="279.4531"/><line style="stroke:#000000;stroke-width:1.0;" x1="185" x2="185" y1="261.4922" y2="279.4531"/><line style="stroke:#000000;stroke-width:1.0;" x1="280" x2="280" y1="261.4922" y2="279.4531"/><line style="stroke:#000000;stroke-width:1.0;" x1="359" x2="359" y1="261.4922" y2="279.4531"/><line style="stroke:#000000;stroke-width:1.0;" x1="441" x2="441" y1="261.4922" y2="279.4531"/><line style="stroke:#000000;stroke-width:1.0;" x1="540" x2="540" y1="261.4922" y2="279.4531"/><line style="stroke:#000000;stroke-width:1.0;" x1="13" x2="13" y1="279.4531" y2="297.4141"/><line style="stroke:#000000;stroke-width:1.0;" x1="100" x2="100" y1="279.4531" y2="297.4141"/><line style="stroke:#000000;stroke-width:1.0;" x1="185" x2="185" y1="279.4531" y2="297.4141"/><line style="stroke:#000000;stroke-width:1.0;" x1="280" x2="280" y1="279.4531" y2="297.4141"/><line style="stroke:#000000;stroke-width:1.0;" x1="359" x2="359" y1="279.4531" y2="297.4141"/><line style="stroke:#000000;stroke-width:1.0;" x1="441" x2="441" y1="279.4531" y2="297.4141"/><line style="stroke:#000000;stroke-width:1.0;" x1="540" x2="540" y1="279.4531" y2="297.4141"/><text fill="#000000" font-family="sans-serif" font-size="12" font-weight="bold" lengthAdjust="spacing" textLength="167" x="7" y="333.3242">Caract&#233;ristiques de l'enqu&#234;te</text><text fill="#000000" font-family="sans-serif" font-size="12" lengthAdjust="spacing" textLength="149" x="13" y="352.2852">Qualification de l'enqu&#234;te* :</text><rect fill="#EEEEEE" height="18.9609" style="stroke:#000000;stroke-width:1.0;" width="87" x="385" y="339.3359"/><text fill="#000000" font-family="sans-serif" font-size="12" lengthAdjust="spacing" textLength="47" x="387" y="354.2852">Indirecte</text><line style="stroke:#000000;stroke-width:1.0;" x1="461" x2="461" y1="339.3359" y2="358.2969"/><polygon fill="#000000" points="464,345.3359,470,345.3359,467,353.2969" style="stroke:#000000;stroke-width:1.0;"/><text fill="#000000" font-family="sans-serif" font-size="12" lengthAdjust="spacing" textLength="124" x="13" y="374.2461">Fiabilit&#233; de l'enqu&#234;te* :</text><rect fill="#EEEEEE" height="18.9609" style="stroke:#000000;stroke-width:1.0;" width="87" x="385" y="361.2969"/><text fill="#000000" font-family="sans-serif" font-size="12" lengthAdjust="spacing" textLength="34" x="387" y="376.2461">Fiable</text><line style="stroke:#000000;stroke-width:1.0;" x1="461" x2="461" y1="361.2969" y2="380.2578"/><polygon fill="#000000" points="464,367.2969,470,367.2969,467,375.2578" style="stroke:#000000;stroke-width:1.0;"/><text fill="#000000" font-family="sans-serif" font-size="12" lengthAdjust="spacing" textLength="261" x="13" y="396.207">Inactivit&#233; annuelle confirm&#233;e par l'observateur* :</text><text fill="#000000" font-family="sans-serif" font-size="12" font-weight="bold" lengthAdjust="spacing" textLength="19" x="406" y="397.207">Oui</text><ellipse cx="393" cy="392.2383" fill="none" rx="5" ry="5" style="stroke:#000000;stroke-width:1.5;"/><ellipse cx="393" cy="392.2383" fill="#000000" rx="2" ry="2" style="stroke:#000000;stroke-width:1.5;"/><text fill="#000000" font-family="sans-serif" font-size="12" lengthAdjust="spacing" textLength="23" x="447" y="397.207">Non</text><ellipse cx="434" cy="392.2383" fill="none" rx="5" ry="5" style="stroke:#000000;stroke-width:1.5;"/><text fill="#000000" font-family="sans-serif" font-size="12" lengthAdjust="spacing" textLength="370" x="13" y="416.168">Le professionnel accepterait-il de r&#233;pondre &#224; une autre enqu&#234;te ?* :</text><text fill="#000000" font-family="sans-serif" font-size="12" lengthAdjust="spacing" textLength="19" x="406" y="417.168">Oui</text><ellipse cx="393" cy="412.1992" fill="none" rx="5" ry="5" style="stroke:#000000;stroke-width:1.5;"/><text fill="#000000" font-family="sans-serif" font-size="12" font-weight="bold" lengthAdjust="spacing" textLength="22" x="447" y="417.168">Non</text><ellipse cx="434" cy="412.1992" fill="none" rx="5" ry="5" style="stroke:#000000;stroke-width:1.5;"/><ellipse cx="434" cy="412.1992" fill="#000000" rx="2" ry="2" style="stroke:#000000;stroke-width:1.5;"/><text fill="#000000" font-family="sans-serif" font-size="12" lengthAdjust="spacing" textLength="340" x="13" y="436.1289">M&#233;tiers d&#233;clar&#233;s dans les journeaux de bord/fiches de p&#234;che :</text><rect fill="#EEEEEE" height="18.9609" style="stroke:#000000;stroke-width:1.0;" width="87" x="385" y="423.1797"/><text fill="#000000" font-family="sans-serif" font-size="12" lengthAdjust="spacing" textLength="3" x="387" y="438.1289">&#160;</text><line style="stroke:#000000;stroke-width:1.0;" x1="461" x2="461" y1="423.1797" y2="442.1406"/><polygon fill="#000000" points="464,429.1797,470,429.1797,467,437.1406" style="stroke:#000000;stroke-width:1.0;"/><text fill="#000000" font-family="sans-serif" font-size="12" lengthAdjust="spacing" textLength="165" x="13" y="458.0898">Habitudes de vente &#224; la cri&#233;e :</text><rect fill="#EEEEEE" height="18.9609" style="stroke:#000000;stroke-width:1.0;" width="87" x="385" y="445.1406"/><text fill="#000000" font-family="sans-serif" font-size="12" lengthAdjust="spacing" textLength="3" x="387" y="460.0898">&#160;</text><line style="stroke:#000000;stroke-width:1.0;" x1="461" x2="461" y1="445.1406" y2="464.1016"/><polygon fill="#000000" points="464,451.1406,470,451.1406,467,459.1016" style="stroke:#000000;stroke-width:1.0;"/><text fill="#000000" font-family="sans-serif" font-size="12" font-weight="bold" lengthAdjust="spacing" textLength="90" x="6" y="500.0117">Commentaires :</text><text fill="#000000" font-family="sans-serif" font-size="12" lengthAdjust="spacing" textLength="182" x="7" y="518.9727">19.01.2017 : Appel sans r&#233;ponse</text><text fill="#000000" font-family="sans-serif" font-size="12" lengthAdjust="spacing" textLength="219" x="7" y="536.9336">08/03/2019 : Conversation t&#233;l&#233;phonique</text><text fill="#000000" font-family="sans-serif" font-size="12" lengthAdjust="spacing" textLength="623" x="7" y="554.8945">2020 : Sort souvent avec Jean (BIBAS) --&gt; P&#234;chent &#233;galement sur ensemble sur BIBAS de temps en temps &#224; ERU</text><text fill="#000000" font-family="sans-serif" font-size="12" lengthAdjust="spacing" textLength="197" x="7" y="572.8555">12/02/2022 : H&#233;lice cass&#233;e fin 2022</text><line style="stroke:#000000;stroke-width:1.0;" x1="6" x2="631" y1="505.0234" y2="505.0234"/><line style="stroke:#000000;stroke-width:1.0;" x1="6" x2="631" y1="666.6719" y2="666.6719"/><line style="stroke:#000000;stroke-width:1.0;" x1="6" x2="6" y1="505.0234" y2="522.9844"/><line style="stroke:#000000;stroke-width:1.0;" x1="631" x2="631" y1="505.0234" y2="522.9844"/><line style="stroke:#000000;stroke-width:1.0;" x1="6" x2="6" y1="630.75" y2="648.7109"/><line style="stroke:#000000;stroke-width:1.0;" x1="631" x2="631" y1="630.75" y2="648.7109"/><line style="stroke:#000000;stroke-width:1.0;" x1="6" x2="6" y1="594.8281" y2="612.7891"/><line style="stroke:#000000;stroke-width:1.0;" x1="631" x2="631" y1="594.8281" y2="612.7891"/><line style="stroke:#000000;stroke-width:1.0;" x1="6" x2="6" y1="558.9063" y2="576.8672"/><line style="stroke:#000000;stroke-width:1.0;" x1="631" x2="631" y1="558.9063" y2="576.8672"/><line style="stroke:#000000;stroke-width:1.0;" x1="6" x2="6" y1="522.9844" y2="540.9453"/><line style="stroke:#000000;stroke-width:1.0;" x1="631" x2="631" y1="522.9844" y2="540.9453"/><line style="stroke:#000000;stroke-width:1.0;" x1="6" x2="6" y1="648.7109" y2="666.6719"/><line style="stroke:#000000;stroke-width:1.0;" x1="631" x2="631" y1="648.7109" y2="666.6719"/><line style="stroke:#000000;stroke-width:1.0;" x1="6" x2="6" y1="612.7891" y2="630.75"/><line style="stroke:#000000;stroke-width:1.0;" x1="631" x2="631" y1="612.7891" y2="630.75"/><line style="stroke:#000000;stroke-width:1.0;" x1="6" x2="6" y1="576.8672" y2="594.8281"/><line style="stroke:#000000;stroke-width:1.0;" x1="631" x2="631" y1="576.8672" y2="594.8281"/><line style="stroke:#000000;stroke-width:1.0;" x1="6" x2="6" y1="540.9453" y2="558.9063"/><line style="stroke:#000000;stroke-width:1.0;" x1="631" x2="631" y1="540.9453" y2="558.9063"/><line style="stroke:#AAAAAA;stroke-width:1.0;" x1="6" x2="1109" y1="672.1719" y2="672.1719"/><rect fill="#EEEEEE" height="19.9609" rx="5" ry="5" style="stroke:#000000;stroke-width:2.5;" width="52" x="9.5" y="680.1719"/><text fill="#000000" font-family="sans-serif" font-size="12" lengthAdjust="spacing" textLength="40" x="15.5" y="695.1211">Fermer</text><rect fill="#EEEEEE" height="19.9609" rx="5" ry="5" style="stroke:#000000;stroke-width:2.5;" width="92" x="68.5" y="680.1719"/><text fill="#000000" font-family="sans-serif" font-size="12" lengthAdjust="spacing" textLength="70" x="79.5" y="695.1211">Sauvegarder</text><!--SRC=[dLNPSk9657tNLzogF1YI82HXup6LcemDs8O09bucIKrbgXgfmJsHMffMD-MKpR_abVaDVYod9JOlBma5ek_LNSzT-aEkcT8vYxNpw12Ds5meJYtwQVB-vceq-eD6lT4L3KzlBtk3JfSQL2C_Q1mUDN4Odk9n_ECxdn8S0Yy8OA5Mm-EnRWrSh9PojLGifYTgivZBI0ckG0nNIurJNl2LvWkekAvzM5tyeDpLJ5F4SmhlcPpnX4kTbpHJBDImAt8jlXfmU2d8LC8qDp0R6P9b8hbHcy1Ao_1HUdrXmneeTVAjrEDtr4jWKudGn4oBL8BPMIqdHjESnI8IC07MkP3Fw56Qx8NmHEDK8S83_f35gT0RGtrcPfmcocXEbTl-6Vbrt_D8FrItBoiNjvOO6v7dBh4eSQdors-MDKZbpALBznQSn39E9Q3cI8F2LEPQcN3jvdpSBXB2Prsu9_AQTU-m3bny40tu3ImHW7YxveYdgFM0qP15YirCuMcOIgruLBWvQdhMLc2VpQPh_qxmyq-Qn_YxCc9HmkfiqRq4zgcow1VWY-T8_xTgY5SlR4rUStyrQ3VRWz71YvUlCVBh-AxZj_uB18PCvLp4CN-LJZirMRnhejgs6zzC0FDMHjHE0UH6TfSGE4NBhpFP8srpxScF5OPiZ_KgZ-BmikOsdCxT-6hKmQ6BWCfqxBEOHMStXs-D2iK7N7urgs-Qb_xAoIhC0k9OJ4LOGlvCzdlibIVwt9CH40er_xpJEXTi8k9YVjvIiQzZ3jazbPv4N69Uw30f3KTLRFDFXKhiA6HCmL0woRcQ5z2KjXwfydlL9eQU15cf0b59YvtT0LHLEkLvZWGaZuc58SyqLqpeceXjVC0yIx7DEAt-8IDHG8D1e4tGzFFMLPNMRagVBrnjzs2qMeOnWraS6NhVDjANr2Z9cNcm7YUfYkf0zRx4Frjzmx74XZQVFMmkWQOsKIayH-CKaSQCGYKiDcygxgfV5ZvDRCinsytKslJLum-OQTVptS3pZs7dDCi0KMw3Bb79kRCrJDwxkjT0q_ad46sdSevaoyP0rMB8twVIDjMU2ZhKW_2DtPbvQcpmnEOyf3vdaYfdlRFJcofkcVSqBa30wzLoXjkbc0-xxpbYI6oxMAAGjoXedcIuAkJw03YwrtTxVh43lVKQRD4beXCXsedbkSLhYXdSNYFbn_s_vuMplINfqpd7PAi_KOvFDmp9pfYABBrm5iu7N9Z5nUoCOoRrtN105Z-BdeK_QBX-eu8TJ1sWu_keIolmMaV7rExUscWRLQToCHvO51LoYJ30Ic2vm43LwRCvesiZjKXuYwuoBlkTNpOCwaeiiLHQI9t-n-5Ee7bOEnEQRZ1JsA8VXqw7Jvc9DJJ2D19oXZ9dVd0KE0FSseRDO7og72n7N1L_j-Zy-by0]--></g></svg>