<?xml version="1.0" encoding="us-ascii" standalone="no"?><svg xmlns="http://www.w3.org/2000/svg" xmlns:xlink="http://www.w3.org/1999/xlink" contentStyleType="text/css" height="727px" preserveAspectRatio="none" style="width:712px;height:727px;background:#FFFFFF;" version="1.1" viewBox="0 0 712 727" width="712px" zoomAndPan="magnify"><defs/><g><text fill="#000000" font-family="sans-serif" font-size="12" lengthAdjust="spacing" textLength="41" x="6" y="18.9492">Navire :</text><text fill="#000000" font-family="sans-serif" font-size="12" font-weight="bold" lengthAdjust="spacing" textLength="206" x="50" y="18.9492">SONNY - 123456 - MA - 7,81 m - 2022</text><line style="stroke:#AAAAAA;stroke-width:1.0;" x1="6" x2="493" y1="27.4609" y2="27.4609"/><text fill="#000000" font-family="sans-serif" font-size="12" font-weight="bold" lengthAdjust="spacing" textLength="44" x="8" y="44.9102">G&#233;n&#233;ral</text><line style="stroke:#000000;stroke-width:1.0;" x1="6" x2="6" y1="31.9609" y2="47.9219"/><line style="stroke:#000000;stroke-width:1.0;" x1="6" x2="55" y1="31.9609" y2="31.9609"/><line style="stroke:#000000;stroke-width:1.0;" x1="55" x2="55" y1="31.9609" y2="47.9219"/><line style="stroke:#000000;stroke-width:1.0;" x1="55" x2="65" y1="47.9219" y2="47.9219"/><text fill="#000000" font-family="sans-serif" font-size="12" lengthAdjust="spacing" textLength="35" x="67" y="44.9102">Navire</text><line style="stroke:#000000;stroke-width:1.0;" x1="65" x2="65" y1="31.9609" y2="47.9219"/><line style="stroke:#000000;stroke-width:1.0;" x1="65" x2="105" y1="31.9609" y2="31.9609"/><line style="stroke:#000000;stroke-width:1.0;" x1="105" x2="105" y1="31.9609" y2="47.9219"/><line style="stroke:#000000;stroke-width:1.0;" x1="105" x2="115" y1="47.9219" y2="47.9219"/><text fill="#000000" font-family="sans-serif" font-size="12" lengthAdjust="spacing" textLength="58" x="117" y="44.9102">Calendrier</text><line style="stroke:#000000;stroke-width:1.0;" x1="115" x2="115" y1="31.9609" y2="47.9219"/><line style="stroke:#000000;stroke-width:1.0;" x1="115" x2="178" y1="31.9609" y2="31.9609"/><line style="stroke:#000000;stroke-width:1.0;" x1="178" x2="178" y1="31.9609" y2="47.9219"/><line style="stroke:#000000;stroke-width:1.0;" x1="178" x2="188" y1="47.9219" y2="47.9219"/><text fill="#000000" font-family="sans-serif" font-size="12" lengthAdjust="spacing" textLength="40" x="190" y="44.9102">M&#233;tiers</text><line style="stroke:#000000;stroke-width:1.0;" x1="188" x2="188" y1="31.9609" y2="47.9219"/><line style="stroke:#000000;stroke-width:1.0;" x1="188" x2="233" y1="31.9609" y2="31.9609"/><line style="stroke:#000000;stroke-width:1.0;" x1="233" x2="233" y1="31.9609" y2="47.9219"/><line style="stroke:#000000;stroke-width:1.0;" x1="233" x2="243" y1="47.9219" y2="47.9219"/><text fill="#000000" font-family="sans-serif" font-size="12" lengthAdjust="spacing" textLength="30" x="245" y="44.9102">Carte</text><line style="stroke:#000000;stroke-width:1.0;" x1="243" x2="243" y1="31.9609" y2="47.9219"/><line style="stroke:#000000;stroke-width:1.0;" x1="243" x2="278" y1="31.9609" y2="31.9609"/><line style="stroke:#000000;stroke-width:1.0;" x1="278" x2="278" y1="31.9609" y2="47.9219"/><line style="stroke:#000000;stroke-width:1.0;" x1="278" x2="288" y1="47.9219" y2="47.9219"/><line style="stroke:#AAAAAA;stroke-width:1.0;stroke-dasharray:1.0,2.0;" x1="6" x2="493" y1="53.4219" y2="53.4219"/><text fill="#000000" font-family="sans-serif" font-size="12" lengthAdjust="spacing" textLength="153" x="8" y="90.832">Objectif d'enqu&#234;te directe ?*</text><rect fill="#EEEEEE" height="18.9609" style="stroke:#000000;stroke-width:1.0;" width="87" x="163" y="77.8828"/><text fill="#000000" font-family="sans-serif" font-size="12" lengthAdjust="spacing" textLength="19" x="165" y="92.832">Oui</text><line style="stroke:#000000;stroke-width:1.0;" x1="239" x2="239" y1="77.8828" y2="96.8438"/><polygon fill="#000000" points="242,83.8828,248,83.8828,245,91.8438" style="stroke:#000000;stroke-width:1.0;"/><text fill="#000000" font-family="sans-serif" font-size="12" lengthAdjust="spacing" textLength="84" x="8" y="112.793">Enqu&#234;te &#233;co ?*</text><text fill="#000000" font-family="sans-serif" font-size="12" font-weight="bold" lengthAdjust="spacing" textLength="19" x="184" y="113.793">Oui</text><ellipse cx="171" cy="108.8242" fill="none" rx="5" ry="5" style="stroke:#000000;stroke-width:1.5;"/><ellipse cx="171" cy="108.8242" fill="#000000" rx="2" ry="2" style="stroke:#000000;stroke-width:1.5;"/><text fill="#000000" font-family="sans-serif" font-size="12" lengthAdjust="spacing" textLength="23" x="225" y="113.793">Non</text><ellipse cx="212" cy="108.8242" fill="none" rx="5" ry="5" style="stroke:#000000;stroke-width:1.5;"/><text fill="#000000" font-family="sans-serif" font-size="12" font-weight="bold" lengthAdjust="spacing" textLength="167" x="7" y="153.7148">Caract&#233;ristiques de l'enqu&#234;te</text><text fill="#000000" font-family="sans-serif" font-size="12" lengthAdjust="spacing" textLength="149" x="13" y="172.6758">Qualification de l'enqu&#234;te* :</text><rect fill="#EEEEEE" height="18.9609" style="stroke:#000000;stroke-width:1.0;" width="87" x="385" y="159.7266"/><text fill="#000000" font-family="sans-serif" font-size="12" lengthAdjust="spacing" textLength="39" x="387" y="174.6758">Directe</text><line style="stroke:#000000;stroke-width:1.0;" x1="461" x2="461" y1="159.7266" y2="178.6875"/><polygon fill="#000000" points="464,165.7266,470,165.7266,467,173.6875" style="stroke:#000000;stroke-width:1.0;"/><text fill="#000000" font-family="sans-serif" font-size="12" lengthAdjust="spacing" textLength="124" x="13" y="194.6367">Fiabilit&#233; de l'enqu&#234;te* :</text><rect fill="#EEEEEE" height="18.9609" style="stroke:#000000;stroke-width:1.0;" width="87" x="385" y="181.6875"/><text fill="#000000" font-family="sans-serif" font-size="12" lengthAdjust="spacing" textLength="34" x="387" y="196.6367">Fiable</text><line style="stroke:#000000;stroke-width:1.0;" x1="461" x2="461" y1="181.6875" y2="200.6484"/><polygon fill="#000000" points="464,187.6875,470,187.6875,467,195.6484" style="stroke:#000000;stroke-width:1.0;"/><text fill="#000000" font-family="sans-serif" font-size="12" lengthAdjust="spacing" textLength="256" x="13" y="216.5977">Inactivit&#233; annuelle confirm&#233;e par l'observateur :</text><rect fill="#EEEEEE" height="18.9609" style="stroke:#000000;stroke-width:1.0;" width="87" x="385" y="203.6484"/><text fill="#000000" font-family="sans-serif" font-size="12" lengthAdjust="spacing" textLength="3" x="387" y="218.5977">&#160;</text><line style="stroke:#000000;stroke-width:1.0;" x1="461" x2="461" y1="203.6484" y2="222.6094"/><polygon fill="#000000" points="464,209.6484,470,209.6484,467,217.6094" style="stroke:#000000;stroke-width:1.0;"/><text fill="#000000" font-family="sans-serif" font-size="12" lengthAdjust="spacing" textLength="370" x="13" y="238.5586">Le professionnel accepterait-il de r&#233;pondre &#224; une autre enqu&#234;te ?* :</text><text fill="#000000" font-family="sans-serif" font-size="12" lengthAdjust="spacing" textLength="19" x="406" y="239.5586">Oui</text><ellipse cx="393" cy="234.5898" fill="none" rx="5" ry="5" style="stroke:#000000;stroke-width:1.5;"/><text fill="#000000" font-family="sans-serif" font-size="12" font-weight="bold" lengthAdjust="spacing" textLength="22" x="447" y="239.5586">Non</text><ellipse cx="434" cy="234.5898" fill="none" rx="5" ry="5" style="stroke:#000000;stroke-width:1.5;"/><ellipse cx="434" cy="234.5898" fill="#000000" rx="2" ry="2" style="stroke:#000000;stroke-width:1.5;"/><text fill="#000000" font-family="sans-serif" font-size="12" lengthAdjust="spacing" textLength="340" x="13" y="258.5195">M&#233;tiers d&#233;clar&#233;s dans les journeaux de bord/fiches de p&#234;che :</text><rect fill="#EEEEEE" height="18.9609" style="stroke:#000000;stroke-width:1.0;" width="87" x="385" y="245.5703"/><text fill="#000000" font-family="sans-serif" font-size="12" lengthAdjust="spacing" textLength="3" x="387" y="260.5195">&#160;</text><line style="stroke:#000000;stroke-width:1.0;" x1="461" x2="461" y1="245.5703" y2="264.5313"/><polygon fill="#000000" points="464,251.5703,470,251.5703,467,259.5313" style="stroke:#000000;stroke-width:1.0;"/><text fill="#000000" font-family="sans-serif" font-size="12" lengthAdjust="spacing" textLength="165" x="13" y="280.4805">Habitudes de vente &#224; la cri&#233;e :</text><rect fill="#EEEEEE" height="18.9609" style="stroke:#000000;stroke-width:1.0;" width="87" x="385" y="267.5313"/><text fill="#000000" font-family="sans-serif" font-size="12" lengthAdjust="spacing" textLength="3" x="387" y="282.4805">&#160;</text><line style="stroke:#000000;stroke-width:1.0;" x1="461" x2="461" y1="267.5313" y2="286.4922"/><polygon fill="#000000" points="464,273.5313,470,273.5313,467,281.4922" style="stroke:#000000;stroke-width:1.0;"/><text fill="#808080" font-family="sans-serif" font-size="10" lengthAdjust="spacing" textLength="43" x="502" y="153.5566">Strat&#233;gie</text><text fill="#000000" font-family="sans-serif" font-size="12" lengthAdjust="spacing" textLength="198" x="502" y="171.0156">ACTIFLOT d&#233;marrage le 01/01/2019</text><line style="stroke:#000000;stroke-width:1.0;" x1="500" x2="702" y1="140.7656" y2="140.7656"/><line style="stroke:#000000;stroke-width:1.0;" x1="500" x2="702" y1="176.0273" y2="176.0273"/><line style="stroke:#000000;stroke-width:1.0;" x1="500" x2="500" y1="140.7656" y2="176.0273"/><line style="stroke:#000000;stroke-width:1.0;" x1="702" x2="702" y1="140.7656" y2="176.0273"/><text fill="#808080" font-family="sans-serif" font-size="10" lengthAdjust="spacing" textLength="66" x="502" y="190.8184">Observateur(s)</text><text fill="#000000" font-family="sans-serif" font-size="12" lengthAdjust="spacing" textLength="30" x="502" y="208.2773">Obs1</text><text fill="#808080" font-family="sans-serif" font-size="10" lengthAdjust="spacing" textLength="48" x="502" y="224.0801">Groupe EI</text><line style="stroke:#AAAAAA;stroke-width:1.0;" x1="502" x2="704" y1="232.0898" y2="232.0898"/><path d="M503,240.724 L503,242.3906 L508.8333,242.3906 L508.8333,240.724 L503,240.724 M503,243.224 L503,247.3156 C503,247.3573 503.0333,247.3906 503.075,247.3906 L508.75,247.3906 C508.7917,247.3906 508.825,247.3573 508.825,247.3156 L508.825,243.224 L502.9917,243.224 M503.8333,244.0573 L504.6667,244.0573 L504.6667,244.8906 L503.8333,244.8906 L503.8333,244.0573 M505.5,244.0573 L506.3333,244.0573 L506.3333,244.8906 L505.5,244.8906 L505.5,244.0573 M507.1667,244.0573 L508,244.0573 L508,244.8906 L507.1667,244.8906 L507.1667,244.0573 M503.8333,245.724 L504.6667,245.724 L504.6667,246.5573 L503.8333,246.5573 L503.8333,245.724 M505.5,245.724 L506.3333,245.724 L506.3333,246.5573 L505.5,246.5573 L505.5,245.724 " fill="#808080" style="stroke:;stroke-width:0.0;stroke-dasharray:;"/><text fill="#808080" font-family="sans-serif" font-size="10" lengthAdjust="spacing" textLength="121" x="510.6667" y="247.3809">Cr&#233;&#233; le 20/03/2023 17:08</text><path d="M506.3333,256.0247 C504.5,256.0247 503,257.5247 503,259.3581 C503,261.1914 504.5,262.6914 506.3333,262.6914 C508.1667,262.6914 509.6667,261.1914 509.6667,259.3581 C509.6667,257.5247 508.1667,256.0247 506.3333,256.0247 M506.3333,256.8581 C507.7167,256.8581 508.8333,257.9747 508.8333,259.3581 C508.8333,260.7414 507.7167,261.8581 506.3333,261.8581 C504.95,261.8581 503.8333,260.7414 503.8333,259.3581 C503.8333,257.9747 504.95,256.8581 506.3333,256.8581 M505.9167,257.6914 L505.9167,259.5414 L506.05,259.6497 L506.4667,260.0664 L506.75,260.3831 L507.35,259.7831 L507.0333,259.4997 L506.75,259.2164 L506.75,257.7081 L505.9167,257.7081 " fill="#808080" style="stroke:;stroke-width:0.0;stroke-dasharray:;"/><text fill="#808080" font-family="sans-serif" font-size="10" lengthAdjust="spacing" textLength="160" x="510.6667" y="262.6816">Mis &#224; jour le 20/03/2023 17:08:31</text><text fill="#808080" font-family="sans-serif" font-size="10" lengthAdjust="spacing" textLength="56" x="502" y="295.9434">Mode saisie</text><text fill="#808080" font-family="sans-serif" font-size="10" font-weight="bold" lengthAdjust="spacing" textLength="34" x="561" y="295.9434">bureau</text><rect fill="#EEEEEE" height="19.9609" rx="5" ry="5" style="stroke:#000000;stroke-width:2.5;" width="196" x="504.5" y="320.9141"/><text fill="#000000" font-family="sans-serif" font-size="12" lengthAdjust="spacing" textLength="100" x="552.5" y="335.8633">Terminer la saisie</text><line style="stroke:#000000;stroke-width:1.0;" x1="500" x2="705" y1="178.0273" y2="178.0273"/><line style="stroke:#000000;stroke-width:1.0;" x1="500" x2="705" y1="345.375" y2="345.375"/><line style="stroke:#000000;stroke-width:1.0;" x1="500" x2="500" y1="178.0273" y2="345.375"/><line style="stroke:#000000;stroke-width:1.0;" x1="705" x2="705" y1="178.0273" y2="345.375"/><path d="M7,353.3359 L7,358.3359 L8,357.3359 L9,357.3359 L9,354.3359 L12,354.3359 L12,353.3359 L7,353.3359 M10,355.3359 L10,359.3359 L14,359.3359 L15,360.3359 L15,355.3359 L10,355.3359 " fill="#000000" style="stroke:;stroke-width:0.0;stroke-dasharray:;"/><text fill="#000000" font-family="sans-serif" font-size="12" font-weight="bold" lengthAdjust="spacing" textLength="102" x="19" y="361.3242">Commentaires (4)</text><text fill="#808080" font-family="sans-serif" font-size="10" lengthAdjust="spacing" textLength="134" x="7" y="378.127">Saisissez votre commentaire</text><line style="stroke:#000000;stroke-width:1.0;" x1="6" x2="487" y1="366.3359" y2="366.3359"/><line style="stroke:#000000;stroke-width:1.0;" x1="6" x2="487" y1="417.5586" y2="417.5586"/><line style="stroke:#000000;stroke-width:1.0;" x1="6" x2="6" y1="366.3359" y2="381.6367"/><line style="stroke:#000000;stroke-width:1.0;" x1="487" x2="487" y1="381.6367" y2="399.5977"/><line style="stroke:#000000;stroke-width:1.0;" x1="487" x2="487" y1="366.3359" y2="381.6367"/><line style="stroke:#000000;stroke-width:1.0;" x1="6" x2="6" y1="399.5977" y2="417.5586"/><line style="stroke:#000000;stroke-width:1.0;" x1="6" x2="6" y1="381.6367" y2="399.5977"/><line style="stroke:#000000;stroke-width:1.0;" x1="487" x2="487" y1="399.5977" y2="417.5586"/><text fill="#008B8B" font-family="sans-serif" font-size="12" lengthAdjust="spacing" textLength="36" x="7" y="451.4688">Obs1 :</text><text fill="#000000" font-family="sans-serif" font-size="12" lengthAdjust="spacing" textLength="126" x="49" y="451.4688">H&#233;lice cass&#233;e fin 2021</text><text fill="#808080" font-family="sans-serif" font-size="10" lengthAdjust="spacing" textLength="51" x="7" y="485.2324">Il y a 3 ans</text><text fill="#808080" font-family="sans-serif" font-size="10" lengthAdjust="spacing" textLength="140" x="346" y="485.2324">R&#233;pondre Modifier Supprimer</text><line style="stroke:#000000;stroke-width:1.0;" x1="6" x2="487" y1="437.5195" y2="437.5195"/><line style="stroke:#000000;stroke-width:1.0;" x1="6" x2="487" y1="488.7422" y2="488.7422"/><line style="stroke:#000000;stroke-width:1.0;" x1="6" x2="6" y1="437.5195" y2="455.4805"/><line style="stroke:#000000;stroke-width:1.0;" x1="487" x2="487" y1="455.4805" y2="473.4414"/><line style="stroke:#000000;stroke-width:1.0;" x1="487" x2="487" y1="437.5195" y2="455.4805"/><line style="stroke:#000000;stroke-width:1.0;" x1="6" x2="6" y1="473.4414" y2="488.7422"/><line style="stroke:#000000;stroke-width:1.0;" x1="6" x2="6" y1="455.4805" y2="473.4414"/><line style="stroke:#000000;stroke-width:1.0;" x1="487" x2="487" y1="473.4414" y2="488.7422"/><text fill="#008B8B" font-family="sans-serif" font-size="12" lengthAdjust="spacing" textLength="36" x="7" y="522.6523">Obs1 :</text><text fill="#000000" font-family="sans-serif" font-size="12" lengthAdjust="spacing" textLength="437" x="49" y="522.6523">Sort souvent avec Jean (BIBAS) --&gt; P&#234;chent &#233;galement sur ensemble sur BIBAS</text><text fill="#000000" font-family="sans-serif" font-size="12" lengthAdjust="spacing" textLength="146" x="7" y="540.6133">de temps en temps &#224; ERU</text><text fill="#808080" font-family="sans-serif" font-size="10" lengthAdjust="spacing" textLength="51" x="7" y="574.377">Il y a 4 ans</text><text fill="#808080" font-family="sans-serif" font-size="10" lengthAdjust="spacing" textLength="140" x="346" y="574.377">R&#233;pondre Modifier Supprimer</text><line style="stroke:#000000;stroke-width:1.0;" x1="6" x2="487" y1="508.7031" y2="508.7031"/><line style="stroke:#000000;stroke-width:1.0;" x1="6" x2="487" y1="577.8867" y2="577.8867"/><line style="stroke:#000000;stroke-width:1.0;" x1="6" x2="6" y1="508.7031" y2="526.6641"/><line style="stroke:#000000;stroke-width:1.0;" x1="487" x2="487" y1="526.6641" y2="544.625"/><line style="stroke:#000000;stroke-width:1.0;" x1="487" x2="487" y1="508.7031" y2="526.6641"/><line style="stroke:#000000;stroke-width:1.0;" x1="6" x2="6" y1="562.5859" y2="577.8867"/><line style="stroke:#000000;stroke-width:1.0;" x1="6" x2="6" y1="544.625" y2="562.5859"/><line style="stroke:#000000;stroke-width:1.0;" x1="487" x2="487" y1="562.5859" y2="577.8867"/><line style="stroke:#000000;stroke-width:1.0;" x1="6" x2="6" y1="526.6641" y2="544.625"/><line style="stroke:#000000;stroke-width:1.0;" x1="487" x2="487" y1="544.625" y2="562.5859"/><text fill="#008B8B" font-family="sans-serif" font-size="12" lengthAdjust="spacing" textLength="36" x="7" y="611.7969">Obs2 :</text><text fill="#000000" font-family="sans-serif" font-size="12" lengthAdjust="spacing" textLength="148" x="49" y="611.7969">Conversation t&#233;l&#233;phonique</text><text fill="#808080" font-family="sans-serif" font-size="10" lengthAdjust="spacing" textLength="51" x="7" y="645.5605">Il y a 5 ans</text><text fill="#808080" font-family="sans-serif" font-size="10" lengthAdjust="spacing" textLength="46" x="442" y="645.5605">R&#233;pondre</text><line style="stroke:#000000;stroke-width:1.0;" x1="6" x2="489" y1="597.8477" y2="597.8477"/><line style="stroke:#000000;stroke-width:1.0;" x1="6" x2="489" y1="649.0703" y2="649.0703"/><line style="stroke:#000000;stroke-width:1.0;" x1="6" x2="6" y1="597.8477" y2="615.8086"/><line style="stroke:#000000;stroke-width:1.0;" x1="489" x2="489" y1="615.8086" y2="633.7695"/><line style="stroke:#000000;stroke-width:1.0;" x1="489" x2="489" y1="597.8477" y2="615.8086"/><line style="stroke:#000000;stroke-width:1.0;" x1="6" x2="6" y1="633.7695" y2="649.0703"/><line style="stroke:#000000;stroke-width:1.0;" x1="6" x2="6" y1="615.8086" y2="633.7695"/><line style="stroke:#000000;stroke-width:1.0;" x1="489" x2="489" y1="633.7695" y2="649.0703"/><text fill="#008B8B" font-family="sans-serif" font-size="12" lengthAdjust="spacing" textLength="36" x="7" y="682.9805">Obs3 :</text><text fill="#000000" font-family="sans-serif" font-size="12" lengthAdjust="spacing" textLength="111" x="49" y="682.9805">Appel sans r&#233;ponse</text><text fill="#808080" font-family="sans-serif" font-size="10" lengthAdjust="spacing" textLength="51" x="7" y="716.7441">Il y a 7 ans</text><text fill="#808080" font-family="sans-serif" font-size="10" lengthAdjust="spacing" textLength="46" x="445" y="716.7441">R&#233;pondre</text><line style="stroke:#000000;stroke-width:1.0;" x1="6" x2="492" y1="669.0313" y2="669.0313"/><line style="stroke:#000000;stroke-width:1.0;" x1="6" x2="492" y1="720.2539" y2="720.2539"/><line style="stroke:#000000;stroke-width:1.0;" x1="6" x2="6" y1="669.0313" y2="686.9922"/><line style="stroke:#000000;stroke-width:1.0;" x1="492" x2="492" y1="686.9922" y2="704.9531"/><line style="stroke:#000000;stroke-width:1.0;" x1="492" x2="492" y1="669.0313" y2="686.9922"/><line style="stroke:#000000;stroke-width:1.0;" x1="6" x2="6" y1="704.9531" y2="720.2539"/><line style="stroke:#000000;stroke-width:1.0;" x1="6" x2="6" y1="686.9922" y2="704.9531"/><line style="stroke:#000000;stroke-width:1.0;" x1="492" x2="492" y1="704.9531" y2="720.2539"/><!--SRC=[rLTjKnev77-_d-B_oeFsH7RHsZAMLl6XUY1MRAStJZiJbe1fGx9DiamjybtkBVqQVB7-iekACyfSzSwvoy2IaFzJVl-dx6lhc76MIHUC0g93DXI6KvKsEhLsw_3mJrgcCAgihZt3fBc9n_hlpqCQO1ALemWSoyjuZ5OymzvqegOJmoHTN0gwe3gJN7MDu0QBvdJYCBFP_yRnCNXB9V_mGhm1HAtEPnuxqQFkRrnzJQS_7ASkPCNuVVK4d9zQgQ1iVCeOTYwfffDOvoGZAdmeUfCywGKLYdIe5Ot7T06EyQK-V442GrZiOBUmJdnDkQKk9tcbErD1kMbKWh2tAPEY9sBc16JUe7q2u63VzipQcNqPrwvW7I45zDpAuhSbfnii-mfsYM76mvHAkGH5h5LFcC5qmYbX1e9qnt8pP8wd9XT5bsDEL0FKHlUujR1PSKaiZddYk672BGlfJJBJIQBXAC3u5wMA4qiT5bSkU9LREl9Wpb3D8SwGlLPrvU8kt24Pn6BAb2K9P3_hr2ZEqczUOqURxWg0FCiXJwO_CBtx36y0e4kxEV6GAvTPAXd5HdWuRcNqXet1FXez3UZkCLgqkT7JoW5ugStBlk7dPCLt_Z8irzhEC3YdB_WYzitwoVvketNY0HamOrWV_kTK3bVmYShXYqNCu_52i_-5GxMkuwbWYuj4W3AybuezezE4qyx-8kwihlowx8sbE2iupDJgY3sa3h2EoYlb2h2EAXIkLylFxojPwlXBhIci3pmVohV9hbOMWbAwb-wcHinR9gpWFkKwgK4ItLlDAPrmCn0A9HdfCnFhnyV5ePZ78lG3YZFcQbJNWm4IaQ7UMIgipaNBwEc2jF4AhUNVQQXzYOclfT3ZZusb3xNWRkZcLdEfMBhpfDlCVAcVC-NpAFHzT6wl8ndYXzvC9rB4E3UprXUkdb2-cOOBhBWJotr9vyIeGhx2FW9InrTT0Y69BeWGQgT9OiI0ctyUgROsZgnEVRKdDkGn7N2cgB2rlxNPBg94rEWewnhOHXr6ulj08elCvChoWM-fVf7Htm0KwUJu8B6WcqsGqZl7xnxWWzN_kG-YstrGrsg8TfxVTj3j9BIVQULlIWy0Q-qnmFebC1-0NELsv3QJ13Sjwm-QNwxiGn1R_oyWzZSWku5UDlAJvky9TBgBriFDHrpMJZUM39UQTMi4aK899t2pjhFDDaFQzvdf-lKu60UlqTMpzvJWI3BbtZKRv0FJXsLOylst55OAJQosKIV2aC8NrQXSNLkd-iw9hw-LOb3OEshuUc9Y_qfXdH6TrCTrCJXWGqR7gN98eYgr4guEjl-u_0Dl67YPqSeNb-3WVVEQuDdgyfPmrCQD2LdulXbiynvBfGD7ZDnK_IhLap1QYu86K_qKLxygzKnGrn1ipgkqU_mJ]--></g></svg>