<?xml version="1.0" encoding="us-ascii" standalone="no"?><svg xmlns="http://www.w3.org/2000/svg" xmlns:xlink="http://www.w3.org/1999/xlink" contentStyleType="text/css" height="119px" preserveAspectRatio="none" style="width:327px;height:119px;background:#FFFFFF;" version="1.1" viewBox="0 0 327 119" width="327px" zoomAndPan="magnify"><defs/><g><text fill="#000000" font-family="sans-serif" font-size="12" font-weight="bold" lengthAdjust="spacing" textLength="120" x="6" y="18.9492">Calendriers d'activit&#233;</text><path d="M313,10.9609 L313,13.9609 L310,13.9609 L310,15.9609 L313,15.9609 L313,18.9609 L315,18.9609 L315,15.9609 L318,15.9609 L318,13.9609 L315,13.9609 L315,10.9609 L313,10.9609 " fill="#000000" style="stroke:;stroke-width:0.0;stroke-dasharray:;"/><line style="stroke:#AAAAAA;stroke-width:1.0;stroke-dasharray:1.0,2.0;" x1="6" x2="320" y1="27.4609" y2="27.4609"/><rect fill="#EEEEEE" height="19.9609" rx="5" ry="5" style="stroke:#000000;stroke-width:2.5;" width="20" x="9.5" y="35.4609"/><text fill="#000000" font-family="sans-serif" font-size="12" lengthAdjust="spacing" textLength="3" x="18" y="50.4102">&#160;</text><text fill="#000000" font-family="sans-serif" font-size="12" font-weight="bold" lengthAdjust="spacing" textLength="7" x="34" y="45.9102">#</text><text fill="#000000" font-family="sans-serif" font-size="12" font-weight="bold" lengthAdjust="spacing" textLength="22" x="57" y="45.9102">Etat</text><text fill="#000000" font-family="sans-serif" font-size="12" font-weight="bold" lengthAdjust="spacing" textLength="36" x="81" y="45.9102">Navire</text><text fill="#000000" font-family="sans-serif" font-size="12" font-weight="bold" lengthAdjust="spacing" textLength="36" x="204" y="45.9102">Ann&#233;e</text><text fill="#000000" font-family="sans-serif" font-size="12" font-weight="bold" lengthAdjust="spacing" textLength="61" x="245" y="45.9102">Saisisseur</text><rect fill="#EEEEEE" height="19.9609" rx="5" ry="5" style="stroke:#000000;stroke-width:2.5;" width="20" x="9.5" y="62.4219"/><text fill="#000000" font-family="sans-serif" font-size="12" lengthAdjust="spacing" textLength="3" x="18" y="77.3711">&#160;</text><text fill="#000000" font-family="sans-serif" font-size="12" lengthAdjust="spacing" textLength="21" x="34" y="72.8711">120</text><text fill="#000000" font-family="sans-serif" font-size="12" font-weight="bold" lengthAdjust="spacing" textLength="3" x="66" y="72.8711">/</text><text fill="#000000" font-family="sans-serif" font-size="12" lengthAdjust="spacing" textLength="118" x="81" y="72.8711">CN851769 - Vessel 2</text><text fill="#000000" font-family="sans-serif" font-size="12" lengthAdjust="spacing" textLength="28" x="201" y="72.8711">2024</text><text fill="#000000" font-family="sans-serif" font-size="12" lengthAdjust="spacing" textLength="30" x="242" y="72.8711">Obs1</text><rect fill="#EEEEEE" height="19.9609" rx="5" ry="5" style="stroke:#000000;stroke-width:2.5;" width="20" x="9.5" y="89.3828"/><text fill="#000000" font-family="sans-serif" font-size="12" lengthAdjust="spacing" textLength="3" x="18" y="104.332">&#160;</text><text fill="#000000" font-family="sans-serif" font-size="12" lengthAdjust="spacing" textLength="21" x="34" y="99.832">122</text><text fill="#000000" font-family="sans-serif" font-size="12" font-weight="bold" lengthAdjust="spacing" textLength="3" x="66" y="99.832">/</text><text fill="#000000" font-family="sans-serif" font-size="12" lengthAdjust="spacing" textLength="118" x="81" y="99.832">CN123456 - Vessel 3</text><text fill="#000000" font-family="sans-serif" font-size="12" lengthAdjust="spacing" textLength="28" x="201" y="99.832">2024</text><text fill="#000000" font-family="sans-serif" font-size="12" lengthAdjust="spacing" textLength="30" x="242" y="99.832">Obs3</text><path d="M309.09,86.8828 C309.03,86.8828 309,86.9228 309,86.9728 L309,92.7828 C309,92.8328 309.04,92.8728 309.09,92.8728 L315,92.8728 L317,94.8728 L317,86.9628 C317,86.9028 316.96,86.8728 316.91,86.8728 L309.1,86.8728 " fill="#000000" style="stroke:;stroke-width:0.0;stroke-dasharray:;"/><line style="stroke:#000000;stroke-width:1.0;" x1="6" x2="33" y1="31.9609" y2="31.9609"/><line style="stroke:#000000;stroke-width:1.0;" x1="33" x2="56" y1="31.9609" y2="31.9609"/><line style="stroke:#000000;stroke-width:1.0;" x1="56" x2="80" y1="31.9609" y2="31.9609"/><line style="stroke:#000000;stroke-width:1.0;" x1="80" x2="200" y1="31.9609" y2="31.9609"/><line style="stroke:#000000;stroke-width:1.0;" x1="200" x2="241" y1="31.9609" y2="31.9609"/><line style="stroke:#000000;stroke-width:1.0;" x1="241" x2="307" y1="31.9609" y2="31.9609"/><line style="stroke:#000000;stroke-width:1.0;" x1="307" x2="319" y1="31.9609" y2="31.9609"/><line style="stroke:#000000;stroke-width:1.0;" x1="6" x2="33" y1="112.8438" y2="112.8438"/><line style="stroke:#000000;stroke-width:1.0;" x1="33" x2="56" y1="112.8438" y2="112.8438"/><line style="stroke:#000000;stroke-width:1.0;" x1="56" x2="80" y1="112.8438" y2="112.8438"/><line style="stroke:#000000;stroke-width:1.0;" x1="80" x2="200" y1="112.8438" y2="112.8438"/><line style="stroke:#000000;stroke-width:1.0;" x1="200" x2="241" y1="112.8438" y2="112.8438"/><line style="stroke:#000000;stroke-width:1.0;" x1="241" x2="307" y1="112.8438" y2="112.8438"/><line style="stroke:#000000;stroke-width:1.0;" x1="307" x2="319" y1="112.8438" y2="112.8438"/><line style="stroke:#000000;stroke-width:1.0;" x1="6" x2="33" y1="85.8828" y2="85.8828"/><line style="stroke:#000000;stroke-width:1.0;" x1="33" x2="56" y1="85.8828" y2="85.8828"/><line style="stroke:#000000;stroke-width:1.0;" x1="56" x2="80" y1="85.8828" y2="85.8828"/><line style="stroke:#000000;stroke-width:1.0;" x1="80" x2="200" y1="85.8828" y2="85.8828"/><line style="stroke:#000000;stroke-width:1.0;" x1="200" x2="241" y1="85.8828" y2="85.8828"/><line style="stroke:#000000;stroke-width:1.0;" x1="241" x2="307" y1="85.8828" y2="85.8828"/><line style="stroke:#000000;stroke-width:1.0;" x1="307" x2="319" y1="85.8828" y2="85.8828"/><line style="stroke:#000000;stroke-width:1.0;" x1="6" x2="33" y1="58.9219" y2="58.9219"/><line style="stroke:#000000;stroke-width:1.0;" x1="33" x2="56" y1="58.9219" y2="58.9219"/><line style="stroke:#000000;stroke-width:1.0;" x1="56" x2="80" y1="58.9219" y2="58.9219"/><line style="stroke:#000000;stroke-width:1.0;" x1="80" x2="200" y1="58.9219" y2="58.9219"/><line style="stroke:#000000;stroke-width:1.0;" x1="200" x2="241" y1="58.9219" y2="58.9219"/><line style="stroke:#000000;stroke-width:1.0;" x1="241" x2="307" y1="58.9219" y2="58.9219"/><line style="stroke:#000000;stroke-width:1.0;" x1="307" x2="319" y1="58.9219" y2="58.9219"/><line style="stroke:#000000;stroke-width:1.0;" x1="6" x2="6" y1="31.9609" y2="58.9219"/><line style="stroke:#000000;stroke-width:1.0;" x1="56" x2="56" y1="85.8828" y2="112.8438"/><line style="stroke:#000000;stroke-width:1.0;" x1="33" x2="33" y1="31.9609" y2="58.9219"/><line style="stroke:#000000;stroke-width:1.0;" x1="80" x2="80" y1="85.8828" y2="112.8438"/><line style="stroke:#000000;stroke-width:1.0;" x1="56" x2="56" y1="31.9609" y2="58.9219"/><line style="stroke:#000000;stroke-width:1.0;" x1="200" x2="200" y1="85.8828" y2="112.8438"/><line style="stroke:#000000;stroke-width:1.0;" x1="80" x2="80" y1="31.9609" y2="58.9219"/><line style="stroke:#000000;stroke-width:1.0;" x1="241" x2="241" y1="85.8828" y2="112.8438"/><line style="stroke:#000000;stroke-width:1.0;" x1="200" x2="200" y1="31.9609" y2="58.9219"/><line style="stroke:#000000;stroke-width:1.0;" x1="307" x2="307" y1="85.8828" y2="112.8438"/><line style="stroke:#000000;stroke-width:1.0;" x1="319" x2="319" y1="85.8828" y2="112.8438"/><line style="stroke:#000000;stroke-width:1.0;" x1="241" x2="241" y1="31.9609" y2="58.9219"/><line style="stroke:#000000;stroke-width:1.0;" x1="307" x2="307" y1="31.9609" y2="58.9219"/><line style="stroke:#000000;stroke-width:1.0;" x1="319" x2="319" y1="31.9609" y2="58.9219"/><line style="stroke:#000000;stroke-width:1.0;" x1="6" x2="6" y1="58.9219" y2="85.8828"/><line style="stroke:#000000;stroke-width:1.0;" x1="33" x2="33" y1="58.9219" y2="85.8828"/><line style="stroke:#000000;stroke-width:1.0;" x1="56" x2="56" y1="58.9219" y2="85.8828"/><line style="stroke:#000000;stroke-width:1.0;" x1="80" x2="80" y1="58.9219" y2="85.8828"/><line style="stroke:#000000;stroke-width:1.0;" x1="200" x2="200" y1="58.9219" y2="85.8828"/><line style="stroke:#000000;stroke-width:1.0;" x1="241" x2="241" y1="58.9219" y2="85.8828"/><line style="stroke:#000000;stroke-width:1.0;" x1="307" x2="307" y1="58.9219" y2="85.8828"/><line style="stroke:#000000;stroke-width:1.0;" x1="319" x2="319" y1="58.9219" y2="85.8828"/><line style="stroke:#000000;stroke-width:1.0;" x1="6" x2="6" y1="85.8828" y2="112.8438"/><line style="stroke:#000000;stroke-width:1.0;" x1="33" x2="33" y1="85.8828" y2="112.8438"/><!--SRC=[fP3BQW9144NNwQye48mkdDWzFk8WOZAQWF65ITo4BDgnbOQnn_HZ81W_oE_mnrAE1Z5abzvKtqlLgUAsZUNQ6XvRiY40pLahvB5GSos5DZ2_vf6LgRJx7VpdDVFhs9aMBl0yShN94PBPRm3ly7LOcZkMhkNs-1loL6g1FPc2EwNsEt4IprmQQOnm6Wtl0aLP-TG4S8E_S7XRfVLQ0qem5JWI0qENbLa5osXcw1y4zej0cL-friu4_u9mKCrybAnMGjcI-N1SYrP6t1Ao9MtCCakNZ6EkxEkW3oacAnC5r4EAxr6_C43L4H5G2hGHi79GhKFOVJbiyOkay3ZkWqcSZWJCfR5Qpfn5G97qUCfXufILAn70Q2rKh_FqOq1NOOI9Ejn5UjF1kQ5MATrB2yz2uoam7P2EM70NMvo8ahbKom32DMLLHlfSBHrV8doXIPWWM7y6y33v1W00]--></g></svg>