<?xml version="1.0" encoding="us-ascii" standalone="no"?><svg xmlns="http://www.w3.org/2000/svg" xmlns:xlink="http://www.w3.org/1999/xlink" contentStyleType="text/css" height="462px" preserveAspectRatio="none" style="width:585px;height:462px;background:#FFFFFF;" version="1.1" viewBox="0 0 585 462" width="585px" zoomAndPan="magnify"><defs><filter height="1" id="b1mt4s1blwcypw0" width="1" x="0" y="0"><feFlood flood-color="#DDDDDD" result="flood"/><feComposite in="SourceGraphic" in2="flood" operator="over"/></filter></defs><g><text fill="#808080" font-family="sans-serif" font-size="20" font-weight="bold" lengthAdjust="spacing" textLength="188" x="8" y="29.582">Calendrier d'activit&#233;</text><text fill="#000000" font-family="sans-serif" font-size="12" lengthAdjust="spacing" textLength="67" x="8" y="49.5508">Observateur</text><line style="stroke:#AAAAAA;stroke-width:1.0;" x1="8" x2="197" y1="93.9844" y2="93.9844"/><text fill="#000000" font-family="sans-serif" font-size="12" lengthAdjust="spacing" textLength="39" x="8" y="111.4336">Accueil</text><text fill="#808080" font-family="sans-serif" font-size="10" lengthAdjust="spacing" textLength="87" x="8" y="145.1973">Saisie de donn&#233;es</text><line style="stroke:#AAAAAA;stroke-width:1.0;" x1="8" x2="197" y1="153.207" y2="153.207"/><text fill="#000000" filter="url(#b1mt4s1blwcypw0)" font-family="sans-serif" font-size="12" lengthAdjust="spacing" textLength="114" x="18" y="170.6563">Calendriers d'activit&#233;</text><text fill="#000000" font-family="sans-serif" font-size="12" lengthAdjust="spacing" textLength="133" x="28" y="186.6172">123456 - SONNY (2022)</text><text fill="#000000" font-family="sans-serif" font-size="12" lengthAdjust="spacing" textLength="35" x="38" y="202.5781">Navire</text><text fill="#000000" font-family="sans-serif" font-size="12" lengthAdjust="spacing" textLength="58" x="38" y="218.5391">Calendrier</text><text fill="#000000" font-family="sans-serif" font-size="12" lengthAdjust="spacing" textLength="40" x="38" y="234.5">M&#233;tiers</text><text fill="#000000" font-family="sans-serif" font-size="12" lengthAdjust="spacing" textLength="30" x="38" y="250.4609">Carte</text><rect fill="none" height="2" style="stroke:#888888;stroke-width:1.0;" width="2" x="11" y="164.6875"/><rect fill="none" height="2" style="stroke:#888888;stroke-width:1.0;" width="2" x="21" y="180.6484"/><line style="stroke:#888888;stroke-width:1.0;" x1="12" x2="12" y1="167.6875" y2="181.6484"/><line style="stroke:#888888;stroke-width:1.0;" x1="12" x2="20" y1="181.6484" y2="181.6484"/><line style="stroke:#888888;stroke-width:1.0;" x1="22" x2="22" y1="183.6484" y2="197.6094"/><line style="stroke:#888888;stroke-width:1.0;" x1="22" x2="30" y1="197.6094" y2="197.6094"/><line style="stroke:#888888;stroke-width:1.0;" x1="22" x2="22" y1="183.6484" y2="213.5703"/><line style="stroke:#888888;stroke-width:1.0;" x1="22" x2="30" y1="213.5703" y2="213.5703"/><line style="stroke:#888888;stroke-width:1.0;" x1="22" x2="22" y1="183.6484" y2="229.5313"/><line style="stroke:#888888;stroke-width:1.0;" x1="22" x2="30" y1="229.5313" y2="229.5313"/><line style="stroke:#888888;stroke-width:1.0;" x1="22" x2="22" y1="183.6484" y2="245.4922"/><line style="stroke:#888888;stroke-width:1.0;" x1="22" x2="30" y1="245.4922" y2="245.4922"/><text fill="#808080" font-family="sans-serif" font-size="10" lengthAdjust="spacing" textLength="56" x="8" y="374.0293">R&#233;f&#233;rentiels</text><line style="stroke:#AAAAAA;stroke-width:1.0;" x1="8" x2="197" y1="382.0391" y2="382.0391"/><line style="stroke:#AAAAAA;stroke-width:1.0;" x1="8" x2="197" y1="408" y2="408"/><text fill="#000000" font-family="sans-serif" font-size="12" lengthAdjust="spacing" textLength="86" x="8" y="425.4492">Se d&#233;connecter</text><line style="stroke:#AAAAAA;stroke-width:1.0;" x1="8" x2="197" y1="433.9609" y2="433.9609"/><text fill="#808080" font-family="sans-serif" font-size="10" lengthAdjust="spacing" textLength="80" x="8" y="451.252">V XXX - &#224; propos</text><line style="stroke:#000000;stroke-width:1.0;" x1="6" x2="203" y1="6" y2="6"/><line style="stroke:#000000;stroke-width:1.0;" x1="6" x2="203" y1="455.7617" y2="455.7617"/><line style="stroke:#000000;stroke-width:1.0;" x1="6" x2="6" y1="6" y2="438.4609"/><line style="stroke:#000000;stroke-width:1.0;" x1="203" x2="203" y1="438.4609" y2="455.7617"/><line style="stroke:#000000;stroke-width:1.0;" x1="203" x2="203" y1="6" y2="438.4609"/><line style="stroke:#000000;stroke-width:1.0;" x1="6" x2="6" y1="438.4609" y2="455.7617"/><text fill="#000000" font-family="sans-serif" font-size="12" font-weight="bold" lengthAdjust="spacing" textLength="120" x="212" y="20.9492">Calendriers d'activit&#233;</text><rect fill="#EEEEEE" height="19.9609" rx="5" ry="5" style="stroke:#000000;stroke-width:2.5;" width="12" x="561.5" y="10.5"/><text fill="#000000" font-family="sans-serif" font-size="12" font-weight="bold" lengthAdjust="spacing" textLength="7" x="564" y="25.4492">+</text><line style="stroke:#AAAAAA;stroke-width:1.0;" x1="211" x2="578" y1="39.4609" y2="39.4609"/><text fill="#000000" font-family="sans-serif" font-size="12" font-weight="bold" lengthAdjust="spacing" textLength="102" x="347" y="237.5195">Fen&#234;tre principale</text><line style="stroke:#000000;stroke-width:1.0;" x1="210" x2="578" y1="6" y2="6"/><line style="stroke:#000000;stroke-width:1.0;" x1="210" x2="578" y1="440.1016" y2="440.1016"/><line style="stroke:#000000;stroke-width:1.0;" x1="210" x2="210" y1="6" y2="34.9609"/><line style="stroke:#000000;stroke-width:1.0;" x1="578" x2="578" y1="6" y2="34.9609"/><line style="stroke:#000000;stroke-width:1.0;" x1="210" x2="210" y1="278.4531" y2="296.4141"/><line style="stroke:#000000;stroke-width:1.0;" x1="578" x2="578" y1="278.4531" y2="296.4141"/><line style="stroke:#000000;stroke-width:1.0;" x1="210" x2="210" y1="204.6094" y2="222.5703"/><line style="stroke:#000000;stroke-width:1.0;" x1="578" x2="578" y1="204.6094" y2="222.5703"/><line style="stroke:#000000;stroke-width:1.0;" x1="210" x2="210" y1="132.7656" y2="150.7266"/><line style="stroke:#000000;stroke-width:1.0;" x1="578" x2="578" y1="132.7656" y2="150.7266"/><line style="stroke:#000000;stroke-width:1.0;" x1="210" x2="210" y1="404.1797" y2="422.1406"/><line style="stroke:#000000;stroke-width:1.0;" x1="578" x2="578" y1="404.1797" y2="422.1406"/><line style="stroke:#000000;stroke-width:1.0;" x1="210" x2="210" y1="60.9219" y2="78.8828"/><line style="stroke:#000000;stroke-width:1.0;" x1="578" x2="578" y1="60.9219" y2="78.8828"/><line style="stroke:#000000;stroke-width:1.0;" x1="210" x2="210" y1="332.3359" y2="350.2969"/><line style="stroke:#000000;stroke-width:1.0;" x1="578" x2="578" y1="332.3359" y2="350.2969"/><line style="stroke:#000000;stroke-width:1.0;" x1="210" x2="210" y1="260.4922" y2="278.4531"/><line style="stroke:#000000;stroke-width:1.0;" x1="578" x2="578" y1="260.4922" y2="278.4531"/><line style="stroke:#000000;stroke-width:1.0;" x1="210" x2="210" y1="186.6484" y2="204.6094"/><line style="stroke:#000000;stroke-width:1.0;" x1="578" x2="578" y1="186.6484" y2="204.6094"/><line style="stroke:#000000;stroke-width:1.0;" x1="210" x2="210" y1="114.8047" y2="132.7656"/><line style="stroke:#000000;stroke-width:1.0;" x1="578" x2="578" y1="114.8047" y2="132.7656"/><line style="stroke:#000000;stroke-width:1.0;" x1="210" x2="210" y1="386.2188" y2="404.1797"/><line style="stroke:#000000;stroke-width:1.0;" x1="578" x2="578" y1="386.2188" y2="404.1797"/><line style="stroke:#000000;stroke-width:1.0;" x1="210" x2="210" y1="42.9609" y2="60.9219"/><line style="stroke:#000000;stroke-width:1.0;" x1="578" x2="578" y1="42.9609" y2="60.9219"/><line style="stroke:#000000;stroke-width:1.0;" x1="210" x2="210" y1="314.375" y2="332.3359"/><line style="stroke:#000000;stroke-width:1.0;" x1="578" x2="578" y1="314.375" y2="332.3359"/><line style="stroke:#000000;stroke-width:1.0;" x1="210" x2="210" y1="242.5313" y2="260.4922"/><line style="stroke:#000000;stroke-width:1.0;" x1="578" x2="578" y1="242.5313" y2="260.4922"/><line style="stroke:#000000;stroke-width:1.0;" x1="210" x2="210" y1="168.6875" y2="186.6484"/><line style="stroke:#000000;stroke-width:1.0;" x1="578" x2="578" y1="168.6875" y2="186.6484"/><line style="stroke:#000000;stroke-width:1.0;" x1="210" x2="210" y1="96.8438" y2="114.8047"/><line style="stroke:#000000;stroke-width:1.0;" x1="578" x2="578" y1="96.8438" y2="114.8047"/><line style="stroke:#000000;stroke-width:1.0;" x1="210" x2="210" y1="368.2578" y2="386.2188"/><line style="stroke:#000000;stroke-width:1.0;" x1="578" x2="578" y1="368.2578" y2="386.2188"/><line style="stroke:#000000;stroke-width:1.0;" x1="210" x2="210" y1="34.9609" y2="42.9609"/><line style="stroke:#000000;stroke-width:1.0;" x1="578" x2="578" y1="34.9609" y2="42.9609"/><line style="stroke:#000000;stroke-width:1.0;" x1="210" x2="210" y1="296.4141" y2="314.375"/><line style="stroke:#000000;stroke-width:1.0;" x1="578" x2="578" y1="296.4141" y2="314.375"/><line style="stroke:#000000;stroke-width:1.0;" x1="210" x2="210" y1="222.5703" y2="242.5313"/><line style="stroke:#000000;stroke-width:1.0;" x1="578" x2="578" y1="222.5703" y2="242.5313"/><line style="stroke:#000000;stroke-width:1.0;" x1="210" x2="210" y1="150.7266" y2="168.6875"/><line style="stroke:#000000;stroke-width:1.0;" x1="578" x2="578" y1="150.7266" y2="168.6875"/><line style="stroke:#000000;stroke-width:1.0;" x1="210" x2="210" y1="422.1406" y2="440.1016"/><line style="stroke:#000000;stroke-width:1.0;" x1="578" x2="578" y1="422.1406" y2="440.1016"/><line style="stroke:#000000;stroke-width:1.0;" x1="210" x2="210" y1="78.8828" y2="96.8438"/><line style="stroke:#000000;stroke-width:1.0;" x1="578" x2="578" y1="78.8828" y2="96.8438"/><line style="stroke:#000000;stroke-width:1.0;" x1="210" x2="210" y1="350.2969" y2="368.2578"/><line style="stroke:#000000;stroke-width:1.0;" x1="578" x2="578" y1="350.2969" y2="368.2578"/><!--SRC=[jLHVRzem47_tfpXf3mCX8X9AfqKKTKlQIOm_5NI8QTg3CGPPIstaE96wjDzbh-dNo1Vh9P2M3gWcgbcvoyM-E_tkVkUSXuPg4zB0a8G093LKa5l5QiywxOMI1fWAb3vRQduBeVZDpvn6nwC1btCjk8RvUygCY8N9qZ9oE0kvZgdXaIwth1sZNY-jJun5N0IvURV7SJy8kz4PKn4A3dDyb9HPoiFTt91SFvbRgzQUKVRBVUVx_bOjuRvYNeJLm7QQ9wrJgCDuE1XyXuhJS9pgDkwN_ZKOq5XeVkXqgv6lvEXdgIdmlUBZ8PLyZyCzESp1lnW7sp_AqaMMQYuHMh2dzHRPtHiZLrdAa2xE3DQyNdT_JyKQSpc91n5CO3gT8XNP7rXfjLBXEXObJucodcX8yba-GFF6yraTAV_Z-O6mQp-BYfwQQBr19yUNTvGW_4ikimUZEH8a91Ch965JZ_KcNRmsD9DxSexK5lynSXLGQRxrUn0ZqK99i2syeatBRbRw-ELp1hODzaVNQRYj3-1TN4D-NYMLBrSz25Ma6Swe28qMiyXWWYhfqfZ2AC8vl-4k35TSTlslvGPSIBpVIjxWFI3TIV_PuVIa_baO77cDK63I9pvVq2Wm6C7KNCYb2zxATbeEwL6vZEWIaoyqyHGcrhSkN8uU0G00]--></g></svg>