<?xml version="1.0" encoding="UTF-8" standalone="no"?><svg xmlns="http://www.w3.org/2000/svg" xmlns:xlink="http://www.w3.org/1999/xlink" contentStyleType="text/css" height="540px" preserveAspectRatio="none" style="width:1125px;height:540px;background:#FFFFFF;" version="1.1" viewBox="0 0 1125 540" width="1125px" zoomAndPan="magnify"><defs/><g><text fill="#000000" font-family="sans-serif" font-size="12" font-weight="bold" lengthAdjust="spacing" textLength="118" x="6" y="18.8281">Nouveau calendrier</text><line style="stroke:#AAAAAA;stroke-width:1.0;" x1="6" x2="1118" y1="27.8441" y2="27.8441"/><text fill="#000000" font-family="sans-serif" font-size="12" font-weight="bold" lengthAdjust="spacing" textLength="47" x="8" y="45.1722">Général</text><line style="stroke:#000000;stroke-width:1.0;" x1="6" x2="6" y1="32.3441" y2="48.6882"/><line style="stroke:#000000;stroke-width:1.0;" x1="6" x2="58" y1="32.3441" y2="32.3441"/><line style="stroke:#000000;stroke-width:1.0;" x1="58" x2="58" y1="32.3441" y2="48.6882"/><line style="stroke:#000000;stroke-width:1.0;" x1="58" x2="68" y1="48.6882" y2="48.6882"/><text fill="#000000" font-family="sans-serif" font-size="12" lengthAdjust="spacing" textLength="59" x="70" y="45.1722">Calendrier</text><line style="stroke:#000000;stroke-width:1.0;" x1="68" x2="68" y1="32.3441" y2="48.6882"/><line style="stroke:#000000;stroke-width:1.0;" x1="68" x2="132" y1="32.3441" y2="32.3441"/><line style="stroke:#000000;stroke-width:1.0;" x1="132" x2="132" y1="32.3441" y2="48.6882"/><line style="stroke:#000000;stroke-width:1.0;" x1="132" x2="142" y1="48.6882" y2="48.6882"/><text fill="#000000" font-family="sans-serif" font-size="12" lengthAdjust="spacing" textLength="43" x="144" y="45.1722">Métiers</text><line style="stroke:#000000;stroke-width:1.0;" x1="142" x2="142" y1="32.3441" y2="48.6882"/><line style="stroke:#000000;stroke-width:1.0;" x1="142" x2="190" y1="32.3441" y2="32.3441"/><line style="stroke:#000000;stroke-width:1.0;" x1="190" x2="190" y1="32.3441" y2="48.6882"/><line style="stroke:#000000;stroke-width:1.0;" x1="190" x2="200" y1="48.6882" y2="48.6882"/><text fill="#000000" font-family="sans-serif" font-size="12" lengthAdjust="spacing" textLength="83" x="202" y="45.1722">Commentaires</text><line style="stroke:#000000;stroke-width:1.0;" x1="200" x2="200" y1="32.3441" y2="48.6882"/><line style="stroke:#000000;stroke-width:1.0;" x1="200" x2="288" y1="32.3441" y2="32.3441"/><line style="stroke:#000000;stroke-width:1.0;" x1="288" x2="288" y1="32.3441" y2="48.6882"/><line style="stroke:#000000;stroke-width:1.0;" x1="288" x2="298" y1="48.6882" y2="48.6882"/><line style="stroke:#AAAAAA;stroke-width:1.0;stroke-dasharray:1.0,2.0;" x1="6" x2="1118" y1="54.1882" y2="54.1882"/><text fill="#000000" font-family="sans-serif" font-size="12" font-weight="bold" lengthAdjust="spacing" textLength="53" x="7" y="90.8604">Navire* :</text><rect fill="#EEEEEE" height="19.3441" style="stroke:#000000;stroke-width:1.0;" width="255" x="62" y="78.0323"/><text fill="#000000" font-family="sans-serif" font-size="12" lengthAdjust="spacing" textLength="201" x="64" y="92.8604">136794 - SONNY NINO MATHILDE 3</text><line style="stroke:#000000;stroke-width:1.0;" x1="306" x2="306" y1="78.0323" y2="97.3765"/><polygon fill="#000000" points="309,84.0323,315,84.0323,312,92.3765" style="stroke:#000000;stroke-width:1.0;"/><text fill="#000000" font-family="sans-serif" font-size="12" font-weight="bold" lengthAdjust="spacing" textLength="473" x="7" y="115.2045">Etat des changements des caractéristiques et des armateurs du navire sur 2022</text><text fill="#000000" font-family="sans-serif" font-size="12" lengthAdjust="spacing" textLength="159" x="13" y="134.5487">Caractéristiques des navires</text><text fill="#000000" font-family="sans-serif" font-size="12" lengthAdjust="spacing" textLength="89" x="14" y="153.8928">Immatriculation</text><text fill="#000000" font-family="sans-serif" font-size="12" lengthAdjust="spacing" textLength="77" x="105" y="153.8928">Début validité</text><text fill="#000000" font-family="sans-serif" font-size="12" lengthAdjust="spacing" textLength="59" x="184" y="153.8928">Fin validité</text><text fill="#000000" font-family="sans-serif" font-size="12" lengthAdjust="spacing" textLength="82" x="250" y="153.8928">Nom du navire</text><text fill="#000000" font-family="sans-serif" font-size="12" lengthAdjust="spacing" textLength="101" x="401" y="153.8928">Port d'exploitation</text><text fill="#000000" font-family="sans-serif" font-size="12" lengthAdjust="spacing" textLength="141" x="591" y="153.8928">Jauge brute (TJB 1/100 tx)</text><text fill="#000000" font-family="sans-serif" font-size="12" lengthAdjust="spacing" textLength="58" x="734" y="153.8928">Jauge (GT)</text><text fill="#000000" font-family="sans-serif" font-size="12" lengthAdjust="spacing" textLength="91" x="794" y="153.8928">Puiss. adm. (kW)</text><text fill="#000000" font-family="sans-serif" font-size="12" lengthAdjust="spacing" textLength="77" x="887" y="153.8928">Long. H.T. (m)</text><text fill="#000000" font-family="sans-serif" font-size="12" lengthAdjust="spacing" textLength="125" x="966" y="153.8928">Année de construction</text><text fill="#000000" font-family="sans-serif" font-size="12" lengthAdjust="spacing" textLength="21" x="1093" y="153.8928">FPC</text><text fill="#000000" font-family="sans-serif" font-size="12" lengthAdjust="spacing" textLength="42" x="14" y="172.2369">136794</text><text fill="#000000" font-family="sans-serif" font-size="12" lengthAdjust="spacing" textLength="64" x="105" y="172.2369">06/04/2021</text><text fill="#000000" font-family="sans-serif" font-size="12" lengthAdjust="spacing" textLength="64" x="184" y="172.2369">31/12/2022</text><text fill="#000000" font-family="sans-serif" font-size="12" lengthAdjust="spacing" textLength="149" x="250" y="172.2369">SONNY NINO MATHILDE 3</text><text fill="#000000" font-family="sans-serif" font-size="12" lengthAdjust="spacing" textLength="188" x="401" y="172.2369">JMA - La Madrague de Montredon</text><text fill="#000000" font-family="sans-serif" font-size="12" lengthAdjust="spacing" textLength="21" x="591" y="172.2369">560</text><text fill="#000000" font-family="sans-serif" font-size="12" lengthAdjust="spacing" textLength="21" x="734" y="172.2369">320</text><text fill="#000000" font-family="sans-serif" font-size="12" lengthAdjust="spacing" textLength="24" x="794" y="172.2369">66.0</text><text fill="#000000" font-family="sans-serif" font-size="12" lengthAdjust="spacing" textLength="7" x="887" y="172.2369">9</text><text fill="#000000" font-family="sans-serif" font-size="12" lengthAdjust="spacing" textLength="28" x="966" y="172.2369">1967</text><text fill="#000000" font-family="sans-serif" font-size="12" lengthAdjust="spacing" textLength="19" x="1093" y="172.2369">Oui</text><line style="stroke:#000000;stroke-width:1.0;" x1="13" x2="104" y1="140.0647" y2="140.0647"/><line style="stroke:#000000;stroke-width:1.0;" x1="104" x2="183" y1="140.0647" y2="140.0647"/><line style="stroke:#000000;stroke-width:1.0;" x1="183" x2="249" y1="140.0647" y2="140.0647"/><line style="stroke:#000000;stroke-width:1.0;" x1="249" x2="400" y1="140.0647" y2="140.0647"/><line style="stroke:#000000;stroke-width:1.0;" x1="400" x2="590" y1="140.0647" y2="140.0647"/><line style="stroke:#000000;stroke-width:1.0;" x1="590" x2="733" y1="140.0647" y2="140.0647"/><line style="stroke:#000000;stroke-width:1.0;" x1="733" x2="793" y1="140.0647" y2="140.0647"/><line style="stroke:#000000;stroke-width:1.0;" x1="793" x2="886" y1="140.0647" y2="140.0647"/><line style="stroke:#000000;stroke-width:1.0;" x1="886" x2="965" y1="140.0647" y2="140.0647"/><line style="stroke:#000000;stroke-width:1.0;" x1="965" x2="1092" y1="140.0647" y2="140.0647"/><line style="stroke:#000000;stroke-width:1.0;" x1="1092" x2="1115" y1="140.0647" y2="140.0647"/><line style="stroke:#000000;stroke-width:1.0;" x1="13" x2="104" y1="176.7529" y2="176.7529"/><line style="stroke:#000000;stroke-width:1.0;" x1="104" x2="183" y1="176.7529" y2="176.7529"/><line style="stroke:#000000;stroke-width:1.0;" x1="183" x2="249" y1="176.7529" y2="176.7529"/><line style="stroke:#000000;stroke-width:1.0;" x1="249" x2="400" y1="176.7529" y2="176.7529"/><line style="stroke:#000000;stroke-width:1.0;" x1="400" x2="590" y1="176.7529" y2="176.7529"/><line style="stroke:#000000;stroke-width:1.0;" x1="590" x2="733" y1="176.7529" y2="176.7529"/><line style="stroke:#000000;stroke-width:1.0;" x1="733" x2="793" y1="176.7529" y2="176.7529"/><line style="stroke:#000000;stroke-width:1.0;" x1="793" x2="886" y1="176.7529" y2="176.7529"/><line style="stroke:#000000;stroke-width:1.0;" x1="886" x2="965" y1="176.7529" y2="176.7529"/><line style="stroke:#000000;stroke-width:1.0;" x1="965" x2="1092" y1="176.7529" y2="176.7529"/><line style="stroke:#000000;stroke-width:1.0;" x1="1092" x2="1115" y1="176.7529" y2="176.7529"/><line style="stroke:#000000;stroke-width:1.0;" x1="13" x2="104" y1="158.4088" y2="158.4088"/><line style="stroke:#000000;stroke-width:1.0;" x1="104" x2="183" y1="158.4088" y2="158.4088"/><line style="stroke:#000000;stroke-width:1.0;" x1="183" x2="249" y1="158.4088" y2="158.4088"/><line style="stroke:#000000;stroke-width:1.0;" x1="249" x2="400" y1="158.4088" y2="158.4088"/><line style="stroke:#000000;stroke-width:1.0;" x1="400" x2="590" y1="158.4088" y2="158.4088"/><line style="stroke:#000000;stroke-width:1.0;" x1="590" x2="733" y1="158.4088" y2="158.4088"/><line style="stroke:#000000;stroke-width:1.0;" x1="733" x2="793" y1="158.4088" y2="158.4088"/><line style="stroke:#000000;stroke-width:1.0;" x1="793" x2="886" y1="158.4088" y2="158.4088"/><line style="stroke:#000000;stroke-width:1.0;" x1="886" x2="965" y1="158.4088" y2="158.4088"/><line style="stroke:#000000;stroke-width:1.0;" x1="965" x2="1092" y1="158.4088" y2="158.4088"/><line style="stroke:#000000;stroke-width:1.0;" x1="1092" x2="1115" y1="158.4088" y2="158.4088"/><line style="stroke:#000000;stroke-width:1.0;" x1="13" x2="13" y1="140.0647" y2="158.4088"/><line style="stroke:#000000;stroke-width:1.0;" x1="104" x2="104" y1="140.0647" y2="158.4088"/><line style="stroke:#000000;stroke-width:1.0;" x1="183" x2="183" y1="140.0647" y2="158.4088"/><line style="stroke:#000000;stroke-width:1.0;" x1="249" x2="249" y1="140.0647" y2="158.4088"/><line style="stroke:#000000;stroke-width:1.0;" x1="400" x2="400" y1="140.0647" y2="158.4088"/><line style="stroke:#000000;stroke-width:1.0;" x1="590" x2="590" y1="140.0647" y2="158.4088"/><line style="stroke:#000000;stroke-width:1.0;" x1="733" x2="733" y1="140.0647" y2="158.4088"/><line style="stroke:#000000;stroke-width:1.0;" x1="793" x2="793" y1="140.0647" y2="158.4088"/><line style="stroke:#000000;stroke-width:1.0;" x1="886" x2="886" y1="140.0647" y2="158.4088"/><line style="stroke:#000000;stroke-width:1.0;" x1="965" x2="965" y1="140.0647" y2="158.4088"/><line style="stroke:#000000;stroke-width:1.0;" x1="1092" x2="1092" y1="140.0647" y2="158.4088"/><line style="stroke:#000000;stroke-width:1.0;" x1="1115" x2="1115" y1="140.0647" y2="158.4088"/><line style="stroke:#000000;stroke-width:1.0;" x1="13" x2="13" y1="158.4088" y2="176.7529"/><line style="stroke:#000000;stroke-width:1.0;" x1="104" x2="104" y1="158.4088" y2="176.7529"/><line style="stroke:#000000;stroke-width:1.0;" x1="183" x2="183" y1="158.4088" y2="176.7529"/><line style="stroke:#000000;stroke-width:1.0;" x1="249" x2="249" y1="158.4088" y2="176.7529"/><line style="stroke:#000000;stroke-width:1.0;" x1="400" x2="400" y1="158.4088" y2="176.7529"/><line style="stroke:#000000;stroke-width:1.0;" x1="590" x2="590" y1="158.4088" y2="176.7529"/><line style="stroke:#000000;stroke-width:1.0;" x1="733" x2="733" y1="158.4088" y2="176.7529"/><line style="stroke:#000000;stroke-width:1.0;" x1="793" x2="793" y1="158.4088" y2="176.7529"/><line style="stroke:#000000;stroke-width:1.0;" x1="886" x2="886" y1="158.4088" y2="176.7529"/><line style="stroke:#000000;stroke-width:1.0;" x1="965" x2="965" y1="158.4088" y2="176.7529"/><line style="stroke:#000000;stroke-width:1.0;" x1="1092" x2="1092" y1="158.4088" y2="176.7529"/><line style="stroke:#000000;stroke-width:1.0;" x1="1115" x2="1115" y1="158.4088" y2="176.7529"/><text fill="#000000" font-family="sans-serif" font-size="12" lengthAdjust="spacing" textLength="222" x="13" y="209.9251">Historique des immatriculations navires</text><text fill="#000000" font-family="sans-serif" font-size="12" lengthAdjust="spacing" textLength="89" x="14" y="229.2692">Immatriculation</text><text fill="#000000" font-family="sans-serif" font-size="12" lengthAdjust="spacing" textLength="125" x="105" y="229.2692">Début immatriculation</text><text fill="#000000" font-family="sans-serif" font-size="12" lengthAdjust="spacing" textLength="107" x="232" y="229.2692">Fin immatriculation</text><text fill="#000000" font-family="sans-serif" font-size="12" lengthAdjust="spacing" textLength="148" x="341" y="229.2692">Quartier d'immatriculation</text><text fill="#000000" font-family="sans-serif" font-size="12" lengthAdjust="spacing" textLength="42" x="14" y="247.6133">136794</text><text fill="#000000" font-family="sans-serif" font-size="12" lengthAdjust="spacing" textLength="64" x="105" y="247.6133">01/01/1967</text><text fill="#000000" font-family="sans-serif" font-size="12" lengthAdjust="spacing" textLength="81" x="341" y="247.6133">MA - Marseille</text><line style="stroke:#000000;stroke-width:1.0;" x1="13" x2="104" y1="215.4411" y2="215.4411"/><line style="stroke:#000000;stroke-width:1.0;" x1="231" x2="340" y1="252.1294" y2="252.1294"/><line style="stroke:#000000;stroke-width:1.0;" x1="104" x2="231" y1="233.7853" y2="233.7853"/><line style="stroke:#000000;stroke-width:1.0;" x1="104" x2="231" y1="215.4411" y2="215.4411"/><line style="stroke:#000000;stroke-width:1.0;" x1="340" x2="490" y1="252.1294" y2="252.1294"/><line style="stroke:#000000;stroke-width:1.0;" x1="231" x2="340" y1="233.7853" y2="233.7853"/><line style="stroke:#000000;stroke-width:1.0;" x1="231" x2="340" y1="215.4411" y2="215.4411"/><line style="stroke:#000000;stroke-width:1.0;" x1="340" x2="490" y1="233.7853" y2="233.7853"/><line style="stroke:#000000;stroke-width:1.0;" x1="340" x2="490" y1="215.4411" y2="215.4411"/><line style="stroke:#000000;stroke-width:1.0;" x1="13" x2="104" y1="252.1294" y2="252.1294"/><line style="stroke:#000000;stroke-width:1.0;" x1="104" x2="231" y1="252.1294" y2="252.1294"/><line style="stroke:#000000;stroke-width:1.0;" x1="13" x2="104" y1="233.7853" y2="233.7853"/><line style="stroke:#000000;stroke-width:1.0;" x1="13" x2="13" y1="215.4411" y2="233.7853"/><line style="stroke:#000000;stroke-width:1.0;" x1="104" x2="104" y1="233.7853" y2="252.1294"/><line style="stroke:#000000;stroke-width:1.0;" x1="104" x2="104" y1="215.4411" y2="233.7853"/><line style="stroke:#000000;stroke-width:1.0;" x1="231" x2="231" y1="233.7853" y2="252.1294"/><line style="stroke:#000000;stroke-width:1.0;" x1="231" x2="231" y1="215.4411" y2="233.7853"/><line style="stroke:#000000;stroke-width:1.0;" x1="340" x2="340" y1="233.7853" y2="252.1294"/><line style="stroke:#000000;stroke-width:1.0;" x1="490" x2="490" y1="233.7853" y2="252.1294"/><line style="stroke:#000000;stroke-width:1.0;" x1="340" x2="340" y1="215.4411" y2="233.7853"/><line style="stroke:#000000;stroke-width:1.0;" x1="490" x2="490" y1="215.4411" y2="233.7853"/><line style="stroke:#000000;stroke-width:1.0;" x1="13" x2="13" y1="233.7853" y2="252.1294"/><text fill="#000000" font-family="sans-serif" font-size="12" lengthAdjust="spacing" textLength="152" x="13" y="285.3016">Couples navires-armateurs</text><text fill="#000000" font-family="sans-serif" font-size="12" lengthAdjust="spacing" textLength="89" x="14" y="304.6457">Immatricualtion</text><text fill="#000000" font-family="sans-serif" font-size="12" lengthAdjust="spacing" textLength="85" x="105" y="304.6457">Code armateur</text><text fill="#000000" font-family="sans-serif" font-size="12" lengthAdjust="spacing" textLength="96" x="192" y="304.6457">Début armement</text><text fill="#000000" font-family="sans-serif" font-size="12" lengthAdjust="spacing" textLength="78" x="290" y="304.6457">Fin armement</text><text fill="#000000" font-family="sans-serif" font-size="12" lengthAdjust="spacing" textLength="83" x="370" y="304.6457">Nom armateur</text><text fill="#000000" font-family="sans-serif" font-size="12" lengthAdjust="spacing" textLength="100" x="455" y="304.6457">Prénom armateur</text><text fill="#000000" font-family="sans-serif" font-size="12" lengthAdjust="spacing" textLength="42" x="14" y="322.9898">136794</text><text fill="#000000" font-family="sans-serif" font-size="12" lengthAdjust="spacing" textLength="35" x="105" y="322.9898">15233</text><text fill="#000000" font-family="sans-serif" font-size="12" lengthAdjust="spacing" textLength="64" x="192" y="322.9898">06/04/2021</text><text fill="#000000" font-family="sans-serif" font-size="12" lengthAdjust="spacing" textLength="48" x="370" y="322.9898">CRIMON</text><text fill="#000000" font-family="sans-serif" font-size="12" lengthAdjust="spacing" textLength="21" x="455" y="322.9898">Eric</text><line style="stroke:#000000;stroke-width:1.0;" x1="13" x2="104" y1="290.8176" y2="290.8176"/><line style="stroke:#000000;stroke-width:1.0;" x1="191" x2="289" y1="327.5058" y2="327.5058"/><line style="stroke:#000000;stroke-width:1.0;" x1="104" x2="191" y1="290.8176" y2="290.8176"/><line style="stroke:#000000;stroke-width:1.0;" x1="289" x2="369" y1="327.5058" y2="327.5058"/><line style="stroke:#000000;stroke-width:1.0;" x1="191" x2="289" y1="290.8176" y2="290.8176"/><line style="stroke:#000000;stroke-width:1.0;" x1="369" x2="454" y1="327.5058" y2="327.5058"/><line style="stroke:#000000;stroke-width:1.0;" x1="289" x2="369" y1="290.8176" y2="290.8176"/><line style="stroke:#000000;stroke-width:1.0;" x1="454" x2="556" y1="327.5058" y2="327.5058"/><line style="stroke:#000000;stroke-width:1.0;" x1="369" x2="454" y1="290.8176" y2="290.8176"/><line style="stroke:#000000;stroke-width:1.0;" x1="454" x2="556" y1="290.8176" y2="290.8176"/><line style="stroke:#000000;stroke-width:1.0;" x1="13" x2="104" y1="309.1617" y2="309.1617"/><line style="stroke:#000000;stroke-width:1.0;" x1="104" x2="191" y1="309.1617" y2="309.1617"/><line style="stroke:#000000;stroke-width:1.0;" x1="191" x2="289" y1="309.1617" y2="309.1617"/><line style="stroke:#000000;stroke-width:1.0;" x1="289" x2="369" y1="309.1617" y2="309.1617"/><line style="stroke:#000000;stroke-width:1.0;" x1="369" x2="454" y1="309.1617" y2="309.1617"/><line style="stroke:#000000;stroke-width:1.0;" x1="454" x2="556" y1="309.1617" y2="309.1617"/><line style="stroke:#000000;stroke-width:1.0;" x1="13" x2="104" y1="327.5058" y2="327.5058"/><line style="stroke:#000000;stroke-width:1.0;" x1="104" x2="191" y1="327.5058" y2="327.5058"/><line style="stroke:#000000;stroke-width:1.0;" x1="13" x2="13" y1="290.8176" y2="309.1617"/><line style="stroke:#000000;stroke-width:1.0;" x1="104" x2="104" y1="290.8176" y2="309.1617"/><line style="stroke:#000000;stroke-width:1.0;" x1="191" x2="191" y1="290.8176" y2="309.1617"/><line style="stroke:#000000;stroke-width:1.0;" x1="289" x2="289" y1="290.8176" y2="309.1617"/><line style="stroke:#000000;stroke-width:1.0;" x1="369" x2="369" y1="290.8176" y2="309.1617"/><line style="stroke:#000000;stroke-width:1.0;" x1="454" x2="454" y1="290.8176" y2="309.1617"/><line style="stroke:#000000;stroke-width:1.0;" x1="556" x2="556" y1="290.8176" y2="309.1617"/><line style="stroke:#000000;stroke-width:1.0;" x1="13" x2="13" y1="309.1617" y2="327.5058"/><line style="stroke:#000000;stroke-width:1.0;" x1="104" x2="104" y1="309.1617" y2="327.5058"/><line style="stroke:#000000;stroke-width:1.0;" x1="191" x2="191" y1="309.1617" y2="327.5058"/><line style="stroke:#000000;stroke-width:1.0;" x1="289" x2="289" y1="309.1617" y2="327.5058"/><line style="stroke:#000000;stroke-width:1.0;" x1="369" x2="369" y1="309.1617" y2="327.5058"/><line style="stroke:#000000;stroke-width:1.0;" x1="454" x2="454" y1="309.1617" y2="327.5058"/><line style="stroke:#000000;stroke-width:1.0;" x1="556" x2="556" y1="309.1617" y2="327.5058"/><text fill="#000000" font-family="sans-serif" font-size="12" font-weight="bold" lengthAdjust="spacing" textLength="176" x="7" y="363.678">Caractéristiques de l'enquête</text><text fill="#000000" font-family="sans-serif" font-size="12" lengthAdjust="spacing" textLength="155" x="13" y="383.0221">Qualification de l'enquête* :</text><rect fill="#EEEEEE" height="19.3441" style="stroke:#000000;stroke-width:1.0;" width="87" x="392" y="370.1941"/><text fill="#000000" font-family="sans-serif" font-size="12" lengthAdjust="spacing" textLength="50" x="394" y="385.0221">Indirecte</text><line style="stroke:#000000;stroke-width:1.0;" x1="468" x2="468" y1="370.1941" y2="389.5382"/><polygon fill="#000000" points="471,376.1941,477,376.1941,474,384.5382" style="stroke:#000000;stroke-width:1.0;"/><text fill="#000000" font-family="sans-serif" font-size="12" lengthAdjust="spacing" textLength="128" x="13" y="405.3663">Fiabilité de l'enquête* :</text><rect fill="#EEEEEE" height="19.3441" style="stroke:#000000;stroke-width:1.0;" width="87" x="392" y="392.5382"/><text fill="#000000" font-family="sans-serif" font-size="12" lengthAdjust="spacing" textLength="33" x="394" y="407.3663">Fiable</text><line style="stroke:#000000;stroke-width:1.0;" x1="468" x2="468" y1="392.5382" y2="411.8823"/><polygon fill="#000000" points="471,398.5382,477,398.5382,474,406.8823" style="stroke:#000000;stroke-width:1.0;"/><text fill="#000000" font-family="sans-serif" font-size="12" lengthAdjust="spacing" textLength="274" x="13" y="427.7104">Inactivité annuelle confirmée par l'observateur* :</text><text fill="#000000" font-family="sans-serif" font-size="12" font-weight="bold" lengthAdjust="spacing" textLength="22" x="413" y="428.7104">Oui</text><ellipse cx="400" cy="424.0543" fill="none" rx="5" ry="5" style="stroke:#000000;stroke-width:1.5;"/><ellipse cx="400" cy="424.0543" fill="#000000" rx="2" ry="2" style="stroke:#000000;stroke-width:1.5;"/><text fill="#000000" font-family="sans-serif" font-size="12" lengthAdjust="spacing" textLength="23" x="457" y="428.7104">Non</text><ellipse cx="444" cy="424.0543" fill="none" rx="5" ry="5" style="stroke:#000000;stroke-width:1.5;"/><text fill="#000000" font-family="sans-serif" font-size="12" lengthAdjust="spacing" textLength="377" x="13" y="448.0545">Le professionnel accepterait-il de répondre à une autre enquête ?* :</text><text fill="#000000" font-family="sans-serif" font-size="12" lengthAdjust="spacing" textLength="19" x="413" y="449.0545">Oui</text><ellipse cx="400" cy="444.3985" fill="none" rx="5" ry="5" style="stroke:#000000;stroke-width:1.5;"/><text fill="#000000" font-family="sans-serif" font-size="12" font-weight="bold" lengthAdjust="spacing" textLength="25" x="454" y="449.0545">Non</text><ellipse cx="441" cy="444.3985" fill="none" rx="5" ry="5" style="stroke:#000000;stroke-width:1.5;"/><ellipse cx="441" cy="444.3985" fill="#000000" rx="2" ry="2" style="stroke:#000000;stroke-width:1.5;"/><text fill="#000000" font-family="sans-serif" font-size="12" lengthAdjust="spacing" textLength="345" x="13" y="468.3986">Métiers déclarés dans les journeaux de bord/fiches de pêche :</text><rect fill="#EEEEEE" height="19.3441" style="stroke:#000000;stroke-width:1.0;" width="87" x="392" y="455.5705"/><text fill="#000000" font-family="sans-serif" font-size="12" lengthAdjust="spacing" textLength="3" x="394" y="470.3986"> </text><line style="stroke:#000000;stroke-width:1.0;" x1="468" x2="468" y1="455.5705" y2="474.9146"/><polygon fill="#000000" points="471,461.5705,477,461.5705,474,469.9146" style="stroke:#000000;stroke-width:1.0;"/><text fill="#000000" font-family="sans-serif" font-size="12" lengthAdjust="spacing" textLength="168" x="13" y="490.7427">Habitudes de vente à la criée :</text><rect fill="#EEEEEE" height="19.3441" style="stroke:#000000;stroke-width:1.0;" width="87" x="392" y="477.9146"/><text fill="#000000" font-family="sans-serif" font-size="12" lengthAdjust="spacing" textLength="3" x="394" y="492.7427"> </text><line style="stroke:#000000;stroke-width:1.0;" x1="468" x2="468" y1="477.9146" y2="497.2587"/><polygon fill="#000000" points="471,483.9146,477,483.9146,474,492.2587" style="stroke:#000000;stroke-width:1.0;"/><line style="stroke:#AAAAAA;stroke-width:1.0;" x1="6" x2="1118" y1="505.7587" y2="505.7587"/><rect fill="#EEEEEE" height="20.3441" rx="5" ry="5" style="stroke:#000000;stroke-width:2.5;" width="52" x="9.5" y="513.7587"/><text fill="#000000" font-family="sans-serif" font-size="12" lengthAdjust="spacing" textLength="41" x="15" y="528.5868">Fermer</text><rect fill="#EEEEEE" height="20.3441" rx="5" ry="5" style="stroke:#000000;stroke-width:2.5;" width="92" x="68.5" y="513.7587"/><text fill="#000000" font-family="sans-serif" font-size="12" lengthAdjust="spacing" textLength="72" x="78.5" y="528.5868">Sauvegarder</text></g></svg>