<?xml version="1.0" encoding="us-ascii" standalone="no"?><svg xmlns="http://www.w3.org/2000/svg" xmlns:xlink="http://www.w3.org/1999/xlink" contentStyleType="text/css" height="137px" preserveAspectRatio="none" style="width:1042px;height:137px;background:#FFFFFF;" version="1.1" viewBox="0 0 1042 137" width="1042px" zoomAndPan="magnify"><defs/><g><text fill="#000000" font-family="sans-serif" font-size="12" font-weight="bold" lengthAdjust="spacing" textLength="120" x="7" y="19.457">Calendriers d'activit&#233;</text><path d="M936,11.0938 C933.8,11.0938 932,12.8938 932,15.0938 C932,17.2938 933.8,19.0938 936,19.0938 C937.1,19.0938 938.12,18.6638 938.84,17.9338 L938.12,17.2138 C937.58,17.7538 936.83,18.0938 935.99,18.0938 C934.33,18.0938 932.99,16.7538 932.99,15.0938 C932.99,13.4338 934.33,12.0938 935.99,12.0938 C936.82,12.0938 937.54,12.4538 938.08,13.0038 L936.99,14.0938 L939.99,14.0938 L939.99,11.0938 L938.8,12.2838 C938.08,11.5638 937.09,11.0938 935.99,11.0938 " fill="#000000" style="stroke:;stroke-width:0.0;stroke-dasharray:;"/><text fill="#000000" font-family="sans-serif" font-size="12" font-weight="bold" lengthAdjust="spacing" textLength="7" x="944" y="19.457">Y</text><rect fill="#EEEEEE" height="19.0938" rx="5" ry="5" style="stroke:#000000;stroke-width:2.5;" width="60" x="956.5" y="10.5"/><text fill="#000000" font-family="sans-serif" font-size="12" lengthAdjust="spacing" textLength="28" x="966" y="24.957">2022</text><path d="M999.5,16.5938 L998,18.0938 L1002,22.0938 L1006,18.0938 L1004.5,16.5938 L1002,19.0938 L999.5,16.5938 " fill="#000000" style="stroke:;stroke-width:0.0;stroke-dasharray:;"/><path d="M1023,7 L1023,8 L1031,8 L1031,7 L1023,7 M1023,9.97 L1023,10.97 L1031,10.97 L1031,9.97 L1023,9.97 M1023,12.97 L1023,13.97 L1031,13.97 L1031,12.97 L1023,12.97 " fill="#000000" style="stroke:;stroke-width:0.0;stroke-dasharray:;"/><line style="stroke:#AAAAAA;stroke-width:1.0;" x1="6" x2="1035" y1="39.5938" y2="39.5938"/><text fill="#000000" font-family="sans-serif" font-size="12" lengthAdjust="spacing" textLength="3" x="27" y="57.5508">.</text><rect fill="none" height="10" style="stroke:#000000;stroke-width:1.5;" width="10" x="9" y="47.6406"/><text fill="#000000" font-family="sans-serif" font-size="12" font-weight="bold" lengthAdjust="spacing" textLength="7" x="32" y="57.5508">#</text><text fill="#000000" font-family="sans-serif" font-size="12" font-weight="bold" lengthAdjust="spacing" textLength="22" x="62" y="57.5508">Etat</text><text fill="#000000" font-family="sans-serif" font-size="12" font-weight="bold" lengthAdjust="spacing" textLength="68" x="86" y="57.5508">Programme</text><text fill="#000000" font-family="sans-serif" font-size="12" font-weight="bold" lengthAdjust="spacing" textLength="36" x="168" y="57.5508">Navire</text><text fill="#000000" font-family="sans-serif" font-size="12" font-weight="bold" lengthAdjust="spacing" textLength="126" x="288" y="57.5508">Lieu d'immatriculation</text><text fill="#000000" font-family="sans-serif" font-size="12" font-weight="bold" lengthAdjust="spacing" textLength="36" x="416" y="57.5508">Ann&#233;e</text><text fill="#000000" font-family="sans-serif" font-size="12" font-weight="bold" lengthAdjust="spacing" textLength="156" x="454" y="57.5508">Objectif d'enqu&#234;te directe ?</text><text fill="#000000" font-family="sans-serif" font-size="12" font-weight="bold" lengthAdjust="spacing" textLength="137" x="612" y="57.5508">Objectif d'enqu&#234;te &#233;co ?</text><text fill="#000000" font-family="sans-serif" font-size="12" font-weight="bold" lengthAdjust="spacing" textLength="86" x="751" y="57.5508">Observateur(s)</text><text fill="#000000" font-family="sans-serif" font-size="12" font-weight="bold" lengthAdjust="spacing" textLength="61" x="839" y="57.5508">Saisisseur</text><text fill="#000000" font-family="sans-serif" font-size="12" font-weight="bold" lengthAdjust="spacing" textLength="116" x="905" y="57.5508">Date de modification</text><text fill="#000000" font-family="sans-serif" font-size="12" lengthAdjust="spacing" textLength="3" x="27" y="74.6445">.</text><rect fill="none" height="10" style="stroke:#000000;stroke-width:1.5;" width="10" x="9" y="64.7344"/><text fill="#000000" font-family="sans-serif" font-size="12" lengthAdjust="spacing" textLength="28" x="32" y="74.6445">1234</text><text fill="#000000" font-family="sans-serif" font-size="12" font-weight="bold" lengthAdjust="spacing" textLength="6" x="62" y="74.6445">&#160;&#160;</text><path d="M75.41,66.2813 L74.72,67.0013 L71.94,69.7813 L71.13,69.0013 L70.41,68.2813 L69,69.6913 L69.72,70.4113 L71.22,71.9113 L71.91,72.6313 L72.63,71.9113 L76.13,68.4113 L76.85,67.6913 L75.41,66.2813 " fill="#000000" style="stroke:;stroke-width:0.0;stroke-dasharray:;"/><text fill="#000000" font-family="sans-serif" font-size="12" lengthAdjust="spacing" textLength="80" x="86" y="74.6445">SIH-ACTIFLOT</text><text fill="#000000" font-family="sans-serif" font-size="12" lengthAdjust="spacing" textLength="94" x="168" y="74.6445">123456 - SONNY</text><text fill="#000000" font-family="sans-serif" font-size="12" lengthAdjust="spacing" textLength="58" x="288" y="74.6445">CN - Caen</text><text fill="#000000" font-family="sans-serif" font-size="12" lengthAdjust="spacing" textLength="28" x="416" y="74.6445">2022</text><text fill="#000000" font-family="sans-serif" font-size="12" lengthAdjust="spacing" textLength="19" x="454" y="74.6445">Oui</text><text fill="#000000" font-family="sans-serif" font-size="12" lengthAdjust="spacing" textLength="19" x="612" y="74.6445">Oui</text><text fill="#000000" font-family="sans-serif" font-size="12" lengthAdjust="spacing" textLength="66" x="751" y="74.6445">Obs1, Obs2</text><text fill="#000000" font-family="sans-serif" font-size="12" lengthAdjust="spacing" textLength="17" x="839" y="74.6445">Ifr1</text><text fill="#000000" font-family="sans-serif" font-size="12" lengthAdjust="spacing" textLength="96" x="902" y="74.6445">13/11/2024 09:23</text><text fill="#000000" font-family="sans-serif" font-size="12" lengthAdjust="spacing" textLength="3" x="27" y="91.7383">.</text><rect fill="none" height="10" style="stroke:#000000;stroke-width:1.5;" width="10" x="9" y="81.8281"/><text fill="#000000" font-family="sans-serif" font-size="12" lengthAdjust="spacing" textLength="28" x="32" y="91.7383">2345</text><text fill="#000000" font-family="sans-serif" font-size="12" font-weight="bold" lengthAdjust="spacing" textLength="6" x="62" y="91.7383">&#160;&#160;</text><path d="M75,83.375 L74,84.375 L76,86.375 L77,85.375 L75,83.375 M73,85.375 L69,89.375 L69,91.375 L71,91.375 L75,87.375 L73,85.375 " fill="#000000" style="stroke:;stroke-width:0.0;stroke-dasharray:;"/><text fill="#000000" font-family="sans-serif" font-size="12" lengthAdjust="spacing" textLength="80" x="86" y="91.7383">SIH-ACTIFLOT</text><text fill="#000000" font-family="sans-serif" font-size="12" lengthAdjust="spacing" textLength="118" x="168" y="91.7383">CN123456 - Vessel 3</text><text fill="#000000" font-family="sans-serif" font-size="12" lengthAdjust="spacing" textLength="58" x="288" y="91.7383">CN - Caen</text><text fill="#000000" font-family="sans-serif" font-size="12" lengthAdjust="spacing" textLength="28" x="416" y="91.7383">2022</text><text fill="#000000" font-family="sans-serif" font-size="12" lengthAdjust="spacing" textLength="23" x="454" y="91.7383">Non</text><text fill="#000000" font-family="sans-serif" font-size="12" lengthAdjust="spacing" textLength="23" x="612" y="91.7383">Non</text><text fill="#000000" font-family="sans-serif" font-size="12" lengthAdjust="spacing" textLength="30" x="751" y="91.7383">Obs3</text><text fill="#000000" font-family="sans-serif" font-size="12" lengthAdjust="spacing" textLength="17" x="839" y="91.7383">Ifr1</text><text fill="#000000" font-family="sans-serif" font-size="12" lengthAdjust="spacing" textLength="96" x="902" y="91.7383">12/11/2024 10:20</text><path d="M1024.09,79.2813 C1024.03,79.2813 1024,79.3213 1024,79.3713 L1024,85.1813 C1024,85.2313 1024.04,85.2713 1024.09,85.2713 L1030,85.2713 L1032,87.2713 L1032,79.3613 C1032,79.3013 1031.96,79.2713 1031.91,79.2713 L1024.1,79.2713 " fill="#000000" style="stroke:;stroke-width:0.0;stroke-dasharray:;"/><text fill="#000000" font-family="sans-serif" font-size="12" lengthAdjust="spacing" textLength="3" x="27" y="108.832">.</text><rect fill="none" height="10" style="stroke:#000000;stroke-width:1.5;" width="10" x="9" y="98.9219"/><text fill="#000000" font-family="sans-serif" font-size="12" lengthAdjust="spacing" textLength="28" x="32" y="108.832">3456</text><text fill="#000000" font-family="sans-serif" font-size="12" font-weight="bold" lengthAdjust="spacing" textLength="6" x="62" y="108.832">&#160;&#160;</text><path d="M75,100.4688 L74,101.4688 L76,103.4688 L77,102.4688 L75,100.4688 M73,102.4688 L69,106.4688 L69,108.4688 L71,108.4688 L75,104.4688 L73,102.4688 " fill="#000000" style="stroke:;stroke-width:0.0;stroke-dasharray:;"/><text fill="#000000" font-family="sans-serif" font-size="12" lengthAdjust="spacing" textLength="80" x="86" y="108.832">SIH-ACTIFLOT</text><text fill="#000000" font-family="sans-serif" font-size="12" lengthAdjust="spacing" textLength="111" x="168" y="108.832">CN78946 - Vessel 2</text><text fill="#000000" font-family="sans-serif" font-size="12" lengthAdjust="spacing" textLength="58" x="288" y="108.832">CN - Caen</text><text fill="#000000" font-family="sans-serif" font-size="12" lengthAdjust="spacing" textLength="28" x="416" y="108.832">2022</text><text fill="#000000" font-family="sans-serif" font-size="12" lengthAdjust="spacing" textLength="19" x="454" y="108.832">Oui</text><text fill="#000000" font-family="sans-serif" font-size="12" lengthAdjust="spacing" textLength="23" x="612" y="108.832">Non</text><text fill="#000000" font-family="sans-serif" font-size="12" lengthAdjust="spacing" textLength="17" x="839" y="108.832">Ifr1</text><text fill="#000000" font-family="sans-serif" font-size="12" lengthAdjust="spacing" textLength="96" x="902" y="108.832">08/11/2024 15:10</text><line style="stroke:#000000;stroke-width:1.0;" x1="6" x2="31" y1="44.0938" y2="44.0938"/><line style="stroke:#000000;stroke-width:1.0;" x1="31" x2="61" y1="44.0938" y2="44.0938"/><line style="stroke:#000000;stroke-width:1.0;" x1="61" x2="85" y1="44.0938" y2="44.0938"/><line style="stroke:#000000;stroke-width:1.0;" x1="85" x2="167" y1="44.0938" y2="44.0938"/><line style="stroke:#000000;stroke-width:1.0;" x1="167" x2="287" y1="44.0938" y2="44.0938"/><line style="stroke:#000000;stroke-width:1.0;" x1="287" x2="415" y1="44.0938" y2="44.0938"/><line style="stroke:#000000;stroke-width:1.0;" x1="415" x2="453" y1="44.0938" y2="44.0938"/><line style="stroke:#000000;stroke-width:1.0;" x1="453" x2="611" y1="44.0938" y2="44.0938"/><line style="stroke:#000000;stroke-width:1.0;" x1="611" x2="750" y1="44.0938" y2="44.0938"/><line style="stroke:#000000;stroke-width:1.0;" x1="750" x2="838" y1="44.0938" y2="44.0938"/><line style="stroke:#000000;stroke-width:1.0;" x1="838" x2="901" y1="44.0938" y2="44.0938"/><line style="stroke:#000000;stroke-width:1.0;" x1="901" x2="1022" y1="44.0938" y2="44.0938"/><line style="stroke:#000000;stroke-width:1.0;" x1="1022" x2="1034" y1="44.0938" y2="44.0938"/><line style="stroke:#000000;stroke-width:1.0;" x1="6" x2="31" y1="95.375" y2="95.375"/><line style="stroke:#000000;stroke-width:1.0;" x1="31" x2="61" y1="95.375" y2="95.375"/><line style="stroke:#000000;stroke-width:1.0;" x1="61" x2="85" y1="95.375" y2="95.375"/><line style="stroke:#000000;stroke-width:1.0;" x1="85" x2="167" y1="95.375" y2="95.375"/><line style="stroke:#000000;stroke-width:1.0;" x1="167" x2="287" y1="95.375" y2="95.375"/><line style="stroke:#000000;stroke-width:1.0;" x1="287" x2="415" y1="95.375" y2="95.375"/><line style="stroke:#000000;stroke-width:1.0;" x1="415" x2="453" y1="95.375" y2="95.375"/><line style="stroke:#000000;stroke-width:1.0;" x1="453" x2="611" y1="95.375" y2="95.375"/><line style="stroke:#000000;stroke-width:1.0;" x1="611" x2="750" y1="95.375" y2="95.375"/><line style="stroke:#000000;stroke-width:1.0;" x1="750" x2="838" y1="95.375" y2="95.375"/><line style="stroke:#000000;stroke-width:1.0;" x1="838" x2="901" y1="95.375" y2="95.375"/><line style="stroke:#000000;stroke-width:1.0;" x1="901" x2="1022" y1="95.375" y2="95.375"/><line style="stroke:#000000;stroke-width:1.0;" x1="1022" x2="1034" y1="95.375" y2="95.375"/><line style="stroke:#000000;stroke-width:1.0;" x1="6" x2="31" y1="61.1875" y2="61.1875"/><line style="stroke:#000000;stroke-width:1.0;" x1="31" x2="61" y1="61.1875" y2="61.1875"/><line style="stroke:#000000;stroke-width:1.0;" x1="61" x2="85" y1="61.1875" y2="61.1875"/><line style="stroke:#000000;stroke-width:1.0;" x1="85" x2="167" y1="61.1875" y2="61.1875"/><line style="stroke:#000000;stroke-width:1.0;" x1="167" x2="287" y1="61.1875" y2="61.1875"/><line style="stroke:#000000;stroke-width:1.0;" x1="287" x2="415" y1="61.1875" y2="61.1875"/><line style="stroke:#000000;stroke-width:1.0;" x1="415" x2="453" y1="61.1875" y2="61.1875"/><line style="stroke:#000000;stroke-width:1.0;" x1="453" x2="611" y1="61.1875" y2="61.1875"/><line style="stroke:#000000;stroke-width:1.0;" x1="611" x2="750" y1="61.1875" y2="61.1875"/><line style="stroke:#000000;stroke-width:1.0;" x1="750" x2="838" y1="61.1875" y2="61.1875"/><line style="stroke:#000000;stroke-width:1.0;" x1="838" x2="901" y1="61.1875" y2="61.1875"/><line style="stroke:#000000;stroke-width:1.0;" x1="901" x2="1022" y1="61.1875" y2="61.1875"/><line style="stroke:#000000;stroke-width:1.0;" x1="1022" x2="1034" y1="61.1875" y2="61.1875"/><line style="stroke:#000000;stroke-width:1.0;" x1="6" x2="31" y1="112.4688" y2="112.4688"/><line style="stroke:#000000;stroke-width:1.0;" x1="31" x2="61" y1="112.4688" y2="112.4688"/><line style="stroke:#000000;stroke-width:1.0;" x1="61" x2="85" y1="112.4688" y2="112.4688"/><line style="stroke:#000000;stroke-width:1.0;" x1="85" x2="167" y1="112.4688" y2="112.4688"/><line style="stroke:#000000;stroke-width:1.0;" x1="167" x2="287" y1="112.4688" y2="112.4688"/><line style="stroke:#000000;stroke-width:1.0;" x1="287" x2="415" y1="112.4688" y2="112.4688"/><line style="stroke:#000000;stroke-width:1.0;" x1="415" x2="453" y1="112.4688" y2="112.4688"/><line style="stroke:#000000;stroke-width:1.0;" x1="453" x2="611" y1="112.4688" y2="112.4688"/><line style="stroke:#000000;stroke-width:1.0;" x1="611" x2="750" y1="112.4688" y2="112.4688"/><line style="stroke:#000000;stroke-width:1.0;" x1="750" x2="838" y1="112.4688" y2="112.4688"/><line style="stroke:#000000;stroke-width:1.0;" x1="838" x2="901" y1="112.4688" y2="112.4688"/><line style="stroke:#000000;stroke-width:1.0;" x1="901" x2="1022" y1="112.4688" y2="112.4688"/><line style="stroke:#000000;stroke-width:1.0;" x1="1022" x2="1034" y1="112.4688" y2="112.4688"/><line style="stroke:#000000;stroke-width:1.0;" x1="6" x2="31" y1="78.2813" y2="78.2813"/><line style="stroke:#000000;stroke-width:1.0;" x1="31" x2="61" y1="78.2813" y2="78.2813"/><line style="stroke:#000000;stroke-width:1.0;" x1="61" x2="85" y1="78.2813" y2="78.2813"/><line style="stroke:#000000;stroke-width:1.0;" x1="85" x2="167" y1="78.2813" y2="78.2813"/><line style="stroke:#000000;stroke-width:1.0;" x1="167" x2="287" y1="78.2813" y2="78.2813"/><line style="stroke:#000000;stroke-width:1.0;" x1="287" x2="415" y1="78.2813" y2="78.2813"/><line style="stroke:#000000;stroke-width:1.0;" x1="415" x2="453" y1="78.2813" y2="78.2813"/><line style="stroke:#000000;stroke-width:1.0;" x1="453" x2="611" y1="78.2813" y2="78.2813"/><line style="stroke:#000000;stroke-width:1.0;" x1="611" x2="750" y1="78.2813" y2="78.2813"/><line style="stroke:#000000;stroke-width:1.0;" x1="750" x2="838" y1="78.2813" y2="78.2813"/><line style="stroke:#000000;stroke-width:1.0;" x1="838" x2="901" y1="78.2813" y2="78.2813"/><line style="stroke:#000000;stroke-width:1.0;" x1="901" x2="1022" y1="78.2813" y2="78.2813"/><line style="stroke:#000000;stroke-width:1.0;" x1="1022" x2="1034" y1="78.2813" y2="78.2813"/><line style="stroke:#000000;stroke-width:1.0;" x1="6" x2="6" y1="44.0938" y2="61.1875"/><line style="stroke:#000000;stroke-width:1.0;" x1="31" x2="31" y1="44.0938" y2="61.1875"/><line style="stroke:#000000;stroke-width:1.0;" x1="61" x2="61" y1="44.0938" y2="61.1875"/><line style="stroke:#000000;stroke-width:1.0;" x1="85" x2="85" y1="44.0938" y2="61.1875"/><line style="stroke:#000000;stroke-width:1.0;" x1="167" x2="167" y1="44.0938" y2="61.1875"/><line style="stroke:#000000;stroke-width:1.0;" x1="287" x2="287" y1="44.0938" y2="61.1875"/><line style="stroke:#000000;stroke-width:1.0;" x1="415" x2="415" y1="44.0938" y2="61.1875"/><line style="stroke:#000000;stroke-width:1.0;" x1="453" x2="453" y1="44.0938" y2="61.1875"/><line style="stroke:#000000;stroke-width:1.0;" x1="611" x2="611" y1="44.0938" y2="61.1875"/><line style="stroke:#000000;stroke-width:1.0;" x1="750" x2="750" y1="44.0938" y2="61.1875"/><line style="stroke:#000000;stroke-width:1.0;" x1="838" x2="838" y1="44.0938" y2="61.1875"/><line style="stroke:#000000;stroke-width:1.0;" x1="901" x2="901" y1="44.0938" y2="61.1875"/><line style="stroke:#000000;stroke-width:1.0;" x1="1022" x2="1022" y1="44.0938" y2="61.1875"/><line style="stroke:#000000;stroke-width:1.0;" x1="1034" x2="1034" y1="44.0938" y2="61.1875"/><line style="stroke:#000000;stroke-width:1.0;" x1="6" x2="6" y1="95.375" y2="112.4688"/><line style="stroke:#000000;stroke-width:1.0;" x1="31" x2="31" y1="95.375" y2="112.4688"/><line style="stroke:#000000;stroke-width:1.0;" x1="61" x2="61" y1="95.375" y2="112.4688"/><line style="stroke:#000000;stroke-width:1.0;" x1="85" x2="85" y1="95.375" y2="112.4688"/><line style="stroke:#000000;stroke-width:1.0;" x1="167" x2="167" y1="95.375" y2="112.4688"/><line style="stroke:#000000;stroke-width:1.0;" x1="287" x2="287" y1="95.375" y2="112.4688"/><line style="stroke:#000000;stroke-width:1.0;" x1="415" x2="415" y1="95.375" y2="112.4688"/><line style="stroke:#000000;stroke-width:1.0;" x1="453" x2="453" y1="95.375" y2="112.4688"/><line style="stroke:#000000;stroke-width:1.0;" x1="611" x2="611" y1="95.375" y2="112.4688"/><line style="stroke:#000000;stroke-width:1.0;" x1="750" x2="750" y1="95.375" y2="112.4688"/><line style="stroke:#000000;stroke-width:1.0;" x1="838" x2="838" y1="95.375" y2="112.4688"/><line style="stroke:#000000;stroke-width:1.0;" x1="901" x2="901" y1="95.375" y2="112.4688"/><line style="stroke:#000000;stroke-width:1.0;" x1="1022" x2="1022" y1="95.375" y2="112.4688"/><line style="stroke:#000000;stroke-width:1.0;" x1="1034" x2="1034" y1="95.375" y2="112.4688"/><line style="stroke:#000000;stroke-width:1.0;" x1="6" x2="6" y1="61.1875" y2="78.2813"/><line style="stroke:#000000;stroke-width:1.0;" x1="31" x2="31" y1="61.1875" y2="78.2813"/><line style="stroke:#000000;stroke-width:1.0;" x1="61" x2="61" y1="61.1875" y2="78.2813"/><line style="stroke:#000000;stroke-width:1.0;" x1="85" x2="85" y1="61.1875" y2="78.2813"/><line style="stroke:#000000;stroke-width:1.0;" x1="167" x2="167" y1="61.1875" y2="78.2813"/><line style="stroke:#000000;stroke-width:1.0;" x1="287" x2="287" y1="61.1875" y2="78.2813"/><line style="stroke:#000000;stroke-width:1.0;" x1="415" x2="415" y1="61.1875" y2="78.2813"/><line style="stroke:#000000;stroke-width:1.0;" x1="453" x2="453" y1="61.1875" y2="78.2813"/><line style="stroke:#000000;stroke-width:1.0;" x1="611" x2="611" y1="61.1875" y2="78.2813"/><line style="stroke:#000000;stroke-width:1.0;" x1="750" x2="750" y1="61.1875" y2="78.2813"/><line style="stroke:#000000;stroke-width:1.0;" x1="838" x2="838" y1="61.1875" y2="78.2813"/><line style="stroke:#000000;stroke-width:1.0;" x1="901" x2="901" y1="61.1875" y2="78.2813"/><line style="stroke:#000000;stroke-width:1.0;" x1="1022" x2="1022" y1="61.1875" y2="78.2813"/><line style="stroke:#000000;stroke-width:1.0;" x1="1034" x2="1034" y1="61.1875" y2="78.2813"/><line style="stroke:#000000;stroke-width:1.0;" x1="6" x2="6" y1="78.2813" y2="95.375"/><line style="stroke:#000000;stroke-width:1.0;" x1="31" x2="31" y1="78.2813" y2="95.375"/><line style="stroke:#000000;stroke-width:1.0;" x1="61" x2="61" y1="78.2813" y2="95.375"/><line style="stroke:#000000;stroke-width:1.0;" x1="85" x2="85" y1="78.2813" y2="95.375"/><line style="stroke:#000000;stroke-width:1.0;" x1="167" x2="167" y1="78.2813" y2="95.375"/><line style="stroke:#000000;stroke-width:1.0;" x1="287" x2="287" y1="78.2813" y2="95.375"/><line style="stroke:#000000;stroke-width:1.0;" x1="415" x2="415" y1="78.2813" y2="95.375"/><line style="stroke:#000000;stroke-width:1.0;" x1="453" x2="453" y1="78.2813" y2="95.375"/><line style="stroke:#000000;stroke-width:1.0;" x1="611" x2="611" y1="78.2813" y2="95.375"/><line style="stroke:#000000;stroke-width:1.0;" x1="750" x2="750" y1="78.2813" y2="95.375"/><line style="stroke:#000000;stroke-width:1.0;" x1="838" x2="838" y1="78.2813" y2="95.375"/><line style="stroke:#000000;stroke-width:1.0;" x1="901" x2="901" y1="78.2813" y2="95.375"/><line style="stroke:#000000;stroke-width:1.0;" x1="1022" x2="1022" y1="78.2813" y2="95.375"/><line style="stroke:#000000;stroke-width:1.0;" x1="1034" x2="1034" y1="78.2813" y2="95.375"/><text fill="#808080" font-family="sans-serif" font-size="12" lengthAdjust="spacing" textLength="152" x="7" y="127.9258">Nombre de lignes affich&#233;es</text><text fill="#000000" font-family="sans-serif" font-size="12" lengthAdjust="spacing" textLength="14" x="164" y="127.9258">20</text><line style="stroke:#000000;stroke-width:1.0;" x1="162" x2="197" y1="130.5625" y2="130.5625"/><line style="stroke:#000000;stroke-width:1.0;" x1="162" x2="162" y1="127.5625" y2="129.5625"/><line style="stroke:#000000;stroke-width:1.0;" x1="197" x2="197" y1="127.5625" y2="129.5625"/><text fill="#808080" font-family="sans-serif" font-size="12" lengthAdjust="spacing" textLength="55" x="221" y="127.9258">1 - 3 sur 3</text><path d="M303,119.5625 L299,123.5625 L303,127.5625 L303,119.5625 " fill="#000000" style="stroke:;stroke-width:0.0;stroke-dasharray:;"/><text fill="#000000" font-family="sans-serif" font-size="12" lengthAdjust="spacing" textLength="3" x="308" y="127.9258">&#160;</text><path d="M316,119.5625 L312,123.5625 L316,127.5625 L317.5,126.0625 L315,123.5625 L317.5,121.0625 L316,119.5625 " fill="#000000" style="stroke:;stroke-width:0.0;stroke-dasharray:;"/><text fill="#000000" font-family="sans-serif" font-size="12" lengthAdjust="spacing" textLength="3" x="321" y="127.9258">&#160;</text><path d="M326.5,119.5625 L325,121.0625 L327.5,123.5625 L325,126.0625 L326.5,127.5625 L330.5,123.5625 L326.5,119.5625 " fill="#000000" style="stroke:;stroke-width:0.0;stroke-dasharray:;"/><text fill="#000000" font-family="sans-serif" font-size="12" lengthAdjust="spacing" textLength="3" x="334" y="127.9258">&#160;</text><path d="M338,119.5625 L338,127.5625 L342,123.5625 L338,119.5625 " fill="#000000" style="stroke:;stroke-width:0.0;stroke-dasharray:;"/></g></svg>