<?xml version="1.0" encoding="UTF-8" standalone="no"?><svg xmlns="http://www.w3.org/2000/svg" xmlns:xlink="http://www.w3.org/1999/xlink" contentScriptType="application/ecmascript" contentStyleType="text/css" height="147px" preserveAspectRatio="none" style="width:353px;height:147px;" version="1.1" viewBox="0 0 353 147" width="353px" zoomAndPan="magnify"><defs/><g><rect fill="#EEEEEE" height="12" rx="5" ry="5" style="stroke: #000000; stroke-width: 2.5;" width="36" x="9.5" y="9.5"/><path d="M26.5,12.5 L23.5,15.031 L26.5,17.5 L26.5,15.5 L31.5,15.5 L31.5,14.5 L26.5,14.5 L26.5,12.5 " fill="#000000" style="stroke: ; stroke-width: 0.0; stroke-dasharray: ;"/><text fill="#000000" font-family="sans-serif" font-size="12" font-weight="bold" lengthAdjust="spacingAndGlyphs" textLength="132" x="50" y="18.1387">Lot MNZ- Baudroie</text><rect fill="#EEEEEE" height="12" rx="5" ry="5" style="stroke: #000000; stroke-width: 2.5;" width="20" x="186.5" y="9.5"/><path d="M198.906,12.5 L198.187,13.188 L195.406,15.969 L194.625,15.188 L193.906,14.5 L192.5,15.906 L193.188,16.625 L194.688,18.125 L195.407,18.813 L196.126,18.125 L199.626,14.625 L200.314,13.906 L198.908,12.5 " fill="#000000" style="stroke: ; stroke-width: 0.0; stroke-dasharray: ;"/><line style="stroke: #AAAAAA; stroke-width: 1.0;" x1="6" x2="346" y1="30.5" y2="30.5"/><text fill="#000000" font-family="sans-serif" font-size="12" lengthAdjust="spacingAndGlyphs" textLength="137" x="7" y="47.1387">Espèce commerciale :</text><rect fill="#EEEEEE" height="16.9688" style="stroke: #000000; stroke-width: 1.0;" width="151" x="147" y="36"/><text fill="#000000" font-family="sans-serif" font-size="12" lengthAdjust="spacingAndGlyphs" textLength="92" x="149" y="49.1387">MNZ- Baudroie</text><line style="stroke: #000000; stroke-width: 1.0;" x1="287" x2="287" y1="36" y2="52.9688"/><polygon fill="#000000" points="290,42,296,42,293,47.9688" style="stroke: #000000; stroke-width: 1.0;"/><text fill="#000000" font-family="sans-serif" font-size="12" lengthAdjust="spacingAndGlyphs" textLength="69" x="7" y="67.1074">Categorie :</text><rect fill="#EEEEEE" height="16.9688" style="stroke: #000000; stroke-width: 1.0;" width="151" x="147" y="55.9688"/><text fill="#000000" font-family="sans-serif" font-size="12" lengthAdjust="spacingAndGlyphs" textLength="16" x="149" y="69.1074">10</text><line style="stroke: #000000; stroke-width: 1.0;" x1="287" x2="287" y1="55.9688" y2="72.9375"/><polygon fill="#000000" points="290,61.9688,296,61.9688,293,67.9375" style="stroke: #000000; stroke-width: 1.0;"/><text fill="#000000" font-family="sans-serif" font-size="12" lengthAdjust="spacingAndGlyphs" textLength="104" x="7" y="87.0762">Poids total (kg) :</text><text fill="#000000" font-family="sans-serif" font-size="12" lengthAdjust="spacingAndGlyphs" textLength="0" x="154" y="87.0762"/><line style="stroke: #000000; stroke-width: 1.0;" x1="148" x2="287" y1="89.9063" y2="89.9063"/><line style="stroke: #000000; stroke-width: 1.0;" x1="148" x2="148" y1="86.9063" y2="88.9063"/><line style="stroke: #000000; stroke-width: 1.0;" x1="287" x2="287" y1="86.9063" y2="88.9063"/><text fill="#000000" font-family="sans-serif" font-size="12" lengthAdjust="spacingAndGlyphs" textLength="16" x="8" y="106.0449">1 /</text><text fill="#000000" font-family="sans-serif" font-size="12" lengthAdjust="spacingAndGlyphs" textLength="63" x="29" y="106.0449">Coef. éch.</text><line style="stroke: #000000; stroke-width: 1.0;" x1="27" x2="142" y1="108.875" y2="108.875"/><line style="stroke: #000000; stroke-width: 1.0;" x1="27" x2="27" y1="105.875" y2="107.875"/><line style="stroke: #000000; stroke-width: 1.0;" x1="142" x2="142" y1="105.875" y2="107.875"/><text fill="#000000" font-family="sans-serif" font-size="12" lengthAdjust="spacingAndGlyphs" textLength="123" x="148" y="106.0449">Poids échant. (kg) :</text><text fill="#000000" font-family="sans-serif" font-size="12" lengthAdjust="spacingAndGlyphs" textLength="0" x="280" y="106.0449"/><line style="stroke: #000000; stroke-width: 1.0;" x1="274" x2="341" y1="108.875" y2="108.875"/><line style="stroke: #000000; stroke-width: 1.0;" x1="274" x2="274" y1="105.875" y2="107.875"/><line style="stroke: #000000; stroke-width: 1.0;" x1="341" x2="341" y1="105.875" y2="107.875"/><rect fill="#EEEEEE" height="17.9688" rx="5" ry="5" style="stroke: #000000; stroke-width: 2.5;" width="276" x="9.5" y="118.375"/><text fill="#0000FF" font-family="sans-serif" font-size="12" lengthAdjust="spacingAndGlyphs" textLength="114" x="83.5" y="131.5137">Saisir les mesures</text><path d="M207.5,124.3438 L207.5,126.3438 L202.5,126.3438 L202.5,127.3438 L207.5,127.3438 L207.5,129.3438 L210.5,126.8128 L207.5,124.3438 " fill="#0000FF" style="stroke: ; stroke-width: 0.0; stroke-dasharray: ;"/><line style="stroke: #000000; stroke-width: 1.0;" x1="5" x2="346" y1="5" y2="5"/><line style="stroke: #000000; stroke-width: 1.0;" x1="5" x2="346" y1="140.8438" y2="140.8438"/><line style="stroke: #000000; stroke-width: 1.0;" x1="5" x2="5" y1="5" y2="26"/><line style="stroke: #000000; stroke-width: 1.0;" x1="346" x2="346" y1="26" y2="34"/><line style="stroke: #000000; stroke-width: 1.0;" x1="346" x2="346" y1="5" y2="26"/><line style="stroke: #000000; stroke-width: 1.0;" x1="5" x2="5" y1="113.875" y2="140.8438"/><line style="stroke: #000000; stroke-width: 1.0;" x1="5" x2="5" y1="34" y2="113.875"/><line style="stroke: #000000; stroke-width: 1.0;" x1="346" x2="346" y1="113.875" y2="140.8438"/><line style="stroke: #000000; stroke-width: 1.0;" x1="5" x2="5" y1="26" y2="34"/><line style="stroke: #000000; stroke-width: 1.0;" x1="346" x2="346" y1="34" y2="113.875"/></g></svg>