<?xml version="1.0" encoding="UTF-8" standalone="no"?><svg xmlns="http://www.w3.org/2000/svg" xmlns:xlink="http://www.w3.org/1999/xlink" contentScriptType="application/ecmascript" contentStyleType="text/css" height="282px" preserveAspectRatio="none" style="width:1343px;height:282px;" version="1.1" viewBox="0 0 1343 282" width="1343px" zoomAndPan="magnify"><defs/><g><text fill="#000000" font-family="sans-serif" font-size="12" lengthAdjust="spacingAndGlyphs" textLength="43" x="8" y="17.1387">Détails</text><line style="stroke: #000000; stroke-width: 1.0;" x1="6" x2="6" y1="6" y2="19.9688"/><line style="stroke: #000000; stroke-width: 1.0;" x1="6" x2="54" y1="6" y2="6"/><line style="stroke: #000000; stroke-width: 1.0;" x1="54" x2="54" y1="6" y2="19.9688"/><line style="stroke: #000000; stroke-width: 1.0;" x1="54" x2="64" y1="19.9688" y2="19.9688"/><text fill="#000000" font-family="sans-serif" font-size="12" font-weight="bold" lengthAdjust="spacingAndGlyphs" textLength="57" x="70" y="17.1387">Capture</text><line style="stroke: #000000; stroke-width: 1.0;" x1="64" x2="64" y1="6" y2="19.9688"/><line style="stroke: #000000; stroke-width: 1.0;" x1="64" x2="130" y1="6" y2="6"/><line style="stroke: #000000; stroke-width: 1.0;" x1="130" x2="130" y1="6" y2="19.9688"/><line style="stroke: #000000; stroke-width: 1.0;" x1="130" x2="140" y1="19.9688" y2="19.9688"/><text fill="#000000" font-family="sans-serif" font-size="12" font-weight="bold" lengthAdjust="spacingAndGlyphs" textLength="51" x="12" y="49.0762">Bâbord</text><line style="stroke: #000000; stroke-width: 1.0;" x1="6" x2="6" y1="37.9375" y2="51.9063"/><line style="stroke: #000000; stroke-width: 1.0;" x1="6" x2="66" y1="37.9375" y2="37.9375"/><line style="stroke: #000000; stroke-width: 1.0;" x1="66" x2="66" y1="37.9375" y2="51.9063"/><line style="stroke: #000000; stroke-width: 1.0;" x1="66" x2="76" y1="51.9063" y2="51.9063"/><text fill="#000000" font-family="sans-serif" font-size="12" lengthAdjust="spacingAndGlyphs" textLength="44" x="78" y="49.0762">Tribord</text><line style="stroke: #000000; stroke-width: 1.0;" x1="76" x2="76" y1="37.9375" y2="51.9063"/><line style="stroke: #000000; stroke-width: 1.0;" x1="76" x2="125" y1="37.9375" y2="37.9375"/><line style="stroke: #000000; stroke-width: 1.0;" x1="125" x2="125" y1="37.9375" y2="51.9063"/><line style="stroke: #000000; stroke-width: 1.0;" x1="125" x2="135" y1="51.9063" y2="51.9063"/><text fill="#000000" font-family="sans-serif" font-size="12" lengthAdjust="spacingAndGlyphs" textLength="92" x="7" y="82.0137">Engin bâbord :</text><rect fill="#EEEEEE" height="16.9688" style="stroke: #000000; stroke-width: 1.0;" width="175" x="167" y="71.875"/><text fill="#000000" font-family="sans-serif" font-size="12" lengthAdjust="spacingAndGlyphs" textLength="101" x="169" y="85.0137">Chalut standard</text><line style="stroke: #000000; stroke-width: 1.0;" x1="331" x2="331" y1="71.875" y2="88.8438"/><polygon fill="#000000" points="334,77.875,340,77.875,337,83.8438" style="stroke: #000000; stroke-width: 1.0;"/><text fill="#000000" font-family="sans-serif" font-size="12" lengthAdjust="spacingAndGlyphs" textLength="157" x="7" y="103.9824">Poids total capture (kg) :</text><text fill="#000000" font-family="sans-serif" font-size="12" lengthAdjust="spacingAndGlyphs" textLength="0" x="173" y="103.9824"/><line style="stroke: #000000; stroke-width: 1.0;" x1="167" x2="226" y1="106.8125" y2="106.8125"/><line style="stroke: #000000; stroke-width: 1.0;" x1="167" x2="167" y1="103.8125" y2="105.8125"/><line style="stroke: #000000; stroke-width: 1.0;" x1="226" x2="226" y1="103.8125" y2="105.8125"/><text fill="#000000" font-family="sans-serif" font-size="12" lengthAdjust="spacingAndGlyphs" textLength="137" x="7" y="121.9512">Poids total rejet (kg) :</text><text fill="#000000" font-family="sans-serif" font-size="12" lengthAdjust="spacingAndGlyphs" textLength="0" x="173" y="121.9512"/><line style="stroke: #000000; stroke-width: 1.0;" x1="167" x2="226" y1="124.7813" y2="124.7813"/><line style="stroke: #000000; stroke-width: 1.0;" x1="167" x2="167" y1="121.7813" y2="123.7813"/><line style="stroke: #000000; stroke-width: 1.0;" x1="226" x2="226" y1="121.7813" y2="123.7813"/><rect fill="#EEEEEE" height="12" rx="5" ry="5" style="stroke: #000000; stroke-width: 2.5;" width="36" x="9.5" y="133.2813"/><path d="M26.5,135.2813 L26.5,138.2813 L23.5,138.2813 L23.5,140.2813 L26.5,140.2813 L26.5,143.2813 L28.5,143.2813 L28.5,140.2813 L31.5,140.2813 L31.5,138.2813 L28.5,138.2813 L28.5,135.2813 L26.5,135.2813 " fill="#000000" style="stroke: ; stroke-width: 0.0; stroke-dasharray: ;"/><text fill="#000000" font-family="sans-serif" font-size="12" font-weight="bold" lengthAdjust="spacingAndGlyphs" textLength="104" x="276" y="141.9199">Partie retenue</text><text fill="#000000" font-family="sans-serif" font-size="12" font-weight="bold" lengthAdjust="spacingAndGlyphs" textLength="99" x="795" y="141.9199">Partie rejetée</text><text fill="#000000" font-family="sans-serif" font-size="12" lengthAdjust="spacingAndGlyphs" textLength="10" x="7" y="160.9199">#</text><text fill="#000000" font-family="sans-serif" font-size="12" font-weight="bold" lengthAdjust="spacingAndGlyphs" textLength="142" x="50" y="160.9199">Espèce commerciale</text><text fill="#000000" font-family="sans-serif" font-size="12" font-weight="bold" lengthAdjust="spacingAndGlyphs" textLength="70" x="276" y="160.9199">Catégorie</text><text fill="#000000" font-family="sans-serif" font-size="12" font-weight="bold" lengthAdjust="spacingAndGlyphs" textLength="108" x="382" y="160.9199">Poids total (kg)</text><text fill="#000000" font-family="sans-serif" font-size="12" font-weight="bold" lengthAdjust="spacingAndGlyphs" textLength="86" x="492" y="160.9199">Taux échant</text><text fill="#000000" font-family="sans-serif" font-size="12" font-weight="bold" lengthAdjust="spacingAndGlyphs" textLength="97" x="580" y="160.9199">Poids échant.</text><text fill="#000000" font-family="sans-serif" font-size="12" font-weight="bold" lengthAdjust="spacingAndGlyphs" textLength="114" x="679" y="160.9199">Nb indiv échant.</text><text fill="#000000" font-family="sans-serif" font-size="12" font-weight="bold" lengthAdjust="spacingAndGlyphs" textLength="77" x="795" y="160.9199">Poids total</text><text fill="#000000" font-family="sans-serif" font-size="12" font-weight="bold" lengthAdjust="spacingAndGlyphs" textLength="91" x="896" y="160.9199">Taux échant.</text><text fill="#000000" font-family="sans-serif" font-size="12" font-weight="bold" lengthAdjust="spacingAndGlyphs" textLength="130" x="989" y="160.9199">Taux sous-échant.</text><text fill="#000000" font-family="sans-serif" font-size="12" font-weight="bold" lengthAdjust="spacingAndGlyphs" textLength="97" x="1121" y="160.9199">Poids échant.</text><text fill="#000000" font-family="sans-serif" font-size="12" font-weight="bold" lengthAdjust="spacingAndGlyphs" textLength="114" x="1220" y="160.9199">Nb indiv échant.</text><text fill="#000000" font-family="sans-serif" font-size="12" lengthAdjust="spacingAndGlyphs" textLength="8" x="7" y="176.8887">4</text><rect fill="#EEEEEE" height="16.9688" style="stroke: #000000; stroke-width: 1.0;" width="223" x="50" y="165.75"/><text fill="#000000" font-family="sans-serif" font-size="12" lengthAdjust="spacingAndGlyphs" textLength="92" x="52" y="178.8887">MNZ- Baudroie</text><line style="stroke: #000000; stroke-width: 1.0;" x1="262" x2="262" y1="165.75" y2="182.7188"/><polygon fill="#000000" points="265,171.75,271,171.75,268,177.7188" style="stroke: #000000; stroke-width: 1.0;"/><text fill="#000000" font-family="sans-serif" font-size="12" lengthAdjust="spacingAndGlyphs" textLength="16" x="276" y="176.8887">10</text><text fill="#000000" font-family="sans-serif" font-size="12" lengthAdjust="spacingAndGlyphs" textLength="16" x="382" y="176.8887">50</text><text fill="#000000" font-family="sans-serif" font-size="12" lengthAdjust="spacingAndGlyphs" textLength="16" x="580" y="176.8887">10</text><text fill="#000000" font-family="sans-serif" font-size="12" lengthAdjust="spacingAndGlyphs" textLength="8" x="679" y="176.8887">4</text><text fill="#000000" font-family="sans-serif" font-size="12" lengthAdjust="spacingAndGlyphs" textLength="16" x="795" y="176.8887">25</text><text fill="#000000" font-family="sans-serif" font-size="12" lengthAdjust="spacingAndGlyphs" textLength="8" x="1121" y="176.8887">5</text><text fill="#000000" font-family="sans-serif" font-size="12" lengthAdjust="spacingAndGlyphs" textLength="8" x="1220" y="176.8887">2</text><text fill="#000000" font-family="sans-serif" font-size="12" lengthAdjust="spacingAndGlyphs" textLength="8" x="7" y="196.8574">3</text><rect fill="#EEEEEE" height="16.9688" style="stroke: #000000; stroke-width: 1.0;" width="223" x="50" y="185.7188"/><text fill="#000000" font-family="sans-serif" font-size="12" lengthAdjust="spacingAndGlyphs" textLength="92" x="52" y="198.8574">MNZ- Baudroie</text><line style="stroke: #000000; stroke-width: 1.0;" x1="262" x2="262" y1="185.7188" y2="202.6875"/><polygon fill="#000000" points="265,191.7188,271,191.7188,268,197.6875" style="stroke: #000000; stroke-width: 1.0;"/><text fill="#000000" font-family="sans-serif" font-size="12" lengthAdjust="spacingAndGlyphs" textLength="16" x="276" y="196.8574">30</text><text fill="#000000" font-family="sans-serif" font-size="12" lengthAdjust="spacingAndGlyphs" textLength="16" x="382" y="196.8574">50</text><text fill="#000000" font-family="sans-serif" font-size="12" lengthAdjust="spacingAndGlyphs" textLength="16" x="580" y="196.8574">10</text><text fill="#000000" font-family="sans-serif" font-size="12" lengthAdjust="spacingAndGlyphs" textLength="8" x="679" y="196.8574">4</text><text fill="#000000" font-family="sans-serif" font-size="12" lengthAdjust="spacingAndGlyphs" textLength="16" x="795" y="196.8574">25</text><text fill="#000000" font-family="sans-serif" font-size="12" lengthAdjust="spacingAndGlyphs" textLength="8" x="1121" y="196.8574">5</text><text fill="#000000" font-family="sans-serif" font-size="12" lengthAdjust="spacingAndGlyphs" textLength="8" x="1220" y="196.8574">2</text><text fill="#000000" font-family="sans-serif" font-size="12" lengthAdjust="spacingAndGlyphs" textLength="8" x="7" y="216.8262">2</text><rect fill="#EEEEEE" height="16.9688" style="stroke: #000000; stroke-width: 1.0;" width="223" x="50" y="205.6875"/><text fill="#000000" font-family="sans-serif" font-size="12" lengthAdjust="spacingAndGlyphs" textLength="179" x="52" y="218.8262">NEP - Langoustine commune</text><line style="stroke: #000000; stroke-width: 1.0;" x1="262" x2="262" y1="205.6875" y2="222.6563"/><polygon fill="#000000" points="265,211.6875,271,211.6875,268,217.6563" style="stroke: #000000; stroke-width: 1.0;"/><text fill="#000000" font-family="sans-serif" font-size="12" lengthAdjust="spacingAndGlyphs" textLength="37" x="276" y="216.8262">Petite</text><text fill="#000000" font-family="sans-serif" font-size="12" lengthAdjust="spacingAndGlyphs" textLength="16" x="382" y="216.8262">30</text><text fill="#000000" font-family="sans-serif" font-size="12" lengthAdjust="spacingAndGlyphs" textLength="20" x="492" y="216.8262">1/3</text><text fill="#000000" font-family="sans-serif" font-size="12" font-style="italic" lengthAdjust="spacingAndGlyphs" textLength="16" x="580" y="216.8262">10</text><text fill="#000000" font-family="sans-serif" font-size="12" lengthAdjust="spacingAndGlyphs" textLength="8" x="679" y="216.8262">4</text><text fill="#000000" font-family="sans-serif" font-size="12" lengthAdjust="spacingAndGlyphs" textLength="16" x="795" y="216.8262">25</text><text fill="#000000" font-family="sans-serif" font-size="12" lengthAdjust="spacingAndGlyphs" textLength="20" x="896" y="216.8262">1/5</text><text fill="#000000" font-family="sans-serif" font-size="12" lengthAdjust="spacingAndGlyphs" textLength="20" x="989" y="216.8262">1/5</text><text fill="#000000" font-family="sans-serif" font-size="12" font-style="italic" lengthAdjust="spacingAndGlyphs" textLength="8" x="1121" y="216.8262">5</text><text fill="#000000" font-family="sans-serif" font-size="12" lengthAdjust="spacingAndGlyphs" textLength="8" x="1220" y="216.8262">2</text><text fill="#000000" font-family="sans-serif" font-size="12" lengthAdjust="spacingAndGlyphs" textLength="8" x="7" y="236.7949">1</text><rect fill="#EEEEEE" height="16.9688" style="stroke: #000000; stroke-width: 1.0;" width="223" x="50" y="225.6563"/><text fill="#000000" font-family="sans-serif" font-size="12" lengthAdjust="spacingAndGlyphs" textLength="63" x="52" y="238.7949">SOX - Sole</text><line style="stroke: #000000; stroke-width: 1.0;" x1="262" x2="262" y1="225.6563" y2="242.625"/><polygon fill="#000000" points="265,231.6563,271,231.6563,268,237.625" style="stroke: #000000; stroke-width: 1.0;"/><text fill="#000000" font-family="sans-serif" font-size="12" lengthAdjust="spacingAndGlyphs" textLength="16" x="382" y="236.7949">50</text><text fill="#000000" font-family="sans-serif" font-size="12" lengthAdjust="spacingAndGlyphs" textLength="16" x="580" y="236.7949">10</text><text fill="#000000" font-family="sans-serif" font-size="12" lengthAdjust="spacingAndGlyphs" textLength="8" x="679" y="236.7949">4</text><text fill="#000000" font-family="sans-serif" font-size="12" lengthAdjust="spacingAndGlyphs" textLength="16" x="795" y="236.7949">25</text><text fill="#000000" font-family="sans-serif" font-size="12" lengthAdjust="spacingAndGlyphs" textLength="20" x="896" y="236.7949">1/1</text><text fill="#000000" font-family="sans-serif" font-size="12" lengthAdjust="spacingAndGlyphs" textLength="20" x="989" y="236.7949">1/1</text><text fill="#000000" font-family="sans-serif" font-size="12" lengthAdjust="spacingAndGlyphs" textLength="16" x="1121" y="236.7949">25</text><text fill="#000000" font-family="sans-serif" font-size="12" lengthAdjust="spacingAndGlyphs" textLength="8" x="1220" y="236.7949">2</text><line style="stroke: #000000; stroke-width: 1.0;" x1="6" x2="49" y1="129.7813" y2="129.7813"/><line style="stroke: #000000; stroke-width: 1.0;" x1="49" x2="275" y1="129.7813" y2="129.7813"/><line style="stroke: #000000; stroke-width: 1.0;" x1="275" x2="381" y1="129.7813" y2="129.7813"/><line style="stroke: #000000; stroke-width: 1.0;" x1="381" x2="491" y1="129.7813" y2="129.7813"/><line style="stroke: #000000; stroke-width: 1.0;" x1="491" x2="579" y1="129.7813" y2="129.7813"/><line style="stroke: #000000; stroke-width: 1.0;" x1="579" x2="678" y1="129.7813" y2="129.7813"/><line style="stroke: #000000; stroke-width: 1.0;" x1="678" x2="794" y1="129.7813" y2="129.7813"/><line style="stroke: #000000; stroke-width: 1.0;" x1="794" x2="895" y1="129.7813" y2="129.7813"/><line style="stroke: #000000; stroke-width: 1.0;" x1="895" x2="988" y1="129.7813" y2="129.7813"/><line style="stroke: #000000; stroke-width: 1.0;" x1="988" x2="1120" y1="129.7813" y2="129.7813"/><line style="stroke: #000000; stroke-width: 1.0;" x1="1120" x2="1219" y1="129.7813" y2="129.7813"/><line style="stroke: #000000; stroke-width: 1.0;" x1="1219" x2="1335" y1="129.7813" y2="129.7813"/><line style="stroke: #000000; stroke-width: 1.0;" x1="6" x2="49" y1="184.7188" y2="184.7188"/><line style="stroke: #000000; stroke-width: 1.0;" x1="49" x2="275" y1="184.7188" y2="184.7188"/><line style="stroke: #000000; stroke-width: 1.0;" x1="275" x2="381" y1="184.7188" y2="184.7188"/><line style="stroke: #000000; stroke-width: 1.0;" x1="381" x2="491" y1="184.7188" y2="184.7188"/><line style="stroke: #000000; stroke-width: 1.0;" x1="491" x2="579" y1="184.7188" y2="184.7188"/><line style="stroke: #000000; stroke-width: 1.0;" x1="579" x2="678" y1="184.7188" y2="184.7188"/><line style="stroke: #000000; stroke-width: 1.0;" x1="678" x2="794" y1="184.7188" y2="184.7188"/><line style="stroke: #000000; stroke-width: 1.0;" x1="794" x2="895" y1="184.7188" y2="184.7188"/><line style="stroke: #000000; stroke-width: 1.0;" x1="895" x2="988" y1="184.7188" y2="184.7188"/><line style="stroke: #000000; stroke-width: 1.0;" x1="988" x2="1120" y1="184.7188" y2="184.7188"/><line style="stroke: #000000; stroke-width: 1.0;" x1="1120" x2="1219" y1="184.7188" y2="184.7188"/><line style="stroke: #000000; stroke-width: 1.0;" x1="1219" x2="1335" y1="184.7188" y2="184.7188"/><line style="stroke: #000000; stroke-width: 1.0;" x1="6" x2="49" y1="244.625" y2="244.625"/><line style="stroke: #000000; stroke-width: 1.0;" x1="49" x2="275" y1="244.625" y2="244.625"/><line style="stroke: #000000; stroke-width: 1.0;" x1="275" x2="381" y1="244.625" y2="244.625"/><line style="stroke: #000000; stroke-width: 1.0;" x1="381" x2="491" y1="244.625" y2="244.625"/><line style="stroke: #000000; stroke-width: 1.0;" x1="491" x2="579" y1="244.625" y2="244.625"/><line style="stroke: #000000; stroke-width: 1.0;" x1="579" x2="678" y1="244.625" y2="244.625"/><line style="stroke: #000000; stroke-width: 1.0;" x1="678" x2="794" y1="244.625" y2="244.625"/><line style="stroke: #000000; stroke-width: 1.0;" x1="794" x2="895" y1="244.625" y2="244.625"/><line style="stroke: #000000; stroke-width: 1.0;" x1="895" x2="988" y1="244.625" y2="244.625"/><line style="stroke: #000000; stroke-width: 1.0;" x1="988" x2="1120" y1="244.625" y2="244.625"/><line style="stroke: #000000; stroke-width: 1.0;" x1="1120" x2="1219" y1="244.625" y2="244.625"/><line style="stroke: #000000; stroke-width: 1.0;" x1="1219" x2="1335" y1="244.625" y2="244.625"/><line style="stroke: #000000; stroke-width: 1.0;" x1="6" x2="49" y1="148.7813" y2="148.7813"/><line style="stroke: #000000; stroke-width: 1.0;" x1="49" x2="275" y1="148.7813" y2="148.7813"/><line style="stroke: #000000; stroke-width: 1.0;" x1="275" x2="381" y1="148.7813" y2="148.7813"/><line style="stroke: #000000; stroke-width: 1.0;" x1="381" x2="491" y1="148.7813" y2="148.7813"/><line style="stroke: #000000; stroke-width: 1.0;" x1="491" x2="579" y1="148.7813" y2="148.7813"/><line style="stroke: #000000; stroke-width: 1.0;" x1="579" x2="678" y1="148.7813" y2="148.7813"/><line style="stroke: #000000; stroke-width: 1.0;" x1="678" x2="794" y1="148.7813" y2="148.7813"/><line style="stroke: #000000; stroke-width: 1.0;" x1="794" x2="895" y1="148.7813" y2="148.7813"/><line style="stroke: #000000; stroke-width: 1.0;" x1="895" x2="988" y1="148.7813" y2="148.7813"/><line style="stroke: #000000; stroke-width: 1.0;" x1="988" x2="1120" y1="148.7813" y2="148.7813"/><line style="stroke: #000000; stroke-width: 1.0;" x1="1120" x2="1219" y1="148.7813" y2="148.7813"/><line style="stroke: #000000; stroke-width: 1.0;" x1="1219" x2="1335" y1="148.7813" y2="148.7813"/><line style="stroke: #000000; stroke-width: 1.0;" x1="6" x2="49" y1="204.6875" y2="204.6875"/><line style="stroke: #000000; stroke-width: 1.0;" x1="49" x2="275" y1="204.6875" y2="204.6875"/><line style="stroke: #000000; stroke-width: 1.0;" x1="275" x2="381" y1="204.6875" y2="204.6875"/><line style="stroke: #000000; stroke-width: 1.0;" x1="381" x2="491" y1="204.6875" y2="204.6875"/><line style="stroke: #000000; stroke-width: 1.0;" x1="491" x2="579" y1="204.6875" y2="204.6875"/><line style="stroke: #000000; stroke-width: 1.0;" x1="579" x2="678" y1="204.6875" y2="204.6875"/><line style="stroke: #000000; stroke-width: 1.0;" x1="678" x2="794" y1="204.6875" y2="204.6875"/><line style="stroke: #000000; stroke-width: 1.0;" x1="794" x2="895" y1="204.6875" y2="204.6875"/><line style="stroke: #000000; stroke-width: 1.0;" x1="895" x2="988" y1="204.6875" y2="204.6875"/><line style="stroke: #000000; stroke-width: 1.0;" x1="988" x2="1120" y1="204.6875" y2="204.6875"/><line style="stroke: #000000; stroke-width: 1.0;" x1="1120" x2="1219" y1="204.6875" y2="204.6875"/><line style="stroke: #000000; stroke-width: 1.0;" x1="1219" x2="1335" y1="204.6875" y2="204.6875"/><line style="stroke: #000000; stroke-width: 1.0;" x1="6" x2="49" y1="164.75" y2="164.75"/><line style="stroke: #000000; stroke-width: 1.0;" x1="49" x2="275" y1="164.75" y2="164.75"/><line style="stroke: #000000; stroke-width: 1.0;" x1="275" x2="381" y1="164.75" y2="164.75"/><line style="stroke: #000000; stroke-width: 1.0;" x1="381" x2="491" y1="164.75" y2="164.75"/><line style="stroke: #000000; stroke-width: 1.0;" x1="491" x2="579" y1="164.75" y2="164.75"/><line style="stroke: #000000; stroke-width: 1.0;" x1="579" x2="678" y1="164.75" y2="164.75"/><line style="stroke: #000000; stroke-width: 1.0;" x1="678" x2="794" y1="164.75" y2="164.75"/><line style="stroke: #000000; stroke-width: 1.0;" x1="794" x2="895" y1="164.75" y2="164.75"/><line style="stroke: #000000; stroke-width: 1.0;" x1="895" x2="988" y1="164.75" y2="164.75"/><line style="stroke: #000000; stroke-width: 1.0;" x1="988" x2="1120" y1="164.75" y2="164.75"/><line style="stroke: #000000; stroke-width: 1.0;" x1="1120" x2="1219" y1="164.75" y2="164.75"/><line style="stroke: #000000; stroke-width: 1.0;" x1="1219" x2="1335" y1="164.75" y2="164.75"/><line style="stroke: #000000; stroke-width: 1.0;" x1="6" x2="49" y1="224.6563" y2="224.6563"/><line style="stroke: #000000; stroke-width: 1.0;" x1="49" x2="275" y1="224.6563" y2="224.6563"/><line style="stroke: #000000; stroke-width: 1.0;" x1="275" x2="381" y1="224.6563" y2="224.6563"/><line style="stroke: #000000; stroke-width: 1.0;" x1="381" x2="491" y1="224.6563" y2="224.6563"/><line style="stroke: #000000; stroke-width: 1.0;" x1="491" x2="579" y1="224.6563" y2="224.6563"/><line style="stroke: #000000; stroke-width: 1.0;" x1="579" x2="678" y1="224.6563" y2="224.6563"/><line style="stroke: #000000; stroke-width: 1.0;" x1="678" x2="794" y1="224.6563" y2="224.6563"/><line style="stroke: #000000; stroke-width: 1.0;" x1="794" x2="895" y1="224.6563" y2="224.6563"/><line style="stroke: #000000; stroke-width: 1.0;" x1="895" x2="988" y1="224.6563" y2="224.6563"/><line style="stroke: #000000; stroke-width: 1.0;" x1="988" x2="1120" y1="224.6563" y2="224.6563"/><line style="stroke: #000000; stroke-width: 1.0;" x1="1120" x2="1219" y1="224.6563" y2="224.6563"/><line style="stroke: #000000; stroke-width: 1.0;" x1="1219" x2="1335" y1="224.6563" y2="224.6563"/><line style="stroke: #000000; stroke-width: 1.0;" x1="6" x2="6" y1="129.7813" y2="148.7813"/><line style="stroke: #000000; stroke-width: 1.0;" x1="49" x2="49" y1="129.7813" y2="148.7813"/><line style="stroke: #000000; stroke-width: 1.0;" x1="275" x2="275" y1="129.7813" y2="148.7813"/><line style="stroke: #000000; stroke-width: 1.0;" x1="381" x2="381" y1="129.7813" y2="148.7813"/><line style="stroke: #000000; stroke-width: 1.0;" x1="491" x2="491" y1="129.7813" y2="148.7813"/><line style="stroke: #000000; stroke-width: 1.0;" x1="579" x2="579" y1="129.7813" y2="148.7813"/><line style="stroke: #000000; stroke-width: 1.0;" x1="678" x2="678" y1="129.7813" y2="148.7813"/><line style="stroke: #000000; stroke-width: 1.0;" x1="794" x2="794" y1="129.7813" y2="148.7813"/><line style="stroke: #000000; stroke-width: 1.0;" x1="895" x2="895" y1="129.7813" y2="148.7813"/><line style="stroke: #000000; stroke-width: 1.0;" x1="988" x2="988" y1="129.7813" y2="148.7813"/><line style="stroke: #000000; stroke-width: 1.0;" x1="1120" x2="1120" y1="129.7813" y2="148.7813"/><line style="stroke: #000000; stroke-width: 1.0;" x1="1219" x2="1219" y1="129.7813" y2="148.7813"/><line style="stroke: #000000; stroke-width: 1.0;" x1="1335" x2="1335" y1="129.7813" y2="148.7813"/><line style="stroke: #000000; stroke-width: 1.0;" x1="6" x2="6" y1="184.7188" y2="204.6875"/><line style="stroke: #000000; stroke-width: 1.0;" x1="49" x2="49" y1="184.7188" y2="204.6875"/><line style="stroke: #000000; stroke-width: 1.0;" x1="275" x2="275" y1="184.7188" y2="204.6875"/><line style="stroke: #000000; stroke-width: 1.0;" x1="381" x2="381" y1="184.7188" y2="204.6875"/><line style="stroke: #000000; stroke-width: 1.0;" x1="491" x2="491" y1="184.7188" y2="204.6875"/><line style="stroke: #000000; stroke-width: 1.0;" x1="579" x2="579" y1="184.7188" y2="204.6875"/><line style="stroke: #000000; stroke-width: 1.0;" x1="678" x2="678" y1="184.7188" y2="204.6875"/><line style="stroke: #000000; stroke-width: 1.0;" x1="794" x2="794" y1="184.7188" y2="204.6875"/><line style="stroke: #000000; stroke-width: 1.0;" x1="895" x2="895" y1="184.7188" y2="204.6875"/><line style="stroke: #000000; stroke-width: 1.0;" x1="988" x2="988" y1="184.7188" y2="204.6875"/><line style="stroke: #000000; stroke-width: 1.0;" x1="1120" x2="1120" y1="184.7188" y2="204.6875"/><line style="stroke: #000000; stroke-width: 1.0;" x1="1219" x2="1219" y1="184.7188" y2="204.6875"/><line style="stroke: #000000; stroke-width: 1.0;" x1="1335" x2="1335" y1="184.7188" y2="204.6875"/><line style="stroke: #000000; stroke-width: 1.0;" x1="6" x2="6" y1="148.7813" y2="164.75"/><line style="stroke: #000000; stroke-width: 1.0;" x1="49" x2="49" y1="148.7813" y2="164.75"/><line style="stroke: #000000; stroke-width: 1.0;" x1="275" x2="275" y1="148.7813" y2="164.75"/><line style="stroke: #000000; stroke-width: 1.0;" x1="381" x2="381" y1="148.7813" y2="164.75"/><line style="stroke: #000000; stroke-width: 1.0;" x1="491" x2="491" y1="148.7813" y2="164.75"/><line style="stroke: #000000; stroke-width: 1.0;" x1="579" x2="579" y1="148.7813" y2="164.75"/><line style="stroke: #000000; stroke-width: 1.0;" x1="678" x2="678" y1="148.7813" y2="164.75"/><line style="stroke: #000000; stroke-width: 1.0;" x1="794" x2="794" y1="148.7813" y2="164.75"/><line style="stroke: #000000; stroke-width: 1.0;" x1="895" x2="895" y1="148.7813" y2="164.75"/><line style="stroke: #000000; stroke-width: 1.0;" x1="988" x2="988" y1="148.7813" y2="164.75"/><line style="stroke: #000000; stroke-width: 1.0;" x1="1120" x2="1120" y1="148.7813" y2="164.75"/><line style="stroke: #000000; stroke-width: 1.0;" x1="1219" x2="1219" y1="148.7813" y2="164.75"/><line style="stroke: #000000; stroke-width: 1.0;" x1="1335" x2="1335" y1="148.7813" y2="164.75"/><line style="stroke: #000000; stroke-width: 1.0;" x1="6" x2="6" y1="204.6875" y2="224.6563"/><line style="stroke: #000000; stroke-width: 1.0;" x1="49" x2="49" y1="204.6875" y2="224.6563"/><line style="stroke: #000000; stroke-width: 1.0;" x1="275" x2="275" y1="204.6875" y2="224.6563"/><line style="stroke: #000000; stroke-width: 1.0;" x1="381" x2="381" y1="204.6875" y2="224.6563"/><line style="stroke: #000000; stroke-width: 1.0;" x1="491" x2="491" y1="204.6875" y2="224.6563"/><line style="stroke: #000000; stroke-width: 1.0;" x1="579" x2="579" y1="204.6875" y2="224.6563"/><line style="stroke: #000000; stroke-width: 1.0;" x1="678" x2="678" y1="204.6875" y2="224.6563"/><line style="stroke: #000000; stroke-width: 1.0;" x1="794" x2="794" y1="204.6875" y2="224.6563"/><line style="stroke: #000000; stroke-width: 1.0;" x1="895" x2="895" y1="204.6875" y2="224.6563"/><line style="stroke: #000000; stroke-width: 1.0;" x1="988" x2="988" y1="204.6875" y2="224.6563"/><line style="stroke: #000000; stroke-width: 1.0;" x1="1120" x2="1120" y1="204.6875" y2="224.6563"/><line style="stroke: #000000; stroke-width: 1.0;" x1="1219" x2="1219" y1="204.6875" y2="224.6563"/><line style="stroke: #000000; stroke-width: 1.0;" x1="1335" x2="1335" y1="204.6875" y2="224.6563"/><line style="stroke: #000000; stroke-width: 1.0;" x1="6" x2="6" y1="164.75" y2="184.7188"/><line style="stroke: #000000; stroke-width: 1.0;" x1="49" x2="49" y1="164.75" y2="184.7188"/><line style="stroke: #000000; stroke-width: 1.0;" x1="275" x2="275" y1="164.75" y2="184.7188"/><line style="stroke: #000000; stroke-width: 1.0;" x1="381" x2="381" y1="164.75" y2="184.7188"/><line style="stroke: #000000; stroke-width: 1.0;" x1="491" x2="491" y1="164.75" y2="184.7188"/><line style="stroke: #000000; stroke-width: 1.0;" x1="579" x2="579" y1="164.75" y2="184.7188"/><line style="stroke: #000000; stroke-width: 1.0;" x1="678" x2="678" y1="164.75" y2="184.7188"/><line style="stroke: #000000; stroke-width: 1.0;" x1="794" x2="794" y1="164.75" y2="184.7188"/><line style="stroke: #000000; stroke-width: 1.0;" x1="895" x2="895" y1="164.75" y2="184.7188"/><line style="stroke: #000000; stroke-width: 1.0;" x1="988" x2="988" y1="164.75" y2="184.7188"/><line style="stroke: #000000; stroke-width: 1.0;" x1="1120" x2="1120" y1="164.75" y2="184.7188"/><line style="stroke: #000000; stroke-width: 1.0;" x1="1219" x2="1219" y1="164.75" y2="184.7188"/><line style="stroke: #000000; stroke-width: 1.0;" x1="1335" x2="1335" y1="164.75" y2="184.7188"/><line style="stroke: #000000; stroke-width: 1.0;" x1="6" x2="6" y1="224.6563" y2="244.625"/><line style="stroke: #000000; stroke-width: 1.0;" x1="49" x2="49" y1="224.6563" y2="244.625"/><line style="stroke: #000000; stroke-width: 1.0;" x1="275" x2="275" y1="224.6563" y2="244.625"/><line style="stroke: #000000; stroke-width: 1.0;" x1="381" x2="381" y1="224.6563" y2="244.625"/><line style="stroke: #000000; stroke-width: 1.0;" x1="491" x2="491" y1="224.6563" y2="244.625"/><line style="stroke: #000000; stroke-width: 1.0;" x1="579" x2="579" y1="224.6563" y2="244.625"/><line style="stroke: #000000; stroke-width: 1.0;" x1="678" x2="678" y1="224.6563" y2="244.625"/><line style="stroke: #000000; stroke-width: 1.0;" x1="794" x2="794" y1="224.6563" y2="244.625"/><line style="stroke: #000000; stroke-width: 1.0;" x1="895" x2="895" y1="224.6563" y2="244.625"/><line style="stroke: #000000; stroke-width: 1.0;" x1="988" x2="988" y1="224.6563" y2="244.625"/><line style="stroke: #000000; stroke-width: 1.0;" x1="1120" x2="1120" y1="224.6563" y2="244.625"/><line style="stroke: #000000; stroke-width: 1.0;" x1="1219" x2="1219" y1="224.6563" y2="244.625"/><line style="stroke: #000000; stroke-width: 1.0;" x1="1335" x2="1335" y1="224.6563" y2="244.625"/><line style="stroke: #AAAAAA; stroke-width: 1.0;" x1="6" x2="1336" y1="250.125" y2="250.125"/><rect fill="#EEEEEE" height="17.9688" rx="5" ry="5" style="stroke: #000000; stroke-width: 2.5;" width="60" x="9.5" y="258.125"/><text fill="#000000" font-family="sans-serif" font-size="12" lengthAdjust="spacingAndGlyphs" textLength="48" x="15.5" y="271.2637">Annuler</text><rect fill="#EEEEEE" height="17.9688" rx="5" ry="5" style="stroke: #000000; stroke-width: 2.5;" width="92" x="76.5" y="258.125"/><text fill="#000000" font-family="sans-serif" font-size="12" lengthAdjust="spacingAndGlyphs" textLength="80" x="82.5" y="271.2637">Sauvegarder</text></g></svg>