<?xml version="1.0" encoding="UTF-8" standalone="no"?><svg xmlns="http://www.w3.org/2000/svg" xmlns:xlink="http://www.w3.org/1999/xlink" contentScriptType="application/ecmascript" contentStyleType="text/css" height="481px" preserveAspectRatio="none" style="width:1126px;height:481px;" version="1.1" viewBox="0 0 1126 481" width="1126px" zoomAndPan="magnify"><defs/><g><text fill="#000000" font-family="sans-serif" font-size="12" font-weight="bold" lengthAdjust="spacingAndGlyphs" textLength="114" x="6" y="17.1387">Lots par espèce</text><line style="stroke: #AAAAAA; stroke-width: 1.0; stroke-dasharray: 1.0,2.0;" x1="6" x2="1119" y1="25.4688" y2="25.4688"/><text fill="#000000" font-family="sans-serif" font-size="12" lengthAdjust="spacingAndGlyphs" textLength="43" x="7" y="42.1074">Engin :</text><rect fill="#EEEEEE" height="17.9688" rx="5" ry="5" style="stroke: #000000; stroke-width: 2.5;" width="212" x="168.5" y="33.4688"/><text fill="#000000" font-family="sans-serif" font-size="12" font-weight="bold" lengthAdjust="spacingAndGlyphs" textLength="147" x="201" y="46.6074">Engin sélectif #1 (10)</text><rect fill="#EEEEEE" height="17.9688" rx="5" ry="5" style="stroke: #000000; stroke-width: 2.5;" width="140" x="387.5" y="33.4688"/><text fill="#000000" font-family="sans-serif" font-size="12" lengthAdjust="spacingAndGlyphs" textLength="118" x="398.5" y="46.6074">Engin standard #2</text><text fill="#000000" font-family="sans-serif" font-size="12" lengthAdjust="spacingAndGlyphs" textLength="97" x="7" y="67.0762">Position engin :</text><rect fill="#EEEEEE" height="17.9688" rx="5" ry="5" style="stroke: #000000; stroke-width: 2.5;" width="76" x="169.5" y="59.4375"/><text fill="#000000" font-family="sans-serif" font-size="12" font-weight="bold" lengthAdjust="spacingAndGlyphs" textLength="51" x="182" y="72.5762">Bâbord</text><rect fill="#EEEEEE" height="17.9688" rx="5" ry="5" style="stroke: #000000; stroke-width: 2.5;" width="60" x="252.5" y="59.4375"/><text fill="#000000" font-family="sans-serif" font-size="12" lengthAdjust="spacingAndGlyphs" textLength="44" x="260.5" y="72.5762">Tribord</text><text fill="#000000" font-family="sans-serif" font-size="12" lengthAdjust="spacingAndGlyphs" textLength="157" x="7" y="94.0449">Poids total capture (kg) :</text><text fill="#000000" font-family="sans-serif" font-size="12" lengthAdjust="spacingAndGlyphs" textLength="0" x="173" y="94.0449"/><line style="stroke: #000000; stroke-width: 1.0;" x1="167" x2="226" y1="96.875" y2="96.875"/><line style="stroke: #000000; stroke-width: 1.0;" x1="167" x2="167" y1="93.875" y2="95.875"/><line style="stroke: #000000; stroke-width: 1.0;" x1="226" x2="226" y1="93.875" y2="95.875"/><text fill="#000000" font-family="sans-serif" font-size="12" lengthAdjust="spacingAndGlyphs" textLength="137" x="7" y="112.0137">Poids total rejet (kg) :</text><text fill="#000000" font-family="sans-serif" font-size="12" lengthAdjust="spacingAndGlyphs" textLength="0" x="173" y="112.0137"/><line style="stroke: #000000; stroke-width: 1.0;" x1="167" x2="226" y1="114.8438" y2="114.8438"/><line style="stroke: #000000; stroke-width: 1.0;" x1="167" x2="167" y1="111.8438" y2="113.8438"/><line style="stroke: #000000; stroke-width: 1.0;" x1="226" x2="226" y1="111.8438" y2="113.8438"/><rect fill="#EEEEEE" height="12" rx="5" ry="5" style="stroke: #000000; stroke-width: 2.5;" width="36" x="9.5" y="123.3438"/><path d="M26.5,125.3438 L26.5,128.3438 L23.5,128.3438 L23.5,130.3438 L26.5,130.3438 L26.5,133.3438 L28.5,133.3438 L28.5,130.3438 L31.5,130.3438 L31.5,128.3438 L28.5,128.3438 L28.5,125.3438 L26.5,125.3438 " fill="#000000" style="stroke: ; stroke-width: 0.0; stroke-dasharray: ;"/><text fill="#000000" font-family="sans-serif" font-size="12" font-weight="bold" lengthAdjust="spacingAndGlyphs" textLength="104" x="276" y="131.9824">Partie retenue</text><text fill="#000000" font-family="sans-serif" font-size="12" font-weight="bold" lengthAdjust="spacingAndGlyphs" textLength="99" x="702" y="131.9824">Partie rejetée</text><text fill="#000000" font-family="sans-serif" font-size="12" lengthAdjust="spacingAndGlyphs" textLength="10" x="7" y="150.9824">#</text><text fill="#000000" font-family="sans-serif" font-size="12" font-weight="bold" lengthAdjust="spacingAndGlyphs" textLength="142" x="50" y="150.9824">Espèce commerciale</text><text fill="#000000" font-family="sans-serif" font-size="12" font-weight="bold" lengthAdjust="spacingAndGlyphs" textLength="108" x="276" y="150.9824">Poids total (kg)</text><text fill="#000000" font-family="sans-serif" font-size="12" font-weight="bold" lengthAdjust="spacingAndGlyphs" textLength="99" x="386" y="150.9824">Nb indiv. total</text><text fill="#000000" font-family="sans-serif" font-size="12" font-weight="bold" lengthAdjust="spacingAndGlyphs" textLength="97" x="487" y="150.9824">Poids échant.</text><text fill="#000000" font-family="sans-serif" font-size="12" font-weight="bold" lengthAdjust="spacingAndGlyphs" textLength="114" x="586" y="150.9824">Nb indiv échant.</text><text fill="#000000" font-family="sans-serif" font-size="12" font-weight="bold" lengthAdjust="spacingAndGlyphs" textLength="77" x="702" y="150.9824">Poids total</text><text fill="#000000" font-family="sans-serif" font-size="12" font-weight="bold" lengthAdjust="spacingAndGlyphs" textLength="99" x="803" y="150.9824">Nb indiv. total</text><text fill="#000000" font-family="sans-serif" font-size="12" font-weight="bold" lengthAdjust="spacingAndGlyphs" textLength="97" x="904" y="150.9824">Poids échant.</text><text fill="#000000" font-family="sans-serif" font-size="12" font-weight="bold" lengthAdjust="spacingAndGlyphs" textLength="114" x="1003" y="150.9824">Nb indiv échant.</text><text fill="#000000" font-family="sans-serif" font-size="12" lengthAdjust="spacingAndGlyphs" textLength="8" x="7" y="166.9512">3</text><rect fill="#EEEEEE" height="16.9688" style="stroke: #000000; stroke-width: 1.0;" width="223" x="50" y="155.8125"/><text fill="#000000" font-family="sans-serif" font-size="12" lengthAdjust="spacingAndGlyphs" textLength="92" x="52" y="168.9512">MNZ- Baudroie</text><line style="stroke: #000000; stroke-width: 1.0;" x1="262" x2="262" y1="155.8125" y2="172.7813"/><polygon fill="#000000" points="265,161.8125,271,161.8125,268,167.7813" style="stroke: #000000; stroke-width: 1.0;"/><text fill="#000000" font-family="sans-serif" font-size="12" lengthAdjust="spacingAndGlyphs" textLength="16" x="276" y="166.9512">50</text><text fill="#000000" font-family="sans-serif" font-size="12" lengthAdjust="spacingAndGlyphs" textLength="16" x="487" y="166.9512">10</text><text fill="#000000" font-family="sans-serif" font-size="12" lengthAdjust="spacingAndGlyphs" textLength="8" x="586" y="166.9512">4</text><text fill="#000000" font-family="sans-serif" font-size="12" lengthAdjust="spacingAndGlyphs" textLength="16" x="702" y="166.9512">25</text><text fill="#000000" font-family="sans-serif" font-size="12" lengthAdjust="spacingAndGlyphs" textLength="8" x="904" y="166.9512">5</text><text fill="#000000" font-family="sans-serif" font-size="12" lengthAdjust="spacingAndGlyphs" textLength="16" x="1003" y="166.9512">2 .</text><text fill="#000000" font-family="sans-serif" font-size="12" lengthAdjust="spacingAndGlyphs" textLength="8" x="7" y="186.9199">2</text><rect fill="#EEEEEE" height="16.9688" style="stroke: #000000; stroke-width: 1.0;" width="223" x="50" y="175.7813"/><text fill="#000000" font-family="sans-serif" font-size="12" lengthAdjust="spacingAndGlyphs" textLength="92" x="52" y="188.9199">MNZ- Baudroie</text><line style="stroke: #000000; stroke-width: 1.0;" x1="262" x2="262" y1="175.7813" y2="192.75"/><polygon fill="#000000" points="265,181.7813,271,181.7813,268,187.75" style="stroke: #000000; stroke-width: 1.0;"/><text fill="#000000" font-family="sans-serif" font-size="12" lengthAdjust="spacingAndGlyphs" textLength="16" x="276" y="186.9199">50</text><text fill="#000000" font-family="sans-serif" font-size="12" lengthAdjust="spacingAndGlyphs" textLength="16" x="487" y="186.9199">10</text><text fill="#000000" font-family="sans-serif" font-size="12" lengthAdjust="spacingAndGlyphs" textLength="8" x="586" y="186.9199">4</text><text fill="#000000" font-family="sans-serif" font-size="12" lengthAdjust="spacingAndGlyphs" textLength="16" x="702" y="186.9199">25</text><text fill="#000000" font-family="sans-serif" font-size="12" lengthAdjust="spacingAndGlyphs" textLength="8" x="904" y="186.9199">5</text><text fill="#000000" font-family="sans-serif" font-size="12" lengthAdjust="spacingAndGlyphs" textLength="16" x="1003" y="186.9199">2 .</text><text fill="#000000" font-family="sans-serif" font-size="12" lengthAdjust="spacingAndGlyphs" textLength="8" x="7" y="206.8887">1</text><rect fill="#EEEEEE" height="16.9688" style="stroke: #000000; stroke-width: 1.0;" width="223" x="50" y="195.75"/><text fill="#000000" font-family="sans-serif" font-size="12" lengthAdjust="spacingAndGlyphs" textLength="179" x="52" y="208.8887">NEP - Langoustine commune</text><line style="stroke: #000000; stroke-width: 1.0;" x1="262" x2="262" y1="195.75" y2="212.7188"/><polygon fill="#000000" points="265,201.75,271,201.75,268,207.7188" style="stroke: #000000; stroke-width: 1.0;"/><text fill="#000000" font-family="sans-serif" font-size="12" lengthAdjust="spacingAndGlyphs" textLength="16" x="276" y="206.8887">50</text><text fill="#000000" font-family="sans-serif" font-size="12" lengthAdjust="spacingAndGlyphs" textLength="16" x="487" y="206.8887">10</text><text fill="#000000" font-family="sans-serif" font-size="12" lengthAdjust="spacingAndGlyphs" textLength="8" x="586" y="206.8887">4</text><text fill="#000000" font-family="sans-serif" font-size="12" lengthAdjust="spacingAndGlyphs" textLength="16" x="702" y="206.8887">25</text><text fill="#000000" font-family="sans-serif" font-size="12" lengthAdjust="spacingAndGlyphs" textLength="8" x="904" y="206.8887">5</text><text fill="#000000" font-family="sans-serif" font-size="12" lengthAdjust="spacingAndGlyphs" textLength="16" x="1003" y="206.8887">2 .</text><line style="stroke: #000000; stroke-width: 1.0;" x1="6" x2="49" y1="119.8438" y2="119.8438"/><line style="stroke: #000000; stroke-width: 1.0;" x1="49" x2="275" y1="119.8438" y2="119.8438"/><line style="stroke: #000000; stroke-width: 1.0;" x1="275" x2="385" y1="119.8438" y2="119.8438"/><line style="stroke: #000000; stroke-width: 1.0;" x1="385" x2="486" y1="119.8438" y2="119.8438"/><line style="stroke: #000000; stroke-width: 1.0;" x1="486" x2="585" y1="119.8438" y2="119.8438"/><line style="stroke: #000000; stroke-width: 1.0;" x1="585" x2="701" y1="119.8438" y2="119.8438"/><line style="stroke: #000000; stroke-width: 1.0;" x1="701" x2="802" y1="119.8438" y2="119.8438"/><line style="stroke: #000000; stroke-width: 1.0;" x1="802" x2="903" y1="119.8438" y2="119.8438"/><line style="stroke: #000000; stroke-width: 1.0;" x1="903" x2="1002" y1="119.8438" y2="119.8438"/><line style="stroke: #000000; stroke-width: 1.0;" x1="1002" x2="1118" y1="119.8438" y2="119.8438"/><line style="stroke: #000000; stroke-width: 1.0;" x1="6" x2="49" y1="174.7813" y2="174.7813"/><line style="stroke: #000000; stroke-width: 1.0;" x1="49" x2="275" y1="174.7813" y2="174.7813"/><line style="stroke: #000000; stroke-width: 1.0;" x1="275" x2="385" y1="174.7813" y2="174.7813"/><line style="stroke: #000000; stroke-width: 1.0;" x1="385" x2="486" y1="174.7813" y2="174.7813"/><line style="stroke: #000000; stroke-width: 1.0;" x1="486" x2="585" y1="174.7813" y2="174.7813"/><line style="stroke: #000000; stroke-width: 1.0;" x1="585" x2="701" y1="174.7813" y2="174.7813"/><line style="stroke: #000000; stroke-width: 1.0;" x1="701" x2="802" y1="174.7813" y2="174.7813"/><line style="stroke: #000000; stroke-width: 1.0;" x1="802" x2="903" y1="174.7813" y2="174.7813"/><line style="stroke: #000000; stroke-width: 1.0;" x1="903" x2="1002" y1="174.7813" y2="174.7813"/><line style="stroke: #000000; stroke-width: 1.0;" x1="1002" x2="1118" y1="174.7813" y2="174.7813"/><line style="stroke: #000000; stroke-width: 1.0;" x1="6" x2="49" y1="138.8438" y2="138.8438"/><line style="stroke: #000000; stroke-width: 1.0;" x1="49" x2="275" y1="138.8438" y2="138.8438"/><line style="stroke: #000000; stroke-width: 1.0;" x1="275" x2="385" y1="138.8438" y2="138.8438"/><line style="stroke: #000000; stroke-width: 1.0;" x1="385" x2="486" y1="138.8438" y2="138.8438"/><line style="stroke: #000000; stroke-width: 1.0;" x1="486" x2="585" y1="138.8438" y2="138.8438"/><line style="stroke: #000000; stroke-width: 1.0;" x1="585" x2="701" y1="138.8438" y2="138.8438"/><line style="stroke: #000000; stroke-width: 1.0;" x1="701" x2="802" y1="138.8438" y2="138.8438"/><line style="stroke: #000000; stroke-width: 1.0;" x1="802" x2="903" y1="138.8438" y2="138.8438"/><line style="stroke: #000000; stroke-width: 1.0;" x1="903" x2="1002" y1="138.8438" y2="138.8438"/><line style="stroke: #000000; stroke-width: 1.0;" x1="1002" x2="1118" y1="138.8438" y2="138.8438"/><line style="stroke: #000000; stroke-width: 1.0;" x1="6" x2="49" y1="194.75" y2="194.75"/><line style="stroke: #000000; stroke-width: 1.0;" x1="49" x2="275" y1="194.75" y2="194.75"/><line style="stroke: #000000; stroke-width: 1.0;" x1="275" x2="385" y1="194.75" y2="194.75"/><line style="stroke: #000000; stroke-width: 1.0;" x1="385" x2="486" y1="194.75" y2="194.75"/><line style="stroke: #000000; stroke-width: 1.0;" x1="486" x2="585" y1="194.75" y2="194.75"/><line style="stroke: #000000; stroke-width: 1.0;" x1="585" x2="701" y1="194.75" y2="194.75"/><line style="stroke: #000000; stroke-width: 1.0;" x1="701" x2="802" y1="194.75" y2="194.75"/><line style="stroke: #000000; stroke-width: 1.0;" x1="802" x2="903" y1="194.75" y2="194.75"/><line style="stroke: #000000; stroke-width: 1.0;" x1="903" x2="1002" y1="194.75" y2="194.75"/><line style="stroke: #000000; stroke-width: 1.0;" x1="1002" x2="1118" y1="194.75" y2="194.75"/><line style="stroke: #000000; stroke-width: 1.0;" x1="6" x2="49" y1="154.8125" y2="154.8125"/><line style="stroke: #000000; stroke-width: 1.0;" x1="49" x2="275" y1="154.8125" y2="154.8125"/><line style="stroke: #000000; stroke-width: 1.0;" x1="275" x2="385" y1="154.8125" y2="154.8125"/><line style="stroke: #000000; stroke-width: 1.0;" x1="385" x2="486" y1="154.8125" y2="154.8125"/><line style="stroke: #000000; stroke-width: 1.0;" x1="486" x2="585" y1="154.8125" y2="154.8125"/><line style="stroke: #000000; stroke-width: 1.0;" x1="585" x2="701" y1="154.8125" y2="154.8125"/><line style="stroke: #000000; stroke-width: 1.0;" x1="701" x2="802" y1="154.8125" y2="154.8125"/><line style="stroke: #000000; stroke-width: 1.0;" x1="802" x2="903" y1="154.8125" y2="154.8125"/><line style="stroke: #000000; stroke-width: 1.0;" x1="903" x2="1002" y1="154.8125" y2="154.8125"/><line style="stroke: #000000; stroke-width: 1.0;" x1="1002" x2="1118" y1="154.8125" y2="154.8125"/><line style="stroke: #000000; stroke-width: 1.0;" x1="6" x2="49" y1="214.7188" y2="214.7188"/><line style="stroke: #000000; stroke-width: 1.0;" x1="49" x2="275" y1="214.7188" y2="214.7188"/><line style="stroke: #000000; stroke-width: 1.0;" x1="275" x2="385" y1="214.7188" y2="214.7188"/><line style="stroke: #000000; stroke-width: 1.0;" x1="385" x2="486" y1="214.7188" y2="214.7188"/><line style="stroke: #000000; stroke-width: 1.0;" x1="486" x2="585" y1="214.7188" y2="214.7188"/><line style="stroke: #000000; stroke-width: 1.0;" x1="585" x2="701" y1="214.7188" y2="214.7188"/><line style="stroke: #000000; stroke-width: 1.0;" x1="701" x2="802" y1="214.7188" y2="214.7188"/><line style="stroke: #000000; stroke-width: 1.0;" x1="802" x2="903" y1="214.7188" y2="214.7188"/><line style="stroke: #000000; stroke-width: 1.0;" x1="903" x2="1002" y1="214.7188" y2="214.7188"/><line style="stroke: #000000; stroke-width: 1.0;" x1="1002" x2="1118" y1="214.7188" y2="214.7188"/><line style="stroke: #000000; stroke-width: 1.0;" x1="6" x2="6" y1="119.8438" y2="138.8438"/><line style="stroke: #000000; stroke-width: 1.0;" x1="49" x2="49" y1="119.8438" y2="138.8438"/><line style="stroke: #000000; stroke-width: 1.0;" x1="275" x2="275" y1="119.8438" y2="138.8438"/><line style="stroke: #000000; stroke-width: 1.0;" x1="385" x2="385" y1="119.8438" y2="138.8438"/><line style="stroke: #000000; stroke-width: 1.0;" x1="486" x2="486" y1="119.8438" y2="138.8438"/><line style="stroke: #000000; stroke-width: 1.0;" x1="585" x2="585" y1="119.8438" y2="138.8438"/><line style="stroke: #000000; stroke-width: 1.0;" x1="701" x2="701" y1="119.8438" y2="138.8438"/><line style="stroke: #000000; stroke-width: 1.0;" x1="802" x2="802" y1="119.8438" y2="138.8438"/><line style="stroke: #000000; stroke-width: 1.0;" x1="903" x2="903" y1="119.8438" y2="138.8438"/><line style="stroke: #000000; stroke-width: 1.0;" x1="1002" x2="1002" y1="119.8438" y2="138.8438"/><line style="stroke: #000000; stroke-width: 1.0;" x1="1118" x2="1118" y1="119.8438" y2="138.8438"/><line style="stroke: #000000; stroke-width: 1.0;" x1="6" x2="6" y1="174.7813" y2="194.75"/><line style="stroke: #000000; stroke-width: 1.0;" x1="49" x2="49" y1="174.7813" y2="194.75"/><line style="stroke: #000000; stroke-width: 1.0;" x1="275" x2="275" y1="174.7813" y2="194.75"/><line style="stroke: #000000; stroke-width: 1.0;" x1="385" x2="385" y1="174.7813" y2="194.75"/><line style="stroke: #000000; stroke-width: 1.0;" x1="486" x2="486" y1="174.7813" y2="194.75"/><line style="stroke: #000000; stroke-width: 1.0;" x1="585" x2="585" y1="174.7813" y2="194.75"/><line style="stroke: #000000; stroke-width: 1.0;" x1="701" x2="701" y1="174.7813" y2="194.75"/><line style="stroke: #000000; stroke-width: 1.0;" x1="802" x2="802" y1="174.7813" y2="194.75"/><line style="stroke: #000000; stroke-width: 1.0;" x1="903" x2="903" y1="174.7813" y2="194.75"/><line style="stroke: #000000; stroke-width: 1.0;" x1="1002" x2="1002" y1="174.7813" y2="194.75"/><line style="stroke: #000000; stroke-width: 1.0;" x1="1118" x2="1118" y1="174.7813" y2="194.75"/><line style="stroke: #000000; stroke-width: 1.0;" x1="6" x2="6" y1="138.8438" y2="154.8125"/><line style="stroke: #000000; stroke-width: 1.0;" x1="49" x2="49" y1="138.8438" y2="154.8125"/><line style="stroke: #000000; stroke-width: 1.0;" x1="275" x2="275" y1="138.8438" y2="154.8125"/><line style="stroke: #000000; stroke-width: 1.0;" x1="385" x2="385" y1="138.8438" y2="154.8125"/><line style="stroke: #000000; stroke-width: 1.0;" x1="486" x2="486" y1="138.8438" y2="154.8125"/><line style="stroke: #000000; stroke-width: 1.0;" x1="585" x2="585" y1="138.8438" y2="154.8125"/><line style="stroke: #000000; stroke-width: 1.0;" x1="701" x2="701" y1="138.8438" y2="154.8125"/><line style="stroke: #000000; stroke-width: 1.0;" x1="802" x2="802" y1="138.8438" y2="154.8125"/><line style="stroke: #000000; stroke-width: 1.0;" x1="903" x2="903" y1="138.8438" y2="154.8125"/><line style="stroke: #000000; stroke-width: 1.0;" x1="1002" x2="1002" y1="138.8438" y2="154.8125"/><line style="stroke: #000000; stroke-width: 1.0;" x1="1118" x2="1118" y1="138.8438" y2="154.8125"/><line style="stroke: #000000; stroke-width: 1.0;" x1="6" x2="6" y1="194.75" y2="214.7188"/><line style="stroke: #000000; stroke-width: 1.0;" x1="49" x2="49" y1="194.75" y2="214.7188"/><line style="stroke: #000000; stroke-width: 1.0;" x1="275" x2="275" y1="194.75" y2="214.7188"/><line style="stroke: #000000; stroke-width: 1.0;" x1="385" x2="385" y1="194.75" y2="214.7188"/><line style="stroke: #000000; stroke-width: 1.0;" x1="486" x2="486" y1="194.75" y2="214.7188"/><line style="stroke: #000000; stroke-width: 1.0;" x1="585" x2="585" y1="194.75" y2="214.7188"/><line style="stroke: #000000; stroke-width: 1.0;" x1="701" x2="701" y1="194.75" y2="214.7188"/><line style="stroke: #000000; stroke-width: 1.0;" x1="802" x2="802" y1="194.75" y2="214.7188"/><line style="stroke: #000000; stroke-width: 1.0;" x1="903" x2="903" y1="194.75" y2="214.7188"/><line style="stroke: #000000; stroke-width: 1.0;" x1="1002" x2="1002" y1="194.75" y2="214.7188"/><line style="stroke: #000000; stroke-width: 1.0;" x1="1118" x2="1118" y1="194.75" y2="214.7188"/><line style="stroke: #000000; stroke-width: 1.0;" x1="6" x2="6" y1="154.8125" y2="174.7813"/><line style="stroke: #000000; stroke-width: 1.0;" x1="49" x2="49" y1="154.8125" y2="174.7813"/><line style="stroke: #000000; stroke-width: 1.0;" x1="275" x2="275" y1="154.8125" y2="174.7813"/><line style="stroke: #000000; stroke-width: 1.0;" x1="385" x2="385" y1="154.8125" y2="174.7813"/><line style="stroke: #000000; stroke-width: 1.0;" x1="486" x2="486" y1="154.8125" y2="174.7813"/><line style="stroke: #000000; stroke-width: 1.0;" x1="585" x2="585" y1="154.8125" y2="174.7813"/><line style="stroke: #000000; stroke-width: 1.0;" x1="701" x2="701" y1="154.8125" y2="174.7813"/><line style="stroke: #000000; stroke-width: 1.0;" x1="802" x2="802" y1="154.8125" y2="174.7813"/><line style="stroke: #000000; stroke-width: 1.0;" x1="903" x2="903" y1="154.8125" y2="174.7813"/><line style="stroke: #000000; stroke-width: 1.0;" x1="1002" x2="1002" y1="154.8125" y2="174.7813"/><line style="stroke: #000000; stroke-width: 1.0;" x1="1118" x2="1118" y1="154.8125" y2="174.7813"/><line style="stroke: #AAAAAA; stroke-width: 1.0; stroke-dasharray: 1.0,2.0;" x1="6" x2="1119" y1="220.2188" y2="220.2188"/><rect fill="#EEEEEE" height="17.9688" rx="5" ry="5" style="stroke: #000000; stroke-width: 2.5;" width="164" x="9.5" y="228.2188"/><path d="M36.5,233.1875 L36.5,236.1875 L33.5,236.1875 L33.5,238.1875 L36.5,238.1875 L36.5,241.1875 L38.5,241.1875 L38.5,238.1875 L41.5,238.1875 L41.5,236.1875 L38.5,236.1875 L38.5,233.1875 L36.5,233.1875 " fill="#000000" style="stroke: ; stroke-width: 0.0; stroke-dasharray: ;"/><text fill="#000000" font-family="sans-serif" font-size="12" lengthAdjust="spacingAndGlyphs" textLength="104" x="46.5" y="241.3574">Ajouter un engin</text><line style="stroke: #AAAAAA; stroke-width: 1.0; stroke-dasharray: 1.0,2.0;" x1="6" x2="1119" y1="255.1875" y2="255.1875"/><text fill="#000000" font-family="sans-serif" font-size="12" lengthAdjust="spacingAndGlyphs" textLength="43" x="7" y="271.8262">Engin :</text><rect fill="#EEEEEE" height="17.9688" rx="5" ry="5" style="stroke: #000000; stroke-width: 2.5;" width="188" x="168.5" y="263.1875"/><text fill="#000000" font-family="sans-serif" font-size="12" lengthAdjust="spacingAndGlyphs" textLength="136" x="194.5" y="276.3262">Engin sélectif #1 (10)</text><rect fill="#EEEEEE" height="17.9688" rx="5" ry="5" style="stroke: #000000; stroke-width: 2.5;" width="164" x="363.5" y="263.1875"/><text fill="#000000" font-family="sans-serif" font-size="12" font-weight="bold" lengthAdjust="spacingAndGlyphs" textLength="130" x="380.5" y="276.3262">Engin standard #2</text><text fill="#000000" font-family="sans-serif" font-size="12" lengthAdjust="spacingAndGlyphs" textLength="97" x="7" y="296.7949">Position engin :</text><rect fill="#EEEEEE" height="17.9688" rx="5" ry="5" style="stroke: #000000; stroke-width: 2.5;" width="52" x="169.5" y="289.1563"/><text fill="#000000" font-family="sans-serif" font-size="12" lengthAdjust="spacingAndGlyphs" textLength="45" x="173" y="302.2949">Bâbord</text><rect fill="#EEEEEE" height="17.9688" rx="5" ry="5" style="stroke: #000000; stroke-width: 2.5;" width="84" x="228.5" y="289.1563"/><text fill="#000000" font-family="sans-serif" font-size="12" font-weight="bold" lengthAdjust="spacingAndGlyphs" textLength="51" x="245" y="302.2949">Tribord</text><text fill="#000000" font-family="sans-serif" font-size="12" lengthAdjust="spacingAndGlyphs" textLength="157" x="7" y="323.7637">Poids total capture (kg) :</text><text fill="#000000" font-family="sans-serif" font-size="12" lengthAdjust="spacingAndGlyphs" textLength="0" x="173" y="323.7637"/><line style="stroke: #000000; stroke-width: 1.0;" x1="167" x2="226" y1="326.5938" y2="326.5938"/><line style="stroke: #000000; stroke-width: 1.0;" x1="167" x2="167" y1="323.5938" y2="325.5938"/><line style="stroke: #000000; stroke-width: 1.0;" x1="226" x2="226" y1="323.5938" y2="325.5938"/><text fill="#000000" font-family="sans-serif" font-size="12" lengthAdjust="spacingAndGlyphs" textLength="137" x="7" y="341.7324">Poids total rejet (kg) :</text><text fill="#000000" font-family="sans-serif" font-size="12" lengthAdjust="spacingAndGlyphs" textLength="0" x="173" y="341.7324"/><line style="stroke: #000000; stroke-width: 1.0;" x1="167" x2="226" y1="344.5625" y2="344.5625"/><line style="stroke: #000000; stroke-width: 1.0;" x1="167" x2="167" y1="341.5625" y2="343.5625"/><line style="stroke: #000000; stroke-width: 1.0;" x1="226" x2="226" y1="341.5625" y2="343.5625"/><rect fill="#EEEEEE" height="12" rx="5" ry="5" style="stroke: #000000; stroke-width: 2.5;" width="36" x="9.5" y="353.0625"/><path d="M26.5,355.0625 L26.5,358.0625 L23.5,358.0625 L23.5,360.0625 L26.5,360.0625 L26.5,363.0625 L28.5,363.0625 L28.5,360.0625 L31.5,360.0625 L31.5,358.0625 L28.5,358.0625 L28.5,355.0625 L26.5,355.0625 " fill="#000000" style="stroke: ; stroke-width: 0.0; stroke-dasharray: ;"/><text fill="#000000" font-family="sans-serif" font-size="12" font-weight="bold" lengthAdjust="spacingAndGlyphs" textLength="104" x="276" y="361.7012">Partie retenue</text><text fill="#000000" font-family="sans-serif" font-size="12" font-weight="bold" lengthAdjust="spacingAndGlyphs" textLength="99" x="702" y="361.7012">Partie rejetée</text><text fill="#000000" font-family="sans-serif" font-size="12" lengthAdjust="spacingAndGlyphs" textLength="10" x="7" y="380.7012">#</text><text fill="#000000" font-family="sans-serif" font-size="12" font-weight="bold" lengthAdjust="spacingAndGlyphs" textLength="142" x="50" y="380.7012">Espèce commerciale</text><text fill="#000000" font-family="sans-serif" font-size="12" font-weight="bold" lengthAdjust="spacingAndGlyphs" textLength="108" x="276" y="380.7012">Poids total (kg)</text><text fill="#000000" font-family="sans-serif" font-size="12" font-weight="bold" lengthAdjust="spacingAndGlyphs" textLength="99" x="386" y="380.7012">Nb indiv. total</text><text fill="#000000" font-family="sans-serif" font-size="12" font-weight="bold" lengthAdjust="spacingAndGlyphs" textLength="97" x="487" y="380.7012">Poids échant.</text><text fill="#000000" font-family="sans-serif" font-size="12" font-weight="bold" lengthAdjust="spacingAndGlyphs" textLength="114" x="586" y="380.7012">Nb indiv échant.</text><text fill="#000000" font-family="sans-serif" font-size="12" font-weight="bold" lengthAdjust="spacingAndGlyphs" textLength="77" x="702" y="380.7012">Poids total</text><text fill="#000000" font-family="sans-serif" font-size="12" font-weight="bold" lengthAdjust="spacingAndGlyphs" textLength="99" x="803" y="380.7012">Nb indiv. total</text><text fill="#000000" font-family="sans-serif" font-size="12" font-weight="bold" lengthAdjust="spacingAndGlyphs" textLength="97" x="904" y="380.7012">Poids échant.</text><text fill="#000000" font-family="sans-serif" font-size="12" font-weight="bold" lengthAdjust="spacingAndGlyphs" textLength="114" x="1003" y="380.7012">Nb indiv échant.</text><text fill="#000000" font-family="sans-serif" font-size="12" lengthAdjust="spacingAndGlyphs" textLength="8" x="7" y="396.6699">3</text><rect fill="#EEEEEE" height="16.9688" style="stroke: #000000; stroke-width: 1.0;" width="223" x="50" y="385.5313"/><text fill="#000000" font-family="sans-serif" font-size="12" lengthAdjust="spacingAndGlyphs" textLength="92" x="52" y="398.6699">MNZ- Baudroie</text><line style="stroke: #000000; stroke-width: 1.0;" x1="262" x2="262" y1="385.5313" y2="402.5"/><polygon fill="#000000" points="265,391.5313,271,391.5313,268,397.5" style="stroke: #000000; stroke-width: 1.0;"/><text fill="#000000" font-family="sans-serif" font-size="12" lengthAdjust="spacingAndGlyphs" textLength="16" x="276" y="396.6699">50</text><text fill="#000000" font-family="sans-serif" font-size="12" lengthAdjust="spacingAndGlyphs" textLength="16" x="487" y="396.6699">10</text><text fill="#000000" font-family="sans-serif" font-size="12" lengthAdjust="spacingAndGlyphs" textLength="8" x="586" y="396.6699">4</text><text fill="#000000" font-family="sans-serif" font-size="12" lengthAdjust="spacingAndGlyphs" textLength="16" x="702" y="396.6699">25</text><text fill="#000000" font-family="sans-serif" font-size="12" lengthAdjust="spacingAndGlyphs" textLength="8" x="904" y="396.6699">5</text><text fill="#000000" font-family="sans-serif" font-size="12" lengthAdjust="spacingAndGlyphs" textLength="16" x="1003" y="396.6699">2 .</text><text fill="#000000" font-family="sans-serif" font-size="12" lengthAdjust="spacingAndGlyphs" textLength="8" x="7" y="416.6387">2</text><rect fill="#EEEEEE" height="16.9688" style="stroke: #000000; stroke-width: 1.0;" width="223" x="50" y="405.5"/><text fill="#000000" font-family="sans-serif" font-size="12" lengthAdjust="spacingAndGlyphs" textLength="92" x="52" y="418.6387">MNZ- Baudroie</text><line style="stroke: #000000; stroke-width: 1.0;" x1="262" x2="262" y1="405.5" y2="422.4688"/><polygon fill="#000000" points="265,411.5,271,411.5,268,417.4688" style="stroke: #000000; stroke-width: 1.0;"/><text fill="#000000" font-family="sans-serif" font-size="12" lengthAdjust="spacingAndGlyphs" textLength="16" x="276" y="416.6387">50</text><text fill="#000000" font-family="sans-serif" font-size="12" lengthAdjust="spacingAndGlyphs" textLength="16" x="487" y="416.6387">10</text><text fill="#000000" font-family="sans-serif" font-size="12" lengthAdjust="spacingAndGlyphs" textLength="8" x="586" y="416.6387">4</text><text fill="#000000" font-family="sans-serif" font-size="12" lengthAdjust="spacingAndGlyphs" textLength="16" x="702" y="416.6387">25</text><text fill="#000000" font-family="sans-serif" font-size="12" lengthAdjust="spacingAndGlyphs" textLength="8" x="904" y="416.6387">5</text><text fill="#000000" font-family="sans-serif" font-size="12" lengthAdjust="spacingAndGlyphs" textLength="16" x="1003" y="416.6387">2 .</text><text fill="#000000" font-family="sans-serif" font-size="12" lengthAdjust="spacingAndGlyphs" textLength="8" x="7" y="436.6074">1</text><rect fill="#EEEEEE" height="16.9688" style="stroke: #000000; stroke-width: 1.0;" width="223" x="50" y="425.4688"/><text fill="#000000" font-family="sans-serif" font-size="12" lengthAdjust="spacingAndGlyphs" textLength="179" x="52" y="438.6074">NEP - Langoustine commune</text><line style="stroke: #000000; stroke-width: 1.0;" x1="262" x2="262" y1="425.4688" y2="442.4375"/><polygon fill="#000000" points="265,431.4688,271,431.4688,268,437.4375" style="stroke: #000000; stroke-width: 1.0;"/><text fill="#000000" font-family="sans-serif" font-size="12" lengthAdjust="spacingAndGlyphs" textLength="16" x="276" y="436.6074">50</text><text fill="#000000" font-family="sans-serif" font-size="12" lengthAdjust="spacingAndGlyphs" textLength="16" x="487" y="436.6074">10</text><text fill="#000000" font-family="sans-serif" font-size="12" lengthAdjust="spacingAndGlyphs" textLength="8" x="586" y="436.6074">4</text><text fill="#000000" font-family="sans-serif" font-size="12" lengthAdjust="spacingAndGlyphs" textLength="16" x="702" y="436.6074">25</text><text fill="#000000" font-family="sans-serif" font-size="12" lengthAdjust="spacingAndGlyphs" textLength="8" x="904" y="436.6074">5</text><text fill="#000000" font-family="sans-serif" font-size="12" lengthAdjust="spacingAndGlyphs" textLength="16" x="1003" y="436.6074">2 .</text><line style="stroke: #000000; stroke-width: 1.0;" x1="6" x2="49" y1="349.5625" y2="349.5625"/><line style="stroke: #000000; stroke-width: 1.0;" x1="49" x2="275" y1="349.5625" y2="349.5625"/><line style="stroke: #000000; stroke-width: 1.0;" x1="275" x2="385" y1="349.5625" y2="349.5625"/><line style="stroke: #000000; stroke-width: 1.0;" x1="385" x2="486" y1="349.5625" y2="349.5625"/><line style="stroke: #000000; stroke-width: 1.0;" x1="486" x2="585" y1="349.5625" y2="349.5625"/><line style="stroke: #000000; stroke-width: 1.0;" x1="585" x2="701" y1="349.5625" y2="349.5625"/><line style="stroke: #000000; stroke-width: 1.0;" x1="701" x2="802" y1="349.5625" y2="349.5625"/><line style="stroke: #000000; stroke-width: 1.0;" x1="802" x2="903" y1="349.5625" y2="349.5625"/><line style="stroke: #000000; stroke-width: 1.0;" x1="903" x2="1002" y1="349.5625" y2="349.5625"/><line style="stroke: #000000; stroke-width: 1.0;" x1="1002" x2="1118" y1="349.5625" y2="349.5625"/><line style="stroke: #000000; stroke-width: 1.0;" x1="6" x2="49" y1="404.5" y2="404.5"/><line style="stroke: #000000; stroke-width: 1.0;" x1="49" x2="275" y1="404.5" y2="404.5"/><line style="stroke: #000000; stroke-width: 1.0;" x1="275" x2="385" y1="404.5" y2="404.5"/><line style="stroke: #000000; stroke-width: 1.0;" x1="385" x2="486" y1="404.5" y2="404.5"/><line style="stroke: #000000; stroke-width: 1.0;" x1="486" x2="585" y1="404.5" y2="404.5"/><line style="stroke: #000000; stroke-width: 1.0;" x1="585" x2="701" y1="404.5" y2="404.5"/><line style="stroke: #000000; stroke-width: 1.0;" x1="701" x2="802" y1="404.5" y2="404.5"/><line style="stroke: #000000; stroke-width: 1.0;" x1="802" x2="903" y1="404.5" y2="404.5"/><line style="stroke: #000000; stroke-width: 1.0;" x1="903" x2="1002" y1="404.5" y2="404.5"/><line style="stroke: #000000; stroke-width: 1.0;" x1="1002" x2="1118" y1="404.5" y2="404.5"/><line style="stroke: #000000; stroke-width: 1.0;" x1="6" x2="49" y1="368.5625" y2="368.5625"/><line style="stroke: #000000; stroke-width: 1.0;" x1="49" x2="275" y1="368.5625" y2="368.5625"/><line style="stroke: #000000; stroke-width: 1.0;" x1="275" x2="385" y1="368.5625" y2="368.5625"/><line style="stroke: #000000; stroke-width: 1.0;" x1="385" x2="486" y1="368.5625" y2="368.5625"/><line style="stroke: #000000; stroke-width: 1.0;" x1="486" x2="585" y1="368.5625" y2="368.5625"/><line style="stroke: #000000; stroke-width: 1.0;" x1="585" x2="701" y1="368.5625" y2="368.5625"/><line style="stroke: #000000; stroke-width: 1.0;" x1="701" x2="802" y1="368.5625" y2="368.5625"/><line style="stroke: #000000; stroke-width: 1.0;" x1="802" x2="903" y1="368.5625" y2="368.5625"/><line style="stroke: #000000; stroke-width: 1.0;" x1="903" x2="1002" y1="368.5625" y2="368.5625"/><line style="stroke: #000000; stroke-width: 1.0;" x1="1002" x2="1118" y1="368.5625" y2="368.5625"/><line style="stroke: #000000; stroke-width: 1.0;" x1="6" x2="49" y1="424.4688" y2="424.4688"/><line style="stroke: #000000; stroke-width: 1.0;" x1="49" x2="275" y1="424.4688" y2="424.4688"/><line style="stroke: #000000; stroke-width: 1.0;" x1="275" x2="385" y1="424.4688" y2="424.4688"/><line style="stroke: #000000; stroke-width: 1.0;" x1="385" x2="486" y1="424.4688" y2="424.4688"/><line style="stroke: #000000; stroke-width: 1.0;" x1="486" x2="585" y1="424.4688" y2="424.4688"/><line style="stroke: #000000; stroke-width: 1.0;" x1="585" x2="701" y1="424.4688" y2="424.4688"/><line style="stroke: #000000; stroke-width: 1.0;" x1="701" x2="802" y1="424.4688" y2="424.4688"/><line style="stroke: #000000; stroke-width: 1.0;" x1="802" x2="903" y1="424.4688" y2="424.4688"/><line style="stroke: #000000; stroke-width: 1.0;" x1="903" x2="1002" y1="424.4688" y2="424.4688"/><line style="stroke: #000000; stroke-width: 1.0;" x1="1002" x2="1118" y1="424.4688" y2="424.4688"/><line style="stroke: #000000; stroke-width: 1.0;" x1="6" x2="49" y1="384.5313" y2="384.5313"/><line style="stroke: #000000; stroke-width: 1.0;" x1="49" x2="275" y1="384.5313" y2="384.5313"/><line style="stroke: #000000; stroke-width: 1.0;" x1="275" x2="385" y1="384.5313" y2="384.5313"/><line style="stroke: #000000; stroke-width: 1.0;" x1="385" x2="486" y1="384.5313" y2="384.5313"/><line style="stroke: #000000; stroke-width: 1.0;" x1="486" x2="585" y1="384.5313" y2="384.5313"/><line style="stroke: #000000; stroke-width: 1.0;" x1="585" x2="701" y1="384.5313" y2="384.5313"/><line style="stroke: #000000; stroke-width: 1.0;" x1="701" x2="802" y1="384.5313" y2="384.5313"/><line style="stroke: #000000; stroke-width: 1.0;" x1="802" x2="903" y1="384.5313" y2="384.5313"/><line style="stroke: #000000; stroke-width: 1.0;" x1="903" x2="1002" y1="384.5313" y2="384.5313"/><line style="stroke: #000000; stroke-width: 1.0;" x1="1002" x2="1118" y1="384.5313" y2="384.5313"/><line style="stroke: #000000; stroke-width: 1.0;" x1="6" x2="49" y1="444.4375" y2="444.4375"/><line style="stroke: #000000; stroke-width: 1.0;" x1="49" x2="275" y1="444.4375" y2="444.4375"/><line style="stroke: #000000; stroke-width: 1.0;" x1="275" x2="385" y1="444.4375" y2="444.4375"/><line style="stroke: #000000; stroke-width: 1.0;" x1="385" x2="486" y1="444.4375" y2="444.4375"/><line style="stroke: #000000; stroke-width: 1.0;" x1="486" x2="585" y1="444.4375" y2="444.4375"/><line style="stroke: #000000; stroke-width: 1.0;" x1="585" x2="701" y1="444.4375" y2="444.4375"/><line style="stroke: #000000; stroke-width: 1.0;" x1="701" x2="802" y1="444.4375" y2="444.4375"/><line style="stroke: #000000; stroke-width: 1.0;" x1="802" x2="903" y1="444.4375" y2="444.4375"/><line style="stroke: #000000; stroke-width: 1.0;" x1="903" x2="1002" y1="444.4375" y2="444.4375"/><line style="stroke: #000000; stroke-width: 1.0;" x1="1002" x2="1118" y1="444.4375" y2="444.4375"/><line style="stroke: #000000; stroke-width: 1.0;" x1="6" x2="6" y1="349.5625" y2="368.5625"/><line style="stroke: #000000; stroke-width: 1.0;" x1="49" x2="49" y1="349.5625" y2="368.5625"/><line style="stroke: #000000; stroke-width: 1.0;" x1="275" x2="275" y1="349.5625" y2="368.5625"/><line style="stroke: #000000; stroke-width: 1.0;" x1="385" x2="385" y1="349.5625" y2="368.5625"/><line style="stroke: #000000; stroke-width: 1.0;" x1="486" x2="486" y1="349.5625" y2="368.5625"/><line style="stroke: #000000; stroke-width: 1.0;" x1="585" x2="585" y1="349.5625" y2="368.5625"/><line style="stroke: #000000; stroke-width: 1.0;" x1="701" x2="701" y1="349.5625" y2="368.5625"/><line style="stroke: #000000; stroke-width: 1.0;" x1="802" x2="802" y1="349.5625" y2="368.5625"/><line style="stroke: #000000; stroke-width: 1.0;" x1="903" x2="903" y1="349.5625" y2="368.5625"/><line style="stroke: #000000; stroke-width: 1.0;" x1="1002" x2="1002" y1="349.5625" y2="368.5625"/><line style="stroke: #000000; stroke-width: 1.0;" x1="1118" x2="1118" y1="349.5625" y2="368.5625"/><line style="stroke: #000000; stroke-width: 1.0;" x1="6" x2="6" y1="404.5" y2="424.4688"/><line style="stroke: #000000; stroke-width: 1.0;" x1="49" x2="49" y1="404.5" y2="424.4688"/><line style="stroke: #000000; stroke-width: 1.0;" x1="275" x2="275" y1="404.5" y2="424.4688"/><line style="stroke: #000000; stroke-width: 1.0;" x1="385" x2="385" y1="404.5" y2="424.4688"/><line style="stroke: #000000; stroke-width: 1.0;" x1="486" x2="486" y1="404.5" y2="424.4688"/><line style="stroke: #000000; stroke-width: 1.0;" x1="585" x2="585" y1="404.5" y2="424.4688"/><line style="stroke: #000000; stroke-width: 1.0;" x1="701" x2="701" y1="404.5" y2="424.4688"/><line style="stroke: #000000; stroke-width: 1.0;" x1="802" x2="802" y1="404.5" y2="424.4688"/><line style="stroke: #000000; stroke-width: 1.0;" x1="903" x2="903" y1="404.5" y2="424.4688"/><line style="stroke: #000000; stroke-width: 1.0;" x1="1002" x2="1002" y1="404.5" y2="424.4688"/><line style="stroke: #000000; stroke-width: 1.0;" x1="1118" x2="1118" y1="404.5" y2="424.4688"/><line style="stroke: #000000; stroke-width: 1.0;" x1="6" x2="6" y1="368.5625" y2="384.5313"/><line style="stroke: #000000; stroke-width: 1.0;" x1="49" x2="49" y1="368.5625" y2="384.5313"/><line style="stroke: #000000; stroke-width: 1.0;" x1="275" x2="275" y1="368.5625" y2="384.5313"/><line style="stroke: #000000; stroke-width: 1.0;" x1="385" x2="385" y1="368.5625" y2="384.5313"/><line style="stroke: #000000; stroke-width: 1.0;" x1="486" x2="486" y1="368.5625" y2="384.5313"/><line style="stroke: #000000; stroke-width: 1.0;" x1="585" x2="585" y1="368.5625" y2="384.5313"/><line style="stroke: #000000; stroke-width: 1.0;" x1="701" x2="701" y1="368.5625" y2="384.5313"/><line style="stroke: #000000; stroke-width: 1.0;" x1="802" x2="802" y1="368.5625" y2="384.5313"/><line style="stroke: #000000; stroke-width: 1.0;" x1="903" x2="903" y1="368.5625" y2="384.5313"/><line style="stroke: #000000; stroke-width: 1.0;" x1="1002" x2="1002" y1="368.5625" y2="384.5313"/><line style="stroke: #000000; stroke-width: 1.0;" x1="1118" x2="1118" y1="368.5625" y2="384.5313"/><line style="stroke: #000000; stroke-width: 1.0;" x1="6" x2="6" y1="424.4688" y2="444.4375"/><line style="stroke: #000000; stroke-width: 1.0;" x1="49" x2="49" y1="424.4688" y2="444.4375"/><line style="stroke: #000000; stroke-width: 1.0;" x1="275" x2="275" y1="424.4688" y2="444.4375"/><line style="stroke: #000000; stroke-width: 1.0;" x1="385" x2="385" y1="424.4688" y2="444.4375"/><line style="stroke: #000000; stroke-width: 1.0;" x1="486" x2="486" y1="424.4688" y2="444.4375"/><line style="stroke: #000000; stroke-width: 1.0;" x1="585" x2="585" y1="424.4688" y2="444.4375"/><line style="stroke: #000000; stroke-width: 1.0;" x1="701" x2="701" y1="424.4688" y2="444.4375"/><line style="stroke: #000000; stroke-width: 1.0;" x1="802" x2="802" y1="424.4688" y2="444.4375"/><line style="stroke: #000000; stroke-width: 1.0;" x1="903" x2="903" y1="424.4688" y2="444.4375"/><line style="stroke: #000000; stroke-width: 1.0;" x1="1002" x2="1002" y1="424.4688" y2="444.4375"/><line style="stroke: #000000; stroke-width: 1.0;" x1="1118" x2="1118" y1="424.4688" y2="444.4375"/><line style="stroke: #000000; stroke-width: 1.0;" x1="6" x2="6" y1="384.5313" y2="404.5"/><line style="stroke: #000000; stroke-width: 1.0;" x1="49" x2="49" y1="384.5313" y2="404.5"/><line style="stroke: #000000; stroke-width: 1.0;" x1="275" x2="275" y1="384.5313" y2="404.5"/><line style="stroke: #000000; stroke-width: 1.0;" x1="385" x2="385" y1="384.5313" y2="404.5"/><line style="stroke: #000000; stroke-width: 1.0;" x1="486" x2="486" y1="384.5313" y2="404.5"/><line style="stroke: #000000; stroke-width: 1.0;" x1="585" x2="585" y1="384.5313" y2="404.5"/><line style="stroke: #000000; stroke-width: 1.0;" x1="701" x2="701" y1="384.5313" y2="404.5"/><line style="stroke: #000000; stroke-width: 1.0;" x1="802" x2="802" y1="384.5313" y2="404.5"/><line style="stroke: #000000; stroke-width: 1.0;" x1="903" x2="903" y1="384.5313" y2="404.5"/><line style="stroke: #000000; stroke-width: 1.0;" x1="1002" x2="1002" y1="384.5313" y2="404.5"/><line style="stroke: #000000; stroke-width: 1.0;" x1="1118" x2="1118" y1="384.5313" y2="404.5"/><line style="stroke: #AAAAAA; stroke-width: 1.0; stroke-dasharray: 1.0,2.0;" x1="6" x2="1119" y1="449.9375" y2="449.9375"/><rect fill="#EEEEEE" height="17.9688" rx="5" ry="5" style="stroke: #000000; stroke-width: 2.5;" width="60" x="9.5" y="457.9375"/><text fill="#000000" font-family="sans-serif" font-size="12" lengthAdjust="spacingAndGlyphs" textLength="48" x="15.5" y="471.0762">Annuler</text><rect fill="#EEEEEE" height="17.9688" rx="5" ry="5" style="stroke: #000000; stroke-width: 2.5;" width="92" x="76.5" y="457.9375"/><text fill="#000000" font-family="sans-serif" font-size="12" lengthAdjust="spacingAndGlyphs" textLength="80" x="82.5" y="471.0762">Sauvegarder</text></g></svg>