<?xml version="1.0" encoding="UTF-8" standalone="no"?><svg xmlns="http://www.w3.org/2000/svg" xmlns:xlink="http://www.w3.org/1999/xlink" contentScriptType="application/ecmascript" contentStyleType="text/css" height="172px" preserveAspectRatio="none" style="width:854px;height:172px;" version="1.1" viewBox="0 0 854 172" width="854px" zoomAndPan="magnify"><defs/><g><rect fill="#EEEEEE" height="12" rx="5" ry="5" style="stroke: #000000; stroke-width: 2.5;" width="36" x="9.5" y="9.5"/><path d="M26.5,12.5 L23.5,15.031 L26.5,17.5 L26.5,15.5 L31.5,15.5 L31.5,14.5 L26.5,14.5 L26.5,12.5 " fill="#000000" style="stroke: ; stroke-width: 0.0; stroke-dasharray: ;"/><text fill="#000000" font-family="sans-serif" font-size="12" font-weight="bold" lengthAdjust="spacingAndGlyphs" textLength="299" x="50" y="18.1387">Lot MNZ- Baudroie - Mesures individuelles</text><rect fill="#EEEEEE" height="12" rx="5" ry="5" style="stroke: #000000; stroke-width: 2.5;" width="20" x="353.5" y="9.5"/><path d="M365.906,12.5 L365.187,13.188 L362.406,15.969 L361.625,15.188 L360.906,14.5 L359.5,15.906 L360.188,16.625 L361.688,18.125 L362.407,18.813 L363.126,18.125 L366.626,14.625 L367.314,13.906 L365.908,12.5 " fill="#000000" style="stroke: ; stroke-width: 0.0; stroke-dasharray: ;"/><line style="stroke: #AAAAAA; stroke-width: 1.0;" x1="6" x2="847" y1="30.5" y2="30.5"/><text fill="#000000" font-family="sans-serif" font-size="12" lengthAdjust="spacingAndGlyphs" textLength="10" x="8" y="48.1387">#</text><text fill="#000000" font-family="sans-serif" font-size="12" font-weight="bold" lengthAdjust="spacingAndGlyphs" textLength="142" x="20" y="48.1387">Espèce commerciale</text><text fill="#000000" font-family="sans-serif" font-size="12" font-weight="bold" lengthAdjust="spacingAndGlyphs" textLength="43" x="164" y="48.1387">Partie</text><text fill="#000000" font-family="sans-serif" font-size="12" font-weight="bold" lengthAdjust="spacingAndGlyphs" textLength="148" x="278" y="48.1387">Longueur totale (cm)</text><text fill="#0000FF" font-family="sans-serif" font-size="12" lengthAdjust="spacingAndGlyphs" textLength="8" x="8" y="64.1074">7</text><text fill="#0000FF" font-family="sans-serif" font-size="12" lengthAdjust="spacingAndGlyphs" textLength="92" x="24" y="64.1074">MNZ- Baudroie</text><text fill="#0000FF" font-family="sans-serif" font-size="12" lengthAdjust="spacingAndGlyphs" textLength="108" x="168" y="64.1074">Partie Retenue ^</text><text fill="#0000FF" font-family="sans-serif" font-size="12" lengthAdjust="spacingAndGlyphs" textLength="16" x="278" y="64.1074">46</text><text fill="#000000" font-family="sans-serif" font-size="12" lengthAdjust="spacingAndGlyphs" textLength="8" x="8" y="80.0762">6</text><text fill="#000000" font-family="sans-serif" font-size="12" lengthAdjust="spacingAndGlyphs" textLength="92" x="20" y="80.0762">MNZ- Baudroie</text><text fill="#000000" font-family="sans-serif" font-size="12" lengthAdjust="spacingAndGlyphs" textLength="108" x="164" y="80.0762">Partie Retenue ^</text><text fill="#000000" font-family="sans-serif" font-size="12" lengthAdjust="spacingAndGlyphs" textLength="16" x="278" y="80.0762">41</text><text fill="#000000" font-family="sans-serif" font-size="12" lengthAdjust="spacingAndGlyphs" textLength="8" x="8" y="96.0449">5</text><text fill="#000000" font-family="sans-serif" font-size="12" lengthAdjust="spacingAndGlyphs" textLength="92" x="20" y="96.0449">MNZ- Baudroie</text><text fill="#000000" font-family="sans-serif" font-size="12" lengthAdjust="spacingAndGlyphs" textLength="108" x="164" y="96.0449">Partie Retenue ^</text><text fill="#000000" font-family="sans-serif" font-size="12" lengthAdjust="spacingAndGlyphs" textLength="16" x="278" y="96.0449">20</text><text fill="#000000" font-family="sans-serif" font-size="12" lengthAdjust="spacingAndGlyphs" textLength="8" x="8" y="112.0137">4</text><text fill="#000000" font-family="sans-serif" font-size="12" lengthAdjust="spacingAndGlyphs" textLength="92" x="20" y="112.0137">MNZ- Baudroie</text><text fill="#000000" font-family="sans-serif" font-size="12" lengthAdjust="spacingAndGlyphs" textLength="108" x="164" y="112.0137">Partie Retenue ^</text><text fill="#000000" font-family="sans-serif" font-size="12" lengthAdjust="spacingAndGlyphs" textLength="16" x="278" y="112.0137">20</text><text fill="#000000" font-family="sans-serif" font-size="12" lengthAdjust="spacingAndGlyphs" textLength="8" x="8" y="127.9824">3</text><text fill="#000000" font-family="sans-serif" font-size="12" lengthAdjust="spacingAndGlyphs" textLength="92" x="20" y="127.9824">MNZ- Baudroie</text><text fill="#000000" font-family="sans-serif" font-size="12" lengthAdjust="spacingAndGlyphs" textLength="108" x="164" y="127.9824">Partie Retenue ^</text><text fill="#000000" font-family="sans-serif" font-size="12" lengthAdjust="spacingAndGlyphs" textLength="16" x="278" y="127.9824">15</text><text fill="#000000" font-family="sans-serif" font-size="12" lengthAdjust="spacingAndGlyphs" textLength="8" x="8" y="143.9512">2</text><text fill="#000000" font-family="sans-serif" font-size="12" lengthAdjust="spacingAndGlyphs" textLength="92" x="20" y="143.9512">MNZ- Baudroie</text><text fill="#000000" font-family="sans-serif" font-size="12" lengthAdjust="spacingAndGlyphs" textLength="108" x="164" y="143.9512">Partie Retenue ^</text><text fill="#000000" font-family="sans-serif" font-size="12" lengthAdjust="spacingAndGlyphs" textLength="16" x="278" y="143.9512">11</text><text fill="#000000" font-family="sans-serif" font-size="12" lengthAdjust="spacingAndGlyphs" textLength="8" x="8" y="159.9199">1</text><text fill="#000000" font-family="sans-serif" font-size="12" lengthAdjust="spacingAndGlyphs" textLength="92" x="20" y="159.9199">MNZ- Baudroie</text><text fill="#000000" font-family="sans-serif" font-size="12" lengthAdjust="spacingAndGlyphs" textLength="108" x="164" y="159.9199">Partie Retenue ^</text><text fill="#000000" font-family="sans-serif" font-size="12" lengthAdjust="spacingAndGlyphs" textLength="16" x="278" y="159.9199">10</text><line style="stroke: #000000; stroke-width: 1.0;" x1="7" x2="19" y1="36" y2="36"/><line style="stroke: #000000; stroke-width: 1.0;" x1="19" x2="163" y1="36" y2="36"/><line style="stroke: #000000; stroke-width: 1.0;" x1="163" x2="277" y1="36" y2="36"/><line style="stroke: #000000; stroke-width: 1.0;" x1="277" x2="427" y1="36" y2="36"/><line style="stroke: #000000; stroke-width: 1.0;" x1="7" x2="19" y1="147.7813" y2="147.7813"/><line style="stroke: #000000; stroke-width: 1.0;" x1="19" x2="163" y1="147.7813" y2="147.7813"/><line style="stroke: #000000; stroke-width: 1.0;" x1="163" x2="277" y1="147.7813" y2="147.7813"/><line style="stroke: #000000; stroke-width: 1.0;" x1="277" x2="427" y1="147.7813" y2="147.7813"/><line style="stroke: #000000; stroke-width: 1.0;" x1="7" x2="19" y1="83.9063" y2="83.9063"/><line style="stroke: #000000; stroke-width: 1.0;" x1="19" x2="163" y1="83.9063" y2="83.9063"/><line style="stroke: #000000; stroke-width: 1.0;" x1="163" x2="277" y1="83.9063" y2="83.9063"/><line style="stroke: #000000; stroke-width: 1.0;" x1="277" x2="427" y1="83.9063" y2="83.9063"/><line style="stroke: #000000; stroke-width: 1.0;" x1="7" x2="19" y1="131.8125" y2="131.8125"/><line style="stroke: #000000; stroke-width: 1.0;" x1="19" x2="163" y1="131.8125" y2="131.8125"/><line style="stroke: #000000; stroke-width: 1.0;" x1="163" x2="277" y1="131.8125" y2="131.8125"/><line style="stroke: #000000; stroke-width: 1.0;" x1="277" x2="427" y1="131.8125" y2="131.8125"/><line style="stroke: #000000; stroke-width: 1.0;" x1="7" x2="19" y1="67.9375" y2="67.9375"/><line style="stroke: #000000; stroke-width: 1.0;" x1="19" x2="163" y1="67.9375" y2="67.9375"/><line style="stroke: #000000; stroke-width: 1.0;" x1="163" x2="277" y1="67.9375" y2="67.9375"/><line style="stroke: #000000; stroke-width: 1.0;" x1="277" x2="427" y1="67.9375" y2="67.9375"/><line style="stroke: #000000; stroke-width: 1.0;" x1="7" x2="19" y1="115.8438" y2="115.8438"/><line style="stroke: #000000; stroke-width: 1.0;" x1="19" x2="163" y1="115.8438" y2="115.8438"/><line style="stroke: #000000; stroke-width: 1.0;" x1="163" x2="277" y1="115.8438" y2="115.8438"/><line style="stroke: #000000; stroke-width: 1.0;" x1="277" x2="427" y1="115.8438" y2="115.8438"/><line style="stroke: #000000; stroke-width: 1.0;" x1="7" x2="19" y1="51.9688" y2="51.9688"/><line style="stroke: #000000; stroke-width: 1.0;" x1="19" x2="163" y1="51.9688" y2="51.9688"/><line style="stroke: #000000; stroke-width: 1.0;" x1="163" x2="277" y1="51.9688" y2="51.9688"/><line style="stroke: #000000; stroke-width: 1.0;" x1="277" x2="427" y1="51.9688" y2="51.9688"/><line style="stroke: #000000; stroke-width: 1.0;" x1="7" x2="19" y1="163.75" y2="163.75"/><line style="stroke: #000000; stroke-width: 1.0;" x1="19" x2="163" y1="163.75" y2="163.75"/><line style="stroke: #000000; stroke-width: 1.0;" x1="163" x2="277" y1="163.75" y2="163.75"/><line style="stroke: #000000; stroke-width: 1.0;" x1="277" x2="427" y1="163.75" y2="163.75"/><line style="stroke: #000000; stroke-width: 1.0;" x1="7" x2="19" y1="99.875" y2="99.875"/><line style="stroke: #000000; stroke-width: 1.0;" x1="19" x2="163" y1="99.875" y2="99.875"/><line style="stroke: #000000; stroke-width: 1.0;" x1="163" x2="277" y1="99.875" y2="99.875"/><line style="stroke: #000000; stroke-width: 1.0;" x1="277" x2="427" y1="99.875" y2="99.875"/><line style="stroke: #000000; stroke-width: 1.0;" x1="7" x2="7" y1="36" y2="51.9688"/><line style="stroke: #000000; stroke-width: 1.0;" x1="427" x2="427" y1="99.875" y2="115.8438"/><line style="stroke: #000000; stroke-width: 1.0;" x1="19" x2="19" y1="36" y2="51.9688"/><line style="stroke: #000000; stroke-width: 1.0;" x1="163" x2="163" y1="36" y2="51.9688"/><line style="stroke: #000000; stroke-width: 1.0;" x1="277" x2="277" y1="36" y2="51.9688"/><line style="stroke: #000000; stroke-width: 1.0;" x1="427" x2="427" y1="36" y2="51.9688"/><line style="stroke: #000000; stroke-width: 1.0;" x1="7" x2="7" y1="147.7813" y2="163.75"/><line style="stroke: #000000; stroke-width: 1.0;" x1="19" x2="19" y1="147.7813" y2="163.75"/><line style="stroke: #000000; stroke-width: 1.0;" x1="163" x2="163" y1="147.7813" y2="163.75"/><line style="stroke: #000000; stroke-width: 1.0;" x1="277" x2="277" y1="147.7813" y2="163.75"/><line style="stroke: #000000; stroke-width: 1.0;" x1="7" x2="7" y1="83.9063" y2="99.875"/><line style="stroke: #000000; stroke-width: 1.0;" x1="427" x2="427" y1="147.7813" y2="163.75"/><line style="stroke: #000000; stroke-width: 1.0;" x1="19" x2="19" y1="83.9063" y2="99.875"/><line style="stroke: #000000; stroke-width: 1.0;" x1="163" x2="163" y1="83.9063" y2="99.875"/><line style="stroke: #000000; stroke-width: 1.0;" x1="277" x2="277" y1="83.9063" y2="99.875"/><line style="stroke: #000000; stroke-width: 1.0;" x1="427" x2="427" y1="83.9063" y2="99.875"/><line style="stroke: #000000; stroke-width: 1.0;" x1="7" x2="7" y1="131.8125" y2="147.7813"/><line style="stroke: #000000; stroke-width: 1.0;" x1="19" x2="19" y1="131.8125" y2="147.7813"/><line style="stroke: #000000; stroke-width: 1.0;" x1="163" x2="163" y1="131.8125" y2="147.7813"/><line style="stroke: #000000; stroke-width: 1.0;" x1="277" x2="277" y1="131.8125" y2="147.7813"/><line style="stroke: #000000; stroke-width: 1.0;" x1="7" x2="7" y1="67.9375" y2="83.9063"/><line style="stroke: #000000; stroke-width: 1.0;" x1="427" x2="427" y1="131.8125" y2="147.7813"/><line style="stroke: #000000; stroke-width: 1.0;" x1="19" x2="19" y1="67.9375" y2="83.9063"/><line style="stroke: #000000; stroke-width: 1.0;" x1="163" x2="163" y1="67.9375" y2="83.9063"/><line style="stroke: #000000; stroke-width: 1.0;" x1="277" x2="277" y1="67.9375" y2="83.9063"/><line style="stroke: #000000; stroke-width: 1.0;" x1="427" x2="427" y1="67.9375" y2="83.9063"/><line style="stroke: #000000; stroke-width: 1.0;" x1="7" x2="7" y1="115.8438" y2="131.8125"/><line style="stroke: #000000; stroke-width: 1.0;" x1="19" x2="19" y1="115.8438" y2="131.8125"/><line style="stroke: #000000; stroke-width: 1.0;" x1="163" x2="163" y1="115.8438" y2="131.8125"/><line style="stroke: #000000; stroke-width: 1.0;" x1="277" x2="277" y1="115.8438" y2="131.8125"/><line style="stroke: #000000; stroke-width: 1.0;" x1="7" x2="7" y1="51.9688" y2="67.9375"/><line style="stroke: #000000; stroke-width: 1.0;" x1="427" x2="427" y1="115.8438" y2="131.8125"/><line style="stroke: #000000; stroke-width: 1.0;" x1="19" x2="19" y1="51.9688" y2="67.9375"/><line style="stroke: #000000; stroke-width: 1.0;" x1="163" x2="163" y1="51.9688" y2="67.9375"/><line style="stroke: #000000; stroke-width: 1.0;" x1="277" x2="277" y1="51.9688" y2="67.9375"/><line style="stroke: #000000; stroke-width: 1.0;" x1="427" x2="427" y1="51.9688" y2="67.9375"/><line style="stroke: #000000; stroke-width: 1.0;" x1="7" x2="7" y1="99.875" y2="115.8438"/><line style="stroke: #000000; stroke-width: 1.0;" x1="19" x2="19" y1="99.875" y2="115.8438"/><line style="stroke: #000000; stroke-width: 1.0;" x1="163" x2="163" y1="99.875" y2="115.8438"/><line style="stroke: #000000; stroke-width: 1.0;" x1="277" x2="277" y1="99.875" y2="115.8438"/><text fill="#000000" font-family="sans-serif" font-size="12" lengthAdjust="spacingAndGlyphs" textLength="77" x="431" y="49.1387">Lot espèce :</text><rect fill="#EEEEEE" height="16.9688" style="stroke: #000000; stroke-width: 1.0;" width="215" x="565" y="38"/><text fill="#000000" font-family="sans-serif" font-size="12" lengthAdjust="spacingAndGlyphs" textLength="148" x="567" y="51.1387">MNZ- Baudroie - cat. 10</text><line style="stroke: #000000; stroke-width: 1.0;" x1="769" x2="769" y1="38" y2="54.9688"/><polygon fill="#000000" points="772,44,778,44,775,49.9688" style="stroke: #000000; stroke-width: 1.0;"/><text fill="#000000" font-family="sans-serif" font-size="12" lengthAdjust="spacingAndGlyphs" textLength="45" x="431" y="69.1074">Partie :</text><rect fill="#EEEEEE" height="17.9688" rx="5" ry="5" style="stroke: #000000; stroke-width: 2.5;" width="140" x="568.5" y="61.4688"/><text fill="#000000" font-family="sans-serif" font-size="12" font-weight="bold" lengthAdjust="spacingAndGlyphs" textLength="104" x="586.5" y="74.6074">Partie retenue</text><rect fill="#EEEEEE" height="17.9688" rx="5" ry="5" style="stroke: #000000; stroke-width: 2.5;" width="124" x="715.5" y="61.4688"/><text fill="#000000" font-family="sans-serif" font-size="12" lengthAdjust="spacingAndGlyphs" textLength="94" x="730.5" y="74.6074">Partie Rejettée</text><text fill="#000000" font-family="sans-serif" font-size="12" lengthAdjust="spacingAndGlyphs" textLength="132" x="431" y="96.0762">Longueur totale (cm)</text><text fill="#000000" font-family="sans-serif" font-size="12" lengthAdjust="spacingAndGlyphs" textLength="0" x="572" y="96.0762"/><line style="stroke: #000000; stroke-width: 1.0;" x1="566" x2="769" y1="98.9063" y2="98.9063"/><line style="stroke: #000000; stroke-width: 1.0;" x1="566" x2="566" y1="95.9063" y2="97.9063"/><line style="stroke: #000000; stroke-width: 1.0;" x1="769" x2="769" y1="95.9063" y2="97.9063"/><line style="stroke: #AAAAAA; stroke-width: 1.0;" x1="430" x2="845" y1="107.4063" y2="107.4063"/><rect fill="#EEEEEE" height="17.9688" rx="5" ry="5" style="stroke: #000000; stroke-width: 2.5;" width="156" x="433.5" y="115.4063"/><text fill="#0000FF" font-family="sans-serif" font-size="12" lengthAdjust="spacingAndGlyphs" textLength="45" x="489" y="128.5449">Ajouter</text><line style="stroke: #000000; stroke-width: 1.0;" x1="5" x2="847" y1="5" y2="5"/><line style="stroke: #000000; stroke-width: 1.0;" x1="5" x2="847" y1="165.75" y2="165.75"/><line style="stroke: #000000; stroke-width: 1.0;" x1="5" x2="5" y1="5" y2="26"/><line style="stroke: #000000; stroke-width: 1.0;" x1="847" x2="847" y1="26" y2="34"/><line style="stroke: #000000; stroke-width: 1.0;" x1="847" x2="847" y1="5" y2="26"/><line style="stroke: #000000; stroke-width: 1.0;" x1="5" x2="5" y1="34" y2="165.75"/><line style="stroke: #000000; stroke-width: 1.0;" x1="5" x2="5" y1="26" y2="34"/><line style="stroke: #000000; stroke-width: 1.0;" x1="847" x2="847" y1="34" y2="165.75"/></g></svg>