<?xml version="1.0" encoding="UTF-8" standalone="no"?><svg xmlns="http://www.w3.org/2000/svg" xmlns:xlink="http://www.w3.org/1999/xlink" contentScriptType="application/ecmascript" contentStyleType="text/css" height="105px" preserveAspectRatio="none" style="width:256px;height:105px;" version="1.1" viewBox="0 0 256 105" width="256px" zoomAndPan="magnify"><defs><filter height="300%" id="fedpcmgpjkjw2" width="300%" x="-1" y="-1"><feGaussianBlur result="blurOut" stdDeviation="2.0"/><feColorMatrix in="blurOut" result="blurOut2" type="matrix" values="0 0 0 0 0 0 0 0 0 0 0 0 0 0 0 0 0 0 .4 0"/><feOffset dx="4.0" dy="4.0" in="blurOut2" result="blurOut3"/><feBlend in="SourceGraphic" in2="blurOut3" mode="normal"/></filter></defs><g><!--class Status--><rect fill="#FEFECE" filter="url(#fedpcmgpjkjw2)" height="86.4141" id="Status" style="stroke: #A80036; stroke-width: 1.5;" width="96" x="6" y="8"/><ellipse cx="31.35" cy="24" fill="#ADD1B2" rx="11" ry="11" style="stroke: #A80036; stroke-width: 1.0;"/><path d="M34.3188,29.6406 Q33.7406,29.9375 33.1,30.0859 Q32.4594,30.2344 31.7563,30.2344 Q29.2563,30.2344 27.9359,28.5859 Q26.6156,26.9375 26.6156,23.8125 Q26.6156,20.6875 27.9359,19.0313 Q29.2563,17.375 31.7563,17.375 Q32.4594,17.375 33.1078,17.5313 Q33.7563,17.6875 34.3188,17.9844 L34.3188,20.7031 Q33.6938,20.125 33.1,19.8516 Q32.5063,19.5781 31.8813,19.5781 Q30.5375,19.5781 29.85,20.6484 Q29.1625,21.7188 29.1625,23.8125 Q29.1625,25.9063 29.85,26.9766 Q30.5375,28.0469 31.8813,28.0469 Q32.5063,28.0469 33.1,27.7734 Q33.6938,27.5 34.3188,26.9219 L34.3188,29.6406 Z "/><text fill="#000000" font-family="sans-serif" font-size="12" lengthAdjust="spacingAndGlyphs" textLength="41" x="47.65" y="28.1543">Status</text><line style="stroke: #A80036; stroke-width: 1.5;" x1="7" x2="101" y1="40" y2="40"/><ellipse cx="17" cy="51.9023" fill="none" rx="3" ry="3" style="stroke: #038048; stroke-width: 1.0;"/><text fill="#000000" font-family="sans-serif" font-size="11" lengthAdjust="spacingAndGlyphs" textLength="28" x="26" y="54.2104">int id</text><ellipse cx="17" cy="64.707" fill="none" rx="3" ry="3" style="stroke: #038048; stroke-width: 1.0;"/><text fill="#000000" font-family="sans-serif" font-size="11" lengthAdjust="spacingAndGlyphs" textLength="65" x="26" y="67.0151">String label</text><ellipse cx="17" cy="77.5117" fill="none" rx="3" ry="3" style="stroke: #038048; stroke-width: 1.0;"/><text fill="#000000" font-family="sans-serif" font-size="11" lengthAdjust="spacingAndGlyphs" textLength="70" x="26" y="79.8198">String name</text><line style="stroke: #A80036; stroke-width: 1.5;" x1="7" x2="101" y1="86.4141" y2="86.4141"/><!--class StatusEnum--><rect fill="#FEFECE" filter="url(#fedpcmgpjkjw2)" height="86.4141" id="StatusEnum" style="stroke: #A80036; stroke-width: 1.5;" width="108" x="137" y="8"/><ellipse cx="152" cy="24" fill="#EB937F" rx="11" ry="11" style="stroke: #A80036; stroke-width: 1.0;"/><path d="M156.1094,30 L148.3906,30 L148.3906,17.6094 L156.1094,17.6094 L156.1094,19.7656 L150.8438,19.7656 L150.8438,22.4375 L155.6094,22.4375 L155.6094,24.5938 L150.8438,24.5938 L150.8438,27.8438 L156.1094,27.8438 L156.1094,30 Z "/><text fill="#000000" font-family="sans-serif" font-size="12" lengthAdjust="spacingAndGlyphs" textLength="76" x="166" y="28.1543">StatusEnum</text><line style="stroke: #A80036; stroke-width: 1.5;" x1="138" x2="244" y1="40" y2="40"/><text fill="#000000" font-family="sans-serif" font-size="11" lengthAdjust="spacingAndGlyphs" textLength="62" x="143" y="54.2104">DISABLE: 0</text><text fill="#000000" font-family="sans-serif" font-size="11" lengthAdjust="spacingAndGlyphs" textLength="58" x="143" y="67.0151">ENABLE: 1</text><text fill="#000000" font-family="sans-serif" font-size="11" lengthAdjust="spacingAndGlyphs" textLength="82" x="143" y="79.8198">TEMPORARY: 2</text><line style="stroke: #A80036; stroke-width: 1.5;" x1="138" x2="244" y1="86.4141" y2="86.4141"/><!--
@startuml class
class Status {
    +int id
    +String label
    +String name
}

enum StatusEnum {
    DISABLE: 0
    ENABLE: 1
    TEMPORARY: 2
}
@enduml

PlantUML version 1.2019.06(Fri May 24 19:10:25 CEST 2019)
(GPL source distribution)
Java Runtime: Java(TM) SE Runtime Environment
JVM: Java HotSpot(TM) 64-Bit Server VM
Java Version: 1.8.0_201-b09
Operating System: Linux
OS Version: 4.4.0-150-generic
Default Encoding: UTF-8
Language: fr
Country: FR
--></g></svg>