<?xml version="1.0" encoding="UTF-8" standalone="no"?><svg xmlns="http://www.w3.org/2000/svg" xmlns:xlink="http://www.w3.org/1999/xlink" contentScriptType="application/ecmascript" contentStyleType="text/css" height="105px" preserveAspectRatio="none" style="width:240px;height:105px;" version="1.1" viewBox="0 0 240 105" width="240px" zoomAndPan="magnify"><defs><filter height="300%" id="fedpcmgpjkjw2" width="300%" x="-1" y="-1"><feGaussianBlur result="blurOut" stdDeviation="2.0"/><feColorMatrix in="blurOut" result="blurOut2" type="matrix" values="0 0 0 0 0 0 0 0 0 0 0 0 0 0 0 0 0 0 .4 0"/><feOffset dx="4.0" dy="4.0" in="blurOut2" result="blurOut3"/><feBlend in="SourceGraphic" in2="blurOut3" mode="normal"/></filter></defs><g><!--class Status--><rect fill="#FEFECE" filter="url(#fedpcmgpjkjw2)" height="86.3979" id="Status" style="stroke: #A80036; stroke-width: 1.5;" width="90" x="6" y="8"/><ellipse cx="31.8" cy="24" fill="#ADD1B2" rx="11" ry="11" style="stroke: #A80036; stroke-width: 1.0;"/><path d="M35.6281,29.6563 Q33.7531,30.3125 31.9406,30.3125 Q29.3469,30.3125 27.7609,28.5313 Q26.175,26.75 26.175,23.8438 Q26.175,21.1563 27.5813,19.3906 Q28.4406,18.3125 29.5578,17.8594 Q30.675,17.4063 32.4563,17.4063 Q34.175,17.4063 35.6281,17.7656 L35.6281,19.75 Q33.7531,19.0469 32.5031,19.0469 Q30.8156,19.0469 29.8234,20.3672 Q28.8313,21.6875 28.8313,23.9219 Q28.8313,25.9688 29.8703,27.2656 Q30.9094,28.5625 32.55,28.5625 Q33.9406,28.5625 35.6281,27.7813 L35.6281,29.6563 Z "/><text fill="#000000" font-family="sans-serif" font-size="12" lengthAdjust="spacingAndGlyphs" textLength="34" x="48.2" y="28.4209">Status</text><line style="stroke: #A80036; stroke-width: 1.5;" x1="7" x2="95" y1="40" y2="40"/><ellipse cx="17" cy="51.8997" fill="none" rx="3" ry="3" style="stroke: #038048; stroke-width: 1.0;"/><text fill="#000000" font-family="sans-serif" font-size="11" lengthAdjust="spacingAndGlyphs" textLength="27" x="26" y="54.4521">int id</text><ellipse cx="17" cy="64.699" fill="none" rx="3" ry="3" style="stroke: #038048; stroke-width: 1.0;"/><text fill="#000000" font-family="sans-serif" font-size="11" lengthAdjust="spacingAndGlyphs" textLength="60" x="26" y="67.2515">String label</text><ellipse cx="17" cy="77.4983" fill="none" rx="3" ry="3" style="stroke: #038048; stroke-width: 1.0;"/><text fill="#000000" font-family="sans-serif" font-size="11" lengthAdjust="spacingAndGlyphs" textLength="64" x="26" y="80.0508">String name</text><line style="stroke: #A80036; stroke-width: 1.5;" x1="7" x2="95" y1="86.3979" y2="86.3979"/><!--class StatusEnum--><rect fill="#FEFECE" filter="url(#fedpcmgpjkjw2)" height="86.3979" id="StatusEnum" style="stroke: #A80036; stroke-width: 1.5;" width="98" x="131" y="8"/><ellipse cx="146" cy="24" fill="#EB937F" rx="11" ry="11" style="stroke: #A80036; stroke-width: 1.0;"/><path d="M142.3906,30 L142.3906,17.7188 L150.0781,17.7188 L150.0781,19.3438 L144.8594,19.3438 L144.8594,22.8281 L149.2656,22.8281 L149.2656,24.3594 L144.8594,24.3594 L144.8594,28.3594 L150.5156,28.3594 L150.5156,30 L142.3906,30 Z "/><text fill="#000000" font-family="sans-serif" font-size="12" lengthAdjust="spacingAndGlyphs" textLength="66" x="160" y="28.4209">StatusEnum</text><line style="stroke: #A80036; stroke-width: 1.5;" x1="132" x2="228" y1="40" y2="40"/><text fill="#000000" font-family="sans-serif" font-size="11" lengthAdjust="spacingAndGlyphs" textLength="56" x="137" y="54.4521">DISABLE: 0</text><text fill="#000000" font-family="sans-serif" font-size="11" lengthAdjust="spacingAndGlyphs" textLength="53" x="137" y="67.2515">ENABLE: 1</text><text fill="#000000" font-family="sans-serif" font-size="11" lengthAdjust="spacingAndGlyphs" textLength="79" x="137" y="80.0508">TEMPORARY: 2</text><line style="stroke: #A80036; stroke-width: 1.5;" x1="132" x2="228" y1="86.3979" y2="86.3979"/><!--
@startuml class
class Status {
    +int id
    +String label
    +String name
}

enum StatusEnum {
    DISABLE: 0
    ENABLE: 1
    TEMPORARY: 2
}
@enduml

PlantUML version 1.2018.05(Sat May 05 20:00:17 GMT 2018)
(GPL source distribution)
Java Runtime: Java(TM) SE Runtime Environment
JVM: Java HotSpot(TM) 64-Bit Server VM
Java Version: 1.8.0_161-b12
Operating System: Linux
OS Version: 4.4.0-150-generic
Default Encoding: ANSI_X3.4-1968
Language: en
Country: US
--></g></svg>