<?xml version="1.0" encoding="UTF-8" standalone="no"?><svg xmlns="http://www.w3.org/2000/svg" xmlns:xlink="http://www.w3.org/1999/xlink" contentScriptType="application/ecmascript" contentStyleType="text/css" height="105px" preserveAspectRatio="none" style="width:251px;height:105px;" version="1.1" viewBox="0 0 251 105" width="251px" zoomAndPan="magnify"><defs><filter height="300%" id="f1p2xu22owsli7" width="300%" x="-1" y="-1"><feGaussianBlur result="blurOut" stdDeviation="2.0"/><feColorMatrix in="blurOut" result="blurOut2" type="matrix" values="0 0 0 0 0 0 0 0 0 0 0 0 0 0 0 0 0 0 .4 0"/><feOffset dx="4.0" dy="4.0" in="blurOut2" result="blurOut3"/><feBlend in="SourceGraphic" in2="blurOut3" mode="normal"/></filter></defs><g><!--class Location--><rect fill="#FEFECE" filter="url(#f1p2xu22owsli7)" height="86.4141" id="Location" style="stroke: #A80036; stroke-width: 1.5;" width="96" x="6" y="8"/><ellipse cx="25.95" cy="24" fill="#ADD1B2" rx="11" ry="11" style="stroke: #A80036; stroke-width: 1.0;"/><path d="M28.9188,29.6406 Q28.3406,29.9375 27.7,30.0859 Q27.0594,30.2344 26.3563,30.2344 Q23.8563,30.2344 22.5359,28.5859 Q21.2156,26.9375 21.2156,23.8125 Q21.2156,20.6875 22.5359,19.0313 Q23.8563,17.375 26.3563,17.375 Q27.0594,17.375 27.7078,17.5313 Q28.3563,17.6875 28.9188,17.9844 L28.9188,20.7031 Q28.2938,20.125 27.7,19.8516 Q27.1063,19.5781 26.4813,19.5781 Q25.1375,19.5781 24.45,20.6484 Q23.7625,21.7188 23.7625,23.8125 Q23.7625,25.9063 24.45,26.9766 Q25.1375,28.0469 26.4813,28.0469 Q27.1063,28.0469 27.7,27.7734 Q28.2938,27.5 28.9188,26.9219 L28.9188,29.6406 Z "/><text fill="#000000" font-family="sans-serif" font-size="12" lengthAdjust="spacingAndGlyphs" textLength="53" x="41.05" y="28.1543">Location</text><line style="stroke: #A80036; stroke-width: 1.5;" x1="7" x2="101" y1="40" y2="40"/><ellipse cx="17" cy="51.9023" fill="none" rx="3" ry="3" style="stroke: #038048; stroke-width: 1.0;"/><text fill="#000000" font-family="sans-serif" font-size="11" lengthAdjust="spacingAndGlyphs" textLength="28" x="26" y="54.2104">int id</text><ellipse cx="17" cy="64.707" fill="none" rx="3" ry="3" style="stroke: #038048; stroke-width: 1.0;"/><text fill="#000000" font-family="sans-serif" font-size="11" lengthAdjust="spacingAndGlyphs" textLength="65" x="26" y="67.0151">String label</text><ellipse cx="17" cy="77.5117" fill="none" rx="3" ry="3" style="stroke: #038048; stroke-width: 1.0;"/><text fill="#000000" font-family="sans-serif" font-size="11" lengthAdjust="spacingAndGlyphs" textLength="70" x="26" y="79.8198">String name</text><line style="stroke: #A80036; stroke-width: 1.5;" x1="7" x2="101" y1="86.4141" y2="86.4141"/><!--class LocationIds--><rect fill="#FEFECE" filter="url(#f1p2xu22owsli7)" height="60.8047" id="LocationIds" style="stroke: #A80036; stroke-width: 1.5;" width="103" x="137.5" y="20.5"/><ellipse cx="152.5" cy="36.5" fill="#EB937F" rx="11" ry="11" style="stroke: #A80036; stroke-width: 1.0;"/><path d="M156.6094,42.5 L148.8906,42.5 L148.8906,30.1094 L156.6094,30.1094 L156.6094,32.2656 L151.3438,32.2656 L151.3438,34.9375 L156.1094,34.9375 L156.1094,37.0938 L151.3438,37.0938 L151.3438,40.3438 L156.6094,40.3438 L156.6094,42.5 Z "/><text fill="#000000" font-family="sans-serif" font-size="12" lengthAdjust="spacingAndGlyphs" textLength="71" x="166.5" y="40.6543">LocationIds</text><line style="stroke: #A80036; stroke-width: 1.5;" x1="138.5" x2="239.5" y1="52.5" y2="52.5"/><text fill="#000000" font-family="sans-serif" font-size="11" lengthAdjust="spacingAndGlyphs" textLength="69" x="143.5" y="66.7104">HARBOUR: 6</text><line style="stroke: #A80036; stroke-width: 1.5;" x1="138.5" x2="239.5" y1="73.3047" y2="73.3047"/><!--
@startuml class
class Location {
    +int id
    +String label
    +String name
}

enum LocationIds{
    HARBOUR: 6
}
@enduml

PlantUML version 1.2019.06(Fri May 24 19:10:25 CEST 2019)
(GPL source distribution)
Java Runtime: Java(TM) SE Runtime Environment
JVM: Java HotSpot(TM) 64-Bit Server VM
Java Version: 1.8.0_201-b09
Operating System: Linux
OS Version: 4.4.0-150-generic
Default Encoding: UTF-8
Language: fr
Country: FR
--></g></svg>