<?xml version="1.0" encoding="UTF-8" standalone="no"?><svg xmlns="http://www.w3.org/2000/svg" xmlns:xlink="http://www.w3.org/1999/xlink" contentScriptType="application/ecmascript" contentStyleType="text/css" height="299px" preserveAspectRatio="none" style="width:496px;height:299px;" version="1.1" viewBox="0 0 496 299" width="496px" zoomAndPan="magnify"><defs/><g><text fill="#000000" font-family="sans-serif" font-size="12" font-weight="bold" lengthAdjust="spacingAndGlyphs" textLength="135" x="6" y="18.457">Nouveau débarquement</text><line style="stroke: #AAAAAA; stroke-width: 1.0; stroke-dasharray: 1.0,2.0;" x1="6" x2="188" y1="26.5938" y2="26.5938"/><text fill="#000000" font-family="sans-serif" font-size="12" font-weight="bold" lengthAdjust="spacingAndGlyphs" textLength="44" x="8" y="43.5508">General</text><line style="stroke: #000000; stroke-width: 1.0;" x1="6" x2="6" y1="31.0938" y2="46.1875"/><line style="stroke: #000000; stroke-width: 1.0;" x1="6" x2="55" y1="31.0938" y2="31.0938"/><line style="stroke: #000000; stroke-width: 1.0;" x1="55" x2="55" y1="31.0938" y2="46.1875"/><line style="stroke: #000000; stroke-width: 1.0;" x1="55" x2="65" y1="46.1875" y2="46.1875"/><text fill="#000000" font-family="sans-serif" font-size="12" lengthAdjust="spacingAndGlyphs" textLength="107" x="67" y="43.5508">Capture débarquée</text><line style="stroke: #000000; stroke-width: 1.0;" x1="65" x2="65" y1="31.0938" y2="46.1875"/><line style="stroke: #000000; stroke-width: 1.0;" x1="65" x2="177" y1="31.0938" y2="31.0938"/><line style="stroke: #000000; stroke-width: 1.0;" x1="177" x2="177" y1="31.0938" y2="46.1875"/><line style="stroke: #000000; stroke-width: 1.0;" x1="177" x2="187" y1="46.1875" y2="46.1875"/><text fill="#000000" font-family="sans-serif" font-size="12" lengthAdjust="spacingAndGlyphs" textLength="131" x="6" y="77.7383">Programme de collecte:</text><rect fill="#EEEEEE" height="18.0938" style="stroke: #000000; stroke-width: 1.0;" width="95" x="190" y="66.2813"/><text fill="#000000" font-family="sans-serif" font-size="12" lengthAdjust="spacingAndGlyphs" textLength="74" x="192" y="80.7383">SIH-OBSDEB</text><line style="stroke: #000000; stroke-width: 1.0;" x1="274" x2="274" y1="66.2813" y2="84.375"/><polygon fill="#000000" points="277,72.2813,283,72.2813,280,79.375" style="stroke: #000000; stroke-width: 1.0;"/><text fill="#000000" font-family="sans-serif" font-size="12" lengthAdjust="spacingAndGlyphs" textLength="38" x="6" y="100.832">Navire:</text><rect fill="#EEEEEE" height="18.0938" style="stroke: #000000; stroke-width: 1.0;" width="95" x="190" y="89.375"/><text fill="#000000" font-family="sans-serif" font-size="12" lengthAdjust="spacingAndGlyphs" textLength="72" x="192" y="103.832">FRA0001114</text><line style="stroke: #000000; stroke-width: 1.0;" x1="274" x2="274" y1="89.375" y2="107.4688"/><polygon fill="#000000" points="277,95.375,283,95.375,280,102.4688" style="stroke: #000000; stroke-width: 1.0;"/><path d="M292,89.375 L292,92.375 L289,92.375 L289,94.375 L292,94.375 L292,97.375 L294,97.375 L294,94.375 L297,94.375 L297,92.375 L294,92.375 L294,89.375 L292,89.375 " fill="#000000" style="stroke: ; stroke-width: 0.0; stroke-dasharray: ;"/><text fill="#000000" font-family="sans-serif" font-size="12" lengthAdjust="spacingAndGlyphs" textLength="128" x="6" y="123.9258">Lieu de débarquement:</text><rect fill="#EEEEEE" height="18.0938" style="stroke: #000000; stroke-width: 1.0;" width="143" x="190" y="112.4688"/><text fill="#000000" font-family="sans-serif" font-size="12" lengthAdjust="spacingAndGlyphs" textLength="93" x="192" y="126.9258">MA - Mahé Island</text><line style="stroke: #000000; stroke-width: 1.0;" x1="322" x2="322" y1="112.4688" y2="130.5625"/><polygon fill="#000000" points="325,118.4688,331,118.4688,328,125.5625" style="stroke: #000000; stroke-width: 1.0;"/><text fill="#000000" font-family="sans-serif" font-size="12" lengthAdjust="spacingAndGlyphs" textLength="150" x="6" y="147.0195">Date/Heure débarquement:</text><rect fill="#EEEEEE" height="18.0938" style="stroke: #000000; stroke-width: 1.0;" width="95" x="190" y="135.5625"/><text fill="#000000" font-family="sans-serif" font-size="12" lengthAdjust="spacingAndGlyphs" textLength="62" x="192" y="150.0195">01/02/2019</text><line style="stroke: #000000; stroke-width: 1.0;" x1="274" x2="274" y1="135.5625" y2="153.6563"/><polygon fill="#000000" points="277,141.5625,283,141.5625,280,148.6563" style="stroke: #000000; stroke-width: 1.0;"/><rect fill="#EEEEEE" height="18.0938" style="stroke: #000000; stroke-width: 1.0;" width="55" x="288" y="135.5625"/><text fill="#000000" font-family="sans-serif" font-size="12" lengthAdjust="spacingAndGlyphs" textLength="31" x="290" y="150.0195">09:55</text><line style="stroke: #000000; stroke-width: 1.0;" x1="332" x2="332" y1="135.5625" y2="153.6563"/><polygon fill="#000000" points="335,141.5625,341,141.5625,338,148.6563" style="stroke: #000000; stroke-width: 1.0;"/><text fill="#000000" font-family="sans-serif" font-size="12" lengthAdjust="spacingAndGlyphs" textLength="80" x="6" y="170.1133">Observateurs :</text><rect fill="#EEEEEE" height="18.0938" style="stroke: #000000; stroke-width: 1.0;" width="127" x="190" y="158.6563"/><text fill="#000000" font-family="sans-serif" font-size="12" lengthAdjust="spacingAndGlyphs" textLength="84" x="192" y="173.1133">Observateur #1</text><line style="stroke: #000000; stroke-width: 1.0;" x1="306" x2="306" y1="158.6563" y2="176.75"/><polygon fill="#000000" points="309,164.6563,315,164.6563,312,171.75" style="stroke: #000000; stroke-width: 1.0;"/><rect fill="#EEEEEE" height="12" rx="5" ry="5" style="stroke: #000000; stroke-width: 2.5;" width="20" x="322.5" y="161.1563"/><path d="M331.5,163.1563 L331.5,166.1563 L328.5,166.1563 L328.5,168.1563 L331.5,168.1563 L331.5,171.1563 L333.5,171.1563 L333.5,168.1563 L336.5,168.1563 L336.5,166.1563 L333.5,166.1563 L333.5,163.1563 L331.5,163.1563 " fill="#000000" style="stroke: ; stroke-width: 0.0; stroke-dasharray: ;"/><rect fill="#EEEEEE" height="12" rx="5" ry="5" style="stroke: #000000; stroke-width: 2.5;" width="20" x="349.5" y="161.1563"/><path d="M356.906,163.1563 L355.5,164.5623 L356.188,165.2813 L357.969,167.0623 L356.188,168.8433 L355.5,169.5623 L356.906,170.9683 L357.625,170.2803 L359.406,168.4993 L361.187,170.2803 L361.906,170.9683 L363.312,169.5623 L362.624,168.8433 L360.843,167.0623 L362.624,165.2813 L363.312,164.5623 L361.906,163.1563 L361.187,163.8443 L359.406,165.6253 L357.625,163.8443 L356.906,163.1563 " fill="#000000" style="stroke: ; stroke-width: 0.0; stroke-dasharray: ;"/><text fill="#000000" font-family="sans-serif" font-size="12" lengthAdjust="spacingAndGlyphs" textLength="129" x="6" y="193.207">Autres caractéristiques:</text><text fill="#000000" font-family="sans-serif" font-size="12" lengthAdjust="spacingAndGlyphs" textLength="241" x="190" y="194.207">Paramètre 1 (ex: Nombre d'homme à bord) :</text><text fill="#000000" font-family="sans-serif" font-size="12" lengthAdjust="spacingAndGlyphs" textLength="7" x="436" y="194.207">1</text><line style="stroke: #000000; stroke-width: 1.0;" x1="434" x2="485" y1="196.8438" y2="196.8438"/><line style="stroke: #000000; stroke-width: 1.0;" x1="434" x2="434" y1="193.8438" y2="195.8438"/><line style="stroke: #000000; stroke-width: 1.0;" x1="485" x2="485" y1="193.8438" y2="195.8438"/><text fill="#000000" font-family="sans-serif" font-size="12" lengthAdjust="spacingAndGlyphs" textLength="74" x="190" y="215.3008">Paramètre 2 :</text><rect fill="#EEEEEE" height="18.0938" style="stroke: #000000; stroke-width: 1.0;" width="159" x="266" y="202.8438"/><text fill="#000000" font-family="sans-serif" font-size="12" lengthAdjust="spacingAndGlyphs" textLength="93" x="268" y="217.3008">Valeur qualitative</text><line style="stroke: #000000; stroke-width: 1.0;" x1="414" x2="414" y1="202.8438" y2="220.9375"/><polygon fill="#000000" points="417,208.8438,423,208.8438,420,215.9375" style="stroke: #000000; stroke-width: 1.0;"/><text fill="#000000" font-family="sans-serif" font-size="12" lengthAdjust="spacingAndGlyphs" textLength="83" x="6" y="254.4883">Commentaires</text><text fill="#000000" font-family="sans-serif" font-size="12" lengthAdjust="spacingAndGlyphs" textLength="80" x="193" y="255.4883">commentaires</text><line style="stroke: #000000; stroke-width: 1.0;" x1="191" x2="346" y1="258.125" y2="258.125"/><line style="stroke: #000000; stroke-width: 1.0;" x1="191" x2="191" y1="255.125" y2="257.125"/><line style="stroke: #000000; stroke-width: 1.0;" x1="346" x2="346" y1="255.125" y2="257.125"/><line style="stroke: #AAAAAA; stroke-width: 1.0;" x1="6" x2="188" y1="266.625" y2="266.625"/><line style="stroke: #AAAAAA; stroke-width: 1.0;" x1="189" x2="489" y1="266.625" y2="266.625"/><rect fill="#EEEEEE" height="19.0938" rx="5" ry="5" style="stroke: #000000; stroke-width: 2.5;" width="60" x="192.5" y="274.625"/><text fill="#000000" font-family="sans-serif" font-size="12" lengthAdjust="spacingAndGlyphs" textLength="42" x="201.5" y="289.082">Annuler</text><rect fill="#EEEEEE" height="19.0938" rx="5" ry="5" style="stroke: #000000; stroke-width: 2.5;" width="92" x="259.5" y="274.625"/><text fill="#000000" font-family="sans-serif" font-size="12" lengthAdjust="spacingAndGlyphs" textLength="70" x="270.5" y="289.082">Sauvegarder</text></g></svg>