<svg xmlns="http://www.w3.org/2000/svg" xmlns:xlink="http://www.w3.org/1999/xlink" contentStyleType="text/css" height="539px" preserveAspectRatio="none" style="width:191px;height:539px;background:#FFFFFF;" version="1.1" viewBox="0 0 191 539" width="191px" zoomAndPan="magnify"><defs/><g><ellipse cx="82.374" cy="20" fill="#222222" rx="10" ry="10" style="stroke:#222222;stroke-width:1.0;"/><rect fill="#F1F1F1" height="35.9609" rx="12.5" ry="12.5" style="stroke:#181818;stroke-width:0.5;" width="124.7422" x="20.0029" y="50"/><text fill="#000000" font-family="sans-serif" font-size="12" lengthAdjust="spacing" textLength="104.7422" x="30.0029" y="72.9492">Saisie des donn&#233;es</text><rect fill="#F1F1F1" height="51.9219" rx="12.5" ry="12.5" style="stroke:#181818;stroke-width:0.5;" width="134.0879" x="15.3301" y="129.3525"/><text fill="#000000" font-family="sans-serif" font-size="12" lengthAdjust="spacing" textLength="98.0508" x="25.3301" y="152.3018">Enregistrement du</text><text fill="#000000" font-family="sans-serif" font-size="12" lengthAdjust="spacing" textLength="114.0879" x="25.3301" y="168.2627">catalogue de la vente</text><rect fill="#F1F1F1" height="35.9609" rx="12.5" ry="12.5" style="stroke:#181818;stroke-width:0.5;" width="137.416" x="13.666" y="291.2422"/><text fill="#000000" font-family="sans-serif" font-size="12" lengthAdjust="spacing" textLength="117.416" x="23.666" y="314.1914">Contr&#244;le des donn&#233;es</text><rect fill="#F1F1F1" height="35.9609" rx="12.5" ry="12.5" style="stroke:#181818;stroke-width:0.5;" width="142.748" x="11" y="370.5947"/><text fill="#000000" font-family="sans-serif" font-size="12" lengthAdjust="spacing" textLength="122.748" x="21" y="393.5439">Demande de validation</text><polygon fill="#F1F1F1" points="82.374,224.666,94.374,236.666,82.374,248.666,70.374,236.666,82.374,224.666" style="stroke:#181818;stroke-width:0.5;"/><polygon fill="#F1F1F1" points="58.2175,449.1318,106.5305,449.1318,118.5305,461.1318,106.5305,473.1318,58.2175,473.1318,46.2175,461.1318,58.2175,449.1318" style="stroke:#181818;stroke-width:0.5;"/><text fill="#000000" font-family="sans-serif" font-size="11" lengthAdjust="spacing" textLength="17.1177" x="86.374" y="485.002">Oui</text><text fill="#000000" font-family="sans-serif" font-size="11" lengthAdjust="spacing" textLength="48.313" x="58.2175" y="465.6865">Validation</text><text fill="#000000" font-family="sans-serif" font-size="11" lengthAdjust="spacing" textLength="20.1792" x="118.5305" y="458.3711">Non</text><ellipse cx="82.374" cy="517.502" fill="none" rx="11" ry="11" style="stroke:#222222;stroke-width:1.0;"/><ellipse cx="82.374" cy="517.502" fill="#222222" rx="6" ry="6" style="stroke:#222222;stroke-width:1.0;"/><line style="stroke:#181818;stroke-width:1.0;" x1="82.374" x2="82.374" y1="30" y2="50"/><polygon fill="#181818" points="78.374,40,82.374,50,86.374,40,82.374,44" style="stroke:#181818;stroke-width:1.0;"/><line style="stroke:#181818;stroke-width:1.0;" x1="82.374" x2="82.374" y1="85.9609" y2="129.3525"/><polygon fill="#181818" points="78.374,119.3525,82.374,129.3525,86.374,119.3525,82.374,123.3525" style="stroke:#181818;stroke-width:1.0;"/><text fill="#000000" font-family="sans-serif" font-size="11" font-style="italic" lengthAdjust="spacing" textLength="60.5269" x="86.374" y="109.0918">Observateur</text><line style="stroke:#181818;stroke-width:1.0;" x1="82.374" x2="82.374" y1="327.2031" y2="370.5947"/><polygon fill="#181818" points="78.374,360.5947,82.374,370.5947,86.374,360.5947,82.374,364.5947" style="stroke:#181818;stroke-width:1.0;"/><text fill="#000000" font-family="sans-serif" font-size="11" font-style="italic" lengthAdjust="spacing" textLength="60.5269" x="86.374" y="350.334">Observateur</text><line style="stroke:#181818;stroke-width:1.0;" x1="82.374" x2="82.374" y1="248.666" y2="291.2422"/><polygon fill="#181818" points="78.374,281.2422,82.374,291.2422,86.374,281.2422,82.374,285.2422" style="stroke:#181818;stroke-width:1.0;"/><text fill="#000000" font-family="sans-serif" font-size="11" font-style="italic" lengthAdjust="spacing" textLength="60.5269" x="86.374" y="271.7969">Observateur</text><line style="stroke:#181818;stroke-width:1.0;" x1="118.5305" x2="165.748" y1="461.1318" y2="461.1318"/><polygon fill="#181818" points="161.748,355.7793,165.748,345.7793,169.748,355.7793,165.748,351.7793" style="stroke:#181818;stroke-width:1.0;"/><line style="stroke:#181818;stroke-width:1.0;" x1="165.748" x2="165.748" y1="236.666" y2="461.1318"/><line style="stroke:#181818;stroke-width:1.0;" x1="165.748" x2="94.374" y1="236.666" y2="236.666"/><polygon fill="#181818" points="104.374,232.666,94.374,236.666,104.374,240.666,100.374,236.666" style="stroke:#181818;stroke-width:1.0;"/><line style="stroke:#181818;stroke-width:1.0;" x1="82.374" x2="82.374" y1="406.5557" y2="449.1318"/><polygon fill="#181818" points="78.374,439.1318,82.374,449.1318,86.374,439.1318,82.374,443.1318" style="stroke:#181818;stroke-width:1.0;"/><text fill="#000000" font-family="sans-serif" font-size="11" font-style="italic" lengthAdjust="spacing" textLength="49.5322" x="86.374" y="429.6865">Validateur</text><line style="stroke:#181818;stroke-width:1.0;" x1="82.374" x2="82.374" y1="181.2744" y2="224.666"/><polygon fill="#181818" points="78.374,214.666,82.374,224.666,86.374,214.666,82.374,218.666" style="stroke:#181818;stroke-width:1.0;"/><text fill="#000000" font-family="sans-serif" font-size="11" font-style="italic" lengthAdjust="spacing" textLength="60.5269" x="86.374" y="204.4053">Observateur</text><line style="stroke:#181818;stroke-width:1.0;" x1="82.374" x2="82.374" y1="473.1318" y2="506.502"/><polygon fill="#181818" points="78.374,496.502,82.374,506.502,86.374,496.502,82.374,500.502" style="stroke:#181818;stroke-width:1.0;"/><!--SRC=[ZOwn3e9038Ptdw8Z38PT4nTrbS64oQLw3LvozCYrXy_axXlmOW8Q6DH8foP__wyV080e1bt0UrP7j68930aOpzpUITPZkjnaMNuM2WqgnP1bKxJQSw3IYWQgY1LCFF455PqlOuy3Xz1q0SsY1Qe99wi_ryF_hMSDxSFzSf_3s565R0RT1fqrgDRp9w9uPL-TuNQrdKDIZFqKh41ow1Vs2aaURJgKH7tz1000]--></g></svg>