<?xml version="1.0" encoding="UTF-8" standalone="no"?><svg xmlns="http://www.w3.org/2000/svg" xmlns:xlink="http://www.w3.org/1999/xlink" contentStyleType="text/css" height="497px" preserveAspectRatio="none" style="width:740px;height:497px;background:#FFFFFF;" version="1.1" viewBox="0 0 740 497" width="740px" zoomAndPan="magnify"><defs/><g><text fill="#000000" font-family="sans-serif" font-size="12" font-weight="bold" lengthAdjust="spacing" textLength="219" x="9" y="18.8281">Immat Navire - Lieu - Date fin marée</text><line style="stroke:#AAAAAA;stroke-width:1.0;stroke-dasharray:1.0,2.0;" x1="6" x2="382" y1="27.8441" y2="27.8441"/><rect fill="#EEEEEE" height="20.3441" rx="5" ry="5" style="stroke:#000000;stroke-width:2.5;" width="68" x="666.5" y="35.8441"/><text fill="#000000" font-family="sans-serif" font-size="12" lengthAdjust="spacing" textLength="52" x="674.5" y="50.6722">Terminer</text><text fill="#000000" font-family="sans-serif" font-size="12" lengthAdjust="spacing" textLength="93" x="6" y="92.8604">Code du metier*</text><rect fill="#EEEEEE" height="19.3441" style="stroke:#000000;stroke-width:1.0;" width="175" x="384" y="81.0323"/><text fill="#000000" font-family="sans-serif" font-size="12" lengthAdjust="spacing" textLength="107" x="386" y="95.8604">LLSKH - Longlines...</text><line style="stroke:#000000;stroke-width:1.0;" x1="548" x2="548" y1="81.0323" y2="100.3765"/><polygon fill="#000000" points="551,87.0323,557,87.0323,554,95.3765" style="stroke:#000000;stroke-width:1.0;"/><text fill="#000000" font-family="sans-serif" font-size="12" font-weight="bold" lengthAdjust="spacing" textLength="141" x="6" y="135.5487">Autres caractéristiques:</text><text fill="#000000" font-family="sans-serif" font-size="12" lengthAdjust="spacing" textLength="97" x="6" y="153.8928">Nombre d'engin*</text><text fill="#000000" font-family="sans-serif" font-size="12" lengthAdjust="spacing" textLength="7" x="387" y="154.8928">5</text><line style="stroke:#000000;stroke-width:1.0;" x1="385" x2="412" y1="158.4088" y2="158.4088"/><line style="stroke:#000000;stroke-width:1.0;" x1="385" x2="385" y1="155.4088" y2="157.4088"/><line style="stroke:#000000;stroke-width:1.0;" x1="412" x2="412" y1="155.4088" y2="157.4088"/><text fill="#000000" font-family="sans-serif" font-size="12" lengthAdjust="spacing" textLength="157" x="6" y="194.581">Paramètre propre à l'engin :</text><text fill="#000000" font-family="sans-serif" font-size="12" font-style="italic" lengthAdjust="spacing" textLength="375" x="6" y="212.9251">(le paramètre adapté s'affiche en fonction du type d'engin sélectionné)</text><ellipse cx="11.5" cy="227.2853" fill="#000000" rx="2.5" ry="2.5" style="stroke:#000000;stroke-width:0.0;"/><text fill="#000000" font-family="sans-serif" font-size="12" lengthAdjust="spacing" textLength="117" x="17" y="231.2692">Nombre d'hameçons</text><text fill="#000000" font-family="sans-serif" font-size="12" lengthAdjust="spacing" textLength="14" x="387" y="232.2692">10</text><line style="stroke:#000000;stroke-width:1.0;" x1="385" x2="420" y1="235.7853" y2="235.7853"/><line style="stroke:#000000;stroke-width:1.0;" x1="385" x2="385" y1="232.7853" y2="234.7853"/><line style="stroke:#000000;stroke-width:1.0;" x1="420" x2="420" y1="232.7853" y2="234.7853"/><ellipse cx="11.5" cy="249.6294" fill="#000000" rx="2.5" ry="2.5" style="stroke:#000000;stroke-width:0.0;"/><text fill="#000000" font-family="sans-serif" font-size="12" lengthAdjust="spacing" textLength="106" x="17" y="253.6133">Nombre de casiers</text><text fill="#000000" font-family="sans-serif" font-size="12" lengthAdjust="spacing" textLength="7" x="387" y="254.6133">3</text><line style="stroke:#000000;stroke-width:1.0;" x1="385" x2="412" y1="258.1294" y2="258.1294"/><line style="stroke:#000000;stroke-width:1.0;" x1="385" x2="385" y1="255.1294" y2="257.1294"/><line style="stroke:#000000;stroke-width:1.0;" x1="412" x2="412" y1="255.1294" y2="257.1294"/><ellipse cx="11.5" cy="271.9735" fill="#000000" rx="2.5" ry="2.5" style="stroke:#000000;stroke-width:0.0;"/><text fill="#000000" font-family="sans-serif" font-size="12" lengthAdjust="spacing" textLength="116" x="17" y="275.9575">Longueur de filet (m)</text><text fill="#000000" font-family="sans-serif" font-size="12" lengthAdjust="spacing" textLength="14" x="387" y="276.9575">30</text><line style="stroke:#000000;stroke-width:1.0;" x1="385" x2="420" y1="280.4735" y2="280.4735"/><line style="stroke:#000000;stroke-width:1.0;" x1="385" x2="385" y1="277.4735" y2="279.4735"/><line style="stroke:#000000;stroke-width:1.0;" x1="420" x2="420" y1="277.4735" y2="279.4735"/><text fill="#000000" font-family="sans-serif" font-size="12" lengthAdjust="spacing" textLength="219" x="6" y="316.6457">Temps passé à pêcher (en jour de mer)</text><text fill="#000000" font-family="sans-serif" font-size="12" font-style="italic" lengthAdjust="spacing" textLength="98" x="228" y="316.6457">(1 jour par défaut)</text><text fill="#000000" font-family="sans-serif" font-size="12" lengthAdjust="spacing" textLength="7" x="387" y="317.6457">1</text><line style="stroke:#000000;stroke-width:1.0;" x1="385" x2="428" y1="321.1617" y2="321.1617"/><line style="stroke:#000000;stroke-width:1.0;" x1="385" x2="385" y1="318.1617" y2="320.1617"/><line style="stroke:#000000;stroke-width:1.0;" x1="428" x2="428" y1="318.1617" y2="320.1617"/><text fill="#000000" font-family="sans-serif" font-size="12" lengthAdjust="spacing" textLength="36" x="432" y="317.6457">jour(s)</text><text fill="#000000" font-family="sans-serif" font-size="12" lengthAdjust="spacing" textLength="7" x="473" y="317.6457">0</text><line style="stroke:#000000;stroke-width:1.0;" x1="471" x2="514" y1="321.1617" y2="321.1617"/><line style="stroke:#000000;stroke-width:1.0;" x1="471" x2="471" y1="318.1617" y2="320.1617"/><line style="stroke:#000000;stroke-width:1.0;" x1="514" x2="514" y1="318.1617" y2="320.1617"/><text fill="#000000" font-family="sans-serif" font-size="12" lengthAdjust="spacing" textLength="53" x="518" y="317.6457">minute(s)</text><text fill="#000000" font-family="sans-serif" font-size="12" lengthAdjust="spacing" textLength="252" x="6" y="338.9898">Profondeur minimum de pêche de l'engin (m)</text><text fill="#000000" font-family="sans-serif" font-size="12" lengthAdjust="spacing" textLength="14" x="387" y="339.9898">25</text><line style="stroke:#000000;stroke-width:1.0;" x1="385" x2="420" y1="343.5058" y2="343.5058"/><line style="stroke:#000000;stroke-width:1.0;" x1="385" x2="385" y1="340.5058" y2="342.5058"/><line style="stroke:#000000;stroke-width:1.0;" x1="420" x2="420" y1="340.5058" y2="342.5058"/><text fill="#000000" font-family="sans-serif" font-size="12" lengthAdjust="spacing" textLength="255" x="6" y="361.3339">Profondeur maximum de pêche de l'engin (m)</text><text fill="#000000" font-family="sans-serif" font-size="12" lengthAdjust="spacing" textLength="14" x="387" y="362.3339">40</text><line style="stroke:#000000;stroke-width:1.0;" x1="385" x2="420" y1="365.8499" y2="365.8499"/><line style="stroke:#000000;stroke-width:1.0;" x1="385" x2="385" y1="362.8499" y2="364.8499"/><line style="stroke:#000000;stroke-width:1.0;" x1="420" x2="420" y1="362.8499" y2="364.8499"/><text fill="#000000" font-family="sans-serif" font-size="12" lengthAdjust="spacing" textLength="83" x="6" y="402.0221">Commentaires</text><text fill="#000000" font-family="sans-serif" font-size="12" lengthAdjust="spacing" textLength="81" x="387" y="403.0221">commentaires</text><line style="stroke:#000000;stroke-width:1.0;" x1="385" x2="540" y1="406.5382" y2="406.5382"/><line style="stroke:#000000;stroke-width:1.0;" x1="385" x2="385" y1="403.5382" y2="405.5382"/><line style="stroke:#000000;stroke-width:1.0;" x1="540" x2="540" y1="403.5382" y2="405.5382"/><text fill="#000000" font-family="sans-serif" font-size="12" lengthAdjust="spacing" textLength="171" x="6" y="442.7104">Capture débarquée par métier</text><rect fill="#EEEEEE" height="20.3441" rx="5" ry="5" style="stroke:#000000;stroke-width:2.5;" width="164" x="386.5" y="433.3823"/><path d="M416,440.7264 L416,444.7264 L420,444.7264 L420,440.7264 L416,440.7264 M421,442.7264 L421,445.7264 L418,445.7264 L418,446.7264 L422,446.7264 L422,442.7264 L421,442.7264 M423,444.7264 L423,447.7264 L420,447.7264 L420,448.7264 L424,448.7264 L424,444.7264 L423,444.7264 " fill="#000000" style="stroke:;stroke-width:0.0;stroke-dasharray:;"/><text fill="#000000" font-family="sans-serif" font-size="12" lengthAdjust="spacing" textLength="94" x="428" y="448.2104">Entrer la capture</text><line style="stroke:#AAAAAA;stroke-width:1.0;" x1="6" x2="382" y1="462.7264" y2="462.7264"/><line style="stroke:#AAAAAA;stroke-width:1.0;" x1="383" x2="662" y1="462.7264" y2="462.7264"/><rect fill="#EEEEEE" height="20.3441" rx="5" ry="5" style="stroke:#000000;stroke-width:2.5;" width="60" x="386.5" y="470.7264"/><text fill="#000000" font-family="sans-serif" font-size="12" lengthAdjust="spacing" textLength="44" x="394.5" y="485.5545">Annuler</text><rect fill="#EEEEEE" height="20.3441" rx="5" ry="5" style="stroke:#000000;stroke-width:2.5;" width="204" x="453.5" y="470.7264"/><text fill="#000000" font-family="sans-serif" font-size="12" lengthAdjust="spacing" textLength="149" x="481" y="485.5545">Ajouter un nouveau métier</text></g></svg>