<?xml version="1.0" encoding="UTF-8" standalone="no"?><svg xmlns="http://www.w3.org/2000/svg" xmlns:xlink="http://www.w3.org/1999/xlink" contentScriptType="application/ecmascript" contentStyleType="text/css" height="983px" preserveAspectRatio="none" style="width:917px;height:983px;" version="1.1" viewBox="0 0 917 983" width="917px" zoomAndPan="magnify"><defs/><g><text fill="#000000" font-family="sans-serif" font-size="12" font-weight="bold" lengthAdjust="spacingAndGlyphs" textLength="248" x="9" y="18.457">Immat Navire - Lieu - Date fin marée - Métier</text><line style="stroke: #AAAAAA; stroke-width: 1.0; stroke-dasharray: 1.0,2.0;" x1="6" x2="898" y1="26.5938" y2="26.5938"/><text fill="#000000" font-family="sans-serif" font-size="12" lengthAdjust="spacingAndGlyphs" textLength="64" x="8" y="43.5508">General trip</text><line style="stroke: #000000; stroke-width: 1.0;" x1="6" x2="6" y1="31.0938" y2="46.1875"/><line style="stroke: #000000; stroke-width: 1.0;" x1="6" x2="75" y1="31.0938" y2="31.0938"/><line style="stroke: #000000; stroke-width: 1.0;" x1="75" x2="75" y1="31.0938" y2="46.1875"/><line style="stroke: #000000; stroke-width: 1.0;" x1="75" x2="85" y1="46.1875" y2="46.1875"/><text fill="#000000" font-family="sans-serif" font-size="12" lengthAdjust="spacingAndGlyphs" textLength="28" x="87" y="43.5508">Effort</text><line style="stroke: #000000; stroke-width: 1.0;" x1="85" x2="85" y1="31.0938" y2="46.1875"/><line style="stroke: #000000; stroke-width: 1.0;" x1="85" x2="118" y1="31.0938" y2="31.0938"/><line style="stroke: #000000; stroke-width: 1.0;" x1="118" x2="118" y1="31.0938" y2="46.1875"/><line style="stroke: #000000; stroke-width: 1.0;" x1="118" x2="128" y1="46.1875" y2="46.1875"/><text fill="#000000" font-family="sans-serif" font-size="12" lengthAdjust="spacingAndGlyphs" textLength="107" x="130" y="43.5508">Capture débarquée</text><line style="stroke: #000000; stroke-width: 1.0;" x1="128" x2="128" y1="31.0938" y2="46.1875"/><line style="stroke: #000000; stroke-width: 1.0;" x1="128" x2="240" y1="31.0938" y2="31.0938"/><line style="stroke: #000000; stroke-width: 1.0;" x1="240" x2="240" y1="31.0938" y2="46.1875"/><line style="stroke: #000000; stroke-width: 1.0;" x1="240" x2="250" y1="46.1875" y2="46.1875"/><text fill="#000000" font-family="sans-serif" font-size="12" font-weight="bold" lengthAdjust="spacingAndGlyphs" textLength="33" x="252" y="43.5508">Vente</text><line style="stroke: #000000; stroke-width: 1.0;" x1="250" x2="250" y1="31.0938" y2="46.1875"/><line style="stroke: #000000; stroke-width: 1.0;" x1="250" x2="288" y1="31.0938" y2="31.0938"/><line style="stroke: #000000; stroke-width: 1.0;" x1="288" x2="288" y1="31.0938" y2="46.1875"/><line style="stroke: #000000; stroke-width: 1.0;" x1="288" x2="298" y1="46.1875" y2="46.1875"/><text fill="#000000" font-family="sans-serif" font-size="12" lengthAdjust="spacingAndGlyphs" textLength="58" x="300" y="43.5508">Dépenses</text><line style="stroke: #000000; stroke-width: 1.0;" x1="298" x2="298" y1="31.0938" y2="46.1875"/><line style="stroke: #000000; stroke-width: 1.0;" x1="298" x2="361" y1="31.0938" y2="31.0938"/><line style="stroke: #000000; stroke-width: 1.0;" x1="361" x2="361" y1="31.0938" y2="46.1875"/><line style="stroke: #000000; stroke-width: 1.0;" x1="361" x2="371" y1="46.1875" y2="46.1875"/><text fill="#000000" font-family="sans-serif" font-size="12" lengthAdjust="spacingAndGlyphs" textLength="177" x="7" y="78.7383">Estimation des ventes (Devise) :</text><text fill="#000000" font-family="sans-serif" font-size="12" lengthAdjust="spacingAndGlyphs" textLength="0" x="193" y="79.7383"/><line style="stroke: #000000; stroke-width: 1.0;" x1="188" x2="279" y1="82.375" y2="82.375"/><line style="stroke: #000000; stroke-width: 1.0;" x1="188" x2="188" y1="79.375" y2="81.375"/><line style="stroke: #000000; stroke-width: 1.0;" x1="279" x2="279" y1="79.375" y2="81.375"/><line style="stroke: #000000; stroke-width: 1.0;" x1="186" x2="282" y1="66.2813" y2="66.2813"/><line style="stroke: #000000; stroke-width: 1.0;" x1="186" x2="282" y1="85.375" y2="85.375"/><line style="stroke: #000000; stroke-width: 1.0;" x1="186" x2="186" y1="66.2813" y2="85.375"/><line style="stroke: #000000; stroke-width: 1.0;" x1="282" x2="282" y1="66.2813" y2="85.375"/><path d="M285.094,66.2813 C285.034,66.2813 285,66.3153 285,66.3753 L285,74.1883 C285,74.2483 285.034,74.2823 285.094,74.2823 L291.907,74.2823 C291.967,74.2823 292.001,74.2483 292.001,74.1883 L292.001,66.3753 C292.001,66.3153 291.967,66.2813 291.907,66.2813 L285.094,66.2813 M286,67.2813 L291,67.2813 L291,69.2813 L286,69.2813 L286,67.2813 M286,70.2813 L287,70.2813 L287,71.2813 L286,71.2813 L286,70.2813 M288,70.2813 L289,70.2813 L289,71.2813 L288,71.2813 L288,70.2813 M290,70.2813 L291,70.2813 L291,73.2813 L290,73.2813 L290,70.2813 M286,72.2813 L287,72.2813 L287,73.2813 L286,73.2813 L286,72.2813 M288,72.2813 L289,72.2813 L289,73.2813 L288,73.2813 L288,72.2813 " fill="#000000" style="stroke: ; stroke-width: 0.0; stroke-dasharray: ;"/><text fill="#000000" font-family="sans-serif" font-size="12" lengthAdjust="spacingAndGlyphs" textLength="94" x="297" y="79.7383">Coût total calculé</text><text fill="#0000FF" font-family="sans-serif" font-size="12" lengthAdjust="spacingAndGlyphs" textLength="38" x="400" y="80.7383">1987.0</text><line style="stroke: #000000; stroke-width: 1.0;" x1="395" x2="550" y1="83.375" y2="83.375"/><line style="stroke: #000000; stroke-width: 1.0;" x1="395" x2="395" y1="80.375" y2="82.375"/><line style="stroke: #000000; stroke-width: 1.0;" x1="550" x2="550" y1="80.375" y2="82.375"/><text fill="#000000" font-family="sans-serif" font-size="12" lengthAdjust="spacingAndGlyphs" textLength="38" x="555" y="79.7383">Devise</text><line style="stroke: #AAAAAA; stroke-width: 1.0;" x1="6" x2="898" y1="93.875" y2="93.875"/><line style="stroke: #AAAAAA; stroke-width: 1.0;" x1="899" x2="910" y1="93.875" y2="93.875"/><text fill="#000000" font-family="sans-serif" font-size="12" font-weight="bold" lengthAdjust="spacingAndGlyphs" textLength="100" x="7" y="111.832">Saisie des ventes</text><rect fill="#EEEEEE" height="19.0938" rx="5" ry="5" style="stroke: #000000; stroke-width: 2.5;" width="52" x="580.5" y="101.875"/><text fill="#000000" font-family="sans-serif" font-size="12" lengthAdjust="spacingAndGlyphs" textLength="40" x="586.5" y="116.332">Fermer</text><line style="stroke: #AAAAAA; stroke-width: 1.0; stroke-dasharray: 1.0,2.0;" x1="7" x2="577" y1="128.9688" y2="128.9688"/><text fill="#000000" font-family="sans-serif" font-size="12" lengthAdjust="spacingAndGlyphs" textLength="100" x="28" y="146.9258">Saisie par espèce</text><ellipse cx="15" cy="142.0156" fill="none" rx="5" ry="5" style="stroke: #000000; stroke-width: 1.5;"/><ellipse cx="15" cy="142.0156" fill="#000000" rx="2" ry="2" style="stroke: #000000; stroke-width: 1.5;"/><text fill="#000000" font-family="sans-serif" font-size="12" lengthAdjust="spacingAndGlyphs" textLength="97" x="150" y="146.9258">Saisie par paquet</text><ellipse cx="137" cy="142.0156" fill="none" rx="5" ry="5" style="stroke: #000000; stroke-width: 1.5;"/><text fill="#000000" font-family="sans-serif" font-size="12" lengthAdjust="spacingAndGlyphs" textLength="120" x="8" y="183.1133">Espèce commerciale:</text><rect fill="#EEEEEE" height="18.0938" style="stroke: #000000; stroke-width: 1.0;" width="167" x="182" y="171.6563"/><text fill="#000000" font-family="sans-serif" font-size="12" lengthAdjust="spacingAndGlyphs" textLength="41" x="184" y="186.1133">Albakor</text><line style="stroke: #000000; stroke-width: 1.0;" x1="338" x2="338" y1="171.6563" y2="189.75"/><polygon fill="#000000" points="341,177.6563,347,177.6563,344,184.75" style="stroke: #000000; stroke-width: 1.0;"/><text fill="#000000" font-family="sans-serif" font-size="12" lengthAdjust="spacingAndGlyphs" textLength="93" x="372" y="184.1133">Valeur par défaut</text><rect fill="none" height="10" style="stroke: #000000; stroke-width: 1.5;" width="10" x="354" y="174.2031"/><text fill="#000000" font-family="sans-serif" font-size="12" font-style="italic" lengthAdjust="spacingAndGlyphs" textLength="171" x="8" y="206.207">Espèce scientifique (optionnel):</text><rect fill="#EEEEEE" height="18.0938" style="stroke: #000000; stroke-width: 1.0;" width="167" x="182" y="194.75"/><text fill="#000000" font-family="sans-serif" font-size="12" font-style="italic" lengthAdjust="spacingAndGlyphs" textLength="99" x="184" y="209.207">Thunnus alalunga</text><line style="stroke: #000000; stroke-width: 1.0;" x1="338" x2="338" y1="194.75" y2="212.8438"/><polygon fill="#000000" points="341,200.75,347,200.75,344,207.8438" style="stroke: #000000; stroke-width: 1.0;"/><text fill="#000000" font-family="sans-serif" font-size="12" font-style="italic" lengthAdjust="spacingAndGlyphs" textLength="107" x="372" y="207.207">Conserver la valeur</text><rect fill="none" height="10" style="stroke: #000000; stroke-width: 1.5;" width="10" x="354" y="197.2969"/><text fill="#000000" font-family="sans-serif" font-size="12" lengthAdjust="spacingAndGlyphs" textLength="75" x="8" y="229.3008">Type de vente</text><rect fill="#EEEEEE" height="18.0938" style="stroke: #000000; stroke-width: 1.0;" width="87" x="182" y="217.8438"/><text fill="#000000" font-family="sans-serif" font-size="12" lengthAdjust="spacingAndGlyphs" textLength="36" x="184" y="232.3008">Market</text><line style="stroke: #000000; stroke-width: 1.0;" x1="258" x2="258" y1="217.8438" y2="235.9375"/><polygon fill="#000000" points="261,223.8438,267,223.8438,264,230.9375" style="stroke: #000000; stroke-width: 1.0;"/><text fill="#000000" font-family="sans-serif" font-size="12" lengthAdjust="spacingAndGlyphs" textLength="106" x="292" y="230.3008">Conserver la valeur</text><rect fill="none" height="10" style="stroke: #000000; stroke-width: 1.5;" width="10" x="274" y="220.3906"/><polygon fill="#000000" points="275,223.8438,278,226.8438,285,217.8438,278,224.8438" style="stroke: #000000; stroke-width: 1.5;"/><text fill="#000000" font-family="sans-serif" font-size="12" lengthAdjust="spacingAndGlyphs" textLength="16" x="501" y="229.3008">%*</text><text fill="#000000" font-family="sans-serif" font-size="12" lengthAdjust="spacingAndGlyphs" textLength="21" x="523" y="230.3008">100</text><line style="stroke: #000000; stroke-width: 1.0;" x1="521" x2="572" y1="232.9375" y2="232.9375"/><line style="stroke: #000000; stroke-width: 1.0;" x1="521" x2="521" y1="229.9375" y2="231.9375"/><line style="stroke: #000000; stroke-width: 1.0;" x1="572" x2="572" y1="229.9375" y2="231.9375"/><text fill="#000000" font-family="sans-serif" font-size="12" lengthAdjust="spacingAndGlyphs" textLength="86" x="8" y="252.3945">Poids Ech. (kg):</text><text fill="#000000" font-family="sans-serif" font-size="12" lengthAdjust="spacingAndGlyphs" textLength="31" x="185" y="253.3945">120.0</text><line style="stroke: #000000; stroke-width: 1.0;" x1="183" x2="322" y1="256.0313" y2="256.0313"/><line style="stroke: #000000; stroke-width: 1.0;" x1="183" x2="183" y1="253.0313" y2="255.0313"/><line style="stroke: #000000; stroke-width: 1.0;" x1="322" x2="322" y1="253.0313" y2="255.0313"/><text fill="#000000" font-family="sans-serif" font-size="12" lengthAdjust="spacingAndGlyphs" textLength="112" x="8" y="273.4883">Nombre d'individus :</text><text fill="#000000" font-family="sans-serif" font-size="12" lengthAdjust="spacingAndGlyphs" textLength="14" x="185" y="274.4883">26</text><line style="stroke: #000000; stroke-width: 1.0;" x1="183" x2="298" y1="277.125" y2="277.125"/><line style="stroke: #000000; stroke-width: 1.0;" x1="183" x2="183" y1="274.125" y2="276.125"/><line style="stroke: #000000; stroke-width: 1.0;" x1="298" x2="298" y1="274.125" y2="276.125"/><text fill="#000000" font-family="sans-serif" font-size="12" lengthAdjust="spacingAndGlyphs" textLength="61" x="8" y="294.582">Packaging:</text><rect fill="#EEEEEE" height="18.0938" style="stroke: #000000; stroke-width: 1.0;" width="87" x="182" y="283.125"/><text fill="#000000" font-family="sans-serif" font-size="12" lengthAdjust="spacingAndGlyphs" textLength="22" x="184" y="297.582">Unit</text><line style="stroke: #000000; stroke-width: 1.0;" x1="258" x2="258" y1="283.125" y2="301.2188"/><polygon fill="#000000" points="261,289.125,267,289.125,264,296.2188" style="stroke: #000000; stroke-width: 1.0;"/><text fill="#000000" font-family="sans-serif" font-size="12" lengthAdjust="spacingAndGlyphs" textLength="106" x="292" y="295.582">Conserver la valeur</text><rect fill="none" height="10" style="stroke: #000000; stroke-width: 1.5;" width="10" x="274" y="285.6719"/><polygon fill="#000000" points="275,289.125,278,292.125,285,283.125,278,290.125" style="stroke: #000000; stroke-width: 1.5;"/><text fill="#000000" font-family="sans-serif" font-size="12" lengthAdjust="spacingAndGlyphs" textLength="125" x="8" y="317.6758">Prix moyen (Devise/kg)</text><text fill="#000000" font-family="sans-serif" font-size="12" lengthAdjust="spacingAndGlyphs" textLength="17" x="185" y="318.6758">7.0</text><line style="stroke: #000000; stroke-width: 1.0;" x1="183" x2="346" y1="321.3125" y2="321.3125"/><line style="stroke: #000000; stroke-width: 1.0;" x1="183" x2="183" y1="318.3125" y2="320.3125"/><line style="stroke: #000000; stroke-width: 1.0;" x1="346" x2="346" y1="318.3125" y2="320.3125"/><text fill="#000000" font-family="sans-serif" font-size="12" lengthAdjust="spacingAndGlyphs" textLength="169" x="8" y="338.7695">Prix moyen (Devise/packaging)</text><text fill="#0000FF" font-family="sans-serif" font-size="12" font-style="italic" lengthAdjust="spacingAndGlyphs" textLength="31" x="185" y="339.7695">60.67</text><line style="stroke: #000000; stroke-width: 1.0;" x1="183" x2="354" y1="342.4063" y2="342.4063"/><line style="stroke: #000000; stroke-width: 1.0;" x1="183" x2="183" y1="339.4063" y2="341.4063"/><line style="stroke: #000000; stroke-width: 1.0;" x1="354" x2="354" y1="339.4063" y2="341.4063"/><text fill="#000000" font-family="sans-serif" font-size="12" lengthAdjust="spacingAndGlyphs" textLength="95" x="8" y="359.8633">Prix total (Devise)</text><text fill="#0000FF" font-family="sans-serif" font-size="12" font-style="italic" lengthAdjust="spacingAndGlyphs" textLength="31" x="185" y="360.8633">182.0</text><line style="stroke: #000000; stroke-width: 1.0;" x1="183" x2="346" y1="363.5" y2="363.5"/><line style="stroke: #000000; stroke-width: 1.0;" x1="183" x2="183" y1="360.5" y2="362.5"/><line style="stroke: #000000; stroke-width: 1.0;" x1="346" x2="346" y1="360.5" y2="362.5"/><rect fill="#EEEEEE" height="19.0938" rx="5" ry="5" style="stroke: #000000; stroke-width: 2.5;" width="148" x="184.5" y="389.0938"/><text fill="#000000" font-family="sans-serif" font-size="12" lengthAdjust="spacingAndGlyphs" textLength="92" x="212.5" y="403.5508">Valider (= Entrer)</text><rect fill="#EEEEEE" height="19.0938" rx="5" ry="5" style="stroke: #000000; stroke-width: 2.5;" width="156" x="339.5" y="389.0938"/><text fill="#000000" font-family="sans-serif" font-size="12" lengthAdjust="spacingAndGlyphs" textLength="104" x="365.5" y="403.5508">Annuler la dernière</text><line style="stroke: #AAAAAA; stroke-width: 1.0;" x1="8" x2="180" y1="417.1875" y2="417.1875"/><line style="stroke: #AAAAAA; stroke-width: 1.0;" x1="181" x2="500" y1="417.1875" y2="417.1875"/><line style="stroke: #000000; stroke-width: 1.0;" x1="6" x2="577" y1="98.375" y2="98.375"/><line style="stroke: #000000; stroke-width: 1.0;" x1="577" x2="636" y1="98.375" y2="98.375"/><line style="stroke: #000000; stroke-width: 1.0;" x1="6" x2="577" y1="438.7813" y2="438.7813"/><line style="stroke: #000000; stroke-width: 1.0;" x1="577" x2="636" y1="438.7813" y2="438.7813"/><line style="stroke: #000000; stroke-width: 1.0;" x1="6" x2="6" y1="98.375" y2="124.4688"/><line style="stroke: #000000; stroke-width: 1.0;" x1="636" x2="636" y1="132.4688" y2="151.5625"/><line style="stroke: #000000; stroke-width: 1.0;" x1="636" x2="636" y1="124.4688" y2="132.4688"/><line style="stroke: #000000; stroke-width: 1.0;" x1="636" x2="636" y1="98.375" y2="124.4688"/><line style="stroke: #000000; stroke-width: 1.0;" x1="6" x2="6" y1="151.5625" y2="438.7813"/><line style="stroke: #000000; stroke-width: 1.0;" x1="6" x2="6" y1="132.4688" y2="151.5625"/><line style="stroke: #000000; stroke-width: 1.0;" x1="6" x2="6" y1="124.4688" y2="132.4688"/><line style="stroke: #000000; stroke-width: 1.0;" x1="636" x2="636" y1="151.5625" y2="438.7813"/><line style="stroke: #AAAAAA; stroke-width: 1.0; stroke-dasharray: 1.0,2.0;" x1="7" x2="897" y1="445.2813" y2="445.2813"/><text fill="#000000" font-family="sans-serif" font-size="12" lengthAdjust="spacingAndGlyphs" textLength="7" x="8" y="480.332">#</text><text fill="#000000" font-family="sans-serif" font-size="12" font-weight="bold" lengthAdjust="spacingAndGlyphs" textLength="120" x="17" y="480.332">Espèce commerciale</text><text fill="#000000" font-family="sans-serif" font-size="12" font-weight="bold" lengthAdjust="spacingAndGlyphs" textLength="78" x="139" y="480.332">Type de vente</text><text fill="#000000" font-family="sans-serif" font-size="12" font-weight="bold" lengthAdjust="spacingAndGlyphs" textLength="14" x="258" y="480.332">%*</text><text fill="#000000" font-family="sans-serif" font-size="12" font-weight="bold" lengthAdjust="spacingAndGlyphs" textLength="84" x="291" y="480.332">Poids Ech. (kg)</text><text fill="#000000" font-family="sans-serif" font-size="12" font-weight="bold" lengthAdjust="spacingAndGlyphs" textLength="45" x="377" y="480.332">NB indiv</text><text fill="#000000" font-family="sans-serif" font-size="12" font-weight="bold" lengthAdjust="spacingAndGlyphs" textLength="60" x="424" y="480.332">Packaging</text><text fill="#000000" font-family="sans-serif" font-size="12" font-weight="bold" lengthAdjust="spacingAndGlyphs" textLength="130" x="486" y="480.332">Prix moyen (Devise/kg)</text><text fill="#000000" font-family="sans-serif" font-size="12" font-weight="bold" lengthAdjust="spacingAndGlyphs" textLength="175" x="618" y="480.332">Prix moyen (Devise/packaging)</text><text fill="#000000" font-family="sans-serif" font-size="12" font-weight="bold" lengthAdjust="spacingAndGlyphs" textLength="100" x="795" y="480.332">Prix total (Devise)</text><text fill="#000000" font-family="sans-serif" font-size="12" lengthAdjust="spacingAndGlyphs" textLength="7" x="8" y="497.4258">3</text><text fill="#000000" font-family="sans-serif" font-size="12" lengthAdjust="spacingAndGlyphs" textLength="41" x="17" y="497.4258">Albakor</text><text fill="#000000" font-family="sans-serif" font-size="12" lengthAdjust="spacingAndGlyphs" textLength="38" x="139" y="497.4258">market</text><text fill="#000000" font-family="sans-serif" font-size="12" lengthAdjust="spacingAndGlyphs" textLength="31" x="258" y="497.4258">100.0</text><text fill="#0000FF" font-family="sans-serif" font-size="12" font-style="italic" lengthAdjust="spacingAndGlyphs" textLength="31" x="291" y="497.4258">120.0</text><text fill="#000000" font-family="sans-serif" font-size="12" lengthAdjust="spacingAndGlyphs" textLength="14" x="377" y="497.4258">26</text><text fill="#000000" font-family="sans-serif" font-size="12" lengthAdjust="spacingAndGlyphs" textLength="22" x="424" y="497.4258">Unit</text><text fill="#000000" font-family="sans-serif" font-size="12" lengthAdjust="spacingAndGlyphs" textLength="17" x="486" y="497.4258">7.0</text><text fill="#0000FF" font-family="sans-serif" font-size="12" font-style="italic" lengthAdjust="spacingAndGlyphs" textLength="31" x="618" y="497.4258">60.67</text><text fill="#0000FF" font-family="sans-serif" font-size="12" font-style="italic" lengthAdjust="spacingAndGlyphs" textLength="31" x="795" y="497.4258">182.0</text><text fill="#000000" font-family="sans-serif" font-size="12" lengthAdjust="spacingAndGlyphs" textLength="7" x="8" y="514.5195">2</text><text fill="#000000" font-family="sans-serif" font-size="12" lengthAdjust="spacingAndGlyphs" textLength="68" x="17" y="514.5195">Barwa - LXN</text><text fill="#000000" font-family="sans-serif" font-size="12" lengthAdjust="spacingAndGlyphs" textLength="117" x="139" y="514.5195">Hotel and Restaurant</text><text fill="#000000" font-family="sans-serif" font-size="12" lengthAdjust="spacingAndGlyphs" textLength="31" x="258" y="514.5195">100.0</text><text fill="#0000FF" font-family="sans-serif" font-size="12" font-style="italic" lengthAdjust="spacingAndGlyphs" textLength="24" x="291" y="514.5195">26.0</text><text fill="#000000" font-family="sans-serif" font-size="12" lengthAdjust="spacingAndGlyphs" textLength="7" x="377" y="514.5195">3</text><text fill="#000000" font-family="sans-serif" font-size="12" lengthAdjust="spacingAndGlyphs" textLength="22" x="424" y="514.5195">Unit</text><text fill="#000000" font-family="sans-serif" font-size="12" lengthAdjust="spacingAndGlyphs" textLength="17" x="486" y="514.5195">2.5</text><text fill="#0000FF" font-family="sans-serif" font-size="12" font-style="italic" lengthAdjust="spacingAndGlyphs" textLength="31" x="618" y="514.5195">11.11</text><text fill="#0000FF" font-family="sans-serif" font-size="12" font-style="italic" lengthAdjust="spacingAndGlyphs" textLength="31" x="795" y="514.5195">500.0</text><text fill="#000000" font-family="sans-serif" font-size="12" lengthAdjust="spacingAndGlyphs" textLength="7" x="8" y="531.6133">1</text><text fill="#000000" font-family="sans-serif" font-size="12" lengthAdjust="spacingAndGlyphs" textLength="105" x="17" y="531.6133">Anba Iasann - PWT</text><text fill="#000000" font-family="sans-serif" font-size="12" lengthAdjust="spacingAndGlyphs" textLength="38" x="139" y="531.6133">market</text><text fill="#000000" font-family="sans-serif" font-size="12" lengthAdjust="spacingAndGlyphs" textLength="31" x="258" y="531.6133">100.0</text><text fill="#0000FF" font-family="sans-serif" font-size="12" font-style="italic" lengthAdjust="spacingAndGlyphs" textLength="31" x="291" y="531.6133">200.0</text><text fill="#000000" font-family="sans-serif" font-size="12" lengthAdjust="spacingAndGlyphs" textLength="14" x="377" y="531.6133">45</text><text fill="#000000" font-family="sans-serif" font-size="12" lengthAdjust="spacingAndGlyphs" textLength="22" x="424" y="531.6133">Unit</text><text fill="#000000" font-family="sans-serif" font-size="12" lengthAdjust="spacingAndGlyphs" textLength="17" x="486" y="531.6133">5.0</text><text fill="#0000FF" font-family="sans-serif" font-size="12" font-style="italic" lengthAdjust="spacingAndGlyphs" textLength="24" x="618" y="531.6133">67.0</text><text fill="#0000FF" font-family="sans-serif" font-size="12" font-style="italic" lengthAdjust="spacingAndGlyphs" textLength="31" x="795" y="531.6133">335.0</text><line style="stroke: #000000; stroke-width: 1.0;" x1="7" x2="16" y1="466.875" y2="466.875"/><line style="stroke: #000000; stroke-width: 1.0;" x1="16" x2="138" y1="466.875" y2="466.875"/><line style="stroke: #000000; stroke-width: 1.0;" x1="138" x2="257" y1="466.875" y2="466.875"/><line style="stroke: #000000; stroke-width: 1.0;" x1="257" x2="290" y1="466.875" y2="466.875"/><line style="stroke: #000000; stroke-width: 1.0;" x1="290" x2="376" y1="466.875" y2="466.875"/><line style="stroke: #000000; stroke-width: 1.0;" x1="376" x2="423" y1="466.875" y2="466.875"/><line style="stroke: #000000; stroke-width: 1.0;" x1="423" x2="485" y1="466.875" y2="466.875"/><line style="stroke: #000000; stroke-width: 1.0;" x1="485" x2="617" y1="466.875" y2="466.875"/><line style="stroke: #000000; stroke-width: 1.0;" x1="617" x2="794" y1="466.875" y2="466.875"/><line style="stroke: #000000; stroke-width: 1.0;" x1="794" x2="896" y1="466.875" y2="466.875"/><line style="stroke: #000000; stroke-width: 1.0;" x1="7" x2="16" y1="518.1563" y2="518.1563"/><line style="stroke: #000000; stroke-width: 1.0;" x1="16" x2="138" y1="518.1563" y2="518.1563"/><line style="stroke: #000000; stroke-width: 1.0;" x1="138" x2="257" y1="518.1563" y2="518.1563"/><line style="stroke: #000000; stroke-width: 1.0;" x1="257" x2="290" y1="518.1563" y2="518.1563"/><line style="stroke: #000000; stroke-width: 1.0;" x1="290" x2="376" y1="518.1563" y2="518.1563"/><line style="stroke: #000000; stroke-width: 1.0;" x1="376" x2="423" y1="518.1563" y2="518.1563"/><line style="stroke: #000000; stroke-width: 1.0;" x1="423" x2="485" y1="518.1563" y2="518.1563"/><line style="stroke: #000000; stroke-width: 1.0;" x1="485" x2="617" y1="518.1563" y2="518.1563"/><line style="stroke: #000000; stroke-width: 1.0;" x1="617" x2="794" y1="518.1563" y2="518.1563"/><line style="stroke: #000000; stroke-width: 1.0;" x1="794" x2="896" y1="518.1563" y2="518.1563"/><line style="stroke: #000000; stroke-width: 1.0;" x1="7" x2="16" y1="483.9688" y2="483.9688"/><line style="stroke: #000000; stroke-width: 1.0;" x1="16" x2="138" y1="483.9688" y2="483.9688"/><line style="stroke: #000000; stroke-width: 1.0;" x1="138" x2="257" y1="483.9688" y2="483.9688"/><line style="stroke: #000000; stroke-width: 1.0;" x1="257" x2="290" y1="483.9688" y2="483.9688"/><line style="stroke: #000000; stroke-width: 1.0;" x1="290" x2="376" y1="483.9688" y2="483.9688"/><line style="stroke: #000000; stroke-width: 1.0;" x1="376" x2="423" y1="483.9688" y2="483.9688"/><line style="stroke: #000000; stroke-width: 1.0;" x1="423" x2="485" y1="483.9688" y2="483.9688"/><line style="stroke: #000000; stroke-width: 1.0;" x1="485" x2="617" y1="483.9688" y2="483.9688"/><line style="stroke: #000000; stroke-width: 1.0;" x1="617" x2="794" y1="483.9688" y2="483.9688"/><line style="stroke: #000000; stroke-width: 1.0;" x1="794" x2="896" y1="483.9688" y2="483.9688"/><line style="stroke: #000000; stroke-width: 1.0;" x1="7" x2="16" y1="535.25" y2="535.25"/><line style="stroke: #000000; stroke-width: 1.0;" x1="16" x2="138" y1="535.25" y2="535.25"/><line style="stroke: #000000; stroke-width: 1.0;" x1="138" x2="257" y1="535.25" y2="535.25"/><line style="stroke: #000000; stroke-width: 1.0;" x1="257" x2="290" y1="535.25" y2="535.25"/><line style="stroke: #000000; stroke-width: 1.0;" x1="290" x2="376" y1="535.25" y2="535.25"/><line style="stroke: #000000; stroke-width: 1.0;" x1="376" x2="423" y1="535.25" y2="535.25"/><line style="stroke: #000000; stroke-width: 1.0;" x1="423" x2="485" y1="535.25" y2="535.25"/><line style="stroke: #000000; stroke-width: 1.0;" x1="485" x2="617" y1="535.25" y2="535.25"/><line style="stroke: #000000; stroke-width: 1.0;" x1="617" x2="794" y1="535.25" y2="535.25"/><line style="stroke: #000000; stroke-width: 1.0;" x1="794" x2="896" y1="535.25" y2="535.25"/><line style="stroke: #000000; stroke-width: 1.0;" x1="7" x2="16" y1="501.0625" y2="501.0625"/><line style="stroke: #000000; stroke-width: 1.0;" x1="16" x2="138" y1="501.0625" y2="501.0625"/><line style="stroke: #000000; stroke-width: 1.0;" x1="138" x2="257" y1="501.0625" y2="501.0625"/><line style="stroke: #000000; stroke-width: 1.0;" x1="257" x2="290" y1="501.0625" y2="501.0625"/><line style="stroke: #000000; stroke-width: 1.0;" x1="290" x2="376" y1="501.0625" y2="501.0625"/><line style="stroke: #000000; stroke-width: 1.0;" x1="376" x2="423" y1="501.0625" y2="501.0625"/><line style="stroke: #000000; stroke-width: 1.0;" x1="423" x2="485" y1="501.0625" y2="501.0625"/><line style="stroke: #000000; stroke-width: 1.0;" x1="485" x2="617" y1="501.0625" y2="501.0625"/><line style="stroke: #000000; stroke-width: 1.0;" x1="617" x2="794" y1="501.0625" y2="501.0625"/><line style="stroke: #000000; stroke-width: 1.0;" x1="794" x2="896" y1="501.0625" y2="501.0625"/><line style="stroke: #000000; stroke-width: 1.0;" x1="7" x2="7" y1="466.875" y2="483.9688"/><line style="stroke: #000000; stroke-width: 1.0;" x1="16" x2="16" y1="466.875" y2="483.9688"/><line style="stroke: #000000; stroke-width: 1.0;" x1="138" x2="138" y1="466.875" y2="483.9688"/><line style="stroke: #000000; stroke-width: 1.0;" x1="257" x2="257" y1="466.875" y2="483.9688"/><line style="stroke: #000000; stroke-width: 1.0;" x1="290" x2="290" y1="466.875" y2="483.9688"/><line style="stroke: #000000; stroke-width: 1.0;" x1="376" x2="376" y1="466.875" y2="483.9688"/><line style="stroke: #000000; stroke-width: 1.0;" x1="423" x2="423" y1="466.875" y2="483.9688"/><line style="stroke: #000000; stroke-width: 1.0;" x1="485" x2="485" y1="466.875" y2="483.9688"/><line style="stroke: #000000; stroke-width: 1.0;" x1="617" x2="617" y1="466.875" y2="483.9688"/><line style="stroke: #000000; stroke-width: 1.0;" x1="794" x2="794" y1="466.875" y2="483.9688"/><line style="stroke: #000000; stroke-width: 1.0;" x1="896" x2="896" y1="466.875" y2="483.9688"/><line style="stroke: #000000; stroke-width: 1.0;" x1="7" x2="7" y1="518.1563" y2="535.25"/><line style="stroke: #000000; stroke-width: 1.0;" x1="16" x2="16" y1="518.1563" y2="535.25"/><line style="stroke: #000000; stroke-width: 1.0;" x1="138" x2="138" y1="518.1563" y2="535.25"/><line style="stroke: #000000; stroke-width: 1.0;" x1="257" x2="257" y1="518.1563" y2="535.25"/><line style="stroke: #000000; stroke-width: 1.0;" x1="290" x2="290" y1="518.1563" y2="535.25"/><line style="stroke: #000000; stroke-width: 1.0;" x1="376" x2="376" y1="518.1563" y2="535.25"/><line style="stroke: #000000; stroke-width: 1.0;" x1="423" x2="423" y1="518.1563" y2="535.25"/><line style="stroke: #000000; stroke-width: 1.0;" x1="485" x2="485" y1="518.1563" y2="535.25"/><line style="stroke: #000000; stroke-width: 1.0;" x1="617" x2="617" y1="518.1563" y2="535.25"/><line style="stroke: #000000; stroke-width: 1.0;" x1="794" x2="794" y1="518.1563" y2="535.25"/><line style="stroke: #000000; stroke-width: 1.0;" x1="896" x2="896" y1="518.1563" y2="535.25"/><line style="stroke: #000000; stroke-width: 1.0;" x1="7" x2="7" y1="501.0625" y2="518.1563"/><line style="stroke: #000000; stroke-width: 1.0;" x1="16" x2="16" y1="501.0625" y2="518.1563"/><line style="stroke: #000000; stroke-width: 1.0;" x1="138" x2="138" y1="501.0625" y2="518.1563"/><line style="stroke: #000000; stroke-width: 1.0;" x1="257" x2="257" y1="501.0625" y2="518.1563"/><line style="stroke: #000000; stroke-width: 1.0;" x1="290" x2="290" y1="501.0625" y2="518.1563"/><line style="stroke: #000000; stroke-width: 1.0;" x1="376" x2="376" y1="501.0625" y2="518.1563"/><line style="stroke: #000000; stroke-width: 1.0;" x1="423" x2="423" y1="501.0625" y2="518.1563"/><line style="stroke: #000000; stroke-width: 1.0;" x1="485" x2="485" y1="501.0625" y2="518.1563"/><line style="stroke: #000000; stroke-width: 1.0;" x1="617" x2="617" y1="501.0625" y2="518.1563"/><line style="stroke: #000000; stroke-width: 1.0;" x1="794" x2="794" y1="501.0625" y2="518.1563"/><line style="stroke: #000000; stroke-width: 1.0;" x1="896" x2="896" y1="501.0625" y2="518.1563"/><line style="stroke: #000000; stroke-width: 1.0;" x1="7" x2="7" y1="483.9688" y2="501.0625"/><line style="stroke: #000000; stroke-width: 1.0;" x1="16" x2="16" y1="483.9688" y2="501.0625"/><line style="stroke: #000000; stroke-width: 1.0;" x1="138" x2="138" y1="483.9688" y2="501.0625"/><line style="stroke: #000000; stroke-width: 1.0;" x1="257" x2="257" y1="483.9688" y2="501.0625"/><line style="stroke: #000000; stroke-width: 1.0;" x1="290" x2="290" y1="483.9688" y2="501.0625"/><line style="stroke: #000000; stroke-width: 1.0;" x1="376" x2="376" y1="483.9688" y2="501.0625"/><line style="stroke: #000000; stroke-width: 1.0;" x1="423" x2="423" y1="483.9688" y2="501.0625"/><line style="stroke: #000000; stroke-width: 1.0;" x1="485" x2="485" y1="483.9688" y2="501.0625"/><line style="stroke: #000000; stroke-width: 1.0;" x1="617" x2="617" y1="483.9688" y2="501.0625"/><line style="stroke: #000000; stroke-width: 1.0;" x1="794" x2="794" y1="483.9688" y2="501.0625"/><line style="stroke: #000000; stroke-width: 1.0;" x1="896" x2="896" y1="483.9688" y2="501.0625"/><line style="stroke: #AAAAAA; stroke-width: 1.0;" x1="6" x2="898" y1="558.8438" y2="558.8438"/><line style="stroke: #AAAAAA; stroke-width: 1.0;" x1="899" x2="910" y1="558.8438" y2="558.8438"/><line style="stroke: #AAAAAA; stroke-width: 1.0; stroke-dasharray: 1.0,2.0;" x1="7" x2="646" y1="584.9375" y2="584.9375"/><text fill="#000000" font-family="sans-serif" font-size="12" font-weight="bold" lengthAdjust="spacingAndGlyphs" textLength="100" x="8" y="602.8945">Saisie des ventes</text><rect fill="#EEEEEE" height="19.0938" rx="5" ry="5" style="stroke: #000000; stroke-width: 2.5;" width="52" x="589.5" y="592.9375"/><text fill="#000000" font-family="sans-serif" font-size="12" lengthAdjust="spacingAndGlyphs" textLength="40" x="595.5" y="607.3945">Fermer</text><line style="stroke: #AAAAAA; stroke-width: 1.0; stroke-dasharray: 1.0,2.0;" x1="8" x2="586" y1="620.0313" y2="620.0313"/><text fill="#000000" font-family="sans-serif" font-size="12" lengthAdjust="spacingAndGlyphs" textLength="100" x="29" y="637.9883">Saisie par espèce</text><ellipse cx="16" cy="633.0781" fill="none" rx="5" ry="5" style="stroke: #000000; stroke-width: 1.5;"/><text fill="#000000" font-family="sans-serif" font-size="12" lengthAdjust="spacingAndGlyphs" textLength="97" x="151" y="637.9883">Saisie par paquet</text><ellipse cx="138" cy="633.0781" fill="none" rx="5" ry="5" style="stroke: #000000; stroke-width: 1.5;"/><ellipse cx="138" cy="633.0781" fill="#000000" rx="2" ry="2" style="stroke: #000000; stroke-width: 1.5;"/><text fill="#000000" font-family="sans-serif" font-size="12" lengthAdjust="spacingAndGlyphs" textLength="39" x="9" y="674.1758">Paquet</text><rect fill="#EEEEEE" height="18.0938" style="stroke: #000000; stroke-width: 1.0;" width="119" x="181" y="662.7188"/><text fill="#000000" font-family="sans-serif" font-size="12" lengthAdjust="spacingAndGlyphs" textLength="7" x="183" y="677.1758">1</text><line style="stroke: #000000; stroke-width: 1.0;" x1="289" x2="289" y1="662.7188" y2="680.8125"/><polygon fill="#000000" points="292,668.7188,298,668.7188,295,675.8125" style="stroke: #000000; stroke-width: 1.0;"/><text fill="#008000" font-family="sans-serif" font-size="12" font-style="italic" lengthAdjust="spacingAndGlyphs" textLength="84" x="500" y="674.1758">(i) Composition</text><text fill="#000000" font-family="sans-serif" font-size="12" lengthAdjust="spacingAndGlyphs" textLength="75" x="9" y="697.2695">Type de vente</text><rect fill="#EEEEEE" height="18.0938" style="stroke: #000000; stroke-width: 1.0;" width="119" x="181" y="685.8125"/><text fill="#000000" font-family="sans-serif" font-size="12" lengthAdjust="spacingAndGlyphs" textLength="67" x="183" y="700.2695">Fishmonger</text><line style="stroke: #000000; stroke-width: 1.0;" x1="289" x2="289" y1="685.8125" y2="703.9063"/><polygon fill="#000000" points="292,691.8125,298,691.8125,295,698.9063" style="stroke: #000000; stroke-width: 1.0;"/><text fill="#000000" font-family="sans-serif" font-size="12" lengthAdjust="spacingAndGlyphs" textLength="106" x="323" y="698.2695">Conserver la valeur</text><rect fill="none" height="10" style="stroke: #000000; stroke-width: 1.5;" width="10" x="305" y="688.3594"/><polygon fill="#000000" points="306,691.8125,309,694.8125,316,685.8125,309,692.8125" style="stroke: #000000; stroke-width: 1.5;"/><text fill="#000000" font-family="sans-serif" font-size="12" lengthAdjust="spacingAndGlyphs" textLength="116" x="9" y="720.3633">Nombre de paquets :</text><text fill="#000000" font-family="sans-serif" font-size="12" lengthAdjust="spacingAndGlyphs" textLength="7" x="184" y="721.3633">5</text><line style="stroke: #000000; stroke-width: 1.0;" x1="182" x2="289" y1="724" y2="724"/><line style="stroke: #000000; stroke-width: 1.0;" x1="182" x2="182" y1="721" y2="723"/><line style="stroke: #000000; stroke-width: 1.0;" x1="289" x2="289" y1="721" y2="723"/><text fill="#000000" font-family="sans-serif" font-size="12" lengthAdjust="spacingAndGlyphs" textLength="59" x="9" y="741.457">Poids (kg):</text><text fill="#000000" font-family="sans-serif" font-size="12" lengthAdjust="spacingAndGlyphs" textLength="31" x="184" y="742.457">484.0</text><line style="stroke: #000000; stroke-width: 1.0;" x1="182" x2="321" y1="745.0938" y2="745.0938"/><line style="stroke: #000000; stroke-width: 1.0;" x1="182" x2="182" y1="742.0938" y2="744.0938"/><line style="stroke: #000000; stroke-width: 1.0;" x1="321" x2="321" y1="742.0938" y2="744.0938"/><text fill="#000000" font-family="sans-serif" font-size="12" lengthAdjust="spacingAndGlyphs" textLength="169" x="9" y="762.5508">Prix moyen (Devise/packaging)</text><text fill="#000000" font-family="sans-serif" font-size="12" lengthAdjust="spacingAndGlyphs" textLength="24" x="184" y="763.5508">20.0</text><line style="stroke: #000000; stroke-width: 1.0;" x1="182" x2="225" y1="766.1875" y2="766.1875"/><line style="stroke: #000000; stroke-width: 1.0;" x1="182" x2="182" y1="763.1875" y2="765.1875"/><line style="stroke: #000000; stroke-width: 1.0;" x1="225" x2="225" y1="763.1875" y2="765.1875"/><text fill="#000000" font-family="sans-serif" font-size="12" lengthAdjust="spacingAndGlyphs" textLength="95" x="9" y="783.6445">Prix total (Devise)</text><text fill="#0000FF" font-family="sans-serif" font-size="12" font-style="italic" lengthAdjust="spacingAndGlyphs" textLength="31" x="184" y="784.6445">100.0</text><line style="stroke: #000000; stroke-width: 1.0;" x1="182" x2="345" y1="787.2813" y2="787.2813"/><line style="stroke: #000000; stroke-width: 1.0;" x1="182" x2="182" y1="784.2813" y2="786.2813"/><line style="stroke: #000000; stroke-width: 1.0;" x1="345" x2="345" y1="784.2813" y2="786.2813"/><rect fill="#EEEEEE" height="19.0938" rx="5" ry="5" style="stroke: #000000; stroke-width: 2.5;" width="148" x="183.5" y="812.875"/><text fill="#000000" font-family="sans-serif" font-size="12" lengthAdjust="spacingAndGlyphs" textLength="92" x="211.5" y="827.332">Valider (= Entrer)</text><rect fill="#EEEEEE" height="19.0938" rx="5" ry="5" style="stroke: #000000; stroke-width: 2.5;" width="156" x="338.5" y="812.875"/><text fill="#000000" font-family="sans-serif" font-size="12" lengthAdjust="spacingAndGlyphs" textLength="104" x="364.5" y="827.332">Annuler la dernière</text><line style="stroke: #AAAAAA; stroke-width: 1.0;" x1="9" x2="179" y1="840.9688" y2="840.9688"/><line style="stroke: #AAAAAA; stroke-width: 1.0;" x1="180" x2="499" y1="840.9688" y2="840.9688"/><line style="stroke: #000000; stroke-width: 1.0;" x1="7" x2="586" y1="589.4375" y2="589.4375"/><line style="stroke: #000000; stroke-width: 1.0;" x1="586" x2="645" y1="589.4375" y2="589.4375"/><line style="stroke: #000000; stroke-width: 1.0;" x1="7" x2="586" y1="862.5625" y2="862.5625"/><line style="stroke: #000000; stroke-width: 1.0;" x1="586" x2="645" y1="862.5625" y2="862.5625"/><line style="stroke: #000000; stroke-width: 1.0;" x1="7" x2="7" y1="589.4375" y2="615.5313"/><line style="stroke: #000000; stroke-width: 1.0;" x1="645" x2="645" y1="623.5313" y2="642.625"/><line style="stroke: #000000; stroke-width: 1.0;" x1="645" x2="645" y1="615.5313" y2="623.5313"/><line style="stroke: #000000; stroke-width: 1.0;" x1="645" x2="645" y1="589.4375" y2="615.5313"/><line style="stroke: #000000; stroke-width: 1.0;" x1="7" x2="7" y1="642.625" y2="862.5625"/><line style="stroke: #000000; stroke-width: 1.0;" x1="7" x2="7" y1="623.5313" y2="642.625"/><line style="stroke: #000000; stroke-width: 1.0;" x1="7" x2="7" y1="615.5313" y2="623.5313"/><line style="stroke: #000000; stroke-width: 1.0;" x1="645" x2="645" y1="642.625" y2="862.5625"/><line style="stroke: #AAAAAA; stroke-width: 1.0; stroke-dasharray: 1.0,2.0;" x1="8" x2="19" y1="869.0625" y2="869.0625"/><text fill="#000000" font-family="sans-serif" font-size="12" lengthAdjust="spacingAndGlyphs" textLength="7" x="8" y="905.1133">#</text><text fill="#000000" font-family="sans-serif" font-size="12" font-weight="bold" lengthAdjust="spacingAndGlyphs" textLength="11" x="17" y="905.1133">ID</text><text fill="#000000" font-family="sans-serif" font-size="12" font-weight="bold" lengthAdjust="spacingAndGlyphs" textLength="32" x="30" y="905.1133">Detail</text><text fill="#000000" font-family="sans-serif" font-size="12" font-weight="bold" lengthAdjust="spacingAndGlyphs" textLength="78" x="64" y="905.1133">Type de vente</text><text fill="#000000" font-family="sans-serif" font-size="12" font-weight="bold" lengthAdjust="spacingAndGlyphs" textLength="120" x="144" y="905.1133">Nombre de paquets*)</text><text fill="#000000" font-family="sans-serif" font-size="12" font-weight="bold" lengthAdjust="spacingAndGlyphs" textLength="62" x="269" y="905.1133">Poids (kg)*</text><text fill="#000000" font-family="sans-serif" font-size="12" font-weight="bold" lengthAdjust="spacingAndGlyphs" textLength="155" x="333" y="905.1133">Prix moyen (Devise/paquet)</text><text fill="#000000" font-family="sans-serif" font-size="12" font-weight="bold" lengthAdjust="spacingAndGlyphs" textLength="100" x="490" y="905.1133">Prix total (Devise)</text><text fill="#000000" font-family="sans-serif" font-size="12" lengthAdjust="spacingAndGlyphs" textLength="7" x="8" y="922.207">1</text><text fill="#000000" font-family="sans-serif" font-size="12" lengthAdjust="spacingAndGlyphs" textLength="7" x="17" y="922.207">1</text><path d="M31.094,909.75 C31.034,909.75 31,909.784 31,909.844 L31,915.657 C31,915.717 31.034,915.751 31.094,915.751 L37,915.751 L39,917.751 L39,909.845 C39,909.785 38.966,909.751 38.906,909.751 L31.093,909.751 " fill="#000000" style="stroke: ; stroke-width: 0.0; stroke-dasharray: ;"/><text fill="#000000" font-family="sans-serif" font-size="12" lengthAdjust="spacingAndGlyphs" textLength="67" x="64" y="922.207">Fishmonger</text><text fill="#000000" font-family="sans-serif" font-size="12" lengthAdjust="spacingAndGlyphs" textLength="7" x="144" y="922.207">5</text><text fill="#000000" font-family="sans-serif" font-size="12" lengthAdjust="spacingAndGlyphs" textLength="31" x="266" y="922.207">484.0</text><text fill="#000000" font-family="sans-serif" font-size="12" lengthAdjust="spacingAndGlyphs" textLength="24" x="333" y="922.207">20.0</text><text fill="#0000FF" font-family="sans-serif" font-size="12" font-style="italic" lengthAdjust="spacingAndGlyphs" textLength="31" x="490" y="922.207">100.0</text><line style="stroke: #000000; stroke-width: 1.0;" x1="7" x2="16" y1="891.6563" y2="891.6563"/><line style="stroke: #000000; stroke-width: 1.0;" x1="29" x2="63" y1="925.8438" y2="925.8438"/><line style="stroke: #000000; stroke-width: 1.0;" x1="16" x2="29" y1="891.6563" y2="891.6563"/><line style="stroke: #000000; stroke-width: 1.0;" x1="63" x2="143" y1="925.8438" y2="925.8438"/><line style="stroke: #000000; stroke-width: 1.0;" x1="29" x2="63" y1="891.6563" y2="891.6563"/><line style="stroke: #000000; stroke-width: 1.0;" x1="143" x2="265" y1="925.8438" y2="925.8438"/><line style="stroke: #000000; stroke-width: 1.0;" x1="63" x2="143" y1="891.6563" y2="891.6563"/><line style="stroke: #000000; stroke-width: 1.0;" x1="265" x2="332" y1="925.8438" y2="925.8438"/><line style="stroke: #000000; stroke-width: 1.0;" x1="143" x2="265" y1="891.6563" y2="891.6563"/><line style="stroke: #000000; stroke-width: 1.0;" x1="332" x2="489" y1="925.8438" y2="925.8438"/><line style="stroke: #000000; stroke-width: 1.0;" x1="265" x2="332" y1="891.6563" y2="891.6563"/><line style="stroke: #000000; stroke-width: 1.0;" x1="489" x2="591" y1="925.8438" y2="925.8438"/><line style="stroke: #000000; stroke-width: 1.0;" x1="332" x2="489" y1="891.6563" y2="891.6563"/><line style="stroke: #000000; stroke-width: 1.0;" x1="489" x2="591" y1="891.6563" y2="891.6563"/><line style="stroke: #000000; stroke-width: 1.0;" x1="7" x2="16" y1="908.75" y2="908.75"/><line style="stroke: #000000; stroke-width: 1.0;" x1="16" x2="29" y1="908.75" y2="908.75"/><line style="stroke: #000000; stroke-width: 1.0;" x1="29" x2="63" y1="908.75" y2="908.75"/><line style="stroke: #000000; stroke-width: 1.0;" x1="63" x2="143" y1="908.75" y2="908.75"/><line style="stroke: #000000; stroke-width: 1.0;" x1="143" x2="265" y1="908.75" y2="908.75"/><line style="stroke: #000000; stroke-width: 1.0;" x1="265" x2="332" y1="908.75" y2="908.75"/><line style="stroke: #000000; stroke-width: 1.0;" x1="332" x2="489" y1="908.75" y2="908.75"/><line style="stroke: #000000; stroke-width: 1.0;" x1="489" x2="591" y1="908.75" y2="908.75"/><line style="stroke: #000000; stroke-width: 1.0;" x1="7" x2="16" y1="925.8438" y2="925.8438"/><line style="stroke: #000000; stroke-width: 1.0;" x1="16" x2="29" y1="925.8438" y2="925.8438"/><line style="stroke: #000000; stroke-width: 1.0;" x1="7" x2="7" y1="891.6563" y2="908.75"/><line style="stroke: #000000; stroke-width: 1.0;" x1="16" x2="16" y1="891.6563" y2="908.75"/><line style="stroke: #000000; stroke-width: 1.0;" x1="29" x2="29" y1="891.6563" y2="908.75"/><line style="stroke: #000000; stroke-width: 1.0;" x1="63" x2="63" y1="891.6563" y2="908.75"/><line style="stroke: #000000; stroke-width: 1.0;" x1="143" x2="143" y1="891.6563" y2="908.75"/><line style="stroke: #000000; stroke-width: 1.0;" x1="265" x2="265" y1="891.6563" y2="908.75"/><line style="stroke: #000000; stroke-width: 1.0;" x1="332" x2="332" y1="891.6563" y2="908.75"/><line style="stroke: #000000; stroke-width: 1.0;" x1="489" x2="489" y1="891.6563" y2="908.75"/><line style="stroke: #000000; stroke-width: 1.0;" x1="591" x2="591" y1="891.6563" y2="908.75"/><line style="stroke: #000000; stroke-width: 1.0;" x1="7" x2="7" y1="908.75" y2="925.8438"/><line style="stroke: #000000; stroke-width: 1.0;" x1="16" x2="16" y1="908.75" y2="925.8438"/><line style="stroke: #000000; stroke-width: 1.0;" x1="29" x2="29" y1="908.75" y2="925.8438"/><line style="stroke: #000000; stroke-width: 1.0;" x1="63" x2="63" y1="908.75" y2="925.8438"/><line style="stroke: #000000; stroke-width: 1.0;" x1="143" x2="143" y1="908.75" y2="925.8438"/><line style="stroke: #000000; stroke-width: 1.0;" x1="265" x2="265" y1="908.75" y2="925.8438"/><line style="stroke: #000000; stroke-width: 1.0;" x1="332" x2="332" y1="908.75" y2="925.8438"/><line style="stroke: #000000; stroke-width: 1.0;" x1="489" x2="489" y1="908.75" y2="925.8438"/><line style="stroke: #000000; stroke-width: 1.0;" x1="591" x2="591" y1="908.75" y2="925.8438"/><line style="stroke: #AAAAAA; stroke-width: 1.0;" x1="6" x2="898" y1="949.4375" y2="949.4375"/><line style="stroke: #AAAAAA; stroke-width: 1.0;" x1="899" x2="910" y1="949.4375" y2="949.4375"/><rect fill="#EEEEEE" height="19.0938" rx="5" ry="5" style="stroke: #000000; stroke-width: 2.5;" width="260" x="10.5" y="958.4375"/><text fill="#000000" font-family="sans-serif" font-size="12" lengthAdjust="spacingAndGlyphs" textLength="170" x="55.5" y="972.8945">Fermer et retour à l'observation</text><rect fill="#EEEEEE" height="19.0938" rx="5" ry="5" style="stroke: #000000; stroke-width: 2.5;" width="156" x="277.5" y="958.4375"/><text fill="#000000" font-family="sans-serif" font-size="12" lengthAdjust="spacingAndGlyphs" textLength="111" x="300" y="972.8945">Saisir les dépenses</text></g></svg>