<?xml version="1.0" encoding="UTF-8" standalone="no"?><svg xmlns="http://www.w3.org/2000/svg" xmlns:xlink="http://www.w3.org/1999/xlink" contentScriptType="application/ecmascript" contentStyleType="text/css" height="250px" preserveAspectRatio="none" style="width:321px;height:250px;" version="1.1" viewBox="0 0 321 250" width="321px" zoomAndPan="magnify"><defs/><g><text fill="#000000" font-family="sans-serif" font-size="12" font-weight="bold" lengthAdjust="spacingAndGlyphs" textLength="103" x="6" y="18.457">Metier(s) utilisé(s)</text><line style="stroke: #AAAAAA; stroke-width: 1.0; stroke-dasharray: 1.0,2.0;" x1="6" x2="314" y1="26.5938" y2="26.5938"/><text fill="#000000" font-family="sans-serif" font-size="12" lengthAdjust="spacingAndGlyphs" textLength="277" x="26" y="43.5508">Filtrer sur les métiers utilisés les 12 derniers mois</text><rect fill="none" height="10" style="stroke: #000000; stroke-width: 1.5;" width="10" x="8" y="33.6406"/><path d="M9.344,66.2813 A0.502,0.502 0 0 0 9.5,67.2813 L10,67.2813 L10,68.6873 C9.912,68.8593 8.806,71.0003 8.344,71.7813 C8.191,72.0493 8,72.3933 8,72.8443 C8,73.2273 8.139,73.6083 8.406,73.8753 C8.666,74.1353 9.049,74.2813 9.437,74.2813 L14.562,74.2813 C14.945,74.2813 15.326,74.1423 15.593,73.8753 C15.853,73.6153 15.999,73.2323 15.999,72.8443 C15.999,72.3923 15.805,72.0433 15.655,71.7813 C15.192,71.0013 14.087,68.8593 13.999,68.6873 L13.999,67.2813 L14.499,67.2813 A0.5,0.5 0 1 0 14.499,66.2813 L9.499,66.2813 A0.5,0.5 0 0 0 9.405,66.2813 A0.502,0.502 0 0 0 9.342,66.2813 M10.998,67.2813 L12.998,67.2813 L12.998,68.9063 L13.061,69.0003 C13.713,70.2333 13.713,70.2333 14.28,71.2813 L9.717,71.2813 C10.284,70.2323 10.936,69.0003 10.936,69.0003 L10.999,68.9063 L10.999,67.2813 " fill="#000000" style="stroke: ; stroke-width: 0.0; stroke-dasharray: ;"/><text fill="#000000" font-family="sans-serif" font-size="12" lengthAdjust="spacingAndGlyphs" textLength="0" x="26" y="79.7383"/><line style="stroke: #000000; stroke-width: 1.0;" x1="21" x2="264" y1="82.375" y2="82.375"/><line style="stroke: #000000; stroke-width: 1.0;" x1="21" x2="21" y1="79.375" y2="81.375"/><line style="stroke: #000000; stroke-width: 1.0;" x1="264" x2="264" y1="79.375" y2="81.375"/><line style="stroke: #000000; stroke-width: 1.0;" x1="19" x2="267" y1="66.2813" y2="66.2813"/><line style="stroke: #000000; stroke-width: 1.0;" x1="19" x2="267" y1="85.375" y2="85.375"/><line style="stroke: #000000; stroke-width: 1.0;" x1="19" x2="19" y1="66.2813" y2="85.375"/><line style="stroke: #000000; stroke-width: 1.0;" x1="267" x2="267" y1="66.2813" y2="85.375"/><path d="M272,66.2813 L272,72.2813 L270,72.2813 L272.5,74.2813 L275,72.2813 L273,72.2813 L273,66.2813 L272,66.2813 M274,66.2813 L274,67.2813 L276,67.2813 L276,66.2813 L274,66.2813 M274,68.2813 L274,69.2813 L277,69.2813 L277,68.2813 L274,68.2813 M274,70.2813 L274,71.2813 L278,71.2813 L278,70.2813 L274,70.2813 " fill="#000000" style="stroke: ; stroke-width: 0.0; stroke-dasharray: ;"/><text fill="#000000" font-family="sans-serif" font-size="12" lengthAdjust="spacingAndGlyphs" textLength="131" x="8" y="119.9258">AQUCUX - Acquaculture</text><text fill="#000000" font-family="sans-serif" font-size="12" lengthAdjust="spacingAndGlyphs" textLength="90" x="8" y="137.0195">FIXAEMP - Active</text><text fill="#000000" font-family="sans-serif" font-size="12" lengthAdjust="spacingAndGlyphs" textLength="113" x="8" y="154.1133">FIXALUB - Active trap</text><text fill="#000000" font-family="sans-serif" font-size="12" lengthAdjust="spacingAndGlyphs" textLength="112" x="8" y="171.207">FIXSBSX - Static trap</text><text fill="#000000" font-family="sans-serif" font-size="12" lengthAdjust="spacingAndGlyphs" textLength="127" x="8" y="188.3008">GHTRAQ - Hoop/tangel</text><text fill="#000000" font-family="sans-serif" font-size="12" lengthAdjust="spacingAndGlyphs" textLength="116" x="8" y="205.3945">GNCCGX - Encircling</text><text fill="#000000" font-family="sans-serif" font-size="12" lengthAdjust="spacingAndGlyphs" textLength="117" x="8" y="222.4883">LHMEMP - Handlines</text><text fill="#000000" font-family="sans-serif" font-size="12" lengthAdjust="spacingAndGlyphs" textLength="115" x="8" y="239.582">LHPDPX - Handlines</text><line style="stroke: #000000; stroke-width: 1.0;" x1="7" x2="140" y1="106.4688" y2="106.4688"/><line style="stroke: #000000; stroke-width: 1.0;" x1="7" x2="140" y1="243.2188" y2="243.2188"/><line style="stroke: #000000; stroke-width: 1.0;" x1="7" x2="7" y1="106.4688" y2="123.5625"/><line style="stroke: #000000; stroke-width: 1.0;" x1="140" x2="140" y1="106.4688" y2="123.5625"/><line style="stroke: #000000; stroke-width: 1.0;" x1="7" x2="7" y1="226.125" y2="243.2188"/><line style="stroke: #000000; stroke-width: 1.0;" x1="140" x2="140" y1="226.125" y2="243.2188"/><line style="stroke: #000000; stroke-width: 1.0;" x1="7" x2="7" y1="191.9375" y2="209.0313"/><line style="stroke: #000000; stroke-width: 1.0;" x1="140" x2="140" y1="191.9375" y2="209.0313"/><line style="stroke: #000000; stroke-width: 1.0;" x1="7" x2="7" y1="157.75" y2="174.8438"/><line style="stroke: #000000; stroke-width: 1.0;" x1="140" x2="140" y1="157.75" y2="174.8438"/><line style="stroke: #000000; stroke-width: 1.0;" x1="7" x2="7" y1="123.5625" y2="140.6563"/><line style="stroke: #000000; stroke-width: 1.0;" x1="140" x2="140" y1="123.5625" y2="140.6563"/><line style="stroke: #000000; stroke-width: 1.0;" x1="7" x2="7" y1="209.0313" y2="226.125"/><line style="stroke: #000000; stroke-width: 1.0;" x1="140" x2="140" y1="209.0313" y2="226.125"/><line style="stroke: #000000; stroke-width: 1.0;" x1="7" x2="7" y1="174.8438" y2="191.9375"/><line style="stroke: #000000; stroke-width: 1.0;" x1="140" x2="140" y1="174.8438" y2="191.9375"/><line style="stroke: #000000; stroke-width: 1.0;" x1="7" x2="7" y1="140.6563" y2="157.75"/><line style="stroke: #000000; stroke-width: 1.0;" x1="140" x2="140" y1="140.6563" y2="157.75"/><text fill="#000000" font-family="sans-serif" font-size="12" lengthAdjust="spacingAndGlyphs" textLength="7" x="142" y="118.9258">&lt;</text><text fill="#000000" font-family="sans-serif" font-size="12" lengthAdjust="spacingAndGlyphs" textLength="17" x="151" y="118.9258">- . -</text><text fill="#000000" font-family="sans-serif" font-size="12" lengthAdjust="spacingAndGlyphs" textLength="7" x="170" y="118.9258">&gt;</text><text fill="#000000" font-family="sans-serif" font-size="12" lengthAdjust="spacingAndGlyphs" textLength="131" x="180" y="119.9258">AQUCUX - Acquaculture</text><text fill="#000000" font-family="sans-serif" font-size="12" lengthAdjust="spacingAndGlyphs" textLength="112" x="180" y="137.0195">FIXSBSX - Static trap</text><line style="stroke: #000000; stroke-width: 1.0;" x1="179" x2="312" y1="106.4688" y2="106.4688"/><line style="stroke: #000000; stroke-width: 1.0;" x1="179" x2="312" y1="140.6563" y2="140.6563"/><line style="stroke: #000000; stroke-width: 1.0;" x1="179" x2="179" y1="106.4688" y2="123.5625"/><line style="stroke: #000000; stroke-width: 1.0;" x1="312" x2="312" y1="123.5625" y2="140.6563"/><line style="stroke: #000000; stroke-width: 1.0;" x1="312" x2="312" y1="106.4688" y2="123.5625"/><line style="stroke: #000000; stroke-width: 1.0;" x1="179" x2="179" y1="123.5625" y2="140.6563"/></g></svg>