<?xml version="1.0" encoding="UTF-8" standalone="no"?><svg xmlns="http://www.w3.org/2000/svg" xmlns:xlink="http://www.w3.org/1999/xlink" contentScriptType="application/ecmascript" contentStyleType="text/css" height="462px" preserveAspectRatio="none" style="width:586px;height:462px;" version="1.1" viewBox="0 0 586 462" width="586px" zoomAndPan="magnify"><defs/><g><text fill="#000000" font-family="sans-serif" font-size="12" font-weight="bold" lengthAdjust="spacingAndGlyphs" textLength="202" x="9" y="18.457">Immat Navire - Lieu - Date fin marée</text><line style="stroke: #AAAAAA; stroke-width: 1.0; stroke-dasharray: 1.0,2.0;" x1="6" x2="388" y1="26.5938" y2="26.5938"/><text fill="#000000" font-family="sans-serif" font-size="12" lengthAdjust="spacingAndGlyphs" textLength="90" x="6" y="60.6445">Code du metier*</text><rect fill="#EEEEEE" height="18.0938" style="stroke: #000000; stroke-width: 1.0;" width="175" x="390" y="49.1875"/><text fill="#000000" font-family="sans-serif" font-size="12" lengthAdjust="spacingAndGlyphs" textLength="113" x="392" y="63.6445">LLSKH - Longlines...</text><line style="stroke: #000000; stroke-width: 1.0;" x1="554" x2="554" y1="49.1875" y2="67.2813"/><polygon fill="#000000" points="557,55.1875,563,55.1875,560,62.2813" style="stroke: #000000; stroke-width: 1.0;"/><text fill="#000000" font-family="sans-serif" font-size="12" lengthAdjust="spacingAndGlyphs" textLength="105" x="6" y="83.7383">Numéro du métier*</text><text fill="#000000" font-family="sans-serif" font-size="12" lengthAdjust="spacingAndGlyphs" textLength="7" x="393" y="84.7383">3</text><line style="stroke: #000000; stroke-width: 1.0;" x1="391" x2="418" y1="87.375" y2="87.375"/><line style="stroke: #000000; stroke-width: 1.0;" x1="391" x2="391" y1="84.375" y2="86.375"/><line style="stroke: #000000; stroke-width: 1.0;" x1="418" x2="418" y1="84.375" y2="86.375"/><text fill="#000000" font-family="sans-serif" font-size="12" font-weight="bold" lengthAdjust="spacingAndGlyphs" textLength="138" x="6" y="121.9258">Autres caractéristiques:</text><text fill="#000000" font-family="sans-serif" font-size="12" lengthAdjust="spacingAndGlyphs" textLength="93" x="6" y="139.0195">Nombre d'engin*</text><text fill="#000000" font-family="sans-serif" font-size="12" lengthAdjust="spacingAndGlyphs" textLength="7" x="393" y="140.0195">5</text><line style="stroke: #000000; stroke-width: 1.0;" x1="391" x2="418" y1="142.6563" y2="142.6563"/><line style="stroke: #000000; stroke-width: 1.0;" x1="391" x2="391" y1="139.6563" y2="141.6563"/><line style="stroke: #000000; stroke-width: 1.0;" x1="418" x2="418" y1="139.6563" y2="141.6563"/><text fill="#000000" font-family="sans-serif" font-size="12" lengthAdjust="spacingAndGlyphs" textLength="152" x="6" y="177.207">Paramètre propre à l'engin :</text><text fill="#000000" font-family="sans-serif" font-size="12" font-style="italic" lengthAdjust="spacingAndGlyphs" textLength="381" x="6" y="194.3008">(le paramètre adapté s'affiche en fonction du type d'engin sélectionné)</text><ellipse cx="11.5" cy="206.5313" fill="#000000" rx="2.5" ry="2.5" style="stroke: #000000; stroke-width: 0.0;"/><text fill="#000000" font-family="sans-serif" font-size="12" lengthAdjust="spacingAndGlyphs" textLength="116" x="17" y="211.3945">Nombre d'hameçons</text><text fill="#000000" font-family="sans-serif" font-size="12" lengthAdjust="spacingAndGlyphs" textLength="14" x="393" y="212.3945">10</text><line style="stroke: #000000; stroke-width: 1.0;" x1="391" x2="426" y1="215.0313" y2="215.0313"/><line style="stroke: #000000; stroke-width: 1.0;" x1="391" x2="391" y1="212.0313" y2="214.0313"/><line style="stroke: #000000; stroke-width: 1.0;" x1="426" x2="426" y1="212.0313" y2="214.0313"/><ellipse cx="11.5" cy="227.625" fill="#000000" rx="2.5" ry="2.5" style="stroke: #000000; stroke-width: 0.0;"/><text fill="#000000" font-family="sans-serif" font-size="12" lengthAdjust="spacingAndGlyphs" textLength="106" x="17" y="232.4883">Nombre de casiers</text><text fill="#000000" font-family="sans-serif" font-size="12" lengthAdjust="spacingAndGlyphs" textLength="7" x="393" y="233.4883">3</text><line style="stroke: #000000; stroke-width: 1.0;" x1="391" x2="418" y1="236.125" y2="236.125"/><line style="stroke: #000000; stroke-width: 1.0;" x1="391" x2="391" y1="233.125" y2="235.125"/><line style="stroke: #000000; stroke-width: 1.0;" x1="418" x2="418" y1="233.125" y2="235.125"/><ellipse cx="11.5" cy="248.7188" fill="#000000" rx="2.5" ry="2.5" style="stroke: #000000; stroke-width: 0.0;"/><text fill="#000000" font-family="sans-serif" font-size="12" lengthAdjust="spacingAndGlyphs" textLength="114" x="17" y="253.582">Longueur de filet (m)</text><text fill="#000000" font-family="sans-serif" font-size="12" lengthAdjust="spacingAndGlyphs" textLength="14" x="393" y="254.582">30</text><line style="stroke: #000000; stroke-width: 1.0;" x1="391" x2="426" y1="257.2188" y2="257.2188"/><line style="stroke: #000000; stroke-width: 1.0;" x1="391" x2="391" y1="254.2188" y2="256.2188"/><line style="stroke: #000000; stroke-width: 1.0;" x1="426" x2="426" y1="254.2188" y2="256.2188"/><text fill="#000000" font-family="sans-serif" font-size="12" lengthAdjust="spacingAndGlyphs" textLength="219" x="6" y="291.7695">Temps passé à pêcher (en jour de mer)</text><text fill="#000000" font-family="sans-serif" font-size="12" font-style="italic" lengthAdjust="spacingAndGlyphs" textLength="97" x="228" y="291.7695">(1 jour par défaut)</text><text fill="#000000" font-family="sans-serif" font-size="12" lengthAdjust="spacingAndGlyphs" textLength="7" x="393" y="292.7695">1</text><line style="stroke: #000000; stroke-width: 1.0;" x1="391" x2="434" y1="295.4063" y2="295.4063"/><line style="stroke: #000000; stroke-width: 1.0;" x1="391" x2="391" y1="292.4063" y2="294.4063"/><line style="stroke: #000000; stroke-width: 1.0;" x1="434" x2="434" y1="292.4063" y2="294.4063"/><text fill="#000000" font-family="sans-serif" font-size="12" lengthAdjust="spacingAndGlyphs" textLength="36" x="438" y="292.7695">jour(s)</text><text fill="#000000" font-family="sans-serif" font-size="12" lengthAdjust="spacingAndGlyphs" textLength="7" x="479" y="292.7695">0</text><line style="stroke: #000000; stroke-width: 1.0;" x1="477" x2="520" y1="295.4063" y2="295.4063"/><line style="stroke: #000000; stroke-width: 1.0;" x1="477" x2="477" y1="292.4063" y2="294.4063"/><line style="stroke: #000000; stroke-width: 1.0;" x1="520" x2="520" y1="292.4063" y2="294.4063"/><text fill="#000000" font-family="sans-serif" font-size="12" lengthAdjust="spacingAndGlyphs" textLength="53" x="524" y="292.7695">minute(s)</text><text fill="#000000" font-family="sans-serif" font-size="12" lengthAdjust="spacingAndGlyphs" textLength="249" x="6" y="312.8633">Profondeur minimum de pêche de l'engin (m)</text><text fill="#000000" font-family="sans-serif" font-size="12" lengthAdjust="spacingAndGlyphs" textLength="14" x="393" y="313.8633">25</text><line style="stroke: #000000; stroke-width: 1.0;" x1="391" x2="426" y1="316.5" y2="316.5"/><line style="stroke: #000000; stroke-width: 1.0;" x1="391" x2="391" y1="313.5" y2="315.5"/><line style="stroke: #000000; stroke-width: 1.0;" x1="426" x2="426" y1="313.5" y2="315.5"/><text fill="#000000" font-family="sans-serif" font-size="12" lengthAdjust="spacingAndGlyphs" textLength="251" x="6" y="333.957">Profondeur maximum de pêche de l'engin (m)</text><text fill="#000000" font-family="sans-serif" font-size="12" lengthAdjust="spacingAndGlyphs" textLength="14" x="393" y="334.957">40</text><line style="stroke: #000000; stroke-width: 1.0;" x1="391" x2="426" y1="337.5938" y2="337.5938"/><line style="stroke: #000000; stroke-width: 1.0;" x1="391" x2="391" y1="334.5938" y2="336.5938"/><line style="stroke: #000000; stroke-width: 1.0;" x1="426" x2="426" y1="334.5938" y2="336.5938"/><text fill="#000000" font-family="sans-serif" font-size="12" lengthAdjust="spacingAndGlyphs" textLength="83" x="6" y="372.1445">Commentaires</text><text fill="#000000" font-family="sans-serif" font-size="12" lengthAdjust="spacingAndGlyphs" textLength="80" x="393" y="373.1445">commentaires</text><line style="stroke: #000000; stroke-width: 1.0;" x1="391" x2="546" y1="375.7813" y2="375.7813"/><line style="stroke: #000000; stroke-width: 1.0;" x1="391" x2="391" y1="372.7813" y2="374.7813"/><line style="stroke: #000000; stroke-width: 1.0;" x1="546" x2="546" y1="372.7813" y2="374.7813"/><text fill="#000000" font-family="sans-serif" font-size="12" lengthAdjust="spacingAndGlyphs" textLength="166" x="6" y="410.332">Capture débarquée par métier</text><rect fill="#EEEEEE" height="19.0938" rx="5" ry="5" style="stroke: #000000; stroke-width: 2.5;" width="164" x="392.5" y="401.375"/><path d="M424,407.4688 L424,411.4688 L428,411.4688 L428,407.4688 L424,407.4688 M429,409.4688 L429,412.4688 L426,412.4688 L426,413.4688 L430,413.4688 L430,409.4688 L429,409.4688 M431,411.4688 L431,414.4688 L428,414.4688 L428,415.4688 L432,415.4688 L432,411.4688 L431,411.4688 " fill="#000000" style="stroke: ; stroke-width: 0.0; stroke-dasharray: ;"/><text fill="#000000" font-family="sans-serif" font-size="12" lengthAdjust="spacingAndGlyphs" textLength="90" x="436" y="415.832">Entrer la capture</text><line style="stroke: #AAAAAA; stroke-width: 1.0;" x1="6" x2="388" y1="429.4688" y2="429.4688"/><line style="stroke: #AAAAAA; stroke-width: 1.0;" x1="389" x2="579" y1="429.4688" y2="429.4688"/><rect fill="#EEEEEE" height="19.0938" rx="5" ry="5" style="stroke: #000000; stroke-width: 2.5;" width="60" x="392.5" y="437.4688"/><text fill="#000000" font-family="sans-serif" font-size="12" lengthAdjust="spacingAndGlyphs" textLength="42" x="401.5" y="451.9258">Annuler</text><rect fill="#EEEEEE" height="19.0938" rx="5" ry="5" style="stroke: #000000; stroke-width: 2.5;" width="60" x="459.5" y="437.4688"/><text fill="#000000" font-family="sans-serif" font-size="12" lengthAdjust="spacingAndGlyphs" textLength="38" x="470.5" y="451.9258">Ajouter</text></g></svg>