<?xml version="1.0" encoding="UTF-8" standalone="no"?><svg xmlns="http://www.w3.org/2000/svg" xmlns:xlink="http://www.w3.org/1999/xlink" contentScriptType="application/ecmascript" contentStyleType="text/css" height="334px" preserveAspectRatio="none" style="width:709px;height:334px;" version="1.1" viewBox="0 0 709 334" width="709px" zoomAndPan="magnify"><defs/><g><text fill="#000000" font-family="sans-serif" font-size="12" font-weight="bold" lengthAdjust="spacingAndGlyphs" textLength="302" x="6" y="18.457">Navire FRA0001114 / Débarquement 01/02/2019 23:59</text><line style="stroke: #AAAAAA; stroke-width: 1.0; stroke-dasharray: 1.0,2.0;" x1="6" x2="690" y1="26.5938" y2="26.5938"/><text fill="#000000" font-family="sans-serif" font-size="12" lengthAdjust="spacingAndGlyphs" textLength="64" x="8" y="43.5508">General trip</text><line style="stroke: #000000; stroke-width: 1.0;" x1="6" x2="6" y1="31.0938" y2="46.1875"/><line style="stroke: #000000; stroke-width: 1.0;" x1="6" x2="75" y1="31.0938" y2="31.0938"/><line style="stroke: #000000; stroke-width: 1.0;" x1="75" x2="75" y1="31.0938" y2="46.1875"/><line style="stroke: #000000; stroke-width: 1.0;" x1="75" x2="85" y1="46.1875" y2="46.1875"/><text fill="#000000" font-family="sans-serif" font-size="12" lengthAdjust="spacingAndGlyphs" textLength="28" x="87" y="43.5508">Effort</text><line style="stroke: #000000; stroke-width: 1.0;" x1="85" x2="85" y1="31.0938" y2="46.1875"/><line style="stroke: #000000; stroke-width: 1.0;" x1="85" x2="118" y1="31.0938" y2="31.0938"/><line style="stroke: #000000; stroke-width: 1.0;" x1="118" x2="118" y1="31.0938" y2="46.1875"/><line style="stroke: #000000; stroke-width: 1.0;" x1="118" x2="128" y1="46.1875" y2="46.1875"/><text fill="#000000" font-family="sans-serif" font-size="12" font-weight="bold" lengthAdjust="spacingAndGlyphs" textLength="109" x="130" y="43.5508">Capture débarquée</text><line style="stroke: #000000; stroke-width: 1.0;" x1="128" x2="128" y1="31.0938" y2="46.1875"/><line style="stroke: #000000; stroke-width: 1.0;" x1="128" x2="242" y1="31.0938" y2="31.0938"/><line style="stroke: #000000; stroke-width: 1.0;" x1="242" x2="242" y1="31.0938" y2="46.1875"/><line style="stroke: #000000; stroke-width: 1.0;" x1="242" x2="252" y1="46.1875" y2="46.1875"/><path d="M10,70.375 L10,76.375 L8,76.375 L10.5,78.375 L13,76.375 L11,76.375 L11,70.375 L10,70.375 M12,70.375 L12,71.375 L16,71.375 L16,70.375 L12,70.375 M12,72.375 L12,73.375 L15,73.375 L15,72.375 L12,72.375 M12,74.375 L12,75.375 L14,75.375 L14,74.375 L12,74.375 " fill="#000000" style="stroke: ; stroke-width: 0.0; stroke-dasharray: ;"/><text fill="#000000" font-family="sans-serif" font-size="12" lengthAdjust="spacingAndGlyphs" textLength="72" x="20" y="78.7383">Filter by effort</text><rect fill="#EEEEEE" height="18.0938" style="stroke: #000000; stroke-width: 1.0;" width="255" x="95" y="67.2813"/><text fill="#000000" font-family="sans-serif" font-size="12" lengthAdjust="spacingAndGlyphs" textLength="156" x="97" y="81.7383">FIXABSX - Active trap for Vyey</text><line style="stroke: #000000; stroke-width: 1.0;" x1="339" x2="339" y1="67.2813" y2="85.375"/><polygon fill="#000000" points="342,73.2813,348,73.2813,345,80.375" style="stroke: #000000; stroke-width: 1.0;"/><path d="M355.75,66.2813 C355.348,66.2813 355,66.6293 355,67.0313 L355,72.5313 C355,72.9333 355.348,73.2813 355.75,73.2813 L362.25,73.2813 C362.652,73.2813 363,72.9333 363,72.5313 L363,67.0313 C363,66.6293 362.652,66.2813 362.25,66.2813 L355.75,66.2813 M356,67.2813 L357,67.2813 L357,68.2813 L356,68.2813 L356,67.2813 M358,67.2813 L362,67.2813 L362,68.2813 L358,68.2813 L358,67.2813 M356,69.2813 L357,69.2813 L357,70.2813 L356,70.2813 L356,69.2813 M358,69.2813 L362,69.2813 L362,70.2813 L358,70.2813 L358,69.2813 M356,71.2813 L357,71.2813 L357,72.2813 L356,72.2813 L356,71.2813 M358,71.2813 L362,71.2813 L362,72.2813 L358,72.2813 L358,71.2813 " fill="#000000" style="stroke: ; stroke-width: 0.0; stroke-dasharray: ;"/><rect fill="#EEEEEE" height="19.0938" rx="5" ry="5" style="stroke: #000000; stroke-width: 2.5;" width="36" x="368.5" y="68.7813"/><text fill="#000000" font-family="sans-serif" font-size="12" lengthAdjust="spacingAndGlyphs" textLength="21" x="376" y="83.2383">Edit</text><rect fill="#EEEEEE" height="19.0938" rx="5" ry="5" style="stroke: #000000; stroke-width: 2.5;" width="29" x="411.5" y="68.7813"/><text fill="#000000" font-family="sans-serif" font-size="12" lengthAdjust="spacingAndGlyphs" textLength="25" x="413.5" y="83.2383">New</text><text fill="#000000" font-family="sans-serif" font-size="12" font-weight="bold" lengthAdjust="spacingAndGlyphs" textLength="165" x="7" y="123.9258">Capture débarquée par effort</text><rect fill="#EEEEEE" height="12" rx="5" ry="5" style="stroke: #000000; stroke-width: 2.5;" width="20" x="10.5" y="132.0625"/><path d="M19.5,134.0625 L19.5,137.0625 L16.5,137.0625 L16.5,139.0625 L19.5,139.0625 L19.5,142.0625 L21.5,142.0625 L21.5,139.0625 L24.5,139.0625 L24.5,137.0625 L21.5,137.0625 L21.5,134.0625 L19.5,134.0625 " fill="#000000" style="stroke: ; stroke-width: 0.0; stroke-dasharray: ;"/><rect fill="#EEEEEE" height="12" rx="5" ry="5" style="stroke: #000000; stroke-width: 2.5;" width="20" x="37.5" y="132.0625"/><path d="M45.5,134.0625 L45.5,140.0625 L43.5,140.0625 L46,142.0625 L48.5,140.0625 L46.5,140.0625 L46.5,134.0625 L45.5,134.0625 M47.5,134.0625 L47.5,135.0625 L49.5,135.0625 L49.5,134.0625 L47.5,134.0625 M47.5,136.0625 L47.5,137.0625 L50.5,137.0625 L50.5,136.0625 L47.5,136.0625 M47.5,138.0625 L47.5,139.0625 L51.5,139.0625 L51.5,138.0625 L47.5,138.0625 " fill="#000000" style="stroke: ; stroke-width: 0.0; stroke-dasharray: ;"/><rect fill="#EEEEEE" height="12" rx="5" ry="5" style="stroke: #000000; stroke-width: 2.5;" width="20" x="64.5" y="132.0625"/><path d="M70.5,137.0625 L70.5,139.0625 L78.5,139.0625 L78.5,137.0625 L70.5,137.0625 " fill="#000000" style="stroke: ; stroke-width: 0.0; stroke-dasharray: ;"/><text fill="#000000" font-family="sans-serif" font-size="12" lengthAdjust="spacingAndGlyphs" textLength="7" x="8" y="163.0195">#</text><text fill="#000000" font-family="sans-serif" font-size="12" font-weight="bold" lengthAdjust="spacingAndGlyphs" textLength="120" x="17" y="163.0195">Espèce commerciale</text><text fill="#000000" font-family="sans-serif" font-size="12" font-weight="bold" lengthAdjust="spacingAndGlyphs" textLength="84" x="182" y="163.0195">Poids Ech. (kg)</text><text fill="#000000" font-family="sans-serif" font-size="12" font-weight="bold" lengthAdjust="spacingAndGlyphs" textLength="36" x="271" y="163.0195">Ech. %</text><text fill="#000000" font-family="sans-serif" font-size="12" font-weight="bold" lengthAdjust="spacingAndGlyphs" textLength="45" x="309" y="163.0195">NB indiv</text><text fill="#000000" font-family="sans-serif" font-size="12" lengthAdjust="spacingAndGlyphs" textLength="7" x="8" y="180.1133">1</text><text fill="#000000" font-family="sans-serif" font-size="12" lengthAdjust="spacingAndGlyphs" textLength="163" x="17" y="180.1133">NEP - Langoustine commune</text><text fill="#000000" font-family="sans-serif" font-size="12" lengthAdjust="spacingAndGlyphs" textLength="31" x="182" y="180.1133">15.00</text><text fill="#000000" font-family="sans-serif" font-size="12" font-style="italic" lengthAdjust="spacingAndGlyphs" textLength="31" x="268" y="180.1133">33.00</text><text fill="#000000" font-family="sans-serif" font-size="12" lengthAdjust="spacingAndGlyphs" textLength="7" x="309" y="180.1133">2</text><text fill="#000000" font-family="sans-serif" font-size="12" lengthAdjust="spacingAndGlyphs" textLength="163" x="356" y="180.1133">NEP - Langoustine commune</text><text fill="#000000" font-family="sans-serif" font-size="12" lengthAdjust="spacingAndGlyphs" textLength="31" x="521" y="180.1133">77.50</text><text fill="#000000" font-family="sans-serif" font-size="12" font-style="italic" lengthAdjust="spacingAndGlyphs" textLength="24" x="554" y="180.1133">5.00</text><line style="stroke: #000000; stroke-width: 1.0;" x1="7" x2="16" y1="149.5625" y2="149.5625"/><line style="stroke: #000000; stroke-width: 1.0;" x1="181" x2="267" y1="183.75" y2="183.75"/><line style="stroke: #000000; stroke-width: 1.0;" x1="16" x2="181" y1="149.5625" y2="149.5625"/><line style="stroke: #000000; stroke-width: 1.0;" x1="267" x2="308" y1="183.75" y2="183.75"/><line style="stroke: #000000; stroke-width: 1.0;" x1="181" x2="267" y1="149.5625" y2="149.5625"/><line style="stroke: #000000; stroke-width: 1.0;" x1="308" x2="355" y1="183.75" y2="183.75"/><line style="stroke: #000000; stroke-width: 1.0;" x1="267" x2="308" y1="149.5625" y2="149.5625"/><line style="stroke: #000000; stroke-width: 1.0;" x1="355" x2="520" y1="183.75" y2="183.75"/><line style="stroke: #000000; stroke-width: 1.0;" x1="308" x2="355" y1="149.5625" y2="149.5625"/><line style="stroke: #000000; stroke-width: 1.0;" x1="520" x2="553" y1="183.75" y2="183.75"/><line style="stroke: #000000; stroke-width: 1.0;" x1="355" x2="520" y1="149.5625" y2="149.5625"/><line style="stroke: #000000; stroke-width: 1.0;" x1="553" x2="579" y1="183.75" y2="183.75"/><line style="stroke: #000000; stroke-width: 1.0;" x1="520" x2="553" y1="149.5625" y2="149.5625"/><line style="stroke: #000000; stroke-width: 1.0;" x1="553" x2="579" y1="149.5625" y2="149.5625"/><line style="stroke: #000000; stroke-width: 1.0;" x1="7" x2="16" y1="166.6563" y2="166.6563"/><line style="stroke: #000000; stroke-width: 1.0;" x1="16" x2="181" y1="166.6563" y2="166.6563"/><line style="stroke: #000000; stroke-width: 1.0;" x1="181" x2="267" y1="166.6563" y2="166.6563"/><line style="stroke: #000000; stroke-width: 1.0;" x1="267" x2="308" y1="166.6563" y2="166.6563"/><line style="stroke: #000000; stroke-width: 1.0;" x1="308" x2="355" y1="166.6563" y2="166.6563"/><line style="stroke: #000000; stroke-width: 1.0;" x1="355" x2="520" y1="166.6563" y2="166.6563"/><line style="stroke: #000000; stroke-width: 1.0;" x1="520" x2="553" y1="166.6563" y2="166.6563"/><line style="stroke: #000000; stroke-width: 1.0;" x1="553" x2="579" y1="166.6563" y2="166.6563"/><line style="stroke: #000000; stroke-width: 1.0;" x1="7" x2="16" y1="183.75" y2="183.75"/><line style="stroke: #000000; stroke-width: 1.0;" x1="16" x2="181" y1="183.75" y2="183.75"/><line style="stroke: #000000; stroke-width: 1.0;" x1="7" x2="7" y1="149.5625" y2="166.6563"/><line style="stroke: #000000; stroke-width: 1.0;" x1="16" x2="16" y1="149.5625" y2="166.6563"/><line style="stroke: #000000; stroke-width: 1.0;" x1="181" x2="181" y1="149.5625" y2="166.6563"/><line style="stroke: #000000; stroke-width: 1.0;" x1="267" x2="267" y1="149.5625" y2="166.6563"/><line style="stroke: #000000; stroke-width: 1.0;" x1="308" x2="308" y1="149.5625" y2="166.6563"/><line style="stroke: #000000; stroke-width: 1.0;" x1="355" x2="355" y1="149.5625" y2="166.6563"/><line style="stroke: #000000; stroke-width: 1.0;" x1="579" x2="579" y1="149.5625" y2="166.6563"/><line style="stroke: #000000; stroke-width: 1.0;" x1="7" x2="7" y1="166.6563" y2="183.75"/><line style="stroke: #000000; stroke-width: 1.0;" x1="16" x2="16" y1="166.6563" y2="183.75"/><line style="stroke: #000000; stroke-width: 1.0;" x1="181" x2="181" y1="166.6563" y2="183.75"/><line style="stroke: #000000; stroke-width: 1.0;" x1="267" x2="267" y1="166.6563" y2="183.75"/><line style="stroke: #000000; stroke-width: 1.0;" x1="308" x2="308" y1="166.6563" y2="183.75"/><line style="stroke: #000000; stroke-width: 1.0;" x1="355" x2="355" y1="166.6563" y2="183.75"/><line style="stroke: #000000; stroke-width: 1.0;" x1="520" x2="520" y1="166.6563" y2="183.75"/><line style="stroke: #000000; stroke-width: 1.0;" x1="553" x2="553" y1="166.6563" y2="183.75"/><line style="stroke: #000000; stroke-width: 1.0;" x1="579" x2="579" y1="166.6563" y2="183.75"/><line style="stroke: #AAAAAA; stroke-width: 1.0;" x1="6" x2="690" y1="207.3438" y2="207.3438"/><line style="stroke: #AAAAAA; stroke-width: 1.0;" x1="691" x2="702" y1="207.3438" y2="207.3438"/><text fill="#000000" font-family="sans-serif" font-size="12" font-weight="bold" lengthAdjust="spacingAndGlyphs" textLength="139" x="7" y="225.3008">packets saisis par effort</text><rect fill="#EEEEEE" height="12" rx="5" ry="5" style="stroke: #000000; stroke-width: 2.5;" width="20" x="10.5" y="233.4375"/><path d="M19.5,235.4375 L19.5,238.4375 L16.5,238.4375 L16.5,240.4375 L19.5,240.4375 L19.5,243.4375 L21.5,243.4375 L21.5,240.4375 L24.5,240.4375 L24.5,238.4375 L21.5,238.4375 L21.5,235.4375 L19.5,235.4375 " fill="#000000" style="stroke: ; stroke-width: 0.0; stroke-dasharray: ;"/><rect fill="#EEEEEE" height="12" rx="5" ry="5" style="stroke: #000000; stroke-width: 2.5;" width="20" x="37.5" y="233.4375"/><path d="M44.25,235.4375 C43.848,235.4375 43.5,235.7855 43.5,236.1875 L43.5,241.6875 C43.5,242.0895 43.848,242.4375 44.25,242.4375 L50.75,242.4375 C51.152,242.4375 51.5,242.0895 51.5,241.6875 L51.5,236.1875 C51.5,235.7855 51.152,235.4375 50.75,235.4375 L44.25,235.4375 M44.5,236.4375 L45.5,236.4375 L45.5,237.4375 L44.5,237.4375 L44.5,236.4375 M46.5,236.4375 L50.5,236.4375 L50.5,237.4375 L46.5,237.4375 L46.5,236.4375 M44.5,238.4375 L45.5,238.4375 L45.5,239.4375 L44.5,239.4375 L44.5,238.4375 M46.5,238.4375 L50.5,238.4375 L50.5,239.4375 L46.5,239.4375 L46.5,238.4375 M44.5,240.4375 L45.5,240.4375 L45.5,241.4375 L44.5,241.4375 L44.5,240.4375 M46.5,240.4375 L50.5,240.4375 L50.5,241.4375 L46.5,241.4375 L46.5,240.4375 " fill="#000000" style="stroke: ; stroke-width: 0.0; stroke-dasharray: ;"/><rect fill="#EEEEEE" height="12" rx="5" ry="5" style="stroke: #000000; stroke-width: 2.5;" width="20" x="64.5" y="233.4375"/><path d="M70.5,238.4375 L70.5,240.4375 L78.5,240.4375 L78.5,238.4375 L70.5,238.4375 " fill="#000000" style="stroke: ; stroke-width: 0.0; stroke-dasharray: ;"/><text fill="#000000" font-family="sans-serif" font-size="12" lengthAdjust="spacingAndGlyphs" textLength="7" x="8" y="264.3945">#</text><text fill="#000000" font-family="sans-serif" font-size="12" font-weight="bold" lengthAdjust="spacingAndGlyphs" textLength="11" x="17" y="264.3945">ID</text><text fill="#000000" font-family="sans-serif" font-size="12" font-weight="bold" lengthAdjust="spacingAndGlyphs" textLength="120" x="30" y="264.3945">Nombre de paquets*)</text><text fill="#000000" font-family="sans-serif" font-size="12" font-weight="bold" lengthAdjust="spacingAndGlyphs" textLength="62" x="155" y="264.3945">Poids (kg)*</text><text fill="#000000" font-family="sans-serif" font-size="12" font-weight="bold" lengthAdjust="spacingAndGlyphs" textLength="36" x="219" y="264.3945">Effort*</text><text fill="#000000" font-family="sans-serif" font-size="12" font-weight="bold" lengthAdjust="spacingAndGlyphs" textLength="71" x="582" y="264.3945">Composition</text><text fill="#000000" font-family="sans-serif" font-size="12" font-weight="bold" lengthAdjust="spacingAndGlyphs" textLength="32" x="655" y="264.3945">Detail</text><text fill="#000000" font-family="sans-serif" font-size="12" lengthAdjust="spacingAndGlyphs" textLength="7" x="8" y="281.4883">1</text><text fill="#000000" font-family="sans-serif" font-size="12" lengthAdjust="spacingAndGlyphs" textLength="7" x="17" y="281.4883">1</text><text fill="#000000" font-family="sans-serif" font-size="12" lengthAdjust="spacingAndGlyphs" textLength="7" x="30" y="281.4883">5</text><text fill="#000000" font-family="sans-serif" font-size="12" lengthAdjust="spacingAndGlyphs" textLength="31" x="152" y="281.4883">484.0</text><text fill="#000000" font-family="sans-serif" font-size="12" lengthAdjust="spacingAndGlyphs" textLength="361" x="219" y="281.4883">FIXABSX - Active trap for Vyey - FIXA - Active trap - 01/10/2019 00:00</text><path d="M583,269.0313 L583,273.0313 L587,273.0313 L587,269.0313 L583,269.0313 M588,271.0313 L588,274.0313 L585,274.0313 L585,275.0313 L589,275.0313 L589,271.0313 L588,271.0313 M590,273.0313 L590,276.0313 L587,276.0313 L587,277.0313 L591,277.0313 L591,273.0313 L590,273.0313 " fill="#000000" style="stroke: ; stroke-width: 0.0; stroke-dasharray: ;"/><path d="M656.094,269.0313 C656.034,269.0313 656,269.0653 656,269.1253 L656,274.9383 C656,274.9983 656.034,275.0323 656.094,275.0323 L662,275.0323 L664,277.0323 L664,269.1263 C664,269.0663 663.966,269.0323 663.906,269.0323 L656.093,269.0323 " fill="#000000" style="stroke: ; stroke-width: 0.0; stroke-dasharray: ;"/><line style="stroke: #000000; stroke-width: 1.0;" x1="7" x2="16" y1="250.9375" y2="250.9375"/><line style="stroke: #000000; stroke-width: 1.0;" x1="29" x2="151" y1="285.125" y2="285.125"/><line style="stroke: #000000; stroke-width: 1.0;" x1="16" x2="29" y1="250.9375" y2="250.9375"/><line style="stroke: #000000; stroke-width: 1.0;" x1="151" x2="218" y1="285.125" y2="285.125"/><line style="stroke: #000000; stroke-width: 1.0;" x1="29" x2="151" y1="250.9375" y2="250.9375"/><line style="stroke: #000000; stroke-width: 1.0;" x1="218" x2="581" y1="285.125" y2="285.125"/><line style="stroke: #000000; stroke-width: 1.0;" x1="151" x2="218" y1="250.9375" y2="250.9375"/><line style="stroke: #000000; stroke-width: 1.0;" x1="581" x2="654" y1="285.125" y2="285.125"/><line style="stroke: #000000; stroke-width: 1.0;" x1="218" x2="581" y1="250.9375" y2="250.9375"/><line style="stroke: #000000; stroke-width: 1.0;" x1="654" x2="688" y1="285.125" y2="285.125"/><line style="stroke: #000000; stroke-width: 1.0;" x1="581" x2="654" y1="250.9375" y2="250.9375"/><line style="stroke: #000000; stroke-width: 1.0;" x1="654" x2="688" y1="250.9375" y2="250.9375"/><line style="stroke: #000000; stroke-width: 1.0;" x1="7" x2="16" y1="268.0313" y2="268.0313"/><line style="stroke: #000000; stroke-width: 1.0;" x1="16" x2="29" y1="268.0313" y2="268.0313"/><line style="stroke: #000000; stroke-width: 1.0;" x1="29" x2="151" y1="268.0313" y2="268.0313"/><line style="stroke: #000000; stroke-width: 1.0;" x1="151" x2="218" y1="268.0313" y2="268.0313"/><line style="stroke: #000000; stroke-width: 1.0;" x1="218" x2="581" y1="268.0313" y2="268.0313"/><line style="stroke: #000000; stroke-width: 1.0;" x1="581" x2="654" y1="268.0313" y2="268.0313"/><line style="stroke: #000000; stroke-width: 1.0;" x1="654" x2="688" y1="268.0313" y2="268.0313"/><line style="stroke: #000000; stroke-width: 1.0;" x1="7" x2="16" y1="285.125" y2="285.125"/><line style="stroke: #000000; stroke-width: 1.0;" x1="16" x2="29" y1="285.125" y2="285.125"/><line style="stroke: #000000; stroke-width: 1.0;" x1="7" x2="7" y1="250.9375" y2="268.0313"/><line style="stroke: #000000; stroke-width: 1.0;" x1="16" x2="16" y1="250.9375" y2="268.0313"/><line style="stroke: #000000; stroke-width: 1.0;" x1="29" x2="29" y1="250.9375" y2="268.0313"/><line style="stroke: #000000; stroke-width: 1.0;" x1="151" x2="151" y1="250.9375" y2="268.0313"/><line style="stroke: #000000; stroke-width: 1.0;" x1="218" x2="218" y1="250.9375" y2="268.0313"/><line style="stroke: #000000; stroke-width: 1.0;" x1="581" x2="581" y1="250.9375" y2="268.0313"/><line style="stroke: #000000; stroke-width: 1.0;" x1="654" x2="654" y1="250.9375" y2="268.0313"/><line style="stroke: #000000; stroke-width: 1.0;" x1="688" x2="688" y1="250.9375" y2="268.0313"/><line style="stroke: #000000; stroke-width: 1.0;" x1="7" x2="7" y1="268.0313" y2="285.125"/><line style="stroke: #000000; stroke-width: 1.0;" x1="16" x2="16" y1="268.0313" y2="285.125"/><line style="stroke: #000000; stroke-width: 1.0;" x1="29" x2="29" y1="268.0313" y2="285.125"/><line style="stroke: #000000; stroke-width: 1.0;" x1="151" x2="151" y1="268.0313" y2="285.125"/><line style="stroke: #000000; stroke-width: 1.0;" x1="218" x2="218" y1="268.0313" y2="285.125"/><line style="stroke: #000000; stroke-width: 1.0;" x1="581" x2="581" y1="268.0313" y2="285.125"/><line style="stroke: #000000; stroke-width: 1.0;" x1="654" x2="654" y1="268.0313" y2="285.125"/><line style="stroke: #000000; stroke-width: 1.0;" x1="688" x2="688" y1="268.0313" y2="285.125"/><rect fill="#EEEEEE" height="19.0938" rx="5" ry="5" style="stroke: #000000; stroke-width: 2.5;" width="260" x="10.5" y="309.7188"/><text fill="#000000" font-family="sans-serif" font-size="12" lengthAdjust="spacingAndGlyphs" textLength="170" x="55.5" y="324.1758">Fermer et retour à l'observation</text><rect fill="#EEEEEE" height="19.0938" rx="5" ry="5" style="stroke: #000000; stroke-width: 2.5;" width="124" x="277.5" y="309.7188"/><text fill="#000000" font-family="sans-serif" font-size="12" lengthAdjust="spacingAndGlyphs" textLength="77" x="301" y="324.1758">Saisir la vente</text></g></svg>