<?xml version="1.0" encoding="UTF-8" standalone="no"?><svg xmlns="http://www.w3.org/2000/svg" xmlns:xlink="http://www.w3.org/1999/xlink" contentScriptType="application/ecmascript" contentStyleType="text/css" height="438px" preserveAspectRatio="none" style="width:813px;height:438px;" version="1.1" viewBox="0 0 813 438" width="813px" zoomAndPan="magnify"><defs/><g><text fill="#000000" font-family="sans-serif" font-size="12" font-weight="bold" lengthAdjust="spacingAndGlyphs" textLength="135" x="6" y="18.457">Nouveau débarquement</text><line style="stroke: #AAAAAA; stroke-width: 1.0; stroke-dasharray: 1.0,2.0;" x1="6" x2="372" y1="26.5938" y2="26.5938"/><text fill="#000000" font-family="sans-serif" font-size="12" font-weight="bold" lengthAdjust="spacingAndGlyphs" textLength="66" x="8" y="43.5508">General trip</text><line style="stroke: #000000; stroke-width: 1.0;" x1="6" x2="6" y1="31.0938" y2="46.1875"/><line style="stroke: #000000; stroke-width: 1.0;" x1="6" x2="77" y1="31.0938" y2="31.0938"/><line style="stroke: #000000; stroke-width: 1.0;" x1="77" x2="77" y1="31.0938" y2="46.1875"/><line style="stroke: #000000; stroke-width: 1.0;" x1="77" x2="87" y1="46.1875" y2="46.1875"/><text fill="#000000" font-family="sans-serif" font-size="12" lengthAdjust="spacingAndGlyphs" textLength="28" x="89" y="43.5508">Effort</text><line style="stroke: #000000; stroke-width: 1.0;" x1="87" x2="87" y1="31.0938" y2="46.1875"/><line style="stroke: #000000; stroke-width: 1.0;" x1="87" x2="120" y1="31.0938" y2="31.0938"/><line style="stroke: #000000; stroke-width: 1.0;" x1="120" x2="120" y1="31.0938" y2="46.1875"/><line style="stroke: #000000; stroke-width: 1.0;" x1="120" x2="130" y1="46.1875" y2="46.1875"/><text fill="#000000" font-family="sans-serif" font-size="12" lengthAdjust="spacingAndGlyphs" textLength="107" x="132" y="43.5508">Capture débarquée</text><line style="stroke: #000000; stroke-width: 1.0;" x1="130" x2="130" y1="31.0938" y2="46.1875"/><line style="stroke: #000000; stroke-width: 1.0;" x1="130" x2="242" y1="31.0938" y2="31.0938"/><line style="stroke: #000000; stroke-width: 1.0;" x1="242" x2="242" y1="31.0938" y2="46.1875"/><line style="stroke: #000000; stroke-width: 1.0;" x1="242" x2="252" y1="46.1875" y2="46.1875"/><text fill="#000000" font-family="sans-serif" font-size="12" lengthAdjust="spacingAndGlyphs" textLength="31" x="254" y="43.5508">Vente</text><line style="stroke: #000000; stroke-width: 1.0;" x1="252" x2="252" y1="31.0938" y2="46.1875"/><line style="stroke: #000000; stroke-width: 1.0;" x1="252" x2="288" y1="31.0938" y2="31.0938"/><line style="stroke: #000000; stroke-width: 1.0;" x1="288" x2="288" y1="31.0938" y2="46.1875"/><line style="stroke: #000000; stroke-width: 1.0;" x1="288" x2="298" y1="46.1875" y2="46.1875"/><text fill="#000000" font-family="sans-serif" font-size="12" lengthAdjust="spacingAndGlyphs" textLength="58" x="300" y="43.5508">Dépenses</text><line style="stroke: #000000; stroke-width: 1.0;" x1="298" x2="298" y1="31.0938" y2="46.1875"/><line style="stroke: #000000; stroke-width: 1.0;" x1="298" x2="361" y1="31.0938" y2="31.0938"/><line style="stroke: #000000; stroke-width: 1.0;" x1="361" x2="361" y1="31.0938" y2="46.1875"/><line style="stroke: #000000; stroke-width: 1.0;" x1="361" x2="371" y1="46.1875" y2="46.1875"/><text fill="#000000" font-family="sans-serif" font-size="12" lengthAdjust="spacingAndGlyphs" textLength="131" x="6" y="77.7383">Programme de collecte:</text><rect fill="#EEEEEE" height="18.0938" style="stroke: #000000; stroke-width: 1.0;" width="95" x="374" y="66.2813"/><text fill="#000000" font-family="sans-serif" font-size="12" lengthAdjust="spacingAndGlyphs" textLength="74" x="376" y="80.7383">SIH-OBSDEB</text><line style="stroke: #000000; stroke-width: 1.0;" x1="458" x2="458" y1="66.2813" y2="84.375"/><polygon fill="#000000" points="461,72.2813,467,72.2813,464,79.375" style="stroke: #000000; stroke-width: 1.0;"/><text fill="#000000" font-family="sans-serif" font-size="12" lengthAdjust="spacingAndGlyphs" textLength="38" x="6" y="100.832">Navire:</text><rect fill="#EEEEEE" height="18.0938" style="stroke: #000000; stroke-width: 1.0;" width="95" x="374" y="89.375"/><text fill="#000000" font-family="sans-serif" font-size="12" lengthAdjust="spacingAndGlyphs" textLength="72" x="376" y="103.832">FRA0001114</text><line style="stroke: #000000; stroke-width: 1.0;" x1="458" x2="458" y1="89.375" y2="107.4688"/><polygon fill="#000000" points="461,95.375,467,95.375,464,102.4688" style="stroke: #000000; stroke-width: 1.0;"/><path d="M476,89.375 L476,92.375 L473,92.375 L473,94.375 L476,94.375 L476,97.375 L478,97.375 L478,94.375 L481,94.375 L481,92.375 L478,92.375 L478,89.375 L476,89.375 " fill="#000000" style="stroke: ; stroke-width: 0.0; stroke-dasharray: ;"/><text fill="#000000" font-family="sans-serif" font-size="12" lengthAdjust="spacingAndGlyphs" textLength="202" x="6" y="123.9258">Lieu de débarquement de la marée*:</text><rect fill="#EEEEEE" height="18.0938" style="stroke: #000000; stroke-width: 1.0;" width="143" x="374" y="112.4688"/><text fill="#000000" font-family="sans-serif" font-size="12" lengthAdjust="spacingAndGlyphs" textLength="93" x="376" y="126.9258">MA - Mahé Island</text><line style="stroke: #000000; stroke-width: 1.0;" x1="506" x2="506" y1="112.4688" y2="130.5625"/><polygon fill="#000000" points="509,118.4688,515,118.4688,512,125.5625" style="stroke: #000000; stroke-width: 1.0;"/><text fill="#000000" font-family="sans-serif" font-size="12" lengthAdjust="spacingAndGlyphs" textLength="156" x="6" y="147.0195">Date/Heure début de marée:</text><rect fill="#EEEEEE" height="18.0938" style="stroke: #000000; stroke-width: 1.0;" width="95" x="374" y="135.5625"/><text fill="#000000" font-family="sans-serif" font-size="12" lengthAdjust="spacingAndGlyphs" textLength="62" x="376" y="150.0195">01/02/2019</text><line style="stroke: #000000; stroke-width: 1.0;" x1="458" x2="458" y1="135.5625" y2="153.6563"/><polygon fill="#000000" points="461,141.5625,467,141.5625,464,148.6563" style="stroke: #000000; stroke-width: 1.0;"/><rect fill="#EEEEEE" height="18.0938" style="stroke: #000000; stroke-width: 1.0;" width="55" x="472" y="135.5625"/><text fill="#000000" font-family="sans-serif" font-size="12" lengthAdjust="spacingAndGlyphs" textLength="31" x="474" y="150.0195">00:00</text><line style="stroke: #000000; stroke-width: 1.0;" x1="516" x2="516" y1="135.5625" y2="153.6563"/><polygon fill="#000000" points="519,141.5625,525,141.5625,522,148.6563" style="stroke: #000000; stroke-width: 1.0;"/><text fill="#000000" font-family="sans-serif" font-size="12" lengthAdjust="spacingAndGlyphs" textLength="138" x="6" y="170.1133">Date/Heure fin de marée:</text><rect fill="#EEEEEE" height="18.0938" style="stroke: #000000; stroke-width: 1.0;" width="95" x="374" y="158.6563"/><text fill="#000000" font-family="sans-serif" font-size="12" lengthAdjust="spacingAndGlyphs" textLength="62" x="376" y="173.1133">01/02/2019</text><line style="stroke: #000000; stroke-width: 1.0;" x1="458" x2="458" y1="158.6563" y2="176.75"/><polygon fill="#000000" points="461,164.6563,467,164.6563,464,171.75" style="stroke: #000000; stroke-width: 1.0;"/><rect fill="#EEEEEE" height="18.0938" style="stroke: #000000; stroke-width: 1.0;" width="55" x="472" y="158.6563"/><text fill="#000000" font-family="sans-serif" font-size="12" lengthAdjust="spacingAndGlyphs" textLength="31" x="474" y="173.1133">23:59</text><line style="stroke: #000000; stroke-width: 1.0;" x1="516" x2="516" y1="158.6563" y2="176.75"/><polygon fill="#000000" points="519,164.6563,525,164.6563,522,171.75" style="stroke: #000000; stroke-width: 1.0;"/><text fill="#000000" font-family="sans-serif" font-size="12" lengthAdjust="spacingAndGlyphs" textLength="150" x="6" y="193.207">Date/Heure débarquement:</text><rect fill="#EEEEEE" height="18.0938" style="stroke: #000000; stroke-width: 1.0;" width="95" x="374" y="181.75"/><text fill="#000000" font-family="sans-serif" font-size="12" lengthAdjust="spacingAndGlyphs" textLength="62" x="376" y="196.207">01/02/2019</text><line style="stroke: #000000; stroke-width: 1.0;" x1="458" x2="458" y1="181.75" y2="199.8438"/><polygon fill="#000000" points="461,187.75,467,187.75,464,194.8438" style="stroke: #000000; stroke-width: 1.0;"/><rect fill="#EEEEEE" height="18.0938" style="stroke: #000000; stroke-width: 1.0;" width="55" x="472" y="181.75"/><text fill="#000000" font-family="sans-serif" font-size="12" lengthAdjust="spacingAndGlyphs" textLength="31" x="474" y="196.207">23:59</text><line style="stroke: #000000; stroke-width: 1.0;" x1="516" x2="516" y1="181.75" y2="199.8438"/><polygon fill="#000000" points="519,187.75,525,187.75,522,194.8438" style="stroke: #000000; stroke-width: 1.0;"/><text fill="#000000" font-family="sans-serif" font-size="12" lengthAdjust="spacingAndGlyphs" textLength="80" x="6" y="216.3008">Observateurs :</text><rect fill="#EEEEEE" height="18.0938" style="stroke: #000000; stroke-width: 1.0;" width="127" x="374" y="204.8438"/><text fill="#000000" font-family="sans-serif" font-size="12" lengthAdjust="spacingAndGlyphs" textLength="84" x="376" y="219.3008">Observateur #1</text><line style="stroke: #000000; stroke-width: 1.0;" x1="490" x2="490" y1="204.8438" y2="222.9375"/><polygon fill="#000000" points="493,210.8438,499,210.8438,496,217.9375" style="stroke: #000000; stroke-width: 1.0;"/><rect fill="#EEEEEE" height="12" rx="5" ry="5" style="stroke: #000000; stroke-width: 2.5;" width="20" x="506.5" y="207.3438"/><path d="M515.5,209.3438 L515.5,212.3438 L512.5,212.3438 L512.5,214.3438 L515.5,214.3438 L515.5,217.3438 L517.5,217.3438 L517.5,214.3438 L520.5,214.3438 L520.5,212.3438 L517.5,212.3438 L517.5,209.3438 L515.5,209.3438 " fill="#000000" style="stroke: ; stroke-width: 0.0; stroke-dasharray: ;"/><rect fill="#EEEEEE" height="12" rx="5" ry="5" style="stroke: #000000; stroke-width: 2.5;" width="20" x="533.5" y="207.3438"/><path d="M540.906,209.3438 L539.5,210.7498 L540.188,211.4688 L541.969,213.2498 L540.188,215.0308 L539.5,215.7498 L540.906,217.1558 L541.625,216.4678 L543.406,214.6868 L545.187,216.4678 L545.906,217.1558 L547.312,215.7498 L546.624,215.0308 L544.843,213.2498 L546.624,211.4688 L547.312,210.7498 L545.906,209.3438 L545.187,210.0318 L543.406,211.8128 L541.625,210.0318 L540.906,209.3438 " fill="#000000" style="stroke: ; stroke-width: 0.0; stroke-dasharray: ;"/><text fill="#000000" font-family="sans-serif" font-size="12" lengthAdjust="spacingAndGlyphs" textLength="129" x="6" y="239.3945">Autres caractéristiques:</text><text fill="#000000" font-family="sans-serif" font-size="12" lengthAdjust="spacingAndGlyphs" textLength="241" x="374" y="240.3945">Paramètre 1 (ex: Nombre d'homme à bord) :</text><text fill="#000000" font-family="sans-serif" font-size="12" lengthAdjust="spacingAndGlyphs" textLength="7" x="620" y="240.3945">1</text><line style="stroke: #000000; stroke-width: 1.0;" x1="618" x2="669" y1="243.0313" y2="243.0313"/><line style="stroke: #000000; stroke-width: 1.0;" x1="618" x2="618" y1="240.0313" y2="242.0313"/><line style="stroke: #000000; stroke-width: 1.0;" x1="669" x2="669" y1="240.0313" y2="242.0313"/><text fill="#000000" font-family="sans-serif" font-size="12" lengthAdjust="spacingAndGlyphs" textLength="74" x="374" y="261.4883">Paramètre 2 :</text><rect fill="#EEEEEE" height="18.0938" style="stroke: #000000; stroke-width: 1.0;" width="159" x="450" y="249.0313"/><text fill="#000000" font-family="sans-serif" font-size="12" lengthAdjust="spacingAndGlyphs" textLength="93" x="452" y="263.4883">Valeur qualitative</text><line style="stroke: #000000; stroke-width: 1.0;" x1="598" x2="598" y1="249.0313" y2="267.125"/><polygon fill="#000000" points="601,255.0313,607,255.0313,604,262.125" style="stroke: #000000; stroke-width: 1.0;"/><text fill="#000000" font-family="sans-serif" font-size="12" lengthAdjust="spacingAndGlyphs" textLength="241" x="374" y="284.582">Paramètre 3 (ex: Principale zone de pêche) :</text><rect fill="#EEEEEE" height="18.0938" style="stroke: #000000; stroke-width: 1.0;" width="159" x="617" y="272.125"/><text fill="#000000" font-family="sans-serif" font-size="12" lengthAdjust="spacingAndGlyphs" textLength="93" x="619" y="286.582">Valeur qualitative</text><line style="stroke: #000000; stroke-width: 1.0;" x1="765" x2="765" y1="272.125" y2="290.2188"/><polygon fill="#000000" points="768,278.125,774,278.125,771,285.2188" style="stroke: #000000; stroke-width: 1.0;"/><text fill="#000000" font-family="sans-serif" font-size="12" lengthAdjust="spacingAndGlyphs" textLength="263" x="374" y="307.6758">Paramètre 4 (ex: Gradient de distance à la côte):</text><rect fill="#EEEEEE" height="18.0938" style="stroke: #000000; stroke-width: 1.0;" width="159" x="639" y="295.2188"/><text fill="#000000" font-family="sans-serif" font-size="12" lengthAdjust="spacingAndGlyphs" textLength="93" x="641" y="309.6758">Valeur qualitative</text><line style="stroke: #000000; stroke-width: 1.0;" x1="787" x2="787" y1="295.2188" y2="313.3125"/><polygon fill="#000000" points="790,301.2188,796,301.2188,793,308.3125" style="stroke: #000000; stroke-width: 1.0;"/><text fill="#000000" font-family="sans-serif" font-size="12" lengthAdjust="spacingAndGlyphs" textLength="176" x="374" y="330.7695">Paramètre 5 (ex: Force du vent) :</text><rect fill="#EEEEEE" height="18.0938" style="stroke: #000000; stroke-width: 1.0;" width="159" x="552" y="318.3125"/><text fill="#000000" font-family="sans-serif" font-size="12" lengthAdjust="spacingAndGlyphs" textLength="93" x="554" y="332.7695">Valeur qualitative</text><line style="stroke: #000000; stroke-width: 1.0;" x1="700" x2="700" y1="318.3125" y2="336.4063"/><polygon fill="#000000" points="703,324.3125,709,324.3125,706,331.4063" style="stroke: #000000; stroke-width: 1.0;"/><text fill="#000000" font-family="sans-serif" font-size="12" lengthAdjust="spacingAndGlyphs" textLength="192" x="374" y="353.8633">Paramètre 6 (ex: Force du courant):</text><rect fill="#EEEEEE" height="18.0938" style="stroke: #000000; stroke-width: 1.0;" width="159" x="568" y="341.4063"/><text fill="#000000" font-family="sans-serif" font-size="12" lengthAdjust="spacingAndGlyphs" textLength="93" x="570" y="355.8633">Valeur qualitative</text><line style="stroke: #000000; stroke-width: 1.0;" x1="716" x2="716" y1="341.4063" y2="359.5"/><polygon fill="#000000" points="719,347.4063,725,347.4063,722,354.5" style="stroke: #000000; stroke-width: 1.0;"/><text fill="#000000" font-family="sans-serif" font-size="12" lengthAdjust="spacingAndGlyphs" textLength="83" x="6" y="393.0508">Commentaires</text><text fill="#000000" font-family="sans-serif" font-size="12" lengthAdjust="spacingAndGlyphs" textLength="80" x="377" y="394.0508">commentaires</text><line style="stroke: #000000; stroke-width: 1.0;" x1="375" x2="530" y1="396.6875" y2="396.6875"/><line style="stroke: #000000; stroke-width: 1.0;" x1="375" x2="375" y1="393.6875" y2="395.6875"/><line style="stroke: #000000; stroke-width: 1.0;" x1="530" x2="530" y1="393.6875" y2="395.6875"/><line style="stroke: #AAAAAA; stroke-width: 1.0;" x1="6" x2="372" y1="405.1875" y2="405.1875"/><line style="stroke: #AAAAAA; stroke-width: 1.0;" x1="373" x2="801" y1="405.1875" y2="405.1875"/><rect fill="#EEEEEE" height="19.0938" rx="5" ry="5" style="stroke: #000000; stroke-width: 2.5;" width="60" x="376.5" y="413.1875"/><text fill="#000000" font-family="sans-serif" font-size="12" lengthAdjust="spacingAndGlyphs" textLength="42" x="385.5" y="427.6445">Annuler</text><rect fill="#EEEEEE" height="19.0938" rx="5" ry="5" style="stroke: #000000; stroke-width: 2.5;" width="92" x="443.5" y="413.1875"/><text fill="#000000" font-family="sans-serif" font-size="12" lengthAdjust="spacingAndGlyphs" textLength="70" x="454.5" y="427.6445">Sauvegarder</text></g></svg>