<?xml version="1.0" encoding="UTF-8" standalone="no"?><svg xmlns="http://www.w3.org/2000/svg" xmlns:xlink="http://www.w3.org/1999/xlink" contentScriptType="application/ecmascript" contentStyleType="text/css" height="440px" preserveAspectRatio="none" style="width:565px;height:440px;" version="1.1" viewBox="0 0 565 440" width="565px" zoomAndPan="magnify"><defs/><g><text fill="#000000" font-family="sans-serif" font-size="12" font-weight="bold" lengthAdjust="spacingAndGlyphs" textLength="135" x="6" y="18.457">Nouveau débarquement</text><line style="stroke: #AAAAAA; stroke-width: 1.0; stroke-dasharray: 1.0,2.0;" x1="6" x2="372" y1="26.5938" y2="26.5938"/><text fill="#000000" font-family="sans-serif" font-size="12" font-weight="bold" lengthAdjust="spacingAndGlyphs" textLength="66" x="8" y="43.5508">General trip</text><line style="stroke: #000000; stroke-width: 1.0;" x1="6" x2="6" y1="31.0938" y2="46.1875"/><line style="stroke: #000000; stroke-width: 1.0;" x1="6" x2="77" y1="31.0938" y2="31.0938"/><line style="stroke: #000000; stroke-width: 1.0;" x1="77" x2="77" y1="31.0938" y2="46.1875"/><line style="stroke: #000000; stroke-width: 1.0;" x1="77" x2="87" y1="46.1875" y2="46.1875"/><text fill="#000000" font-family="sans-serif" font-size="12" lengthAdjust="spacingAndGlyphs" textLength="28" x="89" y="43.5508">Effort</text><line style="stroke: #000000; stroke-width: 1.0;" x1="87" x2="87" y1="31.0938" y2="46.1875"/><line style="stroke: #000000; stroke-width: 1.0;" x1="87" x2="120" y1="31.0938" y2="31.0938"/><line style="stroke: #000000; stroke-width: 1.0;" x1="120" x2="120" y1="31.0938" y2="46.1875"/><line style="stroke: #000000; stroke-width: 1.0;" x1="120" x2="130" y1="46.1875" y2="46.1875"/><text fill="#000000" font-family="sans-serif" font-size="12" lengthAdjust="spacingAndGlyphs" textLength="107" x="132" y="43.5508">Capture débarquée</text><line style="stroke: #000000; stroke-width: 1.0;" x1="130" x2="130" y1="31.0938" y2="46.1875"/><line style="stroke: #000000; stroke-width: 1.0;" x1="130" x2="242" y1="31.0938" y2="31.0938"/><line style="stroke: #000000; stroke-width: 1.0;" x1="242" x2="242" y1="31.0938" y2="46.1875"/><line style="stroke: #000000; stroke-width: 1.0;" x1="242" x2="252" y1="46.1875" y2="46.1875"/><text fill="#000000" font-family="sans-serif" font-size="12" lengthAdjust="spacingAndGlyphs" textLength="31" x="254" y="43.5508">Vente</text><line style="stroke: #000000; stroke-width: 1.0;" x1="252" x2="252" y1="31.0938" y2="46.1875"/><line style="stroke: #000000; stroke-width: 1.0;" x1="252" x2="288" y1="31.0938" y2="31.0938"/><line style="stroke: #000000; stroke-width: 1.0;" x1="288" x2="288" y1="31.0938" y2="46.1875"/><line style="stroke: #000000; stroke-width: 1.0;" x1="288" x2="298" y1="46.1875" y2="46.1875"/><text fill="#000000" font-family="sans-serif" font-size="12" lengthAdjust="spacingAndGlyphs" textLength="58" x="300" y="43.5508">Dépenses</text><line style="stroke: #000000; stroke-width: 1.0;" x1="298" x2="298" y1="31.0938" y2="46.1875"/><line style="stroke: #000000; stroke-width: 1.0;" x1="298" x2="361" y1="31.0938" y2="31.0938"/><line style="stroke: #000000; stroke-width: 1.0;" x1="361" x2="361" y1="31.0938" y2="46.1875"/><line style="stroke: #000000; stroke-width: 1.0;" x1="361" x2="371" y1="46.1875" y2="46.1875"/><text fill="#000000" font-family="sans-serif" font-size="12" lengthAdjust="spacingAndGlyphs" textLength="136" x="6" y="77.7383">Programme de collecte*:</text><rect fill="#EEEEEE" height="18.0938" style="stroke: #000000; stroke-width: 1.0;" width="95" x="374" y="66.2813"/><text fill="#000000" font-family="sans-serif" font-size="12" lengthAdjust="spacingAndGlyphs" textLength="74" x="376" y="80.7383">SIH-OBSDEB</text><line style="stroke: #000000; stroke-width: 1.0;" x1="458" x2="458" y1="66.2813" y2="84.375"/><polygon fill="#000000" points="461,72.2813,467,72.2813,464,79.375" style="stroke: #000000; stroke-width: 1.0;"/><text fill="#000000" font-family="sans-serif" font-size="12" lengthAdjust="spacingAndGlyphs" textLength="43" x="6" y="100.832">Navire*:</text><rect fill="#EEEEEE" height="18.0938" style="stroke: #000000; stroke-width: 1.0;" width="95" x="374" y="89.375"/><text fill="#000000" font-family="sans-serif" font-size="12" lengthAdjust="spacingAndGlyphs" textLength="72" x="376" y="103.832">FRA0001114</text><line style="stroke: #000000; stroke-width: 1.0;" x1="458" x2="458" y1="89.375" y2="107.4688"/><polygon fill="#000000" points="461,95.375,467,95.375,464,102.4688" style="stroke: #000000; stroke-width: 1.0;"/><path d="M476,89.375 L476,92.375 L473,92.375 L473,94.375 L476,94.375 L476,97.375 L478,97.375 L478,94.375 L481,94.375 L481,92.375 L478,92.375 L478,89.375 L476,89.375 " fill="#000000" style="stroke: ; stroke-width: 0.0; stroke-dasharray: ;"/><text fill="#000000" font-family="sans-serif" font-size="12" lengthAdjust="spacingAndGlyphs" textLength="202" x="6" y="123.9258">Lieu de débarquement de la marée*:</text><rect fill="#EEEEEE" height="18.0938" style="stroke: #000000; stroke-width: 1.0;" width="143" x="374" y="112.4688"/><text fill="#000000" font-family="sans-serif" font-size="12" lengthAdjust="spacingAndGlyphs" textLength="93" x="376" y="126.9258">MA - Mahé Island</text><line style="stroke: #000000; stroke-width: 1.0;" x1="506" x2="506" y1="112.4688" y2="130.5625"/><polygon fill="#000000" points="509,118.4688,515,118.4688,512,125.5625" style="stroke: #000000; stroke-width: 1.0;"/><text fill="#000000" font-family="sans-serif" font-size="12" lengthAdjust="spacingAndGlyphs" textLength="161" x="6" y="147.0195">Date/Heure début de marée*:</text><rect fill="#EEEEEE" height="18.0938" style="stroke: #000000; stroke-width: 1.0;" width="95" x="374" y="135.5625"/><text fill="#000000" font-family="sans-serif" font-size="12" lengthAdjust="spacingAndGlyphs" textLength="62" x="376" y="150.0195">01/02/2019</text><line style="stroke: #000000; stroke-width: 1.0;" x1="458" x2="458" y1="135.5625" y2="153.6563"/><polygon fill="#000000" points="461,141.5625,467,141.5625,464,148.6563" style="stroke: #000000; stroke-width: 1.0;"/><rect fill="#EEEEEE" height="18.0938" style="stroke: #000000; stroke-width: 1.0;" width="55" x="472" y="135.5625"/><text fill="#000000" font-family="sans-serif" font-size="12" lengthAdjust="spacingAndGlyphs" textLength="31" x="474" y="150.0195">00:00</text><line style="stroke: #000000; stroke-width: 1.0;" x1="516" x2="516" y1="135.5625" y2="153.6563"/><polygon fill="#000000" points="519,141.5625,525,141.5625,522,148.6563" style="stroke: #000000; stroke-width: 1.0;"/><text fill="#000000" font-family="sans-serif" font-size="12" lengthAdjust="spacingAndGlyphs" textLength="138" x="6" y="170.1133">Date/Heure fin de marée:</text><rect fill="#EEEEEE" height="18.0938" style="stroke: #000000; stroke-width: 1.0;" width="95" x="374" y="158.6563"/><text fill="#000000" font-family="sans-serif" font-size="12" lengthAdjust="spacingAndGlyphs" textLength="62" x="376" y="173.1133">01/02/2019</text><line style="stroke: #000000; stroke-width: 1.0;" x1="458" x2="458" y1="158.6563" y2="176.75"/><polygon fill="#000000" points="461,164.6563,467,164.6563,464,171.75" style="stroke: #000000; stroke-width: 1.0;"/><rect fill="#EEEEEE" height="18.0938" style="stroke: #000000; stroke-width: 1.0;" width="55" x="472" y="158.6563"/><text fill="#000000" font-family="sans-serif" font-size="12" lengthAdjust="spacingAndGlyphs" textLength="31" x="474" y="173.1133">23:59</text><line style="stroke: #000000; stroke-width: 1.0;" x1="516" x2="516" y1="158.6563" y2="176.75"/><polygon fill="#000000" points="519,164.6563,525,164.6563,522,171.75" style="stroke: #000000; stroke-width: 1.0;"/><text fill="#000000" font-family="sans-serif" font-size="12" lengthAdjust="spacingAndGlyphs" textLength="85" x="6" y="193.207">Observateurs* :</text><rect fill="#EEEEEE" height="18.0938" style="stroke: #000000; stroke-width: 1.0;" width="127" x="374" y="181.75"/><text fill="#000000" font-family="sans-serif" font-size="12" lengthAdjust="spacingAndGlyphs" textLength="84" x="376" y="196.207">Observateur #1</text><line style="stroke: #000000; stroke-width: 1.0;" x1="490" x2="490" y1="181.75" y2="199.8438"/><polygon fill="#000000" points="493,187.75,499,187.75,496,194.8438" style="stroke: #000000; stroke-width: 1.0;"/><rect fill="#EEEEEE" height="12" rx="5" ry="5" style="stroke: #000000; stroke-width: 2.5;" width="20" x="506.5" y="184.25"/><path d="M515.5,186.25 L515.5,189.25 L512.5,189.25 L512.5,191.25 L515.5,191.25 L515.5,194.25 L517.5,194.25 L517.5,191.25 L520.5,191.25 L520.5,189.25 L517.5,189.25 L517.5,186.25 L515.5,186.25 " fill="#000000" style="stroke: ; stroke-width: 0.0; stroke-dasharray: ;"/><rect fill="#EEEEEE" height="12" rx="5" ry="5" style="stroke: #000000; stroke-width: 2.5;" width="20" x="533.5" y="184.25"/><path d="M540.906,186.25 L539.5,187.656 L540.188,188.375 L541.969,190.156 L540.188,191.937 L539.5,192.656 L540.906,194.062 L541.625,193.374 L543.406,191.593 L545.187,193.374 L545.906,194.062 L547.312,192.656 L546.624,191.937 L544.843,190.156 L546.624,188.375 L547.312,187.656 L545.906,186.25 L545.187,186.938 L543.406,188.719 L541.625,186.938 L540.906,186.25 " fill="#000000" style="stroke: ; stroke-width: 0.0; stroke-dasharray: ;"/><text fill="#000000" font-family="sans-serif" font-size="12" lengthAdjust="spacingAndGlyphs" textLength="51" x="6" y="216.3008">Metiers* :</text><rect fill="#EEEEEE" height="18.0938" style="stroke: #000000; stroke-width: 1.0;" width="127" x="374" y="204.8438"/><text fill="#000000" font-family="sans-serif" font-size="12" lengthAdjust="spacingAndGlyphs" textLength="50" x="376" y="219.3008">Metier #1</text><line style="stroke: #000000; stroke-width: 1.0;" x1="490" x2="490" y1="204.8438" y2="222.9375"/><polygon fill="#000000" points="493,210.8438,499,210.8438,496,217.9375" style="stroke: #000000; stroke-width: 1.0;"/><line style="stroke: #AAAAAA; stroke-width: 1.0; stroke-dasharray: 1.0,2.0;" x1="6" x2="372" y1="230.4375" y2="230.4375"/><text fill="#000000" font-family="sans-serif" font-size="12" font-weight="bold" lengthAdjust="spacingAndGlyphs" textLength="138" x="6" y="247.3945">Autres caractéristiques:</text><text fill="#000000" font-family="sans-serif" font-size="12" lengthAdjust="spacingAndGlyphs" textLength="138" x="6" y="264.4883">Nombre d'homme à bord</text><text fill="#000000" font-family="sans-serif" font-size="12" lengthAdjust="spacingAndGlyphs" textLength="7" x="377" y="265.4883">1</text><line style="stroke: #000000; stroke-width: 1.0;" x1="375" x2="426" y1="268.125" y2="268.125"/><line style="stroke: #000000; stroke-width: 1.0;" x1="375" x2="375" y1="265.125" y2="267.125"/><line style="stroke: #000000; stroke-width: 1.0;" x1="426" x2="426" y1="265.125" y2="267.125"/><text fill="#000000" font-family="sans-serif" font-size="12" lengthAdjust="spacingAndGlyphs" textLength="138" x="6" y="285.582">Principale zone de pêche</text><rect fill="#EEEEEE" height="18.0938" style="stroke: #000000; stroke-width: 1.0;" width="159" x="374" y="274.125"/><text fill="#000000" font-family="sans-serif" font-size="12" lengthAdjust="spacingAndGlyphs" textLength="93" x="376" y="288.582">Valeur qualitative</text><line style="stroke: #000000; stroke-width: 1.0;" x1="522" x2="522" y1="274.125" y2="292.2188"/><polygon fill="#000000" points="525,280.125,531,280.125,528,287.2188" style="stroke: #000000; stroke-width: 1.0;"/><text fill="#000000" font-family="sans-serif" font-size="12" lengthAdjust="spacingAndGlyphs" textLength="163" x="6" y="308.6758">Gradient de distance à la côte</text><rect fill="#EEEEEE" height="18.0938" style="stroke: #000000; stroke-width: 1.0;" width="159" x="374" y="297.2188"/><text fill="#000000" font-family="sans-serif" font-size="12" lengthAdjust="spacingAndGlyphs" textLength="93" x="376" y="311.6758">Valeur qualitative</text><line style="stroke: #000000; stroke-width: 1.0;" x1="522" x2="522" y1="297.2188" y2="315.3125"/><polygon fill="#000000" points="525,303.2188,531,303.2188,528,310.3125" style="stroke: #000000; stroke-width: 1.0;"/><text fill="#000000" font-family="sans-serif" font-size="12" lengthAdjust="spacingAndGlyphs" textLength="73" x="6" y="331.7695">Force du vent</text><rect fill="#EEEEEE" height="18.0938" style="stroke: #000000; stroke-width: 1.0;" width="159" x="374" y="320.3125"/><text fill="#000000" font-family="sans-serif" font-size="12" lengthAdjust="spacingAndGlyphs" textLength="93" x="376" y="334.7695">Valeur qualitative</text><line style="stroke: #000000; stroke-width: 1.0;" x1="522" x2="522" y1="320.3125" y2="338.4063"/><polygon fill="#000000" points="525,326.3125,531,326.3125,528,333.4063" style="stroke: #000000; stroke-width: 1.0;"/><text fill="#000000" font-family="sans-serif" font-size="12" lengthAdjust="spacingAndGlyphs" textLength="92" x="6" y="354.8633">Force du courant</text><rect fill="#EEEEEE" height="18.0938" style="stroke: #000000; stroke-width: 1.0;" width="159" x="374" y="343.4063"/><text fill="#000000" font-family="sans-serif" font-size="12" lengthAdjust="spacingAndGlyphs" textLength="93" x="376" y="357.8633">Valeur qualitative</text><line style="stroke: #000000; stroke-width: 1.0;" x1="522" x2="522" y1="343.4063" y2="361.5"/><polygon fill="#000000" points="525,349.4063,531,349.4063,528,356.5" style="stroke: #000000; stroke-width: 1.0;"/><text fill="#000000" font-family="sans-serif" font-size="12" lengthAdjust="spacingAndGlyphs" textLength="83" x="6" y="395.0508">Commentaires</text><text fill="#000000" font-family="sans-serif" font-size="12" lengthAdjust="spacingAndGlyphs" textLength="80" x="377" y="396.0508">commentaires</text><line style="stroke: #000000; stroke-width: 1.0;" x1="375" x2="530" y1="398.6875" y2="398.6875"/><line style="stroke: #000000; stroke-width: 1.0;" x1="375" x2="375" y1="395.6875" y2="397.6875"/><line style="stroke: #000000; stroke-width: 1.0;" x1="530" x2="530" y1="395.6875" y2="397.6875"/><line style="stroke: #AAAAAA; stroke-width: 1.0;" x1="6" x2="372" y1="407.1875" y2="407.1875"/><line style="stroke: #AAAAAA; stroke-width: 1.0;" x1="373" x2="558" y1="407.1875" y2="407.1875"/><rect fill="#EEEEEE" height="19.0938" rx="5" ry="5" style="stroke: #000000; stroke-width: 2.5;" width="92" x="376.5" y="415.1875"/><text fill="#000000" font-family="sans-serif" font-size="12" lengthAdjust="spacingAndGlyphs" textLength="70" x="387.5" y="429.6445">Sauvegarder</text><rect fill="#EEEEEE" height="19.0938" rx="5" ry="5" style="stroke: #000000; stroke-width: 2.5;" width="68" x="475.5" y="415.1875"/><text fill="#000000" font-family="sans-serif" font-size="12" lengthAdjust="spacingAndGlyphs" textLength="50" x="484.5" y="429.6445">Terminer</text></g></svg>