<?xml version="1.0" encoding="UTF-8" standalone="no"?><svg xmlns="http://www.w3.org/2000/svg" xmlns:xlink="http://www.w3.org/1999/xlink" contentScriptType="application/ecmascript" contentStyleType="text/css" height="737px" preserveAspectRatio="none" style="width:813px;height:737px;" version="1.1" viewBox="0 0 813 737" width="813px" zoomAndPan="magnify"><defs/><g><text fill="#000000" font-family="sans-serif" font-size="12" font-weight="bold" lengthAdjust="spacingAndGlyphs" textLength="248" x="9" y="18.457">Immat Navire - Lieu - Date fin marée - Métier</text><line style="stroke: #AAAAAA; stroke-width: 1.0; stroke-dasharray: 1.0,2.0;" x1="6" x2="794" y1="26.5938" y2="26.5938"/><text fill="#000000" font-family="sans-serif" font-size="12" lengthAdjust="spacingAndGlyphs" textLength="64" x="8" y="43.5508">General trip</text><line style="stroke: #000000; stroke-width: 1.0;" x1="6" x2="6" y1="31.0938" y2="46.1875"/><line style="stroke: #000000; stroke-width: 1.0;" x1="6" x2="75" y1="31.0938" y2="31.0938"/><line style="stroke: #000000; stroke-width: 1.0;" x1="75" x2="75" y1="31.0938" y2="46.1875"/><line style="stroke: #000000; stroke-width: 1.0;" x1="75" x2="85" y1="46.1875" y2="46.1875"/><text fill="#000000" font-family="sans-serif" font-size="12" lengthAdjust="spacingAndGlyphs" textLength="28" x="87" y="43.5508">Effort</text><line style="stroke: #000000; stroke-width: 1.0;" x1="85" x2="85" y1="31.0938" y2="46.1875"/><line style="stroke: #000000; stroke-width: 1.0;" x1="85" x2="118" y1="31.0938" y2="31.0938"/><line style="stroke: #000000; stroke-width: 1.0;" x1="118" x2="118" y1="31.0938" y2="46.1875"/><line style="stroke: #000000; stroke-width: 1.0;" x1="118" x2="128" y1="46.1875" y2="46.1875"/><text fill="#000000" font-family="sans-serif" font-size="12" lengthAdjust="spacingAndGlyphs" textLength="107" x="130" y="43.5508">Capture débarquée</text><line style="stroke: #000000; stroke-width: 1.0;" x1="128" x2="128" y1="31.0938" y2="46.1875"/><line style="stroke: #000000; stroke-width: 1.0;" x1="128" x2="240" y1="31.0938" y2="31.0938"/><line style="stroke: #000000; stroke-width: 1.0;" x1="240" x2="240" y1="31.0938" y2="46.1875"/><line style="stroke: #000000; stroke-width: 1.0;" x1="240" x2="250" y1="46.1875" y2="46.1875"/><text fill="#000000" font-family="sans-serif" font-size="12" lengthAdjust="spacingAndGlyphs" textLength="31" x="252" y="43.5508">Vente</text><line style="stroke: #000000; stroke-width: 1.0;" x1="250" x2="250" y1="31.0938" y2="46.1875"/><line style="stroke: #000000; stroke-width: 1.0;" x1="250" x2="286" y1="31.0938" y2="31.0938"/><line style="stroke: #000000; stroke-width: 1.0;" x1="286" x2="286" y1="31.0938" y2="46.1875"/><line style="stroke: #000000; stroke-width: 1.0;" x1="286" x2="296" y1="46.1875" y2="46.1875"/><text fill="#000000" font-family="sans-serif" font-size="12" font-weight="bold" lengthAdjust="spacingAndGlyphs" textLength="57" x="298" y="43.5508">Dépenses</text><line style="stroke: #000000; stroke-width: 1.0;" x1="296" x2="296" y1="31.0938" y2="46.1875"/><line style="stroke: #000000; stroke-width: 1.0;" x1="296" x2="358" y1="31.0938" y2="31.0938"/><line style="stroke: #000000; stroke-width: 1.0;" x1="358" x2="358" y1="31.0938" y2="46.1875"/><line style="stroke: #000000; stroke-width: 1.0;" x1="358" x2="368" y1="46.1875" y2="46.1875"/><text fill="#000000" font-family="sans-serif" font-size="12" lengthAdjust="spacingAndGlyphs" textLength="237" x="7" y="78.7383">Estimation des dépenses totales (Devise) :</text><text fill="#000000" font-family="sans-serif" font-size="12" lengthAdjust="spacingAndGlyphs" textLength="0" x="253" y="79.7383"/><line style="stroke: #000000; stroke-width: 1.0;" x1="248" x2="339" y1="82.375" y2="82.375"/><line style="stroke: #000000; stroke-width: 1.0;" x1="248" x2="248" y1="79.375" y2="81.375"/><line style="stroke: #000000; stroke-width: 1.0;" x1="339" x2="339" y1="79.375" y2="81.375"/><line style="stroke: #000000; stroke-width: 1.0;" x1="246" x2="342" y1="66.2813" y2="66.2813"/><line style="stroke: #000000; stroke-width: 1.0;" x1="246" x2="342" y1="85.375" y2="85.375"/><line style="stroke: #000000; stroke-width: 1.0;" x1="246" x2="246" y1="66.2813" y2="85.375"/><line style="stroke: #000000; stroke-width: 1.0;" x1="342" x2="342" y1="66.2813" y2="85.375"/><text fill="#000000" font-family="sans-serif" font-size="12" lengthAdjust="spacingAndGlyphs" textLength="94" x="345" y="79.7383">Coût total calculé</text><text fill="#0000FF" font-family="sans-serif" font-size="12" lengthAdjust="spacingAndGlyphs" textLength="31" x="445" y="80.7383">354.0</text><text fill="#000000" font-family="sans-serif" font-size="12" lengthAdjust="spacingAndGlyphs" textLength="38" x="479" y="79.7383">Devise</text><line style="stroke: #AAAAAA; stroke-width: 1.0;" x1="6" x2="794" y1="91.875" y2="91.875"/><line style="stroke: #AAAAAA; stroke-width: 1.0;" x1="795" x2="806" y1="91.875" y2="91.875"/><text fill="#000000" font-family="sans-serif" font-size="12" font-weight="bold" lengthAdjust="spacingAndGlyphs" textLength="115" x="6" y="108.832">Détail des dépenses</text><line style="stroke: #AAAAAA; stroke-width: 1.0; stroke-dasharray: 1.0,2.0;" x1="6" x2="794" y1="116.9688" y2="116.9688"/><text fill="#000000" font-family="sans-serif" font-size="12" font-weight="bold" lengthAdjust="spacingAndGlyphs" textLength="149" x="9" y="152.0195">Fluides de fonctionnement</text><line style="stroke: #000000; stroke-width: 1.0;" x1="7" x2="7" y1="139.5625" y2="154.6563"/><line style="stroke: #000000; stroke-width: 1.0;" x1="7" x2="161" y1="139.5625" y2="139.5625"/><line style="stroke: #000000; stroke-width: 1.0;" x1="161" x2="161" y1="139.5625" y2="154.6563"/><line style="stroke: #000000; stroke-width: 1.0;" x1="161" x2="171" y1="154.6563" y2="154.6563"/><text fill="#000000" font-family="sans-serif" font-size="12" lengthAdjust="spacingAndGlyphs" textLength="78" x="173" y="152.0195">Frais annexes</text><line style="stroke: #000000; stroke-width: 1.0;" x1="171" x2="171" y1="139.5625" y2="154.6563"/><line style="stroke: #000000; stroke-width: 1.0;" x1="171" x2="254" y1="139.5625" y2="139.5625"/><line style="stroke: #000000; stroke-width: 1.0;" x1="254" x2="254" y1="139.5625" y2="154.6563"/><line style="stroke: #000000; stroke-width: 1.0;" x1="254" x2="264" y1="154.6563" y2="154.6563"/><text fill="#000000" font-family="sans-serif" font-size="12" lengthAdjust="spacingAndGlyphs" textLength="75" x="266" y="152.0195">Glace utilisée</text><line style="stroke: #000000; stroke-width: 1.0;" x1="264" x2="264" y1="139.5625" y2="154.6563"/><line style="stroke: #000000; stroke-width: 1.0;" x1="264" x2="344" y1="139.5625" y2="139.5625"/><line style="stroke: #000000; stroke-width: 1.0;" x1="344" x2="344" y1="139.5625" y2="154.6563"/><line style="stroke: #000000; stroke-width: 1.0;" x1="344" x2="354" y1="154.6563" y2="154.6563"/><text fill="#000000" font-family="sans-serif" font-size="12" lengthAdjust="spacingAndGlyphs" textLength="38" x="356" y="152.0195">Appâts</text><line style="stroke: #000000; stroke-width: 1.0;" x1="354" x2="354" y1="139.5625" y2="154.6563"/><line style="stroke: #000000; stroke-width: 1.0;" x1="354" x2="397" y1="139.5625" y2="139.5625"/><line style="stroke: #000000; stroke-width: 1.0;" x1="397" x2="397" y1="139.5625" y2="154.6563"/><line style="stroke: #000000; stroke-width: 1.0;" x1="397" x2="407" y1="154.6563" y2="154.6563"/><text fill="#000000" font-family="sans-serif" font-size="12" lengthAdjust="spacingAndGlyphs" textLength="60" x="111" y="188.207">Volume (L)</text><text fill="#000000" font-family="sans-serif" font-size="12" lengthAdjust="spacingAndGlyphs" textLength="79" x="211" y="188.207">Prix (Devise/L)</text><text fill="#000000" font-family="sans-serif" font-size="12" lengthAdjust="spacingAndGlyphs" textLength="95" x="323" y="188.207">Prix total (Devise)</text><rect fill="#EEEEEE" height="18.0938" style="stroke: #000000; stroke-width: 1.0;" width="87" x="9" y="194.8438"/><text fill="#000000" font-family="sans-serif" font-size="12" lengthAdjust="spacingAndGlyphs" textLength="55" x="11" y="209.3008">Carburant</text><line style="stroke: #000000; stroke-width: 1.0;" x1="85" x2="85" y1="194.8438" y2="212.9375"/><polygon fill="#000000" points="88,200.8438,94,200.8438,91,207.9375" style="stroke: #000000; stroke-width: 1.0;"/><text fill="#000000" font-family="sans-serif" font-size="12" lengthAdjust="spacingAndGlyphs" textLength="0" x="118" y="208.3008"/><line style="stroke: #000000; stroke-width: 1.0;" x1="113" x2="204" y1="210.9375" y2="210.9375"/><line style="stroke: #000000; stroke-width: 1.0;" x1="113" x2="113" y1="207.9375" y2="209.9375"/><line style="stroke: #000000; stroke-width: 1.0;" x1="204" x2="204" y1="207.9375" y2="209.9375"/><line style="stroke: #000000; stroke-width: 1.0;" x1="111" x2="207" y1="194.8438" y2="194.8438"/><line style="stroke: #000000; stroke-width: 1.0;" x1="111" x2="207" y1="213.9375" y2="213.9375"/><line style="stroke: #000000; stroke-width: 1.0;" x1="111" x2="111" y1="194.8438" y2="213.9375"/><line style="stroke: #000000; stroke-width: 1.0;" x1="207" x2="207" y1="194.8438" y2="213.9375"/><text fill="#000000" font-family="sans-serif" font-size="12" lengthAdjust="spacingAndGlyphs" textLength="0" x="218" y="208.3008"/><line style="stroke: #000000; stroke-width: 1.0;" x1="213" x2="304" y1="210.9375" y2="210.9375"/><line style="stroke: #000000; stroke-width: 1.0;" x1="213" x2="213" y1="207.9375" y2="209.9375"/><line style="stroke: #000000; stroke-width: 1.0;" x1="304" x2="304" y1="207.9375" y2="209.9375"/><line style="stroke: #000000; stroke-width: 1.0;" x1="211" x2="307" y1="194.8438" y2="194.8438"/><line style="stroke: #000000; stroke-width: 1.0;" x1="211" x2="307" y1="213.9375" y2="213.9375"/><line style="stroke: #000000; stroke-width: 1.0;" x1="211" x2="211" y1="194.8438" y2="213.9375"/><line style="stroke: #000000; stroke-width: 1.0;" x1="307" x2="307" y1="194.8438" y2="213.9375"/><path d="M310.094,194.8438 C310.034,194.8438 310,194.8778 310,194.9378 L310,202.7508 C310,202.8108 310.034,202.8448 310.094,202.8448 L316.907,202.8448 C316.967,202.8448 317.001,202.8108 317.001,202.7508 L317.001,194.9378 C317.001,194.8778 316.967,194.8438 316.907,194.8438 L310.094,194.8438 M311,195.8438 L316,195.8438 L316,197.8438 L311,197.8438 L311,195.8438 M311,198.8438 L312,198.8438 L312,199.8438 L311,199.8438 L311,198.8438 M313,198.8438 L314,198.8438 L314,199.8438 L313,199.8438 L313,198.8438 M315,198.8438 L316,198.8438 L316,201.8438 L315,201.8438 L315,198.8438 M311,200.8438 L312,200.8438 L312,201.8438 L311,201.8438 L311,200.8438 M313,200.8438 L314,200.8438 L314,201.8438 L313,201.8438 L313,200.8438 " fill="#000000" style="stroke: ; stroke-width: 0.0; stroke-dasharray: ;"/><text fill="#000000" font-family="sans-serif" font-size="12" lengthAdjust="spacingAndGlyphs" textLength="0" x="330" y="208.3008"/><line style="stroke: #000000; stroke-width: 1.0;" x1="325" x2="416" y1="210.9375" y2="210.9375"/><line style="stroke: #000000; stroke-width: 1.0;" x1="325" x2="325" y1="207.9375" y2="209.9375"/><line style="stroke: #000000; stroke-width: 1.0;" x1="416" x2="416" y1="207.9375" y2="209.9375"/><line style="stroke: #000000; stroke-width: 1.0;" x1="323" x2="419" y1="194.8438" y2="194.8438"/><line style="stroke: #000000; stroke-width: 1.0;" x1="323" x2="419" y1="213.9375" y2="213.9375"/><line style="stroke: #000000; stroke-width: 1.0;" x1="323" x2="323" y1="194.8438" y2="213.9375"/><line style="stroke: #000000; stroke-width: 1.0;" x1="419" x2="419" y1="194.8438" y2="213.9375"/><text fill="#000000" font-family="sans-serif" font-size="12" lengthAdjust="spacingAndGlyphs" textLength="92" x="8" y="229.3945">huile de moteur :</text><text fill="#000000" font-family="sans-serif" font-size="12" lengthAdjust="spacingAndGlyphs" textLength="0" x="118" y="231.3945"/><line style="stroke: #000000; stroke-width: 1.0;" x1="113" x2="204" y1="234.0313" y2="234.0313"/><line style="stroke: #000000; stroke-width: 1.0;" x1="113" x2="113" y1="231.0313" y2="233.0313"/><line style="stroke: #000000; stroke-width: 1.0;" x1="204" x2="204" y1="231.0313" y2="233.0313"/><line style="stroke: #000000; stroke-width: 1.0;" x1="111" x2="207" y1="217.9375" y2="217.9375"/><line style="stroke: #000000; stroke-width: 1.0;" x1="111" x2="207" y1="237.0313" y2="237.0313"/><line style="stroke: #000000; stroke-width: 1.0;" x1="111" x2="111" y1="217.9375" y2="237.0313"/><line style="stroke: #000000; stroke-width: 1.0;" x1="207" x2="207" y1="217.9375" y2="237.0313"/><text fill="#000000" font-family="sans-serif" font-size="12" lengthAdjust="spacingAndGlyphs" textLength="0" x="218" y="231.3945"/><line style="stroke: #000000; stroke-width: 1.0;" x1="213" x2="304" y1="234.0313" y2="234.0313"/><line style="stroke: #000000; stroke-width: 1.0;" x1="213" x2="213" y1="231.0313" y2="233.0313"/><line style="stroke: #000000; stroke-width: 1.0;" x1="304" x2="304" y1="231.0313" y2="233.0313"/><line style="stroke: #000000; stroke-width: 1.0;" x1="211" x2="307" y1="217.9375" y2="217.9375"/><line style="stroke: #000000; stroke-width: 1.0;" x1="211" x2="307" y1="237.0313" y2="237.0313"/><line style="stroke: #000000; stroke-width: 1.0;" x1="211" x2="211" y1="217.9375" y2="237.0313"/><line style="stroke: #000000; stroke-width: 1.0;" x1="307" x2="307" y1="217.9375" y2="237.0313"/><path d="M310.094,217.9375 C310.034,217.9375 310,217.9715 310,218.0315 L310,225.8445 C310,225.9045 310.034,225.9385 310.094,225.9385 L316.907,225.9385 C316.967,225.9385 317.001,225.9045 317.001,225.8445 L317.001,218.0315 C317.001,217.9715 316.967,217.9375 316.907,217.9375 L310.094,217.9375 M311,218.9375 L316,218.9375 L316,220.9375 L311,220.9375 L311,218.9375 M311,221.9375 L312,221.9375 L312,222.9375 L311,222.9375 L311,221.9375 M313,221.9375 L314,221.9375 L314,222.9375 L313,222.9375 L313,221.9375 M315,221.9375 L316,221.9375 L316,224.9375 L315,224.9375 L315,221.9375 M311,223.9375 L312,223.9375 L312,224.9375 L311,224.9375 L311,223.9375 M313,223.9375 L314,223.9375 L314,224.9375 L313,224.9375 L313,223.9375 " fill="#000000" style="stroke: ; stroke-width: 0.0; stroke-dasharray: ;"/><text fill="#000000" font-family="sans-serif" font-size="12" lengthAdjust="spacingAndGlyphs" textLength="0" x="330" y="231.3945"/><line style="stroke: #000000; stroke-width: 1.0;" x1="325" x2="416" y1="234.0313" y2="234.0313"/><line style="stroke: #000000; stroke-width: 1.0;" x1="325" x2="325" y1="231.0313" y2="233.0313"/><line style="stroke: #000000; stroke-width: 1.0;" x1="416" x2="416" y1="231.0313" y2="233.0313"/><line style="stroke: #000000; stroke-width: 1.0;" x1="323" x2="419" y1="217.9375" y2="217.9375"/><line style="stroke: #000000; stroke-width: 1.0;" x1="323" x2="419" y1="237.0313" y2="237.0313"/><line style="stroke: #000000; stroke-width: 1.0;" x1="323" x2="323" y1="217.9375" y2="237.0313"/><line style="stroke: #000000; stroke-width: 1.0;" x1="419" x2="419" y1="217.9375" y2="237.0313"/><text fill="#000000" font-family="sans-serif" font-size="12" lengthAdjust="spacingAndGlyphs" textLength="100" x="8" y="252.4883">huile hydraulique :</text><text fill="#000000" font-family="sans-serif" font-size="12" lengthAdjust="spacingAndGlyphs" textLength="0" x="118" y="254.4883"/><line style="stroke: #000000; stroke-width: 1.0;" x1="113" x2="204" y1="257.125" y2="257.125"/><line style="stroke: #000000; stroke-width: 1.0;" x1="113" x2="113" y1="254.125" y2="256.125"/><line style="stroke: #000000; stroke-width: 1.0;" x1="204" x2="204" y1="254.125" y2="256.125"/><line style="stroke: #000000; stroke-width: 1.0;" x1="111" x2="207" y1="241.0313" y2="241.0313"/><line style="stroke: #000000; stroke-width: 1.0;" x1="111" x2="207" y1="260.125" y2="260.125"/><line style="stroke: #000000; stroke-width: 1.0;" x1="111" x2="111" y1="241.0313" y2="260.125"/><line style="stroke: #000000; stroke-width: 1.0;" x1="207" x2="207" y1="241.0313" y2="260.125"/><text fill="#000000" font-family="sans-serif" font-size="12" lengthAdjust="spacingAndGlyphs" textLength="0" x="218" y="254.4883"/><line style="stroke: #000000; stroke-width: 1.0;" x1="213" x2="304" y1="257.125" y2="257.125"/><line style="stroke: #000000; stroke-width: 1.0;" x1="213" x2="213" y1="254.125" y2="256.125"/><line style="stroke: #000000; stroke-width: 1.0;" x1="304" x2="304" y1="254.125" y2="256.125"/><line style="stroke: #000000; stroke-width: 1.0;" x1="211" x2="307" y1="241.0313" y2="241.0313"/><line style="stroke: #000000; stroke-width: 1.0;" x1="211" x2="307" y1="260.125" y2="260.125"/><line style="stroke: #000000; stroke-width: 1.0;" x1="211" x2="211" y1="241.0313" y2="260.125"/><line style="stroke: #000000; stroke-width: 1.0;" x1="307" x2="307" y1="241.0313" y2="260.125"/><path d="M310.094,241.0313 C310.034,241.0313 310,241.0653 310,241.1253 L310,248.9383 C310,248.9983 310.034,249.0323 310.094,249.0323 L316.907,249.0323 C316.967,249.0323 317.001,248.9983 317.001,248.9383 L317.001,241.1253 C317.001,241.0653 316.967,241.0313 316.907,241.0313 L310.094,241.0313 M311,242.0313 L316,242.0313 L316,244.0313 L311,244.0313 L311,242.0313 M311,245.0313 L312,245.0313 L312,246.0313 L311,246.0313 L311,245.0313 M313,245.0313 L314,245.0313 L314,246.0313 L313,246.0313 L313,245.0313 M315,245.0313 L316,245.0313 L316,248.0313 L315,248.0313 L315,245.0313 M311,247.0313 L312,247.0313 L312,248.0313 L311,248.0313 L311,247.0313 M313,247.0313 L314,247.0313 L314,248.0313 L313,248.0313 L313,247.0313 " fill="#000000" style="stroke: ; stroke-width: 0.0; stroke-dasharray: ;"/><text fill="#000000" font-family="sans-serif" font-size="12" lengthAdjust="spacingAndGlyphs" textLength="0" x="330" y="254.4883"/><line style="stroke: #000000; stroke-width: 1.0;" x1="325" x2="416" y1="257.125" y2="257.125"/><line style="stroke: #000000; stroke-width: 1.0;" x1="325" x2="325" y1="254.125" y2="256.125"/><line style="stroke: #000000; stroke-width: 1.0;" x1="416" x2="416" y1="254.125" y2="256.125"/><line style="stroke: #000000; stroke-width: 1.0;" x1="323" x2="419" y1="241.0313" y2="241.0313"/><line style="stroke: #000000; stroke-width: 1.0;" x1="323" x2="419" y1="260.125" y2="260.125"/><line style="stroke: #000000; stroke-width: 1.0;" x1="323" x2="323" y1="241.0313" y2="260.125"/><line style="stroke: #000000; stroke-width: 1.0;" x1="419" x2="419" y1="241.0313" y2="260.125"/><line style="stroke: #AAAAAA; stroke-width: 1.0;" x1="6" x2="794" y1="285.7188" y2="285.7188"/><line style="stroke: #AAAAAA; stroke-width: 1.0;" x1="795" x2="806" y1="285.7188" y2="285.7188"/><text fill="#000000" font-family="sans-serif" font-size="12" lengthAdjust="spacingAndGlyphs" textLength="146" x="8" y="319.7695">Fluides de fonctionnement</text><line style="stroke: #000000; stroke-width: 1.0;" x1="6" x2="6" y1="307.3125" y2="322.4063"/><line style="stroke: #000000; stroke-width: 1.0;" x1="6" x2="157" y1="307.3125" y2="307.3125"/><line style="stroke: #000000; stroke-width: 1.0;" x1="157" x2="157" y1="307.3125" y2="322.4063"/><line style="stroke: #000000; stroke-width: 1.0;" x1="157" x2="167" y1="322.4063" y2="322.4063"/><text fill="#000000" font-family="sans-serif" font-size="12" font-weight="bold" lengthAdjust="spacingAndGlyphs" textLength="80" x="169" y="319.7695">Frais annexes</text><line style="stroke: #000000; stroke-width: 1.0;" x1="167" x2="167" y1="307.3125" y2="322.4063"/><line style="stroke: #000000; stroke-width: 1.0;" x1="167" x2="252" y1="307.3125" y2="307.3125"/><line style="stroke: #000000; stroke-width: 1.0;" x1="252" x2="252" y1="307.3125" y2="322.4063"/><line style="stroke: #000000; stroke-width: 1.0;" x1="252" x2="262" y1="322.4063" y2="322.4063"/><text fill="#000000" font-family="sans-serif" font-size="12" lengthAdjust="spacingAndGlyphs" textLength="75" x="264" y="319.7695">Glace utilisée</text><line style="stroke: #000000; stroke-width: 1.0;" x1="262" x2="262" y1="307.3125" y2="322.4063"/><line style="stroke: #000000; stroke-width: 1.0;" x1="262" x2="342" y1="307.3125" y2="307.3125"/><line style="stroke: #000000; stroke-width: 1.0;" x1="342" x2="342" y1="307.3125" y2="322.4063"/><line style="stroke: #000000; stroke-width: 1.0;" x1="342" x2="352" y1="322.4063" y2="322.4063"/><text fill="#000000" font-family="sans-serif" font-size="12" lengthAdjust="spacingAndGlyphs" textLength="38" x="354" y="319.7695">Appâts</text><line style="stroke: #000000; stroke-width: 1.0;" x1="352" x2="352" y1="307.3125" y2="322.4063"/><line style="stroke: #000000; stroke-width: 1.0;" x1="352" x2="395" y1="307.3125" y2="307.3125"/><line style="stroke: #000000; stroke-width: 1.0;" x1="395" x2="395" y1="307.3125" y2="322.4063"/><line style="stroke: #000000; stroke-width: 1.0;" x1="395" x2="405" y1="322.4063" y2="322.4063"/><text fill="#000000" font-family="sans-serif" font-size="12" lengthAdjust="spacingAndGlyphs" textLength="129" x="7" y="337.8633">Frais de débarquement</text><text fill="#000000" font-family="sans-serif" font-size="12" lengthAdjust="spacingAndGlyphs" textLength="0" x="146" y="339.8633"/><line style="stroke: #000000; stroke-width: 1.0;" x1="141" x2="232" y1="342.5" y2="342.5"/><line style="stroke: #000000; stroke-width: 1.0;" x1="141" x2="141" y1="339.5" y2="341.5"/><line style="stroke: #000000; stroke-width: 1.0;" x1="232" x2="232" y1="339.5" y2="341.5"/><line style="stroke: #000000; stroke-width: 1.0;" x1="139" x2="235" y1="326.4063" y2="326.4063"/><line style="stroke: #000000; stroke-width: 1.0;" x1="139" x2="235" y1="345.5" y2="345.5"/><line style="stroke: #000000; stroke-width: 1.0;" x1="139" x2="139" y1="326.4063" y2="345.5"/><line style="stroke: #000000; stroke-width: 1.0;" x1="235" x2="235" y1="326.4063" y2="345.5"/><text fill="#000000" font-family="sans-serif" font-size="12" lengthAdjust="spacingAndGlyphs" textLength="38" x="301" y="338.8633">Devise</text><text fill="#000000" font-family="sans-serif" font-size="12" lengthAdjust="spacingAndGlyphs" textLength="68" x="7" y="360.957">Alimentation</text><text fill="#000000" font-family="sans-serif" font-size="12" lengthAdjust="spacingAndGlyphs" textLength="0" x="146" y="362.957"/><line style="stroke: #000000; stroke-width: 1.0;" x1="141" x2="232" y1="365.5938" y2="365.5938"/><line style="stroke: #000000; stroke-width: 1.0;" x1="141" x2="141" y1="362.5938" y2="364.5938"/><line style="stroke: #000000; stroke-width: 1.0;" x1="232" x2="232" y1="362.5938" y2="364.5938"/><line style="stroke: #000000; stroke-width: 1.0;" x1="139" x2="235" y1="349.5" y2="349.5"/><line style="stroke: #000000; stroke-width: 1.0;" x1="139" x2="235" y1="368.5938" y2="368.5938"/><line style="stroke: #000000; stroke-width: 1.0;" x1="139" x2="139" y1="349.5" y2="368.5938"/><line style="stroke: #000000; stroke-width: 1.0;" x1="235" x2="235" y1="349.5" y2="368.5938"/><text fill="#000000" font-family="sans-serif" font-size="12" lengthAdjust="spacingAndGlyphs" textLength="38" x="301" y="361.957">Devise</text><text fill="#000000" font-family="sans-serif" font-size="12" lengthAdjust="spacingAndGlyphs" textLength="72" x="7" y="384.0508">Perte d'engin</text><text fill="#000000" font-family="sans-serif" font-size="12" lengthAdjust="spacingAndGlyphs" textLength="0" x="146" y="386.0508"/><line style="stroke: #000000; stroke-width: 1.0;" x1="141" x2="232" y1="388.6875" y2="388.6875"/><line style="stroke: #000000; stroke-width: 1.0;" x1="141" x2="141" y1="385.6875" y2="387.6875"/><line style="stroke: #000000; stroke-width: 1.0;" x1="232" x2="232" y1="385.6875" y2="387.6875"/><line style="stroke: #000000; stroke-width: 1.0;" x1="139" x2="235" y1="372.5938" y2="372.5938"/><line style="stroke: #000000; stroke-width: 1.0;" x1="139" x2="235" y1="391.6875" y2="391.6875"/><line style="stroke: #000000; stroke-width: 1.0;" x1="139" x2="139" y1="372.5938" y2="391.6875"/><line style="stroke: #000000; stroke-width: 1.0;" x1="235" x2="235" y1="372.5938" y2="391.6875"/><text fill="#000000" font-family="sans-serif" font-size="12" lengthAdjust="spacingAndGlyphs" textLength="38" x="301" y="385.0508">Devise</text><text fill="#000000" font-family="sans-serif" font-size="12" lengthAdjust="spacingAndGlyphs" textLength="28" x="7" y="407.1445">Autre</text><text fill="#000000" font-family="sans-serif" font-size="12" lengthAdjust="spacingAndGlyphs" textLength="0" x="146" y="409.1445"/><line style="stroke: #000000; stroke-width: 1.0;" x1="141" x2="232" y1="411.7813" y2="411.7813"/><line style="stroke: #000000; stroke-width: 1.0;" x1="141" x2="141" y1="408.7813" y2="410.7813"/><line style="stroke: #000000; stroke-width: 1.0;" x1="232" x2="232" y1="408.7813" y2="410.7813"/><line style="stroke: #000000; stroke-width: 1.0;" x1="139" x2="235" y1="395.6875" y2="395.6875"/><line style="stroke: #000000; stroke-width: 1.0;" x1="139" x2="235" y1="414.7813" y2="414.7813"/><line style="stroke: #000000; stroke-width: 1.0;" x1="139" x2="139" y1="395.6875" y2="414.7813"/><line style="stroke: #000000; stroke-width: 1.0;" x1="235" x2="235" y1="395.6875" y2="414.7813"/><text fill="#000000" font-family="sans-serif" font-size="12" lengthAdjust="spacingAndGlyphs" textLength="38" x="301" y="408.1445">Devise</text><text fill="#000000" font-family="sans-serif" font-size="12" lengthAdjust="spacingAndGlyphs" textLength="83" x="7" y="447.332">Commentaires</text><text fill="#000000" font-family="sans-serif" font-size="12" lengthAdjust="spacingAndGlyphs" textLength="80" x="142" y="448.332">commentaires</text><line style="stroke: #000000; stroke-width: 1.0;" x1="140" x2="295" y1="450.9688" y2="450.9688"/><line style="stroke: #000000; stroke-width: 1.0;" x1="140" x2="140" y1="447.9688" y2="449.9688"/><line style="stroke: #000000; stroke-width: 1.0;" x1="295" x2="295" y1="447.9688" y2="449.9688"/><line style="stroke: #AAAAAA; stroke-width: 1.0;" x1="6" x2="794" y1="477.5625" y2="477.5625"/><line style="stroke: #AAAAAA; stroke-width: 1.0;" x1="795" x2="806" y1="477.5625" y2="477.5625"/><text fill="#000000" font-family="sans-serif" font-size="12" lengthAdjust="spacingAndGlyphs" textLength="146" x="8" y="511.6133">Fluides de fonctionnement</text><line style="stroke: #000000; stroke-width: 1.0;" x1="6" x2="6" y1="499.1563" y2="514.25"/><line style="stroke: #000000; stroke-width: 1.0;" x1="6" x2="157" y1="499.1563" y2="499.1563"/><line style="stroke: #000000; stroke-width: 1.0;" x1="157" x2="157" y1="499.1563" y2="514.25"/><line style="stroke: #000000; stroke-width: 1.0;" x1="157" x2="167" y1="514.25" y2="514.25"/><text fill="#000000" font-family="sans-serif" font-size="12" lengthAdjust="spacingAndGlyphs" textLength="78" x="169" y="511.6133">Frais annexes</text><line style="stroke: #000000; stroke-width: 1.0;" x1="167" x2="167" y1="499.1563" y2="514.25"/><line style="stroke: #000000; stroke-width: 1.0;" x1="167" x2="250" y1="499.1563" y2="499.1563"/><line style="stroke: #000000; stroke-width: 1.0;" x1="250" x2="250" y1="499.1563" y2="514.25"/><line style="stroke: #000000; stroke-width: 1.0;" x1="250" x2="260" y1="514.25" y2="514.25"/><text fill="#000000" font-family="sans-serif" font-size="12" font-weight="bold" lengthAdjust="spacingAndGlyphs" textLength="76" x="262" y="511.6133">Glace utilisée</text><line style="stroke: #000000; stroke-width: 1.0;" x1="260" x2="260" y1="499.1563" y2="514.25"/><line style="stroke: #000000; stroke-width: 1.0;" x1="260" x2="341" y1="499.1563" y2="499.1563"/><line style="stroke: #000000; stroke-width: 1.0;" x1="341" x2="341" y1="499.1563" y2="514.25"/><line style="stroke: #000000; stroke-width: 1.0;" x1="341" x2="351" y1="514.25" y2="514.25"/><text fill="#000000" font-family="sans-serif" font-size="12" lengthAdjust="spacingAndGlyphs" textLength="38" x="353" y="511.6133">Appâts</text><line style="stroke: #000000; stroke-width: 1.0;" x1="351" x2="351" y1="499.1563" y2="514.25"/><line style="stroke: #000000; stroke-width: 1.0;" x1="351" x2="394" y1="499.1563" y2="499.1563"/><line style="stroke: #000000; stroke-width: 1.0;" x1="394" x2="394" y1="499.1563" y2="514.25"/><line style="stroke: #000000; stroke-width: 1.0;" x1="394" x2="404" y1="514.25" y2="514.25"/><text fill="#000000" font-family="sans-serif" font-size="12" lengthAdjust="spacingAndGlyphs" textLength="96" x="8" y="547.8008">Quantité de glace</text><text fill="#000000" font-family="sans-serif" font-size="12" lengthAdjust="spacingAndGlyphs" textLength="0" x="113" y="548.8008"/><line style="stroke: #000000; stroke-width: 1.0;" x1="108" x2="199" y1="551.4375" y2="551.4375"/><line style="stroke: #000000; stroke-width: 1.0;" x1="108" x2="108" y1="548.4375" y2="550.4375"/><line style="stroke: #000000; stroke-width: 1.0;" x1="199" x2="199" y1="548.4375" y2="550.4375"/><line style="stroke: #000000; stroke-width: 1.0;" x1="106" x2="202" y1="535.3438" y2="535.3438"/><line style="stroke: #000000; stroke-width: 1.0;" x1="106" x2="202" y1="554.4375" y2="554.4375"/><line style="stroke: #000000; stroke-width: 1.0;" x1="106" x2="106" y1="535.3438" y2="554.4375"/><line style="stroke: #000000; stroke-width: 1.0;" x1="202" x2="202" y1="535.3438" y2="554.4375"/><rect fill="#EEEEEE" height="18.0938" style="stroke: #000000; stroke-width: 1.0;" width="207" x="239" y="535.3438"/><text fill="#000000" font-family="sans-serif" font-size="12" lengthAdjust="spacingAndGlyphs" textLength="131" x="241" y="549.8008">Unité (au kg ou par sac)</text><line style="stroke: #000000; stroke-width: 1.0;" x1="435" x2="435" y1="535.3438" y2="553.4375"/><polygon fill="#000000" points="438,541.3438,444,541.3438,441,548.4375" style="stroke: #000000; stroke-width: 1.0;"/><text fill="#000000" font-family="sans-serif" font-size="12" lengthAdjust="spacingAndGlyphs" textLength="89" x="8" y="570.8945">Coût de la glace</text><text fill="#000000" font-family="sans-serif" font-size="12" lengthAdjust="spacingAndGlyphs" textLength="0" x="106" y="571.8945"/><line style="stroke: #000000; stroke-width: 1.0;" x1="101" x2="192" y1="574.5313" y2="574.5313"/><line style="stroke: #000000; stroke-width: 1.0;" x1="101" x2="101" y1="571.5313" y2="573.5313"/><line style="stroke: #000000; stroke-width: 1.0;" x1="192" x2="192" y1="571.5313" y2="573.5313"/><line style="stroke: #000000; stroke-width: 1.0;" x1="99" x2="195" y1="558.4375" y2="558.4375"/><line style="stroke: #000000; stroke-width: 1.0;" x1="99" x2="195" y1="577.5313" y2="577.5313"/><line style="stroke: #000000; stroke-width: 1.0;" x1="99" x2="99" y1="558.4375" y2="577.5313"/><line style="stroke: #000000; stroke-width: 1.0;" x1="195" x2="195" y1="558.4375" y2="577.5313"/><text fill="#000000" font-family="sans-serif" font-size="12" lengthAdjust="spacingAndGlyphs" textLength="38" x="197" y="570.8945">Devise</text><line style="stroke: #AAAAAA; stroke-width: 1.0;" x1="6" x2="794" y1="602.125" y2="602.125"/><line style="stroke: #AAAAAA; stroke-width: 1.0;" x1="795" x2="806" y1="602.125" y2="602.125"/><text fill="#000000" font-family="sans-serif" font-size="12" lengthAdjust="spacingAndGlyphs" textLength="146" x="8" y="636.1758">Fluides de fonctionnement</text><line style="stroke: #000000; stroke-width: 1.0;" x1="6" x2="6" y1="623.7188" y2="638.8125"/><line style="stroke: #000000; stroke-width: 1.0;" x1="6" x2="157" y1="623.7188" y2="623.7188"/><line style="stroke: #000000; stroke-width: 1.0;" x1="157" x2="157" y1="623.7188" y2="638.8125"/><line style="stroke: #000000; stroke-width: 1.0;" x1="157" x2="167" y1="638.8125" y2="638.8125"/><text fill="#000000" font-family="sans-serif" font-size="12" lengthAdjust="spacingAndGlyphs" textLength="78" x="169" y="636.1758">Frais annexes</text><line style="stroke: #000000; stroke-width: 1.0;" x1="167" x2="167" y1="623.7188" y2="638.8125"/><line style="stroke: #000000; stroke-width: 1.0;" x1="167" x2="250" y1="623.7188" y2="623.7188"/><line style="stroke: #000000; stroke-width: 1.0;" x1="250" x2="250" y1="623.7188" y2="638.8125"/><line style="stroke: #000000; stroke-width: 1.0;" x1="250" x2="260" y1="638.8125" y2="638.8125"/><text fill="#000000" font-family="sans-serif" font-size="12" lengthAdjust="spacingAndGlyphs" textLength="75" x="262" y="636.1758">Glace utilisée</text><line style="stroke: #000000; stroke-width: 1.0;" x1="260" x2="260" y1="623.7188" y2="638.8125"/><line style="stroke: #000000; stroke-width: 1.0;" x1="260" x2="340" y1="623.7188" y2="623.7188"/><line style="stroke: #000000; stroke-width: 1.0;" x1="340" x2="340" y1="623.7188" y2="638.8125"/><line style="stroke: #000000; stroke-width: 1.0;" x1="340" x2="350" y1="638.8125" y2="638.8125"/><text fill="#000000" font-family="sans-serif" font-size="12" font-weight="bold" lengthAdjust="spacingAndGlyphs" textLength="40" x="352" y="636.1758">Appâts</text><line style="stroke: #000000; stroke-width: 1.0;" x1="350" x2="350" y1="623.7188" y2="638.8125"/><line style="stroke: #000000; stroke-width: 1.0;" x1="350" x2="395" y1="623.7188" y2="623.7188"/><line style="stroke: #000000; stroke-width: 1.0;" x1="395" x2="395" y1="623.7188" y2="638.8125"/><line style="stroke: #000000; stroke-width: 1.0;" x1="395" x2="405" y1="638.8125" y2="638.8125"/><rect fill="#EEEEEE" height="18.0938" style="stroke: #000000; stroke-width: 1.0;" width="111" x="8" y="659.9063"/><text fill="#000000" font-family="sans-serif" font-size="12" lengthAdjust="spacingAndGlyphs" textLength="69" x="10" y="674.3633">Type d'appât</text><line style="stroke: #000000; stroke-width: 1.0;" x1="108" x2="108" y1="659.9063" y2="678"/><polygon fill="#000000" points="111,665.9063,117,665.9063,114,673" style="stroke: #000000; stroke-width: 1.0;"/><text fill="#000000" font-family="sans-serif" font-size="12" lengthAdjust="spacingAndGlyphs" textLength="95" x="124" y="672.3633">Nombre d'appâts</text><text fill="#000000" font-family="sans-serif" font-size="12" lengthAdjust="spacingAndGlyphs" textLength="0" x="228" y="673.3633"/><line style="stroke: #000000; stroke-width: 1.0;" x1="223" x2="314" y1="676" y2="676"/><line style="stroke: #000000; stroke-width: 1.0;" x1="223" x2="223" y1="673" y2="675"/><line style="stroke: #000000; stroke-width: 1.0;" x1="314" x2="314" y1="673" y2="675"/><line style="stroke: #000000; stroke-width: 1.0;" x1="221" x2="317" y1="659.9063" y2="659.9063"/><line style="stroke: #000000; stroke-width: 1.0;" x1="221" x2="317" y1="679" y2="679"/><line style="stroke: #000000; stroke-width: 1.0;" x1="221" x2="221" y1="659.9063" y2="679"/><line style="stroke: #000000; stroke-width: 1.0;" x1="317" x2="317" y1="659.9063" y2="679"/><rect fill="#EEEEEE" height="18.0938" style="stroke: #000000; stroke-width: 1.0;" width="207" x="321" y="659.9063"/><text fill="#000000" font-family="sans-serif" font-size="12" lengthAdjust="spacingAndGlyphs" textLength="141" x="323" y="674.3633">Unité de conditionnement</text><line style="stroke: #000000; stroke-width: 1.0;" x1="517" x2="517" y1="659.9063" y2="678"/><polygon fill="#000000" points="520,665.9063,526,665.9063,523,673" style="stroke: #000000; stroke-width: 1.0;"/><text fill="#000000" font-family="sans-serif" font-size="12" lengthAdjust="spacingAndGlyphs" textLength="91" x="533" y="672.3633">Coût des appâts</text><text fill="#000000" font-family="sans-serif" font-size="12" lengthAdjust="spacingAndGlyphs" textLength="0" x="633" y="673.3633"/><line style="stroke: #000000; stroke-width: 1.0;" x1="628" x2="719" y1="676" y2="676"/><line style="stroke: #000000; stroke-width: 1.0;" x1="628" x2="628" y1="673" y2="675"/><line style="stroke: #000000; stroke-width: 1.0;" x1="719" x2="719" y1="673" y2="675"/><line style="stroke: #000000; stroke-width: 1.0;" x1="626" x2="722" y1="659.9063" y2="659.9063"/><line style="stroke: #000000; stroke-width: 1.0;" x1="626" x2="722" y1="679" y2="679"/><line style="stroke: #000000; stroke-width: 1.0;" x1="626" x2="626" y1="659.9063" y2="679"/><line style="stroke: #000000; stroke-width: 1.0;" x1="722" x2="722" y1="659.9063" y2="679"/><text fill="#000000" font-family="sans-serif" font-size="12" lengthAdjust="spacingAndGlyphs" textLength="38" x="724" y="672.3633">Devise</text><rect fill="#EEEEEE" height="12" rx="5" ry="5" style="stroke: #000000; stroke-width: 2.5;" width="20" x="768.5" y="662.4063"/><path d="M777.5,664.4063 L777.5,667.4063 L774.5,667.4063 L774.5,669.4063 L777.5,669.4063 L777.5,672.4063 L779.5,672.4063 L779.5,669.4063 L782.5,669.4063 L782.5,667.4063 L779.5,667.4063 L779.5,664.4063 L777.5,664.4063 " fill="#000000" style="stroke: ; stroke-width: 0.0; stroke-dasharray: ;"/><line style="stroke: #AAAAAA; stroke-width: 1.0;" x1="6" x2="794" y1="703.5938" y2="703.5938"/><line style="stroke: #AAAAAA; stroke-width: 1.0;" x1="795" x2="806" y1="703.5938" y2="703.5938"/><rect fill="#EEEEEE" height="19.0938" rx="5" ry="5" style="stroke: #000000; stroke-width: 2.5;" width="260" x="10.5" y="712.5938"/><text fill="#000000" font-family="sans-serif" font-size="12" lengthAdjust="spacingAndGlyphs" textLength="170" x="55.5" y="727.0508">Fermer et retour à l'observation</text><rect fill="#EEEEEE" height="19.0938" rx="5" ry="5" style="stroke: #000000; stroke-width: 2.5;" width="92" x="277.5" y="712.5938"/><text fill="#000000" font-family="sans-serif" font-size="12" lengthAdjust="spacingAndGlyphs" textLength="61" x="293" y="727.0508">Enregistrer</text></g></svg>