<?xml version="1.0" encoding="UTF-8" standalone="no"?><svg xmlns="http://www.w3.org/2000/svg" xmlns:xlink="http://www.w3.org/1999/xlink" contentStyleType="text/css" height="336px" preserveAspectRatio="none" style="width:937px;height:336px;background:#FFFFFF;" version="1.1" viewBox="0 0 937 336" width="937px" zoomAndPan="magnify"><defs/><g><text fill="#000000" font-family="sans-serif" font-size="12" font-weight="bold" lengthAdjust="spacing" textLength="219" x="9" y="18.8281">Immat Navire - Lieu - Date fin marée</text><line style="stroke:#AAAAAA;stroke-width:1.0;stroke-dasharray:1.0,2.0;" x1="6" x2="918" y1="27.8441" y2="27.8441"/><text fill="#000000" font-family="sans-serif" font-size="12" lengthAdjust="spacing" textLength="67" x="8" y="45.1722">General trip</text><line style="stroke:#000000;stroke-width:1.0;" x1="6" x2="6" y1="32.3441" y2="48.6882"/><line style="stroke:#000000;stroke-width:1.0;" x1="6" x2="78" y1="32.3441" y2="32.3441"/><line style="stroke:#000000;stroke-width:1.0;" x1="78" x2="78" y1="32.3441" y2="48.6882"/><line style="stroke:#000000;stroke-width:1.0;" x1="78" x2="88" y1="48.6882" y2="48.6882"/><text fill="#000000" font-family="sans-serif" font-size="12" font-weight="bold" lengthAdjust="spacing" textLength="34" x="90" y="45.1722">Effort</text><line style="stroke:#000000;stroke-width:1.0;" x1="88" x2="88" y1="32.3441" y2="48.6882"/><line style="stroke:#000000;stroke-width:1.0;" x1="88" x2="127" y1="32.3441" y2="32.3441"/><line style="stroke:#000000;stroke-width:1.0;" x1="127" x2="127" y1="32.3441" y2="48.6882"/><line style="stroke:#000000;stroke-width:1.0;" x1="127" x2="137" y1="48.6882" y2="48.6882"/><text fill="#000000" font-family="sans-serif" font-size="12" lengthAdjust="spacing" textLength="109" x="139" y="45.1722">Capture débarquée</text><line style="stroke:#000000;stroke-width:1.0;" x1="137" x2="137" y1="32.3441" y2="48.6882"/><line style="stroke:#000000;stroke-width:1.0;" x1="137" x2="251" y1="32.3441" y2="32.3441"/><line style="stroke:#000000;stroke-width:1.0;" x1="251" x2="251" y1="32.3441" y2="48.6882"/><line style="stroke:#000000;stroke-width:1.0;" x1="251" x2="261" y1="48.6882" y2="48.6882"/><text fill="#000000" font-family="sans-serif" font-size="12" lengthAdjust="spacing" textLength="32" x="263" y="45.1722">Vente</text><line style="stroke:#000000;stroke-width:1.0;" x1="261" x2="261" y1="32.3441" y2="48.6882"/><line style="stroke:#000000;stroke-width:1.0;" x1="261" x2="298" y1="32.3441" y2="32.3441"/><line style="stroke:#000000;stroke-width:1.0;" x1="298" x2="298" y1="32.3441" y2="48.6882"/><line style="stroke:#000000;stroke-width:1.0;" x1="298" x2="308" y1="48.6882" y2="48.6882"/><text fill="#000000" font-family="sans-serif" font-size="12" lengthAdjust="spacing" textLength="56" x="310" y="45.1722">Dépenses</text><line style="stroke:#000000;stroke-width:1.0;" x1="308" x2="308" y1="32.3441" y2="48.6882"/><line style="stroke:#000000;stroke-width:1.0;" x1="308" x2="369" y1="32.3441" y2="32.3441"/><line style="stroke:#000000;stroke-width:1.0;" x1="369" x2="369" y1="32.3441" y2="48.6882"/><line style="stroke:#000000;stroke-width:1.0;" x1="369" x2="379" y1="48.6882" y2="48.6882"/><text fill="#000000" font-family="sans-serif" font-size="12" lengthAdjust="spacing" textLength="212" x="26" y="81.8604">Filter on metiers used the last 12 mois</text><rect fill="none" height="10" style="stroke:#000000;stroke-width:1.5;" width="10" x="8" y="72.2044"/><text fill="#000000" font-family="sans-serif" font-size="12" lengthAdjust="spacing" textLength="4" x="6" y="100.2045">(</text><text fill="#000000" font-family="sans-serif" font-size="12" font-style="italic" lengthAdjust="spacing" textLength="327" x="10" y="100.2045">Pour filtrer les métiers sir les 12 derniers mois, cliquer sur "+"</text><text fill="#000000" font-family="sans-serif" font-size="12" font-style="italic" lengthAdjust="spacing" textLength="420" x="6" y="118.5487">une fenêtre pop-up s'ouvre alors en mode dynamique avec la liste des métiers)</text><rect fill="#EEEEEE" height="12" rx="5" ry="5" style="stroke:#000000;stroke-width:2.5;" width="20" x="9.5" y="145.9088"/><path d="M18.5,147.9088 L18.5,150.9088 L15.5,150.9088 L15.5,152.9088 L18.5,152.9088 L18.5,155.9088 L20.5,155.9088 L20.5,152.9088 L23.5,152.9088 L23.5,150.9088 L20.5,150.9088 L20.5,147.9088 L18.5,147.9088 " fill="#000000" style="stroke:;stroke-width:0.0;stroke-dasharray:;"/><rect fill="#EEEEEE" height="12" rx="5" ry="5" style="stroke:#000000;stroke-width:2.5;" width="20" x="36.5" y="145.9088"/><path d="M45.5,147.9088 C44.95,147.9088 44.5,148.3588 44.5,148.9088 L43.5,148.9088 C42.95,148.9088 42.5,149.3588 42.5,149.9088 L49.5,149.9088 C49.5,149.3588 49.05,148.9088 48.5,148.9088 L47.5,148.9088 C47.5,148.3588 47.05,147.9088 46.5,147.9088 L45.5,147.9088 M43.5,150.9088 L43.5,155.7188 C43.5,155.8288 43.58,155.9088 43.69,155.9088 L48.32,155.9088 C48.43,155.9088 48.51,155.8288 48.51,155.7188 L48.51,150.9088 L47.51,150.9088 L47.51,154.4088 C47.51,154.6888 47.29,154.9088 47.01,154.9088 C46.73,154.9088 46.51,154.6888 46.51,154.4088 L46.51,150.9088 L45.51,150.9088 L45.51,154.4088 C45.51,154.6888 45.29,154.9088 45.01,154.9088 C44.73,154.9088 44.51,154.6888 44.51,154.4088 L44.51,150.9088 L43.51,150.9088 " fill="#000000" style="stroke:;stroke-width:0.0;stroke-dasharray:;"/><rect fill="#EEEEEE" height="20.3441" rx="5" ry="5" style="stroke:#000000;stroke-width:2.5;" width="12" x="9.5" y="166.9088"/><text fill="#000000" font-family="sans-serif" font-size="12" lengthAdjust="spacing" textLength="3" x="14" y="181.7369"> </text><text fill="#000000" font-family="sans-serif" font-size="12" lengthAdjust="spacing" textLength="8" x="26" y="177.2369">#</text><text fill="#000000" font-family="sans-serif" font-size="12" font-weight="bold" lengthAdjust="spacing" textLength="39" x="36" y="177.2369">Metier</text><text fill="#000000" font-family="sans-serif" font-size="12" font-weight="bold" lengthAdjust="spacing" textLength="56" x="164" y="177.2369">Nb engin</text><text fill="#000000" font-family="sans-serif" font-size="12" font-weight="bold" lengthAdjust="spacing" textLength="87" x="222" y="177.2369">Nb hameçons/</text><text fill="#000000" font-family="sans-serif" font-size="12" font-weight="bold" lengthAdjust="spacing" textLength="112" x="351" y="177.2369">Tps passé à pêcher</text><text fill="#000000" font-family="sans-serif" font-size="12" font-weight="bold" lengthAdjust="spacing" textLength="95" x="465" y="177.2369">Profondeur min</text><text fill="#000000" font-family="sans-serif" font-size="12" font-weight="bold" lengthAdjust="spacing" textLength="97" x="562" y="177.2369">Profondeur max</text><text fill="#000000" font-family="sans-serif" font-size="12" font-weight="bold" lengthAdjust="spacing" textLength="82" x="661" y="177.2369">Commentaire</text><text fill="#000000" font-family="sans-serif" font-size="12" font-weight="bold" lengthAdjust="spacing" textLength="116" x="745" y="177.2369">Capture débarquée</text><text fill="#000000" font-family="sans-serif" font-size="12" font-weight="bold" lengthAdjust="spacing" textLength="127" x="222" y="204.581">casiers/long. filet (m)</text><text fill="#000000" font-family="sans-serif" font-size="12" lengthAdjust="spacing" textLength="82" x="351" y="204.581">en jour de mer</text><text fill="#000000" font-family="sans-serif" font-size="12" font-weight="bold" lengthAdjust="spacing" textLength="58" x="465" y="204.581">engin (m)</text><text fill="#000000" font-family="sans-serif" font-size="12" font-weight="bold" lengthAdjust="spacing" textLength="58" x="562" y="204.581">engin (m)</text><text fill="#000000" font-family="sans-serif" font-size="12" font-weight="bold" lengthAdjust="spacing" textLength="66" x="661" y="204.581">(optionnel)</text><text fill="#000000" font-family="sans-serif" font-size="12" font-weight="bold" lengthAdjust="spacing" textLength="63" x="745" y="204.581">par métier</text><rect fill="#EEEEEE" height="20.3441" rx="5" ry="5" style="stroke:#000000;stroke-width:2.5;" width="12" x="9.5" y="212.597"/><text fill="#000000" font-family="sans-serif" font-size="12" lengthAdjust="spacing" textLength="7" x="12" y="227.4251">X</text><text fill="#000000" font-family="sans-serif" font-size="12" lengthAdjust="spacing" textLength="7" x="26" y="222.9251">1</text><text fill="#000000" font-family="sans-serif" font-size="12" lengthAdjust="spacing" textLength="126" x="36" y="222.9251">FIXABSX - Active trap...</text><text fill="#000000" font-family="sans-serif" font-size="12" lengthAdjust="spacing" textLength="14" x="164" y="222.9251">10</text><text fill="#000000" font-family="sans-serif" font-size="12" lengthAdjust="spacing" textLength="37" x="351" y="222.9251">1 j 0 m</text><text fill="#000000" font-family="sans-serif" font-size="12" lengthAdjust="spacing" textLength="14" x="465" y="222.9251">25</text><text fill="#000000" font-family="sans-serif" font-size="12" lengthAdjust="spacing" textLength="14" x="562" y="222.9251">30</text><path d="M662.09,210.097 C662.03,210.097 662,210.137 662,210.187 L662,215.997 C662,216.047 662.04,216.087 662.09,216.087 L668,216.087 L670,218.087 L670,210.177 C670,210.117 669.96,210.087 669.91,210.087 L662.1,210.087 " fill="#000000" style="stroke:;stroke-width:0.0;stroke-dasharray:;"/><rect fill="#EEEEEE" height="20.3441" rx="5" ry="5" style="stroke:#000000;stroke-width:2.5;" width="164" x="748.5" y="213.597"/><path d="M778,220.9411 L778,224.9411 L782,224.9411 L782,220.9411 L778,220.9411 M783,222.9411 L783,225.9411 L780,225.9411 L780,226.9411 L784,226.9411 L784,222.9411 L783,222.9411 M785,224.9411 L785,227.9411 L782,227.9411 L782,228.9411 L786,228.9411 L786,224.9411 L785,224.9411 " fill="#000000" style="stroke:;stroke-width:0.0;stroke-dasharray:;"/><text fill="#000000" font-family="sans-serif" font-size="12" lengthAdjust="spacing" textLength="94" x="790" y="228.4251">Entrer la capture</text><rect fill="#EEEEEE" height="20.3441" rx="5" ry="5" style="stroke:#000000;stroke-width:2.5;" width="12" x="9.5" y="241.9411"/><text fill="#000000" font-family="sans-serif" font-size="12" lengthAdjust="spacing" textLength="3" x="14" y="256.7692"> </text><text fill="#000000" font-family="sans-serif" font-size="12" lengthAdjust="spacing" textLength="7" x="26" y="252.2692">2</text><text fill="#000000" font-family="sans-serif" font-size="12" lengthAdjust="spacing" textLength="108" x="36" y="252.2692">GENLOS - Gillnets...</text><text fill="#000000" font-family="sans-serif" font-size="12" lengthAdjust="spacing" textLength="7" x="164" y="252.2692">1</text><text fill="#000000" font-family="sans-serif" font-size="12" lengthAdjust="spacing" textLength="14" x="222" y="252.2692">20</text><text fill="#000000" font-family="sans-serif" font-size="12" lengthAdjust="spacing" textLength="37" x="351" y="252.2692">1 j 0 m</text><text fill="#000000" font-family="sans-serif" font-size="12" lengthAdjust="spacing" textLength="14" x="465" y="252.2692">10</text><text fill="#000000" font-family="sans-serif" font-size="12" lengthAdjust="spacing" textLength="14" x="562" y="252.2692">20</text><path d="M662.09,239.4411 C662.03,239.4411 662,239.4811 662,239.5311 L662,245.3411 C662,245.3911 662.04,245.4311 662.09,245.4311 L668,245.4311 L670,247.4311 L670,239.5211 C670,239.4611 669.96,239.4311 669.91,239.4311 L662.1,239.4311 " fill="#000000" style="stroke:;stroke-width:0.0;stroke-dasharray:;"/><rect fill="#EEEEEE" height="20.3441" rx="5" ry="5" style="stroke:#000000;stroke-width:2.5;" width="164" x="748.5" y="242.9411"/><path d="M778,250.2853 L778,254.2853 L782,254.2853 L782,250.2853 L778,250.2853 M783,252.2853 L783,255.2853 L780,255.2853 L780,256.2853 L784,256.2853 L784,252.2853 L783,252.2853 M785,254.2853 L785,257.2853 L782,257.2853 L782,258.2853 L786,258.2853 L786,254.2853 L785,254.2853 " fill="#000000" style="stroke:;stroke-width:0.0;stroke-dasharray:;"/><text fill="#000000" font-family="sans-serif" font-size="12" lengthAdjust="spacing" textLength="94" x="790" y="257.7692">Entrer la capture</text><rect fill="#EEEEEE" height="20.3441" rx="5" ry="5" style="stroke:#000000;stroke-width:2.5;" width="12" x="9.5" y="271.2853"/><text fill="#000000" font-family="sans-serif" font-size="12" lengthAdjust="spacing" textLength="3" x="14" y="286.1133"> </text><text fill="#000000" font-family="sans-serif" font-size="12" lengthAdjust="spacing" textLength="7" x="26" y="281.6133">3</text><text fill="#000000" font-family="sans-serif" font-size="12" lengthAdjust="spacing" textLength="107" x="36" y="281.6133">LLSKH - Longlines...</text><text fill="#000000" font-family="sans-serif" font-size="12" lengthAdjust="spacing" textLength="7" x="164" y="281.6133">5</text><text fill="#000000" font-family="sans-serif" font-size="12" lengthAdjust="spacing" textLength="14" x="222" y="281.6133">30</text><text fill="#000000" font-family="sans-serif" font-size="12" lengthAdjust="spacing" textLength="37" x="351" y="281.6133">1 j 0 m</text><text fill="#000000" font-family="sans-serif" font-size="12" lengthAdjust="spacing" textLength="14" x="465" y="281.6133">25</text><text fill="#000000" font-family="sans-serif" font-size="12" lengthAdjust="spacing" textLength="14" x="562" y="281.6133">40</text><path d="M662.09,268.7853 C662.03,268.7853 662,268.8253 662,268.8753 L662,274.6853 C662,274.7353 662.04,274.7753 662.09,274.7753 L668,274.7753 L670,276.7753 L670,268.8653 C670,268.8053 669.96,268.7753 669.91,268.7753 L662.1,268.7753 " fill="#000000" style="stroke:;stroke-width:0.0;stroke-dasharray:;"/><rect fill="#EEEEEE" height="20.3441" rx="5" ry="5" style="stroke:#000000;stroke-width:2.5;" width="164" x="748.5" y="272.2853"/><path d="M778,279.6294 L778,283.6294 L782,283.6294 L782,279.6294 L778,279.6294 M783,281.6294 L783,284.6294 L780,284.6294 L780,285.6294 L784,285.6294 L784,281.6294 L783,281.6294 M785,283.6294 L785,286.6294 L782,286.6294 L782,287.6294 L786,287.6294 L786,283.6294 L785,283.6294 " fill="#000000" style="stroke:;stroke-width:0.0;stroke-dasharray:;"/><text fill="#000000" font-family="sans-serif" font-size="12" lengthAdjust="spacing" textLength="94" x="790" y="287.1133">Entrer la capture</text><line style="stroke:#000000;stroke-width:1.0;" x1="6" x2="25" y1="163.4088" y2="163.4088"/><line style="stroke:#000000;stroke-width:1.0;" x1="25" x2="35" y1="163.4088" y2="163.4088"/><line style="stroke:#000000;stroke-width:1.0;" x1="35" x2="163" y1="163.4088" y2="163.4088"/><line style="stroke:#000000;stroke-width:1.0;" x1="163" x2="221" y1="163.4088" y2="163.4088"/><line style="stroke:#000000;stroke-width:1.0;" x1="221" x2="350" y1="163.4088" y2="163.4088"/><line style="stroke:#000000;stroke-width:1.0;" x1="350" x2="464" y1="163.4088" y2="163.4088"/><line style="stroke:#000000;stroke-width:1.0;" x1="464" x2="561" y1="163.4088" y2="163.4088"/><line style="stroke:#000000;stroke-width:1.0;" x1="561" x2="660" y1="163.4088" y2="163.4088"/><line style="stroke:#000000;stroke-width:1.0;" x1="660" x2="744" y1="163.4088" y2="163.4088"/><line style="stroke:#000000;stroke-width:1.0;" x1="744" x2="917" y1="163.4088" y2="163.4088"/><line style="stroke:#000000;stroke-width:1.0;" x1="6" x2="25" y1="238.4411" y2="238.4411"/><line style="stroke:#000000;stroke-width:1.0;" x1="25" x2="35" y1="238.4411" y2="238.4411"/><line style="stroke:#000000;stroke-width:1.0;" x1="35" x2="163" y1="238.4411" y2="238.4411"/><line style="stroke:#000000;stroke-width:1.0;" x1="163" x2="221" y1="238.4411" y2="238.4411"/><line style="stroke:#000000;stroke-width:1.0;" x1="221" x2="350" y1="238.4411" y2="238.4411"/><line style="stroke:#000000;stroke-width:1.0;" x1="350" x2="464" y1="238.4411" y2="238.4411"/><line style="stroke:#000000;stroke-width:1.0;" x1="464" x2="561" y1="238.4411" y2="238.4411"/><line style="stroke:#000000;stroke-width:1.0;" x1="561" x2="660" y1="238.4411" y2="238.4411"/><line style="stroke:#000000;stroke-width:1.0;" x1="660" x2="744" y1="238.4411" y2="238.4411"/><line style="stroke:#000000;stroke-width:1.0;" x1="744" x2="917" y1="238.4411" y2="238.4411"/><line style="stroke:#000000;stroke-width:1.0;" x1="6" x2="25" y1="190.7529" y2="190.7529"/><line style="stroke:#000000;stroke-width:1.0;" x1="25" x2="35" y1="190.7529" y2="190.7529"/><line style="stroke:#000000;stroke-width:1.0;" x1="35" x2="163" y1="190.7529" y2="190.7529"/><line style="stroke:#000000;stroke-width:1.0;" x1="163" x2="221" y1="190.7529" y2="190.7529"/><line style="stroke:#000000;stroke-width:1.0;" x1="221" x2="350" y1="190.7529" y2="190.7529"/><line style="stroke:#000000;stroke-width:1.0;" x1="350" x2="464" y1="190.7529" y2="190.7529"/><line style="stroke:#000000;stroke-width:1.0;" x1="464" x2="561" y1="190.7529" y2="190.7529"/><line style="stroke:#000000;stroke-width:1.0;" x1="561" x2="660" y1="190.7529" y2="190.7529"/><line style="stroke:#000000;stroke-width:1.0;" x1="660" x2="744" y1="190.7529" y2="190.7529"/><line style="stroke:#000000;stroke-width:1.0;" x1="744" x2="917" y1="190.7529" y2="190.7529"/><line style="stroke:#000000;stroke-width:1.0;" x1="6" x2="25" y1="267.7853" y2="267.7853"/><line style="stroke:#000000;stroke-width:1.0;" x1="25" x2="35" y1="267.7853" y2="267.7853"/><line style="stroke:#000000;stroke-width:1.0;" x1="35" x2="163" y1="267.7853" y2="267.7853"/><line style="stroke:#000000;stroke-width:1.0;" x1="163" x2="221" y1="267.7853" y2="267.7853"/><line style="stroke:#000000;stroke-width:1.0;" x1="221" x2="350" y1="267.7853" y2="267.7853"/><line style="stroke:#000000;stroke-width:1.0;" x1="350" x2="464" y1="267.7853" y2="267.7853"/><line style="stroke:#000000;stroke-width:1.0;" x1="464" x2="561" y1="267.7853" y2="267.7853"/><line style="stroke:#000000;stroke-width:1.0;" x1="561" x2="660" y1="267.7853" y2="267.7853"/><line style="stroke:#000000;stroke-width:1.0;" x1="660" x2="744" y1="267.7853" y2="267.7853"/><line style="stroke:#000000;stroke-width:1.0;" x1="744" x2="917" y1="267.7853" y2="267.7853"/><line style="stroke:#000000;stroke-width:1.0;" x1="6" x2="25" y1="209.097" y2="209.097"/><line style="stroke:#000000;stroke-width:1.0;" x1="25" x2="35" y1="209.097" y2="209.097"/><line style="stroke:#000000;stroke-width:1.0;" x1="35" x2="163" y1="209.097" y2="209.097"/><line style="stroke:#000000;stroke-width:1.0;" x1="163" x2="221" y1="209.097" y2="209.097"/><line style="stroke:#000000;stroke-width:1.0;" x1="221" x2="350" y1="209.097" y2="209.097"/><line style="stroke:#000000;stroke-width:1.0;" x1="350" x2="464" y1="209.097" y2="209.097"/><line style="stroke:#000000;stroke-width:1.0;" x1="464" x2="561" y1="209.097" y2="209.097"/><line style="stroke:#000000;stroke-width:1.0;" x1="561" x2="660" y1="209.097" y2="209.097"/><line style="stroke:#000000;stroke-width:1.0;" x1="660" x2="744" y1="209.097" y2="209.097"/><line style="stroke:#000000;stroke-width:1.0;" x1="744" x2="917" y1="209.097" y2="209.097"/><line style="stroke:#000000;stroke-width:1.0;" x1="6" x2="25" y1="297.1294" y2="297.1294"/><line style="stroke:#000000;stroke-width:1.0;" x1="25" x2="35" y1="297.1294" y2="297.1294"/><line style="stroke:#000000;stroke-width:1.0;" x1="35" x2="163" y1="297.1294" y2="297.1294"/><line style="stroke:#000000;stroke-width:1.0;" x1="163" x2="221" y1="297.1294" y2="297.1294"/><line style="stroke:#000000;stroke-width:1.0;" x1="221" x2="350" y1="297.1294" y2="297.1294"/><line style="stroke:#000000;stroke-width:1.0;" x1="350" x2="464" y1="297.1294" y2="297.1294"/><line style="stroke:#000000;stroke-width:1.0;" x1="464" x2="561" y1="297.1294" y2="297.1294"/><line style="stroke:#000000;stroke-width:1.0;" x1="561" x2="660" y1="297.1294" y2="297.1294"/><line style="stroke:#000000;stroke-width:1.0;" x1="660" x2="744" y1="297.1294" y2="297.1294"/><line style="stroke:#000000;stroke-width:1.0;" x1="744" x2="917" y1="297.1294" y2="297.1294"/><line style="stroke:#000000;stroke-width:1.0;" x1="6" x2="6" y1="163.4088" y2="190.7529"/><line style="stroke:#000000;stroke-width:1.0;" x1="25" x2="25" y1="163.4088" y2="190.7529"/><line style="stroke:#000000;stroke-width:1.0;" x1="35" x2="35" y1="163.4088" y2="190.7529"/><line style="stroke:#000000;stroke-width:1.0;" x1="163" x2="163" y1="163.4088" y2="190.7529"/><line style="stroke:#000000;stroke-width:1.0;" x1="221" x2="221" y1="163.4088" y2="190.7529"/><line style="stroke:#000000;stroke-width:1.0;" x1="350" x2="350" y1="163.4088" y2="190.7529"/><line style="stroke:#000000;stroke-width:1.0;" x1="464" x2="464" y1="163.4088" y2="190.7529"/><line style="stroke:#000000;stroke-width:1.0;" x1="561" x2="561" y1="163.4088" y2="190.7529"/><line style="stroke:#000000;stroke-width:1.0;" x1="660" x2="660" y1="163.4088" y2="190.7529"/><line style="stroke:#000000;stroke-width:1.0;" x1="744" x2="744" y1="163.4088" y2="190.7529"/><line style="stroke:#000000;stroke-width:1.0;" x1="917" x2="917" y1="163.4088" y2="190.7529"/><line style="stroke:#000000;stroke-width:1.0;" x1="6" x2="6" y1="238.4411" y2="267.7853"/><line style="stroke:#000000;stroke-width:1.0;" x1="25" x2="25" y1="238.4411" y2="267.7853"/><line style="stroke:#000000;stroke-width:1.0;" x1="35" x2="35" y1="238.4411" y2="267.7853"/><line style="stroke:#000000;stroke-width:1.0;" x1="163" x2="163" y1="238.4411" y2="267.7853"/><line style="stroke:#000000;stroke-width:1.0;" x1="221" x2="221" y1="238.4411" y2="267.7853"/><line style="stroke:#000000;stroke-width:1.0;" x1="350" x2="350" y1="238.4411" y2="267.7853"/><line style="stroke:#000000;stroke-width:1.0;" x1="464" x2="464" y1="238.4411" y2="267.7853"/><line style="stroke:#000000;stroke-width:1.0;" x1="561" x2="561" y1="238.4411" y2="267.7853"/><line style="stroke:#000000;stroke-width:1.0;" x1="660" x2="660" y1="238.4411" y2="267.7853"/><line style="stroke:#000000;stroke-width:1.0;" x1="744" x2="744" y1="238.4411" y2="267.7853"/><line style="stroke:#000000;stroke-width:1.0;" x1="917" x2="917" y1="238.4411" y2="267.7853"/><line style="stroke:#000000;stroke-width:1.0;" x1="6" x2="6" y1="190.7529" y2="209.097"/><line style="stroke:#000000;stroke-width:1.0;" x1="25" x2="25" y1="190.7529" y2="209.097"/><line style="stroke:#000000;stroke-width:1.0;" x1="35" x2="35" y1="190.7529" y2="209.097"/><line style="stroke:#000000;stroke-width:1.0;" x1="163" x2="163" y1="190.7529" y2="209.097"/><line style="stroke:#000000;stroke-width:1.0;" x1="221" x2="221" y1="190.7529" y2="209.097"/><line style="stroke:#000000;stroke-width:1.0;" x1="350" x2="350" y1="190.7529" y2="209.097"/><line style="stroke:#000000;stroke-width:1.0;" x1="464" x2="464" y1="190.7529" y2="209.097"/><line style="stroke:#000000;stroke-width:1.0;" x1="561" x2="561" y1="190.7529" y2="209.097"/><line style="stroke:#000000;stroke-width:1.0;" x1="660" x2="660" y1="190.7529" y2="209.097"/><line style="stroke:#000000;stroke-width:1.0;" x1="744" x2="744" y1="190.7529" y2="209.097"/><line style="stroke:#000000;stroke-width:1.0;" x1="917" x2="917" y1="190.7529" y2="209.097"/><line style="stroke:#000000;stroke-width:1.0;" x1="6" x2="6" y1="267.7853" y2="297.1294"/><line style="stroke:#000000;stroke-width:1.0;" x1="25" x2="25" y1="267.7853" y2="297.1294"/><line style="stroke:#000000;stroke-width:1.0;" x1="35" x2="35" y1="267.7853" y2="297.1294"/><line style="stroke:#000000;stroke-width:1.0;" x1="163" x2="163" y1="267.7853" y2="297.1294"/><line style="stroke:#000000;stroke-width:1.0;" x1="221" x2="221" y1="267.7853" y2="297.1294"/><line style="stroke:#000000;stroke-width:1.0;" x1="350" x2="350" y1="267.7853" y2="297.1294"/><line style="stroke:#000000;stroke-width:1.0;" x1="464" x2="464" y1="267.7853" y2="297.1294"/><line style="stroke:#000000;stroke-width:1.0;" x1="561" x2="561" y1="267.7853" y2="297.1294"/><line style="stroke:#000000;stroke-width:1.0;" x1="660" x2="660" y1="267.7853" y2="297.1294"/><line style="stroke:#000000;stroke-width:1.0;" x1="744" x2="744" y1="267.7853" y2="297.1294"/><line style="stroke:#000000;stroke-width:1.0;" x1="917" x2="917" y1="267.7853" y2="297.1294"/><line style="stroke:#000000;stroke-width:1.0;" x1="6" x2="6" y1="209.097" y2="238.4411"/><line style="stroke:#000000;stroke-width:1.0;" x1="25" x2="25" y1="209.097" y2="238.4411"/><line style="stroke:#000000;stroke-width:1.0;" x1="35" x2="35" y1="209.097" y2="238.4411"/><line style="stroke:#000000;stroke-width:1.0;" x1="163" x2="163" y1="209.097" y2="238.4411"/><line style="stroke:#000000;stroke-width:1.0;" x1="221" x2="221" y1="209.097" y2="238.4411"/><line style="stroke:#000000;stroke-width:1.0;" x1="350" x2="350" y1="209.097" y2="238.4411"/><line style="stroke:#000000;stroke-width:1.0;" x1="464" x2="464" y1="209.097" y2="238.4411"/><line style="stroke:#000000;stroke-width:1.0;" x1="561" x2="561" y1="209.097" y2="238.4411"/><line style="stroke:#000000;stroke-width:1.0;" x1="660" x2="660" y1="209.097" y2="238.4411"/><line style="stroke:#000000;stroke-width:1.0;" x1="744" x2="744" y1="209.097" y2="238.4411"/><line style="stroke:#000000;stroke-width:1.0;" x1="917" x2="917" y1="209.097" y2="238.4411"/><line style="stroke:#AAAAAA;stroke-width:1.0;" x1="6" x2="918" y1="302.6294" y2="302.6294"/><line style="stroke:#AAAAAA;stroke-width:1.0;" x1="919" x2="930" y1="302.6294" y2="302.6294"/><rect fill="#EEEEEE" height="20.3441" rx="5" ry="5" style="stroke:#000000;stroke-width:2.5;" width="92" x="9.5" y="310.6294"/><text fill="#000000" font-family="sans-serif" font-size="12" lengthAdjust="spacing" textLength="72" x="19.5" y="325.4575">Sauvegarder</text></g></svg>