<?xml version="1.0" encoding="UTF-8" standalone="no"?><svg xmlns="http://www.w3.org/2000/svg" xmlns:xlink="http://www.w3.org/1999/xlink" contentScriptType="application/ecmascript" contentStyleType="text/css" height="250px" preserveAspectRatio="none" style="width:311px;height:250px;" version="1.1" viewBox="0 0 311 250" width="311px" zoomAndPan="magnify"><defs/><g><text fill="#000000" font-family="sans-serif" font-size="12" font-weight="bold" lengthAdjust="spacingAndGlyphs" textLength="103" x="6" y="18.457">Metier(s) utilisé(s)</text><line style="stroke: #AAAAAA; stroke-width: 1.0; stroke-dasharray: 1.0,2.0;" x1="6" x2="304" y1="26.5938" y2="26.5938"/><text fill="#000000" font-family="sans-serif" font-size="12" lengthAdjust="spacingAndGlyphs" textLength="277" x="26" y="43.5508">Filtrer sur les métiers utilisés les 12 derniers mois</text><rect fill="none" height="10" style="stroke: #000000; stroke-width: 1.5;" width="10" x="8" y="33.6406"/><path d="M9.344,70.375 A0.502,0.502 0 0 0 9.5,71.375 L10,71.375 L10,72.781 C9.912,72.953 8.806,75.094 8.344,75.875 C8.191,76.143 8,76.487 8,76.938 C8,77.321 8.139,77.702 8.406,77.969 C8.666,78.229 9.049,78.375 9.437,78.375 L14.562,78.375 C14.945,78.375 15.326,78.236 15.593,77.969 C15.853,77.709 15.999,77.326 15.999,76.938 C15.999,76.486 15.805,76.137 15.655,75.875 C15.192,75.095 14.087,72.953 13.999,72.781 L13.999,71.375 L14.499,71.375 A0.5,0.5 0 1 0 14.499,70.375 L9.499,70.375 A0.5,0.5 0 0 0 9.405,70.375 A0.502,0.502 0 0 0 9.342,70.375 M10.998,71.375 L12.998,71.375 L12.998,73 L13.061,73.094 C13.713,74.327 13.713,74.327 14.28,75.375 L9.717,75.375 C10.284,74.326 10.936,73.094 10.936,73.094 L10.999,73 L10.999,71.375 " fill="#000000" style="stroke: ; stroke-width: 0.0; stroke-dasharray: ;"/><text fill="#000000" font-family="sans-serif" font-size="12" lengthAdjust="spacingAndGlyphs" textLength="0" x="20" y="78.7383"/><path d="M25,70.375 C22.79,70.375 21,72.165 21,74.375 C21,76.585 22.79,78.375 25,78.375 C27.21,78.375 29,76.585 29,74.375 C29,72.165 27.21,70.375 25,70.375 M25,71.375 L28,74.375 L25,77.375 L25,75.375 L22,75.375 L22,73.375 L25,73.375 L25,71.375 " fill="#000000" style="stroke: ; stroke-width: 0.0; stroke-dasharray: ;"/><text fill="#000000" font-family="sans-serif" font-size="12" lengthAdjust="spacingAndGlyphs" textLength="0" x="39" y="79.7383"/><line style="stroke: #000000; stroke-width: 1.0;" x1="34" x2="277" y1="82.375" y2="82.375"/><line style="stroke: #000000; stroke-width: 1.0;" x1="34" x2="34" y1="79.375" y2="81.375"/><line style="stroke: #000000; stroke-width: 1.0;" x1="277" x2="277" y1="79.375" y2="81.375"/><line style="stroke: #000000; stroke-width: 1.0;" x1="32" x2="280" y1="66.2813" y2="66.2813"/><line style="stroke: #000000; stroke-width: 1.0;" x1="32" x2="280" y1="85.375" y2="85.375"/><line style="stroke: #000000; stroke-width: 1.0;" x1="32" x2="32" y1="66.2813" y2="85.375"/><line style="stroke: #000000; stroke-width: 1.0;" x1="280" x2="280" y1="66.2813" y2="85.375"/><path d="M285,66.2813 L285,72.2813 L283,72.2813 L285.5,74.2813 L288,72.2813 L286,72.2813 L286,66.2813 L285,66.2813 M287,66.2813 L287,67.2813 L289,67.2813 L289,66.2813 L287,66.2813 M287,68.2813 L287,69.2813 L290,69.2813 L290,68.2813 L287,68.2813 M287,70.2813 L287,71.2813 L291,71.2813 L291,70.2813 L287,70.2813 " fill="#000000" style="stroke: ; stroke-width: 0.0; stroke-dasharray: ;"/><text fill="#000000" font-family="sans-serif" font-size="12" lengthAdjust="spacingAndGlyphs" textLength="131" x="8" y="119.9258">AQUCUX - Acquaculture</text><text fill="#000000" font-family="sans-serif" font-size="12" lengthAdjust="spacingAndGlyphs" textLength="90" x="8" y="137.0195">FIXAEMP - Active</text><text fill="#000000" font-family="sans-serif" font-size="12" lengthAdjust="spacingAndGlyphs" textLength="113" x="8" y="154.1133">FIXALUB - Active trap</text><text fill="#000000" font-family="sans-serif" font-size="12" lengthAdjust="spacingAndGlyphs" textLength="112" x="8" y="171.207">FIXSBSX - Static trap</text><text fill="#000000" font-family="sans-serif" font-size="12" lengthAdjust="spacingAndGlyphs" textLength="127" x="8" y="188.3008">GHTRAQ - Hoop/tangel</text><text fill="#000000" font-family="sans-serif" font-size="12" lengthAdjust="spacingAndGlyphs" textLength="116" x="8" y="205.3945">GNCCGX - Encircling</text><text fill="#000000" font-family="sans-serif" font-size="12" lengthAdjust="spacingAndGlyphs" textLength="117" x="8" y="222.4883">LHMEMP - Handlines</text><text fill="#000000" font-family="sans-serif" font-size="12" lengthAdjust="spacingAndGlyphs" textLength="115" x="8" y="239.582">LHPDPX - Handlines</text><line style="stroke: #000000; stroke-width: 1.0;" x1="7" x2="140" y1="106.4688" y2="106.4688"/><line style="stroke: #000000; stroke-width: 1.0;" x1="7" x2="140" y1="243.2188" y2="243.2188"/><line style="stroke: #000000; stroke-width: 1.0;" x1="7" x2="7" y1="106.4688" y2="123.5625"/><line style="stroke: #000000; stroke-width: 1.0;" x1="140" x2="140" y1="106.4688" y2="123.5625"/><line style="stroke: #000000; stroke-width: 1.0;" x1="7" x2="7" y1="226.125" y2="243.2188"/><line style="stroke: #000000; stroke-width: 1.0;" x1="140" x2="140" y1="226.125" y2="243.2188"/><line style="stroke: #000000; stroke-width: 1.0;" x1="7" x2="7" y1="191.9375" y2="209.0313"/><line style="stroke: #000000; stroke-width: 1.0;" x1="140" x2="140" y1="191.9375" y2="209.0313"/><line style="stroke: #000000; stroke-width: 1.0;" x1="7" x2="7" y1="157.75" y2="174.8438"/><line style="stroke: #000000; stroke-width: 1.0;" x1="140" x2="140" y1="157.75" y2="174.8438"/><line style="stroke: #000000; stroke-width: 1.0;" x1="7" x2="7" y1="123.5625" y2="140.6563"/><line style="stroke: #000000; stroke-width: 1.0;" x1="140" x2="140" y1="123.5625" y2="140.6563"/><line style="stroke: #000000; stroke-width: 1.0;" x1="7" x2="7" y1="209.0313" y2="226.125"/><line style="stroke: #000000; stroke-width: 1.0;" x1="140" x2="140" y1="209.0313" y2="226.125"/><line style="stroke: #000000; stroke-width: 1.0;" x1="7" x2="7" y1="174.8438" y2="191.9375"/><line style="stroke: #000000; stroke-width: 1.0;" x1="140" x2="140" y1="174.8438" y2="191.9375"/><line style="stroke: #000000; stroke-width: 1.0;" x1="7" x2="7" y1="140.6563" y2="157.75"/><line style="stroke: #000000; stroke-width: 1.0;" x1="140" x2="140" y1="140.6563" y2="157.75"/><path d="M146,111.5625 L143,114.5935 L146,117.5625 L146,115.5625 L151,115.5625 L151,113.5625 L146,113.5625 L146,111.5625 " fill="#000000" style="stroke: ; stroke-width: 0.0; stroke-dasharray: ;"/><text fill="#000000" font-family="sans-serif" font-size="12" lengthAdjust="spacingAndGlyphs" textLength="0" x="155" y="118.9258"/><path d="M161,111.5625 L161,113.5625 L156,113.5625 L156,115.5625 L161,115.5625 L161,117.5625 L164,114.5315 L161,111.5625 " fill="#000000" style="stroke: ; stroke-width: 0.0; stroke-dasharray: ;"/><text fill="#000000" font-family="sans-serif" font-size="12" lengthAdjust="spacingAndGlyphs" textLength="131" x="168" y="119.9258">AQUCUX - Acquaculture</text><text fill="#000000" font-family="sans-serif" font-size="12" lengthAdjust="spacingAndGlyphs" textLength="112" x="168" y="137.0195">FIXSBSX - Static trap</text><line style="stroke: #000000; stroke-width: 1.0;" x1="167" x2="300" y1="106.4688" y2="106.4688"/><line style="stroke: #000000; stroke-width: 1.0;" x1="167" x2="300" y1="140.6563" y2="140.6563"/><line style="stroke: #000000; stroke-width: 1.0;" x1="167" x2="167" y1="106.4688" y2="123.5625"/><line style="stroke: #000000; stroke-width: 1.0;" x1="300" x2="300" y1="123.5625" y2="140.6563"/><line style="stroke: #000000; stroke-width: 1.0;" x1="300" x2="300" y1="106.4688" y2="123.5625"/><line style="stroke: #000000; stroke-width: 1.0;" x1="167" x2="167" y1="123.5625" y2="140.6563"/></g></svg>