<?xml version="1.0" encoding="UTF-8" standalone="no"?><svg xmlns="http://www.w3.org/2000/svg" xmlns:xlink="http://www.w3.org/1999/xlink" contentScriptType="application/ecmascript" contentStyleType="text/css" height="303px" preserveAspectRatio="none" style="width:899px;height:303px;" version="1.1" viewBox="0 0 899 303" width="899px" zoomAndPan="magnify"><defs/><g><text fill="#000000" font-family="sans-serif" font-size="12" font-weight="bold" lengthAdjust="spacingAndGlyphs" textLength="202" x="9" y="18.457">Immat Navire - Lieu - Date fin marée</text><line style="stroke: #AAAAAA; stroke-width: 1.0; stroke-dasharray: 1.0,2.0;" x1="6" x2="880" y1="26.5938" y2="26.5938"/><text fill="#000000" font-family="sans-serif" font-size="12" lengthAdjust="spacingAndGlyphs" textLength="64" x="8" y="43.5508">General trip</text><line style="stroke: #000000; stroke-width: 1.0;" x1="6" x2="6" y1="31.0938" y2="46.1875"/><line style="stroke: #000000; stroke-width: 1.0;" x1="6" x2="75" y1="31.0938" y2="31.0938"/><line style="stroke: #000000; stroke-width: 1.0;" x1="75" x2="75" y1="31.0938" y2="46.1875"/><line style="stroke: #000000; stroke-width: 1.0;" x1="75" x2="85" y1="46.1875" y2="46.1875"/><text fill="#000000" font-family="sans-serif" font-size="12" font-weight="bold" lengthAdjust="spacingAndGlyphs" textLength="31" x="87" y="43.5508">Effort</text><line style="stroke: #000000; stroke-width: 1.0;" x1="85" x2="85" y1="31.0938" y2="46.1875"/><line style="stroke: #000000; stroke-width: 1.0;" x1="85" x2="121" y1="31.0938" y2="31.0938"/><line style="stroke: #000000; stroke-width: 1.0;" x1="121" x2="121" y1="31.0938" y2="46.1875"/><line style="stroke: #000000; stroke-width: 1.0;" x1="121" x2="131" y1="46.1875" y2="46.1875"/><text fill="#000000" font-family="sans-serif" font-size="12" lengthAdjust="spacingAndGlyphs" textLength="107" x="133" y="43.5508">Capture débarquée</text><line style="stroke: #000000; stroke-width: 1.0;" x1="131" x2="131" y1="31.0938" y2="46.1875"/><line style="stroke: #000000; stroke-width: 1.0;" x1="131" x2="243" y1="31.0938" y2="31.0938"/><line style="stroke: #000000; stroke-width: 1.0;" x1="243" x2="243" y1="31.0938" y2="46.1875"/><line style="stroke: #000000; stroke-width: 1.0;" x1="243" x2="253" y1="46.1875" y2="46.1875"/><text fill="#000000" font-family="sans-serif" font-size="12" lengthAdjust="spacingAndGlyphs" textLength="31" x="255" y="43.5508">Vente</text><line style="stroke: #000000; stroke-width: 1.0;" x1="253" x2="253" y1="31.0938" y2="46.1875"/><line style="stroke: #000000; stroke-width: 1.0;" x1="253" x2="289" y1="31.0938" y2="31.0938"/><line style="stroke: #000000; stroke-width: 1.0;" x1="289" x2="289" y1="31.0938" y2="46.1875"/><line style="stroke: #000000; stroke-width: 1.0;" x1="289" x2="299" y1="46.1875" y2="46.1875"/><text fill="#000000" font-family="sans-serif" font-size="12" lengthAdjust="spacingAndGlyphs" textLength="58" x="301" y="43.5508">Dépenses</text><line style="stroke: #000000; stroke-width: 1.0;" x1="299" x2="299" y1="31.0938" y2="46.1875"/><line style="stroke: #000000; stroke-width: 1.0;" x1="299" x2="362" y1="31.0938" y2="31.0938"/><line style="stroke: #000000; stroke-width: 1.0;" x1="362" x2="362" y1="31.0938" y2="46.1875"/><line style="stroke: #000000; stroke-width: 1.0;" x1="362" x2="372" y1="46.1875" y2="46.1875"/><text fill="#000000" font-family="sans-serif" font-size="12" lengthAdjust="spacingAndGlyphs" textLength="211" x="26" y="77.7383">Filter on metiers used the last 12 mois</text><rect fill="none" height="10" style="stroke: #000000; stroke-width: 1.5;" width="10" x="8" y="67.8281"/><text fill="#000000" font-family="sans-serif" font-size="12" lengthAdjust="spacingAndGlyphs" textLength="4" x="6" y="94.832">(</text><text fill="#000000" font-family="sans-serif" font-size="12" font-style="italic" lengthAdjust="spacingAndGlyphs" textLength="521" x="10" y="94.832">ouverture d'une fenêtre pop-up en mode dynamique avec les métiers + une zone de recherche)</text><rect fill="#EEEEEE" height="12" rx="5" ry="5" style="stroke: #000000; stroke-width: 2.5;" width="20" x="9.5" y="120.0625"/><path d="M18.5,122.0625 L18.5,125.0625 L15.5,125.0625 L15.5,127.0625 L18.5,127.0625 L18.5,130.0625 L20.5,130.0625 L20.5,127.0625 L23.5,127.0625 L23.5,125.0625 L20.5,125.0625 L20.5,122.0625 L18.5,122.0625 " fill="#000000" style="stroke: ; stroke-width: 0.0; stroke-dasharray: ;"/><rect fill="#EEEEEE" height="12" rx="5" ry="5" style="stroke: #000000; stroke-width: 2.5;" width="20" x="36.5" y="120.0625"/><path d="M45.5,122.0625 C44.95,122.0625 44.5,122.5125 44.5,123.0625 L43.5,123.0625 C42.95,123.0625 42.5,123.5125 42.5,124.0625 L49.5,124.0625 C49.5,123.5125 49.05,123.0625 48.5,123.0625 L47.5,123.0625 C47.5,122.5125 47.05,122.0625 46.5,122.0625 L45.5,122.0625 M43.5,125.0625 L43.5,129.8755 C43.5,129.9855 43.577,130.0635 43.688,130.0635 L48.313,130.0635 C48.423,130.0635 48.501,129.9865 48.501,129.8755 L48.501,125.0625 L47.501,125.0625 L47.501,128.5625 C47.501,128.8425 47.281,129.0625 47.001,129.0625 C46.721,129.0625 46.501,128.8425 46.501,128.5625 L46.501,125.0625 L45.501,125.0625 L45.501,128.5625 C45.501,128.8425 45.281,129.0625 45.001,129.0625 C44.721,129.0625 44.501,128.8425 44.501,128.5625 L44.501,125.0625 L43.501,125.0625 " fill="#000000" style="stroke: ; stroke-width: 0.0; stroke-dasharray: ;"/><rect fill="#EEEEEE" height="19.0938" rx="5" ry="5" style="stroke: #000000; stroke-width: 2.5;" width="12" x="9.5" y="141.0625"/><text fill="#000000" font-family="sans-serif" font-size="12" lengthAdjust="spacingAndGlyphs" textLength="0" x="17" y="155.5195"/><text fill="#000000" font-family="sans-serif" font-size="12" lengthAdjust="spacingAndGlyphs" textLength="7" x="26" y="151.0195">#</text><text fill="#000000" font-family="sans-serif" font-size="12" font-weight="bold" lengthAdjust="spacingAndGlyphs" textLength="36" x="35" y="151.0195">Metier</text><text fill="#000000" font-family="sans-serif" font-size="12" font-weight="bold" lengthAdjust="spacingAndGlyphs" textLength="49" x="158" y="151.0195">Nb engin</text><text fill="#000000" font-family="sans-serif" font-size="12" font-weight="bold" lengthAdjust="spacingAndGlyphs" textLength="81" x="209" y="151.0195">Nb hameçons/</text><text fill="#000000" font-family="sans-serif" font-size="12" font-weight="bold" lengthAdjust="spacingAndGlyphs" textLength="112" x="330" y="151.0195">Tps passé à pêcher</text><text fill="#000000" font-family="sans-serif" font-size="12" font-weight="bold" lengthAdjust="spacingAndGlyphs" textLength="88" x="444" y="151.0195">Profondeur min</text><text fill="#000000" font-family="sans-serif" font-size="12" font-weight="bold" lengthAdjust="spacingAndGlyphs" textLength="92" x="534" y="151.0195">Profondeur max</text><text fill="#000000" font-family="sans-serif" font-size="12" font-weight="bold" lengthAdjust="spacingAndGlyphs" textLength="77" x="628" y="151.0195">Commentaire</text><text fill="#000000" font-family="sans-serif" font-size="12" font-weight="bold" lengthAdjust="spacingAndGlyphs" textLength="109" x="707" y="151.0195">Capture débarquée</text><text fill="#000000" font-family="sans-serif" font-size="12" font-weight="bold" lengthAdjust="spacingAndGlyphs" textLength="119" x="209" y="177.1133">casiers/long. filet (m)</text><text fill="#000000" font-family="sans-serif" font-size="12" lengthAdjust="spacingAndGlyphs" textLength="80" x="330" y="177.1133">en jour de mer</text><text fill="#000000" font-family="sans-serif" font-size="12" font-weight="bold" lengthAdjust="spacingAndGlyphs" textLength="53" x="444" y="177.1133">engin (m)</text><text fill="#000000" font-family="sans-serif" font-size="12" font-weight="bold" lengthAdjust="spacingAndGlyphs" textLength="53" x="534" y="177.1133">engin (m)</text><text fill="#000000" font-family="sans-serif" font-size="12" font-weight="bold" lengthAdjust="spacingAndGlyphs" textLength="60" x="628" y="177.1133">(optionnel)</text><text fill="#000000" font-family="sans-serif" font-size="12" font-weight="bold" lengthAdjust="spacingAndGlyphs" textLength="59" x="707" y="177.1133">par métier</text><rect fill="#EEEEEE" height="19.0938" rx="5" ry="5" style="stroke: #000000; stroke-width: 2.5;" width="12" x="9.5" y="184.25"/><text fill="#000000" font-family="sans-serif" font-size="12" lengthAdjust="spacingAndGlyphs" textLength="7" x="12" y="198.707">X</text><text fill="#000000" font-family="sans-serif" font-size="12" lengthAdjust="spacingAndGlyphs" textLength="7" x="26" y="194.207">1</text><text fill="#000000" font-family="sans-serif" font-size="12" lengthAdjust="spacingAndGlyphs" textLength="121" x="35" y="194.207">FIXABSX - Active trap...</text><text fill="#000000" font-family="sans-serif" font-size="12" lengthAdjust="spacingAndGlyphs" textLength="14" x="158" y="194.207">10</text><text fill="#000000" font-family="sans-serif" font-size="12" lengthAdjust="spacingAndGlyphs" textLength="37" x="330" y="194.207">1 j 0 m</text><text fill="#000000" font-family="sans-serif" font-size="12" lengthAdjust="spacingAndGlyphs" textLength="14" x="444" y="194.207">25</text><text fill="#000000" font-family="sans-serif" font-size="12" lengthAdjust="spacingAndGlyphs" textLength="14" x="534" y="194.207">30</text><path d="M629.094,181.75 C629.034,181.75 629,181.784 629,181.844 L629,187.657 C629,187.717 629.034,187.751 629.094,187.751 L635,187.751 L637,189.751 L637,181.845 C637,181.785 636.966,181.751 636.906,181.751 L629.093,181.751 " fill="#000000" style="stroke: ; stroke-width: 0.0; stroke-dasharray: ;"/><rect fill="#EEEEEE" height="19.0938" rx="5" ry="5" style="stroke: #000000; stroke-width: 2.5;" width="164" x="710.5" y="185.25"/><path d="M742,191.3438 L742,195.3438 L746,195.3438 L746,191.3438 L742,191.3438 M747,193.3438 L747,196.3438 L744,196.3438 L744,197.3438 L748,197.3438 L748,193.3438 L747,193.3438 M749,195.3438 L749,198.3438 L746,198.3438 L746,199.3438 L750,199.3438 L750,195.3438 L749,195.3438 " fill="#000000" style="stroke: ; stroke-width: 0.0; stroke-dasharray: ;"/><text fill="#000000" font-family="sans-serif" font-size="12" lengthAdjust="spacingAndGlyphs" textLength="90" x="754" y="199.707">Entrer la capture</text><rect fill="#EEEEEE" height="19.0938" rx="5" ry="5" style="stroke: #000000; stroke-width: 2.5;" width="12" x="9.5" y="212.3438"/><text fill="#000000" font-family="sans-serif" font-size="12" lengthAdjust="spacingAndGlyphs" textLength="0" x="17" y="226.8008"/><text fill="#000000" font-family="sans-serif" font-size="12" lengthAdjust="spacingAndGlyphs" textLength="7" x="26" y="222.3008">2</text><text fill="#000000" font-family="sans-serif" font-size="12" lengthAdjust="spacingAndGlyphs" textLength="111" x="35" y="222.3008">GENLOS - Gillnets...</text><text fill="#000000" font-family="sans-serif" font-size="12" lengthAdjust="spacingAndGlyphs" textLength="7" x="158" y="222.3008">1</text><text fill="#000000" font-family="sans-serif" font-size="12" lengthAdjust="spacingAndGlyphs" textLength="14" x="209" y="222.3008">20</text><text fill="#000000" font-family="sans-serif" font-size="12" lengthAdjust="spacingAndGlyphs" textLength="37" x="330" y="222.3008">1 j 0 m</text><text fill="#000000" font-family="sans-serif" font-size="12" lengthAdjust="spacingAndGlyphs" textLength="14" x="444" y="222.3008">10</text><text fill="#000000" font-family="sans-serif" font-size="12" lengthAdjust="spacingAndGlyphs" textLength="14" x="534" y="222.3008">20</text><path d="M629.094,209.8438 C629.034,209.8438 629,209.8778 629,209.9378 L629,215.7508 C629,215.8108 629.034,215.8448 629.094,215.8448 L635,215.8448 L637,217.8448 L637,209.9388 C637,209.8788 636.966,209.8448 636.906,209.8448 L629.093,209.8448 " fill="#000000" style="stroke: ; stroke-width: 0.0; stroke-dasharray: ;"/><rect fill="#EEEEEE" height="19.0938" rx="5" ry="5" style="stroke: #000000; stroke-width: 2.5;" width="164" x="710.5" y="213.3438"/><path d="M742,219.4375 L742,223.4375 L746,223.4375 L746,219.4375 L742,219.4375 M747,221.4375 L747,224.4375 L744,224.4375 L744,225.4375 L748,225.4375 L748,221.4375 L747,221.4375 M749,223.4375 L749,226.4375 L746,226.4375 L746,227.4375 L750,227.4375 L750,223.4375 L749,223.4375 " fill="#000000" style="stroke: ; stroke-width: 0.0; stroke-dasharray: ;"/><text fill="#000000" font-family="sans-serif" font-size="12" lengthAdjust="spacingAndGlyphs" textLength="90" x="754" y="227.8008">Entrer la capture</text><rect fill="#EEEEEE" height="19.0938" rx="5" ry="5" style="stroke: #000000; stroke-width: 2.5;" width="12" x="9.5" y="240.4375"/><text fill="#000000" font-family="sans-serif" font-size="12" lengthAdjust="spacingAndGlyphs" textLength="0" x="17" y="254.8945"/><text fill="#000000" font-family="sans-serif" font-size="12" lengthAdjust="spacingAndGlyphs" textLength="7" x="26" y="250.3945">3</text><text fill="#000000" font-family="sans-serif" font-size="12" lengthAdjust="spacingAndGlyphs" textLength="113" x="35" y="250.3945">LLSKH - Longlines...</text><text fill="#000000" font-family="sans-serif" font-size="12" lengthAdjust="spacingAndGlyphs" textLength="7" x="158" y="250.3945">5</text><text fill="#000000" font-family="sans-serif" font-size="12" lengthAdjust="spacingAndGlyphs" textLength="14" x="209" y="250.3945">30</text><text fill="#000000" font-family="sans-serif" font-size="12" lengthAdjust="spacingAndGlyphs" textLength="37" x="330" y="250.3945">1 j 0 m</text><text fill="#000000" font-family="sans-serif" font-size="12" lengthAdjust="spacingAndGlyphs" textLength="14" x="444" y="250.3945">25</text><text fill="#000000" font-family="sans-serif" font-size="12" lengthAdjust="spacingAndGlyphs" textLength="14" x="534" y="250.3945">40</text><path d="M629.094,237.9375 C629.034,237.9375 629,237.9715 629,238.0315 L629,243.8445 C629,243.9045 629.034,243.9385 629.094,243.9385 L635,243.9385 L637,245.9385 L637,238.0325 C637,237.9725 636.966,237.9385 636.906,237.9385 L629.093,237.9385 " fill="#000000" style="stroke: ; stroke-width: 0.0; stroke-dasharray: ;"/><rect fill="#EEEEEE" height="19.0938" rx="5" ry="5" style="stroke: #000000; stroke-width: 2.5;" width="164" x="710.5" y="241.4375"/><path d="M742,247.5313 L742,251.5313 L746,251.5313 L746,247.5313 L742,247.5313 M747,249.5313 L747,252.5313 L744,252.5313 L744,253.5313 L748,253.5313 L748,249.5313 L747,249.5313 M749,251.5313 L749,254.5313 L746,254.5313 L746,255.5313 L750,255.5313 L750,251.5313 L749,251.5313 " fill="#000000" style="stroke: ; stroke-width: 0.0; stroke-dasharray: ;"/><text fill="#000000" font-family="sans-serif" font-size="12" lengthAdjust="spacingAndGlyphs" textLength="90" x="754" y="255.8945">Entrer la capture</text><line style="stroke: #000000; stroke-width: 1.0;" x1="6" x2="25" y1="137.5625" y2="137.5625"/><line style="stroke: #000000; stroke-width: 1.0;" x1="25" x2="34" y1="137.5625" y2="137.5625"/><line style="stroke: #000000; stroke-width: 1.0;" x1="34" x2="157" y1="137.5625" y2="137.5625"/><line style="stroke: #000000; stroke-width: 1.0;" x1="157" x2="208" y1="137.5625" y2="137.5625"/><line style="stroke: #000000; stroke-width: 1.0;" x1="208" x2="329" y1="137.5625" y2="137.5625"/><line style="stroke: #000000; stroke-width: 1.0;" x1="329" x2="443" y1="137.5625" y2="137.5625"/><line style="stroke: #000000; stroke-width: 1.0;" x1="443" x2="533" y1="137.5625" y2="137.5625"/><line style="stroke: #000000; stroke-width: 1.0;" x1="533" x2="627" y1="137.5625" y2="137.5625"/><line style="stroke: #000000; stroke-width: 1.0;" x1="627" x2="706" y1="137.5625" y2="137.5625"/><line style="stroke: #000000; stroke-width: 1.0;" x1="706" x2="879" y1="137.5625" y2="137.5625"/><line style="stroke: #000000; stroke-width: 1.0;" x1="6" x2="25" y1="208.8438" y2="208.8438"/><line style="stroke: #000000; stroke-width: 1.0;" x1="25" x2="34" y1="208.8438" y2="208.8438"/><line style="stroke: #000000; stroke-width: 1.0;" x1="34" x2="157" y1="208.8438" y2="208.8438"/><line style="stroke: #000000; stroke-width: 1.0;" x1="157" x2="208" y1="208.8438" y2="208.8438"/><line style="stroke: #000000; stroke-width: 1.0;" x1="208" x2="329" y1="208.8438" y2="208.8438"/><line style="stroke: #000000; stroke-width: 1.0;" x1="329" x2="443" y1="208.8438" y2="208.8438"/><line style="stroke: #000000; stroke-width: 1.0;" x1="443" x2="533" y1="208.8438" y2="208.8438"/><line style="stroke: #000000; stroke-width: 1.0;" x1="533" x2="627" y1="208.8438" y2="208.8438"/><line style="stroke: #000000; stroke-width: 1.0;" x1="627" x2="706" y1="208.8438" y2="208.8438"/><line style="stroke: #000000; stroke-width: 1.0;" x1="706" x2="879" y1="208.8438" y2="208.8438"/><line style="stroke: #000000; stroke-width: 1.0;" x1="6" x2="25" y1="163.6563" y2="163.6563"/><line style="stroke: #000000; stroke-width: 1.0;" x1="25" x2="34" y1="163.6563" y2="163.6563"/><line style="stroke: #000000; stroke-width: 1.0;" x1="34" x2="157" y1="163.6563" y2="163.6563"/><line style="stroke: #000000; stroke-width: 1.0;" x1="157" x2="208" y1="163.6563" y2="163.6563"/><line style="stroke: #000000; stroke-width: 1.0;" x1="208" x2="329" y1="163.6563" y2="163.6563"/><line style="stroke: #000000; stroke-width: 1.0;" x1="329" x2="443" y1="163.6563" y2="163.6563"/><line style="stroke: #000000; stroke-width: 1.0;" x1="443" x2="533" y1="163.6563" y2="163.6563"/><line style="stroke: #000000; stroke-width: 1.0;" x1="533" x2="627" y1="163.6563" y2="163.6563"/><line style="stroke: #000000; stroke-width: 1.0;" x1="627" x2="706" y1="163.6563" y2="163.6563"/><line style="stroke: #000000; stroke-width: 1.0;" x1="706" x2="879" y1="163.6563" y2="163.6563"/><line style="stroke: #000000; stroke-width: 1.0;" x1="6" x2="25" y1="236.9375" y2="236.9375"/><line style="stroke: #000000; stroke-width: 1.0;" x1="25" x2="34" y1="236.9375" y2="236.9375"/><line style="stroke: #000000; stroke-width: 1.0;" x1="34" x2="157" y1="236.9375" y2="236.9375"/><line style="stroke: #000000; stroke-width: 1.0;" x1="157" x2="208" y1="236.9375" y2="236.9375"/><line style="stroke: #000000; stroke-width: 1.0;" x1="208" x2="329" y1="236.9375" y2="236.9375"/><line style="stroke: #000000; stroke-width: 1.0;" x1="329" x2="443" y1="236.9375" y2="236.9375"/><line style="stroke: #000000; stroke-width: 1.0;" x1="443" x2="533" y1="236.9375" y2="236.9375"/><line style="stroke: #000000; stroke-width: 1.0;" x1="533" x2="627" y1="236.9375" y2="236.9375"/><line style="stroke: #000000; stroke-width: 1.0;" x1="627" x2="706" y1="236.9375" y2="236.9375"/><line style="stroke: #000000; stroke-width: 1.0;" x1="706" x2="879" y1="236.9375" y2="236.9375"/><line style="stroke: #000000; stroke-width: 1.0;" x1="6" x2="25" y1="180.75" y2="180.75"/><line style="stroke: #000000; stroke-width: 1.0;" x1="25" x2="34" y1="180.75" y2="180.75"/><line style="stroke: #000000; stroke-width: 1.0;" x1="34" x2="157" y1="180.75" y2="180.75"/><line style="stroke: #000000; stroke-width: 1.0;" x1="157" x2="208" y1="180.75" y2="180.75"/><line style="stroke: #000000; stroke-width: 1.0;" x1="208" x2="329" y1="180.75" y2="180.75"/><line style="stroke: #000000; stroke-width: 1.0;" x1="329" x2="443" y1="180.75" y2="180.75"/><line style="stroke: #000000; stroke-width: 1.0;" x1="443" x2="533" y1="180.75" y2="180.75"/><line style="stroke: #000000; stroke-width: 1.0;" x1="533" x2="627" y1="180.75" y2="180.75"/><line style="stroke: #000000; stroke-width: 1.0;" x1="627" x2="706" y1="180.75" y2="180.75"/><line style="stroke: #000000; stroke-width: 1.0;" x1="706" x2="879" y1="180.75" y2="180.75"/><line style="stroke: #000000; stroke-width: 1.0;" x1="6" x2="25" y1="265.0313" y2="265.0313"/><line style="stroke: #000000; stroke-width: 1.0;" x1="25" x2="34" y1="265.0313" y2="265.0313"/><line style="stroke: #000000; stroke-width: 1.0;" x1="34" x2="157" y1="265.0313" y2="265.0313"/><line style="stroke: #000000; stroke-width: 1.0;" x1="157" x2="208" y1="265.0313" y2="265.0313"/><line style="stroke: #000000; stroke-width: 1.0;" x1="208" x2="329" y1="265.0313" y2="265.0313"/><line style="stroke: #000000; stroke-width: 1.0;" x1="329" x2="443" y1="265.0313" y2="265.0313"/><line style="stroke: #000000; stroke-width: 1.0;" x1="443" x2="533" y1="265.0313" y2="265.0313"/><line style="stroke: #000000; stroke-width: 1.0;" x1="533" x2="627" y1="265.0313" y2="265.0313"/><line style="stroke: #000000; stroke-width: 1.0;" x1="627" x2="706" y1="265.0313" y2="265.0313"/><line style="stroke: #000000; stroke-width: 1.0;" x1="706" x2="879" y1="265.0313" y2="265.0313"/><line style="stroke: #000000; stroke-width: 1.0;" x1="6" x2="6" y1="137.5625" y2="163.6563"/><line style="stroke: #000000; stroke-width: 1.0;" x1="25" x2="25" y1="137.5625" y2="163.6563"/><line style="stroke: #000000; stroke-width: 1.0;" x1="34" x2="34" y1="137.5625" y2="163.6563"/><line style="stroke: #000000; stroke-width: 1.0;" x1="157" x2="157" y1="137.5625" y2="163.6563"/><line style="stroke: #000000; stroke-width: 1.0;" x1="208" x2="208" y1="137.5625" y2="163.6563"/><line style="stroke: #000000; stroke-width: 1.0;" x1="329" x2="329" y1="137.5625" y2="163.6563"/><line style="stroke: #000000; stroke-width: 1.0;" x1="443" x2="443" y1="137.5625" y2="163.6563"/><line style="stroke: #000000; stroke-width: 1.0;" x1="533" x2="533" y1="137.5625" y2="163.6563"/><line style="stroke: #000000; stroke-width: 1.0;" x1="627" x2="627" y1="137.5625" y2="163.6563"/><line style="stroke: #000000; stroke-width: 1.0;" x1="706" x2="706" y1="137.5625" y2="163.6563"/><line style="stroke: #000000; stroke-width: 1.0;" x1="879" x2="879" y1="137.5625" y2="163.6563"/><line style="stroke: #000000; stroke-width: 1.0;" x1="6" x2="6" y1="208.8438" y2="236.9375"/><line style="stroke: #000000; stroke-width: 1.0;" x1="25" x2="25" y1="208.8438" y2="236.9375"/><line style="stroke: #000000; stroke-width: 1.0;" x1="34" x2="34" y1="208.8438" y2="236.9375"/><line style="stroke: #000000; stroke-width: 1.0;" x1="157" x2="157" y1="208.8438" y2="236.9375"/><line style="stroke: #000000; stroke-width: 1.0;" x1="208" x2="208" y1="208.8438" y2="236.9375"/><line style="stroke: #000000; stroke-width: 1.0;" x1="329" x2="329" y1="208.8438" y2="236.9375"/><line style="stroke: #000000; stroke-width: 1.0;" x1="443" x2="443" y1="208.8438" y2="236.9375"/><line style="stroke: #000000; stroke-width: 1.0;" x1="533" x2="533" y1="208.8438" y2="236.9375"/><line style="stroke: #000000; stroke-width: 1.0;" x1="627" x2="627" y1="208.8438" y2="236.9375"/><line style="stroke: #000000; stroke-width: 1.0;" x1="706" x2="706" y1="208.8438" y2="236.9375"/><line style="stroke: #000000; stroke-width: 1.0;" x1="879" x2="879" y1="208.8438" y2="236.9375"/><line style="stroke: #000000; stroke-width: 1.0;" x1="6" x2="6" y1="163.6563" y2="180.75"/><line style="stroke: #000000; stroke-width: 1.0;" x1="25" x2="25" y1="163.6563" y2="180.75"/><line style="stroke: #000000; stroke-width: 1.0;" x1="34" x2="34" y1="163.6563" y2="180.75"/><line style="stroke: #000000; stroke-width: 1.0;" x1="157" x2="157" y1="163.6563" y2="180.75"/><line style="stroke: #000000; stroke-width: 1.0;" x1="208" x2="208" y1="163.6563" y2="180.75"/><line style="stroke: #000000; stroke-width: 1.0;" x1="329" x2="329" y1="163.6563" y2="180.75"/><line style="stroke: #000000; stroke-width: 1.0;" x1="443" x2="443" y1="163.6563" y2="180.75"/><line style="stroke: #000000; stroke-width: 1.0;" x1="533" x2="533" y1="163.6563" y2="180.75"/><line style="stroke: #000000; stroke-width: 1.0;" x1="627" x2="627" y1="163.6563" y2="180.75"/><line style="stroke: #000000; stroke-width: 1.0;" x1="706" x2="706" y1="163.6563" y2="180.75"/><line style="stroke: #000000; stroke-width: 1.0;" x1="879" x2="879" y1="163.6563" y2="180.75"/><line style="stroke: #000000; stroke-width: 1.0;" x1="6" x2="6" y1="236.9375" y2="265.0313"/><line style="stroke: #000000; stroke-width: 1.0;" x1="25" x2="25" y1="236.9375" y2="265.0313"/><line style="stroke: #000000; stroke-width: 1.0;" x1="34" x2="34" y1="236.9375" y2="265.0313"/><line style="stroke: #000000; stroke-width: 1.0;" x1="157" x2="157" y1="236.9375" y2="265.0313"/><line style="stroke: #000000; stroke-width: 1.0;" x1="208" x2="208" y1="236.9375" y2="265.0313"/><line style="stroke: #000000; stroke-width: 1.0;" x1="329" x2="329" y1="236.9375" y2="265.0313"/><line style="stroke: #000000; stroke-width: 1.0;" x1="443" x2="443" y1="236.9375" y2="265.0313"/><line style="stroke: #000000; stroke-width: 1.0;" x1="533" x2="533" y1="236.9375" y2="265.0313"/><line style="stroke: #000000; stroke-width: 1.0;" x1="627" x2="627" y1="236.9375" y2="265.0313"/><line style="stroke: #000000; stroke-width: 1.0;" x1="706" x2="706" y1="236.9375" y2="265.0313"/><line style="stroke: #000000; stroke-width: 1.0;" x1="879" x2="879" y1="236.9375" y2="265.0313"/><line style="stroke: #000000; stroke-width: 1.0;" x1="6" x2="6" y1="180.75" y2="208.8438"/><line style="stroke: #000000; stroke-width: 1.0;" x1="25" x2="25" y1="180.75" y2="208.8438"/><line style="stroke: #000000; stroke-width: 1.0;" x1="34" x2="34" y1="180.75" y2="208.8438"/><line style="stroke: #000000; stroke-width: 1.0;" x1="157" x2="157" y1="180.75" y2="208.8438"/><line style="stroke: #000000; stroke-width: 1.0;" x1="208" x2="208" y1="180.75" y2="208.8438"/><line style="stroke: #000000; stroke-width: 1.0;" x1="329" x2="329" y1="180.75" y2="208.8438"/><line style="stroke: #000000; stroke-width: 1.0;" x1="443" x2="443" y1="180.75" y2="208.8438"/><line style="stroke: #000000; stroke-width: 1.0;" x1="533" x2="533" y1="180.75" y2="208.8438"/><line style="stroke: #000000; stroke-width: 1.0;" x1="627" x2="627" y1="180.75" y2="208.8438"/><line style="stroke: #000000; stroke-width: 1.0;" x1="706" x2="706" y1="180.75" y2="208.8438"/><line style="stroke: #000000; stroke-width: 1.0;" x1="879" x2="879" y1="180.75" y2="208.8438"/><line style="stroke: #AAAAAA; stroke-width: 1.0;" x1="6" x2="880" y1="270.5313" y2="270.5313"/><line style="stroke: #AAAAAA; stroke-width: 1.0;" x1="881" x2="892" y1="270.5313" y2="270.5313"/><rect fill="#EEEEEE" height="19.0938" rx="5" ry="5" style="stroke: #000000; stroke-width: 2.5;" width="60" x="9.5" y="278.5313"/><text fill="#000000" font-family="sans-serif" font-size="12" lengthAdjust="spacingAndGlyphs" textLength="42" x="18.5" y="292.9883">Annuler</text><rect fill="#EEEEEE" height="19.0938" rx="5" ry="5" style="stroke: #000000; stroke-width: 2.5;" width="92" x="76.5" y="278.5313"/><text fill="#000000" font-family="sans-serif" font-size="12" lengthAdjust="spacingAndGlyphs" textLength="70" x="87.5" y="292.9883">Sauvegarder</text></g></svg>