<?xml version="1.0" encoding="UTF-8" standalone="no"?><svg xmlns="http://www.w3.org/2000/svg" xmlns:xlink="http://www.w3.org/1999/xlink" contentScriptType="application/ecmascript" contentStyleType="text/css" height="229px" preserveAspectRatio="none" style="width:667px;height:229px;" version="1.1" viewBox="0 0 667 229" width="667px" zoomAndPan="magnify"><defs/><g><text fill="#000000" font-family="sans-serif" font-size="12" font-weight="bold" lengthAdjust="spacingAndGlyphs" textLength="165" x="10" y="17.1387">Composition du paquet</text><line style="stroke: #AAAAAA; stroke-width: 1.0;" x1="6" x2="648" y1="25.4688" y2="25.4688"/><line style="stroke: #AAAAAA; stroke-width: 1.0;" x1="649" x2="660" y1="25.4688" y2="25.4688"/><text fill="#000000" font-family="sans-serif" font-size="12" lengthAdjust="spacingAndGlyphs" textLength="126" x="8" y="59.0762">Nombre de paquet :</text><path d="M143,50.9063 C140.79,50.9063 139,52.6963 139,54.9063 C139,57.1163 140.79,58.9063 143,58.9063 C145.21,58.9063 147,57.1163 147,54.9063 C147,52.6963 145.21,50.9063 143,50.9063 M143,51.9063 L146,54.9063 L143,57.9063 L143,55.9063 L140,55.9063 L140,53.9063 L143,53.9063 L143,51.9063 " fill="#000000" style="stroke: ; stroke-width: 0.0; stroke-dasharray: ;"/><text fill="#000000" font-family="sans-serif" font-size="12" lengthAdjust="spacingAndGlyphs" textLength="0" x="158" y="60.0762"/><line style="stroke: #000000; stroke-width: 1.0;" x1="152" x2="243" y1="62.9063" y2="62.9063"/><line style="stroke: #000000; stroke-width: 1.0;" x1="152" x2="152" y1="59.9063" y2="61.9063"/><line style="stroke: #000000; stroke-width: 1.0;" x1="243" x2="243" y1="59.9063" y2="61.9063"/><line style="stroke: #000000; stroke-width: 1.0;" x1="150" x2="246" y1="47.9375" y2="47.9375"/><line style="stroke: #000000; stroke-width: 1.0;" x1="150" x2="246" y1="65.9063" y2="65.9063"/><line style="stroke: #000000; stroke-width: 1.0;" x1="150" x2="150" y1="47.9375" y2="65.9063"/><line style="stroke: #000000; stroke-width: 1.0;" x1="246" x2="246" y1="47.9375" y2="65.9063"/><path d="M249.094,47.9375 C249.034,47.9375 249,47.9715 249,48.0315 L249,55.8445 C249,55.9045 249.034,55.9385 249.094,55.9385 L255.907,55.9385 C255.967,55.9385 256.001,55.9045 256.001,55.8445 L256.001,48.0315 C256.001,47.9715 255.967,47.9375 255.907,47.9375 L249.094,47.9375 M250,48.9375 L255,48.9375 L255,50.9375 L250,50.9375 L250,48.9375 M250,51.9375 L251,51.9375 L251,52.9375 L250,52.9375 L250,51.9375 M252,51.9375 L253,51.9375 L253,52.9375 L252,52.9375 L252,51.9375 M254,51.9375 L255,51.9375 L255,54.9375 L254,54.9375 L254,51.9375 M250,53.9375 L251,53.9375 L251,54.9375 L250,54.9375 L250,53.9375 M252,53.9375 L253,53.9375 L253,54.9375 L252,54.9375 L252,53.9375 " fill="#000000" style="stroke: ; stroke-width: 0.0; stroke-dasharray: ;"/><text fill="#000000" font-family="sans-serif" font-size="12" lengthAdjust="spacingAndGlyphs" textLength="198" x="261" y="60.0762">Poids total des paquets calculé</text><text fill="#000000" font-family="sans-serif" font-size="12" lengthAdjust="spacingAndGlyphs" textLength="24" x="465" y="61.0762">484</text><line style="stroke: #000000; stroke-width: 1.0;" x1="463" x2="530" y1="63.9063" y2="63.9063"/><line style="stroke: #000000; stroke-width: 1.0;" x1="463" x2="463" y1="60.9063" y2="62.9063"/><line style="stroke: #000000; stroke-width: 1.0;" x1="530" x2="530" y1="60.9063" y2="62.9063"/><line style="stroke: #000000; stroke-width: 1.0;" x1="461" x2="533" y1="48.9375" y2="48.9375"/><line style="stroke: #000000; stroke-width: 1.0;" x1="461" x2="533" y1="66.9063" y2="66.9063"/><line style="stroke: #000000; stroke-width: 1.0;" x1="461" x2="461" y1="48.9375" y2="66.9063"/><line style="stroke: #000000; stroke-width: 1.0;" x1="533" x2="533" y1="48.9375" y2="66.9063"/><line style="stroke: #AAAAAA; stroke-width: 1.0; stroke-dasharray: 1.0,2.0;" x1="7" x2="647" y1="74.4063" y2="74.4063"/><text fill="#000000" font-family="sans-serif" font-size="12" lengthAdjust="spacingAndGlyphs" textLength="153" x="8" y="91.0449">Poids de l'échantillon    :</text><text fill="#000000" font-family="sans-serif" font-size="12" lengthAdjust="spacingAndGlyphs" textLength="24" x="167" y="92.0449">160</text><line style="stroke: #000000; stroke-width: 1.0;" x1="165" x2="216" y1="94.875" y2="94.875"/><line style="stroke: #000000; stroke-width: 1.0;" x1="165" x2="165" y1="91.875" y2="93.875"/><line style="stroke: #000000; stroke-width: 1.0;" x1="216" x2="216" y1="91.875" y2="93.875"/><line style="stroke: #000000; stroke-width: 1.0;" x1="163" x2="219" y1="79.9063" y2="79.9063"/><line style="stroke: #000000; stroke-width: 1.0;" x1="163" x2="219" y1="97.875" y2="97.875"/><line style="stroke: #000000; stroke-width: 1.0;" x1="163" x2="163" y1="79.9063" y2="97.875"/><line style="stroke: #000000; stroke-width: 1.0;" x1="219" x2="219" y1="79.9063" y2="97.875"/><text fill="#000000" font-family="sans-serif" font-size="12" lengthAdjust="spacingAndGlyphs" textLength="16" x="225" y="92.0449">59</text><line style="stroke: #000000; stroke-width: 1.0;" x1="223" x2="274" y1="94.875" y2="94.875"/><line style="stroke: #000000; stroke-width: 1.0;" x1="223" x2="223" y1="91.875" y2="93.875"/><line style="stroke: #000000; stroke-width: 1.0;" x1="274" x2="274" y1="91.875" y2="93.875"/><line style="stroke: #000000; stroke-width: 1.0;" x1="221" x2="277" y1="79.9063" y2="79.9063"/><line style="stroke: #000000; stroke-width: 1.0;" x1="221" x2="277" y1="97.875" y2="97.875"/><line style="stroke: #000000; stroke-width: 1.0;" x1="221" x2="221" y1="79.9063" y2="97.875"/><line style="stroke: #000000; stroke-width: 1.0;" x1="277" x2="277" y1="79.9063" y2="97.875"/><text fill="#000000" font-family="sans-serif" font-size="12" lengthAdjust="spacingAndGlyphs" textLength="16" x="283" y="92.0449">70</text><line style="stroke: #000000; stroke-width: 1.0;" x1="281" x2="332" y1="94.875" y2="94.875"/><line style="stroke: #000000; stroke-width: 1.0;" x1="281" x2="281" y1="91.875" y2="93.875"/><line style="stroke: #000000; stroke-width: 1.0;" x1="332" x2="332" y1="91.875" y2="93.875"/><line style="stroke: #000000; stroke-width: 1.0;" x1="279" x2="335" y1="79.9063" y2="79.9063"/><line style="stroke: #000000; stroke-width: 1.0;" x1="279" x2="335" y1="97.875" y2="97.875"/><line style="stroke: #000000; stroke-width: 1.0;" x1="279" x2="279" y1="79.9063" y2="97.875"/><line style="stroke: #000000; stroke-width: 1.0;" x1="335" x2="335" y1="79.9063" y2="97.875"/><text fill="#000000" font-family="sans-serif" font-size="12" lengthAdjust="spacingAndGlyphs" textLength="24" x="341" y="92.0449">136</text><line style="stroke: #000000; stroke-width: 1.0;" x1="339" x2="390" y1="94.875" y2="94.875"/><line style="stroke: #000000; stroke-width: 1.0;" x1="339" x2="339" y1="91.875" y2="93.875"/><line style="stroke: #000000; stroke-width: 1.0;" x1="390" x2="390" y1="91.875" y2="93.875"/><line style="stroke: #000000; stroke-width: 1.0;" x1="337" x2="393" y1="79.9063" y2="79.9063"/><line style="stroke: #000000; stroke-width: 1.0;" x1="337" x2="393" y1="97.875" y2="97.875"/><line style="stroke: #000000; stroke-width: 1.0;" x1="337" x2="337" y1="79.9063" y2="97.875"/><line style="stroke: #000000; stroke-width: 1.0;" x1="393" x2="393" y1="79.9063" y2="97.875"/><text fill="#000000" font-family="sans-serif" font-size="12" lengthAdjust="spacingAndGlyphs" textLength="16" x="399" y="92.0449">59</text><line style="stroke: #000000; stroke-width: 1.0;" x1="397" x2="448" y1="94.875" y2="94.875"/><line style="stroke: #000000; stroke-width: 1.0;" x1="397" x2="397" y1="91.875" y2="93.875"/><line style="stroke: #000000; stroke-width: 1.0;" x1="448" x2="448" y1="91.875" y2="93.875"/><line style="stroke: #000000; stroke-width: 1.0;" x1="395" x2="451" y1="79.9063" y2="79.9063"/><line style="stroke: #000000; stroke-width: 1.0;" x1="395" x2="451" y1="97.875" y2="97.875"/><line style="stroke: #000000; stroke-width: 1.0;" x1="395" x2="395" y1="79.9063" y2="97.875"/><line style="stroke: #000000; stroke-width: 1.0;" x1="451" x2="451" y1="79.9063" y2="97.875"/><text fill="#000000" font-family="sans-serif" font-size="12" lengthAdjust="spacingAndGlyphs" textLength="0" x="461" y="92.0449"/><line style="stroke: #000000; stroke-width: 1.0;" x1="455" x2="506" y1="94.875" y2="94.875"/><line style="stroke: #000000; stroke-width: 1.0;" x1="455" x2="455" y1="91.875" y2="93.875"/><line style="stroke: #000000; stroke-width: 1.0;" x1="506" x2="506" y1="91.875" y2="93.875"/><line style="stroke: #000000; stroke-width: 1.0;" x1="453" x2="509" y1="79.9063" y2="79.9063"/><line style="stroke: #000000; stroke-width: 1.0;" x1="453" x2="509" y1="97.875" y2="97.875"/><line style="stroke: #000000; stroke-width: 1.0;" x1="453" x2="453" y1="79.9063" y2="97.875"/><line style="stroke: #000000; stroke-width: 1.0;" x1="509" x2="509" y1="79.9063" y2="97.875"/><rect fill="#EEEEEE" height="12" rx="5" ry="5" style="stroke: #000000; stroke-width: 2.5;" width="20" x="10.5" y="104.375"/><path d="M19.5,106.375 L19.5,109.375 L16.5,109.375 L16.5,111.375 L19.5,111.375 L19.5,114.375 L21.5,114.375 L21.5,111.375 L24.5,111.375 L24.5,109.375 L21.5,109.375 L21.5,106.375 L19.5,106.375 " fill="#000000" style="stroke: ; stroke-width: 0.0; stroke-dasharray: ;"/><rect fill="#EEEEEE" height="12" rx="5" ry="5" style="stroke: #000000; stroke-width: 2.5;" width="20" x="37.5" y="104.375"/><path d="M43.5,109.375 L43.5,111.375 L51.5,111.375 L51.5,109.375 L43.5,109.375 " fill="#000000" style="stroke: ; stroke-width: 0.0; stroke-dasharray: ;"/><text fill="#000000" font-family="sans-serif" font-size="12" lengthAdjust="spacingAndGlyphs" textLength="10" x="8" y="134.0137">#</text><text fill="#000000" font-family="sans-serif" font-size="12" font-weight="bold" lengthAdjust="spacingAndGlyphs" textLength="148" x="20" y="134.0137">Espèce commerciale*</text><text fill="#000000" font-family="sans-serif" font-size="12" font-weight="bold" lengthAdjust="spacingAndGlyphs" textLength="68" x="170" y="134.0137">% (Σ=100)</text><text fill="#000000" font-family="sans-serif" font-size="12" font-weight="bold" lengthAdjust="spacingAndGlyphs" textLength="68" x="240" y="134.0137">% (Σ=100)</text><text fill="#000000" font-family="sans-serif" font-size="12" font-weight="bold" lengthAdjust="spacingAndGlyphs" textLength="68" x="310" y="134.0137">% (Σ=100)</text><text fill="#000000" font-family="sans-serif" font-size="12" font-weight="bold" lengthAdjust="spacingAndGlyphs" textLength="68" x="380" y="134.0137">% (Σ=100)</text><text fill="#000000" font-family="sans-serif" font-size="12" font-weight="bold" lengthAdjust="spacingAndGlyphs" textLength="68" x="450" y="134.0137">% (Σ=100)</text><text fill="#000000" font-family="sans-serif" font-size="12" lengthAdjust="spacingAndGlyphs" textLength="11" x="520" y="134.0137">%</text><text fill="#000000" font-family="sans-serif" font-size="12" lengthAdjust="spacingAndGlyphs" textLength="69" x="576" y="134.0137">Poids (kg)*</text><text fill="#000000" font-family="sans-serif" font-size="12" lengthAdjust="spacingAndGlyphs" textLength="8" x="8" y="149.9824">1</text><text fill="#000000" font-family="sans-serif" font-size="12" lengthAdjust="spacingAndGlyphs" textLength="47" x="20" y="149.9824">Albakor</text><text fill="#000000" font-family="sans-serif" font-size="12" lengthAdjust="spacingAndGlyphs" textLength="16" x="170" y="149.9824">90</text><text fill="#000000" font-family="sans-serif" font-size="12" lengthAdjust="spacingAndGlyphs" textLength="16" x="240" y="149.9824">50</text><text fill="#000000" font-family="sans-serif" font-size="12" lengthAdjust="spacingAndGlyphs" textLength="16" x="310" y="149.9824">35</text><text fill="#000000" font-family="sans-serif" font-size="12" lengthAdjust="spacingAndGlyphs" textLength="16" x="380" y="149.9824">49</text><text fill="#000000" font-family="sans-serif" font-size="12" lengthAdjust="spacingAndGlyphs" textLength="16" x="450" y="149.9824">25</text><text fill="#000000" font-family="sans-serif" font-size="12" lengthAdjust="spacingAndGlyphs" textLength="0" x="527" y="149.9824"/><line style="stroke: #000000; stroke-width: 1.0;" x1="521" x2="572" y1="152.8125" y2="152.8125"/><line style="stroke: #000000; stroke-width: 1.0;" x1="521" x2="521" y1="149.8125" y2="151.8125"/><line style="stroke: #000000; stroke-width: 1.0;" x1="572" x2="572" y1="149.8125" y2="151.8125"/><text fill="#000000" font-family="sans-serif" font-size="12" font-weight="bold" lengthAdjust="spacingAndGlyphs" textLength="45" x="576" y="149.9824">241.03</text><text fill="#000000" font-family="sans-serif" font-size="12" lengthAdjust="spacingAndGlyphs" textLength="8" x="8" y="167.9512">2</text><text fill="#000000" font-family="sans-serif" font-size="12" lengthAdjust="spacingAndGlyphs" textLength="78" x="20" y="167.9512">Anba lasann</text><text fill="#000000" font-family="sans-serif" font-size="12" lengthAdjust="spacingAndGlyphs" textLength="16" x="170" y="167.9512">10</text><text fill="#000000" font-family="sans-serif" font-size="12" lengthAdjust="spacingAndGlyphs" textLength="16" x="240" y="167.9512">50</text><text fill="#000000" font-family="sans-serif" font-size="12" lengthAdjust="spacingAndGlyphs" textLength="16" x="310" y="167.9512">65</text><text fill="#000000" font-family="sans-serif" font-size="12" lengthAdjust="spacingAndGlyphs" textLength="16" x="380" y="167.9512">51</text><text fill="#000000" font-family="sans-serif" font-size="12" lengthAdjust="spacingAndGlyphs" textLength="16" x="450" y="167.9512">75</text><text fill="#000000" font-family="sans-serif" font-size="12" lengthAdjust="spacingAndGlyphs" textLength="0" x="527" y="167.9512"/><line style="stroke: #000000; stroke-width: 1.0;" x1="521" x2="572" y1="170.7813" y2="170.7813"/><line style="stroke: #000000; stroke-width: 1.0;" x1="521" x2="521" y1="167.7813" y2="169.7813"/><line style="stroke: #000000; stroke-width: 1.0;" x1="572" x2="572" y1="167.7813" y2="169.7813"/><text fill="#0000FF" font-family="sans-serif" font-size="12" font-style="italic" lengthAdjust="spacingAndGlyphs" textLength="44" x="576" y="167.9512">242.97</text><line style="stroke: #000000; stroke-width: 1.0;" x1="7" x2="19" y1="121.875" y2="121.875"/><line style="stroke: #000000; stroke-width: 1.0;" x1="19" x2="169" y1="121.875" y2="121.875"/><line style="stroke: #000000; stroke-width: 1.0;" x1="169" x2="239" y1="121.875" y2="121.875"/><line style="stroke: #000000; stroke-width: 1.0;" x1="239" x2="309" y1="121.875" y2="121.875"/><line style="stroke: #000000; stroke-width: 1.0;" x1="309" x2="379" y1="121.875" y2="121.875"/><line style="stroke: #000000; stroke-width: 1.0;" x1="379" x2="449" y1="121.875" y2="121.875"/><line style="stroke: #000000; stroke-width: 1.0;" x1="449" x2="519" y1="121.875" y2="121.875"/><line style="stroke: #000000; stroke-width: 1.0;" x1="519" x2="575" y1="121.875" y2="121.875"/><line style="stroke: #000000; stroke-width: 1.0;" x1="575" x2="646" y1="121.875" y2="121.875"/><line style="stroke: #000000; stroke-width: 1.0;" x1="7" x2="19" y1="173.7813" y2="173.7813"/><line style="stroke: #000000; stroke-width: 1.0;" x1="19" x2="169" y1="173.7813" y2="173.7813"/><line style="stroke: #000000; stroke-width: 1.0;" x1="169" x2="239" y1="173.7813" y2="173.7813"/><line style="stroke: #000000; stroke-width: 1.0;" x1="239" x2="309" y1="173.7813" y2="173.7813"/><line style="stroke: #000000; stroke-width: 1.0;" x1="309" x2="379" y1="173.7813" y2="173.7813"/><line style="stroke: #000000; stroke-width: 1.0;" x1="379" x2="449" y1="173.7813" y2="173.7813"/><line style="stroke: #000000; stroke-width: 1.0;" x1="449" x2="519" y1="173.7813" y2="173.7813"/><line style="stroke: #000000; stroke-width: 1.0;" x1="519" x2="575" y1="173.7813" y2="173.7813"/><line style="stroke: #000000; stroke-width: 1.0;" x1="575" x2="646" y1="173.7813" y2="173.7813"/><line style="stroke: #000000; stroke-width: 1.0;" x1="7" x2="19" y1="155.8125" y2="155.8125"/><line style="stroke: #000000; stroke-width: 1.0;" x1="19" x2="169" y1="155.8125" y2="155.8125"/><line style="stroke: #000000; stroke-width: 1.0;" x1="169" x2="239" y1="155.8125" y2="155.8125"/><line style="stroke: #000000; stroke-width: 1.0;" x1="239" x2="309" y1="155.8125" y2="155.8125"/><line style="stroke: #000000; stroke-width: 1.0;" x1="309" x2="379" y1="155.8125" y2="155.8125"/><line style="stroke: #000000; stroke-width: 1.0;" x1="379" x2="449" y1="155.8125" y2="155.8125"/><line style="stroke: #000000; stroke-width: 1.0;" x1="449" x2="519" y1="155.8125" y2="155.8125"/><line style="stroke: #000000; stroke-width: 1.0;" x1="519" x2="575" y1="155.8125" y2="155.8125"/><line style="stroke: #000000; stroke-width: 1.0;" x1="575" x2="646" y1="155.8125" y2="155.8125"/><line style="stroke: #000000; stroke-width: 1.0;" x1="7" x2="19" y1="137.8438" y2="137.8438"/><line style="stroke: #000000; stroke-width: 1.0;" x1="19" x2="169" y1="137.8438" y2="137.8438"/><line style="stroke: #000000; stroke-width: 1.0;" x1="169" x2="239" y1="137.8438" y2="137.8438"/><line style="stroke: #000000; stroke-width: 1.0;" x1="239" x2="309" y1="137.8438" y2="137.8438"/><line style="stroke: #000000; stroke-width: 1.0;" x1="309" x2="379" y1="137.8438" y2="137.8438"/><line style="stroke: #000000; stroke-width: 1.0;" x1="379" x2="449" y1="137.8438" y2="137.8438"/><line style="stroke: #000000; stroke-width: 1.0;" x1="449" x2="519" y1="137.8438" y2="137.8438"/><line style="stroke: #000000; stroke-width: 1.0;" x1="519" x2="575" y1="137.8438" y2="137.8438"/><line style="stroke: #000000; stroke-width: 1.0;" x1="575" x2="646" y1="137.8438" y2="137.8438"/><line style="stroke: #000000; stroke-width: 1.0;" x1="7" x2="7" y1="121.875" y2="137.8438"/><line style="stroke: #000000; stroke-width: 1.0;" x1="19" x2="19" y1="121.875" y2="137.8438"/><line style="stroke: #000000; stroke-width: 1.0;" x1="169" x2="169" y1="121.875" y2="137.8438"/><line style="stroke: #000000; stroke-width: 1.0;" x1="239" x2="239" y1="121.875" y2="137.8438"/><line style="stroke: #000000; stroke-width: 1.0;" x1="309" x2="309" y1="121.875" y2="137.8438"/><line style="stroke: #000000; stroke-width: 1.0;" x1="379" x2="379" y1="121.875" y2="137.8438"/><line style="stroke: #000000; stroke-width: 1.0;" x1="449" x2="449" y1="121.875" y2="137.8438"/><line style="stroke: #000000; stroke-width: 1.0;" x1="519" x2="519" y1="121.875" y2="137.8438"/><line style="stroke: #000000; stroke-width: 1.0;" x1="575" x2="575" y1="121.875" y2="137.8438"/><line style="stroke: #000000; stroke-width: 1.0;" x1="646" x2="646" y1="121.875" y2="137.8438"/><line style="stroke: #000000; stroke-width: 1.0;" x1="7" x2="7" y1="155.8125" y2="173.7813"/><line style="stroke: #000000; stroke-width: 1.0;" x1="19" x2="19" y1="155.8125" y2="173.7813"/><line style="stroke: #000000; stroke-width: 1.0;" x1="169" x2="169" y1="155.8125" y2="173.7813"/><line style="stroke: #000000; stroke-width: 1.0;" x1="239" x2="239" y1="155.8125" y2="173.7813"/><line style="stroke: #000000; stroke-width: 1.0;" x1="309" x2="309" y1="155.8125" y2="173.7813"/><line style="stroke: #000000; stroke-width: 1.0;" x1="379" x2="379" y1="155.8125" y2="173.7813"/><line style="stroke: #000000; stroke-width: 1.0;" x1="449" x2="449" y1="155.8125" y2="173.7813"/><line style="stroke: #000000; stroke-width: 1.0;" x1="519" x2="519" y1="155.8125" y2="173.7813"/><line style="stroke: #000000; stroke-width: 1.0;" x1="575" x2="575" y1="155.8125" y2="173.7813"/><line style="stroke: #000000; stroke-width: 1.0;" x1="646" x2="646" y1="155.8125" y2="173.7813"/><line style="stroke: #000000; stroke-width: 1.0;" x1="7" x2="7" y1="137.8438" y2="155.8125"/><line style="stroke: #000000; stroke-width: 1.0;" x1="19" x2="19" y1="137.8438" y2="155.8125"/><line style="stroke: #000000; stroke-width: 1.0;" x1="169" x2="169" y1="137.8438" y2="155.8125"/><line style="stroke: #000000; stroke-width: 1.0;" x1="239" x2="239" y1="137.8438" y2="155.8125"/><line style="stroke: #000000; stroke-width: 1.0;" x1="309" x2="309" y1="137.8438" y2="155.8125"/><line style="stroke: #000000; stroke-width: 1.0;" x1="379" x2="379" y1="137.8438" y2="155.8125"/><line style="stroke: #000000; stroke-width: 1.0;" x1="449" x2="449" y1="137.8438" y2="155.8125"/><line style="stroke: #000000; stroke-width: 1.0;" x1="519" x2="519" y1="137.8438" y2="155.8125"/><line style="stroke: #000000; stroke-width: 1.0;" x1="575" x2="575" y1="137.8438" y2="155.8125"/><line style="stroke: #000000; stroke-width: 1.0;" x1="646" x2="646" y1="137.8438" y2="155.8125"/><line style="stroke: #AAAAAA; stroke-width: 1.0;" x1="6" x2="648" y1="196.25" y2="196.25"/><line style="stroke: #AAAAAA; stroke-width: 1.0;" x1="649" x2="660" y1="196.25" y2="196.25"/><rect fill="#EEEEEE" height="17.9688" rx="5" ry="5" style="stroke: #000000; stroke-width: 2.5;" width="52" x="10.5" y="205.25"/><text fill="#000000" font-family="sans-serif" font-size="12" lengthAdjust="spacingAndGlyphs" textLength="44" x="14.5" y="218.3887">Fermer</text><rect fill="#EEEEEE" height="17.9688" rx="5" ry="5" style="stroke: #000000; stroke-width: 2.5;" width="76" x="69.5" y="205.25"/><text fill="#000000" font-family="sans-serif" font-size="12" lengthAdjust="spacingAndGlyphs" textLength="60" x="77.5" y="218.3887">Confirmer</text></g></svg>