<?xml version="1.0" encoding="UTF-8" standalone="no"?><svg xmlns="http://www.w3.org/2000/svg" xmlns:xlink="http://www.w3.org/1999/xlink" contentStyleType="text/css" height="430px" preserveAspectRatio="none" style="width:852px;height:430px;background:#FFFFFF;" version="1.1" viewBox="0 0 852 430" width="852px" zoomAndPan="magnify"><defs/><g><text fill="#000000" font-family="sans-serif" font-size="12" font-weight="bold" lengthAdjust="spacing" textLength="312" x="10" y="17.1387">Immat Navire - Lieu - Date fin marée - Métier</text><line style="stroke:#AAAAAA;stroke-width:1.0;stroke-dasharray:1.0,2.0;" x1="6" x2="833" y1="25.4688" y2="25.4688"/><text fill="#000000" font-family="sans-serif" font-size="12" lengthAdjust="spacing" textLength="74" x="8" y="41.1074">General trip</text><line style="stroke:#000000;stroke-width:1.0;" x1="6" x2="6" y1="29.9688" y2="43.9375"/><line style="stroke:#000000;stroke-width:1.0;" x1="6" x2="85" y1="29.9688" y2="29.9688"/><line style="stroke:#000000;stroke-width:1.0;" x1="85" x2="85" y1="29.9688" y2="43.9375"/><line style="stroke:#000000;stroke-width:1.0;" x1="85" x2="95" y1="43.9375" y2="43.9375"/><text fill="#000000" font-family="sans-serif" font-size="12" lengthAdjust="spacing" textLength="34" x="97" y="41.1074">Effort</text><line style="stroke:#000000;stroke-width:1.0;" x1="95" x2="95" y1="29.9688" y2="43.9375"/><line style="stroke:#000000;stroke-width:1.0;" x1="95" x2="134" y1="29.9688" y2="29.9688"/><line style="stroke:#000000;stroke-width:1.0;" x1="134" x2="134" y1="29.9688" y2="43.9375"/><line style="stroke:#000000;stroke-width:1.0;" x1="134" x2="144" y1="43.9375" y2="43.9375"/><text fill="#000000" font-family="sans-serif" font-size="12" font-weight="bold" lengthAdjust="spacing" textLength="139" x="146" y="41.1074">Capture débarquée</text><line style="stroke:#000000;stroke-width:1.0;" x1="144" x2="144" y1="29.9688" y2="43.9375"/><line style="stroke:#000000;stroke-width:1.0;" x1="144" x2="288" y1="29.9688" y2="29.9688"/><line style="stroke:#000000;stroke-width:1.0;" x1="288" x2="288" y1="29.9688" y2="43.9375"/><line style="stroke:#000000;stroke-width:1.0;" x1="288" x2="298" y1="43.9375" y2="43.9375"/><text fill="#000000" font-family="sans-serif" font-size="12" lengthAdjust="spacing" textLength="37" x="300" y="41.1074">Vente</text><line style="stroke:#000000;stroke-width:1.0;" x1="298" x2="298" y1="29.9688" y2="43.9375"/><line style="stroke:#000000;stroke-width:1.0;" x1="298" x2="340" y1="29.9688" y2="29.9688"/><line style="stroke:#000000;stroke-width:1.0;" x1="340" x2="340" y1="29.9688" y2="43.9375"/><line style="stroke:#000000;stroke-width:1.0;" x1="340" x2="350" y1="43.9375" y2="43.9375"/><text fill="#000000" font-family="sans-serif" font-size="12" lengthAdjust="spacing" textLength="63" x="352" y="41.1074">Dépenses</text><line style="stroke:#000000;stroke-width:1.0;" x1="350" x2="350" y1="29.9688" y2="43.9375"/><line style="stroke:#000000;stroke-width:1.0;" x1="350" x2="418" y1="29.9688" y2="29.9688"/><line style="stroke:#000000;stroke-width:1.0;" x1="418" x2="418" y1="29.9688" y2="43.9375"/><line style="stroke:#000000;stroke-width:1.0;" x1="418" x2="428" y1="43.9375" y2="43.9375"/><path d="M9.34,65.875 A0.5,0.5 0 0 0 9.5,66.875 L10,66.875 L10,68.285 C9.91,68.455 8.8,70.595 8.34,71.375 C8.18,71.635 8,71.985 8,72.435 C8,72.825 8.15,73.205 8.41,73.465 C8.67,73.725 9.05,73.875 9.44,73.875 L14.57,73.875 C14.95,73.875 15.31,73.715 15.57,73.465 L15.6,73.465 C15.86,73.205 16.01,72.825 16.01,72.435 C16.01,71.985 15.82,71.635 15.67,71.375 C15.21,70.595 14.1,68.455 14.01,68.285 L14.01,66.875 L14.51,66.875 A0.5,0.5 0 1 0 14.51,65.875 L9.51,65.875 A0.5,0.5 0 0 0 9.42,65.875 A0.5,0.5 0 0 0 9.36,65.875 M11,66.875 L13,66.875 L13,68.505 L13.06,68.595 C13.69,69.825 13.69,69.825 14.25,70.875 L9.75,70.875 C10.31,69.825 10.94,68.595 10.94,68.595 L11,68.505 L11,66.875 " fill="#000000" style="stroke:;stroke-width:0.0;stroke-dasharray:;"/><text fill="#000000" font-family="sans-serif" font-size="12" lengthAdjust="spacing" textLength="87" x="21" y="74.0449">Filter by effort</text><rect fill="#EEEEEE" height="16.9688" style="stroke:#000000;stroke-width:1.0;" width="255" x="111" y="63.9063"/><text fill="#000000" font-family="sans-serif" font-size="12" lengthAdjust="spacing" textLength="180" x="113" y="77.0449">FIXABSX - Active trap for Vyey</text><line style="stroke:#000000;stroke-width:1.0;" x1="355" x2="355" y1="63.9063" y2="80.875"/><polygon fill="#000000" points="358,69.9063,364,69.9063,361,75.875" style="stroke:#000000;stroke-width:1.0;"/><path d="M371.75,62.9063 C371.34,62.9063 371,63.2463 371,63.6563 L371,69.1563 C371,69.5663 371.34,69.9063 371.75,69.9063 L378.25,69.9063 C378.66,69.9063 379,69.5663 379,69.1563 L379,63.6563 C379,63.2463 378.66,62.9063 378.25,62.9063 L371.75,62.9063 M372,63.9063 L373,63.9063 L373,64.9063 L372,64.9063 L372,63.9063 M374,63.9063 L378,63.9063 L378,64.9063 L374,64.9063 L374,63.9063 M372,65.9063 L373,65.9063 L373,66.9063 L372,66.9063 L372,65.9063 M374,65.9063 L378,65.9063 L378,66.9063 L374,66.9063 L374,65.9063 M372,67.9063 L373,67.9063 L373,68.9063 L372,68.9063 L372,67.9063 M374,67.9063 L378,67.9063 L378,68.9063 L374,68.9063 L374,67.9063 " fill="#000000" style="stroke:;stroke-width:0.0;stroke-dasharray:;"/><rect fill="#EEEEEE" height="17.9688" rx="5" ry="5" style="stroke:#000000;stroke-width:2.5;" width="36" x="384.5" y="65.4063"/><text fill="#000000" font-family="sans-serif" font-size="12" lengthAdjust="spacing" textLength="24" x="390.5" y="78.5449">Edit</text><rect fill="#EEEEEE" height="17.9688" rx="5" ry="5" style="stroke:#000000;stroke-width:2.5;" width="30" x="427.5" y="65.4063"/><text fill="#000000" font-family="sans-serif" font-size="12" lengthAdjust="spacing" textLength="26" x="429.5" y="78.5449">New</text><line style="stroke:#AAAAAA;stroke-width:1.0;" x1="6" x2="833" y1="92.375" y2="92.375"/><line style="stroke:#AAAAAA;stroke-width:1.0;" x1="834" x2="845" y1="92.375" y2="92.375"/><text fill="#000000" font-family="sans-serif" font-size="12" font-weight="bold" lengthAdjust="spacing" textLength="140" x="8" y="123.9824">Capture par espèce</text><line style="stroke:#000000;stroke-width:1.0;" x1="6" x2="6" y1="112.8438" y2="126.8125"/><line style="stroke:#000000;stroke-width:1.0;" x1="6" x2="151" y1="112.8438" y2="112.8438"/><line style="stroke:#000000;stroke-width:1.0;" x1="151" x2="151" y1="112.8438" y2="126.8125"/><line style="stroke:#000000;stroke-width:1.0;" x1="151" x2="161" y1="126.8125" y2="126.8125"/><text fill="#000000" font-family="sans-serif" font-size="12" lengthAdjust="spacing" textLength="119" x="163" y="123.9824">Capture en paquet</text><line style="stroke:#000000;stroke-width:1.0;" x1="161" x2="161" y1="112.8438" y2="126.8125"/><line style="stroke:#000000;stroke-width:1.0;" x1="161" x2="285" y1="112.8438" y2="112.8438"/><line style="stroke:#000000;stroke-width:1.0;" x1="285" x2="285" y1="112.8438" y2="126.8125"/><line style="stroke:#000000;stroke-width:1.0;" x1="285" x2="295" y1="126.8125" y2="126.8125"/><text fill="#000000" font-family="sans-serif" font-size="12" font-weight="bold" lengthAdjust="spacing" textLength="211" x="7" y="156.9199">Capture débarquée par effort</text><rect fill="#EEEEEE" height="12" rx="5" ry="5" style="stroke:#000000;stroke-width:2.5;" width="20" x="10.5" y="165.25"/><path d="M19.5,167.25 L19.5,170.25 L16.5,170.25 L16.5,172.25 L19.5,172.25 L19.5,175.25 L21.5,175.25 L21.5,172.25 L24.5,172.25 L24.5,170.25 L21.5,170.25 L21.5,167.25 L19.5,167.25 " fill="#000000" style="stroke:;stroke-width:0.0;stroke-dasharray:;"/><rect fill="#EEEEEE" height="12" rx="5" ry="5" style="stroke:#000000;stroke-width:2.5;" width="20" x="37.5" y="165.25"/><path d="M45.5,167.25 L45.5,173.25 L43.5,173.25 L46,175.25 L48.5,173.25 L46.5,173.25 L46.5,167.25 L45.5,167.25 M47.5,167.25 L47.5,168.25 L49.5,168.25 L49.5,167.25 L47.5,167.25 M47.5,169.25 L47.5,170.25 L50.5,170.25 L50.5,169.25 L47.5,169.25 M47.5,171.25 L47.5,172.25 L51.5,172.25 L51.5,171.25 L47.5,171.25 " fill="#000000" style="stroke:;stroke-width:0.0;stroke-dasharray:;"/><rect fill="#EEEEEE" height="12" rx="5" ry="5" style="stroke:#000000;stroke-width:2.5;" width="20" x="64.5" y="165.25"/><path d="M70.5,167.25 L70.5,169.25 L78.5,169.25 L78.5,167.25 L70.5,167.25 " fill="#000000" style="stroke:;stroke-width:0.0;stroke-dasharray:;"/><text fill="#000000" font-family="sans-serif" font-size="12" lengthAdjust="spacing" textLength="10" x="8" y="194.8887">#</text><text fill="#000000" font-family="sans-serif" font-size="12" lengthAdjust="spacing" textLength="39" x="20" y="194.8887">Metier</text><text fill="#000000" font-family="sans-serif" font-size="12" font-weight="bold" lengthAdjust="spacing" textLength="142" x="202" y="194.8887">Espèce commerciale</text><text fill="#000000" font-family="sans-serif" font-size="12" font-weight="bold" lengthAdjust="spacing" textLength="103" x="346" y="194.8887">Poids Ech. (kg)</text><text fill="#000000" font-family="sans-serif" font-size="12" font-weight="bold" lengthAdjust="spacing" textLength="56" x="451" y="194.8887">NB indiv</text><text fill="#000000" font-family="sans-serif" font-size="12" font-weight="bold" lengthAdjust="spacing" textLength="73" x="509" y="194.8887">Packaging</text><text fill="#000000" font-family="sans-serif" font-size="12" font-weight="bold" lengthAdjust="spacing" textLength="91" x="584" y="194.8887">Preservation</text><text fill="#000000" font-family="sans-serif" font-size="12" font-weight="bold" lengthAdjust="spacing" textLength="93" x="677" y="194.8887">Presentation</text><text fill="#000000" font-family="sans-serif" font-size="12" font-weight="bold" lengthAdjust="spacing" textLength="46" x="772" y="194.8887">Cat Tri</text><text fill="#000000" font-family="sans-serif" font-size="12" lengthAdjust="spacing" textLength="8" x="8" y="210.8574">1</text><text fill="#000000" font-family="sans-serif" font-size="12" lengthAdjust="spacing" textLength="180" x="20" y="210.8574">FIXABSX - Active trap for Vyey</text><text fill="#000000" font-family="sans-serif" font-size="12" lengthAdjust="spacing" textLength="116" x="202" y="210.8574">Anba Iasann - PWT</text><text fill="#000000" font-family="sans-serif" font-size="12" lengthAdjust="spacing" textLength="36" x="346" y="210.8574">200.0</text><text fill="#000000" font-family="sans-serif" font-size="12" lengthAdjust="spacing" textLength="16" x="451" y="210.8574">45</text><text fill="#000000" font-family="sans-serif" font-size="12" lengthAdjust="spacing" textLength="25" x="509" y="210.8574">Unit</text><text fill="#000000" font-family="sans-serif" font-size="12" lengthAdjust="spacing" textLength="30" x="584" y="210.8574">Frais</text><text fill="#000000" font-family="sans-serif" font-size="12" lengthAdjust="spacing" textLength="37" x="677" y="210.8574">Entier</text><text fill="#000000" font-family="sans-serif" font-size="12" lengthAdjust="spacing" textLength="58" x="772" y="210.8574">Unsorted</text><text fill="#000000" font-family="sans-serif" font-size="12" lengthAdjust="spacing" textLength="8" x="8" y="226.8262">2</text><text fill="#000000" font-family="sans-serif" font-size="12" lengthAdjust="spacing" textLength="180" x="20" y="226.8262">FIXABSX - Active trap for Vyey</text><text fill="#000000" font-family="sans-serif" font-size="12" lengthAdjust="spacing" textLength="72" x="202" y="226.8262">Barwa - LXN</text><text fill="#000000" font-family="sans-serif" font-size="12" lengthAdjust="spacing" textLength="28" x="346" y="226.8262">26.0</text><text fill="#000000" font-family="sans-serif" font-size="12" lengthAdjust="spacing" textLength="8" x="451" y="226.8262">3</text><text fill="#000000" font-family="sans-serif" font-size="12" lengthAdjust="spacing" textLength="25" x="509" y="226.8262">Unit</text><text fill="#000000" font-family="sans-serif" font-size="12" lengthAdjust="spacing" textLength="30" x="584" y="226.8262">Frais</text><text fill="#000000" font-family="sans-serif" font-size="12" lengthAdjust="spacing" textLength="37" x="677" y="226.8262">Entier</text><text fill="#000000" font-family="sans-serif" font-size="12" lengthAdjust="spacing" textLength="58" x="772" y="226.8262">Unsorted</text><line style="stroke:#000000;stroke-width:1.0;" x1="7" x2="19" y1="182.75" y2="182.75"/><line style="stroke:#000000;stroke-width:1.0;" x1="19" x2="201" y1="182.75" y2="182.75"/><line style="stroke:#000000;stroke-width:1.0;" x1="201" x2="345" y1="182.75" y2="182.75"/><line style="stroke:#000000;stroke-width:1.0;" x1="345" x2="450" y1="182.75" y2="182.75"/><line style="stroke:#000000;stroke-width:1.0;" x1="450" x2="508" y1="182.75" y2="182.75"/><line style="stroke:#000000;stroke-width:1.0;" x1="508" x2="583" y1="182.75" y2="182.75"/><line style="stroke:#000000;stroke-width:1.0;" x1="583" x2="676" y1="182.75" y2="182.75"/><line style="stroke:#000000;stroke-width:1.0;" x1="676" x2="771" y1="182.75" y2="182.75"/><line style="stroke:#000000;stroke-width:1.0;" x1="771" x2="831" y1="182.75" y2="182.75"/><line style="stroke:#000000;stroke-width:1.0;" x1="7" x2="19" y1="230.6563" y2="230.6563"/><line style="stroke:#000000;stroke-width:1.0;" x1="19" x2="201" y1="230.6563" y2="230.6563"/><line style="stroke:#000000;stroke-width:1.0;" x1="201" x2="345" y1="230.6563" y2="230.6563"/><line style="stroke:#000000;stroke-width:1.0;" x1="345" x2="450" y1="230.6563" y2="230.6563"/><line style="stroke:#000000;stroke-width:1.0;" x1="450" x2="508" y1="230.6563" y2="230.6563"/><line style="stroke:#000000;stroke-width:1.0;" x1="508" x2="583" y1="230.6563" y2="230.6563"/><line style="stroke:#000000;stroke-width:1.0;" x1="583" x2="676" y1="230.6563" y2="230.6563"/><line style="stroke:#000000;stroke-width:1.0;" x1="676" x2="771" y1="230.6563" y2="230.6563"/><line style="stroke:#000000;stroke-width:1.0;" x1="771" x2="831" y1="230.6563" y2="230.6563"/><line style="stroke:#000000;stroke-width:1.0;" x1="7" x2="19" y1="214.6875" y2="214.6875"/><line style="stroke:#000000;stroke-width:1.0;" x1="19" x2="201" y1="214.6875" y2="214.6875"/><line style="stroke:#000000;stroke-width:1.0;" x1="201" x2="345" y1="214.6875" y2="214.6875"/><line style="stroke:#000000;stroke-width:1.0;" x1="345" x2="450" y1="214.6875" y2="214.6875"/><line style="stroke:#000000;stroke-width:1.0;" x1="450" x2="508" y1="214.6875" y2="214.6875"/><line style="stroke:#000000;stroke-width:1.0;" x1="508" x2="583" y1="214.6875" y2="214.6875"/><line style="stroke:#000000;stroke-width:1.0;" x1="583" x2="676" y1="214.6875" y2="214.6875"/><line style="stroke:#000000;stroke-width:1.0;" x1="676" x2="771" y1="214.6875" y2="214.6875"/><line style="stroke:#000000;stroke-width:1.0;" x1="771" x2="831" y1="214.6875" y2="214.6875"/><line style="stroke:#000000;stroke-width:1.0;" x1="7" x2="19" y1="198.7188" y2="198.7188"/><line style="stroke:#000000;stroke-width:1.0;" x1="19" x2="201" y1="198.7188" y2="198.7188"/><line style="stroke:#000000;stroke-width:1.0;" x1="201" x2="345" y1="198.7188" y2="198.7188"/><line style="stroke:#000000;stroke-width:1.0;" x1="345" x2="450" y1="198.7188" y2="198.7188"/><line style="stroke:#000000;stroke-width:1.0;" x1="450" x2="508" y1="198.7188" y2="198.7188"/><line style="stroke:#000000;stroke-width:1.0;" x1="508" x2="583" y1="198.7188" y2="198.7188"/><line style="stroke:#000000;stroke-width:1.0;" x1="583" x2="676" y1="198.7188" y2="198.7188"/><line style="stroke:#000000;stroke-width:1.0;" x1="676" x2="771" y1="198.7188" y2="198.7188"/><line style="stroke:#000000;stroke-width:1.0;" x1="771" x2="831" y1="198.7188" y2="198.7188"/><line style="stroke:#000000;stroke-width:1.0;" x1="7" x2="7" y1="182.75" y2="198.7188"/><line style="stroke:#000000;stroke-width:1.0;" x1="19" x2="19" y1="182.75" y2="198.7188"/><line style="stroke:#000000;stroke-width:1.0;" x1="201" x2="201" y1="182.75" y2="198.7188"/><line style="stroke:#000000;stroke-width:1.0;" x1="345" x2="345" y1="182.75" y2="198.7188"/><line style="stroke:#000000;stroke-width:1.0;" x1="450" x2="450" y1="182.75" y2="198.7188"/><line style="stroke:#000000;stroke-width:1.0;" x1="508" x2="508" y1="182.75" y2="198.7188"/><line style="stroke:#000000;stroke-width:1.0;" x1="583" x2="583" y1="182.75" y2="198.7188"/><line style="stroke:#000000;stroke-width:1.0;" x1="676" x2="676" y1="182.75" y2="198.7188"/><line style="stroke:#000000;stroke-width:1.0;" x1="771" x2="771" y1="182.75" y2="198.7188"/><line style="stroke:#000000;stroke-width:1.0;" x1="831" x2="831" y1="182.75" y2="198.7188"/><line style="stroke:#000000;stroke-width:1.0;" x1="7" x2="7" y1="214.6875" y2="230.6563"/><line style="stroke:#000000;stroke-width:1.0;" x1="19" x2="19" y1="214.6875" y2="230.6563"/><line style="stroke:#000000;stroke-width:1.0;" x1="201" x2="201" y1="214.6875" y2="230.6563"/><line style="stroke:#000000;stroke-width:1.0;" x1="345" x2="345" y1="214.6875" y2="230.6563"/><line style="stroke:#000000;stroke-width:1.0;" x1="450" x2="450" y1="214.6875" y2="230.6563"/><line style="stroke:#000000;stroke-width:1.0;" x1="508" x2="508" y1="214.6875" y2="230.6563"/><line style="stroke:#000000;stroke-width:1.0;" x1="583" x2="583" y1="214.6875" y2="230.6563"/><line style="stroke:#000000;stroke-width:1.0;" x1="676" x2="676" y1="214.6875" y2="230.6563"/><line style="stroke:#000000;stroke-width:1.0;" x1="771" x2="771" y1="214.6875" y2="230.6563"/><line style="stroke:#000000;stroke-width:1.0;" x1="831" x2="831" y1="214.6875" y2="230.6563"/><line style="stroke:#000000;stroke-width:1.0;" x1="7" x2="7" y1="198.7188" y2="214.6875"/><line style="stroke:#000000;stroke-width:1.0;" x1="19" x2="19" y1="198.7188" y2="214.6875"/><line style="stroke:#000000;stroke-width:1.0;" x1="201" x2="201" y1="198.7188" y2="214.6875"/><line style="stroke:#000000;stroke-width:1.0;" x1="345" x2="345" y1="198.7188" y2="214.6875"/><line style="stroke:#000000;stroke-width:1.0;" x1="450" x2="450" y1="198.7188" y2="214.6875"/><line style="stroke:#000000;stroke-width:1.0;" x1="508" x2="508" y1="198.7188" y2="214.6875"/><line style="stroke:#000000;stroke-width:1.0;" x1="583" x2="583" y1="198.7188" y2="214.6875"/><line style="stroke:#000000;stroke-width:1.0;" x1="676" x2="676" y1="198.7188" y2="214.6875"/><line style="stroke:#000000;stroke-width:1.0;" x1="771" x2="771" y1="198.7188" y2="214.6875"/><line style="stroke:#000000;stroke-width:1.0;" x1="831" x2="831" y1="198.7188" y2="214.6875"/><line style="stroke:#AAAAAA;stroke-width:1.0;" x1="6" x2="833" y1="253.125" y2="253.125"/><line style="stroke:#AAAAAA;stroke-width:1.0;" x1="834" x2="845" y1="253.125" y2="253.125"/><text fill="#000000" font-family="sans-serif" font-size="12" lengthAdjust="spacing" textLength="125" x="8" y="284.7324">Capture par espèce</text><line style="stroke:#000000;stroke-width:1.0;" x1="6" x2="6" y1="273.5938" y2="287.5625"/><line style="stroke:#000000;stroke-width:1.0;" x1="6" x2="136" y1="273.5938" y2="273.5938"/><line style="stroke:#000000;stroke-width:1.0;" x1="136" x2="136" y1="273.5938" y2="287.5625"/><line style="stroke:#000000;stroke-width:1.0;" x1="136" x2="146" y1="287.5625" y2="287.5625"/><text fill="#000000" font-family="sans-serif" font-size="12" font-weight="bold" lengthAdjust="spacing" textLength="134" x="148" y="284.7324">Capture en paquet</text><line style="stroke:#000000;stroke-width:1.0;" x1="146" x2="146" y1="273.5938" y2="287.5625"/><line style="stroke:#000000;stroke-width:1.0;" x1="146" x2="285" y1="273.5938" y2="273.5938"/><line style="stroke:#000000;stroke-width:1.0;" x1="285" x2="285" y1="273.5938" y2="287.5625"/><line style="stroke:#000000;stroke-width:1.0;" x1="285" x2="295" y1="287.5625" y2="287.5625"/><text fill="#000000" font-family="sans-serif" font-size="12" font-weight="bold" lengthAdjust="spacing" textLength="173" x="7" y="317.6699">packets saisis par effort</text><rect fill="#EEEEEE" height="12" rx="5" ry="5" style="stroke:#000000;stroke-width:2.5;" width="20" x="10.5" y="326"/><path d="M19.5,328 L19.5,331 L16.5,331 L16.5,333 L19.5,333 L19.5,336 L21.5,336 L21.5,333 L24.5,333 L24.5,331 L21.5,331 L21.5,328 L19.5,328 " fill="#000000" style="stroke:;stroke-width:0.0;stroke-dasharray:;"/><rect fill="#EEEEEE" height="12" rx="5" ry="5" style="stroke:#000000;stroke-width:2.5;" width="20" x="37.5" y="326"/><path d="M44.25,328 C43.84,328 43.5,328.34 43.5,328.75 L43.5,334.25 C43.5,334.66 43.84,335 44.25,335 L50.75,335 C51.16,335 51.5,334.66 51.5,334.25 L51.5,328.75 C51.5,328.34 51.16,328 50.75,328 L44.25,328 M44.5,329 L45.5,329 L45.5,330 L44.5,330 L44.5,329 M46.5,329 L50.5,329 L50.5,330 L46.5,330 L46.5,329 M44.5,331 L45.5,331 L45.5,332 L44.5,332 L44.5,331 M46.5,331 L50.5,331 L50.5,332 L46.5,332 L46.5,331 M44.5,333 L45.5,333 L45.5,334 L44.5,334 L44.5,333 M46.5,333 L50.5,333 L50.5,334 L46.5,334 L46.5,333 " fill="#000000" style="stroke:;stroke-width:0.0;stroke-dasharray:;"/><rect fill="#EEEEEE" height="12" rx="5" ry="5" style="stroke:#000000;stroke-width:2.5;" width="20" x="64.5" y="326"/><path d="M70.5,328 L70.5,330 L78.5,330 L78.5,328 L70.5,328 " fill="#000000" style="stroke:;stroke-width:0.0;stroke-dasharray:;"/><text fill="#000000" font-family="sans-serif" font-size="12" lengthAdjust="spacing" textLength="10" x="8" y="355.6387">#</text><text fill="#000000" font-family="sans-serif" font-size="12" lengthAdjust="spacing" textLength="39" x="20" y="355.6387">Metier</text><text fill="#000000" font-family="sans-serif" font-size="12" font-weight="bold" lengthAdjust="spacing" textLength="47" x="202" y="355.6387">ID Lot*</text><text fill="#000000" font-family="sans-serif" font-size="12" font-weight="bold" lengthAdjust="spacing" textLength="151" x="251" y="355.6387">Nombre de paquets*)</text><text fill="#000000" font-family="sans-serif" font-size="12" font-weight="bold" lengthAdjust="spacing" textLength="76" x="408" y="355.6387">Poids (kg)*</text><text fill="#000000" font-family="sans-serif" font-size="12" font-weight="bold" lengthAdjust="spacing" textLength="88" x="486" y="355.6387">Composition</text><text fill="#000000" font-family="sans-serif" font-size="12" font-weight="bold" lengthAdjust="spacing" textLength="42" x="576" y="355.6387">Detail</text><text fill="#000000" font-family="sans-serif" font-size="12" lengthAdjust="spacing" textLength="8" x="8" y="371.6074">1</text><text fill="#000000" font-family="sans-serif" font-size="12" lengthAdjust="spacing" textLength="180" x="20" y="371.6074">FIXABSX - Active trap for Vyey</text><text fill="#000000" font-family="sans-serif" font-size="12" lengthAdjust="spacing" textLength="31" x="202" y="371.6074">Lot 1</text><text fill="#000000" font-family="sans-serif" font-size="12" lengthAdjust="spacing" textLength="8" x="251" y="371.6074">5</text><text fill="#000000" font-family="sans-serif" font-size="12" lengthAdjust="spacing" textLength="36" x="404" y="371.6074">484.0</text><path d="M487,360.4688 L487,364.4688 L491,364.4688 L491,360.4688 L487,360.4688 M492,362.4688 L492,365.4688 L489,365.4688 L489,366.4688 L493,366.4688 L493,362.4688 L492,362.4688 M494,364.4688 L494,367.4688 L491,367.4688 L491,368.4688 L495,368.4688 L495,364.4688 L494,364.4688 " fill="#000000" style="stroke:;stroke-width:0.0;stroke-dasharray:;"/><path d="M577.09,360.4688 C577.03,360.4688 577,360.5088 577,360.5588 L577,366.3688 C577,366.4188 577.04,366.4588 577.09,366.4588 L583,366.4588 L585,368.4588 L585,360.5488 C585,360.4888 584.96,360.4588 584.91,360.4588 L577.1,360.4588 " fill="#000000" style="stroke:;stroke-width:0.0;stroke-dasharray:;"/><line style="stroke:#000000;stroke-width:1.0;" x1="7" x2="19" y1="343.5" y2="343.5"/><line style="stroke:#000000;stroke-width:1.0;" x1="201" x2="250" y1="375.4375" y2="375.4375"/><line style="stroke:#000000;stroke-width:1.0;" x1="19" x2="201" y1="343.5" y2="343.5"/><line style="stroke:#000000;stroke-width:1.0;" x1="250" x2="403" y1="375.4375" y2="375.4375"/><line style="stroke:#000000;stroke-width:1.0;" x1="201" x2="250" y1="343.5" y2="343.5"/><line style="stroke:#000000;stroke-width:1.0;" x1="403" x2="485" y1="375.4375" y2="375.4375"/><line style="stroke:#000000;stroke-width:1.0;" x1="250" x2="403" y1="343.5" y2="343.5"/><line style="stroke:#000000;stroke-width:1.0;" x1="485" x2="575" y1="375.4375" y2="375.4375"/><line style="stroke:#000000;stroke-width:1.0;" x1="403" x2="485" y1="343.5" y2="343.5"/><line style="stroke:#000000;stroke-width:1.0;" x1="575" x2="619" y1="375.4375" y2="375.4375"/><line style="stroke:#000000;stroke-width:1.0;" x1="485" x2="575" y1="343.5" y2="343.5"/><line style="stroke:#000000;stroke-width:1.0;" x1="575" x2="619" y1="343.5" y2="343.5"/><line style="stroke:#000000;stroke-width:1.0;" x1="7" x2="19" y1="359.4688" y2="359.4688"/><line style="stroke:#000000;stroke-width:1.0;" x1="19" x2="201" y1="359.4688" y2="359.4688"/><line style="stroke:#000000;stroke-width:1.0;" x1="201" x2="250" y1="359.4688" y2="359.4688"/><line style="stroke:#000000;stroke-width:1.0;" x1="250" x2="403" y1="359.4688" y2="359.4688"/><line style="stroke:#000000;stroke-width:1.0;" x1="403" x2="485" y1="359.4688" y2="359.4688"/><line style="stroke:#000000;stroke-width:1.0;" x1="485" x2="575" y1="359.4688" y2="359.4688"/><line style="stroke:#000000;stroke-width:1.0;" x1="575" x2="619" y1="359.4688" y2="359.4688"/><line style="stroke:#000000;stroke-width:1.0;" x1="7" x2="19" y1="375.4375" y2="375.4375"/><line style="stroke:#000000;stroke-width:1.0;" x1="19" x2="201" y1="375.4375" y2="375.4375"/><line style="stroke:#000000;stroke-width:1.0;" x1="7" x2="7" y1="343.5" y2="359.4688"/><line style="stroke:#000000;stroke-width:1.0;" x1="19" x2="19" y1="343.5" y2="359.4688"/><line style="stroke:#000000;stroke-width:1.0;" x1="201" x2="201" y1="343.5" y2="359.4688"/><line style="stroke:#000000;stroke-width:1.0;" x1="250" x2="250" y1="343.5" y2="359.4688"/><line style="stroke:#000000;stroke-width:1.0;" x1="403" x2="403" y1="343.5" y2="359.4688"/><line style="stroke:#000000;stroke-width:1.0;" x1="485" x2="485" y1="343.5" y2="359.4688"/><line style="stroke:#000000;stroke-width:1.0;" x1="575" x2="575" y1="343.5" y2="359.4688"/><line style="stroke:#000000;stroke-width:1.0;" x1="619" x2="619" y1="343.5" y2="359.4688"/><line style="stroke:#000000;stroke-width:1.0;" x1="7" x2="7" y1="359.4688" y2="375.4375"/><line style="stroke:#000000;stroke-width:1.0;" x1="19" x2="19" y1="359.4688" y2="375.4375"/><line style="stroke:#000000;stroke-width:1.0;" x1="201" x2="201" y1="359.4688" y2="375.4375"/><line style="stroke:#000000;stroke-width:1.0;" x1="250" x2="250" y1="359.4688" y2="375.4375"/><line style="stroke:#000000;stroke-width:1.0;" x1="403" x2="403" y1="359.4688" y2="375.4375"/><line style="stroke:#000000;stroke-width:1.0;" x1="485" x2="485" y1="359.4688" y2="375.4375"/><line style="stroke:#000000;stroke-width:1.0;" x1="575" x2="575" y1="359.4688" y2="375.4375"/><line style="stroke:#000000;stroke-width:1.0;" x1="619" x2="619" y1="359.4688" y2="375.4375"/><line style="stroke:#AAAAAA;stroke-width:1.0;" x1="6" x2="833" y1="397.9063" y2="397.9063"/><line style="stroke:#AAAAAA;stroke-width:1.0;" x1="834" x2="845" y1="397.9063" y2="397.9063"/><rect fill="#EEEEEE" height="17.9688" rx="5" ry="5" style="stroke:#000000;stroke-width:2.5;" width="260" x="10.5" y="406.9063"/><text fill="#000000" font-family="sans-serif" font-size="12" lengthAdjust="spacing" textLength="200" x="40.5" y="420.0449">Fermer et retour à l'observation</text><rect fill="#EEEEEE" height="17.9688" rx="5" ry="5" style="stroke:#000000;stroke-width:2.5;" width="124" x="277.5" y="406.9063"/><text fill="#000000" font-family="sans-serif" font-size="12" lengthAdjust="spacing" textLength="88" x="295.5" y="420.0449">Saisir la vente</text></g></svg>