<?xml version="1.0" encoding="UTF-8" standalone="no"?><svg xmlns="http://www.w3.org/2000/svg" xmlns:xlink="http://www.w3.org/1999/xlink" contentScriptType="application/ecmascript" contentStyleType="text/css" height="239px" preserveAspectRatio="none" style="width:568px;height:239px;" version="1.1" viewBox="0 0 568 239" width="568px" zoomAndPan="magnify"><defs/><g><text fill="#000000" font-family="sans-serif" font-size="12" font-weight="bold" lengthAdjust="spacingAndGlyphs" textLength="130" x="9" y="18.457">Composition du paquet</text><line style="stroke: #AAAAAA; stroke-width: 1.0;" x1="6" x2="549" y1="26.5938" y2="26.5938"/><line style="stroke: #AAAAAA; stroke-width: 1.0;" x1="550" x2="561" y1="26.5938" y2="26.5938"/><text fill="#000000" font-family="sans-serif" font-size="12" lengthAdjust="spacingAndGlyphs" textLength="109" x="8" y="62.6445">Nombre de paquet :</text><path d="M125,54.2813 C122.79,54.2813 121,56.0713 121,58.2813 C121,60.4913 122.79,62.2813 125,62.2813 C127.21,62.2813 129,60.4913 129,58.2813 C129,56.0713 127.21,54.2813 125,54.2813 M125,55.2813 L128,58.2813 L125,61.2813 L125,59.2813 L122,59.2813 L122,57.2813 L125,57.2813 L125,55.2813 " fill="#000000" style="stroke: ; stroke-width: 0.0; stroke-dasharray: ;"/><text fill="#000000" font-family="sans-serif" font-size="12" lengthAdjust="spacingAndGlyphs" textLength="0" x="139" y="63.6445"/><line style="stroke: #000000; stroke-width: 1.0;" x1="134" x2="225" y1="66.2813" y2="66.2813"/><line style="stroke: #000000; stroke-width: 1.0;" x1="134" x2="134" y1="63.2813" y2="65.2813"/><line style="stroke: #000000; stroke-width: 1.0;" x1="225" x2="225" y1="63.2813" y2="65.2813"/><line style="stroke: #000000; stroke-width: 1.0;" x1="132" x2="228" y1="50.1875" y2="50.1875"/><line style="stroke: #000000; stroke-width: 1.0;" x1="132" x2="228" y1="69.2813" y2="69.2813"/><line style="stroke: #000000; stroke-width: 1.0;" x1="132" x2="132" y1="50.1875" y2="69.2813"/><line style="stroke: #000000; stroke-width: 1.0;" x1="228" x2="228" y1="50.1875" y2="69.2813"/><path d="M231.094,50.1875 C231.034,50.1875 231,50.2215 231,50.2815 L231,58.0945 C231,58.1545 231.034,58.1885 231.094,58.1885 L237.907,58.1885 C237.967,58.1885 238.001,58.1545 238.001,58.0945 L238.001,50.2815 C238.001,50.2215 237.967,50.1875 237.907,50.1875 L231.094,50.1875 M232,51.1875 L237,51.1875 L237,53.1875 L232,53.1875 L232,51.1875 M232,54.1875 L233,54.1875 L233,55.1875 L232,55.1875 L232,54.1875 M234,54.1875 L235,54.1875 L235,55.1875 L234,55.1875 L234,54.1875 M236,54.1875 L237,54.1875 L237,57.1875 L236,57.1875 L236,54.1875 M232,56.1875 L233,56.1875 L233,57.1875 L232,57.1875 L232,56.1875 M234,56.1875 L235,56.1875 L235,57.1875 L234,57.1875 L234,56.1875 " fill="#000000" style="stroke: ; stroke-width: 0.0; stroke-dasharray: ;"/><text fill="#000000" font-family="sans-serif" font-size="12" lengthAdjust="spacingAndGlyphs" textLength="172" x="243" y="63.6445">Poids total des paquets calculé</text><text fill="#000000" font-family="sans-serif" font-size="12" lengthAdjust="spacingAndGlyphs" textLength="21" x="421" y="64.6445">484</text><line style="stroke: #000000; stroke-width: 1.0;" x1="419" x2="486" y1="67.2813" y2="67.2813"/><line style="stroke: #000000; stroke-width: 1.0;" x1="419" x2="419" y1="64.2813" y2="66.2813"/><line style="stroke: #000000; stroke-width: 1.0;" x1="486" x2="486" y1="64.2813" y2="66.2813"/><line style="stroke: #000000; stroke-width: 1.0;" x1="417" x2="489" y1="51.1875" y2="51.1875"/><line style="stroke: #000000; stroke-width: 1.0;" x1="417" x2="489" y1="70.2813" y2="70.2813"/><line style="stroke: #000000; stroke-width: 1.0;" x1="417" x2="417" y1="51.1875" y2="70.2813"/><line style="stroke: #000000; stroke-width: 1.0;" x1="489" x2="489" y1="51.1875" y2="70.2813"/><line style="stroke: #AAAAAA; stroke-width: 1.0; stroke-dasharray: 1.0,2.0;" x1="7" x2="548" y1="77.7813" y2="77.7813"/><text fill="#000000" font-family="sans-serif" font-size="12" lengthAdjust="spacingAndGlyphs" textLength="132" x="8" y="95.7383">Poids de l'échantillon    :</text><text fill="#000000" font-family="sans-serif" font-size="12" lengthAdjust="spacingAndGlyphs" textLength="21" x="146" y="96.7383">160</text><line style="stroke: #000000; stroke-width: 1.0;" x1="144" x2="195" y1="99.375" y2="99.375"/><line style="stroke: #000000; stroke-width: 1.0;" x1="144" x2="144" y1="96.375" y2="98.375"/><line style="stroke: #000000; stroke-width: 1.0;" x1="195" x2="195" y1="96.375" y2="98.375"/><line style="stroke: #000000; stroke-width: 1.0;" x1="142" x2="198" y1="83.2813" y2="83.2813"/><line style="stroke: #000000; stroke-width: 1.0;" x1="142" x2="198" y1="102.375" y2="102.375"/><line style="stroke: #000000; stroke-width: 1.0;" x1="142" x2="142" y1="83.2813" y2="102.375"/><line style="stroke: #000000; stroke-width: 1.0;" x1="198" x2="198" y1="83.2813" y2="102.375"/><text fill="#000000" font-family="sans-serif" font-size="12" lengthAdjust="spacingAndGlyphs" textLength="14" x="204" y="96.7383">59</text><line style="stroke: #000000; stroke-width: 1.0;" x1="202" x2="253" y1="99.375" y2="99.375"/><line style="stroke: #000000; stroke-width: 1.0;" x1="202" x2="202" y1="96.375" y2="98.375"/><line style="stroke: #000000; stroke-width: 1.0;" x1="253" x2="253" y1="96.375" y2="98.375"/><line style="stroke: #000000; stroke-width: 1.0;" x1="200" x2="256" y1="83.2813" y2="83.2813"/><line style="stroke: #000000; stroke-width: 1.0;" x1="200" x2="256" y1="102.375" y2="102.375"/><line style="stroke: #000000; stroke-width: 1.0;" x1="200" x2="200" y1="83.2813" y2="102.375"/><line style="stroke: #000000; stroke-width: 1.0;" x1="256" x2="256" y1="83.2813" y2="102.375"/><text fill="#000000" font-family="sans-serif" font-size="12" lengthAdjust="spacingAndGlyphs" textLength="14" x="262" y="96.7383">70</text><line style="stroke: #000000; stroke-width: 1.0;" x1="260" x2="311" y1="99.375" y2="99.375"/><line style="stroke: #000000; stroke-width: 1.0;" x1="260" x2="260" y1="96.375" y2="98.375"/><line style="stroke: #000000; stroke-width: 1.0;" x1="311" x2="311" y1="96.375" y2="98.375"/><line style="stroke: #000000; stroke-width: 1.0;" x1="258" x2="314" y1="83.2813" y2="83.2813"/><line style="stroke: #000000; stroke-width: 1.0;" x1="258" x2="314" y1="102.375" y2="102.375"/><line style="stroke: #000000; stroke-width: 1.0;" x1="258" x2="258" y1="83.2813" y2="102.375"/><line style="stroke: #000000; stroke-width: 1.0;" x1="314" x2="314" y1="83.2813" y2="102.375"/><text fill="#000000" font-family="sans-serif" font-size="12" lengthAdjust="spacingAndGlyphs" textLength="21" x="320" y="96.7383">136</text><line style="stroke: #000000; stroke-width: 1.0;" x1="318" x2="369" y1="99.375" y2="99.375"/><line style="stroke: #000000; stroke-width: 1.0;" x1="318" x2="318" y1="96.375" y2="98.375"/><line style="stroke: #000000; stroke-width: 1.0;" x1="369" x2="369" y1="96.375" y2="98.375"/><line style="stroke: #000000; stroke-width: 1.0;" x1="316" x2="372" y1="83.2813" y2="83.2813"/><line style="stroke: #000000; stroke-width: 1.0;" x1="316" x2="372" y1="102.375" y2="102.375"/><line style="stroke: #000000; stroke-width: 1.0;" x1="316" x2="316" y1="83.2813" y2="102.375"/><line style="stroke: #000000; stroke-width: 1.0;" x1="372" x2="372" y1="83.2813" y2="102.375"/><text fill="#000000" font-family="sans-serif" font-size="12" lengthAdjust="spacingAndGlyphs" textLength="14" x="378" y="96.7383">59</text><line style="stroke: #000000; stroke-width: 1.0;" x1="376" x2="427" y1="99.375" y2="99.375"/><line style="stroke: #000000; stroke-width: 1.0;" x1="376" x2="376" y1="96.375" y2="98.375"/><line style="stroke: #000000; stroke-width: 1.0;" x1="427" x2="427" y1="96.375" y2="98.375"/><line style="stroke: #000000; stroke-width: 1.0;" x1="374" x2="430" y1="83.2813" y2="83.2813"/><line style="stroke: #000000; stroke-width: 1.0;" x1="374" x2="430" y1="102.375" y2="102.375"/><line style="stroke: #000000; stroke-width: 1.0;" x1="374" x2="374" y1="83.2813" y2="102.375"/><line style="stroke: #000000; stroke-width: 1.0;" x1="430" x2="430" y1="83.2813" y2="102.375"/><text fill="#000000" font-family="sans-serif" font-size="12" lengthAdjust="spacingAndGlyphs" textLength="0" x="439" y="96.7383"/><line style="stroke: #000000; stroke-width: 1.0;" x1="434" x2="485" y1="99.375" y2="99.375"/><line style="stroke: #000000; stroke-width: 1.0;" x1="434" x2="434" y1="96.375" y2="98.375"/><line style="stroke: #000000; stroke-width: 1.0;" x1="485" x2="485" y1="96.375" y2="98.375"/><line style="stroke: #000000; stroke-width: 1.0;" x1="432" x2="488" y1="83.2813" y2="83.2813"/><line style="stroke: #000000; stroke-width: 1.0;" x1="432" x2="488" y1="102.375" y2="102.375"/><line style="stroke: #000000; stroke-width: 1.0;" x1="432" x2="432" y1="83.2813" y2="102.375"/><line style="stroke: #000000; stroke-width: 1.0;" x1="488" x2="488" y1="83.2813" y2="102.375"/><rect fill="#EEEEEE" height="12" rx="5" ry="5" style="stroke: #000000; stroke-width: 2.5;" width="20" x="10.5" y="108.875"/><path d="M19.5,110.875 L19.5,113.875 L16.5,113.875 L16.5,115.875 L19.5,115.875 L19.5,118.875 L21.5,118.875 L21.5,115.875 L24.5,115.875 L24.5,113.875 L21.5,113.875 L21.5,110.875 L19.5,110.875 " fill="#000000" style="stroke: ; stroke-width: 0.0; stroke-dasharray: ;"/><rect fill="#EEEEEE" height="12" rx="5" ry="5" style="stroke: #000000; stroke-width: 2.5;" width="20" x="37.5" y="108.875"/><path d="M43.5,113.875 L43.5,115.875 L51.5,115.875 L51.5,113.875 L43.5,113.875 " fill="#000000" style="stroke: ; stroke-width: 0.0; stroke-dasharray: ;"/><text fill="#000000" font-family="sans-serif" font-size="12" lengthAdjust="spacingAndGlyphs" textLength="7" x="8" y="139.832">#</text><text fill="#000000" font-family="sans-serif" font-size="12" font-weight="bold" lengthAdjust="spacingAndGlyphs" textLength="125" x="17" y="139.832">Espèce commerciale*</text><text fill="#000000" font-family="sans-serif" font-size="12" font-weight="bold" lengthAdjust="spacingAndGlyphs" textLength="55" x="144" y="139.832">% (Σ=100)</text><text fill="#000000" font-family="sans-serif" font-size="12" font-weight="bold" lengthAdjust="spacingAndGlyphs" textLength="55" x="201" y="139.832">% (Σ=100)</text><text fill="#000000" font-family="sans-serif" font-size="12" font-weight="bold" lengthAdjust="spacingAndGlyphs" textLength="55" x="258" y="139.832">% (Σ=100)</text><text fill="#000000" font-family="sans-serif" font-size="12" font-weight="bold" lengthAdjust="spacingAndGlyphs" textLength="55" x="315" y="139.832">% (Σ=100)</text><text fill="#000000" font-family="sans-serif" font-size="12" font-weight="bold" lengthAdjust="spacingAndGlyphs" textLength="55" x="372" y="139.832">% (Σ=100)</text><text fill="#000000" font-family="sans-serif" font-size="12" lengthAdjust="spacingAndGlyphs" textLength="11" x="429" y="139.832">%</text><text fill="#000000" font-family="sans-serif" font-size="12" lengthAdjust="spacingAndGlyphs" textLength="61" x="485" y="139.832">Poids (kg)*</text><text fill="#000000" font-family="sans-serif" font-size="12" lengthAdjust="spacingAndGlyphs" textLength="7" x="8" y="156.9258">1</text><text fill="#000000" font-family="sans-serif" font-size="12" lengthAdjust="spacingAndGlyphs" textLength="41" x="17" y="156.9258">Albakor</text><text fill="#000000" font-family="sans-serif" font-size="12" lengthAdjust="spacingAndGlyphs" textLength="14" x="144" y="156.9258">90</text><text fill="#000000" font-family="sans-serif" font-size="12" lengthAdjust="spacingAndGlyphs" textLength="14" x="201" y="156.9258">50</text><text fill="#000000" font-family="sans-serif" font-size="12" lengthAdjust="spacingAndGlyphs" textLength="14" x="258" y="156.9258">35</text><text fill="#000000" font-family="sans-serif" font-size="12" lengthAdjust="spacingAndGlyphs" textLength="14" x="315" y="156.9258">49</text><text fill="#000000" font-family="sans-serif" font-size="12" lengthAdjust="spacingAndGlyphs" textLength="14" x="372" y="156.9258">25</text><text fill="#000000" font-family="sans-serif" font-size="12" lengthAdjust="spacingAndGlyphs" textLength="0" x="435" y="156.9258"/><line style="stroke: #000000; stroke-width: 1.0;" x1="430" x2="481" y1="159.5625" y2="159.5625"/><line style="stroke: #000000; stroke-width: 1.0;" x1="430" x2="430" y1="156.5625" y2="158.5625"/><line style="stroke: #000000; stroke-width: 1.0;" x1="481" x2="481" y1="156.5625" y2="158.5625"/><text fill="#000000" font-family="sans-serif" font-size="12" font-weight="bold" lengthAdjust="spacingAndGlyphs" textLength="38" x="485" y="156.9258">241.03</text><text fill="#000000" font-family="sans-serif" font-size="12" lengthAdjust="spacingAndGlyphs" textLength="7" x="8" y="176.0195">2</text><text fill="#000000" font-family="sans-serif" font-size="12" lengthAdjust="spacingAndGlyphs" textLength="69" x="17" y="176.0195">Anba lasann</text><text fill="#000000" font-family="sans-serif" font-size="12" lengthAdjust="spacingAndGlyphs" textLength="14" x="144" y="176.0195">10</text><text fill="#000000" font-family="sans-serif" font-size="12" lengthAdjust="spacingAndGlyphs" textLength="14" x="201" y="176.0195">50</text><text fill="#000000" font-family="sans-serif" font-size="12" lengthAdjust="spacingAndGlyphs" textLength="14" x="258" y="176.0195">65</text><text fill="#000000" font-family="sans-serif" font-size="12" lengthAdjust="spacingAndGlyphs" textLength="14" x="315" y="176.0195">51</text><text fill="#000000" font-family="sans-serif" font-size="12" lengthAdjust="spacingAndGlyphs" textLength="14" x="372" y="176.0195">75</text><text fill="#000000" font-family="sans-serif" font-size="12" lengthAdjust="spacingAndGlyphs" textLength="0" x="435" y="176.0195"/><line style="stroke: #000000; stroke-width: 1.0;" x1="430" x2="481" y1="178.6563" y2="178.6563"/><line style="stroke: #000000; stroke-width: 1.0;" x1="430" x2="430" y1="175.6563" y2="177.6563"/><line style="stroke: #000000; stroke-width: 1.0;" x1="481" x2="481" y1="175.6563" y2="177.6563"/><text fill="#0000FF" font-family="sans-serif" font-size="12" font-style="italic" lengthAdjust="spacingAndGlyphs" textLength="38" x="485" y="176.0195">242.97</text><line style="stroke: #000000; stroke-width: 1.0;" x1="7" x2="16" y1="126.375" y2="126.375"/><line style="stroke: #000000; stroke-width: 1.0;" x1="16" x2="143" y1="126.375" y2="126.375"/><line style="stroke: #000000; stroke-width: 1.0;" x1="143" x2="200" y1="126.375" y2="126.375"/><line style="stroke: #000000; stroke-width: 1.0;" x1="200" x2="257" y1="126.375" y2="126.375"/><line style="stroke: #000000; stroke-width: 1.0;" x1="257" x2="314" y1="126.375" y2="126.375"/><line style="stroke: #000000; stroke-width: 1.0;" x1="314" x2="371" y1="126.375" y2="126.375"/><line style="stroke: #000000; stroke-width: 1.0;" x1="371" x2="428" y1="126.375" y2="126.375"/><line style="stroke: #000000; stroke-width: 1.0;" x1="428" x2="484" y1="126.375" y2="126.375"/><line style="stroke: #000000; stroke-width: 1.0;" x1="484" x2="547" y1="126.375" y2="126.375"/><line style="stroke: #000000; stroke-width: 1.0;" x1="7" x2="16" y1="181.6563" y2="181.6563"/><line style="stroke: #000000; stroke-width: 1.0;" x1="16" x2="143" y1="181.6563" y2="181.6563"/><line style="stroke: #000000; stroke-width: 1.0;" x1="143" x2="200" y1="181.6563" y2="181.6563"/><line style="stroke: #000000; stroke-width: 1.0;" x1="200" x2="257" y1="181.6563" y2="181.6563"/><line style="stroke: #000000; stroke-width: 1.0;" x1="257" x2="314" y1="181.6563" y2="181.6563"/><line style="stroke: #000000; stroke-width: 1.0;" x1="314" x2="371" y1="181.6563" y2="181.6563"/><line style="stroke: #000000; stroke-width: 1.0;" x1="371" x2="428" y1="181.6563" y2="181.6563"/><line style="stroke: #000000; stroke-width: 1.0;" x1="428" x2="484" y1="181.6563" y2="181.6563"/><line style="stroke: #000000; stroke-width: 1.0;" x1="484" x2="547" y1="181.6563" y2="181.6563"/><line style="stroke: #000000; stroke-width: 1.0;" x1="7" x2="16" y1="162.5625" y2="162.5625"/><line style="stroke: #000000; stroke-width: 1.0;" x1="16" x2="143" y1="162.5625" y2="162.5625"/><line style="stroke: #000000; stroke-width: 1.0;" x1="143" x2="200" y1="162.5625" y2="162.5625"/><line style="stroke: #000000; stroke-width: 1.0;" x1="200" x2="257" y1="162.5625" y2="162.5625"/><line style="stroke: #000000; stroke-width: 1.0;" x1="257" x2="314" y1="162.5625" y2="162.5625"/><line style="stroke: #000000; stroke-width: 1.0;" x1="314" x2="371" y1="162.5625" y2="162.5625"/><line style="stroke: #000000; stroke-width: 1.0;" x1="371" x2="428" y1="162.5625" y2="162.5625"/><line style="stroke: #000000; stroke-width: 1.0;" x1="428" x2="484" y1="162.5625" y2="162.5625"/><line style="stroke: #000000; stroke-width: 1.0;" x1="484" x2="547" y1="162.5625" y2="162.5625"/><line style="stroke: #000000; stroke-width: 1.0;" x1="7" x2="16" y1="143.4688" y2="143.4688"/><line style="stroke: #000000; stroke-width: 1.0;" x1="16" x2="143" y1="143.4688" y2="143.4688"/><line style="stroke: #000000; stroke-width: 1.0;" x1="143" x2="200" y1="143.4688" y2="143.4688"/><line style="stroke: #000000; stroke-width: 1.0;" x1="200" x2="257" y1="143.4688" y2="143.4688"/><line style="stroke: #000000; stroke-width: 1.0;" x1="257" x2="314" y1="143.4688" y2="143.4688"/><line style="stroke: #000000; stroke-width: 1.0;" x1="314" x2="371" y1="143.4688" y2="143.4688"/><line style="stroke: #000000; stroke-width: 1.0;" x1="371" x2="428" y1="143.4688" y2="143.4688"/><line style="stroke: #000000; stroke-width: 1.0;" x1="428" x2="484" y1="143.4688" y2="143.4688"/><line style="stroke: #000000; stroke-width: 1.0;" x1="484" x2="547" y1="143.4688" y2="143.4688"/><line style="stroke: #000000; stroke-width: 1.0;" x1="7" x2="7" y1="126.375" y2="143.4688"/><line style="stroke: #000000; stroke-width: 1.0;" x1="16" x2="16" y1="126.375" y2="143.4688"/><line style="stroke: #000000; stroke-width: 1.0;" x1="143" x2="143" y1="126.375" y2="143.4688"/><line style="stroke: #000000; stroke-width: 1.0;" x1="200" x2="200" y1="126.375" y2="143.4688"/><line style="stroke: #000000; stroke-width: 1.0;" x1="257" x2="257" y1="126.375" y2="143.4688"/><line style="stroke: #000000; stroke-width: 1.0;" x1="314" x2="314" y1="126.375" y2="143.4688"/><line style="stroke: #000000; stroke-width: 1.0;" x1="371" x2="371" y1="126.375" y2="143.4688"/><line style="stroke: #000000; stroke-width: 1.0;" x1="428" x2="428" y1="126.375" y2="143.4688"/><line style="stroke: #000000; stroke-width: 1.0;" x1="484" x2="484" y1="126.375" y2="143.4688"/><line style="stroke: #000000; stroke-width: 1.0;" x1="547" x2="547" y1="126.375" y2="143.4688"/><line style="stroke: #000000; stroke-width: 1.0;" x1="7" x2="7" y1="162.5625" y2="181.6563"/><line style="stroke: #000000; stroke-width: 1.0;" x1="16" x2="16" y1="162.5625" y2="181.6563"/><line style="stroke: #000000; stroke-width: 1.0;" x1="143" x2="143" y1="162.5625" y2="181.6563"/><line style="stroke: #000000; stroke-width: 1.0;" x1="200" x2="200" y1="162.5625" y2="181.6563"/><line style="stroke: #000000; stroke-width: 1.0;" x1="257" x2="257" y1="162.5625" y2="181.6563"/><line style="stroke: #000000; stroke-width: 1.0;" x1="314" x2="314" y1="162.5625" y2="181.6563"/><line style="stroke: #000000; stroke-width: 1.0;" x1="371" x2="371" y1="162.5625" y2="181.6563"/><line style="stroke: #000000; stroke-width: 1.0;" x1="428" x2="428" y1="162.5625" y2="181.6563"/><line style="stroke: #000000; stroke-width: 1.0;" x1="484" x2="484" y1="162.5625" y2="181.6563"/><line style="stroke: #000000; stroke-width: 1.0;" x1="547" x2="547" y1="162.5625" y2="181.6563"/><line style="stroke: #000000; stroke-width: 1.0;" x1="7" x2="7" y1="143.4688" y2="162.5625"/><line style="stroke: #000000; stroke-width: 1.0;" x1="16" x2="16" y1="143.4688" y2="162.5625"/><line style="stroke: #000000; stroke-width: 1.0;" x1="143" x2="143" y1="143.4688" y2="162.5625"/><line style="stroke: #000000; stroke-width: 1.0;" x1="200" x2="200" y1="143.4688" y2="162.5625"/><line style="stroke: #000000; stroke-width: 1.0;" x1="257" x2="257" y1="143.4688" y2="162.5625"/><line style="stroke: #000000; stroke-width: 1.0;" x1="314" x2="314" y1="143.4688" y2="162.5625"/><line style="stroke: #000000; stroke-width: 1.0;" x1="371" x2="371" y1="143.4688" y2="162.5625"/><line style="stroke: #000000; stroke-width: 1.0;" x1="428" x2="428" y1="143.4688" y2="162.5625"/><line style="stroke: #000000; stroke-width: 1.0;" x1="484" x2="484" y1="143.4688" y2="162.5625"/><line style="stroke: #000000; stroke-width: 1.0;" x1="547" x2="547" y1="143.4688" y2="162.5625"/><line style="stroke: #AAAAAA; stroke-width: 1.0;" x1="6" x2="549" y1="205.25" y2="205.25"/><line style="stroke: #AAAAAA; stroke-width: 1.0;" x1="550" x2="561" y1="205.25" y2="205.25"/><rect fill="#EEEEEE" height="19.0938" rx="5" ry="5" style="stroke: #000000; stroke-width: 2.5;" width="52" x="10.5" y="214.25"/><text fill="#000000" font-family="sans-serif" font-size="12" lengthAdjust="spacingAndGlyphs" textLength="40" x="16.5" y="228.707">Fermer</text><rect fill="#EEEEEE" height="19.0938" rx="5" ry="5" style="stroke: #000000; stroke-width: 2.5;" width="76" x="69.5" y="214.25"/><text fill="#000000" font-family="sans-serif" font-size="12" lengthAdjust="spacingAndGlyphs" textLength="55" x="80" y="228.707">Confirmer</text></g></svg>