<?xml version="1.0" encoding="UTF-8" standalone="no"?><svg xmlns="http://www.w3.org/2000/svg" xmlns:xlink="http://www.w3.org/1999/xlink" contentScriptType="application/ecmascript" contentStyleType="text/css" height="459px" preserveAspectRatio="none" style="width:565px;height:459px;" version="1.1" viewBox="0 0 565 459" width="565px" zoomAndPan="magnify"><defs/><g><text fill="#000000" font-family="sans-serif" font-size="12" font-weight="bold" lengthAdjust="spacingAndGlyphs" textLength="135" x="6" y="18.457">Nouveau débarquement</text><line style="stroke: #AAAAAA; stroke-width: 1.0; stroke-dasharray: 1.0,2.0;" x1="6" x2="372" y1="26.5938" y2="26.5938"/><text fill="#000000" font-family="sans-serif" font-size="12" font-weight="bold" lengthAdjust="spacingAndGlyphs" textLength="66" x="8" y="43.5508">General trip</text><line style="stroke: #000000; stroke-width: 1.0;" x1="6" x2="6" y1="31.0938" y2="46.1875"/><line style="stroke: #000000; stroke-width: 1.0;" x1="6" x2="77" y1="31.0938" y2="31.0938"/><line style="stroke: #000000; stroke-width: 1.0;" x1="77" x2="77" y1="31.0938" y2="46.1875"/><line style="stroke: #000000; stroke-width: 1.0;" x1="77" x2="87" y1="46.1875" y2="46.1875"/><text fill="#000000" font-family="sans-serif" font-size="12" lengthAdjust="spacingAndGlyphs" textLength="28" x="89" y="43.5508">Effort</text><line style="stroke: #000000; stroke-width: 1.0;" x1="87" x2="87" y1="31.0938" y2="46.1875"/><line style="stroke: #000000; stroke-width: 1.0;" x1="87" x2="120" y1="31.0938" y2="31.0938"/><line style="stroke: #000000; stroke-width: 1.0;" x1="120" x2="120" y1="31.0938" y2="46.1875"/><line style="stroke: #000000; stroke-width: 1.0;" x1="120" x2="130" y1="46.1875" y2="46.1875"/><text fill="#000000" font-family="sans-serif" font-size="12" lengthAdjust="spacingAndGlyphs" textLength="107" x="132" y="43.5508">Capture débarquée</text><line style="stroke: #000000; stroke-width: 1.0;" x1="130" x2="130" y1="31.0938" y2="46.1875"/><line style="stroke: #000000; stroke-width: 1.0;" x1="130" x2="242" y1="31.0938" y2="31.0938"/><line style="stroke: #000000; stroke-width: 1.0;" x1="242" x2="242" y1="31.0938" y2="46.1875"/><line style="stroke: #000000; stroke-width: 1.0;" x1="242" x2="252" y1="46.1875" y2="46.1875"/><text fill="#000000" font-family="sans-serif" font-size="12" lengthAdjust="spacingAndGlyphs" textLength="31" x="254" y="43.5508">Vente</text><line style="stroke: #000000; stroke-width: 1.0;" x1="252" x2="252" y1="31.0938" y2="46.1875"/><line style="stroke: #000000; stroke-width: 1.0;" x1="252" x2="288" y1="31.0938" y2="31.0938"/><line style="stroke: #000000; stroke-width: 1.0;" x1="288" x2="288" y1="31.0938" y2="46.1875"/><line style="stroke: #000000; stroke-width: 1.0;" x1="288" x2="298" y1="46.1875" y2="46.1875"/><text fill="#000000" font-family="sans-serif" font-size="12" lengthAdjust="spacingAndGlyphs" textLength="58" x="300" y="43.5508">Dépenses</text><line style="stroke: #000000; stroke-width: 1.0;" x1="298" x2="298" y1="31.0938" y2="46.1875"/><line style="stroke: #000000; stroke-width: 1.0;" x1="298" x2="361" y1="31.0938" y2="31.0938"/><line style="stroke: #000000; stroke-width: 1.0;" x1="361" x2="361" y1="31.0938" y2="46.1875"/><line style="stroke: #000000; stroke-width: 1.0;" x1="361" x2="371" y1="46.1875" y2="46.1875"/><text fill="#000000" font-family="sans-serif" font-size="12" lengthAdjust="spacingAndGlyphs" textLength="131" x="6" y="77.7383">Programme de collecte:</text><rect fill="#EEEEEE" height="18.0938" style="stroke: #000000; stroke-width: 1.0;" width="95" x="374" y="66.2813"/><text fill="#000000" font-family="sans-serif" font-size="12" lengthAdjust="spacingAndGlyphs" textLength="74" x="376" y="80.7383">SIH-OBSDEB</text><line style="stroke: #000000; stroke-width: 1.0;" x1="458" x2="458" y1="66.2813" y2="84.375"/><polygon fill="#000000" points="461,72.2813,467,72.2813,464,79.375" style="stroke: #000000; stroke-width: 1.0;"/><text fill="#000000" font-family="sans-serif" font-size="12" lengthAdjust="spacingAndGlyphs" textLength="38" x="6" y="100.832">Navire:</text><rect fill="#EEEEEE" height="18.0938" style="stroke: #000000; stroke-width: 1.0;" width="95" x="374" y="89.375"/><text fill="#000000" font-family="sans-serif" font-size="12" lengthAdjust="spacingAndGlyphs" textLength="72" x="376" y="103.832">FRA0001114</text><line style="stroke: #000000; stroke-width: 1.0;" x1="458" x2="458" y1="89.375" y2="107.4688"/><polygon fill="#000000" points="461,95.375,467,95.375,464,102.4688" style="stroke: #000000; stroke-width: 1.0;"/><path d="M476,89.375 L476,92.375 L473,92.375 L473,94.375 L476,94.375 L476,97.375 L478,97.375 L478,94.375 L481,94.375 L481,92.375 L478,92.375 L478,89.375 L476,89.375 " fill="#000000" style="stroke: ; stroke-width: 0.0; stroke-dasharray: ;"/><text fill="#000000" font-family="sans-serif" font-size="12" lengthAdjust="spacingAndGlyphs" textLength="202" x="6" y="123.9258">Lieu de débarquement de la marée*:</text><rect fill="#EEEEEE" height="18.0938" style="stroke: #000000; stroke-width: 1.0;" width="143" x="374" y="112.4688"/><text fill="#000000" font-family="sans-serif" font-size="12" lengthAdjust="spacingAndGlyphs" textLength="93" x="376" y="126.9258">MA - Mahé Island</text><line style="stroke: #000000; stroke-width: 1.0;" x1="506" x2="506" y1="112.4688" y2="130.5625"/><polygon fill="#000000" points="509,118.4688,515,118.4688,512,125.5625" style="stroke: #000000; stroke-width: 1.0;"/><text fill="#000000" font-family="sans-serif" font-size="12" lengthAdjust="spacingAndGlyphs" textLength="156" x="6" y="147.0195">Date/Heure début de marée:</text><rect fill="#EEEEEE" height="18.0938" style="stroke: #000000; stroke-width: 1.0;" width="95" x="374" y="135.5625"/><text fill="#000000" font-family="sans-serif" font-size="12" lengthAdjust="spacingAndGlyphs" textLength="62" x="376" y="150.0195">01/02/2019</text><line style="stroke: #000000; stroke-width: 1.0;" x1="458" x2="458" y1="135.5625" y2="153.6563"/><polygon fill="#000000" points="461,141.5625,467,141.5625,464,148.6563" style="stroke: #000000; stroke-width: 1.0;"/><rect fill="#EEEEEE" height="18.0938" style="stroke: #000000; stroke-width: 1.0;" width="55" x="472" y="135.5625"/><text fill="#000000" font-family="sans-serif" font-size="12" lengthAdjust="spacingAndGlyphs" textLength="31" x="474" y="150.0195">00:00</text><line style="stroke: #000000; stroke-width: 1.0;" x1="516" x2="516" y1="135.5625" y2="153.6563"/><polygon fill="#000000" points="519,141.5625,525,141.5625,522,148.6563" style="stroke: #000000; stroke-width: 1.0;"/><text fill="#000000" font-family="sans-serif" font-size="12" lengthAdjust="spacingAndGlyphs" textLength="138" x="6" y="170.1133">Date/Heure fin de marée:</text><rect fill="#EEEEEE" height="18.0938" style="stroke: #000000; stroke-width: 1.0;" width="95" x="374" y="158.6563"/><text fill="#000000" font-family="sans-serif" font-size="12" lengthAdjust="spacingAndGlyphs" textLength="62" x="376" y="173.1133">01/02/2019</text><line style="stroke: #000000; stroke-width: 1.0;" x1="458" x2="458" y1="158.6563" y2="176.75"/><polygon fill="#000000" points="461,164.6563,467,164.6563,464,171.75" style="stroke: #000000; stroke-width: 1.0;"/><rect fill="#EEEEEE" height="18.0938" style="stroke: #000000; stroke-width: 1.0;" width="55" x="472" y="158.6563"/><text fill="#000000" font-family="sans-serif" font-size="12" lengthAdjust="spacingAndGlyphs" textLength="31" x="474" y="173.1133">23:59</text><line style="stroke: #000000; stroke-width: 1.0;" x1="516" x2="516" y1="158.6563" y2="176.75"/><polygon fill="#000000" points="519,164.6563,525,164.6563,522,171.75" style="stroke: #000000; stroke-width: 1.0;"/><text fill="#000000" font-family="sans-serif" font-size="12" lengthAdjust="spacingAndGlyphs" textLength="80" x="6" y="193.207">Observateurs :</text><rect fill="#EEEEEE" height="18.0938" style="stroke: #000000; stroke-width: 1.0;" width="127" x="374" y="181.75"/><text fill="#000000" font-family="sans-serif" font-size="12" lengthAdjust="spacingAndGlyphs" textLength="84" x="376" y="196.207">Observateur #1</text><line style="stroke: #000000; stroke-width: 1.0;" x1="490" x2="490" y1="181.75" y2="199.8438"/><polygon fill="#000000" points="493,187.75,499,187.75,496,194.8438" style="stroke: #000000; stroke-width: 1.0;"/><rect fill="#EEEEEE" height="12" rx="5" ry="5" style="stroke: #000000; stroke-width: 2.5;" width="20" x="506.5" y="184.25"/><path d="M515.5,186.25 L515.5,189.25 L512.5,189.25 L512.5,191.25 L515.5,191.25 L515.5,194.25 L517.5,194.25 L517.5,191.25 L520.5,191.25 L520.5,189.25 L517.5,189.25 L517.5,186.25 L515.5,186.25 " fill="#000000" style="stroke: ; stroke-width: 0.0; stroke-dasharray: ;"/><rect fill="#EEEEEE" height="12" rx="5" ry="5" style="stroke: #000000; stroke-width: 2.5;" width="20" x="533.5" y="184.25"/><path d="M540.906,186.25 L539.5,187.656 L540.188,188.375 L541.969,190.156 L540.188,191.937 L539.5,192.656 L540.906,194.062 L541.625,193.374 L543.406,191.593 L545.187,193.374 L545.906,194.062 L547.312,192.656 L546.624,191.937 L544.843,190.156 L546.624,188.375 L547.312,187.656 L545.906,186.25 L545.187,186.938 L543.406,188.719 L541.625,186.938 L540.906,186.25 " fill="#000000" style="stroke: ; stroke-width: 0.0; stroke-dasharray: ;"/><line style="stroke: #AAAAAA; stroke-width: 1.0; stroke-dasharray: 1.0,2.0;" x1="6" x2="372" y1="207.3438" y2="207.3438"/><text fill="#000000" font-family="sans-serif" font-size="12" font-weight="bold" lengthAdjust="spacingAndGlyphs" textLength="138" x="6" y="224.3008">Autres caractéristiques:</text><text fill="#000000" font-family="sans-serif" font-size="12" lengthAdjust="spacingAndGlyphs" textLength="46" x="7" y="242.3945">Metiers :</text><rect fill="#EEEEEE" height="18.0938" style="stroke: #000000; stroke-width: 1.0;" width="87" x="56" y="248.0313"/><text fill="#000000" font-family="sans-serif" font-size="12" lengthAdjust="spacingAndGlyphs" textLength="50" x="58" y="262.4883">Metier #1</text><line style="stroke: #000000; stroke-width: 1.0;" x1="132" x2="132" y1="248.0313" y2="266.125"/><polygon fill="#000000" points="135,254.0313,141,254.0313,138,261.125" style="stroke: #000000; stroke-width: 1.0;"/><rect fill="#EEEEEE" height="12" rx="5" ry="5" style="stroke: #000000; stroke-width: 2.5;" width="20" x="148.5" y="250.5313"/><path d="M157.5,252.5313 L157.5,255.5313 L154.5,255.5313 L154.5,257.5313 L157.5,257.5313 L157.5,260.5313 L159.5,260.5313 L159.5,257.5313 L162.5,257.5313 L162.5,255.5313 L159.5,255.5313 L159.5,252.5313 L157.5,252.5313 " fill="#000000" style="stroke: ; stroke-width: 0.0; stroke-dasharray: ;"/><rect fill="#EEEEEE" height="12" rx="5" ry="5" style="stroke: #000000; stroke-width: 2.5;" width="20" x="175.5" y="250.5313"/><path d="M182.906,252.5313 L181.5,253.9373 L182.188,254.6563 L183.969,256.4373 L182.188,258.2183 L181.5,258.9373 L182.906,260.3433 L183.625,259.6553 L185.406,257.8743 L187.187,259.6553 L187.906,260.3433 L189.312,258.9373 L188.624,258.2183 L186.843,256.4373 L188.624,254.6563 L189.312,253.9373 L187.906,252.5313 L187.187,253.2193 L185.406,255.0003 L183.625,253.2193 L182.906,252.5313 " fill="#000000" style="stroke: ; stroke-width: 0.0; stroke-dasharray: ;"/><line style="stroke: #000000; stroke-width: 1.0;" x1="6" x2="54" y1="228.9375" y2="228.9375"/><line style="stroke: #000000; stroke-width: 1.0;" x1="54" x2="200" y1="228.9375" y2="228.9375"/><line style="stroke: #000000; stroke-width: 1.0;" x1="6" x2="54" y1="269.125" y2="269.125"/><line style="stroke: #000000; stroke-width: 1.0;" x1="54" x2="200" y1="269.125" y2="269.125"/><line style="stroke: #000000; stroke-width: 1.0;" x1="6" x2="6" y1="228.9375" y2="246.0313"/><line style="stroke: #000000; stroke-width: 1.0;" x1="200" x2="200" y1="246.0313" y2="269.125"/><line style="stroke: #000000; stroke-width: 1.0;" x1="200" x2="200" y1="228.9375" y2="246.0313"/><line style="stroke: #000000; stroke-width: 1.0;" x1="6" x2="6" y1="246.0313" y2="269.125"/><text fill="#000000" font-family="sans-serif" font-size="12" lengthAdjust="spacingAndGlyphs" textLength="138" x="6" y="283.582">Nombre d'homme à bord</text><text fill="#000000" font-family="sans-serif" font-size="12" lengthAdjust="spacingAndGlyphs" textLength="7" x="377" y="284.582">1</text><line style="stroke: #000000; stroke-width: 1.0;" x1="375" x2="426" y1="287.2188" y2="287.2188"/><line style="stroke: #000000; stroke-width: 1.0;" x1="375" x2="375" y1="284.2188" y2="286.2188"/><line style="stroke: #000000; stroke-width: 1.0;" x1="426" x2="426" y1="284.2188" y2="286.2188"/><text fill="#000000" font-family="sans-serif" font-size="12" lengthAdjust="spacingAndGlyphs" textLength="138" x="6" y="304.6758">Principale zone de pêche</text><rect fill="#EEEEEE" height="18.0938" style="stroke: #000000; stroke-width: 1.0;" width="159" x="374" y="293.2188"/><text fill="#000000" font-family="sans-serif" font-size="12" lengthAdjust="spacingAndGlyphs" textLength="93" x="376" y="307.6758">Valeur qualitative</text><line style="stroke: #000000; stroke-width: 1.0;" x1="522" x2="522" y1="293.2188" y2="311.3125"/><polygon fill="#000000" points="525,299.2188,531,299.2188,528,306.3125" style="stroke: #000000; stroke-width: 1.0;"/><text fill="#000000" font-family="sans-serif" font-size="12" lengthAdjust="spacingAndGlyphs" textLength="163" x="6" y="327.7695">Gradient de distance à la côte</text><rect fill="#EEEEEE" height="18.0938" style="stroke: #000000; stroke-width: 1.0;" width="159" x="374" y="316.3125"/><text fill="#000000" font-family="sans-serif" font-size="12" lengthAdjust="spacingAndGlyphs" textLength="93" x="376" y="330.7695">Valeur qualitative</text><line style="stroke: #000000; stroke-width: 1.0;" x1="522" x2="522" y1="316.3125" y2="334.4063"/><polygon fill="#000000" points="525,322.3125,531,322.3125,528,329.4063" style="stroke: #000000; stroke-width: 1.0;"/><text fill="#000000" font-family="sans-serif" font-size="12" lengthAdjust="spacingAndGlyphs" textLength="73" x="6" y="350.8633">Force du vent</text><rect fill="#EEEEEE" height="18.0938" style="stroke: #000000; stroke-width: 1.0;" width="159" x="374" y="339.4063"/><text fill="#000000" font-family="sans-serif" font-size="12" lengthAdjust="spacingAndGlyphs" textLength="93" x="376" y="353.8633">Valeur qualitative</text><line style="stroke: #000000; stroke-width: 1.0;" x1="522" x2="522" y1="339.4063" y2="357.5"/><polygon fill="#000000" points="525,345.4063,531,345.4063,528,352.5" style="stroke: #000000; stroke-width: 1.0;"/><text fill="#000000" font-family="sans-serif" font-size="12" lengthAdjust="spacingAndGlyphs" textLength="92" x="6" y="373.957">Force du courant</text><rect fill="#EEEEEE" height="18.0938" style="stroke: #000000; stroke-width: 1.0;" width="159" x="374" y="362.5"/><text fill="#000000" font-family="sans-serif" font-size="12" lengthAdjust="spacingAndGlyphs" textLength="93" x="376" y="376.957">Valeur qualitative</text><line style="stroke: #000000; stroke-width: 1.0;" x1="522" x2="522" y1="362.5" y2="380.5938"/><polygon fill="#000000" points="525,368.5,531,368.5,528,375.5938" style="stroke: #000000; stroke-width: 1.0;"/><text fill="#000000" font-family="sans-serif" font-size="12" lengthAdjust="spacingAndGlyphs" textLength="83" x="6" y="414.1445">Commentaires</text><text fill="#000000" font-family="sans-serif" font-size="12" lengthAdjust="spacingAndGlyphs" textLength="80" x="377" y="415.1445">commentaires</text><line style="stroke: #000000; stroke-width: 1.0;" x1="375" x2="530" y1="417.7813" y2="417.7813"/><line style="stroke: #000000; stroke-width: 1.0;" x1="375" x2="375" y1="414.7813" y2="416.7813"/><line style="stroke: #000000; stroke-width: 1.0;" x1="530" x2="530" y1="414.7813" y2="416.7813"/><line style="stroke: #AAAAAA; stroke-width: 1.0;" x1="6" x2="372" y1="426.2813" y2="426.2813"/><line style="stroke: #AAAAAA; stroke-width: 1.0;" x1="373" x2="558" y1="426.2813" y2="426.2813"/><rect fill="#EEEEEE" height="19.0938" rx="5" ry="5" style="stroke: #000000; stroke-width: 2.5;" width="60" x="376.5" y="434.2813"/><text fill="#000000" font-family="sans-serif" font-size="12" lengthAdjust="spacingAndGlyphs" textLength="42" x="385.5" y="448.7383">Annuler</text><rect fill="#EEEEEE" height="19.0938" rx="5" ry="5" style="stroke: #000000; stroke-width: 2.5;" width="92" x="443.5" y="434.2813"/><text fill="#000000" font-family="sans-serif" font-size="12" lengthAdjust="spacingAndGlyphs" textLength="70" x="454.5" y="448.7383">Sauvegarder</text></g></svg>