<?xml version="1.0" encoding="UTF-8" standalone="no"?><svg xmlns="http://www.w3.org/2000/svg" xmlns:xlink="http://www.w3.org/1999/xlink" contentStyleType="text/css" height="598px" preserveAspectRatio="none" style="width:873px;height:598px;background:#FFFFFF;" version="1.1" viewBox="0 0 873 598" width="873px" zoomAndPan="magnify"><defs/><g><text fill="#000000" font-family="sans-serif" font-size="12" font-weight="bold" lengthAdjust="spacing" textLength="166" x="9" y="18.8281">Echantillonage des paquets</text><rect fill="#EEEEEE" height="20.3441" rx="5" ry="5" style="stroke:#000000;stroke-width:2.5;" width="52" x="810.5" y="8.5"/><text fill="#000000" font-family="sans-serif" font-size="12" lengthAdjust="spacing" textLength="41" x="816" y="23.3281">Fermer</text><line style="stroke:#AAAAAA;stroke-width:1.0;" x1="6" x2="807" y1="36.8441" y2="36.8441"/><line style="stroke:#AAAAAA;stroke-width:1.0;" x1="808" x2="866" y1="36.8441" y2="36.8441"/><text fill="#000000" font-family="sans-serif" font-size="12" lengthAdjust="spacing" textLength="104" x="27" y="55.1722">Saisie mode rafale</text><ellipse cx="14" cy="50.5162" fill="none" rx="5" ry="5" style="stroke:#000000;stroke-width:1.5;"/><ellipse cx="14" cy="50.5162" fill="#000000" rx="2" ry="2" style="stroke:#000000;stroke-width:1.5;"/><text fill="#000000" font-family="sans-serif" font-size="12" lengthAdjust="spacing" textLength="33" x="8" y="94.8604">ID Lot</text><text fill="#000000" font-family="sans-serif" font-size="12" lengthAdjust="spacing" textLength="7" x="46" y="94.8604">2</text><line style="stroke:#000000;stroke-width:1.0;" x1="44" x2="79" y1="98.3765" y2="98.3765"/><line style="stroke:#000000;stroke-width:1.0;" x1="44" x2="44" y1="95.3765" y2="97.3765"/><line style="stroke:#000000;stroke-width:1.0;" x1="79" x2="79" y1="95.3765" y2="97.3765"/><text fill="#000000" font-family="sans-serif" font-size="12" lengthAdjust="spacing" textLength="111" x="83" y="94.8604">Nombre de paquet :</text><text fill="#0000FF" font-family="sans-serif" font-size="12" font-style="italic" lengthAdjust="spacing" textLength="14" x="200" y="95.8604">55</text><line style="stroke:#000000;stroke-width:1.0;" x1="198" x2="225" y1="99.3765" y2="99.3765"/><line style="stroke:#000000;stroke-width:1.0;" x1="198" x2="198" y1="96.3765" y2="98.3765"/><line style="stroke:#000000;stroke-width:1.0;" x1="225" x2="225" y1="96.3765" y2="98.3765"/><text fill="#000000" font-family="sans-serif" font-size="12" lengthAdjust="spacing" textLength="171" x="231" y="95.8604">Poids total des paquets calculé</text><text fill="#0000FF" font-family="sans-serif" font-size="12" font-style="italic" lengthAdjust="spacing" textLength="38" x="408" y="96.8604">527,10</text><line style="stroke:#000000;stroke-width:1.0;" x1="406" x2="457" y1="100.3765" y2="100.3765"/><line style="stroke:#000000;stroke-width:1.0;" x1="406" x2="406" y1="97.3765" y2="99.3765"/><line style="stroke:#000000;stroke-width:1.0;" x1="457" x2="457" y1="97.3765" y2="99.3765"/><text fill="#000000" font-family="sans-serif" font-size="12" lengthAdjust="spacing" textLength="154" x="8" y="121.2045">Nombre d'échantillon saisi :</text><text fill="#0000FF" font-family="sans-serif" font-size="12" font-style="italic" lengthAdjust="spacing" textLength="7" x="168" y="122.2045">6</text><line style="stroke:#000000;stroke-width:1.0;" x1="166" x2="177" y1="125.7206" y2="125.7206"/><line style="stroke:#000000;stroke-width:1.0;" x1="166" x2="166" y1="122.7206" y2="124.7206"/><line style="stroke:#000000;stroke-width:1.0;" x1="177" x2="177" y1="122.7206" y2="124.7206"/><text fill="#000000" font-family="sans-serif" font-size="12" font-style="italic" lengthAdjust="spacing" textLength="394" x="183" y="122.2045">Valeur s'incrémente toute seule (6=valeur maximum par defaut pour SFA)</text><line style="stroke:#AAAAAA;stroke-width:1.0;stroke-dasharray:1.0,2.0;" x1="6" x2="807" y1="154.5647" y2="154.5647"/><text fill="#000000" font-family="sans-serif" font-size="12" font-weight="bold" lengthAdjust="spacing" textLength="140" x="7" y="172.8928">Ajouter un échantillon :</text><text fill="#000000" font-family="sans-serif" font-size="12" lengthAdjust="spacing" textLength="144" x="7" y="191.2369">Poids de l'échantillon (kg):</text><text fill="#000000" font-family="sans-serif" font-size="12" lengthAdjust="spacing" textLength="14" x="435" y="192.2369">38</text><line style="stroke:#000000;stroke-width:1.0;" x1="433" x2="548" y1="195.7529" y2="195.7529"/><line style="stroke:#000000;stroke-width:1.0;" x1="433" x2="433" y1="192.7529" y2="194.7529"/><line style="stroke:#000000;stroke-width:1.0;" x1="548" x2="548" y1="192.7529" y2="194.7529"/><text fill="#000000" font-family="sans-serif" font-size="12" lengthAdjust="spacing" textLength="126" x="7" y="231.9251">Espèce commerciale*:</text><rect fill="#EEEEEE" height="19.3441" style="stroke:#000000;stroke-width:1.0;" width="119" x="432" y="220.097"/><text fill="#000000" font-family="sans-serif" font-size="12" lengthAdjust="spacing" textLength="69" x="434" y="234.9251">Anba lasann</text><line style="stroke:#000000;stroke-width:1.0;" x1="540" x2="540" y1="220.097" y2="239.4411"/><polygon fill="#000000" points="543,226.097,549,226.097,546,234.4411" style="stroke:#000000;stroke-width:1.0;"/><text fill="#000000" font-family="sans-serif" font-size="12" lengthAdjust="spacing" textLength="97" x="574" y="232.9251">Valeur par défaut</text><rect fill="none" height="10" style="stroke:#000000;stroke-width:1.5;" width="10" x="556" y="223.2691"/><text fill="#000000" font-family="sans-serif" font-size="12" lengthAdjust="spacing" textLength="62" x="7" y="256.2692">% (Σ=100) :</text><text fill="#000000" font-family="sans-serif" font-size="12" lengthAdjust="spacing" textLength="14" x="435" y="257.2692">10</text><line style="stroke:#000000;stroke-width:1.0;" x1="433" x2="516" y1="260.7853" y2="260.7853"/><line style="stroke:#000000;stroke-width:1.0;" x1="433" x2="433" y1="257.7853" y2="259.7853"/><line style="stroke:#000000;stroke-width:1.0;" x1="516" x2="516" y1="257.7853" y2="259.7853"/><rect fill="#EEEEEE" height="20.3441" rx="5" ry="5" style="stroke:#000000;stroke-width:2.5;" width="148" x="434.5" y="269.2853"/><text fill="#000000" font-family="sans-serif" font-size="12" lengthAdjust="spacing" textLength="97" x="460" y="284.1133">Ajouter (= Entrer)</text><rect fill="#EEEEEE" height="20.3441" rx="5" ry="5" style="stroke:#000000;stroke-width:2.5;" width="212" x="589.5" y="269.2853"/><text fill="#000000" font-family="sans-serif" font-size="12" lengthAdjust="spacing" textLength="143" x="624" y="284.1133">Annuler la dernière saisie</text><text fill="#000000" font-family="sans-serif" font-size="12" lengthAdjust="spacing" textLength="8" x="8" y="327.3016">#</text><text fill="#000000" font-family="sans-serif" font-size="12" font-weight="bold" lengthAdjust="spacing" textLength="89" x="18" y="327.3016">Lot de paquets</text><text fill="#000000" font-family="sans-serif" font-size="12" font-weight="bold" lengthAdjust="spacing" textLength="121" x="119" y="327.3016">Espèce commerciale</text><text fill="#000000" font-family="sans-serif" font-size="12" font-weight="bold" lengthAdjust="spacing" textLength="57" x="242" y="327.3016">% (Σ=100)</text><text fill="#000000" font-family="sans-serif" font-size="12" lengthAdjust="spacing" textLength="7" x="8" y="345.6457">2</text><text fill="#000000" font-family="sans-serif" font-size="12" lengthAdjust="spacing" textLength="99" x="18" y="345.6457">Lot 2 - 55 paquets</text><text fill="#000000" font-family="sans-serif" font-size="12" lengthAdjust="spacing" textLength="69" x="119" y="345.6457">Anba lasann</text><text fill="#000000" font-family="sans-serif" font-size="12" lengthAdjust="spacing" textLength="14" x="242" y="345.6457">10</text><path d="M305,332.8176 C304.45,332.8176 304,333.2676 304,333.8176 L303,333.8176 C302.45,333.8176 302,334.2676 302,334.8176 L309,334.8176 C309,334.2676 308.55,333.8176 308,333.8176 L307,333.8176 C307,333.2676 306.55,332.8176 306,332.8176 L305,332.8176 M303,335.8176 L303,340.6276 C303,340.7376 303.08,340.8176 303.19,340.8176 L307.82,340.8176 C307.93,340.8176 308.01,340.7376 308.01,340.6276 L308.01,335.8176 L307.01,335.8176 L307.01,339.3176 C307.01,339.5976 306.79,339.8176 306.51,339.8176 C306.23,339.8176 306.01,339.5976 306.01,339.3176 L306.01,335.8176 L305.01,335.8176 L305.01,339.3176 C305.01,339.5976 304.79,339.8176 304.51,339.8176 C304.23,339.8176 304.01,339.5976 304.01,339.3176 L304.01,335.8176 L303.01,335.8176 " fill="#000000" style="stroke:;stroke-width:0.0;stroke-dasharray:;"/><text fill="#000000" font-family="sans-serif" font-size="12" lengthAdjust="spacing" textLength="7" x="8" y="363.9898">1</text><text fill="#000000" font-family="sans-serif" font-size="12" lengthAdjust="spacing" textLength="99" x="18" y="363.9898">Lot 2 - 55 paquets</text><text fill="#000000" font-family="sans-serif" font-size="12" lengthAdjust="spacing" textLength="43" x="119" y="363.9898">Albakor</text><text fill="#000000" font-family="sans-serif" font-size="12" lengthAdjust="spacing" textLength="14" x="242" y="363.9898">90</text><path d="M305,351.1617 C304.45,351.1617 304,351.6117 304,352.1617 L303,352.1617 C302.45,352.1617 302,352.6117 302,353.1617 L309,353.1617 C309,352.6117 308.55,352.1617 308,352.1617 L307,352.1617 C307,351.6117 306.55,351.1617 306,351.1617 L305,351.1617 M303,354.1617 L303,358.9717 C303,359.0817 303.08,359.1617 303.19,359.1617 L307.82,359.1617 C307.93,359.1617 308.01,359.0817 308.01,358.9717 L308.01,354.1617 L307.01,354.1617 L307.01,357.6617 C307.01,357.9417 306.79,358.1617 306.51,358.1617 C306.23,358.1617 306.01,357.9417 306.01,357.6617 L306.01,354.1617 L305.01,354.1617 L305.01,357.6617 C305.01,357.9417 304.79,358.1617 304.51,358.1617 C304.23,358.1617 304.01,357.9417 304.01,357.6617 L304.01,354.1617 L303.01,354.1617 " fill="#000000" style="stroke:;stroke-width:0.0;stroke-dasharray:;"/><line style="stroke:#000000;stroke-width:1.0;" x1="7" x2="17" y1="313.4735" y2="313.4735"/><line style="stroke:#000000;stroke-width:1.0;" x1="118" x2="241" y1="350.1617" y2="350.1617"/><line style="stroke:#000000;stroke-width:1.0;" x1="17" x2="118" y1="313.4735" y2="313.4735"/><line style="stroke:#000000;stroke-width:1.0;" x1="241" x2="300" y1="350.1617" y2="350.1617"/><line style="stroke:#000000;stroke-width:1.0;" x1="118" x2="241" y1="313.4735" y2="313.4735"/><line style="stroke:#000000;stroke-width:1.0;" x1="300" x2="312" y1="350.1617" y2="350.1617"/><line style="stroke:#000000;stroke-width:1.0;" x1="241" x2="300" y1="313.4735" y2="313.4735"/><line style="stroke:#000000;stroke-width:1.0;" x1="300" x2="312" y1="313.4735" y2="313.4735"/><line style="stroke:#000000;stroke-width:1.0;" x1="7" x2="17" y1="368.5058" y2="368.5058"/><line style="stroke:#000000;stroke-width:1.0;" x1="17" x2="118" y1="368.5058" y2="368.5058"/><line style="stroke:#000000;stroke-width:1.0;" x1="118" x2="241" y1="368.5058" y2="368.5058"/><line style="stroke:#000000;stroke-width:1.0;" x1="7" x2="17" y1="331.8176" y2="331.8176"/><line style="stroke:#000000;stroke-width:1.0;" x1="241" x2="300" y1="368.5058" y2="368.5058"/><line style="stroke:#000000;stroke-width:1.0;" x1="17" x2="118" y1="331.8176" y2="331.8176"/><line style="stroke:#000000;stroke-width:1.0;" x1="300" x2="312" y1="368.5058" y2="368.5058"/><line style="stroke:#000000;stroke-width:1.0;" x1="118" x2="241" y1="331.8176" y2="331.8176"/><line style="stroke:#000000;stroke-width:1.0;" x1="241" x2="300" y1="331.8176" y2="331.8176"/><line style="stroke:#000000;stroke-width:1.0;" x1="300" x2="312" y1="331.8176" y2="331.8176"/><line style="stroke:#000000;stroke-width:1.0;" x1="7" x2="17" y1="350.1617" y2="350.1617"/><line style="stroke:#000000;stroke-width:1.0;" x1="17" x2="118" y1="350.1617" y2="350.1617"/><line style="stroke:#000000;stroke-width:1.0;" x1="7" x2="7" y1="313.4735" y2="331.8176"/><line style="stroke:#000000;stroke-width:1.0;" x1="118" x2="118" y1="350.1617" y2="368.5058"/><line style="stroke:#000000;stroke-width:1.0;" x1="17" x2="17" y1="313.4735" y2="331.8176"/><line style="stroke:#000000;stroke-width:1.0;" x1="241" x2="241" y1="350.1617" y2="368.5058"/><line style="stroke:#000000;stroke-width:1.0;" x1="118" x2="118" y1="313.4735" y2="331.8176"/><line style="stroke:#000000;stroke-width:1.0;" x1="300" x2="300" y1="350.1617" y2="368.5058"/><line style="stroke:#000000;stroke-width:1.0;" x1="312" x2="312" y1="350.1617" y2="368.5058"/><line style="stroke:#000000;stroke-width:1.0;" x1="241" x2="241" y1="313.4735" y2="331.8176"/><line style="stroke:#000000;stroke-width:1.0;" x1="300" x2="300" y1="313.4735" y2="331.8176"/><line style="stroke:#000000;stroke-width:1.0;" x1="312" x2="312" y1="313.4735" y2="331.8176"/><line style="stroke:#000000;stroke-width:1.0;" x1="7" x2="7" y1="331.8176" y2="350.1617"/><line style="stroke:#000000;stroke-width:1.0;" x1="17" x2="17" y1="331.8176" y2="350.1617"/><line style="stroke:#000000;stroke-width:1.0;" x1="118" x2="118" y1="331.8176" y2="350.1617"/><line style="stroke:#000000;stroke-width:1.0;" x1="241" x2="241" y1="331.8176" y2="350.1617"/><line style="stroke:#000000;stroke-width:1.0;" x1="300" x2="300" y1="331.8176" y2="350.1617"/><line style="stroke:#000000;stroke-width:1.0;" x1="312" x2="312" y1="331.8176" y2="350.1617"/><line style="stroke:#000000;stroke-width:1.0;" x1="7" x2="7" y1="350.1617" y2="368.5058"/><line style="stroke:#000000;stroke-width:1.0;" x1="17" x2="17" y1="350.1617" y2="368.5058"/><text fill="#FF0000" font-family="sans-serif" font-size="12" font-style="italic" lengthAdjust="spacing" textLength="157" x="432" y="327.3016">Si la Σ n'est pas égal à 100 %,</text><text fill="#FF0000" font-family="sans-serif" font-size="12" font-style="italic" lengthAdjust="spacing" textLength="249" x="432" y="345.6457">alors il n'est as possible de valider l'échantillon</text><rect fill="#EEEEEE" height="20.3441" rx="5" ry="5" style="stroke:#000000;stroke-width:2.5;" width="244" x="10.5" y="392.3499"/><text fill="#000000" font-family="sans-serif" font-size="12" lengthAdjust="spacing" textLength="163" x="51" y="407.178">Nouvel échantillon (= Valider)</text><rect fill="#EEEEEE" height="20.3441" rx="5" ry="5" style="stroke:#000000;stroke-width:2.5;" width="164" x="261.5" y="392.3499"/><text fill="#000000" font-family="sans-serif" font-size="12" lengthAdjust="spacing" textLength="108" x="289.5" y="407.178">Fin échantillonnage</text><line style="stroke:#000000;stroke-width:1.0;" x1="6" x2="430" y1="159.0647" y2="159.0647"/><line style="stroke:#000000;stroke-width:1.0;" x1="430" x2="806" y1="159.0647" y2="159.0647"/><line style="stroke:#000000;stroke-width:1.0;" x1="6" x2="430" y1="417.1941" y2="417.1941"/><line style="stroke:#000000;stroke-width:1.0;" x1="430" x2="806" y1="417.1941" y2="417.1941"/><line style="stroke:#000000;stroke-width:1.0;" x1="6" x2="6" y1="159.0647" y2="177.4088"/><line style="stroke:#000000;stroke-width:1.0;" x1="806" x2="806" y1="199.7529" y2="218.097"/><line style="stroke:#000000;stroke-width:1.0;" x1="806" x2="806" y1="159.0647" y2="177.4088"/><line style="stroke:#000000;stroke-width:1.0;" x1="6" x2="6" y1="387.8499" y2="417.1941"/><line style="stroke:#000000;stroke-width:1.0;" x1="6" x2="6" y1="312.4735" y2="369.5058"/><line style="stroke:#000000;stroke-width:1.0;" x1="806" x2="806" y1="387.8499" y2="417.1941"/><line style="stroke:#000000;stroke-width:1.0;" x1="6" x2="6" y1="264.7853" y2="294.1294"/><line style="stroke:#000000;stroke-width:1.0;" x1="806" x2="806" y1="312.4735" y2="369.5058"/><line style="stroke:#000000;stroke-width:1.0;" x1="6" x2="6" y1="218.097" y2="242.4411"/><line style="stroke:#000000;stroke-width:1.0;" x1="806" x2="806" y1="264.7853" y2="294.1294"/><line style="stroke:#000000;stroke-width:1.0;" x1="6" x2="6" y1="177.4088" y2="199.7529"/><line style="stroke:#000000;stroke-width:1.0;" x1="806" x2="806" y1="218.097" y2="242.4411"/><line style="stroke:#000000;stroke-width:1.0;" x1="806" x2="806" y1="177.4088" y2="199.7529"/><line style="stroke:#000000;stroke-width:1.0;" x1="6" x2="6" y1="369.5058" y2="387.8499"/><line style="stroke:#000000;stroke-width:1.0;" x1="6" x2="6" y1="294.1294" y2="312.4735"/><line style="stroke:#000000;stroke-width:1.0;" x1="806" x2="806" y1="369.5058" y2="387.8499"/><line style="stroke:#000000;stroke-width:1.0;" x1="6" x2="6" y1="242.4411" y2="264.7853"/><line style="stroke:#000000;stroke-width:1.0;" x1="806" x2="806" y1="294.1294" y2="312.4735"/><line style="stroke:#000000;stroke-width:1.0;" x1="6" x2="6" y1="199.7529" y2="218.097"/><line style="stroke:#000000;stroke-width:1.0;" x1="806" x2="806" y1="242.4411" y2="264.7853"/><line style="stroke:#AAAAAA;stroke-width:1.0;" x1="6" x2="807" y1="441.0382" y2="441.0382"/><line style="stroke:#AAAAAA;stroke-width:1.0;" x1="808" x2="866" y1="441.0382" y2="441.0382"/><text fill="#000000" font-family="sans-serif" font-size="12" font-weight="bold" lengthAdjust="spacing" textLength="312" x="7" y="477.7104">Poids estimé calculé par espèce pour le paquet (kg) :</text><text fill="#000000" font-family="sans-serif" font-size="12" lengthAdjust="spacing" textLength="8" x="8" y="497.0545">#</text><text fill="#000000" font-family="sans-serif" font-size="12" font-weight="bold" lengthAdjust="spacing" textLength="89" x="18" y="497.0545">Lot de paquets</text><text fill="#000000" font-family="sans-serif" font-size="12" font-weight="bold" lengthAdjust="spacing" textLength="128" x="119" y="497.0545">Espèce commerciale*</text><text fill="#000000" font-family="sans-serif" font-size="12" font-weight="bold" lengthAdjust="spacing" textLength="66" x="249" y="497.0545">Poids (kg)*</text><text fill="#000000" font-family="sans-serif" font-size="12" lengthAdjust="spacing" textLength="7" x="8" y="515.3986">1</text><text fill="#000000" font-family="sans-serif" font-size="12" lengthAdjust="spacing" textLength="99" x="18" y="515.3986">Lot 2 - 55 paquets</text><text fill="#000000" font-family="sans-serif" font-size="12" lengthAdjust="spacing" textLength="43" x="119" y="515.3986">Albakor</text><text fill="#0000FF" font-family="sans-serif" font-size="12" font-style="italic" lengthAdjust="spacing" textLength="38" x="249" y="515.3986">241.03</text><text fill="#000000" font-family="sans-serif" font-size="12" lengthAdjust="spacing" textLength="7" x="8" y="533.7427">2</text><text fill="#000000" font-family="sans-serif" font-size="12" lengthAdjust="spacing" textLength="99" x="18" y="533.7427">Lot 2 - 55 paquets</text><text fill="#000000" font-family="sans-serif" font-size="12" lengthAdjust="spacing" textLength="69" x="119" y="533.7427">Anba lasann</text><text fill="#0000FF" font-family="sans-serif" font-size="12" font-style="italic" lengthAdjust="spacing" textLength="38" x="249" y="533.7427">180.97</text><text fill="#000000" font-family="sans-serif" font-size="12" lengthAdjust="spacing" textLength="7" x="8" y="552.0868">3</text><text fill="#000000" font-family="sans-serif" font-size="12" lengthAdjust="spacing" textLength="99" x="18" y="552.0868">Lot 2 - 55 paquets</text><text fill="#000000" font-family="sans-serif" font-size="12" lengthAdjust="spacing" textLength="74" x="119" y="552.0868">Babonn Zonn</text><text fill="#0000FF" font-family="sans-serif" font-size="12" font-style="italic" lengthAdjust="spacing" textLength="38" x="249" y="552.0868">105.10</text><line style="stroke:#000000;stroke-width:1.0;" x1="7" x2="17" y1="483.2264" y2="483.2264"/><line style="stroke:#000000;stroke-width:1.0;" x1="118" x2="248" y1="519.9146" y2="519.9146"/><line style="stroke:#000000;stroke-width:1.0;" x1="17" x2="118" y1="483.2264" y2="483.2264"/><line style="stroke:#000000;stroke-width:1.0;" x1="248" x2="316" y1="519.9146" y2="519.9146"/><line style="stroke:#000000;stroke-width:1.0;" x1="118" x2="248" y1="483.2264" y2="483.2264"/><line style="stroke:#000000;stroke-width:1.0;" x1="248" x2="316" y1="483.2264" y2="483.2264"/><line style="stroke:#000000;stroke-width:1.0;" x1="7" x2="17" y1="538.2587" y2="538.2587"/><line style="stroke:#000000;stroke-width:1.0;" x1="17" x2="118" y1="538.2587" y2="538.2587"/><line style="stroke:#000000;stroke-width:1.0;" x1="7" x2="17" y1="501.5705" y2="501.5705"/><line style="stroke:#000000;stroke-width:1.0;" x1="118" x2="248" y1="538.2587" y2="538.2587"/><line style="stroke:#000000;stroke-width:1.0;" x1="17" x2="118" y1="501.5705" y2="501.5705"/><line style="stroke:#000000;stroke-width:1.0;" x1="248" x2="316" y1="538.2587" y2="538.2587"/><line style="stroke:#000000;stroke-width:1.0;" x1="118" x2="248" y1="501.5705" y2="501.5705"/><line style="stroke:#000000;stroke-width:1.0;" x1="248" x2="316" y1="501.5705" y2="501.5705"/><line style="stroke:#000000;stroke-width:1.0;" x1="7" x2="17" y1="556.6029" y2="556.6029"/><line style="stroke:#000000;stroke-width:1.0;" x1="17" x2="118" y1="556.6029" y2="556.6029"/><line style="stroke:#000000;stroke-width:1.0;" x1="118" x2="248" y1="556.6029" y2="556.6029"/><line style="stroke:#000000;stroke-width:1.0;" x1="7" x2="17" y1="519.9146" y2="519.9146"/><line style="stroke:#000000;stroke-width:1.0;" x1="248" x2="316" y1="556.6029" y2="556.6029"/><line style="stroke:#000000;stroke-width:1.0;" x1="17" x2="118" y1="519.9146" y2="519.9146"/><line style="stroke:#000000;stroke-width:1.0;" x1="7" x2="7" y1="483.2264" y2="501.5705"/><line style="stroke:#000000;stroke-width:1.0;" x1="118" x2="118" y1="519.9146" y2="538.2587"/><line style="stroke:#000000;stroke-width:1.0;" x1="17" x2="17" y1="483.2264" y2="501.5705"/><line style="stroke:#000000;stroke-width:1.0;" x1="248" x2="248" y1="519.9146" y2="538.2587"/><line style="stroke:#000000;stroke-width:1.0;" x1="316" x2="316" y1="519.9146" y2="538.2587"/><line style="stroke:#000000;stroke-width:1.0;" x1="118" x2="118" y1="483.2264" y2="501.5705"/><line style="stroke:#000000;stroke-width:1.0;" x1="248" x2="248" y1="483.2264" y2="501.5705"/><line style="stroke:#000000;stroke-width:1.0;" x1="316" x2="316" y1="483.2264" y2="501.5705"/><line style="stroke:#000000;stroke-width:1.0;" x1="7" x2="7" y1="538.2587" y2="556.6029"/><line style="stroke:#000000;stroke-width:1.0;" x1="17" x2="17" y1="538.2587" y2="556.6029"/><line style="stroke:#000000;stroke-width:1.0;" x1="7" x2="7" y1="501.5705" y2="519.9146"/><line style="stroke:#000000;stroke-width:1.0;" x1="118" x2="118" y1="538.2587" y2="556.6029"/><line style="stroke:#000000;stroke-width:1.0;" x1="17" x2="17" y1="501.5705" y2="519.9146"/><line style="stroke:#000000;stroke-width:1.0;" x1="248" x2="248" y1="538.2587" y2="556.6029"/><line style="stroke:#000000;stroke-width:1.0;" x1="316" x2="316" y1="538.2587" y2="556.6029"/><line style="stroke:#000000;stroke-width:1.0;" x1="118" x2="118" y1="501.5705" y2="519.9146"/><line style="stroke:#000000;stroke-width:1.0;" x1="248" x2="248" y1="501.5705" y2="519.9146"/><line style="stroke:#000000;stroke-width:1.0;" x1="316" x2="316" y1="501.5705" y2="519.9146"/><line style="stroke:#000000;stroke-width:1.0;" x1="7" x2="7" y1="519.9146" y2="538.2587"/><line style="stroke:#000000;stroke-width:1.0;" x1="17" x2="17" y1="519.9146" y2="538.2587"/><line style="stroke:#000000;stroke-width:1.0;" x1="6" x2="320" y1="463.8823" y2="463.8823"/><line style="stroke:#000000;stroke-width:1.0;" x1="6" x2="320" y1="557.6029" y2="557.6029"/><line style="stroke:#000000;stroke-width:1.0;" x1="6" x2="6" y1="463.8823" y2="482.2264"/><line style="stroke:#000000;stroke-width:1.0;" x1="320" x2="320" y1="482.2264" y2="557.6029"/><line style="stroke:#000000;stroke-width:1.0;" x1="320" x2="320" y1="463.8823" y2="482.2264"/><line style="stroke:#000000;stroke-width:1.0;" x1="6" x2="6" y1="482.2264" y2="557.6029"/><line style="stroke:#AAAAAA;stroke-width:1.0;" x1="6" x2="807" y1="563.1029" y2="563.1029"/><line style="stroke:#AAAAAA;stroke-width:1.0;" x1="808" x2="866" y1="563.1029" y2="563.1029"/><rect fill="#EEEEEE" height="20.3441" rx="5" ry="5" style="stroke:#000000;stroke-width:2.5;" width="60" x="10.5" y="572.1029"/><text fill="#000000" font-family="sans-serif" font-size="12" lengthAdjust="spacing" textLength="41" x="20" y="586.9309">Fermer</text><rect fill="#EEEEEE" height="20.3441" rx="5" ry="5" style="stroke:#000000;stroke-width:2.5;" width="92" x="77.5" y="572.1029"/><text fill="#000000" font-family="sans-serif" font-size="12" lengthAdjust="spacing" textLength="72" x="87.5" y="586.9309">Sauvegarder</text></g></svg>