<?xml version="1.0" encoding="UTF-8" standalone="no"?><svg xmlns="http://www.w3.org/2000/svg" xmlns:xlink="http://www.w3.org/1999/xlink" contentScriptType="application/ecmascript" contentStyleType="text/css" height="499px" preserveAspectRatio="none" style="width:565px;height:499px;" version="1.1" viewBox="0 0 565 499" width="565px" zoomAndPan="magnify"><defs/><g><text fill="#000000" font-family="sans-serif" font-size="12" font-weight="bold" lengthAdjust="spacingAndGlyphs" textLength="135" x="6" y="18.457">Nouveau débarquement</text><line style="stroke: #AAAAAA; stroke-width: 1.0; stroke-dasharray: 1.0,2.0;" x1="6" x2="372" y1="26.5938" y2="26.5938"/><text fill="#000000" font-family="sans-serif" font-size="12" font-weight="bold" lengthAdjust="spacingAndGlyphs" textLength="66" x="8" y="43.5508">General trip</text><line style="stroke: #000000; stroke-width: 1.0;" x1="6" x2="6" y1="31.0938" y2="46.1875"/><line style="stroke: #000000; stroke-width: 1.0;" x1="6" x2="77" y1="31.0938" y2="31.0938"/><line style="stroke: #000000; stroke-width: 1.0;" x1="77" x2="77" y1="31.0938" y2="46.1875"/><line style="stroke: #000000; stroke-width: 1.0;" x1="77" x2="87" y1="46.1875" y2="46.1875"/><text fill="#000000" font-family="sans-serif" font-size="12" lengthAdjust="spacingAndGlyphs" textLength="28" x="89" y="43.5508">Effort</text><line style="stroke: #000000; stroke-width: 1.0;" x1="87" x2="87" y1="31.0938" y2="46.1875"/><line style="stroke: #000000; stroke-width: 1.0;" x1="87" x2="120" y1="31.0938" y2="31.0938"/><line style="stroke: #000000; stroke-width: 1.0;" x1="120" x2="120" y1="31.0938" y2="46.1875"/><line style="stroke: #000000; stroke-width: 1.0;" x1="120" x2="130" y1="46.1875" y2="46.1875"/><text fill="#000000" font-family="sans-serif" font-size="12" lengthAdjust="spacingAndGlyphs" textLength="107" x="132" y="43.5508">Capture débarquée</text><line style="stroke: #000000; stroke-width: 1.0;" x1="130" x2="130" y1="31.0938" y2="46.1875"/><line style="stroke: #000000; stroke-width: 1.0;" x1="130" x2="242" y1="31.0938" y2="31.0938"/><line style="stroke: #000000; stroke-width: 1.0;" x1="242" x2="242" y1="31.0938" y2="46.1875"/><line style="stroke: #000000; stroke-width: 1.0;" x1="242" x2="252" y1="46.1875" y2="46.1875"/><text fill="#000000" font-family="sans-serif" font-size="12" lengthAdjust="spacingAndGlyphs" textLength="31" x="254" y="43.5508">Vente</text><line style="stroke: #000000; stroke-width: 1.0;" x1="252" x2="252" y1="31.0938" y2="46.1875"/><line style="stroke: #000000; stroke-width: 1.0;" x1="252" x2="288" y1="31.0938" y2="31.0938"/><line style="stroke: #000000; stroke-width: 1.0;" x1="288" x2="288" y1="31.0938" y2="46.1875"/><line style="stroke: #000000; stroke-width: 1.0;" x1="288" x2="298" y1="46.1875" y2="46.1875"/><text fill="#000000" font-family="sans-serif" font-size="12" lengthAdjust="spacingAndGlyphs" textLength="58" x="300" y="43.5508">Dépenses</text><line style="stroke: #000000; stroke-width: 1.0;" x1="298" x2="298" y1="31.0938" y2="46.1875"/><line style="stroke: #000000; stroke-width: 1.0;" x1="298" x2="361" y1="31.0938" y2="31.0938"/><line style="stroke: #000000; stroke-width: 1.0;" x1="361" x2="361" y1="31.0938" y2="46.1875"/><line style="stroke: #000000; stroke-width: 1.0;" x1="361" x2="371" y1="46.1875" y2="46.1875"/><text fill="#000000" font-family="sans-serif" font-size="12" lengthAdjust="spacingAndGlyphs" textLength="131" x="6" y="77.7383">Programme de collecte:</text><rect fill="#EEEEEE" height="18.0938" style="stroke: #000000; stroke-width: 1.0;" width="95" x="374" y="66.2813"/><text fill="#000000" font-family="sans-serif" font-size="12" lengthAdjust="spacingAndGlyphs" textLength="74" x="376" y="80.7383">SIH-OBSDEB</text><line style="stroke: #000000; stroke-width: 1.0;" x1="458" x2="458" y1="66.2813" y2="84.375"/><polygon fill="#000000" points="461,72.2813,467,72.2813,464,79.375" style="stroke: #000000; stroke-width: 1.0;"/><text fill="#000000" font-family="sans-serif" font-size="12" lengthAdjust="spacingAndGlyphs" textLength="38" x="6" y="100.832">Navire:</text><rect fill="#EEEEEE" height="18.0938" style="stroke: #000000; stroke-width: 1.0;" width="95" x="374" y="89.375"/><text fill="#000000" font-family="sans-serif" font-size="12" lengthAdjust="spacingAndGlyphs" textLength="72" x="376" y="103.832">FRA0001114</text><line style="stroke: #000000; stroke-width: 1.0;" x1="458" x2="458" y1="89.375" y2="107.4688"/><polygon fill="#000000" points="461,95.375,467,95.375,464,102.4688" style="stroke: #000000; stroke-width: 1.0;"/><path d="M476,89.375 L476,92.375 L473,92.375 L473,94.375 L476,94.375 L476,97.375 L478,97.375 L478,94.375 L481,94.375 L481,92.375 L478,92.375 L478,89.375 L476,89.375 " fill="#000000" style="stroke: ; stroke-width: 0.0; stroke-dasharray: ;"/><text fill="#000000" font-family="sans-serif" font-size="12" lengthAdjust="spacingAndGlyphs" textLength="202" x="6" y="123.9258">Lieu de débarquement de la marée*:</text><rect fill="#EEEEEE" height="18.0938" style="stroke: #000000; stroke-width: 1.0;" width="143" x="374" y="112.4688"/><text fill="#000000" font-family="sans-serif" font-size="12" lengthAdjust="spacingAndGlyphs" textLength="93" x="376" y="126.9258">MA - Mahé Island</text><line style="stroke: #000000; stroke-width: 1.0;" x1="506" x2="506" y1="112.4688" y2="130.5625"/><polygon fill="#000000" points="509,118.4688,515,118.4688,512,125.5625" style="stroke: #000000; stroke-width: 1.0;"/><text fill="#000000" font-family="sans-serif" font-size="12" lengthAdjust="spacingAndGlyphs" textLength="156" x="6" y="147.0195">Date/Heure début de marée:</text><rect fill="#EEEEEE" height="18.0938" style="stroke: #000000; stroke-width: 1.0;" width="95" x="374" y="135.5625"/><text fill="#000000" font-family="sans-serif" font-size="12" lengthAdjust="spacingAndGlyphs" textLength="62" x="376" y="150.0195">01/02/2019</text><line style="stroke: #000000; stroke-width: 1.0;" x1="458" x2="458" y1="135.5625" y2="153.6563"/><polygon fill="#000000" points="461,141.5625,467,141.5625,464,148.6563" style="stroke: #000000; stroke-width: 1.0;"/><rect fill="#EEEEEE" height="18.0938" style="stroke: #000000; stroke-width: 1.0;" width="55" x="472" y="135.5625"/><text fill="#000000" font-family="sans-serif" font-size="12" lengthAdjust="spacingAndGlyphs" textLength="31" x="474" y="150.0195">00:00</text><line style="stroke: #000000; stroke-width: 1.0;" x1="516" x2="516" y1="135.5625" y2="153.6563"/><polygon fill="#000000" points="519,141.5625,525,141.5625,522,148.6563" style="stroke: #000000; stroke-width: 1.0;"/><text fill="#000000" font-family="sans-serif" font-size="12" lengthAdjust="spacingAndGlyphs" textLength="138" x="6" y="170.1133">Date/Heure fin de marée:</text><rect fill="#EEEEEE" height="18.0938" style="stroke: #000000; stroke-width: 1.0;" width="95" x="374" y="158.6563"/><text fill="#000000" font-family="sans-serif" font-size="12" lengthAdjust="spacingAndGlyphs" textLength="62" x="376" y="173.1133">01/02/2019</text><line style="stroke: #000000; stroke-width: 1.0;" x1="458" x2="458" y1="158.6563" y2="176.75"/><polygon fill="#000000" points="461,164.6563,467,164.6563,464,171.75" style="stroke: #000000; stroke-width: 1.0;"/><rect fill="#EEEEEE" height="18.0938" style="stroke: #000000; stroke-width: 1.0;" width="55" x="472" y="158.6563"/><text fill="#000000" font-family="sans-serif" font-size="12" lengthAdjust="spacingAndGlyphs" textLength="31" x="474" y="173.1133">23:59</text><line style="stroke: #000000; stroke-width: 1.0;" x1="516" x2="516" y1="158.6563" y2="176.75"/><polygon fill="#000000" points="519,164.6563,525,164.6563,522,171.75" style="stroke: #000000; stroke-width: 1.0;"/><text fill="#000000" font-family="sans-serif" font-size="12" lengthAdjust="spacingAndGlyphs" textLength="80" x="6" y="193.207">Observateurs :</text><rect fill="#EEEEEE" height="18.0938" style="stroke: #000000; stroke-width: 1.0;" width="127" x="374" y="181.75"/><text fill="#000000" font-family="sans-serif" font-size="12" lengthAdjust="spacingAndGlyphs" textLength="84" x="376" y="196.207">Observateur #1</text><line style="stroke: #000000; stroke-width: 1.0;" x1="490" x2="490" y1="181.75" y2="199.8438"/><polygon fill="#000000" points="493,187.75,499,187.75,496,194.8438" style="stroke: #000000; stroke-width: 1.0;"/><rect fill="#EEEEEE" height="12" rx="5" ry="5" style="stroke: #000000; stroke-width: 2.5;" width="20" x="506.5" y="184.25"/><path d="M515.5,186.25 L515.5,189.25 L512.5,189.25 L512.5,191.25 L515.5,191.25 L515.5,194.25 L517.5,194.25 L517.5,191.25 L520.5,191.25 L520.5,189.25 L517.5,189.25 L517.5,186.25 L515.5,186.25 " fill="#000000" style="stroke: ; stroke-width: 0.0; stroke-dasharray: ;"/><rect fill="#EEEEEE" height="12" rx="5" ry="5" style="stroke: #000000; stroke-width: 2.5;" width="20" x="533.5" y="184.25"/><path d="M540.906,186.25 L539.5,187.656 L540.188,188.375 L541.969,190.156 L540.188,191.937 L539.5,192.656 L540.906,194.062 L541.625,193.374 L543.406,191.593 L545.187,193.374 L545.906,194.062 L547.312,192.656 L546.624,191.937 L544.843,190.156 L546.624,188.375 L547.312,187.656 L545.906,186.25 L545.187,186.938 L543.406,188.719 L541.625,186.938 L540.906,186.25 " fill="#000000" style="stroke: ; stroke-width: 0.0; stroke-dasharray: ;"/><line style="stroke: #AAAAAA; stroke-width: 1.0; stroke-dasharray: 1.0,2.0;" x1="6" x2="372" y1="207.3438" y2="207.3438"/><text fill="#000000" font-family="sans-serif" font-size="12" font-weight="bold" lengthAdjust="spacingAndGlyphs" textLength="138" x="6" y="224.3008">Autres caractéristiques:</text><text fill="#000000" font-family="sans-serif" font-size="12" lengthAdjust="spacingAndGlyphs" textLength="46" x="7" y="242.3945">Metiers :</text><path d="M13.5,249.0313 C11.573,249.0313 10,250.6043 10,252.5313 C10,254.4583 11.573,256.0313 13.5,256.0313 C14.092,256.0313 14.666,255.8863 15.156,255.6253 A1,1 0 0 0 15.281,255.7503 L16.281,256.7503 A1.016,1.016 0 1 0 17.719,255.3123 L16.719,254.3123 A1,1 0 0 0 16.563,254.1873 C16.829,253.6943 17.001,253.1283 17.001,252.5313 C17.001,250.6043 15.428,249.0313 13.501,249.0313 M13.501,250.0313 C14.888,250.0313 16.001,251.1443 16.001,252.5313 C16.001,253.1923 15.76,253.8043 15.345,254.2503 L15.314,254.2813 A1,1 0 0 0 15.189,254.4063 C14.747,254.8033 14.146,255.0313 13.501,255.0313 C12.114,255.0313 11.001,253.9183 11.001,252.5313 C11.001,251.1443 12.114,250.0313 13.501,250.0313 " fill="#000000" style="stroke: ; stroke-width: 0.0; stroke-dasharray: ;"/><text fill="#000000" font-family="sans-serif" font-size="12" lengthAdjust="spacingAndGlyphs" textLength="119" x="25" y="262.4883">Rechercher un métier</text><line style="stroke: #000000; stroke-width: 1.0;" x1="23" x2="210" y1="265.125" y2="265.125"/><line style="stroke: #000000; stroke-width: 1.0;" x1="23" x2="23" y1="262.125" y2="264.125"/><line style="stroke: #000000; stroke-width: 1.0;" x1="210" x2="210" y1="262.125" y2="264.125"/><line style="stroke: #000000; stroke-width: 1.0;" x1="21" x2="213" y1="249.0313" y2="249.0313"/><line style="stroke: #000000; stroke-width: 1.0;" x1="21" x2="213" y1="268.125" y2="268.125"/><line style="stroke: #000000; stroke-width: 1.0;" x1="21" x2="21" y1="249.0313" y2="268.125"/><line style="stroke: #000000; stroke-width: 1.0;" x1="213" x2="213" y1="249.0313" y2="268.125"/><rect fill="#DDDDDD" height="16.0938" style="stroke: #000000; stroke-width: 1.0;" width="120" x="10" y="290.2188"/><rect fill="#BBBBBB" height="15.0938" style="stroke: #000000; stroke-width: 1.0;" width="109" x="10" y="290.2188"/><text fill="#000000" font-family="sans-serif" font-size="12" lengthAdjust="spacingAndGlyphs" textLength="109" x="10" y="302.6758">Metier : Code - Nom</text><line style="stroke: #000000; stroke-width: 1.0;" x1="9" x2="130" y1="289.2188" y2="289.2188"/><line style="stroke: #000000; stroke-width: 1.0;" x1="9" x2="130" y1="306.3125" y2="306.3125"/><line style="stroke: #000000; stroke-width: 1.0;" x1="9" x2="9" y1="289.2188" y2="306.3125"/><line style="stroke: #000000; stroke-width: 1.0;" x1="130" x2="130" y1="289.2188" y2="306.3125"/><path d="M135,289.2188 L135,295.2188 L133,295.2188 L135.5,297.2188 L138,295.2188 L136,295.2188 L136,289.2188 L135,289.2188 M137,289.2188 L137,290.2188 L139,290.2188 L139,289.2188 L137,289.2188 M137,291.2188 L137,292.2188 L140,292.2188 L140,291.2188 L137,291.2188 M137,293.2188 L137,294.2188 L141,294.2188 L141,293.2188 L137,293.2188 " fill="#000000" style="stroke: ; stroke-width: 0.0; stroke-dasharray: ;"/><line style="stroke: #000000; stroke-width: 1.0;" x1="6" x2="216" y1="228.9375" y2="228.9375"/><line style="stroke: #000000; stroke-width: 1.0;" x1="6" x2="216" y1="309.3125" y2="309.3125"/><line style="stroke: #000000; stroke-width: 1.0;" x1="6" x2="6" y1="228.9375" y2="246.0313"/><line style="stroke: #000000; stroke-width: 1.0;" x1="216" x2="216" y1="246.0313" y2="309.3125"/><line style="stroke: #000000; stroke-width: 1.0;" x1="216" x2="216" y1="228.9375" y2="246.0313"/><line style="stroke: #000000; stroke-width: 1.0;" x1="6" x2="6" y1="246.0313" y2="309.3125"/><text fill="#000000" font-family="sans-serif" font-size="12" lengthAdjust="spacingAndGlyphs" textLength="138" x="6" y="323.7695">Nombre d'homme à bord</text><text fill="#000000" font-family="sans-serif" font-size="12" lengthAdjust="spacingAndGlyphs" textLength="7" x="377" y="324.7695">1</text><line style="stroke: #000000; stroke-width: 1.0;" x1="375" x2="426" y1="327.4063" y2="327.4063"/><line style="stroke: #000000; stroke-width: 1.0;" x1="375" x2="375" y1="324.4063" y2="326.4063"/><line style="stroke: #000000; stroke-width: 1.0;" x1="426" x2="426" y1="324.4063" y2="326.4063"/><text fill="#000000" font-family="sans-serif" font-size="12" lengthAdjust="spacingAndGlyphs" textLength="138" x="6" y="344.8633">Principale zone de pêche</text><rect fill="#EEEEEE" height="18.0938" style="stroke: #000000; stroke-width: 1.0;" width="159" x="374" y="333.4063"/><text fill="#000000" font-family="sans-serif" font-size="12" lengthAdjust="spacingAndGlyphs" textLength="93" x="376" y="347.8633">Valeur qualitative</text><line style="stroke: #000000; stroke-width: 1.0;" x1="522" x2="522" y1="333.4063" y2="351.5"/><polygon fill="#000000" points="525,339.4063,531,339.4063,528,346.5" style="stroke: #000000; stroke-width: 1.0;"/><text fill="#000000" font-family="sans-serif" font-size="12" lengthAdjust="spacingAndGlyphs" textLength="163" x="6" y="367.957">Gradient de distance à la côte</text><rect fill="#EEEEEE" height="18.0938" style="stroke: #000000; stroke-width: 1.0;" width="159" x="374" y="356.5"/><text fill="#000000" font-family="sans-serif" font-size="12" lengthAdjust="spacingAndGlyphs" textLength="93" x="376" y="370.957">Valeur qualitative</text><line style="stroke: #000000; stroke-width: 1.0;" x1="522" x2="522" y1="356.5" y2="374.5938"/><polygon fill="#000000" points="525,362.5,531,362.5,528,369.5938" style="stroke: #000000; stroke-width: 1.0;"/><text fill="#000000" font-family="sans-serif" font-size="12" lengthAdjust="spacingAndGlyphs" textLength="73" x="6" y="391.0508">Force du vent</text><rect fill="#EEEEEE" height="18.0938" style="stroke: #000000; stroke-width: 1.0;" width="159" x="374" y="379.5938"/><text fill="#000000" font-family="sans-serif" font-size="12" lengthAdjust="spacingAndGlyphs" textLength="93" x="376" y="394.0508">Valeur qualitative</text><line style="stroke: #000000; stroke-width: 1.0;" x1="522" x2="522" y1="379.5938" y2="397.6875"/><polygon fill="#000000" points="525,385.5938,531,385.5938,528,392.6875" style="stroke: #000000; stroke-width: 1.0;"/><text fill="#000000" font-family="sans-serif" font-size="12" lengthAdjust="spacingAndGlyphs" textLength="92" x="6" y="414.1445">Force du courant</text><rect fill="#EEEEEE" height="18.0938" style="stroke: #000000; stroke-width: 1.0;" width="159" x="374" y="402.6875"/><text fill="#000000" font-family="sans-serif" font-size="12" lengthAdjust="spacingAndGlyphs" textLength="93" x="376" y="417.1445">Valeur qualitative</text><line style="stroke: #000000; stroke-width: 1.0;" x1="522" x2="522" y1="402.6875" y2="420.7813"/><polygon fill="#000000" points="525,408.6875,531,408.6875,528,415.7813" style="stroke: #000000; stroke-width: 1.0;"/><text fill="#000000" font-family="sans-serif" font-size="12" lengthAdjust="spacingAndGlyphs" textLength="83" x="6" y="454.332">Commentaires</text><text fill="#000000" font-family="sans-serif" font-size="12" lengthAdjust="spacingAndGlyphs" textLength="80" x="377" y="455.332">commentaires</text><line style="stroke: #000000; stroke-width: 1.0;" x1="375" x2="530" y1="457.9688" y2="457.9688"/><line style="stroke: #000000; stroke-width: 1.0;" x1="375" x2="375" y1="454.9688" y2="456.9688"/><line style="stroke: #000000; stroke-width: 1.0;" x1="530" x2="530" y1="454.9688" y2="456.9688"/><line style="stroke: #AAAAAA; stroke-width: 1.0;" x1="6" x2="372" y1="466.4688" y2="466.4688"/><line style="stroke: #AAAAAA; stroke-width: 1.0;" x1="373" x2="558" y1="466.4688" y2="466.4688"/><rect fill="#EEEEEE" height="19.0938" rx="5" ry="5" style="stroke: #000000; stroke-width: 2.5;" width="60" x="376.5" y="474.4688"/><text fill="#000000" font-family="sans-serif" font-size="12" lengthAdjust="spacingAndGlyphs" textLength="42" x="385.5" y="488.9258">Annuler</text><rect fill="#EEEEEE" height="19.0938" rx="5" ry="5" style="stroke: #000000; stroke-width: 2.5;" width="92" x="443.5" y="474.4688"/><text fill="#000000" font-family="sans-serif" font-size="12" lengthAdjust="spacingAndGlyphs" textLength="70" x="454.5" y="488.9258">Sauvegarder</text><rect fill="#DDDDDD" height="95.5625" style="stroke: #000000; stroke-width: 1.0;" width="131" x="10" y="305.3125"/><text fill="#000000" font-family="sans-serif" font-size="12" font-weight="bold" lengthAdjust="spacingAndGlyphs" textLength="101" x="10" y="317.7695">Code       -       Nom</text><text fill="#000000" font-family="sans-serif" font-size="12" lengthAdjust="spacingAndGlyphs" textLength="131" x="10" y="332.8633">AQUCUX - Acquaculture</text><text fill="#000000" font-family="sans-serif" font-size="12" lengthAdjust="spacingAndGlyphs" textLength="90" x="10" y="347.957">FIXAEMP - Active</text><text fill="#000000" font-family="sans-serif" font-size="12" lengthAdjust="spacingAndGlyphs" textLength="117" x="10" y="363.0508">LHMEMP - Handlines</text><line style="stroke: #000000; stroke-width: 1.0;" x1="10" x2="141" y1="368.1875" y2="368.1875"/><text fill="#000000" font-family="sans-serif" font-size="12" lengthAdjust="spacingAndGlyphs" textLength="3" x="10" y="383.1445">[</text><path d="M18,374.7813 L17,377.7813 L14,377.7813 L16.5,379.7813 L15.5,382.7813 L18,380.7813 L20.5,382.7813 L19.5,379.7813 L22,377.7813 L19,377.7813 L18,374.7813 " fill="#000000" style="stroke: ; stroke-width: 0.0; stroke-dasharray: ;"/><text fill="#000000" font-family="sans-serif" font-size="12" lengthAdjust="spacingAndGlyphs" textLength="97" x="26" y="383.1445">12 derniers mois]</text><text fill="#000000" font-family="sans-serif" font-size="12" lengthAdjust="spacingAndGlyphs" textLength="3" x="10" y="398.2383">[</text><path d="M17,389.875 L17,392.875 L14,392.875 L14,394.875 L17,394.875 L17,397.875 L19,397.875 L19,394.875 L22,394.875 L22,392.875 L19,392.875 L19,389.875 L17,389.875 " fill="#000000" style="stroke: ; stroke-width: 0.0; stroke-dasharray: ;"/><text fill="#000000" font-family="sans-serif" font-size="12" lengthAdjust="spacingAndGlyphs" textLength="3" x="23" y="398.2383">]</text></g></svg>