<?xml version="1.0" encoding="us-ascii" standalone="no"?><svg xmlns="http://www.w3.org/2000/svg" xmlns:xlink="http://www.w3.org/1999/xlink" contentStyleType="text/css" height="343px" preserveAspectRatio="none" style="width:556px;height:343px;background:#FFFFFF;" version="1.1" viewBox="0 0 556 343" width="556px" zoomAndPan="magnify"><defs/><g><text fill="#000000" font-family="sans-serif" font-size="12" font-weight="bold" lengthAdjust="spacing" textLength="88" x="6" y="18.457">Nouvelle mar&#233;e</text><line style="stroke:#AAAAAA;stroke-width:1.0;stroke-dasharray:1.0,2.0;" x1="6" x2="209" y1="26.5938" y2="26.5938"/><text fill="#000000" font-family="sans-serif" font-size="12" font-weight="bold" lengthAdjust="spacing" textLength="44" x="8" y="43.5508">General</text><line style="stroke:#000000;stroke-width:1.0;" x1="6" x2="6" y1="31.0938" y2="46.1875"/><line style="stroke:#000000;stroke-width:1.0;" x1="6" x2="55" y1="31.0938" y2="31.0938"/><line style="stroke:#000000;stroke-width:1.0;" x1="55" x2="55" y1="31.0938" y2="46.1875"/><line style="stroke:#000000;stroke-width:1.0;" x1="55" x2="65" y1="46.1875" y2="46.1875"/><text fill="#000000" font-family="sans-serif" font-size="12" lengthAdjust="spacing" textLength="107" x="67" y="43.5508">Capture d&#233;barqu&#233;e</text><line style="stroke:#000000;stroke-width:1.0;" x1="65" x2="65" y1="31.0938" y2="46.1875"/><line style="stroke:#000000;stroke-width:1.0;" x1="65" x2="177" y1="31.0938" y2="31.0938"/><line style="stroke:#000000;stroke-width:1.0;" x1="177" x2="177" y1="31.0938" y2="46.1875"/><line style="stroke:#000000;stroke-width:1.0;" x1="177" x2="187" y1="46.1875" y2="46.1875"/><text fill="#000000" font-family="sans-serif" font-size="12" lengthAdjust="spacing" textLength="136" x="6" y="77.7383">Programme de collecte*:</text><rect fill="#EEEEEE" height="18.0938" style="stroke:#000000;stroke-width:1.0;" width="263" x="211" y="66.2813"/><text fill="#000000" font-family="sans-serif" font-size="12" lengthAdjust="spacing" textLength="187" x="213" y="80.7383">SIH-OBSDEB-opportunistic survey</text><line style="stroke:#000000;stroke-width:1.0;" x1="463" x2="463" y1="66.2813" y2="84.375"/><polygon fill="#000000" points="466,72.2813,472,72.2813,469,79.375" style="stroke:#000000;stroke-width:1.0;"/><text fill="#000000" font-family="sans-serif" font-size="12" lengthAdjust="spacing" textLength="43" x="6" y="100.832">Navire*:</text><rect fill="#EEEEEE" height="18.0938" style="stroke:#000000;stroke-width:1.0;" width="95" x="211" y="89.375"/><text fill="#000000" font-family="sans-serif" font-size="12" lengthAdjust="spacing" textLength="72" x="213" y="103.832">FRA0001114</text><line style="stroke:#000000;stroke-width:1.0;" x1="295" x2="295" y1="89.375" y2="107.4688"/><polygon fill="#000000" points="298,95.375,304,95.375,301,102.4688" style="stroke:#000000;stroke-width:1.0;"/><rect fill="#EEEEEE" height="12" rx="5" ry="5" style="stroke:#000000;stroke-width:2.5;" width="20" x="311.5" y="91.875"/><path d="M320.5,93.875 L320.5,96.875 L317.5,96.875 L317.5,98.875 L320.5,98.875 L320.5,101.875 L322.5,101.875 L322.5,98.875 L325.5,98.875 L325.5,96.875 L322.5,96.875 L322.5,93.875 L320.5,93.875 " fill="#000000" style="stroke:;stroke-width:0.0;stroke-dasharray:;"/><text fill="#000000" font-family="sans-serif" font-size="12" lengthAdjust="spacing" textLength="202" x="6" y="123.9258">Lieu de d&#233;barquement de la mar&#233;e*:</text><rect fill="#EEEEEE" height="18.0938" style="stroke:#000000;stroke-width:1.0;" width="143" x="211" y="112.4688"/><text fill="#000000" font-family="sans-serif" font-size="12" lengthAdjust="spacing" textLength="93" x="213" y="126.9258">MA - Mah&#233; Island</text><line style="stroke:#000000;stroke-width:1.0;" x1="343" x2="343" y1="112.4688" y2="130.5625"/><polygon fill="#000000" points="346,118.4688,352,118.4688,349,125.5625" style="stroke:#000000;stroke-width:1.0;"/><text fill="#000000" font-family="sans-serif" font-size="12" lengthAdjust="spacing" textLength="156" x="6" y="147.0195">Date/Heure d&#233;but de mar&#233;e:</text><rect fill="#EEEEEE" height="18.0938" style="stroke:#000000;stroke-width:1.0;" width="95" x="211" y="135.5625"/><text fill="#000000" font-family="sans-serif" font-size="12" lengthAdjust="spacing" textLength="62" x="213" y="150.0195">01/02/2019</text><line style="stroke:#000000;stroke-width:1.0;" x1="295" x2="295" y1="135.5625" y2="153.6563"/><polygon fill="#000000" points="298,141.5625,304,141.5625,301,148.6563" style="stroke:#000000;stroke-width:1.0;"/><rect fill="#EEEEEE" height="18.0938" style="stroke:#000000;stroke-width:1.0;" width="55" x="309" y="135.5625"/><text fill="#000000" font-family="sans-serif" font-size="12" lengthAdjust="spacing" textLength="31" x="311" y="150.0195">00:00</text><line style="stroke:#000000;stroke-width:1.0;" x1="353" x2="353" y1="135.5625" y2="153.6563"/><polygon fill="#000000" points="356,141.5625,362,141.5625,359,148.6563" style="stroke:#000000;stroke-width:1.0;"/><text fill="#000000" font-family="sans-serif" font-size="12" lengthAdjust="spacing" textLength="138" x="6" y="170.1133">Date/Heure fin de mar&#233;e:</text><rect fill="#EEEEEE" height="18.0938" style="stroke:#000000;stroke-width:1.0;" width="95" x="211" y="158.6563"/><text fill="#000000" font-family="sans-serif" font-size="12" lengthAdjust="spacing" textLength="62" x="213" y="173.1133">01/02/2019</text><line style="stroke:#000000;stroke-width:1.0;" x1="295" x2="295" y1="158.6563" y2="176.75"/><polygon fill="#000000" points="298,164.6563,304,164.6563,301,171.75" style="stroke:#000000;stroke-width:1.0;"/><rect fill="#EEEEEE" height="18.0938" style="stroke:#000000;stroke-width:1.0;" width="55" x="309" y="158.6563"/><text fill="#000000" font-family="sans-serif" font-size="12" lengthAdjust="spacing" textLength="31" x="311" y="173.1133">23:59</text><line style="stroke:#000000;stroke-width:1.0;" x1="353" x2="353" y1="158.6563" y2="176.75"/><polygon fill="#000000" points="356,164.6563,362,164.6563,359,171.75" style="stroke:#000000;stroke-width:1.0;"/><text fill="#000000" font-family="sans-serif" font-size="12" lengthAdjust="spacing" textLength="150" x="6" y="193.207">Date/Heure d&#233;barquement:</text><rect fill="#EEEEEE" height="18.0938" style="stroke:#000000;stroke-width:1.0;" width="95" x="211" y="181.75"/><text fill="#000000" font-family="sans-serif" font-size="12" lengthAdjust="spacing" textLength="62" x="213" y="196.207">01/02/2019</text><line style="stroke:#000000;stroke-width:1.0;" x1="295" x2="295" y1="181.75" y2="199.8438"/><polygon fill="#000000" points="298,187.75,304,187.75,301,194.8438" style="stroke:#000000;stroke-width:1.0;"/><rect fill="#EEEEEE" height="18.0938" style="stroke:#000000;stroke-width:1.0;" width="55" x="309" y="181.75"/><text fill="#000000" font-family="sans-serif" font-size="12" lengthAdjust="spacing" textLength="31" x="311" y="196.207">23:59</text><line style="stroke:#000000;stroke-width:1.0;" x1="353" x2="353" y1="181.75" y2="199.8438"/><polygon fill="#000000" points="356,187.75,362,187.75,359,194.8438" style="stroke:#000000;stroke-width:1.0;"/><text fill="#000000" font-family="sans-serif" font-size="12" lengthAdjust="spacing" textLength="80" x="6" y="216.3008">Observateurs :</text><rect fill="#EEEEEE" height="18.0938" style="stroke:#000000;stroke-width:1.0;" width="127" x="211" y="204.8438"/><text fill="#000000" font-family="sans-serif" font-size="12" lengthAdjust="spacing" textLength="84" x="213" y="219.3008">Observateur #1</text><line style="stroke:#000000;stroke-width:1.0;" x1="327" x2="327" y1="204.8438" y2="222.9375"/><polygon fill="#000000" points="330,210.8438,336,210.8438,333,217.9375" style="stroke:#000000;stroke-width:1.0;"/><rect fill="#EEEEEE" height="12" rx="5" ry="5" style="stroke:#000000;stroke-width:2.5;" width="20" x="343.5" y="207.3438"/><path d="M352.5,209.3438 L352.5,212.3438 L349.5,212.3438 L349.5,214.3438 L352.5,214.3438 L352.5,217.3438 L354.5,217.3438 L354.5,214.3438 L357.5,214.3438 L357.5,212.3438 L354.5,212.3438 L354.5,209.3438 L352.5,209.3438 " fill="#000000" style="stroke:;stroke-width:0.0;stroke-dasharray:;"/><rect fill="#EEEEEE" height="12" rx="5" ry="5" style="stroke:#000000;stroke-width:2.5;" width="20" x="370.5" y="207.3438"/><path d="M377.91,209.3438 L376.5,210.7538 L377.22,211.4738 L379,213.2838 L377.22,215.0638 L376.5,215.7538 L377.91,217.1938 L378.63,216.4738 L380.44,214.6638 L382.22,216.4738 L382.91,217.1938 L384.35,215.7538 L383.63,215.0638 L381.82,213.2838 L383.63,211.4738 L384.35,210.7538 L382.91,209.3438 L382.22,210.0638 L380.44,211.8438 L378.63,210.0638 L377.91,209.3438 " fill="#000000" style="stroke:;stroke-width:0.0;stroke-dasharray:;"/><text fill="#000000" font-family="sans-serif" font-size="12" lengthAdjust="spacing" textLength="46" x="6" y="239.3945">Metiers :</text><rect fill="#EEEEEE" height="18.0938" style="stroke:#000000;stroke-width:1.0;" width="87" x="211" y="227.9375"/><text fill="#000000" font-family="sans-serif" font-size="12" lengthAdjust="spacing" textLength="50" x="213" y="242.3945">Metier #1</text><line style="stroke:#000000;stroke-width:1.0;" x1="287" x2="287" y1="227.9375" y2="246.0313"/><polygon fill="#000000" points="290,233.9375,296,233.9375,293,241.0313" style="stroke:#000000;stroke-width:1.0;"/><rect fill="#EEEEEE" height="18.0938" style="stroke:#000000;stroke-width:1.0;" width="191" x="301" y="227.9375"/><text fill="#000000" font-family="sans-serif" font-size="12" lengthAdjust="spacing" textLength="120" x="303" y="242.3945">Principal / Secondaire</text><line style="stroke:#000000;stroke-width:1.0;" x1="481" x2="481" y1="227.9375" y2="246.0313"/><polygon fill="#000000" points="484,233.9375,490,233.9375,487,241.0313" style="stroke:#000000;stroke-width:1.0;"/><rect fill="#EEEEEE" height="12" rx="5" ry="5" style="stroke:#000000;stroke-width:2.5;" width="20" x="497.5" y="230.4375"/><path d="M506.5,232.4375 L506.5,235.4375 L503.5,235.4375 L503.5,237.4375 L506.5,237.4375 L506.5,240.4375 L508.5,240.4375 L508.5,237.4375 L511.5,237.4375 L511.5,235.4375 L508.5,235.4375 L508.5,232.4375 L506.5,232.4375 " fill="#000000" style="stroke:;stroke-width:0.0;stroke-dasharray:;"/><rect fill="#EEEEEE" height="12" rx="5" ry="5" style="stroke:#000000;stroke-width:2.5;" width="20" x="524.5" y="230.4375"/><path d="M531.91,232.4375 L530.5,233.8475 L531.22,234.5675 L533,236.3775 L531.22,238.1575 L530.5,238.8475 L531.91,240.2875 L532.63,239.5675 L534.44,237.7575 L536.22,239.5675 L536.91,240.2875 L538.35,238.8475 L537.63,238.1575 L535.82,236.3775 L537.63,234.5675 L538.35,233.8475 L536.91,232.4375 L536.22,233.1575 L534.44,234.9375 L532.63,233.1575 L531.91,232.4375 " fill="#000000" style="stroke:;stroke-width:0.0;stroke-dasharray:;"/><text fill="#000000" font-family="sans-serif" font-size="12" lengthAdjust="spacing" textLength="129" x="6" y="262.4883">Autres caract&#233;ristiques:</text><text fill="#000000" font-family="sans-serif" font-size="12" lengthAdjust="spacing" textLength="16" x="211" y="263.4883">NA</text><text fill="#000000" font-family="sans-serif" font-size="12" lengthAdjust="spacing" textLength="83" x="6" y="298.6758">Commentaires</text><text fill="#000000" font-family="sans-serif" font-size="12" lengthAdjust="spacing" textLength="80" x="214" y="299.6758">commentaires</text><line style="stroke:#000000;stroke-width:1.0;" x1="212" x2="367" y1="302.3125" y2="302.3125"/><line style="stroke:#000000;stroke-width:1.0;" x1="212" x2="212" y1="299.3125" y2="301.3125"/><line style="stroke:#000000;stroke-width:1.0;" x1="367" x2="367" y1="299.3125" y2="301.3125"/><line style="stroke:#AAAAAA;stroke-width:1.0;" x1="6" x2="209" y1="310.8125" y2="310.8125"/><line style="stroke:#AAAAAA;stroke-width:1.0;" x1="210" x2="549" y1="310.8125" y2="310.8125"/><rect fill="#EEEEEE" height="19.0938" rx="5" ry="5" style="stroke:#000000;stroke-width:2.5;" width="60" x="213.5" y="318.8125"/><text fill="#000000" font-family="sans-serif" font-size="12" lengthAdjust="spacing" textLength="42" x="222.5" y="333.2695">Annuler</text><rect fill="#EEEEEE" height="19.0938" rx="5" ry="5" style="stroke:#000000;stroke-width:2.5;" width="92" x="280.5" y="318.8125"/><text fill="#000000" font-family="sans-serif" font-size="12" lengthAdjust="spacing" textLength="70" x="291.5" y="333.2695">Sauvegarder</text></g></svg>