<?xml version="1.0" encoding="us-ascii" standalone="no"?><svg xmlns="http://www.w3.org/2000/svg" xmlns:xlink="http://www.w3.org/1999/xlink" contentStyleType="text/css" height="565px" preserveAspectRatio="none" style="width:873px;height:565px;background:#FFFFFF;" version="1.1" viewBox="0 0 873 565" width="873px" zoomAndPan="magnify"><defs/><g><text fill="#000000" font-family="sans-serif" font-size="12" font-weight="bold" lengthAdjust="spacing" textLength="156" x="9" y="18.457">Echantillonage des paquets</text><rect fill="#EEEEEE" height="19.0938" rx="5" ry="5" style="stroke:#000000;stroke-width:2.5;" width="52" x="810.5" y="8.5"/><text fill="#000000" font-family="sans-serif" font-size="12" lengthAdjust="spacing" textLength="40" x="816.5" y="22.957">Fermer</text><line style="stroke:#AAAAAA;stroke-width:1.0;" x1="6" x2="807" y1="35.5938" y2="35.5938"/><line style="stroke:#AAAAAA;stroke-width:1.0;" x1="808" x2="866" y1="35.5938" y2="35.5938"/><text fill="#000000" font-family="sans-serif" font-size="12" lengthAdjust="spacing" textLength="104" x="27" y="53.5508">Saisie mode rafale</text><ellipse cx="14" cy="48.6406" fill="none" rx="5" ry="5" style="stroke:#000000;stroke-width:1.5;"/><ellipse cx="14" cy="48.6406" fill="#000000" rx="2" ry="2" style="stroke:#000000;stroke-width:1.5;"/><text fill="#000000" font-family="sans-serif" font-size="12" lengthAdjust="spacing" textLength="32" x="8" y="90.7383">ID Lot</text><text fill="#000000" font-family="sans-serif" font-size="12" lengthAdjust="spacing" textLength="7" x="45" y="90.7383">2</text><line style="stroke:#000000;stroke-width:1.0;" x1="43" x2="78" y1="93.375" y2="93.375"/><line style="stroke:#000000;stroke-width:1.0;" x1="43" x2="43" y1="90.375" y2="92.375"/><line style="stroke:#000000;stroke-width:1.0;" x1="78" x2="78" y1="90.375" y2="92.375"/><text fill="#000000" font-family="sans-serif" font-size="12" lengthAdjust="spacing" textLength="109" x="82" y="90.7383">Nombre de paquet :</text><text fill="#0000FF" font-family="sans-serif" font-size="12" font-style="italic" lengthAdjust="spacing" textLength="14" x="197" y="91.7383">55</text><line style="stroke:#000000;stroke-width:1.0;" x1="195" x2="222" y1="94.375" y2="94.375"/><line style="stroke:#000000;stroke-width:1.0;" x1="195" x2="195" y1="91.375" y2="93.375"/><line style="stroke:#000000;stroke-width:1.0;" x1="222" x2="222" y1="91.375" y2="93.375"/><text fill="#000000" font-family="sans-serif" font-size="12" lengthAdjust="spacing" textLength="172" x="228" y="91.7383">Poids total des paquets calcul&#233;</text><text fill="#0000FF" font-family="sans-serif" font-size="12" font-style="italic" lengthAdjust="spacing" textLength="38" x="406" y="92.7383">527,10</text><line style="stroke:#000000;stroke-width:1.0;" x1="404" x2="455" y1="95.375" y2="95.375"/><line style="stroke:#000000;stroke-width:1.0;" x1="404" x2="404" y1="92.375" y2="94.375"/><line style="stroke:#000000;stroke-width:1.0;" x1="455" x2="455" y1="92.375" y2="94.375"/><text fill="#000000" font-family="sans-serif" font-size="12" lengthAdjust="spacing" textLength="153" x="8" y="115.832">Nombre d'&#233;chantillon saisi :</text><text fill="#0000FF" font-family="sans-serif" font-size="12" font-style="italic" lengthAdjust="spacing" textLength="7" x="167" y="116.832">6</text><line style="stroke:#000000;stroke-width:1.0;" x1="165" x2="176" y1="119.4688" y2="119.4688"/><line style="stroke:#000000;stroke-width:1.0;" x1="165" x2="165" y1="116.4688" y2="118.4688"/><line style="stroke:#000000;stroke-width:1.0;" x1="176" x2="176" y1="116.4688" y2="118.4688"/><text fill="#000000" font-family="sans-serif" font-size="12" font-style="italic" lengthAdjust="spacing" textLength="402" x="182" y="116.832">Valeur s'incr&#233;mente toute seule (6=valeur maximum par defaut pour SFA)</text><line style="stroke:#AAAAAA;stroke-width:1.0;stroke-dasharray:1.0,2.0;" x1="6" x2="807" y1="147.0625" y2="147.0625"/><text fill="#000000" font-family="sans-serif" font-size="12" font-weight="bold" lengthAdjust="spacing" textLength="129" x="7" y="165.0195">Ajouter un &#233;chantillon :</text><text fill="#000000" font-family="sans-serif" font-size="12" lengthAdjust="spacing" textLength="144" x="7" y="182.1133">Poids de l'&#233;chantillon (kg):</text><text fill="#000000" font-family="sans-serif" font-size="12" lengthAdjust="spacing" textLength="14" x="435" y="183.1133">38</text><line style="stroke:#000000;stroke-width:1.0;" x1="433" x2="548" y1="185.75" y2="185.75"/><line style="stroke:#000000;stroke-width:1.0;" x1="433" x2="433" y1="182.75" y2="184.75"/><line style="stroke:#000000;stroke-width:1.0;" x1="548" x2="548" y1="182.75" y2="184.75"/><text fill="#000000" font-family="sans-serif" font-size="12" lengthAdjust="spacing" textLength="125" x="7" y="220.3008">Esp&#232;ce commerciale*:</text><rect fill="#EEEEEE" height="18.0938" style="stroke:#000000;stroke-width:1.0;" width="119" x="432" y="208.8438"/><text fill="#000000" font-family="sans-serif" font-size="12" lengthAdjust="spacing" textLength="69" x="434" y="223.3008">Anba lasann</text><line style="stroke:#000000;stroke-width:1.0;" x1="540" x2="540" y1="208.8438" y2="226.9375"/><polygon fill="#000000" points="543,214.8438,549,214.8438,546,221.9375" style="stroke:#000000;stroke-width:1.0;"/><text fill="#000000" font-family="sans-serif" font-size="12" lengthAdjust="spacing" textLength="93" x="574" y="221.3008">Valeur par d&#233;faut</text><rect fill="none" height="10" style="stroke:#000000;stroke-width:1.5;" width="10" x="556" y="211.3906"/><text fill="#000000" font-family="sans-serif" font-size="12" lengthAdjust="spacing" textLength="63" x="7" y="243.3945">% (&#931;=100) :</text><text fill="#000000" font-family="sans-serif" font-size="12" lengthAdjust="spacing" textLength="14" x="435" y="244.3945">10</text><line style="stroke:#000000;stroke-width:1.0;" x1="433" x2="516" y1="247.0313" y2="247.0313"/><line style="stroke:#000000;stroke-width:1.0;" x1="433" x2="433" y1="244.0313" y2="246.0313"/><line style="stroke:#000000;stroke-width:1.0;" x1="516" x2="516" y1="244.0313" y2="246.0313"/><rect fill="#EEEEEE" height="19.0938" rx="5" ry="5" style="stroke:#000000;stroke-width:2.5;" width="148" x="434.5" y="255.5313"/><text fill="#000000" font-family="sans-serif" font-size="12" lengthAdjust="spacing" textLength="92" x="462.5" y="269.9883">Ajouter (= Entrer)</text><rect fill="#EEEEEE" height="19.0938" rx="5" ry="5" style="stroke:#000000;stroke-width:2.5;" width="212" x="589.5" y="255.5313"/><text fill="#000000" font-family="sans-serif" font-size="12" lengthAdjust="spacing" textLength="141" x="625" y="269.9883">Annuler la derni&#232;re saisie</text><text fill="#000000" font-family="sans-serif" font-size="12" lengthAdjust="spacing" textLength="7" x="8" y="310.6758">#</text><text fill="#000000" font-family="sans-serif" font-size="12" font-weight="bold" lengthAdjust="spacing" textLength="84" x="17" y="310.6758">Lot de paquets</text><text fill="#000000" font-family="sans-serif" font-size="12" font-weight="bold" lengthAdjust="spacing" textLength="120" x="118" y="310.6758">Esp&#232;ce commerciale</text><text fill="#000000" font-family="sans-serif" font-size="12" font-weight="bold" lengthAdjust="spacing" textLength="55" x="240" y="310.6758">% (&#931;=100)</text><text fill="#000000" font-family="sans-serif" font-size="12" lengthAdjust="spacing" textLength="7" x="8" y="327.7695">2</text><text fill="#000000" font-family="sans-serif" font-size="12" lengthAdjust="spacing" textLength="99" x="17" y="327.7695">Lot 2 - 55 paquets</text><text fill="#000000" font-family="sans-serif" font-size="12" lengthAdjust="spacing" textLength="69" x="118" y="327.7695">Anba lasann</text><text fill="#000000" font-family="sans-serif" font-size="12" lengthAdjust="spacing" textLength="14" x="240" y="327.7695">10</text><path d="M301,315.3125 C300.45,315.3125 300,315.7625 300,316.3125 L299,316.3125 C298.45,316.3125 298,316.7625 298,317.3125 L305,317.3125 C305,316.7625 304.55,316.3125 304,316.3125 L303,316.3125 C303,315.7625 302.55,315.3125 302,315.3125 L301,315.3125 M299,318.3125 L299,323.1225 C299,323.2325 299.08,323.3125 299.19,323.3125 L303.82,323.3125 C303.93,323.3125 304.01,323.2325 304.01,323.1225 L304.01,318.3125 L303.01,318.3125 L303.01,321.8125 C303.01,322.0925 302.79,322.3125 302.51,322.3125 C302.23,322.3125 302.01,322.0925 302.01,321.8125 L302.01,318.3125 L301.01,318.3125 L301.01,321.8125 C301.01,322.0925 300.79,322.3125 300.51,322.3125 C300.23,322.3125 300.01,322.0925 300.01,321.8125 L300.01,318.3125 L299.01,318.3125 " fill="#000000" style="stroke:;stroke-width:0.0;stroke-dasharray:;"/><text fill="#000000" font-family="sans-serif" font-size="12" lengthAdjust="spacing" textLength="7" x="8" y="344.8633">1</text><text fill="#000000" font-family="sans-serif" font-size="12" lengthAdjust="spacing" textLength="99" x="17" y="344.8633">Lot 2 - 55 paquets</text><text fill="#000000" font-family="sans-serif" font-size="12" lengthAdjust="spacing" textLength="41" x="118" y="344.8633">Albakor</text><text fill="#000000" font-family="sans-serif" font-size="12" lengthAdjust="spacing" textLength="14" x="240" y="344.8633">90</text><path d="M301,332.4063 C300.45,332.4063 300,332.8563 300,333.4063 L299,333.4063 C298.45,333.4063 298,333.8563 298,334.4063 L305,334.4063 C305,333.8563 304.55,333.4063 304,333.4063 L303,333.4063 C303,332.8563 302.55,332.4063 302,332.4063 L301,332.4063 M299,335.4063 L299,340.2163 C299,340.3263 299.08,340.4063 299.19,340.4063 L303.82,340.4063 C303.93,340.4063 304.01,340.3263 304.01,340.2163 L304.01,335.4063 L303.01,335.4063 L303.01,338.9063 C303.01,339.1863 302.79,339.4063 302.51,339.4063 C302.23,339.4063 302.01,339.1863 302.01,338.9063 L302.01,335.4063 L301.01,335.4063 L301.01,338.9063 C301.01,339.1863 300.79,339.4063 300.51,339.4063 C300.23,339.4063 300.01,339.1863 300.01,338.9063 L300.01,335.4063 L299.01,335.4063 " fill="#000000" style="stroke:;stroke-width:0.0;stroke-dasharray:;"/><line style="stroke:#000000;stroke-width:1.0;" x1="7" x2="16" y1="297.2188" y2="297.2188"/><line style="stroke:#000000;stroke-width:1.0;" x1="117" x2="239" y1="331.4063" y2="331.4063"/><line style="stroke:#000000;stroke-width:1.0;" x1="16" x2="117" y1="297.2188" y2="297.2188"/><line style="stroke:#000000;stroke-width:1.0;" x1="239" x2="296" y1="331.4063" y2="331.4063"/><line style="stroke:#000000;stroke-width:1.0;" x1="117" x2="239" y1="297.2188" y2="297.2188"/><line style="stroke:#000000;stroke-width:1.0;" x1="296" x2="308" y1="331.4063" y2="331.4063"/><line style="stroke:#000000;stroke-width:1.0;" x1="239" x2="296" y1="297.2188" y2="297.2188"/><line style="stroke:#000000;stroke-width:1.0;" x1="296" x2="308" y1="297.2188" y2="297.2188"/><line style="stroke:#000000;stroke-width:1.0;" x1="7" x2="16" y1="348.5" y2="348.5"/><line style="stroke:#000000;stroke-width:1.0;" x1="16" x2="117" y1="348.5" y2="348.5"/><line style="stroke:#000000;stroke-width:1.0;" x1="117" x2="239" y1="348.5" y2="348.5"/><line style="stroke:#000000;stroke-width:1.0;" x1="7" x2="16" y1="314.3125" y2="314.3125"/><line style="stroke:#000000;stroke-width:1.0;" x1="239" x2="296" y1="348.5" y2="348.5"/><line style="stroke:#000000;stroke-width:1.0;" x1="16" x2="117" y1="314.3125" y2="314.3125"/><line style="stroke:#000000;stroke-width:1.0;" x1="296" x2="308" y1="348.5" y2="348.5"/><line style="stroke:#000000;stroke-width:1.0;" x1="117" x2="239" y1="314.3125" y2="314.3125"/><line style="stroke:#000000;stroke-width:1.0;" x1="239" x2="296" y1="314.3125" y2="314.3125"/><line style="stroke:#000000;stroke-width:1.0;" x1="296" x2="308" y1="314.3125" y2="314.3125"/><line style="stroke:#000000;stroke-width:1.0;" x1="7" x2="16" y1="331.4063" y2="331.4063"/><line style="stroke:#000000;stroke-width:1.0;" x1="16" x2="117" y1="331.4063" y2="331.4063"/><line style="stroke:#000000;stroke-width:1.0;" x1="7" x2="7" y1="297.2188" y2="314.3125"/><line style="stroke:#000000;stroke-width:1.0;" x1="117" x2="117" y1="331.4063" y2="348.5"/><line style="stroke:#000000;stroke-width:1.0;" x1="16" x2="16" y1="297.2188" y2="314.3125"/><line style="stroke:#000000;stroke-width:1.0;" x1="239" x2="239" y1="331.4063" y2="348.5"/><line style="stroke:#000000;stroke-width:1.0;" x1="117" x2="117" y1="297.2188" y2="314.3125"/><line style="stroke:#000000;stroke-width:1.0;" x1="296" x2="296" y1="331.4063" y2="348.5"/><line style="stroke:#000000;stroke-width:1.0;" x1="308" x2="308" y1="331.4063" y2="348.5"/><line style="stroke:#000000;stroke-width:1.0;" x1="239" x2="239" y1="297.2188" y2="314.3125"/><line style="stroke:#000000;stroke-width:1.0;" x1="296" x2="296" y1="297.2188" y2="314.3125"/><line style="stroke:#000000;stroke-width:1.0;" x1="308" x2="308" y1="297.2188" y2="314.3125"/><line style="stroke:#000000;stroke-width:1.0;" x1="7" x2="7" y1="314.3125" y2="331.4063"/><line style="stroke:#000000;stroke-width:1.0;" x1="16" x2="16" y1="314.3125" y2="331.4063"/><line style="stroke:#000000;stroke-width:1.0;" x1="117" x2="117" y1="314.3125" y2="331.4063"/><line style="stroke:#000000;stroke-width:1.0;" x1="239" x2="239" y1="314.3125" y2="331.4063"/><line style="stroke:#000000;stroke-width:1.0;" x1="296" x2="296" y1="314.3125" y2="331.4063"/><line style="stroke:#000000;stroke-width:1.0;" x1="308" x2="308" y1="314.3125" y2="331.4063"/><line style="stroke:#000000;stroke-width:1.0;" x1="7" x2="7" y1="331.4063" y2="348.5"/><line style="stroke:#000000;stroke-width:1.0;" x1="16" x2="16" y1="331.4063" y2="348.5"/><text fill="#FF0000" font-family="sans-serif" font-size="12" font-style="italic" lengthAdjust="spacing" textLength="163" x="432" y="310.6758">Si la &#931; n'est pas &#233;gal &#224; 100 %,</text><text fill="#FF0000" font-family="sans-serif" font-size="12" font-style="italic" lengthAdjust="spacing" textLength="255" x="432" y="327.7695">alors il n'est as possible de valider l'&#233;chantillon</text><rect fill="#EEEEEE" height="19.0938" rx="5" ry="5" style="stroke:#000000;stroke-width:2.5;" width="244" x="10.5" y="371.0938"/><text fill="#000000" font-family="sans-serif" font-size="12" lengthAdjust="spacing" textLength="160" x="52.5" y="385.5508">Nouvel &#233;chantillon (= Valider)</text><rect fill="#EEEEEE" height="19.0938" rx="5" ry="5" style="stroke:#000000;stroke-width:2.5;" width="164" x="261.5" y="371.0938"/><text fill="#000000" font-family="sans-serif" font-size="12" lengthAdjust="spacing" textLength="108" x="289.5" y="385.5508">Fin &#233;chantillonnage</text><line style="stroke:#000000;stroke-width:1.0;" x1="6" x2="430" y1="151.5625" y2="151.5625"/><line style="stroke:#000000;stroke-width:1.0;" x1="430" x2="806" y1="151.5625" y2="151.5625"/><line style="stroke:#000000;stroke-width:1.0;" x1="6" x2="430" y1="394.6875" y2="394.6875"/><line style="stroke:#000000;stroke-width:1.0;" x1="430" x2="806" y1="394.6875" y2="394.6875"/><line style="stroke:#000000;stroke-width:1.0;" x1="6" x2="6" y1="151.5625" y2="168.6563"/><line style="stroke:#000000;stroke-width:1.0;" x1="806" x2="806" y1="189.75" y2="206.8438"/><line style="stroke:#000000;stroke-width:1.0;" x1="806" x2="806" y1="151.5625" y2="168.6563"/><line style="stroke:#000000;stroke-width:1.0;" x1="6" x2="6" y1="366.5938" y2="394.6875"/><line style="stroke:#000000;stroke-width:1.0;" x1="6" x2="6" y1="296.2188" y2="349.5"/><line style="stroke:#000000;stroke-width:1.0;" x1="806" x2="806" y1="366.5938" y2="394.6875"/><line style="stroke:#000000;stroke-width:1.0;" x1="6" x2="6" y1="251.0313" y2="279.125"/><line style="stroke:#000000;stroke-width:1.0;" x1="806" x2="806" y1="296.2188" y2="349.5"/><line style="stroke:#000000;stroke-width:1.0;" x1="6" x2="6" y1="206.8438" y2="229.9375"/><line style="stroke:#000000;stroke-width:1.0;" x1="806" x2="806" y1="251.0313" y2="279.125"/><line style="stroke:#000000;stroke-width:1.0;" x1="6" x2="6" y1="168.6563" y2="189.75"/><line style="stroke:#000000;stroke-width:1.0;" x1="806" x2="806" y1="206.8438" y2="229.9375"/><line style="stroke:#000000;stroke-width:1.0;" x1="806" x2="806" y1="168.6563" y2="189.75"/><line style="stroke:#000000;stroke-width:1.0;" x1="6" x2="6" y1="349.5" y2="366.5938"/><line style="stroke:#000000;stroke-width:1.0;" x1="6" x2="6" y1="279.125" y2="296.2188"/><line style="stroke:#000000;stroke-width:1.0;" x1="806" x2="806" y1="349.5" y2="366.5938"/><line style="stroke:#000000;stroke-width:1.0;" x1="6" x2="6" y1="229.9375" y2="251.0313"/><line style="stroke:#000000;stroke-width:1.0;" x1="806" x2="806" y1="279.125" y2="296.2188"/><line style="stroke:#000000;stroke-width:1.0;" x1="6" x2="6" y1="189.75" y2="206.8438"/><line style="stroke:#000000;stroke-width:1.0;" x1="806" x2="806" y1="229.9375" y2="251.0313"/><line style="stroke:#AAAAAA;stroke-width:1.0;" x1="6" x2="807" y1="417.2813" y2="417.2813"/><line style="stroke:#AAAAAA;stroke-width:1.0;" x1="808" x2="866" y1="417.2813" y2="417.2813"/><text fill="#000000" font-family="sans-serif" font-size="12" font-weight="bold" lengthAdjust="spacing" textLength="300" x="7" y="452.332">Poids estim&#233; calcul&#233; par esp&#232;ce pour le paquet (kg) :</text><text fill="#000000" font-family="sans-serif" font-size="12" lengthAdjust="spacing" textLength="7" x="8" y="470.4258">#</text><text fill="#000000" font-family="sans-serif" font-size="12" font-weight="bold" lengthAdjust="spacing" textLength="84" x="17" y="470.4258">Lot de paquets</text><text fill="#000000" font-family="sans-serif" font-size="12" font-weight="bold" lengthAdjust="spacing" textLength="125" x="118" y="470.4258">Esp&#232;ce commerciale*</text><text fill="#000000" font-family="sans-serif" font-size="12" font-weight="bold" lengthAdjust="spacing" textLength="62" x="245" y="470.4258">Poids (kg)*</text><text fill="#000000" font-family="sans-serif" font-size="12" lengthAdjust="spacing" textLength="7" x="8" y="487.5195">1</text><text fill="#000000" font-family="sans-serif" font-size="12" lengthAdjust="spacing" textLength="99" x="17" y="487.5195">Lot 2 - 55 paquets</text><text fill="#000000" font-family="sans-serif" font-size="12" lengthAdjust="spacing" textLength="41" x="118" y="487.5195">Albakor</text><text fill="#0000FF" font-family="sans-serif" font-size="12" font-style="italic" lengthAdjust="spacing" textLength="38" x="245" y="487.5195">241.03</text><text fill="#000000" font-family="sans-serif" font-size="12" lengthAdjust="spacing" textLength="7" x="8" y="504.6133">2</text><text fill="#000000" font-family="sans-serif" font-size="12" lengthAdjust="spacing" textLength="99" x="17" y="504.6133">Lot 2 - 55 paquets</text><text fill="#000000" font-family="sans-serif" font-size="12" lengthAdjust="spacing" textLength="69" x="118" y="504.6133">Anba lasann</text><text fill="#0000FF" font-family="sans-serif" font-size="12" font-style="italic" lengthAdjust="spacing" textLength="38" x="245" y="504.6133">180.97</text><text fill="#000000" font-family="sans-serif" font-size="12" lengthAdjust="spacing" textLength="7" x="8" y="521.707">3</text><text fill="#000000" font-family="sans-serif" font-size="12" lengthAdjust="spacing" textLength="99" x="17" y="521.707">Lot 2 - 55 paquets</text><text fill="#000000" font-family="sans-serif" font-size="12" lengthAdjust="spacing" textLength="74" x="118" y="521.707">Babonn Zonn</text><text fill="#0000FF" font-family="sans-serif" font-size="12" font-style="italic" lengthAdjust="spacing" textLength="38" x="245" y="521.707">105.10</text><line style="stroke:#000000;stroke-width:1.0;" x1="7" x2="16" y1="456.9688" y2="456.9688"/><line style="stroke:#000000;stroke-width:1.0;" x1="117" x2="244" y1="491.1563" y2="491.1563"/><line style="stroke:#000000;stroke-width:1.0;" x1="16" x2="117" y1="456.9688" y2="456.9688"/><line style="stroke:#000000;stroke-width:1.0;" x1="244" x2="308" y1="491.1563" y2="491.1563"/><line style="stroke:#000000;stroke-width:1.0;" x1="117" x2="244" y1="456.9688" y2="456.9688"/><line style="stroke:#000000;stroke-width:1.0;" x1="244" x2="308" y1="456.9688" y2="456.9688"/><line style="stroke:#000000;stroke-width:1.0;" x1="7" x2="16" y1="508.25" y2="508.25"/><line style="stroke:#000000;stroke-width:1.0;" x1="16" x2="117" y1="508.25" y2="508.25"/><line style="stroke:#000000;stroke-width:1.0;" x1="7" x2="16" y1="474.0625" y2="474.0625"/><line style="stroke:#000000;stroke-width:1.0;" x1="117" x2="244" y1="508.25" y2="508.25"/><line style="stroke:#000000;stroke-width:1.0;" x1="16" x2="117" y1="474.0625" y2="474.0625"/><line style="stroke:#000000;stroke-width:1.0;" x1="244" x2="308" y1="508.25" y2="508.25"/><line style="stroke:#000000;stroke-width:1.0;" x1="117" x2="244" y1="474.0625" y2="474.0625"/><line style="stroke:#000000;stroke-width:1.0;" x1="244" x2="308" y1="474.0625" y2="474.0625"/><line style="stroke:#000000;stroke-width:1.0;" x1="7" x2="16" y1="525.3438" y2="525.3438"/><line style="stroke:#000000;stroke-width:1.0;" x1="16" x2="117" y1="525.3438" y2="525.3438"/><line style="stroke:#000000;stroke-width:1.0;" x1="117" x2="244" y1="525.3438" y2="525.3438"/><line style="stroke:#000000;stroke-width:1.0;" x1="7" x2="16" y1="491.1563" y2="491.1563"/><line style="stroke:#000000;stroke-width:1.0;" x1="244" x2="308" y1="525.3438" y2="525.3438"/><line style="stroke:#000000;stroke-width:1.0;" x1="16" x2="117" y1="491.1563" y2="491.1563"/><line style="stroke:#000000;stroke-width:1.0;" x1="7" x2="7" y1="456.9688" y2="474.0625"/><line style="stroke:#000000;stroke-width:1.0;" x1="117" x2="117" y1="491.1563" y2="508.25"/><line style="stroke:#000000;stroke-width:1.0;" x1="16" x2="16" y1="456.9688" y2="474.0625"/><line style="stroke:#000000;stroke-width:1.0;" x1="244" x2="244" y1="491.1563" y2="508.25"/><line style="stroke:#000000;stroke-width:1.0;" x1="308" x2="308" y1="491.1563" y2="508.25"/><line style="stroke:#000000;stroke-width:1.0;" x1="117" x2="117" y1="456.9688" y2="474.0625"/><line style="stroke:#000000;stroke-width:1.0;" x1="244" x2="244" y1="456.9688" y2="474.0625"/><line style="stroke:#000000;stroke-width:1.0;" x1="308" x2="308" y1="456.9688" y2="474.0625"/><line style="stroke:#000000;stroke-width:1.0;" x1="7" x2="7" y1="508.25" y2="525.3438"/><line style="stroke:#000000;stroke-width:1.0;" x1="16" x2="16" y1="508.25" y2="525.3438"/><line style="stroke:#000000;stroke-width:1.0;" x1="7" x2="7" y1="474.0625" y2="491.1563"/><line style="stroke:#000000;stroke-width:1.0;" x1="117" x2="117" y1="508.25" y2="525.3438"/><line style="stroke:#000000;stroke-width:1.0;" x1="16" x2="16" y1="474.0625" y2="491.1563"/><line style="stroke:#000000;stroke-width:1.0;" x1="244" x2="244" y1="508.25" y2="525.3438"/><line style="stroke:#000000;stroke-width:1.0;" x1="308" x2="308" y1="508.25" y2="525.3438"/><line style="stroke:#000000;stroke-width:1.0;" x1="117" x2="117" y1="474.0625" y2="491.1563"/><line style="stroke:#000000;stroke-width:1.0;" x1="244" x2="244" y1="474.0625" y2="491.1563"/><line style="stroke:#000000;stroke-width:1.0;" x1="308" x2="308" y1="474.0625" y2="491.1563"/><line style="stroke:#000000;stroke-width:1.0;" x1="7" x2="7" y1="491.1563" y2="508.25"/><line style="stroke:#000000;stroke-width:1.0;" x1="16" x2="16" y1="491.1563" y2="508.25"/><line style="stroke:#000000;stroke-width:1.0;" x1="6" x2="309" y1="438.875" y2="438.875"/><line style="stroke:#000000;stroke-width:1.0;" x1="6" x2="309" y1="526.3438" y2="526.3438"/><line style="stroke:#000000;stroke-width:1.0;" x1="6" x2="6" y1="438.875" y2="455.9688"/><line style="stroke:#000000;stroke-width:1.0;" x1="309" x2="309" y1="455.9688" y2="526.3438"/><line style="stroke:#000000;stroke-width:1.0;" x1="309" x2="309" y1="438.875" y2="455.9688"/><line style="stroke:#000000;stroke-width:1.0;" x1="6" x2="6" y1="455.9688" y2="526.3438"/><line style="stroke:#AAAAAA;stroke-width:1.0;" x1="6" x2="807" y1="531.8438" y2="531.8438"/><line style="stroke:#AAAAAA;stroke-width:1.0;" x1="808" x2="866" y1="531.8438" y2="531.8438"/><rect fill="#EEEEEE" height="19.0938" rx="5" ry="5" style="stroke:#000000;stroke-width:2.5;" width="60" x="10.5" y="540.8438"/><text fill="#000000" font-family="sans-serif" font-size="12" lengthAdjust="spacing" textLength="40" x="20.5" y="555.3008">Fermer</text><rect fill="#EEEEEE" height="19.0938" rx="5" ry="5" style="stroke:#000000;stroke-width:2.5;" width="92" x="77.5" y="540.8438"/><text fill="#000000" font-family="sans-serif" font-size="12" lengthAdjust="spacing" textLength="70" x="88.5" y="555.3008">Sauvegarder</text></g></svg>