<?xml version="1.0" encoding="UTF-8" standalone="no"?><svg xmlns="http://www.w3.org/2000/svg" xmlns:xlink="http://www.w3.org/1999/xlink" contentScriptType="application/ecmascript" contentStyleType="text/css" height="718px" preserveAspectRatio="none" style="width:1457px;height:718px;" version="1.1" viewBox="0 0 1457 718" width="1457px" zoomAndPan="magnify"><defs/><g><text fill="#000000" font-family="sans-serif" font-size="12" font-weight="bold" lengthAdjust="spacingAndGlyphs" textLength="248" x="9" y="18.457">Immat Navire - Lieu - Date fin marée - Métier</text><line style="stroke: #AAAAAA; stroke-width: 1.0; stroke-dasharray: 1.0,2.0;" x1="6" x2="545" y1="26.5938" y2="26.5938"/><text fill="#000000" font-family="sans-serif" font-size="12" lengthAdjust="spacingAndGlyphs" textLength="64" x="8" y="43.5508">General trip</text><line style="stroke: #000000; stroke-width: 1.0;" x1="6" x2="6" y1="31.0938" y2="46.1875"/><line style="stroke: #000000; stroke-width: 1.0;" x1="6" x2="75" y1="31.0938" y2="31.0938"/><line style="stroke: #000000; stroke-width: 1.0;" x1="75" x2="75" y1="31.0938" y2="46.1875"/><line style="stroke: #000000; stroke-width: 1.0;" x1="75" x2="85" y1="46.1875" y2="46.1875"/><text fill="#000000" font-family="sans-serif" font-size="12" lengthAdjust="spacingAndGlyphs" textLength="28" x="87" y="43.5508">Effort</text><line style="stroke: #000000; stroke-width: 1.0;" x1="85" x2="85" y1="31.0938" y2="46.1875"/><line style="stroke: #000000; stroke-width: 1.0;" x1="85" x2="118" y1="31.0938" y2="31.0938"/><line style="stroke: #000000; stroke-width: 1.0;" x1="118" x2="118" y1="31.0938" y2="46.1875"/><line style="stroke: #000000; stroke-width: 1.0;" x1="118" x2="128" y1="46.1875" y2="46.1875"/><text fill="#000000" font-family="sans-serif" font-size="12" lengthAdjust="spacingAndGlyphs" textLength="107" x="130" y="43.5508">Capture débarquée</text><line style="stroke: #000000; stroke-width: 1.0;" x1="128" x2="128" y1="31.0938" y2="46.1875"/><line style="stroke: #000000; stroke-width: 1.0;" x1="128" x2="240" y1="31.0938" y2="31.0938"/><line style="stroke: #000000; stroke-width: 1.0;" x1="240" x2="240" y1="31.0938" y2="46.1875"/><line style="stroke: #000000; stroke-width: 1.0;" x1="240" x2="250" y1="46.1875" y2="46.1875"/><text fill="#000000" font-family="sans-serif" font-size="12" lengthAdjust="spacingAndGlyphs" textLength="31" x="252" y="43.5508">Vente</text><line style="stroke: #000000; stroke-width: 1.0;" x1="250" x2="250" y1="31.0938" y2="46.1875"/><line style="stroke: #000000; stroke-width: 1.0;" x1="250" x2="286" y1="31.0938" y2="31.0938"/><line style="stroke: #000000; stroke-width: 1.0;" x1="286" x2="286" y1="31.0938" y2="46.1875"/><line style="stroke: #000000; stroke-width: 1.0;" x1="286" x2="296" y1="46.1875" y2="46.1875"/><text fill="#000000" font-family="sans-serif" font-size="12" font-weight="bold" lengthAdjust="spacingAndGlyphs" textLength="57" x="298" y="43.5508">Dépenses</text><line style="stroke: #000000; stroke-width: 1.0;" x1="296" x2="296" y1="31.0938" y2="46.1875"/><line style="stroke: #000000; stroke-width: 1.0;" x1="296" x2="358" y1="31.0938" y2="31.0938"/><line style="stroke: #000000; stroke-width: 1.0;" x1="358" x2="358" y1="31.0938" y2="46.1875"/><line style="stroke: #000000; stroke-width: 1.0;" x1="358" x2="368" y1="46.1875" y2="46.1875"/><text fill="#000000" font-family="sans-serif" font-size="12" lengthAdjust="spacingAndGlyphs" textLength="237" x="7" y="78.7383">Estimation des dépenses totales (Devise) :</text><path d="M252,70.375 C249.79,70.375 248,72.165 248,74.375 C248,76.585 249.79,78.375 252,78.375 C254.21,78.375 256,76.585 256,74.375 C256,72.165 254.21,70.375 252,70.375 M252,71.375 L255,74.375 L252,77.375 L252,75.375 L249,75.375 L249,73.375 L252,73.375 L252,71.375 " fill="#000000" style="stroke: ; stroke-width: 0.0; stroke-dasharray: ;"/><text fill="#000000" font-family="sans-serif" font-size="12" lengthAdjust="spacingAndGlyphs" textLength="0" x="266" y="79.7383"/><line style="stroke: #000000; stroke-width: 1.0;" x1="261" x2="352" y1="82.375" y2="82.375"/><line style="stroke: #000000; stroke-width: 1.0;" x1="261" x2="261" y1="79.375" y2="81.375"/><line style="stroke: #000000; stroke-width: 1.0;" x1="352" x2="352" y1="79.375" y2="81.375"/><line style="stroke: #000000; stroke-width: 1.0;" x1="259" x2="355" y1="66.2813" y2="66.2813"/><line style="stroke: #000000; stroke-width: 1.0;" x1="259" x2="355" y1="85.375" y2="85.375"/><line style="stroke: #000000; stroke-width: 1.0;" x1="259" x2="259" y1="66.2813" y2="85.375"/><line style="stroke: #000000; stroke-width: 1.0;" x1="355" x2="355" y1="66.2813" y2="85.375"/><path d="M358.094,66.2813 C358.034,66.2813 358,66.3153 358,66.3753 L358,74.1883 C358,74.2483 358.034,74.2823 358.094,74.2823 L364.907,74.2823 C364.967,74.2823 365.001,74.2483 365.001,74.1883 L365.001,66.3753 C365.001,66.3153 364.967,66.2813 364.907,66.2813 L358.094,66.2813 M359,67.2813 L364,67.2813 L364,69.2813 L359,69.2813 L359,67.2813 M359,70.2813 L360,70.2813 L360,71.2813 L359,71.2813 L359,70.2813 M361,70.2813 L362,70.2813 L362,71.2813 L361,71.2813 L361,70.2813 M363,70.2813 L364,70.2813 L364,73.2813 L363,73.2813 L363,70.2813 M359,72.2813 L360,72.2813 L360,73.2813 L359,73.2813 L359,72.2813 M361,72.2813 L362,72.2813 L362,73.2813 L361,73.2813 L361,72.2813 " fill="#000000" style="stroke: ; stroke-width: 0.0; stroke-dasharray: ;"/><text fill="#000000" font-family="sans-serif" font-size="12" lengthAdjust="spacingAndGlyphs" textLength="94" x="370" y="79.7383">Coût total calculé</text><text fill="#0000FF" font-family="sans-serif" font-size="12" lengthAdjust="spacingAndGlyphs" textLength="31" x="470" y="80.7383">354.0</text><text fill="#000000" font-family="sans-serif" font-size="12" lengthAdjust="spacingAndGlyphs" textLength="38" x="504" y="79.7383">Devise</text><line style="stroke: #AAAAAA; stroke-width: 1.0;" x1="6" x2="545" y1="91.875" y2="91.875"/><line style="stroke: #AAAAAA; stroke-width: 1.0;" x1="546" x2="767" y1="91.875" y2="91.875"/><text fill="#000000" font-family="sans-serif" font-size="12" font-weight="bold" lengthAdjust="spacingAndGlyphs" textLength="115" x="6" y="108.832">Détail des dépenses</text><line style="stroke: #AAAAAA; stroke-width: 1.0; stroke-dasharray: 1.0,2.0;" x1="6" x2="545" y1="116.9688" y2="116.9688"/><text fill="#000000" font-family="sans-serif" font-size="12" font-weight="bold" lengthAdjust="spacingAndGlyphs" textLength="149" x="8" y="151.0195">Fluides de fonctionnement</text><line style="stroke: #000000; stroke-width: 1.0;" x1="6" x2="6" y1="138.5625" y2="153.6563"/><line style="stroke: #000000; stroke-width: 1.0;" x1="6" x2="160" y1="138.5625" y2="138.5625"/><line style="stroke: #000000; stroke-width: 1.0;" x1="160" x2="160" y1="138.5625" y2="153.6563"/><line style="stroke: #000000; stroke-width: 1.0;" x1="160" x2="170" y1="153.6563" y2="153.6563"/><text fill="#000000" font-family="sans-serif" font-size="12" lengthAdjust="spacingAndGlyphs" textLength="78" x="172" y="151.0195">Frais annexes</text><line style="stroke: #000000; stroke-width: 1.0;" x1="170" x2="170" y1="138.5625" y2="153.6563"/><line style="stroke: #000000; stroke-width: 1.0;" x1="170" x2="253" y1="138.5625" y2="138.5625"/><line style="stroke: #000000; stroke-width: 1.0;" x1="253" x2="253" y1="138.5625" y2="153.6563"/><line style="stroke: #000000; stroke-width: 1.0;" x1="253" x2="263" y1="153.6563" y2="153.6563"/><text fill="#000000" font-family="sans-serif" font-size="12" lengthAdjust="spacingAndGlyphs" textLength="75" x="265" y="151.0195">Glace utilisée</text><line style="stroke: #000000; stroke-width: 1.0;" x1="263" x2="263" y1="138.5625" y2="153.6563"/><line style="stroke: #000000; stroke-width: 1.0;" x1="263" x2="343" y1="138.5625" y2="138.5625"/><line style="stroke: #000000; stroke-width: 1.0;" x1="343" x2="343" y1="138.5625" y2="153.6563"/><line style="stroke: #000000; stroke-width: 1.0;" x1="343" x2="353" y1="153.6563" y2="153.6563"/><text fill="#000000" font-family="sans-serif" font-size="12" lengthAdjust="spacingAndGlyphs" textLength="38" x="355" y="151.0195">Appâts</text><line style="stroke: #000000; stroke-width: 1.0;" x1="353" x2="353" y1="138.5625" y2="153.6563"/><line style="stroke: #000000; stroke-width: 1.0;" x1="353" x2="396" y1="138.5625" y2="138.5625"/><line style="stroke: #000000; stroke-width: 1.0;" x1="396" x2="396" y1="138.5625" y2="153.6563"/><line style="stroke: #000000; stroke-width: 1.0;" x1="396" x2="406" y1="153.6563" y2="153.6563"/><text fill="#000000" font-family="sans-serif" font-size="12" lengthAdjust="spacingAndGlyphs" textLength="60" x="110" y="187.207">Volume (L)</text><text fill="#000000" font-family="sans-serif" font-size="12" lengthAdjust="spacingAndGlyphs" textLength="79" x="234" y="187.207">Prix (Devise/L)</text><text fill="#000000" font-family="sans-serif" font-size="12" lengthAdjust="spacingAndGlyphs" textLength="95" x="358" y="187.207">Prix total (Devise)</text><rect fill="#EEEEEE" height="18.0938" style="stroke: #000000; stroke-width: 1.0;" width="87" x="8" y="193.8438"/><text fill="#000000" font-family="sans-serif" font-size="12" lengthAdjust="spacingAndGlyphs" textLength="55" x="10" y="208.3008">Carburant</text><line style="stroke: #000000; stroke-width: 1.0;" x1="84" x2="84" y1="193.8438" y2="211.9375"/><polygon fill="#000000" points="87,199.8438,93,199.8438,90,206.9375" style="stroke: #000000; stroke-width: 1.0;"/><path d="M115,193.8438 C112.79,193.8438 111,195.6338 111,197.8438 C111,200.0538 112.79,201.8438 115,201.8438 C117.21,201.8438 119,200.0538 119,197.8438 C119,195.6338 117.21,193.8438 115,193.8438 M115,194.8438 L118,197.8438 L115,200.8438 L115,198.8438 L112,198.8438 L112,196.8438 L115,196.8438 L115,194.8438 " fill="#000000" style="stroke: ; stroke-width: 0.0; stroke-dasharray: ;"/><text fill="#000000" font-family="sans-serif" font-size="12" lengthAdjust="spacingAndGlyphs" textLength="0" x="129" y="207.3008"/><line style="stroke: #000000; stroke-width: 1.0;" x1="124" x2="215" y1="209.9375" y2="209.9375"/><line style="stroke: #000000; stroke-width: 1.0;" x1="124" x2="124" y1="206.9375" y2="208.9375"/><line style="stroke: #000000; stroke-width: 1.0;" x1="215" x2="215" y1="206.9375" y2="208.9375"/><line style="stroke: #000000; stroke-width: 1.0;" x1="122" x2="218" y1="193.8438" y2="193.8438"/><line style="stroke: #000000; stroke-width: 1.0;" x1="122" x2="218" y1="212.9375" y2="212.9375"/><line style="stroke: #000000; stroke-width: 1.0;" x1="122" x2="122" y1="193.8438" y2="212.9375"/><line style="stroke: #000000; stroke-width: 1.0;" x1="218" x2="218" y1="193.8438" y2="212.9375"/><path d="M221.094,193.8438 C221.034,193.8438 221,193.8778 221,193.9378 L221,201.7508 C221,201.8108 221.034,201.8448 221.094,201.8448 L227.907,201.8448 C227.967,201.8448 228.001,201.8108 228.001,201.7508 L228.001,193.9378 C228.001,193.8778 227.967,193.8438 227.907,193.8438 L221.094,193.8438 M222,194.8438 L227,194.8438 L227,196.8438 L222,196.8438 L222,194.8438 M222,197.8438 L223,197.8438 L223,198.8438 L222,198.8438 L222,197.8438 M224,197.8438 L225,197.8438 L225,198.8438 L224,198.8438 L224,197.8438 M226,197.8438 L227,197.8438 L227,200.8438 L226,200.8438 L226,197.8438 M222,199.8438 L223,199.8438 L223,200.8438 L222,200.8438 L222,199.8438 M224,199.8438 L225,199.8438 L225,200.8438 L224,200.8438 L224,199.8438 " fill="#000000" style="stroke: ; stroke-width: 0.0; stroke-dasharray: ;"/><path d="M239,193.8438 C236.79,193.8438 235,195.6338 235,197.8438 C235,200.0538 236.79,201.8438 239,201.8438 C241.21,201.8438 243,200.0538 243,197.8438 C243,195.6338 241.21,193.8438 239,193.8438 M239,194.8438 L242,197.8438 L239,200.8438 L239,198.8438 L236,198.8438 L236,196.8438 L239,196.8438 L239,194.8438 " fill="#000000" style="stroke: ; stroke-width: 0.0; stroke-dasharray: ;"/><text fill="#000000" font-family="sans-serif" font-size="12" lengthAdjust="spacingAndGlyphs" textLength="0" x="253" y="207.3008"/><line style="stroke: #000000; stroke-width: 1.0;" x1="248" x2="339" y1="209.9375" y2="209.9375"/><line style="stroke: #000000; stroke-width: 1.0;" x1="248" x2="248" y1="206.9375" y2="208.9375"/><line style="stroke: #000000; stroke-width: 1.0;" x1="339" x2="339" y1="206.9375" y2="208.9375"/><line style="stroke: #000000; stroke-width: 1.0;" x1="246" x2="342" y1="193.8438" y2="193.8438"/><line style="stroke: #000000; stroke-width: 1.0;" x1="246" x2="342" y1="212.9375" y2="212.9375"/><line style="stroke: #000000; stroke-width: 1.0;" x1="246" x2="246" y1="193.8438" y2="212.9375"/><line style="stroke: #000000; stroke-width: 1.0;" x1="342" x2="342" y1="193.8438" y2="212.9375"/><path d="M345.094,193.8438 C345.034,193.8438 345,193.8778 345,193.9378 L345,201.7508 C345,201.8108 345.034,201.8448 345.094,201.8448 L351.907,201.8448 C351.967,201.8448 352.001,201.8108 352.001,201.7508 L352.001,193.9378 C352.001,193.8778 351.967,193.8438 351.907,193.8438 L345.094,193.8438 M346,194.8438 L351,194.8438 L351,196.8438 L346,196.8438 L346,194.8438 M346,197.8438 L347,197.8438 L347,198.8438 L346,198.8438 L346,197.8438 M348,197.8438 L349,197.8438 L349,198.8438 L348,198.8438 L348,197.8438 M350,197.8438 L351,197.8438 L351,200.8438 L350,200.8438 L350,197.8438 M346,199.8438 L347,199.8438 L347,200.8438 L346,200.8438 L346,199.8438 M348,199.8438 L349,199.8438 L349,200.8438 L348,200.8438 L348,199.8438 " fill="#000000" style="stroke: ; stroke-width: 0.0; stroke-dasharray: ;"/><path d="M363,193.8438 C360.79,193.8438 359,195.6338 359,197.8438 C359,200.0538 360.79,201.8438 363,201.8438 C365.21,201.8438 367,200.0538 367,197.8438 C367,195.6338 365.21,193.8438 363,193.8438 M363,194.8438 L366,197.8438 L363,200.8438 L363,198.8438 L360,198.8438 L360,196.8438 L363,196.8438 L363,194.8438 " fill="#000000" style="stroke: ; stroke-width: 0.0; stroke-dasharray: ;"/><text fill="#000000" font-family="sans-serif" font-size="12" lengthAdjust="spacingAndGlyphs" textLength="0" x="377" y="207.3008"/><line style="stroke: #000000; stroke-width: 1.0;" x1="372" x2="463" y1="209.9375" y2="209.9375"/><line style="stroke: #000000; stroke-width: 1.0;" x1="372" x2="372" y1="206.9375" y2="208.9375"/><line style="stroke: #000000; stroke-width: 1.0;" x1="463" x2="463" y1="206.9375" y2="208.9375"/><line style="stroke: #000000; stroke-width: 1.0;" x1="370" x2="466" y1="193.8438" y2="193.8438"/><line style="stroke: #000000; stroke-width: 1.0;" x1="370" x2="466" y1="212.9375" y2="212.9375"/><line style="stroke: #000000; stroke-width: 1.0;" x1="370" x2="370" y1="193.8438" y2="212.9375"/><line style="stroke: #000000; stroke-width: 1.0;" x1="466" x2="466" y1="193.8438" y2="212.9375"/><path d="M469.094,193.8438 C469.034,193.8438 469,193.8778 469,193.9378 L469,201.7508 C469,201.8108 469.034,201.8448 469.094,201.8448 L475.907,201.8448 C475.967,201.8448 476.001,201.8108 476.001,201.7508 L476.001,193.9378 C476.001,193.8778 475.967,193.8438 475.907,193.8438 L469.094,193.8438 M470,194.8438 L475,194.8438 L475,196.8438 L470,196.8438 L470,194.8438 M470,197.8438 L471,197.8438 L471,198.8438 L470,198.8438 L470,197.8438 M472,197.8438 L473,197.8438 L473,198.8438 L472,198.8438 L472,197.8438 M474,197.8438 L475,197.8438 L475,200.8438 L474,200.8438 L474,197.8438 M470,199.8438 L471,199.8438 L471,200.8438 L470,200.8438 L470,199.8438 M472,199.8438 L473,199.8438 L473,200.8438 L472,200.8438 L472,199.8438 " fill="#000000" style="stroke: ; stroke-width: 0.0; stroke-dasharray: ;"/><text fill="#000000" font-family="sans-serif" font-size="12" lengthAdjust="spacingAndGlyphs" textLength="92" x="7" y="228.3945">huile de moteur :</text><path d="M115,216.9375 C112.79,216.9375 111,218.7275 111,220.9375 C111,223.1475 112.79,224.9375 115,224.9375 C117.21,224.9375 119,223.1475 119,220.9375 C119,218.7275 117.21,216.9375 115,216.9375 M115,217.9375 L118,220.9375 L115,223.9375 L115,221.9375 L112,221.9375 L112,219.9375 L115,219.9375 L115,217.9375 " fill="#000000" style="stroke: ; stroke-width: 0.0; stroke-dasharray: ;"/><text fill="#000000" font-family="sans-serif" font-size="12" lengthAdjust="spacingAndGlyphs" textLength="0" x="129" y="230.3945"/><line style="stroke: #000000; stroke-width: 1.0;" x1="124" x2="215" y1="233.0313" y2="233.0313"/><line style="stroke: #000000; stroke-width: 1.0;" x1="124" x2="124" y1="230.0313" y2="232.0313"/><line style="stroke: #000000; stroke-width: 1.0;" x1="215" x2="215" y1="230.0313" y2="232.0313"/><line style="stroke: #000000; stroke-width: 1.0;" x1="122" x2="218" y1="216.9375" y2="216.9375"/><line style="stroke: #000000; stroke-width: 1.0;" x1="122" x2="218" y1="236.0313" y2="236.0313"/><line style="stroke: #000000; stroke-width: 1.0;" x1="122" x2="122" y1="216.9375" y2="236.0313"/><line style="stroke: #000000; stroke-width: 1.0;" x1="218" x2="218" y1="216.9375" y2="236.0313"/><path d="M221.094,216.9375 C221.034,216.9375 221,216.9715 221,217.0315 L221,224.8445 C221,224.9045 221.034,224.9385 221.094,224.9385 L227.907,224.9385 C227.967,224.9385 228.001,224.9045 228.001,224.8445 L228.001,217.0315 C228.001,216.9715 227.967,216.9375 227.907,216.9375 L221.094,216.9375 M222,217.9375 L227,217.9375 L227,219.9375 L222,219.9375 L222,217.9375 M222,220.9375 L223,220.9375 L223,221.9375 L222,221.9375 L222,220.9375 M224,220.9375 L225,220.9375 L225,221.9375 L224,221.9375 L224,220.9375 M226,220.9375 L227,220.9375 L227,223.9375 L226,223.9375 L226,220.9375 M222,222.9375 L223,222.9375 L223,223.9375 L222,223.9375 L222,222.9375 M224,222.9375 L225,222.9375 L225,223.9375 L224,223.9375 L224,222.9375 " fill="#000000" style="stroke: ; stroke-width: 0.0; stroke-dasharray: ;"/><path d="M239,216.9375 C236.79,216.9375 235,218.7275 235,220.9375 C235,223.1475 236.79,224.9375 239,224.9375 C241.21,224.9375 243,223.1475 243,220.9375 C243,218.7275 241.21,216.9375 239,216.9375 M239,217.9375 L242,220.9375 L239,223.9375 L239,221.9375 L236,221.9375 L236,219.9375 L239,219.9375 L239,217.9375 " fill="#000000" style="stroke: ; stroke-width: 0.0; stroke-dasharray: ;"/><text fill="#000000" font-family="sans-serif" font-size="12" lengthAdjust="spacingAndGlyphs" textLength="0" x="253" y="230.3945"/><line style="stroke: #000000; stroke-width: 1.0;" x1="248" x2="339" y1="233.0313" y2="233.0313"/><line style="stroke: #000000; stroke-width: 1.0;" x1="248" x2="248" y1="230.0313" y2="232.0313"/><line style="stroke: #000000; stroke-width: 1.0;" x1="339" x2="339" y1="230.0313" y2="232.0313"/><line style="stroke: #000000; stroke-width: 1.0;" x1="246" x2="342" y1="216.9375" y2="216.9375"/><line style="stroke: #000000; stroke-width: 1.0;" x1="246" x2="342" y1="236.0313" y2="236.0313"/><line style="stroke: #000000; stroke-width: 1.0;" x1="246" x2="246" y1="216.9375" y2="236.0313"/><line style="stroke: #000000; stroke-width: 1.0;" x1="342" x2="342" y1="216.9375" y2="236.0313"/><path d="M345.094,216.9375 C345.034,216.9375 345,216.9715 345,217.0315 L345,224.8445 C345,224.9045 345.034,224.9385 345.094,224.9385 L351.907,224.9385 C351.967,224.9385 352.001,224.9045 352.001,224.8445 L352.001,217.0315 C352.001,216.9715 351.967,216.9375 351.907,216.9375 L345.094,216.9375 M346,217.9375 L351,217.9375 L351,219.9375 L346,219.9375 L346,217.9375 M346,220.9375 L347,220.9375 L347,221.9375 L346,221.9375 L346,220.9375 M348,220.9375 L349,220.9375 L349,221.9375 L348,221.9375 L348,220.9375 M350,220.9375 L351,220.9375 L351,223.9375 L350,223.9375 L350,220.9375 M346,222.9375 L347,222.9375 L347,223.9375 L346,223.9375 L346,222.9375 M348,222.9375 L349,222.9375 L349,223.9375 L348,223.9375 L348,222.9375 " fill="#000000" style="stroke: ; stroke-width: 0.0; stroke-dasharray: ;"/><path d="M363,216.9375 C360.79,216.9375 359,218.7275 359,220.9375 C359,223.1475 360.79,224.9375 363,224.9375 C365.21,224.9375 367,223.1475 367,220.9375 C367,218.7275 365.21,216.9375 363,216.9375 M363,217.9375 L366,220.9375 L363,223.9375 L363,221.9375 L360,221.9375 L360,219.9375 L363,219.9375 L363,217.9375 " fill="#000000" style="stroke: ; stroke-width: 0.0; stroke-dasharray: ;"/><text fill="#000000" font-family="sans-serif" font-size="12" lengthAdjust="spacingAndGlyphs" textLength="0" x="377" y="230.3945"/><line style="stroke: #000000; stroke-width: 1.0;" x1="372" x2="463" y1="233.0313" y2="233.0313"/><line style="stroke: #000000; stroke-width: 1.0;" x1="372" x2="372" y1="230.0313" y2="232.0313"/><line style="stroke: #000000; stroke-width: 1.0;" x1="463" x2="463" y1="230.0313" y2="232.0313"/><line style="stroke: #000000; stroke-width: 1.0;" x1="370" x2="466" y1="216.9375" y2="216.9375"/><line style="stroke: #000000; stroke-width: 1.0;" x1="370" x2="466" y1="236.0313" y2="236.0313"/><line style="stroke: #000000; stroke-width: 1.0;" x1="370" x2="370" y1="216.9375" y2="236.0313"/><line style="stroke: #000000; stroke-width: 1.0;" x1="466" x2="466" y1="216.9375" y2="236.0313"/><path d="M469.094,216.9375 C469.034,216.9375 469,216.9715 469,217.0315 L469,224.8445 C469,224.9045 469.034,224.9385 469.094,224.9385 L475.907,224.9385 C475.967,224.9385 476.001,224.9045 476.001,224.8445 L476.001,217.0315 C476.001,216.9715 475.967,216.9375 475.907,216.9375 L469.094,216.9375 M470,217.9375 L475,217.9375 L475,219.9375 L470,219.9375 L470,217.9375 M470,220.9375 L471,220.9375 L471,221.9375 L470,221.9375 L470,220.9375 M472,220.9375 L473,220.9375 L473,221.9375 L472,221.9375 L472,220.9375 M474,220.9375 L475,220.9375 L475,223.9375 L474,223.9375 L474,220.9375 M470,222.9375 L471,222.9375 L471,223.9375 L470,223.9375 L470,222.9375 M472,222.9375 L473,222.9375 L473,223.9375 L472,223.9375 L472,222.9375 " fill="#000000" style="stroke: ; stroke-width: 0.0; stroke-dasharray: ;"/><text fill="#000000" font-family="sans-serif" font-size="12" lengthAdjust="spacingAndGlyphs" textLength="100" x="7" y="251.4883">huile hydraulique :</text><path d="M115,240.0313 C112.79,240.0313 111,241.8213 111,244.0313 C111,246.2413 112.79,248.0313 115,248.0313 C117.21,248.0313 119,246.2413 119,244.0313 C119,241.8213 117.21,240.0313 115,240.0313 M115,241.0313 L118,244.0313 L115,247.0313 L115,245.0313 L112,245.0313 L112,243.0313 L115,243.0313 L115,241.0313 " fill="#000000" style="stroke: ; stroke-width: 0.0; stroke-dasharray: ;"/><text fill="#000000" font-family="sans-serif" font-size="12" lengthAdjust="spacingAndGlyphs" textLength="0" x="129" y="253.4883"/><line style="stroke: #000000; stroke-width: 1.0;" x1="124" x2="215" y1="256.125" y2="256.125"/><line style="stroke: #000000; stroke-width: 1.0;" x1="124" x2="124" y1="253.125" y2="255.125"/><line style="stroke: #000000; stroke-width: 1.0;" x1="215" x2="215" y1="253.125" y2="255.125"/><line style="stroke: #000000; stroke-width: 1.0;" x1="122" x2="218" y1="240.0313" y2="240.0313"/><line style="stroke: #000000; stroke-width: 1.0;" x1="122" x2="218" y1="259.125" y2="259.125"/><line style="stroke: #000000; stroke-width: 1.0;" x1="122" x2="122" y1="240.0313" y2="259.125"/><line style="stroke: #000000; stroke-width: 1.0;" x1="218" x2="218" y1="240.0313" y2="259.125"/><path d="M221.094,240.0313 C221.034,240.0313 221,240.0653 221,240.1253 L221,247.9383 C221,247.9983 221.034,248.0323 221.094,248.0323 L227.907,248.0323 C227.967,248.0323 228.001,247.9983 228.001,247.9383 L228.001,240.1253 C228.001,240.0653 227.967,240.0313 227.907,240.0313 L221.094,240.0313 M222,241.0313 L227,241.0313 L227,243.0313 L222,243.0313 L222,241.0313 M222,244.0313 L223,244.0313 L223,245.0313 L222,245.0313 L222,244.0313 M224,244.0313 L225,244.0313 L225,245.0313 L224,245.0313 L224,244.0313 M226,244.0313 L227,244.0313 L227,247.0313 L226,247.0313 L226,244.0313 M222,246.0313 L223,246.0313 L223,247.0313 L222,247.0313 L222,246.0313 M224,246.0313 L225,246.0313 L225,247.0313 L224,247.0313 L224,246.0313 " fill="#000000" style="stroke: ; stroke-width: 0.0; stroke-dasharray: ;"/><path d="M239,240.0313 C236.79,240.0313 235,241.8213 235,244.0313 C235,246.2413 236.79,248.0313 239,248.0313 C241.21,248.0313 243,246.2413 243,244.0313 C243,241.8213 241.21,240.0313 239,240.0313 M239,241.0313 L242,244.0313 L239,247.0313 L239,245.0313 L236,245.0313 L236,243.0313 L239,243.0313 L239,241.0313 " fill="#000000" style="stroke: ; stroke-width: 0.0; stroke-dasharray: ;"/><text fill="#000000" font-family="sans-serif" font-size="12" lengthAdjust="spacingAndGlyphs" textLength="0" x="253" y="253.4883"/><line style="stroke: #000000; stroke-width: 1.0;" x1="248" x2="339" y1="256.125" y2="256.125"/><line style="stroke: #000000; stroke-width: 1.0;" x1="248" x2="248" y1="253.125" y2="255.125"/><line style="stroke: #000000; stroke-width: 1.0;" x1="339" x2="339" y1="253.125" y2="255.125"/><line style="stroke: #000000; stroke-width: 1.0;" x1="246" x2="342" y1="240.0313" y2="240.0313"/><line style="stroke: #000000; stroke-width: 1.0;" x1="246" x2="342" y1="259.125" y2="259.125"/><line style="stroke: #000000; stroke-width: 1.0;" x1="246" x2="246" y1="240.0313" y2="259.125"/><line style="stroke: #000000; stroke-width: 1.0;" x1="342" x2="342" y1="240.0313" y2="259.125"/><path d="M345.094,240.0313 C345.034,240.0313 345,240.0653 345,240.1253 L345,247.9383 C345,247.9983 345.034,248.0323 345.094,248.0323 L351.907,248.0323 C351.967,248.0323 352.001,247.9983 352.001,247.9383 L352.001,240.1253 C352.001,240.0653 351.967,240.0313 351.907,240.0313 L345.094,240.0313 M346,241.0313 L351,241.0313 L351,243.0313 L346,243.0313 L346,241.0313 M346,244.0313 L347,244.0313 L347,245.0313 L346,245.0313 L346,244.0313 M348,244.0313 L349,244.0313 L349,245.0313 L348,245.0313 L348,244.0313 M350,244.0313 L351,244.0313 L351,247.0313 L350,247.0313 L350,244.0313 M346,246.0313 L347,246.0313 L347,247.0313 L346,247.0313 L346,246.0313 M348,246.0313 L349,246.0313 L349,247.0313 L348,247.0313 L348,246.0313 " fill="#000000" style="stroke: ; stroke-width: 0.0; stroke-dasharray: ;"/><path d="M363,240.0313 C360.79,240.0313 359,241.8213 359,244.0313 C359,246.2413 360.79,248.0313 363,248.0313 C365.21,248.0313 367,246.2413 367,244.0313 C367,241.8213 365.21,240.0313 363,240.0313 M363,241.0313 L366,244.0313 L363,247.0313 L363,245.0313 L360,245.0313 L360,243.0313 L363,243.0313 L363,241.0313 " fill="#000000" style="stroke: ; stroke-width: 0.0; stroke-dasharray: ;"/><text fill="#000000" font-family="sans-serif" font-size="12" lengthAdjust="spacingAndGlyphs" textLength="0" x="377" y="253.4883"/><line style="stroke: #000000; stroke-width: 1.0;" x1="372" x2="463" y1="256.125" y2="256.125"/><line style="stroke: #000000; stroke-width: 1.0;" x1="372" x2="372" y1="253.125" y2="255.125"/><line style="stroke: #000000; stroke-width: 1.0;" x1="463" x2="463" y1="253.125" y2="255.125"/><line style="stroke: #000000; stroke-width: 1.0;" x1="370" x2="466" y1="240.0313" y2="240.0313"/><line style="stroke: #000000; stroke-width: 1.0;" x1="370" x2="466" y1="259.125" y2="259.125"/><line style="stroke: #000000; stroke-width: 1.0;" x1="370" x2="370" y1="240.0313" y2="259.125"/><line style="stroke: #000000; stroke-width: 1.0;" x1="466" x2="466" y1="240.0313" y2="259.125"/><path d="M469.094,240.0313 C469.034,240.0313 469,240.0653 469,240.1253 L469,247.9383 C469,247.9983 469.034,248.0323 469.094,248.0323 L475.907,248.0323 C475.967,248.0323 476.001,247.9983 476.001,247.9383 L476.001,240.1253 C476.001,240.0653 475.967,240.0313 475.907,240.0313 L469.094,240.0313 M470,241.0313 L475,241.0313 L475,243.0313 L470,243.0313 L470,241.0313 M470,244.0313 L471,244.0313 L471,245.0313 L470,245.0313 L470,244.0313 M472,244.0313 L473,244.0313 L473,245.0313 L472,245.0313 L472,244.0313 M474,244.0313 L475,244.0313 L475,247.0313 L474,247.0313 L474,244.0313 M470,246.0313 L471,246.0313 L471,247.0313 L470,247.0313 L470,246.0313 M472,246.0313 L473,246.0313 L473,247.0313 L472,247.0313 L472,246.0313 " fill="#000000" style="stroke: ; stroke-width: 0.0; stroke-dasharray: ;"/><line style="stroke: #AAAAAA; stroke-width: 1.0;" x1="6" x2="545" y1="283.7188" y2="283.7188"/><line style="stroke: #AAAAAA; stroke-width: 1.0;" x1="546" x2="767" y1="283.7188" y2="283.7188"/><text fill="#000000" font-family="sans-serif" font-size="12" lengthAdjust="spacingAndGlyphs" textLength="146" x="8" y="317.7695">Fluides de fonctionnement</text><line style="stroke: #000000; stroke-width: 1.0;" x1="6" x2="6" y1="305.3125" y2="320.4063"/><line style="stroke: #000000; stroke-width: 1.0;" x1="6" x2="157" y1="305.3125" y2="305.3125"/><line style="stroke: #000000; stroke-width: 1.0;" x1="157" x2="157" y1="305.3125" y2="320.4063"/><line style="stroke: #000000; stroke-width: 1.0;" x1="157" x2="167" y1="320.4063" y2="320.4063"/><text fill="#000000" font-family="sans-serif" font-size="12" font-weight="bold" lengthAdjust="spacingAndGlyphs" textLength="80" x="169" y="317.7695">Frais annexes</text><line style="stroke: #000000; stroke-width: 1.0;" x1="167" x2="167" y1="305.3125" y2="320.4063"/><line style="stroke: #000000; stroke-width: 1.0;" x1="167" x2="252" y1="305.3125" y2="305.3125"/><line style="stroke: #000000; stroke-width: 1.0;" x1="252" x2="252" y1="305.3125" y2="320.4063"/><line style="stroke: #000000; stroke-width: 1.0;" x1="252" x2="262" y1="320.4063" y2="320.4063"/><text fill="#000000" font-family="sans-serif" font-size="12" lengthAdjust="spacingAndGlyphs" textLength="75" x="264" y="317.7695">Glace utilisée</text><line style="stroke: #000000; stroke-width: 1.0;" x1="262" x2="262" y1="305.3125" y2="320.4063"/><line style="stroke: #000000; stroke-width: 1.0;" x1="262" x2="342" y1="305.3125" y2="305.3125"/><line style="stroke: #000000; stroke-width: 1.0;" x1="342" x2="342" y1="305.3125" y2="320.4063"/><line style="stroke: #000000; stroke-width: 1.0;" x1="342" x2="352" y1="320.4063" y2="320.4063"/><text fill="#000000" font-family="sans-serif" font-size="12" lengthAdjust="spacingAndGlyphs" textLength="38" x="354" y="317.7695">Appâts</text><line style="stroke: #000000; stroke-width: 1.0;" x1="352" x2="352" y1="305.3125" y2="320.4063"/><line style="stroke: #000000; stroke-width: 1.0;" x1="352" x2="395" y1="305.3125" y2="305.3125"/><line style="stroke: #000000; stroke-width: 1.0;" x1="395" x2="395" y1="305.3125" y2="320.4063"/><line style="stroke: #000000; stroke-width: 1.0;" x1="395" x2="405" y1="320.4063" y2="320.4063"/><text fill="#000000" font-family="sans-serif" font-size="12" lengthAdjust="spacingAndGlyphs" textLength="129" x="6" y="334.8633">Frais de débarquement</text><path d="M552,323.4063 C549.79,323.4063 548,325.1963 548,327.4063 C548,329.6163 549.79,331.4063 552,331.4063 C554.21,331.4063 556,329.6163 556,327.4063 C556,325.1963 554.21,323.4063 552,323.4063 M552,324.4063 L555,327.4063 L552,330.4063 L552,328.4063 L549,328.4063 L549,326.4063 L552,326.4063 L552,324.4063 " fill="#000000" style="stroke: ; stroke-width: 0.0; stroke-dasharray: ;"/><text fill="#000000" font-family="sans-serif" font-size="12" lengthAdjust="spacingAndGlyphs" textLength="0" x="566" y="336.8633"/><line style="stroke: #000000; stroke-width: 1.0;" x1="561" x2="652" y1="339.5" y2="339.5"/><line style="stroke: #000000; stroke-width: 1.0;" x1="561" x2="561" y1="336.5" y2="338.5"/><line style="stroke: #000000; stroke-width: 1.0;" x1="652" x2="652" y1="336.5" y2="338.5"/><line style="stroke: #000000; stroke-width: 1.0;" x1="559" x2="655" y1="323.4063" y2="323.4063"/><line style="stroke: #000000; stroke-width: 1.0;" x1="559" x2="655" y1="342.5" y2="342.5"/><line style="stroke: #000000; stroke-width: 1.0;" x1="559" x2="559" y1="323.4063" y2="342.5"/><line style="stroke: #000000; stroke-width: 1.0;" x1="655" x2="655" y1="323.4063" y2="342.5"/><path d="M658.094,323.4063 C658.034,323.4063 658,323.4403 658,323.5003 L658,331.3133 C658,331.3733 658.034,331.4073 658.094,331.4073 L664.907,331.4073 C664.967,331.4073 665.001,331.3733 665.001,331.3133 L665.001,323.5003 C665.001,323.4403 664.967,323.4063 664.907,323.4063 L658.094,323.4063 M659,324.4063 L664,324.4063 L664,326.4063 L659,326.4063 L659,324.4063 M659,327.4063 L660,327.4063 L660,328.4063 L659,328.4063 L659,327.4063 M661,327.4063 L662,327.4063 L662,328.4063 L661,328.4063 L661,327.4063 M663,327.4063 L664,327.4063 L664,330.4063 L663,330.4063 L663,327.4063 M659,329.4063 L660,329.4063 L660,330.4063 L659,330.4063 L659,329.4063 M661,329.4063 L662,329.4063 L662,330.4063 L661,330.4063 L661,329.4063 " fill="#000000" style="stroke: ; stroke-width: 0.0; stroke-dasharray: ;"/><text fill="#000000" font-family="sans-serif" font-size="12" lengthAdjust="spacingAndGlyphs" textLength="38" x="769" y="335.8633">Devise</text><text fill="#000000" font-family="sans-serif" font-size="12" lengthAdjust="spacingAndGlyphs" textLength="68" x="6" y="357.957">Alimentation</text><path d="M552,346.5 C549.79,346.5 548,348.29 548,350.5 C548,352.71 549.79,354.5 552,354.5 C554.21,354.5 556,352.71 556,350.5 C556,348.29 554.21,346.5 552,346.5 M552,347.5 L555,350.5 L552,353.5 L552,351.5 L549,351.5 L549,349.5 L552,349.5 L552,347.5 " fill="#000000" style="stroke: ; stroke-width: 0.0; stroke-dasharray: ;"/><text fill="#000000" font-family="sans-serif" font-size="12" lengthAdjust="spacingAndGlyphs" textLength="0" x="566" y="359.957"/><line style="stroke: #000000; stroke-width: 1.0;" x1="561" x2="652" y1="362.5938" y2="362.5938"/><line style="stroke: #000000; stroke-width: 1.0;" x1="561" x2="561" y1="359.5938" y2="361.5938"/><line style="stroke: #000000; stroke-width: 1.0;" x1="652" x2="652" y1="359.5938" y2="361.5938"/><line style="stroke: #000000; stroke-width: 1.0;" x1="559" x2="655" y1="346.5" y2="346.5"/><line style="stroke: #000000; stroke-width: 1.0;" x1="559" x2="655" y1="365.5938" y2="365.5938"/><line style="stroke: #000000; stroke-width: 1.0;" x1="559" x2="559" y1="346.5" y2="365.5938"/><line style="stroke: #000000; stroke-width: 1.0;" x1="655" x2="655" y1="346.5" y2="365.5938"/><path d="M658.094,346.5 C658.034,346.5 658,346.534 658,346.594 L658,354.407 C658,354.467 658.034,354.501 658.094,354.501 L664.907,354.501 C664.967,354.501 665.001,354.467 665.001,354.407 L665.001,346.594 C665.001,346.534 664.967,346.5 664.907,346.5 L658.094,346.5 M659,347.5 L664,347.5 L664,349.5 L659,349.5 L659,347.5 M659,350.5 L660,350.5 L660,351.5 L659,351.5 L659,350.5 M661,350.5 L662,350.5 L662,351.5 L661,351.5 L661,350.5 M663,350.5 L664,350.5 L664,353.5 L663,353.5 L663,350.5 M659,352.5 L660,352.5 L660,353.5 L659,353.5 L659,352.5 M661,352.5 L662,352.5 L662,353.5 L661,353.5 L661,352.5 " fill="#000000" style="stroke: ; stroke-width: 0.0; stroke-dasharray: ;"/><text fill="#000000" font-family="sans-serif" font-size="12" lengthAdjust="spacingAndGlyphs" textLength="38" x="769" y="358.957">Devise</text><text fill="#000000" font-family="sans-serif" font-size="12" lengthAdjust="spacingAndGlyphs" textLength="72" x="6" y="381.0508">Perte d'engin</text><path d="M552,369.5938 C549.79,369.5938 548,371.3838 548,373.5938 C548,375.8038 549.79,377.5938 552,377.5938 C554.21,377.5938 556,375.8038 556,373.5938 C556,371.3838 554.21,369.5938 552,369.5938 M552,370.5938 L555,373.5938 L552,376.5938 L552,374.5938 L549,374.5938 L549,372.5938 L552,372.5938 L552,370.5938 " fill="#000000" style="stroke: ; stroke-width: 0.0; stroke-dasharray: ;"/><text fill="#000000" font-family="sans-serif" font-size="12" lengthAdjust="spacingAndGlyphs" textLength="0" x="566" y="383.0508"/><line style="stroke: #000000; stroke-width: 1.0;" x1="561" x2="652" y1="385.6875" y2="385.6875"/><line style="stroke: #000000; stroke-width: 1.0;" x1="561" x2="561" y1="382.6875" y2="384.6875"/><line style="stroke: #000000; stroke-width: 1.0;" x1="652" x2="652" y1="382.6875" y2="384.6875"/><line style="stroke: #000000; stroke-width: 1.0;" x1="559" x2="655" y1="369.5938" y2="369.5938"/><line style="stroke: #000000; stroke-width: 1.0;" x1="559" x2="655" y1="388.6875" y2="388.6875"/><line style="stroke: #000000; stroke-width: 1.0;" x1="559" x2="559" y1="369.5938" y2="388.6875"/><line style="stroke: #000000; stroke-width: 1.0;" x1="655" x2="655" y1="369.5938" y2="388.6875"/><path d="M658.094,369.5938 C658.034,369.5938 658,369.6278 658,369.6878 L658,377.5008 C658,377.5608 658.034,377.5948 658.094,377.5948 L664.907,377.5948 C664.967,377.5948 665.001,377.5608 665.001,377.5008 L665.001,369.6878 C665.001,369.6278 664.967,369.5938 664.907,369.5938 L658.094,369.5938 M659,370.5938 L664,370.5938 L664,372.5938 L659,372.5938 L659,370.5938 M659,373.5938 L660,373.5938 L660,374.5938 L659,374.5938 L659,373.5938 M661,373.5938 L662,373.5938 L662,374.5938 L661,374.5938 L661,373.5938 M663,373.5938 L664,373.5938 L664,376.5938 L663,376.5938 L663,373.5938 M659,375.5938 L660,375.5938 L660,376.5938 L659,376.5938 L659,375.5938 M661,375.5938 L662,375.5938 L662,376.5938 L661,376.5938 L661,375.5938 " fill="#000000" style="stroke: ; stroke-width: 0.0; stroke-dasharray: ;"/><text fill="#000000" font-family="sans-serif" font-size="12" lengthAdjust="spacingAndGlyphs" textLength="38" x="769" y="382.0508">Devise</text><text fill="#000000" font-family="sans-serif" font-size="12" lengthAdjust="spacingAndGlyphs" textLength="28" x="6" y="404.1445">Autre</text><path d="M552,392.6875 C549.79,392.6875 548,394.4775 548,396.6875 C548,398.8975 549.79,400.6875 552,400.6875 C554.21,400.6875 556,398.8975 556,396.6875 C556,394.4775 554.21,392.6875 552,392.6875 M552,393.6875 L555,396.6875 L552,399.6875 L552,397.6875 L549,397.6875 L549,395.6875 L552,395.6875 L552,393.6875 " fill="#000000" style="stroke: ; stroke-width: 0.0; stroke-dasharray: ;"/><text fill="#000000" font-family="sans-serif" font-size="12" lengthAdjust="spacingAndGlyphs" textLength="0" x="566" y="406.1445"/><line style="stroke: #000000; stroke-width: 1.0;" x1="561" x2="652" y1="408.7813" y2="408.7813"/><line style="stroke: #000000; stroke-width: 1.0;" x1="561" x2="561" y1="405.7813" y2="407.7813"/><line style="stroke: #000000; stroke-width: 1.0;" x1="652" x2="652" y1="405.7813" y2="407.7813"/><line style="stroke: #000000; stroke-width: 1.0;" x1="559" x2="655" y1="392.6875" y2="392.6875"/><line style="stroke: #000000; stroke-width: 1.0;" x1="559" x2="655" y1="411.7813" y2="411.7813"/><line style="stroke: #000000; stroke-width: 1.0;" x1="559" x2="559" y1="392.6875" y2="411.7813"/><line style="stroke: #000000; stroke-width: 1.0;" x1="655" x2="655" y1="392.6875" y2="411.7813"/><path d="M658.094,392.6875 C658.034,392.6875 658,392.7215 658,392.7815 L658,400.5945 C658,400.6545 658.034,400.6885 658.094,400.6885 L664.907,400.6885 C664.967,400.6885 665.001,400.6545 665.001,400.5945 L665.001,392.7815 C665.001,392.7215 664.967,392.6875 664.907,392.6875 L658.094,392.6875 M659,393.6875 L664,393.6875 L664,395.6875 L659,395.6875 L659,393.6875 M659,396.6875 L660,396.6875 L660,397.6875 L659,397.6875 L659,396.6875 M661,396.6875 L662,396.6875 L662,397.6875 L661,397.6875 L661,396.6875 M663,396.6875 L664,396.6875 L664,399.6875 L663,399.6875 L663,396.6875 M659,398.6875 L660,398.6875 L660,399.6875 L659,399.6875 L659,398.6875 M661,398.6875 L662,398.6875 L662,399.6875 L661,399.6875 L661,398.6875 " fill="#000000" style="stroke: ; stroke-width: 0.0; stroke-dasharray: ;"/><text fill="#000000" font-family="sans-serif" font-size="12" lengthAdjust="spacingAndGlyphs" textLength="38" x="769" y="405.1445">Devise</text><text fill="#000000" font-family="sans-serif" font-size="12" lengthAdjust="spacingAndGlyphs" textLength="83" x="6" y="444.332">Commentaires</text><text fill="#000000" font-family="sans-serif" font-size="12" lengthAdjust="spacingAndGlyphs" textLength="80" x="550" y="445.332">commentaires</text><line style="stroke: #000000; stroke-width: 1.0;" x1="548" x2="703" y1="447.9688" y2="447.9688"/><line style="stroke: #000000; stroke-width: 1.0;" x1="548" x2="548" y1="444.9688" y2="446.9688"/><line style="stroke: #000000; stroke-width: 1.0;" x1="703" x2="703" y1="444.9688" y2="446.9688"/><line style="stroke: #AAAAAA; stroke-width: 1.0;" x1="6" x2="545" y1="473.5625" y2="473.5625"/><line style="stroke: #AAAAAA; stroke-width: 1.0;" x1="546" x2="767" y1="473.5625" y2="473.5625"/><text fill="#000000" font-family="sans-serif" font-size="12" lengthAdjust="spacingAndGlyphs" textLength="146" x="8" y="507.6133">Fluides de fonctionnement</text><line style="stroke: #000000; stroke-width: 1.0;" x1="6" x2="6" y1="495.1563" y2="510.25"/><line style="stroke: #000000; stroke-width: 1.0;" x1="6" x2="157" y1="495.1563" y2="495.1563"/><line style="stroke: #000000; stroke-width: 1.0;" x1="157" x2="157" y1="495.1563" y2="510.25"/><line style="stroke: #000000; stroke-width: 1.0;" x1="157" x2="167" y1="510.25" y2="510.25"/><text fill="#000000" font-family="sans-serif" font-size="12" lengthAdjust="spacingAndGlyphs" textLength="78" x="169" y="507.6133">Frais annexes</text><line style="stroke: #000000; stroke-width: 1.0;" x1="167" x2="167" y1="495.1563" y2="510.25"/><line style="stroke: #000000; stroke-width: 1.0;" x1="167" x2="250" y1="495.1563" y2="495.1563"/><line style="stroke: #000000; stroke-width: 1.0;" x1="250" x2="250" y1="495.1563" y2="510.25"/><line style="stroke: #000000; stroke-width: 1.0;" x1="250" x2="260" y1="510.25" y2="510.25"/><text fill="#000000" font-family="sans-serif" font-size="12" font-weight="bold" lengthAdjust="spacingAndGlyphs" textLength="76" x="262" y="507.6133">Glace utilisée</text><line style="stroke: #000000; stroke-width: 1.0;" x1="260" x2="260" y1="495.1563" y2="510.25"/><line style="stroke: #000000; stroke-width: 1.0;" x1="260" x2="341" y1="495.1563" y2="495.1563"/><line style="stroke: #000000; stroke-width: 1.0;" x1="341" x2="341" y1="495.1563" y2="510.25"/><line style="stroke: #000000; stroke-width: 1.0;" x1="341" x2="351" y1="510.25" y2="510.25"/><text fill="#000000" font-family="sans-serif" font-size="12" lengthAdjust="spacingAndGlyphs" textLength="38" x="353" y="507.6133">Appâts</text><line style="stroke: #000000; stroke-width: 1.0;" x1="351" x2="351" y1="495.1563" y2="510.25"/><line style="stroke: #000000; stroke-width: 1.0;" x1="351" x2="394" y1="495.1563" y2="495.1563"/><line style="stroke: #000000; stroke-width: 1.0;" x1="394" x2="394" y1="495.1563" y2="510.25"/><line style="stroke: #000000; stroke-width: 1.0;" x1="394" x2="404" y1="510.25" y2="510.25"/><text fill="#000000" font-family="sans-serif" font-size="12" lengthAdjust="spacingAndGlyphs" textLength="96" x="7" y="525.707">Quantité de glace</text><path d="M110,513.25 C107.79,513.25 106,515.04 106,517.25 C106,519.46 107.79,521.25 110,521.25 C112.21,521.25 114,519.46 114,517.25 C114,515.04 112.21,513.25 110,513.25 M110,514.25 L113,517.25 L110,520.25 L110,518.25 L107,518.25 L107,516.25 L110,516.25 L110,514.25 " fill="#000000" style="stroke: ; stroke-width: 0.0; stroke-dasharray: ;"/><text fill="#000000" font-family="sans-serif" font-size="12" lengthAdjust="spacingAndGlyphs" textLength="0" x="124" y="526.707"/><line style="stroke: #000000; stroke-width: 1.0;" x1="119" x2="210" y1="529.3438" y2="529.3438"/><line style="stroke: #000000; stroke-width: 1.0;" x1="119" x2="119" y1="526.3438" y2="528.3438"/><line style="stroke: #000000; stroke-width: 1.0;" x1="210" x2="210" y1="526.3438" y2="528.3438"/><line style="stroke: #000000; stroke-width: 1.0;" x1="117" x2="213" y1="513.25" y2="513.25"/><line style="stroke: #000000; stroke-width: 1.0;" x1="117" x2="213" y1="532.3438" y2="532.3438"/><line style="stroke: #000000; stroke-width: 1.0;" x1="117" x2="117" y1="513.25" y2="532.3438"/><line style="stroke: #000000; stroke-width: 1.0;" x1="213" x2="213" y1="513.25" y2="532.3438"/><path d="M216.094,513.25 C216.034,513.25 216,513.284 216,513.344 L216,521.157 C216,521.217 216.034,521.251 216.094,521.251 L222.907,521.251 C222.967,521.251 223.001,521.217 223.001,521.157 L223.001,513.344 C223.001,513.284 222.967,513.25 222.907,513.25 L216.094,513.25 M217,514.25 L222,514.25 L222,516.25 L217,516.25 L217,514.25 M217,517.25 L218,517.25 L218,518.25 L217,518.25 L217,517.25 M219,517.25 L220,517.25 L220,518.25 L219,518.25 L219,517.25 M221,517.25 L222,517.25 L222,520.25 L221,520.25 L221,517.25 M217,519.25 L218,519.25 L218,520.25 L217,520.25 L217,519.25 M219,519.25 L220,519.25 L220,520.25 L219,520.25 L219,519.25 " fill="#000000" style="stroke: ; stroke-width: 0.0; stroke-dasharray: ;"/><rect fill="#EEEEEE" height="18.0938" style="stroke: #000000; stroke-width: 1.0;" width="207" x="547" y="513.25"/><text fill="#000000" font-family="sans-serif" font-size="12" lengthAdjust="spacingAndGlyphs" textLength="131" x="549" y="527.707">Unité (au kg ou par sac)</text><line style="stroke: #000000; stroke-width: 1.0;" x1="743" x2="743" y1="513.25" y2="531.3438"/><polygon fill="#000000" points="746,519.25,752,519.25,749,526.3438" style="stroke: #000000; stroke-width: 1.0;"/><text fill="#000000" font-family="sans-serif" font-size="12" lengthAdjust="spacingAndGlyphs" textLength="89" x="769" y="525.707">Coût de la glace</text><path d="M865,513.25 C862.79,513.25 861,515.04 861,517.25 C861,519.46 862.79,521.25 865,521.25 C867.21,521.25 869,519.46 869,517.25 C869,515.04 867.21,513.25 865,513.25 M865,514.25 L868,517.25 L865,520.25 L865,518.25 L862,518.25 L862,516.25 L865,516.25 L865,514.25 " fill="#000000" style="stroke: ; stroke-width: 0.0; stroke-dasharray: ;"/><text fill="#000000" font-family="sans-serif" font-size="12" lengthAdjust="spacingAndGlyphs" textLength="0" x="879" y="526.707"/><line style="stroke: #000000; stroke-width: 1.0;" x1="874" x2="965" y1="529.3438" y2="529.3438"/><line style="stroke: #000000; stroke-width: 1.0;" x1="874" x2="874" y1="526.3438" y2="528.3438"/><line style="stroke: #000000; stroke-width: 1.0;" x1="965" x2="965" y1="526.3438" y2="528.3438"/><line style="stroke: #000000; stroke-width: 1.0;" x1="872" x2="968" y1="513.25" y2="513.25"/><line style="stroke: #000000; stroke-width: 1.0;" x1="872" x2="968" y1="532.3438" y2="532.3438"/><line style="stroke: #000000; stroke-width: 1.0;" x1="872" x2="872" y1="513.25" y2="532.3438"/><line style="stroke: #000000; stroke-width: 1.0;" x1="968" x2="968" y1="513.25" y2="532.3438"/><path d="M971.094,513.25 C971.034,513.25 971,513.284 971,513.344 L971,521.157 C971,521.217 971.034,521.251 971.094,521.251 L977.907,521.251 C977.967,521.251 978.001,521.217 978.001,521.157 L978.001,513.344 C978.001,513.284 977.967,513.25 977.907,513.25 L971.094,513.25 M972,514.25 L977,514.25 L977,516.25 L972,516.25 L972,514.25 M972,517.25 L973,517.25 L973,518.25 L972,518.25 L972,517.25 M974,517.25 L975,517.25 L975,518.25 L974,518.25 L974,517.25 M976,517.25 L977,517.25 L977,520.25 L976,520.25 L976,517.25 M972,519.25 L973,519.25 L973,520.25 L972,520.25 L972,519.25 M974,519.25 L975,519.25 L975,520.25 L974,520.25 L974,519.25 " fill="#000000" style="stroke: ; stroke-width: 0.0; stroke-dasharray: ;"/><text fill="#000000" font-family="sans-serif" font-size="12" lengthAdjust="spacingAndGlyphs" textLength="38" x="982" y="525.707">Devise</text><line style="stroke: #AAAAAA; stroke-width: 1.0;" x1="6" x2="545" y1="555.9375" y2="555.9375"/><line style="stroke: #AAAAAA; stroke-width: 1.0;" x1="546" x2="767" y1="555.9375" y2="555.9375"/><text fill="#000000" font-family="sans-serif" font-size="12" lengthAdjust="spacingAndGlyphs" textLength="146" x="8" y="589.9883">Fluides de fonctionnement</text><line style="stroke: #000000; stroke-width: 1.0;" x1="6" x2="6" y1="577.5313" y2="592.625"/><line style="stroke: #000000; stroke-width: 1.0;" x1="6" x2="157" y1="577.5313" y2="577.5313"/><line style="stroke: #000000; stroke-width: 1.0;" x1="157" x2="157" y1="577.5313" y2="592.625"/><line style="stroke: #000000; stroke-width: 1.0;" x1="157" x2="167" y1="592.625" y2="592.625"/><text fill="#000000" font-family="sans-serif" font-size="12" lengthAdjust="spacingAndGlyphs" textLength="78" x="169" y="589.9883">Frais annexes</text><line style="stroke: #000000; stroke-width: 1.0;" x1="167" x2="167" y1="577.5313" y2="592.625"/><line style="stroke: #000000; stroke-width: 1.0;" x1="167" x2="250" y1="577.5313" y2="577.5313"/><line style="stroke: #000000; stroke-width: 1.0;" x1="250" x2="250" y1="577.5313" y2="592.625"/><line style="stroke: #000000; stroke-width: 1.0;" x1="250" x2="260" y1="592.625" y2="592.625"/><text fill="#000000" font-family="sans-serif" font-size="12" lengthAdjust="spacingAndGlyphs" textLength="75" x="262" y="589.9883">Glace utilisée</text><line style="stroke: #000000; stroke-width: 1.0;" x1="260" x2="260" y1="577.5313" y2="592.625"/><line style="stroke: #000000; stroke-width: 1.0;" x1="260" x2="340" y1="577.5313" y2="577.5313"/><line style="stroke: #000000; stroke-width: 1.0;" x1="340" x2="340" y1="577.5313" y2="592.625"/><line style="stroke: #000000; stroke-width: 1.0;" x1="340" x2="350" y1="592.625" y2="592.625"/><text fill="#000000" font-family="sans-serif" font-size="12" font-weight="bold" lengthAdjust="spacingAndGlyphs" textLength="40" x="352" y="589.9883">Appâts</text><line style="stroke: #000000; stroke-width: 1.0;" x1="350" x2="350" y1="577.5313" y2="592.625"/><line style="stroke: #000000; stroke-width: 1.0;" x1="350" x2="395" y1="577.5313" y2="577.5313"/><line style="stroke: #000000; stroke-width: 1.0;" x1="395" x2="395" y1="577.5313" y2="592.625"/><line style="stroke: #000000; stroke-width: 1.0;" x1="395" x2="405" y1="592.625" y2="592.625"/><rect fill="#EEEEEE" height="18.0938" style="stroke: #000000; stroke-width: 1.0;" width="111" x="7" y="595.625"/><text fill="#000000" font-family="sans-serif" font-size="12" lengthAdjust="spacingAndGlyphs" textLength="69" x="9" y="610.082">Type d'appât</text><line style="stroke: #000000; stroke-width: 1.0;" x1="107" x2="107" y1="595.625" y2="613.7188"/><polygon fill="#000000" points="110,601.625,116,601.625,113,608.7188" style="stroke: #000000; stroke-width: 1.0;"/><text fill="#000000" font-family="sans-serif" font-size="12" lengthAdjust="spacingAndGlyphs" textLength="95" x="547" y="608.082">Nombre d'appâts</text><path d="M650,599.7188 C647.79,599.7188 646,601.5088 646,603.7188 C646,605.9288 647.79,607.7188 650,607.7188 C652.21,607.7188 654,605.9288 654,603.7188 C654,601.5088 652.21,599.7188 650,599.7188 M650,600.7188 L653,603.7188 L650,606.7188 L650,604.7188 L647,604.7188 L647,602.7188 L650,602.7188 L650,600.7188 " fill="#000000" style="stroke: ; stroke-width: 0.0; stroke-dasharray: ;"/><text fill="#000000" font-family="sans-serif" font-size="12" lengthAdjust="spacingAndGlyphs" textLength="0" x="664" y="609.082"/><line style="stroke: #000000; stroke-width: 1.0;" x1="659" x2="750" y1="611.7188" y2="611.7188"/><line style="stroke: #000000; stroke-width: 1.0;" x1="659" x2="659" y1="608.7188" y2="610.7188"/><line style="stroke: #000000; stroke-width: 1.0;" x1="750" x2="750" y1="608.7188" y2="610.7188"/><line style="stroke: #000000; stroke-width: 1.0;" x1="657" x2="753" y1="595.625" y2="595.625"/><line style="stroke: #000000; stroke-width: 1.0;" x1="657" x2="753" y1="614.7188" y2="614.7188"/><line style="stroke: #000000; stroke-width: 1.0;" x1="657" x2="657" y1="595.625" y2="614.7188"/><line style="stroke: #000000; stroke-width: 1.0;" x1="753" x2="753" y1="595.625" y2="614.7188"/><path d="M756.094,595.625 C756.034,595.625 756,595.659 756,595.719 L756,603.532 C756,603.592 756.034,603.626 756.094,603.626 L762.907,603.626 C762.967,603.626 763.001,603.592 763.001,603.532 L763.001,595.719 C763.001,595.659 762.967,595.625 762.907,595.625 L756.094,595.625 M757,596.625 L762,596.625 L762,598.625 L757,598.625 L757,596.625 M757,599.625 L758,599.625 L758,600.625 L757,600.625 L757,599.625 M759,599.625 L760,599.625 L760,600.625 L759,600.625 L759,599.625 M761,599.625 L762,599.625 L762,602.625 L761,602.625 L761,599.625 M757,601.625 L758,601.625 L758,602.625 L757,602.625 L757,601.625 M759,601.625 L760,601.625 L760,602.625 L759,602.625 L759,601.625 " fill="#000000" style="stroke: ; stroke-width: 0.0; stroke-dasharray: ;"/><rect fill="#EEEEEE" height="18.0938" style="stroke: #000000; stroke-width: 1.0;" width="423" x="769" y="595.625"/><text fill="#000000" font-family="sans-serif" font-size="12" lengthAdjust="spacingAndGlyphs" textLength="282" x="771" y="610.082">Unité de conditionnement (kg, unité, sac ou paquet)</text><line style="stroke: #000000; stroke-width: 1.0;" x1="1181" x2="1181" y1="595.625" y2="613.7188"/><polygon fill="#000000" points="1184,601.625,1190,601.625,1187,608.7188" style="stroke: #000000; stroke-width: 1.0;"/><text fill="#000000" font-family="sans-serif" font-size="12" lengthAdjust="spacingAndGlyphs" textLength="91" x="1197" y="608.082">Coût des appâts</text><path d="M1295,595.625 C1292.79,595.625 1291,597.415 1291,599.625 C1291,601.835 1292.79,603.625 1295,603.625 C1297.21,603.625 1299,601.835 1299,599.625 C1299,597.415 1297.21,595.625 1295,595.625 M1295,596.625 L1298,599.625 L1295,602.625 L1295,600.625 L1292,600.625 L1292,598.625 L1295,598.625 L1295,596.625 " fill="#000000" style="stroke: ; stroke-width: 0.0; stroke-dasharray: ;"/><text fill="#000000" font-family="sans-serif" font-size="12" lengthAdjust="spacingAndGlyphs" textLength="0" x="1309" y="609.082"/><line style="stroke: #000000; stroke-width: 1.0;" x1="1304" x2="1395" y1="611.7188" y2="611.7188"/><line style="stroke: #000000; stroke-width: 1.0;" x1="1304" x2="1304" y1="608.7188" y2="610.7188"/><line style="stroke: #000000; stroke-width: 1.0;" x1="1395" x2="1395" y1="608.7188" y2="610.7188"/><line style="stroke: #000000; stroke-width: 1.0;" x1="1302" x2="1398" y1="595.625" y2="595.625"/><line style="stroke: #000000; stroke-width: 1.0;" x1="1302" x2="1398" y1="614.7188" y2="614.7188"/><line style="stroke: #000000; stroke-width: 1.0;" x1="1302" x2="1302" y1="595.625" y2="614.7188"/><line style="stroke: #000000; stroke-width: 1.0;" x1="1398" x2="1398" y1="595.625" y2="614.7188"/><path d="M1401.094,595.625 C1401.034,595.625 1401,595.659 1401,595.719 L1401,603.532 C1401,603.592 1401.034,603.626 1401.094,603.626 L1407.907,603.626 C1407.967,603.626 1408.001,603.592 1408.001,603.532 L1408.001,595.719 C1408.001,595.659 1407.967,595.625 1407.907,595.625 L1401.094,595.625 M1402,596.625 L1407,596.625 L1407,598.625 L1402,598.625 L1402,596.625 M1402,599.625 L1403,599.625 L1403,600.625 L1402,600.625 L1402,599.625 M1404,599.625 L1405,599.625 L1405,600.625 L1404,600.625 L1404,599.625 M1406,599.625 L1407,599.625 L1407,602.625 L1406,602.625 L1406,599.625 M1402,601.625 L1403,601.625 L1403,602.625 L1402,602.625 L1402,601.625 M1404,601.625 L1405,601.625 L1405,602.625 L1404,602.625 L1404,601.625 " fill="#000000" style="stroke: ; stroke-width: 0.0; stroke-dasharray: ;"/><text fill="#000000" font-family="sans-serif" font-size="12" lengthAdjust="spacingAndGlyphs" textLength="38" x="1412" y="608.082">Devise</text><rect fill="#EEEEEE" height="18.0938" style="stroke: #000000; stroke-width: 1.0;" width="111" x="7" y="618.7188"/><text fill="#000000" font-family="sans-serif" font-size="12" lengthAdjust="spacingAndGlyphs" textLength="69" x="9" y="633.1758">Type d'appât</text><line style="stroke: #000000; stroke-width: 1.0;" x1="107" x2="107" y1="618.7188" y2="636.8125"/><polygon fill="#000000" points="110,624.7188,116,624.7188,113,631.8125" style="stroke: #000000; stroke-width: 1.0;"/><text fill="#000000" font-family="sans-serif" font-size="12" lengthAdjust="spacingAndGlyphs" textLength="95" x="547" y="631.1758">Nombre d'appâts</text><path d="M650,622.8125 C647.79,622.8125 646,624.6025 646,626.8125 C646,629.0225 647.79,630.8125 650,630.8125 C652.21,630.8125 654,629.0225 654,626.8125 C654,624.6025 652.21,622.8125 650,622.8125 M650,623.8125 L653,626.8125 L650,629.8125 L650,627.8125 L647,627.8125 L647,625.8125 L650,625.8125 L650,623.8125 " fill="#000000" style="stroke: ; stroke-width: 0.0; stroke-dasharray: ;"/><text fill="#000000" font-family="sans-serif" font-size="12" lengthAdjust="spacingAndGlyphs" textLength="0" x="664" y="632.1758"/><line style="stroke: #000000; stroke-width: 1.0;" x1="659" x2="750" y1="634.8125" y2="634.8125"/><line style="stroke: #000000; stroke-width: 1.0;" x1="659" x2="659" y1="631.8125" y2="633.8125"/><line style="stroke: #000000; stroke-width: 1.0;" x1="750" x2="750" y1="631.8125" y2="633.8125"/><line style="stroke: #000000; stroke-width: 1.0;" x1="657" x2="753" y1="618.7188" y2="618.7188"/><line style="stroke: #000000; stroke-width: 1.0;" x1="657" x2="753" y1="637.8125" y2="637.8125"/><line style="stroke: #000000; stroke-width: 1.0;" x1="657" x2="657" y1="618.7188" y2="637.8125"/><line style="stroke: #000000; stroke-width: 1.0;" x1="753" x2="753" y1="618.7188" y2="637.8125"/><path d="M756.094,618.7188 C756.034,618.7188 756,618.7528 756,618.8128 L756,626.6258 C756,626.6858 756.034,626.7198 756.094,626.7198 L762.907,626.7198 C762.967,626.7198 763.001,626.6858 763.001,626.6258 L763.001,618.8128 C763.001,618.7528 762.967,618.7188 762.907,618.7188 L756.094,618.7188 M757,619.7188 L762,619.7188 L762,621.7188 L757,621.7188 L757,619.7188 M757,622.7188 L758,622.7188 L758,623.7188 L757,623.7188 L757,622.7188 M759,622.7188 L760,622.7188 L760,623.7188 L759,623.7188 L759,622.7188 M761,622.7188 L762,622.7188 L762,625.7188 L761,625.7188 L761,622.7188 M757,624.7188 L758,624.7188 L758,625.7188 L757,625.7188 L757,624.7188 M759,624.7188 L760,624.7188 L760,625.7188 L759,625.7188 L759,624.7188 " fill="#000000" style="stroke: ; stroke-width: 0.0; stroke-dasharray: ;"/><rect fill="#EEEEEE" height="18.0938" style="stroke: #000000; stroke-width: 1.0;" width="423" x="769" y="618.7188"/><text fill="#000000" font-family="sans-serif" font-size="12" lengthAdjust="spacingAndGlyphs" textLength="282" x="771" y="633.1758">Unité de conditionnement (kg, unité, sac ou paquet)</text><line style="stroke: #000000; stroke-width: 1.0;" x1="1181" x2="1181" y1="618.7188" y2="636.8125"/><polygon fill="#000000" points="1184,624.7188,1190,624.7188,1187,631.8125" style="stroke: #000000; stroke-width: 1.0;"/><text fill="#000000" font-family="sans-serif" font-size="12" lengthAdjust="spacingAndGlyphs" textLength="91" x="1197" y="631.1758">Coût des appâts</text><path d="M1295,618.7188 C1292.79,618.7188 1291,620.5088 1291,622.7188 C1291,624.9288 1292.79,626.7188 1295,626.7188 C1297.21,626.7188 1299,624.9288 1299,622.7188 C1299,620.5088 1297.21,618.7188 1295,618.7188 M1295,619.7188 L1298,622.7188 L1295,625.7188 L1295,623.7188 L1292,623.7188 L1292,621.7188 L1295,621.7188 L1295,619.7188 " fill="#000000" style="stroke: ; stroke-width: 0.0; stroke-dasharray: ;"/><text fill="#000000" font-family="sans-serif" font-size="12" lengthAdjust="spacingAndGlyphs" textLength="0" x="1309" y="632.1758"/><line style="stroke: #000000; stroke-width: 1.0;" x1="1304" x2="1395" y1="634.8125" y2="634.8125"/><line style="stroke: #000000; stroke-width: 1.0;" x1="1304" x2="1304" y1="631.8125" y2="633.8125"/><line style="stroke: #000000; stroke-width: 1.0;" x1="1395" x2="1395" y1="631.8125" y2="633.8125"/><line style="stroke: #000000; stroke-width: 1.0;" x1="1302" x2="1398" y1="618.7188" y2="618.7188"/><line style="stroke: #000000; stroke-width: 1.0;" x1="1302" x2="1398" y1="637.8125" y2="637.8125"/><line style="stroke: #000000; stroke-width: 1.0;" x1="1302" x2="1302" y1="618.7188" y2="637.8125"/><line style="stroke: #000000; stroke-width: 1.0;" x1="1398" x2="1398" y1="618.7188" y2="637.8125"/><path d="M1401.094,618.7188 C1401.034,618.7188 1401,618.7528 1401,618.8128 L1401,626.6258 C1401,626.6858 1401.034,626.7198 1401.094,626.7198 L1407.907,626.7198 C1407.967,626.7198 1408.001,626.6858 1408.001,626.6258 L1408.001,618.8128 C1408.001,618.7528 1407.967,618.7188 1407.907,618.7188 L1401.094,618.7188 M1402,619.7188 L1407,619.7188 L1407,621.7188 L1402,621.7188 L1402,619.7188 M1402,622.7188 L1403,622.7188 L1403,623.7188 L1402,623.7188 L1402,622.7188 M1404,622.7188 L1405,622.7188 L1405,623.7188 L1404,623.7188 L1404,622.7188 M1406,622.7188 L1407,622.7188 L1407,625.7188 L1406,625.7188 L1406,622.7188 M1402,624.7188 L1403,624.7188 L1403,625.7188 L1402,625.7188 L1402,624.7188 M1404,624.7188 L1405,624.7188 L1405,625.7188 L1404,625.7188 L1404,624.7188 " fill="#000000" style="stroke: ; stroke-width: 0.0; stroke-dasharray: ;"/><text fill="#000000" font-family="sans-serif" font-size="12" lengthAdjust="spacingAndGlyphs" textLength="38" x="1412" y="631.1758">Devise</text><rect fill="#EEEEEE" height="18.0938" style="stroke: #000000; stroke-width: 1.0;" width="111" x="7" y="641.8125"/><text fill="#000000" font-family="sans-serif" font-size="12" lengthAdjust="spacingAndGlyphs" textLength="69" x="9" y="656.2695">Type d'appât</text><line style="stroke: #000000; stroke-width: 1.0;" x1="107" x2="107" y1="641.8125" y2="659.9063"/><polygon fill="#000000" points="110,647.8125,116,647.8125,113,654.9063" style="stroke: #000000; stroke-width: 1.0;"/><text fill="#000000" font-family="sans-serif" font-size="12" lengthAdjust="spacingAndGlyphs" textLength="95" x="547" y="654.2695">Nombre d'appâts</text><path d="M650,645.9063 C647.79,645.9063 646,647.6963 646,649.9063 C646,652.1163 647.79,653.9063 650,653.9063 C652.21,653.9063 654,652.1163 654,649.9063 C654,647.6963 652.21,645.9063 650,645.9063 M650,646.9063 L653,649.9063 L650,652.9063 L650,650.9063 L647,650.9063 L647,648.9063 L650,648.9063 L650,646.9063 " fill="#000000" style="stroke: ; stroke-width: 0.0; stroke-dasharray: ;"/><text fill="#000000" font-family="sans-serif" font-size="12" lengthAdjust="spacingAndGlyphs" textLength="0" x="664" y="655.2695"/><line style="stroke: #000000; stroke-width: 1.0;" x1="659" x2="750" y1="657.9063" y2="657.9063"/><line style="stroke: #000000; stroke-width: 1.0;" x1="659" x2="659" y1="654.9063" y2="656.9063"/><line style="stroke: #000000; stroke-width: 1.0;" x1="750" x2="750" y1="654.9063" y2="656.9063"/><line style="stroke: #000000; stroke-width: 1.0;" x1="657" x2="753" y1="641.8125" y2="641.8125"/><line style="stroke: #000000; stroke-width: 1.0;" x1="657" x2="753" y1="660.9063" y2="660.9063"/><line style="stroke: #000000; stroke-width: 1.0;" x1="657" x2="657" y1="641.8125" y2="660.9063"/><line style="stroke: #000000; stroke-width: 1.0;" x1="753" x2="753" y1="641.8125" y2="660.9063"/><path d="M756.094,641.8125 C756.034,641.8125 756,641.8465 756,641.9065 L756,649.7195 C756,649.7795 756.034,649.8135 756.094,649.8135 L762.907,649.8135 C762.967,649.8135 763.001,649.7795 763.001,649.7195 L763.001,641.9065 C763.001,641.8465 762.967,641.8125 762.907,641.8125 L756.094,641.8125 M757,642.8125 L762,642.8125 L762,644.8125 L757,644.8125 L757,642.8125 M757,645.8125 L758,645.8125 L758,646.8125 L757,646.8125 L757,645.8125 M759,645.8125 L760,645.8125 L760,646.8125 L759,646.8125 L759,645.8125 M761,645.8125 L762,645.8125 L762,648.8125 L761,648.8125 L761,645.8125 M757,647.8125 L758,647.8125 L758,648.8125 L757,648.8125 L757,647.8125 M759,647.8125 L760,647.8125 L760,648.8125 L759,648.8125 L759,647.8125 " fill="#000000" style="stroke: ; stroke-width: 0.0; stroke-dasharray: ;"/><rect fill="#EEEEEE" height="18.0938" style="stroke: #000000; stroke-width: 1.0;" width="423" x="769" y="641.8125"/><text fill="#000000" font-family="sans-serif" font-size="12" lengthAdjust="spacingAndGlyphs" textLength="282" x="771" y="656.2695">Unité de conditionnement (kg, unité, sac ou paquet)</text><line style="stroke: #000000; stroke-width: 1.0;" x1="1181" x2="1181" y1="641.8125" y2="659.9063"/><polygon fill="#000000" points="1184,647.8125,1190,647.8125,1187,654.9063" style="stroke: #000000; stroke-width: 1.0;"/><text fill="#000000" font-family="sans-serif" font-size="12" lengthAdjust="spacingAndGlyphs" textLength="91" x="1197" y="654.2695">Coût des appâts</text><path d="M1295,641.8125 C1292.79,641.8125 1291,643.6025 1291,645.8125 C1291,648.0225 1292.79,649.8125 1295,649.8125 C1297.21,649.8125 1299,648.0225 1299,645.8125 C1299,643.6025 1297.21,641.8125 1295,641.8125 M1295,642.8125 L1298,645.8125 L1295,648.8125 L1295,646.8125 L1292,646.8125 L1292,644.8125 L1295,644.8125 L1295,642.8125 " fill="#000000" style="stroke: ; stroke-width: 0.0; stroke-dasharray: ;"/><text fill="#000000" font-family="sans-serif" font-size="12" lengthAdjust="spacingAndGlyphs" textLength="0" x="1309" y="655.2695"/><line style="stroke: #000000; stroke-width: 1.0;" x1="1304" x2="1395" y1="657.9063" y2="657.9063"/><line style="stroke: #000000; stroke-width: 1.0;" x1="1304" x2="1304" y1="654.9063" y2="656.9063"/><line style="stroke: #000000; stroke-width: 1.0;" x1="1395" x2="1395" y1="654.9063" y2="656.9063"/><line style="stroke: #000000; stroke-width: 1.0;" x1="1302" x2="1398" y1="641.8125" y2="641.8125"/><line style="stroke: #000000; stroke-width: 1.0;" x1="1302" x2="1398" y1="660.9063" y2="660.9063"/><line style="stroke: #000000; stroke-width: 1.0;" x1="1302" x2="1302" y1="641.8125" y2="660.9063"/><line style="stroke: #000000; stroke-width: 1.0;" x1="1398" x2="1398" y1="641.8125" y2="660.9063"/><path d="M1401.094,641.8125 C1401.034,641.8125 1401,641.8465 1401,641.9065 L1401,649.7195 C1401,649.7795 1401.034,649.8135 1401.094,649.8135 L1407.907,649.8135 C1407.967,649.8135 1408.001,649.7795 1408.001,649.7195 L1408.001,641.9065 C1408.001,641.8465 1407.967,641.8125 1407.907,641.8125 L1401.094,641.8125 M1402,642.8125 L1407,642.8125 L1407,644.8125 L1402,644.8125 L1402,642.8125 M1402,645.8125 L1403,645.8125 L1403,646.8125 L1402,646.8125 L1402,645.8125 M1404,645.8125 L1405,645.8125 L1405,646.8125 L1404,646.8125 L1404,645.8125 M1406,645.8125 L1407,645.8125 L1407,648.8125 L1406,648.8125 L1406,645.8125 M1402,647.8125 L1403,647.8125 L1403,648.8125 L1402,648.8125 L1402,647.8125 M1404,647.8125 L1405,647.8125 L1405,648.8125 L1404,648.8125 L1404,647.8125 " fill="#000000" style="stroke: ; stroke-width: 0.0; stroke-dasharray: ;"/><text fill="#000000" font-family="sans-serif" font-size="12" lengthAdjust="spacingAndGlyphs" textLength="38" x="1412" y="654.2695">Devise</text><line style="stroke: #AAAAAA; stroke-width: 1.0;" x1="6" x2="545" y1="684.5" y2="684.5"/><line style="stroke: #AAAAAA; stroke-width: 1.0;" x1="546" x2="767" y1="684.5" y2="684.5"/><rect fill="#EEEEEE" height="19.0938" rx="5" ry="5" style="stroke: #000000; stroke-width: 2.5;" width="260" x="10.5" y="693.5"/><text fill="#000000" font-family="sans-serif" font-size="12" lengthAdjust="spacingAndGlyphs" textLength="170" x="55.5" y="707.957">Fermer et retour à l'observation</text><rect fill="#EEEEEE" height="19.0938" rx="5" ry="5" style="stroke: #000000; stroke-width: 2.5;" width="92" x="277.5" y="693.5"/><text fill="#000000" font-family="sans-serif" font-size="12" lengthAdjust="spacingAndGlyphs" textLength="61" x="293" y="707.957">Enregistrer</text></g></svg>