<?xml version="1.0" encoding="UTF-8" standalone="no"?><svg xmlns="http://www.w3.org/2000/svg" xmlns:xlink="http://www.w3.org/1999/xlink" contentScriptType="application/ecmascript" contentStyleType="text/css" height="565px" preserveAspectRatio="none" style="width:817px;height:565px;" version="1.1" viewBox="0 0 817 565" width="817px" zoomAndPan="magnify"><defs/><g><text fill="#000000" font-family="sans-serif" font-size="12" font-weight="bold" lengthAdjust="spacingAndGlyphs" textLength="130" x="9" y="18.457">Composition du paquet</text><rect fill="#EEEEEE" height="19.0938" rx="5" ry="5" style="stroke: #000000; stroke-width: 2.5;" width="52" x="754.5" y="8.5"/><text fill="#000000" font-family="sans-serif" font-size="12" lengthAdjust="spacingAndGlyphs" textLength="40" x="760.5" y="22.957">Fermer</text><line style="stroke: #AAAAAA; stroke-width: 1.0;" x1="6" x2="751" y1="35.5938" y2="35.5938"/><line style="stroke: #AAAAAA; stroke-width: 1.0;" x1="752" x2="810" y1="35.5938" y2="35.5938"/><text fill="#000000" font-family="sans-serif" font-size="12" lengthAdjust="spacingAndGlyphs" textLength="104" x="27" y="53.5508">Saisie mode rafale</text><ellipse cx="14" cy="48.6406" fill="none" rx="5" ry="5" style="stroke: #000000; stroke-width: 1.5;"/><ellipse cx="14" cy="48.6406" fill="#000000" rx="2" ry="2" style="stroke: #000000; stroke-width: 1.5;"/><text fill="#000000" font-family="sans-serif" font-size="12" lengthAdjust="spacingAndGlyphs" textLength="109" x="8" y="90.7383">Nombre de paquet :</text><text fill="#000000" font-family="sans-serif" font-size="12" lengthAdjust="spacingAndGlyphs" textLength="14" x="123" y="91.7383">55</text><line style="stroke: #000000; stroke-width: 1.0;" x1="121" x2="172" y1="94.375" y2="94.375"/><line style="stroke: #000000; stroke-width: 1.0;" x1="121" x2="121" y1="91.375" y2="93.375"/><line style="stroke: #000000; stroke-width: 1.0;" x1="172" x2="172" y1="91.375" y2="93.375"/><line style="stroke: #000000; stroke-width: 1.0;" x1="119" x2="175" y1="78.2813" y2="78.2813"/><line style="stroke: #000000; stroke-width: 1.0;" x1="119" x2="175" y1="97.375" y2="97.375"/><line style="stroke: #000000; stroke-width: 1.0;" x1="119" x2="119" y1="78.2813" y2="97.375"/><line style="stroke: #000000; stroke-width: 1.0;" x1="175" x2="175" y1="78.2813" y2="97.375"/><path d="M178.094,78.2813 C178.034,78.2813 178,78.3153 178,78.3753 L178,86.1883 C178,86.2483 178.034,86.2823 178.094,86.2823 L184.907,86.2823 C184.967,86.2823 185.001,86.2483 185.001,86.1883 L185.001,78.3753 C185.001,78.3153 184.967,78.2813 184.907,78.2813 L178.094,78.2813 M179,79.2813 L184,79.2813 L184,81.2813 L179,81.2813 L179,79.2813 M179,82.2813 L180,82.2813 L180,83.2813 L179,83.2813 L179,82.2813 M181,82.2813 L182,82.2813 L182,83.2813 L181,83.2813 L181,82.2813 M183,82.2813 L184,82.2813 L184,85.2813 L183,85.2813 L183,82.2813 M179,84.2813 L180,84.2813 L180,85.2813 L179,85.2813 L179,84.2813 M181,84.2813 L182,84.2813 L182,85.2813 L181,85.2813 L181,84.2813 " fill="#000000" style="stroke: ; stroke-width: 0.0; stroke-dasharray: ;"/><text fill="#000000" font-family="sans-serif" font-size="12" lengthAdjust="spacingAndGlyphs" textLength="172" x="190" y="91.7383">Poids total des paquets calculé</text><text fill="#0000FF" font-family="sans-serif" font-size="12" font-style="italic" lengthAdjust="spacingAndGlyphs" textLength="38" x="368" y="92.7383">527,10</text><line style="stroke: #000000; stroke-width: 1.0;" x1="366" x2="537" y1="95.375" y2="95.375"/><line style="stroke: #000000; stroke-width: 1.0;" x1="366" x2="366" y1="92.375" y2="94.375"/><line style="stroke: #000000; stroke-width: 1.0;" x1="537" x2="537" y1="92.375" y2="94.375"/><line style="stroke: #000000; stroke-width: 1.0;" x1="364" x2="540" y1="79.2813" y2="79.2813"/><line style="stroke: #000000; stroke-width: 1.0;" x1="364" x2="540" y1="98.375" y2="98.375"/><line style="stroke: #000000; stroke-width: 1.0;" x1="364" x2="364" y1="79.2813" y2="98.375"/><line style="stroke: #000000; stroke-width: 1.0;" x1="540" x2="540" y1="79.2813" y2="98.375"/><text fill="#000000" font-family="sans-serif" font-size="12" lengthAdjust="spacingAndGlyphs" textLength="153" x="8" y="115.832">Nombre d'échantillon saisi :</text><text fill="#0000FF" font-family="sans-serif" font-size="12" font-style="italic" lengthAdjust="spacingAndGlyphs" textLength="7" x="167" y="116.832">6</text><line style="stroke: #000000; stroke-width: 1.0;" x1="165" x2="296" y1="119.4688" y2="119.4688"/><line style="stroke: #000000; stroke-width: 1.0;" x1="165" x2="165" y1="116.4688" y2="118.4688"/><line style="stroke: #000000; stroke-width: 1.0;" x1="296" x2="296" y1="116.4688" y2="118.4688"/><line style="stroke: #000000; stroke-width: 1.0;" x1="163" x2="299" y1="103.375" y2="103.375"/><line style="stroke: #000000; stroke-width: 1.0;" x1="163" x2="299" y1="122.4688" y2="122.4688"/><line style="stroke: #000000; stroke-width: 1.0;" x1="163" x2="163" y1="103.375" y2="122.4688"/><line style="stroke: #000000; stroke-width: 1.0;" x1="299" x2="299" y1="103.375" y2="122.4688"/><text fill="#000000" font-family="sans-serif" font-size="12" font-style="italic" lengthAdjust="spacingAndGlyphs" textLength="402" x="302" y="116.832">Valeur s'incrémente toute seule (6=valeur maximum par defaut pour SFA)</text><line style="stroke: #AAAAAA; stroke-width: 1.0; stroke-dasharray: 1.0,2.0;" x1="6" x2="751" y1="147.0625" y2="147.0625"/><text fill="#000000" font-family="sans-serif" font-size="12" font-weight="bold" lengthAdjust="spacingAndGlyphs" textLength="129" x="7" y="165.0195">Ajouter un échantillon :</text><text fill="#000000" font-family="sans-serif" font-size="12" lengthAdjust="spacingAndGlyphs" textLength="144" x="7" y="182.1133">Poids de l'échantillon (kg):</text><text fill="#000000" font-family="sans-serif" font-size="12" lengthAdjust="spacingAndGlyphs" textLength="21" x="435" y="183.1133">160</text><line style="stroke: #000000; stroke-width: 1.0;" x1="433" x2="556" y1="185.75" y2="185.75"/><line style="stroke: #000000; stroke-width: 1.0;" x1="433" x2="433" y1="182.75" y2="184.75"/><line style="stroke: #000000; stroke-width: 1.0;" x1="556" x2="556" y1="182.75" y2="184.75"/><text fill="#000000" font-family="sans-serif" font-size="12" lengthAdjust="spacingAndGlyphs" textLength="125" x="7" y="220.3008">Espèce commerciale*:</text><rect fill="#EEEEEE" height="18.0938" style="stroke: #000000; stroke-width: 1.0;" width="119" x="432" y="208.8438"/><text fill="#000000" font-family="sans-serif" font-size="12" lengthAdjust="spacingAndGlyphs" textLength="69" x="434" y="223.3008">Anba lasann</text><line style="stroke: #000000; stroke-width: 1.0;" x1="540" x2="540" y1="208.8438" y2="226.9375"/><polygon fill="#000000" points="543,214.8438,549,214.8438,546,221.9375" style="stroke: #000000; stroke-width: 1.0;"/><text fill="#000000" font-family="sans-serif" font-size="12" lengthAdjust="spacingAndGlyphs" textLength="93" x="574" y="221.3008">Valeur par défaut</text><rect fill="none" height="10" style="stroke: #000000; stroke-width: 1.5;" width="10" x="556" y="211.3906"/><text fill="#000000" font-family="sans-serif" font-size="12" lengthAdjust="spacingAndGlyphs" textLength="63" x="7" y="243.3945">% (Σ=100) :</text><text fill="#000000" font-family="sans-serif" font-size="12" lengthAdjust="spacingAndGlyphs" textLength="14" x="435" y="244.3945">10</text><line style="stroke: #000000; stroke-width: 1.0;" x1="433" x2="516" y1="247.0313" y2="247.0313"/><line style="stroke: #000000; stroke-width: 1.0;" x1="433" x2="433" y1="244.0313" y2="246.0313"/><line style="stroke: #000000; stroke-width: 1.0;" x1="516" x2="516" y1="244.0313" y2="246.0313"/><rect fill="#EEEEEE" height="19.0938" rx="5" ry="5" style="stroke: #000000; stroke-width: 2.5;" width="148" x="434.5" y="255.5313"/><text fill="#000000" font-family="sans-serif" font-size="12" lengthAdjust="spacingAndGlyphs" textLength="92" x="462.5" y="269.9883">Valider (= Entrer)</text><rect fill="#EEEEEE" height="19.0938" rx="5" ry="5" style="stroke: #000000; stroke-width: 2.5;" width="156" x="589.5" y="255.5313"/><text fill="#000000" font-family="sans-serif" font-size="12" lengthAdjust="spacingAndGlyphs" textLength="104" x="615.5" y="269.9883">Annuler la dernière</text><text fill="#000000" font-family="sans-serif" font-size="12" lengthAdjust="spacingAndGlyphs" textLength="7" x="8" y="310.6758">#</text><text fill="#000000" font-family="sans-serif" font-size="12" font-weight="bold" lengthAdjust="spacingAndGlyphs" textLength="120" x="17" y="310.6758">Espèce commerciale</text><text fill="#000000" font-family="sans-serif" font-size="12" font-weight="bold" lengthAdjust="spacingAndGlyphs" textLength="55" x="139" y="310.6758">% (Σ=100)</text><text fill="#000000" font-family="sans-serif" font-size="12" lengthAdjust="spacingAndGlyphs" textLength="7" x="8" y="327.7695">2</text><text fill="#000000" font-family="sans-serif" font-size="12" lengthAdjust="spacingAndGlyphs" textLength="69" x="17" y="327.7695">Anba lasann</text><text fill="#000000" font-family="sans-serif" font-size="12" lengthAdjust="spacingAndGlyphs" textLength="14" x="139" y="327.7695">10</text><path d="M200,315.3125 C199.45,315.3125 199,315.7625 199,316.3125 L198,316.3125 C197.45,316.3125 197,316.7625 197,317.3125 L204,317.3125 C204,316.7625 203.55,316.3125 203,316.3125 L202,316.3125 C202,315.7625 201.55,315.3125 201,315.3125 L200,315.3125 M198,318.3125 L198,323.1255 C198,323.2355 198.077,323.3135 198.188,323.3135 L202.813,323.3135 C202.923,323.3135 203.001,323.2365 203.001,323.1255 L203.001,318.3125 L202.001,318.3125 L202.001,321.8125 C202.001,322.0925 201.781,322.3125 201.501,322.3125 C201.221,322.3125 201.001,322.0925 201.001,321.8125 L201.001,318.3125 L200.001,318.3125 L200.001,321.8125 C200.001,322.0925 199.781,322.3125 199.501,322.3125 C199.221,322.3125 199.001,322.0925 199.001,321.8125 L199.001,318.3125 L198.001,318.3125 " fill="#000000" style="stroke: ; stroke-width: 0.0; stroke-dasharray: ;"/><text fill="#000000" font-family="sans-serif" font-size="12" lengthAdjust="spacingAndGlyphs" textLength="7" x="8" y="344.8633">1</text><text fill="#000000" font-family="sans-serif" font-size="12" lengthAdjust="spacingAndGlyphs" textLength="41" x="17" y="344.8633">Albakor</text><text fill="#000000" font-family="sans-serif" font-size="12" lengthAdjust="spacingAndGlyphs" textLength="14" x="139" y="344.8633">90</text><path d="M200,332.4063 C199.45,332.4063 199,332.8563 199,333.4063 L198,333.4063 C197.45,333.4063 197,333.8563 197,334.4063 L204,334.4063 C204,333.8563 203.55,333.4063 203,333.4063 L202,333.4063 C202,332.8563 201.55,332.4063 201,332.4063 L200,332.4063 M198,335.4063 L198,340.2193 C198,340.3293 198.077,340.4073 198.188,340.4073 L202.813,340.4073 C202.923,340.4073 203.001,340.3303 203.001,340.2193 L203.001,335.4063 L202.001,335.4063 L202.001,338.9063 C202.001,339.1863 201.781,339.4063 201.501,339.4063 C201.221,339.4063 201.001,339.1863 201.001,338.9063 L201.001,335.4063 L200.001,335.4063 L200.001,338.9063 C200.001,339.1863 199.781,339.4063 199.501,339.4063 C199.221,339.4063 199.001,339.1863 199.001,338.9063 L199.001,335.4063 L198.001,335.4063 " fill="#000000" style="stroke: ; stroke-width: 0.0; stroke-dasharray: ;"/><line style="stroke: #000000; stroke-width: 1.0;" x1="7" x2="16" y1="297.2188" y2="297.2188"/><line style="stroke: #000000; stroke-width: 1.0;" x1="138" x2="195" y1="331.4063" y2="331.4063"/><line style="stroke: #000000; stroke-width: 1.0;" x1="16" x2="138" y1="297.2188" y2="297.2188"/><line style="stroke: #000000; stroke-width: 1.0;" x1="195" x2="207" y1="331.4063" y2="331.4063"/><line style="stroke: #000000; stroke-width: 1.0;" x1="138" x2="195" y1="297.2188" y2="297.2188"/><line style="stroke: #000000; stroke-width: 1.0;" x1="195" x2="207" y1="297.2188" y2="297.2188"/><line style="stroke: #000000; stroke-width: 1.0;" x1="7" x2="16" y1="348.5" y2="348.5"/><line style="stroke: #000000; stroke-width: 1.0;" x1="16" x2="138" y1="348.5" y2="348.5"/><line style="stroke: #000000; stroke-width: 1.0;" x1="138" x2="195" y1="348.5" y2="348.5"/><line style="stroke: #000000; stroke-width: 1.0;" x1="7" x2="16" y1="314.3125" y2="314.3125"/><line style="stroke: #000000; stroke-width: 1.0;" x1="195" x2="207" y1="348.5" y2="348.5"/><line style="stroke: #000000; stroke-width: 1.0;" x1="16" x2="138" y1="314.3125" y2="314.3125"/><line style="stroke: #000000; stroke-width: 1.0;" x1="138" x2="195" y1="314.3125" y2="314.3125"/><line style="stroke: #000000; stroke-width: 1.0;" x1="195" x2="207" y1="314.3125" y2="314.3125"/><line style="stroke: #000000; stroke-width: 1.0;" x1="7" x2="16" y1="331.4063" y2="331.4063"/><line style="stroke: #000000; stroke-width: 1.0;" x1="16" x2="138" y1="331.4063" y2="331.4063"/><line style="stroke: #000000; stroke-width: 1.0;" x1="7" x2="7" y1="297.2188" y2="314.3125"/><line style="stroke: #000000; stroke-width: 1.0;" x1="138" x2="138" y1="331.4063" y2="348.5"/><line style="stroke: #000000; stroke-width: 1.0;" x1="16" x2="16" y1="297.2188" y2="314.3125"/><line style="stroke: #000000; stroke-width: 1.0;" x1="195" x2="195" y1="331.4063" y2="348.5"/><line style="stroke: #000000; stroke-width: 1.0;" x1="207" x2="207" y1="331.4063" y2="348.5"/><line style="stroke: #000000; stroke-width: 1.0;" x1="138" x2="138" y1="297.2188" y2="314.3125"/><line style="stroke: #000000; stroke-width: 1.0;" x1="195" x2="195" y1="297.2188" y2="314.3125"/><line style="stroke: #000000; stroke-width: 1.0;" x1="207" x2="207" y1="297.2188" y2="314.3125"/><line style="stroke: #000000; stroke-width: 1.0;" x1="7" x2="7" y1="314.3125" y2="331.4063"/><line style="stroke: #000000; stroke-width: 1.0;" x1="16" x2="16" y1="314.3125" y2="331.4063"/><line style="stroke: #000000; stroke-width: 1.0;" x1="138" x2="138" y1="314.3125" y2="331.4063"/><line style="stroke: #000000; stroke-width: 1.0;" x1="195" x2="195" y1="314.3125" y2="331.4063"/><line style="stroke: #000000; stroke-width: 1.0;" x1="207" x2="207" y1="314.3125" y2="331.4063"/><line style="stroke: #000000; stroke-width: 1.0;" x1="7" x2="7" y1="331.4063" y2="348.5"/><line style="stroke: #000000; stroke-width: 1.0;" x1="16" x2="16" y1="331.4063" y2="348.5"/><text fill="#FF0000" font-family="sans-serif" font-size="12" font-style="italic" lengthAdjust="spacingAndGlyphs" textLength="163" x="432" y="310.6758">Si la Σ n'est pas égal à 100 %,</text><text fill="#FF0000" font-family="sans-serif" font-size="12" font-style="italic" lengthAdjust="spacingAndGlyphs" textLength="255" x="432" y="327.7695">alors il n'est as possible de valider l'échantillon</text><rect fill="#EEEEEE" height="19.0938" rx="5" ry="5" style="stroke: #000000; stroke-width: 2.5;" width="244" x="10.5" y="371.0938"/><text fill="#000000" font-family="sans-serif" font-size="12" lengthAdjust="spacingAndGlyphs" textLength="160" x="52.5" y="385.5508">Nouvel échantillon (= Valider)</text><rect fill="#EEEEEE" height="19.0938" rx="5" ry="5" style="stroke: #000000; stroke-width: 2.5;" width="164" x="261.5" y="371.0938"/><text fill="#000000" font-family="sans-serif" font-size="12" lengthAdjust="spacingAndGlyphs" textLength="108" x="289.5" y="385.5508">Fin échantillonnage</text><line style="stroke: #000000; stroke-width: 1.0;" x1="6" x2="430" y1="151.5625" y2="151.5625"/><line style="stroke: #000000; stroke-width: 1.0;" x1="430" x2="750" y1="151.5625" y2="151.5625"/><line style="stroke: #000000; stroke-width: 1.0;" x1="6" x2="430" y1="394.6875" y2="394.6875"/><line style="stroke: #000000; stroke-width: 1.0;" x1="430" x2="750" y1="394.6875" y2="394.6875"/><line style="stroke: #000000; stroke-width: 1.0;" x1="6" x2="6" y1="151.5625" y2="168.6563"/><line style="stroke: #000000; stroke-width: 1.0;" x1="750" x2="750" y1="189.75" y2="206.8438"/><line style="stroke: #000000; stroke-width: 1.0;" x1="750" x2="750" y1="151.5625" y2="168.6563"/><line style="stroke: #000000; stroke-width: 1.0;" x1="6" x2="6" y1="366.5938" y2="394.6875"/><line style="stroke: #000000; stroke-width: 1.0;" x1="6" x2="6" y1="296.2188" y2="349.5"/><line style="stroke: #000000; stroke-width: 1.0;" x1="750" x2="750" y1="366.5938" y2="394.6875"/><line style="stroke: #000000; stroke-width: 1.0;" x1="6" x2="6" y1="251.0313" y2="279.125"/><line style="stroke: #000000; stroke-width: 1.0;" x1="750" x2="750" y1="296.2188" y2="349.5"/><line style="stroke: #000000; stroke-width: 1.0;" x1="6" x2="6" y1="206.8438" y2="229.9375"/><line style="stroke: #000000; stroke-width: 1.0;" x1="750" x2="750" y1="251.0313" y2="279.125"/><line style="stroke: #000000; stroke-width: 1.0;" x1="6" x2="6" y1="168.6563" y2="189.75"/><line style="stroke: #000000; stroke-width: 1.0;" x1="750" x2="750" y1="206.8438" y2="229.9375"/><line style="stroke: #000000; stroke-width: 1.0;" x1="750" x2="750" y1="168.6563" y2="189.75"/><line style="stroke: #000000; stroke-width: 1.0;" x1="6" x2="6" y1="349.5" y2="366.5938"/><line style="stroke: #000000; stroke-width: 1.0;" x1="6" x2="6" y1="279.125" y2="296.2188"/><line style="stroke: #000000; stroke-width: 1.0;" x1="750" x2="750" y1="349.5" y2="366.5938"/><line style="stroke: #000000; stroke-width: 1.0;" x1="6" x2="6" y1="229.9375" y2="251.0313"/><line style="stroke: #000000; stroke-width: 1.0;" x1="750" x2="750" y1="279.125" y2="296.2188"/><line style="stroke: #000000; stroke-width: 1.0;" x1="6" x2="6" y1="189.75" y2="206.8438"/><line style="stroke: #000000; stroke-width: 1.0;" x1="750" x2="750" y1="229.9375" y2="251.0313"/><line style="stroke: #AAAAAA; stroke-width: 1.0;" x1="6" x2="751" y1="417.2813" y2="417.2813"/><line style="stroke: #AAAAAA; stroke-width: 1.0;" x1="752" x2="810" y1="417.2813" y2="417.2813"/><text fill="#000000" font-family="sans-serif" font-size="12" font-weight="bold" lengthAdjust="spacingAndGlyphs" textLength="300" x="7" y="452.332">Poids estimé calculé par espèce pour le paquet (kg) :</text><text fill="#000000" font-family="sans-serif" font-size="12" lengthAdjust="spacingAndGlyphs" textLength="7" x="8" y="470.4258">#</text><text fill="#000000" font-family="sans-serif" font-size="12" font-weight="bold" lengthAdjust="spacingAndGlyphs" textLength="125" x="17" y="470.4258">Espèce commerciale*</text><text fill="#000000" font-family="sans-serif" font-size="12" font-weight="bold" lengthAdjust="spacingAndGlyphs" textLength="62" x="144" y="470.4258">Poids (kg)*</text><text fill="#000000" font-family="sans-serif" font-size="12" lengthAdjust="spacingAndGlyphs" textLength="7" x="8" y="487.5195">1</text><text fill="#000000" font-family="sans-serif" font-size="12" lengthAdjust="spacingAndGlyphs" textLength="41" x="17" y="487.5195">Albakor</text><text fill="#0000FF" font-family="sans-serif" font-size="12" font-style="italic" lengthAdjust="spacingAndGlyphs" textLength="38" x="144" y="487.5195">241.03</text><text fill="#000000" font-family="sans-serif" font-size="12" lengthAdjust="spacingAndGlyphs" textLength="7" x="8" y="504.6133">2</text><text fill="#000000" font-family="sans-serif" font-size="12" lengthAdjust="spacingAndGlyphs" textLength="69" x="17" y="504.6133">Anba lasann</text><text fill="#0000FF" font-family="sans-serif" font-size="12" font-style="italic" lengthAdjust="spacingAndGlyphs" textLength="38" x="144" y="504.6133">180.97</text><text fill="#000000" font-family="sans-serif" font-size="12" lengthAdjust="spacingAndGlyphs" textLength="7" x="8" y="521.707">3</text><text fill="#000000" font-family="sans-serif" font-size="12" lengthAdjust="spacingAndGlyphs" textLength="74" x="17" y="521.707">Babonn Zonn</text><text fill="#0000FF" font-family="sans-serif" font-size="12" font-style="italic" lengthAdjust="spacingAndGlyphs" textLength="38" x="144" y="521.707">105.10</text><line style="stroke: #000000; stroke-width: 1.0;" x1="7" x2="16" y1="456.9688" y2="456.9688"/><line style="stroke: #000000; stroke-width: 1.0;" x1="143" x2="207" y1="491.1563" y2="491.1563"/><line style="stroke: #000000; stroke-width: 1.0;" x1="16" x2="143" y1="456.9688" y2="456.9688"/><line style="stroke: #000000; stroke-width: 1.0;" x1="143" x2="207" y1="456.9688" y2="456.9688"/><line style="stroke: #000000; stroke-width: 1.0;" x1="7" x2="16" y1="508.25" y2="508.25"/><line style="stroke: #000000; stroke-width: 1.0;" x1="16" x2="143" y1="508.25" y2="508.25"/><line style="stroke: #000000; stroke-width: 1.0;" x1="7" x2="16" y1="474.0625" y2="474.0625"/><line style="stroke: #000000; stroke-width: 1.0;" x1="143" x2="207" y1="508.25" y2="508.25"/><line style="stroke: #000000; stroke-width: 1.0;" x1="16" x2="143" y1="474.0625" y2="474.0625"/><line style="stroke: #000000; stroke-width: 1.0;" x1="143" x2="207" y1="474.0625" y2="474.0625"/><line style="stroke: #000000; stroke-width: 1.0;" x1="7" x2="16" y1="525.3438" y2="525.3438"/><line style="stroke: #000000; stroke-width: 1.0;" x1="16" x2="143" y1="525.3438" y2="525.3438"/><line style="stroke: #000000; stroke-width: 1.0;" x1="143" x2="207" y1="525.3438" y2="525.3438"/><line style="stroke: #000000; stroke-width: 1.0;" x1="7" x2="16" y1="491.1563" y2="491.1563"/><line style="stroke: #000000; stroke-width: 1.0;" x1="16" x2="143" y1="491.1563" y2="491.1563"/><line style="stroke: #000000; stroke-width: 1.0;" x1="7" x2="7" y1="456.9688" y2="474.0625"/><line style="stroke: #000000; stroke-width: 1.0;" x1="143" x2="143" y1="491.1563" y2="508.25"/><line style="stroke: #000000; stroke-width: 1.0;" x1="207" x2="207" y1="491.1563" y2="508.25"/><line style="stroke: #000000; stroke-width: 1.0;" x1="16" x2="16" y1="456.9688" y2="474.0625"/><line style="stroke: #000000; stroke-width: 1.0;" x1="143" x2="143" y1="456.9688" y2="474.0625"/><line style="stroke: #000000; stroke-width: 1.0;" x1="207" x2="207" y1="456.9688" y2="474.0625"/><line style="stroke: #000000; stroke-width: 1.0;" x1="7" x2="7" y1="508.25" y2="525.3438"/><line style="stroke: #000000; stroke-width: 1.0;" x1="16" x2="16" y1="508.25" y2="525.3438"/><line style="stroke: #000000; stroke-width: 1.0;" x1="7" x2="7" y1="474.0625" y2="491.1563"/><line style="stroke: #000000; stroke-width: 1.0;" x1="143" x2="143" y1="508.25" y2="525.3438"/><line style="stroke: #000000; stroke-width: 1.0;" x1="207" x2="207" y1="508.25" y2="525.3438"/><line style="stroke: #000000; stroke-width: 1.0;" x1="16" x2="16" y1="474.0625" y2="491.1563"/><line style="stroke: #000000; stroke-width: 1.0;" x1="143" x2="143" y1="474.0625" y2="491.1563"/><line style="stroke: #000000; stroke-width: 1.0;" x1="207" x2="207" y1="474.0625" y2="491.1563"/><line style="stroke: #000000; stroke-width: 1.0;" x1="7" x2="7" y1="491.1563" y2="508.25"/><line style="stroke: #000000; stroke-width: 1.0;" x1="16" x2="16" y1="491.1563" y2="508.25"/><line style="stroke: #000000; stroke-width: 1.0;" x1="6" x2="308" y1="438.875" y2="438.875"/><line style="stroke: #000000; stroke-width: 1.0;" x1="6" x2="308" y1="526.3438" y2="526.3438"/><line style="stroke: #000000; stroke-width: 1.0;" x1="6" x2="6" y1="438.875" y2="455.9688"/><line style="stroke: #000000; stroke-width: 1.0;" x1="308" x2="308" y1="455.9688" y2="526.3438"/><line style="stroke: #000000; stroke-width: 1.0;" x1="308" x2="308" y1="438.875" y2="455.9688"/><line style="stroke: #000000; stroke-width: 1.0;" x1="6" x2="6" y1="455.9688" y2="526.3438"/><line style="stroke: #AAAAAA; stroke-width: 1.0;" x1="6" x2="751" y1="531.8438" y2="531.8438"/><line style="stroke: #AAAAAA; stroke-width: 1.0;" x1="752" x2="810" y1="531.8438" y2="531.8438"/><rect fill="#EEEEEE" height="19.0938" rx="5" ry="5" style="stroke: #000000; stroke-width: 2.5;" width="60" x="10.5" y="540.8438"/><text fill="#000000" font-family="sans-serif" font-size="12" lengthAdjust="spacingAndGlyphs" textLength="40" x="20.5" y="555.3008">Fermer</text><rect fill="#EEEEEE" height="19.0938" rx="5" ry="5" style="stroke: #000000; stroke-width: 2.5;" width="92" x="77.5" y="540.8438"/><text fill="#000000" font-family="sans-serif" font-size="12" lengthAdjust="spacingAndGlyphs" textLength="70" x="88.5" y="555.3008">Sauvegarder</text></g></svg>