<?xml version="1.0" encoding="UTF-8" standalone="no"?><svg xmlns="http://www.w3.org/2000/svg" xmlns:xlink="http://www.w3.org/1999/xlink" contentScriptType="application/ecmascript" contentStyleType="text/css" height="817px" preserveAspectRatio="none" style="width:621px;height:817px;" version="1.1" viewBox="0 0 621 817" width="621px" zoomAndPan="magnify"><defs/><g><text fill="#000000" font-family="sans-serif" font-size="12" font-weight="bold" lengthAdjust="spacingAndGlyphs" textLength="248" x="9" y="18.457">Immat Navire - Lieu - Date fin marée - Métier</text><line style="stroke: #AAAAAA; stroke-width: 1.0; stroke-dasharray: 1.0,2.0;" x1="6" x2="602" y1="26.5938" y2="26.5938"/><text fill="#000000" font-family="sans-serif" font-size="12" lengthAdjust="spacingAndGlyphs" textLength="64" x="8" y="43.5508">General trip</text><line style="stroke: #000000; stroke-width: 1.0;" x1="6" x2="6" y1="31.0938" y2="46.1875"/><line style="stroke: #000000; stroke-width: 1.0;" x1="6" x2="75" y1="31.0938" y2="31.0938"/><line style="stroke: #000000; stroke-width: 1.0;" x1="75" x2="75" y1="31.0938" y2="46.1875"/><line style="stroke: #000000; stroke-width: 1.0;" x1="75" x2="85" y1="46.1875" y2="46.1875"/><text fill="#000000" font-family="sans-serif" font-size="12" lengthAdjust="spacingAndGlyphs" textLength="28" x="87" y="43.5508">Effort</text><line style="stroke: #000000; stroke-width: 1.0;" x1="85" x2="85" y1="31.0938" y2="46.1875"/><line style="stroke: #000000; stroke-width: 1.0;" x1="85" x2="118" y1="31.0938" y2="31.0938"/><line style="stroke: #000000; stroke-width: 1.0;" x1="118" x2="118" y1="31.0938" y2="46.1875"/><line style="stroke: #000000; stroke-width: 1.0;" x1="118" x2="128" y1="46.1875" y2="46.1875"/><text fill="#000000" font-family="sans-serif" font-size="12" font-weight="bold" lengthAdjust="spacingAndGlyphs" textLength="109" x="130" y="43.5508">Capture débarquée</text><line style="stroke: #000000; stroke-width: 1.0;" x1="128" x2="128" y1="31.0938" y2="46.1875"/><line style="stroke: #000000; stroke-width: 1.0;" x1="128" x2="242" y1="31.0938" y2="31.0938"/><line style="stroke: #000000; stroke-width: 1.0;" x1="242" x2="242" y1="31.0938" y2="46.1875"/><line style="stroke: #000000; stroke-width: 1.0;" x1="242" x2="252" y1="46.1875" y2="46.1875"/><text fill="#000000" font-family="sans-serif" font-size="12" lengthAdjust="spacingAndGlyphs" textLength="31" x="254" y="43.5508">Vente</text><line style="stroke: #000000; stroke-width: 1.0;" x1="252" x2="252" y1="31.0938" y2="46.1875"/><line style="stroke: #000000; stroke-width: 1.0;" x1="252" x2="288" y1="31.0938" y2="31.0938"/><line style="stroke: #000000; stroke-width: 1.0;" x1="288" x2="288" y1="31.0938" y2="46.1875"/><line style="stroke: #000000; stroke-width: 1.0;" x1="288" x2="298" y1="46.1875" y2="46.1875"/><text fill="#000000" font-family="sans-serif" font-size="12" lengthAdjust="spacingAndGlyphs" textLength="58" x="300" y="43.5508">Dépenses</text><line style="stroke: #000000; stroke-width: 1.0;" x1="298" x2="298" y1="31.0938" y2="46.1875"/><line style="stroke: #000000; stroke-width: 1.0;" x1="298" x2="361" y1="31.0938" y2="31.0938"/><line style="stroke: #000000; stroke-width: 1.0;" x1="361" x2="361" y1="31.0938" y2="46.1875"/><line style="stroke: #000000; stroke-width: 1.0;" x1="361" x2="371" y1="46.1875" y2="46.1875"/><path d="M9.344,70.375 A0.502,0.502 0 0 0 9.5,71.375 L10,71.375 L10,72.781 C9.912,72.953 8.806,75.094 8.344,75.875 C8.191,76.143 8,76.487 8,76.938 C8,77.321 8.139,77.702 8.406,77.969 C8.666,78.229 9.049,78.375 9.437,78.375 L14.562,78.375 C14.945,78.375 15.326,78.236 15.593,77.969 C15.853,77.709 15.999,77.326 15.999,76.938 C15.999,76.486 15.805,76.137 15.655,75.875 C15.192,75.095 14.087,72.953 13.999,72.781 L13.999,71.375 L14.499,71.375 A0.5,0.5 0 1 0 14.499,70.375 L9.499,70.375 A0.5,0.5 0 0 0 9.405,70.375 A0.502,0.502 0 0 0 9.342,70.375 M10.998,71.375 L12.998,71.375 L12.998,73 L13.061,73.094 C13.713,74.327 13.713,74.327 14.28,75.375 L9.717,75.375 C10.284,74.326 10.936,73.094 10.936,73.094 L10.999,73 L10.999,71.375 " fill="#000000" style="stroke: ; stroke-width: 0.0; stroke-dasharray: ;"/><text fill="#000000" font-family="sans-serif" font-size="12" lengthAdjust="spacingAndGlyphs" textLength="72" x="20" y="78.7383">Filter by effort</text><rect fill="#EEEEEE" height="18.0938" style="stroke: #000000; stroke-width: 1.0;" width="255" x="95" y="67.2813"/><text fill="#000000" font-family="sans-serif" font-size="12" lengthAdjust="spacingAndGlyphs" textLength="156" x="97" y="81.7383">FIXABSX - Active trap for Vyey</text><line style="stroke: #000000; stroke-width: 1.0;" x1="339" x2="339" y1="67.2813" y2="85.375"/><polygon fill="#000000" points="342,73.2813,348,73.2813,345,80.375" style="stroke: #000000; stroke-width: 1.0;"/><path d="M355.75,66.2813 C355.348,66.2813 355,66.6293 355,67.0313 L355,72.5313 C355,72.9333 355.348,73.2813 355.75,73.2813 L362.25,73.2813 C362.652,73.2813 363,72.9333 363,72.5313 L363,67.0313 C363,66.6293 362.652,66.2813 362.25,66.2813 L355.75,66.2813 M356,67.2813 L357,67.2813 L357,68.2813 L356,68.2813 L356,67.2813 M358,67.2813 L362,67.2813 L362,68.2813 L358,68.2813 L358,67.2813 M356,69.2813 L357,69.2813 L357,70.2813 L356,70.2813 L356,69.2813 M358,69.2813 L362,69.2813 L362,70.2813 L358,70.2813 L358,69.2813 M356,71.2813 L357,71.2813 L357,72.2813 L356,72.2813 L356,71.2813 M358,71.2813 L362,71.2813 L362,72.2813 L358,72.2813 L358,71.2813 " fill="#000000" style="stroke: ; stroke-width: 0.0; stroke-dasharray: ;"/><rect fill="#EEEEEE" height="19.0938" rx="5" ry="5" style="stroke: #000000; stroke-width: 2.5;" width="36" x="368.5" y="68.7813"/><text fill="#000000" font-family="sans-serif" font-size="12" lengthAdjust="spacingAndGlyphs" textLength="21" x="376" y="83.2383">Edit</text><rect fill="#EEEEEE" height="19.0938" rx="5" ry="5" style="stroke: #000000; stroke-width: 2.5;" width="29" x="411.5" y="68.7813"/><text fill="#000000" font-family="sans-serif" font-size="12" lengthAdjust="spacingAndGlyphs" textLength="25" x="413.5" y="83.2383">New</text><line style="stroke: #AAAAAA; stroke-width: 1.0;" x1="6" x2="602" y1="96.875" y2="96.875"/><line style="stroke: #AAAAAA; stroke-width: 1.0;" x1="603" x2="614" y1="96.875" y2="96.875"/><text fill="#000000" font-family="sans-serif" font-size="12" font-weight="bold" lengthAdjust="spacingAndGlyphs" textLength="226" x="7" y="131.9258">Saisie des capture débarquée par effort</text><rect fill="#EEEEEE" height="19.0938" rx="5" ry="5" style="stroke: #000000; stroke-width: 2.5;" width="52" x="545.5" y="121.9688"/><text fill="#000000" font-family="sans-serif" font-size="12" lengthAdjust="spacingAndGlyphs" textLength="40" x="551.5" y="136.4258">Fermer</text><line style="stroke: #AAAAAA; stroke-width: 1.0; stroke-dasharray: 1.0,2.0;" x1="7" x2="542" y1="149.0625" y2="149.0625"/><text fill="#000000" font-family="sans-serif" font-size="12" lengthAdjust="spacingAndGlyphs" textLength="100" x="28" y="167.0195">Saisie par espèce</text><ellipse cx="15" cy="162.1094" fill="none" rx="5" ry="5" style="stroke: #000000; stroke-width: 1.5;"/><ellipse cx="15" cy="162.1094" fill="#000000" rx="2" ry="2" style="stroke: #000000; stroke-width: 1.5;"/><text fill="#000000" font-family="sans-serif" font-size="12" lengthAdjust="spacingAndGlyphs" textLength="97" x="150" y="167.0195">Saisie par paquet</text><ellipse cx="137" cy="162.1094" fill="none" rx="5" ry="5" style="stroke: #000000; stroke-width: 1.5;"/><text fill="#000000" font-family="sans-serif" font-size="12" lengthAdjust="spacingAndGlyphs" textLength="120" x="8" y="203.207">Espèce commerciale:</text><rect fill="#EEEEEE" height="18.0938" style="stroke: #000000; stroke-width: 1.0;" width="167" x="182" y="191.75"/><text fill="#000000" font-family="sans-serif" font-size="12" lengthAdjust="spacingAndGlyphs" textLength="41" x="184" y="206.207">Albakor</text><line style="stroke: #000000; stroke-width: 1.0;" x1="338" x2="338" y1="191.75" y2="209.8438"/><polygon fill="#000000" points="341,197.75,347,197.75,344,204.8438" style="stroke: #000000; stroke-width: 1.0;"/><text fill="#000000" font-family="sans-serif" font-size="12" lengthAdjust="spacingAndGlyphs" textLength="93" x="372" y="204.207">Valeur par défaut</text><rect fill="none" height="10" style="stroke: #000000; stroke-width: 1.5;" width="10" x="354" y="194.2969"/><text fill="#000000" font-family="sans-serif" font-size="12" font-style="italic" lengthAdjust="spacingAndGlyphs" textLength="171" x="8" y="226.3008">Espèce scientifique (optionnel):</text><rect fill="#EEEEEE" height="18.0938" style="stroke: #000000; stroke-width: 1.0;" width="167" x="182" y="214.8438"/><text fill="#000000" font-family="sans-serif" font-size="12" font-style="italic" lengthAdjust="spacingAndGlyphs" textLength="99" x="184" y="229.3008">Thunnus alalunga</text><line style="stroke: #000000; stroke-width: 1.0;" x1="338" x2="338" y1="214.8438" y2="232.9375"/><polygon fill="#000000" points="341,220.8438,347,220.8438,344,227.9375" style="stroke: #000000; stroke-width: 1.0;"/><text fill="#000000" font-family="sans-serif" font-size="12" font-style="italic" lengthAdjust="spacingAndGlyphs" textLength="107" x="372" y="227.3008">Conserver la valeur</text><rect fill="none" height="10" style="stroke: #000000; stroke-width: 1.5;" width="10" x="354" y="217.3906"/><text fill="#000000" font-family="sans-serif" font-size="12" lengthAdjust="spacingAndGlyphs" textLength="86" x="8" y="249.3945">Poids Ech. (kg):</text><text fill="#000000" font-family="sans-serif" font-size="12" lengthAdjust="spacingAndGlyphs" textLength="31" x="185" y="250.3945">120.0</text><line style="stroke: #000000; stroke-width: 1.0;" x1="183" x2="322" y1="253.0313" y2="253.0313"/><line style="stroke: #000000; stroke-width: 1.0;" x1="183" x2="183" y1="250.0313" y2="252.0313"/><line style="stroke: #000000; stroke-width: 1.0;" x1="322" x2="322" y1="250.0313" y2="252.0313"/><text fill="#000000" font-family="sans-serif" font-size="12" lengthAdjust="spacingAndGlyphs" textLength="112" x="8" y="270.4883">Nombre d'individus :</text><text fill="#000000" font-family="sans-serif" font-size="12" lengthAdjust="spacingAndGlyphs" textLength="14" x="185" y="271.4883">26</text><line style="stroke: #000000; stroke-width: 1.0;" x1="183" x2="298" y1="274.125" y2="274.125"/><line style="stroke: #000000; stroke-width: 1.0;" x1="183" x2="183" y1="271.125" y2="273.125"/><line style="stroke: #000000; stroke-width: 1.0;" x1="298" x2="298" y1="271.125" y2="273.125"/><text fill="#000000" font-family="sans-serif" font-size="12" lengthAdjust="spacingAndGlyphs" textLength="61" x="8" y="291.582">Packaging:</text><rect fill="#EEEEEE" height="18.0938" style="stroke: #000000; stroke-width: 1.0;" width="87" x="182" y="280.125"/><text fill="#000000" font-family="sans-serif" font-size="12" lengthAdjust="spacingAndGlyphs" textLength="22" x="184" y="294.582">Unit</text><line style="stroke: #000000; stroke-width: 1.0;" x1="258" x2="258" y1="280.125" y2="298.2188"/><polygon fill="#000000" points="261,286.125,267,286.125,264,293.2188" style="stroke: #000000; stroke-width: 1.0;"/><text fill="#000000" font-family="sans-serif" font-size="12" lengthAdjust="spacingAndGlyphs" textLength="106" x="292" y="292.582">Conserver la valeur</text><rect fill="none" height="10" style="stroke: #000000; stroke-width: 1.5;" width="10" x="274" y="282.6719"/><polygon fill="#000000" points="275,286.125,278,289.125,285,280.125,278,287.125" style="stroke: #000000; stroke-width: 1.5;"/><text fill="#000000" font-family="sans-serif" font-size="12" lengthAdjust="spacingAndGlyphs" textLength="72" x="8" y="314.6758">Preservation:</text><rect fill="#EEEEEE" height="18.0938" style="stroke: #000000; stroke-width: 1.0;" width="87" x="182" y="303.2188"/><text fill="#000000" font-family="sans-serif" font-size="12" lengthAdjust="spacingAndGlyphs" textLength="32" x="184" y="317.6758">Entier</text><line style="stroke: #000000; stroke-width: 1.0;" x1="258" x2="258" y1="303.2188" y2="321.3125"/><polygon fill="#000000" points="261,309.2188,267,309.2188,264,316.3125" style="stroke: #000000; stroke-width: 1.0;"/><text fill="#000000" font-family="sans-serif" font-size="12" lengthAdjust="spacingAndGlyphs" textLength="106" x="292" y="315.6758">Conserver la valeur</text><rect fill="none" height="10" style="stroke: #000000; stroke-width: 1.5;" width="10" x="274" y="305.7656"/><polygon fill="#000000" points="275,309.2188,278,312.2188,285,303.2188,278,310.2188" style="stroke: #000000; stroke-width: 1.5;"/><text fill="#000000" font-family="sans-serif" font-size="12" lengthAdjust="spacingAndGlyphs" textLength="87" x="8" y="337.7695">Catégorie de tri:</text><rect fill="#EEEEEE" height="18.0938" style="stroke: #000000; stroke-width: 1.0;" width="87" x="182" y="326.3125"/><text fill="#000000" font-family="sans-serif" font-size="12" lengthAdjust="spacingAndGlyphs" textLength="44" x="184" y="340.7695">Non-trié</text><line style="stroke: #000000; stroke-width: 1.0;" x1="258" x2="258" y1="326.3125" y2="344.4063"/><polygon fill="#000000" points="261,332.3125,267,332.3125,264,339.4063" style="stroke: #000000; stroke-width: 1.0;"/><text fill="#000000" font-family="sans-serif" font-size="12" lengthAdjust="spacingAndGlyphs" textLength="106" x="292" y="338.7695">Conserver la valeur</text><rect fill="none" height="10" style="stroke: #000000; stroke-width: 1.5;" width="10" x="274" y="328.8594"/><polygon fill="#000000" points="275,332.3125,278,335.3125,285,326.3125,278,333.3125" style="stroke: #000000; stroke-width: 1.5;"/><rect fill="#EEEEEE" height="19.0938" rx="5" ry="5" style="stroke: #000000; stroke-width: 2.5;" width="148" x="184.5" y="369"/><text fill="#000000" font-family="sans-serif" font-size="12" lengthAdjust="spacingAndGlyphs" textLength="92" x="212.5" y="383.457">Valider (= Entrer)</text><rect fill="#EEEEEE" height="19.0938" rx="5" ry="5" style="stroke: #000000; stroke-width: 2.5;" width="156" x="339.5" y="369"/><text fill="#000000" font-family="sans-serif" font-size="12" lengthAdjust="spacingAndGlyphs" textLength="104" x="365.5" y="383.457">Annuler la dernière</text><line style="stroke: #AAAAAA; stroke-width: 1.0;" x1="8" x2="180" y1="397.0938" y2="397.0938"/><line style="stroke: #AAAAAA; stroke-width: 1.0;" x1="181" x2="500" y1="397.0938" y2="397.0938"/><text fill="#000000" font-family="sans-serif" font-size="12" lengthAdjust="spacingAndGlyphs" textLength="7" x="8" y="433.1445">#</text><text fill="#000000" font-family="sans-serif" font-size="12" font-weight="bold" lengthAdjust="spacingAndGlyphs" textLength="120" x="17" y="433.1445">Espèce commerciale</text><text fill="#000000" font-family="sans-serif" font-size="12" font-weight="bold" lengthAdjust="spacingAndGlyphs" textLength="84" x="139" y="433.1445">Poids Ech. (kg)</text><text fill="#000000" font-family="sans-serif" font-size="12" font-weight="bold" lengthAdjust="spacingAndGlyphs" textLength="45" x="225" y="433.1445">NB indiv</text><text fill="#000000" font-family="sans-serif" font-size="12" font-weight="bold" lengthAdjust="spacingAndGlyphs" textLength="60" x="272" y="433.1445">Packaging</text><text fill="#000000" font-family="sans-serif" font-size="12" font-weight="bold" lengthAdjust="spacingAndGlyphs" textLength="73" x="334" y="433.1445">Preservation</text><text fill="#000000" font-family="sans-serif" font-size="12" font-weight="bold" lengthAdjust="spacingAndGlyphs" textLength="73" x="409" y="433.1445">Presentation</text><text fill="#000000" font-family="sans-serif" font-size="12" font-weight="bold" lengthAdjust="spacingAndGlyphs" textLength="37" x="484" y="433.1445">Cat Tri</text><text fill="#000000" font-family="sans-serif" font-size="12" lengthAdjust="spacingAndGlyphs" textLength="7" x="8" y="450.2383">3</text><text fill="#000000" font-family="sans-serif" font-size="12" lengthAdjust="spacingAndGlyphs" textLength="41" x="17" y="450.2383">Albakor</text><text fill="#000000" font-family="sans-serif" font-size="12" lengthAdjust="spacingAndGlyphs" textLength="31" x="139" y="450.2383">120.0</text><text fill="#000000" font-family="sans-serif" font-size="12" lengthAdjust="spacingAndGlyphs" textLength="14" x="225" y="450.2383">26</text><text fill="#000000" font-family="sans-serif" font-size="12" lengthAdjust="spacingAndGlyphs" textLength="22" x="272" y="450.2383">Unit</text><text fill="#000000" font-family="sans-serif" font-size="12" lengthAdjust="spacingAndGlyphs" textLength="28" x="334" y="450.2383">Frais</text><text fill="#000000" font-family="sans-serif" font-size="12" lengthAdjust="spacingAndGlyphs" textLength="32" x="409" y="450.2383">Entier</text><text fill="#000000" font-family="sans-serif" font-size="12" lengthAdjust="spacingAndGlyphs" textLength="44" x="484" y="450.2383">Non-trié</text><path d="M534,437.7813 C533.45,437.7813 533,438.2313 533,438.7813 L532,438.7813 C531.45,438.7813 531,439.2313 531,439.7813 L538,439.7813 C538,439.2313 537.55,438.7813 537,438.7813 L536,438.7813 C536,438.2313 535.55,437.7813 535,437.7813 L534,437.7813 M532,440.7813 L532,445.5943 C532,445.7043 532.077,445.7823 532.188,445.7823 L536.813,445.7823 C536.923,445.7823 537.001,445.7053 537.001,445.5943 L537.001,440.7813 L536.001,440.7813 L536.001,444.2813 C536.001,444.5613 535.781,444.7813 535.501,444.7813 C535.221,444.7813 535.001,444.5613 535.001,444.2813 L535.001,440.7813 L534.001,440.7813 L534.001,444.2813 C534.001,444.5613 533.781,444.7813 533.501,444.7813 C533.221,444.7813 533.001,444.5613 533.001,444.2813 L533.001,440.7813 L532.001,440.7813 " fill="#000000" style="stroke: ; stroke-width: 0.0; stroke-dasharray: ;"/><text fill="#000000" font-family="sans-serif" font-size="12" lengthAdjust="spacingAndGlyphs" textLength="7" x="8" y="467.332">2</text><text fill="#000000" font-family="sans-serif" font-size="12" lengthAdjust="spacingAndGlyphs" textLength="68" x="17" y="467.332">Barwa - LXN</text><text fill="#000000" font-family="sans-serif" font-size="12" lengthAdjust="spacingAndGlyphs" textLength="24" x="139" y="467.332">26.0</text><text fill="#000000" font-family="sans-serif" font-size="12" lengthAdjust="spacingAndGlyphs" textLength="7" x="225" y="467.332">3</text><text fill="#000000" font-family="sans-serif" font-size="12" lengthAdjust="spacingAndGlyphs" textLength="22" x="272" y="467.332">Unit</text><text fill="#000000" font-family="sans-serif" font-size="12" lengthAdjust="spacingAndGlyphs" textLength="28" x="334" y="467.332">Frais</text><text fill="#000000" font-family="sans-serif" font-size="12" lengthAdjust="spacingAndGlyphs" textLength="32" x="409" y="467.332">Entier</text><text fill="#000000" font-family="sans-serif" font-size="12" lengthAdjust="spacingAndGlyphs" textLength="44" x="484" y="467.332">Non-trié</text><path d="M534,454.875 C533.45,454.875 533,455.325 533,455.875 L532,455.875 C531.45,455.875 531,456.325 531,456.875 L538,456.875 C538,456.325 537.55,455.875 537,455.875 L536,455.875 C536,455.325 535.55,454.875 535,454.875 L534,454.875 M532,457.875 L532,462.688 C532,462.798 532.077,462.876 532.188,462.876 L536.813,462.876 C536.923,462.876 537.001,462.799 537.001,462.688 L537.001,457.875 L536.001,457.875 L536.001,461.375 C536.001,461.655 535.781,461.875 535.501,461.875 C535.221,461.875 535.001,461.655 535.001,461.375 L535.001,457.875 L534.001,457.875 L534.001,461.375 C534.001,461.655 533.781,461.875 533.501,461.875 C533.221,461.875 533.001,461.655 533.001,461.375 L533.001,457.875 L532.001,457.875 " fill="#000000" style="stroke: ; stroke-width: 0.0; stroke-dasharray: ;"/><text fill="#000000" font-family="sans-serif" font-size="12" lengthAdjust="spacingAndGlyphs" textLength="7" x="8" y="484.4258">1</text><text fill="#000000" font-family="sans-serif" font-size="12" lengthAdjust="spacingAndGlyphs" textLength="105" x="17" y="484.4258">Anba Iasann - PWT</text><text fill="#000000" font-family="sans-serif" font-size="12" lengthAdjust="spacingAndGlyphs" textLength="31" x="139" y="484.4258">200.0</text><text fill="#000000" font-family="sans-serif" font-size="12" lengthAdjust="spacingAndGlyphs" textLength="14" x="225" y="484.4258">45</text><text fill="#000000" font-family="sans-serif" font-size="12" lengthAdjust="spacingAndGlyphs" textLength="22" x="272" y="484.4258">Unit</text><text fill="#000000" font-family="sans-serif" font-size="12" lengthAdjust="spacingAndGlyphs" textLength="28" x="334" y="484.4258">Frais</text><text fill="#000000" font-family="sans-serif" font-size="12" lengthAdjust="spacingAndGlyphs" textLength="32" x="409" y="484.4258">Entier</text><text fill="#000000" font-family="sans-serif" font-size="12" lengthAdjust="spacingAndGlyphs" textLength="44" x="484" y="484.4258">Non-trié</text><path d="M534,471.9688 C533.45,471.9688 533,472.4188 533,472.9688 L532,472.9688 C531.45,472.9688 531,473.4188 531,473.9688 L538,473.9688 C538,473.4188 537.55,472.9688 537,472.9688 L536,472.9688 C536,472.4188 535.55,471.9688 535,471.9688 L534,471.9688 M532,474.9688 L532,479.7818 C532,479.8918 532.077,479.9698 532.188,479.9698 L536.813,479.9698 C536.923,479.9698 537.001,479.8928 537.001,479.7818 L537.001,474.9688 L536.001,474.9688 L536.001,478.4688 C536.001,478.7488 535.781,478.9688 535.501,478.9688 C535.221,478.9688 535.001,478.7488 535.001,478.4688 L535.001,474.9688 L534.001,474.9688 L534.001,478.4688 C534.001,478.7488 533.781,478.9688 533.501,478.9688 C533.221,478.9688 533.001,478.7488 533.001,478.4688 L533.001,474.9688 L532.001,474.9688 " fill="#000000" style="stroke: ; stroke-width: 0.0; stroke-dasharray: ;"/><line style="stroke: #000000; stroke-width: 1.0;" x1="7" x2="16" y1="419.6875" y2="419.6875"/><line style="stroke: #000000; stroke-width: 1.0;" x1="271" x2="333" y1="488.0625" y2="488.0625"/><line style="stroke: #000000; stroke-width: 1.0;" x1="16" x2="138" y1="419.6875" y2="419.6875"/><line style="stroke: #000000; stroke-width: 1.0;" x1="333" x2="408" y1="488.0625" y2="488.0625"/><line style="stroke: #000000; stroke-width: 1.0;" x1="138" x2="224" y1="419.6875" y2="419.6875"/><line style="stroke: #000000; stroke-width: 1.0;" x1="408" x2="483" y1="488.0625" y2="488.0625"/><line style="stroke: #000000; stroke-width: 1.0;" x1="224" x2="271" y1="419.6875" y2="419.6875"/><line style="stroke: #000000; stroke-width: 1.0;" x1="483" x2="529" y1="488.0625" y2="488.0625"/><line style="stroke: #000000; stroke-width: 1.0;" x1="271" x2="333" y1="419.6875" y2="419.6875"/><line style="stroke: #000000; stroke-width: 1.0;" x1="529" x2="541" y1="488.0625" y2="488.0625"/><line style="stroke: #000000; stroke-width: 1.0;" x1="333" x2="408" y1="419.6875" y2="419.6875"/><line style="stroke: #000000; stroke-width: 1.0;" x1="408" x2="483" y1="419.6875" y2="419.6875"/><line style="stroke: #000000; stroke-width: 1.0;" x1="483" x2="529" y1="419.6875" y2="419.6875"/><line style="stroke: #000000; stroke-width: 1.0;" x1="529" x2="541" y1="419.6875" y2="419.6875"/><line style="stroke: #000000; stroke-width: 1.0;" x1="7" x2="16" y1="470.9688" y2="470.9688"/><line style="stroke: #000000; stroke-width: 1.0;" x1="16" x2="138" y1="470.9688" y2="470.9688"/><line style="stroke: #000000; stroke-width: 1.0;" x1="138" x2="224" y1="470.9688" y2="470.9688"/><line style="stroke: #000000; stroke-width: 1.0;" x1="224" x2="271" y1="470.9688" y2="470.9688"/><line style="stroke: #000000; stroke-width: 1.0;" x1="271" x2="333" y1="470.9688" y2="470.9688"/><line style="stroke: #000000; stroke-width: 1.0;" x1="333" x2="408" y1="470.9688" y2="470.9688"/><line style="stroke: #000000; stroke-width: 1.0;" x1="408" x2="483" y1="470.9688" y2="470.9688"/><line style="stroke: #000000; stroke-width: 1.0;" x1="483" x2="529" y1="470.9688" y2="470.9688"/><line style="stroke: #000000; stroke-width: 1.0;" x1="529" x2="541" y1="470.9688" y2="470.9688"/><line style="stroke: #000000; stroke-width: 1.0;" x1="7" x2="16" y1="453.875" y2="453.875"/><line style="stroke: #000000; stroke-width: 1.0;" x1="16" x2="138" y1="453.875" y2="453.875"/><line style="stroke: #000000; stroke-width: 1.0;" x1="138" x2="224" y1="453.875" y2="453.875"/><line style="stroke: #000000; stroke-width: 1.0;" x1="224" x2="271" y1="453.875" y2="453.875"/><line style="stroke: #000000; stroke-width: 1.0;" x1="271" x2="333" y1="453.875" y2="453.875"/><line style="stroke: #000000; stroke-width: 1.0;" x1="333" x2="408" y1="453.875" y2="453.875"/><line style="stroke: #000000; stroke-width: 1.0;" x1="408" x2="483" y1="453.875" y2="453.875"/><line style="stroke: #000000; stroke-width: 1.0;" x1="483" x2="529" y1="453.875" y2="453.875"/><line style="stroke: #000000; stroke-width: 1.0;" x1="529" x2="541" y1="453.875" y2="453.875"/><line style="stroke: #000000; stroke-width: 1.0;" x1="7" x2="16" y1="436.7813" y2="436.7813"/><line style="stroke: #000000; stroke-width: 1.0;" x1="16" x2="138" y1="436.7813" y2="436.7813"/><line style="stroke: #000000; stroke-width: 1.0;" x1="138" x2="224" y1="436.7813" y2="436.7813"/><line style="stroke: #000000; stroke-width: 1.0;" x1="224" x2="271" y1="436.7813" y2="436.7813"/><line style="stroke: #000000; stroke-width: 1.0;" x1="271" x2="333" y1="436.7813" y2="436.7813"/><line style="stroke: #000000; stroke-width: 1.0;" x1="333" x2="408" y1="436.7813" y2="436.7813"/><line style="stroke: #000000; stroke-width: 1.0;" x1="408" x2="483" y1="436.7813" y2="436.7813"/><line style="stroke: #000000; stroke-width: 1.0;" x1="483" x2="529" y1="436.7813" y2="436.7813"/><line style="stroke: #000000; stroke-width: 1.0;" x1="529" x2="541" y1="436.7813" y2="436.7813"/><line style="stroke: #000000; stroke-width: 1.0;" x1="7" x2="16" y1="488.0625" y2="488.0625"/><line style="stroke: #000000; stroke-width: 1.0;" x1="16" x2="138" y1="488.0625" y2="488.0625"/><line style="stroke: #000000; stroke-width: 1.0;" x1="138" x2="224" y1="488.0625" y2="488.0625"/><line style="stroke: #000000; stroke-width: 1.0;" x1="224" x2="271" y1="488.0625" y2="488.0625"/><line style="stroke: #000000; stroke-width: 1.0;" x1="7" x2="7" y1="419.6875" y2="436.7813"/><line style="stroke: #000000; stroke-width: 1.0;" x1="16" x2="16" y1="419.6875" y2="436.7813"/><line style="stroke: #000000; stroke-width: 1.0;" x1="138" x2="138" y1="419.6875" y2="436.7813"/><line style="stroke: #000000; stroke-width: 1.0;" x1="224" x2="224" y1="419.6875" y2="436.7813"/><line style="stroke: #000000; stroke-width: 1.0;" x1="271" x2="271" y1="419.6875" y2="436.7813"/><line style="stroke: #000000; stroke-width: 1.0;" x1="333" x2="333" y1="419.6875" y2="436.7813"/><line style="stroke: #000000; stroke-width: 1.0;" x1="408" x2="408" y1="419.6875" y2="436.7813"/><line style="stroke: #000000; stroke-width: 1.0;" x1="483" x2="483" y1="419.6875" y2="436.7813"/><line style="stroke: #000000; stroke-width: 1.0;" x1="529" x2="529" y1="419.6875" y2="436.7813"/><line style="stroke: #000000; stroke-width: 1.0;" x1="541" x2="541" y1="419.6875" y2="436.7813"/><line style="stroke: #000000; stroke-width: 1.0;" x1="7" x2="7" y1="470.9688" y2="488.0625"/><line style="stroke: #000000; stroke-width: 1.0;" x1="16" x2="16" y1="470.9688" y2="488.0625"/><line style="stroke: #000000; stroke-width: 1.0;" x1="138" x2="138" y1="470.9688" y2="488.0625"/><line style="stroke: #000000; stroke-width: 1.0;" x1="224" x2="224" y1="470.9688" y2="488.0625"/><line style="stroke: #000000; stroke-width: 1.0;" x1="271" x2="271" y1="470.9688" y2="488.0625"/><line style="stroke: #000000; stroke-width: 1.0;" x1="333" x2="333" y1="470.9688" y2="488.0625"/><line style="stroke: #000000; stroke-width: 1.0;" x1="408" x2="408" y1="470.9688" y2="488.0625"/><line style="stroke: #000000; stroke-width: 1.0;" x1="483" x2="483" y1="470.9688" y2="488.0625"/><line style="stroke: #000000; stroke-width: 1.0;" x1="529" x2="529" y1="470.9688" y2="488.0625"/><line style="stroke: #000000; stroke-width: 1.0;" x1="541" x2="541" y1="470.9688" y2="488.0625"/><line style="stroke: #000000; stroke-width: 1.0;" x1="7" x2="7" y1="453.875" y2="470.9688"/><line style="stroke: #000000; stroke-width: 1.0;" x1="16" x2="16" y1="453.875" y2="470.9688"/><line style="stroke: #000000; stroke-width: 1.0;" x1="138" x2="138" y1="453.875" y2="470.9688"/><line style="stroke: #000000; stroke-width: 1.0;" x1="224" x2="224" y1="453.875" y2="470.9688"/><line style="stroke: #000000; stroke-width: 1.0;" x1="271" x2="271" y1="453.875" y2="470.9688"/><line style="stroke: #000000; stroke-width: 1.0;" x1="333" x2="333" y1="453.875" y2="470.9688"/><line style="stroke: #000000; stroke-width: 1.0;" x1="408" x2="408" y1="453.875" y2="470.9688"/><line style="stroke: #000000; stroke-width: 1.0;" x1="483" x2="483" y1="453.875" y2="470.9688"/><line style="stroke: #000000; stroke-width: 1.0;" x1="529" x2="529" y1="453.875" y2="470.9688"/><line style="stroke: #000000; stroke-width: 1.0;" x1="541" x2="541" y1="453.875" y2="470.9688"/><line style="stroke: #000000; stroke-width: 1.0;" x1="7" x2="7" y1="436.7813" y2="453.875"/><line style="stroke: #000000; stroke-width: 1.0;" x1="16" x2="16" y1="436.7813" y2="453.875"/><line style="stroke: #000000; stroke-width: 1.0;" x1="138" x2="138" y1="436.7813" y2="453.875"/><line style="stroke: #000000; stroke-width: 1.0;" x1="224" x2="224" y1="436.7813" y2="453.875"/><line style="stroke: #000000; stroke-width: 1.0;" x1="271" x2="271" y1="436.7813" y2="453.875"/><line style="stroke: #000000; stroke-width: 1.0;" x1="333" x2="333" y1="436.7813" y2="453.875"/><line style="stroke: #000000; stroke-width: 1.0;" x1="408" x2="408" y1="436.7813" y2="453.875"/><line style="stroke: #000000; stroke-width: 1.0;" x1="483" x2="483" y1="436.7813" y2="453.875"/><line style="stroke: #000000; stroke-width: 1.0;" x1="529" x2="529" y1="436.7813" y2="453.875"/><line style="stroke: #000000; stroke-width: 1.0;" x1="541" x2="541" y1="436.7813" y2="453.875"/><line style="stroke: #000000; stroke-width: 1.0;" x1="6" x2="542" y1="118.4688" y2="118.4688"/><line style="stroke: #000000; stroke-width: 1.0;" x1="542" x2="601" y1="118.4688" y2="118.4688"/><line style="stroke: #000000; stroke-width: 1.0;" x1="6" x2="542" y1="489.0625" y2="489.0625"/><line style="stroke: #000000; stroke-width: 1.0;" x1="542" x2="601" y1="489.0625" y2="489.0625"/><line style="stroke: #000000; stroke-width: 1.0;" x1="6" x2="6" y1="118.4688" y2="144.5625"/><line style="stroke: #000000; stroke-width: 1.0;" x1="601" x2="601" y1="152.5625" y2="171.6563"/><line style="stroke: #000000; stroke-width: 1.0;" x1="601" x2="601" y1="144.5625" y2="152.5625"/><line style="stroke: #000000; stroke-width: 1.0;" x1="601" x2="601" y1="118.4688" y2="144.5625"/><line style="stroke: #000000; stroke-width: 1.0;" x1="6" x2="6" y1="418.6875" y2="489.0625"/><line style="stroke: #000000; stroke-width: 1.0;" x1="6" x2="6" y1="171.6563" y2="418.6875"/><line style="stroke: #000000; stroke-width: 1.0;" x1="6" x2="6" y1="152.5625" y2="171.6563"/><line style="stroke: #000000; stroke-width: 1.0;" x1="601" x2="601" y1="418.6875" y2="489.0625"/><line style="stroke: #000000; stroke-width: 1.0;" x1="6" x2="6" y1="144.5625" y2="152.5625"/><line style="stroke: #000000; stroke-width: 1.0;" x1="601" x2="601" y1="171.6563" y2="418.6875"/><line style="stroke: #AAAAAA; stroke-width: 1.0; stroke-dasharray: 1.0,2.0;" x1="6" x2="602" y1="511.6563" y2="511.6563"/><rect fill="#EEEEEE" height="19.0938" rx="5" ry="5" style="stroke: #000000; stroke-width: 2.5;" width="260" x="10.5" y="520.6563"/><text fill="#000000" font-family="sans-serif" font-size="12" lengthAdjust="spacingAndGlyphs" textLength="170" x="55.5" y="535.1133">Fermer et retour à l'observation</text><rect fill="#EEEEEE" height="19.0938" rx="5" ry="5" style="stroke: #000000; stroke-width: 2.5;" width="124" x="277.5" y="520.6563"/><text fill="#000000" font-family="sans-serif" font-size="12" lengthAdjust="spacingAndGlyphs" textLength="77" x="301" y="535.1133">Saisir la vente</text><line style="stroke: #AAAAAA; stroke-width: 1.0;" x1="6" x2="602" y1="549.75" y2="549.75"/><line style="stroke: #AAAAAA; stroke-width: 1.0;" x1="603" x2="614" y1="549.75" y2="549.75"/><text fill="#000000" font-family="sans-serif" font-size="12" font-weight="bold" lengthAdjust="spacingAndGlyphs" textLength="226" x="7" y="584.8008">Saisie des capture débarquée par effort</text><rect fill="#EEEEEE" height="19.0938" rx="5" ry="5" style="stroke: #000000; stroke-width: 2.5;" width="52" x="442.5" y="574.8438"/><text fill="#000000" font-family="sans-serif" font-size="12" lengthAdjust="spacingAndGlyphs" textLength="40" x="448.5" y="589.3008">Fermer</text><line style="stroke: #AAAAAA; stroke-width: 1.0; stroke-dasharray: 1.0,2.0;" x1="7" x2="439" y1="601.9375" y2="601.9375"/><text fill="#000000" font-family="sans-serif" font-size="12" lengthAdjust="spacingAndGlyphs" textLength="100" x="28" y="619.8945">Saisie par espèce</text><ellipse cx="15" cy="614.9844" fill="none" rx="5" ry="5" style="stroke: #000000; stroke-width: 1.5;"/><text fill="#000000" font-family="sans-serif" font-size="12" lengthAdjust="spacingAndGlyphs" textLength="97" x="150" y="619.8945">Saisie par paquet</text><ellipse cx="137" cy="614.9844" fill="none" rx="5" ry="5" style="stroke: #000000; stroke-width: 1.5;"/><ellipse cx="137" cy="614.9844" fill="#000000" rx="2" ry="2" style="stroke: #000000; stroke-width: 1.5;"/><text fill="#000000" font-family="sans-serif" font-size="12" lengthAdjust="spacingAndGlyphs" textLength="109" x="8" y="656.082">Nombre de paquet :</text><text fill="#000000" font-family="sans-serif" font-size="12" lengthAdjust="spacingAndGlyphs" textLength="14" x="123" y="657.082">55</text><line style="stroke: #000000; stroke-width: 1.0;" x1="121" x2="196" y1="659.7188" y2="659.7188"/><line style="stroke: #000000; stroke-width: 1.0;" x1="121" x2="121" y1="656.7188" y2="658.7188"/><line style="stroke: #000000; stroke-width: 1.0;" x1="196" x2="196" y1="656.7188" y2="658.7188"/><rect fill="#EEEEEE" height="19.0938" rx="5" ry="5" style="stroke: #000000; stroke-width: 2.5;" width="196" x="202.5" y="647.125"/><text fill="#000000" font-family="sans-serif" font-size="12" lengthAdjust="spacingAndGlyphs" textLength="133" x="234" y="661.582">Détail de la composition</text><line style="stroke: #AAAAAA; stroke-width: 1.0;" x1="8" x2="118" y1="675.2188" y2="675.2188"/><line style="stroke: #AAAAAA; stroke-width: 1.0;" x1="119" x2="438" y1="675.2188" y2="675.2188"/><rect fill="#EEEEEE" height="19.0938" rx="5" ry="5" style="stroke: #000000; stroke-width: 2.5;" width="148" x="122.5" y="683.2188"/><text fill="#000000" font-family="sans-serif" font-size="12" lengthAdjust="spacingAndGlyphs" textLength="92" x="150.5" y="697.6758">Valider (= Entrer)</text><rect fill="#EEEEEE" height="19.0938" rx="5" ry="5" style="stroke: #000000; stroke-width: 2.5;" width="156" x="277.5" y="683.2188"/><text fill="#000000" font-family="sans-serif" font-size="12" lengthAdjust="spacingAndGlyphs" textLength="104" x="303.5" y="697.6758">Annuler la dernière</text><text fill="#000000" font-family="sans-serif" font-size="12" lengthAdjust="spacingAndGlyphs" textLength="7" x="8" y="739.3633">#</text><text fill="#000000" font-family="sans-serif" font-size="12" font-weight="bold" lengthAdjust="spacingAndGlyphs" textLength="11" x="17" y="739.3633">ID</text><text fill="#000000" font-family="sans-serif" font-size="12" font-weight="bold" lengthAdjust="spacingAndGlyphs" textLength="120" x="30" y="739.3633">Nombre de paquets*)</text><text fill="#000000" font-family="sans-serif" font-size="12" font-weight="bold" lengthAdjust="spacingAndGlyphs" textLength="62" x="155" y="739.3633">Poids (kg)*</text><text fill="#000000" font-family="sans-serif" font-size="12" font-weight="bold" lengthAdjust="spacingAndGlyphs" textLength="135" x="219" y="739.3633">Detail de la composition</text><text fill="#000000" font-family="sans-serif" font-size="12" lengthAdjust="spacingAndGlyphs" textLength="7" x="8" y="756.457">1</text><text fill="#000000" font-family="sans-serif" font-size="12" lengthAdjust="spacingAndGlyphs" textLength="7" x="17" y="756.457">1</text><text fill="#000000" font-family="sans-serif" font-size="12" lengthAdjust="spacingAndGlyphs" textLength="14" x="30" y="756.457">55</text><text fill="#0000FF" font-family="sans-serif" font-size="12" font-style="italic" lengthAdjust="spacingAndGlyphs" textLength="38" x="152" y="756.457">527.10</text><path d="M220,744 L220,748 L224,748 L224,744 L220,744 M225,746 L225,749 L222,749 L222,750 L226,750 L226,746 L225,746 M227,748 L227,751 L224,751 L224,752 L228,752 L228,748 L227,748 " fill="#000000" style="stroke: ; stroke-width: 0.0; stroke-dasharray: ;"/><path d="M360,744 C359.45,744 359,744.45 359,745 L358,745 C357.45,745 357,745.45 357,746 L364,746 C364,745.45 363.55,745 363,745 L362,745 C362,744.45 361.55,744 361,744 L360,744 M358,747 L358,751.813 C358,751.923 358.077,752.001 358.188,752.001 L362.813,752.001 C362.923,752.001 363.001,751.924 363.001,751.813 L363.001,747 L362.001,747 L362.001,750.5 C362.001,750.78 361.781,751 361.501,751 C361.221,751 361.001,750.78 361.001,750.5 L361.001,747 L360.001,747 L360.001,750.5 C360.001,750.78 359.781,751 359.501,751 C359.221,751 359.001,750.78 359.001,750.5 L359.001,747 L358.001,747 " fill="#000000" style="stroke: ; stroke-width: 0.0; stroke-dasharray: ;"/><line style="stroke: #000000; stroke-width: 1.0;" x1="7" x2="16" y1="725.9063" y2="725.9063"/><line style="stroke: #000000; stroke-width: 1.0;" x1="29" x2="151" y1="760.0938" y2="760.0938"/><line style="stroke: #000000; stroke-width: 1.0;" x1="16" x2="29" y1="725.9063" y2="725.9063"/><line style="stroke: #000000; stroke-width: 1.0;" x1="151" x2="218" y1="760.0938" y2="760.0938"/><line style="stroke: #000000; stroke-width: 1.0;" x1="29" x2="151" y1="725.9063" y2="725.9063"/><line style="stroke: #000000; stroke-width: 1.0;" x1="218" x2="355" y1="760.0938" y2="760.0938"/><line style="stroke: #000000; stroke-width: 1.0;" x1="151" x2="218" y1="725.9063" y2="725.9063"/><line style="stroke: #000000; stroke-width: 1.0;" x1="355" x2="367" y1="760.0938" y2="760.0938"/><line style="stroke: #000000; stroke-width: 1.0;" x1="218" x2="355" y1="725.9063" y2="725.9063"/><line style="stroke: #000000; stroke-width: 1.0;" x1="355" x2="367" y1="725.9063" y2="725.9063"/><line style="stroke: #000000; stroke-width: 1.0;" x1="7" x2="16" y1="743" y2="743"/><line style="stroke: #000000; stroke-width: 1.0;" x1="16" x2="29" y1="743" y2="743"/><line style="stroke: #000000; stroke-width: 1.0;" x1="29" x2="151" y1="743" y2="743"/><line style="stroke: #000000; stroke-width: 1.0;" x1="151" x2="218" y1="743" y2="743"/><line style="stroke: #000000; stroke-width: 1.0;" x1="218" x2="355" y1="743" y2="743"/><line style="stroke: #000000; stroke-width: 1.0;" x1="355" x2="367" y1="743" y2="743"/><line style="stroke: #000000; stroke-width: 1.0;" x1="7" x2="16" y1="760.0938" y2="760.0938"/><line style="stroke: #000000; stroke-width: 1.0;" x1="16" x2="29" y1="760.0938" y2="760.0938"/><line style="stroke: #000000; stroke-width: 1.0;" x1="7" x2="7" y1="725.9063" y2="743"/><line style="stroke: #000000; stroke-width: 1.0;" x1="16" x2="16" y1="725.9063" y2="743"/><line style="stroke: #000000; stroke-width: 1.0;" x1="29" x2="29" y1="725.9063" y2="743"/><line style="stroke: #000000; stroke-width: 1.0;" x1="151" x2="151" y1="725.9063" y2="743"/><line style="stroke: #000000; stroke-width: 1.0;" x1="218" x2="218" y1="725.9063" y2="743"/><line style="stroke: #000000; stroke-width: 1.0;" x1="355" x2="355" y1="725.9063" y2="743"/><line style="stroke: #000000; stroke-width: 1.0;" x1="367" x2="367" y1="725.9063" y2="743"/><line style="stroke: #000000; stroke-width: 1.0;" x1="7" x2="7" y1="743" y2="760.0938"/><line style="stroke: #000000; stroke-width: 1.0;" x1="16" x2="16" y1="743" y2="760.0938"/><line style="stroke: #000000; stroke-width: 1.0;" x1="29" x2="29" y1="743" y2="760.0938"/><line style="stroke: #000000; stroke-width: 1.0;" x1="151" x2="151" y1="743" y2="760.0938"/><line style="stroke: #000000; stroke-width: 1.0;" x1="218" x2="218" y1="743" y2="760.0938"/><line style="stroke: #000000; stroke-width: 1.0;" x1="355" x2="355" y1="743" y2="760.0938"/><line style="stroke: #000000; stroke-width: 1.0;" x1="367" x2="367" y1="743" y2="760.0938"/><line style="stroke: #000000; stroke-width: 1.0;" x1="6" x2="439" y1="571.3438" y2="571.3438"/><line style="stroke: #000000; stroke-width: 1.0;" x1="439" x2="498" y1="571.3438" y2="571.3438"/><line style="stroke: #000000; stroke-width: 1.0;" x1="6" x2="439" y1="761.0938" y2="761.0938"/><line style="stroke: #000000; stroke-width: 1.0;" x1="439" x2="498" y1="761.0938" y2="761.0938"/><line style="stroke: #000000; stroke-width: 1.0;" x1="6" x2="6" y1="571.3438" y2="597.4375"/><line style="stroke: #000000; stroke-width: 1.0;" x1="498" x2="498" y1="605.4375" y2="624.5313"/><line style="stroke: #000000; stroke-width: 1.0;" x1="498" x2="498" y1="597.4375" y2="605.4375"/><line style="stroke: #000000; stroke-width: 1.0;" x1="498" x2="498" y1="571.3438" y2="597.4375"/><line style="stroke: #000000; stroke-width: 1.0;" x1="6" x2="6" y1="724.9063" y2="761.0938"/><line style="stroke: #000000; stroke-width: 1.0;" x1="6" x2="6" y1="624.5313" y2="724.9063"/><line style="stroke: #000000; stroke-width: 1.0;" x1="6" x2="6" y1="605.4375" y2="624.5313"/><line style="stroke: #000000; stroke-width: 1.0;" x1="498" x2="498" y1="724.9063" y2="761.0938"/><line style="stroke: #000000; stroke-width: 1.0;" x1="6" x2="6" y1="597.4375" y2="605.4375"/><line style="stroke: #000000; stroke-width: 1.0;" x1="498" x2="498" y1="624.5313" y2="724.9063"/><line style="stroke: #AAAAAA; stroke-width: 1.0; stroke-dasharray: 1.0,2.0;" x1="6" x2="602" y1="783.6875" y2="783.6875"/><rect fill="#EEEEEE" height="19.0938" rx="5" ry="5" style="stroke: #000000; stroke-width: 2.5;" width="260" x="10.5" y="792.6875"/><text fill="#000000" font-family="sans-serif" font-size="12" lengthAdjust="spacingAndGlyphs" textLength="170" x="55.5" y="807.1445">Fermer et retour à l'observation</text><rect fill="#EEEEEE" height="19.0938" rx="5" ry="5" style="stroke: #000000; stroke-width: 2.5;" width="124" x="277.5" y="792.6875"/><text fill="#000000" font-family="sans-serif" font-size="12" lengthAdjust="spacingAndGlyphs" textLength="77" x="301" y="807.1445">Saisir la vente</text></g></svg>