<?xml version="1.0" encoding="UTF-8" standalone="no"?><svg xmlns="http://www.w3.org/2000/svg" xmlns:xlink="http://www.w3.org/1999/xlink" contentScriptType="application/ecmascript" contentStyleType="text/css" height="320px" preserveAspectRatio="none" style="width:489px;height:320px;" version="1.1" viewBox="0 0 489 320" width="489px" zoomAndPan="magnify"><defs/><g><text fill="#000000" font-family="sans-serif" font-size="12" font-weight="bold" lengthAdjust="spacingAndGlyphs" textLength="88" x="6" y="18.457">Nouvelle marée</text><line style="stroke: #AAAAAA; stroke-width: 1.0; stroke-dasharray: 1.0,2.0;" x1="6" x2="209" y1="26.5938" y2="26.5938"/><text fill="#000000" font-family="sans-serif" font-size="12" font-weight="bold" lengthAdjust="spacingAndGlyphs" textLength="44" x="8" y="43.5508">General</text><line style="stroke: #000000; stroke-width: 1.0;" x1="6" x2="6" y1="31.0938" y2="46.1875"/><line style="stroke: #000000; stroke-width: 1.0;" x1="6" x2="55" y1="31.0938" y2="31.0938"/><line style="stroke: #000000; stroke-width: 1.0;" x1="55" x2="55" y1="31.0938" y2="46.1875"/><line style="stroke: #000000; stroke-width: 1.0;" x1="55" x2="65" y1="46.1875" y2="46.1875"/><text fill="#000000" font-family="sans-serif" font-size="12" lengthAdjust="spacingAndGlyphs" textLength="107" x="67" y="43.5508">Capture débarquée</text><line style="stroke: #000000; stroke-width: 1.0;" x1="65" x2="65" y1="31.0938" y2="46.1875"/><line style="stroke: #000000; stroke-width: 1.0;" x1="65" x2="177" y1="31.0938" y2="31.0938"/><line style="stroke: #000000; stroke-width: 1.0;" x1="177" x2="177" y1="31.0938" y2="46.1875"/><line style="stroke: #000000; stroke-width: 1.0;" x1="177" x2="187" y1="46.1875" y2="46.1875"/><text fill="#000000" font-family="sans-serif" font-size="12" lengthAdjust="spacingAndGlyphs" textLength="131" x="6" y="77.7383">Programme de collecte:</text><rect fill="#EEEEEE" height="18.0938" style="stroke: #000000; stroke-width: 1.0;" width="263" x="211" y="66.2813"/><text fill="#000000" font-family="sans-serif" font-size="12" lengthAdjust="spacingAndGlyphs" textLength="187" x="213" y="80.7383">SIH-OBSDEB-opportunistic survey</text><line style="stroke: #000000; stroke-width: 1.0;" x1="463" x2="463" y1="66.2813" y2="84.375"/><polygon fill="#000000" points="466,72.2813,472,72.2813,469,79.375" style="stroke: #000000; stroke-width: 1.0;"/><text fill="#000000" font-family="sans-serif" font-size="12" lengthAdjust="spacingAndGlyphs" textLength="38" x="6" y="100.832">Navire:</text><rect fill="#EEEEEE" height="18.0938" style="stroke: #000000; stroke-width: 1.0;" width="95" x="211" y="89.375"/><text fill="#000000" font-family="sans-serif" font-size="12" lengthAdjust="spacingAndGlyphs" textLength="72" x="213" y="103.832">FRA0001114</text><line style="stroke: #000000; stroke-width: 1.0;" x1="295" x2="295" y1="89.375" y2="107.4688"/><polygon fill="#000000" points="298,95.375,304,95.375,301,102.4688" style="stroke: #000000; stroke-width: 1.0;"/><path d="M313,89.375 L313,92.375 L310,92.375 L310,94.375 L313,94.375 L313,97.375 L315,97.375 L315,94.375 L318,94.375 L318,92.375 L315,92.375 L315,89.375 L313,89.375 " fill="#000000" style="stroke: ; stroke-width: 0.0; stroke-dasharray: ;"/><text fill="#000000" font-family="sans-serif" font-size="12" lengthAdjust="spacingAndGlyphs" textLength="202" x="6" y="123.9258">Lieu de débarquement de la marée*:</text><rect fill="#EEEEEE" height="18.0938" style="stroke: #000000; stroke-width: 1.0;" width="143" x="211" y="112.4688"/><text fill="#000000" font-family="sans-serif" font-size="12" lengthAdjust="spacingAndGlyphs" textLength="93" x="213" y="126.9258">MA - Mahé Island</text><line style="stroke: #000000; stroke-width: 1.0;" x1="343" x2="343" y1="112.4688" y2="130.5625"/><polygon fill="#000000" points="346,118.4688,352,118.4688,349,125.5625" style="stroke: #000000; stroke-width: 1.0;"/><text fill="#000000" font-family="sans-serif" font-size="12" lengthAdjust="spacingAndGlyphs" textLength="156" x="6" y="147.0195">Date/Heure début de marée:</text><rect fill="#EEEEEE" height="18.0938" style="stroke: #000000; stroke-width: 1.0;" width="95" x="211" y="135.5625"/><text fill="#000000" font-family="sans-serif" font-size="12" lengthAdjust="spacingAndGlyphs" textLength="62" x="213" y="150.0195">01/02/2019</text><line style="stroke: #000000; stroke-width: 1.0;" x1="295" x2="295" y1="135.5625" y2="153.6563"/><polygon fill="#000000" points="298,141.5625,304,141.5625,301,148.6563" style="stroke: #000000; stroke-width: 1.0;"/><rect fill="#EEEEEE" height="18.0938" style="stroke: #000000; stroke-width: 1.0;" width="55" x="309" y="135.5625"/><text fill="#000000" font-family="sans-serif" font-size="12" lengthAdjust="spacingAndGlyphs" textLength="31" x="311" y="150.0195">00:00</text><line style="stroke: #000000; stroke-width: 1.0;" x1="353" x2="353" y1="135.5625" y2="153.6563"/><polygon fill="#000000" points="356,141.5625,362,141.5625,359,148.6563" style="stroke: #000000; stroke-width: 1.0;"/><text fill="#000000" font-family="sans-serif" font-size="12" lengthAdjust="spacingAndGlyphs" textLength="138" x="6" y="170.1133">Date/Heure fin de marée:</text><rect fill="#EEEEEE" height="18.0938" style="stroke: #000000; stroke-width: 1.0;" width="95" x="211" y="158.6563"/><text fill="#000000" font-family="sans-serif" font-size="12" lengthAdjust="spacingAndGlyphs" textLength="62" x="213" y="173.1133">01/02/2019</text><line style="stroke: #000000; stroke-width: 1.0;" x1="295" x2="295" y1="158.6563" y2="176.75"/><polygon fill="#000000" points="298,164.6563,304,164.6563,301,171.75" style="stroke: #000000; stroke-width: 1.0;"/><rect fill="#EEEEEE" height="18.0938" style="stroke: #000000; stroke-width: 1.0;" width="55" x="309" y="158.6563"/><text fill="#000000" font-family="sans-serif" font-size="12" lengthAdjust="spacingAndGlyphs" textLength="31" x="311" y="173.1133">23:59</text><line style="stroke: #000000; stroke-width: 1.0;" x1="353" x2="353" y1="158.6563" y2="176.75"/><polygon fill="#000000" points="356,164.6563,362,164.6563,359,171.75" style="stroke: #000000; stroke-width: 1.0;"/><text fill="#000000" font-family="sans-serif" font-size="12" lengthAdjust="spacingAndGlyphs" textLength="150" x="6" y="193.207">Date/Heure débarquement:</text><rect fill="#EEEEEE" height="18.0938" style="stroke: #000000; stroke-width: 1.0;" width="95" x="211" y="181.75"/><text fill="#000000" font-family="sans-serif" font-size="12" lengthAdjust="spacingAndGlyphs" textLength="62" x="213" y="196.207">01/02/2019</text><line style="stroke: #000000; stroke-width: 1.0;" x1="295" x2="295" y1="181.75" y2="199.8438"/><polygon fill="#000000" points="298,187.75,304,187.75,301,194.8438" style="stroke: #000000; stroke-width: 1.0;"/><rect fill="#EEEEEE" height="18.0938" style="stroke: #000000; stroke-width: 1.0;" width="55" x="309" y="181.75"/><text fill="#000000" font-family="sans-serif" font-size="12" lengthAdjust="spacingAndGlyphs" textLength="31" x="311" y="196.207">23:59</text><line style="stroke: #000000; stroke-width: 1.0;" x1="353" x2="353" y1="181.75" y2="199.8438"/><polygon fill="#000000" points="356,187.75,362,187.75,359,194.8438" style="stroke: #000000; stroke-width: 1.0;"/><text fill="#000000" font-family="sans-serif" font-size="12" lengthAdjust="spacingAndGlyphs" textLength="80" x="6" y="216.3008">Observateurs :</text><rect fill="#EEEEEE" height="18.0938" style="stroke: #000000; stroke-width: 1.0;" width="127" x="211" y="204.8438"/><text fill="#000000" font-family="sans-serif" font-size="12" lengthAdjust="spacingAndGlyphs" textLength="84" x="213" y="219.3008">Observateur #1</text><line style="stroke: #000000; stroke-width: 1.0;" x1="327" x2="327" y1="204.8438" y2="222.9375"/><polygon fill="#000000" points="330,210.8438,336,210.8438,333,217.9375" style="stroke: #000000; stroke-width: 1.0;"/><rect fill="#EEEEEE" height="12" rx="5" ry="5" style="stroke: #000000; stroke-width: 2.5;" width="20" x="343.5" y="207.3438"/><path d="M352.5,209.3438 L352.5,212.3438 L349.5,212.3438 L349.5,214.3438 L352.5,214.3438 L352.5,217.3438 L354.5,217.3438 L354.5,214.3438 L357.5,214.3438 L357.5,212.3438 L354.5,212.3438 L354.5,209.3438 L352.5,209.3438 " fill="#000000" style="stroke: ; stroke-width: 0.0; stroke-dasharray: ;"/><rect fill="#EEEEEE" height="12" rx="5" ry="5" style="stroke: #000000; stroke-width: 2.5;" width="20" x="370.5" y="207.3438"/><path d="M377.906,209.3438 L376.5,210.7498 L377.188,211.4688 L378.969,213.2498 L377.188,215.0308 L376.5,215.7498 L377.906,217.1558 L378.625,216.4678 L380.406,214.6868 L382.187,216.4678 L382.906,217.1558 L384.312,215.7498 L383.624,215.0308 L381.843,213.2498 L383.624,211.4688 L384.312,210.7498 L382.906,209.3438 L382.187,210.0318 L380.406,211.8128 L378.625,210.0318 L377.906,209.3438 " fill="#000000" style="stroke: ; stroke-width: 0.0; stroke-dasharray: ;"/><text fill="#000000" font-family="sans-serif" font-size="12" lengthAdjust="spacingAndGlyphs" textLength="129" x="6" y="239.3945">Autres caractéristiques:</text><text fill="#000000" font-family="sans-serif" font-size="12" lengthAdjust="spacingAndGlyphs" textLength="16" x="211" y="240.3945">NA</text><text fill="#000000" font-family="sans-serif" font-size="12" lengthAdjust="spacingAndGlyphs" textLength="83" x="6" y="275.582">Commentaires</text><text fill="#000000" font-family="sans-serif" font-size="12" lengthAdjust="spacingAndGlyphs" textLength="80" x="214" y="276.582">commentaires</text><line style="stroke: #000000; stroke-width: 1.0;" x1="212" x2="367" y1="279.2188" y2="279.2188"/><line style="stroke: #000000; stroke-width: 1.0;" x1="212" x2="212" y1="276.2188" y2="278.2188"/><line style="stroke: #000000; stroke-width: 1.0;" x1="367" x2="367" y1="276.2188" y2="278.2188"/><line style="stroke: #AAAAAA; stroke-width: 1.0;" x1="6" x2="209" y1="287.7188" y2="287.7188"/><line style="stroke: #AAAAAA; stroke-width: 1.0;" x1="210" x2="477" y1="287.7188" y2="287.7188"/><rect fill="#EEEEEE" height="19.0938" rx="5" ry="5" style="stroke: #000000; stroke-width: 2.5;" width="60" x="213.5" y="295.7188"/><text fill="#000000" font-family="sans-serif" font-size="12" lengthAdjust="spacingAndGlyphs" textLength="42" x="222.5" y="310.1758">Annuler</text><rect fill="#EEEEEE" height="19.0938" rx="5" ry="5" style="stroke: #000000; stroke-width: 2.5;" width="92" x="280.5" y="295.7188"/><text fill="#000000" font-family="sans-serif" font-size="12" lengthAdjust="spacingAndGlyphs" textLength="70" x="291.5" y="310.1758">Sauvegarder</text></g></svg>