<?xml version="1.0" encoding="UTF-8" standalone="no"?><svg xmlns="http://www.w3.org/2000/svg" xmlns:xlink="http://www.w3.org/1999/xlink" contentScriptType="application/ecmascript" contentStyleType="text/css" height="861px" preserveAspectRatio="none" style="width:779px;height:861px;" version="1.1" viewBox="0 0 779 861" width="779px" zoomAndPan="magnify"><defs/><g><text fill="#000000" font-family="sans-serif" font-size="12" font-weight="bold" lengthAdjust="spacingAndGlyphs" textLength="248" x="9" y="18.457">Immat Navire - Lieu - Date fin marée - Métier</text><line style="stroke: #AAAAAA; stroke-width: 1.0; stroke-dasharray: 1.0,2.0;" x1="6" x2="760" y1="26.5938" y2="26.5938"/><text fill="#000000" font-family="sans-serif" font-size="12" lengthAdjust="spacingAndGlyphs" textLength="64" x="8" y="43.5508">General trip</text><line style="stroke: #000000; stroke-width: 1.0;" x1="6" x2="6" y1="31.0938" y2="46.1875"/><line style="stroke: #000000; stroke-width: 1.0;" x1="6" x2="75" y1="31.0938" y2="31.0938"/><line style="stroke: #000000; stroke-width: 1.0;" x1="75" x2="75" y1="31.0938" y2="46.1875"/><line style="stroke: #000000; stroke-width: 1.0;" x1="75" x2="85" y1="46.1875" y2="46.1875"/><text fill="#000000" font-family="sans-serif" font-size="12" lengthAdjust="spacingAndGlyphs" textLength="28" x="87" y="43.5508">Effort</text><line style="stroke: #000000; stroke-width: 1.0;" x1="85" x2="85" y1="31.0938" y2="46.1875"/><line style="stroke: #000000; stroke-width: 1.0;" x1="85" x2="118" y1="31.0938" y2="31.0938"/><line style="stroke: #000000; stroke-width: 1.0;" x1="118" x2="118" y1="31.0938" y2="46.1875"/><line style="stroke: #000000; stroke-width: 1.0;" x1="118" x2="128" y1="46.1875" y2="46.1875"/><text fill="#000000" font-family="sans-serif" font-size="12" font-weight="bold" lengthAdjust="spacingAndGlyphs" textLength="109" x="130" y="43.5508">Capture débarquée</text><line style="stroke: #000000; stroke-width: 1.0;" x1="128" x2="128" y1="31.0938" y2="46.1875"/><line style="stroke: #000000; stroke-width: 1.0;" x1="128" x2="242" y1="31.0938" y2="31.0938"/><line style="stroke: #000000; stroke-width: 1.0;" x1="242" x2="242" y1="31.0938" y2="46.1875"/><line style="stroke: #000000; stroke-width: 1.0;" x1="242" x2="252" y1="46.1875" y2="46.1875"/><text fill="#000000" font-family="sans-serif" font-size="12" lengthAdjust="spacingAndGlyphs" textLength="31" x="254" y="43.5508">Vente</text><line style="stroke: #000000; stroke-width: 1.0;" x1="252" x2="252" y1="31.0938" y2="46.1875"/><line style="stroke: #000000; stroke-width: 1.0;" x1="252" x2="288" y1="31.0938" y2="31.0938"/><line style="stroke: #000000; stroke-width: 1.0;" x1="288" x2="288" y1="31.0938" y2="46.1875"/><line style="stroke: #000000; stroke-width: 1.0;" x1="288" x2="298" y1="46.1875" y2="46.1875"/><text fill="#000000" font-family="sans-serif" font-size="12" lengthAdjust="spacingAndGlyphs" textLength="58" x="300" y="43.5508">Dépenses</text><line style="stroke: #000000; stroke-width: 1.0;" x1="298" x2="298" y1="31.0938" y2="46.1875"/><line style="stroke: #000000; stroke-width: 1.0;" x1="298" x2="361" y1="31.0938" y2="31.0938"/><line style="stroke: #000000; stroke-width: 1.0;" x1="361" x2="361" y1="31.0938" y2="46.1875"/><line style="stroke: #000000; stroke-width: 1.0;" x1="361" x2="371" y1="46.1875" y2="46.1875"/><path d="M9.344,70.375 A0.502,0.502 0 0 0 9.5,71.375 L10,71.375 L10,72.781 C9.912,72.953 8.806,75.094 8.344,75.875 C8.191,76.143 8,76.487 8,76.938 C8,77.321 8.139,77.702 8.406,77.969 C8.666,78.229 9.049,78.375 9.437,78.375 L14.562,78.375 C14.945,78.375 15.326,78.236 15.593,77.969 C15.853,77.709 15.999,77.326 15.999,76.938 C15.999,76.486 15.805,76.137 15.655,75.875 C15.192,75.095 14.087,72.953 13.999,72.781 L13.999,71.375 L14.499,71.375 A0.5,0.5 0 1 0 14.499,70.375 L9.499,70.375 A0.5,0.5 0 0 0 9.405,70.375 A0.502,0.502 0 0 0 9.342,70.375 M10.998,71.375 L12.998,71.375 L12.998,73 L13.061,73.094 C13.713,74.327 13.713,74.327 14.28,75.375 L9.717,75.375 C10.284,74.326 10.936,73.094 10.936,73.094 L10.999,73 L10.999,71.375 " fill="#000000" style="stroke: ; stroke-width: 0.0; stroke-dasharray: ;"/><text fill="#000000" font-family="sans-serif" font-size="12" lengthAdjust="spacingAndGlyphs" textLength="72" x="20" y="78.7383">Filter by effort</text><rect fill="#EEEEEE" height="18.0938" style="stroke: #000000; stroke-width: 1.0;" width="255" x="95" y="67.2813"/><text fill="#000000" font-family="sans-serif" font-size="12" lengthAdjust="spacingAndGlyphs" textLength="156" x="97" y="81.7383">FIXABSX - Active trap for Vyey</text><line style="stroke: #000000; stroke-width: 1.0;" x1="339" x2="339" y1="67.2813" y2="85.375"/><polygon fill="#000000" points="342,73.2813,348,73.2813,345,80.375" style="stroke: #000000; stroke-width: 1.0;"/><path d="M355.75,66.2813 C355.348,66.2813 355,66.6293 355,67.0313 L355,72.5313 C355,72.9333 355.348,73.2813 355.75,73.2813 L362.25,73.2813 C362.652,73.2813 363,72.9333 363,72.5313 L363,67.0313 C363,66.6293 362.652,66.2813 362.25,66.2813 L355.75,66.2813 M356,67.2813 L357,67.2813 L357,68.2813 L356,68.2813 L356,67.2813 M358,67.2813 L362,67.2813 L362,68.2813 L358,68.2813 L358,67.2813 M356,69.2813 L357,69.2813 L357,70.2813 L356,70.2813 L356,69.2813 M358,69.2813 L362,69.2813 L362,70.2813 L358,70.2813 L358,69.2813 M356,71.2813 L357,71.2813 L357,72.2813 L356,72.2813 L356,71.2813 M358,71.2813 L362,71.2813 L362,72.2813 L358,72.2813 L358,71.2813 " fill="#000000" style="stroke: ; stroke-width: 0.0; stroke-dasharray: ;"/><rect fill="#EEEEEE" height="19.0938" rx="5" ry="5" style="stroke: #000000; stroke-width: 2.5;" width="36" x="368.5" y="68.7813"/><text fill="#000000" font-family="sans-serif" font-size="12" lengthAdjust="spacingAndGlyphs" textLength="21" x="376" y="83.2383">Edit</text><rect fill="#EEEEEE" height="19.0938" rx="5" ry="5" style="stroke: #000000; stroke-width: 2.5;" width="29" x="411.5" y="68.7813"/><text fill="#000000" font-family="sans-serif" font-size="12" lengthAdjust="spacingAndGlyphs" textLength="25" x="413.5" y="83.2383">New</text><line style="stroke: #AAAAAA; stroke-width: 1.0;" x1="6" x2="760" y1="96.875" y2="96.875"/><line style="stroke: #AAAAAA; stroke-width: 1.0;" x1="761" x2="772" y1="96.875" y2="96.875"/><text fill="#000000" font-family="sans-serif" font-size="12" font-weight="bold" lengthAdjust="spacingAndGlyphs" textLength="226" x="7" y="131.9258">Saisie des capture débarquée par effort</text><rect fill="#EEEEEE" height="19.0938" rx="5" ry="5" style="stroke: #000000; stroke-width: 2.5;" width="52" x="703.5" y="121.9688"/><text fill="#000000" font-family="sans-serif" font-size="12" lengthAdjust="spacingAndGlyphs" textLength="40" x="709.5" y="136.4258">Fermer</text><line style="stroke: #AAAAAA; stroke-width: 1.0; stroke-dasharray: 1.0,2.0;" x1="7" x2="700" y1="149.0625" y2="149.0625"/><text fill="#000000" font-family="sans-serif" font-size="12" font-weight="bold" lengthAdjust="spacingAndGlyphs" textLength="102" x="28" y="167.0195">Saisie par espèce</text><ellipse cx="15" cy="162.1094" fill="none" rx="5" ry="5" style="stroke: #000000; stroke-width: 1.5;"/><ellipse cx="15" cy="162.1094" fill="#000000" rx="2" ry="2" style="stroke: #000000; stroke-width: 1.5;"/><text fill="#000000" font-family="sans-serif" font-size="12" lengthAdjust="spacingAndGlyphs" textLength="97" x="152" y="167.0195">Saisie par paquet</text><ellipse cx="139" cy="162.1094" fill="none" rx="5" ry="5" style="stroke: #000000; stroke-width: 1.5;"/><text fill="#000000" font-family="sans-serif" font-size="12" lengthAdjust="spacingAndGlyphs" textLength="120" x="8" y="203.207">Espèce commerciale:</text><rect fill="#EEEEEE" height="18.0938" style="stroke: #000000; stroke-width: 1.0;" width="167" x="182" y="191.75"/><text fill="#000000" font-family="sans-serif" font-size="12" lengthAdjust="spacingAndGlyphs" textLength="41" x="184" y="206.207">Albakor</text><line style="stroke: #000000; stroke-width: 1.0;" x1="338" x2="338" y1="191.75" y2="209.8438"/><polygon fill="#000000" points="341,197.75,347,197.75,344,204.8438" style="stroke: #000000; stroke-width: 1.0;"/><text fill="#000000" font-family="sans-serif" font-size="12" lengthAdjust="spacingAndGlyphs" textLength="93" x="372" y="204.207">Valeur par défaut</text><rect fill="none" height="10" style="stroke: #000000; stroke-width: 1.5;" width="10" x="354" y="194.2969"/><text fill="#000000" font-family="sans-serif" font-size="12" font-style="italic" lengthAdjust="spacingAndGlyphs" textLength="171" x="8" y="226.3008">Espèce scientifique (optionnel):</text><rect fill="#EEEEEE" height="18.0938" style="stroke: #000000; stroke-width: 1.0;" width="167" x="182" y="214.8438"/><text fill="#000000" font-family="sans-serif" font-size="12" font-style="italic" lengthAdjust="spacingAndGlyphs" textLength="99" x="184" y="229.3008">Thunnus alalunga</text><line style="stroke: #000000; stroke-width: 1.0;" x1="338" x2="338" y1="214.8438" y2="232.9375"/><polygon fill="#000000" points="341,220.8438,347,220.8438,344,227.9375" style="stroke: #000000; stroke-width: 1.0;"/><text fill="#000000" font-family="sans-serif" font-size="12" font-style="italic" lengthAdjust="spacingAndGlyphs" textLength="107" x="372" y="227.3008">Conserver la valeur</text><rect fill="none" height="10" style="stroke: #000000; stroke-width: 1.5;" width="10" x="354" y="217.3906"/><text fill="#000000" font-family="sans-serif" font-size="12" lengthAdjust="spacingAndGlyphs" textLength="86" x="8" y="249.3945">Poids Ech. (kg):</text><text fill="#000000" font-family="sans-serif" font-size="12" lengthAdjust="spacingAndGlyphs" textLength="24" x="185" y="250.3945">20.0</text><line style="stroke: #000000; stroke-width: 1.0;" x1="183" x2="298" y1="253.0313" y2="253.0313"/><line style="stroke: #000000; stroke-width: 1.0;" x1="183" x2="183" y1="250.0313" y2="252.0313"/><line style="stroke: #000000; stroke-width: 1.0;" x1="298" x2="298" y1="250.0313" y2="252.0313"/><text fill="#000000" font-family="sans-serif" font-size="12" lengthAdjust="spacingAndGlyphs" textLength="112" x="8" y="270.4883">Nombre d'individus :</text><text fill="#000000" font-family="sans-serif" font-size="12" lengthAdjust="spacingAndGlyphs" textLength="14" x="185" y="271.4883">26</text><line style="stroke: #000000; stroke-width: 1.0;" x1="183" x2="298" y1="274.125" y2="274.125"/><line style="stroke: #000000; stroke-width: 1.0;" x1="183" x2="183" y1="271.125" y2="273.125"/><line style="stroke: #000000; stroke-width: 1.0;" x1="298" x2="298" y1="271.125" y2="273.125"/><text fill="#000000" font-family="sans-serif" font-size="12" lengthAdjust="spacingAndGlyphs" textLength="61" x="8" y="291.582">Packaging:</text><rect fill="#EEEEEE" height="18.0938" style="stroke: #000000; stroke-width: 1.0;" width="87" x="182" y="280.125"/><text fill="#000000" font-family="sans-serif" font-size="12" lengthAdjust="spacingAndGlyphs" textLength="22" x="184" y="294.582">Unit</text><line style="stroke: #000000; stroke-width: 1.0;" x1="258" x2="258" y1="280.125" y2="298.2188"/><polygon fill="#000000" points="261,286.125,267,286.125,264,293.2188" style="stroke: #000000; stroke-width: 1.0;"/><text fill="#000000" font-family="sans-serif" font-size="12" lengthAdjust="spacingAndGlyphs" textLength="106" x="292" y="292.582">Conserver la valeur</text><rect fill="none" height="10" style="stroke: #000000; stroke-width: 1.5;" width="10" x="274" y="282.6719"/><polygon fill="#000000" points="275,286.125,278,289.125,285,280.125,278,287.125" style="stroke: #000000; stroke-width: 1.5;"/><text fill="#000000" font-family="sans-serif" font-size="12" lengthAdjust="spacingAndGlyphs" textLength="72" x="8" y="314.6758">Preservation:</text><rect fill="#EEEEEE" height="18.0938" style="stroke: #000000; stroke-width: 1.0;" width="87" x="182" y="303.2188"/><text fill="#000000" font-family="sans-serif" font-size="12" lengthAdjust="spacingAndGlyphs" textLength="32" x="184" y="317.6758">Entier</text><line style="stroke: #000000; stroke-width: 1.0;" x1="258" x2="258" y1="303.2188" y2="321.3125"/><polygon fill="#000000" points="261,309.2188,267,309.2188,264,316.3125" style="stroke: #000000; stroke-width: 1.0;"/><text fill="#000000" font-family="sans-serif" font-size="12" lengthAdjust="spacingAndGlyphs" textLength="106" x="292" y="315.6758">Conserver la valeur</text><rect fill="none" height="10" style="stroke: #000000; stroke-width: 1.5;" width="10" x="274" y="305.7656"/><polygon fill="#000000" points="275,309.2188,278,312.2188,285,303.2188,278,310.2188" style="stroke: #000000; stroke-width: 1.5;"/><text fill="#000000" font-family="sans-serif" font-size="12" lengthAdjust="spacingAndGlyphs" textLength="87" x="8" y="337.7695">Catégorie de tri:</text><rect fill="#EEEEEE" height="18.0938" style="stroke: #000000; stroke-width: 1.0;" width="87" x="182" y="326.3125"/><text fill="#000000" font-family="sans-serif" font-size="12" lengthAdjust="spacingAndGlyphs" textLength="44" x="184" y="340.7695">Non-trié</text><line style="stroke: #000000; stroke-width: 1.0;" x1="258" x2="258" y1="326.3125" y2="344.4063"/><polygon fill="#000000" points="261,332.3125,267,332.3125,264,339.4063" style="stroke: #000000; stroke-width: 1.0;"/><text fill="#000000" font-family="sans-serif" font-size="12" lengthAdjust="spacingAndGlyphs" textLength="106" x="292" y="338.7695">Conserver la valeur</text><rect fill="none" height="10" style="stroke: #000000; stroke-width: 1.5;" width="10" x="274" y="328.8594"/><polygon fill="#000000" points="275,332.3125,278,335.3125,285,326.3125,278,333.3125" style="stroke: #000000; stroke-width: 1.5;"/><rect fill="#EEEEEE" height="19.0938" rx="5" ry="5" style="stroke: #000000; stroke-width: 2.5;" width="60" x="184.5" y="369"/><text fill="#000000" font-family="sans-serif" font-size="12" lengthAdjust="spacingAndGlyphs" textLength="38" x="195.5" y="383.457">Ajouter</text><rect fill="#EEEEEE" height="19.0938" rx="5" ry="5" style="stroke: #000000; stroke-width: 2.5;" width="156" x="251.5" y="369"/><text fill="#000000" font-family="sans-serif" font-size="12" lengthAdjust="spacingAndGlyphs" textLength="104" x="277.5" y="383.457">Annuler la dernière</text><line style="stroke: #AAAAAA; stroke-width: 1.0;" x1="8" x2="180" y1="397.0938" y2="397.0938"/><line style="stroke: #AAAAAA; stroke-width: 1.0;" x1="181" x2="481" y1="397.0938" y2="397.0938"/><text fill="#000000" font-family="sans-serif" font-size="12" lengthAdjust="spacingAndGlyphs" textLength="7" x="8" y="433.1445">#</text><text fill="#000000" font-family="sans-serif" font-size="12" lengthAdjust="spacingAndGlyphs" textLength="33" x="17" y="433.1445">Metier</text><text fill="#000000" font-family="sans-serif" font-size="12" font-weight="bold" lengthAdjust="spacingAndGlyphs" textLength="120" x="175" y="433.1445">Espèce commerciale</text><text fill="#000000" font-family="sans-serif" font-size="12" font-weight="bold" lengthAdjust="spacingAndGlyphs" textLength="84" x="297" y="433.1445">Poids Ech. (kg)</text><text fill="#000000" font-family="sans-serif" font-size="12" font-weight="bold" lengthAdjust="spacingAndGlyphs" textLength="45" x="383" y="433.1445">NB indiv</text><text fill="#000000" font-family="sans-serif" font-size="12" font-weight="bold" lengthAdjust="spacingAndGlyphs" textLength="60" x="430" y="433.1445">Packaging</text><text fill="#000000" font-family="sans-serif" font-size="12" font-weight="bold" lengthAdjust="spacingAndGlyphs" textLength="73" x="492" y="433.1445">Preservation</text><text fill="#000000" font-family="sans-serif" font-size="12" font-weight="bold" lengthAdjust="spacingAndGlyphs" textLength="73" x="567" y="433.1445">Presentation</text><text fill="#000000" font-family="sans-serif" font-size="12" font-weight="bold" lengthAdjust="spacingAndGlyphs" textLength="37" x="642" y="433.1445">Cat Tri</text><text fill="#000000" font-family="sans-serif" font-size="12" lengthAdjust="spacingAndGlyphs" textLength="7" x="8" y="450.2383">3</text><text fill="#000000" font-family="sans-serif" font-size="12" lengthAdjust="spacingAndGlyphs" textLength="156" x="17" y="450.2383">FIXABSX - Active trap for Vyey</text><text fill="#000000" font-family="sans-serif" font-size="12" lengthAdjust="spacingAndGlyphs" textLength="41" x="175" y="450.2383">Albakor</text><text fill="#000000" font-family="sans-serif" font-size="12" lengthAdjust="spacingAndGlyphs" textLength="24" x="297" y="450.2383">20.0</text><text fill="#000000" font-family="sans-serif" font-size="12" lengthAdjust="spacingAndGlyphs" textLength="14" x="383" y="450.2383">26</text><text fill="#000000" font-family="sans-serif" font-size="12" lengthAdjust="spacingAndGlyphs" textLength="22" x="430" y="450.2383">Unit</text><text fill="#000000" font-family="sans-serif" font-size="12" lengthAdjust="spacingAndGlyphs" textLength="28" x="492" y="450.2383">Frais</text><text fill="#000000" font-family="sans-serif" font-size="12" lengthAdjust="spacingAndGlyphs" textLength="32" x="567" y="450.2383">Entier</text><text fill="#000000" font-family="sans-serif" font-size="12" lengthAdjust="spacingAndGlyphs" textLength="44" x="642" y="450.2383">Non-trié</text><path d="M692,437.7813 C691.45,437.7813 691,438.2313 691,438.7813 L690,438.7813 C689.45,438.7813 689,439.2313 689,439.7813 L696,439.7813 C696,439.2313 695.55,438.7813 695,438.7813 L694,438.7813 C694,438.2313 693.55,437.7813 693,437.7813 L692,437.7813 M690,440.7813 L690,445.5943 C690,445.7043 690.077,445.7823 690.188,445.7823 L694.813,445.7823 C694.923,445.7823 695.001,445.7053 695.001,445.5943 L695.001,440.7813 L694.001,440.7813 L694.001,444.2813 C694.001,444.5613 693.781,444.7813 693.501,444.7813 C693.221,444.7813 693.001,444.5613 693.001,444.2813 L693.001,440.7813 L692.001,440.7813 L692.001,444.2813 C692.001,444.5613 691.781,444.7813 691.501,444.7813 C691.221,444.7813 691.001,444.5613 691.001,444.2813 L691.001,440.7813 L690.001,440.7813 " fill="#000000" style="stroke: ; stroke-width: 0.0; stroke-dasharray: ;"/><text fill="#000000" font-family="sans-serif" font-size="12" lengthAdjust="spacingAndGlyphs" textLength="7" x="8" y="467.332">2</text><text fill="#000000" font-family="sans-serif" font-size="12" lengthAdjust="spacingAndGlyphs" textLength="156" x="17" y="467.332">FIXABSX - Active trap for Vyey</text><text fill="#000000" font-family="sans-serif" font-size="12" lengthAdjust="spacingAndGlyphs" textLength="68" x="175" y="467.332">Barwa - LXN</text><text fill="#000000" font-family="sans-serif" font-size="12" lengthAdjust="spacingAndGlyphs" textLength="24" x="297" y="467.332">26.0</text><text fill="#000000" font-family="sans-serif" font-size="12" lengthAdjust="spacingAndGlyphs" textLength="7" x="383" y="467.332">3</text><text fill="#000000" font-family="sans-serif" font-size="12" lengthAdjust="spacingAndGlyphs" textLength="22" x="430" y="467.332">Unit</text><text fill="#000000" font-family="sans-serif" font-size="12" lengthAdjust="spacingAndGlyphs" textLength="28" x="492" y="467.332">Frais</text><text fill="#000000" font-family="sans-serif" font-size="12" lengthAdjust="spacingAndGlyphs" textLength="32" x="567" y="467.332">Entier</text><text fill="#000000" font-family="sans-serif" font-size="12" lengthAdjust="spacingAndGlyphs" textLength="44" x="642" y="467.332">Non-trié</text><path d="M692,454.875 C691.45,454.875 691,455.325 691,455.875 L690,455.875 C689.45,455.875 689,456.325 689,456.875 L696,456.875 C696,456.325 695.55,455.875 695,455.875 L694,455.875 C694,455.325 693.55,454.875 693,454.875 L692,454.875 M690,457.875 L690,462.688 C690,462.798 690.077,462.876 690.188,462.876 L694.813,462.876 C694.923,462.876 695.001,462.799 695.001,462.688 L695.001,457.875 L694.001,457.875 L694.001,461.375 C694.001,461.655 693.781,461.875 693.501,461.875 C693.221,461.875 693.001,461.655 693.001,461.375 L693.001,457.875 L692.001,457.875 L692.001,461.375 C692.001,461.655 691.781,461.875 691.501,461.875 C691.221,461.875 691.001,461.655 691.001,461.375 L691.001,457.875 L690.001,457.875 " fill="#000000" style="stroke: ; stroke-width: 0.0; stroke-dasharray: ;"/><text fill="#000000" font-family="sans-serif" font-size="12" lengthAdjust="spacingAndGlyphs" textLength="7" x="8" y="484.4258">1</text><text fill="#000000" font-family="sans-serif" font-size="12" lengthAdjust="spacingAndGlyphs" textLength="156" x="17" y="484.4258">FIXABSX - Active trap for Vyey</text><text fill="#000000" font-family="sans-serif" font-size="12" lengthAdjust="spacingAndGlyphs" textLength="105" x="175" y="484.4258">Anba Iasann - PWT</text><text fill="#000000" font-family="sans-serif" font-size="12" lengthAdjust="spacingAndGlyphs" textLength="31" x="297" y="484.4258">200.0</text><text fill="#000000" font-family="sans-serif" font-size="12" lengthAdjust="spacingAndGlyphs" textLength="14" x="383" y="484.4258">45</text><text fill="#000000" font-family="sans-serif" font-size="12" lengthAdjust="spacingAndGlyphs" textLength="22" x="430" y="484.4258">Unit</text><text fill="#000000" font-family="sans-serif" font-size="12" lengthAdjust="spacingAndGlyphs" textLength="28" x="492" y="484.4258">Frais</text><text fill="#000000" font-family="sans-serif" font-size="12" lengthAdjust="spacingAndGlyphs" textLength="32" x="567" y="484.4258">Entier</text><text fill="#000000" font-family="sans-serif" font-size="12" lengthAdjust="spacingAndGlyphs" textLength="44" x="642" y="484.4258">Non-trié</text><path d="M692,471.9688 C691.45,471.9688 691,472.4188 691,472.9688 L690,472.9688 C689.45,472.9688 689,473.4188 689,473.9688 L696,473.9688 C696,473.4188 695.55,472.9688 695,472.9688 L694,472.9688 C694,472.4188 693.55,471.9688 693,471.9688 L692,471.9688 M690,474.9688 L690,479.7818 C690,479.8918 690.077,479.9698 690.188,479.9698 L694.813,479.9698 C694.923,479.9698 695.001,479.8928 695.001,479.7818 L695.001,474.9688 L694.001,474.9688 L694.001,478.4688 C694.001,478.7488 693.781,478.9688 693.501,478.9688 C693.221,478.9688 693.001,478.7488 693.001,478.4688 L693.001,474.9688 L692.001,474.9688 L692.001,478.4688 C692.001,478.7488 691.781,478.9688 691.501,478.9688 C691.221,478.9688 691.001,478.7488 691.001,478.4688 L691.001,474.9688 L690.001,474.9688 " fill="#000000" style="stroke: ; stroke-width: 0.0; stroke-dasharray: ;"/><line style="stroke: #000000; stroke-width: 1.0;" x1="7" x2="16" y1="419.6875" y2="419.6875"/><line style="stroke: #000000; stroke-width: 1.0;" x1="16" x2="174" y1="419.6875" y2="419.6875"/><line style="stroke: #000000; stroke-width: 1.0;" x1="174" x2="296" y1="419.6875" y2="419.6875"/><line style="stroke: #000000; stroke-width: 1.0;" x1="296" x2="382" y1="419.6875" y2="419.6875"/><line style="stroke: #000000; stroke-width: 1.0;" x1="382" x2="429" y1="419.6875" y2="419.6875"/><line style="stroke: #000000; stroke-width: 1.0;" x1="429" x2="491" y1="419.6875" y2="419.6875"/><line style="stroke: #000000; stroke-width: 1.0;" x1="491" x2="566" y1="419.6875" y2="419.6875"/><line style="stroke: #000000; stroke-width: 1.0;" x1="566" x2="641" y1="419.6875" y2="419.6875"/><line style="stroke: #000000; stroke-width: 1.0;" x1="641" x2="687" y1="419.6875" y2="419.6875"/><line style="stroke: #000000; stroke-width: 1.0;" x1="687" x2="699" y1="419.6875" y2="419.6875"/><line style="stroke: #000000; stroke-width: 1.0;" x1="7" x2="16" y1="470.9688" y2="470.9688"/><line style="stroke: #000000; stroke-width: 1.0;" x1="16" x2="174" y1="470.9688" y2="470.9688"/><line style="stroke: #000000; stroke-width: 1.0;" x1="174" x2="296" y1="470.9688" y2="470.9688"/><line style="stroke: #000000; stroke-width: 1.0;" x1="296" x2="382" y1="470.9688" y2="470.9688"/><line style="stroke: #000000; stroke-width: 1.0;" x1="382" x2="429" y1="470.9688" y2="470.9688"/><line style="stroke: #000000; stroke-width: 1.0;" x1="429" x2="491" y1="470.9688" y2="470.9688"/><line style="stroke: #000000; stroke-width: 1.0;" x1="491" x2="566" y1="470.9688" y2="470.9688"/><line style="stroke: #000000; stroke-width: 1.0;" x1="566" x2="641" y1="470.9688" y2="470.9688"/><line style="stroke: #000000; stroke-width: 1.0;" x1="641" x2="687" y1="470.9688" y2="470.9688"/><line style="stroke: #000000; stroke-width: 1.0;" x1="687" x2="699" y1="470.9688" y2="470.9688"/><line style="stroke: #000000; stroke-width: 1.0;" x1="7" x2="16" y1="436.7813" y2="436.7813"/><line style="stroke: #000000; stroke-width: 1.0;" x1="16" x2="174" y1="436.7813" y2="436.7813"/><line style="stroke: #000000; stroke-width: 1.0;" x1="174" x2="296" y1="436.7813" y2="436.7813"/><line style="stroke: #000000; stroke-width: 1.0;" x1="296" x2="382" y1="436.7813" y2="436.7813"/><line style="stroke: #000000; stroke-width: 1.0;" x1="382" x2="429" y1="436.7813" y2="436.7813"/><line style="stroke: #000000; stroke-width: 1.0;" x1="429" x2="491" y1="436.7813" y2="436.7813"/><line style="stroke: #000000; stroke-width: 1.0;" x1="491" x2="566" y1="436.7813" y2="436.7813"/><line style="stroke: #000000; stroke-width: 1.0;" x1="566" x2="641" y1="436.7813" y2="436.7813"/><line style="stroke: #000000; stroke-width: 1.0;" x1="641" x2="687" y1="436.7813" y2="436.7813"/><line style="stroke: #000000; stroke-width: 1.0;" x1="687" x2="699" y1="436.7813" y2="436.7813"/><line style="stroke: #000000; stroke-width: 1.0;" x1="7" x2="16" y1="488.0625" y2="488.0625"/><line style="stroke: #000000; stroke-width: 1.0;" x1="16" x2="174" y1="488.0625" y2="488.0625"/><line style="stroke: #000000; stroke-width: 1.0;" x1="174" x2="296" y1="488.0625" y2="488.0625"/><line style="stroke: #000000; stroke-width: 1.0;" x1="296" x2="382" y1="488.0625" y2="488.0625"/><line style="stroke: #000000; stroke-width: 1.0;" x1="382" x2="429" y1="488.0625" y2="488.0625"/><line style="stroke: #000000; stroke-width: 1.0;" x1="429" x2="491" y1="488.0625" y2="488.0625"/><line style="stroke: #000000; stroke-width: 1.0;" x1="491" x2="566" y1="488.0625" y2="488.0625"/><line style="stroke: #000000; stroke-width: 1.0;" x1="566" x2="641" y1="488.0625" y2="488.0625"/><line style="stroke: #000000; stroke-width: 1.0;" x1="641" x2="687" y1="488.0625" y2="488.0625"/><line style="stroke: #000000; stroke-width: 1.0;" x1="687" x2="699" y1="488.0625" y2="488.0625"/><line style="stroke: #000000; stroke-width: 1.0;" x1="7" x2="16" y1="453.875" y2="453.875"/><line style="stroke: #000000; stroke-width: 1.0;" x1="16" x2="174" y1="453.875" y2="453.875"/><line style="stroke: #000000; stroke-width: 1.0;" x1="174" x2="296" y1="453.875" y2="453.875"/><line style="stroke: #000000; stroke-width: 1.0;" x1="296" x2="382" y1="453.875" y2="453.875"/><line style="stroke: #000000; stroke-width: 1.0;" x1="382" x2="429" y1="453.875" y2="453.875"/><line style="stroke: #000000; stroke-width: 1.0;" x1="429" x2="491" y1="453.875" y2="453.875"/><line style="stroke: #000000; stroke-width: 1.0;" x1="491" x2="566" y1="453.875" y2="453.875"/><line style="stroke: #000000; stroke-width: 1.0;" x1="566" x2="641" y1="453.875" y2="453.875"/><line style="stroke: #000000; stroke-width: 1.0;" x1="641" x2="687" y1="453.875" y2="453.875"/><line style="stroke: #000000; stroke-width: 1.0;" x1="687" x2="699" y1="453.875" y2="453.875"/><line style="stroke: #000000; stroke-width: 1.0;" x1="7" x2="7" y1="419.6875" y2="436.7813"/><line style="stroke: #000000; stroke-width: 1.0;" x1="16" x2="16" y1="419.6875" y2="436.7813"/><line style="stroke: #000000; stroke-width: 1.0;" x1="174" x2="174" y1="419.6875" y2="436.7813"/><line style="stroke: #000000; stroke-width: 1.0;" x1="296" x2="296" y1="419.6875" y2="436.7813"/><line style="stroke: #000000; stroke-width: 1.0;" x1="382" x2="382" y1="419.6875" y2="436.7813"/><line style="stroke: #000000; stroke-width: 1.0;" x1="429" x2="429" y1="419.6875" y2="436.7813"/><line style="stroke: #000000; stroke-width: 1.0;" x1="491" x2="491" y1="419.6875" y2="436.7813"/><line style="stroke: #000000; stroke-width: 1.0;" x1="566" x2="566" y1="419.6875" y2="436.7813"/><line style="stroke: #000000; stroke-width: 1.0;" x1="641" x2="641" y1="419.6875" y2="436.7813"/><line style="stroke: #000000; stroke-width: 1.0;" x1="687" x2="687" y1="419.6875" y2="436.7813"/><line style="stroke: #000000; stroke-width: 1.0;" x1="699" x2="699" y1="419.6875" y2="436.7813"/><line style="stroke: #000000; stroke-width: 1.0;" x1="7" x2="7" y1="470.9688" y2="488.0625"/><line style="stroke: #000000; stroke-width: 1.0;" x1="16" x2="16" y1="470.9688" y2="488.0625"/><line style="stroke: #000000; stroke-width: 1.0;" x1="174" x2="174" y1="470.9688" y2="488.0625"/><line style="stroke: #000000; stroke-width: 1.0;" x1="296" x2="296" y1="470.9688" y2="488.0625"/><line style="stroke: #000000; stroke-width: 1.0;" x1="382" x2="382" y1="470.9688" y2="488.0625"/><line style="stroke: #000000; stroke-width: 1.0;" x1="429" x2="429" y1="470.9688" y2="488.0625"/><line style="stroke: #000000; stroke-width: 1.0;" x1="491" x2="491" y1="470.9688" y2="488.0625"/><line style="stroke: #000000; stroke-width: 1.0;" x1="566" x2="566" y1="470.9688" y2="488.0625"/><line style="stroke: #000000; stroke-width: 1.0;" x1="641" x2="641" y1="470.9688" y2="488.0625"/><line style="stroke: #000000; stroke-width: 1.0;" x1="687" x2="687" y1="470.9688" y2="488.0625"/><line style="stroke: #000000; stroke-width: 1.0;" x1="699" x2="699" y1="470.9688" y2="488.0625"/><line style="stroke: #000000; stroke-width: 1.0;" x1="7" x2="7" y1="453.875" y2="470.9688"/><line style="stroke: #000000; stroke-width: 1.0;" x1="16" x2="16" y1="453.875" y2="470.9688"/><line style="stroke: #000000; stroke-width: 1.0;" x1="174" x2="174" y1="453.875" y2="470.9688"/><line style="stroke: #000000; stroke-width: 1.0;" x1="296" x2="296" y1="453.875" y2="470.9688"/><line style="stroke: #000000; stroke-width: 1.0;" x1="382" x2="382" y1="453.875" y2="470.9688"/><line style="stroke: #000000; stroke-width: 1.0;" x1="429" x2="429" y1="453.875" y2="470.9688"/><line style="stroke: #000000; stroke-width: 1.0;" x1="491" x2="491" y1="453.875" y2="470.9688"/><line style="stroke: #000000; stroke-width: 1.0;" x1="566" x2="566" y1="453.875" y2="470.9688"/><line style="stroke: #000000; stroke-width: 1.0;" x1="641" x2="641" y1="453.875" y2="470.9688"/><line style="stroke: #000000; stroke-width: 1.0;" x1="687" x2="687" y1="453.875" y2="470.9688"/><line style="stroke: #000000; stroke-width: 1.0;" x1="699" x2="699" y1="453.875" y2="470.9688"/><line style="stroke: #000000; stroke-width: 1.0;" x1="7" x2="7" y1="436.7813" y2="453.875"/><line style="stroke: #000000; stroke-width: 1.0;" x1="16" x2="16" y1="436.7813" y2="453.875"/><line style="stroke: #000000; stroke-width: 1.0;" x1="174" x2="174" y1="436.7813" y2="453.875"/><line style="stroke: #000000; stroke-width: 1.0;" x1="296" x2="296" y1="436.7813" y2="453.875"/><line style="stroke: #000000; stroke-width: 1.0;" x1="382" x2="382" y1="436.7813" y2="453.875"/><line style="stroke: #000000; stroke-width: 1.0;" x1="429" x2="429" y1="436.7813" y2="453.875"/><line style="stroke: #000000; stroke-width: 1.0;" x1="491" x2="491" y1="436.7813" y2="453.875"/><line style="stroke: #000000; stroke-width: 1.0;" x1="566" x2="566" y1="436.7813" y2="453.875"/><line style="stroke: #000000; stroke-width: 1.0;" x1="641" x2="641" y1="436.7813" y2="453.875"/><line style="stroke: #000000; stroke-width: 1.0;" x1="687" x2="687" y1="436.7813" y2="453.875"/><line style="stroke: #000000; stroke-width: 1.0;" x1="699" x2="699" y1="436.7813" y2="453.875"/><line style="stroke: #000000; stroke-width: 1.0;" x1="6" x2="700" y1="118.4688" y2="118.4688"/><line style="stroke: #000000; stroke-width: 1.0;" x1="700" x2="759" y1="118.4688" y2="118.4688"/><line style="stroke: #000000; stroke-width: 1.0;" x1="6" x2="700" y1="489.0625" y2="489.0625"/><line style="stroke: #000000; stroke-width: 1.0;" x1="700" x2="759" y1="489.0625" y2="489.0625"/><line style="stroke: #000000; stroke-width: 1.0;" x1="6" x2="6" y1="118.4688" y2="144.5625"/><line style="stroke: #000000; stroke-width: 1.0;" x1="759" x2="759" y1="152.5625" y2="171.6563"/><line style="stroke: #000000; stroke-width: 1.0;" x1="759" x2="759" y1="144.5625" y2="152.5625"/><line style="stroke: #000000; stroke-width: 1.0;" x1="759" x2="759" y1="118.4688" y2="144.5625"/><line style="stroke: #000000; stroke-width: 1.0;" x1="6" x2="6" y1="418.6875" y2="489.0625"/><line style="stroke: #000000; stroke-width: 1.0;" x1="6" x2="6" y1="171.6563" y2="418.6875"/><line style="stroke: #000000; stroke-width: 1.0;" x1="6" x2="6" y1="152.5625" y2="171.6563"/><line style="stroke: #000000; stroke-width: 1.0;" x1="759" x2="759" y1="418.6875" y2="489.0625"/><line style="stroke: #000000; stroke-width: 1.0;" x1="6" x2="6" y1="144.5625" y2="152.5625"/><line style="stroke: #000000; stroke-width: 1.0;" x1="759" x2="759" y1="171.6563" y2="418.6875"/><line style="stroke: #AAAAAA; stroke-width: 1.0;" x1="6" x2="760" y1="511.6563" y2="511.6563"/><line style="stroke: #AAAAAA; stroke-width: 1.0;" x1="761" x2="772" y1="511.6563" y2="511.6563"/><rect fill="#EEEEEE" height="19.0938" rx="5" ry="5" style="stroke: #000000; stroke-width: 2.5;" width="260" x="10.5" y="520.6563"/><text fill="#000000" font-family="sans-serif" font-size="12" lengthAdjust="spacingAndGlyphs" textLength="170" x="55.5" y="535.1133">Fermer et retour à l'observation</text><rect fill="#EEEEEE" height="19.0938" rx="5" ry="5" style="stroke: #000000; stroke-width: 2.5;" width="124" x="277.5" y="520.6563"/><text fill="#000000" font-family="sans-serif" font-size="12" lengthAdjust="spacingAndGlyphs" textLength="77" x="301" y="535.1133">Saisir la vente</text><line style="stroke: #AAAAAA; stroke-width: 1.0;" x1="6" x2="760" y1="548.75" y2="548.75"/><line style="stroke: #AAAAAA; stroke-width: 1.0;" x1="6" x2="760" y1="550.75" y2="550.75"/><line style="stroke: #AAAAAA; stroke-width: 1.0;" x1="761" x2="772" y1="548.75" y2="548.75"/><line style="stroke: #AAAAAA; stroke-width: 1.0;" x1="761" x2="772" y1="550.75" y2="550.75"/><text fill="#000000" font-family="sans-serif" font-size="12" font-weight="bold" lengthAdjust="spacingAndGlyphs" textLength="226" x="7" y="584.8008">Saisie des capture débarquée par effort</text><rect fill="#EEEEEE" height="19.0938" rx="5" ry="5" style="stroke: #000000; stroke-width: 2.5;" width="52" x="526.5" y="574.8438"/><text fill="#000000" font-family="sans-serif" font-size="12" lengthAdjust="spacingAndGlyphs" textLength="40" x="532.5" y="589.3008">Fermer</text><line style="stroke: #AAAAAA; stroke-width: 1.0; stroke-dasharray: 1.0,2.0;" x1="7" x2="523" y1="601.9375" y2="601.9375"/><text fill="#000000" font-family="sans-serif" font-size="12" lengthAdjust="spacingAndGlyphs" textLength="100" x="28" y="619.8945">Saisie par espèce</text><ellipse cx="15" cy="614.9844" fill="none" rx="5" ry="5" style="stroke: #000000; stroke-width: 1.5;"/><text fill="#000000" font-family="sans-serif" font-size="12" font-weight="bold" lengthAdjust="spacingAndGlyphs" textLength="99" x="150" y="619.8945">Saisie par paquet</text><ellipse cx="137" cy="614.9844" fill="none" rx="5" ry="5" style="stroke: #000000; stroke-width: 1.5;"/><ellipse cx="137" cy="614.9844" fill="#000000" rx="2" ry="2" style="stroke: #000000; stroke-width: 1.5;"/><text fill="#000000" font-family="sans-serif" font-size="12" font-weight="bold" lengthAdjust="spacingAndGlyphs" textLength="90" x="11" y="638.9883">Lot de paquets :</text><line style="stroke: #AAAAAA; stroke-width: 1.0; stroke-dasharray: 1.0,2.0;" x1="8" x2="125" y1="647.125" y2="647.125"/><text fill="#000000" font-family="sans-serif" font-size="12" lengthAdjust="spacingAndGlyphs" textLength="116" x="8" y="681.1758">Nombre de paquets :</text><text fill="#000000" font-family="sans-serif" font-size="12" lengthAdjust="spacingAndGlyphs" textLength="14" x="130" y="682.1758">55</text><line style="stroke: #000000; stroke-width: 1.0;" x1="128" x2="203" y1="684.8125" y2="684.8125"/><line style="stroke: #000000; stroke-width: 1.0;" x1="128" x2="128" y1="681.8125" y2="683.8125"/><line style="stroke: #000000; stroke-width: 1.0;" x1="203" x2="203" y1="681.8125" y2="683.8125"/><rect fill="#EEEEEE" height="19.0938" rx="5" ry="5" style="stroke: #000000; stroke-width: 2.5;" width="308" x="209.5" y="672.2188"/><text fill="#000000" font-family="sans-serif" font-size="12" lengthAdjust="spacingAndGlyphs" textLength="227" x="250" y="686.6758">Composition des paquets échantillonnés</text><line style="stroke: #AAAAAA; stroke-width: 1.0; stroke-dasharray: 1.0,2.0;" x1="8" x2="125" y1="700.3125" y2="700.3125"/><line style="stroke: #AAAAAA; stroke-width: 1.0; stroke-dasharray: 1.0,2.0;" x1="126" x2="522" y1="700.3125" y2="700.3125"/><rect fill="#EEEEEE" height="19.0938" rx="5" ry="5" style="stroke: #000000; stroke-width: 2.5;" width="60" x="129.5" y="708.3125"/><text fill="#000000" font-family="sans-serif" font-size="12" lengthAdjust="spacingAndGlyphs" textLength="38" x="140.5" y="722.7695">Ajouter</text><rect fill="#EEEEEE" height="19.0938" rx="5" ry="5" style="stroke: #000000; stroke-width: 2.5;" width="156" x="196.5" y="708.3125"/><text fill="#000000" font-family="sans-serif" font-size="12" lengthAdjust="spacingAndGlyphs" textLength="104" x="222.5" y="722.7695">Annuler la dernière</text><line style="stroke: #000000; stroke-width: 1.0;" x1="6" x2="523" y1="571.3438" y2="571.3438"/><line style="stroke: #000000; stroke-width: 1.0;" x1="523" x2="582" y1="571.3438" y2="571.3438"/><line style="stroke: #000000; stroke-width: 1.0;" x1="6" x2="523" y1="732.9063" y2="732.9063"/><line style="stroke: #000000; stroke-width: 1.0;" x1="523" x2="582" y1="732.9063" y2="732.9063"/><line style="stroke: #000000; stroke-width: 1.0;" x1="6" x2="6" y1="571.3438" y2="597.4375"/><line style="stroke: #000000; stroke-width: 1.0;" x1="582" x2="582" y1="605.4375" y2="624.5313"/><line style="stroke: #000000; stroke-width: 1.0;" x1="582" x2="582" y1="597.4375" y2="605.4375"/><line style="stroke: #000000; stroke-width: 1.0;" x1="582" x2="582" y1="571.3438" y2="597.4375"/><line style="stroke: #000000; stroke-width: 1.0;" x1="6" x2="6" y1="624.5313" y2="732.9063"/><line style="stroke: #000000; stroke-width: 1.0;" x1="6" x2="6" y1="605.4375" y2="624.5313"/><line style="stroke: #000000; stroke-width: 1.0;" x1="6" x2="6" y1="597.4375" y2="605.4375"/><line style="stroke: #000000; stroke-width: 1.0;" x1="582" x2="582" y1="624.5313" y2="732.9063"/><text fill="#000000" font-family="sans-serif" font-size="12" lengthAdjust="spacingAndGlyphs" textLength="7" x="8" y="766.457">#</text><text fill="#000000" font-family="sans-serif" font-size="12" lengthAdjust="spacingAndGlyphs" textLength="33" x="17" y="766.457">Metier</text><text fill="#000000" font-family="sans-serif" font-size="12" font-weight="bold" lengthAdjust="spacingAndGlyphs" textLength="37" x="175" y="766.457">ID Lot*</text><text fill="#000000" font-family="sans-serif" font-size="12" font-weight="bold" lengthAdjust="spacingAndGlyphs" textLength="116" x="214" y="766.457">Nombre de paquets*</text><text fill="#000000" font-family="sans-serif" font-size="12" font-weight="bold" lengthAdjust="spacingAndGlyphs" textLength="62" x="335" y="766.457">Poids (kg)*</text><text fill="#000000" font-family="sans-serif" font-size="12" font-weight="bold" lengthAdjust="spacingAndGlyphs" textLength="144" x="399" y="766.457">Composition des paquets</text><text fill="#000000" font-family="sans-serif" font-size="12" lengthAdjust="spacingAndGlyphs" textLength="7" x="8" y="783.5508">2</text><text fill="#000000" font-family="sans-serif" font-size="12" lengthAdjust="spacingAndGlyphs" textLength="156" x="17" y="783.5508">FIXABSX - Active trap for Vyey</text><text fill="#000000" font-family="sans-serif" font-size="12" lengthAdjust="spacingAndGlyphs" textLength="27" x="175" y="783.5508">Lot 2</text><text fill="#000000" font-family="sans-serif" font-size="12" lengthAdjust="spacingAndGlyphs" textLength="14" x="214" y="783.5508">55</text><text fill="#0000FF" font-family="sans-serif" font-size="12" font-style="italic" lengthAdjust="spacingAndGlyphs" textLength="38" x="332" y="783.5508">527.10</text><path d="M400,771.0938 L400,775.0938 L404,775.0938 L404,771.0938 L400,771.0938 M405,773.0938 L405,776.0938 L402,776.0938 L402,777.0938 L406,777.0938 L406,773.0938 L405,773.0938 M407,775.0938 L407,778.0938 L404,778.0938 L404,779.0938 L408,779.0938 L408,775.0938 L407,775.0938 " fill="#000000" style="stroke: ; stroke-width: 0.0; stroke-dasharray: ;"/><path d="M549,771.0938 C548.45,771.0938 548,771.5438 548,772.0938 L547,772.0938 C546.45,772.0938 546,772.5438 546,773.0938 L553,773.0938 C553,772.5438 552.55,772.0938 552,772.0938 L551,772.0938 C551,771.5438 550.55,771.0938 550,771.0938 L549,771.0938 M547,774.0938 L547,778.9068 C547,779.0168 547.077,779.0948 547.188,779.0948 L551.813,779.0948 C551.923,779.0948 552.001,779.0178 552.001,778.9068 L552.001,774.0938 L551.001,774.0938 L551.001,777.5938 C551.001,777.8738 550.781,778.0938 550.501,778.0938 C550.221,778.0938 550.001,777.8738 550.001,777.5938 L550.001,774.0938 L549.001,774.0938 L549.001,777.5938 C549.001,777.8738 548.781,778.0938 548.501,778.0938 C548.221,778.0938 548.001,777.8738 548.001,777.5938 L548.001,774.0938 L547.001,774.0938 " fill="#000000" style="stroke: ; stroke-width: 0.0; stroke-dasharray: ;"/><text fill="#000000" font-family="sans-serif" font-size="12" lengthAdjust="spacingAndGlyphs" textLength="7" x="8" y="800.6445">1</text><text fill="#000000" font-family="sans-serif" font-size="12" lengthAdjust="spacingAndGlyphs" textLength="156" x="17" y="800.6445">FIXABSX - Active trap for Vyey</text><text fill="#000000" font-family="sans-serif" font-size="12" lengthAdjust="spacingAndGlyphs" textLength="27" x="175" y="800.6445">Lot 1</text><text fill="#000000" font-family="sans-serif" font-size="12" lengthAdjust="spacingAndGlyphs" textLength="14" x="214" y="800.6445">20</text><text fill="#0000FF" font-family="sans-serif" font-size="12" font-style="italic" lengthAdjust="spacingAndGlyphs" textLength="38" x="332" y="800.6445">256.30</text><path d="M400,788.1875 L400,792.1875 L404,792.1875 L404,788.1875 L400,788.1875 M405,790.1875 L405,793.1875 L402,793.1875 L402,794.1875 L406,794.1875 L406,790.1875 L405,790.1875 M407,792.1875 L407,795.1875 L404,795.1875 L404,796.1875 L408,796.1875 L408,792.1875 L407,792.1875 " fill="#000000" style="stroke: ; stroke-width: 0.0; stroke-dasharray: ;"/><path d="M549,788.1875 C548.45,788.1875 548,788.6375 548,789.1875 L547,789.1875 C546.45,789.1875 546,789.6375 546,790.1875 L553,790.1875 C553,789.6375 552.55,789.1875 552,789.1875 L551,789.1875 C551,788.6375 550.55,788.1875 550,788.1875 L549,788.1875 M547,791.1875 L547,796.0005 C547,796.1105 547.077,796.1885 547.188,796.1885 L551.813,796.1885 C551.923,796.1885 552.001,796.1115 552.001,796.0005 L552.001,791.1875 L551.001,791.1875 L551.001,794.6875 C551.001,794.9675 550.781,795.1875 550.501,795.1875 C550.221,795.1875 550.001,794.9675 550.001,794.6875 L550.001,791.1875 L549.001,791.1875 L549.001,794.6875 C549.001,794.9675 548.781,795.1875 548.501,795.1875 C548.221,795.1875 548.001,794.9675 548.001,794.6875 L548.001,791.1875 L547.001,791.1875 " fill="#000000" style="stroke: ; stroke-width: 0.0; stroke-dasharray: ;"/><line style="stroke: #000000; stroke-width: 1.0;" x1="7" x2="16" y1="753" y2="753"/><line style="stroke: #000000; stroke-width: 1.0;" x1="16" x2="174" y1="753" y2="753"/><line style="stroke: #000000; stroke-width: 1.0;" x1="174" x2="213" y1="753" y2="753"/><line style="stroke: #000000; stroke-width: 1.0;" x1="213" x2="331" y1="753" y2="753"/><line style="stroke: #000000; stroke-width: 1.0;" x1="331" x2="398" y1="753" y2="753"/><line style="stroke: #000000; stroke-width: 1.0;" x1="398" x2="544" y1="753" y2="753"/><line style="stroke: #000000; stroke-width: 1.0;" x1="544" x2="556" y1="753" y2="753"/><line style="stroke: #000000; stroke-width: 1.0;" x1="7" x2="16" y1="804.2813" y2="804.2813"/><line style="stroke: #000000; stroke-width: 1.0;" x1="16" x2="174" y1="804.2813" y2="804.2813"/><line style="stroke: #000000; stroke-width: 1.0;" x1="174" x2="213" y1="804.2813" y2="804.2813"/><line style="stroke: #000000; stroke-width: 1.0;" x1="213" x2="331" y1="804.2813" y2="804.2813"/><line style="stroke: #000000; stroke-width: 1.0;" x1="331" x2="398" y1="804.2813" y2="804.2813"/><line style="stroke: #000000; stroke-width: 1.0;" x1="398" x2="544" y1="804.2813" y2="804.2813"/><line style="stroke: #000000; stroke-width: 1.0;" x1="544" x2="556" y1="804.2813" y2="804.2813"/><line style="stroke: #000000; stroke-width: 1.0;" x1="7" x2="16" y1="787.1875" y2="787.1875"/><line style="stroke: #000000; stroke-width: 1.0;" x1="16" x2="174" y1="787.1875" y2="787.1875"/><line style="stroke: #000000; stroke-width: 1.0;" x1="174" x2="213" y1="787.1875" y2="787.1875"/><line style="stroke: #000000; stroke-width: 1.0;" x1="213" x2="331" y1="787.1875" y2="787.1875"/><line style="stroke: #000000; stroke-width: 1.0;" x1="331" x2="398" y1="787.1875" y2="787.1875"/><line style="stroke: #000000; stroke-width: 1.0;" x1="398" x2="544" y1="787.1875" y2="787.1875"/><line style="stroke: #000000; stroke-width: 1.0;" x1="544" x2="556" y1="787.1875" y2="787.1875"/><line style="stroke: #000000; stroke-width: 1.0;" x1="7" x2="16" y1="770.0938" y2="770.0938"/><line style="stroke: #000000; stroke-width: 1.0;" x1="16" x2="174" y1="770.0938" y2="770.0938"/><line style="stroke: #000000; stroke-width: 1.0;" x1="174" x2="213" y1="770.0938" y2="770.0938"/><line style="stroke: #000000; stroke-width: 1.0;" x1="213" x2="331" y1="770.0938" y2="770.0938"/><line style="stroke: #000000; stroke-width: 1.0;" x1="331" x2="398" y1="770.0938" y2="770.0938"/><line style="stroke: #000000; stroke-width: 1.0;" x1="398" x2="544" y1="770.0938" y2="770.0938"/><line style="stroke: #000000; stroke-width: 1.0;" x1="544" x2="556" y1="770.0938" y2="770.0938"/><line style="stroke: #000000; stroke-width: 1.0;" x1="7" x2="7" y1="753" y2="770.0938"/><line style="stroke: #000000; stroke-width: 1.0;" x1="174" x2="174" y1="787.1875" y2="804.2813"/><line style="stroke: #000000; stroke-width: 1.0;" x1="16" x2="16" y1="753" y2="770.0938"/><line style="stroke: #000000; stroke-width: 1.0;" x1="213" x2="213" y1="787.1875" y2="804.2813"/><line style="stroke: #000000; stroke-width: 1.0;" x1="174" x2="174" y1="753" y2="770.0938"/><line style="stroke: #000000; stroke-width: 1.0;" x1="331" x2="331" y1="787.1875" y2="804.2813"/><line style="stroke: #000000; stroke-width: 1.0;" x1="213" x2="213" y1="753" y2="770.0938"/><line style="stroke: #000000; stroke-width: 1.0;" x1="398" x2="398" y1="787.1875" y2="804.2813"/><line style="stroke: #000000; stroke-width: 1.0;" x1="331" x2="331" y1="753" y2="770.0938"/><line style="stroke: #000000; stroke-width: 1.0;" x1="544" x2="544" y1="787.1875" y2="804.2813"/><line style="stroke: #000000; stroke-width: 1.0;" x1="556" x2="556" y1="787.1875" y2="804.2813"/><line style="stroke: #000000; stroke-width: 1.0;" x1="398" x2="398" y1="753" y2="770.0938"/><line style="stroke: #000000; stroke-width: 1.0;" x1="544" x2="544" y1="753" y2="770.0938"/><line style="stroke: #000000; stroke-width: 1.0;" x1="556" x2="556" y1="753" y2="770.0938"/><line style="stroke: #000000; stroke-width: 1.0;" x1="7" x2="7" y1="770.0938" y2="787.1875"/><line style="stroke: #000000; stroke-width: 1.0;" x1="16" x2="16" y1="770.0938" y2="787.1875"/><line style="stroke: #000000; stroke-width: 1.0;" x1="174" x2="174" y1="770.0938" y2="787.1875"/><line style="stroke: #000000; stroke-width: 1.0;" x1="213" x2="213" y1="770.0938" y2="787.1875"/><line style="stroke: #000000; stroke-width: 1.0;" x1="331" x2="331" y1="770.0938" y2="787.1875"/><line style="stroke: #000000; stroke-width: 1.0;" x1="398" x2="398" y1="770.0938" y2="787.1875"/><line style="stroke: #000000; stroke-width: 1.0;" x1="544" x2="544" y1="770.0938" y2="787.1875"/><line style="stroke: #000000; stroke-width: 1.0;" x1="556" x2="556" y1="770.0938" y2="787.1875"/><line style="stroke: #000000; stroke-width: 1.0;" x1="7" x2="7" y1="787.1875" y2="804.2813"/><line style="stroke: #000000; stroke-width: 1.0;" x1="16" x2="16" y1="787.1875" y2="804.2813"/><line style="stroke: #AAAAAA; stroke-width: 1.0;" x1="6" x2="760" y1="827.875" y2="827.875"/><line style="stroke: #AAAAAA; stroke-width: 1.0;" x1="761" x2="772" y1="827.875" y2="827.875"/><rect fill="#EEEEEE" height="19.0938" rx="5" ry="5" style="stroke: #000000; stroke-width: 2.5;" width="260" x="10.5" y="836.875"/><text fill="#000000" font-family="sans-serif" font-size="12" lengthAdjust="spacingAndGlyphs" textLength="170" x="55.5" y="851.332">Fermer et retour à l'observation</text><rect fill="#EEEEEE" height="19.0938" rx="5" ry="5" style="stroke: #000000; stroke-width: 2.5;" width="124" x="277.5" y="836.875"/><text fill="#000000" font-family="sans-serif" font-size="12" lengthAdjust="spacingAndGlyphs" textLength="77" x="301" y="851.332">Saisir la vente</text></g></svg>