<?xml version="1.0" encoding="UTF-8" standalone="no"?><svg xmlns="http://www.w3.org/2000/svg" xmlns:xlink="http://www.w3.org/1999/xlink" contentScriptType="application/ecmascript" contentStyleType="text/css" height="244px" preserveAspectRatio="none" style="width:909px;height:244px;" version="1.1" viewBox="0 0 909 244" width="909px" zoomAndPan="magnify"><defs/><g><text fill="#000000" font-family="sans-serif" font-size="12" font-weight="bold" lengthAdjust="spacingAndGlyphs" textLength="248" x="9" y="18.457">Immat Navire - Lieu - Date fin marée - Métier</text><line style="stroke: #AAAAAA; stroke-width: 1.0; stroke-dasharray: 1.0,2.0;" x1="6" x2="890" y1="26.5938" y2="26.5938"/><text fill="#000000" font-family="sans-serif" font-size="12" lengthAdjust="spacingAndGlyphs" textLength="64" x="8" y="43.5508">General trip</text><line style="stroke: #000000; stroke-width: 1.0;" x1="6" x2="6" y1="31.0938" y2="46.1875"/><line style="stroke: #000000; stroke-width: 1.0;" x1="6" x2="75" y1="31.0938" y2="31.0938"/><line style="stroke: #000000; stroke-width: 1.0;" x1="75" x2="75" y1="31.0938" y2="46.1875"/><line style="stroke: #000000; stroke-width: 1.0;" x1="75" x2="85" y1="46.1875" y2="46.1875"/><text fill="#000000" font-family="sans-serif" font-size="12" font-weight="bold" lengthAdjust="spacingAndGlyphs" textLength="31" x="87" y="43.5508">Effort</text><line style="stroke: #000000; stroke-width: 1.0;" x1="85" x2="85" y1="31.0938" y2="46.1875"/><line style="stroke: #000000; stroke-width: 1.0;" x1="85" x2="121" y1="31.0938" y2="31.0938"/><line style="stroke: #000000; stroke-width: 1.0;" x1="121" x2="121" y1="31.0938" y2="46.1875"/><line style="stroke: #000000; stroke-width: 1.0;" x1="121" x2="131" y1="46.1875" y2="46.1875"/><text fill="#000000" font-family="sans-serif" font-size="12" lengthAdjust="spacingAndGlyphs" textLength="107" x="133" y="43.5508">Capture débarquée</text><line style="stroke: #000000; stroke-width: 1.0;" x1="131" x2="131" y1="31.0938" y2="46.1875"/><line style="stroke: #000000; stroke-width: 1.0;" x1="131" x2="243" y1="31.0938" y2="31.0938"/><line style="stroke: #000000; stroke-width: 1.0;" x1="243" x2="243" y1="31.0938" y2="46.1875"/><line style="stroke: #000000; stroke-width: 1.0;" x1="243" x2="253" y1="46.1875" y2="46.1875"/><text fill="#000000" font-family="sans-serif" font-size="12" lengthAdjust="spacingAndGlyphs" textLength="31" x="255" y="43.5508">Vente</text><line style="stroke: #000000; stroke-width: 1.0;" x1="253" x2="253" y1="31.0938" y2="46.1875"/><line style="stroke: #000000; stroke-width: 1.0;" x1="253" x2="289" y1="31.0938" y2="31.0938"/><line style="stroke: #000000; stroke-width: 1.0;" x1="289" x2="289" y1="31.0938" y2="46.1875"/><line style="stroke: #000000; stroke-width: 1.0;" x1="289" x2="299" y1="46.1875" y2="46.1875"/><text fill="#000000" font-family="sans-serif" font-size="12" lengthAdjust="spacingAndGlyphs" textLength="58" x="301" y="43.5508">Dépenses</text><line style="stroke: #000000; stroke-width: 1.0;" x1="299" x2="299" y1="31.0938" y2="46.1875"/><line style="stroke: #000000; stroke-width: 1.0;" x1="299" x2="362" y1="31.0938" y2="31.0938"/><line style="stroke: #000000; stroke-width: 1.0;" x1="362" x2="362" y1="31.0938" y2="46.1875"/><line style="stroke: #000000; stroke-width: 1.0;" x1="362" x2="372" y1="46.1875" y2="46.1875"/><text fill="#000000" font-family="sans-serif" font-size="12" lengthAdjust="spacingAndGlyphs" textLength="211" x="26" y="77.7383">Filter on metiers used the last 12 mois</text><rect fill="none" height="10" style="stroke: #000000; stroke-width: 1.5;" width="10" x="8" y="67.8281"/><rect fill="#EEEEEE" height="12" rx="5" ry="5" style="stroke: #000000; stroke-width: 2.5;" width="20" x="9.5" y="102.9688"/><path d="M18.5,104.9688 L18.5,107.9688 L15.5,107.9688 L15.5,109.9688 L18.5,109.9688 L18.5,112.9688 L20.5,112.9688 L20.5,109.9688 L23.5,109.9688 L23.5,107.9688 L20.5,107.9688 L20.5,104.9688 L18.5,104.9688 " fill="#000000" style="stroke: ; stroke-width: 0.0; stroke-dasharray: ;"/><rect fill="#EEEEEE" height="12" rx="5" ry="5" style="stroke: #000000; stroke-width: 2.5;" width="20" x="36.5" y="102.9688"/><path d="M45.5,104.9688 C44.95,104.9688 44.5,105.4188 44.5,105.9688 L43.5,105.9688 C42.95,105.9688 42.5,106.4188 42.5,106.9688 L49.5,106.9688 C49.5,106.4188 49.05,105.9688 48.5,105.9688 L47.5,105.9688 C47.5,105.4188 47.05,104.9688 46.5,104.9688 L45.5,104.9688 M43.5,107.9688 L43.5,112.7818 C43.5,112.8918 43.577,112.9698 43.688,112.9698 L48.313,112.9698 C48.423,112.9698 48.501,112.8928 48.501,112.7818 L48.501,107.9688 L47.501,107.9688 L47.501,111.4688 C47.501,111.7488 47.281,111.9688 47.001,111.9688 C46.721,111.9688 46.501,111.7488 46.501,111.4688 L46.501,107.9688 L45.501,107.9688 L45.501,111.4688 C45.501,111.7488 45.281,111.9688 45.001,111.9688 C44.721,111.9688 44.501,111.7488 44.501,111.4688 L44.501,107.9688 L43.501,107.9688 " fill="#000000" style="stroke: ; stroke-width: 0.0; stroke-dasharray: ;"/><text fill="#000000" font-family="sans-serif" font-size="12" lengthAdjust="spacingAndGlyphs" textLength="7" x="7" y="133.9258">#</text><text fill="#000000" font-family="sans-serif" font-size="12" font-weight="bold" lengthAdjust="spacingAndGlyphs" textLength="36" x="16" y="133.9258">Metier</text><text fill="#000000" font-family="sans-serif" font-size="12" font-weight="bold" lengthAdjust="spacingAndGlyphs" textLength="31" x="139" y="133.9258">Engin</text><text fill="#000000" font-family="sans-serif" font-size="12" font-weight="bold" lengthAdjust="spacingAndGlyphs" textLength="49" x="230" y="133.9258">Nb engin</text><text fill="#000000" font-family="sans-serif" font-size="12" font-weight="bold" lengthAdjust="spacingAndGlyphs" textLength="81" x="281" y="133.9258">Nb hameçons/</text><text fill="#000000" font-family="sans-serif" font-size="12" font-weight="bold" lengthAdjust="spacingAndGlyphs" textLength="112" x="402" y="133.9258">Tps passé à pêcher</text><text fill="#000000" font-family="sans-serif" font-size="12" font-weight="bold" lengthAdjust="spacingAndGlyphs" textLength="88" x="516" y="133.9258">Profondeur min</text><text fill="#000000" font-family="sans-serif" font-size="12" font-weight="bold" lengthAdjust="spacingAndGlyphs" textLength="92" x="606" y="133.9258">Profondeur max</text><text fill="#000000" font-family="sans-serif" font-size="12" font-weight="bold" lengthAdjust="spacingAndGlyphs" textLength="77" x="700" y="133.9258">Commentaire</text><text fill="#000000" font-family="sans-serif" font-size="12" font-weight="bold" lengthAdjust="spacingAndGlyphs" textLength="109" x="779" y="133.9258">Capture débarquée</text><text fill="#000000" font-family="sans-serif" font-size="12" font-weight="bold" lengthAdjust="spacingAndGlyphs" textLength="119" x="281" y="151.0195">casiers/long. filet (m)</text><text fill="#000000" font-family="sans-serif" font-size="12" lengthAdjust="spacingAndGlyphs" textLength="80" x="402" y="151.0195">en jour de mer</text><text fill="#000000" font-family="sans-serif" font-size="12" font-weight="bold" lengthAdjust="spacingAndGlyphs" textLength="53" x="516" y="151.0195">engin (m)</text><text fill="#000000" font-family="sans-serif" font-size="12" font-weight="bold" lengthAdjust="spacingAndGlyphs" textLength="53" x="606" y="151.0195">engin (m)</text><text fill="#000000" font-family="sans-serif" font-size="12" font-weight="bold" lengthAdjust="spacingAndGlyphs" textLength="60" x="700" y="151.0195">(optionnel)</text><text fill="#000000" font-family="sans-serif" font-size="12" font-weight="bold" lengthAdjust="spacingAndGlyphs" textLength="59" x="779" y="151.0195">par métier</text><text fill="#000000" font-family="sans-serif" font-size="12" lengthAdjust="spacingAndGlyphs" textLength="7" x="7" y="168.1133">1</text><text fill="#000000" font-family="sans-serif" font-size="12" lengthAdjust="spacingAndGlyphs" textLength="121" x="16" y="168.1133">FIXABSX - Active trap...</text><text fill="#000000" font-family="sans-serif" font-size="12" lengthAdjust="spacingAndGlyphs" textLength="89" x="139" y="168.1133">FIXA - Active trap</text><text fill="#000000" font-family="sans-serif" font-size="12" lengthAdjust="spacingAndGlyphs" textLength="14" x="230" y="168.1133">10</text><text fill="#000000" font-family="sans-serif" font-size="12" lengthAdjust="spacingAndGlyphs" textLength="37" x="402" y="168.1133">1 j 0 m</text><text fill="#000000" font-family="sans-serif" font-size="12" lengthAdjust="spacingAndGlyphs" textLength="14" x="516" y="168.1133">25</text><text fill="#000000" font-family="sans-serif" font-size="12" lengthAdjust="spacingAndGlyphs" textLength="14" x="606" y="168.1133">30</text><path d="M701.094,155.6563 C701.034,155.6563 701,155.6903 701,155.7503 L701,161.5633 C701,161.6233 701.034,161.6573 701.094,161.6573 L707,161.6573 L709,163.6573 L709,155.7513 C709,155.6913 708.966,155.6573 708.906,155.6573 L701.093,155.6573 " fill="#000000" style="stroke: ; stroke-width: 0.0; stroke-dasharray: ;"/><path d="M780,155.6563 L780,159.6563 L784,159.6563 L784,155.6563 L780,155.6563 M785,157.6563 L785,160.6563 L782,160.6563 L782,161.6563 L786,161.6563 L786,157.6563 L785,157.6563 M787,159.6563 L787,162.6563 L784,162.6563 L784,163.6563 L788,163.6563 L788,159.6563 L787,159.6563 " fill="#000000" style="stroke: ; stroke-width: 0.0; stroke-dasharray: ;"/><text fill="#000000" font-family="sans-serif" font-size="12" lengthAdjust="spacingAndGlyphs" textLength="7" x="7" y="185.207">2</text><text fill="#000000" font-family="sans-serif" font-size="12" lengthAdjust="spacingAndGlyphs" textLength="111" x="16" y="185.207">GENLOS - Gillnets...</text><text fill="#000000" font-family="sans-serif" font-size="12" lengthAdjust="spacingAndGlyphs" textLength="87" x="139" y="185.207">GEN - Gillnets...</text><text fill="#000000" font-family="sans-serif" font-size="12" lengthAdjust="spacingAndGlyphs" textLength="7" x="230" y="185.207">1</text><text fill="#000000" font-family="sans-serif" font-size="12" lengthAdjust="spacingAndGlyphs" textLength="14" x="281" y="185.207">20</text><text fill="#000000" font-family="sans-serif" font-size="12" lengthAdjust="spacingAndGlyphs" textLength="37" x="402" y="185.207">1 j 0 m</text><text fill="#000000" font-family="sans-serif" font-size="12" lengthAdjust="spacingAndGlyphs" textLength="14" x="516" y="185.207">10</text><text fill="#000000" font-family="sans-serif" font-size="12" lengthAdjust="spacingAndGlyphs" textLength="14" x="606" y="185.207">20</text><path d="M701.094,172.75 C701.034,172.75 701,172.784 701,172.844 L701,178.657 C701,178.717 701.034,178.751 701.094,178.751 L707,178.751 L709,180.751 L709,172.845 C709,172.785 708.966,172.751 708.906,172.751 L701.093,172.751 " fill="#000000" style="stroke: ; stroke-width: 0.0; stroke-dasharray: ;"/><path d="M780,172.75 L780,176.75 L784,176.75 L784,172.75 L780,172.75 M785,174.75 L785,177.75 L782,177.75 L782,178.75 L786,178.75 L786,174.75 L785,174.75 M787,176.75 L787,179.75 L784,179.75 L784,180.75 L788,180.75 L788,176.75 L787,176.75 " fill="#000000" style="stroke: ; stroke-width: 0.0; stroke-dasharray: ;"/><text fill="#000000" font-family="sans-serif" font-size="12" lengthAdjust="spacingAndGlyphs" textLength="7" x="7" y="202.3008">3</text><text fill="#000000" font-family="sans-serif" font-size="12" lengthAdjust="spacingAndGlyphs" textLength="113" x="16" y="202.3008">LLSKH - Longlines...</text><text fill="#000000" font-family="sans-serif" font-size="12" lengthAdjust="spacingAndGlyphs" textLength="88" x="139" y="202.3008">LL - Longlines...</text><text fill="#000000" font-family="sans-serif" font-size="12" lengthAdjust="spacingAndGlyphs" textLength="7" x="230" y="202.3008">5</text><text fill="#000000" font-family="sans-serif" font-size="12" lengthAdjust="spacingAndGlyphs" textLength="14" x="281" y="202.3008">30</text><text fill="#000000" font-family="sans-serif" font-size="12" lengthAdjust="spacingAndGlyphs" textLength="37" x="402" y="202.3008">1 j 0 m</text><text fill="#000000" font-family="sans-serif" font-size="12" lengthAdjust="spacingAndGlyphs" textLength="14" x="516" y="202.3008">25</text><text fill="#000000" font-family="sans-serif" font-size="12" lengthAdjust="spacingAndGlyphs" textLength="14" x="606" y="202.3008">40</text><path d="M701.094,189.8438 C701.034,189.8438 701,189.8778 701,189.9378 L701,195.7508 C701,195.8108 701.034,195.8448 701.094,195.8448 L707,195.8448 L709,197.8448 L709,189.9388 C709,189.8788 708.966,189.8448 708.906,189.8448 L701.093,189.8448 " fill="#000000" style="stroke: ; stroke-width: 0.0; stroke-dasharray: ;"/><path d="M780,189.8438 L780,193.8438 L784,193.8438 L784,189.8438 L780,189.8438 M785,191.8438 L785,194.8438 L782,194.8438 L782,195.8438 L786,195.8438 L786,191.8438 L785,191.8438 M787,193.8438 L787,196.8438 L784,196.8438 L784,197.8438 L788,197.8438 L788,193.8438 L787,193.8438 " fill="#000000" style="stroke: ; stroke-width: 0.0; stroke-dasharray: ;"/><line style="stroke: #000000; stroke-width: 1.0;" x1="6" x2="15" y1="120.4688" y2="120.4688"/><line style="stroke: #000000; stroke-width: 1.0;" x1="15" x2="138" y1="120.4688" y2="120.4688"/><line style="stroke: #000000; stroke-width: 1.0;" x1="138" x2="229" y1="120.4688" y2="120.4688"/><line style="stroke: #000000; stroke-width: 1.0;" x1="229" x2="280" y1="120.4688" y2="120.4688"/><line style="stroke: #000000; stroke-width: 1.0;" x1="280" x2="401" y1="120.4688" y2="120.4688"/><line style="stroke: #000000; stroke-width: 1.0;" x1="401" x2="515" y1="120.4688" y2="120.4688"/><line style="stroke: #000000; stroke-width: 1.0;" x1="515" x2="605" y1="120.4688" y2="120.4688"/><line style="stroke: #000000; stroke-width: 1.0;" x1="605" x2="699" y1="120.4688" y2="120.4688"/><line style="stroke: #000000; stroke-width: 1.0;" x1="699" x2="778" y1="120.4688" y2="120.4688"/><line style="stroke: #000000; stroke-width: 1.0;" x1="778" x2="889" y1="120.4688" y2="120.4688"/><line style="stroke: #000000; stroke-width: 1.0;" x1="6" x2="15" y1="171.75" y2="171.75"/><line style="stroke: #000000; stroke-width: 1.0;" x1="15" x2="138" y1="171.75" y2="171.75"/><line style="stroke: #000000; stroke-width: 1.0;" x1="138" x2="229" y1="171.75" y2="171.75"/><line style="stroke: #000000; stroke-width: 1.0;" x1="229" x2="280" y1="171.75" y2="171.75"/><line style="stroke: #000000; stroke-width: 1.0;" x1="280" x2="401" y1="171.75" y2="171.75"/><line style="stroke: #000000; stroke-width: 1.0;" x1="401" x2="515" y1="171.75" y2="171.75"/><line style="stroke: #000000; stroke-width: 1.0;" x1="515" x2="605" y1="171.75" y2="171.75"/><line style="stroke: #000000; stroke-width: 1.0;" x1="605" x2="699" y1="171.75" y2="171.75"/><line style="stroke: #000000; stroke-width: 1.0;" x1="699" x2="778" y1="171.75" y2="171.75"/><line style="stroke: #000000; stroke-width: 1.0;" x1="778" x2="889" y1="171.75" y2="171.75"/><line style="stroke: #000000; stroke-width: 1.0;" x1="6" x2="15" y1="137.5625" y2="137.5625"/><line style="stroke: #000000; stroke-width: 1.0;" x1="15" x2="138" y1="137.5625" y2="137.5625"/><line style="stroke: #000000; stroke-width: 1.0;" x1="138" x2="229" y1="137.5625" y2="137.5625"/><line style="stroke: #000000; stroke-width: 1.0;" x1="229" x2="280" y1="137.5625" y2="137.5625"/><line style="stroke: #000000; stroke-width: 1.0;" x1="280" x2="401" y1="137.5625" y2="137.5625"/><line style="stroke: #000000; stroke-width: 1.0;" x1="401" x2="515" y1="137.5625" y2="137.5625"/><line style="stroke: #000000; stroke-width: 1.0;" x1="515" x2="605" y1="137.5625" y2="137.5625"/><line style="stroke: #000000; stroke-width: 1.0;" x1="605" x2="699" y1="137.5625" y2="137.5625"/><line style="stroke: #000000; stroke-width: 1.0;" x1="699" x2="778" y1="137.5625" y2="137.5625"/><line style="stroke: #000000; stroke-width: 1.0;" x1="778" x2="889" y1="137.5625" y2="137.5625"/><line style="stroke: #000000; stroke-width: 1.0;" x1="6" x2="15" y1="188.8438" y2="188.8438"/><line style="stroke: #000000; stroke-width: 1.0;" x1="15" x2="138" y1="188.8438" y2="188.8438"/><line style="stroke: #000000; stroke-width: 1.0;" x1="138" x2="229" y1="188.8438" y2="188.8438"/><line style="stroke: #000000; stroke-width: 1.0;" x1="229" x2="280" y1="188.8438" y2="188.8438"/><line style="stroke: #000000; stroke-width: 1.0;" x1="280" x2="401" y1="188.8438" y2="188.8438"/><line style="stroke: #000000; stroke-width: 1.0;" x1="401" x2="515" y1="188.8438" y2="188.8438"/><line style="stroke: #000000; stroke-width: 1.0;" x1="515" x2="605" y1="188.8438" y2="188.8438"/><line style="stroke: #000000; stroke-width: 1.0;" x1="605" x2="699" y1="188.8438" y2="188.8438"/><line style="stroke: #000000; stroke-width: 1.0;" x1="699" x2="778" y1="188.8438" y2="188.8438"/><line style="stroke: #000000; stroke-width: 1.0;" x1="778" x2="889" y1="188.8438" y2="188.8438"/><line style="stroke: #000000; stroke-width: 1.0;" x1="6" x2="15" y1="154.6563" y2="154.6563"/><line style="stroke: #000000; stroke-width: 1.0;" x1="15" x2="138" y1="154.6563" y2="154.6563"/><line style="stroke: #000000; stroke-width: 1.0;" x1="138" x2="229" y1="154.6563" y2="154.6563"/><line style="stroke: #000000; stroke-width: 1.0;" x1="229" x2="280" y1="154.6563" y2="154.6563"/><line style="stroke: #000000; stroke-width: 1.0;" x1="280" x2="401" y1="154.6563" y2="154.6563"/><line style="stroke: #000000; stroke-width: 1.0;" x1="401" x2="515" y1="154.6563" y2="154.6563"/><line style="stroke: #000000; stroke-width: 1.0;" x1="515" x2="605" y1="154.6563" y2="154.6563"/><line style="stroke: #000000; stroke-width: 1.0;" x1="605" x2="699" y1="154.6563" y2="154.6563"/><line style="stroke: #000000; stroke-width: 1.0;" x1="699" x2="778" y1="154.6563" y2="154.6563"/><line style="stroke: #000000; stroke-width: 1.0;" x1="778" x2="889" y1="154.6563" y2="154.6563"/><line style="stroke: #000000; stroke-width: 1.0;" x1="6" x2="15" y1="205.9375" y2="205.9375"/><line style="stroke: #000000; stroke-width: 1.0;" x1="15" x2="138" y1="205.9375" y2="205.9375"/><line style="stroke: #000000; stroke-width: 1.0;" x1="138" x2="229" y1="205.9375" y2="205.9375"/><line style="stroke: #000000; stroke-width: 1.0;" x1="229" x2="280" y1="205.9375" y2="205.9375"/><line style="stroke: #000000; stroke-width: 1.0;" x1="280" x2="401" y1="205.9375" y2="205.9375"/><line style="stroke: #000000; stroke-width: 1.0;" x1="401" x2="515" y1="205.9375" y2="205.9375"/><line style="stroke: #000000; stroke-width: 1.0;" x1="515" x2="605" y1="205.9375" y2="205.9375"/><line style="stroke: #000000; stroke-width: 1.0;" x1="605" x2="699" y1="205.9375" y2="205.9375"/><line style="stroke: #000000; stroke-width: 1.0;" x1="699" x2="778" y1="205.9375" y2="205.9375"/><line style="stroke: #000000; stroke-width: 1.0;" x1="778" x2="889" y1="205.9375" y2="205.9375"/><line style="stroke: #000000; stroke-width: 1.0;" x1="6" x2="6" y1="120.4688" y2="137.5625"/><line style="stroke: #000000; stroke-width: 1.0;" x1="15" x2="15" y1="120.4688" y2="137.5625"/><line style="stroke: #000000; stroke-width: 1.0;" x1="138" x2="138" y1="120.4688" y2="137.5625"/><line style="stroke: #000000; stroke-width: 1.0;" x1="229" x2="229" y1="120.4688" y2="137.5625"/><line style="stroke: #000000; stroke-width: 1.0;" x1="280" x2="280" y1="120.4688" y2="137.5625"/><line style="stroke: #000000; stroke-width: 1.0;" x1="401" x2="401" y1="120.4688" y2="137.5625"/><line style="stroke: #000000; stroke-width: 1.0;" x1="515" x2="515" y1="120.4688" y2="137.5625"/><line style="stroke: #000000; stroke-width: 1.0;" x1="605" x2="605" y1="120.4688" y2="137.5625"/><line style="stroke: #000000; stroke-width: 1.0;" x1="699" x2="699" y1="120.4688" y2="137.5625"/><line style="stroke: #000000; stroke-width: 1.0;" x1="778" x2="778" y1="120.4688" y2="137.5625"/><line style="stroke: #000000; stroke-width: 1.0;" x1="889" x2="889" y1="120.4688" y2="137.5625"/><line style="stroke: #000000; stroke-width: 1.0;" x1="6" x2="6" y1="171.75" y2="188.8438"/><line style="stroke: #000000; stroke-width: 1.0;" x1="15" x2="15" y1="171.75" y2="188.8438"/><line style="stroke: #000000; stroke-width: 1.0;" x1="138" x2="138" y1="171.75" y2="188.8438"/><line style="stroke: #000000; stroke-width: 1.0;" x1="229" x2="229" y1="171.75" y2="188.8438"/><line style="stroke: #000000; stroke-width: 1.0;" x1="280" x2="280" y1="171.75" y2="188.8438"/><line style="stroke: #000000; stroke-width: 1.0;" x1="401" x2="401" y1="171.75" y2="188.8438"/><line style="stroke: #000000; stroke-width: 1.0;" x1="515" x2="515" y1="171.75" y2="188.8438"/><line style="stroke: #000000; stroke-width: 1.0;" x1="605" x2="605" y1="171.75" y2="188.8438"/><line style="stroke: #000000; stroke-width: 1.0;" x1="699" x2="699" y1="171.75" y2="188.8438"/><line style="stroke: #000000; stroke-width: 1.0;" x1="778" x2="778" y1="171.75" y2="188.8438"/><line style="stroke: #000000; stroke-width: 1.0;" x1="889" x2="889" y1="171.75" y2="188.8438"/><line style="stroke: #000000; stroke-width: 1.0;" x1="6" x2="6" y1="137.5625" y2="154.6563"/><line style="stroke: #000000; stroke-width: 1.0;" x1="15" x2="15" y1="137.5625" y2="154.6563"/><line style="stroke: #000000; stroke-width: 1.0;" x1="138" x2="138" y1="137.5625" y2="154.6563"/><line style="stroke: #000000; stroke-width: 1.0;" x1="229" x2="229" y1="137.5625" y2="154.6563"/><line style="stroke: #000000; stroke-width: 1.0;" x1="280" x2="280" y1="137.5625" y2="154.6563"/><line style="stroke: #000000; stroke-width: 1.0;" x1="401" x2="401" y1="137.5625" y2="154.6563"/><line style="stroke: #000000; stroke-width: 1.0;" x1="515" x2="515" y1="137.5625" y2="154.6563"/><line style="stroke: #000000; stroke-width: 1.0;" x1="605" x2="605" y1="137.5625" y2="154.6563"/><line style="stroke: #000000; stroke-width: 1.0;" x1="699" x2="699" y1="137.5625" y2="154.6563"/><line style="stroke: #000000; stroke-width: 1.0;" x1="778" x2="778" y1="137.5625" y2="154.6563"/><line style="stroke: #000000; stroke-width: 1.0;" x1="889" x2="889" y1="137.5625" y2="154.6563"/><line style="stroke: #000000; stroke-width: 1.0;" x1="6" x2="6" y1="188.8438" y2="205.9375"/><line style="stroke: #000000; stroke-width: 1.0;" x1="15" x2="15" y1="188.8438" y2="205.9375"/><line style="stroke: #000000; stroke-width: 1.0;" x1="138" x2="138" y1="188.8438" y2="205.9375"/><line style="stroke: #000000; stroke-width: 1.0;" x1="229" x2="229" y1="188.8438" y2="205.9375"/><line style="stroke: #000000; stroke-width: 1.0;" x1="280" x2="280" y1="188.8438" y2="205.9375"/><line style="stroke: #000000; stroke-width: 1.0;" x1="401" x2="401" y1="188.8438" y2="205.9375"/><line style="stroke: #000000; stroke-width: 1.0;" x1="515" x2="515" y1="188.8438" y2="205.9375"/><line style="stroke: #000000; stroke-width: 1.0;" x1="605" x2="605" y1="188.8438" y2="205.9375"/><line style="stroke: #000000; stroke-width: 1.0;" x1="699" x2="699" y1="188.8438" y2="205.9375"/><line style="stroke: #000000; stroke-width: 1.0;" x1="778" x2="778" y1="188.8438" y2="205.9375"/><line style="stroke: #000000; stroke-width: 1.0;" x1="889" x2="889" y1="188.8438" y2="205.9375"/><line style="stroke: #000000; stroke-width: 1.0;" x1="6" x2="6" y1="154.6563" y2="171.75"/><line style="stroke: #000000; stroke-width: 1.0;" x1="15" x2="15" y1="154.6563" y2="171.75"/><line style="stroke: #000000; stroke-width: 1.0;" x1="138" x2="138" y1="154.6563" y2="171.75"/><line style="stroke: #000000; stroke-width: 1.0;" x1="229" x2="229" y1="154.6563" y2="171.75"/><line style="stroke: #000000; stroke-width: 1.0;" x1="280" x2="280" y1="154.6563" y2="171.75"/><line style="stroke: #000000; stroke-width: 1.0;" x1="401" x2="401" y1="154.6563" y2="171.75"/><line style="stroke: #000000; stroke-width: 1.0;" x1="515" x2="515" y1="154.6563" y2="171.75"/><line style="stroke: #000000; stroke-width: 1.0;" x1="605" x2="605" y1="154.6563" y2="171.75"/><line style="stroke: #000000; stroke-width: 1.0;" x1="699" x2="699" y1="154.6563" y2="171.75"/><line style="stroke: #000000; stroke-width: 1.0;" x1="778" x2="778" y1="154.6563" y2="171.75"/><line style="stroke: #000000; stroke-width: 1.0;" x1="889" x2="889" y1="154.6563" y2="171.75"/><line style="stroke: #AAAAAA; stroke-width: 1.0;" x1="6" x2="890" y1="211.4375" y2="211.4375"/><line style="stroke: #AAAAAA; stroke-width: 1.0;" x1="891" x2="902" y1="211.4375" y2="211.4375"/><rect fill="#EEEEEE" height="19.0938" rx="5" ry="5" style="stroke: #000000; stroke-width: 2.5;" width="60" x="9.5" y="219.4375"/><text fill="#000000" font-family="sans-serif" font-size="12" lengthAdjust="spacingAndGlyphs" textLength="42" x="18.5" y="233.8945">Annuler</text><rect fill="#EEEEEE" height="19.0938" rx="5" ry="5" style="stroke: #000000; stroke-width: 2.5;" width="92" x="76.5" y="219.4375"/><text fill="#000000" font-family="sans-serif" font-size="12" lengthAdjust="spacingAndGlyphs" textLength="70" x="87.5" y="233.8945">Sauvegarder</text></g></svg>