<?xml version="1.0" encoding="UTF-8" standalone="no"?><svg xmlns="http://www.w3.org/2000/svg" xmlns:xlink="http://www.w3.org/1999/xlink" contentScriptType="application/ecmascript" contentStyleType="text/css" height="701px" preserveAspectRatio="none" style="width:433px;height:701px;" version="1.1" viewBox="0 0 433 701" width="433px" zoomAndPan="magnify"><defs/><g><text fill="#000000" font-family="sans-serif" font-size="12" font-weight="bold" lengthAdjust="spacingAndGlyphs" textLength="145" x="9" y="18.457">Caractérisation de l'effort</text><line style="stroke: #AAAAAA; stroke-width: 1.0;" x1="6" x2="173" y1="26.5938" y2="26.5938"/><line style="stroke: #AAAAAA; stroke-width: 1.0;" x1="174" x2="426" y1="26.5938" y2="26.5938"/><text fill="#000000" font-family="sans-serif" font-size="12" font-weight="bold" lengthAdjust="spacingAndGlyphs" textLength="36" x="8" y="43.5508">Navire</text><line style="stroke: #000000; stroke-width: 1.0;" x1="6" x2="6" y1="31.0938" y2="46.1875"/><line style="stroke: #000000; stroke-width: 1.0;" x1="6" x2="47" y1="31.0938" y2="31.0938"/><line style="stroke: #000000; stroke-width: 1.0;" x1="47" x2="47" y1="31.0938" y2="46.1875"/><line style="stroke: #000000; stroke-width: 1.0;" x1="47" x2="57" y1="46.1875" y2="46.1875"/><text fill="#000000" font-family="sans-serif" font-size="12" lengthAdjust="spacingAndGlyphs" textLength="32" x="59" y="43.5508">Engin</text><line style="stroke: #000000; stroke-width: 1.0;" x1="57" x2="57" y1="31.0938" y2="46.1875"/><line style="stroke: #000000; stroke-width: 1.0;" x1="57" x2="94" y1="31.0938" y2="31.0938"/><line style="stroke: #000000; stroke-width: 1.0;" x1="94" x2="94" y1="31.0938" y2="46.1875"/><line style="stroke: #000000; stroke-width: 1.0;" x1="94" x2="104" y1="46.1875" y2="46.1875"/><text fill="#000000" font-family="sans-serif" font-size="12" lengthAdjust="spacingAndGlyphs" textLength="33" x="106" y="43.5508">Metier</text><line style="stroke: #000000; stroke-width: 1.0;" x1="104" x2="104" y1="31.0938" y2="46.1875"/><line style="stroke: #000000; stroke-width: 1.0;" x1="104" x2="142" y1="31.0938" y2="31.0938"/><line style="stroke: #000000; stroke-width: 1.0;" x1="142" x2="142" y1="31.0938" y2="46.1875"/><line style="stroke: #000000; stroke-width: 1.0;" x1="142" x2="152" y1="46.1875" y2="46.1875"/><text fill="#000000" font-family="sans-serif" font-size="12" lengthAdjust="spacingAndGlyphs" textLength="146" x="6" y="77.7383">Immatriculation du navire*:</text><rect fill="#EEEEEE" height="18.0938" style="stroke: #000000; stroke-width: 1.0;" width="87" x="175" y="66.2813"/><text fill="#000000" font-family="sans-serif" font-size="12" lengthAdjust="spacingAndGlyphs" textLength="53" x="177" y="80.7383">FR0005...</text><line style="stroke: #000000; stroke-width: 1.0;" x1="251" x2="251" y1="66.2813" y2="84.375"/><polygon fill="#000000" points="254,72.2813,260,72.2813,257,79.375" style="stroke: #000000; stroke-width: 1.0;"/><text fill="#000000" font-family="sans-serif" font-size="12" lengthAdjust="spacingAndGlyphs" textLength="88" x="6" y="100.832">Nom du navire*:</text><text fill="#000000" font-family="sans-serif" font-size="12" lengthAdjust="spacingAndGlyphs" textLength="36" x="178" y="101.832">Ocean</text><line style="stroke: #000000; stroke-width: 1.0;" x1="176" x2="235" y1="104.4688" y2="104.4688"/><line style="stroke: #000000; stroke-width: 1.0;" x1="176" x2="176" y1="101.4688" y2="103.4688"/><line style="stroke: #000000; stroke-width: 1.0;" x1="235" x2="235" y1="101.4688" y2="103.4688"/><text fill="#000000" font-family="sans-serif" font-size="12" lengthAdjust="spacingAndGlyphs" textLength="129" x="6" y="121.9258">Autres caractéristiques:</text><text fill="#000000" font-family="sans-serif" font-size="12" lengthAdjust="spacingAndGlyphs" textLength="193" x="175" y="122.9258">Paramètre 1 (ex: Puissance en W) :</text><text fill="#000000" font-family="sans-serif" font-size="12" lengthAdjust="spacingAndGlyphs" textLength="7" x="373" y="122.9258">5</text><line style="stroke: #000000; stroke-width: 1.0;" x1="371" x2="422" y1="125.5625" y2="125.5625"/><line style="stroke: #000000; stroke-width: 1.0;" x1="371" x2="371" y1="122.5625" y2="124.5625"/><line style="stroke: #000000; stroke-width: 1.0;" x1="422" x2="422" y1="122.5625" y2="124.5625"/><text fill="#000000" font-family="sans-serif" font-size="12" lengthAdjust="spacingAndGlyphs" textLength="74" x="175" y="144.0195">Paramètre 2 :</text><rect fill="#EEEEEE" height="18.0938" style="stroke: #000000; stroke-width: 1.0;" width="159" x="251" y="131.5625"/><text fill="#000000" font-family="sans-serif" font-size="12" lengthAdjust="spacingAndGlyphs" textLength="93" x="253" y="146.0195">Valeur qualitative</text><line style="stroke: #000000; stroke-width: 1.0;" x1="399" x2="399" y1="131.5625" y2="149.6563"/><polygon fill="#000000" points="402,137.5625,408,137.5625,405,144.6563" style="stroke: #000000; stroke-width: 1.0;"/><text fill="#000000" font-family="sans-serif" font-size="12" lengthAdjust="spacingAndGlyphs" textLength="83" x="6" y="183.207">Commentaires</text><text fill="#000000" font-family="sans-serif" font-size="12" lengthAdjust="spacingAndGlyphs" textLength="80" x="178" y="184.207">commentaires</text><line style="stroke: #000000; stroke-width: 1.0;" x1="176" x2="331" y1="186.8438" y2="186.8438"/><line style="stroke: #000000; stroke-width: 1.0;" x1="176" x2="176" y1="183.8438" y2="185.8438"/><line style="stroke: #000000; stroke-width: 1.0;" x1="331" x2="331" y1="183.8438" y2="185.8438"/><text fill="#000000" font-family="sans-serif" font-size="12" lengthAdjust="spacingAndGlyphs" textLength="166" x="6" y="221.3945">Capture débarquée par métier</text><rect fill="#EEEEEE" height="19.0938" rx="5" ry="5" style="stroke: #000000; stroke-width: 2.5;" width="164" x="177.5" y="212.4375"/><path d="M209,218.5313 L209,222.5313 L213,222.5313 L213,218.5313 L209,218.5313 M214,220.5313 L214,223.5313 L211,223.5313 L211,224.5313 L215,224.5313 L215,220.5313 L214,220.5313 M216,222.5313 L216,225.5313 L213,225.5313 L213,226.5313 L217,226.5313 L217,222.5313 L216,222.5313 " fill="#000000" style="stroke: ; stroke-width: 0.0; stroke-dasharray: ;"/><text fill="#000000" font-family="sans-serif" font-size="12" lengthAdjust="spacingAndGlyphs" textLength="90" x="221" y="226.8945">Entrer la capture</text><line style="stroke: #AAAAAA; stroke-width: 1.0; stroke-dasharray: 1.0,2.0;" x1="6" x2="173" y1="240.5313" y2="240.5313"/><text fill="#000000" font-family="sans-serif" font-size="12" lengthAdjust="spacingAndGlyphs" textLength="35" x="8" y="257.4883">Navire</text><line style="stroke: #000000; stroke-width: 1.0;" x1="6" x2="6" y1="245.0313" y2="260.125"/><line style="stroke: #000000; stroke-width: 1.0;" x1="6" x2="46" y1="245.0313" y2="245.0313"/><line style="stroke: #000000; stroke-width: 1.0;" x1="46" x2="46" y1="245.0313" y2="260.125"/><line style="stroke: #000000; stroke-width: 1.0;" x1="46" x2="56" y1="260.125" y2="260.125"/><text fill="#000000" font-family="sans-serif" font-size="12" font-weight="bold" lengthAdjust="spacingAndGlyphs" textLength="31" x="58" y="257.4883">Engin</text><line style="stroke: #000000; stroke-width: 1.0;" x1="56" x2="56" y1="245.0313" y2="260.125"/><line style="stroke: #000000; stroke-width: 1.0;" x1="56" x2="92" y1="245.0313" y2="245.0313"/><line style="stroke: #000000; stroke-width: 1.0;" x1="92" x2="92" y1="245.0313" y2="260.125"/><line style="stroke: #000000; stroke-width: 1.0;" x1="92" x2="102" y1="260.125" y2="260.125"/><text fill="#000000" font-family="sans-serif" font-size="12" lengthAdjust="spacingAndGlyphs" textLength="33" x="104" y="257.4883">Metier</text><line style="stroke: #000000; stroke-width: 1.0;" x1="102" x2="102" y1="245.0313" y2="260.125"/><line style="stroke: #000000; stroke-width: 1.0;" x1="102" x2="140" y1="245.0313" y2="245.0313"/><line style="stroke: #000000; stroke-width: 1.0;" x1="140" x2="140" y1="245.0313" y2="260.125"/><line style="stroke: #000000; stroke-width: 1.0;" x1="140" x2="150" y1="260.125" y2="260.125"/><text fill="#000000" font-family="sans-serif" font-size="12" lengthAdjust="spacingAndGlyphs" textLength="94" x="6" y="291.6758">Code de l'engin*:</text><rect fill="#EEEEEE" height="18.0938" style="stroke: #000000; stroke-width: 1.0;" width="151" x="175" y="280.2188"/><text fill="#000000" font-family="sans-serif" font-size="12" lengthAdjust="spacingAndGlyphs" textLength="88" x="177" y="294.6758">LL - Longlines...</text><line style="stroke: #000000; stroke-width: 1.0;" x1="315" x2="315" y1="280.2188" y2="298.3125"/><polygon fill="#000000" points="318,286.2188,324,286.2188,321,293.3125" style="stroke: #000000; stroke-width: 1.0;"/><path d="M333,280.2188 L333,283.2188 L330,283.2188 L330,285.2188 L333,285.2188 L333,288.2188 L335,288.2188 L335,285.2188 L338,285.2188 L338,283.2188 L335,283.2188 L335,280.2188 L333,280.2188 " fill="#000000" style="stroke: ; stroke-width: 0.0; stroke-dasharray: ;"/><text fill="#000000" font-family="sans-serif" font-size="12" lengthAdjust="spacingAndGlyphs" textLength="109" x="6" y="314.7695">Numéro de l'engin*:</text><text fill="#000000" font-family="sans-serif" font-size="12" lengthAdjust="spacingAndGlyphs" textLength="7" x="178" y="315.7695">3</text><line style="stroke: #000000; stroke-width: 1.0;" x1="176" x2="203" y1="318.4063" y2="318.4063"/><line style="stroke: #000000; stroke-width: 1.0;" x1="176" x2="176" y1="315.4063" y2="317.4063"/><line style="stroke: #000000; stroke-width: 1.0;" x1="203" x2="203" y1="315.4063" y2="317.4063"/><text fill="#000000" font-family="sans-serif" font-size="12" lengthAdjust="spacingAndGlyphs" textLength="129" x="6" y="335.8633">Autres caractéristiques:</text><text fill="#000000" font-family="sans-serif" font-size="12" lengthAdjust="spacingAndGlyphs" textLength="191" x="175" y="336.8633">Paramètre 1 (ex: Nombre d'engin) :</text><text fill="#000000" font-family="sans-serif" font-size="12" lengthAdjust="spacingAndGlyphs" textLength="7" x="371" y="336.8633">5</text><line style="stroke: #000000; stroke-width: 1.0;" x1="369" x2="420" y1="339.5" y2="339.5"/><line style="stroke: #000000; stroke-width: 1.0;" x1="369" x2="369" y1="336.5" y2="338.5"/><line style="stroke: #000000; stroke-width: 1.0;" x1="420" x2="420" y1="336.5" y2="338.5"/><text fill="#000000" font-family="sans-serif" font-size="12" lengthAdjust="spacingAndGlyphs" textLength="74" x="175" y="357.957">Paramètre 2 :</text><rect fill="#EEEEEE" height="18.0938" style="stroke: #000000; stroke-width: 1.0;" width="159" x="251" y="345.5"/><text fill="#000000" font-family="sans-serif" font-size="12" lengthAdjust="spacingAndGlyphs" textLength="93" x="253" y="359.957">Valeur qualitative</text><line style="stroke: #000000; stroke-width: 1.0;" x1="399" x2="399" y1="345.5" y2="363.5938"/><polygon fill="#000000" points="402,351.5,408,351.5,405,358.5938" style="stroke: #000000; stroke-width: 1.0;"/><text fill="#000000" font-family="sans-serif" font-size="12" lengthAdjust="spacingAndGlyphs" textLength="83" x="6" y="397.1445">Commentaires</text><text fill="#000000" font-family="sans-serif" font-size="12" lengthAdjust="spacingAndGlyphs" textLength="80" x="178" y="398.1445">commentaires</text><line style="stroke: #000000; stroke-width: 1.0;" x1="176" x2="331" y1="400.7813" y2="400.7813"/><line style="stroke: #000000; stroke-width: 1.0;" x1="176" x2="176" y1="397.7813" y2="399.7813"/><line style="stroke: #000000; stroke-width: 1.0;" x1="331" x2="331" y1="397.7813" y2="399.7813"/><text fill="#000000" font-family="sans-serif" font-size="12" lengthAdjust="spacingAndGlyphs" textLength="166" x="6" y="435.332">Capture débarquée par métier</text><rect fill="#EEEEEE" height="19.0938" rx="5" ry="5" style="stroke: #000000; stroke-width: 2.5;" width="164" x="177.5" y="426.375"/><path d="M209,432.4688 L209,436.4688 L213,436.4688 L213,432.4688 L209,432.4688 M214,434.4688 L214,437.4688 L211,437.4688 L211,438.4688 L215,438.4688 L215,434.4688 L214,434.4688 M216,436.4688 L216,439.4688 L213,439.4688 L213,440.4688 L217,440.4688 L217,436.4688 L216,436.4688 " fill="#000000" style="stroke: ; stroke-width: 0.0; stroke-dasharray: ;"/><text fill="#000000" font-family="sans-serif" font-size="12" lengthAdjust="spacingAndGlyphs" textLength="90" x="221" y="440.832">Entrer la capture</text><line style="stroke: #AAAAAA; stroke-width: 1.0; stroke-dasharray: 1.0,2.0;" x1="6" x2="173" y1="454.4688" y2="454.4688"/><text fill="#000000" font-family="sans-serif" font-size="12" lengthAdjust="spacingAndGlyphs" textLength="35" x="8" y="471.4258">Navire</text><line style="stroke: #000000; stroke-width: 1.0;" x1="6" x2="6" y1="458.9688" y2="474.0625"/><line style="stroke: #000000; stroke-width: 1.0;" x1="6" x2="46" y1="458.9688" y2="458.9688"/><line style="stroke: #000000; stroke-width: 1.0;" x1="46" x2="46" y1="458.9688" y2="474.0625"/><line style="stroke: #000000; stroke-width: 1.0;" x1="46" x2="56" y1="474.0625" y2="474.0625"/><text fill="#000000" font-family="sans-serif" font-size="12" lengthAdjust="spacingAndGlyphs" textLength="32" x="58" y="471.4258">Engin</text><line style="stroke: #000000; stroke-width: 1.0;" x1="56" x2="56" y1="458.9688" y2="474.0625"/><line style="stroke: #000000; stroke-width: 1.0;" x1="56" x2="93" y1="458.9688" y2="458.9688"/><line style="stroke: #000000; stroke-width: 1.0;" x1="93" x2="93" y1="458.9688" y2="474.0625"/><line style="stroke: #000000; stroke-width: 1.0;" x1="93" x2="103" y1="474.0625" y2="474.0625"/><text fill="#000000" font-family="sans-serif" font-size="12" font-weight="bold" lengthAdjust="spacingAndGlyphs" textLength="36" x="105" y="471.4258">Metier</text><line style="stroke: #000000; stroke-width: 1.0;" x1="103" x2="103" y1="458.9688" y2="474.0625"/><line style="stroke: #000000; stroke-width: 1.0;" x1="103" x2="144" y1="458.9688" y2="458.9688"/><line style="stroke: #000000; stroke-width: 1.0;" x1="144" x2="144" y1="458.9688" y2="474.0625"/><line style="stroke: #000000; stroke-width: 1.0;" x1="144" x2="154" y1="474.0625" y2="474.0625"/><text fill="#000000" font-family="sans-serif" font-size="12" lengthAdjust="spacingAndGlyphs" textLength="93" x="6" y="505.6133">Code du metier*:</text><rect fill="#EEEEEE" height="18.0938" style="stroke: #000000; stroke-width: 1.0;" width="175" x="175" y="494.1563"/><text fill="#000000" font-family="sans-serif" font-size="12" lengthAdjust="spacingAndGlyphs" textLength="113" x="177" y="508.6133">LLSKH - Longlines...</text><line style="stroke: #000000; stroke-width: 1.0;" x1="339" x2="339" y1="494.1563" y2="512.25"/><polygon fill="#000000" points="342,500.1563,348,500.1563,345,507.25" style="stroke: #000000; stroke-width: 1.0;"/><text fill="#000000" font-family="sans-serif" font-size="12" lengthAdjust="spacingAndGlyphs" textLength="108" x="6" y="528.707">Numéro du métier*:</text><text fill="#000000" font-family="sans-serif" font-size="12" lengthAdjust="spacingAndGlyphs" textLength="7" x="178" y="529.707">3</text><line style="stroke: #000000; stroke-width: 1.0;" x1="176" x2="203" y1="532.3438" y2="532.3438"/><line style="stroke: #000000; stroke-width: 1.0;" x1="176" x2="176" y1="529.3438" y2="531.3438"/><line style="stroke: #000000; stroke-width: 1.0;" x1="203" x2="203" y1="529.3438" y2="531.3438"/><text fill="#000000" font-family="sans-serif" font-size="12" lengthAdjust="spacingAndGlyphs" textLength="129" x="6" y="549.8008">Autres caractéristiques:</text><text fill="#000000" font-family="sans-serif" font-size="12" lengthAdjust="spacingAndGlyphs" textLength="191" x="175" y="550.8008">Paramètre 1 (ex: Nombre d'engin) :</text><text fill="#000000" font-family="sans-serif" font-size="12" lengthAdjust="spacingAndGlyphs" textLength="7" x="371" y="550.8008">5</text><line style="stroke: #000000; stroke-width: 1.0;" x1="369" x2="420" y1="553.4375" y2="553.4375"/><line style="stroke: #000000; stroke-width: 1.0;" x1="369" x2="369" y1="550.4375" y2="552.4375"/><line style="stroke: #000000; stroke-width: 1.0;" x1="420" x2="420" y1="550.4375" y2="552.4375"/><text fill="#000000" font-family="sans-serif" font-size="12" lengthAdjust="spacingAndGlyphs" textLength="74" x="175" y="571.8945">Paramètre 2 :</text><rect fill="#EEEEEE" height="18.0938" style="stroke: #000000; stroke-width: 1.0;" width="159" x="251" y="559.4375"/><text fill="#000000" font-family="sans-serif" font-size="12" lengthAdjust="spacingAndGlyphs" textLength="93" x="253" y="573.8945">Valeur qualitative</text><line style="stroke: #000000; stroke-width: 1.0;" x1="399" x2="399" y1="559.4375" y2="577.5313"/><polygon fill="#000000" points="402,565.4375,408,565.4375,405,572.5313" style="stroke: #000000; stroke-width: 1.0;"/><text fill="#000000" font-family="sans-serif" font-size="12" lengthAdjust="spacingAndGlyphs" textLength="83" x="6" y="611.082">Commentaires</text><text fill="#000000" font-family="sans-serif" font-size="12" lengthAdjust="spacingAndGlyphs" textLength="80" x="178" y="612.082">commentaires</text><line style="stroke: #000000; stroke-width: 1.0;" x1="176" x2="331" y1="614.7188" y2="614.7188"/><line style="stroke: #000000; stroke-width: 1.0;" x1="176" x2="176" y1="611.7188" y2="613.7188"/><line style="stroke: #000000; stroke-width: 1.0;" x1="331" x2="331" y1="611.7188" y2="613.7188"/><text fill="#000000" font-family="sans-serif" font-size="12" lengthAdjust="spacingAndGlyphs" textLength="166" x="6" y="649.2695">Capture débarquée par métier</text><rect fill="#EEEEEE" height="19.0938" rx="5" ry="5" style="stroke: #000000; stroke-width: 2.5;" width="164" x="177.5" y="640.3125"/><path d="M209,646.4063 L209,650.4063 L213,650.4063 L213,646.4063 L209,646.4063 M214,648.4063 L214,651.4063 L211,651.4063 L211,652.4063 L215,652.4063 L215,648.4063 L214,648.4063 M216,650.4063 L216,653.4063 L213,653.4063 L213,654.4063 L217,654.4063 L217,650.4063 L216,650.4063 " fill="#000000" style="stroke: ; stroke-width: 0.0; stroke-dasharray: ;"/><text fill="#000000" font-family="sans-serif" font-size="12" lengthAdjust="spacingAndGlyphs" textLength="90" x="221" y="654.7695">Entrer la capture</text><line style="stroke: #AAAAAA; stroke-width: 1.0;" x1="6" x2="173" y1="668.4063" y2="668.4063"/><line style="stroke: #AAAAAA; stroke-width: 1.0;" x1="174" x2="426" y1="668.4063" y2="668.4063"/><rect fill="#EEEEEE" height="19.0938" rx="5" ry="5" style="stroke: #000000; stroke-width: 2.5;" width="60" x="177.5" y="676.4063"/><text fill="#000000" font-family="sans-serif" font-size="12" lengthAdjust="spacingAndGlyphs" textLength="42" x="186.5" y="690.8633">Annuler</text><rect fill="#EEEEEE" height="19.0938" rx="5" ry="5" style="stroke: #000000; stroke-width: 2.5;" width="92" x="244.5" y="676.4063"/><text fill="#000000" font-family="sans-serif" font-size="12" lengthAdjust="spacingAndGlyphs" textLength="70" x="255.5" y="690.8633">Sauvegarder</text></g></svg>