<?xml version="1.0" encoding="UTF-8" standalone="no"?><svg xmlns="http://www.w3.org/2000/svg" xmlns:xlink="http://www.w3.org/1999/xlink" contentScriptType="application/ecmascript" contentStyleType="text/css" height="581px" preserveAspectRatio="none" style="width:591px;height:581px;" version="1.1" viewBox="0 0 591 581" width="591px" zoomAndPan="magnify"><defs/><g><text fill="#000000" font-family="sans-serif" font-size="12" font-weight="bold" lengthAdjust="spacingAndGlyphs" textLength="360" x="6" y="18.457">Weekly report of activity 02/02/2019 00:00 - LS-AF - Anse Forban</text><line style="stroke: #AAAAAA; stroke-width: 1.0; stroke-dasharray: 1.0,2.0;" x1="6" x2="584" y1="26.5938" y2="26.5938"/><text fill="#000000" font-family="sans-serif" font-size="12" font-weight="bold" lengthAdjust="spacingAndGlyphs" textLength="118" x="8" y="43.5508">Information générale</text><line style="stroke: #000000; stroke-width: 1.0;" x1="6" x2="6" y1="31.0938" y2="46.1875"/><line style="stroke: #000000; stroke-width: 1.0;" x1="6" x2="129" y1="31.0938" y2="31.0938"/><line style="stroke: #000000; stroke-width: 1.0;" x1="129" x2="129" y1="31.0938" y2="46.1875"/><line style="stroke: #000000; stroke-width: 1.0;" x1="129" x2="139" y1="46.1875" y2="46.1875"/><text fill="#000000" font-family="sans-serif" font-size="12" lengthAdjust="spacingAndGlyphs" textLength="111" x="141" y="43.5508">Activités des navires</text><line style="stroke: #000000; stroke-width: 1.0;" x1="139" x2="139" y1="31.0938" y2="46.1875"/><line style="stroke: #000000; stroke-width: 1.0;" x1="139" x2="255" y1="31.0938" y2="31.0938"/><line style="stroke: #000000; stroke-width: 1.0;" x1="255" x2="255" y1="31.0938" y2="46.1875"/><line style="stroke: #000000; stroke-width: 1.0;" x1="255" x2="265" y1="46.1875" y2="46.1875"/><text fill="#000000" font-family="sans-serif" font-size="12" font-weight="bold" lengthAdjust="spacingAndGlyphs" textLength="42" x="7" y="78.7383">Navire :</text><rect fill="#EEEEEE" height="18.0938" style="stroke: #000000; stroke-width: 1.0;" width="191" x="52" y="67.2813"/><text fill="#000000" font-family="sans-serif" font-size="12" lengthAdjust="spacingAndGlyphs" textLength="73" x="54" y="81.7383">SZ190 - Ziblo</text><line style="stroke: #000000; stroke-width: 1.0;" x1="232" x2="232" y1="67.2813" y2="85.375"/><polygon fill="#000000" points="235,73.2813,241,73.2813,238,80.375" style="stroke: #000000; stroke-width: 1.0;"/><rect fill="#EEEEEE" height="12" rx="5" ry="5" style="stroke: #000000; stroke-width: 2.5;" width="20" x="248.5" y="69.7813"/><path d="M257.5,71.7813 L257.5,74.7813 L254.5,74.7813 L254.5,76.7813 L257.5,76.7813 L257.5,79.7813 L259.5,79.7813 L259.5,76.7813 L262.5,76.7813 L262.5,74.7813 L259.5,74.7813 L259.5,71.7813 L257.5,71.7813 " fill="#000000" style="stroke: ; stroke-width: 0.0; stroke-dasharray: ;"/><rect fill="#EEEEEE" height="12" rx="5" ry="5" style="stroke: #000000; stroke-width: 2.5;" width="20" x="275.5" y="69.7813"/><path d="M282.906,71.7813 L281.5,73.1873 L282.188,73.9063 L283.969,75.6873 L282.188,77.4683 L281.5,78.1873 L282.906,79.5933 L283.625,78.9053 L285.406,77.1243 L287.187,78.9053 L287.906,79.5933 L289.312,78.1873 L288.624,77.4683 L286.843,75.6873 L288.624,73.9063 L289.312,73.1873 L287.906,71.7813 L287.187,72.4693 L285.406,74.2503 L283.625,72.4693 L282.906,71.7813 " fill="#000000" style="stroke: ; stroke-width: 0.0; stroke-dasharray: ;"/><text fill="#000000" font-family="sans-serif" font-size="12" font-weight="bold" lengthAdjust="spacingAndGlyphs" textLength="97" x="8" y="121.9258">Activité du navire</text><text fill="#0000FF" font-family="sans-serif" font-size="12" font-style="italic" lengthAdjust="spacingAndGlyphs" textLength="74" x="111" y="122.9258">SZ190 - Ziblo</text><line style="stroke: #000000; stroke-width: 1.0;" x1="109" x2="336" y1="125.5625" y2="125.5625"/><line style="stroke: #000000; stroke-width: 1.0;" x1="109" x2="109" y1="122.5625" y2="124.5625"/><line style="stroke: #000000; stroke-width: 1.0;" x1="336" x2="336" y1="122.5625" y2="124.5625"/><rect fill="#EEEEEE" height="12" rx="5" ry="5" style="stroke: #000000; stroke-width: 2.5;" width="20" x="344.5" y="112.9688"/><path d="M353.5,114.9688 L353.5,117.9688 L350.5,117.9688 L350.5,119.9688 L353.5,119.9688 L353.5,122.9688 L355.5,122.9688 L355.5,119.9688 L358.5,119.9688 L358.5,117.9688 L355.5,117.9688 L355.5,114.9688 L353.5,114.9688 " fill="#000000" style="stroke: ; stroke-width: 0.0; stroke-dasharray: ;"/><rect fill="#EEEEEE" height="12" rx="5" ry="5" style="stroke: #000000; stroke-width: 2.5;" width="20" x="371.5" y="112.9688"/><path d="M377.5,117.9688 L377.5,119.9688 L385.5,119.9688 L385.5,117.9688 L377.5,117.9688 " fill="#000000" style="stroke: ; stroke-width: 0.0; stroke-dasharray: ;"/><line style="stroke: #AAAAAA; stroke-width: 1.0; stroke-dasharray: 1.0,2.0;" x1="7" x2="583" y1="135.0625" y2="135.0625"/><text fill="#000000" font-family="sans-serif" font-size="12" lengthAdjust="spacingAndGlyphs" textLength="51" x="8" y="153.0195">Situation:</text><rect fill="#EEEEEE" height="18.0938" style="stroke: #000000; stroke-width: 1.0;" width="127" x="62" y="141.5625"/><text fill="#000000" font-family="sans-serif" font-size="12" lengthAdjust="spacingAndGlyphs" textLength="81" x="64" y="156.0195">DP - Departing</text><line style="stroke: #000000; stroke-width: 1.0;" x1="178" x2="178" y1="141.5625" y2="159.6563"/><polygon fill="#000000" points="181,147.5625,187,147.5625,184,154.6563" style="stroke: #000000; stroke-width: 1.0;"/><text fill="#000000" font-family="sans-serif" font-size="12" lengthAdjust="spacingAndGlyphs" textLength="106" x="212" y="154.0195">Conserver la valeur</text><rect fill="none" height="10" style="stroke: #000000; stroke-width: 1.5;" width="10" x="194" y="144.1094"/><text fill="#000000" font-family="sans-serif" font-size="12" lengthAdjust="spacingAndGlyphs" textLength="41" x="9" y="196.207">Metier*:</text><rect fill="#EEEEEE" height="18.0938" style="stroke: #000000; stroke-width: 1.0;" width="255" x="53" y="184.75"/><text fill="#000000" font-family="sans-serif" font-size="12" lengthAdjust="spacingAndGlyphs" textLength="156" x="55" y="199.207">FIXABSX - Active trap for Vyey</text><line style="stroke: #000000; stroke-width: 1.0;" x1="297" x2="297" y1="184.75" y2="202.8438"/><polygon fill="#000000" points="300,190.75,306,190.75,303,197.8438" style="stroke: #000000; stroke-width: 1.0;"/><text fill="#000000" font-family="sans-serif" font-size="12" lengthAdjust="spacingAndGlyphs" textLength="93" x="331" y="197.207">Valeur par défaut</text><rect fill="none" height="10" style="stroke: #000000; stroke-width: 1.5;" width="10" x="313" y="187.2969"/><rect fill="#EEEEEE" height="12" rx="5" ry="5" style="stroke: #000000; stroke-width: 2.5;" width="20" x="429.5" y="186.25"/><path d="M438.5,188.25 L438.5,191.25 L435.5,191.25 L435.5,193.25 L438.5,193.25 L438.5,196.25 L440.5,196.25 L440.5,193.25 L443.5,193.25 L443.5,191.25 L440.5,191.25 L440.5,188.25 L438.5,188.25 " fill="#000000" style="stroke: ; stroke-width: 0.0; stroke-dasharray: ;"/><rect fill="#EEEEEE" height="19.0938" rx="5" ry="5" style="stroke: #000000; stroke-width: 2.5;" width="68" x="11.5" y="211.3438"/><text fill="#000000" font-family="sans-serif" font-size="12" lengthAdjust="spacingAndGlyphs" textLength="31" x="30" y="225.8008">Lundi</text><rect fill="#EEEEEE" height="19.0938" rx="5" ry="5" style="stroke: #000000; stroke-width: 2.5;" width="92" x="86.5" y="211.3438"/><text fill="#000000" font-family="sans-serif" font-size="12" font-weight="bold" lengthAdjust="spacingAndGlyphs" textLength="32" x="116.5" y="225.8008">Mardi</text><rect fill="#EEEEEE" height="19.0938" rx="5" ry="5" style="stroke: #000000; stroke-width: 2.5;" width="68" x="185.5" y="211.3438"/><text fill="#000000" font-family="sans-serif" font-size="12" lengthAdjust="spacingAndGlyphs" textLength="47" x="196" y="225.8008">Mercredi</text><rect fill="#EEEEEE" height="19.0938" rx="5" ry="5" style="stroke: #000000; stroke-width: 2.5;" width="68" x="260.5" y="211.3438"/><text fill="#000000" font-family="sans-serif" font-size="12" lengthAdjust="spacingAndGlyphs" textLength="30" x="279.5" y="225.8008">Jeudi</text><rect fill="#EEEEEE" height="19.0938" rx="5" ry="5" style="stroke: #000000; stroke-width: 2.5;" width="92" x="335.5" y="211.3438"/><text fill="#000000" font-family="sans-serif" font-size="12" font-weight="bold" lengthAdjust="spacingAndGlyphs" textLength="51" x="356" y="225.8008">Vendredi</text><rect fill="#EEEEEE" height="19.0938" rx="5" ry="5" style="stroke: #000000; stroke-width: 2.5;" width="68" x="434.5" y="211.3438"/><text fill="#000000" font-family="sans-serif" font-size="12" lengthAdjust="spacingAndGlyphs" textLength="43" x="447" y="225.8008">Samedi</text><rect fill="#EEEEEE" height="19.0938" rx="5" ry="5" style="stroke: #000000; stroke-width: 2.5;" width="68" x="509.5" y="211.3438"/><text fill="#000000" font-family="sans-serif" font-size="12" lengthAdjust="spacingAndGlyphs" textLength="57" x="515" y="225.8008">Dimanche</text><path d="M14.031,235.9375 C11.501,235.9375 10,238.9375 10,238.9375 C10,238.9375 11.501,241.9375 14.031,241.9375 C16.501,241.9375 18,238.9375 18,238.9375 C18,238.9375 16.501,235.9375 14.031,235.9375 M14,236.9375 C15.1,236.9375 16,237.8375 16,238.9375 C16,240.0375 15.1,240.9375 14,240.9375 C12.9,240.9375 12,240.0375 12,238.9375 C12,237.8375 12.9,236.9375 14,236.9375 M14,237.9375 C13.45,237.9375 13,238.3875 13,238.9375 C13,239.4875 13.45,239.9375 14,239.9375 C14.55,239.9375 15,239.4875 15,238.9375 C15,238.8375 14.968,238.7465 14.937,238.6565 C14.857,238.8165 14.7,238.9375 14.499,238.9375 C14.219,238.9375 13.999,238.7175 13.999,238.4375 C13.999,238.2375 14.12,238.0805 14.28,237.9995 C14.19,237.9695 14.099,237.9365 13.999,237.9365 " fill="#000000" style="stroke: ; stroke-width: 0.0; stroke-dasharray: ;"/><rect fill="#EEEEEE" height="12" rx="5" ry="5" style="stroke: #000000; stroke-width: 2.5;" width="20" x="86.5" y="237.4375"/><path d="M96.531,240.4375 C94.001,240.4375 92.5,243.4375 92.5,243.4375 C92.5,243.4375 94.001,246.4375 96.531,246.4375 C99.001,246.4375 100.5,243.4375 100.5,243.4375 C100.5,243.4375 99.001,240.4375 96.531,240.4375 M96.5,241.4375 C97.6,241.4375 98.5,242.3375 98.5,243.4375 C98.5,244.5375 97.6,245.4375 96.5,245.4375 C95.4,245.4375 94.5,244.5375 94.5,243.4375 C94.5,242.3375 95.4,241.4375 96.5,241.4375 M96.5,242.4375 C95.95,242.4375 95.5,242.8875 95.5,243.4375 C95.5,243.9875 95.95,244.4375 96.5,244.4375 C97.05,244.4375 97.5,243.9875 97.5,243.4375 C97.5,243.3375 97.468,243.2465 97.437,243.1565 C97.357,243.3165 97.2,243.4375 96.999,243.4375 C96.719,243.4375 96.499,243.2175 96.499,242.9375 C96.499,242.7375 96.62,242.5805 96.78,242.4995 C96.69,242.4695 96.599,242.4365 96.499,242.4365 " fill="#000000" style="stroke: ; stroke-width: 0.0; stroke-dasharray: ;"/><path d="M188.031,235.9375 C185.501,235.9375 184,238.9375 184,238.9375 C184,238.9375 185.501,241.9375 188.031,241.9375 C190.501,241.9375 192,238.9375 192,238.9375 C192,238.9375 190.501,235.9375 188.031,235.9375 M188,236.9375 C189.1,236.9375 190,237.8375 190,238.9375 C190,240.0375 189.1,240.9375 188,240.9375 C186.9,240.9375 186,240.0375 186,238.9375 C186,237.8375 186.9,236.9375 188,236.9375 M188,237.9375 C187.45,237.9375 187,238.3875 187,238.9375 C187,239.4875 187.45,239.9375 188,239.9375 C188.55,239.9375 189,239.4875 189,238.9375 C189,238.8375 188.968,238.7465 188.937,238.6565 C188.857,238.8165 188.7,238.9375 188.499,238.9375 C188.219,238.9375 187.999,238.7175 187.999,238.4375 C187.999,238.2375 188.12,238.0805 188.28,237.9995 C188.19,237.9695 188.099,237.9365 187.999,237.9365 " fill="#000000" style="stroke: ; stroke-width: 0.0; stroke-dasharray: ;"/><path d="M263.031,235.9375 C260.501,235.9375 259,238.9375 259,238.9375 C259,238.9375 260.501,241.9375 263.031,241.9375 C265.501,241.9375 267,238.9375 267,238.9375 C267,238.9375 265.501,235.9375 263.031,235.9375 M263,236.9375 C264.1,236.9375 265,237.8375 265,238.9375 C265,240.0375 264.1,240.9375 263,240.9375 C261.9,240.9375 261,240.0375 261,238.9375 C261,237.8375 261.9,236.9375 263,236.9375 M263,237.9375 C262.45,237.9375 262,238.3875 262,238.9375 C262,239.4875 262.45,239.9375 263,239.9375 C263.55,239.9375 264,239.4875 264,238.9375 C264,238.8375 263.968,238.7465 263.937,238.6565 C263.857,238.8165 263.7,238.9375 263.499,238.9375 C263.219,238.9375 262.999,238.7175 262.999,238.4375 C262.999,238.2375 263.12,238.0805 263.28,237.9995 C263.19,237.9695 263.099,237.9365 262.999,237.9365 " fill="#000000" style="stroke: ; stroke-width: 0.0; stroke-dasharray: ;"/><rect fill="#EEEEEE" height="12" rx="5" ry="5" style="stroke: #000000; stroke-width: 2.5;" width="20" x="335.5" y="237.4375"/><path d="M345.531,240.4375 C343.001,240.4375 341.5,243.4375 341.5,243.4375 C341.5,243.4375 343.001,246.4375 345.531,246.4375 C348.001,246.4375 349.5,243.4375 349.5,243.4375 C349.5,243.4375 348.001,240.4375 345.531,240.4375 M345.5,241.4375 C346.6,241.4375 347.5,242.3375 347.5,243.4375 C347.5,244.5375 346.6,245.4375 345.5,245.4375 C344.4,245.4375 343.5,244.5375 343.5,243.4375 C343.5,242.3375 344.4,241.4375 345.5,241.4375 M345.5,242.4375 C344.95,242.4375 344.5,242.8875 344.5,243.4375 C344.5,243.9875 344.95,244.4375 345.5,244.4375 C346.05,244.4375 346.5,243.9875 346.5,243.4375 C346.5,243.3375 346.468,243.2465 346.437,243.1565 C346.357,243.3165 346.2,243.4375 345.999,243.4375 C345.719,243.4375 345.499,243.2175 345.499,242.9375 C345.499,242.7375 345.62,242.5805 345.78,242.4995 C345.69,242.4695 345.599,242.4365 345.499,242.4365 " fill="#000000" style="stroke: ; stroke-width: 0.0; stroke-dasharray: ;"/><path d="M437.031,235.9375 C434.501,235.9375 433,238.9375 433,238.9375 C433,238.9375 434.501,241.9375 437.031,241.9375 C439.501,241.9375 441,238.9375 441,238.9375 C441,238.9375 439.501,235.9375 437.031,235.9375 M437,236.9375 C438.1,236.9375 439,237.8375 439,238.9375 C439,240.0375 438.1,240.9375 437,240.9375 C435.9,240.9375 435,240.0375 435,238.9375 C435,237.8375 435.9,236.9375 437,236.9375 M437,237.9375 C436.45,237.9375 436,238.3875 436,238.9375 C436,239.4875 436.45,239.9375 437,239.9375 C437.55,239.9375 438,239.4875 438,238.9375 C438,238.8375 437.968,238.7465 437.937,238.6565 C437.857,238.8165 437.7,238.9375 437.499,238.9375 C437.219,238.9375 436.999,238.7175 436.999,238.4375 C436.999,238.2375 437.12,238.0805 437.28,237.9995 C437.19,237.9695 437.099,237.9365 436.999,237.9365 " fill="#000000" style="stroke: ; stroke-width: 0.0; stroke-dasharray: ;"/><path d="M512.031,235.9375 C509.501,235.9375 508,238.9375 508,238.9375 C508,238.9375 509.501,241.9375 512.031,241.9375 C514.501,241.9375 516,238.9375 516,238.9375 C516,238.9375 514.501,235.9375 512.031,235.9375 M512,236.9375 C513.1,236.9375 514,237.8375 514,238.9375 C514,240.0375 513.1,240.9375 512,240.9375 C510.9,240.9375 510,240.0375 510,238.9375 C510,237.8375 510.9,236.9375 512,236.9375 M512,237.9375 C511.45,237.9375 511,238.3875 511,238.9375 C511,239.4875 511.45,239.9375 512,239.9375 C512.55,239.9375 513,239.4875 513,238.9375 C513,238.8375 512.968,238.7465 512.937,238.6565 C512.857,238.8165 512.7,238.9375 512.499,238.9375 C512.219,238.9375 511.999,238.7175 511.999,238.4375 C511.999,238.2375 512.12,238.0805 512.28,237.9995 C512.19,237.9695 512.099,237.9365 511.999,237.9365 " fill="#000000" style="stroke: ; stroke-width: 0.0; stroke-dasharray: ;"/><rect fill="#EEEEEE" height="19.0938" rx="5" ry="5" style="stroke: #000000; stroke-width: 2.5;" width="92" x="11.5" y="275.5313"/><text fill="#000000" font-family="sans-serif" font-size="12" lengthAdjust="spacingAndGlyphs" textLength="31" x="42" y="289.9883">Lundi</text><path d="M113.031,274.0313 C110.501,274.0313 109,277.0313 109,277.0313 C109,277.0313 110.501,280.0313 113.031,280.0313 C115.501,280.0313 117,277.0313 117,277.0313 C117,277.0313 115.501,274.0313 113.031,274.0313 M113,275.0313 C114.1,275.0313 115,275.9313 115,277.0313 C115,278.1313 114.1,279.0313 113,279.0313 C111.9,279.0313 111,278.1313 111,277.0313 C111,275.9313 111.9,275.0313 113,275.0313 M113,276.0313 C112.45,276.0313 112,276.4813 112,277.0313 C112,277.5813 112.45,278.0313 113,278.0313 C113.55,278.0313 114,277.5813 114,277.0313 C114,276.9313 113.968,276.8403 113.937,276.7503 C113.857,276.9103 113.7,277.0313 113.499,277.0313 C113.219,277.0313 112.999,276.8113 112.999,276.5313 C112.999,276.3313 113.12,276.1743 113.28,276.0933 C113.19,276.0633 113.099,276.0303 112.999,276.0303 " fill="#000000" style="stroke: ; stroke-width: 0.0; stroke-dasharray: ;"/><rect fill="#EEEEEE" height="19.0938" rx="5" ry="5" style="stroke: #000000; stroke-width: 2.5;" width="92" x="11.5" y="301.625"/><text fill="#000000" font-family="sans-serif" font-size="12" font-weight="bold" lengthAdjust="spacingAndGlyphs" textLength="32" x="41.5" y="316.082">Mardi</text><rect fill="#EEEEEE" height="12" rx="5" ry="5" style="stroke: #000000; stroke-width: 2.5;" width="20" x="110.5" y="301.625"/><path d="M120.531,304.625 C118.001,304.625 116.5,307.625 116.5,307.625 C116.5,307.625 118.001,310.625 120.531,310.625 C123.001,310.625 124.5,307.625 124.5,307.625 C124.5,307.625 123.001,304.625 120.531,304.625 M120.5,305.625 C121.6,305.625 122.5,306.525 122.5,307.625 C122.5,308.725 121.6,309.625 120.5,309.625 C119.4,309.625 118.5,308.725 118.5,307.625 C118.5,306.525 119.4,305.625 120.5,305.625 M120.5,306.625 C119.95,306.625 119.5,307.075 119.5,307.625 C119.5,308.175 119.95,308.625 120.5,308.625 C121.05,308.625 121.5,308.175 121.5,307.625 C121.5,307.525 121.468,307.434 121.437,307.344 C121.357,307.504 121.2,307.625 120.999,307.625 C120.719,307.625 120.499,307.405 120.499,307.125 C120.499,306.925 120.62,306.768 120.78,306.687 C120.69,306.657 120.599,306.624 120.499,306.624 " fill="#000000" style="stroke: ; stroke-width: 0.0; stroke-dasharray: ;"/><rect fill="#EEEEEE" height="19.0938" rx="5" ry="5" style="stroke: #000000; stroke-width: 2.5;" width="92" x="11.5" y="327.7188"/><text fill="#000000" font-family="sans-serif" font-size="12" lengthAdjust="spacingAndGlyphs" textLength="47" x="34" y="342.1758">Mercredi</text><path d="M113.031,326.2188 C110.501,326.2188 109,329.2188 109,329.2188 C109,329.2188 110.501,332.2188 113.031,332.2188 C115.501,332.2188 117,329.2188 117,329.2188 C117,329.2188 115.501,326.2188 113.031,326.2188 M113,327.2188 C114.1,327.2188 115,328.1188 115,329.2188 C115,330.3188 114.1,331.2188 113,331.2188 C111.9,331.2188 111,330.3188 111,329.2188 C111,328.1188 111.9,327.2188 113,327.2188 M113,328.2188 C112.45,328.2188 112,328.6688 112,329.2188 C112,329.7688 112.45,330.2188 113,330.2188 C113.55,330.2188 114,329.7688 114,329.2188 C114,329.1188 113.968,329.0278 113.937,328.9378 C113.857,329.0978 113.7,329.2188 113.499,329.2188 C113.219,329.2188 112.999,328.9988 112.999,328.7188 C112.999,328.5188 113.12,328.3618 113.28,328.2808 C113.19,328.2508 113.099,328.2178 112.999,328.2178 " fill="#000000" style="stroke: ; stroke-width: 0.0; stroke-dasharray: ;"/><rect fill="#EEEEEE" height="19.0938" rx="5" ry="5" style="stroke: #000000; stroke-width: 2.5;" width="92" x="11.5" y="353.8125"/><text fill="#000000" font-family="sans-serif" font-size="12" lengthAdjust="spacingAndGlyphs" textLength="30" x="42.5" y="368.2695">Jeudi</text><path d="M113.031,352.3125 C110.501,352.3125 109,355.3125 109,355.3125 C109,355.3125 110.501,358.3125 113.031,358.3125 C115.501,358.3125 117,355.3125 117,355.3125 C117,355.3125 115.501,352.3125 113.031,352.3125 M113,353.3125 C114.1,353.3125 115,354.2125 115,355.3125 C115,356.4125 114.1,357.3125 113,357.3125 C111.9,357.3125 111,356.4125 111,355.3125 C111,354.2125 111.9,353.3125 113,353.3125 M113,354.3125 C112.45,354.3125 112,354.7625 112,355.3125 C112,355.8625 112.45,356.3125 113,356.3125 C113.55,356.3125 114,355.8625 114,355.3125 C114,355.2125 113.968,355.1215 113.937,355.0315 C113.857,355.1915 113.7,355.3125 113.499,355.3125 C113.219,355.3125 112.999,355.0925 112.999,354.8125 C112.999,354.6125 113.12,354.4555 113.28,354.3745 C113.19,354.3445 113.099,354.3115 112.999,354.3115 " fill="#000000" style="stroke: ; stroke-width: 0.0; stroke-dasharray: ;"/><rect fill="#EEEEEE" height="19.0938" rx="5" ry="5" style="stroke: #000000; stroke-width: 2.5;" width="92" x="11.5" y="379.9063"/><text fill="#000000" font-family="sans-serif" font-size="12" font-weight="bold" lengthAdjust="spacingAndGlyphs" textLength="51" x="32" y="394.3633">Vendredi</text><rect fill="#EEEEEE" height="12" rx="5" ry="5" style="stroke: #000000; stroke-width: 2.5;" width="20" x="110.5" y="379.9063"/><path d="M120.531,382.9063 C118.001,382.9063 116.5,385.9063 116.5,385.9063 C116.5,385.9063 118.001,388.9063 120.531,388.9063 C123.001,388.9063 124.5,385.9063 124.5,385.9063 C124.5,385.9063 123.001,382.9063 120.531,382.9063 M120.5,383.9063 C121.6,383.9063 122.5,384.8063 122.5,385.9063 C122.5,387.0063 121.6,387.9063 120.5,387.9063 C119.4,387.9063 118.5,387.0063 118.5,385.9063 C118.5,384.8063 119.4,383.9063 120.5,383.9063 M120.5,384.9063 C119.95,384.9063 119.5,385.3563 119.5,385.9063 C119.5,386.4563 119.95,386.9063 120.5,386.9063 C121.05,386.9063 121.5,386.4563 121.5,385.9063 C121.5,385.8063 121.468,385.7153 121.437,385.6253 C121.357,385.7853 121.2,385.9063 120.999,385.9063 C120.719,385.9063 120.499,385.6863 120.499,385.4063 C120.499,385.2063 120.62,385.0493 120.78,384.9683 C120.69,384.9383 120.599,384.9053 120.499,384.9053 " fill="#000000" style="stroke: ; stroke-width: 0.0; stroke-dasharray: ;"/><rect fill="#EEEEEE" height="19.0938" rx="5" ry="5" style="stroke: #000000; stroke-width: 2.5;" width="92" x="11.5" y="406"/><text fill="#000000" font-family="sans-serif" font-size="12" lengthAdjust="spacingAndGlyphs" textLength="43" x="36" y="420.457">Samedi</text><path d="M113.031,404.5 C110.501,404.5 109,407.5 109,407.5 C109,407.5 110.501,410.5 113.031,410.5 C115.501,410.5 117,407.5 117,407.5 C117,407.5 115.501,404.5 113.031,404.5 M113,405.5 C114.1,405.5 115,406.4 115,407.5 C115,408.6 114.1,409.5 113,409.5 C111.9,409.5 111,408.6 111,407.5 C111,406.4 111.9,405.5 113,405.5 M113,406.5 C112.45,406.5 112,406.95 112,407.5 C112,408.05 112.45,408.5 113,408.5 C113.55,408.5 114,408.05 114,407.5 C114,407.4 113.968,407.309 113.937,407.219 C113.857,407.379 113.7,407.5 113.499,407.5 C113.219,407.5 112.999,407.28 112.999,407 C112.999,406.8 113.12,406.643 113.28,406.562 C113.19,406.532 113.099,406.499 112.999,406.499 " fill="#000000" style="stroke: ; stroke-width: 0.0; stroke-dasharray: ;"/><rect fill="#EEEEEE" height="19.0938" rx="5" ry="5" style="stroke: #000000; stroke-width: 2.5;" width="92" x="11.5" y="432.0938"/><text fill="#000000" font-family="sans-serif" font-size="12" lengthAdjust="spacingAndGlyphs" textLength="57" x="29" y="446.5508">Dimanche</text><path d="M113.031,430.5938 C110.501,430.5938 109,433.5938 109,433.5938 C109,433.5938 110.501,436.5938 113.031,436.5938 C115.501,436.5938 117,433.5938 117,433.5938 C117,433.5938 115.501,430.5938 113.031,430.5938 M113,431.5938 C114.1,431.5938 115,432.4938 115,433.5938 C115,434.6938 114.1,435.5938 113,435.5938 C111.9,435.5938 111,434.6938 111,433.5938 C111,432.4938 111.9,431.5938 113,431.5938 M113,432.5938 C112.45,432.5938 112,433.0438 112,433.5938 C112,434.1438 112.45,434.5938 113,434.5938 C113.55,434.5938 114,434.1438 114,433.5938 C114,433.4938 113.968,433.4028 113.937,433.3128 C113.857,433.4728 113.7,433.5938 113.499,433.5938 C113.219,433.5938 112.999,433.3738 112.999,433.0938 C112.999,432.8938 113.12,432.7368 113.28,432.6558 C113.19,432.6258 113.099,432.5928 112.999,432.5928 " fill="#000000" style="stroke: ; stroke-width: 0.0; stroke-dasharray: ;"/><rect fill="#EEEEEE" height="19.0938" rx="5" ry="5" style="stroke: #000000; stroke-width: 2.5;" width="228" x="17.5" y="461.1875"/><text fill="#000000" font-family="sans-serif" font-size="12" lengthAdjust="spacingAndGlyphs" textLength="147" x="58" y="475.6445">Ajouter un métier (= Entrer)</text><rect fill="#EEEEEE" height="19.0938" rx="5" ry="5" style="stroke: #000000; stroke-width: 2.5;" width="156" x="252.5" y="461.1875"/><text fill="#000000" font-family="sans-serif" font-size="12" lengthAdjust="spacingAndGlyphs" textLength="104" x="278.5" y="475.6445">Annuler la dernière</text><line style="stroke: #000000; stroke-width: 1.0;" x1="7" x2="582" y1="181.75" y2="181.75"/><line style="stroke: #000000; stroke-width: 1.0;" x1="7" x2="582" y1="485.7813" y2="485.7813"/><line style="stroke: #000000; stroke-width: 1.0;" x1="7" x2="7" y1="181.75" y2="206.8438"/><line style="stroke: #000000; stroke-width: 1.0;" x1="582" x2="582" y1="206.8438" y2="253.9375"/><line style="stroke: #000000; stroke-width: 1.0;" x1="582" x2="582" y1="181.75" y2="206.8438"/><line style="stroke: #000000; stroke-width: 1.0;" x1="7" x2="7" y1="455.6875" y2="485.7813"/><line style="stroke: #000000; stroke-width: 1.0;" x1="7" x2="7" y1="271.0313" y2="455.6875"/><line style="stroke: #000000; stroke-width: 1.0;" x1="582" x2="582" y1="455.6875" y2="485.7813"/><line style="stroke: #000000; stroke-width: 1.0;" x1="7" x2="7" y1="253.9375" y2="271.0313"/><line style="stroke: #000000; stroke-width: 1.0;" x1="582" x2="582" y1="271.0313" y2="455.6875"/><line style="stroke: #000000; stroke-width: 1.0;" x1="7" x2="7" y1="206.8438" y2="253.9375"/><line style="stroke: #000000; stroke-width: 1.0;" x1="582" x2="582" y1="253.9375" y2="271.0313"/><rect fill="#EEEEEE" height="19.0938" rx="5" ry="5" style="stroke: #000000; stroke-width: 2.5;" width="252" x="16.5" y="509.375"/><text fill="#000000" font-family="sans-serif" font-size="12" lengthAdjust="spacingAndGlyphs" textLength="163" x="61" y="523.832">Ajouter une situation (=Entrer)</text><rect fill="#EEEEEE" height="19.0938" rx="5" ry="5" style="stroke: #000000; stroke-width: 2.5;" width="156" x="275.5" y="509.375"/><text fill="#000000" font-family="sans-serif" font-size="12" lengthAdjust="spacingAndGlyphs" textLength="104" x="301.5" y="523.832">Annuler la dernière</text><line style="stroke: #000000; stroke-width: 1.0;" x1="6" x2="583" y1="107.4688" y2="107.4688"/><line style="stroke: #000000; stroke-width: 1.0;" x1="6" x2="583" y1="533.9688" y2="533.9688"/><line style="stroke: #000000; stroke-width: 1.0;" x1="6" x2="6" y1="107.4688" y2="130.5625"/><line style="stroke: #000000; stroke-width: 1.0;" x1="583" x2="583" y1="107.4688" y2="130.5625"/><line style="stroke: #000000; stroke-width: 1.0;" x1="6" x2="6" y1="486.7813" y2="503.875"/><line style="stroke: #000000; stroke-width: 1.0;" x1="583" x2="583" y1="486.7813" y2="503.875"/><line style="stroke: #000000; stroke-width: 1.0;" x1="6" x2="6" y1="163.6563" y2="180.75"/><line style="stroke: #000000; stroke-width: 1.0;" x1="583" x2="583" y1="163.6563" y2="180.75"/><line style="stroke: #000000; stroke-width: 1.0;" x1="6" x2="6" y1="130.5625" y2="138.5625"/><line style="stroke: #000000; stroke-width: 1.0;" x1="583" x2="583" y1="130.5625" y2="138.5625"/><line style="stroke: #000000; stroke-width: 1.0;" x1="6" x2="6" y1="503.875" y2="533.9688"/><line style="stroke: #000000; stroke-width: 1.0;" x1="583" x2="583" y1="503.875" y2="533.9688"/><line style="stroke: #000000; stroke-width: 1.0;" x1="6" x2="6" y1="180.75" y2="486.7813"/><line style="stroke: #000000; stroke-width: 1.0;" x1="583" x2="583" y1="180.75" y2="486.7813"/><line style="stroke: #000000; stroke-width: 1.0;" x1="6" x2="6" y1="138.5625" y2="163.6563"/><line style="stroke: #000000; stroke-width: 1.0;" x1="583" x2="583" y1="138.5625" y2="163.6563"/><rect fill="#EEEEEE" height="19.0938" rx="5" ry="5" style="stroke: #000000; stroke-width: 2.5;" width="260" x="9.5" y="556.5625"/><text fill="#000000" font-family="sans-serif" font-size="12" lengthAdjust="spacingAndGlyphs" textLength="170" x="54.5" y="571.0195">Fermer et retour à l'observation</text></g></svg>