<?xml version="1.0" encoding="us-ascii" standalone="no"?><svg xmlns="http://www.w3.org/2000/svg" xmlns:xlink="http://www.w3.org/1999/xlink" contentStyleType="text/css" height="663px" preserveAspectRatio="none" style="width:842px;height:663px;background:#FFFFFF;" version="1.1" viewBox="0 0 842 663" width="842px" zoomAndPan="magnify"><defs/><g><!--class EquipmentConfiguration--><g id="elem_EquipmentConfiguration"><rect codeLine="3" fill="#F1F1F1" height="110.4375" id="EquipmentConfiguration" rx="2.5" ry="2.5" style="stroke:#181818;stroke-width:0.5;" width="237" x="229" y="7"/><ellipse cx="267.85" cy="23" fill="#ADD1B2" rx="11" ry="11" style="stroke:#181818;stroke-width:1.0;"/><path d="M270.6156,18.875 Q270.7719,18.6563 270.9594,18.5469 Q271.1469,18.4375 271.3656,18.4375 Q271.7406,18.4375 271.975,18.7031 Q272.2094,18.9531 272.2094,19.5625 L272.2094,21.0156 Q272.2094,21.625 271.975,21.8906 Q271.7406,22.1563 271.3656,22.1563 Q271.0219,22.1563 270.8188,21.9531 Q270.6156,21.7656 270.5063,21.25 Q270.4594,20.8906 270.2719,20.7031 Q269.9438,20.3281 269.3344,20.1094 Q268.725,19.8906 268.1,19.8906 Q267.3344,19.8906 266.6938,20.2188 Q266.0688,20.5469 265.5688,21.2969 Q265.0844,22.0469 265.0844,23.0781 L265.0844,24.1719 Q265.0844,25.4063 265.975,26.2344 Q266.8656,27.0469 268.4594,27.0469 Q269.3969,27.0469 270.0531,26.7969 Q270.4438,26.6406 270.8656,26.2031 Q271.1313,25.9375 271.2719,25.8594 Q271.4281,25.7813 271.6313,25.7813 Q271.9594,25.7813 272.2094,26.0469 Q272.475,26.2969 272.475,26.6406 Q272.475,26.9844 272.1313,27.3906 Q271.6313,27.9688 270.8344,28.2969 Q269.7563,28.75 268.4594,28.75 Q266.9438,28.75 265.7406,28.125 Q264.7563,27.625 264.0688,26.5625 Q263.3813,25.4844 263.3813,24.2031 L263.3813,23.0469 Q263.3813,21.7188 263.9906,20.5781 Q264.6156,19.4219 265.7094,18.8125 Q266.8031,18.1875 268.0375,18.1875 Q268.7719,18.1875 269.4125,18.3594 Q270.0688,18.5156 270.6156,18.875 Z " fill="#000000"/><text fill="#000000" font-family="sans-serif" font-size="14" lengthAdjust="spacing" textLength="152" x="287.15" y="28.7285">EquipmentConfiguration</text><line style="stroke:#181818;stroke-width:0.5;" x1="230" x2="465" y1="39" y2="39"/><ellipse cx="240" cy="53.3047" fill="none" rx="3" ry="3" style="stroke:#038048;stroke-width:1.0;"/><text fill="#000000" font-family="sans-serif" font-size="14" lengthAdjust="spacing" textLength="73" x="249" y="57.5332">id: Identifier</text><ellipse cx="240" cy="70.9141" fill="none" rx="3" ry="3" style="stroke:#038048;stroke-width:1.0;"/><text fill="#000000" font-family="sans-serif" font-size="14" lengthAdjust="spacing" textLength="96" x="249" y="75.1426">startDate: Date</text><ellipse cx="240" cy="88.5234" fill="none" rx="3" ry="3" style="stroke:#038048;stroke-width:1.0;"/><text fill="#000000" font-family="sans-serif" font-size="14" lengthAdjust="spacing" textLength="99" x="249" y="92.752">fileName: String</text><ellipse cx="240" cy="106.1328" fill="none" rx="3" ry="3" style="stroke:#038048;stroke-width:1.0;"/><text fill="#000000" font-family="sans-serif" font-size="14" lengthAdjust="spacing" textLength="211" x="249" y="110.3613">configurationVersion: String [0..1]</text></g><!--class EquipmentOnBoardPlatform--><g id="elem_EquipmentOnBoardPlatform"><rect codeLine="10" fill="#F1F1F1" height="110.4375" id="EquipmentOnBoardPlatform" rx="2.5" ry="2.5" style="stroke:#181818;stroke-width:0.5;" width="216" x="239.5" y="195"/><ellipse cx="258.1" cy="211" fill="#ADD1B2" rx="11" ry="11" style="stroke:#181818;stroke-width:1.0;"/><path d="M260.8656,206.875 Q261.0219,206.6563 261.2094,206.5469 Q261.3969,206.4375 261.6156,206.4375 Q261.9906,206.4375 262.225,206.7031 Q262.4594,206.9531 262.4594,207.5625 L262.4594,209.0156 Q262.4594,209.625 262.225,209.8906 Q261.9906,210.1563 261.6156,210.1563 Q261.2719,210.1563 261.0688,209.9531 Q260.8656,209.7656 260.7563,209.25 Q260.7094,208.8906 260.5219,208.7031 Q260.1938,208.3281 259.5844,208.1094 Q258.975,207.8906 258.35,207.8906 Q257.5844,207.8906 256.9438,208.2188 Q256.3188,208.5469 255.8188,209.2969 Q255.3344,210.0469 255.3344,211.0781 L255.3344,212.1719 Q255.3344,213.4063 256.225,214.2344 Q257.1156,215.0469 258.7094,215.0469 Q259.6469,215.0469 260.3031,214.7969 Q260.6938,214.6406 261.1156,214.2031 Q261.3813,213.9375 261.5219,213.8594 Q261.6781,213.7813 261.8813,213.7813 Q262.2094,213.7813 262.4594,214.0469 Q262.725,214.2969 262.725,214.6406 Q262.725,214.9844 262.3813,215.3906 Q261.8813,215.9688 261.0844,216.2969 Q260.0063,216.75 258.7094,216.75 Q257.1938,216.75 255.9906,216.125 Q255.0063,215.625 254.3188,214.5625 Q253.6313,213.4844 253.6313,212.2031 L253.6313,211.0469 Q253.6313,209.7188 254.2406,208.5781 Q254.8656,207.4219 255.9594,206.8125 Q257.0531,206.1875 258.2875,206.1875 Q259.0219,206.1875 259.6625,206.3594 Q260.3188,206.5156 260.8656,206.875 Z " fill="#000000"/><text fill="#000000" font-family="sans-serif" font-size="14" lengthAdjust="spacing" textLength="176" x="272.9" y="216.7285">EquipmentOnBoardPlatform</text><line style="stroke:#181818;stroke-width:0.5;" x1="240.5" x2="454.5" y1="227" y2="227"/><ellipse cx="250.5" cy="241.3047" fill="none" rx="3" ry="3" style="stroke:#038048;stroke-width:1.0;"/><text fill="#000000" font-family="sans-serif" font-size="14" lengthAdjust="spacing" textLength="73" x="259.5" y="245.5332">id: Identifier</text><ellipse cx="250.5" cy="258.9141" fill="none" rx="3" ry="3" style="stroke:#038048;stroke-width:1.0;"/><text fill="#000000" font-family="sans-serif" font-size="14" lengthAdjust="spacing" textLength="158" x="259.5" y="263.1426">startDateTime: DateTime</text><ellipse cx="250.5" cy="276.5234" fill="none" rx="3" ry="3" style="stroke:#038048;stroke-width:1.0;"/><text fill="#000000" font-family="sans-serif" font-size="14" lengthAdjust="spacing" textLength="190" x="259.5" y="280.752">endDateTime: DateTime [0..1]</text><ellipse cx="250.5" cy="294.1328" fill="none" rx="3" ry="3" style="stroke:#038048;stroke-width:1.0;"/><text fill="#000000" font-family="sans-serif" font-size="14" lengthAdjust="spacing" textLength="145" x="259.5" y="298.3613">comments: String [0..1]</text></g><!--class Gear--><g id="elem_Gear"><rect codeLine="17" fill="#F1F1F1" height="32" id="Gear" rx="2.5" ry="2.5" style="stroke:#181818;stroke-width:0.5;" width="64" x="517.5" y="234"/><ellipse cx="532.5" cy="250" fill="#ADD1B2" rx="11" ry="11" style="stroke:#181818;stroke-width:1.0;"/><path d="M535.2656,245.875 Q535.4219,245.6563 535.6094,245.5469 Q535.7969,245.4375 536.0156,245.4375 Q536.3906,245.4375 536.625,245.7031 Q536.8594,245.9531 536.8594,246.5625 L536.8594,248.0156 Q536.8594,248.625 536.625,248.8906 Q536.3906,249.1563 536.0156,249.1563 Q535.6719,249.1563 535.4688,248.9531 Q535.2656,248.7656 535.1563,248.25 Q535.1094,247.8906 534.9219,247.7031 Q534.5938,247.3281 533.9844,247.1094 Q533.375,246.8906 532.75,246.8906 Q531.9844,246.8906 531.3438,247.2188 Q530.7188,247.5469 530.2188,248.2969 Q529.7344,249.0469 529.7344,250.0781 L529.7344,251.1719 Q529.7344,252.4063 530.625,253.2344 Q531.5156,254.0469 533.1094,254.0469 Q534.0469,254.0469 534.7031,253.7969 Q535.0938,253.6406 535.5156,253.2031 Q535.7813,252.9375 535.9219,252.8594 Q536.0781,252.7813 536.2813,252.7813 Q536.6094,252.7813 536.8594,253.0469 Q537.125,253.2969 537.125,253.6406 Q537.125,253.9844 536.7813,254.3906 Q536.2813,254.9688 535.4844,255.2969 Q534.4063,255.75 533.1094,255.75 Q531.5938,255.75 530.3906,255.125 Q529.4063,254.625 528.7188,253.5625 Q528.0313,252.4844 528.0313,251.2031 L528.0313,250.0469 Q528.0313,248.7188 528.6406,247.5781 Q529.2656,246.4219 530.3594,245.8125 Q531.4531,245.1875 532.6875,245.1875 Q533.4219,245.1875 534.0625,245.3594 Q534.7188,245.5156 535.2656,245.875 Z " fill="#000000"/><text fill="#000000" font-family="sans-serif" font-size="14" lengthAdjust="spacing" textLength="32" x="546.5" y="255.7285">Gear</text></g><!--class Platform--><g id="elem_Platform"><rect codeLine="20" fill="#F1F1F1" height="32" id="Platform" rx="2.5" ry="2.5" style="stroke:#181818;stroke-width:0.5;" width="84" x="72.5" y="234"/><ellipse cx="87.5" cy="250" fill="#ADD1B2" rx="11" ry="11" style="stroke:#181818;stroke-width:1.0;"/><path d="M90.2656,245.875 Q90.4219,245.6563 90.6094,245.5469 Q90.7969,245.4375 91.0156,245.4375 Q91.3906,245.4375 91.625,245.7031 Q91.8594,245.9531 91.8594,246.5625 L91.8594,248.0156 Q91.8594,248.625 91.625,248.8906 Q91.3906,249.1563 91.0156,249.1563 Q90.6719,249.1563 90.4688,248.9531 Q90.2656,248.7656 90.1563,248.25 Q90.1094,247.8906 89.9219,247.7031 Q89.5938,247.3281 88.9844,247.1094 Q88.375,246.8906 87.75,246.8906 Q86.9844,246.8906 86.3438,247.2188 Q85.7188,247.5469 85.2188,248.2969 Q84.7344,249.0469 84.7344,250.0781 L84.7344,251.1719 Q84.7344,252.4063 85.625,253.2344 Q86.5156,254.0469 88.1094,254.0469 Q89.0469,254.0469 89.7031,253.7969 Q90.0938,253.6406 90.5156,253.2031 Q90.7813,252.9375 90.9219,252.8594 Q91.0781,252.7813 91.2813,252.7813 Q91.6094,252.7813 91.8594,253.0469 Q92.125,253.2969 92.125,253.6406 Q92.125,253.9844 91.7813,254.3906 Q91.2813,254.9688 90.4844,255.2969 Q89.4063,255.75 88.1094,255.75 Q86.5938,255.75 85.3906,255.125 Q84.4063,254.625 83.7188,253.5625 Q83.0313,252.4844 83.0313,251.2031 L83.0313,250.0469 Q83.0313,248.7188 83.6406,247.5781 Q84.2656,246.4219 85.3594,245.8125 Q86.4531,245.1875 87.6875,245.1875 Q88.4219,245.1875 89.0625,245.3594 Q89.7188,245.5156 90.2656,245.875 Z " fill="#000000"/><text fill="#000000" font-family="sans-serif" font-size="14" lengthAdjust="spacing" textLength="52" x="101.5" y="255.7285">Platform</text></g><!--class Equipment--><g id="elem_Equipment"><rect codeLine="23" fill="#F1F1F1" height="163.2656" id="Equipment" rx="2.5" ry="2.5" style="stroke:#181818;stroke-width:0.5;" width="263" x="216" y="383"/><ellipse cx="309.75" cy="399" fill="#ADD1B2" rx="11" ry="11" style="stroke:#181818;stroke-width:1.0;"/><path d="M312.5156,394.875 Q312.6719,394.6563 312.8594,394.5469 Q313.0469,394.4375 313.2656,394.4375 Q313.6406,394.4375 313.875,394.7031 Q314.1094,394.9531 314.1094,395.5625 L314.1094,397.0156 Q314.1094,397.625 313.875,397.8906 Q313.6406,398.1563 313.2656,398.1563 Q312.9219,398.1563 312.7188,397.9531 Q312.5156,397.7656 312.4063,397.25 Q312.3594,396.8906 312.1719,396.7031 Q311.8438,396.3281 311.2344,396.1094 Q310.625,395.8906 310,395.8906 Q309.2344,395.8906 308.5938,396.2188 Q307.9688,396.5469 307.4688,397.2969 Q306.9844,398.0469 306.9844,399.0781 L306.9844,400.1719 Q306.9844,401.4063 307.875,402.2344 Q308.7656,403.0469 310.3594,403.0469 Q311.2969,403.0469 311.9531,402.7969 Q312.3438,402.6406 312.7656,402.2031 Q313.0313,401.9375 313.1719,401.8594 Q313.3281,401.7813 313.5313,401.7813 Q313.8594,401.7813 314.1094,402.0469 Q314.375,402.2969 314.375,402.6406 Q314.375,402.9844 314.0313,403.3906 Q313.5313,403.9688 312.7344,404.2969 Q311.6563,404.75 310.3594,404.75 Q308.8438,404.75 307.6406,404.125 Q306.6563,403.625 305.9688,402.5625 Q305.2813,401.4844 305.2813,400.2031 L305.2813,399.0469 Q305.2813,397.7188 305.8906,396.5781 Q306.5156,395.4219 307.6094,394.8125 Q308.7031,394.1875 309.9375,394.1875 Q310.6719,394.1875 311.3125,394.3594 Q311.9688,394.5156 312.5156,394.875 Z " fill="#000000"/><text fill="#000000" font-family="sans-serif" font-size="14" lengthAdjust="spacing" textLength="67" x="330.25" y="404.7285">Equipment</text><line style="stroke:#181818;stroke-width:0.5;" x1="217" x2="478" y1="415" y2="415"/><ellipse cx="227" cy="429.3047" fill="none" rx="3" ry="3" style="stroke:#038048;stroke-width:1.0;"/><text fill="#000000" font-family="sans-serif" font-size="14" lengthAdjust="spacing" textLength="73" x="236" y="433.5332">id: Identifier</text><ellipse cx="227" cy="446.9141" fill="none" rx="3" ry="3" style="stroke:#038048;stroke-width:1.0;"/><text fill="#000000" font-family="sans-serif" font-size="14" lengthAdjust="spacing" textLength="164" x="236" y="451.1426">serialNumber: String [0..1]</text><ellipse cx="227" cy="464.5234" fill="none" rx="3" ry="3" style="stroke:#038048;stroke-width:1.0;"/><text fill="#000000" font-family="sans-serif" font-size="14" lengthAdjust="spacing" textLength="117" x="236" y="468.752">deliveryDate: Date</text><ellipse cx="227" cy="482.1328" fill="none" rx="3" ry="3" style="stroke:#038048;stroke-width:1.0;"/><text fill="#000000" font-family="sans-serif" font-size="14" lengthAdjust="spacing" textLength="237" x="236" y="486.3613">daysBetweenTwoCalibrations: Integer</text><ellipse cx="227" cy="499.7422" fill="none" rx="3" ry="3" style="stroke:#038048;stroke-width:1.0;"/><text fill="#000000" font-family="sans-serif" font-size="14" lengthAdjust="spacing" textLength="194" x="236" y="503.9707">lastCalibrationDate: Date [0..1]</text><ellipse cx="227" cy="517.3516" fill="none" rx="3" ry="3" style="stroke:#038048;stroke-width:1.0;"/><text fill="#000000" font-family="sans-serif" font-size="14" lengthAdjust="spacing" textLength="126" x="236" y="521.5801">docRef: String [0..1]</text><ellipse cx="227" cy="534.9609" fill="none" rx="3" ry="3" style="stroke:#038048;stroke-width:1.0;"/><text fill="#000000" font-family="sans-serif" font-size="14" lengthAdjust="spacing" textLength="145" x="236" y="539.1895">comments: String [0..1]</text></g><!--class EquipmentModel--><g id="elem_EquipmentModel"><rect codeLine="33" fill="#F1F1F1" height="32" id="EquipmentModel" rx="2.5" ry="2.5" style="stroke:#181818;stroke-width:0.5;" width="137" x="7" y="448.5"/><ellipse cx="22" cy="464.5" fill="#ADD1B2" rx="11" ry="11" style="stroke:#181818;stroke-width:1.0;"/><path d="M24.7656,460.375 Q24.9219,460.1563 25.1094,460.0469 Q25.2969,459.9375 25.5156,459.9375 Q25.8906,459.9375 26.125,460.2031 Q26.3594,460.4531 26.3594,461.0625 L26.3594,462.5156 Q26.3594,463.125 26.125,463.3906 Q25.8906,463.6563 25.5156,463.6563 Q25.1719,463.6563 24.9688,463.4531 Q24.7656,463.2656 24.6563,462.75 Q24.6094,462.3906 24.4219,462.2031 Q24.0938,461.8281 23.4844,461.6094 Q22.875,461.3906 22.25,461.3906 Q21.4844,461.3906 20.8438,461.7188 Q20.2188,462.0469 19.7188,462.7969 Q19.2344,463.5469 19.2344,464.5781 L19.2344,465.6719 Q19.2344,466.9063 20.125,467.7344 Q21.0156,468.5469 22.6094,468.5469 Q23.5469,468.5469 24.2031,468.2969 Q24.5938,468.1406 25.0156,467.7031 Q25.2813,467.4375 25.4219,467.3594 Q25.5781,467.2813 25.7813,467.2813 Q26.1094,467.2813 26.3594,467.5469 Q26.625,467.7969 26.625,468.1406 Q26.625,468.4844 26.2813,468.8906 Q25.7813,469.4688 24.9844,469.7969 Q23.9063,470.25 22.6094,470.25 Q21.0938,470.25 19.8906,469.625 Q18.9063,469.125 18.2188,468.0625 Q17.5313,466.9844 17.5313,465.7031 L17.5313,464.5469 Q17.5313,463.2188 18.1406,462.0781 Q18.7656,460.9219 19.8594,460.3125 Q20.9531,459.6875 22.1875,459.6875 Q22.9219,459.6875 23.5625,459.8594 Q24.2188,460.0156 24.7656,460.375 Z " fill="#000000"/><text fill="#000000" font-family="sans-serif" font-size="14" lengthAdjust="spacing" textLength="105" x="36" y="470.2285">EquipmentModel</text></g><!--class EquipmentMeasurement--><g id="elem_EquipmentMeasurement"><rect codeLine="36" fill="#F1F1F1" height="32" id="EquipmentMeasurement" rx="2.5" ry="2.5" style="stroke:#181818;stroke-width:0.5;" width="185" x="255" y="624"/><ellipse cx="270" cy="640" fill="#ADD1B2" rx="11" ry="11" style="stroke:#181818;stroke-width:1.0;"/><path d="M272.7656,635.875 Q272.9219,635.6563 273.1094,635.5469 Q273.2969,635.4375 273.5156,635.4375 Q273.8906,635.4375 274.125,635.7031 Q274.3594,635.9531 274.3594,636.5625 L274.3594,638.0156 Q274.3594,638.625 274.125,638.8906 Q273.8906,639.1563 273.5156,639.1563 Q273.1719,639.1563 272.9688,638.9531 Q272.7656,638.7656 272.6563,638.25 Q272.6094,637.8906 272.4219,637.7031 Q272.0938,637.3281 271.4844,637.1094 Q270.875,636.8906 270.25,636.8906 Q269.4844,636.8906 268.8438,637.2188 Q268.2188,637.5469 267.7188,638.2969 Q267.2344,639.0469 267.2344,640.0781 L267.2344,641.1719 Q267.2344,642.4063 268.125,643.2344 Q269.0156,644.0469 270.6094,644.0469 Q271.5469,644.0469 272.2031,643.7969 Q272.5938,643.6406 273.0156,643.2031 Q273.2813,642.9375 273.4219,642.8594 Q273.5781,642.7813 273.7813,642.7813 Q274.1094,642.7813 274.3594,643.0469 Q274.625,643.2969 274.625,643.6406 Q274.625,643.9844 274.2813,644.3906 Q273.7813,644.9688 272.9844,645.2969 Q271.9063,645.75 270.6094,645.75 Q269.0938,645.75 267.8906,645.125 Q266.9063,644.625 266.2188,643.5625 Q265.5313,642.4844 265.5313,641.2031 L265.5313,640.0469 Q265.5313,638.7188 266.1406,637.5781 Q266.7656,636.4219 267.8594,635.8125 Q268.9531,635.1875 270.1875,635.1875 Q270.9219,635.1875 271.5625,635.3594 Q272.2188,635.5156 272.7656,635.875 Z " fill="#000000"/><text fill="#000000" font-family="sans-serif" font-size="14" lengthAdjust="spacing" textLength="153" x="284" y="645.7285">EquipmentMeasurement</text></g><!--class EquipmentDeliveryState--><g id="elem_EquipmentDeliveryState"><rect codeLine="39" fill="#F1F1F1" height="32" id="EquipmentDeliveryState" rx="2.5" ry="2.5" style="stroke:#181818;stroke-width:0.5;" width="183" x="652" y="448.5"/><ellipse cx="667" cy="464.5" fill="#ADD1B2" rx="11" ry="11" style="stroke:#181818;stroke-width:1.0;"/><path d="M669.7656,460.375 Q669.9219,460.1563 670.1094,460.0469 Q670.2969,459.9375 670.5156,459.9375 Q670.8906,459.9375 671.125,460.2031 Q671.3594,460.4531 671.3594,461.0625 L671.3594,462.5156 Q671.3594,463.125 671.125,463.3906 Q670.8906,463.6563 670.5156,463.6563 Q670.1719,463.6563 669.9688,463.4531 Q669.7656,463.2656 669.6563,462.75 Q669.6094,462.3906 669.4219,462.2031 Q669.0938,461.8281 668.4844,461.6094 Q667.875,461.3906 667.25,461.3906 Q666.4844,461.3906 665.8438,461.7188 Q665.2188,462.0469 664.7188,462.7969 Q664.2344,463.5469 664.2344,464.5781 L664.2344,465.6719 Q664.2344,466.9063 665.125,467.7344 Q666.0156,468.5469 667.6094,468.5469 Q668.5469,468.5469 669.2031,468.2969 Q669.5938,468.1406 670.0156,467.7031 Q670.2813,467.4375 670.4219,467.3594 Q670.5781,467.2813 670.7813,467.2813 Q671.1094,467.2813 671.3594,467.5469 Q671.625,467.7969 671.625,468.1406 Q671.625,468.4844 671.2813,468.8906 Q670.7813,469.4688 669.9844,469.7969 Q668.9063,470.25 667.6094,470.25 Q666.0938,470.25 664.8906,469.625 Q663.9063,469.125 663.2188,468.0625 Q662.5313,466.9844 662.5313,465.7031 L662.5313,464.5469 Q662.5313,463.2188 663.1406,462.0781 Q663.7656,460.9219 664.8594,460.3125 Q665.9531,459.6875 667.1875,459.6875 Q667.9219,459.6875 668.5625,459.8594 Q669.2188,460.0156 669.7656,460.375 Z " fill="#000000"/><text fill="#000000" font-family="sans-serif" font-size="14" lengthAdjust="spacing" textLength="151" x="681" y="470.2285">EquipmentDeliveryState</text></g><!--link EquipmentConfiguration to EquipmentOnBoardPlatform--><g id="link_EquipmentConfiguration_EquipmentOnBoardPlatform"><path codeLine="42" d="M347.5,117.05 C347.5,141.5 347.5,164.35 347.5,188.82 " fill="none" id="EquipmentConfiguration-to-EquipmentOnBoardPlatform" style="stroke:#181818;stroke-width:1.0;"/><polygon fill="#181818" points="347.5,194.82,351.5,185.82,347.5,189.82,343.5,185.82,347.5,194.82" style="stroke:#181818;stroke-width:1.0;"/><text fill="#000000" font-family="sans-serif" font-size="13" lengthAdjust="spacing" textLength="159" x="348.5" y="161.4951">equipmentOnBoardPlatform</text><text fill="#000000" font-family="sans-serif" font-size="13" lengthAdjust="spacing" textLength="5" x="342.1641" y="139.0117">*</text><text fill="#000000" font-family="sans-serif" font-size="13" lengthAdjust="spacing" textLength="7" x="340.0516" y="184.2147">1</text></g><!--reverse link Platform to EquipmentOnBoardPlatform--><g id="link_Platform_EquipmentOnBoardPlatform"><path codeLine="43" d="M162.69,250 C185.91,250 209.87,250 239.15,250 " fill="none" id="Platform-backto-EquipmentOnBoardPlatform" style="stroke:#181818;stroke-width:1.0;"/><polygon fill="#181818" points="156.69,250,165.69,254,161.69,250,165.69,246,156.69,250" style="stroke:#181818;stroke-width:1.0;"/><text fill="#000000" font-family="sans-serif" font-size="13" lengthAdjust="spacing" textLength="46" x="175" y="243.4951">platform</text><text fill="#000000" font-family="sans-serif" font-size="13" lengthAdjust="spacing" textLength="7" x="164.543" y="246.1503">1</text><text fill="#000000" font-family="sans-serif" font-size="13" lengthAdjust="spacing" textLength="5" x="226.3559" y="246.9296">*</text></g><!--link EquipmentOnBoardPlatform to Gear--><g id="link_EquipmentOnBoardPlatform_Gear"><path codeLine="44" d="M455.6,250 C478.11,250 494.15,250 511.21,250 " fill="none" id="EquipmentOnBoardPlatform-to-Gear" style="stroke:#181818;stroke-width:1.0;"/><polygon fill="#181818" points="517.21,250,508.21,246,512.21,250,508.21,254,517.21,250" style="stroke:#181818;stroke-width:1.0;"/><text fill="#000000" font-family="sans-serif" font-size="13" lengthAdjust="spacing" textLength="25" x="474" y="243.4951">gear</text><text fill="#000000" font-family="sans-serif" font-size="13" lengthAdjust="spacing" textLength="5" x="463.3766" y="246.9296">*</text><text fill="#000000" font-family="sans-serif" font-size="13" lengthAdjust="spacing" textLength="22" x="487.499" y="264.9514">0..1</text></g><!--link EquipmentOnBoardPlatform to Equipment--><g id="link_EquipmentOnBoardPlatform_Equipment"><path codeLine="45" d="M347.5,305.17 C347.5,328.78 347.5,350.95 347.5,376.94 " fill="none" id="EquipmentOnBoardPlatform-to-Equipment" style="stroke:#181818;stroke-width:1.0;"/><polygon fill="#181818" points="347.5,382.94,351.5,373.94,347.5,377.94,343.5,373.94,347.5,382.94" style="stroke:#181818;stroke-width:1.0;"/><text fill="#000000" font-family="sans-serif" font-size="13" lengthAdjust="spacing" textLength="60" x="348.5" y="349.4951">equipment</text><text fill="#000000" font-family="sans-serif" font-size="13" lengthAdjust="spacing" textLength="5" x="342.1797" y="326.7533">*</text><text fill="#000000" font-family="sans-serif" font-size="13" lengthAdjust="spacing" textLength="7" x="340.1773" y="372.1828">1</text></g><!--reverse link EquipmentModel to Equipment--><g id="link_EquipmentModel_Equipment"><path codeLine="46" d="M150.14,464.5 C172.01,464.5 191,464.5 215.8,464.5 " fill="none" id="EquipmentModel-backto-Equipment" style="stroke:#181818;stroke-width:1.0;"/><polygon fill="#181818" points="144.14,464.5,153.14,468.5,149.14,464.5,153.14,460.5,144.14,464.5" style="stroke:#181818;stroke-width:1.0;"/><text fill="#000000" font-family="sans-serif" font-size="13" lengthAdjust="spacing" textLength="35" x="162.5" y="457.9951">model</text><text fill="#000000" font-family="sans-serif" font-size="13" lengthAdjust="spacing" textLength="7" x="152.0303" y="461.1393">1</text><text fill="#000000" font-family="sans-serif" font-size="13" lengthAdjust="spacing" textLength="5" x="203.0416" y="461.5351">*</text></g><!--reverse link Equipment to EquipmentMeasurement--><g id="link_Equipment_EquipmentMeasurement"><path codeLine="47" d="M347.5,558.15 C347.5,587.71 347.5,606.22 347.5,623.85 " fill="none" id="Equipment-backto-EquipmentMeasurement" style="stroke:#181818;stroke-width:1.0;"/><polygon fill="#181818" points="347.5,546.15,343.5,552.15,347.5,558.15,351.5,552.15,347.5,546.15" style="stroke:#181818;stroke-width:1.0;"/><text fill="#000000" font-family="sans-serif" font-size="13" lengthAdjust="spacing" textLength="139" x="348.5" y="590.4951">equipmentMeasurement</text><text fill="#000000" font-family="sans-serif" font-size="13" lengthAdjust="spacing" textLength="7" x="340.1883" y="567.6334">1</text><text fill="#000000" font-family="sans-serif" font-size="13" lengthAdjust="spacing" textLength="5" x="341.6406" y="613.104">*</text></g><!--link Equipment to EquipmentDeliveryState--><g id="link_Equipment_EquipmentDeliveryState"><path codeLine="48" d="M479.09,464.5 C535.69,464.5 594.49,464.5 645.77,464.5 " fill="none" id="Equipment-to-EquipmentDeliveryState" style="stroke:#181818;stroke-width:1.0;"/><polygon fill="#181818" points="651.77,464.5,642.77,460.5,646.77,464.5,642.77,468.5,651.77,464.5" style="stroke:#181818;stroke-width:1.0;"/><text fill="#000000" font-family="sans-serif" font-size="13" lengthAdjust="spacing" textLength="136" x="497.5" y="457.9951">equipmentDeliveryState</text><text fill="#000000" font-family="sans-serif" font-size="13" lengthAdjust="spacing" textLength="5" x="486.8421" y="461.5351">*</text><text fill="#000000" font-family="sans-serif" font-size="13" lengthAdjust="spacing" textLength="7" x="636.8838" y="461.3472">1</text></g></g></svg>