<?xml version="1.0" encoding="us-ascii" standalone="no"?><svg xmlns="http://www.w3.org/2000/svg" xmlns:xlink="http://www.w3.org/1999/xlink" contentStyleType="text/css" height="224px" preserveAspectRatio="none" style="width:529px;height:224px;background:#FFFFFF;" version="1.1" viewBox="0 0 529 224" width="529px" zoomAndPan="magnify"><defs/><g><text fill="#FFFFFF" font-family="sans-serif" font-size="12" lengthAdjust="spacing" textLength="14" x="7" y="19.457">++</text><text fill="#FFFFFF" font-family="sans-serif" font-size="12" lengthAdjust="spacing" textLength="28" x="23" y="19.457">++++</text><text fill="#FFFFFF" font-family="sans-serif" font-size="12" lengthAdjust="spacing" textLength="56" x="53" y="19.457">++++++++</text><text fill="#FFFFFF" font-family="sans-serif" font-size="12" lengthAdjust="spacing" textLength="63" x="111" y="19.457">+++++++++</text><text fill="#FFFFFF" font-family="sans-serif" font-size="12" lengthAdjust="spacing" textLength="14" x="176" y="19.457">++</text><text fill="#FFFFFF" font-family="sans-serif" font-size="12" lengthAdjust="spacing" textLength="14" x="324" y="19.457">++</text><text fill="#FFFFFF" font-family="sans-serif" font-size="12" lengthAdjust="spacing" textLength="63" x="340" y="19.457">+++++++++</text><text fill="#FFFFFF" font-family="sans-serif" font-size="12" lengthAdjust="spacing" textLength="56" x="405" y="19.457">++++++++</text><text fill="#FFFFFF" font-family="sans-serif" font-size="12" lengthAdjust="spacing" textLength="28" x="463" y="19.457">++++</text><text fill="#FFFFFF" font-family="sans-serif" font-size="12" lengthAdjust="spacing" textLength="14" x="507" y="19.457">++</text><text fill="#000000" font-family="sans-serif" font-size="16" font-weight="bold" lengthAdjust="spacing" textLength="281" x="111" y="40.7031">Bienvenue sur le site web SUMARiS !</text><text fill="#000000" font-family="sans-serif" font-size="12" lengthAdjust="spacing" textLength="482" x="23" y="58.6758">Base de donn&#233;es partag&#233;e pour des programmes de collecte de donn&#233;es halieutiques.</text><text fill="#000000" font-family="sans-serif" font-size="12" lengthAdjust="spacing" textLength="407" x="53" y="92.8633">Vous n'avez actuellement aucun droit d'acc&#232;s &#224; un programme de collecte.</text><rect fill="#EEEEEE" height="19.0938" rx="5" ry="5" style="stroke:#000000;stroke-width:2.5;" width="460" x="25.5" y="117.0938"/><path d="M99.8333,121.3542 L99.8333,122.5208 L104.5,122.5208 L104.5,128.3542 L99.8333,128.3542 L99.8333,129.5208 L105.6667,129.5208 L105.6667,121.3542 L99.8333,121.3542 M101,123.6875 L101,124.8542 L96.3333,124.8542 L96.3333,126.0208 L101,126.0208 L101,127.1875 L103.3333,125.4375 L101,123.6875 " fill="#000000" style="stroke:;stroke-width:0.0;stroke-dasharray:;"/><text fill="#000000" font-family="sans-serif" font-size="12" font-weight="bold" lengthAdjust="spacing" textLength="306" x="109.6667" y="131.5508">DEMANDER L'ACC&#200;S &#192; UN PROGRAMME DE COLLECTE</text><rect fill="#EEEEEE" height="19.0938" rx="5" ry="5" style="stroke:#000000;stroke-width:2.5;" width="460" x="25.5" y="143.1875"/><path d="M214.5,147.4479 C213.2167,147.4479 212.1667,148.7546 212.1667,150.3646 C212.1667,151.9746 213.2167,153.2813 214.5,153.2813 C215.7833,153.2813 216.8333,151.9746 216.8333,150.3646 C216.8333,148.7546 215.7833,147.4479 214.5,147.4479 M212.0617,153.2813 C210.825,153.3396 209.8333,154.3546 209.8333,155.6146 L209.8333,156.7813 L219.1667,156.7813 L219.1667,155.6146 C219.1667,154.3546 218.1867,153.3396 216.9383,153.2813 C216.3083,153.9929 215.445,154.4479 214.5,154.4479 C213.555,154.4479 212.6917,153.9929 212.0617,153.2813 " fill="#000000" style="stroke:;stroke-width:0.0;stroke-dasharray:;"/><text fill="#000000" font-family="sans-serif" font-size="12" font-weight="bold" lengthAdjust="spacing" textLength="79" x="223.1667" y="157.6445">MON COMPTE</text><text fill="#000000" font-family="sans-serif" font-size="12" lengthAdjust="spacing" textLength="88" x="176" y="179.2383">Vous n'&#234;tes pas</text><text fill="#000000" font-family="sans-serif" font-size="12" font-weight="bold" lengthAdjust="spacing" textLength="55" x="267" y="179.2383">John DOE</text><text fill="#000000" font-family="sans-serif" font-size="12" lengthAdjust="spacing" textLength="7" x="325" y="179.2383">?</text><text fill="#000000" font-family="sans-serif" font-size="12" lengthAdjust="spacing" text-decoration="underline" textLength="130" x="192" y="196.332">D&#233;connecter ce compte</text><line style="stroke:#000000;stroke-width:1.0;" x1="6" x2="22" y1="6" y2="6"/><line style="stroke:#000000;stroke-width:1.0;" x1="22" x2="52" y1="6" y2="6"/><line style="stroke:#000000;stroke-width:1.0;" x1="52" x2="110" y1="6" y2="6"/><line style="stroke:#000000;stroke-width:1.0;" x1="110" x2="175" y1="6" y2="6"/><line style="stroke:#000000;stroke-width:1.0;" x1="175" x2="191" y1="6" y2="6"/><line style="stroke:#000000;stroke-width:1.0;" x1="6" x2="22" y1="217.0625" y2="217.0625"/><line style="stroke:#000000;stroke-width:1.0;" x1="191" x2="323" y1="6" y2="6"/><line style="stroke:#000000;stroke-width:1.0;" x1="22" x2="52" y1="217.0625" y2="217.0625"/><line style="stroke:#000000;stroke-width:1.0;" x1="323" x2="339" y1="6" y2="6"/><line style="stroke:#000000;stroke-width:1.0;" x1="52" x2="110" y1="217.0625" y2="217.0625"/><line style="stroke:#000000;stroke-width:1.0;" x1="339" x2="404" y1="6" y2="6"/><line style="stroke:#000000;stroke-width:1.0;" x1="110" x2="175" y1="217.0625" y2="217.0625"/><line style="stroke:#000000;stroke-width:1.0;" x1="404" x2="462" y1="6" y2="6"/><line style="stroke:#000000;stroke-width:1.0;" x1="175" x2="191" y1="217.0625" y2="217.0625"/><line style="stroke:#000000;stroke-width:1.0;" x1="462" x2="506" y1="6" y2="6"/><line style="stroke:#000000;stroke-width:1.0;" x1="191" x2="323" y1="217.0625" y2="217.0625"/><line style="stroke:#000000;stroke-width:1.0;" x1="506" x2="522" y1="6" y2="6"/><line style="stroke:#000000;stroke-width:1.0;" x1="323" x2="339" y1="217.0625" y2="217.0625"/><line style="stroke:#000000;stroke-width:1.0;" x1="339" x2="404" y1="217.0625" y2="217.0625"/><line style="stroke:#000000;stroke-width:1.0;" x1="404" x2="462" y1="217.0625" y2="217.0625"/><line style="stroke:#000000;stroke-width:1.0;" x1="462" x2="506" y1="217.0625" y2="217.0625"/><line style="stroke:#000000;stroke-width:1.0;" x1="506" x2="522" y1="217.0625" y2="217.0625"/><line style="stroke:#000000;stroke-width:1.0;" x1="6" x2="6" y1="6" y2="23.0938"/><line style="stroke:#000000;stroke-width:1.0;" x1="522" x2="522" y1="199.9688" y2="217.0625"/><line style="stroke:#000000;stroke-width:1.0;" x1="522" x2="522" y1="165.7813" y2="182.875"/><line style="stroke:#000000;stroke-width:1.0;" x1="522" x2="522" y1="113.5938" y2="139.6875"/><line style="stroke:#000000;stroke-width:1.0;" x1="522" x2="522" y1="79.4063" y2="96.5"/><line style="stroke:#000000;stroke-width:1.0;" x1="6" x2="6" y1="182.875" y2="199.9688"/><line style="stroke:#000000;stroke-width:1.0;" x1="522" x2="522" y1="45.2188" y2="62.3125"/><line style="stroke:#000000;stroke-width:1.0;" x1="6" x2="6" y1="139.6875" y2="165.7813"/><line style="stroke:#000000;stroke-width:1.0;" x1="522" x2="522" y1="6" y2="23.0938"/><line style="stroke:#000000;stroke-width:1.0;" x1="6" x2="6" y1="96.5" y2="113.5938"/><line style="stroke:#000000;stroke-width:1.0;" x1="6" x2="6" y1="62.3125" y2="79.4063"/><line style="stroke:#000000;stroke-width:1.0;" x1="6" x2="6" y1="23.0938" y2="45.2188"/><line style="stroke:#000000;stroke-width:1.0;" x1="522" x2="522" y1="182.875" y2="199.9688"/><line style="stroke:#000000;stroke-width:1.0;" x1="522" x2="522" y1="139.6875" y2="165.7813"/><line style="stroke:#000000;stroke-width:1.0;" x1="522" x2="522" y1="96.5" y2="113.5938"/><line style="stroke:#000000;stroke-width:1.0;" x1="6" x2="6" y1="199.9688" y2="217.0625"/><line style="stroke:#000000;stroke-width:1.0;" x1="522" x2="522" y1="62.3125" y2="79.4063"/><line style="stroke:#000000;stroke-width:1.0;" x1="6" x2="6" y1="165.7813" y2="182.875"/><line style="stroke:#000000;stroke-width:1.0;" x1="522" x2="522" y1="23.0938" y2="45.2188"/><line style="stroke:#000000;stroke-width:1.0;" x1="6" x2="6" y1="113.5938" y2="139.6875"/><line style="stroke:#000000;stroke-width:1.0;" x1="6" x2="6" y1="79.4063" y2="96.5"/><line style="stroke:#000000;stroke-width:1.0;" x1="6" x2="6" y1="45.2188" y2="62.3125"/></g></svg>